<?xml version="1.0" encoding="UTF-8"?>
<svg id="a" version="1.1" viewBox="0 0 128 128" xmlns="http://www.w3.org/2000/svg"><g id="b" transform="translate(0 -924.36)"><path id="c" d="m73.331 936.36-17.283 1.664v71.21l17.112-2.5712v-30.368l22.993 33.676 18.039-5.7104-23.56-32.391 23.749-30.538-18.417-4.2356-22.804 30.538 0.16968-31.276zm-39.198 17.359c-0.19528 0.0521-0.38276 0.0999-0.52943 0.244l-6.7882 6.788c-0.28543 0.288-0.34274 0.7316-0.1324 1.0776l7.9417 13.085c-1.4096 2.37-2.5394 4.9256-3.3469 7.6204l-14.579 3.0448c-0.40594 0.086-0.69962 0.4356-0.69962 0.852v9.6068c0 0.4056 0.27079 0.75556 0.6618 0.84996l14.163 3.4608c0.75518 3.1213 1.9325 6.0916 3.4792 8.8109l-8.2064 12.499c-0.22887 0.348-0.18196 0.8024 0.11344 1.0972l6.7882 6.7876c0.28543 0.284 0.7298 0.344 1.0779 0.136l12.858-7.8096c2.5231 1.4556 5.2359 2.6076 8.1118 3.3848l2.9876 14.409c0.0842 0.4108 0.45593 0.6992 0.86975 0.6992h9.6057c0.40378 0 0.75462-0.284 0.85092-0.6808l3.517-14.427c2.9645-0.8004 5.7731-1.9952 8.3577-3.5172l12.669 8.3012c0.34812 0.232 0.80125 0.184 1.0967-0.116l6.7883-6.7884c0.28672-0.288 0.34296-0.732 0.13236-1.078l-4.6326-7.6204-1.4938 0.4732c-0.21788 0.071-0.45822 4e-4 -0.58622-0.184 0 0-2.9439-4.3184-6.7505-9.8892-4.5505 8.9064-13.815 14.995-24.506 14.995-15.189 0-27.493-12.303-27.493-27.494 0-11.174 6.6556-20.787 16.224-25.091v-7.0912c-1.7414 0.6096-3.4119 1.3408-5.0108 2.2124-0.0013-1e-3 -0.01319 1e-3 -0.0168 0l-12.953-8.5092c-0.17464-0.116-0.37202-0.152-0.56729-0.132z" fill="#334545"/></g></svg>
