<?xml version="1.0" encoding="UTF-8"?>
<svg viewBox="0 0 48 48" xmlns="http://www.w3.org/2000/svg" xmlns:xlink="http://www.w3.org/1999/xlink"><defs><linearGradient id="a" x2="0" y1="543.8" y2="503.8" gradientTransform="matrix(1.125 0 0 1-51.07 0)" gradientUnits="userSpaceOnUse"><stop stop-color="#2a2c2f" offset="0"/><stop stop-color="#424649" offset="1"/></linearGradient><linearGradient id="b" x2="0" y1="540.92" y2="522.55" gradientTransform="matrix(1 0 0 1.14286 0-77.4)" gradientUnits="userSpaceOnUse"><stop stop-color="#197cf1" offset="0"/><stop stop-color="#05a0eb" offset="1"/></linearGradient><linearGradient id="c" x2="0" y1="542.8" y2="533.8" gradientTransform="translate(0-28)" gradientUnits="userSpaceOnUse"><stop stop-color="#bcb4a1" offset="0"/><stop stop-color="#c5bfad" offset="1"/></linearGradient><linearGradient id="d" x2="0" y1="540.8" y2="531.8" gradientUnits="userSpaceOnUse"><stop stop-color="#1e1f21" offset="0"/><stop stop-color="#242628" offset="1"/></linearGradient><linearGradient id="e" x2="0" y1="528.8" y2="519.8" gradientUnits="userSpaceOnUse" xlink:href="#d"/><linearGradient id="f" x1="32" x2="42" y1="20" y2="30" gradientUnits="userSpaceOnUse"><stop stop-color="#383e51" offset="0"/><stop stop-color="#655c6f" stop-opacity="0" offset="1"/></linearGradient><linearGradient id="g" x1="404.57" x2="416.57" y1="531.8" y2="543.8" gradientTransform="translate(-384.57-499.8)" gradientUnits="userSpaceOnUse" xlink:href="#f"/><linearGradient id="h" x1="404.57" x2="416.57" y1="531.8" y2="543.8" gradientTransform="translate(0-12)" gradientUnits="userSpaceOnUse" xlink:href="#f"/><linearGradient id="i" x1="404.57" x2="416.57" y1="531.8" y2="543.8" gradientTransform="translate(-12-12)" gradientUnits="userSpaceOnUse" xlink:href="#f"/><linearGradient id="j" x1="404.57" x2="416.57" y1="531.8" y2="543.8" gradientTransform="translate(-12)" gradientUnits="userSpaceOnUse" xlink:href="#f"/></defs><g transform="translate(-384.57-499.8)"><rect x="390.57" y="503.8" width="36" height="40" rx="0" fill="url(#a)"/><g fill-rule="evenodd"><path d="m413.57 519.8-9 9 3 3h18z" fill="url(#h)" opacity=".2"/><path d="m401.57 519.8-9 9 3 3h18z" fill="url(#i)" opacity=".2"/><path d="m401.57 531.8-9 9 3 3h18z" fill="url(#j)" opacity=".2"/><path transform="translate(384.57 499.8)" d="m29 32-9 9 3 3h18z" fill="url(#g)" opacity=".2"/></g><rect x="390.57" y="542.8" width="36" height="1" fill="#1c1e20"/><path transform="translate(384.57 499.8)" d="m40 20-8 21 3 3h7v-22z" fill="url(#f)" fill-rule="evenodd" opacity=".2"/><rect x="416.57" y="519.8" width="8" height="21" rx="0" fill="url(#b)"/><rect x="392.57" y="505.8" width="32" height="9" fill="url(#c)"/><path d="m418.57 534.8v1h4v-1zm0 2v1h4v-1z" fill="#fff"/><g fill="#383432"><rect x="418.57" y="506.8" width="3" height="1"/><rect x="421.57" y="507.8" width="1" height="5"/><rect x="418.57" y="512.8" width="3" height="1"/><rect x="417.57" y="507.8" width="1" height="5"/></g><rect x="392.57" y="531.8" width="9" height="9" rx="0" fill="url(#d)"/><g fill="url(#e)"><rect x="392.57" y="519.8" width="9" height="9" rx="0"/><rect x="404.57" y="519.8" width="9" height="9" rx="0"/></g><rect x="404.57" y="531.8" width="9" height="9" rx="0" fill="url(#d)"/><g fill="#fff"><path transform="translate(384.57 499.8)" d="m12 22v2h-2v1h2v2h1v-2h2v-1h-2v-2z"/><rect transform="rotate(90)" x="523.8" y="-411.57" width="1" height="5" rx="0"/><g transform="translate(384.57 499.8)"><path d="M12.5 34A.5 .5 0 0 0 12 34.5 .5 .5 0 0 0 12.5 35 .5 .5 0 0 0 13 34.5 .5 .5 0 0 0 12.5 34M10 36V37H15V36zM12.5 38A.5 .5 0 0 0 12 38.5 .5 .5 0 0 0 12.5 39 .5 .5 0 0 0 13 38.5 .5 .5 0 0 0 12.5 38"/><path d="m22.707 34l-.707.707 1.793 1.793-1.793 1.793.707.707 1.793-1.793 1.793 1.793.707-.707-1.793-1.793 1.793-1.793-.707-.707-1.793 1.793z"/></g></g></g></svg>
