<?xml version="1.0" encoding="UTF-8"?>
<svg id="az" version="1.0" viewBox="0 0 128 128" xmlns="http://www.w3.org/2000/svg" xmlns:xlink="http://www.w3.org/1999/xlink"><defs id="ba"><linearGradient id="i"><stop id="bb" stop-color="#0d3d50" offset="0"/><stop id="bc" stop-color="#d9f0f9" stop-opacity="0" offset="1"/></linearGradient><linearGradient id="j"><stop id="bd" stop-color="#9fe7ff" offset="0"/><stop id="be" stop-color="#3b96f7" offset="1"/></linearGradient><linearGradient id="d"><stop id="bf" stop-color="#cfffff" offset="0"/><stop id="bg" stop-color="#cfffff" stop-opacity="0" offset="1"/></linearGradient><linearGradient id="l"><stop id="bh" stop-color="#53d4ff" offset="0"/><stop id="bi" stop-color="#238dff" offset="1"/></linearGradient><linearGradient id="k"><stop id="bj" stop-color="#8ceaff" offset="0"/><stop id="bk" stop-color="#fff" stop-opacity="0" offset="1"/></linearGradient><filter id="aw"><feGaussianBlur id="bl" stdDeviation="1.9172001"/></filter><clipPath id="ay"><path id="bm" transform="matrix(1.119 0 0 1.119 -119.22 -618.31)" d="m612.74 661.71a99.086 99.086 0 1 1-198.17 0 99.086 99.086 0 1 1 198.17 0z" fill="#1a2370"/></clipPath><filter id="ax"><feGaussianBlur id="bn" stdDeviation="1.4943141"/></filter><filter id="v"><feGaussianBlur id="bo" stdDeviation="2.3353663"/></filter><clipPath id="c"><path id="bp" d="m279.15 316.32c-93.391 0-169.19 22.577-169.19 55.719v2.8125c1.5181 92.111 76.703 166.41 169.16 166.41 92.828 0 168.26-74.902 169.19-167.53-0.06311 0.96973-0.20547 1.9383-0.375 2.9062 0.16871-0.96532 0.3121-1.9391 0.375-2.9062 0.03679-0.5656 0.03125-1.1216 0.03125-1.6875 0-33.161-75.797-55.719-169.19-55.719z" fill="none" opacity=".55616" stroke="#000" stroke-linecap="round" stroke-linejoin="round" stroke-width=".7"/></clipPath><filter id="u"><feGaussianBlur id="bq" stdDeviation="7.354186"/></filter><filter id="t"><feGaussianBlur id="br" stdDeviation="2.871593"/></filter><clipPath id="a"><path id="bs" d="m-624.72 374.58c0.23673 88.01 71.716 159.38 159.78 159.38 87.835 0 159.17-70.994 159.78-158.69-2.1892 32.46-72.942 64.219-159.78 64.219-87.446 0-158.54-32.211-159.78-64.906z" fill="#c5c5c5" opacity=".55616" stroke="#000" stroke-linecap="round" stroke-linejoin="round" stroke-width=".7"/></clipPath><radialGradient id="h" cx="-477.35" cy="210.66" r="65.554" gradientTransform="matrix(1.3883 .372 -.189 .70538 553.72 473.35)" gradientUnits="userSpaceOnUse" xlink:href="#d"/><radialGradient id="g" cx="-477.35" cy="210.66" r="65.554" gradientTransform="matrix(1.376 .41524 -.17245 .57147 544.35 522.2)" gradientUnits="userSpaceOnUse" xlink:href="#d"/><filter id="b" x="-.053046" y="-.34545" width="1.1061" height="1.6909"><feGaussianBlur id="bt" stdDeviation="1.5960865"/></filter><filter id="p" x="-.039626" y="-.20255" width="1.0793" height="1.4051"><feGaussianBlur id="bu" stdDeviation="1.5960865"/></filter><filter id="o" x="-.062155" y="-.26768" width="1.1243" height="1.5354"><feGaussianBlur id="bv" stdDeviation="3.3695159"/></filter><filter id="ap" x="-.093037" y="-.15692" width="1.1861" height="1.3138"><feGaussianBlur id="bw" stdDeviation="12.531653"/></filter><filter id="n" x="-.097686" y="-.16287" width="1.1954" height="1.3257"><feGaussianBlur id="bx" stdDeviation="13.007002"/></filter><radialGradient id="af" cx="494.2" cy="635.54" r="99.086" fx="481.17" fy="616.2" gradientTransform="matrix(1.0152 0 0 1 -7.5005 0)" gradientUnits="userSpaceOnUse"><stop id="by" stop-color="#ccfefe" offset="0"/><stop id="bz" stop-color="#c3fcfd" offset=".099029"/><stop id="ca" stop-color="#b4f9fd" offset=".15627"/><stop id="cb" stop-color="#76effb" offset=".26863"/><stop id="cc" stop-color="#4e7bc4" offset=".62712"/><stop id="cd" stop-color="#293aa3" offset=".84502"/><stop id="ce" stop-color="#1a2370" offset="1"/></radialGradient><radialGradient id="ae" cx="585.19" cy="733.9" r="99.086" gradientTransform="matrix(.44162 .4852 -.60686 .55235 767.53 46.538)" gradientUnits="userSpaceOnUse"><stop id="cf" stop-color="#63a1c9" offset="0"/><stop id="cg" stop-color="#161f6b" stop-opacity="0" offset="1"/></radialGradient><linearGradient id="aj" x1="794.56" x2="794.56" y1="773.8" y2="610.43" gradientTransform="translate(-562.69 2)" gradientUnits="userSpaceOnUse"><stop id="ch" stop-color="#5acbe8" offset="0"/><stop id="ci" stop-color="#5acbe8" stop-opacity="0" offset="1"/></linearGradient><radialGradient id="ad" cx="534.78" cy="640.61" r="169.19" gradientTransform="matrix(.64243 0 0 .42706 -290.47 -109.16)" gradientUnits="userSpaceOnUse" xlink:href="#l"/><radialGradient id="ac" cx="-130.03" cy="150.58" r="159.83" gradientTransform="matrix(.6424 .0063757 -.008039 .80999 185.12 -19.55)" gradientUnits="userSpaceOnUse" xlink:href="#j"/><filter id="ao" x="-.094399" y="-.18217" width="1.1888" height="1.3643"><feGaussianBlur id="cj" stdDeviation="12.715155"/></filter><radialGradient id="ab" cx="134.35" cy="224.89" r="89.095" fx="119.16" fy="261.79" gradientTransform="matrix(1 0 0 .30159 0 157.06)" gradientUnits="userSpaceOnUse" xlink:href="#i"/><filter id="m" x="-.058744" y="-.19478" width="1.1175" height="1.3896"><feGaussianBlur id="ck" stdDeviation="4.3615346"/></filter><radialGradient id="e" cx="112.43" cy="113.82" r="57.095" fx="91.402" fy="115.29" gradientTransform="matrix(2.8183 .75516 -.33539 1.3125 -183.92 -144.11)" gradientUnits="userSpaceOnUse" xlink:href="#k"/><radialGradient id="aa" cx="-130.03" cy="150.58" r="159.83" gradientTransform="matrix(.4213 .42974 -.54186 .53121 252.04 62.864)" gradientUnits="userSpaceOnUse" xlink:href="#j"/><radialGradient id="z" cx="534.78" cy="640.61" r="169.19" gradientTransform="matrix(.42554 .42554 -.28288 .28288 -3.6247 -311.52)" gradientUnits="userSpaceOnUse" xlink:href="#l"/><radialGradient id="y" cx="471.81" cy="214.93" r="102.87" gradientTransform="matrix(.56196 -.46432 .45498 .55066 -183.8 283.3)" gradientUnits="userSpaceOnUse"><stop id="cl" stop-color="#60ebfe" offset="0"/><stop id="cm" stop-color="#bbf6fe" stop-opacity="0" offset="1"/></radialGradient><filter id="an"><feGaussianBlur id="cn" stdDeviation="2.828764"/></filter><radialGradient id="x" cx="134.35" cy="224.89" r="89.095" fx="99.61" fy="272.82" gradientTransform="matrix(1 0 0 .30159 0 157.06)" gradientUnits="userSpaceOnUse" xlink:href="#i"/><linearGradient id="am" x1="250.27" x2="192.07" y1="117.75" y2="151.35" gradientTransform="translate(1.1)" gradientUnits="userSpaceOnUse"><stop id="co" stop-color="#002aa3" offset="0"/><stop id="cp" stop-color="#233b80" stop-opacity="0" offset="1"/></linearGradient><filter id="av"><feGaussianBlur id="cq" stdDeviation="0.99661228"/></filter><filter id="au"><feGaussianBlur id="cr" stdDeviation="0.58822848"/></filter><linearGradient id="al" x1="85.636" x2="53.621" y1="38.647" y2="52.51" gradientUnits="userSpaceOnUse"><stop id="cs" stop-color="#1d2b7a" offset="0"/><stop id="ct" stop-color="#1d2b7a" stop-opacity="0" offset="1"/></linearGradient><filter id="at"><feGaussianBlur id="cu" stdDeviation="0.37822743"/></filter><filter id="s"><feGaussianBlur id="cv" stdDeviation="0.28052229"/></filter><radialGradient id="f" cx="-503.11" cy="192.95" r="65.554" gradientTransform="matrix(1.376 .41524 -.17245 .57147 544.35 522.2)" gradientUnits="userSpaceOnUse" xlink:href="#d"/><filter id="r" x="-.12896" y="-.067713" width="1.2579" height="1.1354"><feGaussianBlur id="cw" stdDeviation="1.5875265"/></filter><filter id="q" x="-.097168" y="-.14187" width="1.1943" height="1.2837"><feGaussianBlur id="cx" stdDeviation="13.804641"/></filter><clipPath id="w"><path id="cy" d="m279.14 343.64c-90.833 0-164.55 18.406-164.55 45.424v2.2929c1.4765 75.093 74.602 135.66 164.52 135.66 90.285 0 163.66-61.063 164.55-136.58-0.06139 0.79056-0.19984 1.5802-0.36473 2.3693 0.16409-0.78697 0.30355-1.5808 0.36473-2.3693 0.03577-0.4611 0.03038-0.91443 0.03038-1.3757 0-27.034-73.72-45.424-164.55-45.424z" fill="none" opacity=".35574" stroke="#000" stroke-linecap="round" stroke-linejoin="round" stroke-width=".62332"/></clipPath><linearGradient id="ak" x1="72.972" x2="63.071" y1="56.75" y2="157.16" gradientUnits="userSpaceOnUse" xlink:href="#k"/><filter id="as"><feGaussianBlur id="cz" stdDeviation="0.899318"/></filter><filter id="ar" x="-.23227" y="-.7134" width="1.4645" height="2.4268"><feGaussianBlur id="da" stdDeviation="4.1615044"/></filter><filter id="aq" x="-.09819" y="-.30158" width="1.1964" height="1.6032"><feGaussianBlur id="db" stdDeviation="1.7592448"/></filter><linearGradient id="ai" x1="-624.72" x2="-305.15" y1="454.27" y2="454.27" gradientUnits="userSpaceOnUse"><stop id="dc" stop-color="#253598" offset="0"/><stop id="dd" stop-color="#253598" stop-opacity="0" offset="1"/></linearGradient><linearGradient id="ah" x1="-624.72" x2="-305.15" y1="454.27" y2="454.27" gradientUnits="userSpaceOnUse"><stop id="de" stop-color="#0c1138" offset="0"/><stop id="df" stop-color="#0c1138" stop-opacity="0" offset="1"/></linearGradient><linearGradient id="ag" x1="-624.72" x2="-305.15" y1="454.27" y2="454.27" gradientUnits="userSpaceOnUse"><stop id="dg" stop-color="#192270" offset="0"/><stop id="dh" stop-color="#192270" stop-opacity="0" offset="1"/></linearGradient></defs><g id="di" transform="matrix(.55023 0 0 .55023 -7.5375 -3.642)"><path id="dj" transform="matrix(.94186 0 0 .64286 7.5872 76.214)" d="m152 219a21.5 7 0 1 1-43 0 21.5 7 0 1 1 43 0z" fill="#000b45" filter="url(#aq)" opacity=".86486"/><path id="dk" transform="matrix(1.4651 0 0 1 -60.698 -2)" d="m152 219a21.5 7 0 1 1-43 0 21.5 7 0 1 1 43 0z" fill="#001474" filter="url(#ar)" opacity=".86486"/><path id="dl" transform="matrix(.99727 -.15482 0 1.0436 32.059 -21.627)" d="m223.45 224.89a89.095 26.87 0 1 1-178.19 0 89.095 26.87 0 1 1 178.19 0z" fill="url(#x)" filter="url(#m)" opacity=".63964"/><path id="dm" transform="matrix(1.2105 0 0 1.2105 -19.092 -69.972)" d="m223.45 224.89a89.095 26.87 0 1 1-178.19 0 89.095 26.87 0 1 1 178.19 0z" fill="url(#ab)" filter="url(#m)" opacity=".63964"/><path id="dn" d="m130.18 74.177c-59.997 4e-6 -108.69 14.504-108.69 35.795v1.8068c0.97529 59.175 49.277 106.9 108.67 106.9 59.636 0 108.1-48.119 108.69-107.63-0.04057 0.62299-0.13201 1.2453-0.24093 1.8671 0.10838-0.62018 0.20051-1.2458 0.24093-1.8671 0.02362-0.36334 0.02006-0.72057 0.02007-1.0841 0-21.304-48.694-35.795-108.69-35.795z" fill="url(#ad)"/><path id="do" d="m130.34 78.63c-56.674-5e-6 -102.67 13.208-102.67 32.603 0.006064 0.22754 0.013394 0.45516 0.020087 0.68259 0.2169 56.485 46.113 102.27 102.65 102.27 56.428 1e-5 102.26-45.609 102.65-101.95 0.02234-0.331 0.04016-0.67264 0.04016-1.0038 0-19.407-46.015-32.603-102.69-32.603z" fill="url(#ac)"/><path id="dp" transform="matrix(.64243 0 0 .64243 -49.304 -128.85)" d="m279.16 309.63c-46.8 0-89.216 5.6202-120.03 15.469-15.408 4.9243-27.902 13.917-36.656 20.844s-13.813 17.907-13.812 26.688v2.8125c-1.3e-4 0.01042-1.3e-4 0.02083 0 0.03125 1.5296 92.807 77.319 167.69 170.47 167.69 93.485-3e-5 169.47-75.418 170.47-168.69 2.3e-4 -0.02106-2.2e-4 -0.04144 0-0.0625s-2.1e-4 -0.04144 0-0.0625c0.01017-0.09347 0.01017-0.18778 0-0.28125 0.01977-0.49458 0.03125-0.98765 0.03125-1.4375 0-8.7854-5.0268-19.791-13.781-26.719s-21.28-15.889-36.688-20.812c-30.816-9.8461-73.2-15.469-120-15.469zm0 8.5938c46.591 0 88.788 5.6207 119.22 15.344 15.215 4.8615 27.468 10.778 35.844 17.406s12.812 13.861 12.812 21.656c0 0.57432 0.0014 1.1229-0.03125 1.625-0.00131 0.02012 0.00139 0.04235 0 0.0625-0.06052 0.8802-0.18201 1.7641-0.34375 2.6875l0.1875 0.03125c-2.3639 90.658-76.511 163.53-167.72 163.53-91.757-1e-5 -166.37-73.709-167.88-165.12v-2.8125c0-7.7899 4.4365-15.029 12.812-21.656s20.66-12.512 35.875-17.375c30.43-9.7254 72.628-15.375 119.22-15.375z" clip-path="url(#c)" fill="#1a2370" filter="url(#v)" opacity=".63964"/><path id="dq" transform="matrix(.64243 0 0 .64243 -49.304 -128.85)" d="m279.16 309.63c-46.8 0-89.216 5.6202-120.03 15.469-15.408 4.9243-27.902 13.917-36.656 20.844s-13.813 17.907-13.812 26.688v2.8125c-1.3e-4 0.01042-1.3e-4 0.02083 0 0.03125 1.5296 92.807 77.319 167.69 170.47 167.69 93.485-3e-5 169.47-75.418 170.47-168.69 2.3e-4 -0.02106-2.2e-4 -0.04144 0-0.0625s-2.1e-4 -0.04144 0-0.0625c0.01017-0.09347 0.01017-0.18778 0-0.28125 0.01977-0.49458 0.03125-0.98765 0.03125-1.4375 0-8.7854-5.0268-19.791-13.781-26.719s-21.28-15.889-36.688-20.812c-30.816-9.8461-73.2-15.469-120-15.469zm0 8.5938c46.591 0 88.788 5.6207 119.22 15.344 15.215 4.8615 27.468 10.778 35.844 17.406s12.812 13.861 12.812 21.656c0 0.57432 0.0014 1.1229-0.03125 1.625-0.00131 0.02012 0.00139 0.04235 0 0.0625-0.06052 0.8802-0.18201 1.7641-0.34375 2.6875l0.1875 0.03125c-2.3639 90.658-76.511 163.53-167.72 163.53-91.757-1e-5 -166.37-73.709-167.88-165.12v-2.8125c0-7.7899 4.4365-15.029 12.812-21.656s20.66-12.512 35.875-17.375c30.43-9.7254 72.628-15.375 119.22-15.375z" clip-path="url(#c)" fill="#1a2370" filter="url(#u)" opacity=".63964"/><path id="dr" d="m153.57 88.557c-39.742-39.742-81.603-62.389-95.707-48.285l-1.1968 1.1968c-38.551 39.843-38.172 103.45 1.1702 142.8 39.502 39.502 103.48 39.73 143.29 0.7048-0.43953 0.3858-0.91228 0.73741-1.3963 1.0772 0.48257-0.33901 0.95798-0.69237 1.3963-1.0772 0.25632-0.22503 0.49058-0.46401 0.73139-0.7048 14.111-14.111-8.5439-55.965-48.285-95.707z" fill="url(#z)"/><path id="ds" d="m150.73 91.614c-37.54-37.54-76.755-59.258-89.603-46.41-0.1467 0.15473-0.29263 0.31036-0.43883 0.46543-37.271 37.559-37.196 98.285 0.25266 135.73 37.377 37.377 97.946 37.524 135.52 0.46543 0.23404-0.20446 0.47214-0.41895 0.6915-0.6383 12.855-12.855-8.8836-52.076-46.424-89.616z" fill="url(#aa)" filter="url(#au)"/><g id="dt" transform="matrix(.42554 .42554 -.42554 .42554 169.16 -164.81)" fill="#1a2370" opacity=".63964"><path id="du" transform="translate(.235 -.235)" d="m279.16 309.63c-46.8 0-89.216 5.6202-120.03 15.469-15.408 4.9243-27.902 13.917-36.656 20.844s-13.813 17.907-13.812 26.688v2.8125c-1.3e-4 0.01042-1.3e-4 0.02083 0 0.03125 1.5296 92.807 77.319 167.69 170.47 167.69 93.485-3e-5 169.47-75.418 170.47-168.69 2.3e-4 -0.02106-2.2e-4 -0.04144 0-0.0625s-2.1e-4 -0.04144 0-0.0625c0.01017-0.09347 0.01017-0.18778 0-0.28125 0.01977-0.49458 0.03125-0.98765 0.03125-1.4375 0-8.7854-5.0268-19.791-13.781-26.719s-21.28-15.889-36.688-20.812c-30.816-9.8461-73.2-15.469-120-15.469zm0 8.5938c46.591 0 88.788 5.6207 119.22 15.344 15.215 4.8615 27.468 10.778 35.844 17.406s12.812 13.861 12.812 21.656c0 0.57432 0.0014 1.1229-0.03125 1.625-0.00131 0.02012 0.00139 0.04235 0 0.0625-0.06052 0.8802-0.18201 1.7641-0.34375 2.6875l0.1875 0.03125c-2.3639 90.658-76.511 163.53-167.72 163.53-91.757-1e-5 -162.55-74.003-167.88-165.12v-2.8125c0-7.7899 4.4365-15.029 12.812-21.656s20.66-12.512 35.875-17.375c30.43-9.7254 72.628-15.375 119.22-15.375z" clip-path="url(#c)" filter="url(#v)" opacity="1"/><path id="dv" transform="translate(.235 -.235)" d="m279.16 309.63c-46.8 0-89.216 5.6202-120.03 15.469-15.408 4.9243-27.902 13.917-36.656 20.844s-13.813 17.907-13.812 26.688v2.8125c-1.3e-4 0.01042-1.3e-4 0.02083 0 0.03125 1.5296 92.807 77.319 167.69 170.47 167.69 93.485-3e-5 169.47-75.418 170.47-168.69 2.3e-4 -0.02106-2.2e-4 -0.04144 0-0.0625s-2.1e-4 -0.04144 0-0.0625c0.01017-0.09347 0.01017-0.18778 0-0.28125 0.01977-0.49458 0.03125-0.98765 0.03125-1.4375 0-8.7854-5.0268-19.791-13.781-26.719s-21.28-15.889-36.688-20.812c-30.816-9.8461-73.2-15.469-120-15.469zm0 8.5938c46.591 0 88.788 5.6207 119.22 15.344 15.215 4.8615 27.468 10.778 35.844 17.406s12.812 13.861 12.812 21.656c0 0.57432 0.0014 1.1229-0.03125 1.625-0.00131 0.02012 0.00139 0.04235 0 0.0625-0.06052 0.8802-0.18201 1.7641-0.34375 2.6875l0.1875 0.03125c-2.3639 90.658-76.514 164.38-167.72 163.53-90.908-0.84816-162.06-79.264-167.88-165.12v-2.8125c0-7.7899 4.4365-15.029 12.812-21.656s20.66-12.512 35.875-17.375c30.43-9.7254 72.628-15.375 119.22-15.375z" clip-path="url(#c)" filter="url(#u)" opacity="1"/></g><path id="dw" d="m175.1 81.625v122.28c34.041-16.549 57.596-51.348 57.875-91.656 0.02233-0.331 0.03125-0.70009 0.03125-1.0312-1e-5 -13.91-23.644-24.637-57.906-29.594z" fill="url(#am)" filter="url(#av)"/><path id="dx" transform="matrix(1.0023 0 0 1.0023 -.17714 .038222)" d="m56.437 52.51c4.3198-9.4333 10.606-11.971 21.101-9.4424l-1.3473-1.6749c-10.391-1.5345-17.126 1.5964-19.753 11.117z" fill="url(#al)" fill-rule="evenodd" filter="url(#at)"/><g id="dy" transform="matrix(1.317 0 0 1.317 -34.844 -47.832)"><path id="dz" transform="matrix(.69656 0 0 .69656 -232.43 -338.77)" d="m612.74 661.71a99.086 99.086 0 1 1-198.17 0 99.086 99.086 0 1 1 198.17 0z" fill="url(#af)"/><path id="ea" transform="matrix(.69656 0 0 .69656 -232.43 -338.77)" d="m612.74 661.71a99.086 99.086 0 0 1-148.63 85.811l49.543-85.811z" fill="url(#ae)"/><path id="eb" transform="matrix(.64568 0 0 .64568 -2.5119 -287.45)" d="m94.125 629.53c-0.05034 1.3284-0.0625 2.6594-0.0625 4 0 57.433 46.63 104.03 104.06 104.03 57.433 0 104.03-46.599 104.03-104.03 0-1.3406-0.01216-2.6716-0.0625-4-2.1062 55.58-47.877 100.03-103.97 100.03-56.092 1e-5 -101.89-44.452-104-100.03z" fill="url(#aj)" filter="url(#aw)" opacity=".34332"/><path id="ec" transform="matrix(.62248 0 0 .62248 -158.28 46.116)" d="m455.56-29c-83.432 0-151.16 67.724-151.16 151.16 0 83.432 67.724 151.16 151.16 151.16s151.16-67.724 151.16-151.16c0-83.432-67.724-151.16-151.16-151.16zm0 40.969c60.814 0 110.16 49.373 110.16 110.19 2e-5 60.814-49.342 110.16-110.16 110.16-60.814 0-110.16-49.342-110.16-110.16-1e-5 -60.814 49.342-110.19 110.16-110.19z" clip-path="url(#ay)" fill="#1a2370" filter="url(#ax)"/></g><path id="ed" d="m210.47 153.18c-17.031 37.516-51.039 34.544-99.548-13.965-48.463-48.463-57.445-79.092-33.745-96.937 27.502-20.707 76.896-25.886 108.73 0.36494 32.155 26.516 41.806 72.556 24.564 110.54z" fill="url(#e)" opacity=".55616"/><path id="ee" transform="matrix(.42554 .42554 -.42554 .42554 485.98 152)" d="m-628.38 366.47c6e-5 0.02105-6e-5 0.04145 0 0.0625 3.9e-4 0.0102-4e-4 0.02105 0 0.03125 0 99.135 74.742 175.53 163.94 175.53 88.931 1e-5 168.94-67.361 164.94-175.12-7.9e-4 -0.02103-1.6e-4 -0.04146 0-0.0625 3.2e-4 -0.04209-3.5003-22.342-3.5-22.384 0.04315-1.1909-0.88726-2.1912-2.0781-2.2344 3.6421 17.847-327.92-16.24-323.3 24.181zm5.7757 4.4407c75.757-3.7201 276.7-30.707 318.97-0.22192 0 90.768-79.014 164.13-160.81 164.12-81.852 0-158.16-68.838-158.16-163.9z" clip-path="url(#a)" fill="url(#ai)" filter="url(#ap)"/><path id="ef" transform="matrix(.42554 .42554 -.42554 .42554 485.98 152)" d="m-626.38 364.31c-1.1308 0.07918-2.006 1.0227-2 2.1562 6e-5 0.02105-6e-5 0.04145 0 0.0625 3.9e-4 0.0102-4e-4 0.02105 0 0.03125 0 99.135 74.742 175.53 163.94 175.53 88.931 1e-5 168.94-67.361 164.94-175.12-7.9e-4 -0.02103-1.6e-4 -0.04146 0-0.0625 3.2e-4 -0.04209-3.5003-22.342-3.5-22.384 0.04315-1.1909-0.88726-2.1912-2.0781-2.2344-1.1909-0.04315-2.1912 0.88726-2.2344 2.0781-0.49657 7.3627-8.3228 22.206-16.363 29.514s-16.207 37.753-30.449 43.682c-28.486 11.859-65.655 13.781-108.81 13.781-43.459 1e-5 -84.85-2.0326-113.38-14.031-14.262-5.9993-29.806-23-37.75-30.375-7.9227-7.3548-9.6986-13.109-10-20.5-8.2e-4 -0.02014 7.6e-4 -0.04237 0-0.0625-0.02215-0.58416-0.28119-1.1341-0.71746-1.5232-0.43627-0.38911-1.0122-0.58381-1.595-0.53927zm3.7757 23.097c2.2796 3.632 6.2471 8.1246 8.7812 10.562 28.796 29.538 104.03 35.955 150.88 37.653 41.652-1.423 112.67-11.91 148.06-38.031 3.8372-3.4878 6.8701-7.1525 9.25-10.906 0 89.735-77.014 152.13-158.81 152.12-81.852 0-150.42-71.577-158.16-151.4z" clip-path="url(#a)" fill="url(#ah)" filter="url(#n)" opacity=".46847"/><path id="eg" transform="matrix(.42554 .42554 -.42554 .42554 485.98 152)" d="m-626.38 364.31c-1.1308 0.07918-2.006 1.0227-2 2.1562 6e-5 0.02105-6e-5 0.04145 0 0.0625 3.9e-4 0.0102-4e-4 0.02105 0 0.03125 0 99.135 74.242 169.53 163.44 169.53 88.931 1e-5 161.94-63.361 161.94-160.62 0-0.02104-1.6e-4 -0.04146 0-0.0625 3.2e-4 -0.04209-2.9e-4 -30.842 0-30.884 0.04315-1.1909-0.88726-2.1912-2.0781-2.2344-1.1909-0.04315-2.1912 0.88726-2.2344 2.0781-0.49657 7.3627-11.823 30.706-19.863 38.014s-12.707 29.253-26.949 35.182c-28.486 11.859-67.655 19.781-110.81 19.781-43.459 1e-5 -82.85-8.0326-111.38-20.031-14.262-5.9993-25.806-13-33.75-20.375-7.9227-7.3548-13.699-23.109-14-30.5-8.2e-4 -0.02014 7.6e-4 -0.04237 0-0.0625-0.02215-0.58416-0.28119-1.1341-0.71746-1.5232-0.43627-0.38911-1.0122-0.58381-1.595-0.53927zm7.7757 33.097c2.2796 3.632 4.5591 7.9532 8.7812 10.562 40.677 25.138 98.03 31.955 144.88 33.653 41.652-1.423 111.17-9.4097 146.56-35.531 3.8372-3.4878 6.8701-7.1525 9.25-10.906-7.8159 79.75-74.014 137.63-155.81 137.62-81.852 0-145.92-55.577-153.66-135.4z" clip-path="url(#a)" fill="url(#ag)" filter="url(#t)"/><path id="eh" transform="matrix(.42554 .42554 -.42554 .42554 324.27 -9.7027)" d="m-200.44 426.44c43.369 19.125 119.24 26.727 197.11 10.945-92.582 32.629-167.68 28.702-197.11-10.945z" fill="url(#h)" fill-rule="evenodd" filter="url(#o)" opacity=".55405"/><path id="ei" transform="matrix(.42554 .42554 -.42554 .42554 324.27 -9.7027)" d="m-179.15 433.03c2.2744 3.387 6.6661 9.9816 12.915 12.017 8.1846 2.9516 16.724 4.8033 25.306 6.1427 30.974 3.3391 62.282-2.7098 92.895-7.1053-24.447 3.5243-107.56 2.8975-131.12-11.055z" fill="url(#g)" fill-rule="evenodd" filter="url(#p)" opacity=".7027"/><path id="ej" transform="matrix(.42554 .42554 -.42554 .42554 324.27 -9.7027)" d="m-170.13 437.13c2.4893 1.6635 5.2306 4.1003 8.1525 4.8462 6.2454 1.9449 12.637 3.4136 19.079 4.5386 8.5611 1.5564 17.299 1.8734 25.982 1.6312 4.4739-0.12281 8.9446-0.4449 13.385-1.0069 1.8834-0.24444 3.6813-0.96531 5.5266-1.4163-30.906-0.72295-51.406-3.5386-72.125-8.5928z" fill="#f2fcfc" fill-opacity=".68108" fill-rule="evenodd" filter="url(#b)"/><path id="ek" transform="matrix(.42554 .42554 -.42554 .42554 324.27 -9.7027)" d="m-161.88 438.75c6.2328 4.9444 26.017 6.4666 37.75 5.4678-15.156-0.22295-30.156-4.5386-37.75-5.4678z" fill="#f2fcfc" fill-opacity=".68108" fill-rule="evenodd" filter="url(#b)"/><path id="el" d="m133.62 24.82c-21.052-0.14845-41.837 6.4582-56.447 17.459-23.7 17.844-14.721 48.475 33.743 96.938 3.308 3.308 6.5543 6.3761 9.7266 9.2621 39.891-0.68092 107.3-5.0033 95.793-56.079-4.3105-19.135-14.777-36.783-30.521-49.766-14.922-12.305-33.719-17.683-52.294-17.814z" fill="url(#e)" opacity=".55616"/><path id="em" transform="matrix(.64243 0 0 .64243 428.99 -128.85)" d="m-626.38 364.31c-1.1308 0.07918-2.006 1.0227-2 2.1562 6e-5 0.02105-6e-5 0.04145 0 0.0625 3.9e-4 0.0102-4e-4 0.02105 0 0.03125 0 99.135 74.242 169.53 163.44 169.53 88.931 1e-5 161.94-63.361 161.94-160.62 0-0.02104-1.6e-4 -0.04146 0-0.0625 3.2e-4 -0.04209-2.9e-4 -30.842 0-30.884 0.04315-1.1909-0.88726-2.1912-2.0781-2.2344-1.1909-0.04315-2.1912 0.88726-2.2344 2.0781-0.49657 7.3627-11.823 30.706-19.863 38.014s-12.707 29.253-26.949 35.182c-28.486 11.859-67.655 19.781-110.81 19.781-43.459 1e-5 -82.85-8.0326-111.38-20.031-14.262-5.9993-25.806-13-33.75-20.375-7.9227-7.3548-13.699-23.109-14-30.5-8.2e-4 -0.02014 7.6e-4 -0.04237 0-0.0625-0.02215-0.58416-0.28119-1.1341-0.71746-1.5232-0.43627-0.38911-1.0122-0.58381-1.595-0.53927zm7.7757 33.097c2.2796 3.632 4.5591 7.9532 8.7812 10.562 40.677 25.138 98.03 31.955 144.88 33.653 41.652-1.423 111.17-9.4097 146.56-35.531 3.8372-3.4878 6.8701-7.1525 9.25-10.906-7.8159 79.75-74.014 137.63-155.81 137.62-81.852 0-145.92-55.577-153.66-135.4z" clip-path="url(#a)" fill="#192270" fill-opacity=".82353" filter="url(#t)"/><path id="en" transform="matrix(.64243 0 0 .64243 428.99 -128.85)" d="m-626.38 364.31c-1.1308 0.07918-2.006 1.0227-2 2.1562 6e-5 0.02105-6e-5 0.04145 0 0.0625 3.9e-4 0.0102-4e-4 0.02105 0 0.03125 0 99.135 74.742 175.53 163.94 175.53 88.931 1e-5 168.94-67.361 164.94-175.12-7.9e-4 -0.02103-1.6e-4 -0.04146 0-0.0625 3.2e-4 -0.04209-3.5003-22.342-3.5-22.384 0.04315-1.1909-0.88726-2.1912-2.0781-2.2344-1.1909-0.04315-2.1912 0.88726-2.2344 2.0781-0.49657 7.3627-8.3228 22.206-16.363 29.514s-16.207 37.753-30.449 43.682c-28.486 11.859-65.655 13.781-108.81 13.781-43.459 1e-5 -84.85-2.0326-113.38-14.031-14.262-5.9993-29.806-23-37.75-30.375-7.9227-7.3548-9.6986-13.109-10-20.5-8.2e-4 -0.02014 7.6e-4 -0.04237 0-0.0625-0.02215-0.58416-0.28119-1.1341-0.71746-1.5232-0.43627-0.38911-1.0122-0.58381-1.595-0.53927zm3.7757 23.097c2.2796 3.632 6.2471 8.1246 8.7812 10.562 28.796 29.538 104.03 35.955 150.88 37.653 41.652-1.423 112.67-11.91 148.06-38.031 3.8372-3.4878 6.8701-7.1525 9.25-10.906 0 89.735-77.014 152.13-158.81 152.12-81.852 0-150.42-71.577-158.16-151.4z" clip-path="url(#a)" fill="#0c1138" fill-opacity=".82353" filter="url(#n)" opacity=".46847"/><path id="eo" transform="matrix(.64243 0 0 .64243 428.98 -128.85)" d="m-628.38 366.47c6e-5 0.02105-6e-5 0.04145 0 0.0625 3.9e-4 0.0102-4e-4 0.02105 0 0.03125 0 99.135 74.742 175.53 163.94 175.53 88.931 1e-5 168.94-67.361 164.94-175.12-7.9e-4 -0.02103-1.6e-4 -0.04146 0-0.0625 3.2e-4 -0.04209-3.5003-22.342-3.5-22.384 0.04315-1.1909-0.88726-2.1912-2.0781-2.2344 3.6421 17.847-327.92-16.24-323.3 24.181zm5.7757 4.4407c75.757-3.7201 276.7-30.707 318.97-0.22192 0 90.768-79.014 164.13-160.81 164.12-81.852 0-158.16-68.838-158.16-163.9z" clip-path="url(#a)" fill="#253598" filter="url(#ao)"/><path id="ep" transform="matrix(.64243 0 0 .64243 184.86 -128.85)" d="m-200.44 426.44c43.369 19.125 119.24 26.727 197.11 10.945-92.582 32.629-167.68 28.702-197.11-10.945z" fill="url(#h)" fill-rule="evenodd" filter="url(#o)" opacity=".55405"/><path id="eq" transform="matrix(.64243 0 0 .64243 184.86 -128.85)" d="m-179.15 433.03c2.2744 3.387 6.6661 9.9816 12.915 12.017 8.1846 2.9516 16.724 4.8033 25.306 6.1427 30.974 3.3391 62.282-2.7098 92.895-7.1053-24.447 3.5243-107.56 2.8975-131.12-11.055z" fill="url(#g)" fill-rule="evenodd" filter="url(#p)" opacity=".7027"/><path id="er" transform="matrix(.64243 0 0 .64243 184.86 -128.85)" d="m-170.13 437.13c2.4893 1.6635 5.2306 4.1003 8.1525 4.8462 6.2454 1.9449 12.637 3.4136 19.079 4.5386 8.5611 1.5564 17.299 1.8734 25.982 1.6312 4.4739-0.12281 8.9446-0.4449 13.385-1.0069 1.8834-0.24444 3.6813-0.96531 5.5266-1.4163-30.906-0.72295-51.406-3.5386-72.125-8.5928z" fill="#f2fcfc" fill-opacity=".68108" fill-rule="evenodd" filter="url(#b)"/><path id="es" transform="matrix(.64243 0 0 .64243 184.86 -128.85)" d="m-161.88 438.75c6.2328 4.9444 26.017 6.4666 37.75 5.4678-15.156-0.22295-30.156-4.5386-37.75-5.4678z" fill="#f2fcfc" fill-opacity=".68108" fill-rule="evenodd" filter="url(#b)"/><path id="et" d="m21.648 111.13c0.158 58.741 47.859 106.38 106.64 106.38 58.625 0 106.23-47.377 106.64-105.91-0.58877 8.7298-8.6132 17.365-21.771 24.586-11.364 36.058-45.071 62.235-84.866 62.235-39.792 0-73.5-26.182-84.866-62.235-13.374-7.3465-21.434-16.175-21.771-25.056z" fill="url(#y)" filter="url(#an)"/><path id="eu" transform="matrix(.46911 .46911 -.46911 .46911 349.66 -14.617)" d="m-236.49 352.39c-7.9952 3.802-20.509 16.202-8.1535 37.012-7.6788-19.124 0.16979-29.852 8.1535-37.012z" fill="#f2fcfc" fill-opacity=".68108" fill-rule="evenodd" filter="url(#s)" opacity=".58108"/><path id="ev" transform="matrix(.46911 .46911 -.46911 .46911 349.66 -14.617)" d="m-242.75 357.72c-0.93617 0.8946-1.5148 2.0193-2.3438 3.0625-1.5595 2.2234-2.867 4.6502-3.4338 7.3288-0.85218 3.5645-0.6906 7.3414 0.30877 10.859-0.76078-5.4832-0.00209-11.21 2.437-16.202 0.9106-2.0011 2.0614-3.888 3.5318-5.5168-0.16667 0.15625-0.33333 0.3125-0.5 0.46875z" fill="#f2fcfc" fill-opacity=".68108" fill-rule="evenodd" filter="url(#s)" opacity=".58108"/><path id="ew" transform="matrix(.64243 0 0 .64243 347.11 -163.85)" d="m-186.35 453.55c28.528-30.076-0.88409-50.71-16.273-56.268 21.472 5.4701 44.89 29.651 16.273 56.268z" fill="url(#f)" fill-rule="evenodd" filter="url(#r)" opacity=".7027"/><g id="ex" transform="translate(302.44)" fill="#1a2370"><path id="ey" transform="matrix(.66053 0 0 .78802 -356.63 -196.43)" d="m279.16 309.63c-46.8 0-89.216 5.6202-120.03 15.469-15.408 4.9243-27.902 13.917-36.656 20.844s-13.813 17.907-13.812 26.688v2.8125c-1.3e-4 0.01042-1.3e-4 0.02083 0 0.03125 1.5296 92.807 77.319 167.69 170.47 167.69 93.485-3e-5 169.47-75.418 170.47-168.69 2.3e-4 -0.02106-2.2e-4 -0.04144 0-0.0625s-2.1e-4 -0.04144 0-0.0625c0.01017-0.09347 0.01017-0.18778 0-0.28125 0.01977-0.49458 0.03125-0.98765 0.03125-1.4375 0-8.7854-5.0268-19.791-13.781-26.719s-21.28-15.889-36.688-20.812c-30.816-9.8461-73.2-15.469-120-15.469zm0 8.5938c46.591 0 88.788 5.6207 119.22 15.344 15.215 4.8615 27.468 10.778 35.844 17.406s12.812 13.861 12.812 21.656c0 0.57432 0.0014 1.1229-0.03125 1.625-0.00131 0.02012 0.00139 0.04235 0 0.0625-0.06052 0.8802-0.18201 1.7641-0.34375 2.6875l0.1875 0.03125c-2.3639 90.658-76.511 140.18-167.72 140.18-91.757-1e-5 -166.37-50.36-167.88-141.78v-2.8125c0-7.7899 4.4365-15.029 12.812-21.656s20.66-12.512 35.875-17.375c30.43-9.7254 72.628-15.375 119.22-15.375z" clip-path="url(#w)" filter="url(#q)" opacity=".63964"/><path id="ez" transform="matrix(.66053 0 0 .78802 -356.63 -196.43)" d="m279.16 309.63c-46.8 0-89.216 5.6202-120.03 15.469-15.408 4.9243-27.902 13.917-36.656 20.844s-13.813 17.907-13.812 26.688v2.8125c-1.3e-4 0.01042-1.3e-4 0.02083 0 0.03125 1.5296 92.807 77.319 167.69 170.47 167.69 93.485-3e-5 169.47-75.418 170.47-168.69 2.3e-4 -0.02106-2.2e-4 -0.04144 0-0.0625s-2.1e-4 -0.04144 0-0.0625c0.01017-0.09347 0.01017-0.18778 0-0.28125 0.01977-0.49458 0.03125-0.98765 0.03125-1.4375 0-8.7854-5.0268-19.791-13.781-26.719s-21.28-15.889-36.688-20.812c-30.816-9.8461-73.2-15.469-120-15.469zm0 8.5938c46.591 0 88.788 5.6207 119.22 15.344 15.215 4.8615 27.468 10.778 35.844 17.406s12.812 13.861 12.812 21.656c0 0.57432 0.0014 1.1229-0.03125 1.625-0.00131 0.02012 0.00139 0.04235 0 0.0625-0.06052 0.8802-0.18201 1.7641-0.34375 2.6875l0.1875 0.03125c-2.3639 90.658-76.511 140.18-167.72 140.18-91.757-1e-5 -166.37-50.36-167.88-141.78v-2.8125c0-7.7899 4.4365-15.029 12.812-21.656s20.66-12.512 35.875-17.375c30.43-9.7254 72.628-15.375 119.22-15.375z" clip-path="url(#w)" filter="url(#q)" opacity=".63964"/></g><path id="fa" transform="matrix(.64243 0 0 .64243 347.11 -163.85)" d="m-186.35 453.55c28.528-30.076-0.88409-50.71-16.273-56.268 21.472 5.4701 44.89 29.651 16.273 56.268z" fill="url(#f)" fill-rule="evenodd" filter="url(#r)" opacity=".7027"/><path id="fb" d="m54.485 46.161c-15.537 20.52-24.668 45.044-23.894 67.657 14.772 20.042 46.096 29.487 65.005 29.889-22.163-25.797-52.238-61.396-41.111-97.546z" fill="url(#ak)" fill-rule="evenodd" filter="url(#as)"/></g></svg>
