<?xml version="1.0" encoding="UTF-8"?>
<svg id="a" version="1.0" viewBox="0 0 60 60" xmlns="http://www.w3.org/2000/svg"><g id="b"><g id="c" transform="matrix(.74638 0 0 .74638 17.526 7.6087)"><rect id="d" x="10.134" y="10.134" width="39.732" height="39.732" fill="#fff" stroke="#4d4d4d" stroke-linecap="round" stroke-width="1.3398"/><g id="e" transform="matrix(.62621 0 0 .62642 11.857 10.932)" fill="#4d4d4d"><path id="f" transform="matrix(1.9888 0 0 1.9888 40.429 22.143)" d="m-6.8226 5.8194v-13.992c0-0.51562 0.16797-0.94531 0.50391-1.2891s0.76953-0.51562 1.3008-0.51562 0.96094 0.16016 1.2891 0.48047c0.33594 0.32031 0.50391 0.76172 0.50391 1.3242v5.2266l5.9062-6.3516c0.41406-0.45312 0.87891-0.67969 1.3945-0.67969 0.47656 0 0.89062 0.16406 1.2422 0.49219 0.35938 0.32031 0.53906 0.74219 0.53906 1.2656 0 0.29688-0.09375 0.58984-0.28125 0.87891-0.1875 0.28125-0.48828 0.62891-0.90234 1.043l-4.5352 4.5117 5.543 5.8477c0.32031 0.30469 0.56641 0.60156 0.73828 0.89062 0.17969 0.28125 0.26953 0.59375 0.26953 0.9375 0 0.54688-0.17969 0.96484-0.53906 1.2539-0.35938 0.28125-0.80469 0.42188-1.3359 0.42188-0.3125 0-0.59766-0.085937-0.85547-0.25781-0.25-0.17188-0.57031-0.46094-0.96094-0.86719l-6.2227-6.7969v6.1758c0 0.49219-0.16797 0.90625-0.50391 1.2422s-0.76562 0.50391-1.2891 0.50391-0.95703-0.16016-1.3008-0.48047c-0.33594-0.32031-0.50391-0.74219-0.50391-1.2656z" stroke-width="1pt"/><path id="g" transform="matrix(.29003 0 0 .29003 -1.4462 -5.265)" d="m37.139 181.15 15.807 16.56 25.592-17.313 20.323 9.0328 6.7744 29.668 21.829-0.20049 6.0218-30.441 20.323-8.0594 25.592 16.56 12.043-16.56-29.044-27.409c-74.443 68.279-138.77-36.956-74.831-80.982l-8.3e-5 -15.807-7.5271 3.7636-23.334-14.834-16.119 13.237 14.613 24.931-8.2799 20.323-28.515 4.7368-0.088 21.608 29.356 7.5272 8.0917 19.759-18.63 23.899z" fill-rule="evenodd" stroke="#4d4d4d" stroke-linecap="round" stroke-linejoin="round" stroke-width="2.7659"/></g></g><g id="h" transform="matrix(.86179 0 0 .86358 3.745 3.9387)" fill-rule="evenodd" stroke="#4d4d4d" stroke-width="1.1592px"><path id="i" d="m1.2325 53.201v-46.335l34.468-6.2156v59.048z" fill="#4d4d4d"/><path id="j" d="m23.27 26.361v5.0855l-6.7807-0.28253v5.6506l7.9108 0.56506v5.368l-13.279-1.6952v-24.58l13.561-1.0976v5.0438l-8.1933 0.29172v5.368z" fill="#fff"/></g></g></svg>
