<?xml version="1.0" encoding="UTF-8"?>
<svg id="j" clip-rule="evenodd" enable-background="new" fill-rule="evenodd" stroke-linejoin="round" stroke-miterlimit="1.4142" version="1.1" viewBox="0 0 64 64" xml:space="preserve" xmlns="http://www.w3.org/2000/svg" xmlns:osb="http://www.openswatchbook.org/uri/2009/osb" xmlns:xlink="http://www.w3.org/1999/xlink"><defs id="k"><linearGradient id="a" x1=".025172" x2="1" y1=".07949" gradientTransform="matrix(0 473.9 -473.9 0 547.88 192.22)" gradientUnits="userSpaceOnUse"><stop id="l" stop-color="#ec2802" offset="0"/><stop id="m" stop-color="#fcb200" offset="1"/></linearGradient><linearGradient id="b"><stop id="n" stop-color="#aaa" offset="0"/><stop id="o" stop-color="#424242" offset="1"/></linearGradient><linearGradient id="g" x1="19.062" x2="19" y2="43.25" gradientTransform="matrix(.95039 0 0 .91401 29.943 -23.161)" gradientUnits="userSpaceOnUse" xlink:href="#a"/><clipPath id="i"><path id="p" d="m14.813 26.75 4.1869-10.805 4.1869 10.805-4.1869 16.5z" fill="none" stroke="#000" stroke-linejoin="miter" stroke-miterlimit="1.4142" stroke-width=".037795"/></clipPath><linearGradient id="d" x1="48.748" x2="48.748" y1="2.538" y2="59.381" gradientTransform="matrix(.84565 0 0 .82217 6.5636 -53.721)" gradientUnits="userSpaceOnUse" xlink:href="#b"/><linearGradient id="c" x1="35.337" x2="35.337" y1="1.3206" y2="-2.4122" gradientTransform="matrix(.95579 0 0 1.0104 .41875 -.76488)" gradientUnits="userSpaceOnUse"><stop id="q" offset="0"/><stop id="r" stop-opacity="0" offset="1"/></linearGradient><filter id="h" x="-.096199" y="-.074239" width="1.1924" height="1.1485" color-interpolation-filters="sRGB"><feGaussianBlur id="s" stdDeviation="1.0020779"/></filter><linearGradient id="f" x1="2.5739" x2="63.51" y1="-.58921" y2="-.58921" gradientTransform="matrix(.95579 0 0 1.0104 .41875 -.76488)" gradientUnits="userSpaceOnUse" xlink:href="#a"/><linearGradient id="e" x1="48.748" x2="48.748" y1="2.538" y2="59.381" gradientTransform="matrix(.9697 0 0 .95131 .48485 -1.1843)" gradientUnits="userSpaceOnUse" xlink:href="#b"/></defs><g id="t" transform="translate(0 7.3209)"><g id="u" stroke-width=".98271"><rect id="v" x="2.8789" y="-4.3995" width="58.242" height="6.0787" rx="2.0727" ry="2.1058" fill="url(#f)"/><rect id="w" x="2.8789" y="-4.3995" width="58.242" height="6.0787" rx="2.0727" ry="2.1058" fill="url(#c)" opacity=".5"/></g></g><g id="x" transform="translate(-16 4.7829)"><g id="y"><rect id="z" x="16" y=".72006" width="64" height="54.297" rx="3.4068" ry="3.4422" fill="#dedede" style="paint-order:markers fill stroke"/><rect id="aa" x="16" y="1.2301" width="64" height="53.987" rx="3.4068" ry="3.4225" fill="url(#e)" style="paint-order:markers fill stroke"/><rect id="ab" transform="scale(1,-1)" x="20.094" y="-51.634" width="55.813" height="46.658" rx="1.6427" ry="1.6543" fill="url(#d)" style="paint-order:markers fill stroke"/></g></g><g id="ac" transform="translate(-16 35.821)"><rect id="ad" x="20.387" y="-25.562" width="55.226" height="45.616" rx="1.5307" ry="1.5307" style="paint-order:markers fill stroke"/><rect id="ae" x="21.545" y="-24.605" width="52.91" height="43.703" rx="0" ry="0" fill="#14232b" style="paint-order:markers fill stroke"/></g><g id="af" transform="translate(-16 35.821)"><g id="ag" clip-rule="evenodd" fill-rule="evenodd"><path id="ah" d="m44.994 1.1992-0.9431 2.285c2.5342 7.8036 2.5342 7.8036 3.9489 14.611 1.4147-6.8073 1.4147-6.8073 3.9489-14.611l-3.9489-9.5679z" fill="#069efe" style="paint-order:stroke markers fill"/><path id="ai" d="m44.674-23.161h6.6528l14.731 36.56h-6.1776l-11.88-27.924-11.88 27.924h-6.1776z" fill="url(#g)" stroke-miterlimit="1.4142" stroke-width="0"/><path id="aj" transform="matrix(.94315 0 0 .90705 30.08 -20.547)" d="m19 32.395 12.5-32.395-25 0.13314z" clip-path="url(#i)" fill="#fff" filter="url(#h)" style="paint-order:markers fill stroke"/></g></g></svg>
