<?xml version="1.0" encoding="UTF-8"?>
<svg id="n" width="128" height="128" version="1.0" viewBox="100.87 -104.48 263.04 263.04" xml:space="preserve" xmlns="http://www.w3.org/2000/svg" xmlns:xlink="http://www.w3.org/1999/xlink"><defs id="o"><linearGradient id="c"><stop id="p" stop-color="#fff" offset="0"/><stop id="q" stop-color="#fff" stop-opacity="0" offset="1"/></linearGradient><filter id="l"><feGaussianBlur id="r" stdDeviation="1.28"/></filter><filter id="k"><feGaussianBlur id="s" stdDeviation="4.64"/></filter><linearGradient id="e" x1="232.5" x2="232.5" y1="10.801" y2="43.801" gradientTransform="translate(-20)" gradientUnits="userSpaceOnUse"><stop id="t" offset="0"/><stop id="u" stop-opacity="0" offset="1"/></linearGradient><linearGradient id="h" x1="249.46" x2="215.54" y1="44.263" y2="10.338" gradientTransform="matrix(1.0271 0 0 1.0273 -6.4508 -.98043)" gradientUnits="userSpaceOnUse" xlink:href="#d"><stop id="v" stop-color="#fff" stop-opacity="0" offset=".3"/><stop id="w" stop-color="#fff" offset=".497"/><stop id="x" stop-color="#fff" stop-opacity="0" offset=".7"/></linearGradient><linearGradient id="g" x1="263.14" x2="201.86" y1="53.012" y2="1.588" gradientTransform="matrix(1.0271 0 0 1.0273 -6.4508 -.98043)" gradientUnits="userSpaceOnUse" xlink:href="#d"/><linearGradient id="f" x1="137.82" x2="314.6" y1="-108.64" y2="68.144" gradientTransform="translate(0 41.1)" gradientUnits="userSpaceOnUse"><stop id="y" stop-color="#3383e6" offset="0"/><stop id="z" stop-color="#6ecaf7" offset="1"/></linearGradient><clipPath id="m"><path id="aa" d="m212.5 43.301c-8.837 0-16-7.163-16-16 0-8.836 7.163-16 16-16s16 7.164 16 16c0 8.837-7.163 16-16 16z" fill="#e20800"/></clipPath><filter id="j"><feGaussianBlur id="ab" stdDeviation="2.4476426"/></filter><filter id="i"><feGaussianBlur id="ac" stdDeviation="2.440645"/></filter><linearGradient id="b" x1="109.97" x2="232" y1="88.016" y2="88.016" gradientUnits="userSpaceOnUse" xlink:href="#c"/><linearGradient id="a" x1="356.39" x2="232" y1="27" y2="-65.195" gradientUnits="userSpaceOnUse" xlink:href="#c"/></defs>

<filter id="ad">
	<feGaussianBlur id="ae" stdDeviation="4"/>
</filter>









<linearGradient id="d" x1="263.14" x2="201.86" y1="53.012" y2="1.588" gradientUnits="userSpaceOnUse">
	<stop id="af" stop-color="#fff" stop-opacity="0" offset=".3"/>
	<stop id="ag" stop-color="#fff" offset=".497"/>
	<stop id="ah" stop-color="#fff" stop-opacity="0" offset=".7"/>
</linearGradient>




<g id="ai"><path id="aj" transform="matrix(1.0275 0 0 1.0275 -6.502 -85.161)" d="m232.5-2.7991c-64.065 0-116 51.935-116 116 0 64.064 51.935 116 116 116s116-51.936 116-116c0-64.065-51.935-116-116-116zm0 157.29c-22.803 0-41.288-18.486-41.288-41.288 0-22.803 18.485-41.288 41.288-41.288s41.288 18.485 41.288 41.287c0 22.802-18.485 41.289-41.288 41.289z" filter="url(#k)" opacity=".8"/><path id="ak" d="m232.39-96.257c-68.097 0-123.3 55.204-123.3 123.3 0 68.097 55.204 123.3 123.3 123.3 68.097 0 123.3-55.205 123.3-123.3s-55.204-123.3-123.3-123.3zm0 164.4c-22.699 0-41.1-18.402-41.1-41.1 0-22.699 18.402-41.1 41.1-41.1 22.7 0 41.1 18.402 41.1 41.1 0 22.699-18.401 41.1-41.1 41.1z" fill="url(#f)" opacity=".99"/><path id="al" d="m232.34-14.026c-22.689 0-41.082 18.398-41.082 41.093s18.394 41.093 41.082 41.093c22.69 0 41.082-18.398 41.082-41.093s-18.393-41.093-41.082-41.093zm0 57.53c-9.0761 0-16.433-7.3587-16.433-16.437 0-9.0774 7.3568-16.437 16.433-16.437s16.433 7.3597 16.433 16.437c0 9.0785-7.3568 16.437-16.433 16.437z" fill="#fff" opacity=".5"/><path id="am" d="m232.34-14.026c-22.689 0-41.082 18.398-41.082 41.093s18.394 41.093 41.082 41.093c22.69 0 41.082-18.398 41.082-41.093s-18.393-41.093-41.082-41.093zm0 65.749c-13.592 0-24.649-11.061-24.649-24.656s11.057-24.656 24.649-24.656c13.591 0 24.649 11.06 24.649 24.656 0 13.596-11.058 24.656-24.649 24.656z" fill="url(#g)" opacity=".5"/><g id="an" transform="matrix(1.0271 0 0 1.0273 -6.4508 -.98043)" fill="url(#b)" filter="url(#i)" opacity=".54">
			<path id="ao" d="m109.97 78.957 122.03-51.957-31.944 122.03-90.089-70.075z" fill="url(#b)"/>
		</g><g id="ap" transform="matrix(1.0271 0 0 1.0273 -6.4508 -.98043)" fill="url(#a)" filter="url(#j)" opacity=".48">
			<path id="aq" d="m356.39-18.607-124.39 45.607 41.595-120.38 82.791 74.772z" fill="url(#a)"/>
		</g><path id="ar" d="m232.34 2.4108c-13.592 0-24.649 11.06-24.649 24.656 0 13.596 11.057 24.656 24.649 24.656 13.591 0 24.649-11.061 24.649-24.656s-11.058-24.656-24.649-24.656z" fill="none" stroke="#d0d0d0" stroke-miterlimit="4" stroke-width="1.233"/><path id="as" d="m232.34 2.4108c-13.592 0-24.649 11.06-24.649 24.656 0 13.596 11.057 24.656 24.649 24.656 13.591 0 24.649-11.061 24.649-24.656s-11.058-24.656-24.649-24.656zm0 41.093c-9.0761 0-16.433-7.3587-16.433-16.437 0-9.0774 7.3568-16.437 16.433-16.437s16.433 7.3597 16.433 16.437c0 9.0785-7.3568 16.437-16.433 16.437z" fill="#fff" opacity=".2"/><path id="at" d="m232.34 2.4108c-13.592 0-24.649 11.06-24.649 24.656 0 13.596 11.057 24.656 24.649 24.656 13.591 0 24.649-11.061 24.649-24.656s-11.058-24.656-24.649-24.656zm0 41.093c-9.0761 0-16.433-7.3587-16.433-16.437 0-9.0774 7.3568-16.437 16.433-16.437s16.433 7.3597 16.433 16.437c0 9.0785-7.3568 16.437-16.433 16.437z" fill="url(#h)" opacity=".5"/><path id="au" transform="matrix(1.0271 0 0 1.0273 14.09 -.98043)" d="m212.5 43.301c-8.837 0-16-7.163-16-16 0-8.836 7.163-16 16-16s16 7.164 16 16c0 8.837-7.163 16-16 16z" clip-path="url(#m)" fill="none" filter="url(#l)" opacity=".5" stroke="url(#e)" stroke-miterlimit="4" stroke-width="4.0013"/><path id="av" d="m232.34-22.245c-27.183 0-49.299 22.121-49.299 49.312 0 27.19 22.116 49.312 49.299 49.312s49.299-22.121 49.299-49.312c0-27.19-22.116-49.312-49.299-49.312zm0 90.405c-22.689 0-41.082-18.398-41.082-41.093s18.394-41.093 41.082-41.093c22.69 0 41.082 18.398 41.082 41.093s-18.393 41.093-41.082 41.093z" fill="#323232" opacity=".1"/><path id="aw" d="m232.39-96.257c-68.097 0-123.3 55.204-123.3 123.3 0 68.097 55.204 123.3 123.3 123.3 68.097 0 123.3-55.205 123.3-123.3 0-68.096-55.204-123.3-123.3-123.3zm0 2.055c66.963 0 121.25 54.284 121.25 121.25 0 66.962-54.284 121.25-121.25 121.25s-121.25-54.285-121.25-121.25c0-66.963 54.284-121.25 121.25-121.25z" opacity=".5"/></g></svg>
