<?xml version="1.0" encoding="UTF-8"?>
<svg id="r" width="210mm" height="297mm" version="1.0" viewBox="0 0 664 872.1" xml:space="preserve" xmlns="http://www.w3.org/2000/svg" xmlns:xlink="http://www.w3.org/1999/xlink">
 <defs id="s"><linearGradient id="b"><stop id="t" stop-color="#625e5c" offset="0"/><stop id="u" stop-color="#a6a8a5" offset="1"/></linearGradient><linearGradient id="a"><stop id="v" stop-color="#e1a56e" offset="0"/><stop id="w" stop-color="#a66a33" offset="1"/></linearGradient><radialGradient id="g" cx="2.7848" cy="3.8942" r="1.2807" gradientTransform="matrix(65.029 -16.252 40.21 160.89 -14.377 -129)" gradientUnits="userSpaceOnUse" xlink:href="#a"/><linearGradient id="q" x1="2.7848" x2="2.7848" y1="5.5653" y2="2.9391" gradientTransform="matrix(116.25 0 0 116.25 -.43483 -.42831)" gradientUnits="userSpaceOnUse"><stop id="x" stop-color="#b0b2af" offset="0"/><stop id="y" stop-color="#d4d6d3" offset="1"/></linearGradient><linearGradient id="p" x1="2.7751" x2="2.7751" y1="5.5686" y2="4.6131" gradientTransform="matrix(116.25 0 0 116.25 -.43483 -.42831)" gradientUnits="userSpaceOnUse" xlink:href="#b"/><radialGradient id="f" cx="3.1515" cy="6.1444" r="1.1825" gradientTransform="matrix(116.25 0 0 82.514 -.43483 214.3)" gradientUnits="userSpaceOnUse" xlink:href="#a"/><radialGradient id="e" cx="3.7747" cy="5.7654" r=".34648" gradientTransform="matrix(79.194 -30.312 49.803 130.12 -153.8 27.548)" gradientUnits="userSpaceOnUse"><stop id="z" stop-color="#ec7b74" offset="0"/><stop id="aa" stop-color="#d63a45" offset="1"/></radialGradient><linearGradient id="o" x1="4.8165" x2="3.6824" y1="5.4752" y2="5.4752" gradientTransform="matrix(116.25 0 0 116.25 -.43483 -.42831)" gradientUnits="userSpaceOnUse" xlink:href="#a"/><linearGradient id="n" x1="5.3442" x2="3.4427" y1="6.8568" y2="6.8568" gradientTransform="matrix(116.25 0 0 116.25 -.43483 -.42831)" gradientUnits="userSpaceOnUse" xlink:href="#a"/><linearGradient id="m" x1=".45398" x2="2.1632" y1="6.7778" y2="6.7778" gradientTransform="matrix(116.25 0 0 116.25 -.43483 -.42831)" gradientUnits="userSpaceOnUse" xlink:href="#a"/><linearGradient id="l" x1=".86579" x2="2.0257" y1="5.5389" y2="5.5389" gradientTransform="matrix(116.25 0 0 116.25 -.43483 -.42831)" gradientUnits="userSpaceOnUse" xlink:href="#a"/><radialGradient id="d" cx="3.3884" cy="1.2457" r=".46976" gradientTransform="matrix(56.431 16.903 -89.185 297.75 296.01 -276.05)" gradientUnits="userSpaceOnUse" xlink:href="#a"/><radialGradient id="c" cx="1.5118" cy="1.5863" r=".77457" gradientTransform="matrix(116.25 128.93 -23.785 21.446 44.309 -10.684)" gradientUnits="userSpaceOnUse" xlink:href="#a"/><linearGradient id="k" x1=".56385" x2=".56385" y1="7.4319" y2="6.2409" gradientTransform="matrix(116.25 0 0 116.25 -.43483 -.42831)" gradientUnits="userSpaceOnUse" xlink:href="#b"/><linearGradient id="j" x1=".91182" x2=".91182" y1="6.11" y2="5.008" gradientTransform="matrix(116.25 0 0 116.25 -.43483 -.42831)" gradientUnits="userSpaceOnUse" xlink:href="#b"/><linearGradient id="i" x1="5.3147" x2="5.3147" y1="7.4952" y2="6.3151" gradientTransform="matrix(116.25 0 0 116.25 -.43483 -.42831)" gradientUnits="userSpaceOnUse" xlink:href="#b"/><linearGradient id="h" x1="4.7429" x2="4.7429" y1="6.0564" y2="5.008" gradientTransform="matrix(116.25 0 0 116.25 -.43483 -.42831)" gradientUnits="userSpaceOnUse" xlink:href="#b"/></defs>
 <g id="ab" transform="matrix(.9919 0 0 .9919 -.0037447 -.003688)"><path id="ac" d="m104.13 717.03 92.559-23.913-6.173 24.018-86.387-0.10462zm-49.233-37.724c1.5345 10.195 13.985 37.305 23.285 37.689l-60.428-0.08138c-10.219 8.7421-16.333 24.808-17.054 32.783-1.5461 16.961-1.3601 25.354 9.4745 32.899-12.683 12.055-11.335 61.706 16.775 89.816l221.65-41.734c47.001 21.913 118.26 25.808 161.65 8.6724l231.52 39.886c10.974-10.66 40.153-45.524 20.565-88.328 10.114-14.473 11.149-48.384-8.3236-68.984l-165.3-0.94164-8.2655-29.888 86.328 20.983c11.021-8.684 49.593-51.732 18.716-86.352 19.507-19.693 22.216-24.75 2.5227-55.417l-107.28-1.9879c6.9518-22.564 4.5571-48-11.951-74.157-35.352-55.336-70.518-112.75-72.506-186.73l18.903 0.03487-16.949-19.926 34.48 0.05813-29.667-15.182 27.482-19.693-41.455-0.22088c26.808-71.471 30.539-142 39.037-218.56 6.7658-60.974-37.805-29.47-63.415 14.078-25.622 43.548-71.518 97.012-75.505 177.78l-42.339-39.944 7.2076 49.198c-37.119-47.187-82.271-81.957-154.44-122.48-59.114-33.19-14.055 70.867 4.4524 99.081 13.148 20.053 42.781 57.603 69.53 87.072l-12.625 23.39 9.3815-1.1393-4.1153 12.369 19.612 3.5806c0 40.723 12.544 74.029 8.9514 115.4-4.3711 50.314-35.805 85.561-29.447 128.31l-98.419-0.558c-19.635 21.123-19.495 56.219-1.7903 60.125-12.137 8.777-12.997 20.774-10.242 39.107z" fill="#858683"/><path id="ad" d="m387.62 314.84c-8.276-83.294-191.27-78.835-191.27 38.621 0 37.589 11.591 66.639 8.276 104.83-5.5173 63.555-62.163 96.14-4.5978 164.6 29.072 34.574 118.73 22.327 156.32 20.23 72.096-4.0223 148.58-71.968 101.15-146.21-32.635-51.079-68.047-113.79-69.886-182.07z" fill="none" stroke="#1f1a17" stroke-width="4.1002"/><path id="ae" d="m337.96 428.87c9.671 7.7319 56.212 17.192 56.325-0.92303 0.11044-17.839-0.50453-32.989-2.7586-43.018-2.2541-10.029-6.8437-29.033-16.094-37.216-5.8126-5.1418-21.043-8.0946-29.651-5.5138-8.6084 2.5808-22.519 42.386-22.534 55.406-0.02093 17.01 5.0418 23.533 14.713 31.265z" fill="none" stroke="#1f1a17" stroke-width="4.1002"/><path id="af" d="m248.42 462.86c23.436-11.428 42.618-24.097 38.113-58.777-1.7542-13.513-18.966-36.373-29.848-43.623-27.482-18.313-45.919 13.496-43.623 39.95 1.7054 19.66 11.922 73.878 35.358 62.45z" fill="none" stroke="#1f1a17" stroke-width="4.1002"/><path id="ag" d="m260.72 645.93c8.5073 2.5122 13.357 9.2257 25.752 12.826 31.477 9.1409 61.117 5.4557 85.13-2.7203" fill="none" stroke="#1f1a17" stroke-width="4.1002"/><path id="ah" d="m370.2 641.58c-0.15694 17.748 6.481 32.071 14.663 47.517 13.864 26.175 61.402 27.295 65.288-6.4368 2.7075-23.499-3.4771-44.815-22.476-64.439m21.374 38.006c11.448 19.884 62.754 101.82-15.45 159.77-51.026 37.812-205.78 24.299-224.37-37.702-20.675-68.97 2.5517-85.762 25.825-136.41" fill="none" stroke="#1f1a17" stroke-width="4.1002"/><path id="ai" d="m259.66 265.72c-34.313-53.199-91.412-101.9-161.24-142.61-47.568-27.733 8.1027 74.822 22.993 98.39 14.891 23.568 57.643 71.588 81.356 96.628" fill="none" stroke="#1f1a17" stroke-width="4.1002"/><path id="aj" d="m309.77 258.13c-2.4238-84.421-1.624-79.038 18.39-118.84 20.014-39.799 38.256-71.416 57.827-100.3 15.263-22.527 37.535-49.721 30.801 6.688-8.9456 74.931-20.656 170.7-54.732 228.16" fill="none" stroke="#1f1a17" stroke-width="4.1002"/><polyline id="ak" class="fil1 str1" transform="matrix(116.25 0 0 116.25 -.43483 -.42831)" points="3.1712 2.2622 3.3842 2.2596 3.2817 2.3648 3.4552 2.3806 3.2606 2.4306 3.3474 2.4832 3.2535 2.4879" fill="none" stroke="#1f1a17" stroke-width=".03527"/><polyline id="al" class="fil1 str1" transform="matrix(116.25 0 0 116.25 -.43483 -.42831)" points="2.5578 2.2247 2.5525 2.0196 2.484 2.1198 2.3375 1.9677 2.348 2.136 2.2192 2.1255 2.3347 2.2591" fill="none" stroke="#1f1a17" stroke-width=".03527"/><polyline id="am" class="fil1 str1" transform="matrix(116.25 0 0 116.25 -.43483 -.42831)" points="1.6043 2.5852 1.5169 2.6988 1.6406 2.6778 1.5538 2.7883 1.7308 2.7885" fill="none" stroke="#1f1a17" stroke-width=".03527"/><path id="an" d="m269.96 646.55c-0.04418-30.818 4.4629-61.399-7.9702-86.268-12.464-24.931-26.255-46.505-43.807-69.922" fill="none" stroke="#1f1a17" stroke-width="4.1002"/><path id="ao" d="m411.57 627.86c-13.159-23.508-21.536-56.297-21.536-86.564 0-23.469 8.498-64.695 19.19-88.658" fill="none" stroke="#1f1a17" stroke-width="4.1002"/><path id="ap" d="m270.67 602.8c1.0939-35.674-60.748-40.637-60.748-87.854 0-56.384 107.57-66.166 155-66.166 35.231 0 64.94-1.602 64.94 39.822 0 19.665-29.548 48.507-38.334 75.469" fill="none" stroke="#1f1a17" stroke-width="4.1002"/><path id="aq" d="m462.22 581.05 120.19 1.2881c17.098 26.375 4.3862 30.533-12.553 47.472 35.235 23.612 14.824 53.058-7.6645 73.831l-101.09-25.118" fill="none" stroke="#1f1a17" stroke-width="4.1002"/><path id="ar" d="m476.09 734.29 172.8-0.5801c19.471 17.848 1.9774 45.821-15.899 51.67 4.6605 2.3576 23.693 8.598 26.918 22.011s6.9658 39.154-18.079 63.502l-242.06-40.056" fill="none" stroke="#1f1a17" stroke-width="4.1002"/><path id="as" d="m179.73 590.69-105.94-0.6731c-17.956 17.956-4.9872 42.113 11.196 45.436-11.087 7.4622-17.999 23.356-15.477 38.949 1.4125 8.7258 14.096 35.466 22.625 35.466l123.85-30.561" fill="none" stroke="#1f1a17" stroke-width="4.1002"/><path id="at" d="m201.44 725.09-177.15-0.00697c-5.8893 6.6914-10.939 14.931-11.64 22.668-1.4915 16.434 13.345 25.453 23.847 32.757-24.551 8.2922-29.637 55.8-2.4041 83.033l216.95-44.891" fill="none" stroke="#1f1a17" stroke-width="4.1002"/><path id="au" d="m131.79 590.38c-3.1016 17.324-18.379 20.055-31.577 22.612 21.849 8.2004 5.7161 16.766 0.32318 20.861 18.11 0 26.575 5.8405 9.929 17.562 13.161 0.2697 32.621 2.7982 35.551 45.152" fill="none" stroke="#1f1a17" stroke-width=".88584"/><path id="av" d="m87.24 725.09c0 19.156-21.597 21.968-34.899 26.143 12.595 5.5592 22.078 13.116 3.6735 22.041-1.8158 0.88003 33.848 3.6468 9.6954 21.737 17.886 0.97651 42.783 26.976 34.283 54.899" fill="none" stroke="#1f1a17" stroke-width=".88584"/><path id="aw" d="m585.01 733.92c0 16.875 20.608 19.54 33.19 24.466-24.371 9.8826-0.54057 21.841 2.6401 24.585-14.4 0-34.479 1.2671-12.411 15.551-30.201 11.943-34.576 27.96-35.84 60.908" fill="none" stroke="#1f1a17" stroke-width=".88584"/><path id="ax" d="m511.65 691.08c-2.4018-26.918 9.857-47.919 33.562-48.743-17.863-20.735 1.7577-16.028 11.865-16.028-3.6515-3.698-25.604-18.455 2.4169-20.726-13.213-3.3027-31.112-10.739-31.482-23.83" fill="none" stroke="#1f1a17" stroke-width=".88584"/><path id="ay" d="m323.25 397.6c0.01511-13.019 13.926-52.825 22.534-55.406 8.6084-2.5808 23.839 0.372 29.651 5.5138 9.2501 8.183 13.84 27.187 16.094 37.216 2.2541 10.029 2.8691 25.179 2.7586 43.018-0.11276 18.115-46.654 8.6549-56.325 0.92303-9.671-7.7319-14.734-14.255-14.713-31.265zm41.667 51.181c16.944 0 32.609-0.37084 44.308 3.8526 12.627 4.5571 20.632 14.466 20.632 35.969 0 19.665-29.548 48.507-38.334 75.469 2.9563 23.163 10.149 46.098 20.048 63.783 5.6068-2.8668 11.001-6.0892 16.101-9.6338 14.498-10.074 26.625-22.74 34.542-37.171 13.355-24.344 14.729-53.713-4.7094-84.138-32.635-51.079-68.047-113.79-69.886-182.07-0.98814-9.9476-4.4687-18.644-9.8326-26.046-4.192-5.7858-9.535-10.78-15.737-14.963-14.12-9.5222-32.692-14.838-52.285-15.706-4.2478-0.18833-8.5445-0.16741-12.854 0.0651-8.6863 0.46965-17.424 1.7984-25.929 4.0072-3.8293 0.99511-7.6122 2.1681-11.321 3.5224-24.963 9.1106-46.588 26.393-56.891 52.407-0.72308 1.8275-1.3915 3.6991-2.0007 5.6126-2.8493 8.9525-4.4164 18.854-4.4164 29.721 0 37.589 11.591 66.639 8.276 104.83-4.5768 52.724-44.342 84.135-24.895 132.39 3.9944 9.9139 10.487 20.538 20.298 32.205 7.9295 9.4292 20.364 15.377 35.021 18.997 8.0155 1.9798 16.695 3.2632 25.665 4.0397 3.0539 0.26389 6.1404 0.46966 9.2466 0.62427-0.02093-14.842 1.0126-29.629 0.70332-43.75-0.0279-1.2276-0.0651-2.4506-0.11393-3.6677-3.083-32.41-60.634-38.636-60.634-84.186 0-9.4454 3.019-17.583 8.2678-24.586 26.086-34.801 107.25-41.58 146.73-41.58zm-108.24-88.326c10.881 7.2506 28.093 30.11 29.848 43.623 4.5048 34.68-14.677 47.349-38.113 58.777-23.436 11.428-33.653-42.79-35.358-62.45-2.296-26.454 16.142-58.263 43.623-39.95z" fill="url(#g)" stroke="#1f1a17" stroke-width=".88584"/><path id="az" d="m323.25 397.6c0.01511-13.019 13.926-52.825 22.534-55.406 8.6084-2.5808 23.839 0.372 29.651 5.5138 9.2501 8.183 13.84 27.187 16.094 37.216 2.2541 10.029 2.8691 25.179 2.7586 43.018-0.11276 18.115-46.654 8.6549-56.325 0.92303-9.671-7.7319-14.734-14.255-14.713-31.265zm41.667 51.181c16.944 0 32.609-0.37084 44.308 3.8526 12.627 4.5571 20.632 14.466 20.632 35.969 0 19.665-29.548 48.507-38.334 75.469 2.9563 23.163 10.149 46.098 20.048 63.783 5.6068-2.8668 11.001-6.0892 16.101-9.6338 14.498-10.074 26.625-22.74 34.542-37.171 13.355-24.344 14.729-53.713-4.7094-84.138-47.112-95.037-232.99-27.038-268.32 13.147-1.8235 12.77-23.404 40.49-9.4556 80.626 3.5086 10.096 10.487 20.538 20.298 32.205 7.9295 9.4292 20.364 15.377 35.021 18.997 8.0155 1.9798 16.695 3.2632 25.665 4.0397 3.0539 0.26389 6.1404 0.46966 9.2466 0.62427-0.02093-14.842 1.0126-29.629 0.70332-43.75-0.0279-1.2276-0.0651-2.4506-0.11393-3.6677-3.083-32.41-60.634-38.636-60.634-84.186 0-9.4454 3.019-17.583 8.2678-24.586 26.086-34.801 107.25-41.58 146.73-41.58zm-108.24-88.326c10.881 7.2506 28.093 30.11 29.848 43.623 4.5048 34.68-14.677 47.349-38.113 58.777-23.436 11.428-33.653-42.79-35.358-62.45-2.296-26.454 16.142-58.263 43.623-39.95z" fill="url(#q)" stroke="#1f1a17" stroke-width=".88584"/><circle id="ba" transform="matrix(116.25 0 0 116.25 -.43483 -.42831)" cx="2.2591" cy="3.6178" r=".1264" stroke="#1f1a17" stroke-width=".03527"/><path id="bb" d="m286.53 404.08c-1.7542-13.513-18.966-36.373-29.848-43.623-27.482-18.313-45.919 13.496-43.623 39.95 1.7054 19.66 11.922 73.878 35.358 62.45 23.436-11.428 42.618-24.097 38.113-58.777zm-24.337 1.3776c8.1144 0 14.694 6.5798 14.694 14.694 0 8.1144-6.5798 14.694-14.694 14.694s-14.694-6.5798-14.694-14.694c0-8.1144 6.5798-14.694 14.694-14.694z" fill="#fff" stroke="#1f1a17" stroke-width=".88584"/><circle id="bc" transform="matrix(116.25 0 0 116.25 -.43483 -.42831)" cx="2.9622" cy="3.5033" r=".1264" stroke="#1f1a17" stroke-width=".03527"/><path id="bd" d="m345.79 342.2c-8.6084 2.5808-22.519 42.386-22.534 55.406-0.02093 17.01 5.0418 23.533 14.713 31.265 9.671 7.7319 56.212 17.192 56.325-0.92303 0.11044-17.839-0.50453-32.989-2.7586-43.018-2.2541-10.029-6.8437-29.033-16.094-37.216-5.8126-5.1418-21.043-8.0946-29.651-5.5138zm-1.8565 49.945c8.1144 0 14.694 6.5798 14.694 14.694s-6.5798 14.694-14.694 14.694c-8.1144 0-14.694-6.5798-14.694-14.694s6.5798-14.694 14.694-14.694z" fill="#fff" stroke="#1f1a17" stroke-width=".88584"/><path id="be" d="m364.92 448.78c-39.483 0-120.65 6.7786-146.73 41.58 17.552 23.417 31.343 44.991 43.807 69.922 5.9242 11.851 8.0028 24.998 8.5596 38.85 0.11277 1.1869 0.15229 2.4076 0.11393 3.6677 0.30923 14.121-0.72425 28.908-0.70332 43.75 32.261 1.6043 66.564-2.325 86.391-3.4306 4.607-0.25692 9.2327-0.7754 13.843-1.5392 14.272-2.3657 28.394-7.0902 41.374-13.726-9.8988-17.684-17.091-40.619-20.048-63.783-0.97419-7.6296-1.488-15.282-1.488-22.782 0-23.469 8.498-64.695 19.19-88.658-11.7-4.2223-27.364-3.8514-44.308-3.8514z" fill="url(#p)" stroke="#1f1a17" stroke-width=".88584"/><path id="bf" d="m261.99 560.28c-12.464-24.931-26.255-46.505-43.807-69.922-5.2488 7.003-8.2678 15.141-8.2678 24.586 0 45.55 57.552 51.776 60.634 84.186-0.55684-13.853-2.6354-26.999-8.5596-38.85z" fill="#5b5857" stroke="#1f1a17" stroke-width=".88584"/><path id="bg" d="m409.23 452.63c-10.692 23.963-19.19 65.189-19.19 88.658 0 7.4994 0.51383 15.152 1.488 22.782 8.7863-26.962 38.334-55.804 38.334-75.469 0-21.503-8.0051-31.412-20.632-35.971z" fill="#5b5857" stroke="#1f1a17" stroke-width=".88584"/><path id="bh" d="m356.36 643.12c-19.827 1.1056-54.13 5.0348-86.391 3.4306-3.1062-0.15461-6.1927-0.36038-9.2466-0.62427 8.5073 2.5122 13.357 9.2257 25.752 12.826 31.477 9.1409 61.117 5.4557 85.13-2.7203-0.93815-4.6094-1.445-9.3908-1.4008-14.451-4.6105 0.76377-9.2362 1.2822-13.843 1.5392z" fill="#a66a33" stroke="#1f1a17" stroke-width=".88584"/><path id="bi" d="m371.6 656.03c-24.013 8.176-53.652 11.861-85.13 2.7203-12.395-3.6003-17.245-10.314-25.752-12.826-8.97-0.77656-17.649-2.06-25.665-4.0397-6.7077 14.598-13.412 26.382-19.063 37.414-7.6505 14.938-13.368 28.498-14.548 45.79-0.9707 14.247 1.1381 31.028 7.7854 53.203 5.1581 17.208 20.807 30.681 41.816 40.358 41.824 19.265 104.89 23.487 148.74 12.187 13.483-3.4748 25.149-8.4178 33.819-14.843 33.83-25.068 43.425-54.624 42.495-81.705-0.73006-21.229-7.9272-40.937-14.987-55.767-4.7535-9.9837-9.4443-17.756-12.058-22.296 1.8635 8.5003 2.1541 17.302 1.1021 26.433-3.8863 33.732-51.424 32.612-65.288 6.4368-5.8486-11.042-10.909-21.51-13.262-33.065z" fill="url(#f)" stroke="#1f1a17" stroke-width=".88584"/><path id="bj" d="m371.6 656.03c2.3529 11.555 7.4134 22.024 13.262 33.065 13.864 26.175 61.402 27.295 65.288-6.4368 1.0521-9.1316 0.76145-17.933-1.1021-26.433-2.9319-13.376-9.757-26.008-21.374-38.006-5.1 3.5445-10.494 6.767-16.101 9.6338-12.979 6.6356-27.102 11.36-41.374 13.726-0.04417 5.0604 0.46268 9.8418 1.4008 14.451z" fill="url(#e)" stroke="#1f1a17" stroke-width=".88584"/><path id="bk" d="m427.67 618.22c11.617 11.998 18.442 24.63 21.374 38.006 2.6133 4.5396 7.3041 12.312 12.058 22.296l50.543 12.559c-2.4018-26.918 9.857-47.919 33.562-48.743-17.863-20.735 1.7577-16.028 11.865-16.028-3.6515-3.698-25.604-18.455 2.4169-20.726-13.213-3.3027-31.112-10.739-31.482-23.83l-65.794-0.70448c-7.9167 14.431-20.044 27.097-34.542 37.171z" fill="url(#o)" stroke="#1f1a17" stroke-width=".88584"/><path id="bl" d="m585.01 733.92-108.91 0.36619c0.93002 27.081-8.6642 56.637-42.495 81.705-8.67 6.4252-20.336 11.368-33.819 14.843l172.81 28.596c1.2648-32.948 5.6394-48.965 35.84-60.908-22.068-14.284-1.9891-15.551 12.411-15.551-3.1806-2.7435-27.011-14.702-2.6401-24.585-12.582-4.9267-33.19-7.5912-33.19-24.466z" fill="url(#n)" stroke="#1f1a17" stroke-width=".88584"/><path id="bm" d="m251.04 818.65c-21.009-9.6768-36.658-23.15-41.816-40.358-6.6473-22.175-8.7561-38.956-7.7854-53.203l-114.2-0.00465c0 19.156-21.597 21.968-34.899 26.143 12.595 5.5592 22.078 13.116 3.6735 22.041-1.8158 0.88003 33.848 3.6468 9.6954 21.737 17.886 0.97651 42.783 26.976 34.283 54.899l151.05-31.254z" fill="url(#m)" stroke="#1f1a17" stroke-width=".88584"/><path id="bn" d="m146.02 696.57 69.972-17.266c5.651-11.032 12.355-22.817 19.063-37.414-14.657-3.6201-27.091-9.5675-35.021-18.997-9.8105-11.667-16.303-22.291-20.298-32.205l-47.942-0.30574c-3.1016 17.324-18.379 20.055-31.577 22.612 21.849 8.2004 5.7161 16.766 0.32318 20.861 18.11 0 26.575 5.8405 9.929 17.562 13.161 0.2697 32.621 2.7982 35.551 45.152z" fill="url(#l)" stroke="#1f1a17" stroke-width=".88584"/><path id="bo" d="m309.77 258.13c19.593 0.86723 38.165 6.1834 52.285 15.706 2.1414-3.6108 4.1955-7.3738 6.166-11.273 29.372-58.137 40.184-146.66 48.566-216.88 6.7344-56.409-15.538-29.215-30.801-6.688-19.571 28.886-37.813 60.503-57.827 100.3-20.014 39.799-20.814 34.416-18.39 118.84z" fill="url(#d)" stroke="#1f1a17" stroke-width=".88584"/><path id="bp" d="m259.66 265.72c-34.313-53.199-91.412-101.9-161.24-142.61-47.568-27.733 8.1027 74.822 22.993 98.39 11.818 18.704 41.184 52.81 64.656 78.607 6.1032 6.7077 11.808 12.854 16.701 18.021 10.303-26.015 31.928-43.297 56.891-52.407z" fill="url(#c)" stroke="#1f1a17" stroke-width=".88584"/><path id="bq" d="m65.71 795.01c24.152-18.09-11.511-20.857-9.6954-21.737 18.405-8.9258 8.9211-16.482-3.6735-22.041 13.302-4.1746 34.899-6.9867 34.899-26.143l-62.953-0.00232c-5.8893 6.6914-10.939 14.931-11.64 22.668-1.4915 16.434 13.345 25.453 23.847 32.757-24.551 8.2922-29.637 55.8-2.4041 83.033l65.903-13.636c8.5003-27.922-16.396-53.922-34.283-54.899z" fill="url(#k)" stroke="#1f1a17" stroke-width=".88584"/><path id="br" d="m92.139 709.86 53.879-13.296c-2.9295-42.354-22.39-44.882-35.551-45.152 16.646-11.722 8.1806-17.562-9.929-17.562 5.3929-4.0955 21.526-12.661-0.32318-20.861 13.198-2.5575 28.476-5.2883 31.577-22.612l-57.998-0.36736c-17.956 17.956-4.9872 42.113 11.196 45.436-11.087 7.4622-17.999 23.356-15.477 38.949 1.4125 8.7258 14.096 35.466 22.625 35.466z" fill="url(#j)" stroke="#1f1a17" stroke-width=".88584"/><path id="bs" d="m608.42 798.53c-30.201 11.943-34.576 27.96-35.84 60.908l69.25 11.46c25.045-24.349 21.304-50.089 18.079-63.502s-22.258-19.653-26.918-22.011c17.876-5.8498 35.37-33.822 15.899-51.67l-63.888 0.21391c0 16.875 20.608 19.54 33.19 24.466-24.371 9.8826-0.54057 21.841 2.6401 24.585-14.4 0-34.479 1.2671-12.411 15.551z" fill="url(#i)" stroke="#1f1a17" stroke-width=".88584"/><path id="bt" d="m511.65 691.08 50.543 12.56c22.489-20.773 42.899-50.22 7.6645-73.831 16.939-16.939 29.651-21.097 12.553-47.472l-54.399-0.58359c0.36968 13.091 18.269 20.528 31.482 23.83-28.021 2.2716-6.0683 17.029-2.4169 20.726-10.107 0-29.728-4.707-11.865 16.028-23.705 0.82422-35.964 21.825-33.562 48.743z" fill="url(#h)" stroke="#1f1a17" stroke-width=".88584"/><path id="bu" d="m270.98 262.2c8.505-2.2088 17.242-3.5375 25.929-4.0072l-0.60916-23.836-7.9644 11.64-17.034-17.676 1.223 19.567-14.981-1.223 13.438 15.535z" fill="#a66a33" stroke="#1f1a17" stroke-width=".88584"/><path id="bv" d="m202.77 318.13c-4.893-5.1674-10.597-11.314-16.701-18.021l-10.158 13.209 14.37-2.4459-10.089 12.841 20.578 0.03023c0.60916-1.9135 1.2776-3.7852 2.0007-5.6126z" fill="#a66a33" stroke="#1f1a17" stroke-width=".88584"/><path id="bw" d="m368.22 262.56c-1.9705 3.8991-4.0246 7.6621-6.166 11.273 6.202 4.1827 11.545 9.1769 15.737 14.963l10.921-0.54987-10.089-6.1148 22.625-5.8091-20.179-1.8344 11.924-12.23-24.772 0.30226z" fill="#a66a33" stroke="#1f1a17" stroke-width=".88584"/></g>
</svg>
