<?xml version="1.0" encoding="UTF-8"?>
<svg id="b" width="33.75mm" height="33.75mm" version="1.1" viewBox="0 0 33.75 33.75" xmlns="http://www.w3.org/2000/svg"><defs id="c"><clipPath id="a"><rect id="d" transform="rotate(45)" x="486.04" y="124" width="362.94" height="362.94" rx="32" ry="32" enable-background="new" fill="#4a86cf" style="paint-order:normal"/></clipPath></defs><g id="e" transform="translate(-61.82 -103.94)"><g id="f" transform="matrix(.26367 0 0 .26367 61.82 -529.4)" enable-background="new" stroke-width=".25"><title id="g">application-x-executable</title><g id="h" transform="matrix(.25 0 0 .25 0 2295)" stroke-width=".25"><g id="i" transform="matrix(.92605 0 0 .92605 18.931 50.876)" stroke-width=".26996"><g id="j" clip-path="url(#a)" stroke-width=".26996"><rect id="k" transform="matrix(.60528 .60528 -.60528 .60528 33.441 99.074)" x="458.34" y="90.642" width="424" height="424" rx="10.092" ry="10.092" clip-path="none" fill="#3584e4" style="paint-order:normal"/><circle id="l" transform="translate(0,-212)" r="0" fill="#f66151" style="paint-order:normal"/><circle id="m" transform="translate(0,-212)" r="0" fill="#f66151" style="paint-order:normal"/><path id="n" d="m408.92 561.92-9.8861 29.829a172.97 172.97 0 0 0-1.4269-0.0713 172.97 172.97 0 0 0-23.929 1.8519l-13.801-28.501a203.29 203.29 0 0 0-29.401 7.9722l2.2862 31.405a172.97 172.97 0 0 0-22.732 11.319l-23.718-21.103a203.29 203.29 0 0 0-24.059 18.674l14.099 28.073a172.97 172.97 0 0 0-16.636 19.211l-30.058-10.448a203.29 203.29 0 0 0-15.017 26.488l23.73 20.507a172.97 172.97 0 0 0-7.9846 24.143l-31.73 1.8488a203.29 203.29 0 0 0-3.7782 30.217l29.829 9.8861a172.97 172.97 0 0 0-0.0713 1.4269 172.97 172.97 0 0 0 1.8519 23.929l-28.501 13.801a203.29 203.29 0 0 0 7.9722 29.401l31.405-2.2862a172.97 172.97 0 0 0 11.319 22.732l-21.103 23.718a203.29 203.29 0 0 0 18.674 24.059l28.073-14.099a172.97 172.97 0 0 0 19.211 16.636l-10.448 30.058a203.29 203.29 0 0 0 26.488 15.017l20.507-23.73a172.97 172.97 0 0 0 24.143 7.9846l1.8488 31.73a203.29 203.29 0 0 0 30.217 3.7783l9.8861-29.829a172.97 172.97 0 0 0 1.4269 0.0713 172.97 172.97 0 0 0 23.929-1.8519l13.801 28.501a203.29 203.29 0 0 0 29.401-7.9722l-2.2862-31.405a172.97 172.97 0 0 0 22.732-11.319l23.718 21.103a203.29 203.29 0 0 0 24.059-18.674l-14.099-28.073a172.97 172.97 0 0 0 16.636-19.211l30.058 10.448a203.29 203.29 0 0 0 15.017-26.488l-23.73-20.507a172.97 172.97 0 0 0 7.9846-24.143l31.73-1.8488a203.29 203.29 0 0 0 3.7782-30.217l-29.829-9.8861a172.97 172.97 0 0 0 0.0713-1.4269 172.97 172.97 0 0 0-1.8519-23.929l28.501-13.801a203.29 203.29 0 0 0-7.9722-29.401l-31.405 2.2862a172.97 172.97 0 0 0-11.319-22.732l21.103-23.718a203.29 203.29 0 0 0-18.674-24.059l-28.073 14.099a172.97 172.97 0 0 0-19.211-16.636l10.448-30.058a203.29 203.29 0 0 0-26.488-15.017l-20.507 23.73a172.97 172.97 0 0 0-24.143-7.9846l-1.8488-31.73a203.29 203.29 0 0 0-30.217-3.7783zm-11.313 75.804a126.93 126.93 0 0 1 126.92 126.92 126.93 126.93 0 0 1-126.92 126.92 126.93 126.93 0 0 1-126.92-126.92 126.93 126.93 0 0 1 126.92-126.92z" enable-background="new" fill="#98c1f1" style="paint-order:normal"/><path id="o" d="m51.748 401.28-9.8861 29.829c-0.47554-0.0257-0.95119-0.0495-1.4269-0.0713-8.0096 0.0625-16.005 0.6813-23.929 1.8519l-13.801-28.501c-9.9859 1.9184-19.814 4.5832-29.401 7.9722l2.2862 31.405c-7.8443 3.211-15.442 6.9943-22.732 11.319l-23.718-21.103c-8.4754 5.6144-16.518 11.857-24.059 18.674l14.099 28.073c-6.0089 5.987-11.569 12.408-16.636 19.211l-30.058-10.448c-5.6607 8.4416-10.68 17.296-15.017 26.488l23.73 20.507c-3.2503 7.8408-5.919 15.91-7.9846 24.143l-31.73 1.8488c-2.0131 9.9636-3.276 20.064-3.7782 30.217l29.829 9.8861c-0.0257 0.47554-0.0495 0.95119-0.0713 1.4269 0.0625 8.0096 0.68129 16.005 1.8519 23.929l-28.501 13.801c1.9184 9.9859 4.5832 19.814 7.9722 29.401l31.405-2.2862c3.211 7.8443 6.9943 15.442 11.319 22.732l-21.103 23.718c5.6144 8.4754 11.857 16.518 18.674 24.059l28.073-14.099c5.987 6.0089 12.408 11.569 19.211 16.636l-10.448 30.058c8.4415 5.6607 17.296 10.68 26.488 15.017l20.507-23.73c7.8408 3.2503 15.91 5.919 24.143 7.9846l1.8488 31.73c9.9636 2.0131 20.064 3.276 30.217 3.7783l9.8861-29.829c0.47554 0.0257 0.95119 0.0495 1.4269 0.0713 8.0096-0.0625 16.005-0.68129 23.929-1.8519l13.801 28.501c9.9859-1.9184 19.814-4.5832 29.401-7.9722l-2.2862-31.405c7.8443-3.211 15.442-6.9943 22.732-11.319l23.718 21.103c8.4754-5.6144 16.518-11.857 24.059-18.674l-14.099-28.073c6.0089-5.987 11.569-12.408 16.636-19.211l30.058 10.448c5.6607-8.4416 10.68-17.296 15.017-26.488l-23.73-20.507c3.2503-7.8408 5.919-15.91 7.9846-24.143l31.73-1.8488c2.0131-9.9636 3.276-20.064 3.7782-30.217l-29.829-9.8861c0.0257-0.47554 0.0495-0.95118 0.0713-1.4269-0.0625-8.0096-0.6813-16.005-1.8519-23.929l28.501-13.801c-1.9184-9.9859-4.5832-19.814-7.9722-29.401l-31.405 2.2862c-3.211-7.8443-6.9943-15.442-11.319-22.732l21.103-23.718c-5.6144-8.4754-11.857-16.518-18.674-24.059l-28.073 14.099c-5.987-6.0089-12.408-11.569-19.211-16.636l10.448-30.058c-8.4416-5.6607-17.296-10.68-26.488-15.017l-20.507 23.73c-7.8408-3.2503-15.91-5.919-24.143-7.9846l-1.8488-31.73c-9.9636-2.0131-20.064-3.276-30.217-3.7783z" enable-background="new" fill="#1a5fb4" style="paint-order:normal"/></g></g><path id="p" transform="matrix(4,0,0,4,0,-10028)" d="m8.4766 2676c-1.1712 2.8866-0.58278 6.3078 1.7656 8.6562l48.102 48.102c3.1339 3.1339 8.1786 3.1339 11.312 0l48.102-48.102c2.3484-2.3484 2.9368-5.7696 1.7656-8.6562-0.39174 0.9655-0.98013 1.8708-1.7656 2.6562l-48.102 48.102c-3.1339 3.1339-8.1786 3.1339-11.312 0l-48.102-48.102c-0.7855-0.7854-1.3739-1.6907-1.7656-2.6562z" enable-background="new" fill="#1a5fb4" opacity=".534" style="paint-order:normal"/></g><rect id="q" x="-1.5e-6" y="2402" width="128" height="128" enable-background="new" fill="none" style="paint-order:normal"/></g></g></svg>
