<?xml version="1.0" encoding="UTF-8"?>
<svg viewBox="0 0 128 128" xmlns="http://www.w3.org/2000/svg" xmlns:xlink="http://www.w3.org/1999/xlink"><filter id="a" x="0%" y="0%" width="100%" height="100%"><feColorMatrix color-interpolation-filters="sRGB" values="0 0 0 0 1 0 0 0 0 1 0 0 0 0 1 0 0 0 1 0"/></filter><linearGradient id="b" x1="6.2552" x2="36.615" y1="34.4" y2="34.4" gradientUnits="userSpaceOnUse"><stop stop-color="#1a5fb4" offset="0"/><stop stop-color="#2178e2" offset=".41123"/><stop stop-color="#1a5eb0" offset=".83243"/><stop stop-color="#2889ff" offset="1"/></linearGradient><linearGradient id="c" x1="34.655" x2="63.695" y1="34.4" y2="34.4" gradientUnits="userSpaceOnUse"><stop stop-color="#32814f" offset="0"/><stop stop-color="#4ec777" offset=".46429"/><stop stop-color="#39945a" offset=".85038"/><stop stop-color="#47ba74" offset="1"/></linearGradient><linearGradient id="d" x1="63.935" x2="92.535" y1="40.56" y2="40.56" gradientUnits="userSpaceOnUse"><stop stop-color="#a69b3f" offset="0"/><stop stop-color="#dccc51" offset=".40385"/><stop stop-color="#a69b3f" offset=".85096"/><stop stop-color="#e8d95a" offset="1"/></linearGradient><linearGradient id="e" x1="19.175" x2="47.3" y1="70" y2="70" gradientUnits="userSpaceOnUse"><stop stop-color="#c64600" offset="0"/><stop stop-color="#f85700" offset=".51556"/><stop stop-color="#c64600" offset=".91111"/><stop stop-color="#ff5a00" offset="1"/></linearGradient><linearGradient id="f" x1="79.175" x2="103.18" y1="72" y2="72" gradientUnits="userSpaceOnUse"><stop stop-color="#744874" offset="0"/><stop stop-color="#a063a0" offset=".47917"/><stop stop-color="#744874" offset=".83854"/><stop stop-color="#c176c1" offset="1"/></linearGradient><linearGradient id="g" x1="61.175" x2="88.775" y1="96" y2="96" gradientUnits="userSpaceOnUse"><stop stop-color="#936a06" offset="0"/><stop stop-color="#c89107" offset=".39402"/><stop stop-color="#9c7106" offset=".88768"/><stop stop-color="#c08b07" offset="1"/></linearGradient><linearGradient id="h" x1="91.175" x2="118.5" y1="98" y2="98" gradientUnits="userSpaceOnUse"><stop stop-color="#4f3723" offset="0"/><stop stop-color="#946644" offset=".37976"/><stop stop-color="#4f3723" offset=".88305"/><stop stop-color="#8d623e" offset="1"/></linearGradient><linearGradient id="i" x1="17.175" x2="107.18" y1="120" y2="120" gradientUnits="userSpaceOnUse"><stop stop-color="#77767b" offset="0"/><stop stop-color="#a4a3ab" offset=".076885"/><stop stop-color="#9998a0" offset=".13333"/><stop stop-color="#97969d" offset=".84444"/><stop stop-color="#807f85" offset=".91111"/><stop stop-color="#abaab1" offset="1"/></linearGradient><linearGradient id="j" gradientUnits="userSpaceOnUse"><stop stop-color="#77767b" offset="0"/><stop stop-color="#a4a3ab" offset=".44488"/><stop stop-color="#807f85" offset=".87987"/><stop stop-color="#abaab1" offset="1"/></linearGradient><linearGradient id="k" x1="5.1752" x2="32.655" y1="96" y2="96" xlink:href="#j"/><linearGradient id="l" x1="95.945" x2="123.76" y1="40.56" y2="40.56" xlink:href="#j"/><linearGradient id="m" x1="49.175" x2="75.575" y1="72" y2="72" gradientUnits="userSpaceOnUse"><stop stop-color="#c01c28" offset="0"/><stop stop-color="#ff2334" offset=".45928"/><stop stop-color="#c01c28" offset=".89015"/><stop stop-color="#d9212c" offset="1"/></linearGradient><mask id="n"><g filter="url(#a)"><rect x="-12.8" y="-12.8" width="153.6" height="153.6" fill-opacity=".6"/></g></mask><clipPath id="o"><rect width="192" height="152"/></clipPath><mask id="p"><g filter="url(#a)"><rect x="-12.8" y="-12.8" width="153.6" height="153.6" fill-opacity=".6"/></g></mask><clipPath id="q"><rect width="192" height="152"/></clipPath><mask id="r"><g filter="url(#a)"><rect x="-12.8" y="-12.8" width="153.6" height="153.6" fill-opacity=".6"/></g></mask><clipPath id="s"><rect width="192" height="152"/></clipPath><mask id="t"><g filter="url(#a)"><rect x="-12.8" y="-12.8" width="153.6" height="153.6" fill-opacity=".6"/></g></mask><clipPath id="u"><rect width="192" height="152"/></clipPath><mask id="v"><g filter="url(#a)"><rect x="-12.8" y="-12.8" width="153.6" height="153.6" fill-opacity=".6"/></g></mask><clipPath id="w"><rect width="192" height="152"/></clipPath><mask id="x"><g filter="url(#a)"><rect x="-12.8" y="-12.8" width="153.6" height="153.6" fill-opacity=".6"/></g></mask><clipPath id="y"><rect width="192" height="152"/></clipPath><mask id="z"><g filter="url(#a)"><rect x="-12.8" y="-12.8" width="153.6" height="153.6" fill-opacity=".6"/></g></mask><clipPath id="ai"><rect width="192" height="152"/></clipPath><mask id="ah"><g filter="url(#a)"><rect x="-12.8" y="-12.8" width="153.6" height="153.6" fill-opacity=".6"/></g></mask><clipPath id="ag"><rect width="192" height="152"/></clipPath><mask id="af"><g filter="url(#a)"><rect x="-12.8" y="-12.8" width="153.6" height="153.6" fill-opacity=".6"/></g></mask><clipPath id="ae"><rect width="192" height="152"/></clipPath><mask id="ad"><g filter="url(#a)"><rect x="-12.8" y="-12.8" width="153.6" height="153.6" fill-opacity=".5"/></g></mask><clipPath id="ac"><rect width="192" height="152"/></clipPath><mask id="ab"><g filter="url(#a)"><rect x="-12.8" y="-12.8" width="153.6" height="153.6" fill-opacity=".5"/></g></mask><clipPath id="aa"><rect width="192" height="152"/></clipPath><path d="m20.773 19.879c8.0195 0 14.523 6.5 14.523 14.52 0 8.0195-6.5039 14.523-14.523 14.523-8.0156 0-14.52-6.5039-14.52-14.523 0-8.0195 6.5039-14.52 14.52-14.52z" fill="url(#b)"/><path d="m49.176 19.879c8.0195 0 14.52 6.5 14.52 14.52 0 8.0195-6.5 14.523-14.52 14.523s-14.52-6.5039-14.52-14.523c0-8.0195 6.5-14.52 14.52-14.52z" fill="url(#c)"/><path d="m77.574 19.879c8.0195 0 14.52 6.5 14.52 14.52 0 8.0195-6.5 14.523-14.52 14.523s-14.52-6.5039-14.52-14.523c0-8.0195 6.5-14.52 14.52-14.52z" fill="url(#d)"/><path d="m33.977 46.281c8.0195 0 14.52 6.5 14.52 14.52s-6.5 14.52-14.52 14.52c-8.0195 0-14.52-6.5-14.52-14.52s6.5-14.52 14.52-14.52z" fill="url(#e)"/><path d="m90.773 46.281c8.0195 0 14.523 6.5 14.523 14.52s-6.5039 14.52-14.523 14.52c-8.0156 0-14.52-6.5-14.52-14.52s6.5039-14.52 14.52-14.52z" fill="url(#f)"/><path d="m47.176 72.68c8.0195 0 14.52 6.5 14.52 14.52s-6.5 14.52-14.52 14.52-14.52-6.5-14.52-14.52 6.5-14.52 14.52-14.52z" fill="#165d3c"/><path d="m75.574 72.68c8.0195 0 14.52 6.5 14.52 14.52s-6.5 14.52-14.52 14.52-14.52-6.5-14.52-14.52 6.5-14.52 14.52-14.52z" fill="url(#g)"/><path d="m103.98 72.68c8.0195 0 14.52 6.5 14.52 14.52s-6.5 14.52-14.52 14.52c-8.0195 0-14.52-6.5-14.52-14.52s6.5-14.52 14.52-14.52z" fill="url(#h)"/><path d="m29.176 100.9h66c6.625 0 12 5.375 12 12v0.20312c0 6.625-5.375 12-12 12h-66c-6.6289 0-12-5.375-12-12v-0.20312c0-6.625 5.3711-12 12-12z" fill="url(#i)"/><path d="m18.375 72.68c8.0195 0 14.52 6.5 14.52 14.52s-6.5 14.52-14.52 14.52-14.52-6.5-14.52-14.52 6.5-14.52 14.52-14.52z" fill="url(#k)"/><path d="m109.48 19.879c8.0195 0 14.52 6.5 14.52 14.52 0 8.0195-6.5 14.523-14.52 14.523s-14.52-6.5039-14.52-14.523c0-8.0195 6.5-14.52 14.52-14.52z" fill="url(#l)"/><path d="m62.375 46.281c8.0195 0 14.52 6.5 14.52 14.52s-6.5 14.52-14.52 14.52-14.52-6.5-14.52-14.52 6.5-14.52 14.52-14.52z" fill="url(#m)"/><path d="m20.773 19.199c7.293 0 13.203 5.9102 13.203 13.199 0 7.293-5.9102 13.203-13.203 13.203-7.2891 0-13.199-5.9102-13.199-13.203 0-7.2891 5.9102-13.199 13.199-13.199z" fill="#62a0ea"/><path d="m49.176 19.199c7.2891 0 13.199 5.9102 13.199 13.199 0 7.293-5.9102 13.203-13.199 13.203-7.2891 0-13.199-5.9102-13.199-13.203 0-7.2891 5.9102-13.199 13.199-13.199z" fill="#57e389"/><path d="m77.574 19.199c7.293 0 13.199 5.9102 13.199 13.199 0 7.293-5.9062 13.203-13.199 13.203-7.2891 0-13.199-5.9102-13.199-13.203 0-7.2891 5.9102-13.199 13.199-13.199z" fill="#f8e45c"/><path d="m33.977 45.602c7.2891 0 13.199 5.9102 13.199 13.199 0 7.2891-5.9102 13.199-13.199 13.199-7.293 0-13.203-5.9102-13.203-13.199 0-7.2891 5.9102-13.199 13.203-13.199z" fill="#ff7800"/><path d="m62.375 45.602c7.2891 0 13.199 5.9102 13.199 13.199 0 7.2891-5.9102 13.199-13.199 13.199s-13.199-5.9102-13.199-13.199c0-7.2891 5.9102-13.199 13.199-13.199z" fill="#f66151"/><path d="m90.773 45.602c7.293 0 13.203 5.9102 13.203 13.199 0 7.2891-5.9102 13.199-13.203 13.199-7.2891 0-13.199-5.9102-13.199-13.199 0-7.2891 5.9102-13.199 13.199-13.199z" fill="#dc8add"/><path d="m47.176 72c7.2891 0 13.199 5.9102 13.199 13.199 0 7.2891-5.9102 13.199-13.199 13.199-7.2891 0-13.199-5.9102-13.199-13.199 0-7.2891 5.9102-13.199 13.199-13.199z" fill="#26a269"/><path d="m75.574 72c7.293 0 13.199 5.9102 13.199 13.199 0 7.2891-5.9062 13.199-13.199 13.199-7.2891 0-13.199-5.9102-13.199-13.199 0-7.2891 5.9102-13.199 13.199-13.199z" fill="#e5a50a"/><path d="m103.98 72c7.2891 0 13.199 5.9102 13.199 13.199 0 7.2891-5.9102 13.199-13.199 13.199-7.293 0-13.203-5.9102-13.203-13.199 0-7.2891 5.9102-13.199 13.203-13.199z" fill="#986a44"/><path d="m30.176 100h64c6.625 0 12 4.9258 12 11s-5.375 11-12 11h-64c-6.6289 0-12-4.9258-12-11s5.3711-11 12-11z" fill="#deddda"/><path d="m18.375 72c7.2891 0 13.199 5.9102 13.199 13.199 0 7.2891-5.9102 13.199-13.199 13.199s-13.199-5.9102-13.199-13.199c0-7.2891 5.9102-13.199 13.199-13.199z" fill="#deddda"/><g mask="url(#n)"><g transform="translate(-8 -16)" clip-path="url(#o)"><path d="m30.938 55.68-0.71484-1.043c-0.28125 0.13672-0.57812 0.22656-0.88672 0.28125-0.3125 0.050781-0.62109 0.078125-0.93359 0.078125s-0.62109-0.027344-0.93359-0.078125c-0.3125-0.054688-0.61328-0.14453-0.90234-0.28125-0.28125-0.14453-0.53516-0.32812-0.76172-0.54297-0.22656-0.23047-0.41406-0.47656-0.55859-0.74609-0.13672-0.28125-0.23438-0.57812-0.29688-0.88672-0.050781-0.3125-0.078125-0.625-0.078125-0.93359v-4.7461c0-0.30859 0.027344-0.62109 0.078125-0.93359 0.0625-0.30859 0.16016-0.59766 0.29688-0.86719 0.14453-0.28125 0.33203-0.53125 0.55859-0.75 0.22656-0.22656 0.48047-0.40625 0.76172-0.54297 0.28906-0.14453 0.58984-0.24219 0.90234-0.29688 0.3125-0.050781 0.62109-0.074219 0.93359-0.074219s0.62109 0.023438 0.93359 0.074219c0.30859 0.054687 0.60547 0.15234 0.88672 0.29688 0.28906 0.13672 0.54688 0.31641 0.77734 0.54297 0.22656 0.21875 0.41016 0.46875 0.54297 0.75 0.14453 0.26953 0.24609 0.55859 0.29688 0.86719 0.0625 0.3125 0.09375 0.625 0.09375 0.93359v4.7461c0 0.18359-0.011719 0.37891-0.03125 0.57422-0.011719 0.19531-0.042969 0.39063-0.09375 0.57422-0.050782 0.1875-0.12109 0.37109-0.20312 0.54688-0.082031 0.17578-0.17578 0.33984-0.28125 0.49609l1.3555 1.9609zm-2.5352-2.2578c0.14453 0 0.28906-0.007813 0.43359-0.03125 0.14844-0.027344 0.28516-0.082031 0.42187-0.15234l-1.8516-2.6758h1.7422l0.91797 1.3516c0.011719-0.070312 0.015625-0.14062 0.015625-0.20312v-0.18359-4.7461c0-0.23828-0.03125-0.47656-0.09375-0.71484-0.050781-0.23828-0.15625-0.44922-0.3125-0.63672-0.14453-0.1875-0.33594-0.32031-0.57422-0.40625-0.22656-0.089844-0.46094-0.13672-0.69922-0.13672-0.23828 0-0.47656 0.046875-0.71484 0.13672-0.23047 0.085937-0.42188 0.21875-0.57812 0.40625-0.14453 0.1875-0.24609 0.39844-0.30859 0.63672-0.050781 0.23828-0.078125 0.47656-0.078125 0.71484v4.7461c0 0.23828 0.027344 0.47656 0.078125 0.71484 0.0625 0.23828 0.16406 0.44922 0.30859 0.63672 0.15625 0.1875 0.34766 0.32812 0.57812 0.42188 0.23828 0.082031 0.47656 0.12109 0.71484 0.12109z" fill="#3d3846"/></g></g><g mask="url(#p)"><g transform="translate(-8 -16)" clip-path="url(#q)"><path d="m54.203 54.785-1.5547-11.434h1.6484l0.71484 7.793 0.93359-7.793h1.5273l0.92969 7.793 0.71875-7.793h1.6484l-1.5586 11.434h-1.5391l-0.96484-8.1953-0.96094 8.1953z" fill="#3d3846"/></g></g><g mask="url(#r)"><g transform="translate(-8 -16)" clip-path="url(#s)"><path d="m82.23 54.785v-11.434h6.6875v1.5742h-4.8359v3.125h3.8086v1.5703h-3.8086v3.5938h4.8359v1.5703z" fill="#3d3846"/></g></g><g mask="url(#t)"><g transform="translate(-8 -16)" clip-path="url(#u)"><path d="m38.086 81.184 2.832-11.43h2.1133l2.832 11.43h-1.9141l-0.54297-2.4727h-2.8633l-0.54297 2.4727zm4.9766-4.043-0.77734-3.5781c-0.050781-0.23828-0.10156-0.46875-0.15625-0.69922-0.050781-0.23828-0.10156-0.47266-0.15234-0.69922-0.054687 0.22656-0.10547 0.46094-0.15625 0.69922-0.050781 0.23047-0.10547 0.46094-0.15625 0.69922l-0.77734 3.5781z" fill="#fff"/></g></g><g mask="url(#v)"><g transform="translate(-8 -16)" clip-path="url(#w)"><path d="m70.375 81.309c-0.28906 0-0.58203-0.019532-0.87109-0.0625-0.28125-0.03125-0.55469-0.097656-0.82422-0.20312-0.26953-0.10156-0.52344-0.24219-0.76172-0.41797s-0.44141-0.38281-0.60547-0.62109c-0.15625-0.23828-0.27734-0.5-0.35938-0.77734-0.082031-0.28125-0.125-0.56641-0.125-0.85547v-0.125h1.8516v0.0625c0 0.20703 0.042968 0.41016 0.125 0.60547 0.09375 0.19531 0.22266 0.36328 0.38672 0.49609 0.16797 0.125 0.35547 0.21484 0.5625 0.26562 0.20703 0.042969 0.41406 0.0625 0.62109 0.0625s0.41406-0.019531 0.62109-0.0625c0.20703-0.050781 0.39453-0.14062 0.5625-0.26562 0.16406-0.13281 0.29297-0.30078 0.38672-0.49609 0.09375-0.20703 0.14063-0.41406 0.14063-0.62109 0-0.26953-0.074219-0.52344-0.21875-0.76172-0.13281-0.25-0.30859-0.45703-0.52734-0.625-0.21875-0.16406-0.45312-0.30078-0.69922-0.40234-0.25-0.11328-0.5-0.22266-0.74609-0.32812-0.25-0.10156-0.5-0.21875-0.74609-0.33984-0.24219-0.13672-0.46875-0.28516-0.6875-0.45313-0.20703-0.16406-0.40234-0.34766-0.58984-0.54297-0.1875-0.20703-0.34766-0.42578-0.48047-0.65234-0.125-0.23828-0.22266-0.48828-0.29688-0.75-0.074219-0.26953-0.10938-0.54297-0.10938-0.82422 0-0.27734 0.035156-0.55859 0.10938-0.83984 0.082031-0.27734 0.19531-0.53906 0.34375-0.77734 0.15234-0.23828 0.33984-0.44922 0.55859-0.63672 0.22656-0.1875 0.47266-0.33203 0.73047-0.43359 0.26953-0.11719 0.54297-0.19141 0.82422-0.23438 0.28906-0.042968 0.57422-0.0625 0.85547-0.0625s0.55859 0.019532 0.83984 0.0625c0.28906 0.042969 0.56641 0.11328 0.82422 0.21875 0.25781 0.10156 0.50391 0.24609 0.73047 0.43359 0.23047 0.17578 0.41406 0.38281 0.55859 0.62109 0.15625 0.23047 0.27344 0.48438 0.34375 0.76562 0.082031 0.27734 0.125 0.55859 0.125 0.83984v0.12109h-1.8516v-0.0625c0-0.19531-0.035156-0.38672-0.10937-0.57422-0.070313-0.19531-0.1875-0.36328-0.33984-0.49609-0.14453-0.13672-0.32422-0.23047-0.53125-0.28125-0.19531-0.050782-0.39453-0.078125-0.58984-0.078125s-0.39844 0.027343-0.60547 0.078125c-0.19922 0.050781-0.375 0.14453-0.53125 0.28125-0.14453 0.13281-0.25781 0.30078-0.33984 0.49609-0.074219 0.1875-0.10938 0.37891-0.10938 0.57422 0 0.26953 0.066407 0.53125 0.20313 0.78125 0.14453 0.23828 0.32031 0.44531 0.52734 0.62109 0.21875 0.16406 0.45312 0.30078 0.69922 0.40234 0.26172 0.10547 0.51562 0.21484 0.76172 0.32812 0.25 0.10156 0.49219 0.22266 0.73047 0.35547 0.23828 0.125 0.46875 0.26953 0.6875 0.4375 0.21484 0.16406 0.41406 0.34766 0.58984 0.54297 0.1875 0.19922 0.34766 0.41406 0.48047 0.65625 0.13672 0.23828 0.23828 0.49219 0.3125 0.76172 0.074219 0.25781 0.10938 0.52344 0.10938 0.79297 0 0.28906-0.042969 0.57812-0.125 0.87109-0.082031 0.27734-0.20703 0.54297-0.375 0.79297-0.15234 0.23828-0.35156 0.44531-0.58984 0.62109-0.22656 0.17578-0.47656 0.32031-0.74609 0.43359-0.26953 0.10547-0.55078 0.17969-0.83984 0.21875-0.28906 0.042968-0.58203 0.0625-0.87109 0.0625z" fill="#fff"/></g></g><g mask="url(#x)"><g transform="translate(-8 -16)" clip-path="url(#y)"><path d="m97.934 81.184h-2.625v-11.43h2.625c0.26953 0 0.53906 0.019532 0.80859 0.0625 0.27344 0.03125 0.53125 0.097656 0.78125 0.20312 0.24609 0.10156 0.48047 0.23047 0.69922 0.38672 0.22656 0.15625 0.43359 0.33203 0.62109 0.52734 0.1875 0.19922 0.34766 0.41016 0.48047 0.64062 0.14844 0.22656 0.26953 0.46484 0.375 0.71484s0.19141 0.50781 0.26562 0.77734c0.070312 0.25781 0.12891 0.52344 0.16797 0.79297 0.042969 0.25781 0.070313 0.52344 0.078126 0.79297 0.023437 0.26953 0.03125 0.53906 0.03125 0.80859 0 0.28125-0.007813 0.55469-0.03125 0.82422-0.007813 0.26953-0.035157 0.53906-0.078126 0.80859-0.039062 0.25781-0.097656 0.52344-0.16797 0.79297-0.074219 0.26172-0.16016 0.51562-0.26562 0.76172-0.10547 0.25-0.22656 0.48828-0.375 0.71484-0.13281 0.23047-0.29297 0.44141-0.48047 0.64062-0.1875 0.19531-0.39453 0.37109-0.62109 0.52734-0.21875 0.15625-0.45312 0.28516-0.69922 0.39062-0.25 0.10156-0.50781 0.17578-0.78125 0.21484-0.26953 0.03125-0.53906 0.046875-0.80859 0.046875zm-0.77734-1.5703h0.77734c0.17969 0 0.35547-0.015625 0.53125-0.046875 0.17578-0.039062 0.33984-0.10938 0.49609-0.20312 0.15625-0.10156 0.29687-0.21484 0.42187-0.33984 0.125-0.13672 0.23047-0.27734 0.32422-0.42188 0.09375-0.15234 0.17578-0.31641 0.25-0.48047 0.074219-0.16797 0.13672-0.33594 0.1875-0.51172 0.050781-0.17969 0.09375-0.35547 0.125-0.53125s0.054688-0.35156 0.078125-0.52734c0.019532-0.17578 0.03125-0.35156 0.03125-0.53125 0.007813-0.18359 0.015625-0.36719 0.015625-0.54297 0-0.1875-0.007812-0.36719-0.015625-0.54297 0-0.1875-0.011718-0.37109-0.03125-0.54688-0.023437-0.17578-0.046875-0.35156-0.078125-0.52734s-0.074219-0.35156-0.125-0.52734c-0.050781-0.17969-0.11328-0.34766-0.1875-0.51562-0.074219-0.16406-0.15625-0.32031-0.25-0.46484-0.09375-0.15625-0.19922-0.29687-0.32422-0.42187-0.125-0.13281-0.26562-0.24609-0.42187-0.33984-0.15625-0.10547-0.32031-0.17188-0.49609-0.20312-0.17578-0.042969-0.35156-0.0625-0.53125-0.0625h-0.77734z" fill="#fff"/></g></g><g mask="url(#z)"><g transform="translate(-8 -16)" clip-path="url(#ai)"><path d="m51.77 107.59v-1.5742l4.6797-8.2891h-4.6797v-1.5703h6.8125v1.5703l-4.6836 8.2891h4.6836v1.5742z" fill="#fff"/></g></g><g mask="url(#ah)"><g transform="translate(-8 -16)" clip-path="url(#ag)"><path d="m79.828 107.59 2.8594-5.7266-2.8594-5.707h2.0508l1.6953 3.7656 1.6953-3.7656h2.0547l-2.8633 5.7227 2.8633 5.7109h-2.0547l-1.6953-3.7656-1.6953 3.7656z" fill="#f6d32d"/></g></g><g mask="url(#af)"><g transform="translate(-8 -16)" clip-path="url(#ae)"><path d="m111.98 107.71c-0.3125 0-0.625-0.023437-0.93359-0.074219-0.3125-0.054687-0.60938-0.14844-0.88672-0.28125-0.26953-0.14453-0.51953-0.32812-0.74609-0.54297-0.21875-0.23047-0.39844-0.48438-0.54688-0.76562-0.14453-0.27734-0.24219-0.57031-0.29297-0.87109-0.054687-0.30859-0.078124-0.62109-0.078124-0.92969v-4.7461c0-0.30859 0.023437-0.61719 0.078124-0.91797 0.050782-0.30859 0.14844-0.60547 0.29297-0.88672 0.14844-0.27734 0.32812-0.52734 0.54688-0.74609 0.22656-0.22656 0.47656-0.41016 0.74609-0.54297 0.27734-0.14453 0.57422-0.24219 0.88672-0.29688 0.30859-0.050781 0.62109-0.078125 0.93359-0.078125 0.28906 0 0.57422 0.023437 0.85547 0.0625 0.28906 0.042968 0.57031 0.12109 0.83984 0.23438 0.26953 0.10547 0.51562 0.25 0.74609 0.4375 0.22656 0.17578 0.41797 0.38672 0.57422 0.63672 0.15625 0.23828 0.26953 0.49609 0.34375 0.77734 0.082031 0.27734 0.12109 0.5625 0.12109 0.85547v0.0625h-1.8477v-0.03125c0-0.20703-0.042969-0.41016-0.125-0.60938-0.074219-0.19531-0.19141-0.35938-0.35938-0.49609-0.15625-0.13281-0.33594-0.22656-0.54297-0.28125-0.19922-0.050781-0.39844-0.074219-0.60547-0.074219-0.23828 0-0.47266 0.042969-0.70312 0.13672-0.22656 0.09375-0.41406 0.23438-0.55859 0.42188-0.14453 0.1875-0.24219 0.39844-0.29297 0.63672-0.054687 0.22656-0.078125 0.46094-0.078125 0.69922v4.7461c0 0.23828 0.023438 0.47656 0.078125 0.71484 0.050781 0.22656 0.14844 0.43359 0.29297 0.62109 0.14453 0.1875 0.33203 0.32812 0.55859 0.41797 0.23047 0.09375 0.46484 0.14062 0.70312 0.14062 0.20703 0 0.40625-0.023438 0.60547-0.078125 0.20703-0.050782 0.38672-0.14453 0.54297-0.27734 0.16797-0.13672 0.28516-0.30078 0.35938-0.5 0.082031-0.19531 0.125-0.39844 0.125-0.60547v-0.03125h1.8477v0.0625c0 0.28906-0.039062 0.57422-0.12109 0.85547-0.074219 0.28125-0.1875 0.54297-0.34375 0.79297-0.15625 0.23828-0.34766 0.45312-0.57422 0.63672-0.23047 0.17578-0.47656 0.32422-0.74609 0.4375-0.26953 0.10156-0.55078 0.17578-0.83984 0.21875-0.28125 0.039062-0.56641 0.058593-0.85547 0.058593z" fill="#fff"/></g></g><g mask="url(#ad)"><g transform="translate(-8 -16)" clip-path="url(#ac)" fill="#3d3846"><path d="m22.641 104.64h7.4648c0.55078 0 1 0.42188 1 0.94531 0 0.52344-0.44922 0.94531-1 0.94531h-7.4648c-0.55469 0-1-0.42188-1-0.94531 0-0.52344 0.44531-0.94531 1-0.94531z"/><path d="m26.371 96.332c0.52344 0 0.94531 0.44922 0.94531 1v8.1992c0 0.55078-0.42188 1-0.94531 1-0.52344 0-0.94531-0.44922-0.94531-1v-8.1992c0-0.55078 0.42188-1 0.94531-1z"/><path d="m21.93 99.199 3.7344-3.7383c0.39063-0.38672 1.0078-0.40625 1.375-0.035157 0.37109 0.36719 0.35547 0.98438-0.035156 1.375l-3.7383 3.7383c-0.39062 0.39063-1.0039 0.40625-1.375 0.035157-0.37109-0.36719-0.35156-0.98438 0.039063-1.375z"/><path d="m30.789 99.199-3.7383-3.7383c-0.39062-0.38672-1.0039-0.40625-1.375-0.035157-0.37109 0.36719-0.35156 0.98438 0.039063 1.375l3.7344 3.7383c0.39062 0.39063 1.0078 0.40625 1.3789 0.035157 0.36719-0.36719 0.35156-0.98438-0.039063-1.375z"/></g></g><path d="m109.48 19.199c7.2891 0 13.199 5.9102 13.199 13.199 0 7.293-5.9102 13.203-13.199 13.203-7.2891 0-13.199-5.9102-13.199-13.203 0-7.2891 5.9102-13.199 13.199-13.199z" fill="#deddda"/><g mask="url(#ab)"><g transform="translate(-8 -16)" clip-path="url(#aa)"><path d="m116.68 43.961c-1.4141 0-2.5469 1.0352-3.3906 2.0547-0.42188 0.50781-0.76953 1.0352-1.0234 1.4961-0.125 0.23438-0.22656 0.44922-0.30078 0.64844-0.074219 0.20312-0.14062 0.37109-0.12891 0.64453 0.019531 0.48047 0.20312 0.79687 0.45312 1.2578 0.25391 0.46094 0.59766 0.98438 1.0156 1.4883 0.83203 1.0078 1.9414 2.0234 3.3359 2.0273l3.4727 0.007813c1.5117 0.003906 2.7539-1.2383 2.7539-2.75v-4.125c0-1.5078-1.2422-2.75-2.75-2.75zm0 1.375h3.4375c0.75391 0 1.375 0.625 1.375 1.375v4.125c0 0.75391-0.625 1.3789-1.375 1.375l-3.4727-0.007813c-0.63281 0-1.5703-0.66797-2.2812-1.5273-0.35547-0.42969-0.66016-0.89062-0.86719-1.2695-0.15625-0.29297-0.24219-0.58203-0.27344-0.65625 0.003907-0.027344 0.015626-0.066406 0.03125-0.10938 0.042969-0.11719 0.12109-0.28516 0.22266-0.47266 0.20312-0.375 0.50781-0.83984 0.87109-1.2734 0.72266-0.87109 1.6836-1.5586 2.332-1.5586zm0.007812 1.3867c-0.18359 0-0.35938 0.070313-0.48828 0.19922-0.26953 0.26953-0.26953 0.70703 0 0.97266l0.89062 0.89062-0.89062 0.88672c-0.26953 0.26953-0.26953 0.70703 0 0.97266 0.26953 0.26953 0.70312 0.26953 0.97266 0l0.89062-0.88672 0.88672 0.88672c0.26953 0.26953 0.70312 0.26953 0.97266 0 0.26953-0.26562 0.26953-0.70312 0-0.97266l-0.89062-0.88672 0.89062-0.89062c0.26953-0.26562 0.26953-0.70312 0-0.97266-0.12891-0.12891-0.30469-0.19922-0.48438-0.19922-0.18359 0-0.35938 0.070313-0.48828 0.19922l-0.88672 0.89062-0.89062-0.89062c-0.12891-0.12891-0.30469-0.19922-0.48438-0.19922z" fill="#3d3846"/></g></g></svg>
