<?xml version="1.0" encoding="UTF-8"?>
<svg id="a" clip-rule="evenodd" fill-rule="evenodd" stroke-linejoin="round" stroke-miterlimit="2" version="1.1" viewBox="0 0 96 96" xml:space="preserve" xmlns="http://www.w3.org/2000/svg"><path id="b" d="m96 2.88c0-1.59-1.29-2.88-2.88-2.88h-90.24c-1.59 0-2.88 1.29-2.88 2.88v90.24c0 1.59 1.29 2.88 2.88 2.88h90.24c1.59 0 2.88-1.29 2.88-2.88z" fill="#00415a"/><path id="c" d="m36.221 24.835 7.748-19.835h8.062l21.655 55.435c-4.124 2.666-9.085 4.375-14.274 5.346l-11.412-28.531-12.403 31.007c3.878 0.805 8.053 1.243 12.403 1.243 20.395 0 36.953-9.634 36.953-21.5 0-6.531-5.015-12.385-12.925-16.329-0.74 0.956-1.898 1.572-3.2 1.572-2.231 0-4.043-1.812-4.043-4.043 0-2.232 1.812-4.044 4.043-4.044 2.082 0 3.799 1.577 4.019 3.601 10.982 4.871 18.153 12.881 18.153 21.93 0 7.695-5.185 14.639-13.489 19.54-4.296 2.602-9.103 4.407-14.098 5.555-4.786 1.15-9.983 1.78-15.413 1.78s-10.627-0.63-15.413-1.78l-6.087 15.218h-16.125l8.114-20.773c-8.304-4.901-13.489-11.845-13.489-19.54 0-12.28 13.207-22.647 31.221-25.852zm49.404 66.165h-16.125l-5.066-12.664c4.94-1.211 9.7-3.033 14.068-5.571zm-50.587-63.138c-14.009 3.057-23.991 10.925-23.991 20.138 0 5.778 3.925 11.026 10.308 14.891z" fill="#fff"/></svg>
