<?xml version="1.0" encoding="UTF-8"?>
<svg version="1.1" viewBox="0 0 512 512" xmlns="http://www.w3.org/2000/svg" xmlns:xlink="http://www.w3.org/1999/xlink"><title>mimetypes/512/application-x-executable</title><defs><linearGradient id="d" x1="50%" x2="50%" y2="100%"><stop stop-color="#AC92FF" offset="0"/><stop stop-color="#804EE2" offset="1"/></linearGradient><path id="b" d="m368.15 420c0 19.882-16.118 36-36 36h-296c-19.882 0-36-16.118-36-36v-384c0-19.882 16.118-36 36-36h218l114 114v306z"/><filter id="f" x="-12.5%" y="-8.3%" width="125%" height="120.2%"><feOffset dx="0" dy="8" in="SourceAlpha" result="shadowOffsetOuter1"/><feGaussianBlur in="shadowOffsetOuter1" result="shadowBlurOuter1" stdDeviation="14"/><feColorMatrix in="shadowBlurOuter1" values="0 0 0 0 0.538881273   0 0 0 0 0.186318598   0 0 0 0 1  0 0 0 0.5 0"/></filter><linearGradient id="c" x1="50%" x2="7.9935%" y1="50%" y2="88.893%"><stop stop-color="#fff" stop-opacity=".1" offset="0"/><stop stop-color="#fff" stop-opacity=".3" offset="1"/></linearGradient><path id="a" d="m254.15 0 114 114h-78c-19.882 0-36-16.118-36-36v-78z"/><filter id="e" x="-12.3%" y="-8.8%" width="124.6%" height="124.6%"><feOffset dx="0" dy="4" in="SourceAlpha" result="shadowOffsetOuter1"/><feGaussianBlur in="shadowOffsetOuter1" result="shadowBlurOuter1" stdDeviation="4"/><feComposite in="shadowBlurOuter1" in2="SourceAlpha" operator="out" result="shadowBlurOuter1"/><feColorMatrix in="shadowBlurOuter1" values="0 0 0 0 0   0 0 0 0 0   0 0 0 0 0  0 0 0 0.05 0"/></filter></defs><g id="g" fill="none" fill-rule="evenodd"><g id="h" transform="translate(71.846 28)"><g id="i"><use fill="black" filter="url(#f)" xlink:href="#b"/><use fill="url(#d)" fill-rule="evenodd" xlink:href="#b"/></g><g id="j"><use fill="black" filter="url(#e)" xlink:href="#a"/><use fill="url(#c)" fill-rule="evenodd" xlink:href="#a"/></g></g><path id="k" d="m286.84 263.44c-6.0581-2.5405-10.327-8.465-10.327-15.439 0-6.9838 4.2788-12.908 10.337-15.439 0.80227-0.33942 1.296-1.1725 1.0903-2.0262-1.8308-7.5393-4.8136-14.626-8.7529-21.065-0.45256-0.74055-1.3885-0.98741-2.2011-0.64798-6.0787 2.4891-13.289 1.3268-18.226-3.6102s-6.0993-12.137-3.6102-18.216c0.32914-0.80227 0.092569-1.7382-0.64799-2.2011-6.449-3.9393-13.536-6.9221-21.075-8.7529-0.8537-0.20571-1.6868 0.28799-2.0262 1.0903-2.5302 6.0684-8.465 10.357-15.449 10.357-6.9736 0-12.898-4.2788-15.439-10.337-0.33942-0.80227-1.1725-1.296-2.0262-1.0903-7.5393 1.8411-14.636 4.8342-21.075 8.7838-0.74056 0.45256-0.96684 1.3783-0.64799 2.1702 2.4788 6.0787 1.3165 13.279-3.6205 18.216-4.9267 4.9267-12.116 6.0993-18.185 3.6308-0.80227-0.32914-1.7177-0.092569-2.1702 0.64798-3.9393 6.449-6.9221 13.546-8.7427 21.085-0.20571 0.84341 0.28799 1.6868 1.0903 2.0262 6.0376 2.5405 10.306 8.465 10.306 15.428 0 6.9633-4.2479 12.867-10.275 15.418-0.80227 0.33942-1.296 1.1725-1.0903 2.0262 1.8308 7.5393 4.8342 14.626 8.7838 21.075 0.45256 0.73027 1.368 0.96684 2.1702 0.64798 6.0684-2.4582 13.248-1.2754 18.164 3.6411 4.9165 4.9062 6.089 12.085 3.6411 18.144-0.31885 0.80227-0.082284 1.7177 0.64798 2.1702 6.449 3.9496 13.546 6.9324 21.085 8.7632 0.84341 0.20571 1.6868-0.28799 2.0262-1.0903 2.5508-6.0273 8.465-10.275 15.418-10.275 6.9633 0 12.867 4.2479 15.418 10.275 0.33942 0.80227 1.1725 1.296 2.0262 1.0903 7.5393-1.8308 14.636-4.8136 21.085-8.7632 0.74056-0.45256 0.96684-1.368 0.64799-2.1702-2.4685-6.0684-1.296-13.258 3.6308-18.185 4.9267-4.9267 12.127-6.089 18.195-3.6205 0.80227 0.32914 1.7177 0.092569 2.1702-0.64798 3.9496-6.449 6.9427-13.536 8.7735-21.085 0.18514-0.8537-0.30856-1.6868-1.1211-2.0262zm13.287 26.06c4.7467-1.216 9.7173-1.7173 14.741-1.4187 0.56533 0.032 0.992 0.50133 1.0453 1.0667 0.416 4.2453 3.2747 8.0213 7.5947 9.3547 4.3307 1.3333 8.8213-0.192 11.552-3.4667 0.36267-0.42667 0.97067-0.576 1.4613-0.288 4.3307 2.5707 8.1493 5.7813 11.392 9.4507 0.37333 0.416 0.352 1.0453-0.010666 1.4827-2.6987 3.296-3.3493 7.9787-1.2373 11.979s6.3573 6.1013 10.603 5.7173c0.56533-0.053333 1.0987 0.27733 1.2373 0.82133 1.2053 4.7467 1.7067 9.7067 1.3973 14.731-0.042667 0.56533-0.50133 0.992-1.056 1.0347-4.2347 0.416-8.0213 3.264-9.3547 7.5947-1.3333 4.32 0.192 8.8107 3.456 11.541 0.43733 0.36267 0.576 0.97067 0.288 1.4613-2.5707 4.3307-5.7813 8.1493-9.4613 11.392-0.42667 0.37333-1.0347 0.34133-1.472-0.010667-3.296-2.688-7.9787-3.3387-11.968-1.2267-3.9893 2.112-6.08 6.336-5.7173 10.571 0.053334 0.56533-0.26667 1.088-0.81067 1.2267-4.7467 1.2053-9.7067 1.7067-14.731 1.3973-0.56533-0.032-0.992-0.49067-1.0453-1.056-0.43733-4.224-3.2853-7.9787-7.5947-9.312-4.32-1.3333-8.7893 0.18133-11.52 3.424-0.36267 0.43733-0.97067 0.576-1.4613 0.288-4.3307-2.5813-8.1493-5.7813-11.392-9.4613-0.37333-0.42667-0.34133-1.0347 0.010666-1.472 2.6667-3.2853 3.3173-7.9573 1.2053-11.936-2.112-3.9893-6.336-6.0907-10.56-5.728-0.55467 0.053333-1.0773-0.26667-1.216-0.81067-1.216-4.7573-1.7173-9.7173-1.4187-14.741 0.032-0.56533 0.49067-0.992 1.056-1.0453 4.224-0.43733 7.9787-3.2853 9.312-7.5947 1.3333-4.32-0.18133-8.8-3.4347-11.531-0.42667-0.36267-0.576-0.97067-0.288-1.4613 2.56-4.32 5.7707-8.1493 9.44-11.392 0.42667-0.37333 1.0347-0.34133 1.472 0.010667 3.2853 2.688 7.968 3.3387 11.957 1.2267 4-2.112 6.0907-6.3573 5.7173-10.592-0.053333-0.55467 0.26667-1.088 0.81067-1.2267zm18.731 24.192c-12.299-3.7867-25.397 3.136-29.184 15.435-3.7867 12.299 3.136 25.397 15.435 29.184 12.299 3.7867 25.397-3.136 29.184-15.435 3.7867-12.299-3.136-25.397-15.435-29.184zm-102.86-101.7c19.851 0 35.999 16.148 35.999 35.999 0 19.851-16.148 35.999-35.999 35.999-19.851 0-35.999-16.148-35.999-35.999 0-19.851 16.148-35.999 35.999-35.999z" fill="#fff"/></g></svg>
