<?xml version="1.0" encoding="UTF-8"?>
<svg id="a" version="1.0" viewBox="0 0 128 128" xmlns="http://www.w3.org/2000/svg" xmlns:xlink="http://www.w3.org/1999/xlink"><g id="b"><path id="c" d="m39.341 6.1017h10.245v14.931h-10.245v-14.931z" fill="#642909" fill-rule="evenodd" stroke-miterlimit="8.7" stroke-opacity="0"/><path id="d" d="m31.157 13.931h9.1625v14.477h-9.1625v-14.477z" fill="#642909" fill-rule="evenodd" stroke-miterlimit="8.7" stroke-opacity="0"/><path id="e" d="m22.936 20.962h8.3998v15.654h-8.3998v-15.654z" fill="#642909" fill-rule="evenodd" stroke-miterlimit="8.7" stroke-opacity="0"/><path id="f" d="m13.927 36.046h8.7247v51.69h-8.7247v-51.69z" fill="#642909" fill-rule="evenodd" stroke-miterlimit="8.7" stroke-opacity="0"/><path id="g" d="m3.9349 58.027h10.201v7.2943h-10.201v-7.2943z" fill="#642909" fill-rule="evenodd" stroke-miterlimit="8.7" stroke-opacity="0"/><path id="h" d="m5.2021 72.75h10.728v7.6015h-10.728v-7.6015z" fill="#642909" fill-rule="evenodd" stroke-miterlimit="8.7" stroke-opacity="0"/><path id="i" d="m4.342 87.519h9.5847v37.139h-9.5847v-37.139z" fill="#414041" fill-rule="evenodd" stroke="#414041" stroke-miterlimit="8.7" stroke-width=".91249"/><path id="j" d="m23.18 102.5h44.417v7.3843h-44.417v-7.3843z" fill="#642909" fill-rule="evenodd" stroke-miterlimit="8.7" stroke-opacity="0"/><path id="k" d="m49.354 109.67h9.7822v14.986h-9.7822v-14.986z" fill="#642909" fill-rule="evenodd" stroke-miterlimit="8.7" stroke-opacity="0"/><path id="l" d="m40.63 57.982h9.2534v7.8187h-9.2534v-7.8187z" fill="#642909" fill-rule="evenodd" stroke-miterlimit="8.7" stroke-opacity="0"/><path id="m" d="m59.136 50.815h8.9891v7.3843h-8.9891v-7.3843z" fill="#642909" fill-rule="evenodd" stroke-miterlimit="8.7" stroke-opacity="0"/><path id="n" d="m76.85 58.199h9.5178v6.7327h-9.5178v-6.7327z" fill="#642909" fill-rule="evenodd" stroke-miterlimit="8.7" stroke-opacity="0"/><path id="o" d="m68.125 43.213h17.714v7.8187h-17.714v-7.8187z" fill="#642909" fill-rule="evenodd" stroke-miterlimit="8.7" stroke-opacity="0"/><path id="p" d="m86.104 36.046h17.449v7.3843h-17.449v-7.3843z" fill="#642909" fill-rule="evenodd" stroke-miterlimit="8.7" stroke-opacity="0"/><path id="q" d="m102.88 28.252h10.16v7.9863h-10.16v-7.9863z" fill="#642909" fill-rule="evenodd" stroke-miterlimit="8.7" stroke-opacity="0"/><path id="r" d="m62.594 21.06h56.273c1.9154 0 3.4573 1.2667 3.4573 2.8401v1.7041c0 1.5734-1.542 2.8401-3.4573 2.8401h-56.273c-1.9154 0-3.4573-1.2667-3.4573-2.8401v-1.7041c0-1.5734 1.542-2.8401 3.4573-2.8401z" fill="#642909" fill-rule="evenodd" stroke-miterlimit="8.7" stroke-opacity="0"/><path id="s" d="m49.354 28.662h8.9891v6.7327h-8.9891v-6.7327z" fill="#642909" fill-rule="evenodd" stroke="#642909" stroke-miterlimit="8.7" stroke-width=".91249"/><path id="t" d="m41.158 36.48h8.9891v6.5155h-8.9891v-6.5155z" fill="#642909" fill-rule="evenodd" stroke="#642909" stroke-miterlimit="8.7" stroke-width=".91249"/><path id="u" d="m39.216 5.9397c-0.50057 3.3907-2.627 6.256-7.9515 8.0878-0.9498 2.9806-2.328 5.7813-7.6725 6.9156-2.3506 5.3604-1.6106 11.857-9.3465 15.238" fill="none" stroke="#000" stroke-linejoin="miter" stroke-width=".08056px"/><path id="v" d="m32.241 13.807c0-0.063154 0.26075-0.2241 0.57944-0.35766 2.6239-1.0997 4.6317-2.8207 5.6318-4.8278 0.265-0.53181 0.54898-0.98532 0.63106-1.0078 0.10141-0.027769 0.14924 0.97645 0.14924 3.1336v3.1745h-3.4957c-2.187 0-3.4957-0.042993-3.4957-0.11483z" fill="#642909" fill-rule="evenodd" stroke="#642909" stroke-miterlimit="8.7" stroke-width="1.4484"/><path id="w" d="m25.249 20.648c0-0.058916 0.41986-0.3 0.93302-0.53575 1.9057-0.87545 3.5071-2.4453 4.2775-4.1932 0.56678-1.2858 0.63948-1.057 0.63948 2.0132v2.8228h-2.925c-1.6713 0-2.925-0.045916-2.925-0.10712v-2e-6z" fill="#642909" fill-rule="evenodd" stroke="#642909" stroke-miterlimit="8.7" stroke-width="1.4484"/><path id="x" d="m14.691 35.895c0-0.053609 0.30499-0.26043 0.67775-0.4596 0.37276-0.19918 1.0667-0.66958 1.5421-1.0453 2.2322-1.7644 3.3705-3.6848 4.6044-7.7678 0.30087-0.99559 0.62211-1.8307 0.71386-1.8558 0.12576-0.034433 0.16682 1.3415 0.16682 5.5902v5.6359h-3.8525c-2.1188 0-3.8525-0.043862-3.8525-0.097471z" fill="#642909" fill-rule="evenodd" stroke="#642909" stroke-miterlimit="8.7" stroke-width="1.4484"/><path id="y" d="m30.787 14.033c-0.89862 1.0663-1.403 3.8599-1.403 3.8599l-4.6876 2.5378c4.0502-2.2792-2.9408 0.78293-2.3963 1.3123l-1.8971 5.8235" fill="#642909" fill-rule="evenodd" stroke="#642909" stroke-linejoin="miter" stroke-width=".081473px"/><path id="z" d="m23.518 21.403c0-0.025523 0.0434-0.11302 0.096444-0.19444 0.092932-0.14265 0.12427-0.14259 0.86063 0.001526 0.4203 0.082258 0.78877 0.16976 0.81882 0.19444 0.030045 0.024681-0.35724 0.044876-0.86063 0.044876-0.50339 0-0.91526-0.020881-0.91526-0.046405v3e-6z" fill="#642909" fill-rule="evenodd" stroke="#642909" stroke-miterlimit="8.7" stroke-width="1.0136"/><path id="aa" d="m22.281 23.56c-0.051911-0.11113-0.090778-0.11708-0.21441-0.032787-0.08305 0.056618-4.3642 10.534-4.3928 10.511-0.10751-0.088317 4.7091-12.253 4.8771-12.331 0.12594-0.057898 0.16829-0.045379 0.16829 0.049741 0 0.069908 0.04493 0.12711 0.099847 0.12711 0.15207 0 0.10914 0.54957-0.09264 1.1858-0.18295 0.57682-0.32949 0.73802-0.4454 0.48991v-2e-6z" fill="#642909" fill-rule="evenodd" stroke="#642909" stroke-miterlimit="8.7" stroke-width="1.0136"/><path id="ab" d="m3.8865 58.026 9.5306-21.797" fill="none" stroke="#642909" stroke-linejoin="miter" stroke-width=".081473px"/><path id="ac" d="m4.2432 58.015c1.7592-4.0557 9.5061-21.665 9.5347-21.692 0.022751-0.020899-0.22656 0.11012-0.10457 0.12705l0.2218 0.030785v10.761 10.761h-4.9606c-3.9452 0-4.9557-0.01138-4.9365-0.055603l0.24516 0.067131z" fill="#642909" fill-rule="evenodd" stroke="#642909" stroke-miterlimit="8.7" stroke-width=".54969"/><path id="ad" d="m3.9948 65.233c13.821 4.7004-5.6678 5.4802 1.2996 15.08 12.588 4.8778-0.61883 6.7053-0.32491 7.2063" fill="none" stroke="#642909" stroke-linejoin="miter" stroke-width=".081473px"/><path id="ae" d="m5.4476 72.707c0-0.068119 0.75208-0.78986 1.65-1.5834 1.3443-1.1881 1.7714-1.6655 1.9555-2.1856 0.3828-1.0817-0.58575-1.9992-3.267-3.0949-0.54354-0.22211-0.98826-0.42101-0.98826-0.44201 0-0.020994 2.0469-0.038174 4.5487-0.038174h4.5487v3.6921 3.6921h-4.2238c-2.4818 0-4.2238-0.016592-4.2238-0.040231v4e-6z" fill="#642909" fill-rule="evenodd" stroke="#642909" stroke-miterlimit="8.7" stroke-width=".54969"/><path id="af" d="m4.9222 79.623c-0.67841-1.0695-1.0291-2.069-1.0837-3.0889-0.047381-0.88492 0.13552-1.6523 0.58438-2.4518 0.25286-0.45037 0.63682-0.98736 0.70599-0.98736 0.027398 0 0.047938 1.4487 0.047938 3.3808 0 2.1856-0.018822 3.3808-0.053238 3.3808-0.02928 0-0.1199-0.1051-0.20138-0.23354h2e-6z" fill="#642909" fill-rule="evenodd" stroke="#642909" stroke-miterlimit="8.7" stroke-width=".54969"/><path id="ag" d="m5.1902 87.453c0.012316-0.03036 0.5809-0.23627 1.2635-0.4576 2.0631-0.66893 3.0492-1.1204 3.7047-1.696 0.46265-0.40628 0.62222-0.69523 0.62269-1.1275 5.98e-4 -0.56244-0.27524-1.0072-0.98914-1.5949-0.70091-0.57702-1.5788-1.0724-3.0854-1.7412-0.45419-0.20161-0.8258-0.3842-0.8258-0.40577 0-0.02227 1.7313-0.03921 4.0072-0.03921h4.0072v3.5587 3.5587h-4.3637c-3.4491 0-4.359-0.01158-4.3413-0.05519h-2e-6z" fill="#642909" fill-rule="evenodd" stroke="#642909" stroke-miterlimit="8.7" stroke-width=".54969"/><path id="ah" d="m103.84 117.38c3.0594 0.08241 7.4406-2.3483 10.85-6.6164 7.0418-5.5777 5.5703-5.6561 7.788-7.4366l0.9319-3.2809c1.7645-5.4377 1.7515-9.9462 1.5975-14.381-0.70453-4.7239-0.58795-11.857-2.3963-13.342-3.346-2.7019-8.3152-8.1656-9.4521-7.1085" fill="none" stroke="#000" stroke-linejoin="miter" stroke-width=".081473px"/><path id="ai" d="m104.1 113.7v-3.6179h4.8222 4.8222v-3.3639-3.3639h4.1333c2.2733 0 4.1333 0.01517 4.1333 0.03371 0 0.01855-0.16198 0.17956-0.35994 0.35784-0.19797 0.17827-0.61818 0.64923-0.93378 1.0466-0.31562 0.39733-0.73474 0.90703-0.93138 1.1327-0.81594 0.93621-2.6775 2.6468-4.2866 3.9388-0.67174 0.5394-1.0522 0.90077-1.4895 1.4148-1.8835 2.214-3.8675 3.8389-6.0303 4.9389-1.1147 0.56696-2.483 0.99212-3.4288 1.0654l-0.45078 0.03494v-3.6179z" fill="#414041" fill-rule="evenodd" stroke="#414041" stroke-miterlimit="8.7" stroke-width=".67094"/><path id="aj" d="m122.61 87.332c0-11.793 0.01678-14.769 0.0832-14.751 0.1408 0.036337 0.4991 0.64929 0.6811 1.1652 0.46142 1.3079 0.69461 2.901 1.1002 7.5167 0.11231 1.2782 0.26276 2.7853 0.33432 3.3492 0.17524 1.3809 0.23994 4.3514 0.13727 6.302-0.12699 2.4124-0.38101 4.3184-0.83807 6.2883-0.32291 1.3917-1.3331 4.8579-1.4229 4.8825-0.05562 0.01522-0.07509-3.8095-0.07509-14.752z" fill="#414041" fill-rule="evenodd" stroke="#414041" stroke-miterlimit="8.7" stroke-width=".6757"/><path id="ak" d="m113.37 68.729c0.01966-4.0932-0.05322-3.7337 0.69554-3.4309 0.8967 0.36263 2.1228 1.3401 5.1084 4.0726 0.98579 0.90223 2.1048 1.9029 2.4866 2.2237 0.38568 0.32406 0.67439 0.60959 0.64964 0.6425-0.03127 0.041568-1.3737 0.059232-4.5009 0.059232h-4.4564l0.01712-3.5672z" fill="#414041" fill-rule="evenodd" stroke="#414041" stroke-miterlimit="8.7" stroke-width=".6757"/><path id="al" d="m103.65 38.976v-2.7312h4.0266c2.2146 0 4.2549-0.42529 4.1905-0.38101-0.06434 0.044274-0.61953 0.60137-0.89044 0.67392-0.95621 0.25604-2.9798 1.1372-3.8243 1.6652-1.0953 0.68489-2.115 1.6828-2.7596 2.7005-0.27996 0.44204-0.56162 0.80371-0.62591 0.80371-0.0709 0-0.11691-1.0749-0.11691-2.7312z" fill="#642909" fill-rule="evenodd" stroke="#642909" stroke-miterlimit="8.7" stroke-width="1.25"/><path id="am" d="m49.598 6.1971c2.6723 13.422 6.2465 16.1 10.142 14.958" fill="none" stroke="#642909" stroke-linejoin="miter" stroke-opacity=".94118" stroke-width=".081473px"/><path id="an" d="m50.439 24.306c0-3.2398-0.049939-3.7868-0.34573-3.7868-0.29912 0-0.34574-0.71704-0.34574-5.3173 0-4.0624 0.065518-5.2994 0.27761-5.2413 0.15268 0.04181 0.60369 1.1352 1.0022 2.4299 1.1785 3.8283 2.8365 7.1562 3.5085 7.0423 0.1462-0.024785 0.21503 0.063676 0.15295 0.19658-0.15719 0.33649 1.1699 1.3477 1.5293 1.1653 0.18332-0.093075 0.22612-0.066578 0.1201 0.07434-0.20895 0.27773 0.77345 0.59692 1.8372 0.59692h0.79171v3.3135 3.3135h-4.264-4.264v-3.7868z" fill="#642909" fill-rule="evenodd" stroke="#642909" stroke-miterlimit="8.7" stroke-opacity=".94118" stroke-width="2.3397"/></g><g id="ao" fill="#803f12" fill-rule="evenodd" stroke="#803f12" stroke-miterlimit="8.7"><path id="ap" d="m40.696 21.009h9.2759v14.993h-9.2759v-14.993z" stroke-width=".91382"/><path id="aq" d="m13.688 102.08h9.9629v7.7821h-9.9629v-7.7821z" stroke-width=".9584"/></g><g id="ar" fill="#bc6d2d" fill-rule="evenodd" stroke-miterlimit="8.7" stroke-width=".91382"><path id="as" d="m31.685 28.397h9.0109v7.6052h-9.0109v-7.6052z" stroke="#bc6d2d"/><path id="at" d="m31.95 50.343h8.4808v23.033h-8.4808v-23.033z" stroke="#bc6d2d"/><path id="au" d="m22.41 57.731h9.5409v7.6052h-9.5409v-7.6052z" stroke="#bc6d2d"/><path id="av" d="m76.475 35.568h9.2759v7.8225h-9.2759v-7.8225z" stroke="#bc6d2d"/><path id="aw" d="m33.011 117.16h8.4808v7.1706h-8.4808v-7.1706z" stroke="#c1742d"/></g><g id="ax" fill="#7f3e13" fill-rule="evenodd" stroke="#7f3e13" stroke-miterlimit="8.7" stroke-width=".91382"><path id="ay" d="m22.94 36.002h8.7458v7.3879h-8.7458v-7.3879z"/><path id="az" d="m40.961 109.88h8.2158v6.9533h-8.2158v-6.9533z"/></g><g id="ba" fill="#8e4a19" fill-rule="evenodd" stroke="#8e4a19" stroke-miterlimit="8.7" stroke-width=".91382"><path id="bb" d="m13.929 110.32h8.7458v14.124h-8.7458v-14.124z"/><path id="bc" d="m21.88 43.173h10.071v7.8225h-10.071v-7.8225z"/></g><g id="bd"><path id="be" d="m13.399 87.283h9.2759v14.124h-9.2759v-14.124z" fill="#6e310c" fill-rule="evenodd" stroke="#6e310c" stroke-miterlimit="8.7" stroke-width=".91382"/></g><g id="bf"><path id="bg" d="m22.688 116.85h9.8204v7.5825h-9.8204v-7.5825z" fill="#c1742d" fill-rule="evenodd" stroke="#c1742d" stroke-miterlimit="8.7" stroke-width=".93886"/></g><g id="bh"><path id="bi" d="m41.491 117.49h7.4207v6.736h-7.4207v-6.736z" fill="#9a531f" fill-opacity=".94118" fill-rule="evenodd" stroke="#9a531f" stroke-miterlimit="8.7" stroke-opacity=".94118" stroke-width=".91382"/></g><g id="bj" fill="#ac6226" fill-rule="evenodd" stroke="#ac6226" stroke-miterlimit="8.7"><path id="bk" d="m22.972 109.69h9.7416v6.6832h-9.7416v-6.6832z" stroke-width=".97212"/><path id="bl" d="m59.054 94.729h10.564v8.444h-10.564v-8.444z" stroke-width="1.0426"/><path id="bm" d="m94.762 28.397h9.0109v7.3879h-9.0109v-7.3879z" stroke-width=".91382"/></g><g id="bn" fill="#a55c23" fill-rule="evenodd" stroke="#a55c23" stroke-miterlimit="8.7" stroke-width=".91382"><path id="bo" d="m33.011 109.66h7.9508v7.3879h-7.9508v-7.3879z"/><path id="bp" d="m31.155 36.437h9.5409v6.736h-9.5409v-6.736z"/></g><g id="bq" fill="#c77631" fill-rule="evenodd" stroke="#c77631" stroke-miterlimit="8.7" stroke-width=".91382"><path id="br" d="m22.41 50.995h9.2759v6.5187h-9.2759v-6.5187z"/><path id="bs" d="m49.707 94.888h9.0109v7.6052h-9.0109v-7.6052z"/></g><g id="bt"><path id="bu" d="m22.94 65.771h8.2158v6.9533h-8.2158v-6.9533z" fill="#cb7c39" fill-rule="evenodd" stroke="#cb7c39" stroke-miterlimit="8.7" stroke-width=".91382"/></g><g id="bv" fill="#d28a4a" fill-rule="evenodd" stroke="#d28a4a" stroke-miterlimit="8.7" stroke-width=".91382"><path id="bw" d="m22.675 73.376h9.2759v6.736h-9.2759v-6.736z"/><path id="bx" d="m31.95 95.105h16.962v7.3879h-16.962v-7.3879z"/><path id="by" d="m49.972 87.5h9.0109v7.1706h-9.0109v-7.1706z"/></g><g id="bz" fill="#dfaa6e" fill-rule="evenodd" stroke="#dfaa6e" stroke-miterlimit="8.7" stroke-width=".91382"><path id="ca" d="m23.205 80.764h9.0109v6.9533h-9.0109v-6.9533z"/><path id="cb" d="m41.491 80.547h7.9508v6.736h-7.9508v-6.736z"/><path id="cc" d="m32.216 87.717h16.962v6.9533h-16.962v-6.9533z"/><path id="cd" d="m41.226 42.956h8.7458v7.3879h-8.7458v-7.3879z"/><path id="ce" d="m76.475 28.397h9.806v7.3879h-9.806v-7.3879z"/><path id="cf" d="m58.453 35.568h9.8059v7.8225h-9.8059v-7.8225z"/></g><g id="cg" fill="#d99a5c" fill-rule="evenodd" stroke="#d99a5c" stroke-miterlimit="8.7"><path id="ch" d="m22.94 87.935h8.7458v6.736h-8.7458v-6.736z" stroke-width=".91382"/><path id="ci" d="m32.122 73.734h17.413v6.2372h-17.413v-6.2372z" stroke-width="1.2247"/><path id="cj" d="m49.442 80.547h9.0109v6.5187h-9.0109v-6.5187z" stroke-width=".91382"/></g><g id="ck" fill="#a85e25" fill-rule="evenodd" stroke="#a85e25" stroke-miterlimit="8.7"><path id="cl" d="m22.41 95.105h9.0109v7.1706h-9.0109v-7.1706z" stroke-width=".91382"/><path id="cm" d="m68.72 88.095h7.8246v14.455h-7.8246v-14.455z" stroke-width="1.2681"/><path id="cn" d="m40.696 50.995h9.2759v6.9533h-9.2759v-6.9533z" stroke-width=".91382"/></g><g id="co"><path id="cp" d="m32.216 43.607h8.7458v6.5187h-8.7458v-6.5187z" fill="#ce8240" fill-rule="evenodd" stroke="#ce8240" stroke-miterlimit="8.7" stroke-width=".91382"/></g><g id="cq" fill="#f2dcaf" fill-rule="evenodd" stroke="#f2dcaf" stroke-miterlimit="8.7" stroke-width=".91382"><path id="cr" d="m32.216 80.764h8.7458v6.9533h-8.7458v-6.9533z"/><path id="cs" d="m50.237 35.785h8.2158v7.3879h-8.2158v-7.3879z"/><path id="ct" d="m58.718 28.614h9.2759v6.3014h-9.2759v-6.3014z"/></g><g id="cu"><path id="cv" d="m67.729 28.614h9.806v7.1706h-9.806v-7.1706z" fill="#e9c38f" fill-rule="evenodd" stroke="#e9c38f" stroke-miterlimit="8.7" stroke-width=".91382"/></g><g id="cw"><path id="cx" d="m86.546 28.18h8.4808v7.8225h-8.4808v-7.8225z" fill="#ce8240" fill-rule="evenodd" stroke="#ce8240" stroke-miterlimit="8.7" stroke-width=".91382"/></g><g id="cy" fill="#d69455" fill-rule="evenodd" stroke="#d69455" stroke-miterlimit="8.7" stroke-width=".91382"><path id="cz" d="m67.729 36.437h9.0109v7.1706h-9.0109v-7.1706z"/><path id="da" d="m49.972 43.825h9.0109v6.3014h-9.0109v-6.3014z"/></g><g id="db"><path id="dc" d="m60.043 44.042h7.6857v6.3014h-7.6857v-6.3014z" fill="#954f1d" fill-rule="evenodd" stroke="#954f1d" stroke-miterlimit="8.7" stroke-width=".91382"/></g><g id="dd"><path id="de" d="m49.972 50.778h9.0109v7.1706h-9.0109v-7.1706z" fill="#86451b" fill-rule="evenodd" stroke="#86451b" stroke-miterlimit="8.7" stroke-width=".91382"/></g><g id="df" fill="#dfae85" fill-rule="evenodd" stroke="#dfae85" stroke-miterlimit="8.7" stroke-width=".91382"><path id="dg" d="m40.696 65.771h9.0109v7.3879h-9.0109v-7.3879z"/><path id="dh" d="m49.972 58.818h8.7458v6.3014h-8.7458v-6.3014z"/></g><g id="di" fill="#ebebea" fill-rule="evenodd" stroke="#ebebea" stroke-miterlimit="8.7"><path id="dj" d="m50.008 72.754h8.9386v7.5459h-8.9386v-7.5459z" stroke-width=".97924"/><path id="dk" d="m85.751 94.671h27.298v7.1706h-27.298v-7.1706z" stroke-width=".91382"/><path id="dl" d="m104.04 87.5h9.0109v7.6052h-9.0109v-7.6052z" stroke-width=".91382"/></g><g id="dm"><path id="dn" d="m59.248 58.383h8.4808v6.9533h-8.4808v-6.9533z" fill="#b47b50" fill-rule="evenodd" stroke="#b47b50" stroke-miterlimit="8.7" stroke-width=".91382"/></g><g id="do"><path id="dp" d="m58.983 80.33h8.7458v14.558h-8.7458v-14.558z" fill="#b4682c" fill-rule="evenodd" stroke="#b4682c" stroke-miterlimit="8.7" stroke-width=".91382"/></g><g id="dq"><path id="dr" d="m59.401 73.402h8.1959v6.5155h-8.1959v-6.5155z" fill="#414041" fill-rule="evenodd" stroke="#414041" stroke-miterlimit="8.7" stroke-width=".91249"/><path id="ds" d="m85.848 65.317h26.949v7.2084h-26.949v-7.2084z" fill="#414041" fill-rule="evenodd" stroke="#414041" stroke-miterlimit="8.7" stroke-width=".92899"/><path id="dt" d="m113.86 72.75h8.1959v30.189h-8.1959v-30.189z" fill="#414041" fill-rule="evenodd" stroke="#414041" stroke-miterlimit="8.7" stroke-width=".91249"/><path id="du" d="m103.29 102.07h10.047v7.6015h-10.047v-7.6015z" fill="#414041" fill-rule="evenodd" stroke="#414041" stroke-miterlimit="8.7" stroke-width=".91249"/><path id="dv" d="m68.662 110.11h34.884v7.1566h-34.884v-7.1566z" fill="#414041" fill-rule="evenodd" stroke="#414041" stroke-miterlimit="8.7" stroke-width=".92577"/><path id="dw" d="m122.01 28.343c-4.2812 1.1186-7.9605 2.9295-8.9891 7.7889-5.242 1.0095-8.6299 3.3076-9.6048 7.2831-6.302 1.8861-15.411-0.18123-17.609 7.4854-19.565 1.9691-11.337 6.9236 0.49255 7.2831" fill="none" stroke="#242909" stroke-linejoin="miter" stroke-width=".081473px"/><path id="dx" d="m67.955 58.184 8.9891 0.10115" fill="none" stroke="#642909" stroke-linejoin="miter" stroke-width=".081473px"/><path id="dy" d="m68.714 58.091-0.52334-0.038718v-3.484-3.484h7.1666c3.9416 0 9.1884 0.60638 9.124 0.65324-0.06434 0.046875-2.8286-0.37772-3.6075-0.24928-1.7074 0.28157-3.9785 0.87192-5.0272 1.3068-1.3783 0.57155-2.0457 1.3371-1.8174 2.0845 0.34946 1.1438 3.5377 2.3945 7.5607 2.966 0.76635 0.10887 1.4267 0.22532 1.4674 0.25877 0.07883 0.064747-13.458 0.05225-14.343-0.013244v-3e-6z" fill="#642909" fill-rule="evenodd" stroke="#642909" stroke-miterlimit="8.7" stroke-width="1.25"/><path id="dz" d="m85.922 46.487-1e-5 -3.1105 8.3922 0.026691c4.6157 0.014678 6.9572 0.28245 6.92 0.31302-0.21898 0.17988-1.0186 0.2821-4.907 0.72268-1.0159 0.1151-2.4181 0.32118-3.116 0.45794-3.4195 0.67008-5.5143 1.9564-6.7082 4.119-0.17659 0.3199-0.37955 0.58164-0.45102 0.58164-0.08836 0-0.12995-0.99557-0.12997-3.1105z" fill="#642909" fill-rule="evenodd" stroke="#642909" stroke-miterlimit="8.7" stroke-width="1.25"/><path id="ea" d="m113.14 31.491v-3.0346h3.9609c2.1785 0 3.4697 0.17094 3.4414 0.19185s-0.05413 0.052986-0.6298 0.25931c-2.9188 1.0461-4.7193 2.383-5.8844 4.3693-0.26611 0.45365-0.5142 0.92022-0.55132 1.0368-0.03712 0.11661-0.1281 0.21202-0.20216 0.21202-0.09448 0-0.13467-0.9058-0.13467-3.0346z" fill="#642909" fill-rule="evenodd" stroke="#642909" stroke-miterlimit="8.7" stroke-width="1.25"/><path id="eb" d="m68.323 117.41c-6.3025 0.58421-7.9615 3.8092-9.4171 7.1499" fill="#523526" fill-rule="evenodd" stroke="#000" stroke-linejoin="miter" stroke-width=".081473px"/><path id="ec" d="m59.247 116.49v-6.5052h3.9238c3.3927 0 3.9238 0.02379 3.9238 0.17581 0 0.1228 0.15062 0.17582 0.4994 0.17582h0.49939v3.5011 3.5011l-0.89177 0.13615c-3.2628 0.49813-5.5103 1.9114-7.0551 4.4363-0.36484 0.59631-0.71648 1.0842-0.78142 1.0842-0.064931 0-0.11807-2.9273-0.11807-6.5052z" fill="#523526" fill-rule="evenodd" stroke="#523526" stroke-miterlimit="8.7" stroke-width="1.4484"/></g><g id="ed"><path id="ee" d="m68.259 57.949h9.0109v7.6052h-9.0109v-7.6052z" fill="#804017" fill-rule="evenodd" stroke="#804017" stroke-miterlimit="8.7" stroke-width=".91382"/></g><g id="ef"><path id="eg" d="m67.464 65.771h9.5409v7.3879h-9.5409v-7.3879z" fill="#936a48" fill-rule="evenodd" stroke="#936a48" stroke-miterlimit="8.7" stroke-width=".91382"/></g><g id="eh"><path id="ei" d="m67.994 73.811h9.5409v13.907h-9.5409v-13.907z" fill="#c27739" fill-rule="evenodd" stroke="#c27739" stroke-miterlimit="8.7" stroke-width=".91382"/></g><g id="ej" fill="#727476" fill-rule="evenodd" stroke="#727476" stroke-miterlimit="8.7" stroke-width=".91382"><path id="ek" d="m67.729 103.36h8.7458v6.5187h-8.7458v-6.5187z"/><path id="el" d="m86.016 80.764h9.0109v6.736h-9.0109v-6.736z"/></g><g id="em"><path id="en" d="m77.563 64.925h7.8947v7.5592h-7.8947v-7.5592z" fill="#a7602a" fill-rule="evenodd" stroke="#a7602a" stroke-miterlimit="8.7" stroke-width=".96463"/></g><g id="eo"><path id="ep" d="m77.005 72.942h8.7458v7.3879h-8.7458v-7.3879z" fill="#cc914e" fill-rule="evenodd" stroke="#cc914e" stroke-miterlimit="8.7" stroke-width=".91382"/></g><g id="eq"><path id="er" d="m77.535 80.33h8.2158v7.8225h-8.2158v-7.8225z" fill="#c18c57" fill-rule="evenodd" stroke="#c18c57" stroke-miterlimit="8.7" stroke-width=".91382"/></g><g id="es"><path id="et" d="m77.005 88.804h8.4808v6.0841h-8.4808v-6.0841z" fill="#c1a080" fill-rule="evenodd" stroke="#c1a080" stroke-miterlimit="8.7" stroke-width=".91382"/></g><g id="eu" fill="#c5c5c1" fill-rule="evenodd" stroke="#c5c5c1" stroke-miterlimit="8.7" stroke-width=".91382"><path id="ev" d="m85.751 88.152h9.5409v6.9533h-9.5409v-6.9533z"/><path id="ew" d="m104.57 72.942h8.4808v7.3879h-8.4808v-7.3879z"/></g><g id="ex"><path id="ey" d="m85.751 73.159h9.0109v7.1706h-9.0109v-7.1706z" fill="#e6d2ba" fill-rule="evenodd" stroke="#e6d2ba" stroke-miterlimit="8.7" stroke-width=".91382"/></g><g id="ez"><path id="fa" d="m77.005 95.54h8.7458v7.1706h-8.7458v-7.1706z" fill="#c5b39f" fill-rule="evenodd" stroke="#c5b39f" stroke-miterlimit="8.7" stroke-width=".91382"/></g><g id="fb"><path id="fc" d="m77.005 103.58h8.7458v6.0841h-8.7458v-6.0841z" fill="#a0a09e" fill-rule="evenodd" stroke="#a0a09e" stroke-miterlimit="8.7" stroke-width=".91382"/></g><g id="fd"><path id="fe" d="m86.281 102.49h8.4808v6.9533h-8.4808v-6.9533z" fill="#aaaaa6" fill-rule="evenodd" stroke="#aaaaa6" stroke-miterlimit="8.7" stroke-width=".91382"/></g><g id="ff"><path id="fg" d="m94.292 102.54h8.094v7.5054h-8.094v-7.5054z" fill="#a4a5a2" fill-rule="evenodd" stroke="#a4a5a2" stroke-miterlimit="8.7" stroke-width="1.0241"/></g><g id="fh"><path id="fi" d="m95.557 80.547h8.4808v7.1706h-8.4808v-7.1706z" fill="#171614" fill-rule="evenodd" stroke="#171614" stroke-miterlimit="8.7" stroke-width=".91382"/></g><g id="fj"><path id="fk" d="m95.557 88.152h7.6857v6.3014h-7.6857v-6.3014z" fill="#a0a09e" fill-rule="evenodd" stroke="#a0a09e" stroke-miterlimit="8.7" stroke-width=".91382"/></g></svg>
