<?xml version="1.0" encoding="UTF-8"?>
<svg viewBox="0 0 128 128" xmlns="http://www.w3.org/2000/svg" xmlns:xlink="http://www.w3.org/1999/xlink"><defs><rect id="a" x="1" y="1" width="84" height="104"/><filter id="b" x="-8.3%" y="-4.8%" width="116.7%" height="113.5%"><feOffset dy="2" in="SourceAlpha" result="shadowOffsetOuter1"/><feGaussianBlur in="shadowOffsetOuter1" result="shadowBlurOuter1" stdDeviation="2"/><feColorMatrix in="shadowBlurOuter1" values="0 0 0 0 0   0 0 0 0 0   0 0 0 0 0  0 0 0 0.2 0"/></filter></defs><g fill="none" fill-rule="evenodd"><g transform="translate(21 11)"><use fill="#000" filter="url(#b)" xlink:href="#a"/><use fill="#F9FBFB" xlink:href="#a"/><path d="m86 0h-86v106h86v-106zm-1 1v104h-84v-104h84z" fill="#000" fill-opacity=".2" fill-rule="nonzero"/></g><path d="m79.5 72.5v8c0 0.27703-0.11106 0.52728-0.29188 0.7081-0.18082 0.18082-0.43107 0.29188-0.7081 0.29188h-8l1e-4 -9h8.9999z" fill="#9C80E0" stroke="#5D4C86"/><rect x="58.5" y="72.5" width="9" height="9" fill="#D96464" stroke="#823C3C"/><path d="m55.5 72.5v9h-8.0001c-0.27697 0-0.52718-0.11108-0.708-0.2919-0.18081-0.18081-0.29189-0.43102-0.29189-0.70799v-8.0001h9z" fill="#DD953E" stroke="#845925"/><rect x="46.5" y="60.5" width="9" height="9" fill="#E28D54" opacity=".798" stroke="#845925"/><rect x="58.5" y="60.5" width="9" height="9" fill="#D96464" opacity=".794" stroke="#823C3C"/><rect x="70.5" y="60.5" width="9" height="9" fill="#9C80E0" opacity=".801" stroke="#5D4C86"/><path d="m78.5 48.5c0.27703 0 0.52726 0.11108 0.70809 0.29189 0.18083 0.18082 0.29191 0.43104 0.29191 0.708v8.0001h-9v-9z" fill="#9C80E0" opacity=".598" stroke="#5D4C86"/><rect x="58.5" y="48.5" width="9" height="9" fill="#D96464" opacity=".596" stroke="#823C3C"/><path d="m55.5 48.5v9h-9v-8.0001c0-0.27695 0.1111-0.52716 0.29191-0.70797s0.43102-0.29191 0.70797-0.29191h8.0001z" fill="#E28D54" opacity=".599" stroke="#845925"/></g></svg>
