<?xml version="1.0" encoding="UTF-8"?>
<svg version="1.2" viewBox="0 0 512 512" xmlns="http://www.w3.org/2000/svg"><defs><linearGradient id="a" x2="1" gradientTransform="matrix(0,512,-512,0,512,0)" gradientUnits="userSpaceOnUse"><stop stop-color="#643579" offset="0"/><stop offset="1"/></linearGradient></defs><style>.s0 { fill: url(#a);stroke: #000000;stroke-miterlimit:10 } 
		.s1 { fill: #ffffff;stroke: #000000;stroke-miterlimit:100 }</style><g id="b"><path id="c" class="s0" d="m512 512h-512v-512h512z" fill-rule="evenodd"/></g><path class="s1" d="m218.97 462.71c40.23-3.18 76.24-22.87 101.54-55.53 16.41-21.18 27.87-48.71 31.72-76.17 2.06-14.73 2.06-31.92 0-45.77-2.74-18.28-9.12-36.42-18.08-51.14-15.13-24.97-35.73-42.13-60.29-50.2-9.05-3.01-16.18-4.36-25.4-4.86-44.66-2.5-83 28.81-90.6 73.94-2.19 13-1.72 26.62 1.35 38.1 2.81 10.67 8.28 21.18 14.93 28.78 9.8 11.15 24.8 18.44 36.72 17.8 6.08-0.34 11.12-1.82 19.22-5.67 9.7-4.63 15.57-9.97 19.56-17.81 3.41-6.68 4.29-10.8 4.02-19.15-0.2-6.11-0.64-8.85-2.3-13.78-3.51-10.57-9.73-17.6-18.1-20.44-2.33-0.81-3.18-0.91-7.2-0.91-3.88 0-4.93 0.1-6.92 0.78-2.97 0.98-5.47 2.36-8.21 4.53l-2.13 1.68 0.24-1.45c0.54-3.81 1.55-8.88 2.19-10.81 0.95-2.9 2.64-5.33 6.05-8.78 7.3-7.33 16.05-10.5 27.7-10 12.6 0.58 25.74 6.35 35.53 15.71 10.1 9.63 17.67 24.29 20.54 39.76 1.42 7.63 1.79 19.96 0.85 28-4.63 39.52-29.97 71.27-65.81 82.45-18.24 5.68-38.67 5.44-58.09-0.67-38.38-12.1-68.03-44.46-80.6-88-5.88-20.4-7.57-43.03-4.9-65.86 2.23-19.16 7.84-38.41 16.32-55.91 8.1-16.68 17.02-29.52 29.25-42.02 18.54-18.95 40.2-31.92 65.02-38.98 45.03-12.77 95.53-2.84 136.3 26.75 14.22 10.34 27.97 23.95 38.78 38.44 19.93 26.76 33.68 59.86 39.55 95.19 2.1 12.64 2.91 21.59 3.14 35.3 0.41 22.6-1.04 36.01-6.82 62.83-1.62 7.53-0.81 14.62 2.4 21.01 4.15 8.27 11.55 13.58 20.1 14.46 11.08 1.11 21.68-6.12 25.77-17.57 2.23-6.21 5.81-24.39 7.6-38.51 1.42-11.31 2.03-19.79 2.26-32.09 0.88-42.39-7.23-84.68-23.57-122.78-2.54-5.91-9.26-19.63-12.3-25-19.93-35.57-45.67-63.74-77.49-84.78-24.76-16.38-51.41-27.26-79.55-32.4-10.6-1.92-20.03-2.87-31.58-3.14-37.49-0.84-74.11 9.33-106.4 29.53-13.11 8.2-23.75 16.75-35.67 28.64-10.64 10.57-17.5 18.85-25.54 30.74-32.43 47.86-46.17 108.56-37.56 166.02 7.36 49.35 31.48 93.8 66.68 122.99 29.05 24.08 65.16 37.36 100.83 37.09 2.97-0.04 6.99-0.21 8.95-0.34z"/></svg>
