<?xml version="1.0" encoding="UTF-8"?>
<svg id="b" version="1.1" viewBox="0 0 128 128" xmlns="http://www.w3.org/2000/svg"><linearGradient id="a" x1="8" x2="120" y1="117" y2="117" gradientUnits="userSpaceOnUse"><stop id="c" stop-color="#77767b" offset="0"/><stop id="d" stop-color="#c0bfbc" offset=".035714"/><stop id="e" stop-color="#9a9996" offset=".071365"/><stop id="f" stop-color="#9a9996" offset=".92857"/><stop id="g" stop-color="#c0bfbc" offset=".96429"/><stop id="h" stop-color="#77767b" offset="1"/></linearGradient><path id="i" d="m16 41h96c4.418 0 8 3.582 8 8v60c0 4.418-3.582 8-8 8h-96c-4.418 0-8-3.582-8-8v-60c0-4.418 3.582-8 8-8z" fill="url(#a)"/><path id="j" d="m16.5 28.5h95c4.418 0 8 3.582 8 8v68c0 4.418-3.582 8-8 8h-95c-4.418 0-8-3.582-8-8v-68c0-4.418 3.582-8 8-8z" fill="#f6f5f4" stroke="#5e5c64"/><path id="k" d="m51.45 61.2c-2.35 7.56-12.46 6.44-11.23 3.65 0.91-2.05 3.41 0.35 1.46 1.15 3.87 0.98 7.87-1.22 9.05-5.03 3.89-12.48-16.87-18.02-21.26-3.95-2.41 7.73 1.97 15.96 9.94 18.73 3.82 1.37 14.2 1.79 15.7-3.68 0 0 3.77 1.36 8.24-0.37 5.87-2.26 12.08-4.62 18.72-5.36-2.77-0.07-6.21-2.27-7.59-3.65-0.85-0.78-1.6-1.65-2.34-2.57-0.49-0.61 0.45-1.44 1.08-0.67 1.82 3.75 4.23 6.28 10.14 6.75-2.44-0.98-4.51-2.87-5.56-5.5-0.78-1.96-0.74-4.12 0.1-6.04 0.85-1.93 2.41-3.45 4.38-4.23 1.59-0.64 3.36-0.6 4.95 0.11 2.86 1.21 4.66 4.73 3.05 5.73-0.54 0.34-1.29 0.18-1.66-0.4-0.6-0.94 0.65-2.08 1.43-1.32-0.51-1.59-1.66-2.61-3.09-3.37-1.39-0.61-2.95-0.64-4.38-0.07-1.79 0.71-3.22 2.06-4 3.82-0.78 1.75-0.81 3.71-0.1 5.5 1.25 3.17 4.14 5.27 7.36 5.67 29.41-0.16 29.21 31.77 12.97 42.15l-2.43-0.01c6.52-6.74 6.98-8.82 5.64-14.33-0.06-1.02 1.12-1.07 1.29-0.23 0.28 4.82-0.4 8.81-3.7 11.75 13.91-9.59 12.7-31.69-4.17-37.24-0.81-0.27-1.63-0.47-2.44-0.61-4.14-0.44-6.35 0.68-7.43 3.04-4.89 0.63-8.83 3.1-10.45 7.73-1.08 3.24-0.81 6.68 0.71 9.72 1.53 3.04 4.17 5.3 7.43 6.38 2.58 0.85 5.33 0.65 7.77-0.54 2.44-1.21 4.24-3.27 5.09-5.84 1.35-4.08-0.78-8.47-4.75-9.99 0.69 0.7-0.1 1.93-1.09 1.62-0.64-0.2-0.98-0.88-0.81-1.48 1-3.11 9.87 2.38 7.29 10.09-0.92 2.74-2.85 4.96-5.46 6.28-2.61 1.28-5.56 1.52-8.31 0.61-3.42-1.15-6.2-3.51-7.83-6.75-1.63-3.21-1.9-6.86-0.75-10.27 2.01-6.09 7.61-10.18 12.92-11.14-15.89-1.57-33.41 14.53-48.23 9.66-8.38-2.9-12.92-11.51-10.41-19.61 4.62-14.68 25.93-10.5 22.76 4.11z" fill="#002447"/><path id="l" d="m94.605 34h18.789c0.88672 0 1.6055 0.71875 1.6055 1.6055v3.9609c0 0.89062-0.71875 1.6094-1.6055 1.6094h-18.789c-0.88672 0-1.6055-0.71875-1.6055-1.6094v-3.9609c0-0.88672 0.71875-1.6055 1.6055-1.6055z" fill="#9a9996"/><path id="m" d="m14.605 34h18.789c0.88672 0 1.6055 0.71875 1.6055 1.6055v3.9609c0 0.89062-0.71875 1.6094-1.6055 1.6094h-18.789c-0.88672 0-1.6055-0.71875-1.6055-1.6094v-3.9609c0-0.88672 0.71875-1.6055 1.6055-1.6055z" fill="#9a9996"/><path id="n" d="m15.84 28.5h96.324c4.0664 0 7.3359 3.2031 7.3359 7.1836v7.7969l-111 0.019531c0-2.6055 0.003906-5.2109 0.003906-7.8164 0-3.9805 3.2734-7.1836 7.3359-7.1836zm0 0" fill="#deddda" stroke="#5e5c64" stroke-linecap="round" stroke-linejoin="round" stroke-miterlimit="0"/><path id="o" d="m95.012 32.5h17.977c0.83594 0 1.5117 0.67578 1.5117 1.5117v3.9766c0 0.83594-0.67578 1.5117-1.5117 1.5117h-17.977c-0.83594 0-1.5117-0.67578-1.5117-1.5117v-3.9766c0-0.83594 0.67578-1.5117 1.5117-1.5117zm0 0" fill="#62a0ea" stroke="#5e5c64" stroke-linecap="round" stroke-linejoin="round" stroke-miterlimit="0"/><path id="p" d="m15.105 32.5h17.789c0.88672 0 1.6055 0.71875 1.6055 1.6055v3.7891c0 0.88672-0.71875 1.6055-1.6055 1.6055h-17.789c-0.88672 0-1.6055-0.71875-1.6055-1.6055v-3.7891c0-0.88672 0.71875-1.6055 1.6055-1.6055zm0 0" fill="#deddda" stroke="#5e5c64" stroke-linecap="round" stroke-linejoin="round" stroke-miterlimit="0"/><g id="q" fill-rule="evenodd"><path id="r" d="m15.504 126.93c0.15234 0.64844 0.74219 1.0117 1.3906 0.85937l81.918-19.23c0.64453-0.15234 0.80469-0.70312 0.65625-1.3516z" fill="#c0bfbc"/><path id="s" d="m21.535 86.031 5.6797 24.18 32.543-7.6406zm-20.063-21.172 14.422 61.438 81.918-19.23z" fill="#57e389" fill-opacity=".9" stroke="#3d3846" stroke-width=".99897"/><path id="t" transform="matrix(1.1703 -.27476 .27476 1.1703 65.301 -197.08)" d="m-98.5 249.5 0.001046 2.9243" fill="#26a269" stroke="#3d3846" stroke-linecap="round" stroke-width=".83105"/><path id="u" transform="matrix(1.1703 -.27476 .27476 1.1703 65.301 -197.08)" d="m-95.493 249.5 0.001789 2.9211" fill="#26a269" stroke="#3d3846" stroke-linecap="round" stroke-width=".83105"/><path id="v" transform="matrix(1.1703 -.27476 .27476 1.1703 65.301 -197.08)" d="m-92.485 249.5 0.001047 2.9243" fill="#26a269" stroke="#3d3846" stroke-linecap="round" stroke-width=".83105"/><path id="w" transform="matrix(1.1703 -.27476 .27476 1.1703 65.301 -197.08)" d="m-89.478 249.5 0.001789 2.9211" fill="#26a269" stroke="#3d3846" stroke-linecap="round" stroke-width=".83105"/><path id="x" transform="matrix(1.1703 -.27476 .27476 1.1703 65.301 -197.08)" d="m-86.47 249.5 0.001046 2.9243" fill="#26a269" stroke="#3d3846" stroke-linecap="round" stroke-width=".83105"/><path id="y" transform="matrix(1.1703 -.27476 .27476 1.1703 65.301 -197.08)" d="m-83.462 249.5 0.001046 2.9243" fill="#26a269" stroke="#3d3846" stroke-linecap="round" stroke-width=".83105"/><path id="z" transform="matrix(1.1703 -.27476 .27476 1.1703 65.301 -197.08)" d="m-80.452 249.5-0.002117 2.9235" fill="#26a269" stroke="#3d3846" stroke-linecap="round" stroke-width=".83105"/><path id="aa" transform="matrix(1.1703 -.27476 .27476 1.1703 65.301 -197.08)" d="m-77.444 249.5-0.002117 2.9235" fill="#26a269" stroke="#3d3846" stroke-linecap="round" stroke-width=".83105"/><path id="ab" transform="matrix(1.1703 -.27476 .27476 1.1703 65.301 -197.08)" d="m-74.437 249.5-0.001374 2.9204" fill="#26a269" stroke="#3d3846" stroke-linecap="round" stroke-width=".83105"/><path id="ac" transform="matrix(1.1703 -.27476 .27476 1.1703 65.301 -197.08)" d="m-71.429 249.5-0.002117 2.9235" fill="#26a269" stroke="#3d3846" stroke-linecap="round" stroke-width=".83105"/><path id="ad" transform="matrix(1.1703 -.27476 .27476 1.1703 65.301 -197.08)" d="m-68.422 249.5-0.001375 2.9204" fill="#26a269" stroke="#3d3846" stroke-linecap="round" stroke-width=".83105"/><path id="ae" transform="matrix(1.1703 -.27476 .27476 1.1703 65.301 -197.08)" d="m-65.415 249.5 0.001046 2.9243" fill="#26a269" stroke="#3d3846" stroke-linecap="round" stroke-width=".83105"/><path id="af" transform="matrix(1.1703 -.27476 .27476 1.1703 65.301 -197.08)" d="m-59.4 249.5 0.001047 2.9243" fill="#26a269" stroke="#3d3846" stroke-linecap="round" stroke-width=".83105"/><path id="ag" transform="matrix(1.1703 -.27476 .27476 1.1703 65.301 -197.08)" d="m-53.385 249.5 0.001046 2.9243" fill="#26a269" stroke="#3d3846" stroke-linecap="round" stroke-width=".83105"/><path id="ah" transform="matrix(1.1703 -.27476 .27476 1.1703 65.301 -197.08)" d="m-62.407 249.5 0.00179 2.9211" fill="#26a269" stroke="#3d3846" stroke-linecap="round" stroke-width=".83105"/><path id="ai" transform="matrix(1.1703 -.27476 .27476 1.1703 65.301 -197.08)" d="m-56.392 249.5 0.001046 2.9243" fill="#26a269" stroke="#3d3846" stroke-linecap="round" stroke-width=".83105"/><path id="aj" transform="matrix(1.1703 -.27476 .27476 1.1703 65.301 -197.08)" d="m-50.377 249.5 0.001047 2.9243" fill="#26a269" stroke="#3d3846" stroke-linecap="round" stroke-width=".83105"/><path id="ak" transform="matrix(1.1703 -.27476 .27476 1.1703 65.301 -197.08)" d="m-47.37 249.5 0.00179 2.9211" fill="#26a269" stroke="#3d3846" stroke-linecap="round" stroke-width=".83105"/><path id="al" transform="matrix(1.1703 -.27476 .27476 1.1703 65.301 -197.08)" d="m-44.359 249.5-0.002117 2.9235" fill="#26a269" stroke="#3d3846" stroke-linecap="round" stroke-width=".83105"/><path id="am" transform="matrix(1.1703 -.27476 .27476 1.1703 65.301 -197.08)" d="m-41.352 249.5-0.001375 2.9204" fill="#26a269" stroke="#3d3846" stroke-linecap="round" stroke-width=".83105"/><path id="an" transform="matrix(1.1703 -.27476 .27476 1.1703 65.301 -197.08)" d="m-38.344 249.5-0.002117 2.9235" fill="#26a269" stroke="#3d3846" stroke-linecap="round" stroke-width=".83105"/></g></svg>
