<?xml version="1.0" encoding="UTF-8"?>
<svg version="1.2" viewBox="0 0 123 108" xmlns="http://www.w3.org/2000/svg"><style>.s0 { fill: #212a30 } 
		.s1 { fill: #e4214e }</style><g id="a"><g id="b"><g id="c"><path id="d" class="s0" d="m44.94 101.34v-14.05h7.6c2.52 0 4.26-0.02 6.36 2.03 1.22 1.18 2.06 3.06 2.06 4.98s-0.69 3.71-1.98 5c-1.92 1.92-3.9 2.04-6.44 2.04zm7.71-11.44h-4.09v8.8h4.09c1.48 0 2.49-0.47 3.25-1.22 0.72-0.72 1.32-1.78 1.32-3.18 0-1.39-0.61-2.45-1.35-3.18-0.75-0.74-1.73-1.22-3.22-1.22z"/><path id="e" class="s0" d="m36.46 95.8h-5.38v5.54h-3.62v-14.05h9.6c2.19 0 4.57 1.38 4.57 4.22 0.03 1.69-0.79 2.76-1.7 3.49l3.66 6.34h-3.95zm-0.54-2.62c0.87 0 1.23-0.12 1.55-0.4 0.33-0.29 0.57-0.68 0.57-1.24s-0.29-0.99-0.62-1.27c-0.4-0.3-0.74-0.36-1.5-0.36h-4.84v3.27z"/><path id="f" class="s0" d="m20.5 98.42h-9.22l-1.66 2.92h-3.96l8.06-14.05h4.32l8.06 14.05h-3.91zm-4.61-8-3.11 5.39h6.23z"/><path id="g" class="s0" d="m69.49 87.08c-4.05 0.2-7.34 3.34-7.34 7.23s3.3 7.02 7.34 7.26c1.42 0.08 2.7 0.08 4.09 0 4.03-0.23 7.33-3.37 7.33-7.26s-3.29-7.02-7.33-7.23q-2.05-0.11-4.09 0zm3.28 2.55c2.44 0.14 4.42 2.18 4.42 4.68 0 2.51-1.99 4.52-4.42 4.67-0.84 0.05-1.62 0.06-2.48 0-2.44-0.16-4.43-2.16-4.43-4.67 0-2.5 1.99-4.55 4.43-4.68q1.24-0.06 2.48 0z"/><path id="h" class="s0" d="m82.29 87.29v8.51c0 2.34 1.41 3.47 1.99 3.97 1.45 1.21 3.74 1.88 6.03 1.87s4.81-0.84 6.02-1.87c1.27-1.08 1.98-2.19 1.98-3.97v-8.51h-3.6v8.13c0 1.51-0.57 2.22-1.25 2.68-0.77 0.5-1.85 0.91-3.15 0.9-1.31-0.01-2.53-0.47-3.15-0.9-0.76-0.54-1.26-1.16-1.26-2.68v-8.13z"/><path id="i" class="s0" d="m109.21 95.8h-5.39v5.54h-3.62v-14.05h9.6c2.19 0 4.57 1.38 4.57 4.22 0.03 1.69-0.78 2.76-1.69 3.49l3.66 6.34h-3.95zm-0.55-2.62c0.87 0 1.23-0.12 1.55-0.4 0.34-0.29 0.58-0.68 0.58-1.24s-0.3-0.99-0.63-1.27c-0.4-0.3-0.74-0.36-1.5-0.36h-4.84v3.27z"/></g><path id="j" class="s1" d="m60.98 5.44-45.68 79.11h0.79c1.57-0.03 2.19-2.59 3-2.59 0.53 0 1.31 0.4 1.84 0.4 1.02 0 1.31-5.37 2.17-5.35 0.85 0.02 0.69 4.59 2.3 4.65 1.67 0.06 0.57-10.53 2.2-10.53 1.42 0 0.71 9.03 2.65 9.09 1.89 0.06 0.43-15.65 2.31-15.8 2.19-0.18 0.8 14.62 3.06 14.62 1.98 0 0.68-20.78 2.42-20.78 1.75 0 1.22 20.08 3.01 19.91 1.71 0 0.06-24.22 2.03-24.22 2.54 0 1.24 24.04 2.98 24.03 1.95-0.01 0.36-26.39 2.64-26.39 2.36 0 0.75 26.65 2.72 26.58 2.07-0.08-0.11-24.97 2.18-24.97 2.2 0 0.7 25.31 2.62 25.31 2.03 0-0.14-24.98 2.52-24.81 2.57 0.17 0.88 25.54 2.72 25.54 1.76 0 0.71-22.16 2.8-22.04 2.45 0.14 1.02 22.73 2.72 22.73 1.57 0 0.86-18.04 2.94-18.04 2.19 0 0.54 18.72 2.56 18.64 2.02-0.09 1.12-14.27 3.09-14.27 1.88 0 0.32 15.47 2.45 15.47 2.21 0 1.09-10.84 3.04-10.84 2.01 0 0.75 11.84 2.29 11.84 1.49 0 1.06-7.46 2.53-7.46 1.48 0 0.79 7.89 2.04 7.89 1.28 0 0.76-4.55 2.12-4.55 1.37 0 0.88 4.92 1.93 4.98 0.93 0.05 0.81-3.11 1.66-3.11 0.88 0 0.51 3.51 1.71 3.51 1.16-0.01 0.8-1.94 1.63-1.94 0.81 0 0.83 2.27 1.79 2.27 0.68-0.01 1.4-1.04 2.27-1.04 1.14 0 1.49 1.27 4.41 1.27h1.21z" fill-rule="evenodd"/></g></g></svg>
