<?xml version="1.0" encoding="UTF-8"?>
<svg id="o" version="1.1" viewBox="0 0 48 48" xmlns="http://www.w3.org/2000/svg" xmlns:xlink="http://www.w3.org/1999/xlink"><defs id="p"><linearGradient id="a"><stop id="q" stop-color="#c6cdd1" offset="0"/><stop id="r" stop-color="#e0e5e7" offset="1"/></linearGradient><linearGradient id="b" x1="409.57" x2="409.57" y1="543.8" y2="503.8" gradientTransform="matrix(1.125 0 0 1 -51.071 0)" gradientUnits="userSpaceOnUse" xlink:href="#a"/><linearGradient id="n" x1="408.57" x2="408.57" y1="543.8" y2="503.8" gradientUnits="userSpaceOnUse"><stop id="s" stop-color="#1d1e1e" offset="0"/><stop id="t" stop-color="#44484c" offset="1"/></linearGradient><linearGradient id="m" x1="406.57" x2="406.57" y1="507.8" y2="503.8" gradientTransform="matrix(.5 0 0 .5 202.29 252.9)" gradientUnits="userSpaceOnUse" xlink:href="#a"/><linearGradient id="l" x1="406.57" x2="406.57" y1="507.8" y2="503.8" gradientTransform="matrix(-.5 0 0 .5 614.86 254.9)" gradientUnits="userSpaceOnUse" xlink:href="#a"/><linearGradient id="k" x1="406.57" x2="406.57" y1="507.8" y2="503.8" gradientTransform="matrix(.5 0 0 .5 202.29 256.9)" gradientUnits="userSpaceOnUse" xlink:href="#a"/><linearGradient id="j" x1="406.57" x2="406.57" y1="507.8" y2="503.8" gradientTransform="matrix(-.5 0 0 .5 614.86 258.9)" gradientUnits="userSpaceOnUse" xlink:href="#a"/><linearGradient id="i" x1="406.57" x2="406.57" y1="507.8" y2="503.8" gradientTransform="matrix(.5 0 0 .5 202.29 260.9)" gradientUnits="userSpaceOnUse" xlink:href="#a"/><linearGradient id="h" x1="406.57" x2="406.57" y1="507.8" y2="503.8" gradientTransform="matrix(-.5 0 0 .5 614.86 262.9)" gradientUnits="userSpaceOnUse" xlink:href="#a"/><linearGradient id="g" x1="406.57" x2="406.57" y1="507.8" y2="503.8" gradientTransform="matrix(.5 0 0 .5 202.29 264.9)" gradientUnits="userSpaceOnUse" xlink:href="#a"/><linearGradient id="f" x1="406.57" x2="406.57" y1="507.8" y2="503.8" gradientTransform="matrix(-.5 0 0 .5 614.86 266.9)" gradientUnits="userSpaceOnUse" xlink:href="#a"/><linearGradient id="e" x1="406.57" x2="406.57" y1="509.8" y2="503.8" gradientTransform="matrix(.5 0 0 .5 202.29 268.9)" gradientUnits="userSpaceOnUse" xlink:href="#a"/><linearGradient id="c" x1="24" x2="24" y1="33" y2="25" gradientUnits="userSpaceOnUse" xlink:href="#a"/><linearGradient id="d" x1="10" x2="35" y1="7" y2="32" gradientUnits="userSpaceOnUse"><stop id="u" stop-color="#383e51" offset="0"/><stop id="v" stop-color="#655c6f" stop-opacity="0" offset="1"/></linearGradient></defs><g id="w" transform="translate(-384.57 -499.8)"><rect id="x" x="390.57" y="503.8" width="36" height="40" fill="url(#b)"/><rect id="y" x="404.57" y="503.8" width="8" height="40" fill="url(#n)"/><path id="z" transform="translate(384.57 499.8)" d="m28 7v3h-3l3 3v1h-3l3 3v1h-3l3 3v1h-3l17 17v-18l-14-14zm-2 18v4h-1v4h-2l11 11h8v-3l-16-16z" fill="url(#d)" fill-rule="evenodd" opacity=".2"/><path id="aa" d="m404.57 504.8v3h3v-1h1v-1h-1v-1h-3z" fill="url(#m)"/><path id="ab" d="m412.57 506.8v3h-3v-1h-1v-1h1v-1h3z" fill="url(#l)"/><path id="ac" d="m404.57 508.8v3h3v-1h1v-1h-1v-1h-3z" fill="url(#k)"/><path id="ad" d="m412.57 510.8v3h-3v-1h-1v-1h1v-1h3z" fill="url(#j)"/><path id="ae" d="m404.57 512.8v3h3v-1h1v-1h-1v-1h-3z" fill="url(#i)"/><path id="af" d="m412.57 514.8v3h-3v-1h-1v-1h1v-1h3z" fill="url(#h)"/><path id="ag" d="m404.57 516.8v3h3v-1h1v-1h-1v-1h-3z" fill="url(#g)"/><path id="ah" d="m412.57 518.8v3h-3v-1h-1v-1h1v-1h3z" fill="url(#f)"/><path id="ai" d="m404.57 520.8v3h3v-1h1v-1h-1v-1h-3z" fill="url(#e)"/><path id="aj" transform="translate(384.57 499.8)" d="m22 25v4h1v4h2v-4h1v-4h-4zm1 1h2v2h-2v-2z" fill="url(#c)"/><rect id="ak" x="390.57" y="542.8" width="36" height="1" fill="#99a1a7"/></g></svg>
