<?xml version="1.0" encoding="UTF-8"?>
<svg id="f" version="1.1" viewBox="0 0 615 600" xmlns="http://www.w3.org/2000/svg" xmlns:xlink="http://www.w3.org/1999/xlink"><defs id="g"><linearGradient id="b" x1="309.26" x2="312.2" y1="50.9" y2="559.08" gradientUnits="userSpaceOnUse"><stop id="h" stop-color="#b0e098" offset="0"/><stop id="i" stop-color="#70c485" offset=".50009"/><stop id="j" stop-color="#04a171" offset="1"/></linearGradient><linearGradient id="a" x1="314.58" x2="309.18" y1="26.014" y2="573.96" gradientUnits="userSpaceOnUse"><stop id="k" stop-color="#fdfdfd" offset="0"/><stop id="l" stop-color="#cbcbcb" offset="1"/></linearGradient><filter id="e" x="-.022919" y="-.025188" width="1.0458" height="1.0504" color-interpolation-filters="sRGB"><feGaussianBlur id="m" stdDeviation="3.2946627"/></filter><filter id="d" x="-.19227" y="-.1918" width="1.3845" height="1.3836" color-interpolation-filters="sRGB"><feGaussianBlur id="n" stdDeviation="3.2946627"/></filter><filter id="c" x="-.036" y="-.036" width="1.072" height="1.072" color-interpolation-filters="sRGB"><feGaussianBlur id="o" stdDeviation="8.4699307"/></filter></defs><circle id="p" cx="311.77" cy="303.86" r="282.33" fill="#b3b3b3" fill-rule="nonzero" filter="url(#c)"/><circle id="q" cx="307.77" cy="299.86" r="282.33" fill="url(#a)" fill-rule="nonzero"/><circle id="r" cx="307.77" cy="299.86" r="258.17" fill="url(#b)" fill-rule="nonzero"/><g id="s" transform="translate(37.332 410.87)"><g id="t" fill="none" stroke-linecap="round" stroke-miterlimit="4" stroke-width="15"><g id="u" transform="translate(.72824 3.2718)" filter="url(#e)" stroke="#b3b3b3"><path id="v" d="m375.72-197.79c5.7924-29.553 2.5531-51.981-11.138-60.894-4.5638-2.971-10.035-4.2711-16.193-4.0367-33.253 1.2655-86.908 47.163-130.75 114.83-51.956 80.2-70.42 160.58-41.211 179.59 13.865 9.0258 35.958 2.6276 60.918-15.202"/><path id="w" d="m402.36-66.637c24.66-9.5897 39.824-22.716 40.612-37.79 1.8227-34.864-73.865-67.141-169.13-72.145-8.931-0.46919-17.713-0.71608-26.303-0.6871-83.039 0.28014-147.86 23.115-149.51 54.71-0.78658 15.045 12.887 29.634 36.328 41.741"/><path id="x" d="m246.94-249.75c-16.872-14.033-32.696-21.569-45.41-20.613-3.385 0.25449-6.5155 1.0907-9.4246 2.5766-31.031 15.85-21.118 97.821 22.191 183.03 43.308 85.205 103.57 141.42 134.6 125.57 29.842-15.242 21.788-91.625-17.393-173.23"/></g><g id="y" transform="translate(-1.2718 1.2718)" stroke="#fff"><path id="z" d="m375.72-197.79c5.7924-29.553 2.5531-51.981-11.138-60.894-4.5638-2.971-10.035-4.2711-16.193-4.0367-33.253 1.2655-86.908 47.163-130.75 114.83-51.956 80.2-70.42 160.58-41.211 179.59 13.865 9.0258 35.958 2.6276 60.918-15.202"/><path id="aa" d="m402.36-66.637c24.66-9.5897 39.824-22.716 40.612-37.79 1.8227-34.864-73.865-67.141-169.13-72.145-8.931-0.46919-17.713-0.71608-26.303-0.6871-83.039 0.28014-147.86 23.115-149.51 54.71-0.78658 15.045 12.887 29.634 36.328 41.741"/><path id="ab" d="m246.94-249.75c-16.872-14.033-32.696-21.569-45.41-20.613-3.385 0.25449-6.5155 1.0907-9.4246 2.5766-31.031 15.85-21.118 97.821 22.191 183.03 43.308 85.205 103.57 141.42 134.6 125.57 29.842-15.242 21.788-91.625-17.393-173.23"/></g></g><g id="ac"><path id="ad" d="m292.91-107.77a20.563 20.613 0 0 1-41.126 0 20.563 20.613 0 1 1 41.126 0z" fill="#b3b3b3" filter="url(#d)"/><path id="ae" d="m290.91-109.77a20.563 20.613 0 0 1-41.126 0 20.563 20.613 0 1 1 41.126 0z" fill="#fff"/></g></g></svg>
