<?xml version="1.0" encoding="UTF-8"?>
<svg id="d" version="1.1" viewBox="0 0 48 48" xmlns="http://www.w3.org/2000/svg" xmlns:xlink="http://www.w3.org/1999/xlink"><defs id="e"><radialGradient id="b" cx="24.625" cy="38.625" r="21.125" gradientTransform="matrix(1 0 0 .42012 0 22.398)" gradientUnits="userSpaceOnUse"><stop id="f" offset="0"/><stop id="g" stop-opacity="0" offset="1"/></radialGradient><radialGradient id="a" cx="24.502" cy="12.605" r="20.508" gradientTransform="matrix(2.3193 1.8465e-24 -3.4265e-24 2.3747 -32.325 -17.6)" gradientUnits="userSpaceOnUse"><stop id="h" stop-color="#e6eef7" offset="0"/><stop id="i" stop-color="#8ab0d8" offset="1"/></radialGradient><radialGradient id="c" cx="25.986" cy="26.787" r="15.465" gradientTransform="matrix(.86314 0 0 .4389 3.5565 15.03)" gradientUnits="userSpaceOnUse"><stop id="j" offset="0"/><stop id="k" stop-opacity="0" offset="1"/></radialGradient></defs><g id="l"><path id="m" d="m45.75 38.625a21.125 8.875 0 1 1-42.25 0 21.125 8.875 0 1 1 42.25 0z" color="#000000" fill="url(#b)" fill-rule="nonzero"/><rect id="n" x="4.4947" y="3.502" width="40.015" height="40.996" rx="5.25" ry="5.25" color="#000000" fill="url(#a)" fill-rule="evenodd" stroke="#3465a4" stroke-linejoin="miter" stroke-miterlimit="10"/><rect id="o" x="5.4888" y="4.5015" width="38.017" height="38.996" rx="4.1893" ry="4.1893" color="#000000" fill="none" stroke="#fff" stroke-linejoin="miter" stroke-miterlimit="10"/><path id="p" transform="matrix(1.3418 0 0 .72222 -10.472 10.269)" d="m39.952 26.787a13.965 6.364 0 1 1-27.931 0 13.965 6.364 0 1 1 27.931 0z" color="#000000" fill="url(#c)" fill-rule="nonzero" opacity=".33516"/><rect id="q" x="10" y="35" width="28" height="1" color="#000000" fill="#000" fill-rule="nonzero" opacity=".33516"/><rect id="r" x="10" y="37" width="28" height="1" color="#000000" fill="#000" fill-rule="nonzero" opacity=".33516"/><rect id="s" x="10" y="39" width="18" height="1" color="#000000" fill="#000" fill-rule="nonzero" opacity=".33516"/><path id="t" d="m23.375 5.125c-1.4898 3.3188-3.6684 6.2527-5.4362 9.4196-2.0283 3.3913-5.4039 5.6086-8.1907 8.3127-1.2579 1.1213-2.6306 2.1243-3.7793 3.3614 1.472 0.6873 3.3221-0.16992 4.7375-0.78833 0.76573-0.29468 1.6224-1.5147 0.35195-0.3756-1.7774 1.8162-3.5261 3.754-4.6887 6.0302-0.28802 1.836 2.2202-0.16815 2.9168-0.66179 3.3583-2.5522 6.1733-5.9259 10.094-7.6654 1.8137-1.1371 2.8745 0.4801 3.5804 1.9367 1.2517 1.9845 2.6036 4.022 4.7078 5.1855 1.5685 0.74327 3.4372 0.54337 5.1062 0.30625 3.8281-1.0074 7.5845-3.0461 9.9071-6.3297 1.4652-2.5775 0.73413-5.6258 0.57905-8.4278-0.05562-0.66375-0.11124-1.3275-0.16686-1.9913-1.1489 2.0191-2.1169 4.1924-3.8801 5.7764-2.5965 2.3741-5.2554 5.1896-8.9258 5.6993-1.6183 0.70708-3.9308-0.55718-3.5834-2.4276 0.79411-1.5809 2.6863-2.0831 4.0893-2.9874 3.8122-2.251 8.0056-4.2119 10.775-7.8004 1.0942-1.165 1.8921-2.5972 1.339-4.2159-0.54557-1.232-1.9406-2.9041-2.9817-1.1497-3.2363 3.0054-6.9247 5.4687-10.396 8.1876-1.1883 0.58407-3.2513 2.8974-4.3338 1.555-0.77288-3.5279-0.41397-7.2572-1.5616-10.713-0.054739-0.077565-0.11574-0.28423-0.25966-0.23678zm-18.25 1.5c-0.23769 0.42086-0.056889 0.57926 0 0zm16.75 7.1411c0.08313 1.276 0.13283 2.5848-0.51141 3.7518-0.28235 0.80393-3.1026 3.1764-2.3175 0.95663 0.69693-1.7159 1.7598-3.2133 2.8289-4.7084zm-16.438 21.171c0.049944 0.32001 0.11964 0.0016 0 0z" fill="#f9f9f9"/><path id="u" d="m23.447 5.3247c-0.05803 0.02792-1.0833 2.7929-2.5915 5.5281-3.6191 6.5633-5.9164 9.4361-9.6272 11.909-1.6055 1.0701-4.1324 2.419-4.6875 3.1562-0.52783 0.70103-0.20518 0.27132 1.9375-0.34375 5.3492-1.5355 4.9512-2.7556 0.90625 2.0938-5.51 6.6057-2.7393 4.554 3.0312-0.84375 2.646-2.475 5.5313-4.2113 6.2812-4.5 0.80358-0.30936 1.3099-0.52507 2.3125-0.59375 1.1872-0.08133 1.8716 0.03893 2.3125 1.3438 0.375 1.1098 1.2239 3.1339 2.5625 4.7188 0.54182 0.64151 1.0226 0.95054 1.5152 1.2569 0.45457 0.28266 0.91461 0.58157 1.549 0.70941 1.266 0.28004 2.1113 0.13737 2.9983 0.09624 1.9008-0.11314 5.1302-1.8462 7.3438-3.625 3.5415-2.846 4.0149-3.7199 3.9688-7.3125l-0.03125-4.0938-1.6875 2.5c-3.6285 5.4068-7.976 9-10.906 9-6.4775 0-7.3394-5.0018-1.1875-7.5312 5.3091-2.1829 11.941-6.5649 13.625-9.3125 0.0039-0.20561-0.0054-0.42849-0.0078-0.61719-0.04168-0.64142-0.19147-1.1283-0.40212-1.6191-0.24642-0.50132-0.68778-0.84042-1.051-1.1739-0.33088-0.23221-0.529-0.36469-0.77734-0.33984-0.31503 0.1066-0.44353 0.2707-0.54297 0.5625-0.78844 2.3137-12.484 11.5-15.562 11.5-0.29691 0-0.41638-2.3587-0.67142-5.9246-0.26516-3.7076-0.17179-6.755-0.60984-6.5442zm-1.3125 7.5786 0.25 2.8589c-0.04734 1.8811-1.0886 2.9477-2.2393 3.4299-1.1423 0.47875-2.2663 1.2977-2.1625 0.01837 0.05493-0.677 1.0765-1.7567 2.3027-3.4849zm-16.688 21.921c0.0143 0.03861 0.04626 0.08707 0.0625 0.125-0.0014-0.01987 0.0014-0.04258 0-0.0625-0.0028 0.0103-0.03339 2.21e-4 -0.0625-0.0625z" fill="#d40000"/></g></svg>
