<?xml version="1.0" encoding="UTF-8"?>
<svg id="z" width="32" height="32" version="1.1" viewBox="0 0 45 45" xml:space="preserve" xmlns="http://www.w3.org/2000/svg"><defs id="aa"><clipPath id="w"><path id="ab" d="m2.839 20.097c0-0.743 0.055-1.474 0.159-2.19 0.091-1.168 0.074-2.436 0.092-3.478 0.019-1.122 0.043-2.562 0.043-2.562l1e-3 1e-3c0.014-0.901 0.334-2.375 0.902-3.979 0.457-1.288 0.984-2.408 1.46-3.161 0 0 3e-3 -6e-3 7e-3 -0.011 0.079-0.123 0.155-0.237 0.23-0.34 0.323-0.475 0.895-1.308 1.193-1.699 0.036-0.048 0.071-0.092 0.104-0.131v-1e-3c0.313-0.374 0.527-0.564 0.818-0.723 0.292-0.158 0.512-0.032 0.512-0.032 0.184 0.054 0.219 0.575 0.128 1.418l2.516-1.71c0.07-0.042 0.156-0.057 0.24-0.032l1.078 0.319c3e-3 -4e-3 5e-3 -8e-3 7e-3 -9e-3 0 0 0-1e-3 1e-3 -1e-3 0.031-0.04 0.059-0.069 0.085-0.089 0.201-0.179 0.487-0.254 0.765-0.172l1.131 0.333c0.571 0.169 0.95 0.678 0.98 1.242 0.091 0.749-0.625 3.982-1.748 7.791-1.164 3.949-2.36 7.14-2.809 7.547-0.339 0.408-0.9 0.599-1.442 0.44l-1.131-0.334c-0.23-0.068-0.406-0.229-0.5-0.43l-1.217-0.36c-0.08-0.023-0.142-0.078-0.178-0.146l-1.153-2.734c-0.012 0.024-0.024 0.047-0.035 0.07l-0.101 0.28c-0.306 1.126-0.47 2.313-0.47 3.538 0 7.452 6.041 13.493 13.493 13.493s13.493-6.041 13.493-13.493c0-1.293-0.183-2.542-0.522-3.726l-0.034-0.092c-0.011-0.023-0.023-0.046-0.035-0.07l-1.152 2.734c-0.036 0.068-0.099 0.123-0.179 0.146l-1.216 0.36c-0.095 0.201-0.271 0.362-0.501 0.43l-1.131 0.334c-0.541 0.159-1.103-0.032-1.442-0.44-0.449-0.407-1.644-3.598-2.808-7.547-1.123-3.809-1.84-7.042-1.75-7.791 0.031-0.564 0.409-1.073 0.981-1.242l1.132-0.333c0.277-0.082 0.563-7e-3 0.764 0.172 0.026 0.02 0.055 0.049 0.085 0.089v1e-3c4e-3 1e-3 6e-3 5e-3 8e-3 9e-3l1.079-0.319c0.083-0.025 0.17-0.01 0.239 0.032l2.516 1.71c-0.09-0.843-0.055-1.364 0.127-1.418 0 0 0.222-0.126 0.513 0.032 0.29 0.159 0.505 0.349 0.817 0.723 0 0 1e-3 0 1e-3 1e-3 0.034 0.039 0.069 0.083 0.104 0.131 0.298 0.391 0.87 1.224 1.193 1.699 0.074 0.103 0.152 0.217 0.23 0.34 3e-3 5e-3 7e-3 0.011 7e-3 0.011 0.476 0.753 1.004 1.873 1.461 3.161 0.568 1.604 0.887 3.078 0.901 3.979l1e-3 -1e-3s0.024 1.44 0.044 2.562c0.019 1.123-2e-3 2.51 0.114 3.75v1e-3c0.079 0.627 0.121 1.268 0.121 1.917 0 8.374-6.788 15.161-15.161 15.161s-15.161-6.787-15.161-15.161"/></clipPath><clipPath id="y"><path id="ac" d="m5.163 24.952c-0.082-0.172 0.028-0.388 0.197-0.388h0.394c0.383 0 0.746 0.214 0.968 0.581 2.503 4.141 6.62 6.564 11.278 6.564s8.775-2.423 11.278-6.564c0.222-0.367 0.585-0.581 0.969-0.581h0.393c0.17 0 0.279 0.216 0.196 0.388-2.615 5.468-7.383 8.566-12.836 8.566s-10.221-3.098-12.837-8.566"/></clipPath><radialGradient id="a" cx="0" cy="0" r="1" gradientTransform="matrix(13.674 .0099846 .0099846 -13.674 17.906 20.019)" gradientUnits="userSpaceOnUse"><stop id="ad" stop-color="#1f1d1d" offset="0"/><stop id="ae" stop-color="#1f1d1d" offset=".92788"/><stop id="af" stop-color="#343334" offset="1"/></radialGradient><clipPath id="x"><path id="ag" d="m31.534 8.461c-0.774-2.412-1.621-4.461-2.235-5.498 0.308 0.428 0.725 1.035 0.983 1.414 0.074 0.103 0.152 0.217 0.23 0.34 3e-3 5e-3 7e-3 0.011 7e-3 0.011 0.476 0.753 1.004 1.873 1.461 3.161 0.568 1.604 0.887 3.078 0.901 3.979l1e-3 -1e-3s0.022 1.339 0.042 2.441c-0.092-1.19-0.6-3.388-1.39-5.847"/></clipPath><linearGradient id="i" x2="1" gradientTransform="matrix(3.6249 0 0 -3.6249 29.299 8.6357)" gradientUnits="userSpaceOnUse"><stop id="ah" stop-color="#2b2829" offset="0"/><stop id="ai" stop-color="#2b2829" offset=".37019"/><stop id="aj" stop-color="#3b3839" offset="1"/></linearGradient><clipPath id="u"><path id="ak" d="m29.749 17.594c4e-3 -9e-3 0.01-0.017 0.015-0.027l-0.014 0.033-1e-3 -6e-3z"/></clipPath><linearGradient id="h" x2="1" gradientTransform="matrix(.015006 0 0 -.015006 29.749 17.583)" gradientUnits="userSpaceOnUse"><stop id="al" stop-color="#6d6e70" offset="0"/><stop id="am" stop-color="#545557" offset=".50642"/><stop id="an" stop-color="#2c2a2a" offset="1"/></linearGradient><clipPath id="t"><path id="ao" d="m25.037 1.515c5e-3 3e-3 0.01 7e-3 0.014 0.01l-0.014-0.01zm-8e-3 -4e-3c-5e-3 -4e-3 -0.012-7e-3 -0.017-0.01l-1e-3 -4e-3 0.026 0.018c-3e-3 -1e-3 -5e-3 -3e-3 -8e-3 -4e-3"/></clipPath><linearGradient id="g" x2="1" gradientTransform="matrix(.041369 0 0 -.041369 25.01 1.511)" gradientUnits="userSpaceOnUse"><stop id="ap" stop-color="#6d6e70" offset="0"/><stop id="aq" stop-color="#545557" offset=".50642"/><stop id="ar" stop-color="#2c2a2a" offset="1"/></linearGradient><clipPath id="s"><path id="as" d="m25.281 18.428c-0.449-0.407-1.644-3.598-2.808-7.547-1.123-3.809-1.84-7.042-1.75-7.791 0.031-0.564 0.409-1.073 0.981-1.242l1.132-0.333c0.277-0.082 0.563-7e-3 0.764 0.172 0.026 0.02 0.055 0.049 0.085 0.089v1e-3c0.519 0.648 1.726 3.902 2.901 7.886 1.274 4.323 2.051 7.944 1.804 8.353-0.081 0.241-0.274 0.44-0.536 0.518l-1.131 0.334c-0.129 0.038-0.259 0.056-0.387 0.056-0.409 0-0.797-0.185-1.055-0.496"/></clipPath><linearGradient id="f" x2="1" gradientTransform="matrix(3.8478 -1.1351 -1.1351 -3.8478 22.64 10.822)" gradientUnits="userSpaceOnUse"><stop id="at" stop-color="#363233" offset="0"/><stop id="au" stop-color="#343131" offset=".33414"/><stop id="av" stop-color="#2b2829" offset="1"/></linearGradient><clipPath id="r"><path id="aw" d="m25.281 18.428c-0.449-0.407-1.644-3.598-2.808-7.547-1.123-3.809-1.84-7.042-1.75-7.791 0.031-0.564 0.409-1.073 0.981-1.242l1.132-0.333c0.277-0.082 0.563-7e-3 0.764 0.172 0.026 0.02 0.055 0.049 0.085 0.089v1e-3c0.519 0.648 1.726 3.902 2.901 7.886 1.274 4.323 2.051 7.944 1.804 8.353-0.081 0.241-0.274 0.44-0.536 0.518l-1.131 0.334c-0.129 0.038-0.259 0.056-0.387 0.056-0.409 0-0.797-0.185-1.055-0.496"/></clipPath><clipPath id="q"><path id="ax" d="m28.39 18.016c0.247-0.409-0.53-4.03-1.804-8.353-1.171-3.97-2.372-7.213-2.893-7.877l1.079-0.319c0.091-0.028 0.185-7e-3 0.257 0.044 0.408 0.177 1.694 3.586 2.948 7.845 1.2 4.065 1.954 7.493 1.809 8.12-9e-3 0.122-0.091 0.232-0.215 0.268l-1.224 0.361c0.015-0.029 0.032-0.057 0.043-0.089"/></clipPath><clipPath id="p"><path id="ay" d="m3.133 11.867 1e-3 1e-3c0.014-0.901 0.334-2.375 0.902-3.979 0.457-1.288 0.984-2.408 1.46-3.161 0 0 3e-3 -6e-3 7e-3 -0.011 0.079-0.123 0.155-0.237 0.23-0.34 0.258-0.379 0.674-0.986 0.984-1.414-0.615 1.037-1.462 3.086-2.236 5.498-0.789 2.459-1.298 4.657-1.389 5.847 0.018-1.102 0.041-2.441 0.041-2.441"/></clipPath><linearGradient id="e" x2="1" gradientTransform="matrix(-3.6248 0 0 -3.6248 6.7164 8.6357)" gradientUnits="userSpaceOnUse"><stop id="az" stop-color="#2b2829" offset="0"/><stop id="ba" stop-color="#2b2829" offset=".37019"/><stop id="bb" stop-color="#3b3839" offset="1"/></linearGradient><clipPath id="o"><path id="bc" d="m6.253 17.571c4e-3 8e-3 9e-3 0.015 0.014 0.023l-2e-3 6e-3 -0.012-0.029zm-2e-3 -4e-3 2e-3 4e-3c0-1e-3 -1e-3 -2e-3 -2e-3 -4e-3"/></clipPath><linearGradient id="d" x2="1" gradientTransform="matrix(-.015006 0 0 -.015006 6.2666 17.583)" gradientUnits="userSpaceOnUse"><stop id="bd" stop-color="#6d6e70" offset="0"/><stop id="be" stop-color="#545557" offset=".50642"/><stop id="bf" stop-color="#2c2a2a" offset="1"/></linearGradient><clipPath id="n"><path id="bg" d="m10.982 1.513-0.018 0.012c6e-3 -4e-3 0.013-9e-3 0.018-0.012m0.023-0.016-1e-3 4e-3c-6e-3 3e-3 -0.013 6e-3 -0.019 0.01-1e-3 1e-3 -2e-3 1e-3 -3e-3 2e-3l0.023-0.016z"/></clipPath><linearGradient id="c" x2="1" gradientTransform="matrix(-.041369 0 0 -.041369 11.005 1.511)" gradientUnits="userSpaceOnUse"><stop id="bh" stop-color="#6d6e70" offset="0"/><stop id="bi" stop-color="#545557" offset=".50642"/><stop id="bj" stop-color="#2c2a2a" offset="1"/></linearGradient><clipPath id="m"><path id="bk" d="m9.292 18.868-1.131-0.334c-0.262-0.078-0.454-0.277-0.535-0.518-0.248-0.409 0.529-4.03 1.803-8.353 1.176-3.984 2.382-7.238 2.9-7.886 0 0 0-1e-3 1e-3 -1e-3 0.031-0.04 0.059-0.069 0.085-0.089 0.201-0.179 0.487-0.254 0.765-0.172l1.131 0.333c0.571 0.169 0.95 0.678 0.98 1.242 0.091 0.749-0.625 3.982-1.748 7.791-1.164 3.949-2.36 7.14-2.809 7.547-0.258 0.311-0.645 0.496-1.054 0.496-0.128 0-0.258-0.018-0.388-0.056"/></clipPath><linearGradient id="b" x2="1" gradientTransform="matrix(-3.8478 -1.1351 1.1351 -3.8478 13.375 10.822)" gradientUnits="userSpaceOnUse"><stop id="bl" stop-color="#363233" offset="0"/><stop id="bm" stop-color="#343131" offset=".33414"/><stop id="bn" stop-color="#2b2829" offset="1"/></linearGradient><clipPath id="l"><path id="bo" d="m9.292 18.868-1.131-0.334c-0.262-0.078-0.454-0.277-0.535-0.518-0.248-0.409 0.529-4.03 1.803-8.353 1.176-3.984 2.382-7.238 2.9-7.886 0 0 0-1e-3 1e-3 -1e-3 0.031-0.04 0.059-0.069 0.085-0.089 0.201-0.179 0.487-0.254 0.765-0.172l1.131 0.333c0.571 0.169 0.95 0.678 0.98 1.242 0.091 0.749-0.625 3.982-1.748 7.791-1.164 3.949-2.36 7.14-2.809 7.547-0.258 0.311-0.645 0.496-1.054 0.496-0.128 0-0.258-0.018-0.388-0.056"/></clipPath><clipPath id="k"><path id="bp" d="m6.444 17.744c-0.124-0.036-0.206-0.146-0.213-0.268-0.148-0.627 0.608-4.055 1.806-8.12 1.256-4.259 2.542-7.668 2.948-7.845 0.073-0.051 0.167-0.072 0.259-0.044l1.079 0.319c-0.521 0.664-1.723 3.907-2.894 7.877-1.274 4.323-2.051 7.944-1.803 8.353 0.011 0.032 0.028 0.06 0.042 0.089l-1.224-0.361z"/></clipPath><clipPath id="v"><path id="bq" d="m2.839 20.097c0-0.743 0.055-1.474 0.159-2.19 0.091-1.168 0.074-2.436 0.092-3.478 0.019-1.122 0.043-2.562 0.043-2.562l1e-3 1e-3c0.014-0.901 0.334-2.375 0.902-3.979 0.457-1.288 0.984-2.408 1.46-3.161 0 0 3e-3 -6e-3 7e-3 -0.011 0.079-0.123 0.155-0.237 0.23-0.34 0.323-0.475 0.895-1.308 1.193-1.699 0.036-0.048 0.071-0.092 0.104-0.131v-1e-3c0.313-0.374 0.527-0.564 0.818-0.723 0.292-0.158 0.512-0.032 0.512-0.032 0.184 0.054 0.219 0.575 0.128 1.418l2.516-1.71c0.07-0.042 0.156-0.057 0.24-0.032l1.078 0.319c3e-3 -4e-3 5e-3 -8e-3 7e-3 -9e-3 0 0 0-1e-3 1e-3 -1e-3 0.031-0.04 0.059-0.069 0.085-0.089 0.201-0.179 0.487-0.254 0.765-0.172l1.131 0.333c0.571 0.169 0.95 0.678 0.98 1.242 0.091 0.749-0.625 3.982-1.748 7.791-1.164 3.949-2.36 7.14-2.809 7.547-0.339 0.408-0.9 0.599-1.442 0.44l-1.131-0.334c-0.23-0.068-0.406-0.229-0.5-0.43l-1.217-0.36c-0.08-0.023-0.142-0.078-0.178-0.146l-1.153-2.734c-0.012 0.024-0.024 0.047-0.035 0.07l-0.101 0.28c-0.306 1.126-0.47 2.313-0.47 3.538 0 7.452 6.041 13.493 13.493 13.493s13.493-6.041 13.493-13.493c0-1.293-0.183-2.542-0.522-3.726l-0.034-0.092c-0.011-0.023-0.023-0.046-0.035-0.07l-1.152 2.734c-0.036 0.068-0.099 0.123-0.179 0.146l-1.216 0.36c-0.095 0.201-0.271 0.362-0.501 0.43l-1.131 0.334c-0.541 0.159-1.103-0.032-1.442-0.44-0.449-0.407-1.644-3.598-2.808-7.547-1.123-3.809-1.84-7.042-1.75-7.791 0.031-0.564 0.409-1.073 0.981-1.242l1.132-0.333c0.277-0.082 0.563-7e-3 0.764 0.172 0.026 0.02 0.055 0.049 0.085 0.089v1e-3c4e-3 1e-3 6e-3 5e-3 8e-3 9e-3l1.079-0.319c0.083-0.025 0.17-0.01 0.239 0.032l2.516 1.71c-0.09-0.843-0.055-1.364 0.127-1.418 0 0 0.222-0.126 0.513 0.032 0.29 0.159 0.505 0.349 0.817 0.723 0 0 1e-3 0 1e-3 1e-3 0.034 0.039 0.069 0.083 0.104 0.131 0.298 0.391 0.87 1.224 1.193 1.699 0.074 0.103 0.152 0.217 0.23 0.34 3e-3 5e-3 7e-3 0.011 7e-3 0.011 0.476 0.753 1.004 1.873 1.461 3.161 0.568 1.604 0.887 3.078 0.901 3.979l1e-3 -1e-3s0.024 1.44 0.044 2.562c0.019 1.123-2e-3 2.51 0.114 3.75v1e-3c0.079 0.627 0.121 1.268 0.121 1.917 0 8.374-6.788 15.161-15.161 15.161s-15.161-6.787-15.161-15.161"/></clipPath><filter id="j" x="-.050755" y="-.045528" width="1.1015" height="1.0911" color-interpolation-filters="sRGB"><feGaussianBlur id="br" stdDeviation="0.64125149"/></filter></defs><g id="bs" transform="matrix(1.25,0,0,-1.25,0,45)"><g id="bt" transform="translate(0 -.35643)" fill="#000" filter="url(#j)" opacity=".5"><g id="bu" clip-path="url(#v)" fill="#000"><g id="bv" fill="#000"><g id="bw" fill="#000"><path id="bx" d="m2.839 20.097c0-0.743 0.055-1.474 0.159-2.19 0.091-1.168 0.074-2.436 0.092-3.478 0.019-1.122 0.043-2.562 0.043-2.562l1e-3 1e-3c0.014-0.901 0.334-2.375 0.902-3.979 0.457-1.288 0.984-2.408 1.46-3.161 0 0 3e-3 -6e-3 7e-3 -0.011 0.079-0.123 0.155-0.237 0.23-0.34 0.323-0.475 0.895-1.308 1.193-1.699 0.036-0.048 0.071-0.092 0.104-0.131v-1e-3c0.313-0.374 0.527-0.564 0.818-0.723 0.292-0.158 0.512-0.032 0.512-0.032 0.184 0.054 0.219 0.575 0.128 1.418l2.516-1.71c0.07-0.042 0.156-0.057 0.24-0.032l1.078 0.319c3e-3 -4e-3 5e-3 -8e-3 7e-3 -9e-3 0 0 0-1e-3 1e-3 -1e-3 0.031-0.04 0.059-0.069 0.085-0.089 0.201-0.179 0.487-0.254 0.765-0.172l1.131 0.333c0.571 0.169 0.95 0.678 0.98 1.242 0.091 0.749-0.625 3.982-1.748 7.791-1.164 3.949-2.36 7.14-2.809 7.547-0.339 0.408-0.9 0.599-1.442 0.44l-1.131-0.334c-0.23-0.068-0.406-0.229-0.5-0.43l-1.217-0.36c-0.08-0.023-0.142-0.078-0.178-0.146l-1.153-2.734c-0.012 0.024-0.024 0.047-0.035 0.07l-0.101 0.28c-0.306 1.126-0.47 2.313-0.47 3.538 0 7.452 6.041 13.493 13.493 13.493s13.493-6.041 13.493-13.493c0-1.293-0.183-2.542-0.522-3.726l-0.034-0.092c-0.011-0.023-0.023-0.046-0.035-0.07l-1.152 2.734c-0.036 0.068-0.099 0.123-0.179 0.146l-1.216 0.36c-0.095 0.201-0.271 0.362-0.501 0.43l-1.131 0.334c-0.541 0.159-1.103-0.032-1.442-0.44-0.449-0.407-1.644-3.598-2.808-7.547-1.123-3.809-1.84-7.042-1.75-7.791 0.031-0.564 0.409-1.073 0.981-1.242l1.132-0.333c0.277-0.082 0.563-7e-3 0.764 0.172 0.026 0.02 0.055 0.049 0.085 0.089v1e-3c4e-3 1e-3 6e-3 5e-3 8e-3 9e-3l1.079-0.319c0.083-0.025 0.17-0.01 0.239 0.032l2.516 1.71c-0.09-0.843-0.055-1.364 0.127-1.418 0 0 0.222-0.126 0.513 0.032 0.29 0.159 0.505 0.349 0.817 0.723 0 0 1e-3 0 1e-3 1e-3 0.034 0.039 0.069 0.083 0.104 0.131 0.298 0.391 0.87 1.224 1.193 1.699 0.074 0.103 0.152 0.217 0.23 0.34 3e-3 5e-3 7e-3 0.011 7e-3 0.011 0.476 0.753 1.004 1.873 1.461 3.161 0.568 1.604 0.887 3.078 0.901 3.979l1e-3 -1e-3s0.024 1.44 0.044 2.562c0.019 1.123-2e-3 2.51 0.114 3.75v1e-3c0.079 0.627 0.121 1.268 0.121 1.917 0 8.374-6.788 15.161-15.161 15.161s-15.161-6.787-15.161-15.161" fill="#000"/></g></g></g></g><g id="by" fill="#464646"><g id="bz" clip-path="url(#w)" fill="#464646"><g id="ca" fill="#464646"><g id="cb" fill="#464646"><path id="cc" d="m2.839 20.097c0-0.743 0.055-1.474 0.159-2.19 0.091-1.168 0.074-2.436 0.092-3.478 0.019-1.122 0.043-2.562 0.043-2.562l1e-3 1e-3c0.014-0.901 0.334-2.375 0.902-3.979 0.457-1.288 0.984-2.408 1.46-3.161 0 0 3e-3 -6e-3 7e-3 -0.011 0.079-0.123 0.155-0.237 0.23-0.34 0.323-0.475 0.895-1.308 1.193-1.699 0.036-0.048 0.071-0.092 0.104-0.131v-1e-3c0.313-0.374 0.527-0.564 0.818-0.723 0.292-0.158 0.512-0.032 0.512-0.032 0.184 0.054 0.219 0.575 0.128 1.418l2.516-1.71c0.07-0.042 0.156-0.057 0.24-0.032l1.078 0.319c3e-3 -4e-3 5e-3 -8e-3 7e-3 -9e-3 0 0 0-1e-3 1e-3 -1e-3 0.031-0.04 0.059-0.069 0.085-0.089 0.201-0.179 0.487-0.254 0.765-0.172l1.131 0.333c0.571 0.169 0.95 0.678 0.98 1.242 0.091 0.749-0.625 3.982-1.748 7.791-1.164 3.949-2.36 7.14-2.809 7.547-0.339 0.408-0.9 0.599-1.442 0.44l-1.131-0.334c-0.23-0.068-0.406-0.229-0.5-0.43l-1.217-0.36c-0.08-0.023-0.142-0.078-0.178-0.146l-1.153-2.734c-0.012 0.024-0.024 0.047-0.035 0.07l-0.101 0.28c-0.306 1.126-0.47 2.313-0.47 3.538 0 7.452 6.041 13.493 13.493 13.493s13.493-6.041 13.493-13.493c0-1.293-0.183-2.542-0.522-3.726l-0.034-0.092c-0.011-0.023-0.023-0.046-0.035-0.07l-1.152 2.734c-0.036 0.068-0.099 0.123-0.179 0.146l-1.216 0.36c-0.095 0.201-0.271 0.362-0.501 0.43l-1.131 0.334c-0.541 0.159-1.103-0.032-1.442-0.44-0.449-0.407-1.644-3.598-2.808-7.547-1.123-3.809-1.84-7.042-1.75-7.791 0.031-0.564 0.409-1.073 0.981-1.242l1.132-0.333c0.277-0.082 0.563-7e-3 0.764 0.172 0.026 0.02 0.055 0.049 0.085 0.089v1e-3c4e-3 1e-3 6e-3 5e-3 8e-3 9e-3l1.079-0.319c0.083-0.025 0.17-0.01 0.239 0.032l2.516 1.71c-0.09-0.843-0.055-1.364 0.127-1.418 0 0 0.222-0.126 0.513 0.032 0.29 0.159 0.505 0.349 0.817 0.723 0 0 1e-3 0 1e-3 1e-3 0.034 0.039 0.069 0.083 0.104 0.131 0.298 0.391 0.87 1.224 1.193 1.699 0.074 0.103 0.152 0.217 0.23 0.34 3e-3 5e-3 7e-3 0.011 7e-3 0.011 0.476 0.753 1.004 1.873 1.461 3.161 0.568 1.604 0.887 3.078 0.901 3.979l1e-3 -1e-3s0.024 1.44 0.044 2.562c0.019 1.123-2e-3 2.51 0.114 3.75v1e-3c0.079 0.627 0.121 1.268 0.121 1.917 0 8.374-6.788 15.161-15.161 15.161s-15.161-6.787-15.161-15.161" fill="#464646"/></g></g></g></g><g id="cd"><g id="ce" clip-path="url(#y)"><g id="cf"><g id="cg"><path id="ch" d="m5.163 24.952c-0.082-0.172 0.028-0.388 0.197-0.388h0.394c0.383 0 0.746 0.214 0.968 0.581 2.503 4.141 6.62 6.564 11.278 6.564s8.775-2.423 11.278-6.564c0.222-0.367 0.585-0.581 0.969-0.581h0.393c0.17 0 0.279 0.216 0.196 0.388-2.615 5.468-7.383 8.566-12.836 8.566s-10.221-3.098-12.837-8.566" fill="url(#a)"/></g></g></g></g><g id="ci"><g id="cj" clip-path="url(#x)"><g id="ck"><g id="cl"><path id="cm" d="m31.534 8.461c-0.774-2.412-1.621-4.461-2.235-5.498 0.308 0.428 0.725 1.035 0.983 1.414 0.074 0.103 0.152 0.217 0.23 0.34 3e-3 5e-3 7e-3 0.011 7e-3 0.011 0.476 0.753 1.004 1.873 1.461 3.161 0.568 1.604 0.887 3.078 0.901 3.979l1e-3 -1e-3s0.022 1.339 0.042 2.441c-0.092-1.19-0.6-3.388-1.39-5.847" fill="url(#i)"/></g></g></g></g><g id="cn"><g id="co" clip-path="url(#u)"><g id="cp"><g id="cq"><path id="cr" d="m29.749 17.594c4e-3 -9e-3 0.01-0.017 0.015-0.027l-0.014 0.033-1e-3 -6e-3z" fill="url(#h)"/></g></g></g></g><g id="cs"><g id="ct" clip-path="url(#t)"><g id="cu"><g id="cv"><path id="cw" d="m25.037 1.515c5e-3 3e-3 0.01 7e-3 0.014 0.01l-0.014-0.01zm-8e-3 -4e-3c-5e-3 -4e-3 -0.012-7e-3 -0.017-0.01l-1e-3 -4e-3 0.026 0.018c-3e-3 -1e-3 -5e-3 -3e-3 -8e-3 -4e-3" fill="url(#g)"/></g></g></g></g><g id="cx"><g id="cy" clip-path="url(#s)"><g id="cz"><g id="da"><path id="db" d="m25.281 18.428c-0.449-0.407-1.644-3.598-2.808-7.547-1.123-3.809-1.84-7.042-1.75-7.791 0.031-0.564 0.409-1.073 0.981-1.242l1.132-0.333c0.277-0.082 0.563-7e-3 0.764 0.172 0.026 0.02 0.055 0.049 0.085 0.089v1e-3c0.519 0.648 1.726 3.902 2.901 7.886 1.274 4.323 2.051 7.944 1.804 8.353-0.081 0.241-0.274 0.44-0.536 0.518l-1.131 0.334c-0.129 0.038-0.259 0.056-0.387 0.056-0.409 0-0.797-0.185-1.055-0.496" fill="url(#f)"/></g></g></g></g><g id="dc" fill="#323232"><g id="dd" clip-path="url(#r)" fill="#323232"><g id="de" fill="#323232"><g id="df" fill="#323232"><path id="dg" d="m25.281 18.428c-0.449-0.407-1.644-3.598-2.808-7.547-1.123-3.809-1.84-7.042-1.75-7.791 0.031-0.564 0.409-1.073 0.981-1.242l1.132-0.333c0.277-0.082 0.563-7e-3 0.764 0.172 0.026 0.02 0.055 0.049 0.085 0.089v1e-3c0.519 0.648 1.726 3.902 2.901 7.886 1.274 4.323 2.051 7.944 1.804 8.353-0.081 0.241-0.274 0.44-0.536 0.518l-1.131 0.334c-0.129 0.038-0.259 0.056-0.387 0.056-0.409 0-0.797-0.185-1.055-0.496" fill="#323232"/></g></g></g></g><g id="dh" fill="#646464"><g id="di" clip-path="url(#q)" fill="#646464"><g id="dj" fill="#646464"><g id="dk" fill="#646464"><path id="dl" d="m28.39 18.016c0.247-0.409-0.53-4.03-1.804-8.353-1.171-3.97-2.372-7.213-2.893-7.877l1.079-0.319c0.091-0.028 0.185-7e-3 0.257 0.044 0.408 0.177 1.694 3.586 2.948 7.845 1.2 4.065 1.954 7.493 1.809 8.12-9e-3 0.122-0.091 0.232-0.215 0.268l-1.224 0.361c0.015-0.029 0.032-0.057 0.043-0.089" fill="#646464"/></g></g></g></g><g id="dm"><g id="dn" clip-path="url(#p)"><g id="do"><g id="dp"><path id="dq" d="m3.133 11.867 1e-3 1e-3c0.014-0.901 0.334-2.375 0.902-3.979 0.457-1.288 0.984-2.408 1.46-3.161 0 0 3e-3 -6e-3 7e-3 -0.011 0.079-0.123 0.155-0.237 0.23-0.34 0.258-0.379 0.674-0.986 0.984-1.414-0.615 1.037-1.462 3.086-2.236 5.498-0.789 2.459-1.298 4.657-1.389 5.847 0.018-1.102 0.041-2.441 0.041-2.441" fill="url(#e)"/></g></g></g></g><g id="dr"><g id="ds" clip-path="url(#o)"><g id="dt"><g id="du"><path id="dv" d="m6.253 17.571c4e-3 8e-3 9e-3 0.015 0.014 0.023l-2e-3 6e-3 -0.012-0.029zm-2e-3 -4e-3 2e-3 4e-3c0-1e-3 -1e-3 -2e-3 -2e-3 -4e-3" fill="url(#d)"/></g></g></g></g><g id="dw"><g id="dx" clip-path="url(#n)"><g id="dy"><g id="dz"><path id="ea" d="m10.982 1.513-0.018 0.012c6e-3 -4e-3 0.013-9e-3 0.018-0.012m0.023-0.016-1e-3 4e-3c-6e-3 3e-3 -0.013 6e-3 -0.019 0.01-1e-3 1e-3 -2e-3 1e-3 -3e-3 2e-3l0.023-0.016z" fill="url(#c)"/></g></g></g></g><g id="eb"><g id="ec" clip-path="url(#m)"><g id="ed"><g id="ee"><path id="ef" d="m9.292 18.868-1.131-0.334c-0.262-0.078-0.454-0.277-0.535-0.518-0.248-0.409 0.529-4.03 1.803-8.353 1.176-3.984 2.382-7.238 2.9-7.886 0 0 0-1e-3 1e-3 -1e-3 0.031-0.04 0.059-0.069 0.085-0.089 0.201-0.179 0.487-0.254 0.765-0.172l1.131 0.333c0.571 0.169 0.95 0.678 0.98 1.242 0.091 0.749-0.625 3.982-1.748 7.791-1.164 3.949-2.36 7.14-2.809 7.547-0.258 0.311-0.645 0.496-1.054 0.496-0.128 0-0.258-0.018-0.388-0.056" fill="url(#b)"/></g></g></g></g><g id="eg" fill="#323232"><g id="eh" clip-path="url(#l)" fill="#323232"><g id="ei" fill="#323232"><g id="ej" fill="#323232"><path id="ek" d="m9.292 18.868-1.131-0.334c-0.262-0.078-0.454-0.277-0.535-0.518-0.248-0.409 0.529-4.03 1.803-8.353 1.176-3.984 2.382-7.238 2.9-7.886 0 0 0-1e-3 1e-3 -1e-3 0.031-0.04 0.059-0.069 0.085-0.089 0.201-0.179 0.487-0.254 0.765-0.172l1.131 0.333c0.571 0.169 0.95 0.678 0.98 1.242 0.091 0.749-0.625 3.982-1.748 7.791-1.164 3.949-2.36 7.14-2.809 7.547-0.258 0.311-0.645 0.496-1.054 0.496-0.128 0-0.258-0.018-0.388-0.056" fill="#323232"/></g></g></g></g><g id="el" fill="#646464"><g id="em" clip-path="url(#k)" fill="#646464"><g id="en" fill="#646464"><g id="eo" fill="#646464"><path id="ep" d="m6.444 17.744c-0.124-0.036-0.206-0.146-0.213-0.268-0.148-0.627 0.608-4.055 1.806-8.12 1.256-4.259 2.542-7.668 2.948-7.845 0.073-0.051 0.167-0.072 0.259-0.044l1.079 0.319c-0.521 0.664-1.723 3.907-2.894 7.877-1.274 4.323-2.051 7.944-1.803 8.353 0.011 0.032 0.028 0.06 0.042 0.089l-1.224-0.361z" fill="#646464"/></g></g></g></g></g></svg>
