<?xml version="1.0" encoding="UTF-8"?>
<svg preserveAspectRatio="xMidYMid" version="1.1" viewBox="0 0 255.93 281.88" xmlns="http://www.w3.org/2000/svg"><path d="m133.94 168.59v82.23c3.4853-0.61523 6.8409-1.818 9.9234-3.5571l68.042-39.121c9.9711-5.7504 16.12-16.38 16.135-27.891v-78.019c0-3.1663-0.52547-6.2383-1.4349-9.1823l-73.95 42.664c-15.205 10.752-18.493 20.931-18.708 32.876" fill="#FFC600"></path><path d="m253.59 77.472-26.988 15.576c0.90947 2.9373 1.4282 6.016 1.4282 9.1688v78.04c0 11.473-6.1777 22.164-16.128 27.891l-68.042 39.114c-3.0803 1.7399-6.4334 2.945-9.9166 3.5638v31.057c4.8112-0.69192 9.45-2.2801 13.676-4.6821l88.36-50.809c12.324-7.1151 19.925-20.256 19.948-34.486v-101.34c-0.016814-4.4677-0.80774-8.8988-2.3377-13.096" fill="#F6EB61"></path><path d="m127.74 142.75c4.0219-6.5684 10.018-12.234 18.634-17.657l74.442-42.954c-2.4505-3.1411-5.475-5.7883-8.9128-7.8013l-68.042-39.114c-9.9475-5.6994-22.172-5.6943-32.115 0.013474l-67.759 39.094c-3.5705 2.0547-6.5617 4.8236-9.0274 7.9764l74.092 42.752c8.6636 5.4568 14.666 11.123 18.688 17.691" fill="#439879"></path><path d="m43.992 74.326 67.759-39.094c9.9415-5.7098 22.166-5.7175 32.115-0.020211l68.042 39.128c3.5032 2.0143 6.4674 4.7158 8.9061 7.7945l26.947-15.542c-3.1686-4.2711-7.1786-7.8478-11.783-10.509l-88.36-50.809c-12.302-7.0405-27.415-7.0302-39.707 0.026947l-88.003 50.769c-4.6461 2.7173-8.6878 6.3556-11.877 10.691l26.927 15.535c2.4685-3.2143 5.5336-5.9225 9.0274-7.9764" fill="#28CDFB"></path><path d="m111.75 247.24-67.759-39.094c-9.9498-5.7541-16.084-16.37-16.101-27.864v-78.087c0-3.072 0.50526-6.0632 1.3541-8.9331l-27.001-15.582c-1.466 4.1255-2.2244 8.469-2.2434 12.847v101.42c0.021206 14.211 7.6055 27.337 19.907 34.452l87.997 50.776c4.1768 2.3983 8.7579 3.9411 13.635 4.6888v-31.077c-3.4388-0.62661-6.7477-1.8268-9.7886-3.5503" fill="#FDD757"></path><path d="m102.72 135.63-73.472-42.375c-0.84884 2.8699-1.3474 5.8611-1.3474 8.9331v78.087c0 11.466 6.1709 22.144 16.101 27.864l67.746 39.101c3.0787 1.7651 6.3933 2.8968 9.7886 3.5368v-82.21c-0.21558-11.924-3.4964-22.104-18.823-32.936" fill="#EC8B00"></path></svg>
