<?xml version="1.0" encoding="UTF-8"?>
<svg id="a" width="48pt" height="48pt" sodipodi:docbase="/home/danny/CVS/playground/edu/ksimon/icons" sodipodi:docname="ksimon.svgz" sodipodi:version="0.32" xmlns="http://www.w3.org/2000/svg" xmlns:sodipodi="http://inkscape.sourceforge.net/DTD/sodipodi-0.dtd"><sodipodi:namedview id="b" bordercolor="#666666" borderopacity="1.0" pagecolor="#ffffff"/><g id="c" transform="matrix(1.0112 0 0 1.0112 -.3369 -.3369)"><g id="d" transform="matrix(1.0987 0 0 1.0987 -2.9603 -2.9604)" fill-rule="evenodd" stroke-miterlimit="4" stroke-width="0"><path id="e" d="m29.656 29.875-9.0625 15.844c0.086507 0.050792 0.1629 0.10596 0.25 0.15625 12.986 7.4974 27.591 6.4955 32.688-2.1875l-23.875-13.812z" color="#000000" fill="#7fbb55" sodipodi:nodetypes="ccccc"/><path id="f" d="m38.781 13.938-9.125 15.938 23.875 13.812c0.015107-0.025741 0.04756-0.036624 0.0625-0.0625 5.0545-8.7546-1.4132-21.98-14.438-29.5-0.12426-0.071745-0.25044-0.11732-0.375-0.1875z" color="#000000" fill="#ee5f4c" sodipodi:nodetypes="cccccc"/><path id="g" d="m6.375 16.438c-4.9556 8.6962 1.3991 21.754 14.219 29.281l9.0625-15.844-23.281-13.438z" color="#000000" fill="#5e8fcb"/><path id="h" d="m19.781 9.1562c-5.928 0.40495-10.848 2.8415-13.375 7.2188-0.011788 0.020417-0.019587 0.042034-0.03125 0.0625l23.281 13.438 9.125-15.938c-6.4032-3.6078-13.185-5.1785-19-4.7812z" color="#000000" fill="#ffe940"/></g><path id="i" d="m43.758 37.943c-4.3846 7.5944-14.107 10.199-21.701 5.8148-7.5944-4.3846-10.199-14.107-5.8148-21.701 4.3846-7.5944 14.107-10.199 21.701-5.8148 7.5944 4.3846 10.199 14.107 5.8148 21.701z" color="#000000" fill="#3d3d3d" fill-rule="evenodd" stroke="#000" stroke-linecap="round" stroke-linejoin="round" stroke-miterlimit="4" stroke-width="2.4722"/><path id="j" d="m55.923 44.967c-5.5532 9.6185-21.674 10.72-35.983 2.458-14.31-8.2617-21.416-22.773-15.863-32.392 5.5532-9.6185 21.674-10.72 35.983-2.458 14.31 8.2617 21.416 22.773 15.863 32.392z" color="#000000" fill="none" stroke="#000" stroke-linecap="round" stroke-linejoin="round" stroke-miterlimit="4" stroke-width="2.4722"/><path id="k" d="m19.908 47.48 2.3785-4.1198" fill="none" stroke="#000" stroke-linejoin="miter" stroke-miterlimit="4" stroke-width="2.4722" sodipodi:nodetypes="cc"/><path id="l" d="m37.714 16.639 2.3785-4.1198" fill="none" stroke="#000" stroke-linejoin="miter" stroke-miterlimit="4" stroke-width="2.4722" sodipodi:nodetypes="cc"/><path id="m" d="m4.0121 14.996 12.628 7.2906" fill="none" stroke="#000" stroke-linejoin="miter" stroke-miterlimit="4" stroke-width="2.4722"/><path id="n" d="m43.361 37.714 12.628 7.2906" fill="none" stroke="#000" stroke-linejoin="miter" stroke-miterlimit="4" stroke-width="2.4722"/><g id="o" transform="matrix(.063339 .036569 -.035624 .061702 24.094 -1.3792)" fill="#ccc" fill-rule="evenodd"><path id="p" d="m182.81 241.88-25.906 25.938 22.625 35.906c-3.8174 6.6152-6.8583 13.717-9.0625 21.188l-40.906 10.562v33.094l41.125 12.875c2.1204 6.9597 5.0046 13.568 8.5312 19.781l-23.75 32.125 27.344 27.344 30.531-24.156c7.4441 4.5926 15.511 8.2274 24.094 10.719l9.4375 43.688h34.562l7.3125-42.719c8.6625-2.1669 16.853-5.5187 24.438-9.8125l32.312 23.719 25.906-28.781-5.3304-14.223-16.219 6.8438-19.951-25.745c-14.673 20.045-38.309 33.125-65.031 33.125-44.5 0-80.625-36.125-80.625-80.625 0-31.556 18.22-58.802 44.656-72.031v-19.562c-3.8757 1.5247-7.6001 3.3299-11.219 5.3125l-34.875-24.562z"/><path id="q" d="m237.18 215.21v197.99l51.405-3.5627 0.50896-83.979 63.112 91.613 51.914-17.305-64.638-90.087v-1.0179l62.603-82.452-52.932-17.305-63.112 88.051 2.5-87.542-51.361 5.5986z"/></g></g></svg>
