<?xml version="1.0" encoding="UTF-8"?>
<svg id="r" viewBox="0 0 32 32" xmlns="http://www.w3.org/2000/svg" xmlns:xlink="http://www.w3.org/1999/xlink"><defs id="s"><radialGradient id="h" cx="122.48" cy="98.431" r="47.785" gradientTransform="matrix(1.616 2.6878e-8 -2.3415e-8 1.3629 -75.451 -37.329)" gradientUnits="userSpaceOnUse"><stop id="t" stop-color="#ff0" offset="0"/><stop id="u" stop-color="#bf5e00" offset="1"/></radialGradient><radialGradient id="g" cx="113.55" cy="36.033" r="1.8462" fy="37.517" gradientUnits="userSpaceOnUse" xlink:href="#b"/><radialGradient id="e" cx="113.64" cy="33.892" r="2.1094" fx="113.51" fy="35.748" gradientTransform="matrix(1 0 0 1.8895 0 -30.148)" gradientUnits="userSpaceOnUse" xlink:href="#c"/><radialGradient id="f" cx="113.64" cy="33.892" r="2.1094" fx="113.51" fy="35.748" gradientTransform="matrix(1 0 0 1.8895 0 -30.148)" gradientUnits="userSpaceOnUse"><stop id="v" stop-color="#4d2600" offset="0"/><stop id="w" stop-color="#4d2600" stop-opacity="0" offset="1"/></radialGradient><linearGradient id="b"><stop id="x" stop-color="#fff" offset="0"/><stop id="y" stop-color="#fff" offset=".49533"/><stop id="z" stop-color="#fff" stop-opacity=".50196" offset=".71963"/><stop id="aa" stop-color="#fff" stop-opacity="0" offset="1"/></linearGradient><radialGradient id="i" cx="168.79" cy="-8.056" r="11.156" gradientTransform="matrix(2.0544 .23761 -.1003 .86718 -176.29 -35.521)" gradientUnits="userSpaceOnUse" xlink:href="#b"/><radialGradient id="j" cx="159.86" cy="-1.0311" r="24.463" gradientTransform="matrix(.54741 4.5236e-7 -2.0265e-7 .24531 70.277 6.575)" gradientUnits="userSpaceOnUse" xlink:href="#a"/><linearGradient id="n" x1="163.32" x2="162.25" y1="21.072" y2="15.322" gradientUnits="userSpaceOnUse" xlink:href="#d"/><linearGradient id="o" x1="162.32" x2="162.25" y1="15.822" y2="9.8221" gradientUnits="userSpaceOnUse"><stop id="ab" stop-color="#cee9cb" stop-opacity=".61961" offset="0"/><stop id="ac" stop-color="#37a42c" stop-opacity="0" offset="1"/></linearGradient><linearGradient id="d"><stop id="ad" offset="0"/><stop id="ae" stop-opacity="0" offset="1"/></linearGradient><linearGradient id="p" x1="148.75" x2="148.75" y1="15.25" y2="10.625" gradientUnits="userSpaceOnUse" xlink:href="#d"/><linearGradient id="q" x1="136.5" x2="142" y1="10.625" y2="10.625" gradientUnits="userSpaceOnUse" xlink:href="#a"/><linearGradient id="a"><stop id="af" stop-color="#f1f3f4" offset="0"/><stop id="ag" stop-color="#f1f3f4" stop-opacity="0" offset="1"/></linearGradient><radialGradient id="k" cx="156.12" cy="51.625" r="7.125" gradientUnits="userSpaceOnUse" xlink:href="#a"/><radialGradient id="l" cx="156.12" cy="51.625" r="7.125" gradientUnits="userSpaceOnUse"><stop id="ah" stop-color="#ffe79a" offset="0"/><stop id="ai" stop-color="#b8ff6f" stop-opacity="0" offset="1"/></radialGradient><linearGradient id="c"><stop id="aj" stop-color="#ff7e00" offset="0"/><stop id="ak" stop-color="#ff7e00" stop-opacity="0" offset="1"/></linearGradient><radialGradient id="m" cx="156.12" cy="51.625" r="7.125" gradientUnits="userSpaceOnUse" xlink:href="#c"/></defs><g id="al"><g id="am" transform="matrix(.59939 0 0 .71656 -77.398 .95895)" fill-rule="nonzero"><path id="an" d="m145.78 0 9.4302 2.5c1.6813 0 3.0349 1.3536 3.0349 3.0349v0.43019c0 1.6813-1.3536 3.0349-3.0349 3.0349h-7.1802c-1.6813 0-3.0349-1.3536-3.0349-3.0349v-0.43019c0-1.6813-7.1464-7.7849 0.78491-5.5349z" fill="#babdb6"/><path id="ao" d="m145.03 0.25 7.539 2.5c1.3442 0 2.4263 1.3536 2.4263 3.0349v0.43019c0 1.6813-1.0821 3.0349-2.4263 3.0349h-5.7402c-1.3442 0-2.4263-1.3536-2.4263-3.0349v-0.43019c0-1.6813-5.7132-7.7849 0.62749-5.5349z" fill="#d3d7cf"/><g id="ap" transform="matrix(1.4444 0 0 .81481 -87.014 -31.44)"><path id="aq" transform="matrix(.94737 0 0 .94737 8.2171 2.7171)" d="m163.25 51.625a7.125 7.125 0 1 1-14.25 0 7.125 7.125 0 1 1 14.25 0z" fill="url(#m)"/><path id="ar" transform="matrix(.64912 0 0 .64912 54.781 18.114)" d="m163.25 51.625a7.125 7.125 0 1 1-14.25 0 7.125 7.125 0 1 1 14.25 0z" fill="url(#l)"/><path id="as" transform="matrix(.45614 0 0 .45614 84.91 28.077)" d="m163.25 51.625a7.125 7.125 0 1 1-14.25 0 7.125 7.125 0 1 1 14.25 0z" fill="url(#k)"/></g><path id="at" d="m162.38 1.75c-0.80552 0-1.5945 0.034194-2.375 0.07116-0.15519 0.31451-0.25 0.64361-0.25 0.97252 0 3.2995 8.12 5.9774 18.125 5.9774 1.4441 0 2.8407-0.060646 4.1875-0.16604-1.266-3.8646-9.5908-6.855-19.688-6.855z" fill="#2e3436"/><path id="au" d="m140.53 6c-0.43484 0-0.78125 0.34641-0.78125 0.78125v7.6875c0 0.43484 0.34641 0.78125 0.78125 0.78125h4.9375c0.43484 0 0.78125-0.34641 0.78125-0.78125v-0.21875h10.719c0.43484 0 0.78125-0.34641 0.78125-0.78125v-5.6875c0-0.43484-0.34641-0.78125-0.78125-0.78125h-10.719v-0.21875c0-0.43484-0.34641-0.78125-0.78125-0.78125h-4.9375z" fill="#2e3436"/><path id="av" d="m140.53 6c-0.43484 0-0.78125 0.34641-0.78125 0.78125v7.6875c0 0.43484 0.34641 0.78125 0.78125 0.78125h4.9375c0.43484 0 0.78125-0.34641 0.78125-0.78125v-0.21875h10.719c0.43484 0 0.78125-0.34641 0.78125-0.78125v-5.6875c0-0.43484-0.34641-0.78125-0.78125-0.78125h-10.719v-0.21875c0-0.43484-0.34641-0.78125-0.78125-0.78125h-4.9375z" fill="url(#q)"/><path id="aw" d="m140.53 6c-0.43484 0-0.78125 0.34641-0.78125 0.78125v7.6875c0 0.43484 0.34641 0.78125 0.78125 0.78125h4.9375c0.43484 0 0.78125-0.34641 0.78125-0.78125v-0.21875h10.719c0.43484 0 0.78125-0.34641 0.78125-0.78125v-5.6875c0-0.43484-0.34641-0.78125-0.78125-0.78125h-10.719v-0.21875c0-0.43484-0.34641-0.78125-0.78125-0.78125h-4.9375z" fill="url(#p)"/><path id="ax" d="m160 1.8212c-8.9966 0.42608-16.139 3.2333-17.312 6.7839 9.2916 0.26869 13.812 1.5795 13.812 4.3844 0 1.1477-26.707 6.2079-22.781 9.8336 0.51419 0.022513 30.452-6.143 32.656-6.573 8.971-1.75 15.875-2.278 15.875-6.625 0-0.34641-0.07787-0.68532-0.1875-1.02-1.3468 0.10539-2.7434 0.16604-4.1875 0.16604-10.005 0-18.125-2.6779-18.125-5.9774 0-0.3289 0.09481-0.658 0.25-0.97252z" fill="#babdb6"/><path id="ay" d="m160 1.8212c-8.9966 0.42608-16.139 3.2333-17.312 6.7839 9.2916 0.26869 13.812 1.5795 13.812 4.3844 0 1.1477-26.707 6.2079-22.781 9.8336 0.51419 0.022513 30.452-6.143 32.656-6.573 8.971-1.75 15.875-2.278 15.875-6.625 0-0.34641-0.07787-0.68532-0.1875-1.02-1.3468 0.10539-2.7434 0.16604-4.1875 0.16604-10.005 0-18.125-2.6779-18.125-5.9774 0-0.3289 0.09481-0.658 0.25-0.97252z" fill="url(#o)"/><path id="az" d="m160 1.8212c-8.9966 0.42608-16.139 3.2333-17.312 6.7839 9.2916 0.26869 13.812 1.5795 13.812 4.3844 0 1.1477-26.707 6.2079-22.781 9.8336 0.51419 0.022513 30.452-6.143 32.656-6.573 8.971-1.75 15.875-2.278 15.875-6.625 0-0.34641-0.07787-0.68532-0.1875-1.02-1.3468 0.10539-2.7434 0.16604-4.1875 0.16604-10.005 0-18.125-2.6779-18.125-5.9774 0-0.3289 0.09481-0.658 0.25-0.97252z" fill="url(#n)"/><path id="ba" d="m160 1.8212c-8.9966 0.42608-16.139 3.2333-17.312 6.7839 9.2916 0.26869 13.812 1.5795 13.812 4.3844 0 1.1477-26.707 6.2079-22.781 9.8336 0.51419 0.022513 30.452-6.143 32.656-6.573 8.971-1.75 15.875-2.278 15.875-6.625 0-0.34641-0.07787-0.68532-0.1875-1.02-1.3468 0.10539-2.7434 0.16604-4.1875 0.16604-10.005 0-18.125-2.6779-18.125-5.9774 0-0.3289 0.09481-0.658 0.25-0.97252z" fill="url(#j)"/><path id="bb" d="m163.23 2.25c-0.76039 0-1.5051 0.030541-2.242 0.063558-0.14649 0.28091-0.23599 0.57486-0.23599 0.86863 0 2.9471 7.6651 5.3389 17.11 5.3389 1.3632 0 2.6816-0.054168 3.9529-0.1483-1.1951-3.4518-9.0535-6.1228-18.585-6.1228z" fill="url(#i)"/></g><g id="bc" transform="matrix(.49572 0 0 .33699 -68.009 4.9806)" fill-rule="nonzero"><path id="bd" transform="matrix(1.142 0 0 2.1762 41.64 -35.579)" d="m113.84 29.969c-0.06584 0.35562-0.00907 0.74898-0.21875 1.0625 0.02437 0.4309-0.04102 0.86777-0.25 1.25-0.03125 0.10417-0.0625 0.20833-0.09375 0.3125 0.02797-0.27212 0.01544-0.55605 0.125-0.8125v-0.125c-0.03761-0.075081-0.12769-0.19685 0-0.25 0.09708-0.285-0.07652-0.58165-0.03125-0.875l-0.03125-0.0625-0.09375 0.03125 0.08936 0.11914 0.00439 0.005858-0.14604-0.029207c-0.0479 0.106 0.05449 0.30872-0.07271 0.40421l0.0625 0.125 0.0625 0.0625c-0.01763 0.087335-0.11591 0.11653-0.15625 0.1875 0.10033 0.051263-0.10069 0.077736-0.03125 0.15625v0.0625h-0.09375c-0.12292 0.1012 0.12292 0.2738 0 0.375-0.0592-0.079242-0.23527-0.2386-0.125-0.34375 0.00708-0.13686 1.6e-4 -0.27257-0.03125-0.40625l-0.0625-0.03125c0.07912-0.010337-0.02806-0.17557 0.09375-0.0625 0.05228-0.037617 0.06336-0.1881-0.03125-0.1875-0.0565-0.022454-0.09598 0.075522-0.03125 0.09375-0.03945 0.1009-0.2579-0.055385-0.21875 0.09375 0.03914 0.026935 0.05997 0.098065 0.125 0.0625 0.06274 0.066021 0.03883 0.20585-0.0625 0.21875 0.05737 0.03802 0.11842 0.18106 0 0.1875v0.125c0.02078 0.10892-0.17422-0.10737-0.0625 0.0625 0.02257 0.069842 0.13218 0.036283 0.09375 0.125-0.06318 0.21352-0.01551 0.43803-0.03125 0.65625-0.04057 0.10688-0.10375-0.091551-0.09375-0.09375-0.11233 0.01653-0.07159-0.20426 0.03125-0.15625 0.10464-0.083325-0.06719-0.19252-0.15625-0.15625v-0.09375c-0.09297 0.02695-0.21205 0.15617-0.125 0.25-0.06009 0.11863-0.07368 0.24481-0.0625 0.375l-0.125 0.0625c0.02161 0.24807 0.17311 0.50168 0.09375 0.75 0.03266 0.11284 0.11883 0.19145 0.1875 0.28125l-0.28125 0.0625c-0.04595 0.13696 0.13379 0.20614 0.09375 0.34375l0.02921 0.14604c-0.01191 0.040313-0.14377 0.05045-0.09171 0.13522l0.03125 0.0625-0.0625 0.0625c-0.09385-0.005752 0.04537 0.14263 0.09375 0.09375-0.03646-0.046875 0.06771-0.046875 0.03125 0 0.07771-0.080314 0.25106-0.028587 0.21875 0.09375-0.08286 0.089524 0.02036 0.22298-0.0625 0.3125-0.01034-0.079119-0.17557 0.028064-0.0625-0.09375l-0.1875-0.09375c-0.01074 0.063327-0.08656 0.086451-0.0625 0.15625-0.07476 0.023502-0.08149-0.11725-0.15625-0.09375 0.02604 0.23585-0.12606 0.45134-0.09375 0.6875-0.08026 0.088855-0.22861-0.040037-0.28125 0.09375 0.12782 0.29013 0.27176 0.58253 0.28125 0.90625 0.136 0.00312 0.04378 0.20642 0.15625 0.25 0.20443 0.27259 0.48318 0.47731 0.6875 0.75 0.13722 0.067698 0.26953 0.19542 0.4375 0.15625 0.18376 0.042407 0.37595 0.10463 0.5625 0.03125 0.32509-0.016586 0.63368-0.13964 0.90625-0.3125v-0.0625c0.07084-0.029836 0.23632-0.005878 0.25-0.125 0.12346-0.2624 0.47932-0.42066 0.4375-0.75 0.08355-0.12548 0.15242-0.3628 0.34375-0.34375l0.09375-0.09375 0.0625-0.125c-0.1166 0.074432-0.28979 0.10192-0.34375 0.25h-0.03125c-0.05208-0.73958-0.10417-1.4792-0.15625-2.2188l-0.0625 0.125-0.03125 0.09375-0.0625-0.125c0.00434-0.10164-0.07926 0.058157-0.125 0l-0.03125-0.03125c0.0379-0.11013 0.12601-0.28339 0-0.375-0.09622-0.18591 0.02443-0.37381 0-0.5625 0.02698-0.47881 0.03725-0.95798 0.03125-1.4375l-0.0625 0.09375c0.02083-0.33333 0.04167-0.66667 0.0625-1-0.05444 0.49234-0.12602 0.98213-0.21875 1.4688v-0.4375c-0.05208 0.39583-0.10417 0.79167-0.15625 1.1875l-0.02921-0.14604-0.00204-0.010215v0.4375l-0.125-0.03125h-0.125c0.04167-0.10417 0.08333-0.20833 0.125-0.3125l-0.0625-0.0625c-0.11802 0.043766-0.29786-0.11664-0.1875-0.21875h0.09375c0.0782 0.028425-0.01066-0.087895 0.0625-0.09375 0.03103 0.054962 0.12045 0.10132 0.09375 0 0.06309 0.031957 0.10672-0.1226 0-0.0625l-0.03125 0.0625c0.02515-0.039139-0.0131-0.11243-0.0625-0.09375-0.08518-0.12685 0.00463-0.2731 0-0.40625l0.03125-0.0625c0.05873-0.003945 0.16387 0.028344 0.03125-0.125-0.00995-0.12506 0.02534-0.25568-0.03125-0.375l0.02921-0.14604c0.02747-0.043993 0.17812 0.046497 0.12704-0.072715 0.03405 0.078957 0.1715 0.020459 0.125-0.0625 0.01218-0.050748-0.08694-0.17732 0-0.21875h-0.09375c-0.08949 0.03756 0.02821-0.14633 0-0.125l0.03125-0.09375c0.08252-0.063882-0.00278-0.19728 0.03125-0.28125h-0.03125c-0.1093 0.28667-0.20355 0.57818-0.28125 0.875-0.11599 0.096349-0.20353 0.21602-0.28125 0.34375-0.1176-0.073527 0.10944-0.2093 0-0.28125-0.06666 0.035256-0.18722 0.1987-0.25 0.0625 0.0503-0.091963-0.1128-0.095537-0.0625-0.1875 0.17326 0.023681 0.09828-0.24408 0.21875-0.3125 0.06835-0.23565-0.00692-0.48319 0.0625-0.71875-0.01155-0.15004-0.0486-0.29463-0.09375-0.4375l-0.03125 0.0625zm-0.59375 0.53125c-0.00809-0.028608-0.02771-0.14805-0.09375-0.125v-0.0625c-0.10464-0.03646-0.17816 0.079409-0.09375 0.15625 0.02798 0.013685 0.11479-0.031454 0.09375 0.03125h0.09375zm0.84375 1.3125c0.10822 0.10494-0.08255 0.24824-0.03125 0.375l-0.0625 0.125-0.0625 0.09375c-0.07113-0.020833 0.00863-0.10417-0.0625-0.125-0.04834-0.14077 0.12768-0.27938 0.03125-0.40625 0.05935-0.033995 0.08068 0.12678 0.125 0.03125v-0.09375h0.0625zm0.875 2.4375h0.03125c-0.05208 0.1875-0.10417 0.375-0.15625 0.5625l0.09375-0.5625h0.03125z" fill="url(#f)"/><path id="be" transform="matrix(.9759 0 0 1.8596 60.458 -24.566)" d="m113.19 31.469c0.00137 0.008468 0.00108 0.022889 0 0.03125-0.00403 0.002564 0.00333 0.029407 0 0.03125v0.0625c0.00128 0.010377 0.00128 0.020873 0 0.03125 0.00128 0.010377 0.00128 0.020873 0 0.03125-0.00852 0.012153-0.0191 0.022727-0.03125 0.03125-0.01753 0.016022-0.03917 0.026843-0.0625 0.03125 0.01536 0.034225 0.02389 0.094927 0.03125 0.15625s-0.00188 0.13759-0.0625 0.1875c-0.00852 0.012153-0.0191 0.022727-0.03125 0.03125-0.01038 0.001279-0.02087 0.001279-0.03125 0-0.01038 0.001279-0.02087 0.001279-0.03125 0-0.01038 0.001279-0.02087 0.001279-0.03125 0-0.01038 0.001279-0.02087 0.001279-0.03125 0-0.01215-0.008523-0.02273-0.019097-0.03125-0.03125-0.00128-0.010377-0.00128-0.020873 0-0.03125-0.00891-0.011933-0.06883-0.032562-0.09375-0.0625-0.0392 0.16794-0.01469 0.36413-0.03125 0.59375 0.00128 0.010377 0.00128 0.020873 0 0.03125-0.00935 0.024635-0.03073 0.066476-0.0625 0.09375s-0.08294 0.044476-0.125 0.03125c-0.08413-0.026451-0.10935-0.06461-0.125-0.09375s-0.02382-0.068884-0.03125-0.09375c-0.00371-0.012433 0.00234-0.016294 0-0.03125-4.2e-4 0.001903-0.03085-0.001911-0.03125 0-0.01244 0.05923-0.03711 0.11931-0.03125 0.1875 0.00128 0.010377 0.00128 0.020873 0 0.03125 0.00128 0.010377 0.00128 0.020873 0 0.03125-0.00852 0.012153-0.0191 0.022727-0.03125 0.03125-0.01038 0.001279-0.02087 0.001279-0.03125 0 0.00128 0.010377 0.00128 0.020873 0 0.03125l-0.03125 0.03125c0.01678 0.080811 0.03894 0.15361 0.0625 0.25 0.02802 0.11465 0.02658 0.2403 0 0.375 0.02038 0.070413 0.07811 0.14781 0.15625 0.25 0.01215 0.008523 0.02273 0.019097 0.03125 0.03125 0.00128 0.010377 0.00128 0.020873 0 0.03125 0.00128 0.010377 0.00128 0.020873 0 0.03125-0.00852 0.012153-0.0191 0.022727-0.03125 0.03125 0.00128 0.010377 0.00128 0.020873 0 0.03125-0.00852 0.012153-0.0191 0.022727-0.03125 0.03125-0.01038 0.001279-0.02087 0.001279-0.03125 0l-0.15625 0.03125c0.01688 0.02548 0.04489 0.07808 0.0625 0.125 0.01057 0.028152-1e-5 0.057354 0 0.09375 1e-5 0.024264 0.00719 0.037788 0 0.0625l0.03125 0.09375c0.00128 0.010377 0.00128 0.020873 0 0.03125 0.00128 0.010377 0.00128 0.020873 0 0.03125-0.01427 0.048315-0.04044 0.048461-0.0625 0.0625-0.00551 0.00351 0.00485 0.028749 0 0.03125 0.00128 0.010377 0.00128 0.020873 0 0.03125 0.00128 0.010377 0.00128 0.020873 0 0.03125 0.04997-0.008794 0.0787-0.017178 0.125 0s0.09417 0.044129 0.125 0.09375 0.0471 0.1275 0.03125 0.1875c-0.00441 0.023332-0.01523 0.044975-0.03125 0.0625-0.00197 0.002126-0.00509 0.006756 0 0.0625s0.01839 0.1626-0.0625 0.25c-0.00852 0.012153-0.0191 0.022727-0.03125 0.03125-0.01038 0.001279-0.02087 0.001279-0.03125 0-0.01038 0.001279-0.02087 0.001279-0.03125 0-0.01038 0.001279-0.02087 0.001279-0.03125 0-0.01038 0.001279-0.02087 0.001279-0.03125 0-0.00128-0.010377-0.00128-0.020873 0-0.03125-0.00521 3.07e-4 -0.02281 6.7e-5 -0.03125 0s-0.01481 0.004006-0.03125 0c-0.00822-0.002003-0.01977 0.005702-0.03125 0-0.00574-0.002851-0.03089-0.030996-0.03125-0.03125-2.3e-4 -2.41e-4 0.00564-0.022178 0-0.03125-0.00282-0.004536-0.02844 0.004544-0.03125 0 0.00128 0.010377 0.00128 0.020873 0 0.03125-0.00852 0.012153-0.0191 0.022727-0.03125 0.03125-0.01038 0.001279-0.02087 0.001279-0.03125 0-0.03324 0.01045-0.05947-0.021042-0.09375-0.03125-0.01147 0.065123-0.01596 0.13133-0.03125 0.1875-0.03058 0.11234-0.04305 0.19502-0.03125 0.28125 0.00128 0.010377 0.00128 0.020873 0 0.03125 0.00128 0.010377 0.00128 0.020873 0 0.03125-0.00441 0.023332-0.01523 0.044975-0.03125 0.0625-0.04349 0.048145-0.11 0.058052-0.15625 0.0625-0.01542 0.001483-0.01848 2.58e-4 -0.03125 0 0.10501 0.23503 0.19681 0.49809 0.21875 0.78125 0.01818 0.014014 0.05219 0.014253 0.0625 0.03125 0.03092 0.050991 0.02687 0.094001 0.03125 0.125 0.00219 0.015499-0.00176 0.0214 0 0.03125 0.01215 0.008523 0.02273 0.019097 0.03125 0.03125 0.00128 0.010377 0.00128 0.020873 0 0.03125 0.1769 0.23588 0.44466 0.42438 0.65625 0.6875 0.08259 0.040745 0.12937 0.09603 0.1875 0.125s0.1094 0.042175 0.15625 0.03125c0.01038-0.001279 0.02087-0.001279 0.03125 0 0.01038-0.001279 0.02087-0.001279 0.03125 0 0.19142 0.044176 0.36416 0.084683 0.5 0.03125 0.01038-0.001279 0.02087-0.001279 0.03125 0 0.2739-0.013974 0.53844-0.10619 0.78125-0.25-0.00128-0.010377-0.00128-0.020873 0-0.03125-0.00128-0.010377-0.00128-0.020873 0-0.03125 0.00852-0.012153 0.0191-0.022727 0.03125-0.03125 0.00852-0.012153 0.0191-0.022727 0.03125-0.03125 0.07949-0.03348 0.15497-0.023339 0.1875-0.03125-0.00128-0.010377-0.00128-0.020873 0-0.03125 0.07765-0.16504 0.22116-0.27043 0.3125-0.375s0.13988-0.16404 0.125-0.28125c-0.00128-0.010377-0.00128-0.020873 0-0.03125-0.00128-0.010377-0.00128-0.020873 0-0.03125 0.00852-0.012153 0.0191-0.022727 0.03125-0.03125 0.02262-0.033967 0.05431-0.12108 0.09375-0.1875-0.00128-0.010377-0.00128-0.020873 0-0.03125-0.00128-0.010377-0.00128-0.020873 0-0.03125-0.044-0.62483-0.081-1.2502-0.125-1.875-0.01038 0.001279-0.02087 0.001279-0.03125 0-0.04059 0.14613-0.08441 0.29137-0.125 0.4375-0.00441 0.023332-0.01523 0.044975-0.03125 0.0625-0.00852 0.012153-0.0191 0.022727-0.03125 0.03125-0.01038 0.001279-0.02087 0.001279-0.03125 0-0.01038 0.001279-0.02087 0.001279-0.03125 0-0.01038 0.001279-0.02087 0.001279-0.03125 0-0.01038 0.001279-0.02087 0.001279-0.03125 0-0.01215-0.008523-0.02273-0.019097-0.03125-0.03125-0.01602-0.017525-0.02684-0.039168-0.03125-0.0625-0.00128-0.010377-0.00128-0.020873 0-0.03125-0.00128-0.010377-0.00128-0.020873 0-0.03125l0.09375-0.5625c-0.00128-0.010377-0.00128-0.020873 0-0.03125-0.01038 0.001279-0.02087 0.001279-0.03125 0-0.00128-0.010377-0.00128-0.020873 0-0.03125-0.00128-0.010377-0.00128-0.020873 0-0.03125-0.00128-0.010377-0.00128-0.020873 0-0.03125 0.02215-0.06438 0.05535-0.14303 0.0625-0.1875s0.02056-0.047552 0-0.0625c-0.01038 0.001279-0.02087 0.001279-0.03125 0-0.01215-0.008523-0.02273-0.019097-0.03125-0.03125-0.06621-0.12792-0.04758-0.27341-0.03125-0.375s0.03933-0.15632 0.03125-0.21875c-0.00128-0.010377-0.00128-0.020873 0-0.03125 0.01458-0.25871 0.02642-0.5223 0.03125-0.78125-0.01038 0.001279-0.02087 0.001279-0.03125 0-0.00135 0.010239 0.00135 0.021011 0 0.03125-0.02883 0.21907-0.06493 0.43718-0.09375 0.65625 0.00128 0.010377 0.00128 0.020873 0 0.03125-0.01038 0.001279-0.02087 0.001279-0.03125 0v0.03125 0.1875c0.00128 0.010377 0.00128 0.020873 0 0.03125 0.00128 0.010377 0.00128 0.020873 0 0.03125-0.00852 0.012153-0.0191 0.022727-0.03125 0.03125-0.01753 0.016022-0.03917 0.026843-0.0625 0.03125-0.01038 0.001279-0.02087 0.001279-0.03125 0-0.01038 0.001279-0.02087 0.001279-0.03125 0l-0.09375-0.03125h-0.03125-0.09375c-0.01038 0.001279-0.02087 0.001279-0.03125 0-0.01038 0.001279-0.02087 0.001279-0.03125 0-0.01215-0.008523-0.02273-0.019097-0.03125-0.03125-0.01602-0.017525-0.02684-0.039168-0.03125-0.0625-0.00128-0.010377-0.00128-0.020873 0-0.03125-0.00128-0.010377-0.00128-0.020873 0-0.03125-0.00128-0.010377-0.00128-0.020873 0-0.03125 0.02443-0.06106 0.03808-0.12644 0.0625-0.1875-0.05361-0.017487-0.11839-0.054668-0.15625-0.09375s-0.05522-0.090583-0.0625-0.15625 0.00997-0.1389 0.0625-0.1875c0.01038-0.001279 0.02087-0.001279 0.03125 0 0.00852-0.012153 0.0191-0.022727 0.03125-0.03125 0.01038-0.001279 0.02087-0.001279 0.03125 0 0.00186-0.004269 0.02889 0.004367 0.03125 0 0.00355-0.00655-0.00469-0.024853 0-0.03125-0.04463-0.089632-0.04281-0.17891-0.03125-0.25l-0.03125 0.0625c-0.01038 0.001279-0.02087 0.001279-0.03125 0l-0.0625 0.09375c0.00128 0.010377 0.00128 0.020873 0 0.03125-0.00852 0.012153-0.0191 0.022727-0.03125 0.03125-0.01038 0.001279-0.02087 0.001279-0.03125 0-0.01038 0.001279-0.02087 0.001279-0.03125 0-0.01038 0.001279-0.02087 0.001279-0.03125 0-0.04026-0.011792-0.07257-0.084488-0.09375-0.125-0.00303-0.005787-0.02934 0.005802-0.03125 0-0.00763-0.023209 9e-5 -0.016795 0-0.03125-0.01215-0.008523-0.02273-0.019097-0.03125-0.03125-0.00128-0.010377-0.00128-0.020873 0-0.03125-0.04382-0.12762 0.00742-0.21861 0.03125-0.28125 0.01192-0.031322 0.03063-0.053099 0.03125-0.0625s6e-3 -0.023362 0-0.03125c-0.01215-0.008523-0.02273-0.019097-0.03125-0.03125-0.00128-0.010377-0.00128-0.020873 0-0.03125-0.00128-0.010377-0.00128-0.020873 0-0.03125 0.00852-0.012153 0.0191-0.022727 0.03125-0.03125-0.00128-0.010377-0.00128-0.020873 0-0.03125 0.00852-0.012153 0.0191-0.022727 0.03125-0.03125-0.02101 0.004395-0.03594 0.004113-0.0625 0-0.03031-0.004695-0.03834-0.043714-0.0625-0.0625-0.03984 0.21297-0.11509 0.4285-0.21875 0.625-0.00287 0.009557 0.00287 0.021693 0 0.03125-0.02838 0.09461-0.06537 0.18664-0.09375 0.28125 0.00128 0.010377 0.00128 0.020873 0 0.03125-0.00852 0.012153-0.0191 0.022727-0.03125 0.03125-0.00852 0.012153-0.0191 0.022727-0.03125 0.03125-0.01038 0.001279-0.02087 0.001279-0.03125 0-0.01038 0.001279-0.02087 0.001279-0.03125 0-0.01038 0.001279-0.02087 0.001279-0.03125 0-0.01038 0.001279-0.02087 0.001279-0.03125 0-0.01215-0.008523-0.02273-0.019097-0.03125-0.03125-0.00128-0.010377-0.00128-0.020873 0-0.03125-0.01215-0.008523-0.02273-0.019097-0.03125-0.03125-0.00128-0.010377-0.00128-0.020873 0-0.03125 0.02483-0.24156 0.02627-0.54051 0.125-0.8125v-0.0625c-0.0129-0.025749-0.04309-0.076131-0.0625-0.15625-0.00582-0.024036-0.00309-0.06275 0-0.09375-0.00468 0.006251-0.02677-0.004033-0.03125 0zm1.0312 0.21875c-0.00868 0.011091-0.02284 0.019752-0.03125 0.03125 0.05095 0.049412 0.06612 0.12887 0.0625 0.1875-0.00412-0.10277-0.02197-0.1599-0.03125-0.21875zm0.1875 0.96875c0.05433 0.030301 0.07202 0.025887 0.0625 0.03125v-0.03125h-0.0625z" fill="url(#e)"/><path id="bf" transform="matrix(.7641 0 0 1.6752 84.556 -17.007)" d="m115.4 36.033a1.8462 1.8462 0 1 1-3.6924 0 1.8462 1.8462 0 1 1 3.6924 0z" fill="url(#g)"/></g><g id="bg" transform="matrix(.12765 0 0 .13064 .74702 13.067)"><path id="bh" d="m109.19 72.562c-1.8748 0.40303-3.5801 1.341-5.1562 2.4062-0.9886 0.32552-1.7337 1.082-2.5 1.75-1.1013 0.40354-2.2784-0.12339-3.4033 0.13818-1.2601 0.043574-2.3465 0.85337-2.9873 1.8982-0.68644 0.89741-1.565 1.6082-2.5352 2.1729-1.7843 1.4306-2.7429 3.5944-3.3978 5.7285-0.64834 1.7465-1.542 3.7875-3.5202 4.3121-0.99916 0.28542-2.1968 0.48999-2.7053 1.5266-0.64254 0.97985-0.76151 2.4505 0.18845 3.2797 1.4042 1.8523 2.6148 3.8403 3.9157 5.7602 0.56338 0.70855 1.1049 1.4836 1.9136 1.9335 1.4198 0.09347 1.9959-1.5222 3.1634-2.0302 1.8866-0.99133 4.3782-0.63923 5.9304 0.81145 1.5005 3.2981 0.65921 7.0046 1.2812 10.469 0.084694 1.7823-1.0725 3.5866-2.8273 4.0704-2.7279 1.1672-5.7899 0.70032-8.5789 0.02331-1.0303-0.22162-2.1136-0.21673-3.125 0.09375-1.0811 1.2002-0.7642 2.9269-1.1875 4.375-0.2192 1.5631-0.052823 3.4609-1.4062 4.5625-0.73855 0.6656-1.7888 1.4691-1.5938 2.5938 0.66454 1.7697 2.6774 2.2456 4.2188 2.9688 1.4067 0.54504 2.822 1.2238 4.3087 1.4471 1.3788-0.1492 2.5237-1.1114 3.3163-2.1971 1.1359-0.77209 2.419 0.15486 3.5938 0.3125 2.251 0.46585 4.8751 0.30281 6.6562 2 1.2245 1.3051 0.63487 3.5396 2.1562 4.6562 1.5863 1.3043 3.8312 0.85115 5.5938 0.1875 1.5243-0.49881 3.5167-0.56802 4.6562 0.75 0.68913 0.67524 2.0598 1.107 2.7119 0.15858 1.4075-1.6698 3.042-3.5017 5.3506-3.7523 1.4357-0.20356 2.9553-0.03526 4.3125-0.625 0.88478-0.98959 0.20362-2.367-0.28125-3.375-0.70209-1.7924-1.9106-3.5538-1.6875-5.5625 0.52633-1.1976 2.1948-1.5182 3.2188-0.78125 2.052 0.89334 3.4905 2.6696 5.0312 4.2188 0.9519 0.51406 1.914-0.39174 2.4375-1.125 1.4493-1.1798 3.487-0.81635 5.0938-0.1875 0.91374 0.22078 2.2079 0.21124 2.5625 1.2812 0.59711 1.7865 0.66577 3.9718 2.2812 5.2188 0.82259 0.93629 2.4732 1.4094 3.4062 0.375 2.2977-1.6964 4.3697-4.1342 4.5938-7.0938-0.01057-1.4852-0.48382-2.9405-1.2812-4.1875-0.49914-1.4575 0.72207-2.7993 1.8125-3.5938 2.3709-1.7857 5.0827-3.0276 7.5938-4.5938 1.2863-1.3944 1.0529-3.4729 0.375-5.0938-0.74649-2.5208-0.19848-5.234 0.94788-7.545 0.51535-1.0754 0.46657-2.7422-0.75807-3.3076-2.0938-1.4502-4.8673-1.0433-7.1203-0.21503-2.7421 0.97083-5.5613 1.788-8.161 3.1078-1.5061 0.88793-2.6997 2.656-2.2249 4.4553 0.2607 1.6654 0.80779 3.2798 1.1364 4.9258 0.35527 0.76635 0.80278 1.953-0.1013 2.5163-0.87632 0.54544-2.1116 0.48875-2.7246 1.4433-0.80128 0.81922-1.2755 1.9301-1.4317 3.0567-0.59723 0.9899-1.7683 1.4251-2.4062 2.375-1.2716 0.98304-2.8965 0.15147-4.2391-0.21144-2.7695-0.85102-5.5986 0.34312-8.0572 1.5625-2.3293 0.95759-4.813 1.4397-7.2662 1.9614-1.0218 0.06165-2.0919 0.08586-2.9688 0.6875-0.99216 0.58048-2.1274 0.28818-2.9369-0.4438-1.0142-0.68358-2.0245-1.439-3.2506-1.6812-1.185-0.45088-1.3156-2.1686-2.6482-2.3574-1.1168-0.26809-2.5038-0.17761-3.2326-1.2422-0.86334-0.96118-1.8915-1.7893-3.1284-2.2019-0.90205-0.56008-0.66717-1.7358-0.35863-2.567 0.39055-1.4422 0.37855-2.9569 0.04816-4.4058-0.11691-1.275-0.2994-2.5429-0.39905-3.8195 0.48399-1.5164 2.2476-2.0337 3.6875-2.0312 2.5221-0.14455 5.3181-0.45231 7.1875-2.3438 2.2183-2.0315 3.2594-5.1635 2.875-8.125 0.04359-1.1501 1.2694-1.7236 2.1655-2.1765 1.6028-0.66816 2.4916-2.3874 2.5138-4.0678-0.03511-1.3358-0.27775-2.6584-0.29445-3.9957 0.03473-1.393-0.74135-2.7-1.9088-3.4322-1.3806-1.0282-2.742-2.1801-3.5496-3.7302-0.8606-1.1644-1.2221-2.8762-2.6764-3.4725-0.69639-0.25759-1.4992-0.10529-2.2188 0z" fill="#382509" fill-rule="nonzero"/><path id="bi" transform="matrix(.55853 0 0 .45713 54.08 56.365)" d="m170.27 110.4a47.785 47.785 0 1 1-95.569 0 47.785 47.785 0 1 1 95.569 0z" fill="url(#h)" fill-rule="nonzero"/><path id="bj" d="m145 109.58c3.7637-4.8026 3.3278-12.109-0.99224-16.293-3.2928-3.1893-7.8886-3.6465-11.554-1.5613 1.8913 0.3138 6.76 1.1738 8.3077 2.6729 4.32 4.1841 4.901 10.008 1.1373 14.81-0.89995 1.1484-5.1302 3.5398-6.2812 4.1911 3.397 0.57533 6.9599-0.72866 9.3826-3.8201z" fill="#974a00" fill-rule="nonzero"/><path id="bk" d="m96.862 99.017c-0.18295 1.3364-0.28768 2.7085-0.28768 4.0983 0 15.616 11.95 28.285 26.682 28.285 14.732 0 26.706-12.669 26.706-28.285 0-1.3899-0.10473-2.762-0.28767-4.0983-1.8727 13.679-12.997 24.186-26.418 24.186s-24.522-10.507-26.394-24.186z" fill="#803f00" fill-rule="nonzero"/><path id="bl" d="m104.36 90.221c-4.7888 1.7259-7.2916 7.0153-5.5656 11.804 1.3156 3.6501 4.7048 5.9561 8.3607 6.0849-1.3459-1.0367-4.7903-3.7419-5.4087-5.4575-1.7259-4.7888 0.0878-9.1058 4.8766-10.832 1.145-0.4127 5.3583-0.25351 6.5049-0.21069-2.4128-1.8702-5.6853-2.5001-8.7678-1.3891z" fill="#974a00" fill-rule="nonzero"/><path id="bm" d="m113.03 118.89c4.1661 3.9489 11.714 4.5624 16.836 1.3504 3.904-2.4483 5.2735-6.4093 3.8636-9.9022-0.69191 1.613-2.5264 5.758-4.3614 6.9088-5.1218 3.212-11.184 2.9274-15.35-1.0215-0.99616-0.94424-2.6079-4.9733-3.0471-6.0695-1.2547 2.8954-0.62255 6.1921 2.0592 8.734z" fill="#590000" fill-rule="nonzero"/><path id="bn" d="m100.87 105.02c-0.8919 5.0115 2.4449 9.8186 7.4564 10.71 3.82 0.67983 7.5088-1.108 9.4435-4.2127-1.5698 0.64967-5.6322 2.2864-7.4277 1.9668-5.0115-0.8919-7.8491-4.6168-6.9572-9.6283 0.21326-1.1983 2.4522-4.771 3.0611-5.7435-2.8242 1.1588-5.0021 3.6813-5.5762 6.9073z" fill="#ac4311" fill-rule="nonzero"/><path id="bo" d="m134.43 116.97c5.0899 0.05905 9.2856-4.02 9.3446-9.1099 0.045-3.8797-2.3229-7.226-5.7026-8.626 0.898 1.4421 3.1779 5.1817 3.1568 7.0052-0.05904 5.09-3.2688 8.4993-8.3588 8.4402-1.2171-0.01412-5.1082-1.6377-6.1673-2.079 1.6058 2.5963 4.4509 4.3316 7.7273 4.3696z" fill="#590000" fill-rule="nonzero"/><path id="bp" d="m135.35 89.207c-1.2866-2.4946-5.6693-3.8945-9.7814-3.114-3.1344 0.59493-5.2069 2.2832-5.4479 4.1559 0.92533-0.66777 3.3375-2.3756 4.8107-2.6552 4.1121-0.78052 7.6974 0.2446 8.984 2.7392 0.30764 0.5965 0.02082 2.7546-0.05681 3.3418 1.6687-1.1969 2.3196-2.8619 1.4914-4.4677z" fill="#974a00" fill-rule="nonzero"/><path id="bq" d="m114.34 104.62c-3.5414-1.0046-3.2041-4.4642-2.3835-7.7464 0.62627-2.505 5.2414 0.62626 7.7464 0 3.4422-0.86054 3.6568 0.63666 5.9588 1.7876 3.1288 1.5644-2.192 5.7673-2.3835 5.9588-1.7782 1.7782-6.9783 0-8.9382 0z" fill="#ff9" fill-rule="evenodd"/><path id="br" d="m124.47 94.489c-2.3124 0.57809 5.4652-1.6854 7.1506 0 3.1809 3.1809-4.1291 3.1389-4.767 2.9794-1.2338-0.30846-1.589-1.9863-2.3835-2.9794z" fill="#ff9" fill-rule="evenodd"/><path id="bs" d="m117.91 107.6c-2.916-0.729 6.0222-0.46275 8.9382-1.1918 2.6632-0.66581 3.3348-0.48103 4.767 2.3835 1.7306 3.4611 0.44415 4.8781-2.3835 4.1712-3.3225-0.83062-4.2108 0.03963-5.9588 1.7876-0.20733 0.20733-4.5978-4.0019-4.767-4.1712-0.71616-0.71616-0.39726-1.9863-0.59588-2.9794z" fill="#ffd500" fill-rule="evenodd"/><path id="bt" d="m120.57 93.736c-0.72618 1.2103-4.7646 1.2404-6.343 0.84574-2.7547-0.68866-0.02606-2.5242 0.84573-2.9601 1.8628-0.9314 3.2374-1.4073 4.6516-2.1144 2.4818-1.2409 2.4935 0.67073 2.9601 2.5372 0.2189 0.87562-1.4096 1.1277-2.1144 1.6915z" fill="#ff9" fill-rule="evenodd"/><path id="bu" transform="translate(116.51)" d="m-9.3125 78.688c-2.0796 0-3.8382 1.3994-4.4375 3.2812-0.74821 0.73422-1.2243 1.7451-1.3438 2.8438-0.69938-0.41932-1.5008-0.6875-2.375-0.6875-1.7834 0-3.3416 1.0273-4.125 2.5-1.4727 0.78344-2.5 2.3416-2.5 4.125 0 2.5726 2.1149 4.6562 4.6875 4.6562 1.7888 0 3.3126-1.02 4.0938-2.5 0.44212-0.23335 0.84372-0.518 1.1875-0.875 0.85348 1.0864 2.1373 1.8125 3.625 1.8125 1.8946 0 3.5528-1.1256 4.2812-2.75 0.59151 0.27189 1.2442 0.4375 1.9375 0.4375 2.5726 0 4.6563-2.1149 4.6562-4.6875 0-2.1023-1.3988-3.8575-3.3125-4.4375-0.58003-1.9137-2.3352-3.3125-4.4375-3.3125-0.021226 0-0.041341-2.83e-4 -0.0625 0-0.57472-0.25364-1.2068-0.40625-1.875-0.40625zm46.219 24.469c-1.8808 0-3.5138 1.1446-4.25 2.75-0.30672 0.27096-0.58568 0.56391-0.8125 0.90625-2.011 0.51669-3.5 2.3285-3.5 4.5 0 0.71617 0.17972 1.3935 0.46875 2-0.53281 0.75763-0.84375 1.6916-0.84375 2.6875 0 0.02123-2.83e-4 0.04134 0 0.0625-1.1794 0.20027-2.2055 0.84041-2.9062 1.75-0.80062-0.64819-1.8279-1.0625-2.9375-1.0625-2.5726 0-4.6562 2.1149-4.6562 4.6875 0 2.5726 2.0836 4.6562 4.6562 4.6562 0.86737 0 1.6793-0.27426 2.375-0.6875-0.0058 0.09513-0.03125 0.18467-0.03125 0.28125 0 2.5726 2.0836 4.6562 4.6562 4.6562 2.5726 0 4.6563-2.0836 4.6562-4.6562 0-0.74891-0.18567-1.4353-0.5-2.0625 2.0744-0.47159 3.625-2.3148 3.625-4.5312 0-0.35615-0.049222-0.69793-0.125-1.0312 0.31143-0.6249 0.5-1.3173 0.5-2.0625 0-0.14964-0.017436-0.29145-0.03125-0.4375 0.14151 0.01296 0.29262 0.03125 0.4375 0.03125 2.5726 0 4.6562-2.0836 4.6562-4.6562 0-0.98065-0.32578-1.874-0.84375-2.625 0.016024-0.15711 0.0625-0.30743 0.0625-0.46875 0-2.5726-2.0836-4.6875-4.6562-4.6875zm-50.125 14.375c-1.3906 0-2.6146 0.62687-3.4688 1.5938-1.6394 0.13299-3.0298 1.1091-3.75 2.5-0.84215-0.83346-1.9725-1.375-3.25-1.375-2.5726 0-4.6562 2.0836-4.6562 4.6562s2.0836 4.6875 4.6562 4.6875c1.7909 0 3.3135-1.0484 4.0938-2.5312 0.84355 0.84355 1.9949 1.3438 3.2812 1.3438 0.42624 0 0.82641-0.08016 1.2188-0.1875 0.2953 2.2889 2.2249 4.0938 4.5938 4.0938 0.80394 0 1.5584-0.23488 2.2188-0.59375 0.85465 1.0556 2.162 1.75 3.625 1.75 0.031839 0 0.062062 6.4e-4 0.09375 0 0.8471 1.1687 2.2286 1.9375 3.7812 1.9375 2.5726 0 4.6562-2.0836 4.6562-4.6562 0-1.0125-0.32593-1.9542-0.875-2.7188-0.37471-2.1978-2.2584-3.875-4.5625-3.875-0.085966 0-0.16518 0.02665-0.25 0.03125-0.62737-1.833-2.3615-3.1562-4.4062-3.1562-0.87425 0-1.6756 0.26818-2.375 0.6875-0.23952-2.3484-2.2137-4.1875-4.625-4.1875z" fill="#57401e" fill-rule="nonzero"/></g></g></svg>
