<?xml version="1.0" encoding="UTF-8"?>
<svg id="y" version="1.0" viewBox="0 0 128 128" xmlns="http://www.w3.org/2000/svg" xmlns:xlink="http://www.w3.org/1999/xlink"><defs id="z"><linearGradient id="a"><stop id="aa" offset="0"/><stop id="ab" stop-opacity="0" offset="1"/></linearGradient><linearGradient id="b"><stop id="ac" offset="0"/><stop id="ad" stop-color="#090909" stop-opacity=".6787" offset=".70879"/><stop id="ae" stop-color="#131313" stop-opacity="0" offset="1"/></linearGradient><radialGradient id="j" cx="15.727" cy="58.09" r="2.6144" gradientTransform="matrix(2.3313 2.4033 -34.47 34.185 2042.5 -1974.9)" gradientUnits="userSpaceOnUse"><stop id="af" stop-color="#ff2626" offset="0"/><stop id="ag" stop-color="#ff2626" offset=".5"/><stop id="ah" stop-color="#a70000" offset=".75"/><stop id="ai" stop-color="#bf0303" offset="1"/></radialGradient><radialGradient id="i" cx="89.455" cy="100.75" r="47.746" gradientTransform="matrix(.08087 .081028 -1.0354 1.041 187.6 -63.008)" gradientUnits="userSpaceOnUse"><stop id="aj" stop-color="#bf0303" offset="0"/><stop id="ak" stop-color="#590000" offset=".5"/><stop id="al" stop-color="#590000" offset="1"/></radialGradient><radialGradient id="h" cx="34.678" cy="7.4623" r="47.595" gradientTransform="matrix(.99991 -.0078416 .00056661 .020483 -.0012422 7.5814)" gradientUnits="userSpaceOnUse"><stop id="am" stop-color="#f50000" stop-opacity=".68235" offset="0"/><stop id="an" stop-color="#fff" stop-opacity="0" offset="1"/></radialGradient><radialGradient id="g" cx="34.678" cy="7.4623" r="47.595" gradientTransform="matrix(-1.5103 .0026413 -.00011671 -.0091102 87.052 7.4387)" gradientUnits="userSpaceOnUse"><stop id="ao" stop-color="#fff" offset="0"/><stop id="ap" stop-color="#fff" stop-opacity="0" offset="1"/></radialGradient><radialGradient id="f" cx="49.01" cy="8.4953" r="3.975" fx="47.371" fy="6.7702" gradientTransform="matrix(1.6761 1.6952 -.63654 .63396 34.183 -71.321)" gradientUnits="userSpaceOnUse"><stop id="aq" stop-color="#fff" offset="0"/><stop id="ar" stop-color="#aeaeae" offset="1"/></radialGradient><linearGradient id="r" x1="48.915" x2="48.913" y1="2.9719" y2="2.5548" gradientTransform="matrix(2.3839 0 0 2.3846 -26.412 -87.078)" gradientUnits="userSpaceOnUse"><stop id="as" stop-color="#252525" offset="0"/><stop id="at" stop-color="#252525" stop-opacity="0" offset="1"/></linearGradient><radialGradient id="e" cx="49.012" cy="2.6743" r="1.7246" gradientTransform="matrix(2.3839 0 0 .2901 -26.412 -81.54)" gradientUnits="userSpaceOnUse"><stop id="au" stop-color="#fff" offset="0"/><stop id="av" stop-color="#252525" stop-opacity="0" offset="1"/></radialGradient><linearGradient id="q" x1="48.499" x2="48.733" y1=".8115" y2="2.3657" gradientTransform="matrix(1.6761 1.6952 -1.6895 1.6827 43.128 -80.23)" gradientUnits="userSpaceOnUse"><stop id="aw" stop-color="#fff" offset="0"/><stop id="ax" stop-color="#fff" stop-opacity="0" offset="1"/></linearGradient><linearGradient id="p" x1="46.052" x2="46.052" y1="3.1" y2="2.3959" gradientTransform="matrix(2.3708 0 0 2.3846 -25.791 -87.078)" gradientUnits="userSpaceOnUse" xlink:href="#b"/><radialGradient id="d" cx="49.012" cy="2.6743" r="1.7246" gradientTransform="matrix(1.5809 0 0 .2901 6.1072 -81.54)" gradientUnits="userSpaceOnUse"><stop id="ay" stop-color="#fff" stop-opacity=".55036" offset="0"/><stop id="az" stop-color="#fff" stop-opacity="0" offset="1"/></radialGradient><linearGradient id="o" x1="46.052" x2="46.052" y1="3.1" y2="2.3959" gradientTransform="matrix(1.8379 0 0 1.8384 38.923 -73.634)" gradientUnits="userSpaceOnUse" xlink:href="#b"/><radialGradient id="c" cx="49.012" cy="2.6743" r="1.7246" gradientTransform="matrix(1.5686 0 0 .2901 -174.12 -81.54)" gradientUnits="userSpaceOnUse"><stop id="ba" stop-color="#fff" stop-opacity=".55036" offset="0"/><stop id="bb" stop-opacity="0" offset="1"/></radialGradient><radialGradient id="l" cx="42.618" cy="120.64" r="3.4069" gradientTransform="matrix(1.8462 2.1042 -19.074 16.758 2262.5 -2019.3)" gradientUnits="userSpaceOnUse"><stop id="bc" stop-color="#b4942a" offset="0"/><stop id="bd" stop-color="#e4dcc9" offset="1"/></radialGradient><linearGradient id="t" x1="16.846" x2="19.874" y1="110.47" y2="113.75" gradientUnits="userSpaceOnUse"><stop id="be" stop-color="#bf0303" offset="0"/><stop id="bf" stop-color="#590000" offset="1"/></linearGradient><radialGradient id="k" cx="-25" cy="106.5" r="45" gradientTransform="matrix(4.2267 -.043693 -.019474 2.3332 221.46 -132.47)" gradientUnits="userSpaceOnUse"><stop id="bg" stop-color="#fff" offset="0"/><stop id="bh" stop-color="#fff" offset=".42597"/><stop id="bi" stop-color="#f1f1f1" offset=".58928"/><stop id="bj" stop-color="#eaeaea" offset=".8022"/><stop id="bk" stop-color="#dfdfdf" offset="1"/></radialGradient><filter id="x"><feGaussianBlur id="bl" stdDeviation="3.4289652"/></filter><filter id="w"><feGaussianBlur id="bm" stdDeviation="0.23296919"/></filter><linearGradient id="s" x1="17.401" x2="76.235" y1="112.67" y2="104.52" gradientUnits="userSpaceOnUse" xlink:href="#a"/><filter id="v" x="-.068984" y="-.1766" width="1.138" height="1.3532"><feGaussianBlur id="bn" stdDeviation="1.0162268"/></filter><linearGradient id="n" x1="51.1" x2="76.235" y1="109.22" y2="104.52" gradientUnits="userSpaceOnUse" xlink:href="#a"/><filter id="u" x="-.048197" y="-.1338" width="1.0964" height="1.2676"><feGaussianBlur id="bo" stdDeviation="0.51586157"/></filter><linearGradient id="m" x1="58.519" x2="55.542" y1="106.79" y2="-15.576" gradientUnits="userSpaceOnUse"><stop id="bp" stop-color="#656565" offset="0"/><stop id="bq" stop-color="#656565" stop-opacity="0" offset="1"/></linearGradient></defs><g id="br"><path id="bs" transform="matrix(1.2162 0 0 1.2162 -9.998 -24.522)" d="m22.657 45.83-9.2455 73.072 93.4 0.25238-10.243-73.09-73.911-0.2342z" fill="#000" fill-rule="nonzero" filter="url(#x)"/><path id="bt" d="m16.315 26.664-11.245 93.154 116.08 0.30695-12.458-93.176-92.38-0.28484z" fill="#fff" fill-rule="nonzero"/><rect id="bu" x="303.35" y="78.775" width="1" height="0" fill="#fff" fill-rule="nonzero" opacity=".57787"/><path id="bv" d="m17.528 27.974-11.144 90.719 113.45 0.30106-12.334-90.741-89.976-0.27938z" fill="url(#k)" fill-rule="nonzero"/><path id="bw" d="m-41.154-321.61v-2.7947 2.7947z" fill="#fff" fill-opacity=".75688" fill-rule="nonzero"/><path id="bx" d="m-62.419-247.61v-1.0532 1.0532z" fill="#fff" fill-opacity=".75688" fill-rule="nonzero"/><path id="by" d="m83.844 31.031 1.375 24.562-39.438-0.0625 1.0312-23.344-4.0938 0.1875-1.7312 23.125-25.425-0.03125-0.46875 4.225h25.581l-1.85 26.431h-26.512l-0.75 4.5625h26.75l-1.4688 21.875h6.375l0.96875-21.875h42.969l1.3125 23.906 6.0312-0.1875-1.85-23.719h21.725v-4.5625h-22.038l-2.1062-26.431h20.988l-0.46875-4.0688-20.862-0.03125-1.9812-24.219-4.0625-0.34375zm-38.281 28.662h39.906l1.4375 26.431h-42.5l1.1562-26.431z" fill="url(#m)" fill-rule="evenodd" filter="url(#w)"/><path id="bz" transform="matrix(1.3508 0 0 1.0131 -28.811 69.767)" d="m46.875 34.152a8.2031 8.3008 0 1 1-16.406 0 8.2031 8.3008 0 1 1 16.406 0z" fill="none" stroke="#bf0303" stroke-linejoin="round" stroke-miterlimit="4" stroke-width="2"/><path id="ca" d="m75.611 102.54c-1.1054-5.0748-7.6011-8.5319-14.422-7.6961-6.821 0.8358-11.47 5.6585-10.365 10.733 0.12148 0.55774 0.31826 1.0847 0.5622 1.5992l2.7495-0.33692c-0.27819-0.50555-0.52276-1.0255-0.64551-1.589-0.86694-3.98 2.7389-7.7458 8.1343-8.407 5.3954-0.66112 10.453 2.0431 11.32 6.0231 0.86694 3.98-2.7874 7.7197-8.1828 8.3808-1.6524 0.20246-3.2525 0.07818-4.7246-0.2872l0.4764 2.1872c1.5044 0.24433 3.0721 0.29723 4.6837 0.09975 6.821-0.83579 11.519-5.6324 10.413-10.707z" fill="#bf0303" fill-rule="nonzero"/><g id="cb" transform="matrix(1.4223 0 0 1.0667 11.358 -25.955)" opacity=".944" stroke="#00316e" stroke-linejoin="miter" stroke-miterlimit="4" stroke-width="2"><path id="cc" d="m29.102 82.883c2.192 1.415 6.8856 8.29 9.5312 10.547 3.1681 2.7024 5.3766 4.9509 7.6563 6.8359" fill="none"/><path id="cd" d="m27.734 102.02c0.02546 0.12729 8.1746-8.1746 8.9844-8.9844 3.129-3.129 7.0901-6.1136 10.156-9.1797 0.14558-0.14558 0.13021-0.39062 0.19531-0.58594" fill="#00316e" fill-opacity=".75" fill-rule="evenodd"/></g><g id="ce" transform="matrix(0 .87694 -1.3145 0 186.96 10.107)" opacity=".82" stroke="#00316e" stroke-linejoin="miter" stroke-miterlimit="4" stroke-width="2"><path id="cf" d="m29.102 84.404c2.192 1.415 6.8856 6.7686 9.5312 9.0254 3.1681 2.7024 5.3766 4.9509 7.6563 6.8359" fill="none"/><path id="cg" d="m28.875 98.98c0.02546 0.12729 7.0343-5.1317 7.844-5.9414 3.129-3.129 7.0901-6.1136 10.156-9.1797 0.14558-0.14558 0.13021-0.39062 0.19531-0.58594" fill="#00316e" fill-opacity=".75" fill-rule="evenodd"/></g><g id="ch" transform="matrix(.81247 -.077923 .19142 .79191 21.307 14.029)"><path id="ci" d="m114.16 0.42886c0.69076-0.68798 4.9357-0.095332 9.2387 4.2567 4.3452 4.3947 5.0353 8.4431 4.17 9.3049-0.56316 0.56091-1.1263 1.1218-1.6895 1.6827-4.4696-4.5205-8.9392-9.041-13.409-13.562 0.56318-0.56091 1.1264-1.1218 1.6896-1.6827" fill="#000" fill-rule="evenodd"/><path id="cj" d="m33.188 81.156-0.3125 0.3125-19.688 29.875 3.4062 3.0938 29.531-19.25 0.25-0.21875-13.188-13.812z" fill="#000" fill-rule="evenodd" stroke-miterlimit="4" stroke-width="0"/><path id="ck" d="m9.2888 118.59 36.496-23.783 0.22518-0.22427-12.466-13.034-0.30524 0.30389-23.95 36.738z" fill="url(#l)" fill-rule="evenodd" stroke-miterlimit="4" stroke-width="0"/><path id="cl" d="m38.805 83.281-2.1469 2.1382-0.081235 0.079071c0.44017 0.47515-0.29916 2.1041 1.1059 3.8084l0.08255 0.08346 0.58807 0.59478 0.082539 0.083485c1.703 1.4392 3.3322 0.68031 3.9234 1.2782l2.2742-2.2768-5.8286-5.7888z" fill="#252525" fill-rule="nonzero" opacity=".38605"/><path id="cm" d="m46.54 87.174-4.1852 4.1682c0.51297 0.61348-0.29204 2.2113 0.70122 3.2158 1.0704 1.0826 2.3282-0.041856 3.0241 0.6538l4.2359-4.2188-3.7761-3.8191z" fill="#000" fill-rule="nonzero" opacity=".35349"/><path id="cn" d="m38.478 89.364c1.6539 1.6727 3.438 1.1455 4.0292 1.7434 0.095535 0.096621 0.15628 0.22566 0.19739 0.3626l80.631-80.405-6.4998-6.5738-80.833 80.607c0.30937-0.012067 0.58202 0.018385 0.76901 0.20749 0.54036 0.54654 0.045543 2.3778 1.7071 4.0583z" fill="url(#j)" fill-rule="nonzero"/><path id="co" d="m123.1 10.825-80.549 80.325c0.51581 0.61637-0.093644 2.0234 0.90471 3.0332 1.0759 1.0882 2.1405 0.15672 2.8399 0.85598l80.6-80.375-3.7954-3.8386z" fill="url(#i)" fill-rule="nonzero"/><path id="cp" d="m35.051 79.439-2.1681 2.0411c0.020726 0.020865-0.15672 0.19917-0.13592 0.22021 0.42427 0.4291-0.25674 2.0596 0.43711 3.0567l0.07222 0.073026 0.31982 0.32349 0.041287 0.041708c1.0104 0.73876 2.4415-0.068828 2.9598 0.30366l2.2499-2.2408-3.7761-3.8191z" fill="#131313" fill-rule="nonzero" opacity=".35349"/><path id="cq" d="m33.819 84.592c1.0423 1.0299 2.4003 0.15648 2.9515 0.71401l80.549-80.325-3.8358-3.8795-80.6 80.375c0.02106 0.021183 0.041749 0.042222 0.062865 0.063618 0.431 0.43588-0.17792 2.0136 0.87219 3.0514z" fill="#bf0303" fill-rule="nonzero"/><path id="cr" transform="matrix(.72606 -.72182 -1.7428 -1.7539 68.834 75.197)" d="m82.173 7.4623a47.495 0.97142 0 1 1-94.99 0 47.495 0.97142 0 1 1 94.99 0z" fill="url(#h)" fill-rule="nonzero"/><path id="cs" transform="matrix(.57538 -.57452 -1.263 -1.2746 65.295 75.277)" d="m106.56 7.4623a71.883 0.42305 0 1 1-0.03548-0.01329" fill="url(#g)" fill-rule="nonzero"/><path id="ct" d="m106.69 7.884c-2.0225 1.155-3.9802 3.2334-5.0605 5.0401l10.783 10.807 5.0605-5.0401-10.783-10.807zm9.6505 9.6617-5.0605 5.0401 3.7764 3.8194c1.7599-0.96093 3.8152-2.9331 5.0605-5.0401l-3.7764-3.8194z" fill="url(#f)" fill-rule="nonzero"/><path id="cu" d="m17.906 104.25-8.9375 13.469-0.90625 1.375c-0.0014269 0.00333 0.0011297 0.0278 0 0.03125h-0.03125c-5.571e-4 0.00366 2.818e-4 0.02749 0 0.03125-1.38e-5 0.00385-2.469e-4 0.02732 0 0.03125 0.0014924 0.00816 0.028817 0.02285 0.03125 0.03125 0.0014403 0.00425-0.0016571 0.02695 0 0.03125 0.0055995 0.013 0.023898 0.04929 0.03125 0.0625 0.028038 0.04418 0.083707 0.11536 0.125 0.15625 0.068904 0.06309 0.17527 0.12713 0.25 0.15625 0.013752 0.0043 0.049301 0.02883 0.0625 0.03125 0.0043237 5.8e-4 0.02701-3.6e-4 0.03125 0 0.0040515-1.2e-4 0.027304 3.7e-4 0.03125 0 0.0037134-8.9e-4 0.027664 0.00116 0.03125 0s-0.0034514-0.02981 0-0.03125c0.0033095-0.00172 0.02809 0.00201 0.03125 0l1.625-1.0312 13.5-8.8125c-2.5128-0.40944-4.524-4.2993-5.875-5.5312z" fill="url(#t)" fill-rule="evenodd"/><rect id="cv" transform="matrix(.70309 .7111 -.70854 .70567 0 0)" x="86.317" y="-80.843" width="8.2227" height="1.1569" fill="url(#r)" fill-rule="nonzero"/><rect id="cw" transform="matrix(.70309 .7111 -.70854 .70567 0 0)" x="86.317" y="-81.486" width="8.2227" height="1.8004" fill="url(#e)" fill-rule="nonzero"/><path id="cx" d="m122.04 3.695c2.8 2.4326 4.7131 5.6773 4.811 5.9839 0.09785 0.30662-2.5488-3.3527-4.8779-5.0932-2.3112-1.7272-5.6671-1.962-5.904-2.1697-0.23694-0.2077-1.8122-2.0801-0.29351-1.9261 1.5885 0.161 4.1016 1.3278 6.2645 3.2051z" fill="url(#q)" fill-rule="evenodd"/><rect id="cy" transform="matrix(.70309 .7111 -.70854 .70567 0 0)" x="80.864" y="-80.843" width="5.453" height="1.1569" fill="url(#p)" fill-rule="nonzero"/><rect id="cz" transform="matrix(.70309 .7111 -.70854 .70567 0 0)" x="80.864" y="-81.486" width="5.453" height="1.8004" fill="url(#d)" fill-rule="nonzero"/><rect id="da" transform="matrix(-.70309 -.7111 -.70854 .70567 0 0)" x="-99.936" y="-80.843" width="5.4104" height="1.1569" fill="url(#o)" fill-rule="nonzero"/><rect id="db" transform="matrix(-.70309 -.7111 -.70854 .70567 0 0)" x="-99.936" y="-81.486" width="5.4104" height="1.8004" fill="url(#c)" fill-rule="nonzero"/><path id="dc" transform="matrix(1.2761 .12557 -.30846 1.3092 -12.298 -22.428)" d="m46 92.344-4.4375 10.719-0.4375 1.0938c-4.91e-4 0.00259 2.43e-4 0.02859 0 0.03125 6.82e-4 0.00288-8.98e-4 0.02833 0 0.03125 0.002614 0.00598 0.027871 0.02516 0.03125 0.03125 0.00187 0.00306-0.002045 0.02816 0 0.03125 0.006635 0.0093 0.023235 0.02193 0.03125 0.03125 0.029443 0.03092 0.085997 0.06626 0.125 0.09375 0.064155 0.04203 0.15626 0.10875 0.21875 0.125 0.011309 0.0022 0.051954-8.4e-4 0.0625 0 0.003418 1.1e-4 0.027937 4e-5 0.03125 0 0.002682-9.4e-4 0.028713 0.00113 0.03125 0 0.002536-0.00113-0.002384-0.02992 0-0.03125 0.002222-0.00152 0.029192 0.00173 0.03125 0l1.0625-0.875 8.75-7.5938c-0.18296-0.011084-0.3764-0.042-0.5625-0.09375l-8.9688 7.75 4.4375-11.031c-0.14323-0.11533-0.28129-0.23094-0.40625-0.3125z" fill="#000" fill-rule="evenodd"/><text id="dd" transform="matrix(1.1239 -1.124 .44392 .44579 0 0)" x="-15.059194" y="157.42096" fill="#999999" font-family="DejaVu Sans Mono" font-size="7.0587px" font-weight="bold" stroke-linejoin="miter" stroke-width="1px" xml:space="preserve"><tspan id="de" x="-15.059194" y="157.42096">BOVO N°5</tspan></text></g><path id="df" d="m51.376 108.67c11.785 1.7117 23.57-1.8171 35.355-3.867l-5.5243-9.9437c-10.142 4.1075-21.659 4.7773-29.831 13.811z" fill="url(#s)" fill-rule="evenodd" filter="url(#v)"/><path id="dg" d="m54.414 107.56c12.061-0.2218 13.903-3.3363 25.688-5.3862l-0.82864-3.867c-10.142 4.1075-15.03 1.8771-24.859 9.2532z" fill="url(#n)" fill-rule="evenodd" filter="url(#u)"/></g></svg>
