<?xml version="1.0" encoding="UTF-8"?>
<svg id="a" version="1.1" viewBox="0 0 350 335.41" xmlns="http://www.w3.org/2000/svg" xmlns:xlink="http://www.w3.org/1999/xlink"><defs id="b"><path id="g" d="m32.823 18.895a6.33 2.177 0 1 1-12.66 0 6.33 2.177 0 1 1 12.66 0z" fill="#edd400" fill-rule="evenodd" stroke="#8c7200" stroke-width="1.05"/><path id="k" d="m32.823 18.895a6.33 2.177 0 1 1-12.66 0 6.33 2.177 0 1 1 12.66 0z" fill="none" opacity=".6" stroke="#fff" stroke-width="1.242"/><path id="l" d="m32.823 18.895a6.33 2.177 0 1 1-12.66 0 6.33 2.177 0 1 1 12.66 0z" fill="#ecd300" fill-rule="evenodd" stroke="#8c7200" stroke-width="1.05"/><path id="n" d="m32.823 18.895a6.33 2.177 0 1 1-12.66 0 6.33 2.177 0 1 1 12.66 0z" fill="#fce94f" fill-rule="evenodd" stroke="#8c7200" stroke-width="1.05"/></defs><defs id="c"><linearGradient id="j" x1="24.613" x2="29.182" y1="20.16" y2="12.246" gradientTransform="translate(0,1)" gradientUnits="userSpaceOnUse"><stop id="d" stop-color="#204a87" offset="0"/><stop id="e" stop-color="#204a87" stop-opacity="0" offset="1"/></linearGradient><linearGradient id="m" x1="18" x2="18" y1="39" y2="45.78" gradientTransform="matrix(1 0 0 .83333 0 7.5)" gradientUnits="userSpaceOnUse"><stop id="o" stop-color="#eeeeec" offset="0"/><stop id="p" stop-color="#eeeeec" stop-opacity="0" offset="1"/></linearGradient><radialGradient id="f" cx="17.984" cy="40.604" r="21.031" gradientTransform="matrix(1.2711 0 0 .45018 .27909 20.74)" gradientUnits="userSpaceOnUse"><stop id="q" stop-color="#555753" offset="0"/><stop id="r" stop-color="#555753" stop-opacity="0" offset="1"/></radialGradient><radialGradient id="i" cx="24.5" cy="18.593" r="14.5" gradientTransform="matrix(2.9403 0 0 2.4333 -47.537 -23.367)" gradientUnits="userSpaceOnUse"><stop id="s" stop-color="#babdb6" offset="0"/><stop id="t" stop-color="#babdb6" stop-opacity="0" offset="1"/></radialGradient><radialGradient id="h" cx="24.013" cy="31.644" r="14.987" gradientTransform="matrix(3.3236 0 0 2.772 -55.796 -48.866)" gradientUnits="userSpaceOnUse"><stop id="u" stop-color="#d3d7cf" offset="0"/><stop id="v" stop-color="#d3d7cf" stop-opacity="0" offset="1"/></radialGradient></defs><g id="w" transform="matrix(7.2917 0 0 7.2917 -.0046535 -14.598)"><path id="x" d="m48.001 39.5a24 8.5005 0 1 1-48 0 23.999 8.5003 0 1 1 47.999 0z" fill="url(#f)" fill-rule="evenodd" opacity=".5" stroke-width=".97597"/><path id="y" d="m46.529 39.003a5.0032 2.4982 0 1 1-10.006 0 5.0032 2.4982 0 1 1 10.006 0z" fill="#edd400" fill-rule="evenodd" stroke="#786100"/><path id="z" d="m45.527 39.003a4.004 1.497 0 1 1-8.008 0 4.004 1.497 0 1 1 8.008 0z" fill="none" opacity=".6"/><use id="aa" transform="matrix(.7904 0 0 1.1476 20.595 15.327)" fill-rule="evenodd" stroke-width="1.05" xlink:href="#g"/><path id="ab" d="m45.537 37.01a4.004 1.497 0 1 1-8.008 0 4.004 1.497 0 1 1 8.008 0z" fill="none" opacity=".6"/><rect id="ac" x="6.473" y="2.502" width="35.041" height="34.996" rx="2" ry="2" fill="#eeeeec" fill-rule="evenodd" stroke="#555753"/><use id="ad" transform="matrix(.7904 0 0 1.1476 20.595 13.327)" fill-rule="evenodd" stroke-width="1.05" xlink:href="#g"/><rect id="ae" x="9.026" y="6" width="29.974" height="25" rx="1.625" ry="1.625" fill="url(#h)" fill-rule="evenodd"/><path id="af" d="m45.537 35.01a4.004 1.497 0 1 1-8.008 0 4.004 1.497 0 1 1 8.008 0z" fill="none" opacity=".6"/><path id="ag" d="m14.031 6v4h-4.031v1h4.031v4h-4.031v1h4.031v4h-4.031v1h4.031v4h-4.031v1h4.031v4h1v-4h4v4h1v-4h4v4h1v-4h4v4h1v-4h4v4h1v-4h3.969v-1h-3.969v-4h3.969v-1h-3.969v-4h3.969v-1h-3.969v-4h3.969v-1h-3.969v-4h-1v4h-4v-4h-1v4h-4v-4h-1v4h-4v-4h-1v4h-4v-4zm1 5h4v4h-4zm5 0h4v4h-4zm5 0h4v4h-4zm5 0h4v4h-4zm-15 5h4v4h-4zm5 0h4v4h-4zm5 0h4v4h-4zm5 0h4v4h-4zm-15 5h4v4h-4zm5 0h4v4h-4zm5 0h4v4h-4zm5 0h4v4h-4z" fill="url(#i)" fill-rule="evenodd"/><use id="ah" transform="matrix(.7904 0 0 1.1476 20.583 11.322)" fill-rule="evenodd" stroke-width="1.05" xlink:href="#g"/><path id="ai" d="m28.531 13-4.883 8.817-8.61-4.797-6.007 9.48 0.875 0.5 5.412-8.727 8.702 4.781 5.386-9.554z" fill="url(#j)" fill-rule="evenodd"/><path id="aj" d="m39 30v1h-30v-1z" fill="#888a85" fill-rule="evenodd"/><path id="ak" d="m45.537 33.003a4.004 1.497 0 1 1-8.008 0 4.004 1.497 0 1 1 8.008 0z" fill="none" opacity=".6"/><path id="al" d="m9.026 6h1v25h-1z" fill="#888a85" fill-rule="evenodd"/><path id="am" d="m1.5 34.49h24v6.024h-24z" fill="#4e9a06" fill-rule="evenodd" stroke="#2e5c02"/><path id="an" d="m4.326 28.5h20.272l0.902 6.01h-24z" fill="#59af05" fill-rule="evenodd" stroke="#2e5c02"/><path id="ao" d="m2 38.037h23v1h-23zm0-2h23v1h-23z" fill="#2e5c02" fill-rule="evenodd"/><path id="ap" d="m4.938 29.552-1.97 3.938h21.345l-0.594-3.938z" fill="none" opacity=".25" stroke="#fff"/><path id="aq" d="m11.531 34.474h4.937v6.109h-4.937z" fill="#eeeeec" fill-rule="evenodd" stroke="#555753"/><path id="ar" d="m19 31.5a5 1.5 0 1 1-10 0 5 1.5 0 1 1 10 0z" fill="#2e5c02" fill-rule="evenodd"/><path id="as" d="m12.5 28.496-1 5.637v6.371h5v-6.424l-1.094-5.583h-2.906z" fill="#d3d7cf" fill-rule="evenodd" stroke="#555753"/><path id="at" d="m5.491 39.471h24.009v6.04h-24.009z" fill="#4e9a06" fill-rule="evenodd" stroke="#2e5c02"/><path id="au" d="m7.45 33.505h20.21l1.84 5.994h-24z" fill="#57ae06" fill-rule="evenodd" stroke="#2e5c02"/><path id="av" d="m41.519 41.997a5.0032 2.4982 0 1 1-10.006 0 5.0032 2.4982 0 1 1 10.006 0z" fill="#ecd300" fill-rule="evenodd" stroke="#786100"/><use id="aw" transform="matrix(.7904 0 0 1.1476 20.595 9.32)" fill-rule="evenodd" stroke-width="1.05" xlink:href="#g"/><path id="ax" d="m6 43h23v1h-23z" fill="#2e5c02" fill-rule="evenodd"/><path id="ay" d="m40.517 41.997a4.004 1.497 0 1 1-8.007 0 4.004 1.497 0 1 1 8.007 0z" fill="none" opacity=".6"/><path id="az" d="m6 41h23v1h-23z" fill="#2e5c02" fill-rule="evenodd"/><use id="ba" transform="matrix(.7904 0 0 1.1476 15.586 18.32)" fill-rule="evenodd" stroke-width="1.05" xlink:href="#l"/><path id="bb" d="m45.537 31.003a4.004 1.497 0 1 1-8.008 0 4.004 1.497 0 1 1 8.008 0zm-5.01 9a4.004 1.497 0 1 1-8.008 0 4.004 1.497 0 1 1 8.008 0z" fill="none" opacity=".6"/><use id="bc" transform="matrix(.7904 0 0 1.1476 15.586 16.32)" fill-rule="evenodd" stroke-width="1.05" xlink:href="#l"/><use id="bd" transform="matrix(.7904 0 0 1.1476 20.595 7.325)" fill-rule="evenodd" stroke-width="1.05" xlink:href="#g"/><path id="be" d="m8.219 34.531-1.281 3.939h21.156l-1.219-3.938h-18.656z" fill="none" opacity=".25" stroke="#fff"/><path id="bf" d="m40.527 38.003a4.004 1.497 0 1 1-8.008 0 4.004 1.497 0 1 1 8.008 0z" fill="none" opacity=".6"/><use id="bg" transform="matrix(.7904 0 0 1.1476 15.573 14.316)" fill-rule="evenodd" stroke-width="1.05" xlink:href="#l"/><path id="bh" d="m40.527 35.997a4.004 1.497 0 1 1-8.008 0 4.004 1.497 0 1 1 8.008 0z" fill="none" opacity=".6"/><use id="bi" transform="matrix(.7904 0 0 1.1476 20.583 5.32)" fill-rule="evenodd" stroke-width="1.05" xlink:href="#g"/><use id="bj" transform="matrix(.7904 0 0 1.1476 15.586 12.314)" fill-rule="evenodd" stroke-width="1.05" xlink:href="#l"/><path id="bk" d="m40.527 33.997a4.004 1.497 0 1 1-8.008 0 4.004 1.497 0 1 1 8.008 0z" fill="none" opacity=".6"/><path id="bl" d="m10.969 33.485a1 0.5 0 1 1-2 0 1 0.5 0 1 1 2 0zm15 0a1 0.5 0 1 1-2 0 1 0.5 0 1 1 2 0zm-2.969 3.015a5 1.5 0 1 1-10 0 5 1.5 0 1 1 10 0zm-12 0.985a1.516 0.5 0 1 1-3.031 0 1.516 0.5 0 1 1 3.031 0zm16 0.015a1.5 0.5 0 1 1-3 0 1.5 0.5 0 1 1 3 0z" fill="#2e5c02" fill-rule="evenodd"/><path id="bm" d="m16.5 33.521-1 5.626v6.357h5v-6.411l-1.094-5.572z" fill="#d3d7cf" fill-rule="evenodd" stroke="#555753"/><path id="bn" d="m16 40h4v5h-4z" fill="#888a85" fill-rule="evenodd"/><path id="bo" d="m16 40h4v5h-4z" fill="url(#m)" fill-rule="evenodd"/><path id="bp" d="m26 35.5a1.5 0.5 0 1 1-3 0 1.5 0.5 0 1 1 3 0zm-14 0a1.5 0.5 0 1 1-3 0 1.5 0.5 0 1 1 3 0z" fill="#2e5c02" fill-rule="evenodd"/><path id="bq" d="m9 6h30c-12.16 3.91-11.338 18-30 18z" fill="#fff" fill-rule="evenodd" opacity=".2"/><path id="br" d="m7 32.5a1.516 0.5 0 1 1-3.031 0 1.516 0.5 0 1 1 3.031 0zm17 0a1.5 0.5 0 1 1-3 0 1.5 0.5 0 1 1 3 0zm-1-2a1.5 0.5 0 1 1-3 0 1.5 0.5 0 1 1 3 0zm-15 0a1.5 0.5 0 1 1-3 0 1.5 0.5 0 1 1 3 0z" fill="#2e5c02" fill-rule="evenodd"/><use id="bs" transform="matrix(.7904 0 0 1.1476 20.595 3.319)" fill-rule="evenodd" stroke-width="1.05" xlink:href="#g"/><use id="bt" transform="matrix(.7904 0 0 1.1476 20.595 1.319)" fill-rule="evenodd" stroke-width="1.05" xlink:href="#g"/><use id="bu" transform="matrix(.7904 0 0 1.1476 20.576 -.684)" fill-rule="evenodd" stroke-width="1.05" xlink:href="#n"/><use id="bv" transform="matrix(.7904 0 0 1.1476 15.566 10.314)" fill-rule="evenodd" stroke-width="1.05" xlink:href="#n"/><use id="bw" transform="matrix(.63251 0 0 .68753 19.747 19.006)" opacity=".5" stroke-width="1.516" xlink:href="#k"/><use id="bx" transform="matrix(.63251 0 0 .68753 24.749 8.006)" opacity=".5" stroke-width="1.516" xlink:href="#k"/></g></svg>
