<?xml version="1.0" encoding="UTF-8"?>
<svg width="48" height="48" version="1.1" viewBox="0 0 12.7 12.7" xmlns="http://www.w3.org/2000/svg" xmlns:xlink="http://www.w3.org/1999/xlink"><defs><linearGradient id="e"><stop stop-color="#f39c1f" offset="0"/><stop stop-color="#fff" offset="1"/></linearGradient><linearGradient id="a"><stop offset="0"/><stop stop-opacity="0" offset="1"/></linearGradient><linearGradient id="l" x1="23" x2="23" y1="290.02" y2="188.15" gradientTransform="matrix(.26458 0 0 .25828 3.3333e-8 -64.294)" gradientUnits="userSpaceOnUse"><stop stop-color="#eff0f1" offset="0"/><stop stop-color="#bdc3c7" offset="1"/></linearGradient><linearGradient id="s" x1="23.065" x2="23.065" y1="2.9332" y2="-9.4094" gradientUnits="userSpaceOnUse"><stop stop-color="#da4453" offset="0"/><stop stop-color="#ed1515" offset="1"/></linearGradient><radialGradient id="d" cx="2.6749" cy="4.5401" r="1.7618" gradientTransform="matrix(.98104 0 0 .91816 .28626 .85858)" gradientUnits="userSpaceOnUse" xlink:href="#a"/><radialGradient id="c" cx="2.6749" cy="4.5401" r="1.7618" gradientTransform="matrix(.98104 0 0 .91816 2.6716 .85858)" gradientUnits="userSpaceOnUse" xlink:href="#a"/><radialGradient id="b" cx="2.6749" cy="4.5401" r="1.7618" gradientTransform="matrix(.98104 0 0 .91816 5.0466 .85858)" gradientUnits="userSpaceOnUse" xlink:href="#a"/><radialGradient id="k" cx="2.6749" cy="4.5401" r="1.7618" gradientTransform="matrix(3.7079 0 0 3.4702 28.197 3.245)" gradientUnits="userSpaceOnUse" xlink:href="#a"/><radialGradient id="j" cx="2.6749" cy="4.5401" r="1.7618" gradientTransform="matrix(3.7079 0 0 3.4702 28.197 12.153)" gradientUnits="userSpaceOnUse" xlink:href="#a"/><radialGradient id="i" cx="2.6749" cy="4.5401" r="1.7618" gradientTransform="matrix(3.7079 0 0 3.4702 1.0819 21.211)" gradientUnits="userSpaceOnUse" xlink:href="#a"/><radialGradient id="h" cx="2.6749" cy="4.5401" r="1.7618" gradientTransform="matrix(3.7079 0 0 3.4702 10.097 21.211)" gradientUnits="userSpaceOnUse" xlink:href="#a"/><radialGradient id="g" cx="2.6749" cy="4.5401" r="1.7618" gradientTransform="matrix(3.7079 0 0 3.4702 19.074 21.211)" gradientUnits="userSpaceOnUse" xlink:href="#a"/><radialGradient id="f" cx="2.6749" cy="4.5401" r="1.7618" gradientTransform="matrix(3.7079 0 0 3.4702 28.197 21.211)" gradientUnits="userSpaceOnUse" xlink:href="#a"/><linearGradient id="r" x1="23.282" x2="23.282" y1="11.251" y2="2.2961" gradientUnits="userSpaceOnUse"><stop stop-color="#bdc3c7" offset="0"/><stop stop-color="#eff0f1" offset="1"/></linearGradient><linearGradient id="q" x1="22.997" x2="22.997" y1="25.902" y2="4.0953" gradientTransform="matrix(3.7795 0 0 3.7795 -64 0)" gradientUnits="userSpaceOnUse"><stop stop-color="#7f8c8d" offset="0"/><stop stop-color="#bdc3c7" offset="1"/></linearGradient><linearGradient id="p" x1="19.512" x2="19.512" y1="5.8208" y2="2.3392" gradientUnits="userSpaceOnUse"><stop stop-color="#16a085" offset="0"/><stop stop-color="#fff" offset="1"/></linearGradient><linearGradient id="o" x1="19.512" x2="19.512" y1="5.8208" y2="3.0994" gradientTransform="translate(4.7625 2.3812)" gradientUnits="userSpaceOnUse"><stop stop-color="#16a085" offset="0"/><stop stop-color="#d9faf4" offset="1"/></linearGradient><linearGradient id="n" x1="19.512" x2="19.512" y1="5.8208" y2="3.0994" gradientTransform="translate(2.3919 4.7625)" gradientUnits="userSpaceOnUse" xlink:href="#e"/><linearGradient id="m" x1="19.512" x2="19.512" y1="5.8208" y2="3.0994" gradientTransform="translate(7.1437 -.030496)" gradientUnits="userSpaceOnUse" xlink:href="#e"/></defs><rect x="1.0583" y="1.0583" width="10.583" height="10.319" rx="1.5875" ry="1.5875" fill="#00f" style="paint-order:normal"/><rect x="1.0583" y="1.0583" width="10.583" height="10.583" rx="1.5875" ry="1.5875" fill="#99a3a5" stroke-width=".26458" style="paint-order:markers fill stroke"/><rect x="1.0583" y="1.0583" width="10.583" height="10.319" rx="1.5869" ry="1.5869" fill="url(#l)" stroke-width=".26458" style="paint-order:markers fill stroke"/><flowRoot fill="#000000" font-family="sans-serif" font-size="10.583px" letter-spacing="0px" stroke-width=".26458" word-spacing="0px" style="line-height:1.25" xml:space="preserve"><flowRegion><rect x="-215.53" y="-106.54" width="190.08" height="166.51" stroke-width=".070004"/></flowRegion><flowPara/></flowRoot><path d="m2.6458 1.0583c-0.87947 0-1.5875 0.70803-1.5875 1.5875v0.52917h10.583v-0.52917c0-0.87947-0.70802-1.5875-1.5875-1.5875z" fill="url(#s)" style="paint-order:normal"/><g transform="translate(3.3333e-8 4.7536)" opacity=".2"><path transform="translate(0 -4.7536)" d="m1.9048 5.7123 0.78539 0.78539h2.7381v-0.65249l-1.8238-1.8238" fill="url(#d)" opacity="1" style="paint-order:normal"/><path transform="translate(0 -4.7536)" d="m4.2901 5.7123 0.78539 0.78539h2.7381v-0.65249l-1.8238-1.8238" fill="url(#c)" opacity="1" style="paint-order:normal"/><path transform="translate(0 -4.7536)" d="m6.6652 5.7123 0.78539 0.78539h2.7381v-0.65249l-1.8238-1.8238" fill="url(#b)" opacity="1" style="paint-order:normal"/><path transform="matrix(.26458 0 0 .26458 0 -4.7536)" d="m40.738 15.199-6.4238 6.3906 2.9688 2.9688h6.7168v-6.0977z" fill="url(#k)" opacity="1" style="paint-order:normal"/><path transform="translate(0 -2.3967)" d="m1.9048 5.7123 0.78539 0.78539h2.7381v-0.65249l-1.8238-1.8238" fill="url(#d)" opacity="1" style="paint-order:normal"/><path transform="translate(0 -2.3967)" d="m4.2901 5.7123 0.78539 0.78539h2.7381v-0.65249l-1.8238-1.8238" fill="url(#c)" opacity="1" style="paint-order:normal"/><path transform="translate(0 -2.3967)" d="m6.6652 5.7123 0.78539 0.78539h2.7381v-0.65249l-1.8238-1.8238" fill="url(#b)" opacity="1" style="paint-order:normal"/><path transform="matrix(.26458 0 0 .26458 0 -4.7536)" d="m40.738 24.107-6.4238 6.3906 2.9688 2.9688h6.7168v-6.0977z" fill="url(#j)" opacity="1" style="paint-order:normal"/><path transform="matrix(.26458 0 0 .26458 0 -4.7536)" d="m13.623 33.166-6.4238 6.3906 3.4336 3.4336c0.067391 0.001947 0.13329 0.009766 0.20117 0.009766h11l-1.3164-2.9414z" fill="url(#i)" opacity="1" style="paint-order:normal"/><path transform="matrix(.26458 0 0 .26458 0 -4.7536)" d="m22.639 33.166-6.4238 6.3906 3.4434 3.4434h11.189l-1.3164-2.9414z" fill="url(#h)" opacity="1" style="paint-order:normal"/><path transform="matrix(.26458 0 0 .26458 0 -4.7536)" d="m31.615 33.166-6.4238 6.3906 3.4434 3.4434h8.5312c0.86647 0 1.6917-0.16736 2.4531-0.45898l-1.1113-2.4824z" fill="url(#g)" opacity="1" style="paint-order:normal"/><path transform="matrix(.26458 0 0 .26458 0 -4.7536)" d="m40.738 33.166-6.4238 6.3906 3.416 3.416c3.4372-0.27902 6.1339-3.0784 6.2578-6.5586z" fill="url(#f)" opacity="1" style="paint-order:normal"/></g><g transform="translate(-14.619 .34049)" shape-rendering="auto"><path d="m18.307 1.5684c0-0.15638-0.12876-0.28711-0.28516-0.28711-0.1564 0-0.28516 0.13072-0.28516 0.28711 0 0.15638 0.12876 0.28516 0.28516 0.28516 0.1564 0 0.28516-0.12877 0.28516-0.28516zm-0.19727 0c0 0.050309-0.03828 0.087891-0.08789 0.087891s-0.08789-0.037581-0.08789-0.087891c0-0.050309 0.03828-0.089844 0.08789-0.089844s0.08789 0.039534 0.08789 0.089844z" color="#000000" color-rendering="auto" dominant-baseline="auto" fill="#232629" image-rendering="auto" solid-color="#000000" style="font-feature-settings:normal;font-variant-alternates:normal;font-variant-caps:normal;font-variant-ligatures:normal;font-variant-numeric:normal;font-variant-position:normal;isolation:auto;mix-blend-mode:normal;paint-order:markers fill stroke;shape-padding:0;text-decoration-color:#000000;text-decoration-line:none;text-decoration-style:solid;text-indent:0;text-orientation:mixed;text-transform:none;white-space:normal"/><path d="m18.115-0.21094c-0.05619-0.016412-0.12032-0.004845-0.16797 0.023438-0.0953 0.056566-0.14567 0.15565-0.18945 0.28711-0.08755 0.2629-0.11141 0.62746-0.06641 0.95508 0.04715 0.34319 0.23633 0.57812 0.23633 0.57812a0.11131 0.11131 0 1 0 0.17383-0.13867s-0.15123-0.19053-0.18945-0.46875c-0.04036-0.29378-0.01397-0.64346 0.05664-0.85547 0.03449-0.10356 0.07869-0.15429 0.08984-0.16211 0.0025 0.0014877 0.0054 0.0023533 0.01758 0.017578 0.04138 0.051854 0.09426 0.1882 0.12109 0.35937a0.11174 0.11174 0 1 0 0.2207-0.035156c-0.030181-0.19259-0.07964-0.35221-0.16796-0.46289-0.03536-0.044317-0.078571-0.081245-0.13477-0.097656z" color="#000000" color-rendering="auto" dominant-baseline="auto" fill="#bdc3c7" image-rendering="auto" solid-color="#000000" style="font-feature-settings:normal;font-variant-alternates:normal;font-variant-caps:normal;font-variant-ligatures:normal;font-variant-numeric:normal;font-variant-position:normal;isolation:auto;mix-blend-mode:normal;paint-order:markers fill stroke;shape-padding:0;text-decoration-color:#000000;text-decoration-line:none;text-decoration-style:solid;text-indent:0;text-orientation:mixed;text-transform:none;white-space:normal"/><path d="m18.207-0.16016-0.14844 0.16602c0.0037 0.0032822 0.01479 0.016054 0.01758 0.019531 0.06596 0.082653 0.14674 0.36999 0.14648 0.69141l0.22265 0.0019531c2.83e-4 -0.35102-0.055022-0.65623-0.19531-0.83203-0.01522-0.019003-0.02829-0.033697-0.04297-0.046875z" color="#000000" color-rendering="auto" dominant-baseline="auto" fill="#9ca5ac" image-rendering="auto" solid-color="#000000" style="font-feature-settings:normal;font-variant-alternates:normal;font-variant-caps:normal;font-variant-ligatures:normal;font-variant-numeric:normal;font-variant-position:normal;isolation:auto;mix-blend-mode:normal;paint-order:markers fill stroke;shape-padding:0;text-decoration-color:#000000;text-decoration-line:none;text-decoration-style:solid;text-indent:0;text-orientation:mixed;text-transform:none;white-space:normal"/></g><g transform="translate(-8.6977 .33958)" shape-rendering="auto"><path d="m18.307 1.5684c0-0.15638-0.12876-0.28711-0.28516-0.28711-0.1564 0-0.28516 0.13072-0.28516 0.28711 0 0.15638 0.12876 0.28516 0.28516 0.28516 0.1564 0 0.28516-0.12877 0.28516-0.28516zm-0.19727 0c0 0.050309-0.03828 0.087891-0.08789 0.087891s-0.08789-0.037581-0.08789-0.087891c0-0.050309 0.03828-0.089844 0.08789-0.089844s0.08789 0.039534 0.08789 0.089844z" color="#000000" color-rendering="auto" dominant-baseline="auto" fill="#232629" image-rendering="auto" solid-color="#000000" style="font-feature-settings:normal;font-variant-alternates:normal;font-variant-caps:normal;font-variant-ligatures:normal;font-variant-numeric:normal;font-variant-position:normal;isolation:auto;mix-blend-mode:normal;paint-order:markers fill stroke;shape-padding:0;text-decoration-color:#000000;text-decoration-line:none;text-decoration-style:solid;text-indent:0;text-orientation:mixed;text-transform:none;white-space:normal"/><path d="m18.115-0.21094c-0.05619-0.016412-0.12032-0.004845-0.16797 0.023438-0.0953 0.056566-0.14567 0.15565-0.18945 0.28711-0.08755 0.2629-0.11141 0.62746-0.06641 0.95508 0.04715 0.34319 0.23633 0.57812 0.23633 0.57812 0.09114 0.12638 0.2768-0.021733 0.17383-0.13867-0.04899-0.055627-0.15123-0.19053-0.18945-0.46875-0.04036-0.29378-0.01397-0.64346 0.05664-0.85547 0.03449-0.10356 0.07869-0.15429 0.08984-0.16211 0.0025 0.0014877 0.0054 0.0023533 0.01758 0.017578 0.04138 0.051854 0.09426 0.1882 0.12109 0.35937 0.0234 0.14719 0.2441 0.11203 0.2207-0.035156-0.030181-0.19259-0.07964-0.35221-0.16796-0.46289-0.03536-0.044317-0.078571-0.081245-0.13477-0.097656z" color="#000000" color-rendering="auto" dominant-baseline="auto" fill="#bdc3c7" image-rendering="auto" solid-color="#000000" style="font-feature-settings:normal;font-variant-alternates:normal;font-variant-caps:normal;font-variant-ligatures:normal;font-variant-numeric:normal;font-variant-position:normal;isolation:auto;mix-blend-mode:normal;paint-order:markers fill stroke;shape-padding:0;text-decoration-color:#000000;text-decoration-line:none;text-decoration-style:solid;text-indent:0;text-orientation:mixed;text-transform:none;white-space:normal"/><path d="m18.207-0.16016-0.14844 0.16602c0.0037 0.0032822 0.01479 0.016054 0.01758 0.019531 0.06596 0.082653 0.14674 0.36999 0.14648 0.69141l0.22265 0.0019531c2.83e-4 -0.35102-0.055022-0.65623-0.19531-0.83203-0.01522-0.019003-0.02829-0.033697-0.04297-0.046875z" color="#000000" color-rendering="auto" dominant-baseline="auto" fill="#9ca5ac" image-rendering="auto" solid-color="#000000" style="font-feature-settings:normal;font-variant-alternates:normal;font-variant-caps:normal;font-variant-ligatures:normal;font-variant-numeric:normal;font-variant-position:normal;isolation:auto;mix-blend-mode:normal;paint-order:markers fill stroke;shape-padding:0;text-decoration-color:#000000;text-decoration-line:none;text-decoration-style:solid;text-indent:0;text-orientation:mixed;text-transform:none;white-space:normal"/></g><g transform="translate(-16.933)"><g fill="url(#r)"><path transform="matrix(.26458 0 0 .26458 16.933 0)" d="m35.023 14.883c-0.554 1e-6 -1 0.446-1 1v5c0 0.554 0.446 1 1 1h5c0.554 1e-6 1-0.446 1-1v-5c0-0.554-0.446-1-1-1zm-27 0.11719c-0.554 0-1 0.446-1 1v5c0 0.554 0.446 1 1 1h5c0.554 0 1-0.446 1-1v-5c0-0.554-0.446-1-1-1zm9 0c-0.554 0-1 0.446-1 1v5c0 0.554 0.446 1 1 1h5c0.554 0 1-0.446 1-1v-5c0-0.554-0.446-1-1-1zm8.9766 0c-0.554 0-1 0.446-1 1v5c0 0.554 0.446 1 1 1h5c0.554 0 1-0.446 1-1v-5c0-0.554-0.446-1-1-1zm9.0234 8.8828c-0.554 1e-6 -1 0.446-1 1v5c0 0.554 0.446 1 1 1h5c0.554 0 1-0.446 1-1v-5c0-0.554-0.446-1-1-1zm-27 0.11719c-0.554 0-1 0.446-1 1v5c0 0.554 0.446 1 1 1h5c0.554 0 1-0.446 1-1v-5c0-0.554-0.446-1-1-1zm9 0c-0.554 0-1 0.446-1 1v5c0 0.554 0.446 1 1 1h5c0.554 0 1-0.446 1-1v-5c0-0.554-0.446-1-1-1zm8.9766 0c-0.554 0-1 0.446-1 1v5c0 0.554 0.446 1 1 1h5c0.554 0 1-0.446 1-1v-5c0-0.554-0.446-1-1-1zm9.0469 8.8828c-0.554 0-1 0.446-1 1v5c0 0.554 0.446 1 1 1h5c0.554 0 1-0.446 1-1v-5c0-0.554-0.446-1-1-1zm-27 0.11719c-0.554 0-1 0.446-1 1v5c0 0.554 0.446 1 1 1h5c0.554 0 1-0.446 1-1v-5c0-0.554-0.446-1-1-1zm9 0c-0.554 0-1 0.446-1 1v5c0 0.554 0.446 1 1 1h5c0.554 0 1-0.446 1-1v-5c0-0.554-0.446-1-1-1zm8.9766 0c-0.554 0-1 0.446-1 1v5c0 0.554 0.446 1 1 1h5c0.554 0 1-0.446 1-1v-5c0-0.554-0.446-1-1-1z" fill="url(#q)" style="paint-order:markers fill stroke"/></g><path d="m18.792 5.5562c0 0.14658 0.118 0.26458 0.26458 0.26458h1.3229c0.13558 0 0.24247-0.10242 0.25838-0.23358v-0.031006z" fill="url(#p)" style="paint-order:markers fill stroke"/><path d="m21.183 10.319c0 0.14658 0.118 0.26458 0.26458 0.26458h1.3229c0.13558 0 0.24247-0.10242 0.25838-0.23358v-0.03101z" fill="url(#n)" style="paint-order:markers fill stroke"/><path d="m23.554 7.9375c0 0.14658 0.118 0.26458 0.26458 0.26458h1.3229c0.13558 0 0.24247-0.10242 0.25838-0.23358v-0.031006z" fill="url(#o)" style="paint-order:markers fill stroke"/><path d="m25.935 5.5258c0 0.14658 0.118 0.26458 0.26458 0.26458h1.3229c0.13558 0 0.24247-0.10242 0.25838-0.23358v-0.03101z" fill="url(#m)" style="paint-order:markers fill stroke"/></g></svg>
