<?xml version="1.0" encoding="UTF-8"?>
<svg id="w" version="1.0" viewBox="0 0 128 128" xmlns="http://www.w3.org/2000/svg" xmlns:xlink="http://www.w3.org/1999/xlink"><defs id="x"><linearGradient id="d"><stop id="y" stop-color="#fff" offset="0"/><stop id="z" stop-color="#2fe260" stop-opacity="0" offset="1"/></linearGradient><linearGradient id="b"><stop id="aa" stop-color="#fff" offset="0"/><stop id="ab" stop-color="#fff" stop-opacity="0" offset="1"/></linearGradient><linearGradient id="j" x1="40" x2="88" y1="128" y2="-16" gradientTransform="translate(.99982 2.8551)" gradientUnits="userSpaceOnUse"><stop id="ac" offset="0"/><stop id="ad" stop-opacity="0" offset="1"/></linearGradient><linearGradient id="c" x1="40" x2="88" y1="128" y2="-16" gradientTransform="translate(.99982 -1.1449)" gradientUnits="userSpaceOnUse"><stop id="ae" offset="0"/><stop id="af" stop-opacity="0" offset="1"/></linearGradient><linearGradient id="o" x1="40" x2="88" y1="128" y2="-16" gradientTransform="translate(.99982 -5.1449)" gradientUnits="userSpaceOnUse"><stop id="ag" offset="0"/><stop id="ah" stop-opacity="0" offset="1"/></linearGradient><linearGradient id="n" x1="25.142" x2="21.15" y1="-21.285" y2="23.77" gradientTransform="matrix(.96593 -.25882 .25882 .96593 -15.85 18.103)" gradientUnits="userSpaceOnUse" xlink:href="#b"/><linearGradient id="m" x1="25.142" x2="21.15" y1="-21.285" y2="23.77" gradientTransform="matrix(.96593 -.25882 .25882 .96593 18.443 37.902)" gradientUnits="userSpaceOnUse" xlink:href="#b"/><linearGradient id="l" x1="25.142" x2="21.15" y1="-21.285" y2="23.77" gradientTransform="matrix(.96593 -.25882 .25882 .96593 2.7851 87.649)" gradientUnits="userSpaceOnUse" xlink:href="#b"/><linearGradient id="k" x1="114.5" x2="108.6" y1="96.104" y2="104.04" gradientTransform="matrix(.96593 -.25882 .25882 .96593 -17.92 10.375)" gradientUnits="userSpaceOnUse"><stop id="ai" stop-color="#fff" offset="0"/><stop id="aj" stop-color="#e24949" stop-opacity="0" offset="1"/></linearGradient><radialGradient id="e" cx="108" cy="114" r="11.936" gradientTransform="matrix(.33511 1.8712e-7 -9.9311e-8 .16756 70.558 85.899)" gradientUnits="userSpaceOnUse"><stop id="ak" offset="0"/><stop id="al" stop-opacity="0" offset="1"/></radialGradient><filter id="v" x="-.282" y="-.564" width="1.564" height="2.128"><feGaussianBlur id="am" stdDeviation="0.94"/></filter><filter id="u" x="-.033176" y="-.564" width="1.0664" height="2.128"><feGaussianBlur id="an" stdDeviation="0.94"/></filter><filter id="t" x="-.141" y="-.564" width="1.282" height="2.128"><feGaussianBlur id="ao" stdDeviation="0.94"/></filter><filter id="s" x="-.062667" y="-.564" width="1.1253" height="2.128"><feGaussianBlur id="ap" stdDeviation="0.94"/></filter><filter id="r" x="-.033176" y="-.564" width="1.0664" height="2.128"><feGaussianBlur id="aq" stdDeviation="0.94"/></filter><filter id="q" x="-.033176" y="-.564" width="1.0664" height="2.128"><feGaussianBlur id="ar" stdDeviation="0.94"/></filter><linearGradient id="i" x1="52" x2="48" y1="56" y2="72" gradientTransform="translate(-19.995 9.3837)" gradientUnits="userSpaceOnUse" xlink:href="#d"/><linearGradient id="h" x1="112" x2="108" y1="60" y2="72" gradientTransform="translate(-19.995 9.3837)" gradientUnits="userSpaceOnUse" xlink:href="#d"/><radialGradient id="a" cx="64" cy="64" r="64" gradientUnits="userSpaceOnUse"><stop id="as" stop-color="#fff" offset="0"/><stop id="at" stop-color="#e8e8e8" offset=".6875"/><stop id="au" stop-color="#686868" offset=".875"/><stop id="av" offset="1"/></radialGradient><mask id="g" maskUnits="userSpaceOnUse"><path id="aw" d="m128 64a64 64 0 1 1-128 0 64 64 0 1 1 128 0z" fill="url(#a)"/></mask><mask id="f" maskUnits="userSpaceOnUse"><path id="ax" d="m128 64a64 64 0 1 1-128 0 64 64 0 1 1 128 0z" fill="url(#a)"/></mask><linearGradient id="p" x1="24" x2="120" y1="112" y2="88" gradientUnits="userSpaceOnUse"><stop id="ay" stop-color="#fff" stop-opacity="0" offset="0"/><stop id="az" stop-color="#fff" offset=".5"/><stop id="ba" stop-color="#fff" stop-opacity="0" offset="1"/></linearGradient></defs><g id="bb" display="none"><path id="bc" d="m128 64a64 64 0 1 1-128 0 64 64 0 1 1 128 0z" display="inline" fill="url(#a)"/></g><g id="bd"><path id="be" d="m2.3838 34.958 100.46-26.917 22.776 85.001-100.46 26.917z" fill="url(#p)"/></g><g id="bf"><g id="bg" fill="none" mask="url(#g)" stroke="#a0a0a0" stroke-dasharray="12, 6" stroke-linecap="square" stroke-miterlimit="4" stroke-width="3"><path id="bh" d="m45.796-8.768 38.823 144.89"/><path id="bi" d="m16.818-1.0034 38.823 144.89"/><path id="bj" d="m-12.16 6.7612 38.823 144.89"/><path id="bk" d="m74.774-16.533 38.823 144.89"/><path id="bl" d="m103.75-24.297 38.823 144.89"/></g></g><g id="bm"><g id="bn" fill="none" mask="url(#f)" stroke="#6c6c6c" stroke-dasharray="12, 6" stroke-linecap="square" stroke-miterlimit="4" stroke-width="3"><path id="bo" d="m43.381-8.1209 38.823 144.89"/><path id="bp" d="m14.403-0.35634 38.823 144.89"/><path id="bq" d="m-14.574 7.4082 38.823 144.89"/><path id="br" d="m72.359-15.885 38.823 144.89"/><path id="bs" d="m101.34-23.65 38.823 144.89"/></g></g><g id="bt"><path id="bu" transform="matrix(.96593 -.25882 .25882 .96593 -14.384 18.745)" d="m18.75 31h60l4 4-68 1e-6z" fill="url(#j)" filter="url(#q)" opacity=".22222"/><path id="bv" transform="matrix(.96593 -.25882 .25882 .96593 -14.384 18.745)" d="m46.75 59 60-1e-6 4 4-68 1e-6z" fill="url(#c)" filter="url(#r)" opacity=".22222"/><path id="bw" transform="matrix(.96593 -.25882 .25882 .96593 -14.384 18.745)" d="m18.75 103h60l4 4h-68z" fill="url(#o)" filter="url(#u)" opacity=".22222"/><path id="bx" transform="matrix(.96593 -.25882 .25882 .96593 -14.384 18.745)" d="m104.75 103h4l2 4h-8z" fill="url(#e)" filter="url(#v)" opacity=".22222"/><path id="by" transform="matrix(.96593 -.25882 .25882 .96593 -14.384 18.745)" d="m46.75 69 28-1e-6 4 4-36 1e-6z" fill="url(#c)" filter="url(#s)" opacity=".22222"/><path id="bz" transform="matrix(.96593 -.25882 .25882 .96593 -14.384 18.745)" d="m106.75 69h8l4 4h-16z" fill="url(#c)" filter="url(#t)" opacity=".22222"/></g><g id="ca"><path id="cb" d="m11.751 43.836-8.0048-14.42 65.683-17.6 0.2774 16.49-2.0706-7.7274-57.956 15.529z" fill="#3894e5"/><path id="cc" d="m46.044 63.635-8.0048-14.42 65.683-17.6 0.2774 16.49-2.0706-7.7274-57.956 15.529z" fill="#3894e5"/><rect id="cd" transform="matrix(.96593 -.25882 .25882 .96593 0 0)" x="24.005" y="77.384" width="36" height="8" rx="4" ry="3.8415" fill="#2fe260"/><rect id="ce" transform="matrix(.96593 -.25882 .25882 .96593 0 0)" x="84.005" y="77.384" width="16" height="8" rx="4" ry="2.9961" fill="#2fe260"/><path id="cf" d="m30.386 113.38-8.0048-14.42 65.683-17.6 0.2774 16.49-2.0706-7.7274-57.956 15.529z" fill="#3894e5"/><path id="cg" d="m111.25 75.152-5.6568 9.798 9.798 5.6569 5.6569-9.798z" fill="#e24949"/><path id="ch" d="m11.751 43.836-8.0048-14.42 65.683-17.6 0.2774 16.49-2.0706-7.7274-57.956 15.529z" fill="url(#n)"/><path id="ci" d="m46.044 63.635-8.0048-14.42 65.683-17.6 0.2774 16.49-2.0706-7.7274-57.956 15.529z" fill="url(#m)"/><path id="cj" d="m30.386 113.38-8.0048-14.42 65.683-17.6 0.2774 16.49-2.0706-7.7274-57.956 15.529z" fill="url(#l)"/><path id="ck" d="m111.25 75.152-5.6568 9.798 9.798 5.6569 5.6569-9.798z" fill="url(#k)"/><rect id="cl" transform="matrix(.96593 -.25882 .25882 .96593 0 0)" x="24.005" y="77.384" width="36" height="8" rx="4" ry="3.8415" fill="url(#i)"/><rect id="cm" transform="matrix(.96593 -.25882 .25882 .96593 0 0)" x="84.005" y="77.384" width="16" height="8" rx="4" ry="2.9961" fill="url(#h)"/></g></svg>
