<?xml version="1.0" encoding="UTF-8"?>
<!DOCTYPE svg  PUBLIC '-//W3C//DTD SVG 20010904//EN'  'http://www.w3.org/TR/2001/REC-SVG-20010904/DTD/svg10.dtd'>
<svg width="102.4pt" height="102.4pt" xmlns="http://www.w3.org/2000/svg"><defs><radialGradient id="n" r=".35355" gradientTransform=""><stop stop-color="#fff" offset="0"/><stop stop-color="#e8e8e8" offset=".6875"/><stop stop-color="#686868" offset=".875"/><stop offset="1"/></radialGradient><linearGradient id="m" x1=".19475" x2=".97377" y1="1.0007" y2=".78629" gradientTransform="translate(-2.3838 -8.0407)"><stop stop-color="#fff" stop-opacity="0" offset="0"/><stop stop-color="#fff" offset=".5"/><stop stop-color="#fff" stop-opacity="0" offset="1"/></linearGradient><linearGradient id="h" x1=".58824" x2="1.2941" y1="32" y2="-4" gradientTransform="translate(-13.75 -28.145)"><stop offset="0"/><stop stop-opacity="0" offset="1"/></linearGradient><filter id="t" x="-.033176" y="-.564" width="1.0664" height="2.128" primitiveUnits="objectBoundingBox"><feGaussianBlur x="0.00000000000" y="0.00000000000" width="1.00000000000" height="1.00000000000" in="" result="" stdDeviation="0.0172794, 0.29375"/></filter><linearGradient id="g" x1=".58824" x2="1.2941" y1="32" y2="-4" gradientTransform="translate(-41.75 -60.145)"><stop offset="0"/><stop stop-opacity="0" offset="1"/></linearGradient><filter id="s" x="-.033176" y="-.564" width="1.0664" height="2.128" primitiveUnits="objectBoundingBox"><feGaussianBlur x="0.00000000000" y="0.00000000000" width="1.00000000000" height="1.00000000000" in="" result="" stdDeviation="0.0172794, 0.29375"/></filter><linearGradient id="f" x1=".58824" x2="1.2941" y1="32" y2="-4" gradientTransform="translate(-13.75 -108.14)"><stop offset="0"/><stop stop-opacity="0" offset="1"/></linearGradient><filter id="r" x="-.033176" y="-.564" width="1.0664" height="2.128" primitiveUnits="objectBoundingBox"><feGaussianBlur x="0.00000000000" y="0.00000000000" width="1.00000000000" height="1.00000000000" in="" result="" stdDeviation="0.0172794, 0.29375"/></filter><radialGradient id="e" cx="13.5" cy="28.5" r="1.3345" gradientTransform="matrix(.33511 1.8712e-7 -9.9311e-8 .16756 -32.192 -17.101)"><stop offset="0"/><stop stop-opacity="0" offset="1"/></radialGradient><filter id="q" x="-.282" y="-.564" width="1.564" height="2.128" primitiveUnits="objectBoundingBox"><feGaussianBlur x="0.00000000000" y="0.00000000000" width="1.00000000000" height="1.00000000000" in="" result="" stdDeviation="0.146875, 0.29375"/></filter><linearGradient id="d" x1="1.1111" x2="2.4444" y1="32" y2="-4" gradientTransform="translate(-41.75 -70.145)"><stop offset="0"/><stop stop-opacity="0" offset="1"/></linearGradient><filter id="p" x="-.062667" y="-.564" width="1.1253" height="2.128" primitiveUnits="objectBoundingBox"><feGaussianBlur x="0.00000000000" y="0.00000000000" width="1.00000000000" height="1.00000000000" in="" result="" stdDeviation="0.0326389, 0.29375"/></filter><linearGradient id="c" x1="2.5" x2="5.5" y1="32" y2="-4" gradientTransform="translate(-101.75 -70.145)"><stop offset="0"/><stop stop-opacity="0" offset="1"/></linearGradient><filter id="o" x="-.141" y="-.564" width="1.282" height="2.128" primitiveUnits="objectBoundingBox"><feGaussianBlur x="0.00000000000" y="0.00000000000" width="1.00000000000" height="1.00000000000" in="" result="" stdDeviation="0.0734375, 0.29375"/></filter><linearGradient id="b" x1=".38116" x2=".32064" y1="-.66477" y2=".74236" gradientTransform="matrix(.96593 -.25882 .25882 .96593 -19.596 6.286)"><stop stop-color="#fff" offset="0"/><stop stop-color="#fff" stop-opacity="0" offset="1"/></linearGradient><linearGradient id="a" x1=".38116" x2=".32064" y1="-.66477" y2=".74236" gradientTransform="matrix(.96593 -.25882 .25882 .96593 -19.596 6.286)"><stop stop-color="#fff" offset="0"/><stop stop-color="#fff" stop-opacity="0" offset="1"/></linearGradient><linearGradient id="l" x1=".38116" x2=".32064" y1="-.66477" y2=".74236" gradientTransform="matrix(.96593 -.25882 .25882 .96593 -19.596 6.286)"><stop stop-color="#fff" offset="0"/><stop stop-color="#fff" stop-opacity="0" offset="1"/></linearGradient><linearGradient id="k" x1="7.409" x2="7.0268" y1="6.2184" y2="6.7316" gradientTransform="matrix(.96593 -.25882 .25882 .96593 -123.51 -64.776)"><stop stop-color="#fff" offset="0"/><stop stop-color="#e24949" stop-opacity="0" offset="1"/></linearGradient><linearGradient id="j" x1="1.4444" x2="1.3333" y1="7" y2="9" gradientTransform="translate(-44 -68)"><stop stop-color="#fff" offset="0"/><stop stop-color="#2fe260" stop-opacity="0" offset="1"/></linearGradient><linearGradient id="i" x1="7" x2="6.75" y1="7.5" y2="9" gradientTransform="translate(-104 -68)"><stop stop-color="#fff" offset="0"/><stop stop-color="#2fe260" stop-opacity="0" offset="1"/></linearGradient></defs><g id="u"><path id="v" transform="" d="m128 64c0 35.346-28.654 64-64 64s-64-28.654-64-64 28.654-64 64-64 64 28.654 64 64z" fill="url(#n)"/></g><g id="w"><path id="x" transform="translate(2.3838 8.0407)" d="m0 26.917 100.46-26.917 22.776 85.002-100.46 26.918z" fill="url(#m)"/></g><g id="y"><g id="z" transform="translate(-18.997 -31.134)" fill="none" stroke="#a0a0a0" stroke-dasharray="12,6" stroke-linecap="square" stroke-linejoin="miter" stroke-miterlimit="4" stroke-width="3"><path id="aa" transform="translate(64.793 22.366)" d="m0 0 38.823 144.89"/><path id="ab" transform="translate(35.815 30.131)" d="m0 0 38.823 144.89"/><path id="ac" transform="translate(6.8371 37.895)" d="m0 0 38.823 144.89"/><path id="ad" transform="translate(93.77 14.602)" d="m0 0 38.823 144.89"/><path id="ae" transform="translate(122.75 6.8371)" d="m0 0 38.823 144.89"/></g></g><g id="af"><g id="ag" transform="translate(-21.412 -30.487)" fill="none" stroke="#6c6c6c" stroke-dasharray="12,6" stroke-linecap="square" stroke-linejoin="miter" stroke-miterlimit="4" stroke-width="3"><path id="ah" transform="translate(64.793 22.366)" d="m0 0 38.823 144.89"/><path id="ai" transform="translate(35.815 30.131)" d="m0 0 38.823 144.89"/><path id="aj" transform="translate(6.8371 37.895)" d="m0 0 38.823 144.89"/><path id="ak" transform="translate(93.77 14.602)" d="m0 0 38.823 144.89"/><path id="al" transform="translate(122.75 6.8371)" d="m0 0 38.823 144.89"/></g></g><g id="am"><path id="an" transform="matrix(.96593 -.25882 .25882 .96593 7.8871 44.871)" d="m4 0h60l4 4h-68z" fill="url(#h)" filter="url(#t)" opacity=".22222"/><path id="ao" transform="matrix(.96593 -.25882 .25882 .96593 42.18 64.67)" d="M4 1e-06L64 0L68 4L0 4Z" fill="url(#g)" filter="url(#s)" opacity=".22222"/><path id="ap" transform="matrix(.96593 -.25882 .25882 .96593 26.522 114.42)" d="m4 0h60l4 4h-68z" fill="url(#f)" filter="url(#r)" opacity=".22222"/><path id="aq" transform="matrix(.96593 -.25882 .25882 .96593 111.52 91.642)" d="m2 0h4l2 4h-8z" fill="url(#e)" filter="url(#q)" opacity=".22222"/><path id="ar" transform="matrix(.96593 -.25882 .25882 .96593 44.768 74.33)" d="M4 1e-06L32 0L36 4L0 4Z" fill="url(#d)" filter="url(#p)" opacity=".22222"/><path id="as" transform="matrix(.96593 -.25882 .25882 .96593 102.72 58.8)" d="m4 0h8l4 4h-16z" fill="url(#c)" filter="url(#o)" opacity=".22222"/></g><g id="at"><path id="au" transform="translate(3.746 11.817)" d="m8.0048 32.019-8.0048-14.42 65.683-17.6 0.2774 16.49-2.0706-7.7274-57.956 15.529z" fill="#3894e5"/><path id="av" transform="translate(38.039 31.616)" d="m8.0048 32.019-8.0048-14.42 65.683-17.6 0.2774 16.49-2.0706-7.7274-57.956 15.529z" fill="#3894e5"/><rect id="aw" transform="matrix(.96593 -.25882 .25882 .96593 43.215 68.534)" width="28.8pt" height="6.4pt" rx="3.2pt" ry="3.0732pt" fill="#2fe260"/><rect id="ax" transform="matrix(.96593 -.25882 .25882 .96593 101.17 53.005)" width="12.8pt" height="6.4pt" rx="3.2pt" ry="2.3969pt" fill="#2fe260"/><path id="ay" transform="translate(22.381 81.363)" d="m8.0048 32.019-8.0048-14.42 65.683-17.6 0.2774 16.49-2.0706-7.7274-57.956 15.529z" fill="#3894e5"/><path id="az" transform="translate(105.59 75.152)" d="m5.6568 0-5.6568 9.798 9.798 5.6568 5.6568-9.7979z" fill="#e24949"/><path id="ba" transform="translate(3.746 11.817)" d="m8.0048 32.019-8.0048-14.42 65.683-17.6 0.2774 16.49-2.0706-7.7274-57.956 15.529z" fill="url(#b)"/><path id="bb" transform="translate(38.039 31.616)" d="m8.0048 32.019-8.0048-14.42 65.683-17.6 0.2774 16.49-2.0706-7.7274-57.956 15.529z" fill="url(#a)"/><path id="bc" transform="translate(22.381 81.363)" d="m8.0048 32.019-8.0048-14.42 65.683-17.6 0.2774 16.49-2.0706-7.7274-57.956 15.529z" fill="url(#l)"/><path id="bd" transform="translate(105.59 75.152)" d="m5.6568 0-5.6568 9.798 9.798 5.6568 5.6568-9.7979z" fill="url(#k)"/><rect id="be" transform="matrix(.96593 -.25882 .25882 .96593 43.215 68.534)" width="28.8pt" height="6.4pt" rx="3.2pt" ry="3.0732pt" fill="url(#j)"/><rect id="bf" transform="matrix(.96593 -.25882 .25882 .96593 101.17 53.005)" width="12.8pt" height="6.4pt" rx="3.2pt" ry="2.3969pt" fill="url(#i)"/></g></svg>
