<?xml version="1.0" encoding="UTF-8"?>
<svg id="aa" version="1.0" viewBox="0 0 128 128" xmlns="http://www.w3.org/2000/svg" xmlns:xlink="http://www.w3.org/1999/xlink"><defs id="ab"><filter id="t"><feGaussianBlur id="ac" stdDeviation="2.7"/></filter><linearGradient id="g" x1="16.542" x2="-24.629" y1="144.71" y2="-.77769" gradientTransform="matrix(.54655 -.29569 .29569 .54655 38.824 28.839)" gradientUnits="userSpaceOnUse"><stop id="ad" stop-color="#006e29" offset="0"/><stop id="ae" stop-color="#77b753" offset="1"/></linearGradient><radialGradient id="b" cx="-1.6034" cy="26.43" r="51.5" fx="-33.958" fy="39.164" gradientTransform="matrix(1.0618 1.8391 -2.0991 1.2119 129.69 -27.581)" gradientUnits="userSpaceOnUse"><stop id="af" stop-color="#fafafa" offset="0"/><stop id="ag" stop-color="#fafafa" offset=".5"/><stop id="ah" stop-color="#eee" offset="1"/></radialGradient><linearGradient id="f" x1="20" x2="116" y1="116" y2="4" gradientUnits="userSpaceOnUse"><stop id="ai" offset="0"/><stop id="aj" stop-opacity="0" offset="1"/></linearGradient><linearGradient id="s" x1="62" x2="70.922" y1="153.77" y2="144.84" gradientTransform="matrix(.62632 .36124 -.33163 .57508 81.982 -21.407)" gradientUnits="userSpaceOnUse"><stop id="ak" stop-color="#fff" offset="0"/><stop id="al" stop-color="#fff" stop-opacity="0" offset="1"/></linearGradient><linearGradient id="r" x1="61.001" x2="60.5" y1="31.586" y2="31.586" gradientTransform="matrix(.62632 .36124 -.041453 .071885 79.186 -15.835)" gradientUnits="userSpaceOnUse"><stop id="am" stop-opacity="0" offset="0"/><stop id="an" stop-color="#080808" offset="1"/></linearGradient><linearGradient id="q" x1="59.515" x2="62.331" y1="26.312" y2="26.312" gradientTransform="matrix(.93947 .54186 -.33163 .57508 63.874 -34.15)" gradientUnits="userSpaceOnUse" spreadMethod="reflect"><stop id="ao" stop-color="#ececec" offset="0"/><stop id="ap" stop-color="#080808" offset="1"/></linearGradient><radialGradient id="c" cx="59.373" cy="49.395" r="1.5" fx="58.936" fy="50.038" gradientTransform="matrix(.97663 .4946 -1.0389 2.1043 95.832 -104.36)" gradientUnits="userSpaceOnUse"><stop id="aq" stop-color="#404040" offset="0"/><stop id="ar" stop-color="#efefef" offset="1"/></radialGradient><linearGradient id="p" x1="64.756" x2="64.756" y1="139.99" y2="142.3" gradientTransform="matrix(.62632 .36124 -.33163 .57508 81.982 -21.407)" gradientUnits="userSpaceOnUse"><stop id="as" stop-color="#323232" offset="0"/><stop id="at" stop-color="#323232" stop-opacity="0" offset="1"/></linearGradient><linearGradient id="o" x1="65" x2="74.249" y1="8" y2="8" gradientTransform="matrix(.62632 .36124 -.33163 .57508 82.976 -23.133)" gradientUnits="userSpaceOnUse" spreadMethod="reflect"><stop id="au" stop-color="#fff" offset="0"/><stop id="av" offset="1"/></linearGradient><linearGradient id="h" x1="65.349" x2="72.1" y1="58" y2="58" gradientUnits="userSpaceOnUse" spreadMethod="reflect"><stop id="aw" offset="0"/><stop id="ax" stop-opacity="0" offset="1"/></linearGradient><clipPath id="y"><path id="ay" d="m62.656 4c-0.98341 0-1.7812 0.79784-1.7812 1.7812v2.25c-0.48866 0.066098-0.875 0.46168-0.875 0.96875v48c0 0.55317 0.44683 1 1 1-0.55317 0-1 0.44683-1 1v52l1 31c0 0.55317 0.44683 1 1 1h6c0.55317 0 1-0.44683 1-1l1-31v-52c0-0.55317-0.44683-1-1-1 0.55317 0 1-0.44683 1-1v-48c0-0.55317-0.44683-1-1-1v-2.2188c0-0.98341-0.79784-1.7812-1.7812-1.7812h-4.5625z" fill="#000" opacity=".705"/></clipPath><filter id="v" x="-.0648" y="-.324" width="1.1296" height="1.648" color-interpolation-filters="sRGB"><feGaussianBlur id="az" stdDeviation="0.27"/></filter><linearGradient id="n" x1="63.994" x2="63.994" y1="58" y2="56.996" gradientTransform="matrix(.62632 .36124 .33163 -.57508 44.508 43.577)" gradientUnits="userSpaceOnUse" xlink:href="#a"/><linearGradient id="a"><stop id="ba" offset="0"/><stop id="bb" stop-opacity="0" offset="1"/></linearGradient><linearGradient id="m" x1="63.994" x2="63.994" y1="58" y2="56.996" gradientTransform="matrix(.62632 .36124 -.33163 .57508 82.976 -23.133)" gradientUnits="userSpaceOnUse" xlink:href="#a"/><linearGradient id="l" x1="60.02" x2="65.489" y1="73.639" y2="73.674" gradientTransform="matrix(.62632 .36124 -.33163 .57508 82.976 -23.133)" gradientUnits="userSpaceOnUse"><stop id="bc" stop-color="#fff" stop-opacity="0" offset="0"/><stop id="bd" stop-color="#fff" offset=".5"/><stop id="be" stop-color="#fff" stop-opacity="0" offset="1"/></linearGradient><clipPath id="z"><path id="bf" d="m62.656 4c-0.98341 0-1.7812 0.79784-1.7812 1.7812v2.25c-0.48866 0.066098-0.875 0.46168-0.875 0.96875v48c0 0.55317 0.44683 1 1 1-0.55317 0-1 0.44683-1 1v52l1 31c0 0.55317 0.44683 1 1 1h6c0.55317 0 1-0.44683 1-1l1-31v-52c0-0.55317-0.44683-1-1-1 0.55317 0 1-0.44683 1-1v-48c0-0.55317-0.44683-1-1-1v-2.2188c0-0.98341-0.79784-1.7812-1.7812-1.7812h-4.5625z" fill="#000" opacity=".31"/></clipPath><filter id="w" x="-.1788" y="-.012863" width="1.3576" height="1.0257" color-interpolation-filters="sRGB"><feGaussianBlur id="bg" stdDeviation="0.745"/></filter><linearGradient id="k" x1="70" x2="68.223" y1="70.141" y2="70.141" gradientTransform="matrix(.62632 .36124 -.33163 .57508 82.976 -23.133)" gradientUnits="userSpaceOnUse"><stop id="bh" offset="0"/><stop id="bi" stop-opacity="0" offset="1"/></linearGradient><linearGradient id="j" x1="65.73" x2="70.036" y1="74.085" y2="74.085" gradientTransform="matrix(.62632 .36124 -.33163 .57508 82.976 -23.133)" gradientUnits="userSpaceOnUse" spreadMethod="reflect"><stop id="bj" offset="0"/><stop id="bk" stop-opacity="0" offset="1"/></linearGradient><linearGradient id="i" x1="63.491" x2="73.839" y1="148.68" y2="150.8" gradientTransform="matrix(.62632 .36124 -.33163 .57508 81.982 -21.407)" gradientUnits="userSpaceOnUse"><stop id="bl" stop-color="#c0c0c0" offset="0"/><stop id="bm" stop-color="#4b4b4b" offset="1"/></linearGradient><linearGradient id="e" x1="61.768" x2="71.775" y1="73.5" y2="73.5" gradientTransform="matrix(.62632 .36124 -.33163 .57508 82.976 -23.133)" gradientUnits="userSpaceOnUse"><stop id="bn" stop-color="#eaeaea" offset="0"/><stop id="bo" stop-color="#f2f2f2" offset=".22222"/><stop id="bp" stop-color="#d0d0d0" offset=".75"/><stop id="bq" stop-color="#dcdcdc" offset="1"/></linearGradient><clipPath id="x"><path id="br" d="m89 7-84 18 19 99 66-14 18-6-3.1309-19.241-15.869-77.759z" fill="#000" fill-rule="evenodd"/></clipPath><filter id="u" color-interpolation-filters="sRGB"><feGaussianBlur id="bs" stdDeviation="1.6272834"/></filter><linearGradient id="d" x1="59.14" x2="88.614" y1="108.25" y2="89.012" gradientUnits="userSpaceOnUse"><stop id="bt" offset="0"/><stop id="bu" stop-opacity="0" offset="1"/></linearGradient></defs><g id="bv"><path id="bw" transform="matrix(.96593 -.25882 .25882 .96593 -15.596 12.686)" d="m14 16h82v102h-82z" fill="url(#f)" filter="url(#t)" opacity=".63"/><path id="bx" d="m81.274 3.2945-77.274 20.706 25.882 96.593 77.274-20.706zm-53.5 78.522c0.28588 1.0669-0.34728 2.1636-1.4142 2.4495-1.0669 0.28588-2.1636-0.34728-2.4495-1.4142-0.28588-1.0669 0.34728-2.1636 1.4142-2.4495 1.0669-0.28588 2.1636 0.34728 2.4495 1.4142zm-6.2117-23.182c0.28588 1.0669-0.34728 2.1636-1.4142 2.4495-1.0669 0.28588-2.1636-0.34728-2.4495-1.4142-0.28588-1.0669 0.34728-2.1636 1.4142-2.4495 1.0669-0.28588 2.1636 0.34728 2.4495 1.4142zm12.423 46.364c0.28588 1.0669-0.34728 2.1636-1.4142 2.4495-1.0669 0.28589-2.1636-0.34728-2.4495-1.4142s0.34728-2.1636 1.4142-2.4495c1.0669-0.28588 2.1636 0.34728 2.4495 1.4142zm-18.635-69.547c0.28588 1.0669-0.34728 2.1636-1.4142 2.4495-1.0669 0.28588-2.1636-0.34728-2.4495-1.4142-0.28588-1.0669 0.34728-2.1636 1.4142-2.4495 1.0669-0.28588 2.1636 0.34728 2.4495 1.4142z" fill="url(#b)" fill-rule="evenodd"/><path id="by" d="m18.489 20.118 0.96593-0.25882 25.882 96.593-0.96593 0.25882z" fill="#bbc3cd" fill-rule="evenodd" opacity=".235"/><path id="bz" d="m79.999 13.989-10.104 2.9723c2.0179 1.2163 3.5051 2.9026 4.8959 5.4734 2.2015 4.0693 3.3931 10.006 3.5782 17.198 0.14571 8.8876-1.1863 18.579-5.3219 37.673-2.0241-4.4043-3.3911-7.3829-3.9415-8.4002l-6.5024-13.334c-2.2167-4.5393-4.8981-10.161-7.9806-16.742-1.1159-2.5046-2.2282-4.9889-3.4366-7.4435l-4.2139 5.0314c-0.35156 9.5153-3.5292 42.058-5.362 55.243-3.0355-8.0416-10.436-30.316-14.22-42.615 1.5919-1.6981 2.3484-2.9526 3.205-5.568-3.3401 1.8518-5.5948 3.1106-7.8825 4.3873l16.371 60.506 4.8338-4.9246c2.9878-26.962 3.7843-34.309 5.6791-55.777 5.8192 11.198 17.313 34.846 21.033 43.712l4.8694-5.1313c0.54265-6.5103 0.78234-8.6918 2.7486-19.2 5.7133-30.08 6.2445-43.983 1.7513-53.062z" fill="url(#g)"/><path id="ca" transform="matrix(.82153 0 0 .82153 26.589 .15885)" d="m90.178 80.922-25.237 18.002c-0.46007 0.30624-0.57276 0.91347-0.26655 1.3735l0.49331 0.74948-9.1091 4.3842c-0.27809 1.3853-2.2006 3.889-4.4189 5.9656 4.1571-0.96687 6.3603-1.2427 8.2991-0.13292l7.5088-6.7737 0.55347 0.82003c0.30623 0.46005 0.91346 0.57277 1.3735 0.26653l26.328-16.323c128.16-89.945 74.59-61.622-5.5246-8.3309z" clip-path="url(#x)" fill="url(#d)" filter="url(#u)" opacity=".32"/></g><g id="cb"><path id="cc" d="m120.89 1.8017c-0.61592-0.35525-1.3802-0.18464-1.7063 0.3809l-0.74616 1.2939c-0.32797-0.13851-0.70113-0.05058-0.86929 0.24102l-15.918 27.604c-0.18344 0.31812-0.0518 0.73649 0.29469 0.93632-0.34646-0.19983-0.7745-0.10428-0.95794 0.21384l-17.245 29.904-9.6541 18.189c-0.18345 0.31812-0.05177 0.7365 0.29469 0.93632l3.7579 2.1673c0.34646 0.19983 0.77449 0.10428 0.95794-0.21384l10.907-17.466 17.245-29.904c0.18345-0.31812 0.0518-0.73649-0.29468-0.93632 0.34645 0.19983 0.77449 0.10428 0.95794-0.21384l15.918-27.604c0.18345-0.31812 0.0518-0.73649-0.29468-0.93632l0.73575-1.2759c0.32613-0.56554 0.091-1.3126-0.52491-1.6678l-2.8576-1.6482z" fill="url(#e)"/><path id="cd" d="m74.938 81.82 2.5785 1.4875-2.3768 6.2927c-1.5843-0.14739-2.8738 0.64153-5.1398 2.4 0.68173-1.9059 1.0503-3.9923 0.7556-4.9287l4.1824-5.2513z" fill="url(#i)"/><rect id="ce" transform="matrix(.86624 .49962 -.49955 .86628 0 0)" x="103.71" y="-52.202" width="7.2303" height="3.3192" fill="#000" opacity=".14"/><path id="cf" d="m120.89 1.8017c-0.61592-0.35525-1.3802-0.18464-1.7063 0.3809l-0.74616 1.2939c-0.32797-0.13851-0.70113-0.05058-0.86929 0.24102l-15.918 27.604c-0.18344 0.31812-0.0518 0.73649 0.29469 0.93632-0.34646-0.19983-0.7745-0.10428-0.95794 0.21384l-17.245 29.904-9.6541 18.189c-0.18345 0.31812-0.05177 0.7365 0.29469 0.93632l3.7579 2.1673c0.34646 0.19983 0.77449 0.10428 0.95794-0.21384l10.907-17.466 17.245-29.904c0.18345-0.31812 0.0518-0.73649-0.29468-0.93632 0.34645 0.19983 0.77449 0.10428 0.95794-0.21384l15.918-27.604c0.18345-0.31812 0.0518-0.73649-0.29468-0.93632l0.73575-1.2759c0.32613-0.56554 0.091-1.3126-0.52491-1.6678l-2.8576-1.6482z" fill="url(#j)" opacity=".31"/><path id="cg" d="m122.5 2.7274c0.61593 0.35525 0.85104 1.1023 0.52491 1.6678l-0.73579 1.276c0.34646 0.19983 0.47813 0.6182 0.29468 0.93632l-15.918 27.604c-0.18345 0.31812-0.61148 0.41367-0.95794 0.21384 0.34646 0.19983 0.47813 0.6182 0.29468 0.93632l-17.245 29.904-10.907 17.466c-0.18345 0.31812-0.61148 0.41367-0.95794 0.21384l1.2526 0.72249c0.34646 0.19982 0.7745 0.10427 0.95794-0.21384l10.907-17.466 17.245-29.904c0.18345-0.31812 0.0518-0.73649-0.29468-0.93632 0.34645 0.19983 0.77449 0.10428 0.95794-0.21384l15.918-27.604c0.18345-0.31812 0.0518-0.73649-0.29468-0.93632l0.73579-1.276c0.32613-0.56554 0.091-1.3126-0.52491-1.6678l-1.2526-0.72248z" fill="url(#k)" opacity=".32"/><path id="ch" transform="matrix(.62632 .36124 -.33163 .57508 82.976 -23.133)" d="m62.656 4c-0.98341 0-1.7812 0.79784-1.7812 1.7812v2.25c-0.48866 0.066098-0.875 0.46168-0.875 0.96875v48c0 0.55317 0.44683 1 1 1-0.55317 0-1 0.44683-1 1v52l1 31c0 0.55317 0.44683 1 1 1h6c0.55317 0 1-0.44683 1-1l1-31v-52c0-0.55317-0.44683-1-1-1 0.55317 0 1-0.44683 1-1v-48c0-0.55317-0.44683-1-1-1v-2.2188c0-0.98341-0.79784-1.7812-1.7812-1.7812h-4.5625z" clip-path="url(#z)" fill="none" filter="url(#w)" opacity=".31" stroke="#000" stroke-miterlimit="4" stroke-width="4.1492"/><path id="ci" d="m120.89 1.8017c-0.61592-0.35525-1.3802-0.18464-1.7063 0.3809l-0.74616 1.2939c-0.32797-0.13851-0.70113-0.05058-0.86929 0.24102l-15.918 27.604c-0.18344 0.31812-0.0518 0.73649 0.29469 0.93632-0.34646-0.19983-0.7745-0.10428-0.95794 0.21384l-17.245 29.904-9.6541 18.189c-0.18345 0.31812-0.05177 0.7365 0.29469 0.93632l3.7579 2.1673c0.34646 0.19983 0.77449 0.10428 0.95794-0.21384l10.907-17.466 17.245-29.904c0.18345-0.31812 0.0518-0.73649-0.29468-0.93632 0.34645 0.19983 0.77449 0.10428 0.95794-0.21384l15.918-27.604c0.18345-0.31812 0.0518-0.73649-0.29468-0.93632l0.73575-1.2759c0.32613-0.56554 0.091-1.3126-0.52491-1.6678l-2.8576-1.6482z" fill="url(#l)" opacity=".705"/><path id="cj" d="m101.65 31.321c-0.18344 0.31812-0.0518 0.73649 0.29469 0.93632l5.0105 2.8899c0.34645 0.19983 0.77449 0.10428 0.95794-0.21384l-6.2631-3.6124z" fill="url(#m)" opacity=".4"/><path id="ck" d="m100.99 32.472c0.18344-0.31812 0.61148-0.41367 0.95794-0.21384l5.0105 2.8899c0.34645 0.19983 0.47813 0.6182 0.29468 0.93632l-6.2631-3.6124z" fill="url(#n)" opacity=".4"/><path id="cl" transform="matrix(.62632 .36124 -.33163 .57508 82.976 -23.133)" d="m60 57c0 0.55317 0.44683 1 1 1-0.55317 0-1 0.44683-1 1h10c0-0.55317-0.44683-1-1-1 0.55317 0 1-0.44683 1-1h-10z" clip-path="url(#y)" fill="url(#h)" filter="url(#v)" opacity=".525"/><path id="cm" d="m115.62 5.6566-14.592 25.304 0.62631 0.36124 8.8801-12.504 6.6325-11.502c-0.34596-0.19954-1.104-0.9801-0.92097-1.2975l-0.62631-0.36124z" fill="#000" opacity=".175"/><rect id="cn" transform="matrix(.86624 .49962 -.49955 .86628 0 0)" x="103.71" y="-50.874" width="7.2303" height=".66385" fill="#fff" opacity=".6"/><path id="co" d="m123.54 6.3936-5.0992-2.9171c-0.32797-0.13851-0.70113-0.05058-0.86929 0.24102l-0.33163 0.57508c0.16816-0.29161 0.54132-0.37954 0.86929-0.24102l5.0992 2.9171c0.34646 0.19983 0.47813 0.6182 0.29468 0.93632l0.33163-0.57508c0.18345-0.31812 0.0518-0.73649-0.29468-0.93632z" fill="url(#o)" opacity=".705"/><path id="cp" d="m74.933 81.817-0.38935 0.53184 2.4545 2.2261 0.5184-1.2678-2.5834-1.4904z" fill="url(#p)" opacity=".625"/><path id="cq" d="m73.039 86.728c-0.2818-0.16254-0.62912-0.085-0.77833 0.17375-0.11908 0.2065-0.06248 0.45552 0.10359 0.6345l-2.2385 3.8818-0.0092 0.37785 0.3224-0.19723 2.2385-3.8818c0.23809 0.0541 0.48194-0.0216 0.60103-0.22812 0.14921-0.25875 0.04237-0.59822-0.23944-0.76076z" fill="#000" opacity=".365"/><path id="cr" d="m103.35 26.935c-0.22645-0.13061-0.5009-0.15501-0.78177-0.09167l-2.0105 3.4864c0.0858 0.27486 0.24443 0.5002 0.47087 0.63081 0.69145 0.39881 1.7726-0.17925 2.4133-1.2903 0.64071-1.1111 0.59951-2.3365-0.0919-2.7353z" fill="url(#c)"/><path id="cs" d="m114.99 5.2954-14.592 25.304 0.62632 0.36124 8.8801-12.504 6.6326-11.502c-0.34604-0.19958-0.47779-0.6189-0.29474-0.93634l-1.2526-0.72248z" fill="url(#q)"/><path id="ct" d="m116.54 6.9542-1.6581 2.8754 0.31315 0.18062 1.6582-2.8754-0.31316-0.18062z" fill="url(#r)" opacity=".335"/><path id="cu" d="m74.933 81.817-4.1775 5.2541c0.29469 0.93632-0.07388 3.0228-0.7556 4.9287 0.69242-0.53734 1.2252-0.94758 1.688-1.2536 0.23171-0.51684 0.51226-1.024 0.81181-1.5435 1.0845-1.8806 3.4054-5.1222 4.7037-6.0762l-2.2703-1.3096z" fill="url(#s)" opacity=".63"/></g></svg>
