<?xml version="1.0" encoding="UTF-8"?>
<!DOCTYPE svg  PUBLIC '-//W3C//DTD SVG 20010904//EN'  'http://www.w3.org/TR/2001/REC-SVG-20010904/DTD/svg10.dtd'>
<svg width="102.4pt" height="102.4pt" xmlns="http://www.w3.org/2000/svg"><defs><filter id="v" primitiveUnits="objectBoundingBox"><feGaussianBlur x="0.00000000000" y="0.00000000000" width="1.00000000000" height="1.00000000000" in="" result="" stdDeviation="0.00985524, 0.00844734"/></filter><filter id="u" primitiveUnits="objectBoundingBox"><feGaussianBlur x="0.00000000000" y="0.00000000000" width="1.00000000000" height="1.00000000000" in="" result="" stdDeviation="0.0264795, 0.0229304"/></filter><radialGradient id="s" cx="1.0851" cy="1.0212" r=".96468" fx="1.2243" fy="1.1306" gradientTransform="matrix(1 0 0 .99966 -17 -8.997)"><stop stop-color="#efefef" offset="0"/><stop stop-color="#f9f9f9" offset=".18851"/><stop stop-color="#fafafa" offset=".25718"/><stop stop-color="#fff" offset=".30111"/><stop stop-color="#fafafa" offset=".5313"/><stop stop-color="#ebecec" offset=".8449"/><stop stop-color="#e1e2e3" offset="1"/></radialGradient><linearGradient id="r" x1=".69681" x2=".69681" y1="1.4753" y2=".30229" gradientTransform="translate(-9 -9)"><stop stop-color="#5df" offset="0"/><stop stop-color="#c7ecf4" offset=".83492"/><stop stop-color="#d8edf2" offset="1"/></linearGradient><linearGradient id="n" x1="1.1471" x2="1.1471" y1="9.25" y2="8.25" gradientTransform="translate(-15 -33)"><stop stop-color="#5e815c" offset="0"/><stop stop-color="#a9e14d" offset="1"/></linearGradient><linearGradient id="d" x1="2.2941" x2="2.2941" y1="9.25" y2="8.25" gradientTransform="translate(-15 -33)"><stop stop-color="#5e815c" offset="0"/><stop stop-color="#a9e14d" offset="1"/></linearGradient><filter id="t" x="-.032556" y="-.27647" width="1.0651" height="1.5529" primitiveUnits="objectBoundingBox"><feGaussianBlur x="0.00000000000" y="0.00000000000" width="1.00000000000" height="1.00000000000" in="" result="" stdDeviation="0.0339437, 0.133949"/></filter><radialGradient id="g" cx="2.0588" cy="38.962" r="1.1744" gradientTransform="matrix(.425 0 0 .20312 -6.375 -6.9141)"><stop stop-color="#1e7012" offset="0"/><stop stop-color="#51a41b" stop-opacity="0" offset="1"/></radialGradient><linearGradient id="c" x1="2.2941" x2="2.2941" y1="9.25" y2="8.25" gradientTransform="translate(-15 -33)"><stop stop-color="#d78600" offset="0"/><stop stop-color="#f5dd41" offset="1"/></linearGradient><linearGradient id="f" x1="1.2188" x2="1.2188" y1="9.25" y2="8.25" gradientTransform="translate(-15 -33)"><stop stop-color="#d78600" offset="0"/><stop stop-color="#f5dd41" offset="1"/></linearGradient><linearGradient id="e" x1="3.9" x2="3.9" y1="9.25" y2="8.25" gradientTransform="translate(-22 -33)"><stop stop-color="#d78600" offset="0"/><stop stop-color="#f5dd41" offset="1"/></linearGradient><linearGradient id="b" x1="3.9" x2="3.9" y1="9" y2="8.25" gradientTransform="translate(-22 -33)"><stop stop-color="#00aad4" offset="0"/><stop stop-color="#cbf5ff" offset="1"/></linearGradient><linearGradient id="q" x1=".92803" x2=".92803" y1="1.443" y2=".42847" gradientTransform="translate(-16 -24.053)"><stop stop-color="#003100" offset="0"/><stop stop-color="#008c00" offset="1"/></linearGradient><radialGradient id="p" cx=".55868" cy=".72111" r=".43333" gradientTransform="matrix(1.0961 .087912 -.10023 1.2497 -14.94 -46.74)"><stop stop-color="#fff" offset="0"/><stop stop-color="#fff" stop-opacity="0" offset="1"/></radialGradient><radialGradient id="o" cx="16.541" cy="2.7485" r=".24573" gradientTransform="matrix(1.9647 3.4243e-7 -1.0414e-6 5.9753 -192.99 -170.18)"><stop stop-color="#f0ff80" offset="0"/><stop stop-color="#f0ff80" stop-opacity="0" offset="1"/></radialGradient><radialGradient id="a" cx="16.541" cy="2.7485" r=".24573" gradientTransform="matrix(1.9647 3.4243e-7 -1.0414e-6 5.9753 -192.99 -170.18)"><stop stop-color="#fff" offset="0"/><stop stop-color="#fff" stop-opacity="0" offset="1"/></radialGradient><radialGradient id="m" cx=".54992" cy="1.3258" r=".43333" fx=".55375" fy="1.2095" gradientTransform="matrix(.56466 8.5323e-8 -1.3866e-7 .91764 8.4242 -27.909)"><stop stop-color="#001400" offset="0"/><stop stop-color="#001400" stop-opacity="0" offset="1"/></radialGradient><radialGradient id="l" cx=".5681" cy="1.077" r=".4" fy="1.3873" gradientTransform="matrix(1.3117 5.847e-8 -4.3853e-8 .98379 -32.906 -26.739)"><stop stop-color="#66f515" offset="0"/><stop stop-color="#002e00" offset="1"/></radialGradient><linearGradient id="k" x1=".86797" x2=".86797" y1=".48611" y2="1.8181" gradientTransform="translate(-16 -24.062)"><stop stop-color="#bfffbf" offset="0"/><stop stop-color="#bfffbf" stop-opacity="0" offset="1"/></linearGradient><linearGradient id="j" x1=".74587" x2=".74587" y1="1.3456" y2=".65804" gradientTransform="translate(-16 -28.053)"><stop stop-color="#f0ff80" offset="0"/><stop stop-color="#f0ff80" stop-opacity="0" offset="1"/></linearGradient><linearGradient id="i" x1="1.0963" x2=".96611" y1="1.5119" y2=".93489" gradientTransform="translate(-32.156 -28.062)"><stop stop-color="#fff" offset="0"/><stop stop-color="#fff" stop-opacity="0" offset="1"/></linearGradient><linearGradient id="h" x1=".86797" x2=".86797" y1=".51095" y2="1.483" gradientTransform="translate(-16 -24.062)"><stop stop-color="#fff" offset="0"/><stop stop-color="#fff" stop-opacity="0" offset="1"/></linearGradient></defs><g id="w"><path id="x" transform="translate(8 8.0938)" d="m0 0v112h96v-104.09c0-4.002-2.9425-7.3192-6.7812-7.9062z" fill="#000" filter="url(#v)" opacity=".5"/><path id="y" transform="translate(6.875 7.6875)" d="m0 0v113.31h98.125v-105c-0.1837-4.6154-3.996-8.3125-8.6562-8.3125-0.1175 0-0.2275 0.026606-0.3438 0.03125v-0.03125z" fill="#000" filter="url(#u)" opacity=".5"/><path id="z" transform="translate(8 8)" d="m0 0v112h63.156 32.844v-104c0-4.416-3.584-8-8-8z" fill="#fff"/><path id="aa" transform="translate(9 9)" d="m1 0c-0.551 5e-7 -1 0.44919-1 1v107.97c0 0.552 0.449 1 1 1h59.188 33.812v-102.97c0-3.864-3.136-7-7-7z" fill="url(#s)"/><path id="ab" transform="translate(9 9)" d="m1 0c-0.554 0-1 0.5085-1 1.0625v16.938c0 0.554 0.446 1 1 1h92c0.554 0 1-0.446 1-1v-11c0-3.5674-3-7-7-7z" fill="url(#r)"/><rect id="ac" transform="translate(10 103)" width="72pt" height="8pt" fill="#b6f3ff" opacity=".32178"/><rect id="ad" transform="translate(10 63)" width="72pt" height="8pt" fill="#b6f3ff" opacity=".32178"/><rect id="ae" transform="translate(10 43)" width="72pt" height="8pt" fill="#b6f3ff" opacity=".32178"/><rect id="af" transform="translate(10 103)" width="72pt" height=".8pt" fill="#bcbcbc" fill-opacity=".43316"/><rect id="ag" transform="translate(123.36 94.547)" width=".51471pt" height="1e-6pt" display="none" fill="#fff" opacity=".57787"/><path id="ah" transform="translate(25 37)" d="M2.46875 0C1.09767 0 0 1.09767 0 2.46875L0 4L34 4L34 2.46875C34 1.09767 32.9023 0 31.5312 0Z" fill="url(#n)"/><path id="ai" transform="translate(62 47)" d="M2.46875 0C1.09767 0 0 1.09767 0 2.46875L0 4L17 4L17 2.46875C17 1.09767 15.9023 0 14.5312 0Z" fill="url(#d)"/><rect id="aj" transform="translate(80 49)" width=".8pt" height="13.6pt" fill="#bcbcbc"/><path id="ak" transform="translate(82.031 87)" d="M1.6875 0C0.744882 0 0 0.74488 0 1.6875L0 4.3L16.9688 4.3L16.9688 1.6875C16.9688 0.74488 16.2239 0 15.2812 0Z" fill="#28500c" filter="url(#t)"/><path id="al" transform="translate(82 87)" d="M2.46875 0C1.09767 0 0 1.09767 0 2.46875L0 4L17 4L17 2.46875C17 1.09767 15.9023 0 14.5312 0Z" fill="url(#d)"/><rect id="am" transform="translate(82 90)" width="13.6pt" height=".8pt" fill="url(#g)"/><path id="an" transform="translate(25 47)" d="M2.46875 0C1.09767 0 0 1.09767 0 2.46875L0 4L17 4L17 2.46875C17 1.09767 15.9023 0 14.5312 0Z" fill="url(#c)"/><path id="ao" transform="translate(45 57)" d="M2.46875 0C1.09767 0 0 1.09767 0 2.46875L0 4L17 4L17 2.46875C17 1.09767 15.9023 0 14.5312 0Z" fill="url(#c)"/><rect id="ap" transform="translate(10 83)" width="72pt" height="8pt" fill="#b6f3ff" opacity=".32178"/><path id="aq" transform="translate(67 77)" d="M2.46875 0C1.09767 0 0 1.09767 0 2.46875L0 4L32 4L32 2.46875C32 1.09767 30.9023 0 29.5312 0Z" fill="url(#f)"/><rect id="ar" transform="translate(59 39)" width=".8pt" height=".8pt" fill="#bcbcbc"/><rect id="as" transform="translate(60 39)" width=".8pt" height="8.8pt" fill="#bcbcbc"/><rect id="at" transform="translate(61 49)" width=".8pt" height=".8pt" fill="#bcbcbc"/><rect id="au" transform="translate(42 49)" width=".8pt" height=".8pt" fill="#bcbcbc"/><rect id="av" transform="translate(43 49)" width=".8pt" height="8.8pt" fill="#bcbcbc"/><rect id="aw" transform="translate(44 59)" width=".8pt" height=".8pt" fill="#bcbcbc"/><rect id="ax" transform="translate(44 59)" width=".8pt" height=".8pt" fill="#bcbcbc"/><rect id="ay" transform="translate(62 60)" width=".8pt" height=".8pt" fill="#bcbcbc"/><rect id="az" transform="translate(63 60)" width=".8pt" height="16pt" fill="#bcbcbc"/><rect id="ba" transform="translate(64 79)" width="2.4pt" height=".8pt" fill="#bcbcbc"/><rect id="bb" transform="translate(79 49)" width=".8pt" height=".8pt" fill="#bcbcbc"/><rect id="bc" transform="translate(81 89)" width=".8pt" height=".8pt" fill="#bcbcbc"/><rect id="bd" transform="translate(80 66)" width=".8pt" height="12pt" fill="#bcbcbc"/><rect id="be" transform="translate(10 93)" width="72pt" height=".8pt" fill="#bcbcbc" fill-opacity=".43316"/><rect id="bf" transform="translate(80 87)" width=".8pt" height="10.4pt" fill="#bcbcbc"/><path id="bg" transform="translate(25 77)" d="M2.46875 0C1.09767 0 0 1.09767 0 2.46875L0 4L10 4L10 2.46875C10 1.09767 8.90233 0 7.53125 0Z" fill="url(#e)"/><rect id="bh" transform="translate(35 79)" width="22.4pt" height=".8pt" fill="#bcbcbc"/><path id="bi" transform="translate(25 57)" d="M2.46875 0C1.09767 0 0 1.09767 0 2.46875L0 4L10 4L10 2.46875C10 1.09767 8.90233 0 7.53125 0Z" fill="url(#b)"/><rect id="bj" transform="translate(35 59)" width="3.2pt" height=".8pt" fill="#bcbcbc"/><rect id="bk" transform="translate(38 59)" width=".8pt" height="15.2pt" fill="#bcbcbc"/><rect id="bl" transform="translate(38 89)" width="12pt" height=".8pt" fill="#bcbcbc"/><path id="bm" transform="translate(53 87)" d="M2.46875 0C1.09767 0 0 1.09767 0 2.46875L0 4L10 4L10 2.46875C10 1.09767 8.90233 0 7.53125 0Z" fill="url(#b)"/><rect id="bn" transform="translate(38 81)" width=".8pt" height="7.2pt" fill="#bcbcbc"/><rect id="bo" transform="translate(10 73)" width="72pt" height=".8pt" fill="#bcbcbc" fill-opacity=".43316"/><rect id="bp" transform="translate(10 112)" width="72pt" height=".8pt" fill="#bcbcbc" fill-opacity=".43316"/><rect id="bq" transform="translate(10 83)" width="72pt" height=".8pt" fill="#bcbcbc" fill-opacity=".43316"/><rect id="br" transform="translate(19 33)" width=".8pt" height="64pt" fill="#bcbcbc" fill-opacity=".43316"/><rect id="bs" transform="translate(10 43)" width="72pt" height=".8pt" fill="#bcbcbc" fill-opacity=".43316"/><rect id="bt" transform="translate(10 63)" width="72pt" height=".8pt" fill="#bcbcbc" fill-opacity=".43316"/><rect id="bu" transform="translate(10 53)" width="72pt" height=".8pt" fill="#bcbcbc" fill-opacity=".43316"/><rect id="bv" transform="translate(10 33)" width="72pt" height=".8pt" fill="#bcbcbc" fill-opacity=".43316"/><text id="bw" x="10.40000000000pt" y="32.80000000000pt" fill="#a8a8a8" font-family="Gill Sans" font-size="5.5433pt"><tspan x="-13" y="-30.8438">1</tspan></text><text id="bx" x="10.40000000000pt" y="40.80000000000pt" fill="#a8a8a8" font-family="Gill Sans" font-size="5.5433pt"><tspan x="-13" y="-40.6875">2</tspan></text><text id="by" x="10.40000000000pt" y="48.80000000000pt" fill="#a8a8a8" font-family="Gill Sans" font-size="5.5433pt"><tspan x="-13" y="-50.6875">3</tspan></text><text id="bz" x="10.40000000000pt" y="56.80000000000pt" fill="#a8a8a8" font-family="Gill Sans" font-size="5.5433pt"><tspan x="-13" y="-60.8438">4</tspan></text><text id="ca" x="10.40000000000pt" y="64.80000000000pt" fill="#a8a8a8" font-family="Gill Sans" font-size="5.5433pt"><tspan x="-13" y="-70.8438">5</tspan></text><text id="cb" x="10.40000000000pt" y="72.80000000000pt" fill="#a8a8a8" font-family="Gill Sans" font-size="5.5433pt"><tspan x="-13" y="-80.6875">6</tspan></text><text id="cc" x="10.40000000000pt" y="80.80000000000pt" fill="#a8a8a8" font-family="Gill Sans" font-size="5.5433pt"><tspan x="-13" y="-90.8438">7</tspan></text><text id="cd" x="10.40000000000pt" y="88.00000000000pt" fill="#a8a8a8" font-family="Gill Sans" font-size="5.5433pt"><tspan x="-13" y="-99.6875">8</tspan></text><path id="ce" transform="translate(53 97)" d="M2.46875 0C1.09767 0 0 1.09767 0 2.46875L0 4L10 4L10 2.46875C10 1.09767 8.90233 0 7.53125 0Z" fill="url(#b)"/><rect id="cf" transform="translate(27 99)" width="20.8pt" height=".8pt" fill="#bcbcbc"/><path id="cg" transform="translate(25 97)" d="M2.46875 0C1.09767 0 0 1.09767 0 2.46875L0 4L10 4L10 2.46875C10 1.09767 8.90233 0 7.53125 0Z" fill="url(#b)"/></g><g id="ch"><g id="ci" transform="translate(21.206 91.429)"><path id="cj" transform="matrix(.48556 0 0 .42528 7.8475 -16.417)" d="m65.593 72.089c-13.92-13.057-44.014-41.288-44.014-41.288l-21.579 20.247 65.593 61.539 98.415-92.34-21.582-20.246s-60.242 56.524-76.833 72.089z" fill="none" stroke="url(#q)" stroke-linecap="round" stroke-linejoin="round" stroke-width="8"/><path id="ck" transform="matrix(.48556 0 0 .42528 7.8475 -16.417)" d="m65.593 72.089c-13.92-13.057-44.014-41.288-44.014-41.288l-21.579 20.247 65.593 61.539 98.415-92.34-21.582-20.246s-60.242 56.524-76.833 72.089z" fill="none" opacity=".28571" stroke="url(#p)" stroke-linecap="round" stroke-linejoin="round" stroke-width="8"/><path id="cl" transform="matrix(.48556 0 0 -.42528 37.504 33.902)" d="m4.538 3.2446e-4c-0.25608-0.0037591-0.48961 0.025921-0.74744 0.048866-1.4132 0.1283-2.7255 0.66783-3.7906 1.5148l2.883 15.148c0.18948-0.1778 1.4528-1.3263 1.6016-1.466l0.64065 0.5864 5.1786-13.047-0.96099-0.87959c-1.2665-1.1878-3.0124-1.8794-4.8049-1.9058z" fill="url(#o)" opacity=".40952"/><path id="cm" transform="matrix(-.1795 .39535 .46085 .13447 5.9405 2.7873)" d="m4.1986 3.5098e-4c-0.23692-0.0040663-0.45298 0.02804-0.69153 0.052859-1.3075 0.13879-2.5216 0.7224-3.507 1.6386l2.6673 16.386c0.17532-0.1922 1.3441-1.4346 1.4818-1.5857l0.59274 0.6343 4.7913-14.113-0.8891-0.95147c-1.1718-1.2848-2.7871-2.033-4.4455-2.0615z" fill="url(#a)" opacity=".2381"/><path id="cn" transform="matrix(.48556 0 0 .42528 15.936 -5.7914)" d="m4.538 3.2446e-4c-0.25608-0.0037591-0.48961 0.025921-0.74744 0.048866-1.4132 0.1283-2.7255 0.66783-3.7906 1.5148l2.883 15.148c0.18948-0.1778 1.4528-1.3263 1.6016-1.466l0.64065 0.5864 5.1786-13.047-0.96099-0.87959c-1.2665-1.1878-3.0124-1.8794-4.8049-1.9058z" fill="url(#a)" opacity=".77619"/><path id="co" transform="matrix(.1795 .39535 -.46085 .13447 90.008 -10.513)" d="m4.1986 3.5098e-4c-0.23692-0.0040663-0.45298 0.02804-0.69153 0.052859-1.3075 0.13879-2.5216 0.7224-3.507 1.6386l2.6673 16.386c0.17532-0.1922 1.3441-1.4346 1.4818-1.5857l0.59274 0.6343 4.7913-14.113-0.8891-0.95147c-1.1718-1.2848-2.7871-2.033-4.4455-2.0615z" fill="url(#a)" opacity=".37143"/><path id="cp" transform="matrix(.48556 0 0 .42528 74.834 -19.092)" d="m4.538 3.2446e-4c-0.25608-0.0037591-0.48961 0.025921-0.74744 0.048866-1.4132 0.1283-2.7255 0.66783-3.7906 1.5148l2.883 15.148c0.18948-0.1778 1.4528-1.3263 1.6016-1.466l0.64065 0.5864 5.1786-13.047-0.96099-0.87959c-1.2665-1.1878-3.0124-1.8794-4.8049-1.9058z" fill="url(#a)" opacity=".87143"/><path id="cq" transform="matrix(.48556 0 0 .42528 7.8475 -16.417)" d="m65.593 72.089c-13.92-13.057-44.014-41.288-44.014-41.288l-21.579 20.247 65.593 61.539 98.415-92.34-21.582-20.246s-60.242 56.524-76.833 72.089z" fill="none" opacity=".28571" stroke="url(#m)" stroke-linecap="round" stroke-linejoin="round" stroke-width="8"/><path id="cr" transform="matrix(.48556 0 0 .42528 7.8475 -16.417)" d="m65.593 72.089c-13.92-13.057-44.014-41.288-44.014-41.288l-21.579 20.247 65.593 61.539 98.415-92.34-21.582-20.246s-60.242 56.524-76.833 72.089z" fill="url(#l)"/><path id="cs" transform="matrix(.48556 0 0 .42528 7.8475 -16.411)" d="m142.44 0s-60.234 56.512-76.825 72.077c-13.92-13.057-44.045-41.291-44.045-41.291l-21.569 20.23 28.136 26.388c0.3228 7e-4 0.6379 0 0.961 0 29.948 0 58.319-3.2731 83.766-9.1379l51.146-48.035z" fill="url(#k)"/><path id="ct" transform="matrix(.48556 0 0 .42528 7.8475 -16.417)" d="m65.593 72.089c-13.92-13.057-44.014-41.288-44.014-41.288l-21.579 20.247 65.593 61.539 98.415-92.34-21.582-20.246s-60.242 56.524-76.833 72.089z" fill="none" stroke="url(#j)" stroke-linejoin="miter" stroke-miterlimit="2" stroke-width="1.25"/><path id="cu" transform="matrix(.48556 0 0 .42528 21.25 -16.411)" d="m114.84 0s-0.684 0.67449-0.694 0.68412l20.821 19.204-51.252 47.253c-25.502 5.7663-53.059 9.7243-83.072 9.7243h-0.64066l0.53388 0.5375c0.32274 7e-4 0.63788 0 0.96099 0 29.948 0 58.319-3.2731 83.766-9.1379l51.146-48.035z" fill="url(#i)"/><path id="cv" transform="matrix(.48556 0 0 .42528 7.8475 -16.411)" d="m142.44 0s-60.234 56.512-76.825 72.077c-13.92-13.057-44.045-41.291-44.045-41.291l-21.569 20.23 0.85421 0.7819 20.715-19.448s30.125 28.234 44.045 41.291c16.591-15.565 76.825-72.077 76.825-72.077l20.715 19.448 0.854-0.7818z" fill="url(#h)"/></g></g></svg>
