<?xml version="1.0" encoding="UTF-8"?>
<svg id="e" width="36.124mm" height="36.124mm" version="1.1" viewBox="0 0 128 128" xmlns="http://www.w3.org/2000/svg" xmlns:xlink="http://www.w3.org/1999/xlink"><defs id="f"><linearGradient id="d" x1="409.57" x2="409.57" y1="543.8" y2="503.8" gradientTransform="matrix(1.75 0 0 1.4 -683 -701.32)" gradientUnits="userSpaceOnUse"><stop id="g" stop-color="#bd8d48" offset="0"/><stop id="h" stop-color="#e8b971" offset="1"/></linearGradient><linearGradient id="b" x1="434.57" x2="384.57" y1="543.8" y2="503.8" gradientTransform="matrix(1 0 0 1.2 -376.57 -596.56)" gradientUnits="userSpaceOnUse"><stop id="i" stop-color="#343b40" offset="0"/><stop id="j" stop-color="#555e63" offset="1"/></linearGradient><linearGradient id="c" x1="37.581" x2="53.581" y1="17.138" y2="33.138" gradientTransform="matrix(1.4595 0 0 1.45 -35.253 -4.4506)" gradientUnits="userSpaceOnUse"><stop id="k" stop-color="#383e51" offset="0"/><stop id="l" stop-color="#655c6f" stop-opacity="0" offset="1"/></linearGradient><linearGradient id="a" x1="33" x2="33" y1="43" y2="23" gradientUnits="userSpaceOnUse"><stop id="m" stop-color="#a5a9af" offset="0"/><stop id="n" stop-color="#dadcde" offset="1"/></linearGradient></defs><g id="o" transform="translate(0 -924.36)"><g id="p" transform="matrix(2 0 0 2 0 924.36)"><rect id="q" x="4" y="4" width="56" height="56" ry="0" fill="url(#d)"/><rect id="r" x="8" y="8" width="48" height="48" fill="url(#b)"/><path id="s" d="m8 8v48h48v-48h-48zm2 2h44v44h-44v-44z" fill="#aa7f41"/><rect id="t" x="46.162" y="52" width="5.8378" height="2" color="#000000" enable-background="accumulate" fill="#fff" fill-rule="nonzero" style="text-decoration-line:none"/><rect id="u" x="38.162" y="52" width="5.8378" height="2" color="#000000" enable-background="accumulate" fill="#007ad9" fill-rule="nonzero" style="text-decoration-line:none"/><rect id="v" x="42" y="24" width="1" height="2" fill="#d6d6d6"/><path id="w" d="m31.992 23.527-5.0465 10.238-1.0022 1.2485-2.9428-3.0135h-2l6 6h-6l22 22h17v-20l-17-17z" fill="url(#c)" fill-rule="evenodd" opacity=".2"/><path id="x" d="m31.697 23-0.14062 0.26953-5.6582 10.844-2.5195-2.9395-0.14844-0.17383h-0.23047-0.18555-1.8145v1h1.7695l3.332 3.8867 6.2012-11.887h10.697v-1h-10.879-0.12109-0.30273zm4.3027 4a4 4 0 0 0-4 4 4 4 0 0 0 4 4 4 4 0 0 0 3-1.3613v1.1738h1v-3.8125-4h-1v1.3613a4 4 0 0 0-3-1.3613zm0 1a3 3 0 0 1 3 3 3 3 0 0 1-3 3 3 3 0 0 1-3-3 3 3 0 0 1 3-3zm-15 9v1h22v-1h-22zm9 3v1h4v-1h-4z" fill="url(#a)"/></g></g></svg>
