<?xml version="1.0" encoding="UTF-8"?>
<svg id="b" version="1.1" viewBox="0 0 256 256" xml:space="preserve" xmlns="http://www.w3.org/2000/svg" xmlns:xlink="http://www.w3.org/1999/xlink"><defs id="c"><clipPath id="a"><use id="d" width="100%" height="100%" xlink:href="#SVGID_1_"/></clipPath></defs><g id="e" transform="translate(-89.5 -205.04)" display="none"><image id="f" transform="scale(.24)" width="7200" height="9130" display="inline" overflow="visible"/></g><circle id="g" transform="matrix(.57926 0 0 .57926 -51.844 -11.064)" cx="309.97" cy="240.07" r="220.97" clip-path="url(#a)" fill="#d9fef6" opacity=".97"/><path id="h" transform="matrix(.57926 0 0 .57926 -51.844 -11.064)" d="m164 122.93-6.1035 24.734 22.303 5.3691v-25.77" clip-path="url(#a)" fill="#ab3a58"/><circle id="i" transform="matrix(.57926 0 0 .57926 -51.844 -11.064)" cx="371.5" cy="196.6" r="106.59" clip-path="url(#a)" fill="#fff"/><path id="j" transform="matrix(.57926 0 0 .57926 -51.844 -11.064)" d="m391.75 298.51-141.5-46.5-248 146 101 65s165 8.5 166.5 7.5 122-172 122-172z" clip-path="url(#a)" fill="#c6f4e7"/><path id="k" transform="matrix(.57926 0 0 .57926 -51.844 -11.064)" d="m544.5 301.1-141.5-46.5-248 146 101 65s165 8.5 166.5 7.5 122-172 122-172z" clip-path="url(#a)" fill="#ade7db"/><polyline id="l" transform="matrix(.57926 0 0 .57926 -51.844 -11.064)" points="402 492.1 103.5 414.1 34 324.1 162 255.1 425 369.6" clip-path="url(#a)" fill="#9acbc1"/><polyline id="m" transform="matrix(.57926 0 0 .57926 -51.844 -11.064)" points="558.5 384.1 424.5 332.6 172.5 442.6 338.5 483.6" clip-path="url(#a)" fill="#7ba99f"/><path id="n" transform="matrix(.57926 0 0 .57926 -51.844 -11.064)" d="m292 98.6 8.6212 24.847-26.541 4.0945v-18.941" clip-path="url(#a)" fill="#ab3a58"/><path id="o" transform="matrix(.57926 0 0 .57926 -51.844 -11.064)" d="m324 118.27v17.834l28.2 12.071-8.8671-39.571" clip-path="url(#a)" fill="#ab3a58"/><path id="p" transform="matrix(.57926 0 0 .57926 -51.844 -11.064)" d="m260.67 106.93v-27.334l-25-9-15.259 95.954 145.59 21.713-2.667-71.333-20-8.334v25.667l-29-9.667v-18.333l-22.333-7.667v18.667z" clip-path="url(#a)" fill="#f9a65a"/><path id="q" transform="matrix(.57926 0 0 .57926 -51.844 -11.064)" d="m197 106.27-6.9053 37.186 25.067-13.656v-18.863" clip-path="url(#a)" fill="#ab3a58"/><path id="r" transform="matrix(.57926 0 0 .57926 -51.844 -11.064)" d="m235.67 70.6-17.334 12.667v27.333l-21.333 13v-17.333l-15 10.667v18l-18 11.666v-23.666l-13.667 9.666v69l85.334-36.877v-94.123" clip-path="url(#a)" fill="#f37e58"/><polyline id="s" transform="matrix(.57926 0 0 .57926 -51.844 -11.064)" points="150.33 201.6 235.67 151.6 366 188.27 262.67 229.6" clip-path="url(#a)" fill="#f15e56"/><path id="t" transform="matrix(.57926 0 0 .57926 -51.844 -11.064)" d="m240.33 169.26-58.121 32.285-3.879 245.71 81.531 40.584" clip-path="url(#a)" fill="#c34056"/><path id="u" transform="matrix(.57926 0 0 .57926 -51.844 -11.064)" d="m240.33 470.59 90.334-4-7.279-272.63-83.055-24.698" clip-path="url(#a)" fill="#e54858"/></svg>
