<?xml version="1.0" encoding="UTF-8"?>
<!DOCTYPE svg  PUBLIC '-//W3C//DTD SVG 20010904//EN'  'http://www.w3.org/TR/2001/REC-SVG-20010904/DTD/svg10.dtd'>
<svg id="q" viewBox="0 0 128 128" xmlns="http://www.w3.org/2000/svg"><defs id="r"><radialGradient id="p" cx="93.295" cy="69.384" r="58.168" fx="93.808" fy="67.5" gradientUnits="userSpaceOnUse"><stop id="s" stop-color="#fff" offset="0"/><stop id="t" stop-color="#727272" offset="1"/></radialGradient><linearGradient id="o" x1="22.154" x2="95.11" y1="100.29" y2="98.177" gradientUnits="userSpaceOnUse"><stop id="u" stop-color="#ccc" offset="0"/><stop id="v" stop-color="#828282" offset="1"/></linearGradient><radialGradient id="h" cx="98.858" cy="96.542" r="60.128" gradientUnits="userSpaceOnUse"><stop id="w" stop-color="#ccc" offset="0"/><stop id="x" stop-color="#828282" offset="1"/></radialGradient><linearGradient id="g" x1="1917.8" x2="12604" y1="-1726.9" y2="-1685.1" gradientUnits="userSpaceOnUse"><stop id="y" stop-color="#ccc" offset="0"/><stop id="z" stop-color="#828282" offset="1"/></linearGradient><linearGradient id="f" x1="102.9" x2="43.257" y1="89.269" y2="89.269" gradientUnits="userSpaceOnUse"><stop id="aa" stop-color="#fff" offset="0"/><stop id="ab" stop-color="#efefef" offset=".258"/><stop id="ac" stop-color="#cdcdcd" offset=".7396"/><stop id="ad" stop-color="#c3c3c3" offset=".8595"/></linearGradient><linearGradient id="e" x1="2.981" x2="121.09" y1="84.739" y2="84.739" gradientUnits="userSpaceOnUse"><stop id="ae" stop-color="#b3b3b3" offset="0"/><stop id="af" stop-color="#626262" offset="1"/></linearGradient><linearGradient id="d" x1="1917.8" x2="12604" y1="-1749.1" y2="-1707.3" gradientUnits="userSpaceOnUse"><stop id="ag" stop-color="#ccc" offset="0"/><stop id="ah" stop-color="#828282" offset="1"/></linearGradient><linearGradient id="c" x1="102.9" x2="43.257" y1="67.064" y2="67.064" gradientUnits="userSpaceOnUse"><stop id="ai" stop-color="#fff" offset="0"/><stop id="aj" stop-color="#efefef" offset=".258"/><stop id="ak" stop-color="#cdcdcd" offset=".7396"/><stop id="al" stop-color="#c3c3c3" offset=".8595"/></linearGradient><linearGradient id="b" x1="2.981" x2="121.09" y1="62.534" y2="62.534" gradientUnits="userSpaceOnUse"><stop id="am" stop-color="#b3b3b3" offset="0"/><stop id="an" stop-color="#626262" offset="1"/></linearGradient><linearGradient id="a" x1="1917.8" x2="12604" y1="-1769.8" y2="-1728" gradientUnits="userSpaceOnUse"><stop id="ao" stop-color="#ccc" offset="0"/><stop id="ap" stop-color="#828282" offset="1"/></linearGradient><linearGradient id="n" x1="102.9" x2="43.257" y1="46.373" y2="46.373" gradientUnits="userSpaceOnUse"><stop id="aq" stop-color="#fff" offset="0"/><stop id="ar" stop-color="#efefef" offset=".258"/><stop id="as" stop-color="#cdcdcd" offset=".7396"/><stop id="at" stop-color="#c3c3c3" offset=".8595"/></linearGradient><linearGradient id="m" x1="2.981" x2="121.09" y1="41.844" y2="41.844" gradientUnits="userSpaceOnUse"><stop id="au" stop-color="#b3b3b3" offset="0"/><stop id="av" stop-color="#626262" offset="1"/></linearGradient><linearGradient id="l" x1="21.93" x2="21.93" y1="92.908" y2="52.759" gradientUnits="userSpaceOnUse"><stop id="aw" stop-color="#fff" offset=".057471"/><stop id="ax" stop-color="#fff" stop-opacity=".16667" offset="1"/></linearGradient><linearGradient id="k" x1="116.88" x2="67.76" y1="26.298" y2="75.733" gradientUnits="userSpaceOnUse"><stop id="ay" stop-color="#b3b3b3" offset="0"/><stop id="az" stop-color="#626262" offset="1"/></linearGradient><linearGradient id="j" x1="82.177" x2="77.066" y1="-3.166" y2="66.47" gradientUnits="userSpaceOnUse"><stop id="ba" stop-color="#fff" offset="0"/><stop id="bb" stop-color="#00cd00" offset=".4045"/><stop id="bc" stop-color="#006e00" offset="1"/></linearGradient><linearGradient id="i" x1="57.689" x2="81" y1="73.008" y2="44.251" gradientUnits="userSpaceOnUse"><stop id="bd" stop-color="#fff" offset=".057471"/><stop id="be" stop-color="#fff" stop-opacity=".16667" offset="1"/></linearGradient></defs><g id="bf" transform="scale(1 -1) translate(0 -128)"><g id="bg" fill-rule="evenodd"><path id="bh" d="m63.392 124.24c-32.492 0-58.887-9.084-58.887-20.257v-66.81c0-11.173 26.395-20.256 58.887-20.256s58.849 9.0834 58.849 20.256v66.81c0 11.173-26.358 20.257-58.849 20.257z" fill="#000" fill-opacity=".30573" stroke-width="1.8545"/><g id="bi"><path id="bj" d="m62.04 125.41c-31.829 0-57.686-8.899-57.686-19.844v-65.448c0-10.945 25.857-19.843 57.686-19.843 31.83 0 57.65 8.8983 57.65 19.843v65.448c0 10.945-25.821 19.844-57.65 19.844z" fill="url(#p)" stroke-width="1.743"/><path id="bk" d="m118.71 104.34c0-10.409-25.315-18.856-56.506-18.856-31.191 0-56.505 8.4472-56.505 18.856 0 10.408 25.314 18.855 56.505 18.855 31.191 0 56.506-8.447 56.506-18.855z" fill="url(#o)" fill-opacity=".75" stroke-width="2.3497"/><path id="bl" d="m113 104.34c0-8.175-22.756-14.81-50.796-14.81s-50.796 6.6345-50.796 14.81c0 8.174 22.757 14.809 50.796 14.809s50.796-6.635 50.796-14.809z" fill="url(#h)" fill-opacity=".75" stroke-width="2.3497"/><g id="bm"><path id="bn" d="m4.3612 87.242c0-10.945 25.856-19.826 57.686-19.826 31.829 0 57.656 8.8809 57.656 19.826l-0.352 15.192c0-10.222-25.698-18.534-57.333-18.534s-57.304 8.3112-57.304 18.534l-0.35246-15.192z" fill="url(#g)" stroke-width="1.743"/><path id="bo" d="m4.7148 100.81-0.35246-14.849c0-0.1164 0.05263-0.228 0.05875-0.344l0.29371 12.757c0-9.9769 25.668-18.089 57.304-18.089s57.333 8.1118 57.333 18.089l0.294-12.757c6e-3 0.116 0.059 0.2276 0.059 0.344l-0.353 14.849c0-9.9768-25.698-18.088-57.333-18.088s-57.304 8.1117-57.304 18.088z" fill="url(#f)" stroke-width="1.743"/><path id="bp" d="m3.8337 102.44-0.35246-15.185c-1.7e-4 -0.0098-1.7e-4 -0.0196 0-0.0294 0-3.0786 1.8341-5.9016 4.8757-8.3709 3.0416-2.4694 7.3442-4.6455 12.63-6.4618 10.571-3.6324 25.066-5.8449 41.062-5.8449s30.468 2.2124 41.032 5.8449c5.282 1.8163 9.591 3.9923 12.63 6.4618 3.039 2.4694 4.876 5.2927 4.876 8.3709v0.0294l-0.353 15.185c0 0.487-3.163-4.4058-5.933-6.5206-2.782-2.1241-6.885-4.0989-12.013-5.7569-10.256-3.3158-24.526-5.4043-40.268-5.4043s-29.991 2.0886-40.239 5.4043c-5.1242 1.6579-9.2629 3.6329-12.042 5.7569-2.7673 2.1147-5.8981 6.9556-5.9037 6.5206zm1.6448-4.5821c0.81746-1.1734 1.8435-2.2812 3.2015-3.319 3.022-2.3094 7.2943-4.3235 12.542-6.0212 10.495-3.3954 24.903-5.4925 40.797-5.4925s30.295 2.0972 40.797 5.4925c5.251 1.6977 9.517 3.7119 12.542 6.0212 1.359 1.0382 2.412 2.145 3.23 3.319l0.235-10.632c0-2.3943-1.401-4.7458-4.2-7.0198-2.798-2.274-6.947-4.396-12.101-6.1681-10.307-3.5441-24.64-5.7568-40.474-5.7568s-30.189 2.2126-40.504 5.7568c-5.1571 1.7721-9.2999 3.894-12.101 6.1681-2.8011 2.2741-4.2001 4.6259-4.2001 7.0198l0.23498 10.632z" fill="url(#e)" stroke-linejoin="round" stroke-width="1.7388"/></g><g id="bq"><path id="br" d="m4.3612 65.037c0-10.945 25.856-19.826 57.686-19.826 31.829 0 57.656 8.8809 57.656 19.826l-0.352 15.192c0-10.222-25.698-18.533-57.333-18.533s-57.304 8.3112-57.304 18.533l-0.35246-15.192z" fill="url(#d)" stroke-width="1.743"/><path id="bs" d="m4.7148 78.603-0.35246-14.849c0-0.1164 0.05263-0.228 0.05875-0.344l0.29371 12.757c0-9.9769 25.668-18.089 57.304-18.089s57.333 8.1118 57.333 18.089l0.294-12.757c6e-3 0.116 0.059 0.2276 0.059 0.344l-0.353 14.849c0-9.977-25.698-18.089-57.333-18.089s-57.304 8.1117-57.304 18.089z" fill="url(#c)" stroke-width="1.743"/><path id="bt" d="m3.8337 80.237-0.35246-15.185c-1.7e-4 -0.0098-1.7e-4 -0.0196 0-0.0294 0-3.0786 1.8341-5.9016 4.8757-8.3709 3.0416-2.4694 7.3442-4.6455 12.63-6.4618 10.571-3.6324 25.066-5.8449 41.062-5.8449s30.468 2.2124 41.032 5.8449c5.282 1.8163 9.591 3.9923 12.63 6.4618 3.039 2.4694 4.876 5.2927 4.876 8.3709v0.0294l-0.353 15.185c0 0.4866-3.163-4.4057-5.933-6.5205-2.782-2.1241-6.885-4.0989-12.013-5.7569-10.256-3.3158-24.526-5.4043-40.268-5.4043s-29.991 2.0886-40.239 5.4043c-5.1242 1.6579-9.2629 3.6329-12.042 5.7569-2.7673 2.1147-5.8981 6.9555-5.9037 6.5205zm1.6448-4.582c0.81746-1.1734 1.8435-2.2812 3.2015-3.319 3.022-2.3094 7.2943-4.3235 12.542-6.0212 10.495-3.3954 24.903-5.4925 40.797-5.4925s30.295 2.0972 40.797 5.4925c5.251 1.6977 9.517 3.7119 12.542 6.0212 1.359 1.0382 2.412 2.145 3.23 3.319l0.235-10.632c0-2.3943-1.401-4.7458-4.2-7.0198-2.798-2.274-6.947-4.396-12.101-6.1681-10.307-3.5441-24.64-5.7568-40.474-5.7568s-30.189 2.2126-40.504 5.7568c-5.1571 1.7721-9.2999 3.894-12.101 6.1681-2.8011 2.2741-4.2001 4.6259-4.2001 7.0198l0.23498 10.632z" fill="url(#b)" stroke-linejoin="round" stroke-width="1.7388"/></g><g id="bu"><path id="bv" d="m4.3612 44.346c0-10.945 25.856-19.826 57.686-19.826 31.829 0 57.656 8.8809 57.656 19.826l-0.352 15.192c0-10.222-25.698-18.534-57.333-18.534s-57.304 8.3112-57.304 18.534l-0.35246-15.192z" fill="url(#a)" stroke-width="1.743"/><path id="bw" d="m4.7148 57.913-0.35246-14.849c0-0.1165 0.05263-0.228 0.05875-0.344l0.29371 12.757c0-9.977 25.668-18.089 57.304-18.089s57.333 8.1117 57.333 18.089l0.294-12.757c6e-3 0.116 0.059 0.2275 0.059 0.344l-0.353 14.849c0-9.977-25.698-18.089-57.333-18.089s-57.304 8.1118-57.304 18.089z" fill="url(#n)" stroke-width="1.743"/><path id="bx" d="m3.8337 59.546-0.35246-15.185c-1.7e-4 -0.0098-1.7e-4 -0.0196 0-0.0294 0-3.0785 1.8341-5.9015 4.8757-8.3709 3.0416-2.4693 7.3442-4.6455 12.63-6.4617 10.571-3.6325 25.066-5.845 41.062-5.845s30.468 2.2125 41.032 5.845c5.282 1.8163 9.591 3.9923 12.63 6.4617 3.039 2.4695 4.876 5.2928 4.876 8.3709v0.0294l-0.353 15.185c0 0.4867-3.163-4.4057-5.933-6.5205-2.782-2.1241-6.885-4.0989-12.013-5.7568-10.256-3.3158-24.526-5.4044-40.268-5.4044s-29.991 2.0886-40.239 5.4044c-5.1242 1.6579-9.2629 3.6328-12.042 5.7568-2.7673 2.1147-5.8981 6.9555-5.9037 6.5205zm1.6448-4.5819c0.81746-1.1735 1.8435-2.2813 3.2015-3.319 3.022-2.3094 7.2943-4.3235 12.542-6.0212 10.495-3.3954 24.903-5.4925 40.797-5.4925s30.295 2.0971 40.797 5.4925c5.251 1.6977 9.517 3.7119 12.542 6.0212 1.359 1.0382 2.412 2.1449 3.23 3.319l0.235-10.633c0-2.3943-1.401-4.7458-4.2-7.0198-2.798-2.274-6.947-4.3959-12.101-6.168-10.307-3.5442-24.64-5.7568-40.474-5.7568s-30.189 2.2126-40.504 5.7568c-5.1571 1.7721-9.2999 3.8939-12.101 6.168-2.8011 2.2741-4.2001 4.6259-4.2001 7.0198l0.23498 10.633z" fill="url(#m)" stroke-linejoin="round" stroke-width="1.7388"/></g><path id="by" d="m62.552 124.96c-15.426 0-29.375-2.081-39.588-5.517-5.1068-1.718-9.2866-3.76-12.256-6.12-2.969-2.36-4.7882-5.146-4.7882-8.189s1.8192-5.8002 4.7882-8.1603c2.969-2.3601 7.1488-4.4022 12.256-6.1202 10.214-3.4359 24.163-5.5454 39.588-5.5454s29.403 2.1095 39.617 5.5454c5.107 1.718 9.287 3.7601 12.256 6.1202s4.788 5.1173 4.788 8.1603-1.819 5.829-4.788 8.189-7.149 4.402-12.256 6.12c-10.214 3.436-24.191 5.517-39.617 5.517zm0-2.299c15.22 0 29.021-2.077 38.905-5.402 4.941-1.662 8.891-3.638 11.543-5.746 2.652-2.109 3.933-4.268 3.933-6.379 0-2.112-1.281-4.242-3.933-6.3501-2.652-2.1082-6.602-4.0842-11.543-5.7466-9.8839-3.3249-23.685-5.4306-38.905-5.4306s-28.992 2.1057-38.876 5.4306c-4.9418 1.6624-8.891 3.6384-11.543 5.7466-2.6521 2.1081-3.9332 4.2381-3.9332 6.3501 0 2.111 1.2811 4.27 3.9332 6.379 2.652 2.108 6.6012 4.084 11.543 5.746 9.8835 3.325 23.656 5.402 38.876 5.402z" fill="#fff" stroke-width="2.3497"/><path id="bz" d="m12.821 95.43v-65.205l19.092-6.7554v65.205l-19.092 6.7555z" fill="url(#l)" fill-opacity=".75" stroke-width="1.1749"/><path id="ca" d="m62.048 126.59c-16.024 0-30.562-2.252-41.179-5.904-5.3082-1.826-9.6341-3.986-12.718-6.491-3.0838-2.505-4.9638-5.436-4.9638-8.635v-65.44c0-3.1989 1.88-6.13 4.9638-8.6353 3.0838-2.5052 7.4097-4.6943 12.718-6.5205 10.616-3.6524 25.155-5.8743 41.179-5.8743s30.542 2.2218 41.15 5.8743c5.304 1.8263 9.608 4.0151 12.688 6.5205 3.081 2.5054 4.964 5.4371 4.964 8.6353v65.44c0 3.198-1.883 6.13-4.964 8.635-3.08 2.505-7.384 4.665-12.688 6.491-10.608 3.653-25.126 5.904-41.15 5.904zm0-2.35c15.805 0 30.096-2.224 40.357-5.757 5.13-1.766 9.257-3.868 12.013-6.109 2.755-2.241 4.082-4.54 4.082-6.814v-65.44c0-2.2743-1.327-4.573-4.082-6.8142-2.756-2.2413-6.883-4.3429-12.013-6.1093-10.26-3.5329-24.552-5.7569-40.357-5.7569-15.805 0-30.146 2.2239-40.415 5.7569-5.1347 1.7665-9.254 3.8679-12.013 6.1093-2.759 2.2414-4.0826 4.5405-4.0826 6.8142v65.44c0 2.273 1.3236 4.572 4.0826 6.814 2.759 2.241 6.8783 4.343 12.013 6.109 10.269 3.533 24.61 5.757 40.415 5.757z" fill="url(#k)" stroke-linejoin="round" stroke-width="2.3497"/></g><g id="cb"><path id="cc" d="m73.301 78.204v-27.21h-27.244v-23.529h27.244v-27.244h23.529v27.244h27.21v23.529h-27.21v27.21h-23.529z" fill="#000" fill-opacity=".29936" stroke-width="1.25"/><path id="cd" d="m69.036 81.86v-27.21h-27.244v-23.529h27.244v-27.244h23.529v27.244h27.211v23.529h-27.211v27.21h-23.529z" fill="url(#j)" stroke-width="1.25"/><path id="ce" d="m71.632 79.058v-26.831h-27.643v-17.229c28.907 0 44.695 9.6987 44.695 44.059h-17.052z" fill="url(#i)" stroke-width="1.25"/><path id="cf" d="m69.126 4.7157 22.776-0.15234 0.0262 19.986-2.4852-17.831-20.316-2.002z" fill="#fff" fill-opacity=".80892" stroke-width="1.25"/><path id="cg" d="m96.546 31.831 22.776-0.1523 0.026 19.986-2.485-17.832-20.317-2.002z" fill="#fff" fill-opacity=".77707" stroke-width="1.25"/><path id="ch" d="m69.031 82.938c-0.5867-1e-4 -1.0624-0.4757-1.0624-1.0625v-26.156h-26.188c-0.5867-1e-4 -1.0624-0.4758-1.0624-1.0626v-23.531c0-0.5868 0.4757-1.0624 1.0624-1.0625h26.188v-26.188c0-0.58678 0.4757-1.0624 1.0624-1.0625h23.531c0.5868 6e-5 1.0624 0.47572 1.0625 1.0625v26.188h26.156c0.587 1e-4 1.063 0.4757 1.063 1.0625v23.531c0 0.5868-0.476 1.0625-1.063 1.0626h-26.156v26.156c-1e-4 0.5868-0.4757 1.0624-1.0625 1.0625h-23.531zm1.0626-2.125h21.406v-26.156c1e-4 -0.5867 0.4757-1.0624 1.0625-1.0624h26.156v-21.406h-26.156c-0.5868-1e-4 -1.0624-0.4757-1.0625-1.0625v-26.188h-21.406v26.188c-1e-4 0.5868-0.4758 1.0624-1.0626 1.0625h-26.187v21.406h26.187c0.5868 0 1.0625 0.4757 1.0626 1.0624v26.156z" fill="#027e00" stroke-linejoin="round" stroke-width="2.125"/></g></g></g></svg>
