<?xml version="1.0" encoding="UTF-8"?>
<svg id="c" fill="none" version="1.1" viewBox="0 0 128 128" xml:space="preserve" xmlns="http://www.w3.org/2000/svg" xmlns:xlink="http://www.w3.org/1999/xlink"><g id="d"><g id="e"><path id="f" d="m112 34h-96c-4.4183 0-8 3.5817-8 8v66c0 4.418 3.5817 8 8 8h96c4.418 0 8-3.582 8-8v-66c0-4.4183-3.582-8-8-8z" fill="url(#b)"/><path id="g" d="m112 12h-96c-4.4183 0-8 4.2981-8 9.6v76.8c0 5.302 3.5817 9.6 8 9.6h96c4.418 0 8-4.298 8-9.6v-76.8c0-5.3019-3.582-9.6-8-9.6z" fill="#DEDDDA"/><path id="h" d="m112 104h-96c-2.2091 0-4-2.189-4-4.8889v-78.222c0-2.7001 1.7909-4.8889 4-4.8889h96c2.209 0 4 2.1888 4 4.8889v78.222c0 2.6999-1.791 4.8889-4 4.8889z" fill="#241F31"/><path id="i" d="m16 100h96v-63h-96v63z" fill="url(#a)" opacity=".05"/><path id="j" d="m25.006 25.308-7.0061-3.8079v2.3641l4.8554 2.3148v0.0711l-4.8554 2.6141v2.3641l7.0061-4.1073z" fill="#fff"/><path id="k" d="m27 31.864v2h8v-2z" fill="#fff"/><path id="l" d="m66 16h-4v92h4v-92z" fill="#DEDDDA"/><path id="m" d="m118 62v-4h-54v4h54z" fill="#DEDDDA"/><path id="n" d="m78.006 25.308-7.0062-3.8079v2.3641l4.8554 2.3148v0.0711l-4.8554 2.6141v2.3641l7.0062-4.1073z" fill="#fff"/><path id="o" d="m80 31.864v2h8v-2z" fill="#fff"/><path id="p" d="m78.006 72.308-7.0062-3.8079v2.3641l4.8554 2.3148v0.0711l-4.8554 2.6141v2.3641l7.0062-4.1073z" fill="#fff"/><path id="q" d="m80 78.864v2h8v-2z" fill="#fff"/></g></g><defs id="r"><linearGradient id="b" x1="8" x2="120" y1="70.638" y2="70.638" gradientUnits="userSpaceOnUse"><stop id="s" stop-color="#77767B" offset="0"/><stop id="t" stop-color="#C0BFBC" offset=".05"/><stop id="u" stop-color="#9A9996" offset=".1"/><stop id="v" stop-color="#9A9996" offset=".9"/><stop id="w" stop-color="#C0BFBC" offset=".95"/><stop id="x" stop-color="#77767B" offset="1"/></linearGradient><radialGradient id="a" cx="0" cy="0" r="1" gradientTransform="translate(64 96.769) scale(226.91 58.154)" gradientUnits="userSpaceOnUse"><stop id="y" stop-color="#fff" offset="0"/><stop id="z" stop-color="#fff" stop-opacity=".094118" offset="1"/></radialGradient></defs></svg>
