<?xml version="1.0" encoding="UTF-8"?>
<!DOCTYPE svg  PUBLIC '-//W3C//DTD SVG 1.1//EN'  'http://www.w3.org/Graphics/SVG/1.1/DTD/svg11.dtd'>
<svg clip-rule="evenodd" fill-rule="evenodd" stroke-linejoin="round" stroke-miterlimit="2" version="1.1" viewBox="0 0 128 128" xml:space="preserve" xmlns="http://www.w3.org/2000/svg">
    <path d="m20 22h88c4.418 0 8 3.582 8 8v78c0 4.418-3.582 8-8 8h-88c-4.418 0-8-3.582-8-8v-78c0-4.418 3.582-8 8-8z" fill="url(#b)" fill-rule="nonzero"/>
    <path d="m20 12h88c4.418 0 8 3.582 8 8v80c0 4.418-3.582 8-8 8h-88c-4.418 0-8-3.582-8-8v-80c0-4.418 3.582-8 8-8z" fill="#c0bfbc" fill-rule="nonzero"/>
    <path d="m20 14h88c3.313 0 6 2.688 6 6v80c0 3.313-2.687 6-6 6h-88c-3.312 0-6-2.687-6-6v-80c0-3.312 2.688-6 6-6z" fill="#241f31" fill-rule="nonzero"/>
    <g transform="matrix(.96 0 0 .96 2.56 2.4)">
        <path d="m19.208 14h89.584c3.312 0 5.208 2.063 5.208 5.375v81.25c0 3.313-1.896 5.375-5.208 5.375h-89.584c-3.312 0-5.208-2.062-5.208-5.375v-81.25c0-3.312 1.896-5.375 5.208-5.375z" fill="url(#a)" fill-rule="nonzero"/>
    </g>
    <g transform="matrix(3.4732 0 0 3.4732 -66.998 -148.65)">
        <path d="m32.534 61.245c0-1.788-2.04-1.716-3.227-2.352-0.205-0.108-0.301-0.252-0.301-0.42 0-0.468 0.529-0.492 1.188-0.492 0.432 0 0.985 0.096 1.645 0.288l0.383-1.188c-0.551-0.156-1.067-0.276-1.56-0.324v-1.32h-1.283v1.332c-1.116 0.144-1.812 0.612-1.812 1.644 0 1.872 1.968 1.824 3.227 2.472 0.169 0.084 0.253 0.192 0.253 0.336 0 0.54-0.541 0.6-1.212 0.6-0.66 0-1.488-0.264-2.052-0.456l-0.432 1.211c0.66 0.3 1.343 0.48 2.028 0.54v1.596h1.283v-1.656c1.081-0.192 1.872-0.743 1.872-1.811z" fill="#fff" fill-rule="nonzero"/>
    </g>
    <defs>
        <linearGradient id="b" x2="1" gradientTransform="matrix(104,0,0,104,12,64)" gradientUnits="userSpaceOnUse"><stop stop-color="#5e5c64" offset="0"/><stop stop-color="#c0bfbc" offset=".05"/><stop stop-color="#9a9996" offset=".1"/><stop stop-color="#9a9996" offset=".9"/><stop stop-color="#c0bfbc" offset=".95"/><stop stop-color="#5e5c64" offset="1"/></linearGradient>
        <radialGradient id="a" cx="0" cy="0" r="1" gradientTransform="matrix(5.6334e-15 -92 92 5.6334e-15 64 106)" gradientUnits="userSpaceOnUse"><stop stop-color="#3d3846" offset="0"/><stop stop-color="#241f31" offset="1"/></radialGradient>
    </defs>
</svg>
