<?xml version="1.0" encoding="UTF-8"?>
<svg id="q" version="1.0" viewBox="0 0 96 96" xmlns="http://www.w3.org/2000/svg" xmlns:xlink="http://www.w3.org/1999/xlink"><defs id="r"><linearGradient id="a"><stop id="s" stop-opacity=".65116" offset="0"/><stop id="t" stop-opacity=".23256" offset=".5"/><stop id="u" stop-opacity="0" offset="1"/></linearGradient><linearGradient id="p" x1="45.448" x2="45.448" y1="92.54" y2="7.0165" gradientTransform="scale(1.0059 .99417)" gradientUnits="userSpaceOnUse"><stop id="v" offset="0"/><stop id="w" stop-opacity=".58824" offset="1"/></linearGradient><linearGradient id="c"><stop id="x" stop-color="#fff" offset="0"/><stop id="y" stop-color="#fff" stop-opacity="0" offset="1"/></linearGradient><filter id="o" x="-.047721" y="-.048282" width="1.0954" height="1.0966" color-interpolation-filters="sRGB"><feGaussianBlur id="z" stdDeviation="1.71"/></filter><linearGradient id="n" x1="36.357" x2="36.357" y1="6" y2="63.893" gradientUnits="userSpaceOnUse" xlink:href="#c"/><radialGradient id="e" cx="48" cy="90.172" r="42" gradientTransform="matrix(1.1573 0 0 .99591 -7.551 .19713)" gradientUnits="userSpaceOnUse" xlink:href="#c"/><linearGradient id="m" x1="48" x2="48" y1="90" y2="5.9877" gradientUnits="userSpaceOnUse"><stop id="aa" stop-color="#e1e1e1" offset="0"/><stop id="ab" stop-color="#f5f5f5" offset="1"/></linearGradient><linearGradient id="d" x1="45.448" x2="45.448" y1="92.54" y2="7.0165" gradientTransform="matrix(1.0059 0 0 .99417 100 0)" gradientUnits="userSpaceOnUse"><stop id="ac" offset="0"/><stop id="ad" stop-opacity=".58824" offset="1"/></linearGradient><linearGradient id="b" x1="32.251" x2="32.251" y1="6.1317" y2="90.239" gradientTransform="matrix(1.0238 0 0 1.0119 -1.1429 -98.071)" gradientUnits="userSpaceOnUse" xlink:href="#d"/><linearGradient id="h" x1="32.251" x2="32.251" y1="6.1317" y2="90.239" gradientTransform="translate(0,-97)" gradientUnits="userSpaceOnUse" xlink:href="#d"/><linearGradient id="l" x1="40" x2="40" y1="90" y2="76" gradientTransform="matrix(1 0 0 1.2 -3.4319e-8 -51.883)" gradientUnits="userSpaceOnUse" xlink:href="#a"/><linearGradient id="k" x1="40" x2="40" y1="90" y2="76" gradientTransform="matrix(1 0 0 1.2 -7.1167e-6 -35.083)" gradientUnits="userSpaceOnUse" xlink:href="#a"/><linearGradient id="j" x1="40" x2="40" y1="90" y2="76" gradientTransform="matrix(1 0 0 1.2 1.0948e-6 -68.683)" gradientUnits="userSpaceOnUse" xlink:href="#a"/><linearGradient id="i" x1="41" x2="41" y1="76" y2="62" gradientTransform="matrix(1 0 0 1.2 -3.4863e-6 -35.1)" gradientUnits="userSpaceOnUse"><stop id="ae" stop-color="#3a77d3" offset="0"/><stop id="af" stop-color="#6192dc" offset="1"/></linearGradient><linearGradient id="g" x1="40" x2="40" y1="90" y2="76" gradientTransform="matrix(1 0 0 1.2 -3e-8 -18.283)" gradientUnits="userSpaceOnUse" xlink:href="#a"/><linearGradient id="f" x1="40" x2="40" y1="90" y2="76" gradientTransform="matrix(1 0 0 1.2 0 -85.483)" gradientUnits="userSpaceOnUse" xlink:href="#a"/></defs><g id="ag" display="none"><rect id="ah" x="5" y="7" width="86" height="85" rx="6" ry="6" fill="url(#p)" fill-rule="nonzero" filter="url(#o)" opacity=".9"/></g><g id="ai" fill-rule="nonzero"><path id="aj" transform="scale(1,-1)" d="m12-95.031c-5.5111 0-10.031 4.5202-10.031 10.031v71c0 5.5111 4.5202 10.031 10.031 10.031h72c5.5111 0 10.031-4.5202 10.031-10.031v-71c0-5.5111-4.5202-10.031-10.031-10.031h-72z" fill="url(#b)" opacity=".08"/><path id="ak" transform="scale(1,-1)" d="m12-94.031c-4.9716 0-9.0312 4.0596-9.0312 9.0312v71c0 4.9716 4.0596 9.0312 9.0312 9.0312h72c4.9716 0 9.0312-4.0596 9.0312-9.0312v-71c0-4.9716-4.0596-9.0312-9.0312-9.0312h-72z" fill="url(#b)" opacity=".1"/><path id="al" transform="scale(1,-1)" d="m12-93c-4.4091 0-8 3.5909-8 8v71c0 4.4091 3.5909 8 8 8h72c4.4091 0 8-3.5909 8-8v-71c0-4.4091-3.5909-8-8-8h-72z" fill="url(#b)" opacity=".2"/><rect id="am" transform="scale(1,-1)" x="5" y="-92" width="86" height="85" rx="7" ry="7" fill="url(#b)" opacity=".3"/><rect id="an" transform="scale(1,-1)" x="6" y="-91" width="84" height="84" rx="6" ry="6" fill="url(#h)" opacity=".45"/></g><g id="ao" fill-rule="nonzero"><rect id="ap" x="6" y="6" width="84" height="84" rx="6" ry="6" fill="url(#m)"/><rect id="aq" x="6" y="39.317" width="84" height="16.8" color="#000000" enable-background="accumulate" fill="url(#l)" opacity=".1"/><path id="ar" d="m12 90c-3.324 0-6-2.676-6-6v-2-68-2c0-0.33472 0.04135-0.6507 0.09375-0.96875 0.0487-0.2956 0.09704-0.59692 0.1875-0.875 0.00988-0.03038 0.020892-0.0636 0.03125-0.09375 0.098865-0.28777 0.23488-0.54745 0.375-0.8125 0.14459-0.27351 0.31562-0.53562 0.5-0.78125s0.37378-0.47347 0.59375-0.6875c0.43995-0.42806 0.94291-0.81453 1.5-1.0938 0.27854-0.13961 0.57347-0.24695 0.875-0.34375-0.2562 0.10022-0.48671 0.23627-0.71875 0.375-0.00741 0.0044-0.023866-0.0045-0.03125 0-0.031933 0.0193-0.062293 0.04251-0.09375 0.0625-0.1204 0.0767-0.23102 0.16351-0.34375 0.25-0.10617 0.0808-0.21328 0.16111-0.3125 0.25-0.17793 0.16143-0.34746 0.34539-0.5 0.53125-0.10758 0.13026-0.21839 0.26528-0.3125 0.40625-0.025089 0.03838-0.038446 0.08587-0.0625 0.125-0.064763 0.10303-0.13023 0.20452-0.1875 0.3125-0.10101 0.19471-0.20567 0.4157-0.28125 0.625-0.00796 0.02181-0.023589 0.04055-0.03125 0.0625-0.031825 0.09195-0.035804 0.18683-0.0625 0.28125-0.030332 0.10662-0.070389 0.20303-0.09375 0.3125-0.072879 0.34151-0.125 0.6982-0.125 1.0625v2 68 2c0 2.7818 2.2182 5 5 5h2 68 2c2.7818 0 5-2.2182 5-5v-2-68-2c0-0.3643-0.05212-0.72099-0.125-1.0625-0.04415-0.20689-0.08838-0.39766-0.15625-0.59375-0.0077-0.02195-0.0233-0.04069-0.03125-0.0625-0.06274-0.17374-0.13838-0.36745-0.21875-0.53125-0.04158-0.0828-0.07904-0.16995-0.125-0.25-0.0546-0.09721-0.12677-0.18835-0.1875-0.28125-0.09411-0.14096-0.20492-0.276-0.3125-0.40625-0.14317-0.17445-0.30314-0.347-0.46875-0.5-0.01117-0.0102-0.01998-0.02115-0.03125-0.03125-0.13839-0.12556-0.28509-0.23444-0.4375-0.34375-0.10257-0.07315-0.20432-0.15336-0.3125-0.21875-0.0074-0.0045-0.02384 0.0044-0.03125 0-0.23204-0.13873-0.46255-0.27478-0.71875-0.375 0.30153 0.0968 0.59646 0.20414 0.875 0.34375 0.55709 0.27922 1.0601 0.66569 1.5 1.0938 0.21997 0.21403 0.40937 0.44186 0.59375 0.6875s0.35541 0.50774 0.5 0.78125c0.14012 0.26505 0.27614 0.52473 0.375 0.8125 0.01041 0.03078 0.02133 0.06274 0.03125 0.09375 0.09046 0.27808 0.1388 0.5794 0.1875 0.875 0.0524 0.31805 0.09375 0.63403 0.09375 0.96875v2 68 2c0 3.324-2.676 6-6 6h-72z" fill="url(#e)" opacity=".3"/><path id="as" d="m12 6c-3.324 0-6 2.676-6 6v2 68 2c0 0.33472 0.04135 0.6507 0.09375 0.96875 0.0487 0.2956 0.09704 0.59692 0.1875 0.875 0.00988 0.03038 0.020892 0.0636 0.03125 0.09375 0.098865 0.28777 0.23488 0.54745 0.375 0.8125 0.14459 0.27351 0.31562 0.53562 0.5 0.78125s0.37378 0.47347 0.59375 0.6875c0.43995 0.42806 0.94291 0.81453 1.5 1.0938 0.27854 0.13961 0.57347 0.24695 0.875 0.34375-0.2562-0.10022-0.48671-0.23627-0.71875-0.375-0.00741-0.0044-0.023866 0.0045-0.03125 0-0.031933-0.0193-0.062293-0.04251-0.09375-0.0625-0.1204-0.0767-0.23102-0.16351-0.34375-0.25-0.10617-0.0808-0.21328-0.16111-0.3125-0.25-0.17793-0.16143-0.34746-0.34539-0.5-0.53125-0.10758-0.13026-0.21839-0.26528-0.3125-0.40625-0.025089-0.03838-0.038446-0.08587-0.0625-0.125-0.064763-0.10303-0.13023-0.20452-0.1875-0.3125-0.10101-0.19471-0.20567-0.4157-0.28125-0.625-0.00796-0.02181-0.023589-0.04055-0.03125-0.0625-0.031825-0.09195-0.035804-0.18683-0.0625-0.28125-0.030332-0.10662-0.070389-0.20303-0.09375-0.3125-0.072879-0.34151-0.125-0.6982-0.125-1.0625v-2-68-2c0-2.7818 2.2182-5 5-5h2 68 2c2.7818 0 5 2.2182 5 5v2 68 2c0 0.3643-0.05212 0.72099-0.125 1.0625-0.04415 0.20689-0.08838 0.39766-0.15625 0.59375-0.0077 0.02195-0.0233 0.04069-0.03125 0.0625-0.06274 0.17374-0.13838 0.36745-0.21875 0.53125-0.04158 0.0828-0.07904 0.16995-0.125 0.25-0.0546 0.09721-0.12677 0.18835-0.1875 0.28125-0.09411 0.14096-0.20492 0.276-0.3125 0.40625-0.14317 0.17445-0.30314 0.347-0.46875 0.5-0.01117 0.0102-0.01998 0.02115-0.03125 0.03125-0.13839 0.12556-0.28509 0.23444-0.4375 0.34375-0.10257 0.07315-0.20432 0.15336-0.3125 0.21875-0.0074 0.0045-0.02384-0.0044-0.03125 0-0.23204 0.13873-0.46255 0.27478-0.71875 0.375 0.30153-0.0968 0.59646-0.20414 0.875-0.34375 0.55709-0.27922 1.0601-0.66569 1.5-1.0938 0.21997-0.21403 0.40937-0.44186 0.59375-0.6875s0.35541-0.50774 0.5-0.78125c0.14012-0.26505 0.27614-0.52473 0.375-0.8125 0.01041-0.03078 0.02133-0.06274 0.03125-0.09375 0.09046-0.27808 0.1388-0.5794 0.1875-0.875 0.0524-0.31805 0.09375-0.63403 0.09375-0.96875v-2-68-2c0-3.324-2.676-6-6-6h-72z" fill="url(#n)" opacity=".8"/><rect id="at" x="6" y="39.3" width="84" height="16.8" color="#000000" enable-background="accumulate" fill="url(#i)"/><rect id="au" x="6" y="55.117" width="84" height="1" color="#000000" enable-background="accumulate" fill="#025" opacity=".2"/><circle id="av" cx="15.5" cy="47.7" r="3.3374" clip-rule="nonzero" color="#000000" color-rendering="auto" enable-background="accumulate" fill="#fff" image-rendering="auto" shape-rendering="auto" solid-color="#000000" stroke="#fff" stroke-linejoin="round" stroke-miterlimit="4" stroke-width=".3253" style="isolation:auto;mix-blend-mode:normal"/><rect id="aw" x="23.765" y="46.442" width="40.746" height="2.305" ry=".98369" clip-rule="nonzero" color="#000000" color-rendering="auto" enable-background="accumulate" fill="#fff" image-rendering="auto" shape-rendering="auto" solid-color="#000000" stroke="#fff" stroke-linejoin="round" stroke-miterlimit="4" stroke-width=".50372" style="isolation:auto;mix-blend-mode:normal"/><circle id="ax" cx="15.5" cy="30.917" r="3.3374" clip-rule="nonzero" color="#000000" color-rendering="auto" enable-background="accumulate" fill="#555" image-rendering="auto" opacity=".594" shape-rendering="auto" solid-color="#000000" stroke="#545454" stroke-linejoin="round" stroke-miterlimit="4" stroke-width=".3253" style="isolation:auto;mix-blend-mode:normal"/><rect id="ay" x="23.765" y="29.659" width="40.746" height="2.305" ry=".98369" clip-rule="nonzero" color="#000000" color-rendering="auto" enable-background="accumulate" fill="#555" image-rendering="auto" opacity=".594" shape-rendering="auto" solid-color="#000000" stroke="#545454" stroke-linejoin="round" stroke-miterlimit="4" stroke-width=".50372" style="isolation:auto;mix-blend-mode:normal"/><circle id="az" cx="15.5" cy="64.517" r="3.3374" clip-rule="nonzero" color="#000000" color-rendering="auto" enable-background="accumulate" fill="#555" image-rendering="auto" opacity=".594" shape-rendering="auto" solid-color="#000000" stroke="#545454" stroke-linejoin="round" stroke-miterlimit="4" stroke-width=".3253" style="isolation:auto;mix-blend-mode:normal"/><rect id="ba" x="23.765" y="63.259" width="40.746" height="2.305" ry=".98369" clip-rule="nonzero" color="#000000" color-rendering="auto" enable-background="accumulate" fill="#555" image-rendering="auto" opacity=".594" shape-rendering="auto" solid-color="#000000" stroke="#545454" stroke-linejoin="round" stroke-miterlimit="4" stroke-width=".50372" style="isolation:auto;mix-blend-mode:normal"/><circle id="bb" cx="15.5" cy="14.117" r="3.3374" clip-rule="nonzero" color="#000000" color-rendering="auto" enable-background="accumulate" fill="#555" image-rendering="auto" opacity=".594" shape-rendering="auto" solid-color="#000000" stroke="#545454" stroke-linejoin="round" stroke-miterlimit="4" stroke-width=".3253" style="isolation:auto;mix-blend-mode:normal"/><rect id="bc" x="23.765" y="12.859" width="40.746" height="2.305" ry=".98369" clip-rule="nonzero" color="#000000" color-rendering="auto" enable-background="accumulate" fill="#555" image-rendering="auto" opacity=".594" shape-rendering="auto" solid-color="#000000" stroke="#545454" stroke-linejoin="round" stroke-miterlimit="4" stroke-width=".50372" style="isolation:auto;mix-blend-mode:normal"/><rect id="bd" x="6" y="39.3" width="84" height="1" color="#000000" enable-background="accumulate" fill="#fff" opacity=".2"/><path id="be" d="m12 5.717c-3.324 0-6 3.2112-6 7.2v9.6h84v-9.6c0-3.9888-2.676-7.2-6-7.2z" color="#000000" enable-background="accumulate" fill="url(#f)" opacity=".1"/><rect id="bf" x="6" y="22.517" width="84" height="16.8" color="#000000" enable-background="accumulate" fill="url(#j)" opacity=".1"/><rect id="bg" x="6" y="56.117" width="84" height="16.8" color="#000000" enable-background="accumulate" fill="url(#k)" opacity=".1"/><circle id="bh" cx="15.5" cy="81.317" r="3.3374" clip-rule="nonzero" color="#000000" color-rendering="auto" enable-background="accumulate" fill="#555" image-rendering="auto" opacity=".594" shape-rendering="auto" solid-color="#000000" stroke="#545454" stroke-linejoin="round" stroke-miterlimit="4" stroke-width=".3253" style="isolation:auto;mix-blend-mode:normal"/><rect id="bi" x="23.765" y="80.059" width="40.746" height="2.305" ry=".98369" clip-rule="nonzero" color="#000000" color-rendering="auto" enable-background="accumulate" fill="#555" image-rendering="auto" opacity=".594" shape-rendering="auto" solid-color="#000000" stroke="#545454" stroke-linejoin="round" stroke-miterlimit="4" stroke-width=".50372" style="isolation:auto;mix-blend-mode:normal"/><path id="bj" d="m6 72.917v9.6c0 3.9888 2.676 7.2 6 7.2h72c3.324 0 6-3.2112 6-7.2v-9.6z" color="#000000" enable-background="accumulate" fill="url(#g)" opacity=".1"/></g><path id="bk" d="m69.591 46.723 7.5752 22 3.0606-6.1434 2.9891 3.0581c1.2331 1.3298 5.1998-2.0729 3.4501-3.8151l-3.0662-3.0589 5.752-1.9108z" display="block" fill="#fffeff" overflow="visible" stroke-width=".96164"/><path id="bl" d="m71.371 48.784 5.8918 17.111 2.5653-5.1022 3.7609 3.7463c0.95904 1.0343 3.4335-0.91488 2.0728-2.27l-3.7974-3.9273 4.8762-1.679z" display="block" overflow="visible" stroke-width=".96164"/></svg>
