<?xml version="1.0" encoding="UTF-8"?>
<svg version="1.1" viewBox="0 0 128 128" xmlns="http://www.w3.org/2000/svg" xmlns:xlink="http://www.w3.org/1999/xlink"><defs><linearGradient id="a"><stop offset="0"/><stop stop-opacity="0" offset="1"/></linearGradient><radialGradient id="d" cx="605.71" cy="486.65" r="117.14" gradientTransform="matrix(-.14458 0 0 .053529 105.13 91.374)" gradientUnits="userSpaceOnUse" xlink:href="#a"/><radialGradient id="c" cx="605.71" cy="486.65" r="117.14" gradientTransform="matrix(.14458 0 0 .053529 22.866 91.374)" gradientUnits="userSpaceOnUse" xlink:href="#a"/><linearGradient id="k" x1="302.86" x2="302.86" y1="366.65" y2="609.51" gradientTransform="matrix(.19053 0 0 .053529 -4.8639 91.374)" gradientUnits="userSpaceOnUse"><stop stop-opacity="0" offset="0"/><stop offset=".5"/><stop stop-opacity="0" offset="1"/></linearGradient><linearGradient id="j" x1="33.579" x2="33.579" y1="5.7086" y2="16.323" gradientTransform="matrix(2.191,0,0,1.7592,-6.6088,8.121)" gradientUnits="userSpaceOnUse"><stop stop-color="#fafafa" offset="0"/><stop stop-color="#c5c5c5" offset="1"/></linearGradient><linearGradient id="i" x1="16.916" x2="16.916" y1="7.0006" y2="14" gradientTransform="matrix(2.6889 0 0 2.667 -.53334 -.50385)" gradientUnits="userSpaceOnUse"><stop stop-color="#a1a1a1" offset="0"/><stop stop-color="#4d4d4d" offset="1"/></linearGradient><linearGradient id="h" x1="24.683" x2="24.683" y1="9.2417" y2="13.523" gradientTransform="matrix(2.6081 0 0 .93602 1.4228 27.35)" gradientUnits="userSpaceOnUse"><stop offset="0"/><stop stop-opacity="0" offset="1"/></linearGradient><linearGradient id="g" x1="16.626" x2="20.055" y1="15.298" y2="24.628" stop-color="#fff" gradientTransform="matrix(2.6122,0,0,2.7869,1.3061,3.3658)" gradientUnits="userSpaceOnUse"><stop offset="0"/><stop stop-opacity="0" offset="1"/></linearGradient><radialGradient id="b" cx="26.617" cy="-2.0645" r="23" gradientTransform="matrix(-4.8906e-8,-2.8515,3.7557,0,96.174,156.12)" gradientUnits="userSpaceOnUse"><stop stop-color="#b0cf85" offset="0"/><stop stop-color="#9bbe74" offset=".26238"/><stop stop-color="#7da051" offset=".70495"/><stop stop-color="#5d892c" offset="1"/></radialGradient><linearGradient id="f" x1="10.014" x2="10.014" y1="44.96" y2="2.8765" gradientTransform="matrix(2.5746,0,0,2.4175,2.2107,10.951)" gradientUnits="userSpaceOnUse"><stop stop-color="#466c1a" offset="0"/><stop stop-color="#929c78" offset="1"/></linearGradient><linearGradient id="e" x1="12.579" x2="12.579" y1="2.9137" y2="43.811" stop-color="#fff" gradientTransform="matrix(2.6421 0 0 2.4848 .58735 11.864)" gradientUnits="userSpaceOnUse"><stop offset="0"/><stop stop-opacity="0" offset="1"/></linearGradient></defs><rect x="18" y="111" width="92" height="13" fill="url(#k)" opacity=".3"/><path d="m110 111v12.999c7.4457 0.0245 18-2.9125 18-6.5005s-8.3088-6.4988-18-6.4988z" fill="url(#c)" opacity=".3"/><path d="m18 111v12.999c-7.4457 0.0245-18-2.9125-18-6.5005s8.3088-6.4988 18-6.4988z" fill="url(#d)" opacity=".3"/><g fill-rule="evenodd"><rect x="3.5" y="19.5" width="121" height="99" rx="7" ry="7" fill="url(#b)" stroke="url(#f)" stroke-linecap="round" stroke-linejoin="round"/><path d="m9.7143 20c-3.1563 0-5.7143 2.729-5.7143 6.096v44.59c0.00724 0.37512 0.16143 0.72986 0.42514 0.9781s0.61283 0.36729 0.96261 0.32824l117.55-19.856c0.60468-0.10174 1.0528-0.65334 1.0612-1.3064v-24.734c0-3.367-2.56-6.096-5.71-6.096h-108.58z" fill="url(#g)" opacity=".2"/><rect x="4" y="36" width="120" height="4" rx="0" ry="0" fill="url(#h)" opacity=".2"/><path d="m11.567 19.5 105.77 0.0229c4.2079 0 7.1626 3.3635 7.1626 7.0855v8.892h-121s-3e-7 -8.8916-3e-7 -8.8916c0-3.9671 3.2503-7.1084 8.0667-7.1084z" fill="url(#j)" stroke="url(#i)"/></g><rect x="4.5" y="20.5" width="119" height="97" rx="6" ry="6" fill="none" opacity=".4" stroke="url(#e)" stroke-linecap="round" stroke-linejoin="round"/><rect x="22.5" y="99.5" width="83" height="19" rx="0" ry="0" fill="#1a1a1a" opacity=".5" stroke="#000"/><path d="m21.5 119v-20.5h85v20.5" fill="none" opacity=".2" stroke="#fff"/></svg>
