<?xml version="1.0" encoding="UTF-8"?>
<svg id="b" version="1" viewBox="0 0 96 96" xmlns="http://www.w3.org/2000/svg"><defs id="c"><filter id="a" x="-.075" y="-.075" width="1.15" height="1.15" color-interpolation-filters="sRGB"><feGaussianBlur id="d" stdDeviation="1.625"/></filter></defs><rect id="e" transform="matrix(0 -1.6054 -1.6054 0 -3.3712 -4.9766)" x="-59" y="-58" width="52" height="52" rx="5" ry="5" fill="#000" filter="url(#a)" opacity=".35"/><rect id="f" transform="matrix(0,-1,-1,0,0,0)" x="-88.134" y="-89.739" width="83.478" height="83.478" rx="8.0268" ry="8.0268" fill="#4f4f4f" stroke-width="1.6054"/><path id="g" d="m6.2609 60.843v18.763c0 4.7247 3.5799 8.5284 8.0268 8.5284h67.425c4.4468 0 8.0268-3.8037 8.0268-8.5284v-18.763z" fill="#000" opacity=".15" stroke-width="1.6548"/><rect id="h" x="6.2609" y="60.843" width="83.478" height="1.6054" rx="0" ry="0" fill="#000" opacity=".35" stop-color="#000000" stroke-linecap="round" stroke-linejoin="round" stroke-width="4.816" style="paint-order:fill markers stroke"/><rect id="i" x="47.197" y="62.448" width="1.6054" height="25.686" fill="#000" opacity=".35" stop-color="#000000" stroke-linecap="round" stroke-linejoin="round" stroke-width="4.816" style="paint-order:fill markers stroke"/><path id="j" d="m14.288 4.6555c-4.4468 0-8.0268 3.5799-8.0268 8.0268v1.6054c0-4.4468 3.5799-8.0268 8.0268-8.0268h67.425c4.4468 0 8.0268 3.5799 8.0268 8.0268v-1.6054c0-4.4468-3.5799-8.0268-8.0268-8.0268z" fill="#fff" opacity=".1" stroke-width="1.6054"/><path id="k" class="ColorScheme-Highlight" d="m48.136 20a12.257 12.257 0 1 1-24.514 0 12.257 12.257 0 0 1 24.514 0z" color="#3daee9" fill="#fff" opacity=".35" stroke-width="1.6054"/><path id="l" d="m45.908 19.999c0 5.5382-4.4896 10.028-10.028 10.028s-10.028-4.4896-10.028-10.028c0-5.5382 4.4896-10.028 10.028-10.028s10.028 4.4896 10.028 10.028z" fill="#4d4d4d" opacity=".5" stroke-width="1.6054"/><path id="m" d="m36.72 76.707c6.722 0.74127 16.368 0.46242 17.692 0.46436l0.27805 0.03694c5.84 0.09314 10.707-5.581 11.456-11.34l1.8775-12.827c1.6076-9.5764-5.6326-11.973-8.0461-7.1838 0-5.5867-6.4345-8.7789-9.6518-3.9897 0-4.7892-6.9372-7.9813-10.156-3.1921v-17.56c0-6.3843-9.5012-7.9813-9.5012 0v34.07s-0.42682-4.9462-3.1414-7.6396c-8.8499-8.7808-10.767 0.5966-10.767 0.5966 6.4345 4.7892 7.9414 27.239 19.96 28.565z" fill="#f2f2f2" stroke-width="1.9481"/></svg>
