<?xml version="1.0" encoding="UTF-8"?>
<svg version="1.1" viewBox="0 0 96 96" xmlns="http://www.w3.org/2000/svg" xmlns:xlink="http://www.w3.org/1999/xlink"><defs><linearGradient id="c" stop-color="#fff"><stop offset="0"/><stop stop-opacity="0" offset="1"/></linearGradient><filter id="w" x="-.192" y="-.192" width="1.384" height="1.384" color-interpolation-filters="sRGB"><feGaussianBlur stdDeviation="5.28"/></filter><clipPath id="x"><rect x="6" y="6" width="84" height="84" rx="6" ry="6" fill="#fff"/></clipPath><linearGradient id="a"><stop stop-color="#514e4d" offset="0"/><stop stop-color="#767372" offset="1"/></linearGradient><linearGradient id="b"><stop stop-color="#202020" offset="0"/><stop stop-color="#727272" offset="1"/></linearGradient><clipPath id="h"><path d="m-28 6c-3.324 0-6 2.676-6 6v72c0 3.324 2.676 6 6 6h38.969s0.24654-18.837 0-21.781c-0.487-5.807-14.3-38.826-21.469-62.219h-17.5z" fill="url(#s)"/></clipPath><linearGradient id="s" x1="99.266" x2="99.266" y1="123" y2="4.8938" gradientTransform="matrix(-.71186 0 0 .71186 53.559 2.4407)" gradientUnits="userSpaceOnUse" xlink:href="#a"/><linearGradient id="g" x1="58.65" x2="58.65" y1="122" y2="5.4252" gradientTransform="matrix(1.0172,0,0,1.0172,-1.1034,-1.1034)" gradientUnits="userSpaceOnUse"><stop stop-color="#dcdcdc" offset="0"/><stop stop-color="#f0f0f0" offset="1"/></linearGradient><linearGradient id="f"><stop stop-color="#de1212" offset="0"/><stop stop-color="#f36565" offset=".5"/><stop stop-color="#a20c0c" offset="1"/></linearGradient><linearGradient id="d" x1="45.448" x2="45.448" y1="92.54" y2="7.0165" gradientTransform="matrix(1.0059 0 0 .99417 100 0)" gradientUnits="userSpaceOnUse"><stop offset="0"/><stop stop-opacity=".58824" offset="1"/></linearGradient><linearGradient id="y" x1="63.582" x2="69.919" y1="28.056" y2="51.703" gradientTransform="matrix(.69715 0 0 .69715 3.5409 1.937)" gradientUnits="userSpaceOnUse"><stop offset="0"/><stop stop-opacity="0" offset="1"/></linearGradient><linearGradient id="z" x1="54.881" x2="64.706" y1="54.138" y2="55" gradientTransform="matrix(.69715 0 0 .69715 3.5409 1.937)" gradientUnits="userSpaceOnUse" xlink:href="#f"/><linearGradient id="ad" x1="58.41" x2="64.607" y1="22.808" y2="21.934" gradientTransform="matrix(.69715 0 0 .69715 3.5409 1.937)" gradientUnits="userSpaceOnUse" xlink:href="#f"/><linearGradient id="af" x1="58.65" x2="58.65" y1="122" y2="5.4252" gradientTransform="matrix(.79888 0 0 .79888 -2.8216 1.2067)" gradientUnits="userSpaceOnUse"><stop stop-color="#dcdcdc" offset="0"/><stop stop-color="#f5f5f5" offset=".89612"/><stop stop-color="#8d8d8d" offset="1"/></linearGradient><linearGradient id="ak" x1="32.251" x2="32.251" y1="90" y2="6" gradientTransform="translate(0,1)" gradientUnits="userSpaceOnUse" xlink:href="#d"/><linearGradient id="al" x1="32.251" x2="32.251" y1="90" y2="5.9996" gradientTransform="matrix(1.0238 0 0 1.0119 -1.1429 .929)" gradientUnits="userSpaceOnUse" xlink:href="#d"/><linearGradient id="am" x1="32.251" x2="32.251" y1="6.1317" y2="90.239" gradientTransform="matrix(1.0238,0,0,-1.0119,-1.1429,98.071)" gradientUnits="userSpaceOnUse" xlink:href="#d"/><linearGradient id="an" x1="43.476" x2="57.254" y1="10.53" y2="12.778" gradientTransform="matrix(-.6434 0 0 .65538 89.209 2.7231)" gradientUnits="userSpaceOnUse" xlink:href="#g"/><linearGradient id="ao" x1="52.471" x2="47.759" y1="5.2827" y2="12.029" gradientTransform="matrix(.6434 0 0 .65538 6.8025 2.7231)" gradientUnits="userSpaceOnUse" xlink:href="#g"/><linearGradient id="r" x1="48" x2="48" y1="20.221" y2="138.66" gradientUnits="userSpaceOnUse" xlink:href="#c"/><radialGradient id="t" cx="48" cy="90.172" r="42" gradientTransform="matrix(1.1573 0 0 .99591 -7.551 .19713)" gradientUnits="userSpaceOnUse" xlink:href="#c"/><linearGradient id="q" x1="36.357" x2="36.357" y1="6" y2="63.893" gradientUnits="userSpaceOnUse" xlink:href="#c"/><linearGradient id="e" x1="-32.474" x2="-28.793" y1="31.633" y2="30.389" gradientTransform="matrix(-.71186 0 0 .71186 36.6 2.4407)" gradientUnits="userSpaceOnUse" xlink:href="#c"/><linearGradient id="i" x1="65.928" x2="74.494" y1="99.266" y2="99.266" gradientTransform="matrix(.36939 .36939 -.36939 .36939 61.58 8.1757)" gradientUnits="userSpaceOnUse" xlink:href="#b"/><linearGradient id="j" x1="65.928" x2="74.494" y1="99.266" y2="99.266" gradientTransform="matrix(-.47006 -.47006 .47006 -.47006 37.189 150.44)" gradientUnits="userSpaceOnUse" xlink:href="#b"/><linearGradient id="k" x1="65.928" x2="74.494" y1="99.266" y2="99.266" gradientTransform="matrix(.36939 .36939 -.36939 .36939 61.58 19.566)" gradientUnits="userSpaceOnUse" xlink:href="#b"/><linearGradient id="l" x1="65.928" x2="74.494" y1="99.266" y2="99.266" gradientTransform="matrix(-.47006 -.47006 .47006 -.47006 37.189 161.83)" gradientUnits="userSpaceOnUse" xlink:href="#b"/><linearGradient id="m" x1="-32.474" x2="-28.793" y1="31.633" y2="30.389" gradientTransform="matrix(.71186 0 0 .71186 59.39 2.4407)" gradientUnits="userSpaceOnUse" xlink:href="#c"/><linearGradient id="n" x1="99.266" x2="99.266" y1="123" y2="4.8938" gradientTransform="matrix(.71186 0 0 .71186 2.4407 2.4407)" gradientUnits="userSpaceOnUse" xlink:href="#a"/><linearGradient id="o" x1="79.514" x2="95.672" y1="16" y2="23.497" gradientTransform="matrix(-.71186 0 0 .71186 93.559 2.4407)" gradientUnits="userSpaceOnUse" xlink:href="#a"/><linearGradient id="p" x1="99.266" x2="99.266" y1="123" y2="4.8938" gradientTransform="matrix(-.71186 0 0 .71186 93.559 2.4407)" gradientUnits="userSpaceOnUse" xlink:href="#a"/><linearGradient id="v" x1="69.894" x2="67.482" y1="56.387" y2="94.281" stop-color="#fff" gradientTransform="matrix(.71186 0 0 .71186 2.4407 2.4407)" gradientUnits="userSpaceOnUse"><stop offset="0"/><stop stop-opacity="0" offset="1"/></linearGradient><linearGradient id="u" x1="123.49" x2="87.676" y1="34.894" y2="19" gradientTransform="matrix(.71186 0 0 .71186 2.4407 2.4407)" gradientUnits="userSpaceOnUse" xlink:href="#a"/></defs><g fill="url(#am)"><path d="m12 95.031c-5.5111 0-10.031-4.52-10.031-10.031v-71c0-5.5111 4.5202-10.031 10.031-10.031h72c5.5111 0 10.031 4.5202 10.031 10.031v71c0 5.5111-4.5202 10.031-10.031 10.031h-72z" opacity=".08"/><path d="m12 94.031c-4.9716 0-9.0312-4.0596-9.0312-9.0312v-71c0-4.972 4.0596-9.0316 9.0312-9.0316h72c4.9716 0 9.0312 4.0596 9.0312 9.0312v71c0 4.9716-4.0596 9.0312-9.0312 9.0312h-72z" opacity=".1"/><path d="m12 93c-4.4091 0-8-3.591-8-8v-71c0-4.4091 3.5909-8 8-8h72c4.4091 0 8 3.5909 8 8v71c0 4.4091-3.5909 8-8 8h-72z" opacity=".2"/></g><rect x="5" y="7" width="86" height="85" rx="7" ry="7" fill="url(#al)" opacity=".3"/><rect x="6" y="7" width="84" height="84" rx="6" ry="6" fill="url(#ak)" opacity=".45"/><rect x="6" y="6" width="84" height="84" rx="6" ry="6" fill="#514e4d"/><path d="m18.955 6 29.72 75 28.37-75h-58.09z" fill="url(#af)"/><g fill-rule="evenodd"><path d="m39.969 7.4688a1.0213 1.0213 0 0 0-0.063 0.0312c-1.1131 0.17542-1.8477 0.93792-2.3125 1.625-0.46481 0.68708-0.78406 1.342-1.0938 1.7188a1.0213 1.0213 0 0 0-0.094 0.156c-0.26141 0.44881-0.74435 0.9883-1.125 1.7188-0.38065 0.73045-0.62681 1.8041-0.15625 2.8125a1.0213 1.0213 0 0 0 0.125 0.1875c1.7846 2.3042 3.798 4.3876 5.625 6.5312 0.04791 0.0885 0.0744 0.08157 0.125 0.15625 0.31375 0.46308 0.68985 0.74456 0.84375 0.90625 0.02979 0.0313 0.01717 0.01239 0.03125 0.03125-3.648 11.554-7.343 23.093-10.969 34.657a1.0213 1.0213 0 0 0-0.032 0.157c-0.30464 2.0394 1.5697 3.5889 3.4688 3.375v0.03125c9.4285 0.11172 18.851 0.2364 28.281 0.34375a1.0213 1.0213 0 0 0 0.09375 0c2.0496-0.18702 3.1993-2.4324 2.375-4.25h0.031l-0.063-0.156-10.687-34.344c1.8708-2.2532 3.8409-4.4919 5.6875-6.8125a1.0213 1.0213 0 0 0 0.09375-0.15625c0.53517-1.0198 0.33064-2.0821 0.03125-2.875-0.2989-0.793-0.6835-1.473-0.812-1.938a1.0213 1.0213 0 0 0-0.0312-0.156c-0.22-0.477-0.426-1.2512-0.846-2.0307-0.419-0.7795-1.275-1.6325-2.468-1.7187a1.0213 1.0213 0 0 0-0.1874 0.0312c-1.9611 0.2169-3.6428 0.9803-5.2188 1.375-1.0204 0.2519-1.8705 0.6314-2.5938 0.75-2.4094-0.6832-4.8278-1.4877-7.3124-2.125a1.0213 1.0213 0 0 0-0.25-0.03125h-0.40625a1.0213 1.0213 0 0 0-0.09375 0z" opacity=".08"/><path d="m40.062 8.5c0.0016-1.974e-4 -0.09539 0.03154-0.09375 0.03125 0.0016-2.897e-4 -0.12662 0.031631-0.125 0.03125 0.0016-3.811e-4 -0.09535 4.713e-4 -0.09375 0s-0.12657 0.03181-0.125 0.03125c0.0016-5.6e-4 -0.09529 0.063147-0.09375 0.0625 2e-3 -6e-4 -0.095 0.032-0.093 0.0313 1e-3 -7e-4 -0.096 0.0633-0.094 0.0625 1e-3 -8e-4 -0.095 0.0634-0.094 0.0625s-0.095 0.0635-0.094 0.0625c2e-3 -1e-3 -0.095 0.0635-0.094 0.0625 2e-3 -0.0011-0.094 0.0636-0.093 0.0625s-0.064 0.0949-0.063 0.0938c1e-3 -0.0012-0.095 0.0637-0.094 0.0624 2e-3 -0.0012-0.063 0.0951-0.062 0.0938 1e-3 -0.00131-0.06346 0.095114-0.0625 0.09375 7.36e-4 -0.00105-0.04582 0.037304-0.0625 0.0625-5e-3 0.00756-2.03e-4 0.031577 0 0.03125l-2.4375 3.7188h0.03125c0.0013-2e-3 -0.09491 0.12709-0.09375 0.125 0.0012-0.0021-0.06349 0.15842-0.0625 0.15625 9.87e-4 -0.0022-0.06331 0.12725-0.0625 0.125 8.1e-4 -0.0022-0.06313 0.15856-0.0625 0.15625 6.27e-4 -0.0023-0.03169 0.1586-0.03125 0.15625 4.4e-4 -0.0023-0.0315 0.15862-0.03125 0.15625 2.5e-4 -0.0024-5.9e-5 0.15864 0 0.15625 5.9e-5 -0.0024 1.32e-4 0.15864 0 0.15625-1.32e-4 -0.0024 0.03157 0.15862 0.03125 0.15625-3.23e-4 -0.0024 5.12e-4 0.15858 0 0.15625-5.12e-4 -0.0023 0.0632 0.15853 0.0625 0.15625-6.97e-4 -0.0023 0.03213 0.15847 0.03125 0.15625-8.78e-4 -0.0022 0.06355 0.12714 0.0625 0.125-0.0011-0.0021 0.09497 0.1583 0.09375 0.15625-0.0012-0.0021 0.09513 0.12695 0.09375 0.125-0.0014-0.0019 0.09528 0.12683 0.09375 0.125a1.03 1.03 0 0 0 0 0.03125l6.656 7.595-11.031 34.844c5.17e-4 -0.0017-0.03167 0.1267-0.03125 0.125 4.18e-4 -0.0017-0.03157 0.09547-0.03125 0.09375 3.18e-4 -0.0017-0.03147 0.12673-0.03125 0.125 2.16e-4 -0.0017-1.14e-4 0.12674 0 0.125 1.14e-4 -0.0017-1.1e-5 0.0955 0 0.09375 1.1e-5 -0.0017 9.1e-5 0.12674 0 0.125-9.1e-5 -0.0017 1.93e-4 0.12674 0 0.125-1.93e-4 -0.0017 0.03155 0.12672 0.03125 0.125-2.95e-4 -0.0017 3.96e-4 0.09545 0 0.09375s0.03175 0.12668 0.03125 0.125c-4.95e-4 -0.0017 0.03184 0.09539 0.03125 0.09375-5.92e-4 -0.0016 0.06319 0.12661 0.0625 0.125-6.88e-4 -0.0016 0.03203 0.09531 0.03125 0.09375-7.81e-4 -0.0016 0.06337 0.09526 0.0625 0.09375-8.71e-4 -0.0015 0.06346 0.09521 0.0625 0.09375-9.59e-4 -0.0015 0.06354 0.1264 0.0625 0.125-1e-3 -0.0014 0.06362 0.06384 0.0625 0.0625-0.0011-0.0013 0.09495 0.09502 0.09375 0.09375-0.0012-0.0013 0.09502 0.09495 0.09375 0.09375-0.0013-0.0012 0.06384 0.06362 0.0625 0.0625-0.0013-0.0011 0.09515 0.09479 0.09375 0.09375-0.0014-1e-3 0.09521 0.06346 0.09375 0.0625-0.0015-9.56e-4 0.09527 0.06337 0.09375 0.0625-0.0015-8.69e-4 0.12656 0.03203 0.125 0.03125-0.0016-7.78e-4 0.09536 0.06318 0.09375 0.0625-0.0016-6.85e-4 0.09539 0.03184 0.09375 0.03125-0.0016-5.9e-4 0.12668 0.03174 0.125 0.03125-0.0017-4.92e-4 0.1267 0.03164 0.125 0.03125-0.0017-3.93e-4 0.09547 0.03154 0.09375 0.03125-0.0017-2.92e-4 0.12674 0.03144 0.125 0.03125-0.0017-1.91e-4 0.12674 8.8e-5 0.125 0-0.0017-8.8e-5 0.0955-1.4e-5 0.09375 0l28.562 0.34375c-0.0017-1.4e-5 0.09549-8.8e-5 0.09375 0-0.0017 8.8e-5 0.12674-1.91e-4 0.125 0-0.0017 1.91e-4 0.12672-0.03154 0.125-0.03125-0.0017 2.92e-4 0.09545-0.03164 0.09375-0.03125-0.0017 3.93e-4 0.12668-0.03174 0.125-0.03125-0.0017 4.92e-4 0.12664-0.03184 0.125-0.03125-0.0016 5.9e-4 0.09536-0.03193 0.09375-0.03125-0.0016 6.85e-4 0.09531-0.06328 0.09375-0.0625-0.0016 7.78e-4 0.12652-0.03212 0.125-0.03125-0.0015 8.69e-4 0.09521-0.06346 0.09375-0.0625-0.0015 9.56e-4 0.09515-0.06354 0.09375-0.0625-0.0014 1e-3 0.09509-0.09487 0.09375-0.09375-0.0013 0.0011 0.06377-0.0637 0.0625-0.0625-0.0013 0.0012 0.09495-0.09502 0.09375-0.09375-0.0012 0.0013 0.09487-0.09509 0.09375-0.09375-0.0011 0.0013 0.06354-0.0639 0.0625-0.0625-1e-3 0.0014 0.06346-0.12646 0.0625-0.125-9.59e-4 0.0015 0.06337-0.09526 0.0625-0.09375-8.71e-4 0.0015 0.06328-0.09531 0.0625-0.09375-7.81e-4 0.0016 0.03194-0.09536 0.03125-0.09375-6.88e-4 0.0016 0.06309-0.12664 0.0625-0.125-5.92e-4 0.0016 0.03175-0.09543 0.03125-0.09375-4.95e-4 0.0017 0.03165-0.1267 0.03125-0.125-3.96e-4 0.0017 2.95e-4 -0.09547 0-0.09375-2.95e-4 0.0017 0.03144-0.12674 0.03125-0.125-1.93e-4 0.0017 9.1e-5 -0.12674 0-0.125-9.1e-5 0.0017-1.1e-5 -0.12675 0-0.125 1.1e-5 0.0017-1.14e-4 -0.09549 0-0.09375 1.14e-4 0.0017-2.16e-4 -0.12673 0-0.125 2.16e-4 0.0017-0.03157-0.12672-0.03125-0.125 3.18e-4 0.0017-0.03167-0.09545-0.03125-0.09375 4.18e-4 0.0017-0.03177-0.12667-0.03125-0.125l-11.031-35.374 5.7812-6.907c-0.0012 2e-3 0.095-0.095 0.0938-0.093-0.0012 1e-3 0.0636-0.127 0.0625-0.126-0.0011 2e-3 0.0634-0.095 0.0625-0.093-9.38e-4 0.0017 0.06332-0.12679 0.0625-0.125-8.21e-4 0.0018 0.0632-0.12684 0.0625-0.125-7.01e-4 0.0018 0.03183-0.12688 0.03125-0.125-5.78e-4 0.0019 0.0317-0.12692 0.03125-0.125-4.52e-4 0.0019 0.03157-0.12694 0.03125-0.125-3.24e-4 0.0019 0.03144-0.12696 0.03125-0.125-1.95e-4 2e-3 6.4e-5 -0.12697 0-0.125-6.5e-5 2e-3 -6.6e-5 -0.12697 0-0.125 6.6e-5 2e-3 -1.96e-4 -0.15821 0-0.15625 1.96e-4 2e-3 -0.03157-0.12694-0.03125-0.125 3.25e-4 0.0019-0.0317-0.12692-0.03125-0.125 4.53e-4 0.0019-0.03183-0.12688-0.03125-0.125 5.79e-4 0.0019-0.03195-0.12684-0.03125-0.125l-1.7188-4.313c0.0011 0.0026-0.0949-0.1588-0.0937-0.1562 0.0012 0.0025-0.064-0.1587-0.0625-0.1563s-0.1267-0.1585-0.125-0.1563c0.0017 0.0023-0.1269-0.1583-0.125-0.1562s-0.1271-0.1269-0.125-0.125-0.1272-0.1267-0.125-0.125-0.1586-0.0952-0.1562-0.0938c0.0023 0.0015-0.1901-0.0949-0.1876-0.0937 0.0026 0.0012-0.1588-0.0635-0.1562-0.0625s-0.1902-0.0632-0.1875-0.0625-0.159-0.0317-0.1563-0.0313c0.0028 5e-4 -0.1902-0.0314-0.1874-0.0312 0.0028 2.14e-4 -0.1903 4.91e-5 -0.1875 0s-0.19028 3.117e-4 -0.1875 0c0.0027-3e-4 -0.1903 0.0318-0.1876 0.0312 0.0022-4e-4 -0.1103 0.0195-0.1562 0.0313l-7.125 2.125-7.3125-2.125c0.0031 7e-4 -0.1897-0.0317-0.187-0.0313 0.0027 5e-4 -0.159-0.0314-0.1562-0.0312 0.0027 2.485e-4 -0.19025 4.4e-6 -0.1875 0 0.0027-4.4e-6 -0.19023 2.573e-4 -0.1875 0a1.03 1.03 0 0 0-0.03125 0z" opacity=".1"/><path d="m40.188 9.5312a0.94065 0.94065 0 0 0-0.688 0.4376l-2.4375 3.75a0.94065 0.94065 0 0 0 0.0625 1.125l7.0312 8-11.219 35.438a0.94065 0.94065 0 0 0 0.908 1.218l28.562 0.34375a0.94065 0.94065 0 0 0 0.906-1.219l-11.187-35.906 6.125-7.344a0.94065 0.94065 0 0 0 0.1562-0.937l-1.7187-4.313a0.94065 0.94065 0 0 0-1.1563-0.5625l-7.4062 2.2185-7.5938-2.2185a0.94065 0.94065 0 0 0-0.3437-0.0313z" opacity=".15"/><path d="m40.281 10.469-2.4375 3.75 7.375 8.4062-11.375 35.938 28.562 0.34375-11.344-36.375 6.4688-7.75-1.7188-4.3125-7.6562 2.3125-7.875-2.3125z" opacity=".3"/><path d="m40.295 9.4768 7.863 2.3162 7.64-2.3162 1.742 4.3072-9.382 11.196-10.302-11.775 2.439-3.7282z" fill="url(#ad)"/><path d="m45.259 21.496-11.411 36.057 28.571 0.349-11.391-36.445-5.769 0.039z" fill="url(#z)"/><path d="m45.085 21.496c2.9612 1.2193 5.9225 0.08709 5.9225 0.08709s5.6226 17.779 10.396 33.619c-3.079-3.571-9.759-31.178-11.092-31.529-1.405-0.369 0.824 15.285-0.235 16.2-2.003-17.767-3.946-18.551-5.165-16.809l0.03803-0.34224c0.05125-0.4613 0.13616-1.2255 0.13616-1.2255z" fill="url(#y)" opacity=".4"/></g><path d="m51.822 32.497a8.1296 0.61586 85.802 0 1-1.228 0.09 8.1296 0.61586 85.802 1 1 1.228-0.09z" fill="#fff" opacity=".2"/><path d="m30.25 8-1.2812 2.3438 6.9375 15.719s3.3815-7.0511 12.062-13.438c-4.594-0.729-8.649-2.7881-11.53-4.625h-6.188zm29.344 0c-2.881 1.8369-6.9678 3.8955-11.562 4.625 8.681 6.3864 12.062 13.438 12.062 13.438l6.937-15.719-1.281-2.344h-6.156z" fill-rule="evenodd" opacity=".15"/><path d="m32.418 6c0.61867 2.953 7.2336 5.284 15.301 5.284 8.067 0 14.664-2.331 15.281-5.284h-4.926c-2.257 1.4767-5.978 2.4577-10.194 2.4577s-7.937-0.981-10.194-2.4577h-5.2678z" opacity=".4"/><g fill-rule="evenodd"><path d="m30.25 7-1.2812 2.3438 6.9375 15.719s3.3815-7.0511 12.062-13.438c-4.594-0.729-8.649-2.7881-11.53-4.625h-6.188zm29.344 0c-2.881 1.8369-6.9678 3.8955-11.562 4.625 8.681 6.3864 12.062 13.438 12.062 13.438l6.937-15.719-1.281-2.344h-6.156z" opacity=".3"/><path d="m30.246 6-1.266 2.3348 6.936 15.729s3.3827-7.0489 12.064-13.435c-4.595-0.73-8.66-2.7923-11.541-4.6292h-6.1927z" fill="url(#ao)"/><path d="m59.581 6c-2.881 1.8369-6.946 3.8992-11.541 4.629 8.681 6.386 12.064 13.435 12.064 13.435l6.916-15.729-1.266-2.3348h-6.1726z" fill="url(#an)"/><path d="m35.152 6c2.862 1.8329 6.9098 3.8934 11.541 4.6286-6.4428 4.7398-9.9507 9.83-11.34 12.145l0.56297 1.2903s3.3827-7.0489 12.064-13.435c-4.595-0.7298-8.658-2.7924-11.541-4.629h-1.2868z" opacity=".1"/><path d="m48.04 10.629c8.681 6.3864 12.064 13.435 12.064 13.435l0.56297-1.2903c-1.389-2.315-4.897-7.406-11.34-12.145" fill="#fff" opacity=".8"/><path d="m59.581 6c-2.8774 1.8366-6.9462 3.8992-11.541 4.6286 0.47095 0.34647 0.90704 0.69542 1.3471 1.0445 5.1583-1.1266 9.5286-3.8072 12.104-5.6732h-1.91zm5.4488 0 1.6688 3.0516 0.3217-0.71683-1.2667-2.3348h-0.72382z" opacity=".1"/></g><path d="m12 6c-3.324 0-6 2.676-6 6v72c0 3.324 2.676 6 6 6h38.969s0.24654-18.837 0-21.781c-0.487-5.807-14.3-38.826-21.469-62.219h-17.5z" fill="url(#p)"/><path d="m8 7v81.469c0.30671 0.27458 0.64098 0.51153 1 0.71875v-82.188h-1zm4-1v84h1.0002v-84h-1zm4 0v4.25c0.344-0.5814 0.683-1.1157 1-1.5625v-2.6875h-1zm0 7.5v10.312c0.33274-0.33903 0.66636-0.6943 1-1.0625v-8.125l-1-1.125zm4 4.5625v1.375c0.21761-0.21948 0.43906-0.42555 0.65625-0.625l-0.656-0.75zm-4 9.969v61.969h1v-60.812c-0.36037-0.39971-0.67608-0.78918-1-1.1562zm4 4.375v57.594h1v-56.5c-0.3567-0.38185-0.65893-0.72663-1-1.0938zm4 4.3125v53.282h1v-52.217c-0.33343-0.35417-0.67332-0.71534-1-1.0625zm4 4.25v49.032h1v-47.967c-0.3305-0.35287-0.67211-0.71319-1-1.0625zm4 4.3125v44.72h1v-43.654c-0.332-0.36-0.668-0.705-1-1.063zm4 4.345v40.375h1v-39.281c-0.326-0.363-0.67-0.729-1-1.094zm4 4.437v35.938h1v-34.75c-0.338-0.393-0.652-0.789-1-1.188zm4 4.782v31.156h1v-29.938c-0.31555-0.39849-0.66655-0.80856-1-1.2188z" fill="#fff" opacity=".1"/><path d="m43.44 68.221c-0.24655 2.9442 0 21.601 0 21.601h39.687c1.213-27.934-35.73-48.688-39.687-21.601z" opacity=".15"/><path d="m42.44 68.221c-0.24655 2.9442 0 21.601 0 21.601h39.687c1.213-27.934-35.73-48.688-39.687-21.601z" opacity=".1"/><g fill-rule="evenodd"><g transform="translate(40)" clip-path="url(#h)"><path d="m-20.594 5.0312c-4.65e-4 4.93e-5 -0.12454 0.031173-0.125 0.03125-4.61e-4 7.68e-5 -0.12454 0.031146-0.125 0.03125-4.56e-4 1.04e-4 -0.0933-1.308e-4 -0.09375 0-4.49e-4 1.308e-4 -0.12456 0.062343-0.125 0.0625-4.4e-4 1.572e-4 -0.09332 0.031067-0.09375 0.03125-4.3e-4 1.831e-4 -0.09333 0.062292-0.09375 0.0625-4.19e-4 2.082e-4 -0.1246 0.031017-0.125 0.03125-3.12e-4 1.79e-4 -0.03557 0.045957-0.0625 0.0625-0.0081 0.00496-0.03116-5.91e-5 -0.03125 0v0.03125c-1.5172 0.96486-3.3268 2.9037-5.375 7h0.03125c-2.67e-4 5.17e-4 -0.06227 0.12446-0.0625 0.125-2.28e-4 5.35e-4 -0.06231 0.12445-0.0625 0.125-1.88e-4 5.51e-4 -0.0311 0.15569-0.03125 0.15625-1.47e-4 5.63e-4 -0.03115 0.12443-0.03125 0.125-1.05e-4 5.72e-4 -0.03119 0.15567-0.03125 0.15625-6.3e-5 5.79e-4 2e-5 0.12442 0 0.125-2e-5 5.82e-4 -2.3e-5 0.15567 0 0.15625 2.3e-5 5.82e-4 -6.6e-5 0.15567 0 0.15625 6.6e-5 5.78e-4 0.03114 0.12443 0.03125 0.125 1.09e-4 5.72e-4 0.0311 0.15569 0.03125 0.15625 1.5e-4 5.62e-4 0.03106 0.12445 0.03125 0.125 1.92e-4 5.5e-4 0.06227 0.12447 0.0625 0.125 2.32e-4 5.34e-4 0.06223 0.15574 0.0625 0.15625 2.7e-4 5.15e-4 0.06219 0.12451 0.0625 0.125 3.08e-4 4.94e-4 0.09341 0.09328 0.09375 0.09375 3.43e-4 4.7e-4 0.06212 0.12456 0.0625 0.125a0.96458 0.96458 0 0 0 0.03125 0l4.5625 5.25c-1.9658 2.0448-3.8382 4.3143-5.125 5.1562-0.0046 3e-3 -0.02669-3e-3 -0.03125 0-0.02565 0.01662-0.06226 0.03108-0.0625 0.03125-3.47e-4 2.38e-4 -0.09342 0.06224-0.09375 0.0625-3.34e-4 2.56e-4 -0.06218 0.09348-0.0625 0.09375-3.19e-4 2.74e-4 -0.09345 0.06221-0.09375 0.0625-3.04e-4 2.9e-4 -0.06221 0.06219-0.0625 0.0625-2.88e-4 3.06e-4 -0.06223 0.09343-0.0625 0.09375-2.72e-4 3.21e-4 -0.06225 0.06217-0.0625 0.0625-2.54e-4 3.35e-4 -0.06226 0.0934-0.0625 0.09375-2.36e-4 3.48e-4 -0.06228 0.09339-0.0625 0.09375-2.17e-4 3.6e-4 -0.0623 0.09338-0.0625 0.09375-1.98e-4 3.71e-4 -0.03107 0.09337-0.03125 0.09375-1.77e-4 3.81e-4 -0.03109 0.09336-0.03125 0.09375-1.57e-4 3.9e-4 -0.06236 0.09335-0.0625 0.09375-1.36e-4 3.98e-4 -0.03114 0.09334-0.03125 0.09375-1.14e-4 4.05e-4 9.3e-5 0.09334 0 0.09375s-0.03118 0.12458-0.03125 0.125c-7.1e-5 4.15e-4 -0.0312 0.09333-0.03125 0.09375-4.8e-5 4.18e-4 2.6e-5 0.09333 0 0.09375s4e-6 0.09333 0 0.09375c-4e-6 4.21e-4 -1.9e-5 0.12458 0 0.125s-4.1e-5 0.09333 0 0.09375c4.1e-5 4.19e-4 0.03119 0.09333 0.03125 0.09375 6.4e-5 4.16e-4 -8.6e-5 0.12459 0 0.125 8.6e-5 4.12e-4 0.03114 0.09334 0.03125 0.09375 1.07e-4 4.07e-4 0.03112 0.09335 0.03125 0.09375 1.29e-4 4e-4 0.0311 0.09336 0.03125 0.09375 1.5e-4 3.93e-4 0.03108 0.09337 0.03125 0.09375 1.71e-4 3.84e-4 0.06231 0.09338 0.0625 0.09375 1.91e-4 3.75e-4 0.03104 0.09339 0.03125 0.09375 2.11e-4 3.64e-4 0.06227 0.0934 0.0625 0.09375 2.3e-4 3.52e-4 0.06225 0.09341 0.0625 0.09375 1.91e-4 2.61e-4 0.04509 0.04002 0.0625 0.0625 0.0062 0.0077 0.02505 0.02348 0.03125 0.03125 3.5488 4.447 12.245 13.255 20.375 22.125 4.0721 4.4428 8.0004 8.8771 10.969 12.656 1.4793 1.8834 2.6949 3.6287 3.5938 5.0938s1.4699 2.7115 1.5938 3.2812c1.62e-4 6.59e-4 0.06228 0.18686 0.0625 0.1875 2.18e-4 6.43e-4 0.03098 0.15563 0.03125 0.15625 2.73e-4 6.22e-4 0.09343 0.1244 0.09375 0.125 3.25e-4 5.96e-4 0.09338 0.15568 0.09375 0.15625 3.75e-4 5.66e-4 0.09333 0.12447 0.09375 0.125 4.22e-4 5.31e-4 0.09328 0.12451 0.09375 0.125 4.67e-4 4.93e-4 0.12449 0.12455 0.125 0.125 5.07e-4 4.51e-4 0.12446 0.12459 0.125 0.125 5.44e-4 4.06e-4 0.15567 0.09339 0.15625 0.09375 5.77e-4 3.58e-4 0.12439 0.06219 0.125 0.0625 6.06e-4 3.07e-4 0.15562 0.06225 0.15625 0.0625 6.3e-4 2.53e-4 0.1556 0.0623 0.15625 0.0625 6.49e-4 1.98e-4 0.18684 0.06236 0.1875 0.0625 6.64e-4 1.42e-4 0.15558-8.4e-5 0.15625 0 6.74e-4 8.4e-5 0.15557 0.03122 0.15625 0.03125 6.78e-4 2.6e-5 0.18682 3.3e-5 0.1875 0 6.78e-4 -3.3e-5 0.15558-0.03116 0.15625-0.03125 6.73e-4 -9.1e-5 0.15559-0.0311 0.15625-0.03125 6.62e-4 -1.49e-4 0.18685-0.03105 0.1875-0.03125 6.47e-4 -2.05e-4 0.15562-0.06224 0.15625-0.0625 6.27e-4 -2.6e-4 0.15565-0.06219 0.15625-0.0625 6.02e-4 -3.13e-4 0.12443-0.09339 0.125-0.09375 5.73e-4 -3.64e-4 0.15571-0.09334 0.15625-0.09375 5.4e-4 -4.12e-4 0.1245-0.09329 0.125-0.09375 5.02e-4 -4.57e-4 0.12454-0.1245 0.125-0.125 4.61e-4 -4.98e-4 0.09333-0.12446 0.09375-0.125 4.17e-4 -5.36e-4 0.09338-0.15568 0.09375-0.15625 3.69e-4 -5.7e-4 0.09343-0.1244 0.09375-0.125 3.19e-4 -5.99e-4 0.06223-0.15562 0.0625-0.15625 2.66e-4 -6.25e-4 0.06229-0.1556 0.0625-0.15625 2.11e-4 -6.45e-4 0.06235-0.15559 0.0625-0.15625 1.55e-4 -6.61e-4 0.03115-0.18683 0.03125-0.1875l0.09375-0.75c1.33e-4 -4.95e-4 0.01951-0.07074 0.03125-0.125 0.0056-0.02605-4e-5 -0.06226 0-0.0625 1.25e-4 -7.49e-4 0.0312-0.18674 0.03125-0.1875 9e-6 -1.91e-4 -5.8e-5 -0.0563 0-0.0625-1.2e-4 -0.01557 1.55e-4 -0.01782 0-0.03125-3.1e-4 -0.02686-5.02e-4 -0.09156 0-0.125-4.3e-5 0.0028 0.02186-0.17668 0-0.4375-0.151-1.794-0.986-4.518-2.188-8.407-1.204-3.897-2.818-8.775-4.688-14.125-3.717-10.639-8.354-23.08-12.281-33.156a0.96458 0.96458 0 0 0-0.0625-0.1875 0.96458 0.96458 0 0 0 0-0.03125c-0.855-2.1794-1.65-4.3975-2.343-6.6562-3e-5 -1.047e-4 0.0024-0.023923 0-0.03125-0.011-0.0353-0.062-0.1246-0.063-0.1251 0-6e-4 -0.062-0.1557-0.062-0.1563 0-5e-4 -0.062-0.1244-0.062-0.125-1e-3 -5e-4 -0.094-0.1244-0.094-0.125-1e-3 -5e-4 -0.094-0.1245-0.094-0.125 0-4e-4 -0.093-0.1245-0.094-0.125 0-4e-4 -0.124-0.1245-0.125-0.125 0-4e-4 -0.093-0.0933-0.093-0.0937-1e-3 -4e-4 -0.125-0.0934-0.126-0.0937 0-4e-4 -0.155-0.0623-0.156-0.0626 0-2e-4 -0.124-0.0934-0.125-0.0937 0-3e-4 -0.155-0.031-0.156-0.0313-1e-3 -2e-4 -0.156-0.0623-0.156-0.0624-1e-3 -2e-4 -0.156-0.0312-0.157-0.0313 0-1e-4 -0.155-0.0312-0.156-0.0313-6.28e-4 -5.89e-5 -0.15562 8.4e-6 -0.15625 0h-9.875c-1.49e-4 -7.1e-6 -0.01939 4.3e-6 -0.03125 0-0.04745-1.7e-5 -0.1244-2.84e-5 -0.125 0a0.96458 0.96458 0 0 0-0.0625 0zm31.594 64.625s0.25859-9.32e-4 0.375 0l-0.375 0.032c7.88e-4 0.01171 0-0.03125 0-0.03125z" opacity=".1"/><path d="m-20.406 6a0.98812 0.98812 0 0 0-0.532 0.1562c-1.3058 0.82125-3.0159 2.6256-5.0312 6.6562a0.98812 0.98812 0 0 0 0.125 1.0938l5.1562 5.9062c-2.1379 2.1365-4.2162 4.8211-5.9375 5.9375a0.98812 0.98812 0 0 0-0.25 1.4688c3.4401 4.318 12.214 13.19 20.375 22.094 4.0805 4.4519 8.0042 8.9047 11 12.719 2.9958 3.8141 5.0223 7.1275 5.375 8.75a0.98812 0.98812 0 0 0 1.9375-0.09375l0.125-0.875a0.98812 0.98812 0 0 0 0.03125-0.1875c0.0014 0.02759-0.0014-0.06123 0-0.15625s0.01664-0.14513 0-0.34375c-0.131-1.5644-0.92576-4.3386-2.125-8.2188-1.198-3.881-2.82-8.753-4.687-14.095-3.733-10.683-8.407-23.217-12.344-33.312a0.98812 0.98812 0 0 0 0-0.03125c-0.86705-2.2069-1.6711-4.4532-2.375-6.75a0.98812 0.98812 0 0 0-0.937-0.719h-9.9062z" opacity=".15"/><path d="m-20.406 7c-1.082 0.68047-2.7214 2.3177-4.6875 6.25l5.75 6.5625c-2.2458 2.0623-4.5274 5.3398-6.75 6.7812 6.6811 8.3861 35.159 35.787 36.938 43.969l0.125-0.875c-0.0054-0.10632 6e-3 -0.39715 0-0.46875-0.438-5.228-11.2-35.209-19.063-55.374-0.874-2.227-1.693-4.5183-2.406-6.844h-9.9062z" opacity=".3"/></g><path d="m29.514 6c0.71271 2.3257 1.5278 4.6031 2.4025 6.8294 7.8625 20.165 18.604 50.163 19.042 55.392 6e-3 0.0716 0.0168 0.36084 0.0222 0.46716l-0.13344 0.86758c-1.778-8.182-30.246-35.571-36.928-43.957 2.2226-1.4415 4.4947-4.7226 6.7405-6.785l-5.7616-6.5625c1.9662-3.9323 3.6119-5.5706 4.6938-6.2511h9.9216z" fill="url(#o)"/><path d="m29.514 6c0.71271 2.3257 1.5278 4.6031 2.4025 6.8294 7.8625 20.165 18.604 50.163 19.042 55.392 6e-3 0.0716 0.0168 0.36084 0.0222 0.46716l-0.13344 0.86758c-0.264-1.217-0.997-2.603-2.068-4.115-2.617-6.916-11.512-35.237-18.286-52.612-0.875-2.226-1.69-4.5033-2.403-6.829h1.4237z" fill="#525252" opacity=".2"/></g><path d="m44.44 68.221c-0.24655 2.9442 0 21.601 0 21.601h39.687c1.213-27.934-35.73-48.688-39.687-21.601z" opacity=".3"/><path d="m29.092 6 9.1875 20.594c1.6712 4.4824 3.3278 8.9909 4.9062 13.406l-15.156-34h1.0625zm-4.3438 0 27.094 60.906c0.0039 0.01892 0.02743 0.04381 0.03125 0.0625 0.10465 0.51188 0.19138 0.92318 0.21875 1.25 6e-3 0.0716-0.0054 0.36242 0 0.46875l-0.125 0.875c-0.20083-0.92382-0.75094-2.1102-1.5625-3.4688l-26.75-60.093h1.0938zm-4.3125 0.1875 22.031 49.469c-0.72989-0.85313-1.4762-1.7153-2.25-2.5938l-20.563-46.185c0.28844-0.27895 0.53784-0.51277 0.78125-0.6875zm-2.875 3.3438 4.0312 9.0625-2.25-2.5625-2.4375-5.4375c0.22084-0.38611 0.4459-0.73294 0.65625-1.0625zm4.1562 9.3438 12.062 27.094c-0.69906-0.75635-1.3951-1.5006-2.0938-2.25l-10.75-24.094c0.26017-0.26804 0.52165-0.50903 0.78125-0.75zm-2.969 3.187 6.656 14.938c-0.66718-0.70885-1.3968-1.4802-2.0312-2.1562-0.0111-0.01187-0.0201-0.01939-0.0312-0.03125l-5.3125-11.938c0.241-0.2645 0.47747-0.54064 0.71875-0.8125zm-3.0312 3.0312 1.25 2.75c-0.74078-0.84293-1.4283-1.6109-1.9375-2.25 0.22491-0.14587 0.46165-0.31962 0.6875-0.5z" fill="#fff" opacity=".1"/><path d="m19.592 6c-1.082 0.68047-2.7277 2.3188-4.6938 6.2511l5.7616 6.5625c-2.2458 2.0623-4.5179 5.3435-6.7405 6.785 6.6811 8.3861 35.149 35.776 36.928 43.958l0.13347-0.86758c-6e-3 -0.10632-0.0162-0.39556-0.0222-0.46716-0.0469-0.56011-0.24451-1.4501-0.51165-2.536-4e-3 -0.0057 4e-3 -0.01655 0-0.02225-6.732-10.839-29.258-32.728-35.104-40.065 2.2226-1.4415 4.4947-4.7226 6.7405-6.785l-5.7617-6.5625c1.9662-3.9323 3.6119-5.5706 4.6939-6.2511h-1.4237z" fill="#fff" fill-rule="evenodd" opacity=".15"/><path d="m66.5 6c-7.169 23.393-20.982 56.412-21.469 62.219-0.24654 2.9442 0 21.781 0 21.781h38.969c3.324 0 6-2.676 6-6v-72c0-3.324-2.676-6-6-6h-17.5z" fill="url(#n)"/><path d="m70.11 13.295c-11.721 23.393-24.204 49.119-24.999 54.926-0.403 2.945 0 21.779 0 21.779h2.3277s-0.40307-18.834 0-21.779c0.79501-5.807 13.278-31.533 24.999-54.927h-2.328z" fill="#fff" opacity=".15"/><path d="m29.514 6c0.71271 2.3257 1.5278 4.6031 2.4025 6.8294 6.6678 17.101 15.384 41.225 18.153 51.365-3.891-20.081-9.476-38.724-16.07-58.194h-4.4862z" fill="url(#m)" fill-rule="evenodd" opacity=".4"/><path d="m88.078 7v81.469c-0.30671 0.27458-0.64098 0.51153-1 0.71875v-82.188h1zm-4-1v84h-1v-84h1zm-4 0v4.25c-0.34416-0.58143-0.68333-1.1157-1-1.5625v-2.6875h1zm0 7.5v10.312c-0.33274-0.33903-0.66636-0.6943-1-1.0625v-8.125l1-1.125zm-4 4.5625v1.375c-0.21761-0.21948-0.43906-0.42555-0.65625-0.625l0.65625-0.75zm4 9.9688v61.969h-1v-60.812c0.36037-0.39971 0.67608-0.78918 1-1.1562zm-4 4.375v57.594h-1v-56.5c0.3567-0.38185 0.65894-0.72663 1-1.0938zm-4 4.3125v53.281h-1v-52.219c0.33344-0.35417 0.67332-0.71534 1-1.0625zm-4 4.25v49.031h-1v-47.969c0.3305-0.35287 0.67211-0.71319 1-1.0625zm-4 4.3125v44.719h-1v-43.656c0.33155-0.35934 0.66783-0.70416 1-1.0625zm-4 4.3438v40.375h-1v-39.281c0.3265-0.36325 0.66952-0.7289 1-1.0938zm-4 4.4375v35.938h-1v-34.75c0.33802-0.39307 0.65248-0.78889 1-1.1875zm-4 4.7812v31.156h-1v-29.938c0.31556-0.39849 0.66656-0.80856 1-1.2188z" fill="#fff" opacity=".1"/><g fill-rule="evenodd"><g transform="matrix(-1,0,0,1,56.078,0)" clip-path="url(#h)"><path d="m-20.594 5.0312c-4.65e-4 4.93e-5 -0.12454 0.031173-0.125 0.03125-4.61e-4 7.68e-5 -0.12454 0.031146-0.125 0.03125-4.56e-4 1.04e-4 -0.0933-1.308e-4 -0.09375 0-4.49e-4 1.308e-4 -0.12456 0.062343-0.125 0.0625-4.4e-4 1.572e-4 -0.09332 0.031067-0.09375 0.03125-4.3e-4 1.831e-4 -0.09333 0.062292-0.09375 0.0625-4.19e-4 2.082e-4 -0.1246 0.031017-0.125 0.03125-3.12e-4 1.79e-4 -0.03557 0.045957-0.0625 0.0625-0.0081 0.00496-0.03116-5.91e-5 -0.03125 0v0.03125c-1.5172 0.96486-3.3268 2.9037-5.375 7h0.03125c-2.67e-4 5.17e-4 -0.06227 0.12446-0.0625 0.125-2.28e-4 5.35e-4 -0.06231 0.12445-0.0625 0.125-1.88e-4 5.51e-4 -0.0311 0.15569-0.03125 0.15625-1.47e-4 5.63e-4 -0.03115 0.12443-0.03125 0.125-1.05e-4 5.72e-4 -0.03119 0.15567-0.03125 0.15625-6.3e-5 5.79e-4 2e-5 0.12442 0 0.125-2e-5 5.82e-4 -2.3e-5 0.15567 0 0.15625 2.3e-5 5.82e-4 -6.6e-5 0.15567 0 0.15625 6.6e-5 5.78e-4 0.03114 0.12443 0.03125 0.125 1.09e-4 5.72e-4 0.0311 0.15569 0.03125 0.15625 1.5e-4 5.62e-4 0.03106 0.12445 0.03125 0.125 1.92e-4 5.5e-4 0.06227 0.12447 0.0625 0.125 2.32e-4 5.34e-4 0.06223 0.15574 0.0625 0.15625 2.7e-4 5.15e-4 0.06219 0.12451 0.0625 0.125 3.08e-4 4.94e-4 0.09341 0.09328 0.09375 0.09375 3.43e-4 4.7e-4 0.06212 0.12456 0.0625 0.125a0.96458 0.96458 0 0 0 0.03125 0l4.5625 5.25c-1.9658 2.0448-3.8382 4.3143-5.125 5.1562-0.0046 3e-3 -0.02669-3e-3 -0.03125 0-0.02565 0.01662-0.06226 0.03108-0.0625 0.03125-3.47e-4 2.38e-4 -0.09342 0.06224-0.09375 0.0625-3.34e-4 2.56e-4 -0.06218 0.09348-0.0625 0.09375-3.19e-4 2.74e-4 -0.09345 0.06221-0.09375 0.0625-3.04e-4 2.9e-4 -0.06221 0.06219-0.0625 0.0625-2.88e-4 3.06e-4 -0.06223 0.09343-0.0625 0.09375-2.72e-4 3.21e-4 -0.06225 0.06217-0.0625 0.0625-2.54e-4 3.35e-4 -0.06226 0.0934-0.0625 0.09375-2.36e-4 3.48e-4 -0.06228 0.09339-0.0625 0.09375-2.17e-4 3.6e-4 -0.0623 0.09338-0.0625 0.09375-1.98e-4 3.71e-4 -0.03107 0.09337-0.03125 0.09375-1.77e-4 3.81e-4 -0.03109 0.09336-0.03125 0.09375-1.57e-4 3.9e-4 -0.06236 0.09335-0.0625 0.09375-1.36e-4 3.98e-4 -0.03114 0.09334-0.03125 0.09375-1.14e-4 4.05e-4 9.3e-5 0.09334 0 0.09375s-0.03118 0.12458-0.03125 0.125c-7.1e-5 4.15e-4 -0.0312 0.09333-0.03125 0.09375-4.8e-5 4.18e-4 2.6e-5 0.09333 0 0.09375s4e-6 0.09333 0 0.09375c-4e-6 4.21e-4 -1.9e-5 0.12458 0 0.125s-4.1e-5 0.09333 0 0.09375c4.1e-5 4.19e-4 0.03119 0.09333 0.03125 0.09375 6.4e-5 4.16e-4 -8.6e-5 0.12459 0 0.125 8.6e-5 4.12e-4 0.03114 0.09334 0.03125 0.09375 1.07e-4 4.07e-4 0.03112 0.09335 0.03125 0.09375 1.29e-4 4e-4 0.0311 0.09336 0.03125 0.09375 1.5e-4 3.93e-4 0.03108 0.09337 0.03125 0.09375 1.71e-4 3.84e-4 0.06231 0.09338 0.0625 0.09375 1.91e-4 3.75e-4 0.03104 0.09339 0.03125 0.09375 2.11e-4 3.64e-4 0.06227 0.0934 0.0625 0.09375 2.3e-4 3.52e-4 0.06225 0.09341 0.0625 0.09375 1.91e-4 2.61e-4 0.04509 0.04002 0.0625 0.0625 0.0062 0.0077 0.02505 0.02348 0.03125 0.03125 3.5488 4.447 12.245 13.255 20.375 22.125 4.0721 4.4428 8.0004 8.8771 10.969 12.656 1.4793 1.8834 2.6949 3.6287 3.5938 5.0938s1.4699 2.7115 1.5938 3.2812c1.62e-4 6.59e-4 0.06228 0.18686 0.0625 0.1875 2.18e-4 6.43e-4 0.03098 0.15563 0.03125 0.15625 2.73e-4 6.22e-4 0.09343 0.1244 0.09375 0.125 3.25e-4 5.96e-4 0.09338 0.15568 0.09375 0.15625 3.75e-4 5.66e-4 0.09333 0.12447 0.09375 0.125 4.22e-4 5.31e-4 0.09328 0.12451 0.09375 0.125 4.67e-4 4.93e-4 0.12449 0.12455 0.125 0.125 5.07e-4 4.51e-4 0.12446 0.12459 0.125 0.125 5.44e-4 4.06e-4 0.15567 0.09339 0.15625 0.09375 5.77e-4 3.58e-4 0.12439 0.06219 0.125 0.0625 6.06e-4 3.07e-4 0.15562 0.06225 0.15625 0.0625 6.3e-4 2.53e-4 0.1556 0.0623 0.15625 0.0625 6.49e-4 1.98e-4 0.18684 0.06236 0.1875 0.0625 6.64e-4 1.42e-4 0.15558-8.4e-5 0.15625 0 6.74e-4 8.4e-5 0.15557 0.03122 0.15625 0.03125 6.78e-4 2.6e-5 0.18682 3.3e-5 0.1875 0 6.78e-4 -3.3e-5 0.15558-0.03116 0.15625-0.03125 6.73e-4 -9.1e-5 0.15559-0.0311 0.15625-0.03125 6.62e-4 -1.49e-4 0.18685-0.03105 0.1875-0.03125 6.47e-4 -2.05e-4 0.15562-0.06224 0.15625-0.0625 6.27e-4 -2.6e-4 0.15565-0.06219 0.15625-0.0625 6.02e-4 -3.13e-4 0.12443-0.09339 0.125-0.09375 5.73e-4 -3.64e-4 0.15571-0.09334 0.15625-0.09375 5.4e-4 -4.12e-4 0.1245-0.09329 0.125-0.09375 5.02e-4 -4.57e-4 0.12454-0.1245 0.125-0.125 4.61e-4 -4.98e-4 0.09333-0.12446 0.09375-0.125 4.17e-4 -5.36e-4 0.09338-0.15568 0.09375-0.15625 3.69e-4 -5.7e-4 0.09343-0.1244 0.09375-0.125 3.19e-4 -5.99e-4 0.06223-0.15562 0.0625-0.15625 2.66e-4 -6.25e-4 0.06229-0.1556 0.0625-0.15625 2.11e-4 -6.45e-4 0.06235-0.15559 0.0625-0.15625 1.55e-4 -6.61e-4 0.03115-0.18683 0.03125-0.1875l0.09375-0.75c1.33e-4 -4.95e-4 0.01951-0.07074 0.03125-0.125 0.0056-0.02605-4e-5 -0.06226 0-0.0625 1.25e-4 -7.49e-4 0.0312-0.18674 0.03125-0.1875 9e-6 -1.91e-4 -5.8e-5 -0.0563 0-0.0625-1.2e-4 -0.01557 1.55e-4 -0.01782 0-0.03125-3.1e-4 -0.02686-5.02e-4 -0.09156 0-0.125-4.3e-5 0.0028 0.02186-0.17668 0-0.4375-0.151-1.794-0.986-4.518-2.188-8.407-1.204-3.897-2.818-8.775-4.688-14.125-3.717-10.639-8.354-23.08-12.281-33.156a0.96458 0.96458 0 0 0-0.0625-0.1875 0.96458 0.96458 0 0 0 0-0.03125c-0.855-2.1794-1.65-4.3975-2.343-6.6562-3e-5 -1.047e-4 0.0024-0.023923 0-0.03125-0.011-0.0353-0.062-0.1246-0.063-0.1251 0-6e-4 -0.062-0.1557-0.062-0.1563 0-5e-4 -0.062-0.1244-0.062-0.125-1e-3 -5e-4 -0.094-0.1244-0.094-0.125-1e-3 -5e-4 -0.094-0.1245-0.094-0.125 0-4e-4 -0.093-0.1245-0.094-0.125 0-4e-4 -0.124-0.1245-0.125-0.125 0-4e-4 -0.093-0.0933-0.093-0.0937-1e-3 -4e-4 -0.125-0.0934-0.126-0.0937 0-4e-4 -0.155-0.0623-0.156-0.0626 0-2e-4 -0.124-0.0934-0.125-0.0937 0-3e-4 -0.155-0.031-0.156-0.0313-1e-3 -2e-4 -0.156-0.0623-0.156-0.0624-1e-3 -2e-4 -0.156-0.0312-0.157-0.0313 0-1e-4 -0.155-0.0312-0.156-0.0313-6.28e-4 -5.89e-5 -0.15562 8.4e-6 -0.15625 0h-9.875c-1.49e-4 -7.1e-6 -0.01939 4.3e-6 -0.03125 0-0.04745-1.7e-5 -0.1244-2.84e-5 -0.125 0a0.96458 0.96458 0 0 0-0.0625 0zm31.594 64.625s0.25859-9.32e-4 0.375 0l-0.375 0.032c7.88e-4 0.01171 0-0.03125 0-0.03125z" opacity=".1"/><path d="m-20.406 6a0.98812 0.98812 0 0 0-0.532 0.1562c-1.3058 0.82125-3.0159 2.6256-5.0312 6.6562a0.98812 0.98812 0 0 0 0.125 1.0938l5.1562 5.9062c-2.1379 2.1365-4.2162 4.8211-5.9375 5.9375a0.98812 0.98812 0 0 0-0.25 1.4688c3.4401 4.318 12.214 13.19 20.375 22.094 4.0805 4.4519 8.0042 8.9047 11 12.719 2.9958 3.8141 5.0223 7.1275 5.375 8.75a0.98812 0.98812 0 0 0 1.9375-0.09375l0.125-0.875a0.98812 0.98812 0 0 0 0.03125-0.1875c0.0014 0.02759-0.0014-0.06123 0-0.15625s0.01664-0.14513 0-0.34375c-0.131-1.5644-0.92576-4.3386-2.125-8.2188-1.198-3.881-2.82-8.753-4.687-14.095-3.733-10.683-8.407-23.217-12.344-33.312a0.98812 0.98812 0 0 0 0-0.03125c-0.86705-2.2069-1.6711-4.4532-2.375-6.75a0.98812 0.98812 0 0 0-0.937-0.719h-9.9062z" opacity=".15"/><path d="m-20.406 7c-1.082 0.68047-2.7214 2.3177-4.6875 6.25l5.75 6.5625c-2.2458 2.0623-4.5274 5.3398-6.75 6.7812 6.6811 8.3861 35.159 35.787 36.938 43.969l0.125-0.875c-0.0054-0.10632 6e-3 -0.39715 0-0.46875-0.438-5.228-11.2-35.209-19.063-55.374-0.874-2.227-1.693-4.5183-2.406-6.844h-9.9062z" opacity=".3"/></g><path d="m66.486 6c-0.71271 2.3257-1.5278 4.6031-2.4025 6.8294-7.8625 20.165-18.604 50.163-19.042 55.392-6e-3 0.0716-0.0168 0.36084-0.0222 0.46716l0.13344 0.86758c1.7787-8.1819 30.247-35.572 36.928-43.958-2.2226-1.4415-4.4947-4.7226-6.7405-6.785l5.7617-6.5625c-1.967-3.9312-3.613-5.5695-4.695-6.25h-9.9216z" fill="url(#u)"/><path d="m66.486 6c-0.71271 2.3257-1.5278 4.6031-2.4025 6.8294-7.8625 20.165-18.604 50.163-19.042 55.392-6e-3 0.0716-0.0168 0.36084-0.0222 0.46716l0.13344 0.86758c0.26463-1.2173 0.99696-2.6029 2.0689-4.1155 2.617-6.9159 11.512-35.237 18.286-52.611 0.87469-2.2263 1.6898-4.5038 2.4025-6.8294h-1.4237z" fill="url(#v)" opacity=".2"/></g><g stroke-linecap="square" stroke-linejoin="round"><path d="m49.085 69.017a2.4915 2.4915 0 0 1 3.523 3.523 2.4915 2.4915 0 1 1-3.523-3.523z" fill="#3d3d3d" stroke="url(#j)"/><path d="m52.232 72.163a1.9579 1.9579 0 0 1-2.769-2.769 1.9579 1.9579 0 1 1 2.769 2.769z" fill="none" stroke="url(#i)" stroke-width=".75001"/><path d="m49.085 80.407a2.4915 2.4915 0 0 1 3.523 3.523 2.4915 2.4915 0 1 1-3.523-3.523z" fill="#3d3d3d" stroke="url(#l)"/><path d="m52.232 83.553a1.9579 1.9579 0 0 1-2.769-2.769 1.9579 1.9579 0 1 1 2.769 2.769z" fill="none" stroke="url(#k)" stroke-width=".75001"/></g><g fill-rule="evenodd"><path d="m30.279 9.3009c-1.362 1.3381-7.355 6.5361-13.073 12.963 8.231-7.598 12.518-10.106 13.97-10.833-0.354-0.909-0.566-1.205-0.897-2.1301z" opacity=".3"/><path d="m65.268 9.0494c1.3615 1.3383 7.3543 6.5357 13.073 12.963-8.2312-7.598-12.518-10.107-13.97-10.834 0.35433-0.90857 0.56642-1.2043 0.89753-2.1296z" opacity=".3"/><path d="m65.406 69.547c0.17787-1.0672 0-8.3598 0-8.3598l24.546-3.2016-22.907 4.8024-1.6388 6.759z" fill="#464342"/><path d="m65.594 69.421c0.17787-1.0672 1.0062-6.7247 1.0062-6.7247l19.766-3.6842-18.631 4.782-2.1419 5.627z" fill="#fff" opacity=".15"/><path d="m66.476 6c-0.71271 2.3257-1.5278 4.6031-2.4025 6.8294-6.6678 17.101-15.384 41.225-18.153 51.365 3.8903-20.081 9.4747-38.725 16.069-58.195h4.4862z" fill="url(#e)" opacity=".4"/></g><path d="m68.031 6-9.1875 20.594c-1.671 4.482-3.328 8.991-4.906 13.406l15.156-34h-1.063zm4.344 0-27.094 60.906c-0.0039 0.01892-0.02743 0.04381-0.03125 0.0625-0.10465 0.51188-0.19138 0.92318-0.21875 1.25-6e-3 0.0716 0.0054 0.36242 0 0.46875l0.125 0.875c0.20083-0.92382 0.75094-2.1102 1.5625-3.4688l26.751-60.093h-1.094zm4.3125 0.1875-22.031 49.469c0.72989-0.85313 1.4762-1.7153 2.25-2.5938l20.562-46.187c-0.289-0.2789-0.538-0.5128-0.781-0.6875zm2.875 3.3438-4.0312 9.0625 2.25-2.5625 2.4375-5.4375c-0.222-0.386-0.447-0.7332-0.658-1.0628zm-4.157 9.3437-12.062 27.094c0.69906-0.75635 1.3951-1.5006 2.0938-2.25l10.75-24.094c-0.26017-0.26804-0.52165-0.50903-0.78125-0.75zm2.969 3.187-6.657 14.938c0.66718-0.70885 1.3968-1.4802 2.0312-2.1562 0.0111-0.01187 0.0201-0.01939 0.0312-0.03125l5.313-11.938c-0.241-0.2645-0.47747-0.54064-0.71875-0.8125zm3.0312 3.0312-1.25 2.75c0.74078-0.84293 1.4283-1.6109 1.9375-2.25-0.22491-0.14587-0.46165-0.31962-0.6875-0.5z" fill="#fff" opacity=".1"/><rect x="15" y="15" width="66" height="66" rx="12" ry="12" clip-path="url(#x)" fill="url(#r)" filter="url(#w)" opacity=".1" stroke="#fff" stroke-linecap="round" stroke-width=".5"/><path d="m12 6c-3.324 0-6 2.676-6 6v72c0 0.33472 0.04135 0.6507 0.09375 0.96875 0.0487 0.2956 0.09704 0.59692 0.1875 0.875 0.00988 0.03038 0.020892 0.0636 0.03125 0.09375 0.098865 0.28777 0.23488 0.54745 0.375 0.8125 0.14459 0.27351 0.31562 0.53562 0.5 0.78125 0.18438 0.24564 0.37378 0.47347 0.59375 0.6875 0.43995 0.42806 0.94291 0.81453 1.5 1.0938 0.27854 0.13961 0.57347 0.24695 0.875 0.34375-0.2562-0.10022-0.48671-0.23627-0.71875-0.375-0.00741-0.0044-0.023866 0.0045-0.03125 0-0.0319-0.019-0.0622-0.042-0.0937-0.062-0.1204-0.077-0.231-0.164-0.3437-0.25-0.1062-0.081-0.2133-0.161-0.3126-0.25-0.1778-0.162-0.3473-0.346-0.4999-0.531-0.1075-0.131-0.2183-0.266-0.3124-0.407-0.0251-0.038-0.0385-0.086-0.0626-0.125-0.0647-0.103-0.1302-0.204-0.1874-0.312-0.1011-0.195-0.2057-0.416-0.2813-0.625-8e-3 -0.022-0.0236-0.041-0.0313-0.063-0.0318-0.092-0.0358-0.187-0.0624-0.281-0.0304-0.107-0.0704-0.203-0.0938-0.313-0.0729-0.341-0.125-0.698-0.125-1.062v-72c0-2.782 2.2182-5 5-5h72c2.7818 0 5 2.2182 5 5v72c0 0.3643-0.05212 0.72099-0.125 1.0625-0.04415 0.20689-0.08838 0.39766-0.15625 0.59375-0.0077 0.02195-0.0233 0.04069-0.03125 0.0625-0.06274 0.17374-0.13838 0.36745-0.21875 0.53125-0.04158 0.0828-0.07904 0.16995-0.125 0.25-0.0546 0.09721-0.12677 0.18835-0.1875 0.28125-0.09411 0.14096-0.20492 0.276-0.3125 0.40625-0.14317 0.17445-0.30314 0.347-0.46875 0.5-0.01117 0.0102-0.01998 0.02115-0.03125 0.03125-0.13839 0.12556-0.28509 0.23444-0.4375 0.34375-0.10257 0.07315-0.20432 0.15336-0.3125 0.21875-0.0074 0.0045-0.02384-0.0044-0.03125 0-0.23204 0.13873-0.46255 0.27478-0.71875 0.375 0.30153-0.0968 0.59646-0.20414 0.875-0.34375 0.55709-0.27922 1.0601-0.66569 1.5-1.0938 0.21997-0.21403 0.40937-0.44186 0.59375-0.6875s0.35541-0.50774 0.5-0.78125c0.14012-0.26505 0.27614-0.52473 0.375-0.8125 0.01041-0.03078 0.02133-0.06274 0.03125-0.09375 0.09046-0.27808 0.1388-0.5794 0.1875-0.875 0.053-0.318 0.094-0.634 0.094-0.969v-72c0-3.324-2.676-6-6-6h-72z" fill="url(#q)" opacity=".3"/><path d="m12 90c-3.324 0-6-2.676-6-6v-72c0-0.33472 0.04135-0.6507 0.09375-0.96875 0.0487-0.2956 0.09704-0.59692 0.1875-0.875 0.0099-0.03 0.0209-0.063 0.0313-0.094 0.0989-0.2873 0.2349-0.547 0.375-0.812 0.1446-0.2735 0.3156-0.5356 0.5-0.7812 0.1844-0.2457 0.3738-0.4735 0.5937-0.6876 0.44-0.428 0.943-0.8145 1.5-1.0937 0.2786-0.1396 0.5735-0.2469 0.8748-0.3437-0.256 0.1002-0.4865 0.2362-0.7185 0.375-0.00741 0.0044-0.023866-0.0045-0.03125 0-0.031933 0.0193-0.062293 0.04251-0.09375 0.0625-0.1204 0.0767-0.23102 0.16351-0.34375 0.25-0.10617 0.0808-0.21328 0.16111-0.3125 0.25-0.1779 0.1614-0.3474 0.3453-0.5 0.5312-0.1075 0.1303-0.2183 0.2653-0.3124 0.4063-0.0251 0.0383-0.0385 0.0858-0.0626 0.125-0.0647 0.103-0.1302 0.2045-0.1874 0.3124-0.1011 0.1948-0.2057 0.4158-0.2813 0.625-8e-3 0.0219-0.0236 0.0406-0.0313 0.0626-0.0318 0.0919-0.0358 0.1868-0.0624 0.2812-0.0304 0.1066-0.0704 0.203-0.0938 0.3125-0.0729 0.3415-0.125 0.6985-0.125 1.0625v72c0 2.7818 2.2182 5 5 5h72c2.7818 0 5-2.2182 5-5v-72c0-0.364-0.052-0.721-0.125-1.0625-0.044-0.2069-0.088-0.3977-0.156-0.5937-8e-3 -0.022-0.024-0.0407-0.031-0.0626-0.063-0.1737-0.139-0.3674-0.219-0.5312-0.042-0.0828-0.079-0.17-0.125-0.25-0.055-0.0972-0.127-0.1884-0.188-0.2812-0.094-0.141-0.205-0.276-0.312-0.4063-0.143-0.1745-0.303-0.347-0.469-0.5-0.011-0.0102-0.02-0.0211-0.031-0.0313-0.139-0.1255-0.285-0.2344-0.438-0.3437-0.102-0.0731-0.204-0.1534-0.312-0.2187-0.0074-0.0045-0.02384 0.0044-0.03125 0-0.23204-0.13873-0.46255-0.27478-0.71875-0.375 0.30153 0.0968 0.59646 0.20414 0.875 0.34375 0.55709 0.27922 1.0601 0.66569 1.5 1.0938 0.21997 0.21403 0.40937 0.44186 0.59375 0.6875s0.35541 0.50774 0.5 0.78125c0.14012 0.26505 0.27614 0.52473 0.375 0.8125 0.01041 0.03078 0.02133 0.06274 0.03125 0.09375 0.09046 0.27808 0.1388 0.5794 0.1875 0.875 0.053 0.318 0.094 0.634 0.094 0.969v72c0 3.324-2.676 6-6 6h-72z" fill="url(#t)" opacity=".2"/></svg>
