<?xml version="1.0" encoding="UTF-8"?>
<svg version="1.1" viewBox="0 0 96 96" xmlns="http://www.w3.org/2000/svg" xmlns:xlink="http://www.w3.org/1999/xlink"><defs><clipPath id="j"><rect x="6" y="6" width="84" height="84" rx="6" ry="6" fill="#fff"/></clipPath><filter id="k" x="-.192" y="-.192" width="1.384" height="1.384" color-interpolation-filters="sRGB"><feGaussianBlur stdDeviation="5.28"/></filter><linearGradient id="l" x1="48" x2="48" y1="20.221" y2="138.66" stop-color="#fff" gradientUnits="userSpaceOnUse"><stop offset="0"/><stop stop-opacity="0" offset="1"/></linearGradient><linearGradient id="a" x1="45.448" x2="45.448" y1="92.54" y2="7.0165" gradientTransform="matrix(1.0059 0 0 .99417 100 0)" gradientUnits="userSpaceOnUse"><stop offset="0"/><stop stop-opacity=".58824" offset="1"/></linearGradient><radialGradient id="b" cx="48" cy="90.172" r="42" stop-color="#fff" gradientTransform="matrix(1.1573 0 0 .99591 -7.551 .19713)" gradientUnits="userSpaceOnUse"><stop offset="0"/><stop stop-opacity="0" offset="1"/></radialGradient><linearGradient id="i" x1="124.39" x2="124.39" y1="6" y2="63.607" stop-color="#fff" gradientTransform="translate(-100)" gradientUnits="userSpaceOnUse"><stop offset="0"/><stop stop-opacity="0" offset="1"/></linearGradient><linearGradient id="f" x1="48" x2="48" y1="90" y2="5.9877" gradientUnits="userSpaceOnUse"><stop stop-color="#1d5282" offset="0"/><stop stop-color="#568ec2" offset="1"/></linearGradient><linearGradient id="e" x1="32.251" x2="32.251" y1="90" y2="6" gradientTransform="translate(0,1)" gradientUnits="userSpaceOnUse" xlink:href="#a"/><linearGradient id="d" x1="32.251" x2="32.251" y1="90" y2="5.9996" gradientTransform="matrix(1.0238 0 0 1.0119 -1.1429 .929)" gradientUnits="userSpaceOnUse" xlink:href="#a"/><linearGradient id="c" x1="32.251" x2="32.251" y1="6.1317" y2="90.239" gradientTransform="matrix(1.0238,0,0,-1.0119,-1.1429,98.071)" gradientUnits="userSpaceOnUse" xlink:href="#a"/></defs><g fill="url(#c)"><path d="m12 95.031c-5.5111 0-10.031-4.52-10.031-10.031v-71c0-5.5111 4.5202-10.031 10.031-10.031h72c5.5111 0 10.031 4.5202 10.031 10.031v71c0 5.5111-4.5202 10.031-10.031 10.031h-72z" opacity=".08"/><path d="m12 94.031c-4.9716 0-9.0312-4.0596-9.0312-9.0312v-71c0-4.9718 4.0596-9.0314 9.0312-9.0314h72c4.9716 0 9.0312 4.0596 9.0312 9.0312v71c0 4.9716-4.0596 9.0312-9.0312 9.0312h-72z" opacity=".1"/><path d="m12 93c-4.4091 0-8-3.591-8-8v-71c0-4.4091 3.5909-8 8-8h72c4.4091 0 8 3.5909 8 8v71c0 4.4091-3.5909 8-8 8h-72z" opacity=".2"/></g><rect x="5" y="7" width="86" height="85" rx="7" ry="7" fill="url(#d)" opacity=".3"/><rect x="6" y="7" width="84" height="84" rx="6" ry="6" fill="url(#e)" opacity=".45"/><rect x="6" y="6" width="84" height="84" rx="6" ry="6" fill="url(#f)"/><path d="m12 6c-3.324 0-6 2.676-6 6v72c0 3.324 2.676 6 6 6h72c3.324 0 6-2.676 6-6v-72c0-3.324-2.676-6-6-6h-72zm4 6h64c2.216 0 4 1.784 4 4v64c0 2.216-1.784 4-4 4h-64c-2.216 0-4-1.784-4-4v-64c0-2.216 1.784-4 4-4z" fill="#fff" opacity=".7"/><path d="m12 6c-3.324 0-6 2.676-6 6v72c0 2.6778 1.744 4.8818 4.1562 5.6562-1.8603-0.728-3.156-2.526-3.156-4.656v-72c0-2.782 2.2182-5 5-5h72c2.7818 0 5 2.2182 5 5v72c0 2.1299-1.2957 3.9284-3.1562 4.6562 2.412-0.774 4.156-2.978 4.156-5.656v-72c0-3.324-2.676-6-6-6h-72z" fill="url(#i)" opacity=".5"/><path d="m12 90c-3.324 0-6-2.676-6-6v-72c0-0.33472 0.04135-0.6507 0.09375-0.96875 0.0487-0.2956 0.09704-0.59692 0.1875-0.875 0.0099-0.03 0.0209-0.063 0.0313-0.094 0.0989-0.2873 0.2349-0.547 0.375-0.812 0.1446-0.2735 0.3156-0.5356 0.5-0.7812 0.1844-0.2457 0.3738-0.4735 0.5937-0.6876 0.44-0.428 0.943-0.8145 1.5-1.0937 0.2786-0.1396 0.5735-0.2469 0.8748-0.3437-0.256 0.1002-0.4865 0.2362-0.7185 0.375-0.00741 0.0044-0.023866-0.0045-0.03125 0-0.031933 0.0193-0.062293 0.04251-0.09375 0.0625-0.1204 0.0767-0.23102 0.16351-0.34375 0.25-0.10617 0.0808-0.21328 0.16111-0.3125 0.25-0.1779 0.1614-0.3474 0.3453-0.5 0.5312-0.1075 0.1303-0.2183 0.2653-0.3124 0.4063-0.0251 0.0383-0.0385 0.0858-0.0626 0.125-0.0647 0.103-0.1302 0.2045-0.1874 0.3124-0.1011 0.1948-0.2057 0.4158-0.2813 0.625-8e-3 0.0219-0.0236 0.0406-0.0313 0.0626-0.0318 0.0919-0.0358 0.1868-0.0624 0.2812-0.0304 0.1066-0.0704 0.203-0.0938 0.3125-0.0729 0.3415-0.125 0.6985-0.125 1.0625v72c0 2.7818 2.2182 5 5 5h72c2.7818 0 5-2.2182 5-5v-72c0-0.364-0.052-0.721-0.125-1.0625-0.044-0.2069-0.088-0.3977-0.156-0.5937-8e-3 -0.022-0.024-0.0407-0.031-0.0626-0.063-0.1737-0.139-0.3674-0.219-0.5312-0.042-0.0828-0.079-0.17-0.125-0.25-0.055-0.0972-0.127-0.1884-0.188-0.2812-0.094-0.141-0.205-0.276-0.312-0.4063-0.143-0.1745-0.303-0.347-0.469-0.5-0.011-0.0102-0.02-0.0211-0.031-0.0313-0.139-0.1255-0.285-0.2344-0.438-0.3437-0.102-0.0731-0.204-0.1534-0.312-0.2187-0.0074-0.0045-0.02384 0.0044-0.03125 0-0.23204-0.13873-0.46255-0.27478-0.71875-0.375 0.30153 0.0968 0.59646 0.20414 0.875 0.34375 0.55709 0.27922 1.0601 0.66569 1.5 1.0938 0.21997 0.21403 0.40937 0.44186 0.59375 0.6875s0.35541 0.50774 0.5 0.78125c0.14012 0.26505 0.27614 0.52473 0.375 0.8125 0.01041 0.03078 0.02133 0.06274 0.03125 0.09375 0.09046 0.27808 0.1388 0.5794 0.1875 0.875 0.053 0.318 0.094 0.634 0.094 0.969v72c0 3.324-2.676 6-6 6h-72z" fill="url(#b)" opacity=".4"/><g fill="#1a3854"><path d="m16 12c-2.216 0-4 1.784-4 4v64c0 2.216 1.784 4 4 4h64c2.216 0 4-1.784 4-4v-64c0-2.216-1.784-4-4-4h-64zm0 3.0312h64c0.58788 0 0.96875 0.38086 0.96875 0.96875v64c0 0.58788-0.38086 0.96875-0.96875 0.96875h-64c-0.58788 0-0.96875-0.38086-0.96875-0.96875v-64c0-0.58788 0.38086-0.96875 0.96875-0.96875z" opacity=".05"/><path d="m16 12c-2.216 0-4 1.784-4 4v64c0 2.216 1.784 4 4 4h64c2.216 0 4-1.784 4-4v-64c0-2.216-1.784-4-4-4h-64zm0 1.9375h64c1.1723 0 2.0625 0.89016 2.0625 2.0625v64c0 1.1723-0.89016 2.0625-2.0625 2.0625h-64c-1.1723 0-2.0625-0.89016-2.0625-2.0625v-64c0-1.1723 0.89016-2.0625 2.0625-2.0625z" opacity=".1"/><path d="m16 12c-2.216 0-4 1.784-4 4v64c0 2.216 1.784 4 4 4h64c2.216 0 4-1.784 4-4v-64c0-2.216-1.784-4-4-4h-64zm0 1.0312h64c1.6649 0 2.9688 1.3038 2.9688 2.9688v64c0 1.6649-1.3038 2.9688-2.9688 2.9688h-64c-1.665 0-2.969-1.304-2.969-2.969v-64c0-1.6649 1.3038-2.9688 2.9688-2.9688z" opacity=".22"/></g><rect x="15" y="15" width="66" height="66" rx="12" ry="12" clip-path="url(#j)" fill="url(#l)" filter="url(#k)" opacity=".1" stroke="#fff" stroke-linecap="round" stroke-width=".5"/><path d="m48.281 19.125c-4.4965 0-8.125 3.7536-8.125 8.2812s3.6285 8.2812 8.125 8.2812c4.4956 0 8.1562-3.7439 8.1562-8.2812s-3.6606-8.2812-8.1562-8.2812zm-22.593 13.094c-0.55883-9e-3 -1.1736 0.10671-1.7812 0.40625-1.3141 0.64773-2.0455 2.0088-2.0625 3.375-0.01672 1.4664 0.88874 2.6515 2.0312 3.25a0.89295 0.89295 0 0 0 0 0.03125c0.0023 0.0011 0.15388 0.06155 0.15625 0.0625 0.0019 7.67e-4 0.08679 0.01789 0.125 0.03125 0.0091 0.0032 0.03078-1.43e-4 0.03125 0l15.375 4.9688-0.09375 10.781-5.8125 18.344a0.89295 0.89295 0 0 0-0.03125 0.375 0.89295 0.89295 0 0 0 0 0.0625c-0.53427 1.5078-0.18046 3.2684 1.25 4.2188 1.6601 1.1031 4.0431 0.78871 5.2188-0.96875a0.89295 0.89295 0 0 0 0.031-0.031c0.0011-0.0018 0.06155-0.1231 0.0625-0.125 7.25e-4 -0.0015 0.01608-0.06044 0.03125-0.09375 0.0047-0.01025-1.91e-4 -0.03079 0-0.03125l7.781-16.437 7.625 16.406a0.89295 0.89295 0 0 0 0.03125 0.0625c8.65e-4 0.0015 0.06155 0.09233 0.0625 0.09375 0.01921 0.0335 0.0424 0.0611 0.0625 0.09375 1.0475 1.7014 3.2949 2.2701 5.0312 1.2812 1.5118-0.86102 2.0174-2.6444 1.5625-4.2188a0.89295 0.89295 0 0 0 0-0.0625c-3e-3 -0.0097 0.0031-0.02155 0-0.03125a0.89295 0.89295 0 0 0-0.031-0.343l-5.6875-18.344v-0.063l-0.031-10.657 15.437-5.344c2e-3 -6.71e-4 0.12304-0.03044 0.125-0.03125 2e-3 -8.13e-4 0.1231-0.06155 0.125-0.0625 0.0019-9.51e-4 0.12317-0.06142 0.125-0.0625 0.0018-0.0011 0.092-0.09254 0.09375-0.09375 1.3757-0.96148 1.9856-2.7396 1.375-4.3438-0.59674-1.5679-2.1876-2.4523-3.8125-2.3125v-0.0625c-9.48e-4 -1.5e-5 -0.0303-1.5e-5 -0.03125 0a0.89295 0.89295 0 0 0-0.062 0.031 0.89295 0.89295 0 0 0-0.09375 0c-0.46126 0.07644-0.79791 0.17983-0.84375 0.1875l-21.062 3.532-21-3.688c-0.29525-0.05178-0.76348-0.17871-1.3125-0.1875z" opacity=".08"/><path d="m48.281 20.031c-4.0029 0-7.2188 3.3193-7.2188 7.375s3.2158 7.375 7.2188 7.375c4.0029 0 7.25-3.3136 7.25-7.375s-3.2471-7.375-7.25-7.375zm-22.593 13.094c-0.4327-0.0069-0.89794 0.07734-1.375 0.3125-0.99876 0.49231-1.5493 1.4968-1.5625 2.5625-0.01258 1.1034 0.65002 2.0071 1.5312 2.4688a0.98224 0.98224 0 0 0 0.15625 0.0625l16.031 5.1875-0.09375 11.5-5.875 18.53 0.0625 0.03125c-0.65673 1.2293-0.38879 2.7956 0.8125 3.5938 1.2763 0.84804 3.0742 0.6184 3.9688-0.71875a0.98224 0.98224 0 0 0 0.0625-0.125l8.594-18.219 8.438 18.157a0.98224 0.98224 0 0 0 0.062 0.093c0.77362 1.3493 2.524 1.8006 3.875 1.0312 1.263-0.719 1.652-2.29 1.063-3.593l0.062-0.031-5.75-18.594-0.031-11.344 16.062-5.5625a0.98224 0.98224 0 0 0 0.25-0.125c1.0479-0.73241 1.4954-2.093 1.0312-3.3125-0.461-1.211-1.702-1.924-2.968-1.78a0.98224 0.98224 0 0 0-0.03125 0c-0.39226 0.065-0.65557 0.15599-0.84375 0.1875l-21.219 3.562-21.156-3.719c-0.334-0.058-0.724-0.149-1.156-0.156z" opacity=".15"/><path d="m54.566 27.412c0 3.5397-2.8086 6.4124-6.2691 6.4124s-6.2691-2.8728-6.2691-6.4124c0-3.5397 2.8086-6.4124 6.2691-6.4124s6.2691 2.8728 6.2691 6.4124zm15.647 6.8185c-0.28996 0.04805-0.5367 0.12777-0.82626 0.17625l-21.387 3.5807-21.299-3.735c-0.67525-0.11841-1.3247-0.25856-1.9399 0.0447-0.61521 0.30325-1.0185 1.022-1.027 1.706-0.0078 0.68404 0.41945 1.274 1.027 1.5922l16.689 5.416-0.114 12.433-5.889 18.619c-0.5672 0.84785-0.39432 1.9367 0.45645 2.502 0.85081 0.56533 2.0573 0.3931 2.6246-0.45487l9.5039-20.098 9.3245 20.063c0.5042 0.87942 1.6281 1.1849 2.5105 0.68242 0.88232-0.50251 1.1889-1.6227 0.68467-2.5021l-5.7799-18.7-0.0082-12.254 16.704-5.7729c0.6838-0.47792 0.98087-1.3827 0.68469-2.1608-0.29619-0.77825-1.1102-1.2317-1.9399-1.1374h5.5e-5z" opacity=".4"/><path d="m54.566 26.412c0 3.5397-2.8086 6.4124-6.2691 6.4124s-6.2691-2.8728-6.2691-6.4124c0-3.5397 2.8086-6.4124 6.2691-6.4124s6.2691 2.8728 6.2691 6.4124zm15.647 6.8185c-0.28996 0.04805-0.5367 0.12777-0.82626 0.17625l-21.387 3.5807-21.299-3.735c-0.67525-0.11841-1.3247-0.25856-1.9399 0.0447-0.61521 0.30325-1.0185 1.022-1.027 1.706-0.0078 0.68404 0.41945 1.274 1.027 1.5922l16.689 5.416-0.114 12.433-5.889 18.619c-0.5672 0.84785-0.39432 1.9367 0.45645 2.502 0.85081 0.56533 2.0573 0.3931 2.6246-0.45487l9.5039-20.098 9.3245 20.063c0.5042 0.87942 1.6281 1.1849 2.5105 0.68242 0.88232-0.50251 1.1889-1.6227 0.68467-2.5021l-5.7799-18.7-0.0082-12.254 16.704-5.7729c0.6838-0.47792 0.98087-1.3827 0.68469-2.1608-0.29619-0.77825-1.1102-1.2317-1.9399-1.1374h5.5e-5z" fill="#fff"/></svg>
