<?xml version="1.0" encoding="UTF-8"?>
<svg id="p" version="1.0" viewBox="0 0 96 96" xmlns="http://www.w3.org/2000/svg" xmlns:xlink="http://www.w3.org/1999/xlink"><defs id="q"><linearGradient id="o" x1="45.448" x2="45.448" y1="92.54" y2="7.0165" gradientTransform="scale(1.0059 .99417)" gradientUnits="userSpaceOnUse"><stop id="r" offset="0"/><stop id="s" stop-opacity=".58824" offset="1"/></linearGradient><linearGradient id="b"><stop id="t" stop-color="#fff" offset="0"/><stop id="u" stop-color="#fff" stop-opacity="0" offset="1"/></linearGradient><filter id="l" color-interpolation-filters="sRGB"><feGaussianBlur id="v" stdDeviation="1.71"/></filter><linearGradient id="h" x1="36.357" x2="36.357" y1="6" y2="63.893" gradientUnits="userSpaceOnUse" xlink:href="#b"/><filter id="k" x="-.192" y="-.192" width="1.384" height="1.384" color-interpolation-filters="sRGB"><feGaussianBlur id="w" stdDeviation="5.28"/></filter><linearGradient id="g" x1="48" x2="48" y1="20.221" y2="138.66" gradientUnits="userSpaceOnUse" xlink:href="#b"/><radialGradient id="d" cx="48" cy="90.172" r="42" gradientTransform="matrix(1.1573 0 0 .99591 -7.551 .19713)" gradientUnits="userSpaceOnUse" xlink:href="#b"/><clipPath id="n"><rect id="x" x="6" y="6" width="84" height="84" rx="6" ry="6" fill="#fff" fill-rule="nonzero"/></clipPath><linearGradient id="f" x1="48" x2="48" y1="90" y2="5.9877" gradientUnits="userSpaceOnUse"><stop id="y" stop-color="#6189bb" offset="0"/><stop id="z" stop-color="#b6cce9" offset="1"/></linearGradient><linearGradient id="c" x1="45.448" x2="45.448" y1="92.54" y2="7.0165" gradientTransform="matrix(1.0059 0 0 .99417 100 0)" gradientUnits="userSpaceOnUse"><stop id="aa" offset="0"/><stop id="ab" stop-opacity=".58824" offset="1"/></linearGradient><linearGradient id="a" x1="32.251" x2="32.251" y1="6.1317" y2="90.239" gradientTransform="matrix(1.0238 0 0 1.0119 -1.1429 -98.071)" gradientUnits="userSpaceOnUse" xlink:href="#c"/><linearGradient id="e" x1="32.251" x2="32.251" y1="6.1317" y2="90.239" gradientTransform="translate(0,-97)" gradientUnits="userSpaceOnUse" xlink:href="#c"/><clipPath id="m"><path id="ac" d="m12 6c-3.324 0-6 2.676-6 6v72c0 3.324 2.676 6 6 6h64c3.324 0 6-2.676 6-6v-72c0-3.324-2.676-6-6-6h-64zm41 26c4.7437 0 8.5312 3.5725 8.5312 8-0.01825 0.53641-0.02106 1.1915-0.0625 1.8125 0.70276 0.44193 0.71665 1.9275 0.0625 3.4688-0.23269 0.54826-0.49662 0.96113-0.8125 1.3438-0.09925 0.46292-0.12281 0.83737-0.25 1.375-0.35389 1.0617-1.7896 3.1857-2.8438 4.8125-0.06772 1.0795-0.03947 2.1853 0.09375 3.2812 3.2925 2.8631 11.893 4.3621 11.906 6.8125l0.1875 1.0938h-33.625l0.1875-1.0938c-0.01278-2.8631 8.5728-4.0469 11.906-6.8125 0.23112-1.3475 0.11344-2.5343 0-3.7188-1.1569-1.5423-2.4323-3.4218-2.75-4.375-0.11386-0.52116-0.06413-0.73154-0.15625-1.1875-0.37917-0.4081-0.72694-0.88788-1-1.5312-0.68857-1.6224-0.65495-3.2182 0.15625-3.5625-0.04499-0.57433-0.05178-1.2473-0.0625-1.7188 0-4.4275 3.7876-8 8.5312-8z" fill="#f0f" fill-rule="nonzero"/></clipPath><filter id="j" x="-.23416" y="-.24614" width="1.4683" height="1.4923" color-interpolation-filters="sRGB"><feGaussianBlur id="ad" stdDeviation="3.2818182"/></filter><linearGradient id="i" x1="45.622" x2="45.622" y1="40.778" y2="56" gradientTransform="matrix(2.1023 0 0 2.1023 -47.909 -53.727)" gradientUnits="userSpaceOnUse"><stop id="ae" stop-opacity=".80916" offset="0"/><stop id="af" stop-opacity=".43511" offset="1"/></linearGradient></defs><g id="ag" display="none"><rect id="ah" x="5" y="7" width="86" height="85" rx="6" ry="6" fill="url(#o)" fill-rule="nonzero" filter="url(#l)" opacity=".9"/></g><g id="ai" fill-rule="nonzero"><path id="aj" transform="scale(1,-1)" d="m12-95.031c-5.5111 0-10.031 4.5202-10.031 10.031v71c0 5.5111 4.5202 10.031 10.031 10.031h72c5.5111 0 10.031-4.5202 10.031-10.031v-71c0-5.5111-4.5202-10.031-10.031-10.031h-72z" fill="url(#a)" opacity=".08"/><path id="ak" transform="scale(1,-1)" d="m12-94.031c-4.9716 0-9.0312 4.0596-9.0312 9.0312v71c0 4.9716 4.0596 9.0312 9.0312 9.0312h72c4.9716 0 9.0312-4.0596 9.0312-9.0312v-71c0-4.9716-4.0596-9.0312-9.0312-9.0312h-72z" fill="url(#a)" opacity=".1"/><path id="al" transform="scale(1,-1)" d="m12-93c-4.4091 0-8 3.5909-8 8v71c0 4.4091 3.5909 8 8 8h72c4.4091 0 8-3.5909 8-8v-71c0-4.4091-3.5909-8-8-8h-72z" fill="url(#a)" opacity=".2"/><rect id="am" transform="scale(1,-1)" x="5" y="-92" width="86" height="85" rx="7" ry="7" fill="url(#a)" opacity=".3"/><rect id="an" transform="scale(1,-1)" x="6" y="-91" width="84" height="84" rx="6" ry="6" fill="url(#e)" opacity=".45"/></g><g id="ao" fill-rule="nonzero"><rect id="ap" x="6" y="6" width="84" height="84" rx="6" ry="6" fill="url(#f)"/><path id="aq" d="m12 6c-3.324 0-6 2.676-6 6v2 68 2c0 0.33472 0.04135 0.6507 0.09375 0.96875 0.0487 0.2956 0.09704 0.59692 0.1875 0.875 0.00988 0.03038 0.020892 0.0636 0.03125 0.09375 0.098865 0.28777 0.23488 0.54745 0.375 0.8125 0.14459 0.27351 0.31562 0.53562 0.5 0.78125s0.37378 0.47347 0.59375 0.6875c0.43995 0.42806 0.94291 0.81453 1.5 1.0938 0.27854 0.13961 0.57347 0.24695 0.875 0.34375-0.2562-0.10022-0.48671-0.23627-0.71875-0.375-0.00741-0.0044-0.023866 0.0045-0.03125 0-0.031933-0.0193-0.062293-0.04251-0.09375-0.0625-0.1204-0.0767-0.23102-0.16351-0.34375-0.25-0.10617-0.0808-0.21328-0.16111-0.3125-0.25-0.17793-0.16143-0.34746-0.34539-0.5-0.53125-0.10758-0.13026-0.21839-0.26528-0.3125-0.40625-0.025089-0.03838-0.038446-0.08587-0.0625-0.125-0.064763-0.10303-0.13023-0.20452-0.1875-0.3125-0.10101-0.19471-0.20567-0.4157-0.28125-0.625-0.00796-0.02181-0.023589-0.04055-0.03125-0.0625-0.031825-0.09195-0.035804-0.18683-0.0625-0.28125-0.030332-0.10662-0.070389-0.20303-0.09375-0.3125-0.072879-0.34151-0.125-0.6982-0.125-1.0625v-2-68-2c0-2.7818 2.2182-5 5-5h2 68 2c2.7818 0 5 2.2182 5 5v2 68 2c0 0.3643-0.05212 0.72099-0.125 1.0625-0.04415 0.20689-0.08838 0.39766-0.15625 0.59375-0.0077 0.02195-0.0233 0.04069-0.03125 0.0625-0.06274 0.17374-0.13838 0.36745-0.21875 0.53125-0.04158 0.0828-0.07904 0.16995-0.125 0.25-0.0546 0.09721-0.12677 0.18835-0.1875 0.28125-0.09411 0.14096-0.20492 0.276-0.3125 0.40625-0.14317 0.17445-0.30314 0.347-0.46875 0.5-0.01117 0.0102-0.01998 0.02115-0.03125 0.03125-0.13839 0.12556-0.28509 0.23444-0.4375 0.34375-0.10257 0.07315-0.20432 0.15336-0.3125 0.21875-0.0074 0.0045-0.02384-0.0044-0.03125 0-0.23204 0.13873-0.46255 0.27478-0.71875 0.375 0.30153-0.0968 0.59646-0.20414 0.875-0.34375 0.55709-0.27922 1.0601-0.66569 1.5-1.0938 0.21997-0.21403 0.40937-0.44186 0.59375-0.6875s0.35541-0.50774 0.5-0.78125c0.14012-0.26505 0.27614-0.52473 0.375-0.8125 0.01041-0.03078 0.02133-0.06274 0.03125-0.09375 0.09046-0.27808 0.1388-0.5794 0.1875-0.875 0.0524-0.31805 0.09375-0.63403 0.09375-0.96875v-2-68-2c0-3.324-2.676-6-6-6h-72z" fill="url(#h)" opacity=".4"/><path id="ar" d="m12 90c-3.324 0-6-2.676-6-6v-2-68-2c0-0.33472 0.04135-0.6507 0.09375-0.96875 0.0487-0.2956 0.09704-0.59692 0.1875-0.875 0.00988-0.03038 0.020892-0.0636 0.03125-0.09375 0.098865-0.28777 0.23488-0.54745 0.375-0.8125 0.14459-0.27351 0.31562-0.53562 0.5-0.78125s0.37378-0.47347 0.59375-0.6875c0.43995-0.42806 0.94291-0.81453 1.5-1.0938 0.27854-0.13961 0.57347-0.24695 0.875-0.34375-0.2562 0.10022-0.48671 0.23627-0.71875 0.375-0.00741 0.0044-0.023866-0.0045-0.03125 0-0.031933 0.0193-0.062293 0.04251-0.09375 0.0625-0.1204 0.0767-0.23102 0.16351-0.34375 0.25-0.10617 0.0808-0.21328 0.16111-0.3125 0.25-0.17793 0.16143-0.34746 0.34539-0.5 0.53125-0.10758 0.13026-0.21839 0.26528-0.3125 0.40625-0.025089 0.03838-0.038446 0.08587-0.0625 0.125-0.064763 0.10303-0.13023 0.20452-0.1875 0.3125-0.10101 0.19471-0.20567 0.4157-0.28125 0.625-0.00796 0.02181-0.023589 0.04055-0.03125 0.0625-0.031825 0.09195-0.035804 0.18683-0.0625 0.28125-0.030332 0.10662-0.070389 0.20303-0.09375 0.3125-0.072879 0.34151-0.125 0.6982-0.125 1.0625v2 68 2c0 2.7818 2.2182 5 5 5h2 68 2c2.7818 0 5-2.2182 5-5v-2-68-2c0-0.3643-0.05212-0.72099-0.125-1.0625-0.04415-0.20689-0.08838-0.39766-0.15625-0.59375-0.0077-0.02195-0.0233-0.04069-0.03125-0.0625-0.06274-0.17374-0.13838-0.36745-0.21875-0.53125-0.04158-0.0828-0.07904-0.16995-0.125-0.25-0.0546-0.09721-0.12677-0.18835-0.1875-0.28125-0.09411-0.14096-0.20492-0.276-0.3125-0.40625-0.14317-0.17445-0.30314-0.347-0.46875-0.5-0.01117-0.0102-0.01998-0.02115-0.03125-0.03125-0.13839-0.12556-0.28509-0.23444-0.4375-0.34375-0.10257-0.07315-0.20432-0.15336-0.3125-0.21875-0.0074-0.0045-0.02384 0.0044-0.03125 0-0.23204-0.13873-0.46255-0.27478-0.71875-0.375 0.30153 0.0968 0.59646 0.20414 0.875 0.34375 0.55709 0.27922 1.0601 0.66569 1.5 1.0938 0.21997 0.21403 0.40937 0.44186 0.59375 0.6875s0.35541 0.50774 0.5 0.78125c0.14012 0.26505 0.27614 0.52473 0.375 0.8125 0.01041 0.03078 0.02133 0.06274 0.03125 0.09375 0.09046 0.27808 0.1388 0.5794 0.1875 0.875 0.0524 0.31805 0.09375 0.63403 0.09375 0.96875v2 68 2c0 3.324-2.676 6-6 6h-72z" fill="url(#d)" opacity=".2"/></g><g id="as"><rect id="at" x="15" y="15" width="66" height="66" rx="12" ry="12" clip-path="url(#n)" fill="url(#g)" fill-rule="nonzero" filter="url(#k)" opacity=".1" stroke="#fff" stroke-linecap="round" stroke-linejoin="miter" stroke-miterlimit="4" stroke-width=".5"/></g><g id="au" transform="matrix(1.8198 0 0 1.8198 -48.534 -39)" enable-background="new"><path id="av" d="m53 32c-4.7437 0-8.5455 3.5725-8.5455 8 0.01072 0.47147 0.04591 1.1529 0.0909 1.7273-0.8112 0.34429-0.8704 1.9231-0.18183 3.5455 0.27306 0.64336 0.62083 1.1374 1 1.5455 0.09212 0.45596 0.06797 0.66066 0.18183 1.1818 0.31773 0.9532 1.5704 2.8213 2.7273 4.3636 0.11344 1.1845 0.23112 2.3798 0 3.7273-3.3334 2.7656-11.922 3.9551-11.909 6.8182l-0.18181 1.0909h33.636l-0.18183-1.0909c-0.01367-2.4504-8.6165-3.9551-11.909-6.8182-0.13322-1.096-0.15862-2.1932-0.0909-3.2727 1.0542-1.6268 2.4643-3.7565 2.8182-4.8182 0.12719-0.53763 0.17348-0.90072 0.27273-1.3636 0.31588-0.38262 0.58549-0.81538 0.81818-1.3636 0.65415-1.5413 0.61186-3.0126-0.0909-3.4545 0.04144-0.621 0.07265-1.2818 0.0909-1.8182 0-4.4275-3.8018-8-8.5455-8z" fill="url(#i)" opacity=".6"/><path id="aw" d="m53 32c-4.7437 0-8.5312 3.5725-8.5312 8 0.01072 0.47147 0.01751 1.1444 0.0625 1.7188-0.8112 0.34429-0.84482 1.9401-0.15625 3.5625 0.27306 0.64336 0.62083 1.1232 1 1.5312 0.09212 0.45596 0.04239 0.66634 0.15625 1.1875 0.31773 0.9532 1.5931 2.8327 2.75 4.375 0.11344 1.1845 0.23112 2.3713 0 3.7188-3.3334 2.7656-11.919 3.9494-11.906 6.8125l-0.1875 1.0938h33.625l-0.1875-1.0938c-0.01367-2.4504-8.6137-3.9494-11.906-6.8125-0.13322-1.096-0.16147-2.2018-0.09375-3.2812 1.0542-1.6268 2.4899-3.7508 2.8438-4.8125 0.12719-0.53763 0.15075-0.91208 0.25-1.375 0.31588-0.38262 0.57981-0.79549 0.8125-1.3438 0.65415-1.5413 0.64026-3.0268-0.0625-3.4688 0.04144-0.621 0.04425-1.2761 0.0625-1.8125 0-4.4275-3.7875-8-8.5312-8zm0 1.0312c4.2209 0 7.482 3.1052 7.5 6.9375 5e-5 0.01059 0 0.02065 0 0.03125-0.01822 0.55392-0.0247 1.1835-0.0625 1.75a1.0182 1.0182 0 0 0 0.46875 0.9375c0.0046 0.0236 0.08877 0.14539 0.09375 0.46875 0.0066 0.43114-0.12614 1.0588-0.40625 1.7188-0.19634 0.46261-0.39203 0.77369-0.65625 1.0938a1.0182 1.0182 0 0 0-0.21875 0.4375c-0.11591 0.54065-0.14071 0.88177-0.25 1.3438-0.12623 0.34998-0.52569 1.0868-1.0312 1.9062-0.52185 0.84586-1.1244 1.7731-1.6562 2.5938a1.0182 1.0182 0 0 0-0.1875 0.5c-0.07154 1.1405-0.01604 2.3084 0.125 3.4688a1.0182 1.0182 0 0 0 0.34375 0.65625c1.9111 1.6618 4.9296 2.6896 7.4688 3.7188 1.2696 0.51458 2.4039 1.005 3.1562 1.4688 0.37617 0.23187 0.64316 0.4652 0.78125 0.625s0.12495 0.2099 0.125 0.21875a1.0182 1.0182 0 0 0 0.03125 0.0625h-31.25a1.0182 1.0182 0 0 0 0.03125-0.0625c-9.22e-4 -0.20665 0.1739-0.55441 0.90625-1.0312s1.863-0.97631 3.125-1.4688c2.5239-0.98488 5.5577-1.9198 7.5-3.5312a1.0182 1.0182 0 0 0 0.34375-0.59375c0.25768-1.5024 0.11322-2.8178 0-4a1.0182 1.0182 0 0 0-0.1875-0.53125c-0.56708-0.75602-1.1722-1.5916-1.6562-2.3438-0.46002-0.71477-0.79169-1.3201-0.90625-1.625-0.0047-0.0215 0.0039-0.04217 0-0.0625-0.07031-0.36268-0.04429-0.53957-0.15625-1.0938a1.0182 1.0182 0 0 0-0.25-0.5c-0.31962-0.34401-0.58978-0.72524-0.8125-1.25-0.29506-0.69521-0.42251-1.3708-0.40625-1.8125 0.01219-0.33126 0.07306-0.43335 0.0625-0.4375a1.0182 1.0182 0 0 0 0.5625-1c-0.040008-0.51074-0.020562-1.1441-0.03125-1.625 0-0.0106-5e-5 -0.02066 0-0.03125 0.01801-3.8323 3.2791-6.9375 7.5-6.9375z" fill="#000" opacity=".1"/><path id="ax" d="m53 32c-4.7437 0-8.5312 3.5725-8.5312 8 0.0031 0.13728 0.02434 0.33493 0.03125 0.5 0.27737-4.1898 3.9389-7.5 8.5-7.5 4.5725 0 8.239 3.3265 8.5 7.5312 0.0075-0.17462 0.0259-0.3739 0.03125-0.53125 0-4.4275-3.7875-8-8.5312-8zm-8.5 9.75c-0.50422 0.2487-0.67779 1.0028-0.5625 1.9375 0.08082-0.47091 0.26263-0.82822 0.59375-0.96875-0.025354-0.32366-0.014746-0.63379-0.03125-0.96875zm17 0.09375c-0.01589 0.32955-0.0091 0.63686-0.03125 0.96875 0.28226 0.1775 0.43316 0.52128 0.5 0.96875 0.12066-0.89158-0.03133-1.6294-0.46875-1.9375zm-3.9062 12.781c-0.01517 0.81529 0.0251 1.6469 0.125 2.4688 3.2925 2.8631 11.893 4.3621 11.906 6.8125l0.03125 0.09375h0.15625l-0.1875-1.0938c-0.01367-2.4504-8.6137-3.9494-11.906-6.8125-0.05911-0.48631-0.10706-0.98361-0.125-1.4688zm-9.2188 0.21875c-0.01445 0.40058-0.02058 0.82339-0.09375 1.25-3.3334 2.7656-11.919 3.9494-11.906 6.8125l-0.1875 1.0938h0.15625l0.03125-0.09375c-0.01278-2.8631 8.5728-4.0469 11.906-6.8125 0.13587-0.79219 0.12725-1.5343 0.09375-2.25z" fill="#000" opacity=".2"/><path id="ay" d="m44.5 40.5c-0.01111 0.16776-0.03125 0.32956-0.03125 0.5 0.0047 0.20577 0.01847 0.49059 0.03125 0.75 0.01373-0.0068 0.01705-0.02522 0.03125-0.03125-0.03189-0.40709-0.014432-0.81694-0.03125-1.2188zm17 0.03125c-0.0181 0.42063-2e-3 0.84242-0.03125 1.2812 0.01255 0.0079 0.01912 0.02271 0.03125 0.03125 0.01384-0.28708 0.02275-0.59402 0.03125-0.84375 0-0.15982-0.02148-0.31129-0.03125-0.46875zm-17.562 3.1562c-0.11717 0.68276 0.02999 1.6336 0.4375 2.5938 0.27306 0.64336 0.62083 1.1232 1 1.5312 0.09212 0.45596 0.04239 0.66634 0.15625 1.1875 0.31773 0.9532 1.5931 2.8327 2.75 4.375 0.04675 0.48812 0.07027 0.96706 0.09375 1.4688 0.0312-0.86472-0.01623-1.6593-0.09375-2.4688-1.1569-1.5423-2.4323-3.4218-2.75-4.375-0.11386-0.52116-0.06413-0.73154-0.15625-1.1875-0.37917-0.4081-0.72694-0.88788-1-1.5312-0.23418-0.55176-0.37647-1.0989-0.4375-1.5938zm18.031 0.09375c-0.06334 0.46802-0.21634 0.97891-0.4375 1.5-0.23269 0.54826-0.49662 0.96113-0.8125 1.3438-0.09925 0.46292-0.12281 0.83737-0.25 1.375-0.35389 1.0617-1.7896 3.1857-2.8438 4.8125-0.03767 0.6005-0.05374 1.2043-0.03125 1.8125 0.0051-0.2719 0.01431-0.54253 0.03125-0.8125 1.0542-1.6268 2.4899-3.7508 2.8438-4.8125 0.12719-0.53763 0.15075-0.91208 0.25-1.375 0.31588-0.38262 0.57981-0.79549 0.8125-1.3438 0.39141-0.92222 0.53707-1.8334 0.4375-2.5zm-25.625 20.219-0.15625 1h33.625l-0.15625-1h-33.312z" fill="#fff" opacity=".15"/><path id="az" d="m53 32c-4.7437 0-8.5455 3.5725-8.5455 8 0.01072 0.47147 0.04591 1.1529 0.0909 1.7273-0.8112 0.34429-0.8704 1.9231-0.18183 3.5455 0.27306 0.64336 0.62083 1.1374 1 1.5455 0.09212 0.45596 0.06797 0.66066 0.18183 1.1818 0.31773 0.9532 1.5704 2.8213 2.7273 4.3636 0.11344 1.1845 0.23112 2.3798 0 3.7273-3.3334 2.7656-11.922 3.9551-11.909 6.8182l-0.18181 1.0909h33.636l-0.18183-1.0909c-0.01367-2.4504-8.6165-3.9551-11.909-6.8182-0.13322-1.096-0.15862-2.1932-0.0909-3.2727 1.0542-1.6268 2.4643-3.7565 2.8182-4.8182 0.12719-0.53763 0.17348-0.90072 0.27273-1.3636 0.31588-0.38262 0.58549-0.81538 0.81818-1.3636 0.65415-1.5413 0.61186-3.0126-0.0909-3.4545 0.04144-0.621 0.07265-1.2818 0.0909-1.8182 0-4.4275-3.8018-8-8.5455-8z" clip-path="url(#m)" fill="none" filter="url(#j)" opacity=".15" stroke="#fff" stroke-miterlimit="4" stroke-width="3"/></g></svg>
