<?xml version="1.0" encoding="UTF-8"?>
<!DOCTYPE svg  PUBLIC '-//W3C//DTD SVG 1.1//EN'  'http://www.w3.org/Graphics/SVG/1.1/DTD/svg11.dtd'>
<svg version="1.1" viewBox="0 0 128 128" xmlns="http://www.w3.org/2000/svg"><g><title>Background</title><rect width="128" height="128" rx="16" ry="16" fill="#007bff"/></g><g><title>Logo</title><path d="m95.944 45.505h8.976c-0.616-4.928-2.09-9.284-4.422-13.068s-5.236-6.974-8.712-9.57-7.348-4.554-11.616-5.874-8.646-1.98-13.134-1.98c-7.392 0-13.882 1.342-19.47 4.026s-10.23 6.292-13.926 10.824-6.468 9.746-8.316 15.642-2.772 12.1-2.772 18.612 0.924 12.716 2.772 18.612 4.62 11.088 8.316 15.576 8.338 8.074 13.926 10.758 12.078 4.026 19.47 4.026c5.544 0 10.582-0.88 15.114-2.64s8.47-4.268 11.814-7.524 6.072-7.216 8.184-11.88 3.476-9.9 4.092-15.708h-8.976c-0.44 4.224-1.452 8.162-3.036 11.814s-3.652 6.842-6.204 9.57-5.588 4.884-9.108 6.468-7.48 2.376-11.88 2.376c-6.248 0-11.616-1.188-16.104-3.565-4.488-2.375-8.162-5.521-11.022-9.437s-4.972-8.36-6.336-13.332-2.046-10.01-2.046-15.114c0-5.192 0.682-10.252 2.046-15.18s3.476-9.35 6.336-13.266 6.534-7.062 11.022-9.438 9.856-3.564 16.104-3.564c3.432 0 6.71 0.506 9.834 1.518s5.984 2.486 8.58 4.422 4.796 4.334 6.6 7.194 3.102 6.094 3.894 9.702z" fill="#fff"/><path d="m95.944 45.505h8.976c-0.616-4.928-2.09-9.284-4.422-13.068s-5.236-6.974-8.712-9.57-7.348-4.554-11.616-5.874-8.646-1.98-13.134-1.98c-7.392 0-13.882 1.342-19.47 4.026s-10.23 6.292-13.926 10.824-6.468 9.746-8.316 15.642-2.772 12.1-2.772 18.612 0.924 12.716 2.772 18.612 4.62 11.088 8.316 15.576 8.338 8.074 13.926 10.758 12.078 4.026 19.47 4.026c5.544 0 10.582-0.88 15.114-2.64s8.47-4.268 11.814-7.524 6.072-7.216 8.184-11.88 3.476-9.9 4.092-15.708h-8.976c-0.44 4.224-1.452 8.162-3.036 11.814s-3.652 6.842-6.204 9.57-5.588 4.884-9.108 6.468-7.48 2.376-11.88 2.376c-6.248 0-11.616-1.188-16.104-3.565-4.488-2.375-8.162-5.521-11.022-9.437s-4.972-8.36-6.336-13.332-2.046-10.01-2.046-15.114c0-5.192 0.682-10.252 2.046-15.18s3.476-9.35 6.336-13.266 6.534-7.062 11.022-9.438 9.856-3.564 16.104-3.564c3.432 0 6.71 0.506 9.834 1.518s5.984 2.486 8.58 4.422 4.796 4.334 6.6 7.194 3.102 6.094 3.894 9.702v0zm14.52 65.736" fill="none" stroke="#fff" stroke-linecap="square" stroke-linejoin="miter"/></g><g><title>Printer</title><rect x="48.719" y="52.2" width="30.8" height="25.2" rx="2" ry="2" fill="#fff"/><rect x="48.719" y="52.2" width="30.8" height="25.2" rx="2" ry="2" fill="none" stroke="#fff" stroke-linecap="square" stroke-linejoin="miter"/><path d="m48.9 54.049c0.409 0.036 0.195-2.049 0.2-3.549 0.245-2.131 10.715-3.915 10.715-3.915v5.6l14-2.8" fill="#fff"/><path d="m48.9 54.049c0.409 0.036 0.195-2.049 0.2-3.549 0.245-2.131 10.715-3.915 10.715-3.915v5.6l14-2.8" fill="none" stroke="#fff" stroke-linecap="square" stroke-linejoin="miter"/><rect x="48.6" y="52.2" width="16.8" height="8.4" rx="2" ry="2" fill="none" stroke="#007bff" stroke-linecap="square" stroke-linejoin="miter"/><path d="m65.4 56.4h14" fill="none" stroke="#007bff" stroke-linecap="square" stroke-linejoin="miter"/><rect x="51.4" y="53.571" width="11.2" height="5.6" rx=".7" ry=".7" fill="#003d7f"/><rect x="51.4" y="53.571" width="11.2" height="5.6" rx=".7" ry=".7" fill="none" stroke="#007bff" stroke-linecap="square" stroke-linejoin="miter"/><path d="m48.6 69h30.8" fill="none" stroke="#007bff" stroke-linecap="square" stroke-linejoin="miter"/></g></svg>
