<?xml version="1.0" encoding="UTF-8"?>
<svg id="a" width="132.44mm" height="21.469mm" version="1.1" viewBox="0 0 132.44 21.469" xmlns="http://www.w3.org/2000/svg"><g id="b" transform="translate(-38.613 -94.088)"><path id="c" d="m43.32 115.52c-0.95247-0.0842-1.532-0.27466-2.2767-0.74849-1.0313-0.65619-1.6128-1.524-2.1088-3.1472-0.30496-0.99802-0.32056-1.1649-0.32132-3.4381-7.02e-4 -2.082 0.03261-2.5235 0.25878-3.4334 0.70264-2.8264 2.1398-3.905 5.2056-3.9072 1.4336-8.8e-4 2.9978 0.21992 4.4474 0.62818l0.96886 0.27286 0.0307-3.8022 0.0307-3.8022h3.613l0.02979 10.635 0.02979 10.635h-2.9886l-0.33422-0.69928c-0.18383-0.3846-0.37834-0.69928-0.43225-0.69928-0.05393 0-0.45073 0.17737-0.88181 0.39415-1.6876 0.84863-3.6257 1.2576-5.2708 1.1123zm4.2285-3.1247c0.4988-0.13139 1.1413-0.34256 1.4277-0.46926l0.52078-0.23038v-3.7874c0-2.4302-0.04227-3.8136-0.11799-3.8604-0.30861-0.19073-2.8581-0.53145-3.9777-0.53159-1.9688-2.4e-4 -2.4327 0.29717-2.8407 1.8212-0.262 0.97851-0.35923 3.5467-0.17708 4.6771 0.21975 1.3638 0.63961 2.094 1.4612 2.5414 0.46915 0.25547 2.4503 0.16954 3.7038-0.16065zm12.088 3.1158c-1.3577-0.13588-2.2253-0.55256-3.0124-1.4467-0.71284-0.80983-0.85894-1.3891-0.81356-3.2258 0.03334-1.3476 0.07388-1.6176 0.31692-2.1114 0.51233-1.0407 1.324-1.6515 2.6559-1.9984 0.51701-0.13468 1.4139-0.17428 3.9467-0.17428 1.8027 0 3.2996-0.0219 3.3264-0.0487 0.02678-0.0268 0.02004-0.52406-0.01503-1.1051-0.05794-0.95973-0.09414-1.0881-0.39625-1.4035-0.50952-0.53182-1.2117-0.62776-3.8996-0.53281-1.2561 0.0444-2.9656 0.12247-3.7989 0.17355-0.83331 0.0511-1.5544 0.0695-1.6025 0.041-0.11853-0.0703-0.11183-1.9906 0.0073-2.0642 0.16024-0.099 2.356-0.51998 3.4018-0.65216 1.8655-0.23578 5.0853-0.28189 6.1857-0.0886 1.7533 0.308 2.9321 1.1089 3.5272 2.3966 0.24581 0.53187 0.25267 0.68387 0.28607 6.3431l0.03425 5.7982h-2.8788l-0.76979-1.5912-0.72159 0.38316c-1.7781 0.94416-4.1181 1.4734-5.7795 1.3071zm4.0002-3.0711c0.62965-0.16546 1.4295-0.40732 1.7773-0.53748l0.63252-0.23666v-1.5067c0-0.8287-0.03935-1.5066-0.08745-1.5064-0.0481 2.4e-4 -1.2619 0.0782-2.6973 0.17322-3.5799 0.23707-3.737 0.32668-3.7402 2.134-0.0018 1.1562 0.17931 1.596 0.72817 1.7659 0.57634 0.17844 2.1136 0.0487 3.3869-0.2859zm54.364 3.0732c-1.469-0.15238-2.8778-1.0799-3.4285-2.2572-0.24232-0.51807-0.27269-0.75362-0.2737-2.1226-9.1e-4 -1.8447 0.20002-2.5369 0.96748-3.3256 1.0553-1.0845 1.8775-1.2533 6.1039-1.2533h3.1836v-0.87784c0-1.5129-0.4315-2.0578-1.7507-2.2109-0.54103-0.0628-3.0393 8e-3 -7.6313 0.21747l-0.34964 0.0159v-2.0922l0.87411-0.2063c1.7103-0.40366 3.6045-0.5903 6.1187-0.60291 2.632-0.0132 3.2455 0.072 4.3122 0.59879 0.76396 0.37727 1.6045 1.2594 1.8756 1.9685 0.19882 0.51999 0.21995 1.0448 0.25382 6.3071l0.037 5.7399h-2.8915l-0.3833-0.72841c-0.21081-0.40063-0.39638-0.74497-0.41236-0.76519-0.016-0.0202-0.33594 0.11746-0.711 0.30595-2.0102 1.0102-4.124 1.4724-5.8944 1.2888zm3.0563-2.8327c1.0305-0.18296 1.9064-0.4198 2.828-0.76459l0.66843-0.25009v-3.0389l-0.96152 0.0717c-0.52883 0.0395-1.7678 0.12582-2.7533 0.19201-2.617 0.17579-2.8118 0.32076-2.8118 2.0927 0 0.8156 0.0482 1.1824 0.18004 1.3706 0.33966 0.48494 1.3234 0.59764 2.8502 0.32656zm18.461 2.8327c-1.2644-0.11332-3.1062-0.69589-4.1923-1.326l-0.47403-0.27502-0.36983 0.74999-0.36985 0.74998h-2.9158v-21.328h3.613v3.8585c0 3.2362 0.026 3.8485 0.16112 3.7967 1.4249-0.54676 3.4757-0.89083 5.3166-0.89196 3.7667-2e-3 5.315 1.8454 5.515 6.5814 0.16742 3.9648-0.87138 6.656-2.9332 7.5991-0.99025 0.45296-2.0309 0.60374-3.3505 0.48547zm0.84858-2.9054c1.2237-0.46136 1.8201-2.1633 1.7127-4.8878-0.0631-1.6014-0.20835-2.365-0.5985-3.1468-0.49059-0.98301-0.74953-1.0757-2.8256-1.0109-0.92946 0.029-2.1488 0.14289-2.7097 0.25314l-1.0198 0.20046v7.752l0.67015 0.24398c1.6724 0.60888 3.974 0.89636 4.7708 0.59594zm19.966 2.7094c-2.5483-0.66608-3.4164-2.4638-3.4154-7.0727 9.1e-4 -3.9382 0.62087-5.583 2.4775-6.5726 1.0523-0.56087 2.2559-0.74381 4.8636-0.73923 3.3816 6e-3 4.7504 0.30938 5.612 1.2441 0.57481 0.62359 0.88207 1.2136 1.0537 2.0234 0.19611 0.92519 0.16458 2.5636-0.0621 3.2289-0.25782 0.75666-0.98733 1.4701-1.8574 1.8166-0.66572 0.26506-0.81664 0.27546-4.576 0.31504l-3.8876 0.0409 0.0772 0.66169c0.15977 1.3695 0.43025 1.8743 1.2101 2.2585 0.52607 0.25915 0.64544 0.26795 3.6324 0.26795 2.554 0 4.4407-0.0765 5.1748-0.20985 0.0835-0.0151 0.13967 0.34959 0.16147 1.0484 0.0394 1.2658 0.10151 1.2019-1.432 1.4741-2.6027 0.46188-7.6296 0.5814-9.0324 0.21473zm6.2027-8.3016c0.6058-0.16824 0.79013-0.48521 0.79013-1.3587 0-0.99633-0.25511-1.5927-0.79576-1.8601-0.35922-0.17769-0.71823-0.21109-2.2345-0.20784-2.1354 5e-3 -2.644 0.11992-3.1303 0.70981-0.36761 0.44598-0.42723 0.66178-0.55089 1.9936l-0.0784 0.84497 2.783-8.8e-4c1.5554-3.5e-4 2.9743-0.0537 3.2167-0.12108zm-93.846 1.1706v-7.2259h2.999l0.3188 0.8741c0.17534 0.48076 0.35755 0.8741 0.40492 0.8741 0.0474 0 0.52371-0.263 1.0585-0.58443s1.3954-0.72383 1.9125-0.89421c0.81379-0.26816 1.1436-0.31099 2.4552-0.3188 0.83331-5e-3 1.6069 0.0287 1.7191 0.0747 0.17952 0.0737 0.20395 0.26569 0.20395 1.6026v1.5188l-1.9065-6e-3c-2.5629-9e-3 -3.7828 0.29259-5.0572 1.249l-0.37878 0.28426v9.7781h-3.7295v-7.2259zm13.198-3.3507 0.0298-10.577 3.6691-0.06432 0.0302 5.8594 0.0302 5.8594 0.46619 0.0334c0.44203 0.0316 0.52661-0.0222 1.6317-1.0387 2.6902-2.4745 3.519-3.2315 3.9197-3.5799l0.4233-0.36804h2.2864c1.2575 0 2.286 0.0393 2.2855 0.0875-9.1e-4 0.10144-0.4594 0.54399-2.3883 2.3058-0.7692 0.70257-1.7394 1.5964-2.1561 1.9863-0.41665 0.38987-1.0329 0.96099-1.3694 1.2691-0.33653 0.30815-0.61147 0.59244-0.61099 0.63174 9.1e-4 0.0713 1.2341 1.612 2.4466 3.0564 0.35256 0.42 1.0606 1.2782 1.5734 1.9072 0.5128 0.62894 1.2858 1.5687 1.7179 2.0883 0.43203 0.51961 0.78604 0.98409 0.78669 1.0322 7.1e-4 0.0481-0.98217 0.0846-2.1841 0.0813l-2.1852-6e-3 -2.8394-3.432-2.8394-3.432h-1.0227v6.8763h-3.7307zm21.474 10.414c-0.77043-0.24366-1.1725-0.50059-1.6727-1.0688-0.99297-1.1281-1.1827-2.2715-1.1827-7.1273v-3.412h-2.7971v-0.9828c0-0.83518 0.0306-0.9919 0.20395-1.0435 0.11218-0.0333 0.57108-0.14371 1.0198-0.24517 1.7863-0.40392 1.6244-0.28546 1.7903-1.3107 0.0805-0.49772 0.23053-1.3901 0.33332-1.983l0.1869-1.0781h2.9923v3.9626h4.1957v2.6806h-4.2177l0.0496 3.7586c0.0507 3.8435 0.10019 4.2803 0.54253 4.7908 0.29953 0.34572 0.91797 0.59783 2.1979 0.89599l1.1946 0.27828v2.0475l-2.1852-8e-3c-1.4177-5e-3 -2.349-0.0596-2.6514-0.15523zm43.92-0.0877c-1.1632-0.39038-1.8254-1.0669-2.3216-2.3716-0.20965-0.55132-0.22346-1.0681-0.25632-9.586l-0.0347-9.0032h3.7333l0.0313 8.5953c0.0294 8.0695 0.0445 8.6216 0.24535 9.0255 0.30363 0.61047 0.64978 0.79773 2.2335 1.2083l1.3986 0.36259 0.0336 1.0099 0.0337 1.0099-2.1898-5e-3c-1.895-5e-3 -2.2863-0.0374-2.9069-0.2457z" fill="#fff" stroke-width=".11655"/></g></svg>
