<?xml version="1.0" encoding="UTF-8"?>
<svg version="1.1" viewBox="0 0 128 128" xmlns="http://www.w3.org/2000/svg" xmlns:xlink="http://www.w3.org/1999/xlink"><defs><filter id="a" x="0%" y="0%" width="100%" height="100%"><feColorMatrix in="SourceGraphic" values="0 0 0 0 1 0 0 0 0 1 0 0 0 0 1 0 0 0 1 0"/></filter><mask id="g"><g filter="url(#a)"><rect width="128" height="128" fill-opacity=".2"/></g></mask><clipPath id="j"><rect width="192" height="152"/></clipPath><g id="d" clip-path="url(#j)"><path d="m64 32 16 16 16-16-16-16z" fill="#fff" fill-rule="nonzero"/></g><mask id="f"><g filter="url(#a)"><rect width="128" height="128" fill-opacity=".2"/></g></mask><clipPath id="i"><rect width="192" height="152"/></clipPath><g id="c" clip-path="url(#i)"><path d="m3.3125 64v2h0.003906c-0.003906 2.0469 0.77344 4.0898 2.3398 5.6562l52.688 52.688c3.1328 3.1328 8.1797 3.1328 11.312 0l52.688-52.688c1.5664-1.5664 2.3438-3.6094 2.3438-5.6562v-2c0 2.0469-0.77734 4.0898-2.3438 5.6562l-52.688 52.688c-3.1328 3.1328-8.1797 3.1328-11.312 0l-52.688-52.688c-1.5664-1.5664-2.3438-3.6094-2.3398-5.6562z" fill-rule="nonzero"/></g><mask id="e"><g filter="url(#a)"><rect width="128" height="128" fill-opacity=".3"/></g></mask><clipPath id="h"><rect width="192" height="152"/></clipPath><g id="b" clip-path="url(#h)"><path d="m176 24v6l6-6z" fill="#241f31" fill-rule="nonzero"/></g></defs><g id="k"><path d="m48 80h-16v18l16 16 8-18z" fill="#bf9ae5" fill-rule="nonzero"/><path d="m80 80-24 8-8 24v2l10.344 10.344c3.1328 3.1328 8.1797 3.1328 11.312 0l26.359-26.355-0.003906-2-2.0117-13.988z" fill="#50d0e6" fill-rule="nonzero"/><path d="m48 48 4-12 12-4 8 16-8 16-14-2z" fill="#21a57e" fill-rule="nonzero"/><path d="m80 80 16.012 15.988 7.9883-15.988-8-16-12 4z" fill="#ffcd48" fill-rule="nonzero"/><path d="m64 64 8-24 24-8 8 20-8 12-16 16h-16z" fill="#fa0" fill-rule="nonzero"/><path d="m80 80-32 32v-32l4-12 12-4z" fill="#bee8f5" fill-rule="nonzero"/><path d="m64 32 4-13 12-3 16 16-32 32z" fill="#2ec299" fill-rule="nonzero"/><path d="m32.031 31.969-13.398 13.398-13.285 13.32c-1.3555 1.5156-2.0352 3.4102-2.0312 5.3125h-0.003906v2h0.003906c-0.003906 2.0469 0.77344 4.0898 2.3398 5.6562l10.344 10.344v-2l24-8 8-24-4-12z" fill="#6746d6" fill-rule="nonzero"/><path d="m64 3.3086c-2.0469 0-4.0898 0.78125-5.6562 2.3477l-26.344 26.344 16 8 16-8 15.988-16.012-10.332-10.332c-1.5664-1.5664-3.6094-2.3477-5.6562-2.3477z" fill="#f8e859" fill-rule="nonzero"/><path d="m96 32-0.066406 33.902 16.082 16.082 10.328-10.328c1.5664-1.5664 2.3438-3.6094 2.3438-5.6562v-2c0-2.0469-0.77734-4.0898-2.3438-5.6562z" fill="#e7375f" fill-rule="nonzero"/><use mask="url(#g)" xlink:href="#d"/><path d="m32 32 16 16 16-16z" fill="#eec40a" fill-rule="nonzero"/><path d="m96 64 0.015625 33.988 15.984-15.988v-1.9805z" fill="#f87d9e" fill-rule="nonzero"/><path d="m32.023 63.977-16.023 16.023v2l16 16v-2l16-16-4-12z" fill="#8d60d8" fill-rule="nonzero"/><path d="m64 64-16 16-15.977-16.023 15.977-7.9766z" fill="#5dc2f3" fill-rule="nonzero"/><path d="m64 64-16-16-16 16z" fill="#1b8dd3" fill-rule="nonzero"/><use mask="url(#f)" xlink:href="#c"/><use mask="url(#e)" xlink:href="#b"/></g></svg>
