<?xml version="1.0" encoding="UTF-8"?>
<svg viewBox="0 0 128 128" xmlns="http://www.w3.org/2000/svg"><linearGradient id="a" x1="4" x2="124" y1="66" y2="66" gradientUnits="userSpaceOnUse"><stop stop-color="#155839" offset="0"/><stop stop-color="#1f8254" offset="1"/></linearGradient><clipPath id="b"><path d="m24 4h80v64h-80z"/></clipPath><clipPath id="c"><path d="m124 64c0 33.137-26.863 60-60 60s-60-26.863-60-60 26.863-60 60-60 60 26.863 60 60z"/></clipPath><clipPath id="d"><path d="m4 30h40v76h-40z"/></clipPath><clipPath id="e"><path d="m124 64c0 33.137-26.863 60-60 60s-60-26.863-60-60 26.863-60 60-60 60 26.863 60 60z"/></clipPath><clipPath id="f"><path d="m24 68h80v56h-80z"/></clipPath><clipPath id="g"><path d="m124 64c0 33.137-26.863 60-60 60s-60-26.863-60-60 26.863-60 60-60 60 26.863 60 60z"/></clipPath><clipPath id="h"><path d="m84 30h40v76h-40z"/></clipPath><clipPath id="i"><path d="m124 64c0 33.137-26.863 60-60 60s-60-26.863-60-60 26.863-60 60-60 60 26.863 60 60z"/></clipPath><clipPath id="j"><path d="m4 4h40v38h-40z"/></clipPath><clipPath id="k"><path d="m124 64c0 33.137-26.863 60-60 60s-60-26.863-60-60 26.863-60 60-60 60 26.863 60 60z"/></clipPath><clipPath id="l"><path d="m84 4h40v36h-40z"/></clipPath><clipPath id="m"><path d="m124 64c0 33.137-26.863 60-60 60s-60-26.863-60-60 26.863-60 60-60 60 26.863 60 60z"/></clipPath><clipPath id="n"><path d="m4 80h40v44h-40z"/></clipPath><clipPath id="o"><path d="m124 64c0 33.137-26.863 60-60 60s-60-26.863-60-60 26.863-60 60-60 60 26.863 60 60z"/></clipPath><clipPath id="p"><path d="m84 80h40v44h-40z"/></clipPath><clipPath id="q"><path d="m124 64c0 33.137-26.863 60-60 60s-60-26.863-60-60 26.863-60 60-60 60 26.863 60 60z"/></clipPath><linearGradient id="r" x1="56" x2="114" y1="67.5" y2="67.5" gradientUnits="userSpaceOnUse"><stop stop-color="#13583a" offset="0"/><stop stop-color="#1c8154" offset=".13531"/><stop stop-color="#13583a" offset=".27586"/><stop stop-color="#13583a" offset=".72587"/><stop stop-color="#19744b" offset=".85904"/><stop stop-color="#13583a" offset="1"/></linearGradient><path d="m124 66c0 33.137-26.863 60-60 60s-60-26.863-60-60 26.863-60 60-60 60 26.863 60 60z" fill="url(#a)"/><g clip-path="url(#b)"><g clip-path="url(#c)"><path d="m84 68h-40l-20-38 20-38h40l20 38z" fill="#57e389"/></g></g><g clip-path="url(#d)"><g clip-path="url(#e)"><path d="m24 106h-40l-20-38 20-38h40l20 38z" fill="#26a269"/></g></g><g clip-path="url(#f)"><g clip-path="url(#g)"><path d="m84 144h-40l-20-38 20-38h40l20 38z" fill="#33d17a"/></g></g><g clip-path="url(#h)"><g clip-path="url(#i)"><path d="m144 106h-40l-20-38 20-38h40l20 38z" fill="#26a269"/></g></g><g clip-path="url(#j)"><g clip-path="url(#k)"><path d="m29.801 41.02-45.801-11.02-20-38 20-38h40l20 38z" fill="#2ec27e"/></g></g><g clip-path="url(#l)"><g clip-path="url(#m)"><path d="m144 30-45.133 9.75-14.867-47.75 20-38h40l20 38z" fill="#2ec27e"/></g></g><g clip-path="url(#n)"><g clip-path="url(#o)"><path d="m24 182h-40l-20-38 20-38 53.664-26 6.3359 64z" fill="#2ec27e"/></g></g><g clip-path="url(#p)"><g clip-path="url(#q)"><path d="m144 182h-40l-20-38 6.2891-64 53.711 26 20 38z" fill="#2ec27e"/></g></g><path d="m64 34c-4.418 0-8 3.582-8 8s3.582 8 8 8 8-3.582 8-8-3.582-8-8-8zm42 24c-4.418 0-8 3.582-8 8 0.003906 0.48828 0.054688 0.97656 0.15234 1.457l-30.652 23.352c-1.0898-0.53125-2.2852-0.80859-3.5-0.80859-4.418 0-8 3.582-8 8s3.582 8 8 8 8-3.582 8-8c0-0.49219-0.046875-0.98438-0.13672-1.4688l30.645-23.344c1.0859 0.53125 2.2812 0.80859 3.4922 0.8125 4.418 0 8-3.582 8-8s-3.582-8-8-8z" fill="url(#r)"/><g fill="#1c8053"><path d="m64 32c-4.418 0-8 3.582-8 8s3.582 8 8 8 8-3.582 8-8-3.582-8-8-8zm42 24c-4.418 0-8 3.582-8 8 0.003906 0.48828 0.054688 0.97656 0.15234 1.457l-36.152 27.543 4 6 36.508-27.812c1.0859 0.53125 2.2812 0.80859 3.4922 0.8125 4.418 0 8-3.582 8-8s-3.582-8-8-8z"/><path d="m72 96c0 4.418-3.582 8-8 8s-8-3.582-8-8 3.582-8 8-8 8 3.582 8 8z"/><path d="m60 124v-28h8v28z"/><path d="m60 96v-56h8v56z"/></g></svg>
