<?xml version="1.0" encoding="UTF-8"?>
<svg viewBox="0 0 1024 1024" xmlns="http://www.w3.org/2000/svg"><path d="m256.8 0.5c-141.99 0-256.3 114.31-256.3 256.3v511.4c0 141.99 114.31 256.3 256.3 256.3h511.4c141.99 0 256.3-114.31 256.3-256.3v-511.4c0-141.99-114.31-256.3-256.3-256.3h-511.4z" fill="#C3D7DE"/><path d="m487 137v25h-25v25h25v25h25v-25-25h25v-25h-25-25zm0 75h-25v-25h-25v25 25h25 25v-25zm-50 25h-25v-25h-25v25 25 25h25v-25h25v-25zm-50-25v-25h-25v25h25zm0-25h25 25v-25h-25-25v25zm-75 25v25h25v-25h-25zm0 25h-25v25h25v-25zm-25 25h-25v25h25v-25zm300 100v25 25h25v25h25v25h25v-25h25v-25h-25-25v-25h-25v-25h-25zm-300 25v25h25 25v-25h-25-25zm25 50v25h25v-25h-25zm-100 150v25h25v-25h-25zm-50 125v25h25v-25h-25z" fill="#fff"/><path d="m462 87v25h25 25 25 25 25v-25h-25-25-25-25-25zm125 25v25h25 25v25h25 25v-25h-25v-25h-25-25-25zm100 50v25h25v-25h-25zm25 25v25h25v-25h-25zm25 25v25h25v-25h-25zm25 25v25h25v25h25v-25-25h-25-25zm50 50v25 25 25h25 25v-25h-25v-25-25h-25zm50 75v25h-25-25v25h-25v25 25 25h25v-25-25h25v25 25 25 25 25 25 25 25 25 25h25v25h25v25 25h25 25v-25h25v-25h-25-25v-25h-25v-25h-25v-25-25-25-25-25-25-25-25-25-25h25v-25-25h-25zm25 400h-25v25h25v-25zm-25 25h-25v25 25h25v-25-25zm-25 50h-25-25v25h25 25v-25zm-50 0v-25h-25v25h25zm-25-25v-25-25h-25-25v25 25 25h25v-25h25zm-50 25h-25-25-25v25h25 25 25v-25zm-75 0v-25h-25v-25h-25v25 25 25h25v-25h25zm-50 25h-25v25h25v-25zm-25 25h-25-25-25-25v25h25v25h25 25v-25h25v-25zm-100 0v-25h-25v25h25zm-25-25v-25-25-25h-25v25h-25v25h25v25h25zm-50-25h-25-25v25h25 25v-25zm-50 0v-25-25h-25v-25h-25v25 25h25v25h25zm-50-25h-25v25h25v-25zm-25 25h-25-25-25v25h25 25 25v-25zm-75 0v-25-25h-25v25 25h25zm-25-50v-25h-25v25h25zm-25-25v-25-25h25v-25h25v-25-25-25-25-25-25-25-25-25-25h25v-25-25h-25-25v-25h25 25 25v-25-25-25h-25v25 25h-25-25-25v25 25 25h25v25 25 25 25 25 25 25 25 25 25h-25v25h-25v25h-25v25h25v25h25zm100-475h25v-25-25h-25v25 25zm25-50h25v-25h25v-25h25v-25h25 25v-25h25 25 25v-25h-25-25-25-25v25h-25-25v25h-25v25h-25v25 25zm-50 200v25 25h25v-25-25h-25zm25 50v25 25h25 25v25h25 25 25 25 25 25v-25-25h-25v25h-25-25-25-25v-25h-25-25v-25h-25zm200 25h25v-25-25-25h-25v25 25 25zm25-75h25 25 25v25 25h25v-25-25-25-25h-25-25-25v25h-25v25zm100 50v25 25h25v25h25 25 25 25 25 25 25v-25h25v-25-25h-25v25h-25v25h-25-25-25-25v-25h-25-25v-25h-25zm-300-150v25h25 25 25 25 25 25 25v-25h-25-25-25-25-25-25-25zm325 0v25h25 25 25 25 25 25 25 25v-25h-25-25-25-25-25-25-25-25zm-125 225v25 25h25 25 25 25v-25-25h-25-25-25-25z"/><path d="m62 262v25h25v-25h-25zm25 75v25h25v-25h-25z" fill="#F22A44"/><path d="m87 137v25h25v-25h-25zm25 25v25h25v-25h-25z" fill="#F12E45"/><path d="m87 387v25h25v-25h-25zm25 25v25h25v-25h-25z" fill="#F8403E"/><path d="m87 537v25h25v-25h-25zm25 50v25h25v-25h-25z" fill="#F8762E"/><path d="m137 162v25h25v-25h-25zm-25 75v25h25v-25h-25z" fill="#F02D46"/><path d="m387 137v25h25v-25h-25zm-200 325v25 25 25 25h25v-25-25-25-25h-25z" fill="#FCFEFF"/><path d="m462 137v25h25v-25h-25zm-50 50v25h25v-25h-25zm-125 25v25h25v-25h-25zm0 25h-25v25h25v-25zm75 25v25h25v-25h-25zm-125 25v25h25v-25h-25zm50 75v25h25v-25h-25zm25 50v25h25v-25h-25zm-125 150v25h25v-25h-25zm0 100v25 25h25v-25-25h-25zm-25 75v25h25v-25h-25z" fill="#FDFFFF"/><path d="m212 137v25 25h25v-25-25h-25z" fill="#F23149"/><path d="m212 237v25h25v-25h-25zm-100 100v25h25v-25h-25z" fill="#EF2A43"/><path d="m512 112v25h25 25v-25h-25-25zm-150 50v25h25v-25h-25zm75 0v25h25v-25h-25zm25 25v25h25v-25h-25zm-150 50v25h-25v25h-25v25h25 25 25 25 25v-25h-25-25v-25h25 25v-25h-25-25-25zm-100 300v25 25h25v-25-25h-25zm-75 175v25h25v-25h-25z" fill="#FEFEFE"/><path d="m487 287v25h25v-25h-25zm50 0v25h25 25v-25h-25-25zm-275 300v25h25v-25h-25zm50 25v25h25 25v25h-25-25v25h-25-25v25 25h25v-25h25 25 25 25 25v25h25v-25h25v25h25v25 25h25 25 25v-25h-25v-25h25 25v-25h25 25v-25h-25v-25-25-25h-25v25 25h-25v-25h-25-25-25-25-25-25v-25h-25-25-25-25zm-50 125h-25v25h25v-25zm-25 25h-25v25h25v-25zm425-150v25h25v-25h-25zm-200 50h25v25h-25v-25zm250 0v25h-25v25h25 25v-25-25h-25z" fill="#E7EBEC"/><path d="m512 237v25h-25v25h25v25h25v-25h25 25v25h25v-25h25 25v-25h-25v-25h-25-25-25-25-25zm-25 50h-25v25h25v-25zm-250 300v25h25v-25h-25zm25 25v25h-25v25h25v25h25v-25h25v-25h-25v-25h-25zm0 75h-25-25v25 25 25h25v-25h25v-25-25zm350-75v25 25 25h25v25h25v25h25v-25-25-25h25 25v-25-25h-25-25v25h-25v-25h-25-25zm-275 25v25h25v-25h-25zm225 0v25h25v-25h-25zm-100 25v25h25v-25h-25zm100 75v25 25h25v-25-25h-25z" fill="#E6EAEB"/><path d="m637 162v25h25v-25h-25zm25 25v25h25v-25h-25zm0 25h-25v-25h-25-25v25h-25-25v25h25 25 25 25v25h25v-25-25zm0 50v25h25v-25h-25zm-50 25v25h25v-25h-25zm-375 375v25h25v-25h-25z" fill="#E5E9EA"/><path d="m487 112v25h25v-25h-25zm-75 25v25h25 25v-25h-25-25zm-75 50v25h25v-25h-25zm0 75v25h25v-25h-25zm-150 375v25h25v-25h-25zm-25 50v25h25v-25h-25z" fill="#FCFFFE"/><path d="m712 237v25h25v-25h-25zm-275 50v25h25v-25h-25zm-225 375v25h25v-25h-25zm475 50v25h25v-25h-25zm100 25v25h25v-25h-25z" fill="#E4EBEB"/><path d="m562 187v25h25v-25h-25zm75 0v25h25v-25h-25zm25 25v25 25h25v-25-25h-25zm-200 50v25h25v-25h-25z" fill="#E3EAEA"/><path d="m662 362v25h25v-25h-25zm75 0v25 25h25v-25-25h-25zm-325 75v25h25v-25h-25zm200 50v25h25v-25h-25z" fill="#464953"/><path d="m337 362v25h25v-25h-25zm25 25v25h25v-25h-25zm-100 25v25h25v-25h-25zm25 50v25h25v-25h-25z" fill="#454852"/><path d="m537 312v25h25v-25h-25zm-275 425v25h25v-25h-25zm100 25v25h25v-25h-25zm150 75v25h25v-25h-25z" fill="#E6EDED"/><path d="m762 587v25h25v-25h-25zm0 150v25h25v-25h-25zm-125 25v25h25v-25h-25zm-300 25v25h25v-25h-25z" fill="#E9EEEC"/><path d="m562 587v25h-25-25-25-25-25v25h25 25 25 25 25 25v-25h25v-25h-25-25zm-225 125v25 25h25v-25h25v-25h-25-25zm250 0v25h25v-25h-25zm-125 25v25 25h25v-25-25h-25zm25 50v25h25 25v-25h-25-25zm175-50v25h25v-25h-25z" fill="#E8ECED"/><path d="m712 412v25 25h25v-25h25v-25h-25-25zm25 50v25h25v-25h-25z" fill="#4A4D57"/><path d="m687 262v25h25v-25h-25zm50 375v25h25v-25h-25zm-50 25v25h25v-25h-25z" fill="#E6EBE9"/><path d="m737 237v25h25v-25h-25zm25 25v25h25v-25h-25zm-150 300v25h25v-25h-25z" fill="#9FA6B3"/><path d="m962 312v25h25v-25h-25z" fill="#26AEF8"/><path d="m962 337v25h25v-25h-25z" fill="#26ADF6"/><path d="m962 362v25h25v-25h-25z" fill="#34B7FA"/><path d="m962 387v25h25v-25h-25z" fill="#48CFFF"/><path d="m962 412v25h25v-25h-25z" fill="#3FBBFB"/><path d="m962 437v25h25v-25h-25z" fill="#4987F7"/><path d="m962 462v25h25v-25h-25z" fill="#4881F6"/><path d="m962 487v25h25v-25h-25z" fill="#4B83F7"/><path d="m962 512v25h25v-25h-25z" fill="#517DF7"/><path d="m962 537v25h25v-25h-25z" fill="#5B73F5"/><path d="m962 562v25h25v-25h-25z" fill="#676CF6"/><path d="m962 587v25h25v-25h-25z" fill="#6E6DF9"/><path d="m962 612v25 25h25v-25-25h-25z" fill="#6D66F1"/><path d="m962 662v25h25v-25h-25z" fill="#7E5CF6"/><path d="m962 687v25h25v-25h-25z" fill="#8756F2"/><path d="m962 712v25h25v-25h-25z" fill="#8355EA"/><path d="m962 737v25h25v-25h-25z" fill="#8D50E6"/><path d="m962 762v25h25v-25h-25z" fill="#924BE2"/><path d="m962 787v25h25v-25h-25z" fill="#8D4ADA"/><path d="m962 812v25h25v-25h-25z" fill="#9049DA"/><path d="m912 287v25h25v-25h-25z" fill="#1DABF5"/><path d="m912 312v25h25v-25h-25z" fill="#43D3FF"/><path d="m887 587v25h25v-25h-25z" fill="#5F6BEE"/><path d="m912 337v25h25v-25h-25z" fill="#34BBFD"/><path d="m912 362v25h25v-25h-25z" fill="#33BEFF"/><path d="m912 387v25h25v-25h-25z" fill="#2FB5FE"/><path d="m912 412v25h25v-25h-25z" fill="#3F82EF"/><path d="m912 437v25h25v-25h-25z" fill="#4482F2"/><path d="m912 462v25h25v-25h-25z" fill="#477EED"/><path d="m912 487v25h25v-25h-25z" fill="#497EF3"/><path d="m912 512v25h25v-25h-25z" fill="#5281F6"/><path d="m912 537v25h25v-25h-25z" fill="#5B6EF7"/><path d="m912 562v25h25v-25h-25z" fill="#6A73FD"/><path d="m912 587v25h25v-25h-25z" fill="#6773FA"/><path d="m912 612v25h25v-25h-25z" fill="#6B66F3"/><path d="m912 637v25h25v-25h-25z" fill="#7661F3"/><path d="m912 662v25h25v-25h-25z" fill="#7E58EF"/><path d="m912 687v25h25v-25h-25z" fill="#8A50EA"/><path d="m912 762v25h25v-25h-25z" fill="#923FD1"/><path d="m912 787v25h25v-25h-25z" fill="#9A3ECF"/><path d="m912 812v25h25v-25h-25z" fill="#9E3CCF"/><path d="m912 837v25h25v-25h-25z" fill="#9D3BCC"/><path d="m912 862v25h25v-25h-25z" fill="#A63CC2"/><path d="m937 137v25h25v-25h-25z" fill="#29C7FA"/><path d="m937 162v25h25v-25h-25z" fill="#69ECFE"/><path d="m937 187v25h25v-25h-25z" fill="#2FC0F8"/><path d="m937 212v25h25v-25h-25z" fill="#30C0FB"/><path d="m937 237v25h25v-25h-25z" fill="#30C6FC"/><path d="m937 262v25h25v-25h-25z" fill="#28B6F7"/><path d="m937 287v25h25v-25h-25z" fill="#3BC7FF"/><path d="m937 312v25h25v-25h-25z" fill="#25ADFA"/><path d="m937 337v25h25v-25h-25z" fill="#31B6F3"/><path d="m937 362v25h25v-25h-25z" fill="#33B7FA"/><path d="m937 387v25h25v-25h-25z" fill="#48D0FE"/><path d="m937 412v25h25v-25h-25z" fill="#4493F5"/><path d="m937 437v25h25v-25h-25z" fill="#4486F4"/><path d="m937 462v25h25v-25h-25z" fill="#4C7EF4"/><path d="m937 487v25h25v-25h-25z" fill="#4E84F8"/><path d="m937 512v25h25v-25h-25z" fill="#5680F9"/><path d="m937 537v25h25v-25h-25z" fill="#6171F7"/><path d="m937 562v25h25v-25h-25z" fill="#6167F2"/><path d="m937 587v25h25v-25h-25z" fill="#6C6FF9"/><path d="m937 612v25h25v-25h-25z" fill="#7066F6"/><path d="m937 637v25h25v-25h-25z" fill="#7A5FF5"/><path d="m912 887v25h25v-25h-25z" fill="#A23ABD"/><path d="m937 662v25h25v-25h-25z" fill="#805CF5"/><path d="m937 687v25h25v-25h-25z" fill="#8954F1"/><path d="m937 737v25h25v-25h-25z" fill="#934DE4"/><path d="m937 762v25h25v-25h-25z" fill="#9449E2"/><path d="m937 787v25h25v-25h-25z" fill="#9647DB"/><path d="m937 812v25h25v-25h-25z" fill="#9E46D4"/><path d="m937 837v25h25v-25h-25z" fill="#9D43CA"/><path d="m937 862v25h25v-25h-25z" fill="#A63BC5"/><path d="m962 187v25h25v-25h-25z" fill="#2CC3FB"/><path d="m962 212v25h25v-25h-25z" fill="#31C1FC"/><path d="m962 237v25h25v-25h-25z" fill="#33C5FC"/><path d="m962 262v25h25v-25h-25z" fill="#27B7FB"/><path d="m962 287v25h25v-25h-25z" fill="#3CC7FF"/><path d="m262 37v25h25v-25h-25z" fill="#F5525B"/><path d="m262 62v25h25v-25h-25z" fill="#FD8A81"/><path d="m262 87v25h25v-25h-25z" fill="#FD8778"/><path d="m262 112v25h25v-25h-25z" fill="#F33A4A"/><path d="m262 137v25h25v-25h-25z" fill="#F2314E"/><path d="m262 162v25h25v-25h-25z" fill="#F74D4F"/><path d="m262 312v25h25v-25h-25z" fill="#5F666F"/><path d="m262 362v25h25v-25h-25z" fill="#333742"/><path d="m262 387v25h25v-25h-25z" fill="#3F414D"/><path d="m762 387v25h25v-25h-25zm-500 50v25h25v-25h-25z" fill="#474A54"/><path d="m262 487v25h25v-25h-25z" fill="#1B1A24"/><path d="m262 462v25h25v-25h-25z" fill="#32333A"/><path d="m262 537v25h25v-25h-25z" fill="#9CA5B4"/><path d="m262 562v25h25v-25h-25z" fill="#A7AEBA"/><path d="m262 762v25h25v-25h-25z" fill="#ABB3BE"/><path d="m262 787v25h25v-25h-25z" fill="#9296A2"/><path d="m262 837v25h25v-25h-25z" fill="#E95A23"/><path d="m262 862v25h25v-25h-25z" fill="#F9B42A"/><path d="m262 887v25h25v-25h-25z" fill="#FCBD3A"/><path d="m262 912v25h25v-25h-25zm125 50v25h25v-25h-25z" fill="#FCC53F"/><path d="m262 937v25h25v-25h-25z" fill="#FED149"/><path d="m262 962v25h25v-25h-25z" fill="#FACF4E"/><path d="m287 37v25h25v-25h-25z" fill="#F7625F"/><path d="m287 62v25h25v-25h-25z" fill="#FC8C80"/><path d="m287 87v25h25v-25h-25z" fill="#FF837A"/><path d="m287 112v25h25v-25h-25z" fill="#F33C4E"/><path d="m287 137v25h25v-25h-25z" fill="#F22E4A"/><path d="m287 312v25h25v-25h-25z" fill="#5C616B"/><path d="m287 412v25h25v-25h-25z" fill="#3C414F"/><path d="m287 437v25h25v-25h-25z" fill="#404551"/><path d="m287 487v25h25v-25h-25z" fill="#464853"/><path d="m287 562v25h25v-25h-25z" fill="#9CA7B4"/><path d="m287 587v25h25v-25h-25zm525 100v25h25v-25h-25z" fill="#A7B0BB"/><path d="m287 712v25h25v-25h-25z" fill="#A9B3BD"/><path d="m287 737v25h25v-25h-25z" fill="#9099A5"/><path d="m287 812v25h25v-25h-25z" fill="#E6592D"/><path d="m737 812v25h25v-25h-25z" fill="#C22251"/><path d="m812 887v25h25v-25h-25z" fill="#C03891"/><path d="m812 912v25h25v-25h-25z" fill="#BA389C"/><path d="m812 937v25h25v-25h-25z" fill="#C03596"/><path d="m812 962v25h25v-25h-25z" fill="#DA3C75"/><path d="m837 62v25h25v-25h-25z" fill="#63F4FE"/><path d="m837 87v25h25v-25h-25z" fill="#38D0F8"/><path d="m837 112v25h25v-25h-25z" fill="#37D5FB"/><path d="m837 137v25h25v-25h-25z" fill="#3ED8F8"/><path d="m837 162v25h25v-25h-25z" fill="#54E4FE"/><path d="m837 187v25h25v-25h-25z" fill="#54E9FC"/><path d="m837 212v25h25v-25h-25z" fill="#2BC0FD"/><path d="m837 237v25h25v-25h-25z" fill="#31C2FC"/><path d="m837 262v25h25v-25h-25z" fill="#41D3FD"/><path d="m837 287v25h25v-25h-25z" fill="#23AFF9"/><path d="m837 312v25h25v-25h-25z" fill="#24B1FA"/><path d="m837 362v25h25v-25h-25z" fill="#5F6673"/><path d="m837 687v25h25v-25h-25z" fill="#ABB0BC"/><path d="m837 712v25h25v-25h-25z" fill="#A6AEBB"/><path d="m837 737v25h25v-25h-25z" fill="#A3ABB6"/><path d="m837 762v25h25v-25h-25z" fill="#A0A7B4"/><path d="m837 912v25h25v-25h-25z" fill="#B738A8"/><path d="m837 937v25h25v-25h-25z" fill="#BF399D"/><path d="m862 62v25h25v-25h-25z" fill="#63F5FF"/><path d="m862 87v25h25v-25h-25z" fill="#4ADBFE"/><path d="m862 112v25h25v-25h-25z" fill="#39D5FC"/><path d="m862 137v25h25v-25h-25z" fill="#3ED4FC"/><path d="m862 162v25h25v-25h-25z" fill="#51E6FF"/><path d="m862 187v25h25v-25h-25z" fill="#42DAFF"/><path d="m862 212v25h25v-25h-25z" fill="#4FDDFF"/><path d="m862 237v25h25v-25h-25z" fill="#55DEFD"/><path d="m862 262v25h25v-25h-25z" fill="#41D4FF"/><path d="m862 287v25h25v-25h-25z" fill="#4EDAFF"/><path d="m862 312v25h25v-25h-25z" fill="#2AC6FA"/><path d="m862 337v25h25v-25h-25z" fill="#3ABAF8"/><path d="m862 412v25h25v-25h-25zm25 50v25h25v-25h-25z" fill="#437EEE"/><path d="m862 437v25h25v-25h-25z" fill="#477DED"/><path d="m862 462v25h25v-25h-25z" fill="#4B73E8"/><path d="m862 487v25h25v-25h-25z" fill="#4F79EF"/><path d="m862 512v25h25v-25h-25z" fill="#5472EC"/><path d="m837 837v25h25v-25h-25z" fill="#A633AC"/><path d="m787 637v25h25v-25h-25z" fill="#B4B9C3"/><path d="m837 862v25h25v-25h-25z" fill="#AA37AD"/><path d="m862 537v25h25v-25h-25z" fill="#606FEE"/><path d="m862 562v25h25v-25h-25z" fill="#5F67ED"/><path d="m862 587v25h25v-25h-25z" fill="#6D6BF4"/><path d="m862 612v25h25v-25h-25z" fill="#6960F2"/><path d="m862 637v25h25v-25h-25z" fill="#7056E8"/><path d="m862 737v25h25v-25h-25z" fill="#A0A9B5"/><path d="m862 787v25h25v-25h-25z" fill="#2C2A36"/><path d="m862 812v25h25v-25h-25z" fill="#A538B3"/><path d="m862 837v25h25v-25h-25z" fill="#A938B5"/><path d="m862 862v25h25v-25h-25z" fill="#AE39B0"/><path d="m862 887v25h25v-25h-25z" fill="#B133A9"/><path d="m862 912v25h25v-25h-25z" fill="#B3359F"/><path d="m862 937v25h25v-25h-25z" fill="#BA34A1"/><path d="m887 87v25h25v-25h-25z" fill="#42D6F8"/><path d="m887 112v25h25v-25h-25z" fill="#46D7F3"/><path d="m887 137v25h25v-25h-25z" fill="#6CF5FC"/><path d="m887 162v25h25v-25h-25z" fill="#2ABBF5"/><path d="m837 887v25h25v-25h-25z" fill="#B43AAF"/><path d="m887 187v25h25v-25h-25z" fill="#3DDBFE"/><path d="m887 212v25h25v-25h-25z" fill="#40D7FA"/><path d="m887 237v25h25v-25h-25z" fill="#48E1FF"/><path d="m887 262v25h25v-25h-25z" fill="#1DB1F4"/><path d="m887 287v25h25v-25h-25z" fill="#4CD9FF"/><path d="m887 312v25h25v-25h-25z" fill="#27ADF6"/><path d="m887 337v25h25v-25h-25z" fill="#2EB0F3"/><path d="m887 362v25h25v-25h-25z" fill="#2CB5FD"/><path d="m887 387v25h25v-25h-25z" fill="#307EEB"/><path d="m887 412v25h25v-25h-25z" fill="#3C7DE9"/><path d="m887 437v25h25v-25h-25z" fill="#4079E7"/><path d="m887 487v25h25v-25h-25z" fill="#4878EC"/><path d="m887 512v25h25v-25h-25z" fill="#5780F4"/><path d="m887 537v25h25v-25h-25z" fill="#556CEA"/><path d="m887 562v25h25v-25h-25z" fill="#606AF2"/><path d="m887 612v25h25v-25h-25z" fill="#615FEB"/><path d="m887 637v25h25v-25h-25z" fill="#6D56E9"/><path d="m887 662v25h25v-25h-25z" fill="#764CDD"/><path d="m887 762v25h25v-25h-25z" fill="#8837B4"/><path d="m887 787v25h25v-25h-25z" fill="#9B36B6"/><path d="m887 812v25h25v-25h-25z" fill="#9A38B5"/><path d="m887 837v25h25v-25h-25z" fill="#9F3AB3"/><path d="m887 862v25h25v-25h-25z" fill="#A835B4"/><path d="m887 887v25h25v-25h-25z" fill="#B136B1"/><path d="m887 912v25h25v-25h-25z" fill="#AF38B3"/><path d="m912 112v25h25v-25h-25z" fill="#3EDBFE"/><path d="m912 137v25h25v-25h-25z" fill="#2AC4F7"/><path d="m912 162v25h25v-25h-25z" fill="#5FEDFD"/><path d="m912 187v25h25v-25h-25z" fill="#2AB9FF"/><path d="m912 212v25h25v-25h-25z" fill="#2EBEFF"/><path d="m912 237v25h25v-25h-25z" fill="#21BDFA"/><path d="m912 262v25h25v-25h-25z" fill="#4AD7FF"/><path d="m712 137v25h25v-25h-25z" fill="#66F2FC"/><path d="m712 162v25h25v-25h-25z" fill="#6BEBFF"/><path d="m712 212v25h25v-25h-25z" fill="#E7EBE8"/><path d="m712 262v25h25v-25h-25z" fill="#E5EBE9"/><path d="m712 287v25h25v-25h-25z" fill="#E7EEEB"/><path d="m712 312v25h25v-25h-25z" fill="#525B66"/><path d="m712 387v25h25v-25h-25z" fill="#464954"/><path d="m712 462v25h25v-25h-25z" fill="#494C54"/><path d="m712 487v25h25v-25h-25z" fill="#535560"/><path d="m712 562v25h25v-25h-25z" fill="#A0A6B5"/><path d="m712 587v25h25v-25h-25z" fill="#A6ADB8"/><path d="m712 512v25h25v-25h-25z" fill="#2E2C36"/><path d="m712 712v25h25v-25h-25z" fill="#A9B0BA"/><path d="m712 737v25h25v-25h-25z" fill="#989FAA"/><path d="m712 837v25h25v-25h-25z" fill="#C22251"/><path d="m712 862v25h25v-25h-25z" fill="#CF264D"/><path d="m712 887v25h25v-25h-25z" fill="#DB2A4E"/><path d="m712 912v25h25v-25h-25z" fill="#E3294B"/><path d="m712 937v25h25v-25h-25z" fill="#EC2F44"/><path d="m712 962v25h25v-25h-25z" fill="#EE3747"/><path d="m737 37v25h25v-25h-25z" fill="#59F5FE"/><path d="m737 62v25h25v-25h-25z" fill="#37D5FA"/><path d="m737 87v25h25v-25h-25z" fill="#4AE4F8"/><path d="m737 112v25h25v-25h-25z" fill="#4FE6FC"/><path d="m737 137v25h25v-25h-25z" fill="#31C5F7"/><path d="m737 162v25h25v-25h-25z" fill="#61E9FD"/><path d="m737 187v25h25v-25h-25z" fill="#62ECFF"/><path d="m737 262v25h25v-25h-25z" fill="#A2A9B5"/><path d="m737 287v25h25v-25h-25z" fill="#A4AAB6"/><path d="m737 312v25h25v-25h-25z" fill="#555D67"/><path d="m737 437v25h25v-25h-25z" fill="#4C4F59"/><path d="m737 487v25h25v-25h-25z" fill="#3E414B"/><path d="m737 562v25h25v-25h-25z" fill="#A2A9B7"/><path d="m737 712v25h25v-25h-25z" fill="#CBD3D9"/><path d="m737 737v25h25v-25h-25z" fill="#9FA6B1"/><path d="m737 837v25h25v-25h-25z" fill="#C1265D"/><path d="m737 862v25h25v-25h-25z" fill="#CF2859"/><path d="m737 887v25h25v-25h-25z" fill="#D82B58"/><path d="m737 912v25h25v-25h-25z" fill="#DC2D55"/><path d="m737 937v25h25v-25h-25z" fill="#E42B4E"/><path d="m737 962v25h25v-25h-25z" fill="#E73148"/><path d="m762 37v25h25v-25h-25z" fill="#54F1FF"/><path d="m762 62v25h25v-25h-25z" fill="#7FF5FB"/><path d="m762 87v25h25v-25h-25z" fill="#7BF8FB"/><path d="m762 112v25h25v-25h-25z" fill="#4DDAF8"/><path d="m762 137v25h25v-25h-25z" fill="#47DFF9"/><path d="m762 162v25h25v-25h-25z" fill="#35BFF7"/><path d="m762 187v25h25v-25h-25z" fill="#33C1F7"/><path d="m762 212v25h25 25v-25h-25-25z" fill="#3BD0FE"/><path d="m737 587v25h25v-25h-25z" fill="#AAAFBB"/><path d="m762 312v25h25v-25h-25z" fill="#5D626D"/><path d="m762 362v25h25v-25h-25z" fill="#494954"/><path d="m762 437v25h25v-25h-25z" fill="#434650"/><path d="m762 462v25h25v-25h-25z" fill="#3D3E49"/><path d="m762 537v25h25v-25h-25z" fill="#ABB0BA"/><path d="m762 562v25h25v-25h-25z" fill="#A3A8B5"/><path d="m762 687v25h25v-25h-25z" fill="#E7EBEB"/><path d="m762 762v25h25v-25h-25z" fill="#AEB5C1"/><path d="m762 787v25h25v-25h-25z" fill="#838592"/><path d="m762 837v25h25v-25h-25z" fill="#BE296B"/><path d="m762 862v25h25v-25h-25z" fill="#C92D6F"/><path d="m762 887v25h25v-25h-25z" fill="#D3306E"/><path d="m762 912v25h25v-25h-25z" fill="#D73172"/><path d="m637 512v25h25v-25h-25z" fill="#2B2A33"/><path d="m762 937v25h25v-25h-25z" fill="#D7356E"/><path d="m762 962v25h25v-25h-25z" fill="#E63C5B"/><path d="m787 37v25h25v-25h-25z" fill="#52F1FF"/><path d="m787 62v25h25v-25h-25z" fill="#76FCFE"/><path d="m787 87v25h25v-25h-25z" fill="#54E0FA"/><path d="m787 112v25h25v-25h-25z" fill="#4BDBF5"/><path d="m787 137v25h25v-25h-25z" fill="#4BDEFF"/><path d="m787 162v25h25v-25h-25z" fill="#31C1F7"/><path d="m787 187v25h25v-25h-25z" fill="#37C7F9"/><path d="m787 287v25h25v-25h-25z" fill="#969BA6"/><path d="m787 312v25h25v-25h-25z" fill="#606773"/><path d="m787 362v25h25v-25h-25z" fill="#555860"/><path d="m787 387v25h25v-25h-25z" fill="#31323B"/><path d="m787 487v25h25v-25h-25z" fill="#A3A8B3"/><path d="m787 512v25h25v-25h-25z" fill="#ADB4BF"/><path d="m787 537v25h25v-25h-25z" fill="#AEB6BF"/><path d="m787 562v25h25v-25h-25zm0 50v25h25v-25h-25z" fill="#B4BAC3"/><path d="m787 587v25h25v-25h-25z" fill="#C6CBCF"/><path d="m787 662v25h25v-25h-25z" fill="#B3B8C1"/><path d="m787 687v25h25v-25h-25z" fill="#CCD2D7"/><path d="m787 787v25h25v-25h-25z" fill="#B0B5BF"/><path d="m787 812v25h25v-25h-25z" fill="#8D929D"/><path d="m787 862v25h25v-25h-25z" fill="#C42A6C"/><path d="m787 887v25h25v-25h-25z" fill="#CE2F71"/><path d="m787 912v25h25v-25h-25z" fill="#D02E77"/><path d="m787 937v25h25v-25h-25z" fill="#C93784"/><path d="m787 962v25h25v-25h-25z" fill="#E53B60"/><path d="m812 37v25h25v-25h-25z" fill="#3DEFFE"/><path d="m812 62v25h25v-25h-25z" fill="#35D6FB"/><path d="m812 87v25h25v-25h-25z" fill="#53ECFC"/><path d="m812 112v25h25v-25h-25z" fill="#56EEFE"/><path d="m812 137v25h25v-25h-25z" fill="#32C9FD"/><path d="m812 162v25h25v-25h-25z" fill="#39CCFA"/><path d="m812 187v25h25v-25h-25z" fill="#3ACFF9"/><path d="m812 212v25h25v-25h-25z" fill="#2DC3FA"/><path d="m812 237v25h25v-25h-25z" fill="#2CBEF5"/><path d="m812 262v25h25v-25h-25z" fill="#23B8F4"/><path d="m812 362v25h25v-25h-25z" fill="#5B636E"/><path d="m812 437v25h25v-25h-25z" fill="#A8B1BC"/><path d="m812 462v25h25v-25h-25z" fill="#A6ADB7"/><path d="m812 487v25h25v-25h-25z" fill="#A1AAB5"/><path d="m812 512v25h25v-25h-25z" fill="#A2ABB7"/><path d="m812 562v25h25v-25h-25z" fill="#A1AAB7"/><path d="m812 587v25h25v-25h-25z" fill="#A1AAB6"/><path d="m812 612v25h25v-25h-25z" fill="#A2ABB8"/><path d="m812 637v25h25v-25h-25z" fill="#A7AFBA"/><path d="m812 662v25h25v-25h-25z" fill="#A9B1BC"/><path d="m812 712v25h25v-25h-25z" fill="#A6AABA"/><path d="m812 737v25h25v-25h-25z" fill="#A5AAB7"/><path d="m812 762v25h25v-25h-25z" fill="#A6ABB9"/><path d="m812 787v25h25v-25h-25z" fill="#ACB3BE"/><path d="m812 812v25h25v-25h-25z" fill="#8D95A0"/><path d="m812 862v25h25v-25h-25z" fill="#B43496"/><path d="m437 837v25h25v-25h-25z" fill="#6F727C"/><path d="m437 887v25h25v-25h-25z" fill="#EE502F"/><path d="m437 912v25h25v-25h-25z" fill="#EF4F2F"/><path d="m437 937v25h25 25v-25h-25-25z" fill="#EC4B2D"/><path d="m437 962v25h25v-25h-25z" fill="#F8D34C"/><path d="m462 37v25h25v-25h-25z" fill="#F96473"/><path d="m462 62v25h25v-25h-25z" fill="#FC5C6E"/><path d="m462 112v25h25v-25h-25z" fill="#FDFDFD"/><path d="m462 237v25h25v-25h-25zm325 475v25h25v-25h-25z" fill="#E0E5E5"/><path d="m462 312v25h25v-25h-25z" fill="#E7EDF2"/><path d="m462 337v25h25v-25h-25z" fill="#32333B"/><path d="m462 437v25h25v-25h-25z" fill="#979DA9"/><path d="m462 462v25h25v-25h-25z" fill="#AAAFB8"/><path d="m462 487v25h25v-25h-25z" fill="#B2B7C3"/><path d="m462 512v25h25v-25h-25z" fill="#B0B4BD"/><path d="m462 537v25h25v-25h-25z" fill="#EDF0F3"/><path d="m462 787v25h25v-25h-25z" fill="#E2E7E7"/><path d="m462 812v25h25v-25h-25z" fill="#E8EEED"/><path d="m462 837v25h25v-25h-25z" fill="#E8EFEC"/><path d="m462 862v25h25v-25h-25z" fill="#878B99"/><path d="m462 912v25h25v-25h-25z" fill="#EA4A25"/><path d="m462 962v25h25v-25h-25z" fill="#EC4D36"/><path d="m487 37v25h25v-25h-25z" fill="#F2586E"/><path d="m487 62v25h25v-25h-25z" fill="#F15D7B"/><path d="m487 212v25h25v-25h-25z" fill="#E1E5E5"/><path d="m612 162v25h25v-25h-25zm-125 75v25h25v-25h-25z" fill="#E4E9EA"/><path d="m487 312v25h25v-25h-25z" fill="#E9EFF1"/><path d="m487 337v25h25v-25h-25z" fill="#383A49"/><path d="m487 362v25h25v-25h-25z" fill="#676A74"/><path d="m487 437v25h25v-25h-25z" fill="#989FAB"/><path d="m487 462v25h25v-25h-25zm75 325v25h25v-25h-25z" fill="#A5AAB6"/><path d="m487 487v25h25v-25h-25z" fill="#BFC7D0"/><path d="m487 512v25h25v-25h-25zm300 250v25h25v-25h-25z" fill="#EBF0EF"/><path d="m487 537v25h25v-25h-25z" fill="#ECF3F3"/><path d="m487 862v25h25v-25h-25z" fill="#828892"/><path d="m487 937v25h25v-25h-25z" fill="#EC4628"/><path d="m487 962v25h25v-25h-25z" fill="#F04931"/><path d="m512 37v25h25v-25h-25z" fill="#72B3E8"/><path d="m512 62v25h25v-25h-25z" fill="#75ACDF"/><path d="m512 162v25h25v-25h-25z" fill="#F2F4F4"/><path d="m512 187v25h25v-25h-25z" fill="#E0E4E3"/><path d="m537 187v25h25v-25h-25zm0 25h-25v25h25v-25z" fill="#E3E8E9"/><path d="m512 312v25h25v-25h-25z" fill="#E9F0F0"/><path d="m512 337v25h25v-25h-25z" fill="#393C49"/><path d="m512 362v25h25v-25h-25z" fill="#60656E"/><path d="m512 437v25h25v-25h-25z" fill="#9FA6B6"/><path d="m512 462v25h25v-25h-25z" fill="#E8EEEB"/><path d="m512 487v25h25v-25h-25zm250 225v25h25v-25h-25z" fill="#E8EDEB"/><path d="m512 512v25h25v-25h-25z" fill="#ECF0F1"/><path d="m512 537v25h25v-25h-25z" fill="#ECF4F3"/><path d="m662 762v25h25v-25h-25zm-150 50v25h25v-25h-25z" fill="#E8ECEC"/><path d="m512 862v25h25v-25h-25z" fill="#C8CCD1"/><path d="m512 937v25h25v-25h-25z" fill="#E2233F"/><path d="m512 962v25h25v-25h-25z" fill="#EB3537"/><path d="m537 37v25h25v-25h-25z" fill="#6CB1E4"/><path d="m537 62v25h25v-25h-25z" fill="#72AADE"/><path d="m537 137v25h25v-25h-25zm125 300v25h25v-25h-25z" fill="#FEFFFF"/><path d="m537 162v25h25v-25h-25z" fill="#DDE4E4"/><path d="m537 337v25h25v-25h-25z" fill="#424451"/><path d="m787 337v25h25v-25h-25zm-250 25v25h25v-25h-25z" fill="#61656F"/><path d="m537 487v25h25v-25h-25z" fill="#939CA8"/><path d="m537 512v25h25v-25h-25z" fill="#E7F0EF"/><path d="m537 537v25h25v-25h-25z" fill="#E9F3F2"/><path d="m537 737v25h25v-25h-25z" fill="#E6EBEA"/><path d="m537 787v25h25v-25h-25z" fill="#E6EEEA"/><path d="m537 812v25h25v-25h-25z" fill="#E7ECED"/><path d="m537 837v25h25v-25h-25z" fill="#D4DBDB"/><path d="m537 862v25h25v-25h-25z" fill="#8C949F"/><path d="m537 912v25h25v-25h-25z" fill="#E31F3D"/><path d="m537 937v25h25v-25h-25z" fill="#E4233D"/><path d="m537 962v25h25v-25h-25z" fill="#EA2740"/><path d="m562 37v25h25v-25h-25z" fill="#69C9F2"/><path d="m562 62v25h25v-25h-25z" fill="#68BDEC"/><path d="m562 112v25h25v-25h-25z" fill="#70737E"/><path d="m562 312v25h25v-25h-25z" fill="#646973"/><path d="m562 362v25h25v-25h-25z" fill="#FDFEFE"/><path d="m562 387v25h25v-25h-25z" fill="#EEF0F2"/><path d="m712 362v25h25v-25h-25zm-150 50v25h25v-25h-25z" fill="#454754"/><path d="m562 437v25h25v-25h-25z" fill="#464951"/><path d="m562 462v25h25v-25h-25z" fill="#4A4B54"/><path d="m562 537v25h25v-25h-25zm300 175v25h25v-25h-25z" fill="#A5ACB7"/><path d="m687 212v25h25v-25h-25zm-125 350v25h25v-25h-25z" fill="#E8EDEA"/><path d="m562 812v25h25v-25h-25z" fill="#989FAC"/><path d="m562 837v25h25v-25h-25z" fill="#838894"/><path d="m562 887v25h25v-25h-25z" fill="#D61F40"/><path d="m562 912v25h25v-25h-25z" fill="#DF2240"/><path d="m562 937v25h25v-25h-25z" fill="#E6223D"/><path d="m562 962v25h25v-25h-25z" fill="#E9263F"/><path d="m587 37v25h25v-25h-25z" fill="#66E5FA"/><path d="m587 62v25h25v-25h-25z" fill="#58C1F0"/><path d="m587 87v25h25v-25h-25z" fill="#59C1F0"/><path d="m587 137v25h25v-25h-25z" fill="#E1EAEA"/><path d="m587 162v25h25v-25h-25z" fill="#E3E9EA"/><path d="m587 312v25h25v-25h-25z" fill="#555A63"/><path d="m587 412v25h25v-25h-25z" fill="#5E6775"/><path d="m587 462v25h25v-25h-25z" fill="#464B56"/><path d="m587 487v25h25v-25h-25z" fill="#464751"/><path d="m762 287v25h25v-25h-25zm-175 275v25h25v-25h-25z" fill="#A1A9B4"/><path d="m587 737v25h25v-25h-25z" fill="#AFB4BD"/><path d="m587 762v25h25v-25h-25z" fill="#8A9099"/><path d="m587 862v25h25v-25h-25z" fill="#D42348"/><path d="m587 887v25h25 25v-25h-25-25z" fill="#DE2342"/><path d="m587 912v25h25v-25h-25z" fill="#E4213C"/><path d="m587 937v25h25v-25h-25z" fill="#E8213B"/><path d="m587 962v25h25v-25h-25z" fill="#EF293F"/><path d="m612 37v25h25v-25h-25z" fill="#68E7FC"/><path d="m612 62v25h25v-25h-25z" fill="#7EF2FE"/><path d="m612 87v25h25v-25h-25z" fill="#7EF5FF"/><path d="m612 137v25h25v-25h-25z" fill="#C6CCCF"/><path d="m612 312v25h25v-25h-25z" fill="#50565F"/><path d="m612 362v25h25v-25h-25z" fill="#3E404C"/><path d="m612 462v25h25v-25h-25z" fill="#424753"/><path d="m612 587v25h25v-25h-25z" fill="#A3A9B5"/><path d="m737 662v25h25v-25h-25zm-125 50v25h25v-25h-25z" fill="#E6EBEB"/><path d="m612 737v25h25v-25h-25z" fill="#D0D7D9"/><path d="m612 762v25h25v-25h-25z" fill="#989FAD"/><path d="m612 787v25h25v-25h-25z" fill="#60626F"/><path d="m612 837v25h25v-25h-25z" fill="#C31E4D"/><path d="m612 862v25h25 25v-25h-25-25z" fill="#D42145"/><path d="m612 912v25h25v-25h-25z" fill="#E42943"/><path d="m612 937v25h25v-25h-25z" fill="#EB2C42"/><path d="m612 962v25h25v-25h-25z" fill="#EF2C3F"/><path d="m637 37v25h25v-25h-25z" fill="#5BECFD"/><path d="m637 62v25h25v-25h-25z" fill="#6FF1FE"/><path d="m637 87v25h25v-25h-25z" fill="#72F5FE"/><path d="m637 287v25h25 25v-25h-25-25z" fill="#E5E9E8"/><path d="m637 312v25h25v-25h-25z" fill="#50555E"/><path d="m637 362v25h25v-25h-25z" fill="#42444F"/><path d="m637 387v25h25v-25h-25z" fill="#FAF9FB"/><path d="m637 462v25h25v-25h-25z" fill="#6A6F79"/><path d="m637 562v25h25v-25h-25zm50 0v25h25v-25h-25z" fill="#9EA5B2"/><path d="m637 587v25h25v-25h-25z" fill="#A7AEBB"/><path d="m637 787v25h25v-25h-25z" fill="#E9EDEA"/><path d="m637 812v25h25v-25h-25z" fill="#969BA7"/><path d="m637 887v25h25v-25h-25z" fill="#E02746"/><path d="m637 912v25h25v-25h-25z" fill="#EA2540"/><path d="m637 937v25h25v-25h-25z" fill="#EB2A40"/><path d="m637 962v25h25v-25h-25z" fill="#EF3041"/><path d="m662 37v25h25v-25h-25z" fill="#5AE9F9"/><path d="m662 62v25h25v-25h-25z" fill="#3AD0F4"/><path d="m662 87v25h25v-25h-25z" fill="#69F4F9"/><path d="m662 112v25h25v-25h-25z" fill="#6EF6FC"/><path d="m662 162v25h25v-25h-25z" fill="#E6EAE9"/><path d="m662 312v25h25v-25h-25z" fill="#4F545E"/><path d="m662 387v25h25v-25h-25z" fill="#40424D"/><path d="m662 462v25h25v-25h-25z" fill="#686C76"/><path d="m662 487v25h25v-25h-25z" fill="#40424E"/><path d="m662 512v25h25v-25h-25z" fill="#262430"/><path d="m662 562v25h25v-25h-25z" fill="#A3AAB6"/><path d="m662 587v25h25v-25h-25z" fill="#A8B1BD"/><path d="m662 787v25h25v-25h-25z" fill="#9DA5B3"/><path d="m662 812v25h25v-25h-25z" fill="#9096A3"/><path d="m662 862v25h25v-25h-25z" fill="#C51F45"/><path d="m637 487v25h25v-25h-25z" fill="#454651"/><path d="m662 887v25h25v-25h-25z" fill="#DF2746"/><path d="m662 912v25h25v-25h-25z" fill="#ED2645"/><path d="m662 937v25h25v-25h-25z" fill="#ED2D42"/><path d="m662 962v25h25v-25h-25z" fill="#F13847"/><path d="m687 37v25h25v-25h-25z" fill="#63EEFB"/><path d="m687 62v25h25v-25h-25z" fill="#87F2FE"/><path d="m687 87v25h25v-25h-25z" fill="#32C2F4"/><path d="m687 112v25h25v-25h-25z" fill="#77F7FF"/><path d="m687 137v25h25v-25h-25z" fill="#69F1FC"/><path d="m687 187v25h25v-25h-25z" fill="#E0EAE9"/><path d="m687 237v25h25v-25h-25z" fill="#E7EBEA"/><path d="m687 312v25h25v-25h-25z" fill="#505762"/><path d="m687 362v25h25v-25h-25z" fill="#454753"/><path d="m687 387v25h25v-25h-25z" fill="#464955"/><path d="m687 412v25 25h25v-25-25h-25z" fill="#444751"/><path d="m687 462v25h25v-25h-25z" fill="#6C6F77"/><path d="m687 512v25h25v-25h-25z" fill="#2A2932"/><path d="m687 587v25h25v-25h-25z" fill="#A7AEBC"/><path d="m687 737v25h25v-25h-25z" fill="#E6EDEB"/><path d="m687 762v25h25v-25h-25z" fill="#E8F0ED"/><path d="m812 537v25h25v-25h-25zm-125 250v25h25v-25h-25z" fill="#A3ACB9"/><path d="m687 812v25h25v-25h-25z" fill="#9498A8"/><path d="m687 862v25h25v-25h-25z" fill="#CC264E"/><path d="m687 887v25h25v-25h-25z" fill="#D92B4D"/><path d="m687 912v25h25v-25h-25z" fill="#DB2D4D"/><path d="m687 937v25h25v-25h-25z" fill="#E92B42"/><path d="m687 962v25h25v-25h-25z" fill="#EE3745"/><path d="m712 37v25h25v-25h-25z" fill="#56EDFE"/><path d="m712 62v25h25v-25h-25z" fill="#76F9FF"/><path d="m712 87v25h25v-25h-25z" fill="#79FCFF"/><path d="m712 112v25h25v-25h-25z" fill="#2FCCF9"/><path d="m37 187v25h25v-25h-25z" fill="#F02E47"/><path d="m37 212v25h25v-25h-25z" fill="#F3314B"/><path d="m37 237v25h25v-25h-25z" fill="#F02C48"/><path d="m37 262v25h25v-25h-25z" fill="#F12C4A"/><path d="m37 287v25h25v-25h-25z" fill="#EC2C4B"/><path d="m37 312v25h25v-25h-25z" fill="#F12846"/><path d="m37 337v25h25v-25h-25z" fill="#EF2643"/><path d="m37 362v25h25v-25h-25z" fill="#E62B46"/><path d="m37 387v25h25v-25h-25z" fill="#F43243"/><path d="m37 412v25h25v-25h-25z" fill="#F53C3D"/><path d="m37 437v25h25v-25h-25z" fill="#FA4E44"/><path d="m37 462v25h25v-25h-25z" fill="#F9553B"/><path d="m37 487v25h25v-25h-25z" fill="#F36141"/><path d="m37 512v25h25v-25h-25z" fill="#F77237"/><path d="m37 537v25h25v-25h-25z" fill="#EC7041"/><path d="m37 562v25h25v-25h-25z" fill="#F16E3A"/><path d="m37 587v25h25v-25h-25z" fill="#F97C31"/><path d="m37 612v25h25v-25h-25z" fill="#F67F33"/><path d="m37 637v25h25v-25h-25z" fill="#D69679"/><path d="m37 662v25h25v-25h-25z" fill="#FC9F3C"/><path d="m37 687v25h25v-25h-25z" fill="#F59B30"/><path d="m37 712v25h25v-25h-25z" fill="#FCB03C"/><path d="m37 737v25h25v-25h-25z" fill="#F9C05B"/><path d="m37 762v25h25v-25h-25z" fill="#F4CF71"/><path d="m37 787v25h25v-25h-25z" fill="#FCD753"/><path d="m37 812v25h25v-25h-25z" fill="#F9D047"/><path d="m62 137v25h25v-25h-25z" fill="#EE3244"/><path d="m62 162v25h25v-25h-25z" fill="#ED2C44"/><path d="m62 187v25h25v-25h-25z" fill="#F12E44"/><path d="m62 212v25h25v-25h-25z" fill="#EE2B41"/><path d="m62 237v25h25v-25h-25z" fill="#EF2C44"/><path d="m62 287v25h25v-25h-25z" fill="#ED2844"/><path d="m62 312v25h25v-25h-25z" fill="#F22843"/><path d="m62 337v25h25v-25h-25z" fill="#F0263F"/><path d="m62 362v25h25v-25h-25z" fill="#F12941"/><path d="m62 387v25h25v-25h-25z" fill="#F43040"/><path d="m62 412v25h25v-25h-25z" fill="#F83A3D"/><path d="m62 437v25h25v-25h-25z" fill="#F94A3A"/><path d="m62 462v25h25v-25h-25z" fill="#F6443B"/><path d="m62 487v25h25v-25h-25z" fill="#F6572F"/><path d="m62 512v25h25v-25h-25z" fill="#F86D30"/><path d="m62 537v25h25v-25h-25z" fill="#F5702E"/><path d="m62 562v25h25v-25h-25z" fill="#F9822B"/><path d="m62 587v25h25v-25h-25z" fill="#F37727"/><path d="m62 612v25h25v-25h-25z" fill="#F8812C"/><path d="m62 637v25h25v-25h-25z" fill="#F79031"/><path d="m62 662v25h25v-25h-25z" fill="#FAAD31"/><path d="m62 687v25h25v-25h-25z" fill="#F8A52D"/><path d="m62 712v25h25v-25h-25z" fill="#F8B02E"/><path d="m62 737v25h25v-25h-25z" fill="#FCC73A"/><path d="m62 762v25h25v-25h-25z" fill="#FECD3C"/><path d="m62 787v25h25v-25h-25z" fill="#FDD74C"/><path d="m62 812v25h25v-25h-25z" fill="#FFE059"/><path d="m62 837v25h25v-25h-25z" fill="#FBD84F"/><path d="m62 862v25h25v-25h-25z" fill="#FBDE6B"/><path d="m87 112v25h25v-25h-25z" fill="#EF3345"/><path d="m87 162v25h25v-25h-25z" fill="#F43147"/><path d="m87 187v25h25v-25h-25z" fill="#F63349"/><path d="m87 212v25h25v-25h-25z" fill="#F23649"/><path d="m87 237v25h25v-25h-25z" fill="#F02B47"/><path d="m87 262v25h25v-25h-25z" fill="#F32B44"/><path d="m87 287v25h25v-25h-25z" fill="#F42E48"/><path d="m87 312v25h25v-25h-25z" fill="#F32943"/><path d="m87 362v25h25v-25h-25z" fill="#F33944"/><path d="m87 412v25h25v-25h-25z" fill="#F94341"/><path d="m87 437v25h25v-25h-25z" fill="#FC5E3E"/><path d="m87 462v25h25v-25h-25z" fill="#FA5B3B"/><path d="m87 487v25h25v-25h-25z" fill="#F97234"/><path d="m87 512v25h25v-25h-25z" fill="#FB7636"/><path d="m87 562v25h25v-25h-25z" fill="#F9802C"/><path d="m87 587v25h25v-25h-25z" fill="#F87D2C"/><path d="m87 612v25h25v-25h-25z" fill="#FA842D"/><path d="m87 637v25h25v-25h-25z" fill="#F9832F"/><path d="m87 662v25h25v-25h-25z" fill="#FB922F"/><path d="m112 87v25h25v-25h-25z" fill="#ED2E43"/><path d="m87 687v25h25v-25h-25z" fill="#FFAD2F"/><path d="m112 112v25h25v-25h-25z" fill="#F12C44"/><path d="m112 137v25h25v-25h-25z" fill="#F02D44"/><path d="m112 187v25h25v-25h-25z" fill="#F23044"/><path d="m112 212v25h25v-25h-25z" fill="#F32D46"/><path d="m112 262v25h25v-25h-25z" fill="#F42B47"/><path d="m112 287v25h25v-25h-25z" fill="#F02943"/><path d="m112 312v25h25v-25h-25z" fill="#F32944"/><path d="m112 362v25h25v-25h-25z" fill="#F43242"/><path d="m112 387v25h25v-25h-25z" fill="#F93C40"/><path d="m112 437v25h25v-25h-25z" fill="#FB4E3B"/><path d="m87 737v25h25v-25h-25z" fill="#FBB73B"/><path d="m87 762v25h25v-25h-25z" fill="#FDCB43"/><path d="m87 787v25h25v-25h-25z" fill="#FED54C"/><path d="m87 812v25h25v-25h-25z" fill="#FEDA56"/><path d="m87 837v25h25v-25h-25z" fill="#FDD34F"/><path d="m87 862v25h25v-25h-25zm125 100v25h25v-25h-25z" fill="#FCDD58"/><path d="m87 887v25h25v-25h-25z" fill="#FEE36B"/><path d="m112 462v25h25v-25h-25z" fill="#F84F35"/><path d="m112 487v25h25v-25h-25z" fill="#FA6E36"/><path d="m112 512v25h25v-25h-25z" fill="#FC7530"/><path d="m112 537v25h25v-25h-25z" fill="#F97132"/><path d="m112 562v25h25v-25h-25z" fill="#FC812A"/><path d="m112 612v25h25v-25h-25z" fill="#F97F28"/><path d="m112 637v25h25v-25h-25z" fill="#FB832A"/><path d="m112 662v25h25v-25h-25z" fill="#F88E29"/><path d="m112 762v25h25v-25h-25z" fill="#FECE44"/><path d="m112 787v25h25v-25h-25z" fill="#FFD34A"/><path d="m112 812v25h25v-25h-25z" fill="#FACB43"/><path d="m112 837v25h25v-25h-25z" fill="#FED04B"/><path d="m112 862v25h25v-25h-25z" fill="#FDDA57"/><path d="m112 887v25h25v-25h-25z" fill="#FCE161"/><path d="m112 912v25h25v-25h-25z" fill="#FEDB5D"/><path d="m137 62v25h25v-25h-25z" fill="#F23B4A"/><path d="m137 87v25h25v-25h-25z" fill="#F03846"/><path d="m137 112v25h25v-25h-25z" fill="#F33249"/><path d="m137 137v25h25v-25h-25z" fill="#F3324A"/><path d="m137 187v25h25v-25h-25z" fill="#EE2842"/><path d="m137 212v25h25v-25h-25z" fill="#F02A47"/><path d="m137 237v25h25v-25h-25z" fill="#EF2946"/><path d="m137 262v25h25v-25h-25z" fill="#F32644"/><path d="m137 287v25h25v-25h-25z" fill="#EF2440"/><path d="m137 312v25h25v-25h-25z" fill="#F02543"/><path d="m137 412v25h25v-25h-25z" fill="#F53F3C"/><path d="m137 437v25h25v-25h-25z" fill="#FC453B"/><path d="m137 462v25h25v-25h-25z" fill="#F9453A"/><path d="m137 487v25h25v-25h-25z" fill="#F5522F"/><path d="m137 512v25h25v-25h-25z" fill="#F6662E"/><path d="m137 537v25h25v-25h-25z" fill="#F6642D"/><path d="m137 562v25h25v-25h-25z" fill="#FE7A2D"/><path d="m137 587v25h25v-25h-25z" fill="#F7732E"/><path d="m137 612v25h25v-25h-25z" fill="#F56E28"/><path d="m137 637v25h25v-25h-25z" fill="#F77126"/><path d="m137 737v25h25v-25h-25z" fill="#9CA6B0"/><path d="m137 787v25h25v-25h-25z" fill="#FDC73A"/><path d="m137 812v25h25v-25h-25z" fill="#FCBB36"/><path d="m137 837v25h25v-25h-25z" fill="#FCC93F"/><path d="m137 862v25h25v-25h-25z" fill="#FDD44B"/><path d="m137 887v25h25v-25h-25z" fill="#FEDE59"/><path d="m137 912v25h25v-25h-25z" fill="#FCD650"/><path d="m137 937v25h25v-25h-25z" fill="#FDDB5B"/><path d="m162 62v25h25v-25h-25z" fill="#F59381"/><path d="m162 87v25h25v-25h-25z" fill="#FC4150"/><path d="m162 112v25h25v-25h-25z" fill="#F94250"/><path d="m162 137v25h25v-25h-25z" fill="#FB6A64"/><path d="m162 162v25h25v-25h-25z" fill="#F33E4E"/><path d="m162 187v25h25v-25h-25z" fill="#F5354B"/><path d="m162 212v25h25v-25h-25z" fill="#F0394C"/><path d="m162 237v25h25v-25h-25z" fill="#F43D4B"/><path d="m162 262v25h25v-25h-25z" fill="#F02B44"/><path d="m162 287v25h25v-25h-25z" fill="#F33348"/><path d="m162 312v25h25v-25h-25z" fill="#F53A42"/><path d="m162 362v25h25v-25h-25z" fill="#6A727F"/><path d="m162 762v25h25v-25h-25z" fill="#AAADB7"/><path d="m162 837v25h25v-25h-25z" fill="#FBC13C"/><path d="m162 862v25h25v-25h-25z" fill="#FDCF42"/><path d="m162 887v25h25v-25h-25z" fill="#FBDF56"/><path d="m162 912v25h25v-25h-25z" fill="#FADA51"/><path d="m162 937v25h25v-25h-25z" fill="#FCDE60"/><path d="m187 362v25h25v-25h-25z" fill="#646F7C"/><path d="m187 437v25h25v-25h-25z" fill="#A0A9B9"/><path d="m187 587v25h25v-25h-25z" fill="#F3F5F5"/><path d="m187 612v25h25v-25h-25z" fill="#F9F9F9"/><path d="m187 712v25h25v-25h-25z" fill="#DEE5E7"/><path d="m187 737v25h25v-25h-25z" fill="#E6EBEC"/><path d="m687 287v25h25v-25h-25zm-400 325v25h25v-25h-25zm125 0v25h25v-25h-25zm325 0v25h25v25 25h25v-25-25-25h-25-25zm25 75h-25v25h25v-25zm-475-25v25h25v-25h-25zm100 50v25h25v-25h-25zm250 0v25h25v-25h-25zm-450 50v25h25v-25h-25zm300 50v25 25h25v-25-25h-25z" fill="#E7ECEA"/><path d="m187 787v25h25v-25h-25z" fill="#E8ECEA"/><path d="m187 812v25h25v-25h-25z" fill="#585A69"/><path d="m187 862v25h25v-25h-25z" fill="#FECA43"/><path d="m187 887v25h25v-25h-25z" fill="#F2BD3C"/><path d="m187 912v25h25v-25h-25z" fill="#FEE059"/><path d="m187 937v25h25v-25h-25z" fill="#FEDC59"/><path d="m187 962v25h25v-25h-25z" fill="#FCDB56"/><path d="m212 37v25h25v-25h-25z" fill="#F9364F"/><path d="m212 62v25h25v-25h-25z" fill="#FC7A71"/><path d="m212 87v25h25v-25h-25z" fill="#FF6769"/><path d="m212 112v25h25v-25h-25z" fill="#F6384B"/><path d="m212 187v25h25v-25h-25z" fill="#F53047"/><path d="m212 212v25h25v-25h-25z" fill="#F63148"/><path d="m212 262v25h25v-25h-25z" fill="#F32E43"/><path d="m212 362v25h25v-25h-25z" fill="#555762"/><path d="m212 387v25h25v-25h-25z" fill="#43434C"/><path d="m462 362v25h25v-25h-25zm-250 50v25h25v-25h-25z" fill="#2D2C35"/><path d="m212 487v25h25v-25h-25z" fill="#717681"/><path d="m212 512v25h25v-25h-25z" fill="#ACB2B9"/><path d="m212 612v25h25v-25h-25z" fill="#DDE6E5"/><path d="m387 287v25h25v-25h-25zm-175 350v25h25v-25h-25z" fill="#E1E7E7"/><path d="m212 787v25h25v-25h-25z" fill="#E5ECEC"/><path d="m212 812v25h25v-25h-25z" fill="#9FA7B0"/><path d="m212 862v25h25v-25h-25z" fill="#FBB831"/><path d="m212 887v25h25v-25h-25z" fill="#FEC03B"/><path d="m212 912v25h25v-25h-25z" fill="#FAC039"/><path d="m212 937v25h25v-25h-25z" fill="#FCD750"/><path d="m237 37v25h25v-25h-25zm75 0v25h25v-25h-25z" fill="#F84957"/><path d="m237 62v25h25v-25h-25z" fill="#FD8880"/><path d="m237 87v25h25v-25h-25z" fill="#F24150"/><path d="m237 112v25h25v-25h-25z" fill="#F63E4E"/><path d="m237 137v25h25v-25h-25z" fill="#FC5156"/><path d="m237 162v25h25v-25h-25z" fill="#F6334B"/><path d="m237 187v25h25v-25h-25z" fill="#F43049"/><path d="m237 212v25h25v-25h-25z" fill="#F53049"/><path d="m237 312v25h25v-25h-25z" fill="#666E74"/><path d="m237 337v25h25v-25h-25z" fill="#5F626A"/><path d="m237 362v25h25v-25h-25z" fill="#575861"/><path d="m237 387v25h25v-25h-25z" fill="#46474F"/><path d="m237 412v25h25v-25h-25z" fill="#3B3A43"/><path d="m237 437v25h25v-25h-25z" fill="#201D28"/><path d="m237 462v25h25v-25h-25z" fill="#36323D"/><path d="m237 537v25h25v-25h-25z" fill="#A4ADB5"/><path d="m237 562v25h25v-25h-25z" fill="#9CA2A8"/><path d="m237 612v25h25v-25h-25z" fill="#E3E9E8"/><path d="m237 762v25h25v-25h-25z" fill="#ABB2BF"/><path d="m237 787v25h25v-25h-25z" fill="#8B909F"/><path d="m237 812v25h25v-25h-25zm125 0v25h25v-25h-25z" fill="#979EA9"/><path d="m237 862v25h25v-25h-25z" fill="#FFC83B"/><path d="m237 887v25h25v-25h-25z" fill="#FED045"/><path d="m237 912v25h25v-25h-25z" fill="#FDC83F"/><path d="m237 937v25h25v-25h-25z" fill="#FCD049"/><path d="m237 962v25h25v-25h-25z" fill="#FDDB5A"/><path d="m287 837v25h25v-25h-25z" fill="#EB5725"/><path d="m287 862v25h25v-25h-25z" fill="#EB4C1F"/><path d="m287 887v25h25v-25h-25z" fill="#FDBD33"/><path d="m287 912v25h25v-25h-25z" fill="#FAB431"/><path d="m287 937v25h25v-25h-25z" fill="#FDC138"/><path d="m287 962v25h25v-25h-25z" fill="#FCD549"/><path d="m312 62v25h25v-25h-25z" fill="#FF8177"/><path d="m312 87v25h25v-25h-25z" fill="#F5384F"/><path d="m312 112v25h25v-25h-25z" fill="#F6384D"/><path d="m312 187v25h25v-25h-25zm300 250v25h25v-25h-25z" fill="#FCFFFF"/><path d="m312 312v25h25v-25h-25z" fill="#5E646D"/><path d="m562 337v25h25v-25h-25zm-250 25v25h25v-25h-25z" fill="#45464F"/><path d="m312 462v25h25v-25h-25z" fill="#434653"/><path d="m312 487v25h25v-25h-25z" fill="#404350"/><path d="m312 512v25h25v-25h-25z" fill="#2C2B34"/><path d="m312 562v25h25v-25h-25zm50 0v25h25v-25h-25z" fill="#9DA4B1"/><path d="m312 587v25h25v-25h-25z" fill="#A8B0BB"/><path d="m312 637v25h25v-25h-25z" fill="#E6EAEA"/><path d="m312 712v25h25v-25h-25z" fill="#CCD4DA"/><path d="m312 737v25h25v-25h-25z" fill="#9CA5AF"/><path d="m312 762v25h25v-25h-25z" fill="#848B99"/><path d="m312 837v25h25v-25h-25z" fill="#E6592D"/><path d="m312 862v25h25v-25h-25z" fill="#F25C2F"/><path d="m312 887v25h25v-25h-25z" fill="#F46130"/><path d="m312 912v25h25v-25h-25z" fill="#FCAD2A"/><path d="m312 937v25h25v-25h-25z" fill="#FC9D29"/><path d="m312 962v25h25v-25h-25z" fill="#FDBB38"/><path d="m337 37v25h25v-25h-25z" fill="#FB7D7A"/><path d="m337 62v25h25v-25h-25z" fill="#FE7070"/><path d="m337 87v25h25v-25h-25z" fill="#FF6E6F"/><path d="m337 112v25h25v-25h-25z" fill="#FA4552"/><path d="m337 162v25h25v-25h-25z" fill="#FDFDFF"/><path d="m337 212v25h25v-25h-25z" fill="#D4E1E4"/><path d="m337 312v25h25v-25h-25z" fill="#5E656D"/><path d="m337 387v25h25v-25h-25z" fill="#42444E"/><path d="m337 412v25h25v-25h-25z" fill="#FFFEFF"/><path d="m337 437v25h25v-25h-25z" fill="#EAECED"/><path d="m337 462v25h25v-25h-25z" fill="#3C3E4A"/><path d="m337 487v25h25v-25h-25z" fill="#3E3E49"/><path d="m337 512v25h25v-25h-25z" fill="#302E38"/><path d="m337 562v25h25v-25h-25z" fill="#9EA4B2"/><path d="m337 587v25h25v-25h-25z" fill="#A8B2BC"/><path d="m437 562v25h25v-25h-25zm-100 200v25h25v-25h-25z" fill="#EAEFEE"/><path d="m337 812v25h25v-25h-25z" fill="#8A8E9C"/><path d="m337 862v25h25v-25h-25z" fill="#E55320"/><path d="m337 887v25h25v-25h-25z" fill="#FC8F29"/><path d="m337 912v25h25v-25h-25z" fill="#FD9728"/><path d="m337 937v25h25v-25h-25z" fill="#FFBA37"/><path d="m337 962v25h25v-25h-25z" fill="#FFCE44"/><path d="m362 37v25h25v-25h-25z" fill="#F96F6B"/><path d="m362 62v25h25v-25h-25z" fill="#FE6A6C"/><path d="m362 87v25h25v-25h-25z" fill="#F15057"/><path d="m362 212v25h25v-25h-25z" fill="#C3CACF"/><path d="m362 312v25h25v-25h-25z" fill="#5D626B"/><path d="m362 362v25h25v-25h-25z" fill="#4A4C57"/><path d="m362 412v25h25v-25h-25z" fill="#4E525A"/><path d="m362 437v25h25v-25h-25z" fill="#50535B"/><path d="m362 462v25h25v-25h-25z" fill="#5D6169"/><path d="m362 487v25h25v-25h-25z" fill="#5B5F67"/><path d="m362 512v25h25v-25h-25z" fill="#272530"/><path d="m362 587v25h25v-25h-25z" fill="#A6B0BD"/><path d="m362 737v25h25v-25h-25z" fill="#E6ECED"/><path d="m362 787v25h25v-25h-25z" fill="#E6EFEF"/><path d="m362 862v25h25v-25h-25z" fill="#E84428"/><path d="m362 887v25h25v-25h-25z" fill="#F78525"/><path d="m362 912v25h25v-25h-25z" fill="#FA9B21"/><path d="m362 937v25h25v-25h-25z" fill="#FCB933"/><path d="m362 962v25h25v-25h-25z" fill="#FECB42"/><path d="m187 37v25h25v-25h-25z" fill="#F8374A"/><path d="m187 62v25h25v-25h-25z" fill="#FA8077"/><path d="m187 87v25h25v-25h-25z" fill="#F45158"/><path d="m187 112v25h25v-25h-25z" fill="#F83E4F"/><path d="m187 137v25h25v-25h-25z" fill="#F2314B"/><path d="m187 162v25h25v-25h-25z" fill="#F43549"/><path d="m187 187v25h25v-25h-25z" fill="#F72E45"/><path d="m187 212v25h25v-25h-25z" fill="#F33547"/><path d="m187 237v25 25h25v-25-25h-25z" fill="#EE2A43"/><path d="m187 287v25h25v-25h-25z" fill="#F22C44"/><path d="m187 312v25h25v-25h-25z" fill="#F53942"/><path d="m387 37v25h25v-25h-25z" fill="#FD6B68"/><path d="m387 62v25h25v-25h-25z" fill="#FF6D6E"/><path d="m387 87v25h25v-25h-25z" fill="#E53347"/><path d="m387 187v25h25v-25h-25z" fill="#BAC5CE"/><path d="m387 312v25h25v-25h-25z" fill="#595F68"/><path d="m387 362v25h25v-25h-25zm375 50v25h25v-25h-25z" fill="#474A55"/><path d="m387 387v25h25v-25h-25zm25 75v25h25v-25h-25z" fill="#474C56"/><path d="m387 412v25h25v-25h-25zm200 25v25h25v-25h-25z" fill="#454955"/><path d="m387 437v25h25v-25h-25z" fill="#41444F"/><path d="m387 462v25h25v-25h-25z" fill="#5F626B"/><path d="m387 487v25h25v-25h-25z" fill="#2C2C35"/><path d="m387 512v25h25v-25h-25z" fill="#26242F"/><path d="m387 562v25h25v-25h-25z" fill="#9BA4B1"/><path d="m387 587v25h25v-25h-25z" fill="#A3ACBB"/><path d="m387 737v25h25v-25h-25z" fill="#DFE3E4"/><path d="m387 762v25h25v-25h-25z" fill="#A2A7AF"/><path d="m387 787v25h25v-25h-25z" fill="#494D5E"/><path d="m387 837v25h25v-25h-25z" fill="#EA4025"/><path d="m387 862v25h25v-25h-25z" fill="#EC462A"/><path d="m387 887v25h25v-25h-25z" fill="#EC482A"/><path d="m387 912v25h25v-25h-25z" fill="#FEBB30"/><path d="m387 937v25h25v-25h-25z" fill="#FEBB37"/><path d="m412 62v25h25v-25h-25z" fill="#FF8079"/><path d="m412 87v25h25v-25h-25z" fill="#FD8179"/><path d="m412 212v25h25v-25h-25z" fill="#FDFFFE"/><path d="m412 262v25h25v-25h-25z" fill="#DFE3E5"/><path d="m412 287v25h25v-25h-25z" fill="#E5EBEC"/><path d="m412 37v25h25v-25h-25z" fill="#FC6A6C"/><path d="m412 312v25h25v-25h-25z" fill="#5C616A"/><path d="m412 362v25h25v-25h-25z" fill="#494B57"/><path d="m412 387v25h25v-25h-25z" fill="#464B57"/><path d="m412 412v25h25v-25h-25z" fill="#464A57"/><path d="m412 487v25h25v-25h-25z" fill="#383B45"/><path d="m412 562v25h25v-25h-25z" fill="#9EA6B5"/><path d="m412 587v25h25v-25h-25z" fill="#EAEEED"/><path d="m412 737v25h25v-25h-25z" fill="#C9D0D2"/><path d="m412 762v25h25v-25h-25z" fill="#9397A3"/><path d="m412 862v25h25v-25h-25z" fill="#ED492C"/><path d="m412 887v25h25v-25h-25z" fill="#EC4B2B"/><path d="m412 912v25h25v-25h-25z" fill="#EF512E"/><path d="m412 937v25h25v-25h-25z" fill="#F6B43F"/><path d="m412 962v25h25v-25h-25z" fill="#FCCC43"/><path d="m437 37v25h25v-25h-25z" fill="#F45F69"/><path d="m437 62v25h25v-25h-25z" fill="#F4626B"/><path d="m437 87v25h25v-25h-25z" fill="#F23955"/><path d="m437 237v25h25v-25h-25z" fill="#E1E5E6"/><path d="m562 137v25h25v-25h-25zm-125 125v25h25v-25h-25z" fill="#E2E7E6"/><path d="m437 312v25h25v-25h-25z" fill="#797F87"/><path d="m437 337v25h25v-25h-25z" fill="#353641"/><path d="m437 362v25h25v-25h-25z" fill="#2B2B36"/><path d="m437 387v25h25v-25h-25zm250 100v25h25v-25h-25z" fill="#2E2F3A"/><path d="m437 412v25h25v-25h-25z" fill="#32303C"/><path d="m462 387v25h25v-25h-25zm-25 125v25h25v-25h-25z" fill="#1F1D28"/><path d="m437 537v25h25v-25h-25z" fill="#B3B8C3"/><path d="m437 587v25h25v-25h-25z" fill="#E9EEED"/><path d="m437 712v25h25v-25h-25z" fill="#E7EAEC"/><path d="m437 737v25h25v-25h-25zm200 0v25h25v-25h-25z" fill="#E9EEEE"/><path d="m437 762v25h25v-25h-25z" fill="#F8FAF9"/><path d="m562 162v25h25v-25h-25zm-125 625v25h25v-25h-25z" fill="#E3E8E7"/><path d="m437 812v25h25v-25h-25z" fill="#9EA4AF"/><path d="m252.69 0c-139.99 0-252.69 112.7-252.69 252.69v518.62c0 139.99 112.7 252.69 252.69 252.69h518.62c139.99 0 252.69-112.7 252.69-252.69v-518.62c0-139.99-112.7-252.69-252.69-252.69zm23.803 47h471.01c127.14 0 229.49 102.35 229.49 229.49v471.01c0 127.14-102.35 229.49-229.49 229.49h-471.01c-127.14 0-229.49-102.35-229.49-229.49v-471.01c0-127.14 102.35-229.49 229.49-229.49z" fill="#C3D7DE"/></svg>
