<?xml version="1.0" encoding="UTF-8"?>
<svg width="48" height="48" version="1.1" viewBox="0 0 12.7 12.7" xmlns="http://www.w3.org/2000/svg" xmlns:xlink="http://www.w3.org/1999/xlink"><defs><linearGradient id="a"><stop stop-color="#34495e" offset="0"/><stop stop-color="#2980b9" stop-opacity=".23451" offset="1"/></linearGradient><linearGradient id="e" x1="24" x2="24" y1="294" y2="257" gradientTransform="matrix(.26458 0 0 .25828 0 -64.294)" gradientUnits="userSpaceOnUse"><stop stop-color="#1d99f3" offset="0"/><stop stop-color="#3daee9" offset="1"/></linearGradient><linearGradient id="d" x1="8.7067" x2="57.365" y1="10.2" y2="58.859" gradientTransform="scale(.26458)" gradientUnits="userSpaceOnUse"><stop stop-color="#fcfcfc" offset="0"/><stop stop-color="#fff" stop-opacity=".36726" offset="1"/></linearGradient><linearGradient id="c" x1="7.5606" x2="30.169" y1="1.7318" y2="24.34" gradientTransform="scale(.26458)" gradientUnits="userSpaceOnUse" xlink:href="#a"/><linearGradient id="b" x1="96.584" x2="148.58" y1="106.91" y2="158.9" gradientTransform="scale(.26458)" gradientUnits="userSpaceOnUse" xlink:href="#a"/></defs><g stroke-width=".26458"><rect x="1.0583" y="1.0583" width="10.583" height="10.583" ry="1.8521" fill="#2980b9" style="paint-order:markers fill stroke"/><rect x="1.0583" y="1.0583" width="10.583" height="10.319" ry="1.808" fill="url(#e)" style="paint-order:markers fill stroke"/><path transform="scale(.26458)" d="m39.535 33.705c1.4273 1.426 0 2.8535 0 2.8535l-2.2344 2.2344c-2.1937 2.1937-9.8023 0.002382-13.467-3.6621l7.8691 7.8691h5.4629c3.173 0 5.8196-2.1444 6.5957-5.0664l-4.2266-4.2285z" fill="url(#b)" opacity=".482" style="paint-order:normal"/></g><path d="m5.2732 3.731c0.37765 0.37765 0 0.75487 0 0.75487l-0.18868 0.18868c-0.31358 0.31358-0.31358 0.81893 0 1.1325l1.6761 1.6761c0.31358 0.31358 0.81893 0.31358 1.1325 0l0.18868-0.18868s0.37693-0.37731 0.75446-2.8e-4l1.4e-4 -1.4e-4z" fill="url(#c)" opacity=".482" stroke-width=".070004"/><rect x="1.8551" y="6.0671" width=".15751" height=".017501" ry=".0087505" fill="#fdbc4b" stroke-width=".26458" style="paint-order:normal"/><path d="m3.6497 2.1075c-0.37729-0.37765-0.75488 0-0.75488 0l-0.5912 0.5912c-0.58043 0.58043-8.202e-4 2.5933 0.96874 3.5629l3.0337 3.0337c0.96957 0.96957 2.9825 1.5492 3.5629 0.96874l0.5912-0.5912s0.37765-0.37759 0-0.75488l-1.6235-1.6235c-0.37765-0.37765-0.75488 0-0.75488 0l-0.18872 0.18872c-0.31358 0.31358-0.81894 0.31358-1.1325 3e-7l-1.6762-1.6762c-0.31358-0.31358-0.31358-0.81894 0-1.1325l0.18872-0.18872s0.37765-0.37723 0-0.75488z" fill="url(#d)" stroke-width=".26458"/><flowRoot fill="#000000" font-family="sans-serif" font-size="10.583px" letter-spacing="0px" stroke-width=".26458" word-spacing="0px" style="line-height:1.25" xml:space="preserve"><flowRegion><rect x="-215.53" y="-106.54" width="190.08" height="166.51" stroke-width=".070004"/></flowRegion><flowPara/></flowRoot></svg>
