<?xml version="1.0" encoding="UTF-8"?>
<svg id="d" enable-background="new" version="1.0" viewBox="0 0 128 128" xmlns="http://www.w3.org/2000/svg" xmlns:xlink="http://www.w3.org/1999/xlink"><title id="e">Adwaita Icon Template</title><defs id="f"><linearGradient id="b" x1="78.692" x2="67.122" y1="238.31" y2="249.88" gradientTransform="translate(55.101 .071067)" gradientUnits="userSpaceOnUse"><stop id="g" stop-color="#f6f5f4" offset="0"/><stop id="h" stop-color="#fff" offset=".25732"/><stop id="i" stop-color="#c0bfbc" offset=".6"/><stop id="j" stop-color="#f6f5f4" offset=".70312"/><stop id="k" stop-color="#f6f5f4" offset="1"/></linearGradient><linearGradient id="a" x1="88.508" x2="85.887" y1="67.68" y2="70.301" gradientTransform="translate(55.77 171.28)" gradientUnits="userSpaceOnUse"><stop id="l" stop-color="#c0bfbc" offset="0"/><stop id="m" stop-color="#f6f5f4" offset="1"/></linearGradient><linearGradient id="c" x1="142" x2="198" y1="268" y2="268" gradientUnits="userSpaceOnUse"><stop id="n" stop-color="#77767b" offset="0"/><stop id="o" stop-color="#c0bfbc" offset=".17589"/><stop id="p" stop-color="#77767b" offset=".40926"/><stop id="q" stop-color="#3d3846" offset="1"/></linearGradient></defs><g id="r" transform="translate(0,-172)"><g id="s"><rect id="t" x="8" y="224" width="112" height="64" rx="8" ry="8" enable-background="new" fill="#2ec27e" style="paint-order:normal"/><g id="u" transform="matrix(1 0 0 1.1429 -4.8523e-8 -22.857)" enable-background="new" fill="none" stroke="#26a269"><path id="v" d="m27 230v14" stroke-width="1.8708"/><path id="w" d="m32 230v14" stroke-width="3.7417"/><path id="x" d="m37 230v14" stroke-width="1.8708"/><path id="y" d="m41 230v14" stroke-width="1.8708"/><path id="z" d="m46 230v14" stroke-width="3.7417"/><path id="aa" d="m56 230v14" stroke-width="3.7417"/><path id="ab" d="m51 230v14" stroke-width="1.8708"/><path id="ac" d="m63 230v14" stroke-width="5.6125"/><path id="ad" d="m69 230v14" stroke-width="1.8708"/><path id="ae" d="m73 230v14" stroke-width="1.8708"/><path id="af" d="m77 230v14" stroke-width="1.8708"/><path id="ag" d="m82 230v14" stroke-width="3.7417"/><path id="ah" d="m87 230v14" stroke-width="1.8708"/><path id="ai" d="m99 230v14" stroke-width="1.8708"/><path id="aj" d="m93 230v14" stroke-width="5.6125"/><path id="ak" d="m103 230v14" stroke-width="1.8708"/><path id="al" d="m107 230v14" stroke-width="1.8708"/></g><g id="am" transform="translate(-4.8523e-8 12)" enable-background="new" fill="#8ff0a4"><path id="an" d="m22.216 254 1.1973 5.0684-3.9004-3.2793-1.4531 2.5918 5.0098 1.6582-5.043 1.5898 1.4336 2.6406 3.9551-3.3047-1.1992 5.0352h3.4102l-1.1016-4.959 3.834 3.3144 1.4766-2.6191-4.9785-1.6856 5.1172-1.4258-1.4531-2.6191-4.0332 3.084 1.1367-5.0898z"/><path id="ao" d="m38.216 254 1.1973 5.0684-3.9004-3.2793-1.4531 2.5918 5.0098 1.6582-5.043 1.5898 1.4336 2.6406 3.9551-3.3047-1.1992 5.0352h3.4102l-1.1016-4.959 3.834 3.3144 1.4766-2.6191-4.9785-1.6856 5.1172-1.4258-1.4531-2.6191-4.0332 3.084 1.1367-5.0898z"/><path id="ap" d="m54.216 254 1.1973 5.0684-3.9004-3.2793-1.4531 2.5918 5.0098 1.6582-5.043 1.5898 1.4336 2.6406 3.9551-3.3047-1.1992 5.0352h3.4102l-1.1016-4.959 3.834 3.3144 1.4766-2.6191-4.9785-1.6856 5.1172-1.4258-1.4531-2.6191-4.0332 3.084 1.1367-5.0898z"/><path id="aq" d="m70.216 254 1.1973 5.0684-3.9004-3.2793-1.4531 2.5918 5.0098 1.6582-5.043 1.5898 1.4336 2.6406 3.9551-3.3047-1.1992 5.0352h3.4102l-1.1016-4.959 3.834 3.3144 1.4766-2.6191-4.9785-1.6856 5.1172-1.4258-1.4531-2.6191-4.0332 3.084 1.1367-5.0898z"/><path id="ar" d="m86.216 254 1.1973 5.0684-3.9004-3.2793-1.4531 2.5918 5.0098 1.6582-5.043 1.5898 1.4336 2.6406 3.9551-3.3047-1.1992 5.0352h3.4102l-1.1016-4.959 3.834 3.3144 1.4766-2.6191-4.9785-1.6856 5.1172-1.4258-1.4531-2.6191-4.0332 3.084 1.1367-5.0898z"/><path id="as" d="m102.22 254 1.1973 5.0684-3.9004-3.2793-1.4531 2.5918 5.0098 1.6582-5.043 1.5898 1.4336 2.6406 3.9551-3.3047-1.1992 5.0352h3.4102l-1.1016-4.959 3.834 3.3144 1.4766-2.6191-4.9785-1.6856 5.1172-1.4258-1.4531-2.6191-4.0332 3.084 1.1367-5.0898z"/></g><rect id="at" x="8" y="200" width="112" height="40" rx="8" ry="8" enable-background="new" fill="#2ec27e" style="paint-order:normal"/><rect id="au" x="8" y="214" width="112" height="18" enable-background="new" fill="#241f31" style="paint-order:normal"/><path id="av" d="m22 242-7.2 6 7.2 6z" enable-background="new" fill="#26a269" fill-rule="evenodd"/></g><g id="aw" transform="rotate(180 107.5 242)" enable-background="new"><path id="ax" d="m170 296a28 28 0 0 1-28-28 28 28 0 0 1 28-28 28 28 0 0 1 28 28 28 28 0 0 1-28 28zm0.0312-12a6.0313 6 0 0 0 6.0312-6 6.0313 6 0 0 0-6.0312-6 6.0313 6 0 0 0-6.0312 6 6.0313 6 0 0 0 6.0312 6z" enable-background="new" fill="url(#c)" style="paint-order:normal"/><g id="ay" transform="matrix(.70711 -.70711 -.70711 -.70711 243.95 484.32)"><path id="az" d="m125.41 214.44-16.971 16.971 8.3674 8.3674 3.6534-3.4177 4.2426 4.2426h2.8284v2.8284l2.1213 2.1213h4.2426v4.2426h2.8284v2.8284h5.6568v5.6569h2.8284v2.8284h12.728l4.9497-4.9498v-4.2426z" enable-background="new" fill="#77767b" style="paint-order:normal"/><path id="ba" d="m124 213.03-16.971 16.971 8.3674 8.3674 3.6534-3.4177 4.2426 4.2426h2.8284v2.8284l2.1213 2.1213h4.2426v4.2426h2.8284v2.8284h5.6568v5.6569h2.8284v2.8284h12.728l4.9497-4.9498v-4.2426z" enable-background="new" fill="url(#b)" style="paint-order:normal"/><path id="bb" d="m125.75 221.26c-1.7939 2e-3 -2.6781 2.1824-1.3926 3.4336l33.585 33.586 2.8284-2.8284-33.586-33.586c-0.37702-0.38755-0.89487-0.60597-1.4356-0.60547z" enable-background="new" fill="url(#a)" style="paint-order:normal"/></g><path id="bc" d="m170 298a28 28 0 0 0 28-28 28 28 0 0 0-28-28 28 28 0 0 0-28 28 28 28 0 0 0 28 28zm-0.0312-12a6.0313 6 0 0 1-6.0312-6 6.0313 6 0 0 1 6.0312-6 6.0313 6 0 0 1 6.0312 6 6.0313 6 0 0 1-6.0312 6z" enable-background="new" fill="#f6f5f4" style="paint-order:normal"/></g></g></svg>
