<?xml version="1.0" encoding="UTF-8"?>
<svg id="aa" version="1.0" viewBox="0 0 32 32" xmlns="http://www.w3.org/2000/svg" xmlns:xlink="http://www.w3.org/1999/xlink"><defs id="ab"><filter id="y" color-interpolation-filters="sRGB"><feGaussianBlur id="ac" stdDeviation="1.4771469"/></filter><filter id="z" color-interpolation-filters="sRGB"><feGaussianBlur id="ad" stdDeviation="1.474452"/></filter><linearGradient id="c"><stop id="ae" offset="0"/><stop id="af" stop-opacity="0" offset="1"/></linearGradient><linearGradient id="e" x1="610.13" x2="610.13" y1="-109.12" y2="153.53" gradientTransform="matrix(1.3988 0 0 1.9392 -268.42 164.38)" gradientUnits="userSpaceOnUse" xlink:href="#c"/><linearGradient id="d" x1="569.73" x2="569.73" y1="786.06" y2="653.24" gradientTransform="matrix(1.6318 0 0 1.9932 -480.92 -922.49)" gradientUnits="userSpaceOnUse" xlink:href="#c"/><filter id="q" color-interpolation-filters="sRGB"><feGaussianBlur id="ag" stdDeviation="1.4823768"/></filter><filter id="s" color-interpolation-filters="sRGB"><feGaussianBlur id="ah" stdDeviation="2.9297737"/></filter><filter id="r" x="-.12712" y="-.12712" width="1.2542" height="1.2542" color-interpolation-filters="sRGB"><feGaussianBlur id="ai" stdDeviation="15.516582"/></filter><filter id="g" x="-.24029" y="-.23971" width="1.4806" height="1.4794" color-interpolation-filters="sRGB"><feGaussianBlur id="aj" stdDeviation="7.1289414"/></filter><filter id="f" color-interpolation-filters="sRGB"><feGaussianBlur id="ak" stdDeviation="2.9298719"/></filter><path id="b" d="m58.767 227.85c-30.038-62.838-3.4482-138.13 59.39-168.17 62.838-30.038 138.13-3.4482 168.17 59.39 30.038 62.838 3.4482 138.13-59.39 168.17-62.838 30.038-138.13 3.4482-168.17-59.39z" opacity="0" stroke-width="2.1143"/><filter id="v" x="-.23502" y="-.24446" width="1.47" height="1.4889" color-interpolation-filters="sRGB"><feGaussianBlur id="al" stdDeviation="7.0642417"/></filter><filter id="x" color-interpolation-filters="sRGB"><feGaussianBlur id="am" stdDeviation="6.206817"/></filter><filter id="w" color-interpolation-filters="sRGB"><feGaussianBlur id="an" stdDeviation="1.5209858"/></filter><filter id="u" color-interpolation-filters="sRGB"><feGaussianBlur id="ao" stdDeviation="4.563948"/></filter><filter id="t" color-interpolation-filters="sRGB"><feGaussianBlur id="ap" stdDeviation="31.536758"/></filter><radialGradient id="l" cx="442.45" cy="490.72" r="146.97" gradientTransform="matrix(1.5512 1.4076 -1.4043 1.5476 372.32 -1706.5)" gradientUnits="userSpaceOnUse"><stop id="aq" offset="0"/><stop id="ar" stop-color="#666" offset=".66062"/><stop id="as" stop-color="#727272" stop-opacity=".49804" offset=".92585"/><stop id="at" stop-color="#7f7f7f" stop-opacity="0" offset="1"/></radialGradient><linearGradient id="p" x1="260.05" x2="490.05" y1="606.19" y2="261.46" gradientTransform="translate(-5.3521e-5 -701.09)" gradientUnits="userSpaceOnUse"><stop id="au" stop-color="#666" offset="0"/><stop id="av" stop-color="#666" stop-opacity="0" offset="1"/></linearGradient><linearGradient id="o" x1="256.62" x2="489.81" y1="610.85" y2="261.33" gradientTransform="matrix(.98631 0 0 .98631 6.9422 -697.38)" gradientUnits="userSpaceOnUse"><stop id="aw" stop-color="#333" offset="0"/><stop id="ax" stop-color="#666" offset="1"/></linearGradient><linearGradient id="n" x1="439.18" x2="439.18" y1="426.06" y2="626.22" gradientUnits="userSpaceOnUse"><stop id="ay" offset="0"/><stop id="az" offset="1"/></linearGradient><linearGradient id="m" x1="287.55" x2="595.32" y1="485.67" y2="485.67" gradientUnits="userSpaceOnUse"><stop id="ba" offset="0"/><stop id="bb" stop-opacity="0" offset="1"/></linearGradient><radialGradient id="k" cx="364.8" cy="367.6" r="234.37" gradientTransform="matrix(1.8731 -.0082333 .0070312 1.5996 -319.13 -919.83)" gradientUnits="userSpaceOnUse"><stop id="bc" stop-opacity="0" offset="0"/><stop id="bd" offset="1"/></radialGradient><radialGradient id="a" cx="170.51" cy="172.71" r="139.82" gradientTransform="matrix(-.0087968 -1.0891 1.033 -.0084606 -6.4006 359.88)" gradientUnits="userSpaceOnUse"><stop id="be" stop-color="#eee" offset="0"/><stop id="bf" stop-color="#eee" offset="1"/></radialGradient><radialGradient id="j" cx="365.48" cy="365.59" r="152.1" gradientTransform="translate(-2016 -6.009e-5)" gradientUnits="userSpaceOnUse"><stop id="bg" stop-color="#eee" offset="0"/><stop id="bh" stop-color="#909090" stop-opacity=".49804" offset=".79754"/><stop id="bi" offset="1"/></radialGradient><radialGradient id="i" cx="521.17" cy="545.93" r="146.47" gradientTransform="matrix(-1.2183 -1.1192 4.3407 -4.7251 -1258.7 2699.4)" gradientUnits="userSpaceOnUse"><stop id="bj" stop-color="#fff" offset="0"/><stop id="bk" stop-color="#48ccff" stop-opacity=".41525" offset=".5"/><stop id="bl" stop-color="#009aff" stop-opacity="0" offset="1"/></radialGradient><radialGradient id="h" cx="539.28" cy="566.04" r="146.47" gradientUnits="userSpaceOnUse"><stop id="bm" stop-color="#fff" offset="0"/><stop id="bn" stop-color="#0073ff" stop-opacity=".15385" offset="1"/></radialGradient></defs><g id="bo" transform="translate(-2962.3 -1324.3)" display="none"><image id="bp" x="-211.14" y="-208" width="1677.7" height="1258.3" xlink:href="/media/250gb/valokuvat/Syksy 02-09-05 Kuusamo, inkavaaralla luonnonpuistossa suomen komeimman kosken kuvaamista/img_5766_4.jpg"/></g><g id="bq" transform="translate(-2962.3 -1324.3)" display="none" fill-rule="evenodd"><rect id="br" x="-418.2" y="-51.137" width="1933" height="1026.5" fill="url(#e)"/><rect id="bs" x="-655.65" y="-107.55" width="2254.9" height="1055" fill="url(#d)"/></g><g id="bt" transform="translate(-1823 -1324.3)" display="none"><image id="bu" x="-211.14" y="-208" width="1677.7" height="1258.3" xlink:href="/media/250gb/valokuvat/Syksy 02-09-05 Kuusamo, inkavaaralla luonnonpuistossa suomen komeimman kosken kuvaamista/img_5766_4.jpg"/></g><g id="bv" transform="translate(-1823 -1324.3)" display="none" fill-rule="evenodd"><rect id="bw" x="-418.2" y="-51.137" width="1933" height="1026.5" fill="url(#e)"/><rect id="bx" x="-655.65" y="-107.55" width="2254.9" height="1055" fill="url(#d)"/></g><g id="by" transform="matrix(.042874 0 0 .042874 .28485 30.343)"><path id="bz" transform="matrix(.33117 0 0 .33117 -629.02 -824.89)" d="m4056.8 1480.7a1050.6 1050.6 0 1 1-2101.1 0 1050.6 1050.6 0 1 1 2101.1 0z" fill="#000" filter="url(#t)" stroke="#000" stroke-linecap="round" stroke-linejoin="round" stroke-miterlimit="4" stroke-width="2"/><rect id="ca" x="6.9423" y="-697.38" width="723.05" height="723.05" opacity="0"/><path id="cb" d="m673.51-334.82a306.09 306.09 0 0 1-612.18 0 306.09 306.09 0 1 1 612.18 0z" fill="#000" fill-rule="evenodd" stroke="#000" stroke-linejoin="miter" stroke-miterlimit="4" stroke-width="2.0897"/><path id="cc" d="m673.51-334.82a306.09 306.09 0 0 1-612.18 0 306.09 306.09 0 1 1 612.18 0z" fill="url(#l)" fill-rule="evenodd" stroke="#000" stroke-linejoin="miter" stroke-miterlimit="4" stroke-width="2.0897"/><path id="cd" d="m673.67-334.82a306.25 306.25 0 0 1-612.5 0 306.25 306.25 0 1 1 612.5 0z" fill="none" stroke="#1a1a1a" stroke-linejoin="miter" stroke-miterlimit="4" stroke-width="10.04"/><path id="ce" d="m690.29-334.82a322.86 322.86 0 1 1-645.73 0 322.86 322.86 0 1 1 645.73 0z" fill="url(#p)" stroke="url(#o)" stroke-linejoin="miter" stroke-miterlimit="4" stroke-width="36.493"/><path id="cf" d="m707.27-334.13a339.74 339.74 0 0 1-679.47 0 339.74 339.74 0 1 1 679.47 0z" fill="none" stroke="#000" stroke-linecap="round" stroke-linejoin="round" stroke-miterlimit="4" stroke-width="2.9675"/><path id="cg" transform="matrix(2.0906 0 0 2.0906 -555.47 -1350.2)" d="m587.91 485.67a146.47 146.47 0 1 1-292.94 0 146.47 146.47 0 1 1 292.94 0z" fill="none" filter="url(#z)" stroke="url(#n)" stroke-linejoin="miter" stroke-miterlimit="4" stroke-width="1.9462"/><path id="ch" transform="matrix(.21152 -1.6112 1.6112 .21152 -508.45 273.69)" d="m587.91 485.67a146.47 146.47 0 1 1-292.94 0 146.47 146.47 0 1 1 292.94 0z" fill="none" filter="url(#y)" opacity=".52321" stroke="url(#m)" stroke-linejoin="miter" stroke-miterlimit="4" stroke-width="2.4557"/><path id="ci" transform="matrix(.16823 -1.2814 1.2814 .16823 -327.67 147.18)" d="m587.91 485.67a146.47 146.47 0 1 1-292.94 0 146.47 146.47 0 1 1 292.94 0z" fill="none" filter="url(#s)" stroke="#000" stroke-linecap="round" stroke-linejoin="round" stroke-miterlimit="4" stroke-width="3.8157"/><path id="cj" d="m395.34-537.76a202.7 202.7 0 1 1-52.77 401.95 202.7 202.7 0 1 1 52.77-401.95z" fill="none" stroke="#1a1a1a" stroke-linecap="round" stroke-linejoin="round" stroke-miterlimit="4" stroke-width="4.9315"/><path id="ck" d="m400.07-573.81a239.06 239.06 0 1 1-62.235 474.05 239.06 239.06 0 1 1 62.235-474.05z" fill="none" stroke="#1a1a1a" stroke-linecap="round" stroke-linejoin="round" stroke-miterlimit="4" stroke-width="4.9315"/><path id="cl" d="m398.87-564.71a229.87 229.87 0 0 1-59.845 455.84 229.87 229.87 0 0 1 59.845-455.84z" fill="none" stroke="#1a1a1a" stroke-linecap="round" stroke-linejoin="round" stroke-miterlimit="4" stroke-width="4.9315"/><path id="cm" d="m397.68-555.6a220.69 220.69 0 1 1-57.454 437.63 220.69 220.69 0 1 1 57.454-437.63z" fill="none" stroke="#1a1a1a" stroke-linecap="round" stroke-linejoin="round" stroke-miterlimit="4" stroke-width="4.9315"/><path id="cn" d="m396.48-546.5a211.51 211.51 0 1 1-55.063 419.42 211.51 211.51 0 1 1 55.063-419.42z" fill="none" stroke="#1a1a1a" stroke-linecap="round" stroke-linejoin="round" stroke-miterlimit="4" stroke-width="4.9315"/><path id="co" d="m421.64-332.81a55.925 53.642 0 1 1-111.85 0 55.925 53.642 0 1 1 111.85 0z" fill="#000"/><path id="cp" transform="matrix(.98631 0 0 .98631 1995.3 -697.38)" d="m-1649.4 212.42c-85.654 0-155.19 69.531-155.18 155.19 0 85.654 69.531 155.16 155.18 155.16 85.654 0 155.16-69.502 155.16-155.16 0-85.654-69.502-155.19-155.16-155.19zm2.6887 109.89 33.317 17.184 11.164 35.83-17.214 33.346-35.801 11.135-33.346-17.184-11.135-35.83 17.184-33.346 35.83-11.135z" fill="#000" fill-rule="evenodd" filter="url(#x)" stroke="#000" stroke-linejoin="miter" stroke-miterlimit="4" stroke-width="5.033"/><path id="cq" d="m597.91-334.82a231.16 231.16 0 1 1-462.32 0 231.16 231.16 0 1 1 462.32 0z" fill="url(#k)" fill-rule="evenodd"/><text id="cr" transform="matrix(2.0804 0 0 2.0661 4.7303 -692.91)" fill="#000000" font-family="Bitstream Vera Sans" font-size="10px" xml:space="preserve"><textPath id="cs" fill="#000000" font-family="Liberation Sans" font-size="20px" xlink:href="#b">1:1,8     f=50mm    <tspan id="ct" fill="#000000">digiKam</tspan>      powered by   Open Source           www.digikam.org</textPath></text><text id="cu" transform="matrix(2.0804 0 0 2.0661 8.7303 -694.91)" fill="url(#a)" font-family="Bitstream Vera Sans" font-size="10px" xml:space="preserve"><textPath id="cv" fill="url(#a)" font-family="Liberation Sans" font-size="20px" xlink:href="#b">1:1,8     f=50mm    <tspan id="cw" fill="url(#a)">digiKam</tspan>      powered by   Open Source           www.digikam.org</textPath></text><path id="cx" transform="matrix(1.0194 0 0 1.0194 -82.588 -829.91)" d="m587.91 485.67a146.47 146.47 0 1 1-292.94 0 146.47 146.47 0 1 1 292.94 0z" fill="none" filter="url(#q)" opacity=".82166" stroke="#000" stroke-linejoin="miter" stroke-miterlimit="4" stroke-width="9.6752"/><path id="cy" transform="matrix(.98631 0 0 .98631 1995.3 -697.38)" d="m-1650.5 213.49c-83.958 0-152.11 68.155-152.11 152.11 0 50.344 24.524 94.98 62.249 122.66l81.27-72.361-28.217-13.75-112.47-9.4247-0.9454-4.5548 110.89 9.2242-10.284-29.878-74.911-88.317 2.2918-3.5235 74.252 86.656 13.693-28.331 8.9377-118.14 4.2397-0.40105-8.4221 115.9 32.17-11.086 0.2866 0.14324 85.414-80.49c-25.337-18.396-54.07-26.447-88.336-26.447zm92.417 29.595-84.479 79.233 25.89 14.06 116.19 4.0111c-6.1335-38.384-28.538-75.058-57.604-97.304zm-56.007 98.197 9.1383 31.626 77.689 81.499c19.024-25.393 28.847-54.653 28.847-88.804 0-6.718-0.4434-13.335-1.2892-19.823l-114.39-4.4975zm7.1054 36.35-12.29 27.503-8.1356 110.8c39.625-6.0464 73.661-25.975 97.027-56.408l-76.601-81.9zm-17.017 28.993-29.764 10.828-82.903 73.564c25.099 18.264 52.775 26.67 86.169 26.67 6.3136 0 12.537-0.39737 18.649-1.1459l7.8491-109.92z" fill="url(#j)" fill-rule="evenodd" filter="url(#w)" stroke="#000" stroke-miterlimit="4" stroke-width="2"/><path id="cz" transform="matrix(.98525 -.045644 .045644 .98525 -9.3586 -680.32)" d="m365.49 213.49c-83.958 0-152.11 68.155-152.11 152.11 0 50.344 24.524 94.98 62.249 122.66l81.27-72.361-28.217-13.75-112.47-9.4247-0.94539-4.5548 110.89 9.2242-10.284-29.878-74.911-88.317 2.2917-3.5235 74.252 86.656 13.693-28.331 8.9377-118.14 4.2397-0.40105-8.4221 115.9 32.17-11.086 0.28656 0.14324 85.414-80.49c-25.337-18.396-54.07-26.447-88.336-26.447zm92.417 29.595-84.479 79.233 25.89 14.06 116.19 4.0111c-6.1335-38.384-28.537-75.058-57.604-97.304zm-56.007 98.197 9.1383 31.626 77.689 81.499c19.024-25.393 28.847-54.653 28.847-88.804 0-6.718-0.4434-13.335-1.2891-19.823l-114.39-4.4975zm7.1054 36.35-12.29 27.503-8.1356 110.8c39.625-6.0464 73.661-25.975 97.027-56.408l-76.601-81.9zm-17.017 28.993-29.764 10.828-82.903 73.564c25.099 18.264 52.775 26.67 86.169 26.67 6.3135 0 12.537-0.39737 18.649-1.1459l7.8491-109.92z" fill="none" filter="url(#u)" stroke="#000" stroke-miterlimit="4" stroke-width="6"/><path id="da" d="m383.08-579.51a242.31 242.31 0 0 1-28.259 483.8 242.31 242.31 0 1 1 28.259-483.8z" fill="url(#i)" fill-rule="evenodd" opacity=".59236"/><path id="db" transform="matrix(-.084884 1.4532 -1.4532 -.084884 1112.2 -937.9)" d="m587.91 485.67a146.47 146.47 0 1 1-292.94 0 146.47 146.47 0 1 1 292.94 0z" fill="url(#h)" fill-rule="evenodd" filter="url(#r)"/><path id="dc" transform="matrix(1.8071 0 0 1.8071 -84.994 -1195.2)" d="m234.76 546.41-20.081-24.487-23.925 17.174 17.083-26.665-23.727-17.447 30.639 8.0068 9.2615-27.957 1.8529 31.613 29.451 0.16908-29.493 11.531z" fill="#eee" filter="url(#g)" opacity=".92259"/><path id="dd" transform="matrix(.88557 1.5752 -1.5752 .88557 1047.6 -1189.9)" d="m234.76 546.41-17.729-21.305-20.15 19.031 9.5862-26.006-26.557-7.9348 27.315-4.7012-6.4066-26.966 17.729 21.305 20.15-19.031-9.5862 26.006 26.557 7.9348-27.315 4.7012z" fill="#eee" filter="url(#v)"/><path id="de" transform="matrix(.84059 -.65779 .65779 .84059 -131.54 -635.85)" d="m234.76 546.41-17.693-21.899-20.186 19.626 10.119-26.273-27.089-7.6685 27.812-4.3732-6.9036-27.294 17.693 21.899 20.186-19.626-10.119 26.273 27.089 7.6685-27.812 4.3732z" fill="#eee" filter="url(#g)" opacity=".92259"/><path id="df" transform="matrix(.21286 -1.6213 1.6213 .21286 -512.45 275.55)" d="m587.91 485.67a146.47 146.47 0 1 1-292.94 0 146.47 146.47 0 1 1 292.94 0z" fill="none" filter="url(#f)" stroke="#000" stroke-linecap="round" stroke-linejoin="round" stroke-miterlimit="4" stroke-width="4.5943"/><path id="dg" transform="matrix(.21286 -1.6213 1.6213 .21286 -512.45 275.55)" d="m587.91 485.67a146.47 146.47 0 1 1-292.94 0 146.47 146.47 0 1 1 292.94 0z" fill="none" filter="url(#f)" stroke="#000" stroke-linecap="round" stroke-linejoin="round" stroke-miterlimit="4" stroke-width="4.5943"/></g></svg>
