<?xml version="1.0" encoding="UTF-8"?>
<svg fill="none" viewBox="0 0 40 41" xmlns="http://www.w3.org/2000/svg"><rect y=".75537" width="40" height="40" rx="8.8889" fill="#1D63ED"/><g clip-path="url(#a)"><path d="m34.368 19.176c-0.6571-0.4423-2.3839-0.6312-3.6393-0.2931-0.0677-1.2504-0.7124-2.3041-1.892-3.2235l-0.4366-0.2932-0.291 0.4395c-0.5721 0.8684-0.8131 2.0253-0.7277 3.0769 0.0674 0.6479 0.2928 1.3762 0.7277 1.9047-1.634 0.9477-3.1399 0.7326-9.8097 0.7326h-10.298c-0.03013 1.506 0.21195 4.4031 2.0543 6.7615 0.2035 0.2605 0.4268 0.5125 0.6688 0.7553 1.4979 1.5 3.7609 2.5998 7.1451 2.603 5.1626 0.0046 9.586-2.7859 12.276-9.5332 0.8853 0.0145 3.2225 0.1588 4.3662-2.0515 0.028-0.0372 0.291-0.5862 0.291-0.5862l-0.4359-0.2931 3e-4 3e-4zm-19.646-1.5541h-2.8957v2.8957h2.8957v-2.8957zm3.741 0h-2.8957v2.8957h2.8957v-2.8957zm3.7411 0h-2.8957v2.8957h2.8957v-2.8957zm3.741 0h-2.8957v2.8957h2.8957v-2.8957zm-14.964 0h-2.896v2.8957h2.8957v-2.8957h3e-4zm3.7411-3.6578h-2.8957v2.8957h2.8957v-2.8957zm3.741 0h-2.8957v2.8957h2.8957v-2.8957zm3.7411 0h-2.8957v2.8957h2.8957v-2.8957zm0-3.6577h-2.8957v2.8957h2.8957v-2.8957z" fill="#fff"/></g><defs><clipPath id="a"><rect transform="translate(8 10.306)" width="26.804" height="21.333" fill="#fff"/></clipPath></defs></svg>
