<?xml version="1.0" encoding="UTF-8"?>
<!DOCTYPE svg  PUBLIC '-//W3C//DTD SVG 1.1//EN'  'http://www.w3.org/Graphics/SVG/1.1/DTD/svg11.dtd'>
<svg id="i" enable-background="new 0 0 256 256" version="1.1" viewBox="0 0 256 256" xml:space="preserve" xmlns="http://www.w3.org/2000/svg">

	<linearGradient id="h" x1="9.9214" x2="246.13" y1="128.11" y2="128.11" gradientUnits="userSpaceOnUse">
		<stop stop-color="#F05A28" offset="0"/>
		<stop stop-color="#930500" offset=".9831"/>
	</linearGradient>
	<path d="m246.13 217.87c0 15.656-12.693 28.346-28.346 28.346h-179.52c-15.655 0-28.345-12.689-28.345-28.346v-179.51c0-15.654 12.69-28.345 28.345-28.345h179.52c15.652 0 28.346 12.691 28.346 28.345v179.51z" fill="url(#h)"/>
	
		<radialGradient id="g" cx="162.3" cy="207.47" r="177.67" gradientTransform="matrix(1 0 0 .4883 0 106.16)" gradientUnits="userSpaceOnUse">
		<stop stop-color="#fff" stop-opacity="0" offset=".4444"/>
		<stop stop-color="#fff" stop-opacity=".4637" offset=".9215"/>
		<stop stop-color="#fff" stop-opacity=".54" offset="1"/>
	</radialGradient>
	<path d="m246.13 217.87c0 15.656-12.693 28.346-28.346 28.346h-179.52c-15.655 0-28.345-12.689-28.345-28.346v-179.51c0-15.654 12.69-28.345 28.345-28.345h179.52c15.652 0 28.346 12.691 28.346 28.345v179.51z" fill="url(#g)" opacity=".58"/>
	<g opacity=".49">
		<path d="m38.267 242.52c-20.272-1.37-25.272-17.359-25.272-34.41v-47.627-111.09c0-16.214 2.855-31.555 21.847-35.444 8.393-1.718 18.409-0.23 26.868-0.23h116.87c23.259 0 64.474-7.272 64.474 27.551v99.51 55.412c0 11.073 1.66 23.621-3.453 33.79-6.739 13.422-21.664 12.535-34.189 12.535h-49.848-117.3c-0.011 0-0.011 1.276 0 1.276h177.86c31.231 0 26.948-31.88 26.948-53.02v-117.42c0-20.678 6.604-60.916-25.479-60.916h-87.029-91.551c-31.599 0-26.031 36.057-26.031 56.876v113.56c0 21.996-6.607 58.762 25.285 60.915-0.019-3e-3 0.038-1.274 0-1.275z" fill="#fff"/>
	</g>
	<path d="m246.13 217.87c0 15.656-12.693 28.346-28.346 28.346h-179.52c-15.655 0-28.345-12.689-28.345-28.346v-179.51c0-15.654 12.69-28.345 28.345-28.345h179.52c15.652 0 28.346 12.691 28.346 28.345v179.51z" fill="none" stroke="#BE1E2D" stroke-miterlimit="1" stroke-width=".25"/>
	<g opacity=".58">
		<path d="m246.12 216.34c-1.295 20.968-17.481 28.288-35.775 28.288h-45.235-113.07c-13.111 0-24.693 0.751-34.962-9.522-9.17-9.172-7.139-23.807-7.139-35.574v-115.38c0-24.328-8.337-72.539 29.076-72.539h91.551 87.029c37.8 0 28.521 52.973 28.521 77.096v129.17c0 1.808 0.03 1.808 0.03 0v-177.85c0-17.22-10.469-30.49-28.36-31.603-8.343-0.517-16.89 0-25.245 0h-117.19c-24.376 0-65.442-6.36-65.442 29.943v82.146 95.708c0 17.221 10.471 30.494 28.361 31.607 8.345 0.514 16.892 0 25.247 0h110.71c25.147 0 69.647 8.053 71.914-28.407 0.055-0.959-0.058-2.328-0.016-3.077z" fill="#0D003B"/>
	</g>


	<linearGradient id="f" x1="55.834" x2="55.834" y1="223.4" y2="35.372" gradientUnits="userSpaceOnUse">
		<stop stop-color="#C6C6C6" offset="0"/>
		<stop stop-color="#B1B1B1" offset=".618"/>
		<stop stop-color="#BEBEBE" offset=".6292"/>
		<stop stop-color="#B8B8B8" offset=".9831"/>
	</linearGradient>
	<path d="m0.343 223.4v-37.345h17.883c32.084 0 55.753-25.771 55.753-55.484 0-31.826-24.193-57.862-56.28-57.862h-17.356v-37.34h17.883c51.546 0 93.099 41.809 93.099 94.939 0 50.752-41.553 93.093-93.099 93.093h-17.883z" fill="url(#f)"/>
	<g opacity=".51">
		<linearGradient id="e" x1="55.834" x2="55.834" y1="223.4" y2="35.372" gradientUnits="userSpaceOnUse">
			<stop stop-color="#A6A6A6" offset="0"/>
			<stop stop-color="#838383" offset=".5"/>
			<stop stop-color="#898989" offset=".5378"/>
			<stop stop-color="#999" offset=".6652"/>
			<stop stop-color="#A3A3A3" offset=".8086"/>
			<stop stop-color="#A6A6A6" offset="1"/>
		</linearGradient>
		<path d="m0.343 223.4v-37.345h17.883c32.084 0 55.753-25.771 55.753-55.484 0-31.826-24.193-57.862-56.28-57.862h-17.356v-37.34h17.883c51.546 0 93.099 41.809 93.099 94.939 0 50.752-41.553 93.093-93.099 93.093h-17.883z" fill="url(#e)"/>
	</g>
	<g opacity=".7">
		<linearGradient id="d" x1="55.834" x2="55.834" y1="35.372" y2="223.4" gradientUnits="userSpaceOnUse">
			<stop stop-color="#fff" stop-opacity=".77" offset="0"/>
			<stop stop-color="#fff" stop-opacity=".65" offset=".2033"/>
			<stop stop-color="#fff" stop-opacity=".65" offset=".3448"/>
			<stop stop-color="#fff" stop-opacity=".65" offset=".3462"/>
			<stop stop-color="#fff" stop-opacity="0" offset=".511"/>
			<stop stop-color="#E1E1E1" stop-opacity=".0045" offset=".5247"/>
			<stop stop-color="#B8B8B8" stop-opacity=".0116" offset=".5464"/>
			<stop stop-color="#929292" stop-opacity=".0196" offset=".5708"/>
			<stop stop-color="#727272" stop-opacity=".0283" offset=".5974"/>
			<stop stop-color="#565656" stop-opacity=".0379" offset=".6268"/>
			<stop stop-color="#404040" stop-opacity=".0487" offset=".6599"/>
			<stop stop-color="#2F2F2F" stop-opacity=".0614" offset=".6986"/>
			<stop stop-color="#242424" stop-opacity=".0771" offset=".7465"/>
			<stop stop-color="#1D1D1D" stop-opacity=".099" offset=".8136"/>
			<stop stop-color="#1B1B1B" stop-opacity=".16" offset="1"/>
		</linearGradient>
		<path d="m0.343 223.4v-37.345h17.883c32.084 0 55.753-25.771 55.753-55.484 0-31.826-24.193-57.862-56.28-57.862h-17.356v-37.34h17.883c51.546 0 93.099 41.809 93.099 94.939 0 50.752-41.553 93.093-93.099 93.093h-17.883z" fill="url(#d)"/>
	</g>
	<g opacity=".49">
		<path d="m1.251 222.5v-21.556-12.017c0-2.486 5.265-1.04 8.484-1.04 27.05 0 50.146-9.767 61.326-36.032 6.085-14.3 4.542-31.987-0.928-46.076-10.04-25.853-35.127-34.899-60.663-34.899-1.795 0-8.219 0.229-8.219 0.021v-10.637-14.783c0-2.477-0.478-8.286 0.468-8.286 24.17 0 45.977 1.625 67.053 14.951 23.688 14.972 37.727 41.153 41.098 68.471 4.166 33.803-13.192 66.436-40.474 85.42-20.673 14.384-43.976 15.536-68.153 15.536-0.014 0-0.014 1.854 0 1.854 28.286 0 53.196-3.014 76.069-21.473 21.373-17.249 33.12-44.465 33.12-71.646 0-27.68-10.972-53.437-31.401-72.171-22.066-20.233-49.39-22.797-77.788-22.797-0.011 0-9e-3 0.879-9e-3 0.926v35.541c0 0.046-2e-3 0.928 9e-3 0.928 13.732 0 26.679-0.453 39.677 4.878 19.142 7.848 30.727 26.896 33.552 46.686 3.259 22.818-10.468 44.182-29.635 55.112-13.421 7.656-28.757 6.615-43.594 6.615-0.011 0-9e-3 0.882-9e-3 0.933v35.541c0 1.046 0.017 1.046 0.017 0z" fill="#fff"/>
	</g>
	<path d="m0.343 223.4v-37.345h17.883c32.084 0 55.753-25.771 55.753-55.484 0-31.826-24.193-57.862-56.28-57.862h-17.356v-37.34h17.883c51.546 0 93.099 41.809 93.099 94.939 0 50.752-41.553 93.093-93.099 93.093h-17.883z" fill="none" stroke="#ccc" stroke-miterlimit="1" stroke-width=".5878"/>
	<g opacity=".58">
		<path d="m0.344 223.4v-21.208-12.878c0-4.225 1.192-3.102 5.373-3.102 25.935 0 48.369-5.427 61.984-29.816 7.355-13.177 7.58-28.727 3.892-42.937-6.779-26.134-31.275-40.904-57.061-40.904h-12.676c-2.545 0-1.512-2.581-1.512-4.756v-29.179c0-6.014 11.324-3.099 16.323-3.099 13.157 0 25.658 2.427 37.852 7.364 61.694 24.986 73.788 108.37 28.401 154.02-22.847 22.984-51.976 26.345-82.578 26.345-2e-3 0-2e-3 0.309 0 0.309 28.867 0 54.307-2.91 77.635-21.873 21.098-17.144 33.349-44.357 33.349-71.373 0-27.652-11.613-53.438-31.97-72.042-22.493-20.56-50.138-23.055-79.013-23.055v0.158 37.34 0.155c13.966 0 27.231-0.589 40.436 4.897 18.738 7.786 30.054 26.593 32.807 45.996 3.408 24.009-10.621 46.433-31.574 56.966-12.878 6.475-27.723 5.181-41.669 5.181v0.152 37.345c-1e-3 0.17 1e-3 0.17 1e-3 -1e-3z" fill="#959595"/>
	</g>


	<linearGradient id="c" x1="200.32" x2="200.32" y1="223.4" y2="35.372" gradientUnits="userSpaceOnUse">
		<stop stop-color="#C6C6C6" offset="0"/>
		<stop stop-color="#B1B1B1" offset=".618"/>
		<stop stop-color="#BEBEBE" offset=".6292"/>
		<stop stop-color="#B8B8B8" offset=".9831"/>
	</linearGradient>
	<path d="m255.81 35.372v37.34h-17.881c-32.084 0-55.757 25.778-55.757 55.489 0 31.827 24.196 57.858 56.277 57.858h17.36v37.345h-17.881c-51.549 0-93.095-41.813-93.095-94.937 0-50.759 41.546-93.095 93.095-93.095h17.882z" fill="url(#c)"/>
	<g opacity=".51">
		<linearGradient id="b" x1="200.32" x2="200.32" y1="223.4" y2="35.372" gradientUnits="userSpaceOnUse">
			<stop stop-color="#A6A6A6" offset="0"/>
			<stop stop-color="#838383" offset=".5"/>
			<stop stop-color="#898989" offset=".5378"/>
			<stop stop-color="#999" offset=".6652"/>
			<stop stop-color="#A3A3A3" offset=".8086"/>
			<stop stop-color="#A6A6A6" offset="1"/>
		</linearGradient>
		<path d="m255.81 35.372v37.34h-17.881c-32.084 0-55.757 25.778-55.757 55.489 0 31.827 24.196 57.858 56.277 57.858h17.36v37.345h-17.881c-51.549 0-93.095-41.813-93.095-94.937 0-50.759 41.546-93.095 93.095-93.095h17.882z" fill="url(#b)"/>
	</g>
	<g opacity=".7">
		<linearGradient id="a" x1="200.32" x2="200.32" y1="35.372" y2="223.4" gradientUnits="userSpaceOnUse">
			<stop stop-color="#fff" stop-opacity=".77" offset="0"/>
			<stop stop-color="#fff" stop-opacity=".65" offset=".2033"/>
			<stop stop-color="#fff" stop-opacity=".65" offset=".3448"/>
			<stop stop-color="#fff" stop-opacity=".65" offset=".3462"/>
			<stop stop-color="#fff" stop-opacity="0" offset=".511"/>
			<stop stop-color="#E1E1E1" stop-opacity=".0045" offset=".5247"/>
			<stop stop-color="#B8B8B8" stop-opacity=".0116" offset=".5464"/>
			<stop stop-color="#929292" stop-opacity=".0196" offset=".5708"/>
			<stop stop-color="#727272" stop-opacity=".0283" offset=".5974"/>
			<stop stop-color="#565656" stop-opacity=".0379" offset=".6268"/>
			<stop stop-color="#404040" stop-opacity=".0487" offset=".6599"/>
			<stop stop-color="#2F2F2F" stop-opacity=".0614" offset=".6986"/>
			<stop stop-color="#242424" stop-opacity=".0771" offset=".7465"/>
			<stop stop-color="#1D1D1D" stop-opacity=".099" offset=".8136"/>
			<stop stop-color="#1B1B1B" stop-opacity=".16" offset="1"/>
		</linearGradient>
		<path d="m255.81 35.372v37.34h-17.881c-32.084 0-55.757 25.778-55.757 55.489 0 31.827 24.196 57.858 56.277 57.858h17.36v37.345h-17.881c-51.549 0-93.095-41.813-93.095-94.937 0-50.759 41.546-93.095 93.095-93.095h17.882z" fill="url(#a)"/>
	</g>
	<g opacity=".49">
		<path d="m237.92 221.58c-65.366-1.184-109.95-67.434-84.609-128.8 10.704-25.926 34.107-44.749 60.673-52.426 10.601-3.064 21.506-3.15 32.429-3.15 1.805 0 8.478-0.227 8.478-0.021v13.082c0 3.284 0.499 20.625-0.464 20.625-10.231 0-20.387-0.488-30.438 1.724-25.181 5.546-42.479 29.853-42.734 54.939-0.19 19.232 7.764 36.604 22.692 48.751 9.687 7.893 22.618 11.594 34.961 11.594h12.438c4.483 0 3.545-0.852 3.545 4.151v27.083c0 3.917 0.137 2.45-3.656 2.45-4.439 1e-3 -8.876 1e-3 -13.315 1e-3 -0.014 0-0.014 1.854 0 1.854h16.983c8e-3 0 8e-3 -0.875 8e-3 -0.926v-35.541c0-0.051 0-0.933-8e-3 -0.933-13.73 0-26.685 0.454-39.683-4.874-19.141-7.851-30.725-26.894-33.552-46.687-3.259-22.814 10.471-44.18 29.637-55.116 13.423-7.656 28.764-6.614 43.598-6.614 8e-3 0 8e-3 -0.882 8e-3 -0.928v-35.541c0-0.047 0-0.926-8e-3 -0.926-25.872 0-48.894 2.133-70.865 17.423-22.715 15.805-37.73 43.687-38.257 71.366-1.01 53.581 37.239 98.3 92.139 99.297 3e-3 0 0.026-1.85 0-1.854z" fill="#fff"/>
	</g>
	<path d="m255.81 35.372v37.34h-17.881c-32.084 0-55.757 25.778-55.757 55.489 0 31.827 24.196 57.858 56.277 57.858h17.36v37.345h-17.881c-51.549 0-93.095-41.813-93.095-94.937 0-50.759 41.546-93.095 93.095-93.095h17.882z" fill="none" stroke="#ccc" stroke-miterlimit="1" stroke-width=".5878"/>
	<g opacity=".58">
		<path d="m255.8 35.372v21.208 12.877c0 4.221-1.189 3.102-5.37 3.102-25.938 0-48.37 5.424-61.982 29.814-7.36 13.178-7.582 28.729-3.896 42.938 6.78 26.133 31.276 40.905 57.061 40.905h12.68c2.545 0 1.508 2.578 1.508 4.753v29.183c0 6.014-11.321 3.097-16.318 3.097-13.162 0-25.657-2.425-37.853-7.362-61.693-24.989-73.79-108.37-28.4-154.02 22.844-22.98 51.972-26.343 82.573-26.343 7e-3 0 7e-3 -0.311 0-0.311-28.865 0-54.301 2.916-77.636 21.874-21.095 17.145-33.342 44.361-33.342 71.379 0 27.65 11.61 53.434 31.964 72.043 22.492 20.551 50.142 23.047 79.014 23.047 7e-3 0 7e-3 -0.146 7e-3 -0.153v-37.345c0-8e-3 0-0.152-7e-3 -0.152-13.965 0-27.232 0.59-40.438-4.896-18.729-7.785-30.051-26.59-32.806-45.995-3.406-24.014 10.625-46.438 31.577-56.969 12.879-6.474 27.724-5.179 41.667-5.179 7e-3 0 7e-3 -0.147 7e-3 -0.155v-37.34c-1e-3 -0.179-0.01-0.179-0.01-2e-3z" fill="#959595"/>
	</g>

</svg>
