<?xml version="1.0" encoding="UTF-8"?>
<svg viewBox="0 0 48 48" xmlns="http://www.w3.org/2000/svg" xmlns:xlink="http://www.w3.org/1999/xlink"><defs><linearGradient id="a" x1="425.57" x2="409.57" gradientTransform="translate(-1 1)" gradientUnits="userSpaceOnUse" spreadMethod="reflect"><stop stop-color="#2f3943" offset="0"/><stop stop-color="#808c9b" offset="1"/></linearGradient><linearGradient id="b" x1="41" x2="25" gradientTransform="translate(383.57 500.8)" gradientUnits="userSpaceOnUse" spreadMethod="reflect"><stop stop-color="#197cf1" offset="0"/><stop stop-color="#21c9fb" offset="1"/></linearGradient><linearGradient id="c" x2="0" y1="528.8" y2="502.8" gradientTransform="translate(-384.57-499.8)" gradientUnits="userSpaceOnUse" xlink:href="#a"/><linearGradient id="d" x2="0" y1="528.8" y2="502.8" gradientUnits="userSpaceOnUse" xlink:href="#a"/><linearGradient id="e" x2="0" y1="512.8" y2="501.8" gradientUnits="userSpaceOnUse" xlink:href="#a"/><linearGradient id="f" x1="416.83" x2="416.57" y1="514.1" y2="503.8" gradientUnits="userSpaceOnUse" xlink:href="#b"/><linearGradient id="g" x1="406.82" x2="411.76" y1="518.74" y2="523.67" gradientUnits="userSpaceOnUse"><stop stop-color="#18222a" offset="0"/><stop stop-color="#566069" offset="1"/></linearGradient><linearGradient id="h" x1="19" x2="25" y1="31" y2="37" gradientTransform="translate(384.57 499.8)" gradientUnits="userSpaceOnUse"><stop offset="0"/><stop stop-opacity="0" offset="1"/></linearGradient><linearGradient id="i" x1="23" x2="27" y1="9" y2="15" gradientUnits="userSpaceOnUse" xlink:href="#h"/><linearGradient id="j" x1="421.57" x2="414.57" y1="506.8" y2="516.8" gradientUnits="userSpaceOnUse"><stop stop-color="#18222a" offset="0"/><stop stop-color="#18222a" stop-opacity="0" offset="1"/></linearGradient><linearGradient id="k" x1="400.07" x2="405.23" y1="519.3" y2="524.45" gradientUnits="userSpaceOnUse" xlink:href="#g"/><linearGradient id="l" x1="420.95" x2="424.85" y1="509.61" y2="513.52" gradientUnits="userSpaceOnUse" xlink:href="#j"/><linearGradient id="m" x1="423.57" x2="411.57" y1="527.8" y2="519.3" gradientUnits="userSpaceOnUse" xlink:href="#b"/><linearGradient id="n" x1="410.71" x2="392.13" y1="513.03" y2="524.07" gradientUnits="userSpaceOnUse" xlink:href="#b"/></defs><g transform="translate(-384.57-499.8)"><g fill-rule="evenodd"><path d="m403.57 506.8c2-3 6-3 6-3s0.208 0.426 0 1c1.738-0.781 4 0 4 0s-0.317 0.667-1 1c1.723 0.629 3 2 3 2s-0.317 0.605-1 1c1.707 0.161 3 2 3 2s-0.453 0.777-1 1c1.422 0.613 2 0.821 2 2s-3 3-3 3-1.75-4.502-3-6-2.463-2.313-4-3-5-1-5-1" fill="url(#f)"/><path d="m409.57 508.8s0 6-3 8-9 3-13 5-5 5-5 5 4-2 6-2 5 1 5 1 2-2 5-2 6 1 6 1l1-11z" fill="url(#n)"/><path d="m410.57 511.8s0.188 3.5-2.813 5.5c-3 2-10.721 3.239-14.5 5.313-2.766 1.517-4.688 4.188-4.688 4.188s4-2 6-2 5 1 5 1 2-2 5-2 6 1 6 1l1-11z" fill="url(#g)"/><path transform="translate(384.57 499.8)" d="m23 5.625c-1 .125-1 1.375-1 1.375l3 6c2 4 1 13-6 17 0 0 .477.234 1.236.525-3.079 2.523-7.654 5.475-12.236 5.475h17.734c1.264-1.318 2.348-2.795 3.295-4.258.057-.404.252-1.305.971-2.742 1-2 2-6 2-6 0 0 1 0 2 1 .835.835-3.036 5.638-4.393 7.27.839-.278 1.651-.676 2.393-1.27 5-4 2.254-14.214-2-19-4-4.5-6-5.5-7-5.375" fill="url(#c)"/><path transform="translate(384.57 499.8)" d="m24 6l-1.5 2 2.5 5c.459.917.751 2.105.857 3.428l5.143-3.428z" fill="url(#i)" opacity=".2"/><path d="m409.34 528.14c-1.945 2.427-1.842 2.708-4.572 4.755-.015.011-.032.022-.047.033l2.783 2.74c10.03-8.376 1.835-7.528 1.835-7.528m-5.443 5.382c-1.132.803-2.384 1.593-3.729 2.273h6.04z" fill="#2980b9"/><path d="m404.81 530.32c-3.079 2.523-7.654 5.475-12.236 5.475h17.734c1.367-1.426 2.532-3.039 3.531-4.617.961-.277-9.789-1.149-9.03-.857" fill="url(#h)" opacity=".2"/></g><g color="#000000" stroke-linejoin="round" stroke-width="3"><path d="m392.57 535.8v8h32v-8z" fill="url(#a)"/><path d="m392.57 537.8v4h5v-4zm6 0v4h6v-4zm7 0v4h6v-4zm7 0v4h6v-4zm7 0v4h5v-4z" fill="url(#b)"/></g><g fill-rule="evenodd"><path d="m421.57 506.8c-1 0-1 3-4 6s-4 3-4 3 3 2 3 6c3 2 3 6 3 6l4-11-1-8z" fill="url(#d)"/><path d="m421.57 506.8c-1 0-1 3-4 6s-4 3-4 3 3 2 3 6-2 7-2 7l9-12-1-8z" fill="url(#j)"/><path d="m421.57 506.8c-2 13.5-7.313 14.375-7.938 18.25-.637 3.949.938 3.75.938 3.75l9-12-1-8z" fill="url(#l)"/><path d="m421.57 506.8c1 0 4 6 3 15s-6 11-6 11-7-1-9-1-3 1-3 1-3-2-7-2-9 4-9 4 1-4 7-6 15.799-0.159 19-4c10-12 4-18 5-18" fill="url(#m)"/><path d="m406.57 510.8c-2.121 0.707-5 0-6 1l-1 1s-1-2 0-3 3-1 4-3 4-2 5-1c2 2 1 4-2 5" fill="url(#e)"/><path d="m407.76 517.3c-3 2-10.721 3.239-14.5 5.313-2.766 1.517-4.688 4.188-4.688 4.188s4-2 6-2 5 1 5 1 11.188-10.5 8.188-8.5" fill="url(#k)"/></g></g></svg>
