<?xml version="1.0" encoding="UTF-8"?>
<svg width="32" height="32" viewBox="0 0 8.4667 8.4667" xmlns="http://www.w3.org/2000/svg" xmlns:xlink="http://www.w3.org/1999/xlink"><mask id="a" maskUnits="userSpaceOnUse"><path d="m2.0147 0h150.2v155.91h-150.2z" fill="url(#b)" filter="url(#d)"/></mask><linearGradient id="b" x1="29.971" x2="5.4835" y1="73.18" y2="73.18" gradientUnits="userSpaceOnUse" xlink:href="#c"/><linearGradient id="c"><stop stop-color="#fff" offset="0"/><stop stop-color="#fff" stop-opacity="0" offset="1"/></linearGradient><filter id="d"><feGaussianBlur stdDeviation="3.4943982"/></filter><radialGradient id="e" cx="77.697" cy="20.802" r="57.345" gradientTransform="matrix(4.1908 0 0 4.482 -247.92 -75.621)" gradientUnits="userSpaceOnUse"><stop stop-color="#00aad4" offset="0"/><stop stop-color="#cbf5ff" offset="1"/></radialGradient><linearGradient id="f" x1="48.575" x2="87.021" y1="74.708" y2="50.666" gradientUnits="userSpaceOnUse"><stop offset="0"/><stop stop-opacity="0" offset="1"/></linearGradient><clipPath id="g"><path d="m101.39 5.3477a2.6534 2.6534 0 0 0-2.7031 2.6523v5.3164h-8.0352c-10.981 0-20.637 4.473-26.764 10.477-6.1187 5.9957-9.3049 12.499-12.205 17.656-2.9056 5.1672-5.3432 8.8707-7.8965 11.021-2.3801 2.0049-5.0858 3.502-11.791 3.502h-18.719a2.6534 2.6534 0 0 0-2.6523 2.6523v32.094a2.6534 2.6534 0 0 0 2.6523 2.6523h32.062c4.4286 0 6.6571 1.0593 8.4316 2.4414 1.9536 1.5215 3.7136 3.9529 5.8438 7.2285 2.1211 3.2617 4.4853 7.2788 8.5781 10.836 4.0944 3.5586 10.132 6.1504 17.146 6.1504h13.348v5.3164a2.6534 2.6534 0 0 0 4.2852 2.0918l18.781-14.656a2.6534 2.6534 0 0 0 0-4.1836l-18.781-14.656a2.6534 2.6534 0 0 0-4.2852 2.0918v5.3164h-8.0352c-1.7445 0-3.8658-0.27883-5.6602-0.72852-1.7944-0.44969-3.3179-1.2159-3.5684-1.4336-1.7297-1.5034-3.4699-4.0738-5.7031-7.5078-2.0555-3.1607-4.63-8.7078-9.4062-12.428-2.0566-1.6017-4.79-3.0259-7.7266-4.1758 1.8122-1.0622 3.5702-2.1842 5.1484-3.5137 6.8288-5.7523 10.723-11.3 13.916-16.979 3.1164-5.542 5.5064-9.5981 7.6387-11.688 1.0387-1.0178 1.8008-1.7361 2.9062-2.1934 1.141-0.47199 2.6089-0.67383 5.1426-0.67383h5.3477v5.3164a2.6534 2.6534 0 0 0 4.4023 1.9941l21.312-18.688a2.6534 2.6534 0 0 0-2e-3 -3.9902l-21.312-18.656a2.6534 2.6534 0 0 0-1.6973-0.65625z"/></clipPath><filter id="h"><feGaussianBlur stdDeviation=".31849315"/></filter><radialGradient id="i" cx="58.656" cy="66.672" r="45.375" fx="59.916" fy="75.445" gradientTransform="matrix(2.7052 .55735 -.48309 2.3448 -67.814 -122.35)" gradientUnits="userSpaceOnUse"><stop stop-color="#8a5db1" offset="0"/><stop stop-color="#583495" offset="1"/></radialGradient><radialGradient id="j" cx="100.88" cy="94.75" r="1.8438" gradientTransform="matrix(.95415 -.29931 .54237 1.729 -46.765 -38.877)" gradientUnits="userSpaceOnUse" xlink:href="#k"/><linearGradient id="k"><stop stop-color="#dce7f5" offset="0"/><stop stop-color="#dce7f5" stop-opacity="0" offset="1"/></linearGradient><filter id="l" x="-.2009" y="-.26933" width="1.4018" height="1.5387"><feGaussianBlur stdDeviation=".30867642"/></filter><radialGradient id="m" cx="100.88" cy="94.75" r="1.8438" gradientTransform="matrix(.95415 -.29931 .54237 1.729 -46.765 -126.6)" gradientUnits="userSpaceOnUse" xlink:href="#k"/><radialGradient id="n" cx="58.656" cy="66.672" r="45.375" fx="59.916" fy="75.445" gradientTransform="matrix(2.7052 .55735 -.48309 2.3448 -67.814 -122.35)" gradientUnits="userSpaceOnUse"><stop stop-color="#5df" offset="0"/><stop stop-color="#c7ecf4" offset=".83492"/><stop stop-color="#d8edf2" offset="1"/></radialGradient><linearGradient id="o" x1="57.355" x2="102.1" y1="-27.103" y2="74.355" gradientUnits="userSpaceOnUse" xlink:href="#c"/><linearGradient id="p" x1="53.586" x2="47.586" y1="-12.797" y2="136.44" gradientUnits="userSpaceOnUse" xlink:href="#c"/><g transform="matrix(.059018 0 0 .059018 .38823 .40412)" mask="url(#a)"><path d="m101.12 5.3438c-1.3168 0.10748-2.4433 1.3351-2.4375 2.6562v5.3125h-8.0312c-10.981 0-20.623 4.4652-26.75 10.469-6.1187 5.9957-9.3186 12.499-12.219 17.656-2.9056 5.1672-5.353 8.8805-7.9062 11.031-2.3801 2.0049-5.076 3.5-11.781 3.5h-24.906c-1.3912-0.0015-2.6578 1.265-2.6562 2.6562v32.094c-0.0015 1.3912 1.265 2.6578 2.6562 2.6562h35.707c4.4286 0 6.6629 1.0554 8.4375 2.4375 1.9536 1.5215 3.7136 3.9432 5.8438 7.2188 2.1211 3.2617 7.0119 7.2866 11.105 10.844 4.0944 3.5586 10.142 6.1562 17.156 6.1562h13.344v5.3125c5.99e-4 0.98648 0.6015 1.9486 1.4877 2.382 0.88618 0.43339 2.0146 0.31696 2.7936-0.28825l18.781-14.656c1.2693-0.98809 1.2693-3.1994 0-4.1875l-18.781-14.656c-0.77901-0.60521-1.9074-0.72164-2.7936-0.28825-0.88618 0.43339-1.4871 1.3955-1.4877 2.382v5.3125h-8.0312c-1.7445 0-3.8619-0.26906-5.6562-0.71875s-3.312-1.2198-3.5625-1.4375c-1.7297-1.5034-3.4855-4.066-5.7188-7.5-2.0555-3.1607-4.63-8.7176-9.4062-12.438-2.0579-1.6028-4.7797-3.0374-7.7188-4.1875 1.8139-1.063 3.5766-2.1694 5.1562-3.5 6.8288-5.7523 10.713-11.29 13.906-16.969 3.1164-5.542 5.4927-9.5981 7.625-11.688 1.0387-1.0178 1.8008-1.7615 2.9062-2.2188 1.141-0.47199 2.6226-0.65625 5.1562-0.65625h5.3438v5.3125c-0.0031 1.0151 0.63232 2.0046 1.5567 2.4242 0.92436 0.41957 2.0875 0.24643 2.8496-0.42418l21.312-18.688c1.1383-0.99246 1.1383-3.0075 0-4l-21.312-18.656c-0.53266-0.47052-1.2603-0.71307-1.9688-0.65625z" fill="url(#e)"/><path d="m58.625 75.062-11.938 0.8125 39.746-25.316c-9.2618 8.168-6.2084 16.81-27.809 24.503z" clip-path="url(#g)" fill="url(#f)" filter="url(#h)" opacity=".22326"/><path d="m101.34 8v7.9688h-10.688c-10.249 0-19.315 4.2397-24.906 9.7188-5.7619 5.6461-8.7957 11.809-11.75 17.062-2.943 5.2336-5.4678 9.1958-8.5 11.75-2.7331 2.3022-6.3443 4.125-13.5 4.125h-24.376v32.094h35.177c4.8983 0 7.881 1.301 10.062 3 2.3972 1.867 4.2801 4.5576 6.4375 7.875 2.1643 3.3281 6.9106 7.0434 10.636 10.281 3.593 3.1228 9.0537 5.5 15.406 5.5h16v7.9688l18.781-14.656-18.781-14.656v7.9688h-10.688c-4.0239 0-9.1326-1.2166-10.969-2.8125-2.1507-1.8692-3.9525-4.6257-6.1875-8.0625-2.2272-3.4248-4.7215-8.595-8.8125-11.781-2.6027-2.0271-6.361-4.098-10.281-5-1.0503-0.24165-2.259-0.49778-3.3125-0.71875 1.1366-0.2322 2.317-0.69808 3.1875-1.1562 2.8634-1.5071 5.5346-3.0713 7.75-4.9375 6.5727-5.5366 10.205-10.723 13.312-16.25 3.1191-5.5468 5.4994-9.7391 8.0938-12.281 1.0403-1.0194 2.1219-2.0765 3.75-2.75s3.4889-0.875 6.1562-0.875h8v7.9688l21.312-18.688z" fill="url(#i)"/><path d="m101.34 8.0521v7.9688h-10.688c-10.249 0-19.315 4.2397-24.906 9.7188-5.7619 5.6461-8.7957 11.809-11.75 17.062-2.943 5.2336-5.4678 9.1958-8.5 11.75-2.7331 2.3022-6.3443 4.125-13.5 4.125l-18.667-0.008723c26.666 0 27.041 0.3541 32.73-3.8038 3.1378-2.2935 5.9945-5.8289 8.9375-11.062 2.9543-5.2537 5.9881-11.416 11.75-17.062 5.5915-5.4791 14.657-9.7188 24.906-9.7188h10.688v-7.9688l14.5 12.688c8e-3 -0.03166 0.0238-0.06208 0.0313-0.09375zm0 29.313v5.4062c0.33843-0.25961 0.67087-0.51847 1-0.78125z" fill="#fff" opacity=".12558"/><path d="m101.25 93.375a2.6534 2.6534 0 0 0-2.2188 1.375l2.4688 1.375 1.2188-2.3438a2.6534 2.6534 0 0 0-1.4688-0.40625z" fill="url(#j)" filter="url(#l)"/><g fill="url(#m)"><path d="m101.25 5.6509a2.6534 2.6534 0 0 0-2.2188 1.375l2.4688 1.375 1.2188-2.3438a2.6534 2.6534 0 0 0-1.4688-0.40625z" filter="url(#l)"/><path transform="matrix(1 0 0 -1 0 53.049)" d="m101.25 5.6509a2.6534 2.6534 0 0 0-2.2188 1.375l2.4688 1.375 1.2188-2.3438a2.6534 2.6534 0 0 0-1.4688-0.40625z" filter="url(#l)" opacity=".53488"/><path transform="matrix(1 0 0 -1 0 133.35)" d="m101.25 5.6509a2.6534 2.6534 0 0 0-2.2188 1.375l2.4688 1.375 1.2188-2.3438a2.6534 2.6534 0 0 0-1.4688-0.40625z" filter="url(#l)" opacity=".53488"/></g><path d="m101.34 8v7.9688h-10.688c-10.249 0-19.315 4.2397-24.906 9.7188-5.7619 5.6461-8.7957 11.809-11.75 17.062-2.943 5.2336-5.4678 9.1958-8.5 11.75-2.7331 2.3022-6.3443 4.125-13.5 4.125h-24.376v32.094h35.177c4.8983 0 7.881 1.301 10.062 3 2.3972 1.867 4.2801 4.5576 6.4375 7.875 2.1643 3.3281 6.9106 7.0434 10.636 10.281 3.593 3.1228 9.0537 5.5 15.406 5.5h16v7.9688l18.781-14.656-18.781-14.656v7.9688h-10.688c-4.0239 0-9.1326-1.2166-10.969-2.8125-2.1507-1.8692-3.9525-4.6257-6.1875-8.0625-2.2272-3.4248-4.7215-8.595-8.8125-11.781-2.6027-2.0271-6.361-4.098-10.281-5-1.0503-0.24165-2.259-0.49778-3.3125-0.71875 1.1366-0.2322 2.317-0.69808 3.1875-1.1562 2.8634-1.5071 5.5346-3.0713 7.75-4.9375 6.5727-5.5366 10.205-10.723 13.312-16.25 3.1191-5.5468 5.4994-9.7391 8.0938-12.281 1.0403-1.0194 2.1219-2.0765 3.75-2.75s3.4889-0.875 6.1562-0.875h8v7.9688l21.312-18.688z" fill="url(#n)"/><path d="m101.34 8.0312v7.9688h-10.688c-10.249 0-19.315 4.2397-24.906 9.7188-5.7619 5.6461-8.7957 11.809-11.75 17.062-2.943 5.2336-5.4678 9.1958-8.5 11.75-2.7331 2.3022-6.3443 4.125-13.5 4.125h-24.376v11.219c1.3324-0.76907 2.8678-1.1829 4.4063-1.1875h28.594c6.1433 0 8.8571-1.5733 10.625-3.0625 2.3436-1.9741 4.5736-5.3271 7.5-10.531 2.9012-5.1593 6.1435-11.834 12.5-18.062 6.5589-6.427 7.8472-11 19.406-11l11.578-1.9058 20.422 2.5621z" fill="url(#o)"/><path d="m61.21 78.99c6.9129 6.4671 10.665 17.865 16.009 26.792 2.2993 3.5356 13.254 6.542 18.643 6.3027 5.3888-0.23936 24.175-1.4214 24.175-1.4214l-18.649-14.568-0.0442 7.9991h-10.562c-4.0239 0-8.7576-1.0916-10.594-2.6875-2.1507-1.8692-4.4525-4.2507-6.6875-7.6875-1.5586-2.3967-6.3889-10.964-12.29-14.729z" fill="url(#p)"/></g></svg>
