<?xml version="1.0" encoding="UTF-8"?>
<svg version="1.1" viewBox="0 0 64 64" xmlns="http://www.w3.org/2000/svg"><rect x="4" y="5" width="56" height="56" rx="2.8" ry="2.8" opacity=".2"/><rect x="4" y="4" width="56" height="56" rx="2.8" ry="2.8" fill="#e64031"/><path d="m8 26v13h9v-3h-6v-2h6v-3h-6v-2h6v-3zm17.523 0c-1.2463 0-2.28 0.2701-3.1035 0.8125-0.81234 0.5424-1.4177 1.2987-1.8184 2.2656-0.40061 0.96689-0.60156 2.0994-0.60156 3.3965 0 1.3088 0.20096 2.451 0.60156 3.4297 0.40061 0.97868 1.006 1.7408 1.8184 2.2832 0.82347 0.5424 1.8527 0.8125 3.0879 0.8125 1.2018 0 2.2091-0.2701 3.0215-0.8125 0.28968-0.19342 0.54449-0.4242 0.7832-0.67188l-2.1426-2.168c-0.39666 0.42743-0.94686 0.65234-1.666 0.65234-0.85999 0-1.4914-0.30996-1.8965-0.93164-0.40512-0.62976-0.60742-1.4901-0.60742-2.5801 0-1.09 0.20231-1.943 0.60742-2.5566 0.41222-0.62168 1.0502-0.93164 1.9102-0.93164 0.71103 0 1.2537 0.22367 1.6484 0.64844l2.1465-2.1719c-0.23871-0.24647-0.49352-0.47484-0.7832-0.66406-0.81234-0.5424-1.8152-0.8125-3.0059-0.8125zm6.4766 0v13h3v-5h4v5h3v-13h-3v5h-4v-5zm18.523 0c-1.2463 0-2.28 0.2701-3.1035 0.8125-0.81234 0.5424-1.4177 1.2987-1.8184 2.2656-0.40061 0.96689-0.60156 2.0994-0.60156 3.3965 0 1.3088 0.20096 2.451 0.60156 3.4297 0.40061 0.97868 1.006 1.7408 1.8184 2.2832 0.82347 0.5424 1.8527 0.8125 3.0879 0.8125 1.2018 0 2.2091-0.2701 3.0215-0.8125s1.4242-1.2987 1.8359-2.2656c0.42286-0.97868 0.63477-2.1208 0.63477-3.4297 0-1.3088-0.2119-2.4472-0.63477-3.4141-0.41174-0.97868-1.0236-1.735-1.8359-2.2656-0.81234-0.5424-1.8152-0.8125-3.0059-0.8125zm-0.0059 3c0.85999 0 1.4868 0.30996 1.8848 0.93164 0.39811 0.61361 0.5977 1.4667 0.5977 2.5566 0 1.09-0.19965 1.9503-0.59766 2.5801-0.39801 0.62168-1.0313 0.93164-1.8984 0.93164-0.85999 0-1.4914-0.30996-1.8965-0.93164-0.40512-0.62976-0.60742-1.4901-0.60742-2.5801 0-1.09 0.20231-1.943 0.60742-2.5566 0.41222-0.62168 1.0502-0.93164 1.9102-0.93164z" opacity=".2"/><path d="m8 25v13h9v-3h-6v-2h6v-3h-6v-2h6v-3h-9zm17.523 0c-1.2463 0-2.28 0.2701-3.1035 0.8125-0.81234 0.5424-1.4177 1.2987-1.8184 2.2656-0.40061 0.96689-0.60156 2.0994-0.60156 3.3965 0 1.3088 0.20096 2.451 0.60156 3.4297 0.40061 0.97868 1.006 1.7408 1.8184 2.2832 0.82347 0.5424 1.8527 0.8125 3.0879 0.8125 1.2018 0 2.2091-0.2701 3.0215-0.8125 0.28968-0.19342 0.54449-0.4242 0.7832-0.67188l-2.1426-2.168c-0.39666 0.42743-0.94686 0.65234-1.666 0.65234-0.85999 0-1.4914-0.30996-1.8965-0.93164-0.40512-0.62976-0.60742-1.4901-0.60742-2.5801 0-1.09 0.20231-1.943 0.60742-2.5566 0.41222-0.62168 1.0502-0.93164 1.9102-0.93164 0.71103 0 1.2537 0.22367 1.6484 0.64844l2.1465-2.1719c-0.23871-0.24647-0.49352-0.47484-0.7832-0.66406-0.81234-0.5424-1.8152-0.8125-3.0059-0.8125zm6.4766 0v13h3v-5h4v5h3v-13h-3v5h-4v-5h-3zm18.523 0c-1.2463 0-2.28 0.2701-3.1035 0.8125-0.81234 0.5424-1.4177 1.2987-1.8184 2.2656-0.40061 0.96689-0.60156 2.0994-0.60156 3.3965 0 1.3088 0.20096 2.451 0.60156 3.4297 0.40061 0.97868 1.006 1.7408 1.8184 2.2832 0.82347 0.5424 1.8527 0.8125 3.0879 0.8125 1.2018 0 2.2091-0.2701 3.0215-0.8125s1.4242-1.2987 1.8359-2.2656c0.42286-0.97868 0.63477-2.1208 0.63477-3.4297 0-1.3088-0.2119-2.4472-0.63477-3.4141-0.41174-0.97868-1.0236-1.735-1.8359-2.2656-0.81234-0.5424-1.8152-0.8125-3.0059-0.8125zm-0.00586 3c0.85999 0 1.4868 0.30996 1.8848 0.93164 0.39807 0.61361 0.59766 1.4667 0.59766 2.5566 0 1.09-0.19965 1.9503-0.59766 2.5801-0.39801 0.62168-1.0313 0.93164-1.8984 0.93164-0.85999 0-1.4914-0.30996-1.8965-0.93164-0.40512-0.62976-0.60742-1.4901-0.60742-2.5801 0-1.09 0.20231-1.943 0.60742-2.5566 0.41222-0.62168 1.0502-0.93164 1.9102-0.93164z" fill="#fff"/><path d="m6.8008 4c-1.5512 0-2.8008 1.2496-2.8008 2.8008v1c0-1.5512 1.2496-2.8008 2.8008-2.8008h50.398c1.5512 0 2.8008 1.2496 2.8008 2.8008v-1c0-1.5512-1.2496-2.8008-2.8008-2.8008h-50.398z" fill="#fff" opacity=".2"/></svg>
