<?xml version="1.0" encoding="UTF-8"?>
<svg width="800px" height="800px" preserveAspectRatio="xMidYMid" version="1.1" viewBox="0 -8 256 256" xmlns="http://www.w3.org/2000/svg"><defs><linearGradient id="c" x1="50%" x2="50%" y1="1089.4%" y2="-159.5%"><stop stop-color="#473788" offset=".3033"></stop><stop stop-color="#2C2255" offset=".872"></stop></linearGradient><linearGradient id="b" x1="49.999%" x2="49.999%" y1="896.54%" y2="-352.36%"><stop stop-color="#473788" offset=".3033"></stop><stop stop-color="#2C2255" offset=".872"></stop></linearGradient><linearGradient id="a" x1="49.999%" x2="49.999%" y1="215.17%" y2="-166.72%"><stop stop-color="#473788" offset=".3033"></stop><stop stop-color="#2C2255" offset=".8631"></stop></linearGradient></defs><path d="m251.48 152.82c-5.2354 17.822-14.945 33.8-29.151 47.913l-0.62488 0.62499c-17.739 17.625-38.397 28.193-61.954 31.748-5.9525 0.89756-12.081 1.3686-18.406 1.3686-31.642 0-58.7-11.237-81.202-33.742-14.115-14.117-23.756-30.091-28.952-47.913zm4.4222-26.648c-0.21092 4.2457-0.64962 8.3946-1.2854 12.464l-0.21917 1.3535h-226.1c-0.67704-4.0517-1.1567-8.1812-1.4149-12.406l-0.077865-1.4117h229.1zm-1.5092-26.648c0.68126 4.0538 1.1632 8.1835 1.4236 12.406l0.078571 1.411h-229.09c0.20881-4.2436 0.6435-8.3923 1.275-12.463l0.21777-1.3541h226.1z" fill="#2C2255"></path><path d="m251.49 86.691c-5.2307-17.872-14.942-33.92-29.155-48.136-17.832-17.832-38.64-28.53-62.396-32.129-6.0087-0.91162-12.198-1.3897-18.589-1.3897-31.642 0-58.702 11.176-81.202 33.519-14.12 14.216-23.765 30.264-28.959 48.136" fill="#2C2255"></path><path d="m19.99 119.76c0-60.519 45.452-110.8 104.58-119.65-1.467-0.053901-2.9411-0.11249-4.4222-0.11249-66.354 0-120.15 53.619-120.15 119.76 0 66.143 53.793 119.76 120.15 119.76 1.4858 0 2.9598-0.056244 4.4316-0.11014-59.138-8.8444-104.59-59.129-104.59-119.65z" fill="#F7941E"></path><g transform="translate(63.11 99.069)"><path d="m156.2 14.27c-0.38433-4.7362-1.1811-9.3553-2.3716-13.817h-151.18c-1.1905 4.4597-1.9896 9.0787-2.374 13.817h155.92z" fill="url(#c)"></path><path d="m156.2 27.103h-155.92c0.38433 4.7362 1.1788 9.3553 2.3716 13.817h151.18c1.1905-4.462 1.9849-9.0811 2.3693-13.817z" fill="url(#b)"></path><path d="m78.24 98.936c31.396 0 58.459-18.497 70.921-45.185h-141.84c12.463 26.688 39.525 45.185 70.921 45.185z" fill="url(#a)"></path></g><path d="m254.37 139.99c-0.77101 4.3683-1.7811 8.6522-3.0325 12.833h-220.15c-1.2538-4.1831-2.1279-8.4671-2.8966-12.833zm1.3335-26.648c0.12655 2.2099 0.20857 4.4292 0.20857 6.6673 0 2.0693-0.060931 4.1246-0.16873 6.1658h-228.98c-0.1078-2.0412-0.16873-4.0964-0.16873-6.1658 0-2.238 0.082023-4.4597 0.20857-6.6673zm-5.1159-26.648c1.2725 4.1808 2.2919 8.4671 3.084 12.833h-225.37c0.78976-4.3683 1.6123-8.6545 2.8872-12.833z" fill="#fff"></path></svg>
