<?xml version="1.0" encoding="UTF-8"?>
<svg id="d" width="48" height="48" version="1.0" viewBox=".171 .201 512 512" xml:space="preserve" xmlns="http://www.w3.org/2000/svg" xmlns:xlink="http://www.w3.org/1999/xlink"><defs id="e"><filter id="c" x="-.044627" y="-.044175" width="1.0893" height="1.0884" color-interpolation-filters="sRGB"><feGaussianBlur id="f" stdDeviation="8.7848425"/></filter><linearGradient id="b" x1="-122.2" x2="236.61" y1="-161.85" y2="300.74" gradientTransform="matrix(.87386 0 0 .82818 246.01 250.28)" gradientUnits="userSpaceOnUse"><stop id="g" stop-color="#8381c5" offset="0"/><stop id="h" stop-color="#7e55b3" stop-opacity=".99608" offset=".56639"/><stop id="i" stop-color="#a52ecb" stop-opacity=".99216" offset="1"/></linearGradient><linearGradient id="a" x1="447.81" x2="173.95" y1="396.61" y2="66.018" gradientTransform="matrix(.98685 0 0 .98685 3.0344 2.525)" gradientUnits="userSpaceOnUse"><stop id="j" stop-color="#411f5d" offset="0"/><stop id="k" stop-color="#5b2a85" offset="1"/></linearGradient></defs><rect id="l" x=".171" y=".201" width="512" height="512" display="none" fill="none"/><g id="m" display="none"/><g id="n" display="none"><g id="o" display="inline"><path id="p" d="m349.1 256.65c-0.265-0.254 37.637 27.605 39.421 25.012 6.362-9.252 82.046-93.137 84.784-116.24 0.242-2.003-0.516-4.096-0.516-4.096s-1.19-0.144-6.325-4.314c-2.692-2.192-5.483-4.581-5.483-4.581-16.054 0.998-57.885 41.559-111.06 103.57" display="none" fill="#050505"/></g></g><path id="q" transform="matrix(.98685 0 0 .98685 3.0344 2.525)" d="m491.67 257.76c0 131.79-105.76 238.63-236.22 238.63s-236.22-106.84-236.22-238.63c0-131.79 105.76-238.63 236.22-238.63s236.22 106.84 236.22 238.63z" fill="#211f46" fill-opacity=".99608" filter="url(#c)" opacity=".405" stroke="#0a0b1b" stroke-miterlimit="4" stroke-width="8.5333"/><path id="r" d="m488.24 256.89c0 130.06-104.37 235.5-233.12 235.5s-233.12-105.44-233.12-235.5c0-130.06 104.37-235.5 233.12-235.5s233.12 105.44 233.12 235.5z" fill="url(#b)" stroke="url(#a)" stroke-miterlimit="4" stroke-width="13.338"/><path id="s" d="m175 422.31s19.738 1.3963 45.131-0.84159c10.283-0.9063 49.327-4.7413 78.517-11.143 0 0 35.59-7.6167 54.63-14.633 19.922-7.3418 30.764-13.573 35.643-22.402-0.2128-1.8091 1.5024-8.2244-7.685-12.078-23.489-9.852-50.73-8.07-104.63-9.2128-59.777-2.0539-79.663-12.06-90.256-20.118-10.158-8.1752-5.05-30.793 38.474-50.715 21.924-10.609 107.87-30.187 107.87-30.187-28.945-14.307-82.919-39.459-94.013-44.89-9.7308-4.7635-25.303-11.936-28.678-20.614-3.8271-8.3309 9.0383-15.507 16.225-17.562 23.145-6.676 55.818-10.825 85.555-11.291 14.947-0.23417 17.373-1.1959 17.373-1.1959 20.624-3.4212 34.201-17.532 28.545-39.879-5.0783-22.81-31.862-36.214-57.314-31.574-23.968 4.3696-81.738 21.15-81.738 21.15 71.408-0.61803 83.359 0.57378 88.697 8.0368 3.1523 4.4074-1.4324 10.451-20.476 13.561-20.733 3.3862-63.831 7.464-63.831 7.464-41.345 2.4554-70.468 2.6197-79.203 21.113-5.7065 12.082 6.0854 22.763 11.254 29.449 21.841 24.289 53.388 37.389 73.695 47.036 7.6405 3.6296 30.059 10.484 30.059 10.484-65.878-3.6234-113.4 16.606-141.28 39.896-31.529 29.163-17.581 63.924 47.012 85.327 38.152 12.642 57.072 18.587 113.98 13.462 33.52-1.8067 38.804-0.73155 39.138 2.0189 0.4705 3.8724-37.231 13.492-47.524 16.461-26.185 7.5531-94.828 22.804-95.171 22.878z" fill="#fff" fill-rule="evenodd" stroke-miterlimit="4" stroke-width="0"/></svg>
