<?xml version="1.0" encoding="UTF-8"?>
<svg id="a" version="1.1" viewBox="0 0 16 16" xmlns="http://www.w3.org/2000/svg"><g id="b" transform="translate(-31.976 -220.36)"><path id="c" transform="translate(31.976 220.36)" d="m4.0312 0.21875c-0.00492 8.612e-5 -0.08884 0.030897-0.09375 0.03125-0.00491 3.5288e-4 -0.088866-6.186e-4 -0.09375 0-0.00418 5.2366e-4 -0.05835-7.1698e-4 -0.0625 0s-0.089637 0.030341-0.09375 0.03125c-0.00411 9.0875e-4 -0.058434-0.001099-0.0625 0-0.00407 0.001099-0.089739 0.029964-0.09375 0.03125-0.00401 0.001286-0.058553 0.029779-0.0625 0.03125-0.00395 0.001471-0.089876 0.029598-0.09375 0.03125-0.00387 0.001652-0.058706 0.02942-0.0625 0.03125-0.00379 0.00183-0.058795 0.029246-0.0625 0.03125-0.0037 0.002004-0.090142 0.029076-0.09375 0.03125-0.00361 0.002174-0.058997 0.060161-0.0625 0.0625-0.0035 0.002339-0.059109 0.028751-0.0625 0.03125-0.00339 0.002499-0.059229 0.059846-0.0625 0.0625-0.00327 0.002653-0.059356 0.028448-0.0625 0.03125-0.00314 0.002802-0.059489 0.059555-0.0625 0.0625-0.00301 0.002945-0.028379 0.059418-0.03125 0.0625-0.00287 0.003082-0.059775 0.059288-0.0625 0.0625-0.00272 0.003212-0.059927 0.059165-0.0625 0.0625-0.00257 0.003335-0.028834 0.05905-0.03125 0.0625-0.00242 0.00345-0.060247 0.058941-0.0625 0.0625-0.00225 0.00356-0.029165 0.058841-0.03125 0.0625-0.00209 0.00366-0.029337 0.089998-0.03125 0.09375-0.00191 0.00375-0.029513 0.058663-0.03125 0.0625-0.00174 0.00384-0.029693 0.058587-0.03125 0.0625-0.00156 0.00391-0.029876 0.089769-0.03125 0.09375-0.00137 0.00398-0.030062 0.058459-0.03125 0.0625-0.00119 0.00404-0.030251 0.089658-0.03125 0.09375-9.993e-4 0.00409 8.084e-4 0.058366 0 0.0625-8.084e-4 0.00413-0.030634 0.089583-0.03125 0.09375-6.157e-4 0.00417 4.218e-4 0.058309 0 0.0625-4.218e-4 0.00419 2.269e-4 0.089544 0 0.09375-2.269e-4 0.00421 3.16e-5 0.058288 0 0.0625-2.1e-5 0.00281-3.803e-4 0.039681 0 0.0625 1.901e-4 0.01141-5.46e-5 0.029847 0 0.03125v11.969c-6.36e-5 0.0045-1.59e-4 0.05801 0 0.0625 1.59e-4 0.0045-3.813e-4 0.08927 0 0.09375 3.813e-4 0.0045-6.025e-4 0.08929 0 0.09375 6.025e-4 0.0045 0.030428 0.08933 0.03125 0.09375 8.223e-4 0.0044-0.00104 0.05813 0 0.0625 0.00104 0.0044 0.029995 0.08943 0.03125 0.09375 0.00126 0.0043 0.029783 0.0895 0.03125 0.09375 0.00147 0.0042 0.029574 0.05833 0.03125 0.0625 0.00168 0.0042 0.02937 0.08967 0.03125 0.09375 0.00188 0.0041 0.02917 0.05851 0.03125 0.0625 0.00208 4e-3 0.028975 0.05862 0.03125 0.0625 0.00228 0.0039 0.060036 0.08999 0.0625 0.09375 0.00246 0.0038 0.028603 0.05887 0.03125 0.0625 0.00265 0.0036 0.059676 0.059 0.0625 0.0625 0.00282 0.0035 0.059506 0.05915 0.0625 0.0625 0.00299 0.0034 0.059344 0.0593 0.0625 0.0625 0.00316 0.0032 0.059189 0.05946 0.0625 0.0625 0.00331 3e-3 0.059043 0.05963 0.0625 0.0625 0.00346 0.0029 0.058905 0.0598 0.0625 0.0625 0.0036 0.0027 0.058776 0.02873 0.0625 0.03125 0.00372 0.0025 0.058656 0.06017 0.0625 0.0625 0.00384 0.0023 0.089795 0.02911 0.09375 0.03125 0.00395 0.0021 0.058444 0.02931 0.0625 0.03125 0.00406 0.0019 0.089603 0.02951 0.09375 0.03125 0.00415 0.0017 0.058272 0.02972 0.0625 0.03125 0.00423 0.0015 0.089452 0.02993 0.09375 0.03125 0.0043 0.0013 0.058142 0.03015 0.0625 0.03125 0.00436 0.0011 0.089343 0.03036 0.09375 0.03125 0.00441 8.85e-4 0.089304-6.65e-4 0.09375 0 0.00445 6.65e-4 0.089277-4.45e-4 0.09375 0 0.00447 4.45e-4 0.05801 0.03103 0.0625 0.03125 0.00449 2.23e-4 0.089255 0 0.09375 0 0.0045 0 0.08926 2.23e-4 0.09375 0s0.058027-0.03081 0.0625-0.03125c0.00447-4.45e-4 0.089304 6.65e-4 0.09375 0 0.00445-6.65e-4 0.089343 8.85e-4 0.09375 0 0.00441-8.85e-4 0.089392-0.03015 0.09375-0.03125 0.00436-0.0011 0.058202-0.02993 0.0625-0.03125 0.0043-0.0013 0.089522-0.02972 0.09375-0.03125 0.00423-0.0015 0.058353-0.02951 0.0625-0.03125 0.00415-0.0017 0.089694-0.02931 0.09375-0.03125 0.00406-0.0019 0.058545-0.02911 0.0625-0.03125 0.00396-0.0021 0.089906-0.02892 0.09375-0.03125 0.00384-0.0023 0.058776-0.05998 0.0625-0.0625 0.00372-0.0025 0.058905-0.02855 0.0625-0.03125 0.0036-0.0027 0.059043-0.05963 0.0625-0.0625 0.00346-0.0029 0.059189-0.05946 0.0625-0.0625 0.00331-3e-3 0.059344-0.0593 0.0625-0.0625 0.00316-0.0032 0.059506-0.05915 0.0625-0.0625 0.00299-0.0034 0.059676-0.059 0.0625-0.0625 0.00282-0.0035 0.059853-0.05887 0.0625-0.0625 0.00265-0.0036 0.028786-0.05874 0.03125-0.0625 0.00246-0.0038 0.060225-0.08987 0.0625-0.09375 0.00228-0.0039 0.02917-0.05851 0.03125-0.0625 0.00208-4e-3 0.029369-0.05842 0.03125-0.0625 0.00188-0.0041 0.029574-0.08958 0.03125-0.09375 0.00168-0.0042 0.029782-0.05825 0.03125-0.0625 0.00147-0.0042 0.029995-0.08943 0.03125-0.09375 0.00126-0.0043 0.03021-0.08938 0.03125-0.09375 0.00104-0.0044-8.223e-4 -0.05808 0-0.0625 8.223e-4 -0.0044 0.030647-0.08929 0.03125-0.09375 6.025e-4 -0.0045-3.813e-4 -0.08927 0-0.09375 3.813e-4 -0.0045-1.59e-4 -0.08926 0-0.09375 1.59e-4 -0.0045 6.36e-5 -0.058 0-0.0625v-4.0625l6.5625-3.2812a0.7279 0.7279 0 0 0 0.40625-0.65625v-1a0.7279 0.7279 0 0 0-0.46875-0.6875l-6.5-2.4375v-0.03125c-3.414e-4 -0.00491 6.072e-4 -0.088864 0-0.09375-6.072e-4 -0.0048856-0.030379-0.088904-0.03125-0.09375s0.0011327-0.088959 0-0.09375-0.029859-0.089027-0.03125-0.09375-0.029605-0.08911-0.03125-0.09375-0.029356-0.089206-0.03125-0.09375-0.029112-0.058065-0.03125-0.0625-0.060125-0.089438-0.0625-0.09375c-0.00237-0.00431-0.028645-0.089573-0.03125-0.09375-0.00261-0.00418-0.059672-0.05847-0.0625-0.0625-0.00283-0.00403-0.059458-0.058629-0.0625-0.0625-0.0030422-0.0038708-0.028002-0.09005-0.03125-0.09375s-0.059057-0.058981-0.0625-0.0625-0.090121-0.059173-0.09375-0.0625-0.058696-0.059375-0.0625-0.0625-0.058532-0.059586-0.0625-0.0625-0.08963-0.059805-0.09375-0.0625-0.05824-0.028783-0.0625-0.03125-0.089362-0.060267-0.09375-0.0625-0.089248-0.029258-0.09375-0.03125-0.057896-0.029505-0.0625-0.03125-0.089058-0.029758-0.09375-0.03125-0.088984-0.030014-0.09375-0.03125c-0.00477-0.001236-0.088924 9.7563e-4 -0.09375 0-0.0048256-9.7563e-4 -0.088879-0.030537-0.09375-0.03125-0.00487-7.1255e-4 -0.088847 4.4739e-4 -0.09375 0-0.0049-4.4739e-4 -0.08883-0.031069-0.09375-0.03125s-0.088828-8.612e-5 -0.09375 0z" color="#000000" enable-background="accumulate" fill="#fff" style="block-progression:tb;text-indent:0;text-transform:none"/><path id="d" transform="translate(31.976 220.36)" d="m3.9375 0.96875a1.0001 1.0001 0 0 0-0.875 1.0312v12a1.0001 1.0001 0 1 0 2 0v-4.5l6.9688-3.5v-1l-6.9688-2.625v-0.375a1.0001 1.0001 0 0 0-1.125-1.0312z" color="#000000" enable-background="accumulate" fill="#555753" style="block-progression:tb;text-indent:0;text-transform:none"/></g></svg>
