<?xml version="1.0" encoding="UTF-8"?>
<svg id="z" version="1.0" viewBox="0 0 48 48" xmlns="http://www.w3.org/2000/svg" xmlns:xlink="http://www.w3.org/1999/xlink"><defs id="aa"><linearGradient id="a"><stop id="ab" stop-color="#fff" offset="0"/><stop id="ac" stop-color="#fff" stop-opacity="0" offset="1"/></linearGradient><radialGradient id="e" cx="605.71" cy="486.65" r="117.14" gradientTransform="matrix(-2.7744 0 0 1.9697 112.76 -872.89)" gradientUnits="userSpaceOnUse" xlink:href="#b"/><linearGradient id="b"><stop id="ad" offset="0"/><stop id="ae" stop-opacity="0" offset="1"/></linearGradient><radialGradient id="f" cx="605.71" cy="486.65" r="117.14" gradientTransform="matrix(2.7744 0 0 1.9697 -1891.6 -872.89)" gradientUnits="userSpaceOnUse" xlink:href="#b"/><linearGradient id="i" x1="302.86" x2="302.86" y1="366.65" y2="609.51" gradientTransform="matrix(2.7744 0 0 1.9697 -1892.2 -872.89)" gradientUnits="userSpaceOnUse"><stop id="af" stop-opacity="0" offset="0"/><stop id="ag" offset=".5"/><stop id="ah" stop-opacity="0" offset="1"/></linearGradient><linearGradient id="w" x1="15.876" x2="15.876" y1="39.987" y2="19.573" gradientTransform="matrix(1 0 0 1.0126 0 1.7922)" gradientUnits="userSpaceOnUse"><stop id="ai" stop-color="#959792" offset="0"/><stop id="aj" stop-color="#838681" offset=".25"/><stop id="ak" stop-color="#abaca9" offset=".62437"/><stop id="al" stop-color="#fff" offset=".79696"/><stop id="am" stop-color="#90928d" offset="1"/></linearGradient><linearGradient id="v" x1="21.5" x2="23.892" y1="21.859" y2="49.359" gradientTransform="matrix(1 0 0 .99858 0 2.0574)" gradientUnits="userSpaceOnUse"><stop id="an" stop-color="#fff" offset="0"/><stop id="ao" stop-color="#fff" stop-opacity="0" offset="1"/></linearGradient><linearGradient id="u" x1="38.907" x2="35.315" y1="38.791" y2="23.059" gradientUnits="userSpaceOnUse"><stop id="ap" stop-color="#888a85" offset="0"/><stop id="aq" stop-color="#6b6d68" offset="1"/></linearGradient><linearGradient id="h" x1="30.25" x2="30.25" y1="10.232" y2="8.625" gradientTransform="matrix(1.053 0 0 1 -2.245 0)" gradientUnits="userSpaceOnUse"><stop id="ar" stop-color="#555753" offset="0"/><stop id="as" stop-color="#838680" offset="1"/></linearGradient><radialGradient id="d" cx="34.312" cy="31.953" r="2.2812" gradientTransform="matrix(1 0 0 1.5548 0 -17.727)" gradientUnits="userSpaceOnUse"><stop id="at" stop-color="#d8d9d7" offset="0"/><stop id="au" stop-color="#7c7f79" offset="1"/></radialGradient><filter id="x" x="-.12409" y="-.079811" width="1.2482" height="1.1596"><feGaussianBlur id="av" stdDeviation="0.28308036"/></filter><linearGradient id="t" x1="34.125" x2="33.781" y1="35.5" y2="29.516" gradientUnits="userSpaceOnUse"><stop id="aw" stop-color="#5e5e5e" offset="0"/><stop id="ax" stop-color="#929292" offset="1"/></linearGradient><linearGradient id="r" x1="12.164" x2="11.655" y1="25.804" y2="31.648" gradientTransform="translate(2.6056 -.14901)" gradientUnits="userSpaceOnUse"><stop id="ay" stop-color="#f8f8f8" offset="0"/><stop id="az" stop-color="#c7c7c1" offset="1"/></linearGradient><linearGradient id="q" x1="20.882" x2="18.973" y1="39.454" y2="24.03" gradientTransform="translate(-1.0625)" gradientUnits="userSpaceOnUse"><stop id="ba" stop-color="#cbcbcb" offset="0"/><stop id="bb" stop-color="#9f9f9f" offset="1"/></linearGradient><linearGradient id="p" x1="16.207" x2="17.688" y1="25.374" y2="34.937" gradientUnits="userSpaceOnUse"><stop id="bc" stop-color="#fff" offset="0"/><stop id="bd" stop-color="#fff" stop-opacity="0" offset="1"/></linearGradient><filter id="y" x="-.076276" y="-.35729" width="1.1526" height="1.7146"><feGaussianBlur id="be" stdDeviation="0.60003059"/></filter><linearGradient id="o" x1="27.445" x2="26.719" y1="16.572" y2="26.118" gradientUnits="userSpaceOnUse"><stop id="bf" stop-color="#babdb6" offset="0"/><stop id="bg" stop-color="#dddedb" offset="1"/></linearGradient><linearGradient id="n" x1="14.444" x2="14.632" y1="34.454" y2="43.938" gradientTransform="translate(-.093174 -1.0625)" gradientUnits="userSpaceOnUse"><stop id="bh" stop-color="#fff" offset="0"/><stop id="bi" stop-color="#fff" stop-opacity="0" offset="1"/></linearGradient><radialGradient id="g" cx="30.128" cy="29.84" r="6.9986" gradientTransform="matrix(1.7481 0 0 1.7805 -23.043 -23.568)" gradientUnits="userSpaceOnUse"><stop id="bj" stop-color="#f1f1f0" offset="0"/><stop id="bk" stop-color="#555753" offset="1"/></radialGradient><linearGradient id="m" x1="38.449" x2="38.537" y1="8.6672" y2="10.435" gradientUnits="userSpaceOnUse" xlink:href="#a"/><linearGradient id="l" x1="38.449" x2="38.626" y1="8.6672" y2="12.291" gradientUnits="userSpaceOnUse" xlink:href="#a"/><linearGradient id="k" x1="38.449" x2="38.537" y1="8.6672" y2="10.435" gradientTransform="translate(.015625 -.023438)" gradientUnits="userSpaceOnUse" xlink:href="#a"/><linearGradient id="j" x1="40.546" x2="42.913" y1="9.4375" y2="9.8352" gradientUnits="userSpaceOnUse" xlink:href="#a"/><linearGradient id="s" x1="9.955" x2="9.5376" y1="43.938" y2="30.147" gradientUnits="userSpaceOnUse"><stop id="bl" stop-color="#4e83c7" offset="0"/><stop id="bm" stop-color="#4573a9" offset=".24324"/><stop id="bn" stop-color="#729fcf" offset="1"/></linearGradient></defs><g id="bo"><g id="bp" transform="matrix(.020031 0 0 .01419 39.92 42.113)" fill-rule="nonzero" opacity=".6"><rect id="bq" x="-1559.3" y="-150.7" width="1339.6" height="478.36" color="#000000" fill="url(#i)" opacity=".40206"/><path id="br" d="m-219.62-150.68v478.33c142.87 0.90045 345.4-107.17 345.4-239.2 0-132.03-159.44-239.13-345.4-239.13z" color="#000000" fill="url(#f)" opacity=".40206"/><path id="bs" d="m-1559.3-150.68v478.33c-142.87 0.90045-345.4-107.17-345.4-239.2 0-132.03 159.44-239.13 345.4-239.13z" color="#000000" fill="url(#e)" opacity=".40206"/></g><path id="bt" d="m20.671 38.122 18.567 0.28082c0.36016 0 0.4237 0.67686 0.4237 0.67686-0.7476 2.7901-3.8743 4.3557-5.9668 4.3557l-23.569 0.032248c7.2336-0.45208 7.7366-0.8855 8.3063-4.0394 0.48898-0.98829 1.4014-1.3063 2.2391-1.3063z" color="#000000" fill="#3465a4" fill-rule="evenodd" stroke="#204a87" stroke-linejoin="round" stroke-miterlimit="4" stroke-width="1"/><path id="bu" d="m10 20.525c-3.588 0-6.5 4.99-6.5 11.138s2.912 10.87 6.5 10.87c0.085669 0 0.16513-0.026006 0.25-0.031643v0.031643h22.22v-22.034s-14.812 0.18883-22.47 0.026213z" color="black" enable-background="accumulate" fill="url(#w)" fill-rule="nonzero" stroke="#555753" stroke-linecap="square" stroke-linejoin="miter" stroke-miterlimit="4" stroke-width=".99715"/><path id="bv" transform="matrix(1 0 0 1.0057 -3.625 1.7686)" d="m43.125 29.562a6.5 10.938 0 1 1-13 0 6.5 10.938 0 1 1 13 0z" color="black" enable-background="accumulate" fill="url(#u)" fill-rule="nonzero" stroke="url(#g)" stroke-linecap="square" stroke-linejoin="miter" stroke-miterlimit="4" stroke-width=".99715"/><path id="bw" d="m32.474 21.499s-14.973 0.17419-21.947 0.028372c-3.2678 0-5.9198 4.4743-5.9198 9.9872 0 5.513 2.6521 9.9872 5.9198 9.9872 0.078023 0 0.15039-0.023317 0.22769-0.028372v0.028372h21.719c3.2678 0 5.9198-4.4743 5.9198-9.9872 0-5.513-2.6521-9.9872-5.9198-9.9872v-0.028372z" color="black" enable-background="accumulate" fill="none" opacity=".41714" stroke="url(#v)" stroke-linecap="square" stroke-linejoin="miter" stroke-miterlimit="4" stroke-width=".99715"/><path id="bx" d="m22.188 8.5034c-1.0538 6e-7 -1.8945 0.46004-2.375 1.25l-5.2812 9.9688-0.375 0.75h0.8125 1.125 0.3125l0.125-0.28125 4.9062-9.2812c0.097094-0.15684 0.42421-0.40625 0.75-0.40625l21.672 0.007813c0.20957-0.015626 0.28457 0.19863 0.21094 0.29688l-10.914 19.883-0.25 0.4375 0.4375 0.25 0.875 0.46875 0.4375 0.21875 0.25-0.4375 11.062-20.156c0.36985-0.6259 0.24087-1.3212-0.0625-1.875-0.33653-0.6143-1.0244-1.1129-1.9062-1.0938h-21.812z" fill="url(#o)" fill-rule="evenodd" stroke="#555753" stroke-linejoin="miter" stroke-miterlimit="4" stroke-width="1"/><rect id="by" x="22.5" y="7.5" width="19.875" height="4" rx="2" ry="2" color="black" enable-background="accumulate" fill="url(#h)" fill-rule="nonzero" stroke="#2e3436" stroke-linecap="square" stroke-linejoin="miter" stroke-miterlimit="4" stroke-width="1"/><path id="bz" transform="matrix(1 0 0 .77472 -.50758 8.1057)" d="m35.562 31.953a1.7812 3.0469 0 1 1-3.5625 0 1.7812 3.0469 0 1 1 3.5625 0z" color="#000000" enable-background="accumulate" fill="#2e3436" fill-rule="nonzero" filter="url(#x)" opacity=".38286" stroke="#2e3436" stroke-linecap="square" stroke-linejoin="miter" stroke-miterlimit="4" stroke-width="1.1361"/><path id="ca" d="m35.562 31.953a1.7812 3.0469 0 1 1-3.5625 0 1.7812 3.0469 0 1 1 3.5625 0z" color="black" enable-background="accumulate" fill="url(#d)" fill-rule="nonzero" stroke="url(#t)" stroke-linecap="square" stroke-linejoin="miter" stroke-miterlimit="4" stroke-width="1"/><path id="c" d="m8.4947 23.5h15.029c0.47143 0 0.91345 0.50452 0.53845 1.0072-2.6009 4.317-1.6357 10.006 0.0625 14.14 0 0.47143-0.37952 0.85095-0.85095 0.85095l-15.217 1.3125c-0.47143 0-0.6947-0.53577-0.6947-1.0072-0.23847-4.7456-3.7041-11.546 0.48169-16.095 0 0 0.17908-0.20856 0.65051-0.20856z" color="#000000" enable-background="accumulate" fill="url(#r)" fill-rule="nonzero" stroke="url(#q)" stroke-linecap="square" stroke-linejoin="miter" stroke-miterlimit="4" stroke-width="1"/><path id="cb" d="m8.4688 24.5c-1.7561 1.974-1.9483 4.3662-1.5938 7.0625 0.35981 2.7368 1.3072 5.5952 1.4375 8.1875 1.628e-4 0.010416 1.628e-4 0.020834 0 0.03125l14.656-1.2812c-1.5883-4.1081-2.4234-9.5241-0.03125-14h-14.469z" color="#000000" enable-background="accumulate" fill="none" stroke="url(#p)" stroke-linecap="square" stroke-linejoin="miter" stroke-miterlimit="4" stroke-width="1" xlink:href="#c"/><path id="cc" d="m8 29.579 5.0823 0.17678 0.39775 1.37 10.032 0.7513 0.22097 1.0607-15.247-0.22097-0.48614-3.1378z" fill="#000" fill-rule="evenodd" filter="url(#y)" opacity=".20571"/><path id="cd" d="m21.954 32.404h-8.9965c-0.33275 0-0.72006-0.17856-1.0032-0.41358-0.12132-0.10068-0.4126-2.1218-0.48928-2.183-0.25547-0.20384-0.55873-0.3544-0.81402-0.35586l-7.721-0.044194c-0.36016 0-0.4237 0.67686-0.4237 0.67686-0.14012 5.3308 1.9424 13.344 7.7989 13.321l23.569 0.032248c-7.2336-0.45208-9.1116-6.573-9.6813-9.7269-0.48898-0.98829-1.4014-1.3063-2.2391-1.3063z" color="#000000" fill="url(#s)" fill-rule="evenodd" stroke="#204a87" stroke-linejoin="round" stroke-miterlimit="4" stroke-width="1"/><path id="ce" d="m3.5006 30.469c-0.019137 2.4624 0.43757 5.4908 1.5312 7.8438 1.1413 2.4554 2.7417 4.041 5.1875 4.0312l17.719 0.03125c-2.8506-1.8728-4.0041-4.9875-4.7812-8.1875-0.303-0.6124-0.71642-0.71875-1.2812-0.71875h-9c-0.69565 0-1.237-0.28235-1.6875-0.65625-0.30145-0.25016-0.27733-0.3569-0.3125-0.4375s-0.045405-0.13187-0.0625-0.1875c-0.034191-0.11126-0.067358-0.22756-0.09375-0.34375-0.052784-0.23237-0.10556-0.48374-0.15625-0.75-0.041757-0.21936-0.059779-0.42183-0.09375-0.59375l-6.9688-0.03125z" color="#000000" fill="none" opacity=".37714" stroke="url(#n)" stroke-linejoin="miter" stroke-miterlimit="4" stroke-width="1"/><path id="cf" transform="matrix(.30995 0 0 .30995 31.494 6.4918)" d="m45.697 10.258a1.0607 1.0607 0 1 1-2.1213 0 1.0607 1.0607 0 1 1 2.1213 0z" color="#000000" enable-background="accumulate" fill="#fff" fill-rule="nonzero"/><path id="cg" d="m20.815 10.479-4.9497 9.5017h-0.39775l5.3475-9.5017z" fill="#fff" fill-rule="evenodd"/><path id="ch" d="m45.255 11.186-9.8995 18.208-0.26516-0.44194 10.165-17.766z" fill="#fff" fill-rule="evenodd"/><path id="ci" transform="matrix(.25265 0 0 .25265 9.7197 7.1513)" d="m45.697 10.258a1.0607 1.0607 0 1 1-2.1213 0 1.0607 1.0607 0 1 1 2.1213 0z" color="#000000" enable-background="accumulate" fill="#fff" fill-rule="nonzero"/><path id="cj" d="m39.156 38.938c-0.25 1.8125-2.7188 3.5938-5.0625 4.0312 1.5173-0.61136 3.7734-1.2932 5.0625-4.0312z" fill="#fff" fill-rule="evenodd" opacity=".53143"/><path id="ck" d="m38.188 8.0185c-0.52345 0.13606-0.9375 0.73309-0.9375 1.4375 0 0.79095 0.50605 1.4464 1.125 1.4688 0.011025 3.98e-4 0.02015 0 0.03125 0h2.25c0.0111 0 0.020226 3.98e-4 0.03125 0 0.61895-0.022317 1.125-0.6778 1.125-1.4688 0-0.79067-0.50637-1.4147-1.125-1.4375h-0.25-1.8125-0.21875c-0.011326 0-0.020002-4.138e-4 -0.03125 0-0.067487 0.002483-0.1234-0.016661-0.1875 0z" color="#000000" enable-background="accumulate" fill="url(#l)" fill-rule="nonzero" opacity=".53143"/><path id="cl" transform="matrix(1.2222 0 0 1 -9.2655 .022097)" d="m41.719 9.4375a0.70312 1.1562 0 1 1-1.4062 0 0.70312 1.1562 0 1 1 1.4062 0z" color="#000000" enable-background="accumulate" fill="url(#j)" fill-rule="nonzero" opacity=".48571"/><path id="cm" d="m43.875 9h-2.5156c-0.66425 0-0.5956 1 0 1h2.2496l0.26601-1z" fill="#babdb6" fill-rule="evenodd"/><path id="cn" d="m24.312 8.0312c-0.65867 0-1.25 0.63246-1.25 1.4375 0 0.80504 0.5757 1.5156 1.2344 1.5156l1.5605 0.033931c-0.41892-0.18972-0.9365-0.70502-0.9365-1.5404 0-0.81977 0.56737-1.3238 0.89767-1.4714-0.30906-0.044572-1.219 0.024778-1.506 0.024778z" color="#000000" enable-background="accumulate" fill="url(#m)" fill-rule="nonzero" opacity=".53143"/><rect id="co" x="41.234" y="9.1641" width="2.7812" height=".1875" rx=".09375" ry=".09375" color="#000000" enable-background="accumulate" fill="url(#k)" fill-rule="nonzero"/><path id="cp" d="m40.204 8.5833c-0.18194 0-0.3296 0.14766-0.3296 0.3296 0 0.045485 0.024514 0.084172 0.0412 0.1236-0.13998 0.27584-0.089486 0.79234 0.4738 1.2772-0.35033-0.4428-0.37899-0.81153-0.2678-1.0918 0.028231 0.0078802 0.051668 0.0206 0.082401 0.0206 0.18194 0 0.3296-0.14766 0.3296-0.3296 0-0.18194-0.14766-0.3296-0.3296-0.3296z" color="#000000" enable-background="accumulate" fill="#fff" fill-rule="nonzero"/></g></svg>
