<?xml version="1.0" encoding="UTF-8"?>
<svg version="1.1" viewBox="0 0 64 64" xmlns="http://www.w3.org/2000/svg"><rect x="2" y="11" width="60" height="44" rx="4.091" ry="4.125" opacity=".2"/><rect x="2" y="10" width="60" height="44" rx="4.091" ry="4.125" fill="#e31e27"/><path d="m7.8398 11c-2.0672 1.6655-2.6079 3.5888 0.76172 6.168 14.889 9.6002 36.464 16.309 30.652 35.832h18.656c2.2664 0 4.0898-1.8398 4.0898-4.125v-33.75c0-2.2852-1.8235-4.125-4.0898-4.125z" opacity=".2"/><path d="m7.8414 10c-2.0672 1.6655-2.6079 3.5868 0.76172 6.166 15.387 9.9213 37.917 16.754 29.979 37.834h19.327c2.2664 0 4.0909-1.8398 4.0909-4.125v-35.75c0-2.2852-1.8245-4.125-4.0909-4.125z" fill="#e46f3e"/><path d="m34.969 37.992-2.3262 3.0469c-1.2789 1.6754-2.3242 3.0573-2.3242 3.0684 0 0.0112 0.78178 0.01953 1.7363 0.01953h1.7344v0.87305h1.2012v-0.87305h0.75586v-0.96094h-0.75391l-0.01367-2.5879zm-8.0352 0.007812c-0.29872-0.0029-0.60344 0.02444-0.8125 0.08008-0.8576 0.22828-1.3442 0.86234-1.5352 2.0078l-0.02539 0.16992h1.248v-0.12695c0.0015-0.72567 0.87686-1.2553 1.5586-0.94531 0.59412 0.27015 0.82541 0.85388 0.55859 1.4023-0.07218 0.1484-0.71071 0.93992-1.6992 2.1094-0.87108 1.0305-1.6619 1.9722-1.7598 2.0898l-0.17774 0.21289h4.9473v-1.0742l-1.2441-0.0098-1.2402-0.01172 1.0234-1.207c0.56145-0.66418 1.0765-1.299 1.1465-1.4102 0.22465-0.35677 0.28646-0.60173 0.28906-1.1445 0.0022-0.48355-0.0027-0.50372-0.16602-0.83594-0.29005-0.59022-0.76936-1.025-1.3398-1.2129-0.18048-0.059424-0.47276-0.090784-0.77148-0.093714zm-21.934 0.056641v7h3.25v-0.1543c0-0.08362 0.013381-0.36837 0.029297-0.63477l0.029297-0.48633h-2.1074v-1.8184h1.9141v-1.2266h-1.9141v-1.4102h2.0898v-0.14844c0-0.08362-0.00948-0.37227-0.025391-0.63867l-0.029296-0.48242h-1.6191zm6.0801 2.6426c-0.4857 0.0028-0.97506 0.15275-1.3184 0.46289l-0.16797 0.15234-0.27734-0.24219c-0.15294-0.1334-0.2862-0.24414-0.29688-0.24414-0.01072 0-0.019531 0.95069-0.019531 2.1133v2.1152h1.1523l0.01367-1.3477c0.01344-1.3348 0.01468-1.3481 0.125-1.5664 0.16275-0.32212 0.29228-0.39792 0.70312-0.41602 0.30009-0.0132 0.36038-4e-3 0.49609 0.08789 0.24376 0.16534 0.26178 0.28704 0.26562 1.8516l0.0039 1.3906h1.1562v-1.4609c0-1.6271-0.0266-1.8225-0.28125-2.1992-0.31094-0.45995-0.93022-0.7008-1.5547-0.69726zm2.8887 0.26562c-0.36564 0-0.66406 0.0089-0.66406 0.01953 0 0.0106 0.5431 0.99958 1.207 2.2012l1.2051 2.1875 1.1973-2.1914c0.65776-1.2056 1.1953-2.2006 1.1953-2.207 0-0.0066-0.29814-0.0098-0.66406-0.0098h-0.66406l-0.52539 1.0234c-0.28881 0.56245-0.53659 1.0214-0.54883 1.0215-0.01214 6.8e-5 -0.25975-0.45895-0.54883-1.0215l-0.52539-1.0234zm5.2246 0.035156c-0.37592 0-0.68164 0.01681-0.68164 0.03711 0 0.02027 0.40182 1.0073 0.89258 2.1953 0.49076 1.188 0.89317 2.1917 0.89648 2.2305 0.0032 0.03875-0.22744 0.59997-0.51562 1.2461-0.28819 0.64613-0.53613 1.2001-0.54883 1.2324-0.0179 0.04555 0.137 0.05859 0.6875 0.05859h0.71094l0.85938-1.9609c0.47369-1.079 1.1648-2.6536 1.5371-3.5l0.67969-1.5391h-1.3613l-0.61328 1.4434c-0.33777 0.79474-0.62533 1.4595-0.64062 1.4785-0.0152 0.01901-0.29617-0.62961-0.62305-1.4434l-0.5957-1.4785zm14.553 0.41016c0.03632-0.0015 0.04297 0.18069 0.04297 0.85156v0.9043h-0.66602c-0.4274 0-0.66797-0.01415-0.66797-0.04297 0-0.04074 1.1277-1.552 1.2715-1.7031 0.0066-0.0068 0.01433-0.0096 0.01953-0.0098z" opacity=".2"/><path d="m34.969 36.992-2.3262 3.0469c-1.2789 1.6754-2.3242 3.0573-2.3242 3.0684 0 0.0112 0.78178 0.019531 1.7363 0.019531h1.7344v0.43555 0.4375h0.60156 0.59961v-0.4375-0.43555h0.37695 0.37891v-0.48047-0.48047h-0.37891-0.375l-0.013672-2.5879-0.009766-2.5859zm-8.0352 0.007812c-0.29872-0.0029-0.60344 0.024438-0.8125 0.080078-0.8576 0.22828-1.3442 0.86234-1.5352 2.0078l-0.025391 0.16992h0.62305 0.625v-0.12695c0.0015-0.72567 0.87686-1.2553 1.5586-0.94531 0.59412 0.27015 0.82541 0.85388 0.55859 1.4023-0.07218 0.1484-0.71071 0.93992-1.6992 2.1094-0.87108 1.0305-1.6619 1.9722-1.7598 2.0898l-0.17774 0.21289h2.4727 2.4746v-0.53516-0.53906l-1.2441-0.009765-1.2402-0.011719 1.0234-1.207c0.56145-0.66418 1.0765-1.299 1.1465-1.4102 0.22465-0.35677 0.28646-0.60173 0.28906-1.1445 0.002199-0.48355-0.002696-0.50372-0.16602-0.83594-0.29005-0.59022-0.76936-1.025-1.3398-1.2129-0.18048-0.05946-0.47276-0.09082-0.77148-0.09375zm-21.934 0.056641v3.5 3.5h1.625 1.625v-0.1543c0-0.08362 0.013381-0.36837 0.029297-0.63477l0.029297-0.48633h-1.0547-1.0527v-0.90625-0.91211h0.95703 0.95703v-0.61328-0.61328h-0.95703-0.95703v-0.70508-0.70508h1.0469 1.043v-0.14844c0-0.08362-0.0094766-0.37227-0.025391-0.63867l-0.029297-0.48242h-1.6191-1.6172zm6.0801 2.6426c-0.4857 0.0028-0.97506 0.15275-1.3184 0.46289l-0.16797 0.15234-0.27734-0.24219c-0.15294-0.1334-0.2862-0.24414-0.29688-0.24414-0.01072 0-0.019531 0.95069-0.019531 2.1133v2.1152h0.57617 0.57617l0.013672-1.3477c0.01344-1.3348 0.014682-1.3481 0.125-1.5664 0.16275-0.32212 0.29228-0.39792 0.70312-0.41602 0.30009-0.013199 0.36038-0.003989 0.49609 0.087891 0.24376 0.16534 0.26178 0.28704 0.26562 1.8516l0.003907 1.3906h0.57812 0.57812v-1.4609c0-1.6271-0.026598-1.8225-0.28125-2.1992-0.31094-0.45995-0.93022-0.7008-1.5547-0.69726zm2.8887 0.26562c-0.36564 0-0.66406 0.008931-0.66406 0.019531s0.5431 0.99958 1.207 2.2012l1.2051 2.1875 1.1973-2.1914c0.65776-1.2056 1.1953-2.2006 1.1953-2.207 0-0.0066-0.29814-0.009765-0.66406-0.009765h-0.66406l-0.52539 1.0234c-0.28881 0.56245-0.53659 1.0214-0.54883 1.0215-0.01214 6.8e-5 -0.25975-0.45895-0.54883-1.0215l-0.52539-1.0234h-0.66406zm5.2246 0.035156c-0.37592 0-0.68164 0.016809-0.68164 0.037109 0 0.02027 0.40182 1.0073 0.89258 2.1953 0.49076 1.188 0.89317 2.1917 0.89648 2.2305 0.0032 0.03875-0.22744 0.59997-0.51562 1.2461-0.28819 0.64613-0.53613 1.2001-0.54883 1.2324-0.0179 0.04555 0.137 0.058594 0.6875 0.058594h0.71094l0.85938-1.9609c0.47369-1.079 1.1648-2.6536 1.5371-3.5l0.67969-1.5391h-0.68164-0.67969l-0.61328 1.4434c-0.33777 0.79474-0.62533 1.4595-0.64062 1.4785-0.0152 0.01901-0.29617-0.62961-0.62305-1.4434l-0.5957-1.4785h-0.68359zm14.553 0.41016c0.03632-0.0015 0.042968 0.18069 0.042968 0.85156v0.9043h-0.66602c-0.4274 0-0.66797-0.014149-0.66797-0.042969 0-0.04074 1.1277-1.552 1.2715-1.7031 0.0066-0.0068 0.014332-0.009566 0.019532-0.009766z" fill="#fff"/><path d="m55.74 13.956c-0.85406-0.0077-2.2088 0.23367-3.8639 0.70399-0.43489 0.12359-0.75972 0.24557-0.66667 0.25042 0.0162 8.81e-4 0.25883-0.04629 0.53781-0.10493 0.40505-0.08511 0.62104-0.10717 1.0718-0.10954 0.51654-0.0029 0.57404 0.0043 0.67712 0.08172 0.09788 0.07362 0.11256 0.11102 0.11122 0.28458-0.0024 0.26049-0.18424 0.54132-0.65245 1.0051-0.46725 0.46285-1.834 1.5535-1.9469 1.5535-0.02012 0-0.37393-0.58496-0.78604-1.2999-0.60642-1.052-0.75784-1.2884-0.79371-1.2394-0.0244 0.03338-0.74193 1.2699-1.5946 2.7478-1.2315 2.1345-1.5753 2.7015-1.6719 2.7571-0.46095 0.26545-1.3465 0.70323-1.3279 0.65645 0.0134-0.0312 0.8204-1.4371 1.7954-3.1241l1.7727-3.0674-2.0953-0.01016c-1.6439-0.0079-2.1053 5.25e-4 -2.1415 0.03986-0.02532 0.02756-1.0236 1.7441-2.2182 3.8145-1.1946 2.0704-2.3622 4.0928-2.5946 4.4941-0.34726 0.59979-0.40652 0.7248-0.33296 0.70241 0.04922-0.0142 0.54659-0.19812 1.1053-0.40688 4.3337-1.6193 9.5406-4.0684 12.787-6.0142 1.4923-0.89454 2.5619-1.6587 3.192-2.2806 0.59099-0.58337 0.76809-0.98332 0.53744-1.214-0.14374-0.14375-0.45381-0.21621-0.90116-0.22028zm-16.832 1.0755-1.2938 2.2498c-0.71163 1.2374-1.3057 2.2502-1.3201 2.2507-0.0136 4.38e-4 -0.13582-0.19404-0.26975-0.43229l-0.2435-0.43314 0.51872-0.89886c0.28527-0.49435 0.51871-0.90897 0.51871-0.92135 0-0.0281-0.99097-1.7439-1.0311-1.7853-0.0154-0.01664-0.97398-0.02562-2.1287-0.01996l-2.0996 0.01016 1.3341 2.3105c0.73375 1.2707 2.0291 3.5156 2.8787 4.9887 0.84954 1.4731 1.56 2.6734 1.5789 2.6674 0.0186-0.0064 0.56708-0.9334 1.2181-2.0609 0.651-1.1275 1.947-3.3719 2.88-4.9877l1.6964-2.9379h-2.1185zm13.05 4.335c-0.0601 8.5e-4 -0.41615 0.15442-0.89909 0.38865-1.6281 0.78967-3.2477 1.5018-5.0191 2.2069-0.39436 0.15694-0.73824 0.30647-0.76416 0.33224-0.04516 0.0449-1.606 2.7277-1.606 2.7604 0 9e-3 0.95128 0.012 2.114 0.0062l2.1142-0.0108 0.7531-1.3117c0.41422-0.72142 0.76819-1.3268 0.78666-1.3452 0.018-0.0182 0.37007 0.54817 0.7813 1.2592 0.41123 0.71101 0.76842 1.3211 0.79383 1.3557 0.04126 0.0562 0.27127 0.06182 2.1478 0.05248l2.1015-0.011-1.6301-2.8229c-0.89659-1.5523-1.6463-2.8388-1.6659-2.8585-0.0015-0.0015-0.0046-2e-3 -0.0082-0.0019zm-17.126 2.5153c-0.04496-0.0028-0.29834 0.13844-0.92148 0.51131-2.4035 1.4381-3.8227 2.6336-3.8384 3.2334-0.0134 0.48099 0.68987 0.61198 2.1319 0.39752 0.71727-0.10664 1.6933-0.32273 2.5883-0.57295 1.1998-0.33545 1.2623-0.39235 0.19378-0.17654-1.0193 0.20591-1.6525 0.17658-1.7914-0.08308-0.06524-0.12196-0.04938-0.21162 0.08586-0.48384 0.16314-0.32836 0.84661-1.0148 1.5569-1.5636 0.27907-0.21562 0.50092-0.40376 0.49295-0.41819-0.06728-0.12148-0.47972-0.82709-0.4921-0.84173-0.0012-0.0015-0.0036-0.0026-0.0064-0.0028zm9.0422 0.94481c-0.09506 6e-3 -0.43559 0.1148-1.3274 0.41722-1.1731 0.39787-2.9912 0.97014-3.637 1.1448-0.14106 0.03824-0.1787 0.07664-0.32859 0.33625-0.09306 0.16122-0.16932 0.30488-0.16932 0.31911 0 0.0136 0.94673 0.02586 2.1038 0.02586h2.1038l0.61245-1.0657c0.3369-0.58607 0.63705-1.1042 0.66691-1.1515 0.0122-0.0176 0.0072-0.02788-0.02476-0.0261z" opacity=".2"/><path d="m55.74 12.956c-0.85406-0.0077-2.2088 0.23367-3.8639 0.70399-0.43489 0.12359-0.75972 0.24557-0.66667 0.25042 0.0162 8.81e-4 0.25883-0.04629 0.53781-0.10493 0.40505-0.08511 0.62104-0.10717 1.0718-0.10954 0.51654-0.0029 0.57404 0.0043 0.67712 0.08172 0.09788 0.07362 0.11256 0.11102 0.11122 0.28458-0.0024 0.26049-0.18424 0.54132-0.65245 1.0051-0.46725 0.46285-1.834 1.5535-1.9469 1.5535-0.02012 0-0.37393-0.58496-0.78604-1.2999-0.60642-1.052-0.75784-1.2884-0.79371-1.2394-0.0244 0.03338-0.74193 1.2699-1.5946 2.7478-1.2315 2.1345-1.5753 2.7015-1.6719 2.7571-0.46095 0.26544-1.3465 0.70323-1.3279 0.65645 0.0134-0.0312 0.8204-1.4371 1.7954-3.1241l1.7727-3.0674-2.0953-0.01016c-1.6439-0.0079-2.1053 5.25e-4 -2.1415 0.03986-0.02532 0.02756-1.0236 1.7441-2.2182 3.8145-1.1946 2.0704-2.3622 4.0928-2.5946 4.4941-0.34726 0.59979-0.40652 0.7248-0.33296 0.70241 0.04922-0.0142 0.54659-0.19812 1.1053-0.40688 4.3337-1.6193 9.5406-4.0684 12.787-6.0142 1.4923-0.89454 2.5619-1.6587 3.192-2.2806 0.59099-0.58337 0.76809-0.98332 0.53744-1.214-0.14374-0.14375-0.45381-0.21621-0.90116-0.22028zm-16.832 1.0755-1.2938 2.2498c-0.71163 1.2374-1.3057 2.2502-1.3201 2.2507-0.0136 4.38e-4 -0.13582-0.19404-0.26975-0.43229l-0.2435-0.43314 0.51872-0.89886c0.28527-0.49435 0.51871-0.90897 0.51871-0.92135 0-0.0281-0.99097-1.7439-1.0311-1.7853-0.0154-0.01664-0.97398-0.02562-2.1287-0.01996l-2.0996 0.01016 1.3341 2.3105c0.73375 1.2707 2.0291 3.5156 2.8787 4.9887 0.84954 1.4731 1.56 2.6734 1.5789 2.6674 0.0186-0.0064 0.56708-0.9334 1.2181-2.0609 0.651-1.1275 1.947-3.3719 2.88-4.9877l1.6964-2.9379h-2.1185zm13.05 4.335c-0.0601 8.5e-4 -0.41615 0.15441-0.89909 0.38865-1.6281 0.78967-3.2477 1.5018-5.0191 2.2069-0.39436 0.15694-0.73824 0.30647-0.76416 0.33224-0.04516 0.0449-1.606 2.7277-1.606 2.7604 0 9e-3 0.95128 0.012 2.114 0.0062l2.1142-0.0108 0.7531-1.3117c0.41422-0.72142 0.76819-1.3268 0.78666-1.3452 0.018-0.0182 0.37007 0.54817 0.7813 1.2592 0.41123 0.71101 0.76842 1.3211 0.79383 1.3557 0.04126 0.0562 0.27127 0.06182 2.1478 0.05248l2.1015-0.011-1.6301-2.8229c-0.89659-1.5523-1.6463-2.8388-1.6659-2.8585-0.0015-0.0015-0.0046-2e-3 -0.0082-0.0019zm-17.126 2.5153c-0.04496-0.0028-0.29834 0.13844-0.92148 0.51131-2.4035 1.4381-3.8227 2.6336-3.8384 3.2334-0.0134 0.48099 0.68987 0.61198 2.1319 0.39752 0.71727-0.10664 1.6933-0.32273 2.5883-0.57295 1.1998-0.33545 1.2623-0.39235 0.19378-0.17654-1.0193 0.20591-1.6525 0.17658-1.7914-0.08308-0.06524-0.12196-0.04938-0.21162 0.08586-0.48384 0.16314-0.32836 0.84661-1.0148 1.5569-1.5636 0.27907-0.21562 0.50092-0.40376 0.49295-0.41819-0.06728-0.12148-0.47972-0.82709-0.4921-0.84173-0.0012-0.0015-0.0036-0.0026-0.0064-0.0028zm9.0422 0.94481c-0.09506 6e-3 -0.43559 0.1148-1.3274 0.41722-1.1731 0.39787-2.9912 0.97014-3.637 1.1448-0.14106 0.03824-0.1787 0.07664-0.32859 0.33625-0.09306 0.16122-0.16932 0.30488-0.16932 0.31911 0 0.0136 0.94673 0.02586 2.1038 0.02586h2.1038l0.61245-1.0657c0.3369-0.58607 0.63705-1.1042 0.66691-1.1515 0.0122-0.0176 0.0072-0.02788-0.02476-0.0261z" fill="#fff"/><path d="m6.0898 10c-2.2664 0-4.0898 1.8398-4.0898 4.125v1c0-2.2852 1.8235-4.125 4.0898-4.125h51.82c2.2664 0 4.0898 1.8398 4.0898 4.125v-1c0-2.2852-1.8235-4.125-4.0898-4.125h-51.82z" fill="#fff" opacity=".2"/></svg>
