<?xml version="1.0" encoding="UTF-8"?>
<svg id="e" version="1.0" viewBox="0 0 48 48" xmlns="http://www.w3.org/2000/svg" xmlns:xlink="http://www.w3.org/1999/xlink"><defs id="f"><linearGradient id="d" x1="108.53" x2="108.53" y1="192.81" y2="53.399" gradientUnits="userSpaceOnUse"><stop id="g" stop-color="#fff" offset="0"/><stop id="h" stop-color="#fff" stop-opacity="0" offset="1"/></linearGradient><linearGradient id="c" x1="88.098" x2="88.098" y1="68.651" y2="77.481" gradientTransform="matrix(-1.3429 -2.27 2.2783 -1.338 -7.0231 313.38)" gradientUnits="userSpaceOnUse"><stop id="i" stop-color="#fff" offset="0"/><stop id="j" stop-color="#2a7fff" stop-opacity="0" offset="1"/></linearGradient><linearGradient id="b" x1="79.429" x2="79.429" y1="70.613" y2="129.23" gradientTransform="matrix(.30205 0 0 .29672 124.92 77.317)" gradientUnits="userSpaceOnUse"><stop id="k" stop-color="#729fcf" offset="0"/><stop id="l" stop-color="#5a7ea4" offset="1"/></linearGradient><linearGradient id="a" x1="84.634" x2="84.683" y1="64.585" y2="66.78" gradientTransform="matrix(2.6446 0 0 2.635 -77.488 -68.551)" gradientUnits="userSpaceOnUse"><stop id="m" stop-color="#fff" offset="0"/><stop id="n" stop-color="#fff" stop-opacity="0" offset="1"/></linearGradient></defs><g id="o"><g id="p" transform="matrix(.73438 0 0 .73723 -3.8202 15.714)"><g id="q" transform="matrix(.97872 0 0 .97872 13.661 -13.741)"><path id="r" transform="matrix(.33915 0 0 .33792 -9.916 -8.496)" d="m195 101.43a93.571 93.571 0 1 1-187.14 0 93.571 93.571 0 1 1 187.14 0z" fill="#f60" fill-rule="evenodd"/><path id="s" transform="matrix(.29615 0 0 .29507 -5.5539 -4.1496)" d="m195 101.43a93.571 93.571 0 1 1-187.14 0 93.571 93.571 0 1 1 187.14 0z" fill="none" opacity=".4521" stroke="url(#d)" stroke-linecap="round" stroke-linejoin="round" stroke-miterlimit="4" stroke-width="9.3176"/><path id="t" transform="matrix(.32483 0 0 .32365 -8.463 -7.0482)" d="m195 101.43a93.571 93.571 0 1 1-187.14 0 93.571 93.571 0 1 1 187.14 0z" fill="none" stroke="#a40" stroke-linecap="round" stroke-linejoin="round" stroke-miterlimit="4" stroke-width="8.2535"/><path id="u" d="m6.0447-0.29403c5.5005 5.7974 14.429 17.3 19.521 29.837 4.6691 11.498 13.801 17.485 19.791 20.316 11.744-9.821 15.007-26.945 6.9653-40.538-8.9589-15.144-28.559-20.188-43.758-11.262-0.87412 0.51338-1.7127 1.0657-2.519 1.6464z" fill="url(#c)" fill-rule="evenodd" opacity=".17544"/><g id="v" transform="translate(-130.04 -80.641)"><path id="w" d="m131.78 107.29s7.7629-17.292 31.869-4.8034c12.666-5.572 11.031-6.7249 11.44-5.1877 0.40856 1.5371-1.6343 7.3013-1.0214 8.8384 0.61286 1.5371 3.3197 7.9432 1.8386 8.0698-2.2472 0.19214-10.419-3.4585-11.031-2.6899s-20.837 12.873-33.094-4.2271z" fill="url(#b)" fill-rule="evenodd"/><path id="x" d="m130.37 107.48s8.0413-18.879 33.813-5.3371c13.541-6.0419 11.794-7.292 12.231-5.6252 0.4368 1.6667-1.7472 7.917-1.092 9.5837 0.6552 1.6667 3.5491 8.613 1.9656 8.7504-2.4024 0.20833-11.138-3.7502-11.794-2.9168-0.59953 0.76257-18.754 11.817-31.874-0.51538-1.2185-1.1454-2.1356-2.3639-3.2492-3.9396z" fill="none" stroke="#142f56" stroke-linejoin="miter" stroke-miterlimit="4" stroke-width="2.6398"/><path id="y" d="m133.43 107.03 30.961 0.38562 8.5143-1.2854 1.29-6.6839-9.6753 4.8844c-9.8277-4.5976-19.822-8.57-29.284 0l-1.8061 2.6993z" fill="url(#a)" fill-rule="evenodd" opacity=".35714"/></g></g></g></g></svg>
