<?xml version="1.0" encoding="UTF-8"?>
<svg viewBox="0 0 32 32" xmlns="http://www.w3.org/2000/svg" xmlns:xlink="http://www.w3.org/1999/xlink"><linearGradient id="a" x1="378.57" x2="403.57" y1="544.8" y2="525.8" gradientUnits="userSpaceOnUse"><stop stop-color="#197cf1" offset="0"/><stop stop-color="#21c9fb" offset="1"/></linearGradient><linearGradient id="b"><stop stop-color="#eef1f2" offset="0"/><stop stop-color="#f9fafb" offset="1"/></linearGradient><linearGradient id="c" x1="397.57" x2="380.57" y1="542.24" y2="512.8" gradientUnits="userSpaceOnUse" xlink:href="#b"/><linearGradient id="d" x1="422.57" x2="402.57" y1="543.8" y2="507.8" gradientUnits="userSpaceOnUse"><stop stop-color="#c6cdd1" offset="0"/><stop stop-color="#e0e5e7" offset="1"/></linearGradient><linearGradient id="e" x1="384.57" x2="396.33" y1="536.8" y2="509.3" gradientTransform="matrix(-1 0 0 1 805.14 5)" gradientUnits="userSpaceOnUse" xlink:href="#b"/><linearGradient id="f" x1="388.57" x2="383.32" y1="539.8" y2="528.52" gradientUnits="userSpaceOnUse"><stop stop-color="#7cbaf8" offset="0"/><stop stop-color="#f4fcff" offset="1"/></linearGradient><g transform="translate(-384.57 -515.8)"><g fill-rule="evenodd"><path d="m397.57 530.8h6v2l-6 6z" fill="#2980b9"/><path d="m397.57 537.8 6-6v1l-6 6z" fill="#289769"/><path d="m384.57 544.8h14v-9l5-5-5-5v-8h-14z" fill="url(#a)"/><path d="m408.57 523.8h-6v4l6 6z" fill="#99a1a7"/><path d="m408.57 532.8-6-6v1l6 6z" fill="#289769"/><path d="m416.57 544.8h-14v-9l5-5-5-5v-8h14z" fill="url(#d)"/></g><path d="m398.57 543.8h-14v2h14z" fill="#2980b9" stroke-linejoin="round" stroke-width=".5"/><path d="m402.57 543.8h14v2h-14z" fill="#99a1a7" stroke-linejoin="round" stroke-width=".5"/><path d="m402.57 544.8h14v0.99992h-14z" fill="#289769" stroke-linejoin="round" stroke-width=".5"/><path d="m384.57 519.8v1h4.5l2.5 2.7148v14.57l-2.5 2.7148h-4.5v1h5l3-3v-16l-3-3z" fill="url(#c)" fill-rule="evenodd" opacity=".2"/><path d="m416.57 519.8v22h-5l-3-3v-16l3-3z" fill="url(#e)" fill-rule="evenodd"/><g stroke-linejoin="round" stroke-width=".5"><path d="m402.57 539.8h2v2h-2z" fill="#4c5154"/><path d="m402.57 519.8h2v2h-2z" fill="#4c5154"/><path d="m384.57 544.8h14v0.99992h-14z" fill="#289769"/><g fill="#4d4d4d"><path d="m411.57 520.8h4v1h-4z"/><path d="m413.57 522.8h2v1h-2z"/><path d="m411.57 522.8h1v1h-1z"/><path d="m412.57 524.8h3v1h-3z"/></g><path d="m385.57 534.8v5h1v-5zm2 0v1h1v-1zm0 2v1h1v-1zm0 2v1h1v-1z" fill="url(#f)"/><path d="m396.57 519.8h2v2h-2z" fill="#2980b9"/><path d="m396.57 539.8h2v2h-2z" fill="#2980b9"/></g></g></svg>
