<?xml version="1.0" encoding="UTF-8"?>
<svg version="1.1" viewBox="0 0 128 128" xmlns="http://www.w3.org/2000/svg"><title>Icon-128</title><desc>Created with Sketch.</desc><defs><linearGradient id="g" x1="148.79%" x2="-21.142%" y1="-26.564%" y2="99.303%"><stop stop-color="#D446FF" offset="0"/><stop stop-color="#A0D8FF" offset="1"/></linearGradient><linearGradient id="f" x1="41.808%" x2="95.596%" y1="20.867%" y2="-8.311%"><stop stop-color="#fff" offset="0"/><stop stop-color="#DADADA" offset="1"/></linearGradient><linearGradient id="e" x1="52.28%" x2="2.5368%" y1="70.558%" y2="8.9771%"><stop stop-color="#fff" offset="0"/><stop stop-color="#DADADA" offset="1"/></linearGradient><linearGradient id="d" x1="98.684%" x2="35.268%" y1="13%" y2="40.864%"><stop stop-color="#D0D0D0" offset="0"/><stop stop-color="#fff" offset="1"/></linearGradient><linearGradient id="c" x1="34.284%" x2="-40.213%" y1="31.648%" y2="123.4%"><stop stop-color="#FFDC68" offset="0"/><stop stop-color="#CE4300" offset="1"/></linearGradient><linearGradient id="b" x1="95.709%" x2="-10.547%" y1="2.3378%" y2="34.742%"><stop stop-color="#FFDC68" offset="0"/><stop stop-color="#CE4300" offset="1"/></linearGradient><linearGradient id="a" x1="55.222%" x2="-63.566%" y1="39.648%" y2="222.06%"><stop stop-color="#FFDC68" offset="0"/><stop stop-color="#CE4300" offset="1"/></linearGradient></defs><g id="h" fill="none" fill-rule="evenodd" stroke-width="1"><g id="i"><g id="j" transform="translate(.60568 1.4132)"><ellipse id="k" cx="63.629" cy="62.531" rx="63.61" ry="62.459" fill="url(#g)" fill-rule="nonzero" stroke="#A3A3A3" stroke-width=".55766"/><path id="l" d="m22.24 123.59s19.878-69.559 97.257-60.714c0 0-49.177-29.193-96.918 10.163-14.099 32.659-0.33914 50.551-0.33914 50.551z" fill="url(#f)"/><path id="m" d="m28.158 114.79s20.742-50.007 76.107-50.886c-42.086 10.253 0.069047 46.601 0.069047 46.601s-33.291 30.164-76.176 4.2846z" fill="url(#e)"/><path id="n" d="m16.61 76.459s41.428-45.571 103.29-14.086c-1.1048-8.5617-8.4237-18.228-21.543-20.99-2.8999-1.3809-24.166-34.247-69.875-15.328 14.062 1.0949 20.095 3.0646 20.438 4.557-24.318-4.1793-31.526 30.428-32.314 45.847z" fill="url(#d)"/><path id="o" d="m76.025 37.802s10.599-3.796 11.98 7.4934c-10.451 0.98602-11.98-7.4934-11.98-7.4934z" fill="#202020"/><path id="p" d="m21.963 123.82s18.121-59.111 78.705-61.397c0 0-49.161-8.9697-83.882 46.031-0.1925 7.7813 5.1776 15.366 5.1776 15.366z" fill="url(#c)"/><path id="q" d="m28.537 26.061s15.111 0.87884 20.506 4.5894c2.2526-0.4634 4.1652-2.0057 4.4903-4.1062-1.9329-0.79996-19.626-2.2408-24.996-0.48319z" fill="url(#b)"/><path id="r" d="m16.746 76.538s18.918-22.723 57.111-25.437c0 0-51.992 2.3497-56.357 17.031-1.2134 3.5303-0.75427 8.4064-0.75427 8.4064z" fill="url(#a)"/></g></g></g></svg>
