<?xml version="1.0" encoding="UTF-8"?>
<svg version="1.1" viewBox="0 0 100 100" xmlns="http://www.w3.org/2000/svg"><defs><linearGradient id="a" x1="60.297" x2="141.12" y1="1026.7" y2="1026.7" gradientUnits="userSpaceOnUse"><stop stop-color="#cd022f" offset="0"/><stop stop-color="#cd022f" stop-opacity="0" offset="1"/></linearGradient><filter id="b" x="-.25" y="-.25" width="1.5" height="1.5"><feGaussianBlur in="SourceAlpha" result="blur" stdDeviation="1"/><feColorMatrix result="bluralpha" values="1 0 0 0 0 0 1 0 0 0 0 0 1 0 0 0 0 0 0.9 0"/><feOffset dx="2" dy="2" in="bluralpha" result="offsetBlur"/><feMerge><feMergeNode in="offsetBlur"/><feMergeNode in="SourceGraphic"/></feMerge></filter></defs><g transform="translate(-50.707 -976.65)" fill-rule="nonzero"><g fill="#000" filter="url(#b)"><path d="m60.297 1012.1h20.293v5.6836h-12.773v5.4297h12.012v5.6836h-12.012v12.363h-7.5195v-29.16"/><path d="m87.641 1012.1h20.293v5.6836h-12.773v5.4297h12.012v5.6836h-12.012v6.6797h13.203v5.6836h-20.723v-29.16"/><path d="m114.98 1012.1h7.5195v11.113h11.094v-11.113h7.5195v29.16h-7.5195v-12.363h-11.094v12.363h-7.5195v-29.16"/></g><g fill="url(#a)"><path d="m60.297 1012.1h20.293v5.6836h-12.773v5.4297h12.012v5.6836h-12.012v12.363h-7.5195v-29.16"/><path d="m87.641 1012.1h20.293v5.6836h-12.773v5.4297h12.012v5.6836h-12.012v6.6797h13.203v5.6836h-20.723v-29.16"/><path d="m114.98 1012.1h7.5195v11.113h11.094v-11.113h7.5195v29.16h-7.5195v-12.363h-11.094v12.363h-7.5195v-29.16"/></g></g></svg>
