<?xml version="1.0" encoding="UTF-8"?>
<svg id="z" version="1.1" viewBox="0 0 32 32" xmlns="http://www.w3.org/2000/svg" xmlns:xlink="http://www.w3.org/1999/xlink"><defs id="aa"><filter id="y"><feGaussianBlur id="ab" stdDeviation="2.29"/></filter><linearGradient id="x" x1="64.001" x2="64.001" y1="116.5" y2="101.83" gradientTransform="matrix(.23694 0 0 .23694 -36.659 -1.3032)" gradientUnits="userSpaceOnUse"><stop id="ac" stop-color="#888" offset="0"/><stop id="ad" stop-color="#656565" offset=".2792"/><stop id="ae" stop-color="#494949" offset=".565"/><stop id="af" stop-color="#383838" offset=".815"/><stop id="ag" stop-color="#323232" offset="1"/></linearGradient><linearGradient id="w" x1="64.001" x2="64.001" y1="116.5" y2="101.83" gradientTransform="matrix(.23694 0 0 .23694 -36.659 -1.3032)" gradientUnits="userSpaceOnUse"><stop id="ah" stop-color="#323232" offset="0"/><stop id="ai" stop-color="#3e3e3e" offset=".0557"/><stop id="aj" stop-color="#4f4f4f" offset=".163"/><stop id="ak" stop-color="#555" offset=".2426"/><stop id="al" stop-color="#494949" offset=".4165"/><stop id="am" stop-color="#383838" offset=".7515"/><stop id="an" stop-color="#323232" offset="1"/></linearGradient><linearGradient id="v" x1="64.001" x2="64.001" y1="115.32" y2="101.01" gradientTransform="matrix(.23694 0 0 .23694 -36.659 -1.3032)" gradientUnits="userSpaceOnUse"><stop id="ao" stop-color="#888" offset="0"/><stop id="ap" stop-color="#656565" offset=".2792"/><stop id="aq" stop-color="#494949" offset=".565"/><stop id="ar" stop-color="#383838" offset=".815"/><stop id="as" stop-color="#323232" offset="1"/></linearGradient><linearGradient id="u" x1="16" x2="16" y1="112" y2="109.88" gradientTransform="matrix(.23694 0 0 .23694 -36.659 -1.3032)" gradientUnits="userSpaceOnUse"><stop id="at" stop-color="#888" offset=".284"/><stop id="au" stop-color="#fff" offset=".6686"/></linearGradient><linearGradient id="t" x1="88" x2="88" y1="112" y2="109.88" gradientTransform="matrix(.23694 0 0 .23694 -36.659 -1.3032)" gradientUnits="userSpaceOnUse"><stop id="av" stop-color="#888" offset=".284"/><stop id="aw" stop-color="#fff" offset=".6686"/></linearGradient><linearGradient id="s" x1="23" x2="53" y1="109.68" y2="109.68" gradientTransform="matrix(.23694 0 0 .23694 -36.659 -1.3032)" gradientUnits="userSpaceOnUse"><stop id="ax" stop-color="#888" offset="0"/><stop id="ay" stop-color="#767676" offset=".0022"/><stop id="az" stop-color="#575757" offset=".0067"/><stop id="ba" stop-color="#3b3b3b" offset=".0118"/><stop id="bb" stop-color="#252525" offset=".0176"/><stop id="bc" stop-color="#141414" offset=".0243"/><stop id="bd" stop-color="#090909" offset=".0327"/><stop id="be" stop-color="#020202" offset=".0444"/><stop id="bf" offset=".0769"/><stop id="bg" stop-color="#323232" offset=".6213"/><stop id="bh" stop-color="#353535" offset=".7845"/><stop id="bi" stop-color="#3d3d3d" offset=".8818"/><stop id="bj" stop-color="#4b4b4b" offset=".9616"/><stop id="bk" stop-color="#555" offset="1"/></linearGradient><linearGradient id="r" x1="64.001" x2="64.001" y1="104.85" y2="101.98" gradientTransform="matrix(.23694 0 0 .23694 -36.659 -1.3032)" gradientUnits="userSpaceOnUse"><stop id="bl" stop-color="#888" offset="0"/><stop id="bm" stop-color="#a8a8a8" offset=".1671"/><stop id="bn" stop-color="#f8f8f8" offset=".5319"/><stop id="bo" stop-color="#fff" offset=".5621"/></linearGradient><radialGradient id="j" cx="63" cy="124" r="162" gradientTransform="matrix(.23694 0 0 .23694 -36.659 -1.3032)" gradientUnits="userSpaceOnUse"><stop id="bp" stop-color="#888" offset="0"/><stop id="bq" stop-color="#a4a4a4" offset=".242"/><stop id="br" stop-color="#b5b5b5" offset=".4565"/><stop id="bs" stop-color="#bbb" offset=".6154"/><stop id="bt" stop-color="#b7b7b7" offset=".6542"/><stop id="bu" stop-color="#ababab" offset=".6929"/><stop id="bv" stop-color="#979797" offset=".7315"/><stop id="bw" stop-color="#7b7b7b" offset=".7702"/><stop id="bx" stop-color="#575757" offset=".8086"/><stop id="by" stop-color="#555" offset=".8107"/></radialGradient><radialGradient id="i" cx="63" cy="124" r="162" gradientTransform="matrix(.23694 0 0 .23694 -36.659 -1.3032)" gradientUnits="userSpaceOnUse"><stop id="bz" stop-color="#888" offset="0"/><stop id="ca" stop-color="#aaa" offset=".1474"/><stop id="cb" stop-color="#c6c6c6" offset=".3024"/><stop id="cc" stop-color="#d7d7d7" offset=".4381"/><stop id="cd" stop-color="#ddd" offset=".5385"/><stop id="ce" stop-color="#d9d9d9" offset=".6096"/><stop id="cf" stop-color="#cdcdcd" offset=".6804"/><stop id="cg" stop-color="#bbb" offset=".7456"/><stop id="ch" stop-color="#bfbfbf" offset=".7842"/><stop id="ci" stop-color="#cbcbcb" offset=".8226"/><stop id="cj" stop-color="#ddd" offset=".858"/></radialGradient><linearGradient id="q" x1="64" x2="64" y1="101.72" y2="6.5005" gradientTransform="matrix(.23694 0 0 .23694 -36.659 -1.3032)" gradientUnits="userSpaceOnUse"><stop id="ck" stop-color="#ddd" offset="0"/><stop id="cl" stop-color="#e3e3e3" offset=".5167"/><stop id="cm" stop-color="#eee" offset="1"/></linearGradient><radialGradient id="h" cx="64" cy="100.22" r="90" gradientTransform="matrix(.23694 0 0 .23149 -36.659 -1.2923)" gradientUnits="userSpaceOnUse"><stop id="cn" stop-color="#fff" offset=".3254"/><stop id="co" stop-color="#f4f4f4" offset=".3714"/><stop id="cp" stop-color="#d7d7d7" offset=".452"/><stop id="cq" stop-color="#a8a8a8" offset=".5569"/><stop id="cr" stop-color="#888" offset=".6213"/><stop id="cs" stop-color="#a3a3a3" offset=".6793"/><stop id="ct" stop-color="#bbb" offset=".7396"/><stop id="cu" stop-color="#b3b3b3" offset=".752"/><stop id="cv" stop-color="#a0a0a0" offset=".7914"/><stop id="cw" stop-color="#929292" offset=".8371"/><stop id="cx" stop-color="#8a8a8a" offset=".8945"/><stop id="cy" stop-color="#888" offset="1"/></radialGradient><radialGradient id="g" cx="58" cy="53" r="70.118" gradientTransform="matrix(.23694 0 0 .23694 -36.659 -1.3032)" gradientUnits="userSpaceOnUse"><stop id="cz" stop-color="#fff" offset=".4497"/><stop id="da" stop-color="#f1f1f1" offset=".4674"/><stop id="db" stop-color="#ccc" offset=".5238"/><stop id="dc" stop-color="#aeaeae" offset=".5799"/><stop id="dd" stop-color="#999" offset=".635"/><stop id="de" stop-color="#8c8c8c" offset=".6888"/><stop id="df" stop-color="#888" offset=".7396"/><stop id="dg" stop-color="#6c6c6c" offset=".8369"/><stop id="dh" stop-color="#5b5b5b" offset=".924"/><stop id="di" stop-color="#555" offset=".9882"/></radialGradient><radialGradient id="f" cx="54" cy="44" r="60.828" gradientTransform="matrix(.23694 0 0 .23694 -36.659 -1.3032)" gradientUnits="userSpaceOnUse"><stop id="dj" stop-color="#fff" offset=".4497"/><stop id="dk" stop-color="#ededed" offset=".4628"/><stop id="dl" stop-color="#bfbfbf" offset=".5003"/><stop id="dm" stop-color="#999" offset=".5378"/><stop id="dn" stop-color="#7b7b7b" offset=".5749"/><stop id="do" stop-color="#666" offset=".6114"/><stop id="dp" stop-color="#595959" offset=".6469"/><stop id="dq" stop-color="#555" offset=".6805"/><stop id="dr" stop-color="#888" offset=".9645"/></radialGradient><linearGradient id="p" x1="14.934" x2="14.934" y1="100.66" y2="94.513" gradientTransform="matrix(.23694 0 0 .23694 -36.659 -1.3032)" gradientUnits="userSpaceOnUse"><stop id="ds" stop-color="#eee" offset="0"/><stop id="dt" stop-color="#ddd" offset=".6686"/><stop id="du" stop-color="#555" offset="1"/></linearGradient><radialGradient id="e" cx="14.934" cy="97.588" r="2.5634" fx="15" fy="98" gradientTransform="matrix(.23694 0 0 .23694 -36.659 -1.3032)" gradientUnits="userSpaceOnUse"><stop id="dv" stop-color="#eee" offset=".1302"/><stop id="dw" stop-color="#cecece" offset=".2456"/><stop id="dx" stop-color="#888" offset=".4675"/><stop id="dy" stop-color="#555" offset="1"/></radialGradient><linearGradient id="o" x1="108.84" x2="108.84" y1="47.468" y2="42.332" gradientTransform="matrix(.23694 0 0 .23694 -36.659 -1.3032)" gradientUnits="userSpaceOnUse"><stop id="dz" stop-color="#eee" offset="0"/><stop id="ea" stop-color="#cecece" offset=".5469"/><stop id="eb" stop-color="#bbb" offset=".85"/><stop id="ec" stop-color="#555" offset="1"/></linearGradient><radialGradient id="d" cx="108.84" cy="44.9" r="2.165" fx="109.38" fy="45.5" gradientTransform="matrix(.23694 0 0 .23694 -36.659 -1.3032)" gradientUnits="userSpaceOnUse"><stop id="ed" stop-color="#eee" offset="0"/><stop id="ee" stop-color="#cecece" offset=".16"/><stop id="ef" stop-color="#888" offset=".4675"/><stop id="eg" stop-color="#555" offset=".6864"/><stop id="eh" stop-color="#323232" offset="1"/></radialGradient><linearGradient id="n" x1="19.157" x2="19.157" y1="47.468" y2="42.332" gradientTransform="matrix(.23694 0 0 .23694 -36.659 -1.3032)" gradientUnits="userSpaceOnUse"><stop id="ei" stop-color="#eee" offset="0"/><stop id="ej" stop-color="#cecece" offset=".5469"/><stop id="ek" stop-color="#bbb" offset=".85"/><stop id="el" stop-color="#555" offset="1"/></linearGradient><radialGradient id="c" cx="19.157" cy="44.9" r="2.1647" fx="19.5" fy="45.625" gradientTransform="matrix(.23694 0 0 .23694 -36.659 -1.3032)" gradientUnits="userSpaceOnUse"><stop id="em" stop-color="#eee" offset="0"/><stop id="en" stop-color="#cecece" offset=".16"/><stop id="eo" stop-color="#888" offset=".4675"/><stop id="ep" stop-color="#555" offset=".6864"/><stop id="eq" stop-color="#323232" offset="1"/></radialGradient><linearGradient id="m" x1="105.95" x2="105.95" y1="11.107" y2="6.6118" gradientTransform="matrix(.23694 0 0 .23694 -36.659 -1.3032)" gradientUnits="userSpaceOnUse"><stop id="er" stop-color="#eee" offset="0"/><stop id="es" stop-color="#cecece" offset=".2909"/><stop id="et" stop-color="#888" offset=".85"/><stop id="eu" stop-color="#555" offset="1"/></linearGradient><radialGradient id="b" cx="105.95" cy="8.8594" r="1.91" fx="106.62" fy="9.25" gradientTransform="matrix(.23694 0 0 .23694 -36.659 -1.3032)" gradientUnits="userSpaceOnUse"><stop id="ev" stop-color="#eee" offset="0"/><stop id="ew" stop-color="#cecece" offset=".16"/><stop id="ex" stop-color="#888" offset=".4675"/><stop id="ey" stop-color="#555" offset=".6864"/><stop id="ez" stop-color="#323232" offset="1"/></radialGradient><linearGradient id="l" x1="22.046" x2="22.046" y1="11.107" y2="6.6118" gradientTransform="matrix(.23694 0 0 .23694 -36.659 -1.3032)" gradientUnits="userSpaceOnUse"><stop id="fa" stop-color="#eee" offset="0"/><stop id="fb" stop-color="#cecece" offset=".2909"/><stop id="fc" stop-color="#888" offset=".85"/><stop id="fd" stop-color="#555" offset="1"/></linearGradient><radialGradient id="a" cx="22.047" cy="8.8594" r="1.91" fx="22.375" fy="9.25" gradientTransform="matrix(.23694 0 0 .23694 -36.659 -1.3032)" gradientUnits="userSpaceOnUse"><stop id="fe" stop-color="#eee" offset="0"/><stop id="ff" stop-color="#cecece" offset=".16"/><stop id="fg" stop-color="#888" offset=".4675"/><stop id="fh" stop-color="#555" offset=".6864"/><stop id="fi" stop-color="#323232" offset="1"/></radialGradient><linearGradient id="k" x1="30.115" x2="69.126" y1="9.646" y2="9.646" gradientUnits="userSpaceOnUse"><stop id="fj" stop-color="#fff" offset="0"/><stop id="fk" stop-color="#fdfdfd" offset=".0582"/><stop id="fl" stop-color="#f2f2f0" offset=".542"/><stop id="fm" stop-color="#eeeeec" offset="1"/></linearGradient></defs><g id="fn"><g id="fo" transform="translate(37.358 2.2063)"><path id="fp" transform="matrix(.23694 0 0 .23112 -36.659 -.60217)" d="m19.2 5.5c-1.972 0-3.571 1.262-3.72 2.935l-8.467 94.827c-2e-3 0.029-4e-3 0.06-4e-3 0.089 0 0.028 1e-3 0.056 3e-3 0.084 0 0 0.013 0.155 0.025 0.301-4e-3 0.036-0.037 0.059-0.037 0.097v12.872c0 2.093 1.763 3.795 3.93 3.795h106.14c2.167 0 3.93-1.702 3.93-3.795v-12.872c0-0.038-0.033-0.061-0.037-0.098 0.012-0.152 0.024-0.31 0.024-0.31 2e-3 -0.026 3e-3 -0.053 3e-3 -0.079 0-0.029-1e-3 -0.06-4e-3 -0.089l-8.466-94.823c-0.146-1.672-1.745-2.934-3.72-2.934h-89.6z" fill="#000" filter="url(#y)" opacity=".6"/><path id="fq" d="m-7.9889 25.875c0 0.23481-0.2123 0.42531-0.47388 0.42531h-26.063c-0.26158 0-0.47388-0.1905-0.47388-0.42531v-3.0499h27.011v3.0499z" fill="url(#x)"/><path id="fr" d="m-7.9889 25.875c0 0.23481-0.2123 0.42531-0.47388 0.42531h-26.063c-0.26158 0-0.47388-0.1905-0.47388-0.42531v-3.0499h27.011v3.0499z" fill="url(#w)"/><path id="fs" d="m-8.4637 25.61c-0.010425 0.22675-0.22367 0.41038-0.47577 0.41038h-25.11c-0.2521 0-0.46511-0.18363-0.47601-0.41038l-0.13956-2.9786h26.341l-0.13979 2.9786z" fill="url(#v)"/><path id="ft" d="m-30.735 24.997h-3.8228c-0.21514 0-0.38432-0.11207-0.42886-0.26442l-0.01208 0.13174c-0.01896 0.204 0.17842 0.36962 0.44094 0.36962h3.8228v-0.23694z" fill="url(#u)" opacity=".5"/><path id="fu" d="m-8.0026 24.733c-0.044545 0.15259-0.21348 0.26419-0.42839 0.26419h-15.196v0.23694h15.196c0.26206 0 0.45966-0.16562 0.44047-0.36986l-0.012321-0.13126z" fill="url(#t)" opacity=".5"/><path id="fv" d="m-31.209 23.304v2.7594h7.1082s-6.3974-0.23694-6.3974-1.1847v-1.5747h-0.71082z" fill="url(#s)"/><path id="fw" d="m-35 22.86c0.17486 0.30068 0.44782 0.68144 0.66154 0.68144h25.688c0.21372 0 0.48691-0.38076 0.66153-0.68144h-27.011z" fill="url(#r)"/><path id="fx" d="m-32.495 0c-0.22106 0-0.41085 0.11776-0.42436 0.26348l-2.0791 22.468c-0.01896 0.204 0.17842 0.36962 0.44094 0.36962h26.127c0.26206 0 0.45966-0.16562 0.44047-0.36986l-2.0789-22.468c-0.013506-0.14572-0.20329-0.26348-0.42436-0.26348h-22.002z" fill="url(#j)"/><path id="fy" d="m-32.495 0.23694c-0.10852 0-0.18102 0.045729-0.19287 0.064684 0 0.031987-2.0749 22.452-2.0749 22.452v0.0057c0 0.0085 0.0024 0.02251 0.01896 0.04052 0.02843 0.03128 0.09241 0.06492 0.18624 0.06492h26.127c0.093828 0 0.15756-0.03364 0.18623-0.06492 0.020614-0.02275 0.018955-0.03862 0.018244-0.04549 0-4.74e-4 -2.0789-22.469-2.0789-22.469-0.0073-0.002606-0.07961-0.048336-0.18837-0.048336h-22.002v-2.3693e-4z" fill="url(#i)"/><path id="fz" d="m-32.688 0.53856c0.01185-0.019192 0.08411-0.064684 0.19287-0.064684h22.002c0.10876 0 0.18102 0.045729 0.18837 0.048336 0 0 1.8609 20.11 2.0611 22.277 0.019666-0.02204 0.018481-0.03767 0.01777-0.04455 0-4.74e-4 -2.0789-22.469-2.0789-22.469-0.0074-0.002606-0.07961-0.048336-0.18837-0.048336h-22.002c-0.10852 0-0.18102 0.045729-0.19287 0.064684 0 0.03175-2.0749 22.452-2.0749 22.452v0.0057c0 0.0083 0.0028 0.0218 0.01801 0.03909 0.20021-2.1652 2.0569-22.229 2.0569-22.26z" fill="url(#q)" opacity=".8"/><path id="ga" d="m-11.094 13.471c-0.1334-1.6778-1.0274-3.2776-2.5127-4.54-0.02985-0.48525-0.41062-6.6928-0.41062-6.6928-0.02914-0.4772-0.47293-0.83734-1.0326-0.83734h-3.5122c-0.56368 0-0.99941 0.36489-1.0136 0.84872-0.06445 2.186-2.0296 3.3273-4.961 4.3656-1.0271 0.24381-3.705 1.3899-4.3196 1.8929-1.8093 1.3214-2.8883 3.0831-3.0378 4.9629-0.136 1.7098 0.51771 3.4207 1.8408 4.8177 1.9365 2.0448 5.1361 3.2657 8.5592 3.2657 3.4231 0 6.6227-1.2209 8.5594-3.2657 1.2084-1.2757 1.8583-2.8137 1.8583-4.3732 0-0.14809-0.0062-0.29641-0.01753-0.4445zm-10.4 7.2354c-5.7012 0-10.067-3.4264-9.751-7.3982 0.13624-1.7124 1.1364-3.5403 2.7926-4.7449 0.31015-0.32034 3.1113-1.5664 4.1161-1.7853 2.785-0.98425 5.3318-2.2616 5.4117-4.9535 0.0038-0.1289 0.16396-0.23102 0.36275-0.23102h3.5117c0.20329 0 0.37484 0.1071 0.3829 0.23931l0.42649 6.9546c1.4761 1.1721 2.3706 2.9217 2.4976 4.5208 0.31608 3.9718-4.0495 7.3982-9.7508 7.3982z" fill="url(#h)"/><path id="gb" d="m-20.606 2.9435-0.05568-0.18766c-0.07321-0.26656-0.20898-0.76247-0.87265-0.76247h-8.2043c-0.74707 0-1.3752 0.60443-1.4299 1.3761l-0.2187 3.093c-0.02962 0.41725 0.11184 0.82123 0.38787 1.1079 0.39569 0.4118 0.94681 0.29475 1.1544 0.25044 5.3503-1.1392 8.7284-3.5832 9.171-4.3637 0.12558-0.22154 0.10615-0.40161 0.068-0.51368zm-0.44853 0.15306c0.12984 0.38005-3.2565 3.0613-8.8893 4.2606-0.25826 0.05497-0.53027 0.075821-0.71414-0.11563-0.18363-0.19097-0.27674-0.46227-0.2566-0.74589l0.0047-0.066343c-5e-3 -0.056155-0.0088-0.11278-0.0047-0.1706l0.2187-3.0928c0.03673-0.51866 0.46511-0.93567 0.95724-0.93567h8.2043c0.38005 0 0.35091 0.2521 0.4798 0.62955 0.01 0.029144-0.0033 0.073214-0.03412 0.12747 0.01066 0.035304 0.02133 0.071319 0.03412 0.10923z" fill="url(#g)"/><path id="gc" d="m-20.606 2.9435-0.05568-0.18766c-0.068-0.2476-0.19595-0.68878-0.74612-0.75015 0.24855 0.054259 0.24097 0.28788 0.35351 0.61723 0.01 0.029144-0.0033 0.073214-0.03412 0.12747 0.01043 0.035541 0.02109 0.071319 0.03412 0.10947 0.12984 0.38005-3.2565 3.0613-8.8893 4.2606-0.25826 0.05497-0.53027 0.075821-0.71414-0.11563-0.18363-0.19097-0.27674-0.46227-0.2566-0.74589l0.0047-0.066343c-5e-3 -0.056155-0.0088-0.11278-0.0047-0.1706l0.2187-3.0928c0.03673-0.51866 0.46511-0.93567 0.95724-0.93567-0.74707 0-1.3752 0.60443-1.4299 1.3761l-0.2187 3.093c-0.02962 0.41725 0.11184 0.82123 0.38787 1.1079 0.39569 0.4118 0.94681 0.29475 1.1544 0.25044 5.3501-1.1394 8.7281-3.5835 9.1707-4.364 0.12558-0.22154 0.10615-0.40161 0.068-0.51368z" fill="url(#f)"/><path id="gd" d="m-34.059 21.815c-0.03483 0.40327 0.35944 0.73214 0.8807 0.73214s0.96837-0.32887 0.99799-0.73214c0.02962-0.40114-0.36536-0.72503-0.88142-0.72503-0.51582 2.37e-4 -0.96245 0.3239-0.99728 0.72503z" fill="url(#p)"/><path id="ge" d="m-33.823 21.836c-0.01043 0.12179 0.04786 0.21301 0.09857 0.26845 0.11847 0.12937 0.32271 0.20638 0.54638 0.20638 0.39237 0 0.74115-0.23457 0.76176-0.5125 9e-3 -0.12084-0.04999-0.21135-0.1007-0.26608-0.11894-0.12818-0.32248-0.20448-0.54425-0.20448-0.38905 0-0.73783 0.23268-0.76176 0.50824z" fill="url(#e)"/><path id="gf" d="m-11.728 9.3326c0.02488 0.33693 0.43123 0.6113 0.90772 0.6113 0.47601 0 0.83853-0.27438 0.80938-0.6113-0.02891-0.33503-0.43526-0.60562-0.907-0.60562-0.47198 0-0.83474 0.27058-0.8101 0.60562z" fill="url(#o)"/><path id="gg" d="m-11.423 9.1433c-0.04597 0.04952-0.06942 0.10259-0.06942 0.15756 0 0.00474 2.37e-4 0.00948 4.74e-4 0.014216 0.01398 0.18529 0.29286 0.3919 0.67149 0.3919 0.20993 0 0.40374-0.069186 0.5061-0.18078 0.04999-0.054259 0.0725-0.11255 0.06729-0.17297-0.01588-0.1841-0.29546-0.38905-0.67101-0.38905-0.20851-2.37e-4 -0.40209 0.068475-0.50492 0.17913z" fill="url(#d)"/><path id="gh" d="m-32.978 9.3326c-0.02914 0.33693 0.33337 0.6113 0.80962 0.6113 0.47601 0 0.88284-0.27438 0.90748-0.6113 0.02464-0.33503-0.33811-0.60562-0.80986-0.60562-0.47222 0-0.87834 0.27058-0.90724 0.60562z" fill="url(#n)"/><path id="gi" d="m-32.742 9.3529c-0.0052 0.06042 0.01753 0.11871 0.06729 0.17297 0.10236 0.1116 0.29617 0.18078 0.50634 0.18078 0.37863 0 0.65751-0.20637 0.67125-0.39166 0.0045-0.060183-0.01872-0.118-0.06871-0.17178-0.10283-0.11065-0.29618-0.17936-0.50492-0.17936-0.37579 0-0.65538 0.20495-0.67125 0.38905z" fill="url(#c)"/><path id="gj" d="m-12.358 0.79375c0.0218 0.29475 0.40066 0.53477 0.84611 0.53477 0.44521 0 0.78569-0.24002 0.76034-0.53477-0.02535-0.29333-0.40422-0.53027-0.84564-0.53027-0.44166 0-0.78214 0.23694-0.76081 0.53027z" fill="url(#m)"/><path id="gk" d="m-12.072 0.66153c-0.04407 0.047151-0.04952 0.085061-0.04952 0.10473 0 0.004265 2.37e-4 0.007582 4.74e-4 0.009951 0.0109 0.14595 0.27959 0.31537 0.60988 0.31537 0.24168 0 0.40446-0.083877 0.47672-0.16254 0.0526-0.057339 0.04881-0.1007 0.04763-0.11515-0.01303-0.14809-0.27627-0.31371-0.60964-0.31371-0.24026 2.3694e-4 -0.40327 0.083403-0.47554 0.16136z" fill="url(#b)"/><path id="gl" d="m-32.238 0.79375c-0.02559 0.29475 0.31489 0.53477 0.76034 0.53477 0.44521 0 0.82431-0.24002 0.84611-0.53477 0.02156-0.29333-0.3194-0.53027-0.76081-0.53027-0.44166 0-0.82028 0.23694-0.84564 0.53027z" fill="url(#l)"/><path id="gm" d="m-32.002 0.81412v0c-0.0012 0.014453-5e-3 0.057813 0.04763 0.11515 0.07203 0.078427 0.23504 0.1623 0.47672 0.1623 0.33053 0 0.59922-0.16941 0.60988-0.31537 9.48e-4 -0.014216 0.0043-0.057339-0.04905-0.11444-0.0725-0.077953-0.23552-0.16136-0.47554-0.16136-0.33337 0-0.59661 0.16562-0.60964 0.31371z" fill="url(#a)"/><path id="gn" d="m-29.452 0.39521c-0.12487 0-0.22841 0.078901-0.23646 0.18031l-0.07179 0.90819c-0.0043 0.053074 0.01896 0.1052 0.06374 0.14406 0.04478 0.038858 0.10733 0.060893 0.17273 0.060893h9.2432c0.06326 0 0.12368-0.020614 0.16846-0.057102 0.04454-0.036489 0.06919-0.086009 0.06848-0.13742l-0.01066-0.90819c-0.0014-0.10544-0.10686-0.19074-0.23694-0.19074h-9.1608z" fill="#bbb"/><polygon id="go" transform="matrix(.23694 0 0 .23694 -36.659 -1.3032)" points="69.126 12.003 30.115 12.003 30.417 7.289 30.417 7.289 69.08 7.289" fill="url(#k)"/><path id="gp" d="m-21.742 1.266v-0.080559h-0.34546l-4.74e-4 0.080559h-0.09335l9.48e-4 -0.19263h0.09312l-4.74e-4 0.090037h0.3457v-0.090037h0.09312l-2.37e-4 0.19263h-0.09288z" fill="#888"/><path id="gq" d="m-22.341 1.2634c-0.05734 0.00237-0.12416 0.00403-0.19737 0.00403-0.13269 0-0.22699-0.00782-0.2893-0.023694-0.06468-0.015638-0.10141-0.038384-0.10117-0.069423 2.37e-4 -0.031276 0.03767-0.057102 0.10378-0.074873 0.068-0.018007 0.17818-0.027722 0.31702-0.027722 0.06658 0 0.12084 4.739e-4 0.16823 0.00237l-0.0012 0.18931zm-0.09193-0.17083c-0.02322-0.00118-0.0571-0.00118-0.09312-0.00118-0.19713-2.37e-4 -0.30447 0.029854-0.30494 0.081744-0.0017 0.045966 0.09359 0.074162 0.28883 0.074162 0.04786 0 0.08388-9.477e-4 0.10804-0.00261l0.0012-0.15212z" fill="#888"/><path id="gr" d="m-23.047 1.2634c-0.05734 0.00237-0.12416 0.00403-0.19737 0.00403-0.13269 0-0.22699-0.00782-0.2893-0.023694-0.06445-0.015638-0.10117-0.038384-0.1007-0.069423 4.73e-4 -0.031276 0.03815-0.057102 0.10402-0.074873 0.06824-0.018007 0.17842-0.027722 0.31702-0.027722 0.06682 0 0.12084 4.739e-4 0.16823 0.00237l-0.0019 0.18931zm-0.09098-0.17083c-0.02322-0.00118-0.0571-0.00118-0.09336-0.00118-0.19713-2.37e-4 -0.30447 0.029854-0.30541 0.081744-0.0017 0.045966 0.09335 0.074162 0.28836 0.074162 0.04786 0 0.08388-9.477e-4 0.10828-0.00261l0.0021-0.15212z" fill="#888"/><path id="gs" d="m-24.395 1.2589 2.37e-4 -0.016586 0.30399-0.16917h0.09525l-0.30115 0.1642v4.738e-4h0.33716l-4.73e-4 0.020851h-0.43502v2.369e-4z" fill="#888"/><path id="gt" d="m-24.487 1.0733-2.37e-4 0.015401-0.07369 0.019192c-0.17723 0.045019-0.25826 0.069186-0.25921 0.097145-4.74e-4 0.018955 0.03199 0.036252 0.13482 0.036252 0.06279 0 0.11468-0.00853 0.1469-0.015638l0.02938 0.017533c-0.04691 0.010662-0.1161 0.018955-0.19571 0.018955-0.14761 0-0.20945-0.027485-0.20851-0.054259 9.48e-4 -0.034356 0.09383-0.062078 0.24002-0.099751l0.0545-0.013742v-4.739e-4h-0.3085l4.74e-4 -0.020851h0.43976v2.37e-4z" fill="#888"/><path id="gu" d="m-25.249 1.0703c0.13458 0 0.2258 0.033882 0.22604 0.09525-0.0017 0.062552-0.10354 0.096671-0.24357 0.096671-0.1443 0-0.22699-0.03483-0.22509-0.094065 0.0021-0.063026 0.09122-0.097856 0.24168-0.097856h9.47e-4zm-0.0047 0.019192c-0.09454 0-0.14098 0.030091-0.1424 0.077479-0.0014 0.045729 0.04004 0.075821 0.1379 0.075821 0.08482 0 0.14098-0.029144 0.14216-0.075821 0.0036-0.048336-0.05071-0.077479-0.13648-0.077479h-0.0012z" fill="#888"/><path id="gv" d="m-25.793 1.0703c0.13458 0 0.2258 0.033882 0.2258 0.09525-0.0021 0.062552-0.10402 0.096671-0.24405 0.096671-0.1443 0-0.22699-0.03483-0.22462-0.094065 0.0024-0.063026 0.0917-0.097856 0.24192-0.097856h9.47e-4zm-0.0047 0.019192c-0.0943 0-0.14098 0.030091-0.14288 0.077479-0.0017 0.045729 0.03981 0.075821 0.13742 0.075821 0.08482 0 0.14098-0.029144 0.14264-0.075821 0.0038-0.048336-0.05047-0.077479-0.13624-0.077479h-9.47e-4z" fill="#888"/><path id="gw" d="m-26.157 1.2631c-0.04668 0.00237-0.11468 0.00426-0.17747 0.00426-0.09857 0-0.16301-0.00498-0.20732-0.015875-0.03459-0.00829-0.05544-0.021562-0.05473-0.036726 9.48e-4 -0.025116 0.06232-0.041938 0.13671-0.048809v-9.478e-4c-0.05402-0.00498-0.08601-0.018955-0.10331-0.038858-0.02227-0.027011-0.03862-0.045492-0.05189-0.052838h0.09525c0.01137 0.00545 0.02677 0.022035 0.04478 0.045966 0.02014 0.026537 0.059 0.036489 0.14264 0.037436h0.08696l0.0031-0.083403h0.09217l-0.0069 0.18979zm-0.08885-0.087668h-0.0943c-0.09857 0-0.16159 0.01469-0.16254 0.036489-9.48e-4 0.024879 0.06516 0.035778 0.16278 0.035778 0.04454 0 0.07558-0.00118 0.09146-0.00237l0.0026-0.069897z" fill="#888"/><path id="gx" d="m-26.728 1.2634c-0.04454 0.00237-0.10307 0.00403-0.17747 0.00403-0.09122 0-0.1578-0.00569-0.19974-0.015875-0.03886-0.00924-0.06255-0.02322-0.06184-0.04028 7.11e-4 -0.017534 0.02061-0.031039 0.05829-0.041227 0.04928-0.013979 0.1289-0.021088 0.21917-0.021088 0.02772 0 0.05307 2.369e-4 0.07416 0.0019l0.0033-0.077242h0.09217l-0.0081 0.18979zm-0.08838-0.092643c-0.02014-0.00142-0.04668-0.00213-0.07629-0.00213-0.11231 0-0.17984 0.014927-0.18102 0.040754-0.0012 0.025826 0.06516 0.038147 0.16704 0.038147 0.04028 0 0.07108-9.477e-4 0.08696-0.0019l0.0033-0.074873z" fill="#888"/><path id="gy" d="m-27.889 1.1577c4e-3 0.027011 0.0085 0.059472 0.0073 0.083403h0.0021c0.02654-0.022509 0.05663-0.046677 0.09383-0.073214l0.13079-0.093354h0.0699l0.11207 0.091695c0.0327 0.027485 0.05923 0.052127 0.07819 0.074873h0.0021c0.0033-0.024168 0.01019-0.056155 0.01801-0.085298l0.02298-0.082455h0.08791l-0.059 0.19263h-0.11776l-0.11752-0.093354c-0.02867-0.023694-0.0507-0.044782-0.06895-0.064921h-0.0021c-0.0199 0.019429-0.04668 0.040517-0.07938 0.064921l-0.13198 0.093354h-0.11776l-0.03459-0.19263h0.09122l0.01256 0.08435z" fill="#888"/></g><g id="gz" transform="matrix(1.3247 0 0 1.3247 -10.052 -10.085)"><path id="ha" d="m21.174 14.739c-1.9439 0.6068-3.7291 1.8141-5.0389 3.5719l2.4056 1.7925c0.9917-1.3309 2.3511-2.2078 3.842-2.5932l-1.2086-2.7713z" fill="#00e0ff"/><path id="hb" d="m20.21 23.274c-0.40099 2.1827 0.89137 4.3138 2.9924 4.7859l0.87983-3.9158-3.8722-0.87003z" fill="#f00"/><path id="hc" d="m26.159 20.793c-1.9116-1.0618-4.3218-0.50604-5.4417 1.3332l3.3777 2.0566 2.064-3.3898z" fill="#0074d9"/><path id="hd" d="m27.294 21.757-3.2188 2.4062v0.03125l0.46875 3.9375c0.71902-0.11758 1.3637-0.4349 1.9062-0.84375l0.03125 0.0625c0.07888-0.06499 0.14554-0.14948 0.21875-0.21875 0.13316-0.11541 0.25838-0.24489 0.375-0.375 0.01889-0.02261 0.04413-0.03959 0.0625-0.0625 0.15494-0.18039 0.25457-0.39038 0.375-0.59375 0.12857-0.21712 0.22782-0.44934 0.3125-0.6875 0.16916-0.47576 0.25284-0.97206 0.21875-1.5-0.0048-0.07413 0.0092-0.14407 0-0.21875h-0.03125c-0.06706-0.68496-0.27591-1.3547-0.71875-1.9375z" fill="#50e700"/><path id="he" d="m17.162 24.116c0.04083 1.9195 0.81423 3.6376 2.0312 4.9062l2.125-2.0938c-0.0059-0.0058 0.0058-0.0254 0-0.03125-0.71354-0.71583-1.1562-1.6903-1.1562-2.7812h-3z" fill="#ff4e00"/><path id="hf" d="m30.374 27.003c0.74881-1.7678 0.74683-3.652 0.1561-5.3078l-2.7961 1.0399c3e-3 0.0077-0.01569 0.0208-0.0128 0.02851 0.35782 0.94526 0.36262 2.0156-0.08413 3.0108l2.7369 1.2286z" fill="#a3df17"/><path id="hg" d="m27.308 18.025c-1.7278-0.83697-3.6097-0.92998-5.2932-0.42346l0.89763 2.8449c0.0078-0.0027 0.01998 0.01672 0.02782 0.01422 0.96209-0.30971 2.0313-0.26056 3.0028 0.2358l1.365-2.6715z" fill="#00c9d9"/><path id="hh" d="m22.981 17.366c-1.8909 0.3321-3.4715 1.3577-4.5405 2.7534l2.3924 1.7821c0.0048-0.0067 0.02598 0.0019 0.03089-0.0047 0.59906-0.81405 1.495-1.3997 2.5732-1.5655l-0.45598-2.9652z" fill="#0098d9"/><path id="hi" d="m28.481 29.556c1.4501-1.2582 2.2772-2.9511 2.475-4.698l-2.9685-0.29609c-7.18e-4 0.0083-0.02324 0.01177-0.02403 0.01997-0.09447 1.0063-0.561 1.9696-1.4 2.6669l1.9174 2.3073z" fill="#c0df17"/><path id="hj" d="m25.007 31.059c1.895-0.30796 3.4886-1.3133 4.5753-2.6952l-2.3695-1.8124c-5e-3 0.0067-0.02596-0.0022-0.03094 0.0044-0.60939 0.80634-1.5127 1.3806-2.593 1.5326l0.41812 2.9707z" fill="#dadf4a"/><path id="hk" d="m18.179 27.661c1.0035 1.6367 2.538 2.7301 4.2288 3.2116l0.77861-2.8798c-8e-3 -0.0021-0.0078-0.02485-0.01576-0.02698-0.9772-0.25813-1.851-0.87623-2.4014-1.8182l-2.5903 1.5134z" fill="#ff9e00"/></g></g></svg>
