<?xml version="1.0" encoding="UTF-8"?>
<svg viewBox="0 0 48 48" xmlns="http://www.w3.org/2000/svg" xmlns:xlink="http://www.w3.org/1999/xlink"><defs><linearGradient id="a" x1="-44.39" x2="-14.394" gradientTransform="translate(58.788 33.941)" gradientUnits="userSpaceOnUse"><stop stop-color="#b0b8b8" offset="0"/><stop stop-color="#eff1f1" offset="1"/></linearGradient><linearGradient id="b" x1="17.428" x2="36.551" y1="12.997" y2="32.13" gradientUnits="userSpaceOnUse"><stop stop-color="#abf9c7" offset="0"/><stop stop-color="#54d883" offset="1"/></linearGradient><linearGradient id="c" x1="33.405" x2="17.759" y1="32.721" y2="12.32" gradientUnits="userSpaceOnUse"><stop stop-color="#197cf1" offset="0"/><stop stop-color="#20bcfa" offset="1"/></linearGradient><linearGradient id="d" x1="3.242" x2="40" y1="15.778" y2="37" gradientTransform="matrix(-.96593-.25882.25882-.96593 40.971 53.39)" gradientUnits="userSpaceOnUse" xlink:href="#a"/><linearGradient id="e" x1="24" x2="40" y1="23" y2="39" gradientUnits="userSpaceOnUse"><stop stop-color="#292c2f" offset="0"/><stop stop-opacity="0" offset="1"/></linearGradient></defs><g color="#000000"><g stroke-linejoin="round" stroke-width="3"><circle transform="rotate(15)" cx="29.394" cy="16.971" r="15" fill="url(#a)" stroke-linecap="round"/><path d="m21.952 43.884a20 20 0 0 0 4.0971 0.0059l0.475-3.1a17 17 0 0 0 3.6873-0.98547l1.956 2.441a20 20 0 0 0 3.549-2.0538l-1.135-2.911a17 17 0 0 0 2.7098-2.6952l2.893 1.127a20 20 0 0 0 2.0501-3.5534l-2.422-1.941a17 17 0 0 0 0.60859-1.8185 17 17 0 0 0 0.36937-1.8765l3.094-0.475a20 20 0 0 0 0.0059-4.0971l-3.1-0.475a17 17 0 0 0-0.98547-3.6873l2.441-1.956a20 20 0 0 0-2.0538-3.549l-2.911 1.135a17 17 0 0 0-2.6949-2.7096l1.1271-2.8928a20 20 0 0 0-3.5535-2.0501l-1.9395 2.4221a17 17 0 0 0-1.8201-0.60874 17 17 0 0 0-1.8765-0.36937l-0.47338-3.0939a20 20 0 0 0-4.0971-0.00591l-0.47694 3.0999a17 17 0 0 0-3.687 0.98574l-1.956-2.4407a20 20 0 0 0-3.549 2.0538l1.135 2.911a17 17 0 0 0-2.7098 2.6952l-2.8932-1.128a20 20 0 0 0-2.0501 3.5534l2.422 1.941a17 17 0 0 0-0.60859 1.8185 17 17 0 0 0-0.36937 1.8765l-3.094 0.475a20 20 0 0 0-0.00591 4.0971l3.1 0.475a17 17 0 0 0 0.98548 3.6873l-2.441 1.956a20 20 0 0 0 2.0538 3.549l2.911-1.135a17 17 0 0 0 2.6952 2.7098l-1.127 2.893a20 20 0 0 0 3.5534 2.0501l1.941-2.422a17 17 0 0 0 1.8185 0.60859 17 17 0 0 0 1.8765 0.36937zm-1.5754-6.3608a14 14 0 0 1-9.8995-17.146 14 14 0 0 1 17.146-9.8995 14 14 0 0 1 9.8995 17.146 14 14 0 0 1-17.146 9.8995" fill="url(#d)"/></g><path d="m33.19 14.807l-18.387 18.387 10.736 10.734c.169-.013.338-.02.506-.037l.475-3.102c1.262-.189 2.499-.519 3.688-.984l1.957 2.441c1.25-.561 2.439-1.25 3.549-2.055l-1.135-2.91c1-.794 1.91-1.698 2.709-2.695l2.893 1.127c.803-1.111 1.491-2.301 2.051-3.553l-2.422-1.941c.237-.594.439-1.201.607-1.818.158-.618.283-1.245.371-1.877l3.092-.475c.018-.17.028-.34.041-.51z" color-rendering="auto" fill="url(#e)" fill-rule="evenodd" image-rendering="auto" opacity=".2" shape-rendering="auto" text-rendering="auto"/><path d="m41.883 15.12l-2.078 1.666c.096.259.186.52.27.783l2.172-1.74c-.116-.239-.237-.475-.363-.709m-35.758.006c-.124.235-.244.472-.359.711l2.154 1.727c.083-.264.172-.526.268-.785zm-2.092 8.361c-.029.854-.004 1.708.076 2.559l3.102.475c.152.987.392 1.959.715 2.904l.27-.217c-.466-1.188-.796-2.425-.984-3.688l-3.102-.475c-.046-.518-.071-1.038-.076-1.559m39.934.02c-.008.514-.036 1.027-.084 1.539l-3.092.475c-.088.632-.212 1.259-.371 1.877-.168.617-.371 1.224-.607 1.818l.268.215c.124-.341.238-.685.34-1.033.159-.618.283-1.245.371-1.877l3.092-.475c.082-.844.11-1.692.084-2.539m-2.092 8.361c-.484.992-1.05 1.943-1.691 2.842l-2.893-1.127c-.799.997-1.708 1.902-2.709 2.695l.291.744c.886-.729 1.696-1.547 2.418-2.439l2.893 1.127c.804-1.111 1.491-2.301 2.051-3.553zm-35.758.006l-.363.291c.561 1.25 1.25 2.439 2.055 3.549l2.91-1.135c.715.901 1.519 1.728 2.4 2.467l.295-.758c-.997-.799-1.902-1.708-2.695-2.709l-2.91 1.135c-.641-.898-1.207-1.848-1.691-2.84m24.09 6.928c-1.188.465-2.425.796-3.688.984l-.475 3.102c-1.363.138-2.736.135-4.098-.008l-.475-3.092c-.632-.088-1.259-.212-1.877-.371-.617-.168-1.224-.371-1.818-.607l-1.941 2.422c-1.136-.513-2.221-1.132-3.242-1.848l-.311.797c1.111.804 2.301 1.491 3.553 2.051l1.941-2.422c.594.237 1.201.439 1.818.607.618.159 1.245.283 1.877.371l.475 3.092c1.362.143 2.735.145 4.098.008l.475-3.102c1.262-.189 2.499-.519 3.688-.984l1.957 2.441c1.25-.561 2.439-1.25 3.549-2.055l-.311-.795c-1.019.716-2.104 1.335-3.238 1.85z" fill="#172525" opacity=".2" stroke-linejoin="round" stroke-width="3"/></g><rect x="11" y="11" width="26" height="26" rx="13" fill="url(#c)"/><path d="m24 11c-.944 0-1.862.104-2.747.293l-1.153 2.307-1.742-1.306c-3.124 1.502-5.544 4.207-6.665 7.53l2.557-1.023 1.95 1.3.65-1.95 8.45-4.55-.515-2.575c-.26-.015-.521-.025-.785-.025m9.627 4.269l-.527 1.581.65.65-2.6 3.9 1.3 4.55 4.311.54c.155-.806.239-1.637.239-2.49 0-2.226-.557-4.316-1.535-6.145l-1.065-.355.387-.776c-.348-.516-.744-.995-1.16-1.455m-22.369 6.131c-.143.712-.225 1.448-.248 2.198l4.54 1.702-.65-1.95-1.3-1.95zm4.292 3.9l3.25 7.8v2.82c1.592.692 3.348 1.08 5.2 1.08.129 0 .256-.005.385-.009l4.165-7.141-10.4-5.85z" fill="url(#b)" fill-rule="evenodd"/><path d="m11.03 23.5c-.006.167-.025.331-.025.5 0 7.202 5.798 13 13 13 7.202 0 13-5.798 13-13 0-.169-.019-.333-.025-.5-.263 6.966-5.942 12.5-12.975 12.5-7.03 0-12.711-5.534-12.975-12.5" fill="#172525" opacity=".2"/></svg>
