<?xml version="1.0" encoding="UTF-8"?>
<svg id="z" version="1.0" viewBox="0 0 48 48" xmlns="http://www.w3.org/2000/svg" xmlns:xlink="http://www.w3.org/1999/xlink"><defs id="aa"><linearGradient id="w"><stop id="ab" stop-color="#fff" offset="0"/><stop id="ac" stop-color="#eeeeec" offset="1"/></linearGradient><linearGradient id="d"><stop id="ad" stop-color="#fff" offset="0"/><stop id="ae" stop-color="#fff" stop-opacity="0" offset="1"/></linearGradient><linearGradient id="c"><stop id="af" stop-color="#ff6c6c" offset="0"/><stop id="ag" stop-color="#c00" offset="1"/></linearGradient><linearGradient id="e"><stop id="ah" offset="0"/><stop id="ai" stop-opacity="0" offset="1"/></linearGradient><linearGradient id="b"><stop id="aj" stop-color="#fff" offset="0"/><stop id="ak" stop-color="#fce94f" offset="1"/></linearGradient><radialGradient id="k" cx="23.078" cy="12.744" r="3.5" gradientTransform="matrix(1.0997 -2.6392 -1.875 -2 19.432 98.396)" gradientUnits="userSpaceOnUse" xlink:href="#b"/><linearGradient id="q" x1="21" x2="42.231" y1="37.678" y2="54.18" gradientTransform="matrix(2.25 0 0 1.2726 -31 -8.9499)" gradientUnits="userSpaceOnUse"><stop id="al" stop-color="#fef8c4" offset="0"/><stop id="am" stop-color="#edd400" offset="1"/></linearGradient><radialGradient id="j" cx="23.5" cy="19.5" r="14.5" gradientTransform="matrix(.31034 0 0 .13793 16.207 15.31)" gradientUnits="userSpaceOnUse" xlink:href="#e"/><radialGradient id="i" cx="21.625" cy="16.75" r="5.5" gradientTransform="matrix(.7 0 0 -.72727 6.55 25.182)" gradientUnits="userSpaceOnUse"><stop id="an" stop-color="#fff5ac" offset="0"/><stop id="ao" stop-color="#edd400" offset="1"/></radialGradient><radialGradient id="h" cx="10.451" cy="27.331" r="7" gradientTransform="matrix(2.625 2.7444 -.43291 2.197 -4.9759 -64.938)" gradientUnits="userSpaceOnUse"><stop id="ap" stop-color="#fff" offset="0"/><stop id="aq" stop-color="#fff" stop-opacity="0" offset="1"/></radialGradient><radialGradient id="g" cx="24" cy="38.5" r="6" gradientTransform="matrix(2.9167 0 0 1.0833 -46.5 -.20833)" gradientUnits="userSpaceOnUse"><stop id="ar" offset="0"/><stop id="as" stop-opacity="0" offset="1"/></radialGradient><radialGradient id="f" cx="23.5" cy="19.5" r="14.5" gradientTransform="matrix(.55172 0 0 .24138 11.034 35.793)" gradientUnits="userSpaceOnUse" xlink:href="#e"/><radialGradient id="p" cx="23" cy="28.5" r="3" gradientTransform="matrix(.6 0 0 1.1667 .2 -5.8417)" gradientUnits="userSpaceOnUse" xlink:href="#c"/><linearGradient id="y" x1="21" x2="25" y1="26" y2="31" gradientTransform="matrix(.33333 0 0 .83333 6.3333 4.075)" gradientUnits="userSpaceOnUse" xlink:href="#d"/><radialGradient id="o" cx="23" cy="28.5" r="3" gradientTransform="matrix(.6 0 0 1.1667 18.2 -5.75)" gradientUnits="userSpaceOnUse" xlink:href="#c"/><linearGradient id="x" x1="21" x2="25" y1="26" y2="31" gradientTransform="matrix(.33333 0 0 .83333 24.333 4.1667)" gradientUnits="userSpaceOnUse" xlink:href="#d"/><linearGradient id="v" x1="12" x2="44.565" y1="14" y2="47.688" gradientTransform="matrix(.92 0 0 .88889 8.9091e-7 1.6111)" gradientUnits="userSpaceOnUse" xlink:href="#b"/><radialGradient id="n" cx="23" cy="28.5" r="3" gradientTransform="matrix(1 0 0 1.5556 9.5596e-6 -13.833)" gradientUnits="userSpaceOnUse" xlink:href="#c"/><linearGradient id="u" x1="21" x2="25" y1="26" y2="31" gradientTransform="matrix(.55556 0 0 1.1111 10.222 -.6111)" gradientUnits="userSpaceOnUse" xlink:href="#d"/><radialGradient id="m" cx="13.071" cy="21.094" r="15.5" gradientTransform="matrix(1.4286 2.2587 -1.853 1.6167 33.347 -44.631)" gradientUnits="userSpaceOnUse" xlink:href="#b"/><radialGradient id="a" cx="3.5" cy="16.969" r="3.0477" gradientTransform="matrix(.52907 1.2698 -1.3125 .78747 23.919 -1.0069)" gradientUnits="userSpaceOnUse" xlink:href="#w"/><linearGradient id="t" x1="40.036" x2="41.661" y1="12.359" y2="35.395" gradientTransform="translate(.17857 .17857)" gradientUnits="userSpaceOnUse"><stop id="at" stop-color="#fff" offset="0"/><stop id="au" stop-color="#edd400" offset=".74872"/><stop id="av" stop-color="#fff" offset="1"/></linearGradient><radialGradient id="l" cx="13.819" cy="8.8799" r="14.5" gradientTransform="matrix(.35672 .45977 -.56559 .72898 16.265 4.5064)" gradientUnits="userSpaceOnUse" xlink:href="#b"/><linearGradient id="s" x1="3" x2="39" y1="27" y2="28" gradientUnits="userSpaceOnUse"><stop id="aw" stop-color="#c4a000" offset="0"/><stop id="ax" stop-color="#edd400" offset=".20553"/><stop id="ay" stop-color="#fce94f" offset=".5"/><stop id="az" stop-color="#edd400" offset=".75"/><stop id="ba" stop-color="#c4a000" offset="1"/></linearGradient><linearGradient id="r" x1="8" x2="38" y1="39" y2="39" gradientUnits="userSpaceOnUse"><stop id="bb" stop-color="#fce94f" offset="0"/><stop id="bc" stop-color="#fce94f" offset=".5"/><stop id="bd" stop-color="#edd400" offset=".75"/><stop id="be" stop-color="#c4a000" offset="1"/></linearGradient></defs><g id="bf"><path id="bg" d="m41 41.5c0 3.588-7.84 6.5-17.5 6.5-9.66 0-17.5-2.912-17.5-6.5 0-3.588 7.84-6.5 17.5-6.5 9.66 0 17.5 2.912 17.5 6.5z" color="#000000" enable-background="accumulate" fill="url(#g)" fill-rule="evenodd" opacity=".6"/><path id="bh" d="m37.5 40.5c0 2.76-6.496 5-14.5 5-8.004 0-14.5-2.24-14.5-5s6.496-5 14.5-5c8.004 0 14.5 2.24 14.5 5z" color="#000000" enable-background="accumulate" fill="url(#r)" fill-rule="evenodd" stroke="#c4a000" stroke-linejoin="miter" stroke-miterlimit="4" stroke-width="1px"/><path id="bi" d="m36.5 40.046c0 2.4587-6.048 4.4542-13.5 4.4542-7.452 0-13.5-1.9955-13.5-4.4542s6.048-4.4542 13.5-4.4542c7.452 0 13.5 1.9955 13.5 4.4542z" color="#000000" enable-background="accumulate" fill="none" stroke="url(#q)" stroke-linejoin="miter" stroke-miterlimit="4" stroke-width="1px"/></g><g id="bj" fill-rule="evenodd"><path id="bk" d="m32 40.5c0 1.932-3.584 3.5-8 3.5s-8-1.568-8-3.5 3.584-3.5 8-3.5 8 1.568 8 3.5z" color="#000000" enable-background="accumulate" fill="url(#f)" opacity=".2"/><path id="bl" d="m30 39c0 1.656-3.136 3-7 3s-7-1.344-7-3c0-1.656 3.136-3 7-3s7 1.344 7 3z" color="#000000" enable-background="accumulate" fill="#c4a000"/></g><g id="bm"><g id="bn"><path id="bo" d="m22.676 13.5c-7.6011 0-13.769 3.1297-13.769 6.994 0 1.0162-0.15275 3.1764 0.11149 5.7081-2.4883-0.95886-2.4856-3.1143-2.7036-5.6767h-3.4123c1.0213 13.221 10.83 18.796 19.773 18.975 3.8005 0 8.5226-1.0313 11.456-6.0531 2.9331-5.0218 2.3134-11.021 2.3134-12.953 0-3.8643-6.1679-6.994-13.769-6.994z" color="#000000" enable-background="accumulate" fill="url(#s)" fill-rule="evenodd" stroke="#c4a000" stroke-linejoin="miter" stroke-miterlimit="4" stroke-width="1px"/></g><g id="bp" fill-rule="evenodd"><path id="bq" d="m19 19c0 2.76 11.4 5 4.5 5s-12.5-2.24-12.5-5c0-2.76 5.6-5 12.5-5s-4.5 2.24-4.5 5z" color="#000000" enable-background="accumulate" fill="url(#l)" opacity=".6"/><path id="br" d="m10.625 19c0 0.91553-0.76701 5.7596-0.625 8 0.07101 1.1202-4.9958-1.5719-4.0625-5 0.39027-1.4335-2.1194-1.4283-2.0982-0.42857 0.17857 8.4194 7.109 13.965 11.071 15.252 1.531 0.49747 3.801 1.1763 5.0897 1.1763l4-15c-4.4478 0-12.238-1.6176-13.375-4z" color="#000000" enable-background="accumulate" fill="url(#h)" opacity=".6"/></g><g id="bs"><path id="bt" d="m34.5 18.5c0 2.208-5.152 4-11.5 4s-11.5-1.792-11.5-4c0-2.208 5.152-4 11.5-4s11.5 1.792 11.5 4z" color="#000000" enable-background="accumulate" fill="none" stroke="url(#v)" stroke-linejoin="miter" stroke-miterlimit="4" stroke-width="1"/></g><g id="bu"><path id="bv" d="m35.5 18.978c0 2.4959-5.6 4.5216-12.5 4.5216-6.9 0-12.5-2.0257-12.5-4.5216 0-2.4959 5.6-4.5216 12.5-4.5216 6.9 0 12.5 2.0257 12.5 4.5216z" color="#000000" enable-background="accumulate" fill="none" stroke="#c4a000" stroke-linejoin="miter" stroke-miterlimit="4" stroke-width="1"/></g><g id="bw"><path id="bx" d="m22.726 14.5c-7.0238 0-12.799 2.8117-12.799 6.3795l0.00151 6.7277c-2.6851-0.69196-4.2992-1.8884-4.4369-5.3571-0.62759 0.03638-0.97566-0.15636-1.3491 0.013394 1.5378 10.449 9.6334 16 18.583 16.237 3.5119 0 7.8894-0.95735 10.6-5.5938 2.7103-4.6364 2.1199-10.154 2.1199-11.938 0-3.5677-5.6959-6.4688-12.72-6.4688z" color="#000000" enable-background="accumulate" fill="none" stroke="url(#m)" stroke-linejoin="miter" stroke-miterlimit="4" stroke-width="1px"/></g><g id="by"><path id="bz" transform="matrix(1 0 0 .66667 1.5 6.8333)" d="m5 20.5a2 1.5 0 1 1-4 0 2 1.5 0 1 1 4 0z" color="#000000" enable-background="accumulate" fill="#816a24" fill-rule="evenodd" stroke="#c4a000" stroke-linejoin="miter" stroke-miterlimit="4" stroke-width="1.2247px"/></g></g><g id="ca"><path id="cb" transform="matrix(.71429 0 0 3 6.9286 -34.5)" d="m26 17.5a3.5 0.5 0 1 1-7 0 3.5 0.5 0 1 1 7 0z" color="#000000" enable-background="accumulate" fill="#c4a000" fill-rule="evenodd" stroke="#edd400" stroke-linejoin="miter" stroke-miterlimit="4" stroke-width=".68313px"/><path id="cc" d="m28 18c0 1.104-2.016 2-4.5 2-2.484 0-4.5-0.896-4.5-2 0-1.104 2.016-2 4.5-2 2.484 0 4.5 0.896 4.5 2z" color="#000000" enable-background="accumulate" fill="url(#j)" fill-rule="evenodd" opacity=".1"/><path id="cd" d="m26.5 14c0-1.38-1.568-2.5-3.5-2.5-1.932 0-3.5 1.12-3.5 2.5 0 1.38 1.568 4.5 3.5 4.5 1.932 0 3.5-3.12 3.5-4.5z" color="#000000" enable-background="accumulate" fill="url(#i)" fill-rule="evenodd" stroke="#c4a000" stroke-linejoin="miter" stroke-miterlimit="4" stroke-width="1px"/><path id="ce" d="m25.5 14.286c0-0.98572-1.12-1.7857-2.5-1.7857-1.38 0-2.5 0.8-2.5 1.7857 0 0.98571 1.12 3.2143 2.5 3.2143 1.38 0 2.5-2.2286 2.5-3.2143z" color="#000000" enable-background="accumulate" fill="none" stroke="url(#k)" stroke-linejoin="miter" stroke-miterlimit="4" stroke-width="1px"/></g><g id="cf" stroke-linecap="round" stroke-linejoin="round" stroke-miterlimit="4"><path id="cg" d="m41 10.5c-3.601 0-5.6429 3.3454-5.6429 6.9464l1 2.3571c-2e-6 -2.9655 1.8459-6.3929 4.8929-6.3929 3.047 0 4.1607 2.4675 4.25 5.433v9.0625c-0.37818 4.7101-7.3854 5.64-11.062 6.3438-0.44764 0.6551-1.4628 1.2285-1.9732 1.75 4.8733-1.3205 14.519-1.3869 15.036-8v-11c-0.26786-3.7796-2.899-6.5-6.5-6.5z" fill="#edd400" stroke="#c4a000" stroke-width="1"/><path id="ch" d="m35.911 17.339c1.8393-7.4643 10.339-5.9464 10.607 0.66071l4e-6 10.804c-0.35715 2.8571-4.7143 5.0179-11.714 6.0179" fill="none" opacity=".8" stroke="url(#t)" stroke-width="1"/></g><g id="ci"><path id="cj" transform="matrix(.8 0 0 .66667 .4 6)" d="m7 18a2.5 3 0 1 1-5 0 2.5 3 0 1 1 5 0z" color="#000000" enable-background="accumulate" fill="url(#a)" fill-rule="evenodd"/><path id="ck" transform="matrix(1.8,0,0,1.5,-1.6,-21.5)" d="m7 18a2.5 3 0 1 1-5 0 2.5 3 0 1 1 5 0z" color="#000000" enable-background="accumulate" fill="url(#a)" fill-rule="evenodd"/><path id="cl" transform="matrix(1.4 0 0 1.1667 -1.8 -10.5)" d="m7 18a2.5 3 0 1 1-5 0 2.5 3 0 1 1 5 0z" color="#000000" enable-background="accumulate" fill="url(#a)" fill-rule="evenodd"/><path id="cm" transform="matrix(1 0 0 .83333 1 -.5)" d="m7 18a2.5 3 0 1 1-5 0 2.5 3 0 1 1 5 0z" color="#000000" enable-background="accumulate" fill="url(#a)" fill-rule="evenodd"/><path id="cn" d="m6.5 0.5c-2.76 0-5 2.24-5 5 0 0.70529 0.17365 1.3601 0.4375 1.9688-0.8692 0.73393-1.4375 1.8054-1.4375 3.0312 0 1.5031 0.83574 2.7853 2.0625 3.4688-0.032261 0.17617-0.0625 0.3458-0.0625 0.53125 0 0.47323 0.11708 0.91431 0.3125 1.3125-0.77929 0.42351-1.3125 1.2387-1.3125 2.1875 0 1.38 1.12 2.5 2.5 2.5s2.5-1.12 2.5-2.5c0-0.22905-0.035975-0.44546-0.09375-0.65625 1.2064-0.38866 2.0938-1.5086 2.0938-2.8438 0-0.69284-0.23006-1.3357-0.625-1.8438 0.39434-0.6197 0.625-1.3678 0.625-2.1562 0-0.1386-0.048718-0.27126-0.0625-0.40625 1.7944-0.75938 3.0625-2.5238 3.0625-4.5938 0-2.76-2.24-5-5-5z" color="#000000" enable-background="accumulate" fill="none" stroke="#babdb6" stroke-linejoin="miter" stroke-miterlimit="4" stroke-width="1px"/><path id="co" d="m6.5 1.4375c-2.2356 0-4.0625 1.8269-4.0625 4.0625 0 0.83835 0.28192 1.6036 0.71875 2.25-1.0182 0.49781-1.7188 1.5409-1.7188 2.75 0 1.4193 0.97049 2.5907 2.2812 2.9375-0.18677 0.31224-0.3125 0.67245-0.3125 1.0625 0 1.15 0.94375 2.0938 2.0938 2.0938 1.15 0 2.0938-0.94375 2.0938-2.0938 0-0.75995-0.4229-1.4173-1.0312-1.7812 0.60239-0.55938 1-1.3325 1-2.2188 0-0.37332-0.065028-0.73159-0.1875-1.0625 1.8105-0.40399 3.1875-2.0058 3.1875-3.9375 0-2.2356-1.8269-4.0625-4.0625-4.0625zm-2.5 14.969c-0.8832 0-1.5938 0.71055-1.5938 1.5938 0 0.8832 0.71055 1.5938 1.5938 1.5938 0.8832 0 1.5937-0.71055 1.5938-1.5938 0-0.8832-0.71055-1.5938-1.5938-1.5938z" color="#000000" enable-background="accumulate" fill="none" stroke="#fff" stroke-linejoin="miter" stroke-miterlimit="4" stroke-width=".83333px"/></g><g id="cp"><path id="cq" d="m23 26.5-2.5 4 2.5 4 2.5-4-2.5-4z" fill="url(#n)" stroke="#a40000" stroke-linecap="round" stroke-linejoin="miter" stroke-miterlimit="4" stroke-width="1"/><path id="cr" d="m23 27.167-1.6667 3.3333 1.6667 3.3333v-6.6667z" fill="url(#u)"/><path id="cs" d="m14 24.408-1.5 3 1.5 3 1.5-3-1.5-3z" fill="url(#p)" stroke="#a40000" stroke-linecap="round" stroke-linejoin="miter" stroke-miterlimit="4" stroke-width="1"/><path id="ct" d="m14 24.908-1 2.5 1 2.5v-5z" fill="url(#y)"/><path id="cu" d="m32 24.5-1.5 3 1.5 3 1.5-3-1.5-3z" fill="url(#o)" stroke="#a40000" stroke-linecap="round" stroke-linejoin="miter" stroke-miterlimit="4" stroke-width="1"/><path id="cv" d="m32 25-1 2.5 1 2.5v-5z" fill="url(#x)"/></g></svg>
