<?xml version="1.0" encoding="UTF-8"?>
<svg id="b" version="1.1" viewBox="0 0 256 256" xmlns="http://www.w3.org/2000/svg" xmlns:xlink="http://www.w3.org/1999/xlink"><defs id="c"><radialGradient id="a" cx="269.1" cy="881.4" r="124.71" gradientTransform="matrix(-.01292 1.6727 -1.5684 -.012115 1466.5 424.28)" gradientUnits="userSpaceOnUse"><stop id="d" stop-color="#efefef" stop-opacity=".11765" offset="0"/><stop id="e" stop-color="#b7b7b7" stop-opacity=".15686" offset=".17822"/><stop id="f" stop-color="#7f7f7f" stop-opacity=".19608" offset=".65529"/><stop id="g" stop-opacity=".39216" offset="1"/></radialGradient></defs><g id="h" transform="translate(0 -796.36)"><rect id="i" x=".96006" y="797.14" width="254.17" height="254.17" ry="35.232" fill="#dc3232" stroke="#dc3232" stroke-linecap="round" stroke-linejoin="round" stroke-miterlimit="4" stroke-width="1.5099"/><ellipse id="j" cx="128.05" cy="924.23" rx="110.23" ry="115.24" fill="#fff" fill-rule="evenodd"/><ellipse id="k" cx="223.88" cy="883.23" rx="24.346" ry="23.807" fill="#fff" fill-rule="evenodd"/><ellipse id="l" cx="32.212" cy="881.43" rx="24.346" ry="23.807" fill="#fff" fill-rule="evenodd"/><path id="m" d="m137.59 1039c50.977-2.6852 90.778-10.666 106.05-15.392-25.367-8.1925-21.629-41.212-12.505-58.985z" fill="#fff"/><ellipse id="n" transform="matrix(.98481 .17365 -.17365 .98481 0 0)" cx="246.74" cy="860.67" rx="26.604" ry="35.412" fill="#000" fill-rule="evenodd"/><ellipse id="o" transform="matrix(.98481 -.17365 .17365 .98481 0 0)" cx="5.4603" cy="905.14" rx="26.485" ry="35.412" fill="#000" fill-rule="evenodd"/><rect id="p" x=".4484" y="796.39" width="255.68" height="255.68" ry="35.441" fill="url(#a)"/></g></svg>
