<?xml version="1.0" encoding="UTF-8"?>
<svg id="bf" version="1.1" viewBox="0 0 512 512" xmlns="http://www.w3.org/2000/svg" xmlns:xlink="http://www.w3.org/1999/xlink"><defs id="bg"><radialGradient id="m" cx="64.597" cy="37.572" r="9.25" gradientTransform="matrix(1.3174 0 0 1.3174 -20.58 -12.043)" gradientUnits="userSpaceOnUse"><stop id="bh" stop-color="#fff" offset="0"/><stop id="bi" stop-color="#fff" stop-opacity=".49804" offset=".55952"/><stop id="bj" stop-color="#fff" stop-opacity="0" offset="1"/></radialGradient><radialGradient id="l" cx="59.787" cy="10.902" r="10.556" gradientTransform="matrix(0 -1.6866 1.6634 0 41.654 111.74)" gradientUnits="userSpaceOnUse"><stop id="bk" stop-color="#fbfbfa" offset="0"/><stop id="bl" stop-color="#d3d7cf" offset="1"/></radialGradient><radialGradient id="k" cx="45.095" cy="-2.6937" r="10.498" gradientTransform="matrix(0 1.9259 -2.1007 -2.103e-6 39.436 -89.543)" gradientUnits="userSpaceOnUse"><stop id="bm" stop-color="#fff" offset="0"/><stop id="bn" stop-color="#eeeeec" offset="1"/></radialGradient><linearGradient id="s" x1="42.045" x2="62.955" y1="4.5" y2="4.5" gradientUnits="userSpaceOnUse"><stop id="bo" stop-color="#888a85" offset="0"/><stop id="bp" stop-color="#555753" offset="1"/></linearGradient><linearGradient id="r" x1="80.846" x2="82.687" y1="55.366" y2="53.524" gradientUnits="userSpaceOnUse"><stop id="bq" stop-color="#555753" offset="0"/><stop id="br" stop-color="#a3a5a2" offset=".70238"/><stop id="bs" stop-color="#888a85" offset="1"/></linearGradient><linearGradient id="q" x1="81.096" x2="83.629" y1="57.148" y2="54.615" gradientUnits="userSpaceOnUse"><stop id="bt" stop-color="#2e3436" offset="0"/><stop id="bu" stop-color="#555753" offset="1"/></linearGradient><linearGradient id="p" x1="-19.562" x2="-19.562" y1="32" y2="35.412" gradientUnits="userSpaceOnUse" xlink:href="#b"/><linearGradient id="b"><stop id="bv" stop-color="#fff" offset="0"/><stop id="bw" stop-color="#fff" stop-opacity="0" offset="1"/></linearGradient><linearGradient id="ac" x1="32.486" x2="34.801" y1="32.271" y2="43.282" gradientTransform="translate(21.5,-20)" gradientUnits="userSpaceOnUse" xlink:href="#b"/><linearGradient id="h" x1="24.926" x2="24.926" y1="40" y2="19.539" gradientTransform="matrix(1.3874 0 0 1.331 579.39 639.67)" gradientUnits="userSpaceOnUse" xlink:href="#aa"/><linearGradient id="aa"><stop id="bx" stop-color="#d3d7cf" offset="0"/><stop id="by" stop-color="#eeeeec" offset="1"/></linearGradient><linearGradient id="i" x1="23.069" x2="23.069" y1="6.7993" y2="12.403" gradientTransform="matrix(1.3874 0 0 1.331 273.17 271.41)" gradientUnits="userSpaceOnUse" xlink:href="#z"/><linearGradient id="z"><stop id="bz" stop-color="#3465a4" offset="0"/><stop id="ca" stop-color="#729fcf" offset="1"/></linearGradient><linearGradient id="j" x1="9.5" x2="9.5" y1="16.264" y2="13.409" gradientTransform="matrix(1.3874 0 0 1.331 273.17 271.41)" gradientUnits="userSpaceOnUse" xlink:href="#b"/><linearGradient id="v" x1="27.366" x2="31.336" y1="26.58" y2="30.558" gradientTransform="matrix(-.7345 0 0 .80131 35.717 13.601)" gradientUnits="userSpaceOnUse"><stop id="cb" stop-color="#8a8a8a" offset="0"/><stop id="cc" stop-color="#484848" offset="1"/></linearGradient><linearGradient id="u" x1="30.656" x2="33.219" y1="34" y2="31.062" gradientTransform="matrix(-.98025 0 0 1.0347 40.776 7.5025)" gradientUnits="userSpaceOnUse"><stop id="cd" stop-color="#7d7d7d" offset="0"/><stop id="ce" stop-color="#b1b1b1" offset=".5"/><stop id="cf" stop-color="#686868" offset="1"/></linearGradient><linearGradient id="t" x1="18.293" x2="17.501" y1="13.602" y2="25.743" gradientUnits="userSpaceOnUse"><stop id="cg" stop-color="#fff" offset="0"/><stop id="ch" stop-color="#fff" stop-opacity=".21905" offset=".5"/><stop id="ci" stop-color="#fff" offset="1"/></linearGradient><radialGradient id="o" cx="18.241" cy="21.818" r="8.3085" gradientUnits="userSpaceOnUse"><stop id="cj" stop-color="#729fcf" stop-opacity=".20784" offset="0"/><stop id="ck" stop-color="#729fcf" stop-opacity=".67619" offset="1"/></radialGradient><radialGradient id="n" cx="15.414" cy="13.078" r="6.6562" gradientTransform="matrix(1.9045 0 0 1.8046 -9.9382 -1.5564)" gradientUnits="userSpaceOnUse" xlink:href="#b"/><linearGradient id="ad" x1="20.047" x2="39.003" y1="22.747" y2="49.794" gradientTransform="translate(6,-2)" gradientUnits="userSpaceOnUse"><stop id="cl" stop-color="#788600" offset="0"/><stop id="cm" stop-color="#505900" offset="1"/></linearGradient><linearGradient id="bd" x1="6.221" x2="6.2377" y1="42.891" y2="39.267" gradientTransform="matrix(1.9844 0 0 1 .09375 -2)" gradientUnits="userSpaceOnUse" xlink:href="#c"/><linearGradient id="c"><stop id="cn" stop-color="#ebff39" offset="0"/><stop id="co" stop-color="#ebff39" stop-opacity="0" offset="1"/></linearGradient><linearGradient id="bc" x1="6.221" x2="6.2377" y1="42.891" y2="39.267" gradientTransform="matrix(1.9844 0 0 1 3.1094 -2)" gradientUnits="userSpaceOnUse" xlink:href="#c"/><linearGradient id="bb" x1="6.221" x2="6.2377" y1="42.891" y2="39.267" gradientTransform="matrix(1.9844 0 0 1 6.0938 -2)" gradientUnits="userSpaceOnUse" xlink:href="#c"/><linearGradient id="ba" x1="6.221" x2="6.2377" y1="42.891" y2="39.267" gradientTransform="matrix(1.9844 0 0 1 9.0938 -2.0136)" gradientUnits="userSpaceOnUse" xlink:href="#c"/><linearGradient id="az" x1="6.221" x2="6.2377" y1="42.891" y2="39.267" gradientTransform="matrix(1.9844 0 0 1 12.094 -2.0136)" gradientUnits="userSpaceOnUse" xlink:href="#c"/><linearGradient id="ay" x1="6.221" x2="6.2377" y1="42.891" y2="39.267" gradientTransform="matrix(1.9844 0 0 1 15.109 -2.0136)" gradientUnits="userSpaceOnUse" xlink:href="#c"/><linearGradient id="ax" x1="6.221" x2="6.2377" y1="42.891" y2="39.267" gradientTransform="matrix(1.9844 0 0 1 18.109 -2.0136)" gradientUnits="userSpaceOnUse" xlink:href="#c"/><linearGradient id="aw" x1="6.221" x2="6.2377" y1="42.891" y2="39.267" gradientTransform="matrix(1.9844 0 0 1 21.109 -2.0136)" gradientUnits="userSpaceOnUse" xlink:href="#c"/><linearGradient id="av" x1="16.965" x2="18.968" y1="20.166" y2="31.347" gradientTransform="matrix(.93474 0 0 1.1494 6.5188 -5.8596)" gradientUnits="userSpaceOnUse" xlink:href="#b"/><linearGradient id="g" x1="8" x2="4.3284" y1="19.5" y2="19.5" gradientTransform="translate(6,-2)" gradientUnits="userSpaceOnUse" xlink:href="#a"/><linearGradient id="a"><stop id="cp" stop-color="#747474" offset="0"/><stop id="cq" stop-color="#fff" offset=".62069"/><stop id="cr" stop-color="#3f3f3f" offset="1"/></linearGradient><linearGradient id="au" x1="24" x2="27" y1="19.5" y2="19.5" gradientTransform="translate(5,-2)" gradientUnits="userSpaceOnUse" xlink:href="#a"/><linearGradient id="at" x1="24" x2="27" y1="21.5" y2="21.5" gradientTransform="translate(5,-2)" gradientUnits="userSpaceOnUse" xlink:href="#a"/><linearGradient id="as" x1="24" x2="27" y1="23.5" y2="23.5" gradientTransform="translate(5,-2)" gradientUnits="userSpaceOnUse" xlink:href="#a"/><linearGradient id="ar" x1="8" x2="4.3284" y1="19.5" y2="19.5" gradientTransform="translate(8,-35)" gradientUnits="userSpaceOnUse" xlink:href="#a"/><linearGradient id="aq" x1="8" x2="4.3284" y1="19.5" y2="19.5" gradientTransform="translate(8,-37)" gradientUnits="userSpaceOnUse" xlink:href="#a"/><linearGradient id="ap" x1="8" x2="4.3284" y1="19.5" y2="19.5" gradientTransform="translate(8,-39)" gradientUnits="userSpaceOnUse" xlink:href="#a"/><linearGradient id="ao" x1="8" x2="4.3284" y1="19.5" y2="19.5" gradientTransform="translate(8,-41)" gradientUnits="userSpaceOnUse" xlink:href="#a"/><linearGradient id="an" x1="8" x2="4.3284" y1="19.5" y2="19.5" gradientTransform="translate(8,-43)" gradientUnits="userSpaceOnUse" xlink:href="#a"/><linearGradient id="am" x1="8" x2="4.3284" y1="19.5" y2="19.5" gradientTransform="translate(8,-45)" gradientUnits="userSpaceOnUse" xlink:href="#a"/><linearGradient id="al" x1="8" x2="4.3284" y1="19.5" y2="19.5" gradientTransform="translate(8,-47)" gradientUnits="userSpaceOnUse" xlink:href="#a"/><linearGradient id="ak" x1="7.1161" x2="4.7127" y1="11.5" y2="11.5" gradientTransform="translate(18,-35)" gradientUnits="userSpaceOnUse" xlink:href="#d"/><linearGradient id="d"><stop id="cs" stop-color="#747474" offset="0"/><stop id="ct" stop-color="#b0b0b0" offset=".62069"/><stop id="cu" stop-color="#3f3f3f" offset="1"/></linearGradient><linearGradient id="aj" x1="7.1161" x2="4.7127" y1="13.5" y2="13.5" gradientTransform="translate(18,-37)" gradientUnits="userSpaceOnUse" xlink:href="#d"/><linearGradient id="ai" x1="7.1161" x2="4.7127" y1="15.5" y2="15.5" gradientTransform="translate(18,-39)" gradientUnits="userSpaceOnUse" xlink:href="#d"/><linearGradient id="ah" x1="7.1161" x2="4.7127" y1="17.5" y2="17.5" gradientTransform="translate(18,-41)" gradientUnits="userSpaceOnUse" xlink:href="#d"/><linearGradient id="ag" x1="7.1161" x2="4.7127" y1="19.5" y2="19.5" gradientTransform="translate(18,-43)" gradientUnits="userSpaceOnUse" xlink:href="#d"/><linearGradient id="af" x1="7.1161" x2="4.7127" y1="21.5" y2="21.5" gradientTransform="translate(18,-45)" gradientUnits="userSpaceOnUse" xlink:href="#d"/><linearGradient id="ae" x1="7.1161" x2="4.7127" y1="23.5" y2="23.5" gradientTransform="translate(18,-47)" gradientUnits="userSpaceOnUse" xlink:href="#d"/><linearGradient id="y" x1="11.492" x2="17.199" y1="1.6538" y2="26.729" gradientTransform="matrix(-1.4327 0 0 1.2534 44.305 2.4645)" gradientUnits="userSpaceOnUse"><stop id="cv" stop-color="#fff" offset="0"/><stop id="cw" stop-color="#fcfcff" stop-opacity="0" offset="1"/></linearGradient><radialGradient id="f" cx="16.087" cy="13.97" r="1.7678" gradientUnits="userSpaceOnUse" xlink:href="#ab"/><linearGradient id="ab"><stop id="cx" stop-color="#fee964" offset="0"/><stop id="cy" stop-color="#fee964" stop-opacity="0" offset="1"/></linearGradient><radialGradient id="e" cx="13.612" cy="11.584" r="1.8562" gradientTransform="matrix(1.9524 0 0 1.9524 -12.964 -11.032)" gradientUnits="userSpaceOnUse" xlink:href="#b"/><linearGradient id="be" x1="40.547" x2="47.375" y1="1.125" y2="37.75" gradientTransform="matrix(.56785 0 0 .56785 3.9806 4.6514)" gradientUnits="userSpaceOnUse" xlink:href="#b"/><linearGradient id="x" x1="40.547" x2="47.375" y1="1.125" y2="37.75" gradientTransform="matrix(.27202 0 0 .30663 24.038 3.4956)" gradientUnits="userSpaceOnUse" xlink:href="#b"/><linearGradient id="w" x1="40.547" x2="47.375" y1="1.125" y2="37.75" gradientTransform="matrix(.15883 0 0 .2 33.995 2.4506)" gradientUnits="userSpaceOnUse" xlink:href="#b"/></defs><g id="cz" transform="translate(0 -540.36)"><rect id="da" x="35.727" y="561.95" width="448.97" height="448.97" ry="10.407" fill-rule="evenodd" opacity=".69" stroke="#000" stroke-linejoin="miter" stroke-width="1.0255px"/><text id="db" x="117.42857" y="988.36212" fill="#ffffff" font-family="'Bitstream Vera Sans'" font-size="40px" letter-spacing="0px" stroke-linejoin="miter" stroke-width="1px" word-spacing="0px" style="line-height:125%" xml:space="preserve"><tspan id="dc" x="117.42857" y="988.36212" font-family="Clean" font-size="50px">App Folder</tspan></text><g id="dd" transform="matrix(2.1669 0 0 2.1669 351.58 -835.16)"><g id="de" transform="matrix(1.5663 0 0 1.5888 -568.64 297)" stroke-miterlimit="4"><rect id="df" x="284.96" y="283.39" width="45.784" height="40.595" rx="2.7748" ry="2.662" fill="url(#h)" stroke="#888a85" stroke-width="1.3589"/><path id="dg" d="m284.96 290.08v-4.6988c0-1.4747 1.2376-2.662 2.7748-2.662h40.234c1.5372 0 2.7748 1.1872 2.7748 2.662v4.6988" fill="url(#i)" stroke="#204a87" stroke-width="1.3589"/><rect id="dh" x="286.35" y="284.05" width="43.009" height="38.599" rx="1.381" ry="1.3248" fill="none" opacity=".8" stroke="url(#j)" stroke-width="1.3589"/></g><g id="di" transform="matrix(1.7962 0 0 1.7962 -210.23 745.63)"><g id="dj"><rect id="dk" x="53" y="8.5" width="14" height="14" rx="2.0329" ry="2.0329" fill="#eeeeec" fill-rule="nonzero" stroke="#888a85" stroke-linecap="round" stroke-linejoin="miter" stroke-miterlimit="4"/><rect id="dl" x="54" y="9.5" width="12" height="12" rx="1.0386" ry="1.0386" fill="none" stroke="url(#ac)" stroke-linecap="round" stroke-linejoin="miter" stroke-miterlimit="4"/><rect id="dm" x="54.5" y="10" width="5" height="5" fill="#3465a4" fill-rule="nonzero"/><rect id="dn" x="60.5" y="10" width="5" height="5" fill="#ef2929" fill-rule="nonzero"/><rect id="do" x="60.5" y="16" width="5" height="5" fill="#fce94f" fill-rule="nonzero"/><rect id="dp" x="54.5" y="16" width="5" height="5" fill="#73d216" fill-rule="nonzero"/></g></g><g id="dq" transform="matrix(1.7942 0 0 1.7935 -54.409 707.99)"><circle id="dr" transform="matrix(.81141 0 0 .81141 -74.661 5.1995)" cx="66.75" cy="39.75" r="9.25" fill="url(#m)" fill-rule="nonzero"/><circle id="ds" transform="matrix(.97418 0 0 .97557 -71.642 33.078)" cx="52.5" cy="4.5" r="10" fill="none" stroke="url(#l)" stroke-linecap="round" stroke-linejoin="miter" stroke-miterlimit="4" stroke-width="2.5677"/><circle id="dt" transform="matrix(1.0043 0 0 1.0022 -73.228 32.96)" cx="52.5" cy="4.5" r="10" fill="none" stroke="url(#k)" stroke-linecap="round" stroke-linejoin="miter" stroke-miterlimit="4" stroke-width=".99801"/><circle id="du" transform="matrix(1.0997 0 0 1.0994 -78.236 32.506)" cx="52.5" cy="4.5" r="10" fill="none" stroke="url(#s)" stroke-linecap="round" stroke-linejoin="miter" stroke-miterlimit="4" stroke-width=".9106"/><ellipse id="dv" transform="matrix(.5 0 0 .6 -55.75 12)" cx="64.5" cy="37.5" rx="3" ry="2.5" fill="#fff" fill-rule="nonzero"/><g id="dw" transform="translate(-89 -4.0526)" fill-rule="nonzero"><path id="dx" d="m76.5 49.469 1 3.75 5.1562 5.125c0.0094 0.01362 0.02053 0.05043 0.03125 0.0625 0.0057 0.0057 0.02527 0.02598 0.03125 0.03125 0.07544 0.05872 0.20015 0.08632 0.3125 0.09375 0.44035 0.01306 1.1183-0.30458 1.6562-0.84375 0.67822-0.67982 0.97578-1.5117 0.75-1.9375-0.0084-0.01422-0.02153-0.04925-0.03125-0.0625-0.0052-0.0064-0.02573-0.02513-0.03125-0.03125 0 0-5.1153-5.1152-5.1562-5.1562l-3.7188-1.0312z" fill="url(#r)" stroke="url(#q)" stroke-linecap="round" stroke-linejoin="round" stroke-miterlimit="4" stroke-width="1.0432"/><path id="dy" d="m79.925 50.989c0.2697 0.27033 0.05081 0.92853-0.48858 1.4692-0.5394 0.54066-1.2082 0.74732-1.4658 0.48973l-0.72075-2.7128 2.6751 0.75387z" fill="#fff" opacity=".19216"/></g><ellipse id="dz" transform="matrix(1 0 0 1.7778 -1 -25.889)" cx="-19.5" cy="34.25" rx="5.5" ry="2.25" fill="url(#p)" fill-rule="nonzero" opacity=".8"/></g></g><g id="ea" transform="matrix(1.3152 0 0 1.3152 79.182 579.6)"><path id="eb" d="m15.638 31.944c-2.6238 3.0285-4.6229 6.1413-5.6761 8.8442-0.52659 1.3514-0.80731 2.6142-0.79203 3.7841 0.015159 1.1699 0.43886 2.3618 1.408 3.0801l17.072 6.7761 4.2241 14.916c0.15243 0.51335 0.65298 0.90274 1.188 0.92403l10.604 0.528c0.35877 0.01014 0.71919-0.13744 0.96802-0.39601 0 0 1.896-1.8978 4.0041-3.8721 1.054-0.98715 2.145-2.0245 3.0801-2.7721 1.4496-1.3558 2.6749-1.1514 4.4001-0.352 1.0433 0.61522 2.2935 1.5314 4.0041 1.452 1.6262-0.07579 2.7394-1.0407 3.3441-1.716 0.98647-1.3071 1.714-0.85423 3.0361-0.17601 0.90415 0.5596 1.8882 1.3903 2.8161 2.2441 1.8557 1.7076 3.3881 3.4761 3.3881 3.4761 0.21069 0.24404 0.51559 0.40453 0.83602 0.44008l8.1842 0.70401c2.4627-0.01014 3.1674-0.62141 3.6521-2.4201 0.54918-1.2725 0.62108-2.7445 0.74802-4.6201l0.96802-17.644c0.1595-8.7958-3.2778-14.811-7.2268-18.294-4.6068-4.0625-10.228-6.8771-15.126-7.0948-9.1668-0.02919-18.334-0.05899-27.501-0.08809-8.979 0.85437-15.408 6.253-21.605 12.276zm-8.5802 33.03c-0.60314 0.81061-0.80311 1.8321-0.92403 3.1681l1.144 22.66c0.26128 5.2306 2.114 8.0395 4.9721 9.9442 2.8581 1.9048 6.6033 3.0249 10.956 5.3681 9.0973 4.8971 23.145 5.6761 23.145 5.6761l25.579 0.076c2.7532-0.41449 5.4688-2.6152 7.7741-4.1241 2.1384-1.565 3.7554-3.653 4.0041-6.2042l0.26399-15.796c-0.01347-0.85401-0.29468-1.5752-0.79201-2.0681-0.49733-0.49282-1.1424-0.76096-1.804-0.88002-2.3178-0.07125-4.635-0.17072-6.9522-0.26401-2.732-0.0065-4.5539 1.6687-6.3361 3.5201-1.6997 1.7557-3.6827 3.6483-7.9642 4.5761-3.3594 0.04564-5.6757-1.2277-8.0522-2.8601-2.3765-1.6324-4.8564-3.9814-8.1842-4.6201-5.4569-0.12548-14.774-0.52775-20.241-0.55723l-5.7641-15.752c-2.6556-0.98459-5.306-1.9868-7.9642-2.9627v-6.7e-5c-1.2459-0.27698-2.2214 0.32485-2.86 1.1001z" fill="#eeeeec" stroke="#555753" stroke-linecap="round" stroke-linejoin="round" stroke-miterlimit="4" stroke-width="4.6082"/><path id="ec" d="m96.565 60.656c11.627 4.8264 10.345 24.532 0 29.475m8.7649-46.468c21.853 9.6386 22.676 49.495 0 63.461" fill="none" stroke="#729fcf" stroke-linecap="round" stroke-linejoin="round" stroke-miterlimit="4" stroke-width="6.9055"/><circle id="ed" transform="matrix(-1.6828 .070059 .070059 1.6828 907.89 -288.6)" cx="504.82" cy="174.79" r="3.5355" fill="#555753"/><circle id="ee" transform="matrix(-1.6828 .070059 .070059 1.6828 879.59 -288.1)" cx="504.82" cy="174.79" r="3.5355" fill="#555753"/></g><g id="ef" transform="matrix(3.512 0 0 3.512 273.62 774.42)"><g id="eg" transform="matrix(.96639 0 0 .98032 -273.43 -275.06)" stroke-miterlimit="4"><rect id="eh" x="284.96" y="283.39" width="45.784" height="40.595" rx="2.7748" ry="2.662" fill="url(#h)" stroke="#888a85" stroke-width="1.3589"/><path id="ei" d="m284.96 290.08v-4.6988c0-1.4747 1.2376-2.662 2.7748-2.662h40.234c1.5372 0 2.7748 1.1872 2.7748 2.662v4.6988" fill="url(#i)" stroke="#204a87" stroke-width="1.3589"/><rect id="ej" x="286.35" y="284.05" width="43.009" height="38.599" rx="1.381" ry="1.3248" fill="none" opacity=".8" stroke="url(#j)" stroke-width="1.3589"/></g><rect id="ek" x="16.503" y="16.445" width="21.733" height="2.3362" color="#000000" fill="#f00" fill-rule="evenodd" opacity=".50556"/><rect id="el" x="16.503" y="21.117" width="20.69" height="2.3362" color="#000000" fill-rule="evenodd" opacity=".50556"/><rect id="em" x="16.503" y="25.79" width="18.604" height="2.3362" color="#000000" fill="#0f0" fill-rule="evenodd" opacity=".50556"/><rect id="en" x="16.503" y="30.462" width="21.733" height="2.3362" color="#000000" fill-rule="evenodd" opacity=".50556"/><rect id="eo" x="16.503" y="11.748" width="19.841" height="2.3362" color="#000000" fill-rule="evenodd" opacity=".50556"/><rect id="ep" x="16.503" y="35.234" width="22.797" height="2.3362" color="#000000" fill-rule="evenodd" opacity=".50556"/><g id="eq" transform="matrix(.61701 0 0 .61701 4.0867 8.4812)"><path id="er" d="m22.035 16.12c5.9782 0 10.83 5.2932 10.83 11.815s-4.8518 11.815-10.83 11.815c-2.5557 0-4.8117-1.1093-6.6646-2.7266 0.15084 0.80682 0.05731 1.631-0.55539 2.2115l-8.0531 7.6344c-0.90594 0.85846-2.2677 0.74598-3.0546-0.24236s-0.68379-2.474 0.22215-3.3325l8.0531-7.6344c0.49323-0.46738 1.0965-0.60576 1.6939-0.51502-1.4592-2.0132-2.4715-4.4463-2.4715-7.2102 0-6.5219 4.8518-11.815 10.83-11.815v0zm0.05554 0.98255c-5.6112 0-9.7628 3.8374-9.7628 10.651 0 6.9514 4.2723 10.651 9.7628 10.651 5.364 0 9.7628-4.3896 9.7628-10.651 0-6.3977-4.2782-10.651-9.7628-10.651v0z" color="#000000" fill="#dcdcdc" fill-rule="evenodd" stroke="url(#v)" stroke-linecap="round" stroke-linejoin="miter" stroke-miterlimit="10" stroke-width="1.5343"/><path id="es" d="m21.904 16.019c5.9975 0 10.865 5.3103 10.865 11.853 0 6.543-4.8675 11.853-10.865 11.853-2.564 0-4.8272-1.1129-6.6862-2.7354 0.15134 0.80943 0.0575 1.6362-0.55718 2.2187l-8.0791 7.659c-0.90887 0.86124-2.2751 0.7484-3.0645-0.24314-0.78943-0.99154-0.686-2.482 0.22287-3.3432l8.0791-7.659c0.49483-0.4689 1.1001-0.60772 1.6994-0.51668-1.4639-2.0197-2.4795-4.4607-2.4795-7.2335 0-6.543 4.8675-11.853 10.865-11.853zm0.05572 2.553c-4.6135 0-8.3577 4.0848-8.3577 9.1179 0 5.0331 3.7443 9.1179 8.3577 9.1179s8.3577-4.0848 8.3577-9.1179c-8e-6 -5.0331-3.7443-9.1179-8.3577-9.1179z" color="#000000" fill="#dcdcdc" fill-rule="evenodd"/><path id="et" d="m6.6357 46.797c0.35158-1.8215-1.0263-3.8554-2.6325-3.837l7.9035-7.4186c2.1629-0.04544 3.1359 1.8211 2.7741 3.6859l-8.045 7.5696z" color="#000000" fill="url(#u)" fill-rule="evenodd"/><circle id="eu" transform="matrix(.91499 0 0 .99822 5.9523 8.6715)" cx="17.501" cy="18.92" r="11.049" color="#000000" fill="none" stroke="url(#t)" stroke-linecap="round" stroke-linejoin="miter" stroke-miterlimit="10" stroke-width=".80273"/><rect id="ev" transform="matrix(-.72377 .69004 .61588 .78784 0 0)" x="10.969" y="34.634" width="14.556" height="3.4364" rx="1.6327" ry="1.461" color="#000000" fill="none" opacity=".43316" stroke="#fff" stroke-linecap="round" stroke-linejoin="miter" stroke-miterlimit="10" stroke-width=".76902"/><circle id="ew" transform="matrix(1.0273 0 0 1.1207 3.8964 6.9711)" cx="17.589" cy="18.478" r="8.3085" color="#000000" fill="url(#o)" fill-rule="evenodd" stroke="#3063a3" stroke-linecap="round" stroke-linejoin="miter" stroke-miterlimit="10" stroke-width=".71499"/><path id="ex" d="m21.804 19.548c-3.825 0-6.9223 3.3791-6.9223 7.5519 0 1.2051 0.30871 2.314 0.76914 3.3253 0.91987 0.36989 1.897 0.62156 2.9341 0.62156 4.5325 0 8.1524-3.8957 8.4321-8.764-1.2714-1.6391-3.0923-2.7349-5.2131-2.7349z" color="#000000" fill="url(#n)" fill-rule="evenodd" opacity=".83422"/></g></g><g id="ey" transform="matrix(4.1524 0 0 4.1524 264.67 569.91)"><path id="ez" transform="translate(-.68016)" d="m7.501 11.63 0.00391 26.72c0 0.07888 0.088802 0.15021 0.18678 0.15021l2.8116 0.01563-0.0039 4.8533c0 0.07127 0.0224 0.12634 0.12428 0.12677l26.756-0.0078c0.09242-0.0037 0.12428-0.06374 0.12428-0.12677l0.0039-4.8689 2.8824 0.0078c0.09375 0 0.11604-0.13027 0.11256-0.21271v-26.657c0.0039-0.08203-0.04551-0.12199-0.12819-0.12677h-32.749c-0.078447 0.0043-0.13209 0.05255-0.12428 0.12677z" display="block" fill="url(#ad)" fill-rule="nonzero" stroke="#3a3e00" stroke-linejoin="miter" stroke-miterlimit="4"/><path id="fa" transform="translate(-.68016)" d="m31 21.472 0.06435 0.53094 2.4244 1.8922v4.6038h-17.059v3.9333" display="block" fill="none" stroke="#98a332" stroke-linejoin="miter" stroke-miterlimit="4"/><path id="fb" transform="translate(-.68016)" d="m13.442 40.961 0.05485-5.7807 1.901-2.6665h22.072v-5.3717l-5.5797-5.5286 4.1101-0.14384v-4.4697h-4" display="block" fill="none" stroke="#98a332" stroke-linejoin="miter" stroke-miterlimit="4"/><path id="fc" transform="translate(-.68016)" d="m19.5 40.961 0.05485-5.7807 1.901-2.6665" display="block" fill="none" stroke="#98a332" stroke-linejoin="miter" stroke-miterlimit="4"/><path id="fd" transform="translate(-.68016)" d="m16.5 40.961 0.05485-5.7807 1.901-2.6665" display="block" fill="none" stroke="#98a332" stroke-linejoin="miter" stroke-miterlimit="4"/><path id="fe" transform="translate(-.68016)" d="m22.5 40.961 0.05485-5.7807 1.901-2.6665" display="block" fill="none" stroke="#98a332" stroke-linejoin="miter" stroke-miterlimit="4"/><path id="ff" transform="translate(-.68016)" d="m25.5 40.961 0.05485-5.7807 1.901-2.6665" display="block" fill="none" stroke="#98a332" stroke-linejoin="miter" stroke-miterlimit="4"/><path id="fg" transform="translate(-.68016)" d="m28.5 40.961 0.05485-5.7807 1.901-2.6665" display="block" fill="none" stroke="#98a332" stroke-linejoin="miter" stroke-miterlimit="4"/><path id="fh" transform="translate(-.68016)" d="m31.544 40.961 0.054846-5.7807 1.901-2.6665" display="block" fill="none" stroke="#98a332" stroke-linejoin="miter" stroke-miterlimit="4"/><path id="fi" transform="translate(-.68016)" d="m34.5 40.961 0.05485-5.7807 1.901-2.6665" display="block" fill="none" stroke="#98a332" stroke-linejoin="miter" stroke-miterlimit="4"/><path id="fj" transform="translate(-.68016)" d="m12.992 37.594c0.79967 0 0.99219 0.62925 0.99219 0.90625v4.4198h-1.9844v-4.4198c0-0.277 0.20814-0.90625 0.99219-0.90625z" display="block" fill="url(#bd)" fill-rule="nonzero"/><path id="fk" transform="translate(-.68016)" d="m16.008 37.594c0.79967 0 0.99219 0.62925 0.99219 0.90625v4.4198h-1.9844v-4.4198c0-0.277 0.20814-0.90625 0.99219-0.90625z" display="block" fill="url(#bc)" fill-rule="nonzero"/><path id="fl" transform="translate(-.68016)" d="m18.992 37.594c0.79967 0 0.99219 0.62925 0.99219 0.90625v4.4198h-1.9844v-4.4198c0-0.277 0.20814-0.90625 0.99219-0.90625z" display="block" fill="url(#bb)" fill-rule="nonzero"/><path id="fm" transform="translate(-.68016)" d="m21.992 37.58c0.79967 0 0.99219 0.62925 0.99219 0.90625v4.4198h-1.9844v-4.4198c0-0.277 0.20814-0.90625 0.99219-0.90625z" display="block" fill="url(#ba)" fill-rule="nonzero"/><path id="fn" transform="translate(-.68016)" d="m24.992 37.58c0.79967 0 0.99219 0.62925 0.99219 0.90625v4.4198h-1.9844v-4.4198c0-0.277 0.20814-0.90625 0.99219-0.90625z" display="block" fill="url(#az)" fill-rule="nonzero"/><path id="fo" transform="translate(-.68016)" d="m28.008 37.58c0.79967 0 0.99219 0.62925 0.99219 0.90625v4.4198h-1.9844v-4.4198c0-0.277 0.20814-0.90625 0.99219-0.90625z" display="block" fill="url(#ay)" fill-rule="nonzero"/><path id="fp" transform="translate(-.68016)" d="m31.008 37.58c0.79967 0 0.99219 0.62925 0.99219 0.90625v4.4198h-1.9844v-4.4198c0-0.277 0.20814-0.90625 0.99219-0.90625z" display="block" fill="url(#ax)" fill-rule="nonzero"/><path id="fq" transform="translate(-.68016)" d="m34.008 37.58c0.79967 0 0.99219 0.62925 0.99219 0.90625v4.4198h-1.9844v-4.4198c0-0.277 0.20814-0.90625 0.99219-0.90625z" display="block" fill="url(#aw)" fill-rule="nonzero"/><path id="fr" transform="translate(-.68016)" d="m11.406 17.312-1.875 1.25v1.875 10.062l7 0.0625" display="block" fill="none" stroke="#98a332" stroke-linejoin="miter" stroke-miterlimit="4"/><rect id="fs" transform="translate(-.68016)" x="13.472" y="15.504" width="16.056" height="7.9305" rx=".94194" ry=".94194" display="block" fill="#555753" fill-rule="nonzero" stroke="#2e3436" stroke-linejoin="miter" stroke-miterlimit="4"/><rect id="ft" transform="translate(-.68016)" x="14.417" y="16.511" width="14.116" height="5.8817" rx="0" ry="0" display="block" fill="none" opacity=".17045" stroke="url(#av)" stroke-linejoin="miter" stroke-miterlimit="4"/><rect id="fu" transform="translate(-.68016)" x="11" y="17" width="3" height="1" display="block" fill="url(#g)" fill-rule="nonzero"/><path id="fv" transform="translate(-.68016)" d="m11.641 19.5-2.125 1.0625v2.4375" display="block" fill="none" stroke="#98a332" stroke-linejoin="miter" stroke-miterlimit="4"/><rect id="fw" transform="translate(-.68016)" x="11" y="19" width="3" height="1" display="block" fill="url(#g)" fill-rule="nonzero"/><path id="fx" transform="translate(-.68016)" d="m11.5 21.562-2 1.4375" display="block" fill="none" stroke="#98a332" stroke-linejoin="miter" stroke-miterlimit="4"/><rect id="fy" transform="translate(-.68016)" x="11" y="21" width="3" height="1" display="block" fill="url(#g)" fill-rule="nonzero"/><rect id="fz" transform="translate(-.68016)" x="29" y="17" width="3" height="1" display="block" fill="url(#au)" fill-rule="nonzero"/><rect id="ga" transform="translate(-.68016)" x="29" y="19" width="3" height="1" display="block" fill="url(#at)" fill-rule="nonzero"/><rect id="gb" transform="translate(-.68016)" x="29" y="21" width="3" height="1" display="block" fill="url(#as)" fill-rule="nonzero"/><rect id="gc" transform="matrix(0 1 -1 0 -.68016 0)" x="13" y="-16" width="3" height="1" display="block" fill="url(#ar)" fill-rule="nonzero"/><rect id="gd" transform="matrix(0 1 -1 0 -.68016 0)" x="13" y="-18" width="3" height="1" display="block" fill="url(#aq)" fill-rule="nonzero"/><rect id="ge" transform="matrix(0 1 -1 0 -.68016 0)" x="13" y="-20" width="3" height="1" display="block" fill="url(#ap)" fill-rule="nonzero"/><rect id="gf" transform="matrix(0 1 -1 0 -.68016 0)" x="13" y="-22" width="3" height="1" display="block" fill="url(#ao)" fill-rule="nonzero"/><rect id="gg" transform="matrix(0 1 -1 0 -.68016 0)" x="13" y="-24" width="3" height="1" display="block" fill="url(#an)" fill-rule="nonzero"/><rect id="gh" transform="matrix(0 1 -1 0 -.68016 0)" x="13" y="-26" width="3" height="1" display="block" fill="url(#am)" fill-rule="nonzero"/><rect id="gi" transform="matrix(0 1 -1 0 -.68016 0)" x="13" y="-28" width="3" height="1" display="block" fill="url(#al)" fill-rule="nonzero"/><path id="gj" transform="translate(-.68016)" d="m15.458 25.582 1.0607 2.9168h1.9445l-1.0607-2.961" display="block" fill="none" stroke="#98a332" stroke-linejoin="miter" stroke-miterlimit="4"/><path id="gk" transform="translate(-.68016)" d="m19.458 25.582 1.0607 2.9168h1.9445l-1.0607-2.961" display="block" fill="none" stroke="#98a332" stroke-linejoin="miter" stroke-miterlimit="4"/><path id="gl" transform="translate(-.68016)" d="m23.458 25.582 1.0607 2.9168h1.9445l-1.0607-2.961" display="block" fill="none" stroke="#98a332" stroke-linejoin="miter" stroke-miterlimit="4"/><path id="gm" transform="translate(-.68016)" d="m27.458 25.582 1.0607 2.9168" display="block" fill="none" stroke="#98a332" stroke-linejoin="miter" stroke-miterlimit="4"/><rect id="gn" transform="matrix(0 1 -1 0 -.68016 0)" x="23" y="-16" width="3" height="1" display="block" fill="url(#ak)" fill-rule="nonzero"/><rect id="go" transform="matrix(0 1 -1 0 -.68016 0)" x="23" y="-18" width="3" height="1" display="block" fill="url(#aj)" fill-rule="nonzero"/><rect id="gp" transform="matrix(0 1 -1 0 -.68016 0)" x="23" y="-20" width="3" height="1" display="block" fill="url(#ai)" fill-rule="nonzero"/><rect id="gq" transform="matrix(0 1 -1 0 -.68016 0)" x="23" y="-22" width="3" height="1" display="block" fill="url(#ah)" fill-rule="nonzero"/><rect id="gr" transform="matrix(0 1 -1 0 -.68016 0)" x="23" y="-24" width="3" height="1" display="block" fill="url(#ag)" fill-rule="nonzero"/><rect id="gs" transform="matrix(0 1 -1 0 -.68016 0)" x="23" y="-26" width="3" height="1" display="block" fill="url(#af)" fill-rule="nonzero"/><path id="gt" transform="translate(-.68016)" d="m8.5012 37.502 2.9981-5.6e-5 0.01105 4.9831 25.001-0.0024-0.0029-4.9873 2.9898 0.0027c4e-3 -4.09e-4 0.0037-24.994 0.0037-24.994l-30.997-0.0022c0.00404 8.3386-0.0035 25-0.0035 25z" display="block" fill="none" opacity=".23864" stroke="#fff" stroke-linejoin="miter" stroke-miterlimit="4"/><rect id="gu" transform="matrix(0 1 -1 0 -.68016 0)" x="23" y="-28" width="3" height="1" display="block" fill="url(#ae)" fill-rule="nonzero"/><path id="gv" d="m7.6918 20.341c-2.1419 9.7408 4.2203 15.397 14.687 9.7331-0.80457 2.9808-2.9081 5.5564-6.0973 6.5717-4.9888 1.5883-10.34-1.1248-11.947-6.0568-1.2673-3.8904 0.24333-7.9042 3.3569-10.248z" fill="#fce94f" fill-rule="nonzero" stroke="#edd400" stroke-linejoin="miter" stroke-miterlimit="4" stroke-width="1.2757"/><path id="gw" d="m39.54 10.967 0.92802 24.999c-12.772-3.3582-17.833-14.678-33.713-18.391l0.18672-6.5154 32.598-0.09242z" fill="url(#y)" fill-rule="evenodd" opacity=".53143"/><g id="gx" transform="matrix(-1.1564 0 0 1.3989 50.484 .5197)" fill-rule="nonzero"><circle id="gy" transform="translate(-2.4749 -2.3865)" cx="16.087" cy="13.97" r="1.7678" fill="url(#f)"/><path id="gz" d="m16.971 11.584-3.04 0.26701-0.31879 3.0917-0.26701-3.04-3.0917-0.31878 3.04-0.26701 0.31879-3.0917 0.26701 3.04z" fill="url(#e)"/></g><g id="ha" transform="matrix(-.73034 0 0 .88352 35.486 5.748)" fill-rule="nonzero"><circle id="hb" transform="translate(-2.4749 -2.3865)" cx="16.087" cy="13.97" r="1.7678" fill="url(#f)"/><path id="hc" d="m16.971 11.584-3.04 0.26701-0.31879 3.0917-0.26701-3.04-3.0917-0.31878 3.04-0.26701 0.31879-3.0917 0.26701 3.04z" fill="url(#e)"/></g><g id="hd" transform="matrix(-.73034 0 0 .88352 39.37 14.28)" fill-rule="nonzero"><circle id="he" transform="translate(-2.4749 -2.3865)" cx="16.087" cy="13.97" r="1.7678" fill="url(#f)"/><path id="hf" d="m16.971 11.584-3.04 0.26701-0.31879 3.0917-0.26701-3.04-3.0917-0.31878 3.04-0.26701 0.31879-3.0917 0.26701 3.04z" fill="url(#e)"/></g><g id="hg" transform="matrix(-.73034 0 0 .88352 45.298 16.629)" fill-rule="nonzero"><circle id="hh" transform="translate(-2.4749 -2.3865)" cx="16.087" cy="13.97" r="1.7678" fill="url(#f)"/><path id="hi" d="m16.971 11.584-3.04 0.26701-0.31879 3.0917-0.26701-3.04-3.0917-0.31878 3.04-0.26701 0.31879-3.0917 0.26701 3.04z" fill="url(#e)"/></g><path id="hj" d="m30.627 6.8592-3.9591 5.1858h4.028v2.1409h-7.1389v-0.33322l5.0677-6.946h-4.7607l0.03549-1.7043h6.7631l-0.03549 1.6568z" fill="#3465a4" stroke="#204a87" stroke-linejoin="miter" stroke-miterlimit="4" stroke-width="2"/><path id="hk" d="m30.627 6.8592-3.9591 5.1858h4.028v1.7034h-7.1389v-0.33322l5.0677-6.5085h-4.7607l0.03549-1.7043h6.7631" fill="#3465a4"/><path id="hl" d="m24.122 5.4144-0.03549 1.2777h4.5428c0.07747 0.00474 0.14623 0.051255 0.17946 0.1214 0.03323 0.070145 0.02566 0.15281-0.01975 0.21576l-5.0219 6.4415v0.07098h6.7255v-1.2777h-3.8152c-0.08066 0.0017-0.15536-0.04233-0.19294-0.11373-0.03758-0.0714-0.03158-0.1579 0.01549-0.22343l3.9217-5.1461 0.03549-1.3664h-6.3351z" fill="#3465a4" opacity=".21348" stroke="url(#be)" stroke-linejoin="miter" stroke-width="1px"/><path id="hm" d="m36.802 4.6878-1.8965 2.8002h1.9295v1.156h-3.4197v-0.17993l2.4275-3.7507h-2.2805l0.017-0.92027h3.2397l-0.017 0.89462z" fill="#3465a4" stroke="#204a87" stroke-linejoin="miter" stroke-miterlimit="4" stroke-width="1.0172"/><path id="hn" d="m36.802 4.6878-1.8965 2.8002h1.9295v0.91981h-3.4197v-0.17993l2.4275-3.5144h-2.2805l0.017-0.92027h3.2397" fill="#3465a4"/><path id="ho" d="m33.686 3.9077-0.017 0.68991h2.1761c0.03711 0.00256 0.07005 0.027676 0.08597 0.065553 0.01591 0.037877 0.01229 0.082516-0.0095 0.11651l-2.4056 3.4783v0.038328h3.2217v-0.68991h-1.8276c-0.03864 9.199e-4 -0.07442-0.022859-0.09242-0.061412s-0.01513-0.085263 0.0074-0.12065l1.8786-2.7788 0.017-0.73782h-3.0347z" fill="#3465a4" opacity=".21348" stroke="url(#x)" stroke-linejoin="miter" stroke-width=".50859px"/><path id="hp" d="m41.449 3.2282-1.1074 1.8265h1.1267v0.75406h-1.9968v-0.11736l1.4175-2.4465h-1.3316l0.0099-0.60027h1.8917l-0.0099 0.58354z" fill="#3465a4" stroke="#204a87" stroke-linejoin="miter" stroke-miterlimit="4" stroke-width=".62775"/><path id="hq" d="m41.449 3.2282-1.1074 1.8265h1.1267v0.59996h-1.9968v-0.11736l1.4175-2.2924h-1.3316l0.0099-0.60027h1.8917" fill="#3465a4"/><path id="hr" d="m39.629 2.7193-0.0099 0.45001h1.2707c0.02167 0.00167 0.0409 0.018053 0.0502 0.042759s0.0072 0.053823-0.0055 0.075994l-1.4047 2.2688v0.025h1.8812v-0.45001h-1.0672c-0.02256 6e-4 -0.04346-0.01491-0.05397-0.040057s-0.0088-0.055615 0.0043-0.078695l1.0969-1.8125 0.0099-0.48126h-1.772z" fill="#3465a4" opacity=".21348" stroke="url(#w)" stroke-linejoin="miter" stroke-width=".31387px"/></g></g></svg>
