<?xml version="1.0" encoding="UTF-8"?>
<svg id="cd" enable-background="new" version="1.0" viewBox="0 0 400 300" xmlns="http://www.w3.org/2000/svg" xmlns:xlink="http://www.w3.org/1999/xlink"><title id="ce">Aisleriot</title><defs id="cf"><pattern id="aj" xlink:href="#ak" patternTransform="matrix(6,0,0,6,-226,98)"/><pattern id="ak" xlink:href="#al" patternTransform="matrix(6,0,0,6,-236,98)"/><pattern id="al" xlink:href="#am" patternTransform="matrix(6,0,0,6,-246,98)"/><pattern id="am" xlink:href="#an" patternTransform="matrix(6,0,0,6,-256,98)"/><pattern id="an" xlink:href="#ao" patternTransform="matrix(6,0,0,6,-246,98)"/><pattern id="ao" xlink:href="#ap" patternTransform="matrix(6,0,0,6,-236,98)"/><pattern id="ap" xlink:href="#aq" patternTransform="matrix(6,0,0,6,-226,98)"/><pattern id="aq" xlink:href="#ar" patternTransform="matrix(6,0,0,6,-236,98)"/><pattern id="ar" xlink:href="#as" patternTransform="matrix(6,0,0,6,-246,98)"/><pattern id="as" xlink:href="#at" patternTransform="matrix(6,0,0,6,-256,98)"/><pattern id="at" xlink:href="#au" patternTransform="matrix(6,0,0,6,-246,98)"/><pattern id="au" xlink:href="#av" patternTransform="matrix(6,0,0,6,-236,98)"/><pattern id="av" xlink:href="#aw" patternTransform="matrix(6,0,0,6,-226,98)"/><pattern id="aw" xlink:href="#ax" patternTransform="matrix(6 0 0 6 -225.97 98.094)"/><pattern id="ax" xlink:href="#ay" patternTransform="matrix(6 0 0 6 -225.97 98.078)"/><pattern id="ay" xlink:href="#az" patternTransform="matrix(6,0,0,6,-226,98)"/><pattern id="az" xlink:href="#ba" patternTransform="matrix(6.0156 0 0 6.0156 -226 98)"/><pattern id="ba" xlink:href="#bb" patternTransform="matrix(6.0117 0 0 6.0156 -226 98)"/><pattern id="bb" xlink:href="#cc" patternTransform="matrix(6,0,0,6,-226,98)"/><pattern id="cc" width="2" height="2" patternTransform="translate(0) scale(10)" patternUnits="userSpaceOnUse"><rect id="cg" width="1" height="1" fill="#fff"/><rect id="ch" x="1" y="1" width="1" height="1" fill="#fff"/></pattern><pattern id="w" xlink:href="#y" patternTransform="matrix(1.9036 0 0 1.7533 360.88 149.01)"/><pattern id="y" xlink:href="#aa" patternTransform="matrix(1.0019 0 0 1.0019 329 58.989)"/><pattern id="ac" xlink:href="#ae" patternTransform="matrix(1.269 0 0 1.3358 347.14 80.319)"/><pattern id="ae" xlink:href="#ai" patternTransform="matrix(1.269 0 0 1.3358 316.74 81.652)"/><clipPath id="bx"><rect id="ci" x="46" y="71" width="116" height="162.03" rx="5.7782" ry="5.7782" color="#000000" enable-background="accumulate" fill="#fff" fill-rule="nonzero"/></clipPath><filter id="bp"><feGaussianBlur id="cj" stdDeviation="0.34753969"/></filter><clipPath id="bw"><rect id="ck" x="46" y="71" width="116" height="162.03" rx="5.7782" ry="5.7782" color="#000000" enable-background="accumulate" fill="#fff" fill-rule="nonzero"/></clipPath><filter id="bo" color-interpolation-filters="sRGB"><feGaussianBlur id="cl" stdDeviation="0.34753969"/></filter><radialGradient id="h" cx="76.892" cy="109.75" r="58" gradientTransform="matrix(.85449 3.189 -8.6552 2.3192 957.74 -396.73)" gradientUnits="userSpaceOnUse"><stop id="cm" stop-color="#fff" offset="0"/><stop id="cn" stop-color="#eeeeec" offset=".5"/><stop id="co" stop-color="#fff" offset="1"/></radialGradient><clipPath id="bv"><rect id="cp" x="46" y="71" width="116" height="162.03" rx="5.7782" ry="5.7782" color="#000000" enable-background="accumulate" fill="#fff" fill-rule="nonzero"/></clipPath><filter id="bn" color-interpolation-filters="sRGB"><feGaussianBlur id="cq" stdDeviation="0.34753969"/></filter><filter id="bu"><feGaussianBlur id="cr" stdDeviation="1.5069472"/></filter><filter id="bt"><feGaussianBlur id="cs" stdDeviation="2.0117352"/></filter><filter id="bs"><feGaussianBlur id="ct" stdDeviation="2.0117352"/></filter><radialGradient id="t" cx="79.935" cy="110.19" r="58" gradientTransform="matrix(.73615 2.7473 -7.4565 1.998 835.28 -327.52)" gradientUnits="userSpaceOnUse"><stop id="cu" stop-color="#fff" offset="0"/><stop id="cv" stop-color="#eeeeec" offset=".5"/><stop id="cw" stop-color="#fff" offset="1"/></radialGradient><filter id="br"><feGaussianBlur id="cx" stdDeviation="0.83833826"/></filter><filter id="bq"><feGaussianBlur id="cy" stdDeviation="0.69507938"/></filter><radialGradient id="g" cx="79.935" cy="110.19" r="58" gradientTransform="matrix(.14596 .54258 -1.4784 .39458 453.5 -17.704)" gradientUnits="userSpaceOnUse"><stop id="cz" stop-color="#fff" offset="0"/><stop id="da" stop-color="#eeeeec" offset=".5"/><stop id="db" stop-color="#fff" offset="1"/></radialGradient><linearGradient id="j" x1="303.69" x2="311.31" y1="58.833" y2="87.603" gradientUnits="userSpaceOnUse"><stop id="dc" stop-color="#babdb6" offset="0"/><stop id="dd" stop-color="#888a85" offset="1"/></linearGradient><radialGradient id="b" cx="76.892" cy="109.75" r="58" gradientTransform="matrix(.16943 .6298 -1.7161 .45802 507.78 -32.373)" gradientUnits="userSpaceOnUse"><stop id="de" stop-color="#fff" offset="0"/><stop id="df" stop-color="#eeeeec" offset=".5"/><stop id="dg" stop-color="#fff" offset="1"/></radialGradient><linearGradient id="c" x1="336.56" x2="342.75" y1="56.028" y2="79.372" gradientUnits="userSpaceOnUse"><stop id="dh" stop-color="#babdb6" offset="0"/><stop id="di" stop-color="#888a85" offset="1"/></linearGradient><radialGradient id="a" cx="65.431" cy="118.02" r="58" gradientTransform="matrix(.12649 .46847 -.85832 .22824 449.02 9.1663)" gradientUnits="userSpaceOnUse"><stop id="dj" stop-color="#729fcf" offset="0"/><stop id="dk" stop-color="#204a87" offset=".5"/><stop id="dl" stop-color="#729fcf" offset="1"/></radialGradient><filter id="bl" color-interpolation-filters="sRGB"><feGaussianBlur id="dm" stdDeviation="0.96150622"/></filter><pattern id="ai" xlink:href="#cb" patternTransform="matrix(1.0019 0 0 1.0019 369 58.989)"/><pattern id="cb" width="2" height="2" patternTransform="translate(0) scale(10)" patternUnits="userSpaceOnUse"><rect id="dn" width="1" height="1" fill="#fff"/><rect id="do" x="1" y="1" width="1" height="1" fill="#fff"/></pattern><radialGradient id="f" cx="79.935" cy="110.19" r="58" gradientTransform="matrix(.1143 .40689 -1.1577 .29591 426.04 71.473)" gradientUnits="userSpaceOnUse"><stop id="dp" stop-color="#fff" offset="0"/><stop id="dq" stop-color="#eeeeec" offset=".5"/><stop id="dr" stop-color="#fff" offset="1"/></radialGradient><linearGradient id="i" x1="303.69" x2="311.31" y1="58.833" y2="87.603" gradientTransform="matrix(.78307 0 0 .74992 70.922 84.749)" gradientUnits="userSpaceOnUse"><stop id="ds" stop-color="#babdb6" offset="0"/><stop id="dt" stop-color="#888a85" offset="1"/></linearGradient><radialGradient id="e" cx="65.431" cy="118.02" r="58" gradientTransform="matrix(.12649 .46847 -.85832 .22824 417.02 41.166)" gradientUnits="userSpaceOnUse"><stop id="du" stop-color="#729fcf" offset="0"/><stop id="dv" stop-color="#204a87" offset=".5"/><stop id="dw" stop-color="#729fcf" offset="1"/></radialGradient><pattern id="ab" xlink:href="#ad" patternTransform="matrix(1.269 0 0 1.3358 340.81 77.652)"/><pattern id="ad" xlink:href="#ah" patternTransform="matrix(1.269 0 0 1.3358 316.74 81.652)"/><pattern id="ah" xlink:href="#ca" patternTransform="matrix(1.0019 0 0 1.0019 369 58.989)"/><pattern id="ca" width="2" height="2" patternTransform="translate(0) scale(10)" patternUnits="userSpaceOnUse"><rect id="dx" width="1" height="1" fill="#fff"/><rect id="dy" x="1" y="1" width="1" height="1" fill="#fff"/></pattern><radialGradient id="r" cx="79.935" cy="110.19" r="58" gradientTransform="matrix(.14428 .53718 -1.4615 .39066 451.83 -16.762)" gradientUnits="userSpaceOnUse"><stop id="dz" stop-color="#fff" offset="0"/><stop id="ea" stop-color="#eeeeec" offset=".5"/><stop id="eb" stop-color="#fff" offset="1"/></radialGradient><linearGradient id="bj" x1="303.69" x2="311.31" y1="58.833" y2="87.603" gradientTransform="matrix(.98852 0 0 .99006 3.5431 .76545)" gradientUnits="userSpaceOnUse"><stop id="ec" stop-color="#babdb6" offset="0"/><stop id="ed" stop-color="#888a85" offset="1"/></linearGradient><filter id="bk"><feGaussianBlur id="ee" stdDeviation="0.55"/></filter><radialGradient id="q" cx="79.935" cy="110.19" r="58" gradientTransform="matrix(.13318 .50641 -1.349 .36828 440.05 -10.615)" gradientUnits="userSpaceOnUse"><stop id="ef" stop-color="#fff" offset="0"/><stop id="eg" stop-color="#eeeeec" offset=".5"/><stop id="eh" stop-color="#fff" offset="1"/></radialGradient><linearGradient id="bi" x1="303.69" x2="311.31" y1="58.833" y2="87.603" gradientTransform="matrix(.91246 0 0 .93335 26.256 5.909)" gradientUnits="userSpaceOnUse"><stop id="ei" stop-color="#babdb6" offset="0"/><stop id="ej" stop-color="#888a85" offset="1"/></linearGradient><radialGradient id="o" cx="79.935" cy="110.19" r="58" gradientTransform="matrix(.088846 .32217 -.89992 .23429 401.76 133.77)" gradientUnits="userSpaceOnUse"><stop id="ek" stop-color="#fff" offset="0"/><stop id="el" stop-color="#eeeeec" offset=".5"/><stop id="em" stop-color="#fff" offset="1"/></radialGradient><linearGradient id="bg" x1="303.69" x2="311.31" y1="58.833" y2="87.603" gradientTransform="matrix(.6087 0 0 .59378 125.72 144.28)" gradientUnits="userSpaceOnUse"><stop id="en" stop-color="#babdb6" offset="0"/><stop id="eo" stop-color="#888a85" offset="1"/></linearGradient><radialGradient id="n" cx="79.935" cy="110.19" r="58" gradientTransform="matrix(.088846 .32217 -.89992 .23429 404.76 133.77)" gradientUnits="userSpaceOnUse"><stop id="ep" stop-color="#fff" offset="0"/><stop id="eq" stop-color="#eeeeec" offset=".5"/><stop id="er" stop-color="#fff" offset="1"/></radialGradient><linearGradient id="bf" x1="303.69" x2="311.31" y1="58.833" y2="87.603" gradientTransform="matrix(.6087 0 0 .59378 128.72 144.28)" gradientUnits="userSpaceOnUse"><stop id="es" stop-color="#babdb6" offset="0"/><stop id="et" stop-color="#888a85" offset="1"/></linearGradient><pattern id="aa" xlink:href="#ag" patternTransform="matrix(1.0019 0 0 1.0019 339 -31.011)"/><pattern id="ag" xlink:href="#bz" patternTransform="matrix(1.0019 0 0 1.0019 369 58.989)"/><pattern id="bz" width="2" height="2" patternTransform="translate(0) scale(10)" patternUnits="userSpaceOnUse"><rect id="eu" width="1" height="1" fill="#fff"/><rect id="ev" x="1" y="1" width="1" height="1" fill="#fff"/></pattern><radialGradient id="d" cx="65.431" cy="118.02" r="58" gradientTransform="matrix(.12649 .46847 -.85832 .22824 439.02 99.166)" gradientUnits="userSpaceOnUse"><stop id="ew" stop-color="#729fcf" offset="0"/><stop id="ex" stop-color="#204a87" offset=".5"/><stop id="ey" stop-color="#729fcf" offset="1"/></radialGradient><pattern id="u" xlink:href="#v" patternTransform="matrix(1.9036 0 0 1.7533 355.18 149.01)"/><pattern id="v" xlink:href="#x" patternTransform="matrix(1.9036 0 0 1.7533 358.98 149.01)"/><pattern id="x" xlink:href="#z" patternTransform="matrix(1.0019 0 0 1.0019 329 58.989)"/><pattern id="z" xlink:href="#af" patternTransform="matrix(1.0019 0 0 1.0019 339 -31.011)"/><pattern id="af" xlink:href="#by" patternTransform="matrix(1.0019 0 0 1.0019 369 58.989)"/><pattern id="by" width="2" height="2" patternTransform="translate(0) scale(10)" patternUnits="userSpaceOnUse"><rect id="ez" width="1" height="1" fill="#fff"/><rect id="fa" x="1" y="1" width="1" height="1" fill="#fff"/></pattern><radialGradient id="p" cx="79.935" cy="110.19" r="58" gradientTransform="matrix(.13189 .50609 -1.3359 .36805 438.86 -10.556)" gradientUnits="userSpaceOnUse"><stop id="fb" stop-color="#fff" offset="0"/><stop id="fc" stop-color="#eeeeec" offset=".5"/><stop id="fd" stop-color="#fff" offset="1"/></radialGradient><linearGradient id="bh" x1="303.27" x2="313.13" y1="63.133" y2="80.554" gradientTransform="matrix(.90357 0 0 .93275 29.093 5.9577)" gradientUnits="userSpaceOnUse"><stop id="fe" stop-color="#babdb6" offset="0"/><stop id="ff" stop-color="#555753" offset="1"/></linearGradient><radialGradient id="m" cx="79.935" cy="110.19" r="58" gradientTransform="matrix(.080171 .28543 -.79359 .21264 389.05 179.07)" gradientUnits="userSpaceOnUse"><stop id="fg" stop-color="#729fcf" offset="0"/><stop id="fh" stop-color="#3465a4" offset=".5"/><stop id="fi" stop-color="#729fcf" offset="1"/></radialGradient><linearGradient id="be" x1="317" x2="317" y1="228.17" y2="220.55" gradientUnits="userSpaceOnUse"><stop id="fj" stop-color="#3465a4" offset="0"/><stop id="fk" stop-color="#729fcf" offset="1"/></linearGradient><radialGradient id="l" cx="79.935" cy="110.19" r="58" gradientTransform="matrix(.069807 .25433 -.70708 .18496 380.35 184.61)" gradientUnits="userSpaceOnUse"><stop id="fl" stop-color="#729fcf" offset="0"/><stop id="fm" stop-color="#3465a4" offset=".5"/><stop id="fn" stop-color="#729fcf" offset="1"/></radialGradient><linearGradient id="bd" x1="317" x2="317" y1="232.85" y2="220.55" gradientUnits="userSpaceOnUse"><stop id="fo" stop-color="#3465a4" offset="0"/><stop id="fp" stop-color="#729fcf" offset="1"/></linearGradient><radialGradient id="s" cx="-184.27" cy="169.1" r="48" gradientTransform="matrix(3.3157 0 0 1.5973 437.18 -98.837)" gradientUnits="userSpaceOnUse"><stop id="fq" stop-color="#3465a4" offset="0"/><stop id="fr" stop-color="#204a87" offset="1"/></radialGradient><filter id="bm"><feGaussianBlur id="fs" stdDeviation="0.41287879"/></filter></defs><g id="ft"><g id="fu" display="none"><rect id="fv" x="288" y="51" width="64" height="50" display="inline" enable-background="accumulate" fill="#fff" fill-rule="nonzero"/><rect id="fw" x="295" y="51" width="50" height="50" display="inline" enable-background="accumulate" fill="#fff" fill-rule="nonzero"/><rect id="fx" x="296" y="52" width="48" height="48" display="inline" enable-background="accumulate" fill="#eeeeec" fill-rule="nonzero"/><rect id="fy" x="302" y="127" width="34" height="34" display="inline" enable-background="accumulate" fill="#fff" fill-rule="nonzero"/><rect id="fz" x="303" y="128" width="32" height="32" display="inline" enable-background="accumulate" fill="#eeeeec" fill-rule="nonzero"/><rect id="ga" x="301" y="177" width="26" height="26" display="inline" enable-background="accumulate" fill="#fff" fill-rule="nonzero"/><rect id="gb" x="302" y="178" width="24" height="24" display="inline" enable-background="accumulate" fill="#fff" fill-rule="nonzero"/><rect id="gc" x="303" y="221" width="16" height="16" display="inline" enable-background="accumulate" fill="#eeeeec" fill-rule="nonzero"/><rect id="gd" x="303" y="179" width="22" height="22" display="inline" enable-background="accumulate" fill="#eeeeec" fill-rule="nonzero"/><text id="ge" x="31.87059" y="18.860306" display="inline" enable-background="new" fill="#000000" font-family="DejaVu Sans" font-size="18px" xml:space="preserve"><tspan id="gf" x="31.87059" y="18.860306" font-family="DejaVu Sans">apps</tspan></text><text id="gg" x="302.87057" y="18.860306" display="inline" enable-background="new" fill="#000000" font-family="DejaVu Sans" font-size="18px" font-weight="bold" style="line-height:125%" xml:space="preserve"><tspan id="gh" x="302.87057" y="18.860306" font-family="DejaVu Sans" font-size="18px" font-weight="bold">aisleriot</tspan></text><rect id="gi" x="20" y="32" width="256" height="256" display="inline" enable-background="accumulate" fill="#eeeeec" fill-rule="nonzero"/><g id="k" display="inline" enable-background="new"><rect id="gj" x="-224" y="100" width="96" height="144" rx="0" ry="0" color="#000000" display="inline" enable-background="accumulate" fill="url(#s)" fill-rule="nonzero"/><rect id="gk" x="-224" y="100" width="96" height="144" rx="0" ry="0" color="#000000" display="inline" enable-background="accumulate" fill="url(#aj)" fill-rule="nonzero" opacity=".7"/><rect id="gl" x="-222" y="102" width="92" height="140" color="#000000" display="inline" enable-background="accumulate" fill="none" stroke="#204a87" stroke-miterlimit="4" stroke-width="4"/><rect id="gm" x="-222" y="102" width="92" height="140" color="#000000" display="inline" enable-background="accumulate" fill="none" stroke="#fff" stroke-miterlimit="4" stroke-width="2"/></g><path id="bc" d="m-354 106v17c-2.25-8.103-12-9.9891-12-17 0-3.3137 2.6863-6 6-6s6 2.6863 6 6z" color="#000000" display="inline" enable-background="accumulate" fill="#ef2929" fill-rule="nonzero"/><use id="gn" transform="matrix(-1,0,0,1,-708,0)" width="400" height="300" display="inline" enable-background="new" xlink:href="#bc"/><rect id="go" x="353.06" y="123" width="40" height="40" display="inline" enable-background="accumulate" fill="#eeeeec" fill-rule="nonzero"/></g><g id="gp"><g id="gq" transform="translate(2)" enable-background="new" stroke-miterlimit="4"><rect id="gr" x="305.5" y="221.5" width="11" height="15" rx=".54786" ry=".53699" color="#000000" enable-background="accumulate" fill="url(#l)" fill-rule="nonzero" stroke="url(#bd)"/><rect id="gs" x="306.5" y="222.5" width="9" height="13" rx="0" ry="0" color="#000000" enable-background="accumulate" fill="none" opacity=".3" stroke="#fff" stroke-linecap="round" stroke-linejoin="miter"/></g><g id="gt" stroke-miterlimit="4"><rect id="gu" x="305.5" y="221.5" width="11" height="15" rx=".54786" ry=".53699" color="#000000" enable-background="accumulate" fill="url(#m)" fill-rule="nonzero" stroke="url(#be)"/><rect id="gv" x="306.5" y="222.5" width="9" height="13" rx="0" ry="0" color="#000000" enable-background="accumulate" fill="none" opacity=".3" stroke="#fff" stroke-linecap="round" stroke-linejoin="miter"/></g><rect id="gw" x="303.5" y="181.5" width="21" height="19.001" rx="1.0459" ry=".68022" color="#000000" enable-background="accumulate" fill-rule="nonzero" opacity=".1" stroke="#000" stroke-miterlimit="4"/><rect id="gx" x="309.5" y="180.5" width="14" height="19.001" rx=".69727" ry=".68022" color="#000000" enable-background="accumulate" fill="url(#n)" fill-rule="nonzero" stroke="url(#bf)" stroke-miterlimit="4"/><g id="gy" transform="matrix(.52632 0 0 .57143 133.05 96.857)" enable-background="new" fill-rule="nonzero"><rect id="gz" x="340" y="149" width="19" height="28" rx="0" ry="0" color="#000000" enable-background="accumulate" fill="url(#d)"/><rect id="ha" x="340" y="149" width="19" height="28" rx="0" ry="0" color="#000000" enable-background="accumulate" fill="url(#u)" opacity=".37326"/></g><rect id="hb" x="307.5" y="180.5" width="14" height="19.001" rx=".69727" ry=".68022" color="#000000" enable-background="accumulate" fill-rule="nonzero" opacity=".1" stroke="#000" stroke-miterlimit="4"/><path id="hc" d="m310.41 130.5c-0.49702 0-0.90625 0.36965-0.90625 0.84375v2.1562h-4.0938c-0.49702 0-0.90625 0.36965-0.90625 0.84375v22.281c0 0.4741 0.40923 0.875 0.90625 0.875h16.188c0.49702 0 0.90625-0.4009 0.90625-0.875v-0.125h9.0938c0.49702 0 0.90625-0.4009 0.90625-0.875v-22.281c0-0.4741-0.40923-0.84375-0.90625-0.84375h-4.0938v-1.1562c0-0.4741-0.40923-0.84375-0.90625-0.84375h-16.188z" color="#000000" enable-background="accumulate" fill-rule="nonzero" filter="url(#bk)" opacity=".2" stroke="#000" stroke-miterlimit="4" stroke-width=".98929"/><g id="hd" transform="translate(-19 3)" enable-background="new"><g id="he" transform="translate(30,-2)" stroke-miterlimit="4"><rect id="hf" x="303.49" y="130.49" width="18.011" height="23.998" rx=".89715" ry=".85577" color="#000000" enable-background="accumulate" fill="url(#f)" fill-rule="nonzero" stroke="url(#i)" stroke-width=".98929"/><rect id="hg" x="304.49" y="131.49" width="16.016" height="22.002" rx=".16845" ry=".16431" color="#000000" enable-background="accumulate" fill="none" stroke="#fff" stroke-width=".98446"/></g><g id="hh" transform="matrix(.78947 0 0 .75 83.947 61.75)" fill-rule="nonzero"><rect id="hi" x="318" y="91" width="19" height="28" rx="0" ry="0" color="#000000" enable-background="accumulate" fill="url(#e)"/><rect id="hj" x="318" y="91" width="19" height="28" rx="0" ry="0" color="#000000" enable-background="accumulate" fill="url(#ab)" opacity=".58774"/></g></g><path id="hk" d="m315.41 131.5c-0.49702 0-0.90625 0.36965-0.90625 0.84375v22.156h13.094c0.49702 0 0.90625-0.4009 0.90625-0.875v-22.125h-13.094z" color="#000000" enable-background="accumulate" fill-rule="nonzero" opacity=".2" stroke="#000" stroke-miterlimit="4" stroke-width=".98929"/><g id="hl" transform="translate(-24,1)"><g id="hm" transform="translate(30,-2)" stroke-miterlimit="4"><rect id="hn" x="303.49" y="130.49" width="18.011" height="23.998" rx=".89715" ry=".85577" color="#000000" enable-background="accumulate" fill="url(#f)" fill-rule="nonzero" stroke="url(#i)" stroke-width=".98929"/><rect id="ho" x="304.49" y="131.49" width="16.016" height="22.002" rx=".16845" ry=".16431" color="#000000" enable-background="accumulate" fill="none" stroke="#fff" stroke-width=".98446"/></g><g id="hp" transform="matrix(.78947 0 0 .75 83.947 61.75)" fill-rule="nonzero"><rect id="hq" x="318" y="91" width="19" height="28" rx="0" ry="0" color="#000000" enable-background="accumulate" fill="url(#e)"/><rect id="hr" x="318" y="91" width="19" height="28" rx="0" ry="0" color="#000000" enable-background="accumulate" fill="url(#ac)" opacity=".58774"/></g></g><g id="hs" transform="translate(-4.0619e-6 1)" enable-background="new" fill-rule="nonzero" filter="url(#bl)" opacity=".28412" stroke="#000" stroke-miterlimit="4"><rect id="ht" x="315.53" y="58.515" width="23.943" height="32.97" rx="1.1927" ry="1.1757" color="#000000" enable-background="accumulate" stroke-width="1.0356"/><rect id="hu" x="307.53" y="56.515" width="23.943" height="32.97" rx="1.1927" ry="1.1757" color="#000000" enable-background="accumulate" stroke-width="1.0356"/><rect id="hv" x="299.52" y="60.515" width="23.958" height="32.97" rx="1.1934" ry="1.1757" color="#000000" enable-background="accumulate" stroke-width="1.036"/></g><g id="hw" transform="translate(-32 2)" enable-background="new"><g id="hx" transform="matrix(1.041 0 0 1.0303 7.1167 -5.303)" stroke-miterlimit="4"><rect id="hy" x="327" y="60" width="23" height="32" rx="1.1457" ry="1.1411" color="#000000" enable-background="accumulate" fill="url(#b)" fill-rule="nonzero" stroke="url(#c)"/><rect id="hz" x="327.92" y="60.938" width="21.168" height="30.123" rx=".22264" ry=".22495" color="#000000" enable-background="accumulate" fill="none" stroke="#fff" stroke-width=".93079"/></g><rect id="ia" x="350" y="59" width="19" height="28" rx="0" ry="0" color="#000000" enable-background="accumulate" fill="url(#a)" fill-rule="nonzero"/><path id="ib" d="m351 59v1h1v-1h-1zm1 1v1h1v-1h-1zm1 0h1v-1h-1v1zm1 0v1h1v-1h-1zm1 0h1v-1h-1v1zm1 0v1h1v-1h-1zm1 0h1v-1h-1v1zm1 0v1h1v-1h-1zm1 0h1v-1h-1v1zm1 0v1h1v-1h-1zm1 0h1v-1h-1v1zm1 0v1h1v-1h-1zm1 0h1v-1h-1v1zm1 0v1h1v-1h-1zm1 0h1v-1h-1v1zm1 0v1h1v-1h-1zm1 0h1v-1h-1v1zm1 0v1h1v-1h-1zm0 1h-1v1h1v-1zm0 1v1h1v-1h-1zm0 1h-1v1h1v-1zm0 1v1h1v-1h-1zm0 1h-1v1h1v-1zm0 1v1h1v-1h-1zm0 1h-1v1h1v-1zm0 1v1h1v-1h-1zm0 1h-1v1h1v-1zm0 1v1h1v-1h-1zm0 1h-1v1h1v-1zm0 1v1h1v-1h-1zm0 1h-1v1h1v-1zm0 1v1h1v-1h-1zm0 1h-1v1h1v-1zm0 1v1h1v-1h-1zm0 1h-1v1h1v-1zm0 1v1h1v-1h-1zm0 1h-1v1h1v-1zm0 1v1h1v-1h-1zm0 1h-1v1h1v-1zm0 1v1h1v-1h-1zm0 1h-1v1h1v-1zm0 1v1h1v-1h-1zm0 1h-1v1h1v-1zm0 1v1h1v-1h-1zm-1 0h-1v1h1v-1zm-1 0v-1h-1v1h1zm-1 0h-1v1h1v-1zm-1 0v-1h-1v1h1zm-1 0h-1v1h1v-1zm-1 0v-1h-1v1h1zm-1 0h-1v1h1v-1zm-1 0v-1h-1v1h1zm-1 0h-1v1h1v-1zm-1 0v-1h-1v1h1zm-1 0h-1v1h1v-1zm-1 0v-1h-1v1h1zm-1 0h-1v1h1v-1zm-1 0v-1h-1v1h1zm-1 0h-1v1h1v-1zm-1 0v-1h-1v1h1zm0-1h1v-1h-1v1zm0-1v-1h-1v1h1zm0-1h1v-1h-1v1zm0-1v-1h-1v1h1zm0-1h1v-1h-1v1zm0-1v-1h-1v1h1zm0-1h1v-1h-1v1zm0-1v-1h-1v1h1zm0-1h1v-1h-1v1zm0-1v-1h-1v1h1zm0-1h1v-1h-1v1zm0-1v-1h-1v1h1zm0-1h1v-1h-1v1zm0-1v-1h-1v1h1zm0-1h1v-1h-1v1zm0-1v-1h-1v1h1zm0-1h1v-1h-1v1zm0-1v-1h-1v1h1zm0-1h1v-1h-1v1zm0-1v-1h-1v1h1zm0-1h1v-1h-1v1zm0-1v-1h-1v1h1zm0-1h1v-1h-1v1zm0-1v-1h-1v1h1zm1 0h1v-1h-1v1zm1 0v1h1v-1h-1zm1 0h1v-1h-1v1zm1 0v1h1v-1h-1zm1 0h1v-1h-1v1zm1 0v1h1v-1h-1zm1 0h1v-1h-1v1zm1 0v1h1v-1h-1zm1 0h1v-1h-1v1zm1 0v1h1v-1h-1zm1 0h1v-1h-1v1zm1 0v1h1v-1h-1zm1 0h1v-1h-1v1zm1 0v1h1v-1h-1zm0 1h-1v1h1v-1zm0 1v1h1v-1h-1zm0 1h-1v1h1v-1zm0 1v1h1v-1h-1zm0 1h-1v1h1v-1zm0 1v1h1v-1h-1zm0 1h-1v1h1v-1zm0 1v1h1v-1h-1zm0 1h-1v1h1v-1zm0 1v1h1v-1h-1zm0 1h-1v1h1v-1zm0 1v1h1v-1h-1zm0 1h-1v1h1v-1zm0 1v1h1v-1h-1zm0 1h-1v1h1v-1zm0 1v1h1v-1h-1zm0 1h-1v1h1v-1zm0 1v1h1v-1h-1zm0 1h-1v1h1v-1zm0 1v1h1v-1h-1zm0 1h-1v1h1v-1zm0 1v1h1v-1h-1zm-1 0h-1v1h1v-1zm-1 0v-1h-1v1h1zm-1 0h-1v1h1v-1zm-1 0v-1h-1v1h1zm-1 0h-1v1h1v-1zm-1 0v-1h-1v1h1zm-1 0h-1v1h1v-1zm-1 0v-1h-1v1h1zm-1 0h-1v1h1v-1zm-1 0v-1h-1v1h1zm-1 0h-1v1h1v-1zm-1 0v-1h-1v1h1zm0-1h1v-1h-1v1zm0-1v-1h-1v1h1zm0-1h1v-1h-1v1zm0-1v-1h-1v1h1zm0-1h1v-1h-1v1zm0-1v-1h-1v1h1zm0-1h1v-1h-1v1zm0-1v-1h-1v1h1zm0-1h1v-1h-1v1zm0-1v-1h-1v1h1zm0-1h1v-1h-1v1zm0-1v-1h-1v1h1zm0-1h1v-1h-1v1zm0-1v-1h-1v1h1zm0-1h1v-1h-1v1zm0-1v-1h-1v1h1zm0-1h1v-1h-1v1zm0-1v-1h-1v1h1zm0-1h1v-1h-1v1zm0-1v-1h-1v1h1zm1 0h1v-1h-1v1zm1 0v1h1v-1h-1zm1 0h1v-1h-1v1zm1 0v1h1v-1h-1zm1 0h1v-1h-1v1zm1 0v1h1v-1h-1zm1 0h1v-1h-1v1zm1 0v1h1v-1h-1zm1 0h1v-1h-1v1zm1 0v1h1v-1h-1zm0 1h-1v1h1v-1zm0 1v1h1v-1h-1zm0 1h-1v1h1v-1zm0 1v1h1v-1h-1zm0 1h-1v1h1v-1zm0 1v1h1v-1h-1zm0 1h-1v1h1v-1zm0 1v1h1v-1h-1zm0 1h-1v1h1v-1zm0 1v1h1v-1h-1zm0 1h-1v1h1v-1zm0 1v1h1v-1h-1zm0 1h-1v1h1v-1zm0 1v1h1v-1h-1zm0 1h-1v1h1v-1zm0 1v1h1v-1h-1zm0 1h-1v1h1v-1zm0 1v1h1v-1h-1zm-1 0h-1v1h1v-1zm-1 0v-1h-1v1h1zm-1 0h-1v1h1v-1zm-1 0v-1h-1v1h1zm-1 0h-1v1h1v-1zm-1 0v-1h-1v1h1zm-1 0h-1v1h1v-1zm-1 0v-1h-1v1h1zm0-1h1v-1h-1v1zm0-1v-1h-1v1h1zm0-1h1v-1h-1v1zm0-1v-1h-1v1h1zm0-1h1v-1h-1v1zm0-1v-1h-1v1h1zm0-1h1v-1h-1v1zm0-1v-1h-1v1h1zm0-1h1v-1h-1v1zm0-1v-1h-1v1h1zm0-1h1v-1h-1v1zm0-1v-1h-1v1h1zm0-1h1v-1h-1v1zm0-1v-1h-1v1h1zm0-1h1v-1h-1v1zm0-1v-1h-1v1h1zm1 0h1v-1h-1v1zm1 0v1h1v-1h-1zm1 0h1v-1h-1v1zm1 0v1h1v-1h-1zm1 0h1v-1h-1v1zm1 0v1h1v-1h-1zm0 1h-1v1h1v-1zm0 1v1h1v-1h-1zm0 1h-1v1h1v-1zm0 1v1h1v-1h-1zm0 1h-1v1h1v-1zm0 1v1h1v-1h-1zm0 1h-1v1h1v-1zm0 1v1h1v-1h-1zm0 1h-1v1h1v-1zm0 1v1h1v-1h-1zm0 1h-1v1h1v-1zm0 1v1h1v-1h-1zm0 1h-1v1h1v-1zm0 1v1h1v-1h-1zm-1 0h-1v1h1v-1zm-1 0v-1h-1v1h1zm-1 0h-1v1h1v-1zm-1 0v-1h-1v1h1zm0-1h1v-1h-1v1zm0-1v-1h-1v1h1zm0-1h1v-1h-1v1zm0-1v-1h-1v1h1zm0-1h1v-1h-1v1zm0-1v-1h-1v1h1zm0-1h1v-1h-1v1zm0-1v-1h-1v1h1zm0-1h1v-1h-1v1zm0-1v-1h-1v1h1zm0-1h1v-1h-1v1zm0-1v-1h-1v1h1zm1 0h1v-1h-1v1zm1 0v1h1v-1h-1zm0 1h-1v1h1v-1zm0 1v1h1v-1h-1zm0 1h-1v1h1v-1zm0 1v1h1v-1h-1zm0 1h-1v1h1v-1zm0 1v1h1v-1h-1zm0 1h-1v1h1v-1zm0 1v1h1v-1h-1zm0 1h-1v1h1v-1zm0 1v1h1v-1h-1z" color="#000000" enable-background="accumulate" fill="#fff" fill-rule="nonzero" opacity=".588"/></g><path id="ic" d="m316.72 58.5c-0.66073 0-1.1875 0.53615-1.1875 1.1875v30.625c0 0.06472 0.0211 0.12568 0.0313 0.1875h15.719c0.66073 0 1.1875-0.53615 1.1875-1.1875v-30.625c0-0.06472-0.0211-0.12568-0.0313-0.1875h-15.719z" color="#000000" enable-background="accumulate" fill-rule="nonzero" opacity=".2" stroke="#000" stroke-miterlimit="4" stroke-width="1.0356"/><g id="id" transform="translate(-40)" enable-background="new"><g id="ie" transform="matrix(1.041 0 0 1.0303 7.1167 -5.303)" stroke-miterlimit="4"><rect id="if" x="327" y="60" width="23" height="32" rx="1.1457" ry="1.1411" color="#000000" enable-background="accumulate" fill="url(#b)" fill-rule="nonzero" stroke="url(#c)"/><rect id="ig" x="327.92" y="60.938" width="21.168" height="30.123" rx=".22264" ry=".22495" color="#000000" enable-background="accumulate" fill="none" stroke="#fff" stroke-width=".93079"/></g><rect id="ih" x="350" y="59" width="19" height="28" rx="0" ry="0" color="#000000" enable-background="accumulate" fill="url(#a)" fill-rule="nonzero"/></g><path id="ii" d="m311 59v1h1v-1h-1zm1 1v1h1v-1h-1zm1 0h1v-1h-1v1zm1 0v1h1v-1h-1zm1 0h1v-1h-1v1zm1 0v1h1v-1h-1zm1 0h1v-1h-1v1zm1 0v1h1v-1h-1zm1 0h1v-1h-1v1zm1 0v1h1v-1h-1zm1 0h1v-1h-1v1zm1 0v1h1v-1h-1zm1 0h1v-1h-1v1zm1 0v1h1v-1h-1zm1 0h1v-1h-1v1zm1 0v1h1v-1h-1zm1 0h1v-1h-1v1zm1 0v1h1v-1h-1zm0 1h-1v1h1v-1zm0 1v1h1v-1h-1zm0 1h-1v1h1v-1zm0 1v1h1v-1h-1zm0 1h-1v1h1v-1zm0 1v1h1v-1h-1zm0 1h-1v1h1v-1zm0 1v1h1v-1h-1zm0 1h-1v1h1v-1zm0 1v1h1v-1h-1zm0 1h-1v1h1v-1zm0 1v1h1v-1h-1zm0 1h-1v1h1v-1zm0 1v1h1v-1h-1zm0 1h-1v1h1v-1zm0 1v1h1v-1h-1zm0 1h-1v1h1v-1zm0 1v1h1v-1h-1zm0 1h-1v1h1v-1zm0 1v1h1v-1h-1zm0 1h-1v1h1v-1zm0 1v1h1v-1h-1zm0 1h-1v1h1v-1zm0 1v1h1v-1h-1zm0 1h-1v1h1v-1zm0 1v1h1v-1h-1zm-1 0h-1v1h1v-1zm-1 0v-1h-1v1h1zm-1 0h-1v1h1v-1zm-1 0v-1h-1v1h1zm-1 0h-1v1h1v-1zm-1 0v-1h-1v1h1zm-1 0h-1v1h1v-1zm-1 0v-1h-1v1h1zm-1 0h-1v1h1v-1zm-1 0v-1h-1v1h1zm-1 0h-1v1h1v-1zm-1 0v-1h-1v1h1zm-1 0h-1v1h1v-1zm-1 0v-1h-1v1h1zm-1 0h-1v1h1v-1zm-1 0v-1h-1v1h1zm0-1h1v-1h-1v1zm0-1v-1h-1v1h1zm0-1h1v-1h-1v1zm0-1v-1h-1v1h1zm0-1h1v-1h-1v1zm0-1v-1h-1v1h1zm0-1h1v-1h-1v1zm0-1v-1h-1v1h1zm0-1h1v-1h-1v1zm0-1v-1h-1v1h1zm0-1h1v-1h-1v1zm0-1v-1h-1v1h1zm0-1h1v-1h-1v1zm0-1v-1h-1v1h1zm0-1h1v-1h-1v1zm0-1v-1h-1v1h1zm0-1h1v-1h-1v1zm0-1v-1h-1v1h1zm0-1h1v-1h-1v1zm0-1v-1h-1v1h1zm0-1h1v-1h-1v1zm0-1v-1h-1v1h1zm0-1h1v-1h-1v1zm0-1v-1h-1v1h1zm1 0h1v-1h-1v1zm1 0v1h1v-1h-1zm1 0h1v-1h-1v1zm1 0v1h1v-1h-1zm1 0h1v-1h-1v1zm1 0v1h1v-1h-1zm1 0h1v-1h-1v1zm1 0v1h1v-1h-1zm1 0h1v-1h-1v1zm1 0v1h1v-1h-1zm1 0h1v-1h-1v1zm1 0v1h1v-1h-1zm1 0h1v-1h-1v1zm1 0v1h1v-1h-1zm0 1h-1v1h1v-1zm0 1v1h1v-1h-1zm0 1h-1v1h1v-1zm0 1v1h1v-1h-1zm0 1h-1v1h1v-1zm0 1v1h1v-1h-1zm0 1h-1v1h1v-1zm0 1v1h1v-1h-1zm0 1h-1v1h1v-1zm0 1v1h1v-1h-1zm0 1h-1v1h1v-1zm0 1v1h1v-1h-1zm0 1h-1v1h1v-1zm0 1v1h1v-1h-1zm0 1h-1v1h1v-1zm0 1v1h1v-1h-1zm0 1h-1v1h1v-1zm0 1v1h1v-1h-1zm0 1h-1v1h1v-1zm0 1v1h1v-1h-1zm0 1h-1v1h1v-1zm0 1v1h1v-1h-1zm-1 0h-1v1h1v-1zm-1 0v-1h-1v1h1zm-1 0h-1v1h1v-1zm-1 0v-1h-1v1h1zm-1 0h-1v1h1v-1zm-1 0v-1h-1v1h1zm-1 0h-1v1h1v-1zm-1 0v-1h-1v1h1zm-1 0h-1v1h1v-1zm-1 0v-1h-1v1h1zm-1 0h-1v1h1v-1zm-1 0v-1h-1v1h1zm0-1h1v-1h-1v1zm0-1v-1h-1v1h1zm0-1h1v-1h-1v1zm0-1v-1h-1v1h1zm0-1h1v-1h-1v1zm0-1v-1h-1v1h1zm0-1h1v-1h-1v1zm0-1v-1h-1v1h1zm0-1h1v-1h-1v1zm0-1v-1h-1v1h1zm0-1h1v-1h-1v1zm0-1v-1h-1v1h1zm0-1h1v-1h-1v1zm0-1v-1h-1v1h1zm0-1h1v-1h-1v1zm0-1v-1h-1v1h1zm0-1h1v-1h-1v1zm0-1v-1h-1v1h1zm0-1h1v-1h-1v1zm0-1v-1h-1v1h1zm1 0h1v-1h-1v1zm1 0v1h1v-1h-1zm1 0h1v-1h-1v1zm1 0v1h1v-1h-1zm1 0h1v-1h-1v1zm1 0v1h1v-1h-1zm1 0h1v-1h-1v1zm1 0v1h1v-1h-1zm1 0h1v-1h-1v1zm1 0v1h1v-1h-1zm0 1h-1v1h1v-1zm0 1v1h1v-1h-1zm0 1h-1v1h1v-1zm0 1v1h1v-1h-1zm0 1h-1v1h1v-1zm0 1v1h1v-1h-1zm0 1h-1v1h1v-1zm0 1v1h1v-1h-1zm0 1h-1v1h1v-1zm0 1v1h1v-1h-1zm0 1h-1v1h1v-1zm0 1v1h1v-1h-1zm0 1h-1v1h1v-1zm0 1v1h1v-1h-1zm0 1h-1v1h1v-1zm0 1v1h1v-1h-1zm0 1h-1v1h1v-1zm0 1v1h1v-1h-1zm-1 0h-1v1h1v-1zm-1 0v-1h-1v1h1zm-1 0h-1v1h1v-1zm-1 0v-1h-1v1h1zm-1 0h-1v1h1v-1zm-1 0v-1h-1v1h1zm-1 0h-1v1h1v-1zm-1 0v-1h-1v1h1zm0-1h1v-1h-1v1zm0-1v-1h-1v1h1zm0-1h1v-1h-1v1zm0-1v-1h-1v1h1zm0-1h1v-1h-1v1zm0-1v-1h-1v1h1zm0-1h1v-1h-1v1zm0-1v-1h-1v1h1zm0-1h1v-1h-1v1zm0-1v-1h-1v1h1zm0-1h1v-1h-1v1zm0-1v-1h-1v1h1zm0-1h1v-1h-1v1zm0-1v-1h-1v1h1zm0-1h1v-1h-1v1zm0-1v-1h-1v1h1zm1 0h1v-1h-1v1zm1 0v1h1v-1h-1zm1 0h1v-1h-1v1zm1 0v1h1v-1h-1zm1 0h1v-1h-1v1zm1 0v1h1v-1h-1zm0 1h-1v1h1v-1zm0 1v1h1v-1h-1zm0 1h-1v1h1v-1zm0 1v1h1v-1h-1zm0 1h-1v1h1v-1zm0 1v1h1v-1h-1zm0 1h-1v1h1v-1zm0 1v1h1v-1h-1zm0 1h-1v1h1v-1zm0 1v1h1v-1h-1zm0 1h-1v1h1v-1zm0 1v1h1v-1h-1zm0 1h-1v1h1v-1zm0 1v1h1v-1h-1zm-1 0h-1v1h1v-1zm-1 0v-1h-1v1h1zm-1 0h-1v1h1v-1zm-1 0v-1h-1v1h1zm0-1h1v-1h-1v1zm0-1v-1h-1v1h1zm0-1h1v-1h-1v1zm0-1v-1h-1v1h1zm0-1h1v-1h-1v1zm0-1v-1h-1v1h1zm0-1h1v-1h-1v1zm0-1v-1h-1v1h1zm0-1h1v-1h-1v1zm0-1v-1h-1v1h1zm0-1h1v-1h-1v1zm0-1v-1h-1v1h1zm1 0h1v-1h-1v1zm1 0v1h1v-1h-1zm0 1h-1v1h1v-1zm0 1v1h1v-1h-1zm0 1h-1v1h1v-1zm0 1v1h1v-1h-1zm0 1h-1v1h1v-1zm0 1v1h1v-1h-1zm0 1h-1v1h1v-1zm0 1v1h1v-1h-1zm0 1h-1v1h1v-1zm0 1v1h1v-1h-1z" color="#000000" enable-background="accumulate" fill="#fff" fill-rule="nonzero" opacity=".588"/><path id="ij" d="m307.53 61.5v28.812c0 0.65135 0.5281 1.2294 1.1875 1.1875h15.75v-28.812c0-0.65135-0.52635-1.1875-1.1875-1.1875z" color="#000000" enable-background="accumulate" fill-rule="nonzero" opacity=".2" stroke="#000" stroke-miterlimit="4" stroke-width="1.036"/><g id="ik" transform="matrix(1.0417 0 0 1.0303 -9.8539 -2.3333)" enable-background="new" stroke-miterlimit="4"><rect id="il" x="297" y="61" width="23" height="32" rx="1.1457" ry="1.1411" color="#000000" enable-background="accumulate" fill="url(#g)" fill-rule="nonzero" stroke="url(#j)"/><rect id="im" x="297.92" y="61.938" width="21.155" height="30.123" rx=".2225" ry=".22495" color="#000000" enable-background="accumulate" fill="none" stroke="#fff" stroke-width=".9305"/></g><path id="in" d="m302.75 68c-0.41421 0-0.75 0.27996-0.75 0.62532 0 0.73067 1.2188 0.92724 1.5 1.7717 0.28125-0.8445 1.5-1.0411 1.5-1.7717 0-0.34536-0.33579-0.62532-0.75-0.62532s-0.75 0.27996-0.75 0.62532c0-0.34536-0.33579-0.62532-0.75-0.62532z" color="#000000" enable-background="accumulate" fill="#ef2929" fill-rule="nonzero"/><path id="io" d="m309.75 73c-0.96649 0-1.75 0.77189-1.75 1.7241 0 2.0145 2.8438 2.5565 3.5 4.8849 0.65624-2.3284 3.5-2.8703 3.5-4.8849 0-0.95218-0.78351-1.7241-1.75-1.7241-0.96651 0-1.75 0.77189-1.75 1.7241 0-0.95218-0.7835-1.7241-1.75-1.7241z" color="#000000" enable-background="accumulate" fill="#ef2929" fill-rule="nonzero"/><path id="ip" d="m320.25 86c0.41421 0 0.75-0.27996 0.75-0.62532 0-0.73067-1.2188-0.92724-1.5-1.7717-0.28125 0.8445-1.5 1.0411-1.5 1.7717 0 0.34536 0.33579 0.62532 0.75 0.62532s0.75-0.27996 0.75-0.62532c0 0.34536 0.33579 0.62532 0.75 0.62532z" color="#000000" enable-background="accumulate" fill="#ef2929" fill-rule="nonzero"/><path id="iq" d="m309.5 133.5v19.125c0 0.4741 0.40923 0.875 0.90625 0.875h4.0938v1.125c0 0.4741 0.40923 0.875 0.90625 0.875h8.0938v-21.156c0-0.4741-0.40923-0.84375-0.90625-0.84375h-13.094z" color="#000000" enable-background="accumulate" fill-rule="nonzero" opacity=".2" stroke="#000" stroke-miterlimit="4" stroke-width=".98929"/><g id="ir" transform="translate(1,1)"><g id="is" transform="matrix(.79217 0 0 .75745 68.115 85.169)" enable-background="new" stroke-miterlimit="4"><rect id="it" x="297.13" y="61.159" width="22.736" height="31.682" rx="1.1325" ry="1.1298" color="#000000" enable-background="accumulate" fill="url(#r)" fill-rule="nonzero" stroke="url(#bj)" stroke-width="1.2771"/><rect id="iu" x="298.39" y="62.476" width="20.217" height="29.048" rx=".21264" ry=".21692" color="#000000" enable-background="accumulate" fill="none" stroke="#fff" stroke-width="1.2709"/></g><path id="iv" d="m311.25 141c-0.69068 0-1.2506 0.57894-1.2506 1.2931 0 1.511 2.0323 1.9175 2.5012 3.6638 0.46897-1.7464 2.5012-2.1528 2.5012-3.6638 0-0.71417-0.55994-1.2931-1.2506-1.2931-0.69071 0-1.2506 0.57894-1.2506 1.2931 0-0.71417-0.55992-1.2931-1.2506-1.2931z" color="#000000" enable-background="accumulate" fill="#ef2929" fill-rule="nonzero"/><g id="iw" transform="matrix(.39931 0 0 .33292 282.76 104.37)" enable-background="new"></g><g id="ix" transform="matrix(-.39931 0 0 -.33292 342.24 182.63)" enable-background="new"></g></g><rect id="iy" x="306.5" y="180.5" width="14" height="19.001" rx=".69727" ry=".68022" color="#000000" enable-background="accumulate" fill="url(#o)" fill-rule="nonzero" stroke="url(#bg)" stroke-miterlimit="4"/><g id="iz" transform="matrix(.52632 0 0 .57143 130.05 96.857)" fill-rule="nonzero"><rect id="ja" x="340" y="149" width="19" height="28" rx="0" ry="0" color="#000000" enable-background="accumulate" fill="url(#d)"/><rect id="jb" x="340" y="149" width="19" height="28" rx="0" ry="0" color="#000000" enable-background="accumulate" fill="url(#w)" opacity=".37326"/></g><rect id="jc" x="304.5" y="180.5" width="14" height="19.001" rx=".69727" ry=".68022" color="#000000" enable-background="accumulate" fill-rule="nonzero" opacity=".1" stroke="#000" stroke-miterlimit="4"/><g id="jd" transform="matrix(.84211 0 0 .83989 47.842 68.987)" enable-background="new"><g id="je" transform="matrix(.79217 0 0 .75745 68.115 85.169)" enable-background="new" stroke-miterlimit="4"><rect id="jf" x="297.26" y="62.843" width="20.987" height="29.867" rx="1.0452" ry="1.0692" color="#000000" enable-background="accumulate" fill="url(#q)" fill-rule="nonzero" stroke="url(#bi)" stroke-width="1.535"/><rect id="jg" x="298.72" y="64.376" width="18.063" height="26.8" rx=".18998" ry=".20013" color="#000000" enable-background="accumulate" fill="none" stroke="#fff" stroke-width="1.4588"/></g><path id="jh" d="m309.83 140.51c-1.1477 0-2.0781 0.82487-2.0781 1.8424 0 2.1528 3.377 2.732 4.1563 5.2202 0.77927-2.4882 4.1562-3.0674 4.1562-5.2202 0-1.0176-0.93043-1.8424-2.0781-1.8424-1.1477 0-2.0781 0.82487-2.0781 1.8424 0-1.0176-0.93041-1.8424-2.0781-1.8424z" color="#000000" enable-background="accumulate" fill="#ef2929" fill-rule="nonzero"/><g id="ji" transform="matrix(.39931 0 0 .33292 282.76 104.37)" enable-background="new"></g><g id="jj" transform="matrix(-.39931 0 0 -.33292 342.24 182.63)" enable-background="new"></g></g><g id="jk" transform="matrix(.66816 0 0 .66346 100.55 133.41)" enable-background="new"><g id="jl" transform="matrix(.79217 0 0 .75745 68.115 85.169)" enable-background="new" stroke-miterlimit="4"><rect id="jm" x="297.45" y="62.856" width="20.782" height="29.848" rx="1.0351" ry="1.0685" color="#000000" enable-background="accumulate" fill="url(#p)" fill-rule="nonzero" stroke="url(#bh)" stroke-width="1.9389"/><rect id="jn" x="299.3" y="64.796" width="17.097" height="25.96" rx=".17983" ry=".19386" color="#000000" enable-background="accumulate" fill="none" stroke="#fff" stroke-width="1.8426"/></g><path id="jo" d="m309.83 140.51c-1.1477 0-2.0781 0.82487-2.0781 1.8424 0 2.1528 3.377 2.732 4.1563 5.2202 0.77927-2.4882 4.1562-3.0674 4.1562-5.2202 0-1.0176-0.93043-1.8424-2.0781-1.8424-1.1477 0-2.0781 0.82487-2.0781 1.8424 0-1.0176-0.93041-1.8424-2.0781-1.8424z" color="#000000" enable-background="accumulate" fill="#ef2929" fill-rule="nonzero"/><g id="jp" transform="matrix(.39931 0 0 .33292 282.76 104.37)" enable-background="new"></g><g id="jq" transform="matrix(-.39931 0 0 -.33292 342.24 182.63)" enable-background="new"></g></g><g id="jr" fill="#fff" fill-rule="nonzero" opacity=".4"><rect id="js" x="315" y="223" width="1" height="1" color="#000000" enable-background="accumulate"/><rect id="jt" x="315" y="225" width="1" height="1" color="#000000" enable-background="accumulate"/><rect id="ju" x="315" y="227" width="1" height="1" color="#000000" enable-background="accumulate"/><rect id="jv" x="315" y="229" width="1" height="1" color="#000000" enable-background="accumulate"/><rect id="jw" x="315" y="231.03" width="1" height="1" color="#000000" enable-background="accumulate"/><rect id="jx" x="315" y="233.03" width="1" height="1" color="#000000" enable-background="accumulate"/><rect id="jy" x="315" y="235.03" width="1" height="1" color="#000000" enable-background="accumulate"/></g><g id="jz" fill="#fff" fill-rule="nonzero" opacity=".4"><rect id="ka" x="317" y="223" width="1" height="1" color="#000000" enable-background="accumulate"/><rect id="kb" x="317" y="225" width="1" height="1" color="#000000" enable-background="accumulate"/><rect id="kc" x="317" y="227" width="1" height="1" color="#000000" enable-background="accumulate"/><rect id="kd" x="317" y="229" width="1" height="1" color="#000000" enable-background="accumulate"/><rect id="ke" x="317" y="231.03" width="1" height="1" color="#000000" enable-background="accumulate"/><rect id="kf" x="317" y="233.03" width="1" height="1" color="#000000" enable-background="accumulate"/><rect id="kg" x="317" y="235.03" width="1" height="1" color="#000000" enable-background="accumulate"/></g><path id="kh" d="m303.5 63c-0.831 0-1.5 0.669-1.5 1.5v0.5 1 1h1v-1h1v1h1v-1-1-0.5c0-0.831-0.669-1.5-1.5-1.5zm0 1c0.277 0 0.5 0.223 0.5 0.5v0.5h-1v-0.5c0-0.277 0.223-0.5 0.5-0.5z" color="#000000" enable-background="accumulate" fill="#ef2929" fill-rule="nonzero" opacity=".7"/><path id="ki" d="m319.5 91c-0.831 0-1.5-0.669-1.5-1.5v-0.5-1-1h1v1h1v-1h1v1 1 0.5c0 0.831-0.669 1.5-1.5 1.5zm0-1c0.277 0 0.5-0.223 0.5-0.5v-0.5h-1v0.5c0 0.277 0.223 0.5 0.5 0.5z" color="#000000" enable-background="accumulate" fill="#ef2929" fill-rule="nonzero" opacity=".7"/><g id="kj" fill="#ef2929" fill-rule="nonzero"><path id="kk" d="m307.5 134c-0.831 0-1.5 0.669-1.5 1.5v0.5 1 1h1v-1h1v1h1v-1-1-0.5c0-0.831-0.669-1.5-1.5-1.5zm0 1c0.277 0 0.5 0.223 0.5 0.5v0.5h-1v-0.5c0-0.277 0.223-0.5 0.5-0.5z" color="#000000" enable-background="accumulate" opacity=".7"/><path id="kl" d="m306.75 139c-0.41421 0-0.75 0.27996-0.75 0.62532 0 0.73067 1.2188 0.92723 1.5 1.7717 0.28125-0.84449 1.5-1.0411 1.5-1.7717 0-0.34536-0.33579-0.62532-0.75-0.62532s-0.75 0.27996-0.75 0.62532c0-0.34536-0.33579-0.62532-0.75-0.62532z" color="#000000" enable-background="accumulate"/></g><g id="km" transform="matrix(1,0,0,-1,12,289)" enable-background="new" fill="#ef2929" fill-rule="nonzero"><path id="kn" d="m307.5 134c-0.831 0-1.5 0.669-1.5 1.5v0.5 1 1h1v-1h1v1h1v-1-1-0.5c0-0.831-0.669-1.5-1.5-1.5zm0 1c0.277 0 0.5 0.223 0.5 0.5v0.5h-1v-0.5c0-0.277 0.223-0.5 0.5-0.5z" color="#000000" enable-background="accumulate" opacity=".7"/><path id="ko" d="m306.75 139c-0.41421 0-0.75 0.27996-0.75 0.62532 0 0.73067 1.2188 0.92723 1.5 1.7717 0.28125-0.84449 1.5-1.0411 1.5-1.7717 0-0.34536-0.33579-0.62532-0.75-0.62532s-0.75 0.27996-0.75 0.62532c0-0.34536-0.33579-0.62532-0.75-0.62532z" color="#000000" enable-background="accumulate"/></g><g id="kp" transform="matrix(1,0,0,-1,4,332)" enable-background="new" opacity=".5376"><g id="kq" fill="#ef2929" fill-rule="nonzero"><path id="kr" transform="matrix(1,0,0,-1,-8,284)" d="m310 134-1 2v1h1l0.5-0.85402 0.5 0.85402h1v-1l-1-2zm1 1v1h-1v-1z" color="#000000" enable-background="accumulate"/><path id="ks" d="m310 134-1 2v1h1l0.5-0.9424 0.5 0.9424h1v-1l-1-2zm1 1v1h-1v-1z" color="#000000" enable-background="accumulate"/><path id="kt" d="m310 150-1-2v-1h1l0.5 0.85402 0.5-0.85402h1v1l-1 2zm1-1v-1h-1v1z" color="#000000" enable-background="accumulate" opacity=".5376"/><path id="ku" d="m302 134-1 2v1h1l0.5-0.9424 0.5 0.9424h1v-1l-1-2zm1 1v1h-1v-1z" color="#000000" enable-background="accumulate" opacity=".5376"/></g></g><g id="kv" fill="#ef2929" fill-rule="nonzero"><rect id="kw" x="305" y="184" width=".99998" height="1" rx="0" ry="0" color="#000000" enable-background="accumulate"/><rect id="kx" x="307" y="184" width=".99998" height="1" rx="0" ry="0" color="#000000" enable-background="accumulate"/><rect id="ky" x="306" y="182" width=".99998" height="1" rx="0" ry="0" color="#000000" enable-background="accumulate"/></g><g id="kz" transform="matrix(1,0,0,-1,8,380)" enable-background="new" fill="#ef2929" fill-rule="nonzero"><rect id="la" x="305" y="184" width=".99998" height="1" rx="0" ry="0" color="#000000" enable-background="accumulate"/><rect id="lb" x="307" y="184" width=".99998" height="1" rx="0" ry="0" color="#000000" enable-background="accumulate"/><rect id="lc" x="306" y="182" width=".99998" height="1" rx="0" ry="0" color="#000000" enable-background="accumulate"/></g><path id="ld" d="m318.75 68c-0.41421 0-0.75 0.27996-0.75 0.62532 0 0.73067 1.2188 0.92724 1.5 1.7717 0.28125-0.8445 1.5-1.0411 1.5-1.7717 0-0.34536-0.33579-0.62532-0.75-0.62532s-0.75 0.27996-0.75 0.62532c0-0.34536-0.33579-0.62532-0.75-0.62532z" color="#000000" enable-background="accumulate" fill="#ef2929" fill-rule="nonzero"/><path id="le" d="m319.5 63c-0.831 0-1.5 0.669-1.5 1.5v0.5 1 1h1v-1h1v1h1v-1-1-0.5c0-0.831-0.669-1.5-1.5-1.5zm0 1c0.277 0 0.5 0.223 0.5 0.5v0.5h-1v-0.5c0-0.277 0.223-0.5 0.5-0.5z" color="#000000" enable-background="accumulate" fill="#ef2929" fill-rule="nonzero" opacity=".7"/><path id="lf" d="m304.25 86c0.41421 0 0.75-0.27996 0.75-0.62532 0-0.73067-1.2188-0.92724-1.5-1.7717-0.28125 0.8445-1.5 1.0411-1.5 1.7717 0 0.34536 0.33579 0.62532 0.75 0.62532s0.75-0.27996 0.75-0.62532c0 0.34536 0.33579 0.62532 0.75 0.62532z" color="#000000" enable-background="accumulate" fill="#ef2929" fill-rule="nonzero"/><path id="lg" d="m303.5 91c-0.831 0-1.5-0.669-1.5-1.5v-0.5-1-1h1v1h1v-1h1v1 1 0.5c0 0.831-0.669 1.5-1.5 1.5zm0-1c0.277 0 0.5-0.223 0.5-0.5v-0.5h-1v0.5c0 0.277 0.223 0.5 0.5 0.5z" color="#000000" enable-background="accumulate" fill="#ef2929" fill-rule="nonzero" opacity=".7"/><g id="lh" transform="translate(12)" enable-background="new" fill="#ef2929" fill-rule="nonzero"><path id="li" d="m307.5 134c-0.831 0-1.5 0.669-1.5 1.5v0.5 1 1h1v-1h1v1h1v-1-1-0.5c0-0.831-0.669-1.5-1.5-1.5zm0 1c0.277 0 0.5 0.223 0.5 0.5v0.5h-1v-0.5c0-0.277 0.223-0.5 0.5-0.5z" color="#000000" enable-background="accumulate" opacity=".7"/><path id="lj" d="m306.75 139c-0.41421 0-0.75 0.27996-0.75 0.62532 0 0.73067 1.2188 0.92723 1.5 1.7717 0.28125-0.84449 1.5-1.0411 1.5-1.7717 0-0.34536-0.33579-0.62532-0.75-0.62532s-0.75 0.27996-0.75 0.62532c0-0.34536-0.33579-0.62532-0.75-0.62532z" color="#000000" enable-background="accumulate"/></g><g id="lk" transform="matrix(1,0,0,-1,0,289)" enable-background="new" fill="#ef2929" fill-rule="nonzero"><path id="ll" d="m307.5 134c-0.831 0-1.5 0.669-1.5 1.5v0.5 1 1h1v-1h1v1h1v-1-1-0.5c0-0.831-0.669-1.5-1.5-1.5zm0 1c0.277 0 0.5 0.223 0.5 0.5v0.5h-1v-0.5c0-0.277 0.223-0.5 0.5-0.5z" color="#000000" enable-background="accumulate" opacity=".7"/><path id="lm" d="m306.75 139c-0.41421 0-0.75 0.27996-0.75 0.62532 0 0.73067 1.2188 0.92723 1.5 1.7717 0.28125-0.84449 1.5-1.0411 1.5-1.7717 0-0.34536-0.33579-0.62532-0.75-0.62532s-0.75 0.27996-0.75 0.62532c0-0.34536-0.33579-0.62532-0.75-0.62532z" color="#000000" enable-background="accumulate"/></g><g id="ln" transform="translate(8)" enable-background="new" fill="#ef2929" fill-rule="nonzero"><rect id="lo" x="305" y="184" width=".99998" height="1" rx="0" ry="0" color="#000000" enable-background="accumulate"/><rect id="lp" x="307" y="184" width=".99998" height="1" rx="0" ry="0" color="#000000" enable-background="accumulate"/><rect id="lq" x="306" y="182" width=".99998" height="1" rx="0" ry="0" color="#000000" enable-background="accumulate"/></g><g id="lr" transform="matrix(1,0,0,-1,0,380)" enable-background="new" fill="#ef2929" fill-rule="nonzero"><rect id="ls" x="305" y="184" width=".99998" height="1" rx="0" ry="0" color="#000000" enable-background="accumulate"/><rect id="lt" x="307" y="184" width=".99998" height="1" rx="0" ry="0" color="#000000" enable-background="accumulate"/><rect id="lu" x="306" y="182" width=".99998" height="1" rx="0" ry="0" color="#000000" enable-background="accumulate"/></g><path id="lv" d="m362.72 124.5c-0.66073 0-1.1875 0.53615-1.1875 1.1875v2.8125h-5.8125c-0.66115 0-1.1875 0.53615-1.1875 1.1875v30.625c0 0.65135 0.52635 1.1875 1.1875 1.1875h21.562c0.66115 0 1.1875-0.53615 1.1875-1.1875v-0.8125h12.812c0.66073 0 1.1875-0.53615 1.1875-1.1875v-30.625c0-0.65135-0.52677-1.1875-1.1875-1.1875h-5.8125v-0.8125c0-0.65135-0.52677-1.1875-1.1875-1.1875h-21.562z" color="#000000" enable-background="accumulate" fill-rule="nonzero" filter="url(#bm)" opacity=".34362"/><g id="lw" transform="translate(20 69)" enable-background="new"><g id="lx" transform="matrix(1.041 0 0 1.0303 7.1167 -5.303)" stroke-miterlimit="4"><rect id="ly" x="327" y="60" width="23" height="32" rx="1.1457" ry="1.1411" color="#000000" enable-background="accumulate" fill="url(#b)" fill-rule="nonzero" stroke="url(#c)"/><rect id="lz" x="327.92" y="60.938" width="21.168" height="30.123" rx=".22264" ry=".22495" color="#000000" enable-background="accumulate" fill="none" stroke="#fff" stroke-width=".93079"/></g><rect id="ma" x="350" y="59" width="19" height="28" rx="0" ry="0" color="#000000" enable-background="accumulate" fill="url(#a)" fill-rule="nonzero"/><path id="mb" d="m351 59v1h1v-1h-1zm1 1v1h1v-1h-1zm1 0h1v-1h-1v1zm1 0v1h1v-1h-1zm1 0h1v-1h-1v1zm1 0v1h1v-1h-1zm1 0h1v-1h-1v1zm1 0v1h1v-1h-1zm1 0h1v-1h-1v1zm1 0v1h1v-1h-1zm1 0h1v-1h-1v1zm1 0v1h1v-1h-1zm1 0h1v-1h-1v1zm1 0v1h1v-1h-1zm1 0h1v-1h-1v1zm1 0v1h1v-1h-1zm1 0h1v-1h-1v1zm1 0v1h1v-1h-1zm0 1h-1v1h1v-1zm0 1v1h1v-1h-1zm0 1h-1v1h1v-1zm0 1v1h1v-1h-1zm0 1h-1v1h1v-1zm0 1v1h1v-1h-1zm0 1h-1v1h1v-1zm0 1v1h1v-1h-1zm0 1h-1v1h1v-1zm0 1v1h1v-1h-1zm0 1h-1v1h1v-1zm0 1v1h1v-1h-1zm0 1h-1v1h1v-1zm0 1v1h1v-1h-1zm0 1h-1v1h1v-1zm0 1v1h1v-1h-1zm0 1h-1v1h1v-1zm0 1v1h1v-1h-1zm0 1h-1v1h1v-1zm0 1v1h1v-1h-1zm0 1h-1v1h1v-1zm0 1v1h1v-1h-1zm0 1h-1v1h1v-1zm0 1v1h1v-1h-1zm0 1h-1v1h1v-1zm0 1v1h1v-1h-1zm-1 0h-1v1h1v-1zm-1 0v-1h-1v1h1zm-1 0h-1v1h1v-1zm-1 0v-1h-1v1h1zm-1 0h-1v1h1v-1zm-1 0v-1h-1v1h1zm-1 0h-1v1h1v-1zm-1 0v-1h-1v1h1zm-1 0h-1v1h1v-1zm-1 0v-1h-1v1h1zm-1 0h-1v1h1v-1zm-1 0v-1h-1v1h1zm-1 0h-1v1h1v-1zm-1 0v-1h-1v1h1zm-1 0h-1v1h1v-1zm-1 0v-1h-1v1h1zm0-1h1v-1h-1v1zm0-1v-1h-1v1h1zm0-1h1v-1h-1v1zm0-1v-1h-1v1h1zm0-1h1v-1h-1v1zm0-1v-1h-1v1h1zm0-1h1v-1h-1v1zm0-1v-1h-1v1h1zm0-1h1v-1h-1v1zm0-1v-1h-1v1h1zm0-1h1v-1h-1v1zm0-1v-1h-1v1h1zm0-1h1v-1h-1v1zm0-1v-1h-1v1h1zm0-1h1v-1h-1v1zm0-1v-1h-1v1h1zm0-1h1v-1h-1v1zm0-1v-1h-1v1h1zm0-1h1v-1h-1v1zm0-1v-1h-1v1h1zm0-1h1v-1h-1v1zm0-1v-1h-1v1h1zm0-1h1v-1h-1v1zm0-1v-1h-1v1h1zm1 0h1v-1h-1v1zm1 0v1h1v-1h-1zm1 0h1v-1h-1v1zm1 0v1h1v-1h-1zm1 0h1v-1h-1v1zm1 0v1h1v-1h-1zm1 0h1v-1h-1v1zm1 0v1h1v-1h-1zm1 0h1v-1h-1v1zm1 0v1h1v-1h-1zm1 0h1v-1h-1v1zm1 0v1h1v-1h-1zm1 0h1v-1h-1v1zm1 0v1h1v-1h-1zm0 1h-1v1h1v-1zm0 1v1h1v-1h-1zm0 1h-1v1h1v-1zm0 1v1h1v-1h-1zm0 1h-1v1h1v-1zm0 1v1h1v-1h-1zm0 1h-1v1h1v-1zm0 1v1h1v-1h-1zm0 1h-1v1h1v-1zm0 1v1h1v-1h-1zm0 1h-1v1h1v-1zm0 1v1h1v-1h-1zm0 1h-1v1h1v-1zm0 1v1h1v-1h-1zm0 1h-1v1h1v-1zm0 1v1h1v-1h-1zm0 1h-1v1h1v-1zm0 1v1h1v-1h-1zm0 1h-1v1h1v-1zm0 1v1h1v-1h-1zm0 1h-1v1h1v-1zm0 1v1h1v-1h-1zm-1 0h-1v1h1v-1zm-1 0v-1h-1v1h1zm-1 0h-1v1h1v-1zm-1 0v-1h-1v1h1zm-1 0h-1v1h1v-1zm-1 0v-1h-1v1h1zm-1 0h-1v1h1v-1zm-1 0v-1h-1v1h1zm-1 0h-1v1h1v-1zm-1 0v-1h-1v1h1zm-1 0h-1v1h1v-1zm-1 0v-1h-1v1h1zm0-1h1v-1h-1v1zm0-1v-1h-1v1h1zm0-1h1v-1h-1v1zm0-1v-1h-1v1h1zm0-1h1v-1h-1v1zm0-1v-1h-1v1h1zm0-1h1v-1h-1v1zm0-1v-1h-1v1h1zm0-1h1v-1h-1v1zm0-1v-1h-1v1h1zm0-1h1v-1h-1v1zm0-1v-1h-1v1h1zm0-1h1v-1h-1v1zm0-1v-1h-1v1h1zm0-1h1v-1h-1v1zm0-1v-1h-1v1h1zm0-1h1v-1h-1v1zm0-1v-1h-1v1h1zm0-1h1v-1h-1v1zm0-1v-1h-1v1h1zm1 0h1v-1h-1v1zm1 0v1h1v-1h-1zm1 0h1v-1h-1v1zm1 0v1h1v-1h-1zm1 0h1v-1h-1v1zm1 0v1h1v-1h-1zm1 0h1v-1h-1v1zm1 0v1h1v-1h-1zm1 0h1v-1h-1v1zm1 0v1h1v-1h-1zm0 1h-1v1h1v-1zm0 1v1h1v-1h-1zm0 1h-1v1h1v-1zm0 1v1h1v-1h-1zm0 1h-1v1h1v-1zm0 1v1h1v-1h-1zm0 1h-1v1h1v-1zm0 1v1h1v-1h-1zm0 1h-1v1h1v-1zm0 1v1h1v-1h-1zm0 1h-1v1h1v-1zm0 1v1h1v-1h-1zm0 1h-1v1h1v-1zm0 1v1h1v-1h-1zm0 1h-1v1h1v-1zm0 1v1h1v-1h-1zm0 1h-1v1h1v-1zm0 1v1h1v-1h-1zm-1 0h-1v1h1v-1zm-1 0v-1h-1v1h1zm-1 0h-1v1h1v-1zm-1 0v-1h-1v1h1zm-1 0h-1v1h1v-1zm-1 0v-1h-1v1h1zm-1 0h-1v1h1v-1zm-1 0v-1h-1v1h1zm0-1h1v-1h-1v1zm0-1v-1h-1v1h1zm0-1h1v-1h-1v1zm0-1v-1h-1v1h1zm0-1h1v-1h-1v1zm0-1v-1h-1v1h1zm0-1h1v-1h-1v1zm0-1v-1h-1v1h1zm0-1h1v-1h-1v1zm0-1v-1h-1v1h1zm0-1h1v-1h-1v1zm0-1v-1h-1v1h1zm0-1h1v-1h-1v1zm0-1v-1h-1v1h1zm0-1h1v-1h-1v1zm0-1v-1h-1v1h1zm1 0h1v-1h-1v1zm1 0v1h1v-1h-1zm1 0h1v-1h-1v1zm1 0v1h1v-1h-1zm1 0h1v-1h-1v1zm1 0v1h1v-1h-1zm0 1h-1v1h1v-1zm0 1v1h1v-1h-1zm0 1h-1v1h1v-1zm0 1v1h1v-1h-1zm0 1h-1v1h1v-1zm0 1v1h1v-1h-1zm0 1h-1v1h1v-1zm0 1v1h1v-1h-1zm0 1h-1v1h1v-1zm0 1v1h1v-1h-1zm0 1h-1v1h1v-1zm0 1v1h1v-1h-1zm0 1h-1v1h1v-1zm0 1v1h1v-1h-1zm-1 0h-1v1h1v-1zm-1 0v-1h-1v1h1zm-1 0h-1v1h1v-1zm-1 0v-1h-1v1h1zm0-1h1v-1h-1v1zm0-1v-1h-1v1h1zm0-1h1v-1h-1v1zm0-1v-1h-1v1h1zm0-1h1v-1h-1v1zm0-1v-1h-1v1h1zm0-1h1v-1h-1v1zm0-1v-1h-1v1h1zm0-1h1v-1h-1v1zm0-1v-1h-1v1h1zm0-1h1v-1h-1v1zm0-1v-1h-1v1h1zm1 0h1v-1h-1v1zm1 0v1h1v-1h-1zm0 1h-1v1h1v-1zm0 1v1h1v-1h-1zm0 1h-1v1h1v-1zm0 1v1h1v-1h-1zm0 1h-1v1h1v-1zm0 1v1h1v-1h-1zm0 1h-1v1h1v-1zm0 1v1h1v-1h-1zm0 1h-1v1h1v-1zm0 1v1h1v-1h-1z" color="#000000" enable-background="accumulate" fill="#fff" fill-rule="nonzero" opacity=".588"/></g><path id="mc" d="m369.72 125.5c-0.66073 0-1.1875 0.53614-1.1875 1.1875v30.625c0 0.0647 0.0211 0.12567 0.0313 0.1875h15.719c0.66073 0 1.1875-0.53615 1.1875-1.1875v-30.625c0-0.0647-0.0211-0.12568-0.0313-0.1875h-15.719z" color="#000000" enable-background="accumulate" fill-rule="nonzero" opacity=".2" stroke="#000" stroke-miterlimit="4" stroke-width="1.0356"/><g id="md" transform="translate(13 67)" enable-background="new"><g id="me" transform="matrix(1.041 0 0 1.0303 7.1167 -5.303)" stroke-miterlimit="4"><rect id="mf" x="327" y="60" width="23" height="32" rx="1.1457" ry="1.1411" color="#000000" enable-background="accumulate" fill="url(#b)" fill-rule="nonzero" stroke="url(#c)"/><rect id="mg" x="327.92" y="60.938" width="21.168" height="30.123" rx=".22264" ry=".22495" color="#000000" enable-background="accumulate" fill="none" stroke="#fff" stroke-width=".93079"/></g><rect id="mh" x="350" y="59" width="19" height="28" rx="0" ry="0" color="#000000" enable-background="accumulate" fill="url(#a)" fill-rule="nonzero"/></g><path id="mi" d="m364 126v1h1v-1h-1zm1 1v1h1v-1h-1zm1 0h1v-1h-1v1zm1 0v1h1v-1h-1zm1 0h1v-1h-1v1zm1 0v1h1v-1h-1zm1 0h1v-1h-1v1zm1 0v1h1v-1h-1zm1 0h1v-1h-1v1zm1 0v1h1v-1h-1zm1 0h1v-1h-1v1zm1 0v1h1v-1h-1zm1 0h1v-1h-1v1zm1 0v1h1v-1h-1zm1 0h1v-1h-1v1zm1 0v1h1v-1h-1zm1 0h1v-1h-1v1zm1 0v1h1v-1h-1zm0 1h-1v1h1v-1zm0 1v1h1v-1h-1zm0 1h-1v1h1v-1zm0 1v1h1v-1h-1zm0 1h-1v1h1v-1zm0 1v1h1v-1h-1zm0 1h-1v1h1v-1zm0 1v1h1v-1h-1zm0 1h-1v1h1v-1zm0 1v1h1v-1h-1zm0 1h-1v1h1v-1zm0 1v1h1v-1h-1zm0 1h-1v1h1v-1zm0 1v1h1v-1h-1zm0 1h-1v1h1v-1zm0 1v1h1v-1h-1zm0 1h-1v1h1v-1zm0 1v1h1v-1h-1zm0 1h-1v1h1v-1zm0 1v1h1v-1h-1zm0 1h-1v1h1v-1zm0 1v1h1v-1h-1zm0 1h-1v1h1v-1zm0 1v1h1v-1h-1zm0 1h-1v1h1v-1zm0 1v1h1v-1h-1zm-1 0h-1v1h1v-1zm-1 0v-1h-1v1h1zm-1 0h-1v1h1v-1zm-1 0v-1h-1v1h1zm-1 0h-1v1h1v-1zm-1 0v-1h-1v1h1zm-1 0h-1v1h1v-1zm-1 0v-1h-1v1h1zm-1 0h-1v1h1v-1zm-1 0v-1h-1v1h1zm-1 0h-1v1h1v-1zm-1 0v-1h-1v1h1zm-1 0h-1v1h1v-1zm-1 0v-1h-1v1h1zm-1 0h-1v1h1v-1zm-1 0v-1h-1v1h1zm0-1h1v-1h-1v1zm0-1v-1h-1v1h1zm0-1h1v-1h-1v1zm0-1v-1h-1v1h1zm0-1h1v-1h-1v1zm0-1v-1h-1v1h1zm0-1h1v-1h-1v1zm0-1v-1h-1v1h1zm0-1h1v-1h-1v1zm0-1v-1h-1v1h1zm0-1h1v-1h-1v1zm0-1v-1h-1v1h1zm0-1h1v-1h-1v1zm0-1v-1h-1v1h1zm0-1h1v-1h-1v1zm0-1v-1h-1v1h1zm0-1h1v-1h-1v1zm0-1v-1h-1v1h1zm0-1h1v-1h-1v1zm0-1v-1h-1v1h1zm0-1h1v-1h-1v1zm0-1v-1h-1v1h1zm0-1h1v-1h-1v1zm0-1v-1h-1v1h1zm1 0h1v-1h-1v1zm1 0v1h1v-1h-1zm1 0h1v-1h-1v1zm1 0v1h1v-1h-1zm1 0h1v-1h-1v1zm1 0v1h1v-1h-1zm1 0h1v-1h-1v1zm1 0v1h1v-1h-1zm1 0h1v-1h-1v1zm1 0v1h1v-1h-1zm1 0h1v-1h-1v1zm1 0v1h1v-1h-1zm1 0h1v-1h-1v1zm1 0v1h1v-1h-1zm0 1h-1v1h1v-1zm0 1v1h1v-1h-1zm0 1h-1v1h1v-1zm0 1v1h1v-1h-1zm0 1h-1v1h1v-1zm0 1v1h1v-1h-1zm0 1h-1v1h1v-1zm0 1v1h1v-1h-1zm0 1h-1v1h1v-1zm0 1v1h1v-1h-1zm0 1h-1v1h1v-1zm0 1v1h1v-1h-1zm0 1h-1v1h1v-1zm0 1v1h1v-1h-1zm0 1h-1v1h1v-1zm0 1v1h1v-1h-1zm0 1h-1v1h1v-1zm0 1v1h1v-1h-1zm0 1h-1v1h1v-1zm0 1v1h1v-1h-1zm0 1h-1v1h1v-1zm0 1v1h1v-1h-1zm-1 0h-1v1h1v-1zm-1 0v-1h-1v1h1zm-1 0h-1v1h1v-1zm-1 0v-1h-1v1h1zm-1 0h-1v1h1v-1zm-1 0v-1h-1v1h1zm-1 0h-1v1h1v-1zm-1 0v-1h-1v1h1zm-1 0h-1v1h1v-1zm-1 0v-1h-1v1h1zm-1 0h-1v1h1v-1zm-1 0v-1h-1v1h1zm0-1h1v-1h-1v1zm0-1v-1h-1v1h1zm0-1h1v-1h-1v1zm0-1v-1h-1v1h1zm0-1h1v-1h-1v1zm0-1v-1h-1v1h1zm0-1h1v-1h-1v1zm0-1v-1h-1v1h1zm0-1h1v-1h-1v1zm0-1v-1h-1v1h1zm0-1h1v-1h-1v1zm0-1v-1h-1v1h1zm0-1h1v-1h-1v1zm0-1v-1h-1v1h1zm0-1h1v-1h-1v1zm0-1v-1h-1v1h1zm0-1h1v-1h-1v1zm0-1v-1h-1v1h1zm0-1h1v-1h-1v1zm0-1v-1h-1v1h1zm1 0h1v-1h-1v1zm1 0v1h1v-1h-1zm1 0h1v-1h-1v1zm1 0v1h1v-1h-1zm1 0h1v-1h-1v1zm1 0v1h1v-1h-1zm1 0h1v-1h-1v1zm1 0v1h1v-1h-1zm1 0h1v-1h-1v1zm1 0v1h1v-1h-1zm0 1h-1v1h1v-1zm0 1v1h1v-1h-1zm0 1h-1v1h1v-1zm0 1v1h1v-1h-1zm0 1h-1v1h1v-1zm0 1v1h1v-1h-1zm0 1h-1v1h1v-1zm0 1v1h1v-1h-1zm0 1h-1v1h1v-1zm0 1v1h1v-1h-1zm0 1h-1v1h1v-1zm0 1v1h1v-1h-1zm0 1h-1v1h1v-1zm0 1v1h1v-1h-1zm0 1h-1v1h1v-1zm0 1v1h1v-1h-1zm0 1h-1v1h1v-1zm0 1v1h1v-1h-1zm-1 0h-1v1h1v-1zm-1 0v-1h-1v1h1zm-1 0h-1v1h1v-1zm-1 0v-1h-1v1h1zm-1 0h-1v1h1v-1zm-1 0v-1h-1v1h1zm-1 0h-1v1h1v-1zm-1 0v-1h-1v1h1zm0-1h1v-1h-1v1zm0-1v-1h-1v1h1zm0-1h1v-1h-1v1zm0-1v-1h-1v1h1zm0-1h1v-1h-1v1zm0-1v-1h-1v1h1zm0-1h1v-1h-1v1zm0-1v-1h-1v1h1zm0-1h1v-1h-1v1zm0-1v-1h-1v1h1zm0-1h1v-1h-1v1zm0-1v-1h-1v1h1zm0-1h1v-1h-1v1zm0-1v-1h-1v1h1zm0-1h1v-1h-1v1zm0-1v-1h-1v1h1zm1 0h1v-1h-1v1zm1 0v1h1v-1h-1zm1 0h1v-1h-1v1zm1 0v1h1v-1h-1zm1 0h1v-1h-1v1zm1 0v1h1v-1h-1zm0 1h-1v1h1v-1zm0 1v1h1v-1h-1zm0 1h-1v1h1v-1zm0 1v1h1v-1h-1zm0 1h-1v1h1v-1zm0 1v1h1v-1h-1zm0 1h-1v1h1v-1zm0 1v1h1v-1h-1zm0 1h-1v1h1v-1zm0 1v1h1v-1h-1zm0 1h-1v1h1v-1zm0 1v1h1v-1h-1zm0 1h-1v1h1v-1zm0 1v1h1v-1h-1zm-1 0h-1v1h1v-1zm-1 0v-1h-1v1h1zm-1 0h-1v1h1v-1zm-1 0v-1h-1v1h1zm0-1h1v-1h-1v1zm0-1v-1h-1v1h1zm0-1h1v-1h-1v1zm0-1v-1h-1v1h1zm0-1h1v-1h-1v1zm0-1v-1h-1v1h1zm0-1h1v-1h-1v1zm0-1v-1h-1v1h1zm0-1h1v-1h-1v1zm0-1v-1h-1v1h1zm0-1h1v-1h-1v1zm0-1v-1h-1v1h1zm1 0h1v-1h-1v1zm1 0v1h1v-1h-1zm0 1h-1v1h1v-1zm0 1v1h1v-1h-1zm0 1h-1v1h1v-1zm0 1v1h1v-1h-1zm0 1h-1v1h1v-1zm0 1v1h1v-1h-1zm0 1h-1v1h1v-1zm0 1v1h1v-1h-1zm0 1h-1v1h1v-1zm0 1v1h1v-1h-1z" color="#000000" enable-background="accumulate" fill="#fff" fill-rule="nonzero" opacity=".588"/><path id="mj" d="m361.53 128.5v28.812c0 0.65135 0.5281 1.2294 1.1875 1.1875h15.75v-28.812c0-0.65136-0.52635-1.1875-1.1875-1.1875z" color="#000000" enable-background="accumulate" fill-rule="nonzero" opacity=".2" stroke="#000" stroke-miterlimit="4" stroke-width="1.036"/><g id="mk" transform="matrix(1.0417 0 0 1.0303 44.146 64.667)" enable-background="new" stroke-miterlimit="4"><rect id="ml" x="297" y="61" width="23" height="32" rx="1.1457" ry="1.1411" color="#000000" enable-background="accumulate" fill="url(#g)" fill-rule="nonzero" stroke="url(#j)"/><rect id="mm" x="297.92" y="61.938" width="21.155" height="30.123" rx=".2225" ry=".22495" color="#000000" enable-background="accumulate" fill="none" stroke="#fff" stroke-width=".9305"/></g><path id="mn" d="m374.25 153c0.41421 0 0.75-0.27996 0.75-0.62532 0-0.73067-1.2188-0.92723-1.5-1.7717-0.28125 0.8445-1.5 1.0411-1.5 1.7717 0 0.34536 0.33579 0.62532 0.75 0.62532s0.75-0.27996 0.75-0.62532c0 0.34536 0.33579 0.62532 0.75 0.62532z" color="#000000" enable-background="accumulate" fill="#ef2929" fill-rule="nonzero"/><path id="mo" d="m357.5 130c-0.831 0-1.5 0.669-1.5 1.5v0.5 1 1h1v-1h1v1h1v-1-1-0.5c0-0.831-0.669-1.5-1.5-1.5zm0 1c0.277 0 0.5 0.223 0.5 0.5v0.5h-1v-0.5c0-0.277 0.223-0.5 0.5-0.5z" color="#000000" enable-background="accumulate" fill="#ef2929" fill-rule="nonzero" opacity=".7"/><path id="mp" d="m373.5 158c-0.831 0-1.5-0.669-1.5-1.5v-0.5-1-1h1v1h1v-1h1v1 1 0.5c0 0.831-0.669 1.5-1.5 1.5zm0-1c0.277 0 0.5-0.223 0.5-0.5v-0.5h-1v0.5c0 0.277 0.223 0.5 0.5 0.5z" color="#000000" enable-background="accumulate" fill="#ef2929" fill-rule="nonzero" opacity=".7"/><path id="mq" d="m373.5 130c-0.831 0-1.5 0.669-1.5 1.5v0.5 1 1h1v-1h1v1h1v-1-1-0.5c0-0.831-0.669-1.5-1.5-1.5zm0 1c0.277 0 0.5 0.223 0.5 0.5v0.5h-1v-0.5c0-0.277 0.223-0.5 0.5-0.5z" color="#000000" enable-background="accumulate" fill="#ef2929" fill-rule="nonzero" opacity=".7"/><path id="mr" d="m358.25 153c0.41421 0 0.75-0.27996 0.75-0.62532 0-0.73067-1.2188-0.92723-1.5-1.7717-0.28125 0.8445-1.5 1.0411-1.5 1.7717 0 0.34536 0.33579 0.62532 0.75 0.62532s0.75-0.27996 0.75-0.62532c0 0.34536 0.33579 0.62532 0.75 0.62532z" color="#000000" enable-background="accumulate" fill="#ef2929" fill-rule="nonzero"/><path id="ms" d="m357.5 158c-0.831 0-1.5-0.669-1.5-1.5v-0.5-1-1h1v1h1v-1h1v1 1 0.5c0 0.831-0.669 1.5-1.5 1.5zm0-1c0.277 0 0.5-0.223 0.5-0.5v-0.5h-1v0.5c0 0.277 0.223 0.5 0.5 0.5z" color="#000000" enable-background="accumulate" fill="#ef2929" fill-rule="nonzero" opacity=".7"/><path id="mt" d="m356.75 135c-0.41421 0-0.75 0.27996-0.75 0.62532 0 0.73067 1.2188 0.92723 1.5 1.7717 0.28125-0.84449 1.5-1.0411 1.5-1.7717 0-0.34536-0.33579-0.62532-0.75-0.62532s-0.75 0.27996-0.75 0.62532c0-0.34536-0.33579-0.62532-0.75-0.62532z" color="#000000" enable-background="accumulate" fill="#ef2929" fill-rule="nonzero"/><path id="mu" d="m363.75 140c-0.96649 0-1.75 0.77189-1.75 1.7241 0 2.0146 2.8438 2.5565 3.5 4.8849 0.65624-2.3284 3.5-2.8703 3.5-4.8849 0-0.95218-0.78351-1.7241-1.75-1.7241-0.96651 0-1.75 0.77189-1.75 1.7241 0-0.95218-0.7835-1.7241-1.75-1.7241z" color="#000000" enable-background="accumulate" fill="#ef2929" fill-rule="nonzero"/><path id="mv" d="m372.75 135c-0.41421 0-0.75 0.27996-0.75 0.62532 0 0.73067 1.2188 0.92723 1.5 1.7717 0.28125-0.84449 1.5-1.0411 1.5-1.7717 0-0.34536-0.33579-0.62532-0.75-0.62532s-0.75 0.27996-0.75 0.62532c0-0.34536-0.33579-0.62532-0.75-0.62532z" color="#000000" enable-background="accumulate" fill="#ef2929" fill-rule="nonzero"/></g><g id="mw"><rect id="mx" transform="matrix(.86603 .5 -.5 .86603 -8 -1)" x="179.36" y="-37.902" width="116" height="162.03" rx="5.7782" ry="5.7782" color="#000000" enable-background="accumulate" fill-rule="nonzero" filter="url(#bt)"/><rect id="my" transform="matrix(.96593 .25882 -.25882 .96593 -8 -1)" x="118.44" y="24.945" width="116" height="162.03" rx="5.7782" ry="5.7782" color="#000000" enable-background="accumulate" fill-rule="nonzero" filter="url(#bs)"/><rect id="mz" x="38" y="71" width="116" height="162.03" rx="5.7782" ry="5.7782" color="#000000" enable-background="accumulate" fill-rule="nonzero" filter="url(#bu)"/><g id="na" transform="matrix(.86603 .5 -.5 .86603 421.75 120.37)" enable-background="new"><g id="nb" transform="translate(-300)" clip-path="url(#bv)" enable-background="new"><rect id="nc" x="46" y="71" width="116" height="162.03" rx="5.7782" ry="5.7782" color="#000000" enable-background="accumulate" fill="url(#h)" fill-rule="nonzero"/><rect id="nd" x="46" y="71" width="116" height="162.03" rx="5.7782" ry="5.7782" color="#000000" enable-background="accumulate" fill="none" filter="url(#bn)" stroke="#888a85" stroke-miterlimit="4"/><rect id="ne" x="47.517" y="72.502" width="112.96" height="159" rx="4.95" ry="4.9239" color="#000000" enable-background="accumulate" fill="none" stroke="#fff" stroke-miterlimit="4" stroke-width=".99692"/></g><use id="nf" transform="translate(-19.791 -20.105)" width="400" height="300" enable-background="new" xlink:href="#k"/></g><path id="ng" transform="translate(-7.8686e-7 2.0295e-6)" d="m711.97 228c-1.9079 1e-5 -3.4969 0.75848-4.4688 1.7188v1.7812h9v-1.75c-0.96562-0.98703-2.5909-1.75-4.5312-1.75z" enable-background="accumulate" fill="none" opacity=".35" stroke="#fff" stroke-linejoin="miter" stroke-miterlimit="4"/><rect id="nh" transform="matrix(.96593 .25882 -.25882 .96593 -8 -1)" x="119.14" y="23.721" width="116" height="162.03" rx="5.7782" ry="5.7782" color="#000000" enable-background="accumulate" fill-rule="nonzero" filter="url(#br)" opacity=".48767"/><g id="ni" transform="matrix(.96593 .25882 -.25882 .96593 363.67 49.908)"><g id="nj" transform="translate(-300)" clip-path="url(#bw)" enable-background="new"><rect id="nk" x="46" y="71" width="116" height="162.03" rx="5.7782" ry="5.7782" color="#000000" enable-background="accumulate" fill="url(#h)" fill-rule="nonzero"/><rect id="nl" x="46" y="71" width="116" height="162.03" rx="5.7782" ry="5.7782" color="#000000" enable-background="accumulate" fill="none" filter="url(#bo)" stroke="#888a85" stroke-miterlimit="4"/><rect id="nm" x="47.517" y="72.502" width="112.96" height="159" rx="4.95" ry="4.9239" color="#000000" enable-background="accumulate" fill="none" stroke="#fff" stroke-miterlimit="4" stroke-width=".99692"/></g></g><use id="nn" transform="matrix(.96593 .25882 -.25882 .96593 349.62 25.429)" width="400" height="300" xlink:href="#k"/></g></g><rect id="no" x="39" y="70" width="116" height="162.03" rx="5.7782" ry="5.7782" color="#000000" enable-background="accumulate" fill-rule="nonzero" filter="url(#bq)" opacity=".42466"/><g id="np" transform="translate(-8,-1)" clip-path="url(#bx)" enable-background="new"><rect id="nq" x="46" y="71" width="116" height="162.03" rx="5.7782" ry="5.7782" color="#000000" enable-background="accumulate" fill="url(#t)" fill-rule="nonzero"/><rect id="nr" x="46" y="71" width="116" height="162.03" rx="5.7782" ry="5.7782" color="#000000" enable-background="accumulate" fill="none" filter="url(#bp)" stroke="#888a85" stroke-miterlimit="4"/><path id="ns" d="m96.346 137.35c-4.227 0-7.6537 3.4267-7.6537 7.6537 0 8.9432 12.437 11.349 15.307 21.685 2.8701-10.336 15.307-12.742 15.307-21.685 0-4.227-3.4267-7.6537-7.6537-7.6537-4.227 0-7.6537 3.4267-7.6537 7.6537 0-4.227-3.4267-7.6537-7.6537-7.6537z" color="#000000" enable-background="accumulate" fill="#ef2929" fill-rule="nonzero"/><rect id="nt" x="47.517" y="72.502" width="112.96" height="159" rx="4.95" ry="4.9239" color="#000000" enable-background="accumulate" fill="none" stroke="#fff" stroke-miterlimit="4" stroke-width=".99692"/><g id="nu"><g id="nv" transform="matrix(1.0625 0 0 1.0625 -2.75 -5.3125)" enable-background="new"><path id="nw" d="m55.826 101c-2.3052 0-4.1739 1.8687-4.1739 4.1739 0 4.8772 6.7826 6.1892 8.3478 11.826 1.5652-5.6369 8.3478-6.9489 8.3478-11.826 0-2.3052-1.8687-4.1739-4.1739-4.1739-2.3052 0-4.1739 1.8687-4.1739 4.1739 0-2.3052-1.8687-4.1739-4.1739-4.1739z" color="#000000" enable-background="accumulate" fill="#ef2929" fill-rule="nonzero"/></g><path id="nx" d="m59.531 77-6 18.281-1.5938 0.28125v1.4375h5.7188v-1.4375l-1.6875-0.21875-0.25-0.375 1.25-3.9688h6.4062l1.3125 4-0.1875 0.375-1.6562 0.1875v1.4375h7.1562v-1.4375l-1.5625-0.3125-6.125-18.25h-2.7812zm0.59375 4.0312 2.5938 7.9688h-5.125l2.5312-7.9688z" enable-background="new" fill="#ef2929"/></g><g id="ny" transform="matrix(-1 0 0 -1 207.94 303)" enable-background="new"><g id="nz" transform="matrix(1.0625 0 0 1.0625 -2.75 -5.3125)" enable-background="new"><path id="oa" d="m55.826 101c-2.3052 0-4.1739 1.8687-4.1739 4.1739 0 4.8772 6.7826 6.1892 8.3478 11.826 1.5652-5.6369 8.3478-6.9489 8.3478-11.826 0-2.3052-1.8687-4.1739-4.1739-4.1739-2.3052 0-4.1739 1.8687-4.1739 4.1739 0-2.3052-1.8687-4.1739-4.1739-4.1739z" color="#000000" enable-background="accumulate" fill="#ef2929" fill-rule="nonzero"/></g><path id="ob" d="m59.531 77-6 18.281-1.5938 0.28125v1.4375h5.7188v-1.4375l-1.6875-0.21875-0.25-0.375 1.25-3.9688h6.4062l1.3125 4-0.1875 0.375-1.6562 0.1875v1.4375h7.1562v-1.4375l-1.5625-0.3125-6.125-18.25h-2.7812zm0.59375 4.0312 2.5938 7.9688h-5.125l2.5312-7.9688z" enable-background="new" fill="#ef2929"/></g><g id="oc" transform="translate(86)" enable-background="new"><g id="od" transform="matrix(1.0625 0 0 1.0625 -2.75 -5.3125)" enable-background="new"><path id="oe" d="m55.826 101c-2.3052 0-4.1739 1.8687-4.1739 4.1739 0 4.8772 6.7826 6.1892 8.3478 11.826 1.5652-5.6369 8.3478-6.9489 8.3478-11.826 0-2.3052-1.8687-4.1739-4.1739-4.1739-2.3052 0-4.1739 1.8687-4.1739 4.1739 0-2.3052-1.8687-4.1739-4.1739-4.1739z" color="#000000" enable-background="accumulate" fill="#ef2929" fill-rule="nonzero"/></g><path id="of" d="m59.531 77-6 18.281-1.5938 0.28125v1.4375h5.7188v-1.4375l-1.6875-0.21875-0.25-0.375 1.25-3.9688h6.4062l1.3125 4-0.1875 0.375-1.6562 0.1875v1.4375h7.1562v-1.4375l-1.5625-0.3125-6.125-18.25h-2.7812zm0.59375 4.0312 2.5938 7.9688h-5.125l2.5312-7.9688z" enable-background="new" fill="#ef2929"/></g><g id="og" transform="matrix(-1 0 0 -1 121.94 303)" enable-background="new"><g id="oh" transform="matrix(1.0625 0 0 1.0625 -2.75 -5.3125)" enable-background="new"><path id="oi" d="m55.826 101c-2.3052 0-4.1739 1.8687-4.1739 4.1739 0 4.8772 6.7826 6.1892 8.3478 11.826 1.5652-5.6369 8.3478-6.9489 8.3478-11.826 0-2.3052-1.8687-4.1739-4.1739-4.1739-2.3052 0-4.1739 1.8687-4.1739 4.1739 0-2.3052-1.8687-4.1739-4.1739-4.1739z" color="#000000" enable-background="accumulate" fill="#ef2929" fill-rule="nonzero"/></g><path id="oj" d="m59.531 77-6 18.281-1.5938 0.28125v1.4375h5.7188v-1.4375l-1.6875-0.21875-0.25-0.375 1.25-3.9688h6.4062l1.3125 4-0.1875 0.375-1.6562 0.1875v1.4375h7.1562v-1.4375l-1.5625-0.3125-6.125-18.25h-2.7812zm0.59375 4.0312 2.5938 7.9688h-5.125l2.5312-7.9688z" enable-background="new" fill="#ef2929"/></g></g></svg>
