<?xml version="1.0" encoding="UTF-8"?>
<svg id="u" sodipodi:docbase="/home/hbons/Desktop/Tango" sodipodi:docname="gnome-network-utils.svg" sodipodi:version="0.32" viewBox="0 0 48 48" xmlns="http://www.w3.org/2000/svg" xmlns:sodipodi="http://inkscape.sourceforge.net/DTD/sodipodi-0.dtd" xmlns:xlink="http://www.w3.org/1999/xlink"><defs id="v"><linearGradient id="b"><stop id="w" stop-color="#5c3566" offset="0"/><stop id="x" stop-color="#5c3566" stop-opacity="0" offset="1"/></linearGradient><linearGradient id="c"><stop id="y" stop-color="#ad7fa8" offset="0"/><stop id="z" stop-color="#ad7fa8" stop-opacity="0" offset="1"/></linearGradient><linearGradient id="d"><stop id="aa" stop-color="#729fcf" offset="0"/><stop id="ab" stop-color="#729fcf" stop-opacity="0" offset="1"/></linearGradient><linearGradient id="e"><stop id="ac" stop-color="#204a87" offset="0"/><stop id="ad" stop-color="#204a87" stop-opacity="0" offset="1"/></linearGradient><radialGradient id="k" cx="24.5" cy="20.063" r="17.469" gradientTransform="matrix(1.5194 6.9597e-18 -6.7604e-18 1.4759 -12.725 -10.273)" gradientUnits="userSpaceOnUse"><stop id="ae" stop-color="#eeeeec" offset="0"/><stop id="af" stop-color="#eeeeec" stop-opacity="0" offset="1"/></radialGradient><radialGradient id="j" cx="24.5" cy="9.5106" r="14.44" gradientTransform="matrix(.97927 6.0314e-17 -3.1068e-17 .50443 .50792 9.0591)" gradientUnits="userSpaceOnUse"><stop id="ag" stop-color="#eeeeec" offset="0"/><stop id="ah" stop-color="#eeeeec" stop-opacity="0" offset="1"/></radialGradient><radialGradient id="i" cx="15.794" cy="8.3294" r="14.5" gradientTransform="matrix(2.4494 3.0288e-17 -1.5143e-17 1.2495 -26.688 1.9809)" gradientUnits="userSpaceOnUse"><stop id="ai" stop-color="#eeeeec" offset="0"/><stop id="aj" stop-color="#eeeeec" stop-opacity="0" offset="1"/></radialGradient><radialGradient id="h" cx="24.5" cy="17.5" r="14.5" gradientTransform="matrix(2.3329 1.036e-15 -5.3587e-16 1.2067 -32.656 -3.6168)" gradientUnits="userSpaceOnUse"><stop id="ak" stop-color="#fff" offset="0"/><stop id="al" stop-color="#fff" stop-opacity="0" offset="1"/></radialGradient><linearGradient id="l" x1="1.2813" x2="23.979" y1="46.893" y2="24.195" gradientTransform="translate(0 .03125)" gradientUnits="userSpaceOnUse"><stop id="am" stop-color="#888a85" offset="0"/><stop id="an" stop-color="#888a85" stop-opacity="0" offset="1"/></linearGradient><linearGradient id="t" x1="21.508" x2="21.508" y1="43.467" y2="47.465" gradientUnits="userSpaceOnUse" xlink:href="#e"/><linearGradient id="s" x1="21.5" x2="21.5" y1="43.467" y2="47.533" gradientUnits="userSpaceOnUse" xlink:href="#d"/><linearGradient id="r" x1="28.589" x2="28.589" y1="42.961" y2="48.851" gradientTransform="matrix(.77949 0 0 .69777 6.2154 13.476)" gradientUnits="userSpaceOnUse" xlink:href="#c"/><linearGradient id="q" x1="28.695" x2="28.695" y1="43.445" y2="47.468" gradientTransform="matrix(1.1024 0 0 1 -3.1353 0)" gradientUnits="userSpaceOnUse" xlink:href="#b"/><linearGradient id="p" x1="21.5" x2="21.5" y1="43.467" y2="47.533" gradientTransform="translate(0,-48)" gradientUnits="userSpaceOnUse" xlink:href="#d"/><linearGradient id="o" x1="21.508" x2="21.508" y1="43.467" y2="47.465" gradientTransform="translate(0,-48)" gradientUnits="userSpaceOnUse" xlink:href="#e"/><linearGradient id="n" x1="28.589" x2="28.589" y1="42.961" y2="48.851" gradientTransform="matrix(.77949 0 0 .69777 6.2154 -34.524)" gradientUnits="userSpaceOnUse" xlink:href="#c"/><linearGradient id="m" x1="28.695" x2="28.695" y1="43.445" y2="47.468" gradientTransform="matrix(1.1024 0 0 1 -3.1353 -48)" gradientUnits="userSpaceOnUse" xlink:href="#b"/></defs><sodipodi:namedview id="ao" fill="#888a85" bordercolor="#666666" borderopacity="1.0" pagecolor="#ffffff" showgrid="true" showguides="true"/><g id="ap"><rect id="aq" transform="scale(1,-1)" x="20" y="-6" width="3" height="6" fill="url(#p)" fill-rule="evenodd"/><rect id="ar" transform="scale(1,-1)" x="19.517" y="-6.5044" width="3.9812" height="7.008" fill="none" stroke="url(#o)"/><rect id="as" transform="scale(1,-1)" x="27" y="-5.567" width="3" height="5.567" fill="url(#n)" fill-rule="evenodd"/><rect id="at" transform="scale(1,-1)" x="26.505" y="-6.4782" width="3.9857" height="7.9782" fill="none" stroke="url(#m)"/><rect id="au" x="20" y="42" width="3" height="6" fill="url(#s)" fill-rule="evenodd"/><rect id="av" x="19.517" y="41.496" width="3.9812" height="7.008" fill="none" stroke="url(#t)"/><rect id="aw" x="27" y="42.433" width="3" height="5.567" fill="url(#r)" fill-rule="evenodd"/><rect id="ax" x="26.505" y="41.522" width="3.9857" height="7.9782" fill="none" stroke="url(#q)"/><rect id="ay" x="25.435" y="37.531" width="6.1281" height="5" rx="2.0714" ry="2.0714" fill="#eeeeec" fill-rule="evenodd" stroke="#555753"/><rect id="az" x="18.372" y="37.531" width="6.1281" height="5" rx="2.0714" ry="2.0714" fill="#eeeeec" fill-rule="evenodd" stroke="#555753"/><rect id="ba" x="25.5" y="5.5312" width="6.1281" height="5" rx="2.0714" ry="2.0714" fill="#eeeeec" fill-rule="evenodd" stroke="#555753"/><rect id="bb" x="18.437" y="5.5312" width="6.1281" height="5" rx="2.0714" ry="2.0714" fill="#eeeeec" fill-rule="evenodd" stroke="#555753"/><path id="g" d="m9.5 7.5013h30c1.662 0 3 1.2626 3 2.8309v27.368c0 1.5683-1.338 2.8309-3 2.8309h-30c-1.662 0-3-1.2626-3-2.8309v-27.368c0-1.5683 1.338-2.8309 3-2.8309z" fill="#d3d7cf" fill-rule="evenodd" stroke="#555753"/><path id="bc" d="m9.5 7.5c-1.1349 0-1.9688 0.83017-1.9688 1.8125v27.344c0 0.98234 0.83385 1.8125 1.9688 1.8125h30c1.1349 0 1.9688-0.83016 1.9688-1.8125v-27.344c0-0.98234-0.83385-1.8125-1.9688-1.8125h-30z" fill="url(#k)" fill-rule="evenodd" stroke="#fff" xlink:href="#g" sodipodi:type="inkscape:offset"/><path id="f" d="m10.572 10.538h27.856c0.59358 0 1.0714 0.47786 1.0714 1.0714v13.85c0 0.59358-0.47786 1.0714-1.0714 1.0714h-27.856c-0.59357 0-1.0714-0.47786-1.0714-1.0714v-13.85c0-0.59358 0.47786-1.0714 1.0714-1.0714z" fill="#fcaf3e" fill-rule="evenodd" stroke="#ce5c00"/><path id="bd" d="m10.562 10.5c-0.034137 0-0.0625 0.02466-0.0625 0.09375v13.844c0 0.069091-0.006589 0.0625 0.0625 0.0625h27.875c0.069091 0 0.0625 0.006593 0.0625-0.0625v-13.844c0-0.06909-0.028364-0.09375-0.0625-0.09375h-27.875z" fill="url(#j)" fill-rule="evenodd" opacity=".5" stroke="url(#h)" xlink:href="#f" sodipodi:type="inkscape:offset"/><rect id="be" transform="matrix(.86602 .5 -.5 .86602 0 0)" x="45.847" y="9.9922" width="1.9661" height="5" rx=".98305" ry=".98305" fill="#d4d8d0" fill-rule="evenodd" stroke="#888a85"/><path id="a" d="m38.56 32.563c0 1.6732-1.3574 3.0312-3.03 3.0312-1.6726 0-3.03-1.358-3.03-3.0312 0-1.6732 1.3574-3.0312 3.03-3.0312 1.6726 0 3.03 1.358 3.03 3.0312z" fill="#d3d7cf" fill-rule="evenodd" stroke="#888a85"/><path id="bf" d="m35.531 29.562c-1.105 0-1.9688 0.86314-1.9688 1.9688 0 1.1056 0.86373 1.9687 1.9688 1.9688 1.105 0 1.9687-0.86313 1.9688-1.9688 0-1.1056-0.86374-1.9688-1.9688-1.9688z" fill="#d3d7cf" fill-rule="evenodd" opacity=".6" stroke="#fff" xlink:href="#a" sodipodi:type="inkscape:offset"/><path id="bg" d="m10 11.031h29c-8.907 8.907-18.882 4.8824-29 15v-15z" fill="url(#i)" fill-rule="evenodd" opacity=".5" sodipodi:nodetypes="cccc"/><path id="bh" d="m13 14.031v1 2h-3v1h3 1v-3h1v5 1h3v-1-2h2 3 1v-3h1v5 1h3v-1-2h2 2 1v-3h1v5 1h3v-1-2h2v-1h-3v1 2h-1v-5-1h-3v1 2h-2-3v1 2h-1v-5-1h-3v1 2h-3-3v1 2h-1v-5-1h-3z" fill="#eeeeec" fill-rule="evenodd" opacity=".9"/><rect id="bi" transform="matrix(.86602 .5 -.5 .86602 0 0)" x="38.47" y="10.32" width="1.9661" height="5" rx=".98305" ry=".98305" fill="#d4d8d0" fill-rule="evenodd" stroke="#888a85"/><path id="bj" d="m29.56 32.563c0 1.6732-1.3574 3.0312-3.03 3.0312-1.6726 0-3.03-1.358-3.03-3.0312 0-1.6732 1.3574-3.0312 3.03-3.0312 1.6726 0 3.03 1.358 3.03 3.0312z" fill="#d3d7cf" fill-rule="evenodd" stroke="#888a85"/><path id="bk" transform="translate(-9 -5.9605e-8)" d="m35.531 29.562c-1.105 0-1.9688 0.86314-1.9688 1.9688 0 1.1056 0.86373 1.9687 1.9688 1.9688 1.105 0 1.9687-0.86313 1.9688-1.9688 0-1.1056-0.86374-1.9688-1.9688-1.9688z" fill="#d3d7cf" fill-rule="evenodd" opacity=".6" stroke="#fff" xlink:href="#a" sodipodi:type="inkscape:offset"/><rect id="bl" x="36" y="24.031" width="1" height="1" fill="#eeeeec" fill-rule="evenodd"/><rect id="bm" x="34" y="23.031" width="1" height="2" fill="#eeeeec" fill-rule="evenodd"/><rect id="bn" x="32" y="22.031" width="1" height="3" fill="#eeeeec" fill-rule="evenodd"/><rect id="bo" x="30" y="23.031" width="1" height="2" fill="#eeeeec" fill-rule="evenodd"/><rect id="bp" x="28" y="24.031" width="1" height="1" fill="#eeeeec" fill-rule="evenodd"/><path id="bq" d="m10 28.031v1 8 1h10v-1-8-1h-10zm1 1h2v2h-2v-2zm3 0h2v2h-2v-2zm3 0h2v2h-2v-2zm-6 3h2v2h-2v-2zm3 0h2v2h-2v-2zm3 0h2v2h-2v-2zm-6 3h2v2h-2v-2zm3 0h2v2h-2v-2zm3 0h2v2h-2v-2z" fill="url(#l)" fill-rule="evenodd"/></g></svg>
