<?xml version="1.0" encoding="UTF-8"?>
<svg version="1.0" viewBox="0 0 128 128" xmlns="http://www.w3.org/2000/svg" xmlns:xlink="http://www.w3.org/1999/xlink"><defs><linearGradient id="f" x1="32" x2="96" y1="236" y2="236" gradientTransform="translate(172 -300)" gradientUnits="userSpaceOnUse"><stop stop-color="#d5d3cf" offset="0"/><stop stop-color="#f6f5f4" offset="1"/></linearGradient><linearGradient id="d" x1="64" x2="64" y1="262.5" y2="232" gradientUnits="userSpaceOnUse"><stop stop-color="#9a9996" offset="0"/><stop stop-color="#77767b" offset="1"/></linearGradient><radialGradient id="e" cx="-244" cy="-76" r="32" gradientTransform="translate(-27.533 -7.4667) scale(.88333)" gradientUnits="userSpaceOnUse"><stop stop-color="#d5d3cf" offset="0"/><stop stop-color="#949390" offset="1"/></radialGradient></defs><g transform="translate(0 -172)"><g transform="translate(140 2)" fill="#77767b"><rect x="-88" y="176" width="24" height="24" rx="8" ry="8"/><rect x="-88" y="272" width="24" height="24" rx="8" ry="8"/><rect transform="rotate(-45)" x="-232.62" y="53.137" width="24" height="24" rx="8" ry="8"/><rect transform="rotate(-45)" x="-232.62" y="149.14" width="24" height="24" rx="8" ry="8"/><rect transform="rotate(-90)" x="-248" y="-136" width="24" height="24" rx="8" ry="8"/><rect transform="rotate(-90)" x="-248" y="-40" width="24" height="24" rx="8" ry="8"/><rect transform="rotate(225)" x="-125.14" y="-280.62" width="24" height="24" rx="8" ry="8"/><rect transform="rotate(225)" x="-125.14" y="-184.62" width="24" height="24" rx="8" ry="8"/></g><g transform="translate(140)" fill="#f6f5f4"><rect x="-88" y="176" width="24" height="24" rx="8" ry="8"/><rect x="-88" y="272" width="24" height="24" rx="8" ry="8"/><rect transform="rotate(-45)" x="-232.62" y="53.137" width="24" height="24" rx="8" ry="8"/><rect transform="rotate(-45)" x="-232.62" y="149.14" width="24" height="24" rx="8" ry="8"/><rect transform="rotate(-90)" x="-248" y="-136" width="24" height="24" rx="8" ry="8"/><rect transform="rotate(-90)" x="-248" y="-40" width="24" height="24" rx="8" ry="8"/><rect transform="rotate(225)" x="-125.14" y="-280.62" width="24" height="24" rx="8" ry="8"/><rect transform="rotate(225)" x="-125.14" y="-184.62" width="24" height="24" rx="8" ry="8"/></g><ellipse cx="64" cy="238" rx="36" ry="36" fill="none" stroke="url(#d)" stroke-width="24"/><ellipse cx="64" cy="236" rx="38" ry="38" fill="none" stroke="#f6f5f4" stroke-width="20"/><circle transform="matrix(0 -1 -1 0 0 0)" cx="-236" cy="-64" r="26.5" fill="none" stroke="url(#e)" stroke-linecap="square" stroke-linejoin="round" stroke-width="5"/><circle transform="rotate(90)" cx="236" cy="-64" r="32" fill="none" stroke="url(#f)" stroke-linecap="square" stroke-linejoin="round" stroke-width="8"/></g></svg>
