<?xml version="1.0" encoding="UTF-8"?>
<svg id="p" viewBox="0 0 48 48" xmlns="http://www.w3.org/2000/svg" xmlns:xlink="http://www.w3.org/1999/xlink"><defs id="q"><linearGradient id="l" x1="13.788" x2="13.788" y1="5.9659" y2="17.047" gradientUnits="userSpaceOnUse"><stop id="r" stop-color="#fff" offset="0"/><stop id="s" stop-color="#fff" stop-opacity="0" offset="1"/></linearGradient><linearGradient id="m" x1="13.961" x2="13.961" y1="4.5501" y2="17.559" gradientTransform="matrix(1.398 0 0 1.4163 91.719 54.999)" gradientUnits="userSpaceOnUse"><stop id="t" stop-color="#a7cc5c" offset="0"/><stop id="u" stop-color="#789e2d" offset="1"/></linearGradient><linearGradient id="i" x1="6.0858" x2="9.0909" y1="7.1111" y2="15.563" gradientTransform="matrix(1.0608 0 0 1.0232 99.714 59.371)" gradientUnits="userSpaceOnUse"><stop id="v" stop-opacity=".35294" offset="0"/><stop id="w" stop-color="#fff" offset="1"/></linearGradient><linearGradient id="n" x1="-32.441" x2="-32.441" y1="9.2811" y2="36.092" gradientUnits="userSpaceOnUse"><stop id="x" stop-color="#fff" offset="0"/><stop id="y" stop-color="#fff" stop-opacity=".2" offset="1"/></linearGradient><linearGradient id="h" x1="-32.441" x2="-32.441" y1="9.4367" y2="35.116" gradientUnits="userSpaceOnUse"><stop id="z" stop-color="#888a85" offset="0"/><stop id="aa" stop-color="#555753" offset="1"/></linearGradient><linearGradient id="o" x1="-32.441" x2="-32.441" y1="19.973" y2="35.936" gradientUnits="userSpaceOnUse"><stop id="ab" stop-color="#eeeeec" offset="0"/><stop id="ac" stop-color="#9d9e9a" offset="1"/></linearGradient><radialGradient id="g" cx="6.7027" cy="73.616" r="7.2284" gradientTransform="scale(1.9022 .5257)" gradientUnits="userSpaceOnUse"><stop id="ad" offset="0"/><stop id="ae" stop-opacity="0" offset="1"/></radialGradient><linearGradient id="j" x1="12.872" x2="12.872" y1="5.0561" y2="18.912" gradientTransform="matrix(1.6478 0 0 1.5563 -2.2662 3.0165)" gradientUnits="userSpaceOnUse"><stop id="af" stop-color="#729fcf" offset="0"/><stop id="ag" stop-color="#3465a4" offset="1"/></linearGradient><radialGradient id="c" cx="33.967" cy="35.737" r="86.708" gradientTransform="matrix(.76445 0 0 .83906 -.51514 1.5608)" gradientUnits="userSpaceOnUse" xlink:href="#b"/><linearGradient id="b"><stop id="ah" stop-color="#828282" offset="0"/><stop id="ai" stop-color="#434343" offset="1"/></linearGradient><radialGradient id="d" cx="33.967" cy="35.737" r="86.708" gradientTransform="matrix(.75702 0 0 .83962 -1.6832 1.5588)" gradientUnits="userSpaceOnUse" xlink:href="#b"/><radialGradient id="e" cx="605.71" cy="486.65" r="117.14" gradientTransform="matrix(.047724 0 0 .02325 .76096 25.481)" gradientUnits="userSpaceOnUse" xlink:href="#a"/><linearGradient id="a"><stop id="aj" offset="0"/><stop id="ak" stop-opacity="0" offset="1"/></linearGradient><radialGradient id="f" cx="605.71" cy="486.65" r="117.14" gradientTransform="matrix(-.047724 0 0 .02325 35.24 25.481)" gradientUnits="userSpaceOnUse" xlink:href="#a"/><linearGradient id="k" x1="302.86" x2="302.86" y1="366.65" y2="609.51" gradientTransform="matrix(.047724 0 0 .02325 .75156 25.481)" gradientUnits="userSpaceOnUse"><stop id="al" stop-opacity="0" offset="0"/><stop id="am" offset=".5"/><stop id="an" stop-opacity="0" offset="1"/></linearGradient></defs><g id="ao"><rect id="ap" x="6.4784" y="34.006" width="23.044" height="5.6464" fill="url(#k)" fill-rule="nonzero" opacity=".40206"/><path id="aq" d="m6.4784 34.006v5.6461c-2.4577 0.01063-5.9414-1.265-5.9414-2.8234 0-1.5584 2.7426-2.8227 5.9414-2.8227z" fill="url(#f)" fill-rule="nonzero" opacity=".40206"/><path id="ar" d="m29.522 34.006v5.6461c2.4577 0.01063 5.9414-1.265 5.9414-2.8234 0-1.5584-2.7426-2.8227-5.9414-2.8227z" fill="url(#e)" fill-rule="nonzero" opacity=".40206"/><path id="as" d="m8.5001 37.5h-4.7933c-0.38836-0.39074-0.093046-1.1665-0.18532-1.7197v-31.091l0.054159-0.1342 0.13116-0.055417h4.7281" display="block" fill="url(#d)" fill-rule="nonzero" stroke="#333" stroke-linejoin="round" stroke-miterlimit="4" stroke-width=".99975"/><path id="at" d="m27.5 4.4995h4.8105c0.22616 0 0.18714 1.0359 0.18714 1.7185 0 10.357 2e-6 20.713 2e-6 31.07-0.38563 0.3971-1.1513 0.09514-1.6972 0.1895h-3.26" display="block" fill="url(#c)" fill-rule="nonzero" stroke="#333" stroke-linejoin="round" stroke-miterlimit="4" stroke-width=".9998"/><rect id="au" x="8.5" y="4.4996" width="19" height="33" rx="0" ry="0" fill="url(#j)" stroke="#333" stroke-linejoin="round" stroke-miterlimit="4" stroke-width="1"/><path id="av" d="m9.4719 21.5h17.003" fill="none" stroke="#333" stroke-linecap="square" stroke-linejoin="round" stroke-miterlimit="4" stroke-width="1"/><path id="aw" d="m9.5004 5.4996h17" display="block" fill="none" opacity=".36638" stroke="#fff" stroke-linecap="square" stroke-linejoin="round" stroke-miterlimit="4" stroke-width="1.0001"/><rect id="ax" x="5.0003" y="6.4996" width="2" height="1.5" fill="#eeeeec"/><rect id="ay" x="5.0003" y="9.4996" width="2" height="1.5" fill="#eeeeec"/><rect id="az" x="5.0003" y="12.5" width="2" height="1.5" fill="#eeeeec"/><rect id="ba" x="5.0003" y="15.5" width="2" height="1.5" fill="#eeeeec"/><rect id="bb" x="5.0003" y="18.5" width="2" height="1.5" fill="#eeeeec"/><rect id="bc" x="5.0003" y="21.5" width="2" height="1.5" fill="#eeeeec"/><rect id="bd" x="5.0003" y="24.5" width="2" height="1.5" fill="#eeeeec"/><rect id="be" x="5.0003" y="27.5" width="2" height="1.5" fill="#eeeeec"/><rect id="bf" x="5.0003" y="30.5" width="2" height="1.5" fill="#eeeeec"/><rect id="bg" x="5.0003" y="33.5" width="2" height="1.5" fill="#eeeeec"/><path id="bh" d="m9.5004 22.5h17" display="block" fill="none" opacity=".36638" stroke="#fff" stroke-linecap="square" stroke-linejoin="round" stroke-miterlimit="4" stroke-width="1.0001"/><g id="bi" transform="matrix(.68108 0 0 .68054 224.23 17.367)"><path id="bj" transform="matrix(1.6017 0 0 1.9334 -305.61 -40.098)" d="m26.5 38.7a13.75 3.8 0 1 1-27.5 0 13.75 3.8 0 1 1 27.5 0z" fill="url(#g)" fill-rule="nonzero" opacity=".5"/><path id="bk" transform="matrix(1.6345 0 0 1.6635 -232.16 -19.177)" d="m-19.415 22.686a13.025 12.808 0 1 1-26.051 0 13.025 12.808 0 1 1 26.051 0z" fill="url(#o)" stroke="url(#h)" stroke-linecap="round" stroke-linejoin="round" stroke-miterlimit="0" stroke-width=".89078"/><path id="bl" transform="matrix(1.5367 0 0 1.5651 -235.33 -16.944)" d="m-19.542 22.686a12.899 12.675 0 1 1-25.797 0 12.899 12.675 0 1 1 25.797 0z" fill="none" opacity=".6" stroke="url(#n)" stroke-linecap="round" stroke-linejoin="round" stroke-miterlimit="0" stroke-width=".94711"/></g><g id="bm" transform="matrix(1.0311 0 0 .9877 -82.756 -39.904)"><path id="bn" d="m103.05 60.682c-0.88438 0.11808-1.2563 0.62738-1.4547 1.5988 0 0.69674 0.02447 1.1004 0.02073 1.8089-0.03558 1.0583 0.01024 2.0803-0.02073 3.1257 0.00329 3.6951-0.01008 7.3901 0 11.085-0.01812 1.0189-0.00577 2.2095 0.9698 2.5984 1.1095 0.13979 2.509-0.64276 3.3943-1.0125 1.5681-0.7466 2.8241-1.2265 4.3641-2.0249 2.9651-1.5531 6.2481-3.5092 9.2131-5.0623 0.71901-0.4429 1.4303-1.1948 1.4547-2.0249 0.09874-0.95044-0.96235-1.524-1.7778-2.0249-1.2177-0.66431-1.8475-0.86424-3.0712-1.5187-2.1642-1.1514-4.6419-2.362-6.7886-3.5436-1.0436-0.56746-1.872-0.94073-2.9094-1.5187l-2.8007-1.4934-0.59364 0.006738z" display="block" enable-background="accumulate" fill="url(#i)" fill-rule="nonzero" opacity=".4"/><path id="bo" d="m103.05 62.169v17.212l16.487-8.6058-16.487-8.6058z" display="block" enable-background="accumulate" fill="url(#m)" fill-rule="nonzero" stroke="#42770c" stroke-linejoin="round" stroke-miterlimit="4" stroke-width=".99095"/><path id="bp" transform="matrix(1.7717 0 0 1.6958 86.296 51.273)" d="m9.9375 7.25v8.5l7.6562-4.25-7.6562-4.25z" display="block" enable-background="accumulate" fill="none" stroke="url(#l)" stroke-linejoin="miter" stroke-miterlimit="4" stroke-opacity=".5" stroke-width=".43623"/></g><rect id="bq" x="29" y="6.4996" width="2" height="1.5" fill="#eeeeec"/><rect id="br" x="29" y="9.4996" width="2" height="1.5" fill="#eeeeec"/><rect id="bs" x="29" y="12.5" width="2" height="1.5" fill="#eeeeec"/></g></svg>
