<?xml version="1.0" encoding="UTF-8"?>
<svg id="ae" version="1.0" viewBox="0 0 64 64" xmlns="http://www.w3.org/2000/svg" xmlns:xlink="http://www.w3.org/1999/xlink"><defs id="af"><linearGradient id="ad" x1="45.448" x2="45.448" y1="92.54" y2="7.0165" gradientTransform="scale(1.0059 .99417)" gradientUnits="userSpaceOnUse"><stop id="ag" offset="0"/><stop id="ah" stop-opacity=".58824" offset="1"/></linearGradient><linearGradient id="b"><stop id="ai" stop-color="#fff" offset="0"/><stop id="aj" stop-color="#fff" stop-opacity="0" offset="1"/></linearGradient><filter id="z" color-interpolation-filters="sRGB"><feGaussianBlur id="ak" stdDeviation="1.71"/></filter><linearGradient id="v" x1="36.357" x2="36.357" y1="6" y2="63.893" gradientUnits="userSpaceOnUse" xlink:href="#b"/><filter id="x" x="-.192" y="-.192" width="1.384" height="1.384" color-interpolation-filters="sRGB"><feGaussianBlur id="al" stdDeviation="5.28"/></filter><linearGradient id="u" x1="48" x2="48" y1="20.221" y2="138.66" gradientUnits="userSpaceOnUse" xlink:href="#b"/><radialGradient id="m" cx="48" cy="90.172" r="42" gradientTransform="matrix(1.1573 0 0 .99591 -7.551 .19713)" gradientUnits="userSpaceOnUse" xlink:href="#b"/><clipPath id="ac"><rect id="am" x="6" y="6" width="84" height="84" rx="6" ry="6" fill="#fff" fill-rule="nonzero"/></clipPath><linearGradient id="w" x1="48" x2="48" y1="90" y2="5.9877" gradientTransform="translate(0,100)" gradientUnits="userSpaceOnUse"><stop id="an" stop-color="#2276c5" offset="0"/><stop id="ao" stop-color="#68baf4" offset="1"/></linearGradient><clipPath id="ab"><path id="ap" d="m0 0v96h96v-96h-96zm12 6h72c3.324 0 6 2.676 6 6v72c0 3.324-2.676 6-6 6h-72c-3.324 0-6-2.676-6-6v-72c0-3.324 2.676-6 6-6z" fill="#fff"/></clipPath><linearGradient id="t" x1="44.512" x2="44.512" y1="6" y2="90.015" gradientUnits="userSpaceOnUse"><stop id="aq" stop-color="#f0f0f0" offset="0"/><stop id="ar" stop-color="#aaa" offset="1"/></linearGradient><clipPath id="aa"><rect id="as" x="10" y="10" width="76" height="76" rx="4" ry="4" fill="#fff" fill-rule="nonzero"/></clipPath><filter id="y" color-interpolation-filters="sRGB"><feGaussianBlur id="at" stdDeviation="1.14"/></filter><linearGradient id="d"><stop id="au" stop-color="#3d3d3d" offset="0"/><stop id="av" stop-color="#686868" stop-opacity=".49804" offset=".5"/><stop id="aw" stop-color="#686868" stop-opacity="0" offset="1"/></linearGradient><linearGradient id="a"><stop id="ax" stop-color="#fff" offset="0"/><stop id="ay" stop-color="#fff" stop-opacity=".23529" offset=".42448"/><stop id="az" stop-color="#fff" stop-opacity=".15686" offset=".8209"/><stop id="ba" stop-color="#fff" stop-opacity=".39216" offset="1"/></linearGradient><radialGradient id="l" cx="99.157" cy="186.17" r="62.769" gradientTransform="matrix(.16701 0 0 .054034 23.732 50.093)" gradientUnits="userSpaceOnUse" xlink:href="#d"/><radialGradient id="k" cx="99.157" cy="186.17" r="62.769" gradientTransform="matrix(.12757 0 0 .041274 6.8688 53.574)" gradientUnits="userSpaceOnUse" xlink:href="#d"/><radialGradient id="j" cx="4.6306" cy="11.979" r="1.7096" gradientTransform="matrix(2.8368 0 0 2.3785 -8.5029 -16.814)" gradientUnits="userSpaceOnUse"><stop id="bb" stop-color="#eef87e" offset="0"/><stop id="bc" stop-color="#cde34f" offset=".26238"/><stop id="bd" stop-color="#93b723" offset=".66094"/><stop id="be" stop-color="#5a7e0d" offset="1"/></radialGradient><linearGradient id="s" x1="71.204" x2="71.204" y1="15.369" y2="40.496" gradientTransform="matrix(.10846 0 0 .10846 -3.1442 10.427)" gradientUnits="userSpaceOnUse" xlink:href="#a"/><radialGradient id="i" cx="4.6755" cy="11.925" r="1.7096" gradientTransform="matrix(2.4585 0 0 2.0614 -6.9627 -12.81)" gradientUnits="userSpaceOnUse"><stop id="bf" stop-color="#5bc2ee" offset="0"/><stop id="bg" stop-color="#42baea" offset=".26238"/><stop id="bh" stop-color="#3689e6" offset=".70495"/><stop id="bi" stop-color="#2b63a0" offset="1"/></radialGradient><linearGradient id="r" x1="71.204" x2="71.204" y1="15.369" y2="40.496" gradientTransform="matrix(.087215 0 0 .087215 -1.814 10.859)" gradientUnits="userSpaceOnUse" xlink:href="#a"/><radialGradient id="h" cx="4.6306" cy="11.349" r="1.7096" gradientTransform="matrix(3.5789 0 0 1.9104 -12.062 -10.073)" gradientUnits="userSpaceOnUse" xlink:href="#c"/><linearGradient id="q" x1="71.204" x2="71.204" y1="15.369" y2="40.496" gradientTransform="matrix(.067697 0 0 .067697 -.34357 11.668)" gradientUnits="userSpaceOnUse" xlink:href="#a"/><radialGradient id="g" cx="4.653" cy="11.818" r="1.7096" gradientTransform="matrix(2.6465 0 0 2.219 -7.6317 -14.47)" gradientUnits="userSpaceOnUse"><stop id="bj" stop-color="#eef87e" offset="0"/><stop id="bk" stop-color="#cde34f" offset=".26238"/><stop id="bl" stop-color="#93b723" offset=".66094"/><stop id="bm" stop-color="#5a7e0d" offset="1"/></radialGradient><linearGradient id="p" x1="71.204" x2="71.204" y1="15.369" y2="40.496" gradientTransform="matrix(.090456 0 0 .090456 -1.8514 10.998)" gradientUnits="userSpaceOnUse" xlink:href="#a"/><radialGradient id="f" cx="4.7575" cy="11.811" r="1.7096" gradientTransform="matrix(2.566 .13994 -.11734 2.1515 -6.066 -14.38)" gradientUnits="userSpaceOnUse"><stop id="bn" stop-color="#90dbec" offset="0"/><stop id="bo" stop-color="#42baea" offset=".26238"/><stop id="bp" stop-color="#3689e6" offset=".70495"/><stop id="bq" stop-color="#2b63a0" offset="1"/></radialGradient><linearGradient id="o" x1="71.204" x2="71.204" y1="15.369" y2="40.496" gradientTransform="matrix(.10905 .0059473 -.0059473 .10905 -3.3404 10.356)" gradientUnits="userSpaceOnUse" xlink:href="#a"/><radialGradient id="e" cx="4.6306" cy="11.979" r="1.7096" gradientTransform="matrix(3.1063 0 0 1.9723 -9.9166 -12.112)" gradientUnits="userSpaceOnUse" xlink:href="#c"/><linearGradient id="n" x1="71.204" x2="71.204" y1="15.369" y2="40.496" gradientTransform="matrix(.12559 0 0 .12559 -4.5381 10.066)" gradientUnits="userSpaceOnUse" xlink:href="#a"/><linearGradient id="c"><stop id="br" stop-color="#fff3cb" offset="0"/><stop id="bs" stop-color="#fdde76" offset=".26238"/><stop id="bt" stop-color="#f9c440" offset=".66094"/><stop id="bu" stop-color="#e48b20" offset="1"/></linearGradient></defs><path id="bv" d="m50.776 60.153a10.483 3.3917 0 0 1-20.967 0 10.483 3.3917 0 1 1 20.967 0z" fill="url(#l)" opacity=".69672"/><g id="bw" transform="translate(0,-32)" display="none"><rect id="bx" x="5" y="7" width="86" height="85" rx="6" ry="6" clip-path="url(#ab)" fill="url(#ad)" fill-rule="nonzero" filter="url(#z)" opacity=".9"/></g><g id="by" transform="translate(0,-32)" display="none"><rect id="bz" x="6" y="6" width="84" height="84" rx="6" ry="6" fill="#000" fill-rule="nonzero" opacity=".8"/><path id="ca" d="m14 10c-2.216 0-4 1.784-4 4v68c0 2.216 1.784 4 4 4h68c2.216 0 4-1.784 4-4v-68c0-2.216-1.784-4-4-4h-68zm0 3.0625h68c0.57877 0 0.9375 0.35873 0.9375 0.9375v68c0 0.57877-0.35873 0.9375-0.9375 0.9375h-68c-0.57877 0-0.9375-0.35873-0.9375-0.9375v-68c0-0.57877 0.35873-0.9375 0.9375-0.9375z" fill="#000" fill-rule="nonzero" opacity=".08"/><path id="cb" d="m12 6c-3.324 0-6 2.676-6 6v72c0 3.324 2.676 6 6 6h72c3.324 0 6-2.676 6-6v-72c0-3.324-2.676-6-6-6h-72zm2 4h68c2.216 0 4 1.784 4 4v68c0 2.216-1.784 4-4 4h-68c-2.216 0-4-1.784-4-4v-68c0-2.216 1.784-4 4-4z" fill="url(#t)" fill-rule="nonzero"/><path id="cc" d="m12 6c-3.324 0-6 2.676-6 6v2 68 2c0 0.33472 0.04135 0.6507 0.09375 0.96875 0.0487 0.2956 0.09704 0.59692 0.1875 0.875 0.00988 0.03038 0.020892 0.0636 0.03125 0.09375 0.098865 0.28777 0.23488 0.54745 0.375 0.8125 0.14459 0.27351 0.31562 0.53562 0.5 0.78125s0.37378 0.47347 0.59375 0.6875c0.43995 0.42806 0.94291 0.81453 1.5 1.0938 0.27854 0.13961 0.57347 0.24695 0.875 0.34375-0.2562-0.10022-0.48671-0.23627-0.71875-0.375-0.00741-0.0044-0.023866 0.0045-0.03125 0-0.031933-0.0193-0.062293-0.04251-0.09375-0.0625-0.1204-0.0767-0.23102-0.16351-0.34375-0.25-0.10617-0.0808-0.21328-0.16111-0.3125-0.25-0.17793-0.16143-0.34746-0.34539-0.5-0.53125-0.10758-0.13026-0.21839-0.26528-0.3125-0.40625-0.025089-0.03838-0.038446-0.08587-0.0625-0.125-0.064763-0.10303-0.13023-0.20452-0.1875-0.3125-0.10101-0.19471-0.20567-0.4157-0.28125-0.625-0.00796-0.02181-0.023589-0.04055-0.03125-0.0625-0.031825-0.09195-0.035804-0.18683-0.0625-0.28125-0.030332-0.10662-0.070389-0.20303-0.09375-0.3125-0.072879-0.34151-0.125-0.6982-0.125-1.0625v-2-68-2c0-2.7818 2.2182-5 5-5h2 68 2c2.7818 0 5 2.2182 5 5v2 68 2c0 0.3643-0.05212 0.72099-0.125 1.0625-0.04415 0.20689-0.08838 0.39766-0.15625 0.59375-0.0077 0.02195-0.0233 0.04069-0.03125 0.0625-0.06274 0.17374-0.13838 0.36745-0.21875 0.53125-0.04158 0.0828-0.07904 0.16995-0.125 0.25-0.0546 0.09721-0.12677 0.18835-0.1875 0.28125-0.09411 0.14096-0.20492 0.276-0.3125 0.40625-0.14317 0.17445-0.30314 0.347-0.46875 0.5-0.01117 0.0102-0.01998 0.02115-0.03125 0.03125-0.13839 0.12556-0.28509 0.23444-0.4375 0.34375-0.10257 0.07315-0.20432 0.15336-0.3125 0.21875-0.0074 0.0045-0.02384-0.0044-0.03125 0-0.23204 0.13873-0.46255 0.27478-0.71875 0.375 0.30153-0.0968 0.59646-0.20414 0.875-0.34375 0.55709-0.27922 1.0601-0.66569 1.5-1.0938 0.21997-0.21403 0.40937-0.44186 0.59375-0.6875s0.35541-0.50774 0.5-0.78125c0.14012-0.26505 0.27614-0.52473 0.375-0.8125 0.01041-0.03078 0.02133-0.06274 0.03125-0.09375 0.09046-0.27808 0.1388-0.5794 0.1875-0.875 0.0524-0.31805 0.09375-0.63403 0.09375-0.96875v-2-68-2c0-3.324-2.676-6-6-6h-72z" fill="url(#v)" fill-rule="nonzero"/><path id="cd" d="m12 90c-3.324 0-6-2.676-6-6v-2-68-2c0-0.33472 0.04135-0.6507 0.09375-0.96875 0.0487-0.2956 0.09704-0.59692 0.1875-0.875 0.00988-0.03038 0.020892-0.0636 0.03125-0.09375 0.098865-0.28777 0.23488-0.54745 0.375-0.8125 0.14459-0.27351 0.31562-0.53562 0.5-0.78125s0.37378-0.47347 0.59375-0.6875c0.43995-0.42806 0.94291-0.81453 1.5-1.0938 0.27854-0.13961 0.57347-0.24695 0.875-0.34375-0.2562 0.10022-0.48671 0.23627-0.71875 0.375-0.00741 0.0044-0.023866-0.0045-0.03125 0-0.031933 0.0193-0.062293 0.04251-0.09375 0.0625-0.1204 0.0767-0.23102 0.16351-0.34375 0.25-0.10617 0.0808-0.21328 0.16111-0.3125 0.25-0.17793 0.16143-0.34746 0.34539-0.5 0.53125-0.10758 0.13026-0.21839 0.26528-0.3125 0.40625-0.025089 0.03838-0.038446 0.08587-0.0625 0.125-0.064763 0.10303-0.13023 0.20452-0.1875 0.3125-0.10101 0.19471-0.20567 0.4157-0.28125 0.625-0.00796 0.02181-0.023589 0.04055-0.03125 0.0625-0.031825 0.09195-0.035804 0.18683-0.0625 0.28125-0.030332 0.10662-0.070389 0.20303-0.09375 0.3125-0.072879 0.34151-0.125 0.6982-0.125 1.0625v2 68 2c0 2.7818 2.2182 5 5 5h2 68 2c2.7818 0 5-2.2182 5-5v-2-68-2c0-0.3643-0.05212-0.72099-0.125-1.0625-0.04415-0.20689-0.08838-0.39766-0.15625-0.59375-0.0077-0.02195-0.0233-0.04069-0.03125-0.0625-0.06274-0.17374-0.13838-0.36745-0.21875-0.53125-0.04158-0.0828-0.07904-0.16995-0.125-0.25-0.0546-0.09721-0.12677-0.18835-0.1875-0.28125-0.09411-0.14096-0.20492-0.276-0.3125-0.40625-0.14317-0.17445-0.30314-0.347-0.46875-0.5-0.01117-0.0102-0.01998-0.02115-0.03125-0.03125-0.13839-0.12556-0.28509-0.23444-0.4375-0.34375-0.10257-0.07315-0.20432-0.15336-0.3125-0.21875-0.0074-0.0045-0.02384 0.0044-0.03125 0-0.23204-0.13873-0.46255-0.27478-0.71875-0.375 0.30153 0.0968 0.59646 0.20414 0.875 0.34375 0.55709 0.27922 1.0601 0.66569 1.5 1.0938 0.21997 0.21403 0.40937 0.44186 0.59375 0.6875s0.35541 0.50774 0.5 0.78125c0.14012 0.26505 0.27614 0.52473 0.375 0.8125 0.01041 0.03078 0.02133 0.06274 0.03125 0.09375 0.09046 0.27808 0.1388 0.5794 0.1875 0.875 0.0524 0.31805 0.09375 0.63403 0.09375 0.96875v2 68 2c0 3.324-2.676 6-6 6h-72z" fill="url(#m)" fill-rule="nonzero" opacity=".6"/><rect id="ce" x="6" y="106" width="84" height="84" rx="6" ry="6" fill="url(#w)" fill-rule="nonzero"/><rect id="cf" x="10" y="110" width="76" height="76" rx="4" ry="4" fill="#f00" fill-rule="nonzero"/><path id="cg" transform="translate(-110)" d="m14 9c-2.7527 0-5 2.2473-5 5v68c0 2.7527 2.2473 5 5 5h68c2.7527 0 5-2.2473 5-5v-68c0-2.7527-2.2473-5-5-5h-68zm0 2h68c1.6793 0 3 1.3207 3 3v68c0 1.6793-1.3207 3-3 3h-68c-1.6793 0-3-1.3207-3-3v-68c0-1.6793 1.3207-3 3-3z" clip-path="url(#aa)" color="#000000" display="inline" enable-background="accumulate" fill="#000" filter="url(#y)" style="block-progression:tb;text-indent:0;text-transform:none"/><path id="ch" d="m14.089 10c-2.216 0-4 1.784-4 4v68c0 2.216 1.784 4 4 4h68c2.216 0 4-1.784 4-4v-68c0-2.216-1.784-4-4-4h-68zm0 2h68c1.1403 0 2 0.8597 2 2v68c0 1.1403-0.8597 2-2 2h-68c-1.1403 0-2-0.8597-2-2v-68c0-1.1403 0.8597-2 2-2z" fill="#000" fill-rule="nonzero" opacity=".16"/><path id="ci" d="m14 10c-2.216 0-4 1.784-4 4v68c0 2.216 1.784 4 4 4h68c2.216 0 4-1.784 4-4v-68c0-2.216-1.784-4-4-4h-68zm0 1h68c1.6738 0 3 1.3262 3 3v68c0 1.6738-1.3262 3-3 3h-68c-1.6738 0-3-1.3262-3-3v-68c0-1.6738 1.3262-3 3-3z" fill="#000" fill-rule="nonzero" opacity=".36"/></g><g id="cj" transform="translate(0,-32)" display="none"><rect id="ck" x="15" y="15" width="66" height="66" rx="12" ry="12" clip-path="url(#ac)" fill="url(#u)" fill-rule="nonzero" filter="url(#x)" opacity=".1" stroke="#fff" stroke-linecap="round" stroke-linejoin="miter" stroke-miterlimit="4" stroke-width=".5"/></g><path id="cl" d="m27.526 61.257a8.0077 2.5907 0 0 1-16.015 0 8.0077 2.5907 0 1 1 16.015 0z" fill="url(#k)" opacity=".3"/><g id="cm" transform="matrix(3.7723 0 0 3.7723 1.8238 3.08)"><path id="cn" d="m5.5028 11.959c0.81955 0.46851 1.1041 1.5127 0.63561 2.3322s-1.5127 1.1041-2.3322 0.63561c-0.81955-0.46851-1.1041-1.5127-0.63561-2.3322 0.46851-0.81955 1.5127-1.1041 2.3322-0.63561z" fill="url(#e)"/><path id="co" d="m4.6437 11.693c-0.97476 0-1.7666 0.79186-1.7666 1.7666s0.79186 1.7666 1.7666 1.7666c0.97476 0 1.7666-0.79186 1.7666-1.7666 0-0.97476-0.79186-1.7666-1.7666-1.7666z" color="#000000" enable-background="accumulate" fill="none" opacity=".3" stroke="#2b2200" stroke-miterlimit="4" stroke-width=".34894"/><path id="cp" d="m6.0714 13.449c0 0.78859-0.63928 1.4279-1.4279 1.4279-0.78859 0-1.4279-0.63928-1.4279-1.4279 0-0.7886 0.63929-1.4279 1.4279-1.4279 0.78859 0 1.4279 0.63928 1.4279 1.4279z" color="#000000" enable-background="accumulate" fill="none" opacity=".5" stroke="url(#n)" stroke-linecap="round" stroke-linejoin="round" stroke-miterlimit="4" stroke-width=".34418"/></g><g id="cq" transform="matrix(4.368 0 0 4.368 -11.308 -21.256)"><path id="cr" d="m5.5028 11.959c0.81955 0.46851 1.1041 1.5127 0.63561 2.3322s-1.5127 1.1041-2.3322 0.63561c-0.81955-0.46851-1.1041-1.5127-0.63561-2.3322 0.46851-0.81955 1.5127-1.1041 2.3322-0.63561z" fill="url(#j)"/><path id="cs" d="m4.6437 11.693c-0.97476 0-1.7666 0.79186-1.7666 1.7666s0.79186 1.7666 1.7666 1.7666c0.97476 0 1.7666-0.79186 1.7666-1.7666 0-0.97476-0.79186-1.7666-1.7666-1.7666z" color="#000000" enable-background="accumulate" fill="none" opacity=".3" stroke="#2b2200" stroke-miterlimit="4" stroke-width=".30135"/><path id="ct" d="m6.0714 13.449c0 0.78859-0.63928 1.4279-1.4279 1.4279-0.78859 0-1.4279-0.63928-1.4279-1.4279 0-0.7886 0.63929-1.4279 1.4279-1.4279 0.78859 0 1.4279 0.63928 1.4279 1.4279z" color="#000000" enable-background="accumulate" fill="none" opacity=".5" stroke="url(#s)" stroke-linecap="round" stroke-linejoin="round" stroke-miterlimit="4" stroke-width=".29724"/></g><g id="cu" transform="matrix(5.432 0 0 5.432 -7.6106 -56.058)"><path id="cv" d="m5.5028 11.959c0.81955 0.46851 1.1041 1.5127 0.63561 2.3322s-1.5127 1.1041-2.3322 0.63561c-0.81955-0.46851-1.1041-1.5127-0.63561-2.3322 0.46851-0.81955 1.5127-1.1041 2.3322-0.63561z" fill="url(#i)"/><path id="cw" d="m4.6437 11.742c-0.94782 0-1.7178 0.76998-1.7178 1.7178s0.76998 1.7178 1.7178 1.7178c0.94782 0 1.7178-0.76998 1.7178-1.7178 0-0.94782-0.76998-1.7178-1.7178-1.7178z" color="#000000" enable-background="accumulate" fill="none" opacity=".3" stroke="#2b2200" stroke-miterlimit="4" stroke-width=".24232"/><path id="cx" d="m6.104 13.449c0 0.80657-0.65385 1.4604-1.4604 1.4604-0.80657 0-1.4604-0.65385-1.4604-1.4604 0-0.80657 0.65386-1.4604 1.4604-1.4604 0.80657 0 1.4604 0.65385 1.4604 1.4604z" color="#000000" enable-background="accumulate" fill="none" opacity=".5" stroke="url(#r)" stroke-linecap="round" stroke-linejoin="round" stroke-miterlimit="4" stroke-width=".23902"/></g><g id="cy" transform="matrix(6.9981 0 0 6.9981 11.533 -80.629)"><path id="cz" d="m5.5028 11.959c0.81955 0.46851 1.1041 1.5127 0.63561 2.3322s-1.5127 1.1041-2.3322 0.63561c-0.81955-0.46851-1.1041-1.5127-0.63561-2.3322 0.46851-0.81955 1.5127-1.1041 2.3322-0.63561z" fill="url(#h)"/><path id="da" d="m4.6437 11.75c-0.94343 0-1.7098 0.76641-1.7098 1.7098s0.76641 1.7098 1.7098 1.7098c0.94343 0 1.7098-0.76641 1.7098-1.7098 0-0.94344-0.76641-1.7098-1.7098-1.7098z" color="#000000" enable-background="accumulate" fill="none" opacity=".3" stroke="#2b2200" stroke-miterlimit="4" stroke-width=".18809"/><path id="db" d="m6.1217 13.449c0 0.81636-0.66179 1.4782-1.4782 1.4782-0.81636 0-1.4782-0.66179-1.4782-1.4782 0-0.81636 0.6618-1.4782 1.4782-1.4782 0.81636 0 1.4782 0.66179 1.4782 1.4782z" color="#000000" enable-background="accumulate" fill="none" opacity=".5" stroke="url(#q)" stroke-linecap="round" stroke-linejoin="round" stroke-miterlimit="4" stroke-width=".18553"/></g><g id="dc" transform="matrix(5.2374 0 0 5.2374 29.237 -33.311)"><path id="dd" d="m5.5028 11.959c0.81955 0.46851 1.1041 1.5127 0.63561 2.3322s-1.5127 1.1041-2.3322 0.63561c-0.81955-0.46851-1.1041-1.5127-0.63561-2.3322 0.46851-0.81955 1.5127-1.1041 2.3322-0.63561z" fill="url(#g)"/><path id="de" d="m4.6437 11.727c-0.95613 0-1.7329 0.77672-1.7329 1.7329s0.77673 1.7329 1.7329 1.7329c0.95613 0 1.7329-0.77672 1.7329-1.7329 0-0.95613-0.77673-1.7329-1.7329-1.7329z" color="#000000" enable-background="accumulate" fill="none" opacity=".3" stroke="#2b2200" stroke-miterlimit="4" stroke-width=".25133"/><path id="df" d="m6.1221 13.449c0 0.81656-0.66196 1.4785-1.4785 1.4785-0.81656 0-1.4785-0.66196-1.4785-1.4785 0-0.81657 0.66197-1.4785 1.4785-1.4785 0.81656 0 1.4785 0.66196 1.4785 1.4785z" color="#000000" enable-background="accumulate" fill="none" opacity=".5" stroke="url(#p)" stroke-linecap="round" stroke-linejoin="round" stroke-miterlimit="4" stroke-width=".2479"/></g><g id="dg" transform="matrix(4.3315 -.23623 .23623 4.3315 17.032 -3.6522)"><path id="dh" d="m5.5028 11.959c0.81955 0.46851 1.1041 1.5127 0.63561 2.3322s-1.5127 1.1041-2.3322 0.63561c-0.81955-0.46851-1.1041-1.5127-0.63561-2.3322 0.46851-0.81955 1.5127-1.1041 2.3322-0.63561z" fill="url(#f)"/><path id="di" d="m4.6437 11.693c-0.97476 0-1.7666 0.79186-1.7666 1.7666s0.79186 1.7666 1.7666 1.7666c0.97476 0 1.7666-0.79186 1.7666-1.7666 0-0.97476-0.79186-1.7666-1.7666-1.7666z" color="#000000" enable-background="accumulate" fill="none" opacity=".3" stroke="#2b2200" stroke-miterlimit="4" stroke-width=".30344"/><path id="dj" d="m6.0714 13.449c0 0.78859-0.63928 1.4279-1.4279 1.4279-0.78859 0-1.4279-0.63928-1.4279-1.4279 0-0.7886 0.63929-1.4279 1.4279-1.4279 0.78859 0 1.4279 0.63928 1.4279 1.4279z" color="#000000" enable-background="accumulate" fill="none" opacity=".5" stroke="url(#o)" stroke-linecap="round" stroke-linejoin="round" stroke-miterlimit="4" stroke-width=".2993"/></g></svg>
