<?xml version="1.0" encoding="UTF-8"?>
<svg id="a" enable-background="new" version="1.1" viewBox="0 0 128 128" xmlns="http://www.w3.org/2000/svg"><title id="b">Adwaita Icon Template</title><g id="c"><path id="d" d="m115.5 14.963h-103.01v100.75h91.937l11.073-11.434z" enable-background="new" fill="#133f78"/><path id="e" d="m114.93 13.112c-0.65679-0.65682-1.8735-0.61634-1.8735-0.61634h-98.11s-0.79741-0.13098-1.6742 0.74576c-0.87674 0.87674-0.77966 1.7217-0.77966 1.7217v97.246h91.937l11.073-11.316v-85.93s0.0843-1.1943-0.57251-1.8512z" enable-background="new" fill="#1c71d8"/><rect id="f" x="40.276" y="74.897" width="60.494" height="37.139" ry="7.4246" enable-background="new" fill="#3584e4"/><rect id="g" x="40.276" y="90.98" width="60.494" height="21.229" ry="0" enable-background="new" fill="#3483e4"/><rect id="h" x="24.076" y="16.636" width="79.813" height="53.078" ry="5.3178" enable-background="new" fill="#f6f5f4"/><rect id="i" x="28.026" y="74.897" width="55.911" height="37.139" ry="7.4074" enable-background="new" fill="#98c1f1"/><rect id="j" x="28.026" y="93.466" width="55.911" height="18.743" ry="0" enable-background="new" fill="#98c1f1"/><rect id="k" x="39.201" y="80.326" width="16.78" height="31.882" ry="0" enable-background="new" fill="#1a5fb4"/><g id="l" transform="matrix(.44882 0 0 .44882 42.392 16.636)" enable-background="new" fill="#3d3846" fill-rule="nonzero"><g id="m" fill="#3d3846"><path id="n" d="m86.068 0c-24.602 0-29.217 35.041-15.377 35.041 13.838 0 39.98-35.041 15.377-35.041z"/><path id="o" d="m45.217 30.699c7.369 0.45 15.454-28.122 1.604-26.325-13.845 1.797-8.976 25.875-1.604 26.325z"/><path id="p" d="m11.445 48.453c5.241-2.307 0.675-24.872-8.237-18.718-8.908 6.155 2.996 21.024 8.237 18.718z"/><path id="q" d="m26.212 36.642c6.239-1.272 6.581-26.864-4.545-22.273-11.128 4.592-1.689 23.547 4.545 22.273z"/><path id="r" d="m58.791 93.913c1.107 8.454-6.202 12.629-13.36 7.179-22.787-17.349 37.729-26.004 33.74-49.706-3.311-19.674-63.676-13.617-70.55 17.167-4.653 20.821 19.153 49.707 43.993 49.707 12.22 0 26.315-11.034 28.952-25.012 2.014-10.659-23.699-6.388-22.775 0.665z"/></g></g><rect id="s" x="28.026" y="112.21" width="55.911" height="3.5084" ry="0" enable-background="new" fill="#297fe5"/><rect id="t" x="39.201" y="112.21" width="16.78" height="3.5084" ry="0" enable-background="new" fill="#133f78"/><rect id="u" x="83.937" y="112.21" width="16.833" height="3.5084" ry="0" enable-background="new" fill="#1359ab"/><path id="v" d="m104.43 112.21v3.5084l11.073-11.073v-3.7516z" fill="#132c51"/></g></svg>
