<?xml version="1.0" encoding="UTF-8"?>
<svg id="c" sodipodi:docbase="/home/sak/wip/gsubtitles" sodipodi:docname="06icon48x.svg" sodipodi:version="0.32" viewBox="0 0 48 48" xmlns="http://www.w3.org/2000/svg" xmlns:sodipodi="http://inkscape.sourceforge.net/DTD/sodipodi-0.dtd" xmlns:xlink="http://www.w3.org/1999/xlink"><defs id="d"><linearGradient id="b" x1="65.103" x2="65.103" y1="16" y2="55.063" gradientTransform="matrix(.41593 0 0 .41593 -3.3209 -4.0601)" gradientUnits="userSpaceOnUse"><stop id="e" stop-color="#fff" offset="0"/><stop id="f" stop-color="#fff" stop-opacity="0" offset="1"/></linearGradient><radialGradient id="a" cx="65.103" cy="76.849" r="50.416" gradientTransform="matrix(.88284 1.8057e-16 5.3278e-15 .29537 -33.718 5.0734)" gradientUnits="userSpaceOnUse"><stop id="g" stop-color="#ffd980" offset="0"/><stop id="h" stop-color="#ffb200" offset="1"/></radialGradient></defs><sodipodi:namedview id="i" bordercolor="#666666" borderopacity="1.0" pagecolor="#ffffff" showgrid="false"/><g id="j"><path id="k" d="m33.545 30.733h-26.1c-2.4647 0-4.4489-1.9842-4.4489-4.4489v-18.313c0-2.4647 2.5774-4.4489 5.0421-4.4489h32.032c2.4647 0 4.4489 1.9842 4.4489 4.4489v18.313c0 2.4647-1.9842 4.4489-4.4489 4.4489l0.055544 0.092168c0 5.2431-12.583 11.46-8.6885 7.4901 3.8949-3.9697 2.1079-7.5823 2.1079-7.5823z" fill="none" stroke="#000" stroke-linecap="round" stroke-linejoin="round" stroke-width="1.7" sodipodi:nodetypes="ccccccccc"/><path id="l" d="m33.545 30.733h-26.1c-2.4647 0-4.4489-1.9842-4.4489-4.4489v-18.313c0-2.4647 2.5774-4.4489 5.0421-4.4489h32.032c2.4647 0 4.4489 1.9842 4.4489 4.4489v18.313c0 2.4647-1.9842 4.4489-4.4489 4.4489l0.055545 0.092168c0 5.2431-12.583 11.46-8.6885 7.4901 3.8949-3.9698 2.1079-7.5823 2.1079-7.5823z" fill="url(#a)" fill-rule="evenodd" sodipodi:nodetypes="ccccccccc"/><path id="m" d="m7.541 5.5062h32.433c1.2701 0 2.2926 1.0225 2.2926 2.2926v3.7334c0 1.2701-8.1689 2.8379-13.145 3.1244-4.9757 0.28658-23.873-1.8543-23.873-3.1244v-3.7334c0-1.2701 1.0225-2.2926 2.2926-2.2926z" fill="url(#b)" fill-rule="evenodd" sodipodi:nodetypes="cccczccc"/><rect id="n" x="11.071" y="17.011" width="25.372" height="1" rx=".17479" ry=".065391" color="#000000" display="block"/><rect id="o" x="11.071" y="19.986" width="25.372" height="1" rx=".17479" ry=".065391" color="#000000" display="block"/><rect id="p" x="11.071" y="22.927" width="25.372" height="1" rx=".17479" ry=".065391" color="#000000" display="block"/><rect id="q" x="18.049" y="26.012" width="11.417" height="1" rx=".078657" ry=".065391" color="#000000" display="block"/></g></svg>
