<?xml version="1.0" encoding="UTF-8"?>
<svg id="f" s:docbase="/home/lapo/Desktop/gnome-applets/scalable" s:docname="gnome-panel.svg" s:version="0.32" viewBox="0 0 48 48" xmlns="http://www.w3.org/2000/svg" xmlns:s="http://inkscape.sourceforge.net/DTD/sodipodi-0.dtd" xmlns:xlink="http://www.w3.org/1999/xlink"><defs id="g"><linearGradient id="a"><stop id="h" stop-color="#fff" offset="0"/><stop id="i" stop-color="#fff" stop-opacity="0" offset="1"/></linearGradient><linearGradient id="d" x1="31.875" x2="47.438" y1="17.438" y2="17.438" gradientTransform="translate(0,-8)" gradientUnits="userSpaceOnUse"><stop id="j" stop-color="#888a85" offset="0"/><stop id="k" stop-color="#888a85" stop-opacity="0" offset="1"/></linearGradient><linearGradient id="c" x1="31.873" x2="46.705" y1="20.688" y2="20.688" gradientTransform="translate(0,-8)" gradientUnits="userSpaceOnUse"><stop id="l" stop-color="#d3d7cf" offset="0"/><stop id="m" stop-color="#d3d7cf" stop-opacity="0" offset="1"/></linearGradient><linearGradient id="e" x1="23.997" x2="45.754" y1="18.375" y2="18.375" gradientTransform="translate(0,-8)" gradientUnits="userSpaceOnUse" xlink:href="#a"/><radialGradient id="b" cx="3.6239" cy="2.005" r="23" gradientTransform="matrix(1.2467e-8 1.126 -1.6273 3.1161e-17 6.8866 6.5312)" gradientUnits="userSpaceOnUse" xlink:href="#a"/></defs><s:namedview id="n" fill="#2e3436" stroke="#eeeeec" bordercolor="#666666" borderopacity="1.0" gridempspacing="2" gridspacingx="0.5px" gridspacingy="0.5px" pagecolor="#ffffff" showborder="false" showgrid="false" showguides="false"><s:guide id="o" orientation="vertical" position="31.875"/></s:namedview><g id="p"><rect id="q" x="2.5" y="9.5" width="46" height="29" fill="url(#c)" stroke="url(#d)" stroke-linejoin="round"/><rect id="r" x="3.5" y="10.5" width="45" height="27" fill="none" opacity=".4" stroke="url(#e)" stroke-linejoin="round"/><rect id="s" x="3.5" y="10.5" width="45" height="27" fill="none" stroke="url(#b)" stroke-linejoin="round"/><rect id="t" x="4.5" y="11.5" width="10" height="25" rx="1.625" ry="1.625" color="#000000" fill="#dce0d8" stroke="#888a85" stroke-linecap="square"/><rect id="u" x="5.5" y="12.5" width="8" height="23" rx=".5625" ry=".5625" color="#000000" fill="none" opacity=".59608" stroke="#fff" stroke-linecap="square"/><path id="v" d="m8 23.5 3-2.5v5l-3-2.5z" fill-rule="evenodd" s:nodetypes="cccc"/><g id="w" transform="translate(1.3361 -.48051)" fill="#2e3436"><g id="x" transform="matrix(1.1111 0 0 1.1111 -1.1111 -2)" fill="#2e3436"><path id="y" d="m29.826 13.932c-3.9526 0-4.6941 5.6298-2.4705 5.6298 2.2233 0 6.4233-5.6298 2.4705-5.6298z"/><path id="z" d="m23.262 18.865c1.1839 0.072299 2.4829-4.5182 0.2577-4.2295-2.2244 0.28871-1.4421 4.1572-0.2577 4.2295z"/><path id="aa" d="m17.837 21.717c0.84204-0.37065 0.10845-3.996-1.3234-3.0073-1.4312 0.98888 0.48135 3.3778 1.3234 3.0073z"/><path id="ab" d="m20.209 19.819c1.0024-0.20436 1.0573-4.3161-0.73021-3.5784-1.7879 0.73776-0.27136 3.7831 0.73021 3.5784z"/><path id="ac" d="m25.443 29.021c0.17785 1.3582-0.99643 2.029-2.1465 1.1534-3.661-2.7873 6.0617-4.1777 5.4208-7.9859-0.53196-3.1609-10.23-2.1877-11.335 2.7579-0.74756 3.3453 3.0772 7.9862 7.068 7.9862 1.9633 0 4.2278-1.7728 4.6515-4.0185 0.32358-1.7125-3.8076-1.0263-3.6591 0.10684z"/></g></g></g></svg>
