<?xml version="1.0" encoding="UTF-8"?>
<svg fill="none" viewBox="0 0 63 63" xmlns="http://www.w3.org/2000/svg"><linearGradient id="a" x1="34.909" x2="7.6322" y1="61.029" y2="13.785" gradientUnits="userSpaceOnUse"><stop stop-color="#1e8e3e" offset="0"/><stop stop-color="#34a853" offset="1"/></linearGradient><linearGradient id="b" x1="26.904" x2="54.181" y1="63.079" y2="15.834" gradientUnits="userSpaceOnUse"><stop stop-color="#fcc934" offset="0"/><stop stop-color="#fbbc04" offset="1"/></linearGradient><linearGradient id="c" x1="4.2214" x2="58.774" y1="19.688" y2="19.688" gradientUnits="userSpaceOnUse"><stop stop-color="#d93025" offset="0"/><stop stop-color="#ea4335" offset="1"/></linearGradient><path d="m31.499 47.247c8.6985 0 15.75-7.0515 15.75-15.75s-7.0515-15.75-15.75-15.75-15.75 7.0515-15.75 15.75 7.0515 15.75 15.75 15.75z" fill="#fff"/><path d="m17.859 39.375-13.638-23.621c-2.7653 4.788-4.2212 10.22-4.2214 15.749s1.4554 10.961 4.2203 15.749c2.7649 4.7882 6.7418 8.7641 11.531 11.528 4.7889 2.7637 10.221 4.2179 15.75 4.2164l13.638-23.621v-0.0041c-1.3813 2.3954-3.369 4.3848-5.7632 5.7681s-5.1104 2.1118-7.8755 2.1122-5.4816-0.7272-7.8762-2.1099c-2.3945-1.3826-4.3829-3.3714-5.7649-5.7663z" fill="url(#a)"/><path d="m45.138 39.374-13.638 23.621c5.5292 8e-4 10.961-1.4542 15.75-4.2187 4.7885-2.7644 8.7648-6.7408 11.529-11.529 2.7642-4.7887 4.219-10.221 4.2181-15.75-1e-3 -5.5292-1.4577-10.961-4.2237-15.748h-27.275l-0.0034 0.0021c2.7651-0.0014 5.4818 0.7254 7.8769 2.1071 2.3951 1.3818 4.3841 3.3698 5.767 5.7643 1.3829 2.3944 2.1109 5.1108 2.1109 7.8758-1e-4 2.7651-0.7283 5.4814-2.1113 7.8758z" fill="url(#b)"/><path d="m31.499 43.969c6.8863 0 12.469-5.5825 12.469-12.469s-5.5825-12.469-12.469-12.469-12.469 5.5825-12.469 12.469 5.5824 12.469 12.469 12.469z" fill="#1a73e8"/><path d="m31.499 15.75h27.275c-2.764-4.7888-6.74-8.7655-11.528-11.53-4.7883-2.7648-10.22-4.2201-15.749-4.2197s-10.961 1.4565-15.749 4.2219c-4.788 2.7654-8.7634 6.7428-11.527 11.532l13.638 23.621 0.0035 0.0019c-1.3837-2.394-2.1127-5.11-2.1136-7.8751s0.7264-5.4817 2.1086-7.8765c1.3821-2.3948 3.3706-4.3835 5.7652-5.7659 2.3947-1.3825 5.1112-2.11 7.8763-2.1094z" fill="url(#c)"/></svg>
