<?xml version="1.0" encoding="UTF-8"?>
<svg version="1" viewBox="0 0 64 64" xmlns="http://www.w3.org/2000/svg"><path d="m4 56v2c0 1.662 1.338 3 3 3h50c1.662 0 3-1.338 3-3v-2c0 1.662-1.338 3-3 3h-50c-1.662 0-3-1.338-3-3z" opacity=".2"/><rect x="4" y="4" width="56" height="56" rx="3" ry="3" fill="#f58411"/><path d="m7 4c-1.662 0-3 1.338-3 3v1c0-1.662 1.338-3 3-3h50c1.662 0 3 1.338 3 3v-1c0-1.662-1.338-3-3-3h-50z" fill="#fff" opacity=".2"/><path d="M 63.954,47.918 A 14,14 0 0 1 50,61 14,14 0 0 1 36.046,48.082 14,14 0 0 0 36,49 14,14 0 0 0 50,63 14,14 0 0 0 64,49 14,14 0 0 0 63.954,47.918 Z" fill-rule="evenodd" opacity=".2"/><path d="m32.002 14.999c-1.6821-0.0174-3.3525 0.23158-4.9746 0.67578-7.5535 2.0262-13.081 9.5022-12.967 17.326h-4.0605c2.07 3.0437 6 8.998 6 8.998s6-9.001 6-9.002h-3.918c-0.0144-3.2766 1.2153-6.5716 3.3965-9.0176 4.0995-4.9288 11.523-6.9806 17.232-2.793 1.81 2.3692 5.7576-0.31919 3.7207-2.6621-3.0002-2.3365-6.6418-3.5174-10.43-3.5254zm15.998 9s-6 8.999-6 9h3.918c0.0144 3.2766-1.2153 6.5735-3.3965 9.0195-4.0995 4.9288-11.523 6.9806-17.232 2.793-1.81-2.3692-5.7576 0.31919-3.7207 2.6621 3.0002 2.3365 6.6418 3.5174 10.43 3.5254 1.6821 0.0174 3.3525-0.23158 4.9746-0.67578 7.5535-2.0262 13.081-9.5022 12.967-17.326h4.0605c-2.07-3.0437-6-8.998-6-8.998z" opacity=".2"/><path d="m32.002 14c-1.6821-0.0174-3.3525 0.23158-4.9746 0.67578-7.5535 2.0262-13.081 9.5022-12.967 17.326h-4.0605c2.07 3.0437 6 8.998 6 8.998s6-9.001 6-9.002h-3.918c-0.014401-3.2766 1.2153-6.5716 3.3965-9.0176 4.0995-4.9288 11.523-6.9806 17.232-2.793 1.81 2.3692 5.7576-0.31919 3.7207-2.6621-3.0002-2.3365-6.6418-3.5174-10.43-3.5254zm15.998 9s-6 8.999-6 9h3.918c0.014401 3.2766-1.2153 6.5735-3.3965 9.0195-4.0995 4.9288-11.523 6.9806-17.232 2.793-1.81-2.3692-5.7576 0.31919-3.7207 2.6621 3.0002 2.3365 6.6418 3.5174 10.43 3.5254 1.6821 0.0174 3.3525-0.23158 4.9746-0.67578 7.5535-2.0262 13.081-9.5022 12.967-17.326h4.0605c-2.07-3.0437-6-8.998-6-8.998z" fill="#fff"/><circle cx="50" cy="48" r="14" fill="#42a1cd"/><path d="m48 40-0.1764 2.1072a6.2858 6.2858 0 0 0-1.837 1.0625l-1.9152-0.9018-2 3.4642 1.7388 1.2076a6.2858 6.2858 0 0 0-0.096 1.0603 6.2858 6.2858 0 0 0 0.0914 1.0647l-1.7344 1.2031 2 3.4642 1.9107-0.89956a6.2858 6.2858 0 0 0 1.8415 1.0558l0.1764 2.1116h4l0.1764-2.1072a6.2858 6.2858 0 0 0 1.8371-1.0625l1.9152 0.9018 2-3.4642-1.7388-1.2076a6.2858 6.2858 0 0 0 0.096-1.0603 6.2858 6.2858 0 0 0-0.0914-1.0647l1.7344-1.2031-2-3.4642-1.9107 0.89956a6.2858 6.2858 0 0 0-1.842-1.056l-0.176-2.112h-4zm2 5.7144a2.2858 2.2858 0 0 1 2.286 2.286 2.2858 2.2858 0 0 1-2.286 2.286 2.2858 2.2858 0 0 1-2.286-2.286 2.2858 2.2858 0 0 1 2.286-2.286z" fill="#fff"/></svg>
