<?xml version="1.0" encoding="UTF-8"?>
<svg version="1" viewBox="0 0 64 64" xmlns="http://www.w3.org/2000/svg"><path d="m4 56v2c0 1.662 1.338 3 3 3h50c1.662 0 3-1.338 3-3v-2c0 1.662-1.338 3-3 3h-50c-1.662 0-3-1.338-3-3z" opacity=".2"/><rect x="4" y="4" width="56" height="56" rx="3" ry="3" fill="#fabd7f"/><path d="m7 4c-1.662 0-3 1.338-3 3v1c0-1.662 1.338-3 3-3h50c1.662 0 3 1.338 3 3v-1c0-1.662-1.338-3-3-3h-50z" fill="#fff" opacity=".1"/><path d="m29.144 12c-0.79144 0-1.134 0.68682-1.144 1.5391v24.461h-6.0005l10 14 10-14h-5.9995v-24.461c0-0.8512-0.35528-1.538-1.1453-1.538z" fill="#3f3f3f"/><rect transform="matrix(0,-1,-1,0,0,0)" x="-63" y="-64" width="28" height="28" rx="1.5" ry="1.5" opacity=".2"/><rect transform="matrix(0,-1,-1,0,0,0)" x="-62" y="-64" width="28" height="28" rx="1.5" ry="1.5" fill="#e4e4e4"/><path d="m41 39v4h18v-4zm0 7v4h18v-4zm0 7v4h18v-4z" fill="#3f3f3f"/></svg>
