<?xml version="1.0" encoding="UTF-8"?>
<svg id="y" version="1.0" viewBox="0 0 128 128" xmlns="http://www.w3.org/2000/svg" xmlns:xlink="http://www.w3.org/1999/xlink"><defs id="z"><linearGradient id="c"><stop id="aa" stop-color="#fff" offset="0"/><stop id="ab" stop-color="#fff" stop-opacity="0" offset="1"/></linearGradient><linearGradient id="d"><stop id="ac" offset="0"/><stop id="ad" stop-opacity="0" offset="1"/></linearGradient><filter id="i" x="-.10926" y="-.20841" width="1.2185" height="1.4168"><feGaussianBlur id="ae" stdDeviation="9.1235136"/></filter><filter id="h"><feGaussianBlur id="af" stdDeviation="3.0411712"/></filter><clipPath id="k"><path id="ag" transform="matrix(1.0114 0 0 1.0114 -816.25 -161.96)" d="m612.74 661.71a99.086 99.086 0 1 1-198.17 0 99.086 99.086 0 1 1 198.17 0z" fill="#000" fill-rule="nonzero"/></clipPath><radialGradient id="m" cx="130.46" cy="224.53" r="116.32" fx="129.26" fy="170.93" gradientTransform="matrix(1 0 0 .32523 0 151.51)" gradientUnits="userSpaceOnUse"><stop id="ah" offset="0"/><stop id="ai" stop-opacity=".86182" offset=".5"/><stop id="aj" stop-opacity="0" offset="1"/></radialGradient><filter id="t" x="-.10336" y="-.3178" width="1.2067" height="1.6356"><feGaussianBlur id="ak" stdDeviation="10.018592"/></filter><linearGradient id="r" x1="82.731" x2="82.731" y1="275.11" y2="241.8" gradientTransform="matrix(1.2348 0 0 -1.1865 -152.91 851.71)" gradientUnits="userSpaceOnUse" xlink:href="#d"/><filter id="s" x="-.043065" y="-.12243" width="1.0861" height="1.2449"><feGaussianBlur id="al" stdDeviation="2.5091216"/></filter><linearGradient id="q" x1="-280.88" x2="-305.32" y1="364.08" y2="377.44" gradientTransform="matrix(.42773 -.31971 .31971 .42773 -84.684 157.13)" gradientUnits="userSpaceOnUse"><stop id="am" stop-color="#fff" offset="0"/><stop id="an" stop-color="#fff" stop-opacity="0" offset="1"/></linearGradient><linearGradient id="p" x1="66.584" x2="69.85" y1="77.287" y2="81.303" gradientUnits="userSpaceOnUse" xlink:href="#d"/><filter id="g" x="-.07348" y="-.16089" width="1.147" height="1.3218"><feGaussianBlur id="ao" stdDeviation="1.4131029"/></filter><clipPath id="j"><path id="ap" d="m203.36 387.44c-4.6223-0.01799-9.9674 1.1014-16.094 3.6562-1.2367 0.40214-2.1423 1.4655-2.3423 2.7505s0.33939 2.5733 1.3953 3.3324c1.0559 0.75907 2.449 0.85995 3.6033 0.26093 11.029-4.5995 17.054-3.6959 21.844-0.9375s8.531 8.1088 13.094 13.438c0.77976 0.99984 2.0451 1.4914 3.2953 1.2803 1.2502-0.21116 2.284-1.091 2.6921-2.2915 0.40815-1.2005 0.12499-2.5281-0.73745-3.4575-4.2082-4.9146-8.2636-11.143-14.906-14.969-3.3213-1.9128-7.2215-3.0445-11.844-3.0625z" fill="#ffe804" fill-rule="evenodd"/></clipPath><filter id="f"><feGaussianBlur id="aq" stdDeviation="0.29315638"/></filter><clipPath id="w"><path id="ar" d="m327.65 39.867c-4.6223-0.01799-9.9674 1.1014-16.094 3.6562-1.2367 0.40214-2.1423 1.4655-2.3423 2.7505s0.33939 2.5733 1.3953 3.3324c1.0559 0.75907 2.449 0.85995 3.6033 0.26093 11.029-4.5995 17.054-3.6959 21.844-0.9375s8.531 8.1088 13.094 13.438c0.77976 0.99984 2.0451 1.4914 3.2953 1.2803 1.2502-0.21116 2.284-1.091 2.6921-2.2915 0.40815-1.2005 0.12499-2.5281-0.73745-3.4575-4.2082-4.9146-8.2636-11.143-14.906-14.969-3.3213-1.9128-7.2215-3.0445-11.844-3.0625z" fill="#ffe804" fill-rule="evenodd"/></clipPath><linearGradient id="o" x1="80.423" x2="82.673" y1="59.687" y2="102.71" gradientTransform="matrix(.69483 0 0 .69483 -198.55 316.18)" gradientUnits="userSpaceOnUse"><stop id="as" stop-color="#ffe804" offset="0"/><stop id="at" stop-color="#ffe804" stop-opacity="0" offset="1"/></linearGradient><radialGradient id="l" cx="87.261" cy="48.887" r="74.645" fy="99.351" gradientUnits="userSpaceOnUse"><stop id="au" stop-color="#fff" stop-opacity=".43243" offset="0"/><stop id="av" stop-color="#fff" stop-opacity="0" offset="1"/></radialGradient><radialGradient id="a" cx="-49.882" cy="419.45" r="75.846" fy="386.87" gradientTransform="matrix(1.1022 -1.8158e-7 1.945e-7 1.1806 202.48 -75.77)" gradientUnits="userSpaceOnUse" xlink:href="#c"/><linearGradient id="n" x1="128.28" x2="128.28" y1="5.7992" y2="89.057" gradientTransform="matrix(.81059 0 0 1.1685 71.234 382.11)" gradientUnits="userSpaceOnUse" xlink:href="#c"/><mask id="b" maskUnits="userSpaceOnUse"><path id="aw" d="m223.35 426.95c0 27.812-22.117 39.669-75.846 39.669-53.204 0-75.846-13.166-75.846-39.669 0-24.926 35.819-54.669 75.846-54.669 40.027 0 75.846 26.857 75.846 54.669z" fill="url(#n)" fill-rule="nonzero"/></mask><filter id="e" x="-.064589" y="-.10386" width="1.1292" height="1.2077"><feGaussianBlur id="ax" stdDeviation="4.0823794"/></filter><filter id="v"><feGaussianBlur id="ay" stdDeviation="0.15800699"/></filter><filter id="u"><feGaussianBlur id="az" stdDeviation="0.14189651"/></filter><clipPath id="x"><path id="ba" transform="matrix(.75652 0 0 .75652 -263 -374.52)" d="m612.74 661.71a99.086 99.086 0 1 1-198.17 0 99.086 99.086 0 1 1 198.17 0z" fill="#000" fill-rule="nonzero"/></clipPath></defs><g id="bb" transform="translate(176.62 -347.57)" display="none" fill="#000" opacity=".051282"><rect id="bc" x="-176" y="348.36" width="256" height="256" opacity="1"/><rect id="bd" x="96" y="348.36" width="64" height="64" opacity="1"/><rect id="be" x="96" y="428.36" width="48" height="48" opacity="1"/><rect id="bf" x="96" y="492.36" width="32" height="32" opacity="1"/><rect id="bg" x="96" y="540.36" width="22" height="22" opacity="1"/><rect id="bh" x="96" y="572.36" width="16" height="16" opacity="1"/></g><g id="bi" transform="translate(176.62 -347.57)"><g id="bj" transform="matrix(.47901 0 0 .47901 -235.21 163.03)"><path id="bk" d="m164.71 387.94c-4.6223-0.01799-9.9674 1.1014-16.094 3.6562-1.2367 0.40214-2.1423 1.4655-2.3423 2.7505s0.33939 2.5733 1.3953 3.3324c1.0559 0.75907 2.449 0.85995 3.6033 0.26093 11.029-4.5995 17.054-3.6959 21.844-0.9375s8.531 8.1088 13.094 13.438c0.77976 0.99984 2.0451 1.4914 3.2953 1.2803 1.2502-0.21116 2.284-1.091 2.6921-2.2915 0.40815-1.2005 0.12499-2.5281-0.73745-3.4575-4.2082-4.9146-8.2636-11.143-14.906-14.969-3.3213-1.9128-7.2215-3.0445-11.844-3.0625z" fill="#ffe804" fill-rule="evenodd"/><g id="bl" transform="translate(-.35355 1.9003)" fill-rule="evenodd"><path id="bm" transform="translate(-38.299 -1.3746)" d="m202.47 391.2c-3.4836 0.00424-7.7354 0.95027-13.25 3.25-1.1543 0.59902-2.5378 0.47782-3.5938-0.28125-0.30967-0.22261-0.5973-0.48103-0.8125-0.78125-0.30124 0.42665-0.5104 0.93334-0.59375 1.4688-0.20004 1.285 0.35032 2.5534 1.4062 3.3125 1.056 0.75907 2.4395 0.88027 3.5938 0.28125 11.029-4.5995 17.054-3.6959 21.844-0.9375 4.7896 2.7584 8.531 8.1088 13.094 13.438 0.77975 0.99984 2.031 1.4924 3.2812 1.2812 1.2502-0.21116 2.3106-1.112 2.7188-2.3125 0.35712-1.0504 0.15763-2.2006-0.46875-3.0938-0.52272 0.73412-1.3352 1.2518-2.25 1.4062-1.2502 0.21115-2.5015-0.28141-3.2812-1.2812-4.5628-5.3287-8.3042-10.679-13.094-13.438-2.3948-1.3792-5.1102-2.3167-8.5938-2.3125z" clip-path="url(#j)" fill="#f0b400" filter="url(#g)"/><path id="bn" transform="translate(-38.299 -1.3746)" d="m202.47 392.28c-3.4836 0.00424-7.7354 0.95027-13.25 3.25-1.1543 0.59902-2.5378 0.47782-3.5938-0.28125-0.30967-0.22261-0.5973-0.48103-0.8125-0.78125-0.30124 0.42665-0.5104 0.93334-0.59375 1.4688-0.20004 1.285 0.35032 2.5534 1.4062 3.3125 1.056 0.75907 2.4395 0.88027 3.5938 0.28125 11.029-4.5995 17.054-3.6959 21.844-0.9375 4.7896 2.7584 8.531 8.1088 13.094 13.438 0.77975 0.99984 2.031 1.4924 3.2812 1.2812 1.2502-0.21116 2.3106-1.112 2.7188-2.3125 0.35712-1.0504 0.15763-2.2006-0.46875-3.0938-0.52272 0.73412-1.3352 1.2518-2.25 1.4062-1.2502 0.21115-2.5015-0.28141-3.2812-1.2812-4.5628-5.3287-8.3042-10.679-13.094-13.438-2.3948-1.3792-5.1102-2.3167-8.5938-2.3125z" clip-path="url(#j)" fill="#f08400" filter="url(#g)"/></g><g id="bo" transform="translate(-1.2607 -5.2033)" fill="#fff" fill-opacity=".75676"><path id="bp" transform="translate(-161.86 353.45)" d="m312.88 45.687c5.0921-3.2171 15.923-6.0727 22-3.9375 8.5911 3.0189 16 11.188 16 11.188s-7.4753-10.436-16.812-12.938c-9.1918-2.4629-20.019 2.8768-21.75 3.5625-1.8062 0.71546-0.33814 2.694 0.5625 2.125z" clip-path="url(#w)" fill="#fff" fill-opacity=".67568" fill-rule="evenodd" filter="url(#f)"/></g><g id="bq" transform="translate(-1.2607 -5.2033)" fill="#fff" fill-opacity=".75676"><path id="br" d="m166.06 393.31c-5.1256 0.23823-10.077 1.8454-14.751 3.877-0.52515 0.16746-1.504 0.53878-1.1244 1.248 0.19302 0.37805 0.77549 0.36798 0.9375 0 5.0326-2.6731 10.671-4.2338 16.369-4.4375 3.0836-0.09362 6.1984 0.57212 8.8867 2.1121 1.3035 0.62752 2.5629 1.3156 3.7758 2.1067-2.9627-2.3185-6.3868-4.1587-10.146-4.728-1.3-0.2135-2.6325-0.25081-3.9482-0.17824zm15.531 5.9062c0.56019 0.40608 0.43024 0.26155 0 0z" fill="#fff" fill-opacity=".75676" fill-rule="evenodd" filter="url(#f)"/></g></g><g id="bs" transform="matrix(.62872 .026336 -.026336 .62872 -71.125 104.68)" fill-rule="nonzero"><path id="bt" d="m-107.9 410.93c3.3627-3.3021 7.6486-6.4839 12.025-8.9878 2.2008-1.2593 4.8882-1.1052 6.4063 0.92583l8.9878 12.025c1.5181 2.031 1.1052 4.8882-0.92584 6.4063l-12.025 8.9878c-2.031 1.5181-4.8882 1.1052-6.4063-0.92584l-8.9878-12.025c-1.5181-2.031-0.88336-4.6297 0.92584-6.4063z" fill="#000"/><path id="bu" d="m-102.82 407.59c-1.9707 1.5461-4.0141 3.104-5.4153 5.2144-0.1495 0.58688-0.60291 1.0563-0.49047 1.6746-0.00336 0.92777 0.0656 1.973 0.78543 2.6509 3.0175 4.1043 6.0348 8.211 9.2035 12.201 0.57204 0.5143 1.3553 0.79706 2.0475 0.9719 0.7832-0.00346 1.7116-0.06337 2.4414-0.49428 1.2399-0.76373 2.3596-1.7067 3.534-2.5656 2.7228-2.0451 5.4762-4.0506 8.1568-6.1514 0.65517-0.51462 1.4076-1.0084 1.698-1.8283 0.26513-0.59892 0.5288-1.2774 0.37525-1.904-0.047311-1.0614-0.5124-1.8984-1.189-2.6933-2.9619-3.8778-5.7566-7.4891-8.6708-11.362-1.6267-2.1616-4.0297-1.2991-6.1748-0.04936-2.2002 1.2819-4.2948 2.7612-6.3016 4.3352z" fill="url(#q)"/></g><path id="bv" transform="matrix(.39331 0 0 .46087 -162.65 350.78)" d="m246.78 224.53a116.32 37.83 0 0 1-116.32 37.83 116.32 37.83 0 0 1-116.32-37.83 116.32 37.83 0 0 1 116.32-37.83 116.32 37.83 0 0 1 116.32 37.83z" fill="url(#m)" fill-rule="nonzero" filter="url(#t)" opacity=".93243"/><path id="bw" transform="matrix(.52566 0 0 .52566 -381.29 55.953)" d="m612.74 661.71a99.086 99.086 0 0 1-99.086 99.086 99.086 99.086 0 0 1-99.086-99.086 99.086 99.086 0 0 1 99.086-99.086 99.086 99.086 0 0 1 99.086 99.086z" fill="#000" fill-rule="nonzero"/><g id="bx" transform="matrix(-.51972 0 0 -.51972 -265.45 667.36)" clip-path="url(#k)" fill="#fff" fill-rule="nonzero" opacity=".28829"><path id="by" d="m-296.74 402.1c-55.32 0-100.19 44.898-100.19 100.22 0 1.6235 0.04854 3.2391 0.125 4.8438 2.6858-52.928 46.471-95.062 100.06-95.062s97.408 42.135 100.09 95.062c0.07647-1.6047 0.125-3.2203 0.125-4.8438 0-55.32-44.898-100.22-100.22-100.22z" filter="url(#i)"/><path id="bz" d="m-296.74 399.1c-55.32 0-100.19 44.898-100.19 100.22 0 1.6235 0.04854 3.2391 0.125 4.8438 2.6858-52.928 46.471-95.062 100.06-95.062s97.408 42.135 100.09 95.062c0.07647-1.6047 0.125-3.2203 0.125-4.8438 0-55.32-44.898-100.22-100.22-100.22z" filter="url(#h)"/></g><g id="ca" transform="matrix(.51972 0 0 .51972 42.985 140.1)" clip-path="url(#k)" fill="#fff" fill-rule="nonzero" opacity=".76577"><path id="cb" d="m-296.74 402.1c-55.32 0-100.19 44.898-100.19 100.22 0 1.6235 0.04854 3.2391 0.125 4.8438 2.6858-52.928 46.471-95.062 100.06-95.062s97.408 42.135 100.09 95.062c0.07647-1.6047 0.125-3.2203 0.125-4.8438 0-55.32-44.898-100.22-100.22-100.22z" filter="url(#i)"/><path id="cc" d="m-296.74 399.1c-55.32 0-100.19 44.898-100.19 100.22 0 1.6235 0.04854 3.2391 0.125 4.8438 2.6858-52.928 46.471-95.062 100.06-95.062s97.408 42.135 100.09 95.062c0.07647-1.6047 0.125-3.2203 0.125-4.8438 0-55.32-44.898-100.22-100.22-100.22z" filter="url(#h)"/></g><path id="cd" transform="matrix(.69483 0 0 .64593 -76.829 100.8)" d="m-50.745 541.26c-32.767 0-60.535 20.675-69.932 49.188h139.83c-9.3968-28.512-37.134-49.188-69.901-49.188z" fill="url(#r)" fill-rule="nonzero" filter="url(#s)" opacity=".54505"/><path id="ce" d="m-149.19 370.97c-3.4544 3.9741-7.4968 8.4601-8.3654 14.953-0.1806 1.3501 3.2576 2.2819 3.3005 1.0422 0.2968-8.5841 5.4142-12.756 9.1528-18.56-1.0813 0.89235-3.0583 2.2476-4.0879 2.5653z" fill="url(#o)" fill-rule="evenodd" filter="url(#v)" opacity=".36036"/><path id="cf" transform="matrix(.52144 0 0 .38924 -157.83 404.66)" d="m161.91 48.887a74.645 74.645 0 0 1-74.645 74.645 74.645 74.645 0 0 1-74.645-74.645 74.645 74.645 0 0 1 74.645-74.645 74.645 74.645 0 0 1 74.645 74.645z" fill="url(#l)" fill-rule="nonzero"/><path id="cg" transform="matrix(.44748 0 0 .44748 -178.17 190.89)" d="m223.35 426.95c0 27.812-22.117 39.669-75.846 39.669-53.204 0-75.846-13.166-75.846-39.669 0-24.926 35.819-54.669 75.846-54.669 40.027 0 75.846 26.857 75.846 54.669z" fill="url(#a)" fill-rule="nonzero" mask="url(#b)"/><path id="ch" transform="matrix(.43557 0 0 .45283 -176.42 188.89)" d="m223.35 426.95c0 27.812-22.117 39.669-75.846 39.669-53.204 0-75.846-13.166-75.846-39.669 0-24.926 35.819-54.669 75.846-54.669 40.027 0 75.846 26.857 75.846 54.669z" fill="url(#a)" fill-rule="nonzero" filter="url(#e)" mask="url(#b)" opacity=".27928"/><path id="ci" transform="matrix(.41461 0 0 .43104 -173.33 197)" d="m223.35 426.95c0 27.812-22.117 39.669-75.846 39.669-53.204 0-75.846-13.166-75.846-39.669 0-24.926 35.819-54.669 75.846-54.669 40.027 0 75.846 26.857 75.846 54.669z" fill="url(#a)" fill-rule="nonzero" filter="url(#e)" mask="url(#b)" opacity=".28829"/><path id="cj" transform="matrix(.69483 0 0 .69483 -198.55 316.18)" d="m90.562 58.999s-9.471 13.628-15.5 17.564c-1.3528 0.88313-4.5049 3.306-5.5139 2.0442-0.90944-1.1373 1.6145-4.8135 1.6145-4.8135 6.4515-7.0083 13.194-11.623 19.399-14.795z" clip-path="url(#x)" fill="url(#p)" fill-rule="evenodd" filter="url(#u)"/></g></svg>
