<?xml version="1.0" encoding="UTF-8"?>
<svg version="1.1" viewBox="0 0 64 64" xmlns="http://www.w3.org/2000/svg"><rect x="16" y="14" width="32" height="42" rx="2.5" ry="2.5" opacity=".2"/><rect x="16" y="13" width="32" height="42" rx="2.5" ry="2.5" fill="#8e8e8e"/><rect x="6" y="10" width="52" height="40" rx="2.5" ry="2.5" opacity=".2"/><path d="m6 44v2.5c0 1.385 1.115 2.5 2.5 2.5h47c1.385 0 2.5-1.115 2.5-2.5v-2.5h-52z" fill="#3f3f3f"/><path d="m8.5 9c-1.385 0-2.5 1.115-2.5 2.5v32.5h52v-32.5c0-1.385-1.115-2.5-2.5-2.5z" fill="#28c264"/><rect x="6" y="44" width="52" height="1" opacity=".2"/><path d="m8.5 9c-1.385 0-2.5 1.115-2.5 2.5v1c0-1.385 1.115-2.5 2.5-2.5h47c1.385 0 2.5 1.115 2.5 2.5v-1c0-1.385-1.115-2.5-2.5-2.5h-47z" fill="#fff" opacity=".2"/><g transform="translate(-5.1215 5.5872)"><path d="m25.418 15.413h16.404c1.3 0 1.3 1.2857 1.3 1.2857v15.429c0 1.285-1.3 1.285-1.3 1.285h-16.4s-1.3 0-1.3-1.2857v-15.428s0-1.286 1.3-1.286zm25.704 2v15l-8-8z" opacity=".2"/><path d="m25.418 14.413h16.404c1.3 0 1.3 1.2857 1.3 1.2857v15.429c0 1.285-1.3 1.285-1.3 1.285h-16.4s-1.3 0-1.3-1.2857v-15.428s0-1.286 1.3-1.286zm25.704 2v15l-8-8z" fill="#fff"/></g></svg>
