<?xml version="1.0" encoding="UTF-8"?>
<svg id="a" width="48" height="48" enable-background="new 0 0 280.22 69.387" overflow="visible" version="1.0" viewBox="0 0 280.22 69.387" xml:space="preserve" xmlns="http://www.w3.org/2000/svg" xmlns:xlink="http://www.w3.org/1999/xlink">











<g id="b" transform="matrix(1.0683 0 0 1.0683 -4.1838 -.36232)"><path id="c" d="m146.01-12.605c-14.708 0-36.227-11.983-57.2-11.983-20.973 0-33.5 11.983-35.681 13.618-2.178 1.6342-3.5431 7.8964 2.9965 5.9903 6.5396-1.9061 11.983-1.9061 22.335-1.9061 10.352 0 35.137 14.164 60.197 14.164s46.03-19.336 50.66-26.147c4.6307-6.8115 0.27192-8.9895-3.2684-7.3526-3.543 1.6342-26.419 13.618-40.039 13.618z" fill="#ff3131"/><path id="d" d="m209.91 24.707c-15.453 0-38.06-11.981-60.093-11.981-22.033 0-35.197 11.981-37.486 13.618-2.2895 1.6369-3.7225 7.8964 3.1461 5.9903 6.8686-1.9061 12.59-1.9061 23.464-1.9061s36.915 14.164 63.239 14.164c26.324 0 48.36-19.336 53.225-26.145 4.8646-6.8115 0.28551-8.9922-3.4343-7.3553-3.7198 1.6369-27.752 13.615-42.06 13.615z" fill="#319831"/><path id="e" d="m120.98 65.881c-16.024 0-39.468-12.946-62.317-12.946-22.849 0-36.502 12.946-38.876 14.711-2.3738 1.7647-3.8585 8.53 3.263 6.4689 7.1242-2.0584 13.057-2.0584 24.334-2.0584 11.276 0 38.283 15.298 65.586 15.298 27.3 0 50.149-20.886 55.196-28.241 5.0467-7.3553 0.29639-9.7074-3.5621-7.9426-3.8585 1.7647-28.785 14.711-43.623 14.711z" fill="#3232cc"/></g>
</svg>
