<?xml version="1.0" encoding="UTF-8"?>
<svg viewBox="0 0 294.61 294.61" xmlns="http://www.w3.org/2000/svg"><path id="a" d="m20.282 25.276v25.508l11.66 11.66h4.4655v48.954l-35.907 35.907 35.907 35.907v67.875l12.597 12.597h34.061l16.552-17.261 47.688 47.688 41.656-41.656h85.393l8.7287-26.186h-5.6517l11.775-35.324-11.397-15.542h-11.796l28.097-28.097-50.766-50.766 43.995-45.879v-25.384l-11.66-11.66h-96.352l-9.4529 9.4529-22.569-22.569-15.626 15.626-2.51-2.51h-97.227z" fill="#fff"/><g id="b"><path id="c" d="m287.63 147.3-140.33-140.33-140.33 140.33 140.33 140.33 45.447-45.447h-21.876l16.955-50.865h-5.6517l1.8839-5.6517h20.723l5.6517 5.6517h5.6517l5.6517-5.6517h16.955l5.2864 5.2864z" fill="#000"/><path id="d" d="m273.47 147.3-126.16-126.16-126.16 126.16 126.16 126.16 31.281-31.281h-7.7101l16.955-50.865h-5.6517l1.8839-5.6517h20.723l5.6517 5.6517h5.6517l5.6517-5.6517h13.362z" fill="#093"/><path id="e" d="m147.3 21.143v-8.4785l-134.64 134.64h8.4785z" fill="#87ff3c" stroke="#000" stroke-width=".216"/><path id="f" d="m273.47 147.3h8.4785l-134.64-134.64v8.4785z" fill="#3edc3c" stroke="#000" stroke-width=".216"/><path id="g" d="m235.1 185.67h3.5933l2.4426 2.4426 40.807-40.807h-8.4785zm-87.798 87.798v8.4785l39.759-39.759h-8.4785z" fill="#0d493c" stroke="#000" stroke-width=".216"/><path id="h" d="m21.143 147.3h-8.4785l134.64 134.64v-8.4785z" fill="#26973c" stroke="#000" stroke-width=".216"/></g><g id="i"><path id="j" d="m24.789 27.143 9.0192-9.0192h93.493l9.0192 9.0192v21.774l-9.0192 9.0192h-5.1683v59.061l59.061-59.061-9.0192-9.0192v-21.774l9.0192-9.0192h92.618l9.0192 9.0192v21.705l-201.69 210.33h-30.271l-10.894-10.894v-190.35h-6.1683l-9.0192-9.0192z" fill="#000"/><path id="k" d="m30.477 29.499 5.6875-5.6875h88.781l5.6875 5.6875v17.062l-5.6875 5.6875h-8.5v78.479l78.479-78.479h-11.375l-5.6875-5.6875v-17.062l5.6875-5.6875h87.906l5.6875 5.6875v17.062l-198.43 206.93h-25.49l-6.625-6.625v-194.61h-10.438l-5.6875-5.6875z" fill="#fff" stroke="#000" stroke-width=".216"/><path id="l" d="m130.63 29.499v17.062l-5.6875 5.6875h-8.5v78.479l-10.438 21.812v-105.98h16.582l2.3558-2.3558v-12.351l-2.3558-2.3558z" fill="#7f7f7f" stroke="#000" stroke-width=".216"/><path id="m" d="m194.92 52.249h-11.375v-8.0433l2.3558 2.3558h14.707z" fill="#7f7f7f" stroke="#000" stroke-width=".216"/><path id="n" d="m277.14 29.499v17.062l-198.43 206.93h-25.49v-8.0433l2.3558 2.3558h17.446l198.43-206.93v-9.0192l-2.3558-2.3558z" fill="#7f7f7f" stroke="#000" stroke-width=".216"/><path id="o" d="m46.602 52.249h-10.438v-8.0433l2.3558 2.3558h14.707z" fill="#7f7f7f" stroke="#000" stroke-width=".216"/><path id="p" d="m36.164 31.855 2.3558-2.3558h84.07l2.3558 2.3558v12.351l-2.3558 2.3558h-16.582v105.98l94.604-94.604v-11.375h-14.707l-2.3558-2.3558v-12.351l2.3558-2.3558h83.195l2.3558 2.3558v9.0192l-198.43 206.93h-17.446l-2.3558-2.3558v-198.88h-14.707l-2.3558-2.3558z" fill="#ccc" stroke="#000" stroke-width=".216"/></g><g id="q"><path id="r" d="m173.71 177.23 6.7058-5.0293 5.2093-15.628-5.1153-7.673h-16.243l-6.7058 5.0293-5.2093 15.628 5.1153 7.673zm-12.844 53.619 16.955-50.865h-34.597l-5.6756 17.027h5.6517l-16.955 50.865h34.597l5.6756-17.027zm42.388 0h-5.6517l7.5117-22.535h7.7906l-13.187 39.562h34.597l5.6756-17.027h-5.6517l7.5117-22.535h7.7906l-13.187 39.562h34.597l5.6756-17.027h-5.6517l13.035-39.105-8.6243-11.76h-22.193l-5.6517 5.6517h-0.94001l-5.6517-5.6517h-21.667l-5.6517 5.6517h-0.94001l-5.6517-5.6517h-27.178l-5.6756 17.027h5.6517l-16.955 50.865h34.597z" fill="#000"/><path id="s" d="m134.14 242.19 16.955-50.865h-5.6517l1.8839-5.6517h22.607l-16.955 50.865h5.6517l-1.8839 5.6517zm24.491-73.472 3.7678-11.303 3.7678-2.8258h11.303l1.8839 2.8258-3.7678 11.303-3.7678 2.8258h-11.303zm12.245 73.472 16.955-50.865h-5.6517l1.8839-5.6517h20.723l5.6517 5.6517h5.6517l5.6517-5.6517h16.955l5.6517 5.6517h5.6517l5.6517-5.6517h16.955l5.1807 7.0646-14.6 43.801h5.6517l-1.8839 5.6517h-22.607l13.187-39.562h-19.781l-11.303 33.91h5.6517l-1.8839 5.6517h-22.607l13.187-39.562h-19.781l-11.303 33.91h5.6517l-1.8839 5.6517z" fill="#ccc"/></g></svg>
