<?xml version="1.0" encoding="UTF-8"?>
<svg version="1.1" viewBox="0 0 48 48" xmlns="http://www.w3.org/2000/svg" xmlns:xlink="http://www.w3.org/1999/xlink"><defs><linearGradient id="a"><stop stop-color="#fff" stop-opacity="0" offset="0"/><stop stop-color="#fff" offset="1"/></linearGradient><linearGradient id="b" x1="42.483" x2="14.753" y1="35.069" y2="4.339" gradientTransform="matrix(.9761 0 0 .9761 43.296 .61564)" gradientUnits="userSpaceOnUse" xlink:href="#a"/><linearGradient id="e" x1="11.587" x2="31.626" y1="5.757" y2="35.134" gradientTransform="matrix(1.0801 0 0 1.0801 -2.0147 1002.3)" gradientUnits="userSpaceOnUse"><stop stop-color="#23232b" offset="0"/><stop stop-color="#332e56" stop-opacity=".36863" offset=".88"/><stop stop-color="#302e51" stop-opacity=".17647" offset="1"/></linearGradient><linearGradient id="d" x1="23.926" x2="31.169" y1="1011.6" y2="1026.1" gradientTransform="matrix(1.1088 0 0 1.1088 -1.7722 -110.98)" gradientUnits="userSpaceOnUse"><stop stop-color="#424242" offset="0"/><stop stop-color="#424242" stop-opacity=".32751" offset="1"/></linearGradient><linearGradient id="c" x1="42.483" x2="14.753" y1="35.069" y2="4.339" gradientTransform="matrix(.9761 0 0 .9761 -16.704 .61564)" gradientUnits="userSpaceOnUse" xlink:href="#a"/></defs><g transform="translate(0 -1004.4)"><path d="m23.975 1011.4a21.875 21.875 0 0 0-21.299 16.979 21.875 21.875 0 0 0 21.299 17.011 21.875 21.875 0 0 0 21.299-16.979 21.875 21.875 0 0 0-21.299-17.011z" clip-rule="nonzero" color="#000000" color-rendering="auto" enable-background="accumulate" fill="#cd3585" fill-rule="nonzero" image-rendering="auto" shape-rendering="auto" solid-color="#000000" style="isolation:auto;mix-blend-mode:normal"/><path d="m2.6778 1028.4a21.875 21.875 0 0 0 21.298 17.004 21.875 21.875 0 0 0 21.298-16.977h-0.27318a21.875 21.875 0 0 1-21.024 16.001 21.875 21.875 0 0 1-21.027-16.028h-0.27109z" clip-rule="nonzero" color="#000000" color-rendering="auto" enable-background="accumulate" fill="#161e25" fill-rule="nonzero" image-rendering="auto" opacity=".3" shape-rendering="auto" solid-color="#000000" style="isolation:auto;mix-blend-mode:normal"/><path d="m23.975 1011.5c-10.197 0.013-19.027 6.9574-21.293 16.9 0.0016 0.01 0.0025 0.018 0.0042 0.025h0.26067c2.6426-9.3858 11.227-15.927 21.029-15.949 9.7913 0.022 18.376 6.5472 21.016 15.976h0.27526c-2.2903-9.915-11.115-16.941-21.291-16.952z" clip-rule="nonzero" color="#000000" color-rendering="auto" enable-background="accumulate" fill="#fff" fill-rule="nonzero" image-rendering="auto" opacity=".3" shape-rendering="auto" solid-color="#000000" style="isolation:auto;mix-blend-mode:normal"/><circle cx="23.8" cy="1028.2" r="12.363" clip-rule="nonzero" color="#000000" color-rendering="auto" enable-background="accumulate" fill="#f7f7f7" fill-rule="nonzero" image-rendering="auto" shape-rendering="auto" solid-color="#000000" style="isolation:auto;mix-blend-mode:normal"/><path d="m17.14 1022.6-4.2638 7.987c1.1241 5.1944 5.7159 8.9037 11.031 8.9105 4.6005 0.051 9.26-3.7282 10.676-7.0579l-3.4882-0.1768-5.3933-5.3338-3.9544 3.5534z" fill="url(#e)" fill-rule="evenodd" opacity=".391"/><circle cx="30.542" cy="1024.6" r="2.61" clip-rule="nonzero" color="#000000" color-rendering="auto" enable-background="accumulate" fill="url(#d)" fill-rule="nonzero" image-rendering="auto" opacity=".458" shape-rendering="auto" solid-color="#000000" style="isolation:auto;mix-blend-mode:normal"/><path d="m23.8 1015.8a12.363 12.363 0 0 0-12.362 12.362 12.363 12.363 0 0 0 4.1654 9.2395 12.363 12.363 0 0 1-3.1693-8.2433 12.363 12.363 0 0 1 12.362-12.362 12.363 12.363 0 0 1 8.1966 3.1226 12.363 12.363 0 0 0-9.1928-4.1188z" clip-rule="nonzero" color="#000000" color-rendering="auto" enable-background="accumulate" image-rendering="auto" opacity="0" shape-rendering="auto" solid-color="#000000" stroke-width="2.8" style="isolation:auto;mix-blend-mode:normal"/><path d="m23.8 1015.8a12.363 12.363 0 0 0-12.362 12.362 12.363 12.363 0 0 0 3.572 8.6869 12.363 12.363 0 0 1-3.1323-8.2024 12.363 12.363 0 0 1 12.362-12.362 12.363 12.363 0 0 1 8.7822 3.6675 12.363 12.363 0 0 0-9.2219-4.1519z" clip-rule="nonzero" color="#000000" color-rendering="auto" enable-background="accumulate" fill="#161e25" fill-rule="nonzero" image-rendering="auto" opacity=".242" shape-rendering="auto" solid-color="#000000" style="isolation:auto;mix-blend-mode:normal"/><path d="m23.977 1015.8a12.539 12.539 0 0 0-0.10311 0 12.363 12.363 0 0 1 12.288 12.358 12.363 12.363 0 0 1-12.362 12.366 12.363 12.363 0 0 1-12.358-12.261 12.539 12.539 0 0 0-0.0038 0.073 12.539 12.539 0 0 0 12.539 12.539 12.539 12.539 0 0 0 12.537-12.539 12.539 12.539 0 0 0-12.537-12.537z" clip-rule="nonzero" color="#000000" color-rendering="auto" enable-background="accumulate" fill="#fff" fill-rule="nonzero" image-rendering="auto" opacity=".367" shape-rendering="auto" solid-color="#000000" style="isolation:auto;mix-blend-mode:normal"/></g><g clip-rule="nonzero" fill-rule="nonzero" shape-rendering="auto"><path d="m83.975 7.0452a21.875 21.875 0 0 0-21.299 16.979 21.875 21.875 0 0 0 21.299 17.011 21.875 21.875 0 0 0 21.299-16.979 21.875 21.875 0 0 0-21.299-17.011z" color="#000000" color-rendering="auto" enable-background="accumulate" fill="url(#b)" image-rendering="auto" opacity=".45" solid-color="#000000" style="isolation:auto;mix-blend-mode:normal"/><path d="m23.975 7.0452a21.875 21.875 0 0 0-21.299 16.979 21.875 21.875 0 0 0 21.299 17.011 21.875 21.875 0 0 0 21.299-16.979 21.875 21.875 0 0 0-21.299-17.011z" color="#000000" color-rendering="auto" enable-background="accumulate" fill="url(#c)" image-rendering="auto" opacity=".45" solid-color="#000000" style="isolation:auto;mix-blend-mode:normal"/></g></svg>
