<?xml version="1.0" encoding="UTF-8"?>
<svg id="f" version="1.1" viewBox="0 0 64 64" xmlns="http://www.w3.org/2000/svg" xmlns:xlink="http://www.w3.org/1999/xlink"><defs id="g"><linearGradient id="a"><stop id="h" stop-opacity=".25121" offset="0"/><stop id="i" stop-color="#fff" stop-opacity="0" offset="1"/></linearGradient><linearGradient id="e" x1="448.16" x2="448.16" y1="615.16" y2="563.45" gradientTransform="translate(.069028 .29773)" gradientUnits="userSpaceOnUse"><stop id="j" stop-color="#cf5e19" offset="0"/><stop id="k" stop-color="#e77936" stop-opacity="0" offset="1"/></linearGradient><linearGradient id="d" x1="45.289" x2="45.289" y1="95.746" y2="48.769" gradientTransform="matrix(.36986 0 0 .36986 452.13 577.36)" gradientUnits="userSpaceOnUse"><stop id="l" stop-color="#132a43" stop-opacity=".50196" offset="0"/><stop id="m" stop-color="#133e6b" stop-opacity="0" offset="1"/></linearGradient><linearGradient id="c" x1="33.01" x2="33.01" y1="63.644" y2="1.4182" gradientTransform="translate(419.74 553.03)" gradientUnits="userSpaceOnUse" xlink:href="#a"/><linearGradient id="b" x1="451.07" x2="451.07" y1="614.42" y2="555.28" gradientTransform="translate(-.95876 -.0003923)" gradientUnits="userSpaceOnUse" xlink:href="#a"/></defs><g id="n" transform="translate(-420.7 -553.03)"><g id="o" transform="matrix(.45592 0 0 .45592 235.24 380.98)"></g><path id="p" d="m474.36 586.78c-0.55681-0.0185-3.0983 0.0122-3.6152 0.0332l-0.5 26.248c1.5681-0.27894 5.6298-0.82877 7.1777-1.123 2.649-1.0789 2.8683-4.3996 4.4062-6.457 1.1392-2.3728 2.5898-4.8842 2.7363-7.4941-1.915-3.939-4.962-7.2114-7.8047-10.477-0.69101-0.52565-1.5461-0.69537-2.4004-0.73047z" fill="#fff" fill-rule="evenodd"/><path id="q" d="m428.68 557.34c-12.065 13.02-9.8943 35.673 4.3555 46.213 12.185 9.9999 31.402 8.6769 42.408-2.4961-3.328-3.273-6.3359-2.5373-10.25 2.6895-12.251 8.6528-35.18-4.8373-38.596-19.105-2.3407-7.898 0.13556-16.738 5.7871-22.643-2.3251-0.44683-1.2404-5.6472-3.7051-4.6582z" color="#000000" color-rendering="auto" enable-background="accumulate" fill="#fff" image-rendering="auto" shape-rendering="auto" solid-color="#000000" style="isolation:auto;mix-blend-mode:normal"/><path id="r" d="m450.95 607.54c-6.3575 0.62981-14.896 0.0987-19.022 5.623-2.6888 5.0987 4.1297 3.3403 7.5653 3.5491h34.677c0.71791-7.1581-8.6468-8.2078-14.142-8.8445-3.0141-0.29926-6.0487-0.39144-9.078-0.32764z" color="#000000" color-rendering="auto" enable-background="accumulate" fill="#fff" image-rendering="auto" shape-rendering="auto" solid-color="#000000" style="isolation:auto;mix-blend-mode:normal"/><rect id="s" x="450.84" y="607.39" width="3.8722" height="4.8402" rx="1.6474e-7" color="#000000" color-rendering="auto" enable-background="accumulate" fill="#e77936" fill-opacity=".97255" image-rendering="auto" shape-rendering="auto" solid-color="#000000" style="isolation:auto;mix-blend-mode:normal"/><ellipse id="t" cx="452.65" cy="578.35" rx="23.112" ry="23.112" color="#000000" color-rendering="auto" enable-background="accumulate" fill="#fff" image-rendering="auto" shape-rendering="auto" solid-color="#000000" style="isolation:auto;mix-blend-mode:normal"/><rect id="u" transform="matrix(.70711 -.70711 .70711 .70711 0 0)" x="-92.969" y="697.05" width="7.639" height="64.495" rx="3.25e-7" ry="0" color="#000000" color-rendering="auto" enable-background="accumulate" fill="#fff" image-rendering="auto" shape-rendering="auto" solid-color="#000000" style="isolation:auto;mix-blend-mode:normal"/><path id="v" d="m432.55 553.23-5.4023 5.4004 0.23438 0.23438c-10.576 13.199-8.0547 34.55 5.6562 44.691 2.5616 2.1022 5.435 3.6994 8.4766 4.8144-3.7914 0.58348-7.3395 1.7921-9.582 4.7949-2.6888 5.0987 4.1289 3.34 7.5644 3.5488h34.678c0.16871-1.6822-0.22443-3.0241-0.98828-4.1055 1.6366-0.24367 3.32-0.49414 4.2344-0.66797 2.649-1.0789 2.8683-4.3996 4.4062-6.457 1.1392-2.3728 2.5898-4.8842 2.7363-7.4941-1.915-3.939-4.962-7.2114-7.8047-10.477-0.69101-0.52565-1.5461-0.69536-2.4004-0.73047-0.0325-1e-3 -0.16573 3e-3 -0.21094 2e-3 1.0598-2.6838 1.6076-5.5423 1.6152-8.4277-3.3e-4 -12.764-10.347-23.111-23.111-23.111-4.8975 0.01-9.6651 1.5756-13.615 4.4707l-6.4863-6.4863zm-1.0469 9.7559 2.1797 2.1797c-2.6946 3.8714-4.1402 8.4746-4.1426 13.191-7.5e-4 12.765 10.347 23.113 23.111 23.113 4.7138-0.01 9.312-1.4607 13.178-4.1582l2.8262 2.8262c-1.089 0.77047-2.229 1.9689-3.459 3.6113-12.251 8.6528-35.18-4.8373-38.596-19.105-2.2144-7.4717-0.11532-15.783 4.9023-21.658zm38.891 42.166-0.0976 5.1035c-1.905-0.97216-4.2441-1.5135-6.4844-1.875 2.3068-0.81954 4.5203-1.8974 6.582-3.2285z" fill="url(#c)" fill-rule="evenodd"/><path id="w" d="m430.2 558.64c-4.7776 5.457-7.4172 12.46-7.4305 19.712 0 16.574 13.436 30.009 30.009 30.009 7.2553-8e-3 14.262-2.6431 19.724-7.4191l-3.5224-3.5224c-4.5208 3.851-10.263 5.9705-16.201 5.9803-13.834 0-25.048-11.214-25.048-25.048 1e-3 -5.942 2.1163-11.69 5.9652-16.217z" color="#000000" color-rendering="auto" enable-background="accumulate" fill="#e77936" image-rendering="auto" shape-rendering="auto" solid-color="#000000" style="isolation:auto;mix-blend-mode:normal"/><rect id="x" transform="matrix(.70711 -.70711 .70711 .70711 0 0)" x="-91.248" y="698.66" width="4.7278" height="60.745" rx="2.0114e-7" ry="0" color="#000000" color-rendering="auto" enable-background="accumulate" fill="#e77936" image-rendering="auto" shape-rendering="auto" solid-color="#000000" style="isolation:auto;mix-blend-mode:normal"/><ellipse id="y" cx="452.65" cy="578.35" rx="21.237" ry="21.237" color="#000000" color-rendering="auto" enable-background="accumulate" fill="#e77935" image-rendering="auto" shape-rendering="auto" solid-color="#000000" style="isolation:auto;mix-blend-mode:normal"/><path id="z" d="m472.14 615.07h-19.361-19.361c0-3.8722 9.6804-5.8082 19.361-5.8082s19.361 1.9361 19.361 5.8082z" color="#000000" color-rendering="auto" enable-background="accumulate" fill="#e77936" image-rendering="auto" shape-rendering="auto" solid-color="#000000" style="isolation:auto;mix-blend-mode:normal"/><path id="aa" d="m432.85 555.21-3.3438 3.3418 0.42187 0.42188c-4.5994 5.4083-7.1412 12.274-7.1543 19.383 0 15.923 12.403 28.943 28.074 29.941v1.0215c-8.9913 0.24204-17.426 2.147-17.426 5.7598h19.361 19.361c0-3.6128-8.4345-5.5177-17.426-5.7598v-1.0254c6.415-0.42157 12.539-2.8912 17.459-7.0703l0.28125 0.28125 3.3438-3.3438-6.5684-6.5684a21.237 21.237 0 0 0 4.6562-13.236 21.237 21.237 0 0 0-21.236-21.236 21.237 21.237 0 0 0-13.25 4.6445l-6.5547-6.5547zm0.58593 7.2715 2.6387 2.6387a21.237 21.237 0 0 0-4.6562 13.236 21.237 21.237 0 0 0 21.236 21.238 21.237 21.237 0 0 0 13.25-4.6445l2.7402 2.7402c-4.4682 3.675-10.067 5.7053-15.861 5.7148-13.834 0-25.049-11.215-25.049-25.049 9.8e-4 -5.7972 2.0287-11.401 5.7012-15.875z" color="#000000" color-rendering="auto" enable-background="accumulate" fill="url(#e)" image-rendering="auto" shape-rendering="auto" solid-color="#000000" style="isolation:auto;mix-blend-mode:normal"/><path id="ab" d="m460.96 569.24s-3.2492-3.151-8.8108-3.1576c-5.5615-7e-3 -11.131 6.7007-11.138 12.365-7e-3 5.6648 3.2386 12.173 11.843 12.183 8.6046 9e-3 12.598-4.496 11.141-14.988l-10.602 3.3444 1.9913 2.1004 1.2596-0.3132s2.0956 2.6251-1.053 3.041c-3.1485 0.41587-5.9808-0.4267-6.3958-4.4136-0.41503-3.9868 2.7364-6.8155 6.4072-5.2376z" fill="#fff" fill-rule="evenodd"/><g id="ac" transform="translate(-.95876 -.0003923)"><path id="ad" d="m457.14 602.06c0.10664 0.89458 6.3934 9.7143 7.311 10.141 0.91757 0.42718 13.266-1.2739 14.004-1.9078s5.837-10.908 5.6634-11.949-6.7422-9.4868-7.7228-9.9406c-0.9806-0.45384-13.295 0.34712-14.21 0.80328-1.035 0.51622-5.1522 11.958-5.0456 12.853z" fill="#1a5694" fill-rule="evenodd"/><path id="ae" d="m458.78 602.09c0.11275 0.93259 5.7492 8.3389 6.5905 8.7607 0.84132 0.42186 11.295-1.1159 11.951-1.6985s5.5404-10.261 5.1272-11.373c-0.41317-1.1126-5.8717-7.749-6.8847-8.1148-1.013-0.36576-11.091 0.0164-12.127 0.71516-1.0356 0.6987-4.7701 10.778-4.6573 11.711z" fill="#3f8cdf" fill-rule="evenodd"/><path id="af" d="m465.2 611.24c-0.914-0.0458 4.942-11.955 5.4985-12.506 0.55651-0.55089 11.715-1.2648 12.351-0.62854s-5.0079 11.156-5.5868 11.597c-0.57891 0.44117-11.349 1.5828-12.263 1.537z" fill="#2e66a4" fill-rule="evenodd"/><path id="ag" d="m462.8 590.82c2.1223 2.995 6.6667 7.4662 6.8991 8.5349 0.23237 1.0687-3.432 7.7654-5.4095 11.714l1.8056 0.53974c1.2957-4.3166 3.9415-11.254 4.8396-11.952s11.864-1.4118 12.648-0.86596-1.0862-1.6174-1.0862-1.6174c-3.8502 0.79988-11.17 1.2426-12.077 0.97723s-4.5822-5.8698-6.5902-8.3341z" fill="#1a5694" fill-rule="evenodd"/><path id="ah" d="m473.89 594.85c-1.9332-0.15828-3.0605-2.5092-1.1271-2.3536 1.9334 0.15558 3.0603 2.5119 1.1271 2.3536z" color="#000000" enable-background="accumulate" fill="#c0d5eb"/><path id="ai" d="m464.44 595.63c0.16007 1.933-1.9748 3.4297-2.1376 1.4969-0.16276-1.9328 1.9775-3.43 2.1376-1.4969z" color="#000000" enable-background="accumulate" fill="#c0d5eb"/><path id="aj" d="m462.26 600.36c0.16006 1.933-1.9748 3.4297-2.1376 1.4969s1.9775-3.43 2.1376-1.4969z" color="#000000" enable-background="accumulate" fill="#c0d5eb"/><path id="ak" d="m467.46 599.74c0.16007 1.933-1.9748 3.4297-2.1376 1.4969-0.16276-1.9328 1.9775-3.43 2.1376-1.4969z" color="#000000" enable-background="accumulate" fill="#c0d5eb"/><path id="al" d="m465.22 604.52c0.16006 1.933-1.9748 3.4297-2.1376 1.4969s1.9775-3.43 2.1376-1.4969z" color="#000000" enable-background="accumulate" fill="#c0d5eb"/><path id="am" d="m477.29 606.69c-0.17034 1.9322-2.5283 3.0448-2.3606 1.1124 0.16764-1.9324 2.531-3.0446 2.3606-1.1124z" color="#000000" enable-background="accumulate" fill="#97bbdf"/><path id="an" d="m473.87 602.05c-0.28209 1.919-2.7006 2.893-2.4212 0.97363 0.27942-1.9194 2.7032-2.8927 2.4212-0.97363z" color="#000000" enable-background="accumulate" fill="#97bbdf"/><path id="ao" d="m457.14 602.06c0.10663 0.89458 6.3934 9.7143 7.311 10.141s13.266-1.2739 14.004-1.9078 5.837-10.908 5.6634-11.949-6.7422-9.4868-7.7228-9.9406c-0.9806-0.45384-13.295 0.34712-14.21 0.80328-1.035 0.51622-5.1522 11.958-5.0456 12.853z" fill="url(#d)" fill-rule="evenodd"/></g><path id="ap" d="m460.96 569.24s-3.2492-3.151-8.8108-3.1576c-5.5615-7e-3 -11.131 6.7007-11.138 12.365-7e-3 5.6648 3.2386 12.173 11.843 12.183 8.6046 9e-3 12.598-4.496 11.141-14.988l-10.602 3.3444 1.9913 2.1004 1.2596-0.3132s2.0956 2.6251-1.053 3.041c-3.1485 0.41588-5.9808-0.4267-6.3958-4.4136-0.41503-3.9868 2.7364-6.8155 6.4072-5.2376z" fill="url(#b)" fill-rule="evenodd"/></g></svg>
