<?xml version="1.0" encoding="UTF-8"?>
<svg version="1" viewBox="0 0 64 64" xmlns="http://www.w3.org/2000/svg"><path d="m19.411 20.411-2.819 3.1516 22.916 22.065c1.918 5.8528 5.7433 10.034 9.7487 14.06 1.4489 1.5661 1.4994 1.8185 3.0414 0.27649l6.6667-6.6667c1.542-1.542 1.2896-1.5925-0.27649-3.0414-4.0263-4.0054-8.2096-7.8288-14.062-9.7468l-22.063-22.918z" opacity=".2"/><path d="m19.411 19.411-2.819 3.1516 22.916 22.065c1.918 5.8528 5.7433 10.034 9.7487 14.06 1.4489 1.5661 1.4994 1.8185 3.0414 0.27649l6.6667-6.6667c1.542-1.542 1.2896-1.5925-0.27649-3.0414-4.0263-4.0054-8.2096-7.8288-14.062-9.7468l-22.063-22.918z" fill="#69787e"/><path d="m19.41 19.41 3.1514-2.818 22.064 22.916c5.8528 1.918 10.036 5.7436 14.063 9.749 1.5661 1.4489 1.8185 1.4982 0.27649 3.0401l-3.3342 3.3333z" fill="#394f63"/><path d="m22.562 16.594-3.1523 2.8164 0.52734 0.52734 2.625-2.3438 22.062 22.914c5.8528 1.918 10.036 5.7446 14.062 9.75 0.51224 0.4739 0.86969 0.80526 1.0703 1.0898 0.43833-0.68756 0.059841-1.0443-1.0703-2.0898-4.0263-4.0054-8.2097-7.832-14.062-9.75l-22.062-22.914z" fill="#fff" opacity=".1"/><rect transform="rotate(-45)" x="-19.06" y="22.87" width="36.703" height="12.234" rx="3.15" ry="3.15" opacity=".2"/><rect transform="rotate(-45)" x="-18.35" y="22.17" width="36.703" height="12.234" rx="3.15" ry="3.15" fill="#f2654f"/><path d="m31.432 6.4839-25.949 25.949 3.0852 3.0852 25.949-25.949z" opacity=".1"/><path d="m31.432 5.483-25.949 25.949 3.0852 3.0852 25.949-25.949z" fill="#69787e"/><path d="m19.348 12-7.3477 7.3477v8.6523h8.6523l7.3477-7.3477v-8.6523z" fill="#4b565a"/><path d="m26.082 13.959-0.9972 0.99721 0.9972 0.9972 0.99721-0.9972zm-1.9944 1.9944-0.9972 0.99721 0.9972 0.9972 0.99721-0.9972zm-1.9944 1.9944-0.9972 0.99721 0.9972 0.9972 0.9972-0.9972zm-1.9944 1.9944-0.9972 0.99721 0.9972 0.99721 0.99721-0.99721zm-1.9944 1.9944-0.99996 0.99721 0.99996 0.99996 0.99721-0.99996zm-1.9972 1.9972-0.99721 0.9972 0.99721 0.99721 0.9972-0.99721zm-1.9944 1.9944-0.99721 0.9972 0.99721 0.99721 0.9972-0.99721z" opacity=".2"/><path d="m26.082 12.959-0.9972 0.99721 0.9972 0.9972 0.99721-0.9972zm-1.9944 1.9944-0.9972 0.99721 0.9972 0.9972 0.99721-0.9972zm-1.9944 1.9944-0.9972 0.99721 0.9972 0.9972 0.9972-0.9972zm-1.9944 1.9944-0.9972 0.99721 0.9972 0.9972 0.99721-0.9972zm-1.9944 1.9944-0.99996 0.99721 0.99996 0.99996 0.99721-0.99996zm-1.9972 1.9972-0.99721 0.9972 0.99721 0.99721 0.9972-0.99721zm-1.9944 1.9944-0.99721 0.9972 0.99721 0.99721 0.9972-0.99721z" fill="#40c900"/><path d="m28.652 4c-0.80521 0-1.6135 0.30879-2.2305 0.92578l-21.496 21.496c-0.7435 0.7435-1.0262 1.7583-0.87109 2.7188 0.099514-0.62793 0.38454-1.2322 0.87109-1.7188l21.496-21.496c0.61699-0.61699 1.4253-0.92578 2.2305-0.92578 0.8052 0 1.6096 0.30879 2.2266 0.92578l4.1953 4.1953c0.48655 0.48655 0.77158 1.0908 0.87109 1.7188 0.15511-0.96044-0.1276-1.9752-0.87109-2.7188l-4.1953-4.1953c-0.61699-0.61699-1.4214-0.92578-2.2266-0.92578z" fill="#fff" opacity=".2"/></svg>
