<?xml version="1.0" encoding="UTF-8"?>
<svg version="1" viewBox="0 0 64 64" xmlns="http://www.w3.org/2000/svg"><rect x="3" y="4" width="58" height="58" rx="2.9" ry="2.9" opacity=".2"/><rect x="3" y="3" width="58" height="58" rx="2.9" ry="2.9" fill="#00695c"/><path d="m18 15c-1.662 0-3 1.338-3 3v30c0 1.662 1.338 3 3 3s3-1.338 3-3v-30c0-1.662-1.338-3-3-3z" opacity=".2"/><path d="m15 25.5v22.5c0 1.662 1.338 3 3 3s3-1.338 3-3v-22.5z" fill="#7cb342"/><path d="m46 15c-1.662 0-3 1.338-3 3v30c0 1.662 1.338 3 3 3s3-1.338 3-3v-30c0-1.662-1.338-3-3-3z" opacity=".2"/><path d="m43 25.5v22.5c0 1.662 1.338 3 3 3s3-1.338 3-3v-22.5z" fill="#7cb342"/><path d="m32 15c-1.662 0-3 1.338-3 3v30c0 1.662 1.338 3 3 3s3-1.338 3-3v-30c0-1.662-1.338-3-3-3z" opacity=".2"/><path d="m29 37.5v10.5c0 1.662 1.338 3 3 3s3-1.338 3-3v-10.5z" fill="#7cb342"/><rect x="11" y="24" width="14" height="8" rx="2.8" ry="2.8" opacity=".1"/><rect x="11" y="23" width="14" height="8" rx="2.8" ry="2.8" fill="#b5b5b5"/><rect x="25" y="36" width="14" height="8" rx="2.8" ry="2.8" opacity=".1"/><rect x="25" y="35" width="14" height="8" rx="2.8" ry="2.8" fill="#b5b5b5"/><rect x="39" y="24" width="14" height="8" rx="2.8" ry="2.8" opacity=".1"/><rect x="39" y="23" width="14" height="8" rx="2.8" ry="2.8" fill="#b5b5b5"/><path d="m5.8984 3c-1.6066 0-2.8984 1.2918-2.8984 2.8984v1c0-1.6066 1.2918-2.8984 2.8984-2.8984h52.203c1.6066 0 2.8984 1.2918 2.8984 2.8984v-1c0-1.6066-1.2918-2.8984-2.8984-2.8984h-52.203z" fill="#fff" opacity=".1"/></svg>
