<?xml version="1.0" encoding="UTF-8"?>
<svg id="l" width="256" height="256" version="1.1" viewBox="0 0 240 240" xmlns="http://www.w3.org/2000/svg" xmlns:xlink="http://www.w3.org/1999/xlink"><defs id="m"><linearGradient id="a"><stop id="n" stop-color="#fff" offset="0"/><stop id="o" stop-color="#fffafa" stop-opacity="0" offset="1"/></linearGradient><filter id="h" x="-.16258" y="-.092115" width="1.3252" height="1.1842" color-interpolation-filters="sRGB"><feGaussianBlur id="p" stdDeviation="3.753083949"/></filter><clipPath id="i"></clipPath><radialGradient id="q" cx="164.64" cy="531.21" r="21.991" fx="165.2" fy="522.5" gradientTransform="matrix(.94081 -.13202 .1152 .82092 44.333 128.78)" gradientUnits="userSpaceOnUse"><stop id="r" stop-color="#fdc324" offset="0"/><stop id="s" stop-color="#fb5010" offset=".88292"/><stop id="t" stop-color="#fb410e" offset="1"/></radialGradient><style id="u" type="text/css">.ColorScheme-Text {
        color:#f2f2f2;
      }</style><clipPath id="b"><rect id="v" transform="scale(-1,1)" x="-4259.5" y="1336" width="90.857" height="216.47" ry=".79584" fill="#fff"/></clipPath><clipPath id="j"><path id="w" d="m3696.4 591.64v219.42h177.33v-219.42zm103.64 111.05c3.718 0 7.1638 0.70279 10.232 2.1552a2.6925 2.6925 0 0 1 1.3074 3.5303l-0.9723 2.1808a2.6925 2.6925 0 0 1-3.6639 1.311c-2.1746-1.0873-4.3873-1.6113-6.7621-1.6113-3.7727 0-6.2834 1.0738-8.2617 3.2776-1.9791 2.2046-3.0579 5.2567-3.0579 9.6295 0 4.52 1.0495 7.6394 2.8803 9.765 1.8165 2.1091 4.2427 3.1677 8.0603 3.1677 2.6784 0 5.0788-0.34226 7.2271-0.99792a2.6925 2.6925 0 0 1 3.4772 2.5745v2.1332a2.6925 2.6925 0 0 1-1.7981 2.5397c-2.6875 0.94525-5.8344 1.3623-9.4757 1.3623-5.4481 0-10.197-1.8971-13.51-5.6213-3.3288-3.7425-4.8761-8.8832-4.8761-14.971 0-3.863 0.736-7.4029 2.2705-10.508a2.6925 2.6925 0 0 1 0.01-0.0128c1.5539-3.1078 3.8721-5.6199 6.8097-7.3316 2.9591-1.7308 6.391-2.5726 10.107-2.5726zm-48.219 0.35706h1.5418a2.6925 2.6925 0 0 1 2.5067 1.7084l13.656 34.803a2.6925 2.6925 0 0 1-2.5067 3.6749h-2.7265a2.6925 2.6925 0 0 1-2.5049-1.7065l-4.1418-10.527h-10.417l-4.1656 10.532a2.6925 2.6925 0 0 1-2.5031 1.701h-2.6788a2.6925 2.6925 0 0 1-2.4994-3.6932l13.94-34.803a2.6925 2.6925 0 0 1 2.4994-1.6901zm77.208 0.14099h2.4188a2.6925 2.6925 0 0 1 2.6916 2.6916v11.484l12.788-13.347a2.6925 2.6925 0 0 1 1.9446-0.82947h3.0835a2.6925 2.6925 0 0 1 1.9336 4.5648l-12.625 13.024 13.246 18.179a2.6925 2.6925 0 0 1-2.1753 4.2773h-2.9645a2.6925 2.6925 0 0 1-2.1771-1.1096l-11.559-15.908-1.4942 1.3165v13.01a2.6925 2.6925 0 0 1-2.6916 2.6916h-2.4188a2.6925 2.6925 0 0 1-2.6917-2.6916v-34.662a2.6925 2.6925 0 0 1 2.6917-2.6916zm-76.494 14.308-2.3181 5.9399h4.5612z" fill="none" opacity=".892" stroke="#fffafa" stroke-linecap="square" stroke-opacity=".37433" stroke-width=".34406" style="paint-order:markers fill stroke"/></clipPath><radialGradient id="d" cx="4263.3" cy="1414.7" r=".80468" gradientTransform="matrix(795.33 -7.0007e-7 5.7678e-7 272.61 -3385944 -386630)" gradientUnits="userSpaceOnUse" xlink:href="#a"/><linearGradient id="g" x1="944.67" x2="944.67" y1="830.92" y2="117.86" gradientTransform="matrix(.5149 0 0 .5149 2680.3 1476.3)" gradientUnits="userSpaceOnUse"><stop id="x" stop-color="#f25f27" offset="0"/><stop id="y" stop-color="#fcdb05" offset="1"/></linearGradient><clipPath id="k"><rect id="z" transform="scale(-1,1)" x="-4259.5" y="1336" width="90.857" height="216.47" ry=".79584" fill="#fff"/></clipPath><radialGradient id="f" cx="4263.3" cy="1414.7" r=".80468" gradientTransform="matrix(2800.1 -5.2453e-7 2.0307e-6 204.25 -11934556 -287193)" gradientUnits="userSpaceOnUse" xlink:href="#a"/><radialGradient id="e" cx="3191.5" cy="1941.6" r="151.43" gradientTransform="matrix(2.0495 0 0 2.0495 -3385.7 -2115.5)" gradientUnits="userSpaceOnUse"><stop id="aa" stop-color="#ae2d1b" offset="0"/><stop id="ab" stop-color="#ae2d1b" stop-opacity="0" offset="1"/></radialGradient><radialGradient id="c" cx="4263.3" cy="1414.7" r=".80468" gradientTransform="matrix(1604.9 -1.4127e-6 1.1639e-6 550.1 -6838465 -777860)" gradientUnits="userSpaceOnUse" xlink:href="#a"/></defs><g id="ac" transform="translate(-3024.1 -1639.8)"><path id="ad" transform="translate(0 171.83)" d="m338.65 492.27 6.7865 6.3816c3.1299 2.9431 3.1586 8.9811 1.3941 16.799-2.2378 8.3515-8.5036 13.534-15.111 15.042-6.3174 1.4424-13.304-0.34272-17.91-4.6174-1.446-1.3421-2.2187-3.8113-1.6741-5.844 0.60965-2.2752 0.73619-5.4532 2.0664-6.2422-0.76814 0.26722-1.704 0.57479-2.8242 1.6309-1.8864 1.7785-1.9637 4.2822-4.4297 4.9727 0.25165-7.0896-4.1582-10.968-4.4635-14.114-2.9188 16.121 12.652 34.52 31.914 29.359 12.413-3.0983 19.812-12.212 22.259-22.5 1.4128-5.941 0.97674-12.067-0.30664-17.209z" clip-path="url(#i)" filter="url(#h)" opacity=".656"/><text id="ae" x="5413.5938" y="1750.3309" fill="#000000" font-family="'Helvetica Neue LT Std'" font-size="18.75px" letter-spacing="0px" word-spacing="0px" style="line-height:125%" xml:space="preserve"/><flowRoot id="af" fill="#000000" font-family="'Helvetica Neue LT Std'" font-size="20px" letter-spacing="0px" stroke-width="1px" word-spacing="0px" style="line-height:125%" xml:space="preserve"><flowRegion id="ag"><rect id="ah" x="7608" y="2084.5" width="638" height="558"/></flowRegion><flowPara id="ai"/></flowRoot><flowRoot id="aj" fill="#000000" font-family="'Helvetica Neue LT Std'" font-size="20px" letter-spacing="0px" stroke-width="1px" word-spacing="0px" style="line-height:125%" xml:space="preserve"><flowRegion id="ak"><rect id="al" x="6470" y="1612.5" width="1124" height="944"/></flowRegion><flowPara id="am"/></flowRoot><rect id="an" x="4789" y="-1117.2" width="2.3966" height="280.28" rx="0" ry="0" fill="url(#d)" opacity=".707"/><g id="ao" transform="translate(960 -1701.6)" clip-path="url(#j)" fill="none" opacity=".735" stroke="#fff" stroke-linecap="square" stroke-opacity=".93048"><g id="ap" transform="translate(-433.14 -734.68)" clip-path="url(#b)" opacity=".892" stroke-width=".62531"><g id="aq"><g id="ar" stroke="#fff" stroke-opacity=".93048" stroke-width=".62531"><g id="as" stroke="#fff" stroke-opacity=".93048" stroke-width=".62531"><g id="at" stroke="#fff" stroke-opacity=".93048" stroke-width=".62531"><g id="au" stroke="#fff" stroke-opacity=".93048" stroke-width=".62531"><path id="av" d="m4236.5 1423.7c6.7519 12.543 16.631 23.088 26.989 29.252 6.5019-6.2966 14.715-10.057 23.516-10.625" fill="none" opacity="1" stroke="#fff" stroke-linecap="square" stroke-linejoin="round" stroke-opacity=".93048" stroke-width=".62531"/></g></g></g></g></g><path id="aw" d="m4251.2 1375.2-3.2311 19.85 1.2249 4.9103c4.6986 3.9379 10.348 7.3663 15.878 8.7437-4.2567-5.0225-10.064-20.076-11.696-27.781z" fill="none" opacity="1" stroke-linecap="square" stroke-linejoin="round"/><path id="ax" d="m4249 1441.1 5.6446-21.066-14.583-9.9439z" fill="none" opacity="1" stroke-linecap="square" stroke-linejoin="round"/><path id="ay" d="m4236.5 1423.6 3.6062-13.459" fill="none" opacity="1" stroke-linecap="square" stroke-linejoin="round"/><path id="az" d="m4240.1 1410.1-9.3797 0.239 5.7735 13.22" fill="none" opacity="1" stroke-linecap="square" stroke-linejoin="round"/><path id="ba" d="m4230.7 1410.4 2.6001-9.6936 6.7796 9.4546" fill="none" opacity="1" stroke-linecap="square" stroke-linejoin="round"/><path id="bb" d="m4233.3 1400.7-5.3805-3.9283 2.7804 13.622" fill="none" opacity="1" stroke-linecap="square" stroke-linejoin="round"/><path id="bc" d="m4227.9 1396.7 2.1579-8.0534 3.2226 11.982" fill="none" opacity="1" stroke-linecap="square" stroke-linejoin="round"/><path id="bd" d="m4228.2 1382.7-0.2661 14.017" fill="none" opacity="1" stroke-linecap="square" stroke-linejoin="round"/><path id="be" d="m4230.1 1388.7-1.8918-5.9636 2.3663-9.4369z" fill="none" opacity="1" stroke-linecap="square" stroke-linejoin="round"/><path id="bf" d="m4254.7 1420.1 16.065 8.9115-21.709 12.154" fill="none" opacity="1" stroke-linecap="square" stroke-linejoin="round"/><path id="bg" d="m4258 1407.7-3.3219 12.398 23.272-6.7331z" fill="none" opacity="1" stroke-linecap="square" stroke-linejoin="round"/><path id="bh" d="m4258 1407.7-7.3734-3.1007-10.531 5.5546z" fill="none" opacity="1" stroke-linecap="square" stroke-linejoin="round"/><path id="bi" d="m4243.3 1398.2 7.3463 6.3315" fill="none" opacity="1" stroke-linecap="square" stroke-linejoin="round"/><path id="bj" d="m4243.3 1398.2-9.9645 2.4315 3.2181-12.01z" fill="none" opacity="1" stroke-linecap="square" stroke-linejoin="round"/><path id="bk" d="m4230.1 1388.7 2.5975-9.6943 3.8432 9.6656z" fill="none" opacity="1" stroke-linecap="square" stroke-linejoin="round"/><path id="bl" d="m4233.3 1366.7-0.5737 12.26-2.123-5.7062z" fill="none" opacity="1" stroke-linecap="square" stroke-linejoin="round"/><path id="bm" d="m4263.8 1408.2-4.4308-5.5133-0.7672 3.6319" fill="none" opacity="1" stroke-linecap="square" stroke-linejoin="round"/><path id="bn" d="m4249.2 1400 10.172 2.6729" fill="none" opacity="1" stroke-linecap="square" stroke-linejoin="round"/><path id="bo" d="m4259.4 1402.6-5.9906-21.71-4.1818 19.037" fill="none" opacity="1" stroke-linecap="square" stroke-linejoin="round"/><path id="bp" d="m4251.3 1375.1 0.8019 11.658" fill="none" opacity="1" stroke-linecap="square" stroke-linejoin="round"/><path id="bq" d="m4236.8 1369.3-2.3785-5.9708 5.684-5.684z" fill="none" opacity="1" stroke-linecap="square" stroke-linejoin="round"/><path id="br" d="m4235.1 1358.6-0.7317 4.762" fill="none" opacity="1" stroke-linecap="square" stroke-linejoin="round"/><path id="bs" d="m4235.1 1358.6 1.6915-2.5455 3.2608 1.6235z" fill="none" opacity="1" stroke-linecap="square" stroke-linejoin="round"/><path id="bt" d="m4240.1 1357.6-0.6739-4.9089" fill="none" opacity="1" stroke-linecap="square" stroke-linejoin="round"/><path id="bu" d="m4239.4 1352.7-2.5869 3.2854 0.5802-6.4279z" fill="none" opacity="1" stroke-linecap="square" stroke-linejoin="round"/><path id="bv" d="m4240.1 1410.1 3.1849-11.886" fill="none" opacity="1" stroke-linecap="square" stroke-linejoin="round"/><path id="bw" d="m4259.4 1402.6-7.2815-15.858" fill="none" opacity="1" stroke-linecap="square" stroke-linejoin="round"/></g><g id="bx" transform="matrix(-2.0177 0 0 2.0177 12436 -2243.7)" opacity=".599" stroke-width=".30992"><path id="by" d="m4267 1511.9c0-20.546 36.289-37.341 25.701-61.351" opacity="1"/><path id="bz" d="m4267 1494.3c0-14.665 28.834-25.472 25.701-43.79-3.0243 13.371-18.765 13.215-25.701 23.363" opacity="1"/><path id="ca" d="m4291.2 1439.1 1.2522 4.5393-1.6696 6.2088z" opacity="1"/><path id="cb" d="m4291.2 1439.1-2.0348-3.3914 1.6174 14.14z" opacity="1"/><path id="cc" d="m4267 1511.9c0-20.546 36.289-37.341 25.701-61.351" opacity="1"/><path id="cd" d="m4267 1494.3c0-14.665 28.834-25.472 25.701-43.79-3.0243 13.371-18.765 13.215-25.701 23.363" opacity="1"/><path id="ce" d="m4291.2 1439.1 1.2522 4.5393-1.6696 6.2088z" opacity="1"/><path id="cf" d="m4291.2 1439.1-2.0348-3.3914 1.6174 14.14z" opacity="1"/><path id="cg" d="m4267 1511.9c0-20.546 36.289-37.341 25.701-61.351" opacity="1"/><path id="ch" d="m4267 1494.3c0-14.665 28.834-25.472 25.701-43.79-3.0243 13.371-18.765 13.215-25.701 23.363" opacity="1"/><path id="ci" d="m4267 1511.9c0-20.546 36.289-37.341 25.701-61.351" opacity="1"/><path id="cj" d="m4267 1494.3c0-14.665 28.834-25.472 25.701-43.79-3.0243 13.371-18.765 13.215-25.701 23.363" opacity="1"/></g></g><text id="ck" x="4443.417" y="-960.77148" fill="#ffffff" font-family="'Helvetica Neue LT Std'" font-size="48.554px" letter-spacing="13.486px" opacity=".697" stroke-width="7.3819px" word-spacing="0px" style="line-height:125%" xml:space="preserve"><tspan id="cl" x="4443.417" y="-960.77148" fill="#ffffff" font-family="'Open Sans'" font-weight="300" letter-spacing="13.486px" stroke-width="7.3819px" word-spacing="5.6322px">HEAPTRACK</tspan></text><rect id="cm" x="3039.1" y="1654.8" width="210" height="210" rx="30.266" ry="30.266" fill="url(#g)"/><rect id="cn" x="3039.1" y="1654.8" width="210" height="210" rx="30.266" ry="30.266" fill="url(#e)" opacity=".76" stroke="#fff" stroke-linecap="round" stroke-linejoin="round" stroke-width=".074242"/><rect id="co" x="3159.1" y="1654.8" width="8.4375" height="210" rx="0" ry="0" fill="url(#f)"/><g id="cp" transform="matrix(1.0219 0 0 1.0203 -1197.8 291.13)" clip-path="url(#k)" fill="none" opacity=".822" stroke="#fff" stroke-linecap="square" stroke-opacity=".93048" stroke-width=".90089"><g id="cq"><g id="cr" stroke="#fff" stroke-opacity=".93048" stroke-width=".90089"><g id="cs" stroke="#fff" stroke-opacity=".93048" stroke-width=".90089"><g id="ct" stroke="#fff" stroke-opacity=".93048" stroke-width=".90089"><g id="cu" stroke="#fff" stroke-opacity=".93048" stroke-width=".90089"><path id="cv" d="m4236.5 1423.7c6.7519 12.543 16.631 23.088 26.989 29.252 6.5019-6.2966 14.715-10.057 23.516-10.625l-13.688-12.126-15.349-22.551-17.905 2.4539z" fill="#fff" fill-opacity=".68617" opacity="1" stroke="#fff" stroke-linecap="square" stroke-linejoin="round" stroke-opacity=".93048" stroke-width=".90089"/></g></g></g></g></g><path id="cw" d="m4251.2 1375.2-3.2311 19.85 1.2249 4.9103c4.6986 3.9379 10.348 7.3663 15.878 8.7437-4.2567-5.0225-10.064-20.076-11.696-27.781z" fill="#fff" fill-opacity=".18085" opacity="1" stroke-linecap="square" stroke-linejoin="round"/><path id="cx" d="m4249 1441.1 5.6446-21.066-14.583-9.9439z" fill="#fff" fill-opacity=".29255" opacity="1" stroke-linecap="square" stroke-linejoin="round"/><path id="cy" d="m4236.5 1423.6 3.6062-13.459" fill="none" opacity="1" stroke-linecap="square" stroke-linejoin="round"/><path id="cz" d="m4240.1 1410.1-9.3797 0.239 5.7735 13.22" fill="#fff" fill-opacity=".48936" opacity="1" stroke-linecap="square" stroke-linejoin="round"/><path id="da" d="m4230.7 1410.4 2.6001-9.6936 6.7796 9.4546" fill="#fff" fill-opacity=".46808" opacity="1" stroke-linecap="square" stroke-linejoin="round"/><path id="db" d="m4233.3 1400.7-5.3805-3.9283 2.7804 13.622" fill="#fff" fill-opacity=".16489" opacity="1" stroke-linecap="square" stroke-linejoin="round"/><path id="dc" d="m4227.9 1396.7 2.1579-8.0534 3.2226 11.982" fill="#fff" fill-opacity=".16489" opacity="1" stroke-linecap="square" stroke-linejoin="round"/><path id="dd" d="m4228.2 1382.7-0.2661 14.017" fill="none" opacity="1" stroke-linecap="square" stroke-linejoin="round"/><path id="de" d="m4230.1 1388.7-1.8918-5.9636 2.3663-9.4369z" fill="none" opacity="1" stroke-linecap="square" stroke-linejoin="round"/><path id="df" d="m4254.7 1420.1 16.065 8.9115-21.709 12.154" fill="#fff" fill-opacity=".085106" opacity="1" stroke-linecap="square" stroke-linejoin="round"/><path id="dg" d="m4258 1407.7-3.3219 12.398 23.272-6.7331z" fill="#fff" fill-opacity=".23404" opacity="1" stroke-linecap="square" stroke-linejoin="round"/><path id="dh" d="m4258 1407.7-7.3734-3.1007-10.531 5.5546z" fill="#fff" fill-opacity=".70745" opacity="1" stroke-linecap="square" stroke-linejoin="round"/><path id="di" d="m4243.3 1398.2 7.3463 6.3315" fill="none" opacity="1" stroke-linecap="square" stroke-linejoin="round"/><path id="dj" d="m4243.3 1398.2-9.9645 2.4315 3.2181-12.01z" fill="#fff" fill-opacity=".19149" opacity="1" stroke-linecap="square" stroke-linejoin="round"/><path id="dk" d="m4230.1 1388.7 2.5975-9.6943 3.8432 9.6656z" fill="#fff" fill-opacity=".16489" opacity="1" stroke-linecap="square" stroke-linejoin="round"/><path id="dl" d="m4233.3 1366.7-0.5737 12.26-2.123-5.7062z" fill="none" opacity="1" stroke-linecap="square" stroke-linejoin="round"/><path id="dm" d="m4263.8 1408.2-4.4308-5.5133-0.7672 3.6319" fill="none" opacity="1" stroke-linecap="square" stroke-linejoin="round"/><path id="dn" d="m4249.2 1400 10.172 2.6729" fill="none" opacity="1" stroke-linecap="square" stroke-linejoin="round"/><path id="do" d="m4259.4 1402.6-5.9906-21.71-4.1818 19.037" fill="none" opacity="1" stroke-linecap="square" stroke-linejoin="round"/><path id="dp" d="m4251.3 1375.1 0.8019 11.658" fill="none" opacity="1" stroke-linecap="square" stroke-linejoin="round"/><path id="dq" d="m4236.8 1369.3-2.3785-5.9708 5.684-5.684z" fill="none" opacity="1" stroke-linecap="square" stroke-linejoin="round"/><path id="dr" d="m4235.1 1358.6-0.7317 4.762" fill="none" opacity="1" stroke-linecap="square" stroke-linejoin="round"/><path id="ds" d="m4235.1 1358.6 1.6915-2.5455 3.2608 1.6235z" fill="none" opacity="1" stroke-linecap="square" stroke-linejoin="round"/><path id="dt" d="m4240.1 1357.6-0.6739-4.9089" fill="none" opacity="1" stroke-linecap="square" stroke-linejoin="round"/><path id="du" d="m4239.4 1352.7-2.5869 3.2854 0.5802-6.4279z" fill="none" opacity="1" stroke-linecap="square" stroke-linejoin="round"/><path id="dv" d="m4240.1 1410.1 3.1849-11.886" fill="none" opacity="1" stroke-linecap="square" stroke-linejoin="round"/><path id="dw" d="m4259.4 1402.6-7.2815-15.858" fill="none" opacity="1" stroke-linecap="square" stroke-linejoin="round"/><path id="dx" d="m4243.3 1398.2-9.9645 2.4315 6.7796 9.4546 10.531-5.5546z" fill="#fff" fill-opacity=".57447" opacity="1" stroke-linecap="square" stroke-linejoin="round"/></g><g id="dy" transform="matrix(-2.0619 0 0 2.0585 11953 -1248.5)" opacity=".746" stroke="#fff" stroke-linecap="square" stroke-opacity=".93048" stroke-width=".4465"><path id="dz" d="m4267 1511.9c0-20.546 36.289-37.341 25.701-61.351" fill="none" opacity="1"/><path id="ea" d="m4267 1494.3c0-14.665 28.834-25.472 25.701-43.79-3.0243 13.371-18.765 13.215-25.701 23.363" fill="none" opacity="1"/><path id="eb" d="m4291.2 1439.1 1.2522 4.5393-1.6696 6.2088z" fill="none" opacity="1"/><path id="ec" d="m4291.2 1439.1-2.0348-3.3914 1.6174 14.14z" fill="none" opacity="1"/><path id="ed" d="m4267 1511.9c0-20.546 36.289-37.341 25.701-61.351" fill="none" opacity="1"/><path id="ee" d="m4267 1494.3c0-14.665 28.834-25.472 25.701-43.79-3.0243 13.371-18.765 13.215-25.701 23.363" fill="none" opacity="1"/><path id="ef" d="m4291.2 1439.1 1.2522 4.5393-1.6696 6.2088z" fill="#fff" fill-opacity=".41489" opacity="1"/><path id="eg" d="m4291.2 1439.1-2.0348-3.3914 1.6174 14.14z" fill="#fff" fill-opacity=".25" opacity="1"/><path id="eh" d="m4267 1511.9c0-20.546 36.289-37.341 25.701-61.351" fill="none" opacity="1"/><path id="ei" d="m4267 1494.3c0-14.665 28.834-25.472 25.701-43.79-3.0243 13.371-18.765 13.215-25.701 23.363" fill="none" opacity="1"/><path id="ej" d="m4267 1511.9c0-20.546 36.289-37.341 25.701-61.351-4.2244 13.942-19.999 13.771-25.701 23.363z" fill="#fff" fill-opacity=".77128" opacity="1"/><path id="ek" d="m4267 1494.3c0-14.665 28.834-25.472 25.701-43.79-3.0243 13.371-18.765 13.215-25.701 23.363" fill="none" opacity="1"/><path id="el" d="m4267 1494.3c0-14.665 28.834-25.472 25.701-43.79-3.0243 13.371-18.765 13.215-25.701 23.363" fill="#fff" fill-opacity=".77128" opacity="1"/></g><g id="em" transform="matrix(1.4965 0 0 1.4965 -2347.6 -1589.8)" opacity=".23" stroke="#f1f1f1" stroke-opacity=".93048" stroke-width="1.2288"><rect id="en" x="3792.9" y="77.491" width="4.8361" height="565.58" rx="0" ry="0" fill="url(#c)" opacity=".601" stroke-linejoin="round" stroke-width="1.1289"/><g id="eo" transform="matrix(2.0179 0 0 2.0179 -4807.8 -2584.3)" clip-path="url(#b)" fill="none" opacity=".601" stroke-linecap="square" stroke-width=".38077"><g id="ep"><g id="eq" stroke="#f1f1f1" stroke-opacity=".93048" stroke-width=".38077"><g id="er" stroke="#f1f1f1" stroke-opacity=".93048" stroke-width=".38077"><g id="es" stroke="#f1f1f1" stroke-opacity=".93048" stroke-width=".38077"><g id="et" stroke="#f1f1f1" stroke-opacity=".93048" stroke-width=".38077"><path id="eu" d="m4236.5 1423.7c6.7519 12.543 16.631 23.088 26.989 29.252 6.5019-6.2966 14.715-10.057 23.516-10.625" fill="none" opacity="1" stroke="#f1f1f1" stroke-linecap="square" stroke-linejoin="round" stroke-opacity=".93048" stroke-width=".38077"/></g></g></g></g></g><path id="ev" d="m4251.2 1375.2-3.2311 19.85 1.2249 4.9103c4.6986 3.9379 10.348 7.3663 15.878 8.7437-4.2567-5.0225-10.064-20.076-11.696-27.781z" fill="none" opacity="1" stroke-linecap="square" stroke-linejoin="round"/><path id="ew" d="m4249 1441.1 5.6446-21.066-14.583-9.9439z" fill="none" opacity="1" stroke-linecap="square" stroke-linejoin="round"/><path id="ex" d="m4236.5 1423.6 3.6062-13.459" fill="none" opacity="1" stroke-linecap="square" stroke-linejoin="round"/><path id="ey" d="m4240.1 1410.1-9.3797 0.239 5.7735 13.22" fill="none" opacity="1" stroke-linecap="square" stroke-linejoin="round"/><path id="ez" d="m4230.7 1410.4 2.6001-9.6936 6.7796 9.4546" fill="none" opacity="1" stroke-linecap="square" stroke-linejoin="round"/><path id="fa" d="m4233.3 1400.7-5.3805-3.9283 2.7804 13.622" fill="none" opacity="1" stroke-linecap="square" stroke-linejoin="round"/><path id="fb" d="m4227.9 1396.7 2.1579-8.0534 3.2226 11.982" fill="none" opacity="1" stroke-linecap="square" stroke-linejoin="round"/><path id="fc" d="m4228.2 1382.7-0.2661 14.017" fill="none" opacity="1" stroke-linecap="square" stroke-linejoin="round"/><path id="fd" d="m4230.1 1388.7-1.8918-5.9636 2.3663-9.4369z" fill="none" opacity="1" stroke-linecap="square" stroke-linejoin="round"/><path id="fe" d="m4254.7 1420.1 16.065 8.9115-21.709 12.154" fill="none" opacity="1" stroke-linecap="square" stroke-linejoin="round"/><path id="ff" d="m4258 1407.7-3.3219 12.398 23.272-6.7331z" fill="none" opacity="1" stroke-linecap="square" stroke-linejoin="round"/><path id="fg" d="m4258 1407.7-7.3734-3.1007-10.531 5.5546z" fill="none" opacity="1" stroke-linecap="square" stroke-linejoin="round"/><path id="fh" d="m4243.3 1398.2 7.3463 6.3315" fill="none" opacity="1" stroke-linecap="square" stroke-linejoin="round"/><path id="fi" d="m4243.3 1398.2-9.9645 2.4315 3.2181-12.01z" fill="none" opacity="1" stroke-linecap="square" stroke-linejoin="round"/><path id="fj" d="m4230.1 1388.7 2.5975-9.6943 3.8432 9.6656z" fill="none" opacity="1" stroke-linecap="square" stroke-linejoin="round"/><path id="fk" d="m4233.3 1366.7-0.5737 12.26-2.123-5.7062z" fill="none" opacity="1" stroke-linecap="square" stroke-linejoin="round"/><path id="fl" d="m4263.8 1408.2-4.4308-5.5133-0.7672 3.6319" fill="none" opacity="1" stroke-linecap="square" stroke-linejoin="round"/><path id="fm" d="m4249.2 1400 10.172 2.6729" fill="none" opacity="1" stroke-linecap="square" stroke-linejoin="round"/><path id="fn" d="m4259.4 1402.6-5.9906-21.71-4.1818 19.037" fill="none" opacity="1" stroke-linecap="square" stroke-linejoin="round"/><path id="fo" d="m4251.3 1375.1 0.8019 11.658" fill="none" opacity="1" stroke-linecap="square" stroke-linejoin="round"/><path id="fp" d="m4236.8 1369.3-2.3785-5.9708 5.684-5.684z" fill="none" opacity="1" stroke-linecap="square" stroke-linejoin="round"/><path id="fq" d="m4235.1 1358.6-0.7317 4.762" fill="none" opacity="1" stroke-linecap="square" stroke-linejoin="round"/><path id="fr" d="m4235.1 1358.6 1.6915-2.5455 3.2608 1.6235z" fill="none" opacity="1" stroke-linecap="square" stroke-linejoin="round"/><path id="fs" d="m4240.1 1357.6-0.6739-4.9089" fill="none" opacity="1" stroke-linecap="square" stroke-linejoin="round"/><path id="ft" d="m4239.4 1352.7-2.5869 3.2854 0.5802-6.4279z" fill="none" opacity="1" stroke-linecap="square" stroke-linejoin="round"/><path id="fu" d="m4240.1 1410.1 3.1849-11.886" fill="none" opacity="1" stroke-linecap="square" stroke-linejoin="round"/><path id="fv" d="m4259.4 1402.6-7.2815-15.858" fill="none" opacity="1" stroke-linecap="square" stroke-linejoin="round"/></g><g id="fw" transform="matrix(-4.0715 0 0 4.0715 21161 -5629.5)" fill="none" opacity=".601" stroke-linecap="square"><path id="fx" d="m4267 1511.9c0-20.546 36.289-37.341 25.701-61.351" opacity="1" stroke-width=".18872"/><path id="fy" d="m4267 1494.3c0-14.665 28.834-25.472 25.701-43.79-3.0243 13.371-18.765 13.215-25.701 23.363" opacity="1" stroke-width=".18872"/><path id="fz" d="m4291.2 1439.1 1.2522 4.5393-1.6696 6.2088z" opacity="1" stroke-width=".18872"/><path id="ga" d="m4291.2 1439.1-2.0348-3.3914 1.6174 14.14z" opacity="1" stroke-width=".18872"/><path id="gb" d="m4267 1511.9c0-20.546 36.289-37.341 25.701-61.351" opacity="1" stroke-width=".11318"/><path id="gc" d="m4267 1494.3c0-14.665 28.834-25.472 25.701-43.79-3.0243 13.371-18.765 13.215-25.701 23.363" opacity="1" stroke-width=".11318"/><path id="gd" d="m4291.2 1439.1 1.2522 4.5393-1.6696 6.2088z" opacity="1" stroke-width=".18872"/><path id="ge" d="m4291.2 1439.1-2.0348-3.3914 1.6174 14.14z" opacity="1" stroke-width=".18872"/></g></g><rect id="gf" x="3134.3" y="-1525.3" width="228.47" height="723.42" fill="none" opacity=".324" style="paint-order:markers stroke fill"/><g id="gg" transform="matrix(1.4965 0 0 1.4965 -2347.6 -1589.8)" opacity=".23" stroke="#f1f1f1" stroke-opacity=".93048" stroke-width="1.2288"><rect id="gh" x="3792.9" y="77.491" width="4.8361" height="565.58" rx="0" ry="0" fill="url(#c)" opacity=".601" stroke-linejoin="round" stroke-width="1.1289"/><g id="gi" transform="matrix(2.0179 0 0 2.0179 -4807.8 -2584.3)" clip-path="url(#b)" fill="none" opacity=".601" stroke-linecap="square" stroke-width=".38077"><g id="gj"><g id="gk" stroke="#f1f1f1" stroke-opacity=".93048" stroke-width=".38077"><g id="gl" stroke="#f1f1f1" stroke-opacity=".93048" stroke-width=".38077"><g id="gm" stroke="#f1f1f1" stroke-opacity=".93048" stroke-width=".38077"><g id="gn" stroke="#f1f1f1" stroke-opacity=".93048" stroke-width=".38077"><path id="go" d="m4236.5 1423.7c6.7519 12.543 16.631 23.088 26.989 29.252 6.5019-6.2966 14.715-10.057 23.516-10.625" fill="none" opacity="1" stroke="#f1f1f1" stroke-linecap="square" stroke-linejoin="round" stroke-opacity=".93048" stroke-width=".38077"/></g></g></g></g></g><path id="gp" d="m4251.2 1375.2-3.2311 19.85 1.2249 4.9103c4.6986 3.9379 10.348 7.3663 15.878 8.7437-4.2567-5.0225-10.064-20.076-11.696-27.781z" fill="none" opacity="1" stroke-linecap="square" stroke-linejoin="round"/><path id="gq" d="m4249 1441.1 5.6446-21.066-14.583-9.9439z" fill="none" opacity="1" stroke-linecap="square" stroke-linejoin="round"/><path id="gr" d="m4236.5 1423.6 3.6062-13.459" fill="none" opacity="1" stroke-linecap="square" stroke-linejoin="round"/><path id="gs" d="m4240.1 1410.1-9.3797 0.239 5.7735 13.22" fill="none" opacity="1" stroke-linecap="square" stroke-linejoin="round"/><path id="gt" d="m4230.7 1410.4 2.6001-9.6936 6.7796 9.4546" fill="none" opacity="1" stroke-linecap="square" stroke-linejoin="round"/><path id="gu" d="m4233.3 1400.7-5.3805-3.9283 2.7804 13.622" fill="none" opacity="1" stroke-linecap="square" stroke-linejoin="round"/><path id="gv" d="m4227.9 1396.7 2.1579-8.0534 3.2226 11.982" fill="none" opacity="1" stroke-linecap="square" stroke-linejoin="round"/><path id="gw" d="m4228.2 1382.7-0.2661 14.017" fill="none" opacity="1" stroke-linecap="square" stroke-linejoin="round"/><path id="gx" d="m4230.1 1388.7-1.8918-5.9636 2.3663-9.4369z" fill="none" opacity="1" stroke-linecap="square" stroke-linejoin="round"/><path id="gy" d="m4254.7 1420.1 16.065 8.9115-21.709 12.154" fill="none" opacity="1" stroke-linecap="square" stroke-linejoin="round"/><path id="gz" d="m4258 1407.7-3.3219 12.398 23.272-6.7331z" fill="none" opacity="1" stroke-linecap="square" stroke-linejoin="round"/><path id="ha" d="m4258 1407.7-7.3734-3.1007-10.531 5.5546z" fill="none" opacity="1" stroke-linecap="square" stroke-linejoin="round"/><path id="hb" d="m4243.3 1398.2 7.3463 6.3315" fill="none" opacity="1" stroke-linecap="square" stroke-linejoin="round"/><path id="hc" d="m4243.3 1398.2-9.9645 2.4315 3.2181-12.01z" fill="none" opacity="1" stroke-linecap="square" stroke-linejoin="round"/><path id="hd" d="m4230.1 1388.7 2.5975-9.6943 3.8432 9.6656z" fill="none" opacity="1" stroke-linecap="square" stroke-linejoin="round"/><path id="he" d="m4233.3 1366.7-0.5737 12.26-2.123-5.7062z" fill="none" opacity="1" stroke-linecap="square" stroke-linejoin="round"/><path id="hf" d="m4263.8 1408.2-4.4308-5.5133-0.7672 3.6319" fill="none" opacity="1" stroke-linecap="square" stroke-linejoin="round"/><path id="hg" d="m4249.2 1400 10.172 2.6729" fill="none" opacity="1" stroke-linecap="square" stroke-linejoin="round"/><path id="hh" d="m4259.4 1402.6-5.9906-21.71-4.1818 19.037" fill="none" opacity="1" stroke-linecap="square" stroke-linejoin="round"/><path id="hi" d="m4251.3 1375.1 0.8019 11.658" fill="none" opacity="1" stroke-linecap="square" stroke-linejoin="round"/><path id="hj" d="m4236.8 1369.3-2.3785-5.9708 5.684-5.684z" fill="none" opacity="1" stroke-linecap="square" stroke-linejoin="round"/><path id="hk" d="m4235.1 1358.6-0.7317 4.762" fill="none" opacity="1" stroke-linecap="square" stroke-linejoin="round"/><path id="hl" d="m4235.1 1358.6 1.6915-2.5455 3.2608 1.6235z" fill="none" opacity="1" stroke-linecap="square" stroke-linejoin="round"/><path id="hm" d="m4240.1 1357.6-0.6739-4.9089" fill="none" opacity="1" stroke-linecap="square" stroke-linejoin="round"/><path id="hn" d="m4239.4 1352.7-2.5869 3.2854 0.5802-6.4279z" fill="none" opacity="1" stroke-linecap="square" stroke-linejoin="round"/><path id="ho" d="m4240.1 1410.1 3.1849-11.886" fill="none" opacity="1" stroke-linecap="square" stroke-linejoin="round"/><path id="hp" d="m4259.4 1402.6-7.2815-15.858" fill="none" opacity="1" stroke-linecap="square" stroke-linejoin="round"/></g><g id="hq" transform="matrix(-4.0715 0 0 4.0715 21161 -5629.5)" fill="none" opacity=".601" stroke-linecap="square"><path id="hr" d="m4267 1511.9c0-20.546 36.289-37.341 25.701-61.351" opacity="1" stroke-width=".18872"/><path id="hs" d="m4267 1494.3c0-14.665 28.834-25.472 25.701-43.79-3.0243 13.371-18.765 13.215-25.701 23.363" opacity="1" stroke-width=".18872"/><path id="ht" d="m4291.2 1439.1 1.2522 4.5393-1.6696 6.2088z" opacity="1" stroke-width=".18872"/><path id="hu" d="m4291.2 1439.1-2.0348-3.3914 1.6174 14.14z" opacity="1" stroke-width=".18872"/><path id="hv" d="m4267 1511.9c0-20.546 36.289-37.341 25.701-61.351" opacity="1" stroke-width=".11318"/><path id="hw" d="m4267 1494.3c0-14.665 28.834-25.472 25.701-43.79-3.0243 13.371-18.765 13.215-25.701 23.363" opacity="1" stroke-width=".11318"/><path id="hx" d="m4291.2 1439.1 1.2522 4.5393-1.6696 6.2088z" opacity="1" stroke-width=".18872"/><path id="hy" d="m4291.2 1439.1-2.0348-3.3914 1.6174 14.14z" opacity="1" stroke-width=".18872"/></g></g></g></svg>
