<?xml version="1.0" encoding="UTF-8"?>
<svg id="k" version="1.0" viewBox="0 0 48 48" xmlns="http://www.w3.org/2000/svg" xmlns:xlink="http://www.w3.org/1999/xlink"><defs id="l"><linearGradient id="b"><stop id="m" stop-color="#fff" offset="0"/><stop id="n" stop-color="#fff" stop-opacity="0" offset="1"/></linearGradient><radialGradient id="g" cx="62.625" cy="4.625" r="10.625" gradientTransform="matrix(1 0 0 .34118 0 3.0471)" gradientUnits="userSpaceOnUse"><stop id="o" offset="0"/><stop id="p" stop-opacity="0" offset="1"/></radialGradient><radialGradient id="f" cx="62.2" cy="-8.7256" r="9.7553" gradientTransform="matrix(2.7213 0 0 2.7213 -145.29 33.82)" gradientUnits="userSpaceOnUse"><stop id="q" stop-color="#fce94f" offset="0"/><stop id="r" stop-color="#edd400" offset="1"/></radialGradient><linearGradient id="j" x1="63.397" x2="68.911" y1="-9.3833" y2="16.839" gradientTransform="matrix(2.4606 0 0 2.4606 -129.07 31.357)" gradientUnits="userSpaceOnUse" xlink:href="#b"/><radialGradient id="a" cx="62.225" cy="-3.442" r="10.081" gradientTransform="matrix(1 0 0 .93023 0 -.24014)" gradientUnits="userSpaceOnUse" xlink:href="#b"/><radialGradient id="e" cx="62.2" cy="-8.7256" r="9.7553" gradientTransform="matrix(2.0403 0 0 2.0404 -102.93 31.042)" gradientUnits="userSpaceOnUse"><stop id="s" stop-color="#eeeeec" offset="0"/><stop id="t" stop-color="#d3d7cf" offset="1"/></radialGradient><linearGradient id="i" x1="63.397" x2="68.911" y1="-9.3833" y2="16.839" gradientTransform="matrix(1.8303 0 0 1.8303 -89.87 29.145)" gradientUnits="userSpaceOnUse" xlink:href="#b"/><radialGradient id="d" cx="62.2" cy="-8.7256" r="9.7553" gradientTransform="matrix(2.6149 0 0 2.615 -29.027 23.296)" gradientUnits="userSpaceOnUse"><stop id="u" stop-color="#888a85" offset="0"/><stop id="v" stop-color="#555753" offset="1"/></radialGradient><linearGradient id="h" x1="26.062" x2="29.031" y1="23.266" y2="55.266" gradientTransform="matrix(.79859 0 0 .79859 72.167 -23.772)" gradientUnits="userSpaceOnUse"><stop id="w" stop-color="#fff" offset="0"/><stop id="x" stop-color="#fff" stop-opacity="0" offset="1"/></linearGradient><radialGradient id="c" cx="60.121" cy="-8.9742" r="9.7553" gradientTransform="matrix(1.9047 -.7432 .67793 1.7935 -88.446 74.56)" gradientUnits="userSpaceOnUse"><stop id="y" stop-color="#fff" offset="0"/><stop id="z" stop-color="#fff" stop-opacity="0" offset="1"/></radialGradient></defs><g id="aa"><g id="ab" transform="matrix(1 0 0 .98426 0 .99159)"><path id="ac" transform="matrix(2.2588 0 0 1.2716 -117.47 37.27)" d="m73.25 4.625c0 2.002-4.757 3.625-10.625 3.625s-10.625-1.623-10.625-3.625 4.757-3.625 10.625-3.625 10.625 1.623 10.625 3.625z" color="#000000" fill="url(#g)" fill-rule="evenodd" opacity=".56044"/><g id="ad" transform="translate(.025 .353)"><path id="ae" d="m46.416 22.718c0 12.394-10.048 22.442-22.44 22.442-12.394 0-22.441-10.048-22.441-22.442 0-12.394 10.047-22.44 22.441-22.44 12.393 0 22.44 10.047 22.44 22.44z" fill="url(#f)" fill-rule="nonzero" stroke="#c4a000" stroke-miterlimit="4" stroke-width="1.008"/><path id="af" d="m45.494 22.718c0 11.885-9.6352 21.52-21.519 21.52-11.885 0-21.519-9.6351-21.519-21.52 0-11.885 9.6346-21.519 21.519-21.519 11.884 0 21.519 9.6341 21.519 21.519z" fill="none" opacity=".52747" stroke="url(#j)" stroke-miterlimit="4" stroke-width="1.0229"/><image id="ag" x="10.901" y="2.8231" width="26.148" height="39.791" fill="#ffffff" fill-rule="nonzero" opacity=".75" stroke="url(#a)" stroke-miterlimit="4" href="62169F0D.png"/><image id="ah" x="12.038" y="1.6863" width="23.875" height="42.065" fill="#ffffff" fill-rule="nonzero" opacity=".75" stroke="url(#a)" stroke-miterlimit="4" href="62169F12.png"/><image id="ai" x="10.901" y="2.8231" width="26.148" height="39.791" fill="#ffffff" fill-rule="nonzero" opacity=".1575" stroke="url(#a)" stroke-miterlimit="4" href="2D44FCEE.png"/><image id="aj" x="12.038" y="1.6863" width="23.875" height="42.065" fill="#ffffff" fill-rule="nonzero" opacity=".1575" stroke="url(#a)" stroke-miterlimit="4" href="2D44FCF3.png"/><path id="ak" d="m40.8 22.718c0 9.2928-7.5335 16.826-16.825 16.826-9.2924 0-16.825-7.5335-16.825-16.826 0-9.2924 7.533-16.825 16.825-16.825 9.2915 0 16.825 7.5326 16.825 16.825z" fill="url(#e)" fill-rule="nonzero" stroke="#babdb6" stroke-miterlimit="4" stroke-width=".84559"/><path id="al" d="m39.982 22.718c0 8.8408-7.1671 16.008-16.007 16.008-8.8404 0-16.007-7.1671-16.007-16.008 0-8.8404 7.1666-16.007 16.007-16.007 8.8396 0 16.007 7.1662 16.007 16.007z" fill="none" opacity=".52747" stroke="url(#i)" stroke-miterlimit="4" stroke-width=".85135"/><g id="am" transform="matrix(.6695 0 0 .6695 -37.821 24.241)" opacity=".25" stroke-linejoin="miter" stroke-miterlimit="4"><path id="an" d="m91.37-22.569-18.231 19.221h4.2072l0.04991 15.157 28.748-0.04991-0.11766-15.192 3.5744 0.035079-7.4544-7.8491 7e-3 -9.7043-5.6251-0.0073 0.02525 3.7242-5.1837-5.3344z" color="#000000" enable-background="accumulate" fill="url(#d)" fill-rule="nonzero" stroke="#2e3436" stroke-width=".80495"/><path id="ao" d="m91.358-21.352-16.246 17.145h2.246c0.22523-6.293e-4 0.44142 0.088565 0.60068 0.24783 0.15926 0.15926 0.24846 0.37545 0.24783 0.60068l0.04991 14.325 27.027-0.04991-0.0998-14.35c-6.2e-4 -0.22523 0.0886-0.44142 0.24783-0.60068 0.15926-0.15926 0.37545-0.24846 0.60068-0.24783h1.5722l-6.0893-6.3888c-0.14437-0.15629-0.22456-0.36123-0.2246-0.57399l0.025-8.8594h-3.9431l0.02496 2.87c0.0015 0.34367-0.20506 0.65409-0.52261 0.7855-0.31756 0.1314-0.68305 0.05768-0.92484-0.18655l-4.5919-4.7167z" color="#000000" fill="none" opacity=".41237" stroke="url(#h)" stroke-width=".7986"/></g><path id="ap" d="m41.05 23.77c0 9.2928-15.077-7.3084-22.066-3.4582-7.4052 4.0796-11.585 12.751-11.585 3.4582 0-9.2924 7.533-16.825 16.825-16.825 9.2915 0 16.825 7.5326 16.825 16.825z" fill="url(#c)" fill-rule="nonzero" opacity=".6"/></g></g></g></svg>
