<?xml version="1.0" encoding="UTF-8"?>
<svg id="i" version="1.0" viewBox="0 0 48 48" xmlns="http://www.w3.org/2000/svg" xmlns:xlink="http://www.w3.org/1999/xlink"><defs id="j"><linearGradient id="a"><stop id="k" stop-color="#728fff" offset="0"/><stop id="l" stop-color="#cacaff" offset="1"/></linearGradient><filter id="h" x="-.088849" y="-.48115" width="1.1777" height="1.9623"><feGaussianBlur id="m" stdDeviation="0.81445312"/></filter><linearGradient id="g" x1="9.1899" x2="6.7953" y1="38.017" y2="40.668" gradientTransform="matrix(1.0698 0 0 1.0698 -2.1444 -2.2086)" gradientUnits="userSpaceOnUse"><stop id="n" stop-color="#fff" offset="0"/><stop id="o" stop-color="#fff" stop-opacity="0" offset="1"/></linearGradient><linearGradient id="f" x1="39.767" x2="40.912" y1="38.498" y2="40.531" gradientTransform="matrix(1.0698 0 0 1.0698 -2.1444 -2.2086)" gradientUnits="userSpaceOnUse"><stop id="p" stop-color="#fff" offset="0"/><stop id="q" stop-color="#fff" stop-opacity="0" offset="1"/></linearGradient><linearGradient id="e" x1="8.0708" x2="8.1333" y1="9.5092" y2="5.6961" gradientTransform="matrix(2.3836 0 0 2.3926 -2.7332 -3.8468)" gradientUnits="userSpaceOnUse" xlink:href="#a"/><linearGradient id="d" x1="11.054" x2="11.054" y1="7.0687" y2="2.6695" gradientTransform="matrix(2.4009 0 0 2.3926 -3.0363 -3.8468)" gradientUnits="userSpaceOnUse"><stop id="r" stop-color="#fff" offset="0"/><stop id="s" stop-color="#fbfbfa" stop-opacity="0" offset="1"/></linearGradient><radialGradient id="b" cx="4.0799" cy="5.0787" r="9.9909" gradientTransform="matrix(1.914 0 -2.8296e-6 2.3142 3.5213 -1.9978)" gradientUnits="userSpaceOnUse" xlink:href="#a"/><linearGradient id="c" x1="16.066" x2="16.363" y1="26.937" y2="2.9877" gradientTransform="matrix(1.0698 0 0 1.0698 -2.1444 -2.2086)" gradientUnits="userSpaceOnUse"><stop id="t" stop-color="#4b4b4b" offset="0"/><stop id="u" stop-color="#969696" offset="1"/></linearGradient></defs><g id="v"><path id="w" d="m-6.4122 25.076c-1.9596 8e-6 -3.3173 0.20909-4.073 0.62726-0.75573 0.41818-1.1336 1.1315-1.1336 2.1401-4e-6 0.80355 0.2812 1.4431 0.8436 1.9187 0.57118 0.46737 1.3445 0.70106 2.3199 0.70105 1.3445 2e-6 2.421-0.44277 3.2294-1.3283 0.81723-0.89374 1.2259-2.0786 1.2259-3.5545v-0.50427h-2.4122m4.8375-0.93474v7.8592h-2.4254v-2.0909c-0.55363 0.83635-1.2434 1.4554-2.0695 1.8572-0.82604 0.39357-1.8366 0.59036-3.0317 0.59036-1.5115 0-2.7154-0.39357-3.6117-1.1807-0.88754-0.79535-1.3313-1.8572-1.3313-3.1855-1e-6 -1.5497 0.55361-2.7181 1.6608-3.5053 1.116-0.78714 2.7769-1.1807 4.9825-1.1807h3.4008v-0.22139c-1.14e-5 -1.0413-0.36909-1.8449-1.1072-2.4106-0.72938-0.57395-1.7575-0.86093-3.0844-0.86094-0.84361 1.2e-5 -1.6652 0.094306-2.4649 0.28288-0.79967 0.1886-1.5686 0.47148-2.3067 0.84864v-2.0909c0.88754-0.31976 1.7487-0.55755 2.5835-0.71335 0.83481-0.16398 1.6477-0.24597 2.4385-0.24598 2.1354 1.4e-5 3.7303 0.51658 4.7848 1.5497 1.0545 1.0331 1.5817 2.5992 1.5818 4.6983m-4.4289-12.287h2.6231l-4.2971 4.6245h-2.0167l3.6908-4.6245" fill="#000"/><rect id="x" transform="matrix(2.1312 0 0 1.6087 .06712 11.585)" y="17.938" width="22" height="4.0625" rx=".73944" ry=".9796" fill="#2e3436" filter="url(#h)" opacity=".21875"/><path id="y" d="m43.637 2.7714-4.717 4.4383v32.037l4.6066 4.2394 0.11036-40.715z" fill="#d3d7cf" fill-rule="evenodd"/><rect id="z" x="1.6785" y="1.5226" width="43.88" height="43.932" rx="2.6746" ry="2.6746" fill="url(#b)" stroke="url(#c)" stroke-linecap="round" stroke-linejoin="miter" stroke-miterlimit="4" stroke-width="1.0698"/><rect id="aa" x="8.0059" y="6.9423" width="30.994" height="31.101" rx="1.5759" ry="1.5759" fill="url(#e)" stroke="url(#d)" stroke-linecap="round" stroke-linejoin="miter" stroke-miterlimit="4" stroke-width="1.0698"/><rect id="ab" x="2.7482" y="2.6056" width="41.797" height="41.607" rx="1.4326" ry="1.4326" fill="none" opacity=".42708" stroke="#fff" stroke-linecap="round" stroke-linejoin="miter" stroke-miterlimit="4" stroke-width="1.0698"/><path id="ac" d="m42.597 3.8478-4.0161 3.9196" fill="#eff0ed" fill-rule="evenodd" stroke="#eff0ed" stroke-linejoin="miter" stroke-width="1.0698px"/><path id="ad" d="m38.291 37.183 4.2169 4.7237" fill="none" stroke="url(#f)" stroke-linejoin="miter" stroke-width="1.0698px"/><path id="ae" d="m8.6567 37.33-4.2169 4.7237" fill="none" stroke="url(#g)" stroke-linejoin="miter" stroke-width="1.0698px"/><path id="af" d="m23.153 10.282c-1.2692 3.2e-5 -2.3145 0.30321-3.1348 0.88687-0.80486 0.5713-1.1942 1.3193-1.1942 2.2383-3e-6 0.89419 0.4112 1.6298 1.2315 2.2383 0.82034 0.60855 1.8438 0.92913 3.0975 0.9291 1.2692 2.4e-5 2.3145-0.33297 3.1348-0.9291 0.82033-0.6085 1.2315-1.3317 1.2315-2.2383-1.2e-5 -0.89414-0.38938-1.6546-1.1942-2.2383-0.80487-0.59608-1.872-0.88684-3.1722-0.88687z" fill="#000"/><path id="ag" d="m19.844 20.091v13.909h6.6559v-13.909h-6.6559z" fill="#000"/></g></svg>
