<?xml version="1.0" encoding="UTF-8"?>
<svg id="c" version="1.1" viewBox="0 0 48 48" xmlns="http://www.w3.org/2000/svg" xmlns:xlink="http://www.w3.org/1999/xlink"><defs id="d"><radialGradient id="a" cx="14.288" cy="68.873" r="11.69" fy="72.568" gradientTransform="matrix(1.3993 -2.2344e-7 8.1962e-8 .51326 4.3651 4.8393)" gradientUnits="userSpaceOnUse"><stop id="e" stop-opacity=".32673" offset="0"/><stop id="f" stop-opacity="0" offset="1"/></radialGradient><linearGradient id="b" x1="343.78" x2="447.21" y1="169.58" y2="7.4489" gradientTransform="matrix(.20068 0 0 .20068 -54.336 -1.0508)" gradientUnits="userSpaceOnUse"><stop id="g" stop-color="#3e9ade" offset="0"/><stop id="h" stop-color="#fff" offset="1"/></linearGradient></defs><g id="i"><path id="j" transform="matrix(1.1864 0 0 1.1864 -4.5397 -7.7947)" d="m44.286 38.714a19.929 9.8372 0 1 1-39.857 0 19.929 9.8372 0 1 1 39.857 0z" color="#000000" fill="url(#a)" fill-rule="evenodd"/></g><g id="k"><path id="l" d="m25.164 0.23799c-0.47318 0.03238-0.93309 0.10566-1.3979 0.15885h-0.03177l-1.1119 6.068c-1.8124 0.41274-3.5174 1.1132-5.0513 2.065l-4.9878-3.5899c-1.3483 1.0468-2.5753 2.2677-3.6535 3.5899l3.4629 5.0513c-1.0514 1.6068-1.8421 3.4415-2.2874 5.369-7.6e-5 0.0091-6.2e-5 0.03018 0 0.03177l-6.0362 0.95308c-0.11036 0.90137-0.15885 1.8329-0.15885 2.7639 0 0.76175 0.02103 1.5133 0.09531 2.2556l6.0362 1.0802c0.4293 2.0962 1.2448 4.0538 2.3827 5.782l-3.5899 4.9243c1.0281 1.2764 2.2151 2.4385 3.4946 3.4629l5.0831-3.4946c1.7765 1.1332 3.7595 1.9279 5.9091 2.3192l0.95308 6.0044c0.67725 0.06165 1.3718 0.06354 2.065 0.06354 0.97868-1e-6 1.9135-0.03709 2.8592-0.15885l1.1437-6.1315c2.0409-0.5079 3.9582-1.389 5.6232-2.5733l4.8925 3.5582c1.2688-1.0794 2.429-2.3202 3.4311-3.6535l-3.5582-5.1466c0.96361-1.6642 1.6313-3.5004 1.9697-5.4643l6.0044-0.95308c0.05266-0.62659 0.06354-1.2343 0.06354-1.8744 0-1.1124-0.1293-2.2031-0.28592-3.2722l-6.0997-1.1119c-0.47801-1.7651-1.2623-3.4119-2.2556-4.8925l3.5899-4.9243c-1.1128-1.3609-2.3821-2.618-3.7806-3.6852l-5.1784 3.5582c-1.4883-0.88023-3.09-1.5556-4.8289-1.9379l-0.95308-6.0362c-0.86748-0.10204-1.7421-0.15885-2.6369-0.15885-0.24183 0-0.49071-0.0076-0.7307 0-0.117 0.0037-0.23277-0.0068-0.34946 0-0.0316 0.0018-0.06376-0.0022-0.09531 0zm0.826 15.44c0.11606-0.0059 0.23194 0 0.34946 0 3.7606 0 6.8304 3.0698 6.8304 6.8304 1e-6 3.7606-3.0698 6.7986-6.8304 6.7986-3.7606 1e-6 -6.7986-3.038-6.7986-6.7986 1e-6 -3.6431 2.8512-6.6478 6.4492-6.8304z" color="#000000" fill="#006" fill-rule="nonzero"/><path id="m" d="m22.7 0.94747c-0.47318 0.032376-0.93309 0.10566-1.3979 0.15885h-0.03177l-1.1119 6.068c-1.8124 0.41274-3.5174 1.1132-5.0513 2.065l-4.9878-3.5899c-1.3483 1.0468-2.5753 2.2677-3.6535 3.5899l3.4629 5.0513c-1.0514 1.6068-1.8421 3.4415-2.2874 5.369-7.6e-5 0.009111-6.2e-5 0.030181 0 0.031769l-6.0362 0.95308c-0.11036 0.90137-0.15885 1.8329-0.15885 2.7639 0 0.76175 0.021033 1.5133 0.095308 2.2556l6.0362 1.0802c0.4293 2.0962 1.2448 4.0538 2.3827 5.782l-3.5899 4.9243c1.0281 1.2764 2.2151 2.4385 3.4946 3.4629l5.0831-3.4946c1.7765 1.1332 3.7595 1.9279 5.9091 2.3192l0.95308 6.0044c0.67725 0.061647 1.3718 0.063539 2.065 0.063539 0.97868-1e-6 1.9135-0.037089 2.8592-0.15885l1.1437-6.1315c2.0409-0.5079 3.9582-1.389 5.6232-2.5733l4.8925 3.5582c1.2688-1.0794 2.429-2.3202 3.4311-3.6535l-3.5582-5.1466c0.96361-1.6642 1.6313-3.5004 1.9697-5.4643l6.0044-0.95308c0.052658-0.62659 0.063538-1.2343 0.063538-1.8744 0-1.1124-0.1293-2.2031-0.28592-3.2722l-6.0997-1.1119c-0.47801-1.7651-1.2623-3.4119-2.2556-4.8925l3.5899-4.9243c-1.1128-1.3609-2.3821-2.618-3.7806-3.6852l-5.1784 3.5582c-1.4883-0.88023-3.09-1.5556-4.8289-1.9379l-0.95308-6.0362c-0.86748-0.10204-1.7421-0.15885-2.6369-0.15885-0.24183 1e-8 -0.49071-0.007609-0.7307 0-0.117 0.0037094-0.23277-0.0068062-0.34946 0-0.031605 0.0018433-0.063763-0.0021584-0.095308 0zm0.826 15.44c0.11606-0.005889 0.23194 0 0.34946 0 3.7606 0 6.8304 3.0698 6.8304 6.8304 1e-6 3.7606-3.0698 6.7986-6.8304 6.7986-3.7606 1e-6 -6.7986-3.038-6.7986-6.7986 1e-6 -3.6431 2.8512-6.6478 6.4492-6.8304z" color="#000000" fill="url(#b)" fill-rule="nonzero" stroke="#3f4561" stroke-linecap="round" stroke-linejoin="round" stroke-miterlimit="4" stroke-width="1"/><path id="n" transform="matrix(.6166 0 0 .6166 9.382 8.5397)" d="m36.239 23.782a12.728 12.728 0 1 1-25.456 0 12.728 12.728 0 1 1 25.456 0z" color="#000000" fill="none" opacity=".64773" stroke="#fff" stroke-linejoin="miter" stroke-miterlimit="4" stroke-width="1.6218"/><path id="o" d="m21.996 2.2698-0.89278 5.8751c-1.6988 0.38687-4.8236 1.5701-6.2614 2.4622l-4.7497-3.5451c-1.2638 0.9812-1.3505 1.0477-2.3611 2.2871l3.4342 5.0932c-0.98553 1.5061-2.1693 4.19-2.5943 6.1079l-6.0178 1.0144c-0.10344 0.84488-0.053728 2.6532 0.015892 3.3489l5.7482 1.0355c0.40239 1.9648 1.9082 5.1274 2.9748 6.7473l-3.635 4.8026c0.9637 1.1964 1.1566 1.3059 2.3559 2.2661l4.8606-3.561c1.6651 1.0622 4.9703 2.3544 6.9851 2.7211l0.79773 5.8011c0.63481 0.05778 2.3885 0.21988 3.275 0.10575l0.89278-6.0389c1.913-0.47607 5.2185-1.8329 6.7791-2.943l4.8554 3.5082c1.1893-1.0118 1.1999-1.1642 2.1392-2.414l-3.598-5.1143c0.90322-1.5599 2.0711-4.6106 2.3883-6.4515l5.8909-0.97744c0.04935-0.58732 0.05176-2.2252-0.09506-3.2273l-6.0019-1.0355c-0.44805-1.6545-1.9857-4.6358-2.9167-6.0236l3.8147-4.8026c-1.043-1.2756-1.4308-1.4506-2.7416-2.451l-5.0245 3.598c-1.3951-0.82506-4.1769-2.0828-5.8069-2.4412l-0.88759-5.7482c-0.81311-0.095648-3.159-0.053175-3.6237 0z" color="#000000" fill="none" opacity=".34659" stroke="#fff" stroke-linejoin="miter" stroke-miterlimit="4" stroke-width="1"/><path id="p" d="m10.103 6.2971c-1.3483 1.0468-1.9373 1.6749-3.0154 2.9971l3.4025 4.965c-1.0514 1.5986-2.1583 4.167-2.3475 5.7286l-6.0625 1.0442c-0.068973 0.56336-0.17364 1.8529-0.17364 1.8529l0.17678 1.5625c0.42773 0.088335 0.84016 0.17052 1.2812 0.21875l0.5-1.5312c0.34404 0.028476 0.67965 0.0625 1.0312 0.0625 0.35121 0 0.71846-0.03383 1.0625-0.0625l0.46875 1.5312c0.44129-0.048235 0.88477-0.13042 1.3125-0.21875v-1.5625c0.68576-0.15962 1.332-0.38776 1.9688-0.65625l0.9375 1.2812c0.40235-0.18209 0.7756-0.37582 1.1562-0.59375l-0.5-1.5c0.59723-0.36225 1.1618-0.79535 1.6875-1.25l1.2812 0.9375c0.32564-0.29658 0.64111-0.61186 0.9375-0.9375l-0.9375-1.25c0.45485-0.52575 0.8565-1.0899 1.2188-1.6875l1.5 0.46875c0.21793-0.38085 0.44329-0.75409 0.625-1.1562l-1.2812-0.9375c0.26849-0.63675 0.46499-1.283 0.625-1.9688h1.5938c0.088335-0.42773 0.13946-0.87121 0.1875-1.3125l-1.5-0.46875c0.028862-0.34385 0.0625-0.7111 0.0625-1.0625-1e-6 -0.3514-0.034024-0.68701-0.0625-1.0312l1.5-0.46875c-0.045547-0.41989-0.10559-0.842-0.1875-1.25-1.1474 0.3993-2.5527 1.1531-3.5685 1.7835l-4.8804-3.5275z" color="#000000" fill="#fff" fill-rule="nonzero" opacity=".5"/><path id="q" d="m37.237 17.218c-0.38378 0.18138-0.74664 0.38576-1.1134 0.59554l0.56965 1.7348c-0.69709 0.4223-1.3547 0.91969-1.9679 1.45l-1.4759-1.0875c-0.38009 0.3459-0.74177 0.70758-1.0875 1.0875l1.0875 1.4759c-0.53033 0.61331-1.0276 1.2709-1.45 1.9679l-0.54376-0.18125c-0.047682 0.70028-0.23638 1.3615-0.51786 1.9679l0.10357 0.077679c-0.31316 0.74268-0.56455 1.5304-0.7509 2.3304h-1.4759c-0.13628 0.085452-0.27055 0.18506-0.41429 0.25893-0.07837 0.41527-0.13491 0.81733-0.18125 1.2429l1.7607 0.56965c-0.033387 0.40128-0.051787 0.8072-0.051787 1.217-2e-6 0.40994 0.018401 0.8157 0.051787 1.217l-1.7607 0.56965c0.056018 0.51476 0.12999 1.0287 0.23304 1.5277l1.8384-0.025893c0.12812 0.54999 0.30306 1.1074 0.49197 1.6313 0.74492-0.28728 1.4738-0.63018 2.1491-1.0357-0.41159-1.216-0.64733-2.5291-0.64733-3.884 1e-6 -5.1979 3.2924-9.6367 7.8974-11.341l-1.0875-0.18125c-0.22279-0.82266-0.51132-1.6286-0.88037-2.3822-0.010854-0.022164-0.014925-0.055581-0.025893-0.07768l-0.051786-0.051786-0.69912-0.67322z" color="#000000" fill="#fff" fill-rule="nonzero" opacity=".5"/></g></svg>
