<?xml version="1.0" encoding="UTF-8"?>
<svg id="j" enable-background="new" version="1.0" viewBox="0 0 128 128" xmlns="http://www.w3.org/2000/svg" xmlns:xlink="http://www.w3.org/1999/xlink"><title id="k">Adwaita Icon Template</title><defs id="l"><linearGradient id="a"><stop id="m" stop-color="#c0bfbc" offset="0"/><stop id="n" stop-color="#77767b" offset="1"/></linearGradient><radialGradient id="c" cx="-64" cy="-224" r="36" gradientTransform="matrix(1.4935 0 0 .99567 31.584 -.97043)" gradientUnits="userSpaceOnUse"><stop id="o" stop-color="#549ff8" offset="0"/><stop id="p" stop-color="#06499b" offset="1"/></radialGradient><radialGradient id="b" cx="-64" cy="-224" r="36" gradientTransform="matrix(1.75 -9.1667e-8 6.1111e-8 1.1667 48 37.333)" gradientUnits="userSpaceOnUse"><stop id="q" stop-color="#1a81ff" stop-opacity="0" offset="0"/><stop id="r" stop-color="#137af9" stop-opacity=".59055" offset=".5"/><stop id="s" stop-color="#0069eb" offset="1"/></radialGradient><linearGradient id="h" x1="94" x2="106" y1="266" y2="266" gradientTransform="translate(-364,-166)" gradientUnits="userSpaceOnUse" xlink:href="#a"/><linearGradient id="g" x1="82" x2="82" y1="264" y2="272" gradientTransform="matrix(1 0 0 .75 -58 -466)" gradientUnits="userSpaceOnUse" xlink:href="#a"/><linearGradient id="f" x1="82" x2="82" y1="264" y2="272" gradientTransform="matrix(1 0 0 .75 -48 -466)" gradientUnits="userSpaceOnUse" xlink:href="#a"/><linearGradient id="e" x1="48" x2="464" y1="44" y2="44" gradientTransform="matrix(.25 0 0 .074468 0 261.23)" gradientUnits="userSpaceOnUse"><stop id="t" stop-color="#c0bfbc" offset="0"/><stop id="u" stop-color="#fff" offset=".05"/><stop id="v" stop-color="#deddda" offset=".1"/><stop id="w" stop-color="#deddda" offset=".9"/><stop id="x" stop-color="#fff" offset=".95"/><stop id="y" stop-color="#c0bfbc" offset="1"/></linearGradient><linearGradient id="i" x1="66" x2="66" y1="284" y2="288" gradientTransform="translate(10 4)" gradientUnits="userSpaceOnUse"><stop id="z" stop-color="#f6f5f4" offset="0"/><stop id="aa" stop-color="#deddda" offset="1"/></linearGradient><linearGradient id="d" x1="42" x2="42" y1="290" y2="274" gradientUnits="userSpaceOnUse"><stop id="ab" stop-color="#c0bfbc" offset="0"/><stop id="ac" stop-color="#9a9996" offset="1"/></linearGradient></defs><g id="ad" transform="translate(0,-172)"><rect id="ae" x="34" y="264" width="60" height="28" enable-background="new" fill="url(#d)" style="paint-order:normal"/><g id="af"><path id="ag" d="m32 288h64.062c1.9375 0 3.9375 2 3.9375 4h-72c0-2 2-4 4-4z" enable-background="new" fill="url(#i)"/></g><rect id="ah" x="12" y="252" width="104" height="28" rx="8" ry="8" enable-background="new" fill="url(#e)" style="paint-order:normal"/><rect id="ai" x="12" y="184" width="104" height="92" rx="8" ry="8" enable-background="new" fill="#f6f5f4" style="paint-order:normal"/><rect id="aj" transform="scale(1,-1)" x="20" y="-256" width="88" height="64" rx="4" ry="4" enable-background="new" fill="#241f31" style="paint-order:normal"/><circle id="ak" cx="100" cy="266" r="6" enable-background="new" fill="#5e5c64"/><circle id="al" transform="rotate(-90)" cx="-264" cy="100" r="6" enable-background="new" fill="url(#h)"/><rect id="am" x="22" y="262" width="5" height="8" rx="2" ry="2" enable-background="new" fill="#5e5c64"/><rect id="an" transform="scale(1,-1)" x="22" y="-268" width="5" height="6" rx="2" ry="2" enable-background="new" fill="url(#g)"/><rect id="ao" x="32" y="262" width="5" height="8" rx="2" ry="2" enable-background="new" fill="#5e5c64"/><rect id="ap" transform="scale(1,-1)" x="32" y="-268" width="5" height="6" rx="2" ry="2" enable-background="new" fill="url(#f)"/><circle id="aq" cx="104" cy="264" r="1" fill="#241f31"/><rect id="ar" transform="scale(-1)" x="-100" y="-248" width="72" height="48" enable-background="new" fill="url(#c)" style="paint-order:normal"/><g id="as" transform="matrix(2 0 0 1 -64 -6.5e-5)" enable-background="new" stroke-width=".70711"><g id="at" fill="#abdaff"><rect id="au" x="60" y="200" width="2" height="48" opacity=".55"/><rect id="av" x="66" y="200" width="4" height="48" opacity=".2"/><rect id="aw" x="46" y="200" width="2" height="48" opacity=".4"/><rect id="ax" x="80" y="200" width="2" height="48" opacity=".55"/><rect id="ay" x="54" y="200" width="1" height="48" opacity=".2"/><rect id="az" x="75" y="200" width="1" height="48" opacity=".55"/></g><g id="ba" fill="#023b83"><rect id="bb" x="62" y="200" width="4" height="48" opacity=".4"/><rect id="bc" x="76" y="200" width="4" height="48" opacity=".2"/><rect id="bd" x="52" y="200" width="2" height="48" opacity=".55"/></g></g><rect id="be" transform="scale(-1)" x="-100" y="-248" width="72" height="48" enable-background="new" fill="url(#b)" style="paint-order:normal"/></g></svg>
