<?xml version="1.0" encoding="UTF-8"?>
<svg id="aj" version="1.1" viewBox="0 0 64 64" xmlns="http://www.w3.org/2000/svg" xmlns:osb="http://www.openswatchbook.org/uri/2009/osb" xmlns:xlink="http://www.w3.org/1999/xlink"><defs id="ak"><linearGradient id="a"><stop id="al" stop-color="#fff" offset="0"/><stop id="am" stop-color="#323232" offset="1"/></linearGradient><linearGradient id="f"><stop id="an" stop-color="#fff" offset="0"/><stop id="ao" stop-color="#e9e9e9" offset="1"/></linearGradient><radialGradient id="ai" cx="322.42" cy="889.23" r="112.83" gradientTransform="matrix(.1256 -1.5041e-7 7.4646e-8 .056726 -.077567 985.97)" gradientUnits="userSpaceOnUse" xlink:href="#f"/><radialGradient id="d" cx="380.71" cy="942.79" r="112.83" gradientTransform="matrix(.1256 0 0 .056614 -.074511 986.07)" gradientUnits="userSpaceOnUse" xlink:href="#f"/><radialGradient id="ah" cx="267.09" cy="839.81" r="237.64" gradientTransform="matrix(.12562 -1.7875e-8 1.0382e-8 .072959 -.080014 959.83)" gradientUnits="userSpaceOnUse" xlink:href="#f"/><radialGradient id="c" cx="257.14" cy="737.01" r="237.64" gradientTransform="matrix(.1256 0 0 .072934 -.074511 959.85)" gradientUnits="userSpaceOnUse" xlink:href="#f"/><radialGradient id="ag" cx="40.421" cy="1032.7" r="14.171" gradientTransform="matrix(1 0 0 .45162 -.0003775 570.01)" gradientUnits="userSpaceOnUse" xlink:href="#a"/><radialGradient id="af" cx="47.743" cy="1039.5" r="14.162" gradientTransform="matrix(1 0 0 .4507 0 570.98)" gradientUnits="userSpaceOnUse" xlink:href="#a"/><radialGradient id="ae" cx="47.744" cy="1039.5" r="14.151" gradientTransform="matrix(1 0 0 .45006 0 571.64)" gradientUnits="userSpaceOnUse" xlink:href="#a"/><radialGradient id="ad" cx="47.743" cy="1039.5" r="14.134" gradientTransform="matrix(1 0 0 .44938 0 572.34)" gradientUnits="userSpaceOnUse" xlink:href="#a"/><radialGradient id="ac" cx="47.742" cy="1039.4" r="14.121" gradientTransform="matrix(1 0 0 .44883 0 572.92)" gradientUnits="userSpaceOnUse" xlink:href="#a"/><radialGradient id="ab" cx="47.742" cy="1039.4" r="14.108" gradientTransform="matrix(1 0 0 .44831 0 573.45)" gradientUnits="userSpaceOnUse" xlink:href="#a"/><radialGradient id="aa" cx="47.742" cy="1039.5" r="14.097" gradientTransform="matrix(1 0 0 .44783 0 573.95)" gradientUnits="userSpaceOnUse" xlink:href="#a"/><radialGradient id="z" cx="47.743" cy="1039.5" r="14.087" gradientTransform="matrix(1 0 0 .44723 0 574.57)" gradientUnits="userSpaceOnUse" xlink:href="#a"/><radialGradient id="y" cx="47.744" cy="1039.5" r="14.072" gradientTransform="matrix(1 0 0 .4467 0 575.13)" gradientUnits="userSpaceOnUse" xlink:href="#a"/><radialGradient id="x" cx="47.743" cy="1039.5" r="14.06" gradientTransform="matrix(1 0 0 .44624 0 575.6)" gradientUnits="userSpaceOnUse" xlink:href="#a"/><radialGradient id="w" cx="47.742" cy="1039.4" r="14.047" gradientTransform="matrix(1 0 0 .44587 0 575.99)" gradientUnits="userSpaceOnUse" xlink:href="#a"/><radialGradient id="b" cx="257.43" cy="810.41" r="112.84" gradientTransform="matrix(1 0 0 .45118 0 517.41)" gradientUnits="userSpaceOnUse" xlink:href="#a"/><radialGradient id="v" cx="33.472" cy="1026.5" r="29.852" gradientTransform="matrix(1 0 0 .5808 -1.2661e-5 424.9)" gradientUnits="userSpaceOnUse" xlink:href="#a"/><radialGradient id="u" cx="32.223" cy="1013.6" r="29.843" gradientTransform="matrix(1 0 0 .58068 0 425.02)" gradientUnits="userSpaceOnUse" xlink:href="#a"/><radialGradient id="t" cx="32.222" cy="1013.6" r="29.83" gradientTransform="matrix(1 0 0 .58047 0 425.23)" gradientUnits="userSpaceOnUse" xlink:href="#a"/><radialGradient id="s" cx="32.221" cy="1013.6" r="29.812" gradientTransform="matrix(1 0 0 .58023 0 425.48)" gradientUnits="userSpaceOnUse" xlink:href="#a"/><radialGradient id="r" cx="32.221" cy="1013.6" r="29.798" gradientTransform="matrix(1 0 0 .57999 0 425.72)" gradientUnits="userSpaceOnUse" xlink:href="#a"/><radialGradient id="q" cx="32.222" cy="1013.6" r="29.784" gradientTransform="matrix(1 0 0 .57982 0 425.9)" gradientUnits="userSpaceOnUse" xlink:href="#a"/><radialGradient id="p" cx="32.221" cy="1013.6" r="29.773" gradientTransform="matrix(1 0 0 .57965 0 426.07)" gradientUnits="userSpaceOnUse" xlink:href="#a"/><radialGradient id="o" cx="32.219" cy="1013.6" r="29.763" gradientTransform="matrix(1 0 0 .57951 0 426.21)" gradientUnits="userSpaceOnUse" xlink:href="#a"/><radialGradient id="n" cx="32.219" cy="1013.6" r="29.748" gradientTransform="matrix(1 0 0 .57931 0 426.41)" gradientUnits="userSpaceOnUse" xlink:href="#a"/><radialGradient id="m" cx="32.22" cy="1013.6" r="29.736" gradientTransform="matrix(1 0 0 .57919 0 426.54)" gradientUnits="userSpaceOnUse" xlink:href="#a"/><radialGradient id="l" cx="32.221" cy="1013.6" r="29.723" gradientTransform="matrix(1 0 0 .57891 0 426.82)" gradientUnits="userSpaceOnUse" xlink:href="#a"/><radialGradient id="k" cx="380.72" cy="942.78" r="112.38" gradientTransform="matrix(1 0 0 .44857 0 519.88)" gradientUnits="userSpaceOnUse" xlink:href="#a"/><radialGradient id="j" cx="132.31" cy="942.78" r="112.38" gradientTransform="matrix(1 0 0 .44857 0 519.88)" gradientUnits="userSpaceOnUse" xlink:href="#a"/><radialGradient id="i" cx="257.14" cy="737.02" r="237.2" gradientTransform="matrix(1 0 0 .57987 0 309.64)" gradientUnits="userSpaceOnUse" xlink:href="#a"/><radialGradient id="e" cx="257.43" cy="818.04" r="118.81" gradientTransform="matrix(1 0 0 .47876 0 491.4)" gradientUnits="userSpaceOnUse" xlink:href="#f"/><radialGradient id="h" cx="157.91" cy="882.89" r="112.84" gradientTransform="matrix(1 0 0 .45118 0 517.41)" gradientUnits="userSpaceOnUse" xlink:href="#a"/><radialGradient id="g" cx="157.91" cy="886.34" r="118.81" gradientTransform="matrix(1 0 0 .47876 0 491.4)" gradientUnits="userSpaceOnUse" xlink:href="#f"/></defs><g id="ap" transform="translate(0 -988.36)" stroke-linecap="square" stroke-linejoin="bevel" stroke-miterlimit="4"><path id="aq" transform="matrix(.1256 0 0 .1256 -.074511 921.04)" d="m45 599.47c-13.877 0-25.062 11.154-25.062 25.031v250a0.050005 0.050005 0 0 0 0.03125 0.0312 0.050005 0.050005 0 0 0 0 0.0312 0.050005 0.050005 0 0 0 0.03125 0h474.28a0.050005 0.050005 0 0 0 0.0312 0 0.050005 0.050005 0 0 0 0-0.0312 0.050005 0.050005 0 0 0 0.0312 0 0.050005 0.050005 0 0 0 0-0.0312v-250c0-13.877-11.186-25.031-25.062-25.031h-424.28zm0 0.0937h424.28c13.823 0 24.969 11.114 24.969 24.938v249.97h-474.19v-249.97c0-13.823 11.114-24.938 24.938-24.938z" color="#000000" enable-background="accumulate" fill="#000" fill-rule="evenodd" stroke="url(#i)" stroke-width="11.943" style="block-progression:tb;text-indent:0;text-transform:none"/><path id="ar" transform="matrix(.1256 0 0 .1256 -.074511 921.04)" d="m19.969 892.38a0.050005 0.050005 0 0 0 0 0.0312 0.050005 0.050005 0 0 0-0.03125 0.0312v75.719c0 13.877 11.186 25.031 25.062 25.031h199.28a0.050005 0.050005 0 0 0 0.0312 0 0.050005 0.050005 0 0 0 0.0312-0.0312c0-21.746 0.0343-28.715 0.0625-32.5 0.0114 0.65313 0.02 1.2239 0.0312 1.5625 5e-3 0.15402 0.0256 0.25777 0.0312 0.3125 5.6e-4 5e-3 -5.9e-4 0.0268 0 0.0312 1e-3 6e-3 0.0306 0.0306 0.0312 0.0312 6.9e-4 6.2e-4 0.0591-0.0223 0.0625-0.0312 8.7e-4 -5e-3 -7.4e-4 -0.0243 0-0.0312 2e-3 -0.0227 0.0292-0.0483 0.0312-0.0937 0.0217-0.47519 0.0453-2.3455 0.0625-6.6562 0.0343-8.6216 0.0312-26.981 0.0312-63.344a0.050005 0.050005 0 0 0 0-0.0312 0.050005 0.050005 0 0 0-0.0312-0.0312l-224.66-1e-4a0.050005 0.050005 0 0 0-0.03125 0zm0.09375 0.0937h224.53c-2e-5 36.327-0.0282 54.696-0.0625 63.312-0.0105 2.6309-0.019 3.0121-0.0312 4.0625-0.0182-1.1273-0.0454-2.375-0.0625-3.1875-5e-3 -0.25493 5e-3 -0.46832 0-0.625-3e-3 -0.0783 3e-3 -0.13944 0-0.1875-2e-3 -0.0336-0.0292-0.0437-0.0312-0.0625-8.8e-4 -8e-3 1e-3 -0.0248 0-0.0312-1e-3 -5e-3 6.1e-4 -0.0304 0-0.0312-6.1e-4 -8.6e-4 -0.0931 0.0297-0.0937 0.0312-8.3e-4 6e-3 6.5e-4 0.0241 0 0.0312-3e-3 0.0284 2e-3 0.0559 0 0.125-5e-3 0.13825-0.027 0.38587-0.0312 0.71875-0.0343 2.6585-0.0312 12.118-0.0312 36.469h-199.25c-13.823 0-24.938-11.114-24.938-24.938v-75.688z" color="#000000" enable-background="accumulate" fill="#000" fill-rule="evenodd" stroke="url(#j)" stroke-width="11.943" style="block-progression:tb;text-indent:0;text-transform:none"/><path id="as" transform="matrix(.1256 0 0 .1256 -.074511 921.04)" d="m268.38 892.38a0.050005 0.050005 0 0 0-0.0312 0.0312 0.050005 0.050005 0 0 0 0 0.0312c0 36.362 0.0282 54.722 0.0625 63.344 0.0172 4.3108 0.0408 6.1811 0.0625 6.6562-2e-3 0.0239 1e-3 0.0835 0 0.0937 7.8e-4 8e-3 -9.3e-4 0.0255 0 0.0312 3e-3 9e-3 0.0931 0.0319 0.0937 0.0312 6.9e-4 -6.2e-4 -1e-3 -0.0255 0-0.0312 5.9e-4 -4e-3 -5.6e-4 -0.0258 0-0.0312-2e-3 -0.0109 3e-3 -0.0355 0-0.0937 4e-3 -0.0595 0.0276-0.11052 0.0312-0.21875 0.0113-0.33856 0.0198-0.90937 0.0312-1.5625 0.0125-0.71435 0.019-1.4192 0.0312-2.1875 0.0315 3.1947 0.0625 11.478 0.0625 34.688a0.050005 0.050005 0 0 0 0 0.0312 0.050005 0.050005 0 0 0 0.0312 0h199.28c13.877 0 25.062-11.155 25.062-25.031v-75.719a0.050005 0.050005 0 0 0 0-0.0312 0.050005 0.050005 0 0 0-0.0312 0 0.050005 0.050005 0 0 0 0-0.0312 0.050005 0.050005 0 0 0-0.0312 0h-224.66zm0.0625 0.0937h224.56v75.688c0 13.823-11.146 24.938-24.969 24.938h-199.22c-8e-5 -24.35-0.0282-33.81-0.0625-36.469-4e-3 -0.2751-0.0275-0.45357-0.0312-0.59375 3e-3 -0.078-2e-3 -0.14061 0-0.1875-1e-3 -0.0238 1e-3 -0.0483 0-0.0625-6.5e-4 -7e-3 8.3e-4 -0.0257 0-0.0312-6.1e-4 -2e-3 -0.0931-0.0321-0.0937-0.0312-6.1e-4 8.6e-4 1e-3 0.0259 0 0.0312-1e-3 7e-3 9.5e-4 0.0221 0 0.0312-2e-3 0.0184 2e-3 0.0305 0 0.0625 1e-3 0.0231-1e-3 0.0283 0 0.0625-2e-3 0.0394-0.0295 0.0721-0.0312 0.125-5e-3 0.15668 5e-3 0.37007 0 0.625-0.0183 0.86839-0.043 2.2193-0.0625 3.4062-0.013-1.0312-0.0202-1.5088-0.0312-4.2812-0.0343-8.6169-0.0625-26.986-0.0625-63.312z" color="#000000" enable-background="accumulate" fill="#000" fill-rule="evenodd" stroke="url(#k)" stroke-width="11.943" style="block-progression:tb;text-indent:0;text-transform:none"/><path id="at" d="m5.4203 996.4c-1.6089 0.0456-2.9944 1.521-2.9201 3.136v31.274h59.443c-0.0052-10.525 0.01047-21.051-0.0079-31.576-0.08005-1.5497-1.513-2.8776-3.0693-2.8377-17.815 3e-3 -35.63-5e-3 -53.445 4e-3z" fill="url(#c)" fill-rule="evenodd" stroke="url(#l)" stroke-width="1.5"/><path id="au" d="m5.4203 996.39c-1.4327 0.0414-2.7414 1.2307-2.9044 2.6636-0.064628 1.3938-0.00885 2.7933-0.027489 4.1893v27.58h59.466c-0.0042-10.518 0.0084-21.037-0.0063-31.555-0.06169-1.3564-1.1366-2.5696-2.4546-2.8189-0.92056-0.13583-1.8601-0.0287-2.7882-0.0628-17.095 3e-3 -34.19-5e-3 -51.285 4e-3z" fill="url(#c)" fill-rule="evenodd" stroke="url(#m)" stroke-width="1.5"/><path id="av" d="m5.4164 996.38c-1.1106 0.0406-2.194 0.75846-2.6493 1.7848-0.43194 0.83913-0.2532 1.7982-0.29048 2.7061v29.966h59.49c-0.0026-10.507 0.0052-21.014-0.0039-31.521-0.04467-1.272-0.95178-2.436-2.1705-2.8024-0.74325-0.23465-1.54-0.10251-2.3204-0.13737-17.351 3e-3 -34.701-5e-3 -52.052 4e-3l-0.00323 1.3e-4z" fill="url(#c)" fill-rule="evenodd" stroke="url(#n)" stroke-width="1.5"/><path id="aw" d="m5.4164 996.36c-0.99525 0.0468-1.9302 0.5941-2.4669 1.4328-0.34819 0.54752-0.52453 1.2226-0.48852 1.8806v31.175h59.521c-0.0017-10.503 0.0033-21.006-0.0025-31.508-0.03769-1.0308-0.61536-2.0003-1.4929-2.5324-0.53569-0.32396-1.1874-0.48327-1.8219-0.45136-17.732 8.8e-4 -35.463-2e-3 -53.195 1e-3 -0.017803 8.8e-4 -0.035607 2e-3 -0.05341 3e-3z" fill="url(#c)" fill-rule="evenodd" stroke="url(#o)" stroke-width="1.5"/><path id="ax" d="m5.4164 996.35c-0.54323 0.0281-1.0801 0.19851-1.5352 0.49693-0.13536 0.0876-0.26237 0.1837-0.37792 0.28501-0.16695 0.14522-0.31441 0.30507-0.43748 0.48019-0.42257 0.55739-0.63891 1.2639-0.61657 1.9626v31.287h59.545c-3.77e-4 -10.494 8.79e-4 -20.988-6.28e-4 -31.482-0.01206-0.48699-0.14583-0.96788-0.37616-1.3965-0.10815-0.19288-0.225-0.3725-0.36642-0.53651-0.1492-0.17053-0.31168-0.33687-0.49195-0.46067-0.54962-0.42718-1.2483-0.65098-1.9432-0.6395-17.778 3.8e-4 -35.555-8.8e-4 -53.333 6.3e-4 -0.021985 1e-3 -0.043969 2e-3 -0.065954 3e-3z" fill="url(#c)" fill-rule="evenodd" stroke="url(#p)" stroke-width="1.5"/><path id="ay" d="m5.5773 996.33h53.289c1.7395 0 3.1399 1.4004 3.1399 3.1399v31.399h-59.569v-31.399c0-1.7395 1.4004-3.1399 3.1399-3.1399z" fill="url(#c)" fill-rule="evenodd" stroke="url(#q)" stroke-width="1.5"/><path id="az" d="m5.4164 996.32c-0.45886 0.0228-0.91096 0.14691-1.3179 0.36101-0.34311 0.17655-0.64098 0.42761-0.89748 0.71488-0.26567 0.28966-0.45978 0.64284-0.59492 1.0124-0.14904 0.40654-0.19456 0.84222-0.18045 1.273v31.186c0.073587 0.028 0.16865 0 0.25041 0.012h59.33c0.02778-0.074 0.0037-0.1686 0.01177-0.2504-3.77e-4 -10.418 8.79e-4 -20.837-6.28e-4 -31.256-0.01444-0.60149-0.21218-1.1944-0.5477-1.6917-0.3323-0.46231-0.77394-0.8593-1.3024-1.0855-0.45591-0.2127-0.96343-0.29477-1.4642-0.27946-17.74 3.7e-4 -35.48-8.8e-4 -53.22 6.2e-4 -0.021985 1e-3 -0.043969 2e-3 -0.065954 3e-3z" fill="url(#c)" fill-rule="evenodd" stroke="url(#r)" stroke-width="1.5"/><path id="ba" d="m5.4164 996.31c-1.1622 0.0434-2.257 0.79267-2.7238 1.8544-0.26394 0.54512-0.29999 1.1614-0.27874 1.7573v30.947c0.14717 0.056 0.33731 0.01 0.50082 0.024h59.091c0.05556-0.1472 0.0074-0.3373 0.02355-0.5008-0.0017-10.352 0.0033-20.703-0.0025-31.055-0.03106-1.1903-0.80603-2.3106-1.8981-2.7718-0.54346-0.24974-1.1509-0.27817-1.7401-0.25906-17.64 8.8e-4 -35.279-2e-3 -52.919 1e-3 -0.017803 8.8e-4 -0.035607 2e-3 -0.05341 3e-3z" fill="url(#c)" fill-rule="evenodd" stroke="url(#s)" stroke-width="1.5"/><path id="bb" d="m5.4164 996.3c-1.1646 0.0493-2.2961 0.80843-2.7512 1.9004-0.40043 0.86079-0.23173 1.8253-0.267 2.7444v29.93c0.21924 0.091 0.50881 0.013 0.75515 0.039h58.852c0.09148-0.2193 0.01318-0.5088 0.03925-0.7552-0.0026-10.281 0.0052-20.563-0.0039-30.844-0.05083-1.3374-1.0356-2.5766-2.3404-2.9062-0.75627-0.19971-1.558-0.0792-2.342-0.11208-17.314 3e-3 -34.628-5e-3 -51.942 4e-3z" fill="url(#c)" fill-rule="evenodd" stroke="url(#t)" stroke-width="1.5"/><path id="bc" d="m5.4125 996.29c-1.452 0.0443-2.7786 1.2273-2.9864 2.6715-0.090811 1.0885-0.014548 2.1865-0.039646 3.2786v28.636c0.29282 0.1193 0.67747 0.017 1.0056 0.051h58.614c0.11928-0.2929 0.01688-0.6775 0.05102-1.0056-0.0052-10.231 0.01047-20.462-0.0078-30.692-0.08121-1.386-1.1879-2.6244-2.5394-2.8809-0.94272-0.13581-1.9041-0.0287-2.8542-0.0628-17.081 3e-3 -34.162-5e-3 -51.243 4e-3z" fill="url(#c)" fill-rule="evenodd" stroke="url(#u)" stroke-width="1.5"/><path id="bd" d="m5.4125 996.27c-1.6148 0.0451-3.0361 1.4883-3.0379 3.1164v31.482c0.3664 0.1471 0.84613 0.021 1.256 0.063h58.375c0.14708-0.3664 0.02058-0.8461 0.0628-1.2559-0.0052-10.152 0.01047-20.305-0.0078-30.457-0.08848-1.5914-1.527-2.947-3.1124-2.9515-17.845 3e-3 -35.691-5e-3 -53.536 4e-3z" fill="url(#ah)" fill-rule="evenodd" stroke="url(#v)" stroke-width="1.5"/><g id="be" transform="matrix(.1256 0 0 .1256 -.074511 921.04)" fill-rule="nonzero" stroke-width="11.943"><path id="bf" d="m20.5 968.16c-0.34479 13.075 11.271 24.714 24.374 24.494 66.302 0.0147 132.6 2e-3 198.91 6e-3 0.051-12.332-0.0413-24.673 0.0937-37 0.51961-5.8953 0.0914-12.74 0.24681-19 0.0146-14.573 0.0224-29.146 0.0344-43.719h-223.66v75.219z" fill="url(#e)" opacity=".090909" stroke="url(#b)"/><path id="bg" d="m20.406 968.16c-0.2676 11.172 8.2394 21.669 19.031 23.969 7.0201 1.2867 14.426 0.32924 21.594 0.625h182.84c0.0502-12.363-0.04-24.736 0.0937-37.094 0.5154-2.417 0.0807-5.931 0.23173-8.7687 0.03-18.015 0.0331-36.029 0.0495-54.044h-223.84v75.312z" fill="url(#e)" opacity=".090909" stroke="url(#b)"/><path id="bh" d="m20.312 968.16c-0.19377 10.371 6.9176 20.169 16.719 23.395 6.0855 2.1292 12.644 1.0078 19.068 1.2926h187.87c0.0718-12.382-0.0829-24.792 0.125-37.156 0.44076-1.3455 0.067-3.654 0.19545-5.3687 0.0335-19.19 0.0377-38.379 0.0546-57.569h-224.03v75.406z" fill="url(#e)" opacity=".090909" stroke="url(#b)"/><path id="bi" d="m20.188 968.16c-0.06067 8.3652 4.3844 16.439 11.439 20.892 4.347 2.8207 9.7345 4.1673 14.973 3.9208h197.49c0.0502-12.416-0.0404-24.84 0.0937-37.25 0.52944-0.59768 0.0635-2.3448 0.22375-3.3688 0.0353-19.908 0.0405-39.817 0.0575-59.725h-224.28v75.531z" fill="url(#e)" opacity=".090909" stroke="url(#b)"/><path id="bj" d="m20.094 968.16c-0.04055 5.7075 2.012 11.382 5.638 15.779 1.0371 1.3759 2.4893 2.6861 3.893 3.8144 2.1299 1.624 4.6342 3.0605 7.2507 3.9543 2.897 1.006 5.9628 1.4161 9.0246 1.3584h198.29c0.0295-12.396 6.7e-4 -24.792 0.0625-37.188 0.39002-0.37491 0.20312 1.3642 0.25-0.0438 0.0376-21.1 0.0456-42.2 0.0625-63.3h-224.47v75.625z" fill="url(#e)" opacity=".090909" stroke="url(#b)"/><path id="bk" d="m244.29 993.15h-199.29c-13.85 0-25-11.15-25-25v-75.714h224.65c0 145.45-0.36628 2.9406-0.36628 100.71z" fill="url(#e)" opacity=".090909" stroke="url(#b)"/><path id="bl" d="m19.906 892.44c0.0063 25.514-0.01269 51.029 0.0095 76.544 0.12074 4.7329 1.6783 9.3938 4.3001 13.318 2.0553 2.9259 4.7168 5.4405 7.7529 7.3259 3.8378 2.3072 8.291 3.5961 12.775 3.6128 34.085 0.0285 68.171 4e-3 102.26 0.0122h97.281c0.22163-0.5859 0.0311-1.3428 0.096-1.9938 9e-3 -9.6792 0.0286-19.358 0.029-29.038 0.32422 0.65324 0.2147-0.85144 0.24208-1.1811 0.10012-17.746 0.0619-35.492 0.0903-53.238 4e-3 -5.1208 8e-3 -10.242 0.0114-15.362-0.5859-0.2212-1.3428-0.0295-1.9938-0.0937h-222.76l-0.07071 0.0707-0.02304 0.023z" fill="url(#e)" opacity=".090909" stroke="url(#b)"/><path id="bm" d="m19.812 892.44c0.02087 25.666-0.04172 51.335 0.03125 77 0.30358 8.5915 5.4642 16.689 12.96 20.78 4.5327 2.6006 9.8356 3.3593 14.996 3.126h196.48c0.44327-1.1718 0.0622-2.6856 0.19199-3.9875 8e-3 -8.9625 0.0266-17.925 0.0268-26.888 0.5404-0.70626 0.0988-2.2803 0.25915-3.3062 0.0794-22.242 0.0568-44.483 0.0846-66.725-1.1718-0.4424-2.6856-0.0591-3.9875-0.1875h-220.86l-0.14142 0.14142-0.04608 0.0461z" fill="url(#e)" opacity=".090909" stroke="url(#b)"/><path id="bn" d="m19.688 892.44c0.0419 25.885-0.08365 51.774 0.0625 77.656 0.67937 10.203 8.147 19.541 18.039 22.299 6.2796 1.8747 12.988 0.78124 19.511 1.076h186.98c0.72958-1.7456 0.10963-4.0512 0.31924-6.0125 8e-3 -8.3396 0.025-16.679 0.0245-25.019 0.53229-1.2957 0.11865-3.5209 0.27157-5.1749 0.0563-21.608 0.0504-43.217 0.0722-64.825-1.7456-0.72838-4.0512-0.10496-6.0125-0.3125h-218.96l-0.3125 0.3125z" fill="url(#e)" opacity=".090909" stroke="url(#b)"/><path id="bo" d="m19.594 892.44c0.06794 26.017-0.13524 52.043 0.10042 78.054 0.82293 11.989 11.415 22.321 23.337 22.977 37.449 0.21934 74.914 0.0308 112.37 0.0937h88.881c0.95136-2.3314 0.1406-5.394 0.41523-8.0062 7e-3 -7.6958 0.0233-15.392 0.0223-23.088 0.5753-3.4462 0.13566-7.7237 0.2883-11.488 0.0342-19.515 0.0385-39.029 0.0555-58.544-2.3314-0.94973-5.394-0.13439-8.0062-0.40625h-217.06l-0.40625 0.40625z" fill="url(#e)" opacity=".090909" stroke="url(#b)"/><path id="bp" d="m19.5 892.44c0.08566 26.113-0.16982 52.238 0.125 78.344 1.0192 12.858 13.065 23.382 25.875 22.875h198.78c1.1731-2.9173 0.17162-6.7369 0.51123-10 0.0103-8.9545-0.0706-17.926 0.2929-26.594 0.0538-21.542 0.0497-43.083 0.0709-64.625-2.9173-1.171-6.7369-0.16385-10-0.5h-215.16l-0.35358 0.35355-0.14645 0.14645z" fill="url(#g)" stroke="url(#h)"/></g><path id="bq" d="m33.699 1038.4c0.0084 1.0358-0.01951 2.0974 0.03823 3.0928 0.0094 1.4038 0.0031 2.8077 0.0049 4.2115 8.4017-0.01 16.805 0.016 25.206-0.012 1.5827-0.082 2.9131-1.5522 2.8377-3.1281v-9.3845h-28.09c0.0013 1.7401 0.0026 3.4801 0.0039 5.2201z" fill="url(#d)" fill-rule="evenodd" stroke="url(#w)" stroke-width="1.5"/><path id="br" d="m33.687 1038.4c0.0013 0.8871 0.0026 1.7741 0.0039 2.6611 0.07901 0.1934 0.0114 0.5437 0.03649 0.7928 0.0058 1.2874 0.0014 2.5748 0.0028 3.8621 8.3809 0 16.762 0.01 25.143 0 1.406-0.045 2.7128-1.2041 2.8887-2.614 0.08209-1.1411 0.01211-2.2907 0.03532-3.435v-6.4949h-28.114c0.0013 1.7439 0.0026 3.4879 0.0039 5.2318z" fill="url(#d)" fill-rule="evenodd" stroke="url(#x)" stroke-width="1.5"/><path id="bs" d="m33.676 1038.4c0.0013 0.8884 0.0026 1.7767 0.0039 2.665 0.07565 0.1292 0.01169 0.3962 0.0355 0.5754 0.0073 1.3625 0.0022 2.725 0.0038 4.0874 8.3849 0 16.77 0.01 25.155 0 1.2479-0.043 2.446-0.9518 2.7984-2.1744 0.23815-0.7454 0.1002-1.5431 0.13737-2.3165v-8.0766h-28.138c0.0013 1.7479 0.0026 3.4958 0.0039 5.2436z" fill="url(#d)" fill-rule="evenodd" stroke="url(#y)" stroke-width="1.5"/><path id="bt" d="m33.66 1038.4c0.0013 0.8897 0.0026 1.7793 0.0039 2.669 0.07675 0.059 0.0088 0.2723 0.03396 0.3862 0.01002 1.4294 0.0034 2.8589 0.0053 4.2883h25.056c1.192 0 2.3389-0.7699 2.8028-1.8547 0.23857-0.5186 0.28639-1.097 0.26336-1.6612v-9.0845h-28.169c0.0013 1.7531 0.0026 3.5062 0.0039 5.2593z" fill="url(#d)" fill-rule="evenodd" stroke="url(#z)" stroke-width="1.5"/><path id="bu" d="m33.648 1038.4c0.0013 0.9224 0.0029 1.8447 0.0039 2.7671-0.01574-0.1121 0.051-0.1198 0.0314 0 0.01404 1.5304 0.0055 3.0608 0.0079 4.5913 8.3433-4e-4 16.687 7e-4 25.03-6e-4 0.62395 0 1.2467-0.1936 1.7587-0.5514 0.28059-0.1805 0.53174-0.4334 0.74073-0.704 0.08958-0.136 0.1992-0.2917 0.27468-0.4473 0.24899-0.4792 0.35998-1.0245 0.34153-1.563v-9.3601h-28.193c0.0013 1.757 0.0026 3.5141 0.0039 5.2711z" fill="url(#d)" fill-rule="evenodd" stroke="url(#aa)" stroke-width="1.5"/><path id="bv" d="m33.68 1045.8h25.03c1.7395 0 3.1399-1.4004 3.1399-3.1399v-9.5095h-28.216c0 18.268 0.046 0.3694 0.046 12.649z" fill="url(#d)" fill-rule="evenodd" stroke="url(#ab)" stroke-width="1.5"/><path id="bw" d="m33.621 1033.1c4e-3 2.8521-2.51e-4 5.7042 0.01177 8.5563 0.0077 0.085-0.0092 0.1811 0.01281 0.2601 0.04268 0 0.0078 0.1282 0.02001 0.1795 0.0056 1.218 1e-3 2.436 0.0025 3.6541 0.07359 0.028 0.16865 0 0.25041 0.012 8.2677-3e-4 16.535 8e-4 24.803-6e-4 0.51805 0 1.0359-0.1293 1.4907-0.3801 0.45075-0.2357 0.83073-0.6011 1.1214-1.0154 0.36841-0.5506 0.55078-1.2194 0.52704-1.8812v-9.3844c-0.07359-0.028-0.16865 0-0.25041-0.012h-27.977l-0.0089 0.01h-0.0029z" fill="url(#d)" fill-rule="evenodd" stroke="url(#ac)" stroke-width="1.5"/><path id="bx" d="m33.609 1033.1c0.0061 2.9358-0.0045 5.8718 0.0157 8.8075 0.06685 0.1141 0.0098 0.2884 0.03064 0.4254 0.0018 1.139 2.51e-4 2.2781 7.53e-4 3.4171 0.14717 0.055 0.33731 0.01 0.50082 0.024h24.602c1.1147 0 2.1937-0.656 2.7246-1.6293 0.32408-0.5693 0.42041-1.2362 0.3887-1.8834v-9.1584c-0.14717-0.055-0.33731-0.01-0.50082-0.024h-27.739l-0.01776 0.018-0.0058 0.01z" fill="url(#d)" fill-rule="evenodd" stroke="url(#ad)" stroke-width="1.5"/><path id="by" d="m33.593 1033.1c0.0061 2.9358-0.0044 5.8718 0.0157 8.8075 0.06795 0.276 0.01272 0.6037 0.0314 0.8988v2.9437c0.21924 0.091 0.50881 0.013 0.75515 0.039 8.1606 0 16.321 0.01 24.482 0 1.2958-0.058 2.527-0.9954 2.8765-2.2653 0.23358-0.7814 0.0974-1.6107 0.13388-2.4171v-8.0029c-0.21924-0.091-0.50881-0.013-0.75515-0.039h-27.5l-0.02664 0.027-0.01261 0.013z" fill="url(#d)" fill-rule="evenodd" stroke="url(#ae)" stroke-width="1.5"/><path id="bz" d="m33.581 1033.1c0.0062 2.9358-0.0045 5.8718 0.0157 8.8075 0.07121 0.7541 0.01188 1.5575 0.0314 2.3306v1.5119c0.29282 0.1193 0.67747 0.017 1.0056 0.051 8.0811 0 16.162 0.01 24.243 0 1.4602-0.05 2.7941-1.2448 2.9868-2.7004 0.0818-1.18 0.01231-2.3681 0.03532-3.5512v-6.4455c-0.29282-0.1192-0.67747-0.017-1.0056-0.051h-27.262l-0.03552 0.035-0.0155 0.015z" fill="url(#d)" fill-rule="evenodd" stroke="url(#af)" stroke-width="1.5"/><path id="ca" d="m33.57 1033.1c0.0061 2.9358-0.0045 5.8718 0.0157 8.8075 0.07253 1.258 0.011 2.5655 0.0314 3.8425 0.3664 0.147 0.84613 0.02 1.256 0.063 8.0289-0.01 16.059 0.016 24.087-0.012 1.6097-0.085 2.9964-1.5676 2.9515-3.1909v-9.5101c-0.3664-0.147-0.84613-0.02-1.256-0.063h-27.023l-0.0444 0.044-0.01839 0.018z" fill="url(#ai)" fill-rule="evenodd" stroke="url(#ag)" stroke-width="1.5"/></g></svg>
