<?xml version="1.0" encoding="UTF-8"?>
<svg viewBox="0 0 200 200" xmlns="http://www.w3.org/2000/svg"><path d="m100 200c55.228 0 100-44.772 100-100 0-55.228-44.772-100-100-100-55.228 0-100 44.772-100 100 0 55.228 44.772 100 100 100z" clip-rule="evenodd" fill="#0DBD8B" fill-rule="evenodd"/><path d="m81.717 46.595c0-4.0365 3.279-7.3087 7.3239-7.3087 27.415 0 49.64 22.178 49.64 49.537 0 4.0365-3.28 7.3087-7.324 7.3087-4.045 0-7.324-3.2722-7.324-7.3087 0-19.285-15.667-34.919-34.992-34.919-4.0449 0-7.3239-3.2722-7.3239-7.3087z" clip-rule="evenodd" fill="#fff" fill-rule="evenodd"/><path d="m153.39 81.514c4.045 0 7.324 3.2722 7.324 7.3087 0 27.359-22.224 49.537-49.639 49.537-4.045 0-7.324-3.272-7.324-7.309 0-4.036 3.279-7.308 7.324-7.308 19.325 0 34.991-15.634 34.991-34.92 0-4.0365 3.279-7.3087 7.324-7.3087z" clip-rule="evenodd" fill="#fff" fill-rule="evenodd"/><path d="m118.4 153.4c0 4.037-3.279 7.309-7.324 7.309-27.415 0-49.639-22.178-49.639-49.537 0-4.036 3.2791-7.308 7.324-7.308 4.0448 0 7.3239 3.272 7.3239 7.308 0 19.286 15.666 34.92 34.991 34.92 4.045 0 7.324 3.272 7.324 7.308z" clip-rule="evenodd" fill="#fff" fill-rule="evenodd"/><path d="m46.61 118.49c-4.0449 0-7.3239-3.272-7.3239-7.308 0-27.359 22.224-49.537 49.64-49.537 4.0449 0 7.3239 3.2723 7.3239 7.3088s-3.279 7.3087-7.3239 7.3087c-19.326 0-34.992 15.634-34.992 34.92 0 4.036-3.2791 7.308-7.324 7.308z" clip-rule="evenodd" fill="#fff" fill-rule="evenodd"/></svg>
