<?xml version="1.0" encoding="UTF-8"?>
<svg id="a" width="800px" height="800px" version="1.1" viewBox="0 0 512 512" xml:space="preserve" xmlns="http://www.w3.org/2000/svg">
<path d="m255.78 402.19c-104.35 1.48-201.01-54.744-251.31-146.18 50.6-91.36 147.31-147.52 251.74-146.18 104.53-2.128 201.5 54.272 251.33 146.18-50.6 91.36-147.33 147.53-251.76 146.18z" fill="#fff"/>
<g fill="#AAC1CE">
	<path d="m256.22 113.83c102.28-2.112 197.3 52.616 246.81 142.14-50.248 88.992-145.01 143.51-247.2 142.22-102.1 1.376-196.8-53.168-246.83-142.18 50.264-88.976 145.02-143.48 247.2-142.19m0-8c-106.78-1.84-205.64 56.12-256.19 150.19 50.312 94.104 149.09 152.1 255.78 150.18 106.78 1.856 205.66-56.096 256.22-150.18-50.32-94.096-149.1-152.09-255.78-150.18l-0.024-0.016z"/>
	<circle cx="255.98" cy="256" r="113.2"/>
</g>
<circle cx="255.98" cy="256" r="95.32" fill="#25B6D2"/>
<g opacity=".5">
	<circle cx="208.72" cy="203.03" r="24" fill="#fff"/>
</g>
</svg>
