<?xml version="1.0" encoding="UTF-8"?>
<svg id="a" width="48" height="48" version="1.1" viewBox="0 0 12.7 12.7" xmlns="http://www.w3.org/2000/svg"><title id="b">Isenkram icon</title><g id="c" transform="translate(0,-284.3)"><g id="d" fill-opacity="0" fill-rule="evenodd" stroke-linecap="round" stroke-linejoin="round" stroke-miterlimit="4" stroke-width="3.7795"><path id="e" d="m1.5937 286.54v3.6416l0.65572 0.0276v-3.4266z" points="1.5937255,290.18273 2.2494465,290.21032 2.2494465,286.78376 1.5937255,286.54118 " fill="#353564"/><path id="f" d="m2.2494 286.78 3.7597-6.462v9.1537l-3.7597 0.73489z" points="6.009166,280.32175 6.009166,289.47543 2.2494465,290.21032 2.2494465,286.78376 " fill="#e9e9ff"/><path id="g" d="m1.5937 286.54 3.1625-8.1534 1.2529 1.934-3.7597 6.462z" points="4.7562745,278.38773 6.009166,280.32175 2.2494465,286.78376 1.5937255,286.54118 " fill="#4d4d9f"/><path id="h" d="m1.5937 290.18 3.1625-0.92724 1.2529 0.21994-3.7597 0.73489z" points="4.7562745,289.25549 6.009166,289.47543 2.2494465,290.21032 1.5937255,290.18273 " fill="#afafde"/><path id="i" d="m4.7563 278.39v10.868l1.2529 0.21994v-9.1537z" points="4.7562745,289.25549 6.009166,289.47543 6.009166,280.32175 4.7562745,278.38773 " fill="#d7d7ff"/><path id="j" d="m1.5937 286.54 3.1625-8.1534v10.868l-3.1625 0.92724z" points="4.7562745,278.38773 4.7562745,289.25549 1.5937255,290.18273 1.5937255,286.54118 " fill="#8686bf"/></g><g id="k" fill-opacity="0" fill-rule="evenodd" stroke-linecap="round" stroke-linejoin="round" stroke-miterlimit="4" stroke-width="3.7795"><path id="l" d="m1.5937 286.54v4.392l0.65572-0.0167v-4.1327z" points="1.5937255,290.93322 2.2494465,290.9165 2.2494465,286.78376 1.5937255,286.54118 " fill="#353564"/><path id="m" d="m1.5937 290.93 6.6737 1.186 1.0885-0.36079-7.1065-0.84193z" points="8.267451,292.11922 9.3559172,291.75843 2.2494465,290.9165 1.5937255,290.93322 " fill="#afafde"/><path id="n" d="m2.2494 286.78 7.1065-12.214v17.189l-7.1065-0.84193z" points="9.3559172,274.56952 9.3559172,291.75843 2.2494465,290.9165 2.2494465,286.78376 " fill="#e9e9ff"/><path id="o" d="m1.5937 286.54 6.6737-17.206 1.0885 5.234-7.1065 12.214z" points="8.267451,269.33548 9.3559172,274.56952 2.2494465,286.78376 1.5937255,286.54118 " fill="#4d4d9f"/><path id="p" d="m8.2675 269.34v22.784l1.0885-0.36079v-17.189z" points="8.267451,292.11922 9.3559172,291.75843 9.3559172,274.56952 8.267451,269.33548 " fill="#d7d7ff"/><path id="q" d="m1.5937 286.54 6.6737-17.206v22.784l-6.6737-1.186z" points="8.267451,269.33548 8.267451,292.11922 1.5937255,290.93322 1.5937255,286.54118 " fill="#8686bf"/></g><rect id="r" transform="matrix(.49281 .87014 -.88115 .47283 0 0)" x="255.83" y="135.81" width="1.7426" height="6.6458" fill-opacity="0" stroke="#a26f38" stroke-linecap="round" stroke-linejoin="round" stroke-miterlimit="4" stroke-width=".71222"/><path id="s" transform="matrix(.80297 0 0 .78486 1.8195 61.015)" d="m9.5873 287.09c0.10238 0.0836-0.062251 0.17928-0.13904 0.17016-0.20808-0.0247-0.26705-0.2821-0.20129-0.44823 0.11762-0.29717 0.49357-0.36844 0.75743-0.23242 0.38723 0.19961 0.47248 0.70778 0.26355 1.0666-0.27847 0.4783-0.92294 0.57762-1.3758 0.29468-0.56992-0.35606-0.68334-1.1386-0.3258-1.685 0.43302-0.66186 1.3544-0.78938 1.9942-0.35692 0.754 0.50962 0.89563 1.5704 0.38806 2.3034-0.58601 0.84626-1.7866 1.002-2.6126 0.41918-0.93862-0.66225-1.1085-2.0028-0.45031-2.9218 0.73839-1.031 2.219-1.215 3.231-0.48144 1.1235 0.81445 1.3217 2.4353 0.51257 3.5402" fill="none" stroke="#000" stroke-linejoin="miter" stroke-width=".26458px"/><text id="t" x="-3.9096079" y="295.97903" fill="#000000" font-family="'Crimson Text'" font-size="4.7625px" letter-spacing="0px" stroke-linejoin="miter" stroke-width=".26458px" word-spacing="0px" style="line-height:125%" xml:space="preserve"><tspan id="u" x="-3.9096079" y="300.0253" stroke-width=".26458px"/></text><text id="v" x="1.9921569" y="293.28961" fill="#000000" font-family="'Crimson Text'" font-size="4.7625px" letter-spacing="0px" stroke-linejoin="miter" stroke-width=".26458px" word-spacing="0px" style="line-height:125%" xml:space="preserve"><tspan id="w" x="1.9921569" y="297.33588" stroke-width=".26458px"/></text><text id="x" x="3.5360785" y="292.59235" fill="#000000" font-family="'Crimson Text'" font-size="4.7625px" letter-spacing="0px" stroke-linejoin="miter" stroke-width=".26458px" word-spacing="0px" style="line-height:125%" xml:space="preserve"><tspan id="y" x="3.5360785" y="296.63861" stroke-width=".26458px"/></text><text id="z" x="0.49803925" y="295.03278" fill="#000000" font-family="'Crimson Text'" font-size="4.7625px" letter-spacing="0px" stroke-linejoin="miter" stroke-width=".26458px" word-spacing="0px" style="line-height:125%" xml:space="preserve"><tspan id="aa" x="0.49803925" y="295.03278" font-family="'Liberation Serif'" font-size="3.175px" stroke-width=".26458px" style="font-feature-settings:normal;font-variant-caps:normal;font-variant-ligatures:normal;font-variant-numeric:normal">Isenkram</tspan></text></g></svg>
