<?xml version="1.0" encoding="UTF-8"?>
<svg viewBox="0 0 48 48" xmlns="http://www.w3.org/2000/svg" xmlns:xlink="http://www.w3.org/1999/xlink"><defs><linearGradient id="a" x2="0" y1="543.8" y2="503.8" gradientUnits="userSpaceOnUse"><stop stop-color="#2a2c2f" offset="0"/><stop stop-color="#424649" offset="1"/></linearGradient><linearGradient id="b" x2="0" y1="530.8" y2="516.8" gradientUnits="userSpaceOnUse"><stop stop-color="#ee643a" offset="0"/><stop stop-color="#fe9473" offset="1"/></linearGradient><linearGradient id="c" x2="0" y1="-521.8" y2="-525.8" gradientUnits="userSpaceOnUse" xlink:href="#a"/><linearGradient id="d" x1="408.57" x2="422.57" y1="523.8" y2="537.8" gradientTransform="translate(-384.57-499.8)" gradientUnits="userSpaceOnUse"><stop stop-color="#292c2f" offset="0"/><stop stop-opacity="0" offset="1"/></linearGradient></defs><g transform="translate(-384.57-499.8)"><rect x="388.57" y="503.8" width="40" height="40" rx="20" fill="url(#a)"/><path transform="translate(384.57 499.8)" d="m30 20-11 9 13.229 13.229c4.439-1.998 8-5.561 10-10z" fill="url(#d)" fill-rule="evenodd" opacity=".4"/><rect x="401.57" y="516.8" width="14" height="14" rx="7" fill="url(#b)"/><rect transform="scale(1-1)" x="406.57" y="-525.8" width="4" height="4" rx="2" fill="url(#c)"/><path transform="translate(384.57 499.8)" d="m24 18c-3.324 0-6 2.676-6 6s2.676 6 6 6 6-2.676 6-6-2.676-6-6-6m0 1c2.77 0 5 2.23 5 5s-2.23 5-5 5-5-2.23-5-5 2.23-5 5-5" fill="#fff" fill-opacity=".275"/><g fill="#4c5053"><path d="m418.07 507.34c-.971-.56-1.973-1-2.99-1.377l-3.465 9.368c.495.179.982.396 1.454.668.472.273.903.587 1.306.925l6.381-7.685c-.83-.694-1.716-1.34-2.687-1.901"/><path d="m399.07 540.25c-.971-.56-1.857-1.207-2.687-1.901l6.381-7.685c.403.339.834.653 1.306.925.472.273.96.489 1.454.668l-3.465 9.368c-1.016-.372-2.02-.816-2.99-1.376"/><g fill-opacity=".198"><path d="m422.01 510.36c-.793-.793-1.646-1.481-2.531-2.103l-5.771 8.152c.431.301.846.636 1.232 1.022.386.386.721.801 1.022 1.232l8.152-5.771c-.622-.885-1.311-1.739-2.103-2.531"/><path d="m395.14 537.23c-.793-.793-1.481-1.646-2.103-2.532l8.152-5.771c.301.431.636.846 1.022 1.232.386.386.801.721 1.232 1.022l-5.771 8.152c-.885-.622-1.739-1.311-2.531-2.103"/><path d="m425.03 514.3c-.56-.971-1.207-1.857-1.901-2.687l-7.685 6.381c.339.403.653.834.925 1.306.273.472.489.96.668 1.454l9.368-3.465c-.372-1.016-.816-2.02-1.377-2.99"/><path d="m392.12 533.3c-.56-.971-1-1.973-1.377-2.99l9.368-3.465c.179.495.396.982.668 1.454.273.472.587.903.925 1.306l-7.685 6.381c-.694-.83-1.34-1.716-1.901-2.687"/></g></g><path d="m388.58 523.3c-.004.167-.012.332-.012.5 0 11.08 8.92 20 20 20 11.08 0 20-8.92 20-20 0-.168-.008-.333-.012-.5-.265 10.846-9.08 19.5-19.988 19.5-10.912 0-19.724-8.654-19.988-19.5" fill="#2d2f33"/></g></svg>
