<?xml version="1.0" encoding="UTF-8"?>
<svg viewBox="0 0 48 48" xmlns="http://www.w3.org/2000/svg" xmlns:xlink="http://www.w3.org/1999/xlink"><defs><linearGradient id="a" x2="0" y1="538.8" y2="505.8" gradientTransform="matrix(1.45455 0 0 1-198.81-31)" gradientUnits="userSpaceOnUse"><stop stop-color="#bd8d48" offset="0"/><stop stop-color="#e8b971" offset="1"/></linearGradient><linearGradient id="b" x1="428.57" x2="406.57" gradientTransform="matrix(1.45455 0 0 1-198.81 1)" gradientUnits="userSpaceOnUse"><stop stop-color="#e3dfd6" offset="0"/><stop stop-color="#f4f1e8" offset="1"/></linearGradient><linearGradient id="c" x2="0" y1="538.8" y2="506.72" gradientTransform="matrix(1.45455 0 0 1.12221-583.38-560.64)" gradientUnits="userSpaceOnUse" xlink:href="#a"/><linearGradient id="d" x2="0" y1="531.79" y2="544.79" gradientTransform="matrix(.70711-.70711.70711.70711-273.44 450.74)" gradientUnits="userSpaceOnUse"><stop offset="0"/><stop stop-opacity="0" offset="1"/></linearGradient><linearGradient id="e" x1="428.76" x2="430.47" y1="541.51" y2="528.51" gradientTransform="translate(-24.14-10.993)" gradientUnits="userSpaceOnUse"><stop stop-color="#ebc69a" offset="0"/><stop stop-color="#f4e0c8" offset="1"/></linearGradient></defs><g transform="translate(-384.57-499.8)"><g color="#000000" stroke-linejoin="round"><path d="m392.57 505.8v2h32v-2z" fill="url(#a)"/><path d="m392.57 506.8v1h32v-1z" fill="url(#b)"/><path transform="translate(384.57 499.8)" d="m8 8v36h32v-36z" fill="url(#c)"/><path d="m410.69 518.68l-4.242 4.242 2.637 2.637-3.891.148-.625 1.094-1 6 11 11h10v-11z" fill="url(#d)" opacity=".2"/></g><path d="m408.57 517.8c-1.662 0-3 1.338-3 3s1.338 3 3 3 3-1.338 3-3-1.338-3-3-3m0 7c-2.77 0-5 0.892-5 2v6h10v-6c0-1.108-2.23-2-5-2m0 1c2.216 0 4 0.636 4 1.428v4.572h-8v-4.572c0-0.791 1.784-1.428 4-1.428" fill="url(#e)"/><g color="#000000" fill="#7f8c8d" stroke-linecap="round" stroke-linejoin="round"><rect x="405.57" y="503.8" width="1" height="6"/><rect x="395.57" y="503.8" width="1" height="6"/><rect x="400.57" y="503.8" width="1" height="6"/><rect x="410.57" y="503.8" width="1" height="6"/><rect x="415.57" y="503.8" width="1" height="6"/><rect x="420.57" y="503.8" width="1" height="6"/></g></g></svg>
