<?xml version="1.0" encoding="UTF-8"?>
<svg viewBox="0 0 256.39 256.39" xmlns="http://www.w3.org/2000/svg" xmlns:xlink="http://www.w3.org/1999/xlink"><defs><radialGradient id="g" cx="97.347" cy="925.56" r="59.347" gradientTransform="matrix(0 .94357 -2.1921 0 2158.8 18.862)" gradientUnits="userSpaceOnUse" xlink:href="#b"/><radialGradient id="h" cx="95.806" cy="937.54" r="59.347" gradientTransform="matrix(0 .8425 -1.9378 0 1946.7 -14.002)" gradientUnits="userSpaceOnUse" xlink:href="#b"/><radialGradient id="a" cx="256" cy="256" r="249.14" gradientTransform="matrix(2.2585 .02063 -.02134 2.336 -316.73 -347.29)" gradientUnits="userSpaceOnUse"><stop stop-color="#30c357" offset="0"/><stop stop-color="#2cb465" offset=".5"/><stop stop-color="#32a482" offset="1"/></radialGradient><radialGradient id="f" cx="88.754" cy="123.04" r="78.3" gradientTransform="matrix(.02885 1.09 -1.3588 .03597 300.13 33.098)" gradientUnits="userSpaceOnUse" xlink:href="#b"/><linearGradient id="b"><stop stop-opacity=".416" offset="0"/><stop stop-opacity="0" offset="1"/></linearGradient><linearGradient id="e" x1="127.99" x2="127.99" y1="808.97" y2="1033.5" gradientTransform="translate(18.596 -806.5) scale(1.011)" gradientUnits="userSpaceOnUse" xlink:href="#a"/><filter id="c" x="-.041" y="-.04" width="1.082" height="1.081" color-interpolation-filters="sRGB"><feGaussianBlur stdDeviation="3.891"/></filter></defs><g transform="translate(82 -2.286)" fill-opacity=".509" filter="url(#c)" opacity=".512"><path d="m47.992 16.371c-62.684 0-113.5 50.816-113.5 113.5 0 15.92 3.284 31.071 9.201 44.822 2.875 7.87 5.724 15.722 6.72 22.264 1.01 6.646 0.108 11.944-1.16 15.361-1.266 3.418-2.901 4.955-4.165 8.502-1.264 3.548-2.155 9.106 0.775 13.319s9.68 7.08 22.17 9.277 30.725 3.719 46.623 3.719c15.899 0 29.471-1.536 39.037-2.932 8.418-1.228 13.704-2.35 18.643-3.459 0.557-0.122 1.114-0.241 1.668-0.37l0.363-0.083-0.01-6e-3c49.969-11.888 87.135-56.807 87.135-110.41 0-62.684-50.816-113.5-113.5-113.5z" fill-opacity="1" paint-order="stroke fill markers"/></g><g fill="#1f6d52"><path d="m241.49 125.59c0 62.684-50.816 113.5-113.5 113.5s-113.5-50.816-113.5-113.5 50.816-113.5 113.5-113.5 113.5 50.816 113.5 113.5z" paint-order="stroke fill markers"/><path d="m154.37 236c-5.556 1.258-11.108 2.516-20.674 3.912-9.566 1.397-23.139 2.93-39.037 2.933-15.899 0-34.133-1.524-46.623-3.72-12.49-2.197-19.241-5.064-22.171-9.277s-2.038-9.77-0.774-13.318c1.263-3.548 2.898-5.086 4.165-8.503 1.268-3.418 2.168-8.716 1.158-15.361-1.011-6.646-3.932-14.64-6.853-22.634"/></g><path transform="translate(-20 -4.286)" d="m261.49 124.87c0 62.684-50.816 113.5-113.5 113.5s-113.5-50.816-113.5-113.5c0-62.685 50.816-113.5 113.5-113.5s113.5 50.815 113.5 113.5z" fill="url(#e)" paint-order="stroke fill markers"/><path transform="translate(-20 -4.286)" d="m174.37 235.29c-5.556 1.26-11.108 2.517-20.674 3.913s-23.139 2.93-39.037 2.933c-15.899 0-34.133-1.524-46.623-3.72-12.49-2.197-19.241-5.064-22.101-8.228-2.86-3.163-1.828-6.622-0.565-10.17 1.264-3.547 2.759-7.184 3.956-11.651 1.198-4.467 2.098-9.765 1.088-16.41-1.011-6.646-3.932-14.64-6.853-22.635" fill="url(#e)"/><path d="M188.207 160.324l-82.176 19.83-19.979-20.038S72.97 173.377 67.98 179.894l46.02 46.82 14.242 7.371c10.099-1.39 19.726-3.117 28.797-5.267.013 0 .026-.01.04-.01 27.199-7.275 48.656-19.338 63.52-36.12z" fill="url(#f)"/><path d="m205.47 113.95-155.83 18.646 30 30 147.38 21.975c7.02-9.995 12.02-21.406 14.867-34.211z" fill="url(#g)"/><path d="m188.46 68.752 45 45-142.56-2.826-24-24z" fill="url(#h)"/><g transform="translate(-88.78 -687.44) scale(1.011)" fill="#c1ede5"><rect x="150.87" y="744.15" width="127.26" height="26.476" rx="13.238" ry="13.238"/><rect x="133.62" y="789.12" width="161.61" height="26.476" rx="13.238" ry="13.238"/><rect x="186.23" y="834.92" width="91.833" height="26.476" rx="13.238" ry="13.238"/><rect x="150.8" y="834.92" width="26.476" height="26.476" rx="13.238" ry="13.238"/></g></svg>
