<?xml version="1.0" encoding="UTF-8"?>
<svg id="a" version="1.0" viewBox="0 0 256 256" xmlns="http://www.w3.org/2000/svg"><g id="b" transform="matrix(14.005 0 0 10.002 -4702.9 -2104.6)"><g id="c" transform="matrix(.35301 0 0 .4456 308.42 -7.0789)"><g id="d" transform="translate(-35.364 48.664)" fill="#37a42c"><path id="e" d="m145.16 443.63c-0.1893-0.33392-0.78605-0.71044-0.20301-0.96362 0.87996-0.93796 2.3688-0.62689 3.1786 0.23837 1.1167 0.99581 2.1304 2.6786 1.3137 4.1584-0.67149 1.1323-1.8142 1.8609-2.7332 2.7786-0.41287 0.37642-0.82001 0.75963-1.2711 1.0908 1.3286 0.96018 2.6684 1.9053 3.99 2.875 1.3695-1.2238 2.7233-2.4639 3.99-3.795 0.21058-1.0246-2.0747-1.8769-0.33489-2.4473 1.3861-0.71465 2.7704 0.53876 3.4601 1.659 0.73549 1.0579 1.0221 2.6048 0.079 3.6369-1.0411 1.0608-2.2933 1.8942-3.4288 2.8532-0.38116 0.23832 0.5345 0.39996 0.73914 0.58468 1.9214 0.95956 3.8528 1.8975 5.8461 2.7002 1.0634 0.47639 2.1747 0.8668 3.2119 1.3882 0.52212 0.42231 1.3069 0.74553 1.2236 1.5583-0.1309 0.84594-1.0712 0.96209-1.7614 0.85472-2.0245-0.1-4.0612-0.14102-6.078-0.27762-1.1709-0.48121-2.3896-0.86719-3.5306-1.4079-3.0252-1.9514-6.2458-3.6956-8.764-6.3143-0.72538-0.69515-1.4508-1.3903-2.1761-2.0854-1.5628 0.89642-3.0774 1.9754-4.8288 2.4608-0.97319-0.31089 0.63958-1.6218 0.93971-2.1252 0.56048-0.80927 1.725-1.562 2.032-2.3374-0.49871-0.64639-1.1555-1.1946-1.546-1.9082-0.32901-0.82854 0.12022-1.9209 1.0947-1.5847 0.49731 0.0561 1.0821-0.12545 1.4311 0.33359 0.42544 0.34039 0.85088 0.68077 1.2763 1.0212 0.7203-0.74446 1.5225-1.3976 2.3168-2.056 0.45876-0.46293 0.90606-0.93377 1.1284-1.56 0.2835-0.4726-0.3223-1.0034-0.59524-1.3291z"/><path id="f" d="m121.56 446.1c0.94768 0.0825 1.7763 0.98295 2.617 1.474 1.462 1.0457 2.9602 2.0417 4.394 3.126 1.1332-1.1327 2.3333-2.2029 3.4202-3.379 0.66978-0.90504 1.4354-2.1683 0.85478-3.291-0.56281-0.43924-1.0249-1.0378-1.659-1.3644-0.64401-0.27354-1.288-0.54709-1.932-0.82064 0.43422-1.196 1.9396-1.5251 3.0531-1.7717 1.5817-0.19482 2.8866 0.80589 4.0211 1.7586 0.65107 0.56611 1.4212 1.0127 1.9826 1.669 0.8078 0.986 0.52159 2.4041-0.24893 3.319-1.8895 2.687-4.4468 4.818-7.2161 6.5496-3.5913 2.2171-7.2952 4.4131-11.398 5.5308-1.7496 0.43418-3.612 0.53103-5.3836 0.18732-1.3035-0.46858 0.18223-1.8459 1.0836-1.744 1.9393-0.47351 3.9205-0.79386 5.8197-1.4154 1.7474-0.63206 3.3515-1.6122 4.8094-2.7557-1.2557-1.2444-2.5142-2.4993-3.7738-3.7303-0.77026-0.92456-1.0646-2.2543-0.4442-3.3422z"/><path id="g" d="m131.76 459.27c0.51474 2.2003 0.30758 4.4808 0.32728 6.7203-0.20103 1.7409-0.20481 3.5121-0.57399 5.2273-0.30199 1.585-1.6308 2.7925-3.2285 2.9754-2.6794 0.5803-5.4213 0.16679-8.1188 5e-3 -0.67617-0.43494-0.64958 0.33035-0.78656 0.81629-0.32799 1.3784-0.53158 2.7816-0.90041 4.1507 2.7489 0.2751 5.5273 0.64605 8.2845 0.37033 0.88689-0.31152 1.6979-0.75986 2.4315-1.3478 0.92196-0.11055 2.0842-0.77327 2.7877 0.17071 1.0146 1.7594 0.33814 3.8197 0.21068 5.7135-0.3497 2.8269-0.40712 5.799-1.8868 8.3291-0.86841 1.9992-3.097 3.1129-5.2213 2.9946-1.097 0.0236-2.2002 0.11841-3.2688-0.1928-1.4813-0.18348-2.8836-0.76776-4.0276-1.7326-1.1462-0.6796-1.9194-1.9107-2.1597-3.201-0.18785-0.7151 0.70219-0.28402 1.0404-0.10767 1.414 0.61081 2.7802 1.364 4.2415 1.8462 1.1729 0.36347 2.4568 0.47313 3.5945-0.0673 0.92179-0.30903 1.9767-0.58569 2.3598-1.6112 0.62533-1.4175 0.87524-2.973 1.1329-4.494 0.18388-1.0465 0.17627-2.0978 0.0651-3.1516-0.23898-0.29145-0.98374-0.0437-1.4191-0.12589h-9.362c-0.85337 1.0487-1.6273 2.1706-2.5332 3.1708-1.3623 0.6612-0.68131-1.9593-0.64548-2.6776 0.68788-3.789 1.3087-7.6007 2.1384-11.357 0.33054-1.0608 1.5136-1.0596 2.419-0.9626 2.4673 0.0156 4.9511 0.3396 7.4044-0.0331 1.0203-0.0236 1.6422-0.81011 1.7424-1.7504 0.5197-1.6882 0.85213-3.4312 0.87157-5.2008 0.21788-1.481-1.4556-1.8242-2.5826-1.8736-1.4886 0.12199-2.996 0.1033-4.4593 0.40525-1.7978-0.30011-0.0297-2.999 1.2787-2.961 2.3693-0.60909 4.8281-0.71112 7.251-0.97055 0.64549-0.0211 1.3902 0.24625 1.5931 0.92316z"/><path id="h" d="m137.92 459.39c0.87971-0.46197 1.9083-0.57741 2.8803-0.75285 2.0753-0.32469 4.1696-2e-3 6.1831 0.51294 0.98986 0.21401 2.201 0.49544 2.6147 1.5357 0.17026 0.86853-0.3695 1.6593-0.58091 2.4781-0.52704 1.7261-1.2799 3.4805-1.1477 5.32 0.1827 1.6616 1.6998 2.9654 3.2941 3.2207 1.0638 0.075 1.843-0.75904 2.7183-1.2277 0.3264-0.1927 0.62466-0.4967 1.0329-0.36545l1.3592 0.0885c0.9549 0.71262 0.63796 2.0863 0.34729 3.0672-0.4834 1.6549-2.2702 2.513-3.9 2.4195-2.2324-0.1416-4.6023-1.0421-5.9156-2.9382-0.71625-1.1504-1.0921-2.4833-1.4436-3.7812-0.0488-0.97471 0.21809-1.9438 0.36394-2.9069 0.12693-0.79238 0.35419-1.6264 0.117-2.4154-1.3184-0.27312-2.641-0.897-4.005-0.51941-0.88777 0.25694-1.862 0.54384-2.5411 1.1789-0.70977 1.0412-0.60179 2.3555-0.86804 3.5416-0.23658 1.2606-0.3336 2.5529-0.68789 3.787-0.38668 1.3339-1.5064 2.4797-2.9293 2.6226-0.49152 0.17294-1.9547 0.27455-1.3532-0.57441 0.36767-0.91954 1.3396-1.4116 1.7789-2.2941 0.91457-1.6978 0.84535-3.6972 0.92224-5.5693 0.1016-1.7009-0.43856-3.5074 0.29702-5.1223 0.27465-0.64624 0.91628-0.93896 1.4633-1.3054z"/><path id="i" d="m140.71 479.22c-1.2814-0.18035-2.6352-0.0775-3.8397-0.60599-1.3922-0.60161-0.0535-1.5621 0.87282-1.493 1.6861-0.24944 3.3945-0.35186 5.0922-0.48366 3.6006 0.14202 7.2034 0.25412 10.803 0.41486 1.2735-9e-3 1.891 1.3812 1.4241 2.4586-0.60071 1.7862-1.5967 3.4047-2.3966 5.1052-0.29916 0.59714-0.59832 1.1943-0.89748 1.7914 2.3955 0.90996 4.8975 1.6801 7.0482 3.1068 1.0088 0.81494 0.46692 2.2958 0.16944 3.3386-0.35223 0.9144-0.73878 2.3046-1.9144 2.3332-0.83688-0.25834-1.5134-0.87998-2.2761-1.3048-1.997-1.2646-3.9941-2.5292-5.9911-3.7938-0.66846 0.91562-1.6237 1.567-2.4241 2.361-1.5732 1.3727-3.5861 2.1062-5.4989 2.8715-1.7309 0.086-3.465 0.21619-5.1939 0.27461-0.93378-0.23091-1.9353-0.27393-2.7968-0.72383 0.21929-0.38684 0.75627-0.49524 1.1747-0.6322 2.1674-0.76979 4.4325-1.2448 6.5741-2.0836 1.5674-0.69387 3.0051-1.6788 4.1476-2.96 0.79289-0.4624 0.50538-1.4458-0.28985-1.7776-1.7318-0.98205-3.447-2.0008-5.0541-3.1825-1.4667-1.1033-3.0434-2.0904-4.3644-3.3688-0.3602-0.94338 1.4981-0.12355 1.9726-0.0565 3.6131 1.1393 7.1082 2.6152 10.613 4.0454 0.64998-1.0898 1.4627-2.1423 1.767-3.3925 0.12055-0.7695-0.56119-1.1552-1.2156-1.1794-1.3646-0.29365-2.7301-0.58178-4.125-0.68423-1.1268-0.1263-2.2537-0.2526-3.3805-0.37891z"/></g></g></g></svg>
