<?xml version="1.0" encoding="UTF-8"?>
<svg id="f" version="1.1" viewBox="0 0 48 48" xmlns="http://www.w3.org/2000/svg" xmlns:xlink="http://www.w3.org/1999/xlink"><defs id="g"><linearGradient id="b" x1="409.57" x2="409.57" y1="543.8" y2="503.8" gradientTransform="matrix(1 0 0 .9 -.00050184 52.38)" gradientUnits="userSpaceOnUse"><stop id="h" stop-color="#e3dfd6" offset="0"/><stop id="i" stop-color="#f4f1e8" offset="1"/></linearGradient><linearGradient id="e" x1="409.57" x2="409.57" y1="543.8" y2="503.8" gradientTransform="matrix(1.125 0 0 1 -51.072 5.2734e-5)" gradientUnits="userSpaceOnUse"><stop id="j" stop-color="#343b40" offset="0"/><stop id="k" stop-color="#555e63" offset="1"/></linearGradient><linearGradient id="c" x1="409.57" x2="409.57" y1="542.8" y2="504.8" gradientTransform="translate(-3.3301e-5 2.6031e-5)" gradientUnits="userSpaceOnUse"><stop id="l" stop-color="#2a2c2f" offset="0"/><stop id="m" stop-color="#424649" offset="1"/></linearGradient><linearGradient id="a" x1="413.57" x2="418.57" y1="528.8" y2="533.8" gradientUnits="userSpaceOnUse"><stop id="n" stop-color="#bdb49e" stop-opacity=".25882" offset="0"/><stop id="o" stop-color="#bdb49e" stop-opacity="0" offset="1"/></linearGradient><linearGradient id="d" x1="414.57" x2="426.57" y1="531.8" y2="543.8" gradientUnits="userSpaceOnUse"><stop id="p" stop-color="#383e51" offset="0"/><stop id="q" stop-color="#655c6f" stop-opacity="0" offset="1"/></linearGradient></defs><g id="r" transform="translate(-384.57 -499.8)"><rect id="s" x="390.57" y="503.8" width="36" height="40" ry="0" fill="url(#e)"/><rect id="t" x="391.57" y="504.8" width="34" height="38" fill="url(#c)" opacity=".5"/><rect id="u" x="392.57" y="505.8" width="32" height="36" ry="0" fill="url(#b)"/><rect id="v" x="395.57" y="505.8" width="1" height="36" fill="#da4453" opacity=".4"/><rect id="w" x="392.57" y="508.8" width="32" height="1" fill="#007ad9" opacity=".4"/><rect id="x" x="390.57" y="542.8" width="36" height="1" fill="#1c1e20"/><path id="y" d="m400.57 513.8v1.9863 0.0137h8e-3l4.5918 7.9492-4.5996 7.9648v0.0859 1.9004 0.0996h16v-0.0996-1.9004-2h-2v2h-11.738l4.6465-8.0488v-2e-3l-0.60547-1.0488-3.9844-6.9004h9.6816v1h2v-3h-12.836-1.1641z" fill="#bdb49e"/><path id="z" d="m424.57 530.8-9 9v-9z" fill="#ebebeb" fill-rule="evenodd"/><path id="aa" d="m415.57 539.8 4 4h7v-10-1l-2-2z" fill="url(#d)" fill-rule="evenodd" opacity=".2"/><path id="ab" d="m416.57 531.8v7l7-7z" fill="url(#a)" fill-rule="evenodd"/></g></svg>
