<?xml version="1.0" encoding="UTF-8"?>
<!DOCTYPE svg  PUBLIC '-//W3C//DTD SVG 1.0//EN'  'http://www.w3.org/TR/2001/REC-SVG-20010904/DTD/svg10.dtd'>
<svg id="c" version="1.0" viewBox="0 0 160 160" xmlns="http://www.w3.org/2000/svg" xmlns:xlink="http://www.w3.org/1999/xlink"><defs id="d"><radialGradient id="b" cy=".95312" r=".74541"><stop id="e" stop-color="#4c0000" stop-opacity=".6039" offset="0"/><stop id="f" stop-color="#970000" stop-opacity="0" offset="1"/></radialGradient><radialGradient id="a" cy=".95312" r=".74541"><stop id="g" stop-color="#02000d" stop-opacity=".6039" offset="0"/><stop id="h" stop-color="#970000" stop-opacity="0" offset="1"/></radialGradient></defs><g id="i" transform="matrix(1.0953 0 0 1.0953 -287.54 -381.02)" fill-rule="evenodd" stroke-width="1"><g id="j" transform="translate(3.5267 -2.0153)"><ellipse id="k" transform="translate(72.5 -36.25)" cx="297.5" cy="418.61" rx="30" ry="30" fill="#0000b3"/><ellipse id="l" transform="matrix(.44142 .12335 -.084102 .30097 280.13 205.3)" cx="297.5" cy="418.61" rx="30" ry="30" fill="#fff" fill-opacity=".4567"/><ellipse id="m" transform="translate(71.473 -36.599)" cx="297.5" cy="418.61" rx="30" ry="30" fill="url(#a)"/></g><path id="n" d="m350.87 383.48-44.725 24.269c0.5344 6.9706 4.371 11.576 8.8529 15.258l44.928-24.952c-0.6018-6.7429-2.6969-10.956-9.0554-14.575z" fill="#040000"/><g id="o"><ellipse id="p" cx="297.5" cy="418.61" rx="30" ry="30"/><ellipse id="q" transform="matrix(.44142 .12335 -.084102 .30097 206.58 241.23)" cx="297.5" cy="418.61" rx="30" ry="30" fill="#fff" fill-opacity=".4567"/></g><path id="r" d="m386.35 448.63-1.7572-50.855c-6.4764-2.6328-12.31-1.2549-17.606 1.1126l2.2782 51.341c6.3027 2.4708 11.008 2.4762 17.085-1.5986z" fill="#040000"/><g id="s" transform="translate(3.0229 2.0151)"><ellipse id="t" transform="translate(75 42.5)" cx="297.5" cy="418.61" rx="30" ry="30" fill="#ab0000"/><ellipse id="u" transform="matrix(.44142 .12335 -.084102 .30097 280.13 284.05)" cx="297.5" cy="418.61" rx="30" ry="30" fill="#fff" fill-opacity=".4567"/><ellipse id="v" transform="matrix(.44142 .12335 -.084102 .30097 280.13 284.05)" cx="297.5" cy="418.61" rx="30" ry="30" fill="#fff" fill-opacity=".4567"/><ellipse id="w" transform="translate(75 42.5)" cx="297.5" cy="418.61" rx="30" ry="30" fill="url(#b)"/></g><path id="x" d="m356.33 448.01-44.928-23.891c-5.5168 4.2941-7.2385 10.036-7.8341 15.806l45.609 23.683c5.2897-4.2246 7.6457-8.2976 7.1528-15.597z" fill="#040000"/></g></svg>
