<?xml version="1.0" encoding="UTF-8"?>
<svg id="s" version="1.1" viewBox="0 0 48 48" xmlns="http://www.w3.org/2000/svg" xmlns:xlink="http://www.w3.org/1999/xlink"><defs id="t"><linearGradient id="a"><stop id="u" stop-color="#2e5d89" offset="0"/><stop id="v" stop-color="#1b92f4" offset="1"/></linearGradient><linearGradient id="r" x1="402.41" x2="415.57" y1="514.63" y2="527.8" gradientUnits="userSpaceOnUse" xlink:href="#a"/><linearGradient id="w" x1="400.57" x2="415.57" y1="512.8" y2="527.8" gradientUnits="userSpaceOnUse" xlink:href="#a"/><linearGradient id="q" x1="397.48" x2="415.57" y1="509.7" y2="527.8" gradientTransform="matrix(.8 0 0 .8 81.715 103.96)" gradientUnits="userSpaceOnUse" xlink:href="#a"/><linearGradient id="p" x1="386.06" x2="415.57" y1="498.29" y2="527.8" gradientTransform="matrix(.6 0 0 .6 163.43 207.92)" gradientUnits="userSpaceOnUse" xlink:href="#a"/><linearGradient id="c"><stop id="x" stop-color="#2f3943" offset="0"/><stop id="y" stop-color="#4d5662" offset="1"/></linearGradient><linearGradient id="d"><stop id="z" stop-color="#18222a" offset="0"/><stop id="aa" stop-color="#566069" offset="1"/></linearGradient><linearGradient id="o" x1="398.57" x2="418.57" y1="508.8" y2="528.8" gradientTransform="translate(-817.14 -1039.6)" gradientUnits="userSpaceOnUse" xlink:href="#c"/><linearGradient id="m" x1="5" x2="5" y1="28" y2="12" gradientTransform="translate(386.57 499.8)" gradientUnits="userSpaceOnUse" xlink:href="#c"/><linearGradient id="l" x1="5" x2="5" y1="28" y2="12" gradientTransform="matrix(-1 0 0 1 430.57 499.8)" gradientUnits="userSpaceOnUse" xlink:href="#c"/><linearGradient id="k" x1="405.57" x2="411.57" y1="534.8" y2="538.8" gradientTransform="matrix(1 0 0 .60001 0 213.91)" gradientUnits="userSpaceOnUse" xlink:href="#d"/><linearGradient id="n" x1="398.3" x2="419.77" y1="509.53" y2="531" gradientTransform="matrix(.78571 0 0 .78571 87.551 111.38)" gradientUnits="userSpaceOnUse" xlink:href="#d"/><linearGradient id="j" x1="421.57" x2="398.57" y1="530.8" y2="507.8" gradientUnits="userSpaceOnUse" xlink:href="#b"/><linearGradient id="i" x1="391.57" x2="391.57" y1="531.8" y2="501.7" gradientTransform="matrix(.91666 0 0 1 34.049 0)" gradientUnits="userSpaceOnUse" xlink:href="#b"/><linearGradient id="b"><stop id="ab" stop-color="#c6cdd1" offset="0"/><stop id="ac" stop-color="#e0e5e7" offset="1"/></linearGradient><linearGradient id="h" x1="408.57" x2="408.57" y1="519.8" y2="541.01" gradientTransform="matrix(.70711 -.70711 .70711 .70711 -632.46 -58.649)" gradientUnits="userSpaceOnUse"><stop id="ad" offset="0"/><stop id="ae" stop-opacity="0" offset="1"/></linearGradient><linearGradient id="g" x1="410.57" x2="413.57" y1="538.8" y2="541.8" gradientUnits="userSpaceOnUse"><stop id="af" offset="0"/><stop id="ag" stop-opacity="0" offset="1"/></linearGradient><linearGradient id="f" x1="408.57" x2="408.57" y1="541.8" y2="543.8" gradientUnits="userSpaceOnUse"><stop id="ah" stop-color="#1d1e1e" offset="0"/><stop id="ai" stop-color="#44484c" offset="1"/></linearGradient><linearGradient id="e" x1="405.57" x2="405.57" y1="537.8" y2="539.8" gradientUnits="userSpaceOnUse" xlink:href="#b"/></defs><g id="aj" transform="translate(-384.57 -499.8)"><rect id="ak" x="392.57" y="537.8" width="32" height="4" fill="url(#e)"/><rect id="al" x="386.57" y="507.8" width="44" height="24" ry="0" fill="url(#i)"/><path id="am" transform="translate(384.57 499.8)" d="m35.314 8.6855-22.629 22.629 0.68555 0.68555h32.629v-10.629z" fill="url(#h)" opacity=".2"/><path id="an" d="m404.57 538.8 3 3h8l-3-3z" fill="url(#g)" fill-rule="evenodd" opacity=".2"/><path id="ao" d="m404.57 534.8h8v4s-1 1-4 1-4-1-4-1z" fill="url(#k)"/><rect id="ap" x="392.57" y="541.8" width="32" height="2" fill="url(#f)"/><circle id="aq" cx="408.57" cy="519.8" r="16" fill="url(#j)"/><path id="ar" transform="scale(-1)" d="m-394.57-519.8a14 14 0 0 1-14 14 14 14 0 0 1-14-14 14 14 0 0 1 14-14 14 14 0 0 1 14 14z" fill="url(#o)"/><circle id="as" cx="408.57" cy="519.8" r="11" fill="url(#n)"/><circle id="at" cx="408.57" cy="519.8" r="10" fill="url(#r)"/><circle id="au" cx="408.57" cy="519.8" r="8" fill="url(#q)"/><circle id="av" cx="408.57" cy="519.8" r="6" fill="url(#p)"/><circle id="aw" cx="408.57" cy="519.8" r="4" fill="#2c3e50"/><path id="ax" d="m386.57 511.8v16h2c1.108 0 2-0.89198 2-2v-12c0-1.108-0.89198-2-2-2h-2z" fill="url(#m)"/><path id="ay" d="m430.57 511.8v16h-2c-1.108 0-2-0.89198-2-2v-12c0-1.108 0.89198-2 2-2h2z" fill="url(#l)"/><circle id="az" cx="428.57" cy="515.8" r="1" fill="#11d116"/><circle id="ba" cx="405.57" cy="516.8" r="1" fill="#84cbfe"/><ellipse id="bb" cx="403.57" cy="514.8" rx="1.5" ry="1.5" fill="#84cbfe"/></g></svg>
