<?xml version="1.0" encoding="UTF-8"?>
<svg id="ab" width="128" height="128" enable-background="new 0 0 128 110.117" overflow="visible" version="1.0" viewBox="0 0 128 110.12" xml:space="preserve" xmlns="http://www.w3.org/2000/svg" xmlns:xlink="http://www.w3.org/1999/xlink"><defs id="ac">
	
	

		
	
			
			
			
			
			<linearGradient id="d" x1="-23" x2="146.29" y1="53.941" y2="53.941" gradientUnits="userSpaceOnUse">
				<stop id="ad" stop-color="#bbb" offset="0"/>
				<stop id="ae" stop-color="#eee" offset=".5"/>
				<stop id="af" stop-color="#bbb" offset="1"/>
			</linearGradient>
			
			<linearGradient id="f" x1="64.001" x2="64.001" y1="96.787" y2="10.788" gradientTransform="matrix(.96929 0 0 .91532 1.966 -14.148)" gradientUnits="userSpaceOnUse">
				<stop id="ag" stop-color="#323232" offset="0"/>
				<stop id="ah" offset="1"/>
			</linearGradient>
			
			<linearGradient id="aa" x1="65.955" x2="64.001" y1="126.28" y2="11.788" gradientTransform="matrix(.96929 0 0 .91532 1.966 -14.148)" gradientUnits="userSpaceOnUse">
				<stop id="ai" stop-color="#888A85" offset="0"/>
				<stop id="aj" offset="1"/>
			</linearGradient>
			
			
				<radialGradient id="g" cx="-500.03" cy="429.4" r="74.371" gradientTransform="matrix(1.5908 .077803 -.032277 .43853 894.77 -143.81)" gradientUnits="userSpaceOnUse">
				<stop id="ak" stop-color="#fff" offset="0"/>
				<stop id="al" stop-color="#323232" offset="1"/>
			</radialGradient>
			
				
			
				
			
				
			
			
			<linearGradient id="e" x1="64.001" x2="64.001" y1="4.3555" y2="2.8053" gradientUnits="userSpaceOnUse">
				<stop id="am" stop-color="#ddd" offset="0"/>
				<stop id="an" stop-color="#fff" offset="1"/>
			</linearGradient>
			
			<linearGradient id="z" x1="64" x2="64" y1="103.79" y2="105.17" gradientTransform="matrix(.9112 0 0 1.1664 5.6164 -40.988)" gradientUnits="userSpaceOnUse">
				<stop id="ao" stop-color="#ddd" offset="0"/>
				<stop id="ap" stop-color="#888" offset="1"/>
			</linearGradient>
			
		<linearGradient id="v" x1="64.039" x2="71.252" y1="120.83" y2="88.732" gradientTransform="matrix(.9112 0 0 1.1664 5.6164 -40.988)" gradientUnits="userSpaceOnUse" xlink:href="#d"/><linearGradient id="n" x1="51.967" x2="51.967" y1="94.474" y2="103.03" gradientTransform="matrix(.9112 0 0 1.1664 5.6164 -40.988)" gradientUnits="userSpaceOnUse"><stop id="aq" offset="0"/><stop id="ar" stop-opacity="0" offset="1"/></linearGradient><linearGradient id="m" x1="126.33" x2="128.41" y1="57.873" y2="57.826" gradientUnits="userSpaceOnUse" xlink:href="#e" spreadMethod="reflect"/><radialGradient id="i" cx="109.3" cy="97.198" r="1.6656" fx="109.23" fy="96.126" gradientTransform="matrix(1 0 0 6.5 0 -534.59)" gradientUnits="userSpaceOnUse"><stop id="as" offset="0"/><stop id="at" stop-opacity="0" offset="1"/></radialGradient><linearGradient id="l" x1="16.031" x2="16.031" y1="94.908" y2="96.782" gradientUnits="userSpaceOnUse"><stop id="au" stop-color="#b4b4ab" offset="0"/><stop id="av" stop-color="#b4b4ab" stop-opacity="0" offset="1"/></linearGradient><radialGradient id="h" cx="-34.225" cy="96.315" r="5.5156" fx="-32.422" fy="92.539" gradientTransform="matrix(1.9129 0 0 2.7769 172.53 -181.8)" gradientUnits="userSpaceOnUse"><stop id="aw" offset="0"/><stop id="ax" stop-opacity="0" offset="1"/></radialGradient><linearGradient id="k" x1="-6.9695" x2="15.809" y1="96.778" y2="106.82" gradientTransform="matrix(.91009 0 0 .85942 87.606 -16.422)" gradientUnits="userSpaceOnUse"><stop id="ay" stop-color="#fff" offset="0"/><stop id="az" stop-color="#fff" stop-opacity="0" offset="1"/></linearGradient><linearGradient id="y" x1="64.001" x2="64.001" y1="4.3555" y2="2.8053" gradientTransform="matrix(.91009 0 0 .85942 5.7548 -8.7374)" gradientUnits="userSpaceOnUse" xlink:href="#e"/><linearGradient id="x" x1="-23" x2="146.29" y1="53.941" y2="53.941" gradientTransform="matrix(.91009 0 0 .85942 5.7548 -8.7374)" gradientUnits="userSpaceOnUse" xlink:href="#d"/><linearGradient id="b"><stop id="ba" stop-color="#5e5e5e" offset="0"/><stop id="bb" stop-color="#dedede" offset=".75902"/><stop id="bc" stop-color="#8d8d8d" offset=".9338"/><stop id="bd" stop-color="#616161" offset="1"/></linearGradient><linearGradient id="a"><stop id="be" stop-color="#dcdcdc" offset="0"/><stop id="bf" stop-color="#dcdcdc" stop-opacity="0" offset="1"/></linearGradient><linearGradient id="w"><stop id="bg" offset="0"/><stop id="bh" stop-opacity="0" offset="1"/></linearGradient><radialGradient id="c" cx="36.748" cy="121.96" r="4.9659" fx="33.783" fy="122.48" gradientTransform="matrix(1 0 0 .31667 0 83.338)" gradientUnits="userSpaceOnUse" xlink:href="#w"/><radialGradient id="j" cx="64.64" cy="122.04" r="3.7244" gradientTransform="matrix(1 0 0 .84444 0 18.984)" gradientUnits="userSpaceOnUse"><stop id="bi" offset="0"/><stop id="bj" stop-opacity="0" offset="1"/></radialGradient><linearGradient id="u" x1="65.789" x2="65.099" y1="122.79" y2="106.68" gradientTransform="matrix(1.0476 0 0 1.0476 -4.721 -12.07)" gradientUnits="userSpaceOnUse"><stop id="bk" offset="0"/><stop id="bl" stop-opacity="0" offset="1"/></linearGradient><linearGradient id="t" x1="41.109" x2="44.112" y1="79.414" y2="79.414" gradientTransform="matrix(1.2329 0 0 1.1767 -164.52 -66.354)" gradientUnits="userSpaceOnUse" xlink:href="#a" spreadMethod="reflect"/><linearGradient id="s" x1="38.357" x2="48.093" y1="86.917" y2="86.917" gradientTransform="matrix(.44 0 0 .44 -133.86 -26.78)" gradientUnits="userSpaceOnUse" xlink:href="#b"/><linearGradient id="r" x1="41.109" x2="44.112" y1="79.414" y2="79.414" gradientTransform="matrix(1.2329 0 0 1.1767 -101.28 43.201)" gradientUnits="userSpaceOnUse" xlink:href="#a" spreadMethod="reflect"/><linearGradient id="q" x1="38.357" x2="48.093" y1="86.917" y2="86.917" gradientTransform="matrix(.44 0 0 .44 -70.624 82.775)" gradientUnits="userSpaceOnUse" xlink:href="#b"/><linearGradient id="p" x1="41.109" x2="44.112" y1="79.414" y2="79.414" gradientTransform="matrix(1.2329 0 0 .68213 13.59 59.617)" gradientUnits="userSpaceOnUse" xlink:href="#a" spreadMethod="reflect"/><linearGradient id="o" x1="38.357" x2="48.093" y1="86.917" y2="86.917" gradientTransform="matrix(.44 0 0 .25636 44.244 82.395)" gradientUnits="userSpaceOnUse" xlink:href="#b"/></defs>
<path id="bm" d="m12.251-7.436c-2.9062 0-5.2698 2.2329-5.2698 4.9773v84.302c0 1.856 1.5983 3.3653 3.5637 3.3653h106.91c1.9654 0 3.5637-1.5093 3.5637-3.3653v-84.302c0-2.7444-2.3645-4.9773-5.2707-4.9773h-103.5z" fill="#323232" opacity=".15"/><path id="bn" d="m12.251-6.5947c-2.4144 0-4.3789 1.8551-4.3789 4.136v84.302c0 1.3916 1.1992 2.524 2.6728 2.524h106.91c1.4736 0 2.6728-1.1324 2.6728-2.524v-84.302c0-2.2808-1.9645-4.136-4.3798-4.136h-103.5z" fill="#323232" opacity=".2"/><path id="bo" d="m12.251-5.7534c-1.9235 0-3.488 1.4774-3.488 3.2946v84.302c0 0.92798 0.79916 1.6826 1.7819 1.6826h106.91c0.98269 0 1.7818-0.75467 1.7818-1.6826v-84.302c0-1.8173-1.5654-3.2946-3.4889-3.2946h-103.5z" fill="#323232" opacity=".25"/><path id="bp" d="m11.513-6.1598c-1.4521 0-2.634 1.1161-2.634 2.4882v85.503c0 0.47188 0.40482 0.85331 0.90362 0.85331h108.43c0.4997 0 0.9036-0.38143 0.9036-0.85331v-85.503c0-1.3721-1.1828-2.4882-2.6349-2.4882h-104.97z" fill="#323232" opacity=".3"/><rect id="bq" x="61.121" y="-9.001" width="4.2836" height="123.56" rx=".44569" ry=".44796" fill="url(#o)" fill-rule="nonzero"/><path id="br" d="m118.61 81.502h-109.21v-86.116c0-0.90927 0.78086-1.6458 1.7428-1.6458h105.72c0.96378 0 1.7437 0.73652 1.7437 1.6466v86.115z" fill="url(#x)"/><rect id="bs" x="10.69" y="-4.2737" width="106.62" height="78.718" fill="url(#f)"/><path id="bt" d="m11.659-3.3593v76.887h104.68v-76.887h-104.68z" fill="url(#aa)"/><path id="bu" transform="matrix(.85855 -.21605 .23005 .8063 -88.52 15.624)" d="m110.97 97.198a1.6656 10.826 0 1 1-3.3311 0 1.6656 10.826 0 1 1 3.3311 0z" fill="url(#i)" fill-rule="nonzero" opacity=".36475"/><g id="bv" transform="matrix(.71871 .088841 -.11198 .69876 -45.198 -1.5655)" fill-rule="nonzero"><rect id="bw" transform="matrix(.95983 .28058 -.28058 .95983 0 0)" x="126.45" y="46.102" width="4.0432" height="23.43" fill="url(#m)"/><path id="bx" transform="matrix(.98148 .21446 0 .96508 1.4299 -20.256)" d="m112.99 79.531a1.9874 0.9569 0 1 1-3.9748 0 1.9874 0.9569 0 1 1 3.9748 0z" fill="#fff"/></g><path id="by" d="m12.628-2.249v28.637c11.125-0.51624 21.813-0.21236 32.239 0.58855 4.3696 1.049 27.172-27.954 52.574-29.225h-84.814zm102.74 11.647c-4.7941 0.53089-9.5921 1.1918-14.304 2.1171-10.355 2.0357-19.035 10.005-27.472 18.739 13.949 1.9744 27.725 4.2855 41.775 6.0494v-26.905z" enable-background="new    " fill="url(#g)" opacity=".1" nodetypes="ccccccsccc" r_cx="true" r_cy="true"/><path id="bz" d="m11.138-6.1591c-0.33582 0-0.64616 0.093677-0.91191 0.24923 4.4749 0.40393 26.839 0.71074 53.774 0.71074 26.935 0 49.299-0.30681 53.775-0.71074-0.26665-0.15556-0.5779-0.24923-0.91372-0.24923h-105.72z" fill="url(#y)"/>

<path id="ca" d="m111.46 72.134v9.4239h6.154c-0.63204-4.4536-3.0259-8.0525-6.154-9.4239z" fill="url(#h)" fill-rule="nonzero"/><g id="cb" transform="matrix(.91009 0 0 .85942 87.606 -8.7374)" fill-rule="nonzero"><rect id="cc" x="7.495" y="93.867" width="18.737" height="4.3721" fill="#d3d7cf"/><rect id="cd" transform="scale(1,-1)" x="7.495" y="-103.24" width="18.737" height="4.9967" fill="#b3925d"/><rect id="ce" x="7.495" y="94.908" width="18.737" height="1.8737" fill="url(#l)"/></g><path id="cf" d="m94.432 71.937v0.88628 1.6114 1.2623 4.2971h17.036v-4.2971-1.2623-1.6114-0.88628h-17.036z" fill="url(#k)" fill-rule="nonzero"/><rect id="cg" x="9.3724" y="76.757" width="109.19" height="4.8078" fill="url(#v)" fill-rule="nonzero"/><rect id="ch" x="9.3724" y="76.757" width="109.19" height="4.8078" fill="url(#n)" fill-rule="nonzero"/><path id="ci" d="m9.2612 81.479h109.34c0-0.64499-24.478-1.1664-54.672-1.1664-30.195 0-54.672 0.52136-54.672 1.1664z" fill="url(#z)"/><flowRoot id="cj" xml:space="preserve"><flowRegion id="ck"><rect id="cl" x="176.13" y="4.1355" width="14.574" height="33.727"/></flowRegion><flowPara id="cm"/></flowRoot><path id="cn" d="m37.165 32.096-15.278 10.407 10.24 12.787-1.2178 1.3285-9.9083-12.51-3.1552 12.012h-1.8267l12.289-45.833h1.7713l-8.1924 30.279 14.06-9.7423 1.2178 1.2731m25.117 2.4909-5.5907 20.979h-1.716l3.0998-11.68c-4.1331 7.3067-8.1186 11.108-11.956 11.403-2.0296 0.14761-3.8748-0.57199-5.5354-2.1588-1.6237-1.5868-2.4356-3.395-2.4356-5.4247-2e-6 -0.51663 0.055352-1.0148 0.16606-1.4946 1.0333-3.9486 3.4504-7.5096 7.2513-10.683 3.8009-3.1736 7.4727-4.7604 11.015-4.7604 1.7713 2.5e-5 3.2659 0.46131 4.4837 1.3838l-1.1624 1.1624c-1.0333-0.77493-2.2695-1.1624-3.7087-1.1624-3.0629 2.4e-5 -6.3103 1.513-9.7423 4.539-3.4319 2.9891-5.6092 6.2919-6.5317 9.9083-0.11071 0.36903-0.16607 0.73806-0.16606 1.1071-4e-6 1.5868 0.64579 3.0076 1.9374 4.2622 1.3285 1.2547 2.7677 1.8267 4.3176 1.716 2.3248-0.18451 4.742-1.8451 7.2513-4.9818 1.8082-2.3618 3.5242-5.3324 5.1479-8.912 1.3285-2.9153 1.9927-4.6497 1.9927-5.2033h1.882m22.065 3.4873-4.8158 18.045h-1.7713l4.9818-18.488c0.073786-0.2952 0.11069-0.59042 0.11071-0.88566-2.1e-5 -1.144-0.51666-2.1588-1.5499-3.0445-1.0333-0.88564-2.1957-1.3654-3.4873-1.4392-2.4356-0.11068-5.0372 1.2547-7.8049 4.0962l-5.314 19.485h-1.7713l4.8158-17.492h-1.1071c0.25831-0.70113 0.84875-1.7159 1.7713-3.0445l1.1071-4.8711h1.6606l-0.88566 3.598c2.8784-2.3617 5.4062-3.4873 7.5835-3.3766 1.6975 0.073831 3.229 0.73808 4.5944 1.9927 1.3654 1.2178 2.0481 2.6201 2.0481 4.2069-2.2e-5 0.40595-0.055376 0.81187-0.16606 1.2178m26.478-3.4873-5.5907 20.979h-1.716l3.0998-11.68c-4.1331 7.3067-8.1186 11.108-11.956 11.403-2.0296 0.14761-3.8748-0.57199-5.5354-2.1588-1.6237-1.5868-2.4356-3.395-2.4356-5.4247-2e-6 -0.51663 0.055351-1.0148 0.16606-1.4946 1.0333-3.9486 3.4504-7.5096 7.2513-10.683 3.8009-3.1736 7.4727-4.7604 11.015-4.7604 1.7713 2.5e-5 3.2658 0.46131 4.4836 1.3838l-1.1624 1.1624c-1.0333-0.77493-2.2695-1.1624-3.7087-1.1624-3.0629 2.4e-5 -6.3104 1.513-9.7423 4.539-3.4319 2.9891-5.6092 6.2919-6.5318 9.9083-0.11071 0.36903-0.16606 0.73806-0.16606 1.1071-3e-6 1.5868 0.64579 3.0076 1.9374 4.2622 1.3285 1.2547 2.7677 1.8267 4.3176 1.716 2.3248-0.18451 4.742-1.8451 7.2513-4.9818 1.8082-2.3618 3.5242-5.3324 5.1479-8.912 1.3285-2.9153 1.9927-4.6497 1.9927-5.2033h1.882" fill="#eeeeec" stroke="#e8e8e8" stroke-linejoin="miter" stroke-miterlimit="4" stroke-opacity=".36992" stroke-width="1.4783"/>
<path id="co" d="m227.65-13.902v-2.7947 2.7947z" fill="#fff" fill-opacity=".75688" fill-rule="nonzero"/><rect id="cp" x="232.79" y="-28.117" width="1" height="0" fill="#fff" fill-rule="nonzero" opacity=".57787"/><path id="cq" transform="matrix(2.4232 -.44501 .23232 1.6602 -77.367 -70.515)" d="m41.714 121.96a4.9659 1.5725 0 1 1-9.9318 0 4.9659 1.5725 0 1 1 9.9318 0z" fill="url(#c)" fill-rule="nonzero" opacity=".4959"/><path id="cr" transform="matrix(-2.4232 -.44501 -.23232 1.6602 204.04 -71.036)" d="m41.714 121.96a4.9659 1.5725 0 1 1-9.9318 0 4.9659 1.5725 0 1 1 9.9318 0z" fill="url(#c)" fill-rule="nonzero" opacity=".4959"/><rect id="cs" x="60" y="109.25" width="6.5274" height="7.1627" rx="1.8358" ry="1.8358" fill="#000" fill-rule="nonzero"/><rect id="ct" x="60.412" y="109.75" width="5.6141" height="6.2713" rx="1.2841" ry="1.2517" fill="url(#p)" fill-rule="nonzero" opacity=".47951"/><rect id="cu" transform="matrix(.5 -.86602 .86602 .5 0 0)" x="-53.747" y="104.06" width="4.2836" height="33.926" fill="url(#q)" fill-rule="nonzero"/><rect id="cv" transform="matrix(.5 -.86602 .86602 .5 0 0)" x="-54.869" y="132.2" width="6.5274" height="8.9751" rx="1.8358" ry="1.8358" fill="#000" fill-rule="nonzero"/><rect id="cw" transform="matrix(.5 -.86602 .86602 .5 0 0)" x="-54.456" y="132.8" width="5.6141" height="7.691" rx="1.2841" ry="1.2517" fill="url(#r)" fill-rule="nonzero" opacity=".47951"/><rect id="cx" transform="matrix(-.5 -.86602 -.86602 .5 0 0)" x="-116.99" y="-5.4996" width="4.2836" height="33.926" fill="url(#s)" fill-rule="nonzero"/><rect id="cy" transform="matrix(-.5 -.86602 -.86602 .5 0 0)" x="-118.11" y="22.65" width="6.5274" height="8.9751" rx="1.8358" ry="1.8358" fill="#000" fill-rule="nonzero"/><rect id="cz" transform="matrix(-.5 -.86602 -.86602 .5 0 0)" x="-117.7" y="23.248" width="5.6141" height="7.691" rx="1.2841" ry="1.2517" fill="url(#t)" fill-rule="nonzero" opacity=".47951"/><path id="da" d="m62.261 99.699c-0.053251 0.01361-0.11284 0.041298-0.16369 0.065477-0.52337 0.27257-0.91667 1.0906-0.91667 2.0625v8.0209c-0.12332 0.05419-0.26139 0.14174-0.36012 0.22917-0.014845 0.0138-0.051313 0.051-0.065477 0.06547-0.013796 0.01481-0.052412 0.05004-0.065476 0.06548-0.019025 0.02363-0.048201 0.07326-0.065477 0.09821-0.027782 0.04232-0.075722 0.11807-0.098214 0.1637-0.029931 0.06472-0.047059 0.15907-0.065477 0.22917-0.021445 0.09099-0.032738 0.19713-0.032738 0.29464v3.7649c0 0.14086 0.021854 0.29945 0.065477 0.42561 0.017956 0.04796 0.041904 0.11869 0.065476 0.16369 0.078897 0.14191 0.20064 0.29098 0.32738 0.39285 0.080803 0.06183 0.19978 0.12202 0.29464 0.1637 0.15374 0.06317 0.34596 0.09821 0.52381 0.09821h0.22917c0.047436 0.03594 0.11337 0.072 0.16369 0.09822 0.11188 0.05318 0.23785 0.09821 0.36012 0.09821h1.506c0.18897 0 0.36255-0.07422 0.52381-0.19643h0.26191c0.12228 0 0.24824-0.00191 0.36012-0.03274 0.13085-0.03951 0.28381-0.12095 0.39286-0.19643 0.049416-0.03597 0.12017-0.08854 0.16369-0.13095 0.042471-0.04343 0.095219-0.11464 0.13095-0.16369 0.057578-0.08321 0.12779-0.1987 0.16369-0.29464 0.043623-0.12616 0.065477-0.28475 0.065477-0.42561v-3.7649c0-0.09751-0.011293-0.20365-0.032739-0.29464-0.065769-0.25034-0.23161-0.49108-0.4256-0.65477-0.015839-0.01274-0.048997-0.05348-0.065476-0.06548-0.075492-0.05225-0.17542-0.09542-0.26191-0.13095v-8.0209c0-0.91585-0.3418-1.6821-0.81846-1.997-0.1378-0.084523-0.30271-0.13095-0.45834-0.13095h-1.506c-0.066692 0-0.13252-0.016322-0.19643 0z" fill="url(#u)" fill-rule="nonzero" opacity=".77459"/><path id="db" transform="matrix(1.2106 0 0 1.0476 -15.262 -11.289)" d="m68.364 122.04a3.7244 3.1451 0 1 1-7.4489 0 3.7244 3.1451 0 1 1 7.4489 0z" fill="url(#j)" fill-rule="nonzero" opacity=".4959"/><path id="dc" d="m37.165 32.096-15.278 10.407 10.24 12.787-1.2178 1.3285-9.9083-12.51-3.1552 12.012h-1.8267l12.289-45.833h1.7713l-8.1924 30.279 14.06-9.7423 1.2178 1.2731m25.117 2.4909-5.5907 20.979h-1.716l3.0998-11.68c-4.1331 7.3067-8.1186 11.108-11.956 11.403-2.0296 0.14761-3.8748-0.57199-5.5354-2.1588-1.6237-1.5868-2.4356-3.395-2.4356-5.4247-2e-6 -0.51663 0.055352-1.0148 0.16606-1.4946 1.0333-3.9486 3.4504-7.5096 7.2513-10.683 3.8009-3.1736 7.4727-4.7604 11.015-4.7604 1.7713 2.5e-5 3.2659 0.46131 4.4837 1.3838l-1.1624 1.1624c-1.0333-0.77493-2.2695-1.1624-3.7087-1.1624-3.0629 2.4e-5 -6.3103 1.513-9.7423 4.539-3.4319 2.9891-5.6092 6.2919-6.5317 9.9083-0.11071 0.36903-0.16607 0.73806-0.16606 1.1071-4e-6 1.5868 0.64579 3.0076 1.9374 4.2622 1.3285 1.2547 2.7677 1.8267 4.3176 1.716 2.3248-0.18451 4.742-1.8451 7.2513-4.9818 1.8082-2.3618 3.5242-5.3324 5.1479-8.912 1.3285-2.9153 1.9927-4.6497 1.9927-5.2033h1.882m22.065 3.4873-4.8158 18.045h-1.7713l4.9818-18.488c0.073786-0.2952 0.11069-0.59042 0.11071-0.88566-2.1e-5 -1.144-0.51666-2.1588-1.5499-3.0445-1.0333-0.88564-2.1957-1.3654-3.4873-1.4392-2.4356-0.11068-5.0372 1.2547-7.8049 4.0962l-5.314 19.485h-1.7713l4.8158-17.492h-1.1071c0.25831-0.70113 0.84875-1.7159 1.7713-3.0445l1.1071-4.8711h1.6606l-0.88566 3.598c2.8784-2.3617 5.4062-3.4873 7.5835-3.3766 1.6975 0.073831 3.229 0.73808 4.5944 1.9927 1.3654 1.2178 2.0481 2.6201 2.0481 4.2069-2.2e-5 0.40595-0.055376 0.81187-0.16606 1.2178m26.478-3.4873-5.5907 20.979h-1.716l3.0998-11.68c-4.1331 7.3067-8.1186 11.108-11.956 11.403-2.0296 0.14761-3.8748-0.57199-5.5354-2.1588-1.6237-1.5868-2.4356-3.395-2.4356-5.4247-2e-6 -0.51663 0.055351-1.0148 0.16606-1.4946 1.0333-3.9486 3.4504-7.5096 7.2513-10.683 3.8009-3.1736 7.4727-4.7604 11.015-4.7604 1.7713 2.5e-5 3.2658 0.46131 4.4836 1.3838l-1.1624 1.1624c-1.0333-0.77493-2.2695-1.1624-3.7087-1.1624-3.0629 2.4e-5 -6.3104 1.513-9.7423 4.539-3.4319 2.9891-5.6092 6.2919-6.5318 9.9083-0.11071 0.36903-0.16606 0.73806-0.16606 1.1071-3e-6 1.5868 0.64579 3.0076 1.9374 4.2622 1.3285 1.2547 2.7677 1.8267 4.3176 1.716 2.3248-0.18451 4.742-1.8451 7.2513-4.9818 1.8082-2.3618 3.5242-5.3324 5.1479-8.912 1.3285-2.9153 1.9927-4.6497 1.9927-5.2033h1.882" fill="#eeeeec" opacity=".63525" stroke="#e8e8e8" stroke-linejoin="miter" stroke-miterlimit="4" stroke-opacity=".36992" stroke-width="2.1606"/>
</svg>
