<?xml version="1.0" encoding="UTF-8"?>
<svg id="r" viewBox="0 0 64 64" xmlns="http://www.w3.org/2000/svg" xmlns:xlink="http://www.w3.org/1999/xlink"><defs id="s"><filter id="q"><feGaussianBlur id="t" stdDeviation="0.62271283"/></filter><radialGradient id="j" cx="34.942" cy="48.853" r="23.226" gradientTransform="matrix(1.2322 -1.4644 1.1232 .94507 -58.588 55.073)" gradientUnits="userSpaceOnUse" xlink:href="#a"/><linearGradient id="a"><stop id="u" stop-color="#723b00" offset="0"/><stop id="v" stop-color="#630000" stop-opacity="0" offset="1"/></linearGradient><linearGradient id="n" x1="15.698" x2="15.698" y1="59.532" y2="56.654" gradientTransform="translate(1.537 -1.7077)" gradientUnits="userSpaceOnUse"><stop id="w" stop-color="#333a3c" offset="0"/><stop id="x" stop-color="#5e615c" offset="1"/></linearGradient><radialGradient id="k" cx="21.162" cy="15.543" r="23.226" gradientTransform="matrix(1.0719 -1.274 1.0058 .84633 -21.671 33.51)" gradientUnits="userSpaceOnUse" xlink:href="#c"/><linearGradient id="c"><stop id="y" stop-color="#fffb90" offset="0"/><stop id="z" stop-color="#ff9590" stop-opacity="0" offset="1"/></linearGradient><radialGradient id="b" cx="44.828" cy="22.167" r="4.867" gradientTransform="matrix(1.0351 .35088 -.29288 .86399 4.9194 -12.55)" gradientUnits="userSpaceOnUse" xlink:href="#c"/><radialGradient id="i" cx="49.462" cy="25.424" r="4.867" gradientTransform="matrix(1.0351 .35088 -.29288 .86399 4.9194 -12.55)" gradientUnits="userSpaceOnUse"><stop id="aa" stop-color="#673500" offset="0"/><stop id="ab" stop-color="#590000" stop-opacity="0" offset="1"/></radialGradient><radialGradient id="h" cx="13.254" cy="37.074" r="3.1593" gradientTransform="matrix(1.8167 -.091167 .12348 2.4607 -14.738 -50.589)" gradientUnits="userSpaceOnUse" xlink:href="#a"/><radialGradient id="g" cx="14.027" cy="31.463" r="3.1593" gradientTransform="matrix(1.4395 -.27591 .34779 1.8146 -18.141 -24.504)" gradientUnits="userSpaceOnUse"><stop id="ac" stop-color="#fff" offset="0"/><stop id="ad" stop-color="#fffda7" stop-opacity=".57255" offset=".42534"/><stop id="ae" stop-color="#ffb61b" stop-opacity="0" offset="1"/></radialGradient><radialGradient id="f" cx="18.905" cy="42.045" r="2.3234" gradientTransform="matrix(1.4135 -.81398 .67564 1.1733 -36.354 5.9337)" gradientUnits="userSpaceOnUse" xlink:href="#a"/><filter id="p" x="-.19804" y="-.17153" width="1.3961" height="1.3431"><feGaussianBlur id="af" stdDeviation="0.38343606"/></filter><linearGradient id="m" x1="27.228" x2="30.2" y1="27.576" y2="30.954" gradientUnits="userSpaceOnUse"><stop id="ag" stop-color="#152b47" offset="0"/><stop id="ah" stop-color="#003a5c" offset="1"/></linearGradient><linearGradient id="l" x1="40.506" x2="40.057" y1="32.628" y2="43.407" gradientTransform="matrix(.93391 -.30101 .33849 .8305 -7.6166 12.506)" gradientUnits="userSpaceOnUse"><stop id="ai" stop-color="#42261a" offset="0"/><stop id="aj" stop-color="#be0000" stop-opacity="0" offset="1"/></linearGradient><radialGradient id="e" cx="47.797" cy="23.344" r="2.2344" gradientTransform="matrix(1.1414 0 0 1.9157 -7.0762 -22.101)" gradientUnits="userSpaceOnUse" xlink:href="#a"/><radialGradient id="d" cx="46.706" cy="26.686" r="2.3054" gradientTransform="matrix(1 0 0 .77778 0 5.9302)" gradientUnits="userSpaceOnUse" xlink:href="#a"/><filter id="o" x="-.25219" y="-.32425" width="1.5044" height="1.6485"><feGaussianBlur id="ak" stdDeviation="0.48450784"/></filter></defs><g id="al"><path id="am" d="m48.03 46.477c4.4659 0 8.0905 3.6246 8.0905 8.0905 0.24283 3.2867-5.2085 2.5948-7.8837 2.6882-3.1441-0.15023-8.2088 0.75303-8.2972-2.6882 0-4.4659 3.6246-8.0905 8.0905-8.0905z" fill="#5e615c" fill-rule="nonzero"/><path id="an" d="m48.031 46.469c-0.22771 0-0.46453 0.044022-0.6875 0.0625 4.1499 0.34391 7.4062 3.7931 7.4062 8.0312 0.18212 2.465-2.8496 2.6886-5.5 2.6875 2.8325 0.017125 7.0923 0.25324 6.875-2.6875 0-4.4659-3.6279-8.0938-8.0938-8.0938z" fill="#cfd2ca" fill-rule="nonzero"/><path id="ao" d="m41.318 50.042c-0.87264 1.2913-1.375 2.8565-1.375 4.5312 0.088452 3.4412 5.1371 2.5373 8.2812 2.6875 2.6752-0.093405 8.1491 0.59922 7.9062-2.6875 0-0.21743-0.045638-0.44313-0.0625-0.65625-1.7239 0.83295-4.8072 0.53028-6.625 0.59375-3.1441-0.15022-8.224 0.75373-8.3125-2.6875 0-0.6129 0.058157-1.2072 0.1875-1.7812z" fill="#333a3c" fill-rule="nonzero"/><path id="ap" transform="matrix(1.0184 -.36912 .36912 1.0184 -11.155 9.1498)" d="m31.031 9.6562c-0.65262 0-1.2985 0.040789-1.9375 0.09375-0.60107 0.049816-1.194 0.12389-1.7812 0.21875-0.15735 0.025491-0.31249 0.065095-0.46875 0.09375-0.35858 0.065701-0.70987 0.13674-1.0625 0.21875-0.5495 0.12789-1.0914 0.27114-1.625 0.4375-0.33438 0.10424-0.67233 0.19365-1 0.3125-0.030659 0.011085-0.063152 0.020039-0.09375 0.03125-0.51225 0.18768-1.0054 0.40292-1.5 0.625-0.41533 0.18648-0.8168 0.38396-1.2188 0.59375-0.11472 0.059877-0.23016 0.12577-0.34375 0.1875-0.18919 0.10312-0.37655 0.20429-0.5625 0.3125-0.40422 0.2341-0.79918 0.49266-1.1875 0.75-0.52386 0.34716-1.0384 0.70634-1.5312 1.0938-0.438 0.34427-0.86945 0.68819-1.2812 1.0625-0.05408 0.049416-0.10264 0.10633-0.15625 0.15625-0.2177 0.2017-0.41518 0.41518-0.625 0.625-0.23415 0.23522-0.46353 0.4737-0.6875 0.71875-0.42666 0.46492-0.83072 0.93888-1.2188 1.4375-0.38519 0.49497-0.74897 1.0054-1.0938 1.5312-0.3417 0.52113-0.66903 1.0759-0.96875 1.625-0.006643 0.012172-0.024628 0.019065-0.03125 0.03125-0.89264 1.6425-1.5858 3.3985-2.0625 5.25-0.0049994 0.019417 0.0049505 0.043064 0 0.0625-0.46714 1.834-0.75 3.74-0.75 5.7188 0 12.798 10.389 23.187 23.188 23.188 9.4462 0 17.576-5.6695 21.188-13.781-0.49959 0.76235-1.198 1.3864-2.0312 1.9062 0.050644-0.08402 0.10725-0.16445 0.15625-0.25 0.2233-0.38798 0.42602-0.78785 0.625-1.1875 0.26842-0.53914 0.52656-1.0673 0.75-1.625 0.19856-0.4956 0.36883-0.99202 0.53125-1.5 0.021205-0.066925 0.041927-0.15163 0.0625-0.21875 0.084028-0.27172 0.14515-0.53782 0.21875-0.8125 0.081618-0.30742 0.15029-0.59555 0.21875-0.90625 0.13132-0.5903 0.26063-1.1815 0.34375-1.7812 0.056853-0.4102 0.060143-0.83699 0.09375-1.25 0.59738-0.4728 0.96707-1.0608 1.0312-1.7812 1.0564-11.858-9.0061-21.858-20.812-23.062-0.74835-0.095525-1.5409-0.125-2.375-0.125zm-12.344 21.75c0.11104-0.012907 0.34115 0.097594 0.53125 0.15625 2.1293 0.82667 2.689 1.2394 4.875 1.875-1.441 0.64389-2.8843 1.3412-4.25 2.0625-0.96356-1.5347-1.3971-2.9488-1.2188-4.0312 0.006134-0.037234 0.025487-0.058198 0.0625-0.0625z" fill="#1b0b00" fill-rule="nonzero" filter="url(#q)" opacity=".5"/><path id="aq" d="m47.312 27.074c0.92757 2.5592 8.4346 1.3463 8.4502 3.9224 0.057895 9.5352-5.8161 18.512-15.289 21.945-12.032 4.3609-25.337-1.865-29.698-13.897-4.3609-12.032 1.865-25.337 13.897-29.698 12.032-4.3609 18.278 5.6948 22.639 17.727z" fill="#ffca00" fill-rule="nonzero"/><path id="ar" d="m19.221 32.253c6.0551 12.281 39.286 9.5526 36.276-2.7951-0.43978-1.804-1.0716-3.1521-2.4215-4.3265-6.8765 3.4404-15.757 6.1582-25.745 6.9155-2.7603 0.20931-5.4752 0.26177-8.1098 0.20611z" fill="#4d2600" fill-rule="nonzero"/><path id="as" d="m19.221 32.253c6.0551 12.281 39.286 9.5526 36.276-2.7951-0.43978-1.804-1.0716-3.1521-2.4215-4.3265-6.8765 3.4404-15.757 6.1582-25.745 6.9155-2.7603 0.20931-5.4752 0.26177-8.1098 0.20611z" fill="url(#l)" fill-rule="nonzero"/><path id="at" d="m19.221 31.968c5.9987 11.79 38.92 9.1703 35.938-2.6832-0.43569-1.7318-1.0616-3.0259-2.399-4.1534-6.8125 3.3027-15.61 5.9117-25.505 6.6387-2.7346 0.20093-5.4242 0.25129-8.0343 0.19786z" fill="none" stroke="#935900" stroke-linecap="round" stroke-linejoin="round" stroke-miterlimit="4" stroke-width="1"/><path id="au" d="m24.669 9.3441c-10.172 3.6866-16.158 13.771-15.142 24.069 5.4515 0.90087 11.436 0.76571 17.711 0.62748 4.5201-0.099564 28.794-4.5222 27.132-10.798-3.2507-12.276-17.669-18.26-29.701-13.899z" fill="#ffca00" fill-rule="nonzero"/><path id="av" d="m24.669 9.3441c-0.61356 0.22238-1.2069 0.4808-1.7896 0.74834-0.54812 0.25165-1.0804 0.52334-1.6001 0.81262-0.13925 0.077583-0.27161 0.16768-0.40875 0.24787-0.31474 0.18396-0.6208 0.37044-0.92438 0.5677-0.47304 0.30748-0.93365 0.62679-1.3787 0.96503-0.27885 0.21195-0.56611 0.41116-0.83367 0.63455-0.025047 0.020868-0.052544 0.040358-0.077491 0.061325-0.41764 0.35099-0.80792 0.72139-1.1973 1.0987-0.32693 0.31684-0.63708 0.63931-0.94349 0.9735-0.087455 0.095385-0.17353 0.19667-0.25929 0.29341-0.14273 0.16142-0.2844 0.32037-0.42235 0.48547-0.30026 0.35783-0.58348 0.7355-0.86087 1.1098-0.37421 0.50489-0.73554 1.0179-1.0669 1.5501-0.29448 0.47292-0.58292 0.94327-0.84253 1.4355-0.034005 0.064886-0.060267 0.13494-0.093658 0.20014-0.13594 0.26381-0.24886 0.5318-0.37463 0.80056-0.13998 0.30093-0.27438 0.6033-0.40144 0.91-0.2427 0.58248-0.46108 1.1658-0.65599 1.7668-0.19348 0.5966-0.36155 1.2005-0.50652 1.8123-0.14368 0.60638-0.2624 1.2394-0.35706 1.8579-0.0020978 0.013707-0.016658 0.026316-0.018731 0.040029-0.27953 1.8484-0.33284 3.7354-0.15014 5.6386 0.0019161 0.019959 0.019328 0.0388 0.021297 0.05876 0.18576 1.8834 0.56927 3.7717 1.2435 5.6321 4.3609 12.032 17.669 18.26 29.701 13.899 8.8809-3.2188 14.593-11.319 15.224-20.176-2.5024 3.947-8.0978 6.4826-17.663 7.1157-9.1224 0.6038-16.35-4.1485-17.225-5.4961 2.1871-0.20164 3.4219-0.22782 5.6406-0.32632 0.26539-0.005779 0.52384-0.014653 0.7903-0.020522 1.2729-0.028038 4.1286-0.43618 7.5142-1.0947 4.8274-0.93898 10.747-2.4437 14.833-4.3789 0.40367-0.19226 0.78637-0.38326 1.1513-0.58348 0.26865-0.14738 0.5244-0.29348 0.76939-0.44505 0.090363-0.055778 0.18557-0.10887 0.2725-0.16524 0.029386-0.019061 0.048506-0.042201 0.077492-0.061325 0.028952-0.019072 0.048942-0.042186 0.077491-0.061325 0.25462-0.17092 0.48723-0.34668 0.70807-0.52254 1.3521-1.0768 2.0576-2.2419 1.7284-3.485-3.0476-11.509-15.915-17.481-27.425-14.59-0.73611 0.16519-1.4913 0.40754-2.2755 0.69176z" fill="url(#j)" fill-rule="nonzero" opacity=".8"/><path id="aw" d="m24.669 9.3441c-0.61356 0.22238-1.2069 0.4808-1.7896 0.74834-0.54812 0.25165-1.0804 0.52334-1.6001 0.81262-0.13925 0.077583-0.27161 0.16768-0.40875 0.24787-0.31474 0.18396-0.6208 0.37044-0.92438 0.5677-0.47304 0.30748-0.93365 0.62679-1.3787 0.96503-0.27885 0.21195-0.56611 0.41116-0.83367 0.63455-0.025047 0.020868-0.052544 0.040358-0.077491 0.061325-0.41764 0.35099-0.80792 0.72139-1.1973 1.0987-0.32693 0.31684-0.63708 0.63931-0.94349 0.9735-0.087455 0.095385-0.17353 0.19667-0.25929 0.29341-0.14273 0.16142-0.2844 0.32037-0.42235 0.48547-0.30026 0.35783-0.58348 0.7355-0.86087 1.1098-0.37421 0.50489-0.73554 1.0179-1.0669 1.5501-0.29448 0.47292-0.58292 0.94327-0.84253 1.4355-0.034005 0.064886-0.060267 0.13494-0.093658 0.20014-0.13594 0.26381-0.24886 0.5318-0.37463 0.80056-0.13998 0.30093-0.27438 0.6033-0.40144 0.91-0.2427 0.58248-0.46108 1.1658-0.65599 1.7668-0.19348 0.5966-0.36155 1.2005-0.50652 1.8123-0.14368 0.60638-0.2624 1.2394-0.35706 1.8579-0.0020978 0.013707-0.016658 0.026316-0.018731 0.040029-0.27953 1.8484-0.33284 3.7354-0.15014 5.6386 0.0019161 0.019959 0.019328 0.0388 0.021297 0.05876 0.18576 1.8834 0.56927 3.7717 1.2435 5.6321 4.3609 12.032 17.669 18.26 29.701 13.899 8.8809-3.2188 14.593-11.319 15.224-20.176-1.1363 4.8009-8.4393 8.0196-18.004 8.6527-9.1224 0.6038-16.628-3.9716-17.258-7.3533-0.027681-0.14838 0.32522-0.10134 0.59016-0.11418 2.3592 0.053341 2.9628 0.28596 5.4252 0.10808 0.26539-0.005779 0.52384-0.014653 0.7903-0.020522 1.2729-0.028038 4.1286-0.43618 7.5142-1.0947 4.8274-0.93898 10.747-2.4437 14.833-4.3789 0.40367-0.19226 0.78637-0.38326 1.1513-0.58348 0.26865-0.14738 0.5244-0.29348 0.76939-0.44505 0.090363-0.055778 0.18557-0.10887 0.2725-0.16524 0.029386-0.019061 0.048506-0.042201 0.077492-0.061325 0.028952-0.019072 0.048942-0.042186 0.077491-0.061325 0.25462-0.17092 0.48723-0.34668 0.70807-0.52254 1.3521-1.0768 2.0576-2.2419 1.7284-3.485-3.0476-11.509-15.915-17.481-27.425-14.59-0.73611 0.16519-1.4913 0.40754-2.2755 0.69176z" fill="url(#k)" fill-rule="nonzero"/><path id="ax" transform="matrix(.51018 -.97783 .93288 .97843 -15.635 24.162)" d="m32.447 28.735a3.3301 3.3301 0 1 1-6.6601 0 3.3301 3.3301 0 1 1 6.6601 0z" fill="#323232" fill-rule="nonzero"/><path id="ay" d="m17.358 45.511c5.3992 0 9.7812 4.3821 9.7812 9.7812 0.29357 3.9736-6.297 3.1371-9.5312 3.25-3.8012-0.18162-9.9243 0.9104-10.031-3.25 0-5.3992 4.3821-9.7812 9.7813-9.7812z" fill="#888" fill-rule="nonzero"/><path id="az" d="m17.349 45.511c-0.28493 0-0.56498 0.038587-0.84375 0.0625 5.0037 0.42922 8.9375 4.6045 8.9375 9.7188 0.22018 2.9802-3.452 3.2514-6.6562 3.25 3.4236 0.018807 8.6073 0.31768 8.3438-3.25 0-5.3992-4.3821-9.7812-9.7812-9.7812zm-2.9688 13c-0.52121 0.004269-1.0494 0.025242-1.5938 0.03125 0.79354 0.026169 1.6096 0.012153 2.4062 0-0.26838-0.003628-0.53042-0.03356-0.8125-0.03125z" fill="#5e615c" fill-rule="nonzero"/><path id="ba" d="m7.5995 54.949c-0.0040261 0.11523-0.03125 0.22755-0.03125 0.34375 0.10694 4.1604 6.2301 3.0684 10.031 3.25 3.2343-0.11292 9.8248 0.72359 9.5312-3.25 0-0.10535 0.003312-0.20795 0-0.3125-2.973 0.19771-6.1776 0.3125-9.5312 0.3125-3.5295 0-6.898-0.12583-10-0.34375z" fill="url(#n)" fill-rule="nonzero"/><path id="bb" transform="matrix(.074268 -.50169 .65624 .83839 28.358 8.1209)" d="m32.447 28.735a3.3301 3.3301 0 1 1-6.6601 0 3.3301 3.3301 0 1 1 6.6601 0z" fill="url(#m)" fill-rule="nonzero"/><path id="bc" transform="matrix(1.1414 0 0 1.1414 -5.5168 -5.587)" d="m48.67 24.039a4.867 4.4401 0 1 1-9.7341 0 4.867 4.4401 0 1 1 9.7341 0z" fill="url(#i)" fill-rule="nonzero" opacity=".8"/><path id="bd" transform="matrix(1.1414 0 0 1.1414 -5.5168 -5.587)" d="m48.67 24.039a4.867 4.4401 0 1 1-9.7341 0 4.867 4.4401 0 1 1 9.7341 0z" fill="url(#b)" fill-rule="nonzero" opacity=".8"/><path id="be" transform="matrix(1.1414 0 0 1.1414 -5.5168 -5.587)" d="m48.67 24.039a4.867 4.4401 0 1 1-9.7341 0 4.867 4.4401 0 1 1 9.7341 0z" fill="url(#b)" fill-rule="nonzero" opacity=".8"/><path id="bf" transform="matrix(1.2599 0 0 1.2251 -4.0337 -8.507)" d="m14.128 39.487c1.0868 2.4151 3.5019 3.9849 4.4679 3.6226 0.96604-0.36226-2.2943-5.3132-2.2943-5.3132l-2.1736 1.6906z" fill="url(#f)" fill-rule="evenodd" filter="url(#p)"/><path id="bg" transform="matrix(.99029 -.13904 .13904 .99029 -5.2383 7.6582)" d="m17.931 33.346a3.1593 4.3547 0 1 1-6.3186 0 3.1593 4.3547 0 1 1 6.3186 0z" fill="url(#h)" fill-rule="nonzero"/><path id="bh" transform="matrix(.99029 -.13904 .13904 .99029 -5.2383 7.6582)" d="m17.931 33.346a3.1593 4.3547 0 1 1-6.3186 0 3.1593 4.3547 0 1 1 6.3186 0z" fill="url(#g)" fill-rule="nonzero"/><path id="bi" d="m48.497 18.337c0.78512 1.8519 0.55354 4.213-0.78473 6.1708-0.74001 1.0826-1.717 1.8932-2.7822 2.3899 2.8508-0.21431 5.1007-2.3737 5.1007-5.0294 0-1.3639-0.57213-2.62-1.5338-3.5313z" fill="url(#e)" fill-rule="nonzero" opacity=".8"/><path id="bj" transform="matrix(1.3528 0 0 1.4675 -16.656 -13.315)" d="m49.012 26.686a2.3054 1.7931 0 1 1-4.6109 0 2.3054 1.7931 0 1 1 4.6109 0z" fill="url(#d)" fill-rule="nonzero" filter="url(#o)"/></g></svg>
