<?xml version="1.0" encoding="UTF-8"?>
<svg viewBox="0 0 48 48" xmlns="http://www.w3.org/2000/svg" xmlns:xlink="http://www.w3.org/1999/xlink"><linearGradient id="a"><stop stop-color="#2a7fff" offset="0"/><stop stop-color="#0cf" offset="1"/></linearGradient><linearGradient id="b" x1="80.723" x2="141.41" y1="192.16" y2="252.84" gradientUnits="userSpaceOnUse"><stop stop-color="#0055d4" offset="0"/><stop stop-color="#06f" stop-opacity="0" offset="1"/></linearGradient><linearGradient id="c" x1="61.163" x2="64.928" y1="105.11" y2="109.04" gradientUnits="userSpaceOnUse"><stop stop-color="#e6e6e6" offset="0"/><stop stop-color="#b3b3b3" offset="1"/></linearGradient><linearGradient id="d" x1="77.167" x2="64.372" y1="115.71" y2="112" gradientUnits="userSpaceOnUse"><stop stop-color="#0cf" offset="0"/><stop stop-color="#2a7fff" offset="1"/></linearGradient><linearGradient id="e" x1="68.707" x2="75.819" y1="113.06" y2="117.91" gradientUnits="userSpaceOnUse" xlink:href="#a"/><linearGradient id="f"><stop stop-color="#fff" offset="0"/><stop stop-color="#b3b3b3" offset="1"/></linearGradient><linearGradient id="g" x1="77.401" x2="68.67" y1="106.37" y2="120.36" gradientUnits="userSpaceOnUse" xlink:href="#f"/><linearGradient id="h" x1="68.229" x2="68.164" y1="112.73" y2="118.55" gradientUnits="userSpaceOnUse"><stop stop-color="#b3b3b3" offset="0"/><stop stop-color="#fff" offset="1"/></linearGradient><linearGradient id="i" x1="63.367" x2="71.136" y1="106.86" y2="104.89" gradientUnits="userSpaceOnUse" xlink:href="#f"/><linearGradient id="j" x1="66.951" x2="66.336" y1="104.46" y2="109.67" gradientUnits="userSpaceOnUse"><stop stop-color="#ccc" offset="0"/><stop stop-color="#b3b3b3" offset="1"/></linearGradient><linearGradient id="k" x1="62.961" x2="77.488" y1="115.88" y2="107.31" gradientUnits="userSpaceOnUse"><stop stop-color="#e6e6e6" offset="0"/><stop stop-color="#fff" offset="1"/></linearGradient><linearGradient id="l" x1="220.31" x2="54.439" y1="207.92" y2="42.052" gradientTransform="matrix(.44648 0 0 .43479 59.665 148.26)" gradientUnits="userSpaceOnUse" xlink:href="#a"/><linearGradient id="m" x1="68.21" x2="148.52" y1="177.75" y2="258.06" gradientUnits="userSpaceOnUse"><stop stop-color="#59f" offset="0"/><stop stop-color="#06f" offset="1"/></linearGradient><g transform="matrix(.35834 0 0 .35834 -14.589 -53.834)"><circle cx="107.69" cy="217.21" r="55.812" fill="url(#m)" stroke-width=".046091"/><ellipse cx="107.69" cy="215.74" rx="55.812" ry="54.351" fill="url(#l)" stroke-width=".045484"/><path d="m104.43 173.44c-3.175 21.389-11.196 24.897-26.928 45.509l4.5068 10.666 38.212 38.213a55.812 55.812 0 0 0 43.28-50.621l-42.761-42.761z" fill="url(#b)" stroke-width=".046091"/><g transform="matrix(4.5476 0 0 4.649 -203.94 -313.79)" stroke-width=".26458"><path d="m65.429 109.92c-0.79474-2.5809-5.2859-1.9546-6.0367-2.0106 0.8426-0.40914 1.6041-0.74639 3.3411-1.9773 3.3463-2.3712 6.8892-1.8541 8.6634-0.91242-4.8503 0.18036-3.9263 2.7652-3.2119 4.1271-0.90852 0.25814-2.3427 0.64782-2.7559 0.77319z" fill="url(#c)"/><path d="m77.401 106.37c-1.7466 2.2567-4.6505 5.3057-7.8287 5.7074-3.1782 0.40163-6.208-0.0433-6.9099 2.272-0.64633 2.1322 1.6269 4.1229 3.9846 3.6431 2.5188-0.51257 1.9748-3.3051 0.59714-5.2068 1.0465-0.0587 0.85181-0.0435 2.6264-0.131 2.6451 2.2055 3.5219 2.8343 8.143 6.0521-3.5612-0.36484-4.8573-0.69982-7.4114-2.1943 0.66167 1.6246 2.0759 5.3119 2.3822 8.1728-1.4732-2.0706-2.0316-2.8316-4.3147-4.3254-2.9244-1.9135-5.2929-1.9783-6.6637-4.7974-1.3679-2.8131 0.44269-4.8394 3.6825-5.717 4.63-1.2541 8.6193-2.4431 11.712-3.4755z" fill="url(#d)"/><path d="m67.245 112.78c1.0465-0.0587 0.85181-0.0435 2.6264-0.131 2.6451 2.2055 3.5219 2.8343 8.143 6.0521-4.6449-0.32503-8.1593-1.6651-10.769-5.9211z" fill="url(#e)"/><path d="m77.401 106.37c-1.7466 2.2567-4.6505 5.3057-7.8287 5.7074-3.1782 0.40163-6.208-0.0433-6.9099 2.272-0.64633 2.1322 1.6269 4.1229 3.9846 3.6431 2.5188-0.51257 1.9748-3.3051 0.59714-5.2068 1.0465-0.0587 0.85181-0.0435 2.6264-0.131 2.6451 2.2055 3.5219 2.8343 8.143 6.0521-3.5612-0.36484-4.8573-0.69982-7.4114-2.1943 0.66167 1.6246 2.0759 5.3119 2.3822 8.1728-1.4732-2.0706-2.0316-2.8316-4.3147-4.3254-2.9244-1.9135-5.2929-1.9783-6.6637-4.7974-1.3679-2.8131 0.44269-4.8394 3.6825-5.717 4.63-1.2541 8.6193-2.4431 11.712-3.4755z" fill="url(#g)"/><path d="m67.245 112.78c1.0465-0.0587 0.85181-0.0435 2.6264-0.131 2.6451 2.2055 3.5219 2.8343 8.143 6.0521-4.6449-0.32503-8.1593-1.6651-10.769-5.9211z" fill="url(#h)"/><path d="m59.392 107.91c0.8426-0.40914 1.6041-0.74639 3.3411-1.9773 3.3463-2.3712 6.8892-1.8541 8.6634-0.91242-4.8503 0.18036-4.2254 1.1257-4.2433 1.8668-3.2226-0.66446-4.1635 0.2396-7.7612 1.0229z" fill="url(#i)"/><path d="m71.397 105.02c-4.8503 0.18036-3.9263 2.7652-3.2119 4.1271-0.56601 0.16082-1.1795 0.34403-1.9361 0.53991-3.0529-5.3212 2.6563-6.0134 5.148-4.667z" fill="url(#j)"/><path d="m62.88 116.89c-2.3735-2.9895-1.9352-5.7296 2.7124-7.1533 4.5864-1.4049 8.716-2.3324 11.809-3.3648-8.3473 3.1111-18.8 5.19-14.522 10.518z" fill="url(#k)"/></g></g></svg>
