<?xml version="1.0" encoding="UTF-8"?>
<svg id="f" version="1.1" viewBox="0 0 128 128" xmlns="http://www.w3.org/2000/svg" xmlns:xlink="http://www.w3.org/1999/xlink"><defs id="g"><filter id="d" x="-.49079" y="-.46945" width="1.9816" height="1.9389" color-interpolation-filters="sRGB"><feGaussianBlur id="h" stdDeviation="4.4988888"/></filter><filter id="c" x="-.49079" y="-.46945" width="1.9816" height="1.9389" color-interpolation-filters="sRGB"><feGaussianBlur id="i" stdDeviation="4.4988888"/></filter><linearGradient id="b" x1="2" x2="10" y1="64" y2="64" gradientUnits="userSpaceOnUse"><stop id="j" stop-color="#63570f" stop-opacity=".68627" offset="0"/><stop id="k" stop-color="#63570f" stop-opacity=".058824" offset="1"/></linearGradient><linearGradient id="a" x1="126" x2="118" y1="988.36" y2="988.36" gradientUnits="userSpaceOnUse"><stop id="l" stop-color="#63570f" stop-opacity=".68627" offset="0"/><stop id="m" stop-color="#63570f" stop-opacity=".058824" offset="1"/></linearGradient><filter id="e" x="-.24539" y="-.23472" width="1.4908" height="1.4694"><feGaussianBlur id="n" stdDeviation="2.2494444"/></filter></defs><g id="o" transform="translate(0 -924.36)"><path id="p" transform="translate(0 924.36)" d="m8.25 1c-4.5773 0-8.25 3.6727-8.25 8.25v109.5c0 4.5773 3.6727 8.25 8.25 8.25h111.5c4.5773 0 8.25-3.6727 8.25-8.25v-109.5c0-4.5773-3.6727-8.25-8.25-8.25h-111.5zm0.875 1h109.75c4.5047 0 8.125 3.6203 8.125 8.125v107.75c0 4.5047-3.6203 8.125-8.125 8.125h-109.75c-4.5047 0-8.125-3.6203-8.125-8.125v-107.75c0-4.5047 3.6203-8.125 8.125-8.125z" fill="#000" opacity=".05"/><path id="q" transform="translate(0 924.36)" d="m9.125 2c-4.5047 0-8.125 3.6203-8.125 8.125v107.75c0 4.5047 3.6203 8.125 8.125 8.125h109.75c4.5047 0 8.125-3.6203 8.125-8.125v-107.75c0-4.5047-3.6203-8.125-8.125-8.125h-109.75zm0.4375 0.5h108.88c4.4683 0 8.0625 3.5942 8.0625 8.0625v106.88c0 4.4683-3.5942 8.0625-8.0625 8.0625h-108.88c-4.4683 0-8.0625-3.5942-8.0625-8.0625v-106.88c0-4.4683 3.5942-8.0625 8.0625-8.0625z" fill="#000" opacity=".1"/><rect id="r" x="1.5" y="926.86" width="125" height="123" ry="8.0656" fill="#000" opacity=".2"/><rect id="s" x="2" y="927.36" width="124" height="122" ry="8" fill="#edefe7"/><path id="t" d="m2 976.36v24h124v-24h-124z" fill="#e4e392"/><path id="u" d="m2 952.36v24h124v-24h-124z" fill="#986db3"/><path id="v" transform="matrix(2.8 0 0 3.5 4.8 916.86)" d="m9 7c0 1.1046-1.1193 2-2.5 2s-2.5-0.89543-2.5-2 1.1193-2 2.5-2 2.5 0.89543 2.5 2z" fill="#ff7373"/><path id="w" d="m2 1000.4v24h124v-24h-124z" fill="#986db3"/><path id="x" transform="matrix(3.6364 0 0 3.4783 111.27 879.2)" d="m-2 31.5c0 6.3513-4.9249 11.5-11 11.5-6.0751 0-11-5.1487-11-11.5s4.9249-11.5 11-11.5c6.0751 0 11 5.1487 11 11.5z" fill="#000" filter="url(#e)" opacity=".5"/><path id="y" transform="matrix(3.6364 0 0 3.4783 111.27 878.8)" d="m-2 31.5c0 6.3513-4.9249 11.5-11 11.5-6.0751 0-11-5.1487-11-11.5s4.9249-11.5 11-11.5c6.0751 0 11 5.1487 11 11.5z" fill="#f6fbe6"/><path id="z" transform="matrix(-3.0909 0 0 -2.9565 23.818 1081.5)" d="m-2 31.5c0 6.3513-4.9249 11.5-11 11.5-6.0751 0-11-5.1487-11-11.5s4.9249-11.5 11-11.5c6.0751 0 11 5.1487 11 11.5z" fill="#72517b"/><path id="aa" transform="matrix(-2.5455 0 0 2.4348 30.909 911.67)" d="m-2 31.5c0 6.3513-4.9249 11.5-11 11.5-6.0751 0-11-5.1487-11-11.5s4.9249-11.5 11-11.5c6.0751 0 11 5.1487 11 11.5z" fill="#e4e9d5"/><path id="ab" transform="matrix(-2 0 0 1.9119 38 928.15)" d="m-2 31.5c0 6.3513-4.9249 11.5-11 11.5-6.0751 0-11-5.1487-11-11.5s4.9249-11.5 11-11.5c6.0751 0 11 5.1487 11 11.5z" fill="#4b3052"/><path id="ac" d="m79.125 972.4c-4.125 15.975-28.875 10.478-34.031 27.226 3.839 6.4308 10.869 10.736 18.906 10.736 12.15 0 22-9.844 22-21.987 0-6.2882-2.6407-11.968-6.875-15.975z" fill="#fff" opacity=".1"/><path id="ad" transform="matrix(-.375 0 0 .35848 59.948 987.39)" d="m-2 31.5c0 6.3513-4.9249 11.5-11 11.5-6.0751 0-11-5.1487-11-11.5s4.9249-11.5 11-11.5c6.0751 0 11 5.1487 11 11.5z" fill="#fff" filter="url(#d)" opacity=".4"/><path id="ae" transform="matrix(-.5625 0 0 .53773 53.27 961.41)" d="m-2 31.5c0 6.3513-4.9249 11.5-11 11.5-6.0751 0-11-5.1487-11-11.5s4.9249-11.5 11-11.5c6.0751 0 11 5.1487 11 11.5z" fill="#fff" filter="url(#c)" opacity=".45"/><path id="af" transform="translate(0 924.36)" d="m10 3c-4.432 0-8 3.568-8 8v106c0 4.432 3.568 8 8 8v-122z" fill="url(#b)" opacity=".2"/><path id="ag" d="m118 927.36v122c4.432 0 8-3.568 8-8v-106c0-4.432-3.568-8-8-8z" fill="url(#a)" opacity=".2"/></g></svg>
