<?xml version="1.0" encoding="UTF-8"?>
<svg id="g" width="36mm" height="36mm" version="1.1" viewBox="0 0 127.56 127.56" xmlns="http://www.w3.org/2000/svg" xmlns:xlink="http://www.w3.org/1999/xlink"><defs id="h"><linearGradient id="f" x1="211.02" x2="266.83" y1="569.34" y2="532.72" gradientUnits="userSpaceOnUse"><stop id="i" stop-color="#d8eae2" offset="0"/><stop id="j" stop-color="#6fa78d" offset="1"/></linearGradient><radialGradient id="a" cx="233.61" cy="545.13" r="54.077" gradientTransform="matrix(1 0 0 .64636 0 190.59)" gradientUnits="userSpaceOnUse"><stop id="k" stop-color="#0c7241" offset="0"/><stop id="l" stop-color="#9fd0ba" offset="1"/></radialGradient><linearGradient id="e" x1="256.09" x2="270.58" y1="591.64" y2="559.64" gradientUnits="userSpaceOnUse"><stop id="m" stop-color="#ececec" offset="0"/><stop id="n" stop-color="#b5b5b5" offset="1"/></linearGradient><radialGradient id="d" cx="254.54" cy="571.63" r="52.518" gradientTransform="matrix(.46082 -.88749 1.1996 .62286 -548.48 435.1)" gradientUnits="userSpaceOnUse"><stop id="o" stop-color="#b9dfcd" offset="0"/><stop id="p" stop-color="#2e8b61" offset="1"/></radialGradient><radialGradient id="c" cx="239.66" cy="572.06" r="27.95" gradientTransform="matrix(2.4062 -.58305 .27206 1.1228 -492.64 72.824)" gradientUnits="userSpaceOnUse"><stop id="q" stop-color="#fff" offset="0"/><stop id="r" stop-color="#d0cece" offset="1"/></radialGradient><radialGradient id="b" cx="220.46" cy="590.28" r="28.438" gradientTransform="matrix(.37206 -.85337 1.7529 .76424 -892.28 321.89)" gradientUnits="userSpaceOnUse"><stop id="s" stop-color="#fff" offset="0"/><stop id="t" stop-color="#b1b1b1" offset="1"/></radialGradient></defs><g id="u" transform="translate(-168.07 -480.41)"><g id="v" transform="translate(3.2762 -10.438)"><path id="w" d="m285.45 568.45-56.6 21.503 0.81025 14.832 54.112-19.748z" clip-rule="nonzero" color="#000000" color-rendering="auto" enable-background="accumulate" fill="url(#e)" fill-rule="evenodd" image-rendering="auto" shape-rendering="auto" solid-color="#000000" style="isolation:auto;mix-blend-mode:normal"/><path id="x" d="m270.29 552.93-1.8633 2.3535 1.1777 0.92969 15.615 12.355-1.4531 16.457-54.096 19.703-19.135-19.227-1.0586-1.0644-2.127 2.1172 1.0586 1.0625 19.812 19.906c0.41211 0.41411 1.0271 0.55129 1.5762 0.35157 0 0 55.714-20.129 56.236-21.076s2.798-17.592 2.5566-18.988c-0.42469-1.2899-17.125-13.949-17.125-13.949z" clip-rule="nonzero" color="#000000" color-rendering="auto" enable-background="accumulate" fill="#32845e" fill-rule="evenodd" image-rendering="auto" shape-rendering="auto" solid-color="#000000" style="block-progression:tb;isolation:auto;mix-blend-mode:normal;text-decoration-color:#000000;text-decoration-line:none;text-decoration-style:solid;text-indent:0;text-transform:none;white-space:normal"/><path id="y" d="m285.83 568.2-49.405 17.908" clip-rule="nonzero" color="#000000" color-rendering="auto" enable-background="accumulate" fill="none" image-rendering="auto" shape-rendering="auto" solid-color="#000000" stroke="#32845e" stroke-linecap="square" stroke-linejoin="round" stroke-miterlimit="4" stroke-width="3" style="isolation:auto;mix-blend-mode:normal"/><path id="z" d="m230.64 587.45 54.92-20.033-61.141-47.141-45.426 16.11z" fill="url(#d)" fill-rule="evenodd"/><path id="aa" d="m171.6 556.92 56.608 20.387 0.2688 14.333-54.821-19.987z" clip-rule="nonzero" color="#000000" color-rendering="auto" enable-background="accumulate" fill="url(#b)" fill-rule="evenodd" image-rendering="auto" shape-rendering="auto" solid-color="#000000" style="isolation:auto;mix-blend-mode:normal"/><path id="ab" d="m183.75 542.86-7.3214-6.9814 24.286-8.5203" clip-rule="nonzero" color="#000000" color-rendering="auto" enable-background="accumulate" fill="none" image-rendering="auto" shape-rendering="auto" solid-color="#000000" stroke="#32845e" stroke-linecap="square" stroke-linejoin="round" stroke-miterlimit="4" stroke-width="3" style="isolation:auto;mix-blend-mode:normal"/><path id="ac" d="m229.66 604.78-16.567-16.638 16.656 6.2188z" clip-rule="nonzero" color="#000000" color-rendering="auto" enable-background="accumulate" fill="#ececec" fill-rule="evenodd" image-rendering="auto" shape-rendering="auto" solid-color="#000000" style="isolation:auto;mix-blend-mode:normal"/><path id="ad" d="m176.5 538.05v9.0938l4.9834-4.3622z" clip-rule="nonzero" color="#000000" color-rendering="auto" enable-background="accumulate" fill="#b8b6b6" fill-rule="evenodd" image-rendering="auto" shape-rendering="auto" solid-color="#000000" style="isolation:auto;mix-blend-mode:normal"/><path id="ae" d="m229.57 501.29s-60.055 49.948-61.166 52.982 0.71548 16.156 2.7363 19.551 57.795 20.984 57.795 20.984l60.139-57.441-4.2031-2.3984-1.3008-0.74414-1.4883 2.6055 1.3027 0.74414 0.70703 0.4043-55.881 53.375-54.348-19.732-2.0508-14.637 56.408 20.375 58.422-56.957zm0.57617 2.75 50.92 17.607-53.594 52.25-54.469-19.672z" clip-rule="nonzero" color="#000000" color-rendering="auto" enable-background="accumulate" fill="#32845e" fill-rule="evenodd" image-rendering="auto" shape-rendering="auto" solid-color="#000000" style="block-progression:tb;isolation:auto;mix-blend-mode:normal;text-decoration-color:#000000;text-decoration-line:none;text-decoration-style:solid;text-indent:0;text-transform:none;white-space:normal"/><path id="af" d="m171.78 554.17 55.664 19.719 54.315-52.171-52.135-18.486z" fill="url(#a)" fill-rule="evenodd"/><path id="ag" d="m281.39 521.51c-5.2002 1.2827-17.336 20.529-54.969 26.614-44.032 6.6835-53.7 5.1813-53.7 5.1813l-1.0665 0.9401 55.849 21.063c0.0814 0.0292 0.17234 9e-3 0.23437-0.0508l54.117-53.133c0.0372-0.0366 0.0607-0.0849 0.0664-0.13672 0 0 7e-3 -0.0888-0.0254-0.16797-0.0329-0.0792-0.10833-0.16732-0.21485-0.22266-0.0972-0.0561-0.29099-0.0879-0.29099-0.0879z" fill="url(#f)" fill-rule="evenodd"/><path id="ah" d="m283.85 523.11-55.643 54.192 0.2688 14.333 55.631-53.559z" clip-rule="nonzero" color="#000000" color-rendering="auto" enable-background="accumulate" fill="url(#c)" fill-rule="evenodd" image-rendering="auto" shape-rendering="auto" solid-color="#000000" style="isolation:auto;mix-blend-mode:normal"/><path id="ai" d="m228.57 576.94-0.41406 0.38771-0.51563-0.1787 0.24169 14.111 0.59944 0.36132 0.40056-0.37892z" clip-rule="nonzero" color="#000000" color-rendering="auto" enable-background="accumulate" fill="#e6e6e6" fill-rule="evenodd" image-rendering="auto" shape-rendering="auto" solid-color="#000000" style="block-progression:tb;isolation:auto;mix-blend-mode:normal;text-decoration-color:#000000;text-decoration-line:none;text-decoration-style:solid;text-indent:0;text-transform:none;white-space:normal"/><path id="aj" d="m216.26 532.96 11.4 4.3743-2.1209-2.7836 6.8928-6.0975 0.66277 8.2184-2.7836 0.66277 11.135 4.5069-1.193-2.7836-0.39766-10.604 12.128-1.8799 7.3124 0.10318-10.559-4.3208 0.27176 2.386-15.118 1.9883 6.2301-5.4347 3.4464-0.66277-11.002-3.7115 1.5907 2.386-14.448 13.388z" fill="#fff" fill-rule="evenodd" stroke="#509474" stroke-linejoin="round" stroke-miterlimit="4" stroke-width="1.06"/><path id="ak" d="m228.57 576.94-0.41406 0.38771-0.51563-0.1787 0.24169 14.111 0.59944 0.36132 0.40056-0.37892z" clip-rule="nonzero" color="#000000" color-rendering="auto" enable-background="accumulate" fill="#e6e6e6" fill-rule="evenodd" image-rendering="auto" shape-rendering="auto" solid-color="#000000" style="block-progression:tb;isolation:auto;mix-blend-mode:normal;text-decoration-color:#000000;text-decoration-line:none;text-decoration-style:solid;text-indent:0;text-transform:none;white-space:normal"/><path id="al" d="m229.71 594.03-0.72656 0.73146-0.48438-0.085 0.6552 9.6074 0.5 0.516 0.73202-0.33472z" clip-rule="nonzero" color="#000000" color-rendering="auto" enable-background="accumulate" fill="#e6e6e6" fill-rule="evenodd" image-rendering="auto" shape-rendering="auto" solid-color="#000000" style="block-progression:tb;isolation:auto;mix-blend-mode:normal;text-decoration-color:#000000;text-decoration-line:none;text-decoration-style:solid;text-indent:0;text-transform:none;white-space:normal"/></g></g></svg>
