<?xml version="1.0" encoding="UTF-8"?>
<svg version="1.1" viewBox="0 0 48 48" xmlns="http://www.w3.org/2000/svg" xmlns:xlink="http://www.w3.org/1999/xlink"><defs><linearGradient id="a"><stop offset="0"/><stop stop-opacity="0" offset="1"/></linearGradient><linearGradient id="b"><stop stop-color="#172525" offset="0"/><stop stop-color="#334545" offset="1"/></linearGradient><linearGradient id="i" x1="42.961" x2=".204" y1="42.16" y2="9.136" gradientUnits="userSpaceOnUse"><stop stop-color="#172525" offset="0"/><stop stop-color="#354848" offset="1"/></linearGradient><linearGradient id="h" x1="39.597" x2="13.173" y1="59.821" y2="25.25" gradientUnits="userSpaceOnUse"><stop stop-color="#172525" offset="0"/><stop stop-color="#394d4d" offset="1"/></linearGradient><linearGradient id="g" x1="36.447" x2="11.236" y1="31.12" y2="9.673" gradientUnits="userSpaceOnUse" xlink:href="#b"/><linearGradient id="f" x1="21.796" x2="5.928" y1="34.488" y2="21.905" gradientTransform="matrix(.97222 0 0 .975 .66667 .6)" gradientUnits="userSpaceOnUse" xlink:href="#b"/><linearGradient id="e" x1="8.808" x2="17.168" y1="15.038" y2="35.845" gradientUnits="userSpaceOnUse"><stop stop-color="#eff1f1" offset="0"/><stop stop-color="#6f8181" offset="1"/></linearGradient><linearGradient id="d" x1="8.662" x2="14.783" y1="20" y2="26.122" gradientUnits="userSpaceOnUse" xlink:href="#a"/><linearGradient id="c" x1="13.076" x2="19.142" y1="32.974" y2="43.481" gradientUnits="userSpaceOnUse" xlink:href="#a"/></defs><path d="m24 4.5-17.5 9.75v19.5l17.5 9.75 17.5-9.75v-19.5l-17.5-9.75z" fill="url(#f)"/><path d="m6 14v20l18 10v-20z" fill="url(#h)"/><path d="m18.322 23.238-0.25977 6.1172-3.209 0.29688-1.9062 1.6855 3.6973 3.6973-2.8555-0.63476-0.35156 0.46094-0.52539 0.87109 4.7422 4.7422 6.3457 3.5254v-1.6094-0.19531-13.279l-5.6777-5.6777z" fill="url(#c)" opacity=".4"/><path d="m12.736 20.975-4.7559 0.85547 16.02 16.02v-6.8398l-11.264-10.035z" fill="url(#d)" opacity=".4"/><path transform="matrix(.73773 0 0 .70988 16.948 -1.4114)" d="m9.5593 7.6229 24.399 14.087-24.399 14.087-24.399-14.087z" fill="url(#i)"/><path d="m42 14v20l-18 10v-20z" fill="url(#g)"/><path d="m6 33v1l18 10 18-10v-1l-18 10-18-10z" fill="#000" opacity=".15"/><path d="m14.949 20.728c-1.9242-1.1109-3.7228-1.6483-4.9927-1.4447-1.2699 0.20645-1.95 1.1481-1.9563 2.573l3.9604 2.2865c0.0034-0.77373 0.32015-1.0934 0.7875-1.1701 0.46735-0.07598 1.1455 0.08189 2.1901 0.68501 1.0446 0.60312 1.7207 1.2271 2.185 1.8409 0.46428 0.61385 0.77651 1.2974 0.77307 2.0711-3e-3 0.67191-0.18312 0.85476-0.42305 0.97002-0.23993 0.11526-0.63212 0.12895-1.2152 0.09495-0.58312-0.03399-1.3581-0.13273-2.0753 0.07219-0.71719 0.20493-1.255 0.83192-1.2596 1.8703 0 0-0.0033 0.73286-0.0033 0.73286l3.9604 2.2865s0.0033-0.73286 0.0033-0.73286c0.0019-0.42738 0.08478-0.45215 0.29885-0.51332 0.21407-0.06117 0.68099-0.04035 1.337-0.0017 0.656 0.03869 1.5041 0.07902 2.1963-0.25467 0.69215-0.3337 1.1359-1.0768 1.141-2.2385 0.0063-1.4248-0.66286-3.1455-1.9235-4.813-1.2616-1.668-3.0558-3.2021-4.98-4.313m-2.034 12.052-0.01305 2.9314 3.9604 2.2865 0.01305-2.9314-3.9604-2.2865" fill="url(#e)" stroke-linejoin="round" stroke-width="2"/></svg>
