<?xml version="1.0" encoding="UTF-8"?>
<svg version="1.1" viewBox="0 0 48 48" xmlns="http://www.w3.org/2000/svg" xmlns:xlink="http://www.w3.org/1999/xlink"><defs><linearGradient id="a"><stop stop-color="#cb2525" offset="0"/><stop stop-color="#e05e4c" offset="1"/></linearGradient><linearGradient id="b"><stop stop-color="#ffa92d" offset="0"/><stop stop-color="#ffc169" offset="1"/></linearGradient><linearGradient id="c"><stop stop-color="#375a7d" offset="0"/><stop stop-color="#54a3d8" offset="1"/></linearGradient><linearGradient id="m" x1="-44" x2="-32" y1="10" y2="10" gradientUnits="userSpaceOnUse" xlink:href="#a"/><linearGradient id="l" x1="-44" x2="-32" y1="24" y2="24" gradientUnits="userSpaceOnUse" xlink:href="#c"/><linearGradient id="k" x1="-44" x2="-32" y1="38" y2="38" gradientUnits="userSpaceOnUse" xlink:href="#b"/><linearGradient id="j" x1="-30" x2="-18" y1="10" y2="10" gradientUnits="userSpaceOnUse" xlink:href="#c"/><linearGradient id="i" x1="-30" x2="-18" y1="24" y2="24" gradientUnits="userSpaceOnUse" xlink:href="#b"/><linearGradient id="h" x1="-30" x2="-18" y1="38" y2="38" gradientUnits="userSpaceOnUse" xlink:href="#a"/><linearGradient id="g" x1="-16" x2="-4" y1="10" y2="10" gradientUnits="userSpaceOnUse" xlink:href="#c"/><linearGradient id="f" x1="-16" x2="-4" y1="24" y2="24" gradientUnits="userSpaceOnUse" xlink:href="#a"/><linearGradient id="e" x1="-16" x2="-4" y1="38" y2="38" gradientUnits="userSpaceOnUse" xlink:href="#b"/><linearGradient id="d" x1="18.577" x2="38.551" y1="18.216" y2="38.959" gradientUnits="userSpaceOnUse"><stop offset="0"/><stop stop-opacity="0" offset="1"/></linearGradient></defs><rect x="4.5" y="4.5" width="39" height="39" rx="1.258" ry="1.182" fill="#33393e"/><rect transform="rotate(-90)" x="-16" y="18" width="12" height="12" rx="1" ry="1" fill="url(#f)" stroke-miterlimit="4" stroke-width="0"/><rect transform="rotate(-90)" x="-16" y="32" width="12" height="12" rx="1" ry="1" fill="url(#e)" stroke-miterlimit="4" stroke-width="0"/><rect transform="rotate(-90)" x="-16" y="4" width="12" height="12" rx="1" ry="1" fill="url(#g)" stroke-miterlimit="4" stroke-width="0"/><rect transform="rotate(-90)" x="-30" y="32" width="12" height="12" rx="1" ry="1" fill="url(#h)" stroke-miterlimit="4" stroke-width="0"/><rect transform="rotate(-90)" x="-30" y="4" width="12" height="12" rx="1" ry="1" fill="url(#j)" stroke-miterlimit="4" stroke-width="0"/><rect transform="rotate(-90)" x="-44" y="4" width="12" height="12" rx="1" ry="1" fill="url(#m)" stroke-miterlimit="4" stroke-width="0"/><rect transform="rotate(-90)" x="-44" y="32" width="12" height="12" rx="1" ry="1" fill="url(#k)" stroke-miterlimit="4" stroke-width="0"/><rect transform="rotate(-90)" x="-44" y="18" width="12" height="12" rx="1" ry="1" fill="url(#l)" stroke-miterlimit="4" stroke-width="0"/><path d="m29.732 18.314-5.0352 2.2852-5.5527 4.7539-0.87695 4.332 14.314 14.314h11.418v-11.418l-14.268-14.268z" fill="url(#d)" opacity=".3"/><rect transform="rotate(-90)" x="-30" y="18" width="12" height="12" rx="1" ry="1" fill="url(#i)" stroke-miterlimit="4" stroke-width="0"/></svg>
