<?xml version="1.0" encoding="UTF-8"?>
<svg id="h" viewBox="0 0 744.09 1052.4" xmlns="http://www.w3.org/2000/svg" xmlns:xlink="http://www.w3.org/1999/xlink"><defs id="i"><filter id="g"><feGaussianBlur id="j" stdDeviation="0.11739613"/></filter><linearGradient id="e" x1="42.942" x2="45.455" y1="14.576" y2="21.491" gradientTransform="matrix(.65455 -.12612 .099878 .54305 15.222 14.677)" gradientUnits="userSpaceOnUse"><stop id="k" stop-color="#ffffbf" offset="0"/><stop id="l" stop-color="#ff0" stop-opacity="0" offset="1"/></linearGradient><filter id="f"><feGaussianBlur id="m" stdDeviation="0.16551152"/></filter><radialGradient id="a" cx="49.239" cy="22.437" r="4.967" gradientTransform="matrix(.89305 0 0 .77309 5.4705 4.9175)" gradientUnits="userSpaceOnUse"><stop id="n" stop-color="#ff0" offset="0"/><stop id="o" stop-color="#ff0" stop-opacity="0" offset="1"/></radialGradient><radialGradient id="b" cx="49.015" cy="23.061" r="5.6873" gradientTransform="matrix(.43578 .7523 -.86531 .50124 48.245 -25.881)" gradientUnits="userSpaceOnUse"><stop id="p" stop-color="#ffd500" offset="0"/><stop id="q" stop-color="#c36e07" offset=".47887"/><stop id="r" stop-color="#b35910" offset=".69907"/><stop id="s" stop-color="#ac4311" offset="1"/></radialGradient><linearGradient id="d" x1="36.617" x2="46.906" y1="18.616" y2="39.708" gradientTransform="translate(-10.552 18.771)" gradientUnits="userSpaceOnUse"><stop id="t" stop-color="#fff" offset="0"/><stop id="u" stop-color="#fff" stop-opacity="0" offset="1"/></linearGradient><linearGradient id="c" x1="45.786" x2="44.847" y1="7.9311" y2="6.9929" gradientUnits="userSpaceOnUse"><stop id="v" stop-color="#2e3436" offset="0"/><stop id="w" stop-color="#2e3436" stop-opacity="0" offset="1"/></linearGradient></defs><g id="x"><g id="y" transform="translate(-4.8936 -3.5214)" fill-rule="nonzero"><rect id="z" x="30.518" y="21.491" width="34.557" height="25.581" rx=".01018" ry=".0235" fill="#00438a"/><path id="aa" d="m47.946 22c-1.2003 0.11256-2.4093 0.16817-3.5938 0.40625-1.0254 0.11097-2.2137-0.20448-3.0418 0.59752-0.57572 0.40012-1.2089 0.71806-1.8957 0.87124 0.009703 0.26907 0.25958 0.68754-0.125 0.8125-0.021363 0.15899-0.57276 0.21951-0.28125 0.03125 0.328-0.21236 0.2962-0.90398-0.21875-0.71875-0.20983-0.049662-0.33968 0.24526-0.28125 0.28125-0.11021 0.17352 0.091762-0.44318-0.1253 0.12551-0.49962 0.82972-0.3494 1.9127 0.1878 2.687-0.03067 0.33018-0.56463 0.38064-0.5 0.75 0.32154-0.16942 0.095877 0.52429 0.40625 0.375 0.13304-0.048514 0.3462 0.19695 0.40625-0.03125 0.00772 0.37653 0.57077-0.053611 0.21875-0.15625 0.23072-0.14846 0.14135-0.5488-0.125-0.59375 0.72378-0.5879 1.3119-1.3732 2.1875-1.75 0.97439-0.40675 2.0311-0.027368 3.0312 0.0625 0.28125 0.03125 0.5625 0.0625 0.84375 0.09375-0.34891 0.17816 0.37484 0.5094 0.34375 0.125 0.19551-0.026264 0.13768 0.4216-0.0625 0.25 0.021476 0.21362-0.41759-0.080776-0.34375 0.21875 0.15302 0.25689 0.49696 0.27724 0.75 0.375-0.082461 0.13931-0.20642 0.54973 0.09375 0.5 0.41754 0.40978 0.52049 1.0244 0.84375 1.5-0.22191 0.054936 0.18898 0.49456-0.125 0.4375-0.55648 0.83309-1.8364 1.2424-2.6562 0.5625-0.8282-0.36393-1.7211 0.026971-2.5844-0.0625-1.0433-0.00516-2.0675-0.22143-3.1031-0.3125-1.0947 0.05398-2.0646 0.62997-3.125 0.84375-0.7598 0.10631-1.5025 0.41906-2.125 0.8125-0.30435-0.45264-0.73657 0.12441-0.78125 0.46875-0.13558 0.36589-0.63919 0.423-0.625 0.875 0.00729 0.48131-0.72366 0.085568-0.6875 0.59375-0.10888 0.2718 0.057679 0.5971 0.0625 0.8125-0.4157-0.10633 0.11 0.59072 0.1875 0.1875 0.24504 0.15846-0.021369 0.53019-0.25 0.40625 0.13202 0.35986 0.41679-0.27048 0.59375 0-0.2676 0.14165 0.14621 0.48817 0.28125 0.28125 0.23329 0.041502 0.17177 0.59586 0.5 0.40625 1.0907-0.218 2.1739-0.4686 3.25-0.75 0.027586-0.1661 0.46631-0.18643 0.3125 0.03125 0.031935 0.22732 0.47318 0.062136 0.25-0.09375-0.044663-0.18676 0.35929-0.15673 0.1875 0.03125 0.23374-0.039332-0.1139-0.51774 0.21875-0.375 0.06192 0.062944-0.004159 0.43756 0.125 0.1875 0.11421-0.073921 0.48276 0.057644 0.375-0.1875 0.11322-0.10872 0.19242 0.090257 0.3125 0.03125-0.22824 0.1231-0.006032 0.53661 0.21875 0.375 0.15557 0.12059 0.45523-0.12404 0.28125-0.28125-0.018615 0.22353-0.4107 0.013817-0.15625-0.0625-0.25136-0.26728 0.43722-0.22675 0.25 0.03125 0.12723-0.14019 0.35157 0.20966 0.09375 0.125-0.21984 0.10254-0.046651 0.6078 0.15625 0.375 0.15096 0.2175 0.69404 7.02e-4 0.65625 0.375-0.20286 0.024838-0.25408 0.33466-0.0625 0.40625-0.18756-0.067092-0.48245 0.14379-0.34375 0.34375-0.20675 0.11739-0.60774-0.37882-0.65625 0.0625 0.014306 0.30851 0.63846 0.37317 0.375 0.71875-0.14084-0.009787-0.22782 0.18053-0.09375 0.25-0.16137 0.15229-0.38214-0.18982-0.15625-0.25 0.049844-0.15678-0.13839-0.4483-0.28125-0.25 0.28274 0.18596-0.18297 0.46843-0.3125 0.21875-0.84943 0.69601-1.8316 1.2-2.7188 1.8438-0.81772 0.35093-1.2177 1.4317-0.78125 2.2188 0.13432-0.1588 0.45003 0.19526 0.15625 0.15625-0.064989 0.23931 0.26441 0.47078 0.0625 0.6875 0.24761-0.2459 0.67809-0.56521 1-0.25 1.0049 0.24577 1.9321 0.71271 2.875 1.125 0.16919-0.01361 0.56187 0.20636 0.3125 0.375 0.13722 0.14854 0.27014 0.49411 0.53125 0.34375 0.033192 0.22264 0.46838 0.003746 0.25-0.125 0.3008-0.33507 0.81428-0.080372 1 0.25 0.24729-0.29924 0.78158 0.31281 0.3125 0.375-0.15538 0.39878 0.63672 0.54001 0.71875 0.15625-0.48534 0.085911-0.14427-0.85437 0.1875-0.5-0.19023 0.16186 0.30836 0.4443 0.1875 0.15625 0.030871-0.17689 0.38892-0.17869 0.34375 0.03125 0.28556 0.054968 0.40163 0.55127 0.75 0.375 0.28675 0.058642 0.3435 0.41216 0.59375 0.53125-0.19763 0.2747 0.20818-0.15564 0.21875 0.0625 0.59031 0.046567 1.066 0.6276 1.6875 0.46875 0.89833 0.33276 1.9693 0.28352 2.7812-0.25 1.0832-0.76441 2.0119-1.714 2.9688-2.625 0.063007-0.10276 0.39192-0.39633 0.09375-0.4375-0.12988-0.079258-0.28847-0.34298-0.46875-0.21875 0.054209-0.3023-0.59808-0.20604-0.4375-0.53125 0.41946 0.29736 0.43271-0.79745 0-0.46875-0.20893 0.071277-0.32337 0.54885-0.59375 0.3125-0.44397 0.37806-0.85452-0.47207-1.3125-0.1875-0.37337-0.27503-0.3176 0.58918-0.6875 0.40625 0.13492 0.31507-0.35102 0.34919-0.53125 0.21875 0.12985 0.12282-0.092874 0.39281-0.15625 0.15625-0.059075 0.084656 0.012435 0.30996-0.15625 0.28125 0.29339-0.24139-0.42372-0.37991-0.25-0.0625-0.066593 0.3804-0.68002 0.16021-0.6875 0.5625-0.20114 0.060415-0.32039-0.24117-0.1875-0.375-0.17733-0.005303-0.13373-0.35559 0.03125-0.21875 0.31963-0.68671 0.73003-1.3242 1.125-1.9688 0.10973 0.26089 0.44283-0.30708 0.40625 0.03125 0.23464-0.431 0.65833-0.9702 1.2188-0.8125-0.2813 0.14558 0.24948 0.23982 0.09375 0 0.17227-0.15351 0.49292 0.2568 0.5625-0.0625 0.069804 0.33397 0.4777 0.11338 0.65625 0 0.038072 0.17432 0.42216 0.36362 0.375 0.0625-0.3742 0.084835 0.049864-0.48314 0.09375-0.125 0.17022 0.37399 0.50437-0.43406 0.625 0.03125 0.055214 0.23278 0.50502 0.21716 0.4375-0.0625 0.38189 0.42983 1.0359-0.19416 1.4062 0.28125 0.30228 0.051903 0.57659-0.12788 0.875-0.09375-0.22582-0.20598 0.31671-0.5359 0.375-0.21875 0.14508 0.050544 0.26991-0.1753 0.40625-0.0625 0.034164-0.22853-0.32067-0.16491-0.375-0.34375-0.066261 0.036651-0.46528 0.20865-0.3125-0.03125 0.02243-0.13297 0.009269-0.37508-0.1875-0.3125-0.069564-0.18525 0.41923-0.076932 0.1875-0.25 0.18504-0.041148 0.11073-0.49125 0.34375-0.375 0.045369 0.28952-0.40328 0.77747 0.09375 0.875 0.25302 0.074417 0.2541-0.33065 0.03125-0.34375-0.18582-0.1752 0.29673-0.28816 0.15625-0.0625 0.13991 0.22913 0.50349 0.20366 0.65625 0 0.031235 0.17253 0.38551 0.23865 0.3125 0 0.61754-0.85405 1.03-1.8309 1.5938-2.7188 0.58543-0.61619 1.6649-1.3662 1.1875-2.3438-0.39018-0.50476-1.1905-0.44082-1.625-0.03125-0.99336-0.074823-1.7259-0.84968-2.6562-1.125-0.99549 0.055968-1.6604 1.0468-2.6562 1.0625-0.84984 0.12948-1.9846 0.13019-2.4375-0.75 0.18715-0.22589 0.61307 0.004624 0.875-0.15625 0.82996-0.11496 1.4936-0.64857 2.0938-1.1875 0.79044-0.22058 1.7973 0.21142 2.367-0.58665 0.72032-0.6115 1.5235-1.1265 2.323-1.629 0.55224-0.37279 1.5679-0.53214 1.8725 0.18445 0.13392 0.10366 0.40646-0.16205 0.21875-0.28125 0.22933-0.26374 0.31455 0.30315 0.53125 0.15625 0.43615 0.094584 0.11596 0.83899 0.625 0.84375 0.34837 0.22516-0.21582 0.50201-0.0625 0.78125 0.14275-0.41384 0.69874 0.099709 0.28125 0.28125-0.10338 0.76408-0.56046 1.4041-0.875 2.0938 0.069812 0.47289 0.21226 0.95368-0.067563 1.3885-0.34078 1.003-0.75667 1.9769-1.2354 2.9218-0.39867 0.89771-0.99304 1.6846-1.572 2.471 0.5174-0.25437 1.1955-0.45727 1.3438-1.0938 0.22093 0.12617 0.70533 0.11952 0.625-0.25-0.005778-0.37008 0.15828-0.85281 0.59375-0.875 0.10478-0.12811 0.38483-0.44931 0.0625-0.5-0.1044-0.2547 0.4279-0.48531 0.40625-0.15625 0.23904 0.31591 0.6649 0.003909 0.6875-0.3125 0.62407-0.37172 1.4474 0.51926 1.0625 1.125-0.050013 1.0552-0.295 2.0862-0.46875 3.125-0.24328 1.0446-0.544 2.0822-0.625 3.1562-0.15947 0.37684-0.65308 0.80216-0.3125 1.2188 0.52898-0.90142 1.1189-1.7701 1.5625-2.7188 0.26886-0.46988 0.61765-1.0418 0.375-1.5938 0.46588 0.10391 0.33948-0.9132 0.84375-0.59375 0.020088-0.19698 0.083357-0.4103 0.28125-0.5 0.05705-0.18426-0.11857-0.50703 0.125-0.59375 0.003664-0.29952-0.26418-0.68598 0.0625-0.90625 0.30429-0.84222 0.34706-1.9835 1.2885-2.3943 0.86117-0.12611 1.5686-1.079 1.149-1.9182-0.1131-0.40647-0.66338-0.45884-0.8125-0.84375 0.77727-0.40109 0.68082-1.6679-0.15625-1.9375-0.18507-0.16447-0.44258-0.42721-0.25-0.6875 0.063607-0.93413 0.31323-1.8468 0.375-2.7812 0.14428-1.0215-0.72433-1.8851-0.5-2.9062 0.16762-0.5582-0.34107-1.0771-0.90065-1.0182-0.83958-0.033438-1.656-0.26002-2.4047-0.60561-0.91991-0.1348-1.8243 0.2461-2.7478 0.1863-2.3835-0.032313-4.7609-0.22988-7.1344-0.4375-0.74937-0.027076-1.5015-0.060973-2.25 0zm-8.1562 2.1562c0.079465 0.17171-0.17171-0.079465 0 0zm5.5625 1.0938c0.23483 0.1142-0.25671 0.42064-0.1875 0.125 0.10306 0.003718 0.069347-0.17319 0.1875-0.125zm0.125 0.375c0.043707 0.15569-0.12414-0.006077 0 0zm-0.15625 0.09375c0.22745 0.06706-0.23488 0.17803-0.0625 0h0.0625zm0.5625 1.4375c0.12984 0.1776-0.20851-0.025097 0 0zm0.34375 0.09375c0.043668 0.096908 0.31514-0.056804 0.125 0.125 0.19546-0.07416 0.014235 0.33804-0.03125 0.125-0.076677 0.24975-0.47095-0.44419-0.09375-0.25zm0.46875 0.25c0.005516 0.21428-0.20211 0.51019-0.4375 0.375 0.29145 0.10867 0.13897-0.62897 0.4375-0.375zm-8.1875-0.03125c0.34682 0.081447-0.093124 0.59907-0.125 0.1875-0.085029-0.064574 0.04072-0.22427 0.125-0.1875zm0.59375 0.25c0.060744 0.24923-0.24962-0.028235 0 0zm6.9688 0.125c0.088398 0.1535 0.088398-0.1535 0 0zm-6.6875 0.5c0.18364 0.10697 0.23987 0.50664 0.5 0.40625-0.21361-0.10091-0.18366-0.58316-0.5-0.40625zm7.2812 0c0.33399-0.064775-0.15852 0.42774-0.09375 0.09375l0.0625-0.09375h0.03125zm-6.7188 0.28125c-0.053651 0.19769 0.16432-0.15305 0 0zm6.8125 0.0625c-0.044257 0.16462-0.12105-0.016409 0 0zm-15.688 4.25c0.21012-0.039039 0.024486 0.3174-0.03125 0.0625v-0.0625h0.03125zm0.3125 1.125c0.22927-0.013093-0.21589 0.17106-0.0625 0h0.0625zm6.7812 0.15625c0.079465 0.17171-0.17171-0.079465 0 0zm0 0.1875c0.12984 0.1776-0.20851-0.025097 0 0zm-0.28125 0.34375 0.0625 0.125 0.09375-0.15625-0.15625 0.03125zm-0.3125 0.15625c-0.016879 0.13134 0.29263 0.15471 0.125 0.03125 0.064397-0.12307-0.114-0.031685-0.125-0.03125zm21.094 0.4375c0.27558-0.021468-0.20792 0.32216-0.03125 0.03125v-0.03125h0.03125zm-18.312 0.5625c0.13933 0.24501-0.36281-0.25179 0 0zm18.188 0.21875v-0.125h-0.03125l0.03125 0.125zm-17.781-0.0625c0.34354 0.15942-0.34944 0.091952-0.0625-0.03125l0.0625 0.03125zm13.469 0.96875c0.38652 0.16376-0.41487 0.53875-0.21875 0.125 0.050475-0.058741 0.12638-0.14942 0.21875-0.125zm-0.40625 0.125c-0.088398 0.1535-0.088398-0.1535 0 0zm8.5938 0.09375c0.17171 0.079465-0.079465-0.17171 0 0zm-9.25 0.46875c0.1405 0.17407-0.22553-0.020262 0 0zm0.875 0.1875c-0.17821 0.12699 0.29261 0.23666 0.0625 0.0625 0.087563-0.032859-0.027438-0.15676-0.0625-0.0625zm-4.6562 2.0312c-0.39247 0.13441 0.33924 0.55337 0.21875 0.125-0.021304-0.074092-0.17001-0.30316-0.21875-0.125zm-0.59375 0.375 0.125 0.09375 0.0625-0.15625h-0.0625l-0.125 0.0625zm-14.531 0.1875c0.25725 0.10663-0.3115 0.33674-0.15625 0.0625l0.0625-0.0625h0.09375zm0.25 0.03125c0.12984 0.1776-0.20851-0.025097 0 0zm12 0.375c0.051849 0.11828 0.35066-0.11415 0.0625-0.03125l-0.0625 0.03125zm3.8438 0.03125c-0.060694 0.31996 0.35121-0.091944 0.03125-0.03125l-0.03125 0.03125zm1.5938 0.15625c-0.069909 0.19673 0.42483 0.067366 0.15625 0l-0.125-0.03125-0.03125 0.03125zm-17.594 0.0625c-0.3386 0.029932 0.079465 0.60737 0.1875 0.25l-0.09375-0.15625c-0.014499-0.11539 0.23824 0.13142 0.09375-0.09375-0.035315-0.075841-0.14094-0.010132-0.1875 0zm18.062 0.0625c-0.28687 0.23307 0.39057 0.38201 0.21875 0.0625 0.044742-0.12398-0.16571-0.11601-0.21875-0.0625zm-5.4375 0.125c0.28945 0.07733-0.28474 0.16714-0.03125 0h0.03125zm-1.875 0.125c0.079465 0.17171-0.17171-0.079465 0 0zm6.8125 0.03125c-0.1033 0.2724 0.47103 0.10052 0.125 0.03125-0.033798-0.033434-0.084077-0.11011-0.125-0.03125zm0.5 0.03125c-0.16127 0.19369 0.29327 0.006332 0.03125-0.03125l-0.03125 0.03125zm0.21875 0.28125c0.019937 0.20992-0.45423 0.28182-0.375 0-0.57035 0.015144 0.068168 1.0343 0.34375 0.5 0.20997-0.13196 0.26993-0.45861 0.03125-0.59375v0.09375zm-7.4062 0.21875c0.10868 0.10879-0.014467 0.38862-0.09375 0.15625-0.24936 0.062016 0.046035-0.25061 0.09375-0.15625zm7.9375 0.0625 0.09375 0.0625v-0.09375l-0.09375 0.03125zm-0.3125 0.21875 0.125-0.0625h-0.125v0.0625zm-1.1562 0.3125c-0.25279 0.34636 0.40897 0.62384 0.59375 0.3125-0.25372 0.064681-0.29666-0.60055-0.59375-0.3125zm1 0.0625c-0.18536 0.030729 0.018878 0.44825 0.09375 0.1875-0.10365 0.035359 0.058884-0.34745-0.09375-0.1875zm-11.438 0.28125v0.125c-0.014795-0.010396-0.079841-0.15438 0-0.125zm11.25 0.09375v0.125c0.068636 0.043874 0.035362-0.33076 0-0.125zm-12.75 0.09375 0.03125 0.125v-0.15625h-0.03125v0.03125zm0.03125 0.125c0.15613 0.343 0.18811-0.25785 0 0zm1.0312-0.0625c0.086854 0.15212 0.1618-0.23576 0 0zm0.21875 0.09375c0.21887 0.015172-0.21994-0.086529 0 0zm-0.0625 0.15625v0.18281c0.24479 0.20845 0.1696-0.31307 0-0.18281zm10.156 0.25c-0.29592 0.24035 0.45028 0.31305 0.15625 0.03125 0.058965-0.12764-0.13202-0.0372-0.15625-0.03125zm-10.406 0.1875c-0.1659 0.19242 0.29547 0.032714 0.03125 0.03125 0.10419-0.038526-0.079956-0.18015-0.03125-0.03125zm10 0.09375c-0.14068 0.13626 0.11753 0.56168 0.1875 0.25 0.024082-0.098443-0.04555-0.45374-0.1875-0.25zm-0.5625 0.71875c0.23574-0.02589 0.30377-0.26729 0.40625-0.4375-0.13542 0.14583-0.27083 0.29167-0.40625 0.4375zm8.8125-0.34375c-0.14658 0.10101 0.25963 0.15243 0.09375 0l-0.0625-0.03125-0.03125 0.03125zm0.59375 0.5c-0.059065-0.19461-0.19654-0.46416-0.4375-0.4375l0.4375 0.4375zm-0.71875-0.125c-0.31028-0.010361 0.10424 0.45509 0.125 0.15625 0.040608-0.0727 0.42766-0.17922 0.125-0.1875h-0.125l-0.125 0.03125zm-0.1875 0.4375c-0.23353 0.07709 0.23353 0.36041 0 0.4375 0.25818 0.04187 0.090537-0.31155 0.1875-0.4375l-0.09375-0.03125-0.09375 0.03125zm0.34375 0.5c-0.10543-0.026652-0.37043 0.04061-0.25 0.1875-0.19703-0.045466-0.35836 0.070376-0.5 0.1875 0.23958-0.0625 0.47917-0.125 0.71875-0.1875-0.11454 0.2752 0.55455 0.24614 0.28125 0-0.087649-0.021732-0.16398-0.40408-0.25-0.1875zm-0.84375 0.4375c-0.081747 0.14522 0.36842 0.16883 0.09375 0.0625-0.078599-0.010198 0.027932-0.17572-0.09375-0.0625zm0.8125 0.125c-0.10631 0.34501 0.60117 0.13541 0.21875-0.03125h-0.0625l-0.15625 0.03125z" fill="#fff" opacity=".3"/><path id="ab" transform="translate(10.552 -18.771)" d="m38.281 40.75-3.5312 3.75h0.03125c0.17059 0.050295-0.047104 0.10325-0.09375 0.0625l-0.21875 0.25c0.12412 0.10675 0.39443 0.17775 0.375-0.0625 0.19551-0.026264 0.13768 0.4216-0.0625 0.25 0.021477 0.21362-0.41759-0.080776-0.34375 0.21875 0.15302 0.25689 0.49696 0.27724 0.75 0.375-0.08246 0.13931-0.20642 0.54973 0.09375 0.5 0.093665 0.091924 0.15071 0.20384 0.21875 0.3125l0.125-0.125c-0.11679-0.10949-0.19821-0.38422 0.0625-0.25 0.027293 0.060568 0.1193 0.02338 0.15625 0.03125h0.03125l4.9375-5.1875c-0.38545-0.032505-0.77101-0.060052-1.1562-0.09375-0.45789-0.016544-0.91651-0.032811-1.375-0.03125zm-2.0312 0.125c-0.8191 0.068514-1.6307 0.15032-2.4375 0.3125-0.72636 0.078605-1.5461-0.074387-2.25 0.125l-2.3125 4.125c0.41088-0.39053 0.84817-0.74203 1.375-0.96875 0.88531-0.36956 1.8329-0.090332 2.75 0.03125l2.875-3.625zm5.7812 0.09375-5.9375 6.1562h0.03125c0.33399-0.064775-0.15852 0.42774-0.09375 0.09375l0.0625-0.09375-0.15625 0.125c0.0566 0.11738 0.11464 0.23655 0.1875 0.34375-0.22191 0.054936 0.18898 0.49456-0.125 0.4375-0.35931 0.53792-1.0436 0.90082-1.6875 0.90625l-10.625 10.938c0.22388-0.14242 0.50541-0.2089 0.71875 0 0.21819 0.053363 0.41318 0.11611 0.625 0.1875l21.594-18.844c-1.5366-0.025453-3.0616-0.13157-4.5938-0.25zm8.0312 0.25-9.3438 7.75c0.79044-0.22058 1.774 0.20432 2.3438-0.59375 0.20291-0.17226 0.44212-0.30993 0.65625-0.46875l6.8438-6.5c-0.17219-0.04818-0.33267-0.12597-0.5-0.1875zm-15.188 3.1875c0.002405-0.011878 0.031464-0.001519 0.0625 0 0.032781 0.11677-0.069714 0.035635-0.0625 0zm0.375 1.5312c-3.7e-4 -0.012698 0.041623-0.006274 0.09375 0 0.097382 0.1332-0.09264 0.038095-0.09375 0zm-6.5625 0.53125-0.34375 0.59375c0.10813 0.16851 0.52676-0.16019 0.21875-0.25 0.11536-0.074231 0.1518-0.21949 0.125-0.34375zm0.3125 0.625c-0.045016-0.021909-0.077164-0.012979-0.15625 0.03125 0.18364 0.10697 0.23987 0.50664 0.5 0.40625-0.1602-0.075684-0.2087-0.37177-0.34375-0.4375zm0.40625 0.3125c-0.026826 0.098847 0.004004 0.043842 0.03125 0-0.007443 0.005886-0.02098-0.009565-0.03125 0zm6.75 0.0625c0.009132-0.012092 0.032238-0.004102 0.0625 0-0.008298 0.030866-0.053433 0.021107-0.0625 0.03125-0.004799-0.011314-0.009132-0.019158 0-0.03125zm-8.4375 0.75-2.7188 4.8438c0.12782-0.065587 0.36536-0.038257 0.25 0.125 0.031934 0.22732 0.47318 0.062136 0.25-0.09375-0.044664-0.18676 0.35929-0.15673 0.1875 0.03125 0.23374-0.039332-0.1139-0.51774 0.21875-0.375 0.061919 0.062944-0.004159 0.43756 0.125 0.1875 0.1142-0.073921 0.48276 0.057644 0.375-0.1875 0.11322-0.10872 0.19242 0.090257 0.3125 0.03125l3.4375-4.2812c-0.81968-0.057787-1.6194-0.20541-2.4375-0.28125zm4.3438 0.21875c-0.37257 0.035186-0.75343 0.10538-1.125 0.09375l-3.9062 4.125c0.10365-0.06444 0.41266 0.006402 0.28125 0.1875 0.12722-0.14019 0.35157 0.20966 0.09375 0.125-0.21984 0.10254-0.046651 0.6078 0.15625 0.375 0.15096 0.2175 0.69404 7.02e-4 0.65625 0.375-0.19475 0.023845-0.25916 0.32003-0.09375 0.40625 0.006892 0.003592 0.023587-0.002864 0.03125 0l5.25-5.5c-0.0201-0.015014-0.042909-0.015001-0.0625-0.03125-0.4141-0.18197-0.84659-0.1973-1.2812-0.15625zm-3.9375 5.6875c-0.1871-0.038016-0.44427 0.15378-0.3125 0.34375l0.3125-0.34375zm-0.3125 0.34375c-0.20675 0.11739-0.60774-0.37882-0.65625 0.0625 0.007153 0.15426 0.15636 0.24582 0.28125 0.34375l0.375-0.40625zm10.531-3.5625-11.812 9.75c0.24762 0.11102 0.5019 0.23527 0.75 0.34375 0.16919-0.01361 0.56187 0.20636 0.3125 0.375 0.13722 0.14854 0.27014 0.49411 0.53125 0.34375 0.033191 0.22264 0.46838 0.003746 0.25-0.125 0.24556-0.27354 0.60874-0.17037 0.84375 0.0625l11.219-10.625c-0.084749 0.015816-0.16037 0.029839-0.25 0.03125-0.57725 0.087951-1.3066 0.11033-1.8438-0.15625zm-11.344 1.7812-0.34375 0.34375c0.004203 0.010039-0.0053 0.021773 0 0.03125 0.05512 0.098563 0.16886 0.17455 0.28125 0.09375 0.15557 0.12059 0.45523-0.12404 0.28125-0.28125-0.018616 0.22353-0.4107 0.013817-0.15625-0.0625-0.04713-0.050114-0.069491-0.095933-0.0625-0.125zm0.5625 0.28125c0.001841-0.00969 0.019572 0.011384 0.0625 0.03125 0.059598 0.12878-0.068022-0.00218-0.0625-0.03125zm-0.03125 0.21875c-3.7e-4 -0.012698 0.041623-0.006274 0.09375 0 0.09738 0.1332-0.09264 0.038095-0.09375 0zm-0.03125 0.3125-0.15625 0.03125 0.0625 0.125 0.09375-0.15625zm-0.375 0.15625c-0.037924 0.007517-0.08825 0.031033-0.09375 0.03125-0.01688 0.13134 0.29263 0.15471 0.125 0.03125 0.032198-0.061534 0.006674-0.070017-0.03125-0.0625zm2.5312 0.9375c0.006122-0.007339 0.065547 0.030803 0.15625 0.09375 0.1045 0.18376-0.17462-0.071733-0.15625-0.09375zm0.5 0.21875 0.0625 0.03125c0.34354 0.15942-0.34944 0.091952-0.0625-0.03125zm-3.0625 0.125c-0.036958-0.001894-0.058035 0.012925-0.09375 0.0625 0.28274 0.18596-0.18297 0.46843-0.3125 0.21875-0.84943 0.69601-1.8316 1.2-2.7188 1.8438-0.81772 0.35093-1.2177 1.4317-0.78125 2.2188 0.010074-0.01191 0.019469-0.024728 0.03125-0.03125l4.0312-4.1875c-0.031605-0.076995-0.092683-0.12174-0.15625-0.125zm-3.1875 4.9688c-0.036641 0.008214-0.070471 0.026184-0.09375 0.03125-0.3386 0.029932 0.079465 0.60737 0.1875 0.25l-0.09375-0.15625c-0.00725-0.057697 0.050439-0.050384 0.09375-0.03125-0.006041-0.015352 0.021674-0.028724 0-0.0625-0.017658-0.03792-0.057109-0.039464-0.09375-0.03125z" fill="url(#d)"/></g><g id="ac" transform="matrix(1.3392 0 0 1.3395 -57.869 -21.018)"><path id="ad" transform="translate(1.4262 2.1971)" d="m53.125 19.521a5.4373 5.4373 0 1 1-10.875 0 5.4373 5.4373 0 1 1 10.875 0z" fill="url(#b)" opacity=".93782" stroke="#4d2600" stroke-linecap="round" stroke-linejoin="round" stroke-miterlimit="4" stroke-opacity=".5989" stroke-width=".22399"/><path id="ae" d="m52.714 18.424c0.25464 0.57185 0.39723 1.1877 0.39723 1.8537-1e-6 2.5435-2.0644 4.6079-4.6079 4.6079-1.3973 0-2.6504-0.60576-3.4956-1.5889 0.6998 1.6536 2.356 2.8071 4.2636 2.8071 2.5435 0 4.6079-2.0644 4.6079-4.6079 0-1.1752-0.44023-2.2577-1.1652-3.0719z" fill="url(#a)" filter="url(#f)" opacity=".67876"/><path id="af" d="m49.153 16.393c-1.5732 0-2.9972 0.68059-3.9903 1.7498-0.008268 0.014606-0.015325 0.031958-0.023336 0.046661-0.29705 0.54522-0.41577 1.1385-0.30336 1.7498 0.29977 1.6299 2.1191 2.6649 4.0837 2.2864 0.6437-0.12402 1.228-0.39785 1.7035-0.74656-0.97679-0.36876-1.711-1.1021-1.8902-2.0764-0.20052-1.0903 0.36379-2.2005 1.3301-2.9163-0.29585-0.049903-0.6001-0.093321-0.91008-0.093321z" fill="url(#e)" filter="url(#g)" opacity=".53723"/></g><g id="ag" transform="translate(13.217 22.432)" fill="#fff" fill-opacity=".19608" fill-rule="nonzero"><rect id="ah" x="17.584" y=".45096" width="16" height="16"/><rect id="ai" x="17.584" y=".45096" width="16" height="16"/><rect id="aj" transform="matrix(.70711 .70711 -.70711 .70711 0 0)" x="18.467" y="-17.714" width="11.199" height="11.199"/><rect id="ak" transform="matrix(.70711 .70711 -.70711 .70711 0 0)" x="19.753" y="-17.114" width="9.4839" height="9.4839"/><rect id="al" x="18.069" y=".93597" width="14.545" height="14.545"/></g><g id="am" transform="translate(20)"><rect id="an" x="18.484" y="1.3512" width="14.199" height="14.199" fill-opacity="0"/><rect id="ao" x="19.155" y="2.0217" width="12.858" height="12.858" fill="none" stroke="#2e3436" stroke-linejoin="miter" stroke-miterlimit="4" stroke-width=".5"/><rect id="ap" x="19.155" y="2.0217" width="12.858" height="12.858" rx=".44879" ry=".44879" fill="#eeeeec" fill-rule="nonzero"/><rect id="aq" x="19.94" y="2.8071" width="11.288" height="11.288" rx=".44879" ry=".44879" fill="#fff" fill-rule="nonzero" stroke="#bfd9ff" stroke-linejoin="miter" stroke-miterlimit="4" stroke-width=".3"/><rect id="ar" x="19.94" y="2.8071" width="11.288" height="11.288" rx=".44879" ry=".44879" fill="#fff" fill-rule="nonzero"/><path id="as" transform="matrix(1.5333 0 0 1.5333 -44.027 -3.0597)" d="m46.042 7.5069a0.64304 0.64304 0 1 1-1.2861 0 0.64304 0.64304 0 1 1 1.2861 0z" fill="none" stroke="url(#c)" stroke-linejoin="miter" stroke-miterlimit="4" stroke-width=".3"/><path id="at" transform="matrix(1.5333 0 0 1.5333 -44.027 -3.0597)" d="m46.042 7.5069a0.64304 0.64304 0 1 1-1.2861 0 0.64304 0.64304 0 1 1 1.2861 0z" fill="#ff7e00" fill-rule="nonzero"/></g><g id="au"><rect id="av" x="2.9171" y="19.359" width="20.981" height="12.23" fill="none" stroke="#555753" stroke-linejoin="miter" stroke-miterlimit="4" stroke-width=".3"/><rect id="aw" x="2.9171" y="19.359" width="20.981" height="12.23" fill="#fff" fill-rule="nonzero"/></g><g id="ax" transform="translate(52.283 .028827)"><rect id="ay" x="19.629" y=".45096" width="16" height="16" fill-opacity="0"/><path id="az" d="m19.629 7.451v2h14.436 1.4436 0.1203v-1s2.23e-4 -1 0-1h-0.1203-1.4436-14.436z" fill="#ff7e00" fill-rule="evenodd"/></g><g id="ba" transform="translate(36.19 .028827)"><rect id="bb" x="19.629" y=".45096" width="16" height="16" fill-opacity="0"/><path id="bc" d="m29.503 7.451v2h5.5277 0.55277 0.046065v-1s8.5e-5 -1 0-1h-0.046065-0.55277-5.5277z" fill="#ff7e00" fill-rule="evenodd"/><path id="bd" transform="matrix(2.2572 0 0 2.2572 -54.93 -48.161)" d="m37.586 25.081a1.0098 1.0098 0 1 1-2.0196 0 1.0098 1.0098 0 1 1 2.0196 0z" fill="#ff9" fill-rule="nonzero" stroke="#ff7e00" stroke-linejoin="miter" stroke-miterlimit="4" stroke-width=".13291"/></g><g id="be" transform="matrix(-1 0 0 1 123.65 .028827)"><rect id="bf" x="19.629" y=".45096" width="16" height="16" fill-opacity="0"/><path id="bg" d="m29.503 7.451v2h5.5277 0.55277 0.046065v-1s8.5e-5 -1 0-1h-0.046065-0.55277-5.5277z" fill="#ff7e00" fill-rule="evenodd"/><path id="bh" transform="matrix(2.2572 0 0 2.2572 -54.93 -48.161)" d="m37.586 25.081a1.0098 1.0098 0 1 1-2.0196 0 1.0098 1.0098 0 1 1 2.0196 0z" fill="#ff9" fill-rule="nonzero" stroke="#ff7e00" stroke-linejoin="miter" stroke-miterlimit="4" stroke-width=".13291"/></g><g id="bi" transform="matrix(0 1 -1 0 97.115 -2.5443)"><rect id="bj" x="19.629" y=".45096" width="16" height="16" fill-opacity="0"/><path id="bk" d="m19.629 7.451v2h14.436 1.4436 0.1203v-1s2.23e-4 -1 0-1h-0.1203-1.4436-14.436z" fill="#ff7e00" fill-rule="evenodd"/></g><g id="bl" transform="matrix(0 1 -1 0 81.022 -2.5443)"><rect id="bm" x="19.629" y=".45096" width="16" height="16" fill-opacity="0"/><path id="bn" d="m29.503 7.451v2h5.5277 0.55277 0.046065v-1s8.5e-5 -1 0-1h-0.046065-0.55277-5.5277z" fill="#ff7e00" fill-rule="evenodd"/><path id="bo" transform="matrix(2.2572 0 0 2.2572 -54.93 -48.161)" d="m37.586 25.081a1.0098 1.0098 0 1 1-2.0196 0 1.0098 1.0098 0 1 1 2.0196 0z" fill="#ff9" fill-rule="nonzero" stroke="#ff7e00" stroke-linejoin="miter" stroke-miterlimit="4" stroke-width=".13291"/></g><g id="bp" transform="matrix(0 -1 -1 0 113.23 52.714)"><rect id="bq" x="19.629" y=".45096" width="16" height="16" fill-opacity="0"/><path id="br" d="m29.503 7.451v2h5.5277 0.55277 0.046065v-1s8.5e-5 -1 0-1h-0.046065-0.55277-5.5277z" fill="#ff7e00" fill-rule="evenodd"/><path id="bs" transform="matrix(2.2572 0 0 2.2572 -54.93 -48.161)" d="m37.586 25.081a1.0098 1.0098 0 1 1-2.0196 0 1.0098 1.0098 0 1 1 2.0196 0z" fill="#ff9" fill-rule="nonzero" stroke="#ff7e00" stroke-linejoin="miter" stroke-miterlimit="4" stroke-width=".13291"/></g></g></svg>
