<?xml version="1.0" encoding="UTF-8"?>
<svg version="1.1" viewBox="0 0 48 48" xmlns="http://www.w3.org/2000/svg" xmlns:xlink="http://www.w3.org/1999/xlink"><defs><linearGradient id="e" x1="24" x2="24" y1="35" y2="42" gradientTransform="matrix(.96296 0 0 1 .88889 0)" gradientUnits="userSpaceOnUse"><stop stop-color="#334545" offset="0"/><stop stop-color="#172525" offset="1"/></linearGradient><radialGradient id="a" cx="24" cy="38.5" r="10" gradientTransform="matrix(2.1006 -2.7194e-7 7.7314e-8 .85 -26.414 5.775)" gradientUnits="userSpaceOnUse"><stop stop-color="#536161" offset="0"/><stop stop-color="#595959" offset="1"/></radialGradient><linearGradient id="d" x1="-30" x2="-24.19" y1="24.095" y2="23.127" gradientTransform="matrix(1.0327 0 0 1.0327 .98008 .11793)" gradientUnits="userSpaceOnUse"><stop stop-color="#cfd5d5" offset="0"/><stop stop-color="#fcfcfc" offset="1"/></linearGradient><linearGradient id="c" x1="-44" x2="-4" y1="24" y2="24" gradientTransform="matrix(1 0 0 .975 7.5475e-8 .1)" gradientUnits="userSpaceOnUse"><stop stop-color="#997657" offset="0"/><stop stop-color="#c0e4cf" offset="1"/></linearGradient><linearGradient id="b" x1="11.139" x2="10.977" y1="10.164" y2="5.299" gradientTransform="matrix(1.0833 0 0 1.2 -1.4167 -2)" gradientUnits="userSpaceOnUse"><stop stop-color="#e05e4c" offset="0"/><stop stop-color="#e98a7e" offset="1"/></linearGradient><linearGradient id="j" x1="37" x2="37" y1="10" y2="5" gradientTransform="matrix(1.0833 0 0 1.2 -16.583 -2)" gradientUnits="userSpaceOnUse"><stop stop-color="#3b85b5" offset="0"/><stop stop-color="#77aed3" offset="1"/></linearGradient><linearGradient id="i" x1="35.572" x2="46.689" y1="1.395" y2="1.395" gradientUnits="userSpaceOnUse"><stop offset="0"/><stop stop-opacity="0" offset="1"/></linearGradient><linearGradient id="h" x1="24" x2="24" y1="16" y2="11" gradientTransform="matrix(1.0833 0 0 1.2 10.5 -9.2)" gradientUnits="userSpaceOnUse"><stop stop-color="#3bb566" offset="0"/><stop stop-color="#66cd8a" offset="1"/></linearGradient><linearGradient id="g" x1="37" x2="37" y1="10" y2="5" gradientTransform="matrix(1.0833 0 0 1.2 -16.583 4)" gradientUnits="userSpaceOnUse"><stop stop-color="#efa63d" offset="0"/><stop stop-color="#ffd393" offset="1"/></linearGradient><linearGradient id="f" x1="24" x2="24" y1="16" y2="11" gradientTransform="matrix(1.0833 0 0 1.2 10.5 -3.2)" gradientUnits="userSpaceOnUse"><stop stop-color="#8c47a9" offset="0"/><stop stop-color="#c978ec" offset="1"/></linearGradient></defs><g><rect transform="rotate(-90)" x="-44" y="4" width="40" height="39" fill="url(#c)" stroke-miterlimit="4" stroke-width="0"/><path d="m12.444 35h23.111c1.9259 2 1.9259 5 0 7h-23.111c-1.9259-2-1.9259-5 0-7z" fill="url(#e)"/><rect x="14" y="36" width="20" height="5" rx="0" ry="0" fill="url(#a)"/><path d="m17 4v6h13v-6h-13z" fill="url(#j)"/><path d="m4 4v6h13v-6h-13z" fill="url(#b)"/><path d="m17 37-1 3h1l1-3h-1zm2 0-1 3h1l1-3h-1zm2 0-1 3h1l1-3h-1z" fill="#fff" opacity=".5"/><path d="m4 43v1h39v-1h-39z" fill="#000" opacity=".15" stroke-miterlimit="4" stroke-width="0"/><path transform="matrix(.70711 .70711 -.70711 .70711 0 0)" d="m35.572 0.030235 1.1562-1.6259h22.459v5.9806h-22.426l-0.82436-1.46z" fill="url(#i)" opacity=".2"/><rect transform="rotate(-90)" x="-30" y="22" width="6" height="6" rx="9.294" ry="9.294" fill="url(#d)" stroke-miterlimit="4" stroke-width="0"/><path d="m30 4v6h13v-6h-13z" fill="url(#h)"/><path d="m17 10v6h13v-6h-13z" fill="url(#g)"/><path d="m30 10v6h13v-6h-13z" fill="url(#f)"/></g></svg>
