<?xml version="1.0" encoding="UTF-8"?>
<svg id="n" width="128" height="128" enable-background="new 0 0 128 110.117" overflow="visible" version="1.0" viewBox="0 0 128 110.12" xml:space="preserve" xmlns="http://www.w3.org/2000/svg" xmlns:xlink="http://www.w3.org/1999/xlink"><defs id="o">
	
	

		
	
			
			
			
			
			<linearGradient id="a" x1="-23" x2="146.29" y1="53.941" y2="53.941" gradientUnits="userSpaceOnUse">
				<stop id="p" stop-color="#bbb" offset="0"/>
				<stop id="q" stop-color="#eee" offset=".5"/>
				<stop id="r" stop-color="#bbb" offset="1"/>
			</linearGradient>
			
			<linearGradient id="c" x1="64.001" x2="64.001" y1="96.787" y2="10.788" gradientTransform="matrix(1.065 0 0 1.065 -4.1631 -6.2959)" gradientUnits="userSpaceOnUse">
				<stop id="s" stop-color="#323232" offset="0"/>
				<stop id="t" offset="1"/>
			</linearGradient>
			
			<linearGradient id="m" x1="65.955" x2="64.001" y1="126.28" y2="11.788" gradientTransform="matrix(1.065 0 0 1.065 -4.1631 -6.2959)" gradientUnits="userSpaceOnUse">
				<stop id="u" stop-color="#888A85" offset="0"/>
				<stop id="v" offset="1"/>
			</linearGradient>
			
			
				<radialGradient id="d" cx="-500.03" cy="429.4" r="74.371" gradientTransform="matrix(1.748 .090529 -.035466 .51026 976.85 -157.17)" gradientUnits="userSpaceOnUse">
				<stop id="w" stop-color="#fff" offset="0"/>
				<stop id="x" stop-color="#323232" offset="1"/>
			</radialGradient>
			
				
			
				
			
				
			
			
			<linearGradient id="b" x1="64.001" x2="64.001" y1="4.3555" y2="2.8053" gradientUnits="userSpaceOnUse">
				<stop id="y" stop-color="#ddd" offset="0"/>
				<stop id="z" stop-color="#fff" offset="1"/>
			</linearGradient>
			
			<linearGradient id="l" x1="64" x2="64" y1="103.79" y2="105.17" gradientTransform="matrix(1.0012 0 0 1.3571 -.15212 -37.526)" gradientUnits="userSpaceOnUse">
				<stop id="aa" stop-color="#ddd" offset="0"/>
				<stop id="ab" stop-color="#888" offset="1"/>
			</linearGradient>
			
		<linearGradient id="k" x1="64.039" x2="71.252" y1="120.83" y2="88.732" gradientTransform="matrix(1.0012 0 0 1.3571 -.15212 -37.526)" gradientUnits="userSpaceOnUse" xlink:href="#a"/><linearGradient id="j" x1="51.967" x2="51.967" y1="94.474" y2="103.03" gradientTransform="matrix(1.0012 0 0 1.3571 -.15212 -37.526)" gradientUnits="userSpaceOnUse"><stop id="ac" offset="0"/><stop id="ad" stop-opacity="0" offset="1"/></linearGradient><linearGradient id="i" x1="126.33" x2="128.41" y1="57.873" y2="57.826" gradientUnits="userSpaceOnUse" xlink:href="#b" spreadMethod="reflect"/><radialGradient id="f" cx="109.3" cy="97.198" r="1.6656" fx="109.23" fy="96.126" gradientTransform="matrix(1 0 0 6.5 0 -534.59)" gradientUnits="userSpaceOnUse"><stop id="ae" offset="0"/><stop id="af" stop-opacity="0" offset="1"/></radialGradient><linearGradient id="h" x1="16.031" x2="16.031" y1="94.908" y2="96.782" gradientUnits="userSpaceOnUse"><stop id="ag" stop-color="#b4b4ab" offset="0"/><stop id="ah" stop-color="#b4b4ab" stop-opacity="0" offset="1"/></linearGradient><radialGradient id="e" cx="-34.225" cy="96.315" r="5.5156" fx="-32.422" fy="92.539" gradientTransform="matrix(2.1019 0 0 3.2312 93.318 -201.37)" gradientUnits="userSpaceOnUse"><stop id="ai" offset="0"/><stop id="aj" stop-opacity="0" offset="1"/></radialGradient><linearGradient id="g" x1="-6.9695" x2="15.809" y1="96.778" y2="106.82" gradientUnits="userSpaceOnUse"><stop id="ak" stop-color="#fff" offset="0"/><stop id="al" stop-color="#fff" stop-opacity="0" offset="1"/></linearGradient></defs>
<path id="am" d="m5.915 0c-3.262 0-5.915 2.654-5.915 5.916v100.2c0 2.206 1.794 4 4 4h120c2.206 0 4-1.794 4-4v-100.2c0-3.262-2.654-5.916-5.916-5.916h-116.17z" fill="#323232" opacity=".15"/><path id="an" d="m5.915 1c-2.71 0-4.915 2.205-4.915 4.916v100.2c0 1.654 1.346 3 3 3h120c1.654 0 3-1.346 3-3v-100.2c0-2.711-2.205-4.916-4.916-4.916h-116.17z" fill="#323232" opacity=".2"/><path id="ao" d="m5.915 2c-2.159 0-3.915 1.756-3.915 3.916v100.2c0 1.103 0.897 2 2 2h120c1.103 0 2-0.897 2-2v-100.2c0-2.16-1.757-3.916-3.916-3.916h-116.17z" fill="#323232" opacity=".25"/><path id="ap" d="m5.915 3c-1.607 0-2.915 1.308-2.915 2.916v100.2c0 0.553 0.448 1 1 1h120c0.553 0 1-0.447 1-1v-100.2c0-1.608-1.309-2.916-2.916-2.916h-116.17z" fill="#323232" opacity=".3"/><path id="aq" d="m124 105h-120v-100.2c0-1.058 0.858-1.915 1.915-1.915h116.17c1.059 0 1.916 0.857 1.916 1.916v100.2z" fill="url(#a)"/><rect id="ar" x="5.4223" y="5.1938" width="117.16" height="91.594" fill="url(#c)"/><path id="as" d="m6.4874 6.2578v89.464h115.03v-89.464h-115.03z" fill="url(#m)"/><path id="at" transform="matrix(.96593 -.25367 .25882 .94671 -19.038 30.304)" d="m110.97 97.198a1.6656 10.826 0 1 1-3.3311 0 1.6656 10.826 0 1 1 3.3311 0z" fill="url(#f)" fill-rule="nonzero" opacity=".36475"/><path id="au" d="m7.5524 7.5497v33.321c12.224-0.60069 23.968-0.24709 35.425 0.68483 4.8012 1.2205 29.857-32.527 57.768-34.006h-93.193zm112.9 13.552c-5.2677 0.61773-10.54 1.3867-15.717 2.4635-11.378 2.3687-20.915 11.642-30.186 21.804 15.327 2.2973 30.464 4.9866 45.903 7.0389v-31.306z" enable-background="new    " fill="url(#d)" opacity=".1" nodetypes="ccccccsccc" r_cx="true" r_cy="true"/><path id="av" d="m5.915 3c-0.369 0-0.71 0.109-1.002 0.29 4.917 0.47 29.49 0.827 59.087 0.827 29.596 0 54.17-0.357 59.088-0.827-0.293-0.181-0.635-0.29-1.004-0.29h-116.17z" fill="url(#b)"/>

<g id="aw" transform="matrix(.77506 0 0 .77506 22.912 23.248)" fill-rule="nonzero"><rect id="ax" transform="matrix(.95983 .28058 -.28058 .95983 0 0)" x="126.45" y="46.102" width="4.0432" height="23.43" fill="url(#i)"/><path id="ay" transform="matrix(.98148 .21446 0 .96508 1.4299 -20.256)" d="m112.99 79.531a1.9874 0.9569 0 1 1-3.9748 0 1.9874 0.9569 0 1 1 3.9748 0z" fill="#fff"/></g><path id="az" d="m26.212 94.1v10.965h6.762c-0.69447-5.1821-3.3248-9.3697-6.762-10.965z" fill="url(#e)" fill-rule="nonzero"/><g id="ba" fill-rule="nonzero"><rect id="bb" x="7.495" y="93.867" width="18.737" height="4.3721" fill="#d3d7cf"/><rect id="bc" transform="scale(1,-1)" x="7.495" y="-103.24" width="18.737" height="4.9967" fill="#b3925d"/><rect id="bd" x="7.495" y="94.908" width="18.737" height="1.8737" fill="url(#h)"/></g><path id="be" transform="translate(0,-8.9415)" d="m7.5 102.81v1.0312 1.875 1.4688 5h18.719v-5-1.4688-1.875-1.0312h-18.719z" fill="url(#g)" fill-rule="nonzero"/><rect id="bf" x="3.975" y="99.479" width="119.98" height="5.5942" fill="url(#k)" fill-rule="nonzero"/><rect id="bg" x="3.975" y="99.479" width="119.98" height="5.5942" fill="url(#j)" fill-rule="nonzero"/><path id="bh" d="m3.8528 104.97h120.15c0-0.7505-26.896-1.3571-60.074-1.3571-33.178 0-60.074 0.60664-60.074 1.3571z" fill="url(#l)"/><path id="bi" d="m14.678 54.259c2.1736-0.43676 4.4122-0.57215 6.6233-0.75642 8.9403-0.61569 17.902-0.7961 26.858-1.0528 1.2731-0.038802 2.5462-0.077605 3.8193-0.11641l-2.7239 1.9864c-1.2266 0.005397-2.4532 0.010793-3.6797 0.01619-9.0788 0.1311-18.172 0.37351-27.207 1.3418-2.3814 0.26853-4.752 0.59362-7.0991 1.0579l3.4088-2.4767z" fill="#eeeeec" fill-rule="nonzero"/><path id="bj" d="m36.078 17.272c3.5338-1.913 1.2-0.44026-1.5727 2.1002-3.3513 3.3131-5.8805 7.2189-7.5673 11.601-1.4309 3.8782-1.2258 7.5665 0.09969 11.407 1.277 2.899 3.1098 4.906 6.3947 4.792 3.6669-1.2046 3.8908-1.1103 5.6474-6.4668 0.48532-4.2572-1.886-7.5419-5.0936-10.034-2.6192-1.8064-5.4886 0.51676 0.00973-2.5478-0.07075 0.063031-0.14149 0.12606-0.21224 0.1891l-3.8154 1.6338c0.05787-0.1005 0.11575-0.201 0.17363-0.3015 3.4309-1.9892 4.1367-3.236 7.1395-1.0371 3.1387 2.7318 5.5563 6.1531 5.164 10.509-1.6706 5.5855-6.5269 9.0276-12.152 10.338-3.4444-0.078233-5.2688-2.173-6.5926-5.2344-1.3255-3.9462-1.6008-7.6945-0.13939-11.679 1.6498-4.4194 4.195-8.3279 7.463-11.741 2.5102-2.4186 5.1884-4.7382 8.4624-6.0059l-3.4088 2.4767z" fill="#eeeeec" fill-rule="nonzero"/><path id="bk" d="m22.319 62.611c1.0007-2.2212 3.8351-3.0622 6.1354-2.975 4.7876 0.74907 9.1442 3.3756 13.011 6.1842 2.9965 2.1755 4.9807 5.4907 1.5707 8.1609-4.3968 2.9924-7.9062 2.9174-12.729 1.8554-4.598-1.3688 2.6527-2.5037 4.916-1.34 3.5358 1.8864 6.9348 4.0637 9.9184 6.7476 2.0325 1.9983 2.7065 4.0922 0.32602 5.9917-5.6719 3.6814-11.218 2.3892-17.431 1.1649-0.67299-0.15577-1.346-0.31153-2.019-0.46729l3.0945-2.1357 1.9325 0.50889c2.985 0.63251 15.762 0.34928 10.757 2.3813 2.453-1.6208 1.9543-3.3786 0.05058-5.4117-2.8717-2.7668-6.2325-4.9655-9.8435-6.6539-4.1055-1.7674-0.75335-3.7265 1.5449-3.0331 2.2942 0.56253 9.8904-0.24801 5.8652 1.8167 3.577-2.2206 1.7868-5.4865-1.0276-7.6369-3.8477-2.8519-8.2438-5.4476-13.124-5.8056-3.8252 0.32716-2.1583 1.0193 0.80605-1.2654l-3.7543 1.9129z" fill="#eeeeec" fill-rule="nonzero"/><path id="bl" d="m54.647 49.234c1.2619-1.3808 3.1804-1.9017 4.7661-2.7697 1.6185-0.3552 3.2952-0.11453 4.9216 0.090408 2.1063 0.22984 4.209 0.46694 6.3049 0.77734 2.4288 0.41056 3.2924-0.93116-1.8374 2.2497l3.7412-1.9367c-3.258 2.091-2.6622 2.5422-5.2417 2.029-2.0387-0.36962-4.0881-0.66334-6.1524-0.85329-1.6652-0.12496-3.3894-0.35306-5.0015 0.20354 0.78374-0.48795 3.0273-2.0684 2.3889-1.4015l-3.8899 1.6112z" fill="#eeeeec" fill-rule="nonzero"/><path id="bm" d="m58.327 58.482c1.9185 0.1236 3.8416-0.05304 5.7573-0.16277 2.133-0.09109 4.2556-0.30656 6.3781-0.52578l-3.2711 2.4218c-2.0705 0.16293-4.1412 0.31431-6.2171 0.39195-2.0162 0.12496-4.03 0.29508-6.05 0.34698l3.4027-2.4722z" fill="#eeeeec" fill-rule="nonzero"/><path id="bn" d="m73.98 43.146c0.36211-1.0146 1.252-1.7576 2.1252-2.563 6.776-5.6028 12.067-5.2802 17.777-4.7509 5.0856 1.2654 12.104 1.6075 13.11 7.1933-1.2611 6.4254-10.518 10.886-16.033 14.151-4.3471 2.635-11.743 5.4717-6.9186 8.2943 6.2944 2.0269 13.913 1.8418 21.41 1.6055l-3.7005 2.3895c-7.4619-0.011193-15.087 0.12883-21.638-1.6025-5.6111-2.8796 2.3132-6.362 7.1979-9.1472 5.2821-3.1074 14.105-7.3208 15.63-13.445-0.67515-5.63-7.649-7.1984-12.68-7.1293-8.0593 0.11066-8.5323 1.0947-11.707 2.6711-3.7542 1.8638-4.5724 2.3328-4.5724 2.3328z" fill="none" opacity=".13934" stroke="#d5d5d5" stroke-linejoin="round" stroke-miterlimit="4" stroke-width="1.5"/><path id="bo" d="m73.98 43.146c0.36211-1.0146 1.252-1.7576 2.1252-2.563 6.776-5.6028 12.067-5.2802 17.777-4.7509 5.0856 1.2654 12.104 1.6075 13.11 7.1933-1.2611 6.4254-10.518 10.886-16.033 14.151-4.3471 2.635-11.743 5.4717-6.9186 8.2943 6.2944 2.0269 13.913 1.8418 21.41 1.6055l-3.7005 2.3895c-7.4619-0.011193-15.087 0.12883-21.638-1.6025-5.6111-2.8796 2.3132-6.362 7.1979-9.1472 5.2821-3.1074 14.105-7.3208 15.63-13.445-0.67515-5.63-7.7363-7.4334-12.68-7.1293-8.3982 0.51654-8.4875 1.1536-11.707 2.6711-3.8056 1.7935-4.5724 2.3328-4.5724 2.3328z" fill="#eeeeec" fill-rule="nonzero"/><path id="bp" d="m14.678 54.259c2.1736-0.43676 4.4122-0.57215 6.6233-0.75642 8.9403-0.61569 17.902-0.7961 26.858-1.0528 1.2731-0.038802 2.5462-0.077605 3.8193-0.11641l-2.7239 1.9864c-1.2266 0.005397-2.4532 0.010793-3.6797 0.01619-9.0788 0.1311-18.172 0.37351-27.207 1.3418-2.3814 0.26853-4.752 0.59362-7.0991 1.0579l3.4088-2.4767z" fill="none" opacity=".13934" stroke="#d5d5d5" stroke-linejoin="miter" stroke-miterlimit="4" stroke-width=".8"/><path id="bq" d="m36.078 17.272c3.5338-1.913 1.2-0.44026-1.5727 2.1002-3.3513 3.3131-5.8805 7.2189-7.5673 11.601-1.4309 3.8782-1.2258 7.5665 0.09969 11.407 1.277 2.899 3.1098 4.906 6.3947 4.792 3.6669-1.2046 3.8908-1.1103 5.6474-6.4668 0.48532-4.2572-1.886-7.5419-5.0936-10.034-2.6192-1.8064-5.4886 0.51676 0.00973-2.5478-0.07075 0.063031-0.14149 0.12606-0.21224 0.1891l-3.8154 1.6338c0.05787-0.1005 0.11575-0.201 0.17363-0.3015 3.4309-1.9892 4.1367-3.236 7.1395-1.0371 3.1387 2.7318 5.5563 6.1531 5.164 10.509-1.6706 5.5855-6.5269 9.0276-12.152 10.338-3.4444-0.078233-5.2688-2.173-6.5926-5.2344-1.3255-3.9462-1.6008-7.6945-0.13939-11.679 1.6498-4.4194 4.195-8.3279 7.463-11.741 2.5102-2.4186 5.1884-4.7382 8.4624-6.0059l-3.4088 2.4767z" fill="none" opacity=".13934" stroke="#d5d5d5" stroke-linejoin="miter" stroke-miterlimit="4" stroke-width=".8"/><path id="br" d="m22.319 62.611c1.0007-2.2212 3.8351-3.0622 6.1354-2.975 4.7876 0.74907 9.1442 3.3756 13.011 6.1842 2.9965 2.1755 4.9807 5.4907 1.5707 8.1609-4.3968 2.9924-7.9062 2.9174-12.729 1.8554-4.598-1.3688 2.6527-2.5037 4.916-1.34 3.5358 1.8864 6.9348 4.0637 9.9184 6.7476 2.0325 1.9983 2.7065 4.0922 0.32602 5.9917-5.6719 3.6814-11.218 2.3892-17.431 1.1649-0.67299-0.15577-1.346-0.31153-2.019-0.46729l3.0945-2.1357 1.9325 0.50889c2.985 0.63251 15.762 0.34928 10.757 2.3813 2.453-1.6208 1.9543-3.3786 0.05058-5.4117-2.8717-2.7668-6.2325-4.9655-9.8435-6.6539-4.1055-1.7674-0.75335-3.7265 1.5449-3.0331 2.2942 0.56253 9.8904-0.24801 5.8652 1.8167 3.577-2.2206 1.7868-5.4865-1.0276-7.6369-3.8477-2.8519-8.2438-5.4476-13.124-5.8056-3.8252 0.32716-2.1583 1.0193 0.80605-1.2654l-3.7543 1.9129z" fill="none" opacity=".13934" stroke="#d5d5d5" stroke-linejoin="miter" stroke-miterlimit="4" stroke-width=".8"/><path id="bs" d="m54.647 49.234c1.2619-1.3808 3.1804-1.9017 4.7661-2.7697 1.6185-0.3552 3.2952-0.11453 4.9216 0.090408 2.1063 0.22984 4.209 0.46694 6.3049 0.77734 2.4288 0.41056 3.2924-0.93116-1.8374 2.2497l3.7412-1.9367c-3.258 2.091-2.6622 2.5422-5.2417 2.029-2.0387-0.36962-4.0881-0.66334-6.1524-0.85329-1.6652-0.12496-3.3894-0.35306-5.0015 0.20354 0.78374-0.48795 3.0273-2.0684 2.3889-1.4015l-3.8899 1.6112z" fill="none" opacity=".13934" stroke="#d5d5d5" stroke-linejoin="miter" stroke-miterlimit="4" stroke-width=".8"/><path id="bt" d="m58.327 58.482c1.9185 0.1236 3.8416-0.05304 5.7573-0.16277 2.133-0.09109 4.2556-0.30656 6.3781-0.52578l-3.2711 2.4218c-2.0705 0.16293-4.1412 0.31431-6.2171 0.39195-2.0162 0.12496-4.03 0.29508-6.05 0.34698l3.4027-2.4722z" fill="none" opacity=".13934" stroke="#d5d5d5" stroke-linejoin="miter" stroke-miterlimit="4" stroke-width=".8"/><path id="bu" d="m73.98 43.146c0.36211-1.0146 1.252-1.7576 2.1252-2.563 6.776-5.6028 12.067-5.2802 17.777-4.7509 5.0856 1.2654 12.104 1.6075 13.11 7.1933-1.2611 6.4254-10.518 10.886-16.033 14.151-4.3471 2.635-11.743 5.4717-6.9186 8.2943 6.2944 2.0269 13.913 1.8418 21.41 1.6055l-3.7005 2.3895c-7.4619-0.011193-15.087 0.12883-21.638-1.6025-5.6111-2.8796 2.3132-6.362 7.1979-9.1472 5.2821-3.1074 14.105-7.3208 15.63-13.445-0.67515-5.63-7.5581-7.0633-12.602-7.0252-9.0034 0.068028-9.077 1.4634-11.707 2.6711-3.8203 1.754-4.6505 2.2287-4.6505 2.2287z" fill="none" opacity=".13934" stroke="#d5d5d5" stroke-linejoin="round" stroke-miterlimit="4" stroke-width=".8"/><path id="bv" d="m14.678 54.259c2.1736-0.43676 4.4122-0.57215 6.6233-0.75642 8.9403-0.61569 17.902-0.7961 26.858-1.0528 1.2731-0.038802 2.5462-0.077605 3.8193-0.11641l-2.7239 1.9864c-1.2266 0.005397-2.4532 0.010793-3.6797 0.01619-9.0788 0.1311-18.172 0.37351-27.207 1.3418-2.3814 0.26853-4.752 0.59362-7.0991 1.0579l3.4088-2.4767z" fill="none" opacity=".13934" stroke="#d5d5d5" stroke-linejoin="miter" stroke-miterlimit="4" stroke-width="1.5"/><path id="bw" d="m36.078 17.272c3.5338-1.913 1.2-0.44026-1.5727 2.1002-3.3513 3.3131-5.8805 7.2189-7.5673 11.601-1.4309 3.8782-1.2258 7.5665 0.09969 11.407 1.277 2.899 3.1098 4.906 6.3947 4.792 3.6669-1.2046 3.8908-1.1103 5.6474-6.4668 0.48532-4.2572-1.886-7.5419-5.0936-10.034-2.6192-1.8064-5.4886 0.51676 0.00973-2.5478-0.07075 0.063031-0.14149 0.12606-0.21224 0.1891l-3.8154 1.6338c0.05787-0.1005 0.11575-0.201 0.17363-0.3015 3.4309-1.9892 4.1367-3.236 7.1395-1.0371 3.1387 2.7318 5.5563 6.1531 5.164 10.509-1.6706 5.5855-6.5269 9.0276-12.152 10.338-3.4444-0.078233-5.2688-2.173-6.5926-5.2344-1.3255-3.9462-1.6008-7.6945-0.13939-11.679 1.6498-4.4194 4.195-8.3279 7.463-11.741 2.5102-2.4186 5.1884-4.7382 8.4624-6.0059l-3.4088 2.4767z" fill="none" opacity=".13934" stroke="#d5d5d5" stroke-linejoin="miter" stroke-miterlimit="4" stroke-width="1.5"/><path id="bx" d="m22.319 62.611c1.0007-2.2212 3.8351-3.0622 6.1354-2.975 4.7876 0.74907 9.1442 3.3756 13.011 6.1842 2.9965 2.1755 4.9807 5.4907 1.5707 8.1609-4.3968 2.9924-7.9062 2.9174-12.729 1.8554-4.598-1.3688 2.6527-2.5037 4.916-1.34 3.5358 1.8864 6.9348 4.0637 9.9184 6.7476 2.0325 1.9983 2.7065 4.0922 0.32602 5.9917-5.6719 3.6814-11.218 2.3892-17.431 1.1649-0.67299-0.15577-1.346-0.31153-2.019-0.46729l3.0945-2.1357 1.9325 0.50889c2.985 0.63251 15.762 0.34928 10.757 2.3813 2.453-1.6208 1.9543-3.3786 0.05058-5.4117-2.8717-2.7668-6.2325-4.9655-9.8435-6.6539-4.1055-1.7674-0.75335-3.7265 1.5449-3.0331 2.2942 0.56253 9.8904-0.24801 5.8652 1.8167 3.577-2.2206 1.7868-5.4865-1.0276-7.6369-3.8477-2.8519-8.2438-5.4476-13.124-5.8056-3.8252 0.32716-2.1583 1.0193 0.80605-1.2654l-3.7543 1.9129z" fill="none" opacity=".13934" stroke="#d5d5d5" stroke-linejoin="miter" stroke-miterlimit="4" stroke-width="1.5"/><path id="by" d="m54.647 49.234c1.2619-1.3808 3.1804-1.9017 4.7661-2.7697 1.6185-0.3552 3.2952-0.11453 4.9216 0.090408 2.1063 0.22984 4.209 0.46694 6.3049 0.77734 2.4288 0.41056 3.2924-0.93116-1.8374 2.2497l3.7412-1.9367c-3.258 2.091-2.6622 2.5422-5.2417 2.029-2.0387-0.36962-4.0881-0.66334-6.1524-0.85329-1.6652-0.12496-3.3894-0.35306-5.0015 0.20354 0.78374-0.48795 3.0273-2.0684 2.3889-1.4015l-3.8899 1.6112z" fill="none" opacity=".13934" stroke="#d5d5d5" stroke-linejoin="round" stroke-miterlimit="4" stroke-width="1.5"/><path id="bz" d="m58.327 58.482c1.9185 0.1236 3.8416-0.05304 5.7573-0.16277 2.133-0.09109 4.2556-0.30656 6.3781-0.52578l-3.2711 2.4218c-2.0705 0.16293-4.1412 0.31431-6.2171 0.39195-2.0162 0.12496-4.03 0.29508-6.05 0.34698l3.4027-2.4722z" fill="none" opacity=".13934" stroke="#d5d5d5" stroke-linejoin="miter" stroke-miterlimit="4" stroke-width="1.5"/></svg>
