<?xml version="1.0" encoding="UTF-8"?>
<svg id="g" version="1.1" viewBox="0 0 48 48" xmlns="http://www.w3.org/2000/svg" xmlns:xlink="http://www.w3.org/1999/xlink"><defs id="h"><linearGradient id="a"><stop id="i" stop-color="#cad4da" offset="0"/><stop id="j" stop-color="#d0dadf" offset="1"/></linearGradient><linearGradient id="f" x1="24" x2="24" y1="39" y2="6.8976" gradientUnits="userSpaceOnUse"><stop id="k" stop-color="#197cf1" offset="0"/><stop id="l" stop-color="#20bcfa" offset="1"/></linearGradient><linearGradient id="e" x1="24" x2="24" y1="36" y2="4.8235" gradientUnits="userSpaceOnUse" xlink:href="#a"/><linearGradient id="d" x1="28.07" x2="28.07" y1="23.985" y2="14.4" gradientUnits="userSpaceOnUse"><stop id="m" stop-color="#c8c8d7" offset="0"/><stop id="n" stop-color="#f0f0f0" offset="1"/></linearGradient><linearGradient id="c" x1="24.485" x2="46.984" y1="24.174" y2="46.673" gradientUnits="userSpaceOnUse"><stop id="o" stop-opacity=".19969" offset="0"/><stop id="p" stop-color="#fff" stop-opacity="0" offset="1"/></linearGradient><linearGradient id="b" x1="24" x2="24" y1="36" y2="4.8235" gradientTransform="translate(0,1)" gradientUnits="userSpaceOnUse" xlink:href="#a"/></defs><g id="q" clip-rule="nonzero" shape-rendering="auto"><path id="r" d="m41 24c0 9.3888-7.6112 17-17 17s-17-7.6112-17-17 7.6112-17 17-17 17 7.6112 17 17" color="#000000" color-rendering="auto" dominant-baseline="auto" enable-background="accumulate" fill="url(#f)" fill-rule="nonzero" image-rendering="auto" solid-color="#000000" stop-color="#000000" style="font-feature-settings:normal;font-variant-alternates:normal;font-variant-caps:normal;font-variant-east-asian:normal;font-variant-ligatures:normal;font-variant-numeric:normal;font-variant-position:normal;font-variation-settings:normal;inline-size:0;isolation:auto;mix-blend-mode:normal;shape-margin:0;shape-padding:0;text-decoration-color:#000000;text-decoration-line:none;text-decoration-style:solid;text-indent:0;text-orientation:mixed;text-transform:none;white-space:normal"/><path id="s" d="m24 6.5c-9.6591 0-17.5 7.8409-17.5 17.5s7.8409 17.5 17.5 17.5 17.5-7.8409 17.5-17.5-7.8409-17.5-17.5-17.5zm0 1c9.1186 0 16.5 7.3814 16.5 16.5s-7.3814 16.5-16.5 16.5-16.5-7.3814-16.5-16.5 7.3814-16.5 16.5-16.5z" color="#000000" color-rendering="auto" dominant-baseline="auto" enable-background="accumulate" fill-opacity="0" image-rendering="auto" solid-color="#000000" stop-color="#000000" style="font-feature-settings:normal;font-variant-alternates:normal;font-variant-caps:normal;font-variant-east-asian:normal;font-variant-ligatures:normal;font-variant-numeric:normal;font-variant-position:normal;font-variation-settings:normal;inline-size:0;isolation:auto;mix-blend-mode:normal;shape-margin:0;shape-padding:0;text-decoration-color:#000000;text-decoration-line:none;text-decoration-style:solid;text-indent:0;text-orientation:mixed;text-transform:none;white-space:normal"/></g><g id="t" clip-rule="nonzero" fill-rule="nonzero" shape-rendering="auto"><path id="u" d="m24 5c-11.046 0-20 8.9543-20 20s8.9543 20 20 20 20-8.9543 20-20-8.9543-20-20-20zm0 3c9.3888 0 17 7.6112 17 17s-7.6112 17-17 17-17-7.6112-17-17 7.6112-17 17-17z" color="#000000" color-rendering="auto" dominant-baseline="auto" enable-background="accumulate" fill="url(#b)" image-rendering="auto" solid-color="#000000" stop-color="#000000" style="font-feature-settings:normal;font-variant-alternates:normal;font-variant-caps:normal;font-variant-east-asian:normal;font-variant-ligatures:normal;font-variant-numeric:normal;font-variant-position:normal;font-variation-settings:normal;inline-size:0;isolation:auto;mix-blend-mode:normal;shape-margin:0;shape-padding:0;text-decoration-color:#000000;text-decoration-line:none;text-decoration-style:solid;text-indent:0;text-orientation:mixed;text-transform:none;white-space:normal"/><path id="v" d="m24 5c-11.046 0-20 8.9543-20 20s8.9543 20 20 20 20-8.9543 20-20-8.9543-20-20-20zm0 3c9.3888 0 17 7.6112 17 17s-7.6112 17-17 17-17-7.6112-17-17 7.6112-17 17-17z" color="#000000" color-rendering="auto" dominant-baseline="auto" enable-background="accumulate" fill="#000" fill-opacity=".099794" image-rendering="auto" solid-color="#000000" stop-color="#000000" style="font-feature-settings:normal;font-variant-alternates:normal;font-variant-caps:normal;font-variant-east-asian:normal;font-variant-ligatures:normal;font-variant-numeric:normal;font-variant-position:normal;font-variation-settings:normal;inline-size:0;isolation:auto;mix-blend-mode:normal;shape-margin:0;shape-padding:0;text-decoration-color:#000000;text-decoration-line:none;text-decoration-style:solid;text-indent:0;text-orientation:mixed;text-transform:none;white-space:normal"/></g><g id="w" clip-rule="nonzero" shape-rendering="auto"><path id="x" d="m24 4c-11.046 0-20 8.9543-20 20s8.9543 20 20 20 20-8.9543 20-20-8.9543-20-20-20zm0 3c9.3888 0 17 7.6112 17 17s-7.6112 17-17 17-17-7.6112-17-17 7.6112-17 17-17z" color="#000000" color-rendering="auto" dominant-baseline="auto" enable-background="accumulate" fill="url(#e)" fill-rule="nonzero" image-rendering="auto" solid-color="#000000" stop-color="#000000" style="font-feature-settings:normal;font-variant-alternates:normal;font-variant-caps:normal;font-variant-east-asian:normal;font-variant-ligatures:normal;font-variant-numeric:normal;font-variant-position:normal;font-variation-settings:normal;inline-size:0;isolation:auto;mix-blend-mode:normal;shape-margin:0;shape-padding:0;text-decoration-color:#000000;text-decoration-line:none;text-decoration-style:solid;text-indent:0;text-orientation:mixed;text-transform:none;white-space:normal"/><path id="y" d="m24 4.5c10.775 0 19.5 8.7245 19.5 19.5s-8.7245 19.5-19.5 19.5-19.5-8.7245-19.5-19.5 8.7245-19.5 19.5-19.5z" color="#000000" color-rendering="auto" dominant-baseline="auto" enable-background="accumulate" fill-opacity="0" image-rendering="auto" solid-color="#000000" stop-color="#000000" style="font-feature-settings:normal;font-variant-alternates:normal;font-variant-caps:normal;font-variant-east-asian:normal;font-variant-ligatures:normal;font-variant-numeric:normal;font-variant-position:normal;font-variation-settings:normal;inline-size:0;isolation:auto;mix-blend-mode:normal;shape-margin:0;shape-padding:0;text-decoration-color:#000000;text-decoration-line:none;text-decoration-style:solid;text-indent:0;text-orientation:mixed;text-transform:none;white-space:normal"/><path id="z" d="m24 3.5c-11.316 0-20.5 9.1841-20.5 20.5s9.1841 20.5 20.5 20.5 20.5-9.1841 20.5-20.5-9.1841-20.5-20.5-20.5z" color="#000000" color-rendering="auto" dominant-baseline="auto" enable-background="accumulate" fill-opacity="0" image-rendering="auto" solid-color="#000000" stop-color="#000000" style="font-feature-settings:normal;font-variant-alternates:normal;font-variant-caps:normal;font-variant-east-asian:normal;font-variant-ligatures:normal;font-variant-numeric:normal;font-variant-position:normal;font-variation-settings:normal;inline-size:0;isolation:auto;mix-blend-mode:normal;shape-margin:0;shape-padding:0;text-decoration-color:#000000;text-decoration-line:none;text-decoration-style:solid;text-indent:0;text-orientation:mixed;text-transform:none;white-space:normal"/></g><g id="aa"><path id="ab" d="m31.02 16.523 0.001953 0.001953c-0.1348 2e-4 -0.25319 0.04541-0.33789 0.12891l-0.00586 0.005859-5.6973 5.6973c-0.2472-0.1046-0.51285-0.1584-0.78125-0.1582-0.5304 0-1.039 0.21084-1.4141 0.58594s-0.58594 0.88366-0.58594 1.4141c-3.12e-4 0.61374 0.28623 1.1765 0.75 1.5508 0.06388 0.06849 0.12379 0.13797 0.19726 0.19727 0.06352 0.0681 0.12231 0.13825 0.19531 0.19726 0.0041 0.0044 0.007599 0.009302 0.011719 0.013672l-1.8066 10.254c-0.04172 0.23772 0.07185 0.45782 0.25977 0.56055 0.04617 0.0849 0.1136 0.15153 0.19726 0.19727 0.04617 0.08491 0.1136 0.15154 0.19727 0.19727 0.04639 0.08529 0.11304 0.15157 0.19727 0.19726 0.045719 0.08316 0.11143 0.148 0.19336 0.19336 0.04598 0.08457 0.11212 0.14958 0.19531 0.19531 0.04574 0.08316 0.11143 0.148 0.19336 0.19336 0.04544 0.08264 0.1102 0.148 0.19141 0.19336 0.04575 0.08269 0.11174 0.14821 0.19336 0.19336 0.04564 0.08235 0.11017 0.14634 0.19141 0.19141 0.04541 0.08117 0.1093 0.14667 0.18945 0.19141 0.04531 0.08111 0.10942 0.14466 0.18945 0.18945 0.0452 0.0809 0.10971 0.1427 0.18945 0.1875 0.04496 0.08019 0.10852 0.14284 0.1875 0.1875 0.04496 0.08019 0.10852 0.14284 0.1875 0.1875 0.04467 0.07966 0.10727 0.14285 0.18555 0.1875 0.04462 0.07898 0.10779 0.14117 0.18555 0.18555 0.04462 0.07897 0.10779 0.14117 0.18555 0.18555 0.04452 0.07828 0.10643 0.14142 0.18359 0.18555 0.04452 0.07819 0.1065 0.13952 0.18359 0.18359 0.04454 0.07735 0.10701 0.13994 0.18359 0.18359 0.032087 0.055355 0.082033 0.092635 0.13086 0.13086a17 17 0 0 0 15.135-14.84c-0.00827-0.011741-0.014633-0.024405-0.025391-0.035156-0.0257-0.02581-0.058137-0.038087-0.085937-0.060547-0.02509-0.03223-0.042246-0.067646-0.072266-0.097656-0.0251-0.02521-0.056874-0.036584-0.083984-0.058594-0.02554-0.03299-0.043529-0.068939-0.074219-0.099609-0.02512-0.02522-0.056864-0.036574-0.083984-0.058594-0.02573-0.03331-0.043239-0.068649-0.074219-0.099609-0.02637-0.02648-0.059331-0.03956-0.087891-0.0625-0.02518-0.03236-0.042115-0.067526-0.072265-0.097656-0.02635-0.02646-0.059341-0.03957-0.087891-0.0625-0.02554-0.03299-0.043529-0.06893-0.074219-0.09961-0.02616-0.02627-0.05956-0.037747-0.08789-0.060547-0.02543-0.03281-0.041736-0.069089-0.072266-0.099609-0.02674-0.02685-0.060844-0.03928-0.089844-0.0625-0.02543-0.03281-0.041735-0.069089-0.072265-0.099609-0.02635-0.02646-0.059341-0.03957-0.087891-0.0625-0.02599-0.03376-0.044802-0.0702-0.076172-0.10156-0.02616-0.02627-0.059561-0.037747-0.087891-0.060547-0.026249-0.03421-0.044411-0.07177-0.076171-0.10352-0.02683-0.02694-0.060744-0.03922-0.089844-0.0625-0.02588-0.03357-0.043009-0.07038-0.074219-0.10156-0.02676-0.02687-0.060834-0.03927-0.089844-0.0625-0.02624-0.0342-0.044421-0.071781-0.076172-0.10352-0.02644-0.026559-0.05924-0.039489-0.08789-0.0625-0.02643-0.034539-0.046075-0.071479-0.078125-0.10352-0.02683-0.02694-0.060744-0.03922-0.089844-0.0625-0.02643-0.03454-0.044122-0.07148-0.076172-0.10352-0.02663-0.02675-0.060973-0.03936-0.089843-0.0625-0.026871-0.03532-0.045386-0.07275-0.078126-0.10547-0.02741-0.027519-0.062016-0.040753-0.091796-0.064453-0.02668-0.03497-0.045695-0.07306-0.078125-0.10547-0.02685-0.02696-0.060734-0.03921-0.089844-0.0625-0.02687-0.03533-0.045385-0.07275-0.078125-0.10547-0.02728-0.02739-0.062167-0.040853-0.091797-0.064453-0.02711-0.03574-0.046968-0.07434-0.080078-0.10742-0.0275-0.02763-0.061907-0.040683-0.091797-0.064453-0.02676-0.03512-0.045565-0.07293-0.078125-0.10547-0.02809-0.02821-0.06319-0.042216-0.09375-0.066406-0.02676-0.03513-0.045565-0.07292-0.078125-0.10547-0.02807-0.02819-0.0632-0.042226-0.09375-0.066406-0.02711-0.03575-0.046968-0.07433-0.080078-0.10742-0.0275-0.02761-0.061917-0.040693-0.091797-0.064453-0.0273-0.0361-0.046658-0.07402-0.080078-0.10742-0.02807-0.02819-0.0632-0.042226-0.09375-0.066406-0.0273-0.0361-0.046658-0.07402-0.080078-0.10742-0.02833-0.02845-0.064853-0.042037-0.095703-0.066407-0.02744-0.036349-0.046448-0.075759-0.080078-0.10937-0.029131-0.029251-0.065867-0.04343-0.097657-0.06836-0.02701-0.03557-0.045175-0.07448-0.078125-0.10742-0.02874-0.02886-0.064383-0.043709-0.095703-0.068359-0.02754-0.03653-0.048251-0.07561-0.082031-0.10938-0.02816-0.02828-0.06309-0.042166-0.09375-0.066406-0.02773-0.03688-0.047931-0.0753-0.082031-0.10938-0.02914-0.02927-0.065857-0.04343-0.097657-0.06836-0.02778-0.03696-0.047861-0.07718-0.082031-0.11133-0.02924-0.02936-0.065746-0.043359-0.097656-0.068359-0.02744-0.03635-0.046448-0.07576-0.080078-0.10938-0.02979-0.02992-0.06705-0.044933-0.09961-0.070313-0.02744-0.03634-0.046448-0.07577-0.080078-0.10938-0.02914-0.02927-0.065856-0.043429-0.097656-0.068359-0.0282-0.03775-0.049144-0.07845-0.083984-0.11328-0.02883-0.02895-0.064264-0.04364-0.095703-0.06836-0.02815-0.03766-0.049215-0.07657-0.083985-0.11133-0.02901-0.02913-0.066016-0.043519-0.097656-0.068359-0.02861-0.03853-0.050418-0.07973-0.085938-0.11524-0.02922-0.02935-0.065756-0.043369-0.097656-0.068359-0.0284-0.03812-0.048814-0.07814-0.083984-0.11328-0.0294-0.02952-0.06752-0.04325-0.09961-0.06836-0.02863-0.03857-0.048424-0.0797-0.083984-0.11523-0.03006-0.03019-0.068701-0.044743-0.10156-0.070313-0.02853-0.03836-0.048604-0.079869-0.083984-0.11523-0.02979-0.02992-0.067049-0.044932-0.099609-0.070312-0.02861-0.03853-0.050418-0.07973-0.085938-0.11524-0.03028-0.03041-0.06842-0.044592-0.10156-0.070312-0.02852-0.03836-0.048615-0.079881-0.083985-0.11524-0.03046-0.03058-0.068219-0.046415-0.10156-0.072265-0.02861-0.03853-0.050418-0.079731-0.085938-0.11524-0.03056-0.03068-0.068099-0.046345-0.10156-0.072265-0.02869-0.03869-0.050278-0.079591-0.085938-0.11524-0.03046-0.03058-0.068219-0.046415-0.10156-0.072265-0.02881-0.03891-0.050088-0.079401-0.085938-0.11524-0.03032-0.03044-0.068389-0.046515-0.10156-0.072265-0.02923-0.0397-0.051341-0.08067-0.087891-0.11719-0.03085-0.03098-0.06971-0.046145-0.10352-0.072265-0.02925-0.03974-0.051311-0.08258-0.087891-0.11914-0.0303-0.03043-0.06841-0.044583-0.10156-0.070313-0.029449-0.04015-0.05097-0.082229-0.08789-0.11914-0.0307-0.03085-0.06988-0.046236-0.10352-0.072266-0.02966-0.04054-0.052574-0.08385-0.089844-0.12109-0.030949-0.031079-0.069589-0.046075-0.10352-0.072265-0.02934-0.03991-0.051161-0.08244-0.087891-0.11914-0.03153-0.03166-0.07087-0.047638-0.10547-0.074218-0.02934-0.03992-0.051161-0.08243-0.087891-0.11914-0.03151-0.03164-0.07088-0.047659-0.10547-0.074219-0.02945-0.04014-0.050971-0.08224-0.08789-0.11914-0.031771-0.03191-0.07254-0.047479-0.10742-0.074219-0.02958-0.04037-0.050761-0.08399-0.087891-0.12109-0.03218-0.03231-0.07205-0.049162-0.10742-0.076172-0.02934-0.03992-0.051161-0.082431-0.087891-0.11914-0.032179-0.032309-0.072049-0.049161-0.10742-0.076171-0.02965-0.04053-0.052594-0.08386-0.089844-0.12109-0.03162-0.03177-0.07075-0.047569-0.10547-0.074219-0.03004-0.04131-0.053867-0.08514-0.091797-0.12305-0.03203-0.03216-0.07224-0.047308-0.10742-0.074219-0.02996-0.041149-0.052053-0.085279-0.089843-0.12305-0.1672-0.1679-0.38368-0.26708-0.58398-0.26758z" fill="url(#c)"/></g><g id="ac"><path id="ad" d="m23.5 24-2.1533 12.212a0.5 0.53914 10 0 0 0.39878 0.61778 0.5 0.53914 10 0 0 0.58603-0.44413 0.5 0.53914 10 0 0 0.0022-0.01244l2.1511-12.199z" fill="#f00"/><path id="ae" d="m15.515 14.454-0.0028 0.0028a0.76994 0.74684 45 0 0-1.0703-0.01519 0.76994 0.74684 45 0 0 0.01381 1.0717l-0.0014 0.0014 8.4853 8.4853 1.0607-1.0607z" fill="#fff"/><path id="af" d="m24 22.939 1.0607 1.0607 6.4848-6.4848a0.74966 0.55868 45 0 0-0.13877-0.92189 0.74966 0.55868 45 0 0-0.92191-0.13875l-0.0064 0.0064z" fill="url(#d)"/></g><g id="ag"><path id="ah" d="m26 24a2 2 0 0 1-2 2 2 2 0 0 1-2-2 2 2 0 0 1 2-2 2 2 0 0 1 2 2z" fill="#fff"/></g></svg>
