<?xml version="1.0" encoding="UTF-8"?>
<svg viewBox="0 0 48 48" xmlns="http://www.w3.org/2000/svg" xmlns:xlink="http://www.w3.org/1999/xlink"><defs><linearGradient id="c" x2="0" y1="543.8" y2="503.8" gradientUnits="userSpaceOnUse"><stop stop-color="#363a3e" offset="0"/><stop stop-color="#44484c" offset="1"/></linearGradient><linearGradient id="b" x1="8" x2="24" y1="24" y2="8" gradientUnits="userSpaceOnUse"><stop stop-color="#e81877" offset="0"/><stop stop-color="#dd1d8c" offset=".312"/><stop stop-color="#6d57b1" offset=".562"/><stop stop-color="#2a78c1" offset=".75"/><stop stop-color="#018dcb" offset="1"/></linearGradient><linearGradient id="a" x1="8" x2="24" y1="24" y2="8" gradientTransform="matrix(1 0 0-1 384.57 547.8)" gradientUnits="userSpaceOnUse"><stop stop-color="#e51561" offset="0"/><stop stop-color="#e4156c" offset=".312"/><stop stop-color="#e71e2c" offset=".562"/><stop stop-color="#e8301e" offset=".75"/><stop stop-color="#e6320e" offset="1"/></linearGradient><linearGradient id="d" x1="8" x2="24" y1="24" y2="8" gradientTransform="matrix(-1 0 0 1 432.57 499.8)" gradientUnits="userSpaceOnUse"><stop stop-color="#bec900" offset="0"/><stop stop-color="#9ec80a" offset=".312"/><stop stop-color="#71b93d" offset=".562"/><stop stop-color="#35a48f" offset=".75"/><stop stop-color="#018fca" offset="1"/></linearGradient><linearGradient id="e" x1="8" x2="24" y1="24" y2="8" gradientTransform="matrix(-1 0 0-1 432.57 547.8)" gradientUnits="userSpaceOnUse"><stop stop-color="#c1cc00" offset="0"/><stop stop-color="#dfcd00" offset=".312"/><stop stop-color="#f0cc00" offset=".562"/><stop stop-color="#fd8c08" offset=".75"/><stop stop-color="#f25c13" offset="1"/></linearGradient><linearGradient id="f" x2="0" y1="-516.8" y2="-530.8" gradientUnits="userSpaceOnUse"><stop stop-color="#2a2c2f" offset="0"/><stop stop-color="#424649" offset="1"/></linearGradient><filter id="g" x="-.06" y="-.06" width="1.12" height="1.12" color-interpolation-filters="sRGB"><feGaussianBlur stdDeviation=".4"/></filter><clipPath id="h"><use xlink:href="#x"/></clipPath><linearGradient id="i" x2="0" y1="40" y2="8" gradientUnits="userSpaceOnUse" xlink:href="#f"/><clipPath id="j"><use xlink:href="#x"/></clipPath><clipPath id="k"><use xlink:href="#y"/></clipPath><linearGradient id="l" x2="0" y1="539.8" y2="507.8" gradientUnits="userSpaceOnUse" xlink:href="#f"/><clipPath id="m"><use xlink:href="#y"/></clipPath><clipPath id="n"><use xlink:href="#y"/></clipPath><clipPath id="o"><use xlink:href="#y"/></clipPath><clipPath id="p"><use xlink:href="#y"/></clipPath><clipPath id="q"><use xlink:href="#y"/></clipPath><linearGradient id="r" x2="0" y1="525.8" y2="521.8" gradientUnits="userSpaceOnUse"><stop stop-color="#989a9b" offset="0"/><stop stop-color="#f6f6f7" offset="1"/></linearGradient><linearGradient id="s" x1="401.57" x2="416.57" y1="520.8" y2="535.8" gradientUnits="userSpaceOnUse"><stop stop-color="#292c2f" offset="0"/><stop stop-opacity="0" offset="1"/></linearGradient><clipPath id="t"><use xlink:href="#x"/></clipPath><clipPath id="u"><use xlink:href="#y"/></clipPath><clipPath id="v"><use xlink:href="#y"/></clipPath><clipPath id="w"><use xlink:href="#y"/></clipPath><rect id="x" x="8" y="8" width="32" height="32" rx="16" fill="url(#i)"/><rect id="y" x="392.57" y="507.8" width="32" height="32" rx="16" fill="url(#l)"/><path id="z" d="m24 8c-8.864 0-16 7.136-16 16h16z" fill="url(#b)" stroke-opacity=".55" stroke-width="2.8"/><path id="A" d="m408.57 539.8c-8.864 0-16-7.136-16-16h16z" fill="url(#a)" stroke-opacity=".55" stroke-width="2.8"/><path id="B" d="m408.57 507.8c8.864 0 16 7.136 16 16h-16z" fill="url(#d)" stroke-opacity=".55" stroke-width="2.8"/><path id="C" d="m408.57 539.8c8.864 0 16-7.136 16-16h-16z" fill="url(#e)" stroke-opacity=".55" stroke-width="2.8"/></defs><g transform="translate(-384.57-499.8)"><rect x="388.57" y="503.8" width="40" height="40" rx="20" fill="url(#c)" stroke-opacity=".55" stroke-width="2.8"/><g transform="matrix(.96593.25882-.25882.96593 149.49-87.9)"><use transform="translate(384.57 499.8)" clip-path="url(#j)" xlink:href="#z"/><use clip-path="url(#q)" xlink:href="#A"/><use clip-path="url(#m)" xlink:href="#B"/><use clip-path="url(#o)" xlink:href="#C"/></g><g opacity=".7"><use transform="translate(384.57 499.8)" clip-path="url(#h)" filter="url(#g)" opacity="1" xlink:href="#z"/><use clip-path="url(#p)" filter="url(#g)" opacity="1" xlink:href="#A"/><use clip-path="url(#n)" filter="url(#g)" opacity="1" xlink:href="#C"/><use clip-path="url(#k)" filter="url(#g)" opacity="1" xlink:href="#B"/></g><use transform="matrix(.70711.70711-.70711.70711 408.57 489.86)" clip-path="url(#h)" opacity=".35" xlink:href="#z"/><use transform="matrix(.70711.70711-.70711.70711 490.05-135.49)" clip-path="url(#p)" opacity=".35" xlink:href="#A"/><use transform="matrix(.70711.70711-.70711.70711 490.05-135.49)" clip-path="url(#n)" opacity=".35" xlink:href="#C"/><use transform="matrix(.70711.70711-.70711.70711 490.05-135.49)" clip-path="url(#k)" opacity=".35" xlink:href="#B"/><path d="m388.58 523.3c-.004.167-.012.332-.012.5 0 11.08 8.92 20 20 20 11.08 0 20-8.92 20-20 0-.168-.008-.333-.012-.5-.265 10.846-9.08 19.5-19.988 19.5-10.912 0-19.724-8.654-19.988-19.5" fill="#2a2e32"/><path d="m414.57 519.8-11 9 13.229 13.229c4.439-1.998 8-5.561 10-10z" fill="url(#s)" fill-rule="evenodd" opacity=".2"/><g transform="matrix(.25882.96593-.96593.25882 808.78-6.421)"><use transform="translate(384.57 499.8)" clip-path="url(#t)" opacity=".3" xlink:href="#z"/><use clip-path="url(#w)" opacity=".3" xlink:href="#A"/><use clip-path="url(#v)" opacity=".3" xlink:href="#C"/><use clip-path="url(#u)" opacity=".3" xlink:href="#B"/></g><rect transform="scale(1-1)" x="401.57" y="-530.8" width="14" height="14" rx="7" fill="url(#f)" stroke-opacity=".55" stroke-width="2.8"/><path d="m406.57 525.8 2-4 2 4z" fill="url(#r)" fill-rule="evenodd"/></g></svg>
