<?xml version="1.0" encoding="UTF-8"?>
<svg id="f" version="1.1" viewBox="0 0 274.43 274.43" xmlns="http://www.w3.org/2000/svg" xmlns:xlink="http://www.w3.org/1999/xlink"><defs id="g"><linearGradient id="a" x2="0" y1="543.8" y2="518.8" gradientTransform="matrix(7.9568 0 0 8.8311 -2954.9 -4734.7)" gradientUnits="userSpaceOnUse"><stop id="h" stop-color="#c6cdd1" offset="0"/><stop id="i" stop-color="#e0e5e7" offset="1"/></linearGradient><linearGradient id="c" x1="393.57" x2="407.57" y1="524.8" y2="538.8" gradientTransform="matrix(8.7146 0 0 9.2325 -3261.1 -4952.6)" gradientUnits="userSpaceOnUse"><stop id="j" stop-color="#292c2f" offset="0"/><stop id="k" stop-opacity="0" offset="1"/></linearGradient><linearGradient id="b" x2="0" y1="545.8" y2="517.8" gradientTransform="matrix(8.7146 0 0 9.2325 -3261.1 -4952.6)" gradientUnits="userSpaceOnUse"><stop id="l" stop-color="#2a2c2f" offset="0"/><stop id="m" stop-color="#424649" offset="1"/></linearGradient></defs><filter id="d" x="-.050914" y="-.027844" width="1.1018" height="1.0557"><feGaussianBlur id="n" stdDeviation="2.97"/></filter><filter id="e" x="-.0272" y="-.204" width="1.0544" height="1.408"><feGaussianBlur id="o" stdDeviation="1.7000001"/></filter><g id="p" transform="translate(-92.501 179.96)"><rect id="q" x="160" y="-172" width="139.43" height="258.51" ry="7.386" fill="url(#b)" stroke-width="8.9698"/><path id="r" d="m290.72-144.3-122 203.12 26.144 27.698h104.57v-221.58z" fill="url(#c)" fill-rule="evenodd" opacity=".2" stroke-width="8.9698"/><rect id="s" x="168.71" y="-144.3" width="122" height="203.12" fill="url(#a)" stroke-width="8.9698"/><rect id="t" x="203.57" y="-162.77" width="52.287" height="9.2325" ry="3.735" fill="#212324" stroke-width="8.9698"/><path id="u" d="m200.08-75.836c-0.18742 0.0277-0.38869 0.0739-0.5281 0.21143l-6.4914 6.4913c-0.27236 0.27421-0.30652 0.69244-0.10802 1.0224l7.5851 12.524c-1.3468 2.2639-2.4404 4.6928-3.2104 7.2675l-13.935 2.8929c-0.38777 0.0831-0.67028 0.44962-0.67028 0.84662v9.1725c0 0.38777 0.29451 0.71922 0.67028 0.81154l13.512 3.281c0.72291 2.981 1.8388 5.8335 3.3161 8.4316l-7.8318 11.924c-0.21789 0.33329-0.17634 0.77738 0.10802 1.0586l6.4915 6.4913c0.27236 0.27236 0.69244 0.30652 1.0223 0.10802l12.277-7.4438c2.408 1.3903 5.0152 2.504 7.7615 3.2458l2.8577 13.759c0.0831 0.38869 0.41454 0.67028 0.81154 0.67028h9.1726c0.385 0 0.72106-0.25851 0.81154-0.63612l3.3869-13.829c2.8324-0.76445 5.503-1.8976 7.9731-3.3515l12.101 7.9378c0.3333 0.21697 0.77646 0.1745 1.0586-0.10802 0 0 6.4561-6.4914 6.4561-6.4914 0.27421-0.27421 0.34161-0.69337 0.14126-1.0224l-4.4099-7.2674-1.4466 0.45886c-0.20866 0.0554-0.44039-0.0369-0.56503-0.21235 0 0-2.7856-4.0977-6.4208-9.4195-4.3474 8.507-13.214 14.323-23.425 14.323-14.51 0-26.283-11.772-26.283-26.283 0-10.673 6.3826-19.841 15.523-23.954v-6.7735c-1.6635 0.58165-3.2704 1.2846-4.7979 2.1168-3e-3 -2e-3 3e-3 -0.0369 0-0.0369l-12.383-8.1143c-0.16619-0.10802-0.34253-0.12556-0.5281-0.10802zm37.431-16.581-16.511 1.5875v68.018l16.334-2.4694v-28.999s21.979 32.174 21.979 32.174l17.216-5.4682-22.508-30.94s22.684-29.175 22.684-29.175l-17.569-4.0219-21.802 29.176 0.17634-29.881z" fill="#333" stroke-width=".95901"/></g></svg>
