<?xml version="1.0" encoding="UTF-8"?>
<svg version="1.1" viewBox="0 0 48 48" xmlns="http://www.w3.org/2000/svg" xmlns:xlink="http://www.w3.org/1999/xlink"><defs><linearGradient id="d" x1="16" x2="7" y1="20" y2="7" gradientUnits="userSpaceOnUse"><stop stop-color="#bf4231" offset="0"/><stop stop-color="#f58273" offset="1"/></linearGradient><linearGradient id="c" x1="39" x2="30" y1="20" y2="7" gradientUnits="userSpaceOnUse"><stop stop-color="#ffa92d" offset="0"/><stop stop-color="#ffc169" offset="1"/></linearGradient><linearGradient id="b" x1="17" x2="10" y1="40.124" y2="28" gradientUnits="userSpaceOnUse"><stop stop-color="#3bb566" offset="0"/><stop stop-color="#7ceca4" offset="1"/></linearGradient><linearGradient id="a" x1="38" x2="30" y1="42" y2="29" gradientUnits="userSpaceOnUse"><stop stop-color="#3b85b5" offset="0"/><stop stop-color="#7cbcec" offset="1"/></linearGradient></defs><g stroke-miterlimit="4" stroke-width="0"><path d="m12.999 4c-0.24252 0-0.48496 0.092118-0.67079 0.27794l-8.0495 8.0509c-0.37166 0.37164-0.37166 0.96987 0 1.3415l8.0495 8.0509c0.37166 0.37164 0.97178 0.37164 1.3434 0l8.0495-8.0509c0.37166-0.37164 0.37166-0.96987 0-1.3415l-8.0495-8.0509c-0.18583-0.18582-0.43013-0.27794-0.67265-0.27794z" fill="url(#d)"/><path d="m34.999 4c-0.24252 0-0.48496 0.092118-0.67079 0.27794l-8.0495 8.0509c-0.37166 0.37164-0.37166 0.96987 0 1.3415l8.0495 8.0509c0.37166 0.37164 0.97178 0.37164 1.3434 0l8.0495-8.0509c0.37166-0.37164 0.37166-0.96987 0-1.3415l-8.0495-8.0509c-0.18583-0.18582-0.43013-0.27794-0.67265-0.27794z" fill="url(#c)"/><path d="m12.999 26c-0.24252 0-0.48496 0.09212-0.67079 0.27794l-8.0495 8.0509c-0.37166 0.37164-0.37166 0.96987 0 1.3415l8.0495 8.0509c0.37166 0.37164 0.97178 0.37164 1.3434 0l8.0495-8.0509c0.37166-0.37164 0.37166-0.96987 0-1.3415l-8.0495-8.0509c-0.18583-0.18582-0.43013-0.27794-0.67265-0.27794z" fill="url(#b)"/><path d="m34.999 26c-0.24252 0-0.48496 0.09212-0.67079 0.27794l-8.0495 8.0509c-0.37166 0.37164-0.37166 0.96987 0 1.3415l8.0495 8.0509c0.37166 0.37164 0.97178 0.37164 1.3434 0l8.0495-8.0509c0.37166-0.37164 0.37166-0.96987 0-1.3415l-8.0495-8.0509c-0.18583-0.18582-0.43013-0.27794-0.67265-0.27794z" fill="url(#a)"/><path d="m4.166 12.5c-0.2335 0.36712-0.20772 0.84894 0.11328 1.1699l8.0488 8.0508c0.37166 0.37164 0.97209 0.37164 1.3438 0l8.0488-8.0508c0.321-0.32098 0.34678-0.8028 0.11328-1.1699-0.036665 0.057429-0.063024 0.11967-0.11328 0.16992l-8.0488 8.0508c-0.37166 0.37164-0.97209 0.37164-1.3438 0l-8.0488-8.0508c-0.050257-0.050254-0.076616-0.11249-0.11328-0.16992zm22 0c-0.2335 0.36712-0.20772 0.84894 0.11328 1.1699l8.0488 8.0508c0.37166 0.37164 0.97209 0.37164 1.3438 0l8.0488-8.0508c0.321-0.32098 0.34678-0.8028 0.11328-1.1699-0.036665 0.057429-0.063024 0.11967-0.11328 0.16992l-8.0488 8.0508c-0.37166 0.37164-0.97209 0.37164-1.3438 0l-8.0488-8.0508c-0.050257-0.050254-0.076616-0.11249-0.11328-0.16992zm-22 22c-0.2335 0.36712-0.20772 0.84894 0.11328 1.1699l8.0488 8.0508c0.37166 0.37164 0.97209 0.37164 1.3438 0l8.0488-8.0508c0.321-0.32098 0.34678-0.8028 0.11328-1.1699-0.036665 0.057429-0.063024 0.11967-0.11328 0.16992l-8.0488 8.0508c-0.37166 0.37164-0.97209 0.37164-1.3438 0l-8.0488-8.0508c-0.050257-0.050254-0.076616-0.11249-0.11328-0.16992zm22 0c-0.2335 0.36712-0.20772 0.84894 0.11328 1.1699l8.0488 8.0508c0.37166 0.37164 0.97209 0.37164 1.3438 0l8.0488-8.0508c0.321-0.32098 0.34678-0.8028 0.11328-1.1699-0.036665 0.057429-0.063024 0.11967-0.11328 0.16992l-8.0488 8.0508c-0.37166 0.37164-0.97209 0.37164-1.3438 0l-8.0488-8.0508c-0.050257-0.050254-0.076616-0.11249-0.11328-0.16992z" fill="#000" opacity=".15"/></g></svg>
