<?xml version="1.0" encoding="UTF-8"?>
<svg id="i" version="1.1" viewBox="0 0 128 128" xmlns="http://www.w3.org/2000/svg" xmlns:xlink="http://www.w3.org/1999/xlink"><defs id="j"><linearGradient id="a" x2="0" y1="541.8" y2="505.8" gradientTransform="translate(-384.57,-499.8)" gradientUnits="userSpaceOnUse"><stop id="k" stop-color="#bdc3c7" offset="0"/><stop id="l" stop-color="#eff0f1" offset="1"/></linearGradient><linearGradient id="b" x2="0" y1="542.8" y2="504.8" gradientTransform="translate(-384.57,-499.8)" gradientUnits="userSpaceOnUse"><stop id="m" stop-color="#95a5a6" offset="0"/><stop id="n" stop-color="#8b9e9a" offset="1"/></linearGradient><linearGradient id="c" x2="0" y1="20" y2="44" gradientTransform="translate(384.57,499.8)" gradientUnits="userSpaceOnUse"><stop id="o" stop-color="#eff0f1" offset="0"/><stop id="p" stop-color="#bdc3c7" offset="1"/></linearGradient><linearGradient id="d" x1="10.327" x2="30.491" y1="10.17" y2="29.972" gradientUnits="userSpaceOnUse"><stop id="q" stop-color="#292c2f" offset="0"/><stop id="r" stop-opacity="0" offset="1"/></linearGradient><linearGradient id="e" x1="25" x2="41.05" y1="10.227" y2="26.733" gradientUnits="userSpaceOnUse" xlink:href="#d"/><linearGradient id="f" x1="41" x2="5" y1="42" y2="10" gradientTransform="translate(384.57,499.8)" gradientUnits="userSpaceOnUse"><stop id="s" stop-color="#2e5d89" offset="0"/><stop id="t" stop-color="#1b92f4" offset="1"/></linearGradient><linearGradient id="g" x1="41" x2="5" y1="42" y2="10" gradientTransform="translate(384.57,499.8)" gradientUnits="userSpaceOnUse"><stop id="u" stop-color="#06a370" offset="0"/><stop id="v" stop-color="#22d1b0" offset="1"/></linearGradient><linearGradient id="h" x1="10.327" x2="30.491" y1="10.17" y2="29.972" gradientUnits="userSpaceOnUse" xlink:href="#d"/></defs><g id="w" transform="matrix(2.65 0 0 2.6666 -1018.7 -1334.1)"><path id="x" transform="translate(384.57,499.8)" d="m7 5v25h34v-25z" fill="url(#b)" opacity=".5" stroke-width=".14107"/><path id="y" transform="translate(384.57,499.8)" d="m8 6v24h32v-24z" fill="url(#a)" stroke-width=".14107"/><g id="z" fill="#aeaeae" stroke-width=".37618"><rect id="aa" x="394.57" y="513.8" width="2" height="1"/><rect id="ab" x="397.57" y="513.8" width="3" height="1"/><rect id="ac" x="401.57" y="513.8" width="5" height="1"/><rect id="ad" x="394.57" y="515.8" width="4" height="1"/><rect id="ae" x="399.57" y="515.8" width="2" height="1"/><rect id="af" x="394.57" y="519.8" width="2" height="1"/><rect id="ag" x="397.57" y="519.8" width="3" height="1"/><rect id="ah" x="394.57" y="521.8" width="2" height="1"/><rect id="ai" x="397.57" y="521.8" width="5" height="1"/><rect id="aj" x="403.57" y="521.8" width="3" height="1"/><rect id="ak" x="394.57" y="525.8" width="6" height="1"/><rect id="al" x="401.57" y="525.8" width="3" height="1"/><rect id="am" x="394.57" y="527.8" width="5" height="1"/><rect id="an" x="400.57" y="527.8" width="5" height="1"/><rect id="ao" x="409.57" y="513.8" width="2" height="1"/><rect id="ap" x="412.57" y="513.8" width="3" height="1"/><rect id="aq" x="416.57" y="513.8" width="5" height="1"/><rect id="ar" x="409.57" y="515.8" width="4" height="1"/><rect id="as" x="414.57" y="515.8" width="2" height="1"/><rect id="at" x="409.57" y="519.8" width="2" height="1"/><rect id="au" x="409.57" y="521.8" width="2" height="1"/><rect id="av" x="412.57" y="521.8" width="5" height="1"/><rect id="aw" x="418.57" y="521.8" width="3" height="1"/><rect id="ax" x="409.57" y="525.8" width="6" height="1"/><rect id="ay" x="409.57" y="527.8" width="5" height="1"/><rect id="az" x="415.57" y="527.8" width="5" height="1"/></g><path id="ba" transform="translate(384.57,499.8)" d="m10 10v1.951c0.649-1.119 9.259-1.321 12.957-1.951zm13 0.043v1.957h-12.951l17.863 18h13.09v-1.818z" fill="url(#h)" opacity=".2" stroke-width=".14107"/><path id="bb" transform="translate(384.57,499.8)" d="m25 10v1.951l0.479-1.018 6.188-0.188 6.291-0.746zm13 0.043v1.957h-12.951l15.951 16.07v-15.01z" fill="url(#e)" opacity=".2" stroke-width=".14107"/><path id="bc" d="m388.57 529.8v14h40v-14z" fill="url(#c)" stroke-width=".14107"/><rect id="bd" x="388.57" y="542.8" width="40" height="1" rx="0" fill="#95a5a6" stroke-width=".14107"/><rect id="be" x="388.57" y="529.8" width="40" height="1" rx="0" fill="#eff0f1" stroke-width=".14107"/><g id="bf" stroke-linejoin="bevel" stroke-width=".75236"><path id="bg" d="m394.57 509.8v2h13v-2zm21 22-7 4 7 4.04v-2.041h10v-4h-10z" fill="url(#f)"/><path id="bh" d="m409.57 509.8v2h13v-2zm-8 24v2h-10v4h10v2.041l7-4.04z" fill="url(#g)"/></g></g></svg>
