<?xml version="1.0" encoding="UTF-8"?>
<svg id="k" version="1.1" viewBox="0 0 16 16" xmlns="http://www.w3.org/2000/svg" xmlns:xlink="http://www.w3.org/1999/xlink"><defs id="l"><linearGradient id="c"><stop id="m" stop-color="#292c2f" offset="0"/><stop id="n" stop-opacity="0" offset="1"/></linearGradient><linearGradient id="a"><stop id="o" stop-color="#3fc380" offset="0"/><stop id="p" stop-color="#3f8ed3" offset="1"/></linearGradient><linearGradient id="b"><stop id="q" stop-color="#148e76" offset="0"/><stop id="r" stop-color="#218059" offset="1"/></linearGradient><linearGradient id="j" x1="17.483" x2="37.758" y1="4.7157" y2="39.833" gradientTransform="matrix(-.34782 -.001481 .001481 .34611 16.338 32.419)" gradientUnits="userSpaceOnUse" xlink:href="#a"/><linearGradient id="g" x1="17.483" x2="37.758" y1="4.7157" y2="39.833" gradientTransform="matrix(-.34782 -.001481 .001481 .34611 16.338 42.569)" gradientUnits="userSpaceOnUse" xlink:href="#a"/><linearGradient id="f" x1="17.483" x2="37.758" y1="4.7157" y2="39.833" gradientTransform="matrix(-.34782 -.001481 .001481 .34611 16.338 37.319)" gradientUnits="userSpaceOnUse" xlink:href="#a"/><linearGradient id="i" x1="17.483" x2="37.758" y1="4.7157" y2="39.833" gradientTransform="matrix(-.34782 -.0023449 .001481 .548 16.338 35.93)" gradientUnits="userSpaceOnUse" xlink:href="#b"/><linearGradient id="e" x1="4" x2="43" y1="18" y2="31" gradientTransform="translate(0,-2)" gradientUnits="userSpaceOnUse" xlink:href="#c"/><linearGradient id="d" x1="4" x2="43" y1="18.571" y2="31" gradientTransform="translate(0,14)" gradientUnits="userSpaceOnUse" xlink:href="#c"/><linearGradient id="h" x1="17.483" x2="37.758" y1="4.7157" y2="39.833" gradientTransform="matrix(.34782 .0023449 -.001481 -.548 -.33794 44.07)" gradientUnits="userSpaceOnUse" xlink:href="#b"/></defs><g id="s" transform="translate(0,-32)"><path id="t" d="m14 38h-12l-1-1h14z" fill="url(#h)"/><path id="u" d="m2 42h12l1 1h-14z" fill="url(#i)"/><path id="v" d="m1 33h14v4h-14z" fill="url(#j)"/><path id="w" d="m1 43h14v4h-14z" fill="url(#g)"/><path id="x" d="m1 38h14v4h-14z" fill="url(#f)"/><g id="y" transform="matrix(.35 0 0 .35 -.4 31.6)" fill-rule="evenodd"><path id="z" d="m4 18.286 11.808 11.429h28.192v-11.429z" fill="url(#e)" opacity=".2"/><path id="aa" d="m4 32.571 12 11.429h28v-11.429z" fill="url(#d)" opacity=".2"/></g><path id="ab" d="m1 46.65h14v0.35h-14z" fill="#000" opacity=".1"/></g></svg>
