<?xml version="1.0" encoding="UTF-8"?>
<svg id="dr" version="1.0" viewBox="0 0 144 144" xmlns="http://www.w3.org/2000/svg" xmlns:xlink="http://www.w3.org/1999/xlink"><defs id="ds"><linearGradient id="a"><stop id="dt" stop-color="#fff" offset="0"/><stop id="du" stop-color="#fff" stop-opacity="0" offset="1"/></linearGradient><linearGradient id="cc"><stop id="dv" stop-color="#fff" stop-opacity="0" offset="0"/><stop id="dw" stop-color="#fff" offset=".32512"/><stop id="dx" stop-color="#fff" stop-opacity="0" offset="1"/></linearGradient><linearGradient id="y"><stop id="dy" stop-color="#fff" offset="0"/><stop id="dz" stop-color="#fff" stop-opacity=".5036" offset=".5"/><stop id="ea" stop-color="#fff" offset="1"/></linearGradient><linearGradient id="q"><stop id="eb" stop-color="#fff" offset="0"/><stop id="ec" stop-color="#fff" stop-opacity=".79137" offset=".5"/><stop id="ed" stop-color="#fff" stop-opacity="0" offset="1"/></linearGradient><linearGradient id="cd"><stop id="ee" stop-color="#767676" offset="0"/><stop id="ef" stop-color="#767676" stop-opacity="0" offset="1"/></linearGradient><linearGradient id="b"><stop id="eg" offset="0"/><stop id="eh" stop-opacity="0" offset="1"/></linearGradient><filter id="av"><feGaussianBlur id="ei" stdDeviation="1.2828183"/></filter><clipPath id="bd"><path id="ej" d="m76.906-70.062c-2.9123 3.9721-7.6071 6.5625-12.906 6.5625-4.8958 0-9.2831-2.1887-12.219-5.6562-23.14-4.2856-26.618 14.04-31.5 30.75 0.40883 0.434 0.80712 0.86458 1.2812 1.3438 2.3272 2.3027 3.946 3.6777 6.5625 5.6562 0.78852 0.57188 1.7832 0.6855 2.4688 0l7.0938-6.25c0.76064-0.63163 1.7065-0.62292 2.375-0.25l0.09375-0.09375c3.5277 2.0172 7.3282 3.6095 11.344 4.6875v0.15625c0.7364 0.20901 1.44 0.85927 1.5312 1.8438l0.59375 9.4375c1e-6 0.96944 0.78805 1.5968 1.75 1.75 3.2492 0.45108 5.3511 0.60772 8.625 0.625 3.2739-0.01728 5.3758-0.17392 8.625-0.625 0.96195-0.15319 1.75-0.78056 1.75-1.75l0.59375-9.4375c0.09122-0.98448 0.79485-1.6347 1.5312-1.8438v-0.15625c4.0156-1.078 7.8161-2.6703 11.344-4.6875l0.09375 0.09375c0.66851-0.37292 1.6144-0.38163 2.375 0.25l7.0938 6.25c0.6855 0.68551 1.6802 0.57189 2.4688 0 2.6165-1.9786 4.2353-3.3535 6.5625-5.6562 0.48542-0.49057 0.8952-0.93141 1.3125-1.375 3.9235-7.0867-25.609-43.435-30.844-31.625z" fill="url(#o)" opacity=".43123"/></clipPath><radialGradient id="o" cx="94.819" cy="67.895" r="43.734" gradientTransform="matrix(1 0 0 .57806 0 -101.85)" gradientUnits="userSpaceOnUse" xlink:href="#a"/><filter id="au"><feGaussianBlur id="ek" stdDeviation="0.60500001"/></filter><filter id="dg"><feGaussianBlur id="el" stdDeviation="0.022901589"/></filter><filter id="at"><feGaussianBlur id="em" stdDeviation="0.093056358"/></filter><filter id="as" x="-.11278" y="-.066691" width="1.2256" height="1.1334"><feGaussianBlur id="en" stdDeviation="0.13268874"/></filter><filter id="ar"><feGaussianBlur id="eo" stdDeviation="0.20386597"/></filter><filter id="df"><feGaussianBlur id="ep" stdDeviation="0.12356379"/></filter><filter id="ao"><feGaussianBlur id="eq" stdDeviation="0.11909804"/></filter><linearGradient id="x" x1="63.993" x2="63.993" y1="80.37" y2="66.132" gradientUnits="userSpaceOnUse" xlink:href="#a"/><filter id="de"><feGaussianBlur id="er" stdDeviation="0.069666275"/></filter><linearGradient id="db" x1="64" x2="64" y1="81.5" y2="12.678" gradientTransform="matrix(.96322 0 0 .96322 10.442 -.73701)" gradientUnits="userSpaceOnUse" spreadMethod="reflect"><stop id="es" stop-color="#b4b4b4" offset="0"/><stop id="et" stop-color="#d1d1d1" offset=".5"/><stop id="eu" stop-color="#fafafa" offset="1"/></linearGradient><filter id="aw"><feGaussianBlur id="ev" stdDeviation="0.11377897"/></filter><filter id="dk"><feGaussianBlur id="ew" stdDeviation="0.6636789"/></filter><clipPath id="dp"><path id="ex" transform="scale(1.0667)" d="m63.969 3.9669c-3.2738 0.01728-5.3758 0.17392-8.625 0.625-0.96195 0.15318-1.75 0.78055-1.75 1.75l-0.59375 9.4375c-0.08851 0.95519-0.75664 1.5843-1.4688 1.8125-0.02183 7e-3 -0.0406 0.02503-0.0625 0.03125-4.1168 1.1052-8.0229 2.7221-11.625 4.8125-0.65155 0.28193-1.4921 0.26494-2.1875-0.3125l-7.0938-6.25c-0.6855-0.6855-1.6802-0.57188-2.4688 0-2.6165 1.9786-4.2353 3.3535-6.5625 5.6562-2.3027 2.3272-3.6777 3.946-5.6562 6.5625-0.57188 0.78852-0.6855 1.7832 0 2.4688l6.25 7.0938c0.47372 0.57048 0.7362 1.3088 0.46875 1.8438l-0.0625 0.125c-2.2455 3.7996-3.9949 7.9363-5.125 12.313-0.01184 0.02064-0.01867 0.04216-0.03125 0.0625-0.31721 0.51284-0.85539 0.93158-1.5938 1l-9.4375 0.59375c-0.96944 0-1.5968 0.78805-1.75 1.75-0.45108 3.2492-0.60772 5.3511-0.625 8.625 0.01728 3.2739 0.17392 5.3758 0.625 8.625 0.15319 0.96195 0.78056 1.75 1.75 1.75l9.4375 0.59375c0.86735 0.08037 1.4434 0.64657 1.7188 1.2812 1.1032 4.1434 2.7662 8.0642 4.875 11.688 0.37292 0.66851 0.38163 1.6144-0.25 2.375l-6.25 7.0938c-0.6855 0.6855-0.57188 1.6802 0 2.4688 1.9786 2.6165 3.3535 4.2353 5.6562 6.5625 2.3272 2.3027 3.946 3.6777 6.5625 5.6562 0.78852 0.57188 1.7832 0.6855 2.4688 0l7.0938-6.25c0.76064-0.63163 1.7065-0.62292 2.375-0.25l0.09375-0.0937c3.5277 2.0172 7.3282 3.6095 11.344 4.6875v0.15625c0.7364 0.20901 1.44 0.85927 1.5312 1.8438l0.59375 9.4375c0 0.96944 0.78805 1.5968 1.75 1.75 3.2492 0.45108 5.3512 0.60772 8.625 0.625 3.2738-0.0173 5.3758-0.17392 8.625-0.625 0.96195-0.15319 1.75-0.78056 1.75-1.75l0.59375-9.4375c0.09122-0.98448 0.79485-1.6347 1.5312-1.8438v-0.15625c4.0156-1.078 7.8161-2.6703 11.344-4.6875l0.09375 0.0937c0.66851-0.37292 1.6144-0.38163 2.375 0.25l7.0938 6.25c0.6855 0.68551 1.6802 0.57189 2.4688 0 2.6165-1.9786 4.2353-3.3535 6.5625-5.6562 2.3027-2.3272 3.6777-3.946 5.6562-6.5625 0.57189-0.78852 0.68551-1.7832 0-2.4688l-6.25-7.0938c-0.63163-0.76064-0.62292-1.7065-0.25-2.375 2.1088-3.6233 3.7718-7.5441 4.875-11.688 0.27531-0.63468 0.8514-1.2009 1.7188-1.2812l9.4375-0.59375c0.96945 0 1.5968-0.78805 1.75-1.75 0.45108-3.2492 0.60772-5.3511 0.625-8.625-0.0173-3.2739-0.17392-5.3758-0.625-8.625-0.15318-0.96195-0.78055-1.75-1.75-1.75l-9.4375-0.59375c-0.73836-0.06842-1.2765-0.48716-1.5938-1-6e-3 -0.02192-0.0256-0.04059-0.0313-0.0625-1.1301-4.3762-3.1512-8.3649-5.125-12.313l-0.0625-0.125c-0.26745-0.5349-5e-3 -1.2733 0.46875-1.8438l6.25-7.0938c0.68551-0.68551 0.57188-1.6802 0-2.4688-1.9786-2.6165-3.3535-4.2353-5.6562-6.5625-2.3272-2.3028-3.946-3.6777-6.5625-5.6562-0.78852-0.57188-1.7832-0.68551-2.4688 0l-7.0938 6.25c-0.69538 0.57744-1.536 0.59443-2.1875 0.3125-3.6021-2.0904-7.5082-3.7073-11.625-4.8125-0.0219-0.0062-0.04067-0.02425-0.0625-0.03125-0.71211-0.22817-1.3802-0.85731-1.4688-1.8125l-0.59375-9.4375c0-0.96945-0.78805-1.5968-1.75-1.75-3.2492-0.45108-5.3512-0.60772-8.625-0.625zm0 44c8.832 0 16 7.168 16 16s-7.168 16-16 16-16-7.168-16-16c0-8.832 7.168-16 16-16z" fill="none" filter="url(#au)" stroke="url(#aa)" stroke-dashoffset="1.0878" stroke-linecap="round" stroke-linejoin="round" stroke-miterlimit="4" stroke-width=".1"/></clipPath><linearGradient id="aa" x1="283.5" x2="282.5" y1="-52.5" y2="128.5" gradientTransform="translate(-230.03 39.467)" gradientUnits="userSpaceOnUse" xlink:href="#cd"/><filter id="dh"><feGaussianBlur id="ey" stdDeviation="0.13496047"/></filter><radialGradient id="bl" cx="166.72" cy="31.651" r="60.5" gradientTransform="matrix(.63331 0 0 .63331 61.137 11.606)" gradientUnits="userSpaceOnUse" spreadMethod="reflect"><stop id="ez" stop-color="#525252" offset="0"/><stop id="fa" offset=".25"/><stop id="fb" stop-color="#cbcbcb" offset=".31375"/><stop id="fc" stop-color="#282828" offset=".42412"/><stop id="fd" offset=".72458"/><stop id="fe" stop-color="#fff" offset=".80784"/><stop id="ff" offset=".875"/><stop id="fg" offset="1"/></radialGradient><clipPath id="do"><path id="fh" d="m201.5 3.7c-3.2738 0.01728-5.3758 0.17392-8.625 0.625-0.96195 0.15318-1.75 0.78055-1.75 1.75l-0.59375 9.4375c-0.0885 0.95519-0.75664 1.5843-1.4688 1.8125-0.0218 7e-3 -0.0406 0.02503-0.0625 0.03125-4.1168 1.1052-8.0229 2.7221-11.625 4.8125-0.65155 0.28193-1.4921 0.26494-2.1875-0.3125l-7.0938-6.25c-0.6855-0.6855-1.6802-0.57188-2.4688 0-2.6165 1.9786-4.2353 3.3535-6.5625 5.6562-2.3027 2.3272-3.6777 3.946-5.6562 6.5625-0.57188 0.78852-0.6855 1.7832 0 2.4688l6.25 7.0938c0.47372 0.57048 0.7362 1.3088 0.46875 1.8438l-0.0625 0.125c-2.2455 3.7996-3.9949 7.9363-5.125 12.312-0.0118 0.02064-0.0187 0.04216-0.0313 0.0625-0.31721 0.51284-0.85539 0.93158-1.5938 1l-9.4375 0.59375c-0.96944 0-1.5968 0.78805-1.75 1.75-0.45108 3.2492-0.60772 5.3511-0.625 8.625 0.0173 3.2739 0.17392 5.3758 0.625 8.625 0.15319 0.96195 0.78056 1.75 1.75 1.75l9.4375 0.59375c0.86735 0.08037 1.4434 0.64657 1.7188 1.2812 1.1032 4.1434 2.7662 8.0642 4.875 11.688 0.37292 0.66851 0.38163 1.6144-0.25 2.375l-6.25 7.0938c-0.6855 0.6855-0.57188 1.6802 0 2.4688 1.9786 2.6165 3.3535 4.2353 5.6562 6.5625 2.3272 2.3027 3.946 3.6777 6.5625 5.6562 0.78852 0.57188 1.7832 0.6855 2.4688 0l7.0938-6.25c0.76064-0.63163 1.7065-0.62292 2.375-0.25l0.0937-0.0937c3.5277 2.0172 7.3282 3.6095 11.344 4.6875v0.15625c0.7364 0.20901 1.44 0.85927 1.5312 1.8438l0.59375 9.4375c0 0.96944 0.78805 1.5968 1.75 1.75 3.2492 0.45108 5.3512 0.60772 8.625 0.625 3.2738-0.0173 5.3758-0.17392 8.625-0.625 0.96195-0.15319 1.75-0.78056 1.75-1.75l0.59375-9.4375c0.0912-0.98448 0.79485-1.6347 1.5312-1.8438v-0.15625c4.0156-1.078 7.8161-2.6703 11.344-4.6875l0.0937 0.0937c0.66851-0.37292 1.6144-0.38163 2.375 0.25l7.0937 6.25c0.6855 0.68551 1.6802 0.57189 2.4688 0 2.6165-1.9786 4.2353-3.3535 6.5625-5.6562 2.3027-2.3272 3.6777-3.946 5.6562-6.5625 0.57189-0.78851 0.68551-1.7832 0-2.4688l-6.25-7.0938c-0.63163-0.76064-0.62292-1.7065-0.25-2.375 2.1088-3.6233 3.7718-7.5441 4.875-11.688 0.27531-0.63468 0.8514-1.2009 1.7188-1.2812l9.4375-0.59375c0.96945 0 1.5968-0.78805 1.75-1.75 0.45108-3.2492 0.60772-5.3511 0.625-8.625-0.0173-3.2739-0.17392-5.3758-0.625-8.625-0.15318-0.96195-0.78055-1.75-1.75-1.75l-9.4375-0.59375c-0.73836-0.06842-1.2765-0.48716-1.5938-1-6e-3 -0.02192-0.0256-0.04059-0.0313-0.0625-1.1301-4.3762-3.1512-8.3649-5.125-12.312l-0.0625-0.125c-0.26745-0.5349-5e-3 -1.2733 0.46875-1.8438l6.25-7.0938c0.68551-0.68551 0.57188-1.6802 0-2.4688-1.9786-2.6165-3.3535-4.2353-5.6562-6.5625-2.3272-2.3028-3.946-3.6777-6.5625-5.6562-0.78852-0.57188-1.7832-0.68551-2.4688 0l-7.0937 6.25c-0.69538 0.57744-1.536 0.59443-2.1875 0.3125-3.6021-2.0904-7.5082-3.7073-11.625-4.8125-0.0219-0.0062-0.0407-0.02425-0.0625-0.03125-0.71211-0.22817-1.3802-0.85731-1.4688-1.8125l-0.59355-9.4375c0-0.96945-0.78805-1.5968-1.75-1.75-3.2492-0.45108-5.3512-0.60772-8.625-0.625zm0 44c8.832-1e-6 16 7.168 16 16s-7.168 16-16 16-16-7.168-16-16c0-8.832 7.168-16 16-16z" fill="url(#bk)" opacity=".73234"/></clipPath><radialGradient id="bk" cx="-84" cy="64" r="60" gradientTransform="translate(285.5 -.3)" gradientUnits="userSpaceOnUse" xlink:href="#a"/><radialGradient id="bj" cx="54.673" cy="6.8499" r="1.2891" gradientTransform="matrix(1 0 0 1.902 0 -6.1784)" gradientUnits="userSpaceOnUse" xlink:href="#a"/><linearGradient id="cg" x1="62.937" x2="63.021" y1="3.8496" y2="9.8521" gradientTransform="translate(-.029613 -.75857)" gradientUnits="userSpaceOnUse"><stop id="fi" stop-color="#fff" offset="0"/><stop id="fj" stop-color="#fff" stop-opacity="0" offset="1"/></linearGradient><radialGradient id="bi" cx="54.673" cy="6.8499" r="1.2891" fx="54.046" fy="6.3414" gradientTransform="matrix(1.0667 0 0 2.0288 -2.7597 -33.47)" gradientUnits="userSpaceOnUse" xlink:href="#q"/><radialGradient id="bh" cx="54.673" cy="6.8499" r="1.2891" fx="54.046" fy="6.3414" gradientTransform="matrix(1.0667 0 0 2.0288 -125.39 25.935)" gradientUnits="userSpaceOnUse" xlink:href="#q"/><linearGradient id="cf" x1="43.714" x2="18.252" y1="11.362" y2="21.729" gradientUnits="userSpaceOnUse" xlink:href="#y"/><radialGradient id="r" cx="54.673" cy="6.8499" r="1.2891" fx="54.046" fy="6.3414" gradientTransform="matrix(1.3371 0 0 2.0536 -47.707 -41.703)" gradientUnits="userSpaceOnUse" xlink:href="#q"/><linearGradient id="ce" x1="52.722" x2="38.628" y1="17.797" y2="22.658" gradientUnits="userSpaceOnUse" xlink:href="#y"/><radialGradient id="bg" cx="54.673" cy="6.8499" r="1.2891" gradientTransform="matrix(1 0 0 1.902 0 -6.1784)" gradientUnits="userSpaceOnUse"><stop id="fk" stop-color="#474747" offset="0"/><stop id="fl" stop-color="#474747" stop-opacity="0" offset="1"/></radialGradient><linearGradient id="z" x1="114.3" x2="114.3" y1="49.937" y2="61.877" gradientUnits="userSpaceOnUse" xlink:href="#cc"/><radialGradient id="bf" cx="-81.634" cy="64.887" r="60" gradientTransform="matrix(.96322 0 0 .96322 153 -.73701)" gradientUnits="userSpaceOnUse" xlink:href="#a"/><radialGradient id="be" cx="263.75" cy="83.663" r="55.668" gradientUnits="userSpaceOnUse" spreadMethod="reflect"><stop id="fm" stop-color="#525252" offset="0"/><stop id="fn" stop-color="#adadad" offset=".12902"/><stop id="fo" stop-color="#fff" offset=".39293"/><stop id="fp" stop-color="#282828" offset=".61568"/><stop id="fq" offset=".61568"/><stop id="fr" stop-color="#fff" offset=".80784"/><stop id="fs" offset="1"/></radialGradient><filter id="di"><feGaussianBlur id="ft" stdDeviation="0.30424851"/></filter><radialGradient id="bn" cx="111.72" cy="98.041" r="3.2558" gradientTransform="matrix(1 0 0 1.9648 0 -94.073)" gradientUnits="userSpaceOnUse"><stop id="fu" stop-color="#fff" offset="0"/><stop id="fv" stop-color="#fff" stop-opacity="0" offset="1"/></radialGradient><radialGradient id="bm" cx="113.16" cy="97.951" r="3.3883" gradientTransform="matrix(1 0 0 1.9271 0 -90.303)" gradientUnits="userSpaceOnUse" xlink:href="#a"/><filter id="dj"><feGaussianBlur id="fw" stdDeviation="0.23999995"/></filter><linearGradient id="ag" x1="1342.2" x2="1379.2" y1="-271.97" y2="-258.92" gradientTransform="matrix(-.26606 -.01639 -.01613 .27035 449.24 132.82)" gradientUnits="userSpaceOnUse" xlink:href="#d" spreadMethod="reflect"/><linearGradient id="d"><stop id="fx" stop-color="#dddbdc" offset="0"/><stop id="fy" stop-color="#878485" offset=".74324"/><stop id="fz" stop-color="#4e4c4d" offset=".80917"/><stop id="ga" stop-color="#2e2c2d" offset="1"/></linearGradient><linearGradient id="h" x1="758.88" x2="765.16" y1="-688.43" y2="-688.52" gradientUnits="userSpaceOnUse" xlink:href="#w"/><linearGradient id="w"><stop id="gb" stop-opacity="0" offset="0"/><stop id="gc" stop-opacity=".68327" offset=".25"/><stop id="gd" offset=".5"/><stop id="ge" stop-opacity=".72954" offset=".75"/><stop id="gf" stop-opacity="0" offset="1"/></linearGradient><clipPath id="m"><path id="gg" d="m774.76-708.83c-11.304 5.5685-17.892 16.141-17.711 26.56l-0.0121 16.17 0.18178 4.683c0.39166 3.171 1.3549 6.284 2.9499 9.2415 7.9644 14.768 28.499 19.822 45.829 11.285 16.501-8.1286 24.166-25.666 17.987-40.073l-0.33105-0.74266-8.3822-17.016c-0.0149-0.0279-0.0264-0.0563-0.0414-0.0841-7.0452-13.067-25.181-17.554-40.47-10.023z" fill="url(#linearGradient7005)"/></clipPath><filter id="k"><feGaussianBlur id="gh" stdDeviation="0.60163542"/></filter><clipPath id="n"><circle id="gi" transform="matrix(1.0731 0 -2.0618e-5 1.0737 -111.42 18.59)" cx="1524.8" cy="-264.5" r="24.75" fill="none" stroke="#000" stroke-linecap="round" stroke-linejoin="round" stroke-miterlimit="4" stroke-width="3.5401"/></clipPath><filter id="l"><feGaussianBlur id="gj" stdDeviation="0.77462889"/></filter><linearGradient id="g" x1="1006.9" x2="1021.9" y1="-277.2" y2="-277.29" gradientUnits="userSpaceOnUse" xlink:href="#a" spreadMethod="reflect"/><filter id="j"><feGaussianBlur id="gk" stdDeviation="0.26782521"/></filter><linearGradient id="da" x1="1320.7" x2="1395.6" y1="-304.53" y2="-307.28" gradientTransform="matrix(.67052 -.037103 .03719 .66896 -866.91 319.28)" gradientUnits="userSpaceOnUse" xlink:href="#d"/><linearGradient id="af" x1="924.29" x2="940.11" y1="-593.1" y2="-593.1" gradientUnits="userSpaceOnUse" xlink:href="#w"/><clipPath id="az"><path id="gl" d="m926.54-604.18c-2.5375 0.87821-4.8362 2.4631-6.5728 4.514-2.478 2.9265-2.936 7.0037-2.8917 10.99-7.9874 3.3515-17.572 9.2538-20.221 24.064l-1.9607 22.987 0.0881-0.032c-0.0226 0.12103-0.0478 0.23558-0.0695 0.35769l64.906 7.3539 13.277-4.8204c7.2976-2.6494 8.9402-11.904 7.1545-19.486l0.0293-0.0107-0.064-0.17624c-0.0726-0.29818-0.16729-0.58093-0.25052-0.87318l-0.0559-0.24567c-0.10998-0.37091-0.20935-0.74922-0.33594-1.1081l-5.4982-19.082c-0.97043-4.2761-3.1393-8.001-6.0612-9.369l-31.27-14.612c-3.3103-1.5468-6.9414-1.5802-10.204-0.45105z" fill="url(#linearGradient6054)" fill-rule="evenodd"/></clipPath><filter id="al"><feGaussianBlur id="gm" stdDeviation="1.0516022"/></filter><linearGradient id="ae" x1="1050.3" x2="1053.8" y1="-359.13" y2="-304.63" gradientUnits="userSpaceOnUse" xlink:href="#a"/><filter id="aq"><feGaussianBlur id="gn" stdDeviation="0.3713333"/></filter><filter id="c"><feGaussianBlur id="go" stdDeviation="0.26202037"/></filter><linearGradient id="ad" x1="1308" x2="1315.7" y1="-275" y2="-297.2" gradientTransform="matrix(1.3493 0 0 1.2714 -573.01 56.715)" gradientUnits="userSpaceOnUse" xlink:href="#d"/><linearGradient id="cz" x1="1308" x2="1315.7" y1="-275" y2="-297.2" gradientTransform="matrix(.72637 0 0 .68288 -900.18 277.53)" gradientUnits="userSpaceOnUse" xlink:href="#d"/><radialGradient id="ca" cx="1039.5" cy="-288.62" r="43.099" fx="1057.8" fy="-298.02" gradientTransform="matrix(.4338 .36344 -.24202 .28754 -488.61 -220.38)" gradientUnits="userSpaceOnUse" xlink:href="#b"/><linearGradient id="ac" x1="1143.4" x2="1150.2" y1="-320.31" y2="-265.86" gradientUnits="userSpaceOnUse" xlink:href="#b"/><clipPath id="bc"><path id="gp" d="m1165.6-265.86h14.142c12.521 0 17.134-21.128 10.597-27.674l-26.994-26.994c-5.0806-5.0806-13.106-5.4829-19.003-2.1071-3.6812 2.1074-5.6787 6.1876-7.1376 10.349-9.5696 0.4695-21.758 2.9813-30.103 17.38z" fill="#3d3b3c" fill-rule="evenodd"/></clipPath><filter id="ap"><feGaussianBlur id="gq" stdDeviation="1.4374244"/></filter><linearGradient id="e" x1="1308" x2="1315.7" y1="-275" y2="-297.2" gradientTransform="matrix(.2251 0 0 .21212 823.51 -253.77)" gradientUnits="userSpaceOnUse" xlink:href="#d"/><linearGradient id="cy" x1="1043.1" x2="1024.2" y1="-326.56" y2="-321.84" gradientUnits="userSpaceOnUse" xlink:href="#b"/><clipPath id="bb"><path id="gr" d="m1054.4-343.22c-2.6849-0.0405-5.3864 0.66479-7.7187 2-3.328 1.9052-5.1499 5.5813-6.4687 9.3438-8.6516 0.42447-19.675 2.7017-27.219 15.719l-9.6875 20.938h0.094c-0.063 0.10604-0.1253 0.20514-0.1874 0.3125l58.5 29.062h14.125c7.7637 1e-5 12.466-8.1381 13.375-15.875h0.031v-0.1875c0.034-0.30506 0.041-0.60314 0.062-0.90625l0.031-0.25c0.023-0.38617 0.059-0.77568 0.062-1.1562l1.3438-19.812c0.5471-4.3506-0.2204-8.592-2.5-10.875l-24.406-24.406c-2.5837-2.5837-5.9854-3.8542-9.4376-3.9062z" fill="url(#linearGradient5921)" fill-rule="evenodd"/></clipPath><filter id="an" x="-.11477" y="-.086885" width="1.2295" height="1.1738"><feGaussianBlur id="gs" stdDeviation="0.87156593"/></filter><radialGradient id="s" cx="1058" cy="-345.89" r="11.965" gradientTransform="matrix(1 0 0 .46555 .28033 -180.87)" gradientUnits="userSpaceOnUse" xlink:href="#a"/><clipPath id="ba"><path id="gt" d="m1054.4-343.22c-2.6849-0.0405-5.3864 0.66479-7.7187 2-3.328 1.9052-5.1499 5.5813-6.4687 9.3438-8.6516 0.42447-19.675 2.7017-27.219 15.719l-9.6875 20.938h0.094c-0.063 0.10604-0.1253 0.20514-0.1874 0.3125l58.5 29.062h14.125c7.7637 1e-5 12.466-8.1381 13.375-15.875h0.031v-0.1875c0.034-0.30506 0.041-0.60314 0.062-0.90625l0.031-0.25c0.023-0.38617 0.059-0.77568 0.062-1.1562l1.3438-19.812c0.5471-4.3506-0.2204-8.592-2.5-10.875l-24.406-24.406c-2.5837-2.5837-5.9854-3.8542-9.4376-3.9062z" fill="url(#linearGradient5987)" fill-rule="evenodd"/></clipPath><filter id="am"><feGaussianBlur id="gu" stdDeviation="0.27275091"/></filter><linearGradient id="ab" x1="1040.7" x2="1051.4" y1="-346.51" y2="-306.53" gradientUnits="userSpaceOnUse" xlink:href="#b"/><clipPath id="dn"><path id="gv" d="m1054.7-342.29c-2.6599-0.04-5.3362 0.65757-7.6468 1.9783-3.297 1.8845-5.102 5.5208-6.4085 9.2424-8.5711 0.41986-19.492 2.6724-26.965 15.548l-9.5973 20.71h0.093c-0.062 0.10489-0.1241 0.20292-0.1857 0.30911l57.956 28.747h13.994c7.6914 1e-5 12.35-8.0498 13.25-15.703h0.031v-0.18546c0.033-0.30175 0.041-0.5966 0.062-0.89642l0.031-0.24729c0.023-0.38198 0.058-0.76726 0.062-1.1437l1.3313-19.597c0.542-4.3034-0.2184-8.4988-2.4767-10.757l-24.179-24.141c-2.5597-2.5556-5.9297-3.8124-9.3498-3.8639z" fill="url(#linearGradient7266)" fill-rule="evenodd"/></clipPath><filter id="ak"><feGaussianBlur id="gw" stdDeviation="0.083138439"/></filter><radialGradient id="bz" cx="1041.8" cy="-325.97" r="5.6265" gradientTransform="matrix(1.2777 .022216 -.0069657 .40061 -291.86 -217.51)" gradientUnits="userSpaceOnUse" xlink:href="#a"/><filter id="aj" x="-.11233" y="-.22652" width="1.2247" height="1.453"><feGaussianBlur id="gx" stdDeviation="0.4135875"/></filter><linearGradient id="cx" x1="990.33" x2="1000.7" y1="-289.28" y2="-309.96" gradientTransform="translate(.25 .25)" gradientUnits="userSpaceOnUse" xlink:href="#b"/><filter id="dd" x="-.1955" y="-.091377" width="1.391" height="1.1828"><feGaussianBlur id="gy" stdDeviation="0.90989293"/></filter><linearGradient id="cw" x1="1320.7" x2="1395.6" y1="-304.53" y2="-307.28" gradientTransform="matrix(-1.0667 0 0 1.0667 2455.9 38.933)" gradientUnits="userSpaceOnUse" xlink:href="#d"/><linearGradient id="cv" x1="1308" x2="1315.7" y1="-275" y2="-297.2" gradientTransform="matrix(1.1537 0 0 1.0872 -535.5 49.5)" gradientUnits="userSpaceOnUse" xlink:href="#d"/><linearGradient id="cu" x1="1044.4" x2="1029.3" y1="-328.56" y2="-323.61" gradientUnits="userSpaceOnUse" xlink:href="#b"/><radialGradient id="by" cx="1041.8" cy="-325.97" r="5.6265" gradientTransform="matrix(1.3444 0 0 .40067 -359.14 -194.32)" gradientUnits="userSpaceOnUse" xlink:href="#a"/><linearGradient id="ct" x1="1587.5" x2="1626.3" y1="-287.56" y2="-275.46" gradientTransform="matrix(.67557 0 0 .674 -1015.4 245.55)" gradientUnits="userSpaceOnUse" xlink:href="#p" spreadMethod="reflect"/><linearGradient id="p"><stop id="gz" stop-color="#3a3a3c" offset="0"/><stop id="ha" stop-color="#5d5d60" offset=".5"/><stop id="hb" stop-color="#97989b" offset="1"/></linearGradient><linearGradient id="cs" x1="1342.2" x2="1379.2" y1="-271.97" y2="-258.92" gradientTransform="matrix(1.0667 0 0 1.0667 -380.14 0)" gradientUnits="userSpaceOnUse" xlink:href="#d" spreadMethod="reflect"/><clipPath id="ay"><path id="hc" d="m919.49-293.5c-12.601 0-23.183 6.5728-27.625 16l-7.1562 14.5-1.9063 4.2812c-1.0499 3.0176-1.5614 6.2359-1.4375 9.5938 0.6188 16.767 16.806 30.375 36.125 30.375 18.395 0 33.02-12.345 33.844-28l0.0312-0.8125v-18.969c-1e-3 -0.0316 1e-3 -0.0621 0-0.0937-0.5459-14.835-14.832-26.875-31.875-26.875z" fill="url(#linearGradient6969)"/></clipPath><filter id="ai" x="-.10593" y="-.14073" width="1.2119" height="1.2815"><feGaussianBlur id="hd" stdDeviation="3.802569"/></filter><radialGradient id="bx" cx="1523.9" cy="-239.08" r="25.379" fx="1530.7" fy="-239.92" gradientTransform="matrix(1.5767 -.34694 .23734 1.1836 -822.12 572.61)" gradientUnits="userSpaceOnUse" xlink:href="#a"/><filter id="dc"><feGaussianBlur id="he" stdDeviation="0.37286051"/></filter><radialGradient id="bw" cx="1523.9" cy="-239.08" r="25.379" fx="1520.8" fy="-241.94" gradientTransform="matrix(1.9446 -.374 .34188 1.2759 -1809.5 638.39)" gradientUnits="userSpaceOnUse" xlink:href="#b"/><radialGradient id="bv" cx="1524.2" cy="-260.48" r="24.75" fx="1521.6" fy="-250.72" gradientTransform="matrix(1.5453 .12709 -.063796 1.7297 -1290.2 -4.8438)" gradientUnits="userSpaceOnUse" xlink:href="#v"/><linearGradient id="v"><stop id="hf" stop-color="#eb7331" offset="0"/><stop id="hg" stop-color="#eb7331" stop-opacity="0" offset="1"/></linearGradient><linearGradient id="cr" x1="1514.1" x2="1527.5" y1="-288.7" y2="-257.33" gradientTransform="matrix(1.2202 0 0 1.0598 -778.49 13.525)" gradientUnits="userSpaceOnUse" xlink:href="#a"/><radialGradient id="bu" cx="1005.1" cy="-231.96" r="19.922" fx="1003.9" fy="-217.38" gradientTransform="matrix(.99834 .057597 -.029412 .5098 -5.1539 -171.6)" gradientUnits="userSpaceOnUse" xlink:href="#t"/><linearGradient id="t"><stop id="hh" stop-color="#a04e21" offset="0"/><stop id="hi" stop-color="#a04e21" stop-opacity="0" offset="1"/></linearGradient><filter id="ah" x="-.041083" y="-.10221" width="1.0822" height="1.2044"><feGaussianBlur id="hj" stdDeviation="0.81845238"/></filter><clipPath id="ax"><ellipse id="hk" transform="matrix(1 0 .036881 .99932 0 0)" cx="995.89" cy="-284.9" rx="31.129" ry="27.036" fill="url(#radialGradient9002)"/></clipPath><linearGradient id="f" x1="1191" x2="1218.4" y1="-239.69" y2="-239.69" gradientTransform="translate(-184.75 -8.5938)" gradientUnits="userSpaceOnUse" xlink:href="#cb" spreadMethod="reflect"/><linearGradient id="cb"><stop id="hl" stop-color="#f4bea0" offset="0"/><stop id="hm" stop-color="#e5702f" stop-opacity="0" offset="1"/></linearGradient><filter id="i"><feGaussianBlur id="hn" stdDeviation="0.37171029"/></filter><radialGradient id="bt" cx="1029.2" cy="-242.68" r="4.9718" fx="1028.6" fy="-244.89" gradientTransform="matrix(1.0667 0 0 1.0667 -6.1872 -7.6603)" gradientUnits="userSpaceOnUse" xlink:href="#u"/><linearGradient id="u"><stop id="ho" stop-color="#fff0c3" offset="0"/><stop id="hp" stop-color="#c13d00" stop-opacity="0" offset="1"/></linearGradient><linearGradient id="cq" x1="941.54" x2="905.31" y1="-297.18" y2="-260.96" gradientTransform="matrix(1.0667 0 0 1.0667 96.25 0)" gradientUnits="userSpaceOnUse" xlink:href="#a"/><linearGradient id="cp" x1="1342.2" x2="1379.2" y1="-271.97" y2="-258.92" gradientTransform="matrix(-.67032 -.040544 -.040638 .66876 1015.6 313.98)" gradientUnits="userSpaceOnUse" xlink:href="#d" spreadMethod="reflect"/><radialGradient id="bs" cx="1523.9" cy="-239.08" r="25.379" fx="1517.7" fy="-243.73" gradientTransform="matrix(1.5767 -.34694 .23734 1.1836 -822.12 572.61)" gradientUnits="userSpaceOnUse" xlink:href="#a"/><filter id="dl"><feGaussianBlur id="hq" stdDeviation="0.50964986"/></filter><radialGradient id="br" cx="1514" cy="-242.04" r="25.379" fx="1510.8" fy="-244.91" gradientTransform="matrix(-1.2078 -.3084 -.26346 .78695 1889.5 768.55)" gradientUnits="userSpaceOnUse" xlink:href="#b"/><radialGradient id="bq" cx="1524.2" cy="-260.48" r="24.75" fx="1521.6" fy="-250.72" gradientTransform="matrix(.97288 .07983 -.040164 1.0865 -1615 249.22)" gradientUnits="userSpaceOnUse" xlink:href="#v"/><linearGradient id="co" x1="1531.7" x2="1516.6" y1="-294.2" y2="-258.55" gradientTransform="matrix(.76819 0 0 .6657 -1292.9 260.76)" gradientUnits="userSpaceOnUse" xlink:href="#a"/><radialGradient id="bp" cx="1005.1" cy="-231.96" r="19.922" fx="1003.9" fy="-217.38" gradientTransform="matrix(1 0 0 .54412 0 -105.75)" gradientUnits="userSpaceOnUse" xlink:href="#t"/><radialGradient id="bo" cx="1029.2" cy="-242.68" r="4.9718" fx="1028.6" fy="-244.89" gradientTransform="matrix(.67155 0 0 .66999 -821.47 247.28)" gradientUnits="userSpaceOnUse" xlink:href="#u"/><linearGradient id="cn" x1="871.22" x2="922.89" y1="-296.4" y2="-253.66" gradientTransform="matrix(-.67032 -.040544 -.040638 .66876 716.21 295.87)" gradientUnits="userSpaceOnUse" xlink:href="#a"/><linearGradient id="cm" x1="1303.7" x2="1317.4" y1="-279.2" y2="-290.21" gradientUnits="userSpaceOnUse" xlink:href="#b"/><clipPath id="dq"><path id="hr" d="m1294.6-283.29s6.9797-5.0262 13.955-4.6157c7.7808 0.45797 13.258 6.4703 13.258 6.4703l-8.2071 7.7358s-2.3698-2.1626-5.3097-2.4621c-2.9401-0.29949-6.4502 1.2641-6.4502 1.2641z" fill="url(#linearGradient10263)" fill-rule="evenodd"/></clipPath><filter id="dm" x="-.16129" y="-.16124" width="1.3226" height="1.3225"><feGaussianBlur id="hs" stdDeviation="0.98542663"/></filter><linearGradient id="cl" x1="1069.7" x2="1075.2" y1="-301.57" y2="-301.57" gradientTransform="matrix(.83698 0 -.0092156 .56342 -834.75 225.87)" gradientUnits="userSpaceOnUse" xlink:href="#p" spreadMethod="reflect"/><linearGradient id="ck" x1="1587.5" x2="1603.3" y1="-287.56" y2="-287.56" gradientTransform="matrix(.83698 0 0 .83503 -1274.3 301.08)" gradientUnits="userSpaceOnUse" xlink:href="#p" spreadMethod="reflect"/><linearGradient id="cj" x1="1308" x2="1311.5" y1="-275" y2="-291.92" gradientTransform="matrix(.9053 0 0 .8511 -1119.4 304.95)" gradientUnits="userSpaceOnUse" xlink:href="#d"/><linearGradient id="ci" x1="1074.8" x2="1079" y1="-311.69" y2="-302.51" gradientTransform="matrix(.83698 0 0 .83503 -832.31 306.95)" gradientUnits="userSpaceOnUse" xlink:href="#b"/><linearGradient id="ch" x1="1303" x2="1307.9" y1="-275.4" y2="-280.13" gradientTransform="matrix(.9053 0 0 .8511 -1119.4 304.95)" gradientUnits="userSpaceOnUse" xlink:href="#b"/></defs><path id="ht" transform="matrix(1.1397 0 0 1.1397 -.40921 -13.86)" d="m63.995 13.979c-2.7668 0.0146-4.5432 0.14699-7.2893 0.52821-0.81298 0.12946-1.479 0.65967-1.479 1.479l-0.5018 7.976c-0.0748 0.80726-0.63946 1.339-1.2413 1.5318-0.01845 0.0059-0.03431 0.02115-0.05282 0.02641-3.4793 0.93402-6.7805 2.3005-9.8247 4.0672-0.55065 0.23827-1.2611 0.22391-1.8487-0.2641l-5.9952-5.2821c-0.57934-0.57934-1.42-0.48332-2.0864 0-2.2113 1.6722-3.5794 2.8342-5.5462 4.7803-1.9461 1.9668-3.1081 3.3349-4.7803 5.5462-0.48332 0.6664-0.57934 1.5071 0 2.0864l5.2821 5.9952c0.40036 0.48213 0.62219 1.1062 0.39616 1.5582l-0.05282 0.10564c-1.8978 3.2112-3.3762 6.7073-4.3313 10.406-0.01001 0.01744-0.01578 0.03563-0.02641 0.05282-0.26808 0.43342-0.72292 0.78731-1.3469 0.84514l-7.976 0.5018c-0.81931 0-1.3495 0.66601-1.479 1.479-0.38122 2.746-0.5136 4.5224-0.52821 7.2893 0.0146 2.7668 0.14699 4.5432 0.52821 7.2893 0.12947 0.81297 0.65968 1.479 1.479 1.479l7.976 0.5018c0.73303 0.06792 1.2199 0.54644 1.4526 1.0828 0.93238 3.5017 2.3379 6.8153 4.12 9.8775 0.31517 0.56498 0.32253 1.3644-0.21128 2.0072l-5.2821 5.9952c-0.57934 0.57934-0.48332 1.42 0 2.0864 1.6722 2.2113 2.8342 3.5794 4.7803 5.5462 1.9668 1.9461 3.3349 3.1081 5.5462 4.7803 0.66641 0.48331 1.5071 0.57934 2.0864 0l5.9952-5.2821c0.64284-0.53381 1.4422-0.52645 2.0072-0.21128l0.07923-0.0792c2.9813 1.7048 6.1933 3.0505 9.587 3.9616v0.13205c0.62236 0.17664 1.217 0.7262 1.2941 1.5582l0.5018 7.976c0 0.8193 0.66601 1.3495 1.479 1.479 2.746 0.38122 4.5224 0.51361 7.2893 0.52821 2.7668-0.0146 4.5432-0.14699 7.2893-0.52821 0.81298-0.12946 1.479-0.65968 1.479-1.479l0.5018-7.976c0.07709-0.83202 0.67176-1.3816 1.2941-1.5582v-0.13205c3.3937-0.91104 6.6057-2.2568 9.587-3.9616l0.07923 0.0792c0.56498-0.31517 1.3644-0.32253 2.0072 0.21128l5.9952 5.2821c0.57934 0.57934 1.42 0.48332 2.0864 0 2.2113-1.6722 3.5794-2.8342 5.5462-4.7803 1.9461-1.9668 3.1081-3.3349 4.7803-5.5462 0.48333-0.6664 0.57935-1.5071 0-2.0864l-5.2821-5.9952c-0.53381-0.64284-0.52645-1.4422-0.21128-2.0072 1.7822-3.0622 3.1877-6.3758 4.12-9.8775 0.23267-0.53639 0.71955-1.0149 1.4526-1.0828l7.976-0.5018c0.81932 0 1.3495-0.66601 1.479-1.479 0.38122-2.746 0.5136-4.5224 0.52821-7.2893-0.0146-2.7668-0.14699-4.5432-0.52821-7.2893-0.12946-0.81298-0.65967-1.479-1.479-1.479l-7.976-0.5018c-0.62401-0.05782-1.0788-0.41172-1.3469-0.84514-5e-3 -0.01853-0.0216-0.0343-0.0264-0.05282-0.95512-3.6985-2.6632-7.0695-4.3313-10.406l-0.05282-0.10564c-0.22603-0.45206-0.0042-1.0761 0.39616-1.5582l5.2821-5.9952c0.57935-0.57935 0.48332-1.42 0-2.0864-1.6722-2.2113-2.8342-3.5794-4.7803-5.5462-1.9668-1.9461-3.3349-3.1081-5.5462-4.7803-0.66641-0.48332-1.5071-0.57935-2.0864 0l-5.9952 5.2821c-0.58769 0.48801-1.2981 0.50237-1.8487 0.2641-3.0442-1.7667-6.3454-3.1332-9.8247-4.0672-0.01851-0.0053-0.03437-0.0205-0.05282-0.02641-0.60183-0.19283-1.1665-0.72454-1.2413-1.5318l-0.5018-7.976c0-0.81932-0.66601-1.3495-1.479-1.479-2.746-0.38122-4.5224-0.5136-7.2893-0.52821zm0 37.186c7.4642 0 13.522 6.0579 13.522 13.522s-6.0579 13.522-13.522 13.522-13.522-6.0579-13.522-13.522 6.0579-13.522 13.522-13.522z" fill="#171717" filter="url(#di)" opacity=".39749"/><path id="hu" d="m72.088 3.1159c-3.1534 0.01664-5.178 0.16752-8.3078 0.60201-0.92657 0.14755-1.6856 0.75184-1.6856 1.6856l-0.57191 9.0904c-0.08525 0.92006-0.72881 1.5261-1.4147 1.7458-0.02102 0.0067-0.0391 0.02411-0.0602 0.0301-3.9654 1.0645-7.7278 2.622-11.197 4.6355-0.62758 0.27156-1.4372 0.2552-2.107-0.301l-6.8328-6.0201c-0.66028-0.66029-1.6184-0.55084-2.3779 0-2.5203 1.9058-4.0795 3.2302-6.3211 5.4482-2.218 2.2416-3.5424 3.8008-5.4482 6.3211-0.55084 0.75952-0.66028 1.7177 0 2.3779l6.0201 6.8328c0.4563 0.5495 0.70912 1.2607 0.45151 1.7759l-0.0602 0.1204c-2.1629 3.6598-3.8479 7.6444-4.9365 11.86-0.01141 0.01987-0.01798 0.04061-0.0301 0.0602-0.30554 0.49398-0.82393 0.89732-1.5351 0.96322l-9.0904 0.57191c-0.93378 0-1.5381 0.75906-1.6856 1.6856-0.43449 3.1297-0.58537 5.1543-0.60201 8.3078 0.01664 3.1534 0.16752 5.178 0.60201 8.3078 0.14756 0.92656 0.75185 1.6856 1.6856 1.6856l9.0904 0.57191c0.83544 0.07741 1.3903 0.62279 1.6555 1.2341 1.0627 3.991 2.6645 7.7676 4.6957 11.258 0.3592 0.64392 0.36759 1.555-0.24081 2.2876l-6.0201 6.8328c-0.66028 0.66028-0.55085 1.6184 0 2.3779 1.9058 2.5203 3.2302 4.0795 5.4482 6.3211 2.2416 2.218 3.8008 3.5424 6.3211 5.4482 0.75952 0.55084 1.7177 0.66029 2.3779 0l6.8328-6.0201c0.73266-0.6084 1.6437-0.60001 2.2876-0.24081l0.0903-0.0904c3.3979 1.943 7.0587 3.4768 10.927 4.5151v0.15049c0.70932 0.20133 1.3871 0.82767 1.4749 1.776l0.57191 9.0904c0 0.93378 0.75906 1.5381 1.6856 1.6856 3.1297 0.43449 5.1543 0.58537 8.3078 0.60201 3.1534-0.0166 5.178-0.16752 8.3078-0.60201 0.92656-0.14755 1.6856-0.75185 1.6856-1.6856l0.57191-9.0904c0.08787-0.94828 0.76561-1.5746 1.4749-1.776v-0.15049c3.8679-1.0383 7.5286-2.5721 10.927-4.5151l0.0903 0.0904c0.64392-0.3592 1.555-0.36759 2.2876 0.24081l6.8328 6.0201c0.66028 0.66029 1.6184 0.55085 2.3779 0 2.5203-1.9058 4.0795-3.2302 6.3211-5.4482 2.218-2.2416 3.5424-3.8009 5.4482-6.3211 0.55086-0.7595 0.6603-1.7176 0-2.3779l-6.0201-6.8328c-0.60839-0.73266-0.6-1.6437-0.2408-2.2876 2.0312-3.49 3.633-7.2667 4.6957-11.258 0.26518-0.61134 0.82009-1.1567 1.6555-1.2341l9.0904-0.57191c0.9338 0 1.5381-0.75907 1.6856-1.6856 0.43449-3.1297 0.58537-5.1543 0.60202-8.3078-0.0166-3.1534-0.16753-5.178-0.60202-8.3078-0.14755-0.92657-0.75184-1.6856-1.6856-1.6856l-9.0904-0.57191c-0.7112-0.0659-1.2296-0.46924-1.5351-0.96322-5e-3 -0.02112-0.0246-0.03909-0.0301-0.0602-1.0886-4.2152-3.0353-8.0572-4.9365-11.86l-0.0602-0.1204c-0.25761-0.51523-4e-3 -1.2264 0.45152-1.7759l6.0201-6.8328c0.6603-0.6603 0.55085-1.6184 0-2.3779-1.9058-2.5203-3.2302-4.0795-5.4482-6.3211-2.2416-2.2181-3.8008-3.5424-6.3211-5.4482-0.75951-0.55084-1.7176-0.66029-2.378 0l-6.8328 6.0201c-0.6698 0.5562-1.4795 0.57256-2.107 0.30101-3.4696-2.0135-7.232-3.571-11.197-4.6355-0.0211-0.0061-0.03917-0.02336-0.0602-0.0301-0.68592-0.21978-1.3295-0.82578-1.4147-1.7458l-0.57191-9.0904c0-0.93379-0.75907-1.5381-1.6856-1.6856-3.1297-0.43449-5.1543-0.58537-8.3078-0.60201zm0 42.382c8.5071-1e-6 15.411 6.9044 15.411 15.411-1e-6 8.5071-6.9044 15.411-15.411 15.411-8.5071 0-15.411-6.9044-15.411-15.411 1e-6 -8.5071 6.9044-15.411 15.411-15.411z" fill="url(#db)"/><path id="hv" transform="matrix(.96322 0 0 .96322 10.255 156.07)" d="m76.906-70.062c-2.9123 3.9721-7.6071 6.5625-12.906 6.5625-4.8958 0-9.2831-2.1887-12.219-5.6562l-31.5 30.75c0.40883 0.434 0.80712 0.86458 1.2812 1.3438 2.3272 2.3027 3.946 3.6777 6.5625 5.6562 0.78852 0.57188 1.7832 0.6855 2.4688 0l7.0938-6.25c0.76064-0.63163 1.7065-0.62292 2.375-0.25l0.09375-0.09375c3.5277 2.0172 7.3282 3.6095 11.344 4.6875v0.15625c0.7364 0.20901 1.44 0.85927 1.5312 1.8438l0.59375 9.4375c1e-6 0.96944 0.78805 1.5968 1.75 1.75 3.2492 0.45108 5.3511 0.60772 8.625 0.625 3.2739-0.01728 5.3758-0.17392 8.625-0.625 0.96195-0.15319 1.75-0.78056 1.75-1.75l0.59375-9.4375c0.09122-0.98448 0.79485-1.6347 1.5312-1.8438v-0.15625c4.0156-1.078 7.8161-2.6703 11.344-4.6875l0.09375 0.09375c0.66851-0.37292 1.6144-0.38163 2.375 0.25l7.0938 6.25c0.6855 0.68551 1.6802 0.57189 2.4688 0 2.6165-1.9786 4.2353-3.3535 6.5625-5.6562 0.48542-0.49057 0.8952-0.93141 1.3125-1.375z" clip-path="url(#bd)" fill="url(#o)" filter="url(#av)" opacity=".43123"/><path id="hw" transform="matrix(-.96322 0 0 -.96322 133.92 -15.659)" d="m76.906-70.062c-2.9123 3.9721-7.6071 6.5625-12.906 6.5625-4.8958 0-9.2831-2.1887-12.219-5.6562l-31.5 30.75c0.40883 0.434 0.80712 0.86458 1.2812 1.3438 2.3272 2.3027 3.946 3.6777 6.5625 5.6562 0.78852 0.57188 1.7832 0.6855 2.4688 0l7.0938-6.25c0.76064-0.63163 1.7065-0.62292 2.375-0.25l0.09375-0.09375c3.5277 2.0172 7.3282 3.6095 11.344 4.6875v0.15625c0.7364 0.20901 1.44 0.85927 1.5312 1.8438l0.59375 9.4375c1e-6 0.96944 0.78805 1.5968 1.75 1.75 3.2492 0.45108 5.3511 0.60772 8.625 0.625 3.2739-0.01728 5.3758-0.17392 8.625-0.625 0.96195-0.15319 1.75-0.78056 1.75-1.75l0.59375-9.4375c0.09122-0.98448 0.79485-1.6347 1.5312-1.8438v-0.15625c4.0156-1.078 7.8161-2.6703 11.344-4.6875l0.09375 0.09375c0.66851-0.37292 1.6144-0.38163 2.375 0.25l7.0938 6.25c0.6855 0.68551 1.6802 0.57189 2.4688 0 2.6165-1.9786 4.2353-3.3535 6.5625-5.6562 0.48542-0.49057 0.8952-0.93141 1.3125-1.375z" clip-path="url(#bd)" fill="url(#o)" filter="url(#av)" opacity=".43123"/><path id="hx" transform="matrix(.96322 0 0 .96322 -122 -.35172)" d="m201.5 3.6c-3.2738 0.01728-5.3758 0.17392-8.625 0.625-0.96195 0.15318-1.75 0.78055-1.75 1.75l-0.59375 9.4375c-0.0885 0.95519-0.75664 1.5843-1.4688 1.8125-0.0218 7e-3 -0.0406 0.02503-0.0625 0.03125-4.1168 1.1052-8.0229 2.7221-11.625 4.8125-0.65155 0.28193-1.4921 0.26494-2.1875-0.3125l-7.0938-6.25c-0.6855-0.6855-1.6802-0.57188-2.4688 0-2.6165 1.9786-4.2353 3.3535-6.5625 5.6562-2.3027 2.3272-3.6777 3.946-5.6562 6.5625-0.57188 0.78852-0.6855 1.7832 0 2.4688l6.25 7.0938c0.47372 0.57048 0.7362 1.3088 0.46875 1.8438l-0.0625 0.125c-2.2455 3.7996-3.9949 7.9363-5.125 12.312-0.0118 0.02064-0.0187 0.04216-0.0313 0.0625-0.31721 0.51284-0.85539 0.93158-1.5938 1l-9.4375 0.59375c-0.96944 0-1.5968 0.78805-1.75 1.75-0.45108 3.2492-0.60772 5.3511-0.625 8.625 0.0173 3.2739 0.17392 5.3758 0.625 8.625 0.15319 0.96195 0.78056 1.75 1.75 1.75l9.4375 0.59375c0.86735 0.08037 1.4434 0.64657 1.7188 1.2812 1.1032 4.1434 2.7662 8.0642 4.875 11.688 0.37292 0.66851 0.38163 1.6144-0.25 2.375l-6.25 7.0938c-0.6855 0.6855-0.57188 1.6802 0 2.4688 1.9786 2.6165 3.3535 4.2353 5.6562 6.5625 2.3272 2.3027 3.946 3.6777 6.5625 5.6562 0.78852 0.57188 1.7832 0.6855 2.4688 0l7.0938-6.25c0.76064-0.63163 1.7065-0.62292 2.375-0.25l0.0937-0.0937c3.5277 2.0172 7.3282 3.6095 11.344 4.6875v0.15625c0.7364 0.20901 1.44 0.85927 1.5312 1.8438l0.59375 9.4375c0 0.96944 0.78805 1.5968 1.75 1.75 3.2492 0.45108 5.3512 0.60772 8.625 0.625 3.2738-0.0173 5.3758-0.17392 8.625-0.625 0.96195-0.15319 1.75-0.78056 1.75-1.75l0.59375-9.4375c0.0912-0.98448 0.79485-1.6347 1.5312-1.8438v-0.15625c4.0156-1.078 7.8161-2.6703 11.344-4.6875l0.0937 0.0937c0.66851-0.37292 1.6144-0.38163 2.375 0.25l7.0937 6.25c0.6855 0.68551 1.6802 0.57189 2.4688 0 2.6165-1.9786 4.2353-3.3535 6.5625-5.6562 2.3027-2.3272 3.6777-3.946 5.6562-6.5625 0.57189-0.78851 0.68551-1.7832 0-2.4688l-6.25-7.0938c-0.63163-0.76064-0.62292-1.7065-0.25-2.375 2.1088-3.6233 3.7718-7.5441 4.875-11.688 0.27531-0.63468 0.8514-1.2009 1.7188-1.2812l9.4375-0.59375c0.96945 0 1.5968-0.78805 1.75-1.75 0.45108-3.2492 0.60772-5.3511 0.625-8.625-0.0173-3.2739-0.17392-5.3758-0.625-8.625-0.15318-0.96195-0.78055-1.75-1.75-1.75l-9.4375-0.59375c-0.73836-0.06842-1.2765-0.48716-1.5938-1-6e-3 -0.02192-0.0256-0.04059-0.0313-0.0625-1.1301-4.3762-3.1512-8.3649-5.125-12.312l-0.0625-0.125c-0.26745-0.5349-5e-3 -1.2733 0.46875-1.8438l6.25-7.0938c0.68551-0.68551 0.57188-1.6802 0-2.4688-1.9786-2.6165-3.3535-4.2353-5.6562-6.5625-2.3272-2.3028-3.946-3.6777-6.5625-5.6562-0.78852-0.57188-1.7832-0.68551-2.4688 0l-7.0937 6.25c-0.69538 0.57744-1.536 0.59443-2.1875 0.3125-3.6021-2.0904-7.5082-3.7073-11.625-4.8125-0.0219-0.0062-0.0407-0.02425-0.0625-0.03125-0.71211-0.22817-1.3802-0.85731-1.4688-1.8125l-0.59355-9.4375c0-0.96945-0.78805-1.5968-1.75-1.75-3.2492-0.45108-5.3512-0.60772-8.625-0.625zm0 44c8.832-1e-6 16 7.168 16 16s-7.168 16-16 16-16-7.168-16-16c0-8.832 7.168-16 16-16z" clip-path="url(#do)" fill="none" filter="url(#dj)" stroke="url(#bl)" stroke-miterlimit="4" stroke-width=".99666"/><path id="hy" d="m72.088 3.1159c-3.1534 0.01664-5.178 0.16752-8.3078 0.60201-0.92657 0.14755-1.6856 0.75184-1.6856 1.6856l-0.57191 9.0904c-0.08525 0.92006-0.72881 1.5261-1.4147 1.7458-0.02102 0.0067-0.0391 0.02411-0.0602 0.0301-3.9654 1.0645-7.7278 2.622-11.197 4.6355-0.62758 0.27156-1.4372 0.2552-2.107-0.301l-6.8328-6.0201c-0.66028-0.66029-1.6184-0.55084-2.3779 0-2.5203 1.9058-4.0795 3.2302-6.3211 5.4482-2.218 2.2416-3.5424 3.8008-5.4482 6.3211-0.55085 0.75952-0.66029 1.7177 0 2.3779l6.0201 6.8328c0.4563 0.5495 0.70912 1.2607 0.45151 1.7759l-0.0602 0.1204c-2.1629 3.6598-3.8479 7.6444-4.9365 11.86-0.01141 0.01987-0.01798 0.04061-0.0301 0.0602-0.30554 0.49398-0.82393 0.89732-1.5351 0.96322l-9.0904 0.57191c-0.93378 0-1.5381 0.75906-1.6856 1.6856-0.43449 3.1297-0.58537 5.1543-0.60201 8.3078 0.01664 3.1534 0.16752 5.178 0.60201 8.3078 0.14756 0.92656 0.75185 1.6856 1.6856 1.6856l9.0904 0.57191c0.83545 0.07741 1.3903 0.62278 1.6555 1.2341 1.0627 3.991 2.6645 7.7676 4.6957 11.258 0.3592 0.64392 0.36759 1.555-0.24081 2.2876l-6.0201 6.8328c-0.66029 0.66028-0.55085 1.6184 0 2.3779 1.9058 2.5203 3.2302 4.0795 5.4482 6.3211 2.2416 2.218 3.8008 3.5424 6.3211 5.4482 0.75952 0.55084 1.7177 0.66029 2.3779 0l6.8328-6.0201c0.73266-0.6084 1.6437-0.60001 2.2876-0.24081l0.0903-0.0904c3.3979 1.943 7.0586 3.4768 10.927 4.5151v0.15049c0.70931 0.20133 1.3871 0.82767 1.4749 1.776l0.57191 9.0904c0 0.93378 0.75906 1.5381 1.6856 1.6856 3.1297 0.43449 5.1543 0.58537 8.3078 0.60201 3.1534-0.0166 5.178-0.16752 8.3078-0.60201 0.92657-0.14755 1.6856-0.75185 1.6856-1.6856l0.57191-9.0904c0.08786-0.94828 0.76561-1.5746 1.4749-1.776v-0.15049c3.8679-1.0383 7.5286-2.5721 10.927-4.5151l0.0903 0.0904c0.64392-0.3592 1.555-0.36759 2.2876 0.24081l6.8328 6.0201c0.66028 0.66029 1.6184 0.55085 2.3779 0 2.5203-1.9058 4.0795-3.2302 6.3211-5.4482 2.218-2.2416 3.5424-3.8009 5.4482-6.3211 0.55086-0.7595 0.6603-1.7176 0-2.3779l-6.0201-6.8328c-0.60839-0.73266-0.6-1.6437-0.2408-2.2876 2.0312-3.49 3.633-7.2667 4.6957-11.258 0.26518-0.61134 0.82009-1.1567 1.6555-1.2341l9.0904-0.57191c0.9338 0 1.5381-0.75907 1.6856-1.6856 0.43449-3.1297 0.58537-5.1543 0.60202-8.3078-0.0166-3.1534-0.16753-5.178-0.60202-8.3078-0.14755-0.92657-0.75184-1.6856-1.6856-1.6856l-9.0904-0.57191c-0.7112-0.0659-1.2296-0.46924-1.5351-0.96322-5e-3 -0.02112-0.0246-0.03909-0.0301-0.0602-1.0886-4.2152-3.0353-8.0572-4.9365-11.86l-0.0602-0.1204c-0.25761-0.51523-4e-3 -1.2264 0.45152-1.7759l6.0201-6.8328c0.6603-0.6603 0.55085-1.6184 0-2.3779-1.9058-2.5203-3.2302-4.0795-5.4482-6.3211-2.2416-2.2181-3.8008-3.5424-6.3211-5.4482-0.75952-0.55084-1.7176-0.6603-2.378 0l-6.8328 6.0201c-0.6698 0.5562-1.4795 0.57256-2.107 0.30101-3.4696-2.0135-7.232-3.571-11.197-4.6355-0.0211-0.0061-0.03917-0.02336-0.0602-0.0301-0.68592-0.21978-1.3295-0.82578-1.4147-1.7458l-0.57191-9.0904c0-0.93379-0.75906-1.5381-1.6856-1.6856-3.1297-0.43449-5.1543-0.58537-8.3078-0.60201zm0 42.382c8.5071 0 15.411 6.9044 15.411 15.411 0 8.5071-6.9044 15.411-15.411 15.411-8.5071 0-15.411-6.9044-15.411-15.411 0-8.5071 6.9044-15.411 15.411-15.411z" fill="url(#bf)" opacity=".9749"/><path id="hz" transform="matrix(.96322 0 0 .96322 10.911 -2.237)" d="m63.969 3.9669c-3.2738 0.01728-5.3758 0.17392-8.625 0.625-0.96195 0.15318-1.75 0.78055-1.75 1.75l-0.59375 9.4375c-0.08851 0.95519-0.75664 1.5843-1.4688 1.8125-0.02183 7e-3 -0.0406 0.02503-0.0625 0.03125-4.1168 1.1052-8.0229 2.7221-11.625 4.8125-0.65155 0.28193-1.4921 0.26494-2.1875-0.3125l-7.0938-6.25c-0.6855-0.6855-1.6802-0.57188-2.4688 0-2.6165 1.9786-4.2353 3.3535-6.5625 5.6562-2.3027 2.3272-3.6777 3.946-5.6562 6.5625-0.57188 0.78852-0.6855 1.7832 0 2.4688l6.25 7.0938c0.47372 0.57048 0.7362 1.3088 0.46875 1.8438l-0.0625 0.125c-2.2455 3.7996-3.9949 7.9363-5.125 12.313-0.01184 0.02064-0.01867 0.04216-0.03125 0.0625-0.31721 0.51284-0.85539 0.93158-1.5938 1l-9.4375 0.59375c-0.96944 0-1.5968 0.78805-1.75 1.75-0.45108 3.2492-0.60772 5.3511-0.625 8.625 0.01728 3.2739 0.17392 5.3758 0.625 8.625 0.15319 0.96195 0.78056 1.75 1.75 1.75l9.4375 0.59375c0.86735 0.08037 1.4434 0.64657 1.7188 1.2812 1.1032 4.1434 2.7662 8.0642 4.875 11.688 0.37292 0.66851 0.38163 1.6144-0.25 2.375l-6.25 7.0938c-0.6855 0.6855-0.57188 1.6802 0 2.4688 1.9786 2.6165 3.3535 4.2353 5.6562 6.5625 2.3272 2.3027 3.946 3.6777 6.5625 5.6562 0.78852 0.57188 1.7832 0.6855 2.4688 0l7.0938-6.25c0.76064-0.63163 1.7065-0.62292 2.375-0.25l0.09375-0.0937c3.5277 2.0172 7.3282 3.6095 11.344 4.6875v0.15625c0.7364 0.20901 1.44 0.85927 1.5312 1.8438l0.59375 9.4375c0 0.96944 0.78805 1.5968 1.75 1.75 3.2492 0.45108 5.3512 0.60772 8.625 0.625 3.2738-0.0173 5.3758-0.17392 8.625-0.625 0.96195-0.15319 1.75-0.78056 1.75-1.75l0.59375-9.4375c0.09122-0.98448 0.79485-1.6347 1.5312-1.8438v-0.15625c4.0156-1.078 7.8161-2.6703 11.344-4.6875l0.09375 0.0937c0.66851-0.37292 1.6144-0.38163 2.375 0.25l7.0938 6.25c0.6855 0.68551 1.6802 0.57189 2.4688 0 2.6165-1.9786 4.2353-3.3535 6.5625-5.6562 2.3027-2.3272 3.6777-3.946 5.6562-6.5625 0.57189-0.78852 0.68551-1.7832 0-2.4688l-6.25-7.0938c-0.63163-0.76064-0.62292-1.7065-0.25-2.375 2.1088-3.6233 3.7718-7.5441 4.875-11.688 0.27531-0.63468 0.8514-1.2009 1.7188-1.2812l9.4375-0.59375c0.96945 0 1.5968-0.78805 1.75-1.75 0.45108-3.2492 0.60772-5.3511 0.625-8.625-0.0173-3.2739-0.17392-5.3758-0.625-8.625-0.15318-0.96195-0.78055-1.75-1.75-1.75l-9.4375-0.59375c-0.73836-0.06842-1.2765-0.48716-1.5938-1-6e-3 -0.02192-0.0256-0.04059-0.0313-0.0625-1.1301-4.3762-3.1512-8.3649-5.125-12.313l-0.0625-0.125c-0.26745-0.5349-5e-3 -1.2733 0.46875-1.8438l6.25-7.0938c0.68551-0.68551 0.57188-1.6802 0-2.4688-1.9786-2.6165-3.3535-4.2353-5.6562-6.5625-2.3272-2.3028-3.946-3.6777-6.5625-5.6562-0.78852-0.57188-1.7832-0.68551-2.4688 0l-7.0938 6.25c-0.69538 0.57744-1.536 0.59443-2.1875 0.3125-3.6021-2.0904-7.5082-3.7073-11.625-4.8125-0.0219-0.0062-0.04067-0.02425-0.0625-0.03125-0.71211-0.22817-1.3802-0.85731-1.4688-1.8125l-0.59375-9.4375c0-0.96945-0.78805-1.5968-1.75-1.75-3.2492-0.45108-5.3512-0.60772-8.625-0.625zm0 44c8.832 0 16 7.168 16 16s-7.168 16-16 16-16-7.168-16-16c0-8.832 7.168-16 16-16z" fill="none" filter="url(#au)" stroke="url(#aa)" stroke-dashoffset="1.0878" stroke-linecap="round" stroke-linejoin="round" stroke-miterlimit="4" stroke-width=".1"/><g id="ia" transform="matrix(.90302 0 0 .90302 10.472 -.73701)" clip-path="url(#dp)"><path id="ib" transform="matrix(1.0667 0 0 1.0667 .10667 .53333)" d="m15.5 28.938c-0.15996 0.58542-0.05599 1.194 0.40625 1.6562l6.25 7.0938c0.21372 0.25737 0.37029 0.55214 0.46875 0.84375 0.26745-0.5349 5e-3 -1.2733-0.46875-1.8438l-6.25-7.0938c-0.19732-0.19732-0.33322-0.41998-0.40625-0.65625zm96.969 0c-0.073 0.23627-0.17768 0.45893-0.375 0.65625l-6.25 7.0938c-0.4659 0.56106-0.71466 1.2799-0.46875 1.8125 0.10008-0.27949 0.26388-0.56578 0.46875-0.8125l6.25-7.0938c0.46225-0.46225 0.53497-1.0708 0.375-1.6562zm-48.469 18.062c-8.832 0-16 7.168-16 16 0 0.17 0.02598 0.33127 0.03125 0.5 0.26863-8.5972 7.3068-15.5 15.969-15.5 8.6621-1e-6 15.7 6.9027 15.969 15.5 0.0053-0.16862 0.03125-0.33011 0.03125-0.5 0-8.832-7.168-16-16-16zm60 16.5c-0.0312 2.9799-0.19862 5.0537-0.625 8.125-0.15318 0.96195-0.78055 1.75-1.75 1.75l-9.4375 0.59375c-0.86735 0.08037-1.4434 0.64657-1.7188 1.2812-1.1032 4.1434-2.7662 8.0642-4.875 11.688-0.23735 0.42548-0.34767 0.96908-0.21875 1.5 0.0438-0.1838 0.13021-0.34128 0.21875-0.5 2.1088-3.6233 3.7718-7.5441 4.875-11.688 0.27531-0.63468 0.8514-1.2009 1.7188-1.2812l9.4375-0.59375c0.96945 0 1.5968-0.78805 1.75-1.75 0.45108-3.2492 0.60772-5.3511 0.625-8.625-9.4e-4 -0.17926 2e-3 -0.32739 0-0.5zm-119.97 1.7812c0.05113 2.5705 0.20602 4.5508 0.59375 7.3438 0.15319 0.96195 0.78056 1.75 1.75 1.75l9.4375 0.59375c0.86735 0.08037 1.4434 0.64657 1.7188 1.2812 1.1032 4.1434 2.7662 8.0642 4.875 11.688 0.08835 0.15838 0.14371 0.31663 0.1875 0.5 0.12892-0.53092 0.04985-1.0745-0.1875-1.5-2.1088-3.6233-3.7718-7.5441-4.875-11.688-0.27531-0.63468-0.8514-1.2009-1.7188-1.2812l-9.4375-0.59375c-0.96944 0-1.5968-0.78805-1.75-1.75-0.33831-2.4369-0.52126-4.2191-0.59375-6.3438zm11.469 32.781c-0.18067 0.58455-1e-3 1.251 0.40625 1.8125 1.9786 2.6165 3.3535 4.2353 5.6562 6.5625 2.3272 2.3027 3.946 3.6777 6.5625 5.6562 0.78852 0.57188 1.7832 0.6855 2.4688 0l7.0938-6.25c0.76064-0.63163 1.7065-0.62292 2.375-0.25l0.09375-0.09375c3.5277 2.0172 7.3282 3.6095 11.344 4.6875v0.15625c0.7364 0.20901 1.44 0.85927 1.5312 1.8438l0.59375 9.4375c-2e-6 0.96944 0.78805 1.5968 1.75 1.75 3.2492 0.45108 5.3512 0.60772 8.625 0.625 3.2738-0.0173 5.3758-0.17392 8.625-0.625 0.96195-0.15319 1.75-0.78056 1.75-1.75l0.59375-9.4375c0.09122-0.98448 0.79485-1.6347 1.5312-1.8438v-0.15625c4.0156-1.078 7.8161-2.6703 11.344-4.6875l0.09375 0.0937c0.66851-0.37292 1.6144-0.38163 2.375 0.25l7.0938 6.25c0.6855 0.68551 1.6802 0.57189 2.4688 0 2.6165-1.9786 4.2353-3.3535 6.5625-5.6562 2.3027-2.3272 3.6777-3.946 5.6562-6.5625 0.40728-0.56154 0.55568-1.228 0.375-1.8125-0.0773 0.28275-0.18874 0.55569-0.375 0.8125-1.9786 2.6165-3.3535 4.2353-5.6562 6.5625-2.3272 2.3027-3.946 3.6777-6.5625 5.6562-0.78851 0.57189-1.7832 0.68551-2.4688 0l-7.0938-6.25c-0.76064-0.63163-1.7065-0.62292-2.375-0.25l-0.09375-0.0937c-3.5276 2.0172-7.3282 3.6095-11.344 4.6875v0.15625c-0.7364 0.20901-1.44 0.85927-1.5312 1.8438l-0.59375 9.4375c0 0.96944-0.78805 1.5968-1.75 1.75-3.2492 0.45108-5.3512 0.60772-8.625 0.625-3.2738-0.0173-5.3758-0.17392-8.625-0.625-0.96195-0.15319-1.75-0.78056-1.75-1.75l-0.59375-9.4375c-0.09122-0.98448-0.79485-1.6347-1.5312-1.8438v-0.15625c-4.0156-1.078-7.8161-2.6703-11.344-4.6875l-0.09375 0.0937c-0.66851-0.37292-1.6144-0.38163-2.375 0.25l-7.0938 6.25c-0.6855 0.6855-1.6802 0.57188-2.4688 0-2.6165-1.9786-4.2353-3.3535-6.5625-5.6562-2.3027-2.3272-3.6777-3.946-5.6562-6.5625-0.18625-0.25676-0.32899-0.5297-0.40625-0.81245z" fill="#919191" fill-opacity=".46725" filter="url(#dk)" opacity=".73234"/><g id="ic"><path id="id" transform="scale(1.0667)" d="m55.234 4.3094c4.5589-0.43625 12.193-0.60294 16.944-0.035746 1.9058 0.22752 2.538 2.8776 2.1448 7.3637-0.02725 0.31095-0.57194-6.5607-2.5022-6.6411-4.6708-0.19462-11.68-0.46652-16.229 0-1.0456 0.10724-1.9615 2.7927-1.966 2.4588-0.01787-1.3941-0.24615-2.9682 1.6086-3.1457z" fill="url(#cg)" fill-rule="evenodd" filter="url(#dg)"/><ellipse id="ie" transform="rotate(25.846)" cx="55.558" cy="-19.573" rx="1.375" ry="2.6153" fill="url(#bi)" opacity=".36402"/><ellipse id="if" transform="matrix(-.89997 .43595 .43595 .89997 0 0)" cx="-67.075" cy="39.832" rx="1.375" ry="2.6153" fill="url(#bh)" opacity=".46444"/><g id="ig" transform="translate(0 -1.3867)"><path id="ih" transform="scale(1.0667)" d="m51.362 18.8c-4.0478 1.2381-7.8591 2.71-11.526 4.9-0.99698 0.36356-1.5963 0.0034-2.4265-0.50553l-6.8752-6.1133c-0.43331-0.35822-1.5015-0.92464-2.3254-0.20221-4.5718 3.9597-8.2157 8.2049-12.234 12.335l1.4898-0.78895c3.5724-3.4585 7.0116-6.9613 10.845-10.333 0.56994-0.47207 1.4226-0.29085 1.921 0.20221l6.5841 5.8039c1.006 0.98367 2.2904 1.3795 3.6275 0.91609 3.6448-2.3502 7.4714-3.9793 11.498-5.567 0.84544-0.34857 1.5159-1.7001 1.4027-2.8075-0.11735 0.71442-0.99936 1.847-1.9808 2.16z" fill="url(#cf)" fill-rule="evenodd" filter="url(#at)"/><ellipse id="ii" transform="matrix(.16228 .98674 -.96723 .25389 0 0)" cx="25.397" cy="-27.636" rx="1.7237" ry="2.6473" fill="url(#r)"/></g><g id="ij" transform="matrix(-1 0 0 1 137.15 -.64)"><path id="ik" transform="matrix(1.0667 0 0 1.0667 .10667 -.42667)" d="m29.736 16.145c-0.47244 0.02581-0.95922 0.18269-1.2988 0.48047a0.33308 0.33308 0 0 1-0.03906 0.03125c-4.7018 2.9921-8.0096 6.8926-11.223 11.059l0.08789-0.04687c2.4931-2.8704 6.0073-6.4186 10.836-10.33 0.34928-0.28931 0.84538-0.49914 1.3535-0.58984 0.50813-0.0907 1.0606-0.07594 1.4375 0.29688l6.5801 5.7988a0.33308 0.33308 0 0 1 0.01172 0.01172c0.50545 0.49422 0.95753 0.94242 1.4023 1.1953 0.44089 0.25066 0.85185 0.33297 1.4297 0.13672 3.6573-2.3496 7.4868-3.9775 11.496-5.5586 0.20902-0.08618 0.42087-0.30236 0.61719-0.5625-0.28698 0.24008-0.59723 0.44961-0.95117 0.5625a0.33308 0.33308 0 0 1-0.0039 2e-3c-4.0344 1.234-7.8239 2.6708-11.459 4.8418a0.33308 0.33308 0 0 1-0.056649 0.027291c-0.29161 0.10634-0.56063 0.13442-0.80078 0.08203-0.24015-0.05238-0.43318-0.17906-0.5918-0.31445-0.31723-0.27078-0.54146-0.58042-0.89453-0.79688a0.33308 0.33308 0 0 1-0.04687-0.0332l-6.8672-6.0879c-1.96e-4 -1.62e-4 -0.0018 1.63e-4 -2e-3 0-0.08514-0.06932-0.55319-0.23045-1.0176-0.20508z" fill="url(#ce)" fill-rule="evenodd" filter="url(#at)"/><ellipse id="il" transform="matrix(.16228 .98674 -.96723 .25389 0 0)" cx="25.397" cy="-27.636" rx="1.7237" ry="2.6473" fill="url(#r)"/></g><ellipse id="im" transform="matrix(-1.061 -.51331 -.38128 1.0254 179.55 53.098)" cx="54.673" cy="6.8499" rx="1.2891" ry="2.4518" fill="url(#bg)" filter="url(#as)" opacity=".3197"/><ellipse id="in" transform="matrix(1.061 -.51331 .38128 1.0254 -42.607 53.421)" cx="54.673" cy="6.8499" rx="1.2891" ry="2.4518" fill="url(#bj)" filter="url(#as)" opacity=".3197"/><path id="io" transform="matrix(1.0667 0 0 1.0667 0 -.32)" d="m110.21 52.352c0.0487 0.33633 0.11969 0.66776 0.25195 0.96875 0.13449 0.30604 0.28825 0.53935 0.44922 0.68945 0.16097 0.1501 0.31923 0.22135 0.51172 0.22852 4.8033 0.17886 6.9893 0.65703 10.133 0.875 0.57943 0.04017 1.2919 0.45771 1.5469 1.4707 0.21978 0.87314 0.30139 2.1211 0.39062 3.3574 0.0532 0.73783 0.1179 1.4316 0.19727 2.0605-2e-3 -0.17526 0.0137-0.22162 8e-3 -0.41211-0.0566-1.8356-0.25302-4.3321-0.42188-5.4512-0.13515-0.75444-0.36822-1.2687-0.64062-1.5879-0.27325-0.32014-0.57674-0.45804-0.92774-0.47656-3.3823-0.17845-6.749-0.55039-10.402-0.6875l0.0508-2e-3c-0.26157 0.03473-0.47357-0.10676-0.63672-0.26758-0.16315-0.16082-0.30394-0.36614-0.4375-0.59375-0.0324-0.05531-0.0444-0.11518-0.0723-0.17188z" fill="url(#z)" fill-rule="evenodd" filter="url(#ar)"/><path id="ip" transform="matrix(-1.0667 0 0 1.0667 136.18 -.74667)" d="m109.72 50.197c0.18834 0.73664-0.025 2.1151 0.47148 3.2449 0.29048 0.66102 0.6951 1.0854 1.2264 1.1052 4.7872 0.17826 6.947 0.13451 10.111 0.35387 0.47135 0.03268 1.0583 0.32592 1.2886 1.2407 0.41489 1.6482 0.35059 4.9876 0.78405 6.5697 0.74071 2.8354 0.2963-4.8055-0.0506-7.1027-0.28228-1.586-0.97024-2.2806-1.8199-2.3254-3.3711-0.17785-6.7474-0.06461-10.414-0.20221-0.25396 0.03372-0.52901-0.26385-0.78145-0.69405-0.45009-0.76705-0.41721-1.8485-0.81531-2.19z" fill="url(#z)" fill-rule="evenodd" filter="url(#ar)"/></g></g><path id="iq" transform="matrix(.96322 0 0 .96322 10.448 17.843)" d="m48.31 64.191c-0.0047 0.15874-0.04717 0.3118-0.04717 0.47168 0 8.6765 7.0774 15.707 15.754 15.707s15.707-7.0303 15.707-15.707c0-0.15988-0.04242-0.31294-0.04717-0.47168-0.22837 8.4777-7.1271 15.282-15.66 15.282-8.5325 0-15.478-6.8046-15.707-15.282z" fill="url(#x)" filter="url(#ao)" opacity=".87361"/><path id="ir" transform="matrix(.96322 0 0 .96322 10.448 17.843)" d="m80.264 64.297c0.0049-0.16469 0.04894-0.32349 0.04894-0.48936 0-9.0019-7.3428-16.296-16.345-16.296s-16.296 7.2939-16.296 16.296c0 0.16588 0.04401 0.32467 0.04894 0.48936 0.23693-8.7956 7.3943-16.27 16.247-16.27 8.8525 0 16.059 7.4747 16.296 16.27z" fill="#fff" filter="url(#df)" opacity=".87361"/><path id="is" transform="matrix(.96322 0 0 .96322 10.448 17.843)" d="m48.31 64.191c-0.0047 0.15874-0.04717 0.3118-0.04717 0.47168 0 8.6765 7.0774 16.707 15.754 16.707s15.707-8.0303 15.707-16.707c0-0.15988-0.04242-0.31294-0.04717-0.47168-0.22837 8.4777-7.1271 15.282-15.66 15.282-8.5325 0-15.478-6.8046-15.707-15.282z" fill="url(#x)" filter="url(#ao)" opacity=".34572"/><path id="it" transform="matrix(.96322 0 0 .96322 -33.105 17.843)" d="m112.31 97.902c0.0523 0.5576-0.12652 1.0382-0.35746 1.5013l-3.3602 4.3611 3.0742-4.3611c-0.13497-0.51637-0.19007-1.0727-0.50045-1.5013-1.7857-2.2007-4.0605-4.3198-5.076-6.6488z" fill="url(#bn)" fill-rule="evenodd" filter="url(#de)"/><path id="iu" transform="matrix(-.96322 0 0 .96322 177.86 17.843)" d="m112.91 97.802c0.0523 0.5576-0.12652 1.0382-0.35746 1.5013l-3.3602 4.3611 3.0742-4.3611c-0.13497-0.51637-0.19007-1.0727-0.50045-1.5013-1.7857-2.2007-4.0605-4.3198-5.076-6.6488z" fill="url(#bm)" fill-rule="evenodd" filter="url(#dh)"/><path id="iv" transform="matrix(1.0004 0 0 1.0004 8.064 -3.115)" d="m64 32.205c-17.553 0-31.795 14.242-31.795 31.795 0 17.553 14.242 31.795 31.795 31.795 17.553 0 31.795-14.242 31.795-31.795 0-17.553-14.242-31.795-31.795-31.795zm0 16.465c8.4492 0 15.33 6.8809 15.33 15.33s-6.8809 15.33-15.33 15.33-15.33-6.8809-15.33-15.33 6.8809-15.33 15.33-15.33z" fill="#171717" fill-opacity=".077551" filter="url(#aw)"/><circle id="iw" transform="matrix(.56754 0 0 .56754 -104.33 -.8622)" cx="310.85" cy="108.84" r="55.192" fill="none" filter="url(#aw)" opacity=".49791" stroke="url(#be)" stroke-dashoffset="1.0878" stroke-linecap="round" stroke-linejoin="round" stroke-miterlimit="4" stroke-width=".67887"/><path id="ix" d="m72.088 26.401v-2.981z" fill="#fff" fill-opacity=".75688" fill-rule="nonzero"/><g id="iy" transform="matrix(.99896 0 0 .96501 3.8323 32.905)"><g id="iz" transform="matrix(-1.0023 0 0 1 134.2 2.1071)"><path id="ja" d="m90.891 31.111c3.3528 0.20654 6.0622 2.1569 7.092 4.7784l1.6701 4.0374 0.43814 1.1887c0.23067 0.83304 0.31485 1.7115 0.22771 2.6172-0.43509 4.5228-4.9615 7.9364-10.102 7.6198-4.8942-0.30149-8.5863-3.8788-8.553-8.1245l0.0048-0.22018 0.30596-5.1282c7.79e-4 -0.0085 6.83e-4 -0.01681 0.0015-0.02534 0.38453-4.0017 4.3798-7.0226 8.9143-6.7432z" fill="url(#ag)"/><rect id="jb" transform="matrix(-.24581 .10476 .1031 .24977 354.41 126.98)" x="758.11" y="-703.21" width="7.9258" height="28.853" ry="0" clip-path="url(#m)" fill="url(#h)" filter="url(#k)" opacity=".56777"/><ellipse id="jc" transform="matrix(-.99811 -.061485 -.095758 .9954 0 0)" cx="-94.777" cy="37.504" rx="9.3293" ry="8.2313" fill="#312f30"/><circle id="jd" transform="matrix(-.35011 -.021568 -.029626 .30789 617 157.65)" cx="1524.8" cy="-264.5" r="24.75" clip-path="url(#n)" fill="#000" filter="url(#l)" stroke="#000" stroke-linecap="round" stroke-linejoin="round" stroke-miterlimit="4" stroke-width="3.1006"/><path id="je" transform="matrix(-.26808 -.014706 -.017181 .29722 356.06 132.78)" d="m1021.2-275.25c-5.975-4.1368-21.075-5.4231-28.75-2.5" fill="none" filter="url(#j)" stroke="url(#g)" stroke-linejoin="miter" stroke-miterlimit="4" stroke-width="1.3305"/></g><g id="jf" transform="matrix(1.0023 0 0 1 1.8795 2.2917)"><path id="jg" d="m90.891 31.111c3.3528 0.20654 6.0622 2.1569 7.092 4.7784l1.6701 4.0374 0.43814 1.1887c0.23067 0.83304 0.31485 1.7115 0.22771 2.6172-0.43509 4.5228-4.9615 7.9364-10.102 7.6198-4.8942-0.30149-8.5863-3.8788-8.553-8.1245l0.0048-0.22018 0.30596-5.1282c7.79e-4 -0.0085 6.83e-4 -0.01681 0.0015-0.02534 0.38453-4.0017 4.3798-7.0226 8.9143-6.7432z" fill="url(#ag)"/><rect id="jh" transform="matrix(-.24581 .10476 .1031 .24977 354.41 126.98)" x="758.11" y="-703.21" width="7.9258" height="28.853" ry="0" clip-path="url(#m)" fill="url(#h)" filter="url(#k)" opacity=".56777"/><ellipse id="ji" transform="matrix(-.99811 -.061485 -.095758 .9954 0 0)" cx="-94.777" cy="37.504" rx="9.3293" ry="8.2313" fill="#312f30"/><circle id="jj" transform="matrix(-.35011 -.021568 -.029626 .30789 617 157.65)" cx="1524.8" cy="-264.5" r="24.75" clip-path="url(#n)" fill="#000" filter="url(#l)" stroke="#000" stroke-linecap="round" stroke-linejoin="round" stroke-miterlimit="4" stroke-width="3.1006"/><path id="jk" transform="matrix(-.26808 -.014706 -.017181 .29722 356.06 132.78)" d="m1021.2-275.25c-5.975-4.1368-21.075-5.4231-28.75-2.5" fill="none" filter="url(#j)" stroke="url(#g)" stroke-linejoin="miter" stroke-miterlimit="4" stroke-width="1.3305"/></g><path id="jl" d="m40.221 38.778c-1.8018 0.07254-3.587 0.64457-5.1012 1.6243-2.1606 1.398-3.2455 3.9247-3.9899 6.4906-5.7853 0.60496-13.092 2.5373-17.666 11.525l-5.717 14.366 0.062823-0.0035c-0.03803 0.07326-0.076388 0.14188-0.11404 0.216l40.306 17.271 9.4711-0.52408c5.2057-0.28805 8.0559-5.9066 8.3779-11.116l0.02089-0.0012-0.0069-0.12543c0.01115-0.20532 0.0051-0.40499 0.0082-0.60856l0.01169-0.1684c0.0012-0.25919 0.01068-0.52108-0.0012-0.7758l0.16426-13.304c0.20502-2.9307-0.46733-5.7395-2.0807-7.1822l-17.273-15.421c-1.8285-1.6325-4.1566-2.3562-6.4733-2.263z" fill="url(#da)" fill-rule="evenodd"/><rect id="jm" transform="matrix(.64296 .19342 -.19387 .64146 -672.64 247.13)" x="924.42" y="-612.9" width="15.556" height="39.598" clip-path="url(#az)" fill="url(#af)" filter="url(#al)" opacity=".7326"/><path id="jn" d="m47.947 90.261 9.4826-0.52471c8.3958-0.46458 10.703-14.769 6.0765-18.906l-19.104-17.056c-3.5956-3.2102-8.9919-3.1816-12.82-0.70452-2.39 1.5463-3.5776 4.3499-4.401 7.188-6.3991 0.66914-14.479 2.8017-19.538 12.743z" fill="#3d3b3c" fill-rule="evenodd"/><path id="jo" transform="matrix(.67052 -.037103 .03719 .66896 -654.02 307.5)" d="m1049.3-326.31c-3.121-0.0471-6.2577 0.7292-8.9687 2.2812-3.8685 2.2146-6.2168 6.0016-7.75 10.375-7.5939 0.37256-17.004 3.7254-24.813 11l-4.4687 7.4375c8.3388-14.119 20.438-16.596 29.938-17.062 1.4589-4.1617 3.4437-8.2364 7.125-10.344 5.8967-3.3758 13.919-2.9869 19 2.0938l27 27c2.6589 2.6629 3.4978 7.7308 2.6875 12.812 0.058-0.33334 0.1171-0.66706 0.1563-1h0.031v-0.1875c0.034-0.30506 0.041-0.60314 0.062-0.90625l0.031-0.25c0.023-0.38617 0.059-0.77568 0.062-1.1562l0.5626-7.7929c-0.4313-0.84136-0.9435-1.5988-1.5626-2.2188l-28.094-27.582c-3.0032-3.0032-6.9873-4.4395-11-4.5zm35.094 56.25c-0.3665 0.42403-0.7492 0.81668-1.1562 1.1875 0.4071-0.37038 0.7899-0.76283 1.1562-1.1875zm-5.4062 3.7188c-0.293 0.094-0.6019 0.15051-0.9062 0.21875 0.3045-0.0664 0.6131-0.12651 0.9062-0.21875zm-1.0625 0.28125c-0.2978 0.0617-0.5977 0.0891-0.9063 0.125 0.3035-0.0341 0.6133-0.0659 0.9063-0.125z" fill="url(#ae)" fill-rule="evenodd" filter="url(#aq)"/><g id="jp" transform="matrix(.62861 -.034784 .034865 .62715 -684.2 312.02)"><circle id="jq" transform="matrix(1.502 0 0 1.4154 -772.8 96.297)" cx="1308" cy="-281.5" r="6.2336" fill="#1f1f1f" filter="url(#c)"/><ellipse id="jr" cx="1191.9" cy="-301.2" rx="8.7704" ry="8.2644" fill="url(#ad)"/></g><circle id="js" transform="matrix(.80736 -.044675 .042196 .75901 -989.62 354.01)" cx="1308" cy="-281.5" r="6.1105" fill="#3b3b3b" filter="url(#c)"/><ellipse id="jt" transform="matrix(.99847 -.05525 .055508 .99846 0 0)" cx="49.902" cy="85.302" rx="4.7214" ry="4.4387" fill="url(#cz)"/><path id="ju" d="m47.947 90.261 9.4826-0.52471c8.3958-0.46458 10.703-14.769 6.0765-18.906l-19.104-17.056c-3.5956-3.2102-8.9919-3.1816-12.82-0.70452-2.39 1.5463-3.5776 4.3499-4.401 7.188-6.3991 0.66914-14.479 2.8017-19.538 12.743z" fill="url(#ca)" fill-rule="evenodd"/><path id="jv" transform="matrix(.67052 -.037103 .03719 .66896 -723.75 311.36)" d="m1152.9-323.81c-2.9195-0.044-5.8702 0.7044-8.4062 2.1562-3.6188 2.0716-5.5659 6.0651-7 10.156-9.4074 0.46155-21.391 2.9395-29.594 17.094l0.8973 0.34467c7.8807-13.407 20.027-16.1 29.02-16.541 1.3786-3.9323 3.4484-7.79 6.9268-9.7812 5.5716-3.1897 13.137-2.447 17.937 2.3536l25.5 26.03c1.5803 1.9431 1.8311 26.156-10 26.156h1.125c12.309 1e-5 16.832-20.783 10.406-27.219l-26.531-26.531c-2.8093-2.8094-6.5275-4.1622-10.281-4.2188z" clip-path="url(#bc)" fill="url(#ac)" fill-rule="evenodd" filter="url(#ap)" opacity=".82418"/><rect id="jw" transform="matrix(.77403 .63315 -.8117 .58407 0 0)" x="101.58" y="27.006" width="1.3882" height="6.7102" fill="#000"/><g id="jx" transform="matrix(.62861 -.034784 .034865 .62715 -649.72 290.65)"><circle id="jy" transform="matrix(.25059 0 0 .23613 790.18 -247.16)" cx="1308" cy="-281.5" r="6.1105" fill="#000" filter="url(#c)"/><ellipse id="jz" cx="1118" cy="-313.48" rx="1.4632" ry="1.3788" fill="url(#e)"/><rect id="ka" transform="matrix(.73701 .67588 -.84221 .53916 0 0)" x="350.24" y="-1021.8" width=".43061" height="2.0812" fill="#000"/></g><g id="kb" transform="matrix(.62861 -.034784 .034865 .62715 -661.38 294.86)"><circle id="kc" transform="matrix(.25059 0 0 .23613 790.18 -247.16)" cx="1308" cy="-281.5" r="6.1105" fill="#000" filter="url(#c)"/><ellipse id="kd" cx="1118" cy="-313.48" rx="1.4632" ry="1.3788" fill="url(#e)"/><rect id="ke" transform="matrix(.73701 .67588 -.84221 .53916 0 0)" x="350.24" y="-1021.8" width=".43061" height="2.0812" fill="#000"/></g><path id="kf" transform="matrix(.67052 -.037103 .03719 .66896 -654.02 307.5)" d="m1040.1-331.88c-4.4841 0.2264-16.599 1.4724-19.781 7.1875l3.8437 10.781 8.9063 2.0938z" clip-path="url(#bb)" fill="url(#cy)" fill-rule="evenodd" filter="url(#an)"/><path id="kg" transform="matrix(.67052 -.037103 .03719 .66896 -654.02 307.5)" d="m1046.9-340.8c5.3474-3.0873 12.651-1.9894 16.276 1.6359l6.6162 6.5199" clip-path="url(#ba)" fill="none" filter="url(#am)" opacity=".7326" stroke="url(#s)" stroke-linejoin="miter" stroke-width="1px"/><path id="kh" transform="matrix(.67682 -.037452 .037598 .6763 -660.77 309.77)" d="m1088.2-312.41-24.406-24.406c-2.5837-2.5837-5.9854-3.8542-9.4376-3.9062-2.6849-0.0405-5.3864 0.66479-7.7187 2-3.328 1.9052-5.1499 5.5813-6.4687 9.3438-8.6516 0.42447-20.113 2.7891-27.657 15.806" clip-path="url(#dn)" fill="none" filter="url(#ak)" opacity=".58242" stroke="url(#ab)" stroke-linejoin="miter" stroke-miterlimit="4" stroke-width=".59395"/><path id="ki" transform="matrix(.67052 -.037103 .03719 .66896 -654.02 307.5)" d="m1037.5-321.53c2.9969-3.0368 7.1114-4.6025 10.878-4.4288" fill="none" filter="url(#aj)" stroke="url(#bz)" stroke-linejoin="miter" stroke-width="1px"/><path id="kj" transform="matrix(.67052 -.037103 .03719 .66896 -641.2 296.06)" d="m999.92-306.62-10.607 19.799" fill="none" filter="url(#dd)" stroke="url(#cx)" stroke-linejoin="miter" stroke-width="1px"/><g id="kk" transform="matrix(.62843 .03801 -.038098 .62696 -540.04 206.12)"><path id="kl" d="m992.49-327.17c2.8639-0.0432 5.7455 0.70911 8.2333 2.1333 3.5499 2.0322 5.4932 5.9534 6.9 9.9667 9.2283 0.45277 20.986 2.8818 29.033 16.767l10.333 22.333h-0.1c0.067 0.11311 0.1337 0.21882 0.1999 0.33334l-62.4 31h-15.067c-8.2813 1e-5 -13.297-8.6806-14.267-16.933h-0.0333v-0.2c-0.0357-0.32539-0.0437-0.64335-0.0667-0.96666l-0.03333-0.26667c-0.0247-0.41191-0.0628-0.82739-0.0666-1.2333l-1.4334-21.133c-0.58357-4.6406 0.2351-9.1648 2.6667-11.6l26.033-26.033c2.756-2.7559 6.3844-4.1112 10.067-4.1667z" fill="url(#cw)" fill-rule="evenodd"/><rect id="km" transform="matrix(-1.0026 .36401 .36401 1.0026 2141.4 -58.667)" x="924.42" y="-612.9" width="15.556" height="39.598" clip-path="url(#az)" fill="url(#af)" filter="url(#al)" opacity=".7326"/><path id="kn" d="m984.77-244.65h-15.085c-13.356 0-18.276-22.536-11.304-29.519l28.793-28.793c5.4193-5.4193 13.98-5.8484 20.27-2.2476 3.9266 2.2479 6.0572 6.6 7.6134 11.039 10.208 0.5008 23.209 3.1801 32.11 18.538z" fill="#3d3b3c" fill-rule="evenodd"/><path id="ko" transform="matrix(-1.0667 0 0 1.0667 2117.2 38.933)" d="m1049.3-326.31c-3.121-0.0471-6.2577 0.7292-8.9687 2.2812-3.8685 2.2146-6.2168 6.0016-7.75 10.375-7.5939 0.37256-17.004 3.7254-24.813 11l-4.4687 7.4375c8.3388-14.119 20.438-16.596 29.938-17.062 1.4589-4.1617 3.4437-8.2364 7.125-10.344 5.8967-3.3758 13.919-2.9869 19 2.0938l27 27c2.6589 2.6629 3.4978 7.7308 2.6875 12.812 0.058-0.33334 0.1171-0.66706 0.1563-1h0.031v-0.1875c0.034-0.30506 0.041-0.60314 0.062-0.90625l0.031-0.25c0.023-0.38617 0.059-0.77568 0.062-1.1562l0.5626-7.7929c-0.4313-0.84136-0.9435-1.5988-1.5626-2.2188l-28.094-27.582c-3.0032-3.0032-6.9873-4.4395-11-4.5zm35.094 56.25c-0.3665 0.42403-0.7492 0.81668-1.1562 1.1875 0.4071-0.37038 0.7899-0.76283 1.1562-1.1875zm-5.4062 3.7188c-0.293 0.094-0.6019 0.15051-0.9062 0.21875 0.3045-0.0664 0.6131-0.12651 0.9062-0.21875zm-1.0625 0.28125c-0.2978 0.0617-0.5977 0.0891-0.9063 0.125 0.3035-0.0341 0.6133-0.0659 0.9063-0.125z" fill="url(#ae)" fill-rule="evenodd" filter="url(#aq)"/><g id="kp" transform="translate(-218.27 43.459)"><circle id="kq" transform="matrix(1.502 0 0 1.4154 -772.8 96.297)" cx="1308" cy="-281.5" r="6.2336" fill="#1f1f1f" filter="url(#c)"/><ellipse id="kr" cx="1191.9" cy="-301.2" rx="8.7704" ry="8.2644" fill="url(#ad)"/></g><circle id="ks" transform="matrix(1.2844 0 0 1.2103 -706.34 83.346)" cx="1308" cy="-281.5" r="6.1105" fill="#3b3b3b" filter="url(#c)"/><ellipse id="kt" cx="973.59" cy="-256.54" rx="7.4993" ry="7.0667" fill="url(#cv)"/><path id="ku" transform="matrix(-1.0667 0 0 1.0667 2228.1 38.933)" d="m1152.9-323.81c-2.9195-0.044-5.8702 0.7044-8.4062 2.1562-3.6188 2.0716-5.5659 6.0651-7 10.156-9.4074 0.46155-21.391 2.9395-29.594 17.094l0.8973 0.34467c7.8807-13.407 20.027-16.1 29.02-16.541 1.3786-3.9323 3.4484-7.79 6.9268-9.7812 5.5716-3.1897 13.137-2.447 17.937 2.3536l25.5 26.03c1.5803 1.9431 1.8311 26.156-10 26.156h1.125c12.309 1e-5 16.832-20.783 10.406-27.219l-26.531-26.531c-2.8093-2.8094-6.5275-4.1622-10.281-4.2188z" clip-path="url(#bc)" fill="url(#ac)" fill-rule="evenodd" filter="url(#ap)" opacity=".82418"/><rect id="kv" transform="matrix(.73701 .67588 -.84221 .53916 0 0)" x="318.5" y="-881.58" width="2.2071" height="10.667" fill="#000"/><g id="kw" transform="matrix(-1 0 0 1 2108.9 12.535)"><circle id="kx" transform="matrix(.25059 0 0 .23613 790.18 -247.16)" cx="1308" cy="-281.5" r="6.1105" fill="#000" filter="url(#c)"/><ellipse id="ky" cx="1118" cy="-313.48" rx="1.4632" ry="1.3788" fill="url(#e)"/><rect id="kz" transform="matrix(.73701 .67588 -.84221 .53916 0 0)" x="350.24" y="-1021.8" width=".43061" height="2.0812" fill="#000"/></g><g id="la" transform="matrix(-1 0 0 1 2127.7 18.192)"><circle id="lb" transform="matrix(.25059 0 0 .23613 790.18 -247.16)" cx="1308" cy="-281.5" r="6.1105" fill="#000" filter="url(#c)"/><ellipse id="lc" cx="1118" cy="-313.48" rx="1.4632" ry="1.3788" fill="url(#e)"/><rect id="ld" transform="matrix(.73701 .67588 -.84221 .53916 0 0)" x="350.24" y="-1021.8" width=".43061" height="2.0812" fill="#000"/></g><path id="le" transform="matrix(-1.0667 0 0 1.0667 2117.2 38.933)" d="m1040.1-331.88c-4.4841 0.2264-9.5988 0.97243-14.531 3.4375l-0.6563 1.7812 8.1563 14.844z" clip-path="url(#bb)" fill="url(#cu)" fill-rule="evenodd" filter="url(#an)"/><path id="lf" transform="matrix(-1.0667 0 0 1.0667 2117.2 38.933)" d="m1046.9-340.8c5.3474-3.0873 12.651-1.9894 16.276 1.6359l6.6162 6.5199" clip-path="url(#ba)" fill="none" filter="url(#am)" opacity=".7326" stroke="url(#s)" stroke-linejoin="miter" stroke-width="1px"/><path id="lg" transform="matrix(-1.0767 0 0 1.0784 2128.1 41.95)" d="m1088.2-312.41-24.406-24.406c-2.5837-2.5837-5.9854-3.8542-9.4376-3.9062-2.6849-0.0405-5.3864 0.66479-7.7187 2-3.328 1.9052-5.1499 5.5813-6.4687 9.3438-8.6516 0.42447-19.675 2.7017-27.219 15.719" fill="none" filter="url(#ak)" opacity=".58242" stroke="url(#ab)" stroke-linejoin="miter" stroke-miterlimit="4" stroke-width=".59395"/><path id="lh" transform="matrix(-1.0667 0 0 1.0667 2117.2 38.933)" d="m1037.5-321.53c2.9969-3.0368 7.1114-4.6025 10.878-4.4288" fill="none" filter="url(#aj)" stroke="url(#by)" stroke-linejoin="miter" stroke-width="1px"/></g><path id="li" d="m57.141 51.356s5.301-4.0026 10.823-4.0026c6.1594 0 10.73 4.1888 10.73 4.1888l-6.1579 6.0504s-1.9594-1.4893-4.2919-1.5824c-2.3326-0.09308-5.0382 1.2101-5.0382 1.2101z" fill="url(#ct)" fill-rule="evenodd"/><g id="lj" transform="matrix(.62861 -.034784 .034865 .62715 -641.2 296.06)"><path id="lk" d="m1075.5-313.07c-13.442 0-24.729 7.011-29.467 17.067l-7.6333 15.467-2.0333 4.5667c-1.1199 3.2188-1.6655 6.6516-1.5334 10.233 0.6601 17.885 17.927 32.4 38.533 32.4 19.621 0 35.221-13.168 36.1-29.867l0.033-0.86667v-20.233-0.0999c-0.5823-15.824-15.821-28.667-34-28.667z" fill="url(#cs)"/><rect id="ll" transform="matrix(.95687 .47136 -.47136 .95687 0 0)" x="758.11" y="-703.21" width="7.9258" height="28.853" ry="0" clip-path="url(#m)" fill="url(#h)" filter="url(#k)" opacity=".56777"/><ellipse id="lm" transform="matrix(1 0 .036881 .99932 0 0)" cx="1081.9" cy="-265.91" rx="37.331" ry="32.422" fill="#312f30"/><circle id="ln" transform="matrix(1.4036 0 .04496 1.2175 -1056.2 56.964)" cx="1524.8" cy="-264.5" r="24.75" clip-path="url(#n)" fill="none" filter="url(#l)" stroke="#000" stroke-linecap="round" stroke-linejoin="round" stroke-miterlimit="4" stroke-width="3.1006"/><path id="lo" transform="matrix(1.0667 0 0 1.0667 94.827 -.10667)" d="m913.25-314.25c-6.3437 0-21.674 13.424-10.469 25.281 19.695-4.2016 40.209 18.327 49.219 33.719l11.125-5.5312c14.999 3.9684 2.7512-14.062 2.75-14.094-0.54593-14.835-35.582-39.375-52.625-39.375z" clip-path="url(#ay)" fill="#000" filter="url(#ai)" opacity=".71062"/><path id="lp" transform="matrix(1.2849 0 .041156 1.1152 -876.09 31.891)" d="m1524.8-289.88c-14.002 0-25.375 11.373-25.375 25.375s11.373 25.375 25.375 25.375 25.375-11.373 25.375-25.375-11.373-25.375-25.375-25.375zm0 1.25c13.322 0 24.125 10.803 24.125 24.125s-10.907 22.772-24.228 22.772-24.022-9.4504-24.022-22.772 10.803-24.125 24.125-24.125z" fill="url(#bx)" filter="url(#dc)"/><path id="lq" d="m1071.1-291.36c-17.392 0-31.065 12.26-30.508 27.354s15.135 27.354 32.527 27.354 31.065-12.26 30.508-27.354c-0.557-15.094-15.135-27.354-32.527-27.354zm0.05 1.3475c16.546 0 30.394 11.646 30.924 26.007 0.53 14.361-13.112 19.552-29.659 19.552-16.546 0-29.741-5.1906-30.271-19.552-0.53-14.361 12.458-26.007 29.005-26.007z" fill="url(#bw)"/><path id="lr" transform="matrix(1.0743 .0071093 -.0022069 1.1725 -7.971 22.367)" d="m1021.2-275.25c-5.975-4.1368-21.075-5.4231-28.75-2.5" fill="none" filter="url(#j)" stroke="url(#g)" stroke-linejoin="miter" stroke-miterlimit="4" stroke-width="1.3305"/><ellipse id="ls" transform="matrix(1 0 .036881 .99932 0 0)" cx="1082" cy="-267.09" rx="29.184" ry="25.346" fill="#000"/><ellipse id="lt" transform="matrix(1 0 .036881 .99932 0 0)" cx="1082" cy="-267.09" rx="29.184" ry="25.346" fill="url(#bv)"/><ellipse id="lu" transform="matrix(1 0 .036877 .99932 0 0)" cx="1082" cy="-266.8" rx="30.199" ry="26.231" fill="none" stroke="url(#cr)" stroke-linecap="round" stroke-linejoin="round" stroke-miterlimit="4" stroke-width="1.1407"/><ellipse id="lv" transform="scale(1.0667)" cx="1005.1" cy="-231.96" rx="19.922" ry="8.0078" fill="url(#bu)" filter="url(#ah)"/><g id="lw" transform="translate(148.26)" clip-path="url(#ax)"><path id="lx" transform="matrix(1.0194 0 0 1.0194 -102.42 -11.114)" d="m979.03-261.5c-0.0814 0.87937-0.1271 1.7819-0.0937 2.6875 0.4838 13.108 13.147 23.75 28.25 23.75 15.103 0 26.952-10.642 26.469-23.75-0.015-0.40962-0.024-0.81421-0.062-1.2188-1.114 11.834-11.968 22.234-26.016 22.234-14.631-1e-5 -27.351-11.162-28.547-23.703z" fill="url(#f)" filter="url(#i)" opacity=".85714"/><path id="ly" transform="matrix(1.0194 0 0 1.0194 -99.504 -24.864)" d="m979.03-261.5c-0.0814 0.87937-0.1271 1.7819-0.0937 2.6875 0.4838 13.108 13.147 23.75 28.25 23.75 15.103 0 26.952-10.642 26.469-23.75-0.015-0.40962-0.024-0.81421-0.062-1.2188-1.114 11.834-14.012 23.052-28.059 23.052-14.631-1e-5 -25.307-11.98-26.503-24.521z" fill="url(#f)" filter="url(#i)"/><path id="lz" d="m896.5-291.4c-0.089 0.97848-0.13891 1.9827-0.1024 2.9904 0.52873 14.585 13.337 25.985 29.843 25.985 16.505 1e-5 30.487-11.4 29.958-25.985-0.0164-0.45579-0.0262-0.90598-0.0678-1.3561-1.2175 13.167-10.938 25.65-30.666 25.65-15.989 0-27.658-13.33-28.965-27.284z" fill="#000" opacity=".37363"/></g><circle id="ma" cx="1091.6" cy="-266.52" r="5.3033" fill="url(#bt)"/><path id="mb" d="m1070.8-292.23c-9.5837 0-17.974 4.0025-23.067 10.2 3.1697 6.6325 13.095 11.467 24.8 11.467 10.55 0 19.623-3.9008 23.633-9.5333-5.3973-7.2789-14.823-12.133-25.367-12.133z" fill="url(#cq)"/></g><path id="mc" transform="matrix(-.67032 -.040544 -.040638 .66876 717.11 295.86)" d="m913.25-314.25c-6.3437 0-21.674 13.424-10.469 25.281 19.695-4.2016 40.209 18.327 49.219 33.719l11.125-5.5312c14.999 3.9684 2.7512-14.062 2.75-14.094-0.54593-14.835-35.582-39.375-52.625-39.375z" clip-path="url(#ay)" fill="#000" filter="url(#ai)" opacity=".71062"/><path id="md" d="m112.78 62.371c8.447 0.5109 15.273 5.3356 17.867 11.82l4.2077 9.9871 1.1038 2.9404c0.58114 2.0606 0.79323 4.2336 0.57372 6.4742-1.0962 11.188-12.5 19.632-25.45 18.849-12.33-0.74579-21.632-9.5949-21.548-20.097l0.01211-0.54463 0.77086-12.686c0.0019-0.0211 0.0017-0.04159 0.0038-0.0627 0.9688-9.8989 11.034-17.372 22.459-16.681z" fill="url(#cp)"/><rect id="me" transform="matrix(-.61928 .25915 .25976 .61784 776.7 299.53)" x="758.11" y="-703.21" width="7.9258" height="28.853" ry="0" clip-path="url(#m)" fill="url(#h)" filter="url(#k)" opacity=".56777"/><ellipse id="mf" transform="matrix(-.99818 -.060373 -.097511 .99523 0 0)" cx="-121.61" cy="85.238" rx="23.503" ry="20.365" fill="#312f30"/><circle id="mg" transform="matrix(-.88207 -.053351 -.074639 .76162 1438.2 375.39)" cx="1524.8" cy="-264.5" r="24.75" clip-path="url(#n)" fill="none" filter="url(#l)" stroke="#000" stroke-linecap="round" stroke-linejoin="round" stroke-miterlimit="4" stroke-width="3.1006"/><path id="mh" transform="matrix(-.80744 -.048837 -.068349 .69759 1326 352.82)" d="m1524.8-289.88c-14.002 0-25.375 11.373-25.375 25.375s11.373 25.375 25.375 25.375 25.375-11.373 25.375-25.375-11.373-25.375-25.375-25.375zm0 1.25c13.322 0 24.125 10.803 24.125 24.125s-10.907 22.772-24.228 22.772-24.022-9.4504-24.022-22.772 10.803-24.125 24.125-24.125z" fill="url(#bs)" filter="url(#dl)"/><path id="mi" d="m114.68 76.143c10.929 0.66105 19.055 8.8672 18.13 18.31-0.92515 9.4424-10.554 16.575-21.483 15.914s-19.055-8.8672-18.13-18.31c0.92514-9.4424 10.554-16.575 21.483-15.914zm-0.0826 0.84294c-10.398-0.62892-19.544 6.1462-20.425 15.13-0.88019 8.9836 7.4951 12.756 17.893 13.385 10.398 0.62892 18.888-2.1239 19.768-11.107 0.88019-8.9836-6.8384-16.779-17.237-17.408z" fill="url(#br)"/><path id="mj" transform="matrix(-.6754 -.036377 -.043285 .73522 780.86 313.86)" d="m1021.2-275.25c-5.975-4.1368-21.075-5.4231-28.75-2.5" fill="none" filter="url(#j)" stroke="url(#g)" stroke-linejoin="miter" stroke-miterlimit="4" stroke-width="1.3305"/><ellipse id="mk" transform="matrix(-.99818 -.060374 -.097511 .99523 0 0)" cx="-121.58" cy="84.497" rx="18.373" ry="15.921" fill="#000"/><ellipse id="ml" transform="matrix(-.99818 -.060374 -.097511 .99523 0 0)" cx="-121.58" cy="84.497" rx="18.373" ry="15.921" fill="url(#bq)"/><ellipse id="mm" transform="matrix(-.99818 -.060373 -.097507 .99523 0 0)" cx="-121.58" cy="84.682" rx="19.013" ry="16.476" fill="none" stroke="url(#co)" stroke-linecap="round" stroke-linejoin="round" stroke-miterlimit="4" stroke-width=".7173"/><ellipse id="mn" transform="matrix(-.67032 -.040544 -.040638 .66876 776.7 299.53)" cx="1005.1" cy="-231.96" rx="19.922" ry="8.0078" fill="url(#bp)" filter="url(#ah)"/><g id="mo" transform="matrix(-.62843 -.03801 -.038098 .62696 683.53 293.89)" clip-path="url(#ax)"><path id="mp" transform="matrix(1.0194 0 0 1.0194 -102.42 -11.114)" d="m979.03-261.5c-0.0814 0.87937-0.1271 1.7819-0.0937 2.6875 0.4838 13.108 13.147 23.75 28.25 23.75 15.103 0 26.952-10.642 26.469-23.75-0.015-0.40962-0.024-0.81421-0.062-1.2188-1.114 11.834-11.968 22.234-26.016 22.234-14.631-1e-5 -27.351-11.162-28.547-23.703z" fill="url(#f)" filter="url(#i)" opacity=".85714"/><path id="mq" transform="matrix(1.0194 0 0 1.0194 -99.504 -24.864)" d="m979.03-261.5c-0.0814 0.87937-0.1271 1.7819-0.0937 2.6875 0.4838 13.108 13.147 23.75 28.25 23.75 15.103 0 26.952-10.642 26.469-23.75-0.015-0.40962-0.024-0.81421-0.062-1.2188-1.114 11.834-14.012 23.052-28.059 23.052-14.631-1e-5 -25.307-11.98-26.503-24.521z" fill="url(#f)" filter="url(#i)"/><path id="mr" d="m896.5-291.4c-0.089 0.97848-0.13891 1.9827-0.1024 2.9904 0.52873 14.585 13.337 25.985 29.843 25.985 16.505 1e-5 30.487-11.4 29.958-25.985-0.0164-0.45579-0.0262-0.90598-0.0678-1.3561-1.2175 13.167-10.938 25.65-30.666 25.65-15.989 0-27.658-13.33-28.965-27.284z" fill="#000" opacity=".37363"/></g><ellipse id="ms" transform="matrix(-.99818 -.060373 -.060655 .99816 0 0)" cx="-130.33" cy="84.686" rx="3.3388" ry="3.3311" fill="url(#bo)" opacity=".64835"/><path id="mt" d="m114.93 75.61c6.0226 0.36427 11.143 3.1926 14.107 7.2718-2.2446 4.0379-8.6659 6.6914-16.022 6.2465-6.6298-0.401-12.183-3.1915-14.489-6.8753 3.6691-4.3584 9.7774-7.0437 16.403-6.643z" fill="url(#cn)"/><circle id="mu" transform="matrix(.78918 -.04333 .041246 .73617 -952.85 316)" cx="1308" cy="-281.5" r="6.1105" clip-path="url(#dq)" fill="url(#cm)" filter="url(#dm)"/><path id="mv" d="m64.369 50.458c0.11826-0.76809 1.15-1.8071 3.6035-1.8071 2.4569 0 3.5551 1.0191 3.5422 1.8071l0.95421 8.1871h-9.1545z" fill="url(#cl)"/><path id="mw" d="m54.402 60.49s6.5676-4.9589 13.409-4.9589c7.631 0 13.293 5.1896 13.293 5.1896l-7.6291 7.496s-2.4275-1.8452-5.3173-1.9605c-2.8899-0.11532-6.242 1.4992-6.242 1.4992z" fill="url(#ck)" fill-rule="evenodd"/><circle id="mx" transform="matrix(1.0062 -.05568 .05259 .94599 -1233.1 400.19)" cx="1308" cy="-281.5" r="6.1105" fill="#3b3b3b" filter="url(#c)"/><ellipse id="my" transform="matrix(.99847 -.05525 .055508 .99846 0 0)" cx="64.722" cy="65.37" rx="5.8844" ry="5.5321" fill="url(#cj)"/><path id="mz" d="m64.369 50.458c0.11826-0.76809 1.15-1.8071 3.6035-1.8071 2.4569 0 3.5551 1.0191 3.5422 1.8071l0.95421 8.1871h-9.1545z" fill="url(#ci)"/><g id="na" transform="matrix(.62861 -.034784 .034865 .62715 -642.67 322.48)"><circle id="nb" transform="matrix(.25059 0 0 .23613 790.18 -247.16)" cx="1308" cy="-281.5" r="6.1105" fill="#000" filter="url(#c)"/><ellipse id="nc" cx="1118" cy="-313.48" rx="1.4632" ry="1.3788" fill="url(#e)"/><rect id="nd" transform="matrix(.73701 .67588 -.84221 .53916 0 0)" x="350.24" y="-1021.8" width=".43061" height="2.0812" fill="#000"/></g><g id="ne" transform="matrix(.62861 -.034784 .034865 .62715 -603.98 322.62)"><circle id="nf" transform="matrix(.25059 0 0 .23613 790.18 -247.16)" cx="1308" cy="-281.5" r="6.1105" fill="#000" filter="url(#c)"/><ellipse id="ng" cx="1118" cy="-313.48" rx="1.4632" ry="1.3788" fill="url(#e)"/><rect id="nh" transform="matrix(.73701 .67588 -.84221 .53916 0 0)" x="350.24" y="-1021.8" width=".43061" height="2.0812" fill="#000"/></g><ellipse id="ni" transform="matrix(.99847 -.05525 .055508 .99846 0 0)" cx="64.722" cy="65.37" rx="5.8844" ry="5.5321" fill="url(#ch)" opacity=".35531"/></g></svg>
