<?xml version="1.0" encoding="UTF-8"?>
<svg id="t" version="1.0" viewBox="0 0 128 128" xmlns="http://www.w3.org/2000/svg" xmlns:xlink="http://www.w3.org/1999/xlink"><defs id="u"><linearGradient id="a"><stop id="v" stop-color="#fff" offset="0"/><stop id="w" stop-color="#fff" stop-opacity="0" offset="1"/></linearGradient><linearGradient id="s" x1="34.842" x2="35.561" y1="-7.1425" y2="11.416" gradientUnits="userSpaceOnUse" xlink:href="#a"/><radialGradient id="k" cx="53.823" cy="51.796" r="5.2844" fx="53.363" fy="53.704" gradientTransform="matrix(1 -7.0365e-16 -1.4461e-17 .35076 -3.6345e-14 33.628)" gradientUnits="userSpaceOnUse" xlink:href="#a"/><radialGradient id="j" cx="53.823" cy="51.796" r="5.2844" fx="53.363" fy="53.704" gradientTransform="matrix(1 1.7384e-15 1.5212e-19 .35076 3.6843e-14 33.628)" gradientUnits="userSpaceOnUse" xlink:href="#a"/><linearGradient id="r" x1="87.123" x2="63.976" y1="27.107" y2="69.894" gradientUnits="userSpaceOnUse"><stop id="x" stop-color="#8bb4e6" offset="0"/><stop id="y" stop-color="#89b2e2" offset=".58"/><stop id="z" stop-color="#c5daf3" stop-opacity=".59494" offset="1"/></linearGradient><linearGradient id="q" x1="28.549" x2="28.549" y1="-10.101" y2="-.85402" gradientUnits="userSpaceOnUse"><stop id="aa" stop-color="#c9cacc" offset="0"/><stop id="ab" stop-color="#acaeb1" offset="1"/></linearGradient><linearGradient id="p" x1="13.645" x2="71.473" y1="38.368" y2="38.368" gradientUnits="userSpaceOnUse"><stop id="ac" stop-color="#a3a5a8" offset="0"/><stop id="ad" stop-color="#fff" offset="1"/></linearGradient><radialGradient id="i" cx="28.549" cy="-5.4773" r="6.6922" gradientTransform="matrix(-4.8309 -9.751e-7 -5.3723e-6 26.051 188.13 189.36)" gradientUnits="userSpaceOnUse"><stop id="ae" stop-color="#fff" stop-opacity="0" offset="0"/><stop id="af" stop-color="#818181" offset="1"/></radialGradient><radialGradient id="h" cx="40.479" cy="27.81" r="30.543" fy="12.719" gradientTransform="matrix(1.3522 .038848 -.021723 .73646 -3.3837 14.395)" gradientUnits="userSpaceOnUse" xlink:href="#a"/><linearGradient id="o" x1="34.584" x2="11.56" y1="39.786" y2="69.204" gradientTransform="matrix(.90569 .03296 -.033397 .89385 19.167 11.614)" gradientUnits="userSpaceOnUse"><stop id="ag" stop-color="#abc7e9" offset="0"/><stop id="ah" stop-color="#c9dce8" stop-opacity=".42353" offset=".27083"/><stop id="ai" stop-color="#fff" offset="1"/></linearGradient><radialGradient id="g" cx="56.257" cy="56.999" r="9.7255" gradientTransform="matrix(.89804 0 0 .82207 19.676 20.252)" gradientUnits="userSpaceOnUse"><stop id="aj" offset="0"/><stop id="ak" stop-opacity=".23843" offset=".66372"/><stop id="al" stop-opacity="0" offset="1"/></radialGradient><radialGradient id="f" cx="-22.188" cy="69.922" r="3.3125" fx="-24.226" fy="69.914" gradientTransform="matrix(.82474 -.9025 8.5721 7.6672 -481.3 -460.62)" gradientUnits="userSpaceOnUse"><stop id="am" stop-color="#fff" offset="0"/><stop id="an" stop-color="#fff" stop-opacity="0" offset="1"/></radialGradient><linearGradient id="n" x1="67.515" x2="63.402" y1="86.706" y2="61.357" gradientTransform="matrix(.90271 .032932 -.033314 .89379 17.89 12.513)" gradientUnits="userSpaceOnUse"><stop id="ao" offset="0"/><stop id="ap" stop-opacity="0" offset="1"/></linearGradient><linearGradient id="m" x1="28.072" x2="40.199" y1="20.205" y2="20.205" gradientTransform="matrix(-.32167 .35732 .35636 .31945 78.23 52.636)" gradientUnits="userSpaceOnUse" spreadMethod="reflect"><stop id="aq" stop-color="#fff" offset="0"/><stop id="ar" stop-color="#aeaeae" offset="1"/></linearGradient><radialGradient id="e" cx="32.49" cy="69.225" r="8.3332" fx="29.739" gradientTransform="matrix(.56293 -.62532 6.8302 6.1228 -371.29 -280.16)" gradientUnits="userSpaceOnUse" xlink:href="#a"/><radialGradient id="d" cx="49.157" cy="62.381" r="8.3332" fx="45.9" fy="62.298" gradientTransform="matrix(.56293 -.62532 6.8302 6.1228 -371.29 -280.16)" gradientUnits="userSpaceOnUse" xlink:href="#a"/><radialGradient id="c" cx="3.9531" cy="74.833" r="6.932" fx=".90558" fy="73.296" gradientTransform="matrix(.39152 -.50295 5.0927 4.6499 -280.84 -252.28)" gradientUnits="userSpaceOnUse"><stop id="as" offset="0"/><stop id="at" stop-opacity=".23843" offset=".66372"/><stop id="au" stop-opacity="0" offset="1"/></radialGradient><linearGradient id="l" x1="55.835" x2="74.892" y1="79.658" y2="59.958" gradientTransform="matrix(.89824 .032768 -.033122 .88864 17.89 12.6)" gradientUnits="userSpaceOnUse"><stop id="av" offset="0"/><stop id="aw" stop-color="#838383" offset="1"/></linearGradient><radialGradient id="b" cx="40.479" cy="27.81" r="30.543" fy="12.719" gradientTransform="matrix(1.4536 -.32826 .19049 .82162 -15.805 27.063)" gradientUnits="userSpaceOnUse" xlink:href="#a"/></defs><g id="ax"><path id="ay" d="m63.584 17.607v-2.483 2.483z" fill="#fff" fill-opacity=".75688" fill-rule="nonzero"/><path id="az" d="m63.742 16.799v-2.483 2.483z" fill="#fff" fill-opacity=".75688" fill-rule="nonzero"/><path id="ba" d="m44.645 82.55v-0.93569 0.93569z" fill="#fff" fill-opacity=".75688" fill-rule="nonzero"/><path id="bb" d="m-60.894-23.774v-2.483 2.483z" fill="#fff" fill-opacity=".75688" fill-rule="nonzero"/><path id="bc" d="m-237-213.25v-2.483 2.483z" fill="#fff" fill-opacity=".75688" fill-rule="nonzero"/><path id="bd" d="m-256.1-147.5v-0.93569 0.93569z" fill="#fff" fill-opacity=".75688" fill-rule="nonzero"/><path id="be" d="m63.584 17.295v-2.483 2.483z" fill="#fff" fill-opacity=".75688" fill-rule="nonzero"/><g id="bf" transform="matrix(-.92598 -.033699 .044602 -1.1937 84.149 78.1)" fill="none" stroke="url(#s)" stroke-linejoin="miter" stroke-miterlimit="4"><path id="bg" d="m9.6228 14.273c6.9011-8.1906 16.726-12.521 27.494-12.521s21.293 5.4482 27.297 13.228" stroke-width=".414"/><path id="bh" d="m9.6228 14.573c6.9011-8.1906 16.726-12.521 27.494-12.521s21.293 5.4482 27.297 13.228" stroke-width=".914"/><path id="bi" d="m9.6228 14.473c6.9011-8.1906 16.726-12.521 27.494-12.521s21.293 5.4482 27.297 13.228" stroke-width=".614"/></g><path id="bj" d="m51.243 18.279c-2.2842-0.049386-4.6372 0.1909-6.999 0.72426-12.436 2.8084-20.835 12.832-21.307 23.363-0.12243 2.7303 0.71647 5.0685 2.3178 6.9931 0.10432 0.12539 0.21543 0.25373 0.32607 0.37549-0.35512-1.2443-0.5077-2.599-0.44407-4.044 0.51018-11.585 8.8039-22.637 21.029-25.779 9.2869-2.387 18.308 0.71108 24.189 6.4465-4.5514-4.705-11.475-7.9147-19.112-8.0798z" fill="url(#b)" fill-rule="nonzero" opacity=".83256"/><path id="bk" transform="matrix(1.3182 0 0 1.3306 -14.048 -15.775)" d="m123.69 45.54a23.845 23.37 0 1 1-47.69 0 23.845 23.37 0 1 1 47.69 0z" fill="none" opacity=".5"/><path id="bl" d="m74.283 78.079c3.5368-2.9295 6.4304-6.147 8.7753-9.7478 19.22 16.48 30.403 26.93 46.178 40.587-2.9632 4.0816-6.405 7.4312-9.7572 10.611-15.123-14.38-21.373-18.597-45.197-41.45z" fill="url(#l)" fill-rule="nonzero"/><path id="bm" d="m80.98 71.228-3.2651 3.658c3.4124 5.5623 11.014 13.949 21.719 23.911 8.7616 8.1539 16.761 14.381 22.608 18.116 2.05-1.8139 3.2574-3.1946 4.6618-4.7932-4.2128-5.6507-11.467-13.313-20.299-21.532-10.633-9.8951-19.728-16.419-25.425-19.36z" fill="url(#c)"/><path id="bn" d="m74.845 78.083c2.899-2.6409 5.6932-5.7841 8.1057-9.004 15.102 12.767 30.864 27.423 45.214 39.913-3.0786 4.0241-4.1556 5.9659-8.5425 9.8469-14.917-14.186-30.443-27.137-44.777-40.756z" fill="url(#d)" fill-rule="nonzero" opacity=".7326"/><path id="bo" d="m76.551 78.726 7.0678-3.5658c15.102 12.767 28.299 23.03 43.804 34.971-2.2905 4.6386-3.8256 4.8821-7.8012 8.7092-14.682-14.059-28.737-26.494-43.071-40.114z" fill="url(#e)" fill-rule="nonzero" opacity=".74419"/><path id="bp" d="m82.922 68.218c-3.5368 2.9295-6.4369 6.1543-8.7819 9.7551l0.15801 0.14164c3.5368-2.9295 6.4369-6.1543 8.7819-9.7551l-0.15801-0.14164z" fill="#5c5c5c" fill-rule="nonzero"/><path id="bq" transform="matrix(.61397 -.7037 .16969 .14576 38.425 102.48)" d="m59.107 51.796a5.2844 1.8536 0 1 1-10.569 0 5.2844 1.8536 0 1 1 10.569 0z" fill="url(#k)" fill-rule="nonzero"/><path id="br" transform="matrix(.60371 -.71234 .17254 .14244 84.324 142.96)" d="m59.107 51.796a5.2844 1.8536 0 1 1-10.569 0 5.2844 1.8536 0 1 1 10.569 0z" fill="url(#j)" fill-rule="nonzero" opacity=".65116"/><path id="bs" d="m75.427 64.607c-1.9346 2.3292-3.7152 4.3238-5.4609 6.0974l5.867 5.3399c2.1718-1.9989 4.1573-3.9075 5.6278-5.9914l-6.0339-5.4459z" fill="url(#m)" fill-rule="nonzero"/><path id="bt" d="m75.646 65.63c-1.9346 2.3292-3.598 3.682-5.3437 5.4557l5.5314 4.9585c2.1718-1.9989 4.1573-3.9075 5.6278-5.9914l-5.8156-4.4228z" fill="url(#n)" fill-rule="nonzero"/><path id="bu" d="m75.752 77.039c4.5521 5.5385 13.128 14.151 23.391 23.33 7.9358 7.098 15.481 13.646 21.261 17.875l4.2833-4.0889c-4.8333-5.2636-12.144-12.667-20.08-19.765-10.263-9.1796-19.812-16.727-25.839-20.651l-3.0155 3.2998z" fill="url(#f)"/><path id="bv" d="m75.551 64.695c-0.8706 1.1471-1.8228 2.2476-2.8625 3.2761-0.3706 0.36664-0.76058 0.73399-1.1506 1.0828-0.01949 0.017429-0.03659 0.038144-0.056128 0.055528-0.50987 0.54846-1.0142 1.0732-1.5154 1.5825l2.0487 1.888c1.9256-1.2043 3.5894-2.8134 4.827-4.8032 0.26198-0.42122 0.49061-0.84317 0.70159-1.2771l-1.9925-1.8047z" fill="url(#g)" fill-rule="evenodd" opacity=".8"/><path id="bw" transform="matrix(-1.0237 .035249 .041183 1.0429 92.197 5.1623)" d="m70.61 38.368a28.05 27.244 0 1 1-56.101 0 28.05 27.244 0 1 1 56.101 0z" fill="url(#r)" fill-rule="nonzero"/><g id="bx" transform="matrix(2.009 0 0 1.8701 -74.937 -59.47)" fill="#000001"><path id="by" d="m38.062 32.688h51.875l0.375 15.5h-2.25c-1.07-4.883-2.432-8.062-4.082-9.537-1.652-1.475-5.125-2.213-10.418-2.213h-5v46.875c0 3.539 0.541 5.73 1.627 6.578 1.084 0.848 3.459 1.406 7.123 1.672v1.75h-26.624v-1.75c3.908-0.295 6.344-0.93 7.307-1.902 0.961-0.973 1.443-3.422 1.443-7.348v-45.875h-5c-5.072 0-8.525 0.73-10.361 2.189-1.836 1.461-3.215 4.646-4.139 9.561h-2.25l0.374-15.5z" fill="#000001"/></g><path id="bz" d="m30.471 44.632c-6.8584 14.401 1.4021 27.736 18.439 29.766 0.34732 0.041392 0.70136 0.064839 1.0506 0.095331 0.28109 0.043199 0.55157 0.095614 0.83968 0.12995 1.3251 0.15791 2.6713 0.20297 4.0224 0.16558-0.15909-0.0155-0.31663-0.022798-0.47512-0.041686-0.24874-0.02964-0.4801-0.078632-0.72258-0.116 0.28966-0.00238 0.57676 0.006737 0.86682-0.001284-0.22055-0.021486-0.4394-0.03743-0.65913-0.063616-0.81472-0.097095-1.5961-0.23013-2.3617-0.38606-2.4072-0.65009-4.4318-1.7013-5.9786-3.0734-6.9733-3.6073-9.6368-11.019-5.8897-18.887 2.9425-6.1785 9.16-11.207 16.282-13.884-7.9984 2.5357-15.14 7.9967-18.386 14.813-2.3722 4.9809-2.2349 9.7873-0.09593 13.601-6.4709-5.5178-8.3849-14.242-4.0159-23.415 4.0795-8.5659 12.692-15.535 22.566-19.246-11.089 3.5155-20.98 11.092-25.481 20.542z" fill="url(#o)"/><path id="ca" d="m76.794 37.397c0.56571 2.3599 0.22204 4.622-0.85404 6.6853-3.3375 6.3992-13.72 10.885-25.868 10.443-12.042-0.43822-21.962-5.1392-24.959-11.662-1.042-2.2681-1.2468-4.7564-0.41257-7.3624 3.218-10.052 13.973-17.592 26.722-17.128 12.913 0.46995 23.061 9.3878 25.371 19.024z" fill="url(#h)" fill-rule="nonzero"/><path id="cb" transform="matrix(-4.7846 0 0 6.9181 186.81 84.568)" d="m34.931-5.4773a6.3817 4.3664 0 1 1-12.763 0 6.3817 4.3664 0 1 1 12.763 0z" fill="none" stroke="url(#q)" stroke-linecap="round" stroke-linejoin="round" stroke-miterlimit="4" stroke-width=".62102"/><path id="cc" d="m19.676 46.676c0 16.674 13.679 30.207 30.533 30.207 16.854 0 30.533-13.533 30.533-30.207 0-16.674-13.679-30.207-30.533-30.207-16.854 0-30.533 13.533-30.533 30.207z" fill="none" stroke="url(#i)" stroke-linecap="round" stroke-linejoin="round" stroke-miterlimit="4" stroke-width="3.5729"/><path id="cd" transform="matrix(.03455 .98207 1.0222 -.039508 9.5195 6.3956)" d="m70.61 38.368a28.05 27.244 0 1 1-56.101 0 28.05 27.244 0 1 1 56.101 0z" fill="none" stroke="url(#p)" stroke-dashoffset="4" stroke-linecap="round" stroke-linejoin="round" stroke-miterlimit="4" stroke-width="1.7278"/></g></svg>
