<?xml version="1.0" encoding="UTF-8"?>
<svg id="e" version="1.1" viewBox="0 0 48 48" xmlns="http://www.w3.org/2000/svg" xmlns:xlink="http://www.w3.org/1999/xlink"><defs id="f"><linearGradient id="c" x1="11.793" x2="45.793" y1="12.696" y2="43.209" gradientTransform="translate(.20703 -.20898)" gradientUnits="userSpaceOnUse"><stop id="g" offset="0"/><stop id="h" stop-opacity="0" offset="1"/></linearGradient><linearGradient id="b" x1="44" x2="7" y1="44" y2="7" gradientUnits="userSpaceOnUse"><stop id="i" stop-color="#c6cdd1" offset="0"/><stop id="j" stop-color="#e0e5e7" offset="1"/></linearGradient><linearGradient id="a" x1="34" x2="-6" y1="53.969" y2="14" gradientTransform="translate(10,-10)" gradientUnits="userSpaceOnUse"><stop id="k" stop-color="#d01c2d" offset="0"/><stop id="l" stop-color="#e05e4c" offset="1"/></linearGradient><linearGradient id="d" x1="4" x2="44" y1="4" y2="44" gradientTransform="translate(65.007 2.1681)" gradientUnits="userSpaceOnUse"><stop id="m" stop-color="#21c9fb" offset="0"/><stop id="n" stop-color="#197cf1" offset="1"/></linearGradient></defs><path id="o" d="m4 4v39.969h40v-39.969z" fill="url(#d)" fill-rule="evenodd"/><path id="p" d="m26.5 11.875-5.6094 5.5938 5.3125 4.6094-5.306 5.4995 3.9482 3.8422-1.8453 2.5802-3 2 8 8-11.26-11.851-5.8124 5.4194 6.5637 6.4311 26.508-0.0049-1.28e-4 -9.9951v-5z" fill="url(#c)" opacity=".2"/><path id="q" d="m24.133 11.002a4 4 0 0 0-0.40039 0.007813 4 4 0 0 0-3.7285 4.168 4 4 0 0 0 4.0859 3.8203 4 4 0 0 0 3.9102-3.998l-0.015625-0.35742a4 4 0 0 0-3.8516-3.6406zm0 10a4 4 0 0 0-0.40039 0.007813 4 4 0 0 0-3.7285 4.168 4 4 0 0 0 4.0859 3.8203 4 4 0 0 0 3.9102-3.998l-0.015625-0.35742a4 4 0 0 0-3.8516-3.6406zm0 10a4 4 0 0 0-0.40039 0.007813 4 4 0 0 0-3.7285 4.168 4 4 0 0 0 4.0859 3.8203 4 4 0 0 0 3.9102-3.998l-0.015625-0.35742a4 4 0 0 0-3.8516-3.6406z" fill="url(#a)"/><rect id="r" x="4" y="43" width="40" height="1" fill="#000" opacity=".2"/><path id="s" d="m34.133 21.002a4 4 0 0 0-0.40039 0.007813 4 4 0 0 0-3.7285 4.168 4 4 0 0 0 4.0859 3.8203 4 4 0 0 0 3.9102-3.998l-0.015625-0.35742a4 4 0 0 0-3.8516-3.6406zm-20 10a4 4 0 0 0-0.40039 0.007813 4 4 0 0 0-3.7285 4.168 4 4 0 0 0 4.0859 3.8203 4 4 0 0 0 3.9102-3.998l-0.015625-0.35742a4 4 0 0 0-3.8516-3.6406zm20 0a4 4 0 0 0-0.40039 0.007813 4 4 0 0 0-3.7285 4.168 4 4 0 0 0 4.0859 3.8203 4 4 0 0 0 3.9102-3.998l-0.015625-0.35742a4 4 0 0 0-3.8516-3.6406z" fill="url(#b)"/></svg>
