<?xml version="1.0" encoding="UTF-8"?>
<svg id="z" width="128" height="128" enable-background="new 0 0 126 111.715" overflow="visible" version="1.0" viewBox="0 0 126 111.72" xml:space="preserve" xmlns="http://www.w3.org/2000/svg" xmlns:xlink="http://www.w3.org/1999/xlink"><defs id="aa"><linearGradient id="b"><stop id="ab" stop-color="#040404" stop-opacity="0" offset="0"/><stop id="ac" stop-color="#040404" stop-opacity="0" offset=".64972"/><stop id="ad" stop-color="#040404" offset="1"/></linearGradient><linearGradient id="a"><stop id="ae" offset="0"/><stop id="af" stop-opacity="0" offset="1"/></linearGradient><linearGradient id="c"><stop id="ag" stop-color="#181818" offset="0"/><stop id="ah" stop-color="#181818" stop-opacity="0" offset="1"/></linearGradient><linearGradient id="x" x1="-198.06" x2="-196.29" y1="149.18" y2="150.37" gradientUnits="userSpaceOnUse"><stop id="ai" offset="0"/><stop id="aj" stop-opacity="0" offset="1"/></linearGradient><radialGradient id="f" cx="-188.69" cy="127.57" r="17.433" fx="-188.5" fy="128.64" gradientTransform="matrix(2.3574 .0064269 0 .39004 255.97 88.512)" gradientUnits="userSpaceOnUse"><stop id="ak" stop-color="#e8e8e8" offset="0"/><stop id="al" stop-color="#969696" stop-opacity="0" offset="1"/></radialGradient><linearGradient id="w" x1="-181.02" x2="-191.35" y1="150.43" y2="149.1" gradientUnits="userSpaceOnUse"><stop id="am" stop-color="#545454" offset="0"/><stop id="an" stop-color="#b1b1b1" offset="1"/></linearGradient><linearGradient id="v" x1="136.78" x2="265.99" y1="123" y2="158.5" gradientTransform="matrix(2.2121 .23455 -.11007 2.2256 -647.26 -222.14)" gradientUnits="userSpaceOnUse" xlink:href="#c"/><linearGradient id="u" x1="-207.73" x2="-210.99" y1="151.2" y2="141.26" gradientUnits="userSpaceOnUse"><stop id="ao" stop-color="#686868" offset="0"/><stop id="ap" stop-color="#686868" stop-opacity="0" offset="1"/></linearGradient><linearGradient id="t" x1="-191.01" x2="-198.02" y1="131.61" y2="130.56" gradientUnits="userSpaceOnUse"><stop id="aq" stop-color="#fff" offset="0"/><stop id="ar" stop-color="#fff" stop-opacity="0" offset="1"/></linearGradient><linearGradient id="s" x1="-197.69" x2="-189.48" y1="154.47" y2="153.72" gradientUnits="userSpaceOnUse"><stop id="as" stop-color="#9ca096" offset="0"/><stop id="at" stop-color="#9ca096" stop-opacity="0" offset="1"/></linearGradient><radialGradient id="e" cx="-180.54" cy="171.75" r="13.297" fx="-174.06" fy="171.86" gradientTransform="matrix(-.50448 .66201 2.3177 1.7662 -696.14 -20.963)" gradientUnits="userSpaceOnUse" xlink:href="#b"/><linearGradient id="r" x1="-193.56" x2="-138.48" y1="146.25" y2="82.639" gradientTransform="translate(4.5575 -5.9598)" gradientUnits="userSpaceOnUse" xlink:href="#a"/><radialGradient id="d" cx="-180.54" cy="171.75" r="13.297" fx="-174.06" fy="171.86" gradientTransform="matrix(.73168 .57855 -1.8074 2.2857 272.65 -128.65)" gradientUnits="userSpaceOnUse" xlink:href="#b"/><linearGradient id="q" x1="-193.56" x2="-113.72" y1="146.25" y2="137.98" gradientTransform="translate(4.5575 -5.9598)" gradientUnits="userSpaceOnUse" xlink:href="#a"/><linearGradient id="p" x1="-193.56" x2="-200.09" y1="146.25" y2="83.825" gradientTransform="translate(5.9598 -6.3103)" gradientUnits="userSpaceOnUse" xlink:href="#a"/><linearGradient id="o" x1="136.78" x2="265.99" y1="123" y2="158.5" gradientTransform="matrix(1.1805 .12506 -.058737 1.1867 -436.81 -45.563)" gradientUnits="userSpaceOnUse" xlink:href="#c"/><linearGradient id="n" x1="-216.49" x2="-112.98" y1="85.027" y2="146.01" gradientTransform="matrix(.98438 0 0 .98438 0 -7.1425)" gradientUnits="userSpaceOnUse"><stop id="au" stop-color="#ff0" offset="0"/><stop id="av" stop-color="#ffbf00" offset="1"/></linearGradient><linearGradient id="m" x1="-212.59" x2="-210.88" y1="75.939" y2="83.824" gradientUnits="userSpaceOnUse"><stop id="aw" stop-color="#111" offset="0"/><stop id="ax" stop-color="#111" stop-opacity="0" offset="1"/></linearGradient><linearGradient id="l" x1="-111.13" x2="172.67" y1="123.44" y2="157.16" gradientTransform="matrix(1 .12616 0 1 -102.63 7.3383)" gradientUnits="userSpaceOnUse"><stop id="ay" stop-color="#fff" offset="0"/><stop id="az" stop-color="#fff" stop-opacity="0" offset="1"/></linearGradient><linearGradient id="k" x1="-214.73" x2="-152.39" y1="61.74" y2="165.79" gradientUnits="userSpaceOnUse"><stop id="ba" stop-color="#efefef" offset="0"/><stop id="bb" stop-color="#f8f8f8" offset=".5"/><stop id="bc" stop-color="#e0e0e0" offset="1"/></linearGradient><linearGradient id="j" x1="-56.632" x2="-106.68" y1="146.44" y2="1.1031" gradientTransform="matrix(1 .12616 0 1 -102.63 7.3383)" gradientUnits="userSpaceOnUse"><stop id="bd" offset="0"/><stop id="be" stop-opacity="0" offset="1"/></linearGradient><linearGradient id="i" x1="-117.12" x2="-.16147" y1="124.41" y2="124.41" gradientTransform="matrix(1 .12616 0 1 -102.63 7.3383)" gradientUnits="userSpaceOnUse"><stop id="bf" stop-color="#4b4b4b" offset="0"/><stop id="bg" stop-color="#676767" offset="1"/></linearGradient><radialGradient id="h" cx="-193.25" cy="156.12" r="5.2813" gradientTransform="matrix(.86223 -.020167 .14452 6.1107 -47.085 -796.39)" gradientUnits="userSpaceOnUse"><stop id="bh" stop-color="#fff" offset="0"/><stop id="bi" stop-color="#fff" stop-opacity="0" offset="1"/></radialGradient><radialGradient id="g" cx="-181.42" cy="159.11" r="16.293" gradientTransform="matrix(1.3025 -.53946 .2108 .50336 21.887 -27.756)" gradientUnits="userSpaceOnUse"><stop id="bj" stop-color="#5b5b5b" offset="0"/><stop id="bk" stop-color="#5b5b5b" stop-opacity="0" offset="1"/></radialGradient><linearGradient id="y" x1="-224.77" x2="-211.83" y1="57.706" y2="94.691" gradientUnits="userSpaceOnUse"><stop id="bl" offset="0"/><stop id="bm" stop-opacity="0" offset="1"/></linearGradient></defs>




<g id="bn" transform="matrix(.99447 0 0 1 227.44 -68.944)"><path id="bo" d="m-217.59 80.28c17.596-1.8892 37.198-5.1383 52.616-5.642l41.051-1.9604 20.882 89.642-109.98 11.88-6.3669-88.667c-0.35104-2.4 0.15402-5.0029 1.7946-5.252z" fill="#fff" fill-rule="evenodd" stroke="url(#i)" stroke-linejoin="miter" stroke-miterlimit="4" stroke-width=".21322"/><path id="bp" d="m-215.77 81.301c16.933-2.2211 31.948-5.3902 50.798-6.6632l41.051-1.9604 21.873 91.13-110.97 10.391-0.99672-13.88-5.3702-74.786c-0.50135-4.9014 1.8573-6.3763 3.6132-4.2308z" fill="url(#k)" fill-rule="evenodd" stroke="url(#j)" stroke-linejoin="miter" stroke-miterlimit="4" stroke-width=".41064"/><path id="bq" d="m-207.17 167.43 96.682-8.7494-19.081-80.632-64.299 4.3802-20.395 1.8107c-0.37912 1.3595-0.09783 2.8952 0.02066 4.4094l7.073 78.782z" fill="url(#l)" fill-rule="evenodd" stroke="#000" stroke-linejoin="miter" stroke-miterlimit="4" stroke-width=".013987"/><path id="br" d="m-215.77 81.301c16.933-2.2211 31.948-5.3902 50.798-6.6632l-54.411 10.894c-0.50135-4.9014 1.8573-6.3763 3.6132-4.2308z" fill="url(#m)" fill-rule="evenodd"/><path id="bs" d="m-207.17 167.43 96.682-8.7494-19.081-80.632-64.299 4.3802-20.395 1.8107c-0.37912 1.3595-0.09783 2.8952 0.02066 4.4094l7.073 78.782z" fill="#2c72c7" fill-rule="evenodd"/><path id="bt" d="m-158.65 90.113-4.4604 1.7227 3.4761 5.1987 3.1992-1.4893 3.23 1.9815 1.5073-5.937-3.4459 0.56025-3.5063-2.0368zm-17.339 7.365-7.7212 0.33838-8.0596 2.1226-0.70752 4.5527-4.1836 3.5068 2.7993 6.3062 3.1377 2.4609 6.3062 2.7993h3.876l1.0459 3.5068v4.8911l3.8452 3.1685-0.33838 3.5068-3.1685 1.3843-2.0918-5.2602-5.9678-2.4302-3.8452 4.1836 2.7993 3.1685 5.5986 3.1685 4.9219 3.8452-4.2144 4.9219-3.8452 2.0918 2.0918 5.2603 3.876-1.7534 5.2603 0.70752-0.70752 2.4302 2.4609 3.5068 4.5527-1.7534 1.7534 1.0767-1.0767 3.8452 0.33838 0.76904 56.755-5.1372-9.3823-39.621-0.70752-0.18457h-2.1226l-1.3843-0.33838-3.1685-2.4609h-3.1377l-3.5068-0.70752-3.876-1.7534-4.5527 0.70752-4.5527-1.7534 1.7534-3.8452-5.9678-3.1684-4.2144 1.415-4.1836 0.33838-9.813-7.0137-3.5068-2.7993h-3.1684z" fill="url(#n)" fill-rule="evenodd"/><path id="bu" d="m-151.74 139.19c3.8938 18.446-12.775 38.489-34.061 41.161-20.396 2.5599-41.015-14.103-42.004-32.703-0.98887-18.6 12.955-34.756 34.36-36.686 21.404-1.9303 37.759 9.5328 41.705 28.228z" fill="none" stroke="url(#o)" stroke-dashoffset="4" stroke-linecap="round" stroke-linejoin="round" stroke-miterlimit="4" stroke-width="1.4609"/><path id="bv" d="m-190.37 143.04-7.0717-60.331" fill="none" stroke="url(#p)" stroke-linejoin="miter" stroke-miterlimit="4" stroke-width=".41064"/><path id="bw" d="m-221.03 145.87c0.99158 0 105.2-10.805 105.2-10.805" fill="none" stroke="url(#q)" stroke-linejoin="miter" stroke-miterlimit="4" stroke-width=".41064"/><path id="bx" d="m-155.58 139.1-25.005 10.732-6.0596 27.67 13.944-22.267-0.69357-0.47454 17.814-15.66z" fill="url(#d)" fill-rule="evenodd" opacity=".66393"/><path id="by" d="m-192.02 142.4 59.532-64.1" fill="none" stroke="url(#r)" stroke-linejoin="miter" stroke-miterlimit="4" stroke-width=".41064"/><path id="bz" d="m-189.89 134.23 72.385-6.7551" fill="none" opacity=".11885" stroke="#000" stroke-linejoin="miter" stroke-miterlimit="4" stroke-width=".1145"/><path id="ca" d="m-214.81 148.04 15.924 2.8955 9.8154 19.994-2.2478 0.10822-13.937-12.975 0.5604-0.62624-9.6626-4.3205-0.45222-5.0756z" fill="url(#e)" fill-rule="evenodd" opacity=".42213"/><path id="cb" d="m-225.38 146.15 25.798 5.9963 12.852 25.359 6.8507-26.635 24.305-11.673-28.433-5.1523-9.7902-20.419-5.5348 22.737-26.048 9.7864z" fill="#cdcdcd" fill-rule="evenodd" stroke="#0f0f0f" stroke-linejoin="miter" stroke-miterlimit="4" stroke-width=".13494"/><path id="cc" d="m-199.56 152.08 9.0897-15.521 3.7922 40.629-12.882-25.108z" fill="url(#s)" fill-rule="evenodd"/><path id="cd" d="m-179.91 150.85-10.568-14.305 34.866 2.591-24.297 11.714z" fill="#9c9c9c" fill-rule="evenodd"/><path id="ce" d="m-190.46 136.56-3.4213-22.702-5.3637 22.555 8.785 0.14703z" fill="url(#t)" fill-rule="evenodd"/><path id="cf" d="m-199.55 152.1 9.0823-15.543-34.525 9.5844 25.443 5.9583z" fill="url(#u)" fill-rule="evenodd"/><path id="cg" d="m-184.18 133.96-6.294 2.5871 34.866 2.591-28.572-5.1781z" fill="#d4d4d4" fill-rule="evenodd"/><path id="ch" d="m-120.97 159.51-11.155-43.443" fill="none" opacity=".11885" stroke="#000" stroke-linejoin="miter" stroke-miterlimit="4" stroke-width=".1145"/><path id="ci" d="m-137.7 161-13.324-54.722" fill="none" opacity=".11885" stroke="#000" stroke-linejoin="miter" stroke-miterlimit="4" stroke-width=".1145"/><path id="cj" d="m-154.44 162.73-12.581-60.176" fill="none" opacity=".11885" stroke="#000" stroke-linejoin="miter" stroke-miterlimit="4" stroke-width=".1145"/><path id="ck" d="m-170.55 158.27-12.395-60.486" fill="none" opacity=".11885" stroke="#000" stroke-linejoin="miter" stroke-miterlimit="4" stroke-width=".1145"/><path id="cl" d="m-193.6 104.98 1.4874 11.155" fill="none" opacity=".11885" stroke="#000" stroke-linejoin="miter" stroke-miterlimit="4" stroke-width=".1145"/><path id="cm" d="m-174.52 157.53 62.469-6.5072" fill="none" opacity=".11885" stroke="#000" stroke-linejoin="miter" stroke-miterlimit="4" stroke-width=".1145"/><path id="cn" d="m-180.47 121.09 50.818-5.0198" fill="none" opacity=".11885" stroke="#000" stroke-linejoin="miter" stroke-miterlimit="4" stroke-width=".1145"/><path id="co" d="m-196.58 109.69 36.688-2.7888" fill="none" opacity=".11885" stroke="#000" stroke-linejoin="miter" stroke-miterlimit="4" stroke-width=".1145"/><path id="cp" d="m-167.68 80.498-5.814 0.43066c25.581 3.508 45.215 18.375 54.233 40.636l-1.6611-6.8906c-9.3598-17.62-25.89-29.789-46.758-34.176zm-43.848 3.4799-2.568 0.21443-0.2187 0.73536c1.4803-0.52883 1.2475-0.50474 2.7867-0.94979zm96.912 57.059c0.27907 4.7702-0.09556 9.5687-1.1074 14.273l1.3228 0.7998c0.66216-2.9772 1.0895-5.9892 1.2612-9.0132l-1.4766-6.0601z" fill="url(#v)" fill-rule="nonzero"/><path id="cq" d="m-180.07 150.92-8.4409-11.793 32.899 0.01303-24.458 11.78z" fill="url(#g)" fill-rule="evenodd"/><path id="cr" d="m-179.91 150.85-10.563-14.292 3.7922 40.629 6.7704-26.337z" fill="url(#w)" fill-rule="evenodd"/><path id="cs" d="m-182.33 148.11-8.1424-11.566 34.866 2.591-26.723 8.9749z" fill="url(#f)" fill-rule="evenodd" opacity=".70492"/><rect id="ct" transform="matrix(-.99656 .082886 .23607 .97174 0 0)" x="159.12" y="146.81" width="4.7813" height="1.6679" fill="#000" fill-rule="nonzero" opacity=".63115" stroke="#000" stroke-dashoffset="4" stroke-linecap="round" stroke-linejoin="round" stroke-miterlimit="4" stroke-width=".11821"/><rect id="cu" transform="matrix(-.99656 .082886 .23607 .97174 0 0)" x="154.34" y="146.81" width="4.7813" height="1.6679" fill="#fff" fill-opacity=".31429" fill-rule="nonzero" opacity=".63115" stroke="#000" stroke-dashoffset="4" stroke-linecap="round" stroke-linejoin="round" stroke-miterlimit="4" stroke-width=".11821"/><rect id="cv" transform="matrix(-.99656 .082886 .23607 .97174 0 0)" x="149.51" y="146.81" width="4.7813" height="1.6679" fill="#000" fill-rule="nonzero" opacity=".63115" stroke="#000" stroke-dashoffset="4" stroke-linecap="round" stroke-linejoin="round" stroke-miterlimit="4" stroke-width=".11821"/><path id="cw" d="m-200.41 151.86 8.2529-12.446-6.259 15.12-1.0972-2.5482-0.89671-0.12492z" fill="url(#x)" fill-rule="evenodd" opacity=".081967"/><path id="cx" d="m-199.95 151.88 6.8725-10.978-6.3028 11.471-0.1331-0.38999-0.43658-0.10301z" fill="#000" fill-opacity=".20816" fill-rule="evenodd" opacity=".081967"/><path id="cy" d="m-184.3 150.29-6.1692-13.734 3.7922 40.629 2.377-26.895z" fill="url(#h)" fill-rule="evenodd"/><path id="cz" d="m-215.77 81.301c16.933-2.2211 31.948-5.3902 50.798-6.6632l41.051-1.9604 21.873 91.13-110.97 10.391-0.99672-13.88-5.3702-74.786c-0.50135-4.9014 1.8573-6.3763 3.6132-4.2308z" fill="url(#y)" fill-rule="evenodd" opacity=".75"/></g></svg>
