<?xml version="1.0" encoding="UTF-8"?>
<svg id="a" version="1.1" viewBox="0 0 256 256" xmlns="http://www.w3.org/2000/svg"><circle id="b" cx="128" cy="148.05" r="100.83" fill="#269aff"/><path id="c" d="m121.96 228.12c-3.9219-0.60882-2.1624-4.3189-5.3328-6.8421-4.4335-3.9458-3.8454-10.512-8.7035-14.439-2.7302-4.4792 3.9365-8.0304 1.8614-11.873-1.3172-3.7267-0.93546-6.5051-2.7167-8.3514-2.3131-3.1877-3.9155-3.9647-5.0812-6.2887-0.6815-3.0338 2.5372-1.7997 0.5534-4.1254 1.7059-2.6943 0.77626-4.6581-1.0062-5.9365-0.61305-0.84266-2.2099 0.32414-3.2701-0.25154-1.8153 1.6695-2.1243-2.5717-2.767-2.2136-2.5046-3.489-7.0507-0.78869-11.169-0.0503-2.9737-1.0109-3.5649-1.412-5.4334-1.3584-3.7385 2.6937-7.5194-2.9964-10.313-6.0371-1.1663-1.999-0.34962-2.8592-1.7608-5.0813-0.8857-1.3346-1.8966-2.635-1.308-3.421-0.80923 0.14694-2.4415-1.9657-1.308-3.0689 2.241 1.4204-2.5075-2.8583 0.23268-3.4085 3.6777-4.3259 0.26238-9.5006 3.5908-12.841 2.5528-3.1244 5.0261-7.5494 9.5588-8.4017 2.1828-3.5329 7.4654-9.9379 10.464-9.6594 3.6779 2.6831 7.5636-0.88473 11.923-0.60371 2.9529 0.51597 5.8714 0.18986 8.8042 0.20123 2.6198 0.64296-1.1608 4.4173-0.0503 6.0874 2.0682 1.9318 6.5268 1.6107 8.0495 4.5279 5.3291 5.0798 5.6844-5.8356 10.565-1.4087 3.3205 0.7114 7.3664 3.1777 10.666 0.95588 0.99228-0.15976 1.8261 0.37003 3.2198 0.5534 4.4139-0.27883 3.4049-6.7525 3.8235-9.672-2.0735 0.89385-6.4335 0.31811-7.9174 1.1005-3.6615-0.40689-3.1207-0.8627-4.6096-1.1886 1.1439-0.86203-2.8416-2.8443-0.40247-2.2136-0.1447-1.7192-2.7087-3.0164 0.95587-3.2701 2.6985-0.57653 1.7853-1.1347 5.685-2.2639 3.4644-2.2035 5.9951 1.6688 9.7097 0.40247 6.0233-1.795-3.0681-5.2657-4.7794-6.339 1.272-0.50834 2.2165-2.6924 1.5596-2.5155 2.9249-2.3038-3.7819 0.90567-4.0248 1.1068 3.6912 1.8174-0.56045 3.4193-2.723 1.4778 2.0962-1.8211-2.1741-1.4737-0.99991-2.0312-2.6885 1.0157-3.2661 2.9127-3.9744 5.3328-0.89657 3.1482 2.3132 3.9165-2.5155 5.1819 1.2879-1.9402-4.522-0.78299-3.2261-0.23897-0.97909 0.30215-1.292 0.14936-1.4527 2.352 2.2851 1.2277 0.83894 1.5921 0.80495 2.4652-1.2891 0.39535-0.31867 2.3733-2.4652 0.70433-0.37519-2.1754-0.11983-2.222-0.70432-3.1695-3.0707-1.1266-0.61047-5.4348-4.0248-6.4396-0.46915-0.29919-3.7238-2.286-3.528-4.031-2.0936-2.2195-4.1798 1.52-0.64145 4.7857 3.1308 1.7254 5.7676 3.3361 2.4086 4.3769-0.79735 4.0466-0.87096 1.4842-2.1507-1.0439-1.38-2.0865-5.4322-3.037-5.4271-6.4585-2.3583-1.9639-4.9843 2.332-7.4144 7e-3 -1.4184 2.8814-7.0476 3.6514-7.3955 7.2446-1.8615 2.6625-4.9756 2.0101-7.7477 2.918-0.19748-2.5577-5.7332-1.2404-2.7167-4.5278-1.5698-0.57526 1.7228-3.191 2.1633-5.8359-0.12024-2.3072 2.8418-2.288 4.8297-1.3584 3.6725 2.2762 6.121-1.1662 6.0874-3.4714-0.01928-1.6731-2.3117-2.4505-2.3142-3.5217 0.06212-0.74671 4.0487 0.40304 4.0248-1.4087 1.9214 1.658 5.5608-3.1827 6.4899-2.0627 0.55331-2.4667 4.1421-2.3556 5.8862-2.8676-0.58592-0.78114 1.5072-5.2151 0.5534-3.9744 2.778-2.6161 2.912 0.366 0.75465 1.9118-0.0572 3.493 9.8392 1.4086 10.848 0.90557-0.027 0.28414 1.1366-4.3359 3.6914-3.3707-2.0225-2.6156 1.1258-2.6322 3.5217-2.9683 3.0097-0.36238-1.1536-1.6464-2.4148-0.65402-2.0331 0.85191-3.4985 0.54522-3.5217-1.6602-1.3513-2.5909 3.0857-2.7866 3.0186-4.88-2.5359-1.4711-2.7442 1.0963-3.8235 2.1633-1.7613 0.59868-3.5622 2.1969-2.4652 3.9241 2.2992 2.1829-3.8509 0.8737 0.25154 1.8615-2.5036 0.70638-2.3352 4.5458-5.2825 4.9303-0.9334-0.99432-0.92546-3.8461-1.459-5.7353-0.86849 0.54083-4.3949 3.1218-4.6536 0.36474 1.0896-0.43816-0.40441-0.91226 1.5344-1.7231-0.73592 1.4015-2.5952-0.82199 0.70434-0.85526-1.7071-0.35388-0.44058-0.88444-0.90557-1.5596 2.0768-0.30282 1.7593-0.95333 3.6726-1.3584 3.6482-0.32684-1.4367-0.13438 2.8173-1.8111 0.81443-0.89677 0.75204-1.3659 2.4149-2.3142 0.10452 0.2487 0.23595-1.06 1.2074-0.90557 1.6081-1.9104 3.5913-1.9013 5.5844-3.0689 0.12677 1.9044 1.7558-1.3488 1.9118 0.70433 2.4362-1.6246-0.68849 1.3871 2.4149 0.30186 0.56482 1.0672 4.2389 0.76226 6.3893 2.2136 2.2262 4.1183-8.0512-0.39542-4.6788 1.5596 1.9317 2.8581 3.6626 3.2261 3.572 1.5596 1.9337 0.61851 2.3493-2.0797 3.7103-2.5406-2.6339-3.8326 0.41263-0.44625 1.874-0.37732-0.47902-1.3293 2.874-3.2781 2.4652-2.0124 1.8524-1.0063 4.6111-0.41984 2.8676-2.3645 6.3557 0.45616 4.2234 0.67545 1.0062-2.1633-2.3015-4.3379 6.5812 1.4872 7.2949 3.8738-3.2234 0.33324 2.3147 1.2701 0.25155-1.3584-3.9252-3.203 5.5645 0.88939-1.0691-1.7734-3.7161 0.04529-7.7378-4.4427-1.6476-1.9495 2.1124 0.11999-1.8852-2.9897-1.6602-3.0186-1.4131-0.9417-2.4454-0.70307-2.4149-2.8676 0.0651-0.30204 0.79903-0.12237 0.10061-0.85526-2.9663-0.86208 0.3623-1.5054 2.113-1.2074 4.1101 1.7126 3.6175 2.7533 3.3707 0.85526-0.20053-0.55105 1.789-1.1598-0.45279-1.8614 0.24548-0.78592 5.834 1.2468 2.2073-0.52825-1.3803-0.86335-4.6933-2.2493-4.6725-2.4903-5.1985-2.6615 8.7216 1.9892 11.18 3.0347 15.844 6.166 31.31 17.042 40.991 30.32-5.5777-7.1235 3.928 6.7512 1.5093 1.5596 5.6638 7.7869 11.652 15.809 14.03 25.318-0.50414-0.18092 2.1604 8.0028 0.1069 3.7606-0.51588 6.062 5.5818 11.245 5.119 17.734 0.0844 4.3096 0.1409 5.7135-1.1005 2.1884-0.42897-0.19359-2.8939-4.5616-1.8552-0.45278 0.0249 3.3612 1.2631 6.5624 1.7105 8.5023 2.057-0.1072 3.0317 11.419 1.0062 6.5402-0.56727-2.5318-1.2096-6.5307-2.3142-7.8294-0.58119-4.7997-0.41531-4.4171-1.6602-8.3702-0.87489-2.3717-2.3886-7.6599-2.2639-2.5155-1.2211 2.5024-1.1092-3.5052-2.3646-3.9744-0.38748-1.328-1.1616-1.1038-1.3584-1.8111-0.89105-0.10316-2.2321-4.3051-3.1695-3.2198 0.65607 1.2697 0.75539 0.52812 0.0503 2.3142-0.62699 0.37605-1.8252 1.0062-1.2577 4.3769-1.5906 2.11-0.79844 7.5131-3.0689 9.7097 0.32264 3.8355 1.8515 7.5568 0.57227 11.477-0.6026 5.6669-3.5274-0.66999-4.9932-3.66-2.081-4.6993-4.6568-8.8174-5.6912-13.653-1.3042-4.1082-0.0368 1.1848-2.6405 1.2389-3.8688-2.5239 1.3755-3.4474-3.296-4.0562-0.60931 1.0547-3.5779-2.506-3.3707-2.2639-2.8133 1.2471-5.5995 2.2637-8.8545 2.2639-3.6039-0.19787-4.2638-3.0674-7.798-0.75464-3.1211-0.61301-4.8162-3.1976-6.7415-4.9303-1.0144-0.49503-2.7714 0.38907-2.113 1.2577-0.86223 1.354 3.1685 3.7472 4.0373 5.3139 1.1291 4.192 2.029-2.4126 2.4526 3.0374 4.0084 3.682 5.572-7.2199 6.4396-2.8676 4.3497 2.4788 6.9523 5.2373 3.9242 9.5085-1.297 4.1861-6.0226 6.6013-9.3576 9.8104-3.2497 2.0423-6.6132 4.6796-10.414 5.3328-1.5048-2.2216-1.4341-5.0405-2.4652-7.3955-2.1743-3.7078-6.1822-5.7029-6.8924-10.112-2.8575-2.1205-3.9133-5.9082-6.7415-8.1501 0.3327-3.799-1.7957 2.885-4.0248-2.7167 1.1699 3.8049 5.3476 7.6132 5.6598 10.879 3.7857 2.432 2.5385 7.5788 6.2195 10.012 0.50222 4.8313 4.1569 3.553 6.8861 7.232-0.10806 1.7458 1.1391 5.3074 5.0813 3.1695 3.0865 0.72285 9.1839-6.1858 8.5023-0.5534-0.58176 2.7179-3.1045 9.8042-5.9742 13.159-4.5418 4.6701-9.7928 8.8981-12.64 14.662-0.88224 2.878-0.0392 5.3248 0.50309 8.5023 2.4323 1.0209-0.035 4.4647 1.0062 6.4396 0.17767 3.6038-5.6944 4.5452-7.6974 7.0433-5.1126 1.2341-0.78973 4.4731-2.0627 6.9427-5.8171 1.8802-4.6066 7.5023-10.817 10.615-3.9432 3.2014-9.0344 1.7113-13.533 2.918zm84.771-77.426c-0.17888-0.53663 0.17888 0.53663 0 0zm-39.845-38.185c3.4413 0.23682-0.9709-5.2262-1.4087-5.0813-1.7688-1.9073 3.9528-2.4741-1.1886-3.2261 1.6266 1.857-5.3392-3.7281-3.6915-3.7166 0.27381-0.63806 3.5127-3.6737-1.0062-3.8235-1.4955 0.95083-3.4586 2.3126-3.7229 4.1757 1.6731 2.0423 4.3786 6.7789 5.3831 6.6912-0.90459 3.5396 2.0514 5.9349 5.6347 4.9806zm-5.0813-13.634c-0.17176-0.41468 0.41469 0.17178 0 0zm-1.2577 116.57c-4.4741-1.7518 0.90003-6.4532 0.35216-9.2066-1.0619-4.5382 4.5783-3.5423 5.685-6.1378 1.2108 0.15771 2.3592-5.0321 3.9241-3.8738 1.9142 4.8953-1.1596 5.245-2.484 10.401-2.2086 3.0469-2.6996 8.801-7.4772 8.8167zm-133.17-67.465c-0.04531-4.4541 0.75131-16.088 1.6602-16.502 0.11106 4.2606-1.2934 9.3192 0.90557 13.433 1.1153 4.2158 1.586 9.115 0.30186 12.98-0.67485-0.34843 2.8119-1.7848 1.1571 1.6602-0.90394 0.90994 0.70466-0.0926 1.3584-0.10061 1.037 2.1321 2.2538 5.0855 1.8615 4.6788 3.3545 2.0012 5.5761 6.8569 7.4961 10.364 1.6364 3.4452-1.4932 8.084-1.459 9.5085 0.74159 3.7363 3.034 9.8316 2.113 12.728-1.8606-1.9367-1.8939 2.1438-0.15093 3.6223 4.4252 8.5493-3.9146-5.3989-4.959-8.0872-6.7968-13.706-10.327-28.989-10.285-44.285zm199.53 14.741c-1.1534-4.5223-1.007-9.4226-3.8298-13.301 0.45716-3.7954 3.3026 0.90238 3.1255 1.8803 0.29443 0.52493 1.1815 2.0274 0.80494 1.6099 0.19339 2.7272 1.1845 6.2421-0.10066 9.8104zm-15.646-7.647c-0.98041-1.7939-1.6133-9.4842 0.80495-4.2763 0.83654 1.2196 1.0456 4.0461-0.80495 4.2763zm-144.84-17.005c-0.02612-0.89333 0.46685 0.0157 0 0zm158.12-3.8738c-0.22178-0.1259 0.13712-0.15208 0 0zm-7.798-8.452c-0.21881-0.50208 0.32667 0.38717 0 0zm-3.6726-3.7732c0.14832-0.23998 0.14832 0.23999 0 0zm-72.194-3.1192c-3.0574-1.4547 5.3762-2.6115 0 0zm-11.772-0.25155c-4.2724-1.6965 2.996-0.37612 2.2136-0.45279-0.27204 0.77072-1.6628 0.15841-2.2136 0.45279zm-13.986-3.2701c-3.8833-1.811-2.9468-2.8906 0.75465-2.4148 1.2891-0.93708-0.45269 2.4779-0.75465 2.4148zm13.433-1.8111c-4.1534-2.117-0.32464-2.078 0 0zm-21.18-2.3645c-0.97989-1.4194 0.85023-5.484 1.8363-2.6412-0.45644 1.3887-0.35044 2.2601-1.8363 2.6412zm1.0565-4.1254c-0.96765-2.5013 2.6594-2.7773 0.30187 0.10061zm-12.125-15.143c1.1897-1.713 5.2063-1.205 1.308-2.4149 2.0673-1.6797 1.3453-1.267 3.421-2.6161 1.6662-2.2682-2.8907-0.59002-0.35217-3.0689-1.6986 0.74547 1.7426-4.2787 3.3707-3.0689-2.7034 1.2435 2.0511 1.7532-1.9118 3.2701 2.0024 1.9377 1.4658 5.1765 1.8614 6.1881-0.61914 1.362-1.2062 1.7056-4.0248 1.4087-1.3451-0.26346-2.2742 0.44522-3.6726 0.30186zm4.2763-0.15093c-0.468-0.38293 0.94094 0.0868 0 0zm-7.2949-2.6161c-0.61458-0.39709 0.26877-1.195 1.2577-1.9118 0.39031-0.54579 0.94834-2.1617 0.45278-1.8111 1.5152 0.50916 2.5649-1.4902 3.2701-0.85526 2.3811 0.46042-0.98287 2.3707-1.459 4.0248-1.0425 0.07449-2.3602 0.59609-3.5217 0.55341zm-16.149-27.972c-2.0422 1.1635-14.292 10.13-7.5464 5.5844 3.4926-1.2479 11.405-7.3838 12.225-5.6347-1.9157 1.4898-4.2739 2.9651-5.8107 4.031-3.1825 2.6819 5.029-1.7814 1.1823 0.64774-2.3895 2.0416-4.876 3.3032-6.5905 5.685-1.4249 2.2493-2.3316 0.57101-1.6099 2.0627 9.44e-4 1.6269-3.8255 3.1713-5.3831 2.3142 0.13527-3.2258-7.1207 1.4654-1.4087-0.10061-1.8302 1.5633-1.996 1.3864-4.0751 3.9744-1.4998 2.7032 3.3208-0.90144-0.35217 1.7105-2.7276 0.82232-3.1402 0.08807-0.50309-0.90557 0.69201-1.1771-2.067-0.67842-3.0186 0.45279-1.3581 1.8457-2.8016 1.5811-3.8738 3.1695 1.823-2.849 9.9694-11.125 15.391-15.213 3.5988-2.8589 7.3757-5.5057 11.374-7.7787zm38.587 26.06c-1.5645-2.1094 2.576-2.0091 0.30185-0.25155l-0.11319 0.2767zm-55.189-4.226c1.6237-2.3048-0.42242-0.47381 0.5031-2.0627-1.3196-1.9615 3.3369-3.5795 5.2322-4.5782-1.2514 1.0142-3.0219 1.8102-2.4652 2.8173-0.7967 1.0895-1.3348 2.1473-1.6099 2.3645-0.24455 0.25941-0.2628 0.66209-1.6602 1.459zm36.726-10.515c-1.8802-1.2052-0.84752-2.2924 0.30186-2.3142 0.45569-0.59589-1.4053-1.0006 0.50309-1.2074 1.1597-0.50772-0.38653 1.6555 1.4087 0.80495 0.4794 0.34535 3.8469-0.63816 2.767 0.65402 0.71747 1.915-3.6591 1.7824-4.9806 2.0627zm-16.2-1.459c1.034-1.6134 0.64682-1.4481 0.5534-2.4149 0.97442-1.1669 4.9933-4.2459 4.1254-3.6223 0.27247-0.54551 3.1609-2.3069 4.5278-2.9683 2.1422-0.36341 1.0014-0.43022 3.2198-0.70433 1.589-0.53827 1.2787-1.4322 2.6161-1.3584 1.5019-0.93515 0.18662-1.1855 2.4149-1.7608 1.0842-0.77499 5.1752-1.4126 5.4334-3.3204 0.89964-0.81979 2.6489-0.68083 4.3769-1.3584 1.7479 0.383 7.1425-0.38038 6.2384 0.70433 0.11584 0.90616 1.6745-0.45706 2.767 0.30186 3.9376 0.5364-1.041 1.1801 0 1.6099-0.46309 0.44272 3.5082 0.61651-1.8614 1.7105-3.0192 0.54527-1.7708 2.0926-4.3266 1.9118-1.2448 1.634-1.2726 1.412-2.6853 2.0501 0.29158 0.67774-2.9764-0.30602-1.8426 0.41505-1.3477 1.6482-0.91706-1.1762-1.7608 1.7608-2.3277 2.6784 0.0507-2.3167-3.421-0.05032-0.92699 0.63891 3.4528 1.2995-0.50309 1.7105-2.9933-0.33335-5.2676 0.1816-7.798 0.75464-2.4628 1.0049 0.2316-0.99916-3.4714 0.35217-1.6975 1.0258-3.7155 1.4692-5.2825 2.7167-1.2172 0.53128-2.2572 1.2404-3.3204 1.5596zm0.40247-0.45278c0.19704-0.18834-0.34003 0.16369 0 0zm9.1563-8.6029c-0.26914-0.09708 0.06354 0.15708 0 0zm40.902 6.7415c0.258-0.22528-0.0509 0.19031 0 0zm-4.0751-0.45279c-0.11579-0.50209 0.94-0.24952 0 0zm0.35217-0.30186c-0.19863-0.41312 0.69422 0.13654 0 0zm16.703-1.6099c-1.2636-0.28855-3.3816-1.938-1.3395-2.5721 0.66231 1.2572 5.4973 2.8449 1.3395 2.5721zm-42.461-2.113c-1.7634-0.87456 2.8508-0.12806 0 0zm40.248-0.50309c-0.76104-1.4197-0.38265-2.6637 1.2074-3.6726 2.2218-0.91233-0.77337 1.7943 0.0503 3.1192 0.62348 0.77359-0.90845 0.57661-1.2577 0.5534zm-61.579-0.60371c0.61854-1.7334 5.5812-3.6647 4.3832-3.7292 1.0938-1.386 4.1818-0.2845 7.037-2.5092 3.0175-1.7515 2.5519-1.0107 2.8173-2.0627 2.3579-2.2626 10.48-2.4059 2.4652-0.95588 1.3851-0.36659 5.157-0.88676 2.2136 0.60372-0.99076-0.35878-0.64477-0.45941-2.2639 0.80495-1.186 0.74818-4.2815 2.5507-3.4714 1.9935-0.07676 0.20322-1.5074 0.83431-2.2639 0.82382-1.0342 0.84898-2.7543 2.1559-3.572 2.8173-2.635 0.8037-2.7212 0.72753-0.40247-0.90557-0.64349-0.68359-3.137 2.118-4.9429 2.7167-2.3298 1.2487 3.4076-3.434-1.9998 0.40248zm43.97-1.459c-0.65466-1.2998 0.80548-0.89927 0.30186-1.5596-2.0244 0.32051-0.70305-1.731 0.25154-0.65402-0.43565-0.68247 2.8756 0.23158 0.95589 1.0565-0.49102 0.30144-0.86136 1.8471-1.5093 1.1571zm2.7167-0.35217c-4.3466-1.7597 3.0658-0.6243 0 0zm-34.009-0.5031c-0.27647-1.28 2.9287-0.90823 0 0zm34.311-1.1571c-1.7117-0.54431-1.6483-1.013 0.0503-1.0565 0.99431 0.21314 2.0338 0.65685-0.0503 1.0565zm-27.066-8.5023c-0.17235 0.06909 13.969-3.3926 4.9303-0.90557-0.10958 0.0848 2.1375-0.03568-3.3707 0.85526-0.92946 0.22103-5.6214 1.5337-1.5596 0.05032zm-0.90558 0.25155c-5.6802 1.9728-0.87514 0.57304-2.3142 1.4087 6.9653-1.4428 6.4889-0.92541 0.45278 0.20124-3.1151 0.99981-6.9848 2.2321-4.3266 1.9118 3.551-0.39289-5.2397 2.1227-4.2763 1.1571-2.0333 0.12541-7.2429 1.9679-1.4212-0.36317 3.8681-1.6808 7.8348-3.1394 11.886-4.3156zm-5.0813 2.113c5.016-0.89474 0.8271-0.63395 0 0zm56.598 5.685c0.0612-0.3336 0.30666 0.1976 0 0zm-66.71-0.55341c-1.6651 0.32421 5.7501-3.5071 4.1254-2.1633-1.3667 0.72588-2.7041 1.5271-4.1254 2.1633zm8.3011-0.85526c0.2978-0.21739 0.09759 0.095 0 0zm22.991 0c0.68596-0.46362 0.8529 0.05334 0 0zm-25.557-0.20124c0.80997-1.0273 0.52034 0.42903 0 0zm-0.60372-0.15093c3.5502-1.9355 0.98407 0.35002 0 0zm58.309-1.6602c-4.5495-1.0349 1.5622-1.1334 0 0zm-2.2639 0c-3.7142-1.0814 3.1345-0.61186 0 0zm-2.2136-0.35217c-2.7234-1.3527 2.7767-0.02017 0 0zm-41.405-1.9621c2.0137-1.7399 7.4214-3.1929 5.0813-1.459 0.0958-0.10781 5.0144 0.32368 1.9118-0.35216 1.9298-0.58455 3.6682-0.93508 5.4837-0.60372-3.1625 0.06293-3.2297 1.4221-2.0124 1.1068-0.33015-0.4994 1.209-0.89054 2.6161-0.70433-0.25915 0.30123 1.0495 0.84763 0.79866 0.71691-1.0068 1.8183-3.716 0.74676-5.9302 0.84269-0.76228-0.51191-4.4343-0.67118-3.572-0.20124-3.9756 1.528 2.4006-2.2711-1.6099-0.65402-0.65493 0.6957-1.3291 1.5772-2.767 1.308zm49.253-1.308c-4.1334-1.1291 0.83091-0.8607 0 0zm-50.36-0.30186c2.0881-1.2702 5.7581-0.8126 1.308-0.15093l-1.308 0.25154zm3.4714-0.20124c3.6337-1.178 0.73733 0.38823 0 0zm1.5093-0.5031c3.087-1.2169 4.7267-0.63531 0.25154 0zm4.3769-0.50309c2.5466-0.86252 4.7525-0.25986 0 0zm-2.113-0.5031c1.3575-0.94656 6.9421-1.3007 1.459-0.25155 3.7592-0.42825-0.79739 0.32224-1.459 0.25155zm1.3584-0.85526c4.8883-1.4871 5.2442-0.50758 0 0zm79.942 26.966c0.46869-3.3939-8.8746-9.1841-1.2577-2.4149 0.56735 0.68287 1.208 1.4897 1.2577 2.4149zm-6.9427 18.061c-2.738-2.4622 2.659-2.8969 1.9118-3.8235-0.802 1.2475-4.0936 0.52806-3.0186 2.8173 0.013 0.60941 0.8226 0.59839 1.1068 1.0062zm-12.98 5.2322c2.5206-0.50368-1.5852-3.6804-0.85526-3.2701 1.147-2.7289-2.2393 3.7109 0.85526 3.2701zm-24.45 81.602c1.1696-1.9962 2.3233-2.4615-0.60371-2.8173-0.58947-0.31352-2.6661 0.34482-2.918 1.742-0.21646 2.5835-0.29581 3.4054 1.7986 2.9808 1.2505 0.19687 1.2922-1.4198 1.7231-1.9055zm-5.1316 11.873c-0.63758-0.86885-3.1357-9.908-2.8676-7.0936-0.61382 2.7926 1.1475 5.5012 2.8676 7.0936zm6.6912 8.0998c0.52108-0.63931-1.6827-10.724-1.1068-4.6285-0.39876 1.3711-0.3662 4.5952 1.1068 4.6285z" fill="#56e000" stroke-width="1"/><path id="d" d="m92.223 7.1231c-17.338 0-31.393 12.279-31.393 32.556 0 20.277 17.858 34.765 31.393 67.169l109.73 109.74c17.277-18.642 26.877-43.121 26.877-68.538 4e-5 -6.6556-0.65893-13.295-1.9673-19.821l-6.6e-4 -6.6e-4 -112-111.99c-5.7122-5.8852-13.742-9.1169-22.637-9.1169zm133.21 121.87c-1.8821 1.0191-3.6897 2.042-5.4198 3.078-0.86508 0.51803-1.7105 1.0394-2.5367 1.5652-1.2392 0.78869-2.4344 1.5874-3.5843 2.4001 1.1498-0.81274 2.3451-1.6114 3.5843-2.4001 0.82614-0.52579 1.6716-1.0472 2.5367-1.5652 1.7301-1.0361 3.5377-2.059 5.4198-3.078zm-13.78 8.6884c-0.72605 0.55545-1.4313 1.1185-2.1162 1.6899 0.68491-0.57141 1.3902-1.1344 2.1162-1.6899z" fill="#000" fill-opacity=".1"/><path id="e" d="m123.62 39.679c0 20.277-17.843 34.766-31.393 67.17-13.535-32.404-31.393-46.892-31.393-67.17 0-20.277 14.055-32.557 31.393-32.557 17.338 0 31.393 12.279 31.393 32.557z" fill="#d40000"/><circle id="f" cx="92.223" cy="39.945" r="13.874" fill="#333"/></svg>
