<?xml version="1.0" encoding="UTF-8"?>
<svg id="z" version="1.0" viewBox="0 0 128 128" xmlns="http://www.w3.org/2000/svg" xmlns:xlink="http://www.w3.org/1999/xlink"><defs id="aa"><linearGradient id="b"><stop id="ab" stop-color="#0057ae" offset="0"/><stop id="ac" stop-color="#0057ae" stop-opacity="0" offset="1"/></linearGradient><linearGradient id="c"><stop id="ad" offset="0"/><stop id="ae" stop-opacity="0" offset="1"/></linearGradient><linearGradient id="d"><stop id="af" offset="0"/><stop id="ag" stop-color="#090909" stop-opacity=".6787" offset=".70879"/><stop id="ah" stop-color="#131313" stop-opacity="0" offset="1"/></linearGradient><radialGradient id="n" cx="-25" cy="106.5" r="45" gradientTransform="matrix(3.2247 -.5865 .49651 3.4186 128.92 -272.16)" gradientUnits="userSpaceOnUse"><stop id="ai" stop-color="#fff" offset="0"/><stop id="aj" stop-color="#fff" offset=".42597"/><stop id="ak" stop-color="#f1f1f1" offset=".58928"/><stop id="al" stop-color="#eaeaea" offset=".8022"/><stop id="am" stop-color="#dfdfdf" offset="1"/></radialGradient><linearGradient id="y" x1="246.55" x2="289.62" y1="127.77" y2="-81.861" gradientTransform="matrix(.93248 -.15221 .11652 .92802 -183.48 39.996)" gradientUnits="userSpaceOnUse" xlink:href="#c"/><linearGradient id="x" x1="246.55" x2="308.37" y1="127.77" y2="-73.111" gradientTransform="matrix(.93248 -.15221 .11652 .92802 -183.48 39.996)" gradientUnits="userSpaceOnUse" xlink:href="#c"/><linearGradient id="w" x1="246.55" x2="316.12" y1="127.77" y2="-87.861" gradientTransform="matrix(.93248 -.15221 .11652 .92802 -183.48 39.996)" gradientUnits="userSpaceOnUse" xlink:href="#c"/><linearGradient id="v" x1="246.55" x2="301.73" y1="127.77" y2="-49.876" gradientTransform="matrix(.93248 -.15221 .11652 .92802 -183.48 39.996)" gradientUnits="userSpaceOnUse" xlink:href="#c"/><radialGradient id="m" cx="42.618" cy="120.64" r="3.4069" gradientTransform="matrix(1.8462 2.1042 -19.074 16.758 2262.5 -2019.3)" gradientUnits="userSpaceOnUse"><stop id="an" stop-color="#b4942a" offset="0"/><stop id="ao" stop-color="#e4dcc9" offset="1"/></radialGradient><radialGradient id="l" cx="15.727" cy="58.09" r="2.6144" gradientTransform="matrix(2.3313 2.4033 -34.47 34.185 2042.5 -1974.9)" gradientUnits="userSpaceOnUse"><stop id="ap" stop-color="#252525" offset="0"/><stop id="aq" stop-color="#252525" offset=".5"/><stop id="ar" stop-color="#252525" offset=".75"/><stop id="as" offset="1"/></radialGradient><radialGradient id="k" cx="89.455" cy="100.75" r="47.746" gradientTransform="matrix(.08087 .081028 -1.0354 1.041 187.6 -63.008)" gradientUnits="userSpaceOnUse"><stop id="at" stop-color="#2d2d2d" offset="0"/><stop id="au" offset=".5"/><stop id="av" offset="1"/></radialGradient><radialGradient id="j" cx="34.678" cy="7.4623" r="47.595" gradientTransform="matrix(.99991 -.0078416 .00056661 .020483 -.0012422 7.5814)" gradientUnits="userSpaceOnUse"><stop id="aw" stop-color="#fff" stop-opacity=".68345" offset="0"/><stop id="ax" stop-color="#fff" stop-opacity="0" offset="1"/></radialGradient><radialGradient id="i" cx="34.678" cy="7.4623" r="47.595" gradientTransform="matrix(-1.5103 .0026413 -.00011671 -.0091102 87.052 7.4387)" gradientUnits="userSpaceOnUse"><stop id="ay" stop-color="#fff" offset="0"/><stop id="az" stop-color="#fff" stop-opacity="0" offset="1"/></radialGradient><radialGradient id="h" cx="49.01" cy="8.4953" r="3.975" fx="47.371" fy="6.7702" gradientTransform="matrix(1.6761 1.6952 -.63654 .63396 34.183 -71.321)" gradientUnits="userSpaceOnUse"><stop id="ba" stop-color="#fff" offset="0"/><stop id="bb" stop-color="#aeaeae" offset="1"/></radialGradient><linearGradient id="u" x1="48.915" x2="48.913" y1="2.9719" y2="2.5548" gradientTransform="matrix(2.3839 0 0 2.3846 -26.412 -87.078)" gradientUnits="userSpaceOnUse"><stop id="bc" stop-color="#252525" offset="0"/><stop id="bd" stop-color="#252525" stop-opacity="0" offset="1"/></linearGradient><radialGradient id="g" cx="49.012" cy="2.6743" r="1.7246" gradientTransform="matrix(2.3839 0 0 .2901 -26.412 -81.54)" gradientUnits="userSpaceOnUse"><stop id="be" stop-color="#fff" offset="0"/><stop id="bf" stop-color="#252525" stop-opacity="0" offset="1"/></radialGradient><linearGradient id="t" x1="48.499" x2="48.733" y1=".8115" y2="2.3657" gradientTransform="matrix(1.6761 1.6952 -1.6895 1.6827 43.128 -80.23)" gradientUnits="userSpaceOnUse"><stop id="bg" stop-color="#fff" offset="0"/><stop id="bh" stop-color="#fff" stop-opacity="0" offset="1"/></linearGradient><linearGradient id="s" x1="46.052" x2="46.052" y1="3.1" y2="2.3959" gradientTransform="matrix(2.3708 0 0 2.3846 -25.791 -87.078)" gradientUnits="userSpaceOnUse" xlink:href="#d"/><radialGradient id="f" cx="49.012" cy="2.6743" r="1.7246" gradientTransform="matrix(1.5809 0 0 .2901 6.1072 -81.54)" gradientUnits="userSpaceOnUse"><stop id="bi" stop-color="#fff" stop-opacity=".55036" offset="0"/><stop id="bj" stop-color="#fff" stop-opacity="0" offset="1"/></radialGradient><linearGradient id="r" x1="46.052" x2="46.052" y1="3.1" y2="2.3959" gradientTransform="matrix(1.8379 0 0 1.8384 38.923 -73.634)" gradientUnits="userSpaceOnUse" xlink:href="#d"/><radialGradient id="e" cx="49.012" cy="2.6743" r="1.7246" gradientTransform="matrix(1.5686 0 0 .2901 -174.12 -81.54)" gradientUnits="userSpaceOnUse"><stop id="bk" stop-color="#fff" stop-opacity=".55036" offset="0"/><stop id="bl" stop-opacity="0" offset="1"/></radialGradient><linearGradient id="q" x1="19.426" x2="81.926" y1="104.25" y2="8.1233" gradientTransform="translate(-4.7e-5)" gradientUnits="userSpaceOnUse" xlink:href="#b"/><linearGradient id="p" x1="19.426" x2="81.926" y1="104.25" y2="8.1233" gradientTransform="matrix(1 0 0 1.8199 .82864 -42.867)" gradientUnits="userSpaceOnUse" xlink:href="#b"/><linearGradient id="a" x1="19.426" x2="81.926" y1="104.25" y2="8.1233" gradientUnits="userSpaceOnUse" xlink:href="#b"/><linearGradient id="o" x1="19.426" x2="81.926" y1="104.25" y2="8.1233" gradientTransform="matrix(-.73727 .27625 .45198 .89203 78.668 -10.475)" gradientUnits="userSpaceOnUse" xlink:href="#b"/></defs><g id="bm"><rect id="bn" x="303.35" y="78.775" width="1" height="0" fill="#fff" fill-rule="nonzero" opacity=".57787"/><path id="bo" d="m144.42 5.5585v-2.7947 2.7947z" fill="#fff" fill-opacity=".75688" fill-rule="nonzero"/><path id="bp" d="m5.2275 17.298 13.563 106.14 87.677-13.889-18.256-104.04-82.984 11.784z" fill="none" stroke="url(#v)" stroke-dashoffset="4" stroke-linecap="round" stroke-linejoin="round" stroke-miterlimit="4" stroke-opacity=".11789" stroke-width="9.6"/><path id="bq" d="m5.2275 17.298 13.563 106.14 87.677-13.889-18.256-104.04-82.984 11.784z" fill="none" stroke="url(#w)" stroke-dashoffset="4" stroke-linecap="round" stroke-linejoin="round" stroke-miterlimit="4" stroke-opacity=".11789" stroke-width="7.2"/><path id="br" d="m5.2275 17.298 13.563 106.14 87.688-13.797-18.267-104.13-82.984 11.784z" fill="none" stroke="url(#x)" stroke-dashoffset="4" stroke-linecap="round" stroke-linejoin="round" stroke-miterlimit="4" stroke-opacity=".11789" stroke-width="4.8"/><path id="bs" d="m5.2275 17.298 13.563 106.14 87.688-13.797-18.267-104.13-82.984 11.784z" fill="none" stroke="url(#y)" stroke-dashoffset="4" stroke-linecap="round" stroke-linejoin="round" stroke-miterlimit="4" stroke-opacity=".19512" stroke-width="2.4"/><path id="bt" d="m5.0877 16.184 13.563 106.14 87.677-13.889-18.256-104.04-82.984 11.784z" fill="#fff" fill-rule="nonzero"/><path id="bu" d="m6.3465 17.115 13.143 102.8 85.439-13.524-17.836-100.7-80.746 11.418z" fill="url(#n)" fill-rule="nonzero"/><path id="bv" d="m95.845 99.932c-0.071715 0.00694-0.14219 0.02918-0.21908 0.06661-0.28058 0.16248-0.5909 0.41356-0.9277 0.76295-0.32934 0.33975-0.63341 0.73085-0.92478 1.1834-0.2839 0.44294-0.5193 0.91406-0.70365 1.4093-0.17598 0.494-0.25302 0.9761-0.2278 1.4387 0.00993 0.16811 0.067592 0.32944 0.1679 0.4665 0.099398 0.12874 0.21224 0.23992 0.34989 0.32875s0.28301 0.14273 0.44031 0.17759c0.15639 0.02652 0.29763 0.02209 0.42062-0.02253 0.14814-0.04854 0.30305-0.12411 0.45592-0.20732 0.16033-0.09284 0.31275-0.18185 0.4554-0.28042 0.14266-0.09858 0.26463-0.20015 0.38213-0.2948 0.11659-0.10301 0.22422-0.19151 0.30911-0.2726 0.062489-0.05216 0.07209-0.09186 0.035808-0.11167-0.037203-0.02812-0.083561-0.00774-0.14604 0.04441-0.2126 0.16038-0.47758 0.31449-0.78332 0.48089-0.29735 0.16508-0.58517 0.29032-0.85723 0.37512-0.10807 0.02533-0.21825 0.03562-0.32905 0.03593-0.10334-0.00936-0.18472-0.03141-0.27495-0.07673-0.082778-0.05498-0.15812-0.13526-0.22124-0.2442-0.054735-0.11022-0.10115-0.26637-0.11292-0.45116-0.013597-0.20148 0.003863-0.39402 0.050785-0.58796 0.046008-0.20229 0.10594-0.38701 0.17893-0.57654 0.072983-0.18951 0.14992-0.3771 0.23405-0.54291 0.09157-0.17544 0.19264-0.33227 0.27112-0.47173 0.2515-0.03919 0.54187-0.08619 0.87718-0.13844 0.33532-0.05225 0.67067-0.10298 1.0051-0.16356 0.3344-0.06059 0.63778-0.1255 0.91351-0.17695 0.2841-0.05276 0.49954-0.09675 0.63931-0.14399 0.19536-0.05912 0.35806-0.16425 0.51028-0.28337-0.0827 0.13911-0.16541 0.25642-0.25324 0.41591-0.16442 0.28861-0.34238 0.6115-0.52372 0.97907-0.38414 0.77243-0.64435 1.3777-0.79229 1.8164-0.039304 0.10793-0.035664 0.19125 0.001522 0.21938 0.013893 0.04872 0.056187 0.05976 0.14657 0.02872 0.33546-0.1286 0.54744-0.25918 0.61936-0.38065 0.43141-0.65256 0.84829-1.2453 1.2683-1.7688 0.42839-0.52482 0.86621-0.99702 1.3074-1.4051 0.06248-0.05215 0.13359-0.07345 0.20065-0.08391 0.1509-0.0235 0.22437 0.03665 0.23902 0.17009 0.00549 0.05005 0.00409 0.09168-0.01739 0.12895-0.20649 0.37151-0.39885 0.75395-0.57744 1.1465-0.17111 0.38295-0.33492 0.7828-0.4856 1.1965-0.37804 0.98355-0.54783 1.7794-0.53219 2.3877 0.01106 0.3579 0.07009 0.6349 0.18886 0.84946l0.65787-0.10839c-0.21572-0.17847-0.32673-0.47103-0.33531-0.8599-0.03057-0.58905 0.12379-1.4019 0.47682-2.4579 0.36886-1.067 0.8035-2.0352 1.3154-2.8869 0.10926-0.16972 0.1016-0.26811-0.02033-0.29154-0.11447-0.03305-0.24459 0.02009-0.41986 0.13223-0.08856 0.04774-0.18471 0.11669-0.29108 0.23506-0.2088 0.11737-0.60778 0.48907-1.1816 1.0874-0.24445 0.25865-0.49115 0.52306-0.72629 0.78874-0.22768 0.25604-0.44326 0.50478-0.65326 0.76654-0.04389 0.06623-0.09523 0.1097-0.14554 0.11754-0.06705 0.01045-0.10054-0.03035-0.11061-0.1221-0.00733-0.06671 0.00633-0.13786 0.03529-0.18479 0.12646-0.40142 0.28049-0.78332 0.46746-1.1772 0.19442-0.40355 0.42654-0.82819 0.70481-1.2448 0.0224-0.02893 0.03959-0.06 0.03593-0.09336-0.00929-0.00704-0.04194 7e-3 -0.0913 0.02317-0.01672 0.00574-0.0212 0.01444-0.03645 0.02024-0.00425-0.00442 0.00694-0.01598-1.3e-4 -0.01828-0.02699-0.01276-0.07373 0.0141-0.10921 0.07901-0.01528 0.00843-0.04237 0.01267-0.05474 0.02122-0.03917 0.03156-0.07011 0.06897-0.09068 0.11459-0.01045 0.0094-7e-3 0.02804-0.01804 0.03754-0.0016 0.00253-0.01666-0.00156-0.01828 9.8e-4 -0.06375 0.0541-0.1175 0.11829-0.20003 0.17531-0.16597 0.11918-0.33631 0.2027-0.51052 0.24681-0.1323 0.03759-0.30137 0.0612-0.49327 0.09958-0.18351 0.03709-0.38581 0.08144-0.60285 0.12374-0.21797 0.03396-0.45133 0.07247-0.69443 0.11035-0.23472 0.03659-0.46809 0.07509-0.69443 0.11035 0.41182-0.13204 0.78454-0.30641 1.0941-0.51582 0.30954-0.20941 0.51708-0.43833 0.6172-0.69146 0.061703-0.13686 0.066893-0.27492 0.033634-0.42243-0.024868-0.14883-0.079121-0.28838-0.16739-0.39339-0.0808-0.11465-0.1804-0.18222-0.31254-0.22101-0.066546-0.02357-0.148-0.03175-0.21971-0.02482zm0.13056 0.35879c0.099684-0.02401 0.16313-0.00745 0.21985 0.04309 0.055781 0.0422 0.090357 0.1131 0.09297 0.21448 0.002598 0.1014-0.03801 0.22502-0.10718 0.37151-0.084128 0.16581-0.20027 0.32411-0.36257 0.47665-0.15393 0.15123-0.32897 0.29787-0.52754 0.43061-0.19951 0.12441-0.40881 0.24017-0.63804 0.3268-0.22923 0.08662-0.45767 0.14853-0.67563 0.18249 0.25114-0.35299 0.52865-0.69809 0.81608-1.0313 0.28649-0.34155 0.56297-0.62696 0.85392-0.85045 0.11841-0.08631 0.23594-0.14951 0.32816-0.16388zm-3.6443 2.0972c-0.85598 0.12492-1.7478 0.56968-2.6617 1.3314-0.91305 0.77002-1.5245 1.5952-1.8306 2.4573-0.059881 0.15352-0.083166 0.28935-0.070347 0.40612 0.00174 0.01583 0.016057 0.0207 0.018543 0.03558-0.15831 0.05117-0.31491 0.09818-0.47459 0.15343 0.24234-1.1321 0.41051-1.9978 0.51224-2.6244 0.033672-0.08159 0.069462-0.16038 0.090037-0.206 0.028032-0.05526 0.061461-0.10423 0.09042-0.15117 0.007602-0.08601-0.045862-0.1492-0.12955-0.21251-0.075307-0.06461-0.16981-0.08702-0.3114-0.05647-0.057767 0.01748-0.11156 0.05098-0.16382 0.1185-0.044807 0.05787-0.092943 0.12637-0.12661 0.20796-0.10546 0.1267-0.25114 0.2808-0.43585 0.46227-0.17633 0.18016-0.39858 0.40364-0.65415 0.63857-0.32554 0.29673-0.61373 0.54015-0.87297 0.74173-0.25177 0.19191-0.47099 0.33237-0.65556 0.43746-0.064318 0.03547-0.13262 0.06028-0.2192 0.04832-0.06981-0.01455-0.12-0.07427-0.12916-0.15766-0.00458-0.0417 0.017603-0.09587 0.035428-0.16652 0.12448-0.34174 0.32384-0.7956 0.6126-1.3496 0.34758-0.63948 0.61118-0.99996 0.77898-1.1025-0.032335-0.13917-0.10428-0.19769-0.22073-0.17107-0.066151 0.0188-0.25959 0.12316-0.54672 0.30362-0.27129 0.16952-0.40949 0.28898-0.43661 0.35259-0.019655 0.05395-0.018629 0.13054 0.001659 0.23765 0.028667 0.10583 0.032793 0.16415 0.01969 0.20012-0.57154 1.3955-0.86621 2.1961-0.8982 2.3708-0.010356 0.061-6.97e-4 0.11106 0.056011 0.16162 0.056707 0.05052 0.12623 0.07409 0.20168 0.06234 0.02515-0.00392 0.061006-0.01793 0.10947-0.04243 0.45768-0.25795 1.0562-0.72749 1.8014-1.395 0.56709-0.50404 1.0459-0.97007 1.4173-1.3927-0.003949 0.11939-0.012409 0.27894-0.033261 0.47729-0.012475 0.19706-0.050411 0.44215-0.086339 0.73617-0.079471 0.67407-0.1511 1.2164-0.24494 1.6042-1.2309 0.43781-2.4237 0.91766-3.5756 1.4534-1.1603 0.53708-2.3114 1.1245-3.4271 1.7564-0.20453 0.11718-0.38953 0.22595-0.58304 0.34212l0.63956-0.10741c1.9989-1.2022 4.3081-2.282 6.9111-3.2415-0.12308 0.58753-0.25721 1.1788-0.40864 1.741-0.43435 0.21809-0.86952 0.44025-1.2942 0.67285l0.67614-0.10937c0.17414-0.09349 0.35026-0.1923 0.52856-0.28436-0.019789 0.07065-0.051505 0.13479-0.071749 0.20502l0.42036-0.05909c0.034162-0.12023 0.055308-0.24815 0.088889-0.37055 1.3937-0.69696 2.903-1.3497 4.5417-1.9624-0.11617 0.56055-0.24917 1.1126-0.39098 1.6486l0.40195-0.07639c0.14579-0.54346 0.29271-1.1023 0.4273-1.6872 0.24194-0.09394 0.50852-0.17764 0.78485-0.26151-0.028249 0.32839-0.20057 0.72084-0.57718 1.1831-0.077429 0.07145-0.11409 0.12038-0.10858 0.17042 9.05e-4 0.00834 0.001636 0.01991 0.018413 0.0173 0.050289-0.00784 0.10395-0.05962 0.1637-0.13679 0.39836-0.40988 0.63917-0.70951 0.72526-0.93499 0.04205-0.0829 0.06472-0.18702 0.05283-0.29545-0.003297-0.02997-0.011866-0.06169-0.018924-0.09043 0.19054-0.0538 0.37856-0.10998 0.58432-0.15932 0.61576-0.13838 1.3017-0.26606 2.0646-0.38492 0.19281-0.03005 0.36091-0.04049 0.51181-0.064 0.16019-0.01648 0.3022-0.03087 0.42049-0.04082 0.41443-0.03063 0.62846 0.10326 0.66143 0.40351 0.04029 0.36698-0.1501 0.81284-0.59432 1.3486-0.053602 0.04946-0.076685 0.09368-0.09055 0.13288l0.12789-0.02514c0.017716-0.01647 0.035503-0.01749 0.054607-0.03951 0.39836-0.40988 0.63905-0.72779 0.72515-0.95328 0.03274-0.08994 0.04551-0.19438 0.03454-0.29448-0.01193-0.10842-0.05062-0.21265-0.11191-0.3049-0.06128-0.09225-0.14563-0.16453-0.23952-0.24322-0.084602-0.07165-0.16872-0.14368-0.27571-0.18641-0.098637-0.04399-0.19909-0.05513-0.29311-0.05745-0.11921 0.00161-0.25965-0.00388-0.42075 0.00426-0.15182 0.01516-0.33868 0.05158-0.54826 0.08423-0.86528 0.13482-1.752 0.32371-2.6851 0.60105-0.006892-0.01179-0.010882-0.02407-0.018538-0.03559-0.061298-0.09223-0.14656-0.17288-0.23953-0.24322-0.084613-0.07164-0.1686-0.12542-0.2756-0.16811-0.068174-0.03042-0.1357-0.05186-0.20168-0.06236 0.095259-0.43686 0.20918-0.91312 0.28381-1.2771 0.13054-0.59718 0.22854-1.0955 0.31872-1.5167 0.06446-0.11184 0.10165-0.23225 0.10743-0.33495-0.007326-0.06672-0.045914-0.1277-0.111-0.17695-0.05671-0.05053-0.11462-0.07536-0.18352-0.08161-0.018601-0.01405-0.039753-0.01959-0.073281-0.01437zm-7.734 0.67032c-0.02492 6e-3 -0.063676 0.02021-0.091184 0.04147-0.15851 0.10952-0.37189 0.28171-0.63676 0.50961-0.2565 0.2266-0.51346 0.47263-0.79982 0.73781-0.28636 0.26519-0.5748 0.53335-0.83601 0.79462-0.26213 0.25292-0.45401 0.44915-0.59955 0.59906-0.054736-0.11023-0.11568-0.25009-0.16752-0.41166-0.044381-0.17123-0.097112-0.33413-0.14987-0.50406-0.045295-0.17958-0.087336-0.35209-0.13171-0.52332-0.045295-0.17956-0.091531-0.33894-0.13133-0.46847-0.016625-0.07375-0.039596-0.12093-0.074043-0.12405-0.035365-0.01146-0.0604 0.01121-0.091184 0.04146-0.031702 0.0219-0.052732 0.05965-0.072387 0.11361-0.34484 0.04541-0.65992 0.08898-0.93217 0.12308-0.26918 0.03346-0.50084 0.07037-0.69456 0.09206-0.017685-0.00571-0.019152-0.02885-0.03683-0.0346-0.009302-0.00702-0.037313-0.00961-0.054991-0.01533-0.26051-0.1206-0.45315-0.16243-0.58636-0.1332-0.18351 0.0371-0.36286 0.1536-0.52805 0.35747-0.05502 0.04253-0.093975 0.07477-0.1275 0.08-0.008384 0.00131-0.16585 0.02365-0.4751 0.08032-0.1919 0.03838-0.28956 0.08073-0.31013 0.12635s-0.038559 0.08663-0.03581 0.11163c0.005492 0.05007 0.047177 0.09279 0.12903 0.13941 0.080941 0.03828 0.15848 0.06702 0.23851 0.09696 0.052127 0.00884 0.064589 0.06241 0.037468 0.126-0.95821 1.5236-1.4081 2.6328-1.3489 3.3276 0.007325 0.06674 0.034485 0.12575 0.074428 0.17891 0.048324 0.05184 0.1106 0.08529 0.16548 0.11915 0.063259 0.03256 0.11449 0.0571 0.18339 0.06334 0.06981 0.01455 0.1434 0.00671 0.20117-0.01079 0.7258-0.22338 1.5321-0.83528 2.4204-1.8305 0.45628-0.50373 0.77475-0.9544 0.97849-1.3509 0.21119-0.40616 0.31314-0.75614 0.3035-1.077-0.001835-0.01669-0.007671-0.04843-0.018797-0.07216-0.011135-0.02372-0.007673-0.04843-0.018798-0.07214-0.019518-0.02241-0.032821-0.04451-0.018798-0.07214 0.058642-0.10176 0.21722-0.16364 0.43763-0.20633 0.022124 0.12119 0.051012 0.27924 0.094626 0.45213 0.045295 0.17958 0.095536 0.35402 0.15013 0.54063s0.11395 0.37132 0.16854 0.55792c0.06206 0.17697 0.12051 0.32836 0.16778 0.44822-0.18288 0.19817-0.37882 0.42582-0.59904 0.67221-0.22113 0.23804-0.4457 0.49481-0.67155 0.76753-0.22585 0.2727-0.45461 0.5426-0.67117 0.82235-0.22402 0.2894-0.43316 0.56318-0.61618 0.83771-0.16625 0.27192-0.30969 0.55095-0.45171 0.81062-0.13372 0.25395-0.22837 0.49391-0.28763 0.72866l0.23761-0.03101c0.008241-0.02513 0.008606-0.04892 0.017778-0.07411 0.091724-0.25183 0.20611-0.49828 0.3425-0.7316 0.13639-0.23335 0.25909-0.43461 0.3618-0.58633 0.20542-0.30348 0.42848-0.58685 0.6525-0.87624 0.22493-0.28107 0.44209-0.54968 0.65301-0.80311 0.2193-0.25473 0.41847-0.48233 0.6172-0.69145 0.19873-0.2091 0.38276-0.38875 0.54507-0.54128 0.067693 0.15062 0.15209 0.31268 0.25973 0.51647 0.10672 0.19543 0.21749 0.40145 0.33352 0.60395 0.12348 0.19283 0.24897 0.37932 0.36971 0.54713 0.12074 0.16781 0.22805 0.28729 0.31357 0.36728 0.10228 0.07737 0.18001 0.10286 0.22009 0.07966 0.048463-0.02452 0.003198-0.08581-0.11113-0.19524-0.10412-0.09405-0.21727-0.24526-0.33237-0.43942-0.11419-0.18579-0.22496-0.39182-0.33352-0.60394-0.10017-0.21342-0.18791-0.41877-0.27878-0.62517-0.090873-0.2064-0.16494-0.3716-0.20474-0.50112 0.16139-0.16087 0.37386-0.36638 0.63599-0.61931 0.26213-0.25292 0.53908-0.50154 0.81798-0.75708 0.27798-0.26386 0.55323-0.51089 0.81811-0.73879 0.26487-0.22789 0.47886-0.40679 0.65505-0.51058 0.063397-0.04383 0.097559-0.08121 0.10884-0.13386 0.010352-0.06099 0.010415-0.10749-0.019308-0.14527-0.02135-0.03909-0.065707-0.06704-0.11036-0.08554-0.022333-0.00924-0.03007-0.02134-0.054991-0.01534zm7.261-0.2792c0.059589-8e-4 0.094897 0.08166 0.11138 0.23178-0.007468 0.00966-0.002369 0.02982 3.77e-4 0.05485 0.00838-0.0013 0.0175 0.00896 0.018421 0.0173 0.007814 0.30418-0.095337 0.55583-0.28751 0.74695-0.15118 0.17626-0.34323 0.3757-0.58113 0.61637-0.23044 0.23102-0.50058 0.49821-0.81773 0.79363-0.49936 0.47014-0.85553 0.79055-1.1092 0.97385-0.17415 0.04395-0.35369 0.08893-0.52958 0.13811-0.078425-0.05316-0.13102-0.144-0.14847-0.30296-0.004578-0.0417-0.016306-0.08368-0.019053-0.10872 0.005636-0.02632 0.013718-0.06765 0.017523-0.11067 0.11927-0.54452 0.46705-1.1025 1.0492-1.7022 0.55321-0.55277 1.1333-0.95284 1.7297-1.19 0.28516-0.12079 0.47016-0.17734 0.56604-0.15834zm-12.393 1.56c0.38181-0.01709 0.54607 0.11543 0.51486 0.37477-0.058904 0.62845-0.4716 1.3692-1.2284 2.2422-0.71672 0.8497-1.3502 1.3666-1.9101 1.5471-0.26276 0.09184-0.39992 0.03987-0.4219-0.1603-0.010073-0.09173-0.005562-0.17661 0.034663-0.27618 0.35985-1.2267 0.94528-2.3289 1.7516-3.2943 0.11659-0.10302 0.18259-0.1445 0.20027-0.13876 0.14448-0.0819 0.31841-0.14686 0.49262-0.19099 0.17329-0.05246 0.36247-0.09716 0.56641-0.10349zm12.455-0.50257c-0.022552 0.10531-0.032522 0.23826-0.052319 0.36858-0.012331 0.12069-0.044128 0.23952-0.070472 0.38785-0.073369 0.44805-0.14072 0.8418-0.21129 1.1818-0.1878 0.00905-0.39912 0.04977-0.65798 0.09011-0.47555 0.0741-0.9539 0.16266-1.4433 0.27849 0.30254-0.25471 0.62683-0.5338 1.0183-0.89583 0.34792-0.32566 0.64111-0.59219 0.87246-0.81486 0.23881-0.23231 0.41682-0.44046 0.54468-0.59613zm10.975-0.22211c-0.05869 0.00915-0.1106 0.03782-0.18237 0.08293-0.06341 0.04381-0.09593 0.10111-0.09042 0.15115 0.00274 0.02503 0.02158 0.03886 0.05512 0.03362 0.04191-0.00652 0.07588-0.0157 0.12802-0.00685 0.0512 5e-4 0.10869 0.0288 0.14681 0.0653 0.04556 0.02682 0.06513 0.07721 0.07429 0.16061 0.04487 0.40868-0.28967 1.0103-1.0119 1.8099-0.42923 0.47325-0.8164 0.81599-1.1634 1.0682l0.45695-0.06103c0.29872-0.24975 0.58449-0.54287 0.85366-0.88702 0.26135-0.33763 0.47019-0.65144 0.6337-0.94838 0.16349-0.29693 0.25626-0.58569 0.30515-0.83933 0.03381-0.15796 0.06238-0.27684 0.05232-0.36858-0.02107-0.19183-0.11544-0.28272-0.25794-0.26052zm-10.942 2.3601c0.35722-0.01299 0.54182 0.13243 0.58814 0.38913-0.23788 0.07268-0.48786 0.15841-0.73011 0.24028 0.053452-0.2383 0.093527-0.40883 0.14197-0.62941zm-0.47523 0.06202c0.020616-0.0032 0.034937 2e-5 0.054869-0.00293-0.060952 0.27025-0.11924 0.51668-0.17804 0.7045-1.554 0.54728-3.0573 1.1809-4.5056 1.8873 0.14201-0.53131 0.29634-1.0616 0.42769-1.6323 0.17796-0.06619 0.36729-0.13278 0.56578-0.1949 0.079893 0.13505 0.23044 0.19199 0.44018 0.15931 0.09221-0.01438 0.17304-0.03211 0.23736-0.06758 0.15683-0.09926 0.36219-0.27947 0.56412-0.43258 0.5689-0.13034 1.1951-0.24983 1.8819-0.35684 0.19281-0.03004 0.35999-0.04881 0.51181-0.06399z" fill="#6193cf" fill-rule="nonzero" opacity=".59836"/><path id="bw" d="m-311.79 19.865v-2.7947 2.7947z" fill="#fff" fill-opacity=".75688" fill-rule="nonzero"/><path id="bx" d="m154.95-108.35v-2.7947 2.7947z" fill="#fff" fill-opacity=".75688" fill-rule="nonzero"/><path id="by" d="m-41.154-321.61v-2.7947 2.7947z" fill="#fff" fill-opacity=".75688" fill-rule="nonzero"/><path id="bz" d="m-62.419-247.61v-1.0532 1.0532z" fill="#fff" fill-opacity=".75688" fill-rule="nonzero"/><path id="ca" d="m24.895 23.79c-0.15898 1.6031-0.046567 3.2133 0.066957 4.816 0.37114 4.4796 0.92966 8.9466 1.4236 13.418 0.53706 5.3674 1.5814 10.684 2.6126 16.001 0.98885 5.2766 2.2627 10.515 3.7302 15.72 0.97628 3.3004 2.0104 6.5817 2.7808 9.9168l-5.0048 2.1081c-0.6351-3.3672-1.6198-6.6755-2.5105-10.004-1.4587-5.2134-2.7203-10.458-3.7736-15.733-1.0649-5.3265-1.9161-10.675-2.582-16.042-0.58769-4.4341-1.2059-8.8654-1.7121-13.306-0.21386-1.5576-0.39285-3.1174-0.50054-4.6822l5.4694-2.2128z" fill="url(#a)" fill-rule="nonzero"/><path id="cb" d="m21.083 91.341c0.10756-0.51392 0.5215-0.96408 0.82353-1.3996 3.666-4.0147 9.1665-5.3341 14.274-6.3031 3.1808-0.40221 6.3826-0.4886 9.5833-0.54331l-2.8142 2.0486c-3.1692 0.003888-6.3417 0.043158-9.4813 0.54865-6.561 1.3925-7.6226 1.8361-7.8648 2.6143-0.23968 0.39137-0.45095 0.91796-0.83541 1.157l-3.6848 1.8775z" fill="url(#a)" fill-rule="nonzero"/><path id="cc" d="m19.907 26.689c1.3562-0.71389 2.7642-1.3399 4.1749-1.9455 6.8047-2.6688 14.015-4.1247 21.159-5.5601 4.3175-0.84314 8.643-1.644 12.968-2.4468l-2.5876 1.9503c-4.2709 0.72211-8.5374 1.4693-12.785 2.3191-7.3389 1.5375-14.742 3.1137-21.673 6.0512-1.5129 0.69647-3.0151 1.4111-4.4777 2.209l3.222-2.5773z" fill="url(#a)" fill-rule="nonzero"/><path id="cd" d="m50.872 16.575c0.86465 1.2337 0.84057 3.1929 1.0666 4.7129 0.49475 4.1476 1.2673 8.2543 2.1168 12.342l-3.242 1.7267c-0.6587-4.1164-1.3126-8.2356-2.1792-12.315-0.22452-1.1902-0.40337-3.2269-1.1079-4.0359l3.3457-2.4308z" fill="url(#a)" fill-rule="nonzero"/><path id="ce" d="m57.267 34.717c-0.28815-0.52809-1.0084-0.65573-1.5531-0.8759-6.0934 0.50928 1.8814-2.7067-1.5069-0.28316-2.507 2.1252-4.6378 4.7872-5.8588 7.8514-0.17867 3.5851 2.0922 5.8349 4.8865 7.6543 3.4065 2.8429 11.205 0.015512 8.6856 0.62946 3.4966-4.2184 3.3246-9.3032 1.5599-14.205-1.2305-2.971-3.4384-3.1626-6.326-3.0568l3.0231-2.2082c3.0584-0.044336 5.3685 0.3014 6.5103 3.4965 1.6017 5.0324 1.9117 10.207-1.4377 14.638-5.3022 3.5047-9.1346 5.91-15.147 2.716-2.9653-1.9373-5.1986-4.3038-5.2224-8.056 1.1764-3.1041 3.3692-5.7869 5.7686-8.0448 2.4002-1.8818 5.2388-4.3812 8.3795-3.3669 0.73419 0.3039 1.5352 0.48381 1.9231 1.234l-3.6848 1.8775z" fill="url(#a)" fill-rule="nonzero"/><path id="cf" d="m56.991 56.003c4.4884-6.2785 3.6873-4.038 4.1825 2.4979 0.22908 2.692 0.10351 1.3792 0.37329 3.9395l-3.439 3.3335c-0.25044-2.5948-0.12854-1.2721-0.36445-3.9685-0.6591-6.7745-1.3539-4.8556 2.9325-9.2192l-3.6848 3.4168z" fill="url(#p)" fill-rule="nonzero"/><path id="cg" d="m58.063 54.456c3.9048-2.6761 3.9151-2.2706 7.5982-0.7879 5.2568 2.1623 10.772 3.5492 16.265 4.9533l-2.8506 1.9563c-5.493-1.6251-11.024-3.1185-16.491-4.8332-3.3573-1.082-6.1374-0.26311-0.7038-2.8698l-3.8178 1.5814z" fill="url(#q)" fill-rule="nonzero"/><rect id="ch" transform="matrix(.98368 -.17993 .17993 .98368 0 0)" x="68.489" y="109.41" width="10.041" height="2.7045" rx=".42543" ry=".42543" fill="#525352" fill-rule="nonzero" opacity=".86"/><rect id="ci" transform="matrix(.98368 -.17993 .17993 .98368 0 0)" x="53.518" y="109.41" width="10.041" height="2.7045" rx=".42543" ry=".42543" fill="#525352" fill-rule="nonzero" opacity=".86"/><rect id="cj" transform="matrix(.98368 -.17993 .17993 .98368 0 0)" x="38.547" y="109.41" width="10.041" height="2.7045" rx=".42543" ry=".42543" fill="#525352" fill-rule="nonzero" opacity=".86"/><rect id="ck" transform="matrix(.98368 -.17993 .17993 .98368 0 0)" x="23.576" y="109.41" width="10.041" height="2.7045" rx=".42543" ry=".42543" fill="#525352" fill-rule="nonzero" opacity=".86"/><rect id="cl" transform="matrix(.98368 -.17993 .17993 .98368 0 0)" x="8.6051" y="109.41" width="10.041" height="2.7045" rx=".42543" ry=".42543" fill="#525352" fill-rule="nonzero" opacity=".86"/><text id="cm" transform="matrix(.98818 -.15331 .15331 .98818 0 0)" x="12.287316" y="107.72732" fill="black" font-family="Bitstream Vera Sans" font-size="14px" stroke-linejoin="miter" stroke-width="1px" style="line-height:125%" xml:space="preserve"><tspan id="cn" x="12.287316" y="107.72732">k</tspan></text><g id="co" transform="matrix(.76588 -.073454 .18044 .7465 27.913 8.4934)"><path id="cp" d="m114.16 0.42886c0.69076-0.68798 4.9357-0.095332 9.2387 4.2567 4.3452 4.3947 5.0353 8.4431 4.17 9.3049-0.56316 0.56091-1.1263 1.1218-1.6895 1.6827-4.4696-4.5205-8.9392-9.041-13.409-13.562 0.56318-0.56091 1.1264-1.1218 1.6896-1.6827" fill="#000" fill-rule="evenodd"/><path id="cq" d="m33.188 81.156-0.3125 0.3125-19.688 29.875 3.4062 3.0938 29.531-19.25 0.25-0.21875-13.188-13.812z" fill="#000" fill-rule="evenodd" stroke-miterlimit="4" stroke-width="0"/><path id="cr" d="m9.2888 118.59 36.496-23.783 0.22518-0.22427-12.466-13.034-0.30524 0.30389-23.95 36.738z" fill="url(#m)" fill-rule="evenodd" stroke-miterlimit="4" stroke-width="0"/><path id="cs" d="m38.478 89.364c1.6539 1.6727 3.438 1.1455 4.0292 1.7434 0.095535 0.096621 0.15628 0.22566 0.19739 0.3626l80.631-80.405-6.4998-6.5738-80.833 80.607c0.30937-0.012067 0.58202 0.018385 0.76901 0.20749 0.54036 0.54654 0.045543 2.3778 1.7071 4.0583z" fill="url(#l)" fill-rule="nonzero"/><path id="ct" d="m123.1 10.825-80.549 80.325c0.51581 0.61637-0.093644 2.0234 0.90471 3.0332 1.0759 1.0882 2.1405 0.15672 2.8399 0.85598l80.6-80.375-3.7954-3.8386z" fill="url(#k)" fill-rule="nonzero"/><path id="cu" d="m46.54 87.174-4.1852 4.1682c0.51297 0.61348-0.29204 2.2113 0.70122 3.2158 1.0704 1.0826 2.3282-0.041856 3.0241 0.6538l4.2359-4.2188-3.7761-3.8191z" fill="#000" fill-rule="nonzero" opacity=".35349"/><path id="cv" d="m38.805 83.281-2.1469 2.1382-0.081235 0.079071c0.44017 0.47515-0.29916 2.1041 1.1059 3.8084l0.08255 0.08346 0.58807 0.59478 0.082539 0.083485c1.703 1.4392 3.3322 0.68031 3.9234 1.2782l2.2742-2.2768-5.8286-5.7888z" fill="#252525" fill-rule="nonzero" opacity=".38605"/><path id="cw" d="m35.051 79.439-2.1681 2.0411c0.020726 0.020865-0.15672 0.19917-0.13592 0.22021 0.42427 0.4291-0.25674 2.0596 0.43711 3.0567l0.07222 0.073026 0.31982 0.32349 0.041287 0.041708c1.0104 0.73876 2.4415-0.068828 2.9598 0.30366l2.2499-2.2408-3.7761-3.8191z" fill="#131313" fill-rule="nonzero" opacity=".35349"/><path id="cx" d="m33.819 84.592c1.0423 1.0299 2.4003 0.15648 2.9515 0.71401l80.549-80.325-3.8358-3.8795-80.6 80.375c0.02106 0.021183 0.041749 0.042222 0.062865 0.063618 0.431 0.43588-0.17792 2.0136 0.87219 3.0514z" fill="#131313" fill-rule="nonzero"/><path id="cy" transform="matrix(.72606 -.72182 -1.7428 -1.7539 68.834 75.197)" d="m82.173 7.4623a47.495 0.97142 0 1 1-94.99 0 47.495 0.97142 0 1 1 94.99 0z" fill="url(#j)" fill-rule="nonzero"/><path id="cz" transform="matrix(.57538 -.57452 -1.263 -1.2746 65.295 75.277)" d="m106.56 7.4623a71.883 0.42305 0 1 1-0.03548-0.01329" fill="url(#i)" fill-rule="nonzero"/><path id="da" d="m106.69 7.884c-2.0225 1.155-3.9802 3.2334-5.0605 5.0401l10.783 10.807 5.0605-5.0401-10.783-10.807zm9.6505 9.6617-5.0605 5.0401 3.7764 3.8194c1.7599-0.96093 3.8152-2.9331 5.0605-5.0401l-3.7764-3.8194z" fill="url(#h)" fill-rule="nonzero"/><path id="db" d="m17.906 104.25-8.9375 13.469-0.90625 1.375c-0.0014269 0.00333 0.0011297 0.0278 0 0.03125h-0.03125c-5.571e-4 0.00366 2.818e-4 0.02749 0 0.03125-1.38e-5 0.00385-2.469e-4 0.02732 0 0.03125 0.0014924 0.00816 0.028817 0.02285 0.03125 0.03125 0.0014403 0.00425-0.0016571 0.02695 0 0.03125 0.0055995 0.013 0.023898 0.04929 0.03125 0.0625 0.028038 0.04418 0.083707 0.11536 0.125 0.15625 0.068904 0.06309 0.17527 0.12713 0.25 0.15625 0.013752 0.0043 0.049301 0.02883 0.0625 0.03125 0.0043237 5.8e-4 0.02701-3.6e-4 0.03125 0 0.0040515-1.2e-4 0.027304 3.7e-4 0.03125 0 0.0037134-8.9e-4 0.027664 0.00116 0.03125 0s-0.0034514-0.02981 0-0.03125c0.0033095-0.00172 0.02809 0.00201 0.03125 0l1.625-1.0312 13.5-8.8125c-2.5128-0.40944-4.524-4.2993-5.875-5.5312z" fill="#000" fill-rule="evenodd"/><rect id="dc" transform="matrix(.70309 .7111 -.70854 .70567 0 0)" x="86.317" y="-80.843" width="8.2227" height="1.1569" fill="url(#u)" fill-rule="nonzero"/><rect id="dd" transform="matrix(.70309 .7111 -.70854 .70567 0 0)" x="86.317" y="-81.486" width="8.2227" height="1.8004" fill="url(#g)" fill-rule="nonzero"/><path id="de" d="m122.04 3.695c2.8 2.4326 4.7131 5.6773 4.811 5.9839 0.09785 0.30662-2.5488-3.3527-4.8779-5.0932-2.3112-1.7272-5.6671-1.962-5.904-2.1697-0.23694-0.2077-1.8122-2.0801-0.29351-1.9261 1.5885 0.161 4.1016 1.3278 6.2645 3.2051z" fill="url(#t)" fill-rule="evenodd"/><rect id="df" transform="matrix(.70309 .7111 -.70854 .70567 0 0)" x="80.864" y="-80.843" width="5.453" height="1.1569" fill="url(#s)" fill-rule="nonzero"/><rect id="dg" transform="matrix(.70309 .7111 -.70854 .70567 0 0)" x="80.864" y="-81.486" width="5.453" height="1.8004" fill="url(#f)" fill-rule="nonzero"/><rect id="dh" transform="matrix(-.70309 -.7111 -.70854 .70567 0 0)" x="-99.936" y="-80.843" width="5.4104" height="1.1569" fill="url(#r)" fill-rule="nonzero"/><rect id="di" transform="matrix(-.70309 -.7111 -.70854 .70567 0 0)" x="-99.936" y="-81.486" width="5.4104" height="1.8004" fill="url(#e)" fill-rule="nonzero"/><path id="dj" d="m54.275 82.331c-0.32892 0.32725-0.52022 0.64561-0.57395 0.95507-0.053724 0.30952 0.035189 0.58146 0.26674 0.81588 0.23057 0.23343 0.50027 0.32453 0.80908 0.27334 0.30882-0.051256 0.62767-0.24045 0.95658-0.56769 0.33079-0.32912 0.52302-0.6484 0.57676-0.9579 0.053717-0.3095-0.034723-0.58094-0.26528-0.81438-0.23156-0.23443-0.50174-0.32602-0.81055-0.2748-0.30882 0.051211-0.6286 0.24137-0.95938 0.57047m-0.4106-0.41573c0.67276-0.66934 1.3008-1.0914 1.8841-1.266 0.58333-0.17467 1.0531-0.081695 1.4092 0.27887 0.35517 0.3596 0.4432 0.83134 0.26409 1.4153-0.17912 0.58393-0.60506 1.2106-1.2778 1.8799-0.67088 0.66747-1.2989 1.0895-1.8841 1.266-0.58333 0.17466-1.0526 0.082204-1.4078-0.27739-0.35614-0.36056-0.44467-0.83283-0.26554-1.4167 0.18098-0.58579 0.60692-1.2124 1.2778-1.8799m6.2117-3.9409 2.5735-0.30931-1.1241 1.1184-1.7289 0.21342-0.21932 1.7249-1.1297 1.1239 0.33057-2.58-2.4718 0.29971 1.1269-1.1212 1.6245-0.1953 0.20595-1.6259 1.1325-1.1267-0.32016 2.4781m0.43789-2.5952 1.1801-1.1741 1.736-0.15558 0.17014-1.7409 1.1829-1.1769-0.32344 2.8743 0.92571 0.9372-1.0792 1.0738-0.9257-0.93724-2.8665 0.29957m10.527-6.3914c-0.20044 0.33726-0.42831 0.66737-0.68362 0.99033-0.25532 0.32297-0.53716 0.63785-0.8455 0.94462-0.69706 0.69353-1.3513 1.1396-1.9628 1.3384-0.61244 0.19774-1.0938 0.11927-1.4441-0.23534-0.35421-0.3586-0.4254-0.8471-0.21362-1.4655 0.21176-0.61841 0.67834-1.2864 1.3997-2.0041 0.27846-0.27704 0.55849-0.5281 0.84012-0.75314 0.28349-0.22692 0.56527-0.42551 0.84536-0.5959l0.45476 0.46044c-0.30326 0.16188-0.58792 0.34071-0.85399 0.53649-0.26419 0.19391-0.51218 0.40618-0.74389 0.63673-0.42982 0.42763-0.69823 0.82173-0.80526 1.1823-0.10614 0.35772-0.041967 0.65528 0.19252 0.89267 0.23252 0.23544 0.52422 0.30564 0.87504 0.21067 0.3508-0.094981 0.7327-0.34791 1.1457-0.75883 0.11211-0.11153 0.21239-0.2182 0.30084-0.32001 0.089321-0.10461 0.16446-0.203 0.22536-0.29512l-0.42678-0.43212-0.65875 0.65542-0.37968-0.38442 1.6819-1.6734 1.0567 1.0698m-1.0864-3.0018 2.9125-2.8977 0.42826 0.43357-1.8333 1.824 0.40914 0.41422 1.7239-1.7152 0.42826 0.43358-1.7239 1.7152 0.50333 0.50959 1.8949-1.8853 0.42827 0.43359-2.9742 2.9591-2.1972-2.2246m3.9244-3.9046 1.2054-1.1993 3.0291 0.011349-1.507-1.5258 1.0231-1.018 2.1973 2.2246-1.2054 1.1993-3.0291-0.011369 1.507 1.5258-1.0231 1.018-2.1973-2.2246m6.7948-6.7604 1.2054-1.1992 3.0291 0.011331-1.507-1.5257 1.0231-1.018 2.1973 2.2246-1.2054 1.1993-3.0291-0.011369 1.507 1.5258-1.0231 1.018-2.1973-2.2246m5.8525-5.9026c0.39805-0.39601 0.76645-0.65326 1.1052-0.77171 0.34064-0.12028 0.60415-0.086066 0.79058 0.10267 0.18641 0.18873 0.21865 0.45208 0.09672 0.79003-0.12193 0.33798-0.38285 0.7059-0.78277 1.1038-0.39992 0.3979-0.7697 0.65749-1.1094 0.77877-0.33778 0.11943-0.59989 0.084778-0.78629-0.10396-0.18643-0.18873-0.21914-0.45258-0.098198-0.79154 0.12282-0.34081 0.3842-0.71015 0.78411-1.1081m0.23881 2.5601 2.307-2.2953 0.29433 0.29799-2.307 2.2953-0.29433-0.298m0.011375-2.3068c-0.15697 0.1562-0.24753 0.30834-0.27169 0.45644-0.022286 0.14626 0.02348 0.27699 0.1373 0.39222 0.11381 0.11523 0.24318 0.1618 0.38811 0.13972 0.14679-0.023936 0.29868-0.114 0.45564-0.2702 0.15512-0.15431 0.2443-0.3041 0.26757-0.44936 0.025128-0.14711-0.019216-0.27828-0.13302-0.39351-0.11381-0.11522-0.24461-0.16136-0.39238-0.13842-0.1459 0.021107-0.2964 0.10881-0.45152 0.26312m7.0811-5.4352c0.32044-0.242 0.60114-0.38734 0.84207-0.43603 0.24182-0.051517 0.43583-0.003276 0.58202 0.14473 0.21781 0.22052 0.22477 0.54643 0.020894 0.97773-0.20486 0.43032-0.6119 0.94854-1.2211 1.5547-0.21491 0.21382-0.44007 0.41915-0.6755 0.61594-0.23256 0.19594-0.47258 0.38059-0.72004 0.55394l-0.43711-0.44255c0.25482-0.14715 0.495-0.30538 0.72055-0.47465 0.22645-0.17213 0.43592-0.35394 0.6284-0.54544 0.28592-0.28447 0.47857-0.52834 0.57794-0.73159 0.10122-0.20512 0.10328-0.35684 0.006148-0.45518-0.10007-0.10131-0.25411-0.099717-0.4621 0.004812-0.20711 0.10168-0.46296 0.30405-0.76757 0.60712l-0.43168 0.4295-0.36498-0.36952 0.45411-0.45181c0.27097-0.2696 0.45072-0.49274 0.53925-0.66947 0.087553-0.1777 0.085702-0.31274-0.005531-0.40511-0.084394-0.085438-0.2141-0.087343-0.38917-0.005741-0.17505 0.081613-0.38031 0.23955-0.61579 0.47381-0.17378 0.17293-0.33914 0.35814-0.49608 0.55561-0.15693 0.19751-0.30311 0.404-0.43855 0.6195l-0.41501-0.42017c0.18164-0.24375 0.36926-0.47768 0.56286-0.70183 0.1936-0.22413 0.39133-0.43659 0.59315-0.63741 0.54382-0.54104 0.99735-0.89778 1.3607-1.0702 0.36418-0.17523 0.64046-0.16748 0.82884 0.023226 0.12853 0.13014 0.16954 0.30108 0.12301 0.51281-0.047525 0.21072-0.18074 0.45849-0.39966 0.74326" fill="#999"/></g><path id="dk" d="m60.473 54.141c-4.0884-1.3084-3.9128-0.94393-5.958 1.3961-2.8984 3.381-6.3378 6.1418-9.753 8.9116l2.9858 0.95759c3.3153-2.9671 6.7185-5.8273 9.9739-8.867 1.9862-1.8926 4.406-1.9301-0.77821-2.7544l3.5295 0.35598z" fill="url(#o)" fill-rule="nonzero"/><text id="dl" transform="matrix(.98818 -.15331 .15331 .98818 0 0)" x="71.676811" y="106.87846" fill="black" font-family="Bitstream Vera Sans" font-size="14px" stroke-linejoin="miter" stroke-width="1px" style="line-height:125%" xml:space="preserve"><tspan id="dm" x="71.676811" y="106.87846">e</tspan></text></g></svg>
