<?xml version="1.0" encoding="UTF-8"?>
<svg id="b" sodipodi:docbase="/home/urs/projects/kid3/icons" sodipodi:docname="kid3.svg" sodipodi:version="0.32" version="1.0" viewBox="0 0 60 60" xmlns="http://www.w3.org/2000/svg" xmlns:sodipodi="http://inkscape.sourceforge.net/DTD/sodipodi-0.dtd" xmlns:xlink="http://www.w3.org/1999/xlink"><sodipodi:namedview id="c" bordercolor="#666666" borderopacity="1.0" pagecolor="#ffffff" showguides="true" snaptoguides="true"/><defs id="d"><linearGradient id="a" x1="111.33" x2="107.32" y1="124.28" y2="93.732" gradientTransform="matrix(-.32607 0 0 .37537 2.6543 -21.788)" gradientUnits="userSpaceOnUse"><stop id="e" stop-opacity=".69919" offset="0"/><stop id="f" stop-opacity="0" offset="1"/></linearGradient></defs><path id="g" d="m15.818 16.291c16.421 6.158 23.606-2.6685 30.79-0.82107 7.1844 1.8474-5.337 10.469-2.2579 14.163 3.079 3.6948 2.8737 3.9001 2.8737 3.9001" fill="none" stroke="#9da161" stroke-dasharray="2.01652628, 2.01652628" stroke-linecap="round" stroke-linejoin="round" stroke-width="2.0165" sodipodi:stroke-cmyk="(0.0000000 0.0000000 0.0000000 0.80000001)"/><g id="h" transform="matrix(.80661 0 0 .80661 40.537 19.361)"><path id="i" d="m-22.067-18.299c7.5131 0.48785 15.245 8.9107 18.264 20.586 3.4503 13.343-0.5654 25.908-8.9627 28.049-2.2138 0.56458-4.5052 0.32773-6.753-0.54114l-21.432-10.462c-1.9849-1.7444-4.5428-2.3072-5.7384-6.2795-1.1956-3.9723-0.45587-6.0817 1.1387-8.9514l15.456-19.29c1.3846-1.3638 3.0008-2.3503 4.8365-2.8185 1.0497-0.26769 2.1172-0.36281 3.1905-0.29312z" fill="#4b6983" fill-rule="evenodd" stroke="#000" stroke-linejoin="round" stroke-miterlimit="4" stroke-opacity=".47727" stroke-width="1.3296" sodipodi:nodetypes="cccccccccc"/><path id="j" d="m-29.825-14.882 9.814 43.965-20.832-9.9772c-2.4056-1.6917-4.4017-2.2425-5.5611-6.0947-1.1594-3.8522-0.44952-5.9011 1.0968-8.684l15.482-19.209z" fill="#0887a5" fill-rule="evenodd" stroke="#000" stroke-linejoin="round" stroke-miterlimit="4" stroke-width=".89492" sodipodi:nodetypes="ccczcc"/><path id="k" transform="matrix(-.33307 .084944 .085533 .33078 8.0694 -28.215)" d="m145.28 78.504a44.291 70.866 0 1 1-88.583 0 44.291 70.866 0 1 1 88.583 0z" fill="#9db8d2" fill-rule="evenodd" stroke="#000" stroke-miterlimit="4" stroke-width="2.6114" sodipodi:cx="100.98425" sodipodi:cy="78.503937" sodipodi:rx="44.29134" sodipodi:ry="70.866142" sodipodi:type="arc"/><path id="l" transform="matrix(-.40106 .10228 .094179 .36421 14.879 -35.587)" d="m131.1 85.591a28.346 56.693 0 1 1-56.693 0 28.346 56.693 0 1 1 56.693 0z" fill="#7590ae" fill-rule="evenodd" stroke="#000" stroke-miterlimit="4" stroke-opacity=".45909" stroke-width="3.4019" sodipodi:cx="102.75591" sodipodi:cy="85.590553" sodipodi:rx="28.346457" sodipodi:ry="56.692913" sodipodi:type="arc"/><path id="m" transform="matrix(-.40106 .10228 .094179 .36421 14.879 -35.587)" d="m131.1 85.591a28.346 56.693 0 1 1-56.693 0 28.346 56.693 0 1 1 56.693 0z" fill="#7590ae" fill-rule="evenodd" stroke="#000" stroke-width="2.2747" sodipodi:cx="102.75591" sodipodi:cy="85.590553" sodipodi:rx="28.346457" sodipodi:ry="56.692913" sodipodi:type="arc"/><path id="n" d="m-18.846-13.833s-1.6333 6.8231-1.9782 15.197c-0.3449 8.3734 1.8051 10.618 2.6099 12.181 0.80478 1.563 2.7593 6.6745 7.9328 11.475-4.1389 3.4397-15.095 1.9706-19.682-19.782-1.7245-13.844 3.8746-22.064 11.118-19.071z" fill="#fff" fill-opacity=".46559" fill-rule="evenodd" sodipodi:nodetypes="cccccc"/><path id="o" transform="matrix(-.33307 .084944 .09801 .37903 -17.675 -15.101)" d="m46.063 51.929a12.402 19.488 0 1 1-24.803 0 12.402 19.488 0 1 1 24.803 0z" fill="#314e6c" fill-rule="evenodd" stroke="#000" stroke-miterlimit="4" stroke-opacity=".5" stroke-width="4.453" sodipodi:cx="33.661419" sodipodi:cy="51.929134" sodipodi:rx="12.401575" sodipodi:ry="19.48819" sodipodi:type="arc"/><path id="p" transform="matrix(-.33307 .084944 .09801 .37903 -17.675 -15.101)" d="m46.063 51.929a12.402 19.488 0 1 1-24.803 0 12.402 19.488 0 1 1 24.803 0z" fill="#314e6c" fill-rule="evenodd" stroke="#000" stroke-width="1pt" sodipodi:cx="33.661419" sodipodi:cy="51.929134" sodipodi:rx="12.401575" sodipodi:ry="19.48819" sodipodi:type="arc"/><path id="q" transform="matrix(-.33307 .084944 .085533 .33078 8.0694 -28.215)" d="m145.28 78.504a44.291 70.866 0 1 1-88.583 0 44.291 70.866 0 1 1 88.583 0z" fill="none" stroke="#000" stroke-miterlimit="4" stroke-opacity=".46136" stroke-width="3.9171" sodipodi:cx="100.98425" sodipodi:cy="78.503937" sodipodi:rx="44.29134" sodipodi:ry="70.866142" sodipodi:type="arc"/><path id="r" d="m-18.424-14.702c7.473-1.0347 22.682 26.267 9.1157 40.868 10.45-12.538 1.171-37.807-9.1157-40.868z" fill="#fff" fill-rule="evenodd" sodipodi:nodetypes="ccc"/><path id="s" d="m-21.889 14.259c4.8287-4.3688-0.11497-13.796-3.1042-13.566 5.2886 5.9784 0.45988 11.727 3.1042 13.566z" fill="#fff" fill-rule="evenodd" sodipodi:nodetypes="ccc"/><path id="t" d="m-31.725 16.673 6.2083 8.9676c1.0526 1.5205-17.245-5.7484-20.234-11.727-1.6096-5.9784 10.117-10.347 10.117-10.347l3.9089 13.106z" fill="url(#a)" fill-rule="evenodd" sodipodi:nodetypes="csccc"/><path id="u" d="m-20.105 27.957c-7.473 1.0782-23.109-27.075-9.5424-42.289-9.3125 13.657-0.45988 37.617 9.5424 42.289z" fill="#000" fill-opacity=".2996" fill-rule="evenodd" sodipodi:nodetypes="ccc"/><path id="v" d="m-19.475 27.34c-7.473 1.0347-22.682-26.267-9.1157-40.868-10.45 12.538-1.171 37.807 9.1157 40.868z" fill="#000" fill-opacity=".33198" fill-rule="evenodd" sodipodi:nodetypes="ccc"/></g><path id="w" d="m50.049 26.805-34.962 9.5281c-0.83983 0.22912-1.2975 1.0946-1.0083 1.9157l5.9235 16.762c0.28923 0.82108 1.1767 1.2878 2.0165 1.0587l34.987-9.5281c0.83984-0.22912 1.2723-1.0946 0.98306-1.9157l-5.8983-16.762c-0.28923-0.82107-1.2019-1.2878-2.0417-1.0587zm-2.4198 3.8566c1.9262 0 3.5037 1.5523 3.5037 3.4785-1e-6 1.9262-1.5775 3.5037-3.5037 3.5037-1.9262 0-3.4785-1.5775-3.4785-3.5037 1e-6 -1.9262 1.5523-3.4785 3.4785-3.4785z" fill="#eede85" fill-rule="evenodd" stroke="#333" stroke-linejoin="round" stroke-width="1.5124" sodipodi:stroke-cmyk="(0.0000000 0.0000000 0.0000000 0.80000001)"/><path id="x" d="m47.481 33.585c7.8002-9.6476-1.0777-10.315-1.0777-10.315" fill="none" stroke="#9da161" stroke-dasharray="2.01652628, 2.01652628" stroke-linecap="round" stroke-linejoin="round" stroke-width="2.0165" sodipodi:nodetypes="cc" sodipodi:stroke-cmyk="(0.0000000 0.0000000 0.0000000 0.80000001)"/><path id="y" transform="matrix(.25687 -.1622 .087522 .30403 16.088 39.776)" d="m34.355 43.331a10.434 7.2527 0 1 1-20.868 0 10.434 7.2527 0 1 1 20.868 0z" fill="#333" fill-rule="evenodd" stroke="#333" stroke-width="5" sodipodi:cx="23.921297" sodipodi:cy="43.331436" sodipodi:rx="10.433757" sodipodi:ry="7.2527337" sodipodi:stroke-cmyk="(0.0000000 0.0000000 0.0000000 0.80000001)" sodipodi:type="arc"/><path id="z" d="m28.739 47.449-3.4475-10.097" fill="none" stroke="#333" stroke-linecap="round" stroke-linejoin="round" stroke-width="1.519" sodipodi:nodetypes="cc" sodipodi:stroke-cmyk="(0.0000000 0.0000000 0.0000000 0.80000001)"/><path id="aa" d="m25.091 37.004c-0.22492 0.53755 0.32333 1.4254 0.46151 2.0694 4.9571-2.2301 8.0496 5.3914 7.3713 3.1657-4.3806-7.5657-7.6079-5.7726-7.8328-5.2351z" fill="#333" fill-rule="evenodd" stroke="#333" stroke-linejoin="round" stroke-width=".29454pt" sodipodi:nodetypes="cccc" sodipodi:stroke-cmyk="(0.0000000 0.0000000 0.0000000 0.80000001)"/><path id="ab" d="m35.729 47.081 14.163-4.1054" fill="none" stroke="#cea185" stroke-linecap="round" stroke-linejoin="round" stroke-width="4.0331" sodipodi:nodetypes="cc" sodipodi:stroke-cmyk="(0.0000000 0.0000000 0.0000000 0.80000001)"/></svg>
