<?xml version="1.0" encoding="UTF-8"?>
<!DOCTYPE svg  PUBLIC '-//W3C//DTD SVG 1.0//EN'  'http://www.w3.org/TR/2001/PR-SVG-20010719/DTD/svg10.dtd' [
	<!ENTITY ns_flows "http://ns.adobe.com/Flows/1.0/">
	<!ENTITY ns_svg "http://www.w3.org/2000/svg">
	<!ENTITY ns_xlink "http://www.w3.org/1999/xlink">
	<!ENTITY st0 "fill:url(#XMLID_10_);stroke:none;">
	<!ENTITY st1 "opacity:0.2;stroke:none;">
	<!ENTITY st2 "stroke:#000000;">
	<!ENTITY st3 "fill:url(#XMLID_11_);stroke:none;">
	<!ENTITY st4 "opacity:0.5;fill:#FFFFFF;stroke:none;">
	<!ENTITY st5 "fill:url(#XMLID_1_);stroke:none;">
	<!ENTITY st6 "fill:url(#XMLID_2_);stroke:none;">
	<!ENTITY st7 "fill:#FFFFFF;stroke:none;">
	<!ENTITY st8 "opacity:0.5;">
	<!ENTITY st9 "fill:url(#XMLID_3_);stroke:none;">
	<!ENTITY st10 "opacity:0.6;fill:url(#XMLID_4_);stroke:none;">
	<!ENTITY st11 "fill:#FFFF66;stroke:none;">
	<!ENTITY st12 "fill:url(#XMLID_5_);stroke:none;">
	<!ENTITY st13 "fill:url(#XMLID_6_);stroke:none;">
	<!ENTITY st14 "opacity:0.8;fill:url(#XMLID_12_);stroke:none;">
	<!ENTITY st15 "fill:none;stroke:none;">
	<!ENTITY st16 "fill:url(#XMLID_7_);stroke:none;">
	<!ENTITY st17 "fill:url(#XMLID_8_);stroke:none;">
	<!ENTITY st18 "fill:url(#XMLID_9_);stroke:none;">
]>
<svg enable-background="new 0 0 128 128" viewBox="0 0 128 128" xml:space="preserve" xmlns="http://www.w3.org/2000/svg">
	
	<g id="m" stroke="#000">
		<linearGradient id="i" x1="17.85" x2="111.73" y1="64.952" y2="64.952" gradientUnits="userSpaceOnUse">
			<stop stop-color="#474747" offset="0"/>
			<stop stop-color="#616161" offset="1"/>
			
			
			
		</linearGradient>
		<path d="m111.73 3.967h-96.88v121.97h99.88v-121.97h-3z" fill="url(#i)" stroke="none"/>
		<linearGradient id="h" x1="17.85" x2="111.73" y1="64.952" y2="64.952" gradientUnits="userSpaceOnUse">
			<stop stop-color="#828282" offset="0"/>
			<stop stop-color="#616161" offset="1"/>
			
			
			
		</linearGradient>
		<path d="M111.73,122.938H17.85V6.967h93.88V122.938z" fill="url(#h)" stroke="none"/>
		<path d="m19.85 8.967v111.97h89.88v-111.97h-89.88z" fill="#fff" stroke="none"/>
		<linearGradient id="g" x1="64.79" x2="64.79" y1="37.305" y2="138.79" gradientUnits="userSpaceOnUse">
			<stop stop-color="#fff" offset="0"/>
			<stop stop-color="#CECEDB" offset="1"/>
			
			
			
		</linearGradient>
		<path d="m22.85 42.467v75.47h83.88v-75.47h-83.88z" fill="url(#g)" stroke="none"/>
		<linearGradient id="f" x1="76.172" x2="76.172" y1="76.33" y2="113.33" gradientUnits="userSpaceOnUse">
			<stop stop-color="#f00" offset="0"/>
			<stop stop-color="#7C0000" offset="1"/>
			
			
			
		</linearGradient>
		<path d="m57.672 76.33v36.998h36.998v-36.998h-36.998zm33.709 33.711h-30.419v-30.422h30.419v30.422z" fill="url(#f)" opacity=".6" stroke="none"/>
		<linearGradient id="e" x1="66.382" x2="66.382" y1="34.545" y2="97.044" gradientUnits="userSpaceOnUse">
			<stop stop-color="#57ADFF" offset="0"/>
			<stop stop-color="#428AFF" offset="1"/>
			
			
			
		</linearGradient>
		<path d="m66.381 34.545c-17.258 0-31.248 13.99-31.248 31.248 0 17.26 13.99 31.25 31.248 31.25 17.26 0 31.25-13.99 31.25-31.25 0-17.257-13.99-31.248-31.25-31.248zm0 59.293c-15.462 0-28.043-12.58-28.043-28.045 0-15.462 12.581-28.042 28.043-28.042 15.463 0 28.045 12.58 28.045 28.042 0 15.465-12.582 28.045-28.045 28.045z" fill="url(#e)" stroke="none"/>
		<path d="m38.744 5.645c-1.107-2e-3 -2.092 0.701-2.45 1.752-0.355 1.057-2e-3 2.216 0.877 2.888l85.194 65.2c0.785 0.602 1.826 0.703 2.717 0.264 0.887-0.434 1.441-1.322 1.441-2.318v-65.201c0-0.692-0.27-1.342-0.758-1.831-0.49-0.487-1.139-0.756-1.83-0.755h-85.191zm71.08 16.7c0 1.77-2e-3 19.085-2e-3 22.511 0 0-24.904-19.06-29.414-22.511h29.416z" opacity=".2" stroke="none"/>
		<path d="m37.598 3.354c-1.107-2e-3 -2.092 0.701-2.45 1.752-0.354 1.058-2e-3 2.216 0.877 2.888l85.194 65.2c0.785 0.602 1.828 0.703 2.719 0.264 0.887-0.434 1.441-1.322 1.441-2.318v-65.2c0-0.692-0.27-1.342-0.76-1.831-0.488-0.487-1.139-0.756-1.83-0.755h2e-3 -85.193zm71.08 16.699v22.511s-24.906-19.06-29.414-22.511h29.414z" opacity=".2" stroke="none"/>
		<path d="m36.453 2.208c-1.107-2e-3 -2.092 0.702-2.45 1.752-0.356 1.058-3e-3 2.215 0.876 2.888l85.193 65.199c0.787 0.602 1.828 0.703 2.719 0.264 0.887-0.434 1.441-1.322 1.441-2.316v-65.202c0-0.692-0.27-1.343-0.758-1.831-0.49-0.488-1.141-0.756-1.83-0.755h-85.191zm71.08 16.699c0 1.77-2e-3 19.085-2e-3 22.512 0 0-24.904-19.06-29.414-22.512h29.416z" opacity=".2" stroke="none"/>
		<linearGradient id="d" x1="79.106" x2="79.106" y1="-41.8" y2="110.12" gradientUnits="userSpaceOnUse">
			<stop stop-color="#A20000" offset="0"/>
			<stop stop-color="#FF6D00" offset="1"/>
			
			
			
		</linearGradient>
		<path d="m36.453 1.062c-1.107-2e-3 -2.092 0.701-2.45 1.752-0.356 1.058-3e-3 2.216 0.876 2.888l85.193 65.198c0.787 0.604 1.828 0.703 2.719 0.266 0.887-0.436 1.441-1.322 1.441-2.318v-65.2c0-0.692-0.27-1.342-0.758-1.831-0.49-0.487-1.141-0.756-1.83-0.755h-85.191zm71.08 16.7c0 1.77-2e-3 19.085-2e-3 22.511 0 0-24.904-19.06-29.414-22.511h29.416z" fill="url(#d)" stroke="none"/>
		
			<linearGradient id="c" x1="-185.01" x2="-99.822" y1="88.723" y2="88.723" gradientTransform="matrix(-1 0 0 -1 -63.369 124.97)" gradientUnits="userSpaceOnUse">
			<stop stop-color="#FFC957" offset="0"/>
			<stop stop-color="#FFE6B0" offset="1"/>
			
			
			
		</linearGradient>
		<path d="m121.64 68.848v-65.2h-85.192l85.192 65.2m-11.526-23.339c-13.496-10.325-22.469-17.194-39.639-30.333 19.02 0 30.361-2e-3 39.639 0 2e-3 8.829 0 16.391 0 30.333z" fill="url(#c)" stroke="none"/>
		<g opacity=".5">
			<path d="m121.64 68.848v-65.2h-85.192l85.192 65.2m-1.44-2.916c-4.207-3.219-73.444-56.209-79.498-60.845 7.541 1e-3 76.854 1e-3 79.498 1e-3v60.844m-8.646-17.504v-34.695h-45.332l45.332 34.695m-1.44-2.919c-13.496-10.325-22.469-17.194-39.639-30.333 19.02 0 30.361-2e-3 39.639 0 2e-3 8.829 0 16.391 0 30.333z" fill="#fff" stroke="none"/>
		</g>
		<path d="M36.453,4.647l85.192,65.2v-2.883L40.217,4.647H36.453z" fill="#ff6" stroke="none"/>
		<path d="m121.64 69.848v-2.883l-1.439-1.102v1.068c-4.207-3.219-73.444-56.209-79.498-60.845 0.34 0 0.811 1e-3 1.395 1e-3l-1.885-1.44h-3.764l85.191 65.201z" fill="#fff" opacity=".5" stroke="none"/>
		<g stroke="none">
			<path d="m65.725 34.202c-16.606 5.338-19.614 6.305-20.255 6.831 0.035-0.055 0.082-0.133 0.082-0.133l-40.201 36.108c-2.138 1.928 0.164 6.438 3.207 9.816 3.007 3.348 7.25 6.123 9.453 4.307l40.241-36.288 0.044-0.246 8.09-17.361 1.088-3.533-1.749 0.499z" opacity=".2"/>
			<path d="m64.59 33.451c-16.606 5.337-19.614 6.304-20.256 6.831 0.035-0.055 0.083-0.133 0.083-0.133l-40.201 36.105c-2.138 1.93 0.164 6.441 3.207 9.818 3.008 3.348 7.25 6.123 9.453 4.307l40.24-36.288 0.044-0.245 8.089-17.361 1.089-3.533-1.748 0.499z" opacity=".2"/>
			<path d="m63.455 32.699c-16.606 5.338-19.614 6.304-20.256 6.832 0.034-0.055 0.083-0.134 0.083-0.134l-40.201 36.107c-2.138 1.928 0.165 6.439 3.207 9.816 3.007 3.348 7.25 6.123 9.453 4.307l40.24-36.287 0.044-0.246 8.089-17.361 1.088-3.533-1.747 0.499z" opacity=".2"/>
			<path d="m62.678 32.857c-16.606 5.338-19.613 6.304-20.254 6.832 0.033-0.055 0.083-0.134 0.083-0.134l-40.203 36.105c-2.138 1.93 0.165 6.441 3.208 9.818 3.007 3.348 7.25 6.123 9.454 4.307l40.24-36.288 0.044-0.246 8.089-17.361 1.087-3.533-1.748 0.5z" fill="#fff"/>
			
				<linearGradient id="b" x1="9.0522" x2="64.882" y1="73.323" y2="41.238" gradientTransform="matrix(.98 -.1991 .1991 .98 -9.8206 7.9037)" gradientUnits="userSpaceOnUse">
				<stop stop-color="#CF0000" offset="0"/>
				<stop stop-color="#7C0000" offset="1"/>
				
				
				
			</linearGradient>
			<path d="m62.678 32.857c-16.606 5.338-19.613 6.304-20.254 6.832 0.033-0.055 0.083-0.134 0.083-0.134l-40.203 36.105c-2.138 1.93 0.165 6.441 3.208 9.818 3.007 3.348 7.25 6.123 9.454 4.307l40.24-36.288 0.044-0.246 8.089-17.361 1.087-3.533-1.748 0.5z" fill="url(#b)"/>
			
				<linearGradient id="a" x1="306.67" x2="316.3" y1="-174.39" y2="-164.77" gradientTransform="matrix(.0435 .999 .999 -.0435 195.53 -254.02)" gradientUnits="userSpaceOnUse">
				<stop stop-color="#F8F1DC" offset="0"/>
				<stop stop-color="#D6A84A" offset="1"/>
				
				
				
			</linearGradient>
			<path d="m43.559 41.803 17.526-6.308-8.229 16.718-0.069-0.076c-0.037 0.115-0.083 0.227-0.146 0.322l0.055 0.056-38.415 34.616-0.047-0.057c-1.145 1.033-4.18-0.475-6.781-3.359-2.598-2.887-3.778-6.059-2.635-7.09l38.412-34.609 0.329-0.213z" fill="url(#a)"/>
			
				<linearGradient id="l" x1="324.88" x2="330" y1="-197.21" y2="-203.31" gradientTransform="matrix(.0435 .999 .999 -.0435 195.53 -254.02)" gradientUnits="userSpaceOnUse">
				<stop stop-color="#FFC957" offset="0"/>
				<stop stop-color="#FFAE00" offset="1"/>
				
				
				
			</linearGradient>
			<path d="m7.452 83.715c-2.598-2.887-3.778-6.059-2.635-7.09l8.655-7.797 12.177-0.529 0.36 8.262-11.728 10.57-0.047-0.057c-1.145 1.033-4.18-0.474-6.782-3.359z" fill="url(#l)"/>
			
				<linearGradient id="k" x1="295.02" x2="316.45" y1="-215.62" y2="-168.04" gradientTransform="matrix(.0435 .999 .999 -.0435 195.53 -254.02)" gradientUnits="userSpaceOnUse">
				<stop stop-color="#FF9200" offset="0"/>
				<stop stop-color="#FFAE00" offset=".7753"/>
				<stop stop-color="#FF6D00" offset="1"/>
				
				
				
				
				
			</linearGradient>
			<path d="m13.977 87.258c0.815-0.797 0.357-2.756-1.008-4.893-0.452-0.709-1.008-1.439-1.649-2.15-0.609-0.678-1.241-1.268-1.867-1.779-2.017-1.645-3.973-2.34-4.866-1.598l-0.011-0.012 38.667-34.85c1.04-0.293 2.987 0.27 4.761 1.725 0.605 0.499 1.221 1.076 1.808 1.733 0.66 0.729 1.23 1.479 1.69 2.209 1.381 2.18 1.93 4.276 1.058 5.063-0.202 0.181-1.074 0.965-1.106 0.985l-37.377 33.676-0.1-0.109z" fill="url(#k)"/>
			
				<linearGradient id="j" x1="63.631" x2="55.843" y1="44.088" y2="44.088" gradientTransform="matrix(.98 -.1991 .1991 .98 -9.8206 7.9037)" gradientUnits="userSpaceOnUse">
				<stop stop-color="#7C0000" offset="0"/>
				<stop stop-color="#633" offset="1"/>
				
				
				
			</linearGradient>
			<path d="m53.348 38.334 7.411-2.637-3.115 6.34s-0.055-0.936-1.395-2.288c-1.766-1.791-2.901-1.415-2.901-1.415z" fill="url(#j)" opacity=".8"/>
			<path d="m47.829 43.571-38.209 35.005c-0.055-0.045-0.111-0.098-0.167-0.141-0.806-0.656-1.604-1.158-2.325-1.482l38.017-34.828c0.839 0.254 1.778 0.735 2.684 1.446z" fill="#fff" opacity=".5"/>
			<path d="m9.453 78.436c-0.356-0.291-0.712-0.547-1.058-0.779l38.141-34.941c0.489 0.265 0.986 0.589 1.468 0.986 0.412 0.341 0.83 0.721 1.24 1.132l-38.244 35.037c-0.51-0.535-1.03-1.016-1.547-1.435z" fill="#fff" opacity=".5"/>
		</g>
		<path d="M128,128H0V0h128V128z" fill="none" stroke="none"/>
	</g>
</svg>
