<?xml version="1.0" encoding="UTF-8"?>
<svg viewBox="0 0 48 48" xmlns="http://www.w3.org/2000/svg" xmlns:xlink="http://www.w3.org/1999/xlink"><linearGradient id="a" x1="-3.01" x2="-29.01" y1="42.995" y2="7.995" gradientTransform="matrix(1.0333 0 0 1 40.021 1.01)" gradientUnits="userSpaceOnUse"><stop stop-color="#317ac2" offset="0"/><stop stop-color="#36a5e6" offset="1"/></linearGradient><linearGradient id="b" x1="9" x2="9" y1="5" y2="43" gradientUnits="userSpaceOnUse"><stop stop-color="#505791" offset="0"/><stop stop-color="#2b3057" offset="1"/></linearGradient><linearGradient id="c" x1="24" x2="24" y1="45" y2="3" gradientUnits="userSpaceOnUse" xlink:href="#a"/><linearGradient id="d" x1="-15.504" x2="-15.504" y1="43.99" y2="1.99" gradientTransform="matrix(1.0333 0 0 1 40.021 1.01)" gradientUnits="userSpaceOnUse" xlink:href="#a"/><linearGradient id="e" x1="38" x2="92" y1="3" y2="57" gradientUnits="userSpaceOnUse"><stop stop-color="#232629" offset="0"/><stop stop-color="#292c2f" stop-opacity="0" offset="1"/></linearGradient><linearGradient x1="12" x2="36" y1="24" y2="24" gradientUnits="userSpaceOnUse"><stop offset="0"/><stop stop-opacity="0" offset="1"/></linearGradient><path d="m39.999 3 0.001033 42h-30.999l-0.0010333-42z" fill="url(#d)" stroke-width=".20331"/><path d="m38.999 4 9.66e-4 40h-28.999l-9.67e-4 -40z" fill="#fff" stroke-width=".1919"/><path d="m37.999 3 9.66e-4 42h-28.999l-9.666e-4 -42z" fill="url(#c)" stroke-width=".19664"/><text x="-27.930717" y="19.715731"><tspan x="-27.930717" y="56.110737"/></text><text x="-49.243217" y="15.715731"><tspan x="-49.243217" y="52.110737"/></text><path d="m12 15v18h3.3945v-7.9707l7.5332 7.9707h4.1914v-0.20508l-8.6641-9.0781 7.9961-8.6133v-0.10352h-4.2168l-6.8398 7.6113v-7.6113zm19.586 0.011719c-2.3884 0.14194-3.5879 1.6304-3.5879 3.8477 0 2.4572 1.6592 4.0234 3.9629 4.0234 2.4265 0 4.0391-1.5513 4.0391-4.1621 0-1.1518-0.3992-2.4573-1.2285-3.2559l-1.1836 1.1973c0.44538 0.43002 0.70703 1.3362 0.70703 2.0273 0 1.3208-0.6745 2.135-1.6113 2.2578v-5.9121c-0.3897-0.036474-0.75646-0.043714-1.0977-0.023437zm-0.45508 1.8203v4.084c-0.9829-0.27644-1.4727-1.1055-1.4727-2.1191 0-1.075 0.48976-1.842 1.4727-1.9648zm-6.0664 7.3633v1.8594h10.736v-1.8594zm1.0293 3.3848c-1.459 0-1.459 2.2129 0 2.2129s1.459-2.2129 0-2.2129zm2.1055 0.16992v1.873h7.6016v-1.873z" fill="#eff0f1"/><path d="m7 5v38h3v-2h-1v-1h1v-2h-1v-1h1v-2h-1v-1h1v-2h-1v-1h1v-2h-1v-1h1v-2h-1v-1h1v-2h-1v-1h1v-2h-1v-1h1v-2h-1v-1h1v-2h-1v-1h1v-2h-1v-1h1v-2h-1v-1h1v-2z" fill="url(#b)"/><path d="m38 3 2 2v40h-2z" fill="url(#e)" opacity=".4"/></svg>
