<?xml version="1.0" encoding="UTF-8"?>
<svg id="al" version="1.0" viewBox="0 0 265.75 265.75" xmlns="http://www.w3.org/2000/svg" xmlns:xlink="http://www.w3.org/1999/xlink"><defs id="am"><linearGradient id="f"><stop id="an" stop-color="#d7d8d6" offset="0"/><stop id="ao" stop-color="#525450" offset="1"/></linearGradient><linearGradient id="d"><stop id="ap" stop-color="#f00" offset="0"/><stop id="aq" stop-color="#f00" stop-opacity="0" offset="1"/></linearGradient><linearGradient id="b"><stop id="ar" stop-color="#bf0303" offset="0"/><stop id="as" stop-color="#bf0303" stop-opacity="0" offset="1"/></linearGradient><linearGradient id="c"><stop id="at" stop-color="#fa0" offset="0"/><stop id="au" stop-color="#fa0" stop-opacity="0" offset="1"/></linearGradient><linearGradient id="g"><stop id="av" stop-color="#4d2600" offset="0"/><stop id="aw" stop-color="#ff9" offset="1"/></linearGradient><linearGradient id="a"><stop id="ax" stop-color="#4d2600" offset="0"/><stop id="ay" stop-color="#4d2600" stop-opacity="0" offset="1"/></linearGradient><linearGradient id="ak" x1="60.873" x2="96.461" y1="191.77" y2="191.77" gradientUnits="userSpaceOnUse" xlink:href="#a"/><linearGradient id="aj" x1="200.09" x2="174.75" y1="191.77" y2="191.77" gradientUnits="userSpaceOnUse" xlink:href="#a"/><radialGradient id="aa" cx="132.87" cy="145.08" r="66.312" gradientTransform="matrix(1 0 0 .44846 0 93.631)" gradientUnits="userSpaceOnUse" xlink:href="#a"/><radialGradient id="z" cx="132.87" cy="314.74" r="66.312" gradientTransform="matrix(1.3172 -2.7785e-7 6.1276e-8 .29049 -42.152 143.35)" gradientUnits="userSpaceOnUse" xlink:href="#a"/><linearGradient id="ai" x1="132.87" x2="132.87" y1="178.13" y2="215.35" gradientUnits="userSpaceOnUse" xlink:href="#g"/><linearGradient id="ah" x1="132.87" x2="132.87" y1="234.56" y2="211.56" gradientUnits="userSpaceOnUse" xlink:href="#g"/><linearGradient id="ag" x1="132.87" x2="132.87" y1="218.84" y2="235.22" gradientUnits="userSpaceOnUse" xlink:href="#g"/><radialGradient id="y" cx="132.87" cy="175.34" r="54.656" gradientTransform="matrix(1.464 1.3006e-7 -3.466e-8 .39015 -61.659 101.21)" gradientUnits="userSpaceOnUse" xlink:href="#a"/><linearGradient id="af" x1="72.185" x2="91.699" y1="124.17" y2="126.65" gradientUnits="userSpaceOnUse" xlink:href="#c"/><linearGradient id="ae" x1="132.87" x2="132.87" y1="120.71" y2="160.4" gradientUnits="userSpaceOnUse" xlink:href="#a"/><linearGradient id="ad" x1="132.87" x2="132.87" y1="112.71" y2="147.45" gradientTransform="matrix(.97308 0 0 .91355 3.5767 11.319)" gradientUnits="userSpaceOnUse"><stop id="az" stop-color="#888" offset="0"/><stop id="ba" stop-color="#888" stop-opacity="0" offset="1"/></linearGradient><radialGradient id="x" cx="93.406" cy="76.689" r="8.3121" gradientTransform="matrix(1.5111 .53065 -.48797 1.3896 -10.322 -79.257)" gradientUnits="userSpaceOnUse" xlink:href="#c"/><linearGradient id="ac" x1="127.01" x2="148.39" y1="69.627" y2="69.627" gradientUnits="userSpaceOnUse" xlink:href="#c" spreadMethod="reflect"/><linearGradient id="ab" x1="72.185" x2="91.699" y1="124.17" y2="126.65" gradientTransform="matrix(-1 0 0 1 265.08 0)" gradientUnits="userSpaceOnUse" xlink:href="#c"/><radialGradient id="w" cx="93.406" cy="76.689" r="8.3121" gradientTransform="matrix(-1.5111 .53065 .48797 1.3896 275.4 -79.257)" gradientUnits="userSpaceOnUse" xlink:href="#c"/><radialGradient id="v" cx="132.87" cy="146.16" r="44.344" gradientTransform="matrix(1.0528 1.1972e-7 -3.5966e-8 .31628 -7.0143 65.267)" gradientUnits="userSpaceOnUse" xlink:href="#b"/><radialGradient id="u" cx="132.87" cy="89.455" r="44.344" gradientTransform="matrix(.80667 -5.6273e-8 1.9611e-8 .28111 25.689 68.413)" gradientUnits="userSpaceOnUse" xlink:href="#b"/><radialGradient id="e" cx="112.57" cy="104.04" r="5.2648" gradientUnits="userSpaceOnUse" xlink:href="#b"/><radialGradient id="t" cx="132.87" cy="60.322" r="11.01" gradientTransform="matrix(1 0 0 3.5553 0 -148.78)" gradientUnits="userSpaceOnUse" xlink:href="#b"/><radialGradient id="s" cx="121.86" cy="55.302" r="11.01" gradientTransform="matrix(1 0 0 2.0682 0 -59.072)" gradientUnits="userSpaceOnUse" xlink:href="#d"/><radialGradient id="r" cx="140.58" cy="49.647" r="11.01" gradientTransform="matrix(1 0 0 2.0682 0 -59.072)" gradientUnits="userSpaceOnUse" xlink:href="#d"/><linearGradient id="p" x1="46.657" x2="53.47" y1="157.59" y2="161.69" gradientUnits="userSpaceOnUse" xlink:href="#f"/><linearGradient id="o" x1="51.462" x2="54.797" y1="140.47" y2="142.81" gradientUnits="userSpaceOnUse" xlink:href="#f"/><linearGradient id="n" x1="51.852" x2="55.187" y1="140.27" y2="141.83" gradientUnits="userSpaceOnUse" xlink:href="#f"/><linearGradient id="m" x1="48.295" x2="48.295" y1="182.22" y2="206.01" gradientUnits="userSpaceOnUse" xlink:href="#a"/><radialGradient id="l" cx="83.063" cy="196.85" r="28.333" gradientTransform="matrix(.5459 5.7505e-8 -1.2268e-7 1.1596 30.996 -28.964)" gradientUnits="userSpaceOnUse" xlink:href="#a"/><radialGradient id="k" cx="48.07" cy="196.15" r="28.333" gradientTransform="matrix(.010702 .5458 -1.4035 .02752 351.91 148.57)" gradientUnits="userSpaceOnUse" xlink:href="#a"/><radialGradient id="j" cx="71.389" cy="155.43" r="16.813" gradientTransform="matrix(1.459 .14788 -.29696 2.9298 13.13 -298.76)" gradientUnits="userSpaceOnUse" xlink:href="#a"/><radialGradient id="i" cx="57.327" cy="123.88" r="9.1108" gradientTransform="matrix(1 1.18e-7 -1.1697e-7 .99127 1.449e-5 -3.5139)" gradientUnits="userSpaceOnUse" xlink:href="#b"/><radialGradient id="h" cx="52.259" cy="119.32" r="9.1108" gradientTransform="matrix(1 1.18e-7 -1.1697e-7 .99127 1.449e-5 -3.5139)" gradientUnits="userSpaceOnUse" xlink:href="#d"/><radialGradient id="q" cx="126.12" cy="48.596" r="30.994" gradientTransform="matrix(1 0 0 1.1069 0 -5.1958)" gradientUnits="userSpaceOnUse" xlink:href="#d"/></defs><g id="bb"><g id="bc"><rect id="bd" y=".70866" width="265.04" height="265.04" opacity="0" stroke-width="1.4173"/><path id="be" transform="matrix(2.6696 0 0 2.1205 -203.81 -27.6)" d="m157.11 48.596a30.994 34.308 0 1 1-61.988 0 30.994 34.308 0 1 1 61.988 0z" fill="url(#q)" fill-rule="nonzero" opacity=".35124"/><path id="bf" d="m207.29 144.8c-8.7064-6.2573-19.714 8.5644-31.088 23.566-1.9445 0-3.5099 3.5099-3.5099 3.5099v25.572c0 1.9445 1.5654 3.5099 3.5099 3.5099h40.614c1.9445 0 3.5099-1.5654 3.5099-3.5099l-9.5268-49.138c0-1.9445-1.5654-3.5099-3.5099-3.5099z" fill="#2e3436" fill-rule="nonzero"/><path id="bg" d="m58.164 144.8c8.7064-6.2573 19.714 8.5644 31.088 23.566 1.9445 0 3.5099 3.5099 3.5099 3.5099v25.572c0 1.9445-1.5654 3.5099-3.5099 3.5099h-40.614c-1.9445 0-3.5099-1.5654-3.5099-3.5099l9.5268-49.138c0-1.9445 1.5654-3.5099 3.5099-3.5099z" fill="#2e3436" fill-rule="nonzero"/><g id="bh" transform="translate(0 15.438)" fill-rule="nonzero"><path id="bi" d="m101.16 149.91c-6.8397 0.48619-14.641 7.573-23.062 14.179-3.9146 2.7688-11.156 17.258-11.156 21.389v33.046c0.32949 5.5955 5.8515 15.116 9.9375 15.116h112.75c4.086 0 9.608-9.5208 9.9375-15.116v-33.046c0-4.1314-7.2417-18.62-11.156-21.389-8.4211-6.6059-16.223-13.693-23.062-14.179-0.20875-0.01485-0.4191-1e-5 -0.625 0h-62.938c-0.2059-1e-5 -0.41625-0.01485-0.625 0z" fill="#fa0" stroke="#4d2600" stroke-linecap="round" stroke-linejoin="round" stroke-miterlimit="4" stroke-width="1.4173"/><path id="bj" d="m101.16 149.91c-6.8397 0.48619-14.641 7.573-23.062 14.179-3.9146 2.7688-11.156 17.258-11.156 21.389v33.046c0.32949 5.5955 5.8515 15.116 9.9375 15.116h112.75c4.086 0 9.608-9.5208 9.9375-15.116v-33.046c0-4.1314-7.2417-18.62-11.156-21.389-8.4211-6.6059-16.223-13.693-23.062-14.179-0.20875-0.01485-0.4191-1e-5 -0.625 0h-62.938c-0.2059-1e-5 -0.41625-0.01485-0.625 0z" fill="url(#ak)"/><path id="bk" d="m101.16 149.91c-6.8397 0.48619-14.641 7.573-23.062 14.179-3.9146 2.7688-11.156 17.258-11.156 21.389v33.046c0.32949 5.5955 5.8515 15.116 9.9375 15.116h112.75c4.086 0 9.608-9.5208 9.9375-15.116v-33.046c0-4.1314-7.2417-18.62-11.156-21.389-8.4211-6.6059-16.223-13.693-23.062-14.179-0.20875-0.01485-0.4191-1e-5 -0.625 0h-62.938c-0.2059-1e-5 -0.41625-0.01485-0.625 0z" fill="url(#aj)"/><rect id="bl" x="91.758" y="177" width="82.733" height="38.107" rx="3.5099" ry="3.5099" fill="#ffd500" stroke="url(#ai)" stroke-linecap="round" stroke-linejoin="round" stroke-miterlimit="4" stroke-width="1.7717"/><path id="bm" d="m172.47 233.66 2.0312-10.531c0-1.9445-1.5868-3.5-3.5312-3.5h-75.688c-1.9445 0-3.5312 1.5555-3.5312 3.5l2.0312 10.531" fill="url(#ah)" stroke="url(#ag)" stroke-linecap="round" stroke-linejoin="round" stroke-miterlimit="4" stroke-width="1.063"/><path id="bn" d="m99.003 178.38-6.9486 11.362v13.47l15.2-24.832h-8.2514zm19.853 0-21.838 35.697h8.2514l21.838-35.697h-8.2514zm19.853 0-21.838 35.697h8.2514l21.838-35.697h-8.2514zm19.853 0-21.838 35.697h8.2514l21.838-35.697h-8.2514zm15.634 6.9109-17.62 28.786h8.2514l9.3681-15.315v-13.47z" fill="#323232"/><path id="bo" d="m101.16 149.91c-6.8397 0.48619-14.641 7.573-23.062 14.179-3.9146 2.7688-11.156 17.258-11.156 21.389v33.046c0.32949 5.5955 5.8515 15.116 9.9375 15.116h112.75c4.086 0 9.608-9.5208 9.9375-15.116v-33.046c0-4.1314-7.2417-18.62-11.156-21.389-8.4211-6.6059-16.223-13.693-23.062-14.179-0.20875-0.01485-0.4191-1e-5 -0.625 0h-62.938c-0.2059-1e-5 -0.41625-0.01485-0.625 0z" fill="url(#z)"/><path id="bp" d="m101.16 149.91c-6.8397 0.48619-14.641 7.573-23.062 14.179-3.9146 2.7688-11.156 17.258-11.156 21.389v33.046c0.32949 5.5955 5.8515 15.116 9.9375 15.116h112.75c4.086 0 9.608-9.5208 9.9375-15.116v-33.046c0-4.1314-7.2417-18.62-11.156-21.389-8.4211-6.6059-16.223-13.693-23.062-14.179-0.20875-0.01485-0.4191-1e-5 -0.625 0h-62.938c-0.2059-1e-5 -0.41625-0.01485-0.625 0z" fill="url(#aa)"/></g><g id="bq" transform="translate(-.00099182 15.438)" fill-rule="nonzero"><path id="br" d="m106.38 72.219c-10.819 1.1761-26.156 38.925-26.156 49.756l-2 32.967c0 7.5577 7.2415 15.052 13.125 15.052h83.062c5.8835 0 13.125-7.4939 13.125-15.052l-2-32.967c0-10.83-15.337-48.579-26.156-49.756-0.17173-0.018669-0.33061 0-0.5 0h-52c-0.16939 0-0.32827-0.018669-0.5 0z" fill="#fa0" stroke="#4d2600" stroke-linecap="round" stroke-linejoin="round" stroke-miterlimit="4" stroke-width="1.4173"/><rect id="bs" x="121.86" y="32.53" width="22.021" height="45.543" rx="11.01" ry="11.01" fill="#590000"/><rect id="bt" x="121.86" y="32.53" width="22.021" height="45.543" rx="11.01" ry="11.01" fill="url(#t)"/><rect id="bu" x="121.86" y="32.53" width="22.021" height="45.543" rx="11.01" ry="11.01" fill="url(#s)"/><rect id="bv" x="117.36" y="65.685" width="31.029" height="7.8838" rx="2.0019" ry="2.0019" fill="#4d2600"/><path id="bw" d="m106.38 72.219c-10.819 1.1761-26.156 38.925-26.156 49.756l-2 32.967c0 7.5577 7.2415 15.052 13.125 15.052h83.062c5.8835 0 13.125-7.4939 13.125-15.052l-2-32.967c0-10.83-15.337-48.579-26.156-49.756-0.17173-0.018669-0.33061 0-0.5 0h-52c-0.16939 0-0.32827-0.018669-0.5 0z" fill="url(#y)"/><path id="bx" d="m99.519 121.36h66.71c1.9445 0 3.5099 1.5654 3.5099 3.5099l4 28.056c0 1.9445-1.5654 3.5099-3.5099 3.5099h-74.71c-1.9445 0-3.5099-1.5654-3.5099-3.5099l4-28.056c0-1.9445 1.5654-3.5099 3.5099-3.5099z" fill="#eeeeec" stroke="url(#ae)" stroke-linecap="round" stroke-linejoin="round" stroke-miterlimit="4" stroke-width="1.4173"/><path id="by" d="m113.81 161.47c-1.9445 0-2.9986 1.5555-3.5 3.5l-2 5.0312h49.125l-2-5.0312c-0.50141-1.9445-1.5555-3.5-3.5-3.5h-38.125z" fill="#4d2600"/><path id="bz" d="m115.19 78.743c-1.8043 0-2.7824-1.1898-3.2477-2.6772l-1.8558-3.8484h45.583l-1.8558 3.8484c-0.46526 1.4873-1.4434 2.6772-3.2477 2.6772h-35.376z" fill="#4d2600"/><path id="ca" d="m91.344 89.281c-0.9731 1.8569-1.8864 3.7967-2.7812 5.75 3.0724 5.6815 10.415 16.062 16.531 16.062h55.625c6.1164 0 13.459-10.381 16.531-16.062-0.89482-1.9533-1.8082-3.8931-2.7812-5.75-2.7772 1.8658-7.5215 4.8125-13.75 4.8125h-55.625c-6.2285 0-10.973-2.9467-13.75-4.8125z" fill="#590000"/><path id="cb" d="m85.156 103.09c-2.9769 7.7883-4.9375 15.031-4.9375 18.875l-1.9688 32.25 3.8438 0.375c3.3118 0.3186 7.2136-2.0632 7.5322-5.375l4.8134-33.87c0.3186-3.3118-4.0963-11.749-7.4081-12.068l-1.875-0.1875z" fill="#4d2600"/><path id="cc" d="m103.5 73.312c-3.2876 2.0053-6.8121 6.5518-10.094 12.188 0.77592 0.75682 1.6752 1.4168 2.6875 2 5.027 2.8959 10.887 2.1426 13.094-1.6875 2.2064-3.8301-0.0668-9.2916-5.0938-12.188-0.19336-0.11139-0.39815-0.21189-0.59375-0.3125z" fill="#4d2600"/><path id="cd" d="m161.95 73.312c3.2876 2.0053 6.8121 6.5518 10.094 12.188-0.77592 0.75682-1.6752 1.4168-2.6875 2-5.027 2.8959-10.887 2.1426-13.094-1.6875-2.2064-3.8301 0.0668-9.2916 5.0938-12.188 0.19336-0.11139 0.39815-0.21189 0.59375-0.3125z" fill="#4d2600"/><path id="ce" d="m180.3 103.09c2.9769 7.7883 4.9375 15.031 4.9375 18.875l1.9688 32.25-3.8438 0.375c-3.3118 0.3186-7.2136-2.0632-7.5322-5.375l-4.8134-33.87c-0.3186-3.3118 4.0963-11.749 7.4081-12.068l1.875-0.1875z" fill="#4d2600"/><path id="cf" d="m85.156 103.09c-2.9769 7.7883-4.9375 15.031-4.9375 18.875l-1.9688 32.25 3.8438 0.375c3.3118 0.3186 7.2136-2.0632 7.5322-5.375l4.8134-33.87c0.3186-3.3118-4.0963-11.749-7.4081-12.068l-1.875-0.1875z" fill="url(#af)"/><path id="cg" d="m100.42 122.19h64.915c1.8921 0 3.4154 1.4301 3.4154 3.2064l3.8923 25.631c0 1.7764-1.5233 3.2064-3.4154 3.2064h-72.699c-1.8921 0-3.4154-1.4301-3.4154-3.2064l3.8923-25.631c0-1.7764 1.5233-3.2064 3.4154-3.2064z" fill="url(#ad)"/><path id="ch" d="m107.94 122.19v32.062h2.75v-32.062h-2.75zm14 0v32.062h2.75v-32.062h-2.75zm14 0v32.062h2.75v-32.062h-2.75zm12 0v32.062h2.75v-32.062h-2.75zm14 0v32.062h2.75v-32.062h-2.75zm-63.25 0.46875c-1.0054 0.55684-1.6875 1.5704-1.6875 2.75l-1.0625 6.9688v21.781c0.19474 0.03215 0.3889 0.09375 0.59375 0.09375h2.1562v-31.594z" fill="#323232"/><path id="ci" d="m103.5 73.312c-3.2876 2.0053-6.8121 6.5518-10.094 12.188 0.77592 0.75682 1.6752 1.4168 2.6875 2 5.027 2.8959 10.887 2.1426 13.094-1.6875 2.2064-3.8301-0.0668-9.2916-5.0938-12.188-0.19336-0.11139-0.39815-0.21189-0.59375-0.3125z" fill="url(#x)"/><rect id="cj" x="117.36" y="65.685" width="31.029" height="7.8838" rx="2.0019" ry="2.0019" fill="url(#ac)" opacity=".60352"/><path id="ck" d="m179.93 103.09c2.9769 7.7883 4.9375 15.031 4.9375 18.875l1.9688 32.25-3.8438 0.375c-3.3118 0.3186-7.2136-2.0632-7.5322-5.375l-4.8134-33.87c-0.3186-3.3118 4.0963-11.749 7.4081-12.068l1.875-0.1875z" fill="url(#ab)"/><path id="cl" d="m161.58 73.312c3.2876 2.0053 6.8121 6.5518 10.094 12.188-0.77593 0.75682-1.6752 1.4168-2.6875 2-5.027 2.8959-10.887 2.1426-13.094-1.6875-2.2064-3.8301 0.0668-9.2916 5.0938-12.188 0.19336-0.11139 0.39815-0.21189 0.59375-0.3125z" fill="url(#w)"/><path id="cm" d="m91.344 89.281c-0.9731 1.8569-1.8864 3.7967-2.7812 5.75 3.0724 5.6815 10.415 16.062 16.531 16.062h55.625c6.1164 0 13.459-10.381 16.531-16.062-0.89482-1.9533-1.8082-3.8931-2.7812-5.75-2.7772 1.8658-7.5215 4.8125-13.75 4.8125h-55.625c-6.2285 0-10.973-2.9467-13.75-4.8125z" fill="url(#v)"/><path id="cn" d="m91.344 89.281c-0.9731 1.8569-1.8864 3.7967-2.7812 5.75 3.0724 5.6815 10.415 16.062 16.531 16.062h55.625c6.1164 0 13.459-10.381 16.531-16.062-0.89482-1.9533-1.8082-3.8931-2.7812-5.75-2.7772 1.8658-7.5215 4.8125-13.75 4.8125h-55.625c-6.2285 0-10.973-2.9467-13.75-4.8125z" fill="url(#u)"/><path id="co" transform="matrix(2.6291 0 0 2.6291 -183.08 -171)" d="m117.83 104.04a5.2648 5.2648 0 1 1-10.53 0 5.2648 5.2648 0 1 1 10.53 0z" fill="url(#e)"/><path id="cp" transform="translate(.30716 -1.5042)" d="m117.83 104.04a5.2648 5.2648 0 1 1-10.53 0 5.2648 5.2648 0 1 1 10.53 0z" fill="#f11"/><path id="cq" transform="matrix(2.6291 0 0 2.6291 -163.08 -171)" d="m117.83 104.04a5.2648 5.2648 0 1 1-10.53 0 5.2648 5.2648 0 1 1 10.53 0z" fill="url(#e)"/><path id="cr" transform="translate(20.307 -1.5042)" d="m117.83 104.04a5.2648 5.2648 0 1 1-10.53 0 5.2648 5.2648 0 1 1 10.53 0z" fill="#f11"/><path id="cs" transform="matrix(2.6291 0 0 2.6291 -143.19 -171)" d="m117.83 104.04a5.2648 5.2648 0 1 1-10.53 0 5.2648 5.2648 0 1 1 10.53 0z" fill="url(#e)"/><path id="ct" transform="translate(40.307 -1.5042)" d="m117.83 104.04a5.2648 5.2648 0 1 1-10.53 0 5.2648 5.2648 0 1 1 10.53 0z" fill="#f11"/><rect id="cu" x="121.86" y="32.53" width="22.021" height="45.543" rx="11.01" ry="11.01" fill="url(#r)"/></g><g id="cv" transform="translate(0 15.438)" fill-rule="nonzero"><path id="cw" d="m45.961 121.79 4.4116 2.8237c1.8545 0.58467 2.0497 6.4077 1.4651 8.2622l-7.6467 34.735c-0.58467 1.8545-2.5483 2.8768-4.4028 2.2921l-7.0945-6.0306c-1.8545-0.58467-2.8768-2.5483-2.2921-4.4028l11.157-35.387c0.58467-1.8545 2.5483-2.8768 4.4028-2.2921z" fill="#4d2600"/><rect id="cx" x="19.054" y="216.61" width="52.147" height="26.575" rx="5.5155" ry="5.5155" fill="#2e3436"/><path id="cy" d="m66.437 119.34v53.144c0 3.0556-0.95569 4.5127-4.0113 4.5127h-20.769c-6.0848 0-10.028-6.4712-8.524-11.532 1.2211-10.964 13.988-42.999 15.008-46.124h18.296z" fill="#fa0" stroke="#4d2600" stroke-linecap="round" stroke-linejoin="round" stroke-miterlimit="4" stroke-width="1.4173"/><path id="cz" d="m66.437 119.34v53.144c0 3.0556-0.95569 4.5127-4.0113 4.5127h-20.769c-6.0848 0-10.028-6.4712-8.524-11.532 1.2211-10.964 13.988-42.999 15.008-46.124h18.296z" fill="url(#j)"/><path id="da" d="m57.219 110.25c-4.5362 0-8.1234 3.8633-9.0028 8.995l18.222 0.03622c-0.86739-5.1544-4.6689-9.0312-9.2188-9.0312z" fill="#590000"/><path id="db" d="m62.046 161.69a10.814 10.814 0 1 1-21.628 0 10.814 10.814 0 1 1 21.628 0z" fill="url(#p)"/><path id="dc" transform="translate(1.4182)" d="m58.501 141.83a4.7864 4.7864 0 1 1-9.5729 0 4.7864 4.7864 0 1 1 9.5729 0z" fill="url(#o)"/><path id="dd" transform="translate(3.191 -13.745)" d="m58.501 141.83a4.7864 4.7864 0 1 1-9.5729 0 4.7864 4.7864 0 1 1 9.5729 0z" fill="url(#n)"/><path id="de" transform="matrix(.74498 0 0 .74498 13.065 41.234)" d="m62.046 161.69a10.814 10.814 0 1 1-21.628 0 10.814 10.814 0 1 1 21.628 0z" fill="#16191a"/><path id="df" transform="matrix(.63335 0 0 .63335 21.113 52.003)" d="m58.501 141.83a4.7864 4.7864 0 1 1-9.5729 0 4.7864 4.7864 0 1 1 9.5729 0z" fill="#2e3436"/><path id="dg" transform="matrix(.65954 0 0 .65954 21.479 34.543)" d="m58.501 141.83a4.7864 4.7864 0 1 1-9.5729 0 4.7864 4.7864 0 1 1 9.5729 0z" fill="#2e3436"/><path id="dh" d="m29.555 185.53h37.634c3.0556 0 5.5155 2.4599 5.5155 5.5155v27.048c0 3.0556-2.4599 3.5155-5.5155 3.5155h-45.634c-3.0556 0-5.5155-0.45993-5.5155-3.5155l8-27.048c1.5042-3.557 2.4599-5.5155 5.5155-5.5155z" fill="#fa0" stroke="#4d2600" stroke-linecap="round" stroke-linejoin="round" stroke-miterlimit="4" stroke-width="1.4173"/><path id="di" d="m17.781 212.19-1.75 5.9062c0 3.0556 2.4756 3.5312 5.5312 3.5312h45.625c3.0556 0 5.5313-0.47565 5.5312-3.5312v-5.9062h-54.938z" fill="#4d2600"/><rect id="dj" x="35.533" y="191.68" width="25.524" height="18.517" rx="3.5033" ry="3.5033" fill="url(#m)"/><path id="dk" d="m29.555 185.53h37.634c3.0556 0 5.5155 2.4599 5.5155 5.5155v27.048c0 3.0556-2.4599 3.5155-5.5155 3.5155h-45.634c-3.0556 0-5.5155-0.45993-5.5155-3.5155l8-27.048c1.5042-3.557 2.4599-5.5155 5.5155-5.5155z" fill="url(#l)"/><path id="dl" d="m29.555 185.53h37.634c3.0556 0 5.5155 2.4599 5.5155 5.5155v27.048c0 3.0556-2.4599 3.5155-5.5155 3.5155h-45.634c-3.0556 0-5.5155-0.45993-5.5155-3.5155l8-27.048c1.5042-3.557 2.4599-5.5155 5.5155-5.5155z" fill="url(#k)"/><path id="dm" d="m57.219 110.25c-4.5362 0-8.1234 3.8633-9.0028 8.995l18.222 0.03622c-0.86739-5.1544-4.6689-9.0312-9.2188-9.0312z" fill="url(#i)"/><path id="dn" d="m57.219 110.25c-4.5362 0-8.1234 3.8633-9.0028 8.995l18.222 0.03622c-0.86739-5.1544-4.6689-9.0312-9.2188-9.0312z" fill="url(#h)"/></g><g id="do" transform="matrix(-1 0 0 1 267.25 15.438)" fill-rule="nonzero"><path id="dp" d="m45.961 121.79 4.4116 2.8237c1.8545 0.58467 2.0497 6.4077 1.4651 8.2622l-7.6467 34.735c-0.58467 1.8545-2.5483 2.8768-4.4028 2.2921l-7.0945-6.0306c-1.8545-0.58467-2.8768-2.5483-2.2921-4.4028l11.157-35.387c0.58467-1.8545 2.5483-2.8768 4.4028-2.2921z" fill="#4d2600"/><rect id="dq" x="19.054" y="216.61" width="52.147" height="26.575" rx="5.5155" ry="5.5155" fill="#2e3436"/><path id="dr" d="m66.437 119.34v53.144c0 3.0556-0.95569 4.5127-4.0113 4.5127h-20.769c-6.0848 0-10.028-6.4712-8.524-11.532 1.2211-10.964 13.988-42.999 15.008-46.124h18.296z" fill="#fa0" stroke="#4d2600" stroke-linecap="round" stroke-linejoin="round" stroke-miterlimit="4" stroke-width="1.4173"/><path id="ds" d="m66.437 119.34v53.144c0 3.0556-0.95569 4.5127-4.0113 4.5127h-20.769c-6.0848 0-10.028-6.4712-8.524-11.532 1.2211-10.964 13.988-42.999 15.008-46.124h18.296z" fill="url(#j)"/><path id="dt" d="m57.219 110.25c-4.5362 0-8.1234 3.8633-9.0028 8.995l18.222 0.03622c-0.86739-5.1544-4.6689-9.0312-9.2188-9.0312z" fill="#590000"/><path id="du" d="m62.046 161.69a10.814 10.814 0 1 1-21.628 0 10.814 10.814 0 1 1 21.628 0z" fill="url(#p)"/><path id="dv" transform="translate(1.4182)" d="m58.501 141.83a4.7864 4.7864 0 1 1-9.5729 0 4.7864 4.7864 0 1 1 9.5729 0z" fill="url(#o)"/><path id="dw" transform="translate(3.191 -13.745)" d="m58.501 141.83a4.7864 4.7864 0 1 1-9.5729 0 4.7864 4.7864 0 1 1 9.5729 0z" fill="url(#n)"/><path id="dx" transform="matrix(.74498 0 0 .74498 13.065 41.234)" d="m62.046 161.69a10.814 10.814 0 1 1-21.628 0 10.814 10.814 0 1 1 21.628 0z" fill="#16191a"/><path id="dy" transform="matrix(.63335 0 0 .63335 21.113 52.003)" d="m58.501 141.83a4.7864 4.7864 0 1 1-9.5729 0 4.7864 4.7864 0 1 1 9.5729 0z" fill="#2e3436"/><path id="dz" transform="matrix(.65954 0 0 .65954 21.479 34.543)" d="m58.501 141.83a4.7864 4.7864 0 1 1-9.5729 0 4.7864 4.7864 0 1 1 9.5729 0z" fill="#2e3436"/><path id="ea" d="m29.555 185.53h37.634c3.0556 0 5.5155 2.4599 5.5155 5.5155v27.048c0 3.0556-2.4599 3.5155-5.5155 3.5155h-45.634c-3.0556 0-5.5155-0.45993-5.5155-3.5155l8-27.048c1.5042-3.557 2.4599-5.5155 5.5155-5.5155z" fill="#fa0" stroke="#4d2600" stroke-linecap="round" stroke-linejoin="round" stroke-miterlimit="4" stroke-width="1.4173"/><path id="eb" d="m17.781 212.19-1.75 5.9062c0 3.0556 2.4756 3.5312 5.5312 3.5312h45.625c3.0556 0 5.5313-0.47565 5.5312-3.5312v-5.9062h-54.938z" fill="#4d2600"/><rect id="ec" x="35.533" y="191.68" width="25.524" height="18.517" rx="3.5033" ry="3.5033" fill="url(#m)"/><path id="ed" d="m29.555 185.53h37.634c3.0556 0 5.5155 2.4599 5.5155 5.5155v27.048c0 3.0556-2.4599 3.5155-5.5155 3.5155h-45.634c-3.0556 0-5.5155-0.45993-5.5155-3.5155l8-27.048c1.5042-3.557 2.4599-5.5155 5.5155-5.5155z" fill="url(#l)"/><path id="ee" d="m29.555 185.53h37.634c3.0556 0 5.5155 2.4599 5.5155 5.5155v27.048c0 3.0556-2.4599 3.5155-5.5155 3.5155h-45.634c-3.0556 0-5.5155-0.45993-5.5155-3.5155l8-27.048c1.5042-3.557 2.4599-5.5155 5.5155-5.5155z" fill="url(#k)"/><path id="ef" d="m57.219 110.25c-4.5362 0-8.1234 3.8633-9.0028 8.995l18.222 0.03622c-0.86739-5.1544-4.6689-9.0312-9.2188-9.0312z" fill="url(#i)"/><path id="eg" d="m57.219 110.25c-4.5362 0-8.1234 3.8633-9.0028 8.995l18.222 0.03622c-0.86739-5.1544-4.6689-9.0312-9.2188-9.0312z" fill="url(#h)"/></g></g></g></svg>
