<?xml version="1.0" encoding="UTF-8"?>
<svg id="b" version="1.1" viewBox="0 0 225 225" xmlns="http://www.w3.org/2000/svg"><defs id="c"><filter id="a" x="-.05941" y="-.060602" width="1.1188" height="1.1212" color-interpolation-filters="sRGB"><feGaussianBlur id="d" stdDeviation="4.9723852"/></filter></defs><title id="e">Blank globe, focus on Africa</title><path id="f" d="m217.84 119.44c1.6586 40.029-26.846 76.623-63.088 91.183-22.49 9.6092-48.43 10.161-71.346 1.6527-52.022-16.029-80.688-80.901-59.289-130.55 11.133-24.996 32.043-46.043 58.38-54.55 39.299-13.828 88.025-3.065 113.58 31.059 13.946 17.121 21.826 39.109 21.762 61.204z" fill="#505050" filter="url(#a)" opacity=".87"/><path id="g" d="m97.645 208.59c-18.406-2.3618-37.266-10.401-51.622-22.004-34.706-28.05-45.675-75.975-27.069-118.26 8.6547-19.671 26.134-37.598 46.03-47.208 39.004-18.84 84.283-11.462 114.15 18.6 35.301 35.537 39.077 90.335 8.9633 130.06-3.8726 5.109-12.328 13.855-17.204 17.795-14.39 11.628-31.316 18.712-50.328 21.062-4.9082 0.60671-18.036 0.58088-22.915-0.0451z" fill="#9e9d63"/><path id="h" d="m101.83 209.28c-31.01-2.1344-60.766-19.668-76.966-46.307-0.94867-11.637-3.6762-22.547-10.113-32.26-7.1164-21.096-5.454-44.793 5.0757-64.468 1.4149-7.2851 14.53-20.314 17.582-11.344 3.7858 1.5661 4.6996-12.353 8.1961-3.4077-1.2929 2.015-7.4103 5.2188-2.7946 6.5906 5.567-7.6394 13.366-14.073 17.279-21.971 10.793-10.181-20.431 6.6118-6.4172-2.6253 1.5422-4.5062 15.266-11.445 12.901-3.9221 14.343-1.486-7.7237 1.9881-3.7682 8.4833 5.7787-1.6196 15.298-5.4541 18.518-12.589-6.6826 0.78009-6.9657 0.17528 0.12034-1.1689 3.9921 0.91114 2.3547 4.4826 8.6191 4.2017-5.1219 2.1334-17.011 9.8324-24.478 14.22-5.5867 4.722-2.5663 10.036 3.7549 4.8957 11.258-0.26974 22.655-2.5623 29.624-12.381 1.1382-4.9582-4.3105-5.5135-3.7099-10.034-2.9516-4.5934-22.279-1.7595-9.3753-4.1947 4.4483-0.99584 10.608-4.5488 2.6908-3.5543 9.3301-4.7267 20.48-2.8049 30.429-5.2769 4.1229 2.6247 15.457 5.2298 13.227 10.62-8.0828-0.84446 4.3418 2.5025 5.0072 3.7239 0.0374 6.1253-9.2357 3.2074-13.199 5.598 5.1867-1.874 12.224 7.7702 5.5481 9.86 5.6864 9.6427-7.1735 5.9139-5.0362-1.7654-9.2355 4.4506 11.387 12.542-1.8102 12.659-2.985 6.4065-13.156-8.0557-19.362 0.87695-3.7653 4.6665-16.677 11.719-7.1971 16.708-3.4587 5.6531-13.787 12.962-10.946 1.2805 3.1819-12.672-9.7346-1.1032-10.592 3.4125 2.6082 2.1059 9.2446-4.8642 3.728 2.0977-4.9136 4.3193 11.446 3.0803 0.32425 3.8592-2.3003 3.0016 1.2382 13.182-6.0548 7.9185-12.788 1.7411 0.20122 16.725-11.918 19.709-9.647 5.0715-15.338 14.51-15.485 25.39 0.75559 12.288 12.968 23.02 25.308 20.711 7.4202 1.6979 15.852 5.8793 12.716 14.573 12.217 4.6464 1.4891 18.9 9.8139 25.676 5.905 13.97 26.914 11.073 33.706-0.5937 5.6341-6.9136 14.517-10.547 9.7783-21.093 3.8254-10.45 18.251-17.014 17.799-29.246-5.7268-0.99885-12.912 7.1242-16.454-1.8052-3.9003-4.1215-12.965-15.923-10.697-19.047 6.1045 6.6592 10.157 14.941 16.235 21.624 8.5776-4.9064 17.588-11.588 20.412-21.342-3.7697-4.3791-8.2351-5.8368-0.0236-7.0976 12.012-6.1038 19.536 8.2414 24.5 15.338 10.839 3.0532-2.1922-12.397 2.9789-18.454-0.60574-8.4367 6.4227-13.623 9.7751-9.3872 5.2089 7.8948 3.0795 16.261 4.3774 24.755 1.2998 11.215-6.3041 21.763-10.887 31.783-18.372 31.294-54.618 51.33-91.015 48.812l-1.7257-0.0412zm41.52-15.885c6.2076-1.5878 13.289-20.651 2.2449-10.804-2.7193 1.2-9.8813 13.303-2.2449 10.804zm15.175-8.2889c-1.2917-0.2843 0.0163 1.3233 0 0zm-78.867-20.461c-0.63844-1.2264-0.63848 1.2263 0 0zm79.176-23.953-0.8846-0.0181zm-120.67-14.27c-1.3314-2.709-1.1261 1.767 0 0zm0.93052-1.1831c-0.76972-1.4316-0.85917 1.1875 0 0zm-1.4241-1.5436c-1.0011-4.9026-2.3194 0.014 0 0zm162.76-11.601c-1.4469-3.3967 0.18689 3.7877 0 0zm-147.71-1.122c-0.58171-1.7641-0.58175 1.7641 0 0zm2.4668-0.12241c1.3745-2.8936-3.028 2.7015 0 0zm-3.3203-0.88108-0.58196-0.28759zm2.0874-7.7568c-0.59014-1.3637-0.59014 1.3637 0 0zm-4.9354-12.585c-0.59014-1.3637-0.59014 1.3637 0 0zm-1.7839-2.8841c-0.76967-1.4316-0.85922 1.1876 0 0zm-33.418-3.0462c-0.79704-1.2567 0.04737 1.7091 0 0zm74.43-19.549c-1.5052-1.1968-0.16993 2.9187 0 0zm-2.9534-3.7076c-1.1405-1.1131-0.39304 3.1121 0 0zm-2.3821-5.3137c0.43883-10.186-13.352 2.9927 0 0zm41.616-2.7588c0.68377-3.4963-3.1046 1.3601 0 0zm-17.863-9.9356c7.4046-2.8501-6.2194-5.6436-0.63589 1.1841zm-45.421-3.7796c-0.09466-1.611-1.5257 1.5541 0 0zm69.208-0.1921c-1.4168-3.6625-1.3326 0.93201 0 0zm-13.707-0.32463c6.5219-3.8636-6.4978 0.25841 0 0zm-61.77-3.675c1.6926-1.8857-3.705 2.2466 0 0zm8.1019-2.9385c0.54716-1.9004-2.2148 1.4978 0 0zm1.9813-1.8604c-1.1061-1.5559-0.94817 1.4172 0 0zm29.489-5.7991c-0.89246-1.0401-0.89246 1.0401 0 0zm-0.47901-0.85584c-1.6546-1.8204-4.0189 2.0017 0 0zm0.78173-1.5292c-1.2515-2.3364-2.2332 2.0954 0 0zm-3.4188-0.07992c12.563-4.9521-9.2392 0.20217 0 0zm30.507-5.9252c-1.1885-1.0798-1.1885 1.0798 0 0z" fill="#4b809e"/><path id="i" d="m99.38 116.57c-7.7024-1.2264-7.8611-9.6632-10.918-12.63-4.6923-1.0263-17.452 1.9655-16.385-1.7436 7.6324-2.9297 16.814-16.265 22.932-3.1935 7.6116 5.0785-7.2594 4.6345 0.82345 7.355 8.4052-4.6532 3.6737-7.6038-0.15109-13.873 6.6268 0.94154 7.6488 18.84 15.7 13.885-3.9265-8.5792 0.0208-4.7688 2.4017 0.50257 5.1948 0.86288 16.582-1.0766 10.363 7.8279-7.5599 4.4778-18.192-3.4847-24.766 1.8692zm12.809-6.5676c-2.8975-2.7536-5.7199 1.0986 0 0zm10.454 6e-3c6.4704-4.0352-5.7061 0.35829 0 0zm-8.9649-1.0176c-0.82413-1.3496-0.33207 1.7548 0 0zm-17.767-1.0959c-0.59014-1.3637-0.59014 1.3637 0 0zm-5.8181-6.5501c3.9566-12.954-6.0933 1.2996 0 0zm-8.1474-2.033c0.26032-3.9311-2.7818 3.2514 0 0zm1.3804-0.54733c-0.59014-1.3637-0.59015 1.3637 0 0z" fill="#4b809e"/><path id="j" d="m115.16 97.898c-1.5158-5.9467 4.4627-8.3706 7.2885-5.397 11.283-0.33587 7.7803 8.0982-1.337 4.5746-1.8752 0.68214-3.9994 2.0594-5.9516 0.82244z" fill="#4b809e"/><path id="k" d="m123.67 90.237c0.67729-2.8607 3.2438 1.4298 0 0z" fill="#4582a2"/><path id="l" d="m144.32 100.63c0.0852-4.0003-10.964-15.966-1.936-9.8503 1.7926 1.6337 9.6998 12.106 1.936 9.8503z" fill="#4b809e"/><path id="m" d="m160.54 29.083c-5.0264-2.2132-17.275-12.478-4.7292-6.3497 4.2397 2.0014 9.8066 4.7601 5.2112 6.2134 0.6741 1.1393-0.12878 0.34321-0.48208 0.13623z" fill="#4b809e"/><path id="n" d="m144.52 19.056c-3.7635-2.1426 7.2165 2.4816 0 0z" fill="#16435b"/><path id="o" d="m124.66 13.001c-10.661-2.0612 7.1444-0.56309 0 5e-6z" fill="#16435b"/><path id="p" d="m151.66 121.98c-3.7865-3.0848-8.6804-8.9069-0.0442-4.7998 7.9512-0.18687 2.9586 4.7598 0.0442 4.7998z" fill="#4b809e"/><path id="q" d="m98.465 75.802c2.7603-3.5876 12.449-11.88 7.0031-1.7497-1.5624 1.9802-4.693 3.7061-7.0031 1.7497zm5.7243-4.1753c0.98356-3.5038-2.2441 2.8564 0 0z" fill="#4b809e"/><path id="r" d="m103.8 66.056c0.35004-7.9312 5.3554 1.2863 0 0z" fill="#4b809e"/><path id="s" d="m107.01 61.163c1.0677-3.7847 3.1057 0.22134 0 0z" fill="#16435b"/><path id="t" d="m117.81 58.979c-1.8808-3.2494 5.3362 1.2317 0 0z" fill="#16435b"/><path id="u" d="m109.26 71.35c0.45536-0.59946-0.0263 1.1311 0 0z" fill="#16435b"/><path id="v" d="m108.41 71.777c-1.8292-3.2006 2.9942 0.91509 0 0z" fill="#16435b"/><path id="w" d="m115.21 66.509c-1.3733-3.0588 2.6817 1.2137 0 0z" fill="#16435b"/><path id="x" d="m123.42 169.45c0.83441-5.5924 6.4992-0.17383 0 0z" fill="#16435b"/><path id="y" d="m119.48 176.62c0.69527-1.058 1.0775 1.0895 0 0z" fill="#16435b"/><path id="z" d="m127.03 182.86c0.49352-4.1736 0.36627 2.5562 0 0z" fill="#16435b"/><path id="aa" d="m207.48 114.2c-6.6262-7.8982 4.3145-13.416-2.8591-21.933-1.9951-4.7324-1.8835-12.96-3.3656-18.132 5.3665 12.29 7.8555 29.238 6.3918 40.534l-0.16711-0.46852z" fill="#4b809e"/><path id="ab" d="m195.18 61.801c-2.4074-3.1924-14.916-14.622-5.1499-7.736 1.6625 2.105 5.694 5.6779 5.1499 7.736z" fill="#4582a2"/><path id="ac" d="m183.57 45.918c-4.0076-3.3011-6.8158-9.3419-1.145-2.5116 1.9169 1.6933 5.4629 7.419 1.145 2.5116z" fill="#16435b"/><path id="ad" d="m174.88 36.453c-3.7501-4.3265 5.3214 4.5988 0 0z" fill="#16435b"/><path id="ae" d="m167.67 30.189c-3.5177-2.4931-16.689-10.451-13.989-8.5584 5.1444 1.9729 9.5878 5.3224 13.989 8.5584z" fill="#4b809e"/><path id="af" d="m162.11 30.356c-3.5188-1.0906 0.51698-1.5749 0 0z" fill="#16435b"/><path id="ag" d="m161.14 28.81c-0.0798-0.22186-0.0798-0.22186 0 0z" fill="#16435b"/><path id="ah" d="m179.18 39.974c-4.2975-2.7364-4.3459-5.4645 0 0z" fill="#4b809e"/><path id="ai" d="m174.12 35.862c-2.8716-1.988-2.0205-2.5628 0.0441-0.2225z" fill="#16435b"/><path id="aj" d="m170.76 33.216c-2.5306-1.4208 0.39282-0.85748 0 0z" fill="#16435b"/><path id="ak" d="m186.18 48.319c-4.2686-3.1791-13.568-15.351-4.6414-5.8739 1.7066 1.8231 3.2952 3.7676 4.6414 5.8739z" fill="#4b809e"/><path id="al" d="m185.35 47.722c-4.7494-4.4596-6.9754-7.666-1.077-1.1269-1.8053-1.6401 2.6127 2.1804 1.077 1.1269z" fill="#16435b"/><path id="am" d="m186.68 48.751c-3.2273-4.3955-8.5138-10.045-1.9853-2.8136-0.1882 0.07414 2.9057 3.0336 1.9853 2.8136z" fill="#4b809e"/><path id="an" d="m143.06 17.139c-5.847-2.6663-20.021-5.3245-21.227-5.424 6.8069 0.93669 16.232 2.5271 21.227 5.424z" fill="#4b809e"/><path id="ao" d="m146.43 19.714c-8.3467-2.5273 4.6994 0.4049-2.4816-1.0358l1.2024 0.5435z" fill="#16435b"/><path id="ap" d="m121.83 69.495c-1.4839-1.6462 1.88-0.02678 0 0z" fill="#16435b"/><path id="aq" d="m111.88 68.127c0.45353-2.3706 1.2354 0.13484 0 0z" fill="#16435b"/><path id="ar" d="m118.03 60.308c-1.8058-1.0007 2.2261 0.5027 0 0z" fill="#16435b"/><path id="as" d="m96.541 73.156c0.03618-3.4151 2.3048 0.24771 0 0z" fill="#16435b"/><path id="at" d="m114.89 100.13c-1.5255-1.1624 1.8186-0.23373 0 0z" fill="#4582a2"/><path id="au" d="m147.56 114.98c-0.27169-0.28901-0.27169-0.28901 0 0z" fill="#16435b"/><path id="av" d="m156.5 117.9c-1.5676-0.5064 3.45-2.5182 0 0z" fill="#4582a2"/><path id="aw" d="m146.86 117.63c-0.41154-0.63211-0.41154-0.63211 0 0z" fill="#16435b"/><path id="ax" d="m146.03 114.77c0.44629-0.76033 0.1803 0.70935 0 0z" fill="#16435b"/><path id="ay" d="m37.224 46.175c-0.28702-2.4732 2.1703-2.4773 0 0z" fill="#16435b"/><path id="az" d="m36.588 44.833c-1.1719-3.9253 1.6654 0.0022 0 0z" fill="#16435b"/><path id="ba" d="m39.632 41.608c-0.0086-2.1776 2.996-0.63021 0 0z" fill="#16435b"/><path id="bb" d="m41.676 38.268c0.11404-1.1749 1.9743 0.38137 0 0z" fill="#16435b"/><path id="bc" d="m43.836 37.437c2.092-4.7623 5.4386-3.6123 0 0z" fill="#838258"/><path id="bd" d="m88.472 101.6c-0.58958-8.1706 5.5348-6.7197 0 0z" fill="#838258"/><path id="be" d="m121.27 110.01c1.433-3.2433 4.5517-0.37516 0 0z" fill="#838258"/><path id="bf" d="m110.84 107.28c-3.7528-2.273 3.9066-2.2399 0 0z" fill="#838258"/><path id="bg" d="m109.82 109.97c-6.0872-2.0527 7.7424 0.66352 0 0z" fill="#838258"/><path id="bh" d="m88.834 25.25c-1.4134-1.2146 3.7365-1.1064 0 0z" fill="#838258"/><flowRoot id="bi" transform="translate(69.95 10.863)" fill="#ffff00" font-family="'Times New Roman'" font-size="16px" letter-spacing="0px" stroke="#000000" stroke-linejoin="miter" stroke-width="1px" word-spacing="0px" style="line-height:25px" xml:space="preserve"><flowRegion id="bj"><rect id="bk" x="-45.159" y="46.146" width="236.4" height="80.693" fill="#ff0"/></flowRegion><flowPara id="bl" font-family="'B&amp;H LucidaTypewriter'" font-size="42.667px" font-weight="bold" stroke="none">&lt;map&gt;</flowPara></flowRoot><path id="bm" d="m95.803 171.67c-7.5422-14.248-16.986-27.621-22.202-42.997-4.5816-19.747 15.193-3.2454 16.394-1.8586 1.0532-14.011-0.36226-27.284 0.20964-40.03 0.5719-12.746 13.57-9.4694 12.985 3.1306l0.78521 20.818c3.783-9.1939 13.313-0.76454 14.431 2.8133 7.0739-6.6396 13.167 1.635 13.404 5.242 14.311-0.20563 9.0668 15.71 8.9326 27.335-0.41917 8.6438-2.3472 24.569-12.344 25.547z" fill="#fff" stroke="#231f20" stroke-linejoin="miter" stroke-miterlimit="10" stroke-width="4"/><path id="bn" d="m77.723 22.178c1.7938-2.9454 3.3609-0.25777 0 0z" fill="#4b809e"/><path id="bo" d="m82.285 18.943c-0.2285-1.5071 1.8026 0.32033 0 0z" fill="#4b809e"/><path id="bp" d="m84.969 16.252c-0.34351-1.4136 1.725 0.56941 0 0z" fill="#4b809e"/><path id="bq" d="m72.425 28.85c-4.4367-0.62329 3.4934-0.61219 0 0z" fill="#4b809e"/><path id="br" d="m131.49 37.74c-1.4134-3.4777-0.64775-3.7054 0 0z" fill="#1b4e6a"/></svg>
