<?xml version="1.0" encoding="UTF-8"?>
<svg version="1.1" viewBox="0 0 48 48" xmlns="http://www.w3.org/2000/svg" xmlns:xlink="http://www.w3.org/1999/xlink"><defs><linearGradient id="c"><stop stop-color="#fff" stop-opacity="0" offset="0"/><stop stop-color="#fff" offset="1"/></linearGradient><linearGradient id="a"><stop stop-color="#eff1f1" offset="0"/><stop stop-color="#ececec" offset="1"/></linearGradient><linearGradient id="b"><stop stop-opacity="0" offset="0"/><stop offset="1"/></linearGradient><linearGradient id="h" x1="35" x2="19" y1="44" y2="3" gradientUnits="userSpaceOnUse"><stop stop-color="#e22828" offset="0"/><stop stop-color="#e05e4c" offset="1"/></linearGradient><linearGradient id="g" x1="-17" x2="-7" y1="12" y2="12" gradientUnits="userSpaceOnUse" xlink:href="#b"/><radialGradient id="d" cx="-12" cy="12" r="4" gradientUnits="userSpaceOnUse" xlink:href="#a"/><linearGradient id="m" x1="-17" x2="-7" y1="12" y2="12" gradientTransform="translate(24)" gradientUnits="userSpaceOnUse" xlink:href="#c"/><linearGradient id="l" x1="-17" x2="-7" y1="12" y2="12" gradientTransform="translate(-12,12)" gradientUnits="userSpaceOnUse" xlink:href="#b"/><radialGradient id="f" cx="-12" cy="12" r="4" gradientTransform="translate(-12,12)" gradientUnits="userSpaceOnUse" xlink:href="#a"/><linearGradient id="k" x1="-17" x2="-7" y1="12" y2="12" gradientTransform="translate(36,12)" gradientUnits="userSpaceOnUse" xlink:href="#c"/><linearGradient id="j" x1="-17" x2="-7" y1="12" y2="12" gradientTransform="translate(-24,24)" gradientUnits="userSpaceOnUse" xlink:href="#b"/><radialGradient id="e" cx="-12" cy="12" r="4" gradientTransform="translate(-24,24)" gradientUnits="userSpaceOnUse" xlink:href="#a"/><linearGradient id="i" x1="-17" x2="-7" y1="12" y2="12" gradientTransform="translate(48,24)" gradientUnits="userSpaceOnUse" xlink:href="#c"/></defs><rect x="4" y="4" width="40" height="40" rx="2" ry="2" fill="url(#h)"/><path d="m4 41v1c0 1.108 0.892 2 2 2h36c1.108 0 2-0.892 2-2v-1c0 1.108-0.892 2-2 2h-36c-1.108 0-2-0.892-2-2z" fill="#000" opacity=".15"/><rect transform="rotate(-90)" x="-16" y="8" width="8" height="8" rx="4" ry="4" fill="none" opacity=".1" stroke="url(#g)" stroke-miterlimit="4" stroke-width="2"/><rect transform="rotate(-90)" x="-16" y="8" width="8" height="8" rx="4" ry="4" fill="url(#d)"/><rect transform="matrix(0,1,1,0,0,0)" x="8" y="8" width="8" height="8" rx="4" ry="4" fill="none" opacity=".1" stroke="url(#m)" stroke-miterlimit="4" stroke-width="2"/><rect transform="rotate(-90)" x="-28" y="20" width="8" height="8" rx="4" ry="4" fill="none" opacity=".1" stroke="url(#l)" stroke-miterlimit="4" stroke-width="2"/><rect transform="rotate(-90)" x="-28" y="20" width="8" height="8" rx="4" ry="4" fill="url(#f)"/><rect transform="matrix(0,1,1,0,0,0)" x="20" y="20" width="8" height="8" rx="4" ry="4" fill="none" opacity=".1" stroke="url(#k)" stroke-miterlimit="4" stroke-width="2"/><rect transform="rotate(-90)" x="-40" y="32" width="8" height="8" rx="4" ry="4" fill="none" opacity=".1" stroke="url(#j)" stroke-miterlimit="4" stroke-width="2"/><rect transform="rotate(-90)" x="-40" y="32" width="8" height="8" rx="4" ry="4" fill="url(#e)"/><rect transform="matrix(0,1,1,0,0,0)" x="32" y="32" width="8" height="8" rx="4" ry="4" fill="none" opacity=".1" stroke="url(#i)" stroke-miterlimit="4" stroke-width="2"/></svg>
