<?xml version="1.0" encoding="UTF-8"?>
<svg id="bm" width="128" height="128" version="1.0" viewBox="15.584 -296.36 480 347.3" xml:space="preserve" xmlns="http://www.w3.org/2000/svg" xmlns:xlink="http://www.w3.org/1999/xlink"><defs id="bn"><linearGradient id="b"><stop id="bo" stop-color="#f70000" offset="0"/><stop id="bp" stop-color="#7c0000" offset="1"/></linearGradient><filter id="bi"><feGaussianBlur id="bq" stdDeviation="8.3447749"/></filter><radialGradient id="bg" cx="81.471" cy="-347.54" r="240" gradientTransform="matrix(1.7649 1.6856 -1.7648 1.9327 -661.95 319.15)" gradientUnits="userSpaceOnUse"><stop id="br" stop-color="#a7a7a7" offset="0"/><stop id="bs" stop-color="#fff" offset=".5"/><stop id="bt" stop-color="#adadad" offset=".54056"/><stop id="bu" stop-color="#f0f0f0" offset=".72974"/><stop id="bv" stop-color="#dcdcdc" offset="1"/></radialGradient><linearGradient id="a" x1="330.88" x2="167.35" y1="-114.17" y2="-173" gradientTransform="translate(0 14.118)" gradientUnits="userSpaceOnUse" xlink:href="#b"/><filter id="be" x="-10.266" y="-.75904" width="21.532" height="2.5181"><feGaussianBlur id="bw" stdDeviation="3.764281"/></filter><filter id="bd" x="-1.549" y="-2.2828" width="4.098" height="5.5656"><feGaussianBlur id="bx" stdDeviation="3.764281"/></filter><filter id="bc" x="-.58569" y="-.35159" width="2.1714" height="1.7032"><feGaussianBlur id="by" stdDeviation="3.764281"/></filter><filter id="bb" x="-.30878" y="-.23898" width="1.6176" height="1.478"><feGaussianBlur id="bz" stdDeviation="3.764281"/></filter><filter id="ba" x="-.59168" y="-3.3025" width="2.1834" height="7.605"><feGaussianBlur id="ca" stdDeviation="3.764281"/></filter><filter id="az"><feGaussianBlur id="cb" stdDeviation="3.764281"/></filter><filter id="ay" x="-.96212" y="-.189" width="2.9242" height="1.378"><feGaussianBlur id="cc" stdDeviation="3.764281"/></filter><filter id="ax" x="-.092398" y="-.11066" width="1.1848" height="1.2213"><feGaussianBlur id="cd" stdDeviation="3.764281"/></filter><filter id="aw" x="-1.0274" y="-.43139" width="3.0547" height="1.8628"><feGaussianBlur id="ce" stdDeviation="3.764281"/></filter><filter id="av" x="-.066594" y="-.2544" width="1.1332" height="1.5088"><feGaussianBlur id="cf" stdDeviation="3.764281"/></filter><filter id="au" x="-.91292" y="-.6174" width="2.8258" height="2.2348"><feGaussianBlur id="cg" stdDeviation="3.764281"/></filter><filter id="at" x="-.057045" y="-.34677" width="1.1141" height="1.6935"><feGaussianBlur id="ch" stdDeviation="3.764281"/></filter><filter id="as" x="-.14579" y="-.38672" width="1.2916" height="1.7734"><feGaussianBlur id="ci" stdDeviation="3.764281"/></filter><filter id="ar" x="-.10753" y="-.30931" width="1.2151" height="1.6186"><feGaussianBlur id="cj" stdDeviation="3.764281"/></filter><filter id="aq" x="-.22819" y="-.45619" width="1.4564" height="1.9124"><feGaussianBlur id="ck" stdDeviation="3.764281"/></filter><filter id="ap" x="-.038323" y="-.13609" width="1.0766" height="1.2722"><feGaussianBlur id="cl" stdDeviation="3.764281"/></filter><filter id="ao" x="-.37505" y="-.18851" width="1.7501" height="1.377"><feGaussianBlur id="cm" stdDeviation="3.764281"/></filter><filter id="an" x="-1.0478" y="-1.1382" width="3.0956" height="3.2764"><feGaussianBlur id="cn" stdDeviation="3.764281"/></filter><filter id="am" x="-.14168" y="-.242" width="1.2834" height="1.484"><feGaussianBlur id="co" stdDeviation="3.764281"/></filter><filter id="al" x="-.26794" y="-.32772" width="1.5359" height="1.6554"><feGaussianBlur id="cp" stdDeviation="3.764281"/></filter><filter id="ak" x="-.17092" y="-.20327" width="1.3418" height="1.4065"><feGaussianBlur id="cq" stdDeviation="3.764281"/></filter><filter id="aj" x="-.22988" y="-.20814" width="1.4598" height="1.4163"><feGaussianBlur id="cr" stdDeviation="3.764281"/></filter><filter id="ai" x="-.67639" y="-.74587" width="2.3528" height="2.4917"><feGaussianBlur id="cs" stdDeviation="3.764281"/></filter><filter id="ah"><feGaussianBlur id="ct" stdDeviation="3.764281"/></filter><filter id="ag" x="-.63599" y="-.39498" width="2.272" height="1.79"><feGaussianBlur id="cu" stdDeviation="3.764281"/></filter><filter id="af" x="-1.7066" y="-.39997" width="4.4132" height="1.7999"><feGaussianBlur id="cv" stdDeviation="3.764281"/></filter><filter id="ae" x="-.43952" y="-.56287" width="1.879" height="2.1257"><feGaussianBlur id="cw" stdDeviation="3.764281"/></filter><filter id="ad" x="-.19911" y="-.15263" width="1.3982" height="1.3053"><feGaussianBlur id="cx" stdDeviation="3.764281"/></filter><filter id="ac" x="-.88227" y="-.43824" width="2.7645" height="1.8765"><feGaussianBlur id="cy" stdDeviation="3.764281"/></filter><filter id="ab" x="-.12719" y="-.060416" width="1.2544" height="1.1208"><feGaussianBlur id="cz" stdDeviation="3.764281"/></filter><filter id="aa" x="-1.4429" y="-1.6476" width="3.8858" height="4.2953"><feGaussianBlur id="da" stdDeviation="3.764281"/></filter><filter id="z" x="-.37693" y="-.58442" width="1.7539" height="2.1688"><feGaussianBlur id="db" stdDeviation="3.764281"/></filter><filter id="y" x="-1.3672" y="-1.0845" width="3.7343" height="3.1691"><feGaussianBlur id="dc" stdDeviation="3.764281"/></filter><filter id="x"><feGaussianBlur id="dd" stdDeviation="3.764281"/></filter><filter id="w" x="-.53534" y="-.4753" width="2.0707" height="1.9506"><feGaussianBlur id="de" stdDeviation="3.764281"/></filter><filter id="v" x="-.71736" y="-.32299" width="2.4347" height="1.646"><feGaussianBlur id="df" stdDeviation="3.764281"/></filter><filter id="u" x="-.1856" y="-.11813" width="1.3712" height="1.2363"><feGaussianBlur id="dg" stdDeviation="3.764281"/></filter><filter id="t" x="-1.5097" y="-1.7149" width="4.0195" height="4.4298"><feGaussianBlur id="dh" stdDeviation="3.764281"/></filter><filter id="s" x="-.75274" y="-.58513" width="2.5055" height="2.1703"><feGaussianBlur id="di" stdDeviation="3.764281"/></filter><filter id="r" x="-.42845" y="-.39989" width="1.8569" height="1.7998"><feGaussianBlur id="dj" stdDeviation="3.764281"/></filter><filter id="q" x="-.1074" y="-.05697" width="1.2148" height="1.1139"><feGaussianBlur id="dk" stdDeviation="3.764281"/></filter><filter id="p" x="-.45422" y="-.68495" width="1.9084" height="2.3699"><feGaussianBlur id="dl" stdDeviation="3.764281"/></filter><filter id="o" x="-1.0209" y="-1.9948" width="3.0417" height="4.9896"><feGaussianBlur id="dm" stdDeviation="3.764281"/></filter><filter id="n" x="-.19898" y="-.30909" width="1.398" height="1.6182"><feGaussianBlur id="dn" stdDeviation="3.764281"/></filter><filter id="m" x="-.15697" y="-.2563" width="1.3139" height="1.5126"><feGaussianBlur id="do" stdDeviation="3.764281"/></filter><filter id="l" x="-.36863" y="-.73528" width="1.7373" height="2.4706"><feGaussianBlur id="dp" stdDeviation="3.764281"/></filter><filter id="k" x="-.076702" y="-.21131" width="1.1534" height="1.4226"><feGaussianBlur id="dq" stdDeviation="3.764281"/></filter><filter id="j"><feGaussianBlur id="dr" stdDeviation="3.764281"/></filter><filter id="i" x="-1.3509" y="-2.3748" width="3.7019" height="5.7496"><feGaussianBlur id="ds" stdDeviation="3.764281"/></filter><filter id="h" x="-.18344" y="-.14976" width="1.3669" height="1.2995"><feGaussianBlur id="dt" stdDeviation="3.764281"/></filter><filter id="g"><feGaussianBlur id="du" stdDeviation="3.764281"/></filter><filter id="f" x="-.13833" y="-.092125" width="1.2767" height="1.1843"><feGaussianBlur id="dv" stdDeviation="3.764281"/></filter><filter id="e" x="-.10954" y="-.081924" width="1.2191" height="1.1638"><feGaussianBlur id="dw" stdDeviation="3.764281"/></filter><filter id="d"><feGaussianBlur id="dx" stdDeviation="3.764281"/></filter><filter id="c"><feGaussianBlur id="dy" stdDeviation="3.764281"/></filter><clipPath id="bl"><use id="dz" transform="matrix(1 0 0 1.0366 -534.12 3.1026)" width="480" height="347.30399" xlink:href="#XMLID_5_"/></clipPath><clipPath id="bk"><path id="ea" d="m-173.83-150.94c0 68.426-61.047 121.18-120.59 121.18-51.304 0-87.647-37.445-87.647-95.294 0-51.304 47.497-125.29 115.88-125.29 59.542 0 92.353 48.108 92.353 99.412z" fill="url(#bh)" opacity=".89219"/></clipPath><linearGradient id="bh" x1="330.88" x2="167.35" y1="-114.17" y2="-173" gradientTransform="translate(-534.12 14.118)" gradientUnits="userSpaceOnUse" xlink:href="#b"/><clipPath id="bj"><path id="eb" d="m360.29-150.94c0 68.426-61.047 121.18-120.59 121.18-51.304 0-87.647-37.445-87.647-95.294 0-51.304 47.497-125.29 115.88-125.29 59.542 0 92.353 48.108 92.353 99.412z" fill="url(#a)" opacity=".89219"/></clipPath><radialGradient id="bf" cx="257.24" cy="-52.011" r="240" gradientTransform="matrix(1.9351 0 0 .70235 -278.23 -37.099)" gradientUnits="userSpaceOnUse"><stop id="ec" offset="0"/><stop id="ed" offset=".5"/><stop id="ee" stop-opacity="0" offset="1"/></radialGradient></defs>
<path id="ef" transform="matrix(.98125 0 0 .95022 3.2922 23.899)" d="m46.417-293.2 421.84 13.991 27.328 301.13c-158.8-33.021-318.8 40.121-480 17.628l30.833-332.75z" fill="url(#bf)" filter="url(#bi)" opacity=".7"/><path id="eg" d="m42.595-299.44c141.89 52.537 283.77-39.745 425.66 14.503 9.109 104.05 18.219 208.1 27.328 312.15-160-49.63-320 65.975-480 18.273 9.004-114.98 18.007-229.95 27.011-344.93z" fill="url(#bg)"/>
				
			<g id="eh" transform="translate(534.12)" clip-path="url(#bl)" fill="#151515" fill-opacity=".27984" opacity=".13383"><path id="ei" d="m-286.7-158.85c-8.421 24.903-18.622 48.872-41.342 62.671-1.225-34.345 32.919-44.064 31.046-74.597-1.56-4.6067-10.453-0.83342-7.929-10.116-7.118 3.9266-16.872 5.5562-24.106 9.2921-8.164 9.5243-7.303 19.701-8.643 31-1.38 11.736-11.494 24.611-6.638 37.657-30.225 8.7417-50.364-13.849-49.625-44.086 0.248-10.983 7.04-25.966 2.475-32.716-13.629-8.2057-22.664-13.033-22.383-32.743 0.475-21.641 35.422-56.613 42.083-70.332-39.924 1.6596-79.847-1.6575-119.77-16.438-0.093 1.188-6.515 83.211-6.701 85.589 21.508 3.3348 27.419-16.019 29.23-38.606 19.569 9.9244 25.238 23.084 31.812 42.453-8.08 7.0624-8.39 17.006-7.106 31.074 3.231 36.061 21.328 57.803 30.733 81.244-24.109-7.958-25.859-12.04-40.267-34.506-11.125-17.906-14.944-41.821-32.392-55.944-6.291-0.31409-8.639 4.9995-13.38 6.7773 5.463 12.613 8.339 34.834-3.148 40.415-0.387-0.1275-0.774-0.25604-1.161-0.38561-0.249 3.1699-0.497 6.3409-0.745 9.5108 0.135-0.03629 0.26-0.08604 0.394-0.12543-2.135 3.8665-4.16 13.263-5.066 24.68-0.841 10.604-0.487 20.21 0.749 25.566-0.616 7.8626-1.231 15.725-1.847 23.588 0.398 0.12543 0.796 0.25189 1.195 0.37525 1.578-2.1665 0.835-7.6004 4.223-7.223 6.656 5.1944 15.844 11.506 24.702 10.913 17.543 11.169 28.946 35.481 57.456 26.642-3.491-15.881-27.527-13.965-30.703-31.029 17.774 1.444 38.308 7.5631 49.34 16.58 14.363 1.6523 24.575-2.7791 39.521-4.504 2.537 2.0991-0.694 3.3773-0.206 6.9473 24.142-16.159 36.429-34.21 60.401-60.884 7.093-7.9248 15.095-14.476 25.89-25.002 6.549-6.3958 23.608-21.966 23.157-27.681-0.793-10.42-20.839-11.857-31.248-6.0548z" filter="url(#c)" opacity=".71243"/><path id="ej" d="m-393.89-282.46c16.091 0.16171 32.182-0.68001 48.273-2.1002-1.055 22.312 12.767 36.869 6.378 58.028 0.808 6.6073 10.411 3.3316 11.01 10.14-3.393 7.4397-13.129 9.0962-19.44 13.794-2.791 2.5905 1.749 5.2919-1.337 8.2037-13.967 6.5969-18.758 12.174-26.868 24.337-2.761 4.134-7.817 8.0212-9.551 11.014-13.531 23.201 9.135 52.5 29.532 51.829 5.875-13.923 1.245-29.23 5.771-43.302 1.38-4.2874 7.469-14.136 10.754-18.567 14.353-19.146 46.445-35.171 68.605-53.478 8.823-7.2479 13.715-18.924 24.645-16.024 1.685 11.388-9.025 12.352-13.335 18.814 0.086 16.841-15.965 30.026-19.179 48.234 12.256 4.39 22.155 11.515 35.891 14.441-30.397 51.576-73.665 97.499-115.69 143.53 16.593-4.5548 35.644-17.087 48.619-28.649 6.827-6.0828 7.672-14.688 13.322-20.676 3.507-3.7183 12.848-7.5734 17.901-11.289 16.768-12.3 31.043-32.518 50.757-31.427 2.31 3.1108 4.199 6.7037 6.14 10.244 1.675-1.7322 2.871-5.5437 5.876-3.1026-0.633 8.693 1.597 14.21 4.051 19.505-2.383 16.857-11.003 29.743-15.955 42.763-8.803 23.135-14.227 46.113-27.309 66.957-3.3 0.67068-6.599 1.3507-9.896 2.0338 14.98-16.109 22.065-48.418 31.096-71.29 3.228-8.1581 9.404-18.504 9.227-23.971-0.28-8.7386-9.359-12.868-11.136-19.445-8.995 1.2844-5.241 12.264-11.745 15.526-12.475-0.70178-27.448-1.9561-38.26 0.35037-13.959 2.9699-10.236 11.423-15.642 19.978-3 4.7404-7.827 6.825-12.085 9.0734-16.389 8.6173-34.348 28.439-56.029 30.642 44.32-45.382 83.995-95.962 118.69-146.09-5.935-11.043-20.305-12.289-34.727-13.42-2.383-16.86 10.76-26.499 3.482-37.969-28.671 11.879-52.783 27.42-63.511 55.06 3.072 15.896-7.317 27.682-3.417 45.292-34.384 6.6374-52.803-36.538-34.814-68.439 1.396-6.2839-3.992-5.6008-2.976-11.498 4.206-3.7546 12.259 4.729 15.972-2.068-20.68-4.4377-44.65-1.7436-45.244-27.213-0.297-14.73 12.986-59.6 22.151-69.771m3.29 53.713c-26.768-21.441-31.073 52.331 3.194 32.552 4.597-14.36 0.167-21.236-3.194-32.552z" filter="url(#d)" opacity=".71243"/><path id="ek" d="m-46.352-62.075c-3.698-5.127-5.776-1.1859-10.684-2.2152-1.042 5.7075-2.599 10.858-5.88 14.252-2.801-0.35244-4.391 0.59812-8.351-0.87697-6.447 1.9882-1.407 15.73-9.501 16.274-4.887-3.4934-12.405-4.644-13.938-10.603-4.751-1.5881-4.702 3.6478-8.396 0.1586-0.608-5.5945-4.544-8.3177-4.529-14.433-6.089-1.557-0.347 7.8201-8.098 4.8254-5.741-5.1675-7.624-13.761-13.099-19.007 7.094-6.8271 14.537-12.873 16.405-24.022 3.272-1.0522 7.236-0.63751 10.683 1.1112 2.615-0.81581-7e-3 -6.7555 0.53-9.6041 12.019-18.694 24.933-35.975 47.605-38.703 0.095 1.0781 7.253 82.843 7.253 82.843zm-60.214 0.4955c2.104-4.1744 8.672-3.9609 6.348-12.267-8.805-9.715-12.979 7.3609-6.348 12.267z" filter="url(#e)" opacity=".71243"/><path id="el" d="m-53.321-141.69c0.125 1.4346 6.373 72.8 6.499 74.233-3.731-3.9702-6.8-1.2595-11.946-3.6333-3.216 3.993-3.687 11.018-6.987 15.07-4.04 0.9402-12.31-2.2857-15.391-0.026952-0.1 3.9038 1.738 9.7472-0.332 11.677-5.771-0.48409-10.036-1.953-11.183-5.9802 4.802-16.01-5.061-31.174-19.147-37.6 0.01-3.0497-1.488-7.5434 1.898-7.3868 6.105 0.074636 6.286 5.2462 13.29 4.7611-4.439-25.575 14.992-41.054 32.133-49.454 3.1-1.5497 6.46-3.4965 11.166-1.6606z" filter="url(#f)" opacity=".71243"/><path id="em" d="m-503.92-141.15c0.28-3.567 3.972-50.723 4.655-59.441 3.686 2.6464 14.833 6.6011 18.581 4.9757 21.91 41.45 26.53 66.629 62.807 93.237-7.856-26.252-25.083-44.517-27.635-78.489-0.967-12.677 0.715-25.391 7.146-31.544-7.085-14.406-9.253-20.085-22.705-29.825-1.375 27.168-16.568 41.76-38.024 39.485 0.124-1.585 0.73-9.3294 0.855-10.914 21.508 3.3337 27.42-16.019 29.23-38.606 19.558 10.071 31.436 24.201 38.068 43.299-8.06 7.2199-9.896 17.119-8.593 31.142 3.191 36.275 32.039 73.665 41.739 96.227-12.2-3.1647-35.897-16.423-57.618-31.319-21.779-14.405-41.58-30.448-47.345-27.838-0.387-0.13061-0.774-0.26019-1.161-0.38873z" filter="url(#g)" opacity=".71243"/><path id="en" d="m-278.69-292.66c2.559-0.35141 5.12-0.70178 7.68-1.0511-0.521 4.0821 7.552 3.9546 6.582-0.89045 2.195-0.29439 4.39-0.58671 6.583-0.87593-1.379 10.305-4.911 18.78-4.178 30.996-7.691 11.761-23.711 19.707-36.725 17.778 0.104 2.8911 3.724 1.7197 6.682 1.303-0.422 5.3333-3.844 8.0575-7.884 10.249-12.148-6.0652-6.255-12.238-0.947-21.488 7.634-13.295 14.041-27.685 22.207-36.021z" filter="url(#h)" opacity=".71243"/><path id="eo" d="m-271.01-293.71c2.193-0.29855 4.387-0.59605 6.582-0.89045 0.972 4.8461-7.102 4.9726-6.582 0.89045z" filter="url(#i)" opacity=".71243"/><path id="ep" d="m-147.04-301.84c0.73 0.11506 17.348 0.89666 33.782 4.0293 16.435 2.7543 32.686 7.8595 32.686 7.9259 4.947 2.0297 9.896 4.221 14.85 6.5866 0 0 2.445 27.932 2.603 29.727-11.718-2.6475-20.861-1.188-29.189 1.6295-1.022 20.292-0.113 39.922-15.541 47.131-10.749-4.0915-17.872-11.136-32.299-10.73 4.347 6.8768 14.808 11.324 24.884 18.319 7.999 5.4276 21.858 14.139 26.338 20.391 10.224 13.861-11.747 34.191-18.721 44.029-8.196 11.485-13.756 50.643-38.873 40.468-6.557-2.6444-17.215-20.009-18.927-24.598-2.945-7.8274-2.768-16.964-0.985-23.06 3.602-12.365 20.32-19.831 19.425-32.155-0.357-4.9902-8.208-13.206-12.46-19.686-8.645-13.196-15.694-21.118-25.2-29.866 0.012-7.504 7.769-7.4501 14.486-6.1491 12.798-5.6806 24.73-11.145 26.834-25.923 6.062-1.9654 9.756-6.1978 18.609-4.9228-23.948-8.8557-57.596 3.7743-61.016-22.58 7.329-12.97 31.014-9.5917 38.714-20.565zm19.784 20.197c7.567 1.4316 10.629-1.615 11.583-6.9743-0.314-1.2543-1.333-1.8866-2.346-2.52-4.485 1.5663-8.968 3.3244-9.237 9.4942z" filter="url(#j)" opacity=".71243"/><path id="eq" d="m-65.849-284.78c0.219 2.5106 2.04 23.31 2.261 25.821-19.24-2.437-44.988 5.6184-69.403-8.1684 6.789-9.6663 22.503-8.9998 21.358-26.153-17.924-4.3257-18.411 10.717-29.747 14.631-1.083 4.8824 4.948 6.3865 1.654 9.8882-16.849 0.50276-40.843 8.0389-41.646-13.792 20.403-0.19178 31.904-7.3588 38.724-18.986 25.599 1.9571 51.199 6.9743 76.799 16.761z" filter="url(#k)" opacity=".71243"/><path id="er" d="m-133.87-300.74c5.487 0.57428 10.972 1.2978 16.458 2.1883-9.581 1.443-15.326 7.3692-24.508 10.099 1.419-5.4401 5.574-8.0513 8.05-12.287z" filter="url(#l)" opacity=".71243"/><path id="es" d="m-65.756-283.7c-2.344-0.36384-6.879 0-7.774-3.8717-4.022-1.3901-8.045-2.6672-12.067-3.8375 0.862 4.2667-3.617 2.2608-5.071 3.8665 0.335 0.84172-1.225 2.1934-2.862 3.5939 0.024-1.2885-0.104-2.7511-0.436-4.447-2.838-1.955-5.11-4.3133-6.99-6.9763-2.926-0.66135-5.852-1.2698-8.777-1.8296 9.553 18.571-9.385 20.236-12.068 32.396 25.331 7.2572 40.406-1.6119 57.555-1.6824-0.096-1.0739-1.416-16.136-1.51-17.212z" filter="url(#m)" opacity=".71243"/><path id="et" d="m-100.96-295.37c5.118 1.1568 10.239 2.4723 15.359 3.9619 0.862 4.2667-3.617 2.2608-5.071 3.8665 0.696 1.7488 1.839 3.1564 2.535 4.9104 9.417 2.4982 15.436 1.4388 22.661 2.1592 0.125 1.4336 0.251 2.8693 0.376 4.3029-6.215 0.52556-12.646 1.162-17.943 3.4125 4.965 2.1934 12.295-0.91014 18.226-0.18555 0.095 1.076 0.189 2.152 0.283 3.228-13.769-0.20007-26.741 7.1246-45.403 1.3486 4.812-7.6698 19.123-4.022 15.967-20.03-2.838-1.9519-5.11-4.3112-6.99-6.9743z" filter="url(#n)" opacity=".71243"/><path id="eu" d="m-167.91-278.41c0.963 4.8171-7.2 6.0382-8.771 2.3261 1.029-2.5728 4.998-2.3925 8.771-2.3261z" filter="url(#o)" opacity=".71243"/><path id="ev" d="m-154.64-256.39c0.217 5.9138-9.713 10.803-17.322 13.19-0.976-2.4205-2.537-4.219-2.564-7.6294 4.33-4.1609 13.094-4.079 19.886-5.5603z" filter="url(#p)" opacity=".71243"/><path id="ew" d="m-109.2-208.24c-12.076-5.3437-25.61-14.568-41.325-10.929 10.417 16.748 69.275 32.128 57.491 63.896-3.473 8.8329-15.07 16.592-21.222 28.232-6.408 12.108-6.495 26.467-18.099 32.57-15.944-0.8127-30.689-23.912-30.224-38.001 0.665-19.96 27.971-30.103 15.023-50.611-8.886-14.338-23.739-21.898-28.046-39.085 17.537-3.2736 23.916-16.009 37.282-21.531-0.27-14.258 20.883-8.6556 30.768-6.0631 17.897 13.906 11.869 35.36-1.648 41.522z" filter="url(#q)" opacity=".71243"/><path id="ex" d="m-58.879-205.16c0.659 7.5309 1.318 15.062 1.978 22.592-9.734-1.7322-19.618 0.4136-21.086-12.854 9.15-0.40324 11.736-8.016 19.108-9.7378z" filter="url(#r)" opacity=".71243"/><path id="ey" d="m-213.49-194.69c-2.957 5.5147-4.703 12.05-11.151 14.794-3.15-5.9542 2.866-18.405 11.151-14.794z" filter="url(#s)" opacity=".71243"/><path id="ez" d="m-128.33-187.69c-3.725 0.01451-5.596-1.6461-5.984-4.7259 2.179-1.9291 5.401 1.6793 5.984 4.7259z" filter="url(#t)" opacity=".71243"/><path id="fa" d="m-52.944-137.39c0.533 6.0963 5.181 59.171 5.745 65.628-19.824-7.362-16.049 12.034-31.944 10.753-8.013-4.5258-12.339-11.658-16.733-18.739 6.558-7.6812 0.263-16.818 0.58-25.647 0.707-18.43 28.157-32.85 42.352-31.996z" filter="url(#u)" opacity=".71243"/><path id="fb" d="m-51.343-119.09c0.815 9.3232 1.632 18.646 2.448 27.971-14.183-10.277-18.236-27.529-2.448-27.971z" filter="url(#v)" opacity=".71243"/><path id="fc" d="m-121.31-127.61c0.05 10.137-4.006 24.392-16.681 16.693-1.097-6.175 2.582-8.1021 7.779-8.5012-0.376-5.8485 2.258-8.9832 8.902-8.1923z" filter="url(#w)" opacity=".71243"/><path id="fd" d="m-393.89-282.46c14.993 0.15031 29.988-0.57013 44.982-1.8182-0.232 17.927 15.087 38.44 4.173 53.745-5.221 1.2128-6.719-0.90703-10.078 0.97648-0.719 11.27 9.421 10.625 10.704 19.664-6.753 5.6422-22.245 12.443-31.763 7.3516 1.694-3.5068 5.667-4.7404 5.96-9.6487-10.688-12.642-13.88-33.082-28.508-42.245-9.329 10.155-17.96 27.014-17.622 41.739 0.594 25.471 24.563 22.777 45.245 27.213-3.713 6.798-11.767-1.6855-15.972 2.068-1.016 5.8972 4.372 5.2152 2.976 11.498-17.989 31.9 0.43 75.078 34.814 68.438-3.9-17.609 6.487-29.394 3.417-45.291 10.728-27.64 34.839-43.181 63.511-55.06 7.278 11.469-5.865 21.109-3.482 37.969 14.423 1.1299 28.792 2.3769 34.727 13.42-34.697 50.136-74.372 100.72-118.69 146.1 21.682-2.2028 39.641-22.022 56.029-30.642 4.259-2.2463 9.085-4.332 12.085-9.0723 5.406-8.5551 1.683-17.008 15.642-19.978 10.813-2.3064 25.786-1.0522 38.26-0.35141 6.505-3.2612 2.75-14.24 11.746-15.525 1.775 6.5762 10.855 10.707 11.135 19.446 0.178 5.467-6.001 15.813-9.227 23.97-9.031 22.873-16.115 55.183-31.096 71.29-9.485 1.9654-18.971 3.9671-28.455 5.9366-0.019-3.8821-30.155-0.93916-62.431 2.2391-32.299 3.6468-66.739 7.5299-75.919 16.322-9.485 0.14098-31.173-0.47165-50.49-3.6706-19.317-2.7895-36.263-8.1653-36.263-8.1145 0 0 2.368-30.925 2.555-33.303 7.809-1.87 18.906 0.05805 24.088-5.9066-2.74-7.2873-7.274-22.502-1.267-34.019-5.714-8.6069-11.646-9.3989-19.191-6.4363 0.62-7.9259 1.241-15.851 1.862-23.778 0.398 0.12646 0.796 0.25189 1.195 0.37629 1.578-2.1686 0.835-7.6014 4.224-7.2241 6.656 5.1944 15.845 11.506 24.702 10.914 17.543 11.169 28.948 35.481 57.458 26.641-3.49-15.881-27.526-13.965-30.702-31.029 17.774 1.443 38.308 7.5631 49.34 16.58 14.363 1.6513 24.574-2.7791 39.521-4.504 2.538 2.1012-0.694 3.3783-0.205 6.9473 24.143-16.159 36.43-34.21 60.401-60.883 7.093-7.9259 15.095-14.476 25.891-25.003 6.548-6.3958 23.608-21.966 23.156-27.681-0.795-10.42-20.84-11.857-31.249-6.0538-8.422 24.903-18.622 48.872-41.343 62.671-1.225-34.345 32.919-44.064 31.046-74.596-1.56-4.6077-10.452-0.83447-7.929-10.117-7.119 3.9266-16.872 5.5572-24.106 9.2921-8.165 9.5243-7.303 19.703-8.643 31-1.379 11.735-11.494 24.611-6.638 37.656-30.225 8.7417-50.364-13.848-49.625-44.085 0.249-10.983 7.04-25.966 2.474-32.716-13.634-8.1322-27.149-13.265-26.83-33.052 0.419-21.953 17.552-56.478 24.406-69.655z" filter="url(#x)" opacity=".71243"/><path id="fe" d="m-43.997-35.178c0.157 1.7933 0.314 3.5856 0.472 5.3789-3.747-1.8586-6.398-4.2978-6.608-8.3301 2.773 0.49239 4.655 1.5953 6.136 2.9512z" filter="url(#y)" opacity=".71243"/><path id="ff" d="m-152.42-13.169c-1.249 5.8682-16.682 4.2107-21.959 3.9588-9.966-21.696 20.301-17.121 21.959-3.9588z" filter="url(#z)" opacity=".71243"/><path id="fg" d="m-120.18 14.62c-2.062-0.037317-4.122-0.057013-6.186-0.059086-0.496-3.8779 1.463-5.7169 5.873-5.3862 0.105 1.8161 0.208 3.6291 0.313 5.4453z" filter="url(#aa)" opacity=".71243"/><path id="fh" d="m-109.49-212.57c-13.563-7.0136-40.794-17.262-51.138-4.4688 5.172 5.8682 6.138 15.891 16.749 16.59 3.965-1.5487-7.26-8.0015-1.54-7.6781 17.515 9.2185 50.439 22.009 49.833 49.199-0.26 10.8-12.964 19.681-17.772 27.662-3.535 5.8153-8.716 28.68-15.799 30.367-17.704 4.2853-30.103-24.705-25.736-42.776 2.156-8.9645 13.429-21.74 13.724-27.27 1.109-21.31-28.488-27.859-25.18-47.108 1.767-10.709 25.058-15.747 34.83-24.042 2.59-2.265 4.229-7.3848 7.325-7.9124 27.234 0.81062 31.055 31.106 14.704 37.438z" filter="url(#ab)" opacity=".71243"/><path id="fi" d="m-138.24-180.65c12.523 3.598 8.932 19.968-2.351 20.615 1.427-6.2932 0.861-14.421 2.351-20.615z" filter="url(#ac)" opacity=".71243"/><path id="fj" d="m-347.89-238.27c-7.63 1.6617-9.137-3.4467-14.335-4.5465-1.784 4.5714 2.473 12.252 0.48 20.778-16.797-1.9105-16.323-21.986-24.341-35.932-2.638-4.6212-6.553-7.6667-6.103-12.786 1.149-12.912 16.664-12.364 25.535-6.5119 5.679 3.7846 4.457 9.1688 8.249 17.985 3.178 7.4407 15.104 12.191 10.515 21.014zm-38.556-38.348c-1.021 5.155 3.373 4.7321 4.083 8.0886" filter="url(#ad)" opacity=".71243"/><path id="fk" d="m-366.04-262.24c-4.353 0.95782-7.354-8.2907-16.319-6.288-0.71-3.3565-5.104-2.9346-4.083-8.0886 9.763-5.8164 18.207 5.3883 20.402 14.377z" filter="url(#ae)" opacity=".71243"/><path id="fl" d="m-501.31-174.44c5.093 5.7511 4.805 21.048-1.769 22.588 0.589-7.5288 1.179-15.057 1.769-22.588z" filter="url(#af)" opacity=".71243"/><path id="fm" d="m-301.85-138.13c-1.757 10.023-6.982 17.259-14.205 22.873 0.845-10.121 7.739-21.292 14.205-22.873z" filter="url(#ag)" opacity=".71243"/><path id="fn" d="m-499.26-200.59c0.217-2.774 0.435-5.5489 0.651-8.3218 21.399 2.2028 33.513-11.345 34.93-38.497 13.402 10.007 21.103 23.749 28.229 37.995-6.428 6.2238-9.475 16.043-8.503 28.707 2.479 34.251 30.044 68.016 38.159 93.551-39.897-19.505-54.635-66.235-76.408-108.16-3.751 1.5839-13.372-2.6527-17.058-5.2742zm28.762 20.197c4.547 13.061 12.822 32.309 19.343 42.781 7.642 12.396 17.797 24.609 27.645 28.154-9.067-29.871-38.292-68.536-17.372-104.14-6.767-7.5838-11.055-17.4-18.881-24.57-2.913 22.681-18.061 36.669-10.735 57.773z" filter="url(#ah)" opacity=".71243"/><path id="fo" d="m-251.29-87.083c-0.129 2.0411 1.48 2.1105 1.235 4.2812-5.495 2.52-6.202 4.0386-11.852 7.7828-4.387-6.0009 1.525-12.751 10.617-12.064z" filter="url(#ai)" opacity=".71243"/><path id="fp" d="m-332.23-60.023c1.159-0.15549 0.898 1.2553 1.149 2.1043-0.81 5.9449-7.136 7.4086-10.938 10.906-6.022 12.965-13.098 25.29-28.362 30.383 6.836-19.423 25.223-29 38.151-43.393z" filter="url(#aj)" opacity=".71243"/><path id="fq" d="m-244.99-58.963c-1.308 8.3187 1.15 13.933-4.591 19.964-8.285 0.963-12.477 4.9809-16.88 8.8671 0.016 3.3855 0.032 6.769 0.048 10.156-13.746 2.6931-17.396-5.9905-29.083-5.6018-4.586-7.7279-1.05-20.763-1.022-31.619 15.267-10.69 40.037-6.5078 51.528-1.7653z" filter="url(#ak)" opacity=".71243"/><path id="fr" d="m-282.19-33.846c-7.555 1.3725-15.446-17.63-8.353-24.478 7.018-6.7804 20.625-0.018659 29.941-0.017622 5.751 13.553-14.749 16.461-21.588 24.496z" filter="url(#al)" opacity=".71243"/><path id="fs" d="m-392.48-36.524c-3 8.1239 1.697 17.24 5.051 25.148-13.248 16.555-58.975 17.473-63.767-5.1498 9.789-5.1301 30.152-0.004147 37.851-8.4825 0.125-2.7314 0.25-5.4639 0.375-8.1954 6.279-1.5145 12.049-3.5898 20.49-3.3202z" filter="url(#am)" opacity=".71243"/><path id="ft" d="m-364.94-38.073c-0.902 4.3662-4.29 6.5866-8.622 7.9373 0.265-4.9436 3.069-7.6128 8.622-7.9373z" filter="url(#an)" opacity=".71243"/><path id="fu" d="m-515.93 12.206c1.21-15.455 2.42-30.908 3.63-46.363 7.544-2.9626 13.477-2.1706 19.191 6.4363-6.007 11.518-1.474 26.732 1.267 34.019-5.182 5.9646-16.279 4.0365-24.088 5.9076z" filter="url(#ao)" opacity=".71243"/><path id="fv" d="m-328.22-16.062c-0.113 3.7836-2.145 6.0724-1.388 10.54 12.768 11.978 42.343 3.9059 59.622 7.7206-0.57 8.0617 7.439 11.695 6.22 16.811-6.769 0.17933-6.992 3.1793-13.543 3.9152-8.85 0.99825-17.001-2.2919-25.814-1.5269-20.468 1.8244-45.302 6.5213-65.062 9.0278-28.931 3.7566-60.963 19.556-91.854 19.894-12.966 0.14202-25.645-4.3092-39.339-8.3146 5.605-4.0894 16.37-7.2303 24.055-5.2597 1.492 4.7248-3.53 1.7933-2.849 5.5666 21.427-0.42501 50.743-0.066342 73.196-9.3336 1.993-5.8433 5.262-10.496 9.141-14.616 2.847-0.59812 4.683-0.20525 6.066 0.63855 10.827-18.799 35.169-32.02 61.549-35.063z" filter="url(#ap)" opacity=".71243"/><path id="fw" d="m-320.93-18.504c5.9-1.6855 5.606 3.5213 9.622 3.9215 4.779-0.5919 3.756-5.5811 8.527-6.1802 8.864 1.4554 22.84 6.1471 15.689 18.493-17.13 3.1181-29.32 0.55147-37.612-6.4124-0.209-4.418 2.696-6.4114 3.774-9.8218z" filter="url(#aq)" opacity=".71243"/><path id="fx" d="m-289.56 7.3027c-15.171 8.7531-61.067 25.994-75.927 14.685-4.599-3.4073-4.749-9.4113-8.089-13.971 7.046-11.175 23.092-12.607 35.445-10.925 4.302 0.60641 7.239 4.8026 12.031 5.9066 12.232 2.8299 29.96-2.8797 36.54 4.305z" filter="url(#ar)" opacity=".71243"/><path id="fy" d="m-392.98 7.6758c-13.612 18.017-38.23 30.016-61.969 19.339 16.845-8.299 38.283-19.108 61.969-19.339zm-32.166 12.027c4.137 2.4547 20.001-1.6409 22.331-8.9915-8.288 2.4495-20.935 0.17311-22.331 8.9915z" filter="url(#as)" opacity=".71243"/><path id="fz" d="m-293.38 38.731c-4.948 1.0262-9.896 2.0463-14.846 3.0455-4.657-4.4636-21.767-2.0608-36.96 0.088112-10.05 1.4492-22.356 3.4996-32.088 4.7476-8.812 1.2066-22.16 2.8424-23.499 3.5338-2.267 1.2429-4.721 2.3635-2.71 6.0237-16.083 1.1786-32.165 1.5-48.247 0.6344 40.661-12.883 117.47-33.183 158.37-22.62-3e-3 0.75879-7e-3 1.5145-0.01 2.2722-4e-3 0.75983-7e-3 1.5155-0.011 2.2743z" filter="url(#at)" opacity=".71243"/><path id="ga" d="m-508.64 48.238c-3.299-0.84794-6.598-1.7622-9.896-2.7449 0.31-3.9619 0.621-7.9259 0.931-11.888 3.844 1.7291 4.517-0.85727 8.716 1.245-1.248 4.1796-3.411 9.8125 0.249 13.388z" filter="url(#au)" opacity=".71243"/><path id="gb" d="m-517.32 30.038c0.28-3.5659 0.559-7.1329 0.838-10.698 12.6-0.60952 27.153 4.9332 36.281-2.4557 5.1-4.1443 2.81-13.938 12.045-14.965 3.912-0.47062 6.254 5.1198 9.44 5.806 2.521 0.60227 14.198 0.2975 19.541 0.057013 18.824-0.51001 41.134-6.3264 57.516-11.594-10.229 9.573-24.418 9.8-36.884 12.862-25.646 6.3544-49.404 19.343-72.596 22.65-10.144-1.9136-18.453-2.0535-26.181-1.6617z" filter="url(#av)" opacity=".71243"/><path id="gc" d="m-392.89-280.11c0.212 5.5655-6.878 13.494-8.641 20.942-1.274-6.8043 6.021-14.472 8.641-20.942z" filter="url(#aw)" opacity=".71243"/><path id="gd" d="m-491.54-299.26c-0.776 9.9078-1.552 19.815-2.327 29.72 2.219-1.2895 8.062 1.2336 8.783 4.2273-4.429 11.715 2.814 20.016-0.251 33.951 7.716-2.0774 1.028-17.892 5.192-23.926 16.771-3.8448 22.394 14.002 39.724 14.418 1.298 12.728 12.63 16.515 20.108 23.247 4.929-12.921 9.841-25.846 12.131-41.746-12.548-6.5244-34.106 0.53281-43.895-10.822 14.682 0.71319 32.883 4.4108 47.596 2.7408 3.127-4.6264 5.921-9.6456 8.388-15.031-31.815-0.50171-63.632-4.9995-95.449-16.779zm10.635 38.893c0.022-0.00208 0.046 0.00103 0.068-0.00104-0.023 0.00104-0.045 0-0.068 0.00104z" filter="url(#ax)" opacity=".71243"/><path id="ge" d="m-497.68-220.8c1.179-15.058 2.358-30.116 3.538-45.175 1.368-0.53178 3.098-0.4955 5.644 0.75361-3.438 8.1643-2.94 29.357 0.208 42.666-0.494 4.3651-6.26 5.5987-9.39 1.756z" filter="url(#ay)" opacity=".71243"/><path id="gf" d="m-508.39-84.087c1.241-15.851 2.482-31.702 3.724-47.553 14.43-4.0821 14.472-27.34 10.599-45.301 4.459 0.36178 7.886-0.8697 11.8-1.4564 31.234 42.422 45.108 104.85 107.8 103.23-1.013-8.5872-13.599-7.7528-19.559-12.454-8.54-6.6394-16.361-21.874-22.969-35.793-10.971-22.845-24.668-46.558-15.536-77.427 30.768 11.93 23.113 62.477 43.037 87.373 10.876 13.256 28.907 18.113 53.293 13.945 3.871 3.3607 1.098 9.7441-0.3 14.953 10.496-4.8679 16.395-13.573 27.321-18.158-15.639 25.314-38.911 52.708-72.188 56.009-12.343 1.1765-29.352-5.0659-46.011-9.9255-24.95-7.2884-45.255-16.411-66.45-28.038-4.874-0.14305-8.752 0.98996-13.378 0.97233-0.396-0.1275-0.791-0.255-1.186-0.38147z" filter="url(#az)" opacity=".71243"/><path id="gg" d="m-486.97 25.294c-2.754 3.5016-11.031-0.031098-15.062 1.6119-1.864-4.1848 9.33-2.5604 15.062-1.6119z" filter="url(#ba)" opacity=".71243"/><path id="gh" d="m-291.47-121.72c3.386-11.728 6.455-23.659 10.533-34.701 8.491-5.6101 17.303-2.9108 18.519 2.5283 2.682 11.867-21.614 25.842-29.052 32.173z" filter="url(#bb)" opacity=".71243"/><path id="gi" d="m-323.95-132.29c0.506 7.5693-4.95 19.721-10.935 25.695-10.648-5.465-0.296-24.412 10.935-25.695z" filter="url(#bc)" opacity=".71243"/><path id="gj" d="m-373.77-96.064c2.928-0.453 3.578 1.4761 5.802 1.7467-0.562 3.9277-6.298 1.9239-5.802-1.7467z" filter="url(#bd)" opacity=".71243"/><path id="gk" d="m-518.48 45.509s0.661-8.4452 0.88-11.902" filter="url(#be)" opacity=".71243"/></g><path id="gl" transform="matrix(.81656 0 0 .81656 37.712 -23.384)" d="m360.29-150.94c0 68.426-61.047 121.18-120.59 121.18-51.304 0-87.647-37.445-87.647-95.294 0-51.304 47.497-125.29 115.88-125.29 59.542 0 92.353 48.108 92.353 99.412z" clip-path="url(#bj)" fill="url(#a)" opacity=".89219"/><g id="gm" transform="matrix(.81656 0 0 .81656 473.85 -23.384)" clip-path="url(#bk)" fill="#430000" opacity=".13755"><path id="gn" d="m-286.7-158.85c-8.421 24.903-18.622 48.872-41.342 62.671-1.225-34.345 32.919-44.064 31.046-74.597-1.56-4.6067-10.453-0.83342-7.929-10.116-7.118 3.9266-16.872 5.5562-24.106 9.2921-8.164 9.5243-7.303 19.701-8.643 31-1.38 11.736-11.494 24.611-6.638 37.657-30.225 8.7417-50.364-13.849-49.625-44.086 0.248-10.983 7.04-25.966 2.475-32.716-13.629-8.2057-22.664-13.033-22.383-32.743 0.475-21.641 35.422-56.613 42.083-70.332-39.924 1.6596-79.847-1.6575-119.77-16.438-0.093 1.188-6.515 83.211-6.701 85.589 21.508 3.3348 27.419-16.019 29.23-38.606 19.569 9.9244 25.238 23.084 31.812 42.453-8.08 7.0624-8.39 17.006-7.106 31.074 3.231 36.061 21.328 57.803 30.733 81.244-24.109-7.958-25.859-12.04-40.267-34.506-11.125-17.906-14.944-41.821-32.392-55.944-6.291-0.31409-8.639 4.9995-13.38 6.7773 5.463 12.613 8.339 34.834-3.148 40.415-0.387-0.1275-0.774-0.25604-1.161-0.38561-0.249 3.1699-0.497 6.3409-0.745 9.5108 0.135-0.03629 0.26-0.08604 0.394-0.12543-2.135 3.8665-4.16 13.263-5.066 24.68-0.841 10.604-0.487 20.21 0.749 25.566-0.616 7.8626-1.231 15.725-1.847 23.588 0.398 0.12543 0.796 0.25189 1.195 0.37525 1.578-2.1665 0.835-7.6004 4.223-7.223 6.656 5.1944 15.844 11.506 24.702 10.913 17.543 11.169 28.946 35.481 57.456 26.642-3.491-15.881-27.527-13.965-30.703-31.029 17.774 1.444 38.308 7.5631 49.34 16.58 14.363 1.6523 24.575-2.7791 39.521-4.504 2.537 2.0991-0.694 3.3773-0.206 6.9473 24.142-16.159 36.429-34.21 60.401-60.884 7.093-7.9248 15.095-14.476 25.89-25.002 6.549-6.3958 23.608-21.966 23.157-27.681-0.793-10.42-20.839-11.857-31.248-6.0548z" filter="url(#c)" opacity=".71243"/><path id="go" d="m-393.89-282.46c16.091 0.16171 32.182-0.68001 48.273-2.1002-1.055 22.312 12.767 36.869 6.378 58.028 0.808 6.6073 10.411 3.3316 11.01 10.14-3.393 7.4397-13.129 9.0962-19.44 13.794-2.791 2.5905 1.749 5.2919-1.337 8.2037-13.967 6.5969-18.758 12.174-26.868 24.337-2.761 4.134-7.817 8.0212-9.551 11.014-13.531 23.201 9.135 52.5 29.532 51.829 5.875-13.923 1.245-29.23 5.771-43.302 1.38-4.2874 7.469-14.136 10.754-18.567 14.353-19.146 46.445-35.171 68.605-53.478 8.823-7.2479 13.715-18.924 24.645-16.024 1.685 11.388-9.025 12.352-13.335 18.814 0.086 16.841-15.965 30.026-19.179 48.234 12.256 4.39 22.155 11.515 35.891 14.441-30.397 51.576-73.665 97.499-115.69 143.53 16.593-4.5548 35.644-17.087 48.619-28.649 6.827-6.0828 7.672-14.688 13.322-20.676 3.507-3.7183 12.848-7.5734 17.901-11.289 16.768-12.3 31.043-32.518 50.757-31.427 2.31 3.1108 4.199 6.7037 6.14 10.244 1.675-1.7322 2.871-5.5437 5.876-3.1026-0.633 8.693 1.597 14.21 4.051 19.505-2.383 16.857-11.003 29.743-15.955 42.763-8.803 23.135-14.227 46.113-27.309 66.957-3.3 0.67068-6.599 1.3507-9.896 2.0338 14.98-16.109 22.065-48.418 31.096-71.29 3.228-8.1581 9.404-18.504 9.227-23.971-0.28-8.7386-9.359-12.868-11.136-19.445-8.995 1.2844-5.241 12.264-11.745 15.526-12.475-0.70178-27.448-1.9561-38.26 0.35037-13.959 2.9699-10.236 11.423-15.642 19.978-3 4.7404-7.827 6.825-12.085 9.0734-16.389 8.6173-34.348 28.439-56.029 30.642 44.32-45.382 83.995-95.962 118.69-146.09-5.935-11.043-20.305-12.289-34.727-13.42-2.383-16.86 10.76-26.499 3.482-37.969-28.671 11.879-52.783 27.42-63.511 55.06 3.072 15.896-7.317 27.682-3.417 45.292-34.384 6.6374-52.803-36.538-34.814-68.439 1.396-6.2839-3.992-5.6008-2.976-11.498 4.206-3.7546 12.259 4.729 15.972-2.068-20.68-4.4377-44.65-1.7436-45.244-27.213-0.297-14.73 12.986-59.6 22.151-69.771m3.29 53.713c-26.768-21.441-31.073 52.331 3.194 32.552 4.597-14.36 0.167-21.236-3.194-32.552z" filter="url(#d)" opacity=".71243"/><path id="gp" d="m-46.352-62.075c-3.698-5.127-5.776-1.1859-10.684-2.2152-1.042 5.7075-2.599 10.858-5.88 14.252-2.801-0.35244-4.391 0.59812-8.351-0.87697-6.447 1.9882-1.407 15.73-9.501 16.274-4.887-3.4934-12.405-4.644-13.938-10.603-4.751-1.5881-4.702 3.6478-8.396 0.1586-0.608-5.5945-4.544-8.3177-4.529-14.433-6.089-1.557-0.347 7.8201-8.098 4.8254-5.741-5.1675-7.624-13.761-13.099-19.007 7.094-6.8271 14.537-12.873 16.405-24.022 3.272-1.0522 7.236-0.63751 10.683 1.1112 2.615-0.81581-7e-3 -6.7555 0.53-9.6041 12.019-18.694 24.933-35.975 47.605-38.703 0.095 1.0781 7.253 82.843 7.253 82.843zm-60.214 0.4955c2.104-4.1744 8.672-3.9609 6.348-12.267-8.805-9.715-12.979 7.3609-6.348 12.267z" filter="url(#e)" opacity=".71243"/><path id="gq" d="m-53.321-141.69c0.125 1.4346 6.373 72.8 6.499 74.233-3.731-3.9702-6.8-1.2595-11.946-3.6333-3.216 3.993-3.687 11.018-6.987 15.07-4.04 0.9402-12.31-2.2857-15.391-0.026952-0.1 3.9038 1.738 9.7472-0.332 11.677-5.771-0.48409-10.036-1.953-11.183-5.9802 4.802-16.01-5.061-31.174-19.147-37.6 0.01-3.0497-1.488-7.5434 1.898-7.3868 6.105 0.074636 6.286 5.2462 13.29 4.7611-4.439-25.575 14.992-41.054 32.133-49.454 3.1-1.5497 6.46-3.4965 11.166-1.6606z" filter="url(#f)" opacity=".71243"/><path id="gr" d="m-503.92-141.15c0.28-3.567 3.972-50.723 4.655-59.441 3.686 2.6464 14.833 6.6011 18.581 4.9757 21.91 41.45 26.53 66.629 62.807 93.237-7.856-26.252-25.083-44.517-27.635-78.489-0.967-12.677 0.715-25.391 7.146-31.544-7.085-14.406-9.253-20.085-22.705-29.825-1.375 27.168-16.568 41.76-38.024 39.485 0.124-1.585 0.73-9.3294 0.855-10.914 21.508 3.3337 27.42-16.019 29.23-38.606 19.558 10.071 31.436 24.201 38.068 43.299-8.06 7.2199-9.896 17.119-8.593 31.142 3.191 36.275 32.039 73.665 41.739 96.227-12.2-3.1647-35.897-16.423-57.618-31.319-21.779-14.405-41.58-30.448-47.345-27.838-0.387-0.13061-0.774-0.26019-1.161-0.38873z" filter="url(#g)" opacity=".71243"/><path id="gs" d="m-278.69-292.66c2.559-0.35141 5.12-0.70178 7.68-1.0511-0.521 4.0821 7.552 3.9546 6.582-0.89045 2.195-0.29439 4.39-0.58671 6.583-0.87593-1.379 10.305-4.911 18.78-4.178 30.996-7.691 11.761-23.711 19.707-36.725 17.778 0.104 2.8911 3.724 1.7197 6.682 1.303-0.422 5.3333-3.844 8.0575-7.884 10.249-12.148-6.0652-6.255-12.238-0.947-21.488 7.634-13.295 14.041-27.685 22.207-36.021z" filter="url(#h)" opacity=".71243"/><path id="gt" d="m-271.01-293.71c2.193-0.29855 4.387-0.59605 6.582-0.89045 0.972 4.8461-7.102 4.9726-6.582 0.89045z" filter="url(#i)" opacity=".71243"/><path id="gu" d="m-147.04-301.84c0.73 0.11506 17.348 0.89666 33.782 4.0293 16.435 2.7543 32.686 7.8595 32.686 7.9259 4.947 2.0297 9.896 4.221 14.85 6.5866 0 0 2.445 27.932 2.603 29.727-11.718-2.6475-20.861-1.188-29.189 1.6295-1.022 20.292-0.113 39.922-15.541 47.131-10.749-4.0915-17.872-11.136-32.299-10.73 4.347 6.8768 14.808 11.324 24.884 18.319 7.999 5.4276 21.858 14.139 26.338 20.391 10.224 13.861-11.747 34.191-18.721 44.029-8.196 11.485-13.756 50.643-38.873 40.468-6.557-2.6444-17.215-20.009-18.927-24.598-2.945-7.8274-2.768-16.964-0.985-23.06 3.602-12.365 20.32-19.831 19.425-32.155-0.357-4.9902-8.208-13.206-12.46-19.686-8.645-13.196-15.694-21.118-25.2-29.866 0.012-7.504 7.769-7.4501 14.486-6.1491 12.798-5.6806 24.73-11.145 26.834-25.923 6.062-1.9654 9.756-6.1978 18.609-4.9228-23.948-8.8557-57.596 3.7743-61.016-22.58 7.329-12.97 31.014-9.5917 38.714-20.565zm19.784 20.197c7.567 1.4316 10.629-1.615 11.583-6.9743-0.314-1.2543-1.333-1.8866-2.346-2.52-4.485 1.5663-8.968 3.3244-9.237 9.4942z" filter="url(#j)" opacity=".71243"/><path id="gv" d="m-65.849-284.78c0.219 2.5106 2.04 23.31 2.261 25.821-19.24-2.437-44.988 5.6184-69.403-8.1684 6.789-9.6663 22.503-8.9998 21.358-26.153-17.924-4.3257-18.411 10.717-29.747 14.631-1.083 4.8824 4.948 6.3865 1.654 9.8882-16.849 0.50276-40.843 8.0389-41.646-13.792 20.403-0.19178 31.904-7.3588 38.724-18.986 25.599 1.9571 51.199 6.9743 76.799 16.761z" filter="url(#k)" opacity=".71243"/><path id="gw" d="m-133.87-300.74c5.487 0.57428 10.972 1.2978 16.458 2.1883-9.581 1.443-15.326 7.3692-24.508 10.099 1.419-5.4401 5.574-8.0513 8.05-12.287z" filter="url(#l)" opacity=".71243"/><path id="gx" d="m-65.756-283.7c-2.344-0.36384-6.879 0-7.774-3.8717-4.022-1.3901-8.045-2.6672-12.067-3.8375 0.862 4.2667-3.617 2.2608-5.071 3.8665 0.335 0.84172-1.225 2.1934-2.862 3.5939 0.024-1.2885-0.104-2.7511-0.436-4.447-2.838-1.955-5.11-4.3133-6.99-6.9763-2.926-0.66135-5.852-1.2698-8.777-1.8296 9.553 18.571-9.385 20.236-12.068 32.396 25.331 7.2572 40.406-1.6119 57.555-1.6824-0.096-1.0739-1.416-16.136-1.51-17.212z" filter="url(#m)" opacity=".71243"/><path id="gy" d="m-100.96-295.37c5.118 1.1568 10.239 2.4723 15.359 3.9619 0.862 4.2667-3.617 2.2608-5.071 3.8665 0.696 1.7488 1.839 3.1564 2.535 4.9104 9.417 2.4982 15.436 1.4388 22.661 2.1592 0.125 1.4336 0.251 2.8693 0.376 4.3029-6.215 0.52556-12.646 1.162-17.943 3.4125 4.965 2.1934 12.295-0.91014 18.226-0.18555 0.095 1.076 0.189 2.152 0.283 3.228-13.769-0.20007-26.741 7.1246-45.403 1.3486 4.812-7.6698 19.123-4.022 15.967-20.03-2.838-1.9519-5.11-4.3112-6.99-6.9743z" filter="url(#n)" opacity=".71243"/><path id="gz" d="m-167.91-278.41c0.963 4.8171-7.2 6.0382-8.771 2.3261 1.029-2.5728 4.998-2.3925 8.771-2.3261z" filter="url(#o)" opacity=".71243"/><path id="ha" d="m-154.64-256.39c0.217 5.9138-9.713 10.803-17.322 13.19-0.976-2.4205-2.537-4.219-2.564-7.6294 4.33-4.1609 13.094-4.079 19.886-5.5603z" filter="url(#p)" opacity=".71243"/><path id="hb" d="m-109.2-208.24c-12.076-5.3437-25.61-14.568-41.325-10.929 10.417 16.748 69.275 32.128 57.491 63.896-3.473 8.8329-15.07 16.592-21.222 28.232-6.408 12.108-6.495 26.467-18.099 32.57-15.944-0.8127-30.689-23.912-30.224-38.001 0.665-19.96 27.971-30.103 15.023-50.611-8.886-14.338-23.739-21.898-28.046-39.085 17.537-3.2736 23.916-16.009 37.282-21.531-0.27-14.258 20.883-8.6556 30.768-6.0631 17.897 13.906 11.869 35.36-1.648 41.522z" filter="url(#q)" opacity=".71243"/><path id="hc" d="m-58.879-205.16c0.659 7.5309 1.318 15.062 1.978 22.592-9.734-1.7322-19.618 0.4136-21.086-12.854 9.15-0.40324 11.736-8.016 19.108-9.7378z" filter="url(#r)" opacity=".71243"/><path id="hd" d="m-213.49-194.69c-2.957 5.5147-4.703 12.05-11.151 14.794-3.15-5.9542 2.866-18.405 11.151-14.794z" filter="url(#s)" opacity=".71243"/><path id="he" d="m-128.33-187.69c-3.725 0.01451-5.596-1.6461-5.984-4.7259 2.179-1.9291 5.401 1.6793 5.984 4.7259z" filter="url(#t)" opacity=".71243"/><path id="hf" d="m-52.944-137.39c0.533 6.0963 5.181 59.171 5.745 65.628-19.824-7.362-16.049 12.034-31.944 10.753-8.013-4.5258-12.339-11.658-16.733-18.739 6.558-7.6812 0.263-16.818 0.58-25.647 0.707-18.43 28.157-32.85 42.352-31.996z" filter="url(#u)" opacity=".71243"/><path id="hg" d="m-51.343-119.09c0.815 9.3232 1.632 18.646 2.448 27.971-14.183-10.277-18.236-27.529-2.448-27.971z" filter="url(#v)" opacity=".71243"/><path id="hh" d="m-121.31-127.61c0.05 10.137-4.006 24.392-16.681 16.693-1.097-6.175 2.582-8.1021 7.779-8.5012-0.376-5.8485 2.258-8.9832 8.902-8.1923z" filter="url(#w)" opacity=".71243"/><path id="hi" d="m-393.89-282.46c14.993 0.15031 29.988-0.57013 44.982-1.8182-0.232 17.927 15.087 38.44 4.173 53.745-5.221 1.2128-6.719-0.90703-10.078 0.97648-0.719 11.27 9.421 10.625 10.704 19.664-6.753 5.6422-22.245 12.443-31.763 7.3516 1.694-3.5068 5.667-4.7404 5.96-9.6487-10.688-12.642-13.88-33.082-28.508-42.245-9.329 10.155-17.96 27.014-17.622 41.739 0.594 25.471 24.563 22.777 45.245 27.213-3.713 6.798-11.767-1.6855-15.972 2.068-1.016 5.8972 4.372 5.2152 2.976 11.498-17.989 31.9 0.43 75.078 34.814 68.438-3.9-17.609 6.487-29.394 3.417-45.291 10.728-27.64 34.839-43.181 63.511-55.06 7.278 11.469-5.865 21.109-3.482 37.969 14.423 1.1299 28.792 2.3769 34.727 13.42-34.697 50.136-74.372 100.72-118.69 146.1 21.682-2.2028 39.641-22.022 56.029-30.642 4.259-2.2463 9.085-4.332 12.085-9.0723 5.406-8.5551 1.683-17.008 15.642-19.978 10.813-2.3064 25.786-1.0522 38.26-0.35141 6.505-3.2612 2.75-14.24 11.746-15.525 1.775 6.5762 10.855 10.707 11.135 19.446 0.178 5.467-6.001 15.813-9.227 23.97-9.031 22.873-16.115 55.183-31.096 71.29-9.485 1.9654-18.971 3.9671-28.455 5.9366-0.019-3.8821-30.155-0.93916-62.431 2.2391-32.299 3.6468-66.739 7.5299-75.919 16.322-9.485 0.14098-31.173-0.47165-50.49-3.6706-19.317-2.7895-36.263-8.1653-36.263-8.1145 0 0 2.368-30.925 2.555-33.303 7.809-1.87 18.906 0.05805 24.088-5.9066-2.74-7.2873-7.274-22.502-1.267-34.019-5.714-8.6069-11.646-9.3989-19.191-6.4363 0.62-7.9259 1.241-15.851 1.862-23.778 0.398 0.12646 0.796 0.25189 1.195 0.37629 1.578-2.1686 0.835-7.6014 4.224-7.2241 6.656 5.1944 15.845 11.506 24.702 10.914 17.543 11.169 28.948 35.481 57.458 26.641-3.49-15.881-27.526-13.965-30.702-31.029 17.774 1.443 38.308 7.5631 49.34 16.58 14.363 1.6513 24.574-2.7791 39.521-4.504 2.538 2.1012-0.694 3.3783-0.205 6.9473 24.143-16.159 36.43-34.21 60.401-60.883 7.093-7.9259 15.095-14.476 25.891-25.003 6.548-6.3958 23.608-21.966 23.156-27.681-0.795-10.42-20.84-11.857-31.249-6.0538-8.422 24.903-18.622 48.872-41.343 62.671-1.225-34.345 32.919-44.064 31.046-74.596-1.56-4.6077-10.452-0.83447-7.929-10.117-7.119 3.9266-16.872 5.5572-24.106 9.2921-8.165 9.5243-7.303 19.703-8.643 31-1.379 11.735-11.494 24.611-6.638 37.656-30.225 8.7417-50.364-13.848-49.625-44.085 0.249-10.983 7.04-25.966 2.474-32.716-13.634-8.1322-27.149-13.265-26.83-33.052 0.419-21.953 17.552-56.478 24.406-69.655z" filter="url(#x)" opacity=".71243"/><path id="hj" d="m-43.997-35.178c0.157 1.7933 0.314 3.5856 0.472 5.3789-3.747-1.8586-6.398-4.2978-6.608-8.3301 2.773 0.49239 4.655 1.5953 6.136 2.9512z" filter="url(#y)" opacity=".71243"/><path id="hk" d="m-152.42-13.169c-1.249 5.8682-16.682 4.2107-21.959 3.9588-9.966-21.696 20.301-17.121 21.959-3.9588z" filter="url(#z)" opacity=".71243"/><path id="hl" d="m-120.18 14.62c-2.062-0.037317-4.122-0.057013-6.186-0.059086-0.496-3.8779 1.463-5.7169 5.873-5.3862 0.105 1.8161 0.208 3.6291 0.313 5.4453z" filter="url(#aa)" opacity=".71243"/><path id="hm" d="m-109.49-212.57c-13.563-7.0136-40.794-17.262-51.138-4.4688 5.172 5.8682 6.138 15.891 16.749 16.59 3.965-1.5487-7.26-8.0015-1.54-7.6781 17.515 9.2185 50.439 22.009 49.833 49.199-0.26 10.8-12.964 19.681-17.772 27.662-3.535 5.8153-8.716 28.68-15.799 30.367-17.704 4.2853-30.103-24.705-25.736-42.776 2.156-8.9645 13.429-21.74 13.724-27.27 1.109-21.31-28.488-27.859-25.18-47.108 1.767-10.709 25.058-15.747 34.83-24.042 2.59-2.265 4.229-7.3848 7.325-7.9124 27.234 0.81062 31.055 31.106 14.704 37.438z" filter="url(#ab)" opacity=".71243"/><path id="hn" d="m-138.24-180.65c12.523 3.598 8.932 19.968-2.351 20.615 1.427-6.2932 0.861-14.421 2.351-20.615z" filter="url(#ac)" opacity=".71243"/><path id="ho" d="m-347.89-238.27c-7.63 1.6617-9.137-3.4467-14.335-4.5465-1.784 4.5714 2.473 12.252 0.48 20.778-16.797-1.9105-16.323-21.986-24.341-35.932-2.638-4.6212-6.553-7.6667-6.103-12.786 1.149-12.912 16.664-12.364 25.535-6.5119 5.679 3.7846 4.457 9.1688 8.249 17.985 3.178 7.4407 15.104 12.191 10.515 21.014zm-38.556-38.348c-1.021 5.155 3.373 4.7321 4.083 8.0886" filter="url(#ad)" opacity=".71243"/><path id="hp" d="m-366.04-262.24c-4.353 0.95782-7.354-8.2907-16.319-6.288-0.71-3.3565-5.104-2.9346-4.083-8.0886 9.763-5.8164 18.207 5.3883 20.402 14.377z" filter="url(#ae)" opacity=".71243"/><path id="hq" d="m-501.31-174.44c5.093 5.7511 4.805 21.048-1.769 22.588 0.589-7.5288 1.179-15.057 1.769-22.588z" filter="url(#af)" opacity=".71243"/><path id="hr" d="m-301.85-138.13c-1.757 10.023-6.982 17.259-14.205 22.873 0.845-10.121 7.739-21.292 14.205-22.873z" filter="url(#ag)" opacity=".71243"/><path id="hs" d="m-499.26-200.59c0.217-2.774 0.435-5.5489 0.651-8.3218 21.399 2.2028 33.513-11.345 34.93-38.497 13.402 10.007 21.103 23.749 28.229 37.995-6.428 6.2238-9.475 16.043-8.503 28.707 2.479 34.251 30.044 68.016 38.159 93.551-39.897-19.505-54.635-66.235-76.408-108.16-3.751 1.5839-13.372-2.6527-17.058-5.2742zm28.762 20.197c4.547 13.061 12.822 32.309 19.343 42.781 7.642 12.396 17.797 24.609 27.645 28.154-9.067-29.871-38.292-68.536-17.372-104.14-6.767-7.5838-11.055-17.4-18.881-24.57-2.913 22.681-18.061 36.669-10.735 57.773z" filter="url(#ah)" opacity=".71243"/><path id="ht" d="m-251.29-87.083c-0.129 2.0411 1.48 2.1105 1.235 4.2812-5.495 2.52-6.202 4.0386-11.852 7.7828-4.387-6.0009 1.525-12.751 10.617-12.064z" filter="url(#ai)" opacity=".71243"/><path id="hu" d="m-332.23-60.023c1.159-0.15549 0.898 1.2553 1.149 2.1043-0.81 5.9449-7.136 7.4086-10.938 10.906-6.022 12.965-13.098 25.29-28.362 30.383 6.836-19.423 25.223-29 38.151-43.393z" filter="url(#aj)" opacity=".71243"/><path id="hv" d="m-244.99-58.963c-1.308 8.3187 1.15 13.933-4.591 19.964-8.285 0.963-12.477 4.9809-16.88 8.8671 0.016 3.3855 0.032 6.769 0.048 10.156-13.746 2.6931-17.396-5.9905-29.083-5.6018-4.586-7.7279-1.05-20.763-1.022-31.619 15.267-10.69 40.037-6.5078 51.528-1.7653z" filter="url(#ak)" opacity=".71243"/><path id="hw" d="m-282.19-33.846c-7.555 1.3725-15.446-17.63-8.353-24.478 7.018-6.7804 20.625-0.018659 29.941-0.017622 5.751 13.553-14.749 16.461-21.588 24.496z" filter="url(#al)" opacity=".71243"/><path id="hx" d="m-392.48-36.524c-3 8.1239 1.697 17.24 5.051 25.148-13.248 16.555-58.975 17.473-63.767-5.1498 9.789-5.1301 30.152-0.004147 37.851-8.4825 0.125-2.7314 0.25-5.4639 0.375-8.1954 6.279-1.5145 12.049-3.5898 20.49-3.3202z" filter="url(#am)" opacity=".71243"/><path id="hy" d="m-364.94-38.073c-0.902 4.3662-4.29 6.5866-8.622 7.9373 0.265-4.9436 3.069-7.6128 8.622-7.9373z" filter="url(#an)" opacity=".71243"/><path id="hz" d="m-515.93 12.206c1.21-15.455 2.42-30.908 3.63-46.363 7.544-2.9626 13.477-2.1706 19.191 6.4363-6.007 11.518-1.474 26.732 1.267 34.019-5.182 5.9646-16.279 4.0365-24.088 5.9076z" filter="url(#ao)" opacity=".71243"/><path id="ia" d="m-328.22-16.062c-0.113 3.7836-2.145 6.0724-1.388 10.54 12.768 11.978 42.343 3.9059 59.622 7.7206-0.57 8.0617 7.439 11.695 6.22 16.811-6.769 0.17933-6.992 3.1793-13.543 3.9152-8.85 0.99825-17.001-2.2919-25.814-1.5269-20.468 1.8244-45.302 6.5213-65.062 9.0278-28.931 3.7566-60.963 19.556-91.854 19.894-12.966 0.14202-25.645-4.3092-39.339-8.3146 5.605-4.0894 16.37-7.2303 24.055-5.2597 1.492 4.7248-3.53 1.7933-2.849 5.5666 21.427-0.42501 50.743-0.066342 73.196-9.3336 1.993-5.8433 5.262-10.496 9.141-14.616 2.847-0.59812 4.683-0.20525 6.066 0.63855 10.827-18.799 35.169-32.02 61.549-35.063z" filter="url(#ap)" opacity=".71243"/><path id="ib" d="m-320.93-18.504c5.9-1.6855 5.606 3.5213 9.622 3.9215 4.779-0.5919 3.756-5.5811 8.527-6.1802 8.864 1.4554 22.84 6.1471 15.689 18.493-17.13 3.1181-29.32 0.55147-37.612-6.4124-0.209-4.418 2.696-6.4114 3.774-9.8218z" filter="url(#aq)" opacity=".71243"/><path id="ic" d="m-289.56 7.3027c-15.171 8.7531-61.067 25.994-75.927 14.685-4.599-3.4073-4.749-9.4113-8.089-13.971 7.046-11.175 23.092-12.607 35.445-10.925 4.302 0.60641 7.239 4.8026 12.031 5.9066 12.232 2.8299 29.96-2.8797 36.54 4.305z" filter="url(#ar)" opacity=".71243"/><path id="id" d="m-392.98 7.6758c-13.612 18.017-38.23 30.016-61.969 19.339 16.845-8.299 38.283-19.108 61.969-19.339zm-32.166 12.027c4.137 2.4547 20.001-1.6409 22.331-8.9915-8.288 2.4495-20.935 0.17311-22.331 8.9915z" filter="url(#as)" opacity=".71243"/><path id="ie" d="m-293.38 38.731c-4.948 1.0262-9.896 2.0463-14.846 3.0455-4.657-4.4636-21.767-2.0608-36.96 0.088112-10.05 1.4492-22.356 3.4996-32.088 4.7476-8.812 1.2066-22.16 2.8424-23.499 3.5338-2.267 1.2429-4.721 2.3635-2.71 6.0237-16.083 1.1786-32.165 1.5-48.247 0.6344 40.661-12.883 117.47-33.183 158.37-22.62-3e-3 0.75879-7e-3 1.5145-0.01 2.2722-4e-3 0.75983-7e-3 1.5155-0.011 2.2743z" filter="url(#at)" opacity=".71243"/><path id="if" d="m-508.64 48.238c-3.299-0.84794-6.598-1.7622-9.896-2.7449 0.31-3.9619 0.621-7.9259 0.931-11.888 3.844 1.7291 4.517-0.85727 8.716 1.245-1.248 4.1796-3.411 9.8125 0.249 13.388z" filter="url(#au)" opacity=".71243"/><path id="ig" d="m-517.32 30.038c0.28-3.5659 0.559-7.1329 0.838-10.698 12.6-0.60952 27.153 4.9332 36.281-2.4557 5.1-4.1443 2.81-13.938 12.045-14.965 3.912-0.47062 6.254 5.1198 9.44 5.806 2.521 0.60227 14.198 0.2975 19.541 0.057013 18.824-0.51001 41.134-6.3264 57.516-11.594-10.229 9.573-24.418 9.8-36.884 12.862-25.646 6.3544-49.404 19.343-72.596 22.65-10.144-1.9136-18.453-2.0535-26.181-1.6617z" filter="url(#av)" opacity=".71243"/><path id="ih" d="m-392.89-280.11c0.212 5.5655-6.878 13.494-8.641 20.942-1.274-6.8043 6.021-14.472 8.641-20.942z" filter="url(#aw)" opacity=".71243"/><path id="ii" d="m-491.54-299.26c-0.776 9.9078-1.552 19.815-2.327 29.72 2.219-1.2895 8.062 1.2336 8.783 4.2273-4.429 11.715 2.814 20.016-0.251 33.951 7.716-2.0774 1.028-17.892 5.192-23.926 16.771-3.8448 22.394 14.002 39.724 14.418 1.298 12.728 12.63 16.515 20.108 23.247 4.929-12.921 9.841-25.846 12.131-41.746-12.548-6.5244-34.106 0.53281-43.895-10.822 14.682 0.71319 32.883 4.4108 47.596 2.7408 3.127-4.6264 5.921-9.6456 8.388-15.031-31.815-0.50171-63.632-4.9995-95.449-16.779zm10.635 38.893c0.022-0.00208 0.046 0.00103 0.068-0.00104-0.023 0.00104-0.045 0-0.068 0.00104z" filter="url(#ax)" opacity=".71243"/><path id="ij" d="m-497.68-220.8c1.179-15.058 2.358-30.116 3.538-45.175 1.368-0.53178 3.098-0.4955 5.644 0.75361-3.438 8.1643-2.94 29.357 0.208 42.666-0.494 4.3651-6.26 5.5987-9.39 1.756z" filter="url(#ay)" opacity=".71243"/><path id="ik" d="m-508.39-84.087c1.241-15.851 2.482-31.702 3.724-47.553 14.43-4.0821 14.472-27.34 10.599-45.301 4.459 0.36178 7.886-0.8697 11.8-1.4564 31.234 42.422 45.108 104.85 107.8 103.23-1.013-8.5872-13.599-7.7528-19.559-12.454-8.54-6.6394-16.361-21.874-22.969-35.793-10.971-22.845-24.668-46.558-15.536-77.427 30.768 11.93 23.113 62.477 43.037 87.373 10.876 13.256 28.907 18.113 53.293 13.945 3.871 3.3607 1.098 9.7441-0.3 14.953 10.496-4.8679 16.395-13.573 27.321-18.158-15.639 25.314-38.911 52.708-72.188 56.009-12.343 1.1765-29.352-5.0659-46.011-9.9255-24.95-7.2884-45.255-16.411-66.45-28.038-4.874-0.14305-8.752 0.98996-13.378 0.97233-0.396-0.1275-0.791-0.255-1.186-0.38147z" filter="url(#az)" opacity=".71243"/><path id="il" d="m-486.97 25.294c-2.754 3.5016-11.031-0.031098-15.062 1.6119-1.864-4.1848 9.33-2.5604 15.062-1.6119z" filter="url(#ba)" opacity=".71243"/><path id="im" d="m-291.47-121.72c3.386-11.728 6.455-23.659 10.533-34.701 8.491-5.6101 17.303-2.9108 18.519 2.5283 2.682 11.867-21.614 25.842-29.052 32.173z" filter="url(#bb)" opacity=".71243"/><path id="in" d="m-323.95-132.29c0.506 7.5693-4.95 19.721-10.935 25.695-10.648-5.465-0.296-24.412 10.935-25.695z" filter="url(#bc)" opacity=".71243"/><path id="io" d="m-373.77-96.064c2.928-0.453 3.578 1.4761 5.802 1.7467-0.562 3.9277-6.298 1.9239-5.802-1.7467z" filter="url(#bd)" opacity=".71243"/><path id="ip" d="m-518.48 45.509s0.661-8.4452 0.88-11.902" filter="url(#be)" opacity=".71243"/></g></svg>
