<?xml version="1.0" encoding="UTF-8"?>
<svg version="1.1" viewBox="0 0 48 48" xmlns="http://www.w3.org/2000/svg" xmlns:xlink="http://www.w3.org/1999/xlink"><defs><linearGradient id="a"><stop offset="0"/><stop stop-opacity="0" offset="1"/></linearGradient><linearGradient id="b"><stop stop-color="#334545" offset="0"/><stop stop-color="#4d6868" offset="1"/></linearGradient><linearGradient id="c" x1="35" x2="19" y1="44" y2="3" gradientUnits="userSpaceOnUse"><stop stop-color="#c6cdd1" offset="0"/><stop stop-color="#e0e5e7" offset="1"/></linearGradient><linearGradient id="m" x1="-16" x2="-8.664" y1="12" y2="9.744" gradientUnits="userSpaceOnUse" xlink:href="#b"/><linearGradient id="l" x1="-16" x2="-8.664" y1="12" y2="9.744" gradientTransform="translate(-12,12)" gradientUnits="userSpaceOnUse" xlink:href="#b"/><linearGradient id="k" x1="-16" x2="-8.664" y1="12" y2="9.744" gradientTransform="translate(-24 24)" gradientUnits="userSpaceOnUse" xlink:href="#b"/><linearGradient id="j" x1="-16" x2="-8.664" y1="12" y2="9.744" gradientTransform="translate(0,-48)" gradientUnits="userSpaceOnUse" xlink:href="#b"/><linearGradient id="i" x1="-16" x2="-8.664" y1="12" y2="9.744" gradientTransform="translate(-24 -24)" gradientUnits="userSpaceOnUse" xlink:href="#b"/><linearGradient id="h" x1="34" x2="43" y1="9" y2="18" gradientUnits="userSpaceOnUse" xlink:href="#a"/><linearGradient id="g" x1="9.246" x2="18" y1="33.122" y2="41.875" gradientUnits="userSpaceOnUse" xlink:href="#a"/><linearGradient id="f" x1="9" x2="20" y1="9" y2="20" gradientUnits="userSpaceOnUse" xlink:href="#a"/><linearGradient id="e" x1="21" x2="31" y1="21" y2="31" gradientUnits="userSpaceOnUse" xlink:href="#a"/><linearGradient id="d" x1="33" x2="41" y1="33" y2="41" gradientUnits="userSpaceOnUse" xlink:href="#a"/></defs><g><rect x="4" y="4" width="40" height="40" rx="2" ry="2" fill="url(#c)"/><path d="m14.58 8.9238-2.5156 0.48828-3.0176 3.1934-0.056641 1.9668 29.428 29.428h3.582c1.108 0 2-0.892 2-2v-3.6562l-29.42-29.42z" fill="url(#f)" opacity=".3"/><rect transform="rotate(-90)" x="-16" y="8" width="8" height="8" rx="4" ry="4" fill="url(#m)"/><path d="m4 41v1c0 1.108 0.892 2 2 2h36c1.108 0 2-0.892 2-2v-1c0 1.108-0.892 2-2 2h-36c-1.108 0-2-0.892-2-2z" fill="#000" opacity=".15"/><path d="m26.52 20.908-2.5156 0.48828-3.0176 3.1934-0.05664 1.9668 17.443 17.443h3.627c1.108 0 2-0.892 2-2v-3.6113l-17.48-17.48z" fill="url(#e)" opacity=".3"/><rect transform="rotate(-90)" x="-28" y="20" width="8" height="8" rx="4" ry="4" fill="url(#l)"/><path d="m38.594 32.982-2.5156 0.48828-3.0176 3.1934-0.056641 1.9668 5.3691 5.3691h3.627c1.108 0 2-0.892 2-2v-3.6113l-5.4062-5.4062z" fill="url(#d)" opacity=".3"/><rect transform="rotate(-90)" x="-40" y="32" width="8" height="8" rx="4" ry="4" fill="url(#k)"/><path d="m14.367 32.75-2.5156 0.48828-3.0176 3.1934-0.056641 1.9668 5.6016 5.6016h11.238l-11.25-11.25z" fill="url(#g)" opacity=".3"/><rect transform="matrix(0,-1,-1,0,0,0)" x="-40" y="-16" width="8" height="8" rx="4" ry="4" fill="url(#i)"/><path d="m38.514 8.8887-2.5156 0.48828-3.0176 3.1934-0.056641 1.9668 11.076 11.076v-11.238l-5.4863-5.4863z" fill="url(#h)" opacity=".3"/><rect transform="matrix(0,-1,-1,0,0,0)" x="-16" y="-40" width="8" height="8" rx="4" ry="4" fill="url(#j)"/></g></svg>
