<?xml version="1.0" encoding="UTF-8"?>
<svg id="h" version="1.0" viewBox="0 0 256 256" xmlns="http://www.w3.org/2000/svg" xmlns:xlink="http://www.w3.org/1999/xlink"><defs id="i"><filter id="g"><feGaussianBlur id="j" stdDeviation="6.2940002"/></filter><linearGradient id="a"><stop id="k" stop-color="#fff9ff" offset="0"/><stop id="l" stop-color="#ff641e" stop-opacity="0" offset="1"/></linearGradient><linearGradient id="f" x1="213.29" x2="357.13" y1="395.4" y2="395.4" gradientTransform="matrix(1.0133 -.26985 .19424 .72935 -71.377 568.01)" gradientUnits="userSpaceOnUse" xlink:href="#a"/><linearGradient id="e" x1="213.29" x2="357.13" y1="395.4" y2="395.4" gradientTransform="matrix(.84228 -.22431 .13289 .499 12.768 647.24)" gradientUnits="userSpaceOnUse" xlink:href="#a"/><radialGradient id="c" cx="1127.8" cy="893.27" r="3.3387" gradientTransform="matrix(2.9903 -9.0582 -7.9323 -.8773 3972.6 11921)" gradientUnits="userSpaceOnUse"><stop id="m" offset="0"/><stop id="n" offset="1"/></radialGradient><linearGradient id="d" x1="188.98" x2="265.72" y1="370" y2="447.36" gradientTransform="matrix(.87164 0 0 .87164 38.438 437.86)" gradientUnits="userSpaceOnUse"><stop id="o" stop-color="#760000" offset="0"/><stop id="p" stop-color="#b90505" offset="1"/></linearGradient><radialGradient id="b" cx="386.19" cy="907.21" r="29" gradientTransform="matrix(3.8877 .24242 -.4136 2.7357 -856.77 -1677.3)" gradientUnits="userSpaceOnUse"><stop id="q" stop-color="#2d2d2d" offset="0"/><stop id="r" stop-color="#636363" stop-opacity="0" offset=".93214"/><stop id="s" stop-color="#9a9a9a" stop-opacity="0" offset="1"/></radialGradient></defs><g id="t" transform="translate(-185.85 -703.05)"><path id="u" d="m313.9 710.25c-9.6101-0.04488-19.77 1.2107-30.317 4.2765-11.441 3.3151-19.864 6.975-25.414 10.106-28.208 14.795-52.384 47.591-58.59 76.295-11.212 51.852 5.5567 101.76 5.5567 101.76l0.95335-0.29963 35.928 11.331s-20.179-20.463-22.744-72.101c1.0174-11.72 2.7334-22.951 5.2298-33.422 14.637 2.487 37.288 5.7493 60.442 6.8369 38.999 1.8318 79.237-2.5604 79.237-2.5604 15.283 59.87-25.141 108.65-25.141 108.65l70.795-15.64c0 1e-5 39.836-44.011 15.279-120.09-12.887-39.923-54.002-66.228-80.953-70.793-9.1925-2.578-19.368-4.3073-30.262-4.3582z" fill="url(#d)" fill-rule="nonzero"/><path id="v" transform="matrix(.87164 0 0 .87164 129.74 361.22)" d="m106.07 509.14c-2.8641 12.013-4.8328 32.315-6 45.761 2.9431 59.242 31.286 82.719 31.286 82.719l-11.812-3.7188c16.935 26.499 43.135 47.926 78.938 48.125 28.829 0.1633 53.429-12.694 70.875-35.906h-26.688s46.378-63.386 28.844-132.07c0 0-44.681 5.039-89.423 2.9375-26.564-1.2477-59.226-4.9906-76.019-7.8438z" fill="#9e9e9e" fill-rule="nonzero" filter="url(#g)"/><path id="w" d="m295.66 751.41c34.526-9.1949 66.817-0.64561 72.068 19.071 2.4139 9.0641-1.3136 18.915-9.3895 27.812 1.5026-4.5589 1.7734-9.1453 0.6052-13.532-5.2508-19.716-37.538-28.249-72.064-19.054-18.642 4.9648-34.145 14.09-43.638 24.539 5.2688-15.922 25.591-31.691 52.418-38.836z" fill="url(#e)" fill-rule="nonzero" opacity=".6"/><path id="x" d="m280.49 736.68c41.535-11.062 81.484 3.3648 89.159 32.183 3.5283 13.248-0.38633 27.238-9.6677 39.571 1.5402-6.4888 1.5756-13.096-0.13187-19.508-7.6748-28.818-47.618-43.221-89.153-32.159-22.427 5.9727-40.756 18.157-51.666 32.64 5.4046-22.661 29.187-44.132 61.459-52.727z" fill="url(#f)" fill-rule="nonzero" opacity=".6"/><path id="y" d="m24.286 655.03c-2.4965 10.471-4.2124 21.702-5.2298 33.422 2.5653 51.638 22.744 72.101 22.744 72.101l-10.296-3.2414c14.761 23.098 37.598 41.774 68.805 41.947 25.129 0.14234 48.715-13.745 62.313-36.659l-23.798 5.3617s40.424-48.784 25.141-108.65c0 0-40.238 4.3922-79.237 2.5604-23.154-1.0876-45.805-4.3499-60.442-6.8369z" fill="#fff" fill-rule="nonzero"/><path id="z" d="m224.84 808.23c-2.4965 10.471-4.2124 21.702-5.2298 33.422 2.5653 51.638 22.744 72.101 22.744 72.101l-10.296-3.2414c14.761 23.098 37.598 41.774 68.805 41.947 25.129 0.14234 51.816-15.261 63.351-36.543l-24.836 5.2459s40.424-48.784 25.141-108.65c0 0-40.238 4.3922-79.237 2.5604-23.154-1.0876-45.805-4.3499-60.442-6.8369z" fill="#fff" fill-rule="nonzero"/><g id="aa" transform="matrix(1 0 .041075 .95416 -35.506 35.169)"><path id="ab" d="m295.26 836.26c-0.76613 1.074-0.98916 2.4015-1.5727 3.5667-3.2708 8.4916-7.0567 16.862-12.263 24.451-5.0314 7.5411-10.992 14.566-15.008 22.689-1.9604 4.3863-2.5688 9.5882-0.49177 14.041 6.2136 4.7356 14.797 4.4948 15.829-6.7751 0.0353-2.3498-0.87337-4.8311 0.3188-7.0563 4.2186-9.9389 7.486-20.244 9.8047-30.738 1.3715-6.2812 2.6824-12.593 3.3942-18.977-0.0642-0.2591 0.23057-1.2561-0.0114-1.2z" fill="#c8bfff" fill-rule="evenodd" opacity=".50273"/><g id="ac"><path id="ad" d="m272.77 897.6c1.6972-4.8444 18.644-35.112 24.113-52.4 1.7734-7.5744 2.5604-14.158 3.0718-20.464 0.40953-5.0499-8.0839-3.2232-8.239 1.5867-0.74892 19.423-20.075 49.84-26.672 62.147-6.5963 12.307 6.0287 13.975 7.7259 9.1305z" fill="url(#b)" fill-rule="evenodd"/></g><path id="ae" d="m267.78 893.85c-7.1281 3.7391-6.9477 11.576-2.0813 15.566 3.8087 1.0803 8.6353 2.0968 12.305 1.1216 7.4058-4.2864 19.723-5.2468 15.238-8.5522-11.315 1.8658-17.546 2.9336-23.493 1.097-1.6232-0.26889-1.8426-2.2272-1.4062-3.4661 0.20431-1.821 1.0642-3.6164 0.65625-5.4681-0.34534-0.27931-0.77502-0.38784-1.2188-0.2988z" fill="#c8bfff" fill-rule="evenodd" opacity=".72131"/><path id="af" d="m271.69 876.6c-4.2778 5.6789-7.0658 12.203-9.8125 18.645-1.0685 2.9515-2.1106 6.0351-1.8686 9.1949 0.57523 3.0402 3.9446 5.0238 7.0513 4.765 5.149 0.29177 9.9745-1.7951 14.594-3.6926 3.84-1.511 7.9098-2.8777 12.125-2.6263 1.6609-0.10304 3.3136 0.18037 4.9736 0.15772-0.4567-1.1208-1.9344-0.89573-2.9375-1.0757-6.0787-0.82855-12.318-0.19963-18.188 1.4641-1.4127 0.28714-3.0875 0.23256-4.1875-0.77688-0.75966-1.8392 0.53853-3.6255 0.75-5.4382 1.6426-5.5254 2.1626-11.533 0.31957-17.079-0.42513-1.2817-1-2.67-2.1321-3.5087-0.23067-0.01048-0.45761-0.1022-0.6875-0.02988z" fill="url(#c)" fill-rule="evenodd"/></g></g></svg>
