<?xml version="1.0" encoding="UTF-8"?>
<svg id="ab" version="1.0" viewBox="0 0 128 128" xmlns="http://www.w3.org/2000/svg" xmlns:xlink="http://www.w3.org/1999/xlink"><defs id="ac"><linearGradient id="g" x1="-742.43" x2="-739.79" y1="195.61" y2="217.92" gradientUnits="userSpaceOnUse"><stop id="ad" stop-color="#fff" offset="0"/><stop id="ae" stop-color="#fff" stop-opacity="0" offset="1"/></linearGradient><radialGradient id="c" cx="-633.64" cy="565.85" r="18.909" fx="-634.81" fy="578.65" gradientTransform="matrix(1 0 0 .92857 0 40.418)" gradientUnits="userSpaceOnUse"><stop id="af" stop-color="#fff" offset="0"/><stop id="ag" stop-color="#fff" stop-opacity="0" offset="1"/></radialGradient><linearGradient id="h" x1="-744.58" x2="-728.62" y1="296.54" y2="296.42" gradientTransform="matrix(.3253 0 0 .30413 249.86 -64.016)" gradientUnits="userSpaceOnUse" xlink:href="#a" spreadMethod="reflect"/><linearGradient id="i" x1="-744.58" x2="-728.62" y1="296.54" y2="296.42" gradientTransform="matrix(.3253 0 0 .30413 249.86 -57.677)" gradientUnits="userSpaceOnUse" xlink:href="#a" spreadMethod="reflect"/><linearGradient id="j" x1="-744.58" x2="-728.62" y1="296.54" y2="296.42" gradientTransform="matrix(.3253 0 0 .30413 249.86 -70.355)" gradientUnits="userSpaceOnUse" xlink:href="#a" spreadMethod="reflect"/><linearGradient id="k" x1="-744.58" x2="-728.62" y1="296.54" y2="296.42" gradientTransform="matrix(.3253 0 0 .30413 249.86 -51.338)" gradientUnits="userSpaceOnUse" xlink:href="#a" spreadMethod="reflect"/><linearGradient id="l" x1="-744.58" x2="-728.62" y1="296.54" y2="296.42" gradientTransform="matrix(.3253 0 0 .30413 249.86 -45)" gradientUnits="userSpaceOnUse" xlink:href="#a" spreadMethod="reflect"/><linearGradient id="m" x1="-744.58" x2="-728.62" y1="296.54" y2="296.42" gradientTransform="matrix(.3253 0 0 .30413 249.86 -38.661)" gradientUnits="userSpaceOnUse" xlink:href="#a" spreadMethod="reflect"/><linearGradient id="n" x1="-744.58" x2="-728.62" y1="296.54" y2="296.42" gradientTransform="matrix(.3253 0 0 .30413 249.86 -32.322)" gradientUnits="userSpaceOnUse" xlink:href="#a" spreadMethod="reflect"/><linearGradient id="o" x1="-744.58" x2="-728.62" y1="296.54" y2="296.42" gradientTransform="matrix(.3253 0 0 .30413 249.86 -25.983)" gradientUnits="userSpaceOnUse" xlink:href="#a" spreadMethod="reflect"/><linearGradient id="p" x1="-744.58" x2="-728.62" y1="296.54" y2="296.42" gradientTransform="matrix(.3253 0 0 .30413 249.86 -19.644)" gradientUnits="userSpaceOnUse" xlink:href="#a" spreadMethod="reflect"/><linearGradient id="q" x1="-744.58" x2="-728.62" y1="296.54" y2="296.42" gradientTransform="matrix(.3253 0 0 .30413 249.86 -13.305)" gradientUnits="userSpaceOnUse" xlink:href="#a" spreadMethod="reflect"/><linearGradient id="r" x1="-744.58" x2="-728.62" y1="296.54" y2="296.42" gradientTransform="matrix(.3253 0 0 .30413 249.86 -6.9659)" gradientUnits="userSpaceOnUse" xlink:href="#a" spreadMethod="reflect"/><linearGradient id="s" x1="-744.58" x2="-728.62" y1="296.54" y2="296.42" gradientTransform="matrix(.3253 0 0 .30413 249.86 -.62693)" gradientUnits="userSpaceOnUse" xlink:href="#a" spreadMethod="reflect"/><linearGradient id="t" x1="-744.58" x2="-728.62" y1="296.54" y2="296.42" gradientTransform="matrix(.3253 0 0 .30413 249.86 12.051)" gradientUnits="userSpaceOnUse" xlink:href="#a" spreadMethod="reflect"/><linearGradient id="u" x1="-744.58" x2="-728.62" y1="296.54" y2="296.42" gradientTransform="matrix(.3253 0 0 .30413 249.86 18.39)" gradientUnits="userSpaceOnUse" xlink:href="#a" spreadMethod="reflect"/><linearGradient id="a"><stop id="ah" stop-color="#fff" offset="0"/><stop id="ai" stop-color="#fff" stop-opacity="0" offset="1"/></linearGradient><linearGradient id="v" x1="-744.58" x2="-728.62" y1="296.54" y2="296.42" gradientTransform="matrix(.3253 0 0 .30413 249.86 5.7121)" gradientUnits="userSpaceOnUse" xlink:href="#a" spreadMethod="reflect"/><linearGradient id="w" x1="-757.66" x2="-714.75" y1="620.91" y2="356.51" gradientTransform="matrix(.3253 0 0 .30413 249.86 -60.319)" gradientUnits="userSpaceOnUse"><stop id="aj" offset="0"/><stop id="ak" stop-opacity="0" offset="1"/></linearGradient><linearGradient id="x" x1="-751.6" x2="-736.93" y1="238.11" y2="242.5" gradientTransform="matrix(.3253 0 0 .30413 249.86 -60.319)" gradientUnits="userSpaceOnUse" xlink:href="#a"/><radialGradient id="f" cx="-742.32" cy="254.22" r="5.1053" fx="-745.35" fy="255.14" gradientTransform="matrix(1 0 0 .058201 0 239.42)" gradientUnits="userSpaceOnUse"><stop id="al" stop-color="#fff" offset="0"/><stop id="am" stop-color="#fff" stop-opacity="0" offset="1"/></radialGradient><radialGradient id="d" cx="-749.72" cy="253.47" r="4.2344" gradientTransform="matrix(.83165 -.0077606 .00267 .2501 628.54 -52.241)" gradientUnits="userSpaceOnUse" xlink:href="#a"/><radialGradient id="e" cx="78.621" cy="801.52" r="5.7931" gradientTransform="matrix(1 0 0 .35714 0 515.26)" gradientUnits="userSpaceOnUse"><stop id="an" offset="0"/><stop id="ao" stop-opacity="0" offset="1"/></radialGradient><radialGradient id="b" cx="114.59" cy="801.88" r="39.873" fx="83.91" gradientTransform="matrix(1 0 0 .09009 0 729.64)" gradientUnits="userSpaceOnUse"><stop id="ap" offset="0"/><stop id="aq" stop-opacity="0" offset="1"/></radialGradient><linearGradient id="aa" x1="-511.73" x2="-406.2" y1="243.04" y2="220.15" gradientTransform="matrix(.33871 -.0090984 0 .39099 223.3 -41.016)" gradientUnits="userSpaceOnUse"><stop id="ar" stop-color="#000593" stop-opacity="0" offset="0"/><stop id="as" stop-opacity=".48014" offset=".18132"/><stop id="at" stop-opacity=".58123" offset=".5"/><stop id="au" stop-opacity=".45487" offset=".75"/><stop id="av" stop-color="#505aff" stop-opacity="0" offset="1"/></linearGradient><linearGradient id="z" x1="111.13" x2="72.224" y1="-32.401" y2="61.704" gradientTransform="matrix(.95746 0 0 .95746 .47902 2.4954)" gradientUnits="userSpaceOnUse"><stop id="aw" stop-color="#fff" offset="0"/><stop id="ax" stop-color="#fff" stop-opacity="0" offset="1"/></linearGradient><linearGradient id="y" x1="3.5878" x2="17.617" y1="60.418" y2="59.625" gradientTransform="matrix(.95746 0 0 .95746 .47902 2.4954)" gradientUnits="userSpaceOnUse"><stop id="ay" offset="0"/><stop id="az" stop-opacity="0" offset="1"/></linearGradient></defs><g id="ba"><path id="bb" d="m39.821 15.011c-8.3182 0.38571-16.628 3.5725-28.177 4.3369-0.01049-0.015952-0.021314-0.032063-0.031757-0.048017 9e-6 0.001231-7e-6 0.047565 0 0.04887-0.05744 0.003779-0.11175 0.013112-0.16935 0.016771 0.046706 0.33553 0.10896 0.66366 0.17994 0.99708 2.6214 2.3071 3.0959 56.019 0.47631 57.109 20.533 1.6353 39.052-8.3254 58.597-0.75539 10.188 5.2428 12.389 15.202 24.768 20.717 9.0751 4.0434 16.077 4.6465 27.033 4.931-4.1567-19.777-9.8519-55.585-9.5369-56.132 0.00876-0.077223 0.02504-0.15481 0.03176-0.23301-0.02264-0.002397-0.04091-0.008118-0.06351-0.010507-0.00369-3.99e-4 -0.0069 6.74e-4 -0.01057 2.84e-4 -13.567-1.4366-20.309-1.2971-32.548-6.75-12.379-5.5153-14.581-15.474-24.768-20.717-5.7348-2.9512-10.761-3.7432-15.782-3.5104z" fill="#00438a" fill-rule="evenodd" stroke="#ababab" stroke-linejoin="miter" stroke-width=".36391px"/><path id="bc" d="m39.821 15.011c-8.3182 0.38571-16.628 3.5725-28.177 4.3369-0.01049-0.015952-0.021314-0.032063-0.031757-0.048017 9e-6 0.001231-7e-6 0.047565 0 0.04887-0.05744 0.003779-0.11175 0.013112-0.16935 0.016771 0.046706 0.33553 0.10896 0.66366 0.17994 0.99708 2.6214 2.3071 3.0959 56.019 0.47631 57.109 20.533 1.6353 39.052-8.3254 58.597-0.75539 10.188 5.2428 12.389 15.202 24.768 20.717 9.0751 4.0434 16.077 4.6465 27.033 4.931-4.1567-19.777-9.8519-55.585-9.5369-56.132 0.00876-0.077223 0.02504-0.15481 0.03176-0.23301-0.02264-0.002397-0.04091-0.008118-0.06351-0.010507-0.00369-3.99e-4 -0.0069 6.74e-4 -0.01057 2.84e-4 -13.567-1.4366-20.309-1.2971-32.548-6.75-12.379-5.5153-14.581-15.474-24.768-20.717-5.7348-2.9512-10.761-3.7432-15.782-3.5104z" fill="url(#aa)" fill-rule="evenodd" opacity=".43443" stroke="#ababab" stroke-linejoin="miter" stroke-width=".36391px"/><path id="bd" d="m39.821 15.011c-8.3182 0.38571-16.628 3.5725-28.177 4.3369-0.01049-0.015952-0.021314-0.032063-0.031757-0.048017 9e-6 0.001231-7e-6 0.047565 0 0.04887-0.05744 0.003779-0.11175 0.013112-0.16935 0.016771 0.046706 0.33553 0.10896 0.66366 0.17994 0.99708 2.6214 2.3071 3.0959 56.019 0.47631 57.109 20.533 1.6353 39.052-8.3254 58.597-0.75539 79.851 66.01 45.452-51.415-30.876-61.705z" fill="url(#y)" fill-rule="evenodd"/><path id="be" d="m39.821 15.011c-8.3182 0.38571-16.628 3.5725-28.177 4.3369-0.01049-0.015952-0.021314-0.032063-0.031757-0.048017 9e-6 0.001231-7e-6 0.047565 0 0.04887-0.05744 0.003779-0.11175 0.013112-0.16935 0.016771 0.046706 0.33553 0.10896 0.66366 0.17994 0.99708 2.6214 2.3071 3.0959 24.423 0.47631 25.512 60.801-14.514 54.065 22.07 103.7 24.893-4.1567-19.777-3.1497-23.989-2.8346-24.536 0.00876-0.077223 0.02504-0.15481 0.03176-0.23301-0.02264-0.002397-0.04091-0.008118-0.06351-0.010507-0.00369-3.99e-4 -0.0069 6.74e-4 -0.01057 2.84e-4 -13.567-1.4366-20.309-1.2971-32.548-6.75-12.379-5.5153-14.581-15.474-24.768-20.717-5.7348-2.9512-10.761-3.7432-15.782-3.5104z" fill="url(#z)" fill-rule="evenodd"/><path id="bf" d="m5.9225 16.925 3.5868-12.501 3.5868 12.501v105.29h-7.1737v-105.29z" fill="#000" fill-rule="nonzero"/><path id="bg" transform="matrix(.24138 0 0 .27081 162.28 -148.21)" d="m-614.73 565.85a18.909 17.558 0 1 1-37.818 0 18.909 17.558 0 1 1 37.818 0z" fill="#000" fill-rule="nonzero"/><path id="bh" transform="matrix(.35659 0 0 .26464 272.35 -52.464)" d="m-730.1 207.94a7.3392 6.6053 0 1 1-14.678 0 7.3392 6.6053 0 1 1 14.678 0z" fill="url(#g)" fill-rule="nonzero"/><path id="bi" transform="matrix(.21871 0 0 .2403 147.92 -130.95)" d="m-614.73 565.85a18.909 17.558 0 1 1-37.818 0 18.909 17.558 0 1 1 37.818 0z" fill="url(#c)" fill-rule="nonzero" opacity=".70233"/><path id="bj" d="m6.2108 26.467c2.3803-1.895 4.6531-1.7704 6.6225-3.6496v2.9811c-2.2075 2.2065-4.415 1.331-6.6225 3.6496v-2.9811z" fill="url(#h)" fill-rule="nonzero" opacity=".70233"/><path id="bk" d="m6.2108 32.806c2.3803-1.895 4.6531-1.7704 6.6225-3.6496v2.9811c-2.2075 2.2065-4.415 1.331-6.6225 3.6496v-2.9811z" fill="url(#i)" fill-rule="nonzero" opacity=".70233"/><path id="bl" d="m6.2108 20.128c2.3803-1.895 4.6531-1.7704 6.6225-3.6496v2.9811c-2.2075 2.2065-4.415 1.331-6.6225 3.6496v-2.9811z" fill="url(#j)" fill-rule="nonzero" opacity=".70233"/><path id="bm" d="m6.2108 39.145c2.3803-1.895 4.6531-1.7704 6.6225-3.6496v2.9811c-2.2075 2.2065-4.415 1.331-6.6225 3.6496v-2.9811z" fill="url(#k)" fill-rule="nonzero" opacity=".70233"/><path id="bn" d="m6.2108 45.484c2.3803-1.895 4.6531-1.7704 6.6225-3.6496v2.9811c-2.2075 2.2065-4.415 1.3309-6.6225 3.6496v-2.9811z" fill="url(#l)" fill-rule="nonzero" opacity=".70233"/><path id="bo" d="m6.2108 51.823c2.3803-1.895 4.6531-1.7704 6.6225-3.6496v2.9811c-2.2075 2.2065-4.415 1.3309-6.6225 3.6496v-2.9811z" fill="url(#m)" fill-rule="nonzero" opacity=".70233"/><path id="bp" d="m6.2108 58.162c2.3803-1.895 4.6531-1.7704 6.6225-3.6496v2.9811c-2.2075 2.2064-4.415 1.3309-6.6225 3.6496v-2.9811z" fill="url(#n)" fill-rule="nonzero" opacity=".70233"/><path id="bq" d="m6.2108 64.501c2.3803-1.895 4.6531-1.7704 6.6225-3.6496v2.9811c-2.2075 2.2064-4.415 1.3309-6.6225 3.6496v-2.9811z" fill="url(#o)" fill-rule="nonzero" opacity=".70233"/><path id="br" d="m6.2108 70.84c2.3803-1.895 4.6531-1.7704 6.6225-3.6496v2.9811c-2.2075 2.2064-4.415 1.3309-6.6225 3.6496v-2.9811z" fill="url(#p)" fill-rule="nonzero" opacity=".70233"/><path id="bs" d="m6.2108 77.179c2.3803-1.895 4.6531-1.7704 6.6225-3.6496v2.9811c-2.2075 2.2064-4.415 1.3309-6.6225 3.6496v-2.9811z" fill="url(#q)" fill-rule="nonzero" opacity=".70233"/><path id="bt" d="m6.2108 83.518c2.3803-1.895 4.6531-1.7704 6.6225-3.6496v2.9811c-2.2075 2.2065-4.415 1.331-6.6225 3.6496v-2.9811z" fill="url(#r)" fill-rule="nonzero" opacity=".70233"/><path id="bu" d="m6.2108 89.857c2.3803-1.895 4.6531-1.7704 6.6225-3.6496v2.9811c-2.2075 2.2065-4.415 1.331-6.6225 3.6496v-2.9811z" fill="url(#s)" fill-rule="nonzero" opacity=".70233"/><path id="bv" d="m6.2108 102.53c2.3803-1.895 4.6531-1.7704 6.6225-3.6496v2.9811c-2.2075 2.2064-4.415 1.331-6.6225 3.6496v-2.9811z" fill="url(#t)" fill-rule="nonzero" opacity=".70233"/><path id="bw" d="m6.2108 108.87c2.3803-1.895 4.6531-1.7704 6.6225-3.6496v2.9811c-2.2075 2.2065-4.415 1.331-6.6225 3.6496v-2.9811z" fill="url(#u)" fill-rule="nonzero" opacity=".70233"/><path id="bx" d="m6.2108 96.196c2.3803-1.895 4.6531-1.7704 6.6225-3.6496v2.9811c-2.2075 2.2065-4.415 1.331-6.6225 3.6496v-2.9811z" fill="url(#v)" fill-rule="nonzero" opacity=".70233"/><path id="by" d="m5.9225 16.925 3.5868-12.501 3.5868 12.501v105.29h-7.1737v-105.29z" fill="url(#w)" fill-rule="nonzero"/><path id="bz" d="m8.4101 9.937-1.7218 6.9909 2.7549-0.045997 0.68872-6.8529-1.7218-0.091978z" fill="url(#x)" fill-rule="evenodd" opacity=".69767"/><path id="ca" transform="matrix(.3253 0 0 .58061 249.56 -130.7)" d="m-737.22 254.22a5.1053 0.29714 0 1 1-10.211 0 5.1053 0.29714 0 1 1 10.211 0z" fill="url(#f)" fill-rule="nonzero" opacity=".69767"/><path id="cb" d="m6.7054 18.908-0.0171-1.9802 2.7549-0.045997-1.016 2.1181-1.7218-0.091993z" fill="url(#d)" fill-rule="evenodd" opacity=".69767"/><path id="cc" transform="matrix(1.4524 0 0 1.4524 -104.83 -1041.8)" d="m84.414 801.52a5.7931 2.069 0 1 1-11.586 0 5.7931 2.069 0 1 1 11.586 0z" fill="url(#e)" fill-rule="nonzero"/><path id="cd" transform="matrix(1.6241 0 0 1.6241 -121.35 -1179.8)" d="m154.46 801.88a39.873 3.5921 0 1 1-79.745 0 39.873 3.5921 0 1 1 79.745 0z" fill="url(#b)" fill-rule="nonzero" opacity=".33953"/><path id="ce" d="m57.886 29.337c-0.49703 0.003408-1.1123 0.088773-1.6121 0.24845-0.79225 0.2531-1.8413 0.95089-2.1583 1.3932-0.4826 0.67339-0.6991 1.0755-0.75703 1.4111-0.048396 0.28032-0.092508 0.30205-0.17244 0.1394-0.16374-0.33324 0.45196-2.2435 0.95271-2.9756 0.15426-0.22554 0.17161-0.55608 0.027553-0.6935-0.24641-0.23503-1.1884 0.33482-1.8479 1.1422-0.71257 0.87249-0.97234 1.6673-0.99114 3.1026-0.020888 1.5952 0.15964 3.3798 0.33063 3.4404 0.20835 0.073831 0.88414-0.1858 1.3559-0.52076 0.47792-0.33937 1.2002-0.61368 1.2882-0.49803 0.030756 0.040435-0.56718 0.4849-1.3411 0.98824-0.86515 0.56269-1.4453 1.0186-1.4816 1.1658-0.032505 0.13172-0.11767 0.21056-0.17375 0.17242-0.11941-0.081213-0.28106-2.7379-0.32744-5.201-0.017649-0.93719-0.050494-1.6593-0.10027-1.6769-0.18429-0.0653-0.65492 0.39861-0.83426 0.83423-0.103 0.25018-0.24353 0.48163-0.28771 0.52025-0.17535 0.15327-0.55522 1.4742-0.65845 2.2903-0.19697 1.5569-0.019996 3.0633 0.48638 4.5611 0.27464 0.81237 0.72148 2.5001 0.72704 2.7044 0.003688 0.13513 0.19895 0.47831 0.24966 0.43744 0.010502-0.008464 0.25434-0.41234 0.53568-0.88053 0.31989-0.53237 0.76819-1.0475 1.1909-1.4102 0.3718-0.31903 0.69254-0.60407 0.72555-0.6185 0.052915-0.023134 1.1613-1.2321 1.3263-1.4557 0.078675-0.10665 0.62552-1.192 0.83257-1.6319 0.28674-0.60921 0.32507-0.80093 0.176-1.0692-0.12938-0.23282-0.11259-0.28782 0.42697-0.6648 0.8209-0.57355 1.44-1.2177 1.5677-1.6509 0.060207-0.20427 0.14757-0.43646 0.22136-0.53054 0.092058-0.11738 0.11623-0.23317 0.046297-0.32509-0.069936-0.091929-0.29167-0.064855-0.67138 0.095263-0.56539 0.2384-1.0081 0.45336-1.259 0.60224-0.077442 0.045948-0.23887 0.081916-0.37018 0.07551-0.13132-0.006409-0.39305 0.05821-0.57316 0.14372-0.38434 0.18248-0.50258 0.16187-0.36493-0.056584 0.054217-0.086033 0.21982-0.16473 0.37411-0.17458 0.3787-0.024194 2.0111-0.90785 2.2857-1.2405 0.32972-0.39934 0.58241-0.68401 0.80502-0.93845l0.049858-1.2549zm0.2654 0.041151c-0.072347-0.003482-0.1509-0.00609-0.23354-0.002984l-0.049857 1.2549c0.25772-0.3547 0.41702-0.60199 0.52912-0.71541 0.12235-0.12379 0.21432-0.28157 0.21348-0.3324-9.47e-4 -0.056685-0.018582-0.082337-0.09559-0.1145-0.08342-0.034843-0.21761-0.082576-0.36362-0.089608zm7.8787 1.6536c-1.1287-0.14069-1.6868-0.15003-1.9665-0.072326-0.064871 0.018024-0.13259 0.043229-0.20299 0.068206-1.0824 0.15129-2.4587 0.53269-2.8698 0.81767-0.10902 0.075568-0.36064 0.22163-0.57972 0.30884-0.57402 0.22848-2.1976 1.6805-2.6979 2.3728l-0.036738 0.92466c0.4315-0.64002 1.4453-1.8193 1.6419-1.8387 0.15118-0.014952 1.7578 2.445 1.762 2.6988 0.001851 0.11197-0.086309 0.24126-0.179 0.30452-0.30579 0.20873-1.0656 1.08-1.2241 1.4051-0.085619 0.17564-0.35888 0.66067-0.57673 1.0735-0.21787 0.41286-0.42349 0.9988-0.48507 1.2871-0.061585 0.2883-0.21909 0.88866-0.32051 1.3458-0.10141 0.45718-0.18712 1.2539-0.23673 1.7576l-0.10309 0.91438-0.62508-0.22983-0.02493 0.62745 0.65694 0.268 0.12652 1.0164c0.066729 0.5494 0.18915 1.4144 0.29014 1.9389 0.10099 0.52456 0.18783 0.96684 0.161 0.98855-0.026829 0.021716-0.19409-0.067409-0.3265-0.18353-0.24551-0.21532-0.56534-0.28174-0.56267-0.12047 0.002442 0.14726-0.27379-0.008841-0.3265-0.18353-0.035282-0.11693-0.094498-0.1861-0.15932-0.19084l-0.089219 2.2456c0.047467 0.11036 0.056393 0.19503 0.057166 0.24145 0.001354 0.081438 0.048506 0.20006 0.090341 0.2466 0.12848 0.14291 0.18022-0.066402 0.079471-0.31995-0.1524-0.38353 0.032169-0.44385 0.27065-0.090944 0.10524 0.15575 0.25832 0.31656 0.35312 0.3538 0.24596 0.096624 0.85721 0.85027 1.2095 1.4834 0.201 0.36124 0.34972 0.55568 0.47664 0.60554 0.12923 0.050766 0.2294 0.18716 0.31732 0.4147 0.071087 0.18399 0.26531 0.45208 0.41029 0.59525 0.31389 0.30998 1.0589 1.4834 1.0676 1.694 0.006112 0.14859-1.4976 1.3923-1.6222 1.3434-0.03647-0.01433-0.27488-0.33973-0.50588-0.70976-0.51223-0.82054-1.2847-2.357-1.6097-3.1736-0.25466-0.63993-0.4592-1.1778-0.63501-1.6601l-0.039361 0.99071c0.040432 0.095373 0.079668 0.18997 0.1222 0.28476 0.10366 0.23101 0.33278 0.7375 0.49013 1.106 0.26628 0.62364 0.76406 1.6566 1.1741 2.375 0.42358 0.74218 1.8823 2.9027 2.2692 3.3755 0.75237 0.91931 1.2229 1.4955 1.5932 1.9084 0.15205 0.28557 0.28226 0.51115 0.34394 0.58496 0.089686 0.10733 0.26568 0.35629 0.37842 0.55708 0.29088 0.51805 0.87353 1.3521 1.1698 1.6434 0.1386 0.13629 0.35474 0.3612 0.48057 0.50647 0.12584 0.14528 0.36588 0.3583 0.51506 0.47859 0.14917 0.12029 0.30068 0.27822 0.35312 0.3538 0.16048 0.23131 1.8801 1.1307 2.3545 1.229 0.23481 0.04865 0.44186 0.087912 0.46445 0.072016 0.022583-0.015892 0.20432-0.005445 0.39942 0.028704 0.21479 0.0376 0.43391 0.022155 0.66875-0.029216l0.023616-0.59443c-0.037715-0.010761-0.089811 0.009257-0.13532 0.04547-0.050356 0.040065-0.21783 0.066864-0.37018 0.075511-0.15235 0.00865-0.36811 0.050336-0.4697 0.06008-0.28734 0.027567-1.6266-0.48244-1.7757-0.67406-0.042173-0.054171-0.082375-0.4613-0.074971-1.4736 0.011679-1.5961 0.00877-1.5571 0.48507-1.2871 0.33528 0.19005 1.06 0.37266 1.2554 0.32757 0.10772-0.02485 0.13208 0.00954 0.1938 0.16296 0.042099 0.10464 0.14033 0.23366 0.18987 0.26203 0.13742 0.07871 0.484-0.14584 0.81982-0.47097l0.27028-6.8029c-0.074934-0.12526-0.056521-0.33825 0.03149-0.79257 0.014827-0.076551-0.001292-0.11063 0.00656-0.16512l0.011808-0.29721c-0.00692-0.075909 0.001222-0.14718-0.022678-0.26933-0.039899-0.20392-0.094562-0.40404-0.11696-0.41686-0.10112-0.057917 0.047315-0.55219 0.19736-0.76685l0.23748-5.9773c-0.004455-0.012553 0.006106-0.021109 0.001312-0.033024-0.049858-0.12392-0.1188-0.31197-0.11827-0.38384 5.28e-4 -0.071869-0.025561-0.19268-0.089029-0.27962-0.063468-0.086945-0.1404-0.23776-0.15407-0.32293-0.019619-0.1222-0.029917-0.1295-0.096902-0.08148-0.10308 0.073902-0.20468-0.11774-0.30945-0.61284-0.038359-0.18129-0.11301-0.39529-0.14751-0.48805-0.053444-0.14373-0.032336-0.22003 0.084719-0.45204 0.19401-0.38454 0.75734-1.2022 0.8142-1.1696 0.020066 0.011492 0.086113 0.14603 0.15407 0.32293l0.059041-1.4861c-0.049994 0.023244-0.090515 0.018413-0.096901-0.08148-0.002627-0.041018 0.004182-0.14374 0.009184-0.23117 0.004998-0.08743-0.022779-0.31383-0.079844-0.51079-0.10195-0.35186-0.10336-0.3847-0.014807-0.46748 0.03232-0.030217 0.067488-0.048422 0.10215-0.050615 0.034662-0.002192 0.064284 0.026818 0.098214 0.048454 0.015446 0.009848 0.016977 0.024093 0.031862 0.038168l0.13777-3.4675c-0.001566 0.21336-0.004756 0.25168-0.20561 0.13426-0.12004-0.07018-0.30071-0.14409-0.39417-0.1608-0.13725-0.024543-0.23695-0.12526-0.48057-0.50647-0.41811-0.65424-0.64368-0.94786-1.0157-1.3204-0.17637-0.17664-0.40575-0.44081-0.5443-0.5828-0.13856-0.14199-0.46501-0.3846-0.67962-0.53733l-0.39023-0.25987 0.023243-1.4252 0.024556-1.4582 0.35968 0.18868c0.026026 0.01275 0.03659 0.027194 0.065038 0.043312 0.19915 0.11283 0.45712 0.30002 0.6159 0.461 0.17635 0.1788 0.48169 0.46486 0.67569 0.6364 0.45809 0.40508 0.78153 0.83275 1.5547 2.0353 0.16835 0.26183 0.31819 0.50267 0.34656 0.51892 0.011614 0.006649 0.084617 0.15404 0.12483 0.21872l0.01837-0.46233c-0.40691-0.66796-0.82073-1.3496-1.0052-1.5846-0.25933-0.33049-1.1553-1.3219-1.759-1.9341-0.17657-0.17906-0.63544-0.46537-1.1057-0.7363-0.47022-0.27093-0.94227-0.51681-1.1135-0.53816zm-0.7814 0.34402c0.18887 0.043378 0.43591 0.10072 0.56267 0.12047 0.12676 0.019747 0.46337 0.15503 0.7233 0.27828l0.45921 0.20411-0.04911 2.9164-0.36099-0.15565c-0.20243-0.083858-0.48695-0.17647-0.6264-0.19681-0.13944-0.020331-0.4282-0.062866-0.63033-0.097735-0.20214-0.034869-0.37569-0.032748-0.40073 0.00432-0.025028 0.03707-0.068007 0.070167-0.10215 0.050615-0.083128-0.047612-0.69492 0.21366-1.1197 0.4577-0.23062 0.061892-0.44503 0.12214-0.57448 0.17674-0.28708 0.12109-0.76718 0.36553-1.056 0.53404-0.28882 0.16851-0.54992 0.29562-0.61159 0.27067-0.061658-0.024955-0.47478-0.62178-0.91616-1.305s-0.81307-1.2985-0.81401-1.3556c-0.002709-0.16292 1.1792-0.84603 2.084-1.2053 0.099349-0.039447 0.37233-0.14259 0.61028-0.23765 0.23795-0.095054 0.59837-0.18143 0.77484-0.1789 0.17646 0.002522 0.32514-0.019627 0.36886-0.042487 0.021761-0.011381 0.18566-0.012605 0.26803-0.024897 0.17548-0.065109 0.4926-0.15817 0.77615-0.21193 0.15366-0.029128 0.44539-0.044712 0.63427-0.001335zm3.093 2.8055c-0.07582-0.01239-0.14441-0.015526-0.23354-0.002984-0.14769 0.020786-0.3292 0.011514-0.39942-0.028703-0.1566-0.089688-0.368-0.075013-0.36886 0.042488-3.5e-4 0.047646 0.047647 0.15741 0.091652 0.21357 0.044003 0.056165 0.10659 0.16567 0.1567 0.25689 0.24302 0.44252 0.34161 0.53971 0.25622 0.27232-0.029754-0.093167-0.027849-0.25707-0.018743-0.36841 0.014842-0.18148 0.034522-0.17924 0.30251-0.052775 0.53462 0.25229 0.76482 0.23453 0.60371-0.072527-0.038606-0.073581-0.1224-0.15329-0.19249-0.19598-0.058407-0.03558-0.12192-0.051495-0.19774-0.063888zm-2.3682 0.79576c0.14705 0.030677 0.28594 0.073055 0.42865 0.13292 0.20237 0.084885 0.40408 0.18911 0.49107 0.24228 0.028991 0.017719 0.027164 0.029801 0.031864 0.038166 0.018793 0.033457 0.048637 0.67964 0.043108 1.4355-0.011399 1.558-0.047583 1.5696-0.42135 1.3634-0.37401-0.20634-1.4438-0.17888-1.6374 0.045161-0.038394 0.044437-0.1549 0.10052-0.27196 0.12397-0.11706 0.023448-0.34212 0.16554-0.4802 0.32427-0.32924 0.37847-0.50441 0.50049-0.61815 0.43579l0.001312-0.033023c-0.11739-0.075131-0.48178-0.52513-0.9201-1.2059-0.41789-0.64909-0.74937-1.2239-0.75029-1.2793-0.00279-0.1681 0.70679-0.68682 1.032-0.77034 0.15649-0.040194 0.48632-0.1814 0.78009-0.311 0.012406-0.010758 0.022415-0.017254 0.034487-0.027879 0.17882-0.15737 0.39901-0.2993 0.51338-0.31913 0.11436-0.019827 0.25295-0.069168 0.30382-0.085799 0.52059-0.17014 0.9985-0.20108 1.4397-0.10905zm5.0732 0.85307-0.018368 0.46233c0.10366 0.10039 0.20824 0.14748 0.35443 0.32078 0.24752 0.29342 0.49861 0.60527 0.57354 0.68702 0.074923 0.081755 0.26455 0.33851 0.44477 0.56737 0.18022 0.22886 0.48845 0.58914 0.66913 0.80152 0.56968 0.66966 1.0575 1.483 1.0013 1.6837-0.057827 0.20619-1.2003 1.0771-1.3424 1.0213-0.053176-0.020891-0.19955-0.28064-0.31207-0.5468-0.11252-0.26615-0.39304-0.79243-0.65338-1.1978-0.26035-0.40538-0.46836-0.77924-0.46876-0.80368-4.11e-4 -0.024448 0.032932-0.010729 0.099526 0.015432 0.18105 0.071121 0.12467-0.19472-0.08247-0.44474-0.19464-0.23494-0.31053-0.30655-0.35837-0.2217l-0.14301 3.5996c0.22804 0.13735 0.43307 0.42278 0.43821 0.73249 0.003985 0.24008-0.29823 0.48365-0.48807 0.52241l-0.059043 1.4861c0.30884 0.46416 0.77445 1.2675 0.84194 1.4929 0.044742 0.14943 0.097224 0.46876 0.073284 0.67591-0.039176 0.33898-0.036959 0.38589 0.14488 0.5541 0.2912 0.26935 0.6192 0.91598 0.77296 1.5486 0.13181 0.54233 0.10134 0.54464-0.09784 0.78228-0.11077 0.13216-0.18115 0.287-0.18031 0.33754 0.002968 0.17914-0.34614 0.12391-0.43128-0.066871-0.028484-0.06381-0.003811-0.23012 0.04892-0.39114 0.087956-0.26861 0.069947-0.32471-0.10908-0.615-0.25184-0.40835-0.33145-0.44287-0.59322-0.19166-0.1739 0.16689-0.24091 0.17607-0.33569 0.047632-0.064653-0.087616-0.11939-0.22708-0.12089-0.31779-0.001364-0.081992-0.076463-0.23263-0.15275-0.35596l-0.23748 5.9773c0.060143-0.046853 0.15045-0.098079 0.2043-0.10123 0.10424-0.006116 0.20796-0.018596 0.23616-0.063064 0.028198-0.044466 0.16925-0.043015 0.33306 0.018417 0.43576 0.1634 1.0142 0.085667 1.0402-0.13775 0.011819-0.10127 0.083451-0.17992 0.17375-0.17242 0.25673 0.021324 0.081523-0.25286-0.18856-0.29505-0.34052-0.0532-0.42032-0.16312-0.70099-0.83969-0.2444-0.58913-0.32622-0.82437-0.13439-0.81829 0.063943 0.002027 0.13169 0.023927 0.26409 0.074176 0.12221 0.046386 0.27027 0.12401 0.4592 0.20411l0.88655 0.37005 0.001687 0.79772c-0.006258 1.1537-0.24748 2.0393-0.93528 3.3771-0.34574 0.67243-1.0707 1.4397-1.256 1.3669-0.04651-0.018267-0.10545-0.21564-0.14882-0.45503-0.061419-0.33901-0.10394-0.45714-0.24572-0.53651-0.033726-0.01888-0.072424-0.056931-0.096902-0.081479l-0.27028 6.8029c0.19156-0.09603 0.38514-0.19872 0.54655-0.31398 0.13474-0.096224 0.38211-0.19154 0.50944-0.22005 0.32554-0.072888 1.3044-0.58426 1.5336-0.79226 0.10534-0.095598 0.22551-0.17638 0.27328-0.15699 0.17509 0.071084 1.6935 2.4477 1.697 2.6555 0.004024 0.24271-1.1332 0.97643-1.9182 1.231-0.28216 0.091516-0.6385 0.20748-0.77878 0.27797-0.26914 0.13526-0.80662 0.26505-0.91016 0.22438-0.033699-0.013231-0.26241 0.018605-0.50288 0.054936-0.24047 0.036338-0.47518 0.040165-0.53474 0.016768-0.005729-0.002248-0.026162-0.003533-0.033175-0.005145l-0.023618 0.59443c0.33239-0.020141 0.70138-0.057708 1.0402-0.13775 0.27012-0.063802 0.5807-0.13511 0.70587-0.12314 0.23942 0.022888 1.1201-0.27252 1.6584-0.57354 0.1748-0.097766 0.41214-0.2159 0.54392-0.24793 0.41933-0.10192 2.2803-1.6392 2.7271-2.2686 0.12485-0.17587 0.17689-0.29742 0.28508-0.4542l0.002623-0.066048c0.55826-0.67552 0.94815-1.2307 1.1298-1.5526 0.22727-0.40264 1.1464-2.5725 1.1426-2.7136-0.001993-0.073253 0.046284-0.31444 0.12052-0.51295 0.36487-0.97566 0.38996-4.6523 0.044614-7.004-0.1767-1.2033-0.79139-3.3225-1.1735-4.0695-0.061638-0.1205-0.1841-0.44198-0.27102-0.73979-0.086931-0.29781-0.20722-0.63883-0.27102-0.73979-0.0075-0.011869-0.015795-0.044926-0.030552-0.071192-0.059374-0.12379-0.11146-0.28432-0.182-0.46017-0.15257-0.38036-0.72304-1.6284-1.0745-2.3596-0.50737-1.0554-2.3258-4.0085-2.7288-4.4104-0.12987-0.12952-0.40086-0.47194-0.60409-0.75821-0.20324-0.28626-0.54598-0.66793-0.73285-0.87786-0.20869-0.23442-0.6727-0.68671-1.0912-1.0996zm-17.823-2.5642c0.20887 0.074015 0.19513 0.43075-0.015745 0.39628-0.13606-0.022232-0.17799-0.058667-0.158-0.22386 0.014181-0.11716 0.094298-0.20058 0.17375-0.17242zm14.028 2.308c0.014292-0.002742 0.064009-0.002401 0.099525 0.015433 0.24861 0.12484 0.94295 0.72712 1.2265 1.0541 0.46579 0.53701 0.60433 0.68599 0.76472 0.91602 0.36587 0.52475 0.53205 0.79452 0.53118 0.91304-5.26e-4 0.071449 0.043434 0.26442 0.11696 0.41686 0.073527 0.15244 0.1317 0.36182 0.14751 0.48805 0.015806 0.12623 0.083651 0.43595 0.14095 0.65317 0.072805 0.27601 0.12148 0.54431 0.12914 0.95038 0.010154 0.53813-0.028343 0.60526-0.12314 0.579-0.070627-0.019562-0.11762-0.17376-0.21517-0.46532-0.15139-0.45243-0.25191-0.56839-0.25359-0.33836-5.74e-4 0.078696 0.036736 0.1622 0.059791 0.1754 0.023051 0.013204 0.066947 0.22538 0.082469 0.44474 0.01553 0.21936 0.025121 0.4298 0.047982 0.47262 0.049999 0.093664 0.07249 0.26984 0.02399 0.23631-0.018945-0.013095-0.13464-0.26687-0.24572-0.53651-0.16643-0.40404-0.17793-0.50148-0.11302-0.51593 0.093014-0.020699 0.10535-0.34496 0.015746-0.39628-0.034-0.019473-0.12461 0.027643-0.17112 0.10638-0.099536 0.16848-0.25176 0.080825-0.39286-0.19382-0.20017-0.38965-1.09-1.4269-1.467-1.7227-0.20971-0.16448-0.39031-0.34495-0.41816-0.39711-0.071037-0.13306-0.059318-2.8415 0.01331-2.8555zm-9.5702-1.0852c-0.055025 0.063232-0.17977 0.15208-0.20824 0.2003-0.07404 0.12538-0.25994 0.39581-0.42434 0.59875-0.75451 0.93134-0.97324 1.3033-1.4359 2.5352-0.82906 2.2075-0.96904 3.197-0.89574 5.7423 0.06498 2.2563 0.26086 3.5357 0.85562 5.3493 0.60836 1.8551 0.95669 2.7785 1.3909 3.6381l0.039361-0.99071c-0.54903-1.2588-0.85814-2.1482-1.1679-3.3709-0.43957-1.7351-0.76376-4.009-0.60428-4.1142 0.033377-0.022016 0.41302 0.098194 0.92366 0.27612 0.1702 0.059309 0.33579 0.11003 0.52687 0.18138l0.59191 0.22468 0.024928-0.62745-0.65826-0.23497c-0.7769-0.26086-1.4162-0.49928-1.4466-0.55657-0.094393-0.17774 0.054031-2.298 0.21892-2.9897 0.43983-1.8452 0.87343-2.9771 1.3452-3.6125 0.099095-0.13348 0.21514-0.29355 0.24797-0.36028 0.032834-0.06672 0.11585-0.18155 0.17637-0.23847 0.060515-0.056912 0.14838-0.23961 0.21611-0.39845 0.028937-0.067871 0.14906-0.20676 0.24666-0.32725l0.036738-0.92466zm17.647 2.8026c-0.060776-0.023871-0.095478-0.018737-0.13401 0.012447-0.10277 0.083164-0.083055 0.14167 0.11696 0.41686 0.12486 0.1718 0.49211 0.92166 0.83538 1.658 0.47158 1.0115 0.93854 1.8105 1.4661 2.5864 0.42298 0.52704 0.8605 1.0342 1.4059 1.5803 0.20186 0.20213 0.37889 0.42497 0.38105 0.49104 0.005654 0.17304-0.030062 0.14524-0.45265-0.36923-0.20946-0.255-0.50817-0.52019-0.64382-0.59824-0.13564-0.078043-0.46913-0.41314-0.7381-0.74576-0.5464-0.78783-1.1833-1.5352-1.3396-1.57-0.022738-0.005069-0.034942 4.96e-4 -0.034486 0.02788 5.01e-4 0.030517 0.11442 0.37688 0.23654 0.76767 0.18201 0.58248 0.61111 1.5361 1.0745 2.3596l-0.001312 0.033023c0.007828 0.013835 0.024012 0.024417 0.031861 0.038168 0.18263 0.26888 0.36708 0.53256 0.53774 0.74792 0.45448 0.57352 0.46865 0.59047 0.33738 0.75008-0.12472 0.15165-0.098256 0.25083 0.10252 0.78012 0.12203 0.32169 0.27591 0.78064 0.36005 1.0194 0.26442 0.75034 0.70169 1.6346 1.0785 2.2605 0.19986 0.33202 0.44059 0.82321 0.55779 1.0833 0.11721 0.2601 0.31237 0.55878 0.40766 0.6613 0.15692 0.16882 0.8867 1.2796 1.4805 2.2232 0.12747 0.20258 0.46108 0.84069 0.74372 1.4444 0.49266 1.0523 0.52146 1.1072 0.6307 0.92847 0.06268-0.10254 0.21674-0.5507 0.33925-0.97744 0.12251-0.42674 0.31511-0.98718 0.41741-1.2644 0.55559-1.5056 0.50995-3.8531-0.13138-5.9348-0.38312-1.2435-1.381-3.2869-1.635-3.3769-0.047918-0.016977-0.067918 0.79581-0.038987 1.8215 0.082067 2.9088 0.070922 4.845-0.058858 4.842-0.061808-0.001395-0.12839-0.024632-0.13008-0.086623-0.00587-0.21529-0.43972-0.89288-1.8603-2.7472-1.1349-1.4815-1.3878-1.8128-1.1366-1.6382 0.17389 0.12084 0.67428 0.68048 1.1191 1.2368 0.96188 1.2029 1.4371 1.6819 1.6023 1.6772 0.23368-0.006562 0.23492-3.6983 0.004691-4.3188-0.06284-0.16932-0.18767-0.63108-0.29239-1.0422-0.12563-0.49314-0.35732-1.0281-0.67081-1.5992-0.53271-0.97058-1.7174-2.6098-1.9624-2.6966-0.24465-0.086695-0.28027 0.18323-0.089968 0.58414 0.094175 0.1984 0.2494 0.49521 0.34 0.68403 0.50283 1.048 0.87016 2.7565 0.50794 2.3382-0.081247-0.093819-0.14985-0.23642-0.15407-0.32293-0.004209-0.086517-0.1745-0.45805-0.36924-0.78825-0.19474-0.3302-0.424-0.74828-0.52987-0.94606-0.14616-0.27306-0.77721-1.0096-1.3688-1.6742-0.26738-0.35438-0.51385-0.70825-0.69837-0.90574-0.20695-0.22149-0.67678-0.64672-1.0301-0.95718-0.35376-0.31082-0.51329-0.45423-0.61459-0.49402zm-20.784-1.9601c0.016948-0.012306 0.039871 9.04e-4 0.066351 0.010288 0.1234 0.043732 0.14926 0.10502 0.027927 0.13724-0.052088 0.013828-0.12855-0.03076-0.13008-0.086623-7.61e-4 -0.027931 0.01885-0.048596 0.035799-0.060904zm6.914 1.5704c0.16252 0.066038 1.7604 2.4763 1.7633 2.6658 0.001109 0.071598-0.20056 0.29829-0.42041 0.49968-0.21986 0.20138-0.44646 0.53038-0.52912 0.71541-0.082664 0.18504-0.3283 0.54306-0.49988 0.81963-0.17158 0.27656-0.29433 0.56979-0.29296 0.65235 0.001364 0.082556-0.025169 0.26708-0.082095 0.386-0.1126 0.23522-0.24959 0.80633-0.37468 1.8691-0.14517 1.2334 0.07569 1.168-1.2935 0.63012-0.6577-0.25836-1.2519-0.52133-1.2794-0.56387-0.055773-0.086367-0.004324-0.7585 0.09353-1.5139 0.18349-1.4166 0.22082-1.7087 0.352-2.1384 0.078439-0.25694 0.22492-0.59658 0.29689-0.75142 0.68912-1.4829 0.95144-1.9958 1.3656-2.4464 0.26466-0.28798 0.55113-0.59557 0.62864-0.69998 0.077515-0.10441 0.19632-0.1547 0.27196-0.12396zm4.7392 1.6984c0.11726 0.02344 0.23606 0.057599 0.3623 0.12263l0.35968 0.18868 0.011244 1.3973c0.003117 1.6037-0.002697 1.6175-0.38948 1.4016-0.12788-0.071372-0.30119-0.095376-0.36493-0.056584-0.063731 0.038796-0.1498 0.028577-0.20036 0.00216-0.15696-0.081994-0.91156 0.30137-1.056 0.53404-0.075438 0.12152-0.18092 0.21595-0.20824 0.2003-0.027313-0.015644-0.25455-0.60414-0.51544-1.3093l-0.4504-1.266 0.14189-0.21059c0.42845-0.50918 0.55545-0.63744 0.66051-0.66181 0.061642-0.014299 0.17489-0.074272 0.27327-0.15699 0.098381-0.082718 0.30982-0.16396 0.44046-0.16429 0.13065-3.33e-4 0.37869-0.018745 0.56923-0.04465 0.11892-0.016163 0.24898 1.22e-4 0.36624 0.023561zm-18.457-2.5628c-0.075241-0.026661-0.18215 0.032399-0.20692 0.16728-0.072956 0.39711-0.014392 2.0149 0.086215 2.8709 0.079096 0.67291 0.19442 1.1804 0.68206 2.9965 0.031012 0.11547 0.078527 0.2504 0.12089 0.31779 0.042355 0.067381 0.18385 0.384 0.30551 0.71191 0.20799 0.56057 0.71826 1.5379 1.3055 2.4286 0.14206 0.21551 0.3632 0.61855 0.46483 0.90275 0.18766 0.52472 0.54108 1.1113 0.72105 1.1751 0.054422 0.019287 0.18392-0.093222 0.27721-0.25606 0.093296-0.16283 0.23158-0.47988 0.29558-0.71839 0.063994-0.23852 0.3306-0.85854 0.62171-1.3656 0.29112-0.50706 0.54384-0.98742 0.54224-1.0456-0.001587-0.058231 0.038234-0.1585 0.11002-0.24876 0.31768-0.39941 0.77227-3.5234 0.60053-4.1932-0.11174-0.4358-0.33889-0.38387-0.57316 0.14372-0.1158 0.26077-0.39852 0.63604-0.60072 0.83722-0.2022 0.20118-0.46764 0.5562-0.59809 0.77117-0.33134 0.54601-0.85746 1.8549-0.85094 2.0943 0.008775 0.32194-0.16967 0.63567-0.3235 0.58116-0.090072-0.031917-0.17342-0.19187-0.21648-0.43229-0.22816-1.2737-0.42947-1.9185-0.91297-3.0656-0.16186-0.38398-0.27038-0.7162-0.27102-0.73979-6.47e-4 -0.023589-0.15273-0.29918-0.31076-0.57982-0.15804-0.28063-0.32449-0.69078-0.39717-0.92549-0.072677-0.23472-0.19228-0.48831-0.24441-0.56953-0.074015-0.1153-0.49134-1.6427-0.49575-1.8047-5.23e-4 -0.019688-0.056151-0.026937-0.13139-0.053599zm19.474 3.0195 0.35706 0.25472c0.3025 0.18742 0.49769 0.35344 0.80445 0.75605 0.21788 0.28595 0.44058 0.55111 0.47795 0.57252 0.037372 0.021403 0.168 0.23107 0.3147 0.48075 0.14669 0.24968 0.32849 0.56513 0.40635 0.69432 0.1378 0.22864 0.30003 0.57136 0.64551 1.3959l0.18462 0.39412-0.49726 0.75358c-0.26943 0.40159-0.53145 0.6939-0.56098 0.67724-0.029533-0.01666-0.11466-0.23991-0.21386-0.49834-0.26323-0.68576-1.2262-2.037-1.58-2.2386-0.093137-0.053081-0.22426-0.18824-0.28939-0.27746l-0.094278-0.14753 0.021931-1.3921 0.023242-1.4252zm7.3068 1.7643c0.21474 0.081372 1.827 3.1097 2.174 4.0918 0.032199 0.091126 0.12431 0.3062 0.21386 0.49834 0.1581 0.33921 0.30936 0.8193 0.48095 1.3372l-0.001312 0.033023c0.004956 0.014958 0.026879 0.023145 0.031863 0.038168 0.37552 0.94766 0.76249 2.1129 1.1015 3.3606 0.22638 0.83309 0.41236 1.9934 0.4817 2.9987l0.038798 0.70378-1.416-0.48538c-0.27611-0.092732-0.31363-0.11393-0.49369-0.17623l-0.001313 0.033025c-0.57929-0.22346-0.75788-0.33564-0.81364-0.52488-0.039693-0.13471-0.086448-0.59994-0.1252-1.0495-0.081806-0.94885-0.43175-2.5316-0.84437-3.952-0.094363-0.32482-0.1908-0.76514-0.19549-0.96067-0.006334-0.26411-0.097582-0.56217-0.38798-1.1567-0.50433-1.0324-1.4929-2.8002-1.5896-2.8382-0.041168-0.016172-0.14342-0.16854-0.22042-0.33322l-0.1222-0.28477 0.79452-0.67426c0.45308-0.36721 0.85884-0.67217 0.89405-0.65883zm-10.989-0.67377 0.24572 0.53651c0.12475 0.29197 0.34601 0.86 0.48357 1.2712l0.23785 0.73465-0.11002 0.24876c-0.062833 0.12081-0.16856 0.35655-0.22136 0.53054-0.10958 0.36116-0.30509 0.62503-0.46014 0.65965-0.063477 0.014179-0.081642 0.086479-0.074223 0.18785 0.008459 0.11554-0.073367 0.2247-0.24666 0.32725-0.031257 0.018495-0.041139 0.063618-0.070288 0.088782-0.37993 0.16676-0.63645 0.50444-0.63652 0.89812-2.2e-5 0.13079-0.10157 0.31784-0.18293 0.40359-0.12288 0.1295-0.20267 0.12946-0.59978-0.026543-0.26296-0.1033-0.52593-0.23886-0.55611-0.28559-0.14533-0.22504-0.014962-0.94813 0.36643-2.5017 0.2141-0.87215 0.89895-2.1808 1.4067-2.6394l0.38067-0.3397 0.037111-0.093928zm2.5579 1.9915c0.22418-0.008929 0.44748 0.06056 0.62771 0.16378l0.19643 0.09691-0.021931 1.3921-0.021931 1.3921-0.16719 0.007305c-0.10621-0.008722-0.20879-0.083391-0.26016-0.17325-0.067387-0.11789-0.11107-0.097482-0.27327 0.15699-0.10888 0.17081-0.23387 0.31526-0.27852 0.28908-0.044652-0.026176-0.27538-0.59035-0.51806-1.2433-0.24269-0.65293-0.44949-1.2434-0.44908-1.299 0.001133-0.1558 0.16786-0.34238 0.52387-0.58332 0.1737-0.11756 0.41796-0.19055 0.64214-0.19948zm1.0524 0.39577 0.19512 0.12994c0.25411 0.14554 0.90279 0.78142 0.99563 0.98506 0.037466 0.082175 0.16013 0.31137 0.28021 0.50863 0.12008 0.19726 0.27536 0.50493 0.34 0.68403l0.12089 0.31779-0.1327-0.020575c-0.067552-0.00348-0.14719 0.058226-0.17244 0.1394-0.025252 0.081175-0.082469 0.16022-0.13926 0.14454-0.056784-0.01567-0.095674 0.029677-0.10477 0.11666-0.020761 0.1984 0.052187 0.26617 0.16194 0.12479 0.048794-0.062859 0.12107-0.070827 0.16719-0.007303 0.0686 0.094484 0.04828 0.13079-0.079471 0.31995-0.13749 0.20358-0.12372 0.21869-0.23485 0.03004-0.13352-0.22665-0.19051-0.16345-0.24403 0.2612-0.05122 0.40639-0.065923 0.42619-0.14845 0.37571-0.045011-0.027534-0.13207-0.16324-0.18855-0.29505-0.056477-0.13181-0.12299-0.28122-0.15407-0.32293-0.044735-0.060038-0.039648-0.091099 0.006559-0.16512 0.081752-0.13094 0.075755-0.61826-0.006933-0.66562-0.036194-0.020726-0.11896 0.076764-0.17506 0.20545-0.089675 0.20567-0.13659 0.20704-0.30382 0.085799l-0.19512-0.12994 0.023243-1.4252-0.011245-1.3973zm4.1748 0.78024 0.28677 0.34351c0.13715 0.17159 0.28378 0.32656 0.35312 0.3538 0.06934 0.027241 0.17174 0.16284 0.22173 0.3002 0.10672 0.29322 0.68732 1.0513 1.0794 1.3968 0.17837 0.15718 0.39518 0.45915 0.59884 0.8903 0.32592 0.68999 0.31487 0.67904 0.80708 0.69 0.14408 0.003211 0.20253 0.081989 0.34787 0.48589 0.15024 0.41754 0.43588 1.815 0.70211 3.3319 0.070279 0.40042 0.12137 1.1878 0.10552 1.5448-0.003906 0.087906-0.27978-0.027159-1.1864-0.38332-1.0783-0.42357-1.2038-0.46022-1.2436-0.62478-0.11028-0.45555-0.17289-1.5895-0.095026-1.809 0.091166-0.25695 0.001732-1.3014-0.11339-1.3467-0.038286-0.015039-0.043233 0.061346-0.041048 0.193 0.004437 0.26742-0.1224 0.29791-0.20168 0.035183-0.11455-0.37958-0.085531-0.65308 0.089967-0.58414 0.1532 0.060184 0.16899 0.028 0.11265-0.3148-0.034475-0.20973-0.070766-0.45439-0.11171-0.54896-0.061077-0.14106-0.12823-0.15299-0.16719 0.007304-0.026123 0.10745-0.028723 0.19784-0.041049 0.193-0.012326-0.004838-0.13986-0.16195-0.28546-0.37653-0.18934-0.27904-0.23914-0.46652-0.20992-0.59741 0.068054-0.3049-0.14909-0.69388-0.40242-0.79339-0.18309-0.071918-0.23514-0.14348-0.31601-0.44772-0.054166-0.20377-0.2143-0.5583-0.36924-0.78825-0.33361-0.49511-0.35205-0.68694-0.095964-0.94524l0.17506-0.20544zm9.2135 1.6612c0.095626 0.041031 0.14587 0.18456 0.15144 0.38898 0.006731 0.24695-0.085398 0.23022-0.26671-0.008129-0.15906-0.20908-0.18257-0.3638-0.018744-0.3684 0.044108-0.001242 0.10214-0.026122 0.13401-0.012449zm-15.853-1.7271c0.060876 0.034864 0.69834 1.6452 0.69743 1.7695-6.04e-4 0.082479-0.10176 0.19564-0.13926 0.14454-0.004224-0.005758-0.063335-0.097353-0.12614-0.1857-0.062802-0.088337-0.17957-0.29195-0.24834-0.47046-0.089492-0.23227-0.16929-0.35056-0.28414-0.40956-0.088267-0.045336-0.17849-0.13956-0.19249-0.19598-0.028614-0.11532 0.2281-0.68949 0.29296-0.65235zm7.4116 1.6476c-0.029171-0.012154-0.071387 0.02247-0.070286 0.088783 0.001854 0.11205 0.2633 0.5744 0.31207 0.5468 0.018267-0.010338-0.026168-0.15775-0.087718-0.31264-0.070572-0.1776-0.10546-0.30268-0.15407-0.32293zm-1.2935 0.63012c-0.067809 0.010217-0.12082 0.090496-0.14451 0.27664l-0.040673 1.0237c0.049398-0.006496 0.10926-0.020631 0.1685-0.040326 0.22559-0.075012 0.21182-0.078898 0.078159-0.28693-0.13362-0.20796-0.12981-0.23452 0.046296-0.32509 0.23248-0.11958 0.20339-0.54157-0.041422-0.63774-0.030337-0.011919-0.043748-0.013693-0.066351-0.01029zm-0.17768 0.2715c-0.016235 0.18112-0.06437 0.39912-0.12052 0.51295-0.16648 0.3375-0.11396 0.57679 0.079846 0.51078l0.040674-1.0237zm-1.3454 0.25658c0.014152 0.007977 0.022808 0.013819 0.031864 0.038167 0.04828 0.12985-0.052223 0.3915-0.14845 0.37571-0.05518-0.009051-0.038267-0.062251-0.026615-0.17026 0.016501-0.15303 0.081883-0.27818 0.1432-0.24361zm-2.5226-0.35792c0.008459-0.012518 0.020541-0.002094 0.033175 0.005143 0.025276 0.014476 0.062798 0.056893 0.062414 0.10936-3.8e-4 0.052466-0.010522 0.075377-0.035799 0.060904-0.025272-0.014476-0.062798-0.056895-0.062414-0.10936 1.92e-4 -0.026234-0.005831-0.053529 0.002624-0.066047zm2.7073 0.75204c0.004885-0.007579 0.023749 8e-5 0.033177 0.005144 0.065987 0.035436 0.21601 0.35009 0.21517 0.46532-0.002212 0.30213-0.26309 0.4522-0.27327 0.15699-0.006739-0.19511 0.004614-0.59594 0.024927-0.62745zm-21.565-3.3105c-0.070137 0.046252 0.2002 1.5855 0.38048 2.1855 0.4485 1.4928 0.78985 2.4896 1.1094 3.1625 0.36732 0.77347 1.607 2.6428 2.1099 3.1847 0.15327 0.16518 0.40719 0.44509 0.54299 0.61582 0.1358 0.17075 0.62114 0.77975 1.082 1.3307 0.46089 0.55098 0.84026 1.0177 0.859 1.0636 0.064993 0.15895 0.31659 0.17468 0.36624 0.02356 0.027457-0.083548 0.02248-0.76368-0.005996-1.5294-0.047786-1.2847-0.030111-1.8905 0.2028-3.4242 0.13472-0.88703-0.089115-2.5291-0.5711-4.109-0.23505-0.7705-0.38945-1.1488-0.51937-1.2103-0.029977-0.014189-0.073371-0.035515-0.099527-0.015433-0.1055 0.08097-0.50439 1.8781-0.68994 3.0828-0.093424 0.60657-0.025415 2.0944 0.14338 3.1124 0.056471 0.34062 0.031747 0.42634-0.082097 0.386-0.078841-0.027935-0.15569-0.12501-0.19118-0.22901-0.21184-0.62074-0.96156-1.9204-1.7795-3.1002-1.4546-2.0982-1.827-2.6842-1.9798-3.0981-0.28072-0.76014-0.74551-1.5192-0.87774-1.432zm18.875 2.9599c0.021456 0.009642 0.05211 0.080284 0.092967 0.18055 0.055445 0.13607 0.17419 0.35015 0.28152 0.4756 0.10732 0.12545 0.27517 0.40621 0.37449 0.65615 0.17583 0.44248 0.19476 0.47495 0.19024 1.0928-0.003801 0.51964-2.2e-5 0.70235 0.092029 1.0443 0.2351 0.87336 0.1465 1.8818-0.16775 1.7018-0.17723-0.1015-0.30375 0.009406-0.38592 0.4718-0.031839 0.17917-0.094941 0.36094-0.14976 0.40873-0.096266 0.083938-0.30986 7.93e-4 -0.42734-0.16594-0.035265-0.050059-0.039656-0.1696-0.021367-0.30236 0.02431-0.17646 0.023012-0.19554-0.057166-0.24145-0.053633-0.030714-0.15402-0.031064-0.20036 0.002161-0.06627 0.047504-0.095643-0.006912-0.19249-0.19598-0.16355-0.31931-0.14989-0.45318 0.082095-0.386 0.29502 0.085444 0.53244-0.29194 0.53699-0.91355 0.003996-0.54561-0.42344-1.4988-0.73716-1.6095-0.051987-0.018338-0.14433-0.12926-0.18987-0.26203-0.075602-0.2204-0.092353-0.25383-0.022679-0.26934 0.041968-0.009341 0.14147 0.03536 0.19643 0.096912 0.099796 0.11177 0.20311 0.06146 0.2043-0.10123 3.39e-4 -0.047338-0.059784-0.16444-0.12352-0.25174l-0.094276-0.14753 0.11396-0.34783c0.086435-0.25854 0.14658-0.31419 0.31301-0.31697 0.16668-0.002772 0.19714-0.050509 0.20955-0.23333 0.019506-0.28728 0.04633-0.40206 0.082095-0.386zm-3.3944-0.26049c0.088116 0.05047 0.21037 0.39022 0.20861 0.63044-0.001504 0.205-0.049727 0.22353-0.20561 0.13426-0.067561-0.038693-0.090802-0.082085-0.12876-0.11965-0.029156-0.018272-0.089079-0.03431-0.098214-0.048456-0.11873-0.18385-0.033307-0.48548 0.12314-0.579 0.030558-0.03452 0.066417-0.037304 0.10084-0.017591zm-4.9178-0.56316 1.2183 0.42149c0.16763 0.062175 0.29916 0.11724 0.42734 0.16594 0.89728 0.3409 0.885 0.40705 0.89611 0.96962 0.006469 0.32773-0.06022 0.44717-0.32744 0.68023-0.52228 0.45549-0.69557 0.79062-0.68675 1.3223 0.011848 0.71416-0.30301 0.93945-0.78927 0.54216-0.18823-0.15379-0.25063-0.24681-0.3653-0.88732-0.18341-1.0244-0.32335-2.0488-0.3608-2.6809l-0.012183-0.53352zm2.8932 1.1131 0.42734 0.16594c0.44441 0.1444 0.50064 0.19666 0.34787 0.48589-0.046056 0.087192-0.071824 0.24049-0.046295 0.32509 0.066882 0.22165 0.55699 0.027149 0.61028-0.23765 0.03394-0.16868 0.1217-0.15512 0.53474-0.016769 0.014506 0.006825 0.017105-0.002584 0.033176 0.005144l0.29464 0.14537-0.010498 0.26419c-0.001095 0.14931-0.018365 0.31482-0.047606 0.35812-0.039786 0.058912-0.006669 0.1688 0.082468 0.44474 0.06551 0.2028 0.11243 0.44983 0.11171 0.54896-0.00126 0.17255 0.056794 0.54519 0.21292 1.3621 0.075987 0.39762 0.11089 0.61102 0.34168 1.4817 0.078682 0.29686 0.14145 0.58914 0.14095 0.65317-0.001284 0.16434-0.84077 1.3986-0.9216 1.3523-0.036661-0.020999-0.096271-0.10536-0.12614-0.1857-0.029864-0.080338-0.045743-0.33916-0.044045-0.57169 0.001942-0.26434-0.043078-0.54053-0.10252-0.78012-0.075619-0.30479-0.086448-0.4921-0.065413-0.87405 0.016116-0.29273 0.001743-0.49077-0.037485-0.73681-0.029646-0.098827-0.030212-0.17403-0.087717-0.31265-0.13514-0.32576-0.26139-0.72024-0.26446-0.90491-0.003697-0.22269-0.070391-0.40418-0.17937-0.52622-0.088366-0.098946-0.20448-0.3974-0.27365-0.67375-0.043237-0.17272-0.098736-0.2525-0.1222-0.28477-0.005126 0.4207-0.37929 0.39123-0.63295-0.031687-0.10797-0.18003-0.12022-0.41567-0.13308-0.85132l-0.042733-0.60471zm4.1992 1.8473c0.015849 0.007153 0.038786 0.045797 0.062415 0.10936 0.029456 0.079218 0.080645 0.15964 0.12614 0.1857 0.10907 0.062466 0.10219 0.20403-0.010496 0.26419-0.13742 0.073369-0.19298 0.015737-0.22304-0.26718-0.022358-0.21052 0.010103-0.30781 0.044983-0.29207zm-0.43521 0.032198c0.021782-4.95e-4 0.048863-0.001164 0.06635 0.010289 0.058295 0.038178 0.086704 0.15786 0.054542 0.3075-0.028729 0.13366-0.29989 0.029167-0.29595-0.11234 0.001086-0.038893 0.042081-0.12198 0.1074-0.18271 0.024404-0.022693 0.045877-0.022239 0.067663-0.022736zm21.126 3.4418c-0.12094-0.029377-0.25059 0.28723-0.3698 0.90625-0.050299 0.26111-0.63515 1.4252-0.86968 1.7259-0.047888 0.061389-0.12848 0.16884-0.17768 0.27149-0.049213 0.10266-0.17242 0.38987-0.29164 0.61932-0.11922 0.22946-0.29345 0.59776-0.36587 0.80718-0.26084 0.75431-0.37554 1.245-0.4279 1.5286-0.029326 0.15879-0.097657 0.29687-0.14582 0.30966-0.10161 0.026983-0.29406-0.47153-0.30289-0.77796-0.012418-0.43053-1.1793-3.2227-1.6153-3.8722-0.14371-0.2141-0.41782-0.7523-0.62021-1.1927-0.2024-0.44036-0.43899-0.83384-0.49932-0.87487-0.20165-0.13715-0.20998 0.37851-0.066914 1.6842 0.15064 1.3747 0.35616 2.285 0.68075 3.0295 0.10952 0.2512 0.17829 0.48654 0.17937 0.52622 0.001084 0.039677 0.20672 0.53256 0.45696 1.1009 0.25023 0.56833 0.58418 1.3571 0.7306 1.7746 0.46509 1.3263 0.66885 1.7616 0.83144 1.757 0.0812-0.002275 0.14745-0.014294 0.16719-0.007302 0.019749 0.007001 0.18174-0.25927 0.35668-0.57601 0.17495-0.31674 0.39217-0.66022 0.49726-0.75358 0.9491-0.84317 1.5085-1.7759 1.9371-3.3879 0.18785-0.70664 0.27363-3.4662 0.13214-4.1661-0.053983-0.26701-0.14392-0.41466-0.21648-0.43229zm-22.959-3.5266c-0.024684-0.010521-0.055571 0.066867-0.1074 0.18271-0.11476 0.14604-0.10165 0.16844-0.010495 0.26419 0.007266 0.012785-0.010761 0.016496-0.001312 0.033022 0.093103 0.16287 0.13972 0.084271 0.1432-0.24361 0.001451-0.13731 6.92e-4 -0.22579-0.02399-0.23631zm2.881 0.57962c0.12678 0.07261 0.15662 0.17062 0.083782 0.41172-0.036361 0.12034-0.081255 0.29159-0.082097 0.386-0.001373 0.15298-0.2903 0.68043-0.3593 0.64206-0.01504-0.008358-0.079956-0.12474-0.12352-0.25174-0.089184-0.26002-0.043627-0.42423 0.080784-0.35297 0.092389 0.052917 0.32691-0.46111 0.32875-0.71325 6.84e-4 -0.093309 0.023012-0.14963 0.071599-0.12181zm-2.2625-0.18467c0.003811-0.005651 0.025188 0.002681 0.033176 0.005143 0.11981 0.036962 0.65766 0.94591 0.68787 1.1699 0.020845 0.15453 0.066845 0.20628 0.19118 0.22901 0.15033 0.027476 0.14126 0.00269 0.15276 0.35596 0.006469 0.19898 0.057307 0.41524 0.082469 0.44474 0.025161 0.029493 0.11584-0.13159 0.2148-0.36542 0.18821-0.44472 0.24314-0.45456 0.29858 0.046297 0.020075 0.1814-0.043351 0.35314-0.43746 0.92898l-0.49594 0.72056-0.2073-0.66346c-0.20015-0.60654-0.30982-1.1942-0.47214-2.3991-0.032285-0.23962-0.0604-0.45424-0.047982-0.47262zm8.7146 1.617c0.081008 0.027912 0.15322 0.17294 0.12089 0.31779-0.01957 0.087662 0.01859 0.24374 0.085093 0.37869 0.066502 0.13495 0.094613 0.3326 0.082469 0.44474-0.020795 0.19199-0.062972 0.19802-0.76566-0.052264-0.44857-0.15977-0.75291-0.29316-0.75385-0.34948-8.58e-4 -0.051533 0.058211-0.10063 0.10477-0.11666 0.046558-0.016037 0.1056-0.13548 0.1432-0.24361 0.045438-0.13068 0.18788-0.17771 0.40729-0.16944 0.18155 0.006838 0.38084-0.053228 0.43915-0.13127 0.046877-0.062741 0.088028-0.095243 0.13664-0.078493zm-9.3685-1.1204c-0.0167 0.005424-0.038976 0.056137-0.039734 0.15998-9.89e-4 0.13426 0.030577 0.26 0.055855 0.27448 0.025264 0.014476 0.038988-0.058138 0.039734-0.15998 7.45e-4 -0.10184 0.002358-0.22243-0.022679-0.26933-0.006452-0.012087-0.027609-0.00695-0.033176-0.005143zm-6.1108-0.78137c-0.063149-0.005442-0.11215 0.03526-0.23748 0.096087-0.20069 0.097413-0.22517 0.22395-0.23316 0.82775-0.008275 0.62495 0.001315 0.73204 0.22473 1.0649 0.058741 0.087522 0.11345 0.17248 0.15669 0.25689l0.08922-2.2456zm8.6647 2.872 0.21911 0.36624c0.12367 0.2067 0.2362 0.42151 0.24835 0.47046 0.012149 0.048946 0.13016 0.16391 0.25622 0.27232 0.26683 0.22948 0.32466 0.37239 0.21124 0.56439-0.077092 0.13049-0.086636 0.15276-0.014434 0.36326 0.042186 0.123 0.065705 0.3547 0.078534 0.54381 0.021844 0.32209 0.029676 0.37811-0.11527 0.38085-0.13009 0.002453-0.16478 0.048204-0.179 0.30452-0.009308 0.16768 0.016206 0.37314 0.047982 0.47262 0.047986 0.15026 0.062973 0.19551-0.010498 0.26419-0.11702 0.10939-0.19488 0.07142-0.58403-0.42283-0.18154-0.23056-0.37129-0.52556-0.44084-0.66644-0.069545-0.14089-0.25981-0.48363-0.40373-0.76037-0.15549-0.299-0.24121-0.56906-0.24047-0.6686 6.7e-4 -0.092131 0.20832-0.46379 0.4667-0.82477l0.46014-0.65965zm7.7591 1.3028c0.071327-0.005991 0.16152 0.030934 0.29726 0.079319 0.18099 0.064516 0.44135 0.18529 0.78833 0.3216 0.90993 0.35745 1.2051 0.49452 1.2117 0.58661 0.027154 0.37483-0.00568 1.2108-0.060355 1.5191-0.43668 2.4619-0.57014 2.8326-1.4828 4.5548-0.24217 0.45699-1.3396 1.7157-1.4681 1.6663-0.034691-0.013317-0.11125-0.11445-0.12614-0.18569-0.092027-0.44025-0.30693-1.2927-0.37748-1.4208-0.12065-0.21908-0.3723-0.29652-0.46183-0.13806-0.068839 0.12183-0.12064 0.089586-0.41947-0.36408-0.18378-0.27901-0.34008-0.57692-0.34131-0.65101-0.001231-0.074086 0.17004-0.30392 0.38723-0.50482 0.2172-0.2009 0.41997-0.41399 0.4191-0.46665-8.8e-4 -0.052669 0.073948-0.25091 0.21873-0.46449 0.4169-0.61499 0.6732-1.1478 0.76753-1.6753 0.048083-0.26886 0.14389-0.63828 0.19868-0.79987 0.054777-0.1616 0.12921-0.60197 0.17337-1.0032 0.07969-0.72387 0.061531-1.0358 0.27552-1.0538zm2.8242 1.1689c0.022586-0.035621 0.35158 0.069508 0.7591 0.21738l0.001312-0.033023c0.15636 0.052546 0.28975 0.11075 0.46052 0.17108 0.70229 0.24814 1.4061 0.51576 1.4453 0.5896 0.097282 0.18319-0.075619 2.2675-0.25341 3.0176-0.50312 2.1227-0.95136 3.1712-1.9856 4.6097-0.008086 0.011246-0.026276 0.016604-0.034488 0.02788l-0.003937 0.099071c-0.62963 1.0162-1.6248 2.1276-1.8501 2.039-0.030686-0.012049-0.44176-0.60362-0.91485-1.338l-0.8485-1.3277 0.24403-0.26121c0.4114-0.36553 0.9236-0.92315 1.0477-1.1666 0.059796-0.1173 0.26104-0.48891 0.4667-0.82477 0.5871-0.9588 1.1764-3.0206 1.3208-4.6796 0.051853-0.59564 0.11953-1.0995 0.14545-1.1404zm-21.375-3.0485c-0.13386 0.046498-0.13387 0.5232 0.019492 2.0299 0.24545 2.4113 0.36957 3.1196 0.64663 3.8882 0.33451 0.92798 0.5079 1.4387 0.50887 1.4744 0.002488 0.09139-0.6883-0.63125-1.1218-1.1708-0.2715-0.3379-0.63806-0.74979-0.7992-0.88814-0.16114-0.13835-0.47776-0.49809-0.73548-0.81181-0.25773-0.31372-0.74671-0.81899-1.0567-1.1274-0.66608-0.66267-1.6597-1.9661-2.2531-2.9411-0.27103-0.44529-0.51246-0.75262-0.63595-0.79638-0.26917-0.095377-0.24267 0.27473 0.086778 1.1764 0.14625 0.40029 0.33576 0.92258 0.42116 1.1618 0.08541 0.23922 0.23899 0.50952 0.30945 0.61284 0.070472 0.10333 0.16898 0.40082 0.24179 0.63558 0.15027 0.48454 0.81433 1.7324 1.429 2.6804 0.58232 0.89816 1.5757 1.9443 2.1785 2.2982 0.46748 0.27446 1.3869 0.87378 2.4077 1.5695l0.25191-6.3406c-0.71741-1.591-1.5286-3.2422-1.7345-3.3923-0.038421-0.027999-0.068801-0.03729-0.098213-0.048455-0.02573-0.00977-0.047224-0.016931-0.066351-0.010287zm12.092 2.3068c0.015043 0.040443 0.007217 0.10386-0.006561 0.16512-0.00288-0.017906-0.030064-0.031856-0.030551-0.071193-7.23e-4 -0.05833 0.029427-0.075708 0.037112-0.093927zm-2.4733 0.081682c0.042013 0.024058 0.1493 0.1893 0.21911 0.36624 0.18283 0.46341 0.69558 1.3926 0.87249 1.564 0.29744 0.28828 0.41033 0.63392 0.23785 0.73465-0.075127 0.043864-0.23773 0.72983-0.23973 0.99287-5.66e-4 0.074093 0.059454 0.41165 0.13832 0.71922 0.10161 0.3963 0.19422 0.64017 0.33344 0.84915 0.10806 0.16219 0.18742 0.3043 0.18724 0.32808-6.04e-4 0.082467-0.48678-0.22465-0.55348-0.35164-0.036874-0.070209-0.20409-0.30188-0.38105-0.49104-0.39865-0.42613-1.063-1.5215-1.4408-2.3832-0.33087-0.75467-0.36454-0.84459-0.36399-0.92034 0.00109-0.14885 0.91737-1.45 0.99057-1.4081zm3.7929 1.153c0.020786 0.010339 0.014005 0.013575 0.031864 0.038168 0.059716 0.082242 0.072359 0.14763-0.042359 0.22602-0.17196 0.1175-0.19774 0.082436-0.19643-0.096911 0.001081-0.14759 0.11685-0.21209 0.20692-0.16728zm-10.288-1.4956c-0.051547 0.024078-0.086939 0.12614-0.042361 0.22602 0.076595 0.17162 0.20037 0.22188 0.19774 0.063889-0.001254-0.075886-0.048507-0.20007-0.090341-0.2466-0.012142-0.013514 0.013035-0.026846 0.001311-0.033024-0.020516-0.010812-0.049168-0.018314-0.06635-0.010288zm22.724 3.5566c-0.12907-0.030286-0.27081 0.24046-0.46802 0.8578-0.40439 1.2659-0.53742 2.7992-0.35125 3.7999 0.3219 1.7302 0.40157 2.3454 0.42359 3.621 0.023456 1.3592 0.048413 1.7392 0.19586 1.7914 0.040897 0.014498 0.24863-0.042985 0.47364-0.15915 0.225-0.11616 0.73357-0.3963 1.1263-0.62282 0.39271-0.22651 0.8334-0.44774 0.95384-0.48342 0.3559-0.10542 1.6714-1.2172 1.8994-1.5994 0.24144-0.40465 0.87385-1.8923 1.0684-2.5257 0.16642-0.54199 0.32834-1.9151 0.24722-2.0218-0.11778-0.15482-0.39037 0.10967-0.83294 0.80121-0.28167 0.44012-0.68476 0.8731-1.1154 1.1894-1.0438 0.76659-1.9863 1.6813-2.0479 1.9751-0.030487 0.14546-0.10597 0.30164-0.18031 0.33754-0.074335 0.03591-0.14256 0.1049-0.14057 0.17757 0.001983 0.072662-0.051628 0.10862-0.13664 0.078496-0.12707-0.045024-0.15583-0.13231-0.11564-0.44989 0.11604-0.91702 0.11665-2.3735-0.011992-3.0588-0.25549-1.361-0.77866-3.4689-0.89067-3.627-0.027779-0.039191-0.067118-0.074488-0.096902-0.08148zm-13.586-1.6746c0.064201-0.010124 0.12666 0.042236 0.25622 0.27232 0.17422 0.3094 0.17643 0.34377 0.25753 0.23929 0.047457-0.061153 0.13948-0.059215 0.16719-0.007304 0.027713 0.051911 0.062398 0.057604 0.099526 0.015432 0.037132-0.042177 0.1091-0.037936 0.16588 0.02572 0.056775 0.063653 0.18021 0.12174 0.26278 0.1072 0.058743-0.010346 0.10256-0.031646 0.13401-0.012447 0.03146 0.019197 0.040272 0.049653 0.062414 0.10936 0.083856 0.2261-0.029519 0.35117-0.65788 0.59576-0.26607 0.10357-0.39518 0.011147-0.45658-0.27016-0.038071-0.17442-0.10259-0.23802-0.28677-0.34351-0.2245-0.12858-0.20189-0.11738-0.18593-0.3611 0.010491-0.16021 0.032165-0.30103 0.11396-0.34783 0.029853-0.017083 0.046262-0.019363 0.067663-0.022735zm3.0006 0.93043-0.011808 0.29721c0.021522-0.096112 0.027723-0.21128 0.011808-0.29721zm-13.331-1.3692-0.25191 6.3406c0.2032 0.15946 0.36695 0.28355 0.58272 0.45585 0.85557 0.6832 1.0244 0.8025 1.1083 0.67025 0.028938-0.045626 0.02256-0.50177-0.058852-1.0392-0.081404-0.5374-0.21996-1.3951-0.29277-1.8729-0.1545-1.014-0.15714-1.3796-0.047043-1.3364 0.043547 0.017108 0.092771 0.16287 0.12089 0.31779 0.028126 0.15492 0.065922 0.35976 0.082469 0.44474 0.061074 0.31363 0.5746 2.0864 0.7336 2.5393 0.090326 0.25726 0.1771 0.5018 0.17806 0.55924 0.001428 0.086155 0.90153 1.9069 1.2365 2.4844 0.12776 0.22029 0.049443 0.23605-0.13532 0.045471-0.23383-0.24119-1.6229-1.3105-1.7813-1.3727-0.077772-0.030555-0.35952-0.19255-0.58666-0.35678-0.22714-0.16424-0.60031-0.40621-0.8455-0.56305-0.18191-0.11636-0.18186-0.15744-0.32388-0.24958l-0.082659 2.0805c0.16605 0.17974 0.31534 0.37621 0.47926 0.53949 0.32126 0.32 1.1181 0.84959 2.2432 1.5108 0.30365 0.17844 0.73885 0.28473 1.9813 0.5398 0.48307 0.099171 0.85486 0.14966 1.1943 0.18518 0.26742 0.01799 0.4545-0.003765 0.47102-0.093102 0.008692-0.047029-0.14021-0.53537-0.32426-1.0803-0.04398-0.13022-0.049362-0.19554-0.087718-0.31265-0.55274-0.96126-0.86119-1.5866-1.0453-2.2554-0.082531-0.29977-0.32449-0.92748-0.54599-1.3805-0.44531-0.91078-2.905-4.7268-3.0182-4.6878-0.039284 0.013519-0.040998 0.08409-0.039737 0.15998 0.004514 0.27182-0.12492 0.09665-0.28414-0.40956-0.16526-0.5254-0.40825-1.1951-0.66032-1.8634zm4.7017 0.96161c0.14898 0.058522 0.34456 0.37621 0.28152 0.4756-0.053777 0.084774-0.1024 0.065621-0.26409-0.074176-0.13828-0.11956-0.15625-0.45596-0.017431-0.40143zm7.5535 1.437c0.012264-0.002728 0.016615-0.001238 0.033174 0.005143 0.11592 0.04468 0.32463 0.30574 0.31732 0.4147-0.008285 0.12349-0.0507 0.08842-0.2296-0.10206-0.18866-0.20087-0.22215-0.29525-0.12089-0.31779zm-5.2801-0.68579c0.009606 0.004545 0.015585 0.016048 0.031865 0.038168 0.042157 0.057271 0.10002 0.14008 0.12483 0.21872 0.076768 0.24334 0.72174 1.2963 1.0344 1.6888 0.16347 0.20519 0.32953 0.44811 0.37973 0.52406 0.2036 0.30801 0.47179 0.57171 0.86555 0.89843l0.41947 0.36408-0.023242 1.4252 0.009931 1.4303-0.29464-0.14537c-0.1517-0.081053-0.33378-0.22644-0.42209-0.29804-0.14341-0.11628-0.38727-0.3419-1.058-1.0944-0.11328-0.12709-0.22427-0.30955-0.25228-0.37139-0.028011-0.061843-0.18515-0.22221-0.31863-0.38168-0.26832-0.32053-0.59266-0.91182-0.96808-1.6786-0.13543-0.2766-0.282-0.52958-0.31207-0.5468-0.036851-0.021106-0.16589-0.35743-0.30551-0.71192-0.30755-0.45176-0.62532-0.93986-0.62677-1.0275-0.00337-0.20279 0.20682-0.15573 0.49763 0.07716 0.053898 0.043165 0.1096 0.061874 0.16325 0.091767 0.082153 0.071045 0.16811 0.11439 0.32913 0.11749 0.15529 0.002991 0.33901 0.038869 0.42997 0.099893 0.21046 0.14121 0.31595 9.67e-4 0.28508-0.4542-0.014779-0.21796-0.018315-0.27782 0.010494-0.26419zm-2.0617 0.64391c0.048343 0.01899 0.2249 0.24139 0.38105 0.49103 0.13166 0.2105 0.36237 0.52817 0.5696 0.78609 0.021383 0.045304 0.041488 0.10346 0.061102 0.14238 0.12509 0.24824 0.3634 0.71245 0.52593 1.0451 0.16254 0.33268 0.28974 0.63526 0.30814 0.64586 0.018401 0.010604 0.19437 0.23569 0.37974 0.52406 0.83113 1.293 1.5734 2.0951 2.3033 2.5169 0.15613 0.09023 0.29058 0.22156 0.32257 0.2826 0.043907 0.083795 0.056666 0.46604 0.039171 1.5345-0.019296 1.1787-0.030819 1.4082-0.088281 1.3819-0.037946-0.017391-0.20682-0.11993-0.35837-0.2217-0.47949-0.32202-1.1833-0.93248-1.4204-1.217-0.52527-0.63051-0.88075-1.1099-1.2361-1.6537-0.079094-0.12104-0.17217-0.21812-0.19118-0.22901-0.046067-0.026379-0.44282-0.72945-0.59359-1.0224-0.0289-0.056161-0.12572-0.21332-0.18724-0.32808-0.14141-0.15667-0.25859-0.28399-0.41553-0.46316-0.68953-0.78718-2.0517-2.6561-2.0899-2.8493-0.032322-0.16366 1.531-1.4285 1.6899-1.3661zm8.8171 2.3972c0.11268 0.026824 0.26192 0.20063 0.57616 0.62097 0.33919 0.45371 0.45099 0.70418 0.49538 0.97394 0.071915 0.43709 0.24241 0.70688 0.50194 0.80883 0.10782 0.042354 0.22613 0.11683 0.22698 0.1681 0.003978 0.23987-1.2966 1.0195-1.5388 0.92435-0.035705-0.014028-0.054925-0.10634-0.057167-0.24145-0.002246-0.13512-0.065097-0.359-0.11433-0.48291-0.072329-0.18202-0.040661-0.28919 0.11921-0.47992 0.34756-0.41468 0.32808-0.59596-0.056228-1.1052-0.37253-0.49364-0.45617-0.83058-0.32425-1.0803 0.047285-0.089541 0.10351-0.12247 0.17112-0.10638zm-4.1958-0.25185c0.017295-0.012176 0.037068-0.006064 0.066351 0.010288 0.087839 0.049046 0.22241 0.208 0.22173 0.3002-8.44e-4 0.11494-0.17699 0.020833-0.26147-0.14022-0.045416-0.086586-0.066314-0.14233-0.026615-0.17026zm0.59191 0.22468c0.021357-0.005624 0.068438-0.002372 0.099525 0.015432 0.13244 0.075851 0.241 0.34173 0.18331 0.42715-0.040021 0.059259-0.25571-0.040673-0.29464-0.14537-0.055222-0.14852-0.05227-0.28035 0.011808-0.29721zm12.485 2.5007c-0.085053-0.030133-0.2793 0.093238-0.41122 0.26851-0.13193 0.17527-0.35143 0.46234-0.49201 0.62148-0.50561 0.57242-1.5616 2.6131-1.6625 3.1978-0.075378 0.43661-0.24839 0.33951-0.26147-0.14022-0.00216-0.079121-0.018367-0.11375-0.026615-0.17026l0.005248-0.1321c-0.009984-0.023241 0.013766-0.06167 0.002624-0.066047-0.044566-0.017511-0.38325 0.20875-0.7203 0.4864-0.33705 0.27765-0.82522 0.60632-1.0652 0.7652-0.23996 0.15888-0.48848 0.38715-0.55311 0.4791-0.064638 0.091948-0.26118 0.37036-0.45883 0.62663-0.40378 0.52352-0.57202 0.80648-0.79152 1.4389-0.098164 0.28284-0.34276 0.61563-0.70549 0.95388-0.66932 0.62414-0.80614 0.84223-0.7068 0.9869 0.13043 0.18996 0.85883 0.72382 1.5251 1.1004 0.35619 0.20132 0.88489 0.49702 1.1746 0.68054 0.54546 0.34549 1.1442 0.56276 1.9748 0.70492l0.001312-0.033024c0.17297 0.029164 0.33829 0.057263 0.5308 0.082304 1.879 0.2444 3.9034-0.48707 5.1144-1.8652 0.35483-0.40379 0.29923-0.63141-0.10777-0.64803-0.2442-0.009964-0.59792 0.053757-1.076 0.19865-0.67185 0.20362-1.0986 0.26257-1.4768 0.20298-0.28998-0.045686-0.74094-0.10513-0.99657-0.1213-0.25563-0.016165-0.52593-0.060739-0.63033-0.097735-0.18152-0.06432-0.69953-0.12387-1.2951-0.16759l-0.001312 0.033023c-0.3169-0.017771-0.62484-0.023182-1.0005-0.022222-0.49618 0.001268-0.89757-0.025614-0.89836-0.07284-7.88e-4 -0.047222 0.10346-0.18717 0.24666-0.32725 0.49476-0.48399 0.74969-0.83344 1.0251-1.436 0.26598-0.58196 0.71666-1.922 0.79377-2.3357 0.015334-0.082263 0.014361-0.13734 0.039736-0.15998 0.053632 0.12622-0.020997 1.4-0.12371 2.2735l-0.034113 0.85862c-0.023805 0.15332-0.029614 0.27603-0.014433 0.36326l-0.002625 0.066048c0.12049 0.1871 0.4373 0.24436 1.1585 0.24608 0.44591 0.001077 1.0376 0.015833 1.3004 0.035495 0.26282 0.019662 0.66362 0.040235 0.89967 0.039816 0.23604-4.27e-4 0.63101 0.003794 0.86649 0.034671 0.50936 0.066791 1.2583-0.071903 1.6147-0.31449 0.92642-0.63057 1.3761-1.1444 1.8528-2.1051 0.11023-0.22213 0.25487-0.42665 0.31957-0.48208 0.064686-0.05543 0.17801-0.27658 0.25191-0.45935 0.073896-0.18277 0.24143-0.56978 0.36849-0.87322 0.42656-1.0186 0.13755-1.4543-0.5338-0.84699-0.37285 0.33727-0.39146 0.3771-0.86612 0.79607-0.25694 0.2268-2.0677 0.99532-3.2264 1.3937-0.21322 0.073314-0.57619 0.25572-0.78271 0.37705-0.20652 0.12133-0.49795 0.259-0.64608 0.29855-0.26882 0.071781-0.25505 0.070186-0.19511-0.12994 0.033026-0.11026 0.13338-0.35276 0.22136-0.53054 0.35174-0.71074 0.43234-1.2723 0.48039-2.8495 0.026912-0.88344 0.072813-1.9544 0.094467-2.3777 0.034221-0.66896 0.034511-0.79854-0.0999-0.84617zm-12.519-1.6421 0.29595 0.11234c0.097083 0.03332 0.17396 0.066108 0.2296 0.10206 0.092728 0.059908 0.13348 0.13559 0.22173 0.3002 0.25856 0.48226 0.35586 0.72895 0.32294 1.1133-0.036631 0.42775 0.02646 0.701 0.25528 1.1361 0.10069 0.19144 0.15914 0.39792 0.14882 0.45503-0.033246 0.18394-0.47123 0.16426-0.96602-0.050103-0.39718-0.17207-0.5003-0.22185-0.52031-0.34649-0.013352-0.083164-0.019729-0.7684-0.007308-1.4964l0.019307-1.3261zm-14.099-1.3554c-0.053366-0.004889-0.078455-0.011842-0.10084 0.017592-0.096926 0.12744 0.7343 1.504 1.5669 2.5689 0.55595 0.71106 1.3494 1.5536 2.1453 2.293l0.082659-2.0805c-1.0946-0.62194-1.451-0.85511-2.0786-1.452-0.41492-0.39462-0.86671-0.84518-0.99563-0.98506-0.19086-0.20709-0.45974-0.34726-0.61983-0.36193zm4.4258 7.0659c-0.025429 0.00607-0.036255 0.033321-0.035799 0.060903 0.001229 0.073922 0.11597 0.24263 0.28414 0.40956 0.16817 0.16693 0.34797 0.37844 0.41554 0.46316 0.067561 0.084715 0.28051 0.29946 0.48188 0.47344 0.20137 0.17398 0.51216 0.41315 0.64645 0.53219 0.70916 0.62858 2.0488 1.3428 3.2013 1.759 0.30181 0.15593 0.5842 0.25619 0.79096 0.25555 0.1269-3.98e-4 0.53424-0.021369 0.90229-0.026234 1.1647-0.015383 1.3068-0.009925 1.5658 0.076649l0.26278 0.1072-0.13926 0.14454c-0.067985 0.083308-0.30687 0.30401-0.55311 0.4791-0.49806 0.35416-0.96653 0.75972-1.3171 1.2246-0.25214 0.33435-0.26677 0.50918-0.035426 0.89164 0.21131 0.34935 0.38269 0.35367 0.5666 0.021399 0.30447-0.55008 0.81141-1.2025 1.1617-1.5145 0.18807-0.16748 0.40649-0.40365 0.48676-0.48939 0.31104-0.33223 0.44007-0.34932 0.8067-0.14073l0.35968 0.18868 0.46352 0.93578c0.25377 0.51345 0.5047 1.0882 0.58441 1.2536 0.1842 0.3821 0.60214 1.3686 0.94184 2.339 0.13599 0.3885 0.17952 0.56193 0.24047 0.6686l0.055105-1.387c-0.3881-0.88339-0.92135-2.0075-1.3268-2.731-0.11474-0.20474-0.24351-0.46796-0.27758-0.57467-0.056928-0.17827-0.018659-0.17296 0.23223 0.036007 0.2551 0.21248 0.3842 0.35237 1.151 1.275 0.072494 0.087224 0.18214 0.22081 0.28677 0.34351l0.081346-2.0475c-0.24556-0.16786-0.50348-0.35957-0.78046-0.51974-0.60784-0.3515-1.1907-0.63518-1.3444-0.60718-0.38914 0.070837-0.6995 0.030343-0.86124-0.16677-0.67232-0.81931-0.71203-0.87271-1.8424-1.5151-0.88727-0.5042-1.1426-0.60864-1.3776-0.61233-0.16066-0.002522-0.34328-0.029886-0.3981-0.061727-0.054827-0.031844-0.23195-0.077013-0.39679-0.094751-0.067614-0.007274-0.13358-0.022384-0.19905-0.030864-1.7883-0.2511-3.1343-0.61451-4.2612-1.1259-0.53484-0.2427-0.74654-0.31192-0.82282-0.29372zm12.317 5.0332-0.081348 2.0475c0.23311 0.16985 0.48356 0.33488 0.68225 0.47128 0.35692 0.24504 0.86832 0.61234 1.1362 0.80749 0.71453 0.52053 2.9559 1.3944 3.6815 1.4347 0.50163 0.027861 0.81805 0.005669 1.2035-0.045983l0.001313-0.033025c0.22995-0.02146 0.44951-0.065169 0.77222-0.11286 1.2098-0.17875 1.1763-0.27805-0.20599-0.69648-0.17918-0.054236-0.37164-0.15385-0.55873-0.21954l-0.001311 0.033023c-1.0837-0.42498-2.3294-1.1119-4.0826-2.2612-0.28985-0.19-0.58857-0.36784-0.68487-0.40524-0.096301-0.037389-0.40101-0.23835-0.68356-0.43826-0.20283-0.1435-0.66235-0.34639-1.1786-0.58147zm-0.14695 3.6987-0.055107 1.387c0.095521 0.099884 0.21541 0.15487 0.35968 0.18868 0.32077 0.075175 0.61502-0.040019 0.61028-0.23765-0.002873-0.11962-0.41117-0.66855-0.91485-1.338z" fill="#fff" fill-rule="nonzero" opacity=".61885"/></g></svg>
