<?xml version="1.0" encoding="UTF-8"?>
<svg id="n" version="1.1" viewBox="0 0 32 32" xmlns="http://www.w3.org/2000/svg" xmlns:xlink="http://www.w3.org/1999/xlink"><defs id="o"><linearGradient id="b"><stop id="p" stop-color="#a9cefa" offset="0"/><stop id="q" stop-color="#f3f9ff" offset="1"/></linearGradient><linearGradient id="a"><stop id="r" stop-color="#292c2f" offset="0"/><stop id="s" stop-opacity="0" offset="1"/></linearGradient><linearGradient id="c"><stop id="t" stop-color="#3889e9" offset="0"/><stop id="u" stop-color="#5ea5fb" offset="1"/></linearGradient><linearGradient id="m" x2="0" y1="545.8" y2="517.8" gradientUnits="userSpaceOnUse" xlink:href="#c"/><style id="v" type="text/css">.ColorScheme-Text {
        color:#4d4d4d;
      }</style><linearGradient id="l" x1="357.45" x2="357.45" y1="530.88" y2="497.8" gradientTransform="matrix(.875 0 0 .875 87.696 81.35)" gradientUnits="userSpaceOnUse" xlink:href="#c"/><linearGradient id="k" x1="-4.315" x2="-16.341" y1="-7.3004" y2="18.755" gradientTransform="matrix(-.93431 .93431 -.93431 -.93431 14.953 40.861)" gradientUnits="userSpaceOnUse" xlink:href="#b"/><linearGradient id="j" x1="505.2" x2="503.09" y1="402.96" y2="403.79" gradientTransform="matrix(1.3213 0 0 1.3213 -758.85 -1193.7)" gradientUnits="userSpaceOnUse" xlink:href="#b"/><linearGradient id="h" x1="361.57" x2="368.57" y1="532.8" y2="539.8" gradientTransform="translate(32)" gradientUnits="userSpaceOnUse" xlink:href="#a"/><linearGradient id="g" x1="360.57" x2="366.57" y1="524.33" y2="531.26" gradientTransform="translate(32)" gradientUnits="userSpaceOnUse" xlink:href="#a"/><linearGradient id="f" x1="376.57" x2="381.57" y1="539.8" y2="544.8" gradientTransform="translate(32)" gradientUnits="userSpaceOnUse" xlink:href="#a"/><linearGradient id="e" x1="370.57" x2="377.57" y1="524.8" y2="533.8" gradientTransform="translate(32)" gradientUnits="userSpaceOnUse" xlink:href="#a"/><linearGradient id="d" x1="366.57" x2="373.57" y1="529.8" y2="539.8" gradientTransform="translate(32)" gradientUnits="userSpaceOnUse" xlink:href="#a"/><linearGradient id="i" x1="403.15" x2="405.57" y1="539.4" y2="542.43" gradientUnits="userSpaceOnUse" xlink:href="#a"/></defs><g id="w" transform="translate(-384.57 -515.8)"><ellipse id="x" cx="400.57" cy="531.8" fill="url(#m)" stroke-width="4"/><path id="y" d="m374.52 488.16c-0.16523 5e-3 -0.23201 0.022-0.20312 0.0195-0.0577 5e-3 -0.15131 0.0104-0.27735 0.0312-0.14152 0.0235-0.24916 0.0533-0.32812 0.0742-0.0472 0.0125-0.13496 0.0334-0.25781 0.0762v-2e-3c-0.13609 0.0474-0.23743 0.0974-0.31055 0.13086-0.0496 0.0227-0.13585 0.0587-0.24805 0.12109v-2e-3c-0.13297 0.0739-0.22326 0.14099-0.28515 0.1836 0.0541-0.0372-0.01-0.0103-0.16211 0.10742-0.14453 0.11148-0.16479 0.1404-0.0742 0.0664v-2e-3c0.0899-0.0734 0.0547-0.0576-0.0859 0.0645-0.14082 0.12232-0.18227 0.18348-0.14844 0.15039-0.0548 0.0536-0.13054 0.12591-0.2168 0.22656-0.0769 0.0897-0.13682 0.17056-0.18554 0.23828-0.0395 0.0549-0.10098 0.13654-0.17188 0.25586-0.0719 0.12089-0.11717 0.22125-0.15039 0.29102-0.0294 0.0617-0.067 0.13944-0.10547 0.23828-0.0495 0.12722-0.0789 0.23343-0.10156 0.3125-0.0166 0.0581-0.0463 0.14952-0.0723 0.27929-0.0243 0.12132-0.0332 0.2172-0.041 0.28321-9e-3 0.0797-0.0236 0.18399-0.0273 0.31445-4e-3 0.12745 4e-3 0.22699 8e-3 0.29883 4e-3 0.0751 0.01 0.17037 0.0254 0.28515 0.0185 0.13476 0.0442 0.24446 0.0644 0.33008 0.0152 0.0646 0.0341 0.15612 0.0703 0.26953 0.0183 0.0573 0.0359 0.0957 0.0547 0.14453l-1.9102 9.6895-4e-3 0.0781c-3e-3 0.0733 5.7e-4 0.0466 2e-3 0.0742l-4e-3 0.0195v0.0996c0 0.16148 0.0123 0.23616 0.0117 0.22266 5e-3 0.11683 0.0131 0.25093 0.0312 0.40234 0.0159 0.13291 0.0354 0.24065 0.0508 0.32422 0.0154 0.0837 0.0357 0.1946 0.0703 0.33203 0.0364 0.14444 0.0742 0.25789 0.10156 0.3418 0.0267 0.0822 0.0611 0.1945 0.11719 0.33398 0.0516 0.12842 0.0987 0.22133 0.12891 0.28516 0.0436 0.0921 0.0968 0.20362 0.16796 0.33008 0.0631 0.1121 0.11907 0.19779 0.16016 0.26172 0.0557 0.0867 0.12531 0.19609 0.21875 0.32031 0.078 0.10369 0.14401 0.17872 0.18945 0.23242 0.0672 0.0795 0.14874 0.17585 0.25391 0.28321 0.10436 0.10657 0.19352 0.18227 0.25391 0.23632 0.0585 0.0525 0.14106 0.1306 0.25586 0.22071 0.11878 0.0932 0.2251 0.16459 0.31445 0.22461h2e-3c-6e-3 -4e-3 0.05 0.0462 0.18555 0.1289 0.13167 0.0804 0.15905 0.089 0.0742 0.0391-0.0713-0.042-0.0439-0.0176 0.0918 0.0586 0.15128 0.0849 0.23601 0.11606 0.23828 0.11719 0.0793 0.0394 0.18529 0.0935 0.32226 0.15039 0.12627 0.0524 0.22391 0.0835 0.28711 0.10547 0.10449 0.0364 0.22919 0.0795 0.37891 0.11914 0.13005 0.0345 0.2239 0.049 0.27929 0.0605 0.0974 0.0202 0.22609 0.051 0.39063 0.0723 0.12877 0.0166 0.23189 0.022 0.30859 0.0273 0.0981 7e-3 0.22033 0.0156 0.36524 0.0156 0.14491 2e-5 0.26711-9e-3 0.36523-0.0156 0.0767-5e-3 0.17983-0.0107 0.3086-0.0273 0.16454-0.0212 0.29318-0.0521 0.39062-0.0723 0.0554-0.0115 0.14925-0.026 0.2793-0.0605 0.14972-0.0397 0.27441-0.0828 0.3789-0.11914 0.0632-0.022 0.16084-0.0531 0.28711-0.10547 0.13697-0.0568 0.24302-0.11102 0.32227-0.15039 2e-3 -1e-3 0.087-0.0323 0.23828-0.11719 0.13572-0.0762 0.16307-0.10058 0.0918-0.0586-0.0848 0.0499-0.0575 0.0413 0.0742-0.0391 0.13549-0.0827 0.19174-0.13306 0.18555-0.1289h2e-3c0.0894-0.06 0.19567-0.1314 0.31445-0.22461 0.11574-0.0908 0.19919-0.17018 0.25781-0.22266 0.0603-0.0539 0.14843-0.12865 0.25196-0.23437 0.10517-0.10736 0.18667-0.20374 0.2539-0.28321 0.0454-0.0537 0.11144-0.12873 0.18946-0.23242 0.0934-0.12422 0.16304-0.23359 0.21875-0.32031 0.0411-0.0639 0.097-0.14962 0.16015-0.26172 0.0712-0.12646 0.12438-0.23798 0.16797-0.33008 0.0302-0.0638 0.0773-0.15674 0.12891-0.28516 0.0561-0.13948 0.0904-0.25182 0.11718-0.33398 0.0273-0.0839 0.0651-0.19735 0.10157-0.3418 0.0346-0.13744 0.0549-0.24837 0.0703-0.33203 0.0154-0.0836 0.0349-0.19131 0.0508-0.32422 0.0182-0.15142 0.0264-0.28551 0.0312-0.40234-7.7e-4 0.0135 0.0116-0.0612 0.0116-0.22266v-0.0996l-4e-3 -0.0195c1e-3 -0.0276 5e-3 -8.9e-4 2e-3 -0.0742l-4e-3 -0.0781-0.5797-2.9772c-0.22365-0.74309-1.881 0.0482-1.7617 0.52734l8e-3 0.0586 0.38086-0.0703c0.33961-0.0614 0.64783 0.16546 0.6914 0.50782 0.0436 0.34235-0.19359 0.66716-0.5332 0.72851l-0.35742 0.0645 0.15391 1.36c-9.6e-4 0.0153-2e-3 -0.0211-2e-3 0.0488v0.0918c-1.1e-4 1e-3 1.2e-4 2e-3 0 4e-3 -2e-3 0.0237-3e-3 1e-3 -6e-3 0.0645-4e-3 0.10167-8e-3 0.18602-0.0156 0.25-5e-3 0.0441-0.0185 0.10852-0.0352 0.19922-0.0179 0.0972-0.0289 0.16686-0.0391 0.20703-0.0107 0.0423-0.0343 0.11047-0.0664 0.20898-0.0327 0.10036-0.0549 0.17078-0.0703 0.20899-0.0117 0.0291-0.0397 0.0864-0.082 0.17578-0.0421 0.089-0.0745 0.15701-0.10156 0.20508-0.0183 0.0325-0.0529 0.0845-0.10157 0.16015-0.0575 0.0894-0.10015 0.1558-0.13281 0.19922-0.0193 0.0256-0.0598 0.0725-0.11914 0.14258-0.0657 0.0777-0.11676 0.13742-0.15625 0.17773-0.0256 0.0262-0.0776 0.0722-0.15625 0.14258v2e-3h-2e-3c-0.0774 0.0693-0.1275 0.11416-0.15625 0.13672-0.0451 0.0354-0.11235 0.0816-0.19726 0.13867-0.10569 0.0711-0.14257 0.0999-0.11329 0.082 0.0927-0.0566 0.0772-0.0496-0.0469 0.0234-0.12258 0.0722-0.14031 0.086-0.0566 0.0391 0.0256-0.0144-0.0225 4e-3 -0.14843 0.0664-0.0926 0.046-0.15822 0.0795-0.19727 0.0957-0.0267 0.0111-0.0854 0.0303-0.17773 0.0625-0.0991 0.0345-0.17675 0.0609-0.23438 0.0762-0.0201 5e-3 -0.0776 0.0172-0.17383 0.0371-0.11346 0.0235-0.19366 0.0387-0.24218 0.0449-0.0375 5e-3 -0.1011 9e-3 -0.19141 0.0156-0.0985 7e-3 -0.17244 0.0117-0.22461 0.0117-0.0522 1e-5 -0.12608-5e-3 -0.22461-0.0117-0.0903-6e-3 -0.15389-0.0108-0.19141-0.0156-0.0485-6e-3 -0.12872-0.0214-0.24218-0.0449-0.0963-0.0199-0.15369-0.0318-0.17383-0.0371-0.0576-0.0153-0.13526-0.0417-0.23438-0.0762-0.0924-0.0322-0.15098-0.0514-0.17773-0.0625-0.0391-0.0162-0.10463-0.0497-0.19727-0.0957-0.12596-0.0625-0.17402-0.0808-0.14843-0.0664 0.0836 0.0469 0.0659 0.0331-0.0566-0.0391-0.1241-0.073-0.13954-0.08-0.0469-0.0234 0.0293 0.0179-8e-3 -0.011-0.11329-0.082h-2e-3c-0.0841-0.0565-0.15051-0.10351-0.19531-0.13867-0.0288-0.0226-0.0788-0.0674-0.15625-0.13672h-2e-3v-2e-3c-0.0787-0.0704-0.1306-0.11638-0.15625-0.14258-0.0395-0.0403-0.0905-0.10004-0.15625-0.17773-0.0593-0.0701-0.0998-0.11693-0.11914-0.14258-0.0327-0.0434-0.0754-0.10978-0.13281-0.19922-0.0487-0.0757-0.0833-0.12764-0.10156-0.16015-0.0271-0.0481-0.0595-0.11612-0.10157-0.20508-0.0423-0.0894-0.0703-0.14668-0.082-0.17578-0.0154-0.0382-0.0376-0.10864-0.0703-0.20899-0.0321-0.0985-0.0557-0.16665-0.0664-0.20898-0.0101-0.0402-0.0212-0.10978-0.0391-0.20703-0.0167-0.0907-0.0299-0.15514-0.0352-0.19922-8e-3 -0.064-0.0113-0.14833-0.0156-0.25-3e-3 -0.0631-4e-3 -0.0409-6e-3 -0.0645v-4e-3 -0.0918c4.7e-4 -0.0699-8.9e-4 -0.0336-2e-3 -0.0488l1.9964-10.119-0.15039-0.30469c0.0359 0.0728 0.028 0.0512-0.0273-0.0781v-2e-3c-0.0274-0.0639-0.0457-0.11044-0.0547-0.13867-5e-3 -0.0149-0.0159-0.052-0.0312-0.11718-0.0169-0.072-0.0259-0.11816-0.0293-0.14258-3e-3 -0.0224-6e-3 -0.0627-0.01-0.125-4e-3 -0.0722-4e-3 -0.11462-4e-3 -0.13086 6.3e-4 -0.0218 3e-3 -0.0675 0.0117-0.13867 8e-3 -0.0704 0.0149-0.10971 0.0176-0.12305 1e-3 -7e-3 0.0115-0.0473 0.0332-0.12305 0.0208-0.0726 0.0351-0.1165 0.043-0.13672 7e-3 -0.018 0.0222-0.0536 0.0469-0.10547 0.0341-0.0716 0.0557-0.11232 0.0644-0.12695 5e-3 -8e-3 0.0308-0.0454 0.0781-0.11133 0.0358-0.0497 0.0618-0.0842 0.0801-0.10547 0.0109-0.0128 0.0424-0.0455 0.0957-0.0976 0.10639-0.10408 0.12584-0.12333 0.0625-0.0684-0.10118 0.0879-0.0911 0.081 0.0391-0.0254v-2e-3c0.12801-0.10462 0.13729-0.11307 0.0312-0.0312-0.0781 0.0602-0.0586 0.0491 0.0723-0.041 0.0735-0.0506 0.11617-0.0771 0.125-0.082v-2e-3c4e-3 -2e-3 0.0375-0.0187 0.10742-0.0508 0.074-0.0339 0.11913-0.0512 0.13476-0.0566v-2e-3c-2.7e-4 1e-4 0.0357-9e-3 0.11329-0.0293 0.0783-0.0208 0.12611-0.032 0.14453-0.0351 6e-3 -1e-3 0.0454-5e-3 0.12109-0.0117 0.12666-0.011 0.15707-0.0137 0.0898-0.0117-0.1193 3e-3 -0.1047 4e-3 0.0449 4e-3 0.0257 0 0.0702 2e-3 0.13477 8e-3 0.0757 7e-3 0.11467 0.0107 0.12109 0.0117 0.0184 3e-3 0.0662 0.0144 0.14453 0.0351 0.0776 0.0206 0.11355 0.0294 0.11328 0.0293v2e-3c0.0156 5e-3 0.0607 0.0227 0.13477 0.0566 0.07 0.0321 0.10351 0.0486 0.10742 0.0508v2e-3c9e-3 5e-3 0.0515 0.0314 0.125 0.082 0.13087 0.0901 0.15028 0.10125 0.0723 0.041-0.106-0.0818-0.0967-0.0734 0.0312 0.0312v2e-3c0.13017 0.10635 0.1402 0.11327 0.0391 0.0254-0.0633-0.055-0.0439-0.0357 0.0625 0.0684 0.0532 0.0521 0.0847 0.0849 0.0957 0.0977 0.0183 0.0213 0.0443 0.0558 0.0801 0.10546 0.0474 0.0659 0.0736 0.10365 0.0781 0.11133 9e-3 0.0146 0.0302 0.0553 0.0644 0.12696 0.0247 0.0519 0.0399 0.0875 0.0469 0.10546 8e-3 0.0202 0.0222 0.0641 0.043 0.13672 0.0217 0.0757 0.0319 0.11638 0.0332 0.12305 3e-3 0.0133 9e-3 0.0527 0.0176 0.12305 8e-3 0.0711 0.0111 0.11685 0.0117 0.13867 4.7e-4 0.0162 1.8e-4 0.0587-4e-3 0.13086-3e-3 0.0623-7e-3 0.10265-0.01 0.125-2e-3 0.0194-0.0124 0.0643-0.0234 0.11328 0.32942-0.0918 0.66976-0.13841 1.0117-0.13867 0.34008 1e-3 0.67842 0.0487 1.0059 0.14062 3e-3 -0.0429 0.01-0.0964 0.0117-0.13086 4e-3 -0.0718 0.0113-0.17137 8e-3 -0.29882-4e-3 -0.13046-0.0179-0.23472-0.0273-0.31446-8e-3 -0.066-0.0167-0.16188-0.041-0.2832-0.026-0.12977-0.0556-0.22124-0.0723-0.2793-0.0226-0.0791-0.0521-0.18528-0.10157-0.3125-0.0384-0.0988-0.0761-0.17662-0.10546-0.23828-0.0332-0.0698-0.0785-0.17012-0.15039-0.29101-0.0709-0.11932-0.13241-0.20096-0.17188-0.25586-0.0487-0.0677-0.10864-0.14864-0.18555-0.23829-0.0863-0.10065-0.16195-0.17294-0.21679-0.22656 0.0338 0.0331-8e-3 -0.0281-0.14844-0.15039-0.14053-0.1222-0.17579-0.13795-0.0859-0.0645v2e-3c0.0906 0.074 0.0703 0.0451-0.0742-0.0664-0.15257-0.11769-0.21624-0.14467-0.16211-0.10742-0.0619-0.0426-0.15219-0.10972-0.28516-0.1836v2e-3c-0.1122-0.0624-0.19842-0.0983-0.24804-0.12109-0.0731-0.0335-0.17446-0.0835-0.31055-0.13086v2e-3c-0.12285-0.0428-0.21061-0.0637-0.25781-0.0762-0.079-0.0209-0.18661-0.0508-0.32813-0.0742-0.12604-0.0209-0.21961-0.0264-0.27734-0.0312-0.0826-7e-3 -0.18474-0.0156-0.30664-0.0156 0.10015-2e-5 0.0652-9e-3 -0.10352-4e-3z" clip-rule="nonzero" color="#000000" color-rendering="auto" enable-background="accumulate" fill="#000" fill-rule="evenodd" image-rendering="auto" shape-rendering="auto" solid-color="#000000" style="block-progression:tb;isolation:auto;mix-blend-mode:normal;text-decoration-color:#000000;text-decoration-line:none;text-decoration-style:solid;text-indent:0;text-transform:none;white-space:normal"/><rect id="z" transform="matrix(.96057 .27804 -.27804 .96057 0 0)" x="498.15" y="367.86" width="2.0781" height="11.156" rx="1.0391" ry=".91834" fill="#f0f" stroke-linecap="round" stroke-linejoin="bevel" stroke-miterlimit="4" stroke-width="2"/><rect id="aa" x="386.57" y="517.8" width="28" height="28" rx="1.75" ry="1.75" fill="url(#l)" stroke-linecap="round" stroke-linejoin="bevel" stroke-miterlimit="4" stroke-width="2"/><path id="ab" transform="translate(384.57 515.8)" d="m4.2031 3c-0.66654 0-1.2031 0.57842-1.2031 1.2969v3.7031 1 4 1 4 1 4 1 3.7031c0 0.71847 0.53658 1.2969 1.2031 1.2969h3.7969 19.797c0.66653 0 1.2031-0.5784 1.2031-1.2969v-23.406c0-0.71846-0.5366-1.2969-1.2031-1.2969h-19.797-3.7969zm-0.20312 1h4v4h-4v-4zm5 0h4v4h-4v-4zm5 0h4v4h-4v-4zm5 0h4v4h-4v-4zm5 0h4v4h-4v-4zm-20 5h4v4h-4v-4zm5 0h4v4h-4v-4zm5 0h4v4h-4v-4zm5 0h4v4h-4v-4zm5 0h4v4h-4v-4zm-20 5h4v4h-4v-4zm5 0h4v4h-4v-4zm5 0h4v4h-4v-4zm5 0h4v4h-4v-4zm5 0h4v4h-4v-4zm-20 5h4v4h-4v-4zm5 0h4v4h-4v-4zm5 0h4v4h-4v-4zm5 0h4v4h-4v-4zm5 0h4v4h-4v-4zm-20 5h4v4h-4v-4zm5 0h4v4h-4v-4zm5 0h4v4h-4v-4zm5 0h4v4h-4v-4zm5 0h4v4h-4v-4z" fill="#fcfcfc" fill-opacity=".18182" stroke-linecap="round" stroke-linejoin="bevel" stroke-miterlimit="4" stroke-width="2"/><path id="ac" d="m391.57 532.8 11 11 5.1328 0.0547-11.47-10.785-1.5493-1.1567z" fill="url(#h)" fill-rule="evenodd" opacity=".32"/><path id="ad" d="m392.57 531.8-1-4 1-3 3-2 4 1 3 3 2 3 1 2-5.6875 4.75-3.8628-3.3783z" fill="url(#g)" fill-rule="evenodd" opacity=".323"/><path id="ae" d="m404.57 542.33 2.5 2.4688h6.5v-6l-3-3.375-1.4375 3.9375z" fill="url(#f)" fill-rule="evenodd" opacity=".32"/><path id="af" d="m401.32 522.95 12.247 12v5l-6-5-7-11z" fill="url(#e)" fill-rule="evenodd" opacity=".32"/><path id="ag" d="m404.57 538.8 3 3-2.0625 1.6406-3.4375-3.6406z" fill="url(#i)" fill-rule="evenodd" opacity=".32"/><path id="ah" d="m398.43 527.51 10 13-2 2-6-8-3.5938-6z" fill="url(#d)" fill-rule="evenodd" opacity=".32"/><path id="ai" transform="translate(384.57 515.8)" d="m4.2031 3c-0.66654 0-1.2031 0.57842-1.2031 1.2969v3.7031 1 4 1 4 1 4 1 3.7031c0 0.71847 0.53658 1.2969 1.2031 1.2969h3.7969v-1h-4v-4h4v-1h-4v-4h4v-1h-4v-4h4v-1h-4v-4h4v-1h-4v-4h4v-1h-3.7969z" fill="#fff" fill-opacity=".62424"/><path id="aj" d="m388.32 517.8c-0.96951 0-1.75 0.78049-1.75 1.75v24.5c0 0.96951 0.78049 1.75 1.75 1.75h24.5c0.96951 0 1.75-0.78049 1.75-1.75v-24.5c0-0.96951-0.78049-1.75-1.75-1.75h-24.5zm0.45313 1h23.594c0.66653 0 1.2031 0.57841 1.2031 1.2969v23.406c0 0.71847-0.53659 1.2969-1.2031 1.2969h-23.594c-0.66654 0-1.2031-0.57841-1.2031-1.2969v-23.406c0-0.71846 0.53659-1.2969 1.2031-1.2969z" fill="#000" fill-opacity=".16364" stroke-linecap="round" stroke-linejoin="bevel" stroke-miterlimit="4" stroke-width="2"/><path id="ak" transform="translate(384.57 515.8)" d="m11.756 4.9668c-0.19707-2e-3 -0.35206 0.011678-0.45898 0.017578-0.10371 6e-3 -0.25386 0.00845-0.44531 0.03125-0.19806 0.0239-0.3624 0.056484-0.50195 0.083984l-0.001953 0.0019531c9e-3 -2e-3 -0.091022 0.0038344-0.29492 0.052734-0.19814 0.0479-0.23135 0.065803-0.10547 0.033203 0.10586-0.0274 0.057385-0.02435-0.14062 0.03125-0.22067 0.062-0.32886 0.11222-0.33203 0.11328-0.1109 0.0373-0.26028 0.085376-0.44141 0.16016-0.16693 0.069-0.28761 0.1314-0.36719 0.16992-0.13163 0.0636-0.28791 0.13935-0.46484 0.24219-0.15374 0.0893-0.25586 0.16407-0.31836 0.20508-0.10987 0.0721-0.25801 0.16304-0.43164 0.29688-0.13582 0.1048-0.23783 0.19696-0.31445 0.26367-0.0982 0.0851-0.22008 0.19078-0.35547 0.32617-0.13541 0.13537-0.24069 0.2576-0.32617 0.35547-0.067 0.0763-0.15887 0.17863-0.26367 0.31445-0.13392 0.17353-0.2247 0.32173-0.29688 0.43164-0.041 0.0625-0.11581 0.16462-0.20508 0.31836-0.1028 0.17698-0.17851 0.33326-0.24219 0.46484-0.0385 0.0796-0.10088 0.20029-0.16992 0.36719-0.0749 0.18104-0.1229 0.33058-0.16016 0.44141-9.3e-4 3e-3 -0.051241 0.11138-0.11328 0.33203-0.0556 0.198-0.05865 0.24644-0.03125 0.14062 0.0326-0.12585 0.014697-0.092671-0.033203 0.10547-0.0493 0.20386-0.054634 0.30459-0.052734 0.29492l-0.0019532 0.001953c-0.0275 0.13958-0.060084 0.30584-0.083984 0.50391-0.0233 0.19297-0.027503 0.34542-0.033203 0.44922-6e-3 0.1067-0.017725 0.25762-0.015625 0.45312 2e-3 0.19857 0.015844 0.36489 0.027344 0.50195 8e-3 0.0926 0.017116 0.22475 0.041016 0.39453 0.0288 0.20332 0.06475 0.37083 0.09375 0.50391 0.0213 0.0981 0.050003 0.23079 0.095703 0.39453 0.0516 0.18467 0.10507 0.33807 0.15039 0.46484 0.0314 0.0878 0.074694 0.21851 0.14648 0.38672 0.0779 0.18273 0.1514 0.32008 0.20312 0.42187 0.0529 0.10389 0.12371 0.24504 0.22461 0.41406 0.0961 0.16074 0.18037 0.28245 0.24414 0.375 0.0637 0.0925 0.14654 0.21252 0.25586 0.35156 0.12447 0.15848 0.24113 0.29057 0.3457 0.4043-0.0119-0.0133 0.046386 0.06787 0.19727 0.21875l0.09375 0.09375 0.021484 0.013672c0.0249 0.0267-0.0031406 0.006066 0.068359 0.072266l0.076172 0.068359 3.3223 2.2402c0.90324 0.48531 1.7134-1.8025 1.1543-2.1387l-0.0625-0.046875-0.29102 0.42188c-0.25999 0.37463-0.75857 0.44908-1.1191 0.16992-0.36057-0.27916-0.44358-0.8031-0.18359-1.1777l0.27539-0.39453-1.416-1.127c-0.0134-0.0152 0.022231 0.018425-0.042969-0.046875l-0.085938-0.085938c-8.4e-4 -1e-3 -0.0019062-0.001906-0.0039062-0.003906-0.0203-0.024 0.0020125-0.004706-0.054688-0.066406-0.0913-0.0987-0.16611-0.18115-0.21875-0.24805-0.0365-0.0459-0.085207-0.1184-0.1543-0.21875-0.0741-0.10754-0.12825-0.18341-0.15625-0.23047-0.0295-0.0495-0.070802-0.13383-0.13281-0.25586-0.0632-0.12432-0.10954-0.21163-0.13086-0.26172-0.0162-0.0381-0.041938-0.11719-0.085938-0.24023-0.0438-0.12248-0.078056-0.21691-0.097656-0.28711-0.0133-0.0475-0.029488-0.12799-0.054688-0.24414-0.0298-0.13725-0.0525-0.23946-0.0625-0.31055-6e-3 -0.042-0.011484-0.12323-0.021484-0.24414-0.0112-0.13398-0.018731-0.23794-0.019531-0.3125-5.6e-4 -0.0484 0.0039188-0.14006 0.011719-0.2793l-0.0019531-0.001953 0.0019531-0.001953c8e-3 -0.13706 0.013731-0.2255 0.019531-0.27344 0.0090001-0.0752 0.028688-0.18179 0.054688-0.31445 0.0323-0.16518 0.039897-0.22572 0.029297-0.18164-0.0337 0.13949-0.026216 0.11775 0.021484-0.066406 0.0471-0.18199 0.050025-0.21185 0.015625-0.089844-0.0105 0.0374 0.018825-0.025242 0.078125-0.20117 0.0435-0.12949 0.07235-0.22182 0.09375-0.27344 0.0146-0.0353 0.051252-0.10827 0.10742-0.22461 0.0604-0.12483 0.10889-0.22092 0.14844-0.28906 0.0141-0.0235 0.055613-0.088786 0.12695-0.19727 0.084-0.12796 0.14601-0.21646 0.18555-0.26758 0.0304-0.0397 0.085932-0.10279 0.16406-0.19336 0.0855-0.0986 0.15047-0.17196 0.19922-0.2207 0.0488-0.0488 0.12237-0.11344 0.2207-0.19922 0.09-0.0788 0.15382-0.13349 0.19336-0.16406 0.0509-0.0397 0.13962-0.1015 0.26758-0.18555 0.10857-0.0714 0.17351-0.11309 0.19727-0.12695 0.0681-0.0395 0.16618-0.088028 0.29102-0.14844 0.11641-0.0562 0.18925-0.092852 0.22461-0.10742 0.0517-0.0214 0.14391-0.052103 0.27344-0.095703 0.17608-0.0593 0.23659-0.086672 0.19922-0.076172-0.12192 0.0343-0.092056 0.031375 0.089844-0.015625 0.18415-0.0478 0.20586-0.055184 0.066406-0.021484-0.0441 0.0107 0.016961 0.0029031 0.18164-0.029297l0.001953-0.0019531c0.13136-0.0258 0.23779-0.043734 0.3125-0.052734 0.048-6e-3 0.13633-0.011931 0.27344-0.019531l0.001953-0.0019532 0.001954 0.0019532c0.13931-0.0080001 0.23085-0.012219 0.2793-0.011719 0.0746 7.4e-4 0.17848 0.0084313 0.3125 0.019531 0.1209 0.0101 0.2021 0.015584 0.24414 0.021484 0.0711 0.01 0.17334 0.0326 0.31055 0.0625 0.11622 0.0252 0.1967 0.041388 0.24414 0.054688 0.0703 0.0196 0.16468 0.051903 0.28711 0.095703 0.12305 0.044 0.20211 0.071591 0.24023 0.087891 0.0501 0.0213 0.13741 0.067689 0.26172 0.13086 0.12202 0.062 0.20827 0.10326 0.25781 0.13281 0.047 0.0281 0.12092 0.08211 0.22852 0.15625 0.10034 0.0691 0.17261 0.11807 0.21875 0.1543 0.0673 0.0523 0.14902 0.1278 0.24805 0.21875 0.0618 0.0562 0.042506 0.034488 0.066406 0.054688l0.003907 0.0039063 0.085937 0.085938c0.0649 0.0657 0.031675 0.029769 0.046875 0.042969l7.5898 11.32 0.42578 0.14453c-0.10156-0.0345-0.074744-0.022225 0.097656 0.046875l0.001954 0.001953c0.0853 0.0341 0.14686 0.060126 0.18164 0.078126 0.0186 9e-3 0.063482 0.033478 0.13867 0.080078 0.0831 0.0515 0.13417 0.085838 0.16016 0.10547 0.0237 0.0181 0.06305 0.054935 0.125 0.10938 0.0712 0.0637 0.11178 0.10202 0.12695 0.11719 0.0198 0.021 0.060821 0.066005 0.11914 0.14062 0.0583 0.0733 0.087756 0.11782 0.097656 0.13281 6e-3 7e-3 0.033485 0.053452 0.083985 0.14453 0.0484 0.0873 0.07639 0.1417 0.08789 0.16797 0.0103 0.0234 0.029288 0.071048 0.054688 0.14258 0.035 0.0988 0.052993 0.1579 0.058593 0.17969 3e-3 0.0121 0.01385 0.069971 0.03125 0.17578 0.013 0.0799 0.020738 0.13686 0.023438 0.17383 2e-3 0.0221 0.002953 0.083181 0.001953 0.18164-2e-3 0.19664-0.003094 0.23163 0.003906 0.12109 0.0124-0.17666 0.010082-0.16049-0.011718 0.060547l0.001953 0.001953c-0.0219 0.21735-0.0226 0.2341 0 0.058594 0.0167-0.12921 0.008903-0.10101-0.029297 0.10547-0.0214 0.11594-0.037416 0.18053-0.041016 0.19336l0.001953 0.001953c-2e-3 6e-3 -0.017434 0.053127-0.052734 0.14844-0.0375 0.10081-0.062666 0.15808-0.072266 0.17774l0.001954 0.001953c1.59e-4 -3.4e-4 -0.024525 0.043355-0.078126 0.13476-0.053699 0.0926-0.089225 0.14786-0.10352 0.16797-5e-3 7e-3 -0.037073 0.046057-0.10156 0.12305-0.10806 0.12861-0.1332 0.16036-0.072265 0.095703 0.10866-0.11426 0.092925-0.10266-0.046875 0.03711-0.024 0.024-0.066903 0.06443-0.13281 0.11914-0.0773 0.0642-0.11612 0.096473-0.12305 0.10156-0.02 0.0144-0.075378 0.049725-0.16797 0.10352-0.0917 0.0533-0.13316 0.078225-0.13281 0.078125l-0.001953-0.001953c-0.0192 0.01-0.078857 0.034766-0.17969 0.072266-0.095399 0.0354-0.14273 0.051134-0.14844 0.052734l-0.001953-0.001953c-0.0131 4e-3 -0.07743 0.019616-0.19336 0.041016-0.20645 0.0381-0.23463 0.045897-0.10547 0.029297 0.17546-0.022601 0.15874-0.0219-0.058594 0l-0.001953-0.001954c-0.22098 0.0223-0.23717 0.024119-0.060547 0.011719 0.11053-8e-3 0.075566-0.006906-0.12109-0.003906-0.0984 1e-3 -0.1594-9.3e-5 -0.18164-0.001953-0.037-3e-3 -0.093969-0.010538-0.17383-0.023438-0.10586-0.0173-0.16439-0.02835-0.17578-0.03125-0.022-5e-3 -0.080757-0.023594-0.17969-0.058594-0.0716-0.025399-0.11926-0.044387-0.14258-0.054687-0.0264-0.0114-0.080689-0.039491-0.16797-0.087891-0.091-0.0505-0.13708-0.078884-0.14453-0.083984-0.0152-0.01-0.059023-0.041909-0.13281-0.099609-0.0739-0.059-0.11968-0.097368-0.14062-0.11719-0.0156-0.0147-0.053567-0.055753-0.11719-0.12695-0.025137-0.027677-0.031964-0.036888-0.048828-0.056641a2.2972 2.2972 0 0 1-1.9707 1.6484c-0.020329 0.0118-0.038091 0.027546-0.058593 0.039062 0.037 0.0432 0.080918 0.098803 0.11133 0.13281 0.0634 0.0708 0.14912 0.16937 0.27148 0.28516 0.12563 0.11816 0.23508 0.20382 0.31836 0.26953 0.0691 0.0542 0.16668 0.13591 0.30274 0.22656 0.14553 0.0969 0.26025 0.1547 0.33008 0.19336 0.095 0.0528 0.22163 0.12463 0.38672 0.19727 0.12819 0.0564 0.23526 0.092857 0.32031 0.12305 0.0962 0.0342 0.23199 0.085069 0.41211 0.13086 0.17772 0.0452 0.31222 0.065578 0.40039 0.080078 0.10875 0.0178 0.24086 0.036928 0.39648 0.048828 0.17467 0.0134 0.31273 0.009113 0.41406 0.007813-0.0625 6.5e-4 0.033797 0.020706 0.2793 0.003906 0.24546-0.0171 0.2933-0.036884 0.14062-0.021484l-0.003906-0.001953c-0.15379 0.0155-0.10638 0.02464 0.13281-0.00586 0.2525-0.0326 0.33733-0.068534 0.25195-0.052734 0.0976-0.018 0.24424-0.03855 0.4375-0.09375l-0.001953-0.001953c0.16313-0.0465 0.27609-0.094121 0.34375-0.11914 0.0996-0.037 0.24267-0.085089 0.41406-0.16797l-0.001953-0.001953c0.15477-0.0748 0.25477-0.1375 0.31055-0.16992 0.093299-0.0543 0.22286-0.12596 0.37695-0.23633 0.13729-0.0982 0.22859-0.18111 0.28711-0.23047 0.0837-0.0706 0.18883-0.15759 0.30273-0.27148-0.0936 0.0936-0.05335 0.06855 0.09961-0.09375 0.1497-0.15905 0.19654-0.23831 0.17188-0.20898 0.0492-0.0586 0.13214-0.14992 0.23047-0.28711 0.11027-0.15418 0.18208-0.28365 0.23633-0.37695 0.0324-0.0558 0.095122-0.15773 0.16992-0.3125l0.001953 0.001953c0.0829-0.17143 0.13092-0.31253 0.16797-0.41211 0.0251-0.0675 0.072631-0.18063 0.11914-0.34375l0.001953 0.001953c0.0552-0.19328 0.07575-0.33987 0.09375-0.4375-0.0158 0.0853 0.018681 1.57e-4 0.050781-0.25195 0.0309-0.23919 0.023613-0.28657 0.007813-0.13281l0.001953 0.001954c-0.0154 0.15257 0.002431 0.10482 0.019531-0.14062 0.0173-0.24585-9.53e-4 -0.34183-0.001953-0.2793 1e-3 -0.10128 0.005188-0.23942-0.007812-0.41406-0.012-0.15565-0.032982-0.28574-0.050782-0.39453-0.0144-0.0882-0.032825-0.22266-0.078125-0.40039-0.0458-0.18012-0.096669-0.31589-0.13086-0.41211-0.0302-0.0851-0.06862-0.19398-0.125-0.32227-0.0726-0.16511-0.14262-0.29167-0.19531-0.38672-0.0388-0.0698-0.09643-0.18258-0.19336-0.32812-0.0907-0.13605-0.17218-0.23378-0.22656-0.30274-0.0661-0.0829-0.1511-0.19301-0.26953-0.31836-0.11534-0.12281-0.2143-0.21006-0.28516-0.27344-0.0739-0.0664-0.1694-0.14933-0.29102-0.24219-0.1432-0.10862-0.27027-0.18693-0.36914-0.24805-0.0745-0.0461-0.17663-0.11341-0.31641-0.18555-0.0706-0.0364-0.12432-0.055984-0.1875-0.083984l-7.2676-10.838-0.06836-0.076172c-0.0657-0.0713-0.045166-0.043859-0.072266-0.068359l-0.013671-0.021484-0.09375-0.09375c-0.15088-0.15087-0.23193-0.20933-0.21875-0.19727-0.11383-0.10449-0.24788-0.22115-0.40625-0.3457-0.13904-0.10932-0.25714-0.19216-0.34961-0.25586-0.0926-0.0638-0.21427-0.14807-0.375-0.24414-0.16896-0.10095-0.31009-0.17178-0.41406-0.22461-0.10175-0.0518-0.23916-0.1252-0.42188-0.20312-0.1682-0.0718-0.29885-0.11506-0.38672-0.14648-0.12678-0.0453-0.28216-0.098731-0.4668-0.15039-0.16369-0.0458-0.29446-0.074303-0.39258-0.095703-0.13305-0.029-0.30055-0.06495-0.50391-0.09375-0.16976-0.024-0.30191-0.033316-0.39453-0.041016-0.13707-0.0115-0.30338-0.025244-0.50195-0.027344z" clip-rule="nonzero" color="#000000" color-rendering="auto" enable-background="accumulate" fill="url(#k)" fill-rule="evenodd" image-rendering="auto" shape-rendering="auto" solid-color="#000000" style="block-progression:tb;isolation:auto;mix-blend-mode:normal;text-decoration-color:#000000;text-decoration-line:none;text-decoration-style:solid;text-indent:0;text-transform:none;white-space:normal"/><rect id="al" transform="matrix(-.87583 .48262 -.48262 -.87583 0 0)" x="-94.392" y="-668.03" width="2.7458" height="14.741" rx="1.3729" ry="1.2134" fill="url(#j)" stroke-linecap="round" stroke-linejoin="bevel" stroke-miterlimit="4" stroke-width="2"/><path id="am" transform="translate(384.57 515.8)" d="m14.084 5.4004c0.098638 0.050172 0.21267 0.10766 0.35938 0.19531 0.16073 0.09607 0.2824 0.18034 0.375 0.24414 0.09247 0.0637 0.21057 0.14654 0.34961 0.25586 0.15837 0.12455 0.29242 0.24121 0.40625 0.3457-0.01318-0.01206 0.06787 0.046396 0.21875 0.19727l0.09375 0.09375 0.013672 0.021484c0.0271 0.0245 0.006565-0.0029406 0.072265 0.068359l0.06836 0.076172 7.2676 10.838c0.06318 0.028 0.1169 0.047585 0.1875 0.083984 0.13978 0.07214 0.24191 0.13945 0.31641 0.18555 0.09887 0.06112 0.22594 0.13943 0.36914 0.24805 0.12161 0.09286 0.21712 0.17579 0.29102 0.24219 0.07086 0.06338 0.16982 0.15063 0.28516 0.27344 0.11843 0.12535 0.20343 0.23546 0.26953 0.31836 0.05438 0.06896 0.13586 0.16668 0.22656 0.30273 0.09696 0.14554 0.15456 0.25832 0.19336 0.32812 0.05269 0.09505 0.12271 0.22161 0.19531 0.38672 0.0564 0.12829 0.0948 0.23716 0.125 0.32226 0.03416 0.09622 0.08506 0.23199 0.13086 0.41211 0.045299 0.17773 0.063724 0.31219 0.078124 0.40039 0.0178 0.10879 0.038782 0.23888 0.050782 0.39453 0.013 0.17464 0.008812 0.31278 0.007812 0.41406 0.00104-0.06253 0.019253 0.033447 0.001953 0.2793-0.0175 0.24545-0.034931 0.2932-0.019531 0.14062l-0.001953-0.001953c0.0156-0.15376 0.023087-0.10638-0.007813 0.13281-0.032099 0.25211-0.066581 0.33725-0.050781 0.25195-0.018 0.09763-0.03855 0.24422-0.09375 0.4375l-0.001953-0.001953c-0.04654 0.16312-0.09404 0.27625-0.11914 0.34375-0.037051 0.09958-0.085069 0.24068-0.16797 0.41211l-0.001953-0.001953c-0.07482 0.15477-0.13752 0.2567-0.16992 0.3125-0.05425 0.0933-0.12606 0.22277-0.23633 0.37695-0.09833 0.13719-0.18127 0.22851-0.23047 0.28711 0.02466-0.02933-0.022175 0.049935-0.17188 0.20898-0.1529 0.1622-0.19321 0.18735-0.09961 0.09375-0.1139 0.11389-0.21903 0.20088-0.30273 0.27148-0.05852 0.04936-0.14982 0.13227-0.28711 0.23047-0.15409 0.11037-0.28365 0.18203-0.37695 0.23633-0.05578 0.03242-0.15578 0.095122-0.31055 0.16992l0.001953 0.001953c-0.17139 0.08287-0.31446 0.13097-0.41406 0.16797-0.06766 0.025039-0.18062 0.07264-0.34375 0.11914l0.001953 0.001953c-0.19326 0.0552-0.3399 0.07575-0.4375 0.09375 0.08538-0.0158 5.47e-4 0.020135-0.25195 0.052735-0.23919 0.0306-0.2866 0.021359-0.13281 0.005859l0.003906 0.001953c0.15268-0.0154 0.10484 0.004384-0.14062 0.021484-0.24549 0.016701-0.3418-0.003256-0.2793-0.003906-0.10133 1e-3 -0.23939 0.005588-0.41406-0.007812-0.15562-0.0119-0.28774-0.031028-0.39648-0.048828-0.08817-0.0145-0.22267-0.034878-0.40039-0.080078-0.15027-0.038177-0.25244-0.076726-0.34375-0.10938 0.004473 0.002442 0.015373 0.009418 0.019531 0.011719 0.095 0.0528 0.22163 0.12463 0.38672 0.19727 0.12819 0.0564 0.23526 0.092857 0.32031 0.12305 0.0962 0.0342 0.23199 0.085069 0.41211 0.13086 0.17772 0.0452 0.31222 0.065578 0.40039 0.080078 0.10875 0.0178 0.24086 0.036928 0.39648 0.048828 0.17467 0.0134 0.31273 0.009113 0.41406 0.007813-0.0625 6.5e-4 0.033797 0.020706 0.2793 0.003906 0.24546-0.0171 0.2933-0.036884 0.14062-0.021484l-0.003906-0.001953c-0.15379 0.0155-0.10638 0.02464 0.13281-0.00586 0.2525-0.0326 0.33733-0.068534 0.25195-0.052734 0.0976-0.018 0.24424-0.03855 0.4375-0.09375l-0.001953-0.001953c0.16313-0.0465 0.27609-0.094121 0.34375-0.11914 0.0996-0.037 0.24267-0.085089 0.41406-0.16797l-0.001953-0.001953c0.15477-0.0748 0.25477-0.1375 0.31055-0.16992 0.093299-0.0543 0.22286-0.12596 0.37695-0.23633 0.13729-0.0982 0.22859-0.18111 0.28711-0.23047 0.0837-0.0706 0.18883-0.15759 0.30273-0.27148-0.0936 0.0936-0.05335 0.06855 0.09961-0.09375 0.1497-0.15905 0.19654-0.23831 0.17188-0.20898 0.0492-0.0586 0.13214-0.14992 0.23047-0.28711 0.11027-0.15418 0.18208-0.28365 0.23633-0.37695 0.0324-0.0558 0.095122-0.15773 0.16992-0.3125l0.001953 0.001953c0.0829-0.17143 0.13092-0.31253 0.16797-0.41211 0.0251-0.0675 0.072631-0.18063 0.11914-0.34375l0.001953 0.001953c0.0552-0.19328 0.07575-0.33987 0.09375-0.4375-0.0158 0.0853 0.018681 1.57e-4 0.050781-0.25195 0.0309-0.23919 0.023613-0.28657 0.007813-0.13281l0.001953 0.001954c-0.0154 0.15257 0.002431 0.10482 0.019531-0.14062 0.0173-0.24585-9.53e-4 -0.34183-0.001953-0.2793 1e-3 -0.10128 0.005188-0.23942-0.007812-0.41406-0.012-0.15565-0.032982-0.28574-0.050782-0.39453-0.0144-0.0882-0.032825-0.22266-0.078125-0.40039-0.0458-0.18012-0.096669-0.31589-0.13086-0.41211-0.0302-0.0851-0.06862-0.19398-0.125-0.32227-0.0726-0.16511-0.14262-0.29167-0.19531-0.38672-0.0388-0.0698-0.09643-0.18258-0.19336-0.32812-0.0907-0.13605-0.17218-0.23378-0.22656-0.30274-0.0661-0.0829-0.1511-0.19301-0.26953-0.31836-0.11534-0.12281-0.2143-0.21006-0.28516-0.27344-0.0739-0.0664-0.1694-0.14933-0.29102-0.24219-0.1432-0.10862-0.27027-0.18693-0.36914-0.24805-0.0745-0.0461-0.17663-0.11341-0.31641-0.18555-0.0706-0.0364-0.12432-0.055984-0.1875-0.083984l-7.2676-10.838-0.06836-0.076172c-0.0657-0.0713-0.045166-0.043859-0.072266-0.068359l-0.013671-0.021484-0.09375-0.09375c-0.15088-0.15087-0.23193-0.20933-0.21875-0.19727-0.11383-0.10449-0.24788-0.22115-0.40625-0.3457-0.13904-0.10932-0.25714-0.19216-0.34961-0.25586-0.0926-0.0638-0.21427-0.14807-0.375-0.24414-0.16896-0.10095-0.31009-0.17178-0.41406-0.22461-0.10175-0.0518-0.23916-0.1252-0.42188-0.20312-0.13854-0.059139-0.23369-0.091346-0.31836-0.12109zm-3.1523 1.8555c-0.04845-5e-4 -0.13999 0.0037187-0.2793 0.011719l-0.001953-0.0019531-0.001953 0.0019531c-0.13711 0.0076-0.22544 0.013531-0.27344 0.019531-0.07471 9e-3 -0.18114 0.026934-0.3125 0.052734l-0.001953 0.0019531c-0.16464 0.0323-0.22574 0.039997-0.18164 0.029297 0.13945-0.0337 0.11774-0.026316-0.066406 0.021484-0.1819 0.047-0.21176 0.049925-0.089844 0.015625 0.03737-0.0105-0.023139 0.016872-0.19922 0.076172-0.12953 0.0436-0.22174 0.074303-0.27344 0.095703-0.03536 0.01462-0.1082 0.051222-0.22461 0.10742-0.12484 0.06044-0.22292 0.10894-0.29102 0.14844-0.02376 0.01386-0.088696 0.055553-0.19727 0.12695-0.12796 0.08405-0.21668 0.14585-0.26758 0.18555-0.03954 0.03057-0.10336 0.085262-0.19336 0.16406-0.09833 0.08578-0.1719 0.15042-0.2207 0.19922-0.04875 0.04874-0.11372 0.1221-0.19922 0.2207-0.07817 0.09057-0.13366 0.15366-0.16406 0.19336-0.03954 0.05112-0.10155 0.13962-0.18555 0.26758-0.07136 0.10847-0.11285 0.17377-0.12695 0.19727-0.03955 0.06814-0.088038 0.16423-0.14844 0.28906-0.05613 0.11634-0.092822 0.18931-0.10742 0.22461-0.0214 0.05162-0.05025 0.14395-0.09375 0.27344-0.0593 0.17597-0.088625 0.23857-0.078125 0.20117 0.0344-0.12205 0.031475-0.092146-0.015625 0.089844-0.0477 0.18415-0.055184 0.2059-0.021484 0.066406 0.0106-0.04408 0.0030031 0.016461-0.029297 0.18164-0.026 0.13266-0.045688 0.23925-0.054688 0.31445-0.0058 0.04794-0.011531 0.13638-0.019531 0.27344l-0.0019531 0.001953 0.0019531 0.001953c-0.0077 0.13924-0.012279 0.2309-0.011719 0.2793 8e-4 0.07456 0.0083312 0.17852 0.019531 0.3125 0.01 0.12091 0.015484 0.20214 0.021484 0.24414 0.01 0.07109 0.0327 0.1733 0.0625 0.31055 0.0252 0.11615 0.041388 0.19664 0.054688 0.24414 0.0196 0.0702 0.053856 0.16463 0.097656 0.28711 0.044 0.12304 0.069737 0.20214 0.085937 0.24023 0.02132 0.05009 0.067659 0.1374 0.13086 0.26172 0.06201 0.12203 0.10331 0.20636 0.13281 0.25586 0.028 0.04706 0.08215 0.12293 0.15625 0.23047 0.0691 0.10035 0.1178 0.17285 0.1543 0.21875 0.05264 0.0669 0.12745 0.14935 0.21875 0.24805 0.0567 0.0614 0.034388 0.042406 0.054688 0.066406 2e-3 0.002001 0.0030663 0.002907 0.0039063 0.003907l0.085937 0.085937c0.0652 0.0653 0.029569 0.031675 0.042969 0.046875l1.416 1.127-0.27539 0.39453c-0.25999 0.37463-0.17698 0.89857 0.18359 1.1777 0.18752 0.14518 0.40994 0.19093 0.61914 0.15234-0.19624-0.28887-0.21533-0.67754-0.0078125-0.97656l0.27539-0.39453-1.416-1.127c-0.0134-0.0152 0.022231 0.018425-0.042969-0.046875l-0.085938-0.085938c-8.4e-4 -1e-3 -0.0019062-0.001906-0.0039062-0.003906-0.0203-0.024 0.0020125-0.004706-0.054688-0.066406-0.0913-0.0987-0.16611-0.18115-0.21875-0.24805-0.0365-0.0459-0.085207-0.1184-0.1543-0.21875-0.0741-0.10754-0.12825-0.18341-0.15625-0.23047-0.0295-0.0495-0.070802-0.13383-0.13281-0.25586-0.0632-0.12432-0.10954-0.21163-0.13086-0.26172-0.0162-0.0381-0.041938-0.11719-0.085938-0.24023-0.0438-0.12248-0.078056-0.21691-0.097656-0.28711-0.0133-0.0475-0.029488-0.12799-0.054688-0.24414-0.0298-0.13725-0.0525-0.23946-0.0625-0.31055-6e-3 -0.042-0.011484-0.12323-0.021484-0.24414-0.0112-0.13398-0.018731-0.23794-0.019531-0.3125-5.6e-4 -0.0484 0.0039188-0.14006 0.011719-0.2793l-0.0019531-0.001953 0.0019531-0.001953c8e-3 -0.13706 0.013731-0.2255 0.019531-0.27344 0.0090001-0.0752 0.028687-0.18179 0.054688-0.31445 0.0323-0.16518 0.039897-0.22572 0.029297-0.18164-0.0337 0.13949-0.026216 0.11775 0.021484-0.066406 0.0471-0.18199 0.050025-0.21185 0.015625-0.089844-0.0105 0.0374 0.018825-0.025242 0.078125-0.20117 0.0435-0.12949 0.07235-0.22182 0.09375-0.27344 0.0146-0.035299 0.051252-0.10827 0.10742-0.22461 0.0604-0.12483 0.10889-0.22092 0.14844-0.28906 0.0141-0.0235 0.055613-0.088786 0.12695-0.19727 0.084-0.12796 0.14601-0.21646 0.18555-0.26758 0.0304-0.0397 0.085932-0.10279 0.16406-0.19336 0.0855-0.0986 0.15047-0.17196 0.19922-0.2207 0.0488-0.0488 0.12237-0.11344 0.2207-0.19922 0.09-0.0788 0.15382-0.13349 0.19336-0.16406 0.0509-0.0397 0.13962-0.1015 0.26758-0.18555 0.10857-0.0714 0.17351-0.11309 0.19727-0.12695 0.0681-0.0395 0.16618-0.088028 0.29102-0.14844 0.11641-0.0562 0.18925-0.092852 0.22461-0.10742 0.0517-0.0214 0.14391-0.052103 0.27344-0.095703 0.17608-0.0593 0.23659-0.086672 0.19922-0.076172-0.12192 0.0343-0.092056 0.031375 0.089844-0.015625 0.18415-0.0478 0.20586-0.055184 0.066406-0.021484-0.0441 0.0107 0.016961 0.0029031 0.18164-0.029297l0.001953-0.0019531c0.13136-0.0258 0.23779-0.043734 0.3125-0.052734 0.048-6e-3 0.13633-0.011931 0.27344-0.019531l0.001953-0.0019532 0.001954 0.0019532c0.13931-0.0080001 0.23085-0.012219 0.2793-0.011719 0.074601 7.4e-4 0.17848 0.0084313 0.3125 0.019531 0.1209 0.0101 0.2021 0.015584 0.24414 0.021484 0.0711 0.01 0.17334 0.0326 0.31055 0.0625 0.11622 0.0252 0.1967 0.041388 0.24414 0.054688 0.048349 0.01348 0.12484 0.041301 0.19726 0.066406-0.051278-0.027534-0.10683-0.056539-0.20312-0.10547-0.12431-0.06316-0.21162-0.10956-0.26172-0.13086-0.038119-0.0163-0.11718-0.043891-0.24023-0.087891-0.12243-0.0438-0.21681-0.076103-0.28711-0.095703-0.04744-0.0133-0.12792-0.029488-0.24414-0.054688-0.13721-0.0299-0.23945-0.0525-0.31055-0.0625-0.04204-0.0059-0.12324-0.011384-0.24414-0.021484-0.13402-0.0115-0.2379-0.018791-0.3125-0.019531zm0.51953 9.8496-0.29102 0.42188c-0.088365 0.12733-0.20919 0.20584-0.33789 0.26172-0.14835 0.54879-0.49555 1.1217-0.9082 1.2012l0.44531 0.30078c0.90324 0.48531 1.7134-1.8025 1.1543-2.1387l-0.0625-0.046875zm10.887 3.0957 0.035156 0.050781 0.11133 0.037109c-0.022548-0.014629-0.029324-0.019712-0.060547-0.039062-0.046397-0.028763-0.061671-0.035352-0.085937-0.048828zm-1.7832 3.4609a2.2972 2.2972 0 0 1-0.070313 0.20508c0.005728 0.002721 0.023087 0.011833 0.027344 0.013671 0.02332 0.0103 0.070978 0.029288 0.14258 0.054688 0.09889 0.035 0.15769 0.053594 0.17969 0.058594 0.005818 0.00143 0.059405 0.010144 0.089844 0.015625-0.021592-0.016135-0.027775-0.019722-0.0625-0.046875-0.0739-0.059-0.11968-0.097368-0.14062-0.11719-0.0156-0.0147-0.053567-0.055753-0.11719-0.12695-0.025137-0.027677-0.031964-0.036888-0.048828-0.056641z" clip-rule="nonzero" color="#000000" color-rendering="auto" enable-background="accumulate" fill="#000" fill-opacity=".13725" fill-rule="evenodd" image-rendering="auto" shape-rendering="auto" solid-color="#000000" style="block-progression:tb;isolation:auto;mix-blend-mode:normal;text-decoration-color:#000000;text-decoration-line:none;text-decoration-style:solid;text-indent:0;text-transform:none;white-space:normal"/><path id="an" transform="translate(384.57 515.8)" d="m13.029 11.314c0.058394 0.063425 0.11119 0.13271 0.1543 0.21094l5.9434 10.785c0.32444 0.58876 0.048966 1.3575-0.61719 1.7246-0.27287 0.15037-0.56249 0.18748-0.83789 0.16406 0.38108 0.41391 1.0552 0.50776 1.6328 0.18945 0.66615-0.36708 0.94162-1.1359 0.61719-1.7246l-5.9434-10.785c-0.19165-0.34779-0.55201-0.53089-0.94922-0.56445z" fill="#000" fill-opacity=".13725" stroke-linecap="round" stroke-linejoin="bevel" stroke-miterlimit="4" stroke-width="2"/></g></svg>
