<?xml version="1.0" encoding="UTF-8"?>
<svg version="1.1" viewBox="0 0 48 48" xmlns="http://www.w3.org/2000/svg" xmlns:xlink="http://www.w3.org/1999/xlink"><defs><linearGradient id="b"><stop stop-color="#bf4231" offset="0"/><stop stop-color="#e05e4c" offset="1"/></linearGradient><linearGradient id="a"><stop offset="0"/><stop stop-opacity="0" offset="1"/></linearGradient><linearGradient id="g" x1="35" x2="19" y1="44" y2="3" gradientTransform="matrix(1.05,0,0,1.05,-1.2,-1.2)" gradientUnits="userSpaceOnUse"><stop stop-color="#c6cdd1" offset="0"/><stop stop-color="#e0e5e7" offset="1"/></linearGradient><linearGradient id="m" x1="-16" x2="-8.664" y1="12" y2="9.744" gradientTransform="translate(-12,12)" gradientUnits="userSpaceOnUse" xlink:href="#b"/><linearGradient id="l" x1="-16" x2="-8.664" y1="12" y2="13.988" gradientTransform="translate(2.0003 -50)" gradientUnits="userSpaceOnUse" xlink:href="#b"/><linearGradient id="k" x1="-16" x2="-8.664" y1="12" y2="13.192" gradientTransform="translate(-26 -22)" gradientUnits="userSpaceOnUse" xlink:href="#b"/><linearGradient id="j" x1="34" x2="43" y1="9" y2="18" gradientTransform="translate(2 -2.0003)" gradientUnits="userSpaceOnUse" xlink:href="#a"/><linearGradient id="i" x1="9.246" x2="18" y1="33.122" y2="41.875" gradientTransform="translate(-2,2)" gradientUnits="userSpaceOnUse" xlink:href="#a"/><linearGradient id="h" x1="21" x2="31" y1="21" y2="31" gradientUnits="userSpaceOnUse" xlink:href="#a"/><linearGradient id="f" x1="21" x2="31" y1="21" y2="31" gradientTransform="translate(-7,7)" gradientUnits="userSpaceOnUse" xlink:href="#a"/><linearGradient id="e" x1="-16" x2="-8.664" y1="12" y2="9.744" gradientTransform="translate(-19,5)" gradientUnits="userSpaceOnUse" xlink:href="#b"/><linearGradient id="d" x1="21" x2="31" y1="21" y2="31" gradientTransform="translate(7,-7)" gradientUnits="userSpaceOnUse" xlink:href="#a"/><linearGradient id="c" x1="-16" x2="-8.664" y1="12" y2="9.744" gradientTransform="translate(-5,19)" gradientUnits="userSpaceOnUse" xlink:href="#b"/></defs><g><rect x="3" y="3" width="42" height="42" rx="2.1" ry="2.1" fill="url(#g)"/><path d="m10 3-7 7 7 7 7-7-7-7zm7 7 7 7 7-7-7-7-7 7zm14 0 7 7 7-7-7-7-7 7zm7 7-7 7 7 7 7-7-7-7zm0 14-7 7 7 7 7-7-7-7zm-7 7-7-7-7 7 7 7 7-7zm-14 0-7-7-7 7 7 7 7-7zm-7-7 7-7-7-7-7 7 7 7zm7-7 7 7 7-7-7-7-7 7z" fill="#d4ba94"/><path d="m26.52 20.908-2.5156 0.48828-3.0176 3.1934-0.05664 1.9668 17.443 17.443h3.627c1.108 0 2-0.892 2-2v-3.6113l-17.48-17.48z" fill="url(#h)" opacity=".3"/><rect transform="rotate(-90)" x="-28" y="20" width="8" height="8" rx="4" ry="4" fill="url(#m)"/><path d="m12.367 34.75-2.5156 0.48828-3.0176 3.1934-0.056641 1.9668 4.6016 4.6016h11.238l-10.25-10.25z" fill="url(#i)" opacity=".3"/><rect transform="matrix(0,-1,-1,0,0,0)" x="-42" y="-14" width="8" height="8" rx="4" ry="4" fill="url(#k)"/><path d="m40.514 6.8887-2.5156 0.48828-3.0176 3.1934-0.056641 1.9668 10.076 10.076v-11.238l-4.4863-4.4863z" fill="url(#j)" opacity=".3"/><rect transform="matrix(0,-1,-1,0,0,0)" x="-14" y="-42" width="8" height="8" rx="4" ry="4" fill="url(#l)"/><path d="m3 41.9v1c0 1.1634 0.93621 2.0996 2.0996 2.0996h37.801c1.1634 0 2.0996-0.93621 2.0996-2.0996v-1c0 1.1634-0.93621 2.0996-2.0996 2.0996h-37.801c-1.1634 0-2.0996-0.93621-2.0996-2.0996z" fill="#000" opacity=".15"/><path d="m19.52 27.908-2.5156 0.48828-3.0176 3.1934-0.05664 1.9668 11.443 11.443h11.238l-17.092-17.092z" fill="url(#f)" opacity=".3"/><rect transform="rotate(-90)" x="-35" y="13" width="8" height="8" rx="4" ry="4" fill="url(#e)"/><path d="m33.52 13.908-2.5156 0.48828-3.0176 3.1934-0.05664 1.9668 17.07 17.07v-11.238l-11.48-11.48z" fill="url(#d)" opacity=".3"/><rect transform="rotate(-90)" x="-21" y="27" width="8" height="8" rx="4" ry="4" fill="url(#c)"/></g></svg>
