<?xml version="1.0" encoding="UTF-8"?>
<svg id="z" version="1.0" viewBox="0 0 100 100" xmlns="http://www.w3.org/2000/svg" xmlns:xlink="http://www.w3.org/1999/xlink"><defs id="aa"><linearGradient id="d"><stop id="ab" stop-color="#9f1701" offset="0"/><stop id="ac" stop-color="#9f1701" stop-opacity="0" offset="1"/></linearGradient><linearGradient id="e"><stop id="ad" stop-color="#0c0000" offset="0"/><stop id="ae" stop-color="#3b0300" stop-opacity="0" offset="1"/></linearGradient><linearGradient id="a"><stop id="af" stop-color="#600b01" offset="0"/><stop id="ag" stop-color="#600b01" stop-opacity="0" offset="1"/></linearGradient><linearGradient id="f"><stop id="ah" stop-color="#ffebf2" offset="0"/><stop id="ai" stop-color="#fe005d" stop-opacity="0" offset="1"/></linearGradient><linearGradient id="b"><stop id="aj" stop-color="#600b01" offset="0"/><stop id="ak" stop-color="#9f1701" offset=".057203"/><stop id="al" stop-color="#6d0d00" offset=".43245"/><stop id="am" stop-color="#9f1701" offset=".5"/><stop id="an" stop-color="#6d0d00" offset=".61419"/><stop id="ao" stop-color="#540800" offset=".94915"/><stop id="ap" stop-color="#3b0300" offset="1"/></linearGradient><radialGradient id="l" cx="87.172" cy="84.32" r="35.225" gradientTransform="matrix(1.9622 1.2887e-7 -1.3105e-7 2.3568 -82.906 -109.65)" gradientUnits="userSpaceOnUse" xlink:href="#d"/><linearGradient id="s" x1="70.85" x2="72.239" y1="41.931" y2="41.931" gradientTransform="matrix(.90176 0 0 .82724 -146.08 16.741)" gradientUnits="userSpaceOnUse" xlink:href="#a" spreadMethod="reflect"/><linearGradient id="r" x1="70.85" x2="72.239" y1="41.931" y2="41.931" gradientTransform="matrix(.82724 0 0 .90176 16.032 6.7925)" gradientUnits="userSpaceOnUse" xlink:href="#a" spreadMethod="reflect"/><linearGradient id="q" x1="83.573" x2="69.403" y1="44.367" y2="46.034" gradientTransform="matrix(.82724 0 0 .90176 16.032 6.7925)" gradientUnits="userSpaceOnUse" xlink:href="#e"/><radialGradient id="k" cx="62.575" cy="56.654" r="32.273" gradientTransform="matrix(.62304 .29489 -.52934 1.3289 63.718 -36.095)" gradientUnits="userSpaceOnUse" xlink:href="#a"/><radialGradient id="j" cx="208.51" cy="106.87" r="41.786" gradientTransform="matrix(0 .33215 -1.1881 0 166.63 20.545)" gradientUnits="userSpaceOnUse" xlink:href="#e"/><radialGradient id="i" cx="71.398" cy="88.997" r="41.786" gradientTransform="matrix(.22318 -.33527 .23031 .18218 45.293 92.314)" gradientUnits="userSpaceOnUse" xlink:href="#d"/><linearGradient id="p" x1="76.406" x2="28.618" y1="87.775" y2="38.875" gradientTransform="matrix(.82724 0 0 .90176 16.032 6.7925)" gradientUnits="userSpaceOnUse" xlink:href="#a"/><linearGradient id="o" x1="78.85" x2="43.564" y1="16.027" y2="96.22" gradientTransform="matrix(.82724 0 0 .90176 16.032 6.7925)" gradientUnits="userSpaceOnUse" xlink:href="#b"/><radialGradient id="h" cx="85.843" cy="-8.9043" r="35" gradientTransform="matrix(.0092187 .9017 -1.4265 .017329 50.985 -12.024)" gradientUnits="userSpaceOnUse" xlink:href="#b"/><linearGradient id="n" x1="53.262" x2="21.691" y1="8.8553" y2="90.266" gradientTransform="matrix(.82724 0 0 .90176 4.063 -1.1825)" gradientUnits="userSpaceOnUse" xlink:href="#b"/><filter id="y"><feGaussianBlur id="aq" stdDeviation="0.70230257"/></filter><linearGradient id="c" x1="23.825" x2="25.352" y1="11.479" y2="15.086" gradientUnits="userSpaceOnUse" xlink:href="#f"/><linearGradient id="m" x1="78.85" x2="43.564" y1="16.027" y2="96.22" gradientTransform="matrix(.90176 0 0 .90176 12.83 8.7925)" gradientUnits="userSpaceOnUse" xlink:href="#b"/><filter id="x" x="-.11266" y="-.1023" width="1.2253" height="1.2046"><feGaussianBlur id="ar" stdDeviation="3.5377989"/></filter><filter id="w"><feGaussianBlur id="as" stdDeviation="0.35112687"/></filter><filter id="v"><feGaussianBlur id="at" stdDeviation="0.35208422"/></filter><filter id="u"><feGaussianBlur id="au" stdDeviation="0.49516509"/></filter><radialGradient id="g" cx="19.31" cy="20.236" r="29.266" gradientTransform="matrix(0 2.1008 -1.7609 0 52.83 -30.655)" gradientUnits="userSpaceOnUse" xlink:href="#f"/><filter id="t"><feGaussianBlur id="av" stdDeviation="0.6068963"/></filter></defs><g id="aw"><path id="ax" transform="matrix(.94335 0 0 1 3.9288 0)" d="m24.022 12.629 51.996-3.6697c1.6768-0.90528 6.0317 2.435 10.001 3.6697 1.0792 0.43846 2.1741 0.96964 2.1741 2.1741v74.825c0 1.2044-0.96963 2.1741-2.1741 2.1741h-63.8c-1.2044 0-2.349-1.596-3.3512-2.4246-5.0206-4.8374-5.9503-4.3776-6.0369-6.9947l7.2141-67.579c0-1.2044 2.7732-2.1741 3.9776-2.1741z" fill="url(#m)" fill-rule="nonzero" filter="url(#x)"/><path id="ay" d="m26.299 10.629 47.699-3.6697c1.5382-0.90528 5.5333 2.435 9.1748 3.6697 0.98999 0.43846 1.9944 0.96964 1.9944 2.1741v74.825c0 1.2044-0.88951 2.1741-1.9944 2.1741h-58.528c-1.1049 0-2.1549-1.596-3.0743-2.4246-4.6057-4.8374-5.4586-4.3776-5.5381-6.9947l6.6179-67.579c0-1.2044 2.544-2.1741 3.6489-2.1741z" fill="url(#o)" fill-rule="nonzero"/><path id="az" d="m73.998 6.9597c1.5382-0.90528 5.5333 2.435 9.1748 3.6697 0.98999 0.43846 1.9944 0.96964 1.9944 2.1741v74.825c0 1.2044-0.88951 2.1741-1.9944 2.1741h-58.528c-1.1049 0-2.1549-1.596-3.0743-2.4246-4.6057-4.8374-5.4586-4.3776-5.5381-6.9947l57.966-73.423z" fill="url(#p)" fill-rule="nonzero"/><path id="ba" d="m72.669 7.314c1.5382-0.90528 5.5333 0.63148 9.1748 1.8662 0.98999 0.43846 1.9944 0.96964 1.9944 2.1741v74.825c0 1.2044-0.88951 2.1741-1.9944 2.1741h-58.528c-1.1049 0-2.1549-1.596-3.0743-2.4246-4.6057-4.8374-3.8041-4.3776-3.8836-6.9947l56.311-71.62z" fill="url(#i)" fill-rule="nonzero"/><path id="bb" d="m73.998 6.9597c1.5382-0.90528 5.5333 2.435 9.1748 3.6697 0.98999 0.43846 1.9944 0.96964 1.9944 2.1741v74.825c0 1.2044-0.88951 2.1741-1.9944 2.1741h-58.528c-1.1049 0-2.1549-1.596-3.0743-2.4246-4.6057-4.8374-5.4586-4.3776-5.5381-6.9947l57.966-73.423z" fill="url(#j)" fill-rule="nonzero"/><path id="bc" d="m72.905 15.782c-4.156 0.95712 4.3562 6.2781-0.25242 3.9638-0.9414-1.0402-4.627-0.71744-1.9629 0.56607 3.4815 1.0799 7.1522 2.5685 8.766 6.4482 1.8329 1.8577 1.9043 6.9129 4.5338 6.8501 0.2402-2.9636-2.2084-5.6195-3.3195-8.2792-1.5332-3.2106 1.8823 2.503 2.2798 3.6098 0.95741 1.3564 2.5926 6.8996 2.2295 2.4752 1.0086-2.4835-3.3636-5.4755-1.9096-6.9021 2.1971 1.0932 2.1459-0.79874 0.10788-0.99352-3.5163-0.37302-3.8993-5.8869-7.4318-6.8188-1.5168 0.3343-1.8533 0.14616-3.0409-0.91954zm1.2926 1.7472c1.7416 0.58894 4.5907 3.6128 4.3045 4.4778-1.5365-1.3714-2.9246-2.9252-4.3045-4.4778zm-2.9729 16.063c-2.2548-0.25717-1.9383 1.5335 0.051339 1.3165 2.7648 1.4026 4.6184 4.2647 6.1014 7.0669-2.7264-1.7973-5.4317-6.6007-8.9403-4.9762 2.5907 1.8088 5.3829 3.8267 7.914 6.0517 1.3749 0.56875 4.7561 4.4817 1.3851 2.8591-3.825-1.4485-7.1438-4.0438-10.497-6.4492-3.3234 0.26932 1.9955 3.0437 2.9092 3.8694 3.094 2.2721 6.6289 3.7562 10.253 4.6617-1.4703 1.3882-4.8311-1.2619-7.013-1.2651-1.2489-0.8605-4.3868 0.23272-1.3345 0.78568 4.055 1.0393 8.0564 2.3742 12.101 3.33 2.1145 0.29488 0.99525-4.039-0.9483-3.6209-2.9256-2.7707-3.8591-7.1945-6.7107-10.079-1.329-1.7478-3.0275-3.596-5.2719-3.551zm11.84 15.527c0.73358 0.14274-0.11688 0.47 0 0zm-15.873 0.67632c-2.8709 1.6671 4.2989 1.4869 5.6965 1.8223 4.1222 0.43855 8.2317 1.0819 12.27 2.0947-1.1591-2.664-4.9617-1.2652-7.217-2.2994-3.5879-0.49969-7.1877-0.9205-10.75-1.6176zm-4.6274 5.2697c-0.76663 2.2718 4.0812 2.4012 5.411 3.9149 3.6769 1.8926 7.4103 3.7338 11.367 4.8209 0.18707 2.0119 2.9423 5.2419 1.9385 6.2795-4.5277-1.5831-8.7157-4.1869-12.411-7.4186-3.3067-0.16616 1.1382 2.9223 2.2127 3.6558 4.301 3.094 9.2689 4.7561 14.076 6.6418 0.57108-1.5489-1.821-1.664-0.99964-3.1597-1.3277-2.0096-3.6778-6.6105 0.47753-5.6398 1.0249-1.3372-4.0945-0.008646-4.0763-2.4527-1.1245-2.3128-5.7638-5.1205-6.7572-2.9103 1.3731 0.44868 4.8115 2.6027 3.9383 3.2922-5.172-1.6794-9.8071-4.8631-14.778-7.011-0.13151-0.030251-0.26641-0.005214-0.3993-0.013016zm6.7472 11.3c-2.9938 1.3028 2.8572 1.6696 3.4382 3.1562 4.9863 3.6743 8.6751 8.9545 12.409 14.005 0.76973-4.0339-3.029-6.2377-4.8995-9.1127-2.9631-3.3182-6.2498-6.8207-10.454-8.0515l-0.49302 0.002515zm-16.829 6.4814c-1.7123 1.0172-1.1817 5.0506-3.5334 2.2063-1.8373-2.0068-3.1705 0.63381-1.0968 1.9004 0.52292 2.0448 0.081433 3.9804 1.6206 5.8852 1.5306 2.2893 2.403 6.2004 4.8911 6.9725 1.9759 0.29292 3.1234-0.018802 1.6244-2.0611-1.3648-3.2269 1.9182 1.701 3.0633 1.8125 1.415 0.91003 3.6299-0.059938 1.1378-1.0886-2.4959-1.5617-4.3243-4.0718-6.2246-6.3764-1.4955-1.5817-1.0371-4.776 1.4302-3.02 3.683 1.3607 7.4073 2.6365 10.41 5.5057 3.1635 2.0208 6.3263 4.3188 9.9465 5.2279 1.321 0.22337 3.0224-0.15559 0.77655-0.62672-3.3198-0.7873-5.6925-3.4969-8.3353-5.5661-3.1692-2.4027-7.0446-3.4377-9.8782-6.3846-1.9166-1.3777-3.662-3.6362-5.8325-4.387zm-20.5 0.8454c-0.54554 2.7018 3.8924 3.5464 5.1919 5.6146 4.3827 3.5856 8.8378 7.0648 13.318 10.504 3.974 0.42037-1.1672-2.0922-2.1358-3.2086-5.2866-4.0808-10.386-8.4671-15.547-12.711-0.24449-0.19476-0.54364-0.15228-0.82695-0.19915zm21.198 0.92994c1.2407 1.2107 4.6067 3.3965 4.4643 3.9776-1.7715-0.71988-5.8788-0.65604-4.4643-3.9776zm7.0316 0c-1.1705 1.4185 1.9978 3.0971 2.7417 4.1105 5.7625 3.1717 10.673 7.8489 16.407 11.079 4.1332 0.35136-1.305-1.835-2.3832-2.828-2.1823-1.4237-4.3231-2.9243-6.3987-4.527 2.4988-1.2557-2.8907-2.1699-3.7513-3.0423-2.3317-1.3734-4.1685-3.6325-6.6151-4.7918zm-9.9269 2.9025c1.4701 0.12626 0.65285 1.935 0 0zm0.025852 2.6207c1.3049 0.747 2.9244 5.3664 2.3938 4.5395-0.81112-1.5048-1.6393-2.9995-2.3938-4.5395z" fill="url(#k)" fill-rule="nonzero"/><path id="bd" d="m73.998 6.9597c1.5382-0.90528 5.5333 2.435 9.1748 3.6697 0.98999 0.43846 1.9944 0.96964 1.9944 2.1741v74.825c0 1.2044-0.88951 2.1741-1.9944 2.1741h-58.528c-1.1049 0-2.1549-1.596-3.0743-2.4246-4.6057-4.8374-5.4586-4.3776-5.5381-6.9947l57.966-73.423z" fill="url(#q)" fill-rule="nonzero"/><rect id="be" x="16.034" y="6.8029" width="58.783" height="75.763" rx="2.4109" ry="2.4109" fill="url(#n)" fill-rule="nonzero"/><path id="bf" transform="matrix(.88495 0 0 .96016 6.7551 3.2895)" d="m24.976 6.7925c-0.25676 0.28793-0.44078 0.75134-0.53542 1.4654 7.7604 2.4462 15.981 3.4807 23.84 5.7487 2.1577 0.61731 8.6842 2.9966 3.0998 2.4517-12.956-1.6169-25.987-3.9828-38.212-8.6794-0.22098 0.34049-0.33816 0.77389-0.33816 1.2117v0.64814c3.7308 1.0848 8.2947 0.85864 11.413 3.3252 5.7853 2.4886 12.2 4.2387 17.021 8.3976-7.3031-1.8529-14.504-4.6361-21.952-6.1714-1.4844-0.96799-4.2179-2.5228-6.4814-3.3252v2.2262c9.4654 3.5131 17.949 9.4235 27.278 13.301 8.6364 4.4189 17.088 9.2946 24.77 15.245-3.3796-4.4079-8.8842-6.3203-13.245-9.553-9.7853-5.8028-20.109-10.617-29.984-16.26 5.7999-0.084508 10.883 3.3506 16.485 4.3961 10.657 3.4719 18.608 11.644 27.532 18.007 3.7418 2.8425 7.4796 5.6691 11.244 8.4822v-0.7045c-1.6678-1.1596-3.2866-2.3811-4.7624-3.7761-7.6336-5.7138-15.167-11.564-22.629-17.5 9.0088 3.1207 17.132 8.842 26.743 10.117 0.17612 0.1836 0.40924 0.32614 0.64814 0.45088v-1.2681c-9.6398-1.8723-18.335-6.8874-27.476-10.314-7.2326-3.719-13.567-9.1731-21.445-11.61-3.6243-1.4315 4.1387 0.98873 5.6078 1.0427 8.6091 1.7016 17.366 2.512 25.982 4.1706 1.5176 1.6802 8.864 4.1404 4.3397 0.8454 3.7492-1.7971 8.6214 1.5832 12.681 2.198 0.089604 0.052053 0.20713 0.1209 0.30998 0.16908v-1.7472c-6.1501-1.691-12.82-0.98353-18.909-3.1562-7.9772-2.5649-15.898-5.3667-24.15-6.9323-2.0476 0.42492-4.7351-1.9634-6.735-2.9025h-2.1417zm15.217 0c3.4421 3.0925 6.9595 6.6107 12.174 5.8896 5.1136-0.65564 9.7404 1.4758 14.597 2.5644 3.2699 0.71283 6.6046 1.2216 9.9475 1.4372v-0.8454c-4.984-0.33439-9.9591-2.2095-14.851-2.9871-1.9837-0.77769-0.55564-1.311 0.7045-1.0708 4.6813 0.89718 9.4426 1.3799 14.146 2.1417v-3.4661c-4.8983-0.36364-10.043 0.97269-14.625-1.3808-2.3713-0.68417-4.701-1.4955-7.045-2.2826h-4.7624c3.4386 0.74045 6.9931 1.2579 9.8912 3.3252-4.8304-0.52872-9.4549-2.125-14.146-3.3252h-6.0305zm4.227 1.2399c1.9237 0.10853 9.8085 2.4421 6.3687 3.6634-2.4598-0.32928-5.1468-1.3337-6.3687-3.6634zm10.821 2.3389c3.7073-0.017967 3.2021 1.813 0 0zm16.091 0.76086c2.5669-0.045923 6.0676 0.16989 4.4806 1.2681-2.2085-0.1101-4.4154-0.4239-6.5096-1.1554 0.42274-0.052158 1.1733-0.097413 2.029-0.11272zm-58.502 14.654v1.8881c3.4148 2.8939 8.88 3.4827 11.948 7.045 4.9357 3.1692 9.723 6.5525 14.485 9.9757-9.2971-3.9667-18.396-8.6155-26.433-14.794v2.4798c2.0707 2.1998 7.3599 2.9576 9.3839 5.1569 1.7826 0.89861 7.3939 3.6315 2.7616 1.5499-4.0803-1.8159-8.0965-3.8094-12.146-5.6924v0.87358c4.9698 2.8608 10.626 4.5153 15.724 7.1295 11.61 4.2946 22.566 10.15 32.914 16.908 4.5694 2.6757 9.1717 5.2714 13.836 7.7777-6.8711-5.6332-15.391-8.6532-22.713-13.583-2.3249-0.9616-5.6744-4.1333-1.1272-1.6344 5.749 2.7509 11.199 6.0923 16.795 9.1303-2.859-3.8642-8.3944-4.1862-11.554-7.5522 6.7449 2.2274 13.471 4.4749 20.205 6.735v-1.5781c-2.2332-0.3698-4.7882-0.57585-6.1432-1.719-12.674-4.2188-26.392-7.0815-36.859-15.922-6.7748-5.0655-13.595-10.196-21.079-14.175zm0.02818 22.882c-0.009783 0.010267-0.01855 0.01793-0.02818 0.02818v4.2834c1.894 2.1375 5.9296 3.9777 7.1577 6.0587 6.8533 5.4994 15.133 8.789 22.459 13.555-11.085-3.728-20.363-10.839-29.617-17.81v1.2681c3.0302 1.9871 6.201 3.8384 8.5667 6.5941-2.9267-1.3793-5.7795-2.8884-8.5667-4.5088v0.92994c8.0488 4.5316 16.279 8.7329 24.15 13.555 4.0594 2.8403 7.8998 6.0839 11.018 9.9475h3.1562c-0.40567-1.408-1.749-3.113-3.1562-3.0434-1.9776-2.2741-8.1033-5.8304-7.9749-6.9041 6.9628 2.749 13.518 6.3034 20.036 9.9475h1.4935c-2.2434-1.2213-4.1649-3.3778 0.1409-1.8881 4.6085 0.58925 9.2534 1.8626 13.921 1.409-5.255-2.7442-11.63-0.091549-16.908-3.0434-12.338-3.8332-22.922-11.535-33.788-18.261-4.6424-3.3373-9.0173-7.2274-12.061-12.117zm-0.02818 20.853v0.64814c2.9718 5.4444 10.332 6.6017 13.583 11.892-4.3067-2.4358-8.7467-5.0637-13.583-6.2841v2.9589c2.7432 1.5636 5.7944 2.6034 8.6794 3.8325h8.3695c-0.18971-1.2486-1.3773-2.6368-3.5507-3.1562-4.4835-3.3083-8.4096-7.4805-13.498-9.8912zm5.1006 9.6657c0.50938 0.1786-0.50579 0.19756 0 0z" fill="#3b0300" fill-opacity=".51807" fill-rule="nonzero" filter="url(#w)"/><path id="bg" transform="matrix(.88495 0 0 1 6.7551 0)" d="m15 6.7925c-0.51949 0-0.97947 0.20544-1.3526 0.50724 7.7697 2.9206 16.349 2.4243 24.207 5.1288 2.2957 0.67138 8.4747 2.4838 8.1158 2.9025-11.226-1.1409-22.203-3.8281-32.942-7.2423-0.065856 0.14869-0.10956 0.31483-0.1409 0.47906 11.278 3.63 22.93 6.186 34.746 7.1859 2.4634 1.5272-3.9136-0.10738-4.9597-0.05636-9.9786-1.5791-20.253-2.6072-29.561-6.8196l-0.25362-0.19726c-0.013742 0.099172-0.02818 0.20691-0.02818 0.30998v1.6908c2.3396 0.7268 4.6426 1.5648 6.8759 2.6207 12.651 3.8941 26.81 3.0088 38.353 10.258 6.6846 3.5021 12.851 7.8192 18.852 12.371v-0.45088c-1.3681-0.98116-2.7172-1.9668-4.0016-3.0434-11.39-8.3023-24.416-15.137-38.663-16.429-5.8867-0.97416-11.835-2.0972-17.274-4.6497 12.348 3.6591 25.254 4.7951 37.733 7.834 7.1836 2.8688 13.255 7.8215 19.782 11.864 0.81749 0.56874 1.6159 1.164 2.4235 1.7472v-0.50724c-2.5285-1.6913-5.0871-3.329-7.5241-5.1006-4.1926-2.742-8.4817-5.3689-12.906-7.7213 7.066 1.5503 14.846 2.5753 20.43 7.5804v-1.6626c-1.8274-1.2241-4.3607-2.5739-5.326-2.8462-5.3655-2.3307-11.288-2.6128-16.88-4.1425-1.7864-1.9478 5.3106 0.41922 6.9323 0.16908 5.1545 0.71156 10.312 1.6145 15.274 3.2125v-0.90176c-8.7444-2.4071-17.915-2.6455-26.799-4.3679 4.4258-1.1155 9.0814 0.50202 13.611 0.25362 4.4066 0.29387 8.797 0.68313 13.188 1.1554v-0.81722c-3.4714-0.63467-7.2905 0.19926-10.765-0.61996-6.1423-0.30667-12.295-0.53883-18.43-0.9863-9.5801-4.1722-20.064-5.4299-30.153-7.665-0.3258-0.29134-1.1495-0.6747-2.0853-1.0427h-0.47906zm14.766 7.2141c7.2477 1.4773 14.657 1.8816 21.896 3.4098-4.4966 0.11619-8.9404-1.5203-13.47-1.8035-2.8258-0.43913-5.6445-0.93597-8.4258-1.6063zm-16.936 6.4814v0.59178c4.105 1.9873 8.5913 3.21 12.681 5.2415 16.197 6.3512 32.976 11.019 49.681 15.809 0.29724 0.47057 0.9747 0.77625 1.719 0.95812v-1.2399c-20.662-5.0841-41.138-11.145-60.587-19.867-1.1654-0.4944-2.3289-0.99926-3.4943-1.4935zm0 2.8744v1.3245c2.1751 1.0643 4.5481 1.8948 6.4532 3.1562 13.997 5.8742 28.032 11.692 41.875 17.922 5.2053 2.2339 10.443 4.3935 15.753 6.3687v-0.53542c-4.7489-2.0007-9.8136-3.2642-14.428-5.6078-15.548-6.5551-30.854-13.67-46.356-20.318-1.1636-0.67594-2.2298-1.4895-3.2971-2.3108zm4.1425 1.8035c5.762 3.1648 12.404 4.085 18.486 6.4814 13.626 4.3802 27.327 8.6733 40.382 14.597 0.20108 0.36187 0.59893 0.65305 1.0708 0.90176v-1.5217c-19.42-8.357-39.953-13.68-59.939-20.459zm-4.1425 0.81722v2.1417c1.2185 0.46863 2.2332 1.2112 2.1135 2.7616 4.4701 7.0745 11.035 12.508 15.471 19.613 3.7264 4.7421 8.1938 8.8646 12.822 12.709-11.209-8.3348-21.385-18.347-28.659-30.35 0.079476-0.86076-0.76396-1.8223-1.7472-2.5926v2.6489c3.6619 4.5101 6.512 9.6584 10.737 13.724 12.517 13.423 28.071 23.483 43.397 33.365 1.4717 0.882 2.9527 1.7319 4.4524 2.5644h1.6063c-5.536-3.0152-10.941-6.2801-16.091-9.9194 6.3565 3.3177 12.873 6.3054 19.472 9.1021 0.076497-0.093678 0.16526-0.17598 0.22544-0.2818-0.94995-0.40329-1.8769-0.83962-2.7898-1.3245-12.696-5.1676-25.002-11.882-34.774-21.642-4.4973-4.2103-8.6213-8.855-11.976-14.034 9.4096 7.0681 19.197 13.767 29.899 18.74-10.902-6.0503-21.803-12.348-31.195-20.628-3.7313-5.1732-6.2921-11.509-11.807-15.133-0.38003-0.46891-0.75712-0.97442-1.1554-1.4654zm4.3961 6.0023c1.4729 1.5188 3.9749 5.606 1.2117 1.719-0.41543-0.56774-0.82488-1.1313-1.2117-1.719zm-4.3961 5.1288v5.2133c1.4919 1.883 3.1273 3.6973 4.1425 5.6642 5.5019 6.5755 10.897 13.29 15.781 20.318 1.0104 2.9417-3.4968-2.6409-4.6497-3.3252-5.8635-5.5252-11.515-11.528-15.104-18.824 0.24735-0.71614 0.12216-1.2823-0.16908-1.6908v4.0861c5.7231 9.0355 13.78 16.329 21.755 23.361 2.7893 2.7369 4.1307 8.6494 6.735 10.652h0.95812c0.032368-2.6919-6.3652-7.2876-2.2262-7.1577 3.9687 2.6281 8.1081 4.9763 12.343 7.1577h1.2681c-1.2373-0.59238-2.4401-1.238-3.5225-1.9726-6.2823-3.503-9.5156-10.312-15.02-14.738-8.864-8.1626-17.48-17.144-22.121-28.462-0.05087-0.098298-0.11598-0.18431-0.16908-0.2818zm14.315 22.093c5.6844 5.5689 11.628 10.97 16.316 17.443-7.8731-3.0248-10.926-11.679-16.316-17.443zm-14.315 0.67632v2.9025c1.9885 2.9225 5.1856 5.436 5.5796 9.1303 1.4593 2.0864 0.55545 4.7535-1.1836 1.4654-1.2182-2.1421-2.4602-6.6743-4.3961-8.3976v2.3108c1.4323 2.4553 2.3251 5.2373 4.2552 7.4395 2.4894 3.1927 5.6434 5.7911 9.1303 7.834h1.5217c-1.0226-1.2746-4.9752-2.9677-5.3824-5.016-3.4064-5.1898-4.3775-11.692-8.6513-16.373-0.30134-0.42519-0.58062-0.8648-0.87358-1.2963z" fill="#9f1701" fill-opacity=".53614" fill-rule="nonzero" filter="url(#v)"/><g id="bh" transform="matrix(.8042 0 0 .8042 -134 -427)" fill="#44000d" stroke="#53000b" stroke-linecap="round" stroke-linejoin="round" stroke-miterlimit="4" stroke-width="2.4869"><path id="bi" d="m217.77 549.61c-2.4784-0.46057-0.37511 1.4797 0.05643 2.5298 2.2845 3.5839 1.5171 7.9714 1.822 11.994 0.05916 1.6632 0.10192 3.3264 0.04539 4.9903-5.0759 0.93462-10.137 1.9625-15.248 2.6953-1.2311-0.62645-1.2907-3.0059-3.0113-2.58-1.4705 0.60322-2.9572 1.1666-4.4343 1.7535 2.4074 2.0865 3.5001 5.06 4.7276 7.895 2.1193 4.2023 3.9971 8.5286 5.2643 13.065 1.065 3.3134 6.1097 1.5668 3.8814-1.6791-0.72165-0.90773 1.728-0.39952 2.3251-0.72968 1.9438-0.26446 3.8999-0.41023 5.8533-0.58219-0.08366 4.9726-0.23802 9.9431-0.57001 14.904 0.0643 4.4982-0.13043 9.0113 0.10065 13.5 0.09861 1.0847 0.15456 2.3308 1.1106 3.0415 2.4628-0.98755 2.7637-4.0617 3.1393-6.3961 0.5766-3.487 0.27535-7.0528 0.46488-10.574 0.10484-5.0166 0.20968-10.033 0.31452-15.05 6.0056-0.64812 12.04-1.0684 18.026-1.8688 1.6464-0.49936 2.2496-2.9866 0.19257-3.405-2.0132-0.07341 0.32546-1.7807 0.66435-2.7449 1.4808-2.0748 2.7613-4.3318 4.3672-6.293 1.2874-1.1441 3.6135-2.172 2.2928-4.268-1.2348-1.8511-3.3753-2.8165-5.0232-4.2766-2.3849-2.6526-5.3438-0.48727-7.6712 0.8706-3.9316 1.1301-8.0142 1.4533-12.065 1.8966 0.08294-4.2572 0.5365-8.502 0.66125-12.76 0.48276-1.2609 2.3897-3.0881 0.11908-3.9097-2.1844-1.4556-4.7926-2.1433-7.4066-2.0176zm21.624 21.167c0.47136 2.5482-0.37056 5.3917-1.0082 7.9314-0.76213 1.8973-0.80914 4.9274-3.4696 4.6425-3.7154 0.685-7.4874 0.96943-11.233 1.4417 0.23751-4.2167 0.47501-8.4334 0.71251-12.65 4.9967-0.50918 9.9614-1.4264 14.998-1.3656zm-19.95 2.1203c-0.13063 4.1208-0.26126 8.2417-0.39189 12.363-3.2537 0.38332-6.5075 0.76664-9.7612 1.15-1.2469-3.8693-2.4937-7.7385-3.7406-11.608 4.6312-0.6349 9.2625-1.2698 13.894-1.9047z" fill="#44000d" stroke="#53000b" stroke-linecap="round" stroke-linejoin="round" stroke-miterlimit="4" stroke-width="2.4869"/></g><g id="bj" transform="matrix(.8042 0 0 .8042 -132.4 -425.94)" fill="#eeeeec"><path id="bk" d="m217.77 549.61c-2.4784-0.46057-0.37511 1.4797 0.05643 2.5298 2.2845 3.5839 1.5171 7.9714 1.822 11.994 0.05916 1.6632 0.10192 3.3264 0.04539 4.9903-5.0759 0.93462-10.137 1.9625-15.248 2.6953-1.2311-0.62645-1.2907-3.0059-3.0113-2.58-1.4705 0.60322-2.9572 1.1666-4.4343 1.7535 2.4074 2.0865 3.5001 5.06 4.7276 7.895 2.1193 4.2023 3.9971 8.5286 5.2643 13.065 1.065 3.3134 6.1097 1.5668 3.8814-1.6791-0.72165-0.90773 1.728-0.39952 2.3251-0.72968 1.9438-0.26446 3.8999-0.41023 5.8533-0.58219-0.08366 4.9726-0.23802 9.9431-0.57001 14.904 0.0643 4.4982-0.13043 9.0113 0.10065 13.5 0.09861 1.0847 0.15456 2.3308 1.1106 3.0415 2.4628-0.98755 2.7637-4.0617 3.1393-6.3961 0.5766-3.487 0.27535-7.0528 0.46488-10.574 0.10484-5.0166 0.20968-10.033 0.31452-15.05 6.0056-0.64812 12.04-1.0684 18.026-1.8688 1.6464-0.49936 2.2496-2.9866 0.19257-3.405-2.0132-0.07341 0.32546-1.7807 0.66435-2.7449 1.4808-2.0748 2.7613-4.3318 4.3672-6.293 1.2874-1.1441 3.6135-2.172 2.2928-4.268-1.2348-1.8511-3.3753-2.8165-5.0232-4.2766-2.3849-2.6526-5.3438-0.48727-7.6712 0.8706-3.9316 1.1301-8.0142 1.4533-12.065 1.8966 0.08294-4.2572 0.5365-8.502 0.66125-12.76 0.48276-1.2609 2.3897-3.0881 0.11908-3.9097-2.1844-1.4556-4.7926-2.1433-7.4066-2.0176zm21.624 21.167c0.47136 2.5482-0.37056 5.3917-1.0082 7.9314-0.76213 1.8973-0.80914 4.9274-3.4696 4.6425-3.7154 0.685-7.4874 0.96943-11.233 1.4417 0.23751-4.2167 0.47501-8.4334 0.71251-12.65 4.9967-0.50918 9.9614-1.4264 14.998-1.3656zm-19.95 2.1203c-0.13063 4.1208-0.26126 8.2417-0.39189 12.363-3.2537 0.38332-6.5075 0.76664-9.7612 1.15-1.2469-3.8693-2.4937-7.7385-3.7406-11.608 4.6312-0.6349 9.2625-1.2698 13.894-1.9047z" fill="#eeeeec"/></g><path id="bl" d="m18.824 7.4406c-1.2888 0-2.3525 1.1595-2.3525 2.5644v69.351c0 1.4049 1.0637 2.5644 2.3525 2.5644h53.202c1.2888 0 2.3525-1.1595 2.3525-2.5644v-69.351c0-1.4049-1.0637-2.5644-2.3525-2.5644h-53.202zm0 0.90176h53.202c0.85754 0 1.5511 0.72784 1.5511 1.6626v69.351c1e-6 0.93478-0.69354 1.6908-1.5511 1.6908h-53.202c-0.85754-2e-6 -1.5511-0.75602-1.5511-1.6908v-69.351c0-0.93479 0.69354-1.6626 1.5511-1.6626z" fill="url(#h)" fill-rule="nonzero"/><path id="bm" transform="matrix(.91737 0 0 1 4.2622 0)" d="m61.781 8.2812c-2.2602 0.14002-4.7085 0.47085-6.5312 0.125-12.799-3e-7 -25.576 0-38.375 0 1.4321 5.4891 7.8544 0.83954 11.5 1.5312 12.799-1e-7 26.108-0.625 38.906-0.625-1.1545-1.116-3.2398-1.1713-5.5-1.0312zm-47.281 2.1875v65.594c2.3249-3.2609 0.14776-10.476 0.90625-15.094 0-16.826 1-31.518 1-48.344l-1.9062-2.1562z" fill="url(#g)" fill-rule="evenodd" filter="url(#t)"/><path id="bn" transform="matrix(.82724 0 0 .59178 3.1342 2.3903)" d="m26.574 12.643a2.749 2.4436 0 1 1-5.498 0 2.749 2.4436 0 1 1 5.498 0z" fill="url(#c)" fill-rule="nonzero"/><path id="bo" transform="matrix(.91737 0 0 1 4.2622 0)" d="m73.488 43.937c-0.34128 1.3559-0.68098 2.831-0.87073 3.9695-0.45539 2.7323-1.1371 6.8257-6.1463 10.013-5.0093 3.1877-46.228 5.933-48.505 5.25-2.2769-0.68308-1.3685-4.7909-2.2793-9.117l-0.43536-1.8183v25.803c0 1.0946 0.87736 1.9719 1.9719 1.9719h54.292c1.0946 0 1.9719-0.87737 1.9719-1.9719v-34.101z" fill="#ffcedc" fill-opacity=".53846" fill-rule="evenodd" filter="url(#y)"/><path id="bp" transform="matrix(.66002 0 0 .47216 12.594 3.5769)" d="m26.574 12.643a2.749 2.4436 0 1 1-5.498 0 2.749 2.4436 0 1 1 5.498 0z" fill="url(#c)" fill-rule="nonzero"/><path id="bq" transform="matrix(.37336 0 0 .26709 32.104 5.7507)" d="m26.574 12.643a2.749 2.4436 0 1 1-5.498 0 2.749 2.4436 0 1 1 5.498 0z" fill="url(#c)" fill-rule="nonzero"/><rect id="br" x="73.493" y="7.0223" width="2.2984" height="75.164" rx="2.4109" ry="2.4109" fill="url(#r)" fill-rule="nonzero"/><rect id="bs" transform="rotate(-90)" x="-83.439" y="16.952" width="2.5055" height="57.461" rx="1.116" ry="2.4109" fill="url(#s)" fill-rule="nonzero"/><path id="bt" d="m83.194 13.048v72.902c2.0845-2.8648 0.12482-6.9374 0.82724-10.297v-62.605h-0.82724zm-57.287 74.959c2.1683 2.2285 5.5648 0.17838 8.2388 0.90176h47.393c-2.1683-2.2285-5.5648-0.17838-8.2388-0.90176h-47.393z" fill="url(#l)" fill-rule="evenodd"/><path id="bu" d="m42.156 16c-0.69648 0.042947-0.27138 0.68408 0.15625 1.3125 0.018638-0.22147 0.25236-0.31482 0.9375-0.1875 2.1022-0.10114 4.212 0.45438 5.9688 1.625 0.11413 0.041296 0.22352 0.077695 0.3125 0.125 0.096177-0.48002-0.062125-0.90467-0.84375-1.1875-1.7567-1.1706-3.8665-1.7261-5.9688-1.625-0.24914-0.046299-0.41868-0.071368-0.5625-0.0625zm1.2188 3.25c1.0829 2.6358 0.66212 5.6917 0.875 8.5 0.047574 1.3375 0.076712 2.6619 0.03125 4-4.082 0.75162-8.1714 1.5669-12.281 2.1562-0.99002-0.50379-1.0225-2.405-2.4062-2.0625-1.1826 0.48511-2.3746 0.93431-3.5625 1.4062 0.3282 0.28445 0.63314 0.58482 0.90625 0.90625 1.0632-0.41883 2.1303-0.81634 3.1875-1.25 1.3837-0.34248 1.4162 1.59 2.4062 2.0938 4.1098-0.58935 8.1992-1.4359 12.281-2.1875 0.045462-1.3381 0.016326-2.6625-0.03125-4-0.24254-3.1997 0.35835-6.6979-1.4062-9.5625zm18.25 8.5938c-1.3299 0.085333-2.7052 1.0362-3.875 1.7188-2.9795 0.85642-6.0528 1.141-9.125 1.4688-0.013752 0.37544-0.023932 0.74935-0.03125 1.125 3.2577-0.35652 6.5257-0.62242 9.6875-1.5312 1.8717-1.092 4.2696-2.8207 6.1875-0.6875 1.2308 1.0906 2.7991 1.8314 3.8125 3.125-0.032808-0.23494-0.13786-0.47285-0.3125-0.75-0.99306-1.4887-2.706-2.2633-4.0312-3.4375-0.71923-0.79995-1.5146-1.0824-2.3125-1.0312zm-1.4062 6.3125c0.045859 1.7564-0.48064 3.6173-0.90625 5.3125-0.61291 1.5258-0.64172 3.9479-2.7812 3.7188-2.7821 0.51293-5.6304 0.75737-8.4375 1.0938-0.021158 0.37563-0.041342 0.74937-0.0625 1.125 3.0121-0.37983 6.0433-0.60537 9.0312-1.1562 2.1395 0.22912 2.1683-2.1929 2.7812-3.7188 0.51278-2.0425 1.1916-4.3257 0.8125-6.375-0.14466-0.001745-0.29298-2.1e-4 -0.4375 0zm-15.625 1.6875c-0.18713 0.025654-0.37537 0.036846-0.5625 0.0625-0.093163 2.9389-0.18809 5.8736-0.28125 8.8125-2.5538 0.30086-5.1025 0.60539-7.6562 0.90625 0.11715 0.36352 0.2266 0.73023 0.34375 1.0938 2.6167-0.30827 5.2271-0.62923 7.8438-0.9375 0.10505-3.314 0.20745-6.6235 0.3125-9.9375zm-15.5 2.0312c0.25145 0.57102 0.47197 1.1488 0.71875 1.7188 1.7043 3.3795 3.2309 6.8832 4.25 10.531 0.10706 0.33308 0.2481 0.60099 0.4375 0.8125-1.0176-3.5549-2.4606-6.9808-4.125-10.281-0.407-0.94001-0.82939-1.8612-1.2812-2.7812zm33.219 5.1875c-0.40094 0.52967-0.6052 0.96654 0.3125 1 0.20678 0.04206 0.35753 0.13107 0.5 0.21875 0.046325-0.51357-0.18178-1.0066-0.8125-1.2188zm-18.031 5.7188c-0.18815 0.016563-0.37431 0.015091-0.5625 0.03125-0.071235 3.6322-0.16373 7.2511-0.40625 10.875 0.051712 3.6175-0.12334 7.2652 0.0625 10.875 0.070629 0.77689 0.13566 1.6318 0.6875 2.2188-0.086367-0.38663-0.12133-0.77211-0.15625-1.1562-0.18584-3.6098-0.010791-7.2575-0.0625-10.875 0.26699-3.9895 0.37022-7.9698 0.4375-11.969z" fill="#888a85" filter="url(#u)"/></g></svg>
