<?xml version="1.0" encoding="UTF-8"?>
<svg version="1.1" viewBox="0 0 48 48" xmlns="http://www.w3.org/2000/svg" xmlns:xlink="http://www.w3.org/1999/xlink"><defs id="f"><linearGradient id="a"><stop id="g" stop-color="#eff1f1" offset="0"/><stop id="h" stop-color="#cfd5d5" offset="1"/></linearGradient><linearGradient id="c" x2="0" y1="37" y2="4" gradientUnits="userSpaceOnUse"><stop id="i" stop-color="#da4453" offset="0"/><stop id="j" stop-color="#ff7336" offset="1"/></linearGradient><linearGradient id="b" x1="20.438" x2="23.531" y1="22.312" y2="25.406" gradientUnits="userSpaceOnUse"><stop id="k" offset="0"/><stop id="l" stop-opacity="0" offset="1"/></linearGradient><linearGradient id="e" x2="0" y1="16" y2="44" gradientTransform="matrix(1 0 0 1.0357 0 -1.5714)" gradientUnits="userSpaceOnUse" xlink:href="#a"/><linearGradient id="d" x2="0" y1="16" y2="44" gradientTransform="translate(21 -7)" gradientUnits="userSpaceOnUse" xlink:href="#a"/></defs><g id="m"><rect id="n" x="25" y="9" width="19" height="28" fill="url(#d)" stroke-linecap="square" stroke-width=".5"/><rect id="o" x="25" y="25" width="19" height="4" fill="#3b85b5" stroke-linecap="square" stroke-width=".5"/><rect id="p" x="32" y="22" width="6" height="2" fill="#b0b8b8" stroke-linecap="square" stroke-width=".5"/><rect id="q" x="26" y="18" width="4" height="2" fill="#b0b8b8" stroke-linecap="square" stroke-width=".5"/><rect id="r" x="30" y="30" width="6" height="2" fill="#b0b8b8" stroke-linecap="square" stroke-width=".5"/><rect id="s" x="26" y="22" width="3" height="2" fill="#b0b8b8" stroke-linecap="square" stroke-width=".5"/><rect id="t" x="37" y="30" width="2" height="2" fill="#b0b8b8" stroke-linecap="square" stroke-width=".5"/><rect id="u" x="26" y="30" width="3" height="2" fill="#b0b8b8" stroke-linecap="square" stroke-width=".5"/><rect id="v" x="29" y="34" width="9" height="2" fill="#b0b8b8" stroke-linecap="square" stroke-width=".5"/><rect id="w" transform="scale(-1 1)" x="-31" y="22" width="1" height="2" fill="#b0b8b8" stroke-linecap="square" stroke-width=".5"/><rect id="x" x="26" y="34" width="2" height="2" fill="#b0b8b8" stroke-linecap="square" stroke-width=".5"/><rect id="y" x="31" y="18" width="12" height="2" fill="#b0b8b8" stroke-linecap="square" stroke-width=".5"/><rect id="z" x="26" y="14" width="9" height="2" fill="#b0b8b8" stroke-linecap="square" stroke-width=".5"/><rect id="aa" transform="scale(-1 1)" x="-37" y="14" width="1" height="2" fill="#b0b8b8" stroke-linecap="square" stroke-width=".5"/><rect id="ab" x="26" y="10" width="6" height="2" fill="#b0b8b8" stroke-linecap="square" stroke-width=".5"/><rect id="ac" x="36" y="10" width="3" height="2" fill="#b0b8b8" stroke-linecap="square" stroke-width=".5"/><rect id="ad" transform="scale(-1 1)" x="-35" y="10" width="2" height="2" fill="#b0b8b8" stroke-linecap="square" stroke-width=".5"/><rect id="ae" x="4" y="15" width="19" height="29" fill="url(#e)" stroke-linecap="square" stroke-width=".5"/><g id="af" transform="translate(0 -1)" fill="#b0b8b8" stroke-linecap="square" stroke-width=".5"><rect id="ag" x="6" y="18" width="6" height="2"/><rect id="ah" x="6" y="26" width="4" height="2"/><rect id="ai" x="6" y="30" width="6" height="2"/><rect id="aj" x="11" y="26" width="3" height="2"/><rect id="ak" x="13" y="30" width="2" height="2"/><rect id="al" x="6" y="34" width="3" height="2"/><rect id="am" x="10" y="34" width="9" height="2"/><rect id="an" transform="scale(-1 1)" x="-21" y="34" width="1" height="2"/><rect id="ao" x="6" y="38" width="2" height="2"/><rect id="ap" x="9" y="38" width="4" height="2"/><rect id="aq" x="10" y="42" width="6" height="2"/><rect id="ar" x="6" y="42" width="3" height="2"/></g><rect id="as" x="4" y="20" width="19" height="4" fill="#3b85b5" stroke-linecap="square" stroke-width=".5"/><g id="at" transform="translate(-1)" fill-rule="evenodd"><path id="au" d="m33.998 4-2.33 1.1433c-2.3317 1.1442-4.7945 3.7502-4.7945 3.7502l0.36638 2.944c-0.13821 0.20059-0.28327 0.41489-0.42936 0.62925l-1.0362-1.8569-1.6859 2.0984 1.1908 2.0423c-7e-3 0.01055-0.016 0.02316-0.02289 0.03371l-1.4913-1.6939s-0.97074 1.1432-3.9501 5.402c-2.9793 4.2588-5.4414 9.2169-5.4414 9.2169l0.11451 3.3682c-0.1603 0.23725-0.3299 0.4943-0.48661 0.72476l-0.46943-2.7586-1.0362 1.7164-0.26047 1.6546-0.58107 0.69948s-0.96214 3.5989-0.77777 4.2494c0.18438 0.65051 2.624-0.62836 2.624-0.62836l0.12882-0.8568 1.975-0.63487-2.1983-0.43823c0.05297-0.08873 0.11795-0.19668 0.17173-0.28654 0.26303 0.08114 0.5727 0.17206 1.1535 0.27811 1.3925 0.25426 2.33-0.25282 2.33-0.25282l1.0047-1.2726s-0.77722 0.54057-1.6516 0.69948c-0.86138 0.15654-2.326-0.20534-2.3701-0.2163 0.07688-0.12742 0.15934-0.26407 0.23758-0.39328 0.36982-0.09422 3.7025-0.96362 5.6618-2.3457 2.0726-1.462 6.1856-5.9751 6.1856-5.9751 2e-6 0-0.99211-0.0089-3.1295-0.04066-2.014-0.02995-3.7941-0.01618-4 0 0.09296-0.1486 0-1 0-1l8.5864-1.3443s0.55199-1.0489 1.394-2.7333c0.84199-1.6844 3.0196-5.9223 3.0196-5.9223s-1.4625-0.04151-2.7677-0.2213c-1.2458-0.1716-2.4252-0.47171-2.5361-0.50003 0.01508-0.02315 0.03087-0.04715 0.0458-0.07024 0.18133-0.08387 1.3458-0.61988 2.2155-0.89051 0.93886-0.29215 3.8012-0.69667 3.8012-0.69667s0.02289-0.40452 0.22899-1.236c0.20609-0.83151 0.61828-2.7417 0.61828-2.7417l-4.9806 2.8064c0.20965-0.28847 0.40776-0.54504 0.61255-0.81747l4.5512-2.6631s0.0458-0.58431 0.13739-1.3484c0.091578-0.76408 0.071543-1.6209 0.071541-1.6209z" fill="url(#c)"/><path id="av" d="m34 4s-4.6206 4.9406-9.2221 11.275c-4.6015 6.3339-9.2677 13.499-13.934 21.68-4.0519 7.1039-2.5856 7.0455-2.5856 7.0455s0.45951-1.1837 3.6774-6.7614c3.0758-5.3314 6.9669-12.216 13.474-21.705 3.1015-4.5225 8.5901-11.534 8.5901-11.534z" fill="#31363b"/><path id="aw" d="m33.998 4-0.70703 0.88281-2.5767 3.2977-3.9722 5.0285c0.18133-0.08387 1.3452-0.62 2.2148-0.89062 0.93886-0.29215 3.8008-0.69726 3.8008-0.69726 0 0 0.02437-0.40482 0.23047-1.2363 0.20609-0.83151 0.61719-2.7422 0.61719-2.7422l-4.3003 2.4088c0.20965-0.28847 0.40849-0.54398 0.61328-0.81641l3.8706-2.2662s0.04513-0.58356 0.13672-1.3477c0.09158-0.76408 0.072266-1.6211 0.072266-1.6211zm-7.2559 9.209-7.7422 10.791 8.5859-1.3438s0.55254-1.0499 1.3945-2.7344c0.84199-1.6844 3.0195-5.9219 3.0195-5.9219s-1.4623-0.04092-2.7676-0.2207c-1.2458-0.1716-2.4262-0.47168-2.5371-0.5 0.01508-0.02315 0.03195-0.04722 0.04688-0.07031zm-7.7422 10.791-7.9648 13.52c0.58041 0.20392 2.4648-0.78516 2.4648-0.78516l0.12891-0.85547 1.9766-0.63476-2.1992-0.43945c0.05297-0.08873 0.11809-0.19531 0.17188-0.28516 0.26303 0.08114 0.57346 0.17129 1.1543 0.27734 1.3925 0.25426 2.3281-0.25195 2.3281-0.25195l1.0059-1.2734s-0.77797 0.54031-1.6523 0.69922c-0.86138 0.15654-2.325-0.20583-2.3691-0.2168 0.07688-0.12742 0.15809-0.26336 0.23633-0.39258 0.36982-0.09422 3.7029-0.96367 5.6621-2.3457 2.0726-1.462 6.1855-5.9746 6.1855-5.9746 2e-6 0-0.99155-0.0093-3.1289-0.04102-2.014-0.02995-3.7941-0.01618-4 0 0.09296-0.1486 0-1 0-1z" fill="url(#b)" opacity=".2"/></g><rect id="ax" x="6" y="21" width="3" height="2" fill="#fcfcfc" stroke-linecap="square" stroke-width=".5"/><rect id="ay" x="10" y="21" width="6" height="2" fill="#7cbcec" stroke-linecap="square" stroke-width=".5"/><rect id="az" x="6" y="21" width="3" height="2" fill="#7cbcec" stroke-linecap="square" stroke-width=".5"/><rect id="ba" x="37" y="26" width="2" height="2" fill="#7cbcec" stroke-linecap="square" stroke-width=".5"/><rect id="bb" x="26" y="26" width="10" height="2" fill="#7cbcec" stroke-linecap="square" stroke-width=".5"/></g></svg>
