<?xml version="1.0" encoding="UTF-8"?>
<svg viewBox="0 0 48 48" xmlns="http://www.w3.org/2000/svg" xmlns:xlink="http://www.w3.org/1999/xlink"><defs><linearGradient id="a" x2="0" y1="44" y2="4" gradientUnits="userSpaceOnUse"><stop stop-color="#18222a" offset="0"/><stop stop-color="#566069" offset="1"/></linearGradient><linearGradient id="b" x2="0" y1="540.8" y2="536.8" gradientUnits="userSpaceOnUse"><stop stop-color="#2f3943" offset="0"/><stop stop-color="#4d5662" offset="1"/></linearGradient><linearGradient id="c" x2="0" y1="537.8" y2="538.8" gradientUnits="userSpaceOnUse"><stop stop-color="#197cf1" offset="0"/><stop stop-color="#21c9fb" offset="1"/></linearGradient><linearGradient id="d" x2="0" y1="539.8" y2="538.8" gradientTransform="translate(0-1078.6)" gradientUnits="userSpaceOnUse" xlink:href="#c"/><linearGradient id="e" x2="0" y1="543.8" y2="503.8" gradientUnits="userSpaceOnUse"><stop stop-color="#2f3943" offset="0"/><stop stop-color="#808c9b" offset="1"/></linearGradient><linearGradient id="f" x2="0" y1="499.8" y2="547.8" gradientUnits="userSpaceOnUse" xlink:href="#e"/><linearGradient id="g" x1="13" x2="38" y1="13" y2="39" gradientUnits="userSpaceOnUse"><stop stop-color="#292c2f" offset="0"/><stop stop-opacity="0" offset="1"/></linearGradient></defs><g transform="translate(-384.57-499.8)"><path transform="translate(384.57 499.8)" d="m6 4v40h36v-40z" fill="url(#a)"/><path transform="translate(384.57 499.8)" d="m34.605 13.395-21.21 21.21 9.393 9.395h19.213v-23.21z" fill="url(#g)" opacity=".2" stroke-width=".093"/><rect x="393.57" y="508.8" width="30" height="30" rx="15" fill="#26333a" stroke-width=".094"/><rect x="394.57" y="509.8" width="28" height="28" rx="14" fill="url(#e)" stroke-width=".093"/><rect x="397.57" y="512.8" width="22" height="22" rx="11" fill="url(#f)" stroke-width=".085"/><rect x="403.57" y="518.8" width="10" height="10" rx="5" fill="#26333a" stroke-width=".1"/><rect x="390.57" y="542.8" width="36" height="1" fill="#13191f"/><rect x="391.57" y="536.8" width="4" height="4" rx="2" fill="url(#b)" stroke-width=".286"/><circle cx="394.67" cy="538.3" r=".5" fill="url(#c)" stroke-linecap="square" stroke-width=".1"/><rect x="421.57" y="536.8" width="4" height="4" rx="2" fill="url(#b)" stroke-width=".286"/><circle transform="scale(1-1)" cx="424.67" cy="-539.3" r=".5" fill="url(#d)" stroke-linecap="square" stroke-width=".1"/></g></svg>
