<?xml version="1.0" encoding="UTF-8"?>
<svg viewBox="0 0 64 64" xmlns="http://www.w3.org/2000/svg"><linearGradient id="a" x1="41" x2="23" y1="58" y2="6" gradientUnits="userSpaceOnUse"><stop stop-color="#848f9a" offset="0"/><stop stop-color="#bdc2c7" offset=".33333"/><stop stop-color="#f6f6f6" offset="1"/></linearGradient><linearGradient id="b" x1="-55" x2="-55" y1="12" y2="22" gradientTransform="matrix(-1 0 0 1 -25 0)" gradientUnits="userSpaceOnUse"><stop stop-color="#54b5e8" offset="0"/><stop stop-color="#8fd9ff" offset=".333"/><stop stop-color="#369acf" offset="1"/></linearGradient><linearGradient id="c" x1="-60" x2="-54" y1="22" y2="12" gradientTransform="matrix(-1 0 0 1 -25 0)" gradientUnits="userSpaceOnUse"><stop stop-color="#8e98a2" offset="0"/><stop stop-color="#6c7884" offset="1"/></linearGradient><linearGradient id="d" x1="32" x2="32" y1="6" y2="28" gradientUnits="userSpaceOnUse"><stop stop-color="#68737e" offset="0"/><stop stop-color="#7a8692" offset="1"/></linearGradient><linearGradient id="e" x1="-55" x2="-55" y1="22" y2="12" gradientTransform="matrix(-1 0 0 1 -25 0)" gradientUnits="userSpaceOnUse"><stop stop-color="#232629" offset="0"/><stop stop-color="#373d43" offset=".333"/><stop stop-color="#565f68" offset=".667"/><stop stop-color="#474e55" offset="1"/></linearGradient><linearGradient id="f" x1="21.006" x2="21" y1="21.006" y2="58" gradientUnits="userSpaceOnUse"><stop stop-color="#565f68" offset="0"/><stop stop-color="#68737e" offset=".59453"/><stop stop-color="#424950" offset="1"/></linearGradient><path d="m31 6.4996s-0.80964 0.038303-1 0.050781c-7.8377 0.51373-14 6.4775-14 14.45 0 0 2 7.3333 2 11s-1 7.3182-1 11c0 8.31 5.69 14.5 14 14.5h2c8.31 0 14-6.19 14-14.5 0-3.6818-1-7.3333-1-11s2-7.3182 2-11c0-7.9721-6.1703-13.826-14-14.45-0.2207-0.01757-1-0.050781-1-0.050781v5.5004h-2z" fill="url(#a)" fill-rule="evenodd"/><path d="m31 6s-0.80964 0.038301-1 0.050781c-7.8377 0.51373-14 6.9771-14 14.949 0 0.20144 0.01387 0.40225 0.01953 0.60352 0.20214-7.7873 6.2743-14.048 13.98-14.553 0.19036-0.01248 1-0.050781 1-0.050781h2s0.7793 0.033211 1 0.050781c7.6988 0.6129 13.779 6.7703 13.98 14.555 0.005695-0.20191 0.019531-0.40338 0.019531-0.60547 0-7.9721-6.1703-14.326-14-14.949-0.2207-0.01757-1-0.050781-1-0.050781z" fill="#c9cdd1"/><path d="m31 6v4l-2 2v10l1 1v4c0 1.108.892 2 2 2s2-.892 2-2v-4l1-1v-10l-2-2v-4z" fill="url(#d)"/><path d="m16.02 42.381c-0.005947 0.20642-0.019531 0.41245-0.019531 0.61909 0 8.31 6.69 15 15 15h2c8.31 0 15-6.69 15-15 0-0.20665-0.01358-0.41268-0.01953-0.61914-0.2028 8.1307-6.7992 14.619-14.98 14.619h-2c-8.1813 0-14.778-6.4884-14.98-14.619z" fill="#7a8692" fill-rule="evenodd"/><path d="m35 12v10l-2-2v-6zm-6 0 2 2v6l-2 2z" fill="url(#c)"/><g fill-rule="evenodd"><rect x="31" y="24" width="2" height="3" rx="1" fill="#2a2e32"/><path d="m32 12c.372982 0 .701757.06416 1 .152344v9.695312c-.298243.088186-.627018.152344-1 .152344s-.701757-.06416-1-.152344v-9.695312c.298243-.088186.627018-.152344 1-.152344z" fill="url(#e)"/><path d="m33 12.152c0.58773 0.17378 1 1.4801 1 1.8477v6c0 0.36751-0.41227 1.6739-1 1.8477zm-2 0v9.6953c-0.58773-0.17378-1-1.4801-1-1.8477v-6c0-0.36751 0.41227-1.6739 1-1.8477z" fill="url(#b)"/><path d="m16 21.006c1e-3 3.6798 1 7.3143 1 10.994s-0.99894 7.3144-1 10.994v0.005859c0 7.8942 6.0413 14.314 13.77 14.938-6.0658-0.61233-10.77-5.705-10.77-11.938v-12c0-3.3845-1.1231-10.49-3-12.994zm32 0c-1.8769 2.5045-3 9.6097-3 12.994v12c0 6.2325-4.7038 11.325-10.77 11.938 7.7282-0.62388 13.77-7.0433 13.77-14.938v-0.0059c-0.0011-3.6797-1-7.3143-1-10.994s0.99894-7.3144 1-10.994z" fill="url(#f)"/></g></svg>
