<?xml version="1.0" encoding="UTF-8"?>
<svg viewBox="0 0 48 48" xmlns="http://www.w3.org/2000/svg"><defs><linearGradient id="a" x2="0" y1="44" y2="4" gradientUnits="userSpaceOnUse"><stop stop-color="#42a603" offset="0"/><stop stop-color="#78da06" offset="1"/></linearGradient><linearGradient id="b" x1="398.57" x2="418.57" y1="514" y2="534" gradientUnits="userSpaceOnUse"><stop stop-color="#383e51" offset="0"/><stop stop-color="#655c6f" stop-opacity="0" offset="1"/></linearGradient><linearGradient id="c" x2="0" y1="19.04" y2="3.036" gradientUnits="userSpaceOnUse"><stop stop-color="#bcfd93" offset="0"/><stop stop-color="#fafff5" offset="1"/></linearGradient></defs><g transform="translate(-384.57-499.8)"><g fill-rule="evenodd"><path transform="translate(384.57 499.8)" d="m4 4v30h20l11 10v-10h9v-30z" fill="url(#a)"/><path d="m409.57 510.8-6 4v2l-1-1v6h-2l26 26h2v-18l-8-8z" fill="url(#b)" opacity=".2"/></g><path transform="translate(397.57 507.76)" d="m10.988 3.04l-4.988 3.996v7.968l4.988 3.996h1.012v-15.964h-1zm.012 1.232v13.457l-4-3.205v-7.05zm6.03.158l-.771.631c1.137 1.772 1.742 3.834 1.742 5.939-.004 2.104-.611 4.162-1.75 5.932l.783.643c1.282-1.953 1.965-4.238 1.967-6.574-.004-2.335-.689-4.619-1.971-6.57m-2.34 1.916l-.781.639c.712 1.219 1.088 2.604 1.092 4.02-.002 1.412-.378 2.798-1.09 4.02l.781.641c.853-1.404 1.306-3.02 1.309-4.658-.004-1.642-.457-3.251-1.311-4.654m-11.689 1.69v6h2v-6z" fill="url(#c)" stroke-opacity=".55" stroke-width="2.8"/></g></svg>
