<?xml version="1.0" encoding="UTF-8"?>
<svg id="u" width="128" height="128" enable-background="new 0 0 126 111.715" overflow="visible" version="1.0" viewBox="0 0 126 111.72" xml:space="preserve" xmlns="http://www.w3.org/2000/svg" xmlns:xlink="http://www.w3.org/1999/xlink"><defs id="v"><linearGradient id="a"><stop id="w" offset="0"/><stop id="x" stop-opacity="0" offset="1"/></linearGradient><linearGradient id="t"><stop id="y" stop-color="#fff" offset="0"/><stop id="z" stop-color="#fff" stop-opacity="0" offset="1"/></linearGradient><radialGradient id="g" cx="64.506" cy="63.379" r="45.848" gradientTransform="matrix(1.2101 -.0057419 -.0057438 .10822 -15.499 61.686)" gradientUnits="userSpaceOnUse" xlink:href="#a"/><radialGradient id="f" cx="56.618" cy="53.388" r="6.0582" gradientTransform="matrix(1.2101 -.0057419 -.44307 8.3475 8.442 -389.37)" gradientUnits="userSpaceOnUse" xlink:href="#a"/><linearGradient id="b" x1="26.994" x2="62.676" y1="91.863" y2="53.388" gradientTransform="matrix(1.2101 -.0057419 -.065146 1.2274 -11.734 -9.2439)" gradientUnits="userSpaceOnUse" xlink:href="#t"/><radialGradient id="e" cx="56.53" cy="53.388" r="6.7227" fx="55.983" fy="56.927" gradientTransform="matrix(1.2065 -.18698 .9354 9.925 -64.945 -463.34)" gradientUnits="userSpaceOnUse"><stop id="aa" offset="0"/><stop id="ab" stop-opacity="0" offset="1"/></radialGradient><radialGradient id="d" cx="64.681" cy="63.379" r="46.601" fx="58.186" fy="64.543" gradientTransform="matrix(1.5812 -.13836 .0031095 .11201 -40.064 70.024)" gradientUnits="userSpaceOnUse"><stop id="ac" offset="0"/><stop id="ad" stop-opacity="0" offset="1"/></radialGradient><linearGradient id="s" x1="17.43" x2="108.25" y1="53.212" y2="53.212" gradientTransform="matrix(1.2101 -.0057419 -.065146 1.2274 -11.734 -9.2439)" gradientUnits="userSpaceOnUse" xlink:href="#a"/><linearGradient id="r" x1="20.41" x2="115.09" y1="83.537" y2="83.537" gradientTransform="matrix(1.2101 -.0057419 -.065146 1.2274 -11.734 -9.2439)" gradientUnits="userSpaceOnUse" xlink:href="#a"/><linearGradient id="q" x1="19.358" x2="112.98" y1="73.283" y2="73.283" gradientTransform="matrix(1.2101 -.0057419 -.065146 1.2274 -11.734 -9.2439)" gradientUnits="userSpaceOnUse" xlink:href="#a"/><linearGradient id="p" x1="14.976" x2="101.41" y1="22.712" y2="22.712" gradientTransform="matrix(1.2101 -.0057419 -.065146 1.2274 -11.734 -9.2439)" gradientUnits="userSpaceOnUse" xlink:href="#a"/><linearGradient id="o" x1="15.853" x2="103.69" y1="33.054" y2="33.054" gradientTransform="matrix(1.2101 -.0057419 -.065146 1.2274 -11.734 -9.2439)" gradientUnits="userSpaceOnUse" xlink:href="#a"/><linearGradient id="n" x1="16.729" x2="105.62" y1="43.133" y2="43.133" gradientTransform="matrix(1.2101 -.0057419 -.065146 1.2274 -11.734 -9.2439)" gradientUnits="userSpaceOnUse" xlink:href="#a"/><linearGradient id="m" x1="86.669" x2="103.34" y1="50.233" y2="50.233" gradientTransform="matrix(1.2101 -.0057419 -.065146 1.2274 -11.734 -9.2439)" gradientUnits="userSpaceOnUse" xlink:href="#a"/><linearGradient id="l" x1="74.399" x2="90.021" y1="51.197" y2="51.197" gradientTransform="matrix(1.2101 -.0057419 -.065146 1.2274 -11.734 -9.2439)" gradientUnits="userSpaceOnUse" xlink:href="#a"/><linearGradient id="k" x1="62.479" x2="76.173" y1="52.424" y2="52.424" gradientTransform="matrix(1.2101 -.0057419 -.065146 1.2274 -11.734 -9.2439)" gradientUnits="userSpaceOnUse" xlink:href="#a"/><linearGradient id="j" x1="26.195" x2="35.331" y1="55.316" y2="55.316" gradientTransform="matrix(1.2101 -.0057419 -.065146 1.2274 -11.734 -9.2439)" gradientUnits="userSpaceOnUse" xlink:href="#a"/><linearGradient id="i" x1="38.465" x2="49.004" y1="54.439" y2="54.439" gradientTransform="matrix(1.2101 -.0057419 -.065146 1.2274 -11.734 -9.2439)" gradientUnits="userSpaceOnUse" xlink:href="#a"/><radialGradient id="c" cx="63.808" cy="60.918" r="57.717" gradientTransform="matrix(1.019 -.089501 .075775 .88682 -7.7118 7.1814)" gradientUnits="userSpaceOnUse"><stop id="ae" stop-color="#fff" offset="0"/><stop id="af" stop-color="#efefef" offset="1"/></radialGradient><linearGradient id="h" x1="27.055" x2="131.28" y1="63.926" y2="13.463" gradientTransform="matrix(1.1337 .20088 -.20088 1.1337 2.6645 -23.231)" gradientUnits="userSpaceOnUse"><stop id="ag" stop-color="#6193cf" offset="0"/><stop id="ah" stop-color="#6193cf" stop-opacity="0" offset="1"/></linearGradient></defs>




<path id="ai" d="m7.7676 111.51 116.92-11.291-17.71-98.856-77.666 5.7432-25.069 2.3181c-0.060528 1.7111 0.099897 3.5747 0.14385 5.4325l3.3797 96.653z" fill="url(#c)" fill-rule="evenodd" stroke="#b4b4b4" stroke-linejoin="miter" stroke-miterlimit="4" stroke-width=".62255"/><path id="aj" transform="matrix(1.201 -.0056985 -.064727 1.2195 87.697 -18.289)" d="m23.138 98.437a1.227 1.1394 0 1 1-2.454 0 1.227 1.1394 0 1 1 2.454 0z" fill="#2e3436" fill-rule="nonzero" opacity=".66"/><path id="ak" transform="matrix(1.201 -.0056985 -.064727 1.2195 71.124 -16.667)" d="m23.138 98.437a1.227 1.1394 0 1 1-2.454 0 1.227 1.1394 0 1 1 2.454 0z" fill="#6193cf" fill-rule="nonzero" opacity=".66"/><path id="al" transform="matrix(1.201 -.0056985 -.064727 1.2195 54.551 -15.044)" d="m23.138 98.437a1.227 1.1394 0 1 1-2.454 0 1.227 1.1394 0 1 1 2.454 0z" fill="#2e3436" fill-rule="nonzero" opacity=".66"/><path id="am" transform="matrix(1.201 -.0056985 -.064727 1.2195 37.979 -13.422)" d="m23.138 98.437a1.227 1.1394 0 1 1-2.454 0 1.227 1.1394 0 1 1 2.454 0z" fill="#6193cf" fill-rule="nonzero" opacity=".66"/><path id="an" transform="matrix(1.201 -.0056985 -.064727 1.2195 21.406 -11.8)" d="m23.138 98.437a1.227 1.1394 0 1 1-2.454 0 1.227 1.1394 0 1 1 2.454 0z" fill="#2e3436" fill-rule="nonzero" opacity=".66"/><path id="ao" transform="matrix(1.201 -.0056985 -.064727 1.2195 4.8328 -10.178)" d="m23.138 98.437a1.227 1.1394 0 1 1-2.454 0 1.227 1.1394 0 1 1 2.454 0z" fill="#6193cf" fill-rule="nonzero" opacity=".66"/><path id="ap" transform="matrix(-1.206 .0057219 -.060144 1.1331 37.139 -89.248)" d="m23.138 98.437a1.227 1.1394 0 1 1-2.454 0 1.227 1.1394 0 1 1 2.454 0z" fill="#6193cf" fill-rule="nonzero" opacity=".66"/><path id="aq" transform="matrix(1.059 -.0050247 -.04465 .84122 73.714 -80.431)" d="m23.138 98.437a1.227 1.1394 0 1 1-2.454 0 1.227 1.1394 0 1 1 2.454 0z" fill="#2e3436" fill-rule="nonzero" opacity=".66"/><path id="ar" transform="matrix(1.059 -.0050247 -.04465 .84122 59.116 -79.297)" d="m23.138 98.437a1.227 1.1394 0 1 1-2.454 0 1.227 1.1394 0 1 1 2.454 0z" fill="#6193cf" fill-rule="nonzero" opacity=".66"/><path id="as" transform="matrix(1.059 -.0050247 -.04465 .84122 44.517 -78.163)" d="m23.138 98.437a1.227 1.1394 0 1 1-2.454 0 1.227 1.1394 0 1 1 2.454 0z" fill="#2e3436" fill-rule="nonzero" opacity=".66"/><path id="at" transform="matrix(1.059 -.0050247 -.04465 .84122 29.919 -77.028)" d="m23.138 98.437a1.227 1.1394 0 1 1-2.454 0 1.227 1.1394 0 1 1 2.454 0z" fill="#6193cf" fill-rule="nonzero" opacity=".66"/><path id="au" transform="matrix(1.059 -.0050247 -.04465 .84122 15.326 -76.016)" d="m23.138 98.437a1.227 1.1394 0 1 1-2.454 0 1.227 1.1394 0 1 1 2.454 0z" fill="#2e3436" fill-rule="nonzero" opacity=".66"/><path id="av" transform="matrix(1.059 -.0050247 -.04465 .84122 .76033 -74.785)" d="m23.138 98.437a1.227 1.1394 0 1 1-2.454 0 1.227 1.1394 0 1 1 2.454 0z" fill="#6193cf" fill-rule="nonzero" opacity=".66"/><path id="aw" transform="matrix(1.0589 -.12212 .023027 .41974 -21.2 -29.373)" d="m23.138 98.437a1.227 2.6251 0 1 1-2.454 0 1.227 2.6251 0 1 1 2.454 0z" fill="#2e3436" fill-rule="nonzero" opacity=".66"/><path id="ax" transform="matrix(1.059 -.0050247 -.04465 .84122 88.3 -81.322)" d="m23.138 98.437a1.227 1.1394 0 1 1-2.454 0 1.227 1.1394 0 1 1 2.454 0z" fill="#6193cf" fill-rule="nonzero" opacity=".66"/><path id="ay" transform="matrix(-1.2305 .0058376 -.061365 1.1561 38.418 -78.494)" d="m23.138 98.437a1.227 1.1394 0 1 1-2.454 0 1.227 1.1394 0 1 1 2.454 0z" fill="#2e3436" fill-rule="nonzero" opacity=".66"/><path id="az" transform="matrix(-1.2429 .0058963 -.061985 1.1678 39.037 -67.042)" d="m23.138 98.437a1.227 1.1394 0 1 1-2.454 0 1.227 1.1394 0 1 1 2.454 0z" fill="#6193cf" fill-rule="nonzero" opacity=".66"/><path id="ba" transform="matrix(-1.2555 .0059578 -.062611 1.1796 39.564 -55.926)" d="m23.138 98.437a1.227 1.1394 0 1 1-2.454 0 1.227 1.1394 0 1 1 2.454 0z" fill="#2e3436" fill-rule="nonzero" opacity=".66"/><path id="bb" transform="matrix(-1.2682 .0060175 -.063243 1.1915 40.471 -44.345)" d="m23.138 98.437a1.227 1.1394 0 1 1-2.454 0 1.227 1.1394 0 1 1 2.454 0z" fill="#6193cf" fill-rule="nonzero" opacity=".66"/><path id="bc" transform="matrix(-1.281 .0060792 -.063882 1.2036 41.267 -33.002)" d="m23.138 98.437a1.227 1.1394 0 1 1-2.454 0 1.227 1.1394 0 1 1 2.454 0z" fill="#2e3436" fill-rule="nonzero" opacity=".66"/><path id="bd" transform="matrix(-1.2939 .0061399 -.064528 1.2157 42.09 -21.512)" d="m23.138 98.437a1.227 1.1394 0 1 1-2.454 0 1.227 1.1394 0 1 1 2.454 0z" fill="#6193cf" fill-rule="nonzero" opacity=".66"/><path id="be" transform="matrix(-1.2939 .0061399 -.064528 1.2157 42.928 -8.555)" d="m23.138 98.437a1.227 1.1394 0 1 1-2.454 0 1.227 1.1394 0 1 1 2.454 0z" fill="#2e3436" fill-rule="nonzero" opacity=".66"/><path id="bf" transform="matrix(-1.2385 .173 .096037 1.1278 127.08 -100.7)" d="m23.138 98.437a1.227 1.1394 0 1 1-2.454 0 1.227 1.1394 0 1 1 2.454 0z" fill="#2e3436" fill-rule="nonzero" opacity=".66"/><path id="bg" transform="matrix(-1.2385 .173 .096037 1.1278 128.8 -88.004)" d="m23.138 98.437a1.227 1.1394 0 1 1-2.454 0 1.227 1.1394 0 1 1 2.454 0z" fill="#6193cf" fill-rule="nonzero" opacity=".66"/><path id="bh" transform="matrix(-1.251 .17474 .097008 1.1392 131.14 -76.995)" d="m23.138 98.437a1.227 1.1394 0 1 1-2.454 0 1.227 1.1394 0 1 1 2.454 0z" fill="#2e3436" fill-rule="nonzero" opacity=".66"/><path id="bi" transform="matrix(-1.2636 .17651 .097986 1.1507 133.48 -65.997)" d="m23.138 98.437a1.227 1.1394 0 1 1-2.454 0 1.227 1.1394 0 1 1 2.454 0z" fill="#6193cf" fill-rule="nonzero" opacity=".66"/><path id="bj" transform="matrix(-1.2893 .18009 .099978 1.174 136.01 -56.206)" d="m23.138 98.437a1.227 1.1394 0 1 1-2.454 0 1.227 1.1394 0 1 1 2.454 0z" fill="#2e3436" fill-rule="nonzero" opacity=".66"/><path id="bk" transform="matrix(-1.2893 .18009 .099978 1.174 138.17 -44.037)" d="m23.138 98.437a1.227 1.1394 0 1 1-2.454 0 1.227 1.1394 0 1 1 2.454 0z" fill="#6193cf" fill-rule="nonzero" opacity=".66"/><path id="bl" transform="matrix(-1.3023 .18191 .10099 1.1859 140.52 -33.075)" d="m23.138 98.437a1.227 1.1394 0 1 1-2.454 0 1.227 1.1394 0 1 1 2.454 0z" fill="#2e3436" fill-rule="nonzero" opacity=".66"/><path id="bm" transform="matrix(-1.3023 .18191 .10099 1.1859 142.68 -20.906)" d="m23.138 98.437a1.227 1.1394 0 1 1-2.454 0 1.227 1.1394 0 1 1 2.454 0z" fill="#6193cf" fill-rule="nonzero" opacity=".66"/><path id="bn" d="m7.3734 98.224 114.87-10.654" fill="none" opacity=".40164" stroke="url(#r)" stroke-linejoin="miter" stroke-miterlimit="4" stroke-width=".2399"/><path id="bo" d="m6.7744 85.537 113.59-10.433" fill="none" opacity=".22951" stroke="url(#q)" stroke-linejoin="miter" stroke-miterlimit="4" stroke-width=".2399"/><path id="bp" d="m6.5768 73.278 111.24-10.207" fill="url(#b)" fill-rule="evenodd" stroke="url(#g)" stroke-linejoin="miter" stroke-miterlimit="4" stroke-width=".2399"/><path id="bq" d="m5.7885 60.161 110.11-8.9108" fill="url(#b)" fill-rule="evenodd" opacity=".22951" stroke="url(#s)" stroke-linejoin="miter" stroke-miterlimit="4" stroke-width=".2399"/><path id="br" d="m5.6024 47.687 107.77-8.6846" fill="none" opacity=".22951" stroke="url(#n)" stroke-linejoin="miter" stroke-miterlimit="4" stroke-width=".2399"/><path id="bs" d="m5.1926 35.429 106.51-8.8937" fill="none" opacity=".22951" stroke="url(#o)" stroke-linejoin="miter" stroke-miterlimit="4" stroke-width=".2399"/><path id="bt" d="m4.8286 22.311 104.76-8.0251" fill="none" opacity=".22951" stroke="url(#p)" stroke-linejoin="miter" stroke-miterlimit="4" stroke-width=".2399"/><path id="bu" d="m19.181 7.6168 5.417 101.71" fill="none" opacity=".22951" stroke="url(#j)" stroke-linejoin="miter" stroke-miterlimit="4" stroke-width=".2399"/><path id="bv" d="m34.086 6.4707 7.114 101.7" fill="none" opacity=".22951" stroke="url(#i)" stroke-linejoin="miter" stroke-miterlimit="4" stroke-width=".2399"/><path id="bw" d="m48.768 5.5407 9.0687 100.83" fill="url(#b)" fill-rule="evenodd" stroke="url(#f)" stroke-linejoin="miter" stroke-miterlimit="4" stroke-width=".2399"/><path id="bx" d="m63.238 4.6117 11.012 100.18" fill="none" opacity=".22951" stroke="url(#k)" stroke-linejoin="miter" stroke-miterlimit="4" stroke-width=".2399"/><path id="by" d="m77.754 2.8221 13.323 100.6" fill="none" opacity=".22951" stroke="url(#l)" stroke-linejoin="miter" stroke-miterlimit="4" stroke-width=".2399"/><path id="bz" d="m92.648 1.8911 14.63 99.945" fill="none" opacity=".22951" stroke="url(#m)" stroke-linejoin="miter" stroke-miterlimit="4" stroke-width=".2399"/><path id="ca" d="m48.367 5.1124 9.6594 101.69" fill="none" opacity=".5082" stroke="url(#e)" stroke-linejoin="miter" stroke-width="1.2186px"/><path id="cb" d="m106.98 1.1957c-1.159 13.084-3.0491 35.696-12.808 45.23-20.327 19.861-48.872 19.898-68.842 38.542-9.2798 8.653-12.68 20.622-14.854 26.221l3.4881-0.37455c1.6763-4.7123 4.4852-14.65 12.201-23.337 15.598-17.562 49.553-19.76 69.877-39.617 9.2859-9.0727 11.429-28.879 12.203-39.636l-1.2658-7.0281z" fill="url(#h)" fill-rule="evenodd"/><path id="cc" d="m6.3761 73.064 112.07-9.7804" fill="none" opacity=".5082" stroke="url(#d)" stroke-linejoin="miter" stroke-width="1.2186px"/><path id="cd" d="m68.053 75.561c0.15987 0.85936-0.13015 1.4572-0.87006 1.7934-0.12788 0.03739-0.27733 0.03739-0.44835 0l-0.073383-0.22417-0.15544-0.56043c-0.033137-0.18678-0.25385-0.50436-0.66215-0.95274-0.42988-0.48568-0.99975-0.72853-1.7096-0.72856-0.44835 3.1e-5 -0.9146 0.1308-1.3988 0.3923-0.50573 0.2242-0.94886 0.65387-1.3294 1.289-0.38053 0.63519-0.72716 1.5879-1.0399 2.8582-0.14057 0.59782-0.24166 1.1022-0.30328 1.5132-0.20642 1.1956-0.37604 2.7461-0.50887 4.6516l-0.16054 2.634-0.005725 1.7373h5.212l0.08437 0.72855h-5.3802l-0.22927 3.1945-0.20792 2.7461-0.1028 1.5692-0.070433 1.6253-0.13113 0.84063-0.42914 4.5956c-0.41087 3.6241-0.98817 6.1834-1.7319 7.6779-0.74373 1.4945-2.0071 2.6714-3.79 3.5308-0.68675 0.29889-1.3498 0.5417-1.9892 0.72854-0.63938 0.18682-1.2206 0.2802-1.7437 0.28024l-1.0972-0.05604h-0.89669l-0.64883-0.05604c-0.29888-5e-5 -0.64882-0.05608-1.0498-0.16816-0.37939-0.07471-0.8285-0.20549-1.3474-0.39229-1.0434-0.44835-1.7701-1.0274-2.18-1.7373-0.28041-0.48574-0.32587-0.95278-0.1364-1.4011l0.44602-0.39232c0.33051-0.07471 0.55178-0.11209 0.66386-0.11206 0.52309-3e-5 1.0075 0.22418 1.4531 0.6725 0.19417 0.33628 0.29412 0.54178 0.29989 0.61649l-0.11844 0.28024c-0.094725 0.22417-0.05582 0.48567 0.11673 0.78458 0.25887 0.44834 0.74401 0.80328 1.4554 1.0648 0.65829 0.2989 1.4358 0.44834 2.3325 0.44835 1.1209-1e-5 2.1173-0.28023 2.9893-0.84062 0.83467-0.56048 1.5283-1.4945 2.081-2.8022 0.2153-0.59782 0.36377-1.2143 0.4454-1.8494 0.081651-0.63516 0.18677-1.8121 0.31536-3.5307l0.096453-1.289 0.21828-3.6989 0.6417-6.5571 0.15018-1.6813 0.272-4.0912h-3.5868l-0.084368-0.72855h3.6989l0.18655-2.2978c0.25183-2.5406 0.58437-4.5208 0.99762-5.9406 0.39169-1.4571 0.92647-2.634 1.6044-3.5307 1.2968-1.8307 2.7441-3.045 4.3418-3.6428 0.852-0.33623 1.689-0.50436 2.511-0.50439 0.48571 3.2e-5 0.99298 0.037393 1.5218 0.11209 0.56621 0.074757 1.0111 0.39234 1.3347 0.95274 0.043136 0.074755 0.092057 0.2242 0.14676 0.44835" fill="#000"/><path id="ce" d="m74.992 79.635 0.041028 0.16813-0.10342 0.11209-0.015018 0.16813-0.836 0.78461c-0.29735 0.26157-0.55445 0.56046-0.77129 0.89669-0.23842 0.29893-0.63764 0.93409-1.1977 1.9055-1.0611 1.9802-1.872 4.2967-2.4328 6.9493-0.56074 2.6528-0.8426 5.5296-0.84559 8.6307 0.010123 3.512 0.234 6.1648 0.67161 7.9582 0.47498 1.7934 1.0037 3.1945 1.5861 4.2032l0.35592 0.61647-0.015018 0.16812c0.027356 0.11214 0.003666 0.16817-0.071058 0.16817-0.13366-0.03737-0.24864-0.07475-0.34493-0.11213-0.11787-0.0747-0.31912-0.26153-0.60378-0.56039-0.59088-0.6352-1.2207-1.5319-1.8894-2.6901-1.4237-2.4659-2.3617-4.9318-2.814-7.3977-0.47384-2.5032-0.4535-5.3801 0.060987-8.6306 0.31695-1.4571 0.69362-2.7461 1.13-3.867 0.43637-1.1208 1.1759-2.4285 2.2185-3.923 0.55578-0.78458 0.97946-1.345 1.271-1.6813 0.51419-0.59777 1.0657-1.1956 1.6547-1.7934l0.77996-0.78461 0.60549-0.50439 0.94809-0.78461 0.35128-0.16813 0.2652 0.16813" fill="#000"/><path id="cf" d="m95.528 97.026 0.013317 0.22416-0.15884 0.39231-0.042724 0.22418-0.72205 1.289-0.48581 0.78461-0.41242 0.8407-1.1998 1.7373c-0.5561 0.85933-1.0321 1.4945-1.428 1.9055-0.39592 0.41098-1.0173 0.87803-1.8643 1.4011-0.84695 0.52307-1.6627 0.78462-2.4473 0.78462-2.0923 0-3.6778-1.1396-4.7566-3.4187-0.1672-0.29889-0.29126-0.57908-0.37218-0.84062-0.092479-0.29891-0.15606-0.50441-0.19074-0.61649l-0.19754 0.44836-0.25359 0.44833c-0.6273 1.233-1.3844 2.167-2.2714 2.8022-0.92434 0.63516-1.8349 0.95277-2.7316 0.95277-0.89669 0-1.4664-0.39233-1.7092-1.1769-0.034672-0.11208-0.065328-0.39233-0.09197-0.84067-0.03818-0.48571 0.18248-0.85932 0.66199-1.1209 0.44216-0.26154 0.77532-0.3923 0.99948-0.39233 0.26155 3e-5 0.47726 0.09343 0.64713 0.28025l0.10404 0.33624c0.16453 0.41099 0.64931 0.70988 1.4543 0.8967 0.2731 0.03735 0.54888-0.03736 0.82733-0.22419 0.24111-0.18678 0.57963-0.54174 1.0156-1.0648l0.56321-0.89669 0.54185-0.78464 0.21488-0.39227c-0.21964-0.7099-0.36279-1.233-0.42947-1.5692-0.078235-0.37365-0.24401-1.5132-0.4973-3.4187l-0.23596-1.8494-0.12664-0.95274-0.035928-0.84068-0.10528-1.0648-0.283 0.89667-0.34306 1.0648-0.37774 0.95273-0.69542 1.7374c-0.27762 0.67253-0.45514 1.0648-0.53256 1.1769-0.077403 0.11209-0.25265 0.14946-0.52576 0.11208l0.004026-0.16812-0.013318-0.22415 0.5499-1.1209 0.98243-2.8022 0.40716-1.4011 0.33904-0.89668 0.80194 0.056037c0.63516 1.6e-5 1.2098-0.074693 1.724-0.22419 0.51419-0.1494 1.0297-0.3549 1.5466-0.61644l-0.03746 0.78459 0.011784 1.8495c0.030971 1.3077 0.080211 2.3725 0.14772 3.1944 0.06751 0.82198 0.19106 1.644 0.37065 2.4659l0.54587-0.95277 0.52451-0.84064 0.70069-1.1769c1.5197-2.0923 2.7301-3.4934 3.6313-4.2033 0.92702-0.74724 1.7642-1.1208 2.5114-1.1208 0.60935 0.037369 1.1026 0.24287 1.4797 0.61644 0.40293 0.33628 0.59325 0.7099 0.57097 1.1209l-0.11084 0.72857c-0.36929 0.85936-0.74075 1.289-1.1144 1.289-0.22419 0-0.52484-0.18677-0.90196-0.56043-0.17258-0.074708-0.29622-0.11208-0.37094-0.11208-0.44567-0.11208-0.85531-0.16812-1.2289-0.16812-0.22418 0-0.54444 0.11208-0.96078 0.33624-0.39056 0.18682-0.74374 0.37366-1.0596 0.56043-0.60853 0.44837-1.1753 0.97143-1.7002 1.5692-0.65394 0.7846-1.2803 1.7186-1.8791 2.8022l-0.43379 0.9527c0.11023 0.5978 0.24049 1.1396 0.39077 1.6252 0.057799 0.18684 0.1156 0.37362 0.1734 0.56046 0.1672 0.29891 0.27392 0.52307 0.32016 0.67251 0.64735 2.0923 1.6249 3.1385 2.9326 3.1385 0.56043 0 1.188-0.20552 1.8829-0.61651 0.39054-0.18682 0.73929-0.44835 1.0462-0.78459 0.30694-0.33627 0.71844-0.878 1.2345-1.6253l0.80875-1.0088 0.34833-0.5044 0.50315-0.72855 1.1558-2.2417c0.082756-0.33628 0.16863-0.54177 0.25761-0.61648 0.037352 0 0.06893-0.018704 0.094747-0.056044l0.29353 0.22415" fill="#000"/><path id="cg" d="m101.72 84.96c0.91328 1.9055 1.5019 3.9604 1.7658 6.1648 0.30283 2.4659 0.24074 5.0439-0.18633 7.734-0.24803 1.3824-0.61386 2.6901-1.0976 3.923-0.50533 1.1956-1.2743 2.4846-2.3069 3.867-0.69789 1.1209-1.6465 2.2604-2.846 3.4187l-0.85968 0.84068-0.52576 0.44831-1.0041 0.7846c-0.13788 0.14946-0.24419 0.22421-0.31892 0.22421-0.096282-0.03737-0.15522-0.07475-0.1768-0.11213l-0.073382-0.22416 0.015017-0.16811 0.10342-0.11209 0.836-0.78458c0.24998-0.14948 0.52865-0.41099 0.836-0.78465 0.24843-0.41097 0.62608-1.0835 1.1329-2.0175 0.8127-1.5692 1.5762-3.7736 2.2906-6.6131 0.61968-2.6153 0.9058-5.679 0.8583-9.1911-0.01012-3.512-0.2419-6.146-0.6953-7.9021-0.47498-1.7934-0.9821-3.1571-1.5214-4.0912l-0.32357-0.56043-0.07338-0.22418c0.10053-0.14942 0.23921-0.1681 0.416-0.056043 0.3536 0.22421 0.72664 0.57915 1.1192 1.0648 0.42989 0.48574 0.93602 1.233 1.5185 2.2417 0.19409 0.33629 0.38826 0.67255 0.58238 1.0088 0.20572 0.48574 0.38405 0.85936 0.53506 1.1209" fill="#000"/><path id="ch" d="m124.88 93.054h-14.648v-2.1857h14.648v2.1857" fill="#000"/><path id="ci" d="m124.88 102.97h-14.648v-2.1857h14.648v2.1857" fill="#000"/></svg>
