<?xml version="1.0" encoding="UTF-8"?>
<svg id="j" fill="none" version="1.1" viewBox="0 0 16 16" xmlns="http://www.w3.org/2000/svg" xmlns:xlink="http://www.w3.org/1999/xlink"><linearGradient id="a" x1="5" x2="16" y1="5" y2="16" gradientUnits="userSpaceOnUse"><stop id="k" stop-color="#eff0f1" offset="0"/><stop id="l" stop-color="#e3e5e7" offset="1"/></linearGradient><linearGradient id="b" x2="16" y1="48" y2="64" gradientUnits="userSpaceOnUse"><stop id="m" stop-color="#d6d9dc" offset="0"/><stop id="n" stop-color="#c9cdd1" offset="1"/></linearGradient><linearGradient id="c" x1="2" x2="14" y1="2" y2="13" gradientUnits="userSpaceOnUse" xlink:href="#i"/><linearGradient id="d" x1="3" x2="13" y1="3" y2="12" gradientTransform="matrix(1.2 0 0 1.2222 -1.6 -1.6667)" gradientUnits="userSpaceOnUse" xlink:href="#i"/><linearGradient id="e" x1="2" x2="14" y1="50" y2="61" gradientUnits="userSpaceOnUse"><stop id="o" stop-opacity=".071" offset="0"/><stop id="p" stop-opacity=".051" offset="1"/></linearGradient><linearGradient id="f" x1="4" x2="12" y1="3" y2="11" gradientUnits="userSpaceOnUse"><stop id="q" stop-color="#fceaca" offset="0"/><stop id="r" stop-color="#fdcf7e" offset="1"/></linearGradient><linearGradient id="g" x1="-.53932" x2="15.461" y1="-.071909" y2="15.928" gradientTransform="matrix(.75 0 0 .6875 2.4045 2.0494)" gradientUnits="userSpaceOnUse"><stop id="s" stop-color="#fff" stop-opacity="0" offset="0"/><stop id="t" stop-color="#fff" stop-opacity=".25" offset=".25"/><stop id="u" stop-color="#fff" stop-opacity=".06" offset=".5"/><stop id="v" stop-color="#fff" stop-opacity=".13" offset=".75"/><stop id="w" stop-color="#fff" stop-opacity="0" offset="1"/></linearGradient><linearGradient id="h" x1="4" x2="14" y1="3" y2="13" gradientTransform="matrix(20 20 -20 20 19 65)" gradientUnits="userSpaceOnUse"><stop id="x" stop-color="#c9963c" stop-opacity=".8" offset="0"/><stop id="y" stop-color="#c9963c" stop-opacity=".6" offset=".49918"/><stop id="z" stop-color="#ca973c" stop-opacity="0" offset="1"/></linearGradient><linearGradient id="i" x1="14.9" x2="33.1" y1="14.9" y2="33.1" gradientTransform="translate(0 48)" gradientUnits="userSpaceOnUse"><stop id="aa" stop-color="#fdbd4c" offset="0"/><stop id="ab" stop-color="#f6cd7b" offset=".25"/><stop id="ac" stop-color="#f0b754" offset=".5"/><stop id="ad" stop-color="#e9b969" offset=".75"/><stop id="ae" stop-color="#fdbc4b" offset="1"/></linearGradient><circle id="af" cx="8" cy="8" r="8" fill="url(#a)"/><path id="ag" d="m15.979 7.4238a8 8 0 0 1-7.9785 7.5762 8 8 0 0 1-7.9785-7.4238 8 8 0 0 0-0.021484 0.42383 8 8 0 0 0 8 8 8 8 0 0 0 8-8 8 8 0 0 0-0.02148-0.57617z" fill="#8e98a2"/><path id="ah" d="m8 2a6 5.5 0 0 0-6 5.5 6 5.5 0 0 0 6 5.5 6 5.5 0 0 0 6-5.5 6 5.5 0 0 0-6-5.5zm0 1a5 4.5 0 0 1 5 4.5 5 4.5 0 0 1-5 4.5 5 4.5 0 0 1-5-4.5 5 4.5 0 0 1 5-4.5z" fill="url(#c)" stroke-width=".71807"/><path id="ai" d="m8 0c-4.3944 0-8 3.3444-8 7.5 0 4.1556 3.6056 7.5 8 7.5 4.3944 0 8-3.3444 8-7.5 0-4.1556-3.6056-7.5-8-7.5zm0 1c3.89 0 7 2.9234 7 6.5 0 3.5766-3.11 6.5-7 6.5-3.89 0-7-2.9234-7-6.5 0-3.5766 3.11-6.5 7-6.5z" fill="url(#b)"/><ellipse id="aj" cx="8" cy="7.5" rx="6" ry="5.5" fill="url(#d)"/><path id="ak" d="m8 2a6 5.5 0 0 0-6 5.5 6 5.5 0 0 0 6 5.5 6 5.5 0 0 0 6-5.5 6 5.5 0 0 0-6-5.5zm0 1a5 4.5 0 0 1 5 4.5 5 4.5 0 0 1-5 4.5 5 4.5 0 0 1-5-4.5 5 4.5 0 0 1 5-4.5z" fill="url(#e)" stroke-width=".71807"/><path id="al" d="m7 3v4h-3l1 1-1 1 2 2v0.5l1.4766 1.4766c0.17402 0.014797 0.34867 0.022617 0.52344 0.023438 3.3137 0 6-2.4624 6-5.5-9.4e-4 -0.29842-0.02837-0.59628-0.08203-0.89062l-2.8652-2.8652-2.0527 1.2559z" fill="url(#h)"/><path id="am" d="m7 4-1 0.2168v2.7832h-2l1 1h7v-1h-3.2031l2.2559-2.2559v-1l-0.70703 0.29297-2.9629 2.9629h-0.38281zm-3 5 1 1h1v2.5l1-0.21484v-2.2852h0.6582l2.5937 2.5957c0.10816-0.04139 0.21498-0.08568 0.32031-0.13281l0.48047-0.48047v-1l-1.9805-0.98242h2.9277v-1h-6z" fill="#000" opacity=".08"/><path id="an" d="m8 2a6 5.5 0 0 0-6 5.5 6 5.5 0 0 0 6 5.5 6 5.5 0 0 0 6-5.5 6 5.5 0 0 0-6-5.5zm0 1a5 4.5 0 0 1 5 4.5 5 4.5 0 0 1-5 4.5 5 4.5 0 0 1-5-4.5 5 4.5 0 0 1 5-4.5z" fill="url(#e)" stroke-width=".71807"/><path id="ao" d="m7 3-1 0.2168v2.7832h-2v1h2v1h-2v1h2v2.5l1-0.21484v-2.2852h0.6582l2.6875 2.6895 0.70703-0.70703-1.9805-1.9824h2.9277v-1h-4.0822l-0.77031-0.63672 0.49688-0.36328h4.3557v-1h-3.2031l2.2559-2.2559-0.70703-0.70703-2.9629 2.9629h-0.38281z" fill="url(#f)"/><ellipse id="ap" cx="8" cy="7.5" rx="6" ry="5.5" display="none" fill="url(#g)" stroke-width=".71807"/></svg>
