<?xml version="1.0" encoding="UTF-8"?>
<svg id="ac" width="128" height="128" enable-background="new 0 0 436.193 436.19" overflow="visible" space="preserve" version="1.0" viewBox="0 0 436.19 436.19" xmlns="http://www.w3.org/2000/svg" xmlns:xlink="http://www.w3.org/1999/xlink"><defs id="ad"><linearGradient id="b"><stop id="ae" stop-color="#fff" offset="0"/><stop id="af" stop-color="#fff" offset=".15686"/><stop id="ag" stop-color="#fff" stop-opacity="0" offset="1"/></linearGradient><linearGradient id="a"><stop id="ah" stop-color="#fff" offset="0"/><stop id="ai" stop-color="#ffe7a8" stop-opacity=".26496" offset=".25424"/><stop id="aj" stop-color="#fddd00" stop-opacity="0" offset="1"/></linearGradient><linearGradient id="ab" x1="5.2082" x2="8.9443" y1="39.91" y2="17.409" gradientTransform="matrix(4.9716 0 0 4.9716 -2.4512 59.49)" gradientUnits="userSpaceOnUse"><stop id="ak" stop-color="#232629" offset="0"/><stop id="al" stop-color="#666" stop-opacity="0" offset="1"/></linearGradient><radialGradient id="t" cx="4.6654" cy="40.279" r="19.98" gradientTransform="matrix(4.9716 0 0 6.2597 .78699 25.457)" gradientUnits="userSpaceOnUse" spreadMethod="reflect"><stop id="am" stop-color="#eff0f1" offset="0"/><stop id="an" stop-color="#fcfcff" stop-opacity="0" offset="1"/></radialGradient><radialGradient id="s" cx="43.211" cy="43.536" r="20.266" gradientTransform="matrix(4.4457 -1.2313 .84479 3.255 81.265 223.04)" gradientUnits="userSpaceOnUse"><stop id="ao" stop-color="#fcfcfc" stop-opacity=".62745" offset="0"/><stop id="ap" stop-color="#eff0f1" stop-opacity=".74118" offset="1"/></radialGradient><radialGradient id="r" cx="51.649" cy="21.853" r="25.014" gradientTransform="matrix(2.5761 -.75773 .5785 1.9648 176.97 240.1)" gradientUnits="userSpaceOnUse"><stop id="aq" stop-color="#fcfcfc" stop-opacity=".62745" offset="0"/><stop id="ar" stop-color="#eff0f1" stop-opacity=".74118" offset="1"/></radialGradient><linearGradient id="aa" x1="37.778" x2="39.979" y1="57.345" y2="60.368" gradientTransform="matrix(4.4744 -.49573 .75795 5.0286 -1.7282 59.732)" gradientUnits="userSpaceOnUse" spreadMethod="reflect"><stop id="as" stop-color="#fcfcfc" stop-opacity=".62745" offset="0"/><stop id="at" stop-color="#eff0f1" stop-opacity=".74118" offset="1"/></linearGradient><radialGradient id="q" cx="15.041" cy="25.136" r="20.266" gradientTransform="matrix(2.2883 -.67371 .27426 .93232 118.4 291.72)" gradientUnits="userSpaceOnUse" spreadMethod="reflect"><stop id="au" stop-color="#fff" offset="0"/><stop id="av" stop-color="#fff" stop-opacity="0" offset="1"/></radialGradient><radialGradient id="p" cx="47.122" cy="46.173" r="10.032" gradientTransform="matrix(3.9199 -1.0224 .50099 1.9193 117.84 247.31)" gradientUnits="userSpaceOnUse"><stop id="aw" stop-color="#fdbc4b" offset="0"/><stop id="ax" stop-color="#f67400" offset="1"/></radialGradient><linearGradient id="z" x1="48.135" x2="51.163" y1="53.52" y2="56.711" gradientTransform="matrix(3.1525 -.32557 .57603 3.6818 126.39 98.682)" gradientUnits="userSpaceOnUse" spreadMethod="reflect"><stop id="ay" stop-color="#fcfcfc" stop-opacity=".62745" offset="0"/><stop id="az" stop-color="#4d4d4d" stop-opacity=".74118" offset="1"/></linearGradient><linearGradient id="y" x1="859.36" x2="859.03" y1="-42.964" y2="-32.853" gradientTransform="matrix(.7561 -.22281 .23948 .81269 -372.23 496.41)" gradientUnits="userSpaceOnUse"><stop id="ba" stop-color="#f39c1f" offset="0"/><stop id="bb" stop-color="#f47750" offset="1"/></linearGradient><radialGradient id="bc" cx="-202.38" cy="428.45" r="23.48" gradientTransform="matrix(.73819 -.044983 .1903 1.0453 242.1 -212.14)" gradientUnits="userSpaceOnUse" xlink:href="#b"/><radialGradient id="bd" cx="-202.38" cy="428.45" r="23.48" gradientTransform="matrix(.73819 -.044983 .1903 1.0453 224.65 -157.8)" gradientUnits="userSpaceOnUse" xlink:href="#b"/><radialGradient id="o" cx="58.159" cy="78.212" r="9.0247" gradientUnits="userSpaceOnUse" xlink:href="#a"/><radialGradient id="n" cx="145.4" cy="8.0204" r="9.0247" gradientUnits="userSpaceOnUse" xlink:href="#a"/><radialGradient id="m" cx="89.244" cy="34.092" r="7.0192" gradientUnits="userSpaceOnUse" xlink:href="#a"/><radialGradient id="l" cx="18.049" cy="118.32" r="14.038" gradientUnits="userSpaceOnUse" xlink:href="#a"/><radialGradient id="k" cx="48.132" cy="349.96" r="6.0165" gradientUnits="userSpaceOnUse" xlink:href="#a"/><radialGradient id="j" cx="33.091" cy="304.83" r="11.03" gradientUnits="userSpaceOnUse" xlink:href="#a"/><radialGradient id="i" cx="125.34" cy="391.07" r="7.0192" gradientUnits="userSpaceOnUse" xlink:href="#a"/><radialGradient id="h" cx="46.126" cy="415.13" r="10.027" gradientUnits="userSpaceOnUse" xlink:href="#a"/><radialGradient id="g" cx="93.255" cy="362.99" r="7.0192" gradientUnits="userSpaceOnUse" xlink:href="#a"/><radialGradient id="f" cx="189.52" cy="36.097" r="6.0165" gradientUnits="userSpaceOnUse" xlink:href="#a"/><radialGradient id="e" cx="246.67" cy="35.094" r="9.0247" gradientUnits="userSpaceOnUse" xlink:href="#a"/><radialGradient id="d" cx="370.01" cy="76.207" r="8.0219" gradientUnits="userSpaceOnUse" xlink:href="#a"/><linearGradient id="x" x2="0" y1="545.8" y2="517.8" gradientUnits="userSpaceOnUse"><stop id="be" stop-color="#197cf1" offset="0"/><stop id="bf" stop-color="#20bcfa" offset="1"/></linearGradient><linearGradient id="w" x2="0" y1="30" y2="2" gradientUnits="userSpaceOnUse"><stop id="bg" stop-color="#7cbaf8" offset="0"/><stop id="bh" stop-color="#f4fcff" offset="1"/></linearGradient><linearGradient id="v" x1="23" x2="30" y1="12.506" y2="19.506" gradientUnits="userSpaceOnUse" xlink:href="#c"/><linearGradient id="c"><stop id="bi" stop-color="#292c2f" offset="0"/><stop id="bj" stop-opacity="0" offset="1"/></linearGradient><linearGradient id="u" x1=".043347" x2="22.064" y1="-2.9815" y2="19.039" gradientUnits="userSpaceOnUse" xlink:href="#c"/></defs><g id="bk" transform="matrix(14.61 0 0 13.952 -5634.4 -7201.5)"><rect id="bl" x="386.57" y="517.8" width="28" height="28" rx="14" fill="url(#x)"/><path id="bm" transform="translate(384.57 515.8)" d="m18.594 2.248-2.9746 0.38086-4.1348 2.3867-1.502 2.6016s-1.9739 1.3903-2.2715 1.3105c-2.5168-0.029517-3.8686 0.66466-4.5801 1.5469-0.30087 0.70315-0.53694 1.4396-0.7207 2.1973-0.00508 0.76074 0.16211 1.3516 0.16211 1.3516 7.0605 6.3563 14.121 9.0962 21.182 13.643 0.44458-0.29534 0.86916-0.61602 1.2754-0.95898 0.0233-0.01965 0.04519-0.04075 0.06836-0.06055 0.35986-0.30788 0.70287-0.63592 1.0293-0.97852 0.07229-0.07573 0.14035-0.15508 0.21094-0.23242 0.28268-0.31039 0.55271-0.63161 0.80664-0.9668 0.05739-0.07554 0.11405-0.15178 0.16992-0.22852 0.27549-0.37955 0.53467-0.77239 0.77148-1.1797 0.0177-0.03032 0.03721-0.05938 0.05469-0.08984 1.0649-1.8638 1.7138-3.9989 1.8242-6.2812 3.16e-4 -0.0065 0.0016-0.013 2e-3 -0.01953v-2e-3l-1.8243-7.6367c-1.9997-3.4881-5.4517-6.0206-9.5488-6.7832z" fill="url(#u)" fill-rule="evenodd" opacity=".2"/><path id="bn" transform="translate(384.57 515.8)" d="m29.012 10.842-4.3066 6.6602 4.1191 4.1191c0.75152-1.72 1.1758-3.6179 1.1758-5.6211 0-1.8258-0.35798-3.5617-0.98828-5.1582z" fill="url(#v)" fill-rule="evenodd" opacity=".2"/><path id="bo" transform="translate(384.57 515.8)" d="m15.807 2.0098c-1.0725 0.014539-2.1112 0.15379-3.1113 0.39453-0.26327 0.23613-0.65181 0.35584-1.0879 0.34375-0.15609 0.14931-0.12005 0.42785-0.20508 0.63281-0.0716 0.17219-0.32387 0.35646-0.49609 0.3418-0.1274-0.0108-0.27302-0.18992-0.27344-0.30859-4.59e-4 -0.14327 0.19913-0.22314 0.089844-0.38281-1.1145 0.45173-2.151 1.0473-3.0996 1.7559 0.25441-0.093683 0.53497-0.25118 0.76562-0.25586 0.0379-4.5e-4 0.072752 0.00312 0.10742 0.011719 0.15492 0.0406 0.56321 0.48776 0.22266 0.63281-0.0323 0.014-0.49939 0.064781-0.58008 0.050781-0.11861-0.0199-0.18915-0.18382-0.30859-0.20508-0.20061-0.034752-0.45568 0.17365-0.62891 0.080078-1.9078 1.54-3.3884 3.5749-4.2754 5.9102 0.081388-0.04705 0.16466-0.09644 0.23828-0.13477 0.24992-0.12992 0.46098-0.33992 0.75195-0.35938 0.14514-3e-3 0.35476 0.03906 0.49414 0.06836 0.12865 0.0264 0.23244 0.11271 0.34375 0.12109 0.31592 0.0241 0.39068-0.22172 0.64844-0.35938 0.26628 0.0376 0.44311-0.04458 0.68359-0.01758 0.16396 0.0181 0.28241 0.19332 0.41016 0.20312 0.10747 0.0108 0.20265-0.0999 0.30664-0.08398 0.10102 0.0156 0.2746 0.23592 0.29102 0.35938 0.0207 0.15368-0.11249 0.29215-0.068359 0.46094 0.16098 0.16396 0.45354 0.19656 0.68359 0.29102 0.14979-0.12344 0.0199-0.35257 0-0.53125-3e-3 -0.0787 0.0108-0.14821 0-0.2207-0.014-0.12305-0.067559-0.23648-0.068359-0.3418-3e-3 -0.48642 0.39247-0.71418 0.71875-0.90625 0.14123-0.0837 0.25246-0.22975 0.375-0.29102 0.17306-0.0868 0.30201-0.10698 0.44531-0.1875 0.25893-0.14545 0.48113-0.2629 0.68359-0.42773 0.0936-0.22055 0.010278-0.5164 0.017578-0.73438 0.0937-0.0574 0.17411 0.025778 0.27344 0.017578 0.15626-0.0326 0.16926-0.25375 0.25781-0.3418 0.0515-0.0505 0.19191-0.086639 0.25586-0.13672 0.15574-0.12217 0.20581-0.30672 0.3418-0.35938 0.0487-0.0198 0.16143-0.014456 0.23828-0.035156 0.10123-0.0269 0.24531-0.14662 0.41016-0.20312 0.10748-0.0375 0.35351-0.044738 0.39453-0.085937 0.0505-0.0515-7.2e-5 -0.19625 0.01758-0.27344 0.0829-0.38587 0.66424-0.46773 1.0078-0.59766 0.24081-0.0913 0.48735-0.25832 0.75195-0.20703-0.0518 0.1834-0.29765 0.11911-0.25586 0.3418 0.0577 0.30905 0.47094-0.089246 0.58008-0.13477 0.20856-0.0879 0.56621-0.14096 0.83984-0.24023 0.23994-0.0879 0.66952-0.22165 0.44336-0.49609-0.18859-0.0108-0.27896 0.22072-0.44336 0.29102-0.11352 0.0181-0.09257-0.094386-0.18945-0.10352-0.0921-0.0108-0.14367 0.084459-0.23828 0.068359-0.094-0.0156-0.22551-0.16345-0.24023-0.27344-0.0375-0.28535 0.2412-0.40242 0.35938-0.61523-0.0781-0.25813-0.43462-0.053307-0.65039-0.1543 0.0206-0.15367 0.17986-0.25968 0.35938-0.28906 0.14715-0.0248 0.47682-0.011994 0.56445 0.066406 0.0507 0.0431 0.0037 0.15099 0.08594 0.22266 0.0871 0.0787 0.1936 0.071334 0.30664 0.052734 0.0409-0.19478-0.25264-0.14661-0.2207-0.27539 0.2309-0.15104 0.60597-0.026359 0.88867-0.068359 0.16273-0.0241 0.33432-0.13955 0.47852-0.2207 0.13716-0.0781 0.31544-0.21366 0.46094-0.085937 0.0395 0.13958-0.12738 0.18646-0.20508 0.25586-0.26155 0.23266-0.53108 0.49931-0.73438 0.76953 0.12473 0.12167 0.35146 0.060837 0.5625 0.085937 0.0825 0.0108 0.1862 0.035381 0.27344 0.050781 0.10188 0.0181 0.2112 0.012503 0.29102 0.033203 0.14358 0.0353 0.18206 0.18945 0.32422 0.18945 0.23386-4.2e-4 0.236-0.25409 0.10352-0.41211 0.0418-0.16134 0.10731-0.24441 0.05078-0.35742-0.10532-0.2107-0.49185-0.010809-0.51172-0.27344-0.0127-0.17043 0.1433-0.16351 0.20508-0.29102-0.0281-0.32932 0.27014-0.35326 0.23828-0.64844-0.014-0.12346-0.11865-0.12455-0.20508-0.24023-0.0449-0.0591-0.06513-0.17685-0.11914-0.22266-0.17878-0.15105-0.54245-0.12185-0.56445-0.41016-0.002749-0.097564 0.010688-0.18504 0.019531-0.27734-0.16483-0.0079511-0.32783-0.023136-0.49414-0.025391zm-6.6602 3.3535c0.0798 0.0108 0.17664 0.096196 0.27344 0.10352 0.0913 3e-3 0.16653-0.050156 0.22266-0.035156 0.14295 0.0376 0.20267 0.25358 0.068359 0.35938-0.11176 0.014-0.156-0.048103-0.24023-0.033203-0.23216 0.0395-0.32065 0.49357-0.49414 0.47852-0.16363-0.014-0.25208-0.41257-0.085937-0.53125 0.0108-0.1036-0.075513-0.12026-0.070312-0.22266 0.0494-0.0633 0.18978-0.13065 0.32617-0.11914zm-0.76953 0.052734c0.0476 2e-3 0.083343 0.012503 0.10156 0.033203-0.0227 0.18219-0.16593 0.17093-0.30664 0.25586-0.24301 0.14668-0.38362 0.37025-0.46094 0.68359-0.0224 0.0913-0.26127 0.33276-0.37695 0.30859-0.27105-0.0571 0.074929-0.55687 0.13672-0.63281 0.0683-0.0842 0.15963-0.15867 0.24023-0.25586 0.0781-0.0941 0.12975-0.22121 0.20508-0.27344 0.0825-0.0571 0.31813-0.12462 0.46094-0.11914zm2.0234 0.61523c0.0868 2e-3 0.16361 0.015581 0.19922 0.050781-0.0557 0.22574-0.54092 0.16554-0.71875 0.083984 0.0116-0.0851 0.14394-0.10791 0.25586-0.11914 0.0787-3e-3 0.17699-0.018125 0.26367-0.015624zm-1.1074 0.41602c0.0577-2e-3 0.11702 0.011244 0.17773 0.027344-0.15732 0.13158-0.32751 0.20554-0.59766 0.29102-0.1299 0.0411-0.35494 0.092366-0.37695-0.052734-0.0269-0.1778 0.18997-0.13643 0.30859-0.15234 0.14932-0.0206 0.31334-0.10768 0.48828-0.11328zm17.17 0.25391c0.01289 0.12844 0.01508 0.25039-0.01953 0.38867-0.0465 0.18518-0.21323 0.35312-0.20508 0.51367 0.0108 0.0825 0.10091 0.16186 0.12109 0.27344 0.0108 0.0592-0.0277 0.18629 0 0.24023 0.0868 0.16832 0.32395 0.025681 0.47852 0.050781 0.15101 0.0243 0.32591 0.24093 0.32422 0.41016-2e-3 0.11785-0.11284 0.31418-0.1875 0.42773-0.14901 0.22659-0.35079 0.23656-0.56445 0.35742-0.17819 0.10101-0.25492 0.26959-0.35938 0.44531-0.11318 0.18978-0.18334 0.30512-0.13672 0.58008-0.15275 0.30298-0.38475 0.48868-0.70117 0.63281-0.0936 0.0423-0.22077 0.05695-0.30664 0.11914-0.0683 0.0492-0.10793 0.18185-0.20508 0.29102-0.11988 0.13341-0.24556 0.18908-0.30859 0.29102-0.0487 0.0787-0.06528 0.23608-0.11914 0.3418-0.073 0.14355-0.2284 0.2139-0.32422 0.35938-0.0437 0.0673-0.07281 0.20296-0.12109 0.29102-0.10827 0.19679-0.29332 0.33866-0.27344 0.51172 0.0198 0.16729 0.20971 0.19598 0.22266 0.3418 3e-3 0.0824-0.05418 0.13283-0.05078 0.22266 3e-3 0.13116 0.09124 0.22328 0.10156 0.32422 0.0255 0.2538-0.08705 0.35578-0.13477 0.5293-0.0227 0.0829-0.01316 0.17546-0.03516 0.24024-0.0418 0.12702-0.21916 0.24237-0.22266 0.39258-2e-3 0.10672 0.11013 0.19199 0.11914 0.3418 3e-3 0.10328-0.0514 0.21364-0.0332 0.30859 0.0363 0.18601 0.3691 0.40234 0.51367 0.54688 0.19338 0.19337 0.44598 0.34314 0.5293 0.54688 0.0703 0.17305 0.07031 0.39892 0.20508 0.5293 0.0997 0.0963 0.26485 0.1557 0.39258 0.25586 0.11912 0.0935 0.24961 0.17424 0.37695 0.27344 0.20807 0.16275 0.52204 0.48789 0.85352 0.46289 0.17306-0.0127 0.35054-0.15457 0.54688-0.18945 0.202-0.0361 0.4642-0.0542 0.66797-0.0332 0.15609 0.0156 0.31626 0.10901 0.47852 0.10156 0.17132-0.0108 0.36782-0.13763 0.5625-0.22266 0.30763-0.13389 0.75501-0.30024 1.2051-0.27539 0.08614-0.63034 0.14648-1.2691 0.14648-1.9238 0-2.6491-0.74147-5.1129-2.0098-7.2207-0.05885-0.00447-0.11306-0.012094-0.17773-0.00977-0.17344 0.0108-0.45836 0.010752-0.46094-0.20508-0.0017-0.17731 0.16725-0.21647 0.36914-0.22852-0.37762-0.57782-0.80115-1.1209-1.2578-1.6348zm-21.369 6.4141c-0.28395 0.0156-0.46943 0.02864-0.63086 0.10156-0.36987 0.16833-0.29844 0.66886-0.66797 0.78711-0.12781 0.0409-0.30265 0.04236-0.44336 0.06836-0.12141 0.0221-0.26939 0.08854-0.39453 0.08594-0.14806-3e-3 -0.40609-0.14564-0.49414-0.24023-0.060616-0.06563-0.15981-0.29493-0.22461-0.44727-0.089239 0.4921-0.15079 0.99303-0.1875 1.502 0.030309 0.0059 0.062346 0.01367 0.087891 0.01367 0.16186 9.7e-4 0.335-0.16698 0.51367-0.17188 0.41908-0.0116 0.60103 0.53328 0.93945 0.70117 0.0851 0.0423 0.19705 0.04406 0.30664 0.06836 0.0885 0.0198 0.155 0.05704 0.24023 0.08594 0.18077 0.0613 0.40226 0.05467 0.54688 0.11914 0.21791 0.0967 0.37707 0.50562 0.56445 0.61524 0.0108 0.11048-0.020422 0.25943 0.017578 0.3418 0.0885 0.12003 0.21354 0.09361 0.35938 0.17188 0.17446 0.0941 0.22723 0.3359 0.39258 0.41016 0.057 0.0254 0.20085 0.02308 0.29102 0.05078 0.22657 0.0686 0.29994 0.33076 0.49414 0.27344 0.12738-0.0375 0.11803-0.16926 0.13867-0.29102 0.0842-0.0913 0.1754-0.2357 0.30664-0.23828 0.21237-0.0108 0.23131 0.21951 0.30859 0.42578 0.0436 0.11656 0.15772 0.21882 0.1875 0.3418 0.0529 0.21238 0.027222 0.84762-0.017578 0.97461-0.0535 0.15573-0.26452 0.22185-0.39453 0.39453-0.0613 0.0809-0.090459 0.19895-0.13672 0.25586-0.0837 0.10188-0.20887 0.12862-0.27148 0.22266-0.0354 0.0529-0.069136 0.16668-0.10352 0.23828-0.10263 0.2175-0.24064 0.37169-0.1543 0.63281 0.0361 0.10748 0.20466 0.18016 0.20508 0.30664 4.4e-4 0.14885-0.31726 0.28215-0.3418 0.44531-0.0181 0.12141 0.098239 0.3381 0.13672 0.49609 0.0283 0.11938 0.25386 0.194 0.32422 0.27344 0.12001 0.13468 0.21654 0.32495 0.32617 0.49414 0.21672 0.33278 0.38665 0.73814 0.59766 1.0605 0.11152 0.16886 0.2675 0.32081 0.3418 0.49609 0.038 0.0885 0.033359 0.19396 0.068359 0.27344 0.12216 0.27573 0.66107 0.56432 0.93945 0.70117 0.13034 0.0634 0.27497 0.08609 0.39453 0.15234 0.18117 0.10101 0.53939 0.3724 0.63086 0.53125 0.0815 0.14278 0.13226 0.48973 0.17188 0.7168 0.0529 0.30003 0.0025 0.53052 0.01758 0.85547 0.0108 0.17575 0.06646 0.35316 0.06836 0.5293 9.3e-4 0.0617-0.03246 0.10697-0.03516 0.16992-3e-3 0.21323 0.05336 0.45343 0.03516 0.66797-0.0012 0.04602-0.0063 0.0806-0.01367 0.12109 1.6776 0.70807 3.5237 1.0996 5.4648 1.0996 0.20315 0 0.40057-0.02277 0.60156-0.03125 0.0045-0.03192 0.0092-0.06395 0.01563-0.08984 0.0619-0.17342 0.22148-0.23118 0.32422-0.35938 0.078-0.0967 0.11364-0.20998 0.1875-0.30664 0.0803-0.10532 0.15216-0.19827 0.20508-0.29102 0.0505-0.31208-0.12435-0.52953-0.05078-0.80273 0.0817-0.30688 0.50534-0.49435 0.80274-0.63281 0.1023-0.0475 0.2077-0.12538 0.29102-0.1543 0.20581-0.0717 0.4622-0.03294 0.65039-0.10156 0.32025-0.11721 0.35378-0.46017 0.51172-0.75195 0.0745-0.13818 0.1729-0.27658 0.1875-0.375 0.0127-0.0885-0.03188-0.17108-0.01758-0.27539 0.0156-0.10328 0.10808-0.1932 0.13672-0.30664 0.0375-0.14807 0.05273-0.36437 0.05273-0.5293 0-0.13537-0.06266-0.25484-0.06836-0.37695-0.0221-0.44337 0.16017-0.49308 0.32422-0.73438 0.0823-0.11988 0.11246-0.2559 0.16992-0.3418 0.27538-0.41087 0.75331-0.60938 0.71875-1.2305-0.0116-0.20553-0.13984-0.67072-0.29102-0.73633-0.0865-0.0376-0.28502-0.0031-0.41016-0.05078-0.40401-0.15071-0.64193-0.6516-1.0605-0.68359-0.0894-0.0108-0.17087 0.03676-0.27148 0.03516-0.16571-0.0108-0.41616-0.11608-0.59961-0.13672-0.11656-0.0127-0.27182 0.0346-0.3418 0-0.10673-0.0519-0.11826-0.24799-0.20508-0.30664-0.0689-0.0473-0.20223-0.06314-0.30664-0.10352-0.16833-0.0648-0.30186-0.14076-0.49609-0.1543-0.0599-3e-3 -0.13529 0.02858-0.20508 0.01758-0.10748-0.0181-0.19186-0.14471-0.29102-0.20508-0.12421-0.0756-0.23966-0.11285-0.29102-0.2207 0.11224-0.36816-0.19797-0.47089-0.27344-0.68361-0.0361-0.0997-0.01918-0.21968-0.05078-0.30859-0.0445-0.12739-0.17054-0.20039-0.30859-0.30664-0.24736-0.19038-0.46682-0.3685-0.82031-0.41211-0.1554-0.0198-0.30835 0.04666-0.49609 0.03516-0.19897-0.0127-0.44882-0.18732-0.59766-0.35742-0.14468-0.16606-0.21576-0.31513-0.3418-0.39453-0.11939-0.0767-0.27784-0.07472-0.35938-0.15234-0.0363-0.0339-0.02956-0.09201-0.06836-0.17188-0.06-0.12434-0.16071-0.19283-0.08594-0.3418-0.13621-0.07-0.14001 0.12936-0.28906 0.10352-0.13285-0.18858-0.24516-0.27796-0.54688-0.22266-0.13817 0.0255-0.21595 0.20074-0.37695 0.20508-0.13202 0.0108-0.23579-0.1471-0.41016-0.17188-0.1316-0.0181-0.28132 0.03548-0.375 0.01758-0.1459-0.0291-0.19095-0.15064-0.32422-0.23828-0.0977-0.0642-0.28699-0.17362-0.3418-0.17188-0.17182 0.0108-0.29431 0.3658-0.53125 0.24024-0.11515-0.14591 0.18744-0.22286 0.050781-0.35938-0.1036-0.1036-0.1906 0.04635-0.27344 0.10352-0.0949 0.0655-0.18417 0.13111-0.28906 0.16992-0.2348 0.0879-0.38095 0.04176-0.56445 0.13672-0.16991 0.088-0.17717 0.23531-0.27344 0.41016-0.0787 0.14325-0.25868 0.35074-0.37695 0.35938-0.14325 0.0108-0.28022-0.19967-0.41016-0.25586-0.39145-0.16956-0.5812 0.14995-0.90625 0.1543-0.30168 0.0108-0.73195-0.48591-0.7168-0.76953 3e-3 -0.17306 0.098861-0.4363 0.11914-0.65039 0.0181-0.17026 0.13476-0.27232 0.13672-0.42774 3e-3 -0.20762-0.27547-0.36796-0.41016-0.39258-0.31936-0.0587-0.7629 0.1289-1.1289-0.01758-0.07-0.11584 0.081924-0.19591 0.12109-0.30859 0.0221-0.064 0.010303-0.15025 0.033203-0.2207 0.0406-0.10886 0.15404-0.19325 0.20508-0.30859 0.0382-0.088 0.047537-0.21501 0.085937-0.32422 0.0445-0.12434 0.1271-0.20381 0.13672-0.29102 0.0127-0.11514-0.030914-0.24829-0.12109-0.32422zm4.5703 3.6191c0.11585 0.0108 0.13019 0.25028 0.011719 0.26953-0.12781 0.0199-0.19223-0.20046-0.068359-0.25781 0.0207-0.0108 0.040041-0.01282 0.056641-0.01172z" fill="url(#w)"/></g><g id="bp"><path id="bq" d="m33.091 127.53c-44.293 60.902-39.501 138.72 0.51326 187.85 19.722 24.217 44.896 34.169 68.606 34.902 23.71 0.73297 46.049-5.741 66.724-10.607l-8.041-33.875c-21.569 5.0768-41.293 10.252-57.485 9.7519-16.192-0.50056-28.794-4.6955-42.943-22.07-29.374-36.071-34.568-96.951 0.68434-145.42z" fill="url(#ab)" fill-rule="evenodd"/><path id="br" d="m29.328 149.43c-35.842 59.827-26.39 129.68 12.318 166.98 19.21 18.509 39.102 24.001 58.854 23.268 19.752-0.73371 39.359-7.2365 60.222-12.147l-2.2241-9.7519c-21.381 5.0325-40.579 11.316-58.34 11.976-17.762 0.65978-33.963-3.6361-51.497-20.53-34.797-33.528-44.463-98.436-10.778-154.66z" fill="url(#t)" fill-rule="evenodd" opacity=".7"/><g id="bs" fill-rule="evenodd"><path id="bt" d="m283.91 268.43 39.064-11.837 1.2216 2.6568s5.3183-0.0724-1.8673 2.042c-7.1856 2.1143 1.6518 18.029 1.6518 18.029l11.567-3.4036s5.5573 13.794 3.9981 17.338c-1.5592 3.5446-32.12 9.451-32.12 9.451l-5.0157-17.039 3.3773-0.99374s1.5592-3.5446-0.11266-9.2242-1.1969-8.9051-9.6934-6.4051c-8.4965 2.5-10.718 3.1538-10.718 3.1538z" fill="url(#p)"/><path id="bu" d="m325.24 252.72-1.4546 0.36757-39.691 11.198-2.5054 0.63911 0.85769 2.9543 0.40308 5.0307 0.84514 2.8741 2.4013-0.70986s2.22-0.67151 10.716-3.1716c2.0107-0.59164 3.4095-0.7843 4.185-0.75822 0.77549 0.0261 0.76227 0.1343 0.76604 0.13824 4e-3 4e-3 0.22275 0.30828 0.48585 1.1724 0.26309 0.86414 0.54131 2.1502 0.99771 3.7006 0.69554 2.3628 0.70341 4.19 0.56609 5.4024-0.0546 0.48146-0.0748 0.38885-0.13272 0.63859l-2.1121 0.62565-2.4242 0.71223 0.84095 2.8474 5.0145 17.033 0.78459 2.6358 2.2829-0.42595s7.6841-1.4941 15.585-3.4298c3.9502-0.96786 7.9469-2.0442 11.141-3.1339 1.5971-0.54483 2.9983-1.0703 4.1385-1.65 1.1402-0.57971 2.0982-0.78313 2.914-2.6374 0.90601-2.0596 0.5874-3.9849 0.24307-6.0294-0.34429-2.0445-0.93126-4.1907-1.5554-6.224-1.2482-4.0666-2.6824-7.6291-2.6824-7.6291l-0.98842-2.4518-2.1579 0.63039-9.6324 2.8151c-0.7022-1.4555-1.5492-3.3779-2.2146-5.5311-0.5822-1.884-0.86603-3.7199-0.76327-4.73 0.10273-1.0101 0.081-1.1774 1.0728-1.4692 1.8564-0.54622 3.0966-0.99262 4.0117-1.4196 0.91519-0.42693 1.5638-0.5064 2.2818-1.9201 0.35899-0.70686 0.4557-2.2598-0.0399-3.229-0.49564-0.96917-1.0342-1.2664-1.3686-1.4616l-1.6979-2.0796zm-6.7438 7.8962c-0.82012 1.1001-1.3406 2.4524-1.4769 3.7931-0.26122 2.5685 0.31949 5.0858 1.0484 7.4446 1.4579 4.7178 3.7886 8.9004 3.7886 8.9004l1.1005 1.9784 1.8686-0.54618 9.2974-2.7261c0.48887 1.2871 0.86011 2.159 1.5978 4.5624 0.57033 1.8582 1.0853 3.7834 1.3444 5.3221 0.22427 1.3316 0.0959 2.0116 0.13896 2.0776-0.15338 0.14669-0.36166 0.3592-0.70725 0.53491-0.82951 0.42174-2.077 0.9475-3.5642 1.4548-2.9744 1.0147-6.9026 2.064-10.787 3.0159-6.6316 1.6248-11.348 2.527-13.112 2.8756l-3.3764-11.47 0.97801-0.29118 1.0009-0.29355 0.46334-1.0531s0.57865-1.3635 0.80292-3.3432c0.22429-1.9797 0.1751-4.7783-0.80125-8.095-0.37955-1.2894-0.67664-2.5429-1.0602-3.8028s-0.89829-2.664-2.0468-3.8639-2.7345-1.7838-4.3119-1.8369c-0.086-3e-3 -0.18775 0.029-0.27472 0.0284z" fill="url(#z)" opacity=".7"/><path id="bv" d="m324.85 254.51-103.11 31.129 2.1456 6.4359 103.43-32.432z" fill="url(#y)"/></g><g id="bw" transform="translate(-285.23 11.647)" fill-rule="evenodd"><path id="bx" d="m440.07 285.53c5.1558 4.939 14.767-0.13769 14.767-0.13769l44.29-13.033s3.4069-1.0025 5.6866 6.7422c2.2797 7.7448 6.8391 23.234 6.8391 23.234s2.6226 2.9364-4.1912 4.9415c-1.7035 0.50126-9.6329-14.496-17.447-12.197-7.0052 2.0614-9.3101 20.57-14.769 22.176-10.918 3.2126-16.344 4.8094-18.822 5.5385-4.9555 1.4582-2.6758 9.203-2.6758 9.203z" fill="#4d4d4d"/><path id="by" d="m436.64 286.56 13.675 46.453 6.8638-2.0228s-0.36625-1.4136-0.33682-2.673c0.0147-0.62966 0.14607-1.0694 0.24077-1.2519 0.0947-0.18251 0.0238-0.21671 0.47586-0.34974 2.4778-0.72911 7.9039-2.3254 18.821-5.5381 2.878-0.84687 4.3506-3.1801 5.6151-5.4858 1.2645-2.3056 2.288-4.9156 3.3408-7.4243s2.1333-4.9344 3.1964-6.6286 2.065-2.5 2.6371-2.6683c0.92606-0.27251 1.8237-0.0677 3.1435 0.69129 1.3198 0.75902 2.8444 2.1054 4.2827 3.6466s2.779 3.2147 3.9654 4.61c0.59319 0.69763 1.1317 1.3349 1.8139 1.9524 0.34111 0.30875 0.72269 0.60643 1.3294 0.92941 0.60668 0.32297 1.6141 0.76231 2.899 0.38423 3.9112-1.1509 6.434-2.8349 7.0602-5.98 0.36125-1.8144-0.16381-3.2157-0.70347-4.2288-0.13823-0.46967-4.4733-15.245-6.7175-22.869-1.3313-4.5228-3.297-7.346-5.5137-8.7452-1.1083-0.69956-2.1928-0.97418-3.0305-1.038-0.83773-0.0638-1.7276 0.15428-1.7276 0.15428l-44.29 13.001-0.28143 0.10543-0.30841 0.14555s-2.0513 1.0772-4.6114 1.6247c-2.56 0.54755-5.0368 0.28014-6.1664-0.8019zm63.029-10.102c0.21735 0.17278 0.87875 0.84892 1.7097 3.6718 2.2092 7.5052 6.3629 21.6 6.6299 22.507-0.0442 0.0254-0.163 0.0696-0.21644 0.0982-0.0571-0.0658-0.0597-0.0649-0.11944-0.13527-1.0237-1.2039-2.5085-3.0554-4.2424-4.9134s-3.7425-3.7558-6.1605-5.1464c-2.418-1.3906-5.4185-2.2485-8.3995-1.3713-2.9305 0.86234-4.8526 3.1625-6.3624 5.5685-1.5098 2.4061-2.6812 5.1168-3.7626 7.6938-1.0814 2.5769-2.063 5.0356-2.9849 6.7166-0.92189 1.681-1.8279 2.2718-1.6794 2.228-10.918 3.2126-16.344 4.809-18.821 5.5381-0.5287 0.15557-0.93833 0.48546-1.4066 0.74987l-8.252-28.008c1.6806 0.0625 3.3109-0.075 4.701-0.37232 2.9694-0.63511 4.9908-1.6202 5.6831-1.9662l0.12446-0.0509z" fill="#31363b"/></g><path id="bz" d="m207.32 304.37c-2.721 0.16688-4.801 2.0232-6.5011 4.2102-1.7001 2.187-3.098 4.8807-4.2506 7.5251-2.0897 4.7946-3.2473 9.0162-3.4704 9.8519l-2.4201 2.7928-0.90217 1.0281 0.41512 1.4391 6.7553 22.902 0.6992 2.4472 2.149-0.64648 32.49-9.5399 2.149-0.64648-0.6992-2.4472-7.3782-25.06-0.14197-0.50406-0.32599-0.40941s-2.4362-3.2592-5.8658-6.4785c-3.4296-3.2193-7.8795-6.7595-12.702-6.4637zm0.56462 5.061c2.4503-0.15028 6.2824 2.3006 9.3349 5.166 2.9121 2.7336 4.8378 5.2803 5.0293 5.5316l6.4554 22.007-28.192 8.2469-5.6086-19.019 1.8908-2.1401 0.36737-0.41197 0.15039-0.53644s1.2427-4.8772 3.3569-9.7279c1.0571-2.4254 2.3526-4.834 3.6733-6.5329 1.3208-1.699 2.6266-2.5268 3.5419-2.5829z" fill="url(#aa)" fill-rule="evenodd"/><path id="ca" d="m159.84 285.28 143.84-42.349c3.7178-1.0946 7.4275 0.46033 8.3177 3.4864l8.3242 28.299 18.651-1.991 5.6471 19.219c0.89014 3.0261-1.3863 6.3435-5.1042 7.4381l-101.01 32.527-3.6174 12.603-53.291 14.731c-3.7178 1.0946-7.4275-0.46034-8.3177-3.4864l-18.544-63.04c-0.89014-3.0261 1.3863-6.3434 5.1042-7.438z" fill="url(#s)"/><path id="cb" d="m303.11 240.95-143.87 42.349c-5.442 1.6022-8.464 6.2917-7.3018 10.242l18.561 63.038c1.1621 3.9507 6.2397 6.2315 11.682 4.6292l56.232-16.568 2.3848-11.809 99.298-31.469c5.442-1.6022 8.4639-6.2917 7.3018-10.242l-5.6352-19.222c-0.26238-0.90148-1.3504-1.4379-2.6476-1.3054l-16.44 1.761-7.8843-26.775c-1.1622-3.9507-6.2397-6.2315-11.682-4.6292zm1.1536 3.9602c1.9937-0.58698 4.3228 0.23549 4.941 2.3369l8.3242 28.29c0.26238 0.90148 1.3504 1.4379 2.6476 1.3054l16.44-1.761 5.1932 17.678c0.61813 2.1014-0.87247 4.0577-2.8662 4.6447l-41.819 13.585-9.2204-33.139-9.8176 1.2054 10.319 34.766-19.838 6.4443-9.9662-35.46-7.4406 3.6433 9.0774 34.549-22.75 7.398-1.9184 10.049-54.541 16.805c-1.9937 0.58698-4.3207-0.20524-4.9389-2.3066l-18.561-63.038c-0.61816-2.1014 0.91389-4.0651 2.9076-4.6521z" fill="#eff0f1"/><path id="cc" d="m332.36 283 1.1136-0.32754s4.5624 0.5912 1.8154-8.7386c-0.68675-2.3324 0.39529-1.9311 1.3823-2.4527 3.2023-1.6923 8.2474-2.1381 6.6128-7.69-3.2696-11.104-14.036-41.476-14.036-41.476s-3.2938-3.068-9.5214-1.2363c-6.2276 1.8316-33.489 9.8505-33.489 9.8505l-91.649 18.781-3.2794-7.24-51.927-5.2377s-2.576 0.75791-1.4645 4.5331c1.1117 3.7753 7.3753 6.0352 7.3753 6.0352l50.463 9.7708 94.454-13.152 17.379-4.1376s5.4973 0.41518 7.7204 7.9659c2.2234 7.5506 9.6639 32.823 9.6639 32.823z" fill="url(#r)" fill-rule="evenodd"/><path id="cd" d="m306.35 239.52-143.71 42.405c-6.4475 1.8988-10.011 7.4639-8.6587 12.062l19.099 64.529c0.11745 1.3174 1.2563 2.3239 2.9138 2.5755 1.6575 0.25154 3.5287-0.29827 4.7877-1.4068 1.259-1.1085 1.674-2.5716 1.062-3.7436l-18.902-64.564c-0.47058-1.5997 0.57374-2.8047 1.5618-3.0956l143.91-42.293c0.98811-0.29093 2.4421 0.11783 2.9127 1.7176 0.11746 1.3174 1.2563 2.324 2.9138 2.5755 1.6575 0.25151 3.5287-0.29829 4.7876-1.4072 1.259-1.1085 1.674-2.5716 1.062-3.7436-1.3525-4.5982-7.2988-7.5103-13.746-5.612z" fill="url(#q)" opacity=".7"/><path id="ce" d="m138.62 234.79s-0.9548 0.40036-1.7642 1.4602c-0.80942 1.0599-1.3777 3.2716-0.58783 5.9541 0.51192 1.7387 1.4371 2.9669 2.3842 3.913 0.94708 0.94611 1.9926 1.7831 2.9369 2.3574 1.8887 1.1487 3.6419 1.6381 3.6419 1.6381l0.14855 0.16005 50.501 9.7737 0.2362-0.014 94.384-13.134 0.2362-0.0145 0.11811-7e-3 17.019-4.2499 0.0305 0.16724s1.027 0.0613 2.3086 0.87389c1.2816 0.8126 2.5372 2.021 3.4241 5.0332 2.2234 7.5506 9.6897 32.89 9.6897 32.89l0.51022 1.4908 1.1543 0.43694 7.3945 1.9167 0.70864-0.0432 1.1202-0.40645-0.0305-0.16725c0.46432 0.026 1.506 0.35015 2.5642-1.0017 1.2368-1.58 1.5605-4.9855 0.24189-9.8222 0.20668-0.0721 0.17766-1e-3 0.56008-0.20323 1.4103-0.74529 3.5292-1.3024 5.2733-2.5196 0.87205-0.60859 1.7521-1.4593 2.2293-2.8414 0.47721-1.3821 0.46915-3.1798-0.0867-5.0675-3.3726-11.456-14.168-41.748-14.168-41.748l-0.23988-0.66175-0.56376-0.47293s-1.211-1.213-3.0818-1.8413c-1.8707-0.62835-4.5213-0.84028-7.8559 0.14053-6.1865 1.8194-32.967 9.7041-33.323 9.8087-2e-3 6.7e-4 -0.23623 0.0143-0.23623 0.0143l-90.16 18.626-2.601-5.7598-0.59789-1.3163-1.0934-0.10247-51.953-5.2888-0.2362 0.0144zm1.3554 4.8211 0.1181-7e-3 50.388 5.2151 2.6314 5.927 0.74644 1.4764 1.181-0.072 91.695-18.72 0.11811-7e-3 0.0877-0.17442s27.213-7.9844 33.441-9.8161c2.8929-0.85128 4.9874-0.49471 6.3205-0.047 0.94233 0.31649 1.1075 0.44575 1.3028 0.59697 0.49298 1.3937 10.568 29.762 13.658 40.258 0.2615 0.88817 0.26498 1.1965 0.15591 1.5123-0.10908 0.31588-0.53129 0.6742-1.1165 1.0826-1.1704 0.81679-3.1574 1.3838-4.9494 2.3307-0.22214 0.11737-0.70423 0.0809-1.5317 0.7697-0.41373 0.34441-0.90364 1.0271-0.96425 1.9188-0.0606 0.8917 0.10169 1.7112 0.3386 2.5158 1.2252 4.1606 0.8393 5.1555 0.53231 5.5476-0.30698 0.39216-0.88396 0.39206-0.88396 0.39206l-0.26665-0.15284-0.20576 0.18163-0.67818 0.21045-6.0344-1.6614c-0.69014-2.344-7.009-23.9-9.1185-31.065-1.3366-4.5384-3.8426-7.3219-5.8655-8.6046-2.0229-1.2827-3.6991-1.2964-3.6991-1.2964l-0.26666-0.15284-0.20577 0.18163-17.05 4.0827-0.23623 0.0143-94.03 13.113-0.1181 7e-3 -50.265-9.7881c-0.14482-0.054-1.3165-0.47957-2.7542-1.354-0.76055-0.46255-1.536-1.025-2.076-1.5644-0.54001-0.53946-0.75979-0.9857-0.80365-1.1347-0.32176-1.0928-0.20809-1.0895-7e-3 -1.3523 0.16612-0.21751 0.33696-0.32794 0.41153-0.36326z" fill="#eee" fill-rule="evenodd"/></g><g id="cf" transform="matrix(.28377 0 0 .28377 .22284 -4.4438)" fill-rule="nonzero"><path id="cg" transform="matrix(1.1003 0 0 1.1003 -42.845 -51.669)" d="m67.184 84.229-8.8875-5.3303-6.1537 8.3385 5.3303-8.8875-8.3385-6.1537 8.8875 5.3303 6.1537-8.3385-5.3303 8.8875z" fill="url(#o)"/><path id="ch" transform="matrix(1.1003 0 0 1.1003 -21.883 -21.88)" d="m154.42 6.015-8.5215 2.3257 1.5023 8.7045-2.3257-8.5215-8.7045 1.5023 8.5215-2.3257-1.5023-8.7045 2.3257 8.5215z" fill="url(#n)"/><path id="ci" transform="matrix(1.1003 0 0 1.1003 -21.883 -21.88)" d="m96.263 39.105-6.9277-4.4648-5.1052 6.4703 4.4648-6.9277-6.4703-5.1052 6.9277 4.4648 5.1052-6.4703-4.4648 6.9277z" fill="url(#m)"/><path id="cj" transform="matrix(1.1003 0 0 1.1003 -21.883 -21.88)" d="m32.088 125.34-13.718-6.0586-7.3394 13.078 6.0586-13.718-13.078-7.3394 13.718 6.0586 7.3394-13.078-6.0586 13.718z" fill="url(#l)"/><path id="ck" transform="matrix(1.1003 0 0 1.1003 -21.883 -21.88)" d="m54.148 353.97-5.925-3.5535-4.1025 5.559 3.5535-5.925-5.559-4.1024 5.925 3.5535 4.1025-5.559-3.5535 5.925z" fill="url(#k)"/><path id="cl" transform="matrix(1.1003 0 0 1.1003 -21.883 -21.88)" d="m41.112 315.86-8.1592-10.161-10.893 7.1528 10.161-8.1592-7.1528-10.893 8.1592 10.161 10.893-7.1528-10.161 8.1592z" fill="url(#j)"/><path id="cm" transform="matrix(1.1003 0 0 1.1003 -21.883 -21.88)" d="m132.36 394.08-6.8362-2.5508-3.1912 6.5618 2.5508-6.8362-6.5618-3.1912 6.8362 2.5508 3.1912-6.5618-2.5508 6.8362z" fill="url(#i)"/><path id="cn" transform="matrix(1.1003 0 0 1.1003 -21.883 -21.88)" d="m54.148 425.16-8.1134-9.204-9.9359 7.1986 9.204-8.1134-7.1986-9.9359 8.1134 9.204 9.9359-7.1986-9.204 8.1134z" fill="url(#h)"/><path id="co" transform="matrix(1.1003 0 0 1.1003 -21.883 -21.88)" d="m96.263 370.01-3.1912-6.5618-6.8362 2.5508 6.5618-3.1912-2.5508-6.8362 3.1912 6.5618 6.8362-2.5508-6.5618 3.1912z" fill="url(#g)"/><path id="cp" transform="matrix(1.1003 0 0 1.1003 -21.883 -21.88)" d="m195.53 40.108-5.925-3.5535-4.1025 5.559 3.5535-5.925-5.559-4.1025 5.925 3.5535 4.1025-5.559-3.5535 5.925z" fill="url(#f)"/><path id="cq" transform="matrix(1.1003 0 0 1.1003 -21.883 -21.88)" d="m255.7 33.089-8.5215 2.3257 1.5023 8.7045-2.3257-8.5215-8.7045 1.5023 8.5215-2.3257-1.5023-8.7045 2.3257 8.5215z" fill="url(#e)"/><path id="cr" transform="matrix(1.1003 0 0 1.1003 -21.883 -21.88)" d="m376.03 84.229-6.1079-7.3815-7.9305 5.376 7.3815-6.1079-5.376-7.9305 6.1079 7.3815 7.9304-5.376-7.3815 6.1079z" fill="url(#d)"/></g><rect id="cs" x="1013.6" y="413.53" width=".90885" height="0" fill="#fff" fill-rule="nonzero" opacity=".57787"/><path id="ct" d="m869.16 346.98v-2.54z" fill="#fff" fill-opacity=".75688" fill-rule="nonzero"/><path id="cu" d="m811.28 382.96v-2.54z" fill="#fff" fill-opacity=".75688" fill-rule="nonzero"/><path id="cv" d="m1025 401.44v-2.54z" fill="#fff" fill-opacity=".75688" fill-rule="nonzero"/><path id="cw" d="m916.41 322.71v-2.54z" fill="#fff" fill-opacity=".75688" fill-rule="nonzero"/><path id="cx" d="m1140.5 382.47v-2.54z" fill="#fff" fill-opacity=".75688" fill-rule="nonzero"/><path id="cy" d="m1056.3 449.63v-1.3876z" fill="#fff" fill-opacity=".75688" fill-rule="nonzero"/><rect id="cz" x="1004.1" y="398.19" width=".90885" height="0" fill="#fff" fill-rule="nonzero" opacity=".57787"/><rect id="da" x="972.17" y="373.17" width=".90885" height="0" fill="#fff" fill-rule="nonzero" opacity=".57787"/><path id="db" d="m827.72 306.63v-2.54z" fill="#fff" fill-opacity=".75688" fill-rule="nonzero"/><path id="dc" d="m835.63 282.49v-2.54z" fill="#fff" fill-opacity=".75688" fill-rule="nonzero"/><path id="dd" d="m750.33 357.06v-2.54z" fill="#fff" fill-opacity=".75688" fill-rule="nonzero"/><path id="de" d="m780.26 405.14v-1.485z" fill="#fff" fill-opacity=".75688" fill-rule="nonzero"/><path id="df" d="m878.47 357.65v-2.54z" fill="#fff" fill-opacity=".75688" fill-rule="nonzero"/><path id="dg" d="m575 485.86v-0.28146z" fill="#fff" fill-opacity=".75688" fill-rule="nonzero"/><path id="dh" d="m476.61 531.58v-0.96237z" fill="#fff" fill-opacity=".75688" fill-rule="nonzero"/><path id="di" d="m683.26 423.42v-2.54z" fill="#fff" fill-opacity=".75688" fill-rule="nonzero"/><path id="dj" d="m683.42 422.6v-2.54z" fill="#fff" fill-opacity=".75688" fill-rule="nonzero"/><path id="dk" d="m664.09 489.86v-0.95718z" fill="#fff" fill-opacity=".75688" fill-rule="nonzero"/><path id="dl" d="m560.29 439.41v-2.54z" fill="#fff" fill-opacity=".75688" fill-rule="nonzero"/></svg>
