<?xml version="1.0" encoding="UTF-8"?>
<svg version="1.1" viewBox="0 0 48 48" xmlns="http://www.w3.org/2000/svg"><defs><linearGradient id="c" x1="370.22" x2="370.03" y1="509.64" y2="479.76" gradientTransform="matrix(1.4 0 0 1.4 -494.1 -384.37)" gradientUnits="userSpaceOnUse"><stop stop-color="#197cf1" offset="0"/><stop stop-color="#21c9fb" offset="1"/></linearGradient><linearGradient id="b" x2="0" y1="532.79" y2="514.8" gradientTransform="matrix(1.7778 0 0 1.7778 -703.31 -908.76)" gradientUnits="userSpaceOnUse"><stop stop-color="#7cbaf8" offset="0"/><stop stop-color="#f4fcff" offset="1"/></linearGradient><linearGradient id="a" x1="25.793" x2="41.606" y1="26.896" y2="43.624" gradientTransform="translate(-5.029 277.22)" gradientUnits="userSpaceOnUse"><stop stop-color="#292c2f" offset="0"/><stop stop-color="#292c2f" stop-opacity="0" offset="1"/></linearGradient></defs><g transform="translate(0 -284.3)"><circle cx="24" cy="308.3" r="21" fill="url(#c)" stroke-width="2.0568"/><path d="m27.5 293.8 1.378 5.1163 0.41925 8.7994-4.1183 4.3981-6.8517 1.643-8.327-2.4568 17.5 17.5c7.6054-0.0221 16.947-9.2709 17-18z" fill="url(#a)" opacity=".2"/></g><path d="m30 12v1h1v-1zm1 1v1h-1v1h2v-2zm2-1v6h6v-6zm1 1h4v4h-4zm1 1v2h2v-2zm-4 4h1v-1c-1.0694-0.07681-1-0.0037-1 1zm0 4h-1v1h1v1h1v-3c-1.0694-0.07681-1-0.0037-1 1zm0 2h-1v1h1zm1-5v1h1v-1zm1 1v1h3v-1h-1v-1h-1v1zm4-1v2h1v-1h1v-1zm-4 3v4h1v1h1v-1h2v-1h1v-1h-1v-2zm5 2h1v-2h-1zm0 1v1h1v-1zm-3 2v1h2v-1zm-1-4h2v2h-2zm-4 3v1h1v-1zm2 1v1h1v-1zm6 0v1h1v-1z" fill="#232629"/><path d="m12 29v10h1v-10zm2 0v7h1v-7zm2 0v10h1v-10zm2 0v10h2v-10zm3 0v10h2v-10zm3 0v5h1v-5zm2 0v10h2v-10z" fill="#232629"/><g fill="#fcfcfc"><rect x="14" y="15" width="2" height="1"/><rect x="17" y="15" width="3" height="1"/><rect x="14" y="19" width="5" height="1"/><rect x="23" y="19" width="7" height="1"/><rect x="23" y="15" width="4" height="1"/><rect x="14" y="23" width="7" height="1"/><rect x="23" y="23" width="6" height="1"/></g><path d="m19.493 6.444c-6.8693 4e-6 -12.438 5.5686-12.438 12.438-7e-6 6.8692 5.5687 12.438 12.438 12.438 2.6825-0.0058 5.2913-0.87858 7.4372-2.4883l9.6127 10.113 2.5121-2.512-9.6127-10.113c1.6097-2.1458 2.4826-4.7546 2.4883-7.437-4e-6 -6.8692-5.5687-12.438-12.438-12.438m0 3.5537c4.9067-2e-6 8.8843 3.9776 8.8843 8.8842 0 4.9344-3.9739 8.8849-8.8853 8.8849-4.9067-9e-6 -8.8843-3.9776-8.8843-8.8842 0-5.5304 3.8973-8.8842 8.8844-8.8842" fill="url(#b)" stroke-width="2.3112"/></svg>
