<?xml version="1.0" encoding="UTF-8"?>
<svg id="ab" version="1.1" viewBox="0 0 48 48" xmlns="http://www.w3.org/2000/svg" xmlns:xlink="http://www.w3.org/1999/xlink"><linearGradient id="a"><stop id="ac" stop-color="#e0e0e0" offset="0"/><stop id="ad" stop-color="#a4a4a4" offset="1"/></linearGradient><linearGradient id="b" x1="1.9008" x2="37.26" y1="24" y2="46.099" gradientTransform="matrix(-.90501 0 0 .90501 45.72 2.2798)" gradientUnits="userSpaceOnUse"><stop id="ae" stop-color="#13ec19" offset="0"/><stop id="af" stop-color="#0da311" offset="1"/></linearGradient><linearGradient id="c" x1="46.099" x2="28.42" y1="24" y2="38.364" gradientTransform="matrix(-.90501 0 0 .90501 45.72 2.2798)" gradientUnits="userSpaceOnUse"><stop id="ag" stop-color="#11cd14" offset="0"/><stop id="ah" stop-color="#0a850d" offset="1"/></linearGradient><linearGradient id="d" x1="-35.649" x2="-1.9008" y1="12.95" y2="24" gradientUnits="userSpaceOnUse"><stop id="ai" stop-color="#3dc4e9" offset="0"/><stop id="aj" stop-color="#0c7cef" offset="1"/></linearGradient><linearGradient id="e" x1="15.405" x2="-1.4141" y1="15.405" y2="32.225" gradientTransform="matrix(-.90501 0 0 .90501 45.72 2.2798)" gradientUnits="userSpaceOnUse"><stop id="ak" stop-color="#292c2f" offset="0"/><stop id="al" stop-color="#010800" stop-opacity="0" offset="1"/></linearGradient><linearGradient id="f" x1="24" x2="24" y1="35.05" y2="46.099" gradientTransform="matrix(-.90501 0 0 .90501 45.72 2.2798)" gradientUnits="userSpaceOnUse"><stop id="am" stop-color="#3c4248" offset="0"/><stop id="an" stop-color="#2c3135" offset="1"/></linearGradient><linearGradient id="g" x1="-32.84" x2="-15.16" y1="15.16" y2="32.84" gradientUnits="userSpaceOnUse"><stop id="ao" stop-color="#ddd" offset="0"/><stop id="ap" stop-color="#a4a4a4" offset="1"/></linearGradient><linearGradient id="h" x1="-20.133" x2="-16.818" y1="30.63" y2="32.84" gradientUnits="userSpaceOnUse" xlink:href="#a"/><linearGradient id="i" x1="-24.552" x2="-21.238" y1="27.039" y2="29.249" gradientUnits="userSpaceOnUse" xlink:href="#a"/><linearGradient id="j" x1="-15.713" x2="-12.398" y1="26.762" y2="28.972" gradientUnits="userSpaceOnUse" xlink:href="#a"/><linearGradient id="k" x1="-20.133" x2="-16.818" y1="25.105" y2="27.315" gradientUnits="userSpaceOnUse" xlink:href="#a"/><linearGradient id="l" x1="-24.552" x2="-21.238" y1="22.343" y2="24.552" gradientUnits="userSpaceOnUse" xlink:href="#a"/><linearGradient id="m" x1="-15.713" x2="-12.398" y1="22.343" y2="24.552" gradientUnits="userSpaceOnUse" xlink:href="#a"/><linearGradient id="n" x1="-20.133" x2="-16.818" y1="19.58" y2="21.79" gradientUnits="userSpaceOnUse" xlink:href="#a"/><linearGradient id="o" x1="-24.552" x2="-21.238" y1="17.646" y2="19.856" gradientUnits="userSpaceOnUse" xlink:href="#a"/><linearGradient id="p" x1="-15.713" x2="-12.398" y1="17.923" y2="20.133" gradientUnits="userSpaceOnUse" xlink:href="#a"/><linearGradient id="q" x1="-20.133" x2="-16.818" y1="14.055" y2="16.265" gradientUnits="userSpaceOnUse" xlink:href="#a"/><linearGradient id="r" x1="-24.552" x2="-21.238" y1="12.95" y2="15.16" gradientUnits="userSpaceOnUse" xlink:href="#a"/><linearGradient id="s" x1="-24.552" x2="-21.238" y1="31.735" y2="33.945" gradientUnits="userSpaceOnUse" xlink:href="#a"/><linearGradient id="t" x1="-28.972" x2="-25.657" y1="30.63" y2="32.84" gradientUnits="userSpaceOnUse" xlink:href="#a"/><linearGradient id="u" x1="-28.972" x2="-25.657" y1="25.105" y2="27.315" gradientUnits="userSpaceOnUse" xlink:href="#a"/><linearGradient id="v" x1="-28.972" x2="-25.657" y1="19.58" y2="21.79" gradientUnits="userSpaceOnUse" xlink:href="#a"/><linearGradient id="w" x1="-28.972" x2="-25.657" y1="14.055" y2="16.265" gradientUnits="userSpaceOnUse" xlink:href="#a"/><linearGradient id="x" x1="-33.486" x2="-30.171" y1="26.762" y2="28.972" gradientUnits="userSpaceOnUse" xlink:href="#a"/><linearGradient id="y" x1="-33.486" x2="-30.171" y1="22.343" y2="24.552" gradientUnits="userSpaceOnUse" xlink:href="#a"/><linearGradient id="z" x1="-33.486" x2="-30.171" y1="17.923" y2="20.133" gradientUnits="userSpaceOnUse" xlink:href="#a"/><linearGradient id="aa" x1="9" x2="14" y1="9" y2="14" gradientUnits="userSpaceOnUse"><stop id="aq" stop-color="#fd8e3a" offset="0"/><stop id="ar" stop-color="#fdec29" offset="1"/></linearGradient><circle id="as" transform="matrix(.90501 0 0 .90501 45.72 2.2798)" cx="-24" cy="24" r="22.099" fill="url(#d)"/><g id="at" transform="matrix(1 0 0 1 -1.5775e-7 1.6225e-7)"><path id="au" d="m4 24a20 20 0 0 0 20 20 20 20 0 0 0 14.078-5.8066c-20.059-12.489-30.424-14.193-34.078-14.193z" fill="url(#c)"/><path id="av" d="m44 24c-7.9911-1e-6 -29.95 8.4618-31.992 15.975a20 20 0 0 0 11.992 4.0254 20 20 0 0 0 20-20z" fill="url(#b)"/><path id="aw" d="m31.777 16.223-15.555 15.555 7.7773 7.7793v4.4434a20 20 0 0 0 19.586-15.969z" fill="url(#e)" opacity=".5"/><path id="ax" d="m22 34v2c.99199.991989.999937 4.983251 1 7.974984.332857.02527.666295.01644 1 .02502.333574-.0034.667012-.0056 1-.02565.000023-2.995159.0047-6.97908 1-7.974353v-2z" fill="url(#f)"/></g><path id="ay" transform="matrix(.90501 0 0 .90501 45.72 2.2798)" d="m-11.845 24a12.155 12.155 0 0 1-12.155 12.155 12.155 12.155 0 0 1-12.155-12.155 12.155 12.155 0 0 1 12.155-12.155 12.155 12.155 0 0 1 12.155 12.155z" fill="url(#g)"/><rect id="az" transform="matrix(0 -.90501 -.90501 0 45.72 2.2798)" x="-20.685" y="30.63" width="3.3149" height="3.3149" rx="11.602" fill="url(#h)"/><rect id="ba" transform="matrix(0 -.90501 -.90501 0 45.72 2.2798)" x="-25.105" y="27.039" width="3.3149" height="3.3149" rx="11.602" fill="url(#i)"/><rect id="bb" transform="matrix(0 -.90501 -.90501 0 45.72 2.2798)" x="-16.265" y="26.762" width="3.3149" height="3.3149" rx="11.602" fill="url(#j)"/><rect id="bc" transform="matrix(0 -.90501 -.90501 0 45.72 2.2798)" x="-20.685" y="25.105" width="3.3149" height="3.3149" rx="11.602" fill="url(#k)"/><rect id="bd" transform="matrix(0 -.90501 -.90501 0 45.72 2.2798)" x="-25.105" y="22.343" width="3.3149" height="3.3149" rx="11.602" fill="url(#l)"/><rect id="be" transform="matrix(0 -.90501 -.90501 0 45.72 2.2798)" x="-16.265" y="22.343" width="3.3149" height="3.3149" rx="11.602" fill="url(#m)"/><rect id="bf" transform="matrix(0 -.90501 -.90501 0 45.72 2.2798)" x="-20.685" y="19.58" width="3.3149" height="3.3149" rx="11.602" fill="url(#n)"/><rect id="bg" transform="matrix(0 -.90501 -.90501 0 45.72 2.2798)" x="-25.105" y="17.646" width="3.3149" height="3.3149" rx="11.602" fill="url(#o)"/><rect id="bh" transform="matrix(0 -.90501 -.90501 0 45.72 2.2798)" x="-16.265" y="17.923" width="3.3149" height="3.3149" rx="11.602" fill="url(#p)"/><rect id="bi" transform="matrix(0 -.90501 -.90501 0 45.72 2.2798)" x="-20.685" y="14.055" width="3.3149" height="3.3149" rx="11.602" fill="url(#q)"/><rect id="bj" transform="matrix(0 -.90501 -.90501 0 45.72 2.2798)" x="-25.105" y="12.95" width="3.3149" height="3.3149" rx="11.602" fill="url(#r)"/><rect id="bk" transform="matrix(0 -.90501 -.90501 0 45.72 2.2798)" x="-25.105" y="31.735" width="3.3149" height="3.3149" rx="11.602" fill="url(#s)"/><rect id="bl" transform="matrix(0 -.90501 -.90501 0 45.72 2.2798)" x="-29.525" y="30.63" width="3.3149" height="3.3149" rx="11.602" fill="url(#t)"/><rect id="bm" transform="matrix(0 -.90501 -.90501 0 45.72 2.2798)" x="-29.525" y="25.105" width="3.3149" height="3.3149" rx="11.602" fill="url(#u)"/><rect id="bn" transform="matrix(0 -.90501 -.90501 0 45.72 2.2798)" x="-29.525" y="19.58" width="3.3149" height="3.3149" rx="11.602" fill="url(#v)"/><rect id="bo" transform="matrix(0 -.90501 -.90501 0 45.72 2.2798)" x="-29.525" y="14.055" width="3.3149" height="3.3149" rx="11.602" fill="url(#w)"/><rect id="bp" transform="matrix(0 -.90501 -.90501 0 45.72 2.2798)" x="-34.039" y="26.762" width="3.3149" height="3.3149" rx="11.602" fill="url(#x)"/><rect id="bq" transform="matrix(0 -.90501 -.90501 0 45.72 2.2798)" x="-34.039" y="22.343" width="3.3149" height="3.3149" rx="11.602" fill="url(#y)"/><rect id="br" transform="matrix(0 -.90501 -.90501 0 45.72 2.2798)" x="-34.039" y="17.923" width="3.3149" height="3.3149" rx="11.602" fill="url(#z)"/><path id="bs" transform="matrix(1 0 0 1 -1.5775e-7 1.6225e-7)" d="m13.395 7.0435c-2.5617 1.6101-4.7248 3.7442-6.3262 6.3114 0.85337 1.0112 2.1085 1.643 3.4316 1.6452 2.4853 0 4.5-2.0147 4.5-4.5-6.5e-5 -1.3292-0.58775-2.6016-1.6055-3.4565z" fill="url(#aa)"/><path id="bt" transform="matrix(1 0 0 1 -1.5775e-7 1.6225e-7)" d="m43.99 23.707a20 19.5 0 0 1-19.99 19.293 20 19.5 0 0 1-19.99-19.213 20 20 0 0 0-0.0097656 0.21289 20 20 0 0 0 20 20 20 20 0 0 0 20-20 20 20 0 0 0-0.009766-0.29297z" fill="#292c2f" opacity=".3"/></svg>
