<?xml version="1.0" encoding="UTF-8"?>
<svg id="n" viewBox="0 0 64 64" xmlns="http://www.w3.org/2000/svg" xmlns:xlink="http://www.w3.org/1999/xlink"><defs id="o"><linearGradient id="b"><stop id="p" stop-color="#fff" offset="0"/><stop id="q" stop-color="#e54747" offset=".80357"/><stop id="r" stop-color="#ec003c" stop-opacity="0" offset="1"/></linearGradient><linearGradient id="a"><stop id="s" stop-color="#fff" offset="0"/><stop id="t" stop-color="#2955ff" offset=".82143"/><stop id="u" stop-color="#00e6ec" stop-opacity="0" offset="1"/></linearGradient><filter id="m"><feGaussianBlur id="v" stdDeviation="0.90543467"/></filter><filter id="k"><feGaussianBlur id="w" stdDeviation="0.22406408"/></filter><radialGradient id="j" cx="22.577" cy="35.283" r="12.909" gradientTransform="matrix(2.2204 .2834 -.16812 1.0545 -22.013 -9.1366)" gradientUnits="userSpaceOnUse"><stop id="x" stop-color="#fff" offset="0"/><stop id="y" stop-color="#2a77d3" offset=".5"/><stop id="z" stop-color="#002a5b" offset="1"/></radialGradient><radialGradient id="i" cx="43.699" cy="42.881" r="15.108" gradientTransform="matrix(.64162 .76779 -.7012 .58598 47.729 -13.798)" gradientUnits="userSpaceOnUse" xlink:href="#a"/><radialGradient id="h" cx="43.699" cy="42.881" r="15.108" gradientTransform="matrix(.64162 .76779 -.7012 .58598 51.729 -9.7979)" gradientUnits="userSpaceOnUse" xlink:href="#a"/><radialGradient id="g" cx="22.42" cy="23.915" r="12.909" gradientTransform="matrix(.70942 .7308 -.81509 .79148 21.509 -16.577)" gradientUnits="userSpaceOnUse" xlink:href="#b"/><radialGradient id="f" cx="43.699" cy="42.881" r="15.108" gradientTransform="matrix(.64162 .76779 -.7012 .58598 45.729 -15.798)" gradientUnits="userSpaceOnUse" xlink:href="#a"/><radialGradient id="e" cx="22.42" cy="23.915" r="12.909" gradientTransform="matrix(.68811 .70874 -.7906 .76759 17.675 -19.431)" gradientUnits="userSpaceOnUse" xlink:href="#b"/><radialGradient id="d" cx="34.378" cy="32.068" r="4.4188" gradientTransform="matrix(.71766 0 0 7.2424 9.7064 -200.18)" gradientUnits="userSpaceOnUse"><stop id="aa" stop-color="#fff" offset="0"/><stop id="ab" stop-color="#eee" stop-opacity="0" offset="1"/></radialGradient><radialGradient id="c" cx="35.092" cy="24.107" r="12.909" gradientTransform="matrix(1.0923 1.2481 -1.1272 .98649 19.703 -36.379)" gradientUnits="userSpaceOnUse"><stop id="ac" stop-color="#eeeeec" offset="0"/><stop id="ad" stop-color="#d42121" offset=".5"/><stop id="ae" stop-color="#570000" offset="1"/></radialGradient><filter id="l"><feGaussianBlur id="af" stdDeviation="0.20899911"/></filter></defs><g id="ag"><path id="ah" d="m23.93 4.1442c-7.2366-7.2248-22.271-0.69949-23.288 10.176-2.1273 10.749 10.641 18.319 19.959 11.861 8.0486-4.8994 9.8051-16.557 3.3286-22.037z" fill="url(#e)" opacity=".2"/><path id="ai" d="m55.456 53.648c7.948-7.961 0.76951-24.5-11.195-25.619-11.825-2.3402-20.153 11.706-13.048 21.957 5.3898 8.8542 18.214 10.787 24.243 3.6618z" fill="url(#f)"/><path id="aj" d="m27.958 7.7317c-7.4608-7.4497-22.961-0.72126-24.009 10.493-2.1932 11.084 10.971 18.889 20.577 12.23 8.2979-5.0519 10.109-17.072 3.4317-22.723z" fill="url(#g)"/><path id="ak" d="m61.456 59.648c7.948-7.961 0.76951-24.5-11.195-25.619-11.825-2.3402-20.153 11.706-13.048 21.957 5.3898 8.8542 18.214 10.787 24.243 3.6618z" fill="url(#h)" opacity=".2"/><path id="al" d="m57.456 55.648c7.948-7.961 0.76951-24.5-11.195-25.619-11.825-2.3402-20.153 11.706-13.048 21.957 5.3898 8.8542 18.214 10.787 24.243 3.6618z" fill="url(#i)" opacity=".55263"/><path id="am" d="m31.177 31.215c-5.6054 5.6054-14.225 6.0843-19.241 1.0689-5.0154-5.0154-5.5445-14.643 0.060899-20.249 5.6054-5.6054 15.233-5.0763 20.249-0.060898 5.0154 5.0154 4.5365 13.635-1.0689 19.241z" fill="url(#c)"/><path id="an" transform="matrix(-.67479 .67479 -.75418 -.75418 76.881 45.846)" d="m35.329 23.915a12.909 12.909 0 1 1-25.817 0 12.909 12.909 0 1 1 25.817 0z" fill="url(#j)"/><path id="ao" d="m44.225 18.16c-0.33975-0.002378-0.69245 0.004302-1.0312 0.03125-0.24047 0.030329-0.48239 0.055426-0.71875 0.09375l-3.0625 3.0625c2.4389-1.1637 5.3363-1.8231 7.8438-2.9062-1.0045-0.15366-2.012-0.27412-3.0312-0.28125zm-10.031 3.4062c-5.6548 3.6041-10.119 9.3636-14.562 14.5l14.562-14.5zm3.5 1.5-20.844 20.844c-0.10883 0.29483-0.22443 0.59686-0.3125 0.875 1.465-2.8503 6.9231-4.7942 7.0938-0.21875 1.43-4.8767 7.2308-7.0346 11.281-3.9375 2.7236 1.8749 1.5767 0.40345 0.6875-1.7188-1.7322-5.7205 5.8351-10.276 10.406-10.781-2.3913-1.808-8.6812-1.513-8.3125-5.0625z" fill="#ff9" fill-rule="evenodd" filter="url(#m)" opacity=".9"/><path id="ap" d="m62.656 17.5c-0.57099 0.17069-1.1468 0.32429-1.7188 0.5-0.75805 0.23343-1.5261 0.507-2.2812 0.75 0.74268-0.23868 1.4733-0.45794 2.2188-0.6875 0.58994-0.18127 1.186-0.35532 1.7812-0.53125v-0.03125zm-8.25 2.8125c-0.57198 0.22522-1.1533 0.44218-1.7188 0.6875l-0.0625 0.0625c0.59219-0.25979 1.183-0.50364 1.7812-0.75zm-11.219 5.1562c-0.31399 0.16981-0.63262 0.34144-0.9375 0.53125-0.65931 0.39101-1.2944 0.80161-1.9375 1.2188-1.0633 0.71333-2.0123 1.5235-2.8438 2.5312-0.18943 0.20928-0.39407 0.39862-0.5625 0.625-0.14548 0.013708-0.29187 0.018463-0.4375 0.03125l-3.5625 3.5625c0.41798 0.16337 0.84857 0.33401 1.25 0.53125l2.6562-2.625c-0.052764-0.051343-0.10375-0.10521-0.15625-0.15625 0.084825 0.012918 0.16541 0.048288 0.25 0.0625l0.28125-0.3125c-0.030406-0.012689-0.063283-0.018595-0.09375-0.03125 0.078219-0.030384 0.16441-0.057653 0.25-0.09375l1.6562-1.6562c0.11711-0.26998 0.17114-0.56271 0.15625-0.84375-0.002784-0.052559 0.050022-0.072736 0.0625-0.125 0.014294-0.05468 0.034998-0.10873 0.0625-0.15625 0.73462-0.59516 1.502-1.1531 2.2812-1.6875 0.21649-0.14714 0.43816-0.2952 0.65625-0.4375l0.96875-0.96875zm-12.688 3.6562c-1.1316-0.15793-3.146 3.4911-1.6875 2.8125 0.28585-0.13299 0.60176-0.1768 0.90625-0.25 0.17415-0.040362 0.35426-0.060369 0.53125-0.09375l1.7188-1.6875c-0.1995-0.0472-0.39914-0.094819-0.59375-0.15625-0.15449-0.076151-0.34576-0.11678-0.4375-0.28125-0.11195-0.2007-0.27585-0.32119-0.4375-0.34375zm13.344 0.71875-0.28125 0.28125c1.1354-0.081903 2.2652-0.14087 3.4062-0.0625 1.5364 0.11292 3.0772 0.36287 4.5938 0.625 1.5486 0.28191 3.0882 0.59697 4.625 0.9375 1.4752 0.33592 2.9179 0.75014 4.375 1.1562 0.70398 0.18351 1.3966 0.37424 2.0938 0.59375v-0.09375c-0.68238-0.18173-1.3543-0.36054-2.0312-0.5625-1.4572-0.40617-2.931-0.8202-4.4062-1.1562-1.5368-0.34064-3.0764-0.62425-4.625-0.90625-1.5167-0.26224-3.0259-0.51187-4.5625-0.625-1.0614-0.073051-2.1198-0.17322-3.1875-0.1875zm-3 3-0.0625 0.0625c0.87094 0.36905 1.7178 0.7943 2.5625 1.2188 1.7611 0.90167 3.4771 1.8926 5.1562 2.9375 1.7752 1.0951 3.3903 2.3983 5 3.7188 1.6204 1.3133 3.1827 2.7132 4.6875 4.1562 1.4175 1.3769 2.8023 2.7782 4.1875 4.1875 0.098282 0.099357 0.18357 0.21233 0.28125 0.3125v-0.125c-0.07266-0.074102-0.14573-0.14493-0.21875-0.21875-1.3852-1.4094-2.8012-2.8105-4.2188-4.1875-1.5049-1.4432-3.0358-2.8428-4.6562-4.1562-1.6099-1.3206-3.2558-2.6547-5.0312-3.75-1.6793-1.045-3.3638-2.0357-5.125-2.9375-0.84487-0.42458-1.6916-0.84977-2.5625-1.2188zm-1.625 1.625-0.875 0.875c0.68614 0.50701 1.3486 1.0381 2 1.5938 0.99245 0.83025 1.9723 1.666 2.875 2.5938 1.0344 1.1959 2.0358 2.4348 3 3.6875 0.93594 1.2186 1.8193 2.4731 2.7188 3.7188 0.82302 1.1523 1.6621 2.2946 2.4062 3.5 0.68552 1.0979 1.3504 2.2244 2 3.3438 0.39919 0.6801 0.77635 1.3715 1.1562 2.0625 0.18523 0.33692 0.71945-0.15305 0.5-0.46875-0.44181-0.63558-0.90311-1.2699-1.3438-1.9062-0.73135-1.0437-1.4686-2.0947-2.2188-3.125-0.83932-1.1362-1.6021-2.3295-2.4375-3.4688-0.89949-1.2457-1.814-2.4689-2.75-3.6875-0.96426-1.2529-1.9343-2.4915-2.9688-3.6875-0.8117-1.0183-1.5795-2.063-2.375-3.0938-0.53735-0.66888-1.1137-1.301-1.6875-1.9375zm-7.2188 0.40625-1.2188 1.2188c0.0024 0.009759-0.002367 0.021493 0 0.03125 0.11488 0.46005 0.25661 0.89949 0.40625 1.3438l0.875-0.875c-0.039454-0.50313-0.060096-1.0193-0.0625-1.5312 5.84e-4 -0.061746-4.92e-4 -0.12517 0-0.1875zm5.5938 1.2188-0.375 0.375c1.0676 0.78166 2.0619 1.6303 2.9375 2.625 0.35242 0.41517 0.69429 0.82172 1.0312 1.25-0.34037-0.42598-0.64701-0.86542-1-1.2812-0.86862-0.98674-1.7082-1.9974-2.5938-2.9688zm3.5938 4.25c1.0109 1.2848 1.9629 2.636 2.9062 3.9688 1.3478 1.9658 2.6533 3.9611 3.9375 5.9688 1.1813 1.8414 2.3408 3.7071 3.5 5.5625 0.72935 1.1709 0.37269 0.58683 1.0938 1.75 0.020251 0.032663 0.051499-0.029833 0.03125-0.0625-0.72107-1.1632-0.36439-0.57907-1.0938-1.75-1.1592-1.8554-2.3187-3.6898-3.5-5.5312-1.2843-2.0077-2.5584-4.0341-3.9062-6-0.94296-1.3322-1.9497-2.6308-2.9688-3.9062zm-11.406-3.25-2.3438 2.3125c-0.009231 0.021294-0.022093 0.041175-0.03125 0.0625-0.18488 0.43055-0.35083 0.86878-0.5 1.3125-0.14213 0.42233-0.24713 0.8463-0.34375 1.2812l1.25-1.25c0.15007-0.37598 0.31963-0.76103 0.5-1.125 0.30828-0.59119 0.60138-1.1612 0.96875-1.7188 0.17433-0.28241 0.33916-0.58015 0.5-0.875zm0.84375 0.9375c-0.77707 0.40213-1.7063 1.1357-1.7812 1.75l1.7812-1.75zm2.2812 2.75-0.3125 0.3125c0.097823 0.21733 0.18301 0.43774 0.28125 0.65625 0.615 1.2388 1.1926 2.4821 1.8125 3.7188 0.71932 1.4392 1.5575 2.8309 2.4688 4.1562 1.0513 1.4922 2.1878 2.8966 3.375 4.2812 1.173 1.3555 2.4012 2.6905 3.625 4 1.1385 1.2195 2.2894 2.4137 3.4688 3.5938 0.34081 0.338 0.6824 0.66825 1.0312 1h0.125c-0.36662-0.35182-0.732-0.70372-1.0938-1.0625-1.1793-1.18-2.3303-2.3743-3.4688-3.5938-1.2237-1.3094-2.4521-2.6133-3.625-3.9688-1.187-1.3845-2.3552-2.7892-3.4062-4.2812-0.91102-1.3251-1.7184-2.7173-2.4375-4.1562-0.6365-1.27-1.242-2.564-1.625-3.9375-0.076218-0.23873-0.14542-0.4786-0.21875-0.71875zm-8.0312 1.2188-1.0938 1.0938c-0.16474 0.29274-0.33872 0.5801-0.5 0.875-0.48579 0.87347-0.90753 1.775-1.3125 2.6875l0.5625-0.53125c0.4633-0.9201 0.93069-1.8427 1.4688-2.7188 0.28362-0.47249 0.5829-0.93716 0.875-1.4062zm6.4375 0.375-1.0625 1.0625c0.20571 0.58772 0.42499 1.1692 0.65625 1.75 0.45211 1.0707 0.9429 2.1047 1.4375 3.1562 0.7588 1.5133 1.5178 3.0352 2.3125 4.5312 0.79912 1.5097 1.633 2.9847 2.5312 4.4375 0.88204 1.3995 1.8374 2.7669 2.7812 4.125 0.24662 0.35529 0.49939 0.70849 0.75 1.0625h0.0625c-0.25913-0.36583-0.52637-0.72656-0.78125-1.0938-0.94382-1.358-1.8681-2.7256-2.75-4.125-0.89812-1.4527-1.7322-2.9279-2.5312-4.4375-0.79871-1.5037-1.6767-3.0072-2.2188-4.625-0.36263-1.2092-0.67644-2.4391-0.875-3.6875-0.11941-0.71698-0.2345-1.4322-0.3125-2.1562zm-5.25 5.25-0.25 0.25c-0.019336 0.6199-0.019356 1.2523-0.03125 1.875-0.007051 1.8472 0.12487 3.692 0.28125 5.5312 0.15002 1.7819 0.45126 3.5562 0.78125 5.3125 0.12714 0.63867 0.26825 1.272 0.40625 1.9062 4.75e-4 0.002185 0.030774-0.002185 0.03125 0-0.1468-0.64503-0.27698-1.2879-0.40625-1.9375-0.32982-1.7562-0.60011-3.5308-0.75-5.3125-0.15627-1.8391-0.28856-3.6843-0.28125-5.5312 0.013694-0.70853 0.11061-1.4022 0.21875-2.0938zm-6.3125 6.6875c-0.004371 0.021986-0.026883 0.040512-0.03125 0.0625-0.25758 1.3508-0.56296 2.6852-0.84375 4.0312-0.25747 1.2296-0.50864 2.4546-0.75 3.6875-0.026243 0.13374-0.064434 0.26963-0.09375 0.40625h0.34375c0.046679-0.0763 0.11412-0.13754 0.125-0.21875 0.02457-0.18332 0.03793-0.37918 0.0625-0.5625 0.16714-1.1736 0.3413-2.3299 0.53125-3.5 0.20715-1.2961 0.39221-2.62 0.65625-3.9062z" fill="#fff" filter="url(#k)"/><path id="aq" transform="matrix(.70711 .70711 -.70711 .70711 31.114 -17.226)" d="m38.047 32.068a3.6688 31.253 0 1 1-7.3376 0 3.6688 31.253 0 1 1 7.3376 0z" fill="url(#d)"/><path id="ar" d="m37.208 6.625c0.59602 1.0117 1.1264 2.0527 1.4726 3.1875 0.33039 1.1122 0.56126 2.2541 0.72128 3.4062 0.13112 1.1509 0.19863 2.3097 0.15027 3.4688-0.062276 1.1106-0.18452 2.2321-0.4508 3.3125-0.28067 0.93136-0.60091 1.8601-1.0519 2.7188-0.41247 0.76291-0.88066 1.4842-1.3824 2.1875-0.49631 0.68828-0.99124 1.3804-1.5327 2.0312-1.2583 1.5055-0.90043 1.0067-0.84149 0.96875-0.37542 0.34977-0.77089 0.68285-1.1721 1-0.069349-0.47307-0.12565-0.93569-0.21037-1.4062-0.16888-0.92543-0.42093-1.8516-0.69122-2.75-0.26198-1.1066-0.80658-2.0676-1.2622-3.0938-0.53043-1.218-1.1957-2.3607-1.8633-3.5-0.73396-1.2775-1.6341-2.4242-2.5846-3.5312-1.0071-1.1411-2.0449-2.2462-3.0955-3.3438-6.1007-3.7209-4.541-4.7475-0.060106 0.03125 1.0505 1.0975 2.1186 2.2027 3.1255 3.3438 0.95009 1.1066 1.8585 2.2803 2.5846 3.5625 0.64414 1.1798 1.1925 2.3862 1.6529 3.6562 0.38692 1.1382 0.62628 2.3216 0.87154 3.5 0.17577 0.98315 0.32888 1.9696 0.39069 2.9688 0.027662 0.44542 0.028643 0.8972 0.030054 1.3438-0.1407 0.080059-0.30029 0.15802-0.4508 0.21875-0.097175 0.011333-0.20206 0.104-0.30053 0.03125-0.95198-0.70326-2.0191 1.166-2.284 2.1875-0.26489 0.01605-0.51571 0.027923-0.78138 0.03125-0.7475-0.016603-1.4889-0.11908-2.2239-0.25-0.96725-0.1541-1.9402-0.39355-2.8851-0.65625-1.123-0.3215-2.1721-0.81433-3.2157-1.3438-1.1327-0.57752-2.2236-1.247-3.2758-1.9688-1.1646-0.82678-2.183-1.8499-3.1556-2.9062-1.2124-1.2921-2.0768-2.8408-2.8551-4.4375-0.13451-0.29193-0.25618-0.58307-0.39069-0.875-0.01597-0.03466-0.076078-0.003408-0.060106 0.03125 0.13455 0.29197 0.2862 0.58303 0.42074 0.875 0.77861 1.5972 1.6122 3.1449 2.825 4.4375 0.97466 1.0586 2.0233 2.055 3.1255 2.9688 0.96832 0.81075 1.9693 1.5694 3.0654 2.1875 0.98878 0.56623 1.9928 1.1062 3.0053 1.625 0.80041 0.41054 1.6246 0.80739 2.4644 1.125 0.66435 0.21677 1.3242 0.44617 2.0136 0.5625 0.54028 0.083541 1.0741 0.19147 1.6229 0.15625 0.41974-0.044329 0.81465-0.12348 1.2021-0.3125 0.25336-0.11002 0.51903-0.22682 0.78138-0.3125 0.26667-0.26635 0.69591-0.57011 1.112-0.875-0.044687 0.21732-0.077717 0.44519-0.15027 0.65625-0.13687 0.39691-0.27634 0.78961-0.48085 1.1562-0.014851 0.023934-0.045802 0.037948-0.060107 0.0625-0.14574 0.16362-0.27455 0.33684-0.42074 0.5-0.37921 0.40083-0.52183 0.56625-0.54096 0.59375-0.043163 0.041155 0.18455-0.17978-0.12021 0.125-0.69125 0.68425-1.4342 1.3296-2.1638 1.9688-0.75122 0.6615-1.4976 1.2907-2.284 1.9062-0.90637 0.70957-1.8924 1.338-2.8851 1.9062-1.0511 0.60814-2.1448 1.0808-3.2758 1.5-1.1935 0.44202-2.445 0.69202-3.6965 0.875-1.3184 0.18033-2.6506 0.12336-3.967-0.03125-1.4042-0.13927-2.7074-0.65066-3.967-1.2812-1.3865-0.7216-2.6232-1.695-3.7867-2.75-1.2906-1.3584-1.9676-1.567-0.030053 0.0625 1.1639 1.0554 2.3998 2.028 3.7867 2.75 1.2545 0.62824 2.5438 1.1431 3.937 1.3125 1.2902 0.16273 2.5785 0.24097 3.8769 0.125 1.2152-0.11906 2.415-0.3493 3.5763-0.75 1.0984-0.37615 2.1854-0.82565 3.2157-1.375 0.91782-0.48684 1.8286-0.97936 2.6747-1.5938 0.76734-0.56428 1.5085-1.1782 2.2239-1.8125 0.67582-0.59384 1.3768-1.1765 2.0436-1.7812 0.49266-0.46594 0.96949-0.9504 1.4426-1.4375 0.47815 0.22752 3.4836-1.1942 2.6747-2.4688-0.037778-0.059529-0.045874-0.14972-0.060107-0.21875-2.95e-4 -0.02091 1.65e-4 -0.041589 0-0.0625 0.051454-0.036092 0.11893-0.08606 0.18032-0.09375 1.7784-0.22275 3.1233-3.9791 1.8934-2.625-0.14161 0.1559-0.30277 0.28794-0.4508 0.4375-0.55548 0.52794-1.0978 1.0951-1.6229 1.6562 6.04e-4 -0.041828-4.26e-4 -0.083175 0-0.125 1.39e-4 -0.53526-0.040783-1.0928-0.09016-1.625-0.016704-0.14771-0.040714-0.29024-0.060106-0.4375 0.1001-0.09637 0.20147-0.18371 0.30053-0.28125 0.92603-0.90551 1.8114-1.8785 2.6447-2.875 0.55207-0.66325 1.0684-1.3204 1.5628-2.0312 0.49484-0.6978 0.93624-1.4505 1.3223-2.2188 0.38904-0.80486 0.68843-1.6388 0.81144-2.5312 0.16194-1.0418 0.24301-2.0717 0.24043-3.125 0.033236-1.1429-0.083013-2.2769-0.24043-3.4062-0.12824-1.163-0.39211-2.3211-0.72128-3.4375-0.35588-1.1345-0.89277-2.1722-1.5327-3.1562-3.4317-3.4684-2.9752-2.0233-0.36064 0.375zm-5.2293 23.781c-0.007834 0.16586 0.014931 0.33447 0 0.5-0.006033 0.053331-0.02404 0.10288-0.030053 0.15625-0.003517 0.031219 0.003556 0.062527 0 0.09375-0.76747 1.1023-1.6522 2.6748-1.4426 1.5938 0.1438-0.7415 0.84418-1.1946 1.4426-1.6875-0.20461 0.15097-0.41184 0.27777-0.63112 0.40625-0.41092 0.241-0.87363 0.39144-1.3223 0.53125 0.040288-0.032674 0.080143-0.060842 0.12021-0.09375 0.51527-0.41227 1.0447-0.81029 1.5628-1.2188 0.1065-0.083976 0.19621-0.19457 0.30053-0.28125z" fill="#fff" filter="url(#l)"/></g></svg>
