<?xml version="1.0" encoding="UTF-8"?>
<svg id="af" width="48pt" height="48pt" sodipodi:docbase="/home/danny/work/kde/ICONS/kolourpaint" sodipodi:docname="crsc-app-kolourpaint.svgz" sodipodi:version="0.32" xmlns="http://www.w3.org/2000/svg" xmlns:sodipodi="http://inkscape.sourceforge.net/DTD/sodipodi-0.dtd" xmlns:xlink="http://www.w3.org/1999/xlink"><defs id="ag"><linearGradient id="b"><stop id="ah" stop-color="#fff" offset="0"/><stop id="ai" stop-color="#fff" stop-opacity="0" offset="1"/></linearGradient><linearGradient id="a"><stop id="aj" stop-opacity="0" offset="0"/><stop id="ak" stop-opacity=".49804" offset=".35556"/><stop id="al" offset="1"/></linearGradient><linearGradient id="e"><stop id="am" stop-color="#5a2200" offset="0"/><stop id="an" stop-color="#b89865" offset=".21951"/><stop id="ao" stop-color="#a27443" offset=".58059"/><stop id="ap" stop-color="#e4d3be" offset=".64249"/><stop id="aq" stop-color="#7f4a20" offset="1"/></linearGradient><linearGradient id="f"><stop id="ar" stop-color="#ffebd9" offset="0"/><stop id="as" stop-color="#fff" stop-opacity="0" offset="1"/></linearGradient><linearGradient id="c"><stop id="at" stop-color="#fff" stop-opacity=".72917" offset="0"/><stop id="au" stop-color="#fff" stop-opacity="0" offset="1"/></linearGradient><linearGradient id="d"><stop id="av" stop-color="#fff" offset="0"/><stop id="aw" stop-color="#fff" stop-opacity="0" offset="1"/></linearGradient><linearGradient id="y" x1="423.58" x2="308.71" y1="437.25" y2="234.43" gradientTransform="matrix(-.14072 .051528 .049392 .13489 35.663 -3.6537)" gradientUnits="userSpaceOnUse"><stop id="ax" stop-color="#00ff01" offset="0"/><stop id="ay" stop-color="#15980f" offset="1"/></linearGradient><linearGradient id="x" x1="120.54" x2="214.83" y1="223.81" y2="338.76" gradientTransform="matrix(-.11783 .043146 .058988 .16109 8.8696 6.4162)" gradientUnits="userSpaceOnUse"><stop id="az" stop-color="#007c00" offset="0"/><stop id="ba" stop-color="#025a00" offset="1"/></linearGradient><linearGradient id="w" x1="43.656" x2="45.27" y1="77.274" y2="100.95" gradientTransform="matrix(-.60509 .22157 .21239 .58001 14.557 -9.2775)" gradientUnits="userSpaceOnUse" xlink:href="#d"/><radialGradient id="q" cx="155.58" cy="316.53" r="40.148" gradientTransform="matrix(-.11946 .043743 .058182 .15889 8.8696 6.4162)" gradientUnits="userSpaceOnUse" xlink:href="#c"/><radialGradient id="p" cx="15.208" cy="1.709" r="9.9593" fx="16.931" fy="7.7512" gradientTransform="matrix(-.3656 .40504 -.78422 -.70785 18.163 2.7341)" gradientUnits="userSpaceOnUse"><stop id="bb" stop-color="#ffae00" offset="0"/><stop id="bc" stop-color="#ddbf67" offset="1"/></radialGradient><linearGradient id="v" x1="2.4255" x2="22.344" y1="10.313" y2="10.313" gradientUnits="userSpaceOnUse"><stop id="bd" stop-color="#f89600" offset="0"/><stop id="be" stop-color="#824700" offset="1"/></linearGradient><radialGradient id="o" cx="-15.493" cy="61.943" r="7.5249" fx="-12.616" fy="61.768" gradientTransform="matrix(.43256 -.53048 3.6865 3.0059 -179.95 -152.54)" gradientUnits="userSpaceOnUse" xlink:href="#e" spreadMethod="reflect"/><linearGradient id="u" x1="-12.812" x2="151.3" y1="61.331" y2="-341.79" gradientTransform="matrix(.6524 -.75788 .75788 .6524 -4.1628 -5.807)" gradientUnits="userSpaceOnUse" xlink:href="#e"/><radialGradient id="n" cx="-3.4062" cy="66.744" r="6.5" fx="-1.2302" fy="65.68" gradientTransform="matrix(-2.92 -1.7424 .34802 -.58324 26.313 86.472)" gradientUnits="userSpaceOnUse" xlink:href="#f"/><radialGradient id="m" cx="-27.422" cy="17.524" r="23.662" fx="-16.905" fy="13.309" gradientTransform="matrix(1.4932 1.1784 -.26501 .3358 72.677 44.623)" gradientUnits="userSpaceOnUse" xlink:href="#f"/><radialGradient id="l" cx="-32.743" cy="21.38" r="3.6016" fx="-32.138" fy="21.389" gradientTransform="matrix(1.6311 1.3019 -3.9032 4.8905 158.59 -44.102)" gradientUnits="userSpaceOnUse" xlink:href="#a"/><radialGradient id="k" cx="-32.743" cy="21.38" r="3.6016" fx="-32.138" fy="21.389" gradientTransform="matrix(-1.6311 -1.3019 3.9032 -4.8905 -110.66 81.473)" gradientUnits="userSpaceOnUse" xlink:href="#a"/><radialGradient id="j" cx="-32.743" cy="21.38" r="3.6016" fx="-32.138" fy="21.389" gradientTransform="matrix(1.4916 1.1409 -3.5456 4.2561 183.09 -4.0319)" gradientUnits="userSpaceOnUse" xlink:href="#a"/><radialGradient id="i" cx="-32.743" cy="21.38" r="3.6016" fx="-32.138" fy="21.389" gradientTransform="matrix(-1.4916 -1.1409 3.5456 -4.2561 -62.123 104.75)" gradientUnits="userSpaceOnUse" xlink:href="#a"/><linearGradient id="t" x1="41.158" x2="36.947" y1="24" y2="30.211" gradientTransform="translate(-.21053 .21053)" gradientUnits="userSpaceOnUse" xlink:href="#b"/><radialGradient id="h" cx="-4.1202" cy="25.946" r="14.093" fx="-15.115" fy="26.366" gradientTransform="matrix(.22643 .088081 -.0073977 .16782 25.884 9.4839)" gradientUnits="userSpaceOnUse" xlink:href="#b"/><radialGradient id="g" cx="12.325" cy="1.0508" r="5.8363" fx="13.396" fy="1.0437" gradientTransform="matrix(.28282 .95178 -1.7124 -.30071 9.4592 -8.4788)" gradientUnits="userSpaceOnUse" xlink:href="#b"/><linearGradient id="ae" x1="445.43" x2="197.06" y1="436.24" y2="227.28" gradientTransform="matrix(-.13895 .056128 .053802 .13319 34.998 .65737)" gradientUnits="userSpaceOnUse"><stop id="bf" stop-color="#d9ffff" offset=".0056"/><stop id="bg" stop-color="#6eaafe" offset=".74218"/><stop id="bh" stop-color="#0356fe" offset="1"/></linearGradient><linearGradient id="ad" x1="120.54" x2="214.83" y1="223.81" y2="338.76" gradientTransform="matrix(-.11634 .046998 .064254 .15906 21.505 6.214)" gradientUnits="userSpaceOnUse"><stop id="bi" stop-color="#0356fe" offset="0"/><stop id="bj" stop-color="#032442" offset="1"/></linearGradient><linearGradient id="ac" x1="43.656" x2="45.27" y1="77.274" y2="100.95" gradientTransform="matrix(-.59748 .24135 .23135 .57271 26.673 -9.6582)" gradientUnits="userSpaceOnUse" xlink:href="#d"/><radialGradient id="s" cx="155.58" cy="316.53" r="40.148" gradientTransform="matrix(-.11796 .047648 .063377 .15689 21.559 6.3481)" gradientUnits="userSpaceOnUse" xlink:href="#c"/><linearGradient id="ab" x1="126.12" x2="128.55" y1="426.23" y2="222.43" gradientTransform="matrix(-.13843 .057384 .055005 .1327 35.302 6.2749)" gradientUnits="userSpaceOnUse"><stop id="bk" stop-color="#f00" offset="0"/><stop id="bl" stop-color="#920000" offset="1"/></linearGradient><linearGradient id="aa" x1="120.54" x2="214.83" y1="223.81" y2="338.76" gradientTransform="matrix(-.11592 .048049 .065692 .15848 35.302 6.2749)" gradientUnits="userSpaceOnUse"><stop id="bm" stop-color="#8e0000" offset="0"/><stop id="bn" offset="1"/></linearGradient><linearGradient id="z" x1="43.656" x2="45.27" y1="77.274" y2="100.95" gradientTransform="matrix(-.59527 .24675 .23652 .57059 40.327 -9.6435)" gradientUnits="userSpaceOnUse" xlink:href="#d"/><radialGradient id="r" cx="155.58" cy="316.53" r="40.148" gradientTransform="matrix(-.11752 .048714 .064795 .15631 35.302 6.2749)" gradientUnits="userSpaceOnUse" xlink:href="#c"/></defs><sodipodi:namedview id="bo" bordercolor="#666666" borderopacity="1.0" pagecolor="#ffffff" showgrid="false" showguides="false"><sodipodi:guide id="bp" orientation="horizontal" position="7.8466130"/><sodipodi:guide id="bq" orientation="vertical" position="-58.289125"/></sodipodi:namedview><g id="br"><g id="bs" transform="matrix(1.0325 .04878 -.079295 .9705 -1.9988 -2.3731)" fill-rule="evenodd"><path id="bt" d="m18.256 17.965c-8.5888 0.22377-8.656-10.375-15.331-15.107 11.421-1.0452 17.185 1.8877 18.919 10.667-1.0817 1.6826-2.5061 2.7571-3.5878 4.4397z" fill="url(#p)" stroke="url(#v)" stroke-linejoin="miter" stroke-width=".99836px" sodipodi:nodetypes="cccc"/><path id="bu" d="m18.176 18.825c-0.48617 0.56477-0.16441 1.6315 0.71014 2.3844 0.87455 0.75284 1.9773 0.91234 2.4635 0.34757 0.014797-0.01719 0.1221-0.14184 0.14271-0.16578-0.085314 0.91758 6.2255 9.4824 16.008 17.904 9.9185 8.5381 19.417 13.692 20.075 13.323 0.024886 0.023184 0.024697 0.062494 0.050663 0.084846 1.255 1.0804 3.3138 0.74887 4.5774-0.71904 1.2636-1.4679 1.2648-3.5294 0.009776-4.6098 0.44197-0.51343-6.1907-9.2876-16.232-17.931-9.7827-8.4212-19.191-13.388-20.086-13.167 0.020614-0.023946 0.12792-0.1486 0.14271-0.16578 0.48617-0.56477 0.16441-1.6315-0.71014-2.3844s-1.9773-0.91234-2.4635-0.34757c-0.48617 0.56477-4.203 4.8825-4.6891 5.4472z" fill="url(#o)" stroke="url(#u)" stroke-linecap="round" stroke-linejoin="round" stroke-miterlimit="4" stroke-width="1.4227"/><path id="bv" d="m18.176 18.825c-0.48617 0.56477-0.16441 1.6315 0.71014 2.3844 0.87455 0.75284 1.9773 0.91234 2.4635 0.34757 0.014797-0.01719 0.1221-0.14184 0.14271-0.16578-0.085314 0.91758 6.2255 9.4824 16.008 17.904 9.9185 8.5381 19.417 13.692 20.075 13.323 0.024886 0.023184 0.024697 0.062494 0.050663 0.084846 1.255 1.0804 3.3138 0.74887 4.5774-0.71904 1.2636-1.4679 1.2648-3.5294 0.009776-4.6098 0.44197-0.51343-6.1907-9.2876-16.232-17.931-9.7827-8.4212-19.191-13.388-20.086-13.167 0.020614-0.023946 0.12792-0.1486 0.14271-0.16578 0.48617-0.56477 0.16441-1.6315-0.71014-2.3844s-1.9773-0.91234-2.4635-0.34757c-0.48617 0.56477-4.203 4.8825-4.6891 5.4472z" fill="url(#n)"/><path id="bw" d="m18.176 18.825c-0.48617 0.56477-0.16441 1.6315 0.71014 2.3844 0.87455 0.75284 1.9773 0.91234 2.4635 0.34757 0.014797-0.01719 0.1221-0.14184 0.14271-0.16578-0.085314 0.91758 6.2255 9.4824 16.008 17.904 9.9185 8.5381 19.417 13.692 20.075 13.323 0.024886 0.023184 0.024697 0.062494 0.050663 0.084846 1.255 1.0804 3.3138 0.74887 4.5774-0.71904 1.2636-1.4679 1.2648-3.5294 0.009776-4.6098 0.44197-0.51343-6.1907-9.2876-16.232-17.931-9.7827-8.4212-19.191-13.388-20.086-13.167 0.020614-0.023946 0.12792-0.1486 0.14271-0.16578 0.48617-0.56477 0.16441-1.6315-0.71014-2.3844s-1.9773-0.91234-2.4635-0.34757c-0.48617 0.56477-4.203 4.8825-4.6891 5.4472z" fill="url(#m)" opacity=".62903"/><path id="bx" d="m25.91 16.265-4.4612 5.1989c-0.51597 0.67392-1.8238 0.57649-2.9153-0.58705 2.7178-0.071524 7.2087-3.671 7.0241-6.9401 0.80442 0.90087 0.93834 1.7449 0.35233 2.3283z" fill="url(#l)" sodipodi:nodetypes="ccccc"/><path id="by" d="m21.531 21.371 4.3692-5.1049c0.2122-0.015677 0.33584 0.009126 1.3316 0.39154-1.2199-0.2984-5.4077 4.4805-4.9404 6.346-0.24456-0.3249-0.90313-1.482-0.76033-1.6327z" fill="url(#k)" sodipodi:nodetypes="ccccc"/><path id="bz" d="m62.25 48.255-4.6856 4.4061c-0.46862 0.58656-1.0297 0.6151-2.0286-0.40348 2.4786-0.054385 6.5641-3.1822 6.386-6.0355 0.73636 0.78851 0.861 1.5254 0.32823 2.0328z" fill="url(#j)" sodipodi:nodetypes="ccccc"/><path id="ca" d="m57.566 52.629 4.676-4.3736c0.19349-0.013054 0.30634 0.008956 1.2157 0.34561-1.1135-0.264-4.919 3.8939-4.4873 5.5232-0.22402-0.28424-1.5342-1.3641-1.4044-1.4952z" fill="url(#i)" sodipodi:nodetypes="ccccc"/><path id="cb" d="m42.083 26.1c-11.964-9.2026-18.521-11.381-14.15-5.593s16.442 15.211 22.259 17.175 3.9706-2.2903-8.1094-11.582z" fill="url(#t)" sodipodi:nodetypes="czzz"/><path id="cc" d="m24.274 12.658c-1.5618-0.53157-2.3044 1.1196-1.6228 1.6527 0.69488 0.54345 1.7368 0.76567 2.5587 0.39204 0.84428-0.38382 0.59415-1.5239-0.93585-2.0447z" fill="url(#h)" sodipodi:nodetypes="czzz"/><path id="cd" d="m18.133 17.521c-3.5571-0.68096-6.8967-4.6112-6.8967-4.6112 2.0304 1.3765 6.6323 3.8754 7.3039 3.7459" fill="#000" fill-opacity=".081448" sodipodi:nodetypes="ccc"/><path id="ce" d="m20.458 14.755c-0.79749-3.8811-2.5412-7.3558-2.5412-7.3558 1.7985 1.7476 2.4771 3.9533 3.1049 6.3116" fill="#000" fill-opacity=".081448" sodipodi:nodetypes="ccc"/><path id="cf" d="m19.162 16.425c-1.947-1.0835-3.699-3.3365-3.699-3.3365 2.0304 1.3765 3.6582 2.2654 4.1062 2.4712" fill="#000" fill-opacity=".081448" sodipodi:nodetypes="ccc"/><path id="cg" d="m18.367 6.4829c0.3598 1.3384 0.064369 2.0446-3.5058 1.3849-3.5701-0.65969-3.7275-2.117-7.5032-3.6072-2.85-1.1248 0.31939-2.0571 3.8895-1.3974 3.5701 0.65969 6.7596 2.2813 7.1194 3.6196z" fill="url(#g)" sodipodi:nodetypes="csssc"/></g><path id="ch" d="m8.1619 46.777c-0.52531 0.082976-0.88565 0.16805-1.2604 0.2529-1.3539 0.1983-2.5876 0.34428-4.166 0.63476 6.296 0.57683 6.4078 4.006 14.47 2.705 1.005-0.69933 2.3412-1.251 3.3462-1.9503-0.64372-0.9923-1.8582-1.6132-3.6852-1.9035-0.47319-0.14268-1.5055-0.17989-2.7986-0.17209-0.74686 0.001225-1.5606 0.033113-2.4403 0.097934-0.39408 0.025435-0.67917 0.007834-1.0878 0.044023-0.83895 0.074292-1.6693 0.17938-2.3777 0.29128zm13.704 1.1479c-0.5812 0.15244-0.80886 0.37686-0.72567 0.51633-0.85968 0.47898-3.5763 1.9808-3.9886 2.2105-0.38638 0.21527-0.14698 0.45262 0.42338 0.59486-0.026877 0.004582-0.061292 0.019241-0.08782 0.023524 0.059191 0.012648 0.1165 0.003422 0.17681 0.013638 0.064205 0.012996 0.075758 0.038069 0.14805 0.048451 0.40522 0.058184 0.85282 0.060947 1.2656 0.020184 0.007784-7.68e-4 0.021582-0.003668 0.029337-0.004469 0.4189-0.043251 0.79843-0.13143 1.0249-0.2576 0.008271-0.004608 0.053169-0.024666 0.08743-0.043753l0.058286-0.02917c-0.004902 0.020382 0.22046 0.098378 0.26735 0.13171 0.16556 0.10798 0.32406 0.22633 0.47602 0.27237-0.007805-0.009309 0.033787-0.034671 0.028559-0.044928 1.6802 0.66279 6.8241 2.0555 14.36 3.1376 7.6442 1.0976 14.752 1.4906 17.536 1.4872-0.17097 0.036211-0.36827 0.10563-0.52711 0.13104 0.94415 0.18678 1.4732 0.09781 1.9095-0.15907-0.090211 0.0625 1.1196 0.21494 1.3294 0.27422-0.054819-0.061442 0.10244-0.1963 0.17077-0.29991 0.99481-0.12277 2.0974-0.4341 2.867-0.86289 0.77437-0.43144 0.96373-0.84684 0.71361-1.1434 0.13525-0.035616 0.34163-0.12088 0.4389-0.12774-0.37421 0.009231-0.34321 0.017888-0.49972 0.025419-0.10442-0.076309-0.28479-0.12436-0.47408-0.17123 0.081932-0.15427 0.002361-0.30033-0.47855-0.40386 0.008164 0.039653-0.10805 0.097043-0.11502 0.13926-0.14094-0.079932-0.1191-0.12657-0.50517-0.25779-1.5028-0.51077-4.9252-1.3476-9.3986-2.1691-1.6388-0.40819-4.2159-0.88018-8.7362-1.3875-3.5201-0.39508-6.2972-0.60066-8.6645-0.71878-2.6255-0.16052-4.3844-0.19178-5.4761-0.16988 0.030264-0.004137 0.089712-0.03626 0.11696-0.038113-0.9372 0.018666-1.0354 0.030948-1.2345 0.066374l-1.95e-4 -0.010113c0.031976-0.017818 0.10447-0.051596 0.11657-0.05834 0.088114-0.04909 0.023693-0.099574 0.055953-0.15054 0.049699-0.071061 0.13436-0.14101 0.084318-0.20558-0.040999-0.052054-0.17115-0.086877-0.26735-0.13171-0.11012-0.051749-0.14001-0.10983-0.32661-0.15312 0.001325 0.007057-0.029865 0.017572-0.028949 0.024699-0.010001-0.002194-0.019315-0.00351-0.029533-0.005644 0.006184-0.15577-0.24143-0.28231-1.1524-0.25047-0.36739 0.012839-0.70735 0.068944-0.96835 0.1374z" fill="#000" fill-opacity=".1086" fill-rule="evenodd" opacity=".4879"/><path id="ci" d="m8.1619 46.777c-0.52531 0.082976-0.88565 0.16805-1.2604 0.2529-1.3539 0.1983-2.5876 0.34428-4.166 0.63476 6.296 0.57683 6.4078 4.006 14.47 2.705 1.005-0.69933 2.3412-1.251 3.3462-1.9503-0.64372-0.9923-1.8582-1.6132-3.6852-1.9035-0.47319-0.14268-1.5055-0.17989-2.7986-0.17209-0.74686 0.001225-1.5606 0.033113-2.4403 0.097934-0.39408 0.025435-0.67917 0.007834-1.0878 0.044023-0.83895 0.074292-1.6693 0.17938-2.3777 0.29128zm13.704 1.1479c-0.5812 0.15244-0.80886 0.37686-0.72567 0.51633-0.85968 0.47898-3.5763 1.9808-3.9886 2.2105-0.38638 0.21527-0.14698 0.45262 0.42338 0.59486-0.026877 0.004582-0.061292 0.019241-0.08782 0.023524 0.059191 0.012648 0.1165 0.003422 0.17681 0.013638 0.064205 0.012996 0.075758 0.038069 0.14805 0.048451 0.40522 0.058184 0.85282 0.060947 1.2656 0.020184 0.007784-7.68e-4 0.021582-0.003668 0.029337-0.004469 0.4189-0.043251 0.79843-0.13143 1.0249-0.2576 0.008271-0.004608 0.053169-0.024666 0.08743-0.043753l0.058286-0.02917c-0.004902 0.020382 0.22046 0.098378 0.26735 0.13171 0.16556 0.10798 0.32406 0.22633 0.47602 0.27237-0.007805-0.009309 0.033787-0.034671 0.028559-0.044928 1.6802 0.66279 6.8241 2.0555 14.36 3.1376 7.6442 1.0976 14.752 1.4906 17.536 1.4872-0.17097 0.036211-0.36827 0.10563-0.52711 0.13104 0.94415 0.18678 1.4732 0.09781 1.9095-0.15907-0.090211 0.0625 1.1196 0.21494 1.3294 0.27422-0.054819-0.061442 0.10244-0.1963 0.17077-0.29991 0.99481-0.12277 2.0974-0.4341 2.867-0.86289 0.77437-0.43144 0.96373-0.84684 0.71361-1.1434 0.13525-0.035616 0.095693-0.10985-0.060815-0.10232-0.10442-0.076309-0.28479-0.12436-0.47408-0.17123 0.081932-0.15427 0.002361-0.30033-0.47855-0.40386 0.008164 0.039653-0.10805 0.097043-0.11502 0.13926-0.14094-0.079932-0.1191-0.12657-0.50517-0.25779-1.5028-0.51077-4.9252-1.3476-9.3986-2.1691-1.6388-0.40819-4.2159-0.88018-8.7362-1.3875-3.5201-0.39508-6.2972-0.60066-8.6645-0.71878-2.6255-0.16052-4.3844-0.19178-5.4761-0.16988 0.030264-0.004137 0.089712-0.03626 0.11696-0.038113-0.9372 0.018666-1.0354 0.030948-1.2345 0.066374l-1.95e-4 -0.010113c0.031976-0.017818 0.10447-0.051596 0.11657-0.05834 0.088114-0.04909 0.023693-0.099574 0.055953-0.15054 0.049699-0.071061 0.13436-0.14101 0.084318-0.20558-0.040999-0.052054-0.17115-0.086877-0.26735-0.13171-0.11012-0.051749-0.14001-0.10983-0.32661-0.15312 0.001325 0.007057-0.029865 0.017572-0.028949 0.024699-0.010001-0.002194-0.019315-0.00351-0.029533-0.005644 0.006184-0.15577-0.24143-0.28231-1.1524-0.25047-0.36739 0.012839-0.70735 0.068944-0.96835 0.1374z" fill="#000" fill-opacity=".1086" fill-rule="evenodd" opacity=".50403" sodipodi:nodetypes="ccccccssscccssssssssccsscsccsccsccccsscscssccssssssssc"/><g id="cj" transform="matrix(.93809 0 0 .94009 3.1349 .2875)"><path id="ck" d="m14.82 57.406c1.6789 4.1562 5.7233 6.4368 9.0363 5.0985 3.319-1.3407 4.6452-5.7908 2.9663-9.947-1.6756-4.1482-2.8837-7.1302-4.62-7.979-2.7917-1.3644-9.0583 8.6793-7.3827 12.827z" fill="url(#ae)" stroke="url(#ad)" stroke-miterlimit="4" stroke-width="1.2634"/><path id="cl" d="m17.006 54.26c1.094 2.7084 3.7264 4.1891 5.8809 3.3188 2.1581-0.87176 3.02-3.7634 1.9257-6.4723-1.0908-2.7003-1.8721-4.6344-3.0046-5.1928-1.8158-0.88395-5.8928 5.646-4.802 8.3463z" fill="url(#ac)" adobe-blending-mode="screen"/><path id="cm" d="m14.875 57.54c1.6789 4.1562 5.7233 6.4368 9.0363 5.0985 3.319-1.3407 4.6452-5.7908 2.9663-9.947-1.6756-4.1482-2.8837-7.1302-4.62-7.979-2.7917-1.3644-9.0583 8.6793-7.3827 12.827z" fill="url(#s)"/></g><g id="cn" transform="matrix(.93809 0 0 .94009 5.9624 .23531)"><path id="co" d="m29.082 57.525c1.7164 4.1408 5.7814 6.3847 9.0821 5.0165 3.3067-1.3707 4.5926-5.8327 2.8762-9.9735-1.7131-4.1328-2.9482-7.1038-4.6921-7.9368-2.804-1.3391-8.9794 8.761-7.2662 12.894z" fill="url(#ab)" stroke="url(#aa)" stroke-miterlimit="4" stroke-width="1.2634"/><path id="cp" d="m31.239 54.36c1.1185 2.6983 3.7641 4.1552 5.9107 3.2654 2.1501-0.89126 2.9858-3.7905 1.8671-6.4895-1.1152-2.6904-1.9139-4.6172-3.0515-5.1654-1.8237-0.86748-5.8415 5.6991-4.7263 8.3894z" fill="url(#z)" adobe-blending-mode="screen"/><path id="cq" d="m29.082 57.525c1.7164 4.1408 5.7814 6.3847 9.0821 5.0165 3.3067-1.3707 4.5926-5.8327 2.8762-9.9735-1.7131-4.1328-2.9482-7.1038-4.6921-7.9368-2.804-1.3391-8.9794 8.761-7.2662 12.894z" fill="url(#r)"/></g><g id="cr" transform="matrix(.93809 0 0 .94009 .33385 .1122)"><path id="cs" d="m0.50493 57.36c1.5413 4.2091 5.5085 6.6216 8.8638 5.393 3.3613-1.2308 4.8332-5.6349 3.2919-9.8441-1.5383-4.201-2.6477-7.2212-4.3551-8.1266-2.7454-1.4555-9.3389 8.3767-7.8006 12.578z" fill="url(#y)" stroke="url(#x)" stroke-miterlimit="4" stroke-width="1.2634"/><path id="ct" d="m2.7928 54.289c1.0044 2.7429 3.5866 4.3094 5.7685 3.5104 2.1856-0.80031 3.1422-3.662 2.1376-6.4054-1.0014-2.7348-1.7186-4.6935-2.8322-5.2888-1.7858-0.94319-6.0753 5.4491-5.0739 8.1838z" fill="url(#w)" adobe-blending-mode="screen"/><path id="cu" d="m0.50493 57.36c1.5413 4.2091 5.5085 6.6216 8.8638 5.393 3.3613-1.2308 4.8332-5.6349 3.2919-9.8441-1.5383-4.201-2.6477-7.2212-4.3551-8.1266-2.7454-1.4555-9.3389 8.3767-7.8006 12.578z" fill="url(#q)"/></g></g></svg>
