<?xml version="1.0" encoding="UTF-8"?>
<svg id="a" enable-background="new 0 0 97 97" version="1.1" viewBox="0 0 97 97" xml:space="preserve" xmlns="http://www.w3.org/2000/svg">
<g id="b" fill="#f05133">
	<path id="c" d="m48.408 2.5586c-1.5145 0-3.0295 0.57692-4.1855 1.7324-1.2398 1.24-2.5034 2.5013-3.7383 3.7363-2e-6 6.506e-4 2e-6 0.0013024 0 0.0019531-0.041071 12.158-0.087443 24.335-0.17383 36.492l16.406-21.969 13.25 3.0469-17.086 21.969 16.949 23.303-12.977 4.1074-16.543-24.227v21.846l-12.311 1.8496 0.003906-53.939c-7.8227 7.8219-15.536 15.534-23.717 23.715-2.311 2.313-2.311 6.0601 0 8.3711l40.121 40.117c2.31 2.311 6.0561 2.311 8.3691 0l39.934-39.932c2.311-2.311 2.311-6.0601 0-8.3711l-40.119-40.117c-1.155-1.1555-2.6691-1.7324-4.1836-1.7324z" fill="#f05133"/>
</g>
</svg>
