<?xml version="1.0" encoding="UTF-8"?>
<!DOCTYPE svg  PUBLIC '-//W3C//DTD SVG 20010904//EN'  'http://www.w3.org/TR/2001/REC-SVG-20010904/DTD/svg10.dtd'>
<svg id="f" width="128pt" height="128pt" xmlns="http://www.w3.org/2000/svg" xmlns:xlink="http://www.w3.org/1999/xlink"><defs id="g"><linearGradient id="a"><stop id="h" stop-color="#005f95" offset="0"/><stop id="i" stop-color="#fff" offset="1"/></linearGradient><linearGradient id="e" x1=".93023" x2=".16279" y1=".94531" y2="-.046875" xlink:href="#a"/><linearGradient id="d" x1="-.28846" x2="1.0769" y1=".019355" y2="1.0968" xlink:href="#a"/><linearGradient id="c" x1="-.28846" x2="1.0769" y1=".019355" y2="1.0968"><stop id="j" stop-color="#3f9f00" offset="0"/><stop id="k" stop-color="#fff" offset="1"/></linearGradient><linearGradient id="b" x1=".93023" x2=".16279" y1=".94531" y2="-.046875"><stop id="l" stop-color="#26a500" offset="0"/><stop id="m" stop-color="#fff" offset="1"/></linearGradient></defs><g id="n" transform="matrix(.6307 0 0 .6307 -18.696 -336.2)" fill-rule="evenodd"><path id="o" transform="matrix(.97846 0 0 .97846 -154.68 165.79)" d="m421.25 426.98-159.97-42.114-1.2796 197.81 158.69 45.942 2.5594-201.64z" stroke-width="5.625"/><path id="p" transform="matrix(.97846 0 0 .97846 -154.68 165.79)" d="m416.25 423.61-156.25-41.25-1.25 193.75 155 45 2.5-197.5z" fill="url(#e)" stroke="url(#d)" stroke-width="5.625"/><path id="q" transform="matrix(.97846 0 0 .97846 -154.68 165.79)" d="m416.25 423.61-156.25-42.5-1.25 108.75 155 45 2.5-111.25z" fill="#fff" fill-opacity=".4173" stroke-width="5.625"/><path id="r" transform="matrix(.97846 0 0 .97846 -154.68 165.79)" d="m402.5 577.36-135-38.75-1.25 7.5 136.25 42.5v-11.25z" fill-opacity=".1181" stroke-width="5.625"/><path id="s" transform="matrix(.97846 0 0 .97846 -154.68 165.79)" d="m402.5 552.36-135-38.75-1.25 7.5 136.25 42.5v-11.25z" fill-opacity=".2913" stroke-width="5.625"/><path id="t" transform="matrix(.97846 0 0 .97846 -154.68 165.79)" d="m402.5 527.36-135-38.75-1.25 7.5 136.25 42.5v-11.25z" fill-opacity=".5197" stroke-width="5.625"/><path id="u" transform="matrix(.97846 0 0 .97846 -154.68 165.79)" d="m402.5 502.36-135-38.75-1.25 7.5 136.25 42.5v-11.25z" fill="#00b100" fill-opacity=".685" stroke="#7eff00" stroke-opacity=".6549" stroke-width="5.625"/><path id="v" transform="matrix(.97846 0 0 .97846 -154.68 165.79)" d="m402.5 477.36-135-38.75 0.1591 7.5 134.84 42.5v-11.25z" fill="#00b700" stroke="#7eff00" stroke-opacity=".6549" stroke-width="5.625"/><path id="w" transform="matrix(.97846 0 0 .97846 -154.68 165.79)" d="m402.5 452.36-135-38.75 0.1591 7.1477 134.84 42.852v-11.25z" stroke-width="5.625"/><path id="x" transform="matrix(.97846 0 0 .97846 -154.68 165.79)" d="m416.25 426.11-153.75-40-2.5 187.5 76.25-73.75 80-73.75z" fill="#fff" fill-opacity=".1811" stroke-width="5.625"/><path id="y" transform="matrix(.75512 0 0 .75512 -136.64 311.61)" d="m421.25 426.98-159.97-42.114-1.2796 197.81 158.69 45.942 2.5594-201.64z" stroke-width="5.625"/><path id="z" transform="matrix(.75512 0 0 .75512 -136.64 311.61)" d="m416.25 423.61-156.25-41.25-1.25 193.75 155 45 2.5-197.5z" fill="url(#b)" stroke="url(#c)" stroke-width="5.625"/><path id="aa" transform="matrix(.75512 0 0 .75512 -136.64 311.61)" d="m416.25 423.61-156.25-42.5-1.25 108.75 155 45 2.5-111.25z" fill="#fff" fill-opacity=".4173" stroke-width="5.625"/><path id="ab" transform="matrix(.75512 0 0 .75512 -136.64 311.61)" d="m402.5 577.36-135-38.75 0.1194 7.5 134.88 42.5v-11.25z" fill-opacity=".1181" stroke-width="5.625"/><path id="ac" transform="matrix(.75512 0 0 .75512 -136.64 311.61)" d="m402.5 552.36-135-38.75 0.1194 7.5 134.88 42.5v-11.25z" fill-opacity=".2913" stroke-width="5.625"/><path id="ad" transform="matrix(.75512 0 0 .75512 -136.64 311.61)" d="m402.5 527.36-135-38.75 0.1194 7.5 134.88 42.5v-11.25z" fill-opacity=".5197" stroke-width="5.625"/><path id="ae" transform="matrix(.75512 0 0 .75512 -136.64 311.61)" d="m402.5 502.36-135-38.75 0.1194 7.5 134.88 42.5v-11.25z" fill="#003adb" fill-opacity=".685" stroke="#00f" stroke-opacity=".6535" stroke-width="5.6283"/><path id="af" transform="matrix(.75512 0 0 .75512 -136.64 311.61)" d="m402.5 477.36-135-38.75 0.1194 7.5 134.88 42.5v-11.25z" fill="#0044db" stroke="#00f" stroke-width="3.3107"/><path id="ag" transform="matrix(.75512 0 0 .75512 -136.64 311.61)" d="m402.5 452.36-135-38.75 0.1194 7.9565 134.88 42.044v-11.25z" stroke-width="5.625"/><path id="ah" transform="matrix(.75512 0 0 .75512 -136.64 311.61)" d="m416.25 426.11-153.75-40-2.5 187.5 76.25-73.75 80-73.75z" fill="#fff" fill-opacity=".1811" stroke-width="5.625"/></g></svg>
