<?xml version="1.0" encoding="UTF-8"?>
<!DOCTYPE svg  PUBLIC '-//W3C//DTD SVG 20000303 Stylable//EN'  'http://www.w3.org/TR/2000/03/WD-SVG-20000303/DTD/svg-20000303-stylable.dtd' [
	<!ENTITY st0 "fill:url(#aigrd3);">
	<!ENTITY st1 "opacity:0.1;fill:#0000CF;">
	<!ENTITY st2 "fill-rule:nonzero;clip-rule:nonzero;stroke:#FFFFFF;stroke-width:0;stroke-miterlimit:4;">
	<!ENTITY st3 "fill:url(#aigrd17);">
	<!ENTITY st4 "fill:url(#aigrd18);">
	<!ENTITY st5 "fill:url(#aigrd19);">
	<!ENTITY st6 "fill:url(#aigrd20);">
	<!ENTITY st7 "fill:url(#aigrd21);">
	<!ENTITY st8 "fill:url(#aigrd22);">
	<!ENTITY st9 "fill:url(#aigrd23);">
	<!ENTITY st10 "fill:url(#aigrd24);">
	<!ENTITY st11 "fill:url(#aigrd25);">
	<!ENTITY st12 "fill:url(#aigrd26);">
	<!ENTITY st13 "fill:url(#aigrd27);">
	<!ENTITY st14 "fill:url(#aigrd28);">
	<!ENTITY st15 "fill:url(#aigrd29);">
	<!ENTITY st16 "fill:url(#aigrd30);">
	<!ENTITY st17 "fill:url(#aigrd31);">
	<!ENTITY st18 "fill:url(#aigrd32);">
	<!ENTITY st19 "fill:url(#aigrd33);">
	<!ENTITY st20 "fill:url(#aigrd34);">
	<!ENTITY st21 "fill:url(#aigrd35);">
	<!ENTITY st22 "fill:url(#aigrd36);">
	<!ENTITY st23 "fill:url(#aigrd37);">
	<!ENTITY st24 "fill:url(#aigrd38);">
	<!ENTITY st25 "fill:url(#aigrd39);">
	<!ENTITY st26 "opacity:0.2;">
	<!ENTITY st27 "fill:none;">
	<!ENTITY st28 "fill-rule:evenodd;clip-rule:evenodd;fill:url(#aigrd1);">
	<!ENTITY st29 "fill-rule:evenodd;clip-rule:evenodd;fill:url(#aigrd2);">
	<!ENTITY st30 "fill-rule:evenodd;clip-rule:evenodd;fill:url(#aigrd4);">
	<!ENTITY st31 "fill-rule:evenodd;clip-rule:evenodd;fill:url(#aigrd5);">
	<!ENTITY st32 "fill-rule:evenodd;clip-rule:evenodd;fill:url(#aigrd6);">
	<!ENTITY st33 "fill-rule:evenodd;clip-rule:evenodd;fill:url(#aigrd7);">
	<!ENTITY st34 "fill-rule:evenodd;clip-rule:evenodd;fill:url(#aigrd8);">
	<!ENTITY st35 "fill-rule:evenodd;clip-rule:evenodd;fill:url(#aigrd9);">
	<!ENTITY st36 "fill-rule:evenodd;clip-rule:evenodd;fill:url(#aigrd10);">
	<!ENTITY st37 "fill-rule:evenodd;clip-rule:evenodd;fill:url(#aigrd11);">
	<!ENTITY st38 "fill-rule:evenodd;clip-rule:evenodd;fill:url(#aigrd12);">
	<!ENTITY st39 "fill-rule:evenodd;clip-rule:evenodd;fill:url(#aigrd13);">
	<!ENTITY st40 "fill-rule:evenodd;clip-rule:evenodd;fill:url(#aigrd14);">
	<!ENTITY st41 "fill-rule:evenodd;clip-rule:evenodd;fill:url(#aigrd15);">
	<!ENTITY st42 "fill-rule:evenodd;clip-rule:evenodd;fill:url(#aigrd16);">
	<!ENTITY st43 "fill:none;stroke:none;">
	<!ENTITY st44 "stroke:none;">
]>
<svg width="144pt" height="144pt" viewBox="0 0 144 144" xml:space="preserve" xmlns="http://www.w3.org/2000/svg">
	<g id="an" clip-rule="nonzero" fill-rule="nonzero" stroke-miterlimit="4" stroke-width="0">
		<path d="M144,144H0V0h144v144z" fill="none"/>
		<g>
			<path d="m142.21 125.08-6.779-6.777 1.724-1.723c0.438-0.439 0.521-1.121 0.198-1.648l-12.145-20.006c1.35-2.393 2.521-4.91 3.488-7.537 0.065-0.176 0.054-0.373-0.031-0.539-0.087-0.168-0.237-0.291-0.42-0.342l-6.338-1.744c-0.034-0.01-0.067-6e-3 -0.102-0.01 1.771-4.832 2.739-10.049 2.739-15.49 0-24.561-19.973-44.716-44.599-44.716-5.521 0-10.817 1.036-15.716 2.909 0.021-0.091 0.029-0.185 8e-3 -0.281l-1.416-6.458c-0.041-0.189-0.162-0.353-0.331-0.446-0.171-0.092-0.372-0.108-0.554-0.043-2.619 0.947-5.128 2.094-7.514 3.416-0.033-0.025-0.061-0.057-0.096-0.078l-19.826-13.003c-0.533-0.349-1.237-0.276-1.688 0.174l-2.474 2.473-6.988-6.989c-0.126-0.126-0.297-0.197-0.476-0.197-0.178 0-0.35 0.071-0.475 0.197l-5.028 5.028c-0.263 0.263-0.263 0.688 0 0.951l6.989 6.988-1.936 1.936c-0.438 0.438-0.52 1.117-0.199 1.647l12.349 20.337 2e-3 2e-3c-2.059 3.534-3.705 7.314-4.895 11.268l-22.74 4.729c-0.623 0.13-1.07 0.68-1.07 1.316v14.689c0 0.619 0.424 1.158 1.025 1.305l22.088 5.4c1.132 4.598 2.874 8.959 5.137 12.99l-12.787 19.5c-0.348 0.533-0.275 1.238 0.174 1.689l10.388 10.385c0.438 0.439 1.118 0.52 1.647 0.199l19.934-12.1c3.765 2.193 7.826 3.93 12.11 5.133l4.628 22.252c0.129 0.625 0.68 1.072 1.316 1.072h14.688c0.619 0 1.157-0.426 1.304-1.025l5.398-22.08c4.54-1.199 8.873-3 12.893-5.328l19.267 12.633c0.532 0.35 1.236 0.277 1.688-0.174l2.684-2.684 6.778 6.777c0.265 0.264 0.688 0.264 0.951 0l5.028-5.027c0.262-0.262 0.262-0.688 0-0.951zm-106.74-58.871c0.013-0.162 0.025-0.325 0.038-0.487-0.013 0.162-0.026 0.324-0.038 0.487zm-0.109 2.787c4e-3 -0.534 0.017-1.068 0.041-1.6-0.022 0.531-0.039 1.064-0.041 1.6z" opacity=".2"/>
			<g>
				<g>
					<radialGradient id="am" cx="71.755" cy="-65.269" r="81.756" gradientTransform="matrix(1.0203 0 0 .9713 -32.316 104.46)" gradientUnits="userSpaceOnUse">
						<stop stop-color="#fff" offset="0"/>
						<stop stop-color="#D4FFFF" offset=".1685"/>
						<stop stop-color="#51A8FF" offset=".7921"/>
					</radialGradient>
					<path d="m74.877 109.07c24.625 0 44.598-20.152 44.598-44.876 0-24.562-19.973-44.716-44.598-44.716-24.453 0-44.597 20.154-44.597 44.716 0 24.724 20.144 44.876 44.597 44.876z" clip-rule="evenodd" fill="url(#am)" fill-rule="evenodd"/>
					<radialGradient id="ab" cx="103.01" cy="-11.74" r="57.695" gradientTransform="matrix(1.0203 0 0 .9713 -32.316 104.46)" gradientUnits="userSpaceOnUse">
						<stop stop-color="#fff" offset="0"/>
						<stop stop-color="#CCF0FF" offset=".3034"/>
						<stop stop-color="#1D6CE9" offset="1"/>
					</radialGradient>
					<path d="m74.877 106.87c23.416 0 42.411-19.162 42.411-42.672 0-23.36-18.995-42.527-42.411-42.527-23.251 0-42.41 19.167-42.41 42.527 0 23.51 19.159 42.672 42.41 42.672z" clip-rule="evenodd" fill="url(#ab)" fill-rule="evenodd"/>
					<path d="m52.627 64.953c-0.389-0.37-0.131-1.984-0.131-1.984s-5.815-3.096-12.148-4.956c-0.783-0.231-0.388-1.859 0.386-2.479l-0.259-1.738c-0.127-0.865 1.295-5.08 2.716-5.451 1.421-0.372-0.13 2.479-0.13 2.479l-1.422 0.868s1.682 1.982 2.069 1.982c0.386 0 1.034-0.994 1.034-0.994l-1.809-1.234 1.678-0.748 0.105-0.652 0.284-0.092 2.78-4.266c1.923-0.799 4.285-1.785 4.586-1.932 0.518-0.245 4.136-2.353 4.783-2.848 0.646-0.497 2.068-0.373 2.583-0.373 0.519 0 1.293-0.247 1.423-1.613 0.13-1.361 0.646-1.611 1.035-1.238 0.387 0.371-0.389 0.99 0.516 1.238 0.906 0.25 1.679 0.871 2.326 0.25 0.474-0.455-0.158-0.973-0.584-1.363h7.176l0.775-2.234-1.679-0.246-6.206-0.619v-0.744l-0.494 0.084c0.672-3.74 4.662-3.123 1.659-5.289-0.185-0.131-2.812 4.195-3.479 4.111-1.212-0.16-2.779-0.174-3.114 0.226-0.438 0.526 0.993-1.813 2.228-2.522-1.969 0.587-8.189 2.742-14.764 9.837-6.286 6.781-8.791 15.917-8.791 16.237 0 0.619 1.295 0.868 1.424 1.613 0.129 0.74-2.455 3.221-2.455 4.459 0 0.572-0.609 8.211 1.549 14.504 2.523 7.346 7.906 13.479 8.532 13.883l1.292-0.619s-2.972-5.332-3.101-5.828c-0.13-0.496 3.36-7.684 5.04-7.436s1.292 0.744 2.326 0.123c1.033-0.617 1.68-5.704 2.842-6.195 1.166-0.497 2.458-1.115 2.33-2.356-0.131-1.241-4.525-3.47-4.912-3.843zm9.305-34.582c-0.191 0-0.402 0.078-0.617 0.203 0.506-0.151 0.745-0.203 0.617-0.203zm12.539 2.478 0.125-1.859-1.936 0.125 0.259 1.734h1.552zm6.202-4.337-3.489-1.242 0.647 1.986 2.842-0.744zm-13.054 4.585c0.389 0 8.144-5.205 7.366-5.329-0.773-0.123-0.904 0-2.972-0.249s-4.268 2.977-4.783 3.471c-0.516 0.498-0.344 2.107 0.389 2.107zm21.076 46.216s-0.877 0.236 0.123 0.596c1.001 0.359 5.004-5.852 5.004-5.852l-3.378 2.148-1.749 3.107zm24.143-18.996-0.653-1.281c-0.773-4.419-2.547-10.077-6.351-15.923-5.723-8.785-21.645-13.855-21.645-13.855l-0.875 1.072-0.501-0.832-1.25-0.48v1.076l1.126 0.956-0.75 0.358-2.88 0.237-6.504 3.585 0.624 2.868-0.752 0.24-0.373 0.594 2.127 3.226 0.123 1.076-1.749 0.358v2.149l-1 0.238 0.126 1.672-8.51 5.977 0.25 3.342c0.626 0.838 5.507 5.856 5.507 5.856s5.627 0.234 6.88-0.479c1.251-0.718 0.374 0.713 0.75 1.073s0.501 2.866 0.875 3.108c0.374 0.239 0 1.669 0.5 2.149 0.501 0.477 0.501 6.213 0.501 6.213s3.004 5.137 3.004 6.451-0.127 1.195 2.252 1.074c2.377-0.119 2.875-1.074 3.376-1.432 0.503-0.359 0.503-1.195 1.004-1.912 0.5-0.717 1.373-3.465 2.499-4.42 1.128-0.957 4.128-1.676 4.379-3.346 0.25-1.674 1.376-2.99 1.376-2.99l5.41-5.793-0.154 0.779-0.127 2.983 1.627-0.595-0.123-3.227-0.586-0.629 0.083-0.088s-0.374-0.716-0.874-0.716c-0.499 0-3.503 0.716-4.004 0.597-0.5-0.119-2.628-5.854-3.004-6.092-0.374-0.238-2.75-4.182-2.75-4.182s5.503 6.691 6.38 9.317c0.508 1.53 2.416 0.106 3.972-1.489l0.407 1.014 1.001-0.24-0.124-1.195h1.126v1.793l-0.376 0.955-0.129 1.55 1.003 0.96 0.501-0.836 1.625-1.555 1.878-0.956 0.5 0.956 0.252 1.315-0.503 1.432-1.001 0.837-0.501 2.152v1.072l-1.126-0.717-0.123-2.267-1.626 0.119-0.75 2.028 1.124 1.674 2.628 0.357 2.127-2.031 0.249-3.939 0.946-1.264c0.617 1.603 1.057 3.283 1.057 4.848 0 1.715 0.773-1.189 0.117-6.42l0.382-0.511zm-31.526-12.184-6.754-0.24 2.876-2.389h1.502l2.376 1.67v0.959zm8.258-0.836v1.074h-2.878l0.252 0.717-1.756 0.241-0.12 0.595-1.253-0.237-2.252-0.479 0.376-0.594 0.374-0.721 1.25-1.313 0.501 0.954 1.878-0.118 1.002-1.076 3.874 0.715-1.248 0.242zm0.249-1.555-1.502 0.238-0.247-1.074 1.871-0.238 0.254-1.075 1.377 1.435-1.753 0.715zm13.385 24.731 1.004-1.316-1.004-0.356-0.75 0.956-0.874 1.313 0.75 0.358 0.874-0.954zm-6.128 12.422-0.877 0.719 0.125 1.793h1.128v-1.555l0.999-1.313v-2.748l-0.625-0.125-0.75 3.229zm10.51-8.122-0.254-1.91h-1.622l-0.127 1.43-1.504-0.236-0.372-1.555-0.75-0.475-0.877 1.074-0.874-0.238-0.252 0.834 1.002 0.24v7.766l3.542 0.863c-0.083 0.145-0.145 0.264-0.166 0.328-0.25 0.838 1.001 1.197 1.876 0.838 0.324-0.133 1.354-1.184 2-2.746 0.902-2.17 1.69-5.037 1.849-6.051l0.405-0.879-2.503 0.955-1.373-0.238z" fill="#0000CF" opacity=".1"/>
					<radialGradient id="q" cx="66.017" cy="39.613" r="47.685" gradientUnits="userSpaceOnUse">
						<stop stop-color="#68C0FF" offset=".2978"/>
						<stop stop-color="#65BCFE" offset=".4282"/>
						<stop stop-color="#5DB1FA" offset=".5458"/>
						<stop stop-color="#509FF3" offset=".6585"/>
						<stop stop-color="#3D85EA" offset=".7681"/>
						<stop stop-color="#2464DE" offset=".8756"/>
						<stop stop-color="#063CCF" offset=".98"/>
						<stop stop-color="#03c" offset="1"/>
					</radialGradient>
					<path d="m60.789 26.361c-0.211 0-0.439 0.086-0.674 0.221 0.552-0.163 0.812-0.221 0.674-0.221zm13.654 2.676 0.139-2.007-2.109 0.134 0.281 1.873h1.689zm-23.79 34.68c-0.423-0.4-0.14-2.145-0.14-2.145s-6.336-3.344-13.234-5.354c-0.851-0.25-0.42-2.008 0.42-2.676l-0.279-1.879c-0.141-0.936 1.408-5.486 2.957-5.887 1.549-0.404-0.142 2.676-0.142 2.676l-1.549 0.938s1.831 2.142 2.254 2.142 1.126-1.073 1.126-1.073l-1.972-1.335 1.831-0.806 0.115-0.707 0.307-0.096 3.029-4.609c2.093-0.861 4.668-1.929 4.995-2.086 0.562-0.266 4.505-2.54 5.208-3.076 0.705-0.537 2.251-0.402 2.813-0.402 0.566 0 1.41-0.269 1.551-1.743 0.142-1.472 0.705-1.741 1.127-1.339 0.421 0.402-0.424 1.071 0.563 1.339 0.986 0.271 1.828 0.938 2.533 0.271 0.516-0.492-0.174-1.05-0.638-1.473h7.815l0.848-2.414-1.83-0.267-6.76-0.668v-0.804l-0.539 0.091c0.732-4.039 5.08-3.373 1.809-5.712-0.2-0.144-3.062 4.531-3.791 4.441-1.318-0.176-3.025-0.189-3.389 0.242-0.479 0.568 1.08-1.959 2.424-2.725-2.145 0.635-8.917 2.963-16.078 10.625-6.846 7.325-9.573 17.193-9.573 17.539 0 0.668 1.407 0.937 1.549 1.742 0.141 0.799-2.674 3.479-2.674 4.816 0 0.619-0.664 8.87 1.688 15.668 2.747 7.934 8.609 14.559 9.293 14.994l1.405-0.668s-3.237-5.758-3.377-6.295c-0.141-0.535 3.66-8.301 5.49-8.031 1.828 0.264 1.406 0.803 2.534 0.133 1.126-0.668 1.829-6.16 3.095-6.692 1.268-0.538 2.676-1.208 2.537-2.546-0.143-1.342-4.928-3.748-5.351-4.15zm30.546-39.363-3.8-1.342 0.705 2.145 3.095-0.803zm-14.217 4.953c0.423 0 8.87-5.622 8.022-5.758-0.843-0.133-0.983 0-3.237-0.268-2.252-0.27-4.646 3.213-5.209 3.749-0.561 0.537-0.371 2.276 0.424 2.276zm38.757 40.369 1.093-1.42-1.093-0.385-0.817 1.033-0.951 1.416 0.814 0.39 0.954-1.034zm4.77 4.65-0.275-2.066h-1.768l-0.136 1.545-1.639-0.254-0.406-1.681-0.816-0.514-0.954 1.161-0.952-0.258-0.275 0.9 1.091 0.262v8.387l3.856 0.932c-0.089 0.156-0.156 0.285-0.178 0.355-0.275 0.904 1.089 1.295 2.04 0.904 0.354-0.145 1.479-1.281 2.183-2.963 0.979-2.346 1.839-5.443 2.011-6.539l0.441-0.947-2.725 1.033-1.498-0.258zm5.722-15.617-0.71-1.385c-0.846-4.771-2.774-10.884-6.917-17.197-6.233-9.491-23.574-14.967-23.574-14.967l-0.954 1.158-0.546-0.899-1.361-0.521v1.162l1.227 1.035-0.817 0.387-3.134 0.256-7.087 3.872 0.681 3.097-0.817 0.261-0.408 0.644 2.318 3.481 0.134 1.165-1.907 0.385v2.322l-1.088 0.258 0.137 1.807-9.268 6.455 0.272 3.61c0.682 0.903 5.997 6.325 5.997 6.325s6.13 0.254 7.491-0.518c1.363-0.773 0.41 0.771 0.819 1.161 0.408 0.39 0.544 3.095 0.952 3.356 0.409 0.257 0 1.805 0.546 2.322 0.544 0.514 0.544 6.713 0.544 6.713s3.271 5.546 3.271 6.966-0.137 1.291 2.454 1.164c2.588-0.131 3.133-1.164 3.675-1.547 0.548-0.391 0.548-1.293 1.092-2.068 0.547-0.775 1.496-3.742 2.726-4.773 1.227-1.035 4.496-1.809 4.769-3.613 0.271-1.808 1.498-3.229 1.498-3.229l5.892-6.26-0.166 0.842-0.139 3.223 1.771-0.642-0.134-3.486-0.638-0.677 0.091-0.098s-0.407-0.771-0.951-0.771c-0.547 0-3.817 0.771-4.36 0.645-0.546-0.13-2.863-6.324-3.272-6.58-0.408-0.26-2.996-4.518-2.996-4.518s5.994 7.228 6.947 10.063c0.553 1.652 2.633 0.114 4.326-1.61l0.445 1.096 1.091-0.26-0.139-1.289h1.227v1.936l-0.407 1.032-0.141 1.675 1.09 1.035 0.549-0.901 1.767-1.679 2.044-1.034 0.547 1.034 0.272 1.421-0.546 1.546-1.092 0.903-0.545 2.324v1.158l-1.225-0.774-0.137-2.45-1.769 0.131-0.817 2.19 1.225 1.81 2.859 0.386 2.317-2.195 0.273-4.255 1.028-1.367c0.673 1.732 1.15 3.549 1.15 5.238 0 1.852 0.845-1.283 0.128-6.935l0.418-0.552zm-34.335-13.161-7.355-0.261 3.131-2.58h1.637l2.588 1.805v1.036zm8.992-0.905v1.162h-3.133l0.273 0.775-1.907 0.261-0.137 0.644-1.363-0.258-2.452-0.518 0.409-0.645 0.41-0.777 1.359-1.418 0.546 1.033 2.044-0.129 1.091-1.163 4.221 0.774-1.361 0.258zm0.273-1.678-1.635 0.258-0.273-1.162 2.043-0.256 0.274-1.162 1.5 1.551-1.909 0.771zm7.903 40.131-0.956 0.777 0.137 1.934h1.228v-1.674l1.09-1.422v-2.967l-0.683-0.133-0.815 3.484zm-9.128-3.867s-0.953 0.254 0.135 0.643c1.091 0.389 5.452-6.32 5.452-6.32l-3.681 2.32-1.906 3.357zm-7.416 24.73-0.813-0.779-1.637-0.262-0.271 0.783-2.179-0.26-0.137-1.039h-1.634l-1.771 1.039h-3.132l-0.271-0.781-5.039-0.521-0.816 0.779-2.042-0.516-0.272-1.822-0.953-0.133-1.089 1.955-3.677-0.133c0.656 0.314 6.149 3.604 14.568 4.295 11.166 0.904 16.479-1.822 16.479-1.822l-0.409-0.391-4.903-0.393z" fill="url(#q)"/>
					<path d="m39.319 49.174c-5e-3 -0.193-0.021-0.385-0.021-0.58 0-0.611 0.042-1.218 0.102-1.818-1.091 1.5-1.945 4.281-1.838 4.99l0.279 1.895c-0.843 0.674-1.271 2.448-0.42 2.699 1.457 0.428 2.883 0.916 4.234 1.42-1.281-2.412-2.078-4.999-2.293-7.696-0.309-0.343-0.535-0.608-0.535-0.608l0.491-0.301z" fill="none"/>
					<path d="m39.363 50.083c-0.023-0.302-0.033-0.604-0.044-0.909"/>
					<path d="m95.663 73.834"/>
					<path d="m71.908 23.148c-0.26-0.031-0.523-8e-3 -0.785 0.053 0.277-0.018 0.557-0.033 0.833-0.047-0.017-2e-3 -0.029-4e-3 -0.048-6e-3z"/>
					<radialGradient id="f" cx="105.82" cy="-54.606" r="73.333" gradientTransform="matrix(1.0203 0 0 .9713 -32.316 104.46)" gradientUnits="userSpaceOnUse">
						<stop stop-color="#fff" offset="0"/>
						<stop stop-color="#CCF0FF" offset=".3034"/>
						<stop stop-color="#1DB0FF" offset="1"/>
					</radialGradient>
					<path d="m39.319 49.174 1.058-0.646s1.689-3.104 0.143-2.697c-0.383 0.1-0.763 0.454-1.119 0.945-0.06 0.601-0.102 1.207-0.102 1.818 0 0.195 0.016 0.387 0.021 0.58z" clip-rule="evenodd" fill="url(#f)" fill-rule="evenodd"/>
					<radialGradient id="e" cx="101.38" cy="-73.411" r="121.76" gradientTransform="matrix(1.0203 0 0 .9713 -32.316 104.46)" gradientUnits="userSpaceOnUse">
						<stop stop-color="#fff" offset="0"/>
						<stop stop-color="#CCF0FF" offset=".3034"/>
						<stop stop-color="#1D6CE9" offset="1"/>
					</radialGradient>
					<path d="m77.813 42.736-3.133 2.601 7.357 0.263v-1.045l-2.59-1.818h-1.635z" clip-rule="evenodd" fill="url(#e)" fill-rule="evenodd"/>
					<radialGradient id="d" cx="101.37" cy="-73.411" r="121.78" gradientTransform="matrix(1.0203 0 0 .9713 -32.316 104.46)" gradientUnits="userSpaceOnUse">
						<stop stop-color="#fff" offset="0"/>
						<stop stop-color="#CCF0FF" offset=".3034"/>
						<stop stop-color="#1D6CE9" offset="1"/>
					</radialGradient>
					<path d="m91.436 41.826-2.04 0.258 0.271 1.171 1.635-0.26 1.907-0.778-1.5-1.562-0.273 1.171z" clip-rule="evenodd" fill="url(#d)" fill-rule="evenodd"/>
					<radialGradient id="c" cx="71.118" cy="33.152" r="120.48" gradientUnits="userSpaceOnUse">
						<stop stop-color="#fff" offset="0"/>
						<stop stop-color="#CCF0FF" offset=".3034"/>
						<stop stop-color="#1D6CE9" offset="1"/>
					</radialGradient>
					<path d="m77.813 65.637c-0.41-0.264-0.546-2.994-0.954-3.387-0.407-0.391 0.544-1.951-0.817-1.169-1.363 0.778-7.492 0.522-7.492 0.522s-5.315-5.467-5.997-6.377l-0.272-3.642 9.267-6.507-0.136-1.823 1.088-0.26v-2.34l1.906-0.39-0.134-1.174-2.317-3.512 0.409-0.648 0.816-0.262-0.681-3.122 7.085-3.903 3.135-0.26 0.817-0.391-1.229-1.043v-1.17l1.367 0.521 0.544 0.908 0.954-1.167s10.813 3.445 18.432 9.606c-5.498-6.098-14.478-10.395-24.881-11.352l2.618 0.932-3.097 0.81-0.598-1.833c-1.097-0.076-2.207-0.117-3.331-0.117-0.793 0-1.577 0.025-2.36 0.064 2.206 0.263 2.354 0.131 3.191 0.265 0.848 0.137-7.6 5.804-8.024 5.804-0.796 0-0.983-1.752-0.422-2.293 0.496-0.479 2.426-3.273 4.422-3.729-14.56 0.978-26.661 8.561-30.523 18.563 1.041-1.562 2.229-3.12 3.578-4.576 7.163-7.728 13.937-10.073 16.078-10.714 0.234-0.133 0.465-0.221 0.674-0.221 0.139 0-0.121 0.058-0.674 0.221-1.342 0.773-2.902 3.322-2.423 2.748 0.362-0.434 2.071-0.42 3.39-0.244 0.729 0.092 3.59-4.621 3.789-4.477 3.27 2.357-1.074 1.686-1.807 5.76l0.537-0.094v0.811l6.762 0.674 1.828 0.27-0.845 2.434h-7.816c0.463 0.427 1.153 0.988 0.638 1.484-0.704 0.674-1.548 0-2.532-0.271-0.987-0.27-0.142-0.945-0.562-1.35-0.423-0.406-0.987-0.135-1.128 1.35-0.143 1.488-0.985 1.757-1.549 1.757-0.565 0-2.111-0.137-2.816 0.405-0.703 0.539-4.645 2.834-5.207 3.102-0.327 0.16-2.901 1.236-4.996 2.103l-3.029 4.648-0.307 0.098-0.115 0.712-1.83 0.813 1.971 1.348s-0.703 1.079-1.125 1.079c-0.275 0-1.143-0.909-1.719-1.549 0.215 2.697 1.012 5.284 2.293 7.696 5.051 1.88 8.998 3.979 8.998 3.979s-0.282 1.757 0.141 2.161c0.422 0.405 5.209 2.831 5.35 4.186 0.086 0.819-0.404 1.386-1.081 1.83 5.54 2.687 12.164 4.259 19.253 4.259 1.554 0 3.079-0.084 4.581-0.227-0.021-1.686-0.114-5.585-0.54-5.99-0.544-0.521-0.135-2.08-0.544-2.34zm-3.088-38.707-0.139 2.021h-1.691l-0.279-1.888 2.109-0.134z" clip-rule="evenodd" fill="url(#c)" fill-rule="evenodd"/>
					<radialGradient id="b" cx="101.37" cy="-73.413" r="121.78" gradientTransform="matrix(1.0203 0 0 .9713 -32.316 104.46)" gradientUnits="userSpaceOnUse">
						<stop stop-color="#fff" offset="0"/>
						<stop stop-color="#CCF0FF" offset=".3034"/>
						<stop stop-color="#1D6CE9" offset="1"/>
					</radialGradient>
					<path d="m87.08 44.818-2.044 0.129-0.546-1.041-1.361 1.431-0.41 0.784-0.411 0.648 2.455 0.522 1.364 0.259 0.132-0.648 1.91-0.262-0.271-0.783h3.133v-1.17l1.361-0.264-4.223-0.777-1.089 1.172z" clip-rule="evenodd" fill="url(#b)" fill-rule="evenodd"/>
					<radialGradient id="a" cx="101.38" cy="-73.414" r="121.78" gradientTransform="matrix(1.0203 0 0 .9713 -32.316 104.46)" gradientUnits="userSpaceOnUse">
						<stop stop-color="#fff" offset="0"/>
						<stop stop-color="#CCF0FF" offset=".3034"/>
						<stop stop-color="#1D6CE9" offset="1"/>
					</radialGradient>
					<path d="m106.29 58.479-1.088 0.262-0.445-1.104c-1.692 1.738-3.771 3.287-4.324 1.623-0.955-2.861-6.947-10.148-6.947-10.148s2.586 4.294 2.996 4.553c0.407 0.26 2.725 6.506 3.269 6.635 0.547 0.131 3.817-0.647 4.363-0.647 0.545 0 0.952 0.778 0.952 0.778l-0.091 0.098 0.178 0.191c0.837-1.133 1.556-2.316 2.155-3.543h-1.149l0.132 1.303z" clip-rule="evenodd" fill="url(#a)" fill-rule="evenodd"/>
					<radialGradient id="al" cx="101.36" cy="-73.421" r="121.83" gradientTransform="matrix(1.0203 0 0 .9713 -32.316 104.46)" gradientUnits="userSpaceOnUse">
						<stop stop-color="#fff" offset="0"/>
						<stop stop-color="#CCF0FF" offset=".3034"/>
						<stop stop-color="#1D6CE9" offset="1"/>
					</radialGradient>
					<path d="m99.616 66.268c1.702-1.301 3.22-2.73 4.519-4.267l0.145-0.728-4.663 4.994z" clip-rule="evenodd" fill="url(#al)" fill-rule="evenodd"/>
					<radialGradient id="ak" cx="103.74" cy="-67.258" r="35.692" gradientTransform="matrix(1.0203 0 0 .9713 -32.316 104.46)" gradientUnits="userSpaceOnUse">
						<stop stop-color="#fff" offset="0"/>
						<stop stop-color="#D4FFFF" offset=".1685"/>
						<stop stop-color="#51A8FF" offset=".7921"/>
					</radialGradient>
					<path d="m66.701 26.93c-0.562 0.541-0.374 2.293 0.422 2.293 0.425 0 8.872-5.667 8.024-5.804-0.837-0.134-0.985-2e-3 -3.191-0.265-0.276 0.014-0.556 0.029-0.833 0.047-1.996 0.455-3.926 3.25-4.422 3.729z" clip-rule="evenodd" fill="url(#ak)" fill-rule="evenodd"/>
					<radialGradient id="aj" cx="103.69" cy="-67.267" r="35.698" gradientTransform="matrix(1.0203 0 0 .9713 -32.316 104.46)" gradientUnits="userSpaceOnUse">
						<stop stop-color="#fff" offset="0"/>
						<stop stop-color="#D4FFFF" offset=".1685"/>
						<stop stop-color="#51A8FF" offset=".7921"/>
					</radialGradient>
					<path d="m74.586 28.951 0.139-2.021-2.109 0.134 0.279 1.888h1.691z" clip-rule="evenodd" fill="url(#aj)" fill-rule="evenodd"/>
					<radialGradient id="ai" cx="67.88" cy="36.63" r="43.822" gradientUnits="userSpaceOnUse">
						<stop stop-color="#fff" offset="0"/>
						<stop stop-color="#D4FFFF" offset=".1685"/>
						<stop stop-color="#51A8FF" offset=".7921"/>
					</radialGradient>
					<path d="m103.6 34.65c-7.619-6.161-18.432-9.606-18.432-9.606l-0.954 1.167-0.544-0.908-1.367-0.521v1.17l1.229 1.043-0.817 0.391-3.135 0.26-7.085 3.903 0.681 3.122-0.816 0.262-0.409 0.648 2.317 3.512 0.134 1.174-1.906 0.39v2.34l-1.088 0.26 0.136 1.823-9.267 6.507 0.272 3.642c0.682 0.91 5.997 6.377 5.997 6.377s6.129 0.256 7.492-0.522c1.361-0.782 0.41 0.778 0.817 1.169 0.408 0.393 0.544 3.123 0.954 3.387 0.409 0.26 0 1.818 0.544 2.34 0.426 0.405 0.519 4.305 0.54 5.99 8.107-0.777 15.341-3.584 20.719-7.699l4.663-4.994-0.145 0.728c0.355-0.42 0.696-0.848 1.017-1.282l-0.178-0.191 0.091-0.098s-0.407-0.778-0.952-0.778c-0.546 0-3.816 0.778-4.363 0.647-0.544-0.129-2.861-6.375-3.269-6.635-0.41-0.259-2.996-4.553-2.996-4.553s5.992 7.287 6.947 10.148c0.553 1.664 2.632 0.115 4.324-1.623l0.445 1.104 1.088-0.262-0.132-1.303h1.149c1.31-2.684 2.03-5.572 2.03-8.582 0-5.135-2.113-9.925-5.732-13.943zm-21.566 10.95-7.357-0.263 3.133-2.601h1.635l2.59 1.818v1.046zm8.992-0.912v1.17h-3.133l0.271 0.783-1.91 0.262-0.132 0.648-1.364-0.259-2.455-0.522 0.411-0.648 0.41-0.784 1.361-1.431 0.546 1.041 2.044-0.129 1.089-1.172 4.223 0.777-1.361 0.264zm0.272-1.693-1.635 0.26-0.271-1.171 2.04-0.258 0.273-1.171 1.5 1.562-1.907 0.778z" clip-rule="evenodd" fill="url(#ai)" fill-rule="evenodd"/>
					<radialGradient id="ah" cx="103.69" cy="-67.257" r="35.725" gradientTransform="matrix(1.0203 0 0 .9713 -32.316 104.46)" gradientUnits="userSpaceOnUse">
						<stop stop-color="#fff" offset="0"/>
						<stop stop-color="#D4FFFF" offset=".7022"/>
						<stop stop-color="#CEFCFF" offset=".7446"/>
						<stop stop-color="#BDF3FF" offset=".8012"/>
						<stop stop-color="#A1E5FF" offset=".8659"/>
						<stop stop-color="#7BD2FF" offset=".9361"/>
						<stop stop-color="#51BDFF" offset="1"/>
					</radialGradient>
					<path d="m56.145 68.104c-0.141-1.354-4.928-3.78-5.35-4.186-0.423-0.404-0.141-2.161-0.141-2.161s-3.947-2.099-8.998-3.979c2.65 4.991 7.383 9.234 13.407 12.155 0.677-0.444 1.167-1.011 1.081-1.83z" clip-rule="evenodd" fill="url(#ah)" fill-rule="evenodd"/>
					<radialGradient id="ag" cx="98.201" cy="-69.829" r="43.93" gradientTransform="matrix(1.0203 0 0 .9713 -32.316 104.46)" gradientUnits="userSpaceOnUse">
						<stop stop-color="#fff" offset="0"/>
						<stop stop-color="#D4FFFF" offset=".1685"/>
						<stop stop-color="#51A8FF" offset=".7921"/>
					</radialGradient>
					<path d="m40.52 45.83c1.547-0.407-0.143 2.697-0.143 2.697l-1.058 0.646c0.011 0.305 0.021 0.607 0.044 0.909 0.576 0.64 1.443 1.549 1.719 1.549 0.422 0 1.125-1.079 1.125-1.079l-1.971-1.348 1.83-0.813 0.115-0.712 0.307-0.098 3.029-4.648c2.095-0.866 4.669-1.942 4.996-2.103 0.563-0.268 4.504-2.563 5.207-3.102 0.705-0.542 2.251-0.405 2.816-0.405 0.563 0 1.406-0.269 1.549-1.757 0.141-1.484 0.705-1.756 1.128-1.35 0.42 0.404-0.426 1.08 0.562 1.35 0.984 0.271 1.828 0.945 2.532 0.271 0.516-0.496-0.175-1.058-0.638-1.484h7.817l0.845-2.434-1.828-0.27-6.762-0.674v-0.811l-0.537 0.094c0.732-4.074 5.076-3.402 1.807-5.76-0.199-0.145-3.061 4.568-3.789 4.477-1.318-0.176-3.027-0.189-3.39 0.244-0.479 0.574 1.081-1.975 2.423-2.748-2.142 0.641-8.915 2.986-16.078 10.714-1.35 1.456-2.537 3.015-3.578 4.576-0.623 1.614-1.03 3.289-1.199 5.011 0.356-0.491 0.736-0.846 1.119-0.945z" clip-rule="evenodd" fill="url(#ag)" fill-rule="evenodd"/>
					<radialGradient id="af" cx="103.69" cy="-67.253" r="35.735" gradientTransform="matrix(1.0203 0 0 .9713 -32.316 104.46)" gradientUnits="userSpaceOnUse">
						<stop stop-color="#fff" offset="0"/>
						<stop stop-color="#D4FFFF" offset=".1685"/>
						<stop stop-color="#51A8FF" offset=".7921"/>
					</radialGradient>
					<path d="m81.342 24.23-2.618-0.932c-0.356-0.033-0.713-0.066-1.076-0.092l0.598 1.833 3.097-0.81z" clip-rule="evenodd" fill="url(#af)" fill-rule="evenodd"/>
					<path d="m60.93 26.254c-0.209 0-0.439 0.088-0.674 0.221 0.553-0.163 0.813-0.221 0.674-0.221z"/>
				</g>
				<g>
					<g>
						<linearGradient id="ae" x1="128.48" x2="121.41" y1="114.66" y2="121.74" gradientUnits="userSpaceOnUse">
							<stop stop-color="#fff" offset="0"/>
							<stop stop-color="#8C8CA4" offset="1"/>
						</linearGradient>
						<path d="m136.66 120.49-5.028 5.027-14.006-14.004 5.028-5.031 14.006 14.008z" fill="url(#ae)"/>
						<linearGradient id="ad" x1="104.76" x2="138.26" y1="98.666" y2="124.6" gradientUnits="userSpaceOnUse">
							<stop stop-color="#fff" offset="0"/>
							<stop stop-color="#545477" offset="1"/>
						</linearGradient>
						<path d="m122.66 105.81c-0.181 0-0.351 0.07-0.476 0.195l-5.028 5.031c-0.263 0.26-0.263 0.686 0 0.949l14.005 14.004c0.266 0.264 0.688 0.264 0.952 0l5.028-5.027c0.261-0.262 0.261-0.688 0-0.951l-14.007-14.006c-0.127-0.125-0.297-0.195-0.475-0.195zm0 1.623c0.854 0.855 12.199 12.199 13.055 13.055-0.699 0.697-3.378 3.379-4.077 4.078-0.856-0.857-12.199-12.201-13.057-13.055 0.699-0.699 3.38-3.381 4.079-4.078z" fill="url(#ad)"/>
					</g>
					<g>
						<linearGradient id="ac" x1="23.631" x2="16.554" y1="9.8096" y2="16.886" gradientUnits="userSpaceOnUse">
							<stop stop-color="#fff" offset="0"/>
							<stop stop-color="#8C8CA4" offset="1"/>
						</linearGradient>
						<path d="m31.813 15.633-5.028 5.028-14.008-14.005 5.027-5.028 14.008 14.005z" fill="url(#ac)"/>
						<linearGradient id="aa" x1="-.0938" x2="33.404" y1="-6.1885" y2="19.745" gradientUnits="userSpaceOnUse">
							<stop stop-color="#fff" offset="0"/>
							<stop stop-color="#545477" offset="1"/>
						</linearGradient>
						<path d="m17.805 0.955c-0.178 0-0.349 0.071-0.475 0.197l-5.027 5.028c-0.263 0.263-0.263 0.688 0 0.951l14.006 14.005c0.263 0.262 0.688 0.262 0.95 0l5.028-5.027c0.264-0.263 0.264-0.688 0-0.951l-14.006-14.006c-0.127-0.126-0.297-0.197-0.477-0.197zm0 1.623c0.856 0.856 12.201 12.2 13.057 13.055-0.698 0.699-3.38 3.381-4.077 4.078-0.856-0.855-12.2-12.199-13.056-13.055 0.697-0.698 3.379-3.38 4.076-4.078z" fill="url(#aa)"/>
					</g>
					<linearGradient id="z" x1="-28.083" x2="122.48" y1="1.5566" y2="179" gradientUnits="userSpaceOnUse">
						<stop stop-color="#fff" offset="0"/>
						<stop stop-color="#8C8CA4" offset="1"/>
					</linearGradient>
					<path d="m81.149 136.52h-14.688l-4.827-23.215 25.166 0.102-5.65 23.113z" fill="url(#z)"/>
					<linearGradient id="y" x1="40.394" x2="89.714" y1="96.764" y2="134.95" gradientUnits="userSpaceOnUse">
						<stop stop-color="#fff" offset="0"/>
						<stop stop-color="#545477" offset="1"/>
					</linearGradient>
					<path d="m60.593 112.46c-0.257 0.314-0.357 0.729-0.274 1.127l4.826 23.211c0.129 0.625 0.68 1.072 1.316 1.072h14.688c0.62 0 1.158-0.424 1.305-1.023l5.651-23.111c0.097-0.4 6e-3 -0.824-0.247-1.148-0.254-0.324-0.642-0.516-1.055-0.518l-25.165-0.102c-0.404-2e-3 -0.789 0.18-1.046 0.492zm2.694 2.203c2.686 0.01 19.048 0.076 21.801 0.088-0.665 2.719-4.571 18.697-4.993 20.432h-12.54c-0.375-1.805-3.712-17.848-4.268-20.52z" fill="url(#y)"/>
					<linearGradient id="x" x1="16.294" x2="151.18" y1="53.11" y2="213.99" gradientUnits="userSpaceOnUse">
						<stop stop-color="#fff" offset="0"/>
						<stop stop-color="#FBFBFC" offset=".178"/>
						<stop stop-color="#EEEEF2" offset=".367"/>
						<stop stop-color="#D9D9E1" offset=".5612"/>
						<stop stop-color="#BBBBC9" offset=".7589"/>
						<stop stop-color="#9595AB" offset=".9575"/>
						<stop stop-color="#8C8CA4" offset="1"/>
					</linearGradient>
					<path d="m78.541 135.18-9.769 6e-3 -2.929-23.168 16.466 0.336-3.769 22.826z" fill="url(#x)"/>
					<linearGradient id="w" x1="-32.73" x2="117.83" y1="5.502" y2="182.94" gradientUnits="userSpaceOnUse">
						<stop stop-color="#fff" offset="0"/>
						<stop stop-color="#8C8CA4" offset="1"/>
					</linearGradient>
					<path d="m2.146 70.043v-14.689l23.213-4.826-0.103 25.164-23.11-5.648z" fill="url(#w)"/>
					<linearGradient id="v" x1="-17.473" x2="33.188" y1="36.036" y2="75.258" gradientUnits="userSpaceOnUse">
						<stop stop-color="#fff" offset="0"/>
						<stop stop-color="#545477" offset="1"/>
					</linearGradient>
					<path d="m25.086 49.211-23.214 4.826c-0.624 0.131-1.071 0.68-1.071 1.316v14.689c0 0.619 0.424 1.158 1.025 1.305l23.111 5.65c0.4 0.098 0.821 8e-3 1.146-0.246 0.324-0.256 0.516-0.643 0.517-1.055l0.104-25.165c1e-3 -0.405-0.181-0.79-0.493-1.046-0.314-0.258-0.729-0.357-1.125-0.275zm-1.077 2.97c-0.011 2.686-0.078 19.047-0.089 21.802-2.719-0.666-18.697-4.572-20.43-4.995v-12.54c1.805-0.375 17.848-3.711 20.519-4.267z" fill="url(#v)"/>
					<linearGradient id="u" x1="11.652" x2="146.52" y1="57.012" y2="217.87" gradientUnits="userSpaceOnUse">
						<stop stop-color="#fff" offset="0"/>
						<stop stop-color="#FBFBFC" offset=".178"/>
						<stop stop-color="#EEEEF2" offset=".367"/>
						<stop stop-color="#D9D9E1" offset=".5612"/>
						<stop stop-color="#BBBBC9" offset=".7589"/>
						<stop stop-color="#9595AB" offset=".9575"/>
						<stop stop-color="#8C8CA4" offset="1"/>
					</linearGradient>
					<path d="m3.488 67.435-8e-3 -9.77 23.167-2.929-0.337 16.467-22.822-3.768z" fill="url(#u)"/>
					<linearGradient id="t" x1="-45.718" x2="104.85" y1="16.516" y2="193.97" gradientUnits="userSpaceOnUse">
						<stop stop-color="#fff" offset="0"/>
						<stop stop-color="#8C8CA4" offset="1"/>
					</linearGradient>
					<path d="m27.775 120.36-10.387-10.385 13.002-19.83 17.723 17.867-20.338 12.348z" fill="url(#t)"/>
					<linearGradient id="s" x1="4.2324" x2="46.406" y1="86.016" y2="118.67" gradientUnits="userSpaceOnUse">
						<stop stop-color="#fff" offset="0"/>
						<stop stop-color="#545477" offset="1"/>
					</linearGradient>
					<path d="m30.256 88.811c-0.403 0.041-0.768 0.262-0.989 0.6l-13.002 19.83c-0.349 0.531-0.276 1.236 0.174 1.688l10.388 10.385c0.438 0.439 1.118 0.521 1.647 0.199l20.337-12.346c0.352-0.215 0.586-0.578 0.637-0.986 0.05-0.408-0.09-0.818-0.381-1.111l-17.721-17.867c-0.286-0.289-0.687-0.434-1.09-0.393zm0.349 3.464c1.891 1.904 13.412 13.521 15.352 15.477-2.393 1.451-16.453 9.988-17.977 10.914-1.183-1.182-7.645-7.646-8.867-8.867 1.012-1.541 9.996-15.244 11.492-17.523z" fill="url(#s)"/>
					<linearGradient id="r" x1="-.7148" x2="134.16" y1="67.378" y2="228.25" gradientUnits="userSpaceOnUse">
						<stop stop-color="#fff" offset="0"/>
						<stop stop-color="#FBFBFC" offset=".178"/>
						<stop stop-color="#EEEEF2" offset=".367"/>
						<stop stop-color="#D9D9E1" offset=".5612"/>
						<stop stop-color="#BBBBC9" offset=".7589"/>
						<stop stop-color="#9595AB" offset=".9575"/>
						<stop stop-color="#8C8CA4" offset="1"/>
					</linearGradient>
					<path d="m26.881 117.57-6.914-6.902 14.311-18.453 11.407 11.881-18.804 13.474z" fill="url(#r)"/>
					<linearGradient id="p" x1="4.0088" x2="154.56" y1="-25.662" y2="151.78" gradientUnits="userSpaceOnUse">
						<stop stop-color="#fff" offset="0"/>
						<stop stop-color="#8C8CA4" offset="1"/>
					</linearGradient>
					<path d="m131.14 110.56-10.388 10.389-19.828-13.002 17.867-17.721 12.349 20.334z" fill="url(#p)"/>
					<linearGradient id="o" x1="89.799" x2="132.91" y1="83.609" y2="116.98" gradientUnits="userSpaceOnUse">
						<stop stop-color="#fff" offset="0"/>
						<stop stop-color="#545477" offset="1"/>
					</linearGradient>
					<path d="m117.84 89.266-17.867 17.724c-0.287 0.285-0.432 0.684-0.39 1.088 0.04 0.404 0.259 0.768 0.6 0.988l19.828 13.002c0.532 0.35 1.237 0.277 1.688-0.174l10.385-10.385c0.438-0.439 0.521-1.121 0.198-1.648l-12.347-20.338c-0.213-0.352-0.575-0.588-0.985-0.637-0.409-0.049-0.817 0.09-1.11 0.379zm0.683 3.111c1.452 2.393 9.989 16.453 10.913 17.977-1.182 1.184-7.645 7.645-8.865 8.867-1.542-1.012-15.245-9.994-17.527-11.49 1.908-1.893 13.521-13.414 15.479-15.354z" fill="url(#o)"/>
					<linearGradient id="n" x1="48.422" x2="183.29" y1="26.188" y2="187.05" gradientUnits="userSpaceOnUse">
						<stop stop-color="#fff" offset="0"/>
						<stop stop-color="#FBFBFC" offset=".178"/>
						<stop stop-color="#EEEEF2" offset=".367"/>
						<stop stop-color="#D9D9E1" offset=".5612"/>
						<stop stop-color="#BBBBC9" offset=".7589"/>
						<stop stop-color="#9595AB" offset=".9575"/>
						<stop stop-color="#8C8CA4" offset="1"/>
					</linearGradient>
					<path d="m128.34 111.45-6.9 6.914-18.453-14.309 11.882-11.408 13.472 18.803z" fill="url(#n)"/>
					<linearGradient id="m" x1="-2.0176" x2="148.54" y1="-20.554" y2="156.89" gradientUnits="userSpaceOnUse">
						<stop stop-color="#fff" offset="0"/>
						<stop stop-color="#8C8CA4" offset="1"/>
					</linearGradient>
					<path d="M18.307,17.005L28.693,6.619L48.521,19.62L30.654,37.342L18.307,17.005z" fill="url(#m)"/>
					<linearGradient id="l" x1="2.0205" x2="45.127" y1="-.6567" y2="32.716" gradientUnits="userSpaceOnUse">
						<stop stop-color="#fff" offset="0"/>
						<stop stop-color="#545477" offset="1"/>
					</linearGradient>
					<path d="m27.742 5.668-10.387 10.387c-0.438 0.438-0.52 1.117-0.198 1.648l12.347 20.336c0.215 0.352 0.578 0.588 0.986 0.637 0.409 0.05 0.818-0.09 1.11-0.379l17.866-17.723c0.289-0.285 0.432-0.686 0.391-1.089-0.04-0.403-0.26-0.767-0.6-0.989l-19.827-13.002c-0.532-0.349-1.237-0.276-1.688 0.174zm1.127 2.674c1.543 1.011 15.245 9.996 17.527 11.492-1.907 1.892-13.523 13.412-15.479 15.352-1.453-2.391-9.989-16.452-10.915-17.977 1.183-1.182 7.646-7.645 8.866-8.867z" fill="url(#l)"/>
					<linearGradient id="k" x1="42.288" x2="177.17" y1="31.326" y2="192.2" gradientUnits="userSpaceOnUse">
						<stop stop-color="#fff" offset="0"/>
						<stop stop-color="#FBFBFC" offset=".178"/>
						<stop stop-color="#EEEEF2" offset=".367"/>
						<stop stop-color="#D9D9E1" offset=".5612"/>
						<stop stop-color="#BBBBC9" offset=".7589"/>
						<stop stop-color="#9595AB" offset=".9575"/>
						<stop stop-color="#8C8CA4" offset="1"/>
					</linearGradient>
					<path d="M21.1,16.11l6.902-6.914l18.452,14.311l-11.88,11.407L21.1,16.11z" fill="url(#k)"/>
					<linearGradient id="j" x1="-9.1904" x2="141.24" y1="-14.398" y2="162.89" gradientUnits="userSpaceOnUse">
						<stop stop-color="#fff" offset="0"/>
						<stop stop-color="#8C8CA4" offset="1"/>
					</linearGradient>
					<path d="m74.615 109.28c-24.857 0-45.008-20.15-45.008-45.008 0-19.181 12.004-35.549 28.904-42.027l-1.415-6.459c-19.842 7.172-34.026 26.17-34.026 48.486 0 28.469 23.077 51.543 51.545 51.543 22.207 0 41.132-14.043 48.382-33.732l-6.34-1.746c-6.47 16.922-22.847 28.943-42.042 28.943z" fill="url(#j)"/>
					<path d="m74.53 113.13c-26.937 0-48.771-21.836-48.771-48.771 0-20.781 13.004-38.515 31.313-45.539-0.187-0.854-0.363-1.662-0.462-2.107-19.684 7.456-32.868 26.458-32.868 47.563 0 28.051 22.82 50.871 50.873 50.871 20.982 0 39.952-13.082 47.47-32.615-0.426-0.117-1.225-0.338-2.07-0.57-7.063 18.232-24.76 31.168-45.484 31.168z" fill="none"/>
					<linearGradient id="i" x1="35.362" x2="170.09" y1="37.131" y2="197.82" gradientUnits="userSpaceOnUse">
						<stop stop-color="#fff" offset="0"/>
						<stop stop-color="#FBFBFC" offset=".178"/>
						<stop stop-color="#EEEEF2" offset=".367"/>
						<stop stop-color="#D9D9E1" offset=".5612"/>
						<stop stop-color="#BBBBC9" offset=".7589"/>
						<stop stop-color="#9595AB" offset=".9575"/>
						<stop stop-color="#8C8CA4" offset="1"/>
					</linearGradient>
					<path d="m74.615 109.96c-25.188 0-45.68-20.49-45.68-45.678 0-18.592 11.556-35.556 28.801-42.427-0.102-0.468-0.393-1.796-0.664-3.03-18.31 7.024-31.313 24.758-31.313 45.539 0 26.936 21.835 48.771 48.771 48.771 20.725 0 38.422-12.936 45.484-31.168-1.196-0.328-2.491-0.686-2.97-0.818-6.869 17.252-23.83 28.811-42.43 28.811z" fill="url(#i)"/>
					<linearGradient id="h" x1="-39.401" x2="120.33" y1="-8.939" y2="114.72" gradientUnits="userSpaceOnUse">
						<stop stop-color="#fff" offset="0"/>
						<stop stop-color="#545477" offset="1"/>
					</linearGradient>
					<path d="m123.6 81.781c-0.087-0.17-0.237-0.291-0.419-0.344l-6.339-1.742c-0.313-0.088-0.627 0.066-0.77 0.348l4.24 1.168c-0.093 0.252-0.195 0.5-0.293 0.752 0.846 0.232 1.645 0.453 2.07 0.57-7.518 19.533-26.487 32.615-47.47 32.615-28.053 0-50.873-22.82-50.873-50.871 0-21.105 13.184-40.107 32.868-47.564 0.099 0.445 0.275 1.254 0.462 2.107 0.293-0.113 0.585-0.23 0.882-0.338l0.944 4.307c0.214-0.154 0.329-0.416 0.27-0.684l-1.415-6.457c-0.042-0.189-0.163-0.353-0.331-0.446-0.171-0.093-0.372-0.108-0.555-0.043-20.616 7.451-34.468 27.191-34.468 49.118 0 28.793 23.424 52.217 52.217 52.217 21.79 0 41.485-13.736 49.012-34.176 0.064-0.176 0.053-0.371-0.032-0.537z" fill="url(#h)"/>
					<linearGradient id="g" x1="-25.284" x2="115.94" y1="-.6992" y2="108.64" gradientUnits="userSpaceOnUse">
						<stop stop-color="#fff" offset="0"/>
						<stop stop-color="#545477" offset="1"/>
					</linearGradient>
					<path d="m57.072 18.82c0.271 1.234 0.563 2.563 0.664 3.03-17.245 6.871-28.801 23.835-28.801 42.427 0 25.188 20.492 45.678 45.68 45.678 18.6 0 35.561-11.559 42.43-28.811 0.479 0.133 1.773 0.49 2.97 0.818 0.098-0.252 0.2-0.5 0.293-0.752l-4.24-1.168c-0.012 0.02-0.028 0.035-0.038 0.059-6.521 17.053-23.163 28.51-41.414 28.51-24.447 0-44.335-19.887-44.335-44.334 0-18.234 11.442-34.871 28.473-41.4 0.055-0.021 0.099-0.055 0.146-0.088l-0.944-4.307c-0.297 0.107-0.589 0.225-0.882 0.338z" fill="url(#g)"/>
				</g>
			</g>
		</g>
	</g>
</svg>
