<?xml version="1.0" encoding="UTF-8"?>
<svg viewBox="0 0 48 48" xmlns="http://www.w3.org/2000/svg" xmlns:xlink="http://www.w3.org/1999/xlink"><defs><linearGradient id="a" x2="0" y1="44" y2="20" gradientTransform="translate(384.57 499.8)" gradientUnits="userSpaceOnUse"><stop stop-color="#eef1f2" offset="0"/><stop stop-color="#f9fafb" offset="1"/></linearGradient><linearGradient id="b" x1="419.57" x2="426.57" y1="529.8" y2="536.8" gradientUnits="userSpaceOnUse"><stop offset="0"/><stop stop-opacity="0" offset="1"/></linearGradient><linearGradient id="c" x2="0" y1="519.8" y2="504.8" gradientTransform="translate(0 1)" gradientUnits="userSpaceOnUse"><stop stop-color="#bd8d48" offset="0"/><stop stop-color="#e8b971" offset="1"/></linearGradient><linearGradient id="d" x2="0" y1="519.8" y2="504.8" gradientTransform="translate(0-1)" gradientUnits="userSpaceOnUse" xlink:href="#c"/><linearGradient id="e" x1="428.57" x2="406.57" gradientUnits="userSpaceOnUse"><stop stop-color="#e3dfd6" offset="0"/><stop stop-color="#f4f1e8" offset="1"/></linearGradient><linearGradient id="f" x1="392.57" x2="400.57" y1="516.8" y2="508.8" gradientTransform="translate(0 1)" gradientUnits="userSpaceOnUse"><stop stop-color="#f39c12" offset="0"/><stop stop-color="#f5ab35" offset="1"/></linearGradient><linearGradient id="g" x1="427.71" x2="437.71" gradientUnits="userSpaceOnUse"><stop stop-color="#ebc69a" offset="0"/><stop stop-color="#f4e0c8" offset="1"/></linearGradient><linearGradient id="h" x1="428.76" x2="430.47" y1="541.51" y2="528.51" gradientUnits="userSpaceOnUse" xlink:href="#g"/><linearGradient id="i" x2="0" y1="531.79" y2="544.79" gradientTransform="matrix(.70711-.70711.70711.70711-649.01-56.06)" gradientUnits="userSpaceOnUse" xlink:href="#b"/></defs><g transform="translate(-384.57-499.8)"><g color="#000000" stroke-linecap="round" stroke-linejoin="round"><g transform="matrix(.96593-.25882.25882.96593-120.32 121.71)"><rect x="392.57" y="509.8" width="19" height="16" fill="url(#f)"/><rect x="392.57" y="509.8" width="19" height="3" fill="#fff" opacity=".2"/></g><rect x="406.57" y="504.8" width="22" height="33" fill="url(#d)"/><rect x="406.57" y="505.8" width="22" height="33" fill="url(#e)"/><rect x="406.57" y="506.8" width="22" height="33" fill="url(#c)"/></g><g transform="translate(-15.14-17.993)"><path transform="translate(399.71 517.79)" d="m35.12 11.879l-4.242 4.242 2.637 2.637-3.891.148-.625 1.094v3l8.984.229 2.086 2.086 4.244-4.244z" color="#000000" fill="url(#i)" opacity=".2" stroke-linejoin="round"/><path d="m432.71 528.79c-1.662 0-3 1.338-3 3s1.338 3 3 3 3-1.338 3-3-1.338-3-3-3m0 7c-2.77 0-5 0.892-5 2v6h10v-6c0-1.108-2.23-2-5-2m0 1c2.216 0 4 0.636 4 1.428v4.572h-8v-4.572c0-0.791 1.784-1.428 4-1.428" fill="url(#h)"/></g><path d="m388.57 519.8v24h40v-24z" fill="url(#a)"/><rect x="388.57" y="542.8" width="40" height="1" fill="#d1d3d4"/><g fill-rule="evenodd"><path d="m391.57 543.8 1-2h2l-1 2z" fill="#c0392b"/><path d="m399.57 543.8 1-2h2l-1 2z" fill="#2980b9"/><path d="m407.57 543.8 1-2h2l-1 2z" fill="#c0392b"/><path d="m415.57 543.8 1-2h2l-1 2z" fill="#2980b9"/><path d="m423.57 543.8 1-2h2l-1 2z" fill="#c0392b"/><path d="m426.57 537.8 2 1v2l-2-1z" fill="#2980b9"/><path d="m426.57 529.8 2 1v2l-2-1z" fill="#c0392b"/><g fill="#2980b9"><path d="m426.57 521.8 2 1v2l-2-1z"/><path d="m390.57 538.8-2 1v2l2-1z"/></g><path d="m390.57 530.8-2 1v2l2-1z" fill="#c0392b"/><path d="m390.57 522.8-2 1v2l2-1z" fill="#2980b9"/><path d="m390.57 519.8 1 2h2l-1-2z" fill="#c0392b"/><path d="m398.57 519.8 1 2h2l-1-2z" fill="#2980b9"/><path d="m406.57 519.8 1 2h2l-1-2z" fill="#c0392b"/><path d="m414.57 519.8 1 2h2l-1-2z" fill="#2980b9"/><path d="m422.57 519.8 1 2h2l-1-2z" fill="#c0392b"/><path d="m424.57 523.8 4 4v11l-9-9z" fill="url(#b)" opacity=".2"/></g><g color="#000000" stroke-linecap="round" stroke-linejoin="round"><rect x="419.57" y="523.8" width="5" height="6" fill="#fcfcfc"/><rect x="420.57" y="524.8" width="3" height="4" fill="#16a085"/><g fill="#bdc3c7"><rect x="404.57" y="528.8" width="7" height="1"/><rect x="404.57" y="530.8" width="4" height="1"/><rect x="404.57" y="532.8" width="10" height="1"/><rect x="404.57" y="534.8" width="5" height="1"/><rect x="392.57" y="523.8" width="4" height="1"/><rect x="392.57" y="525.8" width="7" height="1"/><rect x="392.57" y="527.8" width="6" height="1"/></g><g fill="#7f8c8d"><rect x="409.57" y="503.8" width="1" height="4"/><rect x="424.57" y="503.8" width="1" height="4"/><rect x="414.57" y="503.8" width="1" height="4"/><rect x="419.57" y="503.8" width="1" height="4"/></g></g></g></svg>
