<?xml version="1.0" encoding="UTF-8"?>
<svg id="au" version="1.1" viewBox="0 0 256 256" xmlns="http://www.w3.org/2000/svg" xmlns:xlink="http://www.w3.org/1999/xlink"><defs id="av"><linearGradient id="d"><stop id="aw" stop-color="#058" offset="0"/><stop id="ax" stop-color="#e0f4ff" offset="1"/></linearGradient><linearGradient id="b"><stop id="ay" stop-color="#56c0ff" offset="0"/><stop id="az" stop-color="#e0f4ff" offset="1"/></linearGradient><linearGradient id="c"><stop id="ba" stop-color="#313131" offset="0"/><stop id="bb" stop-color="#0d2024" offset="1"/></linearGradient><linearGradient id="a"><stop id="bc" stop-color="#fff" offset="0"/><stop id="bd" stop-color="#fff" stop-opacity="0" offset="1"/></linearGradient><linearGradient id="e"><stop id="be" stop-color="#5f5f5f" offset="0"/><stop id="bf" stop-color="#7b7b7b" offset=".007761"/><stop id="bg" stop-color="#bcbcbc" offset=".015522"/><stop id="bh" stop-color="#7b7b7b" offset=".11589"/><stop id="bi" stop-color="#7b7b7b" offset="1"/></linearGradient><filter id="ar" x="-.0012098" y="-.14785" width="1.0024" height="1.2957"><feGaussianBlur id="bj" stdDeviation="0.12127985"/></filter><filter id="aq" x="-.006063" y="-.57726" width="1.0121" height="2.1545"><feGaussianBlur id="bk" stdDeviation="0.60884365"/></filter><filter id="ap"><feGaussianBlur id="bl" stdDeviation="0.22782686"/></filter><filter id="f" x="-.10925" y="-.070524" width="1.2185" height="1.141"><feGaussianBlur id="bm" stdDeviation="0.15611451"/></filter><filter id="ao"><feGaussianBlur id="bn" stdDeviation="1.1655001"/></filter><filter id="an" x="-.037339" y="-.64454" width="1.0747" height="2.2891"><feGaussianBlur id="bo" stdDeviation="3.9878742"/></filter><clipPath id="at"><path id="bp" d="m43.188 935.36c-3.2284 0-6.1583 0.95893-6.5625 2.1562l-29.594 87.687c-0.014653 0.043-0.025853 0.082-0.03125 0.125-0.0013 0.01 7.718e-4 0.021 0 0.031v0.063l0.03125 13.531c-0.40422 1.3274 2.7633 2.4063 7.0938 2.4063h226.75c4.3305 0 7.4924-1.0789 7.0938-2.4063l0.03125-13.531c6.6e-4 -0.02 1e-3 -0.042 0-0.063-4e-3 -0.053-0.0133-0.1024-0.0313-0.1563l-29.188-87.687c-0.39872-1.1973-3.3341-2.1562-6.5625-2.1562h-169.03z" fill="url(#af)"/></clipPath><linearGradient id="af" x1="7" x2="135" y1="986.36" y2="986.36" gradientUnits="userSpaceOnUse" xlink:href="#e" spreadMethod="reflect"/><linearGradient id="ae" x1="7" x2="128.02" y1="986.36" y2="986.36" gradientUnits="userSpaceOnUse" spreadMethod="reflect"><stop id="bq" stop-color="#5f5f5f" offset="0"/><stop id="br" stop-color="#7b7b7b" offset=".0015522"/><stop id="bs" stop-color="#b8b8b8" offset=".015522"/><stop id="bt" stop-color="#7b7b7b" offset=".069019"/><stop id="bu" stop-color="#7b7b7b" offset="1"/></linearGradient><linearGradient id="ad" x1="-98.955" x2="160" y1="1071.9" y2="922.36" gradientUnits="userSpaceOnUse"><stop id="bv" stop-color="#656565" offset="0"/><stop id="bw" stop-color="#c8c8c3" offset="1"/></linearGradient><radialGradient id="x" cx="70" cy="957.79" r="120.5" fx="2.5" gradientTransform="matrix(1 0 0 .38174 0 606.73)" gradientUnits="userSpaceOnUse" xlink:href="#a"/><radialGradient id="w" cx="246.39" cy="231.33" r="2.2148" gradientTransform="matrix(1.9453 0 0 1.4251 -232.92 697.7)" gradientUnits="userSpaceOnUse" xlink:href="#a"/><radialGradient id="v" cx="246.39" cy="231.33" r="2.2148" gradientTransform="matrix(1.9453 0 0 1.4251 -232.92 -98.667)" gradientUnits="userSpaceOnUse" xlink:href="#a"/><linearGradient id="ac" x1="131.1" x2="131.49" y1="823.71" y2="1001.9" gradientTransform="matrix(.99484 0 0 .99505 1.2551 4.9663)" gradientUnits="userSpaceOnUse" xlink:href="#a"/><radialGradient id="l" cx="127.05" cy="958.19" r="107.91" gradientTransform="matrix(.99484 0 0 .36797 1.2551 606.48)" gradientUnits="userSpaceOnUse" xlink:href="#e"/><radialGradient id="k" cx="132.47" cy="998.66" r="107.35" gradientTransform="matrix(1.26 -.34466 .14342 .52433 -179.5 491.05)" gradientUnits="userSpaceOnUse" xlink:href="#c"/><filter id="ah"><feGaussianBlur id="bx" stdDeviation="1.7541388"/></filter><radialGradient id="h" cx="8.6558" cy="285.18" r="119.15" gradientTransform="matrix(1 0 0 .40031 .045339 895.18)" gradientUnits="userSpaceOnUse"><stop id="by" stop-opacity="0" offset="0"/><stop id="bz" stop-opacity="0" offset="1"/></radialGradient><radialGradient id="g" cx="8.6558" cy="284.43" r="119.65" gradientTransform="matrix(1 0 0 .40282 .045339 894.77)" gradientUnits="userSpaceOnUse"><stop id="ca" stop-color="#fff" offset="0"/><stop id="cb" stop-color="#fff" stop-opacity="0" offset="1"/></radialGradient><linearGradient id="z" x1="59.865" x2="126.38" y1="233.38" y2="132.09" gradientUnits="userSpaceOnUse"><stop id="cc" stop-color="#fff" offset="0"/><stop id="cd" stop-color="#fff" stop-opacity="0" offset="1"/></linearGradient><filter id="ag"><feGaussianBlur id="ce" stdDeviation="0.15038113"/></filter><filter id="ak"><feGaussianBlur id="cf" stdDeviation="1.4934987"/></filter><clipPath id="as"><path id="cg" d="m362.87 919.99-26.457 78.126c-0.19856 0.56721 1.2763 1.2812 3.0902 1.2438h208.39c2.0093 0.0413 3.3883-0.6766 3.1897-1.2438l-24.426-78.126c-0.13052-0.36761-0.51164-0.63052-0.90158-0.62189h-160.99c-0.88506 0-1.7682 0.34496-1.8964 0.62189z" fill="url(#j)"/></clipPath><radialGradient id="j" cx="132.47" cy="998.66" r="107.35" gradientTransform="matrix(1.26 -.34466 .14342 .52433 136.6 491.05)" gradientUnits="userSpaceOnUse" xlink:href="#c"/><filter id="aj"><feGaussianBlur id="ch" stdDeviation="3.4466019"/></filter><radialGradient id="i" cx="128" cy="999.86" r="103" gradientTransform="matrix(1 0 0 .073598 0 925.77)" gradientUnits="userSpaceOnUse"><stop id="ci" stop-color="#fff" offset="0"/><stop id="cj" stop-color="#fff" stop-opacity="0" offset="1"/></radialGradient><filter id="ai"><feGaussianBlur id="ck" stdDeviation="2.4298161"/></filter><linearGradient id="aa" x1="2227.1" x2="2231.8" y1="-1248.2" y2="-1249" gradientUnits="userSpaceOnUse"><stop id="cl" stop-color="#fff" offset="0"/><stop id="cm" stop-color="#fff" stop-opacity="0" offset="1"/></linearGradient><radialGradient id="u" cx="-551.75" cy="93.681" r="22.734" gradientTransform="matrix(-1.4616 -2.5315 1.9539 -1.1281 -895.08 -377)" gradientUnits="userSpaceOnUse" xlink:href="#b"/><radialGradient id="t" cx="-593.41" cy="105.14" r="46.141" gradientTransform="matrix(-.32922 -1.2287 .77514 -.2077 -153.04 253.78)" gradientUnits="userSpaceOnUse"><stop id="cn" stop-color="#058" offset="0"/><stop id="co" stop-color="#81d2ff" offset="1"/></radialGradient><radialGradient id="s" cx="-504.8" cy="147.53" r="1.0772" gradientTransform="matrix(-30.18 -30.18 28.263 -28.263 -19262 -10226)" gradientUnits="userSpaceOnUse"><stop id="cp" stop-color="#004c7a" offset="0"/><stop id="cq" stop-color="#38b5ff" offset=".63582"/><stop id="cr" stop-color="#a5deff" offset="1"/></radialGradient><radialGradient id="r" cx="-496.24" cy="945.91" r="13.023" gradientTransform="matrix(-.32922 -1.2287 2.1827 -.58484 -2082.9 770.89)" gradientUnits="userSpaceOnUse" xlink:href="#b"/><radialGradient id="q" cx="-590.09" cy="127.07" r="46.062" gradientTransform="matrix(-1.6584 -2.8724 1.5521 -.89613 -1023.6 -632.06)" gradientUnits="userSpaceOnUse"><stop id="cs" stop-color="#004c7a" offset="0"/><stop id="ct" stop-color="#38b5ff" offset=".5"/><stop id="cu" stop-color="#a5deff" offset="1"/></radialGradient><radialGradient id="p" cx="-492.85" cy="942.46" r="13.023" gradientTransform="matrix(-.32922 -1.2287 2.1827 -.58484 -2082.9 770.89)" gradientUnits="userSpaceOnUse" xlink:href="#b"/><radialGradient id="o" cx="-504.8" cy="147.53" r="1.0772" gradientTransform="matrix(-.32922 -1.2287 28.032 -7.5113 -4159.7 1327.4)" gradientUnits="userSpaceOnUse" xlink:href="#b"/><radialGradient id="n" cx="-590.48" cy="128.62" r="46.141" gradientTransform="matrix(-.32922 -1.2287 .77514 -.2077 -153.04 253.78)" gradientUnits="userSpaceOnUse" xlink:href="#d"/><radialGradient id="m" cx="-583.31" cy="141.62" r="46.062" gradientTransform="matrix(-.32922 -1.2287 .66392 -.1779 -126.37 246.63)" gradientUnits="userSpaceOnUse" xlink:href="#d"/><filter id="am"><feGaussianBlur id="cv" stdDeviation="1.6991462"/></filter><linearGradient id="ab" x1="190" x2="190" y1="148" y2="203.51" gradientTransform="matrix(.93832 0 0 1.0672 -233 -1143.1)" gradientUnits="userSpaceOnUse" xlink:href="#a"/><mask id="y" maskUnits="userSpaceOnUse"><rect id="cw" transform="matrix(.95308 -.30271 -.25199 -.96773 0 0)" x="-175.76" y="-986.26" width="141.22" height="61.899" rx=".95117" ry=".62724" fill="url(#ab)" fill-rule="evenodd"/></mask><filter id="al" x="-.13337" y="-.83196" width="1.2667" height="2.6639"><feGaussianBlur id="cx" stdDeviation="1.8199234"/></filter></defs><g id="cy" transform="translate(0 -796.36)"><g id="cz" transform="translate(0,-21)"><path id="da" d="m36.63 948.02-29.595 91.678c-0.40422 1.1973 2.7566 2.1612 7.0871 2.1612h226.75c4.3305 0 7.4956-0.9639 7.097-2.1612l-29.197-91.678c-0.38295-1.2025-3.3185-2.1612-6.5469-2.1612h-169.04c-3.2284 0-6.1525 0.96393-6.5568 2.1612" fill="#000" filter="url(#ao)"/><path id="db" d="m34.63 952.02-28.195 87.178c-0.40422 1.1973 3.3566 3.1612 7.6871 3.1612h226.75c4.3305 0 8.1956-1.6639 7.797-2.8612l-26.897-87.478c-0.37089-1.2062-3.3185-2.1612-6.5469-2.1612h-174.04c-3.2284 0-6.1525 0.96393-6.5568 2.1612" fill="#000" filter="url(#ai)"/><path id="dc" d="m36.63 937.76-29.63 87.604 0.034822 13.604c-0.40422 1.3274 2.7566 2.3961 7.0871 2.3961h226.75c4.3305 0 7.4956-1.0687 7.097-2.3961l0.0339-13.604-5.021-7.0001-24.21-80.604c-0.39872-1.3275-3.3185-2.3962-6.5469-2.3962h-169.04c-3.2284 0-6.1525 1.0687-6.5568 2.3962" fill="url(#ae)"/><path id="dd" d="m36.63 937.52s-29.595 87.678-29.595 87.678c-0.40422 1.1973 2.7566 2.1612 7.0871 2.1612h226.75c4.3305 0 7.4956-0.9639 7.097-2.1612 0 0-29.197-87.678-29.197-87.678-0.39872-1.1973-3.3185-2.1612-6.5469-2.1612h-169.04c-3.2284 0-6.1525 0.96393-6.5568 2.1612" fill="url(#ad)"/><path id="de" d="m36.63 937.52-29.595 87.678c0.26077 0.767 3.0643 1.9621 7.0871 2.1612 57.136-26.26 167.74-75.386 204.65-89.839-0.39872-1.1973-3.3185-2.1612-6.5469-2.1612h-169.04c-3.2284 0-6.1525 0.96393-6.5568 2.1612" fill="url(#x)" filter="url(#ap)" opacity=".23504"/><g id="df" clip-path="url(#at)"><path id="dg" d="m7.25 1025.2c-0.045277 0.1293 0.029093 0.5408-0.03125 0.4063 0.03986 0.099 0.14551 0.1985 0.28125 0.3124 0.12817 0.1076 0.23599 6.956 0.44997 7.0621 0.23924 0.1186-0.14477-6.8166 0.92503-6.4058 1.2519 0.3801 3.0999 0.5937 5.25 0.5937h226.75c1.6894 0 3.2776-0.1506 4.4512-0.3911 0.32004-0.066 0.76073 5.5884 1.0288 5.5069 0.31793-0.097 0.36759-5.9147 0.60148-6.0285 0.22634-0.1101 0.40979-0.2248 0.54348-0.3369 0.13592-0.1139 0.24103-0.2127 0.28125-0.3124 0.0402-0.1 0.0357-0.2053 0-0.3126l-0.0313-0.094c-0.47087 0.4071-1.2313 0.702-2.2812 0.9375-1.2355 0.2771-2.8219 0.4688-4.5938 0.4688h-226.75c-1.7719 0-3.3578-0.1917-4.5938-0.4688-1.0504-0.2355-1.8114-0.53-2.2812-0.9375z" fill="#fff" filter="url(#ar)" opacity=".52709"/><path id="dh" d="m7.1562 1024.8-0.125 0.375c-0.10309 0.3053 0.026128 0.5952 0.34769 0.8576 0.28306 0.231 0.16272 12.462 0.71661 12.642 0.42892 0.1396 1.4833-11.759 2.0457-11.659 1.1213 0.2005 2.4827 0.3157 3.9838 0.3157h226.75c1.204 0 1.1686 0.059 2.1405-0.074 0.79352-0.1084 2.951 10.936 3.5276 10.758 0.37822-0.1168 0.39438-11.572 0.65933-11.713 0.6158-0.3274 0.9043-0.7132 0.76634-1.1276l-0.125-0.375c-0.69344 0.8809-3.4502 1.5313-6.9688 1.5313h-226.75c-3.5185 0-6.2794-0.6504-6.9688-1.5313z" fill="#fff" filter="url(#aq)" opacity=".52709"/><rect id="di" x="-1.7678" y="1037.7" width="256.33" height="16.617" rx="5.0508" ry="5.0508" fill="#fff" filter="url(#an)" opacity=".60684"/><path id="dj" d="m242.81 1027.1c0.0837 0 4.5258-0.8341 4.5258-0.8341s-0.72204 0.042-0.79754 0.6688c-0.18898 1.5679 0.4306 8.5677-0.0504 8.6752-0.0817 0.018-1.3015-8.6312-1.3015-8.6312z" fill="url(#w)" filter="url(#f)"/><path id="dk" transform="matrix(-1 0 0 1 254.76 796.36)" d="m244.53 230.74c0.0837 0 2.8023-0.87832 2.8023-0.87832s-0.21381 0.92628-0.28931 1.5527c-0.18898 1.5679 0.0991 8.855-0.38185 8.9625-0.0817 0.0183-0.68816-9.8251-0.68816-9.8251z" fill="url(#v)" filter="url(#f)"/></g></g><path id="dl" d="m46.769 919.99-26.457 77.226c-0.19856 0.56721 1.2763 1.2812 3.0902 1.2438h208.39c2.0093 0.0413 3.3883-0.6766 3.1897-1.2438l-24.426-77.226c-0.13052-0.36761-0.51164-0.63052-0.90158-0.62189h-160.99c-0.88506 0-1.7682 0.34496-1.8964 0.62189z" fill="url(#k)"/><path id="dm" d="m46.769 919.99-26.457 77.126c-0.19856 0.56721 1.2763 1.2812 3.0902 1.2438 62.222-28.185 123.65-51.665 185.15-78.37-0.13052-0.36761-0.51164-0.63052-0.90158-0.62189h-158.99c-0.88506 0-1.7682 0.34496-1.8964 0.62189z" fill="url(#ac)" opacity=".52564"/><path id="dn" d="m48.666 919.36c-0.88506 0-1.7682 0.34188-1.8964 0.61634l-26.257 77.72c-0.07694 0.21783 0.08728 0.46824 0.43524 0.67797l25.821-76.426c0.12822-0.27446 1.0114-0.61633 1.8964-0.61633h160.99c0.38994-9e-3 0.77106 0.25201 0.90158 0.61633l23.99 75.926c0.3417-0.2102 0.51219-0.46014 0.43525-0.67797l-24.426-77.22c-0.13052-0.36433-0.51164-0.62487-0.90158-0.61634h-160.99z" fill="url(#l)"/><path id="do" transform="translate(-315.69 .9)" d="m315 895.36v100h23.688l27.188-72.375c0.12662-0.27349 1.0009-0.625 1.875-0.625h155c0.38509-9e-3 0.7461 0.26195 0.875 0.625l25.25 72.375h21.125v-100h-255z" clip-path="url(#as)" fill="#000" filter="url(#aj)" opacity=".82063"/><path id="dp" transform="translate(0 796.36)" d="m37.598 123.71-25.635 74.977c-0.9318 2.9508-4.3016 9.556-1.0581 9.2593l228.8 0.32322 3.5355-4.2426-23.335-73.539 18.031 70.711v3.8891l-218.43-1.7071c-2.2335-0.59208-1.6975-2.3814-1.1857-4.3462l25.163-77.739-5.8891 2.4142z" fill="url(#z)" filter="url(#ah)" opacity=".50495"/><path id="dq" d="m28.143 944.57-13.867 52.193c-0.9318 2.9508-1.8293 6.1303 1.4142 5.8336l224.06 2.033 3.5355-4.2427-23.335-73.539 18.031 70.711v3.8891l-219.56-0.7071c-2.2335-0.5921-2.5448-2.7198-2.0329-4.6846l15.635-52.9-3.8891 1.4142z" fill="url(#g)" filter="url(#ak)" opacity=".54709" stroke="url(#h)" stroke-linejoin="miter" stroke-width="1px"/><rect id="dr" x="879.51" y="688.14" width="0" height="3.25" rx=".33307" ry=".39775" fill="#fff" opacity=".76779"/><g id="ds" transform="matrix(.048317 0 0 .048317 888 512.3)" fill="#fff" opacity=".3624"></g><g id="dt" transform="matrix(.048317 0 0 .048317 888 517.32)" fill="#fff" opacity=".3624"></g><g id="du" transform="matrix(.048317 0 0 .048317 888 522.35)" fill="#fff" opacity=".3624"></g><rect id="dv" x="25" y="998.46" width="206" height="1.7996" fill="url(#i)" opacity=".69802"/><path id="dw" transform="translate(.99619 -.63314)" d="m2227.5-1257.6c-0.1292-0.013-0.2456 0.029-0.375 0.094a0.15089 0.15089 0 0 0-0.031 0 0.15089 0.15089 0 0 0-0.031 0.031 0.15089 0.15089 0 0 0 0 0.031 0.15089 0.15089 0 0 0-0.031 0.031 0.15089 0.15089 0 0 0 0 0.031c1.0455 15.272 1.1987 23.272 1.0938 27.437-0.052 2.0825-0.1473 3.2141-0.25 3.8126-0.021 0.1229-0.044 0.1368-0.063 0.2187-0.269-0.8624-0.4842-2.2977-0.625-4.125-0.1659-2.1532-0.2426-4.8018-0.2813-7.6563-0.077-5.7089 0.023-12.17 0.031-16.719a0.15089 0.15089 0 0 0 0-0.031 0.15089 0.15089 0 0 0-0.031-0.031 0.15089 0.15089 0 0 0 0-0.031 0.15089 0.15089 0 0 0-0.031-0.031 0.15089 0.15089 0 0 0-0.031 0 0.15089 0.15089 0 0 0-0.031-0.031 0.15089 0.15089 0 0 0-0.031 0 0.15089 0.15089 0 0 0-0.031 0 0.15089 0.15089 0 0 0-0.031 0.031 0.15089 0.15089 0 0 0-0.031 0c-0.065 0.061-0.094 0.1613-0.125 0.25-0.031 0.089-0.069 0.184-0.094 0.3125-0.049 0.257-0.091 0.5831-0.125 1-0.069 0.8338-0.1049 1.9975-0.125 3.3438-0.04 2.6924 0.011 6.2031 0.125 9.7812 0.1138 3.5781 0.2814 7.1979 0.5 10.094 0.1092 1.4479 0.2485 2.7337 0.375 3.7187 0.1264 0.985 0.2522 1.6718 0.4062 2.0313l0.125-0.063c0.048 0.065 0.081 0.1297 0.094 0.125 0.024-0.01 0.053-0.015 0.094-0.031 0.082-0.032 0.1998-0.068 0.3125-0.125s0.2141-0.1362 0.3125-0.2188c0.098-0.082 0.1986-0.1723 0.2187-0.3124 0.7795-5.4137 1.1462-13.579 1-20.406-0.073-3.4136-0.2725-6.4984-0.625-8.75-0.1762-1.1258-0.3984-2.0322-0.6562-2.6875-0.1289-0.3276-0.2454-0.5882-0.4062-0.7812-0.1609-0.1931-0.3776-0.3264-0.5938-0.3438z" fill="url(#aa)" fill-rule="evenodd" filter="url(#ag)"/><g id="dx" transform="matrix(1.104 -.43199 -.28746 -.92251 285.42 1911.7)" filter="url(#am)" mask="url(#y)"><path id="dy" d="m112.17 848.6 56.92-14.97c-15.977-9.5166-33.128-20.773-48.372-21.338l-0.61978 3.9292c2.7934 6.9943-0.52142 18.681-7.9289 32.379z" fill="url(#p)"/><path id="dz" d="m112.16 848.6 2.9077-3.3221 56.924-14.962-2.9472 3.3359z" fill="url(#o)"/><path id="ea" d="m81.651 912.49c12.598 32.303 33.355 53.326 50.237 48.802 19.678-5.2728 26.603-43.24 15.466-84.802-3.5945-13.415-8.6207-25.547-14.456-35.674l-2.2062 2.978c5.4626 9.5358 10.179 20.942 13.552 33.529 10.546 39.357 3.9793 75.312-14.655 80.305-15.923 4.2666-35.485-15.467-47.43-45.851l-0.50869 0.71243z" fill="url(#n)"/><path id="eb" d="m131.89 961.29 21.288-4.7163c22.165-5.9391 30.985-44.856 19.712-86.928-3.591-13.402-8.794-25.506-14.927-35.589l14.053-3.7654c-17.049-10.155-34.936-18.41-51.291-18.026 2.7934 6.9943 1.7092 19.557-5.6983 33.255l24.919-6.6769-7.0545 1.9314 0.0102 0.0384c5.8352 10.126 10.861 22.259 14.456 35.674 11.137 41.562 4.212 79.53-15.466 84.802z" fill="url(#m)"/></g><path id="ec" transform="matrix(1.1075 0 0 1.1075 -18.801 784.92)" d="m188 160.5-22.5 5.25-5.75-0.25-4.5-1.25 2.25-3.25 27.261-4.8117z" fill="#000" filter="url(#al)" stroke="#000" stroke-linejoin="miter" stroke-width="1px"/><g id="ed" transform="matrix(1.0689 0 0 1.0689 24.419 -60.179)"><path id="ee" d="m113.42 848.3 55.67-14.67c-15.977-9.5166-33.128-20.773-48.372-21.338l-0.26989 3.9292c0.16561 8.4108-3.4514 22.524-7.0287 32.079z" fill="url(#r)"/><path id="ef" d="m113.35 848.34 1.6932-2.8333 56.951-15.196-2.9472 3.3359z" fill="url(#s)"/><path id="eg" d="m81.651 912.49c12.598 32.303 33.355 53.326 50.237 48.802 19.678-5.2728 26.603-43.24 15.466-84.802-3.5945-13.415-8.6207-25.547-14.456-35.674l-2.2062 2.978c5.4626 9.5358 10.179 20.942 13.552 33.529 10.546 39.357 3.9793 75.312-14.655 80.305-15.923 4.2666-35.485-15.467-47.43-45.851l-0.50869 0.71243z" fill="url(#t)"/><path id="eh" d="m82.16 911.78c10.27 26.122 26.159 44.365 40.542 46.256 2.3467 0.3086 4.6539 0.19338 6.8873-0.40505 3.159-0.84653 5.947-2.6243 8.3796-5.126-14.127-4.2587-28.882-21.158-38.518-43.762z" fill="url(#u)"/><path id="ei" d="m131.89 961.29 21.288-4.7163c22.165-5.9391 30.985-44.856 19.712-86.928-3.591-13.402-8.794-25.506-14.927-35.589l14.053-3.7654c-15.487-9.0149-32.297-15.298-51.291-18.026 1.2084 6.9456-1.1728 20.414-5.6983 33.255l17.864-4.7455 0.0102 0.0384c5.8352 10.126 10.861 22.259 14.456 35.674 11.137 41.562 4.212 79.53-15.466 84.802z" fill="url(#q)"/></g></g></svg>
