<?xml version="1.0" encoding="UTF-8"?>
<svg id="f" version="1.1" viewBox="0 0 128 128" xmlns="http://www.w3.org/2000/svg" xmlns:osb="http://www.openswatchbook.org/uri/2009/osb" xmlns:xlink="http://www.w3.org/1999/xlink"><defs id="g"><linearGradient id="a"><stop id="h" stop-opacity=".28627" offset="0"/><stop id="i" stop-opacity="0" offset="1"/></linearGradient><linearGradient id="b" x1="35.742" x2="35.742" y1="29" y2="9" gradientTransform="translate(-39 1004.9)" gradientUnits="userSpaceOnUse"><stop id="j" stop-color="#d5d5d3" offset="0"/><stop id="k" stop-color="#fff" offset="1"/></linearGradient><linearGradient id="c" x1="412.57" x2="425.57" y1="514.8" y2="527.8" gradientTransform="translate(-423.57 505.14)" gradientUnits="userSpaceOnUse" xlink:href="#a"/><linearGradient id="d" x1="405.57" x2="427.57" y1="509.8" y2="533.8" gradientTransform="translate(-423.57 505.14)" gradientUnits="userSpaceOnUse" xlink:href="#a"/><linearGradient id="e" x1="402.86" x2="402.63" y1="533.8" y2="503.8" gradientTransform="translate(-423.57 505.14)" gradientUnits="userSpaceOnUse"><stop id="l" stop-color="#197cf1" offset="0"/><stop id="m" stop-color="#20bcfa" offset="1"/></linearGradient></defs><g id="n" transform="translate(0 -924.36)"><g id="o" transform="matrix(2.8 0 0 2.8 106 -1884.7)" fill-rule="evenodd"><path id="p" d="m-35 1008.9v30h2.8571l11.429 8.5714v-8.5714h25.714v-30z" fill="url(#e)"/><path id="q" d="m-20.714 1041.8-5.7143-5.7142v-5.7143l-2.8571-2.8572v-8.5714h2.8571l1.4286 1.4286v-1.4286l20-6.4286 10 10v16.429h-25.714z" fill="url(#d)" opacity=".435"/><path id="r" d="m-3.5714 1026.1 8.5714 8.5714v-8.5714l-5.7143-5.7143h-2.8571z" fill="url(#c)"/><path id="s" d="m-5 1012.5-20 6.4286v9l20 6.7143v-6.7143-9zm-24.286 6.4286v8.5714h2.8571v-8.5714zm25.714 1.4286v5.7143h2.8571v-5.7143z" fill="url(#b)"/><rect id="t" x="-26.429" y="1030.4" width="2.8571" height="5.7143" fill="#cdcdcb"/></g></g></svg>
