<?xml version="1.0" encoding="UTF-8"?>
<svg viewBox="0 0 48 48" xmlns="http://www.w3.org/2000/svg" xmlns:xlink="http://www.w3.org/1999/xlink"><defs><linearGradient id="a" x1="29.06" x2="29.01" y1="13.634" y2="1.499" gradientTransform="matrix(-.99376-.00282.00423.65925 47.823 4.893)" gradientUnits="userSpaceOnUse"><stop stop-color="#63984b" offset="0"/><stop stop-color="#8fc278" offset="1"/></linearGradient><linearGradient id="b" x2="0" y1="32" y2="2" gradientTransform="translate(12 12)" gradientUnits="userSpaceOnUse"><stop stop-color="#d8dcde" offset="0"/><stop stop-color="#f9fafb" offset="1"/></linearGradient><linearGradient id="c" x2="0" y1="8" y2="4" gradientTransform="translate(1)" gradientUnits="userSpaceOnUse"><stop stop-color="#2f3943" offset="0"/><stop stop-color="#4d5662" offset="1"/></linearGradient><linearGradient id="d" x2="0" y1="8" y2="4" gradientTransform="translate(26)" gradientUnits="userSpaceOnUse" xlink:href="#c"/><linearGradient id="e" x1="8" x2="19" y1="8" y2="19" gradientUnits="userSpaceOnUse"><stop offset="0"/><stop stop-opacity="0" offset="1"/></linearGradient><linearGradient id="f" x1="8" x2="19" y1="8" y2="19" gradientTransform="translate(25)" gradientUnits="userSpaceOnUse" xlink:href="#e"/></defs><g stroke-linejoin="bevel" stroke-width="2"><path d="m4 13v31h40v-31z" fill="url(#b)"/><path d="m4 6h40v8h-40z" fill="url(#a)"/><g stroke-linecap="round"><rect x="4" y="13" width="40" height="1" fill="#507441"/><g fill="#bdc3c7"><rect x="4" y="14" width="11" height="6"/><rect x="27" y="38" width="17" height="6"/></g><rect x="7" y="7" width="9" height="1" fill="#507441"/><rect x="8" y="4" width="7" height="4" fill="url(#c)"/><rect x="32" y="7" width="9" height="1" fill="#507441"/><rect x="33" y="4" width="7" height="4" fill="url(#d)"/><rect x="18" y="10" width="12" height="2" fill="#fcfcfc"/></g></g><g fill-rule="evenodd"><path d="m8 8 11 11h7l-11-11z" fill="url(#e)" opacity=".2"/><path d="m33 8 11 11v-7l-4-4z" fill="url(#f)" opacity=".2"/></g><g stroke-linecap="round" stroke-linejoin="bevel" stroke-width="2"><g fill="#da4453"><rect x="16" y="18" width="4" height="1"/><rect x="34" y="30" width="2" height="1"/><rect x="5" y="36" width="1" height="1"/><rect x="7" y="36" width="1" height="1"/></g><g fill="#27ae60"><rect x="16" y="36" width="2" height="1"/><rect x="28" y="24" width="4" height="1"/><rect x="10" y="24" width="4" height="1"/><rect x="16" y="24" width="4" height="1"/><rect x="22" y="24" width="4" height="1"/></g><g fill="#3daefd"><rect x="34" y="36" width="3" height="1"/><rect x="5" y="30" width="3" height="1"/><rect x="40" y="18" width="3" height="1"/></g></g></svg>
