<?xml version="1.0" encoding="UTF-8"?>
<svg viewBox="0 0 48 48" xmlns="http://www.w3.org/2000/svg"><linearGradient id="a" x1="4" x2="4" y1="3" y2="45" gradientUnits="userSpaceOnUse"><stop stop-color="#977a5c" offset="0"/><stop stop-color="#9d8062" offset="1"/></linearGradient><linearGradient id="b" x1="4" x2="4" y1="3" y2="45" gradientUnits="userSpaceOnUse"><stop stop-color="#383e51" offset="0"/><stop stop-opacity="0" offset="1"/></linearGradient><linearGradient id="c" x1="4" x2="4" y1="3" y2="45" gradientUnits="userSpaceOnUse"><stop stop-color="#21c9fb" offset="0"/><stop stop-color="#197cf1" offset="1"/></linearGradient><path d="m2 6v36h44v-36h-44z" fill="url(#a)"/><path d="m4 8v32h40v-32h-40z" fill="#eff0f1"/><path d="m33 15-18 18 7 7h22v-15l-11-10z" fill="url(#b)" opacity=".2"/><path d="m15 15v18h18v-18h-18z" fill="url(#c)"/><path d="m14 14v20h20v-20h-20zm1 1h18v17 1h-18v-1-17zm0 17h4l3-3-2-2-5 5zm18 0-6-6-6 6h12zm-14.5-16c-1.385 0-2.5 1.115-2.5 2.5s1.115 2.5 2.5 2.5 2.5-1.115 2.5-2.5-1.115-2.5-2.5-2.5z" fill="#fff"/><path d="m30 11-2 2 7 7 2-2-7-7zm-18 17-2 2 7 7 2-2-7-7z" fill="#f8c94d"/></svg>
