<?xml version="1.0" encoding="UTF-8"?>
<svg viewBox="0 0 48 48" xmlns="http://www.w3.org/2000/svg" xmlns:xlink="http://www.w3.org/1999/xlink"><defs><linearGradient id="1" x2="0" y1="536.8" y2="503.8" gradientUnits="userSpaceOnUse"><stop stop-color="#2a2c2f" offset="0"/><stop stop-color="#424649" offset="1"/></linearGradient><linearGradient id="2" x2="0" y1="547.8" y2="536.8" gradientTransform="matrix(1 0 0 .54545 0 244)" gradientUnits="userSpaceOnUse"><stop stop-color="#c6cdd1" offset="0"/><stop stop-color="#e0e5e7" offset="1"/></linearGradient><linearGradient id="5" x2="0" y1="541.8" y2="489.8" gradientTransform="translate(-392.57 -493.8)" gradientUnits="userSpaceOnUse"><stop stop-color="#7e8f9e" offset="0"/><stop stop-color="#84ced5" offset="1"/></linearGradient><linearGradient id="6" x1="394.57" x2="404.57" y1="535.8" y2="522.8" gradientTransform="translate(-392.57 -493.8)" gradientUnits="userSpaceOnUse"><stop stop-color="#e4a56d" offset="0"/><stop stop-color="#a7bd78" offset="1"/></linearGradient><linearGradient id="8" x1="404.57" x2="421.57" gradientTransform="translate(-392.57 -493.8)" gradientUnits="userSpaceOnUse"><stop stop-color="#c3a278" offset="0"/><stop stop-color="#68a" offset="1"/></linearGradient><linearGradient id="A" x1="430.57" x2="437.5" y1="536.8" y2="524.8" gradientTransform="translate(-392.57 -493.8)" gradientUnits="userSpaceOnUse"><stop stop-color="#6588af" offset="0"/><stop stop-color="#8ba8cd" offset="1"/></linearGradient><linearGradient id="C" x1="421.57" x2="438.57" gradientTransform="translate(-8 6)" gradientUnits="userSpaceOnUse"><stop stop-color="#89ad8b" offset="0"/><stop stop-color="#82b3c7" offset="1"/></linearGradient><linearGradient id="E" x1="387.57" x2="401.57" y1="525.8" y2="513.8" gradientTransform="translate(-392.57 -493.8)" gradientUnits="userSpaceOnUse"><stop stop-color="#e1b16f" offset="0"/><stop stop-color="#99bf83" offset="1"/></linearGradient><linearGradient id="G" x1="404.57" x2="391.57" y1="510.8" y2="498.8" gradientTransform="translate(-392.57 -493.8)" gradientUnits="userSpaceOnUse"><stop stop-color="#99c487" offset="0"/><stop stop-color="#b4d99e" offset="1"/></linearGradient><linearGradient id="I" x1="404.57" x2="421.57" gradientTransform="translate(-392.57 -493.8)" gradientUnits="userSpaceOnUse"><stop stop-color="#75d5c7" offset="0"/><stop stop-color="#66afb9" offset="1"/></linearGradient><linearGradient id="K" x1="428.57" x2="438.57" y1="495.8" y2="504.8" gradientTransform="translate(-392.57 -493.8)" gradientUnits="userSpaceOnUse"><stop stop-color="#5c7b9e" offset="0"/><stop stop-color="#839dc0" offset="1"/></linearGradient><linearGradient id="M" x1="421.57" x2="406.57" gradientTransform="translate(-392.57 -493.8)" gradientUnits="userSpaceOnUse"><stop stop-color="#7fbcc6" offset="0"/><stop stop-color="#8ee4e3" offset="1"/></linearGradient><linearGradient id="O" x1="421.57" x2="436.57" gradientTransform="translate(-392.57 -493.8)" gradientUnits="userSpaceOnUse"><stop stop-color="#84d5d7" offset="0"/><stop stop-color="#84a8ba" offset="1"/></linearGradient></defs><g transform="translate(-384.57 -499.8)"><path d="m402.57 536.8v3.8182 1.0909 1.0909h12v-1.0909-1.0909-3.8182z" fill="url(#2)"/><rect x="384.57" y="503.8" width="48" height="36" fill="url(#1)"/><path transform="translate(384.57 499.8)" d="m2 6v30h44v-30h-44z" fill="url(#5)"/><g fill-rule="evenodd"><path transform="translate(384.57 499.8)" d="m12 22-10 8.2344v5.7656h10v-14z" fill="url(#6)"/><path transform="translate(384.57 499.8)" d="m12 22v14h17l-17-14z" fill="url(#8)"/><path transform="translate(384.57 499.8)" d="m46 22-17 14h17v-14z" fill="url(#A)"/><path d="m413.57 529.8v-22l17 14-17 14z" fill="url(#C)"/><path transform="translate(384.57 499.8)" d="m2 13.766v16.469l10-8.2344-10-8.2344z" fill="url(#E)"/><path transform="translate(384.57 499.8)" d="m2 6v7.7656l10 8.2344v-6-10h-10z" fill="url(#G)"/><path transform="translate(384.57 499.8)" d="m12 6v10 6l17-14-2.4297-2h-14.57z" fill="url(#I)"/><path transform="translate(384.57 499.8)" d="m31.43 6-2.4297 2 17 14v-6-10h-14.57z" fill="url(#K)"/><path transform="translate(384.57 499.8)" d="m26.57 6 2.4297 2v-2h-2.4297z" fill="url(#M)"/><path transform="translate(384.57 499.8)" d="m29 6v2l2.4297-2h-2.4297z" fill="url(#O)"/></g><rect x="397.57" y="541.8" width="22" height="2" fill="#99a1a7"/><path d="m397.29 517.89 2.2337 2.2337c5.5508-5.5508 14.553-5.5508 20.104 0l2.2337-2.2337c-6.785-6.785-17.786-6.785-24.571 0zm8.935 8.935 3.3506 3.3506 3.3506-3.3506c-1.8484-1.8484-4.8528-1.8484-6.7012 0zm-4.4675-4.4675 2.2337 2.2337c3.0826-3.0826 8.0861-3.0826 11.169 0l2.2337-2.2337c-4.3167-4.3167-11.319-4.3167-15.636 0z" fill="#fff" opacity=".75"/></g></svg>
