<?xml version="1.0" encoding="UTF-8"?>
<svg version="1.1" viewBox="0 0 48 48" xmlns="http://www.w3.org/2000/svg" xmlns:xlink="http://www.w3.org/1999/xlink"><defs id="f"><linearGradient id="b" x1="23" x2="5" y1="35" y2="13" gradientTransform="translate(382.57 499.8)" gradientUnits="userSpaceOnUse"><stop id="g" stop-color="#c61423" offset="0"/><stop id="h" stop-color="#dc2b41" offset="1"/></linearGradient><linearGradient id="a" x1="42" x2="22" y1="35" y2="12" gradientTransform="translate(386.57 499.8)" gradientUnits="userSpaceOnUse"><stop id="i" stop-color="#197cf1" offset="0"/><stop id="j" stop-color="#20bcfa" offset="1"/></linearGradient><linearGradient id="c" x1="399.99" x2="424.99" y1="513.38" y2="537.38" gradientTransform="translate(-2.4143 -1.5857)" gradientUnits="userSpaceOnUse"><stop id="k" stop-color="#292c2f" offset="0"/><stop id="l" stop-opacity="0" offset="1"/></linearGradient><linearGradient id="d" x2="0" y1="543.8" y2="503.8" gradientTransform="matrix(1.05 0 0 .85 -20.429 78.569)" gradientUnits="userSpaceOnUse"><stop id="m" stop-color="#e3dfd6" offset="0"/><stop id="n" stop-color="#f4f1e8" offset="1"/></linearGradient><linearGradient id="e" x2="0" y1="543.8" y2="503.8" gradientTransform="matrix(1.5 0 0 1 -588.86 -499.8)" gradientUnits="userSpaceOnUse"><stop id="o" stop-color="#bd8d48" offset="0"/><stop id="p" stop-color="#e8b971" offset="1"/></linearGradient></defs><g id="q" transform="translate(-384.57 -499.8)"><path id="r" transform="translate(384.57 499.8)" d="m0 4v40h48v-40h-48zm2 2h44v36h-44v-36z" fill="url(#e)"/><rect id="s" x="387.57" y="506.8" width="42" height="34" fill="url(#d)"/><path id="t" d="m389.57 531.8 11 12h32l1e-5 -6-1e-5 -11-11-11h-1-6v16-13 13l-16.381-16h-1.619l-5 16z" fill="url(#c)" fill-rule="evenodd" opacity=".2"/><path id="u" d="m414.57 515.8v16h2 5a5 5 0 0 0 5-5 5 5 0 0 0-2.8652-4.5156 4 4 0 0 0 0.86523-2.4844 4 4 0 0 0-4-4h-4-2zm2 2h4a2 2 0 0 1 2 2 2 2 0 0 1-2 2h-4v-4zm0 6h5a3 3 0 0 1 3 3 3 3 0 0 1-3 3h-5v-3-3zm0 3a5 5 0 0 0 4e-3 0.0762v-0.19336a5 5 0 0 0-4e-3 0.11719z" fill="url(#a)"/><path id="v" d="m395.73 515.8-6.1094 16h2.2832l1.4199-4h7.2871l1.4199 4h2.25l-6.0976-16h-2.4531zm1.2207 2.1328 2.9121 7.8672h-5.8125l2.9004-7.8672z" fill="url(#b)"/><path id="w" transform="translate(384.57 499.8)" d="m2 6v36h44v-36h-44zm1 1h42v34h-42v-34z" fill="#aa7f41"/><path id="x" transform="translate(384.57 499.8)" d="m19 9v2h4v26h-4v2h10v-2h-4v-26h4v-2h-10z" fill="#bdb49e"/></g></svg>
