<?xml version="1.0" encoding="UTF-8"?>
<svg version="1.1" viewBox="0 0 48 48" xmlns="http://www.w3.org/2000/svg" xmlns:xlink="http://www.w3.org/1999/xlink"><defs><linearGradient id="a" x2="0" y1="536.8" y2="503.8" gradientTransform="translate(-384.57,-499.8)" gradientUnits="userSpaceOnUse"><stop stop-color="#2a2c2f" offset="0"/><stop stop-color="#424649" offset="1"/></linearGradient><linearGradient id="b" x2="0" y1="547.8" y2="536.8" gradientTransform="matrix(1 0 0 .54545 -384.57 -255.8)" gradientUnits="userSpaceOnUse"><stop stop-color="#c6cdd1" offset="0"/><stop stop-color="#e0e5e7" offset="1"/></linearGradient><linearGradient id="d" x1="18" x2="33" y1="17" y2="32" gradientTransform="translate(0,-1)" gradientUnits="userSpaceOnUse"><stop stop-color="#383e51" offset="0"/><stop stop-color="#655c6f" stop-opacity="0" offset="1"/></linearGradient><linearGradient id="c" x1="27" x2="27" y1="6" y2="36" gradientTransform="matrix(.99319 0 0 .97839 91.973 6.8635)" gradientUnits="userSpaceOnUse"><stop stop-color="#21c9fb" offset="0"/><stop stop-color="#1a86f2" offset="1"/></linearGradient></defs><path d="m18 37v6h12v-6z" fill="url(#b)" stroke-opacity=".55" stroke-width="2.8"/><rect y="4" width="48" height="36" fill="url(#a)" stroke-opacity=".55" stroke-width="2.8"/><rect x="13" y="42" width="22" height="2" fill="#99a1a7" stroke-opacity=".55" stroke-width="2.8"/><rect x="2" y="6" width="44" height="30" fill="url(#c)"/><path d="m32.16 13.56-15.544 9.184-0.065 0.614-1.052 0.823 16.622 13.818h15.881v-5l-0.025-3.98z" fill="url(#d)" fill-rule="evenodd" opacity=".2"/><path d="m31.001 12.998a2 2 0 0 0-2 2 2 2 0 0 0 2 2 2 2 0 0 0 2-2 2 2 0 0 0-2-2m-3.5 3a0.5 0.5 0 0 0-0.5 0.5 0.5 0.5 0 0 0 0.5 0.5 0.5 0.5 0 0 0 0.5-0.5 0.5 0.5 0 0 0-0.5-0.5m-3 2a0.5 0.5 0 0 0-0.5 0.5 0.5 0.5 0 0 0 0.5 0.5 0.5 0.5 0 0 0 0.5-0.5 0.5 0.5 0 0 0-0.5-0.5m-3 2a0.5 0.5 0 0 0-0.5 0.5 0.5 0.5 0 0 0 0.5 0.5 0.5 0.5 0 0 0 0.5-0.5 0.5 0.5 0 0 0-0.5-0.5m-4.5 1a2 2 0 0 0-2 2 2 2 0 0 0 2 2 2 2 0 0 0 2-2 2 2 0 0 0-2-2m4.5 4a0.5 0.5 0 0 0-0.5 0.5 0.5 0.5 0 0 0 0.5 0.5 0.5 0.5 0 0 0 0.5-0.5 0.5 0.5 0 0 0-0.5-0.5m3 2a0.5 0.5 0 0 0-0.5 0.5 0.5 0.5 0 0 0 0.5 0.5 0.5 0.5 0 0 0 0.5-0.5 0.5 0.5 0 0 0-0.5-0.5m3 2a0.5 0.5 0 0 0-0.5 0.5 0.5 0.5 0 0 0 0.5 0.5 0.5 0.5 0 0 0 0.5-0.5 0.5 0.5 0 0 0-0.5-0.5m3.5 0a2 2 0 0 0-2 2 2 2 0 0 0 2 2 2 2 0 0 0 2-2 2 2 0 0 0-2-2" color="#000000" fill="#fff" fill-rule="evenodd" stroke-width=".1"/></svg>
