<?xml version="1.0" encoding="UTF-8"?>
<svg id="g" enable-background="new" version="1.1" viewBox="0 0 1024 1024" xmlns="http://www.w3.org/2000/svg" xmlns:xlink="http://www.w3.org/1999/xlink"><title id="h">Krita icon - 2021</title><defs id="i"><linearGradient id="b" x1="1142.6" x2="1280.9" y1="62.713" y2="200.87" gradientTransform="rotate(-5.8888 1223.3 99.834)" gradientUnits="userSpaceOnUse"><stop id="j" stop-color="#343434" offset="0"/><stop id="k" stop-color="#4d4d4d" offset="1"/></linearGradient><linearGradient id="a" x1="1327.6" x2="1324.9" y1="230.86" y2="89.862" gradientTransform="matrix(.011121 .99994 .99994 -.011121 1077.9 -1093.5)" gradientUnits="userSpaceOnUse"><stop id="l" stop-color="#5596ea" offset="0"/><stop id="m" stop-color="#5596ea" stop-opacity="0" offset="1"/></linearGradient><clipPath id="f"><circle id="n" cx="532" cy="538" r="400" fill="#000" fill-opacity=".47451"/></clipPath><linearGradient id="e" x1="112" x2="711.86" y1="512" y2="512" gradientTransform="translate(-1211.4 -699.41)" gradientUnits="userSpaceOnUse"><stop id="o" stop-color="#ff0" offset="0"/><stop id="p" stop-color="#ff0" stop-opacity="0" offset="1"/></linearGradient><linearGradient id="d" x1="112" x2="711.86" y1="512" y2="512" gradientTransform="translate(-324.59 187.41)" gradientUnits="userSpaceOnUse"><stop id="q" stop-color="#0ff" offset="0"/><stop id="r" stop-color="#0ff" stop-opacity="0" offset="1"/></linearGradient><linearGradient id="c" x1="112" x2="711.86" y1="512" y2="512" gradientTransform="translate(0,-1024)" gradientUnits="userSpaceOnUse"><stop id="s" stop-color="#f0f" offset="0"/><stop id="t" stop-color="#f0f" stop-opacity="0" offset="1"/></linearGradient></defs><circle id="u" transform="translate(-20)" cx="532" cy="532" r="406.5" clip-path="url(#f)" fill="#000" fill-opacity=".47451"/><g id="v"><circle id="w" cx="512" cy="512" r="400" fill="#fff"/><circle id="x" transform="rotate(210)" cx="-699.41" cy="-187.41" r="400" fill="url(#e)"/><circle id="y" transform="rotate(-30)" cx="187.41" cy="699.41" r="400" fill="url(#d)"/><circle id="z" transform="rotate(90)" cx="512" cy="-512" r="400" fill="url(#c)"/></g><path id="aa" d="m224.75 234.26a400 400 0 0 0-59.668 79.27c58.488 57.233 121.47 117.97 147.15 145.65 43.449 46.822 134.02 115.22 200.07 107.35 26.082 18.344 85.181 59.443 104.94 69.188-0.3872 9.4438 1.5032 19.02 4.9004 28.527 18.522 51.842 87.764 85.519 47.459 140.77 79.34-48.078 100.44-128.31 66.824-185.54-20.992-35.735-51.532-47.466-76.955-38.924-15.225-17.219-75.788-67.511-98.086-85.867-14.218-63.939-100.45-129.89-155.37-158.5-33.57-17.483-110.36-60.679-181.26-101.92z" fill="#000" fill-opacity=".47451"/><g id="ab" transform="matrix(3.5029 0 0 3.5029 -3949.2 -128.65)"><path id="ac" d="m1287.9 191.77c-18.296 17.072-53.495-10.008-68.353-27.015-15.281-17.492-72.34-76.49-76.511-80.316-4.1704-3.8262-7.4918-8.5513-3.8041-13.253 3.839-4.5784 9.1479-2.3037 13.752 0.98738 4.6047 3.2912 74.107 46.947 94.377 58.29 19.707 11.028 53.468 39.881 40.539 61.306z" fill="url(#b)"/><path id="ad" d="m1317.2 208.62c-71.406 63.701-129.81 2.6514-138.86-18.497 5.3512 36.707 30.086 69.556 67.452 82.198 28.221 9.5474 73.254 9.3258 93.443-27.047z" fill="url(#a)"/><path id="ae" d="m1316.9 214.61c-5.8329 2.6714-5.2021 4.6023-10.381 3.7693-3.5721-0.5745-34.517-24.031-34.517-24.031-1.5685-3.7641 0.313-8.9388 3.8473-13.034 3.278-4.3034 7.953-7.2122 11.96-6.4543 0 0 29.338 25.438 30.637 28.815 1.8838 4.8958-0.1357 4.677-1.5459 10.936z" fill="#bfbfbf"/><path id="af" d="m1318.5 266.5c23.052-13.039 29.761-35.752 20.659-52.37-7.0732-12.914-18.687-15.355-26.709-9.1112-7.9576 6.1944-8.6591 13.576-6.2854 20.906 4.8408 14.952 24.31 25.155 12.335 40.575z" fill="#282828"/></g><path id="ag" d="m653.73 418.94-48.971-214.64 129.08-119.32 164.88 197.42-165.42 165.42-39.642 11.047z" fill="#fff"/><path id="ah" d="m725.67 56.069c-6.6269 0-13.254 2.5393-18.332 7.6172l-186.1 186.1c-10.156 10.156-10.156 26.508 0 36.664l132.49 132.49v-183.2c0-23.457 1.7684-41.542 5.3066-54.254 3.6693-12.711 11.467-23.458 23.393-32.238 12.056-8.9111 26.799-13.365 44.229-13.365 20.443 0 36.955 6.0277 49.535 18.084 12.712 11.925 19.066 27.453 19.066 46.586 0 18.215-6.3549 33.679-19.066 46.391 27.258 11.139 40.887 33.22 40.887 66.244 0 24.113-7.2742 44.163-21.82 60.15-14.415 15.988-33.482 23.982-57.201 23.982-16.381 0-31.058-4.719-44.031-14.154v63.1c0 5.0186-0.12498 9.1997-0.36718 12.604l14.535 14.535c10.156 10.156 26.508 10.156 36.664 0l186.1-186.1c10.156-10.156 10.156-26.508-1e-5 -36.664l-186.95-186.95c-5.0779-5.0779-11.705-7.6172-18.332-7.6172zm0.7871 120.11c-11.27 0-19.526 3.2758-24.768 9.8281-5.1108 6.5523-7.666 20.246-7.666 41.082v79.414c0 10.484 0.26097 17.364 0.78517 20.641 0.52417 3.1451 3.4728 7.6012 8.8457 13.367 5.5039 5.635 11.467 9.8281 17.889 12.58 6.5523 2.6209 12.973 3.9316 19.264 3.9316 10.353 0 18.936-3.9984 25.75-11.992 6.8144-8.1249 10.223-18.412 10.223-30.861 0-12.187-2.8181-20.704-8.4531-25.553-5.635-4.8487-13.431-8.3875-23.391-10.615-9.9595-2.3588-23.655-3.5391-41.084-3.5391l-1e-5 -39.902c16.381-1.3105 28.962-4.783 37.742-10.418 8.9112-5.766 13.365-13.63 13.365-23.59 0-6.4212-2.228-12.056-6.6836-16.904-4.4556-4.9798-11.728-7.4688-21.818-7.4688z" fill="#3b3b3b" fill-rule="nonzero" style="paint-order:markers fill stroke"/></svg>
