<?xml version="1.0" encoding="UTF-8"?>
<svg id="bh" width="128" height="128" enable-background="new 0 0 150 143" overflow="visible" version="1.0" viewBox="0 0 150 143" xml:space="preserve" xmlns="http://www.w3.org/2000/svg" xmlns:xlink="http://www.w3.org/1999/xlink"><defs id="bi"><linearGradient id="a"><stop id="bj" stop-color="#fff" offset="0"/><stop id="bk" stop-color="#fff" stop-opacity="0" offset="1"/></linearGradient><linearGradient id="s" x1="20.8" x2="64.229" y1="52.937" y2="52.937" gradientUnits="userSpaceOnUse">
			<stop id="bl" stop-color="#DCCBA5" offset="0"/>
			<stop id="bm" stop-color="#FFF0D0" offset="1"/>
		</linearGradient><radialGradient id="r" cx="19.87" cy="15.904" r="121.08" gradientUnits="userSpaceOnUse">
			<stop id="bn" stop-color="#B3925D" offset=".0457"/>
			<stop id="bo" stop-color="#DEBC85" offset=".28"/>
			<stop id="bp" stop-color="#B3925D" offset=".5657"/>
			<stop id="bq" stop-color="#DEBC85" offset=".7886"/>
			<stop id="br" stop-color="#B3925D" offset="1"/>
		</radialGradient><linearGradient id="bg" x1="15.87" x2="106.54" y1="57.24" y2="57.24" gradientUnits="userSpaceOnUse">
			<stop id="bs" stop-color="#DCCBA5" offset="0"/>
			<stop id="bt" stop-color="#FFF0D0" offset="1"/>
		</linearGradient><linearGradient id="q" x1="105.06" x2="135.87" y1="28.249" y2="28.249" gradientUnits="userSpaceOnUse">
			<stop id="bu" stop-color="#DCCBA5" offset="0"/>
			<stop id="bv" stop-color="#FFF0D0" offset="1"/>
		</linearGradient><radialGradient id="b" cx="19.87" cy="15.904" r="121.08" gradientUnits="userSpaceOnUse">
			<stop id="bw" stop-color="#B3925D" offset=".0457"/>
			<stop id="bx" stop-color="#DEBC85" offset=".28"/>
			<stop id="by" stop-color="#B3925D" offset=".5657"/>
			<stop id="bz" stop-color="#DEBC85" offset=".7886"/>
			<stop id="ca" stop-color="#B3925D" offset="1"/>
		</radialGradient><linearGradient id="bf" x1="36.259" x2="135.87" y1="82.1" y2="82.1" gradientUnits="userSpaceOnUse">
			<stop id="cb" stop-color="#DCCBA5" offset="0"/>
			<stop id="cc" stop-color="#FFF0D0" offset="1"/>
		</linearGradient><linearGradient id="p" x1="71.479" x2="112.57" y1="102.45" y2="102.45" gradientUnits="userSpaceOnUse">
			<stop id="cd" stop-color="#DCCBA5" offset="0"/>
			<stop id="ce" stop-color="#FFF0D0" offset="1"/>
		</linearGradient><linearGradient id="o" x1="-66.382" x2="205.62" y1="23.273" y2="67.273" gradientUnits="userSpaceOnUse">
			<stop id="cf" stop-color="#E8C48B" offset=".0457"/>
			<stop id="cg" stop-color="#CCAD7A" offset=".28"/>
			<stop id="ch" stop-color="#E8C48B" offset=".5657"/>
			<stop id="ci" stop-color="#DEBC85" offset=".7886"/>
			<stop id="cj" stop-color="#E8C48B" offset="1"/>
		</linearGradient><linearGradient id="be" x1="-68.921" x2="203.08" y1="38.968" y2="82.968" gradientUnits="userSpaceOnUse">
			<stop id="ck" stop-color="#E8C48B" offset=".0457"/>
			<stop id="cl" stop-color="#CCAD7A" offset=".28"/>
			<stop id="cm" stop-color="#E8C48B" offset=".5657"/>
			<stop id="cn" stop-color="#DEBC85" offset=".7886"/>
			<stop id="co" stop-color="#E8C48B" offset="1"/>
		</linearGradient><linearGradient id="n" x1="-70.088" x2="201.91" y1="46.171" y2="90.172" gradientUnits="userSpaceOnUse">
			<stop id="cp" stop-color="#E8C48B" offset=".0457"/>
			<stop id="cq" stop-color="#CCAD7A" offset=".28"/>
			<stop id="cr" stop-color="#E8C48B" offset=".5657"/>
			<stop id="cs" stop-color="#DEBC85" offset=".7886"/>
			<stop id="ct" stop-color="#E8C48B" offset="1"/>
		</linearGradient><linearGradient id="bd" x1="-75.053" x2="196.95" y1="76.873" y2="120.87" gradientUnits="userSpaceOnUse">
			<stop id="cu" stop-color="#E8C48B" offset=".0457"/>
			<stop id="cv" stop-color="#CCAD7A" offset=".28"/>
			<stop id="cw" stop-color="#E8C48B" offset=".5657"/>
			<stop id="cx" stop-color="#DEBC85" offset=".7886"/>
			<stop id="cy" stop-color="#E8C48B" offset="1"/>
		</linearGradient><linearGradient id="m" x1="-80.173" x2="191.96" y1="108.08" y2="152.1" gradientUnits="userSpaceOnUse">
			<stop id="cz" stop-color="#E8C48B" offset=".0457"/>
			<stop id="da" stop-color="#CCAD7A" offset=".28"/>
			<stop id="db" stop-color="#E8C48B" offset=".5657"/>
			<stop id="dc" stop-color="#DEBC85" offset=".7886"/>
			<stop id="dd" stop-color="#E8C48B" offset="1"/>
		</linearGradient><linearGradient id="l" x1="-73.518" x2="198.49" y1="67.362" y2="111.36" gradientUnits="userSpaceOnUse">
			<stop id="de" stop-color="#E8C48B" offset=".0457"/>
			<stop id="df" stop-color="#CCAD7A" offset=".28"/>
			<stop id="dg" stop-color="#E8C48B" offset=".5657"/>
			<stop id="dh" stop-color="#DEBC85" offset=".7886"/>
			<stop id="di" stop-color="#E8C48B" offset="1"/>
		</linearGradient><radialGradient id="k" cx="19.87" cy="15.905" r="121.08" gradientUnits="userSpaceOnUse">
			<stop id="dj" stop-color="#B3925D" offset=".0457"/>
			<stop id="dk" stop-color="#DEBC85" offset=".28"/>
			<stop id="dl" stop-color="#B3925D" offset=".5657"/>
			<stop id="dm" stop-color="#DEBC85" offset=".7886"/>
			<stop id="dn" stop-color="#B3925D" offset="1"/>
		</radialGradient><linearGradient id="bc" x1="39.574" x2="135.87" y1="83.756" y2="83.756" gradientUnits="userSpaceOnUse">
			<stop id="do" stop-color="#DCCBA5" offset="0"/>
			<stop id="dp" stop-color="#FFF0D0" offset="1"/>
		</linearGradient><clipPath id="bb"><path id="dq" d="m-426.48 130.45 0.14094 79.995-39.859 0.00532-0.14095-119.99 39.859 39.995z" fill="#ecce91" fill-rule="nonzero"/></clipPath><clipPath id="ba"><path id="dr" d="m-164.37 129.75 39.88 39.88 80.017 0.10986v-39.844l-119.9-0.14648z" fill="#ecce91" fill-rule="nonzero"/></clipPath><filter id="ax"><feBlend id="ds" in2="BackgroundImage" mode="multiply"/></filter><filter id="aw"><feBlend id="dt" in2="BackgroundImage" mode="multiply"/></filter><filter id="av"><feGaussianBlur id="du" stdDeviation="2.4030347"/></filter><filter id="au"><feGaussianBlur id="dv" stdDeviation="0.2203449"/></filter><linearGradient id="as" x1="-191.53" x2="-191.53" y1="130.67" y2="117.18" gradientTransform="matrix(1.1719 0 0 1.1719 0 -3.5)" gradientUnits="userSpaceOnUse"><stop id="dw" stop-color="#ecce91" offset="0"/><stop id="dx" stop-color="#fff" offset="1"/></linearGradient><linearGradient id="ar" x1="20.8" x2="64.229" y1="52.937" y2="52.937" gradientTransform="matrix(.53073 .39036 -.52226 .38413 -104 93.41)" gradientUnits="userSpaceOnUse" xlink:href="#s"/><radialGradient id="d" cx="19.87" cy="15.904" r="121.08" gradientTransform="matrix(.53073 .39036 -.52226 .38413 -104 93.41)" gradientUnits="userSpaceOnUse" xlink:href="#r"/><linearGradient id="i" x1="15.87" x2="106.54" y1="57.24" y2="57.24" gradientUnits="userSpaceOnUse" xlink:href="#bg"/><linearGradient id="aq" x1="105.06" x2="135.87" y1="28.249" y2="28.249" gradientTransform="matrix(.65918 .39036 -.64867 .38413 -111.88 93.41)" gradientUnits="userSpaceOnUse" xlink:href="#q"/><radialGradient id="y" cx="19.87" cy="15.904" r="121.08" gradientTransform="matrix(.581 .39036 -.57174 .38413 -96.864 93.41)" gradientUnits="userSpaceOnUse" xlink:href="#b"/><linearGradient id="h" x1="36.259" x2="135.87" y1="82.1" y2="82.1" gradientUnits="userSpaceOnUse" xlink:href="#bf"/><linearGradient id="ap" x1="71.479" x2="112.57" y1="102.45" y2="102.45" gradientTransform="matrix(.53073 .39036 -.52226 .38413 -104 93.41)" gradientUnits="userSpaceOnUse" xlink:href="#p"/><linearGradient id="ao" x1="-66.382" x2="205.62" y1="23.273" y2="67.273" gradientTransform="matrix(.53073 .39036 -.52226 .38413 -104 93.41)" gradientUnits="userSpaceOnUse" xlink:href="#o"/><linearGradient id="g" x1="-68.921" x2="203.08" y1="38.968" y2="82.968" gradientUnits="userSpaceOnUse" xlink:href="#be"/><linearGradient id="an" x1="-70.088" x2="201.91" y1="46.171" y2="90.172" gradientTransform="matrix(.53073 .39036 -.52226 .38413 -104 93.41)" gradientUnits="userSpaceOnUse" xlink:href="#n"/><linearGradient id="f" x1="-75.053" x2="196.95" y1="76.873" y2="120.87" gradientUnits="userSpaceOnUse" xlink:href="#bd"/><linearGradient id="am" x1="-80.173" x2="191.96" y1="108.08" y2="152.1" gradientTransform="matrix(.53073 .39036 -.52226 .38413 -104 93.41)" gradientUnits="userSpaceOnUse" xlink:href="#m"/><linearGradient id="al" x1="-73.518" x2="198.49" y1="67.362" y2="111.36" gradientTransform="matrix(.53073 .39036 -.52226 .38413 -104 93.41)" gradientUnits="userSpaceOnUse" xlink:href="#l"/><radialGradient id="x" cx="19.87" cy="15.905" r="121.08" gradientTransform="matrix(.53073 .39036 -.52226 .38413 -104 93.41)" gradientUnits="userSpaceOnUse" xlink:href="#k"/><radialGradient id="w" cx="19.87" cy="15.904" r="121.08" gradientTransform="matrix(.53073 .39036 -.52226 .38413 -104 93.41)" gradientUnits="userSpaceOnUse" xlink:href="#b"/><linearGradient id="e" x1="39.574" x2="135.87" y1="83.756" y2="83.756" gradientUnits="userSpaceOnUse" xlink:href="#bc"/><linearGradient id="ak" x1="54.916" x2="54.939" y1="44.007" y2="53.774" gradientTransform="matrix(1.0172 -.0043816 -.0024033 -1.8544 -277.59 268.26)" gradientUnits="userSpaceOnUse" xlink:href="#a"/><linearGradient id="aj" x1="57.372" x2="57.4" y1="43.232" y2="54.956" gradientTransform="matrix(-.0043816 .68904 -1.8545 -.001628 -184.38 175.95)" gradientUnits="userSpaceOnUse" xlink:href="#a"/><linearGradient id="ai" x1="20.8" x2="64.229" y1="52.937" y2="52.937" gradientTransform="matrix(-.39036 .53073 -.38413 -.52226 -388.89 149.58)" gradientUnits="userSpaceOnUse" xlink:href="#s"/><radialGradient id="c" cx="19.87" cy="15.904" r="121.08" gradientTransform="matrix(-.39036 .53073 -.38413 -.52226 -388.89 149.58)" gradientUnits="userSpaceOnUse" xlink:href="#r"/><linearGradient id="ah" x1="105.06" x2="135.87" y1="28.249" y2="28.249" gradientTransform="matrix(-.39036 .65918 -.38413 -.64867 -388.89 141.7)" gradientUnits="userSpaceOnUse" xlink:href="#q"/><radialGradient id="v" cx="19.87" cy="15.904" r="121.08" gradientTransform="matrix(-.39036 .581 -.38413 -.57174 -388.89 156.72)" gradientUnits="userSpaceOnUse" xlink:href="#b"/><linearGradient id="ag" x1="71.479" x2="112.57" y1="102.45" y2="102.45" gradientTransform="matrix(-.39036 .53073 -.38413 -.52226 -388.89 149.58)" gradientUnits="userSpaceOnUse" xlink:href="#p"/><linearGradient id="af" x1="-66.382" x2="205.62" y1="23.273" y2="67.273" gradientTransform="matrix(-.39036 .53073 -.38413 -.52226 -388.89 149.58)" gradientUnits="userSpaceOnUse" xlink:href="#o"/><linearGradient id="ae" x1="-70.088" x2="201.91" y1="46.171" y2="90.172" gradientTransform="matrix(-.39036 .53073 -.38413 -.52226 -388.89 149.58)" gradientUnits="userSpaceOnUse" xlink:href="#n"/><linearGradient id="ad" x1="-80.173" x2="191.96" y1="108.08" y2="152.1" gradientTransform="matrix(-.39036 .53073 -.38413 -.52226 -388.89 149.58)" gradientUnits="userSpaceOnUse" xlink:href="#m"/><linearGradient id="ac" x1="-73.518" x2="198.49" y1="67.362" y2="111.36" gradientTransform="matrix(-.39036 .53073 -.38413 -.52226 -388.89 149.58)" gradientUnits="userSpaceOnUse" xlink:href="#l"/><radialGradient id="u" cx="19.87" cy="15.905" r="121.08" gradientTransform="matrix(-.39036 .53073 -.38413 -.52226 -388.89 149.58)" gradientUnits="userSpaceOnUse" xlink:href="#k"/><radialGradient id="t" cx="19.87" cy="15.904" r="121.08" gradientTransform="matrix(-.39036 .53073 -.38413 -.52226 -388.89 149.58)" gradientUnits="userSpaceOnUse" xlink:href="#b"/><linearGradient id="ab" x1="7.9369" x2="40.063" y1="7.9369" y2="40.063" gradientTransform="translate(-318.78 133.86)" gradientUnits="userSpaceOnUse"><stop id="dy" stop-color="#75511a" stop-opacity=".52532" offset="0"/><stop id="dz" stop-color="#57401e" offset=".5"/><stop id="ea" stop-color="#8f6b32" stop-opacity=".37975" offset="1"/></linearGradient><clipPath id="az"><path id="eb" d="m-314.89 138.22v115.99h38.663v-77.325h77.325v-38.663h-74.909-41.079z" fill="#a8a8a8"/></clipPath><filter id="j"><feGaussianBlur id="ec" stdDeviation="4.9138369"/></filter><clipPath id="ay"><path id="ed" d="m178.37 15.25h112.5v37.5h-75v75h-37.5v-112.5z" fill="none" filter="url(#j)" stroke="#684f22" stroke-linejoin="miter" stroke-miterlimit="4" stroke-opacity=".66255" stroke-width="5.8594"/></clipPath><filter id="at" x="-.12051" y="-.12805" width="1.241" height="1.2561"><feGaussianBlur id="ee" stdDeviation="4.7517411"/><feBlend id="ef" in2="BackgroundImage" mode="multiply"/></filter><linearGradient id="aa" x1="32.812" x2="37.5" y1="151.19" y2="38.688" gradientTransform="matrix(.33333 0 0 1 18.75 0)" gradientUnits="userSpaceOnUse" xlink:href="#a"/><linearGradient id="z" x1="32.812" x2="37.5" y1="151.19" y2="38.688" gradientTransform="matrix(.33333 0 0 1 -38.688 3.5)" gradientUnits="userSpaceOnUse" xlink:href="#a"/></defs>

<filter id="eg">
	<feGaussianBlur id="eh" stdDeviation="4"/>
</filter>











		
	
<path id="ei" transform="matrix(1.1719 0 0 1.1719 159.52 -124.83)" d="m-120.53 120.52 0.125 96.406 33 0.1-0.125-63.281-33-33.225zm0.09375 0 33.031 33.131 64.081 0.09375v-33l-97.112-0.225z" fill="#787878" fill-rule="nonzero" filter="url(#av)"/><g id="ej" transform="matrix(.96993 0 0 .96993 324.17 -118.81)" clip-path="url(#az)"><path id="ek" d="m-314.69 137.86 39.88 39.88 80.017 0.10987v-39.844l-119.9-0.14649z" fill="url(#as)" fill-rule="nonzero"/><g id="el" transform="translate(-150.31 8.694)" clip-path="url(#ba)" filter="url(#aw)"><path id="em" d="m-89.767 130.37c-7.856-0.30279-20.945-0.38019-18.338-1.3917-7.5968-0.04453-20.074-0.35452-23.232 0.77414 3.5408 1.6716 23.7 1.7951 38.966 1.8858 5.2355 0.03095 7.8425-0.98014 2.6042-1.2682z" fill="url(#ar)" opacity=".6"/><path id="en" d="m-40.074 133.66c-0.60823-0.0156-22.858-0.0324-23.484-0.05159-24.577-0.89846-78.749-0.92426-104.28-1.3052l-7.3827 5.4301 152.76 0.5439-6.2769-4.6168-11.332-3.9e-4z" fill="url(#d)" opacity=".6"/><polygon id="eo" transform="matrix(.67921 .39036 -.66838 .38413 -104.72 93.41)" points="103.23 11.904 15.87 99.261 15.87 102.58 106.54 11.904" fill="url(#i)" opacity=".6"/><path id="ep" d="m-45.172 149.86c3.2659 1.0421-12.99 0.96507-22.74 1.175-6.4991 0.22618-3.2339 1.2686 3.2694 1.2992 10.525 0.05049 22.918 0.10717 32.61-0.13052l1.9972-1.1827-1.8681-1.1063c-4.6367-0.05227-9.4478-0.03646-13.268-0.05465z" fill="url(#aq)" opacity=".6"/><path id="eq" d="m-172.28 141.55-2.0212 1.4866c11.658 0.6304 42.806 1.348 55.893 1.2829 25.636-0.07726 73.718 0.03608 95.199-0.38366l-2.4201-1.78-146.65-0.60582z" fill="url(#d)" opacity=".6"/><path id="er" d="m-28.517 153.57c-19.711-0.01818-39.446-0.02951-58.214 0.39419-11.46 0.19522-20.059-0.10874-31.526-0.42662-13.403-0.47278-47.668-0.25395-61.067-0.16873l7.2451 4.8678 135.69 0.6202 7.8694-5.2872 5.8e-4 3.9e-4z" fill="url(#y)" opacity=".6"/><polygon id="es" transform="matrix(.64008 .39036 -.62987 .38413 -104.58 93.41)" points="135.87 32.294 36.259 131.9 39.574 131.9 135.87 35.608" fill="url(#h)" opacity=".6"/><path id="et" d="m-91.978 167.58c-15.266-0.09027-35.425-0.2052-38.93 1.4248 3.1821 1.1665 15.655 1.0037 23.253 1.049-2.629-1.0424 10.459-0.96545 18.31-1.1754 5.2322-0.2258 2.6027-1.2679-2.6323-1.2984z" fill="url(#ap)" opacity=".6"/><path id="eu" d="m-79.35 125.56c-16.639-0.4252-62.812-0.84614-79.452-1.1726l-3.9008 2.8691c13.554-0.2335 62.554 0.66572 72.914 1.065 8.1398 0.44697 51.997 1.5096 58.907 1.7445l-5.916-4.3513c-2.2796-0.05104-40.273-0.09395-42.553-0.15466z" fill="url(#ao)" opacity=".6"/><polygon id="ev" transform="matrix(.67664 .39036 -.66585 .38413 -104.72 93.41)" points="106.54 11.904 15.87 102.58 15.87 109.2 113.17 11.904" fill="url(#g)" opacity=".6"/><path id="ew" d="m-79.125 146.1c-26.471 0.39063-70.431 0.12604-96.908-0.17301l-3.1221 2.2963c22.961 0.10015 63.25 0.70507 81.754 2.1322 7.8588 0.55993 18.312-0.91824 28.777-1.3698 6.5736-0.17565 29.2-0.50968 39.273-0.62938l-3.6504-2.6849c-11.247 0.12363-34.878 0.27397-46.124 0.42857z" fill="url(#an)" opacity=".6"/><polygon id="ex" transform="matrix(1.09 .39036 -1.0727 .38413 -107.17 93.41)" points="135.87 82.013 85.978 131.9 92.606 131.9 135.87 88.641" fill="url(#f)" opacity=".6"/><path id="ey" d="m-139.1 167.3c-0.75701 0.00481-43.612 0.0133-44.315 0.02386l0.91392 0.6722c34.906 0 43.403-0.4339 43.401-0.69606z" fill="url(#am)" opacity=".6"/><path id="ez" d="m-89.323 170.93c-11.171 0.29871-77.976 1.0541-91.502 0.43741l4.1524 3.0542c17.604-0.12476 80.25-0.36492 97.851-0.60548 3.2883-0.04832 50.876-0.07728 54.164-0.10741l5.7888-4.2577c-7.4858-0.14106-61.113 1.0762-70.454 1.479z" fill="url(#al)" opacity=".6"/><path id="fa" d="m-31.061 175.64c-16.484 0.03225-72.501 0.12264-86.998 0.51087-3.7044 0.07723-50.586 0.13149-54.21 0.17047l1.7886 1.3155 136.28 0.31064 3.1372-2.3075z" fill="url(#x)" opacity=".6"/><path id="fb" d="m-178.05 160.82 7.5411 5.5466c26.431-0.11283 81.806 0.21908 107.31-0.41234 1.6854-0.03108 30.77-0.04864 32.343-0.056l6.1173-4.4993-153.31-0.57893z" fill="url(#w)" opacity=".6"/><polygon id="fc" transform="matrix(.64258 .39036 -.63233 .38413 -104.59 93.41)" points="135.87 35.608 39.574 131.9 42.888 131.9 135.87 38.922" fill="url(#e)" opacity=".6"/></g><path id="fd" d="m-275.78 176.75 81 0.10682 0.00178-6.8932-88-0.10681 6.9984 6.8932z" fill="url(#ak)" fill-rule="nonzero" stroke-miterlimit="4" stroke-width="0"/><g id="fe" transform="translate(-322.78 132.86)" fill-rule="evenodd"><path id="ff" d="m92 44v-12l2 1.8187v10.181h-2z" fill="#5a3b0e"/><path id="fg" d="m48 44v-12l2 2.039v9.961h-2z" fill="#51350d"/><path id="fh" d="m88 44v-4h1v4h-1z" fill="#000" opacity=".56967"/><path id="fi" d="m84 44v-4h1l-0.090912 4h-0.90909z" fill="#000" opacity=".56967"/><path id="fj" d="m80 44v-4h1v4h-1z" fill="#000" opacity=".56967"/><path id="fk" d="m76 44v-4h1v4h-1z" fill="#000" opacity=".56967"/><path id="fl" d="m72 44v-4h1v4h-1z" fill="#000" opacity=".56967"/><path id="fm" d="m68 44v-4h1v4h-1z" fill="#000" opacity=".56967"/><path id="fn" d="m64 44v-4h1l-0.090907 4h-0.90909z" fill="#000" opacity=".56967"/><path id="fo" d="m60 44v-4h1v4h-1z" fill="#000" opacity=".56967"/><path id="fp" d="m56 44v-4h1v4h-1z" fill="#000" opacity=".56967"/><path id="fq" d="m52 44v-4h1v4h-1z" fill="#000" opacity=".56967"/><path id="fr" d="m120 44v-4h1v4h-1z" fill="#000" opacity=".56967"/><path id="fs" d="m116 44v-4h1v4h-1z" fill="#000" opacity=".56967"/><path id="ft" d="m112 44v-4h1v4h-1z" fill="#000" opacity=".56967"/><path id="fu" d="m108 44v-4h1v4h-1z" fill="#000" opacity=".56967"/><path id="fv" d="m104 44v-4h1v4h-1z" fill="#000" opacity=".56967"/><path id="fw" d="m100 44v-4h1v4h-1z" fill="#000" opacity=".56967"/><path id="fx" d="m96 44v-4h1v4h-1z" fill="#000" opacity=".56967"/><path id="fy" d="m124 44v-4h1v4h-1z" fill="#000" opacity=".56967"/></g><path id="fz" d="m-274.92 177.86 0.14094 79.995-39.859 0.00532-0.14095-119.99 39.859 39.995z" fill="#ecce91" fill-rule="nonzero"/><path id="ga" d="m-275.89 176.86 0.10682 80.999-6.8932 0.00121-0.10682-87.999 6.8932 6.9988z" fill="url(#aj)" fill-rule="nonzero" stroke-miterlimit="4" stroke-width="0"/><g id="gb" transform="translate(-319.78 165.88)" fill-rule="evenodd"><path id="gc" d="m44 55.979h-12l1.8187 2h10.181v-2z" fill="#5a3b0e"/><path id="gd" d="m44 11.979h-12l2.039 2h9.961v-2z" fill="#51350d"/><path id="ge" d="m44 51.979h-4v1h4v-1z" fill="#000" opacity=".56967"/><path id="gf" d="m44 47.979h-4v1l4-0.090912v-0.90909z" fill="#000" opacity=".56967"/><path id="gg" d="m44 43.979h-4v1h4v-1z" fill="#000" opacity=".56967"/><path id="gh" d="m44 39.979h-4v1h4v-1z" fill="#000" opacity=".56967"/><path id="gi" d="m44 35.979h-4v1h4v-1z" fill="#000" opacity=".56967"/><path id="gj" d="m44 31.979h-4v1h4v-1z" fill="#000" opacity=".56967"/><path id="gk" d="m44 27.979h-4v1l4-0.090907v-0.90909z" fill="#000" opacity=".56967"/><path id="gl" d="m44 23.979h-4v1h4v-1z" fill="#000" opacity=".56967"/><path id="gm" d="m44 19.979h-4v1h4v-1z" fill="#000" opacity=".56967"/><path id="gn" d="m44 15.979h-4v1h4v-1z" fill="#000" opacity=".56967"/><path id="go" d="m44 83.979h-4v1h4v-1z" fill="#000" opacity=".56967"/><path id="gp" d="m44 79.979h-4v1h4v-1z" fill="#000" opacity=".56967"/><path id="gq" d="m44 75.979h-4v1h4v-1z" fill="#000" opacity=".56967"/><path id="gr" d="m44 71.979h-4v1h4v-1z" fill="#000" opacity=".56967"/><path id="gs" d="m44 67.979h-4v1h4v-1z" fill="#000" opacity=".56967"/><path id="gt" d="m44 63.979h-4v1h4v-1z" fill="#000" opacity=".56967"/><path id="gu" d="m44 59.979h-4v1h4v-1z" fill="#000" opacity=".56967"/><path id="gv" d="m44 87.979h-4v1h4v-1z" fill="#000" opacity=".56967"/></g><rect id="gw" x="-275.78" y="177.86" width="1" height="80" fill="#57401e" fill-rule="evenodd" opacity=".8"/><rect id="gx" transform="rotate(90)" x="176.86" y="194.78" width="1" height="80" fill="#57401e" fill-rule="evenodd" opacity=".8"/><g id="gy" transform="translate(152.73 47.405)" clip-path="url(#bb)" filter="url(#ax)"><path id="gz" d="m-425.85 163.81c0.30279-7.856 0.38019-20.945 1.3917-18.338 0.04453-7.5968 0.35452-20.074-0.77414-23.232-1.6716 3.5408-1.7951 23.7-1.8858 38.966-0.03095 5.2355 0.98014 7.8425 1.2682 2.6042z" fill="url(#ai)" opacity=".6"/><path id="ha" d="m-429.14 213.51c0.0156-0.60823 0.0324-22.858 0.05159-23.484 0.89846-24.577 0.92426-78.749 1.3052-104.28l-5.4301-7.3827-0.5439 152.76 4.6168-6.2769 3.9e-4 -11.332z" fill="url(#c)" opacity=".6"/><polygon id="hb" transform="matrix(-.39036 .67921 -.38413 -.66838 -388.89 148.86)" points="103.23 11.904 15.87 99.261 15.87 102.58 106.54 11.904" fill="url(#i)" opacity=".6"/><path id="hc" d="m-445.34 208.41c-1.0421 3.2659-0.96507-12.99-1.175-22.74-0.22618-6.4991-1.2686-3.2339-1.2992 3.2694-0.05049 10.525-0.10717 22.918 0.13052 32.61l1.1827 1.9972 1.1063-1.8681c0.05227-4.6367 0.03646-9.4478 0.05465-13.268z" fill="url(#ah)" opacity=".6"/><path id="hd" d="m-437.03 81.303-1.4866-2.0212c-0.6304 11.658-1.348 42.806-1.2829 55.893 0.07726 25.636-0.03608 73.718 0.38366 95.199l1.78-2.4201 0.60582-146.65z" fill="url(#c)" opacity=".6"/><path id="he" d="m-449.04 225.06c0.01818-19.711 0.02951-39.446-0.39419-58.214-0.19522-11.46 0.10874-20.059 0.42662-31.526 0.47278-13.403 0.25395-47.668 0.16873-61.067l-4.8678 7.2451-0.6202 135.69 5.2872 7.8694-3.9e-4 5.8e-4z" fill="url(#v)" opacity=".6"/><polygon id="hf" transform="matrix(-.39036 .64008 -.38413 -.62987 -388.89 149.01)" points="135.87 32.294 36.259 131.9 39.574 131.9 135.87 35.608" fill="url(#h)" opacity=".6"/><path id="hg" d="m-463.06 161.6c0.09027-15.266 0.2052-35.425-1.4248-38.93-1.1665 3.1821-1.0037 15.655-1.049 23.253 1.0424-2.629 0.96545 10.459 1.1754 18.31 0.2258 5.2322 1.2679 2.6027 1.2984-2.6323z" fill="url(#ag)" opacity=".6"/><path id="hh" d="m-421.03 174.23c0.4252-16.639 0.84614-62.812 1.1726-79.452l-2.8691-3.9008c0.2335 13.554-0.66572 62.554-1.065 72.914-0.44697 8.1398-1.5096 51.997-1.7445 58.907l4.3513-5.916c0.05104-2.2796 0.09395-40.273 0.15466-42.553z" fill="url(#af)" opacity=".6"/><polygon id="hi" transform="matrix(-.39036 .67664 -.38413 -.66585 -388.89 148.86)" points="106.54 11.904 15.87 102.58 15.87 109.2 113.17 11.904" fill="url(#g)" opacity=".6"/><path id="hj" d="m-441.57 174.46c-0.39063-26.471-0.12604-70.431 0.17301-96.908l-2.2963-3.1221c-0.10015 22.961-0.70507 63.25-2.1322 81.754-0.55993 7.8588 0.91824 18.312 1.3698 28.777 0.17565 6.5736 0.50968 29.2 0.62938 39.273l2.6849-3.6504c-0.12363-11.247-0.27397-34.878-0.42857-46.124z" fill="url(#ae)" opacity=".6"/><polygon id="hk" transform="matrix(-.39036 1.09 -.38413 -1.0727 -388.89 146.41)" points="135.87 82.013 85.978 131.9 92.606 131.9 135.87 88.641" fill="url(#f)" opacity=".6"/><path id="hl" d="m-462.78 114.49c-0.00481-0.75701-0.0133-43.612-0.02386-44.315l-0.6722 0.91392c0 34.906 0.4339 43.403 0.69606 43.401z" fill="url(#ad)" opacity=".6"/><path id="hm" d="m-466.41 164.26c-0.29871-11.171-1.0541-77.976-0.43741-91.502l-3.0542 4.1524c0.12476 17.604 0.36492 80.251 0.60548 97.851 0.04832 3.2883 0.07728 50.876 0.10741 54.164l4.2577 5.7888c0.14106-7.4858-1.0762-61.113-1.479-70.454z" fill="url(#ac)" opacity=".6"/><path id="hn" d="m-471.12 222.52c-0.03225-16.484-0.12264-72.501-0.51087-86.998-0.07723-3.7044-0.13149-50.586-0.17047-54.21l-1.3155 1.7886-0.31064 136.28 2.3075 3.1372z" fill="url(#u)" opacity=".6"/><path id="ho" d="m-456.3 75.531-5.5466 7.5411c0.11283 26.431-0.21908 81.806 0.41234 107.31 0.03108 1.6854 0.04864 30.77 0.056 32.343l4.4993 6.1173 0.57893-153.31z" fill="url(#t)" opacity=".6"/><polygon id="hp" transform="matrix(-.39036 .64258 -.38413 -.63233 -388.89 148.99)" points="135.87 35.608 39.574 131.9 42.888 131.9 135.87 38.922" fill="url(#e)" opacity=".6"/></g><path id="hq" d="m-310.34 142.29 31.126 31.126" fill="none" filter="url(#au)" stroke="url(#ab)" stroke-linecap="round" stroke-linejoin="miter" stroke-miterlimit="4" stroke-width=".58594"/></g><path id="hr" transform="translate(-159.62)" d="m178.37 15.25h112.5v37.5h-75v75h-37.5v-112.5z" clip-path="url(#ay)" fill="none" filter="url(#j)" opacity=".43123" stroke="#684f22" stroke-linejoin="miter" stroke-miterlimit="4" stroke-opacity=".66255" stroke-width="5.8594"/><path id="hs" d="m116.59 24.625c8.6931 7.5852 5.1745 11.1 0 14.062-22.995-6.7202-55.656-4.6875-79.093-4.6875 0 14.062-9.375 23.438-4.6875 0 16.391-20.306 51.666 5.5252 83.781-9.375z" fill="#ede2cc" fill-rule="evenodd" filter="url(#at)" opacity=".71747"/><rect id="ht" x="28.125" y="38.688" width="4.6875" height="89.062" fill="url(#aa)" opacity=".71747"/><rect id="hu" transform="rotate(-90)" x="-29.312" y="42.188" width="4.6875" height="89.062" fill="url(#z)" opacity=".71747"/></svg>
