<?xml version="1.0" encoding="UTF-8"?>
<svg viewBox="0 0 48 48" xmlns="http://www.w3.org/2000/svg" xmlns:xlink="http://www.w3.org/1999/xlink"><defs><linearGradient id="a" x2="0" y1="543.8" y2="503.8" gradientUnits="userSpaceOnUse"><stop stop-color="#c6cdd1" offset="0"/><stop stop-color="#e0e5e7" offset="1"/></linearGradient><linearGradient id="b" x1="394.22" x2="416.85" y1="521.15" y2="533.41" gradientTransform="translate(-397.34-509.87)" gradientUnits="userSpaceOnUse"><stop stop-color="#292c2f" offset="0"/><stop stop-opacity="0" offset="1"/></linearGradient><linearGradient id="c" x1="389.57" x2="427.57" y1="510.8" y2="541.8" gradientTransform="translate(-384.57-499.8)" gradientUnits="userSpaceOnUse"><stop offset="0"/><stop stop-opacity="0" offset="1"/></linearGradient><linearGradient id="d" x1="394.34" x2="417.34" y1="528.87" y2="539.87" gradientTransform="translate(-377.34-509.87)" gradientUnits="userSpaceOnUse" xlink:href="#b"/></defs><g transform="translate(-384.57-499.8)"><rect x="388.57" y="503.8" width="40" height="40" rx="0" fill="url(#a)"/><rect x="388.57" y="542.8" width="40" height="1" fill="#99a1a7"/><path transform="translate(384.57 499.8)" d="m42.842 11.11-17.842 14.566v16.328l2 2h17v-31.734zm-19.842 16.199-18 14.695 2 2h18l-2-2z" fill="url(#c)" fill-rule="evenodd" opacity=".2"/><g stroke-width=".1"><rect x="388.57" y="503.8" width="40" height="5" fill="#566069"/><rect x="424.57" y="504.8" width="3" height="3" rx="1.5" fill="#eff0f1"/><rect x="388.57" y="508.8" width="40" height="1" rx="0" fill="#1d99f3"/></g><g color="#000000" color-rendering="auto" fill="#fff" image-rendering="auto" shape-rendering="auto" text-rendering="auto"><path id="e" d="m389.57 510.8h18v31h-18z"/><use x="20" xlink:href="#e"/></g><path transform="translate(384.57 499.8)" d="m8 12-2 4 17 8.576v-5.576zm0 8-2 4 17 9v-5.695z" fill="url(#b)" fill-rule="evenodd" opacity=".2"/><g fill="#1d99f3"><path id="f" d="m390.57 511.8h2v1h2v3h-4z"/><use y="8" xlink:href="#f"/></g><path transform="translate(384.57 499.8)" d="m28 12-2 4 17 8.576v-5.576zm0 8-2 4 17 9v-5.695zm0 8-2 4 17 9v-5.695z" fill="url(#d)" fill-rule="evenodd" opacity=".2"/><g fill="#1d99f3"><use x="20" xlink:href="#f"/><use x="20" y="8" xlink:href="#f"/><use x="20" y="16" xlink:href="#f"/></g></g></svg>
