<?xml version="1.0" encoding="UTF-8"?>
<svg viewBox="0 0 48 48" xmlns="http://www.w3.org/2000/svg" xmlns:xlink="http://www.w3.org/1999/xlink"><defs><linearGradient id="a"><stop stop-color="#e05e4c" offset="0"/><stop stop-color="#ffc169" offset="1"/></linearGradient><linearGradient id="b" x1="-43.628" x2="-2.763" y1="34.886" y2="15.577" gradientTransform="matrix(.75 0 0 .73333 -10 13.4)" gradientUnits="userSpaceOnUse" xlink:href="#a"/><linearGradient id="c" x1="-43.628" x2="-2.763" y1="34.886" y2="15.577" gradientTransform="matrix(.75 0 0 .73333 -3 .4)" gradientUnits="userSpaceOnUse" xlink:href="#a"/><linearGradient id="d" x1="16.994" x2="35.477" y1="6.148" y2="24.631" gradientUnits="userSpaceOnUse"><stop offset="0"/><stop stop-opacity="0" offset="1"/></linearGradient></defs><rect transform="rotate(-90)" x="-43" y="20" width="30" height="22" rx="1.022" ry=".999" fill="url(#b)"/><path d="m23.429 16.5h5.1426l-2.5713 4.2799zm0 7.9998h5.1426l-2.5713-4.1999z" fill="none" stroke="#edf573" stroke-linejoin="bevel" stroke-width="1.0002"/><path d="m33.429 16.5h5.1426l-2.5713 4.2799zm0 7.9998h5.1426l-2.5713-4.1999z" fill="none" stroke="#1e6f43" stroke-linejoin="bevel" stroke-width="1.0002"/><path d="m33.429 31.5h5.1426l-2.5713 4.2799zm0 7.9998h5.1426l-2.5713-4.1999z" fill="none" stroke="#1e6f43" stroke-linejoin="bevel" stroke-width="1.0002"/><path d="m28.422 6.0801-5.8867 2.1016-14.451 18.289-0.73828 9.2305 0.11719 0.11719c0.15723 0.10501 0.33456 0.18164 0.53711 0.18164h12v5.9785c0 0.56622 0.44636 1.0215 1 1.0215h20c0.55364 0 1-0.45526 1-1.0215v-22.32z" fill="url(#d)" opacity=".25"/><rect transform="rotate(-90)" x="-36" y="7" width="30" height="22" rx="1.022" ry=".999" fill="url(#c)"/><g fill="none" stroke-linejoin="bevel" stroke-width="1.0002"><path d="m10.429 9.5001h5.1426l-2.5713 4.2799zm0 7.9998h5.1426l-2.5713-4.1999z" stroke="#e84731"/><path d="m20.429 9.5001h5.1426l-2.5713 4.2799zm0 7.9998h5.1426l-2.5713-4.1999z" stroke="#e84731"/><path d="m10.429 24.5h5.1426l-2.5713 4.2799zm0 7.9998h5.1426l-2.5713-4.1999z" stroke="#1e6f43"/><path d="m20.429 24.5h5.1426l-2.5713 4.2799zm0 7.9998h5.1426l-2.5713-4.1999z" stroke="#1e6f43"/></g><path d="m20 40.979v1c0 0.56622 0.44636 1.0215 1 1.0215h20c0.55364 0 1-0.45526 1-1.0215v-1c0 0.56622-0.44636 1.0215-1 1.0215h-20c-0.55364 0-1-0.45526-1-1.0215z" opacity=".15"/><path d="m7 33.979v1c0 0.56622 0.44636 1.0215 1 1.0215h20c0.55364 0 1-0.45526 1-1.0215v-1c0 0.56622-0.44636 1.0215-1 1.0215h-20c-0.55364 0-1-0.45526-1-1.0215z" opacity=".15"/></svg>
