<?xml version="1.0" encoding="UTF-8"?>
<svg id="af" viewBox="0 0 64 64" xmlns="http://www.w3.org/2000/svg" xmlns:xlink="http://www.w3.org/1999/xlink"><defs id="ag"><linearGradient id="b"><stop id="ah" stop-color="#181005" offset="0"/><stop id="ai" stop-color="#181005" stop-opacity="0" offset="1"/></linearGradient><linearGradient id="i"><stop id="aj" stop-color="#7c5e31" offset="0"/><stop id="ak" stop-color="#312410" offset="1"/></linearGradient><linearGradient id="a"><stop id="al" offset="0"/><stop id="am" stop-opacity="0" offset="1"/></linearGradient><linearGradient id="c"><stop id="an" stop-color="#eeeeec" offset="0"/><stop id="ao" stop-color="#eeeeec" stop-opacity="0" offset="1"/></linearGradient><linearGradient id="w" x1="22.414" x2="21.388" y1="11.253" y2="26.344" gradientUnits="userSpaceOnUse" xlink:href="#c"/><radialGradient id="t" cx="4.4253" cy="24.144" r="1.1685" gradientTransform="matrix(1 0 -6.827e-8 7.2139 1.6483e-6 -154.02)" gradientUnits="userSpaceOnUse" xlink:href="#c"/><filter id="ae" x="-.29023" y="-.065767" width="1.5805" height="1.1315"><feGaussianBlur id="ap" stdDeviation="0.28260542"/></filter><radialGradient id="s" cx="31.686" cy="41.323" r="19.157" gradientTransform="matrix(1.4271 .087364 -.024476 .39982 -12.522 13.054)" gradientUnits="userSpaceOnUse" xlink:href="#a"/><filter id="ad" x="-.038445" y="-.50893" width="1.0769" height="2.0179"><feGaussianBlur id="aq" stdDeviation="0.53676258"/></filter><linearGradient id="v" x1="52.909" x2="30.182" y1="38.364" y2="34.909" gradientUnits="userSpaceOnUse" xlink:href="#i"/><radialGradient id="r" cx="54.891" cy="89.021" r="18.692" gradientTransform="matrix(.572 .35018 -.048537 .079283 27.52 15.386)" gradientUnits="userSpaceOnUse" xlink:href="#a"/><radialGradient id="q" cx="31.907" cy="151.55" r="18.692" gradientTransform="matrix(.65955 .18482 -.025083 .089512 21.173 19.112)" gradientUnits="userSpaceOnUse" xlink:href="#a"/><filter id="ac"><feGaussianBlur id="ar" stdDeviation="0.28350203"/></filter><linearGradient id="u" x1="24.727" x2="24.727" y1="6.2727" y2="45.091" gradientUnits="userSpaceOnUse" xlink:href="#a"/><filter id="ab" x="-.076318" y="-.15431" width="1.1526" height="1.3086"><feGaussianBlur id="as" stdDeviation="0.18284574"/></filter><filter id="aa"><feGaussianBlur id="at" stdDeviation="0.3904144"/></filter><radialGradient id="p" cx="24.868" cy="35.445" r="1.2727" gradientTransform="matrix(1.17 -.18502 .17663 1.117 -10.488 .45579)" gradientUnits="userSpaceOnUse" xlink:href="#i"/><radialGradient id="o" cx="24.868" cy="35.445" r="1.2727" gradientTransform="matrix(1.3987 -1.0508 1.291 2.8503 -55.576 -37.663)" gradientUnits="userSpaceOnUse" xlink:href="#a"/><radialGradient id="n" cx="32.844" cy="19.984" r=".84387" gradientTransform="matrix(1 0 0 1.3622 .38569 -7.303)" gradientUnits="userSpaceOnUse" xlink:href="#c"/><radialGradient id="m" cx="29.184" cy="47.287" r="10.285" gradientTransform="matrix(1 0 0 .425 0 27.19)" gradientUnits="userSpaceOnUse" xlink:href="#b"/><radialGradient id="l" cx="22.82" cy="44.008" r="16.521" gradientTransform="matrix(1 0 0 .097276 0 39.727)" gradientUnits="userSpaceOnUse" xlink:href="#b"/><radialGradient id="k" cx="22.82" cy="44.008" r="16.521" fx="36.062" fy="48.138" gradientTransform="matrix(1 0 0 .097276 0 39.727)" gradientUnits="userSpaceOnUse" xlink:href="#b"/><filter id="z" x="-.053438" y="-.54934" width="1.1069" height="2.0987"><feGaussianBlur id="au" stdDeviation="0.73569195"/></filter><filter id="y" x="-.066798" y="-.68668" width="1.1336" height="2.3734"><feGaussianBlur id="av" stdDeviation="0.91961494"/></filter><filter id="x" x="-.085502" y="-.20118" width="1.171" height="1.4024"><feGaussianBlur id="aw" stdDeviation="0.73283488"/></filter><radialGradient id="f" cx="50.205" cy="54.55" r="6.1068" gradientTransform="matrix(1.4603 -.38313 .29474 1.1234 -39.186 12.505)" gradientUnits="userSpaceOnUse" xlink:href="#a"/><radialGradient id="e" cx="48.188" cy="44.478" r="6.1068" gradientTransform="matrix(1.5609 -.59548 .56324 1.4764 -55.979 7.0351)" gradientUnits="userSpaceOnUse" xlink:href="#c"/><filter id="h" x="-.10856" y="-.10579" width="1.2171" height="1.2116"><feGaussianBlur id="ax" stdDeviation="0.64246107"/></filter><filter id="j" x="-.087765" y="-.13129" width="1.1755" height="1.2626"><feGaussianBlur id="ay" stdDeviation="0.60483974"/></filter><radialGradient id="d" cx="56.954" cy="54.229" r="5.7854" fx="53.997" fy="52.576" gradientTransform="matrix(1 0 0 .15556 0 45.793)" gradientUnits="userSpaceOnUse" xlink:href="#b"/><filter id="g" x="-.059007" y="-.37933" width="1.118" height="1.7587"><feGaussianBlur id="az" stdDeviation="0.28448396"/></filter></defs><g id="ba"><g id="bb" transform="matrix(.79412 0 0 .79412 7.2374 .49771)"><path id="bc" transform="translate(.25713 -.25713)" d="m62.74 54.229a5.7854 0.89995 0 1 1-11.571 0 5.7854 0.89995 0 1 1 11.571 0z" fill="url(#d)" fill-rule="nonzero" filter="url(#g)"/><path id="bd" transform="matrix(.64211 0 0 .64211 22.981 18.491)" d="m54.512 49.151a6.1068 6.1068 0 1 1-12.214 0 6.1068 6.1068 0 1 1 12.214 0z" fill="#2e3436" fill-rule="nonzero"/><path id="be" transform="matrix(.64211 0 0 .64211 22.981 18.491)" d="m54.512 49.151a6.1068 6.1068 0 1 1-12.214 0 6.1068 6.1068 0 1 1 12.214 0z" fill="url(#e)" fill-rule="nonzero" opacity=".80087"/><path id="bf" transform="matrix(.64211 0 0 .64211 22.981 18.491)" d="m54.512 49.151a6.1068 6.1068 0 1 1-12.214 0 6.1068 6.1068 0 1 1 12.214 0z" fill="url(#f)" fill-rule="nonzero" opacity=".59307"/><path id="bg" transform="matrix(-.31032 .058753 .11391 -.53219 63.548 73.429)" d="m54.512 49.151a6.1068 6.1068 0 1 1-12.214 0 6.1068 6.1068 0 1 1 12.214 0z" fill="none" filter="url(#h)" opacity=".59307" stroke="#424242" stroke-dasharray="1.66397423, 3.32794846" stroke-linecap="round" stroke-linejoin="round" stroke-miterlimit="4" stroke-width="1.664"/></g><path id="bh" transform="matrix(1 0 0 .64 23.527 16.55)" d="m39.341 44.008a16.521 1.6071 0 1 1-33.041 0 16.521 1.6071 0 1 1 33.041 0z" fill="url(#k)" fill-rule="nonzero" filter="url(#y)" opacity=".71429"/><path id="bi" transform="translate(.25713 .25713)" d="m39.341 44.008a16.521 1.6071 0 1 1-33.041 0 16.521 1.6071 0 1 1 33.041 0z" fill="url(#l)" fill-rule="nonzero" filter="url(#z)" opacity=".71429"/><path id="bj" transform="matrix(1.3438 0 0 .75 -9.0678 8.9289)" d="m39.469 47.287a10.285 4.3712 0 1 1-20.57 0 10.285 4.3712 0 1 1 20.57 0z" fill="url(#m)" fill-rule="nonzero" filter="url(#x)" opacity=".71429"/><path id="bk" d="m25.237 23.412c5.4708-0.79172 10.557 3.1011 11.334 8.6749 0.77693 5.5738-3.0438 10.756-8.5147 11.547-5.4706 0.79168-10.556-3.1011-11.334-8.6749-0.77712-5.5738 3.0439-10.756 8.5143-11.547zm1.4067 3.1318 0.42198 3.0273c0.37512 0.041995 0.73064 0.13305 1.0695 0.27761l1.7843-2.4201c-0.98052-0.55985-2.0988-0.88405-3.2758-0.88481zm-1.9017 0.2752c-1.1165 0.33023-2.112 0.97929-2.9045 1.7792l2.3755 1.8181c0.2833-0.22352 0.61155-0.42929 0.95094-0.57001l-0.42198-3.0273zm6.7384 1.8043-1.7845 2.4201c0.23068 0.29113 0.41564 0.61382 0.5597 0.96906l2.9116-0.42138c-0.32018-1.1352-0.91368-2.1604-1.6868-2.9678zm-10.815 1.5652c-0.53357 0.998-0.86816 2.1527-0.86855 3.3376l2.9118-0.42138c0.045329-0.39248 0.17882-0.74456 0.3319-1.0981l-2.3752-1.8181zm12.772 3.3401-2.9118 0.42138c-0.041295 0.38203-0.13061 0.74442-0.27255 1.0895l2.3075 1.7661c0.53434-0.9936 0.87911-2.0854 0.8768-3.277zm-10.459 1.5136-2.9118 0.42138c0.32863 1.1514 0.94557 2.1555 1.7463 2.9592l1.7843-2.4201c-0.24355-0.29612-0.46788-0.5964-0.61885-0.96049zm6.1021 1.5876c-0.2858 0.23495-0.60253 0.42332-0.95133 0.57004l0.41372 2.9667c1.124-0.32966 2.0571-0.97109 2.845-1.7706l-2.3074-1.7662zm-3.9221 0.5676-1.7845 2.4201c0.9763 0.53153 2.1082 0.82691 3.2673 0.82427l-0.41353-2.9667c-0.36455-0.038845-0.73602-0.14332-1.0693-0.27763z" fill="#181005" fill-rule="nonzero"/><path id="bl" d="m34.455 21.059c0.77139-2.8284 3.5998-2.4427 3.5998-2.4427" fill="none" stroke="#2e3436" stroke-linecap="round" stroke-linejoin="miter" stroke-width="1px"/><path id="bm" d="m35.651 21.028c-1.5879-0.10731-1.1525-2.2785-2.0494-2.3576l-1.8235 2.2318-24.571-0.798c-3.527-0.26156-3.5858 1.3246-3.8309 4.7548-0.24508 3.4302-0.45444 5.5979 3.0726 5.8595l28.276 3.2825c3.527 0.26158 6.585-2.5841 6.8301-6.0143 0.24508-3.4302-2.3761-6.697-5.9033-6.9586z" fill="#2e3436" fill-rule="nonzero"/><path id="bn" d="m5.6506 21.094v2l33.509 0.53125c-0.25637-0.35844-0.55333-0.70149-0.87309-1l-32.635-1.5312z" fill="#eeeeec" fill-rule="evenodd" filter="url(#ad)"/><path id="bo" d="m35.651 21.028c-1.2787-0.19034-1.385-1.553-2.0494-2.3576l-1.8235 2.2318-24.571-0.798c-3.527-0.26156-3.5858 1.3246-3.8309 4.7548-0.24508 3.4302-0.45444 5.5979 3.0726 5.8595l28.276 3.2825c3.527 0.26158 6.585-2.5841 6.8301-6.0143 0.24508-3.4302-2.3761-6.697-5.9033-6.9586z" fill="url(#w)" fill-rule="nonzero"/><path id="bp" d="m35.651 21.028c-2.9679 0.64704-1.5154-1.4823-2.0494-2.3576l-1.8235 2.2318-24.571-0.798c-3.527-0.26156-3.5858 1.3246-3.8309 4.7548-0.24508 3.4302-0.45444 5.5979 3.0726 5.8595l28.276 3.2825c3.527 0.26158 6.585-2.5841 6.8301-6.0143 0.24508-3.4302-2.3761-6.697-5.9033-6.9586z" fill="url(#s)" fill-rule="nonzero"/><path id="bq" d="m23.905 28.292 19.15 3.5474 0.87047-1.4781 5.2228 2.0693s10.445 6.7993 11.896 10.938c1.4509 4.1387-4.0024 0.25735-4.9326-1.1825-0.95479-1.4781-8.7344-5.0255-10.155-5.6168-1.9557-0.8138-1.4509 4.1387-5.513 2.6606-4.0621-1.4781-14.217-2.9562-14.217-2.9562l-2.3214-7.9817z" fill="url(#v)" fill-rule="evenodd"/><path id="br" d="m26.182 31.273s11.455 2.1818 13.455 2.5455c2 0.36364 5.4545 2 5.4545 2l-0.54545 0.90909s-2.9091-1.8182-6-2.3636c-3.0909-0.54546-12.364-3.0909-12.364-3.0909z" fill="#75511a" fill-rule="evenodd"/><path id="bs" d="m23.905 28.292 19.15 3.5474 0.87047-1.4781 5.2228 2.0693s10.445 6.7993 11.896 10.938c1.4509 4.1387-4.0024 0.25735-4.9326-1.1825-0.95479-1.4781-8.7344-5.0255-10.155-5.6168-1.9557-0.8138-1.4509 4.1387-5.513 2.6606-4.0621-1.4781-14.217-2.9562-14.217-2.9562l-2.3214-7.9817z" fill="url(#r)" fill-rule="evenodd"/><path id="bt" d="m23.905 28.292 19.15 3.5474 0.87047-1.4781 5.2228 2.0693s10.445 6.7993 11.896 10.938c1.4509 4.1387-4.0024 0.25735-4.9326-1.1825-0.95479-1.4781-8.7344-5.0255-10.155-5.6168-1.9557-0.8138-1.4509 4.1387-5.513 2.6606-4.0621-1.4781-14.217-2.9562-14.217-2.9562l-2.3214-7.9817z" fill="url(#q)" fill-rule="evenodd"/><path id="bu" transform="translate(-1.8182e-8 .36364)" d="m34.909 34.909a10.182 10.182 0 1 1-20.364 0 10.182 10.182 0 1 1 20.364 0z" fill="none" stroke="#4d2600" stroke-linecap="round" stroke-linejoin="round" stroke-miterlimit="4" stroke-width="1"/><path id="bv" d="m23.237 24.898c5.4708-0.79172 10.557 3.1011 11.334 8.6749 0.77693 5.5738-3.0438 10.756-8.5147 11.547-5.4706 0.79168-10.556-3.1011-11.334-8.6749-0.77712-5.5738 3.0439-10.756 8.5143-11.547zm1.4067 3.1318 0.42198 3.0273c0.37512 0.041995 0.73064 0.13305 1.0695 0.27761l1.7843-2.4201c-0.98052-0.55985-2.0988-0.88405-3.2758-0.88481zm-1.9017 0.2752c-1.1165 0.33023-2.112 0.97929-2.9045 1.7792l2.3755 1.8181c0.2833-0.22352 0.61155-0.42929 0.95094-0.57001l-0.42198-3.0273zm6.7384 1.8043-1.7845 2.4201c0.23068 0.29113 0.41564 0.61382 0.5597 0.96906l2.9116-0.42138c-0.32018-1.1352-0.91368-2.1604-1.6868-2.9678zm-10.815 1.5652c-0.53357 0.998-0.86816 2.1527-0.86855 3.3376l2.9118-0.42138c0.045329-0.39248 0.17882-0.74456 0.3319-1.0981l-2.3752-1.8181zm12.772 3.3401-2.9118 0.42138c-0.041295 0.38203-0.13061 0.74442-0.27255 1.0895l2.3075 1.7661c0.53434-0.9936 0.87911-2.0854 0.8768-3.277zm-10.459 1.5136-2.9118 0.42138c0.32863 1.1514 0.94557 2.1555 1.7463 2.9592l1.7843-2.4201c-0.24355-0.29612-0.46788-0.5964-0.61885-0.96049zm6.1021 1.5876c-0.2858 0.23495-0.60253 0.42332-0.95133 0.57004l0.41372 2.9667c1.124-0.32966 2.0571-0.97109 2.845-1.7706l-2.3074-1.7662zm-3.9221 0.5676-1.7845 2.4201c0.9763 0.53153 2.1082 0.82691 3.2673 0.82427l-0.41353-2.9667c-0.36455-0.038845-0.73602-0.14332-1.0693-0.27763z" fill="#75511a" fill-rule="nonzero"/><path id="bw" d="m5.5625 20.156c-1.9134 0.35035-1.9884 1.9005-2.1875 4.6875-0.20793 2.9102-0.38472 4.9253 1.7188 5.625-0.24187-1.712-0.33471-3.6853-0.1875-5.8125 0.11188-1.6167 0.37682-3.13 0.6875-4.5-0.0097342 0.001703-0.021609-0.001765-0.03125 0z" fill="url(#t)" fill-rule="nonzero" filter="url(#ae)"/><path id="bx" d="m43.938 30.375-0.53125 0.875 4.8438 1.9062c2.9797 1.4877 11.845 9.1525 12.781 10.219-1.4507-4.1387-11.875-10.937-11.875-10.938l-5.2188-2.0625z" fill="#8e672c" fill-rule="evenodd"/><path id="by" d="m24.25 24.994c-0.33796 0.013618-0.65808 0.044267-1 0.09375-5.2013 0.75269-8.9094 5.4649-8.5938 10.719 0.13348-4.8811 3.6933-9.1034 8.5938-9.8125 5.4708-0.79172 10.535 3.0824 11.312 8.6562 0.048558 0.34836 0.080391 0.71818 0.09375 1.0625 0.032973-0.64618-0.001186-1.3047-0.09375-1.9688-0.72873-5.2254-5.2431-8.9543-10.312-8.75zm0.40625 4.125 0.40625 3.0312c0.37512 0.041995 0.72369 0.13669 1.0625 0.28125l1.7812-2.4375c-0.16342-0.093308-0.32929-0.17019-0.5-0.25l-1.2812 1.7812c-0.33881-0.14456-0.68738-0.23925-1.0625-0.28125l-0.28125-2.125c-0.043192-9.01e-4 -0.081645 2.8e-5 -0.125 0zm-4.2812 1.5625c-0.19011 0.15756-0.3594 0.32654-0.53125 0.5l2.375 1.8125c0.2833-0.22352 0.59811-0.42178 0.9375-0.5625l-0.125-0.84375c-0.29407 0.13671-0.56461 0.30442-0.8125 0.5l-1.8438-1.4062zm7.625 2.5-0.3125 0.4375c0.23068 0.29113 0.41845 0.61351 0.5625 0.96875l2.9062-0.40625c-0.086499-0.30669-0.18795-0.61775-0.3125-0.90625l-2.5938 0.40625c-0.072026-0.17762-0.15692-0.33853-0.25-0.5zm-7.1875 1.2188c-0.032436 0.12409-0.078551 0.2434-0.09375 0.375l-2.875 0.40625c-0.042531 0.30043-0.062401 0.59959-0.0625 0.90625l2.9375-0.40625c0.045329-0.39248 0.15942-0.74024 0.3125-1.0938l-0.21875-0.1875zm10.531 1.7188c-0.12665 0.83111-0.39097 1.618-0.78125 2.3438l-2.0938-1.5938c-0.049352 0.25682-0.12029 0.51063-0.21875 0.75l2.3125 1.75c0.53434-0.9936 0.8773-2.0584 0.875-3.25h-0.09375zm-12.969 1.875-0.3125 0.03125c0.32863 1.1514 0.94926 2.1651 1.75 2.9688l1.7812-2.4062c-0.12177-0.14806-0.23835-0.31115-0.34375-0.46875l-1.4375 1.9688c-0.59405-0.59623-1.0884-1.2986-1.4375-2.0938zm7.875 1.7188c-0.0426 0.019652-0.0814 0.044159-0.125 0.0625l0.40625 2.9688c1.124-0.32966 2.0559-0.98174 2.8438-1.7812l-0.53125-0.40625c-0.66427 0.56051-1.4391 1.0251-2.3125 1.2812l-0.28125-2.125zm-4.375 1.8125-0.5 0.65625c0.9763 0.53153 2.1221 0.84639 3.2812 0.84375l-0.125-0.90625c-0.9231-0.014726-1.8388-0.23386-2.6562-0.59375z" fill="#c48e3e" fill-rule="nonzero" filter="url(#ac)"/><path id="bz" transform="matrix(.28571 0 0 .25893 17.662 26.325)" d="m34.909 34.909a10.182 10.182 0 1 1-20.364 0 10.182 10.182 0 1 1 20.364 0z" fill="url(#u)" fill-rule="nonzero" filter="url(#aa)"/><path id="ca" d="m21.844 35.156c-0.006808 0.073537-0.03125 0.14363-0.03125 0.21875 0 1.4553 1.3004 2.625 2.9062 2.625 1.4517 0 2.6259-0.95831 2.8438-2.2188-0.5932 0.67279-1.5546 1.125-2.6562 1.125-1.4245 1e-6 -2.6132-0.7259-3.0625-1.75z" fill="#8d662b" fill-rule="nonzero" filter="url(#ab)"/><path id="cb" d="m24.625 34.219c-0.12737-0.004615-0.25692 0.020125-0.375 0.0625-0.94465 0.339-1.1939 2.1223-0.53125 3.9688 0.082827 0.2308 0.18032 0.44675 0.28125 0.65625 0.07609 0.013454 0.14285 0.054412 0.21875 0.0625l0.0625 0.4375c0.63119 1.0544 1.4642 1.6754 2.1562 1.5938l-0.3125-2.3125c0.3488-0.14673 0.68295-0.32755 0.96875-0.5625l0.40625 0.3125c-0.054261-0.44998-0.16983-0.95288-0.34375-1.4375-0.57979-1.6156-1.6397-2.7489-2.5312-2.7812z" fill="url(#o)" fill-rule="nonzero" opacity=".4329"/><path id="cc" transform="matrix(1.4286 0 0 1.4286 -11.17 -15.273)" d="m26.364 35.636a1.2727 1.2727 0 1 1-2.5455 0 1.2727 1.2727 0 1 1 2.5455 0z" fill="url(#p)" fill-rule="nonzero"/><path id="cd" d="m33.573 18.771-1.1875 2.0388c0.17197 0.12903 0.37282 0.26027 0.59375 0.26027 0.5777 0 1.0547-0.52208 1.0938-1.1712 9.11e-4 -0.02877-0.001111-0.057817 0-0.086758 0-0.44012-0.19888-0.81854-0.5-1.0411z" fill="url(#n)" fill-rule="nonzero" opacity=".71429"/><g id="ce"><path id="cf" transform="translate(.25713 -.25713)" d="m62.74 54.229a5.7854 0.89995 0 1 1-11.571 0 5.7854 0.89995 0 1 1 11.571 0z" fill="url(#d)" fill-rule="nonzero" filter="url(#g)"/><path id="cg" transform="matrix(.64211 0 0 .64211 22.981 18.491)" d="m54.512 49.151a6.1068 6.1068 0 1 1-12.214 0 6.1068 6.1068 0 1 1 12.214 0z" fill="#2e3436" fill-rule="nonzero"/><path id="ch" transform="matrix(.64211 0 0 .64211 22.981 18.491)" d="m54.512 49.151a6.1068 6.1068 0 1 1-12.214 0 6.1068 6.1068 0 1 1 12.214 0z" fill="url(#e)" fill-rule="nonzero" opacity=".80087"/><path id="ci" transform="matrix(.64211 0 0 .64211 22.981 18.491)" d="m54.512 49.151a6.1068 6.1068 0 1 1-12.214 0 6.1068 6.1068 0 1 1 12.214 0z" fill="url(#f)" fill-rule="nonzero" opacity=".59307"/><path id="cj" transform="matrix(.25084 .3512 -.4797 .34262 65.497 16.147)" d="m54.512 49.151a6.1068 6.1068 0 1 1-12.214 0 6.1068 6.1068 0 1 1 12.214 0z" fill="none" filter="url(#j)" opacity=".59307" stroke="#888" stroke-dasharray="1.04283841000000010, 2.08567682000000021" stroke-linecap="round" stroke-linejoin="round" stroke-miterlimit="4" stroke-width="1.0428"/><path id="ck" transform="matrix(-.23416 .21194 -.1803 -.51351 74.322 65.096)" d="m54.512 49.151a6.1068 6.1068 0 1 1-12.214 0 6.1068 6.1068 0 1 1 12.214 0z" fill="none" filter="url(#h)" opacity=".59307" stroke="#424242" stroke-dasharray="1.32139122999999992, 2.64278245999999983" stroke-linecap="round" stroke-linejoin="round" stroke-miterlimit="4" stroke-width="1.3214"/></g><g id="cl" transform="matrix(1.04 0 0 1.04 -10.234 .50499)"><path id="cm" transform="translate(.25713 -.25713)" d="m62.74 54.229a5.7854 0.89995 0 1 1-11.571 0 5.7854 0.89995 0 1 1 11.571 0z" fill="url(#d)" fill-rule="nonzero" filter="url(#g)"/><path id="cn" transform="matrix(.64211 0 0 .64211 22.981 18.491)" d="m54.512 49.151a6.1068 6.1068 0 1 1-12.214 0 6.1068 6.1068 0 1 1 12.214 0z" fill="#2e3436" fill-rule="nonzero"/><path id="co" transform="matrix(.64211 0 0 .64211 22.981 18.491)" d="m54.512 49.151a6.1068 6.1068 0 1 1-12.214 0 6.1068 6.1068 0 1 1 12.214 0z" fill="url(#e)" fill-rule="nonzero" opacity=".80087"/><path id="cp" transform="matrix(.64211 0 0 .64211 22.981 18.491)" d="m54.512 49.151a6.1068 6.1068 0 1 1-12.214 0 6.1068 6.1068 0 1 1 12.214 0z" fill="url(#f)" fill-rule="nonzero" opacity=".59307"/><path id="cq" transform="matrix(-.2658 .34002 -.46442 -.36306 89.754 51.372)" d="m54.512 49.151a6.1068 6.1068 0 1 1-12.214 0 6.1068 6.1068 0 1 1 12.214 0z" fill="none" filter="url(#j)" opacity=".59307" stroke="#888" stroke-dasharray="1.04283841, 2.08567682" stroke-linecap="round" stroke-linejoin="round" stroke-miterlimit="4" stroke-width="1.0428"/><path id="cr" transform="matrix(-.15194 .27688 -.33837 -.42628 78.111 57.665)" d="m54.512 49.151a6.1068 6.1068 0 1 1-12.214 0 6.1068 6.1068 0 1 1 12.214 0z" fill="none" filter="url(#h)" opacity=".59307" stroke="#424242" stroke-dasharray="1.32139123, 2.64278246" stroke-linecap="round" stroke-linejoin="round" stroke-miterlimit="4" stroke-width="1.3214"/></g></g></svg>
