<?xml version="1.0" encoding="UTF-8"?>
<svg id="ae" version="1.0" viewBox="0 0 128 128" xmlns="http://www.w3.org/2000/svg" xmlns:xlink="http://www.w3.org/1999/xlink"><defs id="af"><linearGradient id="a"><stop id="ag" stop-color="#fff" offset="0"/><stop id="ah" stop-color="#fff" stop-opacity="0" offset="1"/></linearGradient><linearGradient id="b"><stop id="ai" stop-color="#eeeeec" offset="0"/><stop id="aj" stop-color="#9f9f94" offset="1"/></linearGradient><linearGradient id="c"><stop id="ak" stop-color="#5e5e5e" offset="0"/><stop id="al" stop-color="#dedede" offset=".75902"/><stop id="am" stop-color="#8d8d8d" offset=".9338"/><stop id="an" stop-color="#616161" offset="1"/></linearGradient><linearGradient id="d"><stop id="ao" stop-color="#dcdcdc" offset="0"/><stop id="ap" stop-color="#dcdcdc" stop-opacity="0" offset="1"/></linearGradient><linearGradient id="t"><stop id="aq" offset="0"/><stop id="ar" stop-opacity="0" offset="1"/></linearGradient><radialGradient id="s" cx="21.289" cy="62.976" r="33.898" fx="20.364" fy="54.51" gradientTransform="matrix(1.2304 .49085 -.30559 .76599 6.4447 -26.194)" gradientUnits="userSpaceOnUse" xlink:href="#a"/><radialGradient id="r" cx="45.072" cy="48.438" r="20.47" fx="49.431" fy="63.655" gradientUnits="userSpaceOnUse" xlink:href="#b"/><linearGradient id="ad" x1="46.229" x2="50.325" y1="34.837" y2="67.717" gradientTransform="matrix(1.161 .12787 -.11221 1.1627 -7.6451 -42.367)" gradientUnits="userSpaceOnUse" xlink:href="#a"/><linearGradient id="ac" x1="105.21" x2="119.67" y1="66.388" y2="66.388" gradientTransform="matrix(1.1206 0 0 1.1206 -15.318 -8.7988)" gradientUnits="userSpaceOnUse" xlink:href="#b"/><linearGradient id="ab" x1="-11.312" x2="24.777" y1="75.198" y2="75.198" gradientTransform="matrix(.93142 0 0 .93142 41.302 -34.927)" gradientUnits="userSpaceOnUse" xlink:href="#b"/><radialGradient id="q" cx="58.681" cy="7.2304" r="55.699" gradientTransform="matrix(1.0389 .69132 -.10266 .15427 1.6975 -11.264)" gradientUnits="userSpaceOnUse" xlink:href="#a"/><radialGradient id="p" cx="116.12" cy="65.438" r="2.9375" fx="115.49" fy="64.291" gradientTransform="matrix(1 0 0 1.1915 0 -12.531)" gradientUnits="userSpaceOnUse"><stop id="as" offset="0"/><stop id="at" stop-opacity="0" offset="1"/></radialGradient><radialGradient id="g" cx="21.289" cy="62.976" r="33.898" fx="20.364" fy="54.51" gradientTransform="matrix(-.14926 .059546 .037072 .092924 126.44 56.598)" gradientUnits="userSpaceOnUse" xlink:href="#a"/><linearGradient id="h" x1="-11.312" x2="24.777" y1="75.198" y2="75.198" gradientTransform="matrix(-.11299 0 0 .11299 122.21 55.538)" gradientUnits="userSpaceOnUse" xlink:href="#b"/><radialGradient id="f" cx="58.681" cy="7.2304" r="55.699" gradientTransform="matrix(-.12603 .083865 .012453 .018715 127.01 58.409)" gradientUnits="userSpaceOnUse" xlink:href="#a"/><radialGradient id="o" cx="71.882" cy="71.608" r="1.6131" gradientTransform="matrix(1 0 0 1.0137 0 -.98094)" gradientUnits="userSpaceOnUse" xlink:href="#c"/><radialGradient id="n" cx="92.062" cy="42.516" r="1.9688" fx="92.074" fy="41.436" gradientTransform="matrix(1.213 -3.8578e-6 .039164 1.5159 -21.277 -21.932)" gradientUnits="userSpaceOnUse" xlink:href="#b"/><radialGradient id="e" cx="36.748" cy="121.96" r="4.9659" fx="33.783" fy="122.48" gradientTransform="matrix(1 0 0 .31667 0 83.338)" gradientUnits="userSpaceOnUse" xlink:href="#t"/><linearGradient id="aa" x1="38.357" x2="48.093" y1="86.917" y2="86.917" gradientTransform="matrix(.54048 0 0 .093553 48.635 105.7)" gradientUnits="userSpaceOnUse" xlink:href="#c"/><linearGradient id="z" x1="41.109" x2="44.112" y1="79.414" y2="79.414" gradientTransform="matrix(1.5145 0 0 .8379 10.981 49.948)" gradientUnits="userSpaceOnUse" xlink:href="#d" spreadMethod="reflect"/><linearGradient id="y" x1="38.357" x2="48.093" y1="86.917" y2="86.917" gradientTransform="matrix(.54048 0 0 .54048 -2.8048 82.827)" gradientUnits="userSpaceOnUse" xlink:href="#c"/><linearGradient id="x" x1="41.109" x2="44.112" y1="79.414" y2="79.414" gradientTransform="matrix(1.5145 0 0 1.4454 -40.352 34.232)" gradientUnits="userSpaceOnUse" xlink:href="#d" spreadMethod="reflect"/><linearGradient id="w" x1="38.357" x2="48.093" y1="86.917" y2="86.917" gradientTransform="matrix(.54048 0 0 .54048 -127.26 10.543)" gradientUnits="userSpaceOnUse" xlink:href="#c"/><linearGradient id="v" x1="41.109" x2="44.112" y1="79.414" y2="79.414" gradientTransform="matrix(1.5145 0 0 1.4454 -164.87 -38.462)" gradientUnits="userSpaceOnUse" xlink:href="#d" spreadMethod="reflect"/><linearGradient id="u" x1="65.789" x2="65.099" y1="122.79" y2="106.68" gradientTransform="matrix(1.2869 0 0 1.2869 -11.512 -38.109)" gradientUnits="userSpaceOnUse"><stop id="au" offset="0"/><stop id="av" stop-opacity="0" offset="1"/></linearGradient><radialGradient id="m" cx="64.64" cy="122.04" r="3.7244" gradientTransform="matrix(1 0 0 .84444 0 18.984)" gradientUnits="userSpaceOnUse"><stop id="aw" offset="0"/><stop id="ax" stop-opacity="0" offset="1"/></radialGradient><radialGradient id="l" cx="71.993" cy="91.361" r="1.2121" gradientTransform="matrix(1.2709 .20174 -.41472 2.6128 18.291 -164.73)" gradientUnits="userSpaceOnUse"><stop id="ay" stop-color="#656565" offset="0"/><stop id="az" stop-color="#656565" stop-opacity="0" offset="1"/></radialGradient><radialGradient id="k" cx="72.915" cy="90.396" r="1.2121" gradientTransform="matrix(1.1141 .64395 -.83895 1.4515 67.687 -91.715)" gradientUnits="userSpaceOnUse"><stop id="ba" stop-color="#a5a5a5" offset="0"/><stop id="bb" stop-color="#a5a5a5" stop-opacity="0" offset="1"/></radialGradient><radialGradient id="j" cx="72.249" cy="89.825" r="1.2121" gradientTransform="matrix(.87446 .23431 -.5343 1.994 57.138 -110.8)" gradientUnits="userSpaceOnUse"><stop id="bc" stop-color="#fff" offset="0"/><stop id="bd" stop-color="#fff" stop-opacity="0" offset="1"/></radialGradient><radialGradient id="i" cx="37.299" cy="65.512" r="17.97" gradientTransform="matrix(-.14309 .16976 -.80509 -.67862 139.96 88.281)" gradientUnits="userSpaceOnUse"><stop id="be" stop-color="#fff" offset="0"/><stop id="bf" stop-color="#fff" stop-opacity="0" offset="1"/></radialGradient></defs><g id="bg"><path id="bh" d="m50.893 3.2813v-2.7947 2.7947z" fill="#fff" fill-opacity=".75688" fill-rule="nonzero"/><g id="bi" transform="matrix(.98322 .13331 -.13331 .98322 6.0381 -5.4269)" fill-rule="nonzero"><path id="bj" d="m37.811 2.1873c-10.306-0.42424-22.081 10.463-26.518 24.159-4.1276 12.741 0.88774 24.596 10.654 28.351l90.326 22.352c0.22985 0.063413 0.4731 0.088832 0.7221 0.11626 7.3085 0.069904 11.709-9.2816 6.0405-14.231l-73.753-58.658c-1.6919-1.177-4.2101-1.7294-6.4558-1.9768-0.32936-0.036275-0.6834-0.098198-1.0159-0.11188z" fill="#000"/><path id="bk" d="m37.904 2.7178c-10.065 0.26586-21.264 10.889-25.562 24.156-4.1276 12.741 0.88962 24.59 10.656 28.344l55.688 13.781v-38.469l-32.344-25.719c-1.6919-1.177-4.2231-1.7214-6.4688-1.9688-0.32936-0.036275-0.66754-0.11132-1-0.125-0.32207-0.013258-0.64408-0.0085762-0.96875 0z" fill="url(#s)" opacity=".87"/><path id="bl" transform="matrix(.8429 .092834 -.36666 1.1347 12.01 -27.681)" d="m68.701 47.242a20.47 20.47 0 1 1-40.94 0 20.47 20.47 0 1 1 40.94 0z" fill="#000" opacity=".15"/><path id="bm" transform="matrix(.87457 .096322 -.38004 1.1731 10.304 -29.962)" d="m68.701 47.242a20.47 20.47 0 1 1-40.94 0 20.47 20.47 0 1 1 40.94 0z" fill="url(#r)"/><path id="bn" d="m42.31 6.0978c-8.1718-0.90002-17.441 5.709-22.837 15.515-1.2401 5.0766-1.0111 8.8732 2.7177 11.352 7.8313 5.2064 23.606 0.64821 31.327-11.165 0.17084-0.26138 0.31654-0.52851 0.47974-0.79174-0.42972-8.1282-4.7189-14.143-11.688-14.911z" fill="url(#ad)"/><path id="bo" d="m44.742 4.4562 29.432 24.224-16.415 33.916-38.476-9.7552c0.92608 0.32502 1.9025 0.54003 2.9434 0.65467 10.54 1.1608 22.804-9.3591 27.384-23.496 3.6041-11.125 1.3807-21.196-4.8682-25.543z" fill="#000"/><path id="bp" d="m109.06 54.912c5.9382 6.7085 1.6977 17.311-6.4782 19.82l5.7428 1.4357c0.25755 0.071058 0.52638 0.074321 0.80539 0.10505 8.1896 0.078331 13.11-10.386 6.7583-15.933l-6.8284-5.4277z" fill="url(#ac)"/><path id="bq" d="m54.488 11.702 1.3098 1.077c-0.41469-0.38736-0.84683-0.75488-1.3098-1.077zm1.3098 1.077c4.7986 4.4823 6.3208 13.166 3.2309 22.703-4.2658 13.168-15.71 22.97-25.527 21.888-0.33409-0.036796-0.64016-0.11528-0.96053-0.17464l4.9191 1.2516c9.7536 1.0286 21.085-8.2843 25.323-20.811 3.0683-9.0688 1.5596-17.331-3.2018-21.597l-1.3098-1.0479c0.46298 0.3084 0.89544 0.67656 1.3098 1.0479l-3.7839-3.26zm-23.256 44.417-1.7755-0.4366c0.56534 0.19841 1.1662 0.3237 1.7755 0.4366z" fill="url(#ab)"/><path id="br" d="m45.688 4.875c9.5426 6.2436 8.7263 21.893 1.0938 34.938-17.361 29.606-56.949-1.7945-24.844 14.875l90.344 22.375c0.22985 0.063416 0.46975 0.066325 0.71875 0.09375 7.3085 0.069908 11.7-9.269 6.0312-14.219l-73.75-58.656c-12.87-1.3787-13.659-7.0781 0.40625 0.59375z" fill="url(#q)"/><path id="bs" transform="matrix(.80967 .28089 .26685 1.151 2.3274 -41.189)" d="m119.06 65.438a2.9375 3.5 0 1 1-5.875 0 2.9375 3.5 0 1 1 5.875 0z" fill="url(#p)"/><g id="bt" transform="matrix(.74961 .1845 -.14954 .75306 33.917 -6.1734)"><path id="bu" d="m122.62 60.029c-0.04033 0.00166-0.14581 0.01028-0.18577 0.01468-0.27242 0.03-0.51523 0.09253-0.72048 0.23532l-3.9062 3.0938c-0.0219 0.0196-0.04188 0.04135-0.0625 0.0625-0.3958 0.40601-0.55388 1.0907-0.375 1.875 0.28515 1.2502 1.3348 2.2812 2.3438 2.2812 0.10393 0 0.18676-0.04182 0.28125-0.0625l4.5625-1.125c1.1848-0.45541 1.782-1.8919 1.2812-3.4375-0.53823-1.6614-1.9685-2.989-3.2188-2.9375z" fill="#000"/><path id="bv" d="m122.62 60.105c1.221 0.03225 2.5796 1.3209 3.101 2.9304 0.50073 1.5456-0.10792 2.983-1.2927 3.4384l-6.7556 1.6718v-4.6667l3.9237-3.12c0.20525-0.14279 0.51231-0.20883 0.78474-0.23883 0.03995-0.00441 0.08098-0.01351 0.12131-0.01517 0.03907-0.00161 0.07813-0.00104 0.11752 0z" fill="url(#g)" opacity=".87"/><path id="bw" d="m121.79 60.316-3.5705 2.9387 1.9914 4.1144 4.6676-1.1834c-0.11235 0.03943-0.2308 0.06551-0.35708 0.07942-1.2786 0.14082-2.7664-1.1354-3.322-2.8504-0.43722-1.3496-0.16749-2.5713 0.59057-3.0987z" fill="#000"/><path id="bx" d="m120.61 61.195-0.15889 0.13065c0.05031-0.04699 0.10273-0.09158 0.15889-0.13065zm-0.15889 0.13065c-0.58212 0.54375-0.76678 1.5971-0.39194 2.7542 0.51749 1.5974 1.9058 2.7865 3.0967 2.6553 0.04053-0.00446 0.07766-0.01398 0.11652-0.02118l-0.59674 0.15183c-1.1832 0.12478-2.5578-1.005-3.072-2.5247-0.37221-1.1002-0.18919-2.1025 0.38842-2.62l0.15889-0.12711c-0.05616 0.03741-0.10863 0.08207-0.15889 0.12711l0.45903-0.39547zm2.8213 5.3883 0.2154-0.05297c-0.06859 0.02407-0.14148 0.03927-0.2154 0.05297z" fill="url(#h)"/><path id="by" d="m121.84 60.279c1.3168-0.22769 1.0358-0.14208 0 0zm0 0c-0.04389 0.00585-0.0785 0.02627-0.125 0.03125l-4 3.1562c-0.3733 0.40952-0.51797 1.0798-0.34375 1.8438 0.28515 1.2502 1.3348 2.2812 2.3438 2.2812 0.10393 0 0.18676-0.04182 0.28125-0.0625l4.5625-1.125c0.27239-0.14143 0.40255-0.19234 0.59375-0.28125-0.99552 0.21719-2.6223 0.17879-3.625-1.5312-0.92592-1.5824-1.0014-3.4613 0.15625-4.2188 0.06456-0.03522 0.09683-0.06306 0.15625-0.09375zm3.3125 5.8438c0.94914-0.20708 1.2411-0.57708 0 0z" fill="url(#f)"/></g></g><path id="bz" d="m148.68 70.411v-2.7947 2.7947z" fill="#fff" fill-opacity=".75688" fill-rule="nonzero"/><path id="ca" d="m181.29-142.14v-2.7947 2.7947z" fill="#fff" fill-opacity=".75688" fill-rule="nonzero"/><path id="cb" d="m46.024 89.45v-2.7947 2.7947z" fill="#fff" fill-opacity=".75688" fill-rule="nonzero"/><rect id="cc" x="51.157" y="75.236" width="1" height="0" fill="#fff" fill-rule="nonzero" opacity=".57787"/><g id="cd" transform="matrix(.96018 0 0 .96018 1.8803 5.8102)"><path id="ce" transform="matrix(1.6063 0 0 1.3388 -43.434 -23.92)" d="m73.495 71.608a1.6131 1.6352 0 1 1-3.2262 0 1.6131 1.6352 0 1 1 3.2262 0z" fill="url(#o)" fill-rule="nonzero"/><g id="cf" transform="matrix(1.1636 .2864 -.23213 1.169 -41.023 -65.745)" fill-rule="nonzero"><path id="cg" d="m122.62 60.029c-0.04033 0.00166-0.14581 0.01028-0.18577 0.01468-0.27242 0.03-0.51523 0.09253-0.72048 0.23532l-3.9062 3.0938c-0.0219 0.0196-0.04188 0.04135-0.0625 0.0625-0.3958 0.40601-0.55388 1.0907-0.375 1.875 0.28515 1.2502 1.3348 2.2812 2.3438 2.2812 0.10393 0 0.18676-0.04182 0.28125-0.0625l4.5625-1.125c1.1848-0.45541 1.782-1.8919 1.2812-3.4375-0.53823-1.6614-1.9685-2.989-3.2188-2.9375z" fill="#000"/><path id="ch" d="m122.62 60.105c1.221 0.03225 2.5796 1.3209 3.101 2.9304 0.50073 1.5456-0.10792 2.983-1.2927 3.4384l-6.7556 1.6718v-4.6667l3.9237-3.12c0.20525-0.14279 0.51231-0.20883 0.78474-0.23883 0.03995-0.00441 0.08098-0.01351 0.12131-0.01517 0.03907-0.00161 0.07813-0.00104 0.11752 0z" fill="url(#g)" opacity=".87"/><path id="ci" d="m121.79 60.316-3.5705 2.9387 1.9914 4.1144 4.6676-1.1834c-0.11235 0.03943-0.2308 0.06551-0.35708 0.07942-1.2786 0.14082-2.7664-1.1354-3.322-2.8504-0.43722-1.3496-0.16749-2.5713 0.59057-3.0987z" fill="#000"/><path id="cj" d="m120.61 61.195-0.15889 0.13065c0.05031-0.04699 0.10273-0.09158 0.15889-0.13065zm-0.15889 0.13065c-0.58212 0.54375-0.76678 1.5971-0.39194 2.7542 0.51749 1.5974 1.9058 2.7865 3.0967 2.6553 0.04053-0.00446 0.07766-0.01398 0.11652-0.02118l-0.59674 0.15183c-1.1832 0.12478-2.5578-1.005-3.072-2.5247-0.37221-1.1002-0.18919-2.1025 0.38842-2.62l0.15889-0.12711c-0.05616 0.03741-0.10863 0.08207-0.15889 0.12711l0.45903-0.39547zm2.8213 5.3883 0.2154-0.05297c-0.06859 0.02407-0.14148 0.03927-0.2154 0.05297z" fill="url(#h)"/><path id="ck" d="m121.84 60.279c1.3168-0.22769 1.0358-0.14208 0 0zm0 0c-0.04389 0.00585-0.0785 0.02627-0.125 0.03125l-4 3.1562c-0.3733 0.40952-0.51797 1.0798-0.34375 1.8438 0.28515 1.2502 1.3348 2.2812 2.3438 2.2812 0.10393 0 0.18676-0.04182 0.28125-0.0625l4.5625-1.125c0.27239-0.14143 0.40255-0.19234 0.59375-0.28125-0.99552 0.21719-2.6223 0.17879-3.625-1.5312-0.92592-1.5824-1.0014-3.4613 0.15625-4.2188 0.06456-0.03522 0.09683-0.06306 0.15625-0.09375zm3.3125 5.8438c0.94914-0.20708 1.2411-0.57708 0 0z" fill="url(#f)"/></g><path id="cl" d="m85.406 40.656c0.57024 2.3422 0.87186 4.8594 0.84375 7.4688-0.13782 12.794-8.0617 23.188-17.688 23.188-0.30058 0-0.57803-0.010974-0.875-0.03125-0.25683-0.18376-0.52704-0.39134-0.78125-0.59375-3.3654-2.6797-5.9966-6.6251-7.75-11.094h-4.125c1.7367 3.8275 4.1528 7.1959 7.125 9.5625 0.68984 0.54928 1.3899 0.99592 2.0938 1.4062l0.28125 0.1875c0.80601 0.44694 1.6247 0.78555 2.4375 1.0625l0.53125 0.15625 0.125 0.0625 0.5625 0.25c0.76611 0.31306 1.5383 0.53977 2.3438 0.71875l0.34375 0.0625c0.77787 0.14452 1.5967 0.25 2.4062 0.25 9.6258 3e-6 17.55-10.394 17.688-23.188 0.036248-3.365-0.49842-6.5874-1.4375-9.4688-0.50904-0.62186-3.8772-0.80588-4.125 0z" fill="#000" fill-rule="nonzero"/><path id="cm" transform="matrix(.59603 0 .072278 .55221 30.353 19.514)" d="m94.031 42.516a1.9688 2.9844 0 1 1-3.9375 0 1.9688 2.9844 0 1 1 3.9375 0z" fill="url(#n)" fill-rule="nonzero" stroke="#8a8a8a" stroke-dashoffset="4" stroke-linecap="round" stroke-linejoin="round" stroke-miterlimit="4" stroke-width=".2"/><path id="cn" transform="matrix(2.9765 -.54662 .28538 2.0394 -85.961 -106.94)" d="m41.714 121.96a4.9659 1.5725 0 1 1-9.9318 0 4.9659 1.5725 0 1 1 9.9318 0z" fill="url(#e)" fill-rule="nonzero" opacity=".4959"/><path id="co" transform="matrix(-2.9765 -.54662 -.28538 2.0394 230.59 -105.76)" d="m41.714 121.96a4.9659 1.5725 0 1 1-9.9318 0 4.9659 1.5725 0 1 1 9.9318 0z" fill="url(#e)" fill-rule="nonzero" opacity=".4959"/><path id="cp" d="m69.792 72.347c1.1386-0.45615 2.6057-0.46052 4.4109 0 0.26694 0.10938 0.42543 0.18974 0.42543 0.42543v44.24c0 0.23569-0.18974 0.42543-0.42543 0.42543h-4.4109c-0.23569 0-0.42543-0.18974-0.42543-0.42543v-44.24c0-0.23569 0.23271-0.34731 0.42543-0.42543z" fill="url(#aa)" fill-rule="nonzero"/><rect id="cq" x="67.988" y="110.92" width="8.0179" height="8.7984" rx="1.825" ry="1.825" fill="#000" fill-rule="nonzero"/><rect id="cr" x="68.495" y="111.52" width="6.8961" height="7.7034" rx="1.2766" ry="1.2444" fill="url(#z)" fill-rule="nonzero" opacity=".47951"/><rect id="cs" transform="matrix(.86603 -.5 .5 .86603 0 0)" x="17.927" y="108.97" width="5.2617" height="41.673" fill="url(#y)" fill-rule="nonzero"/><rect id="ct" transform="matrix(.86603 -.5 .5 .86603 0 0)" x="16.656" y="143.56" width="8.0179" height="11.025" rx="1.8251" ry="1.8251" fill="#000" fill-rule="nonzero"/><rect id="cu" transform="matrix(.86603 -.5 .5 .86603 0 0)" x="17.162" y="144.29" width="6.8961" height="9.4472" rx="1.2766" ry="1.2444" fill="url(#x)" fill-rule="nonzero" opacity=".47951"/><rect id="cv" transform="matrix(-.86603 -.5 -.5 .86603 0 0)" x="-106.53" y="36.683" width="5.2617" height="41.673" fill="url(#w)" fill-rule="nonzero"/><rect id="cw" transform="matrix(-.86603 -.5 -.5 .86603 0 0)" x="-107.87" y="70.866" width="8.0179" height="11.025" rx="1.8251" ry="1.8251" fill="#000" fill-rule="nonzero"/><rect id="cx" transform="matrix(-.86603 -.5 -.5 .86603 0 0)" x="-107.36" y="71.601" width="6.8961" height="9.4472" rx="1.2766" ry="1.2444" fill="url(#v)" fill-rule="nonzero" opacity=".47951"/><path id="cy" d="m70.766 99.182c-0.065409 0.016716-0.1386 0.050728-0.20107 0.080428-0.64289 0.33481-1.126 1.3396-1.126 2.5335v9.8524c-0.15148 0.06656-0.32109 0.17412-0.44236 0.2815-0.018242 0.01694-0.063038 0.06265-0.080428 0.08042-0.016951 0.01819-0.06438 0.06146-0.080429 0.08044-0.023376 0.02901-0.059208 0.08997-0.080428 0.12063-0.034125 0.05198-0.093021 0.14503-0.12064 0.20108-0.036765 0.0795-0.057806 0.1954-0.080429 0.28149-0.026341 0.11178-0.040214 0.24216-0.040214 0.36193v4.6246c0 0.17301 0.026843 0.36782 0.080428 0.52277 0.022053 0.05894 0.051465 0.1458 0.080428 0.20107 0.096908 0.17432 0.24645 0.35744 0.40214 0.48257 0.099256 0.07595 0.2454 0.14988 0.36193 0.20107 0.18884 0.0776 0.42496 0.12064 0.64342 0.12064h0.2815c0.058262 0.04416 0.13926 0.08846 0.20107 0.12065 0.13742 0.06534 0.29216 0.12064 0.44236 0.12064h1.8498c0.23212 0 0.44534-0.09116 0.64343-0.24129h0.32171c0.1502 0 0.30493-0.00234 0.44235-0.0402 0.16072-0.04853 0.34862-0.14857 0.48257-0.24129 0.0607-0.0442 0.14761-0.10876 0.20107-0.16086 0.052167-0.05333 0.11696-0.14081 0.16086-0.20107 0.070727-0.10221 0.15696-0.24408 0.20107-0.36193 0.053585-0.15495 0.080428-0.34976 0.080428-0.52277v-4.6246c0-0.11977-0.013873-0.25015-0.040215-0.36193-0.080793-0.3075-0.2845-0.6032-0.52278-0.80428-0.019462-0.01564-0.060195-0.06569-0.080429-0.08042-0.092732-0.06419-0.21549-0.11721-0.32171-0.16086v-9.8524c0-1.125-0.41986-2.0662-1.0054-2.4531-0.16928-0.10382-0.37184-0.16086-0.563-0.16086h-1.8498c-0.081927 0-0.16279-0.020049-0.24128 0z" fill="url(#u)" fill-rule="nonzero" opacity=".77459"/><path id="cz" transform="matrix(1.487 0 0 1.2869 -23.777 -37.15)" d="m68.364 122.04a3.7244 3.1451 0 1 1-7.4489 0 3.7244 3.1451 0 1 1 7.4489 0z" fill="url(#m)" fill-rule="nonzero" opacity=".4959"/><path id="da" d="m70.985 83.364 0.92492 5.1273 2.1946-3.7855-0.74689-1.2212-1.0456 0.5831-1.3271-0.70375z" fill="#c2c2c2" fill-rule="evenodd"/><path id="db" d="m70.985 83.364 0.92492 5.1273 2.1946-3.7855-0.74689-1.2212-1.0456 0.5831-1.3271-0.70375z" fill="url(#l)" fill-rule="evenodd"/><path id="dc" d="m70.985 83.364 0.92492 5.1273 2.1946-3.7855-0.74689-1.2212-1.0456 0.5831-1.3271-0.70375z" fill="url(#k)" fill-rule="evenodd"/><path id="dd" d="m70.985 83.364 0.92492 5.1273 2.1946-3.7855-0.74689-1.2212-1.0456 0.5831-1.3271-0.70375z" fill="url(#j)" fill-rule="evenodd" opacity=".82"/><path id="de" transform="matrix(1.0334 0 0 1.0334 -1.4496 -4.2405)" d="m85.031 47.812c0.19661 1.0918 0.35509 2.1973 0.34375 3.25-0.052611 4.8839-1.3696 9.322-3.5 12.938h4.7188c1.4038-3.285 2.237-7.0821 2.2812-11.188 0.01801-1.6719 0.044659-3.3788-0.0625-5h-3.7812z" fill="url(#i)" fill-rule="nonzero" opacity=".86"/></g></g></svg>
