<?xml version="1.0" encoding="UTF-8"?>
<svg id="k" version="1.0" viewBox="0 0 128 128" xmlns="http://www.w3.org/2000/svg" xmlns:xlink="http://www.w3.org/1999/xlink"><defs id="l"><linearGradient id="a"><stop id="m" stop-color="#006e29" offset="0"/><stop id="n" offset="1"/></linearGradient><filter id="i" x="-.28311" y="-.16894" width="1.5662" height="1.3379"><feGaussianBlur id="o" stdDeviation="1.2538343"/></filter><radialGradient id="c" cx="37.75" cy="110.75" r="56" gradientTransform="matrix(1.5181 .097456 -.1571 2.4471 -6.244 -171.55)" gradientUnits="userSpaceOnUse"><stop id="p" offset="0"/><stop id="q" stop-color="#fff" offset="1"/></radialGradient><linearGradient id="b" x1="223.07" x2="317.97" y1="125.75" y2="-64.643" gradientTransform="matrix(.9585 -.020583 -.014646 .94895 -185.13 2.2332)" gradientUnits="userSpaceOnUse"><stop id="r" offset="0"/><stop id="s" stop-opacity="0" offset="1"/></linearGradient><radialGradient id="d" cx="106.27" cy="104.44" r="54.065" gradientTransform="matrix(2.193 -.014347 .011866 1.8138 -128.02 -83.467)" gradientUnits="userSpaceOnUse"><stop id="t" stop-color="#fff" offset="0"/><stop id="u" stop-color="#fff" offset=".42597"/><stop id="v" stop-color="#f1f1f1" offset=".58928"/><stop id="w" stop-color="#eaeaea" offset=".8022"/><stop id="x" stop-color="#dfdfdf" offset="1"/></radialGradient><filter id="j"><feGaussianBlur id="y" stdDeviation="1.032248"/></filter><linearGradient id="h" x1="162.13" x2="163.8" y1="103.43" y2="31.832" gradientUnits="userSpaceOnUse" xlink:href="#a"/><linearGradient id="g" x1="59.015" x2="62.031" y1="59.632" y2="44.96" gradientUnits="userSpaceOnUse" xlink:href="#a"/><linearGradient id="f" x1="24.538" x2="26.396" y1="21.045" y2="6.0193" gradientUnits="userSpaceOnUse" xlink:href="#a"/><linearGradient id="e" x1="25.042" x2="25.525" y1="95.319" y2="81.176" gradientUnits="userSpaceOnUse" xlink:href="#a"/></defs><g id="z"><rect id="aa" x="459.76" y="47.747" width="1" height="0" fill="#fff" fill-rule="nonzero" opacity=".57787"/><path id="ab" d="m300.82-25.469v-2.7947 2.7947z" fill="#fff" fill-opacity=".75688" fill-rule="nonzero"/><path id="ac" d="m-155.38-11.163v-2.7947 2.7947z" fill="#fff" fill-opacity=".75688" fill-rule="nonzero"/><path id="ad" d="m311.36-139.38v-2.7947 2.7947z" fill="#fff" fill-opacity=".75688" fill-rule="nonzero"/><path id="ae" d="m115.25-352.64v-2.7947 2.7947z" fill="#fff" fill-opacity=".75688" fill-rule="nonzero"/><path id="af" d="m93.989-278.63v-1.0532 1.0532z" fill="#fff" fill-opacity=".75688" fill-rule="nonzero"/><path id="ag" d="m5.2084 4.8706v36.782l36-0.60882v38.782l-36-0.60882v32.782h36.782l-0.60882-32h38.782l-0.60882 32h32.782v-32.782l-32 0.60882v-38.782l32 0.60882v-36.782h-32.782l0.60882 36h-38.782l0.60882-36h-36.782z" fill="none" stroke="url(#b)" stroke-dashoffset="4" stroke-linecap="round" stroke-linejoin="round" stroke-miterlimit="4" stroke-opacity=".11789" stroke-width="9.7411"/><path id="ah" d="m39.643 4.8706v34.434h-34.434v3.8261h34.434v34.434h-34.434v3.8261h34.434v30.608h3.8261v-30.608h34.434v30.608h3.8261v-30.608h30.608v-3.8261h-30.608v-34.434h30.608v-3.8261h-30.608v-34.434h-3.8261v34.434h-34.434v-34.434h-3.8261zm3.8261 38.261h34.434v34.434h-34.434v-34.434z" fill="url(#c)" fill-rule="nonzero"/><path id="ai" d="m5.2084 4.8706v36.782l36-0.60882v38.782l-36-0.60882v32.782h36.782l-0.60882-32h38.782l-0.60882 32h32.782v-32.782l-32 0.60882v-38.782l32 0.60882v-36.782h-32.782l0.60882 36h-38.782l0.60882-36h-36.782z" fill="none" stroke="url(#b)" stroke-dashoffset="4" stroke-linecap="round" stroke-linejoin="round" stroke-miterlimit="4" stroke-opacity=".11789" stroke-width="7.306"/><path id="aj" d="m5.2084 4.8706v36.782l36-0.60882v38.782l-36-0.60882v32.782h36.782l-0.60882-32h38.782l-0.60882 32h32.782v-32.782l-32 0.60882v-38.782l32 0.60882v-36.782h-32.782l0.60882 36h-38.782l0.60882-36h-36.782z" fill="none" stroke="url(#b)" stroke-dashoffset="4" stroke-linecap="round" stroke-linejoin="round" stroke-miterlimit="4" stroke-opacity=".11789" stroke-width="4.871"/><path id="ak" d="m5.2084 4.8706v36.782l36-0.60882v38.782l-36-0.60882v32.782h36.782l-0.60882-32h38.782l-0.60882 32h32.782v-32.782l-32 0.60882v-38.782l32 0.60882v-36.782h-32.782l0.60882 36h-38.782l0.60882-36h-36.782z" fill="none" stroke="url(#b)" stroke-dashoffset="4" stroke-linecap="round" stroke-linejoin="round" stroke-miterlimit="4" stroke-opacity=".11789" stroke-width="2.435"/><path id="al" d="m5.2084 4.8706v36.782l36-0.60882v38.782l-36-0.60882v32.782h36.782l-0.60882-32h38.782l-0.60882 32h32.782v-32.782l-32 0.60882v-38.782l32 0.60882v-36.782h-32.782l0.60882 36h-38.782l0.60882-36h-36.782z" fill="url(#d)" fill-rule="nonzero" stroke="#fff" stroke-dashoffset="4" stroke-linecap="round" stroke-linejoin="round" stroke-miterlimit="4" stroke-width="1"/><path id="am" d="m59.789 53.305-3.7887 0.85189v-2.0625l3.7663-0.82948h2.2642l-0.030516 16.735h-2" fill="url(#g)"/><path id="an" d="m24.604 94.719c1.0985 0.29145 1.9392 0.8108 2.5221 1.5581 0.58286 0.73981 0.8743 1.6664 0.87431 2.7799-1.2e-5 1.5394-0.51937 2.75-1.5581 3.6318-1.0312 0.87431-2.4623 1.3115-4.2931 1.3115-0.7697 0-1.5543-0.07099-2.3539-0.21298-0.79959-0.14198-1.5842-0.34748-2.3539-0.6165v-2.253c0.76222 0.39606 1.5132 0.69123 2.253 0.88552 0.7398 0.19429 1.4759 0.29144 2.2082 0.29144 1.2405 0 2.1932-0.28023 2.8583-0.84069 0.66507-0.56045 0.9976-1.3675 0.99761-2.4212-1e-5 -0.97145-0.33255-1.7411-0.99761-2.3091-0.66508-0.57539-1.5655-0.8631-2.7014-0.8631h-1.7262v-1.8607h1.7262c1.0387 9e-6 1.8495-0.22791 2.4324-0.68376 0.58287-0.45583 0.8743-1.091 0.87431-1.9056-9e-6 -0.85935-0.27276-1.517-0.81827-1.9728-0.53805-0.4633-1.3077-0.69495-2.3091-0.69497-0.66508 1.5e-5 -1.3526 0.074742-2.0625 0.22418-0.70992 0.14947-1.4535 0.37365-2.2306 0.67255v-2.0849c0.9042-0.23911 1.7075-0.41846 2.41-0.53804 0.70991-0.11955 1.3376-0.17933 1.8831-0.17935 1.6291 1.7e-5 2.9293 0.41102 3.9008 1.233 0.97892 0.81454 1.4684 1.8981 1.4684 3.2506-1.2e-5 0.91916-0.25782 1.6851-0.77343 2.2979-0.50816 0.61278-1.2517 1.0462-2.2306 1.3003" fill="url(#e)"/><path id="ao" transform="matrix(.95651 0 0 .95651 -2.4437 -2.7815)" d="m23.96 32.748h8.0391v1.9922h-10.629v-1.9922c1.4609-1.5391 2.7383-2.8984 3.832-4.0781 1.0937-1.1797 1.8476-2.0117 2.2617-2.4961 0.78124-0.95312 1.3086-1.7226 1.582-2.3086 0.27343-0.59374 0.41015-1.1992 0.41016-1.8164-1e-5 -0.97655-0.28907-1.7422-0.86719-2.2969-0.57032-0.55467-1.3555-0.83202-2.3555-0.83203-0.71094 1.6e-5 -1.457 0.12892-2.2383 0.38672-0.78125 0.25783-1.6094 0.64845-2.4844 1.1719v-2.3906c0.80468-0.3828 1.5937-0.67186 2.3672-0.86719 0.78124-0.19529 1.5508-0.29295 2.3086-0.29297 1.7109 1.7e-5 3.0859 0.45705 4.125 1.3711 1.0469 0.90627 1.5703 2.0977 1.5703 3.5742-1.3e-5 0.75001-0.17579 1.5-0.52734 2.25-0.34376 0.75001-0.90626 1.5781-1.6875 2.4844-0.43751 0.50782-1.0742 1.2109-1.9102 2.1094-0.82813 0.89844-2.0938 2.2422-3.7969 4.0312" fill="#fff" filter="url(#i)"/><path id="ap" d="m20.474 28.543h7.6895v1.9056h-10.167v-1.9056c1.3974-1.4721 2.6192-2.7724 3.6654-3.9008 1.0462-1.1284 1.7673-1.9242 2.1634-2.3875 0.74727-0.91167 1.2517-1.6477 1.5132-2.2082 0.26154-0.56792 0.39231-1.1471 0.39232-1.7374-1e-5 -0.93408-0.2765-1.6664-0.82948-2.197-0.54552-0.53055-1.2965-0.79583-2.253-0.79585-0.68003 1.5e-5 -1.3937 0.12332-2.1409 0.3699-0.74728 0.24662-1.5394 0.62025-2.3763 1.1209v-2.2867c0.76969-0.36615 1.5244-0.64264 2.2642-0.82948 0.74727-0.1868 1.4833-0.28021 2.2082-0.28023 1.6365 1.7e-5 2.9517 0.43717 3.9456 1.3115 1.0013 0.86686 1.502 2.0064 1.502 3.4188-1.2e-5 0.7174-0.16815 1.4348-0.50441 2.1522-0.32881 0.71739-0.86685 1.5095-1.6141 2.3763-0.41848 0.48574-1.0275 1.1583-1.8271 2.0176-0.79212 0.85937-2.0027 2.1447-3.6318 3.8559" fill="url(#f)"/><g id="aq" transform="translate(-52)"><path id="ar" d="m158.55 71.42-21.501 33.6h21.501v-33.6m-2.2344-7.4199h10.708v41.02h8.9798v7.0826h-8.9798v14.84h-8.4739v-14.84h-28.415v-8.2209l26.18-39.882" fill="#fff" filter="url(#j)"/><path id="as" d="m158.55 71.42-21.501 33.6h21.501v-33.6m-2.2344-7.4199h10.708v41.02h8.9798v7.0826h-8.9798v14.84h-8.4739v-14.84h-28.415v-8.2209l26.18-39.882" fill="url(#h)"/></g></g></svg>
