<?xml version="1.0" encoding="UTF-8"?>
<svg id="n" version="1.0" viewBox="0 0 128 128" xmlns="http://www.w3.org/2000/svg" xmlns:xlink="http://www.w3.org/1999/xlink"><defs id="o"><linearGradient id="a"><stop id="p" stop-color="#006e29" offset="0"/><stop id="q" offset="1"/></linearGradient><linearGradient id="c"><stop id="r" stop-color="#fff" offset="0"/><stop id="s" stop-color="#fff" offset=".42597"/><stop id="t" stop-color="#f1f1f1" offset=".58928"/><stop id="u" stop-color="#eaeaea" offset=".8022"/><stop id="v" stop-color="#dfdfdf" offset="1"/></linearGradient><linearGradient id="k"><stop id="w" offset="0"/><stop id="x" stop-opacity="0" offset="1"/></linearGradient><filter id="m" x="-.15681" y="-.097891" width="1.3136" height="1.1958"><feGaussianBlur id="y" stdDeviation="1.7276001"/></filter><radialGradient id="f" cx="26.779" cy="25.178" r="13.221" gradientTransform="matrix(4.9707 .12221 -.08402 3.4175 -104.22 -64.139)" gradientUnits="userSpaceOnUse" xlink:href="#c"/><linearGradient id="b" x1="223.07" x2="317.97" y1="125.75" y2="-64.643" gradientTransform="matrix(1.0021 -.021519 -.015312 .99209 -191 5.2427)" gradientUnits="userSpaceOnUse" xlink:href="#k"/><radialGradient id="e" cx="115.5" cy="112" r="56" gradientTransform="matrix(3.1115 .016603 -.015699 2.9421 -242.12 -219.44)" gradientUnits="userSpaceOnUse" xlink:href="#c"/><radialGradient id="d" cx="37.75" cy="110.75" r="56" gradientTransform="matrix(1.5871 .10189 -.16424 2.5584 -3.9731 -176.44)" gradientUnits="userSpaceOnUse"><stop id="z" offset="0"/><stop id="aa" stop-color="#fff" offset="1"/></radialGradient><linearGradient id="j" x1="66.864" x2="67.314" y1="71.08" y2="18.495" gradientUnits="userSpaceOnUse" xlink:href="#a"/><linearGradient id="i" x1="67.405" x2="70.917" y1="62.295" y2="43.166" gradientUnits="userSpaceOnUse" xlink:href="#a"/><linearGradient id="h" x1="28.465" x2="33.96" y1="63.97" y2="42.069" gradientUnits="userSpaceOnUse" xlink:href="#a"/><linearGradient id="g" x1="25.344" x2="31.999" y1="25.372" y2="2.8249" gradientUnits="userSpaceOnUse" xlink:href="#a"/><filter id="l" x="-.28311" y="-.16894" width="1.5662" height="1.3379"><feGaussianBlur id="ab" stdDeviation="1.2538343"/></filter></defs><g id="ac"><rect id="ad" x="459.76" y="47.747" width="1" height="0" fill="#fff" fill-rule="nonzero" opacity=".57787"/><path id="ae" d="m300.82-25.469v-2.7947 2.7947z" fill="#fff" fill-opacity=".75688" fill-rule="nonzero"/><path id="af" d="m137.5 106.49-1.5034 113.51 94.157-1.5797-3.7385-111.99-88.915 0.06413z" fill="#fff" fill-rule="nonzero"/><path id="ag" d="m-155.38-11.163v-2.7947 2.7947z" fill="#fff" fill-opacity=".75688" fill-rule="nonzero"/><path id="ah" d="m311.36-139.38v-2.7947 2.7947z" fill="#fff" fill-opacity=".75688" fill-rule="nonzero"/><path id="ai" d="m115.25-352.64v-2.7947 2.7947z" fill="#fff" fill-opacity=".75688" fill-rule="nonzero"/><path id="aj" d="m93.989-278.63v-1.0532 1.0532z" fill="#fff" fill-opacity=".75688" fill-rule="nonzero"/><g id="ak" transform="matrix(.95651 0 0 .95651 -2.4437 -2.7815)"><path id="al" d="m8 8v112h112v-112h-112z" fill="none" stroke="url(#b)" stroke-dashoffset="4" stroke-linecap="round" stroke-linejoin="round" stroke-miterlimit="4" stroke-opacity=".11789" stroke-width="10.184"/><path id="am" d="m8 8v112h112v-112h-112z" fill="none" stroke="url(#b)" stroke-dashoffset="4" stroke-linecap="round" stroke-linejoin="round" stroke-miterlimit="4" stroke-opacity=".11789" stroke-width="5.092"/><path id="an" d="m8 8v112h112v-112h-112z" fill="none" stroke="url(#b)" stroke-dashoffset="4" stroke-linecap="round" stroke-linejoin="round" stroke-miterlimit="4" stroke-opacity=".11789" stroke-width="7.638"/><path id="ao" d="m8 8v112h112v-112h-112z" fill="none" stroke="url(#b)" stroke-dashoffset="4" stroke-linecap="round" stroke-linejoin="round" stroke-miterlimit="4" stroke-opacity=".11789" stroke-width="2.546"/><path id="ap" d="m8 8v112h112v-112h-112z" fill="url(#e)" fill-rule="nonzero" stroke="#fff" stroke-dashoffset="4" stroke-linecap="round" stroke-linejoin="round" stroke-miterlimit="4" stroke-width="1.0455"/><path id="aq" d="m44 8v36h-36v4h36v36h-36v4h36v32h4v-32h36v32h4v-32h32v-4h-32v-36h32v-4h-32v-36h-4v36h-36v-36h-4zm4 40h36v36h-36v-36z" fill="url(#d)" fill-rule="nonzero"/><path id="ar" d="m65.062 58.636-3.9609 0.89062v-2.1562l3.9375-0.86719h2.3672l-0.031903 17.496h-2.0909" fill="url(#i)"/><path id="as" d="m23.96 32.748h8.0391v1.9922h-10.629v-1.9922c1.4609-1.5391 2.7383-2.8984 3.832-4.0781 1.0937-1.1797 1.8476-2.0117 2.2617-2.4961 0.78124-0.95312 1.3086-1.7226 1.582-2.3086 0.27343-0.59374 0.41015-1.1992 0.41016-1.8164-1e-5 -0.97655-0.28907-1.7422-0.86719-2.2969-0.57032-0.55467-1.3555-0.83202-2.3555-0.83203-0.71094 1.6e-5 -1.457 0.12892-2.2383 0.38672-0.78125 0.25783-1.6094 0.64845-2.4844 1.1719v-2.3906c0.80468-0.3828 1.5937-0.67186 2.3672-0.86719 0.78124-0.19529 1.5508-0.29295 2.3086-0.29297 1.7109 1.7e-5 3.0859 0.45705 4.125 1.3711 1.0469 0.90627 1.5703 2.0977 1.5703 3.5742-1.3e-5 0.75001-0.17579 1.5-0.52734 2.25-0.34376 0.75001-0.90626 1.5781-1.6875 2.4844-0.43751 0.50782-1.0742 1.2109-1.9102 2.1094-0.82813 0.89844-2.0938 2.2422-3.7969 4.0312" fill="#fff" filter="url(#l)"/><path id="at" d="m23.96 32.748h8.0391v1.9922h-10.629v-1.9922c1.4609-1.5391 2.7383-2.8984 3.832-4.0781 1.0937-1.1797 1.8476-2.0117 2.2617-2.4961 0.78124-0.95312 1.3086-1.7226 1.582-2.3086 0.27343-0.59374 0.41015-1.1992 0.41016-1.8164-1e-5 -0.97655-0.28907-1.7422-0.86719-2.2969-0.57032-0.55467-1.3555-0.83202-2.3555-0.83203-0.71094 1.6e-5 -1.457 0.12892-2.2383 0.38672-0.78125 0.25783-1.6094 0.64845-2.4844 1.1719v-2.3906c0.80468-0.3828 1.5937-0.67186 2.3672-0.86719 0.78124-0.19529 1.5508-0.29295 2.3086-0.29297 1.7109 1.7e-5 3.0859 0.45705 4.125 1.3711 1.0469 0.90627 1.5703 2.0977 1.5703 3.5742-1.3e-5 0.75001-0.17579 1.5-0.52734 2.25-0.34376 0.75001-0.90626 1.5781-1.6875 2.4844-0.43751 0.50782-1.0742 1.2109-1.9102 2.1094-0.82813 0.89844-2.0938 2.2422-3.7969 4.0312" fill="url(#g)"/><path id="au" d="m28.376 64.636c1.1484 0.3047 2.0273 0.84766 2.6367 1.6289 0.60936 0.77344 0.91405 1.7422 0.91406 2.9062-1.3e-5 1.6094-0.54298 2.875-1.6289 3.7969-1.0781 0.91406-2.5742 1.3711-4.4883 1.3711-0.80469-1e-6 -1.625-0.07422-2.4609-0.22266-0.83594-0.14844-1.6563-0.36328-2.4609-0.64453v-2.3555c0.79687 0.41406 1.582 0.72266 2.3555 0.92578 0.77343 0.20313 1.543 0.30469 2.3086 0.30469 1.2969 2e-6 2.293-0.29297 2.9883-0.87891 0.6953-0.58594 1.043-1.4297 1.043-2.5312-1e-5 -1.0156-0.34767-1.8203-1.043-2.4141-0.69532-0.60155-1.6367-0.90234-2.8242-0.90234h-1.8047v-1.9453h1.8047c1.0859 1e-5 1.9336-0.23827 2.543-0.71484 0.60937-0.47655 0.91405-1.1406 0.91406-1.9922-1e-5 -0.89842-0.28517-1.5859-0.85547-2.0625-0.56251-0.48436-1.3672-0.72655-2.4141-0.72656-0.69532 1.6e-5 -1.4141 0.078141-2.1562 0.23438-0.74219 0.15627-1.5195 0.39064-2.332 0.70312v-2.1797c0.94531-0.24998 1.7852-0.43748 2.5195-0.5625 0.74218-0.12498 1.3984-0.18748 1.9688-0.1875 1.7031 1.8e-5 3.0625 0.4297 4.0781 1.2891 1.0234 0.85158 1.5351 1.9844 1.5352 3.3984-1.3e-5 0.96095-0.26954 1.7617-0.80859 2.4023-0.53126 0.64064-1.3086 1.0938-2.332 1.3594" fill="url(#h)"/></g><g id="av" transform="matrix(1.3167 0 0 1.3167 16.95 11.331)"><path id="aw" transform="matrix(1.1852 0 0 1.1333 35.93 35.467)" d="m26.383 27.461c2.3515 1.8e-5 4.1927-0.84764 5.5234-2.543 1.3489-1.6953 2.0234-4.0377 2.0234-7.0273-2.3e-5 -2.9896-0.6745-5.332-2.0234-7.0273-1.3308-1.6953-3.1719-2.5429-5.5234-2.543-2.4427 3.72e-5 -4.2839 0.81123-5.5234 2.4336-1.2396 1.6042-1.8594 3.9831-1.8594 7.1367-9e-6 3.1719 0.61067 5.5599 1.832 7.1641 1.2396 1.6042 3.0898 2.4063 5.5508 2.4062m-9.8438 17.254v-5.0859c1.1484 0.67448 2.3698 1.194 3.6641 1.5586 1.2943 0.34636 2.6432 0.51954 4.0469 0.51953 3.5 4e-6 6.1432-1.3125 7.9297-3.9375 1.8047-2.6432 2.707-6.526 2.707-11.648-0.8568 1.8229-2.0599 3.2266-3.6094 4.2109-1.5495 0.96616-3.3268 1.4492-5.332 1.4492-3.9375 1.4e-5 -6.9909-1.2122-9.1602-3.6367-2.151-2.4245-3.2266-5.8607-3.2266-10.309-4e-6 -4.3932 1.1029-7.7929 3.3086-10.199 2.224-2.4244 5.3594-3.6367 9.4062-3.6367 4.7396 4.16e-5 8.2122 1.7045 10.418 5.1133 2.2057 3.4089 3.3086 8.7683 3.3086 16.078-3e-5 6.8724-1.3308 12.122-3.9922 15.75-2.6433 3.6094-6.4896 5.4141-11.539 5.4141-1.3307-1e-6 -2.6706-0.14583-4.0195-0.4375-1.349-0.27344-2.6524-0.67448-3.9102-1.2031" fill="url(#f)" filter="url(#m)"/><path id="ax" transform="scale(1.0227 .97784)" d="m65.71 68.097c2.7253 2.1e-5 4.8591-0.98237 6.4014-2.9472 1.5634-1.9648 2.345-4.6795 2.3451-8.1444-2.8e-5 -3.4647-0.78172-6.1795-2.3451-8.1443-1.5423-1.9647-3.6761-2.9471-6.4014-2.9472-2.831 4.3e-5 -4.9648 0.94018-6.4014 2.8204-1.4366 1.8592-2.1549 4.6162-2.1549 8.2711-1e-5 3.6761 0.70773 6.4437 2.1232 8.3028 1.4366 1.8592 3.581 2.7887 6.4331 2.7887m-11.408 19.996v-5.8944c1.331 0.7817 2.7465 1.3838 4.2465 1.8063 1.5 0.40141 3.0634 0.60212 4.6901 0.60211 4.0563 4e-6 7.1197-1.5211 9.1901-4.5634 2.0915-3.0634 3.1373-7.5633 3.1373-13.5-0.99298 2.1127-2.3873 3.7394-4.1831 4.8803-1.7958 1.1197-3.8556 1.6796-6.1796 1.6796-4.5634 1.6e-5 -8.1021-1.4049-10.616-4.2148-2.493-2.8098-3.7394-6.7922-3.7394-11.947-4e-6 -5.0915 1.2782-9.0316 3.8345-11.82 2.5774-2.8098 6.2112-4.2147 10.901-4.2148 5.4929 4.8e-5 9.5176 1.9754 12.074 5.926 2.5563 3.9507 3.8345 10.162 3.8345 18.634-3.4e-5 7.9648-1.5423 14.049-4.6268 18.253-3.0634 4.1831-7.5211 6.2746-13.373 6.2746-1.5423-1e-6 -3.0951-0.16902-4.6584-0.50704-1.5634-0.3169-3.0739-0.78169-4.5317-1.3944" fill="url(#j)"/></g></g></svg>
