<?xml version="1.0" encoding="UTF-8"?>
<svg id="f" version="1.0" viewBox="0 0 128 128" xmlns="http://www.w3.org/2000/svg" xmlns:xlink="http://www.w3.org/1999/xlink"><defs id="g"><filter id="e" x="-.15681" y="-.097891" width="1.3136" height="1.1958"><feGaussianBlur id="h" stdDeviation="1.7276001"/></filter><filter id="d" x="-.28311" y="-.16894" width="1.5662" height="1.3379"><feGaussianBlur id="i" stdDeviation="1.2538343"/></filter><radialGradient id="b" cx="37.75" cy="110.75" r="56" gradientTransform="matrix(1.5181 .097456 -.1571 2.4471 -6.244 -171.55)" gradientUnits="userSpaceOnUse"><stop id="j" offset="0"/><stop id="k" stop-color="#fff" offset="1"/></radialGradient><linearGradient id="a" x1="223.07" x2="317.97" y1="125.75" y2="-64.643" gradientTransform="matrix(.9585 -.020583 -.014646 .94895 -185.13 2.2332)" gradientUnits="userSpaceOnUse"><stop id="l" offset="0"/><stop id="m" stop-opacity="0" offset="1"/></linearGradient><radialGradient id="c" cx="106.27" cy="104.44" r="54.065" gradientTransform="matrix(2.193 -.014347 .011866 1.8138 -128.02 -83.467)" gradientUnits="userSpaceOnUse"><stop id="n" stop-color="#fff" offset="0"/><stop id="o" stop-color="#fff" offset=".42597"/><stop id="p" stop-color="#f1f1f1" offset=".58928"/><stop id="q" stop-color="#eaeaea" offset=".8022"/><stop id="r" stop-color="#dfdfdf" offset="1"/></radialGradient></defs><g id="s"><rect id="t" x="459.76" y="47.747" width="1" height="0" fill="#fff" fill-rule="nonzero" opacity=".57787"/><path id="u" d="m300.82-25.469v-2.7947 2.7947z" fill="#fff" fill-opacity=".75688" fill-rule="nonzero"/><path id="v" d="m-155.38-11.163v-2.7947 2.7947z" fill="#fff" fill-opacity=".75688" fill-rule="nonzero"/><path id="w" d="m311.36-139.38v-2.7947 2.7947z" fill="#fff" fill-opacity=".75688" fill-rule="nonzero"/><path id="x" d="m115.25-352.64v-2.7947 2.7947z" fill="#fff" fill-opacity=".75688" fill-rule="nonzero"/><path id="y" d="m93.989-278.63v-1.0532 1.0532z" fill="#fff" fill-opacity=".75688" fill-rule="nonzero"/><path id="z" d="m5.2084 4.8706v36.782l36-0.60882v38.782l-36-0.60882v32.782h36.782l-0.60882-32h38.782l-0.60882 32h32.782v-32.782l-32 0.60882v-38.782l32 0.60882v-36.782h-32.782l0.60882 36h-38.782l0.60882-36h-36.782z" fill="none" stroke="url(#a)" stroke-dashoffset="4" stroke-linecap="round" stroke-linejoin="round" stroke-miterlimit="4" stroke-opacity=".11789" stroke-width="9.7411"/><path id="aa" d="m39.643 4.8706v34.434h-34.434v3.8261h34.434v34.434h-34.434v3.8261h34.434v30.608h3.8261v-30.608h34.434v30.608h3.8261v-30.608h30.608v-3.8261h-30.608v-34.434h30.608v-3.8261h-30.608v-34.434h-3.8261v34.434h-34.434v-34.434h-3.8261zm3.8261 38.261h34.434v34.434h-34.434v-34.434z" fill="url(#b)" fill-rule="nonzero"/><path id="ab" d="m5.2084 4.8706v36.782l36-0.60882v38.782l-36-0.60882v32.782h36.782l-0.60882-32h38.782l-0.60882 32h32.782v-32.782l-32 0.60882v-38.782l32 0.60882v-36.782h-32.782l0.60882 36h-38.782l0.60882-36h-36.782z" fill="none" stroke="url(#a)" stroke-dashoffset="4" stroke-linecap="round" stroke-linejoin="round" stroke-miterlimit="4" stroke-opacity=".11789" stroke-width="7.306"/><path id="ac" d="m5.2084 4.8706v36.782l36-0.60882v38.782l-36-0.60882v32.782h36.782l-0.60882-32h38.782l-0.60882 32h32.782v-32.782l-32 0.60882v-38.782l32 0.60882v-36.782h-32.782l0.60882 36h-38.782l0.60882-36h-36.782z" fill="none" stroke="url(#a)" stroke-dashoffset="4" stroke-linecap="round" stroke-linejoin="round" stroke-miterlimit="4" stroke-opacity=".11789" stroke-width="4.871"/><path id="ad" d="m5.2084 4.8706v36.782l36-0.60882v38.782l-36-0.60882v32.782h36.782l-0.60882-32h38.782l-0.60882 32h32.782v-32.782l-32 0.60882v-38.782l32 0.60882v-36.782h-32.782l0.60882 36h-38.782l0.60882-36h-36.782z" fill="none" stroke="url(#a)" stroke-dashoffset="4" stroke-linecap="round" stroke-linejoin="round" stroke-miterlimit="4" stroke-opacity=".11789" stroke-width="2.435"/><path id="ae" d="m5.2084 4.8706v36.782l36-0.60882v38.782l-36-0.60882v32.782h36.782l-0.60882-32h38.782l-0.60882 32h32.782v-32.782l-32 0.60882v-38.782l32 0.60882v-36.782h-32.782l0.60882 36h-38.782l0.60882-36h-36.782z" fill="url(#c)" fill-rule="nonzero" stroke="#fff" stroke-dashoffset="4" stroke-linecap="round" stroke-linejoin="round" stroke-miterlimit="4" stroke-width="1"/><path id="af" d="m59.789 53.305-3.7887 0.85189v-2.0625l3.7663-0.82948h2.2642l-0.030516 16.735h-2" fill="#8c0000"/><path id="ag" d="m24.604 94.719c1.0985 0.29145 1.9392 0.8108 2.5221 1.5581 0.58286 0.73981 0.8743 1.6664 0.87431 2.7799-1.2e-5 1.5394-0.51937 2.75-1.5581 3.6318-1.0312 0.87431-2.4623 1.3115-4.2931 1.3115-0.7697 0-1.5543-0.07099-2.3539-0.21298-0.79959-0.14198-1.5842-0.34748-2.3539-0.6165v-2.253c0.76222 0.39606 1.5132 0.69123 2.253 0.88552 0.7398 0.19429 1.4759 0.29144 2.2082 0.29144 1.2405 0 2.1932-0.28023 2.8583-0.84069 0.66507-0.56045 0.9976-1.3675 0.99761-2.4212-1e-5 -0.97145-0.33255-1.7411-0.99761-2.3091-0.66508-0.57539-1.5655-0.8631-2.7014-0.8631h-1.7262v-1.8607h1.7262c1.0387 9e-6 1.8495-0.22791 2.4324-0.68376 0.58287-0.45583 0.8743-1.091 0.87431-1.9056-9e-6 -0.85935-0.27276-1.517-0.81827-1.9728-0.53805-0.4633-1.3077-0.69495-2.3091-0.69497-0.66508 1.5e-5 -1.3526 0.074742-2.0625 0.22418-0.70992 0.14947-1.4535 0.37365-2.2306 0.67255v-2.0849c0.9042-0.23911 1.7075-0.41846 2.41-0.53804 0.70991-0.11955 1.3376-0.17933 1.8831-0.17935 1.6291 1.7e-5 2.9293 0.41102 3.9008 1.233 0.97892 0.81454 1.4684 1.8981 1.4684 3.2506-1.2e-5 0.91916-0.25782 1.6851-0.77343 2.2979-0.50816 0.61278-1.2517 1.0462-2.2306 1.3003" fill="#8c0000"/><path id="ah" transform="matrix(.95651 0 0 .95651 -2.4437 -2.7815)" d="m23.96 32.748h8.0391v1.9922h-10.629v-1.9922c1.4609-1.5391 2.7383-2.8984 3.832-4.0781 1.0937-1.1797 1.8476-2.0117 2.2617-2.4961 0.78124-0.95312 1.3086-1.7226 1.582-2.3086 0.27343-0.59374 0.41015-1.1992 0.41016-1.8164-1e-5 -0.97655-0.28907-1.7422-0.86719-2.2969-0.57032-0.55467-1.3555-0.83202-2.3555-0.83203-0.71094 1.6e-5 -1.457 0.12892-2.2383 0.38672-0.78125 0.25783-1.6094 0.64845-2.4844 1.1719v-2.3906c0.80468-0.3828 1.5937-0.67186 2.3672-0.86719 0.78124-0.19529 1.5508-0.29295 2.3086-0.29297 1.7109 1.7e-5 3.0859 0.45705 4.125 1.3711 1.0469 0.90627 1.5703 2.0977 1.5703 3.5742-1.3e-5 0.75001-0.17579 1.5-0.52734 2.25-0.34376 0.75001-0.90626 1.5781-1.6875 2.4844-0.43751 0.50782-1.0742 1.2109-1.9102 2.1094-0.82813 0.89844-2.0938 2.2422-3.7969 4.0312" fill="#fff" filter="url(#d)"/><path id="ai" d="m20.474 28.543h7.6895v1.9056h-10.167v-1.9056c1.3974-1.4721 2.6192-2.7724 3.6654-3.9008 1.0462-1.1284 1.7673-1.9242 2.1634-2.3875 0.74727-0.91167 1.2517-1.6477 1.5132-2.2082 0.26154-0.56792 0.39231-1.1471 0.39232-1.7374-1e-5 -0.93408-0.2765-1.6664-0.82948-2.197-0.54552-0.53055-1.2965-0.79583-2.253-0.79585-0.68003 1.5e-5 -1.3937 0.12332-2.1409 0.3699-0.74728 0.24662-1.5394 0.62025-2.3763 1.1209v-2.2867c0.76969-0.36615 1.5244-0.64264 2.2642-0.82948 0.74727-0.1868 1.4833-0.28021 2.2082-0.28023 1.6365 1.7e-5 2.9517 0.43717 3.9456 1.3115 1.0013 0.86686 1.502 2.0064 1.502 3.4188-1.2e-5 0.7174-0.16815 1.4348-0.50441 2.1522-0.32881 0.71739-0.86685 1.5095-1.6141 2.3763-0.41848 0.48574-1.0275 1.1583-1.8271 2.0176-0.79212 0.85937-2.0027 2.1447-3.6318 3.8559" fill="#8c0000"/><g id="aj" transform="matrix(1.3167 0 0 1.3167 16.95 11.331)" fill="#8c0000"><path id="ak" transform="matrix(1.1852 0 0 1.1333 35.93 35.467)" d="m26.383 27.461c2.3515 1.8e-5 4.1927-0.84764 5.5234-2.543 1.3489-1.6953 2.0234-4.0377 2.0234-7.0273-2.3e-5 -2.9896-0.6745-5.332-2.0234-7.0273-1.3308-1.6953-3.1719-2.5429-5.5234-2.543-2.4427 3.72e-5 -4.2839 0.81123-5.5234 2.4336-1.2396 1.6042-1.8594 3.9831-1.8594 7.1367-9e-6 3.1719 0.61067 5.5599 1.832 7.1641 1.2396 1.6042 3.0898 2.4063 5.5508 2.4062m-9.8438 17.254v-5.0859c1.1484 0.67448 2.3698 1.194 3.6641 1.5586 1.2943 0.34636 2.6432 0.51954 4.0469 0.51953 3.5 4e-6 6.1432-1.3125 7.9297-3.9375 1.8047-2.6432 2.707-6.526 2.707-11.648-0.8568 1.8229-2.0599 3.2266-3.6094 4.2109-1.5495 0.96616-3.3268 1.4492-5.332 1.4492-3.9375 1.4e-5 -6.9909-1.2122-9.1602-3.6367-2.151-2.4245-3.2266-5.8607-3.2266-10.309-4e-6 -4.3932 1.1029-7.7929 3.3086-10.199 2.224-2.4244 5.3594-3.6367 9.4062-3.6367 4.7396 4.16e-5 8.2122 1.7045 10.418 5.1133 2.2057 3.4089 3.3086 8.7683 3.3086 16.078-3e-5 6.8724-1.3308 12.122-3.9922 15.75-2.6433 3.6094-6.4896 5.4141-11.539 5.4141-1.3307-1e-6 -2.6706-0.14583-4.0195-0.4375-1.349-0.27344-2.6524-0.67448-3.9102-1.2031" filter="url(#e)"/><path id="al" transform="scale(1.0227 .97784)" d="m65.71 68.097c2.7253 2.1e-5 4.8591-0.98237 6.4014-2.9472 1.5634-1.9648 2.345-4.6795 2.3451-8.1444-2.8e-5 -3.4647-0.78172-6.1795-2.3451-8.1443-1.5423-1.9647-3.6761-2.9471-6.4014-2.9472-2.831 4.3e-5 -4.9648 0.94018-6.4014 2.8204-1.4366 1.8592-2.1549 4.6162-2.1549 8.2711-1e-5 3.6761 0.70773 6.4437 2.1232 8.3028 1.4366 1.8592 3.581 2.7887 6.4331 2.7887m-11.408 19.996v-5.8944c1.331 0.7817 2.7465 1.3838 4.2465 1.8063 1.5 0.40141 3.0634 0.60212 4.6901 0.60211 4.0563 4e-6 7.1197-1.5211 9.1901-4.5634 2.0915-3.0634 3.1373-7.5633 3.1373-13.5-0.99298 2.1127-2.3873 3.7394-4.1831 4.8803-1.7958 1.1197-3.8556 1.6796-6.1796 1.6796-4.5634 1.6e-5 -8.1021-1.4049-10.616-4.2148-2.493-2.8098-3.7394-6.7922-3.7394-11.947-4e-6 -5.0915 1.2782-9.0316 3.8345-11.82 2.5774-2.8098 6.2112-4.2147 10.901-4.2148 5.4929 4.8e-5 9.5176 1.9754 12.074 5.926 2.5563 3.9507 3.8345 10.162 3.8345 18.634-3.4e-5 7.9648-1.5423 14.049-4.6268 18.253-3.0634 4.1831-7.5211 6.2746-13.373 6.2746-1.5423-1e-6 -3.0951-0.16902-4.6584-0.50704-1.5634-0.3169-3.0739-0.78169-4.5317-1.3944"/></g></g></svg>
