<?xml version="1.0" encoding="UTF-8"?>
<svg id="l" version="1.0" viewBox="0 0 128 128" xmlns="http://www.w3.org/2000/svg" xmlns:xlink="http://www.w3.org/1999/xlink"><defs id="m"><linearGradient id="a"><stop id="n" stop-color="#00316e" offset="0"/><stop id="o" offset="1"/></linearGradient><linearGradient id="i"><stop id="p" offset="0"/><stop id="q" stop-opacity="0" offset="1"/></linearGradient><linearGradient id="b" x1="223.07" x2="317.97" y1="125.75" y2="-64.643" gradientTransform="matrix(1.0021 -.021519 -.015312 .99209 -191 5.2427)" gradientUnits="userSpaceOnUse" xlink:href="#i"/><radialGradient id="d" cx="115.5" cy="112" r="56" gradientTransform="matrix(3.1115 .016603 -.015699 2.9421 -242.12 -219.44)" gradientUnits="userSpaceOnUse"><stop id="r" stop-color="#fff" offset="0"/><stop id="s" stop-color="#fff" offset=".42597"/><stop id="t" stop-color="#f1f1f1" offset=".58928"/><stop id="u" stop-color="#eaeaea" offset=".8022"/><stop id="v" stop-color="#dfdfdf" offset="1"/></radialGradient><radialGradient id="c" cx="37.75" cy="110.75" r="56" gradientTransform="matrix(1.5181 .097456 -.1571 2.4471 -6.244 -171.55)" gradientUnits="userSpaceOnUse"><stop id="w" offset="0"/><stop id="x" stop-color="#fff" offset="1"/></radialGradient><linearGradient id="h" x1="67.405" x2="70.917" y1="62.295" y2="43.166" gradientTransform="translate(29.273 -32.686)" gradientUnits="userSpaceOnUse" xlink:href="#a"/><linearGradient id="g" x1="28.465" x2="33.96" y1="63.97" y2="42.069" gradientTransform="translate(10.94 26.176)" gradientUnits="userSpaceOnUse" xlink:href="#a"/><linearGradient id="f" x1="25.344" x2="31.999" y1="25.372" y2="2.8249" gradientTransform="translate(10.458 6.8893)" gradientUnits="userSpaceOnUse" xlink:href="#a"/><filter id="k" x="-.28311" y="-.16894" width="1.5662" height="1.3379"><feGaussianBlur id="y" stdDeviation="1.2538343"/></filter><filter id="j" x="-.11327" y="-.079969" width="1.2265" height="1.1599"><feGaussianBlur id="z" stdDeviation="2.2023082"/></filter><linearGradient id="e" x1="50.798" x2="60.841" y1="108.96" y2="46.022" gradientTransform="matrix(.98428 0 0 1.016 15.958 5.3444e-6)" gradientUnits="userSpaceOnUse" xlink:href="#a"/></defs><g id="aa"><rect id="ab" x="459.76" y="47.747" width="1" height="0" fill="#fff" fill-rule="nonzero" opacity=".57787"/><path id="ac" d="m300.82-25.469v-2.7947 2.7947z" fill="#fff" fill-opacity=".75688" fill-rule="nonzero"/><path id="ad" d="m137.5 106.49-1.5034 113.51 94.157-1.5797-3.7385-111.99-88.915 0.06413z" fill="#fff" fill-rule="nonzero"/><path id="ae" d="m-155.38-11.163v-2.7947 2.7947z" fill="#fff" fill-opacity=".75688" fill-rule="nonzero"/><path id="af" d="m311.36-139.38v-2.7947 2.7947z" fill="#fff" fill-opacity=".75688" fill-rule="nonzero"/><path id="ag" d="m115.25-352.64v-2.7947 2.7947z" fill="#fff" fill-opacity=".75688" fill-rule="nonzero"/><path id="ah" d="m93.989-278.63v-1.0532 1.0532z" fill="#fff" fill-opacity=".75688" fill-rule="nonzero"/><g id="ai" transform="matrix(.95651 0 0 .95651 -2.4437 -2.7815)"><path id="aj" d="m8 8v112h112v-112h-112z" fill="none" stroke="url(#b)" stroke-dashoffset="4" stroke-linecap="round" stroke-linejoin="round" stroke-miterlimit="4" stroke-opacity=".11789" stroke-width="10.184"/><path id="ak" d="m8 8v112h112v-112h-112z" fill="none" stroke="url(#b)" stroke-dashoffset="4" stroke-linecap="round" stroke-linejoin="round" stroke-miterlimit="4" stroke-opacity=".11789" stroke-width="5.092"/><path id="al" d="m8 8v112h112v-112h-112z" fill="none" stroke="url(#b)" stroke-dashoffset="4" stroke-linecap="round" stroke-linejoin="round" stroke-miterlimit="4" stroke-opacity=".11789" stroke-width="7.638"/><path id="am" d="m8 8v112h112v-112h-112z" fill="none" stroke="url(#b)" stroke-dashoffset="4" stroke-linecap="round" stroke-linejoin="round" stroke-miterlimit="4" stroke-opacity=".11789" stroke-width="2.546"/><path id="an" d="m8 8v112h112v-112h-112z" fill="url(#d)" fill-rule="nonzero" stroke="#fff" stroke-dashoffset="4" stroke-linecap="round" stroke-linejoin="round" stroke-miterlimit="4" stroke-width="1.0455"/><path id="ao" transform="matrix(1.0455 0 0 1.0455 2.5548 2.908)" d="m55.656 4.875v50.438h-50.438v5.8125h50.438v50.875h5.8125v-50.875h50.875v-5.8125h-50.875v-50.438h-5.8125z" fill="url(#c)" fill-rule="nonzero"/><path id="ap" d="m94.335 25.95-3.9609 0.89062v-2.1562l3.9375-0.86719h2.3672l-0.031903 17.496h-2.0909" fill="url(#h)"/><path id="aq" d="m34.418 39.638h8.0391v1.9922h-10.629v-1.9922c1.4609-1.5391 2.7383-2.8984 3.832-4.0781 1.0937-1.1797 1.8476-2.0117 2.2617-2.4961 0.78124-0.95312 1.3086-1.7226 1.582-2.3086 0.27343-0.59374 0.41015-1.1992 0.41016-1.8164-1e-5 -0.97655-0.28907-1.7422-0.86719-2.2969-0.57032-0.55467-1.3555-0.83202-2.3555-0.83203-0.71094 1.6e-5 -1.457 0.12892-2.2383 0.38672-0.78125 0.25783-1.6094 0.64845-2.4844 1.1719v-2.3906c0.80468-0.3828 1.5937-0.67186 2.3672-0.86719 0.78124-0.19529 1.5508-0.29295 2.3086-0.29297 1.7109 1.7e-5 3.0859 0.45705 4.125 1.3711 1.0469 0.90627 1.5703 2.0977 1.5703 3.5742-1.3e-5 0.75001-0.17579 1.5-0.52734 2.25-0.34376 0.75001-0.90626 1.5781-1.6875 2.4844-0.43751 0.50782-1.0742 1.2109-1.9102 2.1094-0.82813 0.89844-2.0938 2.2422-3.7969 4.0312" fill="#fff" filter="url(#k)"/><path id="ar" d="m34.418 39.638h8.0391v1.9922h-10.629v-1.9922c1.4609-1.5391 2.7383-2.8984 3.832-4.0781 1.0937-1.1797 1.8476-2.0117 2.2617-2.4961 0.78124-0.95312 1.3086-1.7226 1.582-2.3086 0.27343-0.59374 0.41015-1.1992 0.41016-1.8164-1e-5 -0.97655-0.28907-1.7422-0.86719-2.2969-0.57032-0.55467-1.3555-0.83202-2.3555-0.83203-0.71094 1.6e-5 -1.457 0.12892-2.2383 0.38672-0.78125 0.25783-1.6094 0.64845-2.4844 1.1719v-2.3906c0.80468-0.3828 1.5937-0.67186 2.3672-0.86719 0.78124-0.19529 1.5508-0.29295 2.3086-0.29297 1.7109 1.7e-5 3.0859 0.45705 4.125 1.3711 1.0469 0.90627 1.5703 2.0977 1.5703 3.5742-1.3e-5 0.75001-0.17579 1.5-0.52734 2.25-0.34376 0.75001-0.90626 1.5781-1.6875 2.4844-0.43751 0.50782-1.0742 1.2109-1.9102 2.1094-0.82813 0.89844-2.0938 2.2422-3.7969 4.0312" fill="url(#f)"/><path id="as" d="m39.316 90.813c1.1484 0.3047 2.0273 0.84766 2.6367 1.6289 0.60936 0.77344 0.91405 1.7422 0.91406 2.9062-1.3e-5 1.6094-0.54298 2.875-1.6289 3.7969-1.0781 0.91406-2.5742 1.3711-4.4883 1.3711-0.80469 0-1.625-0.07422-2.4609-0.22265-0.83594-0.14844-1.6563-0.36329-2.4609-0.64454v-2.3555c0.79687 0.41406 1.582 0.72266 2.3555 0.92578 0.77343 0.20313 1.543 0.30469 2.3086 0.30469 1.2969 2e-6 2.293-0.29297 2.9883-0.87891 0.6953-0.58594 1.043-1.4297 1.043-2.5312-1e-5 -1.0156-0.34767-1.8203-1.043-2.4141-0.69532-0.60155-1.6367-0.90234-2.8242-0.90234h-1.8047v-1.9453h1.8047c1.0859 1e-5 1.9336-0.23827 2.543-0.71484 0.60937-0.47655 0.91405-1.1406 0.91406-1.9922-1e-5 -0.89842-0.28517-1.5859-0.85547-2.0625-0.56251-0.48436-1.3672-0.72655-2.4141-0.72656-0.69532 1.6e-5 -1.4141 0.078141-2.1562 0.23438-0.74219 0.15627-1.5195 0.39064-2.332 0.70312v-2.1797c0.94531-0.24998 1.7852-0.43748 2.5195-0.5625 0.74218-0.12498 1.3984-0.18748 1.9688-0.1875 1.7031 1.8e-5 3.0625 0.4297 4.0781 1.2891 1.0234 0.85158 1.5351 1.9844 1.5352 3.3984-1.3e-5 0.96095-0.26954 1.7617-0.80859 2.4023-0.53126 0.64064-1.3086 1.0938-2.332 1.3594" fill="url(#g)"/><g id="at" transform="translate(46 -4.1819)"><path id="au" d="m68.436 78.424-21.873 35.283h21.873v-35.283m-2.2731-7.7915h10.894v43.075h9.1353v7.4374h-9.1353v15.583h-8.6207v-15.583h-28.907v-8.6327l26.634-41.879" fill="#fff" filter="url(#j)"/><path id="av" d="m68.436 78.424-21.873 35.283h21.873v-35.283m-2.2731-7.7915h10.894v43.075h9.1353v7.4374h-9.1353v15.583h-8.6207v-15.583h-28.907v-8.6327l26.634-41.879" fill="url(#e)"/></g></g></g></svg>
