<?xml version="1.0" encoding="UTF-8"?>
<svg id="ap" version="1.0" viewBox="0 0 128 128" xmlns="http://www.w3.org/2000/svg" xmlns:xlink="http://www.w3.org/1999/xlink"><defs id="aq"><linearGradient id="d"><stop id="ar" offset="0"/><stop id="as" stop-opacity="0" offset="1"/></linearGradient><linearGradient id="c"><stop id="at" offset="0"/><stop id="au" stop-color="#fff" offset="1"/></linearGradient><linearGradient id="b"><stop id="av" stop-color="#fff" offset="0"/><stop id="aw" stop-color="#fff" stop-opacity="0" offset="1"/></linearGradient><linearGradient id="a"><stop id="ax" stop-color="#fff" offset="0"/><stop id="ay" stop-color="#e9e9e9" offset=".5"/><stop id="az" stop-color="#d3d3d3" offset="1"/></linearGradient><linearGradient id="m" x1="27.5" x2="29" y1="80" y2="80" gradientTransform="matrix(1.1574 0 0 1.1574 6.2223 -19.195)" gradientUnits="userSpaceOnUse" xlink:href="#a"/><linearGradient id="l" x1="27.5" x2="29" y1="80" y2="80" gradientTransform="matrix(1.1574 0 0 1.1574 38.631 -19.195)" gradientUnits="userSpaceOnUse" xlink:href="#a"/><radialGradient id="k" cx="67.186" cy="69.247" r="40.043" gradientTransform="matrix(-1.9954 -.67179 1.533 -4.5532 108.15 395.07)" gradientUnits="userSpaceOnUse"><stop id="ba" stop-color="#fff" offset="0"/><stop id="bb" stop-color="#fff" stop-opacity="0" offset="1"/></radialGradient><linearGradient id="ao" x1="27.5" x2="29" y1="80" y2="80" gradientTransform="matrix(0 1.1574 -1.1574 0 147.72 26.813)" gradientUnits="userSpaceOnUse" xlink:href="#a"/><linearGradient id="an" x1="27.5" x2="29" y1="80" y2="80" gradientTransform="matrix(0 1.1574 -1.1574 0 147.72 56.907)" gradientUnits="userSpaceOnUse" xlink:href="#a"/><filter id="e"><feGaussianBlur id="bc" stdDeviation="1.416687"/></filter><linearGradient id="am" x1="108.14" x2="108.14" y1="69.543" y2="112.27" gradientUnits="userSpaceOnUse"><stop id="bd" stop-color="#fff" offset="0"/><stop id="be" stop-color="#9f9f9f" offset="1"/></linearGradient><radialGradient id="j" cx="53.613" cy="68.952" r="52.047" gradientTransform="matrix(1.4621 -.83584 .64019 1.1199 -77.97 12.86)" gradientUnits="userSpaceOnUse"><stop id="bf" stop-color="#fff" offset="0"/><stop id="bg" stop-color="#e9e9e9" offset=".5"/><stop id="bh" stop-color="#d3d3d3" stop-opacity="0" offset="1"/></radialGradient><radialGradient id="i" cx="28.731" cy="-3.0067" r="56.391" gradientTransform="matrix(1.6535 .0079196 -.0049935 1.0428 -22.417 26.329)" gradientUnits="userSpaceOnUse" xlink:href="#b"/><linearGradient id="al" x1="41.704" x2="10.025" y1="82.736" y2="82.736" gradientTransform="matrix(1.1574 0 0 1.1574 79.103 -35.756)" gradientUnits="userSpaceOnUse" xlink:href="#a"/><linearGradient id="ak" x1="41.704" x2="10.025" y1="82.736" y2="82.736" gradientTransform="matrix(1.1574 0 0 1.1574 79.103 -35.756)" gradientUnits="userSpaceOnUse" xlink:href="#b"/><linearGradient id="aj" x1="32.232" x2="9.091" y1="70.861" y2="70.045" gradientTransform="matrix(1.1574 0 0 1.1574 89.388 -54.319)" gradientUnits="userSpaceOnUse" xlink:href="#a"/><linearGradient id="ai" x1="32.232" x2="9.091" y1="70.861" y2="70.045" gradientTransform="matrix(1.1574 0 0 1.1574 89.388 -54.319)" gradientUnits="userSpaceOnUse" xlink:href="#b"/><linearGradient id="ah" x1="35.986" x2="24.757" y1="87.017" y2="86.038" gradientTransform="matrix(0 1.1574 -1.1574 0 166.68 -16.522)" gradientUnits="userSpaceOnUse"><stop id="bi" stop-color="#fff" offset="0"/><stop id="bj" stop-color="#e9e9e9" offset=".5"/><stop id="bk" stop-color="#d3d3d3" stop-opacity="0" offset="1"/></linearGradient><linearGradient id="ag" x1="35.986" x2="24.757" y1="87.017" y2="86.038" gradientTransform="matrix(0 1.1574 -1.1574 0 166.68 -16.522)" gradientUnits="userSpaceOnUse" xlink:href="#b"/><linearGradient id="af" x1="52.468" x2="23.941" y1="110.03" y2="109.86" gradientTransform="matrix(0 1.1574 -1.1574 0 183.51 -26.673)" gradientUnits="userSpaceOnUse" xlink:href="#a"/><linearGradient id="ae" x1="52.468" x2="23.941" y1="110.03" y2="109.86" gradientTransform="matrix(0 1.1574 -1.1574 0 183.51 -26.673)" gradientUnits="userSpaceOnUse" xlink:href="#b"/><linearGradient id="ad" x1="38.76" x2="17.577" y1="110.36" y2="85.059" gradientTransform="matrix(0 1.1574 -1.1574 0 199.41 -16.389)" gradientUnits="userSpaceOnUse" xlink:href="#a"/><linearGradient id="ac" x1="38.76" x2="17.577" y1="110.36" y2="85.059" gradientTransform="matrix(0 1.1574 -1.1574 0 199.41 -16.389)" gradientUnits="userSpaceOnUse" xlink:href="#b"/><linearGradient id="ab" x1="41.697" x2="10.233" y1="114.92" y2="92.402" gradientTransform="matrix(0 1.1574 -1.1574 0 228.79 16.046)" gradientUnits="userSpaceOnUse" xlink:href="#a"/><linearGradient id="aa" x1="41.697" x2="10.233" y1="114.92" y2="92.402" gradientTransform="matrix(0 1.1574 -1.1574 0 228.79 16.046)" gradientUnits="userSpaceOnUse" xlink:href="#b"/><linearGradient id="z" x1="45.94" x2="2.7266" y1="109.21" y2="83.264" gradientTransform="matrix(0 1.1574 -1.1574 0 228.66 47.032)" gradientUnits="userSpaceOnUse" xlink:href="#a"/><linearGradient id="y" x1="45.94" x2="2.7266" y1="109.21" y2="83.264" gradientTransform="matrix(0 1.1574 -1.1574 0 228.66 47.032)" gradientUnits="userSpaceOnUse" xlink:href="#b"/><linearGradient id="x" x1="42.35" x2="13.987" y1="115.41" y2="75.431" gradientTransform="matrix(0 1.1574 -1.1574 0 166.68 -16.522)" gradientUnits="userSpaceOnUse"><stop id="bl" stop-color="#fff" offset="0"/><stop id="bm" stop-color="#fff" stop-opacity="0" offset="1"/></linearGradient><linearGradient id="w" x1="42.35" x2="13.987" y1="115.41" y2="75.431" gradientTransform="matrix(0 1.1574 -1.1574 0 166.68 -16.522)" gradientUnits="userSpaceOnUse" xlink:href="#b"/><radialGradient id="h" cx="16.793" cy="38.042" r="43.919" gradientTransform="matrix(1.1323 1.9959 -1.3307 .75492 49.363 -30.19)" gradientUnits="userSpaceOnUse"><stop id="bn" stop-color="#393939" offset="0"/><stop id="bo" stop-color="#393939" stop-opacity="0" offset="1"/></radialGradient><linearGradient id="v" x1="24.572" x2="25.279" y1="64.891" y2="40.672" gradientTransform="matrix(1.0685 0 0 1.0685 -.1883 -8.5999)" gradientUnits="userSpaceOnUse" xlink:href="#c"/><linearGradient id="u" x1="23.274" x2="15.496" y1="58.354" y2="40.146" gradientTransform="matrix(1.0685 0 0 1.0685 -.1883 -8.5999)" gradientUnits="userSpaceOnUse" xlink:href="#d"/><linearGradient id="t" x1="24.572" x2="25.279" y1="64.891" y2="40.672" gradientTransform="matrix(.4523 .10024 -.46331 .35425 75.634 2.2277)" gradientUnits="userSpaceOnUse" xlink:href="#c"/><linearGradient id="s" x1="23.274" x2="15.496" y1="58.354" y2="40.146" gradientTransform="matrix(.4523 .10024 -.46331 .35425 75.634 2.2277)" gradientUnits="userSpaceOnUse" xlink:href="#d"/><linearGradient id="r" x1="81.46" x2="81.46" y1="63.91" y2="40.929" gradientTransform="matrix(1.0685 0 0 1.0685 -.1883 -8.5999)" gradientUnits="userSpaceOnUse" xlink:href="#c"/><linearGradient id="q" x1="81.46" x2="81.46" y1="63.91" y2="40.929" gradientTransform="matrix(1.0685 0 0 1.0685 -.1883 -8.5999)" gradientUnits="userSpaceOnUse" xlink:href="#d"/><linearGradient id="p" x1="23.61" x2="22.456" y1="118.96" y2="96.865" gradientTransform="matrix(1.0685 0 0 1.0685 -.1883 -8.5999)" gradientUnits="userSpaceOnUse" xlink:href="#c"/><linearGradient id="o" x1="81.46" x2="81.46" y1="63.91" y2="40.929" gradientTransform="matrix(.77637 .27822 -.082527 .23029 .53731 -25.394)" gradientUnits="userSpaceOnUse" xlink:href="#c"/><linearGradient id="n" x1="81.46" x2="81.46" y1="63.91" y2="40.929" gradientTransform="matrix(.77637 .27822 -.082527 .23029 .53731 -25.394)" gradientUnits="userSpaceOnUse" xlink:href="#d"/><radialGradient id="g" cx="28.731" cy="-3.0067" r="56.391" gradientTransform="matrix(1.6659 .0079196 -.0049563 1.0428 -22.773 26.329)" gradientUnits="userSpaceOnUse" xlink:href="#b"/><radialGradient id="f" cx="92.057" cy="58.827" r="9.1012" gradientTransform="matrix(2.7699 .70316 -1.6779 6.6096 -67.872 -418.18)" gradientUnits="userSpaceOnUse"><stop id="bp" stop-color="#fff" offset="0"/><stop id="bq" stop-color="#fff" stop-opacity="0" offset="1"/></radialGradient></defs><g id="br"><path id="bs" d="m50.893 3.2813v-2.7947 2.7947z" fill="#fff" fill-opacity=".75688" fill-rule="nonzero"/><path id="bt" d="m54.835 5.7351-46.298 21.368v92.704h92.704l17.094-46.298v-67.774h-63.5z" fill="none" stroke="#949494" stroke-linecap="round" stroke-linejoin="round" stroke-miterlimit="4" stroke-opacity=".21064" stroke-width="11.574"/><path id="bu" d="m54.835 5.7351-46.298 21.368v92.704h92.704l17.094-46.298v-67.774h-63.5z" fill="none" stroke="#949494" stroke-linecap="round" stroke-linejoin="round" stroke-miterlimit="4" stroke-opacity=".21064" stroke-width="4.6298"/><path id="bv" d="m54.835 5.7351-46.298 21.368v92.704h92.704l17.094-46.298v-67.774h-63.5z" fill="#000" fill-rule="nonzero" stroke="#949494" stroke-linecap="round" stroke-linejoin="round" stroke-miterlimit="4" stroke-opacity=".21064" stroke-width="8.1021"/><rect id="bw" x="8.5372" y="27.103" width="92.694" height="92.694" fill="url(#h)" fill-rule="nonzero" stroke="url(#k)" stroke-linecap="round" stroke-linejoin="round" stroke-miterlimit="4" stroke-width="1.1574"/><path id="bx" d="m38.631 119.7 0.17804-92.595" fill="url(#m)" fill-rule="evenodd" stroke="url(#m)" stroke-linejoin="miter" stroke-width="1.1574px"/><path id="by" d="m71.039 119.7 0.57872-92.595" fill="url(#l)" fill-rule="evenodd" stroke="url(#l)" stroke-linejoin="miter" stroke-width="1.1574px"/><path id="bz" d="m8.8266 59.222 91.8-0.039997" fill="url(#ao)" fill-rule="evenodd" stroke="url(#ao)" stroke-linejoin="miter" stroke-width="1.1574px"/><path id="ca" d="m8.8266 89.315 92.242 0.13678" fill="url(#an)" fill-rule="evenodd" stroke="url(#an)" stroke-linejoin="miter" stroke-width="1.1574px"/><path id="cb" d="m22.291 38.961-3.652 0.73244v-1.8718l3.6317-0.73244h2.0549l0.086793 15.188h-2.3026" fill="url(#v)" stroke="url(#u)" stroke-linejoin="miter" stroke-miterlimit="4" stroke-width=".53424"/><path id="cc" d="m25.672 103.55c0.98336 0.21024 1.7497 0.64767 2.2991 1.3123 0.5561 0.66462 0.83416 1.4852 0.83417 2.4618-1.2e-5 1.4988-0.51543 2.6585-1.5463 3.4791-1.0309 0.82061-2.4957 1.2309-4.3947 1.2309-0.6375 0-1.2953-0.06443-1.9735-0.19329-0.67141-0.12207-1.3666-0.30858-2.0854-0.55951v-1.9837c0.56968 0.33231 1.1936 0.58325 1.8718 0.75279 0.67818 0.16955 1.3869 0.25432 2.1261 0.25432 1.2886 0 2.2685-0.25432 2.9399-0.76297 0.67818-0.50863 1.0173-1.2479 1.0173-2.2177-1e-5 -0.8952-0.31537-1.5937-0.94607-2.0956-0.62394-0.50864-1.4954-0.76296-2.6144-0.76297h-1.7701v-1.6887h1.8515c1.0105 1e-5 1.7836-0.20005 2.3194-0.60019 0.53576-0.4069 0.80364-0.99015 0.80365-1.7497-9e-6 -0.7799-0.27807-1.3767-0.83417-1.7904-0.54934-0.42046-1.3394-0.6307-2.3703-0.63071-0.5629 1.4e-5 -1.1665 0.06105-1.8108 0.18311-0.64428 0.12209-1.353 0.31198-2.1261 0.56968v-1.8311c0.77991-0.217 1.509-0.37977 2.1872-0.48829 0.68496-0.1085 1.3292-0.16275 1.9328-0.16276 1.5598 1.5e-5 2.7941 0.35606 3.7029 1.0681 0.90876 0.70533 1.3631 1.6616 1.3632 2.8687-1.1e-5 0.84097-0.24077 1.5531-0.72227 2.1363-0.48152 0.57646-1.1665 0.9766-2.0549 1.2004" fill="url(#p)"/><path id="cd" d="m54.835 5.7351-46.298 21.368 92.704 0.10851 17.094-21.476h-63.5z" fill="#000" fill-rule="nonzero" stroke="url(#j)" stroke-linecap="round" stroke-linejoin="round" stroke-miterlimit="4" stroke-width="1.1574"/><path id="ce" d="m54.838 5.7244-46.312 21.369 46.378 0.066779c-6.1694-5.5531-10.332-12.072 7.5795-16.394 7.5024-1.8105 19.618-1.5849 25.844-5.0419h-33.49zm40.268 0c-4.6764 5.0971-8.4022 4.5974-6.511 10.317 1.2275 3.7125 0.3135 7.6582-1.97 11.152l14.625 0.03339 17.096-21.503h-23.239z" fill="url(#i)" fill-rule="nonzero" opacity=".19643"/><path id="cf" d="m101.13 27.103 0.10851 92.704 17.094-46.298v-67.774l-17.202 21.368z" fill="#000" fill-rule="nonzero" stroke="url(#f)" stroke-linecap="round" stroke-linejoin="round" stroke-miterlimit="4" stroke-width="1"/><path id="cg" d="m108.37 101.12-0.06077-83.191" fill="url(#al)" fill-rule="evenodd" stroke="url(#ak)" stroke-linecap="round" stroke-linejoin="round" stroke-miterlimit="4" stroke-width=".64108"/><path id="ch" d="m113.36 87.316-0.04865-75.513" fill="url(#aj)" fill-rule="evenodd" stroke="url(#ai)" stroke-linecap="round" stroke-linejoin="round" stroke-miterlimit="4" stroke-width=".64108"/><path id="ci" d="m101.09 89.361 17.125-36.029" fill="url(#z)" fill-rule="evenodd" stroke="url(#y)" stroke-linecap="round" stroke-linejoin="round" stroke-miterlimit="4" stroke-width=".64108"/><g id="cj" transform="translate(0,2)"><path id="ck" d="m93.41 121.89v-6.4687c1.7812 0.84375 3.5859 1.4883 5.4141 1.9336 1.8281 0.44532 3.6211 0.66797 5.3789 0.66797 4.6875 0 8.2617-1.5703 10.723-4.7109 2.4843-3.164 3.9023-7.957 4.2539-14.379-1.3594 2.0156-3.0821 3.5625-5.168 4.6406-2.086 1.0781-4.3946 1.6172-6.9258 1.6172-5.25 1e-5 -9.4102-1.582-12.48-4.7461-3.0469-3.1875-4.5703-7.5351-4.5703-13.043-4e-6 -5.3906 1.5937-9.7148 4.7812-12.973 3.1875-3.2578 7.4297-4.8867 12.727-4.8867 6.0703 5.3e-5 10.699 2.3321 13.887 6.9961 3.2109 4.6407 4.8164 11.391 4.8164 20.25-4e-5 8.2735-1.9688 14.883-5.9062 19.828-3.9141 4.9219-9.1875 7.3828-15.82 7.3828-1.7813 0-3.586-0.17578-5.4141-0.52734-1.8281-0.35157-3.7266-0.87891-5.6953-1.582m14.133-22.254c3.1875 2.3e-5 5.707-1.0898 7.5586-3.2695 1.875-2.1797 2.8125-5.1679 2.8125-8.9648-3e-5 -3.7734-0.93753-6.75-2.8125-8.9297-1.8516-2.2031-4.3711-3.3046-7.5586-3.3047-3.1875 4.8e-5 -5.7188 1.1016-7.5938 3.3047-1.8516 2.1797-2.7774 5.1563-2.7773 8.9297-1.2e-5 3.7969 0.92577 6.7852 2.7773 8.9648 1.875 2.1797 4.4062 3.2696 7.5938 3.2695" fill="#000" filter="url(#e)"/><path id="cl" d="m93.41 121.89v-6.4687c1.7812 0.84375 3.5859 1.4883 5.4141 1.9336 1.8281 0.44532 3.6211 0.66797 5.3789 0.66797 4.6875 0 8.2617-1.5703 10.723-4.7109 2.4843-3.164 3.9023-7.957 4.2539-14.379-1.3594 2.0156-3.0821 3.5625-5.168 4.6406-2.086 1.0781-4.3946 1.6172-6.9258 1.6172-5.25 1e-5 -9.4102-1.582-12.48-4.7461-3.0469-3.1875-4.5703-7.5351-4.5703-13.043-4e-6 -5.3906 1.5937-9.7148 4.7812-12.973 3.1875-3.2578 7.4297-4.8867 12.727-4.8867 6.0703 5.3e-5 10.699 2.3321 13.887 6.9961 3.2109 4.6407 4.8164 11.391 4.8164 20.25-4e-5 8.2735-1.9688 14.883-5.9062 19.828-3.9141 4.9219-9.1875 7.3828-15.82 7.3828-1.7813 0-3.586-0.17578-5.4141-0.52734-1.8281-0.35157-3.7266-0.87891-5.6953-1.582m14.133-22.254c3.1875 2.3e-5 5.707-1.0898 7.5586-3.2695 1.875-2.1797 2.8125-5.1679 2.8125-8.9648-3e-5 -3.7734-0.93753-6.75-2.8125-8.9297-1.8516-2.2031-4.3711-3.3046-7.5586-3.3047-3.1875 4.8e-5 -5.7188 1.1016-7.5938 3.3047-1.8516 2.1797-2.7774 5.1563-2.7773 8.9297-1.2e-5 3.7969 0.92577 6.7852 2.7773 8.9648 1.875 2.1797 4.4062 3.2696 7.5938 3.2695" fill="#000" filter="url(#e)"/><path id="cm" d="m93.41 121.89v-6.4687c1.7812 0.84375 3.5859 1.4883 5.4141 1.9336 1.8281 0.44532 3.6211 0.66797 5.3789 0.66797 4.6875 0 8.2617-1.5703 10.723-4.7109 2.4843-3.164 3.9023-7.957 4.2539-14.379-1.3594 2.0156-3.0821 3.5625-5.168 4.6406-2.086 1.0781-4.3946 1.6172-6.9258 1.6172-5.25 1e-5 -9.4102-1.582-12.48-4.7461-3.0469-3.1875-4.5703-7.5351-4.5703-13.043-4e-6 -5.3906 1.5937-9.7148 4.7812-12.973 3.1875-3.2578 7.4297-4.8867 12.727-4.8867 6.0703 5.3e-5 10.699 2.3321 13.887 6.9961 3.2109 4.6407 4.8164 11.391 4.8164 20.25-4e-5 8.2735-1.9688 14.883-5.9062 19.828-3.9141 4.9219-9.1875 7.3828-15.82 7.3828-1.7813 0-3.586-0.17578-5.4141-0.52734-1.8281-0.35157-3.7266-0.87891-5.6953-1.582m14.133-22.254c3.1875 2.3e-5 5.707-1.0898 7.5586-3.2695 1.875-2.1797 2.8125-5.1679 2.8125-8.9648-3e-5 -3.7734-0.93753-6.75-2.8125-8.9297-1.8516-2.2031-4.3711-3.3046-7.5586-3.3047-3.1875 4.8e-5 -5.7188 1.1016-7.5938 3.3047-1.8516 2.1797-2.7774 5.1563-2.7773 8.9297-1.2e-5 3.7969 0.92577 6.7852 2.7773 8.9648 1.875 2.1797 4.4062 3.2696 7.5938 3.2695" fill="url(#am)"/></g><path id="cn" d="m54.838 5.7244-46.312 21.369 42.105 0.066779c-2.5633-4.6181-5.7907-12.74 12.12-17.062 7.5024-1.8105 15.077-0.91706 21.303-4.3741h-29.216zm40.268 0c-4.6764 5.0971-8.4022 4.5974-6.511 10.317 1.2275 3.7125 0.3135 7.6582-1.97 11.152l14.625 0.03339 17.096-21.503h-23.239z" fill="url(#g)" fill-rule="nonzero" opacity=".1317"/><path id="co" d="m81.967 36.982h9.7659v0.87486l-5.5137 14.313h-2.1465l5.1881-13.459h-7.2939v-1.7294" fill="url(#r)" stroke="url(#q)" stroke-linejoin="miter" stroke-miterlimit="4" stroke-width=".53424"/><path id="cp" d="m29.514 17.77 78.849 0.012077" fill="url(#ah)" fill-rule="evenodd" stroke="url(#ag)" stroke-linecap="round" stroke-linejoin="round" stroke-miterlimit="4" stroke-width=".64108"/><path id="cq" d="m43.102 11.616 70.14 0.078857" fill="url(#af)" fill-rule="evenodd" stroke="url(#ae)" stroke-linecap="round" stroke-linejoin="round" stroke-miterlimit="4" stroke-width=".64108"/><path id="cr" d="m39.713 26.805 33.508-20.336" fill="url(#x)" fill-rule="evenodd" stroke="url(#w)" stroke-linecap="round" stroke-linejoin="round" stroke-miterlimit="4" stroke-width=".64108"/><path id="cs" d="m71.993 27.027 26.074-20.912" fill="url(#ad)" fill-rule="evenodd" stroke="url(#ac)" stroke-linecap="round" stroke-linejoin="round" stroke-miterlimit="4" stroke-width=".64108"/><path id="ct" d="m101.02 58.932 17.381-29.503" fill="url(#ab)" fill-rule="evenodd" stroke="url(#aa)" stroke-linecap="round" stroke-linejoin="round" stroke-miterlimit="4" stroke-width=".64108"/><path id="cu" d="m63.792 20.439-2.7985 0.43445 0.81164-0.82093 3.5244-0.56992 1.2706-0.074331-6.9497 5.3108-1.7093 0.11787" fill="url(#t)" stroke="url(#s)" stroke-linejoin="miter" stroke-miterlimit="4" stroke-width=".2273"/><text id="cv" x="-42.739555" y="43.793777" fill="#babdb6" font-family="DejaVu Sans" font-size="19.499px" stroke-linejoin="miter" stroke-width="1px" xml:space="preserve"><tspan id="cw" x="-42.739555" y="43.793777">7</tspan></text><path id="cx" d="m56.381 7.5703 8.0404 0.087505-0.067573 0.33022-8.8422 2.8769-2.4096 0.007723 9.4369-2.9192-7.5664 0.17842" fill="url(#o)" stroke="url(#n)" stroke-linejoin="miter" stroke-miterlimit="4" stroke-width=".22458"/></g></svg>
