<?xml version="1.0" encoding="UTF-8"?>
<svg id="bb" version="1.0" viewBox="0 0 128 128" xmlns="http://www.w3.org/2000/svg" xmlns:xlink="http://www.w3.org/1999/xlink"><defs id="bc"><linearGradient id="e"><stop id="bd" stop-color="#f7f7f7" offset="0"/><stop id="be" stop-color="#f4f4f4" offset=".5"/><stop id="bf" stop-color="#efefef" offset=".75"/><stop id="bg" stop-color="#cbcbcb" offset="1"/></linearGradient><linearGradient id="f"><stop id="bh" stop-color="#fff" offset="0"/><stop id="bi" stop-color="#fff" stop-opacity="0" offset="1"/></linearGradient><linearGradient id="ak"><stop id="bj" stop-color="#a1a1a1" offset="0"/><stop id="bk" stop-color="#d3d3d3" offset=".25"/><stop id="bl" stop-color="#dedede" offset=".5"/><stop id="bm" stop-color="#f2f2f2" offset=".625"/><stop id="bn" stop-color="#d7d7d7" offset=".75"/><stop id="bo" stop-color="#a1a1a1" offset="1"/></linearGradient><linearGradient id="d"><stop id="bp" offset="0"/><stop id="bq" stop-opacity="0" offset="1"/></linearGradient><linearGradient id="h"><stop id="br" stop-color="#f5f5f5" offset="0"/><stop id="bs" stop-color="#d0d2cb" offset="1"/></linearGradient><clipPath id="p"><path id="bt" d="m55.688 476.98c4.5184 7.8261 19.423 10.75 29.75 10.75 10.327 1e-5 25.232-2.9239 29.75-10.75-24.211-41.934-42.235-39.066-59.5 0z" fill="url(#al)" fill-rule="evenodd"/></clipPath><linearGradient id="al" x1="91.177" x2="91.177" y1="425.96" y2="354.96" gradientTransform="translate(0 54.985)" gradientUnits="userSpaceOnUse" xlink:href="#h"/><filter id="n"><feGaussianBlur id="bu" stdDeviation="1.6588145"/></filter><filter id="m" x="-.36173" y="-.14675" width="1.7235" height="1.2935"><feGaussianBlur id="bv" stdDeviation="3.7606027"/></filter><clipPath id="o"><path id="bw" d="m10.827 344.16c2.5531 27.852 16.271 47.474 25.1 56.597 30.045 20.541 2.6611-30.933 4.9215-52.168 1.1685-4.1991-19.658-18.248-30.021-4.4294z" fill="#000" fill-rule="evenodd" opacity=".31868"/></clipPath><filter id="l"><feGaussianBlur id="bx" stdDeviation="0.55431548"/></filter><clipPath id="ba"><path id="by" d="m73.338 392.02c-43.297 0-73.088 12.845-64.376 33.747 8.712 20.902 52.647 41.99 95.944 41.99 43.297 0 69.652-21.088 60.94-41.99-8.712-20.902-49.211-33.747-92.508-33.747z" fill="#dedede" opacity=".22711"/></clipPath><filter id="aw"><feGaussianBlur id="bz" stdDeviation="1.7561592"/></filter><filter id="av"><feGaussianBlur id="ca" stdDeviation="0.99750674"/></filter><filter id="k"><feGaussianBlur id="cb" stdDeviation="0.71842693"/></filter><filter id="au" x="-.050481" y="-.34008" width="1.101" height="1.6802"><feGaussianBlur id="cc" stdDeviation="0.56215934"/></filter><clipPath id="az"><path id="cd" d="m353.21-62.549c-43.222 0-78.281 11.686-78.281 26.094 0 14.407 35.059 30.997 78.281 30.997 43.222 1e-5 78.312-16.59 78.312-30.997-1e-5 -14.407-35.09-26.094-78.312-26.094z" fill="#fff"/></clipPath><filter id="at"><feGaussianBlur id="ce" stdDeviation="0.76488095"/></filter><filter id="c"><feGaussianBlur id="cf" stdDeviation="0.18220647"/></filter><filter id="as" x="-.016031" y="-.17036" width="1.0321" height="1.3407"><feGaussianBlur id="cg" stdDeviation="0.90335436"/></filter><filter id="ar"><feGaussianBlur id="ch" stdDeviation="1.2976958"/></filter><clipPath id="ay"><path id="ci" transform="matrix(1.0018 0 0 1 449.71 -2.6265)" d="m353.35 309.56c-42.135 0-76.313 10.365-76.313 23.143 0 12.778 34.178 23.17 76.313 23.17 42.135 1e-5 76.344-10.392 76.344-23.17 0-12.778-34.208-23.143-76.344-23.143z" fill="url(#g)" filter="url(#c)" opacity=".30769"/></clipPath><linearGradient id="g" x1="38.837" x2="191.49" y1="329.2" y2="329.2" gradientTransform="translate(238.2 3.518)" gradientUnits="userSpaceOnUse" xlink:href="#ak"/><filter id="b"><feGaussianBlur id="cj" stdDeviation="0.038308464"/></filter><filter id="aq"><feGaussianBlur id="ck" stdDeviation="0.26036794"/></filter><filter id="ap"><feGaussianBlur id="cl" stdDeviation="1.6890359"/></filter><clipPath id="ax"><path id="cm" d="m879.97 354.98-0.49216 4.9215 5.4137-3.4451c3.1292-10.7 21.657-13.685 25.1-4.1833 8.462 23.357-31.724 37.587-45.032 42.817l-10.089 16.733c24.176-8.1418 71.805-23.557 64.964-62.257-1.9512-11.037-20.434-20.95-36.665-9.597l-3.199 15.011z" fill="url(#aj)" fill-rule="evenodd"/></clipPath><linearGradient id="aj" x1="896.7" x2="912.87" y1="334.95" y2="406.61" gradientUnits="userSpaceOnUse" xlink:href="#e"/><radialGradient id="t" cx="113.77" cy="421.47" r="102.65" gradientTransform="matrix(1 0 0 .47598 238.2 220.86)" gradientUnits="userSpaceOnUse"><stop id="cn" stop-opacity="0" offset="0"/><stop id="co" offset="1"/></radialGradient><linearGradient id="ai" x1="91.177" x2="91.177" y1="425.96" y2="354.96" gradientTransform="translate(267.93 9.843)" gradientUnits="userSpaceOnUse" xlink:href="#h"/><radialGradient id="i" cx="85.438" cy="511.89" r="78.938" gradientTransform="matrix(.43232 0 0 .70032 48.501 129.75)" gradientUnits="userSpaceOnUse" xlink:href="#d"/><linearGradient id="ah" x1="15.7" x2="47.812" y1="373.84" y2="379.25" gradientUnits="userSpaceOnUse" xlink:href="#d"/><linearGradient id="j" x1="125.09" x2="101.92" y1="277.12" y2="379.48" gradientTransform="translate(267.93 9.843)" gradientUnits="userSpaceOnUse" xlink:href="#d"/><radialGradient id="s" cx="81.205" cy="437.67" r="38.88" gradientTransform="matrix(2.3091 -2.989 -.41164 3.4642 73.853 -835.76)" gradientUnits="userSpaceOnUse"><stop id="cp" stop-color="#fff" offset="0"/><stop id="cq" stop-color="#eee" stop-opacity=".65125" offset=".5"/><stop id="cr" stop-color="#dedede" stop-opacity="0" offset="1"/></radialGradient><linearGradient id="ag" x1="185.82" x2="82.098" y1="466.02" y2="399.2" gradientTransform="translate(238.2)" gradientUnits="userSpaceOnUse"><stop id="cs" stop-color="#fff" offset="0"/><stop id="ct" stop-color="#fff" stop-opacity="0" offset="1"/></linearGradient><linearGradient id="af" x1="896.7" x2="912.87" y1="334.95" y2="406.61" gradientTransform="translate(-197.84)" gradientUnits="userSpaceOnUse" xlink:href="#e"/><linearGradient id="ae" x1="85.438" x2="91.177" y1="471.89" y2="354.96" gradientTransform="translate(267.93 9.843)" gradientUnits="userSpaceOnUse" xlink:href="#h"/><linearGradient id="ad" x1=".7495" x2="47.812" y1="367.77" y2="379.25" gradientUnits="userSpaceOnUse" xlink:href="#d"/><linearGradient id="ac" x1="488.21" x2="405.53" y1="440.52" y2="401.25" gradientTransform="translate(-94.493)" gradientUnits="userSpaceOnUse" xlink:href="#f"/><linearGradient id="ab" x1="488.21" x2="405.53" y1="440.52" y2="401.25" gradientTransform="translate(-332.69)" gradientUnits="userSpaceOnUse" xlink:href="#f"/><radialGradient id="r" cx="189.81" cy="375.15" r="27.057" gradientTransform="matrix(.99592 .090195 -.36013 3.9765 374.08 -1141.7)" gradientUnits="userSpaceOnUse"><stop id="cu" stop-color="#fff" offset="0"/><stop id="cv" stop-color="#fff" stop-opacity="0" offset="1"/></radialGradient><radialGradient id="q" cx="354.77" cy="343.23" r="56.351" gradientTransform="matrix(1 0 0 .0941 0 310.93)" gradientUnits="userSpaceOnUse"><stop id="cw" stop-color="#fff" offset="0"/><stop id="cx" stop-color="#fff" stop-opacity="0" offset="1"/></radialGradient><radialGradient id="a" cx="773.42" cy="338.25" r="2.7068" gradientTransform="matrix(1 0 0 .54545 0 153.75)" gradientUnits="userSpaceOnUse" xlink:href="#f"/><linearGradient id="aa" x1="398.92" x2="364.39" y1="360.4" y2="325.8" gradientUnits="userSpaceOnUse"><stop id="cy" stop-color="#572b00" offset="0"/><stop id="cz" stop-color="#de6e00" stop-opacity="0" offset="1"/></linearGradient><linearGradient id="z" x1="469.34" x2="341.9" y1="749.65" y2="698.17" gradientTransform="matrix(1 0 0 -1 0 1052.4)" gradientUnits="userSpaceOnUse"><stop id="da" stop-color="#fff" offset="0"/><stop id="db" stop-color="#fff" stop-opacity="0" offset="1"/></linearGradient><linearGradient id="y" x1="242.85" x2="242.85" y1="-187.78" y2="6.1699" gradientTransform="matrix(.49658 0 0 .49658 -20.636 88.991)" gradientUnits="userSpaceOnUse" xlink:href="#e"/><linearGradient id="x" x1="217.03" x2="270.23" y1="2.0093" y2="80.305" gradientUnits="userSpaceOnUse"><stop id="dc" stop-color="#fff" offset="0"/><stop id="dd" stop-color="#f4f4f4" offset=".5"/><stop id="de" stop-color="#efefef" offset=".75"/><stop id="df" stop-color="#cbcbcb" offset="1"/></linearGradient><filter id="ao"><feGaussianBlur id="dg" stdDeviation="0.58589415"/></filter><linearGradient id="w" x1="91.786" x2="67.671" y1="47.533" y2="108.31" gradientUnits="userSpaceOnUse"><stop id="dh" offset="0"/><stop id="di" stop-opacity="0" offset="1"/></linearGradient><linearGradient id="v" x1="97.536" x2="93.984" y1="86.327" y2="54.06" gradientUnits="userSpaceOnUse"><stop id="dj" stop-color="#7f7f7f" offset="0"/><stop id="dk" stop-color="#7f7f7f" stop-opacity="0" offset="1"/></linearGradient><filter id="an"><feGaussianBlur id="dl" stdDeviation="0.81875919"/></filter><linearGradient id="u" x1="51.853" x2="9.0481" y1="83.456" y2="68.491" gradientUnits="userSpaceOnUse"><stop id="dm" stop-color="#fff" offset="0"/><stop id="dn" stop-color="#fff" stop-opacity="0" offset="1"/></linearGradient><filter id="am"><feGaussianBlur id="do" stdDeviation="0.17846327"/></filter></defs><path id="dp" d="m63.63 15.234c-24.07 0-43.594 6.542-43.594 14.594 0 0.81991 0.20467 1.6228 0.59375 2.4062 0.21256 8.9192 1.7298 16.927 4.4375 24.062-14.642 4.6326-24.063 12.187-24.063 21.906 0 7.3058 5.3268 14.641 14.188 20.594 7.3684 8.1618 26.38 13.969 48.656 13.969 22.92 0 42.368-6.1536 49.25-14.687 8.2453-5.822 13.188-12.855 13.188-19.875-1e-5 -6.1623-3.8105-11.429-10.312-15.656 7.3126-5.3122 12.469-12.629 10.656-22.938-1.0676-6.0709-11.175-11.526-20.062-5.3438 0.03096-0.6609 0.04627-1.3287 0.0625-2 0.4004-0.794 0.625-1.6059 0.625-2.4375 0-8.0518-19.555-14.594-43.625-14.594zm51.781 22.719c2.5938-0.12325 4.9863 0.86354 5.8125 3.1562 2.8231 7.834-4.2143 13.78-11.812 17.906-2.2262-0.98872-4.6478-1.9058-7.2188-2.7188 1.3781-3.6314 2.4726-7.4763 3.2188-11.562l2.0625-1.3125c0.96561-3.3195 4.6026-5.3103 7.9375-5.4688z" fill="#4b4b4b" filter="url(#an)" opacity=".59707"/><g id="dq" transform="matrix(.54859 0 0 .55151 -130.21 -153.83)"><path id="dr" transform="matrix(1 0 0 .94915 235.42 15.312)" d="m212.98 451.71a94.657 41.064 0 1 1-189.31 0 94.657 41.064 0 1 1 189.31 0z" fill="#cacaca" opacity=".59707"/><path id="ds" d="m353.37 371.22c-63.027 0-114.19 18.698-114.19 49.125 0 30.427 51.161 61.125 114.19 61.125 63.027 0 114.19-30.698 114.19-61.125-2e-5 -30.427-51.161-49.125-114.19-49.125z" fill="#f2f2f2"/><path id="dt" d="m351.97 372.61c-56.661 0-102.65 16.574-102.65 43.543 0 26.969 45.993 54.179 102.65 54.179 56.661 0 102.65-27.21 102.65-54.179-1e-5 -26.969-45.993-43.543-102.65-43.543z" fill="url(#t)" opacity=".22711"/><path id="du" d="m274.93 333.03c0 44.58 17.588 76.838 48.688 98.812 4.5184 7.8261 19.423 10.75 29.75 10.75 10.327 1e-5 25.232-2.9239 29.75-10.75 31.099-21.974 48.688-54.233 48.688-98.812l-78.438 2.2812-78.438-2.2812z" fill="url(#ai)" fill-rule="evenodd"/><path id="dv" transform="translate(267.93 -45.77)" d="m55.688 476.98c4.5184 7.8261 19.423 10.75 29.75 10.75 10.327 1e-5 25.232-2.9239 29.75-10.75 171.86-134.72-230.16-144.86-59.5 0z" clip-path="url(#p)" fill="none" filter="url(#n)" stroke="url(#i)" stroke-linejoin="miter" stroke-miterlimit="4" stroke-width="2.6"/><path id="dw" transform="translate(267.93 9.843)" d="m15.866 348.21c-1.8196 21.746 11.703 39.543 19.713 51.253 5.2777-10.628-14.278-28.847-8.7611-46.434l-10.951-4.8186z" clip-path="url(#o)" fill="url(#ah)" fill-rule="evenodd" filter="url(#m)" opacity=".22711"/><path id="dx" d="m415.49 348.94c-14.313 6.2587-36.887 10.313-62.281 10.312-10.284 0-20.096-0.6699-29.094-1.875 1.2054 11.833 14.796 21.156 31.344 21.156 8.2288-1e-5 15.71-2.3168 21.312-6.0938 3.5897 1.5963 7.6024 2.5312 11.875 2.5312 14.862 1e-5 26.938-10.843 26.938-24.219 0-0.60582-0.04512-1.2177-0.09375-1.8125z" fill="url(#j)" filter="url(#l)" opacity=".22711"/><path id="dy" transform="matrix(1.4557 0 -.60674 1.4557 484.46 -199.44)" d="m120.08 437.67a38.88 43.801 0 1 1-77.76 0 38.88 43.801 0 1 1 77.76 0z" clip-path="url(#ba)" fill="url(#s)" filter="url(#aw)"/><path id="dz" d="m351.97 372.61c-56.661 0-102.65 16.574-102.65 43.543 0 26.969 45.993 54.179 102.65 54.179 56.661 0 102.65-27.21 102.65-54.179-1e-5 -26.969-45.993-43.543-102.65-43.543z" fill="url(#ag)"/><path id="ea" d="m311.04 424.38c0.29333 14.441 3.2095 28.508 21.655 40.356 37-6.7975 46.488-18.909 61.027-30.698 18.235 3.6896 33.665-3.0839 44.294-10.151 6.189-4.1151 2.7668-14.324-2.9529-11.319-13.596 7.1416-29.489 13.284-45.278 7.8744l-78.744 3.9372z" fill="#9d9d9d" fill-rule="evenodd" filter="url(#av)" opacity=".5641"/><g id="eb" transform="translate(-253.79 .79153)" fill-rule="evenodd"><path id="ec" d="m682.12 354.98-0.49216 4.9215 5.4137-3.4451c3.1292-10.7 21.657-13.685 25.1-4.1833 8.462 23.357-31.724 37.587-45.032 42.817l-10.089 16.733c24.176-8.1418 71.805-23.557 64.964-62.257-1.9512-11.037-20.434-20.95-36.665-9.597l-3.199 15.011z" fill="url(#af)"/><path id="ed" transform="translate(-197.84)" d="m879.47 354-0.49216 4.9215 5.4137-3.4451c3.1292-10.7 22.149-12.701 25.592-3.199 8.462 23.357-29.263 39.802-42.571 45.032l-13.534 12.55c23.941-9.4362 65.986-19.968 63.241-55.367-0.86656-11.175-19.449-18.736-35.681-7.3823l-1.9686 6.8901z" clip-path="url(#ax)" fill="#1f1f1f" filter="url(#ap)" opacity=".36264"/></g><path id="ee" d="m274.93 333.03c0 44.58 17.588 76.838 48.688 98.812 4.5184 7.8261 19.423 10.75 29.75 10.75 10.327 1e-5 25.232-2.9239 29.75-10.75 31.099-21.974 48.688-54.233 48.688-98.812l-78.438 2.2812-78.438-2.2812z" fill="url(#ae)" fill-rule="evenodd"/><path id="ef" transform="translate(267.93 -44.27)" d="m55.688 476.98c4.5184 7.8261 19.423 10.75 29.75 10.75 10.327 1e-5 25.232-2.9239 29.75-10.75 171.86-134.72-230.16-144.86-59.5 0z" clip-path="url(#p)" fill="none" filter="url(#n)" opacity=".57509" stroke="url(#i)" stroke-linejoin="miter" stroke-miterlimit="4" stroke-width="5"/><path id="eg" transform="matrix(1.768 0 .18594 1.4609 195.49 -145.78)" d="m15.866 348.21c-1.8196 21.746 11.703 39.543 19.713 51.253 5.2777-10.628-14.278-28.847-8.7611-46.434l-10.951-4.8186z" clip-path="url(#o)" fill="url(#ad)" fill-rule="evenodd" filter="url(#m)" opacity=".14652"/><path id="eh" d="m415.49 348.94c-14.313 6.2587-36.887 10.313-62.281 10.312-10.284 0-20.096-0.6699-29.094-1.875 1.2054 11.833 14.796 21.156 31.344 21.156 8.2288-1e-5 15.71-2.3168 21.312-6.0938 3.5897 1.5963 7.6024 2.5312 11.875 2.5312 14.862 1e-5 26.938-10.843 26.938-24.219 0-0.60582-0.04512-1.2177-0.09375-1.8125z" fill="url(#j)" filter="url(#l)" opacity=".12088"/><path id="ei" d="m393.72 418.47c-32.885 17.94-58.482-1.7753-82.681-17.225 23.792 16.606 47.117 40.704 76.311 23.426 2.2487-1.3309 4.043-4.375 6.3705-6.2003z" fill="url(#ac)" fill-rule="evenodd" filter="url(#k)" opacity=".59707"/><path id="ej" transform="matrix(-1.0168 0 0 1.4262 469.18 -182.56)" d="m155.52 418.47c-32.885 17.94-58.482-1.7753-82.681-17.225 23.792 16.606 47.117 40.704 76.311 23.426 2.2487-1.3309 4.043-4.375 6.3705-6.2003z" fill="url(#ab)" fill-rule="evenodd" filter="url(#k)" opacity=".59707"/><path id="ek" d="m382.62 426.65-10.614 3.306-11.658-0.52201 22.272-2.784z" fill="#fff" fill-rule="evenodd" filter="url(#au)"/><path id="el" d="m428.01 344.56c0.30068 40.112-36.292 81.294-49.312 86.15l-4.8008 0.96982c19.923-20.215 44.372-35.364 54.112-87.12z" fill="url(#r)" fill-rule="evenodd" opacity=".71429"/><path id="em" transform="matrix(1.0018 0 0 1 -.48826 369.44)" d="m353.21-63.245c-43.798 0-79.325 11.842-79.325 26.442 0 14.599 35.527 26.473 79.325 26.473 43.798 1e-5 79.356-11.874 79.356-26.473-1e-5 -14.599-35.558-26.442-79.356-26.442z" clip-path="url(#az)" fill="#fff" filter="url(#at)"/><path id="en" transform="matrix(1.0018 0 0 1 -.48826 -.65794)" d="m353.35 309.56c-42.135 0-76.313 10.365-76.313 23.143 0 12.778 34.178 23.17 76.313 23.17 42.135 1e-5 76.344-10.392 76.344-23.17 0-12.778-34.208-23.143-76.344-23.143z" fill="url(#g)" filter="url(#c)"/><path id="eo" transform="matrix(1.0018 0 0 1 -.43301 -.71253)" d="m353.35 309.56c-42.135 0-76.313 10.365-76.313 23.143 0 12.778 34.178 23.17 76.313 23.17 42.135 1e-5 76.344-10.392 76.344-23.17 0-12.778-34.208-23.143-76.344-23.143z" fill="url(#g)" filter="url(#c)" opacity=".30769"/><path id="ep" d="m353.55 320.66c-36.395 1e-5 -65.996 10.002-67.031 22.469 13.001 7.1681 38.144 12.031 67.031 12.031 28.887 1e-5 54.052-4.8632 67.062-12.031-1.0358-12.466-30.668-22.469-67.062-22.469z" fill="#de6e00" filter="url(#c)" opacity=".88278"/><path id="eq" d="m298.42 348.04c37.846-10.483 78.958-11.663 112.7 0.49215-23.048-14.672-83.735-13.44-112.7-0.49215z" fill="url(#q)" fill-rule="evenodd" filter="url(#as)"/><path id="er" transform="translate(-450.14 1.914)" d="m803.69 318.75c-36.395 1e-5 -65.996 10.002-67.031 22.469 10.048 11.105 38.144 14.461 67.031 14.461 28.887 1e-5 57.99 0.58191 67.062-14.461-1.0358-12.466-30.668-22.469-67.062-22.469z" clip-path="url(#ay)" fill="none" filter="url(#ar)" stroke="#ff7e00" stroke-dashoffset="1.0878" stroke-linejoin="miter" stroke-miterlimit="4" stroke-width="1"/><path id="es" transform="translate(-450.14 1.914)" d="m776.12 338.25a2.7068 1.4765 0 1 1-5.4137 0 2.7068 1.4765 0 1 1 5.4137 0z" fill="url(#a)" filter="url(#b)"/><path id="et" transform="translate(-370.14 7.914)" d="m776.12 338.25a2.7068 1.4765 0 1 1-5.4137 0 2.7068 1.4765 0 1 1 5.4137 0z" fill="url(#a)" filter="url(#b)"/><path id="eu" transform="matrix(1.4299 0 0 1.3521 -781.48 -134.33)" d="m776.12 338.25a2.7068 1.4765 0 1 1-5.4137 0 2.7068 1.4765 0 1 1 5.4137 0z" fill="url(#a)" filter="url(#b)"/><path id="ev" transform="matrix(1.4299 0 0 1.3521 -775.33 -135.68)" d="m776.12 338.25a2.7068 1.4765 0 1 1-5.4137 0 2.7068 1.4765 0 1 1 5.4137 0z" fill="url(#a)" filter="url(#b)"/><path id="ew" transform="translate(-396.84 -17.086)" d="m776.12 338.25a2.7068 1.4765 0 1 1-5.4137 0 2.7068 1.4765 0 1 1 5.4137 0z" fill="url(#a)" filter="url(#b)"/><path id="ex" transform="matrix(1.0018 0 0 1 -.43301 -.71253)" d="m353.35 309.56c-42.135 0-76.313 10.365-76.313 23.143 0 12.778 34.178 23.17 76.313 23.17 42.135 1e-5 76.344-10.392 76.344-23.17 0-12.778-34.208-23.143-76.344-23.143z" fill="url(#aa)" filter="url(#c)" opacity=".30769"/><path id="ey" d="m358.66 322.41c-7.7731 0.11439-14.689 1.0319-19.312 2.8125-12.827 4.9396-10.761 10.383-2.1562 14.969 18.002-6.0865 37.04-10.049 55.75-13.625-10.469-2.8629-23.236-4.3188-34.281-4.1562zm38.875 5.5625c-17.27 3.8621-34.319 8.4216-49.125 16.719 5.3619 5.1678 79.671 0.7674 49.75-16.531-0.20025-0.0702-0.42213-0.11852-0.625-0.1875z" fill="url(#z)" fill-rule="evenodd" filter="url(#aq)" opacity=".73626"/></g><path id="ez" d="m88.833 41.381c-0.48239 6.8901-3.3668 17.749-9.6283 24.639l-10.552 1.0345-2.5131 1.9826c-0.39187 4.736-5.2035 15.824-6.9018 20.56l0.9843 2.4608 24.608-1.2304 4.9565-26.776-9.843 1.7225c10.011-8.3487 7.7966-17.837 8.8901-24.393z" fill="url(#w)" fill-rule="evenodd" filter="url(#ao)" opacity=".4359"/><g id="fa" transform="matrix(1.151 0 0 1.151 -19.063 -3.2904)"><path id="fb" d="m82.497 54.308h22.973l4.399 4.399v22.973l-4.399 4.399h-22.973l-4.399-4.399v-22.973l4.399-4.399z" fill="url(#y)" stroke="url(#v)" stroke-dashoffset="1.0878" stroke-linecap="round" stroke-linejoin="round" stroke-miterlimit="4" stroke-width=".49696"/><path id="fc" transform="matrix(.49658 0 0 .49658 -25.768 69.195)" d="m264.78 2.0093a23.623 23.623 0 1 1-47.247 0 23.623 23.623 0 1 1 47.247 0z" fill="url(#x)" stroke="#1a1a1a" stroke-dashoffset="1.0878" stroke-linejoin="miter" stroke-miterlimit="4" stroke-width="1"/><path id="fd" transform="matrix(.055882 0 0 .055882 80.508 70.081)" d="m264.78 2.0093a23.623 23.623 0 1 1-47.247 0 23.623 23.623 0 1 1 47.247 0z" fill="#000" stroke="#1a1a1a" stroke-dashoffset="1.0878" stroke-linejoin="miter" stroke-miterlimit="4" stroke-width="1"/><path id="fe" d="m93.617 69.46c0.61098-0.73317 6.9651-8.3093 6.9651-8.3093l-0.06189 1.4753-5.8035 8.056-1.0998-1.222z" fill="#000" fill-rule="evenodd"/><path id="ff" d="m93.447 70.288c-0.43136-0.56575-4.8821-6.4414-4.8821-6.4414l1.0618 0.28993 4.8909 5.5552-1.0706 0.59633z" fill="#000" fill-rule="evenodd"/><path id="fg" transform="matrix(.49658 0 0 .49658 -24.424 69.684)" d="m241.4-22.475a3.0759 3.0759 0 1 1-6.1519 0 3.0759 3.0759 0 1 1 6.1519 0z" fill="#000"/><path id="fh" transform="matrix(.49658 0 0 .49658 -24.424 92.657)" d="m241.4-22.475a3.0759 3.0759 0 1 1-6.1519 0 3.0759 3.0759 0 1 1 6.1519 0z" fill="#000"/><path id="fi" transform="matrix(0 .49658 -.49658 0 94.248 -48.336)" d="m241.4-22.475a3.0759 3.0759 0 1 1-6.1519 0 3.0759 3.0759 0 1 1 6.1519 0z" fill="#000"/><path id="fj" transform="matrix(0 .49658 -.49658 0 71.276 -48.336)" d="m241.4-22.475a3.0759 3.0759 0 1 1-6.1519 0 3.0759 3.0759 0 1 1 6.1519 0z" fill="#000"/><path id="fk" transform="matrix(-.12414 .21502 -.21502 -.12414 128.62 21.718)" d="m241.4-22.475a3.0759 3.0759 0 1 1-6.1519 0 3.0759 3.0759 0 1 1 6.1519 0z" fill="#000"/><path id="fl" transform="matrix(-.12414 .21502 -.21502 -.12414 108.73 10.231)" d="m241.4-22.475a3.0759 3.0759 0 1 1-6.1519 0 3.0759 3.0759 0 1 1 6.1519 0z" fill="#000"/><path id="fm" transform="matrix(-.21502 .12414 -.12414 -.21502 148.12 45.538)" d="m241.4-22.475a3.0759 3.0759 0 1 1-6.1519 0 3.0759 3.0759 0 1 1 6.1519 0z" fill="#000"/><path id="fn" transform="matrix(-.21502 .12414 -.12414 -.21502 136.63 25.643)" d="m241.4-22.475a3.0759 3.0759 0 1 1-6.1519 0 3.0759 3.0759 0 1 1 6.1519 0z" fill="#000"/><path id="fo" transform="matrix(-.21502 -.12414 .12414 -.21502 142.21 104.71)" d="m241.4-22.475a3.0759 3.0759 0 1 1-6.1519 0 3.0759 3.0759 0 1 1 6.1519 0z" fill="#000"/><path id="fp" transform="matrix(-.21502 -.12414 .12414 -.21502 153.7 84.816)" d="m241.4-22.475a3.0759 3.0759 0 1 1-6.1519 0 3.0759 3.0759 0 1 1 6.1519 0z" fill="#000"/><path id="fq" transform="matrix(-.12414 -.21502 .21502 -.12414 118.39 124.21)" d="m241.4-22.475a3.0759 3.0759 0 1 1-6.1519 0 3.0759 3.0759 0 1 1 6.1519 0z" fill="#000"/><path id="fr" transform="matrix(-.12414 -.21502 .21502 -.12414 138.29 112.72)" d="m241.4-22.475a3.0759 3.0759 0 1 1-6.1519 0 3.0759 3.0759 0 1 1 6.1519 0z" fill="#000"/></g><path id="fs" d="m89.079 60.083v-18.702s-0.016305-1.8932-1.4765-1.9686v0" fill="none" stroke="#696969" stroke-linecap="round" stroke-linejoin="miter" stroke-width="1px"/><path id="ft" d="m40.368 86.24c-15.383-4.4929-22.253-13.305-25.056-23.664 3.368 10.317 12.211 17.31 21.576 18.792l3.48 4.872z" fill="url(#u)" fill-rule="evenodd" filter="url(#am)"/></svg>
