<?xml version="1.0" encoding="UTF-8"?>
<svg id="ak" width="144pt" height="144pt" sodipodi:docbase="/home/david/devel/svn.ktechlab.org/trunk/icons/SVG_app" sodipodi:docname="ktechlab.svg" sodipodi:version="0.32" viewBox="0 0 144 144" xml:space="preserve" xmlns="http://www.w3.org/2000/svg" xmlns:sodipodi="http://inkscape.sourceforge.net/DTD/sodipodi-0.dtd" xmlns:xlink="http://www.w3.org/1999/xlink">
  <defs id="al"><linearGradient id="b" x1="59.021" x2="59.021" y1="122.72" y2="122.72" gradientUnits="userSpaceOnUse">
			<stop id="am" stop-color="#ff831f" offset="0"/>















			<stop id="an" stop-color="#fff" offset="1"/>















		</linearGradient>









<linearGradient id="c" x1="59.021" x2="59.021" y1="122.72" y2="122.72" gradientUnits="userSpaceOnUse">
			<stop id="ao" stop-color="#e293cb" offset="0"/>















			<stop id="ap" stop-color="#fff" offset="1"/>















		</linearGradient>











<linearGradient id="a" x1="59.021" x2="59.021" y1="122.72" y2="122.72" gradientUnits="userSpaceOnUse">
			<stop id="aq" stop-color="#987dff" offset="0"/>















			<stop id="ar" stop-color="#fff" offset="1"/>















		</linearGradient>











  <linearGradient id="d" x1="59.021" x2="59.021" y1="122.72" y2="122.72" gradientUnits="userSpaceOnUse">
			<stop id="as" stop-color="#43d067" offset="0"/>















			<stop id="at" stop-color="#fff" offset="1"/>















		</linearGradient>














  <linearGradient id="af" x1="-46.78" x2="119.89" y1="-14.248" y2="114.79" gradientTransform="matrix(1.0487 0 0 1.0487 -1.5354 -7.7194)" gradientUnits="userSpaceOnUse">
			<stop id="au" stop-color="#fff" offset="0"/>















			<stop id="av" stop-color="#36364C" offset="1"/>















		</linearGradient>














  














  














  














  














  














  <linearGradient id="e" x1="126.31" x2="92.949" y1="47.287" y2="35.113" gradientTransform="matrix(.70002 0 0 1.5709 -1.8863 1.8863)" gradientUnits="userSpaceOnUse" xlink:href="#c"/>














  







<linearGradient id="w" x1="34.574" x2="15.116" y1="64.646" y2="37.049" gradientTransform="matrix(1.328 0 0 .8281 -1.5354 -7.7194)" gradientUnits="userSpaceOnUse" xlink:href="#b"/>










<linearGradient id="v" x1="46.608" x2="10.08" y1="40.659" y2="26.117" gradientTransform="matrix(.67174 0 0 1.637 -1.5354 -7.7194)" gradientUnits="userSpaceOnUse" xlink:href="#b"/>










<linearGradient id="u" x1="70.888" x2="38.324" y1="49.305" y2="36.722" gradientTransform="matrix(.67942 0 0 1.6185 -1.5354 -7.7194)" gradientUnits="userSpaceOnUse" xlink:href="#d"/>














<linearGradient id="g" x1="49.554" x2="30.172" y1="68.788" y2="42.841" gradientTransform="matrix(1.3255 0 0 .82962 -1.8863 1.8863)" gradientUnits="userSpaceOnUse" xlink:href="#d"/>

















<linearGradient id="f" x1="58.769" x2="34.378" y1="28.351" y2="12.809" gradientTransform="matrix(.92428 0 0 1.1898 -1.8863 1.8863)" gradientUnits="userSpaceOnUse" xlink:href="#a"/>










<linearGradient id="t" x1="59.85" x2="40.025" y1="59.46" y2="33.039" gradientTransform="matrix(1.3414 0 0 .8198 -1.8863 1.8863)" gradientUnits="userSpaceOnUse"><stop id="aw" stop-color="#f9d02e" offset="0"/><stop id="ax" stop-color="#fff" offset="1"/></linearGradient>






<linearGradient id="r" x1="47.34" x2="30.436" y1="31.143" y2="7.0163" gradientTransform="matrix(1.3346 0 0 .82398 -1.8863 9.5539e-8)" gradientUnits="userSpaceOnUse" xlink:href="#a"/>






<linearGradient id="s" x1="73.685" x2="55.169" y1="73.688" y2="49.726" gradientTransform="matrix(1.3149 0 0 .83631 -1.8863 1.8863)" gradientUnits="userSpaceOnUse" xlink:href="#c"/>



















































<linearGradient id="q" x1="93.774" x2="18.593" y1="100.08" y2="34.328" gradientTransform="translate(-.26946 5.9282)" gradientUnits="userSpaceOnUse"><stop id="ay" stop-color="#999fb0" offset="0"/><stop id="az" stop-color="#999fb0" stop-opacity="0" offset="1"/></linearGradient><linearGradient id="p" x1="119.64" x2="65.21" y1="73.4" y2="30.825" gradientTransform="translate(-.26946 5.9282)" gradientUnits="userSpaceOnUse"><stop id="ba" stop-color="#99a4bb" offset="0"/><stop id="bb" stop-color="#99a4bb" stop-opacity="0" offset="1"/></linearGradient><linearGradient id="o" x1="18.796" x2="50.093" y1="94.095" y2="94.095" gradientUnits="userSpaceOnUse"><stop id="bc" stop-color="#FFAE00" offset="0"/><stop id="bd" stop-color="#4C1C00" offset="1"/></linearGradient><linearGradient id="n" x1="32.826" x2="63.554" y1="90.94" y2="90.94" gradientTransform="matrix(.9993 .037 -.037 .9993 -1.43 1.8062)" gradientUnits="userSpaceOnUse"><stop id="be" stop-color="#FFAE00" offset="0"/><stop id="bf" stop-color="#4C1C00" offset="1"/></linearGradient><linearGradient id="m" x1="32.098" x2="44.701" y1="90.161" y2="90.161" gradientTransform="matrix(.9993 .037 -.037 .9993 -1.43 1.8062)" gradientUnits="userSpaceOnUse"><stop id="bg" stop-color="#FFFFE1" offset="0"/><stop id="bh" stop-color="#FFB800" offset="1"/></linearGradient><linearGradient id="l" x1="26.926" x2="41.834" y1="101.84" y2="101.84" gradientTransform="matrix(.9993 .037 -.037 .9993 -1.43 1.8062)" gradientUnits="userSpaceOnUse"><stop id="bi" stop-color="#FFFFE1" offset="0"/><stop id="bj" stop-color="#FFB800" offset="1"/></linearGradient><linearGradient id="k" x1=".209" x2="31.506" y1="76.534" y2="76.534" gradientUnits="userSpaceOnUse"><stop id="bk" stop-color="#FFAE00" offset="0"/><stop id="bl" stop-color="#4C1C00" offset="1"/></linearGradient><linearGradient id="j" x1="13.602" x2="44.329" y1="74.08" y2="74.08" gradientTransform="matrix(.9993 .037 -.037 .9993 -1.43 1.8062)" gradientUnits="userSpaceOnUse"><stop id="bm" stop-color="#FFAE00" offset="0"/><stop id="bn" stop-color="#4C1C00" offset="1"/></linearGradient><linearGradient id="i" x1="12.874" x2="25.477" y1="73.301" y2="73.301" gradientTransform="matrix(.9993 .037 -.037 .9993 -1.43 1.8062)" gradientUnits="userSpaceOnUse"><stop id="bo" stop-color="#FFFFE1" offset="0"/><stop id="bp" stop-color="#FFB800" offset="1"/></linearGradient><linearGradient id="h" x1="7.7017" x2="22.609" y1="84.978" y2="84.978" gradientTransform="matrix(.9993 .037 -.037 .9993 -1.43 1.8062)" gradientUnits="userSpaceOnUse"><stop id="bq" stop-color="#FFFFE1" offset="0"/><stop id="br" stop-color="#FFB800" offset="1"/></linearGradient></defs>



  <sodipodi:namedview id="bs" bordercolor="#666666" borderopacity="1.0" pagecolor="#ffffff" showgrid="false" showguides="false"/>



  <path id="bt" d="m149.12 152.89h-151.01v-151.01h151.01v151.01z" fill="none"/>



  



  <path id="bu" d="m144.92 95.753-0.01887-5.0839-3.0023-2.3374s-2.8471-2.2798-3.8569-3.0883c-0.1206-1.5426-0.57676-7.3857-0.57676-7.3857l-0.24644-3.6294-5.5264-4.2743-11.906-8.8622-1.7229 0.58515c-1.3968-1.0508-3.0159-2.2672-4.8741-3.664l-0.12899-1.9012-5.5253-4.2743-11.907-8.8622-1.6967 0.57676c-1.4304-1.0738-2.8786-2.1623-4.3288-3.2508l-0.13318-1.9578-5.5264-4.2743-11.907-8.8622-1.7187 0.5841c-4.6497-3.5098-7.8817-5.9658-8.3934-6.3978-1.2395-1.0466-3.0977-1.2531-4.5291-0.49077l0.054531-0.028314c-1.2898 0.64807-13.575 5.6564-23.446 9.6791-15.454 6.2993-20.073 8.2005-20.908 8.6598-1.2689 0.69945-2.0564 2.0239-2.0533 3.4742l0.039849 15.676-4.4662 2.1676s0.34501 19.142 0.37542 20.892c-1.0948 0.53901-6.5153 3.2078-6.5153 3.2078l-0.34186 5.7005 11.893 11.636 10.272-5.0828s0.61451-1.142 0.67638-1.2563c0.091233-0.14576 1.4513-2.3333 1.4513-2.3333s0.72672-4.59 1.4031-8.8538l0.38171 0.34606c0.10486 5.7854 0.25168 13.938 0.2716 15.052-1.0948 0.53901-6.5163 3.2078-6.5163 3.2078l-0.34186 5.7005 11.892 11.636 10.273-5.0839s0.61451-1.1409 0.67743-1.2563c0.090185-0.14576 1.4513-2.3322 1.4513-2.3322s0.80642-5.086 1.509-9.5249l1.4534 1.3161 27.055 24.499c1.2353 1.1179 3.0967 1.3328 4.57 0.55474l47.638-25.15c1.3056-0.68896 2.0774-2.0082 2.0721-3.4836l-0.00944-2.0753 7.587 6.0623 9.1285-6.1545v-0.002098zm-8.0568-7.6436-1.6852-1.3486-0.17618-2.2609 0.17618 2.2609 1.6852 1.3486zm-2.4318-12.257-4.5616-3.5497-1.8089-1.4356v-0.00105l1.8068 1.4346 4.5637 3.5518z" fill="#000030" fill-rule="nonzero" opacity=".2" sodipodi:nodetypes="ccccccccccccccccccccccccccccccccccccccccccccccccccccccccccccccccc"/>



  <g id="bv" transform="matrix(1.0487 0 0 1.0487 -1.5354 -7.7194)" fill="#fff" fill-rule="nonzero" stroke-miterlimit="4" stroke-width="0">
			<g id="bw">
				<linearGradient id="aj" x1="110.93" x2="125.84" y1="93.892" y2="93.892" gradientTransform="matrix(.9988 -.05 .05 .9988 4.8774 1.0598)" gradientUnits="userSpaceOnUse">
					<stop id="bx" stop-color="#FFFFE1" offset="0"/>















					<stop id="by" stop-color="#FFB800" offset="1"/>















				</linearGradient>















				<path id="bz" d="m120.22 86.378 9.936 8.158 5.239-3.188-10.042-8.04-5.133 3.069v1e-3z" fill="url(#aj)"/>















				<linearGradient id="ae" x1="100.85" x2="113.88" y1="74.259" y2="74.259" gradientTransform="matrix(1.0736 -.0537 .0541 1.082 2.6032 6.2865)" gradientUnits="userSpaceOnUse">
					<stop id="ca" stop-color="#FFFFE1" offset="0"/>















					<stop id="cb" stop-color="#FFB800" offset="1"/>















				</linearGradient>















				<path id="cc" d="m116.96 86.945-0.744-1.843-2.153-20.509 14.126 11.214-0.32 17.209 1.854 4.127-12.762-10.198h-1e-3z" fill="url(#ae)"/>















				<path id="cd" d="m107.4 67.259 14.082 11.236 6.8-2.682-14.231-11.07-6.65 2.516h-1e-3z"/>















				<linearGradient id="ad" x1="121.48" x2="135.43" y1="86.498" y2="86.498" gradientUnits="userSpaceOnUse">
					<stop id="ce" stop-color="#FFAE00" offset="0"/>















					<stop id="cf" stop-color="#4C1C00" offset="1"/>















				</linearGradient>















				<path id="cg" d="m121.48 78.495 6.7-2.643 1.283 16.424 0.77 1.9 5.168-3.144 0.026 2.261-5.71 3.85-2.283-4.014-1.478-13.98-4.47 1.793-7e-3 -2.447h1e-3z" fill="url(#ad)"/>















				<linearGradient id="ac" x1="107.4" x2="135.43" y1="81.199" y2="81.199" gradientUnits="userSpaceOnUse">
					<stop id="ch" stop-color="#FFAE00" offset="0"/>















					<stop id="ci" stop-color="#4C1C00" offset="1"/>















				</linearGradient>















				<path id="cj" d="m114.31 61.738 11.355 8.451 5.268 4.076 0.236 3.461s0.435 5.572 0.55 7.045c0.964 0.771 3.677 2.943 3.677 2.943l2.865 2.23 0.017 4.846-8.706 5.87-14.971-11.964-1.172-2.902s-0.956-9.102-1.156-11.014c-1.429-1.141-10.541-8.412-10.541-8.412l9.291-3.514 3.287-1.117v1e-3zm21.088 29.295-0.224 0.136-6.188-4.953-0.808-10.338v-0.026l0.098-0.038-4.354-3.386-9.868-7.834 0.019 0.173-0.028-0.022-6.65 2.516 7.575 6.044 1.238 11.799 0.744 1.843 12.762 10.198 5.71-3.85-0.026-2.261v-1e-3z" fill="url(#ac)"/>















			</g>















			<g id="ck">
				<linearGradient id="ab" x1="88.788" x2="103.69" y1="75.485" y2="75.485" gradientTransform="matrix(.9988 -.05 .05 .9988 4.8774 1.0598)" gradientUnits="userSpaceOnUse">
					<stop id="cl" stop-color="#FFFFE1" offset="0"/>















					<stop id="cm" stop-color="#FFB800" offset="1"/>















				</linearGradient>















				<path id="cn" d="m97.187 69.102 9.936 8.158 5.24-3.187-10.042-8.041-5.134 3.069v1e-3z" fill="url(#ab)"/>















				<linearGradient id="aa" x1="80.245" x2="93.282" y1="57.27" y2="57.27" gradientTransform="matrix(1.0736 -.0537 .0541 1.082 2.6032 6.2865)" gradientUnits="userSpaceOnUse">
					<stop id="co" stop-color="#FFFFE1" offset="0"/>















					<stop id="cp" stop-color="#FFB800" offset="1"/>















				</linearGradient>















				<path id="cq" d="m93.917 69.669-0.745-1.843-2.152-20.509 14.125 11.214-0.319 17.208 1.854 4.128-12.763-10.198z" fill="url(#aa)"/>















				<path id="cr" d="m84.359 49.983 14.082 11.236 6.8-2.681-14.23-11.07-6.651 2.515h-1e-3z"/>















				<linearGradient id="z" x1="98.441" x2="112.39" y1="69.223" y2="69.223" gradientUnits="userSpaceOnUse">
					<stop id="cs" stop-color="#FFAE00" offset="0"/>















					<stop id="ct" stop-color="#4C1C00" offset="1"/>















				</linearGradient>















				<path id="cu" d="m98.441 61.219 6.701-2.643 1.283 16.424 0.77 1.901 5.168-3.144 0.025 2.26-5.709 3.851-2.283-4.014-1.478-13.982-4.47 1.795-8e-3 -2.448h1e-3z" fill="url(#z)"/>















				<linearGradient id="y" x1="84.361" x2="112.39" y1="63.923" y2="63.923" gradientUnits="userSpaceOnUse">
					<stop id="cv" stop-color="#FFAE00" offset="0"/>















					<stop id="cw" stop-color="#4C1C00" offset="1"/>















				</linearGradient>















				<path id="cx" d="m91.274 44.462 11.355 8.451 5.269 4.076 0.235 3.461s0.436 5.572 0.551 7.043c0.963 0.772 3.677 2.944 3.677 2.944l2.864 2.229 0.018 4.848-8.706 5.869-14.971-11.962-1.172-2.902s-0.956-9.103-1.156-11.015c-1.43-1.14-10.542-8.412-10.542-8.412l9.291-3.514 3.287-1.116zm21.089 29.296-0.225 0.136-6.187-4.954-0.808-10.338v-0.026l0.097-0.038-4.353-3.386-9.868-7.834 0.019 0.173-0.028-0.022-6.651 2.515 7.575 6.044 1.238 11.799 0.745 1.843 12.762 10.199 5.709-3.851-0.025-2.26z" fill="url(#y)"/>















			</g>















			<g id="cy">
				<linearGradient id="x" x1="67.165" x2="82.073" y1="57.439" y2="57.439" gradientTransform="matrix(.9988 -.05 .05 .9988 4.8774 1.0598)" gradientUnits="userSpaceOnUse">
					<stop id="cz" stop-color="#FFFFE1" offset="0"/>















					<stop id="da" stop-color="#FFB800" offset="1"/>















				</linearGradient>















				<path id="db" d="m74.689 52.158 9.936 8.158 5.24-3.188-10.042-8.04-5.134 3.069v1e-3z" fill="url(#x)"/>















				<linearGradient id="ai" x1="60.129" x2="73.165" y1="40.611" y2="40.611" gradientTransform="matrix(1.0736 -.0537 .0541 1.082 2.6032 6.2865)" gradientUnits="userSpaceOnUse">
					<stop id="dc" stop-color="#FFFFE1" offset="0"/>















					<stop id="dd" stop-color="#FFB800" offset="1"/>















				</linearGradient>















				<path id="de" d="m71.419 52.726-0.744-1.843-2.152-20.509 14.125 11.214-0.32 17.208 1.854 4.127-12.763-10.197z" fill="url(#ai)"/>















				<path id="df" d="m61.861 33.04 14.082 11.235 6.8-2.681-14.23-11.07-6.651 2.516h-1e-3z"/>















				<linearGradient id="ah" x1="75.943" x2="89.891" y1="52.278" y2="52.278" gradientUnits="userSpaceOnUse">
					<stop id="dg" stop-color="#FFAE00" offset="0"/>















					<stop id="dh" stop-color="#4C1C00" offset="1"/>















				</linearGradient>















				<path id="di" d="m75.943 44.275 6.701-2.642 1.283 16.424 0.77 1.901 5.168-3.144 0.026 2.26-5.71 3.85-2.283-4.013-1.478-13.982-4.47 1.794-8e-3 -2.448h1e-3z" fill="url(#ah)"/>















				<linearGradient id="ag" x1="61.862" x2="89.894" y1="46.98" y2="46.98" gradientUnits="userSpaceOnUse">
					<stop id="dj" stop-color="#FFAE00" offset="0"/>















					<stop id="dk" stop-color="#4C1C00" offset="1"/>















				</linearGradient>















				<path id="dl" d="m68.776 27.519 11.355 8.451 5.269 4.076 0.236 3.461s0.435 5.572 0.549 7.044c0.965 0.771 3.678 2.944 3.678 2.944l2.864 2.229 0.018 4.846-8.706 5.87-14.972-11.963-1.171-2.902s-0.956-9.103-1.156-11.015c-1.429-1.14-10.542-8.411-10.542-8.411l9.292-3.514 3.287-1.117-1e-3 1e-3zm21.089 29.294-0.225 0.137-6.186-4.954-0.809-10.338v-0.026l0.097-0.038-4.353-3.386-9.868-7.834 0.018 0.173-0.028-0.022-6.651 2.516 7.575 6.044 1.239 11.799 0.744 1.843 12.762 10.198 5.71-3.85-0.026-2.26 1e-3 -2e-3z" fill="url(#ag)"/>















			</g>















		</g>



  <path id="dm" d="m13.559 36.619c0 1.8257 0.067114 25.299 0.067114 26.666 1.0067 0.91862 59.915 54.238 61.533 55.717 1.9253-1.0497 46.032-24.277 47.64-25.151 0-1.8372-0.10905-25.29-0.10905-26.665-1.0172-0.91967-63.204-47.403-64.829-48.88-1.9201 1.0591-42.709 17.434-44.301 18.313h-0.001049z" fill="#f8ffff" fill-rule="nonzero"/>



  <path id="dn" d="m60.474 15.325c1.3874 1.1692 22.688 17.16 38.241 28.837 21.915 16.451 26.147 19.642 26.635 20.084 0.82634 0.74769 1.2993 1.8257 1.3056 2.9404l0.10905 26.665c0.0063 1.4755-0.7655 2.7936-2.0711 3.4836l-47.638 25.149c-1.4734 0.7781-3.3358 0.56417-4.5711-0.55474l-61.532-55.715c-0.82739-0.74874-1.2888-1.8121-1.2919-2.9289l-0.067114-26.666c-0.0041945-1.4492 0.78334-2.7747 2.0533-3.4742 0.83368-0.45931 5.454-2.3605 20.908-8.6598 9.871-4.0226 22.155-9.031 23.446-9.6791l-0.05453 0.029361c1.4314-0.76342 3.2896-0.55579 4.5291 0.49077l-0.001048-0.00105zm-46.915 21.294c0 0.14786 0.067114 23.62 0.067114 26.666 1.0067 0.91862 59.915 54.238 61.533 55.717 1.9253-1.0497 46.032-24.277 47.64-25.151 0-1.8372-0.10905-25.29-0.10905-26.665-1.0172-0.91967-63.204-47.403-64.829-48.88-1.9201 1.0591-42.709 17.434-44.301 18.313h-0.001049z" fill="url(#af)" fill-rule="nonzero"/>



  <path id="do" d="m36.147 29.317 14.937 12.158-19.809 9.7792-15.369-13.517 20.242-8.4194z" fill="url(#w)" fill-rule="evenodd" sodipodi:nodetypes="ccccc"/>



  <path id="dp" d="m15.143 39.616 14.63 13.048-0.071773 22.607-14.157-12.949-0.40114-22.705z" fill="url(#v)" fill-rule="evenodd" sodipodi:nodetypes="ccccc"/>



  <path id="dq" d="m106.7 59.415-0.00906 22.639-18.357 9.2774 0.1576-21.841 18.208-10.076z" fill="#e293cb" fill-rule="evenodd" sodipodi:nodetypes="ccccc"/>



  <path id="dr" d="m48.52 66.76-0.76321 22.905 21.675-10.703 0.22881-22.594-21.141 10.393z" fill="#43d067" fill-rule="evenodd" sodipodi:nodetypes="ccccc"/>



  <path id="ds" d="m52.614 42.655 15.975 12.174-20.947 10.27-14.912-12.645 19.884-9.798z" fill="url(#g)" fill-rule="evenodd" sodipodi:nodetypes="ccccc"/>



  <path id="dt" d="m31.676 54.141 14.951 12.616-0.73974 23.268-14.323-12.894 0.112-22.99z" fill="url(#u)" fill-rule="evenodd" sodipodi:nodetypes="ccccc"/>



  <path id="du" d="m71.517 57.046 15.017 11.789-0.10617 22.377-15.118-12.626 0.20786-21.54z" fill="url(#e)" fill-rule="evenodd" sodipodi:nodetypes="ccccc"/>



  <path id="dv" d="m52.01 40.034 22.013-9.2532 0.18577-8.2014-17.813-13.209-20.362 9.3283-0.006299 8.7247 15.982 12.611z" fill="#fff" fill-rule="evenodd" sodipodi:nodetypes="ccccccc"/>



  <path id="dw" d="m56.225 8.857 15.249 11.003-17.831 9.2117-14.909-11.336 17.492-8.8785z" fill="url(#r)" fill-rule="evenodd" sodipodi:nodetypes="ccccc"/>



  <path id="dx" d="m37.934 19.666 14.498 11.041 0.001292 9.4364-14.502-11.83 0.003099-8.6474z" fill="url(#f)" fill-rule="evenodd" sodipodi:nodetypes="ccccc"/>



  <path id="dy" d="m54.346 31.003 17.731-8.9533-0.049284 9.2156-17.698 8.7658 0.016876-9.028z" fill="#987dff" fill-rule="evenodd" sodipodi:nodetypes="ccccc"/>



  <path id="dz" d="m73.713 32.744 15.721 11.785-18.754 9.4019-15.913-12.067 18.946-9.1194z" fill="url(#t)" fill-rule="evenodd" sodipodi:nodetypes="ccccc"/>



  <path id="ea" d="m108.62 58.882 12.168 9.1972 0.10157 23.097-12.613-9.318 0.3438-22.977z" fill="url(#p)" fill-rule="evenodd" sodipodi:nodetypes="ccccc"/>



  <path id="eb" d="m70.557 80.555 16.217 13.896 20.821-10.736 12.945 9.2789-45.112 23.707-27.645-24.964 22.774-11.182z" fill="url(#q)" fill-rule="evenodd" sodipodi:nodetypes="ccccccc"/>
<g id="ec" transform="matrix(1.0487 0 0 1.0487 58.638 -2.2444)" fill-rule="nonzero">
    <path id="ed" transform="translate(-56.182 -4.5359)" d="m35.36 71.819 14.733 13.503-0.22 5.151s-5.348 2.646-5.553 2.747c-0.378 2.388-2.358 14.88-2.358 14.88s-1.297 2.086-1.384 2.225c-0.06 0.109-0.645 1.198-0.645 1.198l-9.796 4.847-11.34-11.095 0.326-5.436s5.169-2.546 6.213-3.06c-0.03-1.668-0.359-19.923-0.359-19.923l8.649-4.197 1.734-0.841v1e-3zm-0.496 3.393 12.339 11.309-0.093 2.154c-2.142 1.061-4.635 2.294-5.363 2.654-0.271 1.709-2.498 15.76-2.498 15.76l-1.128 1.813-0.259 0.48-7.181 3.554-8.977-8.783 0.151-2.498s4.651-2.295 5.401-2.66c0.142-0.203 0.93-1.344 0.93-1.344l-0.342-19.033 7.018-3.406h2e-3z" fill="url(#o)"/>



    <path id="ee" transform="translate(-56.182 -4.5359)" d="m27.846 78.618 0.342 19.033s-0.788 1.141-0.93 1.344c-0.75 0.365-5.401 2.66-5.401 2.66l-0.151 2.498 8.977 8.783 7.181-3.554 0.259-0.48 1.128-1.813s2.227-14.051 2.498-15.76c0.728-0.36 3.221-1.594 5.363-2.654l0.093-2.154-12.341-11.309-7.018 3.406z" fill="url(#n)"/>



    <path id="ef" transform="translate(-56.182 -4.5359)" d="m27.846 78.618 12.187 11.449 7.17-3.547-12.339-11.308-7.018 3.406z" fill="#fff"/>



    <path id="eg" transform="translate(-56.182 -4.5359)" d="m27.214 99.055 0.973-1.403-0.342-19.033 12.187 11.449-2.591 16.348-0.939 1.511-9.288-8.871v-1e-3z" fill="url(#m)"/>



    <path id="eh" transform="translate(-56.182 -4.5359)" d="m21.817 101.65 9.189 8.991 5.497-2.72-9.306-8.882-5.38 2.61v1e-3z" fill="url(#l)"/>



    <path id="ei" transform="translate(-56.182 -4.5359)" d="m16.773 54.258 14.733 13.503-0.22 5.151s-5.348 2.646-5.553 2.748c-0.379 2.388-2.358 14.879-2.358 14.879s-1.297 2.086-1.384 2.225c-0.059 0.109-0.646 1.199-0.646 1.199l-9.795 4.847-11.341-11.094 0.326-5.436s5.169-2.546 6.214-3.06c-0.03-1.668-0.359-19.923-0.359-19.923l8.648-4.197 1.734-0.842h1e-3zm-0.496 3.393 12.339 11.309-0.092 2.155c-2.142 1.06-4.635 2.294-5.363 2.653-0.271 1.709-2.498 15.761-2.498 15.761l-1.128 1.813-0.259 0.481-7.181 3.553-8.977-8.783 0.151-2.498s4.651-2.296 5.401-2.659c0.142-0.204 0.93-1.345 0.93-1.345l-0.341-19.034 7.018-3.406z" fill="url(#k)"/>



    <path id="ej" transform="translate(-56.182 -4.5359)" d="m9.259 61.057 0.342 19.034s-0.789 1.141-0.93 1.345c-0.75 0.363-5.401 2.659-5.401 2.659l-0.151 2.498 8.977 8.783 7.181-3.553 0.259-0.481 1.128-1.813s2.226-14.052 2.498-15.761c0.728-0.359 3.222-1.593 5.363-2.653l0.092-2.155-12.34-11.309-7.018 3.406z" fill="url(#j)"/>



    <path id="ek" transform="translate(-56.182 -4.5359)" d="m9.259 61.057 12.188 11.449 7.17-3.546-12.34-11.309-7.018 3.406z" fill="#fff"/>



    <path id="el" transform="translate(-56.182 -4.5359)" d="m8.628 81.495 0.973-1.404-0.342-19.034 12.188 11.449-2.591 16.349-0.94 1.511-9.288-8.871z" fill="url(#i)"/>



    <path id="em" transform="translate(-56.182 -4.5359)" d="m3.23 84.095 9.189 8.99 5.496-2.719-9.305-8.883-5.38 2.611v1e-3z" fill="url(#h)"/>



  </g>



  


  <path id="en" d="m91.07 45.828 15.429 11.482-18.56 10.262-15.627-12.278 18.759-9.4655z" color="#000000" fill="url(#s)" fill-rule="evenodd" sodipodi:nodetypes="ccccc"/>



<path id="eo" d="m214.18 35.365 5.4695 72.741" fill="none" stroke="#000" stroke-linejoin="miter" stroke-width="1.0002pt"/>

<path id="ep" d="m248.17 35.127 27.099 77.019" fill="none" stroke="#000" stroke-linejoin="miter" stroke-width="1pt" sodipodi:nodetypes="cc"/>

<path id="eq" transform="matrix(-.83799 0 0 .956 332.39 9.0594)" d="m102.73 23.316a0.40686 0.356 0 1 1-0.81372 0 0.40686 0.356 0 1 1 0.81372 0z" fill="#f00" fill-opacity=".75" fill-rule="evenodd" stroke="#000" stroke-linejoin="miter" stroke-width="1pt" sodipodi:cx="102.32476" sodipodi:cy="23.315779" sodipodi:rx="0.40685788" sodipodi:ry="0.35600066" sodipodi:type="arc"/>
</svg>
