<?xml version="1.0" encoding="UTF-8"?>
<svg version="1.1" viewBox="0 0 48 48" xmlns="http://www.w3.org/2000/svg" xmlns:xlink="http://www.w3.org/1999/xlink"><defs><linearGradient id="a"><stop stop-color="#c6cdd1" offset="0"/><stop stop-color="#e0e5e7" offset="1"/></linearGradient><linearGradient id="g" x2="0" y1="543.8" y2="503.8" gradientTransform="translate(-817.14)" gradientUnits="userSpaceOnUse" xlink:href="#a"/><linearGradient id="f" x1="-398.63" x2="-416.57" y1="509.55" y2="539.17" gradientUnits="userSpaceOnUse"><stop stop-color="#2c3e50" offset="0"/><stop stop-color="#0d352d" offset="1"/></linearGradient><linearGradient id="e" x1="9.268" x2="35.667" y1="12.42" y2="38.819" gradientUnits="userSpaceOnUse"><stop stop-color="#3daefd" offset="0"/><stop stop-color="#24a058" offset="1"/></linearGradient><linearGradient id="d" x2="0" y1="500.8" y2="503.8" gradientUnits="userSpaceOnUse" xlink:href="#a"/><linearGradient id="c" x1="411.57" x2="405.57" gradientUnits="userSpaceOnUse" xlink:href="#a"/><linearGradient id="b" x1="10" x2="22" y1="10" y2="22" gradientUnits="userSpaceOnUse"><stop offset="0"/><stop stop-opacity="0" offset="1"/></linearGradient></defs><g transform="translate(-384.57 -499.8)"><g transform="matrix(.70711 -.70711 .70711 .70711 -250.71 442.32)" stroke-linecap="round" stroke-linejoin="round" stroke-width="2"><rect x="407.57" y="501.8" width="2" height="4" fill="#31363b"/><rect x="405.57" y="500.8" width="6" height="2" rx="1" fill="url(#d)"/></g><g transform="matrix(.70711 .70711 -.70711 .70711 490.05 -135.49)" stroke-linecap="round" stroke-linejoin="round" stroke-width="2"><rect x="407.57" y="501.8" width="2" height="4" fill="#31363b"/><rect x="405.57" y="500.8" width="6" height="2" rx="1" fill="url(#c)"/></g><rect transform="scale(-1 1)" x="-428.57" y="503.8" width="40" height="40" rx="20" fill="url(#g)" stroke-opacity=".55026" stroke-width="2.8"/><path d="m388.58 523.3c-4e-3 0.16686-0.0117 0.33212-0.0117 0.5 0 11.08 8.92 20 20 20s20-8.92 20-20c0-0.16788-8e-3 -0.33315-0.0117-0.5-0.26418 10.847-9.0758 19.5-19.988 19.5s-19.724-8.6534-19.988-19.5z" fill="#99a1a7" stroke-opacity=".55026" stroke-width="2.8"/><rect transform="scale(-1 1)" x="-425.57" y="506.8" width="34" height="34" rx="17" fill="url(#f)" stroke-opacity=".55026" stroke-width="2.8"/><path transform="translate(384.57 499.8)" d="m24 8c-0.508 0-1.0062 0.038267-1.5 0.089844v3.0156c0.49288-0.060513 0.99009-0.10547 1.5-0.10547 0.5085 0 1.007 0.035537 1.5 0.091797v-3.0176c-0.49421-0.045594-0.9935-0.074219-1.5-0.074219zm2.6699 0.23828-0.78125 2.9121c1.01 0.1462 1.9827 0.40254 2.9023 0.76562l0.7793-2.9063c-0.92942-0.34373-1.8976-0.604-2.9004-0.77148zm3.9941 1.2188-1.5039 2.6035c0.92891 0.40009 1.7929 0.91448 2.5938 1.5098l1.5098-2.6172c-0.81349-0.57752-1.6823-1.0769-2.5996-1.4961zm-8.8105 0.72656c-0.99246 0.15362-1.9655 0.41358-2.9023 0.77539l0.25781 0.95898c0.93518-0.36723 1.9098-0.62481 2.9043-0.76758l-0.25976-0.9668zm-3.5098 1.0215c-0.91592 0.40701-1.7855 0.9112-2.5938 1.5039l0.50195 0.86914c0.8052-0.59788 1.6769-1.1006 2.5977-1.498l-0.50586-0.875zm15.869 0.46094-2.1406 2.1406c0.78701 0.62316 1.4979 1.3341 2.1211 2.1211l2.1406-2.1406c-0.63912-0.77194-1.3492-1.482-2.1211-2.1211zm-18.986 1.4395c-0.78269 0.62687-1.4958 1.336-2.127 2.1152l0.71875 0.71875c0.6192-0.78938 1.3277-1.5044 2.1113-2.1309l-0.70313-0.70312zm21.82 1.6309-2.6172 1.5098c0.59494 0.80037 1.1098 1.6635 1.5098 2.5918l2.6035-1.502c-0.4192-0.91735-0.91858-1.7861-1.4961-2.5996zm-24.338 1.0137c-0.59091 0.80976-1.0931 1.6806-1.498 2.5977l0.85937 0.49805c0.40144-0.91997 0.90806-1.7904 1.5098-2.5938l-0.87109-0.50195zm26.281 2.6797-2.9062 0.7793c0.36308 0.91968 0.61942 1.8923 0.76562 2.9023l2.9121-0.78125c-0.16749-1.0028-0.42776-1.971-0.77148-2.9004zm-28.047 0.51953c-0.35901 0.93651-0.61635 1.9089-0.76758 2.9004l0.97852 0.26172c0.14432-0.99334 0.40321-1.9666 0.77148-2.9004l-0.98242-0.26172zm8.5566 1.0508c-0.27699 0-0.5 0.22301-0.5 0.5s0.22301 0.5 0.5 0.5h1c0.27699 0 0.5-0.22301 0.5-0.5s-0.22301-0.5-0.5-0.5h-1zm8 0c-0.27699 0-0.5 0.22301-0.5 0.5s0.22301 0.5 0.5 0.5h1c0.27699 0 0.5-0.22301 0.5-0.5s-0.22301-0.5-0.5-0.5h-1zm5 0c-0.27699 0-0.5 0.22301-0.5 0.5s0.22301 0.5 0.5 0.5h1c0.27699 0 0.5-0.22301 0.5-0.5s-0.22301-0.5-0.5-0.5h-1zm-16 1c-0.277 0-0.5 0.223-0.5 0.5v1c0 0.277 0.223 0.5 0.5 0.5s0.5-0.223 0.5-0.5v-1c0-0.277-0.223-0.5-0.5-0.5zm5 0c-0.277 0-0.5 0.223-0.5 0.5v1c0 0.277 0.223 0.5 0.5 0.5s0.5-0.223 0.5-0.5v-1c0-0.277-0.223-0.5-0.5-0.5zm2.5 0a1 1 0 0 0-1 1 1 1 0 0 0 1 1 1 1 0 0 0 1-1 1 1 0 0 0-1-1zm5.5 0c-0.277 0-0.5 0.223-0.5 0.5v1c0 0.277 0.223 0.5 0.5 0.5s0.5-0.223 0.5-0.5v-1c0-0.277-0.223-0.5-0.5-0.5zm5 0c-0.277 0-0.5 0.223-0.5 0.5v1c0 0.277 0.223 0.5 0.5 0.5s0.5-0.223 0.5-0.5v-1c0-0.277-0.223-0.5-0.5-0.5zm-24.402 1.5c-0.05939 0.49789-0.091989 0.99861-0.097656 1.5 0.0018 0.50118 0.030457 1.0019 0.085938 1.5h1.0176c-0.063417-0.49758-0.097979-0.99842-0.10352-1.5 0.0029-0.50143 0.034903-1.0023 0.095703-1.5h-0.99805zm26.811 0c0.056261 0.49296 0.091797 0.9915 0.091797 1.5s-0.035537 1.007-0.091797 1.5h3.0176c0.045594-0.49421 0.074219-0.9935 0.074219-1.5s-0.028629-1.0058-0.074219-1.5h-3.0176zm-17.408 0.5c-0.27699 0-0.5 0.22301-0.5 0.5s0.22301 0.5 0.5 0.5h1c0.27699 0 0.5-0.22301 0.5-0.5s-0.22301-0.5-0.5-0.5h-1zm8 0c-0.27699 0-0.5 0.22301-0.5 0.5s0.22301 0.5 0.5 0.5h1c0.27699 0 0.5-0.22301 0.5-0.5s-0.22301-0.5-0.5-0.5h-1zm-11 1c-0.277 0-0.5 0.223-0.5 0.5v1c0 0.277 0.223 0.5 0.5 0.5s0.5-0.223 0.5-0.5v-1c0-0.277-0.223-0.5-0.5-0.5zm5 0c-0.277 0-0.5 0.223-0.5 0.5v1c0 0.277 0.223 0.5 0.5 0.5s0.5-0.223 0.5-0.5v-1c0-0.277-0.223-0.5-0.5-0.5zm2.5 0a1 1 0 0 0-1 1 1 1 0 0 0 1 1 1 1 0 0 0 1-1 1 1 0 0 0-1-1zm5.5 0c-0.277 0-0.5 0.223-0.5 0.5v1c0 0.277 0.223 0.5 0.5 0.5s0.5-0.223 0.5-0.5v-1c0-0.277-0.223-0.5-0.5-0.5zm5 0c-0.277 0-0.5 0.223-0.5 0.5v1c0 0.277 0.223 0.5 0.5 0.5s0.5-0.223 0.5-0.5v-1c0-0.277-0.223-0.5-0.5-0.5zm-23.35 1.8887-0.9668 0.25977c0.15375 0.99179 0.41371 1.9642 0.77539 2.9004l0.95898-0.25781c-0.36708-0.93456-0.62466-1.9085-0.76758-2.9023zm25.699 0c-0.1462 1.01-0.40254 1.9827-0.76562 2.9023l2.9062 0.7793c0.34373-0.92942 0.604-1.8976 0.77148-2.9004l-2.9121-0.78125zm-17.35 0.11133c-0.27699 0-0.5 0.22301-0.5 0.5s0.22301 0.5 0.5 0.5h1c0.27699 0 0.5-0.22301 0.5-0.5s-0.22301-0.5-0.5-0.5h-1zm8 0c-0.27699 0-0.5 0.22301-0.5 0.5s0.22301 0.5 0.5 0.5h1c0.27699 0 0.5-0.22301 0.5-0.5s-0.22301-0.5-0.5-0.5h-1zm-15.42 3.1504-0.875 0.50586c0.40701 0.91592 0.9112 1.7855 1.5039 2.5938l0.86914-0.50195c-0.59788-0.8052-1.1006-1.6769-1.498-2.5977zm23.859 0.009765c-0.40009 0.92891-0.91448 1.7929-1.5098 2.5938l2.6172 1.5098c0.57752-0.81349 1.0769-1.6823 1.4961-2.5996l-2.6035-1.5039zm-22.131 2.9102-0.70312 0.70313c0.62687 0.78269 1.336 1.4958 2.1152 2.127l0.71875-0.71875c-0.78938-0.6192-1.5044-1.3277-2.1309-2.1113zm20.385 0.001954c-0.62316 0.78701-1.3341 1.4979-2.1211 2.1211l2.1406 2.1406c0.77194-0.63912 1.482-1.3492 2.1211-2.1211l-2.1406-2.1406zm-17.945 2.3555-1.5078 2.6094c0.81288 0.57786 1.6757 1.0913 2.5918 1.5117l1.5117-2.6172c-0.92762-0.40101-1.7954-0.90873-2.5957-1.5039zm15.506 0.001954c-0.80037 0.59494-1.6635 1.1098-2.5918 1.5098l1.502 2.6035c0.91735-0.4192 1.7861-0.91858 2.5996-1.4961l-1.5098-2.6172zm-12.543 1.6484-0.7832 2.918c0.92822 0.34488 1.8966 0.60894 2.8984 0.77734l0.7832-2.9199c-1.0102-0.14707-1.979-0.41083-2.8984-0.77539zm9.5801 0.005859c-0.92026 0.36331-1.8936 0.61947-2.9043 0.76562l0.78125 2.9121c1.0035-0.16747 1.9723-0.42754 2.9023-0.77148l-0.7793-2.9062zm-6.291 0.82031v3.0215c0.49383 0.045835 0.99367 0.074219 1.5 0.074219 0.5065 0 1.0058-0.028629 1.5-0.074219v-3.0176c-0.49296 0.056262-0.9915 0.091797-1.5 0.091797-0.50867 0-1.0071-0.039123-1.5-0.095703z" fill="url(#e)" stroke-opacity=".55026" stroke-width="2.8"/><rect x="398.57" y="519.8" width="2" height="1" rx=".5" fill="#192629" stroke-linecap="round" stroke-linejoin="round" stroke-width="2"/><rect x="397.57" y="520.8" width="1" height="2" rx=".5" ry=".5" fill="#192629" stroke-linecap="round" stroke-linejoin="round" stroke-width="2"/><rect x="397.57" y="523.8" width="1" height="2" rx=".5" ry=".5" fill="#192629" stroke-linecap="round" stroke-linejoin="round" stroke-width="2"/><rect x="398.57" y="522.8" width="2" height="1" rx=".5" fill="#192629" stroke-linecap="round" stroke-linejoin="round" stroke-width="2"/><rect x="398.57" y="525.8" width="2" height="1" rx=".5" fill="#192629" stroke-linecap="round" stroke-linejoin="round" stroke-width="2"/><rect x="402.57" y="520.8" width="1" height="2" rx=".5" ry=".5" fill="#192629" stroke-linecap="round" stroke-linejoin="round" stroke-width="2"/><rect x="402.57" y="523.8" width="1" height="2" rx=".5" ry=".5" fill="#192629" stroke-linecap="round" stroke-linejoin="round" stroke-width="2"/><rect x="410.57" y="520.8" width="1" height="2" rx=".5" ry=".5" fill="#192629" stroke-linecap="round" stroke-linejoin="round" stroke-width="2"/><rect x="410.57" y="523.8" width="1" height="2" rx=".5" ry=".5" fill="#192629" stroke-linecap="round" stroke-linejoin="round" stroke-width="2"/><rect x="415.57" y="520.8" width="1" height="2" rx=".5" ry=".5" fill="#192629" stroke-linecap="round" stroke-linejoin="round" stroke-width="2"/><rect x="415.57" y="523.8" width="1" height="2" rx=".5" ry=".5" fill="#192629" stroke-linecap="round" stroke-linejoin="round" stroke-width="2"/><rect x="416.57" y="522.8" width="2" height="1" rx=".5" fill="#192629" stroke-linecap="round" stroke-linejoin="round" stroke-width="2"/><rect x="416.57" y="525.8" width="2" height="1" rx=".5" fill="#192629" stroke-linecap="round" stroke-linejoin="round" stroke-width="2"/><path transform="translate(384.57 499.8)" d="m12.143 7.9004c-1.6205 1.1933-3.0489 2.6217-4.2422 4.2422l22.463 22.465 4.2441-4.2441-22.465-22.463z" fill="url(#b)" opacity=".2" stroke-linecap="round" stroke-linejoin="round" stroke-width="2"/></g></svg>
