<?xml version="1.0" encoding="UTF-8"?>
<!DOCTYPE svg  PUBLIC '-//W3C//DTD SVG 1.0//EN'  'http://www.w3.org/TR/2001/PR-SVG-20010719/DTD/svg10.dtd' [
	<!ENTITY ns_flows "http://ns.adobe.com/Flows/1.0/">
	<!ENTITY ns_svg "http://www.w3.org/2000/svg">
	<!ENTITY ns_xlink "http://www.w3.org/1999/xlink">
	<!ENTITY st0 "fill:url(#XMLID_26_);stroke:none;">
	<!ENTITY st1 "fill:#949494;stroke:none;">
	<!ENTITY st2 "fill:url(#XMLID_27_);stroke:none;">
	<!ENTITY st3 "fill:url(#XMLID_28_);stroke:none;">
	<!ENTITY st4 "opacity:0.2;fill:url(#XMLID_24_);stroke:none;adobe-blending-mode:multiply;">
	<!ENTITY st5 "fill:url(#XMLID_10_);stroke:none;">
	<!ENTITY st6 "fill:url(#XMLID_29_);stroke:none;">
	<!ENTITY st7 "opacity:0.2;stroke:none;">
	<!ENTITY st8 "stroke:#000000;">
	<!ENTITY st9 "fill:url(#XMLID_11_);stroke:none;">
	<!ENTITY st10 "opacity:0.2;fill:url(#XMLID_6_);stroke:none;adobe-blending-mode:multiply;">
	<!ENTITY st11 "opacity:0.2;fill:url(#XMLID_12_);stroke:none;adobe-blending-mode:multiply;">
	<!ENTITY st12 "fill:url(#XMLID_13_);stroke:none;">
	<!ENTITY st13 "fill:url(#XMLID_14_);stroke:none;">
	<!ENTITY st14 "fill:url(#XMLID_31_);stroke:none;">
	<!ENTITY st15 "opacity:0.2;fill:url(#XMLID_18_);stroke:none;adobe-blending-mode:multiply;">
	<!ENTITY st16 "fill:url(#XMLID_15_);stroke:none;">
	<!ENTITY st17 "fill:url(#XMLID_32_);stroke:none;">
	<!ENTITY st18 "fill:url(#XMLID_16_);stroke:none;">
	<!ENTITY st19 "fill:url(#XMLID_33_);stroke:none;">
	<!ENTITY st20 "fill:url(#XMLID_1_);stroke:none;">
	<!ENTITY st21 "fill:url(#XMLID_17_);stroke:none;">
	<!ENTITY st22 "fill:url(#XMLID_2_);stroke:none;">
	<!ENTITY st23 "fill:url(#XMLID_3_);stroke:none;">
	<!ENTITY st24 "fill:url(#XMLID_19_);stroke:none;">
	<!ENTITY st25 "fill:#7C0000;stroke:none;">
	<!ENTITY st26 "fill:url(#XMLID_4_);stroke:none;">
	<!ENTITY st27 "fill:url(#XMLID_5_);stroke:none;">
	<!ENTITY st28 "fill:#CF0000;stroke:none;">
	<!ENTITY st29 "opacity:0.2;fill:none;stroke:none;">
	<!ENTITY st30 "fill:#616161;stroke:none;">
	<!ENTITY st31 "fill:url(#XMLID_20_);stroke:none;">
	<!ENTITY st32 "fill:#FF0000;stroke:none;">
	<!ENTITY st33 "fill:url(#XMLID_7_);stroke:none;">
	<!ENTITY st34 "fill:url(#XMLID_21_);stroke:none;">
	<!ENTITY st35 "fill:url(#XMLID_8_);stroke:none;">
	<!ENTITY st36 "fill:url(#XMLID_22_);stroke:none;">
	<!ENTITY st37 "fill:url(#XMLID_9_);stroke:none;">
	<!ENTITY st38 "opacity:0.2;fill:url(#XMLID_30_);stroke:none;adobe-blending-mode:multiply;">
	<!ENTITY st39 "fill:url(#XMLID_23_);stroke:none;">
	<!ENTITY st40 "fill:url(#XMLID_25_);stroke:none;">
]>
<svg enable-background="new 0 0 256 256" viewBox="0 0 256 256" xml:space="preserve" xmlns="http://www.w3.org/2000/svg">
	<g id="ah" stroke="#000">
		<path d="m98.6 80.229c-4.785 0-8.678 4.342-8.678 9.679v64.794c0 5.336 3.893 9.678 8.678 9.678h56.769c4.784 0 8.677-4.342 8.677-9.678v-64.794c0-5.337-3.893-9.679-8.677-9.679h-56.769z" fill="#7C0000" stroke="none"/>
		<path d="m101.04 82.668c-4.562 0-8.272 4.159-8.272 9.272v64.793c0 5.113 3.71 9.272 8.272 9.272h56.768c4.561 0 8.271-4.159 8.271-9.272v-64.793c0-5.113-3.711-9.272-8.271-9.272h-56.768z" opacity=".2" stroke="none"/>
		<path d="m100.23 82.262c-4.562 0-8.271 4.16-8.271 9.272v64.793c0 5.113 3.71 9.272 8.271 9.272h56.768c4.561 0 8.271-4.159 8.271-9.272v-64.793c0-5.112-3.71-9.272-8.271-9.272h-56.768z" opacity=".2" stroke="none"/>
		<path d="m99.413 81.449c-4.561 0-8.271 4.159-8.271 9.272v64.793c0 5.113 3.71 9.273 8.271 9.273h56.769c4.561 0 8.271-4.16 8.271-9.273v-64.793c0-5.113-3.71-9.272-8.271-9.272h-56.769z" opacity=".2" stroke="none"/>
		<path d="m98.6 77.529c-6.274 0-11.378 5.554-11.378 12.379v64.794c0 6.826 5.104 12.379 11.378 12.379h56.769c6.273 0 11.377-5.553 11.377-12.379v-64.794c0-6.826-5.104-12.379-11.377-12.379h-56.769z" fill="#f00" stroke="none"/>
		<path d="m98.6 80.636c-4.561 0-8.271 4.159-8.271 9.272v64.794c0 5.112 3.711 9.272 8.271 9.272h56.769c4.56 0 8.271-4.16 8.271-9.272v-64.794c0-5.113-3.711-9.272-8.271-9.272h-56.769z" fill="#CF0000" stroke="none"/>
		<path d="m175.23 49.965c-0.531-1.569-1.937-2.617-3.513-2.617h-13.129v-33.037c0-4.864-3.726-8.808-8.323-8.808h-43.18c-4.598 0-8.323 3.943-8.323 8.808v33.038h-10.518c-1.574 0-2.98 1.047-3.512 2.617-0.531 1.569-0.074 3.323 1.143 4.379l41.735 36.321c1.377 1.2 3.363 1.199 4.741 0l41.736-36.321c1.218-1.059 1.674-2.811 1.143-4.38z" opacity=".2" stroke="none"/>
		<path d="m174.2 47.862c-0.531-1.569-1.937-2.616-3.513-2.616h-13.129v-33.038c0-4.864-3.726-8.808-8.323-8.808h-43.18c-4.598 0-8.323 3.944-8.323 8.808v33.038h-10.517c-1.574 0-2.98 1.047-3.512 2.616-0.531 1.569-0.074 3.323 1.143 4.379l41.735 36.322c1.377 1.2 3.363 1.199 4.741 0l41.736-36.322c1.217-1.058 1.674-2.81 1.142-4.379z" opacity=".2" stroke="none"/>
		<linearGradient id="w" x1="126.98" x2="126.98" y1="161.94" y2="82.669" gradientUnits="userSpaceOnUse">
			<stop stop-color="#949494" offset="0"/>
			<stop stop-color="#B2B2B2" offset=".2528"/>
			<stop stop-color="#B1B1C5" offset="1"/>
			
			
			
			
			
		</linearGradient>
		<path d="m161.61 154.7c0 3.997-2.794 7.238-6.238 7.238h-56.768c-3.444 0-6.238-3.241-6.238-7.238v-64.794c0-3.998 2.794-7.24 6.238-7.24h56.769c3.444 0 6.238 3.242 6.238 7.24v64.794z" fill="url(#w)" stroke="none"/>
		<linearGradient id="l" x1="126.98" x2="126.98" y1="144.23" y2="82.669" gradientUnits="userSpaceOnUse">
			<stop stop-color="#fff" offset="0"/>
			<stop stop-color="#E9E9EF" offset=".1629"/>
			<stop stop-color="#ccc" offset="1"/>
			
			
			
			
			
		</linearGradient>
		<path d="m158.19 138.61c0 3.105-2.517 5.622-5.623 5.622h-51.16c-3.106 0-5.623-2.517-5.623-5.622v-50.318c0-3.105 2.517-5.623 5.623-5.623h51.16c3.106 0 5.623 2.518 5.623 5.623v50.318z" fill="url(#l)" stroke="none"/>
		<linearGradient id="g" x1="126.98" x2="126.98" y1="144.23" y2="82.669" gradientUnits="userSpaceOnUse">
			<stop stop-color="#fff" offset="0"/>
			<stop stop-color="#FAFAFA" offset=".2131"/>
			<stop stop-color="#EDEDED" offset=".4519"/>
			<stop stop-color="#D6D6D6" offset=".7031"/>
			<stop stop-color="#B7B7B7" offset=".9613"/>
			<stop stop-color="#B2B2B2" offset="1"/>
			
			
			
		</linearGradient>
		<path d="m152.56 82.668h-1.05c2.977 0 5.391 2.414 5.391 5.391v48.251c0 2.977-6.838 5.391-9.816 5.391h-40.294c-2.977 0-9.731-2.414-9.731-5.391v-48.25c0-2.978 2.415-5.391 5.393-5.391h-1.052c-3.106 0-5.623 2.518-5.623 5.623v50.318c0 3.105 2.517 5.622 5.623 5.622h51.16c3.106 0 5.623-2.517 5.623-5.622v-50.319c0-3.105-2.517-5.623-5.624-5.623z" fill="url(#g)" stroke="none"/>
		<linearGradient id="f" x1="97.748" x2="97.748" y1="159.55" y2="143.8" gradientUnits="userSpaceOnUse">
			<stop stop-color="#fff" offset="0"/>
			<stop stop-color="#FAFAFA" offset=".2131"/>
			<stop stop-color="#EDEDED" offset=".4519"/>
			<stop stop-color="#D6D6D6" offset=".7031"/>
			<stop stop-color="#B7B7B7" offset=".9613"/>
			<stop stop-color="#B2B2B2" offset="1"/>
			
			
			
		</linearGradient>
		<path d="m96.155 143.8s1.313 2.436 3.562 2.436l-3.936 13.307 0.374-15.743z" fill="url(#f)" stroke="none"/>
		
			<linearGradient id="e" x1="588.12" x2="588.12" y1="159.55" y2="143.8" gradientTransform="matrix(-1 0 0 1 744.33 0)" gradientUnits="userSpaceOnUse">
			<stop stop-color="#fff" offset="0"/>
			<stop stop-color="#FAFAFA" offset=".2131"/>
			<stop stop-color="#EDEDED" offset=".4519"/>
			<stop stop-color="#D6D6D6" offset=".7031"/>
			<stop stop-color="#B7B7B7" offset=".9613"/>
			<stop stop-color="#B2B2B2" offset="1"/>
			
			
			
		</linearGradient>
		<path d="m157.81 143.8s-1.313 2.436-3.562 2.436l3.936 13.307-0.374-15.743z" fill="url(#e)" stroke="none"/>
		<linearGradient id="d" x1="126.98" x2="126.98" y1="151.65" y2="144.38" gradientUnits="userSpaceOnUse">
			<stop stop-color="#fff" offset="0"/>
			<stop offset="1"/>
			
			
			
		</linearGradient>
		<path d="m147.07 147.12h-40.179c-2.297 0-6.164 7.7-9.219 14.734 0.303 0.053 0.61 0.087 0.925 0.087h56.769c0.314 0 0.622-0.034 0.924-0.087-3.056-7.034-6.923-14.734-9.22-14.734z" fill="url(#d)" opacity=".2" stroke="none" style="adobe-blending-mode:multiply"/>
		<path d="m175.64 80.229c-4.785 0-8.678 4.342-8.678 9.679v64.794c0 5.336 3.893 9.678 8.678 9.678h56.768c4.785 0 8.678-4.342 8.678-9.678v-64.794c0-5.337-3.893-9.679-8.678-9.679h-56.768z" fill="#616161" stroke="none"/>
		<path d="m178.08 82.668c-4.562 0-8.271 4.159-8.271 9.272v64.793c0 5.113 3.71 9.272 8.271 9.272h56.768c4.561 0 8.271-4.159 8.271-9.272v-64.793c0-5.113-3.711-9.272-8.271-9.272h-56.768z" opacity=".2" stroke="none"/>
		<path d="m177.27 82.262c-4.562 0-8.271 4.16-8.271 9.272v64.793c0 5.113 3.71 9.272 8.271 9.272h56.769c4.561 0 8.271-4.159 8.271-9.272v-64.793c0-5.112-3.71-9.272-8.271-9.272h-56.769z" opacity=".2" stroke="none"/>
		<path d="m176.45 81.449c-4.562 0-8.271 4.159-8.271 9.272v64.793c0 5.113 3.71 9.273 8.271 9.273h56.769c4.56 0 8.271-4.16 8.271-9.273v-64.793c0-5.113-3.711-9.272-8.271-9.272h-56.769z" opacity=".2" stroke="none"/>
		<path d="m175.64 80.636c-4.561 0-8.271 4.159-8.271 9.272v64.794c0 5.112 3.711 9.272 8.271 9.272h56.768c4.561 0 8.271-4.16 8.271-9.272v-64.794c0-5.113-3.711-9.272-8.271-9.272h-56.768z" fill="#616161" stroke="none"/>
		<linearGradient id="c" x1="204.02" x2="204.02" y1="161.94" y2="82.669" gradientUnits="userSpaceOnUse">
			<stop stop-color="#949494" offset="0"/>
			<stop stop-color="#B2B2B2" offset=".2528"/>
			<stop stop-color="#B1B1C5" offset="1"/>
			
			
			
			
			
		</linearGradient>
		<path d="m238.65 154.7c0 3.997-2.794 7.238-6.239 7.238h-56.767c-3.444 0-6.238-3.241-6.238-7.238v-64.794c0-3.998 2.794-7.24 6.238-7.24h56.768c3.445 0 6.239 3.242 6.239 7.24v64.794z" fill="url(#c)" stroke="none"/>
		<linearGradient id="b" x1="204.02" x2="204.02" y1="144.23" y2="82.669" gradientUnits="userSpaceOnUse">
			<stop stop-color="#fff" offset="0"/>
			<stop stop-color="#E9E9EF" offset=".1629"/>
			<stop stop-color="#ccc" offset="1"/>
			
			
			
			
			
		</linearGradient>
		<path d="m235.23 138.61c0 3.105-2.518 5.622-5.623 5.622h-51.16c-3.105 0-5.623-2.517-5.623-5.622v-50.318c0-3.105 2.518-5.623 5.623-5.623h51.16c3.105 0 5.623 2.518 5.623 5.623v50.318z" fill="url(#b)" stroke="none"/>
		<linearGradient id="a" x1="204.02" x2="204.02" y1="144.23" y2="82.669" gradientUnits="userSpaceOnUse">
			<stop stop-color="#fff" offset="0"/>
			<stop stop-color="#FAFAFA" offset=".2131"/>
			<stop stop-color="#EDEDED" offset=".4519"/>
			<stop stop-color="#D6D6D6" offset=".7031"/>
			<stop stop-color="#B7B7B7" offset=".9613"/>
			<stop stop-color="#B2B2B2" offset="1"/>
			
			
			
		</linearGradient>
		<path d="m229.6 82.668h-1.052c2.979 0 5.393 2.414 5.393 5.391v48.251c0 2.977-6.839 5.391-9.816 5.391h-40.294c-2.978 0-9.731-2.414-9.731-5.391v-48.25c0-2.978 2.414-5.391 5.393-5.391h-1.052c-3.105 0-5.623 2.518-5.623 5.623v50.318c0 3.105 2.518 5.622 5.623 5.622h51.16c3.105 0 5.623-2.517 5.623-5.622v-50.319c-1e-3 -3.105-2.519-5.623-5.624-5.623z" fill="url(#a)" stroke="none"/>
		<linearGradient id="ag" x1="174.79" x2="174.79" y1="159.55" y2="143.8" gradientUnits="userSpaceOnUse">
			<stop stop-color="#fff" offset="0"/>
			<stop stop-color="#FAFAFA" offset=".2131"/>
			<stop stop-color="#EDEDED" offset=".4519"/>
			<stop stop-color="#D6D6D6" offset=".7031"/>
			<stop stop-color="#B7B7B7" offset=".9613"/>
			<stop stop-color="#B2B2B2" offset="1"/>
			
			
			
		</linearGradient>
		<path d="m173.19 143.8s1.313 2.436 3.562 2.436l-3.936 13.307 0.374-15.743z" fill="url(#ag)" stroke="none"/>
		
			<linearGradient id="af" x1="511.08" x2="511.08" y1="159.55" y2="143.8" gradientTransform="matrix(-1 0 0 1 744.33 0)" gradientUnits="userSpaceOnUse">
			<stop stop-color="#fff" offset="0"/>
			<stop stop-color="#FAFAFA" offset=".2131"/>
			<stop stop-color="#EDEDED" offset=".4519"/>
			<stop stop-color="#D6D6D6" offset=".7031"/>
			<stop stop-color="#B7B7B7" offset=".9613"/>
			<stop stop-color="#B2B2B2" offset="1"/>
			
			
			
		</linearGradient>
		<path d="m234.85 143.8s-1.313 2.436-3.562 2.436l3.936 13.307-0.374-15.743z" fill="url(#af)" stroke="none"/>
		<linearGradient id="ae" x1="204.02" x2="204.02" y1="151.65" y2="144.38" gradientUnits="userSpaceOnUse">
			<stop stop-color="#fff" offset="0"/>
			<stop offset="1"/>
			
			
			
		</linearGradient>
		<path d="m224.11 147.12h-40.179c-2.297 0-6.164 7.7-9.219 14.734 0.303 0.053 0.61 0.087 0.925 0.087h56.768c0.315 0 0.622-0.034 0.925-0.087-3.055-7.034-6.923-14.734-9.22-14.734z" fill="url(#ae)" opacity=".2" stroke="none" style="adobe-blending-mode:multiply"/>
		<path d="m21.56 80.229c-4.784 0-8.678 4.342-8.678 9.679v64.794c0 5.336 3.894 9.678 8.678 9.678h56.769c4.785 0 8.677-4.342 8.677-9.678v-64.794c0-5.337-3.893-9.679-8.677-9.679h-56.769z" fill="#616161" stroke="none"/>
		<path d="M24,82.668c-4.562,0-8.272,4.159-8.272,9.272v64.793c0,5.113,3.711,9.272,8.272,9.272h56.768    c4.561,0,8.271-4.159,8.271-9.272V91.94c0-5.113-3.711-9.272-8.271-9.272H24z" opacity=".2" stroke="none"/>
		<path d="m23.186 82.262c-4.562 0-8.271 4.16-8.271 9.272v64.793c0 5.113 3.709 9.272 8.271 9.272h56.768c4.561 0 8.271-4.159 8.271-9.272v-64.793c0-5.112-3.711-9.272-8.271-9.272h-56.768z" opacity=".2" stroke="none"/>
		<path d="m22.373 81.449c-4.561 0-8.271 4.159-8.271 9.272v64.793c0 5.113 3.711 9.273 8.271 9.273h56.769c4.56 0 8.27-4.16 8.27-9.273v-64.793c0-5.113-3.71-9.272-8.27-9.272h-56.769z" opacity=".2" stroke="none"/>
		<path d="m21.56 80.636c-4.561 0-8.271 4.159-8.271 9.272v64.794c0 5.112 3.71 9.272 8.271 9.272h56.769c4.561 0 8.271-4.16 8.271-9.272v-64.794c0-5.113-3.71-9.272-8.271-9.272h-56.769z" fill="#616161" stroke="none"/>
		<linearGradient id="ad" x1="49.944" x2="49.944" y1="161.94" y2="82.669" gradientUnits="userSpaceOnUse">
			<stop stop-color="#949494" offset="0"/>
			<stop stop-color="#B2B2B2" offset=".2528"/>
			<stop stop-color="#B1B1C5" offset="1"/>
			
			
			
			
			
		</linearGradient>
		<path d="m84.566 154.7c0 3.997-2.793 7.238-6.238 7.238h-56.768c-3.444 0-6.238-3.241-6.238-7.238v-64.794c0-3.998 2.794-7.24 6.238-7.24h56.769c3.445 0 6.238 3.242 6.238 7.24v64.794z" fill="url(#ad)" stroke="none"/>
		<linearGradient id="ac" x1="49.944" x2="49.944" y1="144.23" y2="82.669" gradientUnits="userSpaceOnUse">
			<stop stop-color="#fff" offset="0"/>
			<stop stop-color="#E9E9EF" offset=".1629"/>
			<stop stop-color="#ccc" offset="1"/>
			
			
			
			
			
		</linearGradient>
		<path d="m81.147 138.61c0 3.105-2.518 5.622-5.623 5.622h-51.161c-3.105 0-5.623-2.517-5.623-5.622v-50.318c0-3.105 2.517-5.623 5.623-5.623h51.161c3.104 0 5.623 2.518 5.623 5.623v50.318z" fill="url(#ac)" stroke="none"/>
		<linearGradient id="ab" x1="49.944" x2="49.944" y1="144.23" y2="82.669" gradientUnits="userSpaceOnUse">
			<stop stop-color="#fff" offset="0"/>
			<stop stop-color="#FAFAFA" offset=".2131"/>
			<stop stop-color="#EDEDED" offset=".4519"/>
			<stop stop-color="#D6D6D6" offset=".7031"/>
			<stop stop-color="#B7B7B7" offset=".9613"/>
			<stop stop-color="#B2B2B2" offset="1"/>
			
			
			
		</linearGradient>
		<path d="m75.524 82.668h-1.051c2.978 0 5.392 2.414 5.392 5.391v48.251c0 2.977-6.839 5.391-9.816 5.391h-40.295c-2.978 0-9.731-2.414-9.731-5.391v-48.25c0-2.978 2.414-5.391 5.392-5.391h-1.052c-3.105 0-5.623 2.518-5.623 5.623v50.318c0 3.105 2.517 5.622 5.623 5.622h51.161c3.104 0 5.623-2.517 5.623-5.622v-50.319c0-3.105-2.518-5.623-5.623-5.623z" fill="url(#ab)" stroke="none"/>
		<linearGradient id="aa" x1="20.708" x2="20.708" y1="159.55" y2="143.8" gradientUnits="userSpaceOnUse">
			<stop stop-color="#fff" offset="0"/>
			<stop stop-color="#FAFAFA" offset=".2131"/>
			<stop stop-color="#EDEDED" offset=".4519"/>
			<stop stop-color="#D6D6D6" offset=".7031"/>
			<stop stop-color="#B7B7B7" offset=".9613"/>
			<stop stop-color="#B2B2B2" offset="1"/>
			
			
			
		</linearGradient>
		<path d="m19.115 143.8s1.312 2.436 3.561 2.436l-3.936 13.307 0.375-15.743z" fill="url(#aa)" stroke="none"/>
		
			<linearGradient id="z" x1="665.15" x2="665.15" y1="159.55" y2="143.8" gradientTransform="matrix(-1 0 0 1 744.33 0)" gradientUnits="userSpaceOnUse">
			<stop stop-color="#fff" offset="0"/>
			<stop stop-color="#FAFAFA" offset=".2131"/>
			<stop stop-color="#EDEDED" offset=".4519"/>
			<stop stop-color="#D6D6D6" offset=".7031"/>
			<stop stop-color="#B7B7B7" offset=".9613"/>
			<stop stop-color="#B2B2B2" offset="1"/>
			
			
			
		</linearGradient>
		<path d="m80.772 143.8s-1.312 2.436-3.562 2.436l3.936 13.307-0.374-15.743z" fill="url(#z)" stroke="none"/>
		<linearGradient id="y" x1="49.944" x2="49.944" y1="151.65" y2="144.38" gradientUnits="userSpaceOnUse">
			<stop stop-color="#fff" offset="0"/>
			<stop offset="1"/>
			
			
			
		</linearGradient>
		<path d="m70.033 147.12h-40.18c-2.297 0-6.164 7.7-9.218 14.734 0.302 0.053 0.61 0.087 0.924 0.087h56.769c0.315 0 0.622-0.034 0.924-0.087-3.055-7.034-6.922-14.734-9.219-14.734z" fill="url(#y)" opacity=".2" stroke="none" style="adobe-blending-mode:multiply"/>
		<path d="m59.775 166.42c-4.785 0-8.678 4.34-8.678 9.678v64.792c0 5.338 3.894 9.681 8.678 9.681h56.769c4.784 0 8.677-4.343 8.677-9.681v-64.792c0-5.338-3.893-9.678-8.677-9.678h-56.769z" fill="#616161" stroke="none"/>
		<path d="m62.214 168.86c-4.561 0-8.271 4.159-8.271 9.272v64.794c0 5.113 3.711 9.271 8.271 9.271h56.768c4.561 0 8.271-4.158 8.271-9.271v-64.794c0-5.113-3.711-9.272-8.271-9.272h-56.768z" opacity=".2" stroke="none"/>
		<path d="m61.401 168.45c-4.561 0-8.272 4.159-8.272 9.271v64.793c0 5.114 3.711 9.273 8.272 9.273h56.768c4.561 0 8.271-4.159 8.271-9.273v-64.793c0-5.112-3.711-9.271-8.271-9.271h-56.768z" opacity=".2" stroke="none"/>
		<path d="m60.588 167.64c-4.562 0-8.271 4.158-8.271 9.271v64.792c0 5.113 3.71 9.273 8.271 9.273h56.769c4.56 0 8.271-4.16 8.271-9.273v-64.792c0-5.113-3.71-9.271-8.271-9.271h-56.769z" opacity=".2" stroke="none"/>
		<path d="m59.775 166.82c-4.561 0-8.271 4.159-8.271 9.271v64.792c0 5.113 3.711 9.274 8.271 9.274h56.769c4.56 0 8.271-4.161 8.271-9.274v-64.792c0-5.112-3.71-9.271-8.271-9.271h-56.769z" fill="#616161" stroke="none"/>
		<linearGradient id="x" x1="88.159" x2="88.159" y1="248.13" y2="168.86" gradientUnits="userSpaceOnUse">
			<stop stop-color="#949494" offset="0"/>
			<stop stop-color="#B2B2B2" offset=".2528"/>
			<stop stop-color="#B1B1C5" offset="1"/>
			
			
			
			
			
		</linearGradient>
		<path d="m122.78 240.89c0 3.999-2.793 7.241-6.238 7.241h-56.769c-3.445 0-6.239-3.242-6.239-7.241v-64.792c0-3.998 2.794-7.239 6.239-7.239h56.769c3.445 0 6.238 3.241 6.238 7.239v64.792z" fill="url(#x)" stroke="none"/>
		<linearGradient id="v" x1="88.159" x2="88.159" y1="230.42" y2="168.86" gradientUnits="userSpaceOnUse">
			<stop stop-color="#fff" offset="0"/>
			<stop stop-color="#E9E9EF" offset=".1629"/>
			<stop stop-color="#ccc" offset="1"/>
			
			
			
			
			
		</linearGradient>
		<path d="m119.36 224.8c0 3.105-2.518 5.621-5.622 5.621h-51.162c-3.105 0-5.622-2.516-5.622-5.621v-50.319c0-3.105 2.517-5.622 5.622-5.622h51.162c3.104 0 5.622 2.517 5.622 5.622v50.319z" fill="url(#v)" stroke="none"/>
		<linearGradient id="u" x1="88.159" x2="88.159" y1="230.42" y2="168.86" gradientUnits="userSpaceOnUse">
			<stop stop-color="#fff" offset="0"/>
			<stop stop-color="#FAFAFA" offset=".2131"/>
			<stop stop-color="#EDEDED" offset=".4519"/>
			<stop stop-color="#D6D6D6" offset=".7031"/>
			<stop stop-color="#B7B7B7" offset=".9613"/>
			<stop stop-color="#B2B2B2" offset="1"/>
			
			
			
		</linearGradient>
		<path d="m113.74 168.86h-1.051c2.978 0 5.392 2.413 5.392 5.391v48.251c0 2.978-6.839 5.391-9.817 5.391h-40.295c-2.978 0-9.73-2.413-9.73-5.391v-48.251c0-2.978 2.414-5.391 5.392-5.391h-1.052c-3.105 0-5.622 2.517-5.622 5.622v50.319c0 3.105 2.517 5.621 5.622 5.621h51.162c3.104 0 5.622-2.516 5.622-5.621v-50.319c-1e-3 -3.105-2.519-5.622-5.623-5.622z" fill="url(#u)" stroke="none"/>
		<linearGradient id="t" x1="58.924" x2="58.924" y1="245.73" y2="229.99" gradientUnits="userSpaceOnUse">
			<stop stop-color="#fff" offset="0"/>
			<stop stop-color="#FAFAFA" offset=".2131"/>
			<stop stop-color="#EDEDED" offset=".4519"/>
			<stop stop-color="#D6D6D6" offset=".7031"/>
			<stop stop-color="#B7B7B7" offset=".9613"/>
			<stop stop-color="#B2B2B2" offset="1"/>
			
			
			
		</linearGradient>
		<path d="m57.33 229.99s1.312 2.436 3.562 2.436l-3.935 13.307 0.373-15.743z" fill="url(#t)" stroke="none"/>
		
			<linearGradient id="s" x1="626.94" x2="626.94" y1="245.73" y2="229.99" gradientTransform="matrix(-1 0 0 1 744.33 0)" gradientUnits="userSpaceOnUse">
			<stop stop-color="#fff" offset="0"/>
			<stop stop-color="#FAFAFA" offset=".2131"/>
			<stop stop-color="#EDEDED" offset=".4519"/>
			<stop stop-color="#D6D6D6" offset=".7031"/>
			<stop stop-color="#B7B7B7" offset=".9613"/>
			<stop stop-color="#B2B2B2" offset="1"/>
			
			
			
		</linearGradient>
		<path d="m118.99 229.99s-1.312 2.436-3.562 2.436l3.936 13.307-0.374-15.743z" fill="url(#s)" stroke="none"/>
		<linearGradient id="r" x1="88.159" x2="88.159" y1="237.84" y2="230.56" gradientUnits="userSpaceOnUse">
			<stop stop-color="#fff" offset="0"/>
			<stop offset="1"/>
			
			
			
		</linearGradient>
		<path d="m108.25 233.31h-40.18c-2.296 0-6.163 7.699-9.218 14.734 0.302 0.051 0.609 0.087 0.924 0.087h56.769c0.315 0 0.622-0.036 0.924-0.087-3.055-7.035-6.922-14.734-9.219-14.734z" fill="url(#r)" opacity=".2" stroke="none" style="adobe-blending-mode:multiply"/>
		<path d="m136.2 166.42c-4.785 0-8.679 4.34-8.679 9.678v64.792c0 5.338 3.894 9.681 8.679 9.681h56.768c4.785 0 8.678-4.343 8.678-9.681v-64.792c0-5.338-3.893-9.678-8.678-9.678h-56.768z" fill="#616161" stroke="none"/>
		<path d="m138.64 168.86c-4.562 0-8.271 4.159-8.271 9.272v64.794c0 5.113 3.71 9.271 8.271 9.271h56.769c4.56 0 8.271-4.158 8.271-9.271v-64.794c0-5.113-3.711-9.272-8.271-9.272h-56.769z" opacity=".2" stroke="none"/>
		<path d="m137.83 168.45c-4.561 0-8.271 4.159-8.271 9.271v64.793c0 5.114 3.711 9.273 8.271 9.273h56.768c4.562 0 8.271-4.159 8.271-9.273v-64.793c0-5.112-3.71-9.271-8.271-9.271h-56.768z" opacity=".2" stroke="none"/>
		<path d="m137.02 167.64c-4.562 0-8.272 4.158-8.272 9.271v64.792c0 5.113 3.711 9.273 8.272 9.273h56.767c4.562 0 8.271-4.16 8.271-9.273v-64.792c0-5.113-3.71-9.271-8.271-9.271h-56.767z" opacity=".2" stroke="none"/>
		<path d="m136.2 166.82c-4.562 0-8.272 4.159-8.272 9.271v64.792c0 5.113 3.71 9.274 8.272 9.274h56.768c4.561 0 8.271-4.161 8.271-9.274v-64.792c0-5.112-3.711-9.271-8.271-9.271h-56.768z" fill="#616161" stroke="none"/>
		<linearGradient id="q" x1="164.59" x2="164.59" y1="248.13" y2="168.86" gradientUnits="userSpaceOnUse">
			<stop stop-color="#949494" offset="0"/>
			<stop stop-color="#B2B2B2" offset=".2528"/>
			<stop stop-color="#B1B1C5" offset="1"/>
			
			
			
			
			
		</linearGradient>
		<path d="m199.21 240.89c0 3.999-2.793 7.241-6.238 7.241h-56.768c-3.445 0-6.239-3.242-6.239-7.241v-64.792c0-3.998 2.794-7.239 6.239-7.239h56.768c3.445 0 6.238 3.241 6.238 7.239v64.792z" fill="url(#q)" stroke="none"/>
		<linearGradient id="p" x1="164.59" x2="164.59" y1="230.42" y2="168.86" gradientUnits="userSpaceOnUse">
			<stop stop-color="#fff" offset="0"/>
			<stop stop-color="#E9E9EF" offset=".1629"/>
			<stop stop-color="#ccc" offset="1"/>
			
			
			
			
			
		</linearGradient>
		<path d="m195.79 224.8c0 3.105-2.517 5.621-5.622 5.621h-51.161c-3.105 0-5.623-2.516-5.623-5.621v-50.319c0-3.105 2.518-5.622 5.623-5.622h51.161c3.105 0 5.622 2.517 5.622 5.622v50.319z" fill="url(#p)" stroke="none"/>
		<linearGradient id="o" x1="164.59" x2="164.59" y1="230.42" y2="168.86" gradientUnits="userSpaceOnUse">
			<stop stop-color="#fff" offset="0"/>
			<stop stop-color="#FAFAFA" offset=".2131"/>
			<stop stop-color="#EDEDED" offset=".4519"/>
			<stop stop-color="#D6D6D6" offset=".7031"/>
			<stop stop-color="#B7B7B7" offset=".9613"/>
			<stop stop-color="#B2B2B2" offset="1"/>
			
			
			
		</linearGradient>
		<path d="m190.17 168.86h-1.053c2.979 0 5.393 2.413 5.393 5.391v48.251c0 2.978-6.84 5.391-9.816 5.391h-40.294c-2.978 0-9.731-2.413-9.731-5.391v-48.251c0-2.978 2.414-5.391 5.393-5.391h-1.052c-3.105 0-5.623 2.517-5.623 5.622v50.319c0 3.105 2.518 5.621 5.623 5.621h51.161c3.105 0 5.622-2.516 5.622-5.621v-50.319c-1e-3 -3.105-2.518-5.622-5.623-5.622z" fill="url(#o)" stroke="none"/>
		<linearGradient id="n" x1="135.35" x2="135.35" y1="245.73" y2="229.99" gradientUnits="userSpaceOnUse">
			<stop stop-color="#fff" offset="0"/>
			<stop stop-color="#FAFAFA" offset=".2131"/>
			<stop stop-color="#EDEDED" offset=".4519"/>
			<stop stop-color="#D6D6D6" offset=".7031"/>
			<stop stop-color="#B7B7B7" offset=".9613"/>
			<stop stop-color="#B2B2B2" offset="1"/>
			
			
			
		</linearGradient>
		<path d="m133.76 229.99s1.313 2.436 3.562 2.436l-3.936 13.307 0.374-15.743z" fill="url(#n)" stroke="none"/>
		
			<linearGradient id="m" x1="550.51" x2="550.51" y1="245.73" y2="229.99" gradientTransform="matrix(-1 0 0 1 744.33 0)" gradientUnits="userSpaceOnUse">
			<stop stop-color="#fff" offset="0"/>
			<stop stop-color="#FAFAFA" offset=".2131"/>
			<stop stop-color="#EDEDED" offset=".4519"/>
			<stop stop-color="#D6D6D6" offset=".7031"/>
			<stop stop-color="#B7B7B7" offset=".9613"/>
			<stop stop-color="#B2B2B2" offset="1"/>
			
			
			
		</linearGradient>
		<path d="m195.42 229.99s-1.313 2.436-3.562 2.436l3.936 13.307-0.374-15.743z" fill="url(#m)" stroke="none"/>
		<linearGradient id="k" x1="164.59" x2="164.59" y1="237.84" y2="230.56" gradientUnits="userSpaceOnUse">
			<stop stop-color="#fff" offset="0"/>
			<stop offset="1"/>
			
			
			
		</linearGradient>
		<path d="m184.68 233.31h-40.181c-2.296 0-6.163 7.699-9.217 14.734 0.302 0.051 0.608 0.087 0.924 0.087h56.768c0.315 0 0.622-0.036 0.924-0.087-3.054-7.035-6.922-14.734-9.218-14.734z" fill="url(#k)" opacity=".2" stroke="none" style="adobe-blending-mode:multiply"/>
		
			<path d="m43.034 114.12c-2.341-0.683-4.292-1.415-6.513-2.317-0.366-0.146-0.756-0.219-1.122-0.244-3.731-0.244-7.196-2.976-7.196-8.343 0-4.951 3.123-8.634 8.05-8.634 5 0 7.757 3.805 7.757 8.293 0 3.732-1.732 6.367-3.878 7.343v0.097c1.244 0.366 2.658 0.659 3.951 0.928l-1.049 2.877zm-6.902-5.513c2.511 0 3.951-2.366 3.951-5.586 0-3-1.415-5.488-3.951-5.488-2.538 0-4.001 2.464-4.001 5.562 0 3.146 1.489 5.512 3.977 5.512h0.024z" fill="#949494" stroke="none"/>
		
		
			<path d="m70.979 194.07-1.146 4.222h-3.854l5.025-16.44h4.855l5.122 16.44h-4l-1.268-4.222h-4.734zm4.172-2.778-1.024-3.489c-0.269-0.975-0.563-2.219-0.806-3.172h-0.073c-0.219 0.978-0.488 2.219-0.732 3.172l-1 3.489h3.635z" fill="#949494" stroke="none"/>
		
		
			<path d="m143.73 194.48c0.975 0.514 2.536 1.025 4.122 1.025 1.707 0 2.609-0.708 2.609-1.804 0-1.002-0.78-1.612-2.757-2.294-2.731-0.975-4.536-2.488-4.536-4.903 0-2.805 2.365-4.927 6.221-4.927 1.877 0 3.219 0.366 4.194 0.829l-0.829 2.976c-0.634-0.317-1.829-0.781-3.415-0.781-1.61 0-2.391 0.757-2.391 1.586 0 1.05 0.903 1.514 3.049 2.343 2.903 1.073 4.244 2.585 4.244 4.927 0 2.757-2.097 5.099-6.609 5.099-1.879 0-3.732-0.514-4.659-1.025l0.757-3.051z" fill="#949494" stroke="none"/>
		
		
			<path d="m108.86 111.29-3.902-16.441h3.975l1.245 6.757c0.366 1.976 0.707 4.098 0.975 5.781h0.049c0.268-1.805 0.659-3.782 1.074-5.831l1.39-6.708h3.952l1.317 6.928c0.366 1.927 0.634 3.683 0.878 5.513h0.048c0.244-1.83 0.61-3.757 0.952-5.733l1.341-6.708h3.781l-4.244 16.441h-4.025l-1.39-7.074c-0.317-1.658-0.585-3.195-0.78-5.074h-0.049c-0.292 1.854-0.562 3.416-0.951 5.074l-1.562 7.074h-4.074z" fill="#949494" stroke="none"/>
		
		
			<path d="m192.82 104.34h-6.05v3.903h6.756v3.049h-10.464v-16.441h10.123v3.049h-6.415v3.415h6.05v3.025z" fill="#949494" stroke="none"/>
		
		<path d="m151.77 82.492h-49.403c-0.691 0-1.35 0.134-1.958 0.37l24.226 6.444c1.337 0.356 3.265 0.356 4.601 0l24.38-6.485c-0.578-0.21-1.197-0.329-1.846-0.329z" opacity=".2" stroke="none"/>
		<linearGradient id="j" x1="126.89" x2="126.89" y1="101.72" y2="-72.526" gradientUnits="userSpaceOnUse">
			<stop stop-color="#033" offset="0"/>
			<stop stop-color="#006A00" offset="1"/>
			
			
			
		</linearGradient>
		<path d="m172.14 47.904c-0.531-1.569-1.937-2.617-3.513-2.617h-13.129v-33.037c0-4.864-3.726-8.808-8.323-8.808h-43.18c-4.598 0-8.323 3.943-8.323 8.808v33.038h-10.518c-1.574 0-2.98 1.047-3.513 2.617-0.531 1.569-0.073 3.323 1.143 4.379l41.735 36.322c1.377 1.2 3.364 1.199 4.741 0l41.736-36.322c1.218-1.058 1.675-2.811 1.144-4.38z" fill="url(#j)" stroke="none"/>
		
			<radialGradient id="i" cx="101.39" cy="95.967" r="101.19" gradientTransform="matrix(1 0 0 1.0565 0 -24.105)" gradientUnits="userSpaceOnUse">
			<stop stop-color="#fff" offset="0"/>
			<stop stop-color="#F9FDF9" offset=".005"/>
			<stop stop-color="#B3ECB3" offset=".0651"/>
			<stop stop-color="#7CDE7C" offset=".1193"/>
			<stop stop-color="#54D454" offset=".1656"/>
			<stop stop-color="#3CCE3C" offset=".2022"/>
			<stop stop-color="#3c3" offset=".2247"/>
			<stop stop-color="#093" offset=".6798"/>
			
			
			
			
			
		</radialGradient>
		<path d="m151.76 49.236v-36.986c0-2.679-2.061-4.859-4.593-4.859h-43.18c-2.532 0-4.592 2.181-4.592 4.859v36.986h-14.249l41.736 36.322 41.737-36.322h-16.859z" fill="url(#i)" stroke="none"/>
		<linearGradient id="h" x1="125.58" x2="125.58" y1="4.6821" y2="63.472" gradientUnits="userSpaceOnUse">
			<stop stop-color="#fff" offset="0"/>
			<stop stop-color="#3c3" offset="1"/>
			
			
			
		</linearGradient>
		<path d="m116.97 50.964c11.34-7.081 21.557-14.947 33.376-17.555v-21.159c0-1.855-1.424-3.362-3.176-3.362h-43.18c-1.751 0-3.175 1.507-3.175 3.362v38.235c5.218 2.826 10.886 3.66 16.155 0.479z" fill="url(#h)" stroke="none"/>
		<path d="M256,256H0V0h256V256z" fill="none" opacity=".2" stroke="none"/>
	</g>
</svg>
