<?xml version="1.0" encoding="UTF-8"?>
<svg id="ak" viewBox="0 0 64 64" xmlns="http://www.w3.org/2000/svg" xmlns:xlink="http://www.w3.org/1999/xlink"><defs id="al"><linearGradient id="d"><stop id="am" stop-color="#00116c" offset="0"/><stop id="an" stop-color="#06f" offset="1"/></linearGradient><linearGradient id="c"><stop id="ao" stop-color="#e6f9ff" offset="0"/><stop id="ap" stop-color="#bfdeff" offset=".4485"/><stop id="aq" stop-color="#bfd8ff" stop-opacity="0" offset="1"/><stop id="ar" stop-color="#bfe5ff" stop-opacity="0" offset="1"/></linearGradient><linearGradient id="a"><stop id="as" stop-color="#fff" offset="0"/><stop id="at" stop-color="#fff" offset=".20463"/><stop id="au" stop-color="#b4b4b4" offset=".31482"/><stop id="av" stop-color="#363636" offset=".69167"/><stop id="aw" stop-color="#d4d4d4" offset=".87153"/><stop id="ax" stop-color="#8a8a8a" offset="1"/></linearGradient><linearGradient id="e"><stop id="ay" stop-color="#babdb6" offset="0"/><stop id="az" stop-color="#babdb6" stop-opacity="0" offset="1"/></linearGradient><linearGradient id="b"><stop id="ba" stop-color="#15a5ff" offset="0"/><stop id="bb" stop-color="#143a4f" offset="1"/></linearGradient><linearGradient id="f"><stop id="bc" stop-color="#fa0" offset="0"/><stop id="bd" stop-color="#ec7a00" offset="1"/></linearGradient><linearGradient id="g"><stop id="be" stop-color="#ffffbf" offset="0"/><stop id="bf" stop-color="#ffffbf" stop-opacity="0" offset="1"/></linearGradient><radialGradient id="u" cx="44.657" cy="7.0816" r="10.143" gradientTransform="matrix(1.531 -.41685 .32822 1.2055 -26.037 17.16)" gradientUnits="userSpaceOnUse" xlink:href="#g"/><linearGradient id="ab" x1="49.268" x2="51.556" y1="11.351" y2="21.494" gradientUnits="userSpaceOnUse" xlink:href="#f"/><linearGradient id="aa" x1="50.656" x2="50.819" y1="20.281" y2="18.027" gradientTransform="matrix(.85992 0 0 1.2698 3.6244 -.97479)" gradientUnits="userSpaceOnUse"><stop id="bg" stop-color="#ffbf00" offset="0"/><stop id="bh" stop-color="#7a002d" offset="1"/></linearGradient><filter id="aj" x="-.055985" y="-.33655" width="1.112" height="1.6731"><feGaussianBlur id="bi" stdDeviation="1.2419147"/></filter><filter id="ah" x="-.1081" y="-.24846" width="1.2162" height="1.4969"><feGaussianBlur id="bj" stdDeviation="0.16700841"/></filter><filter id="ag"><feGaussianBlur id="bk" stdDeviation="0.51799575"/></filter><filter id="ae" x="-.10205" y="-.18654" width="1.2041" height="1.3731"><feGaussianBlur id="bl" stdDeviation="0.12941853"/></filter><filter id="ad" x="-.15971" y="-.086629" width="1.3194" height="1.1733"><feGaussianBlur id="bm" stdDeviation="0.12941853"/></filter><filter id="ac"><feGaussianBlur id="bn" stdDeviation="0.13807069"/></filter><radialGradient id="t" cx="39.874" cy="42.838" r="9.3425" gradientTransform="matrix(1.1126 0 0 1.7567 -4.6974 -31.64)" gradientUnits="userSpaceOnUse" xlink:href="#f"/><radialGradient id="s" cx="38.912" cy="37.601" r="14.172" gradientTransform="matrix(.47237 .54394 -.58082 .57569 41.853 .99424)" gradientUnits="userSpaceOnUse" xlink:href="#g"/><radialGradient id="r" cx="27.489" cy="23.329" r="14.172" gradientTransform="matrix(.51113 .33424 -.33752 .5891 35.961 6.4076)" gradientUnits="userSpaceOnUse"><stop id="bo" stop-color="#fff379" offset="0"/><stop id="bp" stop-color="#ffa20a" stop-opacity="0" offset="1"/></radialGradient><radialGradient id="q" cx="45.935" cy="32.334" r="1.0924" gradientTransform="matrix(1.1126 0 0 4.9445 -69.842 -121.46)" gradientUnits="userSpaceOnUse" xlink:href="#c"/><radialGradient id="p" cx="44.721" cy="33.237" r=".83284" gradientTransform="matrix(-1.0676 .31345 -1.1127 -3.7896 65.257 147.92)" gradientUnits="userSpaceOnUse"><stop id="bq" stop-color="#e6f9ff" offset="0"/><stop id="br" stop-color="#bfe9ff" offset=".4485"/><stop id="bs" stop-color="#bfe0ff" stop-opacity="0" offset=".65072"/><stop id="bt" stop-color="#bfd8ff" stop-opacity="0" offset="1"/></radialGradient><radialGradient id="o" cx="43.665" cy="33.767" r=".83284" gradientTransform="matrix(2.4089 .22166 -.55318 6.0115 -105.97 -168.69)" gradientUnits="userSpaceOnUse" xlink:href="#c"/><linearGradient id="z" x1="51.458" x2="50.245" y1="28.503" y2="29.269" gradientTransform="matrix(1.2805 .13939 -.14389 1.3219 -20.656 -11.147)" gradientUnits="userSpaceOnUse" xlink:href="#e"/><radialGradient id="n" cx="47.066" cy="24.38" r="4.8588" fx="49.232" fy="24.726" gradientTransform="matrix(1.0937 .13663 -.047013 .37937 -14.7 15.415)" gradientUnits="userSpaceOnUse" xlink:href="#e"/><radialGradient id="m" cx="240.28" cy="355.6" r="1.5975" gradientTransform="matrix(1.3474 .077489 -.039241 .68233 -69.518 94.33)" gradientUnits="userSpaceOnUse"><stop id="bu" stop-color="#57401e" offset="0"/><stop id="bv" stop-color="#57401e" stop-opacity="0" offset="1"/></radialGradient><radialGradient id="l" cx="239.53" cy="355.32" r=".78567" gradientTransform="matrix(.81054 -1.7444 1.1505 .53455 -363.4 583.22)" gradientUnits="userSpaceOnUse" xlink:href="#a"/><linearGradient id="y" x1="32.731" x2="46.02" y1="31" y2="31" gradientTransform="translate(-.61887)" gradientUnits="userSpaceOnUse" xlink:href="#b"/><linearGradient id="x" x1="46.718" x2="54.15" y1="33.644" y2="33.644" gradientTransform="translate(0 -.48211)" gradientUnits="userSpaceOnUse" xlink:href="#b"/><linearGradient id="w" x1="46.718" x2="54.15" y1="33.644" y2="33.644" gradientTransform="translate(0 -.48211)" gradientUnits="userSpaceOnUse" xlink:href="#a"/><radialGradient id="k" cx="40.305" cy="32.708" r="6.157" gradientTransform="matrix(1.2262 -1.2883 .75122 .71496 -34.305 61.305)" gradientUnits="userSpaceOnUse" xlink:href="#a"/><filter id="ai" x="-.087129" y="-.10089" width="1.1743" height="1.2018"><feGaussianBlur id="bw" stdDeviation="0.45990359"/></filter><filter id="af" x="-.20005" y="-.057535" width="1.4001" height="1.1151"><feGaussianBlur id="bx" stdDeviation="0.68697787"/></filter><radialGradient id="j" cx="54.565" cy="32.907" r="2.4395" fx="55.103" fy="33.47" gradientTransform="matrix(1 2.9095e-8 4.4664e-8 1.7749 -.3012 -24.675)" gradientUnits="userSpaceOnUse" xlink:href="#b"/><linearGradient id="v" x1="55.039" x2="51.469" y1="34.872" y2="38" gradientTransform="matrix(.93579 0 0 .9224 3.305 2.4667)" gradientUnits="userSpaceOnUse" xlink:href="#a"/><radialGradient id="i" cx="46.102" cy="12.426" r="1.2449" gradientTransform="matrix(1.9734 -.31209 .61664 2.8964 -53.149 -8.3853)" gradientUnits="userSpaceOnUse" xlink:href="#d"/><radialGradient id="h" cx="46.812" cy="12.797" r="1.2449" gradientTransform="matrix(1.4773 .34674 -.69432 3.0868 -13.46 -42.241)" gradientUnits="userSpaceOnUse" xlink:href="#d"/></defs><g id="by"><path id="bz" transform="matrix(1.1126 0 0 1.1126 -4.6974 -5.2484)" d="m53.114 12.145s-4.8589 11.01-5.1143 14.074c-0.23494 2.8193-1.0477 22.009-1.1875 25.312-0.25396-0.006291-0.47629 8.7e-4 -0.75 0-3.7647-0.01197-9.2591 0.49798-10.312 0.59375-1.4045 0.12769-10.204 2.5964-12 1.1562-2.1034-1.687-15.943-1.1319-18.417 0.018301-0.12769 0.38306 2.8471 0.73439 6.167 0.6067 3.3198-0.12768 7.0195 0.41162 9.0625 0.15625 2.043-0.25537 7.282 0.25538 10.219 0 2.9368-0.25537 4.5955-0.018805 6 0.875 1.4045 0.8938 3.707 0.39282 5.75 1.0312 2.043 0.63843-0.53662 2.8196-0.28125 3.9688 0.25537 1.1492 2.5723-0.13208 3.5938-1.2812 1.0215-1.1492 3.4538-2.6466 3.8368-3.5404 0.20491-0.47812 0.50446 0.28347 1.7569-1.8346l2.4704-1.5415c1.0683-1.8624-0.53387-11.987 0.23225-13.519 0.76612-1.5322 0.40075-7.2097-0.25197-8.709-1.1814-2.7137 7.9849-6.0279 5.6118-10.699-2.173-4.2777-6.3857-6.668-6.3857-6.668zm4.9834 37.026c-0.70552 0.034416-1.4713 0.13962-2.0938 0.1875 0.25537 0.25537-0.7688 2.1794 0.125 2.5625 0.8938 0.38306 4.5991-0.3767 4.3438-1.7812-0.15961-0.87784-1.1991-1.0261-2.375-0.96875z" fill="#382509" fill-rule="evenodd" filter="url(#aj)" opacity=".27313"/><path id="ca" d="m56.704 50.694c-0.56014-0.059248-1.308 0.40488 1.1604 0.77358 0.39012 0.058272 0.61887 0.69623 1.2377 0.61887 0.61887-0.077358 1.083-0.077358 1.3925-0.54151s0.9283-0.30943 1.5472-0.23208c0.61887 0.077359 0.77358-0.15472 0.077358-0.54151-0.69623-0.38679-1.2377-0.61887-1.7019-0.38679-0.46415 0.23208-0.30943-0.61887-1.0057-0.46415-0.69623 0.15472-1.3925 0.54151-1.3925 0.54151l-1.3151 0.23208z" fill="#803f00" fill-rule="evenodd"/><g id="cb" transform="translate(0 -1.3128)" fill-rule="nonzero"><path id="cc" d="m1.4308 40.644c-0.069083 0.011735-0.14868 0.061666-0.20537 0.14669-0.45347 0.6802 0.99606 10.489 2.1297 12.756 0.35895 0.32983 0.60958 0.22635 0.8235-0.023929-0.54427-2.0781-0.633-7.3065-1.1343-9.6516-0.36212-1.6941-1.13-3.3093-1.6136-3.2272zm30.459 8.2436c-1.9258 3.128-6.2044 3.4327-10.099 4.1977-0.14935-0.58001-1.6165-0.94081-2.3172-0.94081-0.69651 0-1.2546 0.42269-1.4082 0.9975-1.363-0.021646-5.7407-0.11752-9.4469-0.058677-2.5102 0.039856-4.4726 0.15566-4.4301 0.41073 0.11337 0.6802 6.4486 1.3392 9.3961 2.0194 2.2107 0.51015 5.0615-0.17542 5.8065-0.46687 0.874-0.18934 1.2305 0.48389 2.1044 0.43506 1.4354 0.067083 12.454 1.1471 13.496-0.67478l-3.1009-5.9193z" fill="#803f00"/><path id="cd" d="m1.4409 40.357c-0.069083 0.011736-0.15194 0.054056-0.20862 0.13908-0.063932 0.095897-0.10888 0.41495-0.10431 0.83449 0.0075222-0.2761 0.054664-0.48185 0.10431-0.55632 0.056683-0.085026 0.13954-0.12735 0.20862-0.13908 0.48358-0.082147 1.2026 1.5473 1.5994 3.2336 0.22673 0.96362 0.43259 3.4551 0.59109 5.7023-0.16077-2.3524-0.34956-4.9539-0.59109-5.9805-0.39678-1.6863-1.1159-3.3158-1.5994-3.2336zm2.1905 9.2141c0.14807 2.0993 0.23105 3.5328 0.24339 3.7724l0.44503 0.1094c0-1e-6 -0.54736-1.8177-0.68842-3.8818zm28.636 1.2562-10.486 1.9774c-0.14935-0.58001-1.5942-0.9388-2.2948-0.9388-0.69651 2e-6 -1.2719 0.43354-1.4256 1.0083-1.363-0.021648-5.7513-0.12838-9.4575-0.069541-2.5102 0.039858-4.4583 0.16217-4.4158 0.41724 0.0094474 0.056683 0.082158 0.093811 0.17385 0.13908 0.51658-0.17005 2.1817-0.24545 4.242-0.27816 3.7062-0.058844 8.0945 0.047894 9.4575 0.069539 0.15363-0.5748 0.72907-1.0083 1.4256-1.0083 0.70069 0 2.1455 0.35879 2.2948 0.9388l10.486-1.9774v-0.27816z" fill="#ff7e00"/></g><g id="ce" transform="matrix(1.1893 0 0 1 -9.466 0)" fill-rule="nonzero"><path id="cf" d="m51.127 46.351c-0.46371-6.2451-0.59598-8.5315 1.0785-16.493 0.6114-2.907-1.7894-5.6131-4.5945-5.9006-2.8051-0.28758-5.3121 1.8833-5.5793 4.8577 0.24573 8.4712-8.9606 6.6383-10.477 16.7-0.50487 5.6208 3.4961 10.641 8.9115 11.197 5.4155 0.55518 11.125-4.1151 10.661-10.36z" fill="url(#t)"/><path id="cg" transform="matrix(1.0337 0 0 1.1126 -1.3038 -5.2484)" d="m46.531 26.219c-1.4099 0.006778-2.6852 0.7115-3.5312 1.8125 0.52723-0.15389 1.0802-0.2153 1.6562-0.15625 2.5211 0.25846 0.64212-1.3195 1.4794 1.1828 1.802 5.3856 2.2522 13.526 1.6768 18.942-0.29346 2.7626-0.94756 5.1885-2.75 6.875 3.0694-1.4547 5.4115-4.6412 5.125-8.5-0.41676-5.6128-0.5362-7.6571 0.96875-14.812 0.5495-2.6127-1.6351-5.054-4.1562-5.3125-0.15757-0.016154-0.3137-0.031995-0.46875-0.03125z" fill="#803f00" filter="url(#af)"/><path id="ch" d="m51.127 46.351c-0.46371-6.2451-0.59598-8.5315 1.0785-16.493 0.6114-2.907-1.7894-5.6131-4.5945-5.9006-2.8051-0.28758-5.3121 1.8833-5.5793 4.8577 0.24573 8.4712-8.9606 6.6383-10.477 16.7-0.50487 5.6208 3.4961 10.641 8.9115 11.197 5.4155 0.55518 11.125-4.1151 10.661-10.36z" fill="url(#s)"/><path id="ci" d="m51.127 46.351c-0.46371-6.2451-0.59598-8.5315 1.0785-16.493 0.6114-2.907-1.7894-5.6131-4.5945-5.9006-2.8051-0.28758-5.3121 1.8833-5.5793 4.8577 0.24573 8.4712-8.9606 6.6383-10.477 16.7-0.50487 5.6208 3.4961 10.641 8.9115 11.197 5.4155 0.55518 11.125-4.1151 10.661-10.36z" fill="url(#r)"/><path id="cj" d="m47.608 23.964c-2.8051-0.28758-5.3146 1.8808-5.5818 4.8552 0.24573 8.4712-9.1288 6.4204-10.645 16.482-0.54287 5.746 1.7466 7.8956 4.831 9.8962-2.8087-2.0594-4.5134-5.5828-4.173-9.3725 1.5165-10.061 10.707-8.2293 10.461-16.701 0.26716-2.9743 2.7766-5.1428 5.5817-4.8552 0.75652 0.077556 1.4899 0.34561 2.1365 0.73148-0.75654-0.56726-1.6593-0.9388-2.6106-1.0363z" fill="#bf5e00"/><path id="ck" d="m51.239 26.013c0.48038 0.91667 0.67271 1.9835 0.44344 3.0736-1.6745 7.9615-1.5314 10.254-1.0677 16.499 0.46371 6.2451-5.2598 10.898-10.675 10.343-2.8601-0.29321-5.3039-1.8255-6.9195-4.0403 1.5776 2.6294 4.2536 4.4891 7.4385 4.8157 5.4155 0.55518 11.139-4.0976 10.675-10.343-0.46371-6.2451-0.60679-8.5374 1.0677-16.499 0.29757-1.4148-0.1337-2.7849-0.9625-3.8489z" fill="#803f00"/><path id="cl" d="m33.53 40.323c1.0806-1.4337 2.8379-2.2291 4.5887-2.4407 1.2924-0.1794 2.7545 0.18777 3.5516 1.2864 0.91796 1.1309 1.1834 2.6445 1.1321 4.065 0.037957 1.2459-0.69119 2.462-1.7638 3.0759-0.6014 0.38706-1.4736 0.39752-1.9854-0.14748-0.66473-0.64176-0.91149-1.5921-0.88041-2.4932-0.047321-0.91783 0.20503-1.9391 0.95432-2.5315 0.46998-0.37364 1.1785-0.36752 1.6251 0.04134 0.35098 0.13111 0.42302 1.2765-0.056231 0.9184-0.13224-0.98942-1.1309-0.84653-1.5613-0.51064-0.62591 0.45337-0.7709 1.7268-0.83806 2.425-0.013576-0.19491 0.027639-1.1601 0.039865-0.49889 0.084048 0.80999 0.38052 2.0432 1.1376 2.4226 0.89192 0.53659 1.8598-0.15796 2.3442-0.84979 0.47936-0.68467 0.86385-1.7049 0.84354-2.5354 0.001565 0.27876 0.009952 0.75201 0.005431 0.91224-0.006491-1.4603-0.48048-3.0069-1.6182-3.9845-1.1428-0.91984-2.7446-0.86396-4.0831-0.47461-1.3135 0.38442-2.5671 1.1173-3.3597 2.2573-0.39286 0.36208-0.21269-0.87782-0.076171-0.93744z" fill="#bf5e00"/><path id="cm" d="m46.818 35.784c-0.40239-0.76779-0.71704-1.4717-1.5147-1.7742-0.57876-0.22694-1.2105-0.42007-1.831-0.36079-0.28139-0.016486-0.80928-0.089825-0.78466-0.32824 0.011821-0.2353 0.16401-0.50528 0.42635-0.50558 0.90723-0.070996 1.8118 0.21144 2.5945 0.65637 0.50698 0.30526 0.96538 0.72077 1.2527 1.2434 0.13657 0.33287 0.15662 0.71419 0.073722 1.063-0.024797 0.16516-0.17047 0.16152-0.21701 0.006155z" fill="#bf5e00"/></g><path id="cn" d="m52.53 28.777c-0.47731-0.078576-1.6533 2.2574-0.99808 5.5558 1.2476 2.9231 2.2835 3.0136 3.2321 5.3806 1.7844 2.5144 0.13512 1.6273 1.3779 5.5114 0.51836 1.2939 1.8186 3.8845 2.1468 6.0452 0 0 0.62143 0.34952 0.99916 0.273 0.37773-0.076518-0.52939-4.7922-0.60493-6.3991-0.2523-2.0166-1.3871-3.544-1.3448-5.5738 0-0.59134-0.19891-0.94401-0.63678-0.94401-0.81028-2.5756-2.3785-5.7761-3.9836-9.6859-0.054465-0.083859-0.11968-0.29524-0.18787-0.1631z" fill="#803f00" fill-rule="evenodd"/><g id="co" transform="matrix(1.1126 0 0 1.1126 -5.7717 -4.7455)" fill-rule="nonzero"><path id="cp" d="m48.659 43.817c2.4359 2.1032 0.85112 9.1756-1.8341 13.685-1.1829 1.9865-2.0913 3.8627-3.7903 3.942-2.1079-0.61855-3.9517-1.9753-2.6503-4.505 0.95139-1.8493 1.0271-3.1759 1.3131-4.8169 0.80725-4.6321 4.4375-9.0457 6.5454-8.4272 0.13175 0.038659 0.29597 0.056524 0.4161 0.1221z" fill="#2e3436"/><path id="cq" d="m47.611 43.4c-2.1387-0.007805-5.4008 4.1533-6.1576 8.4959-0.28598 1.6409-0.33469 2.9832-1.2861 4.8325-0.55503 1.0789-0.52148 1.9252-0.15589 2.6111-0.096675-0.55861 2.41e-4 -1.1915 0.38972-1.9486 0.95139-1.8493 1.0001-3.1916 1.2861-4.8325 0.80725-4.6321 4.4394-9.0365 6.5473-8.4179 0.13175 0.03866 0.30856 0.05134 0.42869 0.11692 0.29679 0.25625 0.55777 0.58413 0.74047 0.9743-0.19328-0.69409-0.51757-1.2425-0.9743-1.6368-0.12013-0.065577-0.29694-0.078257-0.42869-0.11692-0.13175-0.038659-0.24714-0.077424-0.38972-0.077944z" fill="#d3d7cf"/><path id="cr" d="m43.977 50.905c-0.01109-0.069282-0.017141-0.13922-0.022934-0.2091-0.009091-0.10894-0.01463-0.21805-0.015419-0.32736-0.010149-0.34536-0.015877-0.68758 0.045628-1.0268 0.028779-0.16442 0.07198-0.326 0.12036-0.48562 0.0548-0.17738 0.12466-0.34892 0.20326-0.51691 0.086234-0.17639 0.18004-0.34884 0.27823-0.51882 0.1034-0.17145 0.21606-0.33698 0.33777-0.49589 0.12336-0.15945 0.26523-0.30267 0.41276-0.43951 0.14375-0.13435 0.30269-0.24981 0.46997-0.35274 0.16833-0.10304 0.35464-0.16382 0.5452-0.2097 0.1931-0.046095 0.3907-0.051135 0.58789-0.041083 0.19374 0.007656 0.37722 0.065768 0.55561 0.13718 0.18443 0.076382 0.35783 0.17516 0.5253 0.28309 0.15925 0.1005 0.30162 0.22299 0.43602 0.35414 0.12494 0.12286 0.22917 0.26314 0.31417 0.41592 0.16285 0.34248 0.1197 0.73661 0.088681 1.1063-0.019034 0.19537-0.068139 0.38535-0.12715 0.57194-0.064608 0.20266-0.18576 0.37475-0.31724 0.53881-0.14459 0.17702-0.30823 0.3367-0.47662 0.49073-0.15481 0.14588-0.32907 0.26534-0.51358 0.3698-0.16657 0.088714-0.34188 0.15744-0.52593 0.19869-0.17419 0.035215-0.34452 0.005741-0.5119-0.044449-0.1551-0.054365-0.298-0.13662-0.43305-0.2292-0.13118-0.092204-0.22732-0.21904-0.31721-0.34953-0.082511-0.12125-0.14701-0.25251-0.19742-0.3899-0.085327-0.30925-0.099302-0.65513-0.030951-0.96616 0.028546-0.11794 0.096258-0.21433 0.18411-0.29546 0.10528-0.085812 0.23347-0.13543 0.36057-0.17918 0.12766-0.043561 0.26048-0.060777 0.39474-0.061302 0.12093 0.001201 0.23638 0.032837 0.34772 0.0775 0.066446 0.02785 0.12632 0.067203 0.18469 0.10881 0.24888 0.17742 0.19883 0.80708-0.03988 0.6162-0.052821-0.042238-0.10759-0.081924-0.16897-0.11112-0.10314-0.044313-0.21043-0.076172-0.32364-0.078576-0.12723-8.26e-4 -0.2532 0.014789-0.37386 0.057275-0.11936 0.043905-0.24026 0.092744-0.3331 0.18265-0.075746 0.083232-0.12989 0.17829-0.14616 0.29136-0.025499 0.23921-0.004297 0.059802-0.008386-0.49288-0.001173-0.15841-0.006901 0.40787 0.029192 0.24553 0.041199 0.13864 0.1027 0.2702 0.18076 0.39208 0.082888 0.12819 0.1722 0.25415 0.29514 0.34739 0.12775 0.093589 0.26477 0.1751 0.41374 0.2304 0.15684 0.049621 0.31642 0.080636 0.48061 0.046512 0.17808-0.039648 0.3475-0.10751 0.50835-0.1936 0.18023-0.10231 0.34912-0.22155 0.5005-0.3638 0.16649-0.15259 0.32667-0.31262 0.46668-0.49029 0.12532-0.16559 0.23735-0.33959 0.29508-0.54147 0.055116-0.1867 0.10041-0.37672 0.11313-0.57165 0.011036-0.24613 0.007562-0.2035 0.00676 0.40765-1.92e-4 0.1466-0.02676-0.47634-0.070991-0.32103-0.075733-0.15401-0.17586-0.29321-0.2958-0.41628-0.12945-0.13252-0.26796-0.25529-0.42334-0.3571-0.16334-0.1077-0.33267-0.20603-0.51364-0.2815-0.17209-0.069283-0.34873-0.12786-0.53584-0.13634-0.19138-0.009931-0.38322-0.007128-0.5704 0.039725-0.18437 0.046295-0.364 0.10845-0.52627 0.20976-0.16309 0.10285-0.31756 0.21813-0.45837 0.35025-0.14426 0.13681-0.28274 0.27997-0.40261 0.43906-0.11877 0.15901-0.22978 0.32378-0.33015 0.49508-0.09643 0.17041-0.18944 0.34279-0.27265 0.52012-0.07538 0.16858-0.14241 0.34061-0.19439 0.51799-0.045516 0.16138-0.086661 0.32426-0.1124 0.49012-0.037009 0.24737-0.058458 0.8928-0.035133-0.17827-5.2e-4 0.10619 0.00221 0.21211 0.011963 0.31794 0.005214 0.067375 0.010635 0.13477 0.019425 0.2018 0.040367 0.30778-0.039576 0.92736-0.08864 0.62085z" fill="#d3d7cf"/></g><g id="cs" transform="matrix(1.0218 .054923 -.073549 .9408 .79301 -2.5005)" fill-rule="nonzero"><path id="ct" transform="matrix(1.0381 0 0 1.0229 -4.1541 5.5826)" d="m59.411 11.351a10.143 10.143 0 1 1-20.287 0 10.143 10.143 0 1 1 20.287 0z" fill="#803f00"/><path id="cu" transform="translate(-2.3528 5.9196)" d="m59.411 11.351a10.143 10.143 0 1 1-20.287 0 10.143 10.143 0 1 1 20.287 0z" fill="url(#ab)"/><path id="cv" transform="matrix(.96783 0 0 .99114 1.6995 .11187)" d="m55.855 12.622c0.27251 0.91667 0.4375 1.9015 0.4375 2.9062-1e-6 5.5992-4.5571 10.125-10.156 10.125-4.0744 0-7.5748-2.407-9.1875-5.875 1.2461 4.1915 5.1244 7.25 9.7188 7.25 5.5992 0 10.125-4.5571 10.125-10.156 0-1.5248-0.33398-2.9522-0.9375-4.25z" fill="#c75b00" filter="url(#ag)"/><path id="cw" transform="translate(-2.3528 5.9196)" d="m59.411 11.351a10.143 10.143 0 1 1-20.287 0 10.143 10.143 0 1 1 20.287 0z" fill="url(#u)"/><path id="cx" d="m47.576 8.2508c0.086153-0.025672 0.17482-0.042398 0.26334-0.058764 0.13382-0.023292 0.26885-0.04 0.40398-0.05467 0.17046-0.015324 0.3402-0.035717 0.50994-0.056857 0.18455-0.025142 0.37001-0.041869 0.55638-0.046086 0.18324-0.0041377 0.36559 0.011399 0.5469 0.034718 0.174 0.021736 0.3422 0.069165 0.50625 0.12702 0.12836 0.0448 0.25008 0.10302 0.36606 0.17149 0.083058 0.051378 0.15701 0.11344 0.21798 0.18756 0.18086 0.24729 0.071739 0.55231 0.068199 0.84978-0.021236 0.072082-0.072522 0.12581-0.13252 0.17147-0.052231 0.039206-0.11246 0.0583-0.17727 0.067781-0.33748 0.049368-0.34551-0.5825-0.012769-0.65533 0.052721-0.011539 0.099753-0.031123 0.1392-0.067563 0.046267-0.045826 0.079241-0.096916 0.085164-0.16179 0.008639 1.1911 0.071858 0.65207-0.035533 0.44686-0.050769-0.075552-0.11404-0.1405-0.19202-0.19182-0.10972-0.072245-0.22698-0.13254-0.35103-0.17981-0.15849-0.059295-0.3212-0.10836-0.49068-0.12983-0.17793-0.022776-0.35665-0.039872-0.53654-0.035142-0.18396 0.0030631-0.36694 0.020156-0.5488 0.046701-0.16991 0.022366-0.34006 0.042408-0.5104 0.061515-0.13336 0.017708-0.26681 0.03573-0.39844 0.063043-0.086832 0.018395-0.1734 0.038334-0.25668 0.068553-0.32078 0.11639-0.34834-0.56119-0.020705-0.65882z" fill="#bf5e00" filter="url(#ah)" opacity=".4978"/><path id="cy" d="m38.888 20.017c0.58912 2.6997 4.0782 4.7619 8.2967 4.7619 4.2001 0 7.685-2.0397 8.2967-4.7222-1.1294 1.1364-4.4237 1.9841-8.2967 1.9841-3.9047 0-7.1938-0.87295-8.2967-2.0238z" fill="url(#aa)"/><path id="cz" transform="matrix(1.2614 .27748 .27748 -1.2614 -10.444 18.182)" d="m47.499 12.255a1.2449 2.841 0 1 1-2.4899 0 1.2449 2.841 0 1 1 2.4899 0z" fill="#eeeeec"/><path id="da" transform="matrix(1.2614 -.27748 .27748 1.2614 -19.227 12.934)" d="m47.499 12.255a1.2449 2.841 0 1 1-2.4899 0 1.2449 2.841 0 1 1 2.4899 0z" fill="#eeeeec"/><path id="db" transform="matrix(.89481 -.20614 .19684 .93709 -1.0258 14.343)" d="m47.499 12.255a1.2449 2.841 0 1 1-2.4899 0 1.2449 2.841 0 1 1 2.4899 0z" fill="url(#h)"/><path id="dc" d="m41.328 11.138c-1.2014 0.19069-1.6859 1.9593-1.0828 3.9375 0.20104 0.6594 0.5154 1.2491 0.86622 1.75-0.24089-0.41121-0.45557-0.88045-0.60635-1.375-0.60311-1.9782-0.11864-3.7468 1.0828-3.9375 0.75088-0.11918 1.6136 0.42128 2.2955 1.3125-0.71538-1.1162-1.7043-1.8226-2.5553-1.6875z" fill="#4d2600"/><path id="dd" d="m42.246 13.364c-0.32131 0.078123-0.51237 0.5373-0.5922 1.1563 0.10769-0.4135 0.28199-0.68898 0.53298-0.75 0.58264-0.14166 1.3064 0.93666 1.5989 2.4063 0.13119 0.65914 0.12414 1.2466 0.05922 1.75 0.13829-0.54566 0.16488-1.3278 0-2.1562-0.29249-1.4696-1.0163-2.5479-1.5989-2.4063z" fill="#00c4cc"/><path id="de" transform="matrix(-.89481 -.20614 -.19684 .93709 94.865 14.343)" d="m47.499 12.255a1.2449 2.841 0 1 1-2.4899 0 1.2449 2.841 0 1 1 2.4899 0z" fill="url(#i)"/><path id="df" d="m52.536 11.201c1.1227 0.19069 1.5754 1.9593 1.0118 3.9375-0.18786 0.6594-0.48163 1.2491-0.80946 1.75 0.2251-0.41121 0.42572-0.88045 0.56662-1.375 0.5636-1.9782 0.11087-3.7468-1.0118-3.9375-0.70168-0.11918-1.5078 0.42128-2.1451 1.3125 0.6685-1.1162 1.5927-1.8226 2.3879-1.6875z" fill="#4d2600"/><path id="dg" d="m51.593 13.364c0.32131 0.078123 0.51237 0.5373 0.5922 1.1563-0.10769-0.4135-0.28199-0.68898-0.53298-0.75-0.58264-0.14166-1.3064 0.93666-1.5989 2.4063-0.13119 0.65914-0.12414 1.2466-0.05922 1.75-0.13829-0.54566-0.16488-1.3278 0-2.1562 0.29249-1.4696 1.0163-2.5479 1.5989-2.4063z" fill="#00c4cc"/><path id="dh" d="m47.221 8.8561c-0.063514-0.035414-0.11484-0.086843-0.16418-0.13934-0.074046-0.07845-0.14105-0.16319-0.20637-0.24892-0.090992-0.12312-0.17562-0.25072-0.25516-0.38149-0.10033-0.16688-0.17306-0.34739-0.24075-0.52929-0.078929-0.22115-0.14364-0.44696-0.20571-0.6733-0.065496-0.24084-0.12286-0.48373-0.1723-0.72834-0.050431-0.24459-0.086257-0.49161-0.11342-0.73974-0.035532-0.46225-0.051327-0.93019 0.007882-1.3909 0.03186-0.2415 0.098976-0.47474 0.1898-0.70011 0.094054-0.22875 0.22603-0.43857 0.36576-0.64161 0.14099-0.2002 0.29976-0.38671 0.47921-0.55318 0.19798-0.1746 0.43069-0.30019 0.66332-0.42149 0.23598-0.1275 0.48094-0.22387 0.74301-0.27915 0.2729-0.049415 0.55078-0.061095 0.82754-0.063907 0.25357-0.0014403 0.50544 0.029444 0.75502 0.071495 0.20378 0.037246 0.40235 0.097471 0.59558 0.17141 0.14927 0.054773 0.28322 0.13597 0.39853 0.24486 0.090914 0.093099 0.12891 0.20779 0.14222 0.33419 0.017517 0.37891 0.063749 0.69959-0.088359 1.0282-0.056211 0.11883-0.14706 0.21289-0.24161 0.30183-0.1072 0.098045-0.22809 0.17848-0.35402 0.25008-0.12254 0.071572-0.25629 0.11219-0.3953 0.1355-0.12938 0.018405-0.25962 0.0059022-0.38743-0.017022-0.11913-0.02496-0.23182-0.069749-0.33474-0.13426-0.083464-0.054606-0.14409-0.13206-0.19262-0.21781-0.17178-0.30352-0.067162-1.0178 0.077245-0.70035 0.037745 0.082978 0.084027 0.16145 0.15729 0.21836 0.090915 0.067772 0.1951 0.11132 0.30566 0.1366 0.1194 0.023073 0.24168 0.034792 0.36288 0.018488 0.13102-0.022581 0.25621-0.06393 0.37075-0.13295 0.12108-0.070702 0.2364-0.15109 0.33647-0.24998 0.087433-0.089212 0.16776-0.18453 0.2137-0.3025 0.10252-0.27085 0.079202-0.82418 0.064174 0.35719 6.06e-4 -0.12023-0.015863-0.23441-0.091849-0.33252-0.10106-0.11416-0.228-0.19494-0.36905-0.25251-0.18763-0.078316-0.38189-0.14016-0.58127-0.18094-0.24527-0.044919-0.49287-0.078874-0.74279-0.078873-0.27225 0.0010189-0.54562 0.013207-0.81368 0.064251-0.25513 0.057266-0.49423 0.15617-0.72512 0.27898-0.2284 0.11969-0.45412 0.24826-0.64432 0.42479-0.17246 0.1686-0.32882 0.35244-0.4649 0.55188-0.13576 0.20259-0.2631 0.41197-0.35048 0.6407-0.083939 0.22561-0.14592 0.45811-0.17284 0.69793-0.02524 0.24017-0.017919 0.72686-0.021752-0.30616-0.001309-0.3528-0.014226 0.70923 0.014445 0.36327 0.025221 0.24799 0.056969 0.49524 0.10728 0.73959 0.047486 0.24399 0.10254 0.48631 0.16782 0.72622 0.060628 0.22409 0.12386 0.44765 0.20058 0.66686 0.064783 0.17763 0.13371 0.35422 0.22904 0.51818 0.076399 0.12872 0.15871 0.25374 0.24878 0.37338 0.061671 0.083398 0.12917 0.16245 0.19849 0.23958 0.045489 0.045933 0.086863 0.097454 0.14372 0.13022 0.30602 0.17637 0.27232 0.88469-0.03617 0.71268z" fill="#803f00"/><path id="di" d="m50.125 19.937c-1.1227-0.19069-1.5754-1.9593-1.0118-3.9375 0.18786-0.6594 0.48163-1.2491 0.80946-1.75-0.2251 0.41121-0.42572 0.88045-0.56662 1.375-0.5636 1.9782-0.11087 3.7468 1.0118 3.9375 0.70168 0.11918 1.5078-0.42128 2.1451-1.3125-0.6685 1.1162-1.5927 1.8226-2.3879 1.6875z" fill="#bf5e00"/><path id="dj" d="m43.69 19.873c1.2014-0.19069 1.6859-1.9593 1.0828-3.9375-0.20104-0.6594-0.5154-1.2491-0.86622-1.75 0.24089 0.41121 0.45557 0.88045 0.60635 1.375 0.60311 1.9782 0.11864 3.7468-1.0828 3.9375-0.75088 0.11918-1.6136-0.42128-2.2955-1.3125 0.71538 1.1162 1.7043 1.8226 2.5553 1.6875z" fill="#bf5e00"/></g><path id="dk" d="m33.586 37.178c2.0145-0.57355 3.4102-0.77358 4.176-0.63764 2.0643-3.2938 4.5909-3.9089 7.5675-9.2991 0.98461-0.2188-0.65641-1.3128-1.4222-1.3128s-3.1726 1.4222-3.1726 1.4222l-1.9692 5.9077-2.188 2.0786-2.9914 1.8411z" fill="#803f00" fill-rule="evenodd" filter="url(#ai)"/></g><g id="dl"><path id="dm" d="m53.377 27.546c-0.023835 2.3862 3.2931 4.4516 2.8623 5.6472-0.28846 0.80056-3.0943 3.9453-3.6358 4.2547-0.54151 0.30943-1.1604-0.61887-1.1604-0.61887s-1.0057-3.7132-0.46415-5.5698 2.3981-3.6358 2.3981-3.7132z" fill="url(#j)" fill-rule="evenodd"/><path id="dn" d="m55.446 32.214c-0.006651 0.031708-0.018039 0.055826-0.029244 0.086475-0.31394 0.85882-3.3585 4.2512-3.9478 4.5832 0.034448 0.049954 0.56186 0.853 1.0528 0.5765 0.50674-0.28542 3.1515-3.1818 3.4215-3.9202 0.13054-0.35711-0.11741-0.81777-0.49714-1.326z" fill="url(#v)" fill-rule="evenodd"/><path id="do" d="m44.868 26.094c-1.8056 2.1373-4.5394 5.4944-7.2717 9.5925-0.43204 0.98158-1.4772 0.58218-4.2547 1.6698-1.2234 0.47909 2.8613-2.9162 3.4983-3.4444 0.67371-0.55866 4.3149-5.3424 4.1602-6.5802s-0.46415-2.3208 0.61887-2.4755 3.7132 1.083 3.2491 1.2377z" fill="url(#y)" fill-rule="evenodd"/><path id="dp" d="m46.725 26.076c0.61887 2.6302 2.0848 7.6452 1.9301 9.0377-0.15472 1.3925 0.70012 7.0529 1.7831 7.0529 1.083 0 0.77358-0.77358 2.3208-1.2377s-0.61887-5.7245-0.61887-5.7245-0.61887-2.9396-0.15472-4.4868 1.2377-2.7849 2.0113-3.4038-1.5472-1.7019-3.0943-2.0113-4.3321 0.77358-4.1774 0.77358z" fill="url(#x)" fill-rule="evenodd"/><path id="dq" d="m50.281 25.237c-1.5674 0-3.6979 0.84375-3.5625 0.84375 0.61887 2.6302 1.9907 7.5294 1.836 8.9219-0.15472 1.3925 0.79973 7.1718 1.8827 7.1718 0.35329 0 0.54902-0.091707 0.71875-0.21875-0.97233-1.0724-1.9495-5.8296-1.8125-7.0625 0.15472-1.3925-0.91238-6.1823-1.5312-8.8125-0.11952 0 1.5055-0.62988 2.9688-0.78125-0.16099-0.024262-0.32042-0.0625-0.5-0.0625z" fill="url(#w)" fill-rule="evenodd"/><path id="dr" d="m39.756 24.844c-0.56392 0.08056-0.75396 0.43154-0.78125 0.90625 1.603 0.11261 4.1558 0.82657 3.7577 0.97028-0.54065 1.5056-2.0381 5.3004-6.3147 9.7305 0.41681-0.18805 0.86925-0.16433 1.0727-0.48977 2.1055-2.1132 5.3854-7.0975 7.3907-9.8673 0.46415-0.15472-4.042-1.4047-5.125-1.25z" fill="url(#k)" fill-rule="evenodd"/><g id="ds" transform="translate(10.363 -5.6305)"><path id="dt" transform="matrix(1.1126 0 0 1.1126 -15.36 1.2712)" d="m42.208 27.406c-1.6174 0.067407-1.519 1.7425-1.2188 3.2188 0.30777 0.49676 0.46304 1.169 0.96875 1.4688 0.6395 0.19569 0.97297-0.61518 1.0312-1.1875 1.386-2.4008 2.3156-4.9349 4.8438 1.2188-0.25939 0.60518 0.23979 1.1451 0.45448 0.49788 0.52084-0.73189 0.73261-1.8251 0.4375-2.7166 0.41447-2.8173 0.25066-1.2098-2.0482-2.0312-0.28752 0.046372-0.55556 0.06052-0.84375 0.0625-0.009009-0.011522-0.027693-0.017317-0.03125-0.03125-0.020671-0.080956-0.035962-0.13572-0.0625-0.15625-0.023221-0.017962-0.037624-0.019874-0.0625 0-0.03265 0.026085-0.063616 0.11225-0.09375 0.1875-0.082802-0.002588-0.16727-0.025733-0.25-0.03125-0.012709-0.21206-0.06245-0.36062-0.15625-0.3125-0.033791 0.017334-0.0777 0.087696-0.125 0.15625-0.022431 0.032511-0.016432 0.05722-0.03125 0.09375-0.004413 0.012269-0.026012 0.018702-0.03125 0.03125-0.66813-0.074139-1.3198-0.1975-1.9688-0.375-0.30581-0.061035-0.58145-0.10338-0.8125-0.09375z" fill="#1e1e1e" fill-opacity=".53365" fill-rule="evenodd" filter="url(#ac)"/><path id="du" d="m30.069 29.832c-0.71862-0.020706-1.2002 0.60651-1.4983 1.1623-0.59485 0.56638 0.61158 0.9522 0.66486 1.1988-0.46598 0.50494-0.13863 1.1476 0.25776 1.5681 0.31974 0.56822 0.44062 1.2999 1.0257 1.6854 0.76101 0.29296 1.2425-0.51668 1.38-1.1163 0.5722-1.1113 1.674-2.0087 2.9515-2.2275 0.58553-0.10955 0.96237 0.43584 1.2509 0.84065 0.65094 1.0452 1.3612 2.0956 1.6221 3.3079-0.38775 0.60763 0.73782 1.2479 1.0757 0.58966 0.72276-0.70723 1.1138-1.7675 0.85518-2.753 0.42887 0.043928 0.40895 0.82489 0.88175 0.86076 0.66933-0.11153 0.62198-0.87371 0.74071-1.3734 0.11146-0.44024 0.26927-0.912 0.055139-1.3529-0.18187-0.51945-0.73496-0.77942-1.2628-0.83737-1.1019-0.15169-2.1742 0.27868-3.2771 0.21089-1.5361 0.046643-3.0364-0.38999-4.467-0.8977-0.76209-0.26523-1.4616-0.69355-2.256-0.86627z" fill="#555753" fill-rule="evenodd"/><path id="dv" d="m30.019 29.897c-0.098723-0.017751-0.15118 0.003992-0.20458 0.01953-0.42713 0.12429-1.704 1.6991-0.70457 1.6371s1.7567-0.063171 1.3295 0.061124c-0.42713 0.12429-1.4945 1.0023-1.1133 1.3 0.3812 0.29768 0.84824 1.7989 1.2203 2.181 0.37202 0.38207 0.76393 0.017521 1.0193-0.80862 0.25537-0.82614 2.1316-2.7757 3.7667-2.5977l-2.9888-0.82872s-1.6335-0.83935-2.3245-0.96361zm8.358 1.704c-0.97479 0.16353-1.8105 0.12108-2.9743 0.041659 0.85334 0.51986 2.7912 3.8877 2.5992 4.8916-0.19199 1.0038 1.1965-0.2208 1.4069-1.3934 0.21036-1.1726-0.42912-2.0095-0.42912-2.0095 2e-6 0 1.3079 0.58418 1.4704 1.3704 0.16258 0.78624 0.5848-0.89449 0.72256-1.8023 0.17857-1.1768-1.4117-1.4769-2.7957-1.0985z" fill="#eeeeec" fill-rule="evenodd"/><path id="dw" d="m30.019 29.897c-0.098723-0.017751-0.15118 0.003992-0.20458 0.01953-0.42713 0.12429-1.704 1.6991-0.70457 1.6371s1.7567-0.063171 1.3295 0.061124c-0.42713 0.12429-1.4945 1.0023-1.1133 1.3 0.3812 0.29768 0.84824 1.7989 1.2203 2.181 0.37202 0.38207 0.76393 0.017521 1.0193-0.80862 0.25537-0.82614 2.1316-2.7757 3.7667-2.5977l-2.9888-0.82872s-1.6335-0.83935-2.3245-0.96361zm8.358 1.704c-0.97479 0.16353-1.8105 0.12108-2.9743 0.041659 0.85334 0.51986 2.7912 3.8877 2.5992 4.8916-0.19199 1.0038 1.1965-0.2208 1.4069-1.3934 0.21036-1.1726-0.42912-2.0095-0.42912-2.0095 2e-6 0 1.3079 0.58418 1.4704 1.3704 0.16258 0.78624 0.5848-0.89449 0.72256-1.8023 0.17857-1.1768-1.4117-1.4769-2.7957-1.0985z" fill="url(#z)" fill-rule="evenodd"/><path id="dx" d="m30.019 29.897c-0.098723-0.017751-0.15118 0.003992-0.20458 0.01953-0.42713 0.12429-1.704 1.6991-0.70457 1.6371s1.7567-0.063171 1.3295 0.061124c-0.42713 0.12429-1.4945 1.0023-1.1133 1.3 0.3812 0.29768 0.84824 1.7989 1.2203 2.181 0.37202 0.38207 0.76393 0.017521 1.0193-0.80862 0.25537-0.82614 2.1316-2.7757 3.7667-2.5977l-2.9888-0.82872s-1.6335-0.83935-2.3245-0.96361zm8.358 1.704c-0.97479 0.16353-1.8105 0.12108-2.9743 0.041659 0.85334 0.51986 2.7912 3.8877 2.5992 4.8916-0.19199 1.0038 1.1965-0.2208 1.4069-1.3934 0.21036-1.1726-0.42912-2.0095-0.42912-2.0095 2e-6 0 1.3079 0.58418 1.4704 1.3704 0.16258 0.78624 0.5848-0.89449 0.72256-1.8023 0.17857-1.1768-1.4117-1.4769-2.7957-1.0985z" fill="url(#n)" fill-rule="evenodd"/><path id="dy" transform="matrix(1.1061 .1204 -.1204 1.1061 -13.303 -4.2491)" d="m48.914 27.293c0.024679 0.00272 0.047046 0.014157 0.069467 0.024013 0.037919 0.016584 0.076052 0.032696 0.11426 0.048604 0.046266 0.019711 0.091959 0.040704 0.13839 0.06002 0.052172 0.021444 0.10326 0.045318 0.15401 0.069895 0.056058 0.027851 0.10982 0.060024 0.16425 0.090869 0.059265 0.033902 0.11667 0.070951 0.17361 0.1086 0.05847 0.038703 0.11369 0.081719 0.16792 0.12606 0.056346 0.04565 0.10818 0.096433 0.15832 0.14872 0.05255 0.056343 0.10403 0.11368 0.15323 0.17297 0.051504 0.060152 0.099421 0.12312 0.14482 0.18797 0.046789 0.067417 0.08781 0.13851 0.12692 0.21057 0.038477 0.071818 0.071224 0.14646 0.10124 0.22214 0.029632 0.076211 0.055158 0.1539 0.077988 0.23239 0.02312 0.078752 0.0404 0.15897 0.056543 0.23939 0.015386 0.080532 0.026851 0.16174 0.036093 0.24318 0.009568 0.083815 0.013816 0.1681 0.016245 0.25239 0.003206 0.16085 0.003498 0.32181-0.003403 0.48255-0.004342 0.09066-0.01501 0.18077-0.027976 0.27055-0.014643 0.092069-0.033077 0.18343-0.051214 0.27485-0.013111 0.060453-0.006237 0.030286-0.020624 0.0905-0.025663 0.10741-0.054507-0.11346-0.029824-0.2211 0.013797-0.060167 0.007173-0.03006 0.019876-0.090322 0.018086-0.091275 0.036181-0.18257 0.049963-0.27462 0.01214-0.09005 0.022095-0.18039 0.025652-0.27125 0.00133-0.034991 0.002175-0.052938 0.00286-0.087899 2.84e-4 -0.014481 4.39e-4 -0.057932 5.27e-4 -0.043448 0.002119 0.34954 5.17e-4 0.16898-3.64e-4 0.091956-0.001998-0.083889-0.005454-0.16782-0.014516-0.25128-0.008683-0.081372-0.019633-0.16246-0.034146-0.24302-0.015788-0.080188-0.0321-0.16035-0.054728-0.23895-0.02206-0.078346-0.04674-0.1559-0.075914-0.23192-0.029148-0.075701-0.061034-0.15031-0.098463-0.22235-0.038346-0.071705-0.078557-0.14248-0.12445-0.20969-0.044617-0.064752-0.091627-0.1278-0.14301-0.1874-0.048426-0.059207-0.099454-0.11617-0.15168-0.17204-0.049138-0.052009-0.10029-0.10224-0.15553-0.14781-0.053763-0.043851-0.10776-0.087308-0.1657-0.12563-0.056285-0.037568-0.11336-0.074062-0.17191-0.10801-0.054147-0.029978-0.10767-0.061147-0.16292-0.089088-0.050386-0.024099-0.10084-0.04804-0.15262-0.069042-0.046516-0.018574-0.09226-0.03894-0.13843-0.058323-0.038216-0.015156-0.076057-0.031206-0.11437-0.04613-0.02052-0.007694-0.040742-0.017795-0.062767-0.020207-0.11743-0.012862-0.11504-0.2516 0.002379-0.23866z" fill="#74796d" fill-rule="nonzero" filter="url(#ad)"/><path id="dz" transform="matrix(1.1061 .1204 -.1204 1.1061 -13.193 -4.2491)" d="m44.492 27.411c-0.023544 0.003347-0.04728 0.005051-0.070987 0.006742-0.034555 0.002522-0.068881 0.007657-0.10331 0.011551-0.044595 0.003851-0.088927 0.009619-0.13328 0.015578-0.051069 0.007223-0.1021 0.01532-0.15277 0.02502-0.056776 0.011004-0.11367 0.02124-0.1703 0.032951-0.061849 0.012007-0.12271 0.02843-0.18377 0.043814-0.065473 0.017411-0.13032 0.036954-0.19534 0.055945-0.068054 0.021618-0.13643 0.042202-0.20396 0.065426-0.070185 0.023814-0.13931 0.050688-0.20758 0.079498-0.071081 0.028851-0.14001 0.062594-0.20934 0.09534-0.072872 0.033484-0.14502 0.068567-0.21624 0.10543-0.071636 0.036694-0.14229 0.075309-0.21206 0.11544-0.068763 0.040552-0.1341 0.086399-0.19925 0.13241-0.064362 0.047256-0.12727 0.096511-0.18951 0.14652-0.061538 0.051212-0.12114 0.10467-0.17812 0.1609-0.058325 0.058097-0.11398 0.11888-0.16813 0.18088-0.036531 0.041976-0.070088 0.086352-0.10307 0.13113-0.065994 0.089596-0.087579-0.13473-0.020928-0.22384 0.03359-0.044908 0.067772-0.089399 0.10489-0.13148 0.054857-0.062091 0.11089-0.12324 0.16978-0.18154 0.057848-0.05619 0.11798-0.11 0.18037-0.16112 0.062727-0.050018 0.12577-0.099732 0.19086-0.14666 0.065629-0.04637 0.13187-0.09199 0.2014-0.13241 0.070212-0.039973 0.14108-0.078813 0.21306-0.11553 0.071612-0.036657 0.14396-0.071855 0.21694-0.10572 0.06956-0.033299 0.13891-0.067177 0.21036-0.096299 0.068876-0.028671 0.13842-0.055793 0.20909-0.079741 0.067947-0.023189 0.13638-0.044902 0.20492-0.066271 0.065222-0.019437 0.13039-0.039052 0.19615-0.056638 0.061344-0.015979 0.12252-0.032775 0.18476-0.045014 0.05677-0.012018 0.11382-0.022556 0.17068-0.034149 0.051111-0.009733 0.1024-0.018763 0.15389-0.026253 0.044464-0.006509 0.088989-0.012311 0.13365-0.017334 0.034693-0.004633 0.069261-0.010392 0.10413-0.013564 0.023004-0.002375 0.046042-0.00483 0.06875-0.009319 0.11574-0.022882 0.12109 0.2217 0.004287 0.23831z" fill="#fff" fill-rule="nonzero" filter="url(#ae)"/><g id="ea" transform="matrix(1.1061 .1204 -.1204 1.1061 -187.53 -390.27)" fill-rule="nonzero"><path id="eb" transform="matrix(.86603 .5 -.5 .86603 209.78 -72.44)" d="m242.54 355.57a1.5975 0.79877 0 1 1-3.1951 0 1.5975 0.79877 0 1 1 3.1951 0z" fill="url(#m)"/><path id="ec" d="m240.73 355.53a0.78567 0.78567 0 1 1-1.5713 0 0.78567 0.78567 0 1 1 1.5713 0z" fill="url(#l)"/></g></g><g id="ed" fill-rule="nonzero"><path id="ee" d="m-18.347 33.891c-0.038501 0.008806-0.070582 0.030475-0.10134 0.054406-0.056606 0.037959-0.10551 0.086103-0.15301 0.13465-0.068328 0.083011-0.11879 0.17854-0.16636 0.27441-0.070217 0.13774-0.12802 0.28131-0.18446 0.4251-0.055901 0.15463-0.10611 0.31125-0.14675 0.47057-0.043915 0.17498-0.082487 0.35115-0.11062 0.52936-0.035741-0.19344-0.00869 0.47731-0.007759 0.27516 0.009939-2.158-0.040926-1.5225 0.024483-1.0434 0.032568 0.20563 0.080868 0.40827 0.13212 0.6099 0.066582 0.24868 0.17261 0.4841 0.27632 0.71894 0.11019 0.24504 0.21779 0.49105 0.31554 0.74134 0.1239 0.35074 0.23265 0.7066 0.34872 1.06 0.13956 0.40836 0.28216 0.81511 0.3871 1.234 0.15659 0.84607 0.12603 1.7204 0.081457 2.5756-0.03036 0.54878-0.14016 1.0866-0.29396 1.6128-0.17542 0.58389-0.47501 1.1132-0.7895 1.631-0.055836 0.088648-0.11167 0.1773-0.16751 0.26594-0.27024 0.42904-0.37352-0.59025-0.10314-1.0192 0.055194-0.087561 0.11039-0.17512 0.16558-0.26268 0.31288-0.52828 0.59499-1.0762 0.75632-1.6722 0.14174-0.53982 0.24568-1.0893 0.26376-1.6487 0.015949-0.50068 0.013216-0.51031 0.010595 0.58814-1.9e-4 0.07984-6.38e-4 -0.15971-0.003614-0.2395-0.008327-0.22326-0.032662-0.44553-0.07652-0.6647-0.096518-0.41537-0.23212-0.81905-0.37723-1.2198-0.11692-0.31642-0.23526-0.63234-0.35795-0.94656-0.096411-0.24734-0.1999-0.4918-0.31055-0.73312-0.10114-0.22725-0.20768-0.45243-0.29855-0.68402-0.065274-0.19734-0.10904-0.40049-0.14971-0.60418-0.11859-0.63586-0.10329-1.2965-0.017423-1.936 0.034865-0.18024 0.074873-0.35956 0.12201-0.53702 0.046355-0.16351 0.096466-0.32619 0.16156-0.48338 0.060811-0.149 0.12409-0.29704 0.19448-0.44182 0.05835-0.11479 0.11717-0.23309 0.20659-0.32729 0.054738-0.054738 0.11318-0.10512 0.1762-0.15018 0.04961-0.033748 0.10081-0.067065 0.15917-0.083457 0.71305-0.20028 0.75594 1.3308 0.033934 1.4959z" fill="#000080"/><path id="ef" d="m-18.347 33.891c-0.038501 0.008806-0.070582 0.030475-0.10134 0.054406-0.056606 0.037959-0.10551 0.086103-0.15301 0.13465-0.068328 0.083011-0.11879 0.17854-0.16636 0.27441-0.070217 0.13774-0.12802 0.28131-0.18446 0.4251-0.055901 0.15463-0.10611 0.31125-0.14675 0.47057-0.043915 0.17498-0.082487 0.35115-0.11062 0.52936-0.035741-0.19344-0.00869 0.47731-0.007759 0.27516 0.009939-2.158-0.040926-1.5225 0.024483-1.0434 0.032568 0.20563 0.080868 0.40827 0.13212 0.6099 0.066582 0.24868 0.17261 0.4841 0.27632 0.71894 0.11019 0.24504 0.21779 0.49105 0.31554 0.74134 0.1239 0.35074 0.23265 0.7066 0.34872 1.06 0.13956 0.40836 0.28216 0.81511 0.3871 1.234 0.15659 0.84607 0.12603 1.7204 0.081457 2.5756-0.03036 0.54878-0.14016 1.0866-0.29396 1.6128-0.17542 0.58389-0.47501 1.1132-0.7895 1.631-0.055836 0.088648-0.11167 0.1773-0.16751 0.26594-0.27024 0.42904-0.37352-0.59025-0.10314-1.0192 0.055194-0.087561 0.11039-0.17512 0.16558-0.26268 0.31288-0.52828 0.59499-1.0762 0.75632-1.6722 0.14174-0.53982 0.24568-1.0893 0.26376-1.6487 0.015949-0.50068 0.013216-0.51031 0.010595 0.58814-1.9e-4 0.07984-6.38e-4 -0.15971-0.003614-0.2395-0.008327-0.22326-0.032662-0.44553-0.07652-0.6647-0.096518-0.41537-0.23212-0.81905-0.37723-1.2198-0.11692-0.31642-0.23526-0.63234-0.35795-0.94656-0.096411-0.24734-0.1999-0.4918-0.31055-0.73312-0.10114-0.22725-0.20768-0.45243-0.29855-0.68402-0.065274-0.19734-0.10904-0.40049-0.14971-0.60418-0.11859-0.63586-0.10329-1.2965-0.017423-1.936 0.034865-0.18024 0.074873-0.35956 0.12201-0.53702 0.046355-0.16351 0.096466-0.32619 0.16156-0.48338 0.060811-0.149 0.12409-0.29704 0.19448-0.44182 0.05835-0.11479 0.11717-0.23309 0.20659-0.32729 0.054738-0.054738 0.11318-0.10512 0.1762-0.15018 0.04961-0.033748 0.10081-0.067065 0.15917-0.083457 0.71305-0.20028 0.75594 1.3308 0.033934 1.4959z" fill="url(#o)"/><path id="eg" d="m-18.347 33.891c-0.038501 0.008806-0.070582 0.030475-0.10134 0.054406-0.056606 0.037959-0.10551 0.086103-0.15301 0.13465-0.068328 0.083011-0.11879 0.17854-0.16636 0.27441-0.070217 0.13774-0.12802 0.28131-0.18446 0.4251-0.055901 0.15463-0.10611 0.31125-0.14675 0.47057-0.043915 0.17498-0.082487 0.35115-0.11062 0.52936-0.035741-0.19344-0.00869 0.47731-0.007759 0.27516 0.009939-2.158-0.040926-1.5225 0.024483-1.0434 0.032568 0.20563 0.080868 0.40827 0.13212 0.6099 0.066582 0.24868 0.17261 0.4841 0.27632 0.71894 0.11019 0.24504 0.21779 0.49105 0.31554 0.74134 0.1239 0.35074 0.23265 0.7066 0.34872 1.06 0.13956 0.40836 0.28216 0.81511 0.3871 1.234 0.15659 0.84607 0.12603 1.7204 0.081457 2.5756-0.03036 0.54878-0.14016 1.0866-0.29396 1.6128-0.17542 0.58389-0.47501 1.1132-0.7895 1.631-0.055836 0.088648-0.11167 0.1773-0.16751 0.26594-0.27024 0.42904-0.37352-0.59025-0.10314-1.0192 0.055194-0.087561 0.11039-0.17512 0.16558-0.26268 0.31288-0.52828 0.59499-1.0762 0.75632-1.6722 0.14174-0.53982 0.24568-1.0893 0.26376-1.6487 0.015949-0.50068 0.013216-0.51031 0.010595 0.58814-1.9e-4 0.07984-6.38e-4 -0.15971-0.003614-0.2395-0.008327-0.22326-0.032662-0.44553-0.07652-0.6647-0.096518-0.41537-0.23212-0.81905-0.37723-1.2198-0.11692-0.31642-0.23526-0.63234-0.35795-0.94656-0.096411-0.24734-0.1999-0.4918-0.31055-0.73312-0.10114-0.22725-0.20768-0.45243-0.29855-0.68402-0.065274-0.19734-0.10904-0.40049-0.14971-0.60418-0.11859-0.63586-0.10329-1.2965-0.017423-1.936 0.034865-0.18024 0.074873-0.35956 0.12201-0.53702 0.046355-0.16351 0.096466-0.32619 0.16156-0.48338 0.060811-0.149 0.12409-0.29704 0.19448-0.44182 0.05835-0.11479 0.11717-0.23309 0.20659-0.32729 0.054738-0.054738 0.11318-0.10512 0.1762-0.15018 0.04961-0.033748 0.10081-0.067065 0.15917-0.083457 0.71305-0.20028 0.75594 1.3308 0.033934 1.4959z" fill="url(#p)"/><path id="eh" d="m-17.602 32.505c0.029554 0.056394 0.065053 0.11042 0.099264 0.16442 0.046474 0.076681 0.093343 0.15315 0.1383 0.23073 0.05839 0.099431 0.11153 0.2018 0.16191 0.30548 0.054434 0.11298 0.10125 0.22935 0.14574 0.34653 0.048099 0.12842 0.089275 0.2593 0.12477 0.39172 0.037395 0.14426 0.052457 0.29244 0.059913 0.44085 0.008892 0.60685 0.052487 1.2214-0.026379 1.8256-0.016648 0.15963-0.077093 0.30694-0.14116 0.4523-0.072716 0.16755-0.15874 0.32864-0.24343 0.49029-0.083225 0.16124-0.17546 0.3171-0.27192 0.47067-0.10602 0.16119-0.2152 0.32028-0.32604 0.47818-0.10796 0.15692-0.21505 0.31443-0.32308 0.4713-0.11436 0.16529-0.22178 0.33522-0.32957 0.50481-0.11221 0.1777-0.2193 0.35875-0.30411 0.55121-0.10878 0.24781-0.15363 0.51611-0.19424 0.78181-0.081566 0.47638-0.060099 1.9462-0.055972-0.11421 0.002792 0.45046 0.075405 0.89575 0.15786 1.3373 0.014756 0.072552 0.029511 0.1451 0.044267 0.21766 0.11482 0.56456-0.044337 1.7176-0.159 1.153-0.015047-0.074092-0.030093-0.14818-0.045141-0.22227-0.082856-0.4295-0.16408-0.86128-0.1846-1.2992-0.001309-0.7717-0.041134-1.5547 0.063939-2.3232 0.045047-0.29284 0.098154-0.58744 0.21983-0.85979 0.091536-0.19856 0.20187-0.38695 0.32091-0.5703 0.1091-0.1738 0.21852-0.34744 0.33298-0.51778 0.1065-0.15827 0.21483-0.31527 0.32478-0.47116 0.11004-0.15818 0.21916-0.3172 0.31664-0.48356 0.091149-0.15534 0.17914-0.31251 0.26289-0.47198 0.083715-0.16086 0.16488-0.32346 0.22808-0.49371 0.052755-0.15294 0.090431-0.30953 0.10116-0.47155 0.006063-0.072082 0.011363-0.14416 0.013737-0.21648 7.85e-4 -0.023944 0.001329-0.095814 0.001373-0.071857 0.002214 1.2266-0.004484 1.756 0.001758 1.2384-0.002893-0.14379-0.005313-0.28815-0.033426-0.4298-0.026574-0.12913-0.06451-0.25516-0.10918-0.37921-0.040974-0.1143-0.083992-0.22794-0.13412-0.3386-0.045004-0.098194-0.092751-0.19496-0.14913-0.28722-0.044822-0.071019-0.089735-0.14192-0.13673-0.21153-0.029508-0.045926-0.058994-0.095081-0.099514-0.13172-0.54868-0.49609-0.19673-2.1424 0.14663-1.4872z" fill="#000080"/><path id="ei" d="m-17.602 32.505c0.029554 0.056394 0.065053 0.11042 0.099264 0.16442 0.046474 0.076681 0.093343 0.15315 0.1383 0.23073 0.05839 0.099431 0.11153 0.2018 0.16191 0.30548 0.054434 0.11298 0.10125 0.22935 0.14574 0.34653 0.048099 0.12842 0.089275 0.2593 0.12477 0.39172 0.037395 0.14426 0.052457 0.29244 0.059913 0.44085 0.008892 0.60685 0.052487 1.2214-0.026379 1.8256-0.016648 0.15963-0.077093 0.30694-0.14116 0.4523-0.072716 0.16755-0.15874 0.32864-0.24343 0.49029-0.083225 0.16124-0.17546 0.3171-0.27192 0.47067-0.10602 0.16119-0.2152 0.32028-0.32604 0.47818-0.10796 0.15692-0.21505 0.31443-0.32308 0.4713-0.11436 0.16529-0.22178 0.33522-0.32957 0.50481-0.11221 0.1777-0.2193 0.35875-0.30411 0.55121-0.10878 0.24781-0.15363 0.51611-0.19424 0.78181-0.081566 0.47638-0.060099 1.9462-0.055972-0.11421 0.002792 0.45046 0.075405 0.89575 0.15786 1.3373 0.014756 0.072552 0.029511 0.1451 0.044267 0.21766 0.11482 0.56456-0.044337 1.7176-0.159 1.153-0.015047-0.074092-0.030093-0.14818-0.045141-0.22227-0.082856-0.4295-0.16408-0.86128-0.1846-1.2992-0.001309-0.7717-0.041134-1.5547 0.063939-2.3232 0.045047-0.29284 0.098154-0.58744 0.21983-0.85979 0.091536-0.19856 0.20187-0.38695 0.32091-0.5703 0.1091-0.1738 0.21852-0.34744 0.33298-0.51778 0.1065-0.15827 0.21483-0.31527 0.32478-0.47116 0.11004-0.15818 0.21916-0.3172 0.31664-0.48356 0.091149-0.15534 0.17914-0.31251 0.26289-0.47198 0.083715-0.16086 0.16488-0.32346 0.22808-0.49371 0.052755-0.15294 0.090431-0.30953 0.10116-0.47155 0.006063-0.072082 0.011363-0.14416 0.013737-0.21648 7.85e-4 -0.023944 0.001329-0.095814 0.001373-0.071857 0.002214 1.2266-0.004484 1.756 0.001758 1.2384-0.002893-0.14379-0.005313-0.28815-0.033426-0.4298-0.026574-0.12913-0.06451-0.25516-0.10918-0.37921-0.040974-0.1143-0.083992-0.22794-0.13412-0.3386-0.045004-0.098194-0.092751-0.19496-0.14913-0.28722-0.044822-0.071019-0.089735-0.14192-0.13673-0.21153-0.029508-0.045926-0.058994-0.095081-0.099514-0.13172-0.54868-0.49609-0.19673-2.1424 0.14663-1.4872z" fill="url(#q)"/></g><path id="ej" d="m0.54701 39.056 1.094 9.8461-0.43761 0.87521s-0.2188 3.7196 0.65641 3.7196c0.87521 0 3.7196 0 4.8137 0.2188s2.022-0.12725 1.094-0.43761c-2.617-0.87521-2.3099-2.8548-1.9692-4.1573 0.50292-1.9225 0.87091-8.7392-2.188-10.94-1.8112-1.3032-2.188-1.3128-3.0632 0.87521z" fill="#eeeeec" fill-rule="evenodd"/><path id="ek" d="m2.5312 52.188-1 1.0312c0.089594 0.16127 0.20309 0.28125 0.34375 0.28125 0.87521 0 3.7185-5.3e-5 4.8125 0.21875 1.094 0.2188 2.0217-0.12715 1.0938-0.4375-0.95905-0.32074-1.6372-0.34519-1.9532-0.87489-1.5064-0.52346-1.9542-1.0031-3.2968-0.21886z" fill="#555753" fill-rule="evenodd"/><path id="el" d="m1.7342 37.312c-0.43 0.1082-0.74989 0.65598-1.1875 1.75l1.0938 9.8438-0.4375 0.875c0 1e-6 -0.21896 3.7188 0.65625 3.7188 0.1892 0 0.66432-0.00221 1 0 0.40277-4.9177-2.4885-11.466-0.40625-16.062-0.28442-0.13459-0.51372-0.17659-0.71875-0.125z" fill="#2e3436" fill-rule="evenodd"/><path id="em" d="m2.1251 37.312c0.18535 0.096314 0.39859 0.2191 0.625 0.34908 3.0589 1.7561 3.4562 6.9311 2.9533 8.4651 0.38212-2.0885-0.48978 3.7307 0.32794 0.61095 0.50292-1.5339 0.87144-6.9708-2.1875-8.7269-0.78213-0.44901-1.3159-0.69215-1.7188-0.69816z" fill="#888a85" fill-rule="evenodd"/></g></svg>
