<?xml version="1.0" encoding="UTF-8"?>
<svg id="b" version="1.1" viewBox="0 0 64 64" xmlns="http://www.w3.org/2000/svg" xmlns:xlink="http://www.w3.org/1999/xlink"><defs id="c"><linearGradient id="a" x1="479.85" x2="479.85" y1="794.42" y2="-564.64" gradientTransform="matrix(.067861 0 0 .067861 .29256 25.951)" gradientUnits="userSpaceOnUse"><stop id="d" stop-color="#bfc1c1" offset="0"/><stop id="e" stop-color="#f1f2f3" offset="1"/></linearGradient></defs><path id="f" d="m4.4456 49.128c0.33252 1.1401 0.79397 2.2394 1.3776 3.2709l-1.6626 2.0969c-0.54289 0.68539-0.48181 1.6626 0.12894 2.2801l2.8637 2.8637c0.61753 0.61753 1.5947 0.67175 2.2801 0.12886l2.0833-1.649c1.0722 0.6176 2.2123 1.0993 3.3998 1.4386l0.31216 2.6805c0.1018 0.86862 0.83469 1.5201 1.7033 1.5201h4.0513c0.86862 0 1.6015-0.65153 1.7033-1.5201l0.29859-2.5855c1.2758-0.33252 2.4973-0.8279 3.6441-1.4726l2.0155 1.5947c0.68539 0.54288 1.6626 0.48181 2.2801-0.12894l2.8637-2.8637c0.61753-0.61753 0.67182-1.5947 0.12894-2.2801l-1.5676-1.9883c0.65146-1.1266 1.1604-2.3276 1.4997-3.583l2.4158-0.27823c0.86869-0.1018 1.5201-0.83469 1.5201-1.7033v-4.0513c0-0.86862-0.65146-1.6015-1.5201-1.7033l-2.3819-0.27822c-0.3258-1.2419-0.81433-2.4294-1.4386-3.5423l1.4658-1.8526c0.54288-0.68539 0.48181-1.6626-0.12894-2.2801l-2.8569-2.8569c-0.61753-0.61753-1.5947-0.67182-2.2801-0.12894l-1.7983 1.4251c-1.1672-0.68539-2.4159-1.2079-3.7255-1.5608l-0.27144-2.3276c-0.1018-0.86862-0.83468-1.5201-1.7033-1.5201h-4.0513c-0.86862 0-1.6015 0.65146-1.7033 1.5201l-0.27144 2.3276c-1.3436 0.35966-2.6262 0.90255-3.8206 1.6151l-1.8662-1.4794c-0.68539-0.54289-1.6626-0.48181-2.2801 0.12894l-2.8637 2.8637c-0.61753 0.61753-0.67182 1.5947-0.12894 2.2801l1.5608 1.9747c-0.62432 1.1265-1.0993 2.3276-1.4115 3.5763l-2.4973 0.28502c-0.86862 0.1018-1.5201 0.83469-1.5201 1.7033v4.0513c0 0.86862 0.65146 1.6015 1.5201 1.7033l2.6329 0.30544zm14.678-10.959c3.6916 0 6.6978 3.0062 6.6978 6.6978s-3.0062 6.6978-6.6978 6.6978c-3.6916 0-6.6978-3.0062-6.6978-6.6978s3.0062-6.6978 6.6978-6.6978z" fill="url(#a)"/><path id="g" d="m54.124 2.3312-3.1381-1.3525c-0.96647-0.41721-2.0912-0.041626-2.6116 0.86962l-0.98822 1.7113c-1.3366-0.20974-2.6942-0.23124-4.041-0.074132l-0.96556-1.7859c-0.49644-0.92344-1.6154-1.3291-2.5909-0.94675l-3.1758 1.2658c-0.97297 0.3902-1.5106 1.4452-1.2369 2.4622l0.52329 1.9546c-1.1163 0.83203-2.1106 1.809-2.9536 2.9133l-1.9815-0.5945c-1.0092-0.30031-2.0795 0.19732-2.4966 1.1638l-1.3477 3.154c-0.41726 0.96657-0.04171 2.0912 0.86949 2.6118l1.9101 1.1011c-0.15836 1.2778-0.15701 2.5679 0.0047 3.8439l-1.9349 1.0455c-0.92344 0.49644-1.3291 1.6154-0.94677 2.5908l1.2658 3.1758c0.39022 0.97296 1.4452 1.5106 2.4622 1.2369l2.2505-0.60432c0.72687 0.94019 1.5636 1.7865 2.4921 2.5356l-0.67537 2.2573c-0.30036 1.0091 0.1973 2.0794 1.1638 2.4966l3.1381 1.3525c0.96663 0.41716 2.0912 0.04163 2.6118-0.86967l1.1699-2.0261c1.2223 0.17511 2.4615 0.20651 3.6869 0.07755l1.1302 2.0997c0.49644 0.92344 1.6154 1.3291 2.5907 0.9468l3.1758-1.2658c0.97296-0.3902 1.5106-1.4451 1.2369-2.4622l-0.59225-2.2109c1.0623-0.78105 2.0155-1.6935 2.8406-2.7144l2.1613 0.64395c1.0091 0.30036 2.0793-0.19727 2.4966-1.1638l1.3525-3.1381c0.4171-0.96652 0.04154-2.0912-0.86964-2.6117l-1.918-1.0987c0.19008-1.2874 0.21816-2.595 0.0698-3.8839l1.8603-1.0056c0.92344-0.49644 1.3291-1.6154 0.94677-2.5908l-1.2658-3.1758c-0.39022-0.97296-1.4452-1.5106-2.4622-1.2369l-2.0101 0.54005c-0.76358-1.033-1.6506-1.9592-2.6484-2.7654l0.59128-1.9633c0.31635-1.0138-0.18371-2.092-1.1503-2.5091zm-6.5734 22.57c-3.4303 1.369-7.3356-0.3139-8.6966-3.7466-1.369-3.4303 0.314-7.3356 3.7466-8.6966 3.4304-1.369 7.3357 0.31398 8.6966 3.7467 1.3691 3.4304-0.314 7.3356-3.7466 8.6965z" fill="#ffe680"/></svg>
