<?xml version="1.0" encoding="UTF-8"?>
<svg viewBox="0 0 48 48" xmlns="http://www.w3.org/2000/svg" xmlns:xlink="http://www.w3.org/1999/xlink"><defs><linearGradient id="a" x1="32.988" x2="39.562" y1="33.02" y2="41.591" gradientTransform="matrix(1.0116 0 0 1.0097 384.29 499.57)" gradientUnits="userSpaceOnUse"><stop offset="0"/><stop stop-opacity="0" offset="1"/></linearGradient><linearGradient id="b" x1="617.03" x2="597.96" y1="271.69" y2="238.67" gradientTransform="matrix(1.01111 0 0 1.0102-6.636-2.024)" gradientUnits="userSpaceOnUse"><stop stop-color="#2f74c8" offset="0"/><stop stop-color="#4699d7" offset="1"/></linearGradient><linearGradient id="c" x1="391.28" x2="411.28" y1="535.75" y2="501.11" gradientTransform="matrix(1.01111 0 0 1.0102-321.72 128.72)" gradientUnits="userSpaceOnUse"><stop stop-color="#e3dfd6" offset="0"/><stop stop-color="#f4f1e8" offset="1"/></linearGradient><linearGradient id="d" x1="77.987" x2="88.999" y1="669.44" y2="650.39" gradientUnits="userSpaceOnUse"><stop stop-color="#d35400" offset="0"/><stop stop-color="#d35400" offset="1"/></linearGradient><linearGradient id="e" x1="427.75" x2="438.95" y1="548.93" y2="529.54" gradientTransform="matrix(.87609-.50484.50581.87442-251.31 277.05)" gradientUnits="userSpaceOnUse"><stop stop-color="#f5955f" offset="0"/><stop stop-color="#facebe" offset="1"/></linearGradient><linearGradient id="f" x1="398.57" x2="419.25" gradientTransform="translate(-384.57-499.8)" gradientUnits="userSpaceOnUse" xlink:href="#a"/></defs><g transform="translate(-384.57-499.8)"><g color="#000000" stroke-linejoin="round" stroke-width="3"><rect transform="matrix(.86644.49929-.50071.86561 0 0)" x="595.72" y="237.72" width="40.445" height="24.24" rx="1.616" fill="url(#b)" stroke-linecap="round"/><path d="m385.66 523.09c-.239.714.048 1.515.727 1.906l32.24 18.58c.776.447 1.763.183 2.211-.592l10.521-18.19c.238-.412.269-.883.135-1.301-.034.102-.079.204-.135.301l-10.521 18.19c-.448.775-1.435 1.039-2.211.592l-32.24-18.58c-.363-.209-.608-.538-.727-.906" fill="#34495e"/><path transform="translate(384.57 499.8)" d="m4.264 17.729-2.186 3.779 35.03 20.223 2.188-3.777z" fill="#31363b"/><path d="m423.63 518.49l-22.534 14.995 17.524 10.1c.777.447 1.763.183 2.211-.592l10.519-18.19c.448-.775.186-1.759-.591-2.207z" fill="url(#a)" opacity=".2"/><rect transform="matrix(.86644-.49929.50071.86561 0 0)" x="71.17" y="645.71" width="40.445" height="24.24" rx="1.616" fill="url(#c)" stroke-linecap="round"/><path d="m431.49 523.09c-.118.368-.363.697-.727.906l-32.24 18.58c-.776.447-1.763.183-2.211-.592l-10.521-18.19c-.056-.097-.101-.199-.135-.301-.134.418-.104.889.135 1.301l10.521 18.19c.448.775 1.435 1.039 2.211.592l32.24-18.58c.679-.391.966-1.193.727-1.906" fill="#d9d3cc"/></g><path transform="translate(384.57 499.8)" d="m16.438 19-2.438 20 3.02 3.02 16.801-9.682z" fill="url(#f)" fill-rule="evenodd" opacity=".1"/><rect transform="matrix(.86644-.49928.50072.86561 0 0)" x="75.21" y="649.75" width="12.134" height="16.16" rx="0" color="#000000" fill="url(#d)" stroke-linecap="round" stroke-linejoin="round" stroke-width="3"/><path d="m396.27 522.73c-1.456 0.839-1.952 2.684-1.111 4.138 0.841 1.453 2.69 1.948 4.146 1.109s1.952-2.684 1.111-4.138c-0.841-1.453-2.69-1.948-4.146-1.109m4.046 6.995c-2.427 1.398-3.929 3.304-3.369 4.273l2.023 3.498 8.761-5.05-2.023-3.498c-0.56-0.969-2.965-0.623-5.392 0.775" fill="url(#e)"/><g transform="matrix(.86644-.49928.50072.86561 0 0)" color="#000000" stroke-linecap="round" stroke-linejoin="round" stroke-width="3"><g fill="#4d4d4d"><rect x="89.37" y="649.75" width="8.089" height="2.02"/><rect x="98.47" y="649.75" width="2.022" height="2.02"/></g><g fill="#7f8c8d"><rect x="89.37" y="653.79" width="7.078" height="1.01"/><rect x="97.46" y="653.79" width="2.022" height="1.01"/><rect x="100.49" y="653.79" width="7.078" height="1.01"/><rect x="89.37" y="656.82" width="18.201" height="1.01"/></g><g fill="#d9d3cc"><rect x="103.52" y="661.87" width="4.045" height="4.04"/><rect x="98.41" y="661.89" width="4.045" height="4.04"/></g></g></g></svg>
