<?xml version="1.0" encoding="UTF-8"?>
<svg id="c" width="64" height="64" version="1.1" viewBox="0 0 16.933 16.933" xmlns="http://www.w3.org/2000/svg"><defs id="d"><style id="e" type="text/css"/><filter id="b" x="-.027" y="-.027" width="1.054" height="1.054" color-interpolation-filters="sRGB"><feGaussianBlur id="f" stdDeviation="0.61875"/></filter><linearGradient id="a" x1="-127" x2="-72" y1="60" y2="5" gradientTransform="matrix(.26458 0 0 .26458 34.792 -.13493)" gradientUnits="userSpaceOnUse"><stop id="g" stop-color="#32d7ff" offset="0"/><stop id="h" stop-color="#329bff" offset="1"/></linearGradient><style id="i" type="text/css"/><style id="j" type="text/css"/><style id="k" type="text/css"/><style id="l" type="text/css"/><style id="m" type="text/css"/><style id="n" type="text/css"/><style id="o" type="text/css"/></defs><rect id="p" transform="scale(.26458)" x="4.5" y="4.5" width="55" height="55" ry="15" fill="#141414" filter="url(#b)" opacity=".3" stroke-linecap="round" stroke-width="2.7444"/><rect id="q" x="1.1906" y="1.1906" width="14.552" height="14.552" ry="3.9687" fill="url(#a)" stroke-linecap="round" stroke-width=".72611"/><g id="r" transform="translate(.00039658 -.054443)"><g id="s" transform="matrix(.51035 0 0 .51035 -2.994 9.6615)" fill="#fff"><circle id="t" cx="28.377" cy="4.0348" r="3.44" opacity=".25" style="paint-order:stroke markers fill"/><g id="u" transform="translate(19.91,-284.5)" style="paint-order:stroke markers fill"><path id="v" transform="matrix(.2068 0 0 .2068 1.8486 282.03)" d="m29.445 11.615v5.998a14.072 14.072 0 0 0-5.4238 2.2402l-4.2324-4.2344-3.6172 3.6113 4.248 4.248a14.072 14.072 0 0 0-2.2461 5.4082h-6v5.1172h6.0039a14.072 14.072 0 0 0 2.2363 5.4141l-4.2422 4.2422 3.6172 3.6172 4.2539-4.252a14.072 14.072 0 0 0 5.4023 2.2441v6.0059h5.1172v-6.0078a14.072 14.072 0 0 0 5.4141-2.2324l4.2422 4.2422 3.6113-3.6133-4.248-4.252a14.072 14.072 0 0 0 2.25-5.4082h6.002v-5.1172h-6.002a14.072 14.072 0 0 0-2.2344-5.416l4.2383-4.2344-3.6172-3.623-4.2461 4.2461a14.072 14.072 0 0 0-5.4102-2.248v-5.9961h-5.1172zm2.5586 12.15a7.6741 7.6741 0 0 1 7.6738 7.6758 7.6741 7.6741 0 0 1-7.6738 7.6777 7.6741 7.6741 0 0 1-7.6797-7.6777 7.6741 7.6741 0 0 1 7.6797-7.6758z" fill="#fff" stroke-width="4.8356"/></g></g><g id="w" transform="matrix(.70879 0 0 .70879 1.1378 1.1211)"><g id="x" transform="translate(.048526 .0064609)" fill="none" stroke="#fff" stroke-dashoffset=".42096" stroke-width="2.3812"><circle id="y" cx="8.4188" cy="8.3271" r="4.1537" opacity=".2"/><path id="z" d="m11.198 11.399a4.1537 4.1537 0 0 1-2.7795 1.067 4.1537 4.1537 0 0 1-4.1537-4.1537 4.1537 4.1537 0 0 1 4.1537-4.1537 4.1537 4.1537 0 0 1 2.7795 1.0671"/></g><circle id="aa" cx="8.4674" cy="8.326" r="1.9878" fill="#fff"/></g></g><circle id="ab" cx="-279.63" cy="-338.47" r="0" fill="#5e4aa6" stroke-width=".26458"/><circle id="ac" cx="-248.29" cy="-348.87" r="0" fill="#5e4aa6" stroke-width=".26458"/><circle id="ad" cx="42.626" cy="-14.051" r="0" fill="#5e4aa6" fill-rule="evenodd" stroke-width=".26458"/><circle id="ae" cx="-227.52" cy="-367.79" r="0" fill="#5e4aa6" stroke-width=".26458"/><circle id="af" cx="63.395" cy="-32.962" r="0" fill="#5e4aa6" fill-rule="evenodd" stroke-width=".26458"/></svg>
