<?xml version="1.0" encoding="UTF-8"?>
<!DOCTYPE svg  PUBLIC '-//W3C//DTD SVG 20010904//EN'  'http://www.w3.org/TR/2001/REC-SVG-20010904/DTD/svg10.dtd'>
<svg id="a" _SVGFile__filename="oldscale/apps/kwin.svg" version="1.0" viewBox="0 0 60 60" xmlns="http://www.w3.org/2000/svg"><path id="b" d="m6.2327 4.7911c-1.0296 0-1.8586 1.0849-1.8586 2.4326v30.896c0 1.3477 0.82892 2.4326 1.8586 2.4326h37.252c1.0297 0 1.8586-1.0849 1.8586-2.4326v-30.896c0-1.3477-0.82889-2.4326-1.8586-2.4326h-37.252z" fill="none" stroke="#fff" stroke-linecap="round" stroke-linejoin="round" stroke-miterlimit="4" stroke-width="7.5"/><g id="c" transform="matrix(.97312 0 0 .97312 .81548 .52223)" stroke-linecap="round" stroke-linejoin="round"><path id="d" transform="matrix(.80677 0 0 1.056 .46304 -6.1648)" d="m6.3262 9.9925c-1.3115 0-2.3673 1.0558-2.3673 2.3674v30.068c0 1.3115 1.0558 2.3674 2.3673 2.3674h47.45c1.3115 0 2.3673-1.0558 2.3673-2.3674v-30.068c0-1.3115-1.0558-2.3674-2.3673-2.3674h-47.45z" fill="#fff" fill-rule="evenodd" stroke-width="2.7315"/><path id="e" transform="matrix(.80677 0 0 .80677 .46304 .68034)" d="m6.28 4.4817c-1.2859 0-2.3212 1.0352-2.3212 2.3212v4.0794c0 1.2859 1.0352 2.3212 2.3212 2.3212h47.542c1.2859 0 2.3212-1.0352 2.3212-2.3212v-4.0794c0-1.2859-1.0352-2.3212-2.3212-2.3212h-47.542z" fill="#fff" fill-rule="evenodd" stroke-width="3.125"/><path id="f" transform="matrix(.80677 0 0 .80677 .46304 .68034)" d="m53.029 7.6135-2.706 2.706m-0.06293-2.769 2.769 2.769" fill="none" stroke="#000" stroke-width="2.3883"/><path id="g" transform="matrix(.80677 0 0 .80677 -59.986 -3.6749)" d="m81.253 9.9925c-1.3115 0-2.3673 1.3819-2.3673 3.0985v39.354c0 1.7166 1.0558 3.0985 2.3673 3.0985h47.45c1.3116 0 2.3674-1.382 2.3674-3.0985v-39.354c0-1.7166-1.0558-3.0985-2.3674-3.0985h-47.45z" fill="none" stroke="#000" stroke-width="3.1844"/><path id="h" transform="matrix(.80677 0 0 .80677 .46304 .68034)" d="m3.9588 10.882c0 1.2859 1.0352 2.3212 2.3212 2.3212h47.546c1.2859 0 2.3212-1.0352 2.3212-2.3212" fill="none" stroke="#000" stroke-width="3.1844"/></g><path id="i" d="m16.512 19.447c-1.0296 0-1.8586 1.0849-1.8586 2.4326v30.896c0 1.3477 0.82892 2.4326 1.8586 2.4326h37.252c1.0297 0 1.8586-1.0849 1.8586-2.4326v-30.896c0-1.3477-0.82889-2.4326-1.8586-2.4326h-37.252z" fill="none" stroke="#fff" stroke-linecap="round" stroke-linejoin="round" stroke-miterlimit="4" stroke-width="7.5"/><g id="j" transform="matrix(.97312 0 0 .97312 11.095 15.178)" stroke-linecap="round" stroke-linejoin="round"><path id="k" transform="matrix(.80677 0 0 1.056 .46304 -6.1648)" d="m6.3262 9.9925c-1.3115 0-2.3673 1.0558-2.3673 2.3674v30.068c0 1.3115 1.0558 2.3674 2.3673 2.3674h47.45c1.3115 0 2.3673-1.0558 2.3673-2.3674v-30.068c0-1.3115-1.0558-2.3674-2.3673-2.3674h-47.45z" fill="#fff" fill-rule="evenodd" stroke-width="2.7315"/><path id="l" transform="matrix(.80677 0 0 .80677 .46304 .68034)" d="m6.28 4.4817c-1.2859 0-2.3212 1.0352-2.3212 2.3212v4.0794c0 1.2859 1.0352 2.3212 2.3212 2.3212h47.542c1.2859 0 2.3212-1.0352 2.3212-2.3212v-4.0794c0-1.2859-1.0352-2.3212-2.3212-2.3212h-47.542z" fill="#fff" fill-rule="evenodd" stroke-width="3.125"/><path id="m" transform="matrix(.80677 0 0 .80677 .46304 .68034)" d="m53.029 7.6135-2.706 2.706m-0.06293-2.769 2.769 2.769" fill="none" stroke="#000" stroke-width="2.3883"/><path id="n" transform="matrix(.80677 0 0 .80677 -59.986 -3.6749)" d="m81.253 9.9925c-1.3115 0-2.3673 1.3819-2.3673 3.0985v39.354c0 1.7166 1.0558 3.0985 2.3673 3.0985h47.45c1.3116 0 2.3674-1.382 2.3674-3.0985v-39.354c0-1.7166-1.0558-3.0985-2.3674-3.0985h-47.45z" fill="none" stroke="#000" stroke-width="3.1844"/><path id="o" transform="matrix(.80677 0 0 .80677 .46304 .68034)" d="m3.9588 10.882c0 1.2859 1.0352 2.3212 2.3212 2.3212h47.546c1.2859 0 2.3212-1.0352 2.3212-2.3212" fill="none" stroke="#000" stroke-width="3.1844"/></g><g id="p" transform="translate(.63488 .0046868)" fill="#000"><path id="q" transform="matrix(.7918 0 0 .7918 39.066 37.695)" d="m-6.8226 5.8194v-13.992c0-0.51562 0.16797-0.94531 0.50391-1.2891 0.33594-0.34375 0.76953-0.51562 1.3008-0.51562s0.96094 0.16016 1.2891 0.48047c0.33594 0.32031 0.50391 0.76172 0.50391 1.3242v5.2266l5.9062-6.3516c0.41406-0.45312 0.87891-0.67969 1.3945-0.67969 0.47656 0 0.89062 0.16406 1.2422 0.49219 0.35938 0.32031 0.53906 0.74219 0.53906 1.2656 0 0.29688-0.09375 0.58984-0.28125 0.87891-0.1875 0.28125-0.48828 0.62891-0.90234 1.043l-4.5352 4.5117 5.543 5.8477c0.32031 0.30469 0.56641 0.60156 0.73828 0.89062 0.17969 0.28125 0.26953 0.59375 0.26953 0.9375 0 0.54688-0.17969 0.96484-0.53906 1.2539-0.35938 0.28125-0.80469 0.42188-1.3359 0.42188-0.3125 0-0.59766-0.085938-0.85547-0.25781-0.25-0.17188-0.57031-0.46094-0.96094-0.86719l-6.2227-6.7969v6.1758c0 0.49219-0.16797 0.90625-0.50391 1.2422-0.33594 0.33594-0.76562 0.50391-1.2891 0.50391-0.52344 0-0.95703-0.16016-1.3008-0.48047-0.33594-0.32031-0.50391-0.74219-0.50391-1.2656z" stroke-width="1"/><path id="r" transform="matrix(.11547 0 0 .11547 22.394 26.783)" d="m37.139 181.15 15.807 16.56 25.592-17.313 20.323 9.0327 6.7744 29.668 21.829-0.2005 6.0217-30.441 20.323-8.0594 25.592 16.56 12.044-16.56-29.044-27.41c-74.443 68.279-138.77-36.956-74.831-80.982l-9e-5 -15.807-7.5271 3.7636-23.334-14.834-16.119 13.237 14.613 24.931-8.2799 20.323-28.515 4.7369-0.088 21.608 29.356 7.5272 8.0917 19.759-18.63 23.899z" fill-rule="evenodd" stroke="#000" stroke-linecap="round" stroke-linejoin="round" stroke-width="1.293"/></g></svg>
