<?xml version="1.0" encoding="UTF-8"?>
<svg version="1.1" viewBox="0 0 48 48" xmlns="http://www.w3.org/2000/svg" xmlns:xlink="http://www.w3.org/1999/xlink"><defs><linearGradient id="c" x2="0" y1="40" y2="6" gradientTransform="matrix(.94118 0 0 .91176 1.412 2.08)" gradientUnits="userSpaceOnUse"><stop stop-color="#b1b1b1" offset="0"/><stop stop-color="#ddd" offset="1"/></linearGradient><linearGradient id="d" x1="23" x2="40" y1="21" y2="39" gradientTransform="translate(0 1004.4)" gradientUnits="userSpaceOnUse"><stop offset="0"/><stop stop-opacity="0" offset="1"/></linearGradient><linearGradient id="e" x2="0" y1="1041" y2="1013" gradientTransform="translate(0 -1004.4)" gradientUnits="userSpaceOnUse"><stop stop-color="#f2f2f2" offset="0"/><stop stop-color="#fff" offset="1"/></linearGradient><linearGradient id="f" x1="49.088" x2="49" y1="26.497" y2="20.735" gradientTransform="matrix(-1 0 0 -1 80 38)" gradientUnits="userSpaceOnUse"><stop offset="0"/><stop stop-color="#655c6f" stop-opacity="0" offset="1"/></linearGradient><linearGradient id="b" x1="34.237" x2="30.045" y1="10.71" y2="5.495" gradientUnits="userSpaceOnUse"><stop stop-color="#f7f7f7" offset="0"/><stop stop-color="#f7f7f7" stop-opacity=".392" offset="1"/></linearGradient><linearGradient id="a" x1="13" x2="13" y1="44.006" y2="3.172" gradientUnits="userSpaceOnUse"><stop offset="0"/><stop stop-opacity=".384" offset="1"/></linearGradient></defs><rect x="8" y="4" width="32" height="40" rx="1" ry="1" fill="url(#c)" fill-rule="evenodd"/><path d="m38 37-28 5 1.786 1.963 28.21 0.037v-36l-2-2z" fill="url(#d)" fill-rule="evenodd" opacity=".2"/><path d="m10 6v36h28v-36z" fill="url(#e)" fill-rule="evenodd"/><rect x="10" y="41" width="28" height="1.016" fill="#1b1b1b" fill-rule="evenodd" opacity=".437"/><rect x="15" y="14" width="8" height="1" fill="#bcbcbc" fill-rule="evenodd"/><rect x="24" y="14" width="5" height="1" fill="#bcbcbc" fill-rule="evenodd"/><rect x="15" y="16" width="6" height="1" fill="#bcbcbc" fill-rule="evenodd"/><rect x="22" y="16" width="3" height="1" fill="#bcbcbc" fill-rule="evenodd"/><rect x="15" y="18" width="4.03" height="1" fill="#bcbcbc" fill-rule="evenodd"/><rect x="20" y="18" width="7" height="1" fill="#bcbcbc" fill-rule="evenodd"/><rect x="15" y="10" width="5" height="1" fill="#bcbcbc" fill-rule="evenodd"/><rect x="26" y="10" width="6" height="1" fill="#bcbcbc" fill-rule="evenodd"/><rect x="15" y="12" width="7" height="1" fill="#bcbcbc" fill-rule="evenodd"/><rect x="23" y="12" width="3" height="1" fill="#bcbcbc" fill-rule="evenodd"/><rect transform="scale(1,-1)" x="15" y="-27" width="7" height="1" fill="#bcbcbc" fill-rule="evenodd"/><rect transform="scale(1,-1)" x="23" y="-27" width="3" height="1" fill="#bcbcbc" fill-rule="evenodd"/><rect transform="scale(1,-1)" x="15" y="-25" width="4.03" height="1" fill="#bcbcbc" fill-rule="evenodd"/><rect transform="scale(1,-1)" x="20" y="-25" width="8" height="1" fill="#bcbcbc" fill-rule="evenodd"/><rect transform="scale(1,-1)" x="15" y="-23" width="10" height="1" fill="#bcbcbc" fill-rule="evenodd"/><rect transform="scale(1,-1)" x="26" y="-23" width="5" height="1" fill="#bcbcbc" fill-rule="evenodd"/><rect x="12" y="6" width="1" height="35" clip-rule="nonzero" color="#000000" color-rendering="auto" enable-background="accumulate" fill="url(#a)" fill-rule="nonzero" image-rendering="auto" opacity=".082" shape-rendering="auto" solid-color="#000000" style="isolation:auto;mix-blend-mode:normal"/><rect x="15" y="30" width="10" height="1" fill="#bcbcbc" fill-rule="evenodd"/><rect x="15" y="32" width="7" height="1" fill="#bcbcbc" fill-rule="evenodd"/><rect x="23" y="32" width="4" height="1" fill="#bcbcbc" fill-rule="evenodd"/><rect x="15" y="34" width="4" height="1" fill="#bcbcbc" fill-rule="evenodd"/><rect x="15" y="36" width="7" height="1" fill="#bcbcbc" fill-rule="evenodd"/><rect x="26" y="16" width="4" height="1" fill="#bcbcbc" fill-rule="evenodd"/><rect x="21" y="10" width="4" height="1" fill="#bcbcbc" fill-rule="evenodd"/><rect x="27" y="12" width="7" height="1" fill="#bcbcbc" fill-rule="evenodd"/><path d="m38 13-7-7v7z" fill="url(#b)" fill-rule="evenodd"/><rect x="30" y="14" width="4" height="1" fill="#bcbcbc" fill-rule="evenodd"/><path d="m31 13 7 7v-7z" fill="url(#f)" fill-rule="evenodd" opacity=".2"/><path d="m31 6 7 7v-7z" fill="#fdfdfd" fill-rule="evenodd"/><rect x="10" y="6" width="2" height="35" clip-rule="nonzero" color="#000000" color-rendering="auto" enable-background="accumulate" fill="#fff" fill-rule="nonzero" image-rendering="auto" opacity=".373" shape-rendering="auto" solid-color="#000000" style="isolation:auto;mix-blend-mode:normal"/><rect x="31" y="16" width="3" height="1" fill="#bcbcbc" fill-rule="evenodd"/><rect transform="scale(1,-1)" x="29" y="-25" width="4.03" height="1" fill="#bcbcbc" fill-rule="evenodd"/><rect x="26" y="30" width="4" height="1" fill="#bcbcbc" fill-rule="evenodd"/><rect x="20" y="34" width="8" height="1" fill="#bcbcbc" fill-rule="evenodd"/><rect x="23" y="36" width="7" height="1" fill="#bcbcbc" fill-rule="evenodd"/><rect transform="scale(1,-1)" x="23" y="-27" width="3" height="1" fill="#bcbcbc" fill-rule="evenodd"/><rect transform="scale(1,-1)" x="32" y="-23" width="2" height="1" fill="#bcbcbc" fill-rule="evenodd"/><rect transform="scale(1,-1)" x="31" y="-31" width="3" height="1" fill="#bcbcbc" fill-rule="evenodd"/><rect x="28" y="32" width="6" height="1" fill="#bcbcbc" fill-rule="evenodd"/></svg>
