<?xml version="1.0" encoding="UTF-8"?>
<svg id="b" width="34.156" height="34.152" version="1.1" viewBox="0 0 32.021 32.018" xmlns="http://www.w3.org/2000/svg" xmlns:xlink="http://www.w3.org/1999/xlink"><defs id="c"><linearGradient id="a" x1="11" x2="10.344" y1="13" y2="10.969" gradientUnits="userSpaceOnUse"><stop id="d" stop-color="#313031" offset="0"/><stop id="e" stop-color="#8d8d8d" offset="1"/></linearGradient></defs><g id="f" transform="translate(-584 -873.49)"><rect id="g" x="584" y="873.51" width="31.999" height="31.999" fill="#fff"/><path id="h" d="m592.92 881.76c-1.0215-2.8457-1.9198-4.7516-2.6445-7.043 1.1699-0.416 2.1934-0.70264 3.6152-1.2222 3.6777 8e-3 2.2344 0.0435 4.4648-7e-3 1 1.6777 1.8652 4.7852 2.5312 6.5127-1.4434 0.27735-0.83053 0.17903-2.7188 0.59375-4.583 1.0066-5.248 1.166-5.248 1.166z" fill="#cdc6cd" fill-rule="evenodd"/><path id="i" transform="matrix(.9375 0 0 .9375 584 873.51)" d="m32.832 16.207c-2.095 0.1135-5.2114 0.89183-8.082 2.0156v0.9707c0.68431 1.9344 1.4135 3.3678 2.3633 6.0137 0 0 0.6622-0.04934 5.5508-1.123 0.60843-0.13364 1.0779-0.19822 1.4628-0.24219l0.0221-5.1855c-0.45297-0.9398-0.94757-1.8295-1.317-2.4492z" fill="#cdc6cd" fill-rule="evenodd"/><path id="j" d="m606.59 888.61c-1.0215-2.8457-1.2768-3.2165-2.0015-5.5078 2.7665-1.1139 4.744-2.0862 6.7764-2.1963 1 1.6777 1.8799 4.668 2.8975 6.293-1.4434 0.27735-2.3979 0.41337-4.2861 0.82813-4.583 1.0066-3.3862 0.58303-3.3862 0.58303z" fill="#cdc6cd" fill-rule="evenodd"/><path id="k" d="m598.38 898.99c-1.0215-2.8457-1.7748-4.154-2.4995-6.4453 2.7665-0.60117 6.4432-1.5002 8.4756-1.6103 0.5752 1.6924 1.3818 4.8144 2.3994 6.4394-1.4434 0.27735-2.297 0.44856-4.1982 0.79883-3.3965 0.62574-4.1772 0.8174-4.1772 0.8174z" fill="#cdc6cd" fill-rule="evenodd"/><path id="l" d="m595.4 891c-1.0215-2.8457-1.643-4.403-2.3677-6.6944 2.7665-1.1139 6.7948-1.6907 8.8272-1.8008 1 1.6777 1.5283 5.0928 2.5459 6.7178-1.4434 0.27735-1.7827 0.0618-3.6709 0.47656-4.583 1.0066-5.3345 1.3008-5.3345 1.3008z" fill="#cdc6cd" fill-rule="evenodd"/><path id="m" transform="matrix(.9375 0 0 .9375 584 873.51)" d="m1.6348 32.252c-0.48888 0.02649-1.0387 0.09352-1.623 0.1875l-0.011719 1.6939 2.627-1.26e-4c-0.35577-0.72555-0.69573-1.3839-0.99219-1.8813z" fill="#cdc6cd" fill-rule="evenodd"/><path id="n" transform="matrix(.9375 0 0 .9375 584 873.51)" d="m13.662 30.658c-2.1678 0.11745-5.7463-0.06508-8.6973 1.123 0.25981 0.82145 0.4814 1.5806 0.71094 2.3516h9.2988c-0.40016-1.3127-0.8016-2.6175-1.3125-3.4746z" fill="#cdc6cd" fill-rule="evenodd"/><path id="o" transform="matrix(.9375 0 0 .9375 584 873.51)" d="m25.064 28.062c-2.1679 0.11745-5.9124 0.09967-8.8633 1.2878 0.48199 1.5239 1.3053 3.2576 1.7266 4.7825l9.3867-0.0042c-0.76143-1.9685-1.4208-4.675-2.25-6.0661z" fill="#cdc6cd" fill-rule="evenodd"/><path id="p" transform="matrix(.9375 0 0 .9375 584 873.51)" d="m34.156 26.609c-1.8588 0.12073-3.9985 0.36834-6.0137 1.1797 0.64527 2.0402 1.3491 4.014 2.1855 6.3438h3.8281z" fill="#cdc6cd" fill-rule="evenodd"/><path id="q" d="m587.46 901.29c-1.0215-2.8457-1.7748-4.154-2.4995-6.4453 2.7665-1.1139 6.5165-1.7492 8.5488-1.8594 1 1.6777 1.8066 5.1514 2.8242 6.7764-1.4434 0.27735-1.7827 0.0618-3.6709 0.47656-4.583 1.0066-5.2026 1.0518-5.2026 1.0518z" fill="#cdc6cd" fill-rule="evenodd"/><path id="r" transform="matrix(.9375 0 0 .9375 584 873.51)" d="m6.2812 11.611c-1.656 0.08972-3.9523 0.59148-6.2598 1.3516v6.2305c0.17563 0.44775 0.34902 0.88309 0.54102 1.418 0 0 0.66024-0.04934 5.5488-1.123 2.0141-0.44241 1.6-0.2962 3.1396-0.59204-0.83129-1.7996-1.903-5.4954-2.9697-7.2849z" fill="#cdc6cd" fill-rule="evenodd"/><path id="s" d="m607.73 887.37c-0.83611-2.0181-1.5234-3.9844-1.5234-3.9844s1.4062-0.88623 4.336-1.355c0.65558 1.1339 1.332 2.859 2.3071 4.3799-2.0813 0.36044-3.1855 0.60896-4.8047 1.1133z" fill="#838183" fill-rule="evenodd"/><path id="t" d="m596.38 889.08c-0.83611-2.0181-1.3184-4.6142-1.3184-4.6142s1.4648-0.65185 4.3945-1.1206c0.65559 1.1339 1.332 3.0934 2.3071 4.6142-2.0813 0.36044-2.8779 0.34529-4.4971 0.84961z" fill="#838183" fill-rule="evenodd"/><path id="u" d="m610.49 895.3c-0.83611-2.0181-1.5234-3.9844-1.5234-3.9844s1.4648-0.65185 4.3945-1.1206c0.65559 1.1339 1.2734 2.6246 2.2485 4.1455-2.0813 0.36044-3.1855 0.60896-4.8047 1.1133z" fill="#838183" fill-rule="evenodd"/><path id="v" d="m597.98 893.52s1.4648-0.65185 4.3945-1.1206c0.65559 1.1339 1.2734 2.6246 2.2485 4.1455-2.0813 0.36044-3.9326 1.107-5.5518 1.6113-1.3143-1.2168-1.4477-2.9487-1.0913-4.6362z" fill="#838183" fill-rule="evenodd"/><path id="w" d="m588.73 899.64c-0.83611-2.0181-1.596-4.1812-1.596-4.1812s2.0361-0.41747 4.9658-0.88622c0.65559 1.1339 0.70207 2.3903 1.6772 3.9111-2.0813 0.36044-2.8748 0.45359-4.494 0.95791z" fill="#838183" fill-rule="evenodd"/><g id="x" transform="translate(584 873.51)"><path id="y" d="m29.5 5c0.89402-0.23526 2.0878-0.16313 2.305-0.15502-0.66718 0.65275-1.1599 0.91241-1.8367 1.2159-7.9341 3.2585-19.765 7.0189-26.678 9.9101-0.75337 0.11173-1.2165-0.18452-1.5424-0.52455-0.55357-0.73884-0.50223-0.69708-0.80357-1.9464-0.13058-1.53 0.92686-2.1537 1.6808-2.375" fill="url(#a)"/><path id="z" d="m26.281 9.2812-0.09375 0.15625 0.09375-0.15625" fill="#cdc6cd"/><path id="aa" d="m24 10.5c0.16667-0.16667 0.375-0.29167 0.625-0.375s0.54167-0.125 0.875-0.125h0.5l0.375 0.125c0.25 0.08333 0.45833 0.20833 0.625 0.375l0.5 0.5c0.16667 0.16667 0.29167 0.375 0.375 0.625l0.125 0.375-0.125 0.375c-0.08333 0.25-0.25 0.41667-0.5 0.5l-0.75 0.25c-1.3047 0.54454-2.3 1.0371-2.9294 1.6803 0.45622 0.20857 1.6464 0.86551 1.9294 1.0697 1.6411 1.286 1.8601 1.1862 3.75 2.25 0.25 0.08333 0.41667 0.25 0.5 0.5 0.08333 0.25 0.125 0.54167 0.125 0.875v1c0 0.33333-0.16667 0.5-0.5 0.5h-3c-0.33333 0-0.625-0.04167-0.875-0.125s-0.62174-0.25-0.70508-0.5c-4.132-3.3256-7.2676-5.0091-11.295-6.5-0.25-0.08333-0.41667-0.25-0.5-0.5-0.08333-0.25-0.08333-0.5 0-0.75s0.20825-0.43964 0.45606-0.5293l0.77197-0.2793c1.1868-0.43691 1.7284-0.60664 2.8315-1.0137 0.30127 0.25179 0.64876 0.5306 0.81543 0.69727s0.375 0.29167 0.625 0.375l0.75 0.25c0.25 0.08333 1.3333 0.6888 1.543 0.79297 0.14361-0.11513 0.31933-0.09783 0.62109-0.35547 0.30176-0.25763 1.2943-0.89583 1.4609-1.0625l1-1" fill="#f00"/><path id="ab" d="m4 12.5c0.16667-0.16667 0.375-0.29167 0.625-0.375 0.25-0.08333 0.5-0.08333 0.75 0s0.41667 0.25 0.5 0.5c0.4984 0.8313 0.80612 1.3435 1.125 1.875 0.60356 1.4438 0.69425 1.6559 0.90625 2.5938l0.09375 1.4062v1c0 1.6667-0.46875 1.8978-0.46875 3.5645 0 0.33333-0.041667 0.625-0.125 0.875s-0.20833 0.45833-0.375 0.625l-0.5 0.5c-0.16667 0.16667-0.375 0.29167-0.625 0.375-0.25 0.08333-0.375-0.04167-0.375-0.375v-2c0-1.6667 0.46875-1.8978 0.46875-3.5645v-1c0-0.33333-0.041667-0.625-0.125-0.875-0.65179-1.5201-1.1044-2.26-1.5781-3.154l-0.67188-0.59598c-0.19714-0.17487-0.375-0.20833-0.375-0.375s0.083333-0.33333 0.25-0.5l0.5-0.5" fill="#f00"/><path id="ac" d="m20.918 12.918c0.17226-0.13495 0.27621-0.1276 0.50582-0.26011 1.147 0.26424 2.8033 1.6549 2.2718 2.1475" fill="#c50000"/><path id="ad" d="m1.2945 14.775 0.45324 0.67105 0.44095 0.31187c0.27214 0.19248 0.5913 0.2428 1.1702 0.18506l-0.25635 1.053-0.10254 0.50366c-0.9161 3.0589-1.2601 4.9537-1.565 7.5753-0.30038 2.0518-0.43504 4.4247-0.43504 6.4247v0.5h-1v-13l0.33036-0.86161" fill="#f00"/><path id="ae" d="m18.047 15.8c1.0934 0.50067 1.8276 0.91548 2.5436 1.3735-0.22502 0.47388-0.33925 0.33745-0.5911 0.8263-2.6335-1.481-2.0274-1.0248-2.5559-1.5049" fill="#c50000"/><path id="af" d="m30 16.5v-0.5h1v1h-1v-0.5" fill="#cdc6cd"/><path id="ag" d="m17.444 16.495c1.6499 1.0489 1.3784 0.82853 2.5559 1.5049-0.16667 0.16667-0.79167 1.375-0.875 1.625l-0.125 0.375 0.125 0.375c0.08333 0.25 0.20833 0.45833 0.375 0.625s0.29167 0.375 0.375 0.625c0.08333 0.25 0.08333 0.5 0 0.75s-0.25 0.41667-0.5 0.5c-0.67986 0.51602-1.4065 0.64389-2 1-0.59605 0.20338-1.2484 0.125-1.875 0.125-0.80207-0.24363-1.5418-0.454-1.5-1.5 0.29921-1.3752 1.1831-3.0571 1.8315-4.185" fill="#f00"/></g><path id="ah" d="m594.08 879.75c-0.83611-2.0181-1.5234-3.9844-1.5234-3.9844s1.4648-0.65185 4.3945-1.1206c0.65559 1.1339 0.95109 2.5954 1.6626 4.1748-2.0813 0.36044-2.5996 0.57966-4.2188 1.084z" fill="#838183" fill-rule="evenodd"/><path id="ai" transform="matrix(.9375 0 0 .9375 584 873.51)" d="m4.252 1.7188c-2.0256 0.42255-1.6943 0.18309-4.2363 0.76758v8.3672c0.58397-0.13248 0.46763-0.11226 3.6914-0.82031 2.0141-0.44237 2.2671-0.30572 3.8066-0.60156-1.0854-1.7333-2.3195-5.8384-3.2617-7.7129z" fill="#cdc6cd" fill-rule="evenodd"/><path id="aj" transform="matrix(.9375 0 0 .9375 584 873.51)" d="m2.4121 3.6895c-0.96564 0.1545-1.7292 0.32276-2.3965 0.48828v4.8516l0.28125-0.074219c1.7271-0.53794 2.2937-0.45928 4.5137-0.84375-1.0402-1.6222-1.6991-3.2123-2.3984-4.4219z" fill="#838183" fill-rule="evenodd"/><path id="ak" transform="matrix(.9375 0 0 .9375 584 873.51)" d="m27.742-0.0078125c0.64475 1.1242 1.3641 2.3801 2.0078 4.1562 0 0 0.61431 0.075401 4.3906-0.71484v-3.4414z" fill="#cdc6cd" fill-rule="evenodd"/><path id="al" transform="matrix(.9375 0 0 .9375 584 873.51)" d="m17.592-0.0078125c1.0061 2.0007 1.9854 3.7484 2.5879 6.4551-1e-6 0 1.8341-0.35598 4.5664-1.1797 1.9743-0.59518 1.8393-0.33307 3.3789-0.62891-0.77358-1.2354-1.6868-3.0527-2.5352-4.6465z" fill="#cdc6cd" fill-rule="evenodd"/><path id="am" transform="matrix(.9375 0 0 .9375 584 873.51)" d="m34.125 6.1641c-0.90295 0.16885-1.7977 0.39777-2.6289 0.73242 0.65661 2.076 1.6698 4.0563 2.6289 6.457z" fill="#cdc6cd" fill-rule="evenodd"/><path id="an" transform="matrix(.9375 0 0 .9375 584 873.51)" d="m19.736-0.0078125c-0.28338 0.10178-0.47266 0.17578-0.47266 0.17578s0.73315 2.0974 1.625 4.25l0.33594 0.16406c1.7271-0.53794 2.905-0.80303 5.125-1.1875-0.7824-1.2202-1.3368-2.3668-1.8672-3.4023z" fill="#838183" fill-rule="evenodd"/><path id="ao" transform="matrix(.9375 0 0 .9375 584 873.51)" d="m29.871-0.0078125c0.26933 0.7131 0.56088 1.4858 0.91797 2.3477l0.33594 0.16406c1.0643-0.33149 1.9961-0.55934 3.0156-0.77539v-1.7363z" fill="#838183" fill-rule="evenodd"/><path id="ap" transform="matrix(.9375 0 0 .9375 584 873.51)" d="m34.156 28.006c-2.4782 0.35648-3.8516 0.40625-3.8516 0.40625s0.8269 2.7537 1.7188 4.9062l0.33594 0.16406c0.65286-0.20334 1.215-0.34563 1.7969-0.49219z" fill="#838183" fill-rule="evenodd"/><path id="aq" transform="matrix(.9375 0 0 .9375 584 873.51)" d="m23.961 29.748c-3.125 0.05806-5.6623 0.65426-5.6623 0.65426s0.8625 1.951 1.5705 3.7305h5.0332c0.27434-0.05023 0.4587-0.09656 0.76953-0.15039-1.0402-1.6222-1.0116-3.0248-1.7109-4.2344z" fill="#838183" fill-rule="evenodd"/><path id="ar" transform="matrix(.9375 0 0 .9375 584 873.51)" d="m12.439 31.936c-3.125 0.5-5.125 0.97656-5.125 0.97656s0.058102 0.44409 0.22852 1.207l5.6133-0.0078c-0.20618-0.843-0.3265-1.5007-0.7168-2.1758z" fill="#838183" fill-rule="evenodd"/></g></svg>
