<?xml version="1.0" encoding="UTF-8"?>
<svg id="c" version="1.1" viewBox="0 0 64 64" xmlns="http://www.w3.org/2000/svg" xmlns:xlink="http://www.w3.org/1999/xlink"><defs id="d"><linearGradient id="a" x1="58" x2="58" y1="392.36" y2="336.36" gradientTransform="translate(-48 -332.36)" gradientUnits="userSpaceOnUse"><stop id="e" stop-color="#fff" stop-opacity="0" offset="0"/><stop id="f" stop-color="#fff" stop-opacity=".2" offset="1"/></linearGradient><linearGradient id="b" x1="40" x2="54" y1="17" y2="31" gradientTransform="translate(0 1.9073e-5)" gradientUnits="userSpaceOnUse"><stop id="g" stop-color="#060606" offset="0"/><stop id="h" stop-opacity="0" offset="1"/></linearGradient></defs><path id="i" d="m10 61v-58h30l14 14v44h-14z" fill="#4d4d4d"/><rect id="j" transform="scale(1,-1)" x="10" y="-4" width="30" height="1" clip-rule="nonzero" color="#000000" color-rendering="auto" enable-background="accumulate" fill="#fff" fill-rule="nonzero" image-rendering="auto" opacity=".5" shape-rendering="auto" solid-color="#000000" stroke-linejoin="miter" stroke-miterlimit="4" stroke-width="1" style="isolation:auto;mix-blend-mode:normal"/><rect id="k" transform="scale(1,-1)" x="10" y="-61" width="44" height="1" clip-rule="nonzero" color="#000000" color-rendering="auto" enable-background="accumulate" fill="#000" fill-rule="nonzero" image-rendering="auto" opacity=".25" shape-rendering="auto" solid-color="#000000" stroke-linejoin="miter" stroke-miterlimit="4" stroke-width="1" style="isolation:auto;mix-blend-mode:normal"/><path id="l" d="m54 17-14-14v14z" fill="#000" fill-rule="evenodd" opacity=".6"/><path id="m" d="m40 17 14 14v-14z" fill="url(#b)" fill-rule="evenodd" opacity=".2"/><path id="n" d="m10 61v-58h30l14 14v44h-14z" fill="url(#a)"/><g id="o"><path id="p" d="m21 31.513c7.043 0 8.3464 8.9615 11.453 8.9893 3.1068 0.02484 4.5065-9.0108 11.547-9.0108" fill="none" stroke="#1d99f3" stroke-miterlimit="4" stroke-width="1"/><path id="q" d="m21 30.545c7.043 0 8.4753-6.1008 11.485-6.0943 2.9904 0.0064 4.4749 7.0415 11.515 7.0415" fill="none" stroke="#da4453" stroke-miterlimit="4" stroke-width="1"/><path id="r" d="m21 30.545c7.043 0 7.4697-10.014 11.47-10.014s4.4901 10.961 11.53 10.961" fill="none" stroke="#d6d6d6" stroke-miterlimit="4" stroke-width="1"/><g id="s" fill="#d6d6d6" style=""><rect id="t" x="20" y="20" width="1" height="23" color="#000000" color-rendering="auto" image-rendering="auto" shape-rendering="auto" stroke-width="1.109"/><g id="u" stroke-miterlimit="4" stroke-width="1" style=""><rect id="v" x="20" y="31" width="24" height="1"/><rect id="w" x="26" y="30" width="1" height="3"/><rect id="x" x="32" y="30" width="1" height="3"/><rect id="y" x="38" y="30" width="1" height="3"/></g></g></g></svg>
