<?xml version="1.0" encoding="UTF-8"?>
<svg id="h" version="1.1" viewBox="0 0 16 16" xmlns="http://www.w3.org/2000/svg" xmlns:xlink="http://www.w3.org/1999/xlink"><defs id="i"><linearGradient id="a" x2="0" y1="531.79" y2="544.79" gradientTransform="matrix(.70711 -.70711 .70711 .70711 -273.44 450.74)" gradientUnits="userSpaceOnUse"><stop id="j" offset="0"/><stop id="k" stop-opacity="0" offset="1"/></linearGradient><linearGradient id="g" x1="8.2242" x2="8.2242" y1="1037.4" y2="1051.2" gradientTransform="matrix(1.4546 0 0 1 -198.81 -31)" gradientUnits="userSpaceOnUse"><stop id="l" stop-color="#e8b971" offset="0"/><stop id="m" stop-color="#bd8d48" offset="1"/></linearGradient><linearGradient id="f" x1="7.0383" x2="14.163" y1="4.7331" y2="11.858" gradientTransform="translate(0 1036.4)" gradientUnits="userSpaceOnUse" xlink:href="#a"/><linearGradient id="e" x1="5.0996" x2="7.9566" y1="12.127" y2="14.984" gradientTransform="translate(0 1036.4)" gradientUnits="userSpaceOnUse" xlink:href="#a"/><linearGradient id="d" x1="7.1396" x2="8.8904" y1="13.175" y2="14.926" gradientTransform="translate(0 1036.4)" gradientUnits="userSpaceOnUse" xlink:href="#a"/><linearGradient id="c" x1="9.1318" x2="11.179" y1="12.142" y2="14.189" gradientTransform="translate(0 1036.4)" gradientUnits="userSpaceOnUse" xlink:href="#a"/><linearGradient id="b" x1="7.4155" x2="7.4155" y1="1047.4" y2="1039.4" gradientUnits="userSpaceOnUse"><stop id="n" stop-color="#f3e0c1" offset="0"/><stop id="o" stop-color="#fff7eb" offset="1"/></linearGradient></defs><g id="p" transform="translate(0 -1036.4)"><g id="q"><circle id="r" cx="8" cy="1044.4" r="7" fill="url(#g)"/><path id="s" d="m5.8672 1048.5-0.70117 0.7032 2.0781 2.08a7 7 0 0 0 0.75586 0.043 7 7 0 0 0 0.65625-0.037l-2.7891-2.7891z" fill="url(#e)" opacity=".2"/><path id="t" d="m5.5 1048.4a0.5 0.5 0 0 0-0.5 0.5 0.5 0.5 0 0 0 0.5 0.5 0.5 0.5 0 0 0 0.5-0.5 0.5 0.5 0 0 0-0.5-0.5z" fill="#eddbbc"/><path id="u" d="m7.8262 1049.5-0.70312 0.7032 1.168 1.1679a7 7 0 0 0 1.2383-0.1679l-1.7031-1.7032z" fill="url(#d)" opacity=".2"/><path id="v" d="m7.5 1049.4a0.5 0.5 0 0 0-0.5 0.5 0.5 0.5 0 0 0 0.5 0.5 0.5 0.5 0 0 0 0.5-0.5 0.5 0.5 0 0 0-0.5-0.5z" fill="#eddbbc"/><path id="w" d="m9.8496 1048.5-0.70117 0.7032 1.5898 1.5898a7 7 0 0 0 0.92774-0.4766l-1.8164-1.8164z" fill="url(#c)" opacity=".2"/><path id="x" d="m9.5 1048.4a0.5 0.5 0 0 0-0.5 0.5 0.5 0.5 0 0 0 0.5 0.5 0.5 0.5 0 0 0 0.5-0.5 0.5 0.5 0 0 0-0.5-0.5z" fill="#eddbbc"/><path id="y" d="m14.994 1044.2a7 7 0 0 1-6.9941 6.8965 7 7 0 0 1-6.9941-6.8535 7 7 0 0 0-0.0058594 0.1035 7 7 0 0 0 7 7 7 7 0 0 0 7-7 7 7 0 0 0-0.0059-0.1465z" fill="#a37836"/><path id="z" d="m11.51 1039.6-2.0488 1.2167-1.8242 3.0508-1.2695 1.4883-2.293-0.2363-0.80859 1.5176 4.7441 4.7441a7 7 0 0 0 6.9902-7 7 7 0 0 0-0.58594-2.7812l-1.8926-1.8926-1.0117-0.1074z" fill="url(#f)" opacity=".2"/><path id="aa" d="m12 1045.9s-1.9459 1-3 1c-1.0541 0-2.5-1.5-2.5-1.5s-2.8355-0.7138-3 0.3 1.3245 1.4869 2.5 1c1.906-1.8679 1.9945-5.5774 4.3-6.5 2.3055-0.9226 2.4083 0.2987 2 2.2" fill="none" stroke="url(#b)" stroke-linejoin="miter" stroke-width="1px"/></g></g></svg>
