<?xml version="1.0" encoding="UTF-8"?>
<svg viewBox="0 0 16 16" xmlns="http://www.w3.org/2000/svg"><linearGradient id="a" x1="137.26" x2="137.26" y1="260.75" y2="312.88" gradientTransform="matrix(2 0 0 1.5385 -71.629 -132.47)" gradientUnits="userSpaceOnUse"><stop stop-color="#b3b3b6" offset="0"/><stop stop-color="#cecece" offset="1"/></linearGradient><linearGradient id="b" x1="399.77" x2="399.77" y1="681" y2="549.33" gradientTransform="matrix(.11336 0 0 .16915 80.271 151.92)" gradientUnits="userSpaceOnUse"><stop stop-color="#cbcbcd" offset="0"/><stop stop-color="#e0e0e2" offset=".5"/><stop stop-color="#fff" offset="1"/></linearGradient><filter id="c"><feGaussianBlur stdDeviation="2.4"/></filter><g transform="matrix(.125 0 0 .125 -9.9536 -29.61)"><rect transform="matrix(1 0 0 .93333 0 23.525)" x="83.629" y="232.88" width="120" height="120" rx="1.852" ry="2.1863" filter="url(#c)" opacity=".4"/><path d="m87.629 244.88h112v104h-112z" fill="url(#b)"/><path d="m157.83 266.5v-2.7448z" fill="#fff" fill-opacity=".75688"/><path d="m87.629 268.88h112v80h-112z" fill="#fff"/><path d="m143.63 268.88h8v80h-8z" fill="url(#a)" fill-rule="evenodd"/><g fill="#bfbfbf"><path d="m95.629 276.88h8v32h-8z" opacity=".81"/><path d="m103.63 276.88h32v8h-32z" opacity=".81"/><path d="m127.63 276.88h8v32h-8z" opacity=".81"/><path d="m95.629 340.88h40v8h-40z" opacity=".81"/><path d="m95.629 316.88h8v32h-8z" opacity=".81"/><path d="m103.63 316.88h32v8h-32z" opacity=".81"/><path d="m127.63 316.88h8v32h-8z" opacity=".81"/><path d="m95.629 300.88h40v8h-40z" opacity=".81"/></g></g></svg>
