<?xml version="1.0" encoding="UTF-8"?>
<svg viewBox="0 0 32 32" xmlns="http://www.w3.org/2000/svg"><path d="m16 4v0.0058594l-6.5 11.994-2.2051-4h-3.2949v1h2.4004l3.0996 5.541 7.5-13.541h10v2h1v-3zm5.5 3a4.5 4.5 0 0 0-4.5 4.5 4.5 4.5 0 0 0 4.5 4.5 4.5 4.5 0 0 0 3.5-1.6738v1.6738h1v-9h-1v1.6777a4.5 4.5 0 0 0-3.5-1.6777zm0 1a3.5 3.5 0 0 1 3.5 3.5 3.5 3.5 0 0 1-3.5 3.5 3.5 3.5 0 0 1-3.5-3.5 3.5 3.5 0 0 1 3.5-3.5z" fill="#eff0f1"/><path d="m23 19v4h-4v1h4v4h1v-4h4v-1h-4v-4z" fill="#3daee9"/></svg>
