<?xml version="1.0" encoding="UTF-8"?>
<svg id="c" version="1.0" viewBox="0 0 128 128" xmlns="http://www.w3.org/2000/svg"><defs id="d"><filter id="b" x="-.25758" y="-.23543" width="1.5152" height="1.4709" color-interpolation-filters="sRGB"><feMorphology id="e" in="SourceGraphic" radius="4" result="result0"/><feGaussianBlur id="f" in="result0" result="result91" stdDeviation="8"/><feComposite id="g" in="SourceGraphic" in2="result91" operator="in"/></filter><filter id="a" x="-.028125" y="-.034245" width="1.0562" height="1.0685" color-interpolation-filters="sRGB"><feGaussianBlur id="h" in="SourceGraphic" result="blur" stdDeviation="1.5"/><feDiffuseLighting id="i" lighting-color="#ffffff" result="diffuse" surfaceScale="10"><feDistantLight id="j" azimuth="90" elevation="25"/></feDiffuseLighting><feComposite id="k" in="diffuse" in2="diffuse" k1="1" operator="arithmetic" result="composite1"/><feComposite id="l" in="composite1" in2="SourceGraphic" k1="0.886275" k3="1" operator="arithmetic" result="composite2"/></filter></defs><g id="m" transform="matrix(1.0015 0 0 1.0015 .25 -.43362)"><path id="n" d="m61.156 38.522c-2.2944 5.7422-4.5044 15.245-7.1734 4.3129-2.0016-7.7646-6.2787 4.8657-9.3891 7.0308-6.2732 4.7687-9.7451 11.488-12.531 18.688-7.3778-6.2734-4.6104 3.7949-5.0625 8.7188 0.40218 7.3809-0.80051 15.452 0.59375 22.406 5.8547 5.1016 10.09 13.154 18.802 13.05 5.9594 2.0714 5.2131-6.9401 10.617 0.53774 4.9729 6.816 8.044 2.8308 11.29-0.52223 4.7433 7.2606 6.196-8.6873 10.197-1.534 6.1842 2.4062 11.729 3.5517 12.744-4.6104 1.27-6.4463 12.353-6.577 9.7563-14.327-0.36218-8.041 0.71936-16.656-0.53125-24.344-4.1975-3.2761-7.4361-10.841-12.219-11.5-5.9175 2.8717-3.6375-9.7897-6.0726-13.516-0.7962-9.7859-2.8923-5.3611-5.1711 1.3498-1.2609 9.6612-6.5614 5.0557-9.2689-1.2674-2.4085-2.0249-5.153-12.724-6.5812-4.4722z" fill="#f3e517" fill-rule="evenodd" filter="url(#b)"/><g id="o" transform="translate(0 -3.7281)"><g id="p"><path id="q" d="m30 94 2 2 3 10 1-12 3 15v-19l2 5 3 14v-19l2 2 3 17 3-23 6.6157 25.92 0.38432-15.92 2-6 2 25 6-25 2 21 5-22 5 24 1-18 3-6 1 23 5-22 3 10 1-9 3 6v-19l-3 8-1-17-2 13-2-4-1-14-5 19-1-4-3-30-3 26-2 8-4-27-4 23-2 6-1-41.305-6 46.305-6-42-3 36-2-4-2-24-1 24-3 7-2-24-2 19-3-5v14l-4-15z" fill="#ff7901"/><path id="r" d="m51 71.999-1.1603 1.9326-0.83856 10.068-2.0008-3.9997-0.097506-1.172-1.9033 3.1709-1.2247-1.4704-2.775 6.4704-0.90681-10.885-0.093606-0.11311-2.9993 8.9997-2.9993-1.874v7.8726l-2.5196-9.4483-1.4801-0.92435v13.374l1.5718 1.5718 3.4283-0.57138 0.8132 1.2208 0.18526-2.2212 0.71375 3.5706 0.28667 0.42902 2.0008-2.502v-5.4973l1.4665 3.6662 0.53238-0.66694 3.0012 3.752v-6.7513l1.9989 1.9989 0.093606 0.53238 0.90681-4.532 3.9646 5.9459 1.0355-7.9467 1.6966 6.6518 3.3035-1.6517 1.8916 9.458 0.10726-4.4579 2.0008-5.9985 0.88731 11.09 3.1124-8.091 2.4123 3.6174 1.5874-6.6167 0.60064 6.2988 1.4002-6.2988 3.559 5.3394 1.4411-6.3398 1.7376 8.3406 3.2626-7.3402 1.0004 5.0001 1.8741-3.7481 0.12481-1.252 0.39978 0.20086 0.60064-1.2013 0.066304 1.5328 2.933 1.4665 2.3675 0.78979 0.63379-2.7886 1.0004 3.3327 1.9989 0.66694 0.7274-0.54603 0.27302-2.4552 0.81905 1.6361 2.1802-1.6361v-7.9993l-1.3631-1.3631-1.6362 4.3624-0.37442-6.3729-1.9599-1.9599-0.66694 4.3331-1.6654-3.3347-3.3347 3.3347-1.5289-4.5866-1.4704 5.587-1.0004-3.9997-0.35492-3.5589-3.6448 6.5582-1.8702-8.1085-0.12871 1.1096-2.0008 7.9993-1.3709-9.2571-3.6292 7.2563-2.1393-6.9502-0.86 4.9513-2.0008 6.0005-0.30032-12.371c-1.1846 4.2174-2.699 9.6955-2.699 10.371 0 0.79669-1.6166-3.3915-2.3909-5.4232l-1.6089 12.424-1.5991-11.199-1.4021-2.8003-1.9989 7.9993-2.0008-12.001z" fill="#ff0101" fill-rule="evenodd"/></g></g><g id="s" transform="translate(0 .27187)" fill="#00c"><path id="t" d="m64 6.875c-13.263-5e-7 -25.359 4.1408-34.281 11.094s-14.719 16.901-14.719 27.969v4c-8.8588 4.4885-15 16.263-15 30.062 3.5e-7 17.664 10.049 32 23 32v-66.062c1e-6 -8.2881 4.2898-15.916 11.656-21.656s17.768-9.4062 29.344-9.4062c11.575 0 21.977 3.666 29.344 9.4062 7.3664 5.7403 11.656 13.368 11.656 21.656v66.062c12.951 0 23-14.336 23-32 0-13.8-6.1412-25.574-15-30.062v-4c0-11.067-5.7962-21.016-14.719-27.969-8.9226-6.953-21.018-11.094-34.281-11.094z" filter="url(#a)"/><path id="u" d="m26 49v63c2 0 4-1 5-3v-58c-1-1-3-2-5-2z"/><path id="v" d="m102 49c-2 0-4 1-5 2v58c1 2 3 3 5 3v-63z"/></g></g></svg>
