<?xml version="1.0" encoding="UTF-8"?>
<svg id="c" version="1.1" viewBox="0 0 64 64" xmlns="http://www.w3.org/2000/svg" xmlns:xlink="http://www.w3.org/1999/xlink"><defs id="d"><filter id="b" x="-.011714" y="-.0123" width="1.0234" height="1.0246" color-interpolation-filters="sRGB"><feGaussianBlur id="e" stdDeviation="0.205"/></filter><linearGradient id="a" x1="35" x2="35" y1="-14" y2="27" gradientTransform="translate(0,32)" gradientUnits="userSpaceOnUse"><stop id="f" stop-color="#27ab5f" offset="0"/><stop id="g" stop-color="#249a56" offset="1"/></linearGradient></defs><rect id="h" x="4" y="4" width="56" height="56" rx="4" fill="#34d07b" opacity=".99"/><rect id="i" x="5" y="5" width="54" height="54" rx="3" fill="url(#a)" fill-rule="evenodd"/><path id="j" d="m32 13-21 12v24l7 4 7-4v-8l-7-4v-8l14-8 14 8v8l-7 4v8l7 4 7-4v-24z" clip-rule="nonzero" color="#000000" color-rendering="auto" enable-background="accumulate" fill="#000" fill-rule="nonzero" filter="url(#b)" image-rendering="auto" opacity=".15" shape-rendering="auto" solid-color="#000000" style="isolation:auto;mix-blend-mode:normal;text-decoration-color:#000000;text-decoration-line:none;text-decoration-style:solid;text-indent:0;text-transform:none;white-space:normal"/><path id="k" d="m32 11-21 12v24l7 4 7-4v-8l-7-4v-8l14-8 14 8v8l-7 4v8l7 4 7-4v-24z" clip-rule="nonzero" color="#000000" color-rendering="auto" enable-background="accumulate" fill="#fff" fill-rule="nonzero" filter="url(#filter5497)" image-rendering="auto" shape-rendering="auto" solid-color="#000000" style="isolation:auto;mix-blend-mode:normal;text-decoration-color:#000000;text-decoration-line:none;text-decoration-style:solid;text-indent:0;text-transform:none;white-space:normal"/></svg>
