<?xml version="1.0" encoding="UTF-8"?>
<svg id="f" version="1.1" viewBox="0 0 48 48" xmlns="http://www.w3.org/2000/svg" xmlns:xlink="http://www.w3.org/1999/xlink"><defs id="g"><linearGradient id="a" x2="0" y1="22" y2="8" gradientTransform="translate(429.57 508.8)" gradientUnits="userSpaceOnUse"><stop id="h" stop-color="#2e3436" offset="0"/><stop id="i" stop-color="#555753" offset="1"/></linearGradient><linearGradient id="b" x2="0" y1="543.8" y2="502.66" gradientTransform="matrix(.66667 0 0 .63518 139.19 192.52)" gradientUnits="userSpaceOnUse"><stop id="j" stop-color="#c6cdd1" offset="0"/><stop id="k" stop-color="#e0e5e7" offset="1"/></linearGradient><linearGradient id="c" x1="400.57" x2="418.57" y1="529.8" y2="548.8" gradientTransform="translate(11-6)" gradientUnits="userSpaceOnUse"><stop id="l" offset="0"/><stop id="m" stop-opacity="0" offset="1"/></linearGradient><linearGradient id="d" x2="0" y1="543.8" y2="502.66" gradientTransform="matrix(.66667 0 0 .63518 124.19 185.52)" gradientUnits="userSpaceOnUse" xlink:href="#b"/><linearGradient id="e" x1="388.57" x2="400.57" y1="523.8" y2="538.8" gradientTransform="translate(11-7)" gradientUnits="userSpaceOnUse" xlink:href="#c"/></defs><g id="n" transform="translate(-384.57-499.8)"><rect id="o" x="392.57" y="504.8" width="20" height="28" rx="0" fill="url(#d)"/><rect id="p" x="392.57" y="504.8" width="20" height="4" fill="#566069"/><rect id="q" x="392.57" y="508.8" width="20" height="1" fill="#3daee9"/><rect id="r" x="394.57" y="509.8" width="18" height="21" fill="#fff"/><path id="s" d="m412.57 504.8-5 7v4l5-7z" fill="#464e55"/><g id="t" color="#000000" color-rendering="auto" image-rendering="auto" shape-rendering="auto" text-rendering="auto"><path id="u" d="m412.57 508.8-5 7v1l5-7z" fill="#1583bd"/><path id="v" d="m412.57 509.8-5 7v1l5-7z" fill="#a1aeb4"/></g><rect id="w" x="407.57" y="511.8" width="20" height="28" rx="0" fill="url(#b)"/><rect id="x" x="407.57" y="511.8" width="20" height="4" fill="#566069"/><rect id="y" x="407.57" y="515.8" width="20" height="1" fill="#3daee9"/><rect id="z" x="407.57" y="516.8" width="18" height="21" fill="#fff"/><path id="aa" d="m417.57 522.8l1 1h3l6 6v10l-5-.039-8.59-8.584 2.372-2.595-3.782-3.782 4-1z" color="#000000" color-rendering="auto" fill="url(#c)" fill-rule="evenodd" image-rendering="auto" opacity=".117" shape-rendering="auto" text-rendering="auto"/><rect id="ab" x="424.57" y="512.8" width="2" height="2" rx="1" fill="#eff0f1"/><rect id="ac" transform="rotate(90)" x="504.8" y="-392.57" width="41" height="2" color="#000000" color-rendering="auto" fill="url(#a)" image-rendering="auto" shape-rendering="auto" text-rendering="auto"/><path id="ad" d="m416.57 522.8v1h-4v1h6.125v.25c0 .226-.141.768-.299 1.143-.174.414-.556.977-.926 1.365l-.307.32-.221-.24c-.302-.33-.752-1.01-.92-1.391l-.141-.314h-1.205l.125.303c.234.568.749 1.348 1.244 1.883.44.476.454.38-.113.801-.851.632-1.508 1.016-2.256 1.32l-.404.164.707.773.27-.135c.834-.417 1.801-1.031 2.488-1.578l.385-.305.293.238c.14.113.36.276.531.4.026.019.059.046.082.063.161.114.236.167.275.178.564.386 1.164.766 1.738 1.053l.283.141.369-.406.371-.404-.424-.172c-.682-.278-1.313-.652-2.049-1.174-.062-.051-.142-.114-.314-.236-.228-.162-.414-.311-.414-.332 0-.021.13-.181.291-.355.867-.942 1.39-1.902 1.535-2.814l.072-.537h1.807v-1h-4v-1z" fill="#555753"/><path id="ae" d="m402.63 515.81l4.988 4.988-.05 12h-.254l-8.973-8.973 3.06-8.01z" color="#000000" color-rendering="auto" fill="url(#e)" fill-rule="evenodd" image-rendering="auto" opacity=".117" shape-rendering="auto" text-rendering="auto"/><path id="af" d="m402.02 516.88l-1.444 3.922h2.885zm-.612-1.068h1.229l3.055 8.01h-1.127l-.726-2.025-3.617.004-.73 2.02h-1.143z" fill="#555753"/></g></svg>
