<?xml version="1.0" encoding="UTF-8"?>
<svg id="b" version="1.1" viewBox="0 0 48 48" xmlns="http://www.w3.org/2000/svg"><style>.s0{fill:#2e3436;filter:url(#a);opacity:0.3;}.s1{fill:#4e9a06;stroke-linecap:round;stroke:#316004;}</style><defs id="c"><filter id="a"><feGaussianBlur id="d" stdDeviation="0.2"/></filter></defs><g id="e"><path id="f" transform="translate(3.4641 6)" d="M0 16 0 28 21 40.1l21-12.4 0-11.5L20.8 4 0 16z" fill="#e9b96e" stroke="#573a0d" stroke-linecap="square"/><path id="g" d="m8.5 30.9-2-1.2v6l10.8 6.3v-2l-1.7-1v-2l-2.1-1.2v-4l-5-2.9v2z" fill="#2e3436" stroke="#2e3436" stroke-linecap="round"/><path id="h" d="m6.9 36 3.5-2 3.5 2 1.6 0.9v2l2 1.2v2l-10.6-6.1z" fill="#555753" stroke="#2e3436"/><path id="i" d="m26 19 5.5 3.2v2l6.6 3.8 3.5-2 3.9-2.3v2.5-4l-12.6-7.2-6.9 4z" fill="#fce94f" stroke="#625802" stroke-linecap="round" stroke-linejoin="round"/><path id="j" d="m24.8 18.3 8.7-5v2l-8.7 5v-2z" fill="#e9b96e" stroke="#573a0d" stroke-dashoffset=".5" stroke-linecap="round" stroke-linejoin="round"/><path id="k" transform="translate(0,4)" d="m26 5-22.5 13 14 8.1 14-7.9-6.7-3.9 8.7-5-7.5-4.3z" fill="#73d216" stroke="#325b09" stroke-linecap="square" stroke-linejoin="round"/><path id="l" transform="translate(0,4)" d="m17.5 28.1v2l1.6 0.9v2l5.4 3.1 12-7.1v-2.1l2-1.2v-1.5l-7-4-14 7.9z" fill="#729fcf" stroke="#19314b" stroke-linecap="round"/><g id="m"><path id="n" class="s0" d="m13.9 20 6.9 4-6.9 4-6.9-4 6.9-4z"/><g id="o"><path id="p" transform="translate(-3.4641 2)" d="m15.6 21 1.7 1 1.7-1v-6l-1.7-1-1.7 1v6z" fill="#c17d11" stroke="#8f5902" stroke-linecap="round"/><path id="q" class="s1" transform="translate(-3.4641 2)" d="m10 13.8 7.3 4.2 6.6-3.8v-8.3l-6.6-3.9-7.3 4.2v7.5z"/></g></g><g id="r" transform="translate(-4.2592e-7 2)"><path id="s" class="s0" transform="translate(24.249 -2)" d="m13.9 20 5.2 3-5.2 3-5.2-3 5.2-3z"/><path id="t" class="s1" transform="translate(20.785)" d="m15.7 21.1 1.6 0.9 1.4-0.8v-8.4l-1.4-0.8-1.6 1.1v8z"/></g><path id="u" d="m12.1 33-0.8-0.5" fill="none" stroke="#ef2929" stroke-dasharray="0.5" stroke-dashoffset=".3" stroke-width=".5"/><path id="v" d="m45.5 26.7-4 2.3v1l-2 1.2v2l-2 1.2v4l8-4.6v-7z" fill="#888a85" stroke="#2e3436" stroke-dashoffset=".5" stroke-linecap="round"/></g></svg>
