<?xml version="1.0" encoding="UTF-8"?>
<svg version="1.0" viewBox="0 0 48 48" xmlns="http://www.w3.org/2000/svg" xmlns:xlink="http://www.w3.org/1999/xlink"><defs><linearGradient id="d"><stop offset="0"/><stop stop-opacity=".1" offset="1"/></linearGradient><linearGradient id="a" x1="13.8" x2="13.391" y1="90" y2="4.2" gradientTransform="scale(.5)" gradientUnits="userSpaceOnUse" xlink:href="#d"/><linearGradient id="c" x1="14" x2="14" y1="89" y2="7" gradientTransform="scale(.5)" gradientUnits="userSpaceOnUse"><stop stop-color="#d1d1d1" offset="0"/><stop stop-color="#f5f5f5" offset="1"/></linearGradient><radialGradient id="b" cx="24.25" cy="43" r="20.5" gradientTransform="matrix(1.3428 -.0091972 .012195 1.7805 -8.837 -33.338)" gradientUnits="userSpaceOnUse"><stop stop-color="#fff" offset="0"/><stop stop-color="#fff" stop-opacity="0" offset="1"/></radialGradient></defs><path d="m6.15 3h35.7c2.5761 0 4.65 2.0739 4.65 4.65v35.3c0 2.5761-2.0739 4.65-4.65 4.65h-35.7c-2.5761 0-4.65-2.0739-4.65-4.65v-35.3c0-2.5761 2.0739-4.65 4.65-4.65z" fill="url(#a)" opacity=".05"/><path d="m6.4 3h35.2c2.4376 0 4.4 1.9624 4.4 4.4v35c0 2.4376-1.9624 4.4-4.4 4.4h-35.2c-2.4376 0-4.4-1.9624-4.4-4.4v-35c0-2.4376 1.9624-4.4 4.4-4.4z" fill="url(#a)" opacity=".1"/><path d="m6.75 3h34.5c2.2991 0 4.15 1.8509 4.15 4.15v34.7c0 2.2991-1.8509 4.15-4.15 4.15h-34.5c-2.2991 0-4.15-1.8509-4.15-4.15v-34.7c0-2.2991 1.8509-4.15 4.15-4.15z" fill="url(#a)" opacity=".15"/><path d="m6.9 3h34.2c2.1606 0 3.9 1.7394 3.9 3.9v34.6c0 2.1606-1.7394 3.9-3.9 3.9h-34.2c-2.1606 0-3.9-1.7394-3.9-3.9v-34.6c0-2.1606 1.7394-3.9 3.9-3.9z" fill="url(#a)" opacity=".3"/><g fill-rule="evenodd"><rect x="6.4579" y="5.6655" width="35.155" height="15.114" fill="#00d9ff"/><path d="m6.5 31.468v-10.633l35.211-1.9118-13.636 6.9154-21.575 5.6291z" fill="#68a5bb"/><path d="m6.5 31.468 17.328-6.1633c4.4724-1.8677-1.8567-1.5875-0.01513-3.5486 1.2027-1.4319 17.717-2.1478 17.792-2.6147l-2.4364 12.576-32.669 0.2827z" fill="#fbf7e5"/><path d="m22.778 18.301c0.22907-0.47729 0.89339-0.49804 1.4088-0.7782s1.2885-0.83008 1.6837-0.90271c0.39515-0.07263 0.42379 0.92346 1.0652 0.80932 0.6414-0.11414 2.1819-1.38 2.7833-1.4941 0.60132-0.11414 0.68722 0.67444 0.82467 0.80932 0.13744 0.13489 2.0914 0.2599 2.4396-0.5603 0.34361-0.80932 2.531 0.20168 3.2987-0.7782 0.75594-0.96496 1.3401 0.84045 1.3401 0.84045s3.8141 1.2762 1.5806 1.8365c-2.2335 0.5603-4.8048-0.27496-5.326-0.18677-0.52114 0.08819-2.6744 0.22308-3.1956 0.31128-0.52114 0.0882-2.1991 0.24902-2.8863-0.12451-0.67254-0.36555-5.2334 0.66915-5.0168 0.2179z" fill="#fff"/><path d="m6.5 31.468 24.216-5.8833c4.089-1.8677-5.5665-2.0856-3.8828-4.0466 1.0996-1.4319 15.634-2.677 14.741-2.3346l-0.0687 13.043-35.005-0.2465z" fill="#efe4a7"/><path d="m6.4579 21.538 0.0687-1.6128 35.15-1.0019-35.219 2.6148z" fill="#1a6e8e"/><path d="m38.825 19.142 0.4467-0.3424 0.2674-0.3522 2.1475-0.107-0.1127 1.3308-2.3366-0.0622-0.4123-0.4669z" fill="#503525"/><path d="m9.4771 18.955c0.51557 0.27909 2.2471-0.04235 3.2242 0.03113 1.9204 0.14442 5.7949 0.04221 5.8162-0.03113 0.02086-0.07193-3.8399-0.04032-5.6898-0.40466-1.8379-0.36198-3.5824-1.1829-5.3736-1.7743 0 0-0.91668 1.8365-0.79024 1.8365 0.12644 0 2.7134 0.28834 2.8133 0.34241z" fill="#fff"/><path d="m6.2526 32.303 22.289-3.2682c4.089-1.3304 2.9323-1.1355 5.9008-2.7824 1.7419-1.4701 3.6273-0.20628 7.1316-3.0634l-0.0687 9.0903s-36.286 0.04899-35.253 0.02371z" fill="#28b433"/></g><path d="m7 3.5c-1.939 0-3.5 1.561-3.5 3.5v34c0 1.939 1.561 3.5 3.5 3.5h34c1.939 0 3.5-1.561 3.5-3.5v-34c0-1.939-1.561-3.5-3.5-3.5zm-0.5 3h35v25.5h-35z" fill="url(#c)"/><rect x="7.5" y="35" width="5" height="5" rx=".75" opacity=".64"/><rect x="14.5" y="35" width="5" height="5" rx=".75" opacity=".64"/><rect x="21.5" y="35" width="5" height="5" rx=".75" opacity=".64"/><rect x="28.5" y="35" width="5" height="5" rx=".75" opacity=".64"/><rect x="35.5" y="35" width="5" height="5" rx=".75" opacity=".64"/><path d="m7 3.5c-1.939 0-3.5 1.561-3.5 3.5v34c0 1.939 1.561 3.5 3.5 3.5h34c1.939 0 3.5-1.561 3.5-3.5v-34c0-1.939-1.561-3.5-3.5-3.5h-0.33008c1.8444 0 3.3301 1.4857 3.3301 3.3301v33.34c0 1.8444-1.0303 3.3301-3.3301 3.3301h-32.84c-2.6253 0-3.8301-1.4857-3.8301-3.3301v-33.34c0-1.8444 1.4857-3.3301 3.3301-3.3301z" fill="url(#b)" opacity=".6"/><path d="m3.5 41v0.5c0 1.939 1.561 3.5 3.5 3.5h34c1.939 0 3.5-1.561 3.5-3.5v-0.5c0 1.939-1.561 3.5-3.5 3.5h-34c-1.939 0-3.5-1.561-3.5-3.5z" opacity=".3"/></svg>
