<?xml version="1.0" encoding="UTF-8"?>
<svg version="1.1" viewBox="0 0 48 48" xmlns="http://www.w3.org/2000/svg"><path id="a" d="m6 4.1217h36c1.662 0 3 1.338 3 3v34.878c0 1.662-1.338 3-3 3h-36c-1.662 0-3-1.338-3-3v-34.878c0-1.662 1.338-3 3-3z" fill="#c9a87b"/><path id="b" d="m42.736 9.961v9.0799h-36.956v-9.0799z" fill="#3c2510"/><g id="c" transform="matrix(1.0435 0 0 1 -1.0219 0)" fill="#c9a87b"><path id="d" d="m6.855 4.1614c-2.9932 0.058728-3.0007 0.0073-3.0007 2.9133v9.0529c0 2.9259 0.12213 2.8477 3 2.9133l18.005-1.5709v-14.28z"/><path id="e" d="m41.355 4.1614c2.6869 0.058728 2.7492 0.066026 2.7492 2.9133v9.0529c0 2.9915-0.2357 2.9789-2.7492 2.9133l-16.495-1.5709v-14.28z"/></g><g id="f" opacity=".13"><path id="g" d="m24.701 31.428c-0.45848-0.43214-0.78074-1.5064-0.9138-2.1216-0.1333-0.61671-0.07471-1.2715 0.16406-1.856 0.23876-0.58302 0.6577-1.0899 1.1836-1.4356 0.52733-0.34717 1.1601-0.52882 1.79-0.51563 0.59471 0.01172 1.185 0.19776 1.6801 0.52735 0.49364 0.3296 0.89206 0.80275 1.1323 1.3477l5.0624 1.625-6.0906-0.5-1.5659-1.0869-1.3242 0.1318c-2.0464 1.0023-1.7194 2.7593-1.1176 3.8838"/><path id="h" d="m17.925 26.625c-0.72068 0.74415-1.1338 1.7768-1.125 2.8125 0.0088 1.0503 1.326 3.1272 1.326 3.1272l-0.7635-0.3147c-0.19482 0.74415-0.26636 1.5613 0.03539 2.2688l3.3396 2.1042 1.6875 0.0645c-0.47313 0.04248-1.0987-0.21947-1.5547-0.52148-0.39682-0.26284-0.73647-0.64355-0.94725-1.0703-0.21362-0.43253-0.23486-0.87499-0.27734-1.4199l5.0292 1.3242-6.2027-2.4588 0.1285-3.0498 6.6367 3.8211z"/><path id="i" d="m27.608 33.048 0.939 2.5811c0.11279 0.44385 0.16406 0.91115 0.08789 1.3623-0.12744 0.75587-0.60936 1.4282-1.2378 1.8662-0.6284 0.438-1.3945 0.6548-2.1591 0.7046-0.9653 0.06299-1.9453-0.1333-2.8124-0.56251l0.022 4.5001 1.125-2.2383 6.1477-2.1871 0.6138-1.6656c0.11847-1.2577-0.6482-2.6659-1.1733-3.6592-0.35913-0.67938-1.0725-1.8925-1.0883-2.875z"/></g><g id="j" transform="translate(-9.2)" fill="#fcfaf8"><path id="k" d="m33.901 31.428c-0.45849-0.43214-0.78076-1.0064-0.91406-1.6216-0.1333-0.61671-0.07471-1.2715 0.16406-1.856 0.23877-0.58302 0.65771-1.0899 1.1836-1.4356 0.52734-0.34717 1.1602-0.52882 1.79-0.51563 0.59472 0.01172 1.185 0.19776 1.6802 0.52735 0.49365 0.3296 0.89208 0.80275 1.1323 1.3477l5.0625 1.125h-6.0908c-0.33984-0.55958-0.92284-0.96534-1.5659-1.0869-0.44238-0.08496-0.9082-0.03809-1.3242 0.13184-0.41601 0.16992-0.78222 0.4629-1.0386 0.83205-0.25635 0.37061-0.40429 0.81447-0.41748 1.2642-0.01465 0.44972 0.10547 0.90382 0.33838 1.2876"/><path id="l" d="m27.125 27.125c-0.7207 0.74415-1.1338 1.7769-1.125 2.8126 0.0088 1.0503 0.45263 2.0904 1.2041 2.8243 0.75146 0.7339 1.8017 1.1528 2.852 1.1382-0.57714-0.0791-1.125-0.36182-1.5249-0.78664-0.4-0.42335-0.64892-0.98732-0.69433-1.5674-0.04248-0.56251 0.10547-1.1367 0.41308-1.6084l6.1875 3.3751z"/><path id="m" d="m26.563 32.75c-0.19482 0.74415-0.13476 1.5513 0.16699 2.2588 0.30322 0.70607 0.84667 1.3067 1.5205 1.6787 0.51416 0.28418 1.1 0.43507 1.6875 0.43507 0.5874 0 1.1733-0.15088 1.6875-0.43507-0.47314 0.04248-0.95507-0.03516-1.3901-0.22559-0.43506-0.18897-0.82177-0.49073-1.1118-0.86574-0.33398-0.4336-0.54052-0.96535-0.583-1.5103l5.3349 0.9141z"/><path id="n" d="m37.272 30.875c-0.31348 0.37061-0.51855 0.83205-0.58447 1.3125-0.06152 0.45411 0 0.91847 0.12012 1.3609 0.12012 0.44093 0.29883 0.86574 0.47461 1.2891 0.17578 0.42335 0.35009 0.84816 0.46435 1.292 0.11279 0.44386 0.16406 0.91115 0.08789 1.3623-0.12744 0.75587-0.60937 1.4282-1.2378 1.8662-0.62841 0.438-1.3945 0.6548-2.1592 0.7046-0.96532 0.06299-1.9453-0.1333-2.8125-0.56251l0.022 4.5001 1.125-2.2383c1.4868 0.43507 3.1494 0.2212 4.478-0.57423 0.67089-0.40137 1.2598-0.94777 1.6699-1.6128 0.41162-0.66505 0.63867-1.4488 0.60205-2.2281-0.05273-1.1118-0.61962-2.1255-1.1616-3.0967-0.54345-0.97121-1.0898-2.001-1.0972-3.1143 0-0.08643 0.0029-0.17432 0.0088-0.26075"/></g><path id="o" d="m27.278 3.2781h-6.4978l0.0948 21.322 6.3082-0.522z" fill="#3a240f" opacity=".5"/><path id="p" d="m27.249 3.216-3.2494-0.216-3.2494 0.216 0.0948 20.898 6.3092-0.4985z" fill="#dbcdb5"/><g id="q"><path id="r" d="m23.513 3.04 0.4866-0.03v14.979h-0.48665z" fill="#8d6137" opacity=".19"/><path id="s" d="m24 3.01 0.48665 0.03v14.949h-0.48665z" fill="#fff" opacity=".21"/></g></svg>
