<?xml version="1.0" encoding="UTF-8"?>
<svg version="1.1" viewBox="0 0 48 48" xmlns="http://www.w3.org/2000/svg"><path d="m47 23.6a23 23 0 0 1-23 23 23 23 0 0 1-23-23 23 23 0 0 1 23-23 23 23 0 0 1 23 23z" fill="#197fb5"/><g transform="translate(0 -.4)" fill="#fff"><path d="m22.303 18.858c-0.917-0.86426-1.5615-2.0127-1.8281-3.2432-0.2666-1.2334-0.14941-2.543 0.32812-3.7119 0.47754-1.166 1.3154-2.1797 2.3672-2.8711 1.0547-0.69434 2.3203-1.0576 3.5801-1.0312 1.1894 0.023437 2.3701 0.39551 3.3604 1.0547 0.98731 0.65918 1.7842 1.6055 2.2646 2.6953l10.125 2.25h-12.182c-0.67969-1.1191-1.8457-1.9307-3.1318-2.1738-0.88477-0.16992-1.8164-0.07617-2.6484 0.26367-0.83204 0.33984-1.5644 0.92578-2.0772 1.6641-0.5127 0.74121-0.80859 1.6289-0.83496 2.5283-0.02929 0.89942 0.21094 1.8076 0.67676 2.5752"/><path d="m23.375 22.625-14.625-12.375c-1.4414 1.4883-2.2676 3.5537-2.25 5.625 0.017578 2.1006 0.90527 4.1807 2.4082 5.6484 1.5029 1.4678 3.6035 2.3057 5.7041 2.2764-1.1543-0.1582-2.25-0.72363-3.0498-1.5732-0.79981-0.84668-1.2978-1.9746-1.3887-3.1348-0.08496-1.125 0.21094-2.2734 0.82617-3.2168l12.375 6.75"/><path d="m22.25 26-14.625-4.5c-0.38965 1.4883-0.26953 3.1025 0.33398 4.5176 0.60645 1.4121 1.6934 2.6133 3.041 3.3574 1.0283 0.56836 2.2002 0.87012 3.375 0.87012s2.3467-0.30176 3.375-0.87012c-0.94629 0.08496-1.9102-0.07031-2.7803-0.45117-0.87012-0.37793-1.6436-0.98144-2.2236-1.7314-0.66797-0.86719-1.0811-1.9307-1.166-3.0205l10.67 1.8281"/><path d="m29.044 17.75c-0.62695 0.74121-1.0371 1.6641-1.1689 2.625-0.12305 0.9082 0 1.8369 0.24023 2.7217 0.24024 0.88184 0.59766 1.7314 0.94922 2.5781 0.35156 0.84668 0.7002 1.6963 0.92871 2.584 0.22559 0.88769 0.32812 1.8223 0.17578 2.7246-0.25488 1.5117-1.2188 2.8564-2.4756 3.7324-1.2568 0.87598-2.7891 1.3096-4.3184 1.4092-1.9307 0.12598-3.8906-0.2666-5.625-1.125l0.0439 9 2.25-4.4766c2.9736 0.87012 6.2988 0.44238 8.956-1.1484 1.3418-0.80273 2.5195-1.8955 3.3398-3.2256 0.82324-1.3301 1.2773-2.8975 1.2041-4.4561-0.10547-2.2236-1.2392-4.251-2.3232-6.1934-1.0869-1.9424-2.1797-4.002-2.1943-6.2285 0-0.17285 0.0058-0.34863 0.01758-0.52148"/></g></svg>
