<?xml version="1.0" encoding="UTF-8"?>
<svg version="1.1" viewBox="0 0 24 24" xmlns="http://www.w3.org/2000/svg"><title>map-globe</title><desc>Created with Sketch.</desc><g id="a" fill="none" fill-rule="evenodd" stroke-width="1"><path id="b" d="m12.109 4c-2.1621-0.031125-4.2448 0.81434-5.7734 2.3438-3.1234 3.1241-3.1234 8.1884 0 11.312 3.1241 3.1234 8.1884 3.1234 11.313 0 3.1234-3.1241 3.1234-8.1884 0-11.312-1.4712-1.472-3.4581-2.3127-5.5391-2.3438zm-0.21875 1c1.7175-0.021872 3.383 0.58846 4.6797 1.7148l-1.4043 1.4043c-1.6681-1.5398-3.6402-2.5369-5.4238-2.7422 0.69205-0.23714 1.417-0.36434 2.1484-0.37695zm-3.0273 1.3066c1.671-0.094824 3.7932 0.86178 5.5937 2.5215l-2.4648 2.4648-4.5508-4.5508c0.39302-0.25397 0.87405-0.40133 1.4219-0.43555zm8.4199 1.1094c1.6186 1.8741 2.1266 4.4639 1.3359 6.8105-0.21645-1.7786-1.2155-3.7391-2.75-5.3965l1.4141-1.4141zm-10.551 0.03125 4.5527 4.5527-2.4668 2.4668c-2.2547-2.4497-3.1276-5.3871-2.0859-7.0195zm8.4336 2.0859c2.2547 2.4497 3.1276 5.3871 2.0859 7.0195l-4.5527-4.5527 2.4668-2.4668zm-9.8008 0.24023c0.21645 1.7786 1.2155 3.7391 2.75 5.3965l-1.4141 1.4141c-1.6186-1.8741-2.1266-4.4639-1.3359-6.8105zm6.627 2.9336 4.5508 4.5508c-1.6326 1.0392-4.5675 0.16657-7.0156-2.0859l2.4648-2.4648zm-3.1738 3.1738c1.6681 1.5398 3.6402 2.5369 5.4238 2.7422-2.3522 0.79689-4.9506 0.28778-6.8281-1.3379l1.4043-1.4043z" fill="#303030" fill-rule="nonzero"/></g></svg>
