<?xml version="1.0" encoding="UTF-8"?>
<svg id="an" version="1.0" viewBox="0 0 128 128" xmlns="http://www.w3.org/2000/svg" xmlns:xlink="http://www.w3.org/1999/xlink"><defs id="ao"><linearGradient id="b"><stop id="ap" stop-color="#fff" offset="0"/><stop id="aq" stop-color="#fff" stop-opacity="0" offset="1"/></linearGradient><filter id="ad"><feGaussianBlur id="ar" stdDeviation="0.14984534"/></filter><filter id="al" x="-.014574" y="-.10655" width="1.0291" height="1.2131"><feGaussianBlur id="as" stdDeviation="1.3147742"/></filter><filter id="ah" x="-.052953" y="-.1015" width="1.1059" height="1.203"><feGaussianBlur id="at" stdDeviation="3.7348598"/></filter><clipPath id="am"><path id="au" d="m1207.7 729.61 4.7339 79.65 1.5626 0.625c-0.0757 1.8339-0.1516 3.5309-0.1876 4.1562 1e-4 3.5923 6.0894 6.5312 13.625 6.5312 3.4791-1e-5 6.6506-0.63347 9.0626-1.6562l108.73-15.712 2.2812-0.71875 0.125-0.03125 1.125-0.34375-63.937-45.75-77.125-26.75zm16.375 7.1562z" fill="#282828" fill-rule="evenodd"/></clipPath><filter id="ac"><feGaussianBlur id="av" stdDeviation="2.075401"/></filter><linearGradient id="a"><stop id="aw" stop-color="#545760" offset="0"/><stop id="ax" stop-color="#c9c9d1" offset=".20383"/><stop id="ay" stop-color="#8c8e97" offset=".40766"/><stop id="az" stop-color="#d9d9e1" offset=".81532"/><stop id="ba" stop-color="#9698a0" offset=".93594"/><stop id="bb" stop-color="#545760" offset="1"/></linearGradient><filter id="aj" x="-.085509" y="-.10746" width="1.171" height="1.2149"><feGaussianBlur id="bc" stdDeviation="2.0447936"/></filter><filter id="ai"><feGaussianBlur id="bd" stdDeviation="0.51855689"/></filter><filter id="af"><feGaussianBlur id="be" stdDeviation="0.73201376"/></filter><filter id="ae"><feGaussianBlur id="bf" stdDeviation="0.78421576"/></filter><linearGradient id="z" x1="-149.34" x2="-108.56" y1="12.673" y2="57" gradientTransform="translate(181.73 14.142)" gradientUnits="userSpaceOnUse" xlink:href="#b"/><filter id="e"><feGaussianBlur id="bg" stdDeviation="0.1925"/></filter><linearGradient id="y" x1="-99.844" x2="-116.35" y1="159.75" y2="42.548" gradientTransform="translate(36.062 19.092)" gradientUnits="userSpaceOnUse" xlink:href="#b"/><filter id="ak"><feGaussianBlur id="bh" stdDeviation="0.87760089"/></filter><linearGradient id="x" x1="520.97" x2="520.97" y1="619.84" y2="515.29" gradientTransform="matrix(.48846 0 0 -1.0019 -189.1 654.18)" gradientUnits="userSpaceOnUse" spreadMethod="reflect"><stop id="bi" stop-color="#818797" offset="0"/><stop id="bj" stop-color="#d9dde2" offset="1"/></linearGradient><radialGradient id="p" cx="64.545" cy="11.232" r="54.5" gradientTransform="matrix(1.2738 0 0 .56297 -16.445 43.712)" gradientUnits="userSpaceOnUse"><stop id="bk" offset="0"/><stop id="bl" stop-opacity="0" offset="1"/></radialGradient><linearGradient id="w" x1="768.58" x2="1023.6" y1="651.62" y2="651.62" gradientTransform="matrix(.46372 0 0 -.66221 -350.15 346.17)" gradientUnits="userSpaceOnUse" xlink:href="#a"/><linearGradient id="v" x1="1330.2" x2="1585.3" y1="461.97" y2="461.97" gradientTransform="matrix(.049838 0 0 .07117 -8.2538 40.692)" gradientUnits="userSpaceOnUse" xlink:href="#a"/><linearGradient id="u" x1="776.93" x2="1015.3" y1="610.28" y2="610.28" gradientTransform="matrix(.46372 0 0 .66221 -350.15 -350.72)" gradientUnits="userSpaceOnUse" xlink:href="#a"/><linearGradient id="t" x1="768.58" x2="1023.6" y1="651.62" y2="651.62" gradientTransform="matrix(.46372 0 0 .66221 -350.15 -350.72)" gradientUnits="userSpaceOnUse" xlink:href="#a"/><radialGradient id="o" cx="-106.05" cy="-24.688" r="53.953" gradientTransform="matrix(.81465 .27522 -.071674 .21215 160.3 63.629)" gradientUnits="userSpaceOnUse" xlink:href="#b"/><filter id="c"><feGaussianBlur id="bm" stdDeviation="0.48377238"/></filter><radialGradient id="d" cx="-46.103" cy="-23.954" r="53.953" gradientTransform="matrix(.29652 .091742 -.06361 .21485 -76.173 30.095)" gradientUnits="userSpaceOnUse" xlink:href="#b"/><radialGradient id="n" cx="1212.3" cy="615.1" r="87.697" fx="1240.7" fy="573.56" gradientTransform="matrix(1 2.0745e-7 -2.8747e-7 .3373 1.5521 406.06)" gradientUnits="userSpaceOnUse"><stop id="bn" stop-color="#686868" stop-opacity="0" offset="0"/><stop id="bo" stop-opacity="0" offset=".91892"/><stop id="bp" offset="1"/></radialGradient><radialGradient id="m" cx="-42.298" cy="56.53" r="30.819" fx="-37.67" fy="51.759" gradientTransform="matrix(1.8891 0 0 -1.2936 174.66 112.95)" gradientUnits="userSpaceOnUse"><stop id="bq" stop-color="#fff" offset="0"/><stop id="br" stop-color="#fff" stop-opacity="0" offset="1"/></radialGradient><radialGradient id="l" cx="-84.596" cy="94.059" r="8.9995" fx="-83.859" fy="99.397" gradientTransform="matrix(1 0 0 1.8286 0 -77.935)" gradientUnits="userSpaceOnUse"><stop id="bs" stop-color="#009aee" offset="0"/><stop id="bt" stop-color="#fff" stop-opacity="0" offset="1"/></radialGradient><radialGradient id="k" cx="565.11" cy="694.36" r="120.46" gradientTransform="matrix(1 0 0 .33555 0 391.48)" gradientUnits="userSpaceOnUse"><stop id="bu" offset="0"/><stop id="bv" stop-opacity="0" offset="1"/></radialGradient><radialGradient id="j" cx="899.07" cy="502.29" r="89.763" fx="917.16" fy="507.54" gradientTransform="matrix(1 0 0 .13245 0 512.73)" gradientUnits="userSpaceOnUse"><stop id="bw" stop-color="#fff" offset="0"/><stop id="bx" stop-color="#fff" stop-opacity=".49804" offset=".5"/><stop id="by" stop-color="#fff" stop-opacity="0" offset="1"/></radialGradient><radialGradient id="i" cx="71.18" cy="59.006" r="55.258" fx="37.878" fy="91.951" gradientTransform="matrix(.99999 -.0053763 .0053763 1 -.31621 .38268)" gradientUnits="userSpaceOnUse"><stop id="bz" stop-color="#68d7ff" offset="0"/><stop id="ca" stop-color="#4fcfff" offset="1"/></radialGradient><radialGradient id="h" cx="-384.55" cy="106.34" r="97.125" fx="-360.46" fy="83.611" gradientTransform="matrix(.60705 7.403e-5 -7.2241e-5 .59247 292.6 2.7706)" gradientUnits="userSpaceOnUse"><stop id="cb" stop-color="#c6c6c6" offset="0"/><stop id="cc" stop-color="#767676" offset="1"/></radialGradient><linearGradient id="s" x1="896.11" x2="896.11" y1="751.03" y2="590.59" gradientTransform="translate(979.68 370.1)" gradientUnits="userSpaceOnUse"><stop id="cd" stop-color="#333" offset="0"/><stop id="ce" stop-color="#333" stop-opacity="0" offset="1"/></linearGradient><linearGradient id="r" x1="760.42" x2="1020" y1="690.44" y2="690.44" gradientUnits="userSpaceOnUse"><stop id="cf" offset="0"/><stop id="cg" stop-color="#5c5c5c" offset=".5"/><stop id="ch" offset="1"/></linearGradient><radialGradient id="g" cx="-251.73" cy="363.47" r="48.083" gradientTransform="matrix(1 0 0 .25 0 272.6)" gradientUnits="userSpaceOnUse"><stop id="ci" stop-color="#8b826e" offset="0"/><stop id="cj" stop-color="#8b826e" stop-opacity="0" offset="1"/></radialGradient><radialGradient id="f" cx="-386.08" cy="-2.8148" r="79.196" fx="-390.32" fy="34.662" gradientUnits="userSpaceOnUse"><stop id="ck" stop-color="#fff" offset="0"/><stop id="cl" stop-color="#e8e6e3" offset=".7027"/><stop id="cm" stop-color="#dcd9d4" offset=".85135"/><stop id="cn" stop-color="#d3cfc8" offset=".92568"/><stop id="co" stop-color="#afa99b" offset="1"/></radialGradient><linearGradient id="q" x1="-161.19" x2="-508.35" y1="255.35" y2="370.56" gradientUnits="userSpaceOnUse" spreadMethod="reflect"><stop id="cp" stop-color="#c8c3ba" offset="0"/><stop id="cq" stop-color="#c8c3ba" stop-opacity="0" offset="1"/></linearGradient><filter id="ag" x="-.15595" y="-.13816" width="1.3119" height="1.2763"><feGaussianBlur id="cr" stdDeviation="5.9912527"/></filter><linearGradient id="ab" x1="-274.45" x2="-303.58" y1="187.28" y2="318.54" gradientTransform="matrix(.20725 0 0 .15838 117.11 -16.155)" gradientUnits="userSpaceOnUse"><stop id="cs" stop-color="#fff" offset="0"/><stop id="ct" stop-color="#fff" stop-opacity="0" offset="1"/></linearGradient><linearGradient id="aa" x1="-233.67" x2="-461.82" y1="293.67" y2="242.93" gradientTransform="matrix(.20479 0 0 .1565 116.49 -15.322)" gradientUnits="userSpaceOnUse"><stop id="cu" stop-color="#1e1d19" offset="0"/><stop id="cv" stop-color="#1e1d19" stop-opacity="0" offset="1"/></linearGradient></defs><g id="cw"><path id="cx" transform="matrix(.20479 0 0 .22094 117.07 -39.961)" d="m-203.65 363.47a48.083 12.021 0 1 1-96.167 0 48.083 12.021 0 1 1 96.167 0z" fill="url(#g)"/><path id="cy" transform="matrix(.20479 0 0 .1565 144 29.829)" d="m-306.88-2.8148a79.196 79.196 0 1 1-158.39 0 79.196 79.196 0 1 1 158.39 0z" fill="url(#f)"/><path id="cz" transform="matrix(.20479 0 0 .1565 116.49 -15.322)" d="m-197.11 332.16c18.792-17.423 26.459-92.374-1.8861-67.16-15.804 14.058 1.0238 39.278-17.851 55.1-30.917 25.917-13.863 43.214 19.737 12.06z" fill="url(#q)" fill-rule="evenodd" filter="url(#ag)" opacity=".36996"/><path id="da" d="m52.358 22.697c-1.368 2.0951-0.57577 3.8499 1.3421 5.1112 3.7201 2.4465 9.4309 2.5934 14.939 1.6729-5.508 1.5291-11.381 1.6811-15.457-0.3927-2.5598-1.3025-3.4826-3.4611-0.825-6.3914z" fill="url(#aa)" fill-rule="evenodd" opacity=".080586"/><path id="db" d="m75.685 22.828c0 2.9302-4.8137 4.1012-10.745 4.1012-5.9312 0-10.745-1.171-10.745-4.1012 0-2.9302 4.8137-5.3083 10.745-5.3083 5.9312 0 10.745 2.3781 10.745 5.3083z" fill="url(#ab)"/><text id="dc" x="57" y="19.5" fill="#000000" font-family="Tahoma" font-size="28px" stroke-linejoin="miter" stroke-width="1px" xml:space="preserve"><tspan id="dd" x="57" y="19.5"/></text><g id="de" transform="translate(-1.3478 -4.7189)"><path id="df" transform="matrix(.45176 0 0 .69066 -336.81 -392.56)" d="m1020 690.44a129.77 57.073 0 1 1-259.54 0 129.77 57.073 0 1 1 259.54 0z" fill="url(#r)" filter="url(#ak)" opacity=".41758"/><path id="dg" d="m65.394 29.064c-32.514 0-58.907 17.971-58.907 40.105v13.123c0 22.134 26.393 40.105 58.907 40.105 32.514 0 58.892-17.971 58.892-40.105v-13.123c0-22.134-26.378-40.105-58.892-40.105z" fill="url(#t)"/><path id="dh" transform="matrix(.46372 0 0 .66221 -804.45 -595.8)" d="m1875.8 943.6c-70.116 0-127.03 27.137-127.03 60.562v19.817c0 33.425 56.916 60.562 127.03 60.562 70.116 0 127-27.137 127-60.562v-19.817c0-33.425-56.884-60.562-127-60.562z" fill="none" filter="url(#ac)" stroke="url(#s)" stroke-dashoffset="1.0878" stroke-linecap="round" stroke-linejoin="round" stroke-miterlimit="4" stroke-width="2.3928"/><path id="di" transform="matrix(.45847 0 0 .93341 -173.46 -481.69)" d="m641.02 589.17a120.06 40.02 0 1 1-240.12 0 120.06 40.02 0 1 1 240.12 0z" fill="#fff" stroke="#686868" stroke-dashoffset="1.0878" stroke-linecap="round" stroke-linejoin="round" stroke-miterlimit="4" stroke-width=".79364"/><path id="dj" d="m65.381 30.882c-30.385 0-55.038 16.732-55.038 37.353 0 2.6431 0.40325 5.2304 1.1738 7.7188 5.25-16.916 27.383-29.634 53.864-29.634 26.481 0 48.628 12.718 53.878 29.634 0.77051-2.4884 1.1738-5.0757 1.1738-7.7188 0-20.62-24.667-37.353-55.052-37.353z" fill="url(#u)"/><g id="dk" transform="matrix(.93554 0 0 .58487 6.0647 43.204)"><path id="dl" transform="matrix(1.0429 0 0 1.0429 -11.168 .77595)" d="m126.44 59.006a55.258 55.258 0 1 1-110.52 0 55.258 55.258 0 1 1 110.52 0z" fill="url(#i)" opacity=".59707"/><path id="dm" d="m46.41 7.2359c-19.906 6.0607-35.231 22.674-39.442 43.316l1.6464 5.1662 0.72383-2.5973 1.3483-2.4979h1.1496l0.31224-0.83737 0.31224-1.1496 0.11355-3.7469s0.61937-1.4567 1.0361-1.8734c0.00325-0.003256 0.01097-0.01085 0.01419-0.014192 0.00313-0.003375 0.0111-0.010732 0.0142-0.014193 0.38559-0.44595 0.49674-1.5328 0.49674-1.5328l0.62448-2.1857 1.7599-1.6747 1.0503 0.21289 1.4618-0.52513 2.0721-0.72383 1.2632 1.4619 0.62448 0.099349 0.62448-0.93672 1.3483 0.93672 0.93672 1.0361 0.31224-1.0361 0.83737-0.93672 0.4116-1.3625 0.31224-0.93672 1.1496 0.21289 0.72383 2.285-0.93673 2.2992-0.72382 1.9728 1.7741 2.7108 0.93673-3.2218-0.42579-1.987 3.3353-2.1857-0.51094-1.3483s1.5513-0.32161 2.0721-0.42578c0.01526-0.003052 0.03876-0.010187 0.05677-0.014192 0.00127 3.1e-5 0.01275-1e-4 0.0142 0 0.01995-0.007412 0.05134-0.018321 0.07096-0.028386 0.01955-0.010578 0.05177-0.029498 0.07096-0.042578 0.42068-0.29843 0.75767-1.1812 0.93672-1.987 0.20835-0.93758-0.62447-2.0863-0.62448-2.0863 0 0 1.6563-3.2371 1.476-4.1017 1.4e-4 -0.004945-8e-5 -0.023519 0-0.028386-0.00251-0.004975-0.01163-0.02349-0.0142-0.028385 5e-5 -0.001246-1.5e-4 -0.01278 0-0.014193-0.02929-0.068365-0.06638-0.12761-0.09934-0.17031-0.00496-0.004999-0.0234-0.023548-0.02839-0.028386-0.00285-0.002912-0.01132-0.011437-0.01419-0.014192-0.01903-0.017073-0.04994-0.044569-0.07097-0.056771-0.00148 9.1e-5 -0.01291-2.9e-5 -0.01419 0-0.0049-0.002475-0.02335-0.011579-0.02838-0.014193-0.0013 9e-6 -0.01262-6.8e-5 -0.01419 0-0.00145 7.3e-5 -0.01293-8e-6 -0.0142 0-0.01003-0.003283-0.03242-0.011506-0.04258-0.014193-0.00142-1.35e-4 -0.01132-2.9e-5 -0.01419 0-0.00156-6.2e-5 -0.0129 1e-6 -0.0142 0-0.00512 0.002672-0.02354 0.011787-0.02838 0.014193-0.00161 5.2e-5 -0.01237 6.1e-5 -0.01419 0-0.00199-1.36e-4 -0.01224 9.6e-5 -0.01419 0-0.00184-7e-6 -0.01256-1.35e-4 -0.0142 0-0.29459 0.078071-0.67395 0.46425-1.1354 0.5961-0.72923 0.20835-2.6064 1.1448-3.023 1.249-0.41671 0.10418-2.7108 0.42578-2.7108 0.42578 0 0 0.4113-0.9458 0.72383-1.3625 0.31253-0.4167 1.0452-0.6242 1.4618-0.93672 0.4167-0.31253 1.1496-1.249 1.1496-1.249l1.3483-2.7108s1.8822-1.4613 2.6115-2.0863c0.72923-0.62505 2.1857 0.42578 2.1857 0.42578l1.3483 0.93672s-0.09206 1.9257-0.42578 2.4128c-0.01699 0.023254-0.04864 0.051692-0.07096 0.070963-0.00355 0.002801-0.01093 0.011892-0.0142 0.014193-0.00488 0.002442-0.02097 0.010351-0.02838 0.014193-0.00135 0.00146-0.01297 0.012925-0.0142 0.014193-0.00268 0.002807-0.01246 0.012652-0.01419 0.014193-0.00347 0.003261-0.01067 0.010709-0.01419 0.014192-0.44966 0.46638-1.2915 2.654-1.2915 2.654s2.3983-1.149 2.7108-1.7741c0.31252-0.62505 2.3986-1.7741 2.3986-1.7741l1.8734-0.31224 1.0361 0.73802s0.94581 0.094811 1.3625-0.11354c0.41669-0.20835 2.7102-0.93672 3.3353-0.93672 0.12014 0 0.2769 0.033204 0.46837 0.085156l2.6398-0.62448-0.08516-1.7457-2.0863 0.31224-1.0503 0.099349s-2.1851 0.21318-2.8102-0.099349c-0.62506-0.31253-0.93104-0.42578-1.9728-0.42578-0.78133 0-1.0431 0.12591-1.1212 0.18451-0.00301 0.003032-0.01272 0.012682-0.01419 0.014193-0.00166 0.001716-0.01128 0.01135-0.0142 0.014192l-2.4979-0.31224 0.72383-1.1496s2.2941-0.094525 2.7108-0.1987c0.4167-0.10418 2.9186-0.20806 3.3353-0.31224 0.39066-0.097665 0.96588-0.75688 1.0361-0.83737l-1.8734-0.21289-1.1496-0.51094 0.73803-1.5754 2.9095-1.5612 1.7741-0.93672s2.4974-0.72837 3.1224-0.93672c0.62506-0.20835 2.3986 0.11354 2.3986 0.11354 0 0 4.2805 0.51576 5.3223 0.41159 1.0418-0.10418 1.5612-2.0863 1.5612-2.0863l-0.83737-1.7741-2.1857-1.249s-2.0903-0.40705-2.9237-0.1987c-0.8334 0.20835-4.0591 0.82318-4.0591 0.82318l-3.7469 0.83737-3.1224-0.099349-1.5754 0.099349-0.72382-1.8167c-0.00126-1.603e-4 -0.013 4e-5 -0.0142 0zm27.832 2.1289-2.6115 0.099349-0.82318 0.73802-0.52513 0.1987 1.1496 1.7741 1.7599-0.09935 1.7741 0.62448 1.1496 1.249 0.93672 0.93672 0.62448 1.0361 0.41159 1.4619 0.95091 0.11354 1.1354 0.09935 0.73802 1.1496c-0.00928 0.006142-0.03139 0.02101-0.04257 0.028385-0.03774 0.02577-0.0987 0.069708-0.15612 0.12774-0.14689 0.15245-0.32644 0.41924-0.32644 0.7806 0 0.62505 0.41159 1.5612 0.41159 1.5612l-0.93672 1.0361 0.42579 1.249 0.41158 0.52513-0.93672 0.21289c-0.06845 0.059622-0.62616 0.56699-0.72383 1.3483-0.09115 0.72923-0.11032 0.82522-0.11354 0.83737l0.52513 1.0361 0.83738 0.62448 0.31223 0.31224 0.93673 0.31224 0.82318 0.52513c0-1e-6 -1.1445 0.61966-1.5612 0.72383-0.4167 0.10418-1.8734 0.11354-1.8734 0.11354l1.5612 1.9728 1.8734 0.93672v1.0503l-1.9728-0.62448-1.3483 0.72383-0.32643 0.62448s-0.00248 1.3554-0.25547 1.8309c-0.00238 0.004932-0.01177 0.023567-0.01419 0.028385-0.00748 0.011482-0.02051 0.032587-0.02839 0.042579-0.00744 0.007557-0.02423 0.024179-0.02838 0.028385-0.00282 0.00262-0.01133 0.011763-0.0142 0.014193-0.00492 0.002502-0.02341 0.011886-0.02839 0.014193-0.00458 0.002475-0.02094 0.010627-0.02838 0.014192-0.00136-1.13e-4 -0.01296 4.1e-5 -0.01419 0-6.8e-4 8.31e-4 -0.01097 0.011018-0.01419 0.014193-0.43218 0.13091-1.547 1.1354-1.547 1.1354l-0.83738 2.1857-0.51094 0.31224-0.31224 1.1496-0.42578 0.72383-0.72383 0.31224-0.62448-1.1354-0.62448-0.62448s-0.00831-0.01551-0.01419-0.028386c-0.01958-0.040171-0.06992-0.12174-0.15613-0.18451-0.00992-0.006867-0.0316-0.021927-0.04258-0.028385-0.07553-0.041966-0.18201-0.070964-0.31224-0.070964-0.41669 0-1.4618-0.21289-1.4618-0.21289l-0.51094-0.62448 0.31224-2.0863s-0.60825-0.67978-1.107-0.73802c-0.00506-2.09e-4 -0.02264-1.49e-4 -0.02838 0-0.00362 7.3e-5 -0.01123 1.05e-4 -0.0142 0-0.02971-3.31e-4 -0.07068 0.009293-0.09935 0.014193-0.52088 0.10418-2.6115 1.0361-2.6115 1.0361l-2.285 2.1857c-0.03556 0.050118-0.3298 0.48352-0.52513 1.3625-0.20835 0.93758-1.4618 2.1857-1.4618 2.1857l-1.7741 1.0361-0.62448 1.4619v2.1857l0.21289 0.83737 1.249 0.52513 1.0361-1.4619 0.52513 0.31224v1.3483l0.62448 1.0503 0.52513 0.82318 1.3483-0.31224 1.0503-0.62448-0.83737-1.3483 0.21289-2.3986 0.09935-1.6606 1.249-1.3625 0.4116-1.5612 0.73802-0.62448 0.52513 0.83737-0.52513 0.72383-0.83737 1.5612-0.21289 0.83737 0.21289 0.41159 0.52513 0.93672 1.1496 0.31224v0.52513l0.82318 0.21289-0.31224 0.93672-0.31224 0.72383-1.0361-0.1987-0.73802 1.0361 0.11354 1.3483 0.09935 0.83737-1.0361 0.099349-1.5612-0.099349-1.4618 0.099349-1.1496-1.0361-0.62448-1.0361-0.52514-0.83737-0.41159 1.1496 0.2129 1.1354v0.83737l-1.3625 0.42578h-0.82318l-0.83737 1.6606-0.93672 0.31224-1.249 1.5612-1.1496 0.52513-1.1496 0.099349-1.7741-0.52513-0.41159 0.83737 2.0863 0.73802-0.31224 1.3483v1.3483l-0.09935 1.249-0.21289 0.83738-1.4618-1.249-1.6606-0.62448-1.5612-0.31224-0.21289 0.41159-0.42579 1.8876-0.19869 0.72383-0.83737 0.72383v0.62448l0.52513 0.73802-0.31224 0.62448v0.41159l1.3483 0.31224 0.52513 0.72383 1.9728 0.52513h0.62448l0.93673-0.72383 0.73802-0.52513 0.52513-0.72383v-0.73803l0.62448-0.93672 1.0361-0.41159 1.0361-0.2129 0.11354-1.5612 0.82319-0.2129 1.0503 0.63868 1.249-0.42578 1.249-0.31224 0.62448 1.0503 1.0361 1.1354 1.4618 0.93672c0.06668 0.002492 0.61866 0.033143 0.99349 0.36901 0.01569 0.014467 0.04173 0.041143 0.05677 0.056769 0.07803 0.083606 0.14743 0.1926 0.1987 0.31224 0.29299 0.68365 0.31113 1.1892 0.31225 1.249l-0.19871 1.1496h-1.1496-1.3625l1.1496 0.93672 0.42578 0.62448 0.09935 0.93672 0.52513-1.1496 0.1987-0.93672 0.93672-0.41159 0.31224-0.95092 0.11355-0.82318 0.82318 0.099349-0.31225-0.93672-1.5612-1.0361-1.3483-1.5612-1.4618-1.5754 0.83737-0.62448 0.93672 0.31224c0 5e-6 0.42067 0.84163 0.83737 1.3625 0.4167 0.52088 1.6606 1.3483 1.6606 1.3483l0.93673 0.42579 0.09935 1.1354 0.63867 0.62448 0.93672 0.73802v1.249c0 0.41671 0.10389 0.73291 0.31224 1.1496 0.19533 0.39065 0.75487 0.60013 0.82318 0.62448 0 0 0.57992 0.18621 0.87996 0.070961 0.00748-0.003702 0.02413-0.012185 0.02838-0.014193 0.00623-0.003161 0.02126-0.010514 0.02838-0.014194 0.00252-0.002544 0.0117-0.011626 0.0142-0.014187 0.00252-0.002539 0.01168-0.011638 0.01419-0.014194 0.00699-0.006823 0.02147-0.021372 0.02839-0.028387 8.5e-4 -9.43e-4 0.01105-0.011108 0.01419-0.014193 0.00257-0.002492 0.01165-0.011679 0.01419-0.014194 0.0025-0.004599 0.01167-0.023182 0.01419-0.028387-2e-5 -0.001292 1.4e-4 -0.012808 0-0.014188 0.0026-0.004884 0.0117-0.023421 0.0142-0.028387 0.10417-0.41671 0.3077-0.83197 0.09935-1.5612s-0.2129-2.3986-0.2129-2.3986l0.93673-0.62448 1.3625 0.11354 0.83737-1.6747-0.42578-1.0361 0.31224-1.987 0.42578-1.0361 1.3483-1.249 1.6606 0.31224 1.3625-0.62448s0.92804-0.072516 1.3199 0.17031c0.01737 0.011304 0.04178 0.029902 0.05677 0.042578 0.0133 0.011904 0.04181 0.040398 0.05677 0.056771 0.00247 0.004909 0.01184 0.023417 0.01419 0.028385 0.00257 0.002453 0.01166 0.011727 0.01419 0.014193 0.20836 0.4167 0.51095 1.0361 0.51095 1.0361s0.63355 0.21743 1.0503 0.42578c0.4167 0.20835 1.1354 0.72383 1.1354 0.72383l0.21289 1.5612-1.3483 0.52514-2.1857 0.31224c0-6e-6 -0.94098-0.099349-1.4619-0.099349-0.52087 0-1.6748 0.51094-1.6748 0.51094l-0.41158 0.73802-0.83738 0.72383-1.0361 0.31224-0.83737 0.31224-0.31224 1.0361 0.83737 1.5754 0.62448 0.93672 1.1496 0.51094 2.1857-0.1987 0.72383-0.42578 1.0503-0.1987 0.31223-0.11354 0.62448 0.73802v1.5612l-0.62448 0.93672-0.31223 1.249-1.5754 0.31224h-1.249l-1.8734 0.41159-2.1857-0.099348-2.3986-0.31224s-0.91404-0.2548-1.3483-0.056774c-0.01529 0.00737-0.04148 0.019654-0.05677 0.028387-0.00246 0.002474-0.01174 0.011638-0.01419 0.014194-0.01873 0.016586-0.04118 0.038033-0.05677 0.056768-0.00254 0.002474-0.01168 0.011707-0.0142 0.014193-0.00839 0.011923-0.02119 0.029773-0.02838 0.042581-0.0029 0.005478-0.01157 0.022728-0.01419 0.028387-0.0026 0.002474-0.01162 0.011707-0.01419 0.014187 8e-5 0.004932-1.7e-4 0.023421 0 0.028387-0.00261 0.004914-0.01168 0.023439-0.0142 0.028387 7e-5 0.001374-2e-5 0.01296 0 0.014194-0.10418 0.62505-0.41159 1.5612-0.41159 1.5612l-1.7741 0.1987-2.8102-1.249-2.2992-1.0361-0.82318-0.42579 0.09934-2.0721-0.31224-1.4619h-2.5973l-2.9237-0.31224-2.3986 0.099349-1.249 0.52514-2.3986-0.41159-1.0361-0.62448-0.52514 1.249s-1.1397 0.094231-1.6606 0.51094c-0.52088 0.41671-2.8102 2.0863-2.8102 2.0863l0.09935 1.3625-3.0231 0.099349-0.72383 1.7741-3.0231 1.8734 0.51094 1.7741-0.41159 2.285-0.72382 1.249-0.52514 2.3986v1.5612l1.7741 2.1857 0.83738 1.6747 0.1987 0.51094 3.6475 3.6475 1.4619 0.42578 1.4618 0.099349 1.8734 0.21289 1.4618 0.72383h2.3844l3.6475-0.099349 1.5612 1.9728 1.8734 0.099349 1.5754 0.52513-0.11354 2.1857-0.72383 1.5612 1.249 0.93673 1.4619 1.5754 0.93672 1.249 0.82318 1.4477 0.52513 1.1496-1.3483 1.249-0.52514 1.7741 0.4116 0.62448 1.1496 0.72383 1.1496 0.62448 0.31224 1.3625 0.72384 0.93671 1.249 0.2129 1.0503 0.72383 0.72383 0.62448 1.6747-0.09935 2.5973-0.83737h1.7741l0.93672 0.31224 1.3483-1.249 2.0863-0.31224 1.5612-1.6748 1.987-0.93672 0.62448-1.6606 1.249-0.72382 1.1496-1.5754 2.8102-0.72383 0.1987-1.8734 0.11354-2.0863-0.31224-2.7108 2.3986-4.0591 1.9728-1.6606 0.93672-2.0863 2.4979-1.987 1.4619-1.8734 0.31224-2.8102-0.41159-1.7741c0-6e-6 -2.4159 1.6456-2.8811 2.1431-0.00563 0.005694-0.02263 0.023084-0.02839 0.028387-0.00167 0.001694-0.01271 0.012535-0.01419 0.014194-0.00629 0.009384-0.02115 0.032753-0.02839 0.042574-0.39411 0.44606-2.1573 1.5328-2.1573 1.5328l-1.7741-1.0503-3.6475-2.9095-2.0722-2.6115-1.4618-2.0863s-0.42067-0.20778-0.83737-0.62448c-0.00313-0.003126-0.01106-0.010863-0.0142-0.014188-0.0014-0.00135-0.01295-0.012959-0.01418-0.014193-0.37317-0.46272-0.76245-2.2729-1.1354-2.7108-0.00739-0.007516-0.02369-0.023747-0.02838-0.028387-0.00156-0.001444-0.01143-0.011341-0.0142-0.014187-0.00137-0.001479-0.01292-0.012919-0.01419-0.014194-0.0051-0.00262-0.0237-0.012022-0.02838-0.014193-0.41671-0.20835-1.6606-1.3483-1.6606-1.3483l0.82317-1.0503 1.249 0.42579 1.1496 1.7599 1.1496 1.3625 0.41159 1.1496 1.7741 0.099349 0.4116 1.4619 1.1496 0.82318 0.72383 0.93672c0-5e-6 0.79328 0.40531 0.93672 0.80899-2e-5 0.001229 1.3e-4 0.012814 0 0.014194 0.00262 0.002457 0.0116 0.011731 0.01419 0.014187 0.10418 0.41671 0.82319 1.5612 0.82319 1.5612l0.21289 1.8734 2.5973-0.1987 1.0503-1.6747 2.0863-1.6606 2.1857-2.3986 1.7741-2.7108 0.72384-2.0863 0.83737-2.6966-0.83737-1.0503-1.5612 0.099349-0.93672-0.72383-0.93672 1.3483-0.73803 1.2632-1.8734-0.11354-1.8734-1.7741-0.52513-1.249-0.09935-1.3483 2.8102 0.41159 0.31225 0.73802 2.2992 0.1987 0.82318-1.1354 2.3986-0.11354c0-5e-6 1.6996-0.49696 1.9728-0.90834 0.00379-0.007382 0.01175-0.023497 0.01419-0.028387 0.20836-0.4167 1.249-1.9728 1.249-1.9728l1.3483-0.31224 1.3625 1.0361 1.0361-0.41159-0.09935 1.249 1.0361-0.41159 0.21289-1.7741 1.0361 2.3986 1.249 1.8734 1.249 1.6606s0.10331 1.2487 0.93672 1.5612c0.78132 0.293 1.2001 0.6769 1.249 0.72383l0.42579-1.8734c0.02792-0.060657 0.18497-0.37818 0.34062-0.51094 0.00893-0.006247 0.03179-0.020912 0.04258-0.028387 0.00127-0.001304 0.01271-0.01261 0.01419-0.014193 0.00126 2.9e-5 0.01269-1.23e-4 0.01419 0 0.00127-0.00131 0.01269-0.012506 0.0142-0.014188 0.00127 6e-6 0.01269-6.4e-5 0.01419 0 0.00127 0 0.01269-4.1e-5 0.01419 0 0.00212-1.34e-4 0.01209 1.7e-5 0.0142 0 0.00105 4.7e-5 0.01116 4.1e-5 0.01419 0 0.00126-2.3e-5 0.01267 5.8e-5 0.01419 0 0.00254 0.002597 0.01167 0.011562 0.01419 0.014188 0.00128-4.1e-5 0.01268 1.28e-4 0.0142 0 0.00242 0.002422 0.01178 0.011637 0.01419 0.014193 0.00194 0.001659 0.01227 0.012389 0.01419 0.014194 0.00189 0.002101 0.01232 0.011946 0.0142 0.014193 0.00254 0.002486 0.01165 0.011667 0.01419 0.014194 0.00244 0.004884 0.01177 0.023345 0.01419 0.028387 0.0035 0.006415 0.01079 0.021296 0.01419 0.028381 0.00247 0.00475 0.01175 0.023467 0.01419 0.028387 0.18231 0.45577 0.13064 1.3121 0.11355 1.5186l0.51094-0.99349 0.41159-1.4618-1.0361-0.31224-0.62447-0.93672-0.42579-1.8734-0.09935-2.3986 0.52514-3.0231 0.31223-3.534 0.41159-2.3986 0.93673 1.8734 1.249 1.7741 0.11354 0.1987 0.1987-1.7599 0.42578-1.3625 0.09935-1.3483 0.62448-0.52513 0.3974-0.68125c-1.2088-11.267-5.6802-21.569-12.461-29.918l-0.63867 0.90834-1.0503-1.9728-1.5612-1.0503-1.1496-0.099349-0.1987-1.6747-1.4618-1.3483-1.9728-0.83737-0.52513-0.41159-1.6747-0.52513-1.7599-0.51094-1.6748-0.52513-1.7741-1.3625-3.9598-1.0361-0.72383-0.83737-1.4619-1.249-1.5612-0.62448-1.3483-1.1496-2.1857-1.1354-2.0863-0.42578-2.2992-0.51094-2.285-0.21289zm-19.274 16.932-3.4204 0.099349c-0.02617 0.011621-0.12774 0.056771-0.12774 0.056771s-2.8045 2.0812-3.8462 2.4979c-1.0418 0.4167-2.0863 1.9728-2.0863 1.9728 0 0-2.0812 0.10872-2.4979 0.21289-0.00488 0.002393-0.02345 0.011536-0.02839 0.014192-0.00358 0.001849-0.02081 0.010351-0.02838 0.014193-0.00145 0.001558-0.01294 0.012908-0.0142 0.014193-0.01999 0.014424-0.04942 0.037446-0.07096 0.056771-0.00352 0.003334-0.01078 0.01075-0.01419 0.014193-0.4337 0.45375-1.1721 2.0689-1.7173 2.4412-0.03644 0.023617-0.07897 0.045249-0.11354 0.056771-0.00126-3.2e-5 -0.01272 1.19e-4 -0.01419 0-0.00741 0.003248-0.01911 0.008947-0.02839 0.014193-0.01262 0.007544-0.03196 0.020315-0.04258 0.028386-0.00124 0.001253-0.01281 0.012744-0.01419 0.014193-0.52647 0.4807-0.62448 2.9521-0.62448 2.9521l1.0361 1.7741 0.31224-1.3483 2.2992-1.249 2.4979-0.73802s3.6424-0.1987 4.0591-0.1987c0.00326 0 0.01075-8.6e-5 0.0142 0 0.45748 0.021918 2.3844 0.72383 2.3844 0.72383l3.1224-2.7108s-1.0412-0.93615-0.62448-1.5612c0.41671-0.62506 2.0863-1.8734 2.0863-1.8734l0.52513-0.11354 0.09935-0.31224-3.1224-2.8527zm-0.09935 21.09-1.3625 0.099349-0.51094 1.987 0.19869 1.1496-1.5612-0.11354-1.6606 0.93672v1.3625l0.62447 0.93672 1.4477 0.099349c0 4e-6 0.20777-0.83226 0.62447-1.249s1.3625-0.62448 1.3625-0.62448l0.52513 0.52513-0.73802 0.41159-1.0361 0.93672-0.21289 1.3625-0.09935 0.41159 1.1496 0.099349 0.72383-0.099349 1.8734 0.21289v-1.249l0.72384-0.31224-0.51095-0.93672v-1.7741l-0.93671-0.62448 0.19869-1.4619 0.52513-0.72383-1.3483-1.3625zm-20.012 12.504-1.0361 0.09935 0.93672 1.0503 0.09935-1.1496zm25.944 4.0591-1.3483 1.8734 0.09935 1.987 0.62448 0.72383 0.72383-0.52514-0.09935-1.8734v-2.1857zm35.212 39.796-1.4619 1.0361-2.0863 0.83737-0.82318 0.62448-1.0503 2.0863-0.82318 1.249 1.249 1.249 2.0721-0.82318 1.4618-2.9237 1.249-2.2992 0.21289-1.0361z" fill="url(#h)" fill-rule="evenodd" opacity=".81685"/></g><path id="dn" transform="matrix(.46372 0 0 .66221 -527.48 -433.14)" d="m1215.5 731.94 44.3 38.505 1.5626 0.625c-0.0757 1.8339-0.1516 3.5309-0.1876 4.1562 1e-4 3.5923 6.0894 6.5312 13.625 6.5312 3.4791-1e-5 6.6506-0.63347 9.0626-1.6562l61.406 23.103 2.2812-0.71875 0.125-0.03125 1.125-0.34375-63.937-45.75-69.362-24.42zm8.6121 4.8265z" clip-path="url(#am)" fill="#282828" fill-rule="evenodd" filter="url(#ah)"/><path id="do" d="m64.399 67.483c-3.4944 0-6.3309 1.9314-6.3309 4.3102 0.28815 1.0954 0.03932 5.8901 0 6.8663 0 2.3789 2.8365 4.3102 6.3309 4.3102 3.4944 0 6.331-1.9313 6.331-4.3102-0.28551-1.0898-0.03853-5.8936 0-6.8663 0-2.3788-2.8365-4.3102-6.331-4.3102z" fill="url(#v)" stroke="#686868" stroke-dashoffset="1.0878" stroke-linecap="round" stroke-linejoin="round" stroke-miterlimit="4" stroke-width=".059802"/><path id="dp" d="m34.643 49.462 29.018 18.112-4.8542 7.9021-24.164-26.014z" fill="#a90000" fill-rule="evenodd"/><path id="dq" d="m34.605 49.433 29.084 18.149 35.866 30.13 0.52169-0.2276-29.649-30.296-35.822-17.755z" fill="#a10000" fill-rule="evenodd"/><path id="dr" d="m63.66 67.581-4.8545 7.9051 39.633 22.722 1.0579-0.47593-35.837-30.151z" fill="#c9c9c9" fill-rule="evenodd"/><path id="ds" d="m34.601 49.436 35.825 17.745-6.7394 0.40395-29.086-18.149z" fill="#e2e2e2" fill-rule="evenodd"/><path id="dt" transform="matrix(.46267 0 0 .97426 -349.22 -532.42)" d="m809.8 598.36c27.998-13.28 54.775-19.721 96.049-18.444 36.694 1.1347 64.036 9.5077 82.477 22.62" fill="none" filter="url(#al)" stroke="url(#j)" stroke-linejoin="miter" stroke-miterlimit="4" stroke-width="1.8849"/><path id="du" d="m8.4159 86.695 11.955 16.121 42.271 15.686c18.292-3.1697 37.399-4.5626 50.994-17.983l6.4631-24.897c-16.055 33.139-74.817 45.387-107.8 4.6109l-3.8863 6.4625z" fill="url(#w)"/><path id="dv" transform="matrix(.4906 0 0 1.0019 -190.38 -520.93)" d="m641.02 589.17a120.06 40.02 0 1 1-240.12 0 120.06 40.02 0 1 1 240.12 0z" fill="none" filter="url(#ad)" opacity=".29304" stroke="url(#k)" stroke-dashoffset="1.0878" stroke-linecap="round" stroke-linejoin="round" stroke-miterlimit="4" stroke-width="1.5776"/><path id="dw" d="m11.772 71.853c11.273-18.303 32.337-25.969 56.338-25.969 21.701 0 46.208 14.696 51.662 33.242" fill="none" filter="url(#ae)" opacity=".66667" stroke="url(#p)" stroke-linejoin="miter" stroke-miterlimit="4" stroke-width="3"/><g id="dx" transform="matrix(1.0121 0 0 1.004 -.28212 9.9411)"><path id="dy" transform="matrix(.61637 0 0 1.2493 -683.45 -708)" d="m1301.5 613.53a87.697 29.58 0 1 1-175.39 0 87.697 29.58 0 1 1 175.39 0z" fill="url(#n)" filter="url(#ai)" opacity=".61172"/><path id="dz" d="m69.471 24.545c-7.6652 0.046377-13.974 2.648-16.281 8.6562-0.46774 1.2179-0.7695 2.4253-0.9375 3.6562l0.5-0.21875c22.32-5.7411 40.259-0.18639 55.75 5.8438-3.3736-4.1478-8.2928-7.9801-14.531-11.312-7.8125-4.1732-16.835-6.6714-24.5-6.625zm-1.3438 12.406c-5.2747-0.058674-10.629 0.42504-16 1.4688-0.40395 10.412 9.1889 20.919 22.562 28.062 15.625 8.3463 33.073 8.4541 37.688-3.5625 1.9398-5.0509 1.7728-10.007-0.25-14.656-12.266-6.2472-27.712-11.131-44-11.312z" fill="url(#m)" opacity=".7033"/><path id="ea" d="m18.285 50.033c1.0285 6.514 0.77449 13.455 3.0856 19.542 3.8534 10.149 14.707 14.588 24.17 17.485 6.4297 1.9682 13.714 0.68568 20.57 1.0285-6.514-2.3524-13.346-4.0365-19.542-7.057-7.5176-3.6648-16.247-7.1337-21.599-12.999-4.0763-4.4674-4.4569-11.999-6.6854-17.999z" fill="#fff" fill-rule="evenodd" filter="url(#aj)"/><path id="eb" transform="matrix(1.4054 -.25331 .368 .96739 130.33 -67.015)" d="m-75.596 94.059a8.9995 16.456 0 1 1-17.999 0 8.9995 16.456 0 1 1 17.999 0z" fill="url(#l)" filter="url(#af)" opacity=".35531"/></g><path id="ec" d="m65.359 29.206c-2.9494 0-5.848 0.14991-8.6807 0.4375-2.1785 0.22117-4.3158 0.52588-6.4094 0.90625-1.5395 0.27971-3.0555 0.60739-4.5426 0.96875-10.998 2.6724-20.485 7.5082-27.349 13.781-0.56304 0.51467-1.0908 1.0604-1.6179 1.5938-2.101 2.1278-3.9336 4.3896-5.4138 6.7812-0.00451 0.00728 0.00451 0.023967 0 0.03125-1.8476 2.9905-3.2116 6.1602-3.9514 9.4688-0.00218 0.009681 0.00217 0.021566 0 0.03125-0.1454 0.65354-0.27474 1.3052-0.37336 1.9688-0.00152 0.010167 0.00151 0.021081 0 0.03125-0.1973 1.3375-0.28002 2.7207-0.28002 4.0938 0 9.6838 5.0127 18.566 13.379 25.5 1.1952 0.99052 2.4693 1.9363 3.7958 2.8438s2.7212 1.7762 4.1692 2.5937c3.6202 2.044 7.5822 3.7787 11.854 5.1875 0.00933 0.00308 0.02179-0.00308 0.03112 0 1.7 0.55986 3.4409 1.0836 5.2271 1.5312 0.00975 0.00244 0.02137-0.00244 0.03112 0 0.88848 0.2223 1.7989 0.43169 2.7069 0.625 1.8358 0.39085 3.7234 0.73269 5.6316 1 0.95406 0.13365 1.8922 0.24225 2.8624 0.34375 0.01029 0.00108 0.02082-0.00108 0.03111 0 2.9012 0.30244 5.8742 0.46875 8.8985 0.46875 4.0465 0 8.0065-0.27788 11.823-0.8125 1.9083-0.26731 3.7955-0.60915 5.6316-1 7.3442-1.5634 14.056-4.0734 19.85-7.3438 1.4485-0.81759 2.8422-1.6863 4.1692-2.5937 1.327-0.90743 2.6002-1.8532 3.7958-2.8438 4.1846-3.4668 7.5283-7.4199 9.8319-11.719 0.65817-1.2282 1.2288-2.5002 1.7112-3.7812 0.24122-0.6405 0.45795-1.2851 0.65338-1.9375 0.58632-1.9573 0.96797-3.9506 1.1201-6 0.05071-0.68314 0.06223-1.3708 0.06223-2.0625s-0.01152-1.3794-0.06223-2.0625c-0.15212-2.0493-0.53377-4.0744-1.1201-6.0312-0.19543-0.65228-0.41216-1.2972-0.65338-1.9375-0.48243-1.2807-1.0531-2.5222-1.7112-3.75-0.32489-0.60609-0.69193-1.2205-1.0579-1.8125-0.00451-0.007283 0.00451-0.02397 0-0.03125-1.4809-2.3916-3.3119-4.6534-5.4138-6.7812-0.52711-0.53334-1.0549-1.0791-1.6179-1.5938-2.2464-2.0524-4.7913-3.9657-7.5606-5.6875-0.00753-0.004681-0.02358 0.004679-0.03112 0-2.7703-1.7207-5.7771-3.257-8.9918-4.5938-0.008842-0.003675-0.022268 0.003672-0.031114 0-0.79732-0.33114-1.6052-0.66327-2.4269-0.96875-0.009006-0.003347-0.022104 0.003344-0.031114 0-2.493-0.92573-5.084-1.7318-7.7784-2.4062-1.7962-0.44965-3.6337-0.85792-5.5071-1.1875-1.8734-0.32958-3.7842-0.57846-5.7249-0.78125-2.9111-0.30418-5.8947-0.46875-8.9296-0.46875zm0 2.5c29.395 0 53.266 16.307 53.266 36.406 0 20.099-23.871 36.406-53.266 36.406-29.395 0-53.235-16.307-53.235-36.406 1e-5 -20.099 23.84-36.406 53.235-36.406z" fill="url(#x)"/><path id="ed" d="m65.633 29.205c-2.9494 0-5.8548 0.14842-8.6875 0.43315-2.1785 0.21897-4.3127 0.52065-6.4062 0.89724-1.5395 0.27693-3.0442 0.60135-4.5312 0.95912-10.998 2.6458-20.48 7.4336-27.344 13.644-0.56304 0.50955-1.0979 1.0499-1.625 1.5779-2.056 2.0615-3.8493 4.2474-5.3125 6.5591 9.698-13.538 33.732-22.864 57.442-22.864 23.763 0 40.783 9.3702 50.464 22.957-1.4729-2.3413-3.2944-4.5666-5.375-6.652-0.52713-0.52804-1.0307-1.0684-1.5938-1.5779-2.2464-2.032-4.7932-3.9263-7.5625-5.631-0.00754-0.004634-0.02371 0.004633-0.03125 0-2.7703-1.7036-5.7853-3.2247-9-4.5481-0.00884-0.003638-0.0224 0.003635-0.03125 0-0.79733-0.32785-1.6159-0.65668-2.4375-0.95912-0.00899-0.003314-0.02224 0.00331-0.03125 0-2.493-0.91652-5.0869-1.7146-7.7812-2.3823-1.7962-0.44518-3.6266-0.84939-5.5-1.1757s-3.778-0.57271-5.7188-0.77348c-2.9111-0.30116-5.9026-0.46409-8.9375-0.46409z" fill="url(#o)" filter="url(#c)"/><path id="ee" d="m40.601 54.392 21.75 13.625-1.75 3.125-20-16.75z" fill="url(#z)" fill-rule="evenodd" filter="url(#e)"/><path id="ef" transform="matrix(0 -1 -1 0 155.26 -12.329)" d="m-104.18 61.64 23.518 24.762 0.37132 2.4179-23.889-27.18z" fill="url(#y)" fill-rule="evenodd" filter="url(#e)"/><path id="eg" transform="matrix(1.0371 0 0 -1 185.03 124.31)" d="m-116.09 15.062c-20.615-0.15167-42.826 8.2141-51.857 25.071 9.457-13.788 31.683-23.864 55.393-23.864 23.763 0 40.542 10.62 49.741 23.957-9.6547-18.166-32.859-24.946-53.277-25.164z" fill="url(#d)" filter="url(#c)"/><path id="eh" transform="matrix(1.0371 0 0 -1 185.03 124.31)" d="m-116.09 15.062c-20.615-0.15167-42.826 8.2141-51.857 25.071 9.457-13.788 31.683-23.864 55.393-23.864 23.763 0 40.542 10.62 49.741 23.957-9.6547-18.166-32.859-24.946-53.277-25.164z" fill="url(#d)" filter="url(#c)"/></g></g></svg>
