<?xml version="1.0" encoding="UTF-8"?>
<svg version="1.1" viewBox="0 0 24 24" xmlns="http://www.w3.org/2000/svg"><title>mark-location</title><desc>Created with Sketch.</desc><g id="a" fill="#303030" fill-rule="nonzero" stroke-width="1"><path id="Path" d="m15.919 10.843c0.024261-0.14886 0.04209-0.28984 0.054613-0.44036 0.018872-0.1855 0.026115-0.2907 0.026115-0.39879 0-2.2091-1.7909-4-4-4-2.2091 0-4 1.7909-4 4 0 0.10757 0.0071707 0.21147 0.027912 0.41836 0.010727 0.13095 0.028556 0.27193 0.052829 0.42086 0.39647 2.4339 1.5448 4.2583 3.9193 6.7344 2.3745-2.4761 3.5228-4.3004 3.9193-6.7345zm-3.9193-5.8391c2.7614 0 5 2.2386 5 5 0 0.17259-0.01415 0.33191-0.03125 0.5-0.0137 0.16725-0.0358 0.33617-0.0625 0.5-0.5725 3.5145-2.9062 6.002-4.9062 8.002-2-2-4.3338-4.4876-4.9062-8.002-0.0267-0.16383-0.0488-0.33275-0.0625-0.5-0.017-0.16809-0.03125-0.32741-0.03125-0.5 0-2.7614 2.2386-5 5-5z"/><path id="b" d="m12 9.0039c-0.55229 0-1 0.44771-1 1 0 0.55229 0.44771 1 1 1s1-0.44771 1-1c0-0.5523-0.4477-1-1-1zm0-1c1.1046 0 2 0.89543 2 2 0 1.1046-0.89543 2-2 2s-2-0.89543-2-2c0-1.1046 0.89543-2 2-2z"/></g></svg>
