<?xml version="1.0" encoding="UTF-8"?>
<svg id="h" version="1.0" viewBox="0 0 128 128" xmlns="http://www.w3.org/2000/svg" xmlns:xlink="http://www.w3.org/1999/xlink"><defs id="i"><linearGradient id="b"><stop id="j" stop-color="#fff" offset="0"/><stop id="k" stop-color="#fff" stop-opacity="0" offset="1"/></linearGradient><linearGradient id="a" x1="23.5" x2="140.2" y1="64" y2="32.731" gradientUnits="userSpaceOnUse"><stop id="l" stop-color="#0968ef" offset="0"/><stop id="m" stop-color="#aecffc" offset="1"/></linearGradient><linearGradient id="c" x1="100" x2="32" y1="120" y2="20" gradientUnits="userSpaceOnUse"><stop id="n" stop-color="#b900c4" offset="0"/><stop id="o" stop-color="#ae4300" offset="1"/></linearGradient><linearGradient id="g" x1="78.349" x2="92" y1="104" y2="52" gradientUnits="userSpaceOnUse"><stop id="p" stop-color="#99c2fc" offset="0"/><stop id="q" stop-color="#dceafe" offset="1"/></linearGradient><linearGradient id="f" x1="95.013" x2="108.27" y1="48.888" y2="71.847" gradientUnits="userSpaceOnUse" xlink:href="#b"/><linearGradient id="e" x1="69" x2="69" y1="59.972" y2="100.01" gradientUnits="userSpaceOnUse" xlink:href="#b"/><linearGradient id="d" x1="44.159" x2="94.739" y1="124.52" y2="73.941" gradientUnits="userSpaceOnUse"><stop id="r" stop-color="#fbaeff" offset="0"/><stop id="s" stop-color="#ffd7d7" offset="1"/></linearGradient></defs><g id="t"><path id="u" d="m64 80v36h40v-76l-24 8-16 32z" fill="url(#g)" fill-rule="evenodd"/><path id="v" d="m120 118-12-6v4h-100v4h100v4l12-6z" fill="#797979" opacity=".61386"/><rect id="w" x="4" y="96" width="8" height="4" rx="0" ry="0" fill="#787878" fill-opacity=".61569"/><rect id="x" x="4" y="76" width="8" height="4" rx="0" ry="0" fill="#787878" fill-opacity=".61569"/><rect id="y" x="4" y="56" width="8" height="4" rx="0" ry="0" fill="#787878" fill-opacity=".61569"/><rect id="z" x="4" y="36" width="8" height="4" rx="0" ry="0" fill="#787878" fill-opacity=".61569"/><rect id="aa" transform="rotate(-90)" x="-124" y="92" width="8" height="4" rx="0" ry="0" fill="#787878" fill-opacity=".61569"/><rect id="ab" transform="rotate(-90)" x="-124" y="72" width="8" height="4" rx="0" ry="0" fill="#787878" fill-opacity=".61569"/><rect id="ac" transform="rotate(-90)" x="-124" y="52" width="8" height="4" rx="0" ry="0" fill="#787878" fill-opacity=".61569"/><rect id="ad" transform="rotate(-90)" x="-124" y="32" width="8" height="4" rx="0" ry="0" fill="#787878" fill-opacity=".61569"/><path id="ae" d="m10 8-6 12h4v96h4v-96h4l-6-12z" fill="#797979" opacity=".61386"/><path id="af" d="m104 40-24 8-13.875 27.75c16.033-1.215 29.824-6.95 37.875-15.094v-20.656z" fill="url(#f)" opacity=".79703"/><path id="ag" d="m24 104 32-8 24-48 24-8" fill="none" stroke="url(#a)" stroke-linecap="round" stroke-linejoin="round" stroke-miterlimit="4" stroke-width="4"/><path id="ah" d="m56 68-32 24v24h40 40v-28l-24 16-24-36z" fill="url(#d)" fill-rule="evenodd"/><path id="ai" d="m56 68-21.312 15.969c7.4343 2.5522 15.992 4.0312 25.094 4.0312 3.1482 0 6.2251-0.19809 9.2188-0.53125l-5-7.4688-8-12z" fill="url(#e)" opacity=".9604"/><path id="aj" d="m24 92 32-24 24 36 24-16" fill="none" stroke="url(#c)" stroke-linecap="round" stroke-linejoin="round" stroke-miterlimit="4" stroke-width="4"/><path id="ak" d="m24 104 32-8 24-48 24-8" fill="none" opacity=".15842" stroke="url(#a)" stroke-linecap="round" stroke-linejoin="round" stroke-miterlimit="4" stroke-width="4"/></g></svg>
