<?xml version="1.0" encoding="UTF-8"?>
<svg id="c" version="1.1" viewBox="0 0 572.63 418.49" xmlns="http://www.w3.org/2000/svg"><defs id="d"><style id="e">.cls-1{fill:#306384;}.cls-2{fill:#276d88;}.cls-3{fill:#0b7a90;}.cls-4{fill:#bd295b;}.cls-5{fill:#fcc;}.cls-6{fill:#d64274;}.cls-7{fill:none;}.cls-8{fill:url(#b);}.cls-9{fill:#b3e0df;}.cls-10{fill:url(#a);}.cls-11{fill:#1ba8c1;}</style><linearGradient id="b" x1="167.45" x2="403.7" y1="369.24" y2="-39.96" gradientUnits="userSpaceOnUse"><stop id="f" stop-color="#025361" offset="0"/><stop id="g" stop-color="#0b7a90" offset=".38"/><stop id="h" stop-color="#406185" offset=".42"/><stop id="i" stop-color="#406185" offset=".58"/><stop id="j" stop-color="#0b7a90" offset=".62"/><stop id="k" stop-color="#025361" offset="1"/></linearGradient><linearGradient id="a" x1="569.05" x2="427.35" y1="55.5" y2="300.93" gradientUnits="userSpaceOnUse"><stop id="l" stop-color="#16a9c4" offset="0"/><stop id="m" stop-color="#8ad4ec" offset=".05"/><stop id="n" stop-color="#8ad4e2" offset=".08"/><stop id="o" stop-color="#1facc5" offset=".2"/><stop id="p" stop-color="#0190a9" offset=".5"/><stop id="q" stop-color="#025361" offset="1"/></linearGradient></defs><title id="r">mtlx.combined.wide</title><g id="s" data-name="Layer 2"><g id="t"><polygon id="u" class="cls-1" points="285.57 219.08 380.07 164.52 380.07 273.64"/><polygon id="v" class="cls-2" points="474.57 219.08 380.07 273.64 380.07 164.52"/><polygon id="w" class="cls-3" points="380.07 273.64 474.57 219.08 474.57 328.2"/><polygon id="x" class="cls-3" points="569.08 273.64 474.57 328.2 474.57 219.08"/><polygon id="y" class="cls-3" points="569.08 55.52 474.58 110.08 474.58 0.96"/><polygon id="z" class="cls-4" points="285.57 110.08 191.07 164.64 191.07 55.52"/><path id="aa" class="cls-5" transform="translate(-4.27)" d="M194.51,166.07v-112l97,56ZM196.17,57V163.2l92-53.12Z"/><polygon id="ab" class="cls-4" points="96.58 110.08 191.07 55.52 191.07 164.64"/><polygon id="ac" class="cls-6" points="2.08 55.52 96.58 0.96 96.58 110.08"/><polygon id="ad" class="cls-4" points="191.07 55.52 96.58 110.08 96.58 0.96"/><polygon id="ae" class="cls-7" points="97.41 2.4 97.41 108.64 189.41 55.52"/><polygon id="af" class="cls-7" points="98.23 110.08 190.25 163.2 190.25 56.96 144.24 83.52"/><polygon id="ag" class="cls-5" points="94.92 110.08 95.75 110.56 95.75 109.6"/><polygon id="ah" class="cls-5" points="97.41 108.64 143.41 82.08 96.58 109.12 97.41 109.6"/><polygon id="ai" class="cls-5" points="191.91 56 190.25 56.96 190.25 163.2 98.23 110.08 144.24 83.52 96.58 111.04 191.91 166.07"/><polygon id="aj" class="cls-5" points="144.24 83.52 190.25 56.96 190.25 56.95"/><polygon id="ak" class="cls-5" points="95.75 108.64 95.75 109.6 96.58 109.12"/><polygon id="al" class="cls-5" points="95.75 111.52 96.58 111.04 95.75 110.56"/><polygon id="am" class="cls-5" points="97.41 0.48 97.41 2.4 189.41 55.52 143.41 82.08 191.07 54.56"/><polygon id="an" class="cls-5" points="192.74 55.52 191.91 55.04 191.91 56"/><polygon id="ao" class="cls-5" points="190.25 56.95 190.25 56.96 191.91 56 191.91 55.04 191.07 54.56 143.41 82.08 97.41 108.64 97.41 109.6 96.58 109.12 95.75 109.6 95.75 110.56 96.58 111.04 144.24 83.52"/><polygon id="ap" class="cls-5" points="2.08 54.56 49.74 82.08 3.73 55.52 95.75 2.4 95.75 0.48"/><polygon id="aq" class="cls-5" points="97.41 109.6 97.41 108.64 97.41 2.4 97.41 0.48 96.58 0 95.75 0.48 95.75 2.4 95.75 108.64"/><polygon id="ar" class="cls-8" points="474.57 110.08 96.58 328.32 96.58 219.2 474.57 0.96"/><polygon id="as" class="cls-6" points="96.58 219.2 2.08 273.76 2.08 164.64"/><polygon id="at" class="cls-6" points="2.08 164.64 96.58 110.08 96.58 219.2"/><polygon id="au" class="cls-6" points="96.58 110.08 2.08 164.64 2.08 55.52"/><polygon id="av" class="cls-7" points="94.92 110.08 48.91 83.52 2.9 56.96 2.9 163.2"/><polygon id="aw" class="cls-7" points="3.73 55.52 49.74 82.08 95.75 108.64 95.75 2.4"/><polygon id="ax" class="cls-5" points="98.23 110.08 97.41 109.6 97.41 110.56"/><polygon id="ay" class="cls-5" points="95.75 108.64 95.75 108.64 49.74 82.08"/><polygon id="az" class="cls-5" points="94.92 110.08 2.9 163.2 2.9 56.96 1.25 56 1.25 166.07 96.58 111.04 48.91 83.52"/><polygon id="ba" class="cls-5" points="97.41 110.56 96.58 111.04 97.41 111.52"/><polygon id="bb" class="cls-5" points="2.9 56.95 2.9 56.96 48.91 83.52"/><polygon id="bc" class="cls-5" points="97.41 109.6 95.75 108.64 95.75 108.64 49.74 82.08 2.08 54.56 1.25 55.04 1.25 56 2.9 56.96 2.9 56.95 48.91 83.52 96.58 111.04 97.41 110.56"/><polygon id="bd" class="cls-6" points="2.08 273.76 96.58 219.2 96.58 328.32"/><polygon id="be" class="cls-7" points="95.75 326.88 95.75 220.63 3.73 273.76"/><polygon id="bf" class="cls-9" points="285.57 220.16 283.92 219.2 97.41 326.88 97.41 328.8"/><polygon id="bg" class="cls-9" points="97.41 219.68 191.07 165.59 189.41 164.64 96.16 218.48 95.75 218.72 95.75 218.72 97.41 217.76"/><polygon id="bh" class="cls-7" points="2.9 166.07 2.9 272.32 48.01 246.28 94.92 219.2"/><polygon id="bi" class="cls-7" points="3.73 164.64 49.74 191.2 95.75 217.76 95.75 111.52"/><polygon id="bj" class="cls-5" points="2.9 166.07 48.91 192.64 2.9 166.07"/><polygon id="bk" class="cls-5" points="3.73 164.64 95.75 111.52 95.75 217.76 97.41 218.72 97.41 108.64 2.08 163.68 49.74 191.2"/><polygon id="bl" class="cls-5" points="97.41 219.68 96.58 220.16 97.41 220.63"/><polygon id="bm" class="cls-5" points="94.92 219.2 95.75 219.68 95.75 218.72"/><polygon id="bn" class="cls-5" points="1.25 273.28 2.9 272.32 2.9 166.07 1.25 165.12"/><polygon id="bo" class="cls-5" points="94.92 219.2 48.01 246.28 94.92 219.2 48.91 192.64"/><polygon id="bp" class="cls-5" points="95.75 220.63 49.74 247.2 96.58 220.16 95.75 219.68"/><polygon id="bq" class="cls-5" points="95.75 217.76 95.75 217.76 49.74 191.2"/><polygon id="br" class="cls-5" points="1.25 163.2 1.25 164.16 2.08 163.68"/><polygon id="bs" class="cls-5" points="97.41 218.72 95.75 217.76 95.75 217.76 49.74 191.2 2.08 163.68 1.25 164.16 1.25 165.12 2.9 166.07 2.9 166.07 48.91 192.64 94.92 219.2 95.75 218.72 95.75 219.68 96.58 220.16 97.41 219.68"/><polygon id="bt" class="cls-5" points="49.74 247.2 2.08 274.71 95.75 328.8 95.75 326.88 3.73 273.76"/><polygon id="bu" class="cls-5" points="2.9 272.32 48.01 246.28 2.9 272.32"/><polygon id="bv" class="cls-5" points="95.75 220.63 95.75 218.72 48.01 246.28 2.9 272.32 2.9 272.32 1.25 273.28 1.25 274.24 2.08 274.71 49.74 247.2"/><polygon id="bw" class="cls-5" points="97.41 326.88 97.41 219.68 97.41 217.76 95.75 218.72 95.75 220.63 95.75 326.88 95.75 328.8 96.58 329.27 97.41 328.8"/><polygon id="bx" class="cls-10" points="569.08 273.64 474.57 328.2 474.57 0.96 569.08 55.52"/><polygon id="by" class="cls-7" points="97.41 326.88 473.74 109.6 473.74 2.4 97.41 219.68"/><polygon id="bz" class="cls-7" points="475.4 110.56 475.4 326.76 568.25 273.16 568.25 56 475.4 2.4 475.4 110.56"/><polygon id="ca" class="cls-9" points="475.4 110.56 475.4 110.56 475.4 2.4 475.4 2.4"/><polygon id="cb" class="cls-7" points="97.41 109.6 473.74 326.88 473.74 219.67 97.41 2.4"/><polygon id="cc" class="cls-9" points="475.4 326.76 475.4 218.72 475.4 218.72 475.4 326.76"/><polygon id="cd" class="cls-7" points="97.41 2.4 97.41 109.6 191.07 163.68 283.92 110.08"/><polygon id="ce" class="cls-7" points="285.57 218.24 378.42 164.64 285.57 111.04 192.74 164.64"/><polygon id="cf" class="cls-7" points="97.41 219.68 97.41 326.88 283.92 219.2 191.07 165.59"/><polygon id="cg" class="cls-9" points="285.57 218.24 287.24 219.2 380.07 165.59 378.42 164.64"/><polygon id="ch" class="cls-9" points="191.07 163.68 192.74 164.64 285.57 111.04 283.92 110.08"/><polygon id="ci" class="cls-9" points="473.74 2.4 473.74 0.48 285.57 109.12 287.24 110.08"/><polygon id="cj" class="cls-9" points="473.74 111.52 473.74 109.6 380.08 163.68 381.74 164.64"/><polygon id="ck" class="cls-9" points="473.74 328.79 473.74 326.88 287.24 219.2 285.57 220.16"/><polygon id="cl" class="cls-9" points="473.74 219.67 473.74 217.76 381.74 164.64 380.07 165.59"/><polygon id="cm" class="cls-9" points="380.07 165.59 381.74 164.64 380.08 163.68 378.42 164.64"/><polygon id="cn" class="cls-9" points="192.74 164.64 191.07 163.68 189.41 164.64 191.07 165.59"/><polygon id="co" class="cls-9" points="283.92 219.2 285.57 220.16 287.24 219.2 285.57 218.24"/><polygon id="cp" class="cls-9" points="285.57 111.04 287.24 110.08 285.57 109.12 283.92 110.08"/><polygon id="cq" class="cls-9" points="473.75 326.88 473.75 219.68 473.74 219.67 473.74 326.88"/><polygon id="cr" class="cls-9" points="475.4 0.48 475.4 2.4 568.25 56 568.25 273.16 475.4 326.76 475.4 328.68 569.49 274.36 569.9 274.12 569.9 55.04"/><polygon id="cs" class="cls-9" points="475.4 110.56 474.99 110.8 473.74 111.52 473.74 217.76 475.4 218.72"/><polygon id="ct" class="cls-9" points="475.4 326.76 475.4 218.72 473.74 217.76 473.74 219.67 473.75 219.68 473.75 326.88 473.74 326.88 473.74 328.79 474.47 329.21 475.4 328.68 475.4 326.76"/><polygon id="cu" class="cls-9" points="473.75 109.6 473.75 2.4 473.74 2.4 473.74 109.6"/><polygon id="cv" class="cls-9" points="475.4 110.56 475.4 2.4 475.4 2.4 475.4 0.48 474.57 0 473.74 0.48 473.74 2.4 473.75 2.4 473.75 109.6 473.74 109.6 473.74 111.52 474.99 110.8"/></g><g id="cw" data-name="Wide Tracking"><path id="cx" class="cls-11" transform="translate(-4.27)" d="M48.11,418.49l-.32-33.89L37.6,418.49H26.38L16.27,384.6l-.4,33.89H4.27l1.58-50.16H21.72l10.59,35.31L43,368.33h15.8l1.66,50.16Z"/><path id="cy" class="cls-11" transform="translate(-4.27)" d="M122.89,418.49,120,409H102.27l-2.92,9.48H87l17-50.16h15.17l17,50.16ZM111.12,380.1l-6,19.2h12Z"/><path id="cz" class="cls-11" transform="translate(-4.27)" d="m179.69 378.12v40.37h-12.48v-40.37h-13.59v-9.8h39.66v9.8z"/><path id="da" class="cls-11" transform="translate(-4.27)" d="M220.63,418.49V368.33h33.81V378H233.11v9.56h19.83v9.87H233.11v11h22.12v10Z"/><path id="db" class="cls-11" transform="translate(-4.27)" d="m313.63 418.49-10.35-18.41h-5.06v18.41h-12.48v-50.16h19.83c5.29 0 10 0.87 13.35 3.32a14.47 14.47 0 0 1 5.92 12.09c0 6.56-3.16 11.61-9.48 14.22l12.48 20.54zm-3.71-39.34a9.1 9.1 0 0 0-5.29-1.34h-6.4v13h6.4a9.09 9.09 0 0 0 5.29-1.34 6.83 6.83 0 0 0 0-10.35z"/><path id="dc" class="cls-11" transform="translate(-4.27)" d="m355.31 418.49v-50.16h12.56v50.16z"/><path id="dd" class="cls-11" transform="translate(-4.27)" d="m430.54 418.49-2.93-9.49h-17.69l-2.92 9.49h-12.33l17-50.16h15.17l17 50.16zm-11.77-38.39-6 19.2h12z"/><path id="de" class="cls-11" transform="translate(-4.27)" d="m470.7 418.49v-50.16h12.48v40.05h19.43v10.11z"/><path id="df" class="cls-4" transform="translate(-4.27)" d="m562.44 418.49-10-18.09-10.14 18.09h-14.46l16.91-25.75-15.4-24.41h14.05l8.93 16.59 9-16.59h14.14l-15.17 24.33 16.59 25.83z"/></g></g></svg>
