<?xml version="1.0" encoding="UTF-8"?>
<svg id="j" version="1.0" viewBox="0 0 48 48" xmlns="http://www.w3.org/2000/svg" xmlns:xlink="http://www.w3.org/1999/xlink"><defs id="k"><radialGradient id="c" cx="605.71" cy="486.65" r="117.14" gradientTransform="matrix(-2.7744 0 0 1.9697 112.76 -872.89)" gradientUnits="userSpaceOnUse" xlink:href="#a"/><linearGradient id="a"><stop id="l" offset="0"/><stop id="m" stop-opacity="0" offset="1"/></linearGradient><radialGradient id="d" cx="605.71" cy="486.65" r="117.14" gradientTransform="matrix(2.7744 0 0 1.9697 -1891.6 -872.89)" gradientUnits="userSpaceOnUse" xlink:href="#a"/><linearGradient id="i" x1="302.86" x2="302.86" y1="366.65" y2="609.51" gradientTransform="matrix(2.7744 0 0 1.9697 -1892.2 -872.89)" gradientUnits="userSpaceOnUse"><stop id="n" stop-opacity="0" offset="0"/><stop id="o" offset=".5"/><stop id="p" stop-opacity="0" offset="1"/></linearGradient><linearGradient id="h" x1="27" x2="27.25" y1="40" y2="12.375" gradientTransform="translate(0,-2)" gradientUnits="userSpaceOnUse"><stop id="q" stop-color="#d3d7cf" offset="0"/><stop id="r" stop-color="#e0e3dd" offset="1"/></linearGradient><linearGradient id="g" x1="4" x2="8.125" y1="25" y2="62.875" gradientTransform="translate(0,-2)" gradientUnits="userSpaceOnUse"><stop id="s" stop-color="#fff" offset="0"/><stop id="t" stop-color="#fff" stop-opacity="0" offset="1"/></linearGradient><linearGradient id="f" x1="37.33" x2="41.689" y1="24.135" y2="24.135" gradientTransform="translate(0,-2)" gradientUnits="userSpaceOnUse"><stop id="u" stop-color="#204a87" offset="0"/><stop id="v" stop-color="#204a87" stop-opacity="0" offset="1"/></linearGradient><linearGradient id="e" x1="37.33" x2="40.628" y1="33.946" y2="33.946" gradientTransform="translate(0,-2)" gradientUnits="userSpaceOnUse"><stop id="w" stop-color="#c00" offset="0"/><stop id="x" stop-color="#c00" stop-opacity="0" offset="1"/></linearGradient><radialGradient id="b" cx="21.92" cy="24.842" r="14.319" gradientUnits="userSpaceOnUse"><stop id="y" stop-color="#fff" offset="0"/><stop id="z" stop-color="#fff" stop-opacity="0" offset="1"/></radialGradient></defs><g id="aa"><g id="ab" transform="matrix(.022945 0 0 .017603 44.551 39.846)" fill-rule="nonzero"><rect id="ac" x="-1559.3" y="-150.7" width="1339.6" height="478.36" color="#000000" fill="url(#i)" opacity=".40206"/><path id="ad" d="m-219.62-150.68v478.33c142.87 0.90045 345.4-107.17 345.4-239.2 0-132.03-159.44-239.13-345.4-239.13z" color="#000000" fill="url(#d)" opacity=".40206"/><path id="ae" d="m-1559.3-150.68v478.33c-142.87 0.90045-345.4-107.17-345.4-239.2 0-132.03 159.44-239.13 345.4-239.13z" color="#000000" fill="url(#c)" opacity=".40206"/></g><rect id="af" x="3.5" y="3.5" width="41" height="39" rx="1.9455" ry="1.8181" color="#000000" fill="url(#h)" fill-rule="nonzero" stroke="#888a85" stroke-linecap="round" stroke-linejoin="round" stroke-miterlimit="4" stroke-width="1"/><path id="ag" transform="matrix(1.2346 0 0 1.2346 -3.7276 -6.7665)" d="m36.239 24.842a14.319 14.319 0 1 1-28.638 0 14.319 14.319 0 1 1 28.638 0z" color="#000000" fill="url(#b)" fill-rule="nonzero" opacity=".57714"/><rect id="ah" x="4.5" y="4.5" width="39" height="37" rx=".97482" ry=".97482" color="#000000" fill="none" opacity=".6" stroke="url(#g)" stroke-linecap="round" stroke-linejoin="round" stroke-miterlimit="4" stroke-width="1"/><path id="ai" d="m6.7175 37.338 7.2488-11.731 6.0337 5.3926 7.961-12.161 8.1336 4.3784 5.0944-16.285" fill="none" stroke="url(#f)" stroke-linejoin="miter" stroke-width="1px"/><path id="aj" d="m6.7175 37.338 7.2363-4.5238 5.9212 3.3338 7.9485-9.2916 8.0622 3.057 5.3033-3.3588" fill="none" stroke="url(#e)" stroke-linejoin="miter" stroke-width="1px"/><path id="ak" transform="matrix(1.2115 0 0 1.2308 -2.6899 -7.5385)" d="m15.375 27.25a1.625 1.625 0 1 1-3.25 0 1.625 1.625 0 1 1 3.25 0z" color="#000000" fill="#204a87" fill-rule="nonzero"/><path id="al" transform="matrix(1.2115 0 0 1.2308 3.3101 -2.5385)" d="m15.375 27.25a1.625 1.625 0 1 1-3.25 0 1.625 1.625 0 1 1 3.25 0z" color="#000000" fill="#204a87" fill-rule="nonzero"/><path id="am" transform="matrix(1.2115 0 0 1.2308 11.373 -14.538)" d="m15.375 27.25a1.625 1.625 0 1 1-3.25 0 1.625 1.625 0 1 1 3.25 0z" color="#000000" fill="#204a87" fill-rule="nonzero"/><path id="an" transform="matrix(1.2115 0 0 1.2308 19.31 -10.538)" d="m15.375 27.25a1.625 1.625 0 1 1-3.25 0 1.625 1.625 0 1 1 3.25 0z" color="#000000" fill="#204a87" fill-rule="nonzero"/><path id="ao" transform="matrix(1.2115 0 0 1.2308 -2.6899 -.53846)" d="m15.375 27.25a1.625 1.625 0 1 1-3.25 0 1.625 1.625 0 1 1 3.25 0z" color="#000000" fill="#c00" fill-rule="nonzero"/><path id="ap" transform="matrix(1.2115 0 0 1.2308 3.3101 2.4615)" d="m15.375 27.25a1.625 1.625 0 1 1-3.25 0 1.625 1.625 0 1 1 3.25 0z" color="#000000" fill="#c00" fill-rule="nonzero"/><path id="aq" transform="matrix(1.2115 0 0 1.2308 11.31 -6.5385)" d="m15.375 27.25a1.625 1.625 0 1 1-3.25 0 1.625 1.625 0 1 1 3.25 0z" color="#000000" fill="#c00" fill-rule="nonzero"/><path id="ar" transform="matrix(1.2115 0 0 1.2308 19.31 -3.5385)" d="m15.375 27.25a1.625 1.625 0 1 1-3.25 0 1.625 1.625 0 1 1 3.25 0z" color="#000000" fill="#c00" fill-rule="nonzero"/></g></svg>
