<?xml version="1.0" encoding="UTF-8"?>
<svg id="p" viewBox="0 0 48 48" xmlns="http://www.w3.org/2000/svg" xmlns:xlink="http://www.w3.org/1999/xlink"><defs id="q"><linearGradient id="a"><stop id="r" offset="0"/><stop id="s" stop-opacity="0" offset="1"/></linearGradient><linearGradient id="o" x1="21" x2="22.125" y1="23.785" y2="27.959" gradientTransform="translate(0 -3)" gradientUnits="userSpaceOnUse"><stop id="t" stop-color="#fef8c1" offset="0"/><stop id="u" stop-color="#edd400" offset="1"/></linearGradient><linearGradient id="m" x1="6.3132" x2="6.8377" y1="27.126" y2="31" gradientUnits="userSpaceOnUse"><stop id="v" offset="0"/><stop id="w" stop-opacity="0" offset="1"/></linearGradient><linearGradient id="l" x1="28.87" x2="29.495" y1="22.478" y2="25.005" gradientUnits="userSpaceOnUse"><stop id="x" stop-color="#edd400" offset="0"/><stop id="y" stop-color="#c4a000" offset="1"/></linearGradient><linearGradient id="n" x1="27.535" x2="27.535" y1="36.908" y2="28.798" gradientUnits="userSpaceOnUse"><stop id="z" stop-color="#c4a000" offset="0"/><stop id="aa" stop-color="#edd400" offset="1"/></linearGradient><linearGradient id="j" x1="39.875" x2="40.168" y1="19.062" y2="21.125" gradientUnits="userSpaceOnUse"><stop id="ab" stop-color="#fff" offset="0"/><stop id="ac" stop-color="#fff" stop-opacity="0" offset="1"/></linearGradient><linearGradient id="i" x1="6.0359" x2="6.6739" y1="25.025" y2="27.933" gradientUnits="userSpaceOnUse"><stop id="ad" stop-color="#fff" offset="0"/><stop id="ae" stop-color="#fff" stop-opacity="0" offset="1"/></linearGradient><linearGradient id="h" x1="37.207" x2="38.323" y1="16.975" y2="20.75" gradientUnits="userSpaceOnUse"><stop id="af" stop-color="#fce94f" offset="0"/><stop id="ag" stop-color="#edd400" offset="1"/></linearGradient><linearGradient id="g" x1="16.357" x2="16.633" y1="23.864" y2="45.104" gradientUnits="userSpaceOnUse"><stop id="ah" stop-color="#fff" offset="0"/><stop id="ai" stop-color="#fff" stop-opacity="0" offset="1"/></linearGradient><linearGradient id="f" x1="33.188" x2="33.25" y1="25.5" y2="30.062" gradientUnits="userSpaceOnUse"><stop id="aj" stop-color="#fce94f" offset="0"/><stop id="ak" stop-color="#fce94f" offset="1"/></linearGradient><linearGradient id="e" x1="39.279" x2="40.482" y1="18.28" y2="22.898" gradientUnits="userSpaceOnUse"><stop id="al" stop-color="#edd400" offset="0"/><stop id="am" stop-color="#c4a000" offset="1"/></linearGradient><linearGradient id="d" x1="24" x2="24" y1="35.625" y2="30.763" gradientUnits="userSpaceOnUse"><stop id="an" stop-color="#fce94f" offset="0"/><stop id="ao" stop-color="#edd400" offset="1"/></linearGradient><linearGradient id="k" x1="20" x2="20" y1="39.5" y2="33.983" gradientUnits="userSpaceOnUse"><stop id="ap" stop-opacity="0" offset="0"/><stop id="aq" offset=".5"/><stop id="ar" stop-opacity="0" offset="1"/></linearGradient><radialGradient id="c" cx="40" cy="36.75" r="3" gradientTransform="matrix(2 0 0 .91667 -40 3.0625)" gradientUnits="userSpaceOnUse" xlink:href="#a"/><radialGradient id="b" cx="40" cy="36.75" r="3" gradientTransform="matrix(-2 0 0 -.91667 88 70.438)" gradientUnits="userSpaceOnUse" xlink:href="#a"/></defs><g id="as"><g id="at" transform="matrix(.98011 0 0 1.3636 .41476 -13.864)" fill-rule="nonzero" opacity=".27451"><rect id="au" x="8" y="34" width="32" height="5.5" color="black" fill="url(#k)" opacity="1"/><path id="av" d="m40 39.5c3.312 0 6-1.232 6-2.75s-2.688-2.75-6-2.75v5.5z" color="black" fill="url(#c)" opacity="1"/><path id="aw" d="m8 34c-3.312 0-6 1.232-6 2.75s2.688 2.75 6 2.75v-5.5z" color="black" fill="url(#b)" opacity="1"/></g><path id="ax" d="m8 13.5-3.5 18.5v5.5h39v-5.5l-3-18.5h-32.5z" color="#000000" fill="url(#f)" fill-rule="evenodd" stroke="url(#n)" stroke-linecap="round" stroke-linejoin="miter" stroke-miterlimit="4" stroke-width="1"/><path id="ay" d="m5.5 31h37.086l-1.2315-9.0038-35.854 7.0038v2z" fill="url(#m)" fill-rule="evenodd" opacity=".18431"/><rect id="az" x="5" y="32" width="38" height="5" color="black" fill="url(#d)" fill-rule="nonzero"/><path id="ba" d="m8.8125 14.5-3.3125 17.5v4.5h37v-4.5l-2.875-17.5h-30.812z" color="black" fill="none" opacity=".53333" stroke="url(#g)" stroke-linecap="round" stroke-linejoin="miter" stroke-miterlimit="4" stroke-width="1"/><path id="bb" d="m8 13.5h32.5c1.2031 9.0312 0.5 9.5-1.5 9.5l-33.672 5 2.6719-14.5z" color="black" fill="url(#h)" fill-rule="evenodd" stroke="url(#e)" stroke-linecap="round" stroke-linejoin="miter" stroke-miterlimit="4" stroke-width="1"/><path id="bc" d="m8.8125 14.5-2.2812 12.312 32.312-4.7812c0.051164-0.014579 0.10342-0.025029 0.15625-0.03125 0.46116 0 0.69768-0.064262 0.75-0.09375s0.11662-0.006636 0.21875-0.46875c0.18136-0.82064 0.022807-3.3649-0.40625-6.9375h-30.75z" color="black" fill="none" opacity=".67059" stroke="url(#j)" stroke-linecap="round" stroke-linejoin="miter" stroke-miterlimit="4" stroke-width="1"/><path id="bd" d="m2.5 26.5 33-16c-1.0382 4.7416 2.1569 13.102 4 12.5l-34.591 6.4041c-1.5 0-2.4091-1.4041-2.4091-2.9041z" color="#000000" fill="url(#o)" fill-rule="evenodd" stroke="url(#l)" stroke-linecap="round" stroke-linejoin="miter" stroke-miterlimit="4" stroke-width="1"/><path id="be" d="m34.469 12.125-30.812 14.938c0.075058 0.3022 0.1272 0.6432 0.28125 0.84375 0.23879 0.31087 0.51883 0.44917 0.90625 0.46875l32.219-5.9688c-0.59573-0.88255-1.1424-2.004-1.5938-3.3125-0.74502-2.16-1.1007-4.6612-1-6.9688z" color="black" fill="none" stroke="url(#i)" stroke-linecap="round" stroke-linejoin="miter" stroke-miterlimit="4" stroke-width="1"/></g></svg>
