<?xml version="1.0" encoding="UTF-8"?>
<svg id="b" viewBox="0 0 48 48" xmlns="http://www.w3.org/2000/svg"><defs id="c"><filter id="a"><feGaussianBlur id="d" stdDeviation="0.32750762"/></filter></defs><g id="e"><g id="f" transform="translate(13.5 -12.749)"><g id="g" transform="translate(-279.5 -307.25)"><path id="h" d="m274.5 333.5h33c1.108 0 2 0.892 2 2v18c0 1.108-0.892 2-2 2l-1.7275 0.0218-3.6771 4.4797-4.2149-4.5015h-23.38c-1.108 0-2-0.892-2-2v-18c0-1.108 0.892-2 2-2z" fill="#000" fill-rule="nonzero" filter="url(#a)" opacity=".33058" stroke="#000" stroke-linejoin="miter" stroke-miterlimit="4" stroke-width="1"/><path id="i" d="m273.5 332.5h33c1.108 0 2 0.892 2 2v18c0 1.108-0.892 2-2 2h-1.5625l-3.5625 4.0625-4.0625-4.0625h-23.812c-1.108 0-2-0.892-2-2v-18c0-1.108 0.892-2 2-2z" fill="#b6cee7" fill-rule="nonzero"/><rect id="j" x="272" y="333" width="9" height="21" fill="#2d69c1" fill-rule="nonzero"/><path id="k" d="m273.5 332.5h33c1.108 0 2 0.892 2 2v8c-21.427-3.4845-34.951 6.5654-37 0v-8c0-1.108 0.892-2 2-2z" fill="#fff" fill-rule="nonzero" opacity=".2438"/><path id="l" d="m273.5 332.5h33c1.108 0 2 0.892 2 2v18c0 1.108-0.892 2-2 2l-1.7275 0.0218-3.6771 4.4797-4.2149-4.5015h-23.38c-1.108 0-2-0.892-2-2v-18c0-1.108 0.892-2 2-2z" fill="none" stroke="#2e3436" stroke-linejoin="miter" stroke-miterlimit="4" stroke-width="1"/><path id="m" d="m273.92 333.5h32.154c1.0481 0 1.4231 0.34326 1.4231 1.3519v17.323c0 1.0086-0.37503 1.3519-1.4231 1.3519l-1.7904 0.01984-3.2596 3.9843-3.7058-4.0041h-23.398c-1.0481 0-1.4231-0.34326-1.4231-1.3519v-17.323c0-1.0086 0.37503-1.3519 1.4231-1.3519z" fill="none" opacity=".28099" stroke="#eeeeec" stroke-linejoin="miter" stroke-miterlimit="4" stroke-width="1"/></g></g></g></svg>
