<?xml version="1.0" encoding="UTF-8"?>
<svg id="g" version="1.0" viewBox="0 0 22 22" xmlns="http://www.w3.org/2000/svg" xmlns:xlink="http://www.w3.org/1999/xlink"><defs id="h"><radialGradient id="c" cx="7.7313" cy="6.9224" r="13.979" gradientTransform="matrix(2.2095 0 -1.8837e-6 1.763 -9.7566 -5.4245)" gradientUnits="userSpaceOnUse"><stop id="i" stop-color="#d3d7cf" offset="0"/><stop id="j" stop-color="#555753" offset="1"/></radialGradient><radialGradient id="b" cx="16.962" cy="23.891" r="14.065" gradientTransform="matrix(2.5711 1.6738e-6 0 2.4613 -24.476 -35.119)" gradientUnits="userSpaceOnUse"><stop id="k" stop-color="#fff" offset="0"/><stop id="l" stop-color="#d3d7cf" offset="1"/></radialGradient><linearGradient id="f" x1="4.4366" x2="1.1052" y1="23.413" y2="9.2732" gradientUnits="userSpaceOnUse"><stop id="m" stop-color="#2e3436" offset="0"/><stop id="n" stop-color="#555753" offset="1"/></linearGradient><linearGradient id="e" x1="6.764" x2="31.357" y1="6.689" y2="40.582" gradientUnits="userSpaceOnUse"><stop id="o" stop-color="#2e3436" offset="0"/><stop id="p" stop-color="#555753" offset="1"/></linearGradient><linearGradient id="d" x1="12.41" x2="13.173" y1="6.9381" y2="14.292" gradientUnits="userSpaceOnUse"><stop id="q" stop-color="#c8cec3" offset="0"/><stop id="r" stop-color="#fff" offset="1"/></linearGradient><radialGradient id="a" cx="15.777" cy="17.937" r="13.479" gradientUnits="userSpaceOnUse"><stop id="s" offset="0"/><stop id="t" stop-opacity=".49804" offset=".73494"/><stop id="u" stop-opacity="0" offset="1"/></radialGradient></defs><g id="v"><path id="w" transform="matrix(.81607 0 0 .81607 -1.8754 -2.888)" d="m29.257 17.018a13.479 13.479 0 1 1-26.958 0 13.479 13.479 0 1 1 26.958 0z" fill="url(#a)"/><path id="x" transform="matrix(.74188 0 0 .74188 -1.2049 -2.1255)" d="m29.257 17.018a13.479 13.479 0 1 1-26.958 0 13.479 13.479 0 1 1 26.958 0z" fill="url(#c)" stroke="url(#f)" stroke-linecap="round" stroke-linejoin="miter" stroke-miterlimit="4" stroke-width="1.3479"/><path id="y" transform="matrix(.59111 0 0 .59351 1.1416 .39961)" d="m29.257 17.018a13.479 13.479 0 1 1-26.958 0 13.479 13.479 0 1 1 26.958 0z" fill="url(#b)" stroke="url(#e)" stroke-linecap="round" stroke-linejoin="miter" stroke-miterlimit="4" stroke-width="1.6883"/><path id="z" transform="matrix(1.9649 0 0 1.6232 -17.009 -6.9493)" d="m17.562 10.75a3.5625 4.3125 0 1 1-7.125 0 3.5625 4.3125 0 1 1 7.125 0z" fill="none" stroke="url(#d)" stroke-linecap="round" stroke-linejoin="miter" stroke-miterlimit="4" stroke-width=".55994"/><path id="aa" d="M 16,6 L 10.4375,10.625 L 8,9 L 9.65625,11.5 L 8,14 L 10.46875,12.34375 L 14,15 L 11.40625,11.53125 L 16,6 z " fill="#000" fill-rule="evenodd" opacity=".2"/><path id="ab" d="m10 10 5.9898-5.013-4.9898 6.013-3 2 2-3z" fill="#000" fill-rule="evenodd"/><path id="ac" d="m10 11 4.0061 3.0065-3.0061-4.0065-3-2 2 3z" fill="#000" fill-rule="evenodd"/><rect id="ad" x="10" y="10" width="1" height="1" fill="#fff"/></g></svg>
