<?xml version="1.0" encoding="UTF-8"?>
<svg id="e" version="1.0" viewBox="0 0 48 48" xmlns="http://www.w3.org/2000/svg" xmlns:xlink="http://www.w3.org/1999/xlink"><defs id="f"><linearGradient id="a"><stop id="g" offset="0"/><stop id="h" stop-opacity="0" offset="1"/></linearGradient><radialGradient id="b" cx="11.29" cy="27.58" r="8.0508" gradientTransform="matrix(1 -5.1282e-8 1.361e-8 .75174 -3.7537e-7 1.6938)" gradientUnits="userSpaceOnUse" xlink:href="#a"/><radialGradient id="c" cx="11.29" cy="30.204" r="10.938" gradientTransform="matrix(1 -3.2076e-8 2.4032e-8 .55329 -5.7256e-7 5.7154)" gradientUnits="userSpaceOnUse" xlink:href="#a"/><filter id="d" x="-.1201" y="-.64533" width="1.2402" height="2.2907" color-interpolation-filters="sRGB"><feGaussianBlur id="i" stdDeviation="0.69743089"/></filter></defs><g id="j"><rect id="k" transform="matrix(1.9466 0 0 1.1566 3.0218 21.06)" x="4.0312" y="18.969" width="13.938" height="2.5938" rx=".44989" ry=".63501" fill="url(#c)" filter="url(#d)" opacity=".734" stroke="url(#b)" stroke-linecap="round" stroke-linejoin="miter" stroke-miterlimit="4" stroke-width="1"/><path id="l" d="m37.757 11.747s5.1406 5.0353 5.157 12.721c0.01653 7.7518-5.3553 12.986-5.3553 12.986" fill="none" opacity=".19444" stroke="#fff" stroke-linecap="round" stroke-linejoin="miter" stroke-width="1px"/><path id="m" d="m30.616 16.915s3.6866 2.5011 3.6363 7.6855c-0.04959 5.1182-3.6363 7.288-3.6363 7.288" fill="none" opacity=".18981" stroke="#fff" stroke-linecap="round" stroke-linejoin="miter" stroke-width="1px"/><path id="n" d="m3.0334 11.648 21.638 12.77-21.654 12.78 0.016575-25.55z" fill="#87a556" fill-rule="evenodd" stroke="#5a6943" stroke-linejoin="miter" stroke-width="1px"/><path id="o" d="m4.0419 13.453 18.523 10.968-18.537 10.891 0.014186-21.858z" fill="none" opacity=".18056" stroke="#eeeeec" stroke-linejoin="miter" stroke-width="1px"/><path id="p" d="m38.154 11.237s5.4271 5.4639 5.4271 13.249c0 7.8509-5.4271 13.182-5.4271 13.182" fill="none" opacity=".32407" stroke="#fff" stroke-linecap="round" stroke-linejoin="miter" stroke-width="1px"/><path id="q" d="m33.305 17.049s2.7797 2.8784 2.7797 7.2205c0 4.2759-2.515 7.2205-2.515 7.2205" fill="none" opacity=".32407" stroke="#fff" stroke-linecap="round" stroke-linejoin="miter" stroke-width="1px"/><path id="r" d="m44.983 24.546c0-11.316-9.17-20.5-20.469-20.5-6.5242 0-12.313 3.0771-16.062 7.8438l2.5625 1.625c3.1985-3.9148 8.0855-6.4062 13.531-6.4062 9.6255-1e-7 17.438 7.812 17.438 17.438s-7.812 17.438-17.438 17.438c-5.43 0-10.301-2.4797-13.5-6.375l-2.5625 1.625c3.7499 4.7469 9.5228 7.8125 16.031 7.8125 11.299 0 20.469-9.184 20.469-20.5z" fill="#87a556" stroke="#5a6943" stroke-linecap="round" stroke-linejoin="round" stroke-miterlimit="4" stroke-width="1"/><path id="s" d="m37.046 24.577c0-6.9172-5.614-12.531-12.531-12.531-3.6828 0-6.9878 1.5929-9.2812 4.125l2.6562 1.6562c1.7085-1.6874 4.0442-2.7188 6.625-2.7188 5.2267 0 9.4688 4.27 9.4688 9.5312 0 5.2613-4.242 9.5312-9.4688 9.5312-2.6289 1e-6 -5.0025-1.0693-6.7188-2.8125l-2.5625 1.625c2.2934 2.5321 5.5985 4.125 9.2812 4.125 6.9172 0 12.531-5.614 12.531-12.531z" fill="#87a556" stroke="#5a6943" stroke-linecap="round" stroke-linejoin="round" stroke-miterlimit="4" stroke-width="1"/><path id="t" d="m10.045 37.421c3.5605 4.0718 8.3265 6.5625 14.453 6.5625 10.721 0 19.422-8.722 19.422-19.469 0-10.747-8.7012-19.469-19.422-19.469-6.1579 0-10.831 2.5142-14.453 6.6875" fill="none" opacity=".33333" stroke="#eeeeec" stroke-linecap="round" stroke-linejoin="round" stroke-miterlimit="4" stroke-width="1"/><path id="u" d="m16.827 33.202c2.1644 1.8985 4.3312 2.8437 7.625 2.8438 6.3652 0 11.531-5.152 11.531-11.5s-5.166-11.5-11.531-11.5c-3.3097 0-5.5527 1.2078-7.6562 3.125" fill="none" opacity=".33333" stroke="#eeeeec" stroke-linecap="round" stroke-linejoin="round" stroke-miterlimit="4" stroke-width="1"/></g></svg>
