<?xml version="1.0" encoding="UTF-8"?>
<svg id="j" version="1.0" viewBox="0 0 96 96" xmlns="http://www.w3.org/2000/svg" xmlns:xlink="http://www.w3.org/1999/xlink"><defs id="k"><linearGradient id="i" x1="45.448" x2="45.448" y1="92.54" y2="7.0165" gradientTransform="scale(1.0059 .99417)" gradientUnits="userSpaceOnUse"><stop id="l" offset="0"/><stop id="m" stop-opacity=".58824" offset="1"/></linearGradient><linearGradient id="a"><stop id="n" stop-color="#fff" offset="0"/><stop id="o" stop-color="#fff" stop-opacity="0" offset="1"/></linearGradient><filter id="g" color-interpolation-filters="sRGB"><feGaussianBlur id="p" stdDeviation="1.71"/></filter><linearGradient id="e" x1="36.357" x2="36.357" y1="6" y2="81.385" gradientUnits="userSpaceOnUse" xlink:href="#a"/><filter id="f" x="-.192" y="-.192" width="1.384" height="1.384" color-interpolation-filters="sRGB"><feGaussianBlur id="q" stdDeviation="5.28"/></filter><linearGradient id="d" x1="48" x2="48" y1="20.221" y2="138.66" gradientUnits="userSpaceOnUse" xlink:href="#a"/><radialGradient id="b" cx="48" cy="90.172" r="42" gradientTransform="matrix(.20589 -.22253 .39767 .36793 2.2589 67.505)" gradientUnits="userSpaceOnUse" xlink:href="#a"/><clipPath id="h"><rect id="r" x="6" y="6" width="84" height="84" rx="6" ry="6" fill="#fff"/></clipPath><linearGradient id="c" x1="48" x2="48" y1="90" y2="69.445" gradientUnits="userSpaceOnUse"><stop id="s" stop-color="#57c412" offset="0"/><stop id="t" stop-color="#92d74e" offset="1"/></linearGradient></defs><g id="u"><rect id="v" x="5" y="7" width="86" height="85" rx="6" ry="6" fill="url(#i)" filter="url(#g)" opacity=".9"/></g><g id="w"><rect id="x" x="6" y="6" width="84" height="84" rx="6" ry="6" fill="url(#c)"/><path id="y" d="m12 6c-3.324 0-6 2.676-6 6v2 68 2c0 0.33472 0.04135 0.6507 0.09375 0.96875 0.0487 0.2956 0.09704 0.59692 0.1875 0.875 0.00988 0.03038 0.020892 0.0636 0.03125 0.09375 0.098865 0.28777 0.23488 0.54745 0.375 0.8125 0.14459 0.27351 0.31562 0.53562 0.5 0.78125s0.37378 0.47347 0.59375 0.6875c0.43995 0.42806 0.94291 0.81453 1.5 1.0938 0.27854 0.13961 0.57347 0.24695 0.875 0.34375-0.2562-0.10022-0.48671-0.23627-0.71875-0.375-0.00741-0.0044-0.023866 0.0045-0.03125 0-0.031933-0.0193-0.062293-0.04251-0.09375-0.0625-0.1204-0.0767-0.23102-0.16351-0.34375-0.25-0.10617-0.0808-0.21328-0.16111-0.3125-0.25-0.17793-0.16143-0.34746-0.34539-0.5-0.53125-0.10758-0.13026-0.21839-0.26528-0.3125-0.40625-0.025089-0.03838-0.038446-0.08587-0.0625-0.125-0.064763-0.10303-0.13023-0.20452-0.1875-0.3125-0.10101-0.19471-0.20567-0.4157-0.28125-0.625-0.00796-0.02181-0.023589-0.04055-0.03125-0.0625-0.031825-0.09195-0.035804-0.18683-0.0625-0.28125-0.030332-0.10662-0.070389-0.20303-0.09375-0.3125-0.072879-0.34151-0.125-0.6982-0.125-1.0625v-2-68-2c0-2.7818 2.2182-5 5-5h2 68 2c2.7818 0 5 2.2182 5 5v2 68 2c0 0.3643-0.05212 0.72099-0.125 1.0625-0.04415 0.20689-0.08838 0.39766-0.15625 0.59375-0.0077 0.02195-0.0233 0.04069-0.03125 0.0625-0.06274 0.17374-0.13838 0.36745-0.21875 0.53125-0.04158 0.0828-0.07904 0.16995-0.125 0.25-0.0546 0.09721-0.12677 0.18835-0.1875 0.28125-0.09411 0.14096-0.20492 0.276-0.3125 0.40625-0.14317 0.17445-0.30314 0.347-0.46875 0.5-0.01117 0.0102-0.01998 0.02115-0.03125 0.03125-0.13839 0.12556-0.28509 0.23444-0.4375 0.34375-0.10257 0.07315-0.20432 0.15336-0.3125 0.21875-0.0074 0.0045-0.02384-0.0044-0.03125 0-0.23204 0.13873-0.46255 0.27478-0.71875 0.375 0.30153-0.0968 0.59646-0.20414 0.875-0.34375 0.55709-0.27922 1.0601-0.66569 1.5-1.0938 0.21997-0.21403 0.40937-0.44186 0.59375-0.6875s0.35541-0.50774 0.5-0.78125c0.14012-0.26505 0.27614-0.52473 0.375-0.8125 0.01041-0.03078 0.02133-0.06274 0.03125-0.09375 0.09046-0.27808 0.1388-0.5794 0.1875-0.875 0.0524-0.31805 0.09375-0.63403 0.09375-0.96875v-2-68-2c0-3.324-2.676-6-6-6h-72z" fill="url(#e)" opacity=".45"/><path id="z" d="m12 90c-3.324 0-6-2.676-6-6v-2-68-2c0-0.33472 0.04135-0.6507 0.09375-0.96875 0.0487-0.2956 0.09704-0.59692 0.1875-0.875 0.00988-0.03038 0.020892-0.0636 0.03125-0.09375 0.098865-0.28777 0.23488-0.54745 0.375-0.8125 0.14459-0.27351 0.31562-0.53562 0.5-0.78125s0.37378-0.47347 0.59375-0.6875c0.43995-0.42806 0.94291-0.81453 1.5-1.0938 0.27854-0.13961 0.57347-0.24695 0.875-0.34375-0.2562 0.10022-0.48671 0.23627-0.71875 0.375-0.00741 0.0044-0.023866-0.0045-0.03125 0-0.031933 0.0193-0.062293 0.04251-0.09375 0.0625-0.1204 0.0767-0.23102 0.16351-0.34375 0.25-0.10617 0.0808-0.21328 0.16111-0.3125 0.25-0.17793 0.16143-0.34746 0.34539-0.5 0.53125-0.10758 0.13026-0.21839 0.26528-0.3125 0.40625-0.025089 0.03838-0.038446 0.08587-0.0625 0.125-0.064763 0.10303-0.13023 0.20452-0.1875 0.3125-0.10101 0.19471-0.20567 0.4157-0.28125 0.625-0.00796 0.02181-0.023589 0.04055-0.03125 0.0625-0.031825 0.09195-0.035804 0.18683-0.0625 0.28125-0.030332 0.10662-0.070389 0.20303-0.09375 0.3125-0.072879 0.34151-0.125 0.6982-0.125 1.0625v2 68 2c0 2.7818 2.2182 5 5 5h2 68 2c2.7818 0 5-2.2182 5-5v-2-68-2c0-0.3643-0.05212-0.72099-0.125-1.0625-0.04415-0.20689-0.08838-0.39766-0.15625-0.59375-0.0077-0.02195-0.0233-0.04069-0.03125-0.0625-0.06274-0.17374-0.13838-0.36745-0.21875-0.53125-0.04158-0.0828-0.07904-0.16995-0.125-0.25-0.0546-0.09721-0.12677-0.18835-0.1875-0.28125-0.09411-0.14096-0.20492-0.276-0.3125-0.40625-0.14317-0.17445-0.30314-0.347-0.46875-0.5-0.01117-0.0102-0.01998-0.02115-0.03125-0.03125-0.13839-0.12556-0.28509-0.23444-0.4375-0.34375-0.10257-0.07315-0.20432-0.15336-0.3125-0.21875-0.0074-0.0045-0.02384 0.0044-0.03125 0-0.23204-0.13873-0.46255-0.27478-0.71875-0.375 0.30153 0.0968 0.59646 0.20414 0.875 0.34375 0.55709 0.27922 1.0601 0.66569 1.5 1.0938 0.21997 0.21403 0.40937 0.44186 0.59375 0.6875s0.35541 0.50774 0.5 0.78125c0.14012 0.26505 0.27614 0.52473 0.375 0.8125 0.01041 0.03078 0.02133 0.06274 0.03125 0.09375 0.09046 0.27808 0.1388 0.5794 0.1875 0.875 0.0524 0.31805 0.09375 0.63403 0.09375 0.96875v2 68 2c0 3.324-2.676 6-6 6h-72z" fill="url(#b)" opacity=".2"/></g><g id="aa"><rect id="ab" x="15" y="15" width="66" height="66" rx="33" ry="12" clip-path="url(#h)" fill="url(#d)" filter="url(#f)" opacity=".1" stroke="#fff" stroke-linecap="round" stroke-width=".5"/></g><g id="ac" transform="matrix(1.587 0 0 1.587 11.324 8.0318)" fill="#cfa"><path id="ad" d="m3.0334 11.648 21.638 12.77-21.654 12.78 0.016575-25.55z" fill-rule="evenodd" stroke="#fffdff"/><path id="ae" d="m4.0419 13.453 18.523 10.968-18.537 10.891 0.014186-21.858z" opacity=".18056" stroke="#eeeeec"/><path id="af" d="m44.983 24.546c0-11.316-9.17-20.5-20.469-20.5-6.5242 0-12.313 3.0771-16.062 7.8438l2.5625 1.625c3.1985-3.9148 8.0855-6.4062 13.531-6.4062 9.6255-1e-7 17.438 7.812 17.438 17.438s-7.812 17.438-17.438 17.438c-5.43 0-10.301-2.4797-13.5-6.375l-2.5625 1.625c3.7499 4.7469 9.5228 7.8125 16.031 7.8125 11.299 0 20.469-9.184 20.469-20.5z" stroke="#fff" stroke-linecap="round" stroke-linejoin="round"/><path id="ag" d="m37.046 24.577c0-6.9172-5.614-12.531-12.531-12.531-3.6828 0-6.9878 1.5929-9.2812 4.125l2.6562 1.6562c1.7085-1.6874 4.0442-2.7188 6.625-2.7188 5.2267 0 9.4688 4.27 9.4688 9.5312 0 5.2613-4.242 9.5312-9.4688 9.5312-2.6289 1e-6 -5.0025-1.0693-6.7188-2.8125l-2.5625 1.625c2.2934 2.5321 5.5985 4.125 9.2812 4.125 6.9172 0 12.531-5.614 12.531-12.531z" stroke="#fffdff" stroke-linecap="round" stroke-linejoin="round"/></g></svg>
