<?xml version="1.0" encoding="UTF-8"?>
<svg id="f" viewBox="0 0 32 32" xmlns="http://www.w3.org/2000/svg" xmlns:xlink="http://www.w3.org/1999/xlink"><defs id="g"><filter id="e" x="-.21688" y="-.10843" width="1.4338" height="1.2169"><feGaussianBlur id="h" stdDeviation="0.99401352"/></filter><linearGradient id="b" x1="-230.11" x2="-229.75" y1="54" y2="-2" gradientTransform="translate(0,39)" gradientUnits="userSpaceOnUse"><stop id="i" stop-color="#cfcfcf" offset="0"/><stop id="j" stop-color="#8e8e92" offset=".46295"/><stop id="k" stop-color="#f5f5f5" offset="1"/></linearGradient><filter id="d"><feGaussianBlur id="l" stdDeviation="0.7"/></filter><linearGradient id="a" x1="119.74" x2="111.59" y1="17.316" y2="12.927" gradientTransform="matrix(.70002 0 0 .70002 -65.177 5.3745)" gradientUnits="userSpaceOnUse"><stop id="m" stop-color="#414141" offset="0"/><stop id="n" offset="1"/></linearGradient><filter id="c" x="-.24" y="-.24" width="1.48" height="1.48"><feGaussianBlur id="o" stdDeviation="0.66262488"/></filter></defs><g id="p" fill-rule="evenodd"><path id="q" d="m16 2c-7.728 0-14 6.272-14 14 0 7.728 6.272 14 14 14 7.728 0 14-6.272 14-14 0-7.728-6.272-14-14-14zm0 1c7.176 2e-6 13 5.824 13 13 0 7.176-5.824 13-13 13-7.176 0-13-5.824-13-13s5.824-13 13-13z" enable-background="accumulate" fill="#000" filter="url(#d)" opacity=".4"/><path id="r" transform="matrix(.5 0 0 .5 129.5 -16.5)" d="m-199 65a28 28 0 1 1-56 0 28 28 0 1 1 56 0z" enable-background="accumulate" fill="url(#b)"/><path id="s" d="m16 2c-7.728 0-14 6.272-14 14 0 7.728 6.272 14 14 14 7.728 0 14-6.272 14-14 0-7.728-6.272-14-14-14zm0 1c7.176 2e-6 13 5.824 13 13 0 7.176-5.824 13-13 13-7.176 0-13-5.824-13-13s5.824-13 13-13z" enable-background="accumulate" fill="#000" opacity=".23"/><path id="t" d="m16 3c-7.176 0-13 5.824-13 13 0 0.16701 0.025 0.33451 0.03125 0.5 0.26241-6.9452 5.9598-12.5 12.969-12.5 7.009 2e-6 12.706 5.5548 12.969 12.5 0.006253-0.16549 0.03125-0.33299 0.03125-0.5 0-7.176-5.824-13-13-13z" enable-background="accumulate" fill="#fff" fill-opacity=".53731"/><path id="u" d="m16 29c-7.176 0-13-5.824-13-13 0-0.16701 0.025-0.33451 0.03125-0.5 0.26241 6.9452 5.9598 12.5 12.969 12.5 7.009-2e-6 12.706-5.5548 12.969-12.5 0.006253 0.16549 0.03125 0.33299 0.03125 0.5 0 7.176-5.824 13-13 13z" enable-background="accumulate" fill="#fff" fill-opacity=".34199"/><path id="v" transform="matrix(.70002 0 0 .70002 92.327 5.3745)" d="m-109 4c-1.656 0-3 1.344-3 3 0 0.053877-0.00281 0.10307 0 0.15625-0.00255 0.053302 0 0.10232 0 0.15625 0 1.8285 1.484 3.3125 3.3125 3.3125s3.3125-1.484 3.3125-3.3125c0-1.8285-1.484-3.3125-3.3125-3.3125-0.05393 0-0.10295-0.0025527-0.15625 0-0.05318-0.0028096-0.10237 0-0.15625 0z" enable-background="accumulate" fill="#fff" filter="url(#c)"/><path id="w" transform="matrix(.70002 0 0 .70002 92.327 5.3745)" d="m-114 12v2 0.5c3e-5 0.27613 0.22387 0.49997 0.5 0.5h1.5v8h-2v2 0.5c3e-5 0.27613 0.22387 0.49997 0.5 0.5h10c0.27613-2.8e-5 0.49997-0.22387 0.5-0.5v-2c-3e-5 -0.27613-0.22387-0.49997-0.5-0.5h-0.5-1v-8.5-2c-3e-5 -0.27613-0.22387-0.49997-0.5-0.5h-0.5-8z" enable-background="accumulate" fill="#fff" filter="url(#e)" opacity=".67347"/><path id="x" d="m12.809 13.775c-0.16733 0.031929-0.28739 0.17968-0.28438 0.35001v1.4c2.1e-5 0.1933 0.15671 0.34999 0.35001 0.35001h1.05v5.6002h-1.05c-0.1933 2e-5 -0.34999 0.15671-0.35001 0.35001v1.4c2.1e-5 0.1933 0.15671 0.34999 0.35001 0.35001h7.0002c0.1933-2e-5 0.34999-0.15671 0.35001-0.35001v-1.4c-2.1e-5 -0.1933-0.15671-0.34999-0.35001-0.35001h-1.05v-5.9502-1.4c-2.2e-5 -0.1933-0.15671-0.34999-0.35001-0.35001h-5.6001c-0.021827-0.002055-0.043801-0.002055-0.065627 0z" enable-background="accumulate" fill="#fff" opacity=".15"/><path id="y" d="m12.525 13.775v1.4h1.4v6.3002h-1.4v1.4h7.0002v-1.4h-1.4v-6.3002-1.4h-5.6002z" enable-background="accumulate" fill="url(#a)"/><path id="z" d="m13.225 14.497h4.9001v1.05 6.3002c2.1e-5 0.1933 0.15671 0.34999 0.35001 0.35001h1.05v0.70002h-6.3002v-0.70002h1.05c0.1933-1.9e-5 0.34999-0.15671 0.35001-0.35001v-6.3002c-2.1e-5 -0.1933-0.15671-0.34999-0.35001-0.35001h-1.05v-0.70002z" enable-background="accumulate" fill="#606060" opacity=".56735"/><path id="aa" transform="matrix(.66252 0 0 .66252 -60.94 5.5245)" d="m120 7.5a3.5 3.5 0 1 1-7 0 3.5 3.5 0 1 1 7 0z" enable-background="accumulate" fill="#fff" opacity=".43"/><path id="ab" d="m16.025 8.1746c-1.1592 0-2.1001 0.94083-2.1001 2.1001 0 1.1592 0.94082 2.1001 2.1001 2.1001s2.1001-0.94082 2.1001-2.1001c0-1.1592-0.94082-2.1001-2.1001-2.1001z" enable-background="accumulate" fill="#000"/><path id="ac" d="m16.194 8.6818c-0.99789 0-1.8078 0.80988-1.8078 1.8078 0 0.99789 0.80988 1.8078 1.8078 1.8078 0.99788 0 1.8078-0.80988 1.8078-1.8078 0-0.99789-0.80988-1.8078-1.8078-1.8078z" enable-background="accumulate" fill="#606060" opacity=".56735"/></g></svg>
