<?xml version="1.0" encoding="UTF-8"?>
<svg id="aa" version="1.0" viewBox="0 0 48 48" xmlns="http://www.w3.org/2000/svg" xmlns:xlink="http://www.w3.org/1999/xlink"><defs id="ab"><radialGradient id="b" cx="-85.084" cy="17.586" r="54.486" gradientTransform="matrix(1.5006 0 0 1.4763 42.595 -7.6274)" gradientUnits="userSpaceOnUse"><stop id="ac" stop-color="#fff" offset="0"/><stop id="ad" stop-color="#fff" stop-opacity="0" offset="1"/></radialGradient><filter id="x"><feGaussianBlur id="ae" stdDeviation="0.32286021"/></filter><filter id="z"><feGaussianBlur id="af" stdDeviation="0.26293105"/></filter><linearGradient id="a"><stop id="ag" stop-color="#fff" offset="0"/><stop id="ah" stop-color="#d3d7cf" offset="1"/></linearGradient><linearGradient id="w"><stop id="ai" stop-color="#edd400" offset="0"/><stop id="aj" stop-color="#edd400" stop-opacity="0" offset="1"/></linearGradient><filter id="y"><feGaussianBlur id="ak" stdDeviation="0.78208031"/></filter><radialGradient id="c" cx="14.363" cy="34.786" r="8.7946" gradientTransform="matrix(1 0 0 .68844 0 10.838)" gradientUnits="userSpaceOnUse"><stop id="al" offset="0"/><stop id="am" stop-opacity="0" offset="1"/></radialGradient><linearGradient id="v" x1="-7.9751" x2="-11.006" y1="25.357" y2="-6.5684" gradientTransform="matrix(2 0 0 1.9333 43.5 .53333)" gradientUnits="userSpaceOnUse"><stop id="an" stop-color="#d3d7cf" offset="0"/><stop id="ao" stop-color="#fff" offset="1"/></linearGradient><linearGradient id="u" x1="-7.8517" x2="-5.5099" y1="3.7546" y2="18.938" gradientUnits="userSpaceOnUse"><stop id="ap" stop-color="#fff" offset="0"/><stop id="aq" stop-color="#fff" stop-opacity="0" offset="1"/></linearGradient><linearGradient id="t" x1="28.625" x2="30.5" y1="41.125" y2="47.812" gradientUnits="userSpaceOnUse"><stop id="ar" offset="0"/><stop id="as" stop-opacity="0" offset="1"/></linearGradient><linearGradient id="s" x1="1.6256" x2=".82207" y1="55.219" y2="54.416" gradientUnits="userSpaceOnUse"><stop id="at" stop-color="#adb0a8" offset="0"/><stop id="au" stop-color="#fff" offset="1"/></linearGradient><linearGradient id="r" x1="-4.2209" x2="-4.2209" y1="59.879" y2="54.708" gradientTransform="matrix(.96429 0 0 .97222 -.25 1.6944)" gradientUnits="userSpaceOnUse" xlink:href="#a"/><linearGradient id="q" x1="-1.9887" x2="-3.3588" y1="51.138" y2="54" gradientTransform="translate(-4 -24)" gradientUnits="userSpaceOnUse"><stop id="av" offset="0"/><stop id="aw" stop-opacity="0" offset="1"/></linearGradient><linearGradient id="p" x1="-4.6846" x2=".88388" y1="52.64" y2="50.563" gradientTransform="translate(-4 -24)" gradientUnits="userSpaceOnUse"><stop id="ax" stop-color="#eeeeec" offset="0"/><stop id="ay" stop-color="#babdb6" offset="1"/></linearGradient><linearGradient id="o" x1="-5.0823" x2=".26517" y1="50.519" y2="49.458" gradientTransform="translate(-4 -24)" gradientUnits="userSpaceOnUse"><stop id="az" stop-color="#eeeeec" offset="0"/><stop id="ba" stop-color="#fff" offset="1"/></linearGradient><linearGradient id="n" x1="-5.9688" x2="-5.9688" y1="52.875" y2="51.812" gradientTransform="translate(-4 -24)" gradientUnits="userSpaceOnUse"><stop id="bb" stop-color="#888a85" offset="0"/><stop id="bc" stop-color="#fff" offset="1"/></linearGradient><linearGradient id="m" x1="-3.5355" x2="-3.5355" y1="55.867" y2="59.445" gradientTransform="matrix(1 0 0 1.0286 -4 -25.143)" gradientUnits="userSpaceOnUse"><stop id="bd" stop-color="#555753" offset="0"/><stop id="be" stop-color="#d3d7cf" offset="1"/></linearGradient><linearGradient id="l" x1="32.812" x2="32.812" y1="21" y2="26.205" gradientTransform="matrix(1.0875 0 0 1.0864 -1.581 -12.943)" gradientUnits="userSpaceOnUse"><stop id="bf" stop-color="#2e3436" offset="0"/><stop id="bg" stop-color="#555753" offset="1"/></linearGradient><linearGradient id="k" x1="28.875" x2="29" y1="29" y2="16" gradientTransform="translate(1 -11)" gradientUnits="userSpaceOnUse"><stop id="bh" stop-color="#fff" offset="0"/><stop id="bi" stop-color="#fff" stop-opacity="0" offset="1"/></linearGradient><linearGradient id="j" x1="30.312" x2="30.312" y1="27.313" y2="24.688" gradientUnits="userSpaceOnUse" xlink:href="#w"/><linearGradient id="i" x1="37.625" x2="38.875" y1="40.312" y2="45.062" gradientUnits="userSpaceOnUse"><stop id="bj" stop-color="#729fcf" offset="0"/><stop id="bk" stop-color="#729fcf" stop-opacity="0" offset="1"/></linearGradient><linearGradient id="h" x1="38.75" x2="40.125" y1="40.625" y2="46.562" gradientUnits="userSpaceOnUse"><stop id="bl" stop-color="#3465a4" offset="0"/><stop id="bm" stop-color="#3465a4" stop-opacity="0" offset="1"/></linearGradient><linearGradient id="g" x1="41.188" x2="42.124" y1="38.312" y2="42.938" gradientUnits="userSpaceOnUse"><stop id="bn" stop-color="#fff" offset="0"/><stop id="bo" stop-color="#fff" stop-opacity="0" offset="1"/></linearGradient><linearGradient id="f" x1="-4.1098" x2="-4.1098" y1="58.808" y2="55" gradientTransform="matrix(1.125 0 0 1.1667 15.875 -34.135)" gradientUnits="userSpaceOnUse" xlink:href="#a"/><linearGradient id="e" x1="-6.4062" x2="-7.7812" y1="32.438" y2="34.562" gradientUnits="userSpaceOnUse"><stop id="bp" offset="0"/><stop id="bq" stop-opacity="0" offset="1"/></linearGradient><linearGradient id="d" x1="31.622" x2="31.622" y1="21.205" y2="27.583" gradientUnits="userSpaceOnUse"><stop id="br" stop-color="#d3d7cf" offset="0"/><stop id="bs" stop-color="#f8f9f7" offset="1"/></linearGradient></defs><g id="bt" transform="translate(-296.06 -39.996)"><g id="bu" transform="matrix(1.888 0 0 1.888 22.132 26.176)"><path id="bv" transform="translate(143.27)" d="m154.31 9.875c-0.55388 0.011051-1.123 0.20912-1.5 0.59375l-9.5938 9.8438c1.7e-4 0.010416 1.7e-4 0.020834 0 0.03125-0.81937 0.81917-0.87378 1.2259-0.875 1.2188-6.1e-4 -0.003596-3.1e-4 0.012669 0.09375 0.09375s0.28917 0.199 0.5625 0.3125c0.54666 0.22701 1.3596 0.43113 2.1875 0.65625s1.6509 0.447 2.375 0.90625c0.01042-1.7e-4 0.02083-1.7e-4 0.03125 0 0.14632 0.095256 0.3094 0.24763 0.4375 0.46875s0.17634 0.52726 0.125 0.78125c-0.10267 0.50797-0.39558 0.6927-0.59375 0.84375-0.39634 0.3021-0.78319 0.4915-1.1875 0.6875-0.02769 0.013422-0.03508 0.01772-0.0625 0.03125 0.72617 0.33865 1.5582 0.74676 2.0312 0.875 0.73632 0.19963 1.1481 0.21296 1.6875 0.375 0.26968 0.08102 0.65753 0.2812 0.875 0.65625s0.20674 0.71638 0.1875 1.0312c-0.02817 0.46103-0.17098 1.2054-0.3125 1.9688 0.19107 0.052991 0.35826 0.091136 0.90625 0.21875 0.3876 0.090263 0.83118 0.2326 1.25 0.59375s0.72715 0.94095 0.84375 1.5938c-0.00111-0.006269-0.12577-0.11177 0.03125-0.0625s0.53281 0.093704 0.96875 0.03125c0.59169-0.084767 1.1565-0.43077 1.7188-0.71875-0.07362-0.065471-0.1093-0.058167-0.1875-0.15625-0.1685-0.21133-0.33441-0.57352-0.28125-0.9375s0.24795-0.61773 0.4375-0.8125c-1.7e-4 -0.010416-1.7e-4 -0.020834 0-0.03125 1.2086-1.2217 2.5072-1.5368 3.3125-1.75 0.40266-0.10659 0.65665-0.21413 0.8125-0.3125 0.07793-0.049185 0.12686-0.17401 0.1875-0.25-0.17-0.12226-0.39297-0.27451-0.6875-0.4375-0.36037-0.19943-0.7288-0.38124-1.0938-0.71875-0.18247-0.16876-0.43513-0.42443-0.46875-0.90625s0.29358-0.90358 0.5625-1.0938c0.76525-0.53866 1.7536-0.88366 2.8125-1.25s2.1921-0.71895 3.0625-1.125 1.3983-0.89043 1.5-1.125c0.05084-0.11729 0.0691-0.17392 0-0.375s-0.27182-0.52192-0.6875-0.9375c-1.7e-4 -0.010416-1.7e-4 -0.020834 0-0.03125l-10-10.25c-0.43414-0.40946-0.91526-0.54229-1.4688-0.53125z" fill="none" filter="url(#x)" stroke="url(#b)" stroke-miterlimit="4" stroke-width=".52965" xlink:href="#use7633"/></g><g id="bw" transform="translate(296.07 39.042)"><path id="bx" d="m5 12h3 2-3-2z" fill="#fff" fill-rule="evenodd"/><path id="by" transform="matrix(1.156 0 0 1.1168 -1.4892 -5.8126)" d="m23.158 34.786a8.7946 6.0546 0 1 1-17.589 0 8.7946 6.0546 0 1 1 17.589 0z" fill="url(#c)" fill-rule="evenodd" opacity=".45896"/><rect id="bz" transform="matrix(1.0156 0 0 1.0156 -.49023 -.27148)" x="15.375" y="2.875" width="32" height="29" rx="3.7226" ry="3.7226" fill="#000" fill-rule="evenodd" filter="url(#z)" opacity=".12048"/><rect id="ca" x="14.5" y="1.5" width="32" height="29" rx="2.8766" ry="2.7807" fill="url(#v)" fill-rule="evenodd" stroke="#888a85" stroke-dashoffset=".7" stroke-linecap="round" stroke-linejoin="round" stroke-miterlimit="4" stroke-opacity=".99237" stroke-width="1"/><rect id="cb" x="17.747" y="20.521" width="25.625" height="7" rx=".75" ry=".75" fill="#fff" fill-rule="evenodd" stroke="url(#d)" stroke-dashoffset="0pt" stroke-linejoin="miter" stroke-miterlimit="4" stroke-width="1"/><path id="cc" transform="matrix(2.1429 0 0 2.0868 44.429 -.63017)" d="m-12.5 1.5c-0.57295 0-1 0.42705-1 1v11c0 0.57295 0.42705 1 1 1h12c0.57295 0 1-0.42705 1-1v-11c0-0.57295-0.42705-1-1-1h-12z" fill="none" stroke="url(#u)" stroke-dashoffset=".7" stroke-linecap="round" stroke-linejoin="round" stroke-miterlimit="4" stroke-opacity=".99237" stroke-width=".4729"/><path id="cd" transform="translate(.25 -.625)" d="m14.688 31c-0.068323 0.017916-0.13217 0.049841-0.1875 0.09375 0 0-4.3048 3.3222-8.2188 6.5625-1.9649 1.6267-3.765 3.2573-4.8438 4.9062-0.52283 0.79919-1.1031 1.8424-0.71875 3.1875 0.20879 0.73077 0.73617 1.3597 1.3438 1.7188 0.55423 0.3275 1.1049 0.46403 1.6875 0.53125 2.2712 0.26206 4.9083-0.39069 8.0312-1.2812 3.1303-0.89265 6.7033-2.1145 10.281-3.2812 3.5774-1.1666 7.1994-2.2824 10.312-2.9688 3.107-0.68504 5.7589-0.84153 7.125-0.5 0.2188 0.054701 0.26341 0.062127 0.34375 0.09375-0.019582 0.10604-0.05666 0.22587-0.15625 0.4375-0.4901 1.0415-2.1431 2.9818-4.0625 4.7812-3.8451 3.6048-8.7812 7.0938-8.7812 7.0938-0.11331 0.077627-0.19047 0.19771-0.21401 0.33303s0.008561 0.2744 0.089007 0.38572l1.75 2.4375c0.1692 0.20657 0.46917 0.24748 0.6875 0.09375 0 0 5.0647-3.5119 9.2188-7.4062 2.074-1.9444 3.9506-3.934 4.9375-6.0312 0.49266-1.0469 0.84529-2.3397 0.34375-3.6562-0.51007-1.3389-1.774-2.1544-3.1562-2.5-2.6059-0.65147-5.6708-0.20967-9.0312 0.53125-3.3662 0.74218-7.0429 1.8842-10.656 3.0625-3.6125 1.178-7.1188 2.3704-10.094 3.2188-2.1808 0.62188-3.8918 0.92753-5.125 1.0312 0.78517-0.87539 1.8773-1.9573 3.25-3.0938 3.7114-3.0725 7.9688-6.375 7.9688-6.375 0.217-0.16 0.27179-0.46136 0.125-0.6875l-1.6875-2.5c-0.1195-0.18807-0.34734-0.27668-0.5625-0.21875z" fill="url(#t)" fill-rule="evenodd" filter="url(#y)" opacity=".31928"/><g id="ce" transform="translate(20)"><g id="cf" transform="matrix(1.1667 0 0 1.2 -3.8333 -36.2)" fill-rule="evenodd"><path id="cg" d="m-2.3438 51c-0.20477 0-0.38116 0.10124-0.5 0.25l-4.0156 4c-0.035009 0.1318-0.099113 0.27134-0.14062 0.40625v5.5208c0 0.36356 0.29652 0.65625 0.65625 0.65625h6.6875c0.17987 0 0.35138-0.068883 0.46875-0.1875l4-4c0.11737-0.11862 0.1875-0.28697 0.1875-0.46875v-5.5208c0-0.18178-0.070133-0.35013-0.1875-0.46875-0.1191-0.11862-0.28888-0.1875-0.46875-0.1875h-6.6875z" fill="url(#s)"/><path id="ch" d="m-6.3739 55.167h6.462c0.34688 0 0.62614 0.28456 0.62614 0.63802v5.3906c0 0.35346-0.27926 0.63802-0.62614 0.63802h-6.462c-0.34688 0-0.62614-0.28456-0.62614-0.63802v-5.3906c0-0.35346 0.27926-0.63802 0.62614-0.63802z" fill="url(#r)"/></g><path id="ci" d="m-5 25-5 5h4l5-5h-4" fill="url(#q)" fill-rule="evenodd" opacity=".12313"/><path id="cj" d="m-1 25-9.5 4h3.5l5-3 1-1" fill="#babdb6" fill-rule="evenodd"/><path id="ck" d="m-6.5625 25.5c-0.023832 0-0.054614 0.006448-0.15625 0.125-0.030011 0.022634-0.061314 0.043503-0.09375 0.0625-0.019872 0.021773-0.040727 0.042628-0.0625 0.0625-0.019872 0.021773-0.040727 0.042628-0.0625 0.0625h-0.03125c-0.019872 0.021773-0.040727 0.042628-0.0625 0.0625l-0.1875 0.1875c-0.10684 0.10034-0.23506 0.17514-0.375 0.21875l-4.25 1.2188c-0.4005 0.20836-0.53404 0.34932-0.59375 0.46875-8.88e-4 0.001776 0.034017 0.13457 0 0.09375 0.081847 0.098216 0.36037 0.25224 0.84375 0.34375 0.3399 0.068871 0.61706 0.31417 0.72673 0.64317 0.10967 0.32901 0.035117 0.69154-0.19548 0.95058l-0.34375 0.375c-0.019815 0.087564-0.053843 0.17008-0.09375 0.3125-0.007455 0.026605 0.008159 0.035226 0 0.0625v6.5c0 0.054188 3.76e-4 0.11554 0.0625 0.1875 0.03149 0.036477 0.10325 0.0625 0.15625 0.0625h7.8438c0.092572 0 0.16844-0.0102 0.21875-0.0625-1.68e-4 -0.010416-1.68e-4 -0.020834 0-0.03125l4.6562-4.8125c0.052186-0.054248 0.0625-0.079143 0.0625-0.1875v-6.625c0-0.10835-0.010312-0.1645-0.0625-0.21875-0.036825-0.037725-0.15498-0.0625-0.1875-0.0625h-7.8125z" fill="none" opacity=".53358" stroke="#fff" stroke-dashoffset=".7" stroke-linecap="round" stroke-linejoin="round" stroke-miterlimit="4" stroke-width="1"/><path id="cl" d="m-6.5625 24.531c-0.38774 0-0.69169 0.21848-0.90625 0.46875l-0.03125-0.03125-0.03125 0.0625-0.34375 0.3125-4.25 1.2188c-0.032264 0.007085-0.063688 0.01756-0.09375 0.03125-0.54891 0.27446-0.90203 0.55405-1.0938 0.9375s-0.11652 0.86642 0.125 1.1562c0.32808 0.39369 0.85761 0.55239 1.4062 0.65625l-0.40625 0.4375c-0.056292 0.051407-0.099198 0.11577-0.125 0.1875-0.031346 0.12138-0.069895 0.31579-0.125 0.5-0.01612 0.04003-0.026636 0.082094-0.03125 0.125v6.6562c0 0.29887 0.11323 0.58168 0.3125 0.8125s0.51087 0.40625 0.875 0.40625h7.8438c0.32363 0 0.65689-0.11579 0.90625-0.375l4.6562-4.8125c0.22588-0.2348 0.34375-0.53965 0.34375-0.875v-6.625c0-0.33535-0.11787-0.6402-0.34375-0.875-0.22366-0.22912-0.55136-0.375-0.875-0.375h-7.8125z" fill="none" stroke="#555753" stroke-dashoffset=".7" stroke-linecap="round" stroke-linejoin="round" stroke-miterlimit="4" stroke-width="1"/><path id="cm" d="m-1 25-11 2.5 2 1.5h3l5-3 1-1" fill="url(#p)" fill-rule="evenodd"/><path id="cn" d="m-5 25-7 2h4l7-2h-4" fill="url(#o)" fill-rule="evenodd"/><path id="co" d="m-12 27h3.7132 0.28683c-2 1-0.5 2 1 2h-4c-1.5 0-3-1-1-2z" fill="url(#n)" fill-rule="evenodd"/><path id="cp" d="m-9.5942 32h4.1883c0.22483 0 0.40583 0.19512 0.40583 0.4375v3.125c0 0.24238-0.181 0.4375-0.40583 0.4375h-4.1883c-0.22483 0-0.40583-0.19512-0.40583-0.4375v-3.125c0-0.24238 0.181-0.4375 0.40583-0.4375z" fill="url(#m)" fill-rule="evenodd"/></g><path id="cq" d="m29.48 6.0681c-0.63902 0-1.1555 0.51591-1.1555 1.1543v0.28779c0 0.29322-0.22931 0.54318-0.54374 0.54318h-1.5633c-0.63902 0-1.1555 0.70341-1.1555 1.3418v6.4449c0 0.63836 0.51644 1.1543 1.1555 1.1543h8.564c0.63902 0 1.1555-0.51591 1.1555-1.1543v-6.4449c0-0.63836-0.51644-1.3418-1.1555-1.3418h-1.5633c-0.26178 0.017668-0.54374-0.1863-0.54374-0.52621v-0.30476c0-0.63836-0.51644-1.1543-1.1555-1.1543h-2.039z" fill="url(#l)" fill-rule="evenodd"/><path id="cr" d="m29.562 5.4375c-1.1094 0-1.9847 0.90801-2.0625 2h-0.9375c-1.1591 0-2.125 0.96592-2.125 2.125v5.875c0 1.1591 0.96592 2.125 2.125 2.125h7.875c1.1591 0 2.125-0.96592 2.125-2.125v-5.875c0-1.1591-0.96592-2.125-2.125-2.125h-0.9375c-0.077814-1.092-0.95314-2-2.0625-2h-1.875z" fill="none" stroke="url(#k)" stroke-dashoffset=".7" stroke-linecap="round" stroke-linejoin="miter" stroke-miterlimit="4" stroke-width="1"/><g id="cs" transform="translate(1 -12)" fill="none" stroke="url(#j)" stroke-linecap="round" stroke-linejoin="miter" stroke-width="1px"><path id="ct" d="m26.5 26.5v-2"/><path id="cu" d="m28.5 26.5v-2"/><path id="cv" d="m30.5 26.5v-2"/><path id="cw" d="m32.5 26.5v-2"/></g><path id="cx" d="m14.688 30.562s-4.1894 3.2677-8.0938 6.5c-1.9522 1.6162-3.6981 3.221-4.7188 4.7812-0.51035 0.7801-0.98712 1.6232-0.65625 2.7812 0.16543 0.57901 0.61139 1.1212 1.0938 1.4062s0.95815 0.40623 1.5 0.46875c2.1239 0.24506 4.731-0.39359 7.8438-1.2812 3.1128-0.88766 6.6692-2.0824 10.25-3.25s7.1964-2.3061 10.344-3 5.8351-0.88497 7.375-0.5c0.72893 0.18223 0.74555 0.30082 0.75 0.3125s0.064577 0.33543-0.21875 0.9375c-0.56665 1.2041-2.2451 3.1165-4.1875 4.9375-3.8847 3.6419-8.8438 7.125-8.8438 7.125l1.75 2.4375s5.041-3.5169 9.1562-7.375c2.0576-1.929 3.8792-3.8916 4.8125-5.875 0.46667-0.99168 0.7768-2.1132 0.34375-3.25s-1.5414-1.8697-2.8125-2.1875c-2.4601-0.61503-5.4442-0.2045-8.7812 0.53125s-7.0183 1.8551-10.625 3.0312-7.1284 2.3955-10.125 3.25c-2.9123 0.83049-5.2979 1.2201-6.4688 1.125 0.61993-0.94761 2.2959-2.5537 4.1562-4.0938 3.7206-3.0802 7.9688-6.375 7.9688-6.375l-1.8125-2.4375z" fill="url(#i)" fill-rule="evenodd" stroke="url(#h)" stroke-linejoin="round" stroke-miterlimit="4" stroke-width="1"/><path id="cy" d="m15.672 31.27s-18.438 12.688-11.938 13.438 28-10 36-8-12 16-12 16" fill="none" opacity=".1903" stroke="url(#g)" stroke-linejoin="miter" stroke-width="1px"/><path id="cz" d="m10.089 30.031 0.31748 2h4.1875c0.22483 0 0.40625 0.19512 0.40625 0.4375v3.125l2-0.3125v-4.4688c0-0.42416-0.31405-0.78125-0.71875-0.78125h-6.1925z" fill="url(#f)" fill-rule="evenodd"/><path id="da" transform="translate(20)" d="m-9.5942 32h4.1883c0.22483 0 0.40583 0.19512 0.40583 0.4375v3.125c0 0.24238-0.181 0.4375-0.40583 0.4375h-4.1883c-0.22483 0-0.40583-0.19512-0.40583-0.4375v-3.125c0-0.24238 0.181-0.4375 0.40583-0.4375z" fill="url(#e)" fill-rule="evenodd" opacity=".35448"/><rect id="db" x="22.934" y="23.927" width=".96875" height="2.0312" fill="#838383" fill-rule="evenodd"/><rect id="dc" x="24.934" y="24.958" width=".96875" height="1" fill="#838383" fill-rule="evenodd"/><rect id="dd" x="26.934" y="24.958" width=".96875" height="1" fill="#838383" fill-rule="evenodd"/><rect id="de" x="28.934" y="23.989" width=".96875" height="1.9688" fill="#838383" fill-rule="evenodd"/><rect id="df" x="30.934" y="24.958" width=".96875" height="1" fill="#838383" fill-rule="evenodd"/><rect id="dg" x="32.934" y="24.958" width=".96875" height="1" fill="#838383" fill-rule="evenodd"/><rect id="dh" x="34.934" y="23.989" width=".96875" height="1.9688" fill="#838383" fill-rule="evenodd"/><rect id="di" x="36.934" y="24.958" width=".96875" height="1" fill="#838383" fill-rule="evenodd"/><rect id="dj" x="38.934" y="24.958" width=".96875" height="1" fill="#838383" fill-rule="evenodd"/><rect id="dk" x="40.934" y="23.927" width=".96875" height="2.0312" fill="#838383" fill-rule="evenodd"/><path id="dl" d="m36.965 27.083h1.2188v-4.2187l-0.62192-1.0312-0.58036 1.0547-0.01647 4.1953z" fill="#000" fill-rule="evenodd"/></g></g></svg>
