<?xml version="1.0" encoding="UTF-8"?>
<svg id="r" version="1.0" viewBox="0 0 48 48" xmlns="http://www.w3.org/2000/svg" xmlns:xlink="http://www.w3.org/1999/xlink"><defs id="s"><linearGradient id="c"><stop id="t" offset="0"/><stop id="u" stop-opacity="0" offset="1"/></linearGradient><linearGradient id="q"><stop id="v" stop-color="#eeeeec" offset="0"/><stop id="w" stop-color="#a3a398" offset="1"/></linearGradient><radialGradient id="a" cx="23.857" cy="40" r="17.143" gradientTransform="matrix(1 0 0 .5 0 20)" gradientUnits="userSpaceOnUse" xlink:href="#c"/><linearGradient id="i" x1="9.3031" x2="38.826" y1="26.719" y2="26.719" gradientTransform="matrix(1.0109 0 0 .99135 -7.3277 -4.8265)" gradientUnits="userSpaceOnUse"><stop id="x" stop-color="#d6d7d5" offset="0"/><stop id="y" stop-color="#d1d2d0" offset=".25"/><stop id="z" stop-color="#a5a6a3" offset=".5"/><stop id="aa" stop-color="#dddedc" offset="1"/></linearGradient><linearGradient id="h" x1="17.16" x2="37.969" y1="14.004" y2="56.576" gradientTransform="matrix(1.0109 0 0 .99276 -7.3277 -4.8327)" gradientUnits="userSpaceOnUse"><stop id="ab" stop-color="#fff" offset="0"/><stop id="ac" stop-color="#fff" stop-opacity="0" offset="1"/></linearGradient><linearGradient id="g" x1="16.071" x2="16.036" y1="19.5" y2="31.75" gradientTransform="matrix(1.0109 0 0 1 -7.3277 -2.3279)" gradientUnits="userSpaceOnUse"><stop id="ad" stop-color="#fff" offset="0"/><stop id="ae" stop-color="#fff" stop-opacity="0" offset="1"/></linearGradient><linearGradient id="d" x1="24" x2="23.434" y1="17.246" y2="8.0477" gradientUnits="userSpaceOnUse" xlink:href="#q"/><linearGradient id="p" x1="34.244" x2="34.244" y1="17.695" y2="29.918" gradientTransform="matrix(1.0109 0 0 1 -7.3277 -3.185)" gradientUnits="userSpaceOnUse"><stop id="af" stop-color="#f0f0f0" offset="0"/><stop id="ag" stop-color="#f0f0f0" stop-opacity="0" offset="1"/></linearGradient><linearGradient id="m" x1="11.003" x2="32.397" y1="32.489" y2="32.489" gradientTransform="matrix(1.0109 0 0 1 -7.3277 -3.185)" gradientUnits="userSpaceOnUse"><stop id="ah" stop-color="#284e7f" offset="0"/><stop id="ai" stop-color="#6694cf" offset=".5"/><stop id="aj" stop-color="#234570" offset="1"/></linearGradient><linearGradient id="l" x1="25.698" x2="25.573" y1="11.17" y2="20.118" gradientUnits="userSpaceOnUse"><stop id="ak" stop-color="#204a87" offset="0"/><stop id="al" stop-color="#98b8e7" offset="1"/></linearGradient><linearGradient id="o" x1="21.487" x2="21.756" y1="25.114" y2="5.5617" gradientUnits="userSpaceOnUse"><stop id="am" stop-color="#3465a4" offset="0"/><stop id="an" stop-color="#8fb1dc" offset="1"/></linearGradient><linearGradient id="n" x1="-27.279" x2="-28.468" y1="-5.7469" y2="-11.993" gradientTransform="translate(36.701 10.5)" gradientUnits="userSpaceOnUse"><stop id="ao" stop-color="#b6b6b6" offset="0"/><stop id="ap" stop-color="#b6b6b6" stop-opacity="0" offset="1"/></linearGradient><radialGradient id="f" cx="22.5" cy="34" r="23.5" gradientTransform="matrix(1 0 0 .59574 0 13.745)" gradientUnits="userSpaceOnUse"><stop id="aq" offset="0"/><stop id="ar" stop-opacity="0" offset="1"/></radialGradient><radialGradient id="e" cx="77.499" cy="-9.064" r="17.501" gradientTransform="matrix(1.4683 0 0 1.2907 -34.29 41.607)" gradientUnits="userSpaceOnUse"><stop id="as" stop-color="#e5e6e3" offset="0"/><stop id="at" stop-color="#d1d3cf" offset=".5"/><stop id="au" stop-color="#767c6f" offset="1"/></radialGradient><linearGradient id="k" x1="78.985" x2="79.109" y1="12.351" y2="8.727" gradientTransform="matrix(.66773 0 0 .69549 27.74 34.634)" gradientUnits="userSpaceOnUse"><stop id="av" stop-color="#eeeeec" offset="0"/><stop id="aw" stop-color="#d3d3ce" offset="1"/></linearGradient><radialGradient id="b" cx="69.296" cy="14.854" r="3.5355" gradientTransform="matrix(1 0 0 1.575 0 -8.5413)" gradientUnits="userSpaceOnUse" xlink:href="#c"/><linearGradient id="j" x1="-87.031" x2="-88.678" y1="-12.2" y2="-17.885" gradientTransform="translate(106.45 16.536)" gradientUnits="userSpaceOnUse"><stop id="ax" stop-color="#969696" offset="0"/><stop id="ay" stop-color="#b6b6b6" stop-opacity="0" offset="1"/></linearGradient></defs><g id="az"><path id="ba" d="m35.201 24c-1.5-6.75 5.4835-8.4074 3.5-13.25-4.4185-10.787-21.25 4.5-26 4s-5.8536-16.536-5.8536-16.536" color="#000000" display="block" fill="none" stroke="url(#j)" stroke-linejoin="miter" stroke-miterlimit="10" stroke-width="6"/><path id="bb" transform="matrix(.7 0 0 1 17.8 1)" d="m46 34a23.5 14 0 1 1-47 0 23.5 14 0 1 1 47 0z" color="#000000" display="block" fill="url(#f)" fill-rule="nonzero" opacity=".58242"/><path id="bc" transform="matrix(1.0703 0 0 1.1513 -8.4558 -14.462)" d="m41 40a17.143 8.5714 0 1 1-34.286 0 17.143 8.5714 0 1 1 34.286 0z" color="#000000" display="block" fill="url(#a)" fill-rule="nonzero"/><path id="bd" d="m35.201 24c-1.5-6.75 5.4835-8.4074 3.5-13.25-4.4185-10.787-21.25 4.5-26 4s-5.8536-16.536-5.8536-16.536" color="#000000" display="block" fill="none" stroke="url(#n)" stroke-linejoin="miter" stroke-miterlimit="10" stroke-width="4"/><path id="be" d="m33.829 25.323c-1.4142-9.1924 8.6941-11.827 2.6516-17.501-6.1313-5.7573-21.149 8.8503-25.809 6.1872-3.7123-2.1213-4.9497-14.849-4.9497-14.849" color="#000000" display="block" fill="none" opacity=".52198" stroke="#fff" stroke-linejoin="miter" stroke-miterlimit="10" stroke-width="1"/><path id="bf" d="m16.871 4.0026c-7.9453 0-14.406 2.7782-14.406 6.1959v22.925c0 3.4177 6.4604 6.1959 14.406 6.1959 7.9453 0 14.663-2.7782 14.663-6.1959v-22.925c0-3.4177-6.7176-6.1959-14.663-6.1959z" color="#000000" display="block" fill="url(#i)" fill-rule="nonzero" stroke="#767973" stroke-linejoin="miter" stroke-miterlimit="10" stroke-width="1"/><path id="bg" d="m16.88 4.7827c-7.4078 0-13.431 2.594-13.431 5.785v21.966c0 3.191 6.0233 5.785 13.431 5.785 7.4078 0 13.671-2.594 13.671-5.785v-21.966c0-3.191-6.2632-5.785-13.671-5.785z" color="#000000" display="block" fill="none" opacity=".5443" stroke="url(#h)" stroke-linejoin="miter" stroke-miterlimit="10" stroke-width="1"/><path id="bh" d="m28.924 8.5c-1.1212-0.98511-2.0693-1.285-3.0636-1.7678l0.30635 18.688 2.7572 3.2325v-20.153z" color="#000000" display="block" fill="url(#p)" fill-rule="nonzero"/><path id="bi" d="m16.296 6.3362c-6.6762 0.13473-11.996 2.3399-11.996 5.0282v20.882c0 2.775 5.6405 5.0282 12.618 5.0282 6.978 0 12.648-2.2532 12.648-5.0282v-20.882c0-2.775-5.6701-5.0282-12.648-5.0282-0.21806 0-0.40668-0.004346-0.62204 0z" color="#000000" display="block" fill="url(#m)" fill-rule="nonzero" opacity=".79121" stroke="#204a87" stroke-linejoin="miter" stroke-miterlimit="10" stroke-width=".99622"/><path id="bj" transform="matrix(.98322 0 0 .86586 -6.6658 -1.6048)" d="m36.857 14.071a12.857 5.5 0 1 1-25.714 0 12.857 5.5 0 1 1 25.714 0z" color="#000000" display="block" fill="url(#o)" fill-rule="nonzero" stroke="url(#l)" stroke-linejoin="miter" stroke-miterlimit="10" stroke-width="1.0838"/><path id="bk" transform="matrix(1.0486 0 0 .96434 -8.2324 -3.5404)" d="m36.857 14.071a12.857 5.5 0 1 1-25.714 0 12.857 5.5 0 1 1 25.714 0z" color="#000000" display="block" fill="#f0f0f0" fill-rule="nonzero" opacity=".46703" stroke="url(#d)" stroke-linejoin="miter" stroke-miterlimit="10" stroke-width=".99443"/><path id="bl" transform="matrix(.3674 0 0 .36343 7.9366 -7.8373)" d="m41 40a17.143 8.5714 0 1 1-34.286 0 17.143 8.5714 0 1 1 34.286 0z" color="#000000" display="block" fill="url(#a)" fill-rule="nonzero" opacity=".30769"/><path id="bm" d="m17.025 2.5c-2.0247 0-4.6819 0.71415-4.6819 1.5927v2.6297c0 0.87852 2.6572 1.5927 4.6819 1.5927s4.4586-0.71415 4.4586-1.5927v-2.6297c0-0.87852-2.4339-1.5927-4.4586-1.5927z" color="#000000" display="block" fill="#9d9e9b" fill-rule="nonzero" stroke="#7d7f7a" stroke-linejoin="miter" stroke-miterlimit="10" stroke-width="1"/><path id="bn" d="m6.6086 14.744 0.36104 16.786 4.6214 1.2857-0.14442-16.714s1.96-0.088388 5.3538-0.30267c-6.5683-0.049983-10.859-1.5782-13.225-3.8402 1.4324 2.0922 3.0328 2.7857 3.0328 2.7857z" color="#000000" display="block" fill="url(#g)" fill-rule="nonzero" opacity=".58242"/><path id="bo" transform="matrix(.27495 0 0 .19211 10.333 1.6684)" d="m36.857 14.071a12.857 5.5 0 1 1-25.714 0 12.857 5.5 0 1 1 25.714 0z" color="#000000" display="block" fill="#d3d7cf" fill-rule="nonzero" stroke="url(#d)" stroke-linejoin="miter" stroke-miterlimit="10" stroke-width="4.3511"/><g id="bp" transform="translate(-45.004 -5.9365)"><path id="bq" d="m79.191 28.438c-6.5008 0.16003-11.687 5.3347-11.687 11.734v0.2804c-0.001786 0.008581 9.15e-4 0.03427 0 0.043137-2.32e-4 0.004498 0 0.017014 0 0.021569v8.6707c-0.003906 0.16862 0.15775 0.32478 0.29195 0.31742 0 0 22.859 0.036131 22.859 0.036131 0.39775-0.022097 0.85074-0.23674 0.86179-0.70078l-0.022097-8.3235c0-0.004555 2.31e-4 -0.017071 0-0.021569-9.15e-4 -0.008867 0.001785-0.034556 0-0.043137v-0.2804c0-6.5004-5.3499-11.734-11.995-11.734-0.10384 0-0.20552-0.00254-0.3087 0z" color="#000000" display="block" fill="url(#e)" fill-rule="nonzero" stroke="#848781" stroke-linejoin="miter" stroke-miterlimit="10" stroke-width="1"/><rect id="br" x="69.483" y="40.527" width="20.013" height="6.9925" rx=".38128" ry=".38128" color="#000000" display="block" fill="url(#k)" fill-rule="nonzero" stroke="#888a85" stroke-linejoin="miter" stroke-miterlimit="10" stroke-width="1"/><path id="bs" transform="matrix(.7 0 0 .7 37.133 35.091)" d="m72.832 14.854a3.5355 5.5685 0 1 1-7.0711 0 3.5355 5.5685 0 1 1 7.0711 0z" color="#000000" display="block" fill="url(#b)" fill-rule="nonzero" opacity=".48901"/><path id="bt" transform="matrix(.7 0 0 .7 25.151 35.091)" d="m72.832 14.854a3.5355 5.5685 0 1 1-7.0711 0 3.5355 5.5685 0 1 1 7.0711 0z" color="#000000" display="block" fill="url(#b)" fill-rule="nonzero" opacity=".48901"/><path id="bu" d="m79.311 29.483c-5.9066 0.14411-10.751 4.804-10.751 10.566 0 0-0.044194 8.4384-0.044194 8.4425l21.997 0.005175-0.022097-8.4477c0-5.8537-4.8609-10.566-10.899-10.566-0.094344 0-0.18673-0.002287-0.28049 0z" color="#000000" display="block" fill="none" opacity=".58242" stroke="#fff" stroke-linejoin="miter" stroke-miterlimit="10" stroke-width="1"/><rect id="bv" x="84.471" y="42.462" width="2.0418" height="9.9702" rx=".38128" ry=".38128" color="#000000" display="block" fill="#babdb6" fill-rule="nonzero" stroke="#888a85" stroke-linejoin="miter" stroke-miterlimit="10" stroke-width="1"/><rect id="bw" x="85" y="46" width="1" height="6" color="#000000" display="block" fill="#fff" fill-rule="nonzero" opacity=".68132"/><rect id="bx" x="72.5" y="42.462" width="2.0418" height="9.9702" rx=".38128" ry=".38128" color="#000000" display="block" fill="#babdb6" fill-rule="nonzero" stroke="#888a85" stroke-linejoin="miter" stroke-miterlimit="10" stroke-width="1"/><rect id="by" x="73.029" y="46" width="1" height="6" color="#000000" display="block" fill="#fff" fill-rule="nonzero" opacity=".68132"/></g></g></svg>
