<?xml version="1.0" encoding="UTF-8"?>
<svg id="x" version="1.0" viewBox="0 0 32 32" xmlns="http://www.w3.org/2000/svg" xmlns:xlink="http://www.w3.org/1999/xlink"><defs id="y"><linearGradient id="a"><stop id="z" stop-color="#fed9a2" offset="0"/><stop id="aa" stop-color="#fcaf3e" offset="1"/></linearGradient><linearGradient id="b"><stop id="ab" stop-color="#fcaf3e" offset="0"/><stop id="ac" stop-color="#f57900" offset="1"/></linearGradient><linearGradient id="s" x1="15.819" x2="18.835" y1="18.417" y2="27.884" gradientTransform="matrix(.65317 0 0 .67792 .53526 .11406)" gradientUnits="userSpaceOnUse" xlink:href="#a"/><radialGradient id="c" cx="12.51" cy="18.175" r="3.0691" gradientTransform="matrix(.77472 0 0 .78676 2.5586 3.9372)" gradientUnits="userSpaceOnUse"><stop id="ad" stop-color="#fff" offset="0"/><stop id="ae" stop-color="#c4c4bd" offset="1"/></radialGradient><linearGradient id="n" x1="10.52" x2="10.602" y1="15.219" y2="16.44" gradientUnits="userSpaceOnUse"><stop id="af" stop-color="#fff" offset="0"/><stop id="ag" stop-color="#fff" stop-opacity="0" offset="1"/></linearGradient><linearGradient id="w" x1="15" x2="14.75" y1="30.188" y2="24.563" gradientTransform="matrix(.71956 0 0 .71788 -.63308 1.2165)" gradientUnits="userSpaceOnUse"><stop id="ah" offset="0"/><stop id="ai" stop-opacity="0" offset="1"/></linearGradient><linearGradient id="v" x1="9.0897" x2="9.5767" y1="19.5" y2="22.929" gradientUnits="userSpaceOnUse"><stop id="aj" stop-color="#fff" offset="0"/><stop id="ak" stop-color="#fff" stop-opacity="0" offset="1"/></linearGradient><radialGradient id="e" cx="13.6" cy="14.214" r="3.6818" gradientTransform="matrix(.67304 0 0 .83489 .16654 -.20456)" gradientUnits="userSpaceOnUse" xlink:href="#a"/><linearGradient id="u" x1="11.449" x2="11.646" y1="17.084" y2="23.566" gradientUnits="userSpaceOnUse"><stop id="al" stop-color="#b15700" offset="0"/><stop id="am" stop-color="#ffaf61" offset="1"/></linearGradient><linearGradient id="t" x1="20.506" x2="22.804" y1="26.124" y2="23.516" gradientTransform="matrix(.67304 0 0 .67146 .16654 2.4553)" gradientUnits="userSpaceOnUse"><stop id="an" stop-color="#b15700" offset="0"/><stop id="ao" stop-color="#b15700" stop-opacity="0" offset="1"/></linearGradient><radialGradient id="d" cx="20.153" cy="33.637" r="15.291" gradientTransform="matrix(1 0 0 .25722 0 24.985)" gradientUnits="userSpaceOnUse"><stop id="ap" offset="0"/><stop id="aq" stop-opacity="0" offset="1"/></radialGradient><linearGradient id="r" x1="11" x2="10.562" y1="8.9688" y2="12.281" gradientTransform="matrix(1.0652 0 0 1.0627 -4.1575 -2.4325)" gradientUnits="userSpaceOnUse"><stop id="ar" offset="0"/><stop id="as" stop-color="#a0a0a0" offset=".45946"/><stop id="at" offset="1"/></linearGradient><linearGradient id="q" x1="27.424" x2="34.512" y1="15.168" y2="14.908" gradientTransform="matrix(.64329 .084344 -.088969 .67539 4.6244 .44907)" gradientUnits="userSpaceOnUse" xlink:href="#b"/><linearGradient id="p" x1="20.969" x2="23.219" y1="18.626" y2="34.314" gradientUnits="userSpaceOnUse"><stop id="au" stop-color="#fff" offset="0"/><stop id="av" stop-color="#fff" stop-opacity="0" offset="1"/></linearGradient><linearGradient id="o" x1="12.574" x2="12.574" y1="21.925" y2="19.5" gradientUnits="userSpaceOnUse"><stop id="aw" stop-color="#fff" offset="0"/><stop id="ax" stop-color="#fff" stop-opacity="0" offset="1"/></linearGradient><linearGradient id="m" x1="35.531" x2="42.438" y1="20.719" y2="20.719" gradientUnits="userSpaceOnUse"><stop id="ay" offset="0"/><stop id="az" stop-opacity="0" offset="1"/></linearGradient><linearGradient id="l" x1="36.625" x2="42.594" y1="21.797" y2="21.797" gradientUnits="userSpaceOnUse"><stop id="ba" offset="0"/><stop id="bb" stop-opacity="0" offset="1"/></linearGradient><linearGradient id="k" x1="38.344" x2="43.125" y1="23.203" y2="23.203" gradientUnits="userSpaceOnUse"><stop id="bc" offset="0"/><stop id="bd" stop-opacity="0" offset="1"/></linearGradient><linearGradient id="j" x1="44.031" x2="37.594" y1="22.062" y2="22.219" gradientTransform="matrix(.67304 0 0 .67146 .16654 2.4553)" gradientUnits="userSpaceOnUse"><stop id="be" stop-color="#fff" stop-opacity="0" offset="0"/><stop id="bf" stop-color="#fff" offset=".5"/><stop id="bg" stop-color="#fff" stop-opacity="0" offset="1"/></linearGradient><linearGradient id="i" x1="26.248" x2="23.783" y1="38.032" y2="36.457" gradientTransform="matrix(.65111 0 0 .63532 .30328 -.31103)" gradientUnits="userSpaceOnUse" xlink:href="#b"/><linearGradient id="h" x1="17.704" x2="15.261" y1="24.234" y2="22.047" gradientUnits="userSpaceOnUse"><stop id="bh" stop-color="#fff" offset="0"/><stop id="bi" stop-color="#fff" stop-opacity="0" offset="1"/></linearGradient></defs><g id="bj"><path id="bk" transform="matrix(.67304 0 0 1.109 .76142 -13.213)" d="m35.444 33.637a15.291 3.9333 0 1 1-30.582 0 15.291 3.9333 0 1 1 30.582 0z" color="black" fill="url(#d)" fill-rule="evenodd" opacity=".29381"/><path id="bl" d="m28.5 11-0.27627 6.3954 2.2715-4.5324-1.9952-1.863z" color="black" fill="#bd7102" fill-rule="evenodd" stroke="#b15700" stroke-linejoin="miter" stroke-miterlimit="4" stroke-width="1"/><path id="f" d="m9.5049 8.2134c-3.6059 0.14641-7.0049 3.5366-9.0049 8.0366 0.75 4 5.5811 8.6216 10.772 7.944 4.7629-0.62182 6.3632-2.8873 10.684-6.4418 5.5243 2.7766 9.0439 2.5809 9.0439 2.5809-2.4558-2.8922 2.7113-7.2767-2-9.333 1.9136 2.699-2.3176 4.5862-7.1491 3.2689-0.72349-0.53242-1.4778-1.0784-2.2505-1.6157-0.078515-1.5321 1.3462-2.9437 2.3995-4.1532-5 0-6 0.5-6.6902 1.4883-1.7792-0.95095-3.522-1.6193-5.0688-1.7539-0.24331-0.021177-0.49574-0.030744-0.73613-0.020983z" fill="url(#q)" fill-rule="evenodd" stroke="#b15700" stroke-linejoin="miter" stroke-miterlimit="4" stroke-width="1"/><path id="bm" d="m29.549 13.639c-0.11369 2.6528-0.32951 3.9588 0.25239 5.6655-2.091 0.26231-4.0349-0.12551-5.9522-0.98621l1.5564-2.6859c1.281-0.006532 2.9774-0.64232 4.1434-1.9934z" color="black" fill="url(#j)" fill-rule="evenodd" opacity=".35567"/><path id="bn" d="m21.819 14.621c-7.5941-2.0404-12.758 8.2378-20.304 1.7633 1.643-4.7155 5.4015-8.5236 8.8178-7.796 2.2065 0.46994 3.762 1.0529 5.0413 1.7218 2.3133 1.2095 3.7232 2.6999 6.4451 4.3109z" color="black" fill="url(#s)" fill-rule="evenodd" opacity=".9433"/><path id="bo" transform="translate(.15231 -.12356)" d="m9.5312 9.125c-2.9863 0.12125-5.9655 3.153-7.4375 7.25 0.17711 1.691 1.2345 3.5925 2.875 4.9688 1.6791 1.4087 3.8811 2.2386 6.1875 1.9375 2.2545-0.29434 3.6754-0.91159 5.125-1.9375s2.934-2.479 5.125-4.2812c0.27095-0.22692 0.64907-0.27571 0.96875-0.125 2.6862 1.3501 4.8547 1.9637 6.3438 2.25 0.52473 0.1009 0.4427 0.058792 0.78125 0.09375-0.11349-0.46651-0.17038-0.92658-0.15625-1.375 0.031504-0.99982 0.26634-1.9426 0.40625-2.7812 0.12931-0.77511 0.13119-1.4 0-1.9062-0.30717 0.70048-0.88274 1.2517-1.5938 1.625-1.6224 0.85177-3.9708 1.0191-6.5625 0.3125-0.10232-0.034899-0.19756-0.087816-0.28125-0.15625-0.7237-0.53258-1.4908-1.0658-2.25-1.5938-0.23112-0.16724-0.37004-0.43351-0.375-0.71875-0.052631-1.027 0.36841-1.8697 0.875-2.5625 0.059888-0.081903 0.12536-0.14004 0.1875-0.21875-0.70664 0.045569-1.8184 0.038076-2.1875 0.125-0.72244 0.17013-1.0653 0.40444-1.875 0.78125-0.25568 0.12815-0.55682 0.12815-0.8125 0-1.7177-0.9181-3.3703-1.5389-4.7188-1.6562-0.23509-0.020462-0.46146-0.03789-0.625-0.03125z" fill="none" opacity=".45876" stroke="url(#p)" stroke-linejoin="miter" stroke-miterlimit="4" stroke-width="1" xlink:href="#f"/><path id="bp" transform="matrix(1.1013 0 0 1.0072 -5.2483 -5.7701)" d="m15 19.5a2.75 3 0 1 1-5.5 0 2.75 3 0 1 1 5.5 0z" color="black" fill="url(#c)" fill-rule="evenodd" stroke="url(#u)" stroke-linecap="round" stroke-linejoin="round" stroke-miterlimit="4" stroke-width=".94948"/><path id="bq" transform="matrix(.78828 0 0 .72088 -1.4134 -.18683)" d="m15 19.5a2.75 3 0 1 1-5.5 0 2.75 3 0 1 1 5.5 0z" color="black" fill="none" stroke="url(#v)" stroke-linecap="round" stroke-linejoin="round" stroke-miterlimit="4" stroke-width="1.3266"/><path id="br" d="m2.3399 19.35c2.1965 2.6342 4.7804-0.22405 8.282-0.999-3.6939 0.088478-5.9682 2.71-9.1898-0.71115l0.90788 1.7102z" fill="#b15700" fill-rule="evenodd"/><path id="bs" d="m9.2629 10.75c-0.89912-0.37224-1.9553-0.031968-2.7777 0.31043 3.1492-0.10331 4.4731 4.8037 4.4731 4.8037 1.0699-2.195 0.17852-4.3383-1.6954-5.1141z" color="black" fill="#000" fill-opacity=".40217" fill-rule="evenodd"/><path id="bt" transform="matrix(.50478 0 0 .50725 -5.6338 1.0869)" d="m28 24.5a2 2 0 1 1-4 0 2 2 0 1 1 4 0z" color="black" fill="#000" fill-rule="evenodd" stroke="#3465a4" stroke-linecap="round" stroke-linejoin="round" stroke-miterlimit="4" stroke-width="1.9762"/><path id="bu" d="m1.9753 18.535s2.4872 5.128 7.9035 5.3609c6.7192 0.29351 11.615-6.7069 11.615-6.7069l-19.518 1.346z" color="black" fill="url(#w)" fill-rule="evenodd" opacity=".31443"/><path id="g" d="m12.674 21.29 3.911 5.2745c2.93-1.5883 2.6001-4.0038 1.6234-5.2745l-4.2322-1.2706-1.3022 1.2706z" fill="url(#i)" fill-rule="evenodd" stroke="#b15700" stroke-linejoin="miter" stroke-miterlimit="4" stroke-width=".96744"/><path id="bv" transform="matrix(.8646 0 0 1.2939 -1.7134 -7.2572)" d="m12.219 15.656a1.5625 0.875 0 1 1-3.125 0 1.5625 0.875 0 1 1 3.125 0z" color="black" fill="url(#n)" fill-rule="nonzero"/><path id="bw" d="m9.5008 10.571c-0.89912-0.37224-1.9553-0.031969-2.7777 0.31043 3.1492-0.10331 4.4731 4.8037 4.4731 4.8037 1.0699-2.195 0.17853-4.3383-1.6954-5.1141z" color="black" fill="url(#e)" fill-rule="evenodd"/><path id="bx" d="m10.874 22.46 4.1642-4.2138 1.3682 0.17805-5.5324 4.0358z" color="black" fill="url(#t)" fill-rule="evenodd"/><path id="by" d="m6.4279 11.781c-3.1956-1.262-3.9279-6.3098-3.9279-6.3098s0.73232 3.8523 4.3939 5.3135c-2.1258-2.3012-1.0634-3.1379-0.89392-4.7849 0.10441 2.363 0.5 3.5 2.2254 5.1834-0.89132-1.4624 0.18608-3.0468 0.27459-4.1834 0.16255 1.3697-0.22255 3.7731 0.7906 5.3125-1.0237-0.38495-2.0149-0.67272-2.8627-0.53135z" color="black" fill="url(#r)" fill-rule="evenodd"/><path id="bz" d="m8.6579 12.118c-0.55773-1.2647 0.54169-2.3958 0.54169-2.3958s-0.7844 1.1188-0.033827 2.4059c-0.1869-1.066 0.12936-1.3905 0.64074-1.8127-0.46685 0.82533-0.60336 1.1515-0.21394 2.3033 0.017342-0.77848 0.31828-1.005 0.63127-1.4191-0.27396 0.56483-0.30026 1.4625-0.28978 2.3002-0.38625-0.48666-0.73073-1.0011-1.2762-1.3819z" color="black" fill="#000" fill-rule="evenodd"/><path id="ca" d="m16.908 10.251c0.90485-0.41124 1.5292-0.44348 2.9025-0.53507-1.2711 0.37469-1.5681 0.55667-2.4503 1.0492-0.55045 0.30728-0.9504-0.28766-0.4522-0.51409z" color="black" fill="#fff" fill-rule="evenodd" opacity=".79381"/><path id="cb" transform="matrix(1.5283 0 0 1.3977 -10.534 -13.442)" d="m15 19.5a2.75 3 0 1 1-5.5 0 2.75 3 0 1 1 5.5 0z" color="black" fill="none" opacity=".29897" stroke="url(#o)" stroke-linecap="round" stroke-linejoin="round" stroke-miterlimit="4" stroke-width=".68422"/><path id="cc" d="m3.1463 20.419c1.9044 1.8806 2.9728-0.11517 5.2868-1.2339-1.9439 0.11973-4.0211 3.0591-6.4248-0.51871l1.138 1.7526z" fill="#fff" fill-rule="evenodd" opacity=".74227"/><g id="cd" transform="matrix(.67304 0 0 .67146 .37686 2.5003)" fill-rule="evenodd"><path id="ce" d="m42.438 20.344v0.75c-1.7647 0.33119-4.5481-0.47195-6.9062-0.75 2.3059 0.015308 4.7504 0.58479 6.9062 0z" color="black" fill="url(#m)" opacity=".12371"/><path id="cf" d="m42.406 21.781 0.1875 0.6875c-1.9896 0.35484-3.9792-0.80723-5.9688-1.3438 1.9271 0.24518 3.8542 1.1549 5.7812 0.65625z" color="black" fill="url(#l)" opacity=".12371"/><path id="cg" d="m42.812 23.312 0.3125 0.59375-4.7812-1.4062 4.4688 0.8125z" color="black" fill="url(#k)" opacity=".12371"/></g><path id="ch" d="m14.188 20.938-0.4375 0.4375 3 4.0312c0.79313-0.58424 1.2173-1.1842 1.3125-1.75 0.10536-0.62596-0.10786-1.2219-0.40625-1.6875l-3.4688-1.0312z" fill="none" opacity=".34536" stroke="url(#h)" stroke-linejoin="miter" stroke-miterlimit="4" stroke-width=".96744" xlink:href="#g"/></g></svg>
