<?xml version="1.0" encoding="UTF-8"?>
<svg id="k" version="1.0" viewBox="0 0 48 48" xmlns="http://www.w3.org/2000/svg" xmlns:xlink="http://www.w3.org/1999/xlink"><defs id="l"><linearGradient id="h"><stop id="m" offset="0"/><stop id="n" stop-opacity="0" offset="1"/></linearGradient><linearGradient id="a"><stop id="o" stop-color="#fff" offset="0"/><stop id="p" stop-color="#fff" offset=".57143"/><stop id="q" stop-color="#babdb6" offset="1"/></linearGradient><linearGradient id="b"><stop id="r" stop-color="#729fcf" offset="0"/><stop id="s" stop-color="#3465a4" offset="1"/></linearGradient><radialGradient id="e" cx="28.183" cy="22.521" r="9.2639" gradientTransform="matrix(1.3263 -3.8656e-16 3.8656e-16 1.3263 -9.2115 -7.4357)" gradientUnits="userSpaceOnUse" xlink:href="#a"/><radialGradient id="d" cx="28.183" cy="21.876" r="9.2639" gradientTransform="matrix(1.3263 -3.8656e-16 3.8656e-16 1.3263 -9.2115 -7.4357)" gradientUnits="userSpaceOnUse" xlink:href="#a"/><radialGradient id="c" cx="31.25" cy="25.25" r="8.75" gradientUnits="userSpaceOnUse" xlink:href="#h"/><radialGradient id="g" cx="31.994" cy="24.501" r="3.5" gradientTransform="matrix(1.4223 -9.6403e-24 9.6403e-24 1.4223 -13.187 -9.8663)" gradientUnits="userSpaceOnUse" xlink:href="#b"/><radialGradient id="f" cx="32.109" cy="24.239" r="3.6071" gradientTransform="matrix(1.2529 2.3918e-15 -2.3918e-15 1.2529 -7.9663 -5.9431)" gradientUnits="userSpaceOnUse" xlink:href="#b"/><linearGradient id="j" x1="30.736" x2="30.693" y1="21.964" y2="25.231" gradientUnits="userSpaceOnUse"><stop id="t" stop-color="#fff" offset="0"/><stop id="u" stop-color="#fff" stop-opacity="0" offset="1"/></linearGradient><linearGradient id="i" x1="30.588" x2="30.545" y1="22.022" y2="25.369" gradientUnits="userSpaceOnUse"><stop id="v" stop-color="#fff" offset="0"/><stop id="w" stop-color="#fff" stop-opacity="0" offset="1"/></linearGradient></defs><g id="x"><g id="y" fill="url(#c)" fill-rule="nonzero" opacity=".6"><path id="z" transform="matrix(.91429 0 0 .45714 -10.571 13.457)" d="m40 25.25a8.75 8.75 0 1 1-17.5 0 8.75 8.75 0 1 1 17.5 0z" color="#000000" opacity="1"/><path id="aa" transform="matrix(1.1429 0 0 .62857 -4.7143 13.629)" d="m40 25.25a8.75 8.75 0 1 1-17.5 0 8.75 8.75 0 1 1 17.5 0z" color="#000000" opacity="1"/></g><path id="ab" transform="matrix(.74363 0 0 .74363 -5.2406 2.2212)" d="m40 25.25a8.75 8.75 0 1 1-17.5 0 8.75 8.75 0 1 1 17.5 0z" color="#000000" fill="url(#e)" fill-rule="nonzero" stroke="#888a85" stroke-linecap="square" stroke-linejoin="round" stroke-miterlimit="4" stroke-width="1.3448"/><path id="ac" transform="matrix(.63131 0 0 .63131 -1.7209 5.0517)" d="m40 25.25a8.75 8.75 0 1 1-17.5 0 8.75 8.75 0 1 1 17.5 0z" color="#000000" fill="none" stroke="#fff" stroke-linecap="square" stroke-linejoin="round" stroke-miterlimit="4" stroke-width="1.584"/><path id="ad" transform="matrix(.97297 0 0 .97297 .5946 .43243)" d="m40 25.25a8.75 8.75 0 1 1-17.5 0 8.75 8.75 0 1 1 17.5 0z" color="#000000" fill="url(#d)" fill-rule="nonzero" stroke="#888a85" stroke-linecap="square" stroke-linejoin="round" stroke-miterlimit="4" stroke-width="1.0278"/><path id="ae" transform="matrix(.8652 0 0 .8652 3.9624 3.1537)" d="m40 25.25a8.75 8.75 0 1 1-17.5 0 8.75 8.75 0 1 1 17.5 0z" color="#000000" fill="none" stroke="#fff" stroke-linecap="square" stroke-linejoin="round" stroke-miterlimit="4" stroke-width="1.1558"/><path id="af" transform="matrix(.83169 0 0 .83169 -7.1984 .45519)" d="m34.5 23.5a3 3 0 1 1-6 0 3 3 0 1 1 6 0z" color="#000000" fill="url(#f)" fill-rule="nonzero" stroke="#3465a4" stroke-linecap="square" stroke-linejoin="round" stroke-miterlimit="4" stroke-width="1.2024"/><path id="ag" transform="matrix(.50406 0 0 .50406 3.1296 8.1622)" d="m34.5 23.5a3 3 0 1 1-6 0 3 3 0 1 1 6 0z" color="#000000" fill="none" opacity=".3" stroke="#fff" stroke-linecap="square" stroke-linejoin="round" stroke-miterlimit="4" stroke-width="1.9839"/><path id="ah" transform="matrix(1 0 0 1 -12.531 -3.5)" d="m32.531 23.5a1 1 0 1 1-2 0 1 1 0 1 1 2 0z" color="#000000" fill="#000" fill-rule="nonzero"/><path id="ai" transform="matrix(1.0285 0 0 .89791 -13.318 -1.0522)" d="m31.908 22.61a1.2153 1.3921 0 1 1-2.4307 0 1.2153 1.3921 0 1 1 2.4307 0z" color="#000000" fill="url(#i)" fill-rule="nonzero"/><path id="aj" d="m34.5 23.5a3 3 0 1 1-6 0 3 3 0 1 1 6 0z" color="#000000" fill="url(#g)" fill-rule="nonzero" stroke="#3465a4" stroke-linecap="square" stroke-linejoin="round" stroke-miterlimit="4" stroke-width="1"/><path id="ak" transform="matrix(.67144 0 0 .67199 10.354 7.702)" d="m34.5 23.5a3 3 0 1 1-6 0 3 3 0 1 1 6 0z" color="#000000" fill="none" opacity=".3" stroke="#fff" stroke-linecap="square" stroke-linejoin="round" stroke-miterlimit="4" stroke-width="1.4887"/><path id="al" transform="matrix(1.5 0 0 1.5 -15.797 -11.75)" d="m32.531 23.5a1 1 0 1 1-2 0 1 1 0 1 1 2 0z" color="#000000" fill="#000" fill-rule="nonzero"/><path id="am" transform="matrix(1.4399 0 0 1.2571 -13.445 -6.1731)" d="m31.908 22.61a1.2153 1.3921 0 1 1-2.4307 0 1.2153 1.3921 0 1 1 2.4307 0z" color="#000000" fill="url(#j)" fill-rule="nonzero"/></g></svg>
