<?xml version="1.0" encoding="UTF-8"?>
<svg id="d" width="64" height="64" version="1.1" viewBox="0 0 16.933 16.933" xmlns="http://www.w3.org/2000/svg" xmlns:xlink="http://www.w3.org/1999/xlink"><defs id="e"><filter id="c" x="-.085107" y="-.082922" width="1.1702" height="1.1658" color-interpolation-filters="sRGB"><feGaussianBlur id="f" stdDeviation="0.33551144"/></filter><style id="g" type="text/css"/><style id="h" type="text/css"/><style id="i" type="text/css"/><style id="j" type="text/css"/><style id="k" type="text/css"/><style id="l" type="text/css"/><style id="m" type="text/css"/><style id="n" type="text/css"/><style id="o" type="text/css"/><style id="p" type="text/css"/><filter id="b" x="-.048" y="-.048" width="1.096" height="1.096" color-interpolation-filters="sRGB"><feGaussianBlur id="q" stdDeviation="1.1"/></filter><linearGradient id="a" x1="-72.168" x2="-17.552" y1="59.492" y2="4.8762" gradientTransform="matrix(.26458 0 0 .26458 20.227 1.5678e-7)" gradientUnits="userSpaceOnUse"><stop id="r" stop-color="#ff7832" offset="0"/><stop id="s" stop-color="#ffbe37" offset=".50754"/><stop id="t" stop-color="#ffdc32" offset="1"/></linearGradient></defs><rect id="u" transform="scale(.26458)" x="4.5" y="4.5" width="55" height="55" rx="13.002" ry="13.002" filter="url(#b)" opacity=".3"/><path id="v" d="m4.6306 1.1906c-1.9058 0-3.44 1.5342-3.44 3.44v7.6717c0 1.9058 1.5342 3.44 3.44 3.44h7.6717c1.9058 0 3.44-1.5342 3.44-3.44v-7.6717c0-1.9058-1.5342-3.44-3.44-3.44z" fill="url(#a)" stroke-linecap="round" stroke-width="1.2298"/><g id="w" transform="matrix(.86018 0 0 .86018 .85717 1.1098)" fill="#ffa63e" filter="url(#c)"><rect id="x" x="4.1165" y="3.6974" width="9.4614" height="7.3039" ry=".9155" opacity=".5"/><path id="y" d="m12.658 3.6974h-7.742s-0.79822 0.05381-0.79822 0.79822v8.619s-0.03973 0.37275 0.3134 0.27813l9.0134-9.2591s-0.23365-0.43619-0.78657-0.43619z"/></g><g id="z" transform="matrix(.86018 0 0 .86018 .85634 1.1096)"><rect id="aa" x="4.1165" y="3.6974" width="9.4614" height="7.3039" ry=".9155" fill="#fafafa" opacity=".5"/><path id="ab" d="m12.658 3.6974h-7.742s-0.79822 0.05381-0.79822 0.79822v8.619s-0.03973 0.37275 0.3134 0.27813l9.0134-9.2591s-0.23365-0.43619-0.78657-0.43619z" fill="#fff"/></g><circle id="ac" cx="-430.03" cy="-342.66" r="0" fill="#5e4aa6" stroke-width=".26458"/><g id="ad" transform="matrix(.26458 0 0 .26458 -99.648 -14.161)" fill="#5e4aa6"><circle id="ae" cx="-149.15" cy="23.855" r="0" fill-rule="evenodd"/><circle id="af" cx="-1150.9" cy="-1256.6" r="0"/><circle id="ag" cx="-51.327" cy="8.8744" r="0" fill-rule="evenodd"/></g><g id="ah" transform="matrix(.34395 0 0 .34395 -207.92 -171.7)" font-size="12.666px" stroke-width=".76923"><text id="ai" x="730.88" y="132.19" font-family="'Droid Sans'" stroke-width=".76923"/></g><circle id="aj" cx="-386.58" cy="-328.5" r="0" fill="#5e4aa6" stroke-width=".26458"/><circle id="ak" cx="-73.548" cy="-2.5014" r="0" fill="url(#a)" stroke-width=".39713"/></svg>
