<?xml version="1.0" encoding="UTF-8"?>
<svg id="h" version="1.0" viewBox="0 0 32 32" xmlns="http://www.w3.org/2000/svg" xmlns:xlink="http://www.w3.org/1999/xlink"><defs id="i"><radialGradient id="c" cx="23.333" cy="7.3333" r="1" gradientTransform="matrix(0 -1.687 1.6872 4.6559e-7 10.981 46.717)" gradientUnits="userSpaceOnUse"><stop id="j" stop-color="#fff" offset="0"/><stop id="k" offset="1"/></radialGradient><linearGradient id="g" x1="5.0001" x2="11.25" y1="6" y2="33.625" gradientUnits="userSpaceOnUse"><stop id="l" stop-color="#babdb6" offset="0"/><stop id="m" stop-color="#babdb6" stop-opacity="0" offset="1"/></linearGradient><radialGradient id="b" cx="7.5012" cy="6.4605" r="11.503" gradientTransform="matrix(5.6919 0 2.0683e-5 3.068 -35.827 -13.379)" gradientUnits="userSpaceOnUse"><stop id="n" stop-color="#888a85" offset="0"/><stop id="o" stop-color="#555753" offset="1"/></radialGradient><linearGradient id="f" x1="2.4375" x2="4.4375" y1="-2.375" y2="26" gradientUnits="userSpaceOnUse"><stop id="p" stop-color="#555753" offset="0"/><stop id="q" stop-color="#2e3436" offset="1"/></linearGradient><linearGradient id="e" x1="26.19" x2="29.005" y1="15.377" y2="15.377" gradientUnits="userSpaceOnUse"><stop id="r" stop-color="#c4a000" offset="0"/><stop id="s" stop-color="#c4a000" offset="1"/></linearGradient><radialGradient id="a" cx="16.781" cy="18.713" r="7.9688" gradientTransform="matrix(1.7427 0 0 1.7427 -12.339 -13.798)" gradientUnits="userSpaceOnUse"><stop id="t" stop-color="#fff" offset="0"/><stop id="u" stop-color="#eeeeec" offset="1"/></radialGradient><linearGradient id="d" x1="13.742" x2="18.371" y1="9.6719" y2="21.977" gradientUnits="userSpaceOnUse"><stop id="v" stop-color="#2e3436" offset="0"/><stop id="w" stop-color="#888a85" offset="1"/></linearGradient></defs><g id="x"><g id="y" transform="translate(0,-1)" fill="#fce94f" fill-rule="nonzero" stroke="#c4a000" stroke-linecap="square" stroke-linejoin="miter" stroke-miterlimit="4" stroke-width="1"><rect id="z" x="26.5" y="10.502" width="2.0021" height="1.9978" color="black"/><rect id="aa" x="26.5" y="6.5022" width="2.0021" height="1.9978" color="black"/><rect id="ab" x="26.5" y="18.5" width="2.0021" height="1.9978" color="black"/><rect id="ac" x="26.5" y="14.5" width="2.0021" height="1.9978" color="black"/><rect id="ad" x="26.5" y="22.502" width="2.0021" height="1.9978" color="black"/></g><g id="ae" transform="matrix(0 1 -1 0 30.998 -1)" fill="#fce94f" fill-rule="nonzero" stroke="#c4a000" stroke-linecap="square" stroke-linejoin="miter" stroke-miterlimit="4" stroke-width="1"><rect id="af" x="26.5" y="10.502" width="2.0021" height="1.9978" color="black"/><rect id="ag" x="26.5" y="6.5022" width="2.0021" height="1.9978" color="black"/><rect id="ah" x="26.5" y="18.5" width="2.0021" height="1.9978" color="black"/><rect id="ai" x="26.5" y="14.5" width="2.0021" height="1.9978" color="black"/><rect id="aj" x="26.5" y="22.502" width="2.0021" height="1.9978" color="black"/></g><g id="ak" transform="matrix(0 1 -1 0 30.998 -25)" fill="#fce94f" fill-rule="nonzero" stroke="#c4a000" stroke-linecap="square" stroke-linejoin="miter" stroke-miterlimit="4" stroke-width="1"><rect id="al" x="26.5" y="10.502" width="2.0021" height="1.9978" color="black"/><rect id="am" x="26.5" y="6.5022" width="2.0021" height="1.9978" color="black"/><rect id="an" x="26.5" y="18.5" width="2.0021" height="1.9978" color="black"/><rect id="ao" x="26.5" y="14.5" width="2.0021" height="1.9978" color="black"/><rect id="ap" x="26.5" y="22.502" width="2.0021" height="1.9978" color="black"/></g><g id="aq" transform="translate(-24.002 -1.0022)" fill="#fce94f" fill-rule="nonzero" stroke="url(#e)" stroke-linecap="square" stroke-linejoin="miter" stroke-miterlimit="4" stroke-width="1"><rect id="ar" x="26.5" y="10.502" width="2.0021" height="1.9978" color="black"/><rect id="as" x="26.5" y="6.5022" width="2.0021" height="1.9978" color="black"/><rect id="at" x="26.5" y="18.5" width="2.0021" height="1.9978" color="black"/><rect id="au" x="26.5" y="14.5" width="2.0021" height="1.9978" color="black"/><rect id="av" x="26.5" y="22.502" width="2.0021" height="1.9978" color="black"/></g><rect id="aw" x="4.4938" y="3.4938" width="22.006" height="22.006" color="black" fill="url(#b)" fill-rule="nonzero" stroke="url(#f)" stroke-linecap="square" stroke-linejoin="miter" stroke-miterlimit="4" stroke-width="1"/><path id="ax" transform="matrix(1.5,0,0,1.5,-11,-4)" d="m24 7c0 0.55228-0.44772 1-1 1s-1-0.44772-1-1 0.44772-1 1-1 1 0.44772 1 1z" color="black" fill="url(#c)" fill-rule="nonzero" opacity=".35"/><rect id="ay" x="5.5001" y="4.5001" width="20" height="20" color="black" fill="none" stroke="url(#g)" stroke-linecap="square" stroke-linejoin="miter" stroke-miterlimit="4" stroke-width="1"/><path id="az" transform="matrix(1.0667 0 0 1.0667 -1.0333 -2.5667)" d="m23 16c0 4.1421-3.3579 7.5-7.5 7.5s-7.5-3.3579-7.5-7.5 3.3579-7.5 7.5-7.5 7.5 3.3579 7.5 7.5v0z" color="black" fill="url(#a)" fill-rule="nonzero" stroke="url(#d)" stroke-linecap="square" stroke-linejoin="miter" stroke-miterlimit="4" stroke-width=".9375"/><path id="ba" transform="matrix(1.1314 0 0 1.1143 4.2 -10.146)" d="m13.965 18.532a0.44194 0.45299 0 1 1-0.88388 0 0.44194 0.45299 0 1 1 0.88388 0z" color="black" fill="#2e3436" fill-rule="nonzero" opacity=".47843"/><g id="bb" fill="#000" fill-rule="nonzero"><path id="bc" transform="matrix(1.15 0 0 1.1143 1.9728 -1.6649)" d="m13.965 18.532a0.44194 0.45299 0 1 1-0.88388 0 0.44194 0.45299 0 1 1 0.88388 0z" color="black" opacity=".18431"/><path id="bd" transform="matrix(1.15 0 0 1.1143 -2.0602 -1.6458)" d="m13.965 18.532a0.44194 0.45299 0 1 1-0.88388 0 0.44194 0.45299 0 1 1 0.88388 0z" color="black" opacity=".18431"/></g><path id="be" d="M 20,19 L 18,17 C 19,16 19,14 18.976582,10.971629 C 20,12 23,16 20,19 z " fill="#c00" fill-rule="evenodd"/><path id="bf" d="m19.743 10.257-1.4142 1.4142" fill="none" opacity=".1" stroke="#000" stroke-linecap="round" stroke-linejoin="miter" stroke-width="1px"/><path id="bg" d="m15.5 14.5 5.5-3.5-3.5 5.5-2.5 0.5 0.5-2.5z" fill="#000" fill-rule="evenodd" opacity=".11765"/><path id="bh" d="m12.672 17.328-1.4142 1.4142" fill="#babdb6" fill-opacity=".75" fill-rule="evenodd" opacity=".1" stroke="#000" stroke-linecap="round" stroke-linejoin="miter" stroke-width="1px"/><path id="bi" transform="matrix(.93333 0 0 .93333 1.0333 -.43336)" d="m23 16c0 4.1421-3.3579 7.5-7.5 7.5s-7.5-3.3579-7.5-7.5 3.3579-7.5 7.5-7.5 7.5 3.3579 7.5 7.5v0z" color="black" fill="none" stroke="#d3d7cf" stroke-linecap="square" stroke-linejoin="miter" stroke-miterlimit="4" stroke-width="1.0714"/><g id="bj"><path id="bk" d="m14.5 13.5 5.5-3.5-3.5 5.5-2.5 0.5 0.5-2.5z" fill="#000" fill-rule="evenodd"/><path id="bl" d="m16 14.5c0 0.27614-0.22386 0.5-0.5 0.5s-0.5-0.22386-0.5-0.5 0.22386-0.5 0.5-0.5 0.5 0.22386 0.5 0.5z" color="black" fill="#eeeeec" fill-rule="nonzero"/></g><path id="bm" d="m15.5 8.5v2" fill="none" opacity=".1" stroke="#000" stroke-linecap="round" stroke-linejoin="miter" stroke-width="1px"/><path id="bn" d="m11.5 14.5h-2" fill="#babdb6" fill-opacity=".75" fill-rule="evenodd" opacity=".1" stroke="#000" stroke-linecap="round" stroke-linejoin="miter" stroke-width="1px"/><path id="bo" d="m12.672 11.672-1.4142-1.4142" fill="#babdb6" fill-opacity=".75" fill-rule="evenodd" opacity=".1" stroke="#000" stroke-linecap="round" stroke-linejoin="miter" stroke-width="1px"/><path id="bp" transform="matrix(1.15 0 0 1.1143 -2.0602 -2.1458)" d="m13.965 18.532a0.44194 0.45299 0 1 1-0.88388 0 0.44194 0.45299 0 1 1 0.88388 0z" color="black" fill="#2e3436" fill-rule="nonzero"/><path id="bq" transform="matrix(1.15 0 0 1.1143 1.9563 -2.1553)" d="m13.965 18.532a0.44194 0.45299 0 1 1-0.88388 0 0.44194 0.45299 0 1 1 0.88388 0z" color="black" fill="#2e3436" fill-rule="nonzero"/><path id="br" transform="matrix(1.15 0 0 1.1143 -4.0437 -2.1553)" d="m13.965 18.532a0.44194 0.45299 0 1 1-0.88388 0 0.44194 0.45299 0 1 1 0.88388 0z" color="black" fill="#2e3436" fill-rule="nonzero" opacity=".47843"/><path id="bs" transform="matrix(1.15 0 0 1.1143 -6.0602 -6.1458)" d="m13.965 18.532a0.44194 0.45299 0 1 1-0.88388 0 0.44194 0.45299 0 1 1 0.88388 0z" color="black" fill="#2e3436" fill-rule="nonzero" opacity=".47843"/><path id="bt" transform="matrix(1.1314 0 0 1.1143 -3.8 -10.155)" d="m13.965 18.532a0.44194 0.45299 0 1 1-0.88388 0 0.44194 0.45299 0 1 1 0.88388 0z" color="black" fill="#2e3436" fill-rule="nonzero" opacity=".47843"/><path id="bu" transform="matrix(1.15 0 0 1.1143 -.060163 -12.146)" d="m13.965 18.532a0.44194 0.45299 0 1 1-0.88388 0 0.44194 0.45299 0 1 1 0.88388 0z" color="black" fill="#2e3436" fill-rule="nonzero" opacity=".47843"/><path id="bv" transform="matrix(1.1314 0 0 1.1143 6.2 -6.1553)" d="m13.965 18.532a0.44194 0.45299 0 1 1-0.88388 0 0.44194 0.45299 0 1 1 0.88388 0z" color="black" fill="#2e3436" fill-rule="nonzero" opacity=".55294"/><path id="bw" transform="matrix(1.1314 0 0 1.1143 4.2 -2.1553)" d="m13.965 18.532a0.44194 0.45299 0 1 1-0.88388 0 0.44194 0.45299 0 1 1 0.88388 0z" color="black" fill="#2e3436" fill-rule="nonzero" opacity=".55294"/></g></svg>
