<?xml version="1.0" encoding="UTF-8"?>
<svg id="d" version="1.0" viewBox="0 0 48 48" xmlns="http://www.w3.org/2000/svg" xmlns:xlink="http://www.w3.org/1999/xlink"><defs id="e"><linearGradient id="c" x1="23.281" x2="21.781" y1="21.406" y2="55.906" gradientUnits="userSpaceOnUse"><stop id="f" stop-color="#fff" offset="0"/><stop id="g" stop-color="#fff" stop-opacity="0" offset="1"/></linearGradient><radialGradient id="b" cx="25.906" cy="18.031" r="19.005" gradientTransform="matrix(.73703 0 0 .73703 6.8126 4.7417)" gradientUnits="userSpaceOnUse"><stop id="h" stop-color="#fff" offset="0"/><stop id="i" stop-color="#d3d7cf" offset="1"/></radialGradient><radialGradient id="a" cx="25.312" cy="40.75" r="18.062" gradientTransform="matrix(1 0 0 .35294 0 26.368)" gradientUnits="userSpaceOnUse"><stop id="j" offset="0"/><stop id="k" stop-opacity="0" offset="1"/></radialGradient></defs><g id="l"><path id="m" transform="matrix(1.1384 0 0 1.1384 -3.5035 -7.6401)" d="m43.375 40.75a18.062 6.375 0 1 1-36.125 0 18.062 6.375 0 1 1 36.125 0z" color="#000000" fill="url(#a)" fill-rule="evenodd" opacity=".23596"/><path id="n" d="m23.562 5.5312v5.125c-2.5689 0.35725-4.9163 1.4175-6.8438 2.9688l-3.7188-3.7188c-1.905-1.905-3.954 0.23346-2.0938 2.0938l3.7188 3.7188c-1.558 1.9184-2.6045 4.2511-2.9688 6.8125h-5.125c-2.7457 0-2.4765 2.9688 0 2.9688h5.0312c0.19321 2.7059 1.1412 5.1836 2.6562 7.25l-3.3125 3.3125c-1.8125 1.8125 0.41205 3.7755 2.0938 2.0938l3.1875-3.1875c2.0174 1.7969 4.568 2.9879 7.375 3.375v4.1875c0 2.6531 2.9688 2.6575 2.9688 0v-4.0625c2.929-0.21325 5.5965-1.3515 7.75-3.0938l2.7812 2.7812c1.5026 1.6794 3.8615-0.41437 2.0938-2.0938l-2.7812-2.7812c1.75-2.165 2.8537-4.8383 3.0625-7.7812h4.0938c2.0349 0 2.3049-2.9688 0-2.9688h-4.1875c-0.39161-2.795-1.5845-5.3335-3.375-7.3438l3.1875-3.1875c1.591-1.7678-0.50276-3.5964-2.0938-2.0938l-3.3125 3.3125c-2.0586-1.5094-4.5248-2.4579-7.2188-2.6562v-5.0312c0-2.3881-2.9688-2.2097-2.9688 0z" color="#000000" fill="url(#b)" fill-rule="evenodd" stroke="#888a85" stroke-linejoin="miter" stroke-miterlimit="4" stroke-width="1.0102"/><path id="o" d="m25.094 4.6875c-0.29118 0.0087497-0.65625 0.14306-0.65625 0.84375v5.125c6.13e-4 0.43694-0.3181 0.80878-0.75 0.875-2.4053 0.33451-4.5986 1.3264-6.4062 2.7812-0.35279 0.28831-0.86692 0.26125-1.1875-0.0625l-3.7188-3.7188c-0.72351-0.72351-1.0402-0.52544-1.1875-0.375s-0.35192 0.52308 0.34375 1.2188l3.7188 3.7188c0.32375 0.32058 0.35081 0.83471 0.0625 1.1875-1.459 1.7966-2.4397 3.9732-2.7812 6.375-0.066221 0.4319-0.43806 0.75061-0.875 0.75h-5.125c-0.52715 0-0.80923 0.13919-0.9375 0.25s-0.13011 0.19974-0.125 0.3125c0.010228 0.22552 0.17747 0.65625 1.0625 0.65625h5.0312c0.45815 0.003151 0.83797 0.35584 0.875 0.8125 0.18131 2.5392 1.0802 4.8447 2.5 6.7812 0.26138 0.35489 0.22139 0.8481-0.09375 1.1562l-3.3125 3.3125c-0.3328 0.3328-0.39853 0.59113-0.40625 0.75s0.034115 0.25837 0.125 0.34375c0.18177 0.17076 0.54353 0.33147 1.125-0.25l3.1875-3.1875c0.33294-0.33371 0.86915-0.34746 1.2188-0.03125 1.886 1.6798 4.2706 2.7928 6.9062 3.1562 0.4319 0.066221 0.75061 0.43806 0.75 0.875v4.1875c0 0.99688 0.40986 1.0936 0.625 1.0938s0.59375-0.094113 0.59375-1.0938v-4.0625c0.003151-0.45815 0.35584-0.83797 0.8125-0.875 2.7405-0.19953 5.2277-1.2701 7.25-2.9062 0.35279-0.28831 0.86692-0.26125 1.1875 0.0625l2.7812 2.7812c0.010675 0.010155 0.021095 0.020575 0.03125 0.03125 0.47633 0.53237 0.77258 0.37012 1 0.15625 0.11371-0.10694 0.18892-0.22939 0.1875-0.375s-0.039463-0.33593-0.34375-0.625c-0.010675-0.010155-0.021095-0.020575-0.03125-0.03125l-2.7812-2.7812c-0.32375-0.32058-0.35081-0.83471-0.0625-1.1875 1.6406-2.0296 2.679-4.5199 2.875-7.2812 0.037033-0.45666 0.41685-0.80935 0.875-0.8125h4.0938c0.58758 0 0.73577-0.34342 0.75-0.65625 0.007114-0.15642-0.039086-0.28545-0.125-0.375s-0.23852-0.1875-0.625-0.1875h-4.1875c-0.43694 6.13e-4 -0.80878-0.3181-0.875-0.75-0.36759-2.6236-1.4819-4.9951-3.1562-6.875-0.3162-0.3496-0.30246-0.88581 0.03125-1.2188l3.1562-3.1562c0.015299-0.016998 0.017035-0.014815 0.03125-0.03125 0.5109-0.59068 0.33282-0.83461 0.15625-1-0.18148-0.16999-0.50659-0.30801-1.0312 0.1875l-3.2812 3.2812c-0.30815 0.31514-0.80136 0.35513-1.1562 0.09375-1.9296-1.4147-4.2224-2.3139-6.75-2.5-0.45666-0.037033-0.80935-0.41685-0.8125-0.875v-5.0312c0-0.41776-0.12362-0.58932-0.21875-0.6875s-0.19816-0.16062-0.34375-0.15625z" color="#000000" fill="none" opacity=".64607" stroke="url(#c)" stroke-linejoin="miter" stroke-miterlimit="4" stroke-width="1"/></g></svg>
