<?xml version="1.0" encoding="UTF-8"?>
<svg id="ai" version="1.0" viewBox="0 0 48 48" xmlns="http://www.w3.org/2000/svg" xmlns:xlink="http://www.w3.org/1999/xlink"><defs id="aj"><linearGradient id="ah"><stop id="ak" stop-color="#fff" offset="0"/><stop id="al" stop-color="#fff" stop-opacity="0" offset="1"/></linearGradient><linearGradient id="c"><stop id="am" stop-color="#747474" offset="0"/><stop id="an" stop-color="#b0b0b0" offset=".62069"/><stop id="ao" stop-color="#3f3f3f" offset="1"/></linearGradient><linearGradient id="a"><stop id="ap" stop-color="#747474" offset="0"/><stop id="aq" stop-color="#fff" offset=".62069"/><stop id="ar" stop-color="#3f3f3f" offset="1"/></linearGradient><linearGradient id="b"><stop id="as" stop-color="#ebff39" offset="0"/><stop id="at" stop-color="#ebff39" stop-opacity="0" offset="1"/></linearGradient><linearGradient id="ag" x1="6.221" x2="6.2377" y1="42.891" y2="39.267" gradientTransform="matrix(1.9844 0 0 1 -5.9062 0)" gradientUnits="userSpaceOnUse" xlink:href="#b"/><linearGradient id="af" x1="6.221" x2="6.2377" y1="42.891" y2="39.267" gradientTransform="matrix(1.9844 0 0 1 -2.8906 0)" gradientUnits="userSpaceOnUse" xlink:href="#b"/><linearGradient id="ae" x1="6.221" x2="6.2377" y1="42.891" y2="39.267" gradientTransform="matrix(1.9844 0 0 1 .09375 0)" gradientUnits="userSpaceOnUse" xlink:href="#b"/><linearGradient id="ad" x1="6.221" x2="6.2377" y1="42.891" y2="39.267" gradientTransform="matrix(1.9844 0 0 1 3.0938 -.013595)" gradientUnits="userSpaceOnUse" xlink:href="#b"/><linearGradient id="ac" x1="6.221" x2="6.2377" y1="42.891" y2="39.267" gradientTransform="matrix(1.9844 0 0 1 6.0938 -.013595)" gradientUnits="userSpaceOnUse" xlink:href="#b"/><linearGradient id="ab" x1="6.221" x2="6.2377" y1="42.891" y2="39.267" gradientTransform="matrix(1.9844 0 0 1 9.1094 -.013595)" gradientUnits="userSpaceOnUse" xlink:href="#b"/><linearGradient id="aa" x1="6.221" x2="6.2377" y1="42.891" y2="39.267" gradientTransform="matrix(1.9844 0 0 1 12.109 -.013595)" gradientUnits="userSpaceOnUse" xlink:href="#b"/><linearGradient id="z" x1="6.221" x2="6.2377" y1="42.891" y2="39.267" gradientTransform="matrix(1.9844 0 0 1 15.109 -.013595)" gradientUnits="userSpaceOnUse" xlink:href="#b"/><linearGradient id="y" x1="16.965" x2="18.968" y1="20.166" y2="31.347" gradientTransform="matrix(.93474 0 0 1.1494 6.5188 -5.8596)" gradientUnits="userSpaceOnUse"><stop id="au" stop-color="#fff" offset="0"/><stop id="av" stop-color="#fff" stop-opacity="0" offset="1"/></linearGradient><linearGradient id="x" x1="24" x2="27" y1="19.5" y2="19.5" gradientTransform="translate(5,-2)" gradientUnits="userSpaceOnUse" xlink:href="#a"/><linearGradient id="w" x1="24" x2="27" y1="21.5" y2="21.5" gradientTransform="translate(5,-2)" gradientUnits="userSpaceOnUse" xlink:href="#a"/><linearGradient id="v" x1="24" x2="27" y1="23.5" y2="23.5" gradientTransform="translate(5,-2)" gradientUnits="userSpaceOnUse" xlink:href="#a"/><linearGradient id="d" x1="8" x2="4.3284" y1="19.5" y2="19.5" gradientTransform="translate(6,-2)" gradientUnits="userSpaceOnUse" xlink:href="#a"/><linearGradient id="u" x1="8" x2="4.3284" y1="19.5" y2="19.5" gradientTransform="translate(8,-35)" gradientUnits="userSpaceOnUse" xlink:href="#a"/><linearGradient id="t" x1="8" x2="4.3284" y1="19.5" y2="19.5" gradientTransform="translate(8,-37)" gradientUnits="userSpaceOnUse" xlink:href="#a"/><linearGradient id="s" x1="8" x2="4.3284" y1="19.5" y2="19.5" gradientTransform="translate(8,-39)" gradientUnits="userSpaceOnUse" xlink:href="#a"/><linearGradient id="r" x1="8" x2="4.3284" y1="19.5" y2="19.5" gradientTransform="translate(8,-41)" gradientUnits="userSpaceOnUse" xlink:href="#a"/><linearGradient id="q" x1="8" x2="4.3284" y1="19.5" y2="19.5" gradientTransform="translate(8,-43)" gradientUnits="userSpaceOnUse" xlink:href="#a"/><linearGradient id="p" x1="8" x2="4.3284" y1="19.5" y2="19.5" gradientTransform="translate(8,-45)" gradientUnits="userSpaceOnUse" xlink:href="#a"/><linearGradient id="o" x1="8" x2="4.3284" y1="19.5" y2="19.5" gradientTransform="translate(8,-47)" gradientUnits="userSpaceOnUse" xlink:href="#a"/><linearGradient id="n" x1="7.1161" x2="4.7127" y1="11.5" y2="11.5" gradientTransform="translate(18,-35)" gradientUnits="userSpaceOnUse" xlink:href="#c"/><linearGradient id="m" x1="7.1161" x2="4.7127" y1="13.5" y2="13.5" gradientTransform="translate(18,-37)" gradientUnits="userSpaceOnUse" xlink:href="#c"/><linearGradient id="l" x1="7.1161" x2="4.7127" y1="15.5" y2="15.5" gradientTransform="translate(18,-39)" gradientUnits="userSpaceOnUse" xlink:href="#c"/><linearGradient id="k" x1="7.1161" x2="4.7127" y1="17.5" y2="17.5" gradientTransform="translate(18,-41)" gradientUnits="userSpaceOnUse" xlink:href="#c"/><linearGradient id="j" x1="7.1161" x2="4.7127" y1="19.5" y2="19.5" gradientTransform="translate(18,-43)" gradientUnits="userSpaceOnUse" xlink:href="#c"/><linearGradient id="i" x1="7.1161" x2="4.7127" y1="21.5" y2="21.5" gradientTransform="translate(18,-45)" gradientUnits="userSpaceOnUse" xlink:href="#c"/><linearGradient id="h" x1="7.1161" x2="4.7127" y1="23.5" y2="23.5" gradientTransform="translate(18,-47)" gradientUnits="userSpaceOnUse" xlink:href="#c"/><linearGradient id="g" x1="20.047" x2="39.003" y1="22.747" y2="49.794" gradientTransform="translate(6,-2)" gradientUnits="userSpaceOnUse"><stop id="aw" stop-color="#788600" offset="0"/><stop id="ax" stop-color="#505900" offset="1"/></linearGradient><radialGradient id="f" cx="21.5" cy="44.75" r="17" gradientTransform="matrix(1 0 0 .22059 0 34.879)" gradientUnits="userSpaceOnUse"><stop id="ay" offset="0"/><stop id="az" stop-opacity="0" offset="1"/></radialGradient><linearGradient id="e" x1="40.547" x2="47.375" y1="1.125" y2="37.75" gradientUnits="userSpaceOnUse" xlink:href="#ah"/></defs><g id="ba"><g id="bb"><path id="bc" d="m7.501 11.63 0.0039063 26.72c0 0.078878 0.088802 0.15021 0.18678 0.15021l2.8116 0.015625-0.003906 4.8533c0 0.071268 0.022397 0.12634 0.12428 0.12677l26.756-0.007813c0.092415-0.003698 0.12428-0.063744 0.12428-0.12677l0.003907-4.8689 2.8824 0.007813c0.09375 0 0.11604-0.13027 0.11256-0.21271v-26.657c0.003906-0.082032-0.045511-0.12199-0.12819-0.12677h-32.749c-0.078447 0.004341-0.13209 0.05255-0.12428 0.12677z" color="#000000" display="block" fill="url(#g)" fill-rule="nonzero" stroke="#3a3e00" stroke-linejoin="miter" stroke-miterlimit="4" stroke-width="1"/><path id="bd" transform="matrix(1.2802 0 0 1 -3.1623 -1.75)" d="m38.5 44.75a17 3.75 0 1 1-34 0 17 3.75 0 1 1 34 0z" color="#000000" display="block" fill="url(#f)" fill-rule="nonzero" opacity=".61932"/><path id="be" d="m31 21.472 0.064355 0.53094 2.4244 1.8922v4.6038h-17.059v3.9333" color="#000000" display="block" fill="none" stroke="#98a332" stroke-linejoin="miter" stroke-miterlimit="4" stroke-width="1"/><path id="bf" d="m13.442 40.961 0.054846-5.7807 1.901-2.6665h22.072v-5.3717l-5.5797-5.5286 4.1101-0.14384v-4.4697h-4" color="#000000" display="block" fill="none" stroke="#98a332" stroke-linejoin="miter" stroke-miterlimit="4" stroke-width="1"/><path id="bg" d="m19.5 40.961 0.054846-5.7807 1.901-2.6665" color="#000000" display="block" fill="none" stroke="#98a332" stroke-linejoin="miter" stroke-miterlimit="4" stroke-width="1"/><path id="bh" d="m16.5 40.961 0.054846-5.7807 1.901-2.6665" color="#000000" display="block" fill="none" stroke="#98a332" stroke-linejoin="miter" stroke-miterlimit="4" stroke-width="1"/><g id="bi" transform="translate(6,-2)" fill="none" stroke="#98a332" stroke-linejoin="miter" stroke-miterlimit="4" stroke-width="1"><path id="bj" d="m16.5 42.961 0.054846-5.7807 1.901-2.6665" color="#000000" display="block"/><path id="bk" d="m19.5 42.961 0.054846-5.7807 1.901-2.6665" color="#000000" display="block"/><path id="bl" d="m22.5 42.961 0.054846-5.7807 1.901-2.6665" color="#000000" display="block"/><path id="bm" d="m25.544 42.961 0.054846-5.7807 1.901-2.6665" color="#000000" display="block"/><path id="bn" d="m28.5 42.961 0.054846-5.7807 1.901-2.6665" color="#000000" display="block"/></g><g id="bo" transform="translate(6,-2)" fill-rule="nonzero"><path id="bp" d="m6.9922 39.594c0.79967 0 0.99219 0.62925 0.99219 0.90625v4.4198h-1.9844v-4.4198c0-0.277 0.20814-0.90625 0.99219-0.90625z" color="#000000" display="block" fill="url(#ag)"/><path id="bq" d="m10.008 39.594c0.79967 0 0.99219 0.62925 0.99219 0.90625v4.4198h-1.9844v-4.4198c0-0.277 0.20814-0.90625 0.99219-0.90625z" color="#000000" display="block" fill="url(#af)"/><path id="br" d="m12.992 39.594c0.79967 0 0.99219 0.62925 0.99219 0.90625v4.4198h-1.9844v-4.4198c0-0.277 0.20814-0.90625 0.99219-0.90625z" color="#000000" display="block" fill="url(#ae)"/><path id="bs" d="m15.992 39.58c0.79967 0 0.99219 0.62925 0.99219 0.90625v4.4198h-1.9844v-4.4198c0-0.277 0.20814-0.90625 0.99219-0.90625z" color="#000000" display="block" fill="url(#ad)"/><path id="bt" d="m18.992 39.58c0.79967 0 0.99219 0.62925 0.99219 0.90625v4.4198h-1.9844v-4.4198c0-0.277 0.20814-0.90625 0.99219-0.90625z" color="#000000" display="block" fill="url(#ac)"/><path id="bu" d="m22.008 39.58c0.79967 0 0.99219 0.62925 0.99219 0.90625v4.4198h-1.9844v-4.4198c0-0.277 0.20814-0.90625 0.99219-0.90625z" color="#000000" display="block" fill="url(#ab)"/><path id="bv" d="m25.008 39.58c0.79967 0 0.99219 0.62925 0.99219 0.90625v4.4198h-1.9844v-4.4198c0-0.277 0.20814-0.90625 0.99219-0.90625z" color="#000000" display="block" fill="url(#aa)"/><path id="bw" d="m28.008 39.58c0.79967 0 0.99219 0.62925 0.99219 0.90625v4.4198h-1.9844v-4.4198c0-0.277 0.20814-0.90625 0.99219-0.90625z" color="#000000" display="block" fill="url(#z)"/></g><path id="bx" d="m11.406 17.312-1.875 1.25v1.875 10.062l7 0.0625" color="#000000" display="block" fill="none" stroke="#98a332" stroke-linejoin="miter" stroke-miterlimit="4" stroke-width="1"/><rect id="by" x="13.472" y="15.504" width="16.056" height="7.9305" rx=".94194" ry=".94194" color="#000000" display="block" fill="#555753" fill-rule="nonzero" stroke="#2e3436" stroke-linejoin="miter" stroke-miterlimit="4" stroke-width="1"/><rect id="bz" x="14.417" y="16.511" width="14.116" height="5.8817" rx="0" ry="0" color="#000000" display="block" fill="none" opacity=".17045" stroke="url(#y)" stroke-linejoin="miter" stroke-miterlimit="4" stroke-width="1"/><rect id="ca" x="11" y="17" width="3" height="1" color="#000000" display="block" fill="url(#d)" fill-rule="nonzero"/><path id="cb" d="m11.641 19.5-2.125 1.0625v2.4375" color="#000000" display="block" fill="none" stroke="#98a332" stroke-linejoin="miter" stroke-miterlimit="4" stroke-width="1"/><rect id="cc" x="11" y="19" width="3" height="1" color="#000000" display="block" fill="url(#d)" fill-rule="nonzero"/><path id="cd" d="m11.5 21.562-2 1.4375" color="#000000" display="block" fill="none" stroke="#98a332" stroke-linejoin="miter" stroke-miterlimit="4" stroke-width="1"/><rect id="ce" x="11" y="21" width="3" height="1" color="#000000" display="block" fill="url(#d)" fill-rule="nonzero"/><rect id="cf" x="29" y="17" width="3" height="1" color="#000000" display="block" fill="url(#x)" fill-rule="nonzero"/><rect id="cg" x="29" y="19" width="3" height="1" color="#000000" display="block" fill="url(#w)" fill-rule="nonzero"/><rect id="ch" x="29" y="21" width="3" height="1" color="#000000" display="block" fill="url(#v)" fill-rule="nonzero"/><rect id="ci" transform="rotate(90)" x="13" y="-16" width="3" height="1" color="#000000" display="block" fill="url(#u)" fill-rule="nonzero"/><rect id="cj" transform="rotate(90)" x="13" y="-18" width="3" height="1" color="#000000" display="block" fill="url(#t)" fill-rule="nonzero"/><rect id="ck" transform="rotate(90)" x="13" y="-20" width="3" height="1" color="#000000" display="block" fill="url(#s)" fill-rule="nonzero"/><rect id="cl" transform="rotate(90)" x="13" y="-22" width="3" height="1" color="#000000" display="block" fill="url(#r)" fill-rule="nonzero"/><rect id="cm" transform="rotate(90)" x="13" y="-24" width="3" height="1" color="#000000" display="block" fill="url(#q)" fill-rule="nonzero"/><rect id="cn" transform="rotate(90)" x="13" y="-26" width="3" height="1" color="#000000" display="block" fill="url(#p)" fill-rule="nonzero"/><rect id="co" transform="rotate(90)" x="13" y="-28" width="3" height="1" color="#000000" display="block" fill="url(#o)" fill-rule="nonzero"/><g id="cp" transform="translate(6,-2)" fill="none" stroke="#98a332" stroke-linejoin="miter" stroke-miterlimit="4" stroke-width="1"><path id="cq" d="m9.4576 27.582 1.0607 2.9168h1.9445l-1.0607-2.961" color="#000000" display="block"/><path id="cr" d="m13.458 27.582 1.0607 2.9168h1.9445l-1.0607-2.961" color="#000000" display="block"/><path id="cs" d="m17.458 27.582 1.0607 2.9168h1.9445l-1.0607-2.961" color="#000000" display="block"/><path id="ct" d="m21.458 27.582 1.0607 2.9168" color="#000000" display="block"/></g><rect id="cu" transform="rotate(90)" x="23" y="-16" width="3" height="1" color="#000000" display="block" fill="url(#n)" fill-rule="nonzero"/><rect id="cv" transform="rotate(90)" x="23" y="-18" width="3" height="1" color="#000000" display="block" fill="url(#m)" fill-rule="nonzero"/><rect id="cw" transform="rotate(90)" x="23" y="-20" width="3" height="1" color="#000000" display="block" fill="url(#l)" fill-rule="nonzero"/><rect id="cx" transform="rotate(90)" x="23" y="-22" width="3" height="1" color="#000000" display="block" fill="url(#k)" fill-rule="nonzero"/><rect id="cy" transform="rotate(90)" x="23" y="-24" width="3" height="1" color="#000000" display="block" fill="url(#j)" fill-rule="nonzero"/><rect id="cz" transform="rotate(90)" x="23" y="-26" width="3" height="1" color="#000000" display="block" fill="url(#i)" fill-rule="nonzero"/><path id="da" d="m8.5012 37.502 2.9981-5.6e-5 0.011049 4.9831 25.001-0.002412-0.002855-4.9873 2.9898 0.002681c0.003972-4.09e-4 0.003732-24.994 0.003732-24.994l-30.997-0.002178c0.004041 8.3386-0.0035021 25-0.0035021 25z" color="#000000" display="block" fill="none" opacity=".23864" stroke="#fff" stroke-linejoin="miter" stroke-miterlimit="4" stroke-width="1"/><rect id="db" transform="rotate(90)" x="23" y="-28" width="3" height="1" color="#000000" display="block" fill="url(#h)" fill-rule="nonzero"/></g><g id="dc" fill="#3465a4"><path id="dd" d="m46.926 3.888-6.9721 9.1324h7.0934v2.9998h-12.572v-0.58681l8.9243-11.462h-8.3838l0.0625-3.0013h11.91l-0.0625 2.9176z" stroke="#204a87" stroke-linejoin="miter" stroke-miterlimit="4" stroke-width="2"/><path id="de" d="m46.926 3.888-6.9721 9.1324h7.0934v2.9998h-12.572v-0.58681l8.9243-11.462h-8.3838l0.0625-3.0013h11.91"/><path id="df" d="m35.469 1.3438-0.0625 2.25h8c0.13643 0.0083485 0.25752 0.090261 0.31603 0.21379 0.058513 0.12353 0.045188 0.26911-0.034779 0.37996l-8.8438 11.344v0.125h11.844v-2.25h-6.7188c-0.14205 0.002993-0.2736-0.074548-0.33978-0.20028s-0.055615-0.27807 0.027277-0.39347l6.9062-9.0625 0.0625-2.4062h-11.156z" opacity=".21348" stroke="url(#e)" stroke-linejoin="miter" stroke-width="1px"/></g><g id="dg" transform="matrix(.56785 0 0 .56785 7.2843 18.449)" fill="#3465a4"><path id="dh" d="m46.926 3.888-6.9721 9.1324h7.0934v3.7702h-12.572v-0.58681l8.9243-12.232h-8.3838l0.0625-3.0013h11.91l-0.0625 2.9176z" stroke="#204a87" stroke-linejoin="miter" stroke-miterlimit="4" stroke-width="3.5221"/><path id="di" d="m46.926 3.888-6.9721 9.1324h7.0934v2.9998h-12.572v-0.58681l8.9243-11.462h-8.3838l0.0625-3.0013h11.91"/><path id="dj" d="m35.469 1.3438-0.0625 2.25h8c0.13643 0.0083485 0.25752 0.090261 0.31603 0.21379 0.058513 0.12353 0.045188 0.26911-0.034779 0.37996l-8.8438 11.344v0.125h11.844v-2.25h-6.7188c-0.14205 0.002993-0.2736-0.074548-0.33978-0.20028s-0.055615-0.27807 0.027277-0.39347l6.9062-9.0625 0.0625-2.4062h-11.156z" opacity=".21348" stroke="url(#e)" stroke-linejoin="miter" stroke-width="1.761px"/></g></g></svg>
