<?xml version="1.0" encoding="UTF-8"?>
<svg id="o" viewBox="0 0 48 48" xmlns="http://www.w3.org/2000/svg" xmlns:xlink="http://www.w3.org/1999/xlink"><defs id="p"><linearGradient id="b"><stop id="q" offset="0"/><stop id="r" stop-opacity="0" offset="1"/></linearGradient><linearGradient id="a" x1="-20.75" x2="-19.5" y1="29" y2="18.75" gradientUnits="userSpaceOnUse" xlink:href="#i"/><linearGradient id="i"><stop id="s" stop-color="#fff" offset="0"/><stop id="t" stop-color="#fff" stop-opacity="0" offset="1"/></linearGradient><linearGradient id="f" x1="-17.863" x2="-20.822" y1="30.828" y2="25.015" gradientUnits="userSpaceOnUse"><stop id="u" stop-color="#73d216" offset="0"/><stop id="v" stop-color="#d5f7b3" offset="1"/></linearGradient><linearGradient id="g" x1="-16.387" x2="-9.7353" y1="24.454" y2="28.196" gradientUnits="userSpaceOnUse"><stop id="w" stop-color="#5b8ccb" offset="0"/><stop id="x" stop-color="#3465a4" offset="1"/></linearGradient><linearGradient id="h" x1="-22.976" x2="-14.36" y1="18.516" y2="33.016" gradientUnits="userSpaceOnUse"><stop id="y" stop-color="#ff7171" offset="0"/><stop id="z" stop-color="#c00" offset="1"/></linearGradient><radialGradient id="c" cx="28.284" cy="47.401" r="13.804" gradientTransform="scale(1.1642 .85894)" gradientUnits="userSpaceOnUse"><stop id="aa" offset="0"/><stop id="ab" stop-opacity="0" offset="1"/></radialGradient><linearGradient id="j" x1="22.5" x2="25.643" y1="18" y2="19.286" gradientTransform="translate(1 3.9409)" gradientUnits="userSpaceOnUse"><stop id="ac" stop-color="#fff" offset="0"/><stop id="ad" stop-color="#eeeeec" offset="1"/></linearGradient><linearGradient id="k" x1="32.571" x2="19.5" y1="32.429" y2="22.357" gradientTransform="matrix(1 0 0 .88573 1 4.9868)" gradientUnits="userSpaceOnUse"><stop id="ae" stop-color="#babdb6" offset="0"/><stop id="af" stop-color="#eeeeec" offset="1"/></linearGradient><linearGradient id="l" x1="12.277" x2="12.222" y1="37.206" y2="33.759" gradientTransform="matrix(1 0 0 1.0845 3.2045 -7.8425)" gradientUnits="userSpaceOnUse"><stop id="ag" stop-color="#eee" offset="0"/><stop id="ah" stop-color="#eee" stop-opacity="0" offset="1"/></linearGradient><linearGradient id="m" x1="7.0625" x2="24.688" y1="35.281" y2="35.281" gradientTransform="matrix(.67376 0 0 1.0845 6.2416 -9.2476)" gradientUnits="userSpaceOnUse"><stop id="ai" stop-color="#838383" offset="0"/><stop id="aj" stop-color="#bbb" stop-opacity="0" offset="1"/></linearGradient><linearGradient id="n" x1="302.86" x2="302.86" y1="366.65" y2="609.51" gradientTransform="matrix(2.7744 0 0 1.9697 -1892.2 -872.89)" gradientUnits="userSpaceOnUse"><stop id="ak" stop-opacity="0" offset="0"/><stop id="al" offset=".5"/><stop id="am" stop-opacity="0" offset="1"/></linearGradient><radialGradient id="e" cx="605.71" cy="486.65" r="117.14" gradientTransform="matrix(2.7744 0 0 1.9697 -1891.6 -872.89)" gradientUnits="userSpaceOnUse" xlink:href="#b"/><radialGradient id="d" cx="605.71" cy="486.65" r="117.14" gradientTransform="matrix(-2.7744 0 0 1.9697 112.76 -872.89)" gradientUnits="userSpaceOnUse" xlink:href="#b"/></defs><g id="an"><g id="ao" transform="translate(-1.2594 1.6858)"><g id="ap" transform="matrix(.020714 0 0 .028259 43.548 30.205)" fill-rule="nonzero"><rect id="aq" x="-1559.3" y="-150.7" width="1339.6" height="478.36" color="black" fill="url(#n)" opacity=".40206"/><path id="ar" d="m-219.62-150.68v478.33c142.87 0.90045 345.4-107.17 345.4-239.2 0-132.03-159.44-239.13-345.4-239.13z" color="black" fill="url(#e)" opacity=".40206"/><path id="as" d="m-1559.3-150.68v478.33c-142.87 0.90045-345.4-107.17-345.4-239.2 0-132.03 159.44-239.13 345.4-239.13z" color="black" fill="url(#d)" opacity=".40206"/></g><path id="at" d="m11.596 10.531 26.881 0.022368 4.0154 13.093 0.025254 9.1559c0 1.9953-0.95132 2.7221-3.0607 2.7221l-29.024 0.033552c-2.1882 0-2.9547-0.75937-2.9547-2.868l0.025254-8.9876 4.0931-13.171z" fill="url(#k)" fill-rule="evenodd" stroke="#686a65" stroke-linejoin="round" stroke-width="1px"/><path id="au" d="m8 23.941 33.85 0.099746-4.4337-12.143-24.974 0.088388-4.4419 11.955z" fill="url(#j)" fill-rule="evenodd"/><path id="av" d="m12.189 11.505 25.589-0.044225 3.7361 12.628-0.012627 8.6721c0 1.1068-0.41183 1.7898-1.8929 1.7898l-29.272 0.011056c-1.2311 0-1.8022-0.36126-1.8022-1.7203l-0.037881-8.7778 3.6921-12.559z" fill="none" opacity=".61538" stroke="#fff" stroke-linejoin="miter" stroke-width="1px"/><rect id="aw" x="11" y="26" width="11.875" height="6.0328" color="black" fill="url(#m)" fill-rule="evenodd"/><path id="ax" d="m11.063 32v-4.3506c1.8355 3.448 8.2965 4.3506 12.937 4.3506h-12.937z" fill="url(#l)" fill-rule="evenodd" opacity=".81143"/><path id="ay" d="m29.5 26.56v5.0209" fill="none" stroke="#fff" stroke-linecap="square" stroke-linejoin="miter" stroke-opacity=".42373" stroke-width="1px"/><path id="az" d="m31.5 26.56v5.0209" fill="none" stroke="#fff" stroke-linecap="square" stroke-linejoin="miter" stroke-opacity=".42373" stroke-width="1px"/><path id="ba" d="m33.5 26.56v5.0209" fill="none" stroke="#fff" stroke-linecap="square" stroke-linejoin="miter" stroke-opacity=".42373" stroke-width="1px"/><path id="bb" d="m35.5 26.56v5.0209" fill="none" stroke="#fff" stroke-linecap="square" stroke-linejoin="miter" stroke-opacity=".42373" stroke-width="1px"/><path id="bc" d="m37.5 26.56v5.0209" fill="none" stroke="#fff" stroke-linecap="square" stroke-linejoin="miter" stroke-opacity=".42373" stroke-width="1px"/><path id="bd" d="m28.5 26.55v5.0209" fill="none" opacity=".097143" stroke="#000" stroke-linecap="square" stroke-linejoin="miter" stroke-width="1px"/><path id="be" d="m30.5 26.61v5.0209" fill="none" opacity=".097143" stroke="#000" stroke-linecap="square" stroke-linejoin="miter" stroke-width="1px"/><path id="bf" d="m32.5 26.61v5.0209" fill="none" opacity=".097143" stroke="#000" stroke-linecap="square" stroke-linejoin="miter" stroke-width="1px"/><path id="bg" d="m34.5 26.61v5.0209" fill="none" opacity=".097143" stroke="#000" stroke-linecap="square" stroke-linejoin="miter" stroke-width="1px"/><path id="bh" d="m36.5 26.61v5.0209" fill="none" opacity=".097143" stroke="#000" stroke-linecap="square" stroke-linejoin="miter" stroke-width="1px"/><path id="bi" d="m10 26.001v5.9989h12.562l-12.219-0.37281-0.34375-5.6261z" fill="#fff" fill-rule="evenodd" opacity=".18681"/></g><path id="bj" transform="matrix(.86167 0 0 .85148 -14.433 -.96466)" d="m49 40.714a16.071 11.857 0 1 1-32.143 0 16.071 11.857 0 1 1 32.143 0z" fill="url(#c)" fill-rule="evenodd"/><g id="bk" transform="translate(32.509 5.6785)"><path id="bl" d="m-27.529 18.093c-2.569 1.6983-3.9829 4.005-3.9829 6.4979v2.0693c0 2.4908 1.4139 4.7982 3.9829 6.4966 2.4265 1.6039 5.6331 2.4875 9.0292 2.4875 3.3948 0 6.6014-0.88356 9.0292-2.4875 2.5677-1.6983 3.9816-4.005 3.9816-6.4966v-2.0693c0-2.4929-1.4145-4.8002-3.9816-6.4979-2.4271-1.6026-5.6338-2.4868-9.0292-2.4868-3.3961 0-6.6027 0.88424-9.0292 2.4868z" fill="#670000" fill-rule="nonzero"/><path id="bm" d="m-7.0244 24.454c-1.3786-3.3865-6.0531-5.8801-11.612-5.8801-5.5593 0-10.234 2.4935-11.612 5.8801h-0.4148v2.07c0 4.3902 5.3853 7.9487 12.027 7.9487 6.6425 0 12.026-3.5585 12.026-7.9487v-2.07h-0.41415z" fill="#a40000" fill-rule="nonzero"/><path id="bn" d="m-6.6103 24.454c0 4.3908-5.384 7.9494-12.026 7.9494-6.6425 0-12.027-3.5585-12.027-7.9494 0-4.3908 5.3853-7.9494 12.027-7.9494 6.6425 0 12.026 3.5585 12.026 7.9494z" fill="url(#h)" fill-rule="nonzero"/><path id="bo" d="m-6.6103 26.833-0.01541-2.1664c-1.3041 4.5008-4.2366 6.4075-7.9235 7.341v1.9944c3.9906-1.0036 7.562-3.2887 7.9389-7.169z" fill="#204a87" fill-rule="nonzero"/><path id="bp" d="m-6.6103 24.454c-0.27546 5.0795-6.5577 7.3956-7.9614 7.484l-4.0658-7.484h12.026 6.421e-4z" fill="url(#g)" fill-rule="nonzero"/><path id="bq" d="m-21.154 34.298v-2.0693c2.2634 0.29475 4.3399 0.34668 6.5828-0.21381l0.022473 1.9877c-1.8794 0.61647-4.8196 0.64547-6.6053 0.2961v-6.75e-4z" fill="#4e9a06" fill-rule="nonzero"/><path id="br" d="m-18.637 24.454 4.0658 7.4833c-2.4894 0.94899-6.5828 0.29137-6.5828 0.29137l2.517-7.7747z" fill="url(#f)" fill-rule="nonzero"/><path id="bs" transform="matrix(.97959 0 0 .97959 -.3801 .49745)" d="m-6.875 24.375a11.75 7.75 0 1 1-23.5 0 11.75 7.75 0 1 1 23.5 0z" color="black" display="block" fill="none" opacity=".31111" stroke="url(#a)" stroke-linejoin="miter" stroke-miterlimit="4" stroke-width="1.0208"/><path id="bt" transform="matrix(.97959 0 0 .97959 -.3801 2.4974)" d="m-6.875 24.375a11.75 7.75 0 1 1-23.5 0 11.75 7.75 0 1 1 23.5 0z" color="black" display="block" fill="none" opacity=".13333" stroke="url(#a)" stroke-linejoin="miter" stroke-miterlimit="4" stroke-width="1.0208"/></g></g></svg>
