<?xml version="1.0" encoding="UTF-8"?>
<svg id="t" version="1.0" viewBox="0 0 32 32" xmlns="http://www.w3.org/2000/svg" xmlns:xlink="http://www.w3.org/1999/xlink"><defs id="u"><filter id="s"><feGaussianBlur id="v" stdDeviation="0.56"/></filter><linearGradient id="r" x1="67.183" x2="68.933" y1="28.909" y2="39.691" gradientTransform="translate(-4,1)" gradientUnits="userSpaceOnUse"><stop id="w" stop-color="#ccc" offset="0"/><stop id="x" stop-color="#fff" stop-opacity="0" offset="1"/></linearGradient><linearGradient id="c" x1="22.025" x2="21.786" y1="29.212" y2="7.9726" gradientTransform="matrix(1 0 0 -1 39.758 128)" gradientUnits="userSpaceOnUse"><stop id="y" stop-opacity="0" offset="0"/><stop id="z" stop-color="#3f3f3f" offset="1"/></linearGradient><radialGradient id="a" cx="27.127" cy="113.89" r="11.99" gradientTransform="matrix(1 -.026487 .013962 .52712 18.168 52.583)" gradientUnits="userSpaceOnUse"><stop id="aa" stop-color="#dcdcdc" offset="0"/><stop id="ab" stop-color="#d7d7d7" stop-opacity="0" offset="1"/></radialGradient><radialGradient id="b" cx="22.502" cy="91.357" r="14" fx="19.835" fy="86.024" gradientTransform="matrix(.68623 -.27888 .26073 .68336 -.067421 33.863)" gradientUnits="userSpaceOnUse"><stop id="ac" stop-color="#fff" offset="0"/><stop id="ad" stop-color="#fff" stop-opacity=".70886" offset=".5"/><stop id="ae" stop-color="#fff" stop-opacity="0" offset="1"/></radialGradient><linearGradient id="d" x1="3.9885" x2="43.874" y1="100.01" y2="100.01" gradientUnits="userSpaceOnUse"><stop id="af" stop-color="#505050" offset="0"/><stop id="ag" stop-color="#666" stop-opacity=".60759" offset="1"/></linearGradient><linearGradient id="q" x1=".11741" x2="43.927" y1="101" y2="92.5" gradientTransform="matrix(.41976 -.051054 .04178 .34055 59.657 48.092)" gradientUnits="userSpaceOnUse"><stop id="ah" stop-color="#575757" offset="0"/><stop id="ai" stop-color="#9f9f9f" offset=".5"/><stop id="aj" stop-color="#222" offset="1"/></linearGradient><linearGradient id="p" x1="44.117" x2="44.117" y1="88.249" y2="83.653" gradientTransform="matrix(.3125 0 0 .37837 68.963 42.283)" gradientUnits="userSpaceOnUse"><stop id="ak" offset="0"/><stop id="al" stop-opacity="0" offset="1"/></linearGradient><filter id="i"><feGaussianBlur id="am" stdDeviation="0.69944247"/></filter><filter id="j" x="-.073311" y="-.13903" width="1.1466" height="1.2781"><feGaussianBlur id="an" stdDeviation="0.73249726"/></filter><filter id="g"><feGaussianBlur id="ao" stdDeviation="0.61029092"/></filter><filter id="f" x="-.12256" y="-.17751" width="1.2451" height="1.355"><feGaussianBlur id="ap" stdDeviation="2.0368781"/></filter><linearGradient id="l" x1=".11741" x2="43.927" y1="101" y2="92.5" gradientTransform="matrix(.64333 0 0 .54322 37.044 32.23)" gradientUnits="userSpaceOnUse"><stop id="aq" stop-color="#575757" offset="0"/><stop id="ar" stop-color="#9f9f9f" offset=".5"/><stop id="as" stop-color="#222" offset="1"/></linearGradient><linearGradient id="o" x1="44.117" x2="44.117" y1="88.249" y2="83.653" gradientTransform="matrix(.3125 0 0 .37837 36.963 50.283)" gradientUnits="userSpaceOnUse"><stop id="at" offset="0"/><stop id="au" stop-opacity="0" offset="1"/></linearGradient><linearGradient id="e" x1="44.143" x2="44.143" y1="3.4933" y2="94.157" gradientUnits="userSpaceOnUse"><stop id="av" stop-color="#606060" offset="0"/><stop id="aw" stop-color="#ececec" offset=".5"/><stop id="ax" stop-color="#c7c7c7" stop-opacity=".63291" offset="1"/></linearGradient><radialGradient id="k" cx="64.025" cy="48.488" r="18" gradientTransform="matrix(1.6614 -.21217 .13103 1.026 -50.607 6.7117)" gradientUnits="userSpaceOnUse"><stop id="ay" stop-color="#535353" offset="0"/><stop id="az" stop-color="#4f4f4f" offset=".2294"/><stop id="ba" stop-color="#464646" offset=".5127"/><stop id="bb" stop-color="#383838" offset=".8231"/><stop id="bc" stop-color="#2d2d2d" offset="1"/></radialGradient><filter id="h" x="-.55894" y="-.012263" width="2.1179" height="1.0245"><feGaussianBlur id="bd" stdDeviation="0.465785"/></filter><linearGradient id="n" x1="40.117" x2="48.117" y1="49" y2="49" gradientTransform="matrix(.48485 0 0 .39879 60.549 40)" gradientUnits="userSpaceOnUse"><stop id="be" stop-color="#535353" offset="0"/><stop id="bf" stop-color="#4f4f4f" offset=".2294"/><stop id="bg" stop-color="#464646" offset=".5127"/><stop id="bh" stop-color="#383838" offset=".8231"/><stop id="bi" stop-color="#2d2d2d" offset="1"/></linearGradient><linearGradient id="m" x1="40.117" x2="48.117" y1="49" y2="49" gradientTransform="matrix(.48485 0 0 .41221 28.549 46.64)" gradientUnits="userSpaceOnUse"><stop id="bj" stop-color="#535353" offset="0"/><stop id="bk" stop-color="#4f4f4f" offset=".2294"/><stop id="bl" stop-color="#464646" offset=".5127"/><stop id="bm" stop-color="#383838" offset=".8231"/><stop id="bn" stop-color="#2d2d2d" offset="1"/></linearGradient></defs><g id="bo" transform="translate(0,-32)"><g id="bp"><rect id="bq" y="32" width="32" height="32" opacity="0" stroke-width=".6"/><g id="br" transform="matrix(.42308 0 0 .44444 -8.5385 21.333)"><path id="bs" d="m48 46.64h4v41.781l-4-2.209v-39.572z" fill="url(#m)"/><path id="bt" d="m80 40h4v40.421l-4-2.1371v-38.284z" fill="url(#n)"/><path id="bu" transform="matrix(.625 0 0 -.42086 53.552 79.627)" d="m43.117 3v90.657c0.813 0.204 1.005 0.252 2 0.5v-91.157h-2z" fill="url(#e)" filter="url(#h)" opacity=".7"/><path id="bv" d="m48 32 36-8v16l-36 8v-16z" fill="url(#k)" fill-rule="evenodd"/><path id="bw" transform="matrix(.625 0 0 -.57692 21.552 88.095)" d="m43.117 3v90.657c0.813 0.204 1.005 0.252 2 0.5v-91.157h-2z" fill="url(#e)" filter="url(#h)" opacity=".7"/><path id="bx" d="m52 81.721c-0.53562-0.76469-1.1716-0.70222-1.9022-1.2944-0.19625-0.15892-0.39625-0.30497-0.59781-0.44308v6.6223l2.5 2.0946v-6.9794z" fill="url(#o)" opacity=".3"/><g id="by" transform="matrix(.65247 -.079359 .076913 .62692 1.0073 38.826)"><path id="bz" d="m37.423 90.449c1.672 5.3892 9.805 8.2563 18.165 6.4045 8.3608-1.8524 13.781-7.7229 12.109-13.112-1.672-5.3887-9.8044-8.2563-18.165-6.404s-13.782 7.7229-12.11 13.112z" fill="url(#l)"/><path id="ca" transform="matrix(.6861 0 0 .54322 36.321 32.23)" d="m43.576 95.141c-1.891-7.217-12.218-10.761-23.068-7.915-10.849 2.846-18.111 11.005-16.22 18.224 1.104 4.218 5.1 7.166 10.387 8.333-3.231-1.651-5.652-4.326-6.545-7.736-1.904-7.269 3.803-15.064 12.748-17.412 8.945-2.347 17.741 1.644 19.645 8.912 0.894 3.41 0.095 6.931-1.911 9.956 4.034-3.612 6.069-8.145 4.964-12.362z" fill="url(#d)" filter="url(#f)" opacity=".9"/><path id="cb" transform="matrix(.70778 0 0 .61481 20.645 26.252)" d="m34.448 87.55c-7.6264 4.1645-12.096 10.314-9.5664 13.161 1.1008 1.2383 3.2314 1.5368 4.8238 1.5689 4.1246 0.08345 9.447-1.428 14.235-4.0423 7.6256-4.1635 12.096-10.315 9.5652-13.161-1.1008-1.2383-3.2314-1.5368-4.8238-1.5689-4.1253-0.082497-9.4458 1.4283-14.233 4.0425z" fill="url(#b)" filter="url(#g)" opacity=".8"/><path id="cc" transform="matrix(.71141 .12407 -.18492 .76384 40.012 .65099)" d="m46.875 109c-7.172 1.882-12.588 0.601-11.925 3.134 0.273 1.045 1.302 1.832 2.116 2.308 2.241 1.311 6.431 2.239 11.471 0.917 7.171-1.882 10.926-6.96 10.263-9.492-0.273-1.046-1.302-1.832-2.116-2.309-2.241-1.31-4.77 4.12-9.809 5.442z" fill="url(#a)" filter="url(#j)" opacity=".6"/><path id="cd" transform="matrix(.61815 0 0 .54322 13.113 32.23)" d="m87.844 97.625c-0.64793 8.3896-8.3382 16.481-19.25 19.344-12.995 3.409-25.651-1.8602-28.25-11.781-0.23293-0.88908-0.37706-1.7901-0.4375-2.6875-0.10769 1.5617 0.031406 3.1375 0.4375 4.6875 2.599 9.921 15.255 15.19 28.25 11.781 11.778-3.0903 19.783-12.268 19.25-21.344z" fill="url(#c)" filter="url(#i)" opacity=".8"/></g><path id="ce" d="m84 73.721c-0.53562-0.76469-1.1716-0.70222-1.9022-1.2944-0.19625-0.15892-0.39625-0.30497-0.59781-0.44308v6.6223l2.5 2.0946v-6.9794z" fill="url(#p)" opacity=".3"/><path id="cf" d="m64.381 84.56c1.5055 3.2459 7.0325 4.3979 12.345 2.5735 5.3127-1.8248 8.3976-5.9353 6.8926-9.1812-1.5054-3.2456-7.0321-4.398-12.344-2.5732s-8.3985 5.9354-6.893 9.1809z" fill="url(#q)"/><path id="cg" transform="matrix(.44766 -.054449 .04178 .34055 59.185 48.15)" d="m43.576 95.141c-1.891-7.217-12.218-10.761-23.068-7.915-10.849 2.846-18.111 11.005-16.22 18.224 1.104 4.218 5.1 7.166 10.387 8.333-3.231-1.651-5.652-4.326-6.545-7.736-1.904-7.269 3.803-15.064 12.748-17.412 8.945-2.347 17.741 1.644 19.645 8.912 0.894 3.41 0.095 6.931-1.911 9.956 4.034-3.612 6.069-8.145 4.964-12.362z" fill="url(#d)" filter="url(#f)" opacity=".9"/><path id="ch" transform="matrix(.46181 -.056169 .047287 .38543 48.497 45.646)" d="m34.448 87.55c-7.6264 4.1645-12.096 10.314-9.5664 13.161 1.1008 1.2383 3.2314 1.5368 4.8238 1.5689 4.1246 0.08345 9.447-1.428 14.235-4.0423 7.6256-4.1635 12.096-10.315 9.5652-13.161-1.1008-1.2383-3.2314-1.5368-4.8238-1.5689-4.1253-0.082497-9.4458 1.4283-14.233 4.0425z" fill="url(#b)" filter="url(#g)" opacity=".8"/><path id="ci" transform="matrix(.47372 .021328 -.061906 .49354 59.164 28.059)" d="m46.875 109c-7.172 1.882-12.588 0.601-11.925 3.134 0.273 1.045 1.302 1.832 2.116 2.308 2.241 1.311 6.431 2.239 11.471 0.917 7.171-1.882 10.926-6.96 10.263-9.492-0.273-1.046-1.302-1.832-2.116-2.309-2.241-1.31-4.77 4.12-9.809 5.442z" fill="url(#a)" filter="url(#j)" opacity=".6"/><path id="cj" transform="matrix(.40333 -.049056 .04178 .34055 44.042 49.991)" d="m87.844 97.625c-0.64793 8.3896-8.3382 16.481-19.25 19.344-12.995 3.409-25.651-1.8602-28.25-11.781-0.23293-0.88908-0.37706-1.7901-0.4375-2.6875-0.10769 1.5617 0.031406 3.1375 0.4375 4.6875 2.599 9.921 15.255 15.19 28.25 11.781 11.778-3.0903 19.783-12.268 19.25-21.344z" fill="url(#c)" filter="url(#i)" opacity=".8"/><path id="ck" d="m49 33.333 34-7.3333v14.667l-34 7.3333v-14.667z" fill="url(#r)" fill-rule="evenodd" filter="url(#s)"/></g></g></g></svg>
