<?xml version="1.0" encoding="UTF-8"?>
<svg id="y" version="1.1" viewBox="0 0 128 128" xmlns="http://www.w3.org/2000/svg" xmlns:xlink="http://www.w3.org/1999/xlink"><defs id="z"><linearGradient id="a"><stop id="aa" stop-color="#fff" offset="0"/><stop id="ab" stop-color="#fff" stop-opacity="0" offset="1"/></linearGradient><linearGradient id="b"><stop id="ac" stop-color="#808080" offset="0"/><stop id="ad" stop-color="#808080" stop-opacity="0" offset="1"/></linearGradient><linearGradient id="c"><stop id="ae" stop-color="#292c2f" offset="0"/><stop id="af" stop-opacity="0" offset="1"/></linearGradient><linearGradient id="x" x1="9" x2="9" y1="24" y2="13" gradientTransform="matrix(1.3328 0 0 1.3328 42.654 4.1811)" gradientUnits="userSpaceOnUse" xlink:href="#a"/><linearGradient id="w" x1="9" x2="9" y1="24" y2="13" gradientTransform="matrix(1.3328 0 0 1.3328 34.658 4.1811)" gradientUnits="userSpaceOnUse" xlink:href="#a"/><linearGradient id="v" x1="9" x2="9" y1="24" y2="13" gradientTransform="matrix(1.3328 0 0 1.3328 26.661 4.1811)" gradientUnits="userSpaceOnUse" xlink:href="#a"/><linearGradient id="u" x1="9" x2="9" y1="24" y2="13" gradientTransform="matrix(1.3328 0 0 1.3328 18.665 4.1811)" gradientUnits="userSpaceOnUse" xlink:href="#a"/><linearGradient id="t" x1="9" x2="9" y1="24" y2="13" gradientTransform="matrix(1.3328 0 0 1.3328 10.668 4.1811)" gradientUnits="userSpaceOnUse" xlink:href="#a"/><linearGradient id="s" x1="9" x2="9" y1="24" y2="13" gradientTransform="matrix(1.3328 0 0 1.3328 2.6718 4.1811)" gradientUnits="userSpaceOnUse" xlink:href="#a"/><linearGradient id="r" x1="9" x2="9" y1="24" y2="13" gradientTransform="matrix(1.3328 0 0 1.3328 -5.3248 4.1811)" gradientUnits="userSpaceOnUse" xlink:href="#a"/><linearGradient id="q" x1="9" x2="9" y1="24" y2="13" gradientTransform="matrix(1.3328 0 0 1.3328 40.017 -13.321)" gradientUnits="userSpaceOnUse" xlink:href="#b"/><linearGradient id="p" x1="9" x2="9" y1="24" y2="13" gradientTransform="matrix(1.3328 0 0 1.3328 32.021 -13.321)" gradientUnits="userSpaceOnUse" xlink:href="#b"/><linearGradient id="o" x1="9" x2="9" y1="24" y2="13" gradientTransform="matrix(1.3328 0 0 1.3328 24.024 -13.321)" gradientUnits="userSpaceOnUse" xlink:href="#b"/><linearGradient id="n" x1="9" x2="9" y1="24" y2="13" gradientTransform="matrix(1.3328 0 0 1.3328 8.0312 -13.321)" gradientUnits="userSpaceOnUse" xlink:href="#b"/><linearGradient id="m" x1="9" x2="9" y1="24" y2="13" gradientTransform="matrix(1.3328 0 0 1.3328 .034664 -13.321)" gradientUnits="userSpaceOnUse" xlink:href="#b"/><linearGradient id="l" x1="406.14" x2="424.14" y1="526.66" y2="543.66" gradientTransform="matrix(1.3328 0 0 1.3328 -507.94 -701.9)" gradientUnits="userSpaceOnUse" xlink:href="#c"/><linearGradient id="k" x1="39" x2="45" y1="22.5" y2="22.5" gradientTransform="matrix(1.3328 0 0 1.3328 .034664 -13.321)" gradientUnits="userSpaceOnUse"><stop id="ag" stop-color="#7530a1" offset="0"/><stop id="ah" stop-color="#b6598d" offset="1"/></linearGradient><linearGradient id="j" x1="33" x2="39" y1="22.5" y2="22.5" gradientTransform="matrix(1.3328 0 0 1.3328 .034664 -13.321)" gradientUnits="userSpaceOnUse"><stop id="ai" stop-color="#2980b9" offset="0"/><stop id="aj" stop-color="#2937b9" offset="1"/></linearGradient><linearGradient id="i" x1="27" x2="33" y1="22.5" y2="22.5" gradientTransform="matrix(1.3328 0 0 1.3328 .034664 -13.321)" gradientUnits="userSpaceOnUse"><stop id="ak" stop-color="#18b57c" offset="0"/><stop id="al" stop-color="#1ed1ad" offset="1"/></linearGradient><linearGradient id="h" x1="406.14" x2="424.14" y1="526.66" y2="543.66" gradientTransform="matrix(1.3328 0 0 1.3328 -531.93 -701.9)" gradientUnits="userSpaceOnUse" xlink:href="#c"/><linearGradient id="g" x1="21" x2="27" y1="22.5" y2="22.5" gradientTransform="matrix(1.3328 0 0 1.3328 .034664 -13.321)" gradientUnits="userSpaceOnUse"><stop id="am" stop-color="#28af38" offset="0"/><stop id="an" stop-color="#2ecc71" stop-opacity=".98" offset="1"/></linearGradient><linearGradient id="f" x1="15" x2="21" y1="22.5" y2="22.5" gradientTransform="matrix(1.3328 0 0 1.3328 .034664 -13.321)" gradientUnits="userSpaceOnUse"><stop id="ao" stop-color="#fd943c" offset="0"/><stop id="ap" stop-color="#fddf4b" offset="1"/></linearGradient><linearGradient id="e" x1="9" x2="15" y1="22.5" y2="22.5" gradientTransform="matrix(1.3328 0 0 1.3328 .034664 -13.321)" gradientUnits="userSpaceOnUse"><stop id="aq" stop-color="#ff7e4a" offset="0"/><stop id="ar" stop-color="#f67400" offset="1"/></linearGradient><linearGradient id="d" x1="3" x2="9" y1="22.5" y2="22.5" gradientTransform="matrix(1.3328 0 0 1.3328 .034664 -13.321)" gradientUnits="userSpaceOnUse"><stop id="as" stop-color="#da4453" offset="0"/><stop id="at" stop-color="#ed1515" offset="1"/></linearGradient></defs><g id="au" transform="translate(0,80)"><g id="av" transform="matrix(2 0 0 2 -.00869 -48)"><rect id="aw" x="4" y="-6" width="8" height="45" ry="0" fill="url(#d)"/><rect id="ax" x="12" y="-6" width="8" height="45" ry="0" fill="url(#e)"/><rect id="ay" x="20" y="-6" width="8" height="45" ry="0" fill="url(#f)"/><rect id="az" x="28" y="-6" width="8" height="45" ry="0" fill="url(#g)"/><path id="ba" d="m9 20 13.692 13.326 10.662-9.3293v-18.659l-11.354-11.338h-13z" fill="url(#h)" fill-rule="evenodd" opacity=".4"/><rect id="bb" x="36" y="-6" width="8" height="45" ry="0" fill="url(#i)"/><rect id="bc" x="44" y="-6" width="8" height="45" ry="0" fill="url(#j)"/><rect id="bd" x="52" y="-6" width="8" height="45" ry="0" fill="url(#k)"/><rect id="be" x="4" y="-6" width="56" height="45" color="#000000" enable-background="accumulate" fill="#fff" fill-rule="nonzero" opacity=".24"/><path id="bf" d="m33 20 13.681 13.326 13.328-9.3293v-23.99l-6.0087-6.0069h-21z" fill="url(#l)" fill-rule="evenodd" opacity=".4"/><rect id="bg" x="9" y="-7" width="5" height="27" color="#000000" enable-background="accumulate" fill="#35393e" fill-rule="nonzero"/><rect id="bh" x="17" y="-7" width="5" height="27" color="#000000" enable-background="accumulate" fill="#35393e" fill-rule="nonzero"/><rect id="bi" x="33" y="-7" width="5" height="27" color="#000000" enable-background="accumulate" fill="#35393e" fill-rule="nonzero"/><rect id="bj" x="41" y="-7" width="5" height="27" color="#000000" enable-background="accumulate" fill="#35393e" fill-rule="nonzero"/><rect id="bk" x="49" y="-7" width="5" height="27" color="#000000" enable-background="accumulate" fill="#35393e" fill-rule="nonzero"/><rect id="bl" x="10" y="-6" width="3" height="25" color="#000000" enable-background="accumulate" fill="url(#m)" fill-rule="nonzero" opacity=".78409"/><rect id="bm" x="18" y="-5" width="3" height="24" color="#000000" enable-background="accumulate" fill="url(#n)" fill-rule="nonzero" opacity=".78409"/><rect id="bn" x="34" y="-6" width="3" height="25" color="#000000" enable-background="accumulate" fill="url(#o)" fill-rule="nonzero" opacity=".78409"/><rect id="bo" x="42" y="-5" width="3" height="24" color="#000000" enable-background="accumulate" fill="url(#p)" fill-rule="nonzero" opacity=".78409"/><rect id="bp" x="50" y="-6" width="3" height="25" color="#000000" enable-background="accumulate" fill="url(#q)" fill-rule="nonzero" opacity=".78409"/><rect id="bq" x="4" y="38" width="56" height="1" fill="#000" opacity=".188"/><rect id="br" x="5" y="11" width="6" height="26" color="#000000" enable-background="accumulate" fill="url(#r)" fill-rule="nonzero" opacity=".216"/><rect id="bs" x="13" y="11" width="6" height="26" color="#000000" enable-background="accumulate" fill="url(#s)" fill-rule="nonzero" opacity=".216"/><rect id="bt" x="21" y="11" width="6" height="26" color="#000000" enable-background="accumulate" fill="url(#t)" fill-rule="nonzero" opacity=".216"/><rect id="bu" x="29" y="11" width="6" height="26" color="#000000" enable-background="accumulate" fill="url(#u)" fill-rule="nonzero" opacity=".216"/><rect id="bv" x="37" y="12" width="6" height="25" color="#000000" enable-background="accumulate" fill="url(#v)" fill-rule="nonzero" opacity=".216"/><rect id="bw" x="45" y="12" width="6" height="25" color="#000000" enable-background="accumulate" fill="url(#w)" fill-rule="nonzero" opacity=".216"/><rect id="bx" x="53" y="11" width="6" height="26" color="#000000" enable-background="accumulate" fill="url(#x)" fill-rule="nonzero" opacity=".216"/></g></g></svg>
