<?xml version="1.0" encoding="UTF-8"?>
<svg id="al" version="1.1" viewBox="0 0 32 32" xmlns="http://www.w3.org/2000/svg" xmlns:xlink="http://www.w3.org/1999/xlink"><title id="am">Mixxx application icon</title><defs id="an"><radialGradient id="j" cx="422.82" cy="489.91" r="117.14" gradientTransform="matrix(-2.7949 0 0 2.0016 -839.45 -893.93)" gradientUnits="userSpaceOnUse" xlink:href="#a"/><radialGradient id="l" cx="576.93" cy="486.67" r="117.14" gradientTransform="matrix(2.9485 -1.3567e-7 8.3868e-6 1.9847 -1724.9 -879.26)" gradientUnits="userSpaceOnUse" xlink:href="#a"/><linearGradient id="ah" x1="302.86" x2="302.86" y1="366.65" y2="609.51" gradientTransform="matrix(5.4518 0 0 1.9847 -3212.5 -882)" gradientUnits="userSpaceOnUse" xlink:href="#b"/><linearGradient id="af" x1="25.125" x2="25.125" y1="6" y2="43.642" gradientTransform="matrix(1 0 0 .87805 7.0097e-7 1.4268)" gradientUnits="userSpaceOnUse"><stop id="ao" stop-color="#f1f1f1" offset="0"/><stop id="ap" stop-color="#ddd" stop-opacity=".93694" offset="1"/></linearGradient><linearGradient id="ad" x1="18.385" x2="24.66" y1="3.629" y2="22.5" gradientUnits="userSpaceOnUse"><stop id="aq" stop-color="#fff" stop-opacity="0" offset="0"/><stop id="ar" stop-color="#fff" offset=".5"/><stop id="as" stop-color="#fff" stop-opacity="0" offset="1"/></linearGradient><radialGradient id="f" cx="422.82" cy="489.91" r="117.14" gradientTransform="matrix(-1.7848 0 0 1.9864 -371.35 -888.32)" gradientUnits="userSpaceOnUse" xlink:href="#a"/><linearGradient id="a"><stop id="at" offset="0"/><stop id="au" stop-opacity="0" offset="1"/></linearGradient><radialGradient id="i" cx="576.93" cy="486.67" r="117.14" gradientTransform="matrix(2.0207 .00036413 -.00027703 1.9847 -996.46 -879.47)" gradientUnits="userSpaceOnUse" xlink:href="#a"/><linearGradient id="b"><stop id="av" stop-opacity="0" offset="0"/><stop id="aw" offset=".5"/><stop id="ax" stop-opacity="0" offset="1"/></linearGradient><linearGradient id="ac" x1="302.86" x2="302.86" y1="366.65" y2="609.51" gradientTransform="matrix(3.5307 0 0 1.9697 -1897.5 -872.89)" gradientUnits="userSpaceOnUse" xlink:href="#b"/><linearGradient id="z" x1="24.375" x2="27.195" y1="-43.625" y2="-43.625" gradientTransform="matrix(.8 0 0 .74468 -2.3 -6.1277)" gradientUnits="userSpaceOnUse"><stop id="ay" stop-color="#797979" offset="0"/><stop id="az" stop-color="#babdb6" offset="1"/></linearGradient><linearGradient id="x" x1="12.979" x2="12.979" y1="10.432" y2="42.633" gradientTransform="matrix(.65517 0 0 .45946 1.6207 12.973)" gradientUnits="userSpaceOnUse"><stop id="ba" stop-color="#6b6d68" offset="0"/><stop id="bb" stop-color="#4d4e4b" offset=".10345"/><stop id="bc" stop-color="#454643" offset="1"/></linearGradient><linearGradient id="v" x1="14" x2="45.125" y1="-10.188" y2="-40.313" gradientTransform="matrix(.73913 0 0 .65217 -1.2174 -8.3478)" gradientUnits="userSpaceOnUse"><stop id="bd" stop-color="#fff" offset="0"/><stop id="be" stop-color="#fff" stop-opacity="0" offset="1"/></linearGradient><linearGradient id="r" x1="23.156" x2="23.156" y1="37.015" y2="10" gradientTransform="matrix(.63158 0 0 .42308 -.28947 14.058)" gradientUnits="userSpaceOnUse"><stop id="bf" stop-color="#2e3436" offset="0"/><stop id="bg" stop-color="#3e3e3e" offset="1"/></linearGradient><linearGradient id="t" x1="24.986" x2="24.986" y1="37.924" y2="9" gradientTransform="matrix(.52109 0 0 .37931 2.4801 14.897)" gradientUnits="userSpaceOnUse"><stop id="bh" stop-color="#6b6d68" offset="0"/><stop id="bi" stop-color="#4d4e4b" offset=".58621"/><stop id="bj" stop-color="#454643" offset="1"/></linearGradient><linearGradient id="ag" x1="302.86" x2="302.86" y1="366.65" y2="609.51" gradientTransform="matrix(5.4518 0 0 1.9847 -3212.5 -882)" gradientUnits="userSpaceOnUse" xlink:href="#b"/><radialGradient id="k" cx="576.93" cy="486.67" r="117.14" gradientTransform="matrix(2.9485 -1.3567e-7 8.3868e-6 1.9847 -1724.9 -879.26)" gradientUnits="userSpaceOnUse" xlink:href="#a"/><linearGradient id="ae" x1="25.125" x2="25.125" y1="6" y2="43.642" gradientTransform="matrix(.66667 0 0 .58537 4.6731e-7 16.951)" gradientUnits="userSpaceOnUse"><stop id="bk" stop-color="#f1f1f1" offset="0"/><stop id="bl" stop-color="#ddd" stop-opacity=".93694" offset="1"/></linearGradient><linearGradient id="ab" x1="302.86" x2="302.86" y1="366.65" y2="609.51" gradientTransform="matrix(3.5307 0 0 1.9697 -1897.5 -872.89)" gradientUnits="userSpaceOnUse" xlink:href="#b"/><radialGradient id="g" cx="576.93" cy="486.67" r="117.14" gradientTransform="matrix(2.0207 .00036413 -.00027703 1.9847 -996.46 -879.47)" gradientUnits="userSpaceOnUse" xlink:href="#a"/><radialGradient id="d" cx="422.82" cy="489.91" r="117.14" gradientTransform="matrix(-1.7848 0 0 1.9864 -371.35 -888.32)" gradientUnits="userSpaceOnUse" xlink:href="#a"/><linearGradient id="y" x1="24.375" x2="27.195" y1="-43.625" y2="-43.625" gradientTransform="matrix(.53333 0 0 .49645 14.467 -4.0851)" gradientUnits="userSpaceOnUse"><stop id="bm" stop-color="#797979" offset="0"/><stop id="bn" stop-color="#babdb6" offset="1"/></linearGradient><linearGradient id="w" x1="12.979" x2="12.979" y1="10.432" y2="42.633" gradientTransform="matrix(.43678 0 0 .30631 17.08 8.6487)" gradientUnits="userSpaceOnUse"><stop id="bo" stop-color="#6b6d68" offset="0"/><stop id="bp" stop-color="#4d4e4b" offset=".10345"/><stop id="bq" stop-color="#454643" offset="1"/></linearGradient><linearGradient id="u" x1="14" x2="45.125" y1="-10.188" y2="-40.313" gradientTransform="matrix(.49275 0 0 .43478 15.188 -5.5652)" gradientUnits="userSpaceOnUse"><stop id="br" stop-color="#fff" offset="0"/><stop id="bs" stop-color="#fff" stop-opacity="0" offset="1"/></linearGradient><linearGradient id="s" x1="24.986" x2="24.986" y1="37.924" y2="9" gradientTransform="matrix(.34739 0 0 .25287 17.653 9.931)" gradientUnits="userSpaceOnUse"><stop id="bt" stop-color="#6b6d68" offset="0"/><stop id="bu" stop-color="#4d4e4b" offset=".58621"/><stop id="bv" stop-color="#454643" offset="1"/></linearGradient><linearGradient id="q" x1="23.156" x2="23.156" y1="37.015" y2="10" gradientTransform="matrix(.42105 0 0 .28205 15.807 9.3718)" gradientUnits="userSpaceOnUse"><stop id="bw" stop-color="#2e3436" offset="0"/><stop id="bx" stop-color="#3e3e3e" offset="1"/></linearGradient><linearGradient id="ak" x1="18.385" x2="24.66" y1="3.629" y2="22.5" gradientTransform="matrix(.66667 0 0 .66667 0 16)" gradientUnits="userSpaceOnUse"><stop id="by" stop-color="#fff" stop-opacity="0" offset="0"/><stop id="bz" stop-color="#fff" offset=".5"/><stop id="ca" stop-color="#fff" stop-opacity="0" offset="1"/></linearGradient><radialGradient id="m" cx="422.82" cy="489.91" r="117.14" gradientTransform="matrix(-2.7949 0 0 2.0016 -839.45 -893.93)" gradientUnits="userSpaceOnUse" xlink:href="#a"/><linearGradient id="aj" x1="25.125" x2="25.125" y1="6" y2="43.642" gradientTransform="matrix(.99938 0 0 .92618 .014916 1.2717)" gradientUnits="userSpaceOnUse"><stop id="cb" stop-color="#f1f1f1" offset="0"/><stop id="cc" stop-color="#ddd" stop-opacity=".93694" offset="1"/></linearGradient><linearGradient id="ai" x1="18.385" x2="24.66" y1="3.629" y2="22.5" gradientTransform="matrix(1 0 0 1.0286 .0065688 .85715)" gradientUnits="userSpaceOnUse"><stop id="cd" stop-color="#fff" stop-opacity="0" offset="0"/><stop id="ce" stop-color="#fff" offset=".5"/><stop id="cf" stop-color="#fff" stop-opacity="0" offset="1"/></linearGradient><linearGradient id="aa" x1="302.86" x2="302.86" y1="366.65" y2="609.51" gradientTransform="matrix(3.5307 0 0 1.9697 -1897.5 -872.89)" gradientUnits="userSpaceOnUse"><stop id="cg" stop-opacity="0" offset="0"/><stop id="ch" offset=".5"/><stop id="ci" stop-opacity="0" offset="1"/></linearGradient><radialGradient id="h" cx="576.93" cy="486.67" r="117.14" gradientTransform="matrix(2.0207 .00036413 -.00027703 1.9847 -996.46 -879.47)" gradientUnits="userSpaceOnUse" xlink:href="#a"/><radialGradient id="e" cx="422.82" cy="489.91" r="117.14" gradientTransform="matrix(-1.7848 0 0 1.9864 -371.35 -888.32)" gradientUnits="userSpaceOnUse" xlink:href="#a"/><linearGradient id="o" x1="12.979" x2="12.979" y1="10.432" y2="42.633" gradientTransform="matrix(.65517 0 0 .45946 2.6207 12.973)" gradientUnits="userSpaceOnUse"><stop id="cj" stop-color="#6b6d68" offset="0"/><stop id="ck" stop-color="#4d4e4b" offset=".10345"/><stop id="cl" stop-color="#454643" offset="1"/></linearGradient><linearGradient id="p" x1="14" x2="45.125" y1="-10.188" y2="-40.313" gradientTransform="matrix(.73913 0 0 .65217 -.21739 -8.3478)" gradientUnits="userSpaceOnUse"><stop id="cm" stop-color="#fff" offset="0"/><stop id="cn" stop-color="#fff" stop-opacity="0" offset="1"/></linearGradient><linearGradient id="n" x1="24.986" x2="24.986" y1="37.924" y2="9" gradientTransform="matrix(.52109 0 0 .37931 3.4801 14.897)" gradientUnits="userSpaceOnUse"><stop id="co" stop-color="#6b6d68" offset="0"/><stop id="cp" stop-color="#4d4e4b" offset=".58621"/><stop id="cq" stop-color="#454643" offset="1"/></linearGradient></defs><g id="cr" transform="translate(0,-16)" display="none"><g id="cs" transform="matrix(-.017501 0 0 .016598 5.6277 42.562)" display="inline" fill-rule="nonzero" opacity=".35371"><rect id="ct" x="-2021.2" y="-154.33" width="1999.9" height="481.99" color="#000000" display="inline" fill="url(#ah)" opacity=".40206"/><path id="cu" d="m-23.829-154.33v481.98c142.87 0.90732 345.4-107.99 345.4-241.02 0-133.03-159.44-240.96-345.4-240.96z" color="#000000" display="inline" fill="url(#l)" opacity=".40206"/><path id="cv" d="m-2021.2-154.33v481.98c-141.82 0.90732-342.84-107.99-342.84-241.02 0-133.03 158.26-240.96 342.84-240.96z" color="#000000" display="inline" fill="url(#j)" opacity=".40206"/></g><rect id="cw" x="2.5" y="7.5" width="42.88" height="36" rx="2.0714" ry="2.0714" color="#000000" display="inline" enable-background="accumulate" fill="#b8b8b8" fill-rule="nonzero" stroke="#888a85" stroke-linecap="round" stroke-linejoin="miter" stroke-miterlimit="4" stroke-width="1"/><rect id="cx" x="2.5" y="4.5" width="43" height="36" rx="2.0714" ry="2.0714" color="#000000" display="inline" enable-background="accumulate" fill="url(#af)" fill-rule="nonzero" stroke="#888a85" stroke-linecap="round" stroke-linejoin="miter" stroke-miterlimit="4" stroke-width="1"/><rect id="cy" x="3.5" y="5.5" width="41" height="34" rx="1.0108" ry="1.0108" color="#000000" display="inline" enable-background="accumulate" fill="none" opacity=".82533" stroke="#fff" stroke-linecap="round" stroke-linejoin="miter" stroke-miterlimit="4" stroke-width="1"/><rect id="cz" x="3" y="5" width="42" height="35" rx="1.0108" ry="1.0108" color="#000000" display="inline" enable-background="accumulate" fill="url(#ad)" fill-rule="nonzero"/><g id="da" transform="matrix(-.012353 0 0 .01231 18.09 25.9)" display="inline" fill-rule="nonzero" opacity=".35371"><rect id="db" x="-1126" y="-150.7" width="1295.2" height="478.36" color="#000000" display="inline" fill="url(#ac)" opacity=".40206"/><path id="dc" d="m169.2-154.33v481.98c133.94 0.90732 323.8-107.99 323.8-241.02 0-133.03-149.46-240.96-323.8-240.96z" color="#000000" display="inline" fill="url(#i)" opacity=".40206"/><path id="dd" d="m-1126-154.33v478.33c-133.94 0.90045-323.8-107.17-323.8-239.2 0-132.03 149.46-239.13 323.8-239.13z" color="#000000" display="inline" fill="url(#f)" opacity=".40206"/></g><g id="de" transform="translate(1 -2)" fill="#888a85" fill-rule="nonzero"><rect id="df" transform="matrix(0,-1,-1,0,0,0)" x="-38" y="-8" width="6" height="1" color="#000000" display="inline" enable-background="accumulate"/><rect id="dg" transform="matrix(0,-1,-1,0,0,0)" x="-37" y="-12" width="5" height="1" color="#000000" display="inline" enable-background="accumulate"/><rect id="dh" transform="matrix(0,-1,-1,0,0,0)" x="-36" y="-16" width="4" height="1" color="#000000" display="inline" enable-background="accumulate"/><rect id="di" transform="matrix(0,-1,-1,0,0,0)" x="-35" y="-20" width="3" height="1" color="#000000" display="inline" enable-background="accumulate"/><rect id="dj" transform="matrix(0,-1,-1,0,0,0)" x="-38" y="-24" width="6" height="1" color="#000000" display="inline" enable-background="accumulate"/><rect id="dk" transform="matrix(0,-1,-1,0,0,0)" x="-35" y="-28" width="3" height="1" color="#000000" display="inline" enable-background="accumulate"/><rect id="dl" transform="matrix(0,-1,-1,0,0,0)" x="-36" y="-32" width="4" height="1" color="#000000" display="inline" enable-background="accumulate"/><rect id="dm" transform="matrix(0,-1,-1,0,0,0)" x="-37" y="-35" width="5" height="1" color="#000000" display="inline" enable-background="accumulate"/><rect id="dn" transform="matrix(0,-1,-1,0,0,0)" x="-38" y="-39" width="6" height="1" color="#000000" display="inline" enable-background="accumulate"/></g><rect id="do" transform="rotate(90)" x="16.5" y="-41.5" width="4" height="35" rx="1.875" ry="1.875" color="#000000" display="inline" enable-background="accumulate" fill="url(#z)" fill-rule="nonzero" stroke="#676a65" stroke-linecap="round" stroke-linejoin="miter" stroke-miterlimit="4" stroke-width="1"/><rect id="dp" transform="rotate(90)" x="17.5" y="-40.5" width="2" height="33" rx=".8125" ry=".8125" color="#000000" display="inline" enable-background="accumulate" fill="none" opacity=".51092" stroke="#fff" stroke-linecap="round" stroke-linejoin="miter" stroke-miterlimit="4" stroke-width="1"/><rect id="dq" transform="matrix(0,1,1,0,0,0)" x="8.5" y="15.5" width="19" height="17" rx="1.875" ry="1.875" color="#000000" display="inline" enable-background="accumulate" fill="url(#x)" fill-rule="nonzero" stroke="#2e3436" stroke-linecap="round" stroke-linejoin="miter" stroke-miterlimit="4" stroke-width="1"/><rect id="dr" transform="rotate(90)" x="9.5" y="-31.5" width="17" height="15" rx=".90273" ry=".90273" color="#000000" display="inline" enable-background="accumulate" fill="none" opacity=".66376" stroke="url(#v)" stroke-linecap="round" stroke-linejoin="miter" stroke-miterlimit="4" stroke-width="1"/><rect id="ds" transform="matrix(0,1,1,0,0,0)" x="9.5" y="18.5" width="12" height="11" rx="1.875" ry="1.875" color="#000000" display="inline" enable-background="accumulate" fill="url(#t)" fill-rule="nonzero" stroke="url(#r)" stroke-linecap="round" stroke-linejoin="miter" stroke-miterlimit="4" stroke-width="1"/><rect id="dt" transform="rotate(90)" x="11" y="-25" width="9" height="2" rx=".67862" ry=".67862" color="#000000" display="inline" enable-background="accumulate" fill="#c00" fill-rule="nonzero"/><rect id="du" transform="rotate(90)" x="10.5" y="-28.5" width="10" height="9" rx=".91964" ry=".91964" color="#000000" display="inline" enable-background="accumulate" fill="none" opacity=".31004" stroke="#fff" stroke-linecap="round" stroke-linejoin="miter" stroke-miterlimit="4" stroke-width="1"/><g id="dv" transform="translate(2 -1)" fill="#fff" fill-opacity=".82432" fill-rule="nonzero"><rect id="dw" transform="matrix(0,-1,-1,0,0,0)" x="-38" y="-8" width="6" height="1" color="#000000" display="inline" enable-background="accumulate"/><rect id="dx" transform="matrix(0,-1,-1,0,0,0)" x="-37" y="-12" width="5" height="1" color="#000000" display="inline" enable-background="accumulate"/><rect id="dy" transform="matrix(0,-1,-1,0,0,0)" x="-36" y="-16" width="4" height="1" color="#000000" display="inline" enable-background="accumulate"/><rect id="dz" transform="matrix(0,-1,-1,0,0,0)" x="-35" y="-20" width="3" height="1" color="#000000" display="inline" enable-background="accumulate"/><rect id="ea" transform="matrix(0,-1,-1,0,0,0)" x="-38" y="-24" width="6" height="1" color="#000000" display="inline" enable-background="accumulate"/><rect id="eb" transform="matrix(0,-1,-1,0,0,0)" x="-35" y="-28" width="3" height="1" color="#000000" display="inline" enable-background="accumulate"/><rect id="ec" transform="matrix(0,-1,-1,0,0,0)" x="-36" y="-32" width="4" height="1" color="#000000" display="inline" enable-background="accumulate"/><rect id="ed" transform="matrix(0,-1,-1,0,0,0)" x="-37" y="-35" width="5" height="1" color="#000000" display="inline" enable-background="accumulate"/><rect id="ee" transform="matrix(0,-1,-1,0,0,0)" x="-38" y="-39" width="6" height="1" color="#000000" display="inline" enable-background="accumulate"/></g></g><g id="ef" transform="translate(0,-16)" display="none"><g id="eg" transform="matrix(.66667 0 0 .66667 0 16)" display="inline"><rect id="eh" x="2.5" y="9.5" width="42.88" height="36" rx="2.0714" ry="2.0714" color="#000000" display="inline" enable-background="accumulate" fill="#b8b8b8" fill-rule="nonzero" stroke="#666" stroke-linecap="round" stroke-linejoin="miter" stroke-miterlimit="4" stroke-width="1"/><rect id="ei" x="2.5134" y="4.5134" width="42.973" height="37.973" rx="2.0701" ry="2.185" color="#000000" display="inline" enable-background="accumulate" fill="url(#aj)" fill-rule="nonzero" stroke="#666" stroke-linecap="round" stroke-linejoin="miter" stroke-miterlimit="4" stroke-width="1.0267"/><rect id="ej" x="4.4809" y="6.4809" width="39.038" height="33.038" rx=".9624" ry=".98217" color="#000000" display="inline" enable-background="accumulate" fill="none" opacity=".82533" stroke="#fff" stroke-linecap="round" stroke-linejoin="miter" stroke-miterlimit="4" stroke-width=".96188"/><rect id="ek" x="3.0066" y="6" width="42" height="36" rx="1.0108" ry="1.0396" color="#000000" display="inline" enable-background="accumulate" fill="url(#ai)" fill-rule="nonzero"/><g id="el" transform="matrix(-.012353 0 0 .01231 18.09 25.9)" display="inline" fill-rule="nonzero" opacity=".35371"><rect id="em" x="-1126" y="-150.7" width="1295.2" height="478.36" color="#000000" display="inline" fill="url(#aa)" opacity=".40206"/><path id="en" d="m169.2-154.33v481.98c133.94 0.90732 323.8-107.99 323.8-241.02 0-133.03-149.46-240.96-323.8-240.96z" color="#000000" display="inline" fill="url(#h)" opacity=".40206"/><path id="eo" d="m-1126-154.33v478.33c-133.94 0.90045-323.8-107.17-323.8-239.2 0-132.03 149.46-239.13 323.8-239.13z" color="#000000" display="inline" fill="url(#e)" opacity=".40206"/></g><rect id="ep" transform="rotate(90)" x="17" y="-41.5" width="4" height="35" rx="1.875" ry="1.875" color="#000000" display="inline" enable-background="accumulate" fill="#999" fill-rule="nonzero" stroke="#4d4d4d" stroke-linecap="round" stroke-linejoin="miter" stroke-miterlimit="4" stroke-width="1"/><rect id="eq" transform="matrix(0,1,1,0,0,0)" x="9.5" y="15.5" width="19" height="17" rx="1.875" ry="1.875" color="#000000" display="inline" enable-background="accumulate" fill="url(#o)" fill-rule="nonzero" stroke="#1a1a1a" stroke-linecap="round" stroke-linejoin="miter" stroke-miterlimit="4" stroke-width="1"/><rect id="er" transform="rotate(90)" x="10.5" y="-31.5" width="17" height="15" rx=".90273" ry=".90273" color="#000000" display="inline" enable-background="accumulate" fill="none" opacity=".75" stroke="url(#p)" stroke-linecap="round" stroke-linejoin="miter" stroke-miterlimit="4" stroke-width="1"/><rect id="es" transform="matrix(0,1,1,0,0,0)" x="10.519" y="18.519" width="12.962" height="10.962" rx="2.0254" ry="1.8686" color="#000000" display="inline" enable-background="accumulate" fill="url(#n)" fill-rule="nonzero" stroke="#666" stroke-linecap="round" stroke-linejoin="miter" stroke-miterlimit="4" stroke-width="1.0376"/><rect id="et" transform="rotate(90)" x="12.5" y="-25" width="9" height="2" rx=".67862" ry=".67862" color="#000000" display="inline" enable-background="accumulate" fill="#f00" fill-rule="nonzero" stroke="#f00" stroke-width="1"/><rect id="eu" transform="rotate(90)" x="11.599" y="-28.485" width="10.802" height="8.9692" rx=".99341" ry=".9165" color="#000000" display="inline" enable-background="accumulate" fill="none" opacity=".75" stroke="#ececec" stroke-linecap="round" stroke-linejoin="miter" stroke-miterlimit="4" stroke-width="1.0374"/><g id="ev" transform="translate(1.53e-5,1.3e-6)" display="inline"><g id="c" transform="matrix(.75 0 0 1 14.239 3)" fill="#666"><g id="ew" fill="#666"><rect id="ex" transform="matrix(0,-1,-1,0,0,0)" x="-36" y="-9" width="6" height="2" color="#000000" display="inline" enable-background="accumulate" fill="#666" fill-rule="nonzero"/></g></g><use id="ey" transform="translate(7.8971)" width="48" height="48" display="inline" fill="#666666" xlink:href="#c"/><use id="ez" transform="matrix(1 0 0 .66667 14.598 11)" width="48" height="48" display="inline" fill="#666666" stroke="#cccccc" xlink:href="#c"/><use id="fa" transform="translate(19.73)" width="48" height="48" display="inline" fill="#666666" xlink:href="#c"/><g id="fb" transform="matrix(.75 0 0 1 2.126 3)" display="inline" fill="#666"><g id="fc" fill="#666"><rect id="fd" transform="matrix(0,-1,-1,0,0,0)" x="-36" y="-9" width="6" height="2" color="#000000" display="inline" enable-background="accumulate" fill="#666" fill-rule="nonzero"/></g></g><use id="fe" transform="matrix(1 0 0 .66667 -7.4021 11)" width="48" height="48" display="inline" fill="#666666" stroke="#cccccc" xlink:href="#c"/></g></g></g><g id="ff" transform="translate(0,-16)"><g id="fg" transform="matrix(-.011667 0 0 .011065 3.7518 44.374)" fill-rule="nonzero" opacity=".35371"><rect id="fh" x="-2021.2" y="-154.33" width="1999.9" height="481.99" color="#000000" fill="url(#ag)" opacity=".40206"/><path id="fi" d="m-23.829-154.33v481.98c142.87 0.90732 345.4-107.99 345.4-241.02 0-133.03-159.44-240.96-345.4-240.96z" color="#000000" fill="url(#k)" opacity=".40206"/><path id="fj" d="m-2021.2-154.33v481.98c-141.82 0.90732-342.84-107.99-342.84-241.02 0-133.03 158.26-240.96 342.84-240.96z" color="#000000" fill="url(#m)" opacity=".40206"/></g><rect id="fk" x="1.6667" y="21" width="28.586" height="24" rx="1.381" ry="1.381" color="#000000" enable-background="accumulate" fill="#b8b8b8" fill-rule="nonzero" stroke="#888a85" stroke-linecap="round" stroke-linejoin="miter" stroke-miterlimit="4" stroke-width=".66667"/><rect id="fl" x="1.6667" y="19" width="28.667" height="24" rx="1.381" ry="1.381" color="#000000" enable-background="accumulate" fill="url(#ae)" fill-rule="nonzero" stroke="#888a85" stroke-linecap="round" stroke-linejoin="miter" stroke-miterlimit="4" stroke-width=".66667"/><rect id="fm" x="2.3333" y="19.667" width="27.333" height="22.667" rx=".67384" ry=".67384" color="#000000" enable-background="accumulate" fill="none" opacity=".82533" stroke="#fff" stroke-linecap="round" stroke-linejoin="miter" stroke-miterlimit="4" stroke-width=".66667"/><rect id="fn" x="2" y="19.333" width="28" height="23.333" rx=".67384" ry=".67384" color="#000000" enable-background="accumulate" fill="url(#ak)" fill-rule="nonzero"/><g id="fo" transform="matrix(-.0082356 0 0 .0082067 12.06 33.267)" fill-rule="nonzero" opacity=".35371"><rect id="fp" x="-1126" y="-150.7" width="1295.2" height="478.36" color="#000000" fill="url(#ab)" opacity=".40206"/><path id="fq" d="m169.2-154.33v481.98c133.94 0.90732 323.8-107.99 323.8-241.02 0-133.03-149.46-240.96-323.8-240.96z" color="#000000" fill="url(#g)" opacity=".40206"/><path id="fr" d="m-1126-154.33v478.33c-133.94 0.90045-323.8-107.17-323.8-239.2 0-132.03 149.46-239.13 323.8-239.13z" color="#000000" fill="url(#d)" opacity=".40206"/></g><rect id="fs" transform="matrix(0,-1,-1,0,0,0)" x="-40.5" y="-8.5" width="4" height="1" color="#000000" enable-background="accumulate" fill="#fff" fill-opacity=".82432" fill-rule="nonzero"/><rect id="ft" transform="matrix(0,-1,-1,0,0,0)" x="-39.167" y="-11.5" width="2.767" height="1" color="#000000" enable-background="accumulate" fill="#fff" fill-opacity=".82432" fill-rule="nonzero"/><rect id="fu" transform="matrix(0,-1,-1,0,0,0)" x="-38.5" y="-14.5" width="2" height="1" color="#000000" enable-background="accumulate" fill="#fff" fill-opacity=".82432" fill-rule="nonzero"/><rect id="fv" transform="matrix(0,-1,-1,0,0,0)" x="-40.5" y="-17.5" width="4" height="1" color="#000000" enable-background="accumulate" fill="#fff" fill-opacity=".82432" fill-rule="nonzero"/><rect id="fw" transform="matrix(0,-1,-1,0,0,0)" x="-38.5" y="-20.5" width="2" height="1" color="#000000" enable-background="accumulate" fill="#fff" fill-opacity=".82432" fill-rule="nonzero"/><rect id="fx" transform="matrix(0,-1,-1,0,0,0)" x="-39.167" y="-23.5" width="2.6667" height="1" color="#000000" enable-background="accumulate" fill="#fff" fill-opacity=".82432" fill-rule="nonzero"/><rect id="fy" transform="matrix(0,-1,-1,0,0,0)" x="-40.5" y="-26.5" width="4" height="1" color="#000000" enable-background="accumulate" fill="#fff" fill-opacity=".82432" fill-rule="nonzero"/><g id="fz" fill="#888a85" fill-rule="nonzero"><rect id="ga" transform="matrix(0,-1,-1,0,0,0)" x="-40" y="-8" width="4" height="1" color="#000000" enable-background="accumulate"/><rect id="gb" transform="matrix(0,-1,-1,0,0,0)" x="-38.767" y="-11" width="2.767" height="1" color="#000000" enable-background="accumulate"/><rect id="gc" transform="matrix(0,-1,-1,0,0,0)" x="-38" y="-14" width="2" height="1" color="#000000" enable-background="accumulate"/><rect id="gd" transform="matrix(0,-1,-1,0,0,0)" x="-40" y="-17" width="4" height="1" color="#000000" enable-background="accumulate"/><rect id="ge" transform="matrix(0,-1,-1,0,0,0)" x="-38" y="-20" width="2" height="1" color="#000000" enable-background="accumulate"/><rect id="gf" transform="matrix(0,-1,-1,0,0,0)" x="-38.667" y="-23" width="2.6667" height="1" color="#000000" enable-background="accumulate"/><rect id="gg" transform="matrix(0,-1,-1,0,0,0)" x="-40" y="-26" width="4" height="1" color="#000000" enable-background="accumulate"/></g><rect id="gh" transform="rotate(90)" x="27" y="-27.667" width="2.6667" height="23.333" rx="1.25" ry="1.25" color="#000000" enable-background="accumulate" fill="url(#y)" fill-rule="nonzero" stroke="#676a65" stroke-linecap="round" stroke-linejoin="miter" stroke-miterlimit="4" stroke-width=".66667"/><rect id="gi" transform="rotate(90)" x="27.667" y="-27" width="1.3333" height="22" rx=".54167" ry=".54167" color="#000000" enable-background="accumulate" fill="none" opacity=".51092" stroke="#fff" stroke-linecap="round" stroke-linejoin="miter" stroke-miterlimit="4" stroke-width=".66667"/><rect id="gj" transform="matrix(0,1,1,0,0,0)" x="21.667" y="10.333" width="12.667" height="11.333" rx="1.25" ry="1.25" color="#000000" enable-background="accumulate" fill="url(#w)" fill-rule="nonzero" stroke="#2e3436" stroke-linecap="round" stroke-linejoin="miter" stroke-miterlimit="4" stroke-width=".66667"/><rect id="gk" transform="rotate(90)" x="22.333" y="-21" width="11.333" height="10" rx=".60182" ry=".60182" color="#000000" enable-background="accumulate" fill="none" opacity=".66376" stroke="url(#u)" stroke-linecap="round" stroke-linejoin="miter" stroke-miterlimit="4" stroke-width=".66667"/><rect id="gl" transform="matrix(0,1,1,0,0,0)" x="22.333" y="12.333" width="8" height="7.3333" rx="1.25" ry="1.25" color="#000000" enable-background="accumulate" fill="url(#s)" fill-rule="nonzero" stroke="url(#q)" stroke-linecap="round" stroke-linejoin="miter" stroke-miterlimit="4" stroke-width=".66667"/><rect id="gm" transform="rotate(90)" x="23.333" y="-16.667" width="6" height="1.3333" rx=".45241" ry=".45241" color="#000000" enable-background="accumulate" fill="#c00" fill-rule="nonzero"/><rect id="gn" transform="rotate(90)" x="23" y="-19" width="6.6667" height="6" rx=".6131" ry=".6131" color="#000000" enable-background="accumulate" fill="none" opacity=".31004" stroke="#fff" stroke-linecap="round" stroke-linejoin="miter" stroke-miterlimit="4" stroke-width=".66667"/></g></svg>
