<?xml version="1.0" encoding="UTF-8"?>
<!DOCTYPE svg  PUBLIC '-//W3C//DTD SVG 20010904//EN'  'http://www.w3.org/TR/2001/REC-SVG-20010904/DTD/svg10.dtd'>
<svg id="s" width="100pt" height="80pt" xmlns="http://www.w3.org/2000/svg" xmlns:xlink="http://www.w3.org/1999/xlink"><defs id="t"><linearGradient id="b"><stop id="u" stop-color="#fff" offset="0"/><stop id="v" offset="1"/></linearGradient><linearGradient id="a"><stop id="w" stop-opacity=".76531" offset="0"/><stop id="x" stop-opacity="0" offset="1"/></linearGradient><radialGradient id="g" cx=".99733" cy=".99464" r=".99467" xlink:href="#a"/><linearGradient id="p" x1=".50247" x2=".50247" y1="1.0069" y2=".0068374" xlink:href="#a"/><radialGradient id="f" cx="3.5388e-16" cy="1" r=".99733" fx=".0026667" xlink:href="#a"/><linearGradient id="o" x1="1.5508e-15" y1=".5" y2=".5" xlink:href="#a"/><linearGradient id="n" x1="1" x2="-1.4375e-5" y1=".50402" y2=".50402" xlink:href="#a"/><linearGradient id="m" x1=".48961" x2=".48961" y1=".0068966" y2="1" xlink:href="#a"/><radialGradient id="d" cx=".99733" cy=".002681" r=".99467" xlink:href="#a"/><radialGradient id="c" cx="3.5388e-16" cy=".002681" r=".99733" fx=".0026667" fy=".010724" xlink:href="#a"/><radialGradient id="l" cx=".62475" cy=".65416" r=".73312" fx=".62377" fy=".65013"><stop id="y" offset="0"/><stop id="z" stop-color="#dde5f2" offset="1"/></radialGradient><radialGradient id="k" cx=".2367" cy=".32976" r=".79549" fy=".32708"><stop id="aa" stop-color="#7d7d87" offset="0"/><stop id="ab" offset="1"/></radialGradient><radialGradient id="j" cx=".2252" cy=".19035" r=".83487"><stop id="ac" stop-color="#82bbff" offset="0"/><stop id="ad" stop-color="#004497" offset="1"/></radialGradient><radialGradient id="i" cx=".74194" cy=".10992" r="1.0206"><stop id="ae" stop-color="#dee8c2" offset="0"/><stop id="af" stop-color="#cbc36b" offset=".26422"/><stop id="ag" stop-color="#40931f" offset=".51281"/><stop id="ah" stop-color="#d60d0d" offset="1"/></radialGradient><radialGradient id="h" r=".49523"><stop id="ai" stop-color="#fff" offset="0"/><stop id="aj" stop-color="#fff" stop-opacity=".10204" offset="1"/></radialGradient><radialGradient id="e" r=".47592" xlink:href="#a"/><linearGradient id="r" x1=".30991" x2=".70811" y1=".0075377" y2=".96985" xlink:href="#b"/><linearGradient id="q" x1=".61646" x2=".29247" y1=".93216" y2=".032663" xlink:href="#b"/></defs><rect id="ak" y="-3.5527e-15" width="12.5" height="12.5" fill="url(#g)" fill-opacity=".75" fill-rule="evenodd"/><rect id="al" x="12.5" y="-8.8818e-16" width="87.5" height="12.5" fill="url(#p)" fill-opacity=".6" fill-rule="evenodd"/><rect id="am" x="100" y="1.6875e-14" width="12.5" height="12.5" fill="url(#f)" fill-opacity=".6" fill-rule="evenodd"/><rect id="an" x="100" y="12.5" width="12.5" height="62.5" fill="url(#o)" fill-opacity=".6" fill-rule="evenodd"/><rect id="ao" x="8.8818e-16" y="12.5" width="12.5" height="62.5" fill="url(#n)" fill-opacity=".6" fill-rule="evenodd"/><rect id="ap" x="12.5" y="75" width="87.5" height="12.5" ry="0" fill="url(#m)" fill-opacity=".6" fill-rule="evenodd"/><rect id="aq" x="1.1102e-15" y="75" width="12.5" height="12.5" fill="url(#d)" fill-opacity=".6" fill-rule="evenodd"/><rect id="ar" x="100" y="75" width="12.5" height="12.5" fill="url(#c)" fill-opacity=".6" fill-rule="evenodd"/><rect id="as" x="8.2854" y="9.079" width="93.512" height="66.734" rx="1.081" ry="1.081" fill="url(#l)" fill-rule="evenodd" stroke="url(#r)" stroke-linejoin="round" stroke-width="1.625"/><rect id="at" x="16.353" y="16.195" width="77.053" height="51.617" rx="0" ry="0" fill="url(#k)" fill-rule="evenodd" stroke="url(#q)" stroke-linejoin="round" stroke-width="1.625"/><path id="au" transform="matrix(.066667 0 0 .066667 -33.333 -33.333)" d="m2375 1437.5a562.5 562.5 0 1 0-1125 0 562.5 562.5 0 1 0 1125 0z" fill="url(#e)" fill-opacity=".98" fill-rule="evenodd"/><path id="av" transform="matrix(.057521 0 0 .057521 -24.112 -20.351)" d="m2375 1375a500 500 0 1 0-1e3 0 500 500 0 1 0 1e3 0z" fill="url(#j)" fill-rule="evenodd"/><path id="aw" d="m83.681 30.016c-15.824 0-28.691 12.892-28.691 28.716 0 3.3509 0.58219 6.5655 1.6403 9.5554 0.0223 0 0.91414-0.54447 0.91414-1.7232-1.0206-4.5472 0.48328-5.8056-0.36311-7.9803-0.99159-0.8215 0.088481-3.0371 1.2088-3.0371 1.8741-0.12447 0.50915-2.5363 2.177-4.096 0.98325-0.98329 0.7931-1.8086 0.7931-3.5053-1.5683-1.9832 0.37341-3.2789 0-6.2874 0-0.52558 0.6147-1.0893 1.1403-1.0893 1.8186-0.94596 0.77184-0.68976 1.6929-2.5385 0.56298 0 2.7156-0.65765 3.5371 0.84725-0.074681 1.2585 1.4206 0.40232 1.4206 1.3297 0 0.78412-1.4206 1.5782-1.4206 1.6929 0 0.96722 1.1202 3.4529 0 6.4069 0 1.8922 1.5416 1.755 1.5416 3.0227 0.40423 0.40416 1.1349 2.4038 2.056 1.9349 0.42063 0 0.60359 0.97061 0.60359 1.4509 0 1.0882 0.71849 2.4162 0.12104 5.0787 0.81928 0.67213 1.0816 1.5188 0.48414 2.1229 1.1949 3.1561-0.64454 1.1784 0.72462 4.405 0 0.89295 1.6225 1.9652 2.6612 1.9652 0.65491 0 1.1072 0.71546 1.5703 1.1785 6.9532 1.1451 2.6503 1.1103 5.5629 2.4192 0 0.66153 0.24207 1.8643 0.24207 2.7727 0 1.0221 0.60358 2.1598 0.60358 0.7326 0.13792-0.83621 1.1992-1.8027 1.935-2.5385 2.0383-2.3122 3.7461-1.3236 6.649-3.8684 0.94667-0.90728 0.72621-2.0085 0.72621-3.2648-1.3194-1.6059-0.79368-3.2931 1.4972-3.3429 2.5979-0.19915 2.5677-2.0041 5.6359-3.1866 0-0.78847-0.72879-1.167 0.24207-2.5386-2.0633-1.4906-0.88045-1.6937-0.43236-3.0656-0.67213-2.3708 1.1008-3.5418-2.8324-5.2778 0-1.2666-1.1055-2.4353-1.9334-3.2632-0.63486-0.3174-1.3314-0.75119-1.3314-1.3314 1.8421-3.2875 3.9889-3.6117 6.2875-3.2632 1.6252-0.4232 3.1213 0.72466 3.1437 0.72466 0.27175 0 1.2413 2.0329 0.12104 2.7806-0.14936 2.0036 2.3676 0.66838 2.3427 3.1437 0.37341 1.2933 2.736 0.36583 2.736 2.9017 1.3443 3.2931-1.2039 1.8128 0.60358 5.5469 1.1843 0 0.69631 0.98261 1.3298 0.98261 1.2809 0.24904 0.65758 1.4273 1.8512 1.255-0.47661-15.385-13.012-27.768-28.792-27.768z" fill="url(#i)" fill-rule="evenodd"/><path id="ax" d="m75 51.621s-0.99114 1.1395-0.86627 2.8876 4.3782 2.3179 3.2466 3.6914 1.7481 1.553 1.6233 4.425l2.5754-0.1249s-0.24194 5.1196 3.1685 3.2466c3.4104-1.873-0.66336 3.1217 1.3735 1.873 2.0369-1.2487 4.6201-4.1206 4.6201-4.1206s-0.57752 1.3735-4.8698 0.2497 2.9968-5.3537-1.6233-8.7407c-4.6201-3.3871-3.4963-0.8741-5.9936-1.4984-2.4973-0.6244-3.2544-1.8887-3.2544-1.8887z" fill="url(#h)" fill-opacity=".75" fill-rule="evenodd"/><path id="ay" d="m21.444 65.081v-3.4704l6.5334-5.5457-6.5334-5.5371v-3.4251l10.375 8.9621-10.375 9.016z" fill="#e3faff" fill-opacity=".9" fill-rule="evenodd"/><rect id="az" x="32.836" y="61.532" width="8.5389" height="3.3154" ry="0" fill="#e3faff" fill-opacity=".9" fill-rule="evenodd"/></svg>
