<?xml version="1.0" encoding="UTF-8"?>
<svg viewBox="0 0 128 128" xmlns="http://www.w3.org/2000/svg"><linearGradient id="a" x1="29.185" x2="445.19" y1="204" y2="204" gradientTransform="matrix(.17308 0 0 .2381 22.949 60)" gradientUnits="userSpaceOnUse"><stop stop-color="#3d3846" offset="0"/><stop stop-color="#9a9996" offset=".045455"/><stop stop-color="#5e5c64" offset=".090909"/><stop stop-color="#5e5c64" offset=".90909"/><stop stop-color="#9a9996" offset=".95342"/><stop stop-color="#3d3846" offset="1"/></linearGradient><linearGradient id="b" x1="-45.92" x2="40.074" y1="350.38" y2="421.08" gradientTransform="matrix(1.125 0 0 1 57.16 -350.38)" gradientUnits="userSpaceOnUse"><stop stop-color="#deddda" offset="0"/><stop stop-color="#77767b" offset=".33944"/><stop stop-color="#c0bfbc" offset=".72"/><stop stop-color="#77767b" offset="1"/></linearGradient><filter id="c" x="0%" y="0%" width="100%" height="100%"><feColorMatrix in="SourceGraphic" values="0 0 0 0 1 0 0 0 0 1 0 0 0 0 1 0 0 0 1 0"/></filter><mask id="d"><g filter="url(#c)"><rect width="128" height="128" fill-opacity=".5"/></g></mask><clipPath id="e"><rect width="192" height="152"/></clipPath><clipPath id="f"><path d="m66 22h20v20h-20z"/></clipPath><clipPath id="g"><path d="m52 22h24c5.5234 0 10 4.4766 10 10s-4.4766 10-10 10h-24c-5.5234 0-10-4.4766-10-10s4.4766-10 10-10z"/></clipPath><mask id="h"><g filter="url(#c)"><rect width="128" height="128" fill-opacity=".2"/></g></mask><clipPath id="i"><rect width="192" height="152"/></clipPath><mask id="j"><g filter="url(#c)"><rect width="128" height="128" fill-opacity=".2"/></g></mask><clipPath id="k"><rect width="192" height="152"/></clipPath><clipPath id="l"><path d="m42 48h20v20h-20z"/></clipPath><clipPath id="m"><path d="m76 48h-24c-5.5234 0-10 4.4766-10 10s4.4766 10 10 10h24c5.5234 0 10-4.4766 10-10s-4.4766-10-10-10z"/></clipPath><clipPath id="n"><path d="m66 74h20v20h-20z"/></clipPath><clipPath id="o"><path d="m52 74h24c5.5234 0 10 4.4766 10 10s-4.4766 10-10 10h-24c-5.5234 0-10-4.4766-10-10s4.4766-10 10-10z"/></clipPath><mask id="p"><g filter="url(#c)"><rect width="128" height="128" fill-opacity=".2"/></g></mask><clipPath id="q"><rect width="192" height="152"/></clipPath><mask id="r"><g filter="url(#c)"><rect width="128" height="128" fill-opacity=".5"/></g></mask><clipPath id="s"><rect width="192" height="152"/></clipPath><path d="m36 40h56c4.418 0 8 3.582 8 8v64c0 4.418-3.582 8-8 8h-56c-4.418 0-8-3.582-8-8v-64c0-4.418 3.582-8 8-8z" fill="url(#a)"/><path d="m36 8h56c4.418 0 8 3.582 8 8v84c0 4.418-3.582 8-8 8h-56c-4.418 0-8-3.582-8-8v-84c0-4.418 3.582-8 8-8z" fill="url(#b)"/><path d="m36 12h56c2.2109 0 4 1.7891 4 4v84c0 2.2109-1.7891 4-4 4h-56c-2.2109 0-4-1.7891-4-4v-84c0-2.2109 1.7891-4 4-4z" fill="#3d3846"/><path d="m38 8h4v4h-4z" fill="#77767b"/><path d="m38 104h4v4h-4z" fill="#77767b"/><path d="m38 120h4v-12h-4z" fill="#3d3846"/><path d="m86 8h4v4h-4z" fill="#77767b"/><path d="m61.5 111c-1.3867 0-2.5 1.1133-2.5 2.5s1.1133 2.5 2.5 2.5h5c1.3867 0 2.5-1.1133 2.5-2.5s-1.1133-2.5-2.5-2.5zm-15 1c-0.82812 0-1.5 0.67188-1.5 1.5s0.67188 1.5 1.5 1.5 1.5-0.67188 1.5-1.5-0.67188-1.5-1.5-1.5zm4 0c-0.82812 0-1.5 0.67188-1.5 1.5s0.67188 1.5 1.5 1.5 1.5-0.67188 1.5-1.5-0.67188-1.5-1.5-1.5zm4 0c-0.82812 0-1.5 0.67188-1.5 1.5s0.67188 1.5 1.5 1.5 1.5-0.67188 1.5-1.5-0.67188-1.5-1.5-1.5zm19 0c-0.82812 0-1.5 0.67188-1.5 1.5s0.67188 1.5 1.5 1.5 1.5-0.67188 1.5-1.5-0.67188-1.5-1.5-1.5zm4 0c-0.82812 0-1.5 0.67188-1.5 1.5s0.67188 1.5 1.5 1.5 1.5-0.67188 1.5-1.5-0.67188-1.5-1.5-1.5zm4 0c-0.82812 0-1.5 0.67188-1.5 1.5s0.67188 1.5 1.5 1.5 1.5-0.67188 1.5-1.5-0.67188-1.5-1.5-1.5z"/><g transform="translate(-8 -16)" clip-path="url(#e)" mask="url(#d)"><path d="m55.914 129c-0.21094 0.59766-0.77734 1-1.4141 1s-1.2031-0.39844-1.4141-1c-0.054688 0.16016-0.085938 0.33203-0.085938 0.5 0 0.82812 0.67188 1.5 1.5 1.5s1.5-0.67188 1.5-1.5c0-0.17188-0.027344-0.33984-0.085938-0.5zm4 0c-0.21094 0.59766-0.77734 1-1.4141 1s-1.2031-0.39844-1.4141-1c-0.054688 0.16016-0.085938 0.33203-0.085938 0.5 0 0.82812 0.67188 1.5 1.5 1.5s1.5-0.67188 1.5-1.5c0-0.17188-0.027344-0.33984-0.085938-0.5zm4 0c-0.21094 0.59766-0.77734 1-1.4141 1s-1.2031-0.39844-1.4141-1c-0.054688 0.16016-0.085938 0.33203-0.085938 0.5 0 0.82812 0.67188 1.5 1.5 1.5s1.5-0.67188 1.5-1.5c0-0.17188-0.027344-0.33984-0.085938-0.5zm19 0c-0.21094 0.59766-0.77734 1-1.4141 1s-1.2031-0.39844-1.4141-1c-0.054688 0.16016-0.085938 0.33203-0.085938 0.5 0 0.82812 0.67188 1.5 1.5 1.5s1.5-0.67188 1.5-1.5c0-0.17188-0.027344-0.33984-0.085938-0.5zm4 0c-0.21094 0.59766-0.77734 1-1.4141 1s-1.2031-0.39844-1.4141-1c-0.054688 0.16016-0.085938 0.33203-0.085938 0.5 0 0.82812 0.67188 1.5 1.5 1.5s1.5-0.67188 1.5-1.5c0-0.17188-0.027344-0.33984-0.085938-0.5zm4 0c-0.21094 0.59766-0.77734 1-1.4141 1s-1.2031-0.39844-1.4141-1c-0.054688 0.16016-0.085938 0.33203-0.085938 0.5 0 0.82812 0.67188 1.5 1.5 1.5s1.5-0.67188 1.5-1.5c0-0.17188-0.027344-0.33984-0.085938-0.5zm-23.863 0c-0.03125 0.16016-0.050781 0.32812-0.050781 0.5 0 1.3867 1.1133 2.5 2.5 2.5h5c1.3867 0 2.5-1.1133 2.5-2.5 0-0.17188-0.019531-0.33984-0.050781-0.5-0.23047 1.1445-1.2344 2-2.4492 2h-5c-1.2148 0-2.2188-0.85547-2.4492-2z" fill="#a09fa0"/></g><path d="m52 22h24c5.5234 0 10 4.4766 10 10s-4.4766 10-10 10h-24c-5.5234 0-10-4.4766-10-10s4.4766-10 10-10z" fill="#3584e4"/><g clip-path="url(#f)"><g clip-path="url(#g)"><path d="m76 20c5.5391 0 10 4.4609 10 10v4c0 5.5391-4.4609 10-10 10s-10-4.4609-10-10v-4c0-5.5391 4.4609-10 10-10z" fill="#deddda"/></g></g><g transform="translate(-8 -16)" clip-path="url(#i)" mask="url(#h)"><path d="m60 38c-5.5391 0-10 4.4609-10 10 0 0.33594 0.015625 0.67188 0.050781 1 0.49609-5.0664 4.7461-9 9.9492-9h24c5.2031 0 9.4531 3.9336 9.9531 9 0.03125-0.32812 0.046875-0.66406 0.046875-1 0-5.5391-4.4609-10-10-10z" fill="#1e1c23"/></g><path d="m66 30c0 5.5234 4.4766 10 10 10s10-4.4766 10-10-4.4766-10-10-10-10 4.4766-10 10z" fill="#fff"/><path d="m76 48h-24c-5.5234 0-10 4.4766-10 10s4.4766 10 10 10h24c5.5234 0 10-4.4766 10-10s-4.4766-10-10-10z" fill="#c0bfbc"/><g transform="translate(-8 -16)" clip-path="url(#k)" mask="url(#j)"><path d="m60 64c-5.5391 0-10 4.4609-10 10 0 0.33594 0.015625 0.67188 0.050781 1 0.49609-5.0664 4.7461-9 9.9492-9h24c5.2031 0 9.4531 3.9336 9.9531 9 0.03125-0.32812 0.046875-0.66406 0.046875-1 0-5.5391-4.4609-10-10-10z"/></g><g clip-path="url(#l)"><g clip-path="url(#m)"><path d="m52 46c-5.5391 0-10 4.4609-10 10v4c0 5.5391 4.4609 10 10 10s10-4.4609 10-10v-4c0-5.5391-4.4609-10-10-10z" fill="#deddda"/></g></g><path d="m62 56c0 5.5234-4.4766 10-10 10s-10-4.4766-10-10 4.4766-10 10-10 10 4.4766 10 10z" fill="#fff"/><path d="m52 74h24c5.5234 0 10 4.4766 10 10s-4.4766 10-10 10h-24c-5.5234 0-10-4.4766-10-10s4.4766-10 10-10z" fill="#3584e4"/><g clip-path="url(#n)"><g clip-path="url(#o)"><path d="m76 72c5.5391 0 10 4.4609 10 10v4c0 5.5391-4.4609 10-10 10s-10-4.4609-10-10v-4c0-5.5391 4.4609-10 10-10z" fill="#deddda"/></g></g><g transform="translate(-8 -16)" clip-path="url(#q)" mask="url(#p)"><path d="m60 90c-5.5391 0-10 4.4609-10 10 0 0.33594 0.015625 0.67188 0.050781 1 0.49609-5.0664 4.7461-9 9.9492-9h24c5.2031 0 9.4531 3.9336 9.9531 9 0.03125-0.32812 0.046875-0.66406 0.046875-1 0-5.5391-4.4609-10-10-10z"/></g><path d="m66 82c0 5.5234 4.4766 10 10 10s10-4.4766 10-10-4.4766-10-10-10-10 4.4766-10 10z" fill="#fff"/><g transform="translate(-8 -16)" clip-path="url(#s)" mask="url(#r)"><path d="m44 28c-2.2148 0-4 1.7852-4 4v2c0-2.2148 1.7852-4 4-4h56c2.2148 0 4 1.7852 4 4v-2c0-2.2148-1.7852-4-4-4z"/></g><path d="m86 104h4v4h-4z" fill="#5e5c64"/><path d="m86 120h4v-12h-4z" fill="#3d3846"/></svg>
