<?xml version="1.0" encoding="UTF-8"?>
<svg viewBox="0 0 128 128" xmlns="http://www.w3.org/2000/svg"><linearGradient id="a" x1="8.157" x2="122.75" y1="77.241" y2="77.241" gradientUnits="userSpaceOnUse"><stop stop-color="#99c1f1" offset="0"/><stop stop-color="#1a5fb4" offset=".058"/><stop stop-color="#1a5fb4" offset=".388"/><stop stop-color="#2b7be0" offset=".473"/><stop stop-color="#154d91" offset=".619"/><stop stop-color="#1a5fb4" offset=".954"/><stop stop-color="#2f7fe1" offset="1"/></linearGradient><clipPath id="b"><path d="m6 1h117v118h-117z"/></clipPath><clipPath id="c"><path d="m70.336 115.85 50.098-50.098a8.334 8.334 0 0 0 0-11.785l-50.098-50.102a8.339 8.339 0 0 0-11.79 0l-50.096 50.102a8.334 8.334 0 0 0 0 11.785l50.098 50.098a8.332 8.332 0 0 0 11.789 0z"/></clipPath><path d="m70.406 119.547 50.207-50.207c1.66-1.66 2.575-3.84 2.453-6.004l-.14-3.059-52.52-52.953c-3.258-3.289-8.394-3.12-11.812 0L6.043 60.32 6 63.465a8.112 8.112 0 0 0 2.39 5.875l50.204 50.207a8.339 8.339 0 0 0 11.812 0zm0 0" fill="url(#a)"/><g clip-path="url(#b)"><g clip-path="url(#c)"><path d="m70.336 115.85 50.098-50.098a8.334 8.334 0 0 0 0-11.785l-50.098-50.102a8.339 8.339 0 0 0-11.79 0l-50.096 50.102a8.334 8.334 0 0 0 0 11.785l50.098 50.098a8.332 8.332 0 0 0 11.789 0z" fill="#62a0ea"/></g></g><g fill="#98c1f1"><path transform="matrix(4 0 0 4 -218.54 -186.18)" d="M67.246 53.508a2.518 2.518 0 0 0-2.5 2.5v11c0 1.367 1.133 2.5 2.5 2.5h7c1.368 0 2.5-1.133 2.5-2.5v-11c0-1.367-1.132-2.5-2.5-2.5zm0 2h7c.293 0 .5.207.5.5v10a.48.48 0 0 1-.5.5h-7a.48.48 0 0 1-.5-.5v-10c0-.293.207-.5.5-.5zm0 0"/><path transform="matrix(4 0 0 4 -218.54 -186.18)" d="M66.246 56.508c-.277 0-.5.223-.5.5v6c0 .277.223.5.5.5h1c.278 0 .5-.223.5-.5v-6c0-.277-.222-.5-.5-.5zm3 0c-.277 0-.5.223-.5.5v6c0 .277.223.5.5.5h3c.278 0 .5-.223.5-.5v-6c0-.277-.222-.5-.5-.5zm5 0c-.277 0-.5.223-.5.5v6c0 .277.223.5.5.5h1c.278 0 .5-.223.5-.5v-6c0-.277-.222-.5-.5-.5zm-6 8a.499.499 0 1 0 0 1h5c.278 0 .5-.223.5-.5s-.222-.5-.5-.5zm0 0" fill-opacity=".349"/></g></svg>
