<?xml version="1.0" encoding="UTF-8"?>
<!DOCTYPE svg  PUBLIC '-//W3C//DTD SVG 1.0//EN'  'http://www.w3.org/TR/2001/REC-SVG-20010904/DTD/svg10.dtd'>
<svg id="d" version="1.0" viewBox="0 0 1050 1050" xml:space="preserve" xmlns="http://www.w3.org/2000/svg" xmlns:xlink="http://www.w3.org/1999/xlink"><defs id="e"><radialGradient id="b" cy=".96875" r=".66996"><stop id="f" stop-color="#3f627d" offset="0"/><stop id="g" offset="1"/></radialGradient><radialGradient id="a" cy=".55469" r=".48582"><stop id="h" stop-color="#ff97ff" offset="0"/><stop id="i" stop-color="#f00" offset="1"/></radialGradient><linearGradient id="c" x1=".48334" x2=".48333" y1="-2.9551e-7" y2=".875"><stop id="j" stop-color="#fff" stop-opacity=".6353" offset="0"/><stop id="k" stop-color="#fff" stop-opacity=".2392" offset="1"/></linearGradient></defs><g id="l" transform="translate(11.86 11.86)" fill-opacity=".2314" font-size="12" stroke-width="6.9375"><path id="m" d="m186.88 20.688c-26.938 0-48.625 21.688-48.625 48.688v894.12c0 26.938 21.688 48.625 48.625 48.625h662.56c26.938 0 48.625-21.688 48.625-48.625v-894.12c0-27-21.688-48.688-48.625-48.688h-662.56zm546.88 30.062v79.125h131.88v-79.125h-131.88zm0 121.5v79.125h131.88v-79.125h-131.88zm0 121.5v79.125h131.88v-79.125h-131.88zm0 121.5v79.062 0.125h131.88v-0.125-79.062-0.0625h-131.88v0.0625zm0 121.5v79.062 0.125h131.88v-0.125-79.062-0.0625h-131.88v0.0625zm-564.12-486v79.125h131.88v-79.125h-131.88zm0 121.5v79.125h131.88v-79.125h-131.88zm0 121.5v79.125h131.88v-79.125h-131.88zm0 121.5v79.062 0.125h131.88v-0.125-79.062-0.0625h-131.88v0.0625zm0 121.5v79.062 0.125h131.88v-0.125-79.062-0.0625h-131.88v0.0625zm-24.938-136.38v3.6875c0.6875-1.25 1.375-2.4375 2.0625-3.6875h-2.0625zm24.938 500.81v79.188h131.88v-79.188h-131.88zm0-121.5v79.188h131.88v-79.188h-131.88zm564.12-121.5v79.125h131.88v-79.125h-131.88zm0 121.5v79.188h131.88v-79.188h-131.88zm0 121.5v79.188h131.88v-79.188h-131.88zm-564.12-243v79.125h131.88v-79.125h-131.88z" fill-rule="evenodd"/></g><g id="n" fill="url(#b)" font-size="12" stroke="#000" stroke-width="6.9375"><path id="o" d="m186.88 20.688c-26.938 0-48.625 21.688-48.625 48.688v894.12c0 26.938 21.688 48.625 48.625 48.625h662.56c26.938 0 48.625-21.688 48.625-48.625v-894.12c0-27-21.688-48.688-48.625-48.688h-662.56zm546.88 30.062v79.125h131.88v-79.125h-131.88zm0 121.5v79.125h131.88v-79.125h-131.88zm0 121.5v79.125h131.88v-79.125h-131.88zm0 121.5v79.062 0.125h131.88v-0.125-79.062-0.0625h-131.88v0.0625zm0 121.5v79.062 0.125h131.88v-0.125-79.062-0.0625h-131.88v0.0625zm-564.12-486v79.125h131.88v-79.125h-131.88zm0 121.5v79.125h131.88v-79.125h-131.88zm0 121.5v79.125h131.88v-79.125h-131.88zm0 121.5v79.062 0.125h131.88v-0.125-79.062-0.0625h-131.88v0.0625zm0 121.5v79.062 0.125h131.88v-0.125-79.062-0.0625h-131.88v0.0625zm-24.938-136.38v3.6875c0.6875-1.25 1.375-2.4375 2.0625-3.6875h-2.0625zm24.938 500.81v79.188h131.88v-79.188h-131.88zm0-121.5v79.188h131.88v-79.188h-131.88zm564.12-121.5v79.125h131.88v-79.125h-131.88zm0 121.5v79.188h131.88v-79.188h-131.88zm0 121.5v79.188h131.88v-79.188h-131.88zm-564.12-243v79.125h131.88v-79.125h-131.88z" fill-rule="evenodd"/></g><polygon id="p" transform="matrix(.41166 0 0 .41165 405.23 264.19)" points="730.43 485.49 440.64 693.74 553.01 1028.5 265.41 817.22 -18.217 1027.5 93.818 688.72 -193.84 483.97 163.01 485.82 268.85 148.97 377.36 488.92" fill="url(#a)" fill-rule="evenodd" stroke="#ff7d00" stroke-width="21.447"/><path id="q" d="m184.08 31.158c-19.347 0-34.923 15.576-34.923 34.923v454.87c0 19.347 15.805 37.894 34.923 34.923 162.59-25.262 328.34-75.787 487.77-75.787 62.404 0 118.49 50.525 177.73 75.787 17.797 7.589 34.923-15.576 34.923-34.923v-454.87c0-19.348-15.576-34.923-34.923-34.923h-665.5z" fill="url(#c)" fill-rule="evenodd"/></svg>
