<?xml version="1.0" encoding="UTF-8"?>
<svg id="f" version="1.0" viewBox="0 0 16 16" xmlns="http://www.w3.org/2000/svg" xmlns:xlink="http://www.w3.org/1999/xlink"><defs id="g"><linearGradient id="e" x1="10.602" x2="47.002" y1="35.895" y2="35.69" gradientUnits="userSpaceOnUse"><stop id="h" stop-color="#888a85" offset="0"/><stop id="i" stop-color="#81837e" stop-opacity=".98649" offset="1"/></linearGradient><linearGradient id="d" x1="15.552" x2="23.734" y1="41" y2="41" gradientTransform="matrix(.33641 0 0 .33727 -.67744 .12743)" gradientUnits="userSpaceOnUse"><stop id="j" stop-color="#fff" stop-opacity="0" offset="0"/><stop id="k" stop-color="#fff" offset=".4521"/><stop id="l" stop-color="#fff" stop-opacity="0" offset="1"/></linearGradient><radialGradient id="a" cx="17.832" cy="18.915" r="19.736" gradientTransform="matrix(.19307 0 0 .09341 2.1701 6.6136)" gradientUnits="userSpaceOnUse"><stop id="m" stop-color="#eeeeec" offset="0"/><stop id="n" stop-color="#80827d" offset="1"/></radialGradient><linearGradient id="c" x1="34.826" x2="28.763" y1="42.346" y2="32.737" gradientTransform="matrix(.35411 0 0 .36352 -.74329 -1.8035)" gradientUnits="userSpaceOnUse"><stop id="o" stop-color="#fff" offset="0"/><stop id="p" stop-color="#fff" stop-opacity="0" offset="1"/></linearGradient><radialGradient id="b" cx="29.923" cy="32.705" r="19.736" gradientTransform="matrix(1.0244 0 0 1.0143 -.50927 .68571)" gradientUnits="userSpaceOnUse"><stop id="q" stop-color="#babdb6" offset="0"/><stop id="r" stop-color="#555753" offset="1"/></radialGradient></defs><g id="s"><path id="t" transform="matrix(.20875 0 0 .13047 1.8789 9.6383)" d="m46.089 25.766a19.162 19.162 0 1 1-38.324 0 19.162 19.162 0 1 1 38.324 0z" color="#000000" enable-background="accumulate" fill="url(#e)" fill-rule="evenodd" stroke="#2e3436" stroke-linecap="round" stroke-linejoin="miter" stroke-miterlimit="4" stroke-width="6.0595"/><path id="u" transform="matrix(.1565 0 0 .10437 3.2846 9.8106)" d="m46.089 25.766a19.162 19.162 0 1 1-38.324 0 19.162 19.162 0 1 1 38.324 0z" color="#000000" enable-background="accumulate" fill="none" stroke="#fff" stroke-linecap="round" stroke-linejoin="miter" stroke-miterlimit="4" stroke-opacity=".35586" stroke-width="7.8242"/><path id="v" d="m4.2235 13.618s0.81808 1.3491 3.1729 1.3491v-2.0236h-3.1653l-0.0076633 0.67455z" fill="url(#d)" fill-rule="evenodd" opacity=".56769"/><path id="w" transform="matrix(.36525 0 0 .31312 -2.3364 -.56808)" d="m46.089 25.766a19.162 19.162 0 1 1-38.324 0 19.162 19.162 0 1 1 38.324 0z" color="#000000" enable-background="accumulate" fill="#555753" fill-rule="evenodd" stroke="#2e3436" stroke-linecap="round" stroke-linejoin="miter" stroke-miterlimit="4" stroke-width="2.957"/><path id="x" transform="matrix(.36525 0 0 .28597 -2.3364 -.38874)" d="m46.089 25.766a19.162 19.162 0 1 1-38.324 0 19.162 19.162 0 1 1 38.324 0z" color="#000000" enable-background="accumulate" fill="url(#b)" fill-rule="evenodd" stroke="#2e3436" stroke-linecap="round" stroke-linejoin="miter" stroke-miterlimit="4" stroke-width="3.0942"/><path id="y" transform="matrix(.31312 0 0 .24983 -.93162 .84995)" d="m46.089 25.766a19.162 19.162 0 1 1-38.324 0 19.162 19.162 0 1 1 38.324 0z" color="#000000" enable-background="accumulate" fill="none" stroke="#fff" stroke-linecap="round" stroke-linejoin="miter" stroke-miterlimit="4" stroke-opacity=".27477" stroke-width="3.5754"/><path id="z" d="m5.2887 12.374c1.8482 0.96619 7.6487 0.55571 8.7151-4.3096 0 0-2.551 5.2548-8.7151 4.3096z" fill="url(#c)" fill-rule="evenodd"/><path id="aa" d="m11.5 9.2396c0 0.94956-1.5131 1.8531-3.1607 1.8531-1.6477 0-2.6822-0.77066-2.6822-1.7202 0-0.94957 1.3372-2.1025 2.9849-2.1025 1.6477 0 2.8581 1.02 2.8581 1.9696z" color="#000000" enable-background="accumulate" fill="none" stroke="#fff" stroke-linecap="round" stroke-linejoin="miter" stroke-miterlimit="4" stroke-opacity=".26577"/><path id="ab" d="m10.436 9.15c0 0.7452-1.3297 1.35-2.9681 1.35-1.6384 0-2.9681-0.6048-2.9681-1.35 0-0.7452 1.3297-1.65 2.9681-1.65 1.6384 0 2.9681 0.9048 2.9681 1.65z" color="#000000" enable-background="accumulate" fill="url(#a)" fill-rule="evenodd" stroke="#2e3436" stroke-linecap="round" stroke-linejoin="miter" stroke-miterlimit="4"/><g id="ac" transform="matrix(.49073 0 0 .49105 .039572 .62953)"><path id="ad" d="m29.48 9.1194v-7.2218" fill="none" stroke="#ce5c00" stroke-linecap="round" stroke-linejoin="miter" stroke-miterlimit="4" stroke-width="6.1113"/><path id="ae" d="m17.241 8.1229v-5.1355" fill="none" stroke="#ce5c00" stroke-linecap="round" stroke-linejoin="miter" stroke-miterlimit="4" stroke-width="6.1113"/><path id="af" d="m17.232 1.801 12.227-0.0065953" color="#000000" enable-background="accumulate" fill="none" stroke="#ce5c00" stroke-linecap="round" stroke-linejoin="miter" stroke-miterlimit="4" stroke-width="6.1113"/><path id="ag" transform="matrix(1.0394 0 0 1.0794 -17.879 -8.7314)" d="m35.741 17.284a3.9211 1.8831 0 1 1-7.8421 0 3.9211 1.8831 0 1 1 7.8421 0z" color="#000000" enable-background="accumulate" fill="#f57900" fill-rule="evenodd" stroke="#ce5c00" stroke-linecap="round" stroke-linejoin="miter" stroke-miterlimit="4" stroke-width="1.9233"/><path id="ah" transform="matrix(1.0394 0 0 1.0794 -5.6521 -8.7314)" d="m35.741 17.284a3.9211 1.8831 0 1 1-7.8421 0 3.9211 1.8831 0 1 1 7.8421 0z" color="#000000" enable-background="accumulate" fill="#f57900" fill-rule="evenodd" stroke="#ce5c00" stroke-linecap="round" stroke-linejoin="miter" stroke-miterlimit="4" stroke-width="1.9233"/><path id="ai" d="m17.232 10.051v-8.2232" fill="none" stroke="#f57900" stroke-linecap="round" stroke-linejoin="miter" stroke-miterlimit="4" stroke-width="2.0371"/><path id="aj" d="m29.467 9.8623v-8.2685" fill="none" stroke="#f57900" stroke-linecap="round" stroke-linejoin="miter" stroke-miterlimit="4" stroke-width="2.0371"/><path id="ak" d="m17.197 1.8127 12.303-0.048345" fill="none" stroke="#f57900" stroke-linecap="round" stroke-linejoin="miter" stroke-miterlimit="4" stroke-width="2.0371"/><path id="al" transform="matrix(.76305 0 0 .53968 3.2062 .59649)" d="m35.741 17.284a3.9211 1.8831 0 1 1-7.8421 0 3.9211 1.8831 0 1 1 7.8421 0z" color="#000000" enable-background="accumulate" fill="#fff" fill-opacity=".32941" fill-rule="evenodd"/><path id="am" d="m17.226 1.7944 12.274-0.03004" color="#000000" enable-background="accumulate" fill="none" stroke="#fff" stroke-linecap="round" stroke-linejoin="miter" stroke-miterlimit="4" stroke-opacity=".32883" stroke-width="2.0371"/><path id="an" d="m17.232 8.2177v-6.3466" color="#000000" enable-background="accumulate" fill="none" stroke="#fff" stroke-linecap="round" stroke-linejoin="miter" stroke-miterlimit="4" stroke-opacity=".32883" stroke-width="2.0371"/><path id="ao" d="m29.467 7.9859v-6.1915" color="#000000" enable-background="accumulate" fill="none" stroke="#fff" stroke-linecap="round" stroke-linejoin="miter" stroke-miterlimit="4" stroke-opacity=".32883" stroke-width="2.0371"/><path id="ap" transform="matrix(.76305 0 0 .53968 -9.15 .59649)" d="m35.741 17.284a3.9211 1.8831 0 1 1-7.8421 0 3.9211 1.8831 0 1 1 7.8421 0z" color="#000000" enable-background="accumulate" fill="#fff" fill-opacity=".32941" fill-rule="evenodd"/></g><path id="aq" transform="matrix(.026334 0 0 .01557 6.2595 7.8972)" d="m46.089 25.766a19.162 19.162 0 1 1-38.324 0 19.162 19.162 0 1 1 38.324 0z" color="#000000" enable-background="accumulate" fill="#eee" fill-rule="evenodd"/><path id="ar" transform="matrix(.039259 0 0 .026214 5.6951 8.8223)" d="m46.089 25.766a19.162 19.162 0 1 1-38.324 0 19.162 19.162 0 1 1 38.324 0z" color="#000000" enable-background="accumulate" fill="#eee" fill-rule="evenodd"/></g></svg>
