<?xml version="1.0" encoding="UTF-8"?>
<svg id="f" version="1.0" viewBox="0 0 128 128" xmlns="http://www.w3.org/2000/svg" xmlns:xlink="http://www.w3.org/1999/xlink"><defs id="g"><linearGradient id="a"><stop id="h" stop-color="#cecece" offset="0"/><stop id="i" stop-color="#868686" offset="1"/></linearGradient><linearGradient id="e" x1="571.4" x2="539.43" y1="443.67" y2="394.39" gradientTransform="matrix(.20795 0 0 .20795 -13.775 -30.167)" gradientUnits="userSpaceOnUse"><stop id="j" stop-color="#f0f" offset="0"/><stop id="k" stop-color="#fff" offset="1"/></linearGradient><radialGradient id="c" cx="467.96" cy="366.79" r="131.9" gradientTransform="matrix(.20795 0 0 .28016 -16.267 -58.833)" gradientUnits="userSpaceOnUse" xlink:href="#a"/><radialGradient id="b" cx="290.8" cy="613.59" r="164.4" gradientTransform="matrix(-.12468 .28979 -.22213 -.09557 216.95 47.542)" gradientUnits="userSpaceOnUse" xlink:href="#a"/><linearGradient id="d" x1="19.136" x2="31.472" y1="25.27" y2="25.27" gradientTransform="matrix(2.5199 0 0 2.5199 2.0934 8.2489)" gradientUnits="userSpaceOnUse"><stop id="l" stop-color="#f00" offset="0"/><stop id="m" stop-color="#940000" offset="1"/></linearGradient></defs><g id="n" transform="matrix(1.0667 0 0 1.0667 0 -8.5333)"><path id="o" d="m53.894 57.747c-2.8641 10.633 17.323 22.727 24.788 25.628 5.7439-0.1335 16.425 0.93418 21.006-7.9824 5.0832-10.129 4.2772-19.417-6.3019-27.308-2.0462-10.132 6.6357-14.134 11.764-20.166-6.442-3.5827-12.884 0.39455-19.326 7.9824-4.6245-5.9789-3.2163-13.768 3.361-23.107-21.89 2.8871-17.817 13.41-22.267 21.427-4.3413 5.6786-8.6827 11.294-13.024 23.527z" fill="url(#c)" fill-rule="evenodd" stroke="#000" stroke-linejoin="miter" stroke-miterlimit="4" stroke-width="3.3272"/><path id="p" d="m28.326 95.123c-8.7623 8.8893-13.22 18.17-5.8166 28.529h24.374c7.8815-16.771-3.6143-17.847-14.126-13.295 4.987-4.4127 8.67-9.3469 9.9713-15.234" fill="#4d4d4d" fill-rule="evenodd" stroke="#000" stroke-linejoin="miter" stroke-miterlimit="4" stroke-width="3.1193"/><path id="q" d="m62.672 98.17c0.06175 8.2788-0.4409 15.993 0.27697 24.928l26.59-0.27699c3.6548-17.318-0.89527-21.682-14.957-14.68l-3.6007-14.957" fill="#000" fill-opacity=".75" fill-rule="evenodd" stroke="#000" stroke-linejoin="miter" stroke-miterlimit="4" stroke-width="3.1193"/><path id="r" d="m53.894 57.747c-6.6011 8.3516-13.705 11.672-21.427 8.8227-9.2132-12.744-13.662-25.488-5.0415-38.232-10.99 6.5178-18.385 15.151-10.503 32.77l2.5208 6.7221c-4.5542 10.288-9.84 20.629 0.84026 29.829 22.163 18.074 57.338-4.9279 53.385-7.9824l5.0131-6.3019" fill="url(#b)" fill-rule="evenodd" stroke="#000" stroke-linejoin="round" stroke-miterlimit="4" stroke-width="3.3262"/><ellipse id="s" cx="102.28" cy="57.663" rx="9.1403" ry="8.8634" fill="url(#e)" stroke="#000" stroke-linecap="round" stroke-miterlimit="4" stroke-width="2.0663"/><ellipse id="t" cx="85.384" cy="47.553" rx=".83094" ry="2.6313" fill="none" stroke="#000" stroke-linecap="round" stroke-linejoin="round" stroke-miterlimit="4" stroke-width="3.3272"/><ellipse id="u" cx="92.032" cy="47.276" rx=".83094" ry="2.6313" fill="none" stroke="#000" stroke-linecap="round" stroke-linejoin="round" stroke-miterlimit="4" stroke-width="3.3272"/><path id="v" d="m81.506 19.717c-3.4863 3.2757-7.136 6.2245-7.7554 15.234 1.9581-1.6774 4.0655-2.7573 7.4785 1.3849-3.9151-4.9671-0.48975-10.983 0.27698-16.619z" fill="#4d4d4d" fill-opacity=".75" fill-rule="evenodd"/><path id="w" d="m97.313 31.413c-3.2417 1.193-6.4625 2.1571-10.07 7.3652 1.7622-0.57375 3.398-0.76123 3.9278 2.4277-0.53028-3.7859 3.661-6.6164 6.1422-9.7929z" fill="#4d4d4d" fill-opacity=".75" fill-rule="evenodd"/><path id="x" d="m49.836 59.602c7.1622 9.1403 14.839 19.666 26.131 28.806l4.9857-4.7087c-11.999-10.124-19.581-20.61-27.607-29.409z" fill="url(#d)" fill-rule="evenodd" stroke="#000" stroke-linejoin="miter" stroke-miterlimit="4" stroke-width=".8942"/><path id="y" d="m20.294 95.886c-8.7623 8.8893-14.051 19.278-6.6475 29.637h24.374c10.098-19.725-2.1618-19.783-14.126-13.295 4.0681-3.9331 9.9539-6.7531 10.581-14.459" fill="#a2a2a2" fill-rule="evenodd" stroke="#000" stroke-linecap="round" stroke-linejoin="miter" stroke-miterlimit="4" stroke-width="3.1193"/><path id="z" d="m52.896 100.82c0.06175 8.2788-0.63675 15.21 0.08111 24.145l26.59-0.277c4.6658-15.983 2.1355-24.319-14.957-14.68l-1.189-13.2" fill="#a0a0a0" fill-rule="evenodd" stroke="#000" stroke-linecap="round" stroke-linejoin="miter" stroke-miterlimit="4" stroke-width="3.1193"/><ellipse id="aa" cx="84.761" cy="45.596" rx=".051662" ry=".072327" fill="#f00" fill-rule="evenodd" stroke="#fff" stroke-linecap="round" stroke-linejoin="round" stroke-miterlimit="4" stroke-width="2.6233"/><ellipse id="ab" cx="91.163" cy="45.596" rx=".051662" ry=".072327" fill="#f00" fill-rule="evenodd" stroke="#fff" stroke-linecap="round" stroke-linejoin="round" stroke-miterlimit="4" stroke-width="2.6233"/></g></svg>
