<?xml version="1.0" encoding="UTF-8"?>
<svg version="1.1" viewBox="0 0 16 16" xmlns="http://www.w3.org/2000/svg"><title>network-wireless-signal-full-symbolic-dark</title><g id="a" fill="none" fill-rule="evenodd" stroke-width="1"><path id="b" d="m8 10.876c0.80028 0 1.5418 0.25169 2.1496 0.68024l-2.1496 2.2625-2.1486-2.2632c0.60768-0.42811 1.3488-0.67952 2.1486-0.67952zm0-2.67c1.5133 0 2.904 0.5248 4 1.4023l-0.6923 0.72767c-0.91418-0.70837-2.0617-1.13-3.3077-1.13-1.2456 0-2.3927 0.42132-3.3067 1.1292l-0.69232-0.72768c1.0959-0.87705 2.4862-1.4015 3.999-1.4015zm0-2.669c2.2255 0 4.264 0.80106 5.8427 2.1306l-0.69017 0.72647c-1.3982-1.1598-3.194-1.8571-5.1525-1.8571-1.9585 0-3.7541 0.69715-5.1523 1.8568l-0.68946-0.72707c1.5786-1.329 3.6166-2.1297 5.8417-2.1297zm1.4734-2.5787 0.24991 0.034003 0.35397 0.057587 0.28269 0.054044 0.29248 0.063571c1.8932 0.43699 3.6114 1.3317 5.0317 2.5612l-0.6894 0.726c-1.8797-1.6132-4.3234-2.5879-6.9947-2.5879-2.6708 0-5.1141 0.97438-6.9937 2.5871l-0.68983-0.72564c1.4369-1.2438 3.1786-2.1448 5.0981-2.5759l0.28045-0.059389 0.31781-0.058683c0.27888-0.047522 0.56111-0.085213 0.84632-0.1127l0.44836-0.034714c0.11566-0.0066934 0.23176-0.011721 0.34829-0.015059l0.34423-0.0049246 0.41932 0.0073116 0.37037 0.018695c0.11755 0.0077671 0.23462 0.017256 0.35121 0.02844l0.33247 0.037071z" fill="#000" fill-rule="nonzero"/></g></svg>
