<?xml version="1.0" encoding="UTF-8"?>
<svg viewBox="0 0 48 48" xmlns="http://www.w3.org/2000/svg" xmlns:xlink="http://www.w3.org/1999/xlink"><defs><radialGradient id="b" cx="20.914" cy="47.045" r="19.5" gradientTransform="matrix(1.3826 4e-5 0 .1715 4.27 21.097)" gradientUnits="userSpaceOnUse" xlink:href="#f"/><radialGradient id="d" cx="20.914" cy="47.045" r="19.5" gradientTransform="matrix(1.3826 4e-5 0 .1715 -.73 21.097)" gradientUnits="userSpaceOnUse" xlink:href="#f"/><radialGradient id="a" cx="20.914" cy="47.045" r="19.5" gradientTransform="matrix(1.3826 4e-5 0 .1715 -8.73 21.097)" gradientUnits="userSpaceOnUse" xlink:href="#f"/><radialGradient id="l" cx="605.71" cy="486.65" r="117.14" gradientTransform="matrix(2.7744 0 0 1.9697 -1891.6 -872.88)" gradientUnits="userSpaceOnUse" xlink:href="#h"/><radialGradient id="k" cx="605.71" cy="486.65" r="117.14" gradientTransform="matrix(-2.7744 0 0 1.9697 112.76 -872.88)" gradientUnits="userSpaceOnUse" xlink:href="#h"/><radialGradient id="o" cx="24.006" cy="32.997" r="19" gradientTransform="matrix(.83632 0 0 .51422 -4.025 -.033)" gradientUnits="userSpaceOnUse" xlink:href="#c"/><radialGradient id="t" cx="23.938" cy="42.688" r="23.76" gradientTransform="matrix(1 0 0 .24763 0 32.117)" gradientUnits="userSpaceOnUse" xlink:href="#h"/><linearGradient id="c"><stop stop-color="#3465a4" offset="0"/><stop stop-color="#204a87" offset="1"/></linearGradient><linearGradient id="j"><stop stop-color="#5a7aa4" offset="0"/><stop stop-color="#5a7aa4" stop-opacity="0" offset="1"/></linearGradient><linearGradient id="h"><stop offset="0"/><stop stop-opacity="0" offset="1"/></linearGradient><linearGradient id="f"><stop stop-color="#fff" offset="0"/><stop stop-color="#fff" stop-opacity="0" offset="1"/></linearGradient><linearGradient id="g"><stop stop-color="#eeeeec" offset="0"/><stop stop-color="#e6e6e3" offset="1"/></linearGradient><linearGradient id="e"><stop stop-color="#eeeeec" offset="0"/><stop stop-color="#d3d7cf" offset="1"/></linearGradient><linearGradient id="i" x1="29.5" x2="29.125" y1="46.029" y2="37.938" gradientTransform="matrix(.648 0 0 .70766 .734 -1.448)" gradientUnits="userSpaceOnUse" xlink:href="#e"/><linearGradient id="n" x1="20.157" x2="20.157" y1="5.1" y2="26.039" gradientTransform="matrix(.66451 0 0 .65125 .096 -1.21)" gradientUnits="userSpaceOnUse" xlink:href="#f"/><linearGradient id="p" x1="17.248" x2="39.904" y1="6.376" y2="38.876" gradientTransform="matrix(.64825 0 0 .64425 .433 -.741)" gradientUnits="userSpaceOnUse" xlink:href="#g"/><linearGradient id="r" x1="31.743" x2="31.861" y1="37.842" y2="43.826" gradientTransform="matrix(1 0 0 .99278 0 -2.718)" gradientUnits="userSpaceOnUse" xlink:href="#g"/><linearGradient id="q" x1="23.155" x2="23.529" y1="34.573" y2="40.22" gradientTransform="matrix(1.0042 0 0 1 -.125 -3.012)" gradientUnits="userSpaceOnUse" xlink:href="#h"/><linearGradient id="s" x1="37.485" x2="37.295" y1="38.268" y2="33.638" gradientTransform="matrix(.65426 0 0 .65467 -.481 .69)" gradientUnits="userSpaceOnUse" xlink:href="#h"/><linearGradient id="m" x1="-931.75" x2="-131.24" y1="148.07" y2="148.07" gradientTransform="scale(1.6735 .59756)" gradientUnits="userSpaceOnUse" xlink:href="#j"/></defs><g transform="translate(14.985 1)"><path transform="matrix(.63348 0 0 .5655 1.12 .201)" d="m47.697 42.688a23.76 5.884 0 1 1-47.52 0 23.76 5.884 0 1 1 47.52 0z" fill="url(#t)" fill-rule="evenodd" opacity=".3"/><path d="M27.083 28.048c-5.42-6.912 4.865-1.499 3.773-3.894-1.07-2.348-13.448.441-12.146-3.487" fill="none" opacity=".20787" stroke="url(#s)"/><path d="M26.785 27.672c-5.246-7.26 4.736-1.185 3.59-4.068-1.302-3.273-12.176.673-11.569-3.197" fill="none" stroke="#729fcf"/><g><path transform="matrix(.53061 0 0 .53095 3.14 3.404)" d="M14.375 32.559s1.217 4.899-3.856 4.945c-2.43.022-1.932 4.006-1.932 4.006l30.846-.031s.419-3.868-2.022-3.913c-4.988-.091-3.81-5.07-3.81-5.07l-19.226.063z" fill="url(#r)" fill-rule="evenodd" stroke="#888a85" stroke-width="1.884"/><path transform="matrix(.53061 0 0 .53095 3.14 3.404)" d="M13.926 33.027c.084 2.173-.284 2.912-1.64 3.676L36 38c-.953-1.169-2.34-2.933-1.961-4.988l-20.113.015z" fill="url(#q)" fill-rule="evenodd" opacity=".5"/><path transform="matrix(.53061 0 0 .53095 3.14 3.404)" d="M10.436 38.662c6.564.002 27.127 0 27.127 0" fill="none" stroke="#8d8d8f" stroke-linecap="round" stroke-opacity=".43902" stroke-width="1.884px"/><path transform="matrix(.53061 0 0 .53095 3.14 3.404)" d="M11.134 39.66c6.013.002 25.748 0 25.748 0" fill="none" stroke="#fff" stroke-linecap="round" stroke-width="1.884px"/></g><path d="M3.602 1.5H28.32c1.313 0 2.27.92 2.27 2.336l.007 16.237c0 1.09-.343 1.427-1.32 1.427l-26.553-.012c-.765-.019-1.309-.319-1.319-1.301l.01-16.472c0-1.143.998-2.215 2.188-2.215z" fill="url(#p)" fill-rule="evenodd" stroke="#888a85"/><path d="M3.5 3.5h25.104v15.194H3.5z" fill="url(#o)" fill-rule="evenodd" stroke="#204a87" stroke-width="1px"/><path d="M4.098 4.02v11.728C15.026 14.866 19.116 9.162 28 8.566V4l-23.902.02z" fill="url(#n)" fill-rule="evenodd" opacity=".5"/><path d="M4.056 2.5c-.816 0-1.56.795-1.56 1.574V19.79c.004.37.09.485.176.556.084.071.263.128.565.135l25.546.019c.407 0 .535-.062.585-.115.05-.053.137-.246.137-.71V4.189c0-1.11-.63-1.689-1.638-1.689H4.057z" fill="none" stroke="#fff"/><g><path transform="matrix(.01543 0 0 .01216 29.57 28.017)" d="m-1559.3-150.7h1339.6v478.36h-1339.6z" fill="url(#m)" opacity=".40206"/><path transform="matrix(.01543 0 0 .01216 29.57 28.017)" d="m-219.62-150.68v478.33c142.87 0.9 345.4-107.17 345.4-239.2s-159.44-239.13-345.4-239.13z" fill="url(#l)" opacity=".40206"/><path transform="matrix(.01543 0 0 .01216 29.57 28.017)" d="m-1559.3-150.68v478.33c-142.88 0.9-345.4-107.17-345.4-239.2s159.44-239.13 345.4-239.13z" fill="url(#k)" opacity=".40206"/></g><path d="M3.644 26.505h25.278c.304 0 .867-.012 1.078.495l1.5 3c.063.406-.013 1.563-1.5 1.563L2.5 31.5c-1.5.063-1.435-1.219-1.435-1.5L3 27c.211-.507.34-.495.644-.495z" fill="url(#i)" stroke="#888a85" stroke-linecap="square" stroke-linejoin="round"/><path d="m4.096 27.112 24.4-.006c.293 0 .325 0 .527.344l1.398 2.7c0 .191-.235.344-.527.344L2.678 30.5c-.292 0-.526-.153-.526-.343l1.417-2.702c.203-.343.235-.343.527-.343z" fill="none" stroke="#fff" stroke-linecap="square" stroke-linejoin="round"/><path d="M4.904 26.5c-.002.002.002.015 0 .016l-.042.016c-.004.002-.018-.001-.021 0l-.022.016-.02.016a1.619 1.619 0 0 0-.022.016l-.021.015c-.042.046-.086.125-.148.222L3.165 29.22v.016.016.016c.001.006.019.025.02.031.002.003 0 .013 0 .016l.022.032c.006.008.014.023.021.031.002.003.019.014.021.016l.021.016a.544.544 0 0 0 .064.047l.02.016.043.016a.896.896 0 0 0 .275.048H18.65l-.063-3.037H5.115c-.044 0-.093-.002-.127 0h-.042-.02c-.003.001-.02-.002-.022 0zm14.93 0 .063 1.013h3.656l-.169-1.012h-3.55zm4.819 0 .76 3.038h3.382a.89.89 0 0 0 .275-.048c.011-.004.031-.01.042-.016l.021-.016a.544.544 0 0 0 .064-.047c.002-.002.018-.013.02-.016.003-.002.02-.013.022-.016.007-.008.015-.023.021-.031.006-.009.017-.023.021-.032.002-.003-.001-.013 0-.016.002-.006.02-.025.021-.031v-.016-.016-.016l-1.183-2.404c-.062-.097-.106-.176-.148-.222l-.021-.015a1.615 1.615 0 0 0-.021-.016l-.021-.016-.021-.016c-.004-.001-.018.002-.021 0l-.043-.016c-.01-.001-.027-.012-.042-.015-.008-.002-.035 0-.042 0-.034-.002-.083 0-.127 0h-2.96zm-3.974 2.025-.676 1.013h3.889l-.846-1.013H20.68z" fill="#d3d7cf" stroke="#babdb6" stroke-linecap="square" stroke-linejoin="round"/><rect x="5" y="26" width="1" height="1" rx=".265" ry=".265" fill="url(#a)"/><rect x="7" y="26" width="1" height="1" rx=".265" ry=".265" fill="url(#a)"/><rect x="9" y="26" width="1" height="1" rx=".265" ry=".265" fill="url(#a)"/><rect x="11" y="26" width="1" height="1" rx=".265" ry=".265" fill="url(#a)"/><rect x="13" y="26" width="1" height="1" rx=".265" ry=".265" fill="url(#a)"/><rect x="15" y="26" width="1" height="1" rx=".265" ry=".265" fill="url(#a)"/><rect x="17" y="26" width="1" height="1" rx=".265" ry=".265" fill="url(#a)"/><rect x="4" y="27" width="1" height="1" rx=".265" ry=".265" fill="url(#a)"/><rect x="6" y="27" width="1" height="1" rx=".265" ry=".265" fill="url(#a)"/><rect x="8" y="27" width="1" height="1" rx=".265" ry=".265" fill="url(#a)"/><rect x="10" y="27" width="1" height="1" rx=".265" ry=".265" fill="url(#a)"/><rect x="12" y="27" width="1" height="1" rx=".265" ry=".265" fill="url(#a)"/><rect x="14" y="27" width="1" height="1" rx=".265" ry=".265" fill="url(#a)"/><rect x="16" y="27" width="1" height="1" rx=".265" ry=".265" fill="url(#a)"/><rect x="18" y="27" width="1" height="1" rx=".265" ry=".265" fill="url(#a)"/><rect x="5" y="28" width="1" height="1" rx=".265" ry=".265" fill="url(#a)"/><rect x="7" y="28" width="1" height="1" rx=".265" ry=".265" fill="url(#a)"/><rect x="9" y="28" width="1" height="1" rx=".265" ry=".265" fill="url(#a)"/><rect x="11" y="28" width="1" height="1" rx=".265" ry=".265" fill="url(#a)"/><rect x="13" y="28" width="1" height="1" rx=".265" ry=".265" fill="url(#a)"/><rect x="15" y="28" width="1" height="1" rx=".265" ry=".265" fill="url(#a)"/><rect x="17" y="28" width="1" height="1" rx=".265" ry=".265" fill="url(#a)"/><rect x="4" y="29" width="1" height="1" rx=".265" ry=".265" fill="url(#a)"/><rect x="6" y="29" width="1" height="1" rx=".265" ry=".265" fill="url(#a)"/><rect x="8" y="29" width="1" height="1" rx=".265" ry=".265" fill="url(#a)"/><rect x="10" y="29" width="1" height="1" rx=".265" ry=".265" fill="url(#a)"/><rect x="12" y="29" width="1" height="1" rx=".265" ry=".265" fill="url(#a)"/><rect x="14" y="29" width="1" height="1" rx=".265" ry=".265" fill="url(#a)"/><rect x="16" y="29" width="1" height="1" rx=".265" ry=".265" fill="url(#a)"/><rect x="18" y="29" width="1" height="1" rx=".265" ry=".265" fill="url(#a)"/><rect x="21" y="26" width="1" height="1" rx=".265" ry=".265" fill="url(#d)"/><rect x="20" y="27" width="1" height="1" rx=".265" ry=".265" fill="url(#d)"/><rect x="22" y="27" width="1" height="1" rx=".265" ry=".265" fill="url(#d)"/><rect x="21" y="28" width="1" height="1" rx=".265" ry=".265" fill="url(#d)"/><rect x="23" y="28" width="1" height="1" rx=".265" ry=".265" fill="url(#d)"/><rect x="20" y="29" width="1" height="1" rx=".265" ry=".265" fill="url(#d)"/><rect x="22" y="29" width="1" height="1" rx=".265" ry=".265" fill="url(#d)"/><rect x="26" y="26" width="1" height="1" rx=".265" ry=".265" fill="url(#b)"/><rect x="25" y="27" width="1" height="1" rx=".265" ry=".265" fill="url(#b)"/><rect x="27" y="27" width="1" height="1" rx=".265" ry=".265" fill="url(#b)"/><rect x="26" y="28" width="1" height="1" rx=".265" ry=".265" fill="url(#b)"/><rect x="28" y="28" width="1" height="1" rx=".265" ry=".265" fill="url(#b)"/><rect x="25" y="29" width="1" height="1" rx=".265" ry=".265" fill="url(#b)"/><rect x="27" y="29" width="1" height="1" rx=".265" ry=".265" fill="url(#b)"/></g><g transform="translate(.985 12)"><path transform="matrix(.63348 0 0 .5655 1.12 .201)" d="m47.697 42.688a23.76 5.884 0 1 1-47.52 0 23.76 5.884 0 1 1 47.52 0z" fill="url(#t)" fill-rule="evenodd" opacity=".3"/><path d="M27.083 28.048c-5.42-6.912 4.865-1.499 3.773-3.894-1.07-2.348-13.448.441-12.146-3.487" fill="none" opacity=".20787" stroke="url(#s)"/><path d="M26.785 27.672c-5.246-7.26 4.736-1.185 3.59-4.068-1.302-3.273-12.176.673-11.569-3.197" fill="none" stroke="#729fcf"/><g><path transform="matrix(.53061 0 0 .53095 3.14 3.404)" d="M14.375 32.559s1.217 4.899-3.856 4.945c-2.43.022-1.932 4.006-1.932 4.006l30.846-.031s.419-3.868-2.022-3.913c-4.988-.091-3.81-5.07-3.81-5.07l-19.226.063z" fill="url(#r)" fill-rule="evenodd" stroke="#888a85" stroke-width="1.884"/><path transform="matrix(.53061 0 0 .53095 3.14 3.404)" d="M13.926 33.027c.084 2.173-.284 2.912-1.64 3.676L36 38c-.953-1.169-2.34-2.933-1.961-4.988l-20.113.015z" fill="url(#q)" fill-rule="evenodd" opacity=".5"/><path transform="matrix(.53061 0 0 .53095 3.14 3.404)" d="M10.436 38.662c6.564.002 27.127 0 27.127 0" fill="none" stroke="#8d8d8f" stroke-linecap="round" stroke-opacity=".43902" stroke-width="1.884px"/><path transform="matrix(.53061 0 0 .53095 3.14 3.404)" d="M11.134 39.66c6.013.002 25.748 0 25.748 0" fill="none" stroke="#fff" stroke-linecap="round" stroke-width="1.884px"/></g><path d="M3.602 1.5H28.32c1.313 0 2.27.92 2.27 2.336l.007 16.237c0 1.09-.343 1.427-1.32 1.427l-26.553-.012c-.765-.019-1.309-.319-1.319-1.301l.01-16.472c0-1.143.998-2.215 2.188-2.215z" fill="url(#p)" fill-rule="evenodd" stroke="#888a85"/><path d="M3.5 3.5h25.104v15.194H3.5z" fill="url(#o)" fill-rule="evenodd" stroke="#204a87" stroke-width="1px"/><path d="M4.098 4.02v11.728C15.026 14.866 19.116 9.162 28 8.566V4l-23.902.02z" fill="url(#n)" fill-rule="evenodd" opacity=".5"/><path d="M4.056 2.5c-.816 0-1.56.795-1.56 1.574V19.79c.004.37.09.485.176.556.084.071.263.128.565.135l25.546.019c.407 0 .535-.062.585-.115.05-.053.137-.246.137-.71V4.189c0-1.11-.63-1.689-1.638-1.689H4.057z" fill="none" stroke="#fff"/><g><path transform="matrix(.01543 0 0 .01216 29.57 28.017)" d="m-1559.3-150.7h1339.6v478.36h-1339.6z" fill="url(#m)" opacity=".40206"/><path transform="matrix(.01543 0 0 .01216 29.57 28.017)" d="m-219.62-150.68v478.33c142.87 0.9 345.4-107.17 345.4-239.2s-159.44-239.13-345.4-239.13z" fill="url(#l)" opacity=".40206"/><path transform="matrix(.01543 0 0 .01216 29.57 28.017)" d="m-1559.3-150.68v478.33c-142.88 0.9-345.4-107.17-345.4-239.2s159.44-239.13 345.4-239.13z" fill="url(#k)" opacity=".40206"/></g><path d="M3.644 26.505h25.278c.304 0 .867-.012 1.078.495l1.5 3c.063.406-.013 1.563-1.5 1.563L2.5 31.5c-1.5.063-1.435-1.219-1.435-1.5L3 27c.211-.507.34-.495.644-.495z" fill="url(#i)" stroke="#888a85" stroke-linecap="square" stroke-linejoin="round"/><path d="m4.096 27.112 24.4-.006c.293 0 .325 0 .527.344l1.398 2.7c0 .191-.235.344-.527.344L2.678 30.5c-.292 0-.526-.153-.526-.343l1.417-2.702c.203-.343.235-.343.527-.343z" fill="none" stroke="#fff" stroke-linecap="square" stroke-linejoin="round"/><path d="M4.904 26.5c-.002.002.002.015 0 .016l-.042.016c-.004.002-.018-.001-.021 0l-.022.016-.02.016a1.619 1.619 0 0 0-.022.016l-.021.015c-.042.046-.086.125-.148.222L3.165 29.22v.016.016.016c.001.006.019.025.02.031.002.003 0 .013 0 .016l.022.032c.006.008.014.023.021.031.002.003.019.014.021.016l.021.016a.544.544 0 0 0 .064.047l.02.016.043.016a.896.896 0 0 0 .275.048H18.65l-.063-3.037H5.115c-.044 0-.093-.002-.127 0h-.042-.02c-.003.001-.02-.002-.022 0zm14.93 0 .063 1.013h3.656l-.169-1.012h-3.55zm4.819 0 .76 3.038h3.382a.89.89 0 0 0 .275-.048c.011-.004.031-.01.042-.016l.021-.016a.544.544 0 0 0 .064-.047c.002-.002.018-.013.02-.016.003-.002.02-.013.022-.016.007-.008.015-.023.021-.031.006-.009.017-.023.021-.032.002-.003-.001-.013 0-.016.002-.006.02-.025.021-.031v-.016-.016-.016l-1.183-2.404c-.062-.097-.106-.176-.148-.222l-.021-.015a1.615 1.615 0 0 0-.021-.016l-.021-.016-.021-.016c-.004-.001-.018.002-.021 0l-.043-.016c-.01-.001-.027-.012-.042-.015-.008-.002-.035 0-.042 0-.034-.002-.083 0-.127 0h-2.96zm-3.974 2.025-.676 1.013h3.889l-.846-1.013H20.68z" fill="#d3d7cf" stroke="#babdb6" stroke-linecap="square" stroke-linejoin="round"/><rect x="5" y="26" width="1" height="1" rx=".265" ry=".265" fill="url(#a)"/><rect x="7" y="26" width="1" height="1" rx=".265" ry=".265" fill="url(#a)"/><rect x="9" y="26" width="1" height="1" rx=".265" ry=".265" fill="url(#a)"/><rect x="11" y="26" width="1" height="1" rx=".265" ry=".265" fill="url(#a)"/><rect x="13" y="26" width="1" height="1" rx=".265" ry=".265" fill="url(#a)"/><rect x="15" y="26" width="1" height="1" rx=".265" ry=".265" fill="url(#a)"/><rect x="17" y="26" width="1" height="1" rx=".265" ry=".265" fill="url(#a)"/><rect x="4" y="27" width="1" height="1" rx=".265" ry=".265" fill="url(#a)"/><rect x="6" y="27" width="1" height="1" rx=".265" ry=".265" fill="url(#a)"/><rect x="8" y="27" width="1" height="1" rx=".265" ry=".265" fill="url(#a)"/><rect x="10" y="27" width="1" height="1" rx=".265" ry=".265" fill="url(#a)"/><rect x="12" y="27" width="1" height="1" rx=".265" ry=".265" fill="url(#a)"/><rect x="14" y="27" width="1" height="1" rx=".265" ry=".265" fill="url(#a)"/><rect x="16" y="27" width="1" height="1" rx=".265" ry=".265" fill="url(#a)"/><rect x="18" y="27" width="1" height="1" rx=".265" ry=".265" fill="url(#a)"/><rect x="5" y="28" width="1" height="1" rx=".265" ry=".265" fill="url(#a)"/><rect x="7" y="28" width="1" height="1" rx=".265" ry=".265" fill="url(#a)"/><rect x="9" y="28" width="1" height="1" rx=".265" ry=".265" fill="url(#a)"/><rect x="11" y="28" width="1" height="1" rx=".265" ry=".265" fill="url(#a)"/><rect x="13" y="28" width="1" height="1" rx=".265" ry=".265" fill="url(#a)"/><rect x="15" y="28" width="1" height="1" rx=".265" ry=".265" fill="url(#a)"/><rect x="17" y="28" width="1" height="1" rx=".265" ry=".265" fill="url(#a)"/><rect x="4" y="29" width="1" height="1" rx=".265" ry=".265" fill="url(#a)"/><rect x="6" y="29" width="1" height="1" rx=".265" ry=".265" fill="url(#a)"/><rect x="8" y="29" width="1" height="1" rx=".265" ry=".265" fill="url(#a)"/><rect x="10" y="29" width="1" height="1" rx=".265" ry=".265" fill="url(#a)"/><rect x="12" y="29" width="1" height="1" rx=".265" ry=".265" fill="url(#a)"/><rect x="14" y="29" width="1" height="1" rx=".265" ry=".265" fill="url(#a)"/><rect x="16" y="29" width="1" height="1" rx=".265" ry=".265" fill="url(#a)"/><rect x="18" y="29" width="1" height="1" rx=".265" ry=".265" fill="url(#a)"/><rect x="21" y="26" width="1" height="1" rx=".265" ry=".265" fill="url(#d)"/><rect x="20" y="27" width="1" height="1" rx=".265" ry=".265" fill="url(#d)"/><rect x="22" y="27" width="1" height="1" rx=".265" ry=".265" fill="url(#d)"/><rect x="21" y="28" width="1" height="1" rx=".265" ry=".265" fill="url(#d)"/><rect x="23" y="28" width="1" height="1" rx=".265" ry=".265" fill="url(#d)"/><rect x="20" y="29" width="1" height="1" rx=".265" ry=".265" fill="url(#d)"/><rect x="22" y="29" width="1" height="1" rx=".265" ry=".265" fill="url(#d)"/><rect x="26" y="26" width="1" height="1" rx=".265" ry=".265" fill="url(#b)"/><rect x="25" y="27" width="1" height="1" rx=".265" ry=".265" fill="url(#b)"/><rect x="27" y="27" width="1" height="1" rx=".265" ry=".265" fill="url(#b)"/><rect x="26" y="28" width="1" height="1" rx=".265" ry=".265" fill="url(#b)"/><rect x="28" y="28" width="1" height="1" rx=".265" ry=".265" fill="url(#b)"/><rect x="25" y="29" width="1" height="1" rx=".265" ry=".265" fill="url(#b)"/><rect x="27" y="29" width="1" height="1" rx=".265" ry=".265" fill="url(#b)"/></g></svg>
