<?xml version="1.0" encoding="UTF-8"?>
<svg viewBox="0 0 48 48" xmlns="http://www.w3.org/2000/svg" xmlns:xlink="http://www.w3.org/1999/xlink"><defs><linearGradient id="a" x2="0" y1="44" y2="4" gradientTransform="translate(0 1004.4)" gradientUnits="userSpaceOnUse"><stop stop-color="#63984b" offset="0"/><stop stop-color="#8fc278" offset="1"/></linearGradient><linearGradient id="b" x1="17" x2="44" y1="11" y2="41" gradientTransform="translate(0 1004.4)" gradientUnits="userSpaceOnUse"><stop offset="0"/><stop stop-opacity="0" offset="1"/></linearGradient><linearGradient id="c" x2="0" y1="40" y2="6" gradientTransform="matrix(.94118 0 0 .91176 1.412 1006.4)" gradientUnits="userSpaceOnUse"><stop stop-color="#b1b1b1" offset="0"/><stop stop-color="#ddd" offset="1"/></linearGradient><linearGradient id="d" x1="23" x2="40" y1="21" y2="39" gradientTransform="translate(0 1004.4)" gradientUnits="userSpaceOnUse" xlink:href="#b"/><linearGradient id="e" x2="0" y1="1041" y2="1013" gradientUnits="userSpaceOnUse"><stop stop-color="#f2f2f2" offset="0"/><stop stop-color="#fff" offset="1"/></linearGradient></defs><g transform="translate(0-1004.36)"><g fill-rule="evenodd"><path d="m4 1008.4v9l3 2-3 2v27h40v-40z" fill="#dce269"/><path d="m4 1008.4v8l3 2-3 2v27h40v-39z" fill="url(#a)"/></g><g color="#000000" fill="#dee372"><path d="m9 1044.4v1h1v-1zm1 1v1h1v-1zm1 0h1v-1h-1zm1 0v1h1v-1zm1 0h1v-1h-1zm1 0v1h1v-1zm1 0h1v-1h-1zm1 0v1h1v-1zm1 0h1v-1h-1zm1 0v1h1v-1zm1 0h1v-1h-1zm1 0v1h1v-1zm1 0h1v-1h-1zm1 0v1h1v-1zm1 0h1v-1h-1zm1 0v1h1v-1z" opacity=".6"/><path d="m35 1044.4v1h1v-1zm1 1v1h1v-1zm1 0h1v-1h-1zm1 0v1h1v-1zm1 0h1v-1h-1zm-4 0h-1v1h1z" opacity=".6"/></g><path d="m43 1044.4-2 2h2z" fill="#e6ea97" fill-rule="evenodd"/><path d="m42 1013.4v1h1v-1zm0 1h-1v1h1zm0 1v1h1v-1zm0 1h-1v1h1zm0 1v1h1v-1zm0 1h-1v1h1zm0 1v1h1v-1zm0 1h-1v1h1zm0 1v1h1v-1zm0 1h-1v1h1zm0 1v1h1v-1zm0 1h-1v1h1zm0 1v1h1v-1zm0 1h-1v1h1zm0 1v1h1v-1zm0 1h-1v1h1z" color="#000000" fill="#dee372" opacity=".6"/><g fill-rule="evenodd"><path d="m40 1012.4v31h-32l4.584 5h31.416v-32z" fill="url(#b)" opacity=".2"/><rect x="8" y="1012.4" width="32" height="31" fill="url(#c)"/><rect x="8" y="1042.4" width="32" height="1" fill="#5c5c5c"/><path d="m38 1041.36h-28l6.786 6.963 27.21.037v-28l-6-6z" fill="url(#d)" opacity=".2"/><path d="m10 1014.4v27h28v-27z" fill="url(#e)"/><rect x="10" y="1040.4" width="28" height="1" fill="#878787"/><g fill="#bcbcbc"><rect x="13" y="1032.4" width="8" height="1"/><rect x="22" y="1032.4" width="6" height="1"/><rect x="13" y="1034.4" width="7" height="1"/><rect x="21" y="1034.4" width="3" height="1"/><rect x="13" y="1036.4" width="4.03" height="1"/><rect x="18" y="1036.4" width="8" height="1"/></g><g fill="#959595"><rect x="13" y="1016.4" width="10" height="1"/><rect x="24" y="1016.4" width="5" height="1"/><rect x="13" y="1018.4" width="7" height="1"/><rect x="22" y="1018.4" width="4" height="1"/></g></g></g></svg>
