<?xml version="1.0" encoding="UTF-8"?>
<svg id="aw" version="1.0" viewBox="0 0 128 128" xmlns="http://www.w3.org/2000/svg" xmlns:xlink="http://www.w3.org/1999/xlink"><defs id="ax"><linearGradient id="o"><stop id="ay" stop-color="#fff" offset="0"/><stop id="az" stop-color="#fff" stop-opacity="0" offset="1"/></linearGradient><linearGradient id="e"><stop id="ba" stop-opacity=".28" offset="0"/><stop id="bb" stop-opacity="0" offset="1"/></linearGradient><linearGradient id="b"><stop id="bc" offset="0"/><stop id="bd" stop-opacity="0" offset="1"/></linearGradient><linearGradient id="p"><stop id="be" stop-color="#fefefe" offset="0"/><stop id="bf" stop-color="#a2a2a2" offset="1"/></linearGradient><linearGradient id="q"><stop id="bg" stop-color="#fefefe" offset="0"/><stop id="bh" stop-color="#fefefe" stop-opacity="0" offset="1"/></linearGradient><linearGradient id="c"><stop id="bi" stop-color="#fff" offset="0"/><stop id="bj" stop-color="#c0c0c0" offset=".69"/><stop id="bk" stop-color="#d8d8d8" offset="1"/></linearGradient><clipPath id="a"><path id="bl" d="m-2267.1 169.81c-105.12-0.10643-198.87 24.501-281.5 62.031-25.425 11.548-47.416 30.533-52.844 54.062-9.2126 39.936-8.8832 82.671 7.1875 134.56 12.031 38.848 31.261 62.627 55.281 79.281 120.12 83.283 415.31 103.19 564.62-19.219 41.3-33.858 44.606-93.187 46.844-150.16 0.9113-23.201-6.4775-50.941-15.625-61.281-33.005-37.309-69.468-65.494-205.41-88.906-41.008-7.0627-80.54-10.336-118.56-10.375zm0 12.625c36.183 0.03664 73.757 3.1538 112.78 9.875 129.36 22.28 161.09 49.089 192.5 84.594 8.7051 9.8406 15.742 33.234 14.875 55.312-2.1295 54.214-5.2911 107.69-44.594 139.91-142.1 116.49-417 97.537-531.31 18.281-22.859-15.849-41.144-38.468-52.594-75.438-15.294-49.382-15.611-87.058-6.8438-125.06 5.1654-22.392 26.086-37.448 50.281-48.438 78.634-35.715 164.87-59.133 264.91-59.031z" fill="none" stroke="#000" stroke-linejoin="miter" stroke-miterlimit="4" stroke-width="3"/></clipPath><filter id="aa"><feGaussianBlur id="bm" stdDeviation="2.6939445"/></filter><filter id="z"><feGaussianBlur id="bn" stdDeviation="1.3469723"/></filter><filter id="y"><feGaussianBlur id="bo" stdDeviation="3.5021279"/></filter><filter id="x"><feGaussianBlur id="bp" stdDeviation="1.7066981"/></filter><filter id="w"><feGaussianBlur id="bq" stdDeviation="1.694685"/></filter><clipPath id="ac"><path id="br" d="m-1953.9 1026.4c1.9878 1.2863 1.2854 4.7488 0.9206 7.0945-3.1999 20.576-12.771 39.775-26.695 56.644-1.374 1.6646-3.6003 4.608-5.4602 3.5359-101.17-58.319-201.26-117.1-317.15-168.19-81.968-36.135-163.14-59.556-248.67-73.281-235.22-37.744-503.63-38.946-753.92-61.224-9.724 0-17.335-7.0106-17.335-14.46 0-10.32 1.0555-18.899 1.0555-28.686 0-5.3386 6.9195-12.392 14.562-12.159 250.53 7.6452 515.15 33.507 761.64 54.06 113.76 9.4856 191.87 34.529 271.5 67.274 112.45 46.245 220.97 105.59 319.55 169.39z" fill="#282828" fill-rule="evenodd"/></clipPath><filter id="v"><feGaussianBlur id="bs" stdDeviation="9.1365611"/></filter><filter id="av"><feGaussianBlur id="bt" stdDeviation="1.860933"/></filter><clipPath id="f"><path id="bu" d="m-2318.9 305.65c10.668-4.3338 53.717-14.576 79.692-15.254-6.2348 15.292-4.0893 27.791-0.8495 39.925l-67.108 2.5484c-3.9642 2.25-7.9283 3.3313-11.892 9.3441-8.3229-8.3575-8.6597-32.981 0.1578-36.563z" fill="none" filter="url(#av)" stroke="url(#g)" stroke-linejoin="miter" stroke-miterlimit="4" stroke-width="4.1"/></clipPath><linearGradient id="g" x1="-2282.3" x2="-2305.1" y1="275.53" y2="344.26" gradientUnits="userSpaceOnUse" xlink:href="#b"/><filter id="u"><feGaussianBlur id="bv" stdDeviation="1.1292232"/></filter><filter id="t"><feGaussianBlur id="bw" stdDeviation="0.10351212"/></filter><filter id="s" x="-.01199" y="-.12099" width="1.024" height="1.242"><feGaussianBlur id="bx" stdDeviation="1.430948"/></filter><filter id="h" x="-.017238" y="-.13396" width="1.0345" height="1.2679"><feGaussianBlur id="by" stdDeviation="2.6127722"/></filter><clipPath id="ab"><path id="bz" d="m-2127.7 482.33c11.385 16.002 30.211 14.509 38.023 14.044 93.247-11.353 181.81-7.6844 253.33-6.4061 28.578 0.51081 51.815-4.6546 66.561-4.2519l1.7593-25.451c-15.241-0.34657-38.874-6.2449-67.289-6.3392-71.773-0.2381-171.47 15.994-249.58 4.3775h-42.647l-0.1502 24.027z" fill="none" filter="url(#h)" stroke="#000" stroke-linejoin="miter" stroke-miterlimit="4" stroke-width="4.1"/></clipPath><filter id="r" x="-.057283" y="-.10522" width="1.1146" height="1.2104"><feGaussianBlur id="ca" stdDeviation="1.1587495"/></filter><filter id="au"><feGaussianBlur id="cb" stdDeviation="13.268534"/></filter><filter id="at"><feGaussianBlur id="cc" stdDeviation="1.4498712"/></filter><radialGradient id="ak" cx="101.16" cy="111.13" r="137.89" gradientUnits="userSpaceOnUse"><stop id="cd" stop-color="#f0f0f0" offset=".1006"/><stop id="ce" stop-color="#fafafa" offset=".4005"/><stop id="cf" stop-color="#fff" offset=".4793"/><stop id="cg" stop-color="#fafafa" offset=".5997"/><stop id="ch" stop-color="#eee" offset=".7219"/><stop id="ci" stop-color="#ddd" offset=".8876"/></radialGradient><linearGradient id="as" x1="-2180.9" x2="-1234" y1="-260.64" y2="686.23" gradientTransform="matrix(1.0833 0 0 1.2956 1053.8 -153.14)" gradientUnits="userSpaceOnUse" xlink:href="#e"/><radialGradient id="j" cx="-1732.9" cy="331.95" r="143.21" gradientTransform="matrix(1 5.4112e-7 -2.0127e-7 .37195 6.6811e-5 208.48)" gradientUnits="userSpaceOnUse" xlink:href="#c"/><linearGradient id="n" x1="-1893.8" x2="-1876.8" y1="331.27" y2="350.79" gradientUnits="userSpaceOnUse" xlink:href="#p"/><radialGradient id="aj" cx="-1629" cy="98.047" r="341.56" gradientTransform="matrix(1 0 0 .58623 0 152.49)" gradientUnits="userSpaceOnUse" xlink:href="#c" spreadMethod="reflect"/><radialGradient id="ai" cx="-1915.3" cy="316.3" r="43.099" gradientTransform="matrix(1 2.6563e-7 -2.2224e-6 8.3667 .00070295 -2330.1)" gradientUnits="userSpaceOnUse" xlink:href="#c"/><radialGradient id="ah" cx="-1629" cy="98.047" r="341.56" gradientTransform="matrix(-1 0 0 .58623 -2188.8 152.49)" gradientUnits="userSpaceOnUse" xlink:href="#c" spreadMethod="reflect"/><radialGradient id="ag" cx="-1915.3" cy="316.3" r="43.099" gradientTransform="matrix(-1 2.6563e-7 2.2224e-6 8.3667 -2188.8 -2330.1)" gradientUnits="userSpaceOnUse" xlink:href="#c"/><radialGradient id="af" cx="-1092.9" cy="276.5" r="127.74" gradientTransform="matrix(1 3.7814e-7 -3.2293e-7 .854 8.9289e-5 37.37)" gradientUnits="userSpaceOnUse" xlink:href="#p"/><radialGradient id="ae" cx="-1093.6" cy="217.84" r="123.64" gradientTransform="matrix(.77464 .44724 -.46606 .80724 -144.93 587.2)" gradientUnits="userSpaceOnUse"><stop id="cj" stop-color="#e2e2e2" offset="0"/><stop id="ck" stop-color="#212121" offset="1"/></radialGradient><linearGradient id="ar" x1="-3887.9" x2="-3887.9" y1="877.09" y2="63.464" gradientTransform="matrix(1 0 0 .72477 2807 194.65)" gradientUnits="userSpaceOnUse" xlink:href="#e"/><linearGradient id="aq" x1="-3887.9" x2="-3887.9" y1="746.12" y2="587.34" gradientTransform="matrix(1 0 0 .72477 2807 194.65)" gradientUnits="userSpaceOnUse" xlink:href="#e"/><linearGradient id="ap" x1="-2180.9" x2="-1234" y1="-260.64" y2="686.23" gradientUnits="userSpaceOnUse" xlink:href="#o"/><linearGradient id="ao" x1="-2160.2" x2="-1234" y1="-240.01" y2="686.23" gradientUnits="userSpaceOnUse" xlink:href="#o"/><linearGradient id="an" x1="-2180.9" x2="-1234" y1="-260.64" y2="686.23" gradientTransform="matrix(1.0833 0 0 1.2956 149.47 -161.14)" gradientUnits="userSpaceOnUse" xlink:href="#e"/><radialGradient id="i" cx="102.87" cy="110.3" r="137.89" gradientTransform="matrix(.91048 -.18217 .18221 .91052 -4.4292 18.296)" gradientUnits="userSpaceOnUse" xlink:href="#ak"/><linearGradient id="am" x1="-3230.8" x2="-2050.8" y1="515.37" y2="1340.8" gradientUnits="userSpaceOnUse" xlink:href="#q"/><linearGradient id="al" x1="-1898.5" x2="-4511.1" y1="890.18" y2="924.16" gradientUnits="userSpaceOnUse" xlink:href="#q"/><linearGradient id="m" x1="-2255.9" x2="-2255.9" y1="169.81" y2="323.11" gradientUnits="userSpaceOnUse" xlink:href="#b"/><linearGradient id="l" x1="-2255.9" x2="-2255.9" y1="169.81" y2="428.47" gradientUnits="userSpaceOnUse" xlink:href="#b"/><linearGradient id="d" x1="-2266.8" x2="-2266.8" y1="568.78" y2="-39.337" gradientUnits="userSpaceOnUse" xlink:href="#b"/><linearGradient id="k" x1="-2325.4" x2="-2309.3" y1="122.62" y2="723.97" gradientUnits="userSpaceOnUse" xlink:href="#b"/><radialGradient id="ad" cx="102.87" cy="110.3" r="137.89" gradientTransform="matrix(.91048 -.18217 .18221 .91052 -4.4292 18.296)" gradientUnits="userSpaceOnUse"><stop id="cl" stop-color="#18689a" offset="0"/><stop id="cm" stop-color="#3ba1e1" offset="1"/></radialGradient></defs><path id="cn" transform="matrix(.99922 0 0 .99512 9.0855 .79583)" d="m24.94 125c3.5154-0.70626 54.87-11.024 56.392-11.329l27.313-5.9093-5.5322-27.99c-0.29339-1.4722-14.779-74.159-15.495-77.751-3.5628 0.71578-80.266 16.126-83.83 16.842 0.71918 3.6087 20.433 102.53 21.152 106.14z" fill="#131313" filter="url(#at)" opacity=".53933"/><path id="co" d="m34.006 125.19c3.5126-0.70281 54.827-10.97 56.348-11.274l25.02-7.5346-3.2565-26.2c-0.29316-1.465-14.768-73.797-15.483-77.371-3.56 0.71229-80.203 16.047-83.764 16.76 0.71862 3.5911 20.417 102.03 21.136 105.62z" fill="#fff"/><path id="cp" d="m13.963 20.298c0.35512 1.7746 20.417 102.03 20.771 103.8 1.7499-0.35012 54.305-10.865 55.052-11.015 0.41329-0.64141 20.949-32.474 21.346-33.088-0.14466-0.72295-14.873-74.321-15.227-76.091-1.7627 0.35268-80.181 16.043-81.943 16.395z" fill="url(#i)"/><path id="cq" d="m13.963 20.298c0.35512 1.7746 20.417 102.03 20.771 103.8 1.7499-0.35012 54.305-10.865 55.052-11.015l24.802-7.1984-3.456-25.89c-0.14466-0.72295-14.873-74.321-15.227-76.091-1.7627 0.35268-80.181 16.043-81.943 16.395z" fill="url(#i)"/><path id="cr" d="m67.872 9.5312c-6.2378 1.2481-7.2041 1.434-14.094 2.8125-4.7112 6.5575-8.2758 14.343-10.688 23.344-3.7239 13.898-3.1287 24.919 1.8438 33.094 4.9724 8.1751 13.565 12.25 25.75 12.25 12.808-2e-6 23.912-4.0042 33.312-12.062 1.4379-1.2327 2.8177-2.56 4.125-3.9375-0.88002-4.3976-1.5082-7.5449-2.8125-14.062-2.805 6.0054-6.1157 11.073-9.9688 15.188-6.8168 7.2797-14.608 10.906-23.406 10.906-8.3698 2e-6 -13.988-3.6737-16.844-11.031-2.8064-7.3965-2.4839-17.521 0.96875-30.406 2.8312-10.566 6.7588-19.274 11.812-26.094z" fill="url(#ad)"/><path id="cs" d="m22.672 17.632 0.11756 0.90252 44.925-9.0186-0.25412-0.86963c-14.59 2.7249-29.688 5.8543-44.789 8.9857z" fill="#fff" fill-rule="evenodd" opacity=".3633"/><g id="ct" transform="matrix(.067798 -.018166 .018166 .067798 130.07 46.053)"><path id="cu" d="m-409.21 237.84c25.252 25.804 39.75 55.839 39.75 87.875 1e-4 96.219-130.6 174.28-291.5 174.28-149.97-1e-5 -273.61-67.813-289.72-154.94-0.5127 4.3452-0.7813 8.7334-0.7812 13.156 0 101.83 138.21 184.47 308.5 184.47 170.29 0 308.5-82.636 308.5-184.47 0-45.978-28.168-88.06-74.75-120.38z" fill="url(#as)" opacity=".82397"/><path id="cv" d="m-1954.3 594.89c-1.9878 1.2863-1.2854 4.7488-0.9206 7.0944 3.1999 20.576 12.771 39.775 26.695 56.644 1.374 1.6646 3.6003 4.608 5.4602 3.5359 101.17-58.319 201.26-117.1 317.15-168.19 81.968-36.135 163.14-59.556 248.67-73.281 235.22-37.744 503.63-38.946 753.92-61.224 9.724 0 17.335-7.0106 17.335-14.46 0-10.32-1.0555-18.899-1.0555-28.686 0-5.3386-6.9195-12.392-14.562-12.159-250.53 7.6452-515.15 33.507-761.64 54.06-113.76 9.4856-191.87 34.529-271.5 67.274-112.45 46.245-220.97 105.59-319.55 169.39z" fill="#282828" fill-rule="evenodd"/><path id="cw" transform="matrix(-1 0 0 1 -3911 -429.13)" d="m-3306.6 737.5c-7.6421-0.23321-14.562 6.8176-14.562 12.156 0 9.7873-1.0626 18.367-1.0626 28.688 0 0.99768 0.1465 2.0026 0.4063 2.9688 0.3009-5.5239 0.6563-20.896 0.6563-26.656 0-5.3386 6.9203-12.389 14.562-12.156 250.53 7.6452 515.17 33.509 761.66 54.062 113.76 9.4856 191.87 44.536 271.5 77.281 112.25 46.162 220.56 105.37 319 169.03 0.5853-2.4959 1.0738-5.0229 1.4687-7.5625 0.3649-2.3456 1.0504-5.8074-0.9374-7.0937-98.584-63.793-207.08-123.13-319.53-169.38-79.626-32.745-157.74-57.796-271.5-67.281-246.49-20.553-511.12-46.417-761.66-54.062z" clip-path="url(#ac)" fill="url(#am)" fill-rule="evenodd" filter="url(#v)"/><path id="cx" d="m-1952.9 341.18c11.385 16.002 30.211 14.509 38.023 14.044 93.247-11.353 181.81-7.6844 253.33-6.4061 28.578 0.51081 51.815-4.6546 66.561-4.2519l1.7593-25.451c-15.241-0.34657-38.874-6.2449-67.289-6.3392-71.773-0.2381-171.47 15.994-249.58 4.3775h-42.647l-0.1502 24.027z" fill="#858585" fill-rule="evenodd" stroke="#000" stroke-linejoin="miter" stroke-width="1px"/><path id="cy" transform="translate(174.99 -141.01)" d="m-2127.7 482.33c11.385 16.002 30.211 14.509 38.023 14.044 93.247-11.353 181.81-7.6844 253.33-6.4061 28.578 0.51081 51.815-4.6546 66.561-4.2519l1.7593-25.451c-15.241-0.34657-38.874-6.2449-67.289-6.3392-71.773-0.2381-171.47 15.994-249.58 4.3775h-42.647l-0.1502 24.027z" clip-path="url(#ab)" fill="none" filter="url(#h)" stroke="#000" stroke-linejoin="miter" stroke-miterlimit="4" stroke-width="4.1"/><path id="cz" d="m-1875.6 342.21s144.41 3.8226 215.76 3.3979 69.656-5.0968 69.656-5.0968l-3.3979-16.989s8.9194-6.371-61.162-5.0968-219.16 10.194-219.16 10.194l-1.6989 13.591z" fill="url(#j)" fill-rule="evenodd" filter="url(#s)" stroke="#fff" stroke-linejoin="miter" stroke-width="1px"/><path id="da" d="m-1878.9 318.05-3.6039 26.429c-16.415-0.47318-28.001-0.26993-35.294-2.0912-22.423-5.5994-4.2676-17.642 38.898-24.338z" fill="url(#n)" fill-rule="evenodd" filter="url(#r)"/><path id="db" d="m-234.58 594.89c1.9878 1.2863 1.2854 4.7488 0.9206 7.0944-3.1999 20.576-12.771 39.775-26.695 56.644-1.374 1.6646-3.6003 4.608-5.4602 3.5359-101.17-58.319-201.26-117.1-317.15-168.19-81.968-36.135-163.14-59.556-248.67-73.281-235.22-37.744-503.63-38.946-753.92-61.224-9.724 0-17.335-7.0106-17.335-14.46 0-10.32 1.0555-18.899 1.0555-28.686 0-5.3386 6.9195-12.392 14.562-12.159 250.53 7.6452 515.15 33.507 761.64 54.06 113.76 9.4856 191.87 34.529 271.5 67.274 112.45 46.245 220.97 105.59 319.55 169.39z" fill="#282828" fill-rule="evenodd"/><path id="dc" transform="translate(1722.1 -429.13)" d="m-3306.6 737.5c-7.6421-0.23321-14.562 6.8176-14.562 12.156 0 9.7873-1.0626 18.367-1.0626 28.688 0 0.99768 0.1465 2.0026 0.4063 2.9688 0.3009-5.5239 0.6563-20.896 0.6563-26.656 0-5.3386 6.9203-12.389 14.562-12.156 250.53 7.6452 515.17 33.509 761.66 54.062 113.76 9.4856 191.87 44.536 271.5 77.281 112.25 46.162 220.56 105.37 319 169.03 0.5853-2.4959 1.0738-5.0229 1.4687-7.5625 0.3649-2.3456 1.0504-5.8074-0.9374-7.0937-98.584-63.793-207.08-123.13-319.53-169.38-79.626-32.745-157.74-57.796-271.5-67.281-246.49-20.553-511.12-46.417-761.66-54.062z" clip-path="url(#ac)" fill="url(#al)" fill-rule="evenodd" filter="url(#v)"/><path id="dd" d="m-1543.3 169.81c-105.12-0.10643-198.87 24.501-281.5 62.031-25.425 11.548-47.416 30.533-52.844 54.062-9.2126 39.936-8.8832 82.671 7.1875 134.56 12.031 38.848 31.261 62.627 55.281 79.281 120.12 83.283 415.31 103.19 564.62-19.219 41.3-33.858 44.606-93.187 46.844-150.16 0.9113-23.201-6.4775-50.941-15.625-61.281-33.005-37.309-69.468-65.494-205.41-88.906-41.008-7.0627-80.54-10.336-118.56-10.375zm0 12.625c36.183 0.03664 73.757 3.1538 112.78 9.875 129.36 22.28 161.09 49.089 192.5 84.594 8.7051 9.8406 15.742 33.234 14.875 55.312-2.1295 54.214-5.2911 107.69-44.594 139.91-142.1 116.49-417 97.537-531.31 18.281-22.859-15.849-41.144-38.468-52.594-75.438-15.294-49.382-15.611-87.058-6.8438-125.06 5.1654-22.392 26.086-37.448 50.281-48.438 78.634-35.715 164.87-59.133 264.91-59.031z" fill="url(#aj)" fill-rule="evenodd"/><path id="de" transform="translate(723.8 -.11494)" d="m-2267.1 169.81c-105.12-0.10643-198.87 24.501-281.5 62.031-25.425 11.548-47.416 30.533-52.844 54.062-9.2126 39.936-8.8832 82.671 7.1875 134.56 12.031 38.848 31.261 62.627 55.281 79.281 120.12 83.283 415.31 103.19 564.62-19.219 41.3-33.858 44.606-93.187 46.844-150.16 0.9113-23.201-6.4775-50.941-15.625-61.281-33.005-37.309-69.468-65.494-205.41-88.906-41.008-7.0627-80.54-10.336-118.56-10.375z" clip-path="url(#a)" fill="none" filter="url(#z)" stroke="url(#m)" stroke-linejoin="miter" stroke-miterlimit="4" stroke-width="3"/><path id="df" transform="translate(723.8 .16118)" d="m-2267.1 169.81c-105.12-0.10643-198.87 24.501-281.5 62.031-25.425 11.548-47.416 30.533-52.844 54.062-9.2126 39.936-8.8832 82.671 7.1875 134.56 12.031 38.848 31.261 62.627 55.281 79.281 120.12 83.283 415.31 103.19 564.62-19.219 41.3-33.858 44.606-93.187 46.844-150.16 0.9113-23.201-6.4775-50.941-15.625-61.281-33.005-37.309-69.468-65.494-205.41-88.906-41.008-7.0627-80.54-10.336-118.56-10.375z" clip-path="url(#a)" fill="none" filter="url(#y)" stroke="url(#l)" stroke-linejoin="miter" stroke-miterlimit="4" stroke-width="3"/><path id="dg" transform="translate(723.83 1.3241e-6)" d="m-2267.1 169.81c-105.12-0.10643-198.87 24.501-281.5 62.031-25.425 11.548-47.416 30.533-52.844 54.062-9.2126 39.936-8.8832 82.671 7.1875 134.56 12.031 38.848 31.261 62.627 55.281 79.281 120.12 83.283 415.31 103.19 564.62-19.219 41.3-33.858 44.606-93.187 46.844-150.16 0.9113-23.201-6.4775-50.941-15.625-61.281-33.005-37.309-69.468-65.494-205.41-88.906-41.008-7.0627-80.54-10.336-118.56-10.375zm0 12.625c36.183 0.03664 73.757 3.1538 112.78 9.875 129.36 22.28 161.09 49.089 192.5 84.594 8.7051 9.8406 15.742 33.234 14.875 55.312-2.1295 54.214-5.2911 107.69-44.594 139.91-142.1 116.49-417 97.537-531.31 18.281-22.859-15.849-41.144-38.468-52.594-75.438-15.294-49.382-15.611-87.058-6.8438-125.06 5.1654-22.392 26.086-37.448 50.281-48.438 78.634-35.715 164.87-59.133 264.91-59.031z" clip-path="url(#a)" fill="none" filter="url(#aa)" stroke="url(#d)" stroke-linejoin="miter" stroke-miterlimit="4" stroke-width="3"/><path id="dh" d="m-1457.7 178.26c88.612 15.54 180.97 23.307 241.25 97.689-84.687-74.973-162.41-81.877-241.25-97.689z" fill="#fff" fill-rule="evenodd" filter="url(#w)"/><path id="di" d="m-1459.5 552.86c94.619-11.936 212.2-49.135 222.63-118.71-29.426 65.362-117.96 98.094-222.63 118.71z" fill="#fff" fill-rule="evenodd" filter="url(#x)"/><path id="dj" transform="translate(723.83 1.3241e-6)" d="m-2267.1 169.81c-105.12-0.10643-198.87 24.501-281.5 62.031-25.425 11.548-47.416 30.533-52.844 54.062-9.2126 39.936-8.8832 82.671 7.1875 134.56 12.031 38.848 31.261 62.627 55.281 79.281 120.12 83.283 415.31 103.19 564.62-19.219 41.3-33.858 44.606-93.187 46.844-150.16 0.9113-23.201-6.4775-50.941-15.625-61.281-33.005-37.309-69.468-65.494-205.41-88.906-41.008-7.0627-80.54-10.336-118.56-10.375zm0 12.625c36.183 0.03664 73.757 3.1538 112.78 9.875 129.36 22.28 161.09 49.089 192.5 84.594 8.7051 9.8406 15.742 33.234 14.875 55.312-2.1295 54.214-5.2911 107.69-44.594 139.91-142.1 116.49-417 97.537-531.31 18.281-22.859-15.849-41.144-38.468-52.594-75.438-15.294-49.382-15.611-87.058-6.8438-125.06 5.1654-22.392 26.086-37.448 50.281-48.438 78.634-35.715 164.87-59.133 264.91-59.031z" clip-path="url(#a)" fill="none" stroke="url(#d)" stroke-linejoin="miter" stroke-miterlimit="4" stroke-width="3"/><path id="dk" d="m-1951.9 305.65c10.668-4.3338 53.717-14.576 79.692-15.254-6.2348 15.292-4.0893 27.791-0.8495 39.925l-67.108 2.5484c-3.9642 2.25-7.9283 3.3313-11.892 9.3441-8.3229-8.3575-8.6597-32.981 0.1578-36.563z" fill="url(#ai)" fill-rule="evenodd"/><path id="dl" transform="translate(366.96)" d="m-2318.9 305.65c10.668-4.3338 53.717-14.576 79.692-15.254-6.2348 15.292-4.0893 27.791-0.8495 39.925l-67.108 2.5484c-3.9642 2.25-7.9283 3.3313-11.892 9.3441-8.3229-8.3575-8.6597-32.981 0.1578-36.563z" clip-path="url(#f)" fill="none" filter="url(#u)" stroke="url(#g)" stroke-linejoin="miter" stroke-miterlimit="4" stroke-width="7.2"/><path id="dm" transform="translate(366.96)" d="m-2318.9 305.65c10.668-4.3338 53.717-14.576 79.692-15.254-6.2348 15.292-4.0893 27.791-0.8495 39.925l-67.108 2.5484c-3.9642 2.25-7.9283 3.3313-11.892 9.3441-8.3229-8.3575-8.6597-32.981 0.1578-36.563z" clip-path="url(#f)" fill="none" filter="url(#t)" stroke="url(#k)" stroke-linejoin="miter" stroke-miterlimit="4" stroke-width="4"/><path id="dn" d="m-235.93 341.18c-11.385 16.002-30.211 14.509-38.023 14.044-93.247-11.353-181.81-7.6844-253.33-6.4061-28.578 0.51081-51.815-4.6546-66.561-4.2519l-1.7593-25.451c15.241-0.34657 38.874-6.2449 67.289-6.3392 71.773-0.2381 171.47 15.994 249.58 4.3775h42.647l0.1502 24.027z" fill="#858585" fill-rule="evenodd" stroke="#000" stroke-linejoin="miter" stroke-width="1px"/><path id="do" transform="matrix(-1 0 0 1 -2363.8 -141.01)" d="m-2127.7 482.33c11.385 16.002 30.211 14.509 38.023 14.044 93.247-11.353 181.81-7.6844 253.33-6.4061 28.578 0.51081 51.815-4.6546 66.561-4.2519l1.7593-25.451c-15.241-0.34657-38.874-6.2449-67.289-6.3392-71.773-0.2381-171.47 15.994-249.58 4.3775h-42.647l-0.1502 24.027z" clip-path="url(#ab)" fill="none" filter="url(#h)" stroke="#000" stroke-linejoin="miter" stroke-miterlimit="4" stroke-width="4.1"/><path id="dp" transform="matrix(-1 0 0 1 -2188.8 0)" d="m-1875.6 342.21s144.41 3.8226 215.76 3.3979 69.656-5.0968 69.656-5.0968l-3.3979-16.989s8.9194-6.371-61.162-5.0968-219.16 10.194-219.16 10.194l-1.6989 13.591z" fill="url(#j)" fill-rule="evenodd" filter="url(#s)" stroke="#fff" stroke-linejoin="miter" stroke-width="1px"/><path id="dq" transform="matrix(-1 0 0 1 -2188.8 0)" d="m-1878.9 318.05-3.6039 26.429c-16.415-0.47318-28.001-0.26993-35.294-2.0912-22.423-5.5994-4.2676-17.642 38.898-24.338z" fill="url(#n)" fill-rule="evenodd" filter="url(#r)"/><path id="dr" d="m-645.52 169.81c105.12-0.10643 198.87 24.501 281.5 62.031 25.425 11.548 47.416 30.533 52.844 54.062 9.2126 39.936 8.8832 82.671-7.1875 134.56-12.031 38.848-31.261 62.627-55.281 79.281-120.12 83.283-415.31 103.19-564.62-19.219-41.3-33.858-44.606-93.187-46.844-150.16-0.9113-23.201 6.4775-50.941 15.625-61.281 33.005-37.309 69.468-65.494 205.41-88.906 41.008-7.0627 80.54-10.336 118.56-10.375zm0 12.625c-36.183 0.03664-73.757 3.1538-112.78 9.875-129.36 22.28-161.09 49.089-192.5 84.594-8.7051 9.8406-15.742 33.234-14.875 55.312 2.1295 54.214 5.2911 107.69 44.594 139.91 142.1 116.49 417 97.537 531.31 18.281 22.859-15.849 41.144-38.468 52.594-75.438 15.294-49.382 15.611-87.058 6.8438-125.06-5.1654-22.392-26.086-37.448-50.281-48.438-78.634-35.715-164.87-59.133-264.91-59.031z" fill="url(#ah)" fill-rule="evenodd"/><path id="ds" transform="matrix(-1 0 0 1 -2912.6 -.11494)" d="m-2267.1 169.81c-105.12-0.10643-198.87 24.501-281.5 62.031-25.425 11.548-47.416 30.533-52.844 54.062-9.2126 39.936-8.8832 82.671 7.1875 134.56 12.031 38.848 31.261 62.627 55.281 79.281 120.12 83.283 415.31 103.19 564.62-19.219 41.3-33.858 44.606-93.187 46.844-150.16 0.9113-23.201-6.4775-50.941-15.625-61.281-33.005-37.309-69.468-65.494-205.41-88.906-41.008-7.0627-80.54-10.336-118.56-10.375z" clip-path="url(#a)" fill="none" filter="url(#z)" stroke="url(#m)" stroke-linejoin="miter" stroke-miterlimit="4" stroke-width="3"/><path id="dt" transform="matrix(-1 0 0 1 -2912.6 .16118)" d="m-2267.1 169.81c-105.12-0.10643-198.87 24.501-281.5 62.031-25.425 11.548-47.416 30.533-52.844 54.062-9.2126 39.936-8.8832 82.671 7.1875 134.56 12.031 38.848 31.261 62.627 55.281 79.281 120.12 83.283 415.31 103.19 564.62-19.219 41.3-33.858 44.606-93.187 46.844-150.16 0.9113-23.201-6.4775-50.941-15.625-61.281-33.005-37.309-69.468-65.494-205.41-88.906-41.008-7.0627-80.54-10.336-118.56-10.375z" clip-path="url(#a)" fill="none" filter="url(#y)" stroke="url(#l)" stroke-linejoin="miter" stroke-miterlimit="4" stroke-width="3"/><path id="du" transform="matrix(-1 0 0 1 -2912.7 1.3241e-6)" d="m-2267.1 169.81c-105.12-0.10643-198.87 24.501-281.5 62.031-25.425 11.548-47.416 30.533-52.844 54.062-9.2126 39.936-8.8832 82.671 7.1875 134.56 12.031 38.848 31.261 62.627 55.281 79.281 120.12 83.283 415.31 103.19 564.62-19.219 41.3-33.858 44.606-93.187 46.844-150.16 0.9113-23.201-6.4775-50.941-15.625-61.281-33.005-37.309-69.468-65.494-205.41-88.906-41.008-7.0627-80.54-10.336-118.56-10.375zm0 12.625c36.183 0.03664 73.757 3.1538 112.78 9.875 129.36 22.28 161.09 49.089 192.5 84.594 8.7051 9.8406 15.742 33.234 14.875 55.312-2.1295 54.214-5.2911 107.69-44.594 139.91-142.1 116.49-417 97.537-531.31 18.281-22.859-15.849-41.144-38.468-52.594-75.438-15.294-49.382-15.611-87.058-6.8438-125.06 5.1654-22.392 26.086-37.448 50.281-48.438 78.634-35.715 164.87-59.133 264.91-59.031z" clip-path="url(#a)" fill="none" filter="url(#aa)" stroke="url(#d)" stroke-linejoin="miter" stroke-miterlimit="4" stroke-width="3"/><path id="dv" transform="matrix(-1 0 0 1 -2188.8 0)" d="m-1457.7 178.26c88.612 15.54 180.97 23.307 241.25 97.689-84.687-74.973-162.41-81.877-241.25-97.689z" fill="#fff" fill-rule="evenodd" filter="url(#w)"/><path id="dw" transform="matrix(-1 0 0 1 -2188.8 0)" d="m-1459.5 552.86c94.619-11.936 212.2-49.135 222.63-118.71-29.426 65.362-117.96 98.094-222.63 118.71z" fill="#fff" fill-rule="evenodd" filter="url(#x)"/><path id="dx" transform="matrix(-1 0 0 1 -2912.7 1.3241e-6)" d="m-2267.1 169.81c-105.12-0.10643-198.87 24.501-281.5 62.031-25.425 11.548-47.416 30.533-52.844 54.062-9.2126 39.936-8.8832 82.671 7.1875 134.56 12.031 38.848 31.261 62.627 55.281 79.281 120.12 83.283 415.31 103.19 564.62-19.219 41.3-33.858 44.606-93.187 46.844-150.16 0.9113-23.201-6.4775-50.941-15.625-61.281-33.005-37.309-69.468-65.494-205.41-88.906-41.008-7.0627-80.54-10.336-118.56-10.375zm0 12.625c36.183 0.03664 73.757 3.1538 112.78 9.875 129.36 22.28 161.09 49.089 192.5 84.594 8.7051 9.8406 15.742 33.234 14.875 55.312-2.1295 54.214-5.2911 107.69-44.594 139.91-142.1 116.49-417 97.537-531.31 18.281-22.859-15.849-41.144-38.468-52.594-75.438-15.294-49.382-15.611-87.058-6.8438-125.06 5.1654-22.392 26.086-37.448 50.281-48.438 78.634-35.715 164.87-59.133 264.91-59.031z" clip-path="url(#a)" fill="none" stroke="url(#d)" stroke-linejoin="miter" stroke-miterlimit="4" stroke-width="3"/><path id="dy" d="m-236.96 305.65c-10.668-4.3338-53.717-14.576-79.692-15.254 6.2348 15.292 4.0893 27.791 0.8495 39.925l67.108 2.5484c3.9642 2.25 7.9283 3.3313 11.892 9.3441 8.3229-8.3575 8.6597-32.981-0.1578-36.563z" fill="url(#ag)" fill-rule="evenodd"/><path id="dz" transform="matrix(-1 0 0 1 -2555.8 0)" d="m-2318.9 305.65c10.668-4.3338 53.717-14.576 79.692-15.254-6.2348 15.292-4.0893 27.791-0.8495 39.925l-67.108 2.5484c-3.9642 2.25-7.9283 3.3313-11.892 9.3441-8.3229-8.3575-8.6597-32.981 0.1578-36.563z" clip-path="url(#f)" fill="none" filter="url(#u)" stroke="url(#g)" stroke-linejoin="miter" stroke-miterlimit="4" stroke-width="7.2"/><path id="ea" transform="matrix(-1 0 0 1 -2555.8 0)" d="m-2318.9 305.65c10.668-4.3338 53.717-14.576 79.692-15.254-6.2348 15.292-4.0893 27.791-0.8495 39.925l-67.108 2.5484c-3.9642 2.25-7.9283 3.3313-11.892 9.3441-8.3229-8.3575-8.6597-32.981 0.1578-36.563z" clip-path="url(#f)" fill="none" filter="url(#t)" stroke="url(#k)" stroke-linejoin="miter" stroke-miterlimit="4" stroke-width="4"/><path id="eb" d="m-1216.7 297.33c64.146-48.46 225.2-36.792 246.27-1.2013l4.8053-19.221c-82.469-38.146-167.62-35.021-254.48 1.7718l3.3978 18.651z" fill="url(#af)" fill-rule="evenodd" stroke="#000" stroke-linejoin="miter" stroke-width="1px"/><path id="ec" d="m-1216.7 297.33c64.146-48.46 225.2-36.792 246.27-1.2013l-7.0872 4.9886c-0.6359-0.93106-3.9242-3.299-9.108-6.9969-36.478-26.021-169.69-24.085-211.36 3.1674-5.3043 3.4691-10.561 10.372-11.496 11.972l-7.2205-11.93z" fill="url(#ae)" fill-rule="evenodd" stroke="#000" stroke-linejoin="miter" stroke-width="1px"/><path id="ed" d="m-316.68 273.28c-145.63-97.107-299.47-112-457.86-81.504-89.744 26.119-203.74 27.986-196.57 151.02 1.0305 65.943 17.332 127.19 100.68 167.8 152.3 68.905 311.96 60.47 477.04-4.7944 112.15-87.459 72.318-139.36 76.71-232.53z" fill="none" stroke="#000" stroke-linejoin="miter" stroke-width="1px"/><path id="ee" d="m-1529.8 317.63c-105.12-0.07714-198.87 17.758-281.5 44.958-25.425 8.3696-47.416 22.129-52.844 39.183-0.3807 1.196-0.7461 2.398-1.0938 3.6012-1.2817 0.06895-2.5754 0.13397-3.9062 0.22649-5.5171 0.38423-11.42 0.95553-17.375 1.6534-3.9771 0.4661-8.0064 0.98884-11.938 1.5401-3.9206 0.55005-7.7863 1.1528-11.469 1.744-1.846 0.29635-3.6564 0.58483-5.4063 0.88332-3.4885 0.59523-6.7877 1.1956-9.75 1.7666-1.4855 0.28634-2.9017 0.56598-4.2187 0.83802-1.3054 0.26979-2.5407 0.54241-3.6563 0.79272-2.2488 0.50455-4.1041 0.96631-5.4375 1.3589-0.8162 0.24363-1.5591 0.62579-2.2188 1.1098-1.3333 0.97837-2.3573 2.4053-3.0624 4.0995-0.3526 0.84708-0.6142 1.7587-0.8126 2.7179-0.3967 1.9184-0.4896 4.0158-0.2812 6.1152 0.1389 1.3997 0.4103 2.7967 0.8125 4.1448 0.3016 1.0111 0.6775 1.9916 1.125 2.9217 0.1492 0.31003 0.3035 0.60823 0.4687 0.90596 0.9135 1.6461 2.0715 3.0846 3.4688 4.1901 0.0349 0.02758 0.0586 0.06344 0.0938 0.0906 1.6596 1.5963 3.4469 2.9492 5.3437 4.0768 0.069 0.04166 0.1495 0.07215 0.2187 0.11324 0.8749 0.51101 1.7488 1.0022 2.6563 1.4269 10.694 5.0907 23.352 4.383 29.406 4.1221 10.494-0.92604 20.923-1.7099 31.281-2.3782 0.0047 0.06103 0.0265 0.12015 0.0312 0.1812 8e-3 0.09901 0.0231 0.19535 0.0313 0.29443 0.0025 0.0304-0.0025 0.06021 0 0.0906 1.2431 15.221 5.323 31.43 12.875 49.103 12.031 28.156 31.261 45.39 55.281 57.461 3.2399 1.6282 6.6053 3.2188 10.094 4.779-51.591 20.127-101.53 41.736-149.16 64.074-1.0239 0.48025-1.3336 1.3644-1.3437 2.3555-0.4807 0.22509-0.9572 0.45423-1.4375 0.67948-1.9878 0.93227-1.3024 3.4413-0.9375 5.1413 0.3949 1.8406 0.8834 3.6721 1.4687 5.4811 1.1046-0.51769 2.2056-1.0459 3.3126-1.5628 4.3446 12.284 12.988 23.787 24.719 34.087 1.3739 1.2065 3.5776 3.3364 5.4375 2.5594 68.781-28.736 137.07-57.633 210.16-84.821 141.62 28.916 346.12 22.333 462.31-46.702 16.82-9.9936 27.32-23.046 34.031-37.801 0.4998-1.0953 0.9787-2.1933 1.4375-3.3068 0.015-0.03661 0.0163-0.07663 0.0313-0.11325 0.4575-1.1144 0.8938-2.2432 1.3124-3.3747 0.4447-1.206 0.8784-2.4225 1.2813-3.6465 0.3795-1.1489 0.749-2.3017 1.0937-3.4653 0.0111-0.03756 0.0202-0.07568 0.0313-0.11324 0.3416-1.1574 0.6594-2.3398 0.9687-3.5106 0.0119-0.04496 0.0195-0.09092 0.0313-0.13589 0.1541-0.58573 0.2911-1.1777 0.4375-1.7666 38.026-2.8229 76.581-5.2176 115.5-7.3383 38.904 2.1199 77.458 4.5167 115.47 7.3383 5.6086 22.657 16.787 43.033 40.687 57.234 116.17 69.025 320.63 75.627 462.25 46.725 73.092 27.189 141.4 56.06 210.19 84.798 1.8599 0.77705 4.0946-1.3528 5.4687-2.5594 11.731-10.3 20.343-21.802 24.688-34.087 1.1144 0.5203 2.2319 1.0417 3.3438 1.5628 0.5853-1.809 1.0738-3.6404 1.4687-5.4811 0.3649-1.7 1.0503-4.2091-0.9375-5.1413-0.4791-0.22472-0.9579-0.45492-1.4375-0.67948-0.0101-0.99108-0.3198-1.8752-1.3437-2.3555-47.635-22.34-97.592-43.946-149.19-64.074 3.4885-1.5602 6.8851-3.1508 10.125-4.779 24.021-12.071 43.25-29.305 55.281-57.461 7.552-17.673 11.601-33.883 12.844-49.103 0.0026-0.03038-0.0024-0.06023 0-0.0906 0.0082-0.09908 0.0234-0.19542 0.0313-0.29443 0.0048-0.06105 0.0265-0.12017 0.0313-0.1812 10.358 0.66824 20.787 1.4521 31.281 2.3782 5.9012 0.25432 18.078 0.92179 28.594-3.7598 0.3712-0.16223 0.7268-0.32258 1.0937-0.49827 0.0617-0.03002 0.1259-0.06018 0.1875-0.0906 0.3682-0.17912 0.7308-0.37288 1.0938-0.56622 0.06-0.03249 0.1275-0.05771 0.1874-0.0906 0.3583-0.19375 0.7102-0.40328 1.0626-0.61152 0.0617-0.03707 0.1259-0.07573 0.1874-0.11325 1.9084-1.1461 3.7105-2.5203 5.375-4.1448 0.6164-0.49426 1.1969-1.0384 1.7188-1.6534 1.0649-1.2547 1.9286-2.7452 2.5938-4.3486 0.133-0.32069 0.2581-0.64423 0.375-0.97392 1.0514-2.9671 1.4462-6.2586 1.1562-9.2861-0.0322-0.33639-0.0759-0.66767-0.125-0.99655-0.1966-1.3156-0.5299-2.5624-1-3.6918-0.5876-1.4118-1.3833-2.6432-2.4062-3.5786-0.2046-0.18707-0.4028-0.35787-0.625-0.52093-0.0056-0.00403-0.0258 0.00402-0.0313 0-0.4383-0.3216-0.899-0.61935-1.4063-0.83801-0.0081-0.0035-0.023 0.00346-0.0312 0-0.2577-0.11011-0.5057-0.19066-0.7812-0.2718-3.3296-0.98034-9.8342-2.3993-17.969-3.873-0.0095-0.00172-0.0218 0.0017-0.0312 0-4.8808-0.88389-10.351-1.7851-16.094-2.6499-0.0098-0.00149-0.0214 0.00149-0.0312 0-5.7439-0.86475-11.763-1.7024-17.719-2.4008-0.0102-0.0012-0.021 0.00119-0.0312 0-3.9667-0.46486-7.8984-0.86381-11.719-1.2004-0.0105-9.1e-4 -0.0208 9.3e-4 -0.0312 0-3.2985-0.2903-6.4754-0.51509-9.5313-0.67947-0.3476-1.2032-0.6818-2.4052-1.0625-3.6012-5.4279-17.054-27.419-30.813-52.844-39.183-82.63-27.2-176.38-45.036-281.5-44.958-38.022 0.0279-77.555 2.4006-118.56 7.5195-135.94 16.969-172.4 37.396-205.41 64.437-1.1557 0.94689-2.2886 2.1026-3.375 3.42-78.436-24.596-159.27-22.366-241.66 1.9478-0.2217-0.31121-0.4616-0.60895-0.6874-0.90596-0.016-0.02088-0.0153-0.04713-0.0313-0.06794-1.3185-1.7261-2.6957-3.2229-4.125-4.3939-33.005-27.041-69.468-47.468-205.41-64.437-41.008-5.1189-80.54-7.4916-118.56-7.5195zm461 76.826c40.217 0.13298 78.588 4.5226 95.687 13.363 1.944 1.005 3.5042 1.8295 4.875 2.5593-0.3837 1.1903-0.7364 2.398-1.0624 3.6239-0.0487 0.18193-0.109 0.36099-0.1563 0.54358-8e-3 0.03067-0.0233 0.05989-0.0313 0.0906-1.373 5.3271-2.1872 10.898-2.2187 16.262-7e-4 0.11408 0 0.22588 0 0.33973-36.474 2.061-72.89 4.2324-109.19 6.4324-36.305-2.2004-72.737-4.3709-109.22-6.4324 6e-4 -2.2185-0.1549-4.4622-0.4062-6.7268-0.0042-0.0373 0.0043-0.07595 0-0.11324-0.0034-0.02985 0.0034-0.06076 0-0.0906-0.0238-0.21116-0.0679-0.42295-0.0938-0.63418-0.2446-1.9769-0.5552-3.9552-0.9687-5.9114-0.0496-0.23601-0.1044-0.46679-0.1563-0.70212-0.0185-0.08366-0.0436-0.16557-0.0624-0.24914-0.1192-0.53171-0.2444-1.0579-0.375-1.5854 2.1433-1.7806 4.8922-3.7937 7.6874-5.1187 22.137-10.493 70.108-15.801 115.69-15.651z" fill="url(#ar)" fill-rule="evenodd" filter="url(#au)"/><path id="ef" d="m-1529.8 317.63c-105.12-0.07714-198.87 17.758-281.5 44.958-25.425 8.3696-47.416 22.129-52.844 39.183-0.3807 1.196-0.7461 2.398-1.0938 3.6012-1.2817 0.06895-2.5754 0.13397-3.9062 0.22649-5.5171 0.38423-11.42 0.95553-17.375 1.6534-3.9771 0.4661-8.0064 0.98884-11.938 1.5401-3.9206 0.55005-7.7863 1.1528-11.469 1.744-1.846 0.29635-3.6564 0.58483-5.4063 0.88332-3.4885 0.59523-6.7877 1.1956-9.75 1.7666-1.4855 0.28634-2.9017 0.56598-4.2187 0.83802-1.3054 0.26979-2.5407 0.54241-3.6563 0.79272-2.2488 0.50455-4.1041 0.96631-5.4375 1.3589-0.8162 0.24363-1.5591 0.62579-2.2188 1.1098-1.3333 0.97837-2.3573 2.4053-3.0624 4.0995-0.3526 0.84708-0.6142 1.7587-0.8126 2.7179-0.3967 1.9184-0.4896 4.0158-0.2812 6.1152 0.1389 1.3997 0.4103 2.7967 0.8125 4.1448 0.3016 1.0111 0.6775 1.9916 1.125 2.9217 0.1492 0.31003 0.3035 0.60823 0.4687 0.90596 0.9135 1.6461 2.0715 3.0846 3.4688 4.1901 0.0349 0.02758 0.0586 0.06344 0.0938 0.0906 1.6596 1.5963 3.4469 2.9492 5.3437 4.0768 0.069 0.04166 0.1495 0.07215 0.2187 0.11324 0.8749 0.51101 1.7488 1.0022 2.6563 1.4269 10.694 5.0907 23.352 4.383 29.406 4.1221 10.494-0.92604 20.923-1.7099 31.281-2.3782 0.0047 0.06103 0.0265 0.12015 0.0312 0.1812 8e-3 0.09901 0.0231 0.19535 0.0313 0.29443 0.0025 0.0304-0.0025 0.06021 0 0.0906 1.2431 15.221 5.323 31.43 12.875 49.103 12.031 28.156 31.261 45.39 55.281 57.461 3.2399 1.6282 6.6053 3.2188 10.094 4.779-51.591 20.127-101.53 41.736-149.16 64.074-1.0239 0.48025-1.3336 1.3644-1.3437 2.3555-0.4807 0.22509-0.9572 0.45423-1.4375 0.67948-1.9878 0.93227-1.3024 3.4413-0.9375 5.1413 0.3949 1.8406 0.8834 3.6721 1.4687 5.4811 1.1046-0.51769 2.2056-1.0459 3.3126-1.5628 4.3446 12.284 12.988 23.787 24.719 34.087 1.3739 1.2065 3.5776 3.3364 5.4375 2.5594 68.781-28.736 137.07-57.633 210.16-84.821 141.62 28.916 346.12 22.333 462.31-46.702 16.82-9.9936 27.32-23.046 34.031-37.801 0.4998-1.0953 0.9787-2.1933 1.4375-3.3068 0.015-0.03661 0.0163-0.07663 0.0313-0.11325 0.4575-1.1144 0.8938-2.2432 1.3124-3.3747 0.4447-1.206 0.8784-2.4225 1.2813-3.6465 0.3795-1.1489 0.749-2.3017 1.0937-3.4653 0.0111-0.03756 0.0202-0.07568 0.0313-0.11324 0.3416-1.1574 0.6594-2.3398 0.9687-3.5106 0.0119-0.04496 0.0195-0.09092 0.0313-0.13589 0.1541-0.58573 0.2911-1.1777 0.4375-1.7666 38.026-2.8229 76.581-5.2176 115.5-7.3383 38.904 2.1199 77.458 4.5167 115.47 7.3383 5.6086 22.657 16.787 43.033 40.687 57.234 116.17 69.025 320.63 75.627 462.25 46.725 73.092 27.189 141.4 56.06 210.19 84.798 1.8599 0.77705 4.0946-1.3528 5.4687-2.5594 11.731-10.3 20.343-21.802 24.688-34.087 1.1144 0.5203 2.2319 1.0417 3.3438 1.5628 0.5853-1.809 1.0738-3.6404 1.4687-5.4811 0.3649-1.7 1.0503-4.2091-0.9375-5.1413-0.4791-0.22472-0.9579-0.45492-1.4375-0.67948-0.0101-0.99108-0.3198-1.8752-1.3437-2.3555-47.635-22.34-97.592-43.946-149.19-64.074 3.4885-1.5602 6.8851-3.1508 10.125-4.779 24.021-12.071 43.25-29.305 55.281-57.461 7.552-17.673 11.601-33.883 12.844-49.103 0.0026-0.03038-0.0024-0.06023 0-0.0906 0.0082-0.09908 0.0234-0.19542 0.0313-0.29443 0.0048-0.06105 0.0265-0.12017 0.0313-0.1812 10.358 0.66824 20.787 1.4521 31.281 2.3782 5.9012 0.25432 18.078 0.92179 28.594-3.7598 0.3712-0.16223 0.7268-0.32258 1.0937-0.49827 0.0617-0.03002 0.1259-0.06018 0.1875-0.0906 0.3682-0.17912 0.7308-0.37288 1.0938-0.56622 0.06-0.03249 0.1275-0.05771 0.1874-0.0906 0.3583-0.19375 0.7102-0.40328 1.0626-0.61152 0.0617-0.03707 0.1259-0.07573 0.1874-0.11325 1.9084-1.1461 3.7105-2.5203 5.375-4.1448 0.6164-0.49426 1.1969-1.0384 1.7188-1.6534 1.0649-1.2547 1.9286-2.7452 2.5938-4.3486 0.133-0.32069 0.2581-0.64423 0.375-0.97392 1.0514-2.9671 1.4462-6.2586 1.1562-9.2861-0.0322-0.33639-0.0759-0.66767-0.125-0.99655-0.1966-1.3156-0.5299-2.5624-1-3.6918-0.5876-1.4118-1.3833-2.6432-2.4062-3.5786-0.2046-0.18707-0.4028-0.35787-0.625-0.52093-0.0056-0.00403-0.0258 0.00402-0.0313 0-0.4383-0.3216-0.899-0.61935-1.4063-0.83801-0.0081-0.0035-0.023 0.00346-0.0312 0-0.2577-0.11011-0.5057-0.19066-0.7812-0.2718-3.3296-0.98034-9.8342-2.3993-17.969-3.873-0.0095-0.00172-0.0218 0.0017-0.0312 0-4.8808-0.88389-10.351-1.7851-16.094-2.6499-0.0098-0.00149-0.0214 0.00149-0.0312 0-5.7439-0.86475-11.763-1.7024-17.719-2.4008-0.0102-0.0012-0.021 0.00119-0.0312 0-3.9667-0.46486-7.8984-0.86381-11.719-1.2004-0.0105-9.1e-4 -0.0208 9.3e-4 -0.0312 0-3.2985-0.2903-6.4754-0.51509-9.5313-0.67947-0.3476-1.2032-0.6818-2.4052-1.0625-3.6012-5.4279-17.054-27.419-30.813-52.844-39.183-82.63-27.2-176.38-45.036-281.5-44.958-38.022 0.0279-77.555 2.4006-118.56 7.5195-135.94 16.969-172.4 37.396-205.41 64.437-1.1557 0.94689-2.2886 2.1026-3.375 3.42-78.436-24.596-159.27-22.366-241.66 1.9478-0.2217-0.31121-0.4616-0.60895-0.6874-0.90596-0.016-0.02088-0.0153-0.04713-0.0313-0.06794-1.3185-1.7261-2.6957-3.2229-4.125-4.3939-33.005-27.041-69.468-47.468-205.41-64.437-41.008-5.1189-80.54-7.4916-118.56-7.5195zm461 76.826c40.217 0.13298 78.588 4.5226 95.687 13.363 1.944 1.005 3.5042 1.8295 4.875 2.5593-0.3837 1.1903-0.7364 2.398-1.0624 3.6239-0.0487 0.18193-0.109 0.36099-0.1563 0.54358-8e-3 0.03067-0.0233 0.05989-0.0313 0.0906-1.373 5.3271-2.1872 10.898-2.2187 16.262-7e-4 0.11408 0 0.22588 0 0.33973-36.474 2.061-72.89 4.2324-109.19 6.4324-36.305-2.2004-72.737-4.3709-109.22-6.4324 6e-4 -2.2185-0.1549-4.4622-0.4062-6.7268-0.0042-0.0373 0.0043-0.07595 0-0.11324-0.0034-0.02985 0.0034-0.06076 0-0.0906-0.0238-0.21116-0.0679-0.42295-0.0938-0.63418-0.2446-1.9769-0.5552-3.9552-0.9687-5.9114-0.0496-0.23601-0.1044-0.46679-0.1563-0.70212-0.0185-0.08366-0.0436-0.16557-0.0624-0.24914-0.1192-0.53171-0.2444-1.0579-0.375-1.5854 2.1433-1.7806 4.8922-3.7937 7.6874-5.1187 22.137-10.493 70.108-15.801 115.69-15.651z" fill="url(#aq)" fill-rule="evenodd"/><path id="eg" transform="translate(0 -47.462)" d="m-1281.5 394.68a284.77 142.39 0 1 1-569.54 0 284.77 142.39 0 1 1 569.54 0z" fill="url(#ap)" opacity=".82397"/><path id="eh" transform="translate(908.55 -47.462)" d="m-1281.5 394.68a284.77 142.39 0 1 1-569.54 0 284.77 142.39 0 1 1 569.54 0z" fill="url(#ao)" opacity=".82397"/><path id="ei" d="m-1313.5 229.84c25.252 25.804 39.75 55.839 39.75 87.875 1e-4 96.219-130.6 174.28-291.5 174.28-149.97-1e-5 -273.61-67.813-289.72-154.94-0.5127 4.3452-0.7813 8.7334-0.7812 13.156 0 101.83 138.21 184.47 308.5 184.47 170.29 0 308.5-82.636 308.5-184.47 0-45.978-28.168-88.06-74.75-120.38z" fill="url(#an)" opacity=".82397"/></g></svg>
