<?xml version="1.0" encoding="UTF-8"?>
<svg fill="none" viewBox="0 0 208 128" xmlns="http://www.w3.org/2000/svg"><g clip-path="url(#b)" clip-rule="evenodd" fill-rule="evenodd"><path d="m99.941 93.264-26.733-12.358c-2.2772-1.0789-2.2772-2.7462 0-3.727l9.3069-4.3154 17.327 8.0424c2.2774 1.0788 5.9404 1.0788 8.1184 0l17.327-8.0424 9.307 4.3154c2.277 1.0789 2.277 2.7462 0 3.727l-26.733 12.358c-2.079 0.9808-5.742 0.9808-7.9204 0z" fill="#FF6F3D"/><path d="m99.941 78.061-26.733-12.358c-2.2772-1.0788-2.2772-2.7461 0-3.7269l9.1089-4.2174 17.624 8.1405c2.2774 1.0789 5.9404 1.0789 8.1184 0l17.624-8.1405 9.109 4.2174c2.277 1.0788 2.277 2.7462 0 3.7269l-26.733 12.358c-2.277 1.0788-5.94 1.0788-8.1184 0z" fill="url(#a)"/><path d="m99.941 78.061-26.733-12.358c-2.2772-1.0788-2.2772-2.7461 0-3.7269l9.1089-4.2174 17.624 8.1405c2.2774 1.0789 5.9404 1.0789 8.1184 0l17.624-8.1405 9.109 4.2174c2.277 1.0788 2.277 2.7462 0 3.7269l-26.733 12.358c-2.277 1.0788-5.94 1.0788-8.1184 0z" fill="#95C038"/><path d="m99.941 63.252-26.733-12.358c-2.2772-1.0788-2.2772-2.7462 0-3.7269l26.733-12.358c2.2774-1.0788 5.9404-1.0788 8.1184 0l26.733 12.358c2.277 1.0788 2.277 2.7462 0 3.7269l-26.733 12.358c-2.277 0.9807-5.94 0.9807-8.1184 0z" fill="#5DC0E8"/></g><defs><linearGradient id="a" x1="103.98" x2="103.98" y1="85.442" y2="55.77" gradientUnits="userSpaceOnUse"><stop stop-color="#DEEDC9" offset="0"/><stop stop-color="#8BBA25" offset=".6606"/></linearGradient><clipPath id="b"><rect width="208" height="128" fill="#fff"/></clipPath></defs></svg>
