<?xml version="1.0" encoding="UTF-8"?>
<svg viewBox="0 0 100 100" xmlns="http://www.w3.org/2000/svg"><path d="m99.805 50.062c0 14.82-6.455 28.144-16.634 37.36-12.786 6.2267-24.703 1.868-28.675-0.8717 12.538-2.7397 22.096-18.057 22.096-36.488 0-18.431-9.5585-33.748-22.096-36.488 3.9723-2.7397 15.889-7.0984 28.675-0.8718 10.179 9.2155 16.634 22.54 16.634 37.36z" fill="#FF1B2D"/><path d="m33.517 21.793c-5.462 6.4757-9.0619 16.189-9.3102 27.024v2.3662c0.2483 10.834 3.8482 20.548 9.3102 27.024 7.1998 9.34 17.751 15.193 29.668 15.193 7.324 0 14.152-2.2415 19.986-6.1021-8.8136 7.9701-20.482 12.702-33.268 12.702h-2.3585c-26.441-1.1208-47.544-23.039-47.544-49.938 0-27.646 22.344-50.062 49.902-50.062h0.2483c12.662 0 24.206 4.8568 33.02 12.702-5.8343-3.8605-12.662-6.102-19.986-6.102-11.917 0-22.593 5.9776-29.668 15.193z" fill="#FF1B2D"/></svg>
