<?xml version="1.0" encoding="UTF-8"?>
<svg id="f" enable-background="new" version="1.0" viewBox="0 0 16 16" xmlns="http://www.w3.org/2000/svg" xmlns:osb="http://www.openswatchbook.org/uri/2009/osb" xmlns:xlink="http://www.w3.org/1999/xlink"><title id="g">Adwaita Icon Template</title><defs id="h"><linearGradient id="a" x1="120" x2="568" y1="619.96" y2="619.96" gradientTransform="matrix(.25 0 0 .25 -19.047 -296.45)" gradientUnits="userSpaceOnUse"><stop id="i" stop-color="#d5d3cf" offset="0"/><stop id="j" stop-color="#e4e1de" offset=".035714"/><stop id="k" stop-color="#d5d3cf" offset=".071429"/><stop id="l" stop-color="#d5d3cf" offset=".92857"/><stop id="m" stop-color="#e4e1de" offset=".96429"/><stop id="n" stop-color="#d5d3cf" offset="1"/></linearGradient><filter id="d" x="-.011571" y="-.012462" width="1.0231" height="1.0249" color-interpolation-filters="sRGB"><feGaussianBlur id="o" stdDeviation="0.54"/></filter><clipPath id="e"><g id="p" transform="matrix(.60714 0 0 .60714 884.37 -242.8)" enable-background="new"><g id="q" display="none"><text id="r" x="7.906189" y="145.34863" display="inline" enable-background="new" fill="#000000" font-family="Cantarell" font-size="11.774px" stroke-width=".64332" style="line-height:125%" xml:space="preserve"><tspan id="s" x="7.906189" y="145.34863" stroke-width=".64332">apps</tspan></text><text id="t" x="7.5258484" y="161.94572" display="inline" enable-background="new" fill="#000000" font-family="Cantarell" font-size="11.774px" font-weight="bold" stroke-width=".64332" style="line-height:125%" xml:space="preserve"><tspan id="u" x="7.5258484" y="161.94572" stroke-width=".64332">org.gnome.Settings</tspan></text><rect id="v" y="172" width="128" height="128" display="inline" enable-background="accumulate" fill="#f0f0f0" fill-rule="nonzero"/><g id="w" transform="matrix(.25 0 0 .25 -9.3066e-6 225)" display="inline" enable-background="new"><rect id="x" x="96" y="-180" width="320" height="448" rx="32" ry="32" fill="#2864b0" opacity=".1" style="paint-order:normal"/><rect id="y" x="48" y="-164" width="416" height="416" rx="32" ry="32" display="inline" enable-background="new" fill="#2864b0" opacity=".1" style="paint-order:normal"/><rect id="z" x="32" y="-116" width="448" height="320" rx="32" ry="32" display="inline" enable-background="new" fill="#2864b0" opacity=".1" style="paint-order:normal"/><circle id="aa" cx="256" cy="44" r="240" fill="#2864b0" opacity=".1" style="paint-order:normal"/></g></g><g id="ab"><path id="ac" d="m-865.09 228.62-6.216 18.656c-0.72 0.272-1.44 0.56-2.144 0.88l-17.576-8.784-11.312 11.312 8.8 17.592a40 40 0 0 0-0.928 2.128l-18.624 6.216v16l18.656 6.216c0.272 0.72 0.56 1.44 0.88 2.144l-8.784 17.576 11.312 11.312 17.592-8.8c0.696 0.336 1.408 0.64 2.128 0.928l6.216 18.624h16l6.216-18.656c0.72-0.272 1.44-0.56 2.144-0.88l17.576 8.784 11.312-11.312-8.8-17.592c0.336-0.696 0.64-1.408 0.928-2.128l18.624-6.216v-16l-18.656-6.216a39.92 39.92 0 0 0-0.88-2.144l8.784-17.576-11.312-11.312-17.592 8.8a39.936 39.936 0 0 0-2.128-0.928l-6.216-18.624zm8 32a24 24 0 1 1 0 48 24 24 0 0 1 0-48z" fill="#070c0f" stroke-width="2"/></g></g></clipPath><filter id="c" x="-.011571" y="-.012462" width="1.0231" height="1.0249" color-interpolation-filters="sRGB"><feGaussianBlur id="ad" stdDeviation="0.54"/></filter><filter id="b" x="-.011571" y="-.012462" width="1.0231" height="1.0249" color-interpolation-filters="sRGB"><feGaussianBlur id="ae" stdDeviation="0.54"/></filter></defs><rect id="af" x="48.992" y="-28" width="43.008" height="40.014" rx="3.072" ry="3.1694" enable-background="new" fill="#d2d8dc" stroke="#a7b0b7" stroke-linejoin="miter" stroke-miterlimit="4" stroke-width=".98571" style="paint-order:normal"/><rect id="ag" x=".49994" y=".49994" width="15" height="15" rx=".657" ry=".67408" enable-background="new" fill="#344958" stroke="#263742" stroke-linejoin="miter" stroke-miterlimit="4" stroke-width=".99987" style="paint-order:normal"/><rect id="ah" x="10.953" y="-233.46" width="112" height="102" rx="8" ry="8.0792" enable-background="new" fill="#f6f5f4" style="paint-order:normal"/><rect id="ai" x="18.953" y="-225.46" width="96" height="84" rx="4.2048" ry="3.7748" enable-background="new" fill="#263742" style="paint-order:normal"/><path id="aj" d="m10.953-141.46v4c0 4.432 3.568 8 8 8h96c4.432 0 8-3.568 8-8v-4c0 4.432-3.568 8-8 8h-96c-4.432 0-8-3.568-8-8z" enable-background="new" fill="url(#a)" style="paint-order:normal"/><g id="ak" transform="matrix(.94118 0 0 1 -1.2825 -420.46)" enable-background="new" fill="#f1f3f5"><path id="al" d="m42.75 211-12.75-7.7282v4.7282l8.5 5-8.5 5v4.7282l12.75-7.7282z" style="font-feature-settings:normal;font-variant-caps:normal;font-variant-ligatures:normal;font-variant-numeric:normal"/><path id="am" d="m47 227 2e-6 4h17l-2e-6 -4z" style="font-feature-settings:normal;font-variant-caps:normal;font-variant-ligatures:normal;font-variant-numeric:normal"/></g><rect id="an" x="-147.95" y="-245.75" width="112" height="104" rx="8" ry="8.2376" enable-background="new" fill="#070c0f" filter="url(#d)" opacity=".4" style="paint-order:normal"/><rect id="ao" x="-147.95" y="-245.75" width="112" height="100" rx="8" ry="7.9208" enable-background="new" fill="#c1ebf7" style="paint-order:normal"/><rect id="ap" x="-139.95" y="-237.75" width="96" height="84" rx="4.2048" ry="3.7748" enable-background="new" fill="#344958" style="paint-order:normal"/><path id="aq" d="m-147.95-153.75v4c0 4.432 3.568 8 8 8h96c4.432 0 8-3.568 8-8v-4c0 4.432-3.568 8-8 8h-96c-4.432 0-8-3.568-8-8z" enable-background="new" fill="#6acfec" style="paint-order:normal"/><g id="ar" transform="matrix(.94118 0 0 1 -160.18 -432.75)" enable-background="new" fill="#fff"><path id="as" d="m42.75 211-12.75-7.7282v4.7282l8.5 5-8.5 5v4.7282l12.75-7.7282z" style="font-feature-settings:normal;font-variant-caps:normal;font-variant-ligatures:normal;font-variant-numeric:normal"/><path id="at" d="m47 227 2e-6 4h17l-2e-6 -4z" style="font-feature-settings:normal;font-variant-caps:normal;font-variant-ligatures:normal;font-variant-numeric:normal"/></g><rect id="au" x="143.58" y="-99.559" width="112" height="104" rx="8" ry="8.2376" enable-background="new" fill="#070c0f" filter="url(#c)" opacity=".4" style="paint-order:normal"/><rect id="av" x="143.58" y="-99.559" width="112" height="100" rx="8" ry="7.9208" enable-background="new" fill="#d2d8dc" style="paint-order:normal"/><rect id="aw" x="151.58" y="-91.559" width="96" height="84" rx="4.2048" ry="3.7748" enable-background="new" fill="#263742" style="paint-order:normal"/><path id="ax" d="m143.58-7.5593v4c0 4.432 3.568 8 8 8h96c4.432 0 8-3.568 8-8v-4c0 4.432-3.568 8-8 8h-96c-4.432 0-8-3.568-8-8z" enable-background="new" fill="#a7b0b7" style="paint-order:normal"/><g id="ay" transform="matrix(.94118 0 0 1 131.34 -286.56)" enable-background="new" fill="#fff"><path id="az" d="m42.75 211-12.75-7.7282v4.7282l8.5 5-8.5 5v4.7282l12.75-7.7282z" style="font-feature-settings:normal;font-variant-caps:normal;font-variant-ligatures:normal;font-variant-numeric:normal"/><path id="ba" d="m47 227 2e-6 4h17l-2e-6 -4z" style="font-feature-settings:normal;font-variant-caps:normal;font-variant-ligatures:normal;font-variant-numeric:normal"/></g><rect id="bb" transform="rotate(90 250.78 -121.21)" x="268.43" y="-111.04" width="96" height="84" rx="4.2048" ry="3.7748" clip-path="url(#e)" enable-background="new" fill="#00aade" fill-opacity=".99216" style="paint-order:normal"/><rect id="bc" x="274.93" y="-100.41" width="112" height="104" rx="8" ry="8.2376" enable-background="new" fill="#070c0f" filter="url(#b)" opacity=".4" style="paint-order:normal"/><rect id="bd" x="274.93" y="-100.41" width="112" height="100" rx="8" ry="7.9208" enable-background="new" fill="#d2d8dc" style="paint-order:normal"/><rect id="be" x="282.93" y="-92.407" width="96" height="84" rx="4.2048" ry="3.7748" enable-background="new" fill="#070c0f" style="paint-order:normal"/><path id="bf" d="m274.93-8.4068v4c0 4.432 3.568 8 8 8h96c4.432 0 8-3.568 8-8v-4c0 4.432-3.568 8-8 8h-96c-4.432 0-8-3.568-8-8z" enable-background="new" fill="#a7b0b7" style="paint-order:normal"/><g id="bg" transform="matrix(.94118 0 0 1 262.7 -287.41)" enable-background="new" fill="#fff"><path id="bh" d="m42.75 211-12.75-7.7282v4.7282l8.5 5-8.5 5v4.7282l12.75-7.7282z" style="font-feature-settings:normal;font-variant-caps:normal;font-variant-ligatures:normal;font-variant-numeric:normal"/><path id="bi" d="m47 227 2e-6 4h17l-2e-6 -4z" style="font-feature-settings:normal;font-variant-caps:normal;font-variant-ligatures:normal;font-variant-numeric:normal"/></g><path id="bj" d="m49.496 8.5102v1c0 1 0.99864 2.0001 2 2l38-0.0025c1.0065-6.6e-5 2.0064-1.0227 2.0032-1.9957l-0.0032-1.0018c0 0.97568-0.99353 2.0004-2 2l-38-0.0161c-1.0014-4.24e-4 -1.9562-0.71404-2-1.9839z" enable-background="new" fill="#758087" style="paint-order:normal"/><path id="bk" d="m11 6v8h1v-8h2l-2.4965-3.7009-2.5035 3.7009z" fill="#aef766" fill-rule="evenodd"/><path id="bl" d="m4 10.299v-8h1v8h2l-2.4965 3.7009-2.5035-3.7009z" fill="#e6461d" fill-rule="evenodd"/><rect id="bm" x="1" y="1" width="14" height="14" rx=".6132" ry=".62914" enable-background="new" fill="#f1f3f5" opacity=".05" style="paint-order:normal"/></svg>
