<?xml version="1.0" encoding="UTF-8"?>
<svg viewBox="0 0 128 128" xmlns="http://www.w3.org/2000/svg" xmlns:xlink="http://www.w3.org/1999/xlink"><linearGradient id="a" x1="43" x2="85" y1="39" y2="39" gradientUnits="userSpaceOnUse"><stop stop-color="#26a269" offset="0"/><stop stop-color="#84e3b7" offset=".093416"/><stop stop-color="#26a269" offset=".33083"/><stop stop-color="#26a269" offset=".68695"/><stop stop-color="#175e3c" offset=".89736"/><stop stop-color="#26a269" offset="1"/></linearGradient><linearGradient id="b" gradientUnits="userSpaceOnUse"><stop stop-color="#c0bfbc" offset="0"/><stop stop-color="#fff" offset=".15475"/><stop stop-color="#bdbbb5" offset=".43372"/><stop stop-color="#c1c0ba" offset=".6505"/><stop stop-color="#fff" offset=".82525"/><stop stop-color="#c0bfbc" offset="1"/></linearGradient><linearGradient id="c" x1="-1710.2" x2="-1774.5" y1="-1202.4" y2="-1202.4" gradientTransform="matrix(.08119 -.046875 .069079 .11965 307.03 127.07)" xlink:href="#b"/><linearGradient id="d" x1="-1710.2" x2="-1774.5" y1="-1202.4" y2="-1202.4" gradientTransform="matrix(-.08119 -.046875 -.069079 .11965 -177.24 127.07)" xlink:href="#b"/><linearGradient id="e" x1="14" x2="56" y1="95" y2="95" gradientUnits="userSpaceOnUse"><stop stop-color="#813d9c" offset="0"/><stop stop-color="#b378ca" offset=".10912"/><stop stop-color="#813d9c" offset=".24158"/><stop stop-color="#813d9c" offset=".73184"/><stop stop-color="#4d255d" offset=".87216"/><stop stop-color="#813d9c" offset="1"/></linearGradient><linearGradient id="f" x1="72" x2="114" y1="95" y2="95" gradientUnits="userSpaceOnUse"><stop stop-color="#e66100" offset="0"/><stop stop-color="#ff903e" offset=".067848"/><stop stop-color="#e66100" offset=".16885"/><stop stop-color="#e66100" offset=".88663"/><stop stop-color="#9d4200" offset="1"/></linearGradient><path d="m51 18h26c4.418 0 8 3.582 8 8v26c0 4.418-3.582 8-8 8h-26c-4.418 0-8-3.582-8-8v-26c0-4.418 3.582-8 8-8z" fill="url(#a)"/><path d="m51 12h26c4.418 0 8 3.582 8 8v26c0 4.418-3.582 8-8 8h-26c-4.418 0-8-3.582-8-8v-26c0-4.418 3.582-8 8-8z" fill="#57e389"/><path d="m76.977 55.453c1.4805-0.85547 3.3711-0.34766 4.2266 1.1328l6.7422 11.68c0.85547 1.4805 0.34766 3.3711-1.1328 4.2266-1.4805 0.85156-3.3711 0.34766-4.2266-1.1328l-6.7422-11.68c-0.85547-1.4805-0.34766-3.3711 1.1328-4.2266z" fill="url(#c)"/><path d="m52.812 55.453c-1.4805-0.85547-3.3711-0.34766-4.2266 1.1328l-6.7422 11.68c-0.85547 1.4805-0.34766 3.3711 1.1328 4.2266 1.4805 0.85156 3.3711 0.34766 4.2266-1.1328l6.7422-11.68c0.85547-1.4805 0.34766-3.3711-1.1328-4.2266z" fill="url(#d)"/><path d="m22 74h26c4.418 0 8 3.582 8 8v26c0 4.418-3.582 8-8 8h-26c-4.418 0-8-3.582-8-8v-26c0-4.418 3.582-8 8-8z" fill="url(#e)"/><path d="m22 68h26c4.418 0 8 3.582 8 8v26c0 4.418-3.582 8-8 8h-26c-4.418 0-8-3.582-8-8v-26c0-4.418 3.582-8 8-8z" fill="#dc8add"/><path d="m80 74h26c4.418 0 8 3.582 8 8v26c0 4.418-3.582 8-8 8h-26c-4.418 0-8-3.582-8-8v-26c0-4.418 3.582-8 8-8z" fill="url(#f)"/><path d="m80 68h26c4.418 0 8 3.582 8 8v26c0 4.418-3.582 8-8 8h-26c-4.418 0-8-3.582-8-8v-26c0-4.418 3.582-8 8-8z" fill="#ffa348"/></svg>
