<?xml version="1.0" encoding="UTF-8"?>
<svg viewBox="0 0 128 128" xmlns="http://www.w3.org/2000/svg"><defs><linearGradient id="a" x1="116.2" x2="600.2" y1="238" y2="-316.08" gradientTransform="translate(0 -172)" gradientUnits="userSpaceOnUse"><stop stop-color="#b2d1e9" offset="0"/><stop stop-color="#c0c6cd" offset=".136"/><stop stop-color="#d2dee8" offset=".453"/><stop stop-color="#bfc5ce" offset=".72"/><stop stop-color="#dbe2e8" offset=".937"/><stop stop-color="#e4e6e8" offset="1"/></linearGradient><linearGradient id="c" x1="99.846" x2="431.14" y1="91.301" y2="91.301" gradientTransform="rotate(90 47.387 40.864) scale(.26563)" gradientUnits="userSpaceOnUse"><stop stop-color="#f6d32d" offset="0"/><stop stop-color="#f9f06b" offset="1"/></linearGradient><radialGradient id="d" cx="273.94" cy="67.198" r="56" gradientTransform="matrix(.25657 -.06875 .06875 .2566 -10.396 58.824)" gradientUnits="userSpaceOnUse"><stop stop-color="#fff" offset="0"/><stop stop-color="#c4c5c3" offset="1"/></radialGradient></defs><path d="M20 12h88a8 8 0 018 8v88a8 8 0 01-8 8H20a8 8 0 01-8-8V20a8 8 0 018-8zm0 0" fill="url(#a)"/><path d="M124 64c0 33.137-26.863 60-60 60S4 97.137 4 64 30.863 4 64 4s60 26.863 60 60zm0 0" fill="url(#a)"/><path d="m116 64c0 28.719-23.281 52-52 52s-52-23.281-52-52c0-28.723 23.281-52.004 52-52.004s52 23.281 52 52.004z"/><path d="m112 64c0 26.508-21.492 48-48 48s-48-21.492-48-48c0-26.512 21.492-48.004 48-48.004s48 21.492 48 48.004z" fill="#2a2a3b"/><path d="m64 108c-24.3 0-44-19.7-44-44s19.7-44 44-44 44 19.7 44 44-19.7 44-44 44z" fill="url(#c)"/><path d="m84 64c0 11.047-8.953 20-20 20s-20-8.953-20-20 8.953-20.004 20-20.004 20 8.957 20 20.004z"/><path d="m79.453 59.86c2.29 8.535-2.777 17.308-11.312 19.597-8.536 2.285-17.309-2.781-19.594-11.316-2.29-8.536 2.777-17.309 11.312-19.598 8.536-2.285 17.309 2.781 19.594 11.316z" fill="url(#d)"/><path d="M24 106c0 1.125-.895 2.035-2 2.035s-2-.91-2-2.035.895-2.035 2-2.035 2 .91 2 2.035zm84 0c0 1.125-.895 2.035-2 2.035s-2-.91-2-2.035.895-2.035 2-2.035 2 .91 2 2.035zm0-84c0 1.125-.895 2.035-2 2.035s-2-.91-2-2.035.895-2.035 2-2.035 2 .91 2 2.035zm-84 0c0 1.125-.895 2.035-2 2.035s-2-.91-2-2.035.895-2.035 2-2.035 2 .91 2 2.035zm0 0"/></svg>
