<?xml version="1.0" encoding="UTF-8"?>
<svg id="a" enable-background="new" version="1.0" viewBox="0 0 128 128" xmlns="http://www.w3.org/2000/svg" xmlns:xlink="http://www.w3.org/1999/xlink"><title id="b">Adwaita Icon Template</title><rect id="c" x="12" y="16" width="104" height="100" rx="8" ry="8" enable-background="new" fill="#a7b0b7" style="paint-order:normal"/><rect id="d" x="12" y="12" width="104" height="100" rx="8" ry="8" enable-background="new" fill="#f1f3f5" style="paint-order:normal"/><path id="e" d="m64 116v-50h52v42c0 4.432-3.568 8-8 8z" enable-background="new" fill="#d2d8dc" style="paint-order:normal"/><rect id="f" x="12" y="12" width="104" height="100" rx="8" ry="8" enable-background="new" fill="#f1f3f5" style="paint-order:normal"/><path id="g" d="m20 12c-4.432 0-8 3.568-8 8v42h52v-50h-44z" enable-background="new" fill="#00aade" style="paint-order:normal"/><path id="h" d="m64 12v50h52v-42c0-4.432-3.568-8-8-8h-44z" enable-background="new" fill="#d2d8dc" style="paint-order:normal"/><path id="i" d="m64 112v-50h-52v42c0 4.432 3.568 8 8 8z" enable-background="new" fill="#d2d8dc" style="paint-order:normal"/><path id="j" d="m86 83v-8h8v8h8v8h-8v8h-8v-8h-8v-8z" enable-background="new" fill="#344958" fill-rule="evenodd"/></svg>
