<?xml version="1.0" encoding="UTF-8"?>
<svg viewBox="0 0 48 48" xmlns="http://www.w3.org/2000/svg" xmlns:xlink="http://www.w3.org/1999/xlink"><defs><linearGradient id="a" x2="0" y1="543.8" y2="503.8" gradientTransform="translate(-817.14)" gradientUnits="userSpaceOnUse"><stop stop-color="#c6cdd1" offset="0"/><stop stop-color="#e0e5e7" offset="1"/></linearGradient><linearGradient id="b" x1="402.57" x2="418.57" y1="520.8" y2="536.8" gradientUnits="userSpaceOnUse"><stop stop-color="#292c2f" offset="0"/><stop stop-opacity="0" offset="1"/></linearGradient><linearGradient id="c" x2="0" y1="13" y2="33" gradientTransform="matrix(1 0 0-1 384.57 547.8)" gradientUnits="userSpaceOnUse"><stop stop-color="#197cf1" offset="0"/><stop stop-color="#20bcfa" offset="1"/></linearGradient><linearGradient id="d" x2="0" y1="14" y2="33" gradientTransform="matrix(1 0 0-1 384.57 543.8)" gradientUnits="userSpaceOnUse" xlink:href="#c"/></defs><g transform="translate(-384.57-499.8)"><rect transform="scale(-1 1)" x="-428.57" y="503.8" width="40" height="40" rx="20" fill="url(#a)" stroke-opacity=".55" stroke-width="2.8"/><path d="m412.57 520.8h5l-9 9 .892 1.07-2.892 1.93-7 2 9 9c7-1 17.782-11.52 20-17l-16-16z" fill="url(#b)" fill-rule="evenodd" opacity=".2"/><g stroke-opacity=".55" stroke-width="2.8"><path d="m388.58 523.3c-.004.167-.012.332-.012.5 0 11.08 8.92 20 20 20 11.08 0 20-8.92 20-20 0-.168-.008-.333-.012-.5-.264 10.847-9.08 19.5-19.988 19.5-10.912 0-19.724-8.653-19.988-19.5" fill="#99a1a7"/><path d="m399.57 525.8 7 7h-7v2h18v-2h-7l7-7h-3l-6 6-6-6z" fill="url(#c)"/><path d="m404.57 510.8v10h-5l9 9 9-9h-5v-10z" fill="url(#d)"/></g></g></svg>
