<?xml version="1.0" encoding="UTF-8"?>
<svg fill="none" viewBox="0 0 48 48" xmlns="http://www.w3.org/2000/svg"><path d="m4 10v31c0 1.6569 1.3432 3 3 3h34c1.6569 0 3-1.3431 3-3v-27c0-1.6569-1.3431-3-3-3h-14.246c-1.1354 0-2.2369-0.3864-3.1235-1.0957l-2.2608-1.8087c-0.8866-0.70926-1.9881-1.0957-3.1235-1.0957h-11.246c-1.6568 0-3 1.3432-3 3z" fill="url(#b)"/><path d="m4 10v31c0 1.6569 1.3432 3 3 3h34c1.6569 0 3-1.3431 3-3v-27c0-1.6569-1.3431-3-3-3h-14.246c-1.1354 0-2.2369-0.3864-3.1235-1.0957l-2.2608-1.8087c-0.8866-0.70926-1.9881-1.0957-3.1235-1.0957h-11.246c-1.6568 0-3 1.3432-3 3z" fill="#000" fill-opacity=".3"/><path d="m41 44c1.6569 0 3-1.3431 3-3v-27c0-1.6569-1.3431-3-3-3h-14.246c-1.1354 0-2.2369 0.3864-3.1235 1.0957l-2.2608 1.8086c-0.8866 0.7093-1.9881 1.0957-3.1235 1.0957h-11.246c-1.6568 0-3 1.3431-3 3v23c0 1.6569 1.3432 3 3 3h34z" fill="url(#a)"/><path d="m44 40c0 1.6569-1.3431 3-3 3h-34c-1.6568 0-3-1.3431-3-3v1c0 1.6569 1.3432 3 3 3h34c1.6569 0 3-1.3431 3-3v-1z" clip-rule="evenodd" fill="#134653" fill-opacity=".3" fill-rule="evenodd"/><circle cx="9" cy="26" r="2" fill="#fff"/><circle cx="39" cy="26" r="2" fill="#fff"/><path d="m16.5 23c0.048 6.3331 1.4855 8.4073 7.5 8.5" stroke="#fff" stroke-linecap="round" stroke-linejoin="round" stroke-width="3"/><path d="m32 23c-0.048 6.3331-1.4855 8.4073-7.5 8.5" stroke="#fff" stroke-linecap="round" stroke-linejoin="round" stroke-width="3"/><defs><linearGradient id="b" x1="43.5" x2=".37427" y1="7" y2="39.134" gradientUnits="userSpaceOnUse"><stop stop-color="#FFAE74" offset="0"/><stop stop-color="#E54260" offset="1"/></linearGradient><linearGradient id="a" x1="43.5" x2="4" y1="11" y2="44" gradientUnits="userSpaceOnUse"><stop stop-color="#FFAE74" offset="0"/><stop stop-color="#E54260" offset="1"/></linearGradient></defs></svg>
