<?xml version="1.0" encoding="UTF-8"?>
<svg id="b" enable-background="new" version="1.0" viewBox="0 0 16 16" xmlns="http://www.w3.org/2000/svg" xmlns:xlink="http://www.w3.org/1999/xlink"><title id="c">Adwaita Icon Template</title><defs id="d"><linearGradient id="a" x1="384" x2="416" y1="120" y2="120" gradientTransform="matrix(.39343 0 0 .36368 -640.87 819.27)" gradientUnits="userSpaceOnUse"><stop id="e" stop-color="#f6f5f4" offset="0"/><stop id="f" stop-color="#f6f5f4" offset=".5"/><stop id="g" stop-color="#c0bfbc" offset="1"/></linearGradient></defs><g id="h" transform="matrix(.08936 0 0 .09805 56.612 -74.601)" enable-background="new" stroke-miterlimit="4" stroke-width="10.167"><path id="i" d="m-611.14 780.03v144h120.86c7.4396 0 13.429-5.5847 13.429-12.522v-118.96c0-6.9371-5.9893-12.522-13.429-12.522z" enable-background="new" fill="#006888" style="paint-order:normal"/><path id="j" d="m-599.95 812v101.83h110.16c6.9748 0 12.59-5.1905 12.59-11.638v-78.556c0-6.4474-5.6151-11.638-12.59-11.638z" enable-background="new" fill="url(#a)" style="paint-order:normal"/><path id="k" d="m-608 784.52v95.479h115.2c7.0912 0 12.8-5.1616 12.8-11.573v-72.332c0-6.4115-5.7088-11.573-12.8-11.573z" enable-background="new" fill="#006888" style="paint-order:normal"/><path id="l" d="m-605.8 766.19v111.7h111.24c6.8477 0 12.36-5.5354 12.36-12.411v-86.879c0-6.8759-5.5127-12.411-12.36-12.411z" enable-background="new" fill="#00aade" stroke="#006888" stroke-linecap="round" stroke-linejoin="miter" stroke-miterlimit="4" stroke-width="10.684" style="paint-order:normal"/><rect id="m" x="-599.95" y="791.45" width="111.91" height="61.193" enable-background="new" fill="#6acfec"/></g><path id="n" d="m4 12.016 4-0.01647v3l-2-1-2 1z" enable-background="new" fill="#c02700"/></svg>
