<?xml version="1.0" encoding="UTF-8"?>
<svg fill="none" viewBox="0 0 22 22" xmlns="http://www.w3.org/2000/svg"><style id="a" type="text/css">.ColorScheme-Text { color: #232629; }</style><path class="ColorScheme-Text" d="m3.9962 13.366c-0.52015 0.2683-1.1863 0.3842-1.9962 0.3842v-1.5c0.69014 0 1.0865-0.1028 1.3085-0.2173 0.19157-0.0988 0.27416-0.215 0.3237-0.3636 0.06087-0.1826 0.07853-0.4437 0.04628-0.8199-0.02282-0.2663-0.0639-0.5344-0.10963-0.8329-0.01994-0.1302-0.04077-0.26614-0.06135-0.41023-0.12046-0.84322-0.25177-2.017 0.41341-2.9482 0.69073-0.96702 2.0225-1.4078 4.079-1.4078v1.5c-1.9434 0-2.6117 0.4342-2.8584 0.77968-0.27232 0.38125-0.27863 0.95747-0.14909 1.8642 0.01554 0.10875 0.03318 0.22401 0.0514 0.343 0.04887 0.31917 0.10184 0.66517 0.12918 0.98417 0.03807 0.4441 0.0401 0.9487-0.11778 1.4223-0.16921 0.5077-0.5085 0.9384-1.0591 1.2224z" clip-rule="evenodd" fill="currentColor" fill-rule="evenodd"/><path class="ColorScheme-Text" d="m3.9962 12.634c-0.52015-0.2683-1.1863-0.3842-1.9962-0.3842v1.5c0.69014 0 1.0865 0.1028 1.3085 0.2173 0.19157 0.0988 0.27416 0.215 0.3237 0.3636 0.06087 0.1826 0.07853 0.4437 0.04628 0.8199-0.02282 0.2663-0.0639 0.5344-0.10963 0.8329-0.01994 0.1302-0.04077 0.2661-0.06135 0.4102-0.12046 0.8433-0.25177 2.017 0.41341 2.9483 0.69073 0.967 2.0225 1.4078 4.079 1.4078v-1.5c-1.9434 0-2.6117-0.4342-2.8584-0.7797-0.27232-0.3812-0.27863-0.9575-0.14909-1.8642 0.01554-0.1088 0.03318-0.224 0.0514-0.343 0.04887-0.3192 0.10184-0.6652 0.12918-0.9842 0.03807-0.4441 0.0401-0.9487-0.11778-1.4223-0.16921-0.5077-0.5085-0.9384-1.0591-1.2224z" clip-rule="evenodd" fill="currentColor" fill-rule="evenodd"/><path class="ColorScheme-Text" d="m18.004 13.366c0.5201 0.2683 1.1862 0.3842 1.9961 0.3842v-1.5c-0.6901 0-1.0865-0.1028-1.3085-0.2173-0.1916-0.0989-0.2742-0.215-0.3237-0.3636-0.0609-0.1826-0.0786-0.4437-0.0463-0.8199 0.0228-0.2663 0.0639-0.5344 0.1096-0.8329 0.02-0.1302 0.0408-0.26614 0.0614-0.41023 0.1204-0.84322 0.2517-2.017-0.4134-2.9482-0.6908-0.96702-2.0225-1.4078-4.0791-1.4078v1.5c1.9434 0 2.6117 0.4342 2.8584 0.77968 0.2724 0.38125 0.2787 0.95747 0.1491 1.8642-0.0155 0.10875-0.0331 0.22401-0.0514 0.343-0.0488 0.31917-0.1018 0.66517-0.1291 0.98417-0.0381 0.4441-0.0401 0.9487 0.1177 1.4223 0.1692 0.5077 0.5085 0.9384 1.0592 1.2224z" clip-rule="evenodd" fill="currentColor" fill-rule="evenodd"/><path class="ColorScheme-Text" d="m18.004 12.634c0.5201-0.2683 1.1862-0.3842 1.9961-0.3842v1.5c-0.6901 0-1.0865 0.1028-1.3085 0.2173-0.1916 0.0989-0.2742 0.215-0.3237 0.3636-0.0609 0.1826-0.0786 0.4437-0.0463 0.8199 0.0228 0.2663 0.0639 0.5344 0.1096 0.8329 0.02 0.1302 0.0408 0.2661 0.0614 0.4102 0.1204 0.8433 0.2517 2.017-0.4134 2.9483-0.6908 0.967-2.0225 1.4078-4.0791 1.4078v-1.5c1.9434 0 2.6117-0.4342 2.8584-0.7797 0.2724-0.3812 0.2787-0.9575 0.1491-1.8642-0.0155-0.1088-0.0331-0.224-0.0514-0.343-0.0488-0.3192-0.1018-0.6652-0.1291-0.9842-0.0381-0.4441-0.0401-0.9487 0.1177-1.4223 0.1692-0.5077 0.5085-0.9384 1.0592-1.2224z" clip-rule="evenodd" fill="currentColor" fill-rule="evenodd"/><path d="m11.5 12-1.5-2h3l-1.5 2z" fill="#3DAEE9"/><path d="m4.8455 2.1296c-0.8662 0.31455-1.6936 0.84992-2.3472 1.4309l-0.99655-1.1211c0.76826-0.6829 1.756-1.3291 2.8317-1.7197 1.0749-0.39035 2.29-0.54294 3.4628-0.15312 2.3068 0.76672 3.9478 3.41 4.3548 8.6834h2.3489l-3 4-3-4h2.1466c-0.4079-5.0404-1.9419-6.8008-3.3234-7.26-0.75685-0.25156-1.6107-0.17527-2.4777 0.1396z" clip-rule="evenodd" fill="#3DAEE9" fill-rule="evenodd"/></svg>
