<?xml version="1.0" encoding="UTF-8"?>
<svg width="48" height="48" version="1.1" viewBox="0 0 12.7 12.7" xmlns="http://www.w3.org/2000/svg"><defs><linearGradient id="d" x1="24" x2="24" y1="294" y2="257" gradientTransform="matrix(.26458 0 0 .25828 38.084 -64.294)" gradientUnits="userSpaceOnUse"><stop stop-color="#2c3e50" offset="0"/><stop stop-color="#34495e" offset="1"/></linearGradient><radialGradient id="a" cx="178.53" cy="17.338" r="16.221" gradientTransform="matrix(-.00052977 .53114 -.55568 -.00055424 50.511 -89.894)" gradientUnits="userSpaceOnUse"><stop stop-color="#17222d" offset="0"/><stop stop-color="#17222d" stop-opacity="0" offset="1"/></radialGradient><linearGradient id="e" x1="80" x2="120" y1="152" y2="152" gradientTransform="matrix(.16732 0 0 .16732 81.649 -35.87)" gradientUnits="userSpaceOnUse"><stop stop-color="#deeff8" offset="0"/><stop stop-color="#c0e2f4" offset="1"/></linearGradient><linearGradient id="f" x1="60" x2="140" y1="191.94" y2="191.94" gradientTransform="matrix(.16732 0 0 .16732 81.649 -35.87)" gradientUnits="userSpaceOnUse"><stop stop-color="#eef6fa" offset="0"/><stop stop-color="#b0dbf2" offset="1"/></linearGradient><linearGradient id="c" x1="230.61" x2="316.36" y1="396.15" y2="396.15" gradientTransform="matrix(.044271 0 0 .044271 81.649 -19.639)" gradientUnits="userSpaceOnUse"><stop stop-color="#31363b" offset="0"/><stop stop-color="#0d0f10" offset="1"/></linearGradient><linearGradient id="b" x1="170.08" x2="585.83" y1="472.44" y2="472.44" gradientTransform="matrix(.044271 0 0 .044271 81.207 -19.639)" gradientUnits="userSpaceOnUse"><stop stop-color="#f39c1f" offset="0"/><stop stop-color="#fdbc4b" offset="1"/></linearGradient></defs><g transform="translate(-.053743 -.093017)"><g transform="translate(-38.03 .093018)"><rect x="39.142" y="1.0583" width="10.583" height="10.583" ry="1.8521" fill="#17222d" stroke-width=".26458" style="paint-order:markers fill stroke"/><rect x="39.142" y="1.0583" width="10.583" height="10.319" ry="1.808" fill="url(#d)" stroke-width=".26458" style="paint-order:markers fill stroke"/><path d="m45.303 2.7109-1.6769 0.4253 0.46457 1.2506-0.55346 0.027389 0.89659 0.89607 1.0692 1.0697-0.64286 0.032039 0.55811 0.55811-3.3243 0.16433 0.78858 0.78858-1.7405 0.0863 2.0975 2.0975-1.1803 0.03876 1.2309 1.2314h4.6271c1.0016 0 1.8082-0.80653 1.8082-1.8082v-2.4355z" fill="url(#a)" style="paint-order:normal"/><g transform="matrix(.36409 0 0 .36409 8.4548 7.3639)"><g transform="translate(.43793)"><path d="m98.382-13.783a3.3464 3.3464 0 0 0-3.3465 3.3465 3.3464 3.3464 0 0 0 3.3465 3.3464 3.3464 3.3464 0 0 0 3.3464-3.3464 3.3464 3.3464 0 0 0-3.3464-3.3465z" fill="url(#e)" style="paint-order:normal"/><path d="m95.035-7.1009c-1.8539 0-3.3464 1.4446-3.3464 3.2389v2.6174c0 0.46349 0.37314 0.83656 0.83664 0.83656h11.713c0.4635 0 0.83664-0.37307 0.83664-0.83656v-2.6174c0-0.29113-0.0393-0.57305-0.11304-0.84109-0.3808-1.384-1.6803-2.3978-3.2334-2.3978h-0.81105c-0.72876 0.55515-1.6192 0.85638-2.5354 0.85766-0.91517-0.0019-1.8046-0.30308-2.5326-0.85766z" fill="url(#f)" style="paint-order:normal"/><path d="m94.666-4.6398a1.2549 1.2549 0 0 0-0.12866 8e-3 1.2549 1.2549 0 0 0-9e-5 0c-8.7e-4 8.8e-5 -2e-3 2.67e-4 -3e-3 3.51e-4a1.2549 1.2549 0 0 0-0.11544 0.01747 1.2549 1.2549 0 0 0-4e-3 7.87e-4c-0.0184 0.0037-0.0366 0.0078-0.0547 0.01228a1.2549 1.2549 0 0 0-0.0675 0.01911c-0.0172 0.0053-0.0342 0.01092-0.051 0.01695a1.2549 1.2549 0 0 0-0.065 0.02551c-0.0167 0.0071-0.0332 0.01448-0.0495 0.02222a1.2549 1.2549 0 0 0-0.0624 0.03182c-0.0156 0.0085-0.0309 0.01727-0.046 0.02637a1.2549 1.2549 0 0 0-0.0595 0.03813c-0.0161 0.01097-0.0319 0.02222-0.0475 0.0339a1.2549 1.2549 0 0 0-0.0499 0.03951c-0.0171 0.01427-0.0339 0.02887-0.0502 0.04401a1.2549 1.2549 0 0 0-0.0378 0.03657c-0.0168 0.01695-0.033 0.03452-0.0488 0.0524a1.2549 1.2549 0 0 0-0.0366 0.04323c-0.0146 0.01807-0.0285 0.03656-0.0421 0.05542a1.2549 1.2549 0 0 0-0.0301 0.04375c-0.0156 0.02376-0.0307 0.04797-0.0447 0.0728a1.2549 1.2549 0 0 0-0.0165 0.03069c-0.0142 0.02695-0.0275 0.05444-0.0398 0.08249a1.2549 1.2549 0 0 0-0.0113 0.02698c-0.0125 0.0304-0.0238 0.06136-0.0339 0.09287a1.2549 1.2549 0 0 0-6e-3 0.01902c-0.0102 0.03385-0.019 0.06837-0.0264 0.10333a1.2549 1.2549 0 0 0-3e-3 0.01591c-7e-3 0.03646-0.0128 0.07347-0.0168 0.11094a1.2549 1.2549 0 0 0-1e-3 0.0099c-4e-3 0.04025-6e-3 0.08097-6e-3 0.12218 9e-5 0.02523 1e-3 0.05038 3e-3 0.07549a1.2549 1.2549 0 0 0 2e-3 0.03035c3e-3 0.03162 6e-3 0.06315 0.0115 0.09442a1.2549 1.2549 0 0 0 8e-3 0.04003c4e-3 0.02049 9e-3 0.04087 0.0138 0.06113a1.2549 1.2549 0 0 0 0.0206 0.07315c4e-3 0.01165 8e-3 0.02321 0.0116 0.03476a1.2549 1.2549 0 0 0 0.0387 0.0984c1e-3 0.0026 2e-3 0.0053 3e-3 0.0079l-1.5536 1.6866c-0.15701 0.17045-0.14623 0.43407 0.0242 0.59108 0.17045 0.15701 0.43408 0.14615 0.59108-0.0243l0.44254-0.4804v1.525h0.83664v-2.4332l0.23908-0.25948c0.018 9e-3 0.0363 0.01752 0.0546 0.02568a1.2549 1.2549 0 0 0 0.04 0.01686c0.0252 0.01017 0.0508 0.01943 0.0766 0.02793a1.2549 1.2549 0 0 0 0.0343 0.01107c0.0288 0.0086 0.058 0.01582 0.0873 0.02231a1.2549 1.2549 0 0 0 0.0399 0.0081c0.0308 0.0058 0.0618 0.01064 0.093 0.01409a1.2549 1.2549 0 0 0 9e-5 0 1.2549 1.2549 0 0 0 0.13679 8e-3 1.2549 1.2549 0 0 0 1.2549-1.255 1.2549 1.2549 0 0 0-1.2549-1.2549z" fill="url(#c)" style="paint-order:normal"/><path d="m90.015 0.43914c-0.46348 0-0.83664 0.37316-0.83664 0.83665 0 0.46348 0.37316 0.83656 0.83664 0.83656h0.83656c0.46208-1.8e-5 0.83666 0.37457 0.83664 0.83665v4.1831c0 0.46348 0.37316 0.83656 0.83665 0.83656h11.713c0.46348 0 0.83665-0.37308 0.83665-0.83656v-4.1831c-2e-5 -0.46204 0.37452-0.83662 0.83656-0.83665h0.83664c0.46348 0 0.83656-0.37308 0.83656-0.83656 0-0.46348-0.37308-0.83665-0.83656-0.83665h-0.44271z" fill="url(#b)" style="paint-order:normal"/><path d="m90.852 2.1123c0.27818 3.35e-4 0.53802 0.13883 0.69328 0.36964l14.288-0.36532s-1.3836-0.0043-1.5956-0.0043h-11.713z" fill="#1a1a1a" opacity=".2"/></g></g></g></g></svg>
