<?xml version="1.0" encoding="UTF-8"?>
<svg id="k" version="1.1" viewBox="0 0 48 48" xmlns="http://www.w3.org/2000/svg" xmlns:xlink="http://www.w3.org/1999/xlink"><defs id="l"><linearGradient id="h"><stop id="m" stop-color="#999" offset="0"/><stop id="n" stop-color="#5c5c5c" offset="1"/></linearGradient><linearGradient id="b"><stop id="o" stop-color="#e6e6e6" offset="0"/><stop id="p" stop-color="#bdbdbd" offset="1"/></linearGradient><linearGradient id="i" x1="24" x2="24" y1="-6.2802" y2="53.28" gradientUnits="userSpaceOnUse" xlink:href="#b"/><linearGradient id="a" x1="23" x2="24" y1="24.5" y2="26" gradientUnits="userSpaceOnUse" xlink:href="#h"/><linearGradient id="g" x1="23.189" x2="24.811" y1="23.189" y2="24.811" gradientUnits="userSpaceOnUse" xlink:href="#b"/><linearGradient id="f" x1="19.393" x2="17.862" y1="29.692" y2="27.468" gradientUnits="userSpaceOnUse"><stop id="q" stop-color="#fff" offset="0"/><stop id="r" stop-color="#d7e5f4" offset="1"/></linearGradient><linearGradient id="e" x1="30.985" x2="25.047" y1="25.712" y2="17.104" gradientUnits="userSpaceOnUse"><stop id="s" stop-color="#f89f9f" offset="0"/><stop id="t" stop-color="#d13c3c" offset="1"/></linearGradient><linearGradient id="d" x1="17.98" x2="22.094" y1="23.109" y2="28.944" gradientUnits="userSpaceOnUse"><stop id="u" stop-color="#dce9f6" offset="0"/><stop id="v" stop-color="#bcd5ed" offset="1"/></linearGradient><linearGradient id="c" x1="26.507" x2="29.764" y1="16.545" y2="20.01" gradientUnits="userSpaceOnUse"><stop id="w" stop-color="#e26767" offset="0"/><stop id="x" stop-color="#d15656" offset="1"/></linearGradient><linearGradient id="j" x2="0" y1="30" y2="2" gradientTransform="matrix(1.2836 0 0 1.2143 3.4933 4.5714)" gradientUnits="userSpaceOnUse"><stop id="y" stop-color="#d89654" offset="0"/><stop id="z" stop-color="#f9e6ab" offset="1"/></linearGradient></defs><rect id="aa" x="4" y="5" width="40" height="39" rx="20" ry="19.5" fill="#999" stroke-linecap="square" stroke-linejoin="round"/><rect id="ab" x="4" y="4" width="40" height="39" rx="20" ry="19.5" fill="url(#i)" stroke-linecap="square" stroke-linejoin="round"/><rect id="ac" x="6" y="6" width="36" height="35" rx="18" ry="17.5" fill="#999" stroke-linecap="square" stroke-linejoin="round"/><path id="ad" d="m42 24c0 9.3888-8.0454 17-17.97 17-9.9244-1e-6 -17.97-7.6112-17.97-17s8.0454-17 17.97-17c9.9244 0 17.97 7.6112 17.97 17z" fill="#376eb4" stroke-width="1.2484"/><path id="ae" d="m19.49 8.7051c-2.578 0.64014-4.9729 1.8154-7.0117 3.4395v0.85547h2.5664l1.2832-1.2148v2.4297l1.2852 1.2129-1.2852 2.4297-2.5664-1.1426v1.2129l0.64258 0.53711-0.64258 0.60742v2.4277l-2.5664 1.2148v1.2129l3.8496 1.2148 2.5684-1.2148-1.2852 2.4297h-2.5664l-1.2832 1.2148-2.5684 1.2129v1.2148l5.1348-1.2148 1.2832-1.2129 2.5684 1.2129 2.5664-1.2129h5.1348l1.2832-2.4297v-1.1426l-2.5664 1.1426 2.5664-2.4277v-2.4297l-1.2832-1.2129-1.2832 1.2129h-1.2852l1.2852-2.4277-6.96e-4 -1.1431-1.2845-0.07171-1.2832-2.4277-1.2832-1.2148-1.2832-3.6426zm-8.2949 3.8926c-2.2396 2.1683-4.0622 5.5182-4.8867 8.5996-0.066447 0.37882-0.12255 0.7616-0.16211 1.1484-2.68e-4 0.0026-0.00169 0.0052-0.00195 0.0078l2.4824-0.8535 1.2832-2.4277v-3.6445l1.2852-1.2129zm28.627 4.4668-4.2402 2.0078-1.2832 3.6426-3.8516 3.6426-2.5664 1.2148v2.4277l-2.5664 1.2148-1.2852 1.2129h-2.5664l-1.2832-1.2129-1.2832-1.1426v1.1426l1.2832 4.8574h-2.5664l-1.2852-1.2148h-2.5664l-2.5664 0.07031v0.9668c3.2617 3.1497 7.8049 5.1055 12.834 5.1055 0.30294 0 0.60503-0.0075 0.9043-0.02148 0.20015-0.0094 0.39733-0.02549 0.5957-0.04102 0.09819-0.0077 0.19719-0.01232 0.29492-0.02148 0.0059-5.54e-4 0.01168-0.0014 0.01758-2e-3 0.26235-0.02487 0.52236-0.05636 0.78125-0.0918 0.02653-0.0036 0.05359-6e-3 0.08008-0.0098 6.39e-4 -9e-5 0.0013 9e-5 2e-3 0 0.20288-0.02867 0.40292-0.06458 0.60352-0.09961 0.09681-0.01689 0.19476-0.03048 0.29102-0.04883 0.18241-0.03481 0.36261-0.0772 0.54297-0.11719 0.1021-0.02262 0.20522-0.04214 0.30664-0.06641 0.18246-0.04367 0.36278-0.09367 0.54297-0.14258 0.10085-0.02737 0.20262-0.05109 0.30273-0.08008 0.18149-0.05255 0.36007-0.11212 0.53906-0.16992 0.09352-0.03019 0.18843-0.05824 0.28125-0.08984 0.18979-0.06464 0.37574-0.13462 0.5625-0.20508 0.07779-0.02933 0.15713-0.05561 0.23438-0.08594 0.20671-0.08119 0.41056-0.16765 0.61328-0.25586 0.04283-0.01863 0.08625-0.03575 0.12891-0.05469 0.0099-0.0044 0.01944-0.0093 0.0293-0.01367 0.18843-0.08409 0.37382-0.17362 0.55859-0.26367 0.07789-0.03794 0.15715-0.0743 0.23437-0.11328 0.15096-0.07625 0.29892-0.15616 0.44727-0.23633 0.10271-0.05547 0.20522-0.11065 0.30664-0.16797 0.14547-0.08226 0.28887-0.1679 0.43164-0.25391 0.09645-0.05807 0.19388-0.11603 0.28906-0.17578 0.15672-0.09844 0.31163-0.19982 0.46484-0.30273 0.07063-0.04742 0.14107-0.09422 0.21094-0.14258 0.15548-0.10766 0.30735-0.21786 0.45898-0.33008 0.07621-0.05637 0.1533-0.11242 0.22852-0.16992 0.15927-0.12184 0.31599-0.24818 0.4707-0.375 0.04801-0.03933 0.09697-0.07738 0.14453-0.11719 0.16525-0.13837 0.32659-0.27986 0.48633-0.42383 0.04767-0.04294 0.09541-0.08548 0.14258-0.12891 0.1506-0.13873 0.29796-0.28021 0.44336-0.42383 0.05299-0.05231 0.10592-0.10526 0.1582-0.1582 0.13496-0.13675 0.26825-0.2751 0.39844-0.41602 0.05642-0.06103 0.11246-0.1218 0.16797-0.18359 0.14047-0.15648 0.2776-0.31529 0.41211-0.47656 0.0329-0.03943 0.06512-0.07943 0.09766-0.11914 0.13959-0.17045 0.2754-0.34401 0.4082-0.51953 0.03248-0.0429 0.06559-0.08572 0.09766-0.12891 0.13142-0.17715 0.26041-0.35704 0.38476-0.53906 0.02917-0.04266 0.05716-0.08598 0.08594-0.12891 0.1231-0.18377 0.24362-0.36819 0.35938-0.55664 0.02463-0.04006 0.04798-0.08082 0.07227-0.12109 0.12531-0.2079 0.2471-0.41954 0.36328-0.63281 0.0029-0.0054 0.0068-0.01023 0.0098-0.01563 0.0032-0.0059 0.0066-0.01169 0.0098-0.01758 0.12124-0.22379 0.23674-0.45028 0.34766-0.67969 0.0044-0.0092 0.0093-0.01817 0.01367-0.02734 0.0059-0.01231 0.01168-0.02478 0.01758-0.03711 0.10518-0.21999 0.20533-0.44311 0.30078-0.66797 0.0056-0.01314 0.01203-0.02591 0.01758-0.03906 0.0065-0.01536 0.01115-0.03149 0.01758-0.04687 0.09856-0.2359 0.19172-0.47392 0.2793-0.71484 0.08837-0.24312 0.17114-0.48837 0.24805-0.73633 0.01208-0.03892 0.02336-0.07815 0.03516-0.11719 0.06598-0.21858 0.12868-0.43808 0.18555-0.66016 0.01347-0.05256 0.02611-0.10545 0.03906-0.1582 0.0552-0.225 0.10669-0.45136 0.15234-0.67969 0.0018-0.0091 4e-3 -0.0182 0.0059-0.02734 0.0036-0.0181 0.0062-0.03657 0.0098-0.05469 0.04842-0.24886 0.09207-0.49942 0.12891-0.75195 7.56e-4 -0.0052 0.0012-0.01044 2e-3 -0.01563 0.0018-0.01225 0.0022-0.02486 0.0039-0.03711 0.03765-0.26414 0.06907-0.53099 0.09375-0.79883 0.02582-0.28027 0.04537-0.56171 0.05664-0.8457-0.08748-2.6506-0.8201-5.2495-2.1602-7.584z" fill="#b97d40" stroke-width="1.2484"/><path id="af" d="m19.49 7.5622c-2.578 0.64014-4.9732 1.8148-7.0121 3.4389v0.85607h2.5671l1.2836-1.2143v2.4286l1.2836 1.2143-1.2836 2.4286h-2.5671l0.64178 0.60714-0.64178 0.60714v2.4286l-2.5671 1.2143v1.2143l3.8507 1.2143 2.5671-1.2143-1.2836 2.4286h-2.5671l-1.2836 1.2143-2.5671 1.2143v1.2143l5.1342-1.2143 1.2836-1.2143 2.5671 1.2143 2.5671-1.2143h5.1342l1.2836-2.4286h-2.5671l2.5671-2.4286v-2.4286l-1.2836-1.2143-1.2836 1.2143h-1.2836l1.2836-2.4286-1.2836-1.2143-1.2836-2.4286-1.2836-1.2143-1.2836-3.6429zm-8.2956 4.5621c-2.533 2.4523-4.2229 5.5719-4.848 8.9493l2.2809-0.71643 1.2836-2.4286v-3.6429l1.2836-1.2143zm28.627 3.7971-4.2396 2.0072-1.2836 3.6429-3.8507 3.6429-2.5671 1.2143v2.4286l-2.5671 1.2143-1.2836 1.2143h-2.5671l-1.2836-1.2143h-1.2836l1.2836 4.8571h-2.5671l-1.2836-1.2143h-2.5671l-2.5671 1.2143 0.9524 1.8044c3.2793 2.7444 7.5049 4.2617 11.883 4.267 9.9244 0 17.97-7.6112 17.97-17-0.0062-2.8218-0.75477-5.5977-2.1782-8.0774z" fill="url(#j)" stroke-width="1.2484"/><path id="ag" d="m11.004 32.998c4.8856 6.4549 14.329 7.6523 21.326 2.704 6.9291-4.9173 9.0172-13.954 4.6704-20.702 0.09363 0.11448 0.18554 0.23036 0.27557 0.34767 4.7842 6.7501 2.8186 16.163-4.3272 21.227-7.1458 5.0647-16.817 3.6984-21.601-3.0517-0.11826-0.17254-0.23268-0.34769-0.34318-0.52534z" fill="#fff" opacity=".3" stroke-width="1.101"/><path id="ah" d="m24.003 24 1.9967-4 11-5" fill="url(#c)" stroke-linecap="square" stroke-linejoin="round"/><path id="ai" d="m37 15-8.0902 9-4.9054-0.0021z" fill="#0b0101" opacity=".2" stroke-linecap="square" stroke-linejoin="round"/><path id="aj" d="m24 23.998 4.4468-0.46136 8.551-8.537" fill="url(#e)" stroke-linecap="square" stroke-linejoin="round"/><path id="ak" d="m23.996 24.002-1.5184 4.4751-11.473 4.521z" fill="#0b0101" opacity=".2" stroke-linecap="square" stroke-linejoin="round"/><rect id="al" x="23" y="23" width="2" height="3" rx="1" ry="1.1116" fill="url(#a)" stroke-linecap="square" stroke-linejoin="round"/><path id="am" d="m23.997 24-1.9967 4-11 5" fill="url(#f)" stroke-linecap="square" stroke-linejoin="round"/><path id="an" d="m24 24.002-4.4468 0.46136-8.551 8.537" fill="url(#d)" stroke-linecap="square" stroke-linejoin="round"/><rect id="ao" x="23" y="23" width="2" height="2.2233" rx="1" ry="1" fill="url(#a)" stroke-linecap="square" stroke-linejoin="round"/><circle id="ap" cx="24" cy="24" r="1" fill="url(#g)" stroke-linecap="square" stroke-linejoin="round"/><path id="aq" d="m4.0117 24c-0.0042792-0.16676-0.011719-0.33219-0.011719-0.5 0-10.803 8.92-19.5 20-19.5s20 8.697 20 19.5c0 0.16781-0.0074 0.33324-0.01172 0.5-0.2712-10.569-9.0804-19-19.988-19s-19.717 8.4308-19.988 19z" fill="#fff" fill-opacity=".2" stroke-linecap="square" stroke-linejoin="round"/><path id="ar" d="m41.97 24.712c-0.28757-9.182-8.245-16.488-17.97-16.497-9.6419 0.0057071-17.566 7.1884-17.97 16.288-0.011569-0.16744-0.020619-0.33502-0.026995-0.50271 0-9.3888 8.0574-17 17.997-17 9.9393 0 17.997 7.6112 17.997 17-0.0037 0.23734-0.01273 0.47458-0.02699 0.71157z" fill="#292c2f" opacity=".2" stroke-width="1.2494"/></svg>
