<?xml version="1.0" encoding="UTF-8"?>
<svg version="1.1" viewBox="0 0 64 64" xmlns="http://www.w3.org/2000/svg" xmlns:xlink="http://www.w3.org/1999/xlink"><defs id="h"><linearGradient id="g" x2="0" y1="557.8" y2="505.8" gradientTransform="matrix(.78261 0 0 1 83.254 -8)" gradientUnits="userSpaceOnUse"><stop id="i" stop-color="#197cf1" offset="0"/><stop id="j" stop-color="#20bcfa" offset="1"/></linearGradient><linearGradient id="f" x1="14" x2="34" y1="14" y2="34" gradientTransform="translate(10 22)" gradientUnits="userSpaceOnUse"><stop id="k" stop-color="#020303" offset="0"/><stop id="l" stop-color="#424649" stop-opacity="0" offset="1"/></linearGradient><linearGradient id="e" x2="0" y1="52" y2="36" gradientUnits="userSpaceOnUse"><stop id="m" stop-color="#7cbaf8" offset="0"/><stop id="n" stop-color="#f4fcff" offset="1"/></linearGradient><linearGradient id="d" x2="0" y1="551.8" y2="528.8" gradientTransform="matrix(.63587 0 0 1 144.25 -31)" gradientUnits="userSpaceOnUse"><stop id="o" stop-color="#c6cdd1" offset="0"/><stop id="p" stop-color="#e0e5e7" offset="1"/></linearGradient><linearGradient id="b" x1="398.57" x2="400.57" gradientTransform="matrix(2 0 0 2 -384.57 -537.8)" gradientUnits="userSpaceOnUse" xlink:href="#a"/><linearGradient id="a"><stop id="q" stop-color="#faae2a" offset="0"/><stop id="r" stop-color="#ffc35a" offset="1"/></linearGradient><linearGradient id="c" x1="398.57" x2="400.57" gradientTransform="matrix(2 0 0 2 -396.57 -537.8)" gradientUnits="userSpaceOnUse" xlink:href="#a"/></defs><g id="s" transform="translate(-376.57 -491.8)"><rect id="t" x="395.57" y="497.8" width="26" height="24" rx="0" fill="url(#d)"/><rect id="u" x="392.57" y="520.8" width="32" height="29" rx="0" fill="url(#g)"/><path id="v" transform="translate(376.57 491.8)" d="m28.707 36.293-1.4141 1.4141 8 8-0.29297 0.29297 12 12h1v-9l-8-8-3.293 3.293-8-8zm-2.1465 6.1465-2.1211 2.1211 5.5 5.5-1.3535 1.3535 6.5859 6.5859h6.9512l-15.562-15.561z" fill="url(#f)" opacity=".2"/><path id="w" transform="translate(376.57 491.8)" d="m28 36c-0.554 0-1 0.446-1 1s0.446 1 1 1 1-0.446 1-1-0.446-1-1-1zm7 0-2 2 3 3-3 3 2 2 5-5-5-5zm-9.5 6c-0.831 0-1.5 0.669-1.5 1.5s0.669 1.5 1.5 1.5 1.5-0.669 1.5-1.5-0.669-1.5-1.5-1.5zm4.5 6c-1.108 0-2 0.892-2 2s0.892 2 2 2 2-0.892 2-2-0.892-2-2-2z" fill="url(#e)"/><rect id="x" x="392.57" y="548.8" width="32" height="1" fill="#0c69cf" stroke-opacity=".55026" stroke-width="2.8"/><rect id="y" x="398.57" y="501.8" width="8" height="8" fill="#23262c"/><rect id="z" x="410.57" y="501.8" width="8" height="8" fill="#23262c"/><rect id="aa" x="400.57" y="501.8" width="4" height="8" fill="url(#c)"/><rect id="ab" x="412.57" y="501.8" width="4" height="8" fill="url(#b)"/></g></svg>
