<?xml version="1.0" encoding="UTF-8"?>
<svg fill="none" viewBox="0 0 30 30" xmlns="http://www.w3.org/2000/svg"><rect width="30" height="30" rx="2" fill="url(#a)"/><path d="m0 27v1c0 1.1046 1 2 2.0523 2l-0.55234-1c-0.82843 0-1.5-0.8954-1.5-2zm2.0523 3h25.948c1 0 2-0.8954 2-2v-1c0 1.1046-0.6716 2-1.5 2h-27l0.55234 1z" clip-rule="evenodd" fill="#031C5A" fill-opacity=".1" fill-rule="evenodd"/><rect x="6" y="12" width="3" height="3" rx="1.5" fill="#FCFCFC"/><rect x="5.5" y="11.5" width="4" height="4" rx="2" stroke="#000" stroke-opacity=".1"/><rect x="6" y="19" width="3" height="3" rx="1.5" fill="#FCFCFC"/><rect x="5.5" y="18.5" width="4" height="4" rx="2" stroke="#000" stroke-opacity=".1"/><path d="m17 8h1.5l-5 14h-1.5l5-14z" fill="#FCFCFC"/><path d="m17 7.5h-0.3524l-0.1185 0.33183-5 14-0.2386 0.6682h2.5619l5.1185-14.332 0.2386-0.66817h-2.2095z" stroke="#000" stroke-opacity=".1"/><path d="m22 8h1.5l-5 14h-1.5l5-14z" fill="#FCFCFC"/><path d="m22 7.5h-0.3524l-0.1185 0.33183-5 14-0.2386 0.6682h2.5619l5.1185-14.332 0.2386-0.66817h-2.2095z" stroke="#000" stroke-opacity=".1"/><defs><linearGradient id="a" x1="4" x2="22.5" y1="-1.6093e-7" y2="30" gradientUnits="userSpaceOnUse"><stop stop-color="#3A424A" offset="0"/><stop stop-color="#232629" offset="1"/></linearGradient></defs></svg>
