<?xml version="1.0" encoding="UTF-8"?>
<svg version="1.0" viewBox="0 0 128 128" xmlns="http://www.w3.org/2000/svg" xmlns:xlink="http://www.w3.org/1999/xlink"><defs><linearGradient id="b"><stop stop-color="#191622" offset="0"/><stop stop-color="#424048" offset="1"/></linearGradient><linearGradient id="d"><stop stop-color="#f6d32d" offset="0"/><stop stop-color="#f9f06b" offset=".182"/><stop stop-color="#e5a50a" offset=".795"/><stop stop-color="#f6d32d" offset="1"/></linearGradient><linearGradient id="c"><stop stop-color="#555753" offset="0"/><stop stop-color="#2e3436" offset="1"/></linearGradient><radialGradient id="k" cx="128" cy="384.95" r="80" gradientTransform="matrix(.525 0 0 .3675 60.8 242.53)" gradientUnits="userSpaceOnUse"><stop stop-color="#949390" offset="0"/><stop stop-color="#767579" offset="1"/></radialGradient><linearGradient id="p" x1="165.74" x2="134.78" y1="323.27" y2="207.73" gradientTransform="matrix(.85714 0 0 .85714 961.71 -317.18)" gradientUnits="userSpaceOnUse" xlink:href="#b"/><radialGradient id="w" cx="343.88" cy="308.12" r="8" gradientTransform="translate(916 -220)" gradientUnits="userSpaceOnUse" xlink:href="#c"/><linearGradient id="h" x1="352" x2="448" y1="256" y2="256" gradientTransform="translate(804 -220.03)" gradientUnits="userSpaceOnUse" xlink:href="#d"/><linearGradient id="i" x1="216" x2="360" y1="144" y2="144" gradientTransform="translate(804 -220.03)" gradientUnits="userSpaceOnUse" xlink:href="#d"/><linearGradient id="j" x1="64" x2="240" y1="280" y2="280" gradientTransform="translate(804 -220.03)" gradientUnits="userSpaceOnUse" xlink:href="#d"/><linearGradient id="n" x1="317.67" x2="341.57" y1="211.33" y2="187.43" gradientTransform="translate(828 -220.03)" gradientUnits="userSpaceOnUse"><stop stop-color="#68676b" offset="0"/><stop stop-color="#949390" offset=".733"/><stop stop-color="#8b8a87" offset="1"/></linearGradient><linearGradient id="q" x1="165.74" x2="134.78" y1="323.27" y2="207.73" gradientTransform="translate(804 -220.03)" gradientUnits="userSpaceOnUse" xlink:href="#b"/><linearGradient id="r" x1="144.91" x2="159.09" y1="245.52" y2="298.48" gradientTransform="translate(804 -220.03)" gradientUnits="userSpaceOnUse"><stop stop-color="#2e3436" offset="0"/><stop stop-color="#555753" offset="1"/></linearGradient><linearGradient id="s" x1="144.91" x2="159.09" y1="245.52" y2="298.48" gradientTransform="translate(804 -220.03)" gradientUnits="userSpaceOnUse" xlink:href="#b"/><linearGradient id="t" x1="144.91" x2="159.09" y1="245.52" y2="298.48" gradientTransform="matrix(.75 0 0 .75 978 -288.03)" gradientUnits="userSpaceOnUse" xlink:href="#b"/><linearGradient id="u" x1="165.74" x2="134.78" y1="323.27" y2="207.73" gradientTransform="matrix(.57143 0 0 .57143 1117.1 -127.46)" gradientUnits="userSpaceOnUse" xlink:href="#b"/><linearGradient id="v" x1="144.91" x2="159.09" y1="245.52" y2="298.48" gradientTransform="matrix(.5 0 0 .5 1128 -108.03)" gradientUnits="userSpaceOnUse"><stop stop-color="#191622" offset="0"/><stop stop-color="#424048" offset="1"/></linearGradient><radialGradient id="x" cx="343.88" cy="308.12" r="8" gradientTransform="translate(-1492 -220)" gradientUnits="userSpaceOnUse" xlink:href="#c"/></defs><g transform="matrix(.25 0 0 .25 -203 57.008)"><path d="m1260 76c13.255 0 24 10.745 24 24v48l-24 24h-24v-72c0-13.255 10.745-24 24-24zm-112 0c-13.255 0-24 10.745-24 24v48l24 24h24v-72c0-13.255-10.745-24-24-24z" fill="#4c4c64"/><rect x="1156" y="-20.033" width="96" height="112" rx="48" ry="48" fill="url(#h)"/><rect x="1020" y="-156.03" width="144" height="160" rx="72" ry="72" fill="url(#i)"/><rect x="868" y="-36.033" width="176" height="192" rx="88" ry="88" fill="url(#j)"/><path d="m1077.4-106.66-160 160 45.254 45.254 160-160z" fill="none" font-family="sans-serif" font-weight="400" overflow="visible" stroke="#f5ce17" stroke-width="32" style="font-feature-settings:normal;font-variant-alternates:normal;font-variant-caps:normal;font-variant-ligatures:normal;font-variant-numeric:normal;font-variant-position:normal;isolation:auto;mix-blend-mode:normal;shape-padding:0;text-decoration-color:#000;text-decoration-line:none;text-decoration-style:solid;text-indent:0;text-orientation:mixed;text-transform:none;white-space:normal"/><path d="m860 203.97h192v32h-192z" fill="#424048"/><path transform="translate(828 -204.03)" d="M80 224v128c0 17.673-14.327 32-32 32H32v32h192v-32h-16c-17.673 0-32-14.327-32-32V224z" fill="url(#k)" font-family="sans-serif" font-weight="400" overflow="visible" style="font-feature-settings:normal;font-variant-alternates:normal;font-variant-caps:normal;font-variant-ligatures:normal;font-variant-numeric:normal;font-variant-position:normal;isolation:auto;mix-blend-mode:normal;shape-padding:0;text-decoration-color:#000;text-decoration-line:none;text-decoration-style:solid;text-indent:0;text-orientation:mixed;text-transform:none;white-space:normal"/><path d="m860 179.97h192v32h-192z" fill="#68676b"/><path d="m1140 99.967 64-64 64 64" fill="none" stroke="#424048" stroke-width="24"/><circle cx="1204" cy="35.967" r="48" fill="url(#h)"/><path d="M1260 68c13.255 0 24 10.745 24 24v48l-24 24h-24V92c0-13.255 10.745-24 24-24z" fill="#7a8599"/><path d="m1077.4-114.66-160 160 45.254 45.254 160-160z" fill="none" font-family="sans-serif" font-weight="400" overflow="visible" stroke="#f9f06b" stroke-width="32" style="font-feature-settings:normal;font-variant-alternates:normal;font-variant-caps:normal;font-variant-ligatures:normal;font-variant-numeric:normal;font-variant-position:normal;isolation:auto;mix-blend-mode:normal;shape-padding:0;text-decoration-color:#000;text-decoration-line:none;text-decoration-style:solid;text-indent:0;text-orientation:mixed;text-transform:none;white-space:normal"/><circle cx="956" cy="59.967" r="88" fill="url(#j)"/><circle cx="956" cy="51.967" r="88" fill="#f9f06b"/><path d="m1221 43.967-128-128" fill="none" stroke="url(#n)" stroke-width="40"/><circle cx="1092" cy="-76.033" r="72" fill="url(#i)"/><circle cx="1092" cy="-84.033" r="72" fill="#f9f06b"/><circle cx="1204" cy="27.967" r="48" fill="#f9f06b"/><ellipse cx="1092" cy="-84.033" rx="48" ry="48" fill="url(#p)"/><circle cx="956" cy="51.967" r="56" fill="url(#q)"/><circle cx="956" cy="51.967" r="32" fill="url(#r)"/><circle cx="956" cy="51.967" r="32" fill="url(#s)"/><circle cx="1092" cy="-84.033" r="24" fill="url(#t)"/><ellipse cx="1204" cy="27.967" rx="32" ry="32" fill="url(#u)"/><circle cx="1204" cy="27.967" r="16" fill="url(#v)"/><circle cx="1260" cy="92" r="8" fill="url(#w)"/><path d="M1148 68c-13.255 0-24 10.745-24 24v48l24 24h24V92c0-13.255-10.745-24-24-24z" fill="#7a8599"/><circle transform="scale(-1 1)" cx="-1148" cy="92" r="8" fill="url(#x)"/></g></svg>
