<?xml version="1.0" encoding="UTF-8"?>
<svg version="1.0" viewBox="0 0 128 128" xmlns="http://www.w3.org/2000/svg" xmlns:xlink="http://www.w3.org/1999/xlink"><defs><linearGradient id="g" x1="-142.05" x2="-9.951" y1="236" y2="236" gradientUnits="userSpaceOnUse"><stop stop-color="#c0bfbc" offset="0"/><stop stop-color="#fafaf9" offset=".036"/><stop stop-color="#c0bfbc" offset=".088"/><stop stop-color="#d5d5d3" offset=".399"/><stop stop-color="#eaeae9" offset=".491"/><stop stop-color="#a7a5a1" offset=".569"/><stop stop-color="#a9a7a3" offset=".966"/><stop stop-color="#fff" offset="1"/></linearGradient><radialGradient id="h" cx="90.974" cy="263.48" r="22.703" gradientTransform="matrix(1.903 -.05506 .0501 1.7313 -89.25 -176.86)" gradientUnits="userSpaceOnUse"><stop stop-color="#f5c211" offset="0"/><stop stop-color="#33d17a" stop-opacity=".899" offset="1"/></radialGradient><radialGradient id="i" cx="61.718" cy="270.72" r="22.703" gradientTransform="matrix(2.4905 0 0 2.9213 -91.99 -503.52)" gradientUnits="userSpaceOnUse"><stop stop-color="#ff7800" offset="0"/><stop stop-color="#ed333b" offset="1"/></radialGradient></defs><path transform="translate(123.26 -118.12) scale(.7798)" d="m-75.74 161.44a10.997 10.997 0 0 0-5.758 1.468l-55.053 31.785a10.997 10.997 0 0 0-5.498 9.524v63.57a10.997 10.997 0 0 0 5.498 9.524l55.053 31.785a10.997 10.997 0 0 0 10.996 0l55.053-31.785a10.997 10.997 0 0 0 5.498-9.524v-63.57a10.997 10.997 0 0 0-5.498-9.524l-55.053-31.785a10.997 10.997 0 0 0-5.238-1.469z" fill="url(#g)"/><path d="M64.203 3.77a8.575 8.575 0 0 0-4.49 1.146l-42.93 24.786a8.575 8.575 0 0 0-4.288 7.427V86.7a8.575 8.575 0 0 0 4.287 7.426l42.93 24.786a8.575 8.575 0 0 0 8.575 0l42.93-24.786a8.575 8.575 0 0 0 4.288-7.426V37.129a8.575 8.575 0 0 0-4.287-7.427L68.288 4.916a8.575 8.575 0 0 0-4.085-1.145z" fill="#fff"/><path d="M109.869 33.297L64 59.779 18.131 33.297 64 6.814z" fill="#98c1f1"/><path transform="translate(0 -172)" d="m66.263 287.5 45.35-25.884 0.056-52.762-45.406 26.215z" fill="url(#h)"/><path transform="translate(0 -172)" d="m61.718 287.34-45.35-25.885-0.056-52.761 45.406 26.215z" fill="url(#i)"/></svg>
