<?xml version="1.0" encoding="UTF-8"?>
<svg id="j" viewBox="0 0 48 48" xmlns="http://www.w3.org/2000/svg" xmlns:xlink="http://www.w3.org/1999/xlink"><defs id="k"><linearGradient id="g" x1="25.719" x2="25.515" y1="31.047" y2="30.703" gradientTransform="translate(-5.8255 .125)" gradientUnits="userSpaceOnUse"><stop id="l" offset="0"/><stop id="m" stop-color="#c9c9c9" offset="1"/></linearGradient><radialGradient id="d" cx="29.053" cy="27.641" r="3.2409" gradientTransform="matrix(2.9236 0 0 2.0297 -61.555 -27.884)" gradientUnits="userSpaceOnUse"><stop id="n" stop-color="#e7e2b8" offset="0"/><stop id="o" stop-color="#e7e2b8" stop-opacity="0" offset="1"/></radialGradient><linearGradient id="h" x1="46" x2="47.688" y1="19.812" y2="22.625" gradientTransform="translate(-5.6693)" gradientUnits="userSpaceOnUse"><stop id="p" stop-color="#c1c1c1" offset="0"/><stop id="q" stop-color="#acacac" offset="1"/></linearGradient><linearGradient id="i" x1="48.906" x2="50.988" y1="17.376" y2="22.251" gradientTransform="translate(-5.6693)" gradientUnits="userSpaceOnUse"><stop id="r" stop-color="#ffd1d1" offset="0"/><stop id="s" stop-color="#ff1d1d" offset=".5"/><stop id="t" stop-color="#6f0000" offset="1"/></linearGradient><radialGradient id="e" cx="23.562" cy="40.438" r="19.562" gradientTransform="matrix(1 0 0 .34824 0 26.355)" gradientUnits="userSpaceOnUse"><stop id="u" offset="0"/><stop id="v" stop-opacity="0" offset="1"/></radialGradient><linearGradient id="f" x1="26.213" x2="26.13" y1="14.087" y2="67.031" gradientUnits="userSpaceOnUse"><stop id="w" stop-color="#fff" offset="0"/><stop id="x" stop-color="#fff" stop-opacity="0" offset="1"/></linearGradient><radialGradient id="c" cx="45.15" cy="35.915" r="21.627" gradientTransform="matrix(1.6697 0 1.7025e-8 1.2205 -30.238 -11.799)" gradientUnits="userSpaceOnUse"><stop id="y" stop-color="#fff27e" offset="0"/><stop id="z" stop-color="#edd400" offset="1"/></radialGradient><radialGradient id="b" cx="43.875" cy="35.901" r="20.219" gradientTransform="matrix(10.883 -6.4548e-8 0 11.397 -433.6 -381.38)" gradientUnits="userSpaceOnUse"><stop id="aa" stop-color="#fff" offset="0"/><stop id="ab" stop-color="#fff" stop-opacity="0" offset="1"/></radialGradient><radialGradient id="a" cx="39.907" cy="31.781" r="5.2591" gradientTransform="matrix(1 0 0 .36134 0 22.297)" gradientUnits="userSpaceOnUse"><stop id="ac" offset="0"/><stop id="ad" stop-opacity="0" offset="1"/></radialGradient></defs><g id="ae"><g id="af" transform="matrix(.21132 0 0 .20976 -.32677 3.5235)" fill-rule="evenodd" stroke-width="3pt"><path id="ag" d="m32.707 164.36c-10.388 0-18.75 8.3625-18.75 18.75s8.3625 18.75 18.75 18.75h172.5c10.388 0 18.75-8.3625 18.75-18.75s-8.3625-18.75-18.75-18.75h-172.5z" opacity=".047872"/><path id="ah" d="m32.707 165.61c-9.695 0-17.5 7.805-17.5 17.5s7.805 17.5 17.5 17.5h172.5c9.695 0 17.5-7.805 17.5-17.5s-7.805-17.5-17.5-17.5h-172.5z" opacity=".047872"/><path id="ai" d="m32.707 166.86c-9.0025 0-16.25 7.2475-16.25 16.25s7.2475 16.25 16.25 16.25h172.5c9.0025 0 16.25-7.2475 16.25-16.25s-7.2475-16.25-16.25-16.25h-172.5z" opacity=".047872"/><path id="aj" d="m32.707 168.11c-8.31 0-15 6.69-15 15s6.69 15 15 15h172.5c8.31 0 15-6.69 15-15s-6.69-15-15-15h-172.5z" opacity=".047872"/><path id="ak" d="m32.708 169.36c-7.6175 0-13.75 6.1325-13.75 13.75s6.1325 13.75 13.75 13.75h172.5c7.6175 0 13.75-6.1325 13.75-13.75s-6.1325-13.75-13.75-13.75h-172.5z" opacity=".047872"/><path id="al" d="m32.707 170.61c-6.925 0-12.5 5.575-12.5 12.5s5.575 12.5 12.5 12.5h172.5c6.925 0 12.5-5.575 12.5-12.5s-5.575-12.5-12.5-12.5h-172.5z" opacity=".047872"/><path id="am" d="m32.707 171.86c-6.2325 0-11.25 5.0175-11.25 11.25s5.0175 11.25 11.25 11.25h172.5c6.2325 0 11.25-5.0175 11.25-11.25s-5.0175-11.25-11.25-11.25h-172.5z" opacity=".047872"/><path id="an" d="m32.707 173.11c-5.54 0-10 4.46-10 10s4.46 10 10 10h172.5c5.54 0 10-4.46 10-10s-4.46-10-10-10h-172.5z" opacity=".047872"/></g><path id="ao" d="m10.301 14.596 28.649 0.35355c0.76258 0 1.2439 0.57665 1.3765 1.1938l4.4013 19.815s0.012458 6.3476 0.012458 6.3476c0 0.66139-0.61392 1.1938-1.3765 1.1938h-37.477c-0.76258 0-1.3765-0.53245-1.3765-1.1938l-0.011171-6.1669 4.425-20.349c0.30936-0.66139 0.61392-1.1938 1.3765-1.1938z" color="black" fill="#edd400" fill-rule="evenodd" stroke="#c4a000"/><rect id="ap" x="5.1146" y="35.958" width="39.048" height="7.0715" rx=".67938" ry=".67938" color="black" fill="#f57900" fill-rule="evenodd" opacity=".37079"/><path id="aq" d="m5.0643 36.532s0.15086-0.53033 0.70402-0.57452h37.565c0.75431 0 0.8046 0.7513 0.8046 0.7513s0.023599-1.6196-1.2839-1.6196h-36.412c-1.0057 0.088388-1.3775 0.77988-1.3775 1.4428z" color="black" fill="#fff" fill-rule="evenodd" opacity=".16292"/><path id="ar" d="m10.312 15.594c-0.15132 0-0.09946-0.026743-0.15625 0.03125-0.050877 0.051955-0.15581 0.27508-0.28125 0.53125-0.014579 0.029772-0.016184 0.03029-0.03125 0.0625l-4.3438 19.906v0.0625 6.125c0 0.044073 0.072368 0.1875 0.375 0.1875h37.5c0.30263 0 0.375-0.14343 0.375-0.1875 0 0-0.030354-6.0681-0.03125-6.25-2.51e-4 -0.001127 4.27e-4 -0.091832 0-0.09375-0.093593-0.42084-4.375-19.594-4.375-19.594-0.05655-0.26325-0.16958-0.4375-0.40625-0.4375l-28.625-0.34375z" color="black" fill="none" opacity=".48315" stroke="url(#f)"/><path id="as" d="m44.194 35.681c-0.37932-1.2553-0.88388-3.8007-0.88388-3.8007l-8.9272 3.182c5.7452 0 8.5737-0.26516 9.8111 0.61872z" color="black" fill="url(#a)" fill-rule="evenodd" opacity=".46629"/><path id="at" d="m8.7832 16.427-4.1348 18.029s21.472 0.125 29.276 0.125c7.9806 0 11.155-2.9684 11.155-2.9684s-1.0067-0.45349-2.3251-4.9667l-2.4038-10.5c-0.46344-1.1864-0.85621-1.6637-1.7564-1.6562h-27.781c-1.7453 0.032087-1.7364 0.83555-2.0293 1.9375z" fill="url(#c)" fill-rule="evenodd" stroke="#c4a000" stroke-width="1px"/><path id="au" d="m10.812 15.5c-0.64029 0.01823-0.7083 0.099785-0.75 0.15625-0.043371 0.058724-0.15007 0.42009-0.3125 1.0312l-3.8438 16.781c1.6944 0.009779 20.571 0.125 28.031 0.125 3.8663 0 6.5173-0.7143 8.1875-1.4062 1.0541-0.43669 1.1133-0.57703 1.4375-0.8125-0.49063-0.7899-1.105-2.1226-1.7812-4.4375-6.51e-4 -0.020828-6.51e-4 -0.041672 0-0.0625 0 0-2.3059-10.042-2.375-10.344-0.21399-0.5478-0.3819-0.85076-0.46875-0.9375s-0.071549-0.095993-0.34375-0.09375h-27.75-0.03125z" fill="none" opacity=".46629" stroke="url(#b)" stroke-width="1px"/><path id="av" d="m5.0643 38.532s0.15086-0.53033 0.70402-0.57452h37.565c0.75431 0 0.8046 0.7513 0.8046 0.7513s0.023599-1.6196-1.2839-1.6196h-36.412c-1.0057 0.088388-1.3775 0.77988-1.3775 1.4428z" color="black" fill="#fff" fill-rule="evenodd" opacity=".26404"/><path id="aw" d="m5.0643 40.532s0.15086-0.53033 0.70402-0.57452h37.565c0.75431 0 0.8046 0.7513 0.8046 0.7513s0.023599-1.6196-1.2839-1.6196h-36.412c-1.0057 0.088388-1.3775 0.77988-1.3775 1.4428z" color="black" fill="#fff" fill-rule="evenodd" opacity=".26404"/><path id="ax" d="m5.0643 42.532s0.15086-0.53033 0.70402-0.57452h37.565c0.75431 0 0.8046 0.7513 0.8046 0.7513s0.023599-1.6196-1.2839-1.6196h-36.412c-1.0057 0.088388-1.3775 0.77988-1.3775 1.4428z" color="black" fill="#fff" fill-rule="evenodd" opacity=".26404"/><path id="ay" transform="matrix(.61661 0 0 .29358 11.488 14.628)" d="m43.125 40.438a19.562 6.8125 0 1 1-39.125 0 19.562 6.8125 0 1 1 39.125 0z" color="black" fill="url(#e)" fill-rule="evenodd" opacity=".2"/><g id="az" transform="matrix(1.0337 -.27698 .27698 1.0337 14.818 -29.048)" fill-rule="evenodd"><path id="ba" transform="translate(-29.755 19)" d="m17.341 32.5 5.625-5.625 20.094-9.75c3.25-1.25 5.1875 3.375 2.3125 5l-20.031 9.375-8 1z" color="black" fill="#cb9022" stroke="#5c410c" stroke-width=".93444"/><path id="bb" transform="translate(-29.755 19)" d="m38.331 20s1.4375 0.09375 2 1.3438c0.57949 1.2878 0 2.6562 0 2.6562l5.0312-2.4688s1.452-0.88137 0.65625-2.8438c-0.78491-1.9356-2.6875-1.1562-2.6875-1.1562l-5 2.4688z" color="black" fill="url(#i)"/><path id="bc" transform="translate(-29.755 19)" d="m38.331 20s1.4375 0.09375 2 1.3438c0.57949 1.2878 0 2.6562 0 2.6562l2-1s0.82703-1.3189 0.21875-2.6875c-0.625-1.4062-2.2188-1.3125-2.2188-1.3125l-2 1z" color="black" fill="url(#h)"/><path id="bd" transform="translate(-29.755 19)" d="m18.768 31.781 4.5-4.5c1.5 0.8125 2.2812 2.1562 1.875 3.7188l-6.375 0.78125z" color="black" fill="url(#d)"/><path id="be" transform="translate(-29.755 19)" d="m20.112 30.375-1.625 1.5938 2.3438-0.3125c0.21875-0.71875-0.1875-1.0625-0.71875-1.2812z" color="black" fill="url(#g)"/><path id="bf" transform="translate(-29.755 19)" d="m23.268 27.25 1.5625 1.25 15.387-7.3187c-0.44443-0.85604-1.2418-1.0846-1.9034-1.1623l-15.046 7.2309z" color="black" fill="#fff" fill-opacity=".36364"/><path id="bg" transform="translate(-29.755 19)" d="m25.143 31.062 0.1875-0.75 15.231-7.1296s-0.11016 0.61363-0.21588 0.74935l-15.203 7.1302z" color="black" fill-opacity=".36364"/></g></g></svg>
