<?xml version="1.0" encoding="UTF-8"?>
<svg id="a" version="1.1" viewBox="0 0 16 16" xmlns="http://www.w3.org/2000/svg" xmlns:xlink="http://www.w3.org/1999/xlink"><g id="b" transform="translate(0 -1036.4)"><path id="c" d="m7.0878 1052.4h3.9576c2.6853 0 4.9484-2.5423 4.9546-5.0126 0.0064-2.534-1.6425-4.9874-4.9394-4.9874-3.2969 0-3.8766 3.0093-3.8766 3.0093-2.4127-0.8794-4.3073 1.1353-4.1777 3.4193 0.123 2.1681 1.7546 3.5714 4.0815 3.5714z" fill="#bcc5ca"/><circle id="d" cx="7" cy="1043.4" r="5.6" fill="#f9da02" fill-rule="nonzero" stroke="#f9da02" stroke-linecap="round" stroke-linejoin="miter" stroke-miterlimit="4" stroke-width=".8"/><path id="e" d="m7.4479 1049.4 0.79077-1.4918" fill="none" opacity=".95" stroke="#ffb414" stroke-linejoin="miter" stroke-miterlimit="4" stroke-width="1"/><path id="f" d="m7.0878 1051.4h3.9576c2.6853 0 4.9484-2.5423 4.9546-5.0126 0.0064-2.534-1.6425-4.9874-4.9394-4.9874-3.2969 0-3.8766 3.0093-3.8766 3.0093-2.4127-0.8794-4.3073 1.1353-4.1777 3.4193 0.123 2.1681 1.7546 3.5714 4.0815 3.5714z" fill="#f1f3f5"/><path id="g" d="m11.846 1046.7s-2.6503 2.0346-2.3227 3.0902c0.32759 1.0558 1.6394 1.3944 2.5081 0.7495 0.86869-0.6451-0.18539-3.8397-0.18539-3.8397z" fill="#00aade" stroke="#00aade" stroke-miterlimit="4" stroke-width=".83313"/><path id="h" d="m6.0671 1047.8s-2.6503 2.0346-2.3227 3.0902c0.32759 1.0558 1.6394 1.3944 2.5081 0.7495 0.86869-0.6451-0.18539-3.8397-0.18539-3.8397z" fill="#00aade" stroke="#00aade" stroke-miterlimit="4" stroke-width=".83313"/></g></svg>
