<?xml version="1.0" encoding="UTF-8"?>
<svg id="a" enable-background="new" version="1.0" viewBox="0 0 16 16" xmlns="http://www.w3.org/2000/svg"><title id="b">Optical Drive</title><g id="c" transform="translate(0,-284)" display="none"><rect id="d" x="296" y="50" width="48" height="48" display="inline" enable-background="accumulate" fill="#eeeeec" fill-rule="nonzero"/><rect id="e" x="303" y="126" width="32" height="32" display="inline" enable-background="accumulate" fill="#eeeeec" fill-rule="nonzero"/><rect id="f" x="302" y="176" width="24" height="24" display="inline" enable-background="accumulate" fill="#fff" fill-rule="nonzero"/><rect id="g" x="303" y="177" width="22" height="22" display="inline" enable-background="accumulate" fill="#eeeeec" fill-rule="nonzero"/><rect id="h" x="303" y="219" width="16" height="16" display="inline" enable-background="accumulate" fill="#eeeeec" fill-rule="nonzero"/><text id="i" x="20.970737" y="21.513618" display="inline" enable-background="new" fill="#000000" font-family="'Bitstream Vera Sans'" style="line-height:0%" xml:space="preserve"><tspan id="j" x="20.970737" y="21.513618" font-size="18.301px" style="line-height:1.25">apps</tspan></text><text id="k" x="191.97073" y="21.513618" display="inline" enable-background="new" fill="#000000" font-family="'Droid Sans'" font-weight="bold" style="line-height:0%" xml:space="preserve"><tspan id="l" x="191.97073" y="21.513618" font-size="18.301px" style="line-height:1.25">preferences-desktop-theme</tspan></text><rect id="m" x="20" y="28" width="256" height="256" display="inline" enable-background="accumulate" fill="#eeeeec" fill-rule="nonzero"/><path id="n" d="m20.062 28v238 18h237.94 18 0.0625v-18h-0.0625v-238h-18v238h-219.94v-238z" display="inline" enable-background="accumulate" fill="#729fcf" fill-rule="nonzero" opacity=".29455"/></g><g id="o" transform="translate(0,-284)"><g id="p" transform="matrix(.40236 0 0 .40236 -17.658 182.38)"><g id="q" transform="matrix(.96876 0 0 1.0699 -265.06 45.628)"><g id="r"><g id="s" transform="matrix(.86603 -.45275 .55218 .86603 -260.98 122.52)"><path id="t" d="m481.08 367.37-30.072-15.721-6e-3 0.01c-0.0835-0.0514-0.16819-0.0994-0.25522-0.146-1.9494-1.019-4.3169-0.61114-5.2877 0.91095-0.97082 1.5223-0.17696 3.5827 1.7726 4.602 0.0876 0.0456 0.17584 0.0881 0.2664 0.12848l-6e-3 9e-3 30.071 15.721z" enable-background="new" fill="#f1f3f5" stroke="#344958" stroke-miterlimit="4" stroke-width=".95378"/><rect id="u" transform="matrix(-.53762 .84319 -.8862 -.4633 0 0)" x="102.62" y="-602.96" width="7.4483" height="4.863" enable-background="new" fill="#c1ebf7"/><rect id="v" transform="matrix(-.53762 .84319 -.8862 -.4633 0 0)" x="102.62" y="-597.07" width="7.4483" height="4.863" enable-background="new" fill="#6acfec"/><rect id="w" transform="matrix(-.53762 .84319 -.8862 -.4633 0 0)" x="102.62" y="-591.18" width="7.4483" height="4.863" enable-background="new" fill="#00aade"/><rect id="x" transform="matrix(-.53762 .84319 -.8862 -.4633 0 0)" x="102.62" y="-585.29" width="7.4483" height="4.863" enable-background="new" fill="#006888"/><rect id="y" transform="matrix(-.53762 .84319 -.8862 -.4633 0 0)" x="102.62" y="-579.39" width="7.4483" height="4.863" enable-background="new" fill="#003445"/><g id="z" transform="matrix(.19575 .30634 -.37362 .19489 486.78 141.85)" stroke="#263742" stroke-miterlimit="4"><path id="aa" d="m508.28 273.87-44.395 69.628 0.0267 0.014c-0.14534 0.19334-0.28091 0.38936-0.41237 0.59094-2.8776 4.5137-1.7181 9.9994 2.5896 12.252 4.3084 2.2528 10.134 0.41872 13.013-4.0953 0.12891-0.20285 0.24824-0.40734 0.36283-0.61686l0.023 0.0119 44.395-69.628z" enable-background="new" fill="#f1f3f5" stroke-width="2.4415"/><rect id="ab" transform="matrix(.8862 .4633 -.53762 .84319 0 0)" x="576.72" y="13.18" width="20.056" height="11.834" enable-background="new" fill="#d7fdb2" stroke-width=".11538"/><rect id="ac" transform="matrix(.8862 .4633 -.53762 .84319 0 0)" x="576.72" y="27.52" width="20.056" height="11.834" enable-background="new" fill="#aef766" stroke-width=".11538"/><rect id="ad" transform="matrix(.8862 .4633 -.53762 .84319 0 0)" x="576.72" y="41.86" width="20.056" height="11.834" enable-background="new" fill="#6acc0a" stroke-width=".11538"/><rect id="ae" transform="matrix(.8862 .4633 -.53762 .84319 0 0)" x="576.72" y="55.833" width="20.056" height="11.834" enable-background="new" fill="#52a302" stroke-width=".11538"/><rect id="af" transform="matrix(.8862 .4633 -.53762 .84319 0 0)" x="576.72" y="70.539" width="20.056" height="11.834" enable-background="new" fill="#3c7902" stroke-width=".11538"/></g><g id="ag" transform="matrix(.33868 .17706 -.21547 .33794 364.24 152.61)" stroke="#344958" stroke-miterlimit="4"><path id="ah" d="m508.28 273.87-44.395 69.628 0.0267 0.014c-0.14535 0.19333-0.28088 0.38938-0.41235 0.59094-2.8776 4.5137-1.7181 9.9994 2.5896 12.252 4.3084 2.2528 10.134 0.41872 13.013-4.0953 0.12889-0.20284 0.24858-0.40716 0.36281-0.61686l0.0229 0.0119 44.395-69.628z" enable-background="new" fill="#f1f3f5" stroke-width="2.4415"/><rect id="ai" transform="matrix(.8862 .4633 -.53762 .84319 0 0)" x="576.72" y="13.18" width="20.056" height="11.834" enable-background="new" fill="#fcf4c0" stroke-width=".11538"/><rect id="aj" transform="matrix(.8862 .4633 -.53762 .84319 0 0)" x="576.72" y="27.52" width="20.056" height="11.834" enable-background="new" fill="#fbeb83" stroke-width=".11538"/><rect id="ak" transform="matrix(.8862 .4633 -.53762 .84319 0 0)" x="576.72" y="41.86" width="20.056" height="11.834" enable-background="new" fill="#f9da02" stroke-width=".11538"/><rect id="al" transform="matrix(.8862 .4633 -.53762 .84319 0 0)" x="576.72" y="56.199" width="20.056" height="11.834" enable-background="new" fill="#dcb102" stroke-width=".11538"/><rect id="am" transform="matrix(.8862 .4633 -.53762 .84319 0 0)" x="576.72" y="70.539" width="20.056" height="11.834" enable-background="new" fill="#ad7702" stroke-width=".11538"/></g><path id="an" d="m463.21 324.58-17.324 27.17 0.01 6e-3c-0.0569 0.0755-0.10951 0.15193-0.16092 0.23058-1.1229 1.7613-0.66744 3.9035 1.0172 4.7845 1.6849 0.88103 3.9613 0.16692 5.0845-1.5945 0.0502-0.0792 0.097-0.15887 0.14155-0.24071l9e-3 4e-3 17.324-27.17z" enable-background="new" fill="#f1f3f5" stroke="#344958" stroke-miterlimit="4" stroke-width=".95378"/><rect id="ao" transform="matrix(.8862 .4633 -.53762 .84319 0 0)" x="566.69" y="75.623" width="7.8437" height="4.6179" enable-background="new" fill="#f3b6a6"/><rect id="ap" transform="matrix(.8862 .4633 -.53762 .84319 0 0)" x="566.69" y="81.219" width="7.8437" height="4.6179" enable-background="new" fill="#ec866a"/><rect id="aq" transform="matrix(.8862 .4633 -.53762 .84319 0 0)" x="566.69" y="86.814" width="7.8437" height="4.6179" enable-background="new" fill="#e6461d"/><rect id="ar" transform="matrix(.8862 .4633 -.53762 .84319 0 0)" x="566.69" y="92.41" width="7.8437" height="4.6179" enable-background="new" fill="#c02700"/><rect id="as" transform="matrix(.8862 .4633 -.53762 .84319 0 0)" x="566.69" y="98.005" width="7.8437" height="4.6179" enable-background="new" fill="#851b00"/><ellipse id="at" transform="matrix(.8862 .4633 -.53762 .84319 0 0)" cx="570.61" cy="106.35" rx="1.9609" ry="1.8621" fill="#263742" style="paint-order:normal"/></g></g></g></g></g></svg>
