<?xml version="1.0" encoding="UTF-8"?>
<svg id="a" version="1.1" viewBox="0 0 48 48" xml:space="preserve" xmlns="http://www.w3.org/2000/svg"><title id="b">FreeCAD</title><g id="c" transform="matrix(2 0 0 2 .11244 0)" fill-rule="evenodd"><path id="d" d="m22 3.9997-3.9997 4.0003h-8v2.9998h3.9997v4.0003h-3.9997v4.9997l-4.0003 4.0003h4.0504c0.30326-1e-6 0.57188-0.19527 0.66559-0.48369l0.72398-2.2283c0.06925-0.21309 0.23649-0.37983 0.44958-0.44906l0.55655-0.18087c0.21311-0.06926 0.44658-0.03248 0.62787 0.09922l1.895 1.3772c0.24533 0.17823 0.57787 0.17823 0.8232 0l1.6986-1.2345c0.24536-0.17824 0.34796-0.49395 0.25425-0.78238l-0.72398-2.2283c-0.06926-0.21311-0.03197-0.44658 0.09974-0.62787l0.34416-0.47336c0.1317-0.18128 0.34179-0.28886 0.56586-0.28887l2.343 5.1e-4c0.30328 1e-5 0.57188-0.19577 0.66559-0.48421l0.64905-1.9968c0.0937-0.28841-0.0089-0.60465-0.25425-0.7829l-1.8955-1.3772c-0.18128-0.13171-0.28836-0.34178-0.28835-0.56585v-0.58549c1.9e-5 -0.22407 0.10706-0.43468 0.28835-0.56637l2.173-1.5787c0.18128-0.13171 0.28835-0.3423 0.28835-0.56637z" fill="#418fde"/><path id="e" d="m18 0-4 4h4v4l4-4v-4zm-12 16-4 4v4h4l4-4h-4z" fill="#ff585d"/><path id="f" d="m6 0-4 4v16l4-4v-12h8l4-4z" fill="#cb333b" stroke-linecap="square" stroke-width="2.6457"/><path id="g" d="m6 20h4.0003v-4.9997h3.9997v-4.0003h-3.9997v-2.9998h8v-4.0003h-12z" fill="#fefefe"/></g></svg>
