<?xml version="1.0" encoding="UTF-8"?>
<svg viewBox="0 0 128 128" xmlns="http://www.w3.org/2000/svg"><filter id="a" x="0%" y="0%" width="100%" height="100%"><feColorMatrix in="SourceGraphic" values="0 0 0 0 1 0 0 0 0 1 0 0 0 0 1 0 0 0 1 0"/></filter><mask id="b"><g filter="url(#a)"><rect width="128" height="128" fill-opacity=".1"/></g></mask><clipPath id="c"><rect width="192" height="152"/></clipPath><mask id="d"><g filter="url(#a)"><rect width="128" height="128" fill-opacity=".3"/></g></mask><clipPath id="e"><rect width="192" height="152"/></clipPath><mask id="f"><g filter="url(#a)"><rect width="128" height="128" fill-opacity=".3"/></g></mask><clipPath id="g"><rect width="192" height="152"/></clipPath><linearGradient id="h" x1="143.61" x2="141.01" y1="139.42" y2="95.803" gradientTransform="matrix(.38696 .44639 -.44639 .38696 82.351 -67.532)" gradientUnits="userSpaceOnUse"><stop stop-color="#b3b3b3" offset="0"/><stop stop-color="#e6e6e6" offset="1"/></linearGradient><linearGradient id="i" x1="102.54" x2="144.83" y1="86.852" y2="185.41" gradientTransform="matrix(.38696 .44639 -.44639 .38696 82.351 -67.532)" gradientUnits="userSpaceOnUse"><stop stop-color="#fff" stop-opacity=".7251" offset="0"/><stop stop-color="#fff" stop-opacity="0" offset="1"/></linearGradient><path d="m41.508 114.02h44.984c0.83594 0 1.5117 0.90234 1.5117 2.0195v6.4297c0 1.1211-0.67578 2.043-1.5117 2.0195l-22.883-0.57031-22.102 0.57031c-0.83594 0.023438-1.5117-0.89844-1.5117-2.0195v-6.4297c0-1.1172 0.67578-2.0195 1.5117-2.0195z"/><path d="m41.559 114.39h44.883c0.83594 0 1.5078 0.80469 1.5078 1.8047v5.75c0 1-0.67188 1.8242-1.5078 1.8047l-22.832-0.50781-22.051 0.50781c-0.83594 0.019531-1.5078-0.80469-1.5078-1.8047v-5.75c0-1 0.67188-1.8047 1.5078-1.8047z" fill="#3d3846"/><path d="m121.28 63.875c0 31.48-25.52 57-57 57-31.48 0-57-25.52-57-57s25.52-57 57-57c31.48 0 57 25.52 57 57z" fill="#d5d3cf"/><path d="m64.277 8.7734c29.383 0 53.199 23.82 53.199 53.199v1.9023c0 29.379-23.816 53.199-53.199 53.199-29.383 0-53.199-23.82-53.199-53.199v-1.9023c0-29.379 23.816-53.199 53.199-53.199z" fill="#d5d3cf"/><path d="m121.28 61.973c0 31.48-25.52 57-57 57-31.48 0-57-25.52-57-57 0-31.48 25.52-57 57-57 31.48 0 57 25.52 57 57z" fill="#f6f5f4"/><path d="m115.58 61.973c0 28.332-22.969 51.301-51.301 51.301-28.332 0-51.301-22.969-51.301-51.301 0-28.332 22.969-51.297 51.301-51.297 28.332 0 51.301 22.965 51.301 51.297z" fill="#342f3d"/><path d="m99.906 61.973c0 19.676-15.953 35.629-35.629 35.629-19.676 0-35.629-15.953-35.629-35.629 0-19.676 15.953-35.625 35.629-35.625 19.676 0 35.629 15.949 35.629 35.625z" fill="#312b3b"/><path d="m99.035 61.973c0 19.199-15.562 34.762-34.758 34.762-19.195 0-34.758-15.562-34.758-34.762 0-19.195 15.562-34.758 34.758-34.758 19.195 0 34.758 15.562 34.758 34.758z" fill="#241f31"/><g transform="translate(-8 -16)" clip-path="url(#c)" mask="url(#b)"><path d="m72.277 26.676c-28.332 0-51.301 22.965-51.301 51.297 0.011719 0.37109 0.023438 0.74219 0.039063 1.1133 0.43359-28.008 23.25-50.492 51.262-50.512 27.887 0.015625 50.656 22.305 51.262 50.188 0.015626-0.26172 0.027344-0.52734 0.039063-0.78906 0-28.332-22.969-51.297-51.301-51.297z"/></g><g transform="translate(-8 -16)" clip-path="url(#e)" mask="url(#d)"><path d="m119.87 78.309v0.21094c0 0.57422-0.46484 1.0352-1.0352 1.0352h-6.5469c-0.57031 0-1.0352-0.46094-1.0352-1.0352v-0.21094c0-0.57422 0.46484-1.0352 1.0352-1.0352h6.5469c0.57031 0 1.0352 0.46094 1.0352 1.0352z"/><path d="m33.664 78.309v0.21094c0 0.57422-0.46484 1.0352-1.0391 1.0352h-6.543c-0.57031 0-1.0352-0.46094-1.0352-1.0352v-0.21094c0-0.57422 0.46484-1.0352 1.0352-1.0352h6.543c0.57422 0 1.0391 0.46094 1.0391 1.0352z"/><path d="m72.793 41.004h-0.59375c-0.74609 0-1.3477-0.60156-1.3477-1.3438v-8.5078c0-0.74609 0.60156-1.3477 1.3477-1.3477h0.59375c0.74609 0 1.3477 0.60156 1.3477 1.3477v8.5078c0 0.74219-0.60156 1.3438-1.3477 1.3438z"/><path d="m72.602 125.84h-0.21094c-0.57422 0-1.0352-0.46484-1.0352-1.0352v-6.543c0-0.57422 0.46094-1.0391 1.0352-1.0391h0.21094c0.57422 0 1.0352 0.46484 1.0352 1.0391v6.543c0 0.57031-0.46094 1.0352-1.0352 1.0352z"/></g><path d="m111.76 61.762v0.21484c0 0.57031-0.46484 1.0352-1.0391 1.0352h-6.543c-0.57031 0-1.0352-0.46484-1.0352-1.0352v-0.21484c0-0.57031 0.46484-1.0352 1.0352-1.0352h6.543c0.57422 0 1.0391 0.46484 1.0391 1.0352z" fill="#e1e0de"/><path d="m25.547 61.762v0.21484c0 0.57031-0.46484 1.0352-1.0352 1.0352h-6.543c-0.57422 0-1.0391-0.46484-1.0391-1.0352v-0.21484c0-0.57031 0.46484-1.0352 1.0391-1.0352h6.543c0.57031 0 1.0352 0.46484 1.0352 1.0352z" fill="#e1e0de"/><path d="m64.68 24.461h-0.59375c-0.74609 0-1.3477-0.60156-1.3477-1.3477v-8.5078c0-0.74219 0.60156-1.3438 1.3477-1.3438h0.59375c0.74219 0 1.3477 0.60156 1.3477 1.3438v8.5078c0 0.74609-0.60547 1.3477-1.3477 1.3477z" fill="#f66151"/><path d="m64.488 109.3h-0.21094c-0.57422 0-1.0391-0.46484-1.0391-1.0391v-6.543c0-0.57031 0.46484-1.0352 1.0391-1.0352h0.21094c0.57031 0 1.0352 0.46484 1.0352 1.0352v6.543c0 0.57422-0.46484 1.0391-1.0352 1.0391z" fill="#e1e0de"/><g transform="translate(-8 -16)" clip-path="url(#g)" mask="url(#f)"><path d="m102.62 49.91c0.79297 0.80469 1.043 1.9414 0.074218 2.9336l-32.23 32.898c-1.4609 1.4883-3.7617 0.54297-4.7344-0.44531-0.97656-0.99219-2.1094-3.543-0.55078-4.9258l34.508-30.582c1.0391-0.92187 2.1758-0.65234 2.9336 0.12109z"/></g><path d="m94.785 31.965c0.78906 0.80469 1.0273 1.9297 0.070313 2.9336l-32.785 34.504c-1.4375 1.5117-3.7617 0.54297-4.7344-0.44922-0.97656-0.98828-2.0859-3.5117-0.55078-4.9219l35.066-32.188c1.0234-0.9375 2.1719-0.64844 2.9336 0.12109z" fill="url(#h)"/><path d="m94.785 31.965-37.449 36.988c-0.97656-0.98828-2.0859-3.5117-0.55078-4.9219l35.066-32.188c1.0234-0.9375 2.1719-0.64844 2.9336 0.12109z" fill="url(#i)"/></svg>
