<?xml version="1.0" encoding="UTF-8"?>
<svg id="a" version="1.1" viewBox="0 0 16 16" xmlns="http://www.w3.org/2000/svg"><g id="b" transform="translate(0 -288.53)"><circle id="c" cx="16.933" cy="280.46" r="0" fill="#00aade" fill-rule="nonzero" style="paint-order:normal"/><circle id="d" cx="16.933" cy="280.46" r="0" fill="#00aade" fill-rule="nonzero" style="paint-order:normal"/><circle id="e" cx="16.933" cy="280.46" r="0" fill="#00aade" fill-rule="nonzero" style="paint-order:normal"/><circle id="f" cx="16.933" cy="280.46" r="0" fill="#00aade" fill-rule="nonzero" style="paint-order:normal"/><circle id="g" cx="16.933" cy="280.46" r="0" fill="#00aade" fill-rule="nonzero" style="paint-order:normal"/><circle id="h" cx="16.933" cy="280.46" r="0" fill="#00aade" fill-rule="nonzero" style="paint-order:normal"/><circle id="i" cx="16.933" cy="280.46" r="0" fill="#00aade" fill-rule="nonzero" style="paint-order:normal"/><circle id="j" cx="16.933" cy="280.46" r="0" fill="#00aade" fill-rule="nonzero" style="paint-order:normal"/><circle id="k" cx="16.933" cy="280.46" r="0" fill="#00aade" fill-rule="nonzero" style="paint-order:normal"/><circle id="l" cx="16.933" cy="280.46" r="0" fill="#00aade" fill-rule="nonzero" style="paint-order:normal"/><g id="m" transform="translate(-.47083 .1323)" stroke="#006888" stroke-linejoin="miter" stroke-miterlimit="4"><path id="n" d="m2.3597 288.9s-1.3889 0-1.3889 1.4772v9.5228h13.611c1.3889 0 1.3889-1.4773 1.3889-1.4773v-6.0452s0-1.4772-1.3889-1.4772l-6.1111-4.2e-4 -2.5-2z" enable-background="new" fill="#00aade" stroke-width="1" style="paint-order:normal"/><path id="o" d="m2.3597 293.9s-1.3889 0-1.3889 1.3365v8.6637h13.611c1.3889 0 1.3889-1.3365 1.3889-1.3365v-8.3269s0-1.3366-1.3889-1.3366l-5.6111 3.7e-4 -2 0.99963z" enable-background="new" fill="#6acfec" stroke-width="1" style="paint-order:normal"/></g></g></svg>
