<?xml version="1.0" encoding="UTF-8"?>
<svg id="a" version="1.1" viewBox="0 0 16 16" xmlns="http://www.w3.org/2000/svg"><g id="b" transform="translate(0 -288.53)"><circle id="c" cx="8.4667" cy="284.5" r="0" fill="#00aade" fill-rule="nonzero" style="paint-order:normal"/><ellipse id="d" cx="8" cy="296.53" rx="7.5" ry="7.5" fill="#00aade" fill-rule="nonzero" stroke="#006888" stroke-linecap="square" stroke-linejoin="round" stroke-miterlimit="4" stroke-width="1" style="paint-order:normal"/><circle id="e" cx="8.4667" cy="284.5" r="0" fill="#00aade" fill-rule="nonzero" style="paint-order:normal"/><circle id="f" cx="8.4667" cy="284.5" r="0" fill="#00aade" fill-rule="nonzero" style="paint-order:normal"/><circle id="g" cx="8.4667" cy="284.5" r="0" fill="#00aade" fill-rule="nonzero" style="paint-order:normal"/><circle id="h" cx="8.4667" cy="284.5" r="0" fill="#00aade" fill-rule="nonzero" style="paint-order:normal"/><circle id="i" cx="8.4667" cy="284.5" r="0" fill="#00aade" fill-rule="nonzero" style="paint-order:normal"/><circle id="j" cx="8.4667" cy="284.5" r="0" fill="#00aade" fill-rule="nonzero" style="paint-order:normal"/><circle id="k" cx="8.4667" cy="284.5" r="0" fill="#00aade" fill-rule="nonzero" style="paint-order:normal"/><circle id="l" cx="8.4667" cy="284.5" r="0" fill="#00aade" fill-rule="nonzero" style="paint-order:normal"/><circle id="m" cx="8.4667" cy="284.5" r="0" fill="#00aade" fill-rule="nonzero" style="paint-order:normal"/><path id="n" d="m10.735 293.53a4.2542 3.9637 0 0 1 1.2631 4.392 4.2542 3.9637 0 0 1-3.9976 2.608 4.2542 3.9637 0 0 1-3.9976-2.608 4.2542 3.9637 0 0 1 1.2631-4.392" color="#000000" enable-background="accumulate" fill="none" stroke="#006888" stroke-linecap="round" stroke-miterlimit="4" stroke-width="3"/><path id="o" d="m10.735 293.53a4.2542 3.9637 0 0 1 1.2631 4.392 4.2542 3.9637 0 0 1-3.9976 2.608 4.2542 3.9637 0 0 1-3.9976-2.608 4.2542 3.9637 0 0 1 1.2631-4.392" color="#000000" enable-background="accumulate" fill="none" stroke="#f1f3f5" stroke-linecap="round" stroke-miterlimit="4" stroke-width="2"/><rect id="p" x="7" y="290.53" width="2" height="4" rx=".5" ry=".5" fill="none" stroke="#006888" stroke-miterlimit="4" stroke-width="1"/><rect id="q" x="7" y="290.53" width="2" height="4" rx=".5" ry=".5" fill="#f1f3f5"/></g></svg>
