<?xml version="1.0" encoding="UTF-8"?>
<svg version="1.0" viewBox="0 0 128 128" xmlns="http://www.w3.org/2000/svg" xmlns:xlink="http://www.w3.org/1999/xlink"><defs><linearGradient id="h" x1="48" x2="464" y1="44" y2="44" gradientTransform="matrix(.25 0 0 .25 0 225)" gradientUnits="userSpaceOnUse"><stop stop-color="#babdb6" offset="0"/><stop stop-color="#f6f5f4" offset=".042"/><stop stop-color="#9a9996" offset=".083"/><stop stop-color="#9a9996" offset=".917"/><stop stop-color="#f6f5f4" offset=".958"/><stop stop-color="#babdb6" offset="1"/></linearGradient><clipPath id="i"><rect x="12" y="184" width="104" height="100" rx="8" ry="8" fill="#f6f5f4" stroke-width=".25"/></clipPath><linearGradient id="j" x1="48" x2="464" y1="44" y2="44" gradientTransform="matrix(.25 0 0 .25 0 225)" gradientUnits="userSpaceOnUse"><stop stop-color="#babdb6" offset="0"/><stop stop-color="#f6f5f4" offset=".042"/><stop stop-color="#d5d3cf" offset=".083"/><stop stop-color="#deddda" offset=".915"/><stop stop-color="#ebeae8" offset=".944"/><stop stop-color="#f6f5f4" offset=".985"/><stop stop-color="#babdb6" offset="1"/></linearGradient></defs><g transform="translate(0 -172)"><rect x="12" y="204" width="104" height="84" rx="8" ry="8" fill="url(#h)"/><path d="M20 184h27l1 1 1-1h31.984l1 1 1-1H108c4.432 0 8 3.568 8 8v84c0 4.432-3.568 8-8 8H20c-4.432 0-8-3.568-8-8v-84c0-4.432 3.568-8 8-8z" fill="#c0bfbc"/><g clip-path="url(#i)"><path d="M48 252h34v32H48z" fill="#deddda"/><path d="M48 248h34v33l-1.094-1H48zM48 216h34v32H48zM48 185l1-1h32l1 1v31H48z" fill="#f6f5f4"/><path d="M82 252h34v32H82z" fill="url(#j)" style="font-variant-east_asian:normal"/><path d="M82 248h34v24c0 4-3.982 8-8 8H82.969L82 281zM82 216h34v32H82zM82 185l.992-1H116v32H82z" fill="#f6f5f4"/><path d="M116 196.031A38.218 38.218 0 0 0 97.686 216h6.521A32.03 32.03 0 0 1 116 202.875z" fill="#1a5fb4"/><path d="M12 220h36v32H12z" fill="#9a9996"/><path d="m12 216h36v32h-36zm0-32h35l1 1v31h-36z" fill="#f6f5f4"/><path d="M48 227.125v6.625a32.025 32.025 0 0 1 13.793 14.281h6.521A38.213 38.213 0 0 0 48 227.125zM100.063 228c-6.491 0-12.624 1.458-18.063 4.031v6.844c5.23-3.086 11.418-4.875 18.063-4.875 5.765 0 11.186 1.348 15.937 3.719v-6.625A42.292 42.292 0 0 0 100.062 228zM48 199.125v6.844C53.44 208.542 59.572 210 66.063 210A42.292 42.292 0 0 0 82 206.906v-6.625C77.249 202.651 71.828 204 66.062 204c-6.644 0-12.832-1.789-18.062-4.875zM98.547 248.016A38.239 38.239 0 0 0 116 265.984v-6.843a32.038 32.038 0 0 1-10.725-11.125z" fill="#1a5fb4"/><path d="M116 215v1H12v-1z" fill-opacity=".081"/><path d="M26.468 216a34.077 34.077 0 0 1 3.42 14.933A34.03 34.03 0 0 1 25.329 248h7.177a40.274 40.274 0 0 0 3.784-17.067A40.293 40.293 0 0 0 33.424 216zM64.384 248a40.293 40.293 0 0 0-2.864 14.933A40.274 40.274 0 0 0 65.303 280h7.177a34.029 34.029 0 0 1-4.56-17.067c0-5.36 1.23-10.425 3.42-14.933z" fill="#1a5fb4"/><path d="m48 185 1-1v96h-1z" fill="#fff" fill-opacity=".555"/><path d="m47 184 1 1v63h-1z" fill-opacity=".081"/><path d="m82 185 1-1v96l-1 1z" fill="#fff" fill-opacity=".555"/><path d="m81 184 1 1v96l-1-1z" fill-opacity=".081"/><path d="m116 216v1h-104v-1zm0 32v1h-68v-1z" fill="#fff" fill-opacity=".555"/><path d="M116 247v1H12v-1z" fill-opacity=".081"/></g></g></svg>
