<?xml version="1.0" encoding="UTF-8"?>
<svg id="x" version="1.0" viewBox="0 0 48 48" xmlns="http://www.w3.org/2000/svg" xmlns:xlink="http://www.w3.org/1999/xlink"><defs id="y"><radialGradient id="a" cx="605.71" cy="486.65" r="117.14" gradientTransform="matrix(-2.7744 0 0 1.9697 112.76 -872.89)" gradientUnits="userSpaceOnUse" xlink:href="#h"/><linearGradient id="h"><stop id="z" offset="0"/><stop id="aa" stop-opacity="0" offset="1"/></linearGradient><radialGradient id="b" cx="605.71" cy="486.65" r="117.14" gradientTransform="matrix(2.7744 0 0 1.9697 -1891.6 -872.89)" gradientUnits="userSpaceOnUse" xlink:href="#h"/><linearGradient id="l"><stop id="ab" stop-opacity="0" offset="0"/><stop id="ac" offset=".5"/><stop id="ad" stop-opacity="0" offset="1"/></linearGradient><linearGradient id="c" x1="302.86" x2="302.86" y1="366.65" y2="609.51" gradientTransform="matrix(2.7744 0 0 1.9697 -1892.2 -872.89)" gradientUnits="userSpaceOnUse" xlink:href="#l"/><linearGradient id="m"><stop id="ae" stop-color="#729fcf" offset="0"/><stop id="af" stop-color="#3465a4" offset="1"/></linearGradient><linearGradient id="d"><stop id="ag" stop-color="#eeeeec" offset="0"/><stop id="ah" stop-color="#eeeeec" stop-opacity="0" offset="1"/></linearGradient><linearGradient id="k"><stop id="ai" stop-color="#edd400" stop-opacity=".74902" offset="0"/><stop id="aj" stop-color="#fce94f" offset="1"/></linearGradient><linearGradient id="e"><stop id="ak" stop-color="#8f5902" offset="0"/><stop id="al" stop-color="#c4a000" offset="1"/></linearGradient><linearGradient id="f"><stop id="am" stop-color="#edd400" offset="0"/><stop id="an" stop-color="#edd400" stop-opacity="0" offset="1"/></linearGradient><linearGradient id="g"><stop id="ao" stop-color="#fce94f" offset="0"/><stop id="ap" stop-color="#edd400" offset="1"/></linearGradient><linearGradient id="w" x1="6.9703" x2="22.796" y1="6.9674" y2="22.525" gradientTransform="translate(16.22 -1.0541)" gradientUnits="userSpaceOnUse" xlink:href="#g"/><linearGradient id="v" x1="14.465" x2="3.9359" y1="18.273" y2="3.8581" gradientTransform="translate(17.088 9.5398e-7)" gradientUnits="userSpaceOnUse" xlink:href="#e"/><linearGradient id="u" x1="2.9645" x2="23.006" y1="3.0669" y2="21.525" gradientTransform="translate(17.088 9.5398e-7)" gradientUnits="userSpaceOnUse" xlink:href="#d"/><linearGradient id="t" x1="8.7978" x2="15.938" y1="8.152" y2="15.207" gradientTransform="translate(17.088 9.5398e-7)" gradientUnits="userSpaceOnUse" xlink:href="#k"/><linearGradient id="s" x1="2.3223" x2="14.568" y1="1.6343" y2="13.102" gradientTransform="translate(22.05 5.002)" gradientUnits="userSpaceOnUse" xlink:href="#f"/><linearGradient id="r" x1="6.9703" x2="22.796" y1="6.9674" y2="22.525" gradientTransform="translate(7.0926 22.95)" gradientUnits="userSpaceOnUse" xlink:href="#g"/><linearGradient id="q" x1="14.465" x2="3.9359" y1="18.273" y2="3.8581" gradientTransform="translate(7.9604 24.004)" gradientUnits="userSpaceOnUse" xlink:href="#e"/><linearGradient id="p" x1="2.9645" x2="23.006" y1="3.0669" y2="21.525" gradientTransform="translate(7.9604 24.004)" gradientUnits="userSpaceOnUse" xlink:href="#d"/><linearGradient id="o" x1="8.7978" x2="15.938" y1="8.152" y2="15.207" gradientTransform="translate(7.9604 24.004)" gradientUnits="userSpaceOnUse" xlink:href="#k"/><linearGradient id="n" x1="2.3223" x2="14.568" y1="1.6343" y2="13.102" gradientTransform="translate(12.923 29.006)" gradientUnits="userSpaceOnUse" xlink:href="#f"/><linearGradient id="j" x1="12.824" x2="15.69" y1="31.155" y2="40.135" gradientTransform="translate(23.097)" gradientUnits="userSpaceOnUse" xlink:href="#m"/><linearGradient id="i" x1="9.1652" x2="17.574" y1="29.491" y2="38.916" gradientTransform="translate(23.097)" gradientUnits="userSpaceOnUse" xlink:href="#d"/></defs><g id="aq"><g id="ar" transform="matrix(0 .0055961 -.025135 0 16.236 19.296)"><rect id="as" x="-1559.3" y="-150.7" width="1339.6" height="478.36" color="black" fill="url(#c)" opacity=".40206"/><path id="at" d="m-219.62-150.68v478.33c142.87 0.90045 345.4-107.17 345.4-239.2 0-132.03-159.44-239.13-345.4-239.13z" color="black" fill="url(#b)" opacity=".40206"/><path id="au" d="m-1559.3-150.68v478.33c-142.87 0.90045-345.4-107.17-345.4-239.2 0-132.03 159.44-239.13 345.4-239.13z" color="black" fill="url(#a)" opacity=".40206"/></g><g id="av" transform="matrix(.0055961 0 0 .025135 42.064 34.788)"><rect id="aw" x="-1559.3" y="-150.7" width="1339.6" height="478.36" color="black" fill="url(#c)" opacity=".40206"/><path id="ax" d="m-219.62-150.68v478.33c142.87 0.90045 345.4-107.17 345.4-239.2 0-132.03-159.44-239.13-345.4-239.13z" color="black" fill="url(#b)" opacity=".40206"/><path id="ay" d="m-1559.3-150.68v478.33c-142.87 0.90045-345.4-107.17-345.4-239.2 0-132.03 159.44-239.13 345.4-239.13z" color="black" fill="url(#a)" opacity=".40206"/></g><g id="az" transform="matrix(.012313 0 0 .048081 46.451 10.246)"><rect id="ba" x="-1559.3" y="-150.7" width="1339.6" height="478.36" color="black" fill="url(#c)" opacity=".40206"/><path id="bb" d="m-219.62-150.68v478.33c142.87 0.90045 345.4-107.17 345.4-239.2 0-132.03-159.44-239.13-345.4-239.13z" color="black" fill="url(#b)" opacity=".40206"/><path id="bc" d="m-1559.3-150.68v478.33c-142.87 0.90045-345.4-107.17-345.4-239.2 0-132.03 159.44-239.13 345.4-239.13z" color="black" fill="url(#a)" opacity=".40206"/></g><g id="bd" transform="matrix(.012313 0 0 .048081 24.451 32.246)"><rect id="be" x="-1559.3" y="-150.7" width="1339.6" height="478.36" color="black" fill="url(#c)" opacity=".40206"/><path id="bf" d="m-219.62-150.68v478.33c142.87 0.90045 345.4-107.17 345.4-239.2 0-132.03-159.44-239.13-345.4-239.13z" color="black" fill="url(#b)" opacity=".40206"/><path id="bg" d="m-1559.3-150.68v478.33c-142.87 0.90045-345.4-107.17-345.4-239.2 0-132.03 159.44-239.13 345.4-239.13z" color="black" fill="url(#a)" opacity=".40206"/></g><g id="bh" transform="translate(-6.8727)"><rect id="bi" x="8.5" y="24.504" width="21.873" height="21.996" fill="url(#r)" stroke="url(#q)"/><rect id="bj" x="9.4982" y="25.496" width="19.874" height="19.95" fill="none" stroke="url(#p)"/><rect id="bk" x="14.46" y="30.498" width="10.033" height="10.128" fill="url(#o)" stroke="url(#n)"/></g><g id="bl" transform="translate(6.8727 1.004)"><rect id="bm" x="17.627" y=".5" width="21.873" height="21.996" fill="url(#w)" stroke="url(#v)"/><rect id="bn" x="18.625" y="1.492" width="19.874" height="19.95" fill="none" stroke="url(#u)"/><rect id="bo" x="23.588" y="6.494" width="10.033" height="10.128" fill="url(#t)" stroke="url(#s)"/></g><g id="bp" transform="translate(-2)" stroke-linecap="round"><rect id="bq" x="32.652" y="30.554" width="9.8484" height="9.8484" rx="1.5522" ry="1.5522" fill="url(#j)" stroke="#204a87"/><rect id="br" x="33.539" y="31.552" width="7.9636" height="7.8527" rx=".77611" ry=".77611" fill="none" stroke="url(#i)"/></g><g id="bs" transform="translate(-25.152 -22.903)" stroke-linecap="round"><rect id="bt" x="32.652" y="30.554" width="9.8484" height="9.8484" rx="1.5522" ry="1.5522" fill="url(#j)" stroke="#204a87"/><rect id="bu" x="33.539" y="31.552" width="7.9636" height="7.8527" rx=".77611" ry=".77611" fill="none" stroke="url(#i)"/></g></g></svg>
