<?xml version="1.0" encoding="UTF-8"?>
<svg id="a" version="1.1" viewBox="0 0 16 16" xmlns="http://www.w3.org/2000/svg" xmlns:xlink="http://www.w3.org/1999/xlink"><g id="b" transform="translate(0 -.009)"><rect id="c" y="3.009" width="16" height="11" rx="1.2" ry="1.5" enable-background="new" fill="#d2d8dc" style="paint-order:normal"/><rect id="d" x="1" y="4.009" width="14" height="9" rx="1.05" ry="1.2273" enable-background="new" fill="#f1f3f5" style="paint-order:normal"/><rect id="e" x="4" y="11.009" width="6" height="1" rx=".125" ry=".125" enable-background="new" fill="#758087" style="paint-order:normal"/><rect id="f" x="2" y="11.009" width="1" height="1" rx=".125" ry=".125" enable-background="new" fill="#758087" style="paint-order:normal"/><rect id="g" x="13" y="11.009" width="1" height="1" rx=".125" ry=".125" enable-background="new" fill="#758087" style="paint-order:normal"/><rect id="h" x="11" y="11.009" width="1" height="1" rx=".125" ry=".125" enable-background="new" fill="#758087" style="paint-order:normal"/><rect id="i" x="2" y="9.009" width="1" height="1" rx=".125" ry=".125" enable-background="new" fill="#758087" style="paint-order:normal"/><rect id="j" x="4" y="9.009" width="1" height="1" rx=".125" ry=".125" enable-background="new" fill="#758087" style="paint-order:normal"/><rect id="k" x="6" y="9.009" width="1" height="1" rx=".125" ry=".125" enable-background="new" fill="#758087" style="paint-order:normal"/><rect id="l" x="8" y="9.009" width="1" height="1" rx=".125" ry=".125" enable-background="new" fill="#758087" style="paint-order:normal"/><rect id="m" x="10" y="9.009" width="1" height="1" rx=".125" ry=".125" enable-background="new" fill="#758087" style="paint-order:normal"/><rect id="n" x="12" y="9.009" width="2" height="1" rx=".21296" ry=".21296" enable-background="new" fill="#758087" style="paint-order:normal"/><rect id="o" x="2" y="7.009" width="2" height="1" rx=".21296" ry=".21296" enable-background="new" fill="#758087" style="paint-order:normal"/><rect id="p" x="12" y="5.009" width="2" height="1" rx=".21296" ry=".21296" enable-background="new" fill="#758087" style="paint-order:normal"/><rect id="q" x="5" y="7.009" width="1" height="1" rx=".125" ry=".125" enable-background="new" fill="#758087" style="paint-order:normal"/><rect id="r" x="7" y="7.009" width="1" height="1" rx=".125" ry=".125" enable-background="new" fill="#758087" style="paint-order:normal"/><rect id="s" x="9" y="7.009" width="1" height="1" rx=".125" ry=".125" enable-background="new" fill="#758087" style="paint-order:normal"/><rect id="t" x="11" y="7.009" width="1" height="1" rx=".125" ry=".125" enable-background="new" fill="#758087" style="paint-order:normal"/><rect id="u" transform="rotate(90)" x="5.009" y="-14" width="3" height="1" rx=".18261" ry=".18261" enable-background="new" fill="#758087" style="paint-order:normal"/><rect id="v" x="2" y="5.009" width="1" height="1" rx=".125" ry=".125" enable-background="new" fill="#758087" style="paint-order:normal"/><rect id="w" x="4" y="5.009" width="1" height="1" rx=".125" ry=".125" enable-background="new" fill="#758087" style="paint-order:normal"/><rect id="x" x="6" y="5.009" width="1" height="1" rx=".125" ry=".125" enable-background="new" fill="#758087" style="paint-order:normal"/><rect id="y" x="8" y="5.009" width="1" height="1" rx=".125" ry=".125" enable-background="new" fill="#758087" style="paint-order:normal"/><rect id="z" x="10" y="5.009" width="1" height="1" rx=".125" ry=".125" enable-background="new" fill="#758087" style="paint-order:normal"/></g></svg>
