<?xml version="1.0" encoding="UTF-8"?>
<svg viewBox="0 0 48 48" xmlns="http://www.w3.org/2000/svg" xmlns:xlink="http://www.w3.org/1999/xlink"><defs><linearGradient id="a" x2="0" y1="543.8" y2="503.8" gradientTransform="matrix(1.125 0 0 .85-51.07 79.57)" gradientUnits="userSpaceOnUse"><stop stop-color="#c6cdd1" offset="0"/><stop stop-color="#e0e5e7" offset="1"/></linearGradient><linearGradient id="b" x1="390.57" x2="418.57" y1="507.8" y2="535.8" gradientUnits="userSpaceOnUse"><stop offset="0"/><stop stop-opacity="0" offset="1"/></linearGradient><linearGradient id="c" x2="0" y1="507.8" y2="503.8" gradientUnits="userSpaceOnUse"><stop stop-color="#2f3943" offset="0"/><stop stop-color="#4d5662" offset="1"/></linearGradient><linearGradient id="d" x1="43" x2="8" y1="46" y2="37" gradientUnits="userSpaceOnUse" xlink:href="#a"/><linearGradient id="e" x2="0" y1="509.8" y2="537.8" gradientUnits="userSpaceOnUse"><stop stop-color="#2e5d89" offset="0"/><stop stop-color="#1b92f4" offset="1"/></linearGradient><linearGradient id="f" x1="3" x2="-1" gradientTransform="matrix(0 1-1 0 422.57 539.8)" gradientUnits="userSpaceOnUse" xlink:href="#c"/><linearGradient id="g" x2="0" y1="-521.8" y2="-518.8" gradientUnits="userSpaceOnUse"><stop stop-color="#84cbfe" offset="0"/><stop stop-color="#84cbfe" stop-opacity="0" offset="1"/></linearGradient><linearGradient id="h" x2="0" y1="-521.8" y2="-518.8" gradientTransform="translate(0 1044.6)" gradientUnits="userSpaceOnUse" xlink:href="#g"/><linearGradient id="i" x2="0" y1="505.8" y2="509.8" gradientUnits="userSpaceOnUse"><stop stop-color="#18222a" offset="0"/><stop stop-color="#566069" offset="1"/></linearGradient><linearGradient id="j" x2="0" y1="509.8" y2="537.8" gradientTransform="matrix(1.0625 0 0 1.07143-25.536-37.414)" gradientUnits="userSpaceOnUse" xlink:href="#a"/></defs><g transform="translate(-384.57-499.8)"><rect x="390.57" y="507.8" width="36" height="34" rx="0" fill="url(#a)"/><rect x="391.57" y="508.8" width="34" height="30" fill="url(#j)" stroke-linecap="round" stroke-linejoin="bevel" stroke-width="6.2"/><path transform="translate(384.57 499.8)" d="m6 40v1.949c0 1.136.915 2.051 2.051 2.051h31.898c1.136 0 2.051-.915 2.051-2.051v-1.949z" fill="url(#d)"/><rect x="392.57" y="509.8" width="32" height="28" fill="url(#e)" stroke-linecap="round" stroke-linejoin="bevel" stroke-width="6.2"/><path d="m390.57 507.8v-1.949c0-1.136.915-2.051 2.051-2.051h31.898c1.136 0 2.051.915 2.051 2.051v1.949z" fill="url(#c)"/><g stroke-linecap="round" stroke-linejoin="bevel" stroke-width="6.2"><rect x="392.57" y="521.8" width="32" height="1" fill="#84cbfe"/><rect x="392.57" y="522.8" width="32" height="3" fill="url(#h)" opacity=".2"/><rect transform="scale(1-1)" x="392.57" y="-521.8" width="32" height="3" fill="url(#g)" opacity=".2"/><rect x="393.57" y="515.8" width="17" height="21" fill="#eff0f1"/></g><path d="m390.57 507.8 32 32h4v-32z" fill="url(#b)" fill-rule="evenodd" opacity=".2"/><g stroke-linejoin="round" stroke-width="2"><path d="m422.57 539.8h-28v1c0 1.108.892 2 2 2h24c1.108 0 2-.892 2-2z" fill="url(#f)"/><circle transform="matrix(0-1-1 0 0 0)" cx="-541.3" cy="-420.07" r=".5" fill="#11d116" stroke-linecap="round"/></g><rect x="390.57" y="505.8" width="36" height="2" fill="url(#i)" stroke-linecap="round" stroke-linejoin="bevel" stroke-width="6.2"/></g></svg>
