<?xml version="1.0" encoding="UTF-8"?>
<svg id="a" enable-background="new" version="1.0" viewBox="0 0 16 16" xmlns="http://www.w3.org/2000/svg"><title id="b">Adwaita Icon Template</title><g id="c" transform="matrix(5 0 0 5 -2535.6 -1750)" enable-background="new"><rect id="d" x="533.51" y="337.2" width="8" height="7.8" rx=".90001" ry=".90001" enable-background="new" fill="#006888" style="paint-order:normal"/><rect id="e" x="507.21" y="350.1" width="3" height="3" rx=".33751" ry=".34616" enable-background="new" fill="#00aade" stroke="#00aade" stroke-linejoin="miter" stroke-miterlimit="4" stroke-width=".19995" style="paint-order:normal"/><g id="f" transform="matrix(.034483 0 0 .037968 506.5 352.21)" enable-background="new" stroke-width="2.4582"><path id="g" d="m31.204-31.484c-2.5648 0.03595-3.8208 3.1376-2.0045 4.9489 5.0742 2.7157 18.651 4.0494 23.2 5.2676l-5.795 39.233c-0.0046 2.5871 3.1218 3.8814 4.9489 2.0498 1.322-1.3278 2.3229-3.053 3.7145-5.4245 1.3974-2.3715 2.9441-5.2131 4.4053-7.9499 2.3135-4.3313 3.561-10.586 4.3264-12.105 0.77116 1.5249 2.0122 7.7742 4.3256 12.105 1.4134 2.6802 2.8812 5.3311 4.4053 7.9499 1.3916 2.3715 2.3925 4.0967 3.7145 5.4245 1.8274 1.8217 4.9483 0.53058 4.9489-2.0498l-5.7943-39.233c6.0401-0.6671 18.981-3.7252 23.2-5.2676 1.9114-1.9094 0.40477-5.1625-2.2876-4.9375 0 0-24.14-0.33007-32.513-0.33007-8.3784 0-32.512 0.33007-32.512 0.33007-0.09277-0.0116-0.19036-0.0116-0.28313-0.0116z" fill="#fbfbfb" stroke-width="2.4582"/><ellipse id="h" cx="64" cy="-42.338" rx="11.6" ry="10.535" fill="#fff" fill-rule="nonzero"/></g><rect id="i" x="518.51" y="343.6" width="7.8" height="7.6" rx=".87751" ry=".87693" enable-background="new" fill="none" opacity=".423" stroke="#006888" stroke-linejoin="miter" stroke-miterlimit="4" stroke-width=".2" style="paint-order:normal"/><rect id="j" x="461.81" y="361.1" width="3" height="3" rx=".33751" ry=".34616" enable-background="new" fill="#00aade" stroke="#006888" stroke-linejoin="miter" stroke-miterlimit="4" stroke-width=".19995" style="paint-order:normal"/><g id="k" transform="matrix(.034483 0 0 .037968 461.1 363.21)" enable-background="new" stroke-width="2.4582"><path id="l" d="m37.862-31.612c-2.5648 0.03595-3.8208 3.1376-2.0045 4.9489 5.0742 2.7157 11.993 4.1773 16.542 5.3954-0.28411 10.883-0.48103 23.608-2.0465 28.78-0.86973 2.8585-1.723 4.9475-2.3782 6.455l-0.8267 1.9025c-0.22613 0.53344-0.54358 0.70349-0.54358 2.0951-0.0046 2.5871 3.1218 3.8814 4.9489 2.0498 1.322-1.3278 2.3229-3.053 3.7145-5.4245 1.3974-2.3715 2.9441-5.2131 4.4053-7.9499 2.3135-4.3313 3.561-10.586 4.3264-12.105 0.77116 1.5249 2.0122 7.7742 4.3256 12.105 1.4134 2.6802 2.8812 5.3311 4.4053 7.9499 1.3916 2.3715 2.3925 4.0967 3.7145 5.4245 1.8274 1.8217 4.9483 0.53058 4.9489-2.0498 0-1.3916-0.31745-1.5616-0.54358-2.0951-0.22614-0.53923-0.49622-1.1374-0.8267-1.8912-0.6552-1.5075-1.5084-3.6023-2.3782-6.455-1.5655-5.1778-1.7559-17.908-2.0458-28.792 6.0401-0.6671 12.322-3.853 16.541-5.3954 1.9114-1.9094 0.40477-5.1625-2.2876-4.9375 0 0-17.482-0.20224-25.854-0.20224-8.3784 0-25.854 0.20224-25.854 0.20224-0.09277-0.0116-0.19036-0.0116-0.28313-0.0116z" fill="#fbfbfb" stroke-width="2.4582"/><ellipse id="m" cx="64" cy="-42.338" rx="11.6" ry="10.535" fill="#fff" fill-rule="nonzero"/></g><rect id="n" x="507.21" y="350.1" width="3" height="3" rx=".33751" ry=".34616" enable-background="new" fill="none" opacity=".501" stroke="#006888" stroke-linejoin="miter" stroke-miterlimit="4" stroke-width=".19995" style="paint-order:normal"/></g></svg>
