<?xml version="1.0" encoding="UTF-8"?>
<svg id="b" enable-background="new" version="1.0" viewBox="0 0 128 128" xmlns="http://www.w3.org/2000/svg" xmlns:xlink="http://www.w3.org/1999/xlink"><title id="c">Adwaita Icon Template</title><defs id="d"><radialGradient id="a" cx="64" cy="64" r="61.996" gradientTransform="matrix(1.124 0 0 1.124 -7.9348 -7.9348)" gradientUnits="userSpaceOnUse"><stop id="e" stop-color="#ef4c53" offset="0"/><stop id="f" stop-color="#e01b24" offset="1"/></radialGradient></defs><g id="g" transform="translate(0,-172)"></g><g id="h"><path id="i" d="m106.43 106.43c-6.517 6.517-13.433 3.4872-21.947 7.0142s-11.263 10.559-20.479 10.559-11.964-7.0325-20.479-10.559-15.43-0.49718-21.947-7.0142c-6.517-6.517-3.4872-13.433-7.0142-21.947-3.527-8.5149-10.559-11.263-10.559-20.479-1e-7 -9.2164 7.0325-11.964 10.559-20.479 3.527-8.5149 0.49718-15.43 7.0142-21.947s13.433-3.4872 21.947-7.0142c8.5149-3.527 11.263-10.559 20.479-10.559 9.2164-1e-7 11.964 7.0325 20.479 10.559 8.5149 3.527 15.43 0.49718 21.947 7.0142 6.517 6.517 3.4872 13.433 7.0142 21.947s10.559 11.263 10.559 20.479c0 9.2164-7.0325 11.964-10.559 20.479s-0.49718 15.43-7.0142 21.947z" fill="url(#a)"/><circle id="j" cx="64" cy="62" r="37" fill="none" stroke="#8a1826" stroke-linecap="round" stroke-linejoin="round" stroke-width="6"/><circle id="k" cx="64.092" cy="65.997" r="36.997" fill="none" stroke="#c01c28" stroke-linecap="round" stroke-linejoin="round" stroke-width="6"/><g id="l" transform="translate(0,-4)"><g id="m" transform="translate(-11.908)"><circle id="n" transform="translate(0 2.9972)" cx="76" cy="55.001" r="10.001" enable-background="new" fill="#8a1826"/><path id="o" d="m72 64h8v24h-8z" fill="#c01c28"/><circle id="p" cx="76" cy="61.999" r="10.001" fill="#c01c28"/></g></g><path id="q" d="m4.1328 62c-0.077964 0.63622-0.13281 1.2932-0.13281 2 4e-7 9.2164 7.0316 11.964 10.559 20.479 3.527 8.5149 0.49864 15.43 7.0156 21.947 6.517 6.517 13.432 3.4887 21.947 7.0156 8.5149 3.527 11.262 10.559 20.479 10.559 9.2164 0 11.964-7.0316 20.479-10.559 8.5149-3.527 15.43-0.49864 21.947-7.0156 6.517-6.517 3.4887-13.432 7.0156-21.947 3.527-8.5149 10.559-11.262 10.559-20.479 0-0.70679-0.05485-1.3638-0.13281-2-0.93867 7.66-7.1693 10.617-10.426 18.479-3.527 8.5149-0.49864 15.43-7.0156 21.947-6.517 6.517-13.432 3.4887-21.947 7.0156-8.5149 3.527-11.262 10.559-20.479 10.559-9.2164 0-11.964-7.0316-20.479-10.559-8.5149-3.527-15.43-0.49864-21.947-7.0156-6.517-6.517-3.4887-13.432-7.0156-21.947-3.2565-7.8619-9.4871-10.819-10.426-18.479z" fill="#c01c28"/></g></svg>
