<?xml version="1.0" encoding="UTF-8"?>
<svg id="g" version="1.1" viewBox="0 0 16 16" xmlns="http://www.w3.org/2000/svg" xmlns:xlink="http://www.w3.org/1999/xlink"><defs id="h"><linearGradient id="a"><stop id="i" stop-color="#f1f3f5" offset="0"/><stop id="j" stop-color="#d2d8dc" offset="1"/></linearGradient><linearGradient id="c" x1="62" x2="64.875" y1="-98.491" y2="2.259" gradientUnits="userSpaceOnUse" xlink:href="#a"/><linearGradient id="b" x1="64.346" x2="64.346" y1="-112.02" y2="128.87" gradientTransform="translate(-197 1)" gradientUnits="userSpaceOnUse" xlink:href="#a"/><linearGradient id="e" x1="62" x2="64.875" y1="-98.491" y2="2.259" gradientTransform="matrix(-1,0,0,1,-69,-4e-7)" gradientUnits="userSpaceOnUse" xlink:href="#a"/><linearGradient id="d" x1="62" x2="64.875" y1="-98.491" y2="2.259" gradientTransform="translate(-197)" gradientUnits="userSpaceOnUse" xlink:href="#a"/><filter id="f" x="-.01575" y="-.0096923" width="1.0315" height="1.0194" color-interpolation-filters="sRGB"><feGaussianBlur id="k" stdDeviation="0.42"/></filter></defs><g id="l" transform="translate(0 -.009)" fill="#2e3436"><g id="m" transform="translate(-76.25,-18.875)"><g id="n" fill="#f1f3f5"><g id="o" transform="translate(76.25,18.875)" fill="url(#c)"><g id="p"><rect id="q" x="-137" y="-98.991" width="8" height="35" fill="#a7b0b7"/><g id="r" transform="translate(-289,29)" fill="#070c0f" filter="url(#f)" opacity=".4"><path id="s" d="m124-93.991v29.904c0 24.02 14.078 40.096 32 40.096 17.913 0 32-16.076 32-40.096v-30.072c-21.333 0.13102-42.667 0.16858-64 0.16858z" stroke-width="10.009"/><path id="t" d="m154-127.99h-14c-11 0-16 7.0195-16 16v19h31v-35"/><path id="u" d="m158-127.99h14c11 0 16 7.0195 16 16v19h-31v-35"/></g><path id="v" d="m-135-99.991h-14c-11 0-16 7.0195-16 16v19h31v-35" fill="url(#d)"/><path id="w" d="m-131-99.991h14c11 0 16 7.0195 16 16v19h-31v-35" fill="url(#e)"/><path id="x" d="m-165-64.991v29.904c0 24.02 14.078 40.096 32 40.096 17.913 0 32-16.076 32-40.096v-30.072c-21.333 0.13102-42.667 0.16858-64 0.16858z" fill="#a7b0b7" stroke-width="10.009"/><path id="y" d="m-165-59.84v26.849c0 21.566 14.078 36 32 36 17.913 0 32-14.434 32-36v-27c-21.333 0.11763-42.667 0.15136-64 0.15136z" fill="url(#b)" stroke-width="9.484"/><g id="z" transform="matrix(.8 0 0 .76923 -221.76 -1.9533)" fill="#a7b0b7"><rect id="aa" x="105.95" y="-117.05" width="10" height="26" ry="3.25" fill="#a7b0b7"/></g><rect id="ab" x="-136" y="-90.324" width="6" height="16.667" ry="2.6515" fill="#485e6b"/><path id="ac" d="m12.506 6.4983v-3.6659c0-2.0571-1.9822-2.3291-4.5056-2.3291-2.5221 0-4.5056 0.27193-4.5056 2.3291v3.6803c3.0037-0.0112 6.0075-0.0144 9.0112-0.0144z" fill="#f1f3f5" stroke="#d2d8dc" stroke-miterlimit="4" stroke-width=".98878"/><path id="ad" d="m3.5094 6.5428v3.8263c0 3.0735 1.9756 5.1305 4.4906 5.1305 2.5137 0 4.4906-2.057 4.4906-5.1305v-3.8479c-2.9937 0.0168-5.9874 0.0216-8.9812 0.0216z" fill="#f1f3f5" stroke="#d2d8dc" stroke-miterlimit="4" stroke-width="1.0188"/><path id="ae" d="m8 0.0090002v6.5625" fill="#485e6b" stroke="#d2d8dc" stroke-linejoin="miter" stroke-width="1.0862px"/><g id="af" transform="matrix(.2 0 0 .15385 -14.19 20.017)" fill="#758087"><rect id="ag" x="105.95" y="-117.05" width="10" height="26" ry="3.25" fill="#758087"/></g></g></g></g></g></g></svg>
