<?xml version="1.0" encoding="UTF-8"?>
<svg viewBox="0 0 128 128" xmlns="http://www.w3.org/2000/svg"><defs><linearGradient id="a" x2="118.93" y1="269.46" y2="269.46" gradientTransform="translate(0 -172)" gradientUnits="userSpaceOnUse"><stop stop-color="#e5a50a" offset="0"/><stop stop-color="#fbdf9b" offset=".414"/><stop stop-color="#e5a50a" offset=".813"/><stop stop-color="#f8ca5b" offset="1"/></linearGradient></defs><path d="M124 66c0 33.137-26.863 60-60 60S4 99.137 4 66 30.863 6 64 6s60 26.863 60 60zm0 0" fill="url(#a)"/><path d="M124 63c0 32.586-26.863 59-60 59S4 95.586 4 63 30.863 4 64 4s60 26.414 60 59zm0 0" fill="#f8e45c"/><path d="M52.785 24.977a9.317 9.317 0 000 18.632 9.317 9.317 0 000-18.632zm-5.543 22.277c-.988 0-1.937.39-2.637 1.09L28.25 65.19c-3.656 3.512 1.758 8.926 5.27 5.27l10.933-10.934-.937 1.09v36.196c-.07 5.039 7.464 5.039 7.394 0V78.867c0-2.906 3.738-2.906 3.738 0v17.945c-.07 5.04 7.485 5.04 7.414 0v-27.78l3.567 7.624c2.02 4.531 8.82 1.508 6.812-3.027L61.535 49.465a3.729 3.729 0 00-3.406-2.211zm0 0M84.848 61.16a7.46 7.46 0 017.46 7.461 7.464 7.464 0 01-14.926 0 7.464 7.464 0 017.466-7.46zm0 0" fill="#3d3846"/><path d="M71.707 75.426c-3.078-.059-3.953 4.183-1.105 5.351l7.18 2.84V97.91c-.052 3.762 5.613 3.762 5.562 0v-3.969c0-1.804 2.832-1.726 2.832 0v3.797c-.051 3.758 5.492 3.758 5.437 0v-8.156l1.207 2.09c1.852 3.21 6.668.43 4.813-2.781l-5.29-9.164a2.792 2.792 0 00-2.41-1.391H79.57l-6.785-2.672a2.708 2.708 0 00-1.078-.238zm0 0" fill="#3d3846"/><path d="m64 6.95c-31.48 0-57 25.092-57 56.05 0 30.957 25.52 56.05 57 56.05s57-25.092 57-56.05c0-30.957-25.52-56.05-57-56.05zm0 3.706c29.398 0 53.23 23.434 53.23 52.344s-23.832 52.344-53.23 52.344-53.23-23.434-53.23-52.344 23.832-52.344 53.23-52.344z" fill="#3d3846"/></svg>
