<?xml version="1.0" encoding="UTF-8"?>
<svg id="a" enable-background="new" version="1.0" viewBox="0 0 16 16" xmlns="http://www.w3.org/2000/svg"><title id="b">Adwaita Icon Template</title><path id="c" d="m8.0037 0.19511c0.52669 0 2.2247 4.4554 2.6508 4.7806 0.4261 0.3252 4.9848 0.64472 5.1476 1.1709 0.16276 0.52616-3.3465 3.5993-3.5093 4.1254-0.16276 0.52616 0.95665 5.179 0.53056 5.5042-0.4261 0.3252-4.293-2.2309-4.8197-2.2309-0.52669 0-4.3936 2.5561-4.8197 2.2309-0.4261-0.3252 0.69331-4.9781 0.53056-5.5042-0.16276-0.52616-3.672-3.5993-3.5093-4.1254 0.16276-0.52616 4.7215-0.84569 5.1476-1.1709 0.4261-0.32519 2.1241-4.7806 2.6508-4.7806z" fill="#f9da02" fill-rule="nonzero" stroke="#ad7702" stroke-linejoin="round" stroke-miterlimit="4" stroke-width=".39022"/></svg>
