<?xml version="1.0" encoding="UTF-8"?>
<svg id="c" enable-background="new" version="1.0" viewBox="0 0 128 128" xmlns="http://www.w3.org/2000/svg" xmlns:xlink="http://www.w3.org/1999/xlink"><title id="d">Adwaita Icon Template</title><defs id="e"><linearGradient id="a" x1="344" x2="340" y1="76" y2="72" gradientTransform="matrix(.25 0 0 .25 180 83)" gradientUnits="userSpaceOnUse"><stop id="f" stop-color="#d5d3cf" offset="0"/><stop id="g" stop-color="#fff" offset="1"/></linearGradient><clipPath id="b"><path id="h" d="m252 116 28-28v-8h-36v36z" fill="#e74747"/></clipPath><linearGradient id="i" x1="256" x2="256" y1="268" y2="-180" gradientUnits="userSpaceOnUse"><stop id="j" stop-color="#eeeeec" offset="0"/><stop id="k" stop-color="#fff" offset="1"/></linearGradient></defs><g id="l" transform="translate(0,-172)"><g id="m" display="none"><rect id="n" x="9.2651e-8" y="172" width="128" height="128" display="inline" enable-background="accumulate" fill="#f0f0f0"/><rect id="o" x="160" y="172" width="16" height="16" display="inline" enable-background="accumulate" fill="#f0f0f0"/><text id="p" y="164" display="inline" enable-background="new" fill="#000000" font-family="Cantarell" font-size="4px" font-weight="bold" stroke-width=".33265" style="line-height:125%" xml:space="preserve"><tspan id="q" x="0" y="164" font-size="4px" stroke-width=".33265">Hicolor</tspan></text><text id="r" x="160" y="164" display="inline" enable-background="new" fill="#000000" font-family="Cantarell" font-size="4px" font-weight="bold" stroke-width=".33265" style="line-height:125%" xml:space="preserve"><tspan id="s" x="160" y="164" font-size="4px" stroke-width=".33265">Symbolic</tspan></text></g><g id="t" display="none" fill="none"><circle id="u" cx="64" cy="236" r="59.504" display="inline" enable-background="new" opacity=".1" stroke="#000" stroke-dasharray="0.99000001, 0.99000001" stroke-width=".99" style="paint-order:normal"/><rect id="v" x="20.495" y="180.49" width="87.01" height="111.01" rx="8.701" ry="7.9293" display="inline" enable-background="new" opacity=".1" stroke="#000" stroke-dasharray="0.99000001, 0.99000001" stroke-width=".99" style="paint-order:normal"/><rect id="w" x="12.495" y="184.5" width="103.01" height="103.01" rx="7.9238" ry="7.9238" display="inline" enable-background="new" opacity=".1" stroke="#000" stroke-dasharray="0.99000001, 0.99000001" stroke-width=".99" style="paint-order:normal"/><rect id="x" x="8.495" y="200.49" width="111.01" height="87.01" rx="7.9293" ry="8.701" display="inline" enable-background="new" opacity=".1" stroke="#000" stroke-dasharray="0.99000001, 0.99000001" stroke-width=".99" style="paint-order:normal"/><path id="y" d="m2.6203e-5 289h128" display="inline" enable-background="new" stroke="#62a0ea" stroke-width="2"/></g><g id="z" transform="matrix(.3 0 0 -.2128 -12.8 247.36)" enable-background="new" stroke-width="1.0299"><rect id="aa" transform="scale(-1,1)" x="-429.33" y="-190.96" width="346.67" height="451.13" rx="26.667" ry="44.432" fill="#1a5fb4" style="paint-order:normal"/><rect id="ab" transform="scale(-1,1)" x="-429.33" y="-181.57" width="346.67" height="451.13" rx="26.667" ry="44.432" fill="#d5d3cf" style="paint-order:normal"/><rect id="ac" transform="scale(-1,1)" x="-429.33" y="-153.37" width="346.67" height="451.13" rx="26.667" ry="37.594" fill="#f6f5f4" style="paint-order:normal"/></g><g id="ad" transform="translate(3.05e-6,3.3e-6)" enable-background="new" fill="#d5d3cf"><circle id="ae" cx="108" cy="252" r="2"/><circle id="af" cx="108" cy="242" r="2"/><circle id="ag" cx="108" cy="232" r="2"/><circle id="ah" cx="108" cy="222" r="2"/><circle id="ai" cx="108" cy="212" r="2"/><circle id="aj" cx="108" cy="202" r="2"/><circle id="ak" cx="108" cy="192" r="2"/></g><g id="al" transform="translate(3.05e-6,3.3e-6)" enable-background="new" fill="#d5d3cf"><circle id="am" cx="20" cy="272" r="2"/><circle id="an" cx="20" cy="262" r="2"/><circle id="ao" cx="20" cy="252" r="2"/><circle id="ap" cx="20" cy="242" r="2"/><circle id="aq" cx="20" cy="232" r="2"/><circle id="ar" cx="20" cy="222" r="2"/><circle id="as" cx="20" cy="212" r="2"/><circle id="at" cx="20" cy="202" r="2"/><circle id="au" cx="20" cy="192" r="2"/></g><g id="av" transform="translate(3.05e-6 -1)" enable-background="new" fill="none" opacity=".3" stroke="#d5d3cf" stroke-width="2"><path id="aw" d="m28 192h72"/><path id="ax" d="m28 202h72"/><path id="ay" d="m28 212h72"/><path id="az" d="m28 222h72"/><path id="ba" d="m28 232h72"/><path id="bb" d="m28 242h72"/><path id="bc" d="m28 252h72"/><path id="bd" d="m28 262h72"/><path id="be" d="m28 272h66"/></g><g id="bf" transform="translate(-20 3.3e-6)" enable-background="new"><g id="bg" transform="translate(14 -12)" fill="none" opacity=".1" stroke="#00000f"><path id="bh" transform="translate(0,-3e-6)" d="m36 250-8 8" enable-background="new" stroke-width="6"/><path id="bi" transform="translate(0,-3e-6)" d="m28 258-14 14" enable-background="new" stroke-linecap="round" stroke-width="12"/><circle id="bj" cx="58" cy="228" r="30.118" opacity="1" stroke-linejoin="round" stroke-width="3.7647"/></g><g id="bk" transform="translate(14 -14)" enable-background="new" fill="none"><path id="bl" d="m11.89 268.55 15.457-15.457" enable-background="new" opacity=".154" stroke="#fff" stroke-linecap="round" stroke-width="1.6378"/><path id="bm" d="m36 250-8 8" stroke="#949390" stroke-width="6"/><path id="bn" d="m36 248-8 8" stroke="#d5d3cf" stroke-width="6"/><path id="bo" d="m28 258-14 14" stroke="#241f31" stroke-linecap="round" stroke-width="12"/><path id="bp" d="m28 256-14 14" stroke="#424048" stroke-linecap="round" stroke-width="12"/></g><circle id="bq" transform="scale(-1,1)" cx="-72" cy="212.06" r="29.938" enable-background="new" fill="#fff" opacity=".5"/><circle id="br" cx="72" cy="214" r="30.118" fill="none" stroke="#1a5fb4" stroke-linejoin="round" stroke-width="3.7647"/><circle id="bs" cx="72" cy="212" r="30.118" fill="none" stroke="#62a0ea" stroke-linejoin="round" stroke-width="3.7647"/><path id="bt" d="m25 255 16-16" enable-background="new" fill="none" opacity=".154" stroke="#fff" stroke-linecap="round" stroke-width="2"/></g><rect id="bu" transform="matrix(0,1,1,0,3.05e-6,3.3e-6)" x="252" y="88" width="36" height="36" rx="8" ry="8" clip-path="url(#b)" enable-background="new" fill="url(#a)" style="paint-order:normal"/></g></svg>
