<?xml version="1.0" encoding="UTF-8"?>
<svg fill="none" viewBox="0 0 56 56" xmlns="http://www.w3.org/2000/svg"><path d="m51 12c0-1.1046-0.8954-2-2-2h-36c-1.1046 0-2 0.8954-2 2v26c0 1.1046 0.8954 2 2 2h17.586c0.2652 0 0.5196 0.1054 0.7071 0.2929l8 8c0.63 0.63 1.7071 0.1838 1.7071-0.7071v-6.5858c0-0.5523 0.4477-1 1-1h7c1.1046 0 2-0.8954 2-2v-26z" fill="url(#e)"/><path d="m11 37v1c0 1.1046 0.8954 2 2 2h17.586c0.2652 0 0.5196 0.1054 0.7071 0.2929l8 8c0.63 0.63 1.7071 0.1838 1.7071-0.7071v-1c0 0.8909-1.0771 1.3371-1.7071 0.7071l-8-8c-0.1875-0.1875-0.4419-0.2929-0.7071-0.2929h-17.586c-1.1046 0-2-0.8954-2-2zm30 4c0-0.5523 0.4477-1 1-1h7c1.1046 0 2-0.8954 2-2v-1c0 1.1046-0.8954 2-2 2h-7c-0.5523 0-1 0.4477-1 1v1z" clip-rule="evenodd" fill="#000405" fill-opacity=".1" fill-rule="evenodd"/><path d="m8 10c0-1.1046 0.89543-2 2-2h36c1.1046 0 2 0.89543 2 2v26c0 1.1046-0.8954 2-2 2h-17.586c-0.2652 0-0.5196 0.1054-0.7071 0.2929l-8 8c-0.63 0.63-1.7071 0.1838-1.7071-0.7071v-6.5858c0-0.5523-0.4477-1-1-1h-7c-1.1046 0-2-0.8954-2-2v-26z" fill="url(#d)"/><path d="m8 35v1c0 1.1046 0.89543 2 2 2h7c0.5523 0 1 0.4477 1 1v-1c0-0.5523-0.4477-1-1-1h-7c-1.1046 0-2-0.8954-2-2zm10 9.5858v1c0 0.8909 1.0771 1.3371 1.7071 0.7071l8-8c0.1875-0.1875 0.4419-0.2929 0.7071-0.2929h17.586c1.1046 0 2-0.8954 2-2v-1c0 1.1046-0.8954 2-2 2h-17.586c-0.2652 0-0.5196 0.1054-0.7071 0.2929l-8 8c-0.63 0.63-1.7071 0.1838-1.7071-0.7071z" clip-rule="evenodd" fill="#031C5A" fill-opacity=".1" fill-rule="evenodd"/><rect x="13" y="14" width="30" height="4" rx="2" fill="url(#c)"/><rect x="12.5" y="13.5" width="31" height="5" rx="2.5" stroke="#004E6E" stroke-opacity=".1"/><rect x="13" y="21" width="25" height="4" rx="2" fill="url(#b)"/><rect x="12.5" y="20.5" width="26" height="5" rx="2.5" stroke="#004E6E" stroke-opacity=".1"/><rect x="13" y="28" width="20" height="4" rx="2" fill="url(#a)"/><rect x="12.5" y="27.5" width="21" height="5" rx="2.5" stroke="#004E6E" stroke-opacity=".1"/><defs><linearGradient id="e" x1="51" x2="11" y1="10" y2="50" gradientUnits="userSpaceOnUse"><stop stop-color="#6EB4D9" offset="0"/><stop stop-color="#004E6E" offset="1"/></linearGradient><linearGradient id="d" x1="8" x2="48" y1="8" y2="48" gradientUnits="userSpaceOnUse"><stop stop-color="#44F0D3" offset="0"/><stop stop-color="#3DAEE9" offset="1"/></linearGradient><linearGradient id="c" x1="43" x2="19.585" y1="18" y2="-11.268" gradientUnits="userSpaceOnUse"><stop stop-color="#D1D5D9" offset="0"/><stop stop-color="#FCFFFF" offset="1"/></linearGradient><linearGradient id="b" x1="38" x2="14.02" y1="25" y2=".020816" gradientUnits="userSpaceOnUse"><stop stop-color="#D1D5D9" offset="0"/><stop stop-color="#FCFFFF" offset="1"/></linearGradient><linearGradient id="a" x1="33" x2="9.3934" y1="32" y2="12.328" gradientUnits="userSpaceOnUse"><stop stop-color="#D1D5D9" offset="0"/><stop stop-color="#FCFFFF" offset="1"/></linearGradient></defs></svg>
