<?xml version="1.0" encoding="UTF-8"?>
<svg width="48" height="48" viewBox="0 0 12.7 12.7" xmlns="http://www.w3.org/2000/svg"><linearGradient id="a" x1="24" x2="24" y1="294" y2="257" gradientTransform="matrix(.26458 0 0 .25853 -2e-6 -64.355)" gradientUnits="userSpaceOnUse"><stop stop-color="#1d99f3" offset="0"/><stop stop-color="#3daee9" offset="1"/></linearGradient><linearGradient id="b" x1="24" x2="24" y1="294" y2="257" gradientTransform="matrix(1 0 0 .97711 -7e-6 -243.23)" gradientUnits="userSpaceOnUse"><stop stop-color="#27ae60" offset="0"/><stop stop-color="#2ecc71" offset="1"/></linearGradient><linearGradient id="c" x1="120.4" x2="120.35" y1="23.021" y2="32.414" gradientTransform="matrix(1.3776 .37578 -.4637 1.7618 -116.72 -68.71)" gradientUnits="userSpaceOnUse"><stop stop-color="#bdc3c7" offset="0"/><stop stop-color="#fff" offset="1"/></linearGradient><linearGradient id="d" x1="119.85" x2="119.85" y1="27.384" y2="33.015" gradientTransform="matrix(.36449 .099426 -.12269 .46613 -30.882 -18.18)" gradientUnits="userSpaceOnUse"><stop stop-color="#7f8c8d" offset="0"/><stop stop-color="#95a5a6" offset="1"/></linearGradient><linearGradient id="e" x1="112.7" x2="112.7" y1="30.894" y2="32.712" gradientTransform="matrix(.36449 .099426 -.12269 .46613 -30.882 -18.18)" gradientUnits="userSpaceOnUse"><stop stop-color="#2c3e50" offset="0"/><stop stop-color="#34495e" offset="1"/></linearGradient><linearGradient id="f" x1="31" x2="31" y1="-21.23" y2="36" gradientTransform="matrix(1 0 0 1.0009 -7e-6 -.002826)" gradientUnits="userSpaceOnUse"><stop stop-color="#2980b9" offset="0"/><stop stop-color="#3daee9" stop-opacity="0" offset="1"/></linearGradient><rect x="1.0583" y="1.0583" width="10.583" height="10.583" rx="1.586" ry="1.5875" fill="#34495e" stroke-width=".26471"/><rect x="1.0583" y="1.0583" width="10.583" height="10.319" rx="1.586" ry="1.5875" fill="url(#a)" stroke-width=".26471"/><path transform="scale(.26458)" d="m30 7.0039v1h-3v3.0039h3l1 25.023h13v-15.947l-14-13.08z" fill="url(#f)" stroke-width="1.0005"/><path transform="scale(.26458)" d="m4.002 37.031c0.01691 3.3093 2.6819 5.9688 5.9922 5.9688h28.012c3.3103 0 5.9753-2.6594 5.9922-5.9688h-39.996z" fill="url(#b)" stroke-width="1.0005"/><path transform="matrix(.070004 0 0 .07007 -2e-6 -.000748)" d="m86.93 26.457v3.7793h11.338v11.338h-18.898v3.7793h-7.5586l7.5586 22.678h-18.896l11.338 26.457h11.34v41.574h34.016v-41.574h11.338l11.338-26.457h-18.896l7.5586-22.678h-7.5586v-3.7793h-18.898v-11.338h11.34v-3.7793z" fill="#2980b9"/><path transform="scale(.26458)" d="m12.59 18.883c-1.3141 0.046155-2.6147 0.34825-3.7754 1.0742-1.7553 1.0979-4.5099 1.0673-2.7617 3.1133 2.6975 3.1571 6.8557 3.8474 10.662 5.0215 6.3156 1.3615 12.475 3.3291 18.707 5.0195 2.2417 0.7353 5.4568 0.98814 8.5781 1.0254v-7.0859c-9.1502-2.7532-20.672-6.0368-27.553-7.709-1.2158-0.29544-2.5433-0.50514-3.8574-0.45898z" fill="url(#c)" stroke-width="1.6128"/><path d="m5.717164 7.259701c-.0810626-.0221123-.1683313.043578-.1956163.1472428l-.1273086.4836885c-.027285.1036649.016029.2049749.097091.2270871l1.3337418.3638184c.068768.018759.1415181-.0261.178798-.1032928.121816.00733.2436582.014649.3654693.021983.0386542-.1274166.0773022-.2548099.1159562-.382226-.1099574-.0766369-.2199614-.15329-.3299187-.2299274-.000199-.0789481-.0398434-.1467028-.1040846-.1644498-.0000982-.0000278-.0002916-.0000796-.0003645-.0000995z" fill="url(#e)" stroke-width=".42673"/><g transform="matrix(.36449 .099426 -.12269 .46613 -30.882 -18.18)" fill="#232629"><path d="m101.21759 28.533143c-.13528.0901-.26674.184668-.39067.288869-.0513.04317-.1063.08418-.16175.125058.54774.14773 1.06955.284673 1.62213.03152l.0615-.309025c-.4224-.02919-.83082-.06324-1.1312-.136424z"/><rect x="105.44" y="28.747" width=".50766" height=".60046" rx=".25383"/><rect x="106.5" y="28.747" width=".50766" height=".60046" rx=".25383"/><rect x="107.56" y="28.747" width=".50766" height=".60046" rx=".25383"/><rect x="108.62" y="28.747" width=".50766" height=".60046" rx=".25383"/><rect x="109.67" y="28.747" width=".50766" height=".60046" rx=".25383"/><rect x="110.73" y="28.747" width=".50766" height=".60046" rx=".25383"/><rect x="111.79" y="28.747" width=".50766" height=".60046" rx=".25383"/><rect x="112.85" y="28.747" width=".50766" height=".60046" rx=".25383"/><rect x="113.91" y="28.747" width=".50766" height=".60046" rx=".25383"/><rect x="114.97" y="28.747" width=".50766" height=".60046" rx=".25383"/><rect x="116.02" y="28.747" width=".50766" height=".60046" rx=".25383"/><rect x="117.08" y="28.747" width=".50766" height=".60046" rx=".25383"/><rect x="118.14" y="28.747" width=".50766" height=".60046" rx=".25383"/><rect x="119.2" y="28.747" width=".50766" height=".60046" rx=".25383"/><rect x="120.26" y="28.747" width=".50766" height=".60046" rx=".25383"/><rect x="121.32" y="28.747" width=".50766" height=".60046" rx=".25383"/><rect x="122.37" y="28.747" width=".50766" height=".60046" rx=".25383"/><rect x="123.43" y="28.747" width=".50766" height=".60046" rx=".25383"/><rect x="124.49" y="28.747" width=".50766" height=".60046" rx=".25383"/><rect x="125.55" y="28.747" width=".50766" height=".60046" rx=".25383"/></g><path d="m5.4731 7.1931 2.4395 0.15794 1.9656 0.12189 1.2813-0.85374 0.24379 0.0665-0.80499 1.0491-1.1498 0.17178-1.4679-0.029525z" fill="url(#d)" opacity=".99" stroke-width=".42673"/><path transform="scale(.26458)" d="m4 36.03125v.96875c0 .353022.0358671.697228.09375 1.033203h39.8125c.057883-.335975.09375-.680181.09375-1.033203v-.96875z" fill="#34495e" stroke-width="1.0005"/></svg>
