<?xml version="1.0" encoding="UTF-8"?>
<svg fill="none" viewBox="0 0 48 48" xmlns="http://www.w3.org/2000/svg" xmlns:xlink="http://www.w3.org/1999/xlink"><linearGradient id="a" x1="118.46" x2="130.65" y1="76.948" y2="96.879" gradientTransform="matrix(1.5935 0 0 1.2157 -68.872 7.8938)" gradientUnits="userSpaceOnUse"><stop offset="0"/><stop stop-opacity="0" offset="1"/></linearGradient><linearGradient id="b" x2="48" y1="10" y2="48" gradientUnits="userSpaceOnUse"><stop stop-color="#0ff" offset="0"/><stop stop-color="#0085ff" offset=".90625"/></linearGradient><radialGradient id="c" cx="4" cy="4" r="20" gradientTransform="matrix(0 1.8 -1.3 0 9.2 -3.2)" gradientUnits="userSpaceOnUse"><stop stop-color="#1affe3" offset="0"/><stop stop-color="#1affe3" stop-opacity="0" offset="1"/></radialGradient><linearGradient id="d" x1="14" x2="-12" y1="17" y2="51" gradientUnits="userSpaceOnUse"><stop stop-color="#124b5e" offset="0"/><stop stop-color="#124b5e" stop-opacity="0" offset="1"/></linearGradient><linearGradient id="e" x1="118.46" x2="130.65" y1="76.948" y2="96.879" gradientTransform="matrix(.40858 0 0 .31173 -23.981 -4.632)" gradientUnits="userSpaceOnUse" xlink:href="#a"/><linearGradient id="f" x1="118.46" x2="130.65" y1="76.948" y2="96.879" gradientTransform="matrix(.40858 0 0 .31173 -13.981 -4.632)" gradientUnits="userSpaceOnUse" xlink:href="#a"/><linearGradient id="g" x1="118.46" x2="130.65" y1="76.948" y2="96.879" gradientTransform="matrix(.40858 0 0 .31173 -13.981 5.368)" gradientUnits="userSpaceOnUse" xlink:href="#a"/><linearGradient id="h" x1="118.46" x2="130.65" y1="76.948" y2="96.879" gradientTransform="matrix(.40858 0 0 .31173 -23.981 5.368)" gradientUnits="userSpaceOnUse" xlink:href="#a"/><linearGradient id="i" x1="4" x2="4" y1="4" y2="44" gradientUnits="userSpaceOnUse"><stop stop-opacity="0" offset=".19521"/><stop stop-color="#055" offset=".93294"/></linearGradient><g stroke-width="3"><rect x="4" y="4" width="40" height="40" rx="3" fill="url(#b)"/><rect x="4" y="4" width="40" height="40" rx="3" fill="url(#c)"/><path d="m4 40v1c0 1.662 1.338 3 3 3h34c1.662 0 3-1.338 3-3v-1c0 1.662-1.338 3-3 3h-34c-1.662 0-3-1.338-3-3z" fill="#124b5e"/></g><path d="m7 4a3 3 0 0 0-3 3v23l2.7441-3.5664 10.256 16.566h6l-12.932-20.889 13.932-18.111z" fill="url(#d)"/><g stroke-width=".35688"><path d="m29.707 17.293-7.4141 7.4121 2.2949 2.2949h7.4121v-7z" fill="url(#e)" opacity=".15"/><path d="m39.707 17.293-7.4141 7.4121 2.2949 2.2949h9.4121v-5z" fill="url(#f)" opacity=".15"/><path d="m29.707 27.293-7.4141 7.4121 2.2949 2.2949h7.4121v-7z" fill="url(#h)" opacity=".15"/><path d="m39.707 27.293-7.4141 7.4121 2.2949 2.2949h9.4121v-5z" fill="url(#g)" opacity=".15"/></g><path d="m23 17c-.554 0-1 .446-1 1v6c0 .554.446 1 1 1h6c.554 0 1-.446 1-1v-6c0-.554-.446-1-1-1zm10 0c-.554 0-1 .446-1 1v6c0 .554.446 1 1 1h6c.554 0 1-.446 1-1v-6c0-.554-.446-1-1-1zm-10 10c-.554 0-1 .446-1 1v6c0 .554.446 1 1 1h6c.554 0 1-.446 1-1v-6c0-.554-.446-1-1-1zm10 0c-.554 0-1 .446-1 1v6c0 .554.446 1 1 1h6c.554 0 1-.446 1-1v-6c0-.554-.446-1-1-1z" fill="#fff" stroke-width="3"/><rect x="23" y="28" width="6" height="6" ry=".25" fill="#bbe9ff" stroke-width="3"/><path d="m23 12c-.554 0-1 .446-1 1v1c0 .554.446 1 1 1h6c.554 0 1-.446 1-1v-1c0-.554-.446-1-1-1zm10 0c-.554 0-1 .446-1 1v1c0 .554.446 1 1 1h6c.554 0 1-.446 1-1v-1c0-.554-.446-1-1-1z" fill="#00789d" stroke-width="1.8371"/><path d="m23.884 31.064 1.1092 1.3333c0.1889 0.22707 0.4952 0.22707 0.6841 0l2.5604-3.0777" stroke="#0097d7"/><rect x="4" y="4" width="40" height="40" rx="3" fill="url(#i)" opacity=".1" stroke-width="1.25"/></svg>
