<?xml version="1.0" encoding="UTF-8"?>
<svg id="a" enable-background="new" version="1.0" viewBox="0 0 16 16" xmlns="http://www.w3.org/2000/svg"><title id="b">Adwaita Icon Template</title><rect id="c" x=".49994" y=".49994" width="15" height="15" rx=".5" ry=".5" enable-background="new" fill="#263742" stroke="#a7b0b7" stroke-linejoin="miter" stroke-miterlimit="4" stroke-width=".99987" style="paint-order:normal"/><path id="d" d="m3 3 5 3v2l-5 3v-2l3.3333-2-3.3333-2v-2" fill="#f1f3f5"/><path id="e" d="m9.8571 6-0.4995 1.4991c-0.0579 0.021859-0.11571 0.044999-0.17229 0.070718l-1.4124-0.70586-0.909 0.909 0.70715 1.4136a3.2143 3.2143 0 0 0-0.074697 0.171l-1.4966 0.4995v1.2857l1.4991 0.4995c0.0218 0.05787 0.044999 0.11572 0.070797 0.17229l-0.70587 1.4124 0.909 0.909 1.4136-0.70714c0.056 0.02698 0.11316 0.05144 0.17102 0.07457l0.49949 1.4966h1.2857l0.4995-1.4991c0.0579-0.02186 0.1157-0.045 0.17229-0.07071l1.4124 0.70586 0.90901-0.909-0.70716-1.4136c0.027-0.05594 0.0515-0.11314 0.0747-0.171l1.4965-0.49951v-1.2857l-1.4991-0.4995a3.2079 3.2079 0 0 0-0.0708-0.17229l0.70588-1.4124-0.90901-0.909-1.4136 0.70714a3.2091 3.2091 0 0 0-0.171-0.074567l-0.4995-1.4966zm0.64286 2.5714a1.9286 1.9286 0 1 1 0 3.8571 1.9286 1.9286 0 0 1 0-3.8571z" enable-background="new" fill="#dcb102"/></svg>
