<?xml version="1.0" encoding="UTF-8"?>
<svg id="c" version="1.1" viewBox="0 0 16 16" xmlns="http://www.w3.org/2000/svg" xmlns:xlink="http://www.w3.org/1999/xlink"><defs id="d"><linearGradient id="a" x1="1118.7" x2="1118.7" y1="283.54" y2="233.4" gradientUnits="userSpaceOnUse"><stop id="e" stop-color="#d2d8dc" offset="0"/><stop id="f" stop-color="#758087" offset="1"/></linearGradient><linearGradient id="b" x1="68" x2="68" y1="282" y2="276" gradientTransform="matrix(.25 0 0 .13176 -8 89.581)" gradientUnits="userSpaceOnUse"><stop id="g" stop-color="#d2d8dc" offset="0"/><stop id="h" stop-color="#bcc5ca" offset="1"/></linearGradient></defs><g id="i" transform="translate(0,-112)" stroke-width="4"><path id="j" d="m6 120.68-1 6.3244h6l-1-6.3244h-2z" enable-background="new" fill="url(#b)"/><path id="k" d="m0.57143 112c-0.31657 0-0.57143 0.28928-0.57143 0.64861v11.675c0 0.35935 0.25486 0.64862 0.57143 0.64862h14.857c0.31657 0 0.57143-0.28927 0.57143-0.64862v-11.675c0-0.35933-0.25486-0.64861-0.57143-0.64861z" fill="#758087"/><path id="l" transform="matrix(.10645 0 0 .10104 227.21 121.94)" d="m1084 61.125a27.16 27.16 0 0 0-27.062 24.9l-16 192a27.16 27.16 0 0 0 27.062 29.412h96a27.16 27.16 0 0 0 27.062-29.412l-16-192a27.16 27.16 0 0 0-27.062-24.9h-32z" enable-background="new" fill="#a7b0b7"/><path id="m" transform="matrix(.10578 0 0 .10104 227.9 120.94)" d="m1084 61.125a27.16 27.16 0 0 0-27.062 24.9l-16 192a27.16 27.16 0 0 0 27.062 29.412h96a27.16 27.16 0 0 0 27.062-29.412l-16-192a27.16 27.16 0 0 0-27.062-24.9h-32z" enable-background="new" fill="url(#a)"/><path id="n" d="m325.57 110.73c-0.87056 0-1.5714 0.69176-1.5714 1.5531v27.168a1.5871 1.5288 0 0 0 1.5714 1.553h40.857c0.87056 0 1.5714-0.69327 1.5714-1.553v-27.168a1.5871 1.5288 0 0 0-1.5714-1.5531z" fill="#a7b0b7" stroke-width="1.5423"/><path id="o" d="m325.62 109c-0.86961 0-1.5697 0.69374-1.5697 1.5555v27.999c0 0.86175 0.70008 1.5555 1.5697 1.5555h40.812c0.8696 0 1.5697-0.69374 1.5697-1.5555v-27.999c0-0.86174-0.70008-1.5555-1.5697-1.5555z" fill="#d1d7db" stroke-width="1.5626"/><path id="p" d="m326 111h40v27h-40z" fill="#18262f" stroke-width="1.6771"/><g id="q" transform="matrix(.38887 0 0 .38887 327.94 26.005)" enable-background="new" stroke-width="4"><path id="r" d="m95.304 221.14-97.719 64.289h97.719zm-15.429 21.86v27l-42.607 0.25673z" clip-rule="nonzero" color="#000000" color-rendering="auto" dominant-baseline="auto" enable-background="accumulate" fill="#f6d32d" fill-rule="nonzero" image-rendering="auto" shape-rendering="auto" solid-color="#000000" style="font-feature-settings:normal;font-variant-alternates:normal;font-variant-caps:normal;font-variant-ligatures:normal;font-variant-numeric:normal;font-variant-position:normal;isolation:auto;mix-blend-mode:normal;shape-padding:0;text-decoration-color:#000000;text-decoration-line:none;text-decoration-style:solid;text-indent:0;text-orientation:mixed;text-transform:none;white-space:normal"/><path id="s" transform="translate(0,172)" d="m79.875 71-42.607 25.257v2l42.607-25.257zm-78.381 39.858-3.9092 2.5716h25.716l72.004 0.0603v-2.6318h-72.004z" clip-rule="nonzero" color="#000000" color-rendering="auto" dominant-baseline="auto" enable-background="accumulate" fill="#e5a50a" fill-rule="nonzero" image-rendering="auto" shape-rendering="auto" solid-color="#000000" style="font-feature-settings:normal;font-variant-alternates:normal;font-variant-caps:normal;font-variant-ligatures:normal;font-variant-numeric:normal;font-variant-position:normal;isolation:auto;mix-blend-mode:normal;shape-padding:0;text-decoration-color:#000000;text-decoration-line:none;text-decoration-style:solid;text-indent:0;text-orientation:mixed;text-transform:none;white-space:normal"/><g id="t" transform="translate(-.125 2)" fill="none" stroke="#b38108" stroke-linejoin="miter" stroke-miterlimit="4" stroke-width="2.5716"><path id="u" d="m11.854 278.29v5.1431" enable-background="new"/><path id="v" d="m19.473 275.71v7.7147" enable-background="new"/><path id="w" d="m27.283 278.29v5.1431" enable-background="new"/><path id="x" d="m42.812 278.29v5.1431" enable-background="new"/><path id="y" d="m35.1 275.71v7.7147" enable-background="new"/><path id="z" d="m50.53 275.71v7.7147" enable-background="new"/><path id="aa" d="m58.142 278.29v5.1431" enable-background="new"/><path id="ab" d="m65.856 275.71v7.7147" enable-background="new"/><path id="ac" d="m73.685 278.29v5.1431" enable-background="new"/><path id="ad" d="m81.161 275.71v7.7147" enable-background="new"/><path id="ae" d="m90.286 278.29v5.1431" enable-background="new"/></g></g><rect id="af" x="1" y="113" width="14" height="11" enable-background="new" fill="#18262f" fill-rule="evenodd"/><path id="ag" transform="matrix(.31847 0 0 .33143 -299.78 6.4214)" d="m821.48 324.59-3.8164-2.1641-3.9462 1.917 0.87882-4.2983-3.0426-3.1607 4.3595-0.49244 2.0658-3.8704 1.8155 3.994 4.3194 0.76867-3.2375 2.9608z" enable-background="new" fill="#fbeb83"/><path id="ah" transform="matrix(.31847 0 0 .33143 -291.78 10.421)" d="m821.48 324.59-3.8164-2.1641-3.9462 1.917 0.87882-4.2983-3.0426-3.1607 4.3595-0.49244 2.0658-3.8704 1.8155 3.994 4.3194 0.76867-3.2375 2.9608z" enable-background="new" fill="#fbeb83"/><path id="ai" transform="matrix(.31847 0 0 .33143 -295.78 18.421)" d="m821.48 324.59-3.8164-2.1641-3.9462 1.917 0.87882-4.2983-3.0426-3.1607 4.3595-0.49244 2.0658-3.8704 1.8155 3.994 4.3194 0.76867-3.2375 2.9608z" enable-background="new" fill="#fbeb83"/><path id="aj" transform="matrix(.31847 0 0 .33143 -283.78 6.4214)" d="m821.48 324.59-3.8164-2.1641-3.9462 1.917 0.87882-4.2983-3.0426-3.1607 4.3595-0.49244 2.0658-3.8704 1.8155 3.994 4.3194 0.76867-3.2375 2.9608z" enable-background="new" fill="#fbeb83"/><path id="ak" d="m5 127.5h6" enable-background="new" fill="#758087" stroke="#949790" stroke-linejoin="miter" stroke-miterlimit="4" stroke-width="1" style="paint-order:normal"/><path id="al" d="m1 124 14-11v11z" fill="#f6d32d"/><path id="am" d="m7 122 6-5v5z" fill="#18262f"/></g></svg>
