<?xml version="1.0" encoding="UTF-8"?>
<svg version="1.1" viewBox="0 0 128 128" xmlns="http://www.w3.org/2000/svg"><defs><linearGradient id="b" x1="26" x2="38" y1="242" y2="241.94" gradientTransform="matrix(0 -1.3333 -1.3333 0 406.67 118.67)" gradientUnits="userSpaceOnUse"><stop stop-color="#9a9996" offset="0"/><stop stop-color="#9a9996" stop-opacity="0" offset="1"/></linearGradient><linearGradient id="a" x1="26" x2="38" y1="242" y2="242" gradientTransform="matrix(0 -1.3333 -1.3333 0 366.78 118.67)" gradientUnits="userSpaceOnUse"><stop stop-color="#9a9996" offset="0"/><stop stop-color="#9a9996" stop-opacity="0" offset="1"/></linearGradient></defs><g id="c"><path d="m89.18 41.969 6.082 7.5625 22.648-4.668 9.875 47.906c1.4883 7.2344-2.1719 14.547-8.8516 17.695-6.6797 3.1484-14.648 1.3164-19.281-4.4336l-35.406-44zm-49.996 0-6.0859 7.5625-22.648-4.668-9.875 47.906c-1.4844 7.2344 2.1719 14.547 8.8516 17.695 6.6797 3.1484 14.648 1.3164 19.285-4.4336l35.402-44z" fill="#77767a"/><path d="m41.117 28h46v32h-46z" fill="#77767a"/><path d="m60.449 59.281-31.984 39.75c-3.8594 4.7812-10.117 6.9297-16.102 5.5273-5.9805-1.4023-10.633-6.1055-11.969-12.105l-0.066406 0.31641c-1.4844 7.2344 2.1758 14.547 8.8555 17.695 6.6797 3.1484 14.648 1.3164 19.281-4.4336l35.402-44zm7.1016 0-3.4219 2.75 35.406 44c4.6328 5.75 12.602 7.582 19.281 4.4336 6.6797-3.1484 10.34-10.461 8.8555-17.695l-0.066406-0.31641c-1.3359 5.9961-5.9883 10.703-11.969 12.102-5.9844 1.4023-12.242-0.74609-16.102-5.5273z" fill="#5e5c64" fill-opacity=".235"/><path d="m54.117 49c0 12.148-9.8516 22-22 22-12.152 0-22-9.8516-22-22s9.8477-22 22-22c12.148 0 22 9.8516 22 22z" fill="#c0bfbc"/><path d="m46.117 32h36v52h-36z" fill="#c0bfbc"/><path d="m118.12 49c0 12.148-9.8516 22-22 22-12.152 0-22-9.8516-22-22s9.8477-22 22-22c12.148 0 22 9.8516 22 22z" fill="#c0bfbc"/><path d="m46.117 32h36v48h-36z" fill="#deddda"/><path d="m58 80c0 7.668-6.2148 13.883-13.883 13.883-7.668 0-13.887-6.2148-13.887-13.883s6.2188-13.883 13.887-13.883c7.668 0 13.883 6.2148 13.883 13.883z" fill="#c0bfbc"/><path d="m58 78c0 7.668-6.2148 13.883-13.883 13.883-7.668 0-13.887-6.2148-13.887-13.883s6.2188-13.883 13.887-13.883c7.668 0 13.883 6.2148 13.883 13.883z" fill="#deddda"/><path d="m98 80c0 7.668-6.2148 13.883-13.883 13.883-7.668 0-13.887-6.2148-13.887-13.883s6.2188-13.883 13.887-13.883c7.668 0 13.883 6.2148 13.883 13.883z" fill="#c0bfbc"/><path d="m98 78c0 7.668-6.2148 13.883-13.883 13.883-7.668 0-13.887-6.2148-13.887-13.883s6.2188-13.883 13.887-13.883c7.668 0 13.883 6.2148 13.883 13.883z" fill="#deddda"/><path d="m54.117 47c0 12.148-9.8516 22-22 22-12.152 0-22-9.8516-22-22s9.8477-22 22-22c12.148 0 22 9.8516 22 22z" fill="#deddda"/><path d="m118.12 47c0 12.148-9.8516 22-22 22-12.152 0-22-9.8516-22-22s9.8477-22 22-22c12.148 0 22 9.8516 22 22z" fill="#deddda"/><path d="m30 36c-1.1094 0-2 0.89062-2 2v6h-6c-1.1094 0-2 0.89062-2 2v4c0 1.1094 0.89062 2 2 2h6v6c0 1.1094 0.89062 2 2 2h4c1.1094 0 2-0.89062 2-2v-6h6c1.1094 0 2-0.89062 2-2v-4c0-1.1094-0.89062-2-2-2h-6v-6c0-1.1094-0.89062-2-2-2z" fill="#3d3746"/><path d="m30 34c-1.1094 0-2 0.89062-2 2v6h-6c-1.1094 0-2 0.89062-2 2v4c0 1.1094 0.89062 2 2 2h6v6c0 1.1094 0.89062 2 2 2h4c1.1094 0 2-0.89062 2-2v-6h6c1.1094 0 2-0.89062 2-2v-4c0-1.1094-0.89062-2-2-2h-6v-6c0-1.1094-0.89062-2-2-2z" fill="#5e5c64"/><path d="m110 50v2c0 3.3242-2.6758 6-6 6s-6-2.6758-6-6v-2z" fill="#c01b28"/><path d="m98 50c0 3.3125 2.6875 6 6 6s6-2.6875 6-6-2.6875-6-6-6-6 2.6875-6 6z" fill="#ed333b"/><path d="m94 42v2c0 3.3242-2.6758 6-6 6s-6-2.6758-6-6v-2z" fill="#1a5fb4"/><path d="m82 42c0 3.3125 2.6875 6 6 6s6-2.6875 6-6-2.6875-6-6-6-6 2.6875-6 6z" fill="#3584e4"/><path d="m54.117 78c0 5.5234-4.4766 10-10 10-5.5234 0-10-4.4766-10-10s4.4766-10 10-10c5.5234 0 10 4.4766 10 10z" fill="#241f31"/><path d="m94.117 78c0 5.5234-4.4766 10-10 10-5.5234 0-10-4.4766-10-10s4.4766-10 10-10c5.5234 0 10 4.4766 10 10z" fill="#241f31"/><path d="m54.117 76c0 5.5234-4.4766 10-10 10-5.5234 0-10-4.4766-10-10s4.4766-10 10-10c5.5234 0 10 4.4766 10 10z" fill="#3d3746"/><path d="m94.117 76c0 5.5234-4.4766 10-10 10-5.5234 0-10-4.4766-10-10s4.4766-10 10-10c5.5234 0 10 4.4766 10 10z" fill="#3d3746"/><path d="m84 68c-4.418 0-8 3.582-8 8s3.582 8 8 8 8-3.582 8-8-3.582-8-8-8z" fill="url(#b)"/><path d="m44.117 68c-4.418 0-8 3.582-8 8s3.582 8 8 8c4.418 0 8-3.582 8-8s-3.582-8-8-8z" fill="url(#a)"/></g></svg>
