<?xml version="1.0" encoding="UTF-8"?>
<svg id="b" enable-background="new" version="1.0" viewBox="0 0 16 16" xmlns="http://www.w3.org/2000/svg"><title id="c">Adwaita Icon Template</title><defs id="d"><filter id="a" x="-.156" y="-.35657" width="1.312" height="1.7131" color-interpolation-filters="sRGB"><feGaussianBlur id="e" stdDeviation="1.04"/></filter></defs><rect id="f" transform="matrix(.13398 0 0 .13462 -.54126 -.61538)" x="46" y="95" width="16" height="7" enable-background="new" fill="#758087" fill-rule="nonzero" filter="url(#a)" opacity=".2"/><rect id="g" y="2" width="16" height="14" rx="1" ry="1" enable-background="new" fill="#d2d8dc" style="paint-order:normal"/><path id="h" d="m1.9235 15h12.153c0.51139 0 0.92308-0.47407 0.92308-1.0629v-3.9371h-13.999v3.9371c0 0.58887 0.41169 1.0629 0.92308 1.0629z" enable-background="new" fill="#f1f3f5" style="paint-order:normal"/><path id="i" d="m1.5 0h13c0.59662 0 1.5005 0.90108 1.5005 1.5v8.5h-16.001v-8.5c0-0.59892 0.90385-1.5 1.5005-1.5z" enable-background="new" fill="#070c0f" style="paint-order:normal"/><rect id="j" x="2" y="12" width="12" height="1" fill="#758087" fill-rule="nonzero"/><rect id="k" x="2" y="12" width="5" height=".98837" fill="#e6461d" fill-rule="nonzero"/><rect id="l" x="6" y="12" width="2" height="1" fill="#d2d8dc" fill-rule="nonzero" opacity=".2"/><path id="m" d="m11.5 5.25-6.5 3.5v-7z" fill="#fff"/></svg>
