<?xml version="1.0" encoding="UTF-8"?>
<svg id="a" version="1.1" viewBox="0 0 48 48" xmlns="http://www.w3.org/2000/svg"><g id="b"><rect id="c" x=".016938" y="-.012277" width="48.009" height="48.009" ry="5.1358" fill="#241f1c"/><g id="d" transform="scale(.94075 1.063)" fill="#b3b3b3"><path id="e" d="m18.878 7.7124h10.366v-3.1412h2.9842v3.1412h10.523v2.8271h-10.523v3.1412h8.9525v10.523h-8.9525v11.465h-2.9842v-10.837c-2.4083 3.7695-5.4971 6.7536-9.2666 8.9525l-2.1988-2.8271c3.6647-1.78 6.5442-4.0312 8.6383-6.7536h-6.1254v-10.523h8.9525v-3.1412h-10.366v-2.8271m4.2406 13.664h6.1254v-4.8689h-6.1254v4.8689m9.1095-4.8689v4.8689h5.9683v-4.8689h-5.9683m3.1412 9.1095c2.9318 1.5706 5.6018 3.403 8.0101 5.4971l-2.1988 2.3559c-2.3036-2.1988-4.8689-4.0312-7.696-5.4971l1.8847-2.3559m-25.13-19.947c2.0941 1.3612 3.9789 2.9842 5.6542 4.8689l-2.1988 2.67c-1.78-2.0941-3.6648-3.8218-5.6542-5.183l2.1988-2.3559m-2.67 13.036h7.853v15.078c1.2565 0.94237 2.8533 1.623 4.7903 2.0418 1.9371 0.41883 6.1515 0.62824 12.643 0.62824h10.994l-1.5706 3.4553h-12.565c-4.6071-3e-6 -7.9578-0.31412-10.052-0.94236-2.0942-0.62824-3.9265-1.623-5.4971-2.9842l-4.5548 4.5548-2.1988-3.2983c1.6753-0.94236 3.2983-1.9371 4.8689-2.9842v-12.565h-4.7118v-2.9842" fill="#b3b3b3"/></g></g></svg>
