<?xml version="1.0" encoding="UTF-8"?>
<svg id="c" width="64" height="64" version="1.1" viewBox="0 0 16.933 16.933" xmlns="http://www.w3.org/2000/svg"><defs id="d"><filter id="b" x="-.027" y="-.027" width="1.054" height="1.054" color-interpolation-filters="sRGB"><feGaussianBlur id="e" stdDeviation="0.61875"/></filter><linearGradient id="a" x1="-127" x2="-71.94" y1="60" y2="4.9403" gradientTransform="matrix(.26458 0 0 .26458 34.792 -.13493)" gradientUnits="userSpaceOnUse"><stop id="f" stop-color="#524084" offset="0"/><stop id="g" stop-color="#b768e6" offset="1"/></linearGradient></defs><rect id="h" transform="scale(.26458)" x="4.5" y="4.5" width="55" height="55" ry="15" fill="#141414" filter="url(#b)" opacity=".3" stroke-linecap="round" stroke-width="2.7444"/><rect id="i" x="1.1906" y="1.1906" width="14.552" height="14.552" ry="3.9687" fill="url(#a)" stroke-linecap="round" stroke-width=".72611"/><rect id="j" x="3.1749" y="3.1749" width="10.583" height="10.583" ry="2.2558" opacity=".25"/><g id="k" transform="translate(22.731 .0035)"><path id="l" d="m-16.169 11.003a0.635 0.635 0 0 1-0.635 0.635 0.635 0.635 0 0 1-0.635-0.635 0.635 0.635 0 0 1 0.635-0.635 0.635 0.635 0 0 1 0.635 0.635z" fill="#fff"/><path id="m" d="m-14.476 11.003a0.635 0.635 0 0 1-0.635 0.635 0.635 0.635 0 0 1-0.635-0.635 0.635 0.635 0 0 1 0.635-0.635 0.635 0.635 0 0 1 0.635 0.635z" fill="#f55"/><path id="n" d="m-12.783 11.003a0.635 0.635 0 0 1-0.635 0.635 0.635 0.635 0 0 1-0.635-0.635 0.635 0.635 0 0 1 0.635-0.635 0.635 0.635 0 0 1 0.635 0.635zm1.694 0a0.635 0.635 0 0 1-0.635 0.635 0.635 0.635 0 0 1-0.635-0.635 0.635 0.635 0 0 1 0.635-0.635 0.635 0.635 0 0 1 0.635 0.635z" fill="#fff"/><path id="o" d="m-16.169 9.31a0.635 0.635 0 0 1-0.635 0.635 0.635 0.635 0 0 1-0.635-0.635 0.635 0.635 0 0 1 0.635-0.635 0.635 0.635 0 0 1 0.635 0.635z" fill="#f55"/><path id="p" d="m-14.476 9.31a0.635 0.635 0 0 1-0.635 0.635 0.635 0.635 0 0 1-0.635-0.635 0.635 0.635 0 0 1 0.635-0.635 0.635 0.635 0 0 1 0.635 0.635z" fill="#fff"/><path id="q" d="m-12.783 9.31a0.635 0.635 0 0 1-0.635 0.635 0.635 0.635 0 0 1-0.635-0.635 0.635 0.635 0 0 1 0.635-0.635 0.635 0.635 0 0 1 0.635 0.635zm1.694 0a0.635 0.635 0 0 1-0.635 0.635 0.635 0.635 0 0 1-0.635-0.635 0.635 0.635 0 0 1 0.635-0.635 0.635 0.635 0 0 1 0.635 0.635z" fill="#f55"/><path id="r" d="m-12.783 7.617a0.635 0.635 0 0 1-0.635 0.635 0.635 0.635 0 0 1-0.635-0.635 0.635 0.635 0 0 1 0.635-0.635 0.635 0.635 0 0 1 0.635 0.635z" fill="#fff"/><path id="s" d="m-11.089 7.617a0.635 0.635 0 0 1-0.635 0.635 0.635 0.635 0 0 1-0.635-0.635 0.635 0.635 0 0 1 0.635-0.635 0.635 0.635 0 0 1 0.635 0.635z" fill="#f55"/><path id="t" d="m-11.089 5.923a0.635 0.635 0 0 1-0.635 0.635 0.635 0.635 0 0 1-0.635-0.635 0.635 0.635 0 0 1 0.635-0.635 0.635 0.635 0 0 1 0.635 0.635z" fill="#fff"/></g></svg>
