<?xml version="1.0" encoding="UTF-8"?>
<svg id="i" version="1.1" viewBox="0 0 48 48" xmlns="http://www.w3.org/2000/svg" xmlns:xlink="http://www.w3.org/1999/xlink"><defs id="j"><linearGradient id="c" x1="39.5" x2="8.5" y1="44" y2="3" gradientUnits="userSpaceOnUse" xlink:href="#a"/><linearGradient id="a"><stop id="k" stop-color="#27ae60" offset="0"/><stop id="l" stop-color="#3498db" offset="1"/></linearGradient><linearGradient id="g" x1="36.5" x2="11.5" y1="41" y2="16" gradientUnits="userSpaceOnUse"><stop id="m" stop-color="#d3f5e2" offset="0"/><stop id="n" stop-color="#abd4f0" offset="1"/></linearGradient><linearGradient id="f" x1="36.5" x2="11.5" y1="41" y2="16" gradientTransform="matrix(.52 0 0 .52 11.52 13.68)" gradientUnits="userSpaceOnUse" xlink:href="#a"/><linearGradient id="d" x1="19.404" x2="33.962" y1="23.904" y2="38.462" gradientUnits="userSpaceOnUse"><stop id="o" stop-opacity=".55224" offset="0"/><stop id="p" stop-opacity="0" offset="1"/></linearGradient><linearGradient id="b" x1="-17" x2="-17" y1="12.145" y2="14.889" gradientUnits="userSpaceOnUse"><stop id="q" stop-color="#ebb0b0" offset="0"/><stop id="r" stop-color="#f25151" offset="1"/></linearGradient><linearGradient id="e" x1="36.5" x2="11.5" y1="41" y2="16" gradientTransform="matrix(.52 0 0 .52 49.52 3.68)" gradientUnits="userSpaceOnUse" xlink:href="#a"/><linearGradient id="h" x1="67.5" x2="56.5" y1="24" y2="13" gradientTransform="translate(-38,10)" gradientUnits="userSpaceOnUse"><stop id="s" stop-color="#208c4e" offset="0"/><stop id="t" stop-color="#2383c5" offset="1"/></linearGradient></defs><g id="u" display="none"><g id="v" display="inline" fill="#fff"><g id="w"><circle id="x" cx="24" cy="28.5" r="15.5"/><rect id="y" x="12" y="15" width="3" height="11"/><rect id="z" x="33" y="15" width="3" height="11"/></g><path id="aa" d="m24 3c-6.6274 0-12 5.3726-12 12 0.0056 2.9148 1.072 5.7279 3 7.9141v-7.9141c0-4.9706 4.0294-9 9-9s9 4.0294 9 9v7.9219c1.9298-2.1881 2.9963-5.0044 3-7.9219 0-6.6274-5.3726-12-12-12zm9 19.922-18-0.0078z" display="inline"/></g></g><g id="ab"><g id="ac" fill="url(#c)"><path id="ad" d="m24 3c-6.6274 0-12 5.3726-12 12v3.7031a15.5 15.5 0 0 0-3.5 9.7969 15.5 15.5 0 0 0 15.5 15.5 15.5 15.5 0 0 0 15.5-15.5 15.5 15.5 0 0 0-3.5-9.7949v-3.7051c0-6.6274-5.3726-12-12-12zm0 3c4.9706 0 9 4.0294 9 9v0.89453a15.5 15.5 0 0 0-9-2.8945 15.5 15.5 0 0 0-9 2.9043v-0.9043c0-4.9706 4.0294-9 9-9z" fill="url(#c)"/></g><g id="ae" transform="translate(41 2.3555)" fill="url(#b)"><path id="af" transform="translate(-41 -2.3555)" d="m24 13a15.5 15.5 0 0 0-1 0.052734v4.0918h2v-4.0918a15.5 15.5 0 0 0-1-0.052734z" fill="url(#b)"/></g><path id="ag" d="m8.5234 27.961c-0.01094 0.17954-0.018754 0.35925-0.023438 0.53906 0 8.5604 6.9396 15.5 15.5 15.5s15.5-6.9396 15.5-15.5c-0.0053-0.13811-0.01248-0.27614-0.02148-0.41406-0.31484 8.3224-7.1501 14.908-15.479 14.914-8.3745-0.00896-15.228-6.6683-15.477-15.039z" fill="#000" fill-opacity=".26697"/></g><g id="ah"><path id="ai" d="M 36.5,28.5 A 12.5,12.5 0 0 1 24,41 12.5,12.5 0 0 1 11.5,28.5 12.5,12.5 0 0 1 24,16 12.5,12.5 0 0 1 36.5,28.5 Z" fill="url(#g)"/><path id="aj" d="M 24,16 A 12.5,12.5 0 0 0 11.5,28.5 12.5,12.5 0 0 0 24,41 12.5,12.5 0 0 0 36.5,28.5 12.5,12.5 0 0 0 24,16 Z m 0,1 A 11.5,11.5 0 0 1 35.5,28.5 11.5,11.5 0 0 1 24,40 11.5,11.5 0 0 1 12.5,28.5 11.5,11.5 0 0 1 24,17 Z" fill="#000" fill-opacity=".063348"/></g><g id="ak" display="none"><path id="al" d="m33.5 28.5c0 2.6234-1.0633 4.9984-2.7825 6.7175-1.7192 1.7192-4.0942 2.7825-6.7175 2.7825s-4.9984-1.0633-6.7175-2.7825c-1.7192-1.7192-2.7825-4.0942-2.7825-6.7175s1.0633-4.9984 2.7825-6.7175c1.7192-1.7192 4.0942-2.7825 6.7175-2.7825s4.9984 1.0633 6.7175 2.7825c1.7192 1.7192 2.7825 4.0942 2.7825 6.7175z" fill="#8dc5eb"/></g><g id="am" fill="none" stroke="#11d116" stroke-linejoin="miter" stroke-miterlimit="4" stroke-width="2"><path id="an" d="m24 17.5v3"/><path id="ao" d="m24 36.5v3"/><path id="ap" d="m32 28.5h3"/><path id="aq" d="m13 28.5h3"/><path id="ar" d="m16.575 21.075 1.4142 1.4142"/><path id="as" d="m30.01 34.51 1.4142 1.4142"/><path id="at" d="m30.01 22.49 1.4142-1.4142"/><path id="au" d="m16.575 35.925 1.4142-1.4142"/></g><g id="av"><path id="aw" d="m44 39.308-15.404-15.404-9.1924 9.1924 24.596 24.596z" fill="url(#d)"/></g><g id="ax"><path id="ay" d="m30.5 28.5a6.5 6.5 0 0 1-6.5 6.5 6.5 6.5 0 0 1-6.5-6.5 6.5 6.5 0 0 1 6.5-6.5 6.5 6.5 0 0 1 6.5 6.5z" fill="url(#f)"/><path id="az" d="m68.5 18.5a6.5 6.5 0 0 1-6.5 6.5 6.5 6.5 0 0 1-6.5-6.5 6.5 6.5 0 0 1 6.5-6.5 6.5 6.5 0 0 1 6.5 6.5z" fill="url(#e)"/><path id="ba" d="m24 23a5.5 5.5 0 0 0-5.5 5.5 5.5 5.5 0 0 0 5.5 5.5 5.5 5.5 0 0 0 5.5-5.5 5.5 5.5 0 0 0-5.5-5.5zm0 1a4.5 4.5 0 0 1 4.5 4.5 4.5 4.5 0 0 1-4.5 4.5 4.5 4.5 0 0 1-4.5-4.5 4.5 4.5 0 0 1 4.5-4.5z" fill="url(#h)"/></g></svg>
