<?xml version="1.0" encoding="UTF-8"?>
<svg id="a" enable-background="new" version="1.0" viewBox="0 0 16 16" xmlns="http://www.w3.org/2000/svg"><title id="b">Adwaita Icon Template</title><rect id="c" x=".5" y=".5" width="15" height="15" rx="2" ry="2" enable-background="new" fill="#00aade" stroke="#006888" stroke-linejoin="miter" stroke-miterlimit="4" stroke-width="1" style="paint-order:normal"/><path id="d" d="m7.1777 2.25-0.63672 1.916c-0.073928 0.02793-0.14842 0.056987-0.2207 0.089844l-1.8047-0.90234-1.1621 1.1621 0.9043 1.8066c-0.03387 0.071896-0.066061 0.14501-0.095703 0.21875l-1.9121 0.63672v1.6445l1.916 0.63672c0.027926 0.07393 0.056985 0.14842 0.089844 0.2207l-0.90234 1.8047 1.1621 1.1621 1.8066-0.9043c0.071463 0.034499 0.14482 0.066123 0.21875 0.095703l0.63672 1.9121h1.6445l0.63672-1.916c0.07393-0.02793 0.14842-0.056973 0.2207-0.089843l1.8047 0.90234 1.1621-1.1621-0.9043-1.8066c0.034499-0.071464 0.066133-0.14482 0.095703-0.21875l1.9121-0.63672v-1.6445l-1.916-0.63672c-0.027982-0.07424-0.0576-0.14821-0.089843-0.2207l0.90234-1.8047-1.1621-1.1621-1.8066 0.9043c-0.071895-0.033873-0.14501-0.066065-0.21875-0.095703l-0.63672-1.9121h-1.6445zm0.82227 3.75a2 2 0 0 1 2 2 2 2 0 0 1-2 2 2 2 0 0 1-2-2 2 2 0 0 1 2-2z" enable-background="new" fill="#c1ebf7" stroke="#006888" stroke-miterlimit="4" stroke-width=".5"/></svg>
