<?xml version="1.0" encoding="UTF-8"?>
<svg id="e" enable-background="new" version="1.0" viewBox="0 0 128 128" xmlns="http://www.w3.org/2000/svg" xmlns:xlink="http://www.w3.org/1999/xlink"><title id="f">Adwaita Icon Template</title><defs id="g"><radialGradient id="c" cx="106.67" cy="-60.348" r="225" gradientTransform="matrix(.21429 0 0 .32237 9.1429 245.59)" gradientUnits="userSpaceOnUse"><stop id="h" stop-color="#50dbb5" offset="0"/><stop id="i" stop-color="#4a86cf" offset="1"/></radialGradient><radialGradient id="b" cx="276.59" cy="218.28" r="225" gradientTransform="matrix(.38857 0 0 .52385 -35.474 148.05)" gradientUnits="userSpaceOnUse"><stop id="j" stop-color="#98c1f1" offset="0"/><stop id="k" stop-color="#2dc0af" stop-opacity=".1378" offset="1"/></radialGradient><radialGradient id="a" cx="317.76" cy="86.748" r="225" gradientTransform="matrix(.38857 0 0 .27573 -35.474 -281.79)" gradientUnits="userSpaceOnUse"><stop id="l" stop-color="#1a5fb4" offset="0"/><stop id="m" stop-color="#98c1f1" stop-opacity="0" offset="1"/></radialGradient><linearGradient id="d" x1="88.596" x2="536.6" y1="-449.39" y2="-449.39" gradientTransform="matrix(.25 0 0 .25 -14.149 400.35)" gradientUnits="userSpaceOnUse"><stop id="n" stop-color="#77767b" offset="0"/><stop id="o" stop-color="#c0bfbc" offset=".035714"/><stop id="p" stop-color="#9a9996" offset=".071365"/><stop id="q" stop-color="#9a9996" offset=".92857"/><stop id="r" stop-color="#c0bfbc" offset=".96429"/><stop id="s" stop-color="#77767b" offset="1"/></linearGradient></defs><g id="t" transform="translate(0,-172)"><g id="u"><rect id="v" x="8" y="212" width="112" height="76" rx="8" ry="8" enable-background="new" fill="url(#d)" style="paint-order:normal"/><text id="w" x="-72" y="4" fill="#000000" font-family="sans-serif" font-size="40px" letter-spacing="0px" word-spacing="0px" style="line-height:1.25" xml:space="preserve"><tspan id="x" x="-72" y="39.390625"/></text><rect id="y" x="8" y="200" width="112" height="84" rx="8" ry="8" enable-background="new" fill="#deddda" style="paint-order:normal"/><rect id="z" x="12" y="204" width="104" height="76" rx="4" ry="4" enable-background="new" fill="#241f31" style="paint-order:normal"/><rect id="aa" x="16" y="208" width="96" height="68" enable-background="new" fill="url(#c)" style="paint-order:normal"/><rect id="ab" transform="scale(1,-1)" x="16" y="-276" width="96" height="68" enable-background="new" fill="url(#a)" opacity=".5" style="paint-order:normal"/><rect id="ac" x="16" y="208" width="96" height="68" enable-background="new" fill="url(#b)" opacity=".5" style="paint-order:normal"/><rect id="ad" x="16" y="208" width="96" height="68" enable-background="new" fill="#1a5fb4" opacity=".242" style="paint-order:normal"/><path id="ae" d="m60 228c-1.1 0-2 0.9-2 2v2h-6c-1.104 0-2 0.9-2 2v16c0 1.1 0.896 2 2 2h24c1.104 0 2-0.9 2-2v-16c0-1.1-0.896-2-2-2h-6v-2c0-1.1-0.9-2-2-2zm4 6a8 8 0 1 1 0 16 8 8 0 0 1 0-16zm0 4a4 4 0 1 0 0 8 4 4 0 0 0 0-8z" color="#bebebe" enable-background="new" fill="#fff" overflow="visible"/><g id="af" transform="translate(0,12)" fill="none" opacity=".5" stroke="#fff" stroke-linecap="round" stroke-width="2"><path id="ag" d="m19 209v-10h10" enable-background="new"/><path id="ah" d="m109.01 209v-10h-10" enable-background="new"/><path id="ai" d="m109.01 251.01v10h-10" enable-background="new"/><path id="aj" d="m19 251.01v10h10" enable-background="new"/></g></g></g></svg>
