<?xml version="1.0" encoding="UTF-8"?>
<svg id="a" version="1.1" viewBox="0 0 32 32" xmlns="http://www.w3.org/2000/svg" xmlns:xlink="http://www.w3.org/1999/xlink"><g id="b" transform="translate(0,31.991)" fill="#2e3436"><rect id="c" x="41.484" y="-30.507" width="29.032" height="29.032" rx="2.0737" ry="2.2996" enable-background="new" fill="#00aade" stroke="#006888" stroke-linejoin="miter" stroke-miterlimit="4" stroke-width=".96774" style="paint-order:normal"/><rect id="d" x="100" y="-35.991" width="8" height="8" rx="1" ry="1" enable-background="new" fill="#a7b0b7" style="paint-order:normal"/><rect id="e" x="88" y="-35.991" width="8" height="8" rx="1" ry="1" enable-background="new" fill="#a7b0b7" style="paint-order:normal"/><rect id="f" x="88" y="-59.991" width="8" height="8" rx="1" ry="1" enable-background="new" fill="#a7b0b7" style="paint-order:normal"/><rect id="g" x="100" y="-71.991" width="8" height="20" rx="1" ry="1" enable-background="new" fill="#758087" style="paint-order:normal"/><rect id="h" x="76" y="-59.991" width="8" height="8" rx="1" ry="1" enable-background="new" fill="#a7b0b7" style="paint-order:normal"/><rect id="i" x="84" y="-71.991" width="8" height="8" rx="1" ry="1" enable-background="new" fill="#a7b0b7" style="paint-order:normal"/><rect id="j" x="96" y="-71.991" width="8" height="8" rx="1" ry="1" enable-background="new" fill="#758087" style="paint-order:normal"/><rect id="k" x="72" y="-71.991" width="8" height="8" rx="1" ry="1" enable-background="new" fill="#a7b0b7" style="paint-order:normal"/><rect id="l" x="60" y="-71.991" width="8" height="8" rx="1" ry="1" enable-background="new" fill="#a7b0b7" style="paint-order:normal"/><rect id="m" x="48" y="-71.991" width="8" height="8" rx="1" ry="1" enable-background="new" fill="#a7b0b7" style="paint-order:normal"/><rect id="n" x="36" y="-71.991" width="8" height="8" rx="1" ry="1" enable-background="new" fill="#a7b0b7" style="paint-order:normal"/><rect id="o" x="36" y="-71.991" width="8" height="8" rx="1" ry="1" enable-background="new" fill="#a7b0b7" style="paint-order:normal"/><rect id="p" x="20" y="-71.991" width="12" height="8" rx="1.2" ry="1" enable-background="new" fill="#758087" style="paint-order:normal"/><rect id="q" x="64" y="-59.991" width="8" height="8" rx="1" ry="1" enable-background="new" fill="#a7b0b7" style="paint-order:normal"/><rect id="r" x="52" y="-59.991" width="8" height="8" rx="1" ry="1" enable-background="new" fill="#a7b0b7" style="paint-order:normal"/><rect id="s" x="40" y="-59.991" width="8" height="8" rx="1" ry="1" enable-background="new" fill="#a7b0b7" style="paint-order:normal"/><rect id="t" x="20" y="-59.991" width="16" height="8" rx="1" ry="1" enable-background="new" fill="#758087" style="paint-order:normal"/><rect id="u" x="80" y="-47.991" width="8" height="8" rx="1" ry="1" enable-background="new" fill="#a7b0b7" style="paint-order:normal"/><rect id="v" x="68" y="-47.991" width="8" height="8" rx="1" ry="1" enable-background="new" fill="#a7b0b7" style="paint-order:normal"/><rect id="w" x="56" y="-47.991" width="8" height="8" rx="1" ry="1" enable-background="new" fill="#a7b0b7" style="paint-order:normal"/><rect id="x" x="44" y="-47.991" width="8" height="8" rx="1" ry="1" enable-background="new" fill="#a7b0b7" style="paint-order:normal"/><rect id="y" x="44" y="-47.991" width="8" height="8" rx="1" ry="1" enable-background="new" fill="#a7b0b7" style="paint-order:normal"/><rect id="z" x="32" y="-47.991" width="8" height="8" rx="1" ry="1" enable-background="new" fill="#a7b0b7" style="paint-order:normal"/><rect id="aa" x="20" y="-47.991" width="8" height="8" rx="1" ry="1" enable-background="new" fill="#a7b0b7" style="paint-order:normal"/><rect id="ab" x="92" y="-47.991" width="16" height="8" rx="1" ry="1" enable-background="new" fill="#758087" style="paint-order:normal"/><g id="ac" transform="translate(-42,-4)" opacity=".33"><rect id="ad" x="2" y="-24.991" width="28" height="19" rx="2.1" ry="2.5909" enable-background="new" fill="#d2d8dc" opacity="1" style="paint-order:normal"/><rect id="ae" x="3" y="-20.991" width="26" height="14" rx="1.95" ry="1.9091" enable-background="new" fill="#bcc5ca" opacity="1" style="paint-order:normal"/><rect id="af" x="3" y="-23.991" width="26" height="16" rx="1.95" ry="2.1818" enable-background="new" fill="#f1f3f5" opacity="1" style="paint-order:normal"/><rect id="ag" x="8" y="-11.991" width="12" height="2" rx=".25" ry=".25" enable-background="new" fill="#758087" opacity="1" style="paint-order:normal"/><rect id="ah" x="24" y="-15.991" width="4" height="2" rx=".25" ry=".25" enable-background="new" fill="#758087" opacity="1" style="paint-order:normal"/><rect id="ai" x="21" y="-21.991" width="2" height="2" rx=".25" ry=".25" enable-background="new" fill="#a7b0b7" opacity="1" style="paint-order:normal"/><rect id="aj" x="17" y="-21.991" width="2" height="2" rx=".25" ry=".25" enable-background="new" fill="#a7b0b7" opacity="1" style="paint-order:normal"/><rect id="ak" x="13" y="-21.991" width="2" height="2" rx=".25" ry=".25" enable-background="new" fill="#a7b0b7" opacity="1" style="paint-order:normal"/><rect id="al" x="9" y="-21.991" width="2" height="2" rx=".25" ry=".25" enable-background="new" fill="#a7b0b7" opacity="1" style="paint-order:normal"/><rect id="am" x="4" y="-21.991" width="3" height="2" rx=".26722" ry=".29691" enable-background="new" fill="#758087" opacity="1" style="paint-order:normal"/><rect id="an" x="4" y="-18.991" width="4" height="2" rx=".25" ry=".25" enable-background="new" fill="#758087" opacity="1" style="paint-order:normal"/><rect id="ao" x="25" y="-21.991" width="3" height="2" rx=".26722" ry=".29691" enable-background="new" fill="#758087" opacity="1" style="paint-order:normal"/><rect id="ap" transform="rotate(-90)" x="16.991" y="26" width="4" height="2" rx=".25" ry=".25" enable-background="new" fill="#758087" opacity="1" style="paint-order:normal"/><rect id="aq" x="10" y="-18.991" width="2" height="2" rx=".25" ry=".25" enable-background="new" fill="#a7b0b7" opacity="1" style="paint-order:normal"/><rect id="ar" x="14" y="-18.991" width="2" height="2" rx=".25" ry=".25" enable-background="new" fill="#a7b0b7" opacity="1" style="paint-order:normal"/><rect id="as" x="18" y="-18.991" width="2" height="2" rx=".25" ry=".25" enable-background="new" fill="#a7b0b7" opacity="1" style="paint-order:normal"/><rect id="at" x="22" y="-18.991" width="2" height="2" rx=".25" ry=".25" enable-background="new" fill="#a7b0b7" opacity="1" style="paint-order:normal"/><rect id="au" x="4" y="-15.991" width="2" height="2" rx=".25" ry=".25" enable-background="new" fill="#a7b0b7" opacity="1" style="paint-order:normal"/><rect id="av" x="8" y="-15.991" width="2" height="2" rx=".25" ry=".25" enable-background="new" fill="#a7b0b7" opacity="1" style="paint-order:normal"/><rect id="aw" x="12" y="-15.991" width="2" height="2" rx=".25" ry=".25" enable-background="new" fill="#a7b0b7" opacity="1" style="paint-order:normal"/><rect id="ax" x="16" y="-15.991" width="2" height="2" rx=".25" ry=".25" enable-background="new" fill="#a7b0b7" opacity="1" style="paint-order:normal"/><rect id="ay" x="20" y="-15.991" width="2" height="2" rx=".25" ry=".25" enable-background="new" fill="#a7b0b7" opacity="1" style="paint-order:normal"/><rect id="az" x="4" y="-11.991" width="2" height="2" rx=".25" ry=".25" enable-background="new" fill="#a7b0b7" opacity="1" style="paint-order:normal"/><rect id="ba" x="22" y="-11.991" width="2" height="2" rx=".25" ry=".25" enable-background="new" fill="#a7b0b7" opacity="1" style="paint-order:normal"/><rect id="bb" x="26" y="-11.991" width="2" height="2" rx=".25" ry=".25" enable-background="new" fill="#a7b0b7" opacity="1" style="paint-order:normal"/></g><g id="bc" transform="translate(0 -3)"><rect id="bd" x="2" y="-24.991" width="28" height="19" rx="2.1" ry="2.5909" enable-background="new" fill="#d2d8dc" style="paint-order:normal"/><rect id="be" x="3" y="-20.991" width="26" height="14" rx="1.95" ry="1.9091" enable-background="new" fill="#bcc5ca" style="paint-order:normal"/><rect id="bf" x="3" y="-23.991" width="26" height="16" rx="1.95" ry="2.1818" enable-background="new" fill="#f1f3f5" style="paint-order:normal"/><rect id="bg" x="8" y="-11.991" width="12" height="2" rx=".25" ry=".25" enable-background="new" fill="#758087" style="paint-order:normal"/><rect id="bh" x="24" y="-15.991" width="4" height="2" rx=".25" ry=".25" enable-background="new" fill="#758087" style="paint-order:normal"/><rect id="bi" x="21" y="-21.991" width="2" height="2" rx=".25" ry=".25" enable-background="new" fill="#a7b0b7" style="paint-order:normal"/><rect id="bj" x="17" y="-21.991" width="2" height="2" rx=".25" ry=".25" enable-background="new" fill="#a7b0b7" style="paint-order:normal"/><rect id="bk" x="13" y="-21.991" width="2" height="2" rx=".25" ry=".25" enable-background="new" fill="#a7b0b7" style="paint-order:normal"/><rect id="bl" x="9" y="-21.991" width="2" height="2" rx=".25" ry=".25" enable-background="new" fill="#a7b0b7" style="paint-order:normal"/><rect id="bm" x="4" y="-21.991" width="3" height="2" rx=".26722" ry=".29691" enable-background="new" fill="#758087" style="paint-order:normal"/><rect id="bn" x="4" y="-18.991" width="4" height="2" rx=".25" ry=".25" enable-background="new" fill="#758087" style="paint-order:normal"/><rect id="bo" x="25" y="-21.991" width="3" height="2" rx=".26722" ry=".29691" enable-background="new" fill="#758087" style="paint-order:normal"/><rect id="bp" transform="rotate(-90)" x="16.991" y="26" width="4" height="2" rx=".25" ry=".25" enable-background="new" fill="#758087" style="paint-order:normal"/><rect id="bq" x="10" y="-18.991" width="2" height="2" rx=".25" ry=".25" enable-background="new" fill="#a7b0b7" style="paint-order:normal"/><rect id="br" x="14" y="-18.991" width="2" height="2" rx=".25" ry=".25" enable-background="new" fill="#a7b0b7" style="paint-order:normal"/><rect id="bs" x="18" y="-18.991" width="2" height="2" rx=".25" ry=".25" enable-background="new" fill="#a7b0b7" style="paint-order:normal"/><rect id="bt" x="22" y="-18.991" width="2" height="2" rx=".25" ry=".25" enable-background="new" fill="#a7b0b7" style="paint-order:normal"/><rect id="bu" x="4" y="-15.991" width="2" height="2" rx=".25" ry=".25" enable-background="new" fill="#a7b0b7" style="paint-order:normal"/><rect id="bv" x="8" y="-15.991" width="2" height="2" rx=".25" ry=".25" enable-background="new" fill="#a7b0b7" style="paint-order:normal"/><rect id="bw" x="12" y="-15.991" width="2" height="2" rx=".25" ry=".25" enable-background="new" fill="#a7b0b7" style="paint-order:normal"/><rect id="bx" x="16" y="-15.991" width="2" height="2" rx=".25" ry=".25" enable-background="new" fill="#a7b0b7" style="paint-order:normal"/><rect id="by" x="20" y="-15.991" width="2" height="2" rx=".25" ry=".25" enable-background="new" fill="#a7b0b7" style="paint-order:normal"/><rect id="bz" x="4" y="-11.991" width="2" height="2" rx=".25" ry=".25" enable-background="new" fill="#a7b0b7" style="paint-order:normal"/><rect id="ca" x="22" y="-11.991" width="2" height="2" rx=".25" ry=".25" enable-background="new" fill="#a7b0b7" style="paint-order:normal"/><rect id="cb" x="26" y="-11.991" width="2" height="2" rx=".25" ry=".25" enable-background="new" fill="#a7b0b7" style="paint-order:normal"/></g><path id="cc" d="m10-7.991h10v2h-10z" fill="none"/><g id="cd" transform="translate(0 -.99969)"><path id="ce" d="m5.25-6.991 6.25-5v10z" fill="#aef766" stroke="#6acc0a" stroke-linejoin="miter" stroke-width="1px"/><path id="cf" d="m26.75-6.991-6.25-5v10z" fill="#aef766" stroke="#6acc0a" stroke-linejoin="miter" stroke-width="1px"/><path id="cg" d="m11-8.991h10v4h-10z" fill="#6acc0a"/><path id="ch" d="m11-7.991h10v2h-10z" fill="#aef766"/></g></g></svg>
