<?xml version="1.0" encoding="UTF-8"?>
<svg id="q" width="64" height="64" version="1.1" viewBox="0 0 16.933 16.933" xmlns="http://www.w3.org/2000/svg" xmlns:xlink="http://www.w3.org/1999/xlink"><defs id="r"><linearGradient id="c"><stop id="s" stop-color="#ec4520" offset="0"/><stop id="t" stop-color="#f58517" offset="1"/></linearGradient><linearGradient id="a"><stop id="u" stop-color="#548fed" offset="0"/><stop id="v" stop-color="#5ebae3" offset="1"/></linearGradient><linearGradient id="b"><stop id="w" stop-color="#8ae234" offset="0"/><stop id="x" stop-color="#47e767" offset="1"/></linearGradient><linearGradient id="m" x1="4.9328" x2="7.0494" y1="4.305" y2="4.305" gradientUnits="userSpaceOnUse" xlink:href="#b"/><linearGradient id="l" x1="7.0494" x2="9.1661" y1="6.4216" y2="6.4216" gradientUnits="userSpaceOnUse" xlink:href="#b"/><linearGradient id="k" x1="11.283" x2="13.399" y1="10.655" y2="10.655" gradientUnits="userSpaceOnUse" xlink:href="#b"/><linearGradient id="j" x1="11.283" x2="13.399" y1="4.305" y2="4.305" gradientUnits="userSpaceOnUse" xlink:href="#a"/><linearGradient id="i" x1="4.9328" x2="7.0494" y1="10.655" y2="10.655" gradientUnits="userSpaceOnUse" xlink:href="#a"/><linearGradient id="h" x1="7.0494" x2="9.1661" y1="8.5382" y2="8.5382" gradientUnits="userSpaceOnUse" xlink:href="#a"/><linearGradient id="g" x1="9.1661" x2="11.283" y1="10.655" y2="10.655" gradientUnits="userSpaceOnUse" xlink:href="#a"/><linearGradient id="f" x1="9.1661" x2="11.283" y1="6.4216" y2="6.4216" gradientUnits="userSpaceOnUse" xlink:href="#a"/><linearGradient id="e" x1="11.283" x2="13.399" y1="8.5382" y2="8.5382" gradientUnits="userSpaceOnUse" xlink:href="#c"/><linearGradient id="d" x1="7.0494" x2="9.1661" y1="4.305" y2="4.305" gradientUnits="userSpaceOnUse" xlink:href="#c"/><filter id="o" x="-.06" y="-.06" width="1.12" height="1.12" color-interpolation-filters="sRGB"><feGaussianBlur id="y" stdDeviation="0.21166249"/></filter><filter id="p" x="-.027" y="-.027" width="1.054" height="1.054" color-interpolation-filters="sRGB"><feGaussianBlur id="z" stdDeviation="0.61875"/></filter><linearGradient id="n" x1="-127" x2="-72" y1="60" y2="5" gradientTransform="translate(203.93 -.054156)" gradientUnits="userSpaceOnUse"><stop id="aa" stop-color="#1d2123" offset="0"/><stop id="ab" stop-color="#33393e" stop-opacity=".99608" offset="1"/></linearGradient></defs><g id="ac" transform="matrix(.26458 0 0 .26458 -19.166 1.6e-7)"><rect id="ad" x="76.935" y="4.9558" width="55" height="55" ry="15" fill="#141414" filter="url(#p)" opacity=".3" stroke-linecap="round" stroke-width="2.7444"/><rect id="ae" x="76.935" y="4.9558" width="55" height="55" ry="15" fill="url(#n)" stroke-linecap="round" stroke-width="2.7444"/><circle id="af" cx="104.44" cy="32" r="30.001" fill-opacity="0" stroke-width="1.5715"/></g><g id="ag" transform="translate(-.69956 .98656)" filter="url(#o)" opacity=".35"><path id="ah" d="m5.9911 9.5966c-0.58419 0-1.0583 0.47412-1.0583 1.0583s0.47412 1.0583 1.0583 1.0583c0.58419 0 1.0583-0.47412 1.0583-1.0583s-0.47412-1.0583-1.0583-1.0583z"/><path id="ai" d="m10.224 9.5966c-0.58419 0-1.0583 0.47412-1.0583 1.0583s0.47412 1.0583 1.0583 1.0583c0.58419 0 1.0583-0.47412 1.0583-1.0583s-0.47412-1.0583-1.0583-1.0583z"/><path id="aj" d="m12.341 9.5966c-0.58419 0-1.0583 0.47412-1.0583 1.0583s0.47412 1.0583 1.0583 1.0583 1.0583-0.47412 1.0583-1.0583-0.47412-1.0583-1.0583-1.0583z"/><path id="ak" d="m8.1078 7.4799c-0.58419 0-1.0583 0.47412-1.0583 1.0583 0 0.58419 0.47412 1.0583 1.0583 1.0583s1.0583-0.47412 1.0583-1.0583c0-0.58419-0.47412-1.0583-1.0583-1.0583z"/><path id="al" d="m12.341 7.4799c-0.58419 0-1.0583 0.47412-1.0583 1.0583 0 0.58419 0.47412 1.0583 1.0583 1.0583s1.0583-0.47412 1.0583-1.0583c0-0.58419-0.47412-1.0583-1.0583-1.0583z"/><path id="am" d="m8.1078 5.3633c-0.58419 0-1.0583 0.47412-1.0583 1.0583s0.47412 1.0583 1.0583 1.0583 1.0583-0.47412 1.0583-1.0583-0.47412-1.0583-1.0583-1.0583z"/><path id="an" d="m10.224 5.3633c-0.58419 0-1.0583 0.47412-1.0583 1.0583s0.47412 1.0583 1.0583 1.0583c0.58419 0 1.0583-0.47412 1.0583-1.0583s-0.47412-1.0583-1.0583-1.0583z"/><path id="ao" d="m5.9911 3.2467c-0.58419 0-1.0583 0.47412-1.0583 1.0583 0 0.58419 0.47412 1.0583 1.0583 1.0583 0.58419 0 1.0583-0.47412 1.0583-1.0583 0-0.58419-0.47412-1.0583-1.0583-1.0583z"/><path id="ap" d="m8.1078 3.2467c-0.58419 0-1.0583 0.47412-1.0583 1.0583 0 0.58419 0.47412 1.0583 1.0583 1.0583s1.0583-0.47412 1.0583-1.0583c0-0.58419-0.47412-1.0583-1.0583-1.0583z"/><path id="aq" d="m12.341 3.2467c-0.58419 0-1.0583 0.47412-1.0583 1.0583 0 0.58419 0.47412 1.0583 1.0583 1.0583s1.0583-0.47412 1.0583-1.0583c0-0.58419-0.47412-1.0583-1.0583-1.0583z"/></g><g id="ar" transform="translate(-.69956 .98656)"><path id="as" d="m5.9911 9.5966c-0.58419 0-1.0583 0.47412-1.0583 1.0583s0.47412 1.0583 1.0583 1.0583c0.58419 0 1.0583-0.47412 1.0583-1.0583s-0.47412-1.0583-1.0583-1.0583z" fill="url(#i)"/><path id="at" d="m10.224 9.5966c-0.58419 0-1.0583 0.47412-1.0583 1.0583s0.47412 1.0583 1.0583 1.0583c0.58419 0 1.0583-0.47412 1.0583-1.0583s-0.47412-1.0583-1.0583-1.0583z" fill="url(#g)"/><path id="au" d="m12.341 9.5966c-0.58419 0-1.0583 0.47412-1.0583 1.0583s0.47412 1.0583 1.0583 1.0583 1.0583-0.47412 1.0583-1.0583-0.47412-1.0583-1.0583-1.0583z" fill="url(#k)"/><path id="av" d="m8.1078 7.4799c-0.58419 0-1.0583 0.47412-1.0583 1.0583 0 0.58419 0.47412 1.0583 1.0583 1.0583s1.0583-0.47412 1.0583-1.0583c0-0.58419-0.47412-1.0583-1.0583-1.0583z" fill="url(#h)"/><path id="aw" d="m12.341 7.4799c-0.58419 0-1.0583 0.47412-1.0583 1.0583 0 0.58419 0.47412 1.0583 1.0583 1.0583s1.0583-0.47412 1.0583-1.0583c0-0.58419-0.47412-1.0583-1.0583-1.0583z" fill="url(#e)"/><path id="ax" d="m8.1078 5.3633c-0.58419 0-1.0583 0.47412-1.0583 1.0583s0.47412 1.0583 1.0583 1.0583 1.0583-0.47412 1.0583-1.0583-0.47412-1.0583-1.0583-1.0583z" fill="url(#l)"/><path id="ay" d="m10.224 5.3633c-0.58419 0-1.0583 0.47412-1.0583 1.0583s0.47412 1.0583 1.0583 1.0583c0.58419 0 1.0583-0.47412 1.0583-1.0583s-0.47412-1.0583-1.0583-1.0583z" fill="url(#f)"/><path id="az" d="m5.9911 3.2467c-0.58419 0-1.0583 0.47412-1.0583 1.0583 0 0.58419 0.47412 1.0583 1.0583 1.0583 0.58419 0 1.0583-0.47412 1.0583-1.0583 0-0.58419-0.47412-1.0583-1.0583-1.0583z" fill="url(#m)"/><path id="ba" d="m8.1078 3.2467c-0.58419 0-1.0583 0.47412-1.0583 1.0583 0 0.58419 0.47412 1.0583 1.0583 1.0583s1.0583-0.47412 1.0583-1.0583c0-0.58419-0.47412-1.0583-1.0583-1.0583z" fill="url(#d)"/><path id="bb" d="m12.341 3.2467c-0.58419 0-1.0583 0.47412-1.0583 1.0583 0 0.58419 0.47412 1.0583 1.0583 1.0583s1.0583-0.47412 1.0583-1.0583c0-0.58419-0.47412-1.0583-1.0583-1.0583z" fill="url(#j)"/></g></svg>
