<?xml version="1.0" encoding="UTF-8"?>
<svg id="c" enable-background="new" version="1.0" viewBox="0 0 128 128" xmlns="http://www.w3.org/2000/svg" xmlns:xlink="http://www.w3.org/1999/xlink"><title id="d">Adwaita Icon Template</title><defs id="e"><linearGradient id="b" x1="13.916" x2="116" y1="264" y2="264" gradientTransform="matrix(1.1538 0 0 1.0345 -9.846 -6.0655)" gradientUnits="userSpaceOnUse"><stop id="f" stop-color="#e5a50a" offset="0"/><stop id="g" stop-color="#f8e45c" offset=".25551"/><stop id="h" stop-color="#e5a50a" offset="1"/></linearGradient><linearGradient id="a" x1="12" x2="19.416" y1="251.71" y2="251.71" gradientTransform="matrix(1.1538 0 0 1.0345 -9.846 -6.0655)" gradientUnits="userSpaceOnUse"><stop id="i" stop-color="#26a269" offset="0"/><stop id="j" stop-color="#2ec27e" offset="1"/></linearGradient></defs><g id="k" transform="translate(0,-172)"><g id="l"><path id="m" d="m4.0001 231.86v10.345h0.0045c-0.00138 12.646 4.9672 24.889 14.033 34.578l6e-6 -10.345c-2.6508-2.8328 1.7368-12.742-0.19156-15.957-4.667-7.7826-13.843-9.6715-13.842-18.62z" enable-background="new" fill="url(#a)"/><path id="n" d="m18.038 276.78 45.962-34.578v-14.482l-45.962 34.578z" enable-background="new" fill="#26a269"/><path id="o" d="m18.037 266.44c-14.988-16.014-18.27-38.364-8.4158-57.31 9.8546-18.947 31.061-31.059 54.378-31.059l13.846 28.965-13.846 24.827z" enable-background="new" fill="#57e389"/><rect id="p" x="64" y="229.79" width="60" height="13.655" enable-background="new" fill="#1a5fb4"/><path id="q" d="m64 176a60 53.792 0 0 1 60 53.792h-60z" enable-background="new" fill="#62a0ea"/><path id="r" d="m124 238.07c-0.0173 1.3814-0.094 2.7617-0.22987 4.1379 0.13587-1.3761 0.21254-2.7564 0.22987-4.1379zm-0.22987 4.1379c-1.8024 21.031-23.824 17.594-45.924 24.827-23.702 7.7348-43.594 22.936-59.808 5.6128v4.1379c16.214 17.323 42.781 23.704 66.484 15.97 23.702-7.7344 39.478-27.933 39.479-50.547z" enable-background="new" fill="url(#b)"/><path id="s" d="m124 238.07c0 22.614-15.776 42.814-39.479 50.548-23.703 7.7345-50.27 1.3523-66.484-15.971l45.963-34.577z" enable-background="new" fill="#f9f06b"/></g></g></svg>
