<?xml version="1.0" encoding="UTF-8"?>
<svg viewBox="0 0 128 128" xmlns="http://www.w3.org/2000/svg" xmlns:xlink="http://www.w3.org/1999/xlink"><defs><radialGradient id="d" cx="64" cy="203.71" r="48" gradientTransform="matrix(1 0 0 .98499 0 -168.65)" gradientUnits="userSpaceOnUse"><stop stop-color="#ed686f" offset="0"/><stop stop-color="#a51d2d" offset=".833"/><stop stop-color="#8a1f24" offset="1"/></radialGradient><radialGradient id="e" cx="64" cy="209.91" r="41.212" gradientTransform="matrix(1.5529 0 0 1.3103 -35.388 -243.05)" gradientUnits="userSpaceOnUse"><stop stop-color="#fff" offset="0"/><stop stop-color="#fff" offset=".519"/><stop stop-color="#cfcfcf" offset=".734"/><stop stop-color="#cecece" offset="1"/></radialGradient><linearGradient id="h" x1="46" x2="96.377" y1="104" y2="104" gradientTransform="translate(-8 -18)" gradientUnits="userSpaceOnUse"><stop stop-color="#9a9996" offset="0"/><stop stop-color="#c0bfbc" offset=".278"/><stop stop-color="#9f9e9b" offset=".774"/><stop stop-color="#77767b" offset="1"/></linearGradient><linearGradient id="k" x1="54" x2="66" y1="284" y2="284" gradientTransform="translate(0 -172)" gradientUnits="userSpaceOnUse"><stop stop-color="#c64600" offset="0"/><stop stop-color="#ff7800" offset="1"/></linearGradient><clipPath id="b"><path d="M0 0h192v152H0z"/></clipPath><clipPath id="c"><path d="M0 0h192v152H0z"/></clipPath><mask id="g"><g filter="url(#a)"><path d="M0 0h128v128H0z" fill-opacity=".1"/></g></mask><mask id="j"><g filter="url(#a)"><path d="M0 0h128v128H0z" fill-opacity=".3"/></g></mask><g id="i" clip-path="url(#c)"><path d="m44 100h56v2h-56z" fill="#fff"/></g><g id="f" clip-path="url(#b)"><path d="m91 116 8-13h-54l8.004 13z" fill-rule="evenodd"/></g><filter id="a" x="0%" y="0%" width="100%" height="100%"><feColorMatrix in="SourceGraphic" values="0 0 0 0 1 0 0 0 0 1 0 0 0 0 1 0 0 0 1 0"/></filter></defs><path d="m77 88-5 22" fill="none" stroke="#77767b" stroke-width="2"/><path d="M64 4c-12.355.09-24.879 4.074-34.176 12.215-4.652 4.066-8.449 9.133-10.898 14.805C16.48 36.695 15.402 42.977 16 49.125c.695 7.16 3.594 13.941 7.207 20.16a90.703 90.703 0 0014.398 18.7L44.395 100h37.96L91 87a114.167 114.167 0 0013.125-17.648c3.766-6.243 6.977-12.993 7.875-20.227.766-6.168-.207-12.52-2.613-18.254-2.403-5.734-6.219-10.848-10.907-14.93C89.105 7.773 76.434 3.911 64 4zm0 0" fill="url(#d)"/><path d="M65.262 4.016c-17.219 2.597-33.532 8.3-40.848 28.23C17.81 56.95 28.074 68.863 41.09 88l5.851 12.008h7.922C49.938 85.496 37.777 60.34 37.777 47.703c0-37.058 27.282-43.558 27.485-43.687zm.004 0c.07.187 8.511 17.238 8.507 43.687 0 13.957-1.949 38.047-3.847 52.305H80c24.254-43.512 32.934-82.988-14.734-95.992zm0 0" fill="url(#e)"/><use transform="translate(-8 -16)" mask="url(#g)" xlink:href="#f"/><path d="m52 86 5 23" fill="none" stroke="#c0bfbc" stroke-width="2"/><path d="M80 110v11.316a4.666 4.666 0 01-4.676 4.676H52.676A4.666 4.666 0 0148 121.316V110zm0 0" fill="#c64600"/><path d="M37.457 86.395L49.562 109" fill="none" stroke="#9a9996" stroke-width="2"/><path d="m36 84v2s0 2 1.871 2h52.259c1.87 0 1.87-2 1.87-2v-2z" fill="url(#h)"/><use transform="translate(-8 -16)" mask="url(#j)" xlink:href="#i"/><path d="m90.5 87-12.063 22" fill="none" stroke="#77767b" stroke-width="2"/><path d="M80 108v11.316a4.666 4.666 0 01-4.676 4.676H52.676A4.666 4.666 0 0148 119.316V108zm0 0" fill="url(#k)"/></svg>
