<?xml version="1.0" encoding="UTF-8"?>
<svg fill="none" viewBox="0 0 50 50" xmlns="http://www.w3.org/2000/svg"><rect y="5" width="50" height="40" rx="5" fill="url(#i)"/><path d="m0 39v1c0 2.7614 2.2386 5 5 5h40c2.7614 0 5-2.2386 5-5v-1c0 2.7614-2.2386 5-5 5h-40c-2.7614 0-5-2.2386-5-5z" clip-rule="evenodd" fill="#000" fill-opacity=".2" fill-rule="evenodd"/><rect x="5" y="35" width="41" height="4" rx="2" fill="url(#h)"/><rect x="4.5" y="34.5" width="42" height="5" rx="2.5" stroke="#000" stroke-opacity=".1"/><rect x="27" y="27" width="19" height="4" rx="2" fill="url(#g)"/><rect x="26.5" y="26.5" width="20" height="5" rx="2.5" stroke="#000" stroke-opacity=".1"/><rect x="28" y="19" width="18" height="4" rx="2" fill="url(#f)"/><rect x="27.5" y="18.5" width="19" height="5" rx="2.5" stroke="#000" stroke-opacity=".1"/><rect x="28" y="11" width="18" height="4" rx="2" fill="url(#e)"/><rect x="27.5" y="10.5" width="19" height="5" rx="2.5" stroke="#000" stroke-opacity=".1"/><rect x="4" y="15" width="20" height="4" rx="2" fill="url(#d)"/><rect x="3.5" y="14.5" width="21" height="5" rx="2.5" stroke="#000" stroke-opacity=".1"/><rect x="4" y="23" width="20" height="4" rx="2" fill="url(#c)"/><rect x="3.5" y="22.5" width="21" height="5" rx="2.5" stroke="#000" stroke-opacity=".1"/><rect x="8" y="11" width="4" height="20" rx="2" fill="url(#b)"/><rect x="7.5" y="10.5" width="5" height="21" rx="2.5" stroke="#000" stroke-opacity=".1"/><rect x="16" y="11" width="4" height="20" rx="2" fill="url(#a)"/><rect x="15.5" y="10.5" width="5" height="21" rx="2.5" stroke="#000" stroke-opacity=".1"/><defs><linearGradient id="i" x2="39.024" y1="5" y2="53.78" gradientUnits="userSpaceOnUse"><stop stop-color="#3DAEE9" offset="0"/><stop stop-color="#1ABC9C" offset="1"/></linearGradient><linearGradient id="h" x1="25.5" x2="36.74" y1="25" y2="45.069" gradientUnits="userSpaceOnUse"><stop offset="0"/><stop stop-color="#2C3136" offset="1"/></linearGradient><linearGradient id="g" x1="36.5" x2="49.449" y1="17" y2="27.714" gradientUnits="userSpaceOnUse"><stop offset="0"/><stop stop-color="#2C3136" offset="1"/></linearGradient><linearGradient id="f" x1="37" x2="49.801" y1="9" y2="19.034" gradientUnits="userSpaceOnUse"><stop offset="0"/><stop stop-color="#2C3136" offset="1"/></linearGradient><linearGradient id="e" x1="37" x2="49.801" y1="1" y2="11.034" gradientUnits="userSpaceOnUse"><stop offset="0"/><stop stop-color="#2C3136" offset="1"/></linearGradient><linearGradient id="d" x1="14" x2="27.057" y1="5" y2="16.372" gradientUnits="userSpaceOnUse"><stop offset="0"/><stop stop-color="#2C3136" offset="1"/></linearGradient><linearGradient id="c" x1="14" x2="27.057" y1="13" y2="24.372" gradientUnits="userSpaceOnUse"><stop offset="0"/><stop stop-color="#2C3136" offset="1"/></linearGradient><linearGradient id="b" x1="10" x2="14.587" y1="-39" y2="-38.84" gradientUnits="userSpaceOnUse"><stop offset="0"/><stop stop-color="#2C3136" offset="1"/></linearGradient><linearGradient id="a" x1="18" x2="22.587" y1="-39" y2="-38.84" gradientUnits="userSpaceOnUse"><stop offset="0"/><stop stop-color="#2C3136" offset="1"/></linearGradient></defs></svg>
