<?xml version="1.0" encoding="UTF-8"?>
<svg viewBox="0 0 128 128" xmlns="http://www.w3.org/2000/svg" xmlns:xlink="http://www.w3.org/1999/xlink"><linearGradient id="a" gradientUnits="userSpaceOnUse"><stop stop-color="#424048" offset="0"/><stop offset="1"/></linearGradient><radialGradient id="i" cx="256" cy="-174.13" r="144" gradientTransform="matrix(.56173 0 0 -.56173 -79.802 13.177)" xlink:href="#a"/><linearGradient id="b" gradientUnits="userSpaceOnUse"><stop stop-color="#5e5c64" offset="0"/><stop stop-color="#9a9996" offset="1"/></linearGradient><linearGradient id="j" x1="367.57" x2="461.37" y1="1296.6" y2="1296.6" xlink:href="#b"/><linearGradient id="c" gradientUnits="userSpaceOnUse"><stop stop-color="#c061cb" offset="0"/><stop stop-color="#ed333b" offset="1"/></linearGradient><radialGradient id="k" cx="310.77" cy="-1.734" r="50" gradientTransform="matrix(1.6273 0 0 -1.6273 -456.65 44.335)" xlink:href="#c"/><linearGradient id="d" gradientUnits="userSpaceOnUse"><stop stop-color="#1c71d8" offset="0"/><stop stop-color="#c061cb" stop-opacity="0" offset="1"/></linearGradient><radialGradient id="l" cx="331.19" cy="2.223" r="50" gradientTransform="matrix(1.6273 0 0 -1.6273 -456.65 44.335)" xlink:href="#d"/><filter id="e" x="0%" y="0%" width="100%" height="100%"><feColorMatrix in="SourceGraphic" values="0 0 0 0 1 0 0 0 0 1 0 0 0 0 1 0 0 0 1 0"/></filter><mask id="n"><g filter="url(#e)"><path d="M0 0h128v128H0z" fill-opacity=".716"/></g></mask><linearGradient id="f" gradientUnits="userSpaceOnUse"><stop stop-color="#99c1f1" offset="0"/><stop stop-color="#3584e4" stop-opacity="0" offset="1"/></linearGradient><linearGradient id="o" x1="-58.316" x2="34.192" y1="296" y2="296" gradientTransform="matrix(0 .8025 .8025 0 -165.54 102.8)" xlink:href="#f"/><clipPath id="m"><path d="M0 0h192v152H0z"/></clipPath><linearGradient id="g" gradientUnits="userSpaceOnUse"><stop stop-color="#1c71d8" offset="0"/><stop stop-color="#c061cb" offset="1"/></linearGradient><linearGradient id="p" x1="266.21" x2="318.59" y1="-28.409" y2="-28.409" gradientTransform="rotate(-90 171.73 88.859) scale(.66414)" xlink:href="#g"/><mask id="r"><g filter="url(#e)"><path d="M0 0h128v128H0z" fill-opacity=".664"/></g></mask><linearGradient id="h" gradientUnits="userSpaceOnUse"><stop stop-color="#fff" offset="0"/><stop stop-color="#fff" stop-opacity="0" offset="1"/></linearGradient><linearGradient id="s" x1="320" x2="320" y1="93" y2="13" gradientTransform="matrix(.66 0 0 -.66 -139.2 91.88)" xlink:href="#h"/><clipPath id="q"><path d="M0 0h192v152H0z"/></clipPath><linearGradient id="t" x1="374.71" x2="454.23" y1="1296.6" y2="1296.6" xlink:href="#b"/><radialGradient id="u" cx="256" cy="-174.13" r="144" gradientTransform="matrix(.58333 0 0 -.58333 -85.333 11.222)" xlink:href="#a"/><linearGradient id="v" x1="367.7" x2="461.24" y1="1296.6" y2="1296.6" xlink:href="#b"/><radialGradient id="w" cx="310.77" cy="-1.734" r="50" gradientTransform="matrix(1.9787 0 0 -1.9787 -569.07 40.089)" xlink:href="#c"/><radialGradient id="x" cx="331.19" cy="2.223" r="50" gradientTransform="matrix(1.9787 0 0 -1.9787 -569.07 40.089)" xlink:href="#d"/><mask id="z"><g filter="url(#e)"><path d="M0 0h128v128H0z" fill-opacity=".716"/></g></mask><linearGradient id="ae" x1="-58.316" x2="34.192" y1="296" y2="296" gradientTransform="matrix(0 .93625 .93625 0 -205.13 106.6)" xlink:href="#f"/><clipPath id="y"><path d="M0 0h192v152H0z"/></clipPath><linearGradient id="ad" x1="266.21" x2="318.59" y1="-28.409" y2="-28.409" gradientTransform="matrix(0 -.8025 .8025 0 86.8 301.54)" xlink:href="#g"/><mask id="ab"><g filter="url(#e)"><path d="M0 0h128v128H0z" fill-opacity=".664"/></g></mask><linearGradient id="aa" x1="320" x2="320" y1="93" y2="13" gradientTransform="matrix(.8025 0 0 -.8025 -184.8 94.445)" xlink:href="#h"/><clipPath id="ac"><path d="M0 0h192v152H0z"/></clipPath><path d="M124 66c0 33.137-26.863 60-60 60S4 99.137 4 66 30.863 6 64 6s60 26.863 60 60zm0 0" fill="#deddda"/><path d="M124.125 64c0-33.207-26.918-60.125-60.125-60.125S3.875 30.793 3.875 64 30.793 124.125 64 124.125 124.125 97.207 124.125 64zm0 0" fill="#deddda"/><path d="m116 64c0-28.719-23.281-52-52-52s-52 23.281-52 52 23.281 52 52 52 52-23.281 52-52z" fill="url(#i)"/><path transform="rotate(90 855.55 505.08)" d="m460.47 1296.6c0 25.406-20.594 46-46 46s-46-20.594-46-46 20.593-46 46-46 46 20.594 46 46z" stroke="url(#j)" stroke-width="2"/><path d="m97 64c0-18.227-14.773-33-33-33s-33 14.773-33 33 14.773 33 33 33 33-14.773 33-33z" fill="url(#k)"/><path d="m97 64c0-18.227-14.773-33-33-33s-33 14.773-33 33 14.773 33 33 33 33-14.773 33-33z" fill="url(#l)"/><g transform="translate(-8 -16)" clip-path="url(#m)" mask="url(#n)"><path d="m72 104c13.254 0 24-10.746 24-24s-10.746-24-24-24-24 10.746-24 24 10.746 24 24 24z" fill="url(#o)"/></g><path d="m64 49c8.285 0 15 6.715 15 15s-6.715 15-15 15-15-6.715-15-15 6.715-15 15-15z" fill="url(#p)"/><g fill="#fff"><path d="m62.355 52.383c0-5.45-4.417-9.867-9.87-9.867-5.45 0-9.868 4.418-9.868 9.867s4.418 9.87 9.867 9.87c5.453 0 9.871-4.421 9.871-9.87z" fill-opacity=".831"/><path d="m83.738 78.7a4.936 4.936 0 0 0-9.87 0 4.938 4.938 0 0 0 4.937 4.937 4.937 4.937 0 0 0 4.933-4.938z" fill-opacity=".545"/><path d="m74.691 71.3a3.29 3.29 0 1 0-3.289 3.29 3.29 3.29 0 0 0 3.29-3.29z" fill-opacity=".606"/></g><g transform="translate(-8 -16)" clip-path="url(#q)" mask="url(#r)"><path d="m105 80c0-18.227-14.773-33-33-33s-33 14.773-33 33 14.773 33 33 33 33-14.773 33-33z" fill="url(#s)"/></g><path transform="rotate(90 855.55 505.08)" d="m453.47 1296.6c0 21.54-17.461 39-39 39-21.54 0-39-17.46-39-39 0-21.539 17.46-39 39-39 21.539 0 39 17.461 39 39z" fill="none" stroke="url(#t)" stroke-width="2"/><path d="M124.125 64c0-33.207-26.918-60.125-60.125-60.125S3.875 30.793 3.875 64 30.793 124.125 64 124.125 124.125 97.207 124.125 64zm0 0" fill="#f6f5f4"/><path d="m118 64c0-29.824-24.176-54-54-54s-54 24.176-54 54 24.176 54 54 54 54-24.176 54-54z" fill="url(#u)"/><path transform="rotate(90 855.55 505.08)" d="m460.35 1296.6c0 25.336-20.54 45.875-45.875 45.875-25.336 0-45.875-20.539-45.875-45.875s20.539-45.875 45.875-45.875c25.335 0 45.875 20.54 45.875 45.875z" stroke="url(#v)" stroke-width="1.791"/><path d="M104.125 64c0-22.16-17.965-40.125-40.125-40.125S23.875 41.84 23.875 64 41.84 104.125 64 104.125 104.125 86.16 104.125 64zm0 0" fill="url(#w)"/><path d="M104.125 64c0-22.16-17.965-40.125-40.125-40.125S23.875 41.84 23.875 64 41.84 104.125 64 104.125 104.125 86.16 104.125 64zm0 0" fill="url(#x)"/><g transform="translate(-8 -16)" clip-path="url(#y)" mask="url(#z)"><path d="m72 108c15.465 0 28-12.535 28-28s-12.535-28-28-28-28 12.535-28 28 12.535 28 28 28z" fill="url(#ae)"/></g><path d="M64 45.875c10.012 0 18.125 8.113 18.125 18.125S74.012 82.125 64 82.125 45.875 74.012 45.875 64 53.988 45.875 64 45.875zm0 0" fill="url(#ad)"/><path d="m62 49.875c0-6.629-5.371-12-12-12s-12 5.371-12 12 5.371 12 12 12 12-5.371 12-12z" fill="#fff" fill-opacity=".831"/><path d="m88 81.875c0-3.313-2.688-6-6-6s-6 2.688-6 6 2.688 6 6 6 6-2.688 6-6z" fill="#fff" fill-opacity=".545"/><path d="m77 72.875c0-2.21-1.79-4-4-4s-4 1.79-4 4 1.79 4 4 4 4-1.79 4-4z" fill="#fff" fill-opacity=".606"/><g transform="translate(-8 -16)" clip-path="url(#ac)" mask="url(#ab)"><path d="M112.125 80c0-22.16-17.965-40.125-40.125-40.125S31.875 57.84 31.875 80 49.84 120.125 72 120.125 112.125 102.16 112.125 80zm0 0" fill="url(#aa)"/></g></svg>
