<?xml version="1.0" encoding="UTF-8"?>
<svg id="a" version="1.0" viewBox="0 0 16 16" xmlns="http://www.w3.org/2000/svg"><g id="b" transform="translate(-27.366 -1015.3)"><path id="c" d="m29.448 1029.8-1.5058-1.5477 0.22548-0.2386c0.25121-0.2659 0.48626-0.5194 1.0115-1.0908 0.19544-0.2126 0.5354-0.581 0.75547-0.8186 0.22007-0.2375 0.50541-0.5465 0.6341-0.6866 0.42226-0.4594 0.89714-0.9751 1.4737-1.6007l0.56758-0.6158-0.15066-0.1589c-0.08287-0.087-0.57087-0.6271-1.0845-1.1992-1.2686-1.4134-1.6875-1.8795-1.701-1.8926-0.0063-0.011-0.29447-0.3266-0.6405-0.7125l-0.62915-0.7014 0.81276-0.781c1.6191-1.5559 1.7867-1.7173 2.1408-2.0608l0.35975-0.3494 0.17148 0.2165c0.09431 0.1189 0.64778 0.819 1.2299 1.5555 2.1159 2.677 2.3317 2.946 2.3561 2.9379 0.02329-0.011 0.42027-0.4666 1.6802-1.9419 0.55148-0.6456 0.6359-0.7442 0.67125-0.7833 0.0122-0.014 0.4028-0.4705 0.86798-1.0155l0.84578-0.9909 0.43496 0.4162c0.23923 0.2288 0.94219 0.8977 1.5621 1.4862l1.1272 1.07-0.39512 0.4123c-0.47343 0.4938-1.0822 1.1338-2.1822 2.2939-0.45005 0.4746-1.0532 1.1074-1.3404 1.4063-0.28717 0.2985-0.53566 0.5622-0.55221 0.5853-0.02779 0.04 0.0069 0.083 0.45741 0.5725 0.26812 0.2916 0.65708 0.7162 0.86437 0.9433 0.20728 0.227 0.63298 0.6912 0.94597 1.0312 0.313 0.3401 0.7055 0.7676 0.87222 0.95 0.31731 0.3472 0.42308 0.462 1.0629 1.1538l0.39116 0.4229-0.15553 0.1527c-0.08554 0.084-0.27182 0.2629-0.41396 0.3979-0.95901 0.9104-2.143 2.0396-2.4393 2.3263l-0.35026 0.3388-0.15683-0.1825c-0.24042-0.2799-1.1429-1.3633-3.2125-3.857-0.20209-0.2435-0.47268-0.5696-0.6013-0.7249-0.12863-0.1553-0.24169-0.2822-0.25125-0.2822-0.0095 0-0.27724 0.3152-0.59484 0.7006-0.3176 0.3853-0.673 0.816-0.78976 0.9572-0.11677 0.1412-0.30238 0.3665-0.41247 0.5004-0.20993 0.2553-0.26316 0.3197-1.2166 1.4725-0.32573 0.3938-0.72486 0.8768-0.88694 1.0732-0.16208 0.1963-0.30792 0.3683-0.32407 0.3822-0.02346 0.02-0.33308-0.2872-1.5352-1.5228z" fill="#00aade" stroke-width=".48227"/><circle id="d" cx="39.366" cy="1022.6" r="1.5" fill="#fff" fill-rule="evenodd" stop-color="#000000" stroke-linecap="square" stroke-width="1"/><g id="e" transform="matrix(.036234 0 0 .03724 8.4743 991.35)" fill="#070c0f" fill-rule="evenodd" stroke-width="19.207"><path id="f" d="m931.75 775.8c-2.2919-1.8958-20.265 26.462-16.291 29.405 2.3897 1.7878 17.315-28.394 16.291-29.405z"/><path id="g" d="m911.08 771.83c-1.1344-1.317-7.1537 29.243-4.3704 30.596 2.3897 1.7878 6.5518-29.006 4.3704-30.596z"/><path id="h" d="m490.39 737.47c-2.3537 1.2888 18.834 15.102 58.422 31.401 39.591 16.298 94.282 57.608 89.994 64.275-12.859 18.112-20.444 39.774-15.209 76.878 0.94406 6.5312-19.356 17.872-17.879 27.727 1.2348 7.4984 22.689-7.4337 25.035-4.4858 1.4354 5.2914-11.478 32.071-6.2588 33.985 3.8174 1.1344 37.376-31.844 39.326-31.294 55.342 16.731 127.35 4.0972 128.74 3.5673-0.13122-0.29067 51.814 24.421 56.329 21.468 11.388-12.332-21.582-29.713-16.085-36.655 2.4103-3.6347 40.157 13.647 42.017 8.9289 2.7062-8.1672-17.528-25.316-20.571-30.397-2.647-4.6843-3.2212-12.249 3.5673-16.982 6.791-4.7331 76.223-31.29 73.311-51.843-5.0341-37.346-88.055-39.771-89.396-42.914-0.63017-1.4765 3.6533-53.404-20.571-43.811-14.915 5.5512-2.7376 38.636-1.773 42.914 0.89001 3.9383-6.6357 3.5229-8.0531 1.7943-3.164-3.8637-13.611-38.349-25.932-32.191-17.281 9.528-1.0175 39.258-4.4644 40.223-6.4026 3.5782-6.0399 12.318-11.172 19.438-8.463 12.129-71.787-5.6811-92.258-6.921-14.987-0.88489-29.321 11.411-30.674 9.8474-18.248-18.274-56.002-50.095-97.363-60.665-23.195-6.2946-57.701-24.519-59.084-24.287zm361.92 69.872c3.9574 0 7.1559 3.6541 7.1559 8.1599 1e-5 4.5058-3.1985 8.1599-7.1559 8.1599-3.9574 0-7.1773-3.6541-7.1773-8.1599 1e-5 -4.5058 3.2198-8.1599 7.1773-8.1599zm-16.085 4.9558c3.0456 13.147 7.7996 17.337 22.066 16.918-18.158 16.651-29.194-11.879-22.066-16.918zm39.261 34.37c0.74297 0.0282 1.3149 0.19751 1.6875 0.55539 7.1537 2.593-30.743 16.239-30.995 14.312-0.39407-1.3754 22.125-15.139 29.307-14.867zm3.845 8.7366c0.39154-0.0303 0.73626 0.0219 1.0253 0.17089 6.7524 6.7087-21.378 21.584-21.062 21.062-2.2669-1.3698 14.163-20.777 20.037-21.233z"/></g></g></svg>
