<?xml version="1.0" encoding="UTF-8"?>
<svg id="a" enable-background="new" version="1.0" viewBox="0 0 16 16" xmlns="http://www.w3.org/2000/svg"><title id="b">Adwaita Icon Template</title><path id="c" d="m2.5 12.017 3.494-2.9794v2.9787c-0.79555 0.58865-2.6936 2.4176-3.494 3.0007z" enable-background="new" fill="#e6461d" stroke="#c02700" stroke-miterlimit="4" stroke-width="1"/><path id="d" d="m13.494 12.017-3.494-2.9794v2.9787c0.79555 0.58865 2.6936 2.4176 3.494 3.0007z" enable-background="new" fill="#e6461d" stroke="#c02700" stroke-miterlimit="4" stroke-width="1"/><path id="e" d="m10.58 13.5c1.6252-2.8895 0.7659-5.9436-0.0625-9h-5.0237c-0.79435 2.993-1.731 5.9847-0.086 9z" fill="#f1f3f5" stroke="#a7b0b7" stroke-linejoin="miter" stroke-miterlimit="4" stroke-width="1"/><path id="f" transform="scale(-1,1)" d="m-6.9999 7a1 1 0 0 1-0.99942 1 1 1 0 0 1-1.0006-0.99885 1 1 0 0 1 0.99827-1.0012 1 1 0 0 1 1.0017 0.99769" enable-background="new" fill="#00aade"/><rect id="g" x="7.5001" y="10.5" width="1" height="5" enable-background="new" fill="#e6461d" stroke="#c02700" stroke-miterlimit="4" stroke-width="1"/><path id="h" d="m6 3.5001 1.949-2.6669 2.051 2.6669z" fill="#e6461d" stroke="#c02700" stroke-linejoin="miter" stroke-miterlimit="4" stroke-width=".99969"/></svg>
