<?xml version="1.0" encoding="UTF-8"?>
<svg id="d" version="1.1" viewBox="0 0 128 128" xmlns="http://www.w3.org/2000/svg" xmlns:xlink="http://www.w3.org/1999/xlink"><defs id="e"><linearGradient id="c" x1="16.079" x2="16.079" y1="17" y2="17.034" gradientTransform="matrix(4 0 0 2 3.861e-6 12)" gradientUnits="userSpaceOnUse" xlink:href="#a"/><linearGradient id="a"><stop id="f" stop-color="#f1f3f5" stop-opacity=".5" offset="0"/><stop id="g" stop-color="#f1f3f5" stop-opacity="0" offset="1"/></linearGradient><linearGradient id="b" x1="16.079" x2="16.079" y1="17" y2="17.034" gradientTransform="matrix(4,0,0,2,0,45)" gradientUnits="userSpaceOnUse" xlink:href="#a"/></defs><g id="h"><rect id="i" x="12" y="20" width="104" height="93" rx="10" ry="9.5876" enable-background="new" fill="#263742" style="paint-order:normal"/><rect id="j" x="12" y="16" width="104" height="96" rx="10" ry="9.6" enable-background="new" fill="#344958" style="paint-order:normal"/><rect id="k" x="13" y="17" width="102" height="89" rx="9" ry="8.6129" enable-background="new" fill="#61757f" style="paint-order:normal"/><rect id="l" x="24" y="46" width="80" height="4" rx="2" ry="2" fill="#070c0f" fill-rule="evenodd" stop-color="#000000"/><rect id="m" x="24" y="79" width="80" height="4" rx="2" ry="2" fill="#070c0f" fill-rule="evenodd" stop-color="#000000"/><rect id="n" x="24" y="44" width="80" height="4" rx="2" ry="2" fill="#bcc5ca" fill-rule="evenodd" stop-color="#000000"/><rect id="o" x="24" y="77" width="80" height="4" rx="2" ry="2" fill="#bcc5ca" fill-rule="evenodd" stop-color="#000000"/><rect id="p" x="24" y="77" width="32" height="4" rx="2" ry="2" fill="#6acfec" fill-rule="evenodd" stop-color="#000000"/><rect id="q" x="24" y="44" width="56" height="4" rx="2" ry="2" fill="#6acfec" fill-rule="evenodd" stop-color="#000000"/><rect id="r" x="24" y="44" width="80" height="4" rx="2" ry="2" fill="url(#c)" fill-rule="evenodd" stop-color="#000000"/><rect id="s" x="24" y="77" width="80" height="4" rx="2" ry="2" fill="url(#b)" fill-rule="evenodd" stop-color="#000000"/><circle id="t" cx="76.5" cy="49" r="12.5" fill="#070c0f" fill-rule="evenodd" stop-color="#000000"/><circle id="u" cx="76.5" cy="46" r="12.5" fill="#6acfec" fill-rule="evenodd" stop-color="#000000"/><circle id="v" cx="76.5" cy="46" r="12.5" fill="none" stop-color="#000000" stroke="#0e141f" stroke-linecap="round" stroke-opacity=".50196" stroke-width="1"/><rect id="w" x="13.5" y="17.5" width="101" height="88" rx="8.5" ry="8.1304" enable-background="new" fill="none" stroke="#fafafa" stroke-linejoin="miter" stroke-miterlimit="4" stroke-opacity=".15" stroke-width="1" style="paint-order:normal"/><circle id="x" cx="50" cy="82" r="12.5" fill="#070c0f" fill-rule="evenodd" stop-color="#000000"/><circle id="y" cx="50" cy="79" r="12.5" fill="#6acfec" fill-rule="evenodd" stop-color="#000000"/><circle id="z" cx="50" cy="79" r="12.5" fill="none" stop-color="#000000" stroke="#0e141f" stroke-linecap="round" stroke-opacity=".50196" stroke-width="1"/><ellipse id="aa" cx="76.5" cy="46" rx="11.5" ry="11.5" fill="none" stop-color="#000000" stroke="#f1f3f5" stroke-linecap="round" stroke-opacity=".2" stroke-width="1"/><ellipse id="ab" cx="50" cy="79" rx="11.5" ry="11.5" fill="none" stop-color="#000000" stroke="#f1f3f5" stroke-linecap="round" stroke-opacity=".2" stroke-width="1"/><path id="ac" d="m79.297 49.043c0 0.19762-0.29692 0.25941-0.29688 0.45703v64.205c-3.09e-4 0.45515 0.55817 0.67401 0.86719 0.33984l13.406-15.008 8.1976 16.212c1.7555 3.4149 5.5298 4.2768 8.5561 3.2638 1.5132-0.50653 3.0664-1.4301 3.7427-2.975 0.67625-1.5449 0.6999-3.5523-0.22461-5.9199-5e-3 -0.0133-0.0112-0.0263-0.0176-0.0391l-8.4119-17.068 19.202-1.3357c0.44727-0.01668 0.84885-0.91901 0.51818-1.2206l-45-40.825c-0.14682-0.13285-0.53906-0.28394-0.53906-0.08594z" color="#000000" fill="#263742" fill-opacity=".5" fill-rule="evenodd" stroke-linejoin="round" style="-inkscape-stroke:none"/><path id="ad" d="m79.5 49.5 45 40.823-20.175 0.71474 8.7534 17.762c3.5562 9.1073-7.7897 11.488-11.063 5.1208l-8.0987-17.771-14.417 15.557z" fill="#f1f3f5" fill-rule="evenodd" stroke="#070c0f" stroke-linejoin="round" stroke-miterlimit="4" stroke-opacity=".5" stroke-width="1"/></g></svg>
