<?xml version="1.0" encoding="UTF-8"?>
<svg id="a" enable-background="new" version="1.0" viewBox="0 0 16 16" xmlns="http://www.w3.org/2000/svg"><title id="b">Adwaita Icon Template</title><g id="c" transform="matrix(5 0 0 5 -2535.6 -1750)" enable-background="new"><rect id="d" x="507.21" y="350.1" width="3" height="3" rx=".4" ry=".4" enable-background="new" fill="#00aade" stroke="#006888" stroke-linejoin="miter" stroke-miterlimit="4" stroke-width=".19995" style="paint-order:normal"/><g id="e" transform="matrix(1.0002 0 0 1 -.12389 0)" stroke-width=".99988"><path id="f" d="m507.21 352v0.7c0 0.2216 0.17836 0.4 0.3999 0.4h2.1995c0.22154 0 0.3999-0.1784 0.3999-0.4v-0.7z" color="#000000" fill="#344958" stroke-width=".19998" style="-inkscape-stroke:none"/><path id="g" d="m507.11 352v0.7c0 0.27527 0.22461 0.5 0.49988 0.5h2.1995c0.27527 0 0.49988-0.22473 0.49988-0.5v-0.7h-0.19917v0.7c0 0.16793-0.13278 0.30078-0.30071 0.30078h-2.1995c-0.16793 0-0.30071-0.13285-0.30071-0.30078v-0.7z" color="#000000" fill="#263742" stroke-width=".99988" style="-inkscape-stroke:none"/><rect id="h" x="507.31" y="352.2" width=".79981" height=".8" rx=".19995" ry=".2" enable-background="new" fill="#d4ade2" fill-rule="nonzero"/><rect id="i" x="508.31" y="352.2" width=".79981" height=".8" rx=".19995" ry=".2" enable-background="new" fill="#d4ade2" fill-rule="nonzero"/><rect id="j" x="509.31" y="352.2" width=".79981" height=".8" rx=".19995" ry=".2" enable-background="new" fill="#d4ade2" fill-rule="nonzero"/></g></g></svg>
