<?xml version="1.0" encoding="UTF-8"?>
<svg id="c" enable-background="new" version="1.0" viewBox="0 0 128 128" xmlns="http://www.w3.org/2000/svg" xmlns:xlink="http://www.w3.org/1999/xlink"><title id="d">Adwaita Icon Template</title><defs id="e"><linearGradient id="b" x1="48" x2="464" y1="44" y2="44" gradientTransform="matrix(.25 0 0 .25 -110 225)" gradientUnits="userSpaceOnUse"><stop id="f" stop-color="#babdb6" offset="0"/><stop id="g" stop-color="#f6f5f4" offset=".041667"/><stop id="h" stop-color="#d5d3cf" offset=".083333"/><stop id="i" stop-color="#deddda" offset=".91667"/><stop id="j" stop-color="#f6f5f4" offset=".95833"/><stop id="k" stop-color="#babdb6" offset="1"/></linearGradient><clipPath id="a"><rect id="l" x="36" y="202" width="60" height="28" rx="14" ry="14" fill="#3584e4"/></clipPath></defs><g id="m" transform="translate(0,-172)"><g id="n"><g id="o" transform="translate(110)"><rect id="p" x="-98" y="204" width="104" height="84" rx="8" ry="8" enable-background="new" fill="url(#b)" style="paint-order:normal"/><rect id="q" x="-98" y="184" width="104" height="100" rx="8" ry="8" enable-background="new" fill="#f6f5f4" style="paint-order:normal"/></g><g id="r" transform="translate(0,-2)"><path id="s" transform="translate(0,172)" d="m48 28c-7.756 0-14 6.244-14 14 0 0.33768 0.0275 0.66844 0.05078 1 0.51146-7.2838 6.5309-13 13.949-13h32c7.4183 0 13.438 5.7162 13.949 13 0.023281-0.33156 0.050781-0.66232 0.050781-1 0-7.756-6.244-14-14-14z" fill="#1a5fb4"/><rect id="t" transform="scale(-1,1)" x="-94" y="202" width="60" height="28" rx="14" ry="14" fill="#3584e4"/><g id="u" transform="matrix(-1,0,0,1,130,-4)" fill="#deddda"><circle id="v" transform="translate(0,4)" cx="50" cy="218" r="14" clip-path="url(#a)"/><rect id="w" x="36" y="216" width="28" height="6"/></g><circle id="x" transform="scale(-1,1)" cx="-80" cy="212" r="14" fill="#fff"/></g><g id="y" transform="matrix(-1,0,0,1,128,38)"><path id="z" transform="translate(0,172)" d="m48 28c-7.756 0-14 6.244-14 14 0 0.33768 0.0275 0.66844 0.05078 1 0.51146-7.2838 6.5309-13 13.949-13h32c7.4183 0 13.438 5.7162 13.949 13 0.023281-0.33156 0.050781-0.66232 0.050781-1 0-7.756-6.244-14-14-14z" fill="#9a9996"/><rect id="aa" transform="scale(-1,1)" x="-94" y="202" width="60" height="28" rx="14" ry="14" fill="#c0bfbc"/><g id="ab" transform="matrix(-1,0,0,1,130,-4)" fill="#deddda"><circle id="ac" transform="translate(0,4)" cx="50" cy="218" r="14" clip-path="url(#a)"/><rect id="ad" x="36" y="216" width="28" height="6"/></g><circle id="ae" transform="scale(-1,1)" cx="-80" cy="212" r="14" fill="#fff"/></g></g></g></svg>
