<?xml version="1.0" encoding="UTF-8"?>
<svg viewBox="0 0 128 128" xmlns="http://www.w3.org/2000/svg"><linearGradient id="a" x1="168.29" x2="243.24" y1="77.782" y2="152.74" gradientTransform="matrix(.70711 -.70711 -.70711 -.70711 0 290)" gradientUnits="userSpaceOnUse"><stop stop-color="#8ff0a4" offset="0"/><stop stop-color="#3584e4" offset="1"/></linearGradient><filter id="b" x="0%" y="0%" width="100%" height="100%"><feColorMatrix in="SourceGraphic" values="0 0 0 0 1 0 0 0 0 1 0 0 0 0 1 0 0 0 1 0"/></filter><mask id="c"><g filter="url(#b)"><rect width="128" height="128" fill-opacity=".95"/></g></mask><clipPath id="d"><rect width="192" height="152"/></clipPath><mask id="e"><g filter="url(#b)"><rect width="128" height="128" fill-opacity=".75"/></g></mask><clipPath id="f"><rect width="192" height="152"/></clipPath><mask id="g"><g filter="url(#b)"><rect width="128" height="128" fill-opacity=".4"/></g></mask><clipPath id="h"><rect width="192" height="152"/></clipPath><mask id="i"><g filter="url(#b)"><rect width="128" height="128" fill-opacity=".8"/></g></mask><linearGradient id="j" x1="16" x2="128" y1="96" y2="96" gradientUnits="userSpaceOnUse"><stop stop-color="#3584e4" offset="0"/><stop stop-color="#62a0ea" offset=".42868"/><stop stop-color="#c1d9f7" offset=".49999"/><stop stop-color="#62a0ea" offset=".57131"/><stop stop-color="#3584e4" offset="1"/></linearGradient><clipPath id="k"><rect width="192" height="152"/></clipPath><path d="m69.656 117.74 48.082-48.082c3.125-3.125 3.125-8.1875 0-11.312l-48.082-48.082c-3.125-3.125-8.1875-3.125-11.312 0l-48.082 48.082c-3.125 3.125-3.125 8.1875 0 11.312l48.082 48.082c3.125 3.125 8.1875 3.125 11.312 0z" fill="url(#a)"/><g transform="translate(-8 -6)" clip-path="url(#d)" mask="url(#c)"><path d="m36 68h36v36z" fill="#fff"/></g><g transform="translate(-8 -6)" clip-path="url(#f)" mask="url(#e)"><path d="m96 44h-24v24z" fill="#fff"/></g><g transform="translate(-8 -6)" clip-path="url(#h)" mask="url(#g)"><path d="m72 68h18v18z" fill="#fff"/></g><g transform="translate(-8 -6)" clip-path="url(#k)" mask="url(#i)"><path d="m16.496 67c-1.1719 2.8867-0.58594 6.3086 1.7656 8.6562l48.082 48.082c3.1328 3.1367 8.1797 3.1367 11.312 0l48.082-48.082c2.3516-2.3477 2.9375-5.7695 1.7695-8.6562-0.39453 0.96484-0.98047 1.8711-1.7695 2.6562l-48.082 48.082c-3.1328 3.1367-8.1797 3.1367-11.312 0l-48.082-48.082c-0.78906-0.78516-1.375-1.6914-1.7656-2.6562z" fill="url(#j)"/></g></svg>
