<?xml version="1.0" encoding="UTF-8"?>
<svg id="a" enable-background="new" version="1.0" viewBox="0 0 128 128" xmlns="http://www.w3.org/2000/svg"><title id="b">Adwaita Icon Template</title><rect id="c" x="12" y="16" width="104" height="100" rx="8" ry="8" enable-background="new" fill="#e6461d" style="paint-order:normal"/><rect id="d" x="12" y="14" width="104" height="100" rx="8" ry="8" enable-background="new" fill="#d2d8dc" style="paint-order:normal"/><rect id="e" x="13" y="22" width="102" height="90" rx="8" ry="8" enable-background="new" fill="#f1f3f5" style="paint-order:normal"/><rect id="f" x="12" y="12" width="104" height="26" rx="8" ry="8" fill="#e6461d" stroke-linecap="round" stroke-linejoin="round" stroke-width="1"/><rect id="g" x="12" y="25" width="104" height="13" fill="#e6461d" stroke-linecap="round" stroke-linejoin="round" stroke-width="1"/><rect id="h" x="12" y="38" width="104" height="1" fill="#c02700" stroke-linecap="round" stroke-linejoin="round" stroke-width="1"/><rect id="i" x="45" y="49" width="12" height="12" fill="#bcc5ca" stroke-linecap="round" stroke-linejoin="round" stroke-width="1"/><rect id="j" x="58" y="49" width="12" height="12" fill="#bcc5ca" stroke-linecap="round" stroke-linejoin="round" stroke-width="1"/><rect id="k" x="32" y="49" width="12" height="12" fill="#bcc5ca" stroke-linecap="round" stroke-linejoin="round" stroke-width="1"/><rect id="l" x="71" y="49" width="12" height="12" fill="#bcc5ca" stroke-linecap="round" stroke-linejoin="round" stroke-width="1"/><rect id="m" x="84" y="49" width="12" height="12" fill="#bcc5ca" stroke-linecap="round" stroke-linejoin="round" stroke-width="1"/><circle id="n" cx="28" cy="26.5" r="5.5" enable-background="new" fill="#c02700" stroke-linecap="round" stroke-linejoin="round" stroke-width="1"/><circle id="o" cx="28" cy="25.5" r="5.5" enable-background="new" fill="#f1f3f5" stroke-linecap="round" stroke-linejoin="round" stroke-width="1"/><rect id="p" x="97" y="49" width="12" height="12" fill="#d2d8dc" stroke-linecap="round" stroke-linejoin="round" stroke-width="1"/><rect id="q" x="45" y="62" width="12" height="12" fill="#bcc5ca" stroke-linecap="round" stroke-linejoin="round" stroke-width="1"/><rect id="r" x="58" y="62" width="12" height="12" fill="#bcc5ca" stroke-linecap="round" stroke-linejoin="round" stroke-width="1"/><rect id="s" x="32" y="62" width="12" height="12" fill="#bcc5ca" stroke-linecap="round" stroke-linejoin="round" stroke-width="1"/><rect id="t" x="71" y="62" width="12" height="12" fill="#bcc5ca" stroke-linecap="round" stroke-linejoin="round" stroke-width="1"/><rect id="u" x="84" y="62" width="12" height="12" fill="#bcc5ca" stroke-linecap="round" stroke-linejoin="round" stroke-width="1"/><rect id="v" x="97" y="62" width="12" height="12" fill="#d2d8dc" stroke-linecap="round" stroke-linejoin="round" stroke-width="1"/><rect id="w" x="45" y="75" width="12" height="12" fill="#bcc5ca" stroke-linecap="round" stroke-linejoin="round" stroke-width="1"/><rect id="x" x="58" y="75" width="12" height="12" fill="#bcc5ca" stroke-linecap="round" stroke-linejoin="round" stroke-width="1"/><rect id="y" x="32" y="75" width="12" height="12" fill="#bcc5ca" stroke-linecap="round" stroke-linejoin="round" stroke-width="1"/><rect id="z" x="71" y="75" width="12" height="12" fill="#bcc5ca" stroke-linecap="round" stroke-linejoin="round" stroke-width="1"/><rect id="aa" x="84" y="75" width="12" height="12" fill="#bcc5ca" stroke-linecap="round" stroke-linejoin="round" stroke-width="1"/><rect id="ab" x="97" y="75" width="12" height="12" fill="#d2d8dc" stroke-linecap="round" stroke-linejoin="round" stroke-width="1"/><rect id="ac" x="45" y="88" width="12" height="12" fill="#bcc5ca" stroke-linecap="round" stroke-linejoin="round" stroke-width="1"/><rect id="ad" x="58" y="88" width="12" height="12" fill="#bcc5ca" stroke-linecap="round" stroke-linejoin="round" stroke-width="1"/><rect id="ae" x="32" y="88" width="12" height="12" fill="#bcc5ca" stroke-linecap="round" stroke-linejoin="round" stroke-width="1"/><rect id="af" x="71" y="88" width="12" height="12" fill="#bcc5ca" stroke-linecap="round" stroke-linejoin="round" stroke-width="1"/><rect id="ag" x="84" y="88" width="12" height="12" fill="#bcc5ca" stroke-linecap="round" stroke-linejoin="round" stroke-width="1"/><rect id="ah" x="97" y="88" width="12" height="12" fill="#d2d8dc" stroke-linecap="round" stroke-linejoin="round" stroke-width="1"/><rect id="ai" x="19" y="49" width="12" height="12" fill="#d2d8dc" stroke-linecap="round" stroke-linejoin="round" stroke-width="1"/><rect id="aj" x="19" y="62" width="12" height="12" fill="#d2d8dc" stroke-linecap="round" stroke-linejoin="round" stroke-width="1"/><rect id="ak" x="19" y="75" width="12" height="12" fill="#d2d8dc" stroke-linecap="round" stroke-linejoin="round" stroke-width="1"/><rect id="al" x="19" y="88" width="12" height="12" fill="#d2d8dc" stroke-linecap="round" stroke-linejoin="round" stroke-width="1"/><g id="am" transform="matrix(.22102 0 0 .22102 6.8432 -60.953)" enable-background="new" fill="#f1f3f5"><path id="an" d="m152.9 352.71-0.10524 0.0109-0.10524 0.0528c-0.12953 0.0709-0.27228 0.21523-0.34725 0.38938-0.075 0.17415-0.0684 0.35346-0.0421 0.48405 0.0528 0.26124 0.15591 0.39128 0.2736 0.53669 0.23541 0.29083 0.56904 0.58462 1.0313 0.93655 0.92441 0.70386 2.358 1.6201 4.304 2.7255 3.892 2.2108 9.8092 5.1427 17.51 8.3133 7.596 3.1271 16.719 8.693 23.698 13.785 3.4896 2.5461 6.4523 4.9774 8.408 6.9032 0.97782 0.96289 1.7012 1.8063 2.1046 2.4308 0.2017 0.31228 0.31811 0.5733 0.35779 0.72609 0.0398 0.1528 7e-3 0.14456 0.0317 0.10524l0.0208-0.0208c-5.062 7.1298-8.0568 15.779-6.0087 30.296v0.0109c0.0394 0.27238-0.23423 0.91341-0.87342 1.6942-0.63922 0.78082-1.5606 1.6763-2.494 2.6308-0.9334 0.95447-1.8799 1.9608-2.5782 3.0201-0.69826 1.0593-1.1682 2.2144-0.98917 3.4095v0.0109c0.0878 0.53339 0.4496 1.0076 0.90499 1.2102 0.45538 0.20256 0.93376 0.20351 1.4311 0.13677 0.99477-0.13347 2.1198-0.57584 3.2622-1.0523 1.1423-0.47645 2.284-0.99481 3.1569-1.3154 0.39775-0.14605 0.71834-0.23346 0.94708-0.2736-2e-3 0.15139 0.019 0.22071-0.0208 0.46303-0.0729 0.4406-0.21315 0.99661-0.38938 1.6206-0.35237 1.2479-0.85837 2.7595-1.3259 4.2408-0.46756 1.4813-0.89596 2.9308-1.0839 4.1145-0.094 0.59188-0.13044 1.117-0.0528 1.5995 0.0778 0.48253 0.34341 1.0158 0.87342 1.2102l0.0416 0.0218c0.3673 0.10918 0.60457 9e-3 0.84185-0.0841 0.23726-0.0932 0.47741-0.23387 0.74714-0.39988 0.53941-0.33196 1.1841-0.80313 1.9152-1.3785 1.4621-1.1508 3.2596-2.7011 5.0301-4.2619 1.7705-1.5608 3.5098-3.1283 4.8512-4.2829 0.67066-0.57733 1.2422-1.0558 1.6521-1.368 0.19645-0.14962 0.35327-0.25527 0.45247-0.31567 10.8 3.2186 23.102 3.6154 32.811 3.178 4.8886-0.22025 9.1192-0.65324 12.165-1.0418 1.5228-0.19428 2.7433-0.37331 3.6094-0.51561 0.43309-0.0712 0.78405-0.13184 1.0313-0.17885 0.098-0.019 0.16238-0.0385 0.23152-0.0528v0.0109c0.13958 0.0612 0.35748 0.14949 0.63139 0.2736 0.54784 0.24821 1.3384 0.60905 2.294 1.0418 1.9113 0.86546 4.4813 2.0242 7.1136 3.1464 2.6323 1.1222 5.3188 2.2117 7.4819 2.957 1.0815 0.37264 2.0328 0.65852 2.7992 0.8208 0.38318 0.0811 0.72378 0.12768 1.0313 0.13677 0.30749 9e-3 0.59491 0.0104 0.91551-0.19994l0.0737-0.0421 0.0528-0.0632c1.2658-1.3707 1.32-3.0622 0.71558-4.5565-0.60442-1.4943-1.772-2.9023-2.978-4.2303-1.206-1.328-2.4591-2.5766-3.2411-3.5989-0.39101-0.51114-0.66103-0.9656-0.75766-1.2838-0.0853-0.28088-0.0458-0.38445 0.0421-0.51562 0.0773-9e-3 0.19143-0.0163 0.36829 0 0.42033 0.0385 1.0489 0.16152 1.7889 0.3578 1.4801 0.39254 3.4096 1.047 5.3458 1.6837 1.9362 0.63668 3.8731 1.2601 5.4089 1.6206 0.7679 0.18021 1.435 0.29862 1.9994 0.30518 0.2822 3e-3 0.53615-0.0122 0.79976-0.10524 0.26364-0.0928 0.56632-0.30622 0.69452-0.6314l0.0109-0.0208v-0.0208c0.36214-1.0929-0.0385-2.2593-0.68399-3.4305-0.64571-1.1712-1.585-2.3765-2.5887-3.5463-1.0036-1.1698-2.0752-2.2945-2.957-3.2411-0.87876-0.94334-1.5838-1.7576-1.7995-2.1151-0.4462-0.79208-0.72508-1.8506-0.59981-2.8728 0.12551-1.0243 0.61584-2.0128 1.7889-2.8307 0.23093-0.16093 0.95709-0.54059 1.9363-1.0102 0.97918-0.46961 2.2424-1.061 3.6831-1.7363 2.8815-1.3506 6.4721-3.0641 9.9549-4.9774 3.4828-1.9134 6.8502-4.0136 9.3235-6.1876 2.4719-2.1728 4.1542-4.4649 3.8199-6.84-0.52041-3.8608-3.072-6.8-6.4717-9.0078-3.3997-2.2077-7.672-3.7418-11.891-4.8512-4.2192-1.1093-8.3836-1.7862-11.512-2.273-1.5644-0.24342-2.8747-0.44341-3.7883-0.61034-0.45678-0.0835-0.80995-0.16687-1.0313-0.23152h-0.0109c-2e-3 -0.16148-2e-3 -0.36318 0-0.63139 4e-3 -0.59602 0.0131-1.414 0-2.3782-0.0253-1.9284-0.13266-4.4204-0.53668-6.7979-0.40404-2.3776-1.0764-4.6558-2.3888-6.1981-1.3109-1.5406-3.3942-2.1879-5.9245-1.1891-1.6721 0.62549-2.6128 2.0723-3.0096 3.7357-0.39744 1.6658-0.32088 3.5945-0.0632 5.4826 0.25777 1.8881 0.70655 3.7334 1.1154 5.2195 0.40888 1.486 0.78433 2.6658 0.85237 2.9675 0.0425 0.18799 0.0403 0.13112-0.0317 0.18944-0.072 0.0583-0.30513 0.15302-0.59982 0.1789-0.29473 0.0258-0.63603-7e-3 -0.90499-0.0737-0.26898-0.0668-0.45791-0.21346-0.42096-0.16835-0.0566-0.0691-0.27427-0.43585-0.5051-0.92604-0.23084-0.49019-0.49639-1.1165-0.81028-1.831-0.62779-1.4291-1.4048-3.1915-2.3046-4.8406-0.89971-1.6491-1.9136-3.193-3.0938-4.2303-0.59014-0.51863-1.2365-0.9096-1.9468-1.0839-0.71024-0.17424-1.4845-0.10995-2.2098 0.25251l-0.0218 0.0218c-1.8427 1.016-2.8372 2.6339-3.2411 4.3776-0.40395 1.7437-0.26219 3.6134 0.0317 5.3563 0.29373 1.7429 0.74789 3.3621 1.0418 4.5355 0.14691 0.58668 0.24939 1.0705 0.27359 1.347 9e-3 0.0917 2e-3 0.10886 0 0.13683-1.3151 0.82149-1.9818 2.1156-2.494 3.4516-0.53658 1.3997-0.97864 2.8653-1.8942 4.1356h-0.0108c-0.27709 0.39707-0.86251 0.76155-1.7784 0.99968-0.91591 0.23813-2.1253 0.35468-3.5358 0.3578-2.821 6e-3 -6.4291-0.43408-10.186-1.0313-7.5146-1.1943-15.589-3.0441-19.71-3.2937-3.1001-0.18302-6.0366 0.97922-8.2606 2.0731-1.112 0.54691-2.051 1.0862-2.715 1.4311-0.30825 0.16012-0.54586 0.26143-0.69452 0.31568-7.1892-7.1638-21.73-19.383-37.862-23.509-4.4229-1.2003-10.006-3.5643-14.532-5.6194-2.2632-1.0275-4.261-1.9835-5.7351-2.6729-0.73706-0.34473-1.3413-0.6154-1.7889-0.81028-0.22382-0.0974-0.40458-0.17555-0.55772-0.23152-0.0766-0.0281-0.14578-0.054-0.22102-0.0737-0.0752-0.0199-0.12108-0.0625-0.3683-0.0208z" color="#000000" fill="#c02700" fill-rule="evenodd" stroke-width=".7052" style="-inkscape-stroke:none"/></g><g id="ao" transform="matrix(.29935 0 0 .29935 -15.467 -88.75)" enable-background="new" fill="#c02700"><path id="ap" transform="matrix(4.5245 0 0 4.5245 -38.994 274.24)" d="m79.529 18.498c-0.02523-1e-3 -0.04972 0.0041-0.06836 0.01172-0.03728 0.01516-0.06734 0.03721-0.10156 0.06641-0.06844 0.05838-0.14496 0.14478-0.23047 0.25195-0.17102 0.21435-0.37479 0.51302-0.56055 0.82617-0.18576 0.31315-0.35413 0.63872-0.45703 0.9082-0.05145 0.13474-0.08629 0.2558-0.09766 0.35938-0.01134 0.10342-0.0024 0.20625 0.08008 0.26758 0.04552 0.03372 0.1087 0.02421 0.14453 0.0059 0.03594-0.01841 0.06476-0.04419 0.0957-0.07617 0.06188-0.06396 0.12968-0.15578 0.20508-0.26953 0.1508-0.22751 0.32759-0.54162 0.49609-0.86328 0.16851-0.32166 0.32724-0.6507 0.43945-0.90625 0.0561-0.12778 0.1004-0.23519 0.12891-0.31836 0.01426-0.04159 0.02522-0.07641 0.03125-0.10742 3e-3 -0.01552 0.0062-0.03103 0.0059-0.04883-4.42e-4 -0.01779 5.04e-4 -0.04471-0.03125-0.07617l-0.0039-2e-3 -2e-3 -0.0039c-0.02205-0.01824-0.04899-0.02439-0.07422-0.02539z" color="#000000" fill="#c02700" fill-rule="evenodd" stroke-width=".082221pt" style="-inkscape-stroke:none"/></g><g id="aq" transform="matrix(.29935 0 0 .29935 -17.871 -89.212)" enable-background="new" fill="#c02700"><path id="ar" transform="matrix(4.5245 0 0 4.5245 -30.962 275.78)" d="m77.756 18.16c-0.01094 0.0012-0.02133 0.0043-0.0293 0.0078-0.03186 0.01375-0.04171 0.028-0.05078 0.04102-0.01815 0.02604-0.02833 0.05219-0.04102 0.08594-0.02537 0.06749-0.05238 0.16353-0.08203 0.28125-0.05931 0.23545-0.1255 0.55825-0.18164 0.88867-0.05614 0.33042-0.10242 0.66742-0.11914 0.93359-0.0084 0.13309-0.0095 0.24836 0 0.33984 0.0047 0.04574 0.01206 0.08448 0.02539 0.12109 0.01258 0.03451 0.03456 0.07038 0.07617 0.09375 0.01949 0.01202 0.04293 0.02341 0.06836 0.02148 0.02906-0.0022 0.0519-0.01627 0.06836-0.0293 0.03292-0.02607 0.05096-0.05517 0.06836-0.08984 0.0348-0.06934 0.06324-0.16205 0.09375-0.2793 0.06101-0.2345 0.11987-0.55861 0.16602-0.89062 0.04615-0.33201 0.08124-0.67205 0.0918-0.94141 0.0053-0.13468 0.0044-0.24999-0.0039-0.3418-0.0042-0.0459-0.01143-0.0857-0.02148-0.12109-0.0093-0.03285-0.02189-0.06484-0.05664-0.09375-0.01014-0.0095-0.02119-0.02071-0.03906-0.02539-0.0113-3e-3 -0.02226-0.0031-0.0332-2e-3z" color="#000000" fill="#c02700" fill-rule="evenodd" stroke-width=".082221pt" style="-inkscape-stroke:none"/></g><path id="as" d="m40.637 15.003-0.02326 0.0024-0.02326 0.01167c-0.02863 0.01566-0.06018 0.04757-0.07675 0.08606s-0.01511 0.07812-0.0093 0.10698c0.01167 0.05774 0.03446 0.08648 0.06047 0.11862 0.05203 0.06428 0.12577 0.12921 0.22793 0.207 0.20431 0.15557 0.52115 0.35807 0.95125 0.60238 0.8602 0.48863 2.168 1.1366 3.8701 1.8374 1.6789 0.69114 3.6952 1.9213 5.2377 3.0468 0.77127 0.56274 1.4261 1.1001 1.8583 1.5257 0.21612 0.21282 0.37599 0.39923 0.46516 0.53726 0.04458 0.06902 0.07031 0.12671 0.07908 0.16048 0.0088 0.03377 0.0015 0.03195 7e-3 0.02326l0.0046-0.0046c-1.1188 1.5758-1.7807 3.4875-1.328 6.696v0.0024c0.0087 0.0602-0.05177 0.20188-0.19304 0.37446-0.14128 0.17258-0.34491 0.3705-0.55122 0.58145-0.2063 0.21096-0.41549 0.43338-0.56982 0.6675-0.15433 0.23413-0.2582 0.48942-0.21862 0.75356v0.0024c0.01941 0.11789 0.09937 0.2227 0.20002 0.26747 0.10065 0.04477 0.20638 0.04498 0.31631 0.03023 0.21986-0.0295 0.46853-0.12727 0.721-0.23258 0.25247-0.1053 0.5048-0.21987 0.69774-0.29072 0.08791-0.03228 0.15877-0.0516 0.20932-0.06047-3.71e-4 0.03346 0.0042 0.04878-0.0046 0.10234-0.01611 0.09738-0.04711 0.22027-0.08606 0.35818-0.07788 0.27581-0.18972 0.6099-0.29305 0.9373-0.10334 0.3274-0.19802 0.64776-0.23956 0.90939-0.02078 0.13082-0.02883 0.24687-0.01167 0.35352 0.01719 0.10665 0.0759 0.22451 0.19304 0.26747l0.0092 0.0048c0.08118 0.02413 0.13362 0.0019 0.18606-0.0186 0.05244-0.0206 0.10552-0.05169 0.16513-0.08838 0.11922-0.07337 0.26172-0.17751 0.4233-0.30468 0.32316-0.25435 0.72042-0.59699 1.1117-0.94195 0.39131-0.34496 0.77574-0.6914 1.0722-0.9466 0.14823-0.1276 0.27455-0.23336 0.36515-0.30236 0.04342-0.03307 0.07808-0.05642 0.1-0.06977 2.3871 0.71137 5.106 0.79908 7.2519 0.70239 1.0805-0.04868 2.0155-0.14438 2.6886-0.23026 0.33656-0.04294 0.60631-0.08251 0.79775-0.11396 0.09572-0.01574 0.17329-0.02914 0.22793-0.03953 0.02166-0.0042 0.03589-0.0085 0.05117-0.01168v0.0024c0.03085 0.01353 0.07901 0.03304 0.13955 0.06047 0.12108 0.05486 0.29581 0.13461 0.50702 0.23025 0.42243 0.19128 0.99045 0.44739 1.5722 0.69542 0.5818 0.24803 1.1756 0.48883 1.6536 0.65355 0.23904 0.08236 0.44929 0.14554 0.61866 0.18141 0.08469 0.01793 0.15997 0.02822 0.22793 0.03023 0.06796 2e-3 0.13149 0.0023 0.20234-0.04419l0.01628-0.0093 0.01167-0.01396c0.27977-0.30296 0.29174-0.67681 0.15816-1.0071-0.13359-0.33027-0.39164-0.64146-0.6582-0.93498-0.26655-0.29351-0.5435-0.56948-0.71635-0.79542-0.08642-0.11297-0.1461-0.21342-0.16746-0.28375-0.01885-0.06208-0.01012-0.08497 0.0093-0.11396 0.01709-0.0019 0.04231-0.0036 0.0814 0 0.0929 0.0085 0.23182 0.0357 0.39539 0.07908 0.32713 0.08676 0.75358 0.23141 1.1815 0.37213 0.42793 0.14072 0.85602 0.27851 1.1955 0.35817 0.16972 0.03983 0.31716 0.066 0.4419 0.06745 0.06237 7.42e-4 0.1185-0.0027 0.17676-0.02326 0.05827-0.0205 0.12517-0.06768 0.1535-0.13955l0.0024-0.0046v-0.0046c0.08004-0.24156-0.0085-0.49935-0.15118-0.75821-0.14271-0.25886-0.35032-0.52525-0.57215-0.7838-0.22183-0.25855-0.45865-0.50712-0.65355-0.71635-0.19422-0.2085-0.35004-0.38847-0.39771-0.46749-0.09862-0.17506-0.16026-0.40902-0.13257-0.63494 0.02774-0.2264 0.13611-0.44486 0.39538-0.62564 0.05104-0.03557 0.21153-0.11948 0.42795-0.22328 0.21642-0.10379 0.4956-0.2345 0.81403-0.38376 0.63686-0.29851 1.4304-0.67722 2.2002-1.1001 0.76976-0.42289 1.514-0.88707 2.0607-1.3676 0.54634-0.48024 0.91815-0.98683 0.84427-1.5118-0.11502-0.85331-0.67898-1.5029-1.4304-1.9909-0.75139-0.48795-1.6956-0.82701-2.6282-1.0722-0.93251-0.24518-1.8529-0.39477-2.5444-0.50237-0.34575-0.0538-0.63537-0.098-0.83729-0.1349-0.10096-0.01845-0.17901-0.03688-0.22793-0.05117h-0.0024c-3.71e-4 -0.03569-3.71e-4 -0.08027 0-0.13955 9.28e-4 -0.13173 0.0029-0.31252 0-0.52563-0.0056-0.42622-0.02932-0.97698-0.11862-1.5025-0.0893-0.52549-0.2379-1.029-0.52796-1.3699-0.28974-0.34051-0.75018-0.48357-1.3094-0.26282-0.36957 0.13824-0.57748 0.45802-0.66518 0.82566-0.08784 0.36816-0.07092 0.79444-0.01396 1.2117 0.05697 0.4173 0.15616 0.82515 0.24654 1.1536 0.09037 0.32844 0.17335 0.58919 0.18839 0.65588 0.0094 0.04155 0.0089 0.02898-7e-3 0.04187-0.01591 0.01288-0.06744 0.03382-0.13257 0.03954-0.06514 0.0057-0.14057-0.0015-0.20002-0.01628-0.05945-0.01477-0.10121-0.04718-0.09304-0.03721-0.01251-0.01526-0.06062-0.09633-0.11164-0.20467-0.05102-0.10834-0.10971-0.24676-0.17909-0.40469-0.13875-0.31585-0.3105-0.70539-0.50935-1.0699-0.19885-0.36448-0.42293-0.70571-0.68379-0.93497-0.13043-0.11463-0.2733-0.20104-0.43028-0.23956-0.15698-0.03851-0.32811-0.0243-0.48842 0.05581l-0.0048 0.0048c-0.40728 0.22455-0.62708 0.58214-0.71635 0.96754-0.08928 0.38539-0.05795 0.79862 7e-3 1.1838 0.06492 0.38521 0.1653 0.74309 0.23026 1.0024 0.03247 0.12967 0.05512 0.2366 0.06047 0.2977 0.0019 0.02027 3.71e-4 0.02406 0 0.03024-0.29067 0.18157-0.43802 0.46758-0.55122 0.76286-0.11859 0.30935-0.2163 0.63329-0.41864 0.91404h-0.0024c-0.06124 0.08776-0.19063 0.16832-0.39306 0.22095-0.20243 0.05263-0.46973 0.07839-0.78147 0.07908-0.62349 0.0013-1.421-0.09594-2.2514-0.22793-1.6609-0.26397-3.4454-0.67281-4.3562-0.72798-0.68518-0.04045-1.3342 0.21642-1.8258 0.45818-0.24578 0.12088-0.4533 0.24006-0.60006 0.31631-0.06813 0.03539-0.12065 0.05778-0.1535 0.06977-1.589-1.5833-4.8028-4.2839-8.3682-5.1958-0.97754-0.26528-2.2115-0.78778-3.2119-1.242-0.50021-0.2271-0.94175-0.43839-1.2676-0.59076-0.1629-0.07619-0.29646-0.13601-0.39539-0.17909-0.04947-0.02153-0.08942-0.0388-0.12327-0.05117-0.01693-0.0062-0.03222-0.01194-0.04885-0.01628-0.01663-0.0044-0.02676-0.01381-0.0814-0.0046z" color="#000000" enable-background="new" fill="#f1f3f5" fill-rule="evenodd" style="-inkscape-stroke:none"/><g id="at" transform="matrix(.30516 0 0 .30516 -17.499 -91.761)" enable-background="new" fill="#f1f3f5"><path id="au" transform="matrix(4.5245 0 0 4.5245 -38.994 274.24)" d="m79.529 18.498c-0.02523-1e-3 -0.04972 0.0041-0.06836 0.01172-0.03728 0.01516-0.06734 0.03721-0.10156 0.06641-0.06844 0.05838-0.14496 0.14478-0.23047 0.25195-0.17102 0.21435-0.37479 0.51302-0.56055 0.82617-0.18576 0.31315-0.35413 0.63872-0.45703 0.9082-0.05145 0.13474-0.08629 0.2558-0.09766 0.35938-0.01134 0.10342-0.0024 0.20625 0.08008 0.26758 0.04552 0.03372 0.1087 0.02421 0.14453 0.0059 0.03594-0.01841 0.06476-0.04419 0.0957-0.07617 0.06188-0.06396 0.12968-0.15578 0.20508-0.26953 0.1508-0.22751 0.32759-0.54162 0.49609-0.86328 0.16851-0.32166 0.32724-0.6507 0.43945-0.90625 0.0561-0.12778 0.1004-0.23519 0.12891-0.31836 0.01426-0.04159 0.02522-0.07641 0.03125-0.10742 3e-3 -0.01552 0.0062-0.03103 0.0059-0.04883-4.42e-4 -0.01779 5.04e-4 -0.04471-0.03125-0.07617l-0.0039-2e-3 -2e-3 -0.0039c-0.02205-0.01824-0.04899-0.02439-0.07422-0.02539z" color="#000000" fill="#f1f3f5" fill-rule="evenodd" stroke-width=".080657pt" style="-inkscape-stroke:none"/></g><g id="av" transform="matrix(.30516 0 0 .30516 -19.95 -92.232)" enable-background="new" fill="#f1f3f5"><path id="aw" transform="matrix(4.5245 0 0 4.5245 -30.962 275.78)" d="m77.756 18.16c-0.01094 0.0012-0.02133 0.0043-0.0293 0.0078-0.03186 0.01375-0.04171 0.028-0.05078 0.04102-0.01815 0.02604-0.02833 0.05219-0.04102 0.08594-0.02537 0.06749-0.05238 0.16353-0.08203 0.28125-0.05931 0.23545-0.1255 0.55825-0.18164 0.88867-0.05614 0.33042-0.10242 0.66742-0.11914 0.93359-0.0084 0.13309-0.0095 0.24836 0 0.33984 0.0047 0.04574 0.01206 0.08448 0.02539 0.12109 0.01258 0.03451 0.03456 0.07038 0.07617 0.09375 0.01949 0.01202 0.04293 0.02341 0.06836 0.02148 0.02906-0.0022 0.0519-0.01627 0.06836-0.0293 0.03292-0.02607 0.05096-0.05517 0.06836-0.08984 0.0348-0.06934 0.06324-0.16205 0.09375-0.2793 0.06101-0.2345 0.11987-0.55861 0.16602-0.89062 0.04615-0.33201 0.08124-0.67205 0.0918-0.94141 0.0053-0.13468 0.0044-0.24999-0.0039-0.3418-0.0042-0.0459-0.01143-0.0857-0.02148-0.12109-0.0093-0.03285-0.02189-0.06484-0.05664-0.09375-0.01014-0.0095-0.02119-0.02071-0.03906-0.02539-0.0113-3e-3 -0.02226-0.0031-0.0332-2e-3z" color="#000000" fill="#f1f3f5" fill-rule="evenodd" stroke-width=".080657pt" style="-inkscape-stroke:none"/></g><circle id="ax" cx="100" cy="26.5" r="5.5" enable-background="new" fill="#c02700" stroke-linecap="round" stroke-linejoin="round" stroke-width="1"/><circle id="ay" cx="100" cy="25.5" r="5.5" enable-background="new" fill="#f1f3f5" stroke-linecap="round" stroke-linejoin="round" stroke-width="1"/><rect id="az" x="25" y="9" width="6" height="20" rx="2" ry="2" fill="#bcc5ca" stroke-linecap="round" stroke-linejoin="round" stroke-width=".99999"/><rect id="ba" x="97" y="9" width="6" height="20" rx="2" ry="2" fill="#bcc5ca" stroke-linecap="round" stroke-linejoin="round" stroke-width=".99999"/><rect id="bb" x="14" y="110" width="100" height="1" fill="#d2d8dc" stroke-linecap="round" stroke-linejoin="round" stroke-width=".5"/></svg>
