<?xml version="1.0" encoding="UTF-8"?>
<svg id="d" fill="none" version="1.1" viewBox="0 0 64 64" xmlns="http://www.w3.org/2000/svg"><path id="e" d="m10 13.771v48.228h40.472c1.8685 0 3.3727-2.0998 3.3727-4.7082v-38.811c0-2.6084-1.5042-4.7082-3.3727-4.7082z" fill="#a85000" stroke-width=".078379"/><path id="f" d="m10.586 20.833v40.161h39.929c1.8826 0 3.3982-2.0998 3.3982-4.7082v-30.744c0-2.6083-1.5156-4.7082-3.3982-4.7082z" fill="url(#c)" stroke-width=".07879"/><path id="g" d="m10 3.1773v55.823h40.308c1.8751 0 3.692-2.6012 3.692-5.2095v-45.905c0-2.6083-1.5095-4.7082-3.3846-4.7082z" fill="#a85100" stroke-width=".078518"/><path id="h" d="m10 2.0001v55.321h40.472c1.8685 0 3.3727-2.0998 3.3727-4.7083v-45.905c0-2.6083-1.5042-4.7082-3.3727-4.7082z" fill="url(#b)" fill-opacity=".99032" stroke-width=".078379"/><path id="i" d="m10 2.0001v56h40.615c1.8751 0 3.3846-2.7784 3.3846-5.3868v-45.905c0-2.6083-1.5095-4.7082-3.3846-4.7082z" fill="url(#a)" fill-opacity=".99032" stroke-width=".078518"/><path id="j" d="m14 2.0001h-4v55.321l4 0.67856z" fill="#a85000" stroke-width=".085043"/><path id="k" d="m10 57.362v4.6377h5v-1h-4v-3h3v-0.63767z" fill="#a85000" stroke-width=".075493"/><line id="l" x1="11.39" x2="11.39" y1="2.7421" y2="57.062" stroke="#acacac" stroke-dasharray="2.55, 2.55" stroke-linecap="round" stroke-width=".51"/><defs id="m"><linearGradient id="c" x1="562.27" x2="609.52" y1="456.76" y2="456.76" gradientTransform="matrix(.07191 0 0 .086328 10.083 2.0001)" gradientUnits="userSpaceOnUse"><stop id="n" stop-color="#E8E7E4" offset="0"/><stop id="o" stop-color="#fff" offset=".51105"/><stop id="p" stop-color="#C2BFBA" offset="1"/></linearGradient><linearGradient id="b" x1="482.57" x2="79.034" y1="655.62" y2="-44.717" gradientTransform="matrix(.071162 0 0 .086328 10 2.0001)" gradientUnits="userSpaceOnUse"><stop id="q" stop-color="#FF7A00" offset=".14018"/><stop id="r" stop-color="#FFB800" offset="1"/></linearGradient><linearGradient id="a" x1="482.57" x2="79.034" y1="655.62" y2="-44.717" gradientTransform="matrix(.071415 0 0 .086328 10 2.0001)" gradientUnits="userSpaceOnUse"><stop id="s" stop-color="#FF7A00" offset=".14018"/><stop id="t" stop-color="#FFB800" offset="1"/></linearGradient></defs><path id="u" d="m14 2.0001s3.1e-5 1.4791 3.1e-5 2.2244c0.18568-0.01934 0.37146-0.03727 0.55813-0.04451 0.09526 0.0024 0.18974 0.0081 0.28389 0.015 0.11207 0.0083 0.22399 0.01724 0.33494 0.0317 0.08679 0.0111 0.17241 0.02602 0.25804 0.0408 0.12737 0.02226 0.25429 0.04639 0.37962 0.07672 0.06586 0.01579 0.13067 0.034 0.1957 0.05193 0.14052 0.03903 0.28003 0.08132 0.41725 0.13033 0.04939 0.01756 0.09796 0.03683 0.14677 0.05564 0.14796 0.05722 0.2943 0.11883 0.43754 0.18749 0.03841 0.01838 0.07622 0.03782 0.11422 0.05698 0.1482 0.07487 0.29373 0.15519 0.4359 0.24212 0.03317 0.02027 0.0659 0.04115 0.09867 0.06205 0.14338 0.09144 0.2835 0.18884 0.4197 0.29237 0.0288 0.02188 0.05733 0.04404 0.08574 0.06644 0.13678 0.10777 0.26953 0.22147 0.39794 0.34127 0.02478 0.0231 0.04956 0.04612 0.07396 0.06963 0.12905 0.12433 0.25321 0.25502 0.37258 0.39134 0.02008 0.02294 0.04044 0.04556 0.06022 0.06879 0.12026 0.14138 0.23369 0.28785 0.34084 0.43838 0.01543 0.02167 0.03146 0.04287 0.04664 0.06475 0.1072 0.15461 0.20673 0.31407 0.29993 0.477 0.01195 0.02095 0.02456 0.04129 0.03632 0.06239 0.09088 0.16306 0.17369 0.3303 0.25035 0.50043 0.01117 0.02478 0.02334 0.04906 0.0342 0.07402 0.07116 0.16327 0.13361 0.33025 0.19144 0.49892 0.01234 0.03635 0.02632 0.07193 0.03813 0.10858 0.04937 0.15256 0.09011 0.30793 0.12845 0.46401 0.0141 0.05788 0.03028 0.11484 0.04287 0.17333 0.02904 0.1336 0.04998 0.26912 0.07084 0.40466 0.01288 0.08492 0.0276 0.16926 0.03731 0.25528 0.01315 0.11432 0.01958 0.22955 0.02683 0.34481 0.0065 0.1069 0.01397 0.21358 0.01555 0.32188 0.0017 0.11132-0.0027 0.2231-0.0067 0.33486-0.11748 3.4246-2.7667 6.1502-6.0667 6.2343-0.1735-0.0069-0.34635-0.02267-0.51891-0.04039-0.01275-0.0013-0.0255-0.0026-0.03825-4e-3l-4.6e-5 1.4924c0.02024 0.0011-0.0203 0.07461 0 0.07561v8.4457l-8e-5 6.7791 1.6e-4 1.5337-8e-5 1.6311h1.5485v-5.6789c0.12988-0.0013 0.25966-0.0027 0.39009-0.0081 0.20207-0.0081 0.40395-0.01895 0.60526-0.03399h1.68e-4c0.20216-0.01517 0.4039-0.03427 0.60526-0.05714h8.37e-4c0.2009-0.02303 0.40136-0.04997 0.6015-0.08058l0.0011-1.76e-4c0.19996-0.03033 0.39933-0.06432 0.5979-0.10224h8.36e-4c0.19911-0.03805 0.39735-0.08016 0.59479-0.12567 0.19771-0.04551 0.39428-0.09479 0.58988-0.1477l5.04e-4 -1.76e-4c0.19572-0.05295 0.39044-0.10942 0.58382-0.16963 0.19382-0.06026 0.38638-0.12445 0.5776-0.19204h1.68e-4c0.19143-0.06771 0.38148-0.13894 0.57008-0.2138h-3.35e-4c0.18859-0.07474 0.37571-0.15306 0.56141-0.23487h1.67e-4c0.18601-0.08193 0.37021-0.16738 0.5529-0.25628 0.1827-0.08897 0.36367-0.18135 0.54275-0.27703l-0.68494-1.3614c-0.16293 0.08708-0.32736 0.17106-0.49317 0.25173h-1.66e-4c-0.1662 0.08084-0.33375 0.15859-0.50266 0.23303-0.16883 0.07434-0.33906 0.14551-0.51052 0.21345h-1.67e-4l-1.68e-4 1.77e-4c-0.17157 0.06812-0.34428 0.13285-0.51804 0.19424-0.1741 0.06148-0.34921 0.11985-0.52524 0.17468h-1.67e-4c-0.17625 0.05485-0.35324 0.1063-0.53114 0.15445h-1.68e-4l-1.66e-4 1.75e-4c-0.17826 0.04821-0.35724 0.09318-0.53686 0.13461h-1.67e-4c-0.17984 0.04144-0.36049 0.07949-0.54161 0.11416-0.18106 0.03439-0.36263 0.06554-0.54472 0.09317l-6.7e-4 1.76e-4h-5.02e-4c-0.18187 0.02789-0.36434 0.05227-0.54734 0.07312-0.18336 0.02086-0.36706 0.03805-0.55093 0.052-0.18403 0.01382-0.36817 0.02437-0.55224 0.03115h-0.001508c-0.11058 4e-3 -0.22211 0.0054-0.33331 0.0067v-2.7738c0.97629-0.07286 2.1246-0.14163 3.0442-0.39013-0.30054 0.02917-0.01228 0.02333 0.0081-0.01538h5.03e-4c0.13682-0.03321 0.27332-0.06835 0.4094-0.10521l5.04e-4 -1.73e-4c0.19573-0.05291 0.39032-0.10942 0.58366-0.16962 0.19381-0.06031 0.3862-0.12448 0.57744-0.19205h5.03e-4c0.1913-0.06768 0.38118-0.1389 0.56959-0.21363l1.67e-4 -1.73e-4h1.68e-4c0.18842-0.07468 0.37546-0.15292 0.56108-0.2347h1.68e-4v-1.72e-4c0.18591-0.08196 0.37022-0.1674 0.5529-0.25629h1.67e-4l1.68e-4 -1.72e-4c0.09201-0.04482 0.18251-0.09304 0.27375-0.13961 0.08947-0.04568 0.17972-0.08957 0.26835-0.13691l1.67e-4 -1.72e-4c0.1791-0.09555 0.35644-0.19446 0.53195-0.29675h1.68e-4c0.17559-0.10238 0.34918-0.2079 0.52083-0.31682 0.17175-0.10896 0.34143-0.22116 0.50905-0.33654l1.67e-4 -1.74e-4h1.68e-4c0.16746-0.1154 0.3327-0.23411 0.49579-0.35576v1.72e-4c0.16307-0.12161 0.32377-0.24647 0.48221-0.37414l1.66e-4 -1.73e-4 1.69e-4 -1.72e-4c0.15848-0.12759 0.31449-0.25803 0.46814-0.39151l1.69e-4 -1.73e-4h1.67e-4c0.08195-0.0713 0.16115-0.14576 0.24168-0.21869 0.03739-0.03385 0.07534-0.06697 0.11242-0.10117l4.7581 4.8092c-0.07052 0.06988-0.1382 0.14266-0.20961 0.21161-0.26021 0.23954-0.52561 0.47303-0.79638 0.70024-0.27259 0.22874-0.55049 0.45134-0.83335 0.66718v-3.52e-4c-0.25912 0.19767-0.52337 0.38825-0.79048 0.57462-0.31617 0.2206-0.63678 0.43496-0.9636 0.63937v-1.76e-4c-0.30149 0.18852-0.60707 0.37005-0.9168 0.54428-0.30973 0.17422-0.62355 0.34128-0.94102 0.50093h-1.68e-4c-0.63483 0.31932-1.284 0.60883-1.9454 0.86767-0.33072 0.12933-0.66421 0.2511-1.0004 0.36486-0.33626 0.11375-0.67523 0.21965-1.0165 0.31767l0.39958 1.477c0.72585-0.2085 1.442-0.45074 2.1458-0.72604 0.3518-0.13768 0.70036-0.28346 1.0454-0.43738 0.34501-0.15388 0.68659-0.31589 1.0243-0.48576 0.33782-0.16987 0.6716-0.34772 1.0012-0.53313 0.32963-0.18543 0.65513-0.37851 0.97604-0.57918 0.34814-0.21774 0.68975-0.44596 1.0266-0.68101 0.02206-0.01543 0.04524-0.02912 0.06725-0.04455 0.26147-0.18374 0.51939-0.37261 0.77363-0.56653l1.68e-4 -1.76e-4c0.30118-0.22983 0.59706-0.4666 0.88735-0.71018 0.2903-0.24359 0.57502-0.49404 0.85397-0.751l0.0062-0.0054 0.0065-0.0054c0.08929-0.08613 0.17381-0.17706 0.2618-0.26454l3.0683 3.1012c-7.55e-4 8.81e-4 -0.0022 0.0027-0.0029 4e-3 -3e-3 4e-3 0.0092-0.0095 0.0035-4e-3l0.48041 0.48594 0.2834 0.27938 0.29878 0.30889c0.096-0.09858 0.05795-0.06541 0.07658-0.08829 0.01862-0.02302 0.04095-0.05091 0.06676-0.08328 0.05162-0.06486 0.1166-0.14715 0.1813-0.22898 0.06471-0.08179 0.12918-0.16317 0.17819-0.22476 0.02451-0.03074 0.04517-0.05688 0.0589-0.0738 0.01373-0.01693 0.07204-0.07503-0.01407 0.01395l0.0032-4e-3 0.0032-0.0027c0.19184-0.20316 0.3811-0.40906 0.56746-0.61761h-1.68e-4c0.18635-0.20851 0.37005-0.41957 0.55077-0.6333l1.68e-4 -1.76e-4 1.68e-4 -1.62e-4c0.18043-0.21372 0.35794-0.43006 0.53261-0.64881l5.03e-4 -3.52e-4c0.17478-0.21857 0.34655-0.43968 0.51543-0.66314l-1.1741-0.94275c-0.16058 0.21246-0.32402 0.42275-0.49023 0.63059l-1.66e-4 1.77e-4 -1.69e-4 1.62e-4c-0.16608 0.20802-0.33501 0.41356-0.50659 0.61678-0.17162 0.20295-0.34597 0.4034-0.52295 0.60143v1.75e-4c-0.03553 0.03967-0.07243 0.07814-0.10816 0.11768l-2.999-3.0311-0.04599-0.04618-1.0165-1.0275-4.7319-4.7831-0.39565-0.39977c0.0344-0.04171 0.06865-0.08344 0.1026-0.12545 0.04402-0.05443 0.08951-0.10735 0.13287-0.16237 0.60376-0.76729 1.1328-1.5808 1.5865-2.431 0.05867-0.10951 0.11387-0.22062 0.17017-0.33165 0.16528-0.32713 0.31932-0.65884 0.46241-0.9953 0.03593-0.08417 0.08027-0.16347 0.11486-0.24836l8.4373 2.8048 0.45685-1.4593-8.3851-2.7876c0.03729-0.12243 0.06473-0.24882 0.09932-0.37246 0.09183-0.32882 0.17456-0.65952 0.24642-0.99328 0.03518-0.16355 0.0697-0.32684 0.10014-0.49217 0.08457-0.45801 0.15668-0.91842 0.20355-1.3824 0.0043-0.04368 0.0056-0.08824 0.0096-0.13202 0.02525-0.27087 0.0417-0.54258 0.054-0.81472h7.589v1.71e-4l0.76452-1.43e-4h0.50086v-1.74e-4h0.2227c-3.6e-5 -0.19412-0.0087-0.50305-0.01315-0.76667h0.01117c-1.72e-4 -0.76352-0.0352-1.5266-0.10506-2.2868v-1.73e-4c-0.034986-0.38-0.078546-0.75907-0.13071-1.1369-0.05217-0.37793-0.11288-0.75484-0.18228-1.13h-1.67e-4c-0.13881-0.75043-0.3118-1.494-0.51862-2.2282v-1.72e-4c-0.17765-0.63071-0.38507-1.2523-0.61164-1.8667h-1.5991c0.03457 0.08701 0.073 0.17239 0.10652 0.25983v1.73e-4c0.2559 0.66724 0.48113 1.3459 0.67496 2.0341 0.19385 0.68814 0.35616 1.385 0.4863 2.0882 0.06503 0.35149 0.12196 0.70449 0.17083 1.0585 0.04889 0.3541 0.08957 0.70918 0.12223 1.0653h1.69e-4v3.45e-4c0.02923 0.31805 0.05253 0.84472 0.06986 1.3757h-7.557c-0.01144-0.25468-0.02999-0.50929-0.05286-0.7638-0.0056-0.06279-0.0068-0.12677-0.01314-0.18935-0.0478-0.47282-0.12046-0.94398-0.2083-1.4138-0.02897-0.15538-0.06338-0.30836-0.09654-0.46216-0.07116-0.32959-0.1527-0.6573-0.24397-0.98384-0.04289-0.15344-0.0827-0.30772-0.12976-0.45929-0.01969-0.06346-0.03665-0.12739-0.0571-0.1907l4.094-1.8466-0.59692-1.4047-4.0405 1.8227c-0.29673-0.693-0.65048-1.3518-1.0324-1.9905h-1.7651c0.55707 0.81295 1.0459 1.6797 1.4399 2.603l-0.0032 0.0015 0.16395 0.38595c0.02636 0.06679 0.04729 0.1348 0.07265 0.20182 0.10353 0.27379 0.20426 0.54912 0.2924 0.83057 0.05737 0.18251 0.10514 0.36671 0.15545 0.55051 0.0682 0.25032 0.13157 0.50271 0.18735 0.75824 0.03628 0.1651 0.07282 0.33013 0.10357 0.49588 0.07607 0.41365 0.14171 0.83119 0.18424 1.2563 0.0059 0.0588 0.0071 0.11771 0.01248 0.17653 0.01818 0.20496 0.01998 0.41453 0.0301 0.62183h-6.6475c-0.0052-0.05602-0.01335-0.11091-0.01963-0.16659-0.01432-0.12644-0.03557-0.25118-0.05564-0.37651-0.02237-0.13961-0.04382-0.27918-0.07303-0.41629-0.02554-0.11988-0.05777-0.23769-0.08854-0.35611-0.03531-0.13555-0.06968-0.27102-0.1116-0.40365-0.03913-0.12425-0.08514-0.2456-0.13008-0.36774-0.04418-0.11954-0.08714-0.23938-0.13663-0.3561-0.05682-0.13472-0.12092-0.26579-0.1849-0.39724-0.0474-0.09692-0.09344-0.19438-0.14448-0.289-0.07766-0.1446-0.16228-0.28495-0.24871-0.42473-0.04663-0.0751-0.09209-0.15071-0.14105-0.22408-0.05183-0.07796-0.10214-0.15648-0.15676-0.23268l2.756-2.7846-1.0343-1.0869h-0.01537l-2.6999 2.7278c-0.06633-0.06269-0.13859-0.11726-0.20682-0.17738-0.05717-0.05047-0.1147-0.09997-0.17328-0.14871-0.13275-0.11019-0.26823-0.21557-0.40727-0.31614-0.07256-0.05268-0.14606-0.1033-0.22041-0.15344-0.13-0.08731-0.2615-0.17111-0.39614-0.25005-0.09432-0.05556-0.19027-0.10766-0.287-0.15917-0.12013-0.06366-0.24073-0.12538-0.36391-0.18244-0.11634-0.05414-0.23464-0.10368-0.35393-0.15192-0.11316-0.04558-0.22626-0.08996-0.34149-0.13-0.12976-0.04523-0.26146-0.08494-0.39418-0.12308-0.11257-0.0323-0.22509-0.06369-0.3392-0.09072-0.1345-0.03186-0.2707-0.05784-0.40776-0.08228-0.05421-0.0098-0.10718-0.02439-0.16166-0.03288v-0.72957zm27.994 0c0.06675 0.22263 0.13209 0.44569 0.19357 0.66972v3.46e-4c0.07103 0.25908 0.13865 0.51919 0.20274 0.78016v1.73e-4c0.06421 0.26129 0.12498 0.5232 0.18212 0.78606v1.73e-4c0.05716 0.26286 0.11073 0.52641 0.16085 0.79078v1.73e-4c0.05014 0.26416 0.09669 0.52928 0.13974 0.79499v1.72e-4c0.04307 0.26564 0.08262 0.53207 0.11863 0.79904 0.03589 0.2667 0.06813 0.53377 0.09687 0.8014v1.73e-4c0.02876 0.26765 0.05395 0.5356 0.07543 0.80376v1.72e-4l1.67e-4 1.74e-4v1.72e-4c0.02164 0.26827 0.03966 0.53699 0.05415 0.80578 1.2e-5 1.72e-4 -7e-6 5.18e-4 0 6.91e-4 0.01435 0.26926 0.02546 0.53794 0.03225 0.80578 7e-6 2.58e-4 -8e-6 3.45e-4 0 6.9e-4v0.001899c0.0076 0.2678 0.01091 0.53658 0.01091 0.80646v3.45e-4c-7.3e-5 0.26994-0.0034 0.53893-0.01091 0.8068v0.0026c-0.0068 0.26804-0.01787 0.53666-0.03225 0.80612-0.01451 0.26895-0.0325 0.53758-0.05415 0.80595l-1.67e-4 1.72e-4v3.45e-4c-0.02147 0.26816-0.04668 0.5361-0.07543 0.80376-0.02876 0.26785-0.06096 0.53531-0.09687 0.80224-0.03601 0.26675-0.07558 0.53294-0.11863 0.79836-0.0431 0.2658-0.08962 0.53093-0.13974 0.79516-0.05006 0.26425-0.10368 0.52804-0.16085 0.79095-0.05714 0.26286-0.11791 0.52494-0.18212 0.78623-0.06419 0.26123-0.13168 0.5214-0.20274 0.78049-0.07108 0.259-0.14574 0.51731-0.22384 0.77442h-1.68e-4v1.72e-4c-0.07795 0.257-0.1593 0.51294-0.24413 0.76768-0.08481 0.25451-0.17321 0.50803-0.26491 0.76026l-1.68e-4 1.72e-4 -1.67e-4 1.74e-4c-0.09156 0.25238-0.18626 0.50349-0.28455 0.75318-0.09831 0.24932-0.20006 0.49729-0.305 0.74374-0.105 0.24667-0.21323 0.49187-0.3248 0.73547-0.11163 0.2435-0.22666 0.48528-0.34476 0.72553l1.3275 0.69298c0.12432-0.25288 0.24541-0.50746 0.36293-0.7638v-1.74e-4l1.67e-4 -1.72e-4c0.11741-0.25634 0.23131-0.51416 0.34182-0.77375h-1.69e-4c0.11048-0.25946 0.21753-0.52051 0.32104-0.78302l1.68e-4 -1.74e-4v-4.37e-4c0.10337-0.26262 0.20329-0.52665 0.2996-0.79213l1.67e-4 -3.45e-4c0.0964-0.26518 0.18917-0.53182 0.27849-0.79988h1.67e-4v-1.74e-4c0.08922-0.26792 0.17487-0.53707 0.2569-0.80747v-5.16e-4c0.08212-0.27036 0.16074-0.5419 0.23562-0.81472v-1.71e-4c0.0748-0.2728 0.14606-0.54653 0.21353-0.82113 0.06753-0.27484 0.13127-0.55073 0.19144-0.82754 0.06012-0.27653 0.1168-0.55394 0.16952-0.83226l-1.68e-4 1.73e-4c0.05275-0.27821 0.1018-0.55712 0.1471-0.83647 0.04535-0.27958 0.08682-0.55961 0.12469-0.84018v-3.46e-4c0.03778-0.28084 0.07202-0.56226 0.10227-0.84406v-1.71e-4c0.03023-0.28144 0.05657-0.56335 0.07919-0.84575v-5.19e-4c0.02278-0.28242 0.04184-0.56488 0.0571-0.84777v-5.18e-4c0.015-0.28166 0.02666-0.5644 0.03387-0.8481v-0.0021c7.54e-4 -0.02764 4.19e-4 -0.05517 0.0011-0.08278h3.8227c-0.01337 0.58593-0.02195 1.1722-0.06577 1.7567-0.06286 0.83951-0.15704 1.6764-0.28242 2.5089-0.12537 0.83261-0.28175 1.6603-0.46896 2.4813-0.18718 0.82083-0.40506 1.6345-0.65304 2.4391-0.24813 0.80479-0.5261 1.5999-0.83368 2.384-0.30753 0.78383-0.64435 1.556-1.0096 2.3147v1.71e-4c-0.36516 0.75886-0.75857 1.5037-1.1794 2.2332-0.4209 0.72956-0.86895 1.4432-1.3432 2.1393-0.47432 0.69607-0.9746 1.374-1.4996 2.0328v1.63e-4c-0.524 0.65764-1.0725 1.2952-1.6441 1.912-0.29472 0.3072-1.491 1.492-1.8866 1.8748-0.58803 0.54194-1.192 1.0661-1.8171 1.565-0.65857 0.52542-1.3367 1.0262-2.0327 1.501h-1.68e-4c-0.69621 0.47505-1.4101 0.92397-2.1399 1.3457-0.72973 0.42152-1.4749 0.81561-2.2342 1.1814-0.75927 0.36593-1.5321 0.70333-2.3166 1.0115-0.7845 0.30797-1.5803 0.58665-2.3857 0.83512h-1.67e-4c-0.80546 0.24866-1.62 0.46697-2.4418 0.65471-0.82184 0.18777-1.6504 0.34481-2.484 0.4706l0.21566 1.5173c0.86925-0.13122 1.7333-0.29501 2.5904-0.49082 0.85706-0.19579 1.7066-0.42352 2.5467-0.68287 0.84013-0.25919 1.6703-0.5499 2.4888-0.87121h1.67e-4c0.81849-0.32149 1.6248-0.67333 2.4171-1.0552 0.7923-0.38176 1.5699-0.79322 2.3315-1.2332 0.76169-0.4401 1.5067-0.90861 2.2335-1.4045 0.72673-0.49569 1.435-1.0183 2.1227-1.567h1.68e-4c0.6288-0.50189 1.2379-1.0279 1.831-1.5716l0.0021 0.0027c0.0084-0.0081 0.03606-0.03615 0.04533-0.04509 0.03979-0.03657 0.08129-0.07123 0.12092-0.10806l-0.0055-0.0067c0.4662-0.45245 1.5202-1.4939 1.8631-1.8517l0.0084-8e-3c0.5984-0.64548 1.1726-1.3131 1.7212-2.0016v-1.62e-4c0.54871-0.68845 1.0716-1.3972 1.5674-2.1248v-1.64e-4c0.49582-0.72777 0.96428-1.4739 1.4044-2.2368 0.44007-0.76282 0.85167-1.5419 1.2336-2.3356v-1.72e-4c0.382-0.79355 0.73434-1.6011 1.0561-2.4211 0.32179-0.82028 0.61265-1.6524 0.8723-2.4946v-1.73e-4c0.25948-0.84193 0.48757-1.6932 0.68347-2.5522 0.19593-0.85918 0.35966-1.7255 0.49088-2.5969 0.13123-0.87134 0.22971-1.7473 0.29551-2.6261 0.04678-0.624 0.07097-1.2492 0.08459-1.8748h0.01455l-1.82e-4 -0.76656v-1.73e-4l1.67e-4 -0.76667h-0.01455c-0.01364-0.6254-0.03768-1.2506-0.08445-1.8744v-2.43e-4c-0.0657-0.87888-0.16437-1.755-0.29561-2.6264-0.13122-0.87147-0.29496-1.7377-0.49088-2.5969-0.05991-0.26273-0.1285-0.52331-0.19439-0.78454h-1.5358c0.0998 0.37685 0.19459 0.7551 0.28128 1.1352 0.18721 0.82096 0.34375 1.6488 0.46912 2.4814 0.1254 0.83263 0.21971 1.6696 0.28258 2.5092v1.73e-4c0.04382 0.58438 0.05241 1.1703 0.06577 1.7561h-3.823c-6.71e-4 -0.02756-4.19e-4 -0.05487-0.0011-0.08244v-0.002536c-0.0075-0.28285-0.01867-0.56539-0.03371-0.84777v-6.9e-4c-0.01525-0.28286-0.03432-0.56543-0.0571-0.84777v-6.91e-4c-0.02271-0.28232-0.04921-0.56416-0.07936-0.84558v-1.73e-4c-0.0302-0.28166-0.06416-0.56297-0.10195-0.84372h-1.66e-4v-3.49e-4c-0.03791-0.28071-0.07954-0.56078-0.1249-0.84051v-1.73e-4c-0.0453-0.27929-0.09403-0.55799-0.14677-0.83613v-3.45e-4c-0.05273-0.27814-0.10922-0.55556-0.16936-0.83209-0.06015-0.27675-0.12408-0.55258-0.19161-0.82737v-1.73e-4c-0.01425-0.05797-0.03059-0.11544-0.04516-0.17333-0.05443-0.21636-0.10924-0.43255-0.16821-0.64763h-1.66e-4v-3.46e-4c-0.0232-0.08445-0.04909-0.16816-0.07298-0.25241zm-19.908 9.4157h6.6475c-0.01104 0.22661-0.01234 0.45586-0.03306 0.67967-0.0036 0.03875-0.0053 0.07765-0.0092 0.11634-0.0417 0.41736-0.10694 0.82723-0.18097 1.2335-0.03055 0.16629-0.06497 0.33174-0.10096 0.49689-0.05717 0.26396-0.12332 0.52409-0.19374 0.78252-0.04543 0.16617-0.08595 0.33348-0.13695 0.49807-0.11222 0.36292-0.23887 0.71901-0.37651 1.0692-0.07223 0.18366-0.15377 0.36387-0.23317 0.54478-0.09059 0.20631-0.18448 0.4106-0.28373 0.61172-0.08936 0.18122-0.17994 0.3619-0.27669 0.53972-0.1178 0.21629-0.24404 0.42645-0.37176 0.63583-0.14127 0.23178-0.28814 0.46027-0.44245 0.68489-0.15596 0.22686-0.31423 0.45191-0.48188 0.66904-0.07486 0.09697-0.15591 0.18995-0.23333 0.28529l-4.791-4.8425c0.82081-1.1421 1.3602-2.5124 1.4978-4.005zm-2.2306 5.4122 4.5137 4.5619c-2.3253 2.3276-5.4021 3.8418-8.8207 4.1222v-6.8793c0.04725-0.0044 0.09446-0.0066 0.1417-0.01192 0.14712-0.0167 0.29388-0.03769 0.43983-0.06273 0.14577-0.02501 0.29095-0.05399 0.43525-0.08716h3.36e-4c0.0441-0.01015 0.08734-0.02331 0.13123-0.03421 0.07808 0.24124 0.20515 0.63416 1.2374 3.8234l1.4118-0.48526c-1.0354-3.1991-1.1645-3.5981-1.2413-3.8352 0.04452-0.02066 0.09006-0.03939 0.13418-0.06087l-3.37e-4 5.19e-4c0.13347-0.06483 0.26488-0.13356 0.39434-0.2057l3.34e-4 -1.72e-4 6.71e-4 -1.74e-4c0.12964-0.07246 0.2571-0.14859 0.38256-0.2283 0.12548-0.0796 0.24863-0.1628 0.36931-0.2492l3.34e-4 -1.73e-4 1.69e-4 -1.73e-4c0.12054-0.08646 0.23893-0.1762 0.35458-0.26944 0.03918-0.03151 0.07613-0.06554 0.1147-0.09779zm11.802 17.449c-0.21052 0.15958-0.42326 0.3162-0.63798 0.46974-0.21468 0.1533-0.43138 0.30371-0.65009 0.45087h-1.68e-4c-0.21878 0.14728-0.43957 0.29146-0.6622 0.43248-0.22279 0.14111-0.44753 0.27907-0.67398 0.41378h-1.66e-4c-0.22623 0.13461-0.45423 0.26606-0.68396 0.39421l-1.68e-4 1.77e-4c-0.22984 0.12811-0.4616 0.25307-0.69476 0.37465-0.23319 0.12161-0.46793 0.23987-0.70425 0.35474-0.2364 0.11497-0.47436 0.22665-0.71374 0.33487-0.23943 0.1082-0.48035 0.21311-0.72258 0.31446h-1.68e-4c-0.24217 0.10143-0.48565 0.19938-0.73043 0.29389-0.24486 0.09453-0.49102 0.18542-0.73812 0.2728h-1.69e-4c-0.24722 0.08734-0.49558 0.1714-0.745 0.25173h-1.67e-4c-0.24924 0.08043-0.49971 0.15728-0.75121 0.23066-1.69e-4 5.4e-5 -5.03e-4 8.1e-5 -6.7e-4 1.76e-4 -0.2512 0.07313-0.50352 0.14283-0.75678 0.20891h-1.67e-4c-0.2535 0.06609-0.50769 0.12878-0.76267 0.18765-0.25509 0.05891-0.51104 0.11416-0.76741 0.16575v1.62e-4h-1.66e-4c-0.12826 0.02587-0.25719 0.04793-0.38584 0.07205-0.12849 0.02397-0.25681 0.04943-0.38567 0.07163v1.63e-4c-8.3e-5 2.7e-5 -1.67e-4 -1.4e-5 -3.35e-4 0h-1.67e-4c-0.2577 0.04415-0.51598 0.08491-0.77461 0.12174h-1.67e-4c-0.25887 0.03697-0.51828 0.07042-0.77805 0.09994h-6.7e-4c-0.25973 0.02979-0.51991 0.05579-0.7805 0.07801-0.08669 0.0067-0.17357 0.01219-0.26033 0.01855-0.17386 0.01355-0.34779 0.02694-0.52197 0.03697-0.25996 0.01476-0.52106 0.02573-0.78345 0.03372-3.36e-4 0-6.71e-4 -1.3e-5 -9.36e-4 0-0.26173 0.0067-0.52271 0.01084-0.78279 0.01084h-3.35e-4c-0.26813 2.8e-5 -0.80407-0.01706-0.80407-0.01706v5.9978c0.26806 0.0067 0.53605 0.01517 0.80423 0.01517h0.74418v-4.4735s0.05343-4.33e-4 0.08-0.0011h0.001341c0.27473-0.0081 0.54951-0.01964 0.82403-0.03548 0.13734-0.0081 0.27442-0.0195 0.41169-0.02912 0.13719-0.0095 0.27458-0.01746 0.41169-0.02912h5.03e-4c0.2501-0.02139 0.49952-0.04713 0.74876-0.07503 0.02405-0.0027 0.04828-4e-3 0.07232-0.0067 0.27333-0.03115 0.5464-0.06636 0.81879-0.10522 0.27242-0.03887 0.54422-0.08166 0.81536-0.12811h1.66e-4c0.13568-0.0233 0.27089-0.05064 0.40629-0.07583 0.13536-0.02519 0.27088-0.04849 0.40596-0.0757 0.2701-0.0543 0.53932-0.11253 0.80767-0.1745h1.68e-4c0.26845-0.06202 0.53578-0.1277 0.80226-0.19728 0.26663-0.06948 0.5324-0.14299 0.79703-0.22003h3.35e-4c0.26472-0.07718 0.5283-0.15822 0.79065-0.24281h1.68e-4c0.26248-0.0845 0.52363-0.17282 0.78361-0.2647h1.68e-4v-1.75e-4c0.26029-0.09208 0.51936-0.1877 0.77707-0.28714 0.25755-0.0994 0.51378-0.20253 0.76856-0.30923l1.68e-4 -1.75e-4c0.25484-0.10658 0.50817-0.21681 0.76005-0.33064 0.25191-0.11389 0.50244-0.2314 0.75121-0.35239 0.24876-0.12093 0.49582-0.24519 0.74123-0.37313 0.24546-0.12797 0.48917-0.25965 0.73109-0.39454 0.24178-0.13488 0.48188-0.27328 0.71996-0.41495 0.23837-0.1418 0.47485-0.28685 0.70933-0.43535 0.23418-0.14834 0.46642-0.29998 0.69656-0.45492l1.67e-4 -1.63e-4c0.23026-0.15493 0.45858-0.31322 0.68462-0.47465l1.67e-4 -1.62e-4h1.69e-4c0.22594-0.16157 0.44965-0.32643 0.6712-0.49438z" color="#000000" fill="#fff" opacity=".80974" stroke-width=".096057" style="-inkscape-stroke:none"/></svg>
