<?xml version="1.0" encoding="UTF-8"?>
<svg id="r" width="256" height="256" version="1.1" viewBox="0 0 67.733 67.733" xmlns="http://www.w3.org/2000/svg" xmlns:xlink="http://www.w3.org/1999/xlink"><defs id="s"><linearGradient id="a"><stop id="t" stop-color="#ffffe0" offset="0"/><stop id="u" stop-color="#ffe588" stop-opacity="0" offset="1"/></linearGradient><linearGradient id="q" x1="62.064" x2="47.194" y1="203.26" y2="257.15" gradientTransform="matrix(.52872 0 0 .52872 -53.219 54.775)" gradientUnits="userSpaceOnUse"><stop id="v" stop-color="#8dc5ff" offset="0"/><stop id="w" stop-color="#f2c600" offset="1"/></linearGradient><linearGradient id="p" x1="11.75" x2="14.5" y1="23.25" y2="26" gradientTransform="matrix(1.4802 .16735 -.21307 1.631 -40.614 122.34)" gradientUnits="userSpaceOnUse" xlink:href="#c"/><linearGradient id="c"><stop id="x" stop-color="#a8ae30" offset="0"/><stop id="y" stop-color="#8f9429" offset="1"/></linearGradient><linearGradient id="o" x1="27.812" x2="26.7" y1="22.657" y2="25.157" gradientTransform="matrix(1.7447 .17697 -.23653 1.6471 -51.515 132.77)" gradientUnits="userSpaceOnUse" xlink:href="#c"/><linearGradient id="n" x1="29.062" x2="28.463" y1="29" y2="23.782" gradientTransform="matrix(1.7447 .17697 -.23653 1.6471 -51.515 132.77)" gradientUnits="userSpaceOnUse" xlink:href="#b"/><linearGradient id="b"><stop id="z" stop-color="#6c782e" offset="0"/><stop id="aa" stop-color="#929829" offset="1"/></linearGradient><linearGradient id="m" x1="11.75" x2="14.5" y1="23.25" y2="26" gradientTransform="matrix(1.4393 .18625 -.19577 1.7139 -44.978 131.41)" gradientUnits="userSpaceOnUse" xlink:href="#c"/><linearGradient id="l" x1="10.062" x2="12.656" y1="29.5" y2="24.75" gradientTransform="matrix(1.6104 .20839 -.19577 1.7139 -48.315 130.98)" gradientUnits="userSpaceOnUse" xlink:href="#b"/><linearGradient id="k" x1="20.384" x2="19.884" y1="31.625" y2="26.438" gradientTransform="matrix(1.6626 .20101 -.21024 1.716 -48.962 131.07)" gradientUnits="userSpaceOnUse" xlink:href="#b"/><linearGradient id="j" x1="16.917" x2="16.374" y1="25.211" y2="16.541" gradientTransform="matrix(1.8656 .24199 -.24191 2.1233 -47.49 123.03)" gradientUnits="userSpaceOnUse"><stop id="ab" stop-color="#ed6520" offset="0"/><stop id="ac" stop-color="#ff9e50" offset="1"/></linearGradient><linearGradient id="i" x1="10.257" x2="13.592" y1="24.583" y2="15.521" gradientTransform="matrix(1.8656 .24199 -.24191 2.1233 -47.49 123.03)" gradientUnits="userSpaceOnUse"><stop id="ad" stop-color="#da6224" offset="0"/><stop id="ae" stop-color="#d57042" offset="1"/></linearGradient><radialGradient id="d" cx="19" cy="22.472" r="2" gradientTransform="matrix(4.6873 -2.2283e-6 2.6943e-6 4.0513 -87.893 83.027)" gradientUnits="userSpaceOnUse"><stop id="af" stop-color="#8a300c" offset="0"/><stop id="ag" stop-color="#ec510c" stop-opacity="0" offset="1"/></radialGradient><linearGradient id="h" x1="18.369" x2="18.154" y1="23.025" y2="19.235" gradientTransform="matrix(2.5851 0 0 2.9014 -47.952 109.57)" gradientUnits="userSpaceOnUse"><stop id="ah" stop-color="#b04730" offset="0"/><stop id="ai" stop-color="#ff7b2f" offset="1"/></linearGradient><linearGradient id="g" x1="21" x2="21.25" y1="20" y2="22" gradientTransform="matrix(1.3846 .1674 -.23566 1.9234 -43.439 128.08)" gradientUnits="userSpaceOnUse" xlink:href="#a"/><linearGradient id="f" x1="17" x2="18.892" y1="21" y2="22.07" gradientTransform="matrix(1.4278 .17262 -.23422 1.9117 -44.386 127.75)" gradientUnits="userSpaceOnUse" xlink:href="#a"/><linearGradient id="e" x1="18" x2="19.488" y1="18" y2="20.631" gradientTransform="matrix(1.3846 .1674 -.22236 1.8149 -43.792 129.35)" gradientUnits="userSpaceOnUse" xlink:href="#a"/></defs><g id="aj" transform="translate(53.219 -145.66)"><rect id="ak" x="-46.613" y="152.32" width="54.463" height="54.463" ry="4.2298" fill="#c0bfbc" stroke="#c0bfbc" stroke-linecap="round" stroke-linejoin="round" stroke-width=".26458"/><rect id="al" x="-46.613" y="152.32" width="54.463" height="52.296" ry="4.0615" fill="#f6f5f4" stroke="#c0bfbc" stroke-linecap="round" stroke-linejoin="round" stroke-width=".26458"/><rect id="am" x="-42.383" y="156.3" width="46.004" height="34.437" ry="2.6745" fill="url(#q)" stroke="#c0bfbc" stroke-linecap="round" stroke-linejoin="round" stroke-width=".26458"/><g id="an" transform="translate(.056276 .63708)"><path id="ao" d="m-17.201 167.34c-1.7975-10.702-18.538-10.979-14.111 4.0577 6.3427-5.7437 6.2982 0.71205 14.111-4.0577z" fill="url(#p)" fill-rule="evenodd" stroke="#909729" stroke-width=".52917"/><path id="ap" d="m-23.715 168.49c5.3306-10.736 25.633-6.6239 15.847 7.961-5.9656-7.6836-7.8177-0.91057-15.847-7.961z" fill="#9ca02c" fill-rule="evenodd" stroke="#909729" stroke-width=".52917"/><path id="aq" d="m-19.045 177.84c5.0268-10.352 23.11-6.847 14.002 7.2691-5.1603-7.2078-6.9788-0.70787-14.002-7.2691z" fill="url(#o)" fill-rule="evenodd" stroke="url(#n)" stroke-width=".52917"/><path id="ar" d="m-21.92 178.89c-1.8203-11.268-18.088-11.676-13.683 4.1702 6.123-5.9972 6.1243 0.7925 13.683-4.1702z" fill="url(#m)" fill-rule="evenodd" stroke="url(#l)" stroke-width=".52917"/><path id="as" d="m-20.44 173.7c13.301 1.608 2.274 8.982 1.0222 12.313-11.218-4.839-7.6113-13.11-1.0222-12.313z" fill="#a8ae30" fill-rule="evenodd" stroke="url(#k)" stroke-width=".52917"/><path id="at" d="m-13.68 185.98c-1.4867 0.99548-5.3103-6.2719-7.9878-7.6966-2.9194 0.69869-6.5111 6.595-7.9804 5.5166-1.6802-1.2334 0.383-8.8385 1.3505-10.501 1.247-2.1432-7.1783-2.3128-6.4676-4.1263 0.7011-1.7891 7.6173-3.4414 9.7951-3.7498 0.78978-2.1257 2.8355-5.4728 5.634-5.1098 2.7985 0.36299 4.3589 4.4685 4.9402 6.5742 2.9081 0.50171 7.6729 2.4923 8.0299 4.4175 0.35224 1.8993-9.6217 1.5702-8.3509 3.7732 0.92774 1.6084 2.1503 9.8424 1.037 10.902z" fill="url(#j)" stroke="url(#i)" stroke-linecap="round" stroke-width=".52917"/><ellipse id="au" transform="matrix(.99329 .11566 -.12606 .99202 0 0)" cx="1.1658" cy="171.95" rx="5.1703" ry="4.352" fill="url(#d)" stroke="url(#h)" stroke-linecap="round" stroke-width=".26521"/><path id="av" d="m-19.381 173.52 2.1615-6.3112" fill="none" stroke="url(#g)" stroke-linecap="round" stroke-width=".52917"/><path id="aw" d="m-22.285 173.93-2.2743-5.6018" fill="none" stroke="url(#f)" stroke-linecap="round" stroke-width=".52917"/><path id="ax" d="m-21.038 172.27 0.21815-8.9167" fill="none" stroke="url(#e)" stroke-linecap="round" stroke-width=".52917"/></g><g id="ay" transform="translate(0 -1.3363)" fill="#f5c211" stroke="#f5c211" stroke-linecap="round" stroke-linejoin="round" stroke-width=".52917"><path id="az" d="m1.2098 197.42-1.1476-0.72344-1.0572 0.85016 0.33339-1.315-1.1352-0.74274 1.3537-0.0893 0.35558-1.3092 0.50323 1.2598 1.355-0.0664-1.0427 0.86791z"/><path id="ba" d="m-5.0026 197.42-1.1476-0.72344-1.0572 0.85016 0.33339-1.315-1.1352-0.74274 1.3537-0.0893 0.35558-1.3092 0.50323 1.2598 1.355-0.0664-1.0427 0.86791z"/><path id="bb" d="m-10.951 197.42-1.1476-0.72344-1.0572 0.85016 0.33339-1.315-1.1352-0.74274 1.3537-0.0893 0.35558-1.3092 0.50323 1.2598 1.355-0.0664-1.0427 0.86791z"/></g><path id="bc" d="m-40.59 194.87h23.057" fill="none" stroke="#deddda" stroke-linecap="round" stroke-width="2.1167"/><path id="bd" d="m-40.59 199.35h23.057" fill="none" stroke="#deddda" stroke-linecap="round" stroke-width="2.1167"/></g></svg>
