<?xml version="1.0" encoding="UTF-8"?>
<svg viewBox="0 0 128 128" xmlns="http://www.w3.org/2000/svg" xmlns:xlink="http://www.w3.org/1999/xlink"><radialGradient id="a" cx="64.496" cy="47.267" r="60" gradientUnits="userSpaceOnUse"><stop stop-color="#f6f5f4" offset="0"/><stop stop-color="#deddda" offset="1"/></radialGradient><linearGradient id="b" x1="64" x2="64" y1="64" y2="48" gradientUnits="userSpaceOnUse"><stop stop-color="#c0bfbc" offset="0"/><stop stop-color="#9a9996" offset="1"/></linearGradient><linearGradient id="c" gradientUnits="userSpaceOnUse"><stop stop-color="#e01b24" offset="0"/><stop stop-color="#a51d2d" offset=".53556"/><stop stop-color="#241f31" offset="1"/></linearGradient><radialGradient id="d" cx="34.313" cy="64" r="13.818" xlink:href="#c"/><linearGradient id="e" gradientUnits="userSpaceOnUse"><stop stop-color="#f5c211" offset="0"/><stop stop-color="#f0a014" offset=".52888"/><stop stop-color="#e01b24" offset="1"/></linearGradient><radialGradient id="f" cx="34.313" cy="64" r="1.8518" xlink:href="#e"/><radialGradient id="g" cx="94.313" cy="64" r="13.818" xlink:href="#c"/><radialGradient id="h" cx="94.313" cy="64" r="1.8518" xlink:href="#e"/><path d="m64.496 8c30.93 0 56 25.07 56 56v2c0 30.93-25.07 56-56 56-30.93 0-56-25.07-56-56v-2c0-30.93 25.07-56 56-56z" fill="#d5d3cf"/><path d="m124.5 64c0 33.137-26.863 60-60 60-33.137 0-60-26.863-60-60s26.863-60 60-60c33.137 0 60 26.863 60 60z" fill="url(#a)"/><path d="m33.914 45.664h60.168c9.8984 0 17.918 8.0234 17.918 17.918s-8.0195 17.918-17.918 17.918h-60.168c-9.8945 0-17.914-8.0234-17.914-17.918s8.0195-17.918 17.914-17.918z" fill="url(#b)"/><path d="m4.5312 63.984c-0.023438 0.67188-0.035156 1.3438-0.035156 2.0156 0 33.137 26.863 60 60 60 33.137 0 60-26.863 60-60 0-0.66016-0.011719-1.3242-0.035156-1.9844-1.0859 32.336-27.613 57.984-59.965 57.984-32.363 0-58.895-25.668-59.965-58.016z" fill="#d5d3cf"/><path d="m48.133 64c0 7.6328-6.1875 13.816-13.82 13.816-7.6289 0-13.816-6.1836-13.816-13.816s6.1875-13.82 13.816-13.82c7.6328 0 13.82 6.1875 13.82 13.82z" fill="url(#d)"/><path d="m40 64c0 3.1406-2.5469 5.6875-5.6875 5.6875s-5.6875-2.5469-5.6875-5.6875 2.5469-5.6875 5.6875-5.6875 5.6875 2.5469 5.6875 5.6875z"/><path d="m37 64c0 1.4844-1.2031 2.6875-2.6875 2.6875s-2.6875-1.2031-2.6875-2.6875 1.2031-2.6875 2.6875-2.6875 2.6875 1.2031 2.6875 2.6875z" fill="url(#f)"/><path d="m37.5 58.5c0 1.9336-1.5664 3.5-3.5 3.5s-3.5-1.5664-3.5-3.5 1.5664-3.5 3.5-3.5 3.5 1.5664 3.5 3.5z" fill="#fff"/><path d="m108.13 64c0 7.6328-6.1875 13.816-13.82 13.816-7.6289 0-13.816-6.1836-13.816-13.816s6.1875-13.82 13.816-13.82c7.6328 0 13.82 6.1875 13.82 13.82z" fill="url(#g)"/><path d="m100 64c0 3.1406-2.5469 5.6875-5.6875 5.6875s-5.6875-2.5469-5.6875-5.6875 2.5469-5.6875 5.6875-5.6875 5.6875 2.5469 5.6875 5.6875z"/><path d="m97 64c0 1.4844-1.2031 2.6875-2.6875 2.6875s-2.6875-1.2031-2.6875-2.6875 1.2031-2.6875 2.6875-2.6875 2.6875 1.2031 2.6875 2.6875z" fill="url(#h)"/><path d="m97.5 58.5c0 1.9336-1.5664 3.5-3.5 3.5s-3.5-1.5664-3.5-3.5 1.5664-3.5 3.5-3.5 3.5 1.5664 3.5 3.5z" fill="#fff"/></svg>
