<?xml version="1.0" encoding="UTF-8"?>
<svg width="48" height="48" version="1.1" viewBox="0 0 12.7 12.7" xmlns="http://www.w3.org/2000/svg" xmlns:xlink="http://www.w3.org/1999/xlink"><defs><linearGradient id="b"><stop offset="0"/><stop stop-opacity="0" offset="1"/></linearGradient><linearGradient id="d" x1="24" x2="24" y1="294" y2="257" gradientTransform="matrix(.26458 0 0 .25828 -1e-7 -64.294)" gradientUnits="userSpaceOnUse"><stop stop-color="#f39c1f" offset="0"/><stop stop-color="#fdbc4b" offset="1"/></linearGradient><linearGradient id="j" x1="12.624" x2="10.242" y1="-9.1017" y2="-9.1017" gradientTransform="matrix(1 0 0 1.25 .076481 16.669)" gradientUnits="userSpaceOnUse"><stop stop-color="#e74c3c" offset="0"/><stop stop-color="#c0392b" offset="1"/></linearGradient><linearGradient id="k" x1="11.565" x2="10.771" y1="-8.9958" y2="-8.9958" gradientTransform="matrix(1 0 0 1.25 .076481 14.552)" gradientUnits="userSpaceOnUse"><stop stop-color="#2ecc71" offset="0"/><stop stop-color="#27ae60" offset="1"/></linearGradient><linearGradient id="f" x1="32" x2="41" y1="255" y2="264" gradientTransform="matrix(.34016 0 0 .34016 -2.7718 -86.137)" gradientUnits="userSpaceOnUse" xlink:href="#b"/><linearGradient id="g" x1="11.565" x2="10.771" y1="-8.9958" y2="-8.9958" gradientTransform="matrix(1 0 0 1.25 .076481 18.785)" gradientUnits="userSpaceOnUse"><stop stop-color="#3daee9" offset="0"/><stop stop-color="#2980b9" offset="1"/></linearGradient><linearGradient id="i" x1="32" x2="41" y1="255" y2="264" gradientTransform="matrix(.34016 0 0 .34016 -2.7584 -84.02)" gradientUnits="userSpaceOnUse" xlink:href="#b"/><linearGradient id="h" x1="32" x2="41" y1="255" y2="264" gradientTransform="matrix(.34016 0 0 .34016 -2.7584 -81.904)" gradientUnits="userSpaceOnUse" xlink:href="#b"/><linearGradient id="c" x1="24" x2="24" y1="294" y2="257" gradientTransform="matrix(.26458 0 0 .25828 -1e-7 -64.294)" gradientUnits="userSpaceOnUse"><stop stop-color="#232629" offset="0"/><stop stop-color="#34495e" offset="1"/></linearGradient><linearGradient id="a" x1="24" x2="24" y1="294" y2="257" gradientTransform="matrix(.26458 0 0 .25828 -1e-7 -64.294)" gradientUnits="userSpaceOnUse"><stop stop-color="#d35400" offset="0"/><stop stop-color="#fdbc4b" offset="1"/></linearGradient><linearGradient id="e" x1="4.6942" x2="43.81" y1="260.48" y2="299.6" gradientTransform="matrix(.13252 0 0 .13252 2.1101 -32.488)" gradientUnits="userSpaceOnUse" xlink:href="#b"/></defs><rect x="1.0583" y="1.0583" width="10.583" height="10.583" rx="1.5875" ry="1.5875" fill="url(#c)" style="paint-order:markers fill stroke"/><rect x="1.0583" y="1.0583" width="8.4667" height="10.583" rx="1.8521" ry="1.8521" fill="url(#c)" style="paint-order:markers fill stroke"/><rect x="8.4667" y="4.7625" width="3.175" height="1.5875" rx=".26458" ry=".26458" fill="url(#j)" style="paint-order:normal"/><rect x="8.4667" y="2.6458" width="3.175" height="1.5875" rx=".26458" ry=".26458" fill="url(#k)" style="paint-order:normal"/><rect x="1.0583" y="1.0583" width="8.4667" height="10.583" rx="1.5875" ry="1.5875" fill="url(#a)" style="paint-order:markers fill stroke"/><path d="m10.834 2.6458v1.5875h0.5426c0.14658 0 0.26458-0.118 0.26458-0.26458v-0.51573c-0.26904-0.26904-0.53814-0.53814-0.80719-0.80719z" fill="url(#f)" opacity=".6" stroke-width=".34016"/><rect x="1.0583" y="1.0583" width="9.7896" height="10.583" rx="1.8521" ry="1.8521" fill="url(#a)" style="paint-order:markers fill stroke"/><rect x="8.4667" y="6.8792" width="3.175" height="1.5875" rx=".26458" ry=".26458" fill="url(#g)" style="paint-order:normal"/><rect x="1.0583" y="1.0583" width="9.7896" height="8.9958" rx="1.8521" ry="1.5875" fill="url(#a)" style="paint-order:markers fill stroke"/><rect x="9.492" y="7.6729" width="1.3559" height="1.0583" rx="0" ry="0" fill="url(#a)" style="paint-order:markers fill stroke"/><rect x="1.0583" y="1.0583" width="9.525" height="10.319" rx="1.5875" ry="1.5875" fill="url(#d)" style="paint-order:markers fill stroke"/><path d="m5.8208 3.5564-0.66301 0.2651-0.30903 0.7276 0.17312 0.91829 0.79427 0.79427-1.188 0.47491-1.0604 1.5906 3.0499 3.0499h2.1575c1.0016 0 1.8082-0.80653 1.8082-1.8082v-1.9291l-3.8153-3.8344z" fill="url(#e)" opacity=".4" stroke-width=".13252"/><path class="ColorScheme-Text" d="m5.9531 3.4888c-0.66469-1.7e-6 -1.2035 0.53884-1.2035 1.2035 1.5e-6 0.6647 0.53884 1.2035 1.2035 1.2035 0.66469 2.3e-6 1.2035-0.53884 1.2035-1.2035-6e-6 -0.6647-0.53885-1.2035-1.2035-1.2035zm0 0.30088c0.49852 0 0.90265 0.40413 0.90265 0.90265-4.3e-6 0.49852-0.40413 0.90265-0.90265 0.90265s-0.90265-0.40413-0.90265-0.90265c4.9e-6 -0.49852 0.40413-0.90265 0.90265-0.90265zm0 2.4071c-1.212 0.00143-2.2338 0.90372-2.3853 2.1062h0.30324c0.14944-1.0353 1.0361-1.8041 2.0821-1.8053 1.0463 9.391e-4 1.9332 0.76977 2.0827 1.8053h0.30324c-0.15153-1.2027-1.1737-2.105-2.3859-2.1062z" fill="#eff0f1" stroke-width=".26458"/><path d="m10.848 4.7625v1.5875h0.5426c0.14658 0 0.26458-0.118 0.26458-0.26458v-0.51573c-0.26904-0.26904-0.53814-0.53814-0.80719-0.80719z" fill="url(#i)" opacity=".6" stroke-width=".34016"/><path d="m10.848 6.8792v1.5875h0.5426c0.14658 0 0.26458-0.118 0.26458-0.26458v-0.51573c-0.26904-0.26904-0.53814-0.53814-0.80719-0.80719z" fill="url(#h)" opacity=".6" stroke-width=".34016"/><g shape-rendering="auto"><path d="m1.9089 2.9378c-0.15638 0-0.28711 0.12876-0.28711 0.28516 0 0.1564 0.13072 0.28516 0.28711 0.28516 0.15638 0 0.28516-0.12876 0.28516-0.28516 0-0.1564-0.12877-0.28516-0.28516-0.28516zm0 0.19727c0.050309 0 0.087891 0.03828 0.087891 0.08789s-0.037581 0.08789-0.087891 0.08789c-0.050309 0-0.089844-0.03828-0.089844-0.08789s0.039534-0.08789 0.089844-0.08789z" color="#000000" color-rendering="auto" dominant-baseline="auto" fill="#232629" image-rendering="auto" solid-color="#000000" style="font-feature-settings:normal;font-variant-alternates:normal;font-variant-caps:normal;font-variant-ligatures:normal;font-variant-numeric:normal;font-variant-position:normal;isolation:auto;mix-blend-mode:normal;paint-order:markers fill stroke;shape-padding:0;text-decoration-color:#000000;text-decoration-line:none;text-decoration-style:solid;text-indent:0;text-orientation:mixed;text-transform:none;white-space:normal"/><path d="m0.12962 3.1292c-0.016412 0.05619-0.004845 0.12032 0.023438 0.16797 0.056566 0.0953 0.15565 0.14567 0.28711 0.18945 0.2629 0.08755 0.62746 0.11141 0.95508 0.06641 0.34319-0.04715 0.57812-0.23633 0.57812-0.23633 0.12638-0.09114-0.021733-0.2768-0.13867-0.17383-0.055627 0.04899-0.19053 0.15123-0.46875 0.18945-0.29378 0.04036-0.64346 0.01397-0.85547-0.05664-0.10356-0.03449-0.15429-0.07869-0.16211-0.08984 0.001488-0.0025 0.002353-0.0054 0.017578-0.01758 0.051854-0.04138 0.1882-0.09426 0.35937-0.12109 0.14719-0.0234 0.11203-0.2441-0.035156-0.2207-0.19259 0.030181-0.35221 0.07964-0.46289 0.16796-0.044317 0.03536-0.081245 0.078571-0.097656 0.13477z" color="#000000" color-rendering="auto" dominant-baseline="auto" fill="#bdc3c7" image-rendering="auto" solid-color="#000000" style="font-feature-settings:normal;font-variant-alternates:normal;font-variant-caps:normal;font-variant-ligatures:normal;font-variant-numeric:normal;font-variant-position:normal;isolation:auto;mix-blend-mode:normal;paint-order:markers fill stroke;shape-padding:0;text-decoration-color:#000000;text-decoration-line:none;text-decoration-style:solid;text-indent:0;text-orientation:mixed;text-transform:none;white-space:normal"/><path d="m0.1804 3.0374 0.16602 0.14844c0.003282-0.0037 0.016054-0.01479 0.019531-0.01758 0.082653-0.06596 0.36999-0.14674 0.69141-0.14648l0.00195-0.22265c-0.35102-2.83e-4 -0.65623 0.055022-0.83203 0.19531-0.019003 0.01522-0.033697 0.02829-0.046875 0.04297z" color="#000000" color-rendering="auto" dominant-baseline="auto" fill="#9ca5ac" image-rendering="auto" solid-color="#000000" style="font-feature-settings:normal;font-variant-alternates:normal;font-variant-caps:normal;font-variant-ligatures:normal;font-variant-numeric:normal;font-variant-position:normal;isolation:auto;mix-blend-mode:normal;paint-order:markers fill stroke;shape-padding:0;text-decoration-color:#000000;text-decoration-line:none;text-decoration-style:solid;text-indent:0;text-orientation:mixed;text-transform:none;white-space:normal"/><path d="m1.9089 5.0544c-0.15638 0-0.28711 0.12876-0.28711 0.28516 0 0.1564 0.13072 0.28516 0.28711 0.28516 0.15638 0 0.28516-0.12876 0.28516-0.28516 0-0.1564-0.12877-0.28516-0.28516-0.28516zm0 0.19727c0.050309 0 0.087891 0.03828 0.087891 0.08789s-0.037581 0.08789-0.087891 0.08789c-0.050309 0-0.089844-0.03828-0.089844-0.08789s0.039534-0.08789 0.089844-0.08789z" color="#000000" color-rendering="auto" dominant-baseline="auto" fill="#232629" image-rendering="auto" solid-color="#000000" style="font-feature-settings:normal;font-variant-alternates:normal;font-variant-caps:normal;font-variant-ligatures:normal;font-variant-numeric:normal;font-variant-position:normal;isolation:auto;mix-blend-mode:normal;paint-order:markers fill stroke;shape-padding:0;text-decoration-color:#000000;text-decoration-line:none;text-decoration-style:solid;text-indent:0;text-orientation:mixed;text-transform:none;white-space:normal"/><path d="m0.12962 5.2458c-0.016412 0.05619-0.004845 0.12032 0.023438 0.16797 0.056566 0.0953 0.15565 0.14567 0.28711 0.18945 0.2629 0.08755 0.62746 0.11141 0.95508 0.06641 0.34319-0.04715 0.57812-0.23633 0.57812-0.23633 0.12638-0.09114-0.021733-0.2768-0.13867-0.17383-0.055627 0.04899-0.19053 0.15123-0.46875 0.18945-0.29378 0.04036-0.64346 0.01397-0.85547-0.05664-0.10356-0.03449-0.15429-0.07869-0.16211-0.08984 0.001488-0.0025 0.002353-0.0054 0.017578-0.01758 0.051854-0.04138 0.1882-0.09426 0.35937-0.12109 0.14719-0.0234 0.11203-0.2441-0.035156-0.2207-0.19259 0.030181-0.35221 0.07964-0.46289 0.16796-0.044317 0.03536-0.081245 0.078571-0.097656 0.13477z" color="#000000" color-rendering="auto" dominant-baseline="auto" fill="#bdc3c7" image-rendering="auto" solid-color="#000000" style="font-feature-settings:normal;font-variant-alternates:normal;font-variant-caps:normal;font-variant-ligatures:normal;font-variant-numeric:normal;font-variant-position:normal;isolation:auto;mix-blend-mode:normal;paint-order:markers fill stroke;shape-padding:0;text-decoration-color:#000000;text-decoration-line:none;text-decoration-style:solid;text-indent:0;text-orientation:mixed;text-transform:none;white-space:normal"/><path d="m0.1804 5.154 0.16602 0.14844c0.003282-0.0037 0.016054-0.01479 0.019531-0.01758 0.082653-0.06596 0.36999-0.14674 0.69141-0.14648l0.00195-0.22265c-0.35102-2.83e-4 -0.65623 0.055022-0.83203 0.19531-0.019003 0.01522-0.033697 0.02829-0.046875 0.04297z" color="#000000" color-rendering="auto" dominant-baseline="auto" fill="#9ca5ac" image-rendering="auto" solid-color="#000000" style="font-feature-settings:normal;font-variant-alternates:normal;font-variant-caps:normal;font-variant-ligatures:normal;font-variant-numeric:normal;font-variant-position:normal;isolation:auto;mix-blend-mode:normal;paint-order:markers fill stroke;shape-padding:0;text-decoration-color:#000000;text-decoration-line:none;text-decoration-style:solid;text-indent:0;text-orientation:mixed;text-transform:none;white-space:normal"/><path d="m1.9089 7.1711c-0.15638 0-0.28711 0.12876-0.28711 0.28516 0 0.1564 0.13072 0.28516 0.28711 0.28516 0.15638 0 0.28516-0.12876 0.28516-0.28516 0-0.1564-0.12877-0.28516-0.28516-0.28516zm0 0.19727c0.050309 0 0.087891 0.03828 0.087891 0.08789s-0.037581 0.08789-0.087891 0.08789c-0.050309 0-0.089844-0.03828-0.089844-0.08789s0.039534-0.08789 0.089844-0.08789z" color="#000000" color-rendering="auto" dominant-baseline="auto" fill="#232629" image-rendering="auto" solid-color="#000000" style="font-feature-settings:normal;font-variant-alternates:normal;font-variant-caps:normal;font-variant-ligatures:normal;font-variant-numeric:normal;font-variant-position:normal;isolation:auto;mix-blend-mode:normal;paint-order:markers fill stroke;shape-padding:0;text-decoration-color:#000000;text-decoration-line:none;text-decoration-style:solid;text-indent:0;text-orientation:mixed;text-transform:none;white-space:normal"/><path d="m0.12962 7.3625c-0.016412 0.05619-0.004845 0.12032 0.023438 0.16797 0.056566 0.0953 0.15565 0.14567 0.28711 0.18945 0.2629 0.08755 0.62746 0.11141 0.95508 0.06641 0.34319-0.04715 0.57812-0.23633 0.57812-0.23633 0.12638-0.09114-0.021733-0.2768-0.13867-0.17383-0.055627 0.04899-0.19053 0.15123-0.46875 0.18945-0.29378 0.04036-0.64346 0.01397-0.85547-0.05664-0.10356-0.03449-0.15429-0.07869-0.16211-0.08984 0.001488-0.0025 0.002353-0.0054 0.017578-0.01758 0.051854-0.04138 0.1882-0.09426 0.35937-0.12109 0.14719-0.0234 0.11203-0.2441-0.035156-0.2207-0.19259 0.030181-0.35221 0.07964-0.46289 0.16796-0.044317 0.03536-0.081245 0.078571-0.097656 0.13477z" color="#000000" color-rendering="auto" dominant-baseline="auto" fill="#bdc3c7" image-rendering="auto" solid-color="#000000" style="font-feature-settings:normal;font-variant-alternates:normal;font-variant-caps:normal;font-variant-ligatures:normal;font-variant-numeric:normal;font-variant-position:normal;isolation:auto;mix-blend-mode:normal;paint-order:markers fill stroke;shape-padding:0;text-decoration-color:#000000;text-decoration-line:none;text-decoration-style:solid;text-indent:0;text-orientation:mixed;text-transform:none;white-space:normal"/><path d="m0.1804 7.2707 0.16602 0.14844c0.003282-0.0037 0.016054-0.01479 0.019531-0.01758 0.082653-0.06596 0.36999-0.14674 0.69141-0.14648l0.00195-0.22265c-0.35102-2.83e-4 -0.65623 0.055022-0.83203 0.19531-0.019003 0.01522-0.033697 0.02829-0.046875 0.04297z" color="#000000" color-rendering="auto" dominant-baseline="auto" fill="#9ca5ac" image-rendering="auto" solid-color="#000000" style="font-feature-settings:normal;font-variant-alternates:normal;font-variant-caps:normal;font-variant-ligatures:normal;font-variant-numeric:normal;font-variant-position:normal;isolation:auto;mix-blend-mode:normal;paint-order:markers fill stroke;shape-padding:0;text-decoration-color:#000000;text-decoration-line:none;text-decoration-style:solid;text-indent:0;text-orientation:mixed;text-transform:none;white-space:normal"/><path d="m1.9089 9.2878c-0.15638 0-0.28711 0.12876-0.28711 0.28516 0 0.1564 0.13072 0.28516 0.28711 0.28516 0.15638 0 0.28516-0.12876 0.28516-0.28516 0-0.1564-0.12877-0.28516-0.28516-0.28516zm0 0.19727c0.050309 0 0.087891 0.03828 0.087891 0.08789s-0.037581 0.08789-0.087891 0.08789c-0.050309 0-0.089844-0.03828-0.089844-0.08789s0.039534-0.08789 0.089844-0.08789z" color="#000000" color-rendering="auto" dominant-baseline="auto" fill="#232629" image-rendering="auto" solid-color="#000000" style="font-feature-settings:normal;font-variant-alternates:normal;font-variant-caps:normal;font-variant-ligatures:normal;font-variant-numeric:normal;font-variant-position:normal;isolation:auto;mix-blend-mode:normal;paint-order:markers fill stroke;shape-padding:0;text-decoration-color:#000000;text-decoration-line:none;text-decoration-style:solid;text-indent:0;text-orientation:mixed;text-transform:none;white-space:normal"/><path d="m0.12962 9.4792c-0.016412 0.05619-0.004845 0.12032 0.023438 0.16797 0.056566 0.0953 0.15565 0.14567 0.28711 0.18945 0.2629 0.08755 0.62746 0.11141 0.95508 0.06641 0.34319-0.04715 0.57812-0.23633 0.57812-0.23633 0.12638-0.09114-0.021733-0.2768-0.13867-0.17383-0.055627 0.04899-0.19053 0.15123-0.46875 0.18945-0.29378 0.04036-0.64346 0.01397-0.85547-0.05664-0.10356-0.03449-0.15429-0.07869-0.16211-0.08984 0.001488-0.0025 0.002353-0.0054 0.017578-0.01758 0.051854-0.04138 0.1882-0.09426 0.35937-0.12109 0.14719-0.0234 0.11203-0.2441-0.035156-0.2207-0.19259 0.030181-0.35221 0.07964-0.46289 0.16796-0.044317 0.03536-0.081245 0.078571-0.097656 0.13477z" color="#000000" color-rendering="auto" dominant-baseline="auto" fill="#bdc3c7" image-rendering="auto" solid-color="#000000" style="font-feature-settings:normal;font-variant-alternates:normal;font-variant-caps:normal;font-variant-ligatures:normal;font-variant-numeric:normal;font-variant-position:normal;isolation:auto;mix-blend-mode:normal;paint-order:markers fill stroke;shape-padding:0;text-decoration-color:#000000;text-decoration-line:none;text-decoration-style:solid;text-indent:0;text-orientation:mixed;text-transform:none;white-space:normal"/><path d="m0.1804 9.3874 0.16602 0.14844c0.003282-0.0037 0.016054-0.01479 0.019531-0.01758 0.082653-0.06596 0.36999-0.14674 0.69141-0.14648l0.00195-0.22265c-0.35102-2.83e-4 -0.65623 0.055022-0.83203 0.19531-0.019003 0.01522-0.033697 0.02829-0.046875 0.04297z" color="#000000" color-rendering="auto" dominant-baseline="auto" fill="#9ca5ac" image-rendering="auto" solid-color="#000000" style="font-feature-settings:normal;font-variant-alternates:normal;font-variant-caps:normal;font-variant-ligatures:normal;font-variant-numeric:normal;font-variant-position:normal;isolation:auto;mix-blend-mode:normal;paint-order:markers fill stroke;shape-padding:0;text-decoration-color:#000000;text-decoration-line:none;text-decoration-style:solid;text-indent:0;text-orientation:mixed;text-transform:none;white-space:normal"/></g><rect x="8.9958" y="8.8336" width="2.0579" height="2.5435" rx=".28112" ry=".26458" fill-opacity="0" opacity=".2" style="paint-order:stroke markers fill"/><rect x="8.9958" y="10.848" width="2.4984" height=".52917" rx=".28112" ry=".26458" fill-opacity="0" opacity=".2" style="paint-order:stroke markers fill"/><path d="m11.58 7.8835c-0.02457 0.077791-0.06588 0.13678-0.12394 0.17698-0.05769 0.039827-0.13082 0.05974-0.21941 0.05974-0.05434 0-0.10477-0.0093-0.1513-0.027895-0.04653-0.018597-0.08784-0.045954-0.12394-0.082071-0.04169-0.04169-0.07276-0.088958-0.09323-0.14181-0.0201-0.053224-0.03015-0.11333-0.03015-0.18033 0-0.12952 0.03741-0.23393 0.11222-0.3132 0.07481-0.079645 0.17344-0.11947 0.2959-0.11947 0.04541 0 0.09379 0.00596 0.14516 0.017872 0.05136 0.011915 0.10663 0.029965 0.16582 0.054151v0.19205h-0.06308c-0.01377-0.069974-0.0415-0.12152-0.08319-0.15465-0.04132-0.033128-0.09938-0.049692-0.17419-0.049692-0.08896 0-0.15632 0.031638-0.2021 0.094914-0.04578 0.062903-0.06867 0.15558-0.06867 0.27803 0 0.12208 0.02289 0.21476 0.06867 0.27803 0.04578 0.062903 0.11315 0.094355 0.2021 0.094355 0.06216 0 0.11334-0.014701 0.15353-0.044103 0.0402-0.029775 0.06923-0.074066 0.08709-0.13287zm-0.55185-4.4307h0.2827l-0.14135-0.41032zm-0.2177 0.31265v-0.061255h0.06758l0.27445-0.80158h0.08667l0.27496 0.80158h0.07584v0.061255h-0.28012v-0.061255h0.08564l-0.06448-0.18956h-0.32397l-0.06449 0.18956h0.0846v0.061255zm0.23734 2.1568h0.1728c0.06935 0 0.12002-0.015024 0.15199-0.045072 0.03198-0.030057 0.04797-0.077831 0.04797-0.14332 0-0.065114-0.01599-0.1125-0.04797-0.14217-0.03159-0.030048-0.08225-0.045072-0.15199-0.045072h-0.1728zm0-0.43691h0.14679c0.06319 0 0.10923-0.012134 0.13812-0.036403 0.02928-0.024269 0.04392-0.062605 0.04392-0.11501 0-0.052785-0.01464-0.091122-0.04392-0.11501-0.0289-0.024269-0.07494-0.036403-0.13812-0.036403h-0.14679zm-0.22712 0.49817v-0.061255h0.1098v-0.73974h-0.1098v-0.061839h0.42593c0.08707 0 0.15257 0.017914 0.19649 0.053741 0.04431 0.035447 0.06646 0.088615 0.06646 0.15951 0 0.051245-0.01541 0.092086-0.04624 0.12252-0.03044 0.030437-0.07513 0.049121-0.13408 0.056052 0.0732 0.00926 0.12868 0.032759 0.16644 0.070508 0.03815 0.037367 0.05722 0.087646 0.05722 0.15084 0 0.085533-0.02697 0.14853-0.0809 0.18898-0.05393 0.040456-0.13812 0.060684-0.25255 0.060684z" fill="#fff7f7" stroke-width=".32861"/></svg>
