<?xml version="1.0" encoding="UTF-8"?>
<svg viewBox="0 0 128 128" xmlns="http://www.w3.org/2000/svg" xmlns:xlink="http://www.w3.org/1999/xlink"><filter id="a" x="0%" y="0%" width="100%" height="100%"><feColorMatrix color-interpolation-filters="sRGB" values="0 0 0 0 1 0 0 0 0 1 0 0 0 0 1 0 0 0 1 0"/></filter><linearGradient id="b" gradientUnits="userSpaceOnUse"><stop stop-color="#26a269" offset="0"/><stop stop-color="#57e389" offset=".076923"/><stop stop-color="#26a269" offset=".15385"/><stop stop-color="#26a269" offset=".84615"/><stop stop-color="#57e389" offset=".92308"/><stop stop-color="#26a269" offset="1"/></linearGradient><linearGradient id="c" x1="12" x2="64" y1="254" y2="254" gradientTransform="matrix(1 0 0 .89474 -4 -141.26)" xlink:href="#b"/><linearGradient id="d" gradientUnits="userSpaceOnUse"><stop stop-color="#c0bfbc" offset="0"/><stop stop-color="#f6f5f4" offset=".076923"/><stop stop-color="#c0bfbc" offset=".15385"/><stop stop-color="#c0bfbc" offset=".84615"/><stop stop-color="#f6f5f4" offset=".92308"/><stop stop-color="#c0bfbc" offset="1"/></linearGradient><linearGradient id="e" x1="12" x2="64" y1="254" y2="254" gradientTransform="matrix(1 0 0 .89474 -4 -149.26)" xlink:href="#d"/><linearGradient id="f" x1="12" x2="64" y1="254" y2="254" gradientTransform="matrix(1 0 0 .89474 56 -141.26)" xlink:href="#b"/><linearGradient id="g" x1="12" x2="64" y1="254" y2="254" gradientTransform="matrix(1 0 0 .89474 56 -149.26)" xlink:href="#d"/><clipPath id="h"><path d="m8 32h112v74h-112z"/></clipPath><clipPath id="i"><path d="m16 32c-4.4336 0-8 3.5664-8 8v58c0 4.4336 3.5664 8 8 8h36c4.4336 0 8-3.5664 8-8v-58c0-4.4336-3.5664-8-8-8zm60 0c-4.4336 0-8 3.5664-8 8v58c0 4.4336 3.5664 8 8 8h36c4.4336 0 8-3.5664 8-8v-58c0-4.4336-3.5664-8-8-8z"/></clipPath><mask id="j"><g filter="url(#a)"><rect x="-12.8" y="-12.8" width="153.6" height="153.6" fill-opacity=".1"/></g></mask><clipPath id="k"><rect width="192" height="152"/></clipPath><linearGradient id="l" x1="12" x2="64" y1="254" y2="254" gradientTransform="matrix(1 0 0 .89474 26 -165.26)" xlink:href="#b"/><linearGradient id="m" x1="12" x2="64" y1="254" y2="254" gradientTransform="matrix(1 0 0 .89474 26 -173.26)" xlink:href="#d"/><path d="m16 52h36c4.418 0 8 3.582 8 8v52c0 4.418-3.582 8-8 8h-36c-4.418 0-8-3.582-8-8v-52c0-4.418 3.582-8 8-8z" fill="url(#c)"/><path d="m16 44h36c4.418 0 8 3.582 8 8v52c0 4.418-3.582 8-8 8h-36c-4.418 0-8-3.582-8-8v-52c0-4.418 3.582-8 8-8z" fill="url(#e)"/><path d="m16 32h36c4.418 0 8 3.582 8 8v58c0 4.418-3.582 8-8 8h-36c-4.418 0-8-3.582-8-8v-58c0-4.418 3.582-8 8-8z" fill="#f6f5f4"/><path d="m76 52h36c4.418 0 8 3.582 8 8v52c0 4.418-3.582 8-8 8h-36c-4.418 0-8-3.582-8-8v-52c0-4.418 3.582-8 8-8z" fill="url(#f)"/><path d="m76 44h36c4.418 0 8 3.582 8 8v52c0 4.418-3.582 8-8 8h-36c-4.418 0-8-3.582-8-8v-52c0-4.418 3.582-8 8-8z" fill="url(#g)"/><path d="m76 32h36c4.418 0 8 3.582 8 8v58c0 4.418-3.582 8-8 8h-36c-4.418 0-8-3.582-8-8v-58c0-4.418 3.582-8 8-8z" fill="#f6f5f4"/><path d="m90.52 42.387c-1.1406 0.042969-1.2383 1.3203-1 2.2109 0.76953 2.707 1.7852 3.8398 3.0391 5.7227 0.22266 0.32422 0.47266 0.94531 0.43359 1.2422l-0.039063 3.0234c-2.0195 0.44922-3.9453 0.76562-5.3086 0.67187-3.5312-0.17578-0.91797 2.1172-0.125 2.0586 1.5352-0.15234 3.418-0.38672 5.4102-0.67969l-0.027344 2.082c-4.7461 0.98047-8.7773 1.6875-9.1484 1.332-1.9805-1.457-4.082-0.57031-2.8281 1.3945 2.0117 3.6992 5.0859 7.1016 6.5703 11.109 0.027344 0.058593 0.054687 0.10937 0.082031 0.16016-0.57031 0.90234-1.1797 1.6875-1.8906 2.4102-0.89844-0.9375-1.5156-0.44922-1.0117 0.9375-1.8086 1.5234-4.2383 2.8516-7.9375 4.582-2.9062 1.2578-2.6992 3.1719 0.82422 1.8633 3.8438-1.6172 6.4688-2.9922 8.332-4.375 4.7422 6.6211 5.1602 7.5273 5.2344 14.672 0.19922 3.9141 3.9336 3.3047 4.2812 0.82422 0.42578-2.6797-0.20312-6.9453-0.23047-9.8906-0.03125-3.8516-0.054688-7.5469 0-11.184 0.40625-0.066407 0.8125-0.13672 1.2266-0.20703 2.8359 4.625 6.1562 11.934 8.1289 10.617 1.8398-1.2773 4.2031-1.4297 5.2109-1.1367 1.3125 0.375 1.3789 1.0391 2.1172 1.4688 1.9336 0.88672 1.5312-0.26953 0.85547-1.2812-1.5469-2.582-8.2617-4.2539-13.359-10.086 0.16406-0.015626 0.32812-0.035157 0.49609-0.050782 0.64844-0.066406 1.5078 0.69922 1.9922 0.46875 0.42578-0.25 0.60547-1.1484 0.71875-1.7109 0.84766-3.4062 3.4727-6.3906 4.9375-9.75 0.1875-0.40234 1.2227-0.47656 1.2148-0.86328-0.15234-1.4492-2.1445-4.1172-3.2969-4.0508-2.5234 0.56641-6.0234 1.3594-9.4766 2.1016 0.0625-0.64453 0.13672-1.293 0.21094-1.9414 2.7148-0.45312 5.3945-0.97266 7.4766-1.4844 0.30859-0.011719-0.023437-2.3047-2.1484-2.5391-0.64453-0.03125-0.53516 0.35156-1.2969 0.64844-1.0508 0.25-2.3438 0.60156-3.7227 0.96094 0.09375-0.69531 0.19531-1.3945 0.30859-2.0977 0.32031-1.6992 2.8438-3.0938 4.207-3.582 0.60156-0.21875 1.2734-1.875 0.10938-1.9414-3.1172-0.35156-6.4727-2.0859-9.3516-3.4219-0.5-0.21875-0.89844-0.30078-1.2188-0.28906zm12.039 18.086c1.543-0.039062-0.050782 3.3594-0.68359 3.5039-0.70312 0.10938-0.8125-0.98047-1.6758-1-0.64844 0.074219-0.50391 0.52734-1.1719 0.74219-1.2734 0.27344-2.4414 0.48828-3.5781 0.67188 0.0625-1.0742 0.13281-2.1484 0.21875-3.2266 3.0273-0.41406 5.7148-0.67187 6.8906-0.69141zm-9.6914 1.1094-0.042969 3.1875c-1.5898 0.20312-3.2305 0.37891-5.1133 0.57812-0.53906 0.015625-1.8672-2.3086-1.1172-2.4961 1.7969-0.47266 4.0352-0.90625 6.2734-1.2695zm5.9219 5.2031c0.94531 0.023438 1.6016 0.14062 1.7383 0.39844 0.49609 0.92188-0.35156 1.8516-0.96875 1.9531-1.2852 0.20703-2.832 0.46484-4.3281 0.69141 0.027343-0.96094 0.058593-1.918 0.097656-2.875 1.2852-0.12109 2.5156-0.19141 3.4609-0.16797zm-5.9922 0.46094-0.035156 2.9297c-1.7773 0.21875-3.1445 0.30469-3.3555 0.0625-0.33203-0.37891-1-1.4727-0.89453-2.2148 0.51953-0.19141 2.2695-0.51172 4.2852-0.77734zm-0.070313 5.6992-0.082031 6.457c0.003907 0.87109-0.15234 3.625-0.66016 3.1914-1.7773-1.4609-2.4609-2.3594-4.8125-5.5195 1.2773-1.1875 2.0938-2.4258 2.7305-3.8711 0.98828-0.042969 1.918-0.13672 2.8242-0.25781z" fill="#1a5fb4" fill-rule="evenodd"/><path d="m32.527 41.137c-0.035156 0.003906-0.058594 0.015625-0.078125 0.03125-0.78516 0.85938-3.9062 2.3438-4.0508 3.918 0.042968 0.44531-0.019532 1.3242 0.67187 1.5781 0.59766 0.0625 2.1055 1.2188 1.8086 3.0469 0 2.3867 0.003906 4.5039 0.015625 6.4141-2.4453 0.62109-5.2617 1.3438-8.9102 2.2969-0.75781-0.011719-2.3086-0.12891-3.0273-1.3242-0.66406-0.82812-1.3516 0.09375-1.3164 0.94141 0.050781 1.1641 0.082031 2.1328 0.625 2.6797 3.0234 2.7852 4.0586 5.7656 4.5 9.1758-0.046875 0.72656-0.64844 1.3945 0.44531 1.3438 0.57422-0.039062 3.7734-0.29297 7.8164-0.42188 0.039062 4.3828 0.03125 8.5195-0.11719 15.734-0.60156 5.6094 0.71875 8.5859 1.1562 9.2773 0.3125 0.70312 0.65234 0.58594 0.80859 0.15234 1.3867-3.8203 1.9922-1.3398 1.5703-10.973-0.019531-4.7695-0.054687-9.6836-0.03125-14.266 2.8047-0.027344 5.7578 0.03125 8.3945 0.26172 0.64844 0.066406 0.76172-0.51562 0.71875-0.75391-0.37109-2.0391 3.3945-8.5625 4.6562-11.23 0.26172-0.55078 1.6484-0.61719 1.9453-0.6875v-0.003906c0.03125-0.023437 0.38672-0.25781 0.15234-0.54297-1.4961-1.8555-4.5859-5.5039-5.1055-5.3398-4.1172 1.1055-7.043 1.8516-10.176 2.6445 0.3125-2.8164 0.78125-4.6562 1.4766-5.043 0.92578-0.74219 2.1406-3.0586 1.8516-3.5977 0.31641-0.51172-4.9609-5.3633-5.8008-5.3125zm9.6758 16.18c1.2695 0.007813 1.875 0.33594 1.3711 1.1641-1.5508 3.1133-3.3789 9.2031-3.9336 9.1094-1.9883-0.015625-3.7109 0.007812-5.2031 0.046875 0.042969-3.3633 0.125-6.4727 0.28125-9.1133 2.9609-0.68359 5.7969-1.2227 7.4844-1.207zm-11.289 2.1406c0.023438 3.3203 0.054688 5.9453 0.082032 8.3164-2.625 0.13281-4.0039 0.25781-4.4805 0.10156-0.30469-0.11328-0.75391-3.4766-2.6953-5.8867-0.30859-0.37891-0.18359-0.65625 0.3125-0.77734 1.1992-0.26953 3.8281-0.99609 6.7812-1.7539z" fill="#ed333b" fill-rule="evenodd"/><g clip-path="url(#h)"><g clip-path="url(#i)"><g mask="url(#j)"><g transform="translate(-8 -16)" clip-path="url(#k)"><path transform="translate(8 -156)" d="m46 190h36c4.418 0 8 4.0039 8 8.9414v58.117c0 4.9375-3.582 8.9414-8 8.9414h-36c-4.418 0-8-4.0039-8-8.9414v-58.117c0-4.9375 3.582-8.9414 8-8.9414z" fill="none" stroke="#000" stroke-width="4"/></g></g></g></g><path d="m46 28h36c4.418 0 8 3.582 8 8v52c0 4.418-3.582 8-8 8h-36c-4.418 0-8-3.582-8-8v-52c0-4.418 3.582-8 8-8z" fill="url(#l)"/><path d="m46 20h36c4.418 0 8 3.582 8 8v52c0 4.418-3.582 8-8 8h-36c-4.418 0-8-3.582-8-8v-52c0-4.418 3.582-8 8-8z" fill="url(#m)"/><path d="m46 8h36c4.418 0 8 3.582 8 8v58c0 4.418-3.582 8-8 8h-36c-4.418 0-8-3.582-8-8v-58c0-4.418 3.582-8 8-8z" fill="#f6f5f4"/><path d="m73 45c0 4.9688-4.0312 9-9 9s-9-4.0312-9-9 4.0312-9 9-9 9 4.0312 9 9z" fill="#ed333b"/><g fill="#fff"><path d="m58.5 39.5c0 1.3242 0.52734 2.5977 1.4648 3.5352s2.2109 1.4648 3.5352 1.4648c0-1.3242-0.52734-2.5977-1.4648-3.5352s-2.2109-1.4648-3.5352-1.4648z"/><path d="m69.5 39.5c0 1.3242-0.52734 2.5977-1.4648 3.5352s-2.2109 1.4648-3.5352 1.4648c0-1.3242 0.52734-2.5977 1.4648-3.5352s2.2109-1.4648 3.5352-1.4648z"/><path d="m58.5 50.5c0-1.3242 0.52734-2.5977 1.4648-3.5352s2.2109-1.4648 3.5352-1.4648c0 1.3242-0.52734 2.5977-1.4648 3.5352s-2.2109 1.4648-3.5352 1.4648z"/><path d="m69.5 50.5c0-1.3242-0.52734-2.5977-1.4648-3.5352s-2.2109-1.4648-3.5352-1.4648c0 1.3242 0.52734 2.5977 1.4648 3.5352s2.2109 1.4648 3.5352 1.4648z"/></g><path d="m84 28c0 4.9688-4.0312 9-9 9s-9-4.0312-9-9 4.0312-9 9-9 9 4.0312 9 9z" fill="#26a269"/><path d="m69.5 22.5c0 1.3242 0.52734 2.5977 1.4648 3.5352s2.2109 1.4648 3.5352 1.4648c0-1.3242-0.52734-2.5977-1.4648-3.5352s-2.2109-1.4648-3.5352-1.4648z" fill="#fff"/><path d="m80.5 22.5c0 1.3242-0.52734 2.5977-1.4648 3.5352s-2.2109 1.4648-3.5352 1.4648c0-1.3242 0.52734-2.5977 1.4648-3.5352s2.2109-1.4648 3.5352-1.4648z" fill="#fff"/><path d="m69.5 33.5c0-1.3242 0.52734-2.5977 1.4648-3.5352s2.2109-1.4648 3.5352-1.4648c0 1.3242-0.52734 2.5977-1.4648 3.5352s-2.2109 1.4648-3.5352 1.4648z" fill="#fff"/><path d="m80.5 33.5c0-1.3242-0.52734-2.5977-1.4648-3.5352s-2.2109-1.4648-3.5352-1.4648c0 1.3242 0.52734 2.5977 1.4648 3.5352s2.2109 1.4648 3.5352 1.4648z" fill="#fff"/><path d="m62 28c0 4.9688-4.0312 9-9 9s-9-4.0312-9-9 4.0312-9 9-9 9 4.0312 9 9z" fill="#1a5fb4"/><path d="m47.5 22.5c0 1.3242 0.52734 2.5977 1.4648 3.5352s2.2109 1.4648 3.5352 1.4648c0-1.3242-0.52734-2.5977-1.4648-3.5352s-2.2109-1.4648-3.5352-1.4648z" fill="#fff"/><path d="m58.5 22.5c0 1.3242-0.52734 2.5977-1.4648 3.5352s-2.2109 1.4648-3.5352 1.4648c0-1.3242 0.52734-2.5977 1.4648-3.5352s2.2109-1.4648 3.5352-1.4648z" fill="#fff"/><path d="m47.5 33.5c0-1.3242 0.52734-2.5977 1.4648-3.5352s2.2109-1.4648 3.5352-1.4648c0 1.3242-0.52734 2.5977-1.4648 3.5352s-2.2109 1.4648-3.5352 1.4648z" fill="#fff"/><path d="m58.5 33.5c0-1.3242-0.52734-2.5977-1.4648-3.5352s-2.2109-1.4648-3.5352-1.4648c0 1.3242 0.52734 2.5977 1.4648 3.5352s2.2109 1.4648 3.5352 1.4648z" fill="#fff"/><path d="m84 62c0 4.9688-4.0312 9-9 9s-9-4.0312-9-9 4.0312-9 9-9 9 4.0312 9 9z" fill="#1a5fb4"/><path d="m69.5 56.5c0 1.3242 0.52734 2.5977 1.4648 3.5352s2.2109 1.4648 3.5352 1.4648c0-1.3242-0.52734-2.5977-1.4648-3.5352s-2.2109-1.4648-3.5352-1.4648z" fill="#fff"/><path d="m80.5 56.5c0 1.3242-0.52734 2.5977-1.4648 3.5352s-2.2109 1.4648-3.5352 1.4648c0-1.3242 0.52734-2.5977 1.4648-3.5352s2.2109-1.4648 3.5352-1.4648z" fill="#fff"/><path d="m69.5 67.5c0-1.3242 0.52734-2.5977 1.4648-3.5352s2.2109-1.4648 3.5352-1.4648c0 1.3242-0.52734 2.5977-1.4648 3.5352s-2.2109 1.4648-3.5352 1.4648z" fill="#fff"/><path d="m80.5 67.5c0-1.3242-0.52734-2.5977-1.4648-3.5352s-2.2109-1.4648-3.5352-1.4648c0 1.3242 0.52734 2.5977 1.4648 3.5352s2.2109 1.4648 3.5352 1.4648z" fill="#fff"/><path d="m62 62c0 4.9688-4.0312 9-9 9s-9-4.0312-9-9 4.0312-9 9-9 9 4.0312 9 9z" fill="#26a269"/><path d="m47.5 56.5c0 1.3242 0.52734 2.5977 1.4648 3.5352s2.2109 1.4648 3.5352 1.4648c0-1.3242-0.52734-2.5977-1.4648-3.5352s-2.2109-1.4648-3.5352-1.4648z" fill="#fff"/><path d="m58.5 56.5c0 1.3242-0.52734 2.5977-1.4648 3.5352s-2.2109 1.4648-3.5352 1.4648c0-1.3242 0.52734-2.5977 1.4648-3.5352s2.2109-1.4648 3.5352-1.4648z" fill="#fff"/><path d="m47.5 67.5c0-1.3242 0.52734-2.5977 1.4648-3.5352s2.2109-1.4648 3.5352-1.4648c0 1.3242-0.52734 2.5977-1.4648 3.5352s-2.2109 1.4648-3.5352 1.4648z" fill="#fff"/><path d="m58.5 67.5c0-1.3242-0.52734-2.5977-1.4648-3.5352s-2.2109-1.4648-3.5352-1.4648c0 1.3242 0.52734 2.5977 1.4648 3.5352s2.2109 1.4648 3.5352 1.4648z" fill="#fff"/></svg>
