<?xml version="1.0" encoding="UTF-8"?>
<svg id="h" version="1.1" viewBox="0 0 128 128" xmlns="http://www.w3.org/2000/svg" xmlns:xlink="http://www.w3.org/1999/xlink"><defs id="i"><radialGradient id="e" cx="4.993" cy="43.5" r="2.5" gradientTransform="matrix(2.0038 0 0 1.4 27.988 -17.4)" gradientUnits="userSpaceOnUse"><stop id="j" stop-color="#181818" offset="0"/><stop id="k" stop-color="#181818" stop-opacity="0" offset="1"/></radialGradient><radialGradient id="d" cx="4.993" cy="43.5" r="2.5" gradientTransform="matrix(2.0038 0 0 1.4 -20.012 -104.4)" gradientUnits="userSpaceOnUse"><stop id="l" stop-color="#181818" offset="0"/><stop id="m" stop-color="#181818" stop-opacity="0" offset="1"/></radialGradient><linearGradient id="g" x1="25.058" x2="25.058" y1="47.028" y2="39.999" gradientUnits="userSpaceOnUse"><stop id="n" stop-color="#181818" stop-opacity="0" offset="0"/><stop id="o" stop-color="#181818" offset=".5"/><stop id="p" stop-color="#181818" stop-opacity="0" offset="1"/></linearGradient><linearGradient id="f" x1="24" x2="24" y1="5" y2="43" gradientTransform="matrix(2.7297 0 0 2.7297 -1.5135 1.4883)" gradientUnits="userSpaceOnUse"><stop id="q" stop-color="#fff" offset="0"/><stop id="r" stop-color="#fff" stop-opacity=".23529" offset=".063165"/><stop id="s" stop-color="#fff" stop-opacity=".15686" offset=".95056"/><stop id="t" stop-color="#fff" stop-opacity=".39216" offset="1"/></linearGradient><radialGradient id="c" cx="6.7304" cy="9.9571" r="12.672" fx="6.2002" gradientTransform="matrix(0 25.083 -30.794 0 372.82 -208.09)" gradientUnits="userSpaceOnUse"><stop id="u" stop-color="#ff7a35" offset="0"/><stop id="v" stop-color="#f0431a" offset="1"/></radialGradient><radialGradient id="b" cx="-4.0288" cy="93.468" r="35.338" gradientTransform="matrix(1.5564 0 0 .16979 70.27 102.13)" gradientUnits="userSpaceOnUse"><stop id="w" offset="0"/><stop id="x" stop-opacity="0" offset="1"/></radialGradient><radialGradient id="a" cx="9.0136" cy="9.9959" r="12.672" fx="8.4833" gradientTransform="matrix(4.552e-7 7.1023 -8.2861 5.3007e-7 147.83 -46.018)" gradientUnits="userSpaceOnUse"><stop id="y" stop-color="#ffe452" offset="0"/><stop id="z" stop-color="#ffeb41" stop-opacity="0" offset="1"/></radialGradient></defs><path id="aa" d="m119 118a55 6 0 0 1-110 0 55 6 0 1 1 110 0z" color="#000000" enable-background="accumulate" fill="url(#b)" fill-rule="nonzero" opacity=".2"/><g id="ab" transform="matrix(2.7 0 0 .55556 -.80001 94.891)"><g id="ac" transform="matrix(1.0526 0 0 1.2857 -1.2632 -13.429)" opacity=".4"><rect id="ad" x="38" y="40" width="5" height="7" fill="url(#e)"/><rect id="ae" transform="scale(-1)" x="-10" y="-47" width="5" height="7" fill="url(#d)"/><rect id="af" x="10" y="40" width="28" height="7" fill="url(#g)"/></g></g><rect id="ag" x="12.5" y="15.502" width="103" height="103" rx="6.0545" ry="6.0545" color="#000000" enable-background="accumulate" fill="url(#c)" fill-rule="nonzero"/><rect id="ah" x="13.5" y="16.502" width="101" height="101" rx="5" ry="5" fill="none" opacity=".5" stroke="url(#f)" stroke-linecap="round" stroke-linejoin="round" stroke-miterlimit="4" stroke-width="1"/><rect id="ai" x="12.5" y="15.502" width="103" height="103" rx="6.0545" ry="6.0545" color="#000000" enable-background="accumulate" fill="url(#a)" fill-rule="nonzero" opacity=".4"/><rect id="aj" x="12.5" y="15.502" width="103" height="103" rx="6.0545" ry="6.0545" color="#000000" enable-background="accumulate" fill="none" opacity=".4" stroke="#ba3d12" stroke-linecap="round" stroke-linejoin="round" stroke-miterlimit="4" stroke-width="1"/><path id="ak" d="m22.304 105.73c0-1.4734 0.50889-2.7104 1.5266-3.7109 1.0177-1.0186 2.2626-1.528 3.7347-1.528 1.4357 4e-5 2.6533 0.50939 3.6528 1.528 1.0177 1.0005 1.5266 2.2375 1.5266 3.7109 0 1.4371-0.50885 2.665-1.5266 3.6836-0.99954 1.0005-2.2172 1.5008-3.6528 1.5008-1.472 3e-5 -2.7169-0.50022-3.7347-1.5008-1.0177-1.0005-1.5266-2.2283-1.5266-3.6836m-0.30378-23.659v8.7154c11.137 0 20.182 9.0598 20.182 20.214h8.7472c0-15.978-12.977-28.93-28.93-28.93zm0.01504-19.07v9.6338c21.145 0 38.314 17.185 38.314 38.351h9.6707c6.8e-5 -26.495-21.515-47.985-47.985-47.985z" fill="#ba3d12" opacity=".3"/><path id="al" d="m22.304 105.73c0-1.4734 0.50889-2.7104 1.5266-3.7109 1.0177-1.0186 2.2626-1.528 3.7347-1.528 1.4357 4e-5 2.6533 0.50939 3.6528 1.528 1.0177 1.0005 1.5266 2.2375 1.5266 3.7109 0 1.4371-0.50885 2.665-1.5266 3.6836-0.99954 1.0005-2.2172 1.5008-3.6528 1.5008-1.472 3e-5 -2.7169-0.50022-3.7347-1.5008-1.0177-1.0005-1.5266-2.2283-1.5266-3.6836m-0.30378-23.659v8.7154c11.137 0 20.182 9.0598 20.182 20.214h8.7472c0-15.978-12.977-28.93-28.93-28.93zm0.01504-19.07v9.6338c21.145 0 38.314 17.185 38.314 38.351h9.6707c6.8e-5 -26.495-21.515-47.985-47.985-47.985z" fill="#ba3d12" opacity=".3" stroke="#ba3d12" stroke-linejoin="round" stroke-miterlimit="4" stroke-width="2"/><path id="am" d="m22.304 104.73c0-1.4734 0.50889-2.7104 1.5266-3.7109 1.0177-1.0186 2.2626-1.528 3.7347-1.528 1.4357 4e-5 2.6533 0.50939 3.6528 1.528 1.0177 1.0005 1.5266 2.2375 1.5266 3.7109 0 1.4371-0.50885 2.665-1.5266 3.6836-0.99954 1.0005-2.2172 1.5008-3.6528 1.5008-1.472 3e-5 -2.7169-0.50022-3.7347-1.5008-1.0177-1.0005-1.5266-2.2283-1.5266-3.6836m-0.30378-23.659v8.7154c11.137 0 20.182 9.0598 20.182 20.214h8.7472c0-15.978-12.977-28.93-28.93-28.93zm0.01504-19.07v9.6338c21.145 0 38.314 17.185 38.314 38.351h9.6707c6.8e-5 -26.495-21.515-47.985-47.985-47.985z" fill="#fff"/></svg>
