<?xml version="1.0" encoding="UTF-8"?>
<svg version="1" viewBox="0 0 64 64" xmlns="http://www.w3.org/2000/svg"><rect x="4" y="5" width="56" height="56" rx="2.8" ry="2.8" opacity=".2"/><rect x="4" y="4" width="56" height="56" rx="2.8" ry="2.8" fill="#b5c0df"/><rect x="11" y="11" width="10" height="31" rx="1.429" ry="1.409" fill="#314277"/><rect x="27" y="11" width="26" height="31" rx="1.368" ry="1.409" fill="#314277"/><rect transform="rotate(90)" x="22" y="-40.4" width="10" height="29.4" rx="1.429" ry="1.4" fill="#314277"/><rect x="12" y="46" width="5" height="5" rx="1.25" ry="1.25" fill="#314277" opacity=".3"/><rect x="19" y="46" width="5" height="5" rx="1.25" ry="1.25" fill="#314277" opacity=".56"/><rect x="26" y="46" width="5" height="5" rx="1.25" ry="1.25" fill="#314277" opacity=".82"/><path d="m32.385 16c-0.76708 0-1.3848 0.5575-1.3848 1.25v2.5c0 0.6925 0.61769 1.25 1.3848 1.25h11.615v4h-11.75c-0.6925 0-1.25 0.47956-1.25 1.0762v11.848c0 0.59662 0.5575 1.0762 1.25 1.0762h15.365c0.76708 0 1.3848-0.5575 1.3848-1.25v-2.5c0-0.6925-0.61769-1.25-1.3848-1.25h-11.615v-4h11.75c0.02625 0 0.04838-0.01036 0.07422-0.01172 0.07425-0.0072 0.14681-0.02062 0.2168-0.03906 0.54704-0.11497 0.95899-0.51771 0.95899-1.0254v-11.848c0-0.55244-0.4849-0.98677-1.1055-1.0508-0.049624-0.005119-0.093255-0.025391-0.14453-0.025391h-2.5z" opacity=".2"/><rect x="31" y="15" width="18" height="5" rx="1.385" ry="1.25" fill="#fff"/><rect x="31" y="33" width="18" height="5" rx="1.385" ry="1.25" fill="#fff"/><rect transform="rotate(90)" x="24" y="-36" width="14" height="5" rx="1.077" ry="1.25" fill="#fff"/><rect transform="scale(-1)" x="-49" y="-29" width="17" height="5" rx="1.308" ry="1.25" fill="#fff"/><rect transform="rotate(90)" x="15" y="-49" width="14" height="5" rx="1.077" ry="1.25" fill="#fff"/><rect transform="scale(-1,1)" x="-52" y="46" width="5" height="5" rx="1.25" ry="1.25" fill="#314277" opacity=".3"/><rect transform="scale(-1,1)" x="-45" y="46" width="5" height="5" rx="1.25" ry="1.25" fill="#314277" opacity=".56"/><rect transform="scale(-1,1)" x="-38" y="46" width="5" height="5" rx="1.25" ry="1.25" fill="#314277" opacity=".82"/><path d="m6.8008 4c-1.5512 0-2.8008 1.2496-2.8008 2.8008v1c0-1.5512 1.2496-2.8008 2.8008-2.8008h50.398c1.5512 0 2.8008 1.2496 2.8008 2.8008v-1c0-1.5512-1.2496-2.8008-2.8008-2.8008h-50.398z" fill="#fff" opacity=".2"/><path d="m21 31v1h6v-1h-6zm-10 8.5918v1c0 0.78064 0.63631 1.4082 1.4277 1.4082h7.1445c0.79143 0 1.4277-0.62757 1.4277-1.4082v-1c0 0.78064-0.63631 1.4082-1.4277 1.4082h-7.1445c-0.79143 0-1.4277-0.62757-1.4277-1.4082zm16 0v1c0 0.78064 0.61104 1.4082 1.3691 1.4082h23.262c0.75811 0 1.3691-0.62757 1.3691-1.4082v-1c0 0.78064-0.61104 1.4082-1.3691 1.4082h-23.262c-0.75811 0-1.3691-0.62757-1.3691-1.4082z" opacity=".1"/><path d="m12.428 10c-0.79143 0-1.4277 0.62757-1.4277 1.4082v1c0-0.78064 0.63631-1.4082 1.4277-1.4082h7.1445c0.79143 0 1.4277 0.62757 1.4277 1.4082v-1c0-0.78064-0.63631-1.4082-1.4277-1.4082zm15.941 0c-0.75811 0-1.3691 0.62757-1.3691 1.4082v1c0-0.78064 0.61104-1.4082 1.3691-1.4082h23.262c0.75811 0 1.3691 0.62757 1.3691 1.4082v-1c0-0.78064-0.61104-1.4082-1.3691-1.4082zm-7.3691 11v1h6v-1z" fill="#fff" opacity=".1"/></svg>
