<?xml version="1.0" encoding="UTF-8"?>
<svg id="c" version="1.1" viewBox="0 0 32 32" xmlns="http://www.w3.org/2000/svg"><linearGradient id="b" x1="386.57" x2="386.57" y1="527.13" y2="504.91" gradientTransform="matrix(.78571 0 0 .8415 -303.3 -417.88)" gradientUnits="userSpaceOnUse"><stop id="d" stop-color="#1d1e1e" offset="0"/><stop id="e" stop-color="#44484c" offset="1"/></linearGradient><linearGradient id="a" x1="-2" x2="-2" y1="30" y2="2" gradientTransform="matrix(.78571 0 0 .85714 .42857 .28571)" gradientUnits="userSpaceOnUse"><stop id="f" stop-color="#c6cdd1" offset="0"/><stop id="g" stop-color="#e0e5e7" offset="1"/></linearGradient><path id="h" d="m2 2v24h22v-24z" fill="url(#a)" stroke-width=".82065"/><path id="i" d="m2 7h22v17h-22z" fill="url(#b)" stroke-width=".81722"/><path id="j" d="m2 2h22v4h-22z" fill="#566069" stroke-width=".8864"/><path id="k" d="m2 6h22v1h-22z" fill="#3daee9" stroke-width=".8864"/><rect id="l" x="20" y="3" width="2" height="2" rx="1" fill="#eff0f1"/><path id="m" d="m13 10h2v1h-2zm3 0h3v1h-3z" fill="#95a5a6"/><path id="n" d="m13 12h4v1h-4zm5 0h2v1h-2z" fill="#95a5a6"/><path id="o" d="m13 18h2v1h-2zm3 0h3v1h-3z" fill="#95a5a6"/><path id="p" d="m13 20h3v1h-3z" fill="#95a5a6"/><path id="q" d="m2 26h22v1h-22z" fill="#99a1a7" stroke-width=".8864"/><g id="r" transform="matrix(1.0064 0 0 1.0415 34.869 10.199)"><rect id="s" x="-20.619" y="8.1455" width="15.772" height="10.848" rx="0" ry=".035569" fill="#fff" stroke-width="1.0165"/><g id="t" transform="matrix(.082419 0 0 .082419 -22.731 -13.84)"><path id="u" class="fil0" d="m24.2 266h13.6v-40.8c0-45.8 37.1-82.9 82.9-82.9s82.9 37.1 82.9 82.9v40.4c-0.2 0.1-0.4 0.3-0.6 0.4l-0.2 0.2h-0.1l-0.2 0.2h-0.3l-0.2 0.2h-0.2l-0.2 0.1h-0.1l-0.2 0.2h-0.1l-0.4 0.4-0.3 0.2-0.2 0.1-0.3 0.2-0.4 0.2-0.3 0.2-0.2 0.1-0.1 0.1-0.3 0.2-0.2 0.1-0.5 0.3-0.6 0.3h-0.1l-0.6 0.3h-0.2c-0.2 0.1-0.4 0.2-0.7 0.4h-0.1l-0.1 0.1-0.3 0.2-0.2 0.1-0.3 0.2-0.2 0.1h-0.1l-0.3 0.2-0.4 0.2c-0.2 0.1-0.5 0.2-0.7 0.3l-1.2 0.6-1 0.4-0.8 0.4c-16.5 7.9-42.9 16.2-93 19.8-35.9 2.6-57.7 18.4-71.8 37.4zm51.7 0h89.4v-40.8c0-24.7-20-44.7-44.7-44.7s-44.7 20-44.7 44.7zm141.2 15.6v117h-165.1c18.2-10.1 31.7-9.1 54.2-8.4 30.6 1 64.4-11.8 81-28.8s-1.5-4-20.3 0.8-55.2 5.3-79.6-1.1c76.6 1 106.5-23.7 123.4-46 16.9-22.2-7.3-3.9-23 3.8s-43.1 13.1-73.3 9.1c45.6-0.1 80.3-22.9 102.6-46.4z" fill="#0093dd" stroke-width="6"/></g></g><g id="v" transform="translate(-405.57 -503.8)" fill="#95a5a6"><rect id="w" x="408.57" y="513.8" width="3" height="1"/><rect id="x" x="413.57" y="513.8" width="3.6357" height="1"/></g><rect id="y" x="3" y="12" width="8" height="1" fill="#95a5a6"/><g id="z" transform="translate(-405.57 -495.8)" fill="#95a5a6"><rect id="aa" x="408.57" y="513.8" width="3" height="1"/><rect id="ab" x="413.57" y="513.8" width="2.2772" height=".93638"/></g><rect id="ac" x="3" y="20" width="8" height="1" fill="#95a5a6"/></svg>
