<?xml version="1.0" encoding="UTF-8"?>
<svg width="48" height="48" version="1.1" viewBox="0 0 12.7 12.7" xmlns="http://www.w3.org/2000/svg"><defs><linearGradient id="b" x1="3.2" x2="18" y2="24" gradientTransform="matrix(.47673 0 0 .4648 -10.583 6.3497)" gradientUnits="userSpaceOnUse"><stop stop-color="#5d5f61" offset="0"/><stop stop-color="#2d3033" offset="1"/></linearGradient><linearGradient id="a" x1="8.7284" x2="3.9495" y1="10.26" y2="1.9827" gradientTransform="translate(-.00029159 .17461)" gradientUnits="userSpaceOnUse"><stop stop-color="#c8c8c8" offset="0"/><stop stop-color="#fff" offset="1"/></linearGradient><linearGradient id="c" x1="8.4361" x2="2.5002" y1="10.014" y2="-.26683" gradientTransform="translate(-.00029159 .17461)" gradientUnits="userSpaceOnUse"><stop stop-color="#2d2d2d" offset="0"/><stop stop-color="#2d2d2d" stop-opacity="0" offset="1"/></linearGradient><style id="d" type="text/css">.ColorScheme-Accent {
                color:#3daee9;
            }</style></defs><g transform="translate(11.642 -5.2917)"><path d="m-9.2607 16.934a1.32 1.32 0 0 1-1.323-1.323v-3.969h10.584v3.969a1.32 1.32 0 0 1-1.323 1.323z" fill="#212325" stroke-width=".47041"/><path d="m-9.2607 6.3497a1.32 1.32 0 0 0-1.323 1.323v3.969h10.584v-3.969a1.32 1.32 0 0 0-1.323-1.323h-7.939z" fill="#939598" stroke-width=".47041"/><rect x="-10.583" y="6.6147" width="10.583" height="10.054" rx="1.323" ry="1.323" fill="url(#b)" stroke-width=".47073"/><g transform="matrix(1.5505 0 0 1.5505 -13.77 4.2162)"><g transform="matrix(.97727 0 0 .97727 .12461 .19679)"><path d="m4.9435 2.4292c-0.065676 0-0.1191 0.048886-0.1296 0.11016l-0.098562 0.69403c-0.15952 0.066792-0.30765 0.1535-0.44233 0.25783l-0.65276-0.26295c-0.059064-0.022079-0.12704-3.16e-5 -0.15961 0.056272l-0.44165 0.7653-0.099244-0.14256-3.411e-4 0.35059 3.411e-4 -0.00102c5.77e-5 0.038632 0.017209 0.076328 0.048769 0.10231l0.55181 0.43381c-0.010437 0.083904-0.018075 0.16912-0.018075 0.25578 0 0.086664 0.00765 0.1712 0.018075 0.2551l-0.49861 0.39186-0.10231-0.19985v0.34309l3.411e-4 -3.411e-4c-8.37e-5 0.022369 0.00548 0.045308 0.017393 0.066504l0.5235 0.90718c0.032567 0.056302 0.10111 0.080009 0.15961 0.056272l0.65276-0.26295c0.13469 0.10322 0.28281 0.19104 0.44233 0.25783l0.098562 0.69403c0.010437 0.061821 0.063901 0.11016 0.1296 0.11016h1.0477c0.065696 0 0.1191-0.048886 0.1296-0.11016l0.098221-0.69403c0.15954-0.066792 0.30833-0.1535 0.44302-0.25783l0.65208 0.26295c0.059063 0.022079 0.12704 2.93e-5 0.15961-0.056272l0.52384-0.90718c0.012274-0.021219 0.01782-0.044316 0.017393-0.067186l0.00171 0.00102v-0.34309l-0.10266 0.20053-0.49861-0.39254c0.010437-0.083904 0.018075-0.16844 0.018075-0.2551 0-0.086664-0.00765-0.17188-0.018075-0.25578l0.55181-0.43381c0.032143-0.025359 0.049031-0.063697 0.048428-0.10334l0.00102 0.00205-3.411e-4 -0.35059-0.099244 0.14256 0.00205 0.00409-0.44438-0.7694c-0.032566-0.056304-0.10077-0.080008-0.15927-0.056272l-0.65242 0.26295c-0.13468-0.10322-0.28349-0.19104-0.44302-0.25783l-0.098221-0.69403c-0.011599-0.061822-0.065485-0.11016-0.13062-0.11016zm0.52521 1.7022c0.50673 0 0.91707 0.41068 0.91707 0.91741 0 0.50673-0.41034 0.91673-0.91707 0.91673-0.50673 0-0.91673-0.41-0.91673-0.91673 0-0.50673 0.41-0.91741 0.91673-0.91741z" fill="url(#c)" stroke-width=".55199"/><path d="m4.9435 2.0799c-0.065676 0-0.1191 0.048885-0.1296 0.11016l-0.098562 0.69403c-0.15952 0.066792-0.30765 0.1535-0.44233 0.25783l-0.65276-0.26295c-0.059064-0.022079-0.12704-3.15e-5 -0.15961 0.056272l-0.5235 0.90718c-0.032567 0.056304-0.018235 0.12661 0.031376 0.16745l0.55181 0.43381c-0.010437 0.083904-0.018075 0.16912-0.018075 0.25578 0 0.086664 0.00765 0.1712 0.018075 0.2551l-0.55181 0.43381c-0.049674 0.039191-0.063943 0.10949-0.031376 0.16745l0.5235 0.90718c0.032567 0.056302 0.10111 0.080009 0.15961 0.056272l0.65276-0.26294c0.13469 0.10322 0.28281 0.19104 0.44233 0.25783l0.098562 0.69403c0.010437 0.061821 0.063901 0.11016 0.1296 0.11016h1.0477c0.065696 0 0.1191-0.048886 0.1296-0.11016l0.098221-0.69403c0.15954-0.066792 0.30833-0.1535 0.44302-0.25783l0.65208 0.26295c0.059063 0.022079 0.12704 2.92e-5 0.15961-0.056272l0.52384-0.90718c0.032567-0.056302 0.018236-0.12661-0.031376-0.16745l-0.55079-0.43381c0.010437-0.083904 0.018075-0.16844 0.018075-0.2551 0-0.086664-0.00765-0.17188-0.018075-0.25578l0.55181-0.43381c0.049674-0.039191 0.063943-0.10949 0.031376-0.16745l-0.52384-0.90718c-0.032566-0.056304-0.10077-0.080008-0.15927-0.056272l-0.65242 0.26295c-0.13469-0.10322-0.28349-0.19104-0.44302-0.25783l-0.098221-0.69403c-0.0116-0.061823-0.065485-0.11016-0.13062-0.11016zm0.52384 1.7461c0.48826 0 0.8741 0.38481 0.8741 0.87307 0 0.48826-0.38583 0.87307-0.8741 0.87307-0.48826 0-0.87307-0.38481-0.87307-0.87307 0-0.48826 0.38481-0.87307 0.87307-0.87307z" fill="url(#a)" stroke-width=".55199"/><g stroke-width="17.937"><path class="ColorScheme-Accent" d="m5.4691 3.4739c-0.6782 0-1.2241 0.54592-1.2241 1.2241v0.00219c0 0.6782 0.54592 1.2241 1.2241 1.2241 0.6782 0 1.2241-0.54592 1.2241-1.2241v-0.00219c0-0.6782-0.54592-1.2241-1.2241-1.2241zm-0.00182 0.35214c0.48826 0 0.87424 0.38481 0.87424 0.87307 0 0.48826-0.38598 0.87307-0.87424 0.87307-0.48827 0-0.87307-0.38481-0.87307-0.87307 0-0.48826 0.38481-0.87307 0.87307-0.87307z" fill="currentColor" opacity=".64858" style="paint-order:stroke markers fill"/><path d="m5.1518 3.5151c-0.65509 0.17553-1.0409 0.84434-0.86542 1.4994-0.1501-0.56017 0.25631-1.1523 0.9114-1.3278 0.65509-0.17553 1.3034 0.13395 1.4535 0.69412-0.17553-0.65509-0.84442-1.0413-1.4995-0.86575z" fill="#fff" opacity=".4" style="paint-order:stroke markers fill"/><path d="m5.7828 5.8832c0.65509-0.17553 1.0409-0.84434 0.86542-1.4994 0.1501 0.56017-0.25631 1.1523-0.9114 1.3278-0.65509 0.17553-1.3034-0.13395-1.4535-0.69412 0.17553 0.65509 0.84442 1.0413 1.4995 0.86575z" opacity=".25" style="paint-order:stroke markers fill"/></g></g></g></g></svg>
