<?xml version="1.0" encoding="UTF-8"?>
<svg id="a" width="16" height="16" version="1.1" viewBox="0 0 4.2333 4.2333" xmlns="http://www.w3.org/2000/svg"><g id="b" transform="translate(0 -292.77)" fill-rule="nonzero"><ellipse id="c" cx="2.1167" cy="294.06" rx="1.2095" ry="1.191" fill="#006888" style="paint-order:normal"/><circle id="d" cx="2.1167" cy="294.09" r="1.1911" fill="#e6461d" stroke="#c02700" stroke-linecap="square" stroke-linejoin="round" stroke-miterlimit="4" stroke-width=".26358" style="paint-order:normal"/><circle id="e" cx="2.9104" cy="295.68" r="1.1907" fill="#00aade" stroke="#006888" stroke-linecap="square" stroke-linejoin="round" stroke-miterlimit="4" stroke-width=".26448" style="paint-order:normal"/><circle id="f" cx="1.3229" cy="295.68" r="1.1911" fill="#6acc0a" stroke="#52a302" stroke-linecap="square" stroke-linejoin="round" stroke-miterlimit="4" stroke-width=".26358" style="paint-order:normal"/><path id="g" d="m2.1167 294.62a1.3229 1.3229 0 0 0-0.52865 1.0558 1.3229 1.3229 0 0 0 0.52917 1.0563 1.3229 1.3229 0 0 0 0.52865-1.0558 1.3229 1.3229 0 0 0-0.52917-1.0563z" fill="#006888" style="paint-order:normal"/><path id="h" d="m1.3229 294.35a1.3229 1.3229 0 0 0-0.48059 0.0904 1.3229 1.3229 0 0 0 1.2743 0.9679 1.3229 1.3229 0 0 0 0.48059-0.0904 1.3229 1.3229 0 0 0-1.2743-0.9679z" fill="#dcb102" style="paint-order:normal"/><path id="i" d="m2.9104 294.35a1.3229 1.3229 0 0 0-1.2733 0.9679 1.3229 1.3229 0 0 0 0.47904 0.0909 1.3229 1.3229 0 0 0 1.2733-0.9679 1.3229 1.3229 0 0 0-0.47904-0.091z" fill="#753390" style="paint-order:normal"/><path id="j" d="m2.1167 294.62a1.3229 1.3229 0 0 0-0.039274 0.0294 1.3229 1.3229 0 0 0-0.034106 0.0289 1.3229 1.3229 0 0 0-0.064595 0.0599 1.3229 1.3229 0 0 0-0.029456 0.03 1.3229 1.3229 0 0 0-0.056327 0.0641 1.3229 1.3229 0 0 0-0.032556 0.0408 1.3229 1.3229 0 0 0-0.050643 0.0713 1.3229 1.3229 0 0 0-0.01912 0.0289 1.3229 1.3229 0 0 0-0.05116 0.0894 1.3229 1.3229 0 0 0-0.013436 0.0258 1.3229 1.3229 0 0 0-0.039274 0.0873 1.3229 1.3229 0 0 0-0.014469 0.0372 1.3229 1.3229 0 0 0-0.029456 0.0894 1.3229 1.3229 0 0 0-0.00517 0.0176 1.3229 1.3229 0 0 0 0.031523 0.0114 1.3229 1.3229 0 0 0 0.076998 0.0258 1.3229 1.3229 0 0 0 0.066663 0.0171 1.3229 1.3229 0 0 0 0.055294 0.0124 1.3229 1.3229 0 0 0 0.086816 0.0129 1.3229 1.3229 0 0 0 0.042891 5e-3 1.3229 1.3229 0 0 0 0.11834 6e-3 1.3229 1.3229 0 0 0 0.24288-0.0232 1.3229 1.3229 0 0 0 0.14728-0.0357 1.3229 1.3229 0 0 0 0.088367-0.0326 1.3229 1.3229 0 0 0-0.00517-0.0207 1.3229 1.3229 0 0 0-0.018087-0.0537 1.3229 1.3229 0 0 0-0.024805-0.0687 1.3229 1.3229 0 0 0-0.029972-0.0667 1.3229 1.3229 0 0 0-0.023254-0.0475 1.3229 1.3229 0 0 0-0.039791-0.0703 1.3229 1.3229 0 0 0-0.028422-0.0455 1.3229 1.3229 0 0 0-0.041341-0.0579 1.3229 1.3229 0 0 0-0.040824-0.0532 1.3229 1.3229 0 0 0-0.038241-0.0434 1.3229 1.3229 0 0 0-0.048059-0.0517 1.3229 1.3229 0 0 0-0.055811-0.0517 1.3229 1.3229 0 0 0-0.039791-0.0346 1.3229 1.3229 0 0 0-0.044442-0.0341z" fill="#f1f3f5" style="paint-order:normal"/></g></svg>
