<?xml version="1.0" encoding="UTF-8"?>
<svg id="k" sodipodi:docbase="/home/vinicius/tango-icon-theme-code/apps/scalable" sodipodi:docname="gnumeric.svg" sodipodi:version="0.32" version="1.0" viewBox="0 0 48 48" xmlns="http://www.w3.org/2000/svg" xmlns:sodipodi="http://inkscape.sourceforge.net/DTD/sodipodi-0.dtd" xmlns:xlink="http://www.w3.org/1999/xlink"><defs id="l"><linearGradient id="a"><stop id="m" stop-opacity=".068376" offset="0"/><stop id="n" stop-opacity=".21368" offset="1"/></linearGradient><linearGradient id="g" x1="24.497" x2="24.497" y1="43.013" y2="5.987" gradientTransform="matrix(.81222 0 0 1.0537 -.4495 -1.3088)" gradientUnits="userSpaceOnUse"><stop id="o" stop-color="#dbdbd5" offset="0"/><stop id="p" stop-color="#f1f1f0" offset="1"/></linearGradient><radialGradient id="c" cx="-74.011" cy="38.891" r="13.664" gradientUnits="userSpaceOnUse"><stop id="q" offset="0"/><stop id="r" stop-opacity="0" offset="1"/></radialGradient><linearGradient id="b" x1="-49.994" x2="-49.994" y1="37.036" y2="17.857" gradientUnits="userSpaceOnUse"><stop id="s" stop-color="#fff" offset="0"/><stop id="t" stop-color="#fff" stop-opacity="0" offset="1"/></linearGradient><linearGradient id="f" x1="-54.103" x2="-49.994" y1="20.458" y2="33.543" gradientUnits="userSpaceOnUse"><stop id="u" stop-color="#ff7171" offset="0"/><stop id="v" stop-color="#dc2525" offset="1"/></linearGradient><linearGradient id="e" x1="-9.2566" x2="-16.605" y1="55.833" y2="48.589" gradientUnits="userSpaceOnUse"><stop id="w" stop-color="#3465a4" offset="0"/><stop id="x" stop-color="#729fcf" offset="1"/></linearGradient><linearGradient id="d" x1="-18.08" x2="-18.5" y1="48.666" y2="56.828" gradientUnits="userSpaceOnUse"><stop id="y" stop-color="#c4f197" offset="0"/><stop id="z" stop-color="#74d218" offset="1"/></linearGradient><linearGradient id="j" x1="7" x2="13" y1="-19.5" y2="-19.5" gradientTransform="matrix(1 0 5.5599e-35 .70968 1.6265e-16 -10.161)" gradientUnits="userSpaceOnUse" xlink:href="#a"/><linearGradient id="i" x1="-3.9965" x2="-13" y1="-28.55" y2="-28.55" gradientTransform="matrix(1 0 0 .82353 0 -7.2353)" gradientUnits="userSpaceOnUse" xlink:href="#a"/><linearGradient id="h" x1="6.997" x2="13.669" y1="-27.687" y2="-28.724" gradientTransform="matrix(1 0 -2.2419e-34 .29032 1.1107e-16 -2.8387)" gradientUnits="userSpaceOnUse" xlink:href="#a"/></defs><sodipodi:namedview id="aa" fill="#888a85" bordercolor="#666666" borderopacity="1.0" pagecolor="#ffffff" showborder="false" showgrid="false" showguides="true"/><rect id="ab" x="2.3943" y="5.5265" width="34.106" height="37.96" rx="2.8915" ry="2.8915" fill="url(#g)" stroke="#555753" stroke-linecap="round" stroke-linejoin="round"/><rect id="ac" transform="rotate(90)" x="7" y="-35" width="35" height="1" fill="#8d8e8b" fill-opacity=".56034"/><rect id="ad" transform="rotate(90)" x="7" y="-24" width="35" height="1" fill="#8d8e8b" fill-opacity=".56034"/><rect id="ae" transform="rotate(90)" x="7" y="-13" width="35" height="1" fill="#8d8e8b" fill-opacity=".56034"/><rect id="af" transform="rotate(90)" x="7" y="-5" width="35" height="1" fill="#8d8e8b" fill-opacity=".56034"/><rect id="ag" x="4" y="20" width="31" height="1" fill="#8d8e8b" fill-opacity=".56034"/><rect id="ah" x="4" y="24" width="31" height="1" fill="#8d8e8b" fill-opacity=".56034"/><rect id="ai" x="4" y="28" width="31" height="1" fill="#8d8e8b" fill-opacity=".56034"/><rect id="aj" x="4" y="32" width="31" height="1" fill="#8d8e8b" fill-opacity=".56034"/><rect id="ak" x="4" y="36" width="31" height="1" fill="#8d8e8b" fill-opacity=".56034"/><rect id="al" x="4" y="41" width="31" height="1" fill="#8d8e8b" fill-opacity=".56034"/><rect id="am" x="4" y="16" width="31" height="1" fill="#8d8e8b" fill-opacity=".56034"/><rect id="an" x="4" y="12" width="31" height="1" fill="#8d8e8b" fill-opacity=".56034"/><rect id="ao" x="4" y="7" width="31" height="1" fill="#8d8e8b" fill-opacity=".56034"/><rect id="ap" transform="matrix(2.2234e-17 1 -1 1.6007e-17 0 0)" x="7" y="-35" width="6" height="22" fill="url(#j)"/><rect id="aq" transform="matrix(9.0957e-18 1 -1 3.9128e-17 0 0)" x="7" y="-13" width="6" height="9" fill="url(#h)"/><rect id="ar" transform="scale(-1)" x="-13" y="-41" width="9" height="28" fill="url(#i)"/><rect id="as" x="3.4051" y="6.5139" width="32.063" height="35.958" rx="1.8955" ry="1.8955" fill="none" stroke="#fff" stroke-linecap="round" stroke-linejoin="round"/><g id="at" transform="translate(50.079 -18.091)"><path id="au" transform="matrix(1.2207 0 0 .95833 72.125 15.853)" d="m-60.348 38.891a13.664 13.664 0 1 1-27.327 0 13.664 13.664 0 1 1 27.327 0z" fill="url(#c)" sodipodi:cx="-74.011093" sodipodi:cy="38.890942" sodipodi:rx="13.663586" sodipodi:ry="13.663586" sodipodi:type="arc"/><path id="av" d="m-18.549 37.594c-7.745 0.212-13.949 4.834-13.949 10.468v4c0 5.77 6.509 10.438 14.514 10.438 8.0047 0 14.482-4.668 14.482-10.438 4e-4 -0.315 4e-4 -3.691 4e-4 -4 0-5.769-6.4777-10.468-14.482-10.468-0.188 0-0.379-5e-3 -0.565 0z" fill="#a40000" stroke="#670000" stroke-linecap="round" stroke-linejoin="round" sodipodi:nodetypes="cssssssc"/><path id="aw" d="m-15 57v4.799c4.088-0.608 10.02-3.22 11-8.799v-5l-11 9z" fill="#204a87" fill-rule="evenodd" sodipodi:nodetypes="ccccc"/><path id="ax" d="m-23 57.37v3.967c1.971 0.548 5.427 0.965 8 0.428v-4l-8-0.395z" fill="#4e9a06" fill-rule="evenodd" sodipodi:nodetypes="ccccc"/><path id="ay" transform="matrix(1.0666 0 0 1.0425 35.332 23.434)" d="m-37.329 27.447c0 5.029-5.674 9.11-12.665 9.11s-12.665-4.081-12.665-9.11c0-0.241 0.013-2.398 0.038-2.634 0.508-4.695 5.97-6.476 12.627-6.476 6.625 0 12.067 1.746 12.619 6.41 0.03 0.257 0.046 2.436 0.046 2.7z" fill="none" opacity=".25738" stroke="url(#b)" stroke-linecap="round" stroke-linejoin="round" stroke-width=".94832" sodipodi:nodetypes="csssssc"/><path id="az" transform="matrix(1.0666 0 0 1.0425 35.332 19.434)" d="m-37.329 27.447a12.665 9.11 0 1 1-25.33 0 12.665 9.11 0 1 1 25.33 0z" fill="url(#f)" stroke="#ff7171" stroke-linecap="round" stroke-linejoin="round" stroke-width=".94832" sodipodi:cx="-49.994148" sodipodi:cy="27.44685" sodipodi:rx="12.665184" sodipodi:ry="9.1100445" sodipodi:type="arc"/><path id="ba" d="m-18.008 47.526 13.173-2.883c3.1747 6.8-3.6559 12.455-10.153 13.18l-3.02-10.297z" fill="url(#e)" fill-rule="evenodd" sodipodi:nodetypes="cccc"/><path id="bb" d="m-17.963 47.556-5.039 9.826c2.621 0.735 5.221 0.781 8.039 0.433l-3-10.259z" fill="url(#d)" fill-rule="evenodd" sodipodi:nodetypes="cccc"/><path id="bc" transform="matrix(1.0666 0 0 1.0425 35.332 19.434)" d="m-37.329 27.447a12.665 9.11 0 1 1-25.33 0 12.665 9.11 0 1 1 25.33 0z" fill="none" opacity=".51477" stroke="url(#b)" stroke-linecap="round" stroke-linejoin="round" stroke-width=".94832" sodipodi:cx="-49.994148" sodipodi:cy="27.44685" sodipodi:rx="12.665184" sodipodi:ry="9.1100445" sodipodi:type="arc"/></g></svg>
