<?xml version="1.0" encoding="UTF-8"?>
<svg fill="none" viewBox="0 0 40 40" xmlns="http://www.w3.org/2000/svg"><g transform="translate(0 5)"><rect width="40" height="30" rx="2" fill="url(#a)"/><path d="m0 27v1c0 1.1046 1 2 2 2v-1c-1.1046 0-2-0.8954-2-2zm2 3h36c1 0 2-0.8954 2-2v-1c0 1.1046-0.8954 2-2 2h-36v1z" clip-rule="evenodd" fill="#031C5A" fill-opacity=".1" fill-rule="evenodd"/><circle cx="7" cy="8" r="2" fill="#232629" fill-opacity=".5"/><circle cx="7" cy="8" r="2.5" stroke="#232629" stroke-opacity=".1"/><circle cx="7" cy="22" r="2" fill="#232629"/><circle cx="7" cy="22" r="2.5" stroke="#232629" stroke-opacity=".1"/><circle cx="7" cy="15" r="2" fill="#232629"/><circle cx="7" cy="15" r="2.5" stroke="#232629" stroke-opacity=".1"/><path d="m12 21.422c0.3652 0.2397 0.6964 0.2542 1.1154 0.1643 0.1455-0.0312 0.2942-0.0495 0.4362-0.0989 0.1575-0.0548 0.3008-0.1546 0.4537-0.2237 0.5688-0.2571 1.0708-0.6551 1.6455-0.9008 0.3389-0.1449 0.655-0.2144 1.012-0.2009 0.2024 0.0077 0.2389 0.2498 0.2389 0.4398 0 0.3211-0.1133 0.6396 0.0269 0.945 0.0927 0.202 0.3192 0.1491 0.4858 0.1491 0.3088 0 0.5846-0.0137 0.8805-0.1278 0.3326-0.1283 0.6184-0.3664 0.9154-0.5722 0.6938-0.4807 1.4649-0.7521 2.2522-0.9465 0.097-0.0239 0.5861-0.1368 0.6107 0.0867 0.0249 0.2252-0.209 0.5024-0.3369 0.6376-0.0955 0.1011-0.2779 0.186-0.3449 0.3211-0.076 0.1532 0.291 0.3258 0.3611 0.3485 0.846 0.274 1.7426-0.2102 2.4991-0.5904 0.5342-0.2685 1.0225-0.4991 1.6187-0.4535 0.1063 0.0081 0.8441 0.015 0.8631 0.2298 0.033 0.3748-1.0199 0.653-0.5315 1.0043 0.7995 0.5751 1.6299 0.2134 2.3743-0.2435 0.477-0.2927 1.0183-0.4477 1.5503-0.5554 0.2292-0.0464 0.4609-0.0847 0.6939-0.0943 0.1184-0.0049 0.4911-0.0747 0.5342 0.1126 0.0622 0.2708-0.0368 0.5848 0.0134 0.8643 0.0549 0.3055 0.3356 0.3056 0.5584 0.2617 0.2844-0.056 0.2268-0.2398 0.1986-0.5143-0.0182-0.1777-0.0494-0.4079 0.0376-0.5707 0.0893-0.1671 0.2902-0.1295 0.4295-0.0897 0.5165 0.1473 0.9773 0.5065 1.4536 0.7639 0.3091 0.1669 0.6375 0.2854 0.9543 0.4291" stroke="#000" stroke-linecap="round"/><path d="m12 14.422c0.3652 0.2397 0.6964 0.2542 1.1154 0.1643 0.1455-0.0312 0.2942-0.0495 0.4362-0.0989 0.1575-0.0548 0.3008-0.1546 0.4537-0.2237 0.5688-0.2571 1.0708-0.6551 1.6455-0.9008 0.3389-0.1449 0.655-0.2144 1.012-0.2009 0.2024 0.0077 0.2389 0.2498 0.2389 0.4398 0 0.3211-0.1133 0.6396 0.0269 0.945 0.0927 0.202 0.3192 0.1491 0.4858 0.1491 0.3088 0 0.5846-0.0137 0.8805-0.1278 0.3326-0.1283 0.6184-0.3664 0.9154-0.5722 0.6938-0.4807 1.4649-0.7521 2.2522-0.9465 0.097-0.0239 0.5861-0.1368 0.6107 0.0867 0.0249 0.2252-0.209 0.5024-0.3369 0.6376-0.0955 0.1011-0.2779 0.186-0.3449 0.3211-0.076 0.1532 0.291 0.3258 0.3611 0.3485 0.846 0.274 1.7426-0.2102 2.4991-0.5904 0.5342-0.2685 1.0225-0.4991 1.6187-0.4535 0.1063 0.0081 0.8441 0.015 0.8631 0.2298 0.033 0.3748-1.0199 0.653-0.5315 1.0043 0.7995 0.5751 1.6299 0.2134 2.3743-0.2435 0.477-0.2927 1.0183-0.4477 1.5503-0.5554 0.2292-0.0464 0.4609-0.0847 0.6939-0.0943 0.1184-0.0049 0.4911-0.0747 0.5342 0.1126 0.0622 0.2708-0.0368 0.5848 0.0134 0.8643 0.0549 0.3055 0.3356 0.3056 0.5584 0.2617 0.2844-0.056 0.2268-0.2398 0.1986-0.5143-0.0182-0.1777-0.0494-0.4079 0.0376-0.5707 0.0893-0.1671 0.2902-0.1295 0.4295-0.0897 0.5165 0.1473 0.9773 0.5065 1.4536 0.7639 0.3091 0.1669 0.6375 0.2854 0.9543 0.4291" stroke="#000" stroke-linecap="round"/><path d="m12 8.4223c0.3652 0.23971 0.6964 0.2542 1.1154 0.16434 0.1455-0.0312 0.2942-0.04955 0.4362-0.09891 0.1575-0.05478 0.3008-0.1546 0.4537-0.22369 0.5688-0.25715 1.0708-0.65513 1.6455-0.90086 0.3389-0.1449 0.655-0.21436 1.012-0.20087 0.2024 0.00765 0.2389 0.24977 0.2389 0.43978 0 0.32112-0.1133 0.6396 0.0269 0.94499 0.0927 0.20204 0.3192 0.14912 0.4858 0.14912 0.3088 0 0.5846-0.01369 0.8805-0.12782 0.3326-0.12827 0.6184-0.36635 0.9154-0.57217 0.6938-0.48067 1.4649-0.75211 2.2522-0.9465 0.097-0.02395 0.5861-0.13682 0.6107 0.08673 0.0249 0.22514-0.209 0.50235-0.3369 0.6376-0.0955 0.10107-0.2779 0.18601-0.3449 0.32109-0.076 0.15319 0.291 0.32577 0.3611 0.34847 0.846 0.27405 1.7426-0.2102 2.4991-0.59043 0.5342-0.26846 1.0225-0.49909 1.6187-0.45347 0.1063 0.00813 0.8441 0.01503 0.8631 0.22978 0.033 0.37484-1.0199 0.65307-0.5315 1.0043 0.7995 0.5751 1.6299 0.21342 2.3743-0.24347 0.477-0.29274 1.0183-0.44774 1.5503-0.55543 0.2292-0.04641 0.4609-0.08474 0.6939-0.09434 0.1184-0.00489 0.4911-0.0747 0.5342 0.1126 0.0622 0.27083-0.0368 0.58484 0.0134 0.86434 0.0549 0.3055 0.3356 0.30557 0.5584 0.26173 0.2844-0.05599 0.2268-0.2398 0.1986-0.51434-0.0182-0.1777-0.0494-0.4079 0.0376-0.57064 0.0893-0.16711 0.2902-0.12953 0.4295-0.08978 0.5165 0.14737 0.9773 0.50656 1.4536 0.7639 0.3091 0.16698 0.6375 0.28546 0.9543 0.42912" stroke="#000" stroke-linecap="round" stroke-opacity=".5"/><path d="m3 8h34" stroke="#4B4B4B" stroke-width=".5"/><defs><linearGradient id="a" x1="5.3333" x2="21.11" y1="-1.6093e-7" y2="34.112" gradientUnits="userSpaceOnUse"><stop stop-color="#FFFEF2" offset="0"/><stop stop-color="#EEEDCF" offset="1"/></linearGradient></defs></g></svg>
