<?xml version="1.0" encoding="UTF-8"?>
<svg id="f" version="1.0" viewBox="0 0 128 128" xmlns="http://www.w3.org/2000/svg" xmlns:xlink="http://www.w3.org/1999/xlink"><defs id="g"><filter id="e"><feGaussianBlur id="h" stdDeviation="0.43128599"/></filter><filter id="d"><feGaussianBlur id="i" stdDeviation="0.2712"/></filter><filter id="c"><feGaussianBlur id="j" stdDeviation="0.15917644"/></filter><linearGradient id="b" x1=".48601" x2="27.638" y1="17.332" y2="17.332" gradientUnits="userSpaceOnUse"><stop id="k" offset="0"/><stop id="l" stop-opacity="0" offset="1"/></linearGradient><linearGradient id="a" x1=".48601" x2="27.638" y1="17.332" y2="17.332" gradientUnits="userSpaceOnUse"><stop id="m" stop-opacity=".95255" offset="0"/><stop id="n" stop-color="#191919" stop-opacity=".73358" offset="1"/></linearGradient></defs><g id="o" transform="matrix(3.994 0 0 3.994 1.0539 9.4855)" stroke-linecap="round" stroke-linejoin="round" stroke-miterlimit="4"><text id="K" transform="translate(-.086651 -1.9024)" x="0.20600751" y="27.124464" fill="url(#b)" filter="url(#d)" font-family="Utopia" font-style="italic" stroke="url(#a)" stroke-width="2" style="line-height:0%" xml:space="preserve"><tspan id="p" x="0.20600751" y="27.124464" fill="url(#b)" font-size="32px" stroke="url(#a)" style="line-height:1">K</tspan></text><text id="q" transform="translate(-.086651 -1.9024)" x="-0.34334934" y="25.888411" fill="#555555" font-family="Utopia" font-style="italic" stroke="#555555" stroke-width="1.7" style="line-height:0%" xml:space="preserve"><tspan id="r" x="-0.34334934" y="25.888411" fill="#555555" font-size="32px" stroke="#555555" stroke-miterlimit="4" stroke-width="1.7" style="line-height:1">K</tspan></text><path id="s" transform="matrix(.9862 0 0 1.2643 .71214 -5.9605)" d="m5.4936 15.451c0.8927 1.0987 1.6574 2.3332 2.8841 2.1288 1.2361-0.20601 3.2275-3.6395 4.3948-3.5708s2.1215 7.6198 4.0515 7.6223c1.5622 0.002067 4.1202-12.498 5.2189-11.605 1.0987 0.8927 2.2416 14.347 3.7082 14.283 1.5794-0.06867 2.0537-15.382 3.1588-15.313 1.0987 0.06867 1.6481 8.927 1.7167 8.9957s0 0.13734 0 0.13734" fill="none" filter="url(#e)" opacity=".85" stroke="#badcac" stroke-width="1.7911"/><path id="t" transform="matrix(.9862 0 0 1.2643 .16278 -7.8145)" d="m5.4936 15.451c0.8927 1.0987 1.6574 2.3332 2.8841 2.1288 1.2361-0.20601 3.2275-3.6395 4.3948-3.5708s2.1215 7.6198 4.0515 7.6223c1.5622 0.002067 4.1202-12.498 5.2189-11.605 1.0987 0.8927 2.2416 14.347 3.7082 14.283 1.5794-0.06867 2.0537-15.382 3.1588-15.313 1.0987 0.06867 1.6481 8.927 1.7167 8.9957s0 0.13734 0 0.13734" fill="none" filter="url(#c)" stroke="#0f9205" stroke-opacity=".59218" stroke-width="1.4418"/></g></svg>
