<?xml version="1.0" encoding="UTF-8"?>
<svg width="48" height="48" viewBox="0 0 12.7 12.7" xmlns="http://www.w3.org/2000/svg" xmlns:xlink="http://www.w3.org/1999/xlink"><linearGradient id="a"><stop stop-color="#4d4d4d" offset="0"/><stop stop-color="#7f8c8d" offset="1"/></linearGradient><linearGradient id="b" x1="17.304" x2="17.304" y1="285" y2="257" gradientUnits="userSpaceOnUse" xlink:href="#a"/><linearGradient id="c" x1="24" x2="24" y1="294" y2="257" gradientTransform="matrix(1 0 0 .97619 0 6)" gradientUnits="userSpaceOnUse"><stop stop-color="#1d99f3" offset="0"/><stop stop-color="#3daee9" offset="1"/></linearGradient><linearGradient id="d" x1="24.183" x2="24.183" y1="285" y2="257" gradientUnits="userSpaceOnUse" xlink:href="#a"/><linearGradient id="e" x1="29.588" x2="29.588" y1="281.12" y2="290.74" gradientTransform="matrix(.9995 0 0 .99938 -5.1286 -248.82)" gradientUnits="userSpaceOnUse"><stop stop-opacity=".2" offset="0"/><stop stop-color="#fff" stop-opacity="0" offset="1"/></linearGradient><linearGradient id="f"><stop stop-color="#232629" offset="0"/><stop stop-color="#31363b" offset="1"/></linearGradient><linearGradient id="g" x1="32.114" x2="32.114" y1="263.1" y2="271.95" gradientUnits="userSpaceOnUse" xlink:href="#f"/><linearGradient id="h" x1="32.114" x2="32.114" y1="263.1" y2="271.95" gradientUnits="userSpaceOnUse" xlink:href="#f"/><linearGradient id="i" x1="90.319" x2="120.34" y1="-162.8" y2="139.84" gradientTransform="matrix(.26445 0 0 .26442 .022498 .028116)" gradientUnits="userSpaceOnUse"><stop stop-color="#2980b9" offset="0"/><stop stop-color="#3daee9" stop-opacity="0" offset="1"/></linearGradient><linearGradient id="j" x1="24" x2="24" y1="294" y2="257" gradientTransform="matrix(1 0 0 .97619 0 6)" gradientUnits="userSpaceOnUse"><stop stop-color="#27ae60" offset="0"/><stop stop-color="#2ecc71" offset="1"/></linearGradient><g transform="matrix(.26445 0 0 .26442 .005953 -65.833)"><rect x="3.9795" y="253.97" width="40.02" height="39.024" rx="6.0038" fill="#34495e"/><path transform="matrix(1.0005 0 0 1.0006 -.02251 248.97)" d="m10 4c-3.3244 0-6 2.676-6 6v27c0 3.324 2.6756 6 6 6h28c3.3244 0 6-2.676 6-6v-27c0-3.324-2.6756-6-6-6z" fill="#34495e" stroke-width=".99944"/><rect x="3.9795" y="252.97" width="40.02" height="39.024" rx="6.0038" fill="url(#c)"/><path transform="matrix(1.0005 0 0 1.0006 -.02251 248.97)" d="m30.99 5.0039v8.9941l-4.998-4.9961v9.9941l-10.994-10.994v8.9961l-4.998-4.998v1l-2-2v12.373c15.047-1.5233 24.188-4.8263 35.982-6.0371v-6.7734c0-0.37609-0.03793-0.74304-0.10352-1.0996l-3.8984-3.8984 0.0039 8.4336z" fill="url(#i)" stroke-width=".26444"/><path transform="matrix(1.0005 0 0 1.0006 -.02251 248.97)" d="m29.986 5.0039v2h-0.99805v6.9941h-3v-4.9961h-1.998v1h-1v3.9961h-4.998l-1.998-1.998v-1l-1-0.99805v-2h-1.998v1h-1v4.9961l-2 2v-3.998h-1.998v-1h-2.998l-1 1v24.006h40v-24.006h-2.0195v-1.998h-1.998l-0.00586-4.4375-3.9961 3.998 0.003906 2.4375h-2v-1l-1.998-1.998v-1.998h-1v-2z" fill="#2980b9" stroke-width=".99944"/><path d="m7 257h6v16.816h-6z" fill="none"/><path d="m20.304 282.02a3 3 0 0 1-2.9947 3 3 3 0 0 1-3.0053-2.9894 3 3 0 0 1 2.984-3.0106 3 3 0 0 1 3.0159 2.9787" fill="url(#b)"/><path d="m3.9795 286c0.00212 3.3242 2.6782 5.9998 6.003 5.9998h28.014c3.3248 0 6.0009-2.6756 6.003-5.9998z" fill="url(#j)" stroke-width=".26458"/><path transform="matrix(1.0005 0 0 1.0006 -.02251 248.97)" d="m44 29.633-24.957 0.39844-13.348 1.1758 10.531 10.531h21.879c0.77068-0.8581 3.8969-1.9162 5.6602-3.0859 0.1494-0.52529 0.23438-1.0779 0.23438-1.6523z" fill="url(#e)" stroke-width=".99944"/><path d="m27.183 282.02a3 3 0 0 1-2.9947 3 3 3 0 0 1-3.0053-2.9894 3 3 0 0 1 2.984-3.0106 3 3 0 0 1 3.0159 2.9787" fill="url(#d)"/><path d="m32.016 254.91a0.50005 0.50005 0 0 0-0.27148 0.0762l-6 3.582a0.50005 0.50005 0 0 0 0.08594 0.90039l11 4a0.50043 0.50043 0 1 0 0.33984-0.9414l-10.01-3.6406 5.0957-3.043a0.50005 0.50005 0 0 0-0.24023-0.93359z" fill="#2c3e50"/><g transform="matrix(1.0005 0 0 1.0006 -.02251 248.97)"><path d="m24.211 12.02-0.0059 0.0039a7.91 7.9091 0 0 0-0.03711-2e-3 7.91 7.9091 0 0 0-5.3223 2.1074l-0.01953 0.0078-13.197 11.672 0.00195 2e-3a3.5291 3.5286 0 0 0-1.2266 2.6816 3.5291 3.5286 0 0 0 3.5293 3.5156h36.066v-19.986z" fill="#bdc3c7" stroke-width=".26444"/><path d="m24.211 12.02-0.0059 0.0039a7.91 7.9091 0 0 0-0.03711-2e-3 7.91 7.9091 0 0 0-5.3223 2.1074l-0.01953 0.0078-13.197 11.672 0.00195 2e-3a3.5291 3.5286 0 0 0-1.1875 2.1641 3.5291 3.5286 0 0 0 3.4902 3.0332v2e-3h36.066v-18.988z" fill="#fdfdfd" stroke-width=".26444"/><path d="m6.6758 5c-0.42463 0.28215-0.80578 0.62161-1.1445 1h36.938c-0.33875-0.37839-0.7199-0.71785-1.1445-1h-22.658z" fill="#34495e" stroke-width=".99944"/></g><path transform="matrix(1.0005 0 0 1.0006 -.02251 248.97)" d="m7.6582 24.014-2.0293 1.7949 0.00195 2e-3a3.5291 3.5286 0 0 0-0.90039 1.2012c13.151-2e-5 26.279-1.9e-5 39.27 0v-2.998c-12.073-9e-6 -24.056-1e-5 -36.342 0z" fill="#da4453" stroke-width=".26444"/><g fill="#34495e"><path d="m17.814 269.59a1.4123 1.4123 0 0 1-1.4098 1.4123 1.4123 1.4123 0 0 1-1.4148-1.4073 1.4123 1.4123 0 0 1 1.4048-1.4173 1.4123 1.4123 0 0 1 1.4198 1.4023"/><rect transform="matrix(1 1.473e-5 0 1 0 0)" x="22.915" y="263" width="8.0848" height="7.9999" ry=".99988"/><path transform="matrix(1 3.02e-6 0 1 0 0)" d="m16.401 268.18h12.599v2.8246h-12.599z"/><path d="m15.479 268.52 5.2813-4.6714 2.1552-0.8469s0.44199 1.9289 0.57266 2.509-0.18739 3.3678-0.18739 3.3678l-6.4546 0.87932z"/><path d="m26.081 266.17a3.1656 3.1656 0 0 1-3.16 3.1656 3.1656 3.1656 0 0 1-3.1712-3.1544 3.1656 3.1656 0 0 1 3.1488-3.1768 3.1656 3.1656 0 0 1 3.1823 3.1431"/><path d="m23 263h3v1h-3z"/></g><path d="m34 263c-0.554 0-1.0005 0.44662-1.0005 1.0006v5.9998c0 0.554 0.4465 0.99867 1.0005 0.99867h9.9991v-7.9991z" fill="#34495e" stroke-width=".26458"/><path d="m34 264c-0.554 0-1.0005 0.44467-1.0005 0.99867v5.0012c0 0.554 0.4465 0.99867 1.0005 0.99867h9.9991v-6.9985z" fill="url(#g)" stroke-width=".26458"/><g transform="matrix(.93686 0 0 .875 1.9575 33.875)" fill="url(#h)"><path d="m17.814 269.59a1.4123 1.4123 0 0 1-1.4098 1.4123 1.4123 1.4123 0 0 1-1.4148-1.4073 1.4123 1.4123 0 0 1 1.4048-1.4173 1.4123 1.4123 0 0 1 1.4198 1.4023"/><rect transform="matrix(1 1.473e-5 0 1 0 0)" x="22.915" y="263" width="8.0848" height="7.9999" ry=".99988"/><path transform="matrix(1 3.02e-6 0 1 0 0)" d="m16.401 268.18h12.599v2.8246h-12.599z"/><path d="m15.479 268.52 5.2813-4.6714 2.1552-0.8469s0.44199 1.9289 0.57266 2.509-0.18739 3.3678-0.18739 3.3678l-6.4546 0.87932z"/><path d="m26.081 266.17a3.1656 3.1656 0 0 1-3.16 3.1656 3.1656 3.1656 0 0 1-3.1712-3.1544 3.1656 3.1656 0 0 1 3.1488-3.1768 3.1656 3.1656 0 0 1 3.1823 3.1431"/><path d="m23 263h3v1h-3z"/></g><path d="m3.9794912 285.00024v.99477c0 .34307.035138.67748.089889 1.00453h39.84023c.05475-.32705.08989-.66146.08989-1.00453v-.99477z" fill="#34495e"/><path d="m3.9795 285v0.99477c0 2e-3 -2e-6 4e-3 0 6e-3h40.02c2e-6 -2e-3 0-4e-3 0-6e-3v-0.99477z" fill="#3daee9"/><path d="m29 254.91602a.50005.50005 0 1 0 0 1h5a.50005.50005 0 1 0 0-1z" fill="#233240"/></g></svg>
