<?xml version="1.0" encoding="UTF-8"?>
<svg id="b" enable-background="new" version="1.0" viewBox="0 0 128 128" xmlns="http://www.w3.org/2000/svg" xmlns:xlink="http://www.w3.org/1999/xlink"><title id="c">Adwaita Icon Template</title><defs id="d"><linearGradient id="a" x1="42.255" x2="57.308" y1="61.665" y2="78.072" gradientTransform="translate(-.56114 -.64855)" gradientUnits="userSpaceOnUse"><stop id="e" stop-color="#fbfcfc" offset="0"/><stop id="f" stop-color="#00aade" offset="1"/></linearGradient></defs><rect id="g" x="31" y="21" width="90" height="70" rx="6.9231" ry="5.6" enable-background="new" fill="#006888" style="paint-order:normal"/><rect id="h" x="7" y="41" width="90" height="70" rx="6.9231" ry="5.6" enable-background="new" fill="#d2d8dc" style="paint-order:normal"/><rect id="i" x="19" y="31" width="90" height="70" rx="6.9231" ry="5.6" enable-background="new" fill="#00aade" style="paint-order:normal"/><rect id="j" x="31" y="17" width="90" height="70" rx="6.9231" ry="5.6" enable-background="new" fill="#00aade" style="paint-order:normal"/><rect id="k" x="19" y="27" width="90" height="70" rx="6.9231" ry="5.6" enable-background="new" fill="#6acfec" style="paint-order:normal"/><rect id="l" x="7" y="37" width="90" height="70" rx="6.9231" ry="5.6" enable-background="new" fill="#f1f3f5" style="paint-order:normal"/><path id="m" d="m67.609 61.674-9.6838 10.067 9.9235 10.547-6.328 6.3759-9.5399-11.074-9.492 11.41-6.328-6.4239 10.445-10.462-9.6475-10.281 7.1323-6.8389 8.6911 10.75 8.4034-10.409z" fill="url(#a)" fill-rule="evenodd" stroke="#00aade" stroke-linejoin="miter" stroke-width="1px"/></svg>
