<?xml version="1.0" encoding="UTF-8"?>
<svg width="48" height="48" viewBox="0 0 12.7 12.7" xml:space="preserve" xmlns="http://www.w3.org/2000/svg" xmlns:xlink="http://www.w3.org/1999/xlink"><defs><linearGradient id="c"><stop stop-color="#dc8689" offset="0"/><stop stop-color="#d56062" offset="1"/></linearGradient><linearGradient id="e" x1="6.0854" x2="6.0854" y1="6.35" y2="11.377" gradientUnits="userSpaceOnUse"><stop stop-color="#c0392b" offset="0"/><stop stop-color="#c0392b" stop-opacity="0" offset="1"/></linearGradient><linearGradient id="d" x1="6.6146" x2="6.6146" y1="6.2178" y2="1.0583" gradientTransform="translate(0 -.15143)" gradientUnits="userSpaceOnUse"><stop stop-color="#da4453" offset="0"/><stop stop-color="#e74c3c" offset="1"/></linearGradient><linearGradient id="g" x1="10.584" x2="11.642" y1="6.084" y2="6.0854" gradientUnits="userSpaceOnUse" xlink:href="#c"/><linearGradient id="f" x1="1.0583" x2="2.3812" y1="6.0854" y2="6.0854" gradientTransform="translate(-3.4396)" gradientUnits="userSpaceOnUse" xlink:href="#c"/></defs><rect x="1.0584" y="1.0583" width="10.583" height="10.583" rx="1.5875" ry="1.5875" fill="#a83226" paint-order="stroke fill markers"/><rect x="1.0584" y=".90687" width="10.583" height="10.319" rx="1.5875" ry="1.5875" fill="url(#d)" paint-order="stroke fill markers"/><circle cx="6.35" cy="6.3441" r="3.9747" fill="none" stroke="#a83226" stroke-linecap="square" stroke-width=".51752"/><path d="M1.05885 6.08542v3.83645c0 .87947.70803 1.5875 1.5875 1.5875h7.40782c.87946 0 1.5875-.70803 1.5875-1.5875V6.08542Z" fill="url(#e)" paint-order="stroke fill markers"/><path d="M1.05833 6.08542v.52916h2.51355a.132.132 0 0 0 .13229-.13229v-.26458a.132.132 0 0 0-.1323-.1323H1.05834z" fill="#ad3327"/><path d="M9.6578 6.08542a.132.132 0 0 0-.13228.13229v.26458a.132.132 0 0 0 .13229.1323h1.98386v-.52917Z" fill="#ac3327"/><circle cx="6.3499" cy="6.0664" r="3.9747" fill="none" stroke="#dc8689" stroke-linecap="square" stroke-width=".51752"/><g transform="translate(-.52917 -.26458)" fill="#ad3327"><rect x="4.4979" y="6.35" width=".52917" height=".52917" rx=".13229" ry=".13229"/><rect x="5.2917" y="4.4979" width=".52917" height="4.7625" rx=".13229" ry=".13229"/><rect x="6.0854" y="5.0271" width=".52917" height="3.7042" rx=".13229" ry=".13229"/><rect x="6.8792" y="5.5562" width=".52917" height="2.6458" rx=".13229" ry=".13229"/><rect x="7.6729" y="6.0854" width=".52917" height="1.5875" rx=".13229" ry=".13229"/></g><path d="M7.9375 6.489v.27958c0 .06128.059.11059.1323.11059h.26458c.07328 0 .13229-.0493.13229-.1106v-.27956c-.00353.0701-.0613.12557-.1323.12557H8.0698c-.071 0-.12876-.05548-.13229-.12557z" fill="#a83226"/><path d="M8.73125 6.22443V6.504c0 .06128.059.11058.1323.11058h.26458c.07328 0 .13229-.0493.13229-.11058v-.27957c-.00353.07009-.0613.12557-.1323.12557h-.26458c-.071 0-.12876-.05548-.13229-.12557z" fill="#ad3327"/><rect x="3.9688" y="5.8208" width=".52917" height=".52917" rx=".13229" ry=".13229" fill="#f0b4ba"/><rect x="4.7625" y="3.4396" width=".52917" height="5.2917" rx=".13229" ry=".13229" fill="#fff"/><rect x="5.5562" y="3.9688" width=".52917" height="4.2333" rx=".13229" ry=".13229" fill="#fff"/><rect x="6.35" y="4.4979" width=".52917" height="3.175" rx=".13229" ry=".13229" fill="#fff"/><rect x="7.1438" y="5.0271" width=".52917" height="2.1167" rx=".13229" ry=".13229" fill="#fff"/><rect x="7.9375" y="5.5562" width=".52917" height="1.0583" rx=".13229" ry=".13229" fill="#fff"/><path d="M2.38125 5.82083V6.35h1.19063a.132.132 0 0 0 .13229-.1323v-.26457a.132.132 0 0 0-.1323-.1323z" fill="#dc8689"/><rect transform="translate(-.52917 -.26458)" x="9.2604" y="6.0854" width=".52917" height=".52917" rx=".13229" ry=".13229" fill="#f0b4ba"/><path d="M9.6573 5.82083a.132.132 0 0 0-.1323.1323v.26458a.132.132 0 0 0 .1323.13229h.66145v-.52917Z" fill="#dc8689"/><rect transform="scale(-1 1)" x="-2.3812" y="5.8208" width="1.3229" height=".52917" rx="0" ry="0" fill="url(#f)"/><rect x="10.319" y="5.8208" width="1.3229" height=".52917" rx="0" ry="0" fill="url(#g)"/></svg>
