<?xml version="1.0" encoding="UTF-8"?>
<svg id="c" version="1.1" viewBox="0 0 64 64" xmlns="http://www.w3.org/2000/svg" xmlns:xlink="http://www.w3.org/1999/xlink"><defs id="d"><linearGradient id="b" x1="-206.7" x2="-211.4" y1="68.842" y2="7.7114" gradientUnits="userSpaceOnUse"><stop id="e" stop-color="#a40000" offset="0"/><stop id="f" stop-color="#ef2929" offset="1"/></linearGradient><linearGradient id="a" x1="-146.74" x2="-157.32" y1="58.262" y2="26.521" gradientTransform="matrix(1.0094 0 0 1.0094 -20.308 3.726)" gradientUnits="userSpaceOnUse"><stop id="g" stop-color="#204a87" offset="0"/><stop id="h" stop-color="#729fcf" offset="1"/></linearGradient></defs><g id="i"><g id="j" transform="translate(-6e-6 -.36364)"><g id="k" transform="matrix(.85064 0 0 .85064 187.83 -.196)" stroke-miterlimit="4"><path id="l" d="m-159.15 27.763-7.2663 4.1689-3.2087-1.1135-3.0614-7.824-4.8157 0.25307-2.1966 8.0905-3.0742 1.4722-7.6677-3.3542-3.2386 3.5989 4.1689 7.2663-1.1392 3.1993-7.824 3.0614 0.27879 4.8251 8.0905 2.1966 1.4722 3.0742-3.3799 7.6583 3.5989 3.2386 7.2663-4.1689 3.2251 1.1486 3.0357 7.8146 4.8508-0.2694 2.1709-8.0999 3.0742-1.4722 7.684 3.3893 3.2386-3.5989-4.1689-7.2663 1.1229-3.2344 7.8146-3.0357-0.24366-4.8415-8.0999-2.1709-1.4722-3.0742 3.3636-7.6934-3.5989-3.2386zm-10.883 11.916 1.4916 0.86546 1.2923 1.1717 1.0346 1.3983 0.74426 1.5547 0.43759 1.6759 0.0725 1.7175-0.24807 1.7171-0.56614 1.6301-0.90058 1.5079-1.1366 1.276-1.3983 1.0346-1.5547 0.74426-1.6759 0.43758-1.7269 0.09823-1.7171-0.24806-1.6301-0.56615-1.5079-0.90058-1.2666-1.1623-1.044-1.3726-0.74428-1.5547-0.42818-1.7017-0.0982-1.7269 0.24806-1.7171 0.56616-1.6301 0.89118-1.4822 1.146-1.3017 1.3983-1.0346 1.5547-0.74426 1.7016-0.42818 1.7175-0.0725 1.7171 0.24805 1.6301 0.56615z" enable-background="accumulate" fill="url(#a)" fill-rule="evenodd" stroke="#000137" stroke-linecap="round" stroke-linejoin="round" stroke-width="2.3512"/><path id="m" d="m-159.41 30.604-6.7821 3.8852-5.1136-1.8387-2.9776-7.2111-1.4392 0.07782-2.0715 7.5844-4.9919 2.2766-7.0697-3.0725-0.94649 1.0835 3.9041 6.8576-1.9565 5.0106-7.1355 2.8454 0.0822 1.5317 7.5278 2.063 2.3333 4.9919-3.1147 7.0612 1.0457 0.9087 6.7065-3.8286 5.3928 1.8894 2.6521 7.1648 1.4417-0.01704 2.0964-7.5363 4.8974-2.4466 7.3867 3.161 0.88982-0.95126-3.9041-6.6876 1.6772-5.2502 7.3348-2.9166-0.0504-1.5087-7.4418-1.9074-2.4655-5.0485 3.1188-7.2252z" enable-background="accumulate" fill="none" stroke="#729fcf" stroke-linecap="round" stroke-linejoin="round" stroke-width="2.3512"/><path id="n" transform="matrix(1.2976 0 0 1.2976 -227.2 -4.4101)" d="m49.851 40.103c0 4.8017-3.8925 8.6942-8.6942 8.6942s-8.6942-3.8925-8.6942-8.6942c0-4.8017 3.8925-8.6942 8.6942-8.6942s8.6942 3.8925 8.6942 8.6942z" fill="none" stroke="#729fcf" stroke-dashoffset="6" stroke-linecap="round" stroke-linejoin="round" stroke-width="1.812"/><path id="o" d="m-217.28 4.1847 1e-5 68.184 14.107-2e-6v-28.214h14.107v-14.107h-14.107v-11.756h23.512v-14.107z" enable-background="accumulate" fill="url(#b)" fill-rule="evenodd" stroke="#280000" stroke-linejoin="miter" stroke-width="2.3512"/><path id="p" d="m-214.93 6.5358v63.482h9.4047v-28.214h14.107v-9.4047h-14.107v-16.458h23.512v-9.4047z" enable-background="accumulate" fill="none" stroke="#ef2929" stroke-linejoin="miter" stroke-width="2.3512"/></g></g></g></svg>
