<?xml version="1.0" encoding="UTF-8"?>
<svg viewBox="0 0 48 48" xmlns="http://www.w3.org/2000/svg" xmlns:xlink="http://www.w3.org/1999/xlink"><linearGradient id="a"><stop stop-opacity=".2" offset="0"/><stop stop-opacity="0" offset="1"/></linearGradient><linearGradient id="b" x1="1.1429" x2="1.1429" y1="55.429" y2="-1.7143" gradientUnits="userSpaceOnUse"><stop stop-color="#bfc0c1" offset="0"/><stop stop-color="#eff0f1" offset="1"/></linearGradient><linearGradient id="c" x1="24" x2="24" y1="41" y2="-3" gradientUnits="userSpaceOnUse"><stop stop-color="#f47750" offset="0"/><stop stop-color="#fdbc4b" offset="1"/></linearGradient><linearGradient id="d" x1="9" x2="24" y1="9" y2="24" gradientUnits="userSpaceOnUse" xlink:href="#a"/><linearGradient id="e" x1="9" x2="16" y1="29" y2="44" gradientUnits="userSpaceOnUse" xlink:href="#a"/><linearGradient id="f" x1="23" x2="41" y1="16" y2="26" gradientUnits="userSpaceOnUse" xlink:href="#a"/><rect x="4" y="4" width="40" height="40" rx="5.7143" fill="url(#b)" stroke-miterlimit="0" stroke-width=".35996"/><path d="m19 29-10 10 5 5h12l-2-10z" fill="url(#e)"/><path d="m19 9-10 10 15 15v-20z" fill="url(#d)"/><path d="m40.56 8.44-15.68 31.68 3.88 3.88h15.24v-32.12z" fill="url(#f)"/><g stroke-miterlimit="0"><circle cx="14" cy="14" r="7.07" fill="#fcfcfc" stroke-width=".18898"/><path d="m14 6.9297a7.07 7.07 0 0 0-7.0703 7.0703 7.07 7.07 0 0 0 0.017578 0.49414 7.07 7.07 0 0 1 7.0527-6.5645 7.07 7.07 0 0 1 7.0527 6.5762 7.07 7.07 0 0 0 0.017578-0.50586 7.07 7.07 0 0 0-7.0703-7.0703z" fill="#fff" stroke-width=".18898"/><path d="m13 10v3h-3v2h3v3h2v-3h3v-2h-3v-3z" fill="#45443f" stroke-width=".43642"/><path d="m7.002 13.996a7.07 7.07 0 0 0-0.072266 1.0039 7.07 7.07 0 0 0 7.0703 7.0703 7.07 7.07 0 0 0 7.0703-7.0703 7.07 7.07 0 0 0-0.072265-0.99609 7.07 7.07 0 0 1-6.998 6.0664 7.07 7.07 0 0 1-6.998-6.0742z" opacity=".1" stroke-width=".18898"/><g transform="translate(.000313 20)"><circle cx="14" cy="14" r="7.07" fill="#fcfcfc" stroke-width=".18898"/><path d="m14 6.93a7.07 7.07 0 0 0-7.0703 7.0703 7.07 7.07 0 0 0 0.017578 0.49414 7.07 7.07 0 0 1 7.0527-6.5645 7.07 7.07 0 0 1 7.0527 6.5762 7.07 7.07 0 0 0 0.017578-0.50586 7.07 7.07 0 0 0-7.0703-7.0703z" fill="#fff" stroke-width=".18898"/><path transform="translate(-.000313 -20)" d="m10 33v2h8v-2z" fill="#45443f" stroke-width=".43642"/><path d="m7.002 13.996a7.07 7.07 0 0 0-0.072266 1.0039 7.07 7.07 0 0 0 7.0703 7.0703 7.07 7.07 0 0 0 7.0703-7.0703 7.07 7.07 0 0 0-0.072265-0.99609 7.07 7.07 0 0 1-6.998 6.0664 7.07 7.07 0 0 1-6.998-6.0742z" opacity=".1" stroke-width=".18898"/></g><g stroke-width=".38958"><rect x="24" y="7" width="17" height="34" rx="3" ry="3.1875" fill="url(#c)"/><path d="m24 36.812v2c0 1.7659 1.338 3.1875 3 3.1875h11c1.662 0 3-1.4216 3-3.1875v-2c0 1.7659-1.338 3.1875-3 3.1875h-11c-1.662 0-3-1.4216-3-3.1875z" opacity=".1"/><path d="m27 7c-1.662 0-3 1.4216-3 3.1875v1c0-1.7659 1.338-3.1875 3-3.1875h11c1.662 0 3 1.4216 3 3.1875v-1c0-1.7659-1.338-3.1875-3-3.1875z" fill="#fdbc4b"/></g><path d="m4 37.285v1c0 3.1657 2.5491 5.7148 5.7148 5.7148h28.57c3.1657 0 5.7148-2.5491 5.7148-5.7148v-1c0 3.1657-2.5491 5.7148-5.7148 5.7148h-28.57c-3.1657 0-5.7148-2.5491-5.7148-5.7148z" fill="#979c9f" opacity=".5" stroke-width=".35996"/><g stroke-width=".40824"><path d="m29 22v2h7v-2zm0 4v2h7v-2z" fill="#fcfcfc" opacity=".2"/><path d="m29 21v2h7v-2zm0 4v2h7v-2z" fill="#45443f"/></g></g></svg>
