<?xml version="1.0" encoding="UTF-8"?>
<svg id="d" enable-background="new" version="1.0" viewBox="0 0 128 128" xmlns="http://www.w3.org/2000/svg" xmlns:xlink="http://www.w3.org/1999/xlink"><title id="e">Adwaita Icon Template</title><defs id="f"><linearGradient id="b" x1="48" x2="464" y1="44" y2="44" gradientUnits="userSpaceOnUse"><stop id="g" stop-color="#77767b" offset="0"/><stop id="h" stop-color="#c0bfbc" offset=".05"/><stop id="i" stop-color="#9a9996" offset=".1"/><stop id="j" stop-color="#9a9996" offset=".9"/><stop id="k" stop-color="#c0bfbc" offset=".95"/><stop id="l" stop-color="#77767b" offset="1"/></linearGradient><radialGradient id="a" cx="64" cy="194.19" r="44" gradientTransform="matrix(-4.7273 7.9359e-7 -3.0301e-7 -1.6364 238.55 49.766)" gradientUnits="userSpaceOnUse"><stop id="m" stop-color="#fff" offset="0"/><stop id="n" stop-color="#fff" stop-opacity=".094118" offset="1"/></radialGradient><linearGradient id="c" x1="70.347" x2="70.347" y1="245.4" y2="269.14" gradientUnits="userSpaceOnUse"><stop id="o" stop-color="#2d2839" offset="0"/><stop id="p" stop-color="#282433" offset="1"/></linearGradient></defs><g id="q" transform="translate(0,-172)"><g id="r"><rect id="s" transform="matrix(.25 0 0 .25 0 225)" x="48" y="-124" width="416" height="376" rx="32" ry="32" enable-background="new" fill="url(#b)" style="paint-order:normal"/><rect id="t" transform="matrix(.25 0 0 .25 0 225)" x="48" y="-164" width="416" height="384" rx="32" ry="32" enable-background="new" fill="#deddda" style="paint-order:normal"/><rect id="u" transform="scale(1,-1)" x="16" y="-276" width="96" height="88" rx="4" ry="4" enable-background="new" fill="#241f31" style="paint-order:normal"/><rect id="v" transform="scale(-1)" x="-108" y="-272" width="88" height="78" enable-background="new" fill="url(#a)" opacity=".05" style="paint-order:normal"/><g id="w" transform="translate(-2,-2)" fill="#fff"><path id="x" d="m44.012 210.89-14.012-7.6157v4.7282l9.7107 4.6295v0.1422l-9.7107 5.2283v4.7282l14.012-8.2145z" style="font-feature-settings:normal;font-variant-caps:normal;font-variant-ligatures:normal;font-variant-numeric:normal"/><path id="y" d="m48 226 2e-6 4h16l-2e-6 -4z" style="font-feature-settings:normal;font-variant-caps:normal;font-variant-ligatures:normal;font-variant-numeric:normal"/></g><path id="z" d="m100 244h4v4h-4zm-8 0h4v4h-4zm-8 0h4v4h-4zm-8 0h4v4h-4zm-8 0h4v4h-4zm-8 0h4v4h-4zm-8 0h4v4h-4zm-8 0h4v4h-4zm-8 0h4v4h-4zm-8 0h4v4h-4zm-8 0h4v4h-4zm84 4h4v4h-4zm-8 0h4v4h-4zm-8 0h4v4h-4zm-8 0h4v4h-4zm-8 0h4v4h-4zm-8 0h4v4h-4zm-8 0h4v4h-4zm-8 0h4v4h-4zm-8 0h4v4h-4zm-8 0h4v4h-4zm-8 0h4v4h-4zm76 4h4v4h-4zm-8 0h4v4h-4zm-8 0h4v4h-4zm-8 0h4v4h-4zm-8 0h4v4h-4zm-8 0h4v4h-4zm-8 0h4v4h-4zm-8 0h4v4h-4zm-8 0h4v4h-4zm-8 0h4v4h-4zm-8 0h4v4h-4zm84 4h4v4h-4zm-8 0h4v4h-4zm-8 0h4v4h-4zm-8 0h4v4h-4zm-8 0h4v4h-4zm-8 0h4v4h-4zm-8 0h4v4h-4zm-8 0h4v4h-4zm-8 0h4v4h-4zm-8 0h4v4h-4zm-8 0h4v4h-4zm76 4h4v4h-4zm-8 0h4v4h-4zm-8 0h4v4h-4zm-8 0h4v4h-4zm-8 0h4v4h-4zm-8 0h4v4h-4zm-8 0h4v4h-4zm-8 0h4v4h-4zm-8 0h4v4h-4zm-8 0h4v4h-4zm-8 0h4v4h-4zm84 4h4v4h-4zm-8 0h4v4h-4zm-8 0h4v4h-4zm-8 0h4v4h-4zm-8 0h4v4h-4zm-8 0h4v4h-4zm-8 0h4v4h-4zm-8 0h4v4h-4zm-8 0h4v4h-4zm-8 0h4v4h-4zm-8 0h4v4h-4zm76 4h4v4h-4zm-8 0h4v4h-4zm-8 0h4v4h-4zm-8 0h4v4h-4zm-8 0h4v4h-4zm-8 0h4v4h-4zm-8 0h4v4h-4zm-8 0h4v4h-4zm-8 0h4v4h-4zm-8 0h4v4h-4zm-8 0h4v4h-4z" fill="url(#c)" style="paint-order:normal"/></g></g></svg>
