<?xml version="1.0" encoding="UTF-8"?>
<svg id="f" enable-background="new" version="1.0" viewBox="0 0 128 128" xmlns="http://www.w3.org/2000/svg" xmlns:xlink="http://www.w3.org/1999/xlink"><title id="g">Adwaita Icon Template</title><defs id="h"><clipPath id="i"><rect id="j" x="160" y="-188" width="16" height="56" rx="8" ry="8" enable-background="new" fill="none" stroke="#000" style="paint-order:normal"/></clipPath><linearGradient id="a" x1="28" x2="116" y1="-276" y2="-276" gradientTransform="translate(-136)" gradientUnits="userSpaceOnUse"><stop id="k" stop-color="#c0bfbc" offset="0"/><stop id="l" stop-color="#fff" offset=".045455"/><stop id="m" stop-color="#deddda" offset=".090909"/><stop id="n" stop-color="#deddda" offset=".90909"/><stop id="o" stop-color="#fff" offset=".95455"/><stop id="p" stop-color="#c0bfbc" offset="1"/></linearGradient><linearGradient id="c" x1="128.82" x2="158.52" y1="-97.698" y2="-127.4" gradientTransform="matrix(.076212 -.4442 .4442 -.076212 77.726 331.84)" gradientUnits="userSpaceOnUse"><stop id="q" stop-color="#d0bb8e" offset="0"/><stop id="r" stop-color="#fff" offset="1"/></linearGradient><clipPath id="d"><path id="s" d="m252 116 28-28v-8h-36v36z" fill="#e74747"/></clipPath><linearGradient id="b" x1="344" x2="340" y1="76" y2="72" gradientTransform="matrix(.25 0 0 .25 180 83)" gradientUnits="userSpaceOnUse"><stop id="t" stop-color="#d5d3cf" offset="0"/><stop id="u" stop-color="#fff" offset="1"/></linearGradient><clipPath id="e"><rect id="v" transform="scale(-1)" x="-108" y="-116" width="88" height="108" rx="8" ry="8" fill="#f6f5f4" style="paint-order:normal"/></clipPath></defs><g id="w" transform="translate(0,-172)"><g id="x" display="none"><g id="y" display="inline" enable-background="new"><rect id="z" x="9.2651e-8" y="172" width="128" height="128" display="inline" enable-background="accumulate" fill="#f0f0f0"/><circle id="aa" cx="64" cy="236" r="59.504" display="inline" enable-background="new" fill="none" opacity=".1" stroke="#000" stroke-dasharray="0.99, 0.99" stroke-width=".99" style="paint-order:normal"/><rect id="ab" x="20.495" y="180.49" width="87.01" height="111.01" rx="8.701" ry="7.9293" display="inline" enable-background="new" fill="none" opacity=".1" stroke="#000" stroke-dasharray="0.99, 0.99" stroke-width=".99" style="paint-order:normal"/><rect id="ac" x="12.495" y="184.5" width="103.01" height="103.01" rx="7.9238" ry="7.9238" display="inline" enable-background="new" fill="none" opacity=".1" stroke="#000" stroke-dasharray="0.99, 0.99" stroke-width=".99" style="paint-order:normal"/><rect id="ad" x="8.495" y="200.49" width="111.01" height="87.01" rx="7.9293" ry="8.701" display="inline" enable-background="new" fill="none" opacity=".1" stroke="#000" stroke-dasharray="0.99, 0.99" stroke-width=".99" style="paint-order:normal"/><path id="ae" d="m2.6203e-5 289h128" display="inline" enable-background="new" fill="none" stroke="#62a0ea" stroke-width="2"/></g></g><g id="af"><rect id="ag" transform="scale(-1)" x="-108" y="-294" width="88" height="30.25" rx="8" ry="8" fill="#26a269" style="paint-order:normal"/><rect id="ah" transform="scale(-1)" x="-108" y="-292" width="88" height="40" rx="8" ry="8" fill="url(#a)" style="paint-order:normal"/><rect id="ai" transform="scale(-1)" x="-108" y="-288" width="88" height="108" rx="8" ry="8" fill="#f6f5f4" style="paint-order:normal"/><g id="aj" transform="translate(-4,2)" fill="#d5d3cf"><path id="ak" d="m32 188c-1.1046 0-2 0.89543-2 2s0.89543 2 2 2 2-0.89543 2-2-0.89543-2-2-2zm8 0c-1.1046 0-2 0.89543-2 2s0.89543 2 2 2 2-0.89543 2-2-0.89543-2-2-2zm8 0c-1.1046 0-2 0.89543-2 2s0.89543 2 2 2 2-0.89543 2-2-0.89543-2-2-2zm8 0c-1.1046 0-2 0.89543-2 2s0.89543 2 2 2 2-0.89543 2-2-0.89543-2-2-2zm8 0c-1.1046 0-2 0.89543-2 2s0.89543 2 2 2 2-0.89543 2-2-0.89543-2-2-2zm8 0c-1.1046 0-2 0.89543-2 2s0.89543 2 2 2 2-0.89543 2-2-0.89543-2-2-2zm8 0c-1.1046 0-2 0.89543-2 2s0.89543 2 2 2 2-0.89543 2-2-0.89543-2-2-2zm8 0c-1.1046 0-2 0.89543-2 2s0.89543 2 2 2 2-0.89543 2-2-0.89543-2-2-2zm8 0c-1.1046 0-2 0.89543-2 2s0.89543 2 2 2 2-0.89543 2-2-0.89543-2-2-2z" enable-background="new"/><circle id="al" transform="scale(-1,1)" cx="-104" cy="190" r="2"/><path id="am" d="m112 192a2 2 0 0 1-1.732-1 2 2 0 0 1 0-2 2 2 0 0 1 1.732-1"/><path id="an" transform="scale(-1,1)" d="m-24 192a2 2 0 0 1-1.7321-1 2 2 0 0 1 0-2 2 2 0 0 1 1.7321-1" enable-background="new"/></g><rect id="ao" transform="matrix(0 .71429 .71429 0 25.143 88)" x="252" y="88" width="36" height="36" rx="11.2" ry="11.2" clip-path="url(#d)" enable-background="new" fill="url(#b)" style="paint-order:normal"/><path id="ap" transform="translate(0,172)" d="m100 16-68 68v20h22l68-68-7.8672-5.7617-0.0742-0.07227-8.2246-8.2246z" clip-path="url(#e)" opacity=".2" style="paint-order:normal"/><path id="aq" d="m32 276v-20l20 20z" fill="url(#c)" style="paint-order:normal"/><path id="ar" d="m32 276 4e-6 -8 8 8z" enable-background="new" fill="#424048" style="paint-order:normal"/><path id="as" d="m50 274-16-16 67.947-67.947 16 16z" enable-background="new" fill="#33d17a"/><path id="at" d="m37.888 261.89-5.8878-5.8878 68-68 5.8347 5.9408z" enable-background="new" fill="#8ff0a4"/><path id="au" d="m46.112 270.11 5.8878 5.8878 68-68-5.9408-5.8347z" enable-background="new" fill="#26a269"/><text id="av" transform="translate(18.783 3.6262)" fill="#424048" font-family="'Liberation Serif'" font-size="42.667px" style="font-variant-caps:normal;font-variant-east-asian:normal;font-variant-ligatures:normal;font-variant-numeric:normal;line-height:1.25;shape-inside:url(#rect888);white-space:pre" xml:space="preserve"><tspan x="11.550781" y="226.3113"><tspan fill="#424048" font-family="'Liberation Serif'" font-size="42.667px" style="font-variant-caps:normal;font-variant-east-asian:normal;font-variant-ligatures:normal;font-variant-numeric:normal">Σ</tspan></tspan></text></g></g></svg>
