<?xml version="1.0" encoding="UTF-8"?>
<svg id="a" enable-background="new" version="1.0" viewBox="0 0 16 16" xmlns="http://www.w3.org/2000/svg"><title id="b">Adwaita Icon Template</title><g id="c" transform="matrix(5 0 0 5 -2535.6 -1734)" enable-background="new"><rect id="d" x="507.31" y="347" width="3" height="3" rx=".225" ry=".31579" enable-background="new" fill="#f1f3f5" style="paint-order:normal"/><path id="e" d="m508.71 350v-1.6h-1.6v1.344c0 0.14183 0.10978 0.25601 0.24616 0.25601z" enable-background="new" fill="#d2d8dc" style="paint-order:normal"/><path id="f" d="m507.36 346.8c-0.13636 0-0.24615 0.11417-0.24615 0.256v1.344h1.6v-1.6z" enable-background="new" fill="#00aade" style="paint-order:normal"/><path id="g" d="m508.71 346.8v1.6h1.6v-1.344c0-0.14183-0.10978-0.25601-0.24616-0.25601z" enable-background="new" fill="#d2d8dc" style="paint-order:normal"/><path id="h" d="m508.71 346.9h-1.3015c-0.15868 5.4e-4 -0.20131 0.11904-0.19836 0.23806l-1.4e-4 1.2619" enable-background="new" fill="none" stroke="#00a1d1" stroke-linejoin="miter" stroke-width=".2"/><path id="i" d="m508.71 346.9h1.3076c0.15382 5.1e-4 0.19529 0.11539 0.19243 0.23076v1.2692" enable-background="new" fill="none" stroke="#bcc5ca" stroke-linejoin="miter" stroke-width=".2"/><path id="j" d="m508.71 349.9h-1.3076c-0.15382-9.7e-4 -0.19515-0.10977-0.19229-0.21952l-1.2e-4 -1.2805" enable-background="new" fill="none" stroke="#bcc5ca" stroke-linejoin="miter" stroke-width=".2"/><path id="k" d="m509.31 349v-0.4h0.2v0.4h0.4v0.2h-0.4v0.4h-0.2v-0.4h-0.4v-0.2z" enable-background="new" fill="#344958" fill-rule="evenodd"/><path id="l" d="m508.71 349.9h1.3076c0.15382-1e-3 0.19515-0.10976 0.19229-0.21951l-1.3e-4 -1.2805" enable-background="new" fill="none" stroke="#d2d8dc" stroke-linejoin="miter" stroke-width=".2"/></g></svg>
