<?xml version="1.0" encoding="UTF-8"?>
<svg id="b" enable-background="new" version="1.0" viewBox="0 0 16 16" xmlns="http://www.w3.org/2000/svg" xmlns:osb="http://www.openswatchbook.org/uri/2009/osb" xmlns:xlink="http://www.w3.org/1999/xlink"><title id="c">Adwaita Icon Template</title><defs id="d"><linearGradient id="a" x1="260.94" x2="276.94" y1="551.95" y2="551.95" gradientTransform="matrix(.93666 0 0 .92761 17.035 39.955)" gradientUnits="userSpaceOnUse"><stop id="e" stop-color="#f9da02" offset="0"/><stop id="f" stop-color="#dcb102" offset="1"/></linearGradient></defs><rect id="g" y="-112" width="0" height="0" fill="#00aade"/><path id="h" d="m128-72" fill="#f9da02" stroke="#000" stroke-linejoin="miter" stroke-width="1px"/><path id="i" d="m9.5002 14a1.5002 1.5002 0 0 1-1.4993 1.5002 1.5002 1.5002 0 0 1-1.5011-1.4985 1.5002 1.5002 0 0 1 1.4976-1.5019 1.5002 1.5002 0 0 1 1.5028 1.4968" enable-background="new" fill="#f9da02" stroke="#ad7702" stroke-miterlimit="4" stroke-width=".99958"/><g id="j" transform="translate(-260.94 -544.95)" enable-background="new"><rect id="k" transform="translate(241 217)" x="20" y="326" width="16" height="16" fill="none"/><path id="l" d="m268.94 545.46c-2.759 0-4.1589 1.7709-4.9955 4.7224l-1.2489 5.2283c-0.15184 0.6357-0.55914 1.1806-1.2489 1.1806v1.8552h14.987v-1.8552c-0.68974 0-1.097-0.5449-1.2489-1.1806l-1.2489-5.2283c-0.66231-2.9515-2.2366-4.7224-4.9955-4.7224z" fill="url(#a)" stroke="#ad7702" stroke-linejoin="miter" stroke-miterlimit="4" stroke-width="1.0135" style="paint-order:normal"/></g><path id="m" d="m1 11.5h14" fill="none" stroke="#ad7702" stroke-linejoin="miter" stroke-width="1px"/></svg>
