<?xml version="1.0" encoding="UTF-8"?>
<svg id="b" enable-background="new" version="1.0" viewBox="0 0 128 128" xmlns="http://www.w3.org/2000/svg" xmlns:xlink="http://www.w3.org/1999/xlink"><title id="c">Adwaita Icon Template</title><defs id="d"><linearGradient id="a" x1="69.432" x2="69.432" y1="59.292" y2="115.19" gradientTransform="matrix(1.1458 0 0 1.1458 -48.486 -14.147)" gradientUnits="userSpaceOnUse"><stop id="e" stop-color="#f9da02" offset="0"/><stop id="f" stop-color="#dcb102" offset="1"/></linearGradient></defs><rect id="g" x="31" y="21" width="90" height="70" rx="6.9231" ry="5.6" enable-background="new" fill="#006888" style="paint-order:normal"/><rect id="h" x="7" y="41" width="90" height="70" rx="6.9231" ry="5.6" enable-background="new" fill="#d2d8dc" style="paint-order:normal"/><rect id="i" x="19" y="31" width="90" height="70" rx="6.9231" ry="5.6" enable-background="new" fill="#00aade" style="paint-order:normal"/><rect id="j" x="31" y="17" width="90" height="70" rx="6.9231" ry="5.6" enable-background="new" fill="#00aade" style="paint-order:normal"/><rect id="k" x="19" y="27" width="90" height="70" rx="6.9231" ry="5.6" enable-background="new" fill="#6acfec" style="paint-order:normal"/><rect id="l" x="7" y="37" width="90" height="70" rx="6.9231" ry="5.6" enable-background="new" fill="#f1f3f5" style="paint-order:normal"/><path id="m" d="m31.071 51.5-3.0525 9.1614c-0.35357 0.13357-0.70714 0.275-1.0529 0.43214l-8.6311-4.3136-5.555 5.555 4.3214 8.6389a19.643 19.643 0 0 0-0.45571 1.045l-9.1457 3.0525v7.8571l9.1614 3.0525c0.13357 0.35358 0.275 0.70715 0.43214 1.0529l-4.3136 8.6311 5.555 5.555 8.6389-4.3214c0.34178 0.165 0.69143 0.31429 1.045 0.45571l3.0525 9.1457h7.8571l3.0525-9.1614c0.35358-0.13357 0.70715-0.275 1.0529-0.43214l8.6311 4.3136 5.555-5.555-4.3214-8.6389c0.16501-0.34178 0.31429-0.69142 0.45571-1.045l9.1457-3.0525v-7.8571l-9.1614-3.0525a19.604 19.604 0 0 0-0.43214-1.0529l4.3136-8.6311-5.555-5.555-8.6389 4.3214a19.611 19.611 0 0 0-1.045-0.45571l-3.0525-9.1457zm3.9286 15.714a11.786 11.786 0 1 1 0 23.571 11.786 11.786 0 0 1 0-23.571z" enable-background="new" fill="url(#a)" stroke="#ad7702" stroke-width="1"/></svg>
