<?xml version="1.0" encoding="UTF-8"?>
<svg id="b" enable-background="new" version="1.0" viewBox="0 0 128 128" xmlns="http://www.w3.org/2000/svg" xmlns:xlink="http://www.w3.org/1999/xlink"><title id="c">Adwaita Icon Template</title><defs id="d"><linearGradient id="a" x1="384" x2="416" y1="120" y2="120" gradientTransform="translate(-640,640)" gradientUnits="userSpaceOnUse"><stop id="e" stop-color="#f6f5f4" offset="0"/><stop id="f" stop-color="#f6f5f4" offset=".5"/><stop id="g" stop-color="#c0bfbc" offset="1"/></linearGradient></defs><g id="h" transform="translate(0,-172)"><g id="i"><g id="j" transform="matrix(.25 0 0 .25 -5.62e-5 225.12)" enable-background="new"><g id="k" transform="translate(640,-640.5)" enable-background="new"><path id="l" d="m-544 540v368h288c17.728 0 32-14.272 32-32v-304c0-17.728-14.272-32-32-32z" enable-background="new" fill="#26a269" style="paint-order:normal"/><path id="m" d="m-536 620v280h280c17.728 0 32-14.272 32-32v-216c0-17.728-14.272-32-32-32z" enable-background="new" fill="url(#a)" style="paint-order:normal"/><path id="n" d="m-544 492v264h288c17.728 0 32-14.272 32-32v-200c0-17.728-14.272-32-32-32z" enable-background="new" fill="#26a269" style="paint-order:normal"/><path id="o" d="m-544 460v288h288c17.728 0 32-14.272 32-32v-224c0-17.728-14.272-32-32-32z" enable-background="new" fill="#2ec27e" style="paint-order:normal"/><rect id="p" x="-544" y="508.5" width="320" height="192" enable-background="new" fill="#57e389"/><path id="q" d="m-536 460h8v288h-8z" fill="#fff" opacity=".3" style="paint-order:normal"/></g><path id="r" d="m236 223.5h104m-128-16h65.5m-33.5-16h128m-152-16h128" enable-background="new" opacity=".1" stroke="#000" stroke-linecap="round" stroke-width="8"/><path id="s" d="m128 140h64v80l-32-28-32 28z" enable-background="new" fill="#ed333b"/></g><g id="t" transform="translate(1)" enable-background="new" fill="#1f8455" stroke-width=".25" aria-label="Aa"><path id="u" d="m48.97 216.41c-0.88 0-1.16-0.12-1.04-0.52l3.56-8.96h0.28l3.28 9.48zm-4.32 8.16 2.12-5.56c0.2-0.52 0.44-0.68 1.4-0.68h7.6l2.24 6.52c0.56 1.64-1.08 1.48-2.96 1.6-0.24 0.24-0.24 1.12 0 1.36 1.48-0.04 5.28-0.08 6.84-0.08 1.64 0 3.88 0.04 5.36 0.08 0.24-0.24 0.24-1.12 0-1.36-1.56-0.12-2.88-0.12-3.6-2.16l-8.24-22.88c-0.6 0.36-3 1.76-4.44 1.76l-8.64 20.48c-1.04 2.48-2.28 2.68-4 2.8-0.24 0.24-0.24 1.12 0 1.36 1.48-0.04 2.2-0.08 3.76-0.08 1.64 0 3.84 0.04 5.32 0.08 0.24-0.24 0.24-1.12 0-1.36-1.52-0.08-3.4-0.24-2.76-1.88z"/><path id="v" d="m78.99 225.81c0.28 1.6 1.36 2.32 3.12 2.32 2.2 0 3.76-0.84 5.24-2.24-0.12-0.44-0.28-0.76-0.72-1.12-0.52 0.4-0.92 0.56-1.68 0.56-0.88 0-1.12-0.72-1.12-2.68l0.08-5.76c0-5.76-3.56-6.92-6.84-6.92-2.92 0-7.44 1.68-7.44 4.32 0 1.16 0.48 2.04 2.08 2.04 1.4 0 2.48-0.88 2.48-1.88 0-0.52-0.28-1.2-0.2-1.88 0.08-0.44 0.36-0.92 1.72-0.92 1.68 0 3.08 0.72 3.08 5.8l-2.68 0.84c-4.24 1.32-7.16 2.48-7.16 5.64 0 2.76 1.52 4.2 5 4.2 1.16 0 3.48-1.28 4.8-2.32zm-0.2-6.8v5.28c-1 0.8-2 1.44-2.72 1.44-1.72 0-2.32-1.16-2.32-2.4 0-1.48 0.12-2.68 2.96-3.64z"/></g></g></g></svg>
