<?xml version="1.0" encoding="UTF-8"?>
<svg viewBox="0 0 128 128" xmlns="http://www.w3.org/2000/svg"><linearGradient id="a" x1="79.172" x2="123.63" y1="23.938" y2="49.633" gradientUnits="userSpaceOnUse"><stop stop-color="#3584e4" offset="0"/><stop stop-color="#ed333b" offset="1"/></linearGradient><linearGradient id="b" x1="24.24" x2="116.2" y1="114.16" y2="114.16" gradientUnits="userSpaceOnUse"><stop stop-color="#9a9996" offset="0"/><stop stop-color="#c0bfbc" offset=".42699"/><stop stop-color="#a09f9c" offset=".89892"/><stop stop-color="#c0bfbc" offset="1"/></linearGradient><linearGradient id="c" x1="106.41" x2="111.92" y1="46.641" y2="46.33" gradientUnits="userSpaceOnUse"><stop stop-color="#77767b" offset="0"/><stop stop-color="#a5a4aa" offset=".72583"/><stop stop-color="#77767b" offset="1"/></linearGradient><radialGradient id="d" cx="64" cy="189.22" r="51.478" gradientTransform="matrix(1 0 0 1.0253 0 -178.01)" gradientUnits="userSpaceOnUse"><stop stop-color="#fffef9" offset="0"/><stop stop-color="#c0bfbc" stop-opacity="0" offset="1"/></radialGradient><radialGradient id="e" cx="61.489" cy="-281.21" r="47.369" gradientTransform="matrix(1.9273 0 -.00022952 -.9714 -57.082 -163.81)" gradientUnits="userSpaceOnUse"><stop stop-color="#f6f5f4" offset="0"/><stop stop-color="#f6f5f4" stop-opacity="0" offset="1"/></radialGradient><radialGradient id="f" cx="62" cy="-264.37" r="47.369" gradientTransform="matrix(1 0 0 -.9714 0 -164.81)" gradientUnits="userSpaceOnUse"><stop stop-color="#fffefb" offset="0"/><stop stop-color="#cdccc9" offset="1"/></radialGradient><path d="m14.613 90.754c-7.9414-16.547-7.5898-36.523 4.7695-54.449 12.164-17.641 38.074-30.137 63.012-19.02 29.301 13.062 31.797 38.895 31.957 51.551 0.03125 2.625 2.125 4.7578 4.75 4.7656 2.5938 0.007813 4.7578-2.1133 4.7344-4.7383-0.11719-13.121-2.457-28.688-17.59-43.668-18.684-19.426-50.84-24.18-74.035-10.168-20.336 11.773-30.293 36.207-25.672 59.434 1.1641 6.1836 3.3789 12.215 6.4922 17.723 6.9688 12.324 7.7227 11.359 1.582-1.4297z" fill="url(#a)"/><path d="m113.34 65.543c0 29.148-23.047 52.781-51.477 52.781-28.43 0-51.477-23.633-51.477-52.781 0-29.152 23.047-52.781 51.477-52.781 28.43 0 51.477 23.629 51.477 52.781z" fill="url(#b)"/><path d="m110.2 32.57 1.4492 19.52-11.258-11.328z" fill="url(#c)"/><path d="m113.34 65.543c0 29.148-23.047 52.781-51.477 52.781-28.43 0-51.477-23.633-51.477-52.781 0-29.152 23.047-52.781 51.477-52.781 28.43 0 51.477 23.629 51.477 52.781z" fill="url(#d)"/><path d="m61.488 17.328c-25.41 0-46.012 20.602-46.012 46.016 0 25.41 20.602 46.012 46.012 46.012 25.414 0 46.016-20.602 46.02-46.012-0.007812-6.6328-1.4414-13.176-4.207-19.191-0.27734-0.60938-0.15625-1.4961 0.28906-1.9961l6.2578-6.9531c0.41016-0.45312 0.48438-1.1172 0.18359-1.6484-0.29688-0.53516-0.90234-0.81641-1.5039-0.70703l-9.7109 1.8047c-0.66016 0.125-1.5273-0.20312-1.9531-0.71875-8.7227-10.5-21.68-16.602-35.375-16.605z" fill="url(#e)"/><path d="m61.488 16.328c-25.41 0-46.012 20.602-46.012 46.016 0 25.41 20.602 46.012 46.012 46.012 25.414 0 46.016-20.602 46.02-46.012-0.007812-6.6328-1.4414-13.176-4.207-19.191-0.27734-0.60938-0.15625-1.4961 0.28906-1.9961l6.2578-6.9531c0.41016-0.45312 0.48438-1.1172 0.18359-1.6484-0.29688-0.53516-0.90234-0.81641-1.5039-0.70703l-9.7109 1.8047c-0.66016 0.125-1.5273-0.20312-1.9531-0.71875-8.7227-10.5-21.68-16.602-35.375-16.605z" fill="url(#f)"/></svg>
