<?xml version="1.0" encoding="UTF-8"?>
<svg id="k" enable-background="new" version="1.0" viewBox="0 0 16 16" xmlns="http://www.w3.org/2000/svg" xmlns:osb="http://www.openswatchbook.org/uri/2009/osb" xmlns:xlink="http://www.w3.org/1999/xlink"><title id="l">Adwaita Icon Template</title><defs id="m"><linearGradient id="h"><stop id="n" stop-color="#070c0f" offset="0"/><stop id="o" stop-color="#d2d8dc" stop-opacity=".307" offset=".33563"/><stop id="p" stop-color="#070c0f" offset="1"/></linearGradient><linearGradient id="c"><stop id="q" stop-color="#263742" offset="0"/><stop id="r" stop-color="#070c0f" offset="1"/></linearGradient><linearGradient id="d"><stop id="s" stop-color="#bcc5ca" offset="0"/><stop id="t" stop-color="#00aade" stop-opacity="0" offset="1"/></linearGradient><radialGradient id="f" cx="18.241" cy="21.818" r="8.3085" gradientTransform="matrix(.31782 0 0 .31779 -1.019 173.62)" gradientUnits="userSpaceOnUse"><stop id="u" stop-color="#729fcf" stop-opacity=".20784" offset="0"/><stop id="v" stop-color="#729fcf" stop-opacity=".67619" offset="1"/></radialGradient><radialGradient id="e" cx="15.414" cy="13.078" r="6.6562" gradientTransform="matrix(.58921 0 0 .51173 -5.2991 171.2)" gradientUnits="userSpaceOnUse"><stop id="w" stop-color="#fff" offset="0"/><stop id="x" stop-color="#fff" stop-opacity=".24762" offset="1"/></radialGradient><linearGradient id="b" x1="7.1693" x2="27.851" y1="8.3747" y2="9.6554" gradientUnits="userSpaceOnUse" xlink:href="#c"/><linearGradient id="i" x1="52.214" x2="77.792" y1="198.23" y2="214.73" gradientTransform="matrix(.15978 -.02079 .023146 .1684 -7.6726 142.33)" gradientUnits="userSpaceOnUse" xlink:href="#c"/><linearGradient id="j" x1="68.446" x2="101.82" y1="195.95" y2="195.95" gradientTransform="matrix(.15949 -.021328 .021328 .15949 -6.9893 144.33)" gradientUnits="userSpaceOnUse" xlink:href="#d"/><linearGradient id="a" x1="16.964" x2="32.5" y1="9.4171" y2="9.4171" gradientUnits="userSpaceOnUse" xlink:href="#h"/><linearGradient id="g" x1="68.446" x2="101.82" y1="195.95" y2="195.95" gradientTransform="matrix(.15949 -.021328 .021328 .15949 -7.6329 146.9)" gradientUnits="userSpaceOnUse" xlink:href="#d"/></defs><g id="y" transform="translate(.23886 -172.61)" enable-background="new"><g id="z" display="none"><g id="aa" display="inline" enable-background="new"><rect id="ab" x="9.2651e-8" y="172" width="128" height="128" display="inline" enable-background="accumulate" fill="#f0f0f0" fill-rule="nonzero"/><circle id="ac" cx="64" cy="236" r="59.504" display="inline" enable-background="new" fill="none" opacity=".1" stroke="#000" stroke-dasharray="0.99, 0.99" stroke-linejoin="miter" stroke-miterlimit="4" stroke-width=".99" style="paint-order:normal"/><rect id="ad" x="20.495" y="180.49" width="87.01" height="111.01" rx="8.701" ry="7.9293" display="inline" enable-background="new" fill="none" opacity=".1" stroke="#000" stroke-dasharray="0.99, 0.99" stroke-linejoin="miter" stroke-miterlimit="4" stroke-width=".99" style="paint-order:normal"/><rect id="ae" x="12.495" y="184.5" width="103.01" height="103.01" rx="7.9238" ry="7.9238" display="inline" enable-background="new" fill="none" opacity=".1" stroke="#000" stroke-dasharray="0.99, 0.99" stroke-linejoin="miter" stroke-miterlimit="4" stroke-width=".99" style="paint-order:normal"/><rect id="af" x="8.495" y="200.49" width="111.01" height="87.01" rx="7.9293" ry="8.701" display="inline" enable-background="new" fill="none" opacity=".1" stroke="#000" stroke-dasharray="0.99, 0.99" stroke-linejoin="miter" stroke-miterlimit="4" stroke-width=".99" style="paint-order:normal"/><path id="ag" d="m2.6203e-5 289h128" display="inline" enable-background="new" fill="none" stroke="#62a0ea" stroke-linejoin="miter" stroke-miterlimit="4" stroke-width="2"/></g></g><g id="ah"><path id="ai" d="m1.2596 181.38c0.1853-1.2486-0.018033-5.7725 6.6007-6.2657 4.4806 0.73423 6.0627 2.6779 6.4017 6.2657-0.09367 1.917-4.582 6.9048-6.4349 6.7311-2.0009 0.12761-6.5374-4.979-6.5676-6.7311z" fill="#c6a798" fill-rule="evenodd" stroke="#79503c" stroke-linejoin="miter" stroke-miterlimit="4" stroke-width=".99561"/><path id="aj" d="m5.3805 176.51c-1.2401-1.3028-2.9695-2.3022-5.0006-2.3718-0.38542 2.8768 0.52748 5.1862 1.1322 6.1777" fill="#c6a798" fill-rule="evenodd" stroke="#79503c" stroke-linejoin="round" stroke-miterlimit="4" stroke-width="1.0509"/><path id="ak" d="m8.0391 181.97s3.8533-0.51856 4.4972 1.7131c0.43197 1.4971-0.49874 1.5352-0.65134 2.5474s0.90231 0.75518 0.90231 0.75518l-0.10615 0.22495s-1.0284 0.20084-1.0615-0.88373c-0.03317-1.0846 0.94771-1.5753 0.31079-2.6438s-3.007-0.4421-3.007-0.4421z" fill="#4a3025" fill-rule="evenodd" stroke="#4a3025" stroke-linecap="round" stroke-linejoin="round" stroke-miterlimit="4" stroke-width=".16091"/><path id="al" d="m9.2858 185a1.5898 1.5897 0 1 1-3.1795 0 1.5898 1.5897 0 1 1 3.1795 0z" fill="#a17a69" fill-rule="evenodd" opacity=".517" stroke="#79503c" stroke-linecap="round" stroke-linejoin="round" stroke-miterlimit="4" stroke-width=".16091"/><path id="am" d="m7.2618 181.97s-3.8533-0.51856-4.4972 1.7131c-0.43197 1.4971 0.49874 1.5352 0.65134 2.5474 0.1526 1.0123-0.90231 0.75518-0.90231 0.75518l0.10615 0.22495s1.0284 0.20084 1.0615-0.88373c0.033171-1.0846-0.94771-1.5753-0.31079-2.6438 0.63692-1.0685 3.007-0.4421 3.007-0.4421z" fill="#4a3025" fill-rule="evenodd" stroke="#4a3025" stroke-linecap="round" stroke-linejoin="round" stroke-miterlimit="4" stroke-width=".16091"/><path id="an" d="m7.5043 179.49a2.9393 2.9391 0 1 1-5.8786 0 2.9393 2.9391 0 1 1 5.8786 0z" fill="none" stroke="#006888" stroke-linecap="round" stroke-linejoin="round" stroke-miterlimit="4" stroke-width="1"/><path id="ao" d="m9.1683 183.26a1.5823 1.7038 0 1 1-3.1646 0 1.5823 1.7038 0 1 1 3.1646 0z" fill="#003445" fill-rule="evenodd" stroke="#003445" stroke-linecap="round" stroke-linejoin="round" stroke-miterlimit="4" stroke-width=".16091"/><path id="ap" d="m8.5691 180.52c1.4878 1.1692 2.4834 0.0179 3.2318-1.5637-2.0283-0.0821-2.5784 0.18348-3.2318 1.5637z" fill="#d7fdb2" fill-rule="evenodd" stroke="#aef766" stroke-linejoin="round" stroke-miterlimit="4" stroke-width=".16091"/><path id="aq" d="m10.124 176.51c1.2507-1.3158 2.9949-2.3254 5.0434-2.3957 0.38872 2.9058-0.53199 5.2384-1.1419 6.2398" fill="#c6a798" fill-rule="evenodd" stroke="#79503c" stroke-linejoin="round" stroke-miterlimit="4" stroke-width="1.0001"/><path id="ar" d="m9.7853 179.41c-0.06455 0.64036-0.03741 0.92215 0.45175 1.2857-0.03399-0.59109-0.05155-0.87767-0.45175-1.2857z" fill="#263742" fill-rule="evenodd" stroke="#070c0f" stroke-linejoin="round" stroke-miterlimit="4" stroke-width=".16091"/><path id="as" d="m15.746 178.98a6.5566 1.54 18.922 1 1-12.415-4.2191 6.5566 1.54 18.922 1 1 12.415 4.2191z" fill="url(#i)" fill-rule="evenodd"/><g id="at" transform="matrix(.37129 .11671 -.11673 .37126 2.2204 168.72)" fill="url(#b)"><g id="au" fill="url(#b)"><path id="av" d="m16.964 5.1429c3.4913-0.968 9.7015-1.7942 15.536-0.17857l-0.08929 8.3929c-4.9777 2.0596-11.567 1.7391-15.357 0z" fill="url(#b)" fill-rule="evenodd"/></g></g><path id="aw" d="m1.5617 179.26c-1.4704 0.46661-0.68674 0.86017 0.36584 1.245" fill="none" stroke="#006888" stroke-linejoin="round" stroke-miterlimit="4" stroke-width=".16091"/><path id="ax" d="m6.484 180.52c-1.4878 1.1692-2.4834 0.0179-3.2318-1.5637 2.0283-0.0821 2.5784 0.18348 3.2318 1.5637z" fill="#d7fdb2" fill-rule="evenodd" stroke="#aef766" stroke-linejoin="round" stroke-miterlimit="4" stroke-width=".16091"/><path id="ay" d="m5.2678 179.41c0.064552 0.64037 0.037413 0.92216-0.45175 1.2857 0.033994-0.59109 0.051554-0.87767 0.45175-1.2857z" fill="#263742" fill-rule="evenodd" stroke="#070c0f" stroke-linejoin="round" stroke-miterlimit="4" stroke-width=".16091"/><path id="az" d="m7.2117 179.49a2.6406 2.6404 0 1 1-5.2811 0 2.6406 2.6404 0 1 1 5.2811 0z" fill="url(#f)" fill-rule="evenodd" stroke="#00aade" stroke-linecap="round" stroke-linejoin="round" stroke-miterlimit="4" stroke-width=".16091"/><path id="ba" d="m7.586 183.59a1.5898 1.5897 0 1 1-3.1795 0 1.5898 1.5897 0 1 1 3.1795 0z" fill="#79503c" fill-rule="evenodd" stroke="#79503c" stroke-linecap="round" stroke-linejoin="round" stroke-miterlimit="4" stroke-width=".16091"/><path id="bb" d="m4.5213 177.18c-1.1834 0-2.1416 0.95818-2.1416 2.1414 0 0.34174 0.095509 0.65617 0.23796 0.94295 0.28458 0.10489 0.37247 0.13541 0.6645 3e-3 1.298-0.59071 2.1399-1.1047 2.8519-2.3114-0.39334-0.46478-0.95667-0.77551-1.6128-0.77551z" fill="url(#e)" fill-rule="evenodd" opacity=".3"/><path id="bc" d="m10.919 183.64a1.5898 1.5897 0 1 1-3.1795 0 1.5898 1.5897 0 1 1 3.1795 0z" fill="#79503c" fill-rule="evenodd" stroke="#79503c" stroke-linecap="round" stroke-linejoin="round" stroke-miterlimit="4" stroke-width=".16091"/><g id="bd" transform="matrix(.37129 .11671 -.11673 .37126 2.2204 168.72)" fill="url(#a)" opacity=".392"><g id="be" fill="url(#a)"><path id="bf" d="m16.964 5.1429c3.4913-0.968 9.7015-1.7942 15.536-0.17857l-0.08929 8.3929c-4.9777 2.0596-11.567 1.7391-15.357 0z" fill="url(#a)" fill-rule="evenodd" opacity="1"/></g></g><path id="bg" d="m13.552 174.46c-0.48262-0.82486-4.0927-2.0001-5.4964-1.6653 1.8339 1.6714 4.4642 1.9555 5.4964 1.6653z" fill="#070c0f" fill-rule="evenodd" stroke="#070c0f" stroke-linejoin="miter" stroke-miterlimit="4" stroke-width=".16091"/><path id="bh" d="m7.997 172.85c1.9453 1.6761 4.2939 2.0483 5.592 1.7942" fill="none" opacity=".228" stroke="url(#j)" stroke-linejoin="miter" stroke-miterlimit="4" stroke-width=".16091"/><path id="bi" d="m7.2354 174.89-0.20942 0.7087c0.7007 0.77052 1.6568 1.2383 2.798 1.5571 1.1412 0.31877 2.2927 0.36524 3.0952 0.2082l-0.06662-0.65053c-0.49563 0.097-1.9396 0.01-2.9766-0.27971-1.037-0.28967-2.1682-1.0243-2.6406-1.5438z" clip-rule="nonzero" color="#000000" color-rendering="auto" dominant-baseline="auto" enable-background="accumulate" fill="url(#g)" fill-rule="evenodd" image-rendering="auto" opacity=".353" shape-rendering="auto" solid-color="#000000" style="font-feature-settings:normal;font-variant-alternates:normal;font-variant-caps:normal;font-variant-ligatures:normal;font-variant-numeric:normal;font-variant-position:normal;isolation:auto;mix-blend-mode:normal;shape-padding:0;text-decoration-color:#000000;text-decoration-line:none;text-decoration-style:solid;text-indent:0;text-orientation:mixed;text-transform:none;white-space:normal"/></g></g></svg>
