<?xml version="1.0" encoding="UTF-8"?>
<svg id="b" version="1.1" viewBox="0 0 16 16" xmlns="http://www.w3.org/2000/svg" xmlns:xlink="http://www.w3.org/1999/xlink"><defs id="c"><linearGradient id="a" x1="1200" x2="1216" y1="-589" y2="-589" gradientTransform="translate(-1200 604)" gradientUnits="userSpaceOnUse"><stop id="d" stop-color="#f1f3f5" stop-opacity="0" offset="0"/><stop id="e" stop-color="#a7b0b7" offset=".090909"/><stop id="f" stop-color="#a7b0b7" offset=".90909"/><stop id="g" stop-color="#f1f3f5" stop-opacity="0" offset="1"/></linearGradient></defs><g id="h"><rect id="i" x="6.5" y="10.5" width="3" height="3" enable-background="new" fill="#a7b0b7" stroke="#758087" stroke-linejoin="miter" stroke-miterlimit="4" stroke-width="1"/><rect id="j" x="1" y="1" width="14" height="11" rx="2" ry="2" enable-background="new" fill="#d2d8dc" style="paint-order:normal"/><rect id="k" x="2" y="1" width="12" height="8" rx="1" ry="1" enable-background="new" fill="#f1f3f5" style="paint-order:normal"/><rect id="l" x="1.5" y="1.5" width="13" height="10" rx="1.5" ry="1.5" enable-background="new" fill="none" stop-color="#000000" stroke="#bcc5ca" stroke-linecap="round" stroke-linejoin="round" stroke-width="1"/><rect id="m" x="2" y="1" width="12" height="7" fill="#00aade" fill-rule="evenodd" stop-color="#000000" stroke-linecap="round" stroke-linejoin="round" stroke-width="1"/><path id="n" d="m1.5 8v-6.5c0-0.51234 0.43234-1 1-1h11c0.68474 0 1 0.60772 1 1v6.5" fill="none" stroke="#006888" stroke-linejoin="miter" stroke-width="1px"/><path id="o" d="m8.9375 1.5c-0.80236 0-1.4541 0.59462-1.543 1.3559-0.20423-0.074607-0.4137-0.13368-0.64453-0.13368-1.0355 0-1.875 0.82081-1.875 1.8333 0 0.060006 0.013743 0.11336 0.019501 0.17188-0.18729-0.10953-0.41034-0.17188-0.64447-0.17188-0.69036 0-1.25 0.54721-1.25 1.2222-1.05e-5 0.67502 0.55964 1.2222 1.25 1.2222h7.8125c0.51779 0 0.93752-0.4104 0.93752-0.91667 0-0.50626-0.41974-0.91667-0.9375-0.91667-0.12945 0-0.25894 0.030004-0.3711 0.076383 0.03287-0.12341 0.0585-0.24847 0.0585-0.38194 0-0.75127-0.55834-1.3617-1.2891-1.4896 0.02625-0.11083 0.03913-0.22515 0.03913-0.34375 0-0.84377-0.69955-1.5278-1.5625-1.5278z" color="#000000" enable-background="accumulate" fill="#f1f3f5"/><rect id="p" y="14" width="16" height="1" enable-background="new" fill="url(#a)"/><rect id="q" x="5.5" y="13.5" width="5" height="2" ry="0" enable-background="new" fill="#a7b0b7" stroke="#758087" stroke-linejoin="miter" stroke-miterlimit="4" stroke-width="1"/><circle id="r" cx="8" cy="9.5" r="1" enable-background="new" fill="#52a302" style="paint-order:normal"/><circle id="s" cx="5" cy="9.5" r="1" enable-background="new" fill="#52a302" style="paint-order:normal"/><circle id="t" cx="11" cy="9.5" r="1" enable-background="new" fill="#e6461d" style="paint-order:normal"/></g></svg>
