<?xml version="1.0" encoding="UTF-8"?>
<svg id="e" width="48" height="48" version="1.1" viewBox="0 0 12.7 12.7" xmlns="http://www.w3.org/2000/svg"><defs id="f"><linearGradient id="d" x1="25" x2="25" y1="3" y2="72" gradientTransform="matrix(.26458 0 0 .26458 5.101e-5 3.7483e-7)" gradientUnits="userSpaceOnUse"><stop id="g" stop-color="#e0e1e3" offset="0"/><stop id="h" stop-color="#95a5a6" offset="1"/></linearGradient><linearGradient id="c" x1="25" x2="25" y1="40" y2="-22" gradientTransform="matrix(.26458 0 0 .26458 5.101e-5 3.7483e-7)" gradientUnits="userSpaceOnUse"><stop id="i" stop-color="#fdbc4b" offset="0"/><stop id="j" stop-color="#da4453" offset=".27419"/><stop id="k" stop-color="#9b59b6" offset="1"/></linearGradient><linearGradient id="b" x1="24" x2="24" y1="41" y2="8.0524" gradientTransform="scale(.26458)" gradientUnits="userSpaceOnUse"><stop id="l" stop-color="#2c3e50" offset="0"/><stop id="m" stop-color="#34495e" offset="1"/></linearGradient><linearGradient id="a" x1="6.35" x2="6.35" y1="5.0271" y2="8.4656" gradientUnits="userSpaceOnUse"><stop id="n" stop-color="#fdbc4b" offset="0"/><stop id="o" stop-color="#fdca70" offset="1"/></linearGradient></defs><rect id="p" x="1.0584" y="1.0583" width="10.583" height="10.583" rx="1.5875" ry="1.5875" fill="#7f8c8d" stroke-width=".26458" style="paint-order:stroke fill markers"/><rect id="q" x="1.0584" y="1.0583" width="10.583" height="10.319" rx="1.5875" ry="1.5875" fill="url(#d)" stroke-width=".26458" style="paint-order:stroke fill markers"/><rect id="r" x="1.5875" y="1.5875" width="9.525" height="9.2604" rx="1.0583" ry="1.0583" fill="url(#c)" stroke-width=".26458" style="paint-order:stroke fill markers"/><ellipse id="s" cx="6.35" cy="7.1438" rx="2.1167" ry="2.1167" fill="url(#a)" style="paint-order:normal"/><path id="t" d="m9.525 5.0271-2.3812 2.3812-1.3229-0.52917-1.5875 1.5875-0.79375-0.79375-1.8521 1.8521v0.26458c0 0.58632 0.47202 1.0583 1.0583 1.0583h7.4083c0.58631 0 1.0583-0.47202 1.0583-1.0583v-4.2333l-0.52917-0.52917-0.52917 0.52917z" fill="url(#b)" style="paint-order:normal"/><g id="u" fill="#34495e"><path id="v" d="m1.5875 9.525 2.1167-1.5875-0.26458-0.26458z" style="paint-order:normal"/><path id="w" d="m4.2333 8.4667 1.8521-1.3229-0.26458-0.26458z" style="paint-order:normal"/><path id="x" d="m7.1438 7.4083 2.6458-2.1167-0.26458-0.26458z" style="paint-order:normal"/><path id="y" d="m10.054 5.5563 0.72347-0.33486-0.1943-0.1943z" style="paint-order:normal"/></g></svg>
