<?xml version="1.0" encoding="UTF-8"?>
<svg id="d" enable-background="new" version="1.0" viewBox="0 0 128 128" xmlns="http://www.w3.org/2000/svg" xmlns:xlink="http://www.w3.org/1999/xlink"><title id="e">Adwaita Icon Template</title><defs id="f"><clipPath id="g"><rect id="h" x="32" y="-116" width="448" height="320" rx="32" ry="32" enable-background="new" fill="none" stroke="#000" stroke-width="4" style="paint-order:normal"/></clipPath><clipPath id="c"><path id="i" d="m64-148h64l64-64 64 64h192c17.728 0 32 14.272 32 32v288c0 17.728-14.272 32-32 32h-192l-64-64-64 64h-64c-17.728 0-32-14.272-32-32v-288c0-17.728 14.409-34.199 32-32z" enable-background="new" fill="none" stroke="#000" stroke-linecap="round" stroke-linejoin="round" stroke-width="4" style="paint-order:normal"/></clipPath><linearGradient id="b" x1="336" x2="336" y1="62" y2="-180" gradientTransform="matrix(.25 0 0 .25 8.0003 225)" gradientUnits="userSpaceOnUse"><stop id="j" stop-color="#d81d25" offset="0"/><stop id="k" stop-color="#f66151" offset="1"/></linearGradient><linearGradient id="a" x1="320.5" x2="415.5" y1="-68" y2="-68" gradientTransform="matrix(.25263 0 0 .25263 115.03 109.18)" gradientUnits="userSpaceOnUse"><stop id="l" stop-color="#a51d2d" offset="0"/><stop id="m" stop-color="#ce1921" offset="1"/></linearGradient></defs><g id="n" transform="translate(0,-172)"><g id="o"><g id="p" transform="matrix(.25 0 0 .25 3.2e-7 237)" clip-path="url(#c)" enable-background="new"><path id="q" d="m256 124h160l-2e-5 -272h96v384h-256l-64-64-64 64h-128l-3.2e-7 -112h128l64-64z" fill="#cdab8f" style="paint-order:normal"/><path id="r" d="m-1.28e-6 123.97 128 0.0508v-272.03l-128 1e-5z" enable-background="new" fill="#55a7eb" style="paint-order:normal"/><path id="s" d="m144-164v272l48-48 64 64.058 144-5e-5 16-16.058v-256h-160l-64-64z" enable-background="new" fill="#2ec27e"/><path id="t" d="m399.9-147.89v238c0 10.028-9.3738 17.949-16.949 17.949h-126.95l-64-63.469-39.375 39.535-0.625-296.07h-24v319.94l-128 0.0584v32.102h127l65-64.16 64 64.16h126.95c26.425 0 47.963-22.048 49.051-50.051v-238z" color="#000000" color-rendering="auto" dominant-baseline="auto" enable-background="accumulate" fill="#fff" image-rendering="auto" shape-rendering="auto" solid-color="#000000" style="font-feature-settings:normal;font-variant-alternates:normal;font-variant-caps:normal;font-variant-ligatures:normal;font-variant-numeric:normal;font-variant-position:normal;isolation:auto;mix-blend-mode:normal;shape-padding:0;text-decoration-color:#000000;text-decoration-line:none;text-decoration-style:solid;text-indent:0;text-orientation:mixed;text-transform:none;white-space:normal"/><path id="u" d="m128 267.97 64 0.0508v-480.03l-64 1e-5z" enable-background="new" fill="#fff" opacity=".3" style="paint-order:normal"/><path id="v" d="m192 267.97 64 0.0508v-480.03l-64 1e-5z" enable-background="new" opacity=".15" style="paint-order:normal"/></g><g id="w"><circle id="x" transform="matrix(0,1,1,0,0,0)" cx="208" cy="92" r="12" enable-background="new" fill="url(#a)"/><path id="y" d="m92 182c-7.1658 0-14.332 2.7338-19.799 8.2012-10.935 10.935-10.935 28.663 0 39.598l19.799 19.799s13.821-13.822 19.799-19.799c10.935-10.935 10.935-28.663 0-39.598-5.4673-5.4673-12.633-8.2012-19.799-8.2012zm0 18a10 10 0 0 1 10 10 10 10 0 0 1-10 10 10 10 0 0 1-10-10 10 10 0 0 1 10-10z" enable-background="new" fill="#a51d2d" style="paint-order:normal"/><path id="z" d="m92 180c-7.1658 0-14.332 2.7338-19.799 8.2012-10.935 10.935-10.935 28.663 0 39.598l19.799 19.799s13.821-13.822 19.799-19.799c10.935-10.935 10.935-28.663 0-39.598-5.4673-5.4674-12.633-8.2012-19.799-8.2012zm0 18a10 10 0 0 1 10 10 10 10 0 0 1-10 10 10 10 0 0 1-10-10 10 10 0 0 1 10-10z" enable-background="new" fill="url(#b)" style="paint-order:normal"/></g></g></g></svg>
