<?xml version="1.0" encoding="UTF-8"?>
<svg id="d" version="1.1" viewBox="0 0 48 48" xmlns="http://www.w3.org/2000/svg"><defs id="e"><linearGradient id="a" x1="15.233" x2="39.609" y1="11.995" y2="36.37" gradientUnits="userSpaceOnUse"><stop id="f" offset="0"/><stop id="g" stop-opacity="0" offset="1"/></linearGradient><filter id="c" x="-1.0166e-7" y="-5.0865e-8" width="1" height="1" color-interpolation-filters="sRGB"><feGaussianBlur id="h" stdDeviation="8.4775089e-07"/></filter><filter id="b" x="-1.0179e-7" y="-5.0865e-8" width="1" height="1" color-interpolation-filters="sRGB"><feGaussianBlur id="i" stdDeviation="8.4775089e-07"/></filter></defs><path id="j" d="m23.986 44a20 20 0 0 0 0.013672 0 20 20 0 0 0 20-20 20 20 0 0 0-20-20 20 20 0 0 0-0.011719 0l-0.001953 40z" fill="#39fea0" filter="url(#c)"/><path id="k" d="m23.986 44 0.001953-40a20 20 0 0 0-19.988 20 20 20 0 0 0 19.986 20z" fill="#1f4855" filter="url(#b)"/><path id="l" d="m25.366 11.777-1.6262 2.3036-10.374 21.597 10.672 8.3717c10.162-0.44167 16.726-6.9037 19.099-14.215z" fill="url(#a)" opacity=".2"/><path id="m" d="m43.979 23.418a20 20 0 0 1-19.979 19.582 20 20 0 0 1-19.979-19.418 20 20 0 0 0-0.021484 0.41797 20 20 0 0 0 20 20 20 20 0 0 0 20-20 20 20 0 0 0-0.021484-0.58203z" opacity=".2"/><g id="n" transform="translate(2.3632 -3.8828)" aria-label="A"><path id="o" transform="translate(-1.2548 3.8828)" d="m22.789 28.311h4.7695l2.8672 7.3672h3.0996l-9.2676-23.9h-1.4688v3.3516c0.02238-0.08504 0.04828-0.16658 0.07031-0.25195 0.08889 0.26667 0.1987 0.6549 0.33203 1.166 0.15556 0.48889 0.31124 0.96693 0.4668 1.4336s0.26732 0.78902 0.33398 0.9668l2.666 7.1992h-3.8691z" fill="#1f4855"/><path id="p" transform="translate(-1.2548 3.8828)" d="m22.878 28.307-1e-6 -2.6647h-3.7531l2.7012-7.1992c0.13333-0.37778 0.28902-0.88876 0.4668-1.5332 0.17521-0.58404 0.40825-1.4321 0.5664-2.0332l0.02088-3.0996h-1.3217l-9.3008 23.9h3.0352l2.832-7.3672z" fill="#39fea0"/></g></svg>
