<?xml version="1.0" encoding="UTF-8"?>
<svg id="b" enable-background="new" version="1.0" viewBox="0 0 128 128" xmlns="http://www.w3.org/2000/svg" xmlns:xlink="http://www.w3.org/1999/xlink"><title id="c">Adwaita Icon Template</title><defs id="d"><linearGradient id="a" x1="1660.9" x2="1663" y1="806.3" y2="812.88" gradientTransform="matrix(1.8294 -.81599 .81599 1.8294 -3646 100.03)" gradientUnits="userSpaceOnUse"><stop id="e" stop-color="#9a9996" offset="0"/><stop id="f" stop-color="#77767b" offset="1"/></linearGradient></defs><g id="g" transform="translate(0,-172)"><g id="h"><path id="i" d="m124 237a60 60 0 0 1-60 60 60 60 0 0 1-60-60 60 60 0 0 1 60-60 60 60 0 0 1 60 60z" enable-background="new" fill="#deddda" style="paint-order:normal"/><rect id="j" x="8" y="179" width="112" height="114" rx="56" ry="56" enable-background="new" fill="#d5d3cf" style="paint-order:normal"/><path id="k" d="m124 235a60 60 0 0 1-60 60 60 60 0 0 1-60-60 60 60 0 0 1 60-60 60 60 0 0 1 60 60z" enable-background="new" fill="#f6f5f4" style="paint-order:normal"/><circle id="l" cx="64" cy="235" r="54" enable-background="new" fill="#3d3846" style="paint-order:normal"/><path id="m" d="m90.035 207.99a1.0017 1.0017 0 0 0-0.77686 0.33008l-21.975 23.665a6 6 0 0 0-5.582-0.52246l-14.221-15.801a2.0033 2.0033 0 0 0-1.6035-0.68212 2.0033 2.0033 0 0 0-1.374 3.3618l14.219 15.799a6 6 0 0 0-0.20996 5.3052 6 6 0 0 0 2.4043 2.6992l-11.858 30.494a1.0017 1.0017 0 1 0 1.8672 0.72558l11.857-30.491a6 6 0 0 0 3.6533-0.39209 6 6 0 0 0 3.0352-7.9238 6 6 0 0 0-0.7251-1.2041l21.979-23.67a1.0017 1.0017 0 0 0-0.69092-1.6934z" color="#000000" color-rendering="auto" dominant-baseline="auto" enable-background="new" fill-rule="evenodd" image-rendering="auto" opacity=".2" shape-rendering="auto" solid-color="#000000" style="font-feature-settings:normal;font-variant-alternates:normal;font-variant-caps:normal;font-variant-ligatures:normal;font-variant-numeric:normal;font-variant-position:normal;isolation:auto;mix-blend-mode:normal;shape-padding:0;text-decoration-color:#000000;text-decoration-line:none;text-decoration-style:solid;text-indent:0;text-orientation:mixed;text-transform:none;white-space:normal"/><path id="n" d="m64 235-18-20" enable-background="new" fill="#c0bfbc" fill-rule="evenodd" stroke="url(#a)" stroke-linecap="round" stroke-width="4.0063"/><path id="o" d="m64 235 26-28" enable-background="new" fill="none" stroke="#fff" stroke-linecap="round" stroke-width="2.0031"/><path id="p" d="m64 235-14 36" enable-background="new" fill="none" stroke="#ed333b" stroke-linecap="round" stroke-width="2.0031"/><circle id="q" transform="rotate(-24.039)" cx="-37.28" cy="240.69" r="6" color="#000000" color-rendering="auto" enable-background="accumulate" fill="#d5d3cf" image-rendering="auto" shape-rendering="auto"/><circle id="r" cx="64.029" cy="235" r="2.0031" color="#000000" color-rendering="auto" enable-background="accumulate" fill="#131c1a" image-rendering="auto" shape-rendering="auto"/><circle id="s" cx="64.029" cy="235" r="2" color="#000000" color-rendering="auto" enable-background="accumulate" fill="#131c1a" image-rendering="auto" shape-rendering="auto"/><path id="t" d="m64 181a54 54 0 0 0-54 54 54 54 0 0 0 0.0415 1.1709 54 54 0 0 1 53.958-53.171 54 54 0 0 1 53.958 52.828 54 54 0 0 0 0.0415-0.82813 54 54 0 0 0-54-54z" enable-background="new" opacity=".1" style="paint-order:normal"/></g></g></svg>
