<?xml version="1.0" encoding="UTF-8"?>
<svg id="e" enable-background="new" version="1.0" viewBox="0 0 16 16" xmlns="http://www.w3.org/2000/svg" xmlns:xlink="http://www.w3.org/1999/xlink"><title id="f">Adwaita Icon Template</title><defs id="g"><radialGradient id="c" cx="105.22" cy="148.63" r="160" gradientTransform="matrix(.01808 .041986 .024106 -.02341 180.97 215.67)" gradientUnits="userSpaceOnUse"><stop id="h" stop-color="#e6461d" offset="0"/><stop id="i" stop-color="#f9da02" offset="1"/></radialGradient><radialGradient id="a" cx="527.62" cy="194.65" r="192" gradientTransform="matrix(0 .028046 .030295 0 173.07 202.46)" gradientUnits="userSpaceOnUse"><stop id="j" stop-color="#6acc0a" offset="0"/><stop id="k" stop-color="#87bae1" stop-opacity="0" offset="1"/></radialGradient><radialGradient id="b" cx="352.98" cy="275.93" r="192" gradientTransform="matrix(-.019692 -.032213 -.020837 .011362 191.49 231.06)" gradientUnits="userSpaceOnUse"><stop id="l" stop-color="#00aade" offset="0"/><stop id="m" stop-color="#8ff0a4" stop-opacity=".0041494" offset="1"/></radialGradient><linearGradient id="d" x1="569.78" x2="569.78" y1="-224.3" y2="-195.68" gradientTransform="matrix(-.3476 0 0 -.3476 206.11 -65.425)" gradientUnits="userSpaceOnUse"><stop id="n" stop-color="#d2d8dc" offset="0"/><stop id="o" stop-color="#bcc5ca" offset="1"/></linearGradient></defs><path id="p" d="m14.423 13.5h-12.848c-0.59527 0-1.0745-0.4793-1.0745-1.0746v-6.8908l4.0295-4.0347h9.8934c0.59526 0 1.077 0.48431 1.077 1.0796v9.8458c0 0.59528-0.48178 1.0746-1.077 1.0746z" enable-background="new" fill="#f6f5f4" stroke="url(#d)" stroke-linejoin="miter" stroke-miterlimit="4" stroke-width="1" style="paint-order:normal"/><g id="q" transform="matrix(1.4683 0 0 1.5547 -258.78 -334.77)" enable-background="new"><path id="r" d="m185.77 223.04v-5.7889l-6.5835 2e-5v1.1156c0 0.35635-0.02 0.38526-0.39728 0.38526h-1.1918v4.2881z" enable-background="new" fill="url(#c)" style="paint-order:normal"/><path id="s" d="m185.77 223.04v-5.7889l-6.5835 2e-5v1.1156c0 0.35635-0.02 0.38526-0.39728 0.38526h-1.1918v4.2881z" enable-background="new" fill="url(#a)" style="paint-order:normal"/><path id="t" d="m185.77 223.04v-5.7889l-6.5835 2e-5v1.1156c0 0.35635-0.02 0.38526-0.39728 0.38526h-1.1918v4.2881z" enable-background="new" fill="url(#b)" style="paint-order:normal"/></g><path id="u" d="m2.0202 10.218-0.0016 1.3223c-0.0043 0.05087-0.0171-1.4325-0.0171-0.23084 1.71e-4 1.6421 2.1323 4.6906 4.7403 4.6907 2.608-8.6e-5 4.704-3.0485 4.7041-4.6907 0.02565 1.3098-0.0017 0.05044-0.01282 0h0.01282l0.01282-1.0914z" enable-background="new" fill="#a7b0b7" style="paint-order:normal"/><circle id="v" cx="12" cy="11" r="1.5" fill="#f1f3f5" stroke="#758087" stroke-linejoin="miter" stroke-miterlimit="4" stroke-width="1" style="paint-order:normal"/><path id="w" d="m2.4833 10.465-0.00154 1.1593v0c-0.0041 0.04497-0.016357-1.2559-0.016357-0.20238 1.636e-4 1.4396 2.0435 4.1123 4.5428 4.1124 2.4993-7.5e-5 4.5079-2.6727 4.5081-4.1124 0.02453 1.1483-0.0015 0.04421-0.01228 0h0.01228l0.01225-0.95686z" enable-background="new" fill="#f1f3f5" stroke="#758087" stroke-linecap="round" stroke-linejoin="miter" stroke-miterlimit="4" stroke-width=".931" style="paint-order:normal"/><ellipse id="x" cx="7" cy="10" rx="4.5439" ry="2.5439" enable-background="new" fill="#4a3025" stroke="#758087" stroke-linecap="round" stroke-linejoin="miter" stroke-miterlimit="4" stroke-width=".91224" style="paint-order:normal"/><path id="y" d="m1 5.5348h2.5527c0.51434 0 0.92828-0.41398 0.92828-0.9283v-2.5844z" enable-background="new" fill="#d2d8dc"/></svg>
