<?xml version="1.0" encoding="UTF-8"?>
<svg id="o" version="1.1" viewBox="0 0 16 16" xmlns="http://www.w3.org/2000/svg" xmlns:xlink="http://www.w3.org/1999/xlink"><defs id="p"><clipPath id="i"><path id="r" d="m0 0h192v152h-192z"/></clipPath><clipPath id="Y"><path id="s" d="m79 0h49v128h-49z"/></clipPath><clipPath id="b"><path id="t" d="m0 0h192v152h-192z"/></clipPath><clipPath id="Z"><path id="u" d="m479.99 20.078c0 110.45-89.543 200-200 200-110.45 0-200-89.547-200-200 0-110.46 89.547-200 200-200 110.46 0 200 89.543 200 200z"/></clipPath><clipPath id="c"><path id="v" d="m0 0h192v152h-192z"/></clipPath><clipPath id="q"><path id="w" d="m0 0h192v152h-192z"/></clipPath><clipPath id="x"><path id="y" d="m0 0h192v152h-192z"/></clipPath><clipPath id="aa"><path id="ab" d="m0 0h192v152h-192z"/></clipPath><clipPath id="ac"><path id="ad" d="m0 0h192v152h-192z"/></clipPath><clipPath id="e"><path id="ae" d="m0 0h192v152h-192z"/></clipPath><clipPath id="af"><path id="ag" d="m0 0h192v152h-192z"/></clipPath><clipPath id="ah"><path id="ai" d="m0 0h192v152h-192z"/></clipPath><clipPath id="aj"><path id="ak" d="m0 0h192v152h-192z"/></clipPath><clipPath id="al"><path id="am" d="m0 0h192v152h-192z"/></clipPath><clipPath id="an"><path id="ao" d="m0 0h192v152h-192z"/></clipPath><clipPath id="ap"><path id="aq" d="m0 0h192v152h-192z"/></clipPath><clipPath id="ar"><path id="as" d="m0 0h192v152h-192z"/></clipPath><clipPath id="at"><path id="au" d="m0 0h192v152h-192z"/></clipPath><mask id="k"><g id="av" filter="url(#a)"><path id="aw" d="m0 0h128v128h-128z" fill-opacity=".5"/></g></mask><g id="d" clip-path="url(#q)"><path id="ax" d="m169.34 19.172v3.531l0.883 0.883 0.34 0.344 0.543-0.543v-0.684h0.683l0.2-0.2v-0.683l0.882-0.883h0.684l0.199-0.199v-0.683l-0.883-0.883zm8.113 0v1.765h1.598l0.91 1.325v0.441l0.856 0.883v-4.414zm3.363 4.414-0.91 0.05-0.855-0.933v-0.219h-1.078l-0.442-0.664h-0.078v2.883l0.301 0.43v1.762l1.297 1.105 0.883-0.883v-2.647z" fill="#2e3436"/></g><g id="z" clip-path="url(#e)"><path id="ay" d="m33.586 77.293h4v2h-4z" fill="#fff"/></g><filter id="a" x="0" y="0" width="1" height="1"><feColorMatrix id="az" in="SourceGraphic" values="0 0 0 0 1 0 0 0 0 1 0 0 0 0 1 0 0 0 1 0"/></filter><clipPath id="m"><path id="ba" d="m79 0h49v128h-49z"/></clipPath><clipPath id="l"><path id="bb" d="m479.99 20.078c0 110.45-89.543 200-200 200-110.45 0-200-89.547-200-200 0-110.46 89.547-200 200-200 110.46 0 200 89.543 200 200z"/></clipPath><mask id="j"><g id="bc" filter="url(#f)"><path id="bd" d="m0 0h128v128h-128z" fill-opacity=".5"/></g></mask><filter id="f" x="0" y="0" width="1" height="1"><feColorMatrix id="be" in="SourceGraphic" values="0 0 0 0 1 0 0 0 0 1 0 0 0 0 1 0 0 0 1 0"/></filter><mask id="n"><g id="bf" filter="url(#f)"><path id="bg" d="m0 0h128v128h-128z" fill-opacity=".1"/></g></mask><clipPath id="g"><circle id="bh" cx="64" cy="236" r="60" enable-background="new" fill="#3584e4" style="paint-order:normal"/></clipPath><clipPath id="h"><g id="bi" transform="matrix(.26786 0 0 .26786 -4.5714 224.21)" enable-background="new" stroke-width=".93333"><circle id="bj" cx="256" cy="44" r="224" enable-background="new" fill="#f5c211" style="paint-order:normal"/><circle id="bk" cx="256" cy="44" r="224" enable-background="new" fill="#f5c211" style="paint-order:normal"/></g></clipPath></defs><g id="bl" transform="translate(0,-1)" clip-path="url(#Y)"><g id="bm" clip-path="url(#Z)"><use id="bn" transform="translate(-8,-16)" width="100%" height="100%" mask="url(#k)" xlink:href="#d"/></g></g><use id="bo" transform="matrix(.33607 0 0 .33607 1.0626 -2.0157)" width="100%" height="100%" mask="url(#n)" xlink:href="#z"/><g id="bp" transform="translate(-159 -13.586)" clip-path="url(#m)"><g id="bq" clip-path="url(#l)"><use id="br" transform="translate(-8,-16)" width="100%" height="100%" mask="url(#j)" xlink:href="#d"/></g></g><circle id="bs" cx="8" cy="8" r="8" fill="#006888"/><g id="bt" transform="matrix(.11667 0 0 .11475 28.533 -.60656)" enable-background="new" stroke-width="8.7705"><path id="bu" d="m-200.48 19.22 1.5e-4 1.999 4.0108-0.15924 0.0908-1.9975z" fill="#2967b4" fill-rule="evenodd"/><path id="bv" d="m-235.87 70.118 1.5e-4 1.999 4.0108-0.15924 0.0908-1.9975z" enable-background="new" fill="#164e93" fill-rule="evenodd"/><g id="bw" transform="matrix(.26786 0 0 .26786 -244.57 64.214)" enable-background="new" fill="#00aade" stroke-width="8.1858"><circle id="bx" cx="256" cy="44" r="224" enable-background="new" fill="#00aade" style="paint-order:normal"/></g><path id="by" transform="translate(-240,-160)" d="m100 270h12v20h-12z" clip-path="url(#h)" fill="#fff" opacity=".1"/><path id="bz" d="m-134 70v2h4v-2z" fill="#006888" fill-rule="evenodd"/><path id="ca" transform="translate(-240,-162)" d="m38 176v4l10 8v8l8 8h4v-4l6-6v-4l4-4v-10zm-4 16h-30s0.50902 40.442 0 40l20 18v-6l-4-4 6-6h4l4 4 0.12494-8.4018 5.8751-5.5982h4v-4l4-4v-6l-4.2724-3.875-9.7276-0.12499v8h-4l-4-4v-4l6-6h6v-4zm60 2-6 6v4h6v-2.1429h4v4.2679l-2 1.875h-10v4h-4v6h-8v8h10v-4h8v2l4 4h2v-2l-2-2v-2h4l6 6h6v2l-2 2h-4l18 18v-56h-28zm12 38h-12l-2-2h-14l-8 8v8l8 8h6l4 4v2l2 2v12l14 14h8v-30l4-4v-8l-10-10zm-2-12h4l6 6h-4zm-74 28-4 4v10l8.1249 8.1428-0.12494 25.857h8v-8l6-6v-4l6-6v-4l4-4v-8l-4-4h-8l-4-4z" clip-path="url(#g)" color="#000000" enable-background="accumulate" fill="#6acfec" fill-rule="nonzero" style="paint-order:normal"/><rect id="cb" x="-214" y="72" width="4" height="2" fill="#fff" opacity=".1"/><rect id="cc" x="-146" y="39.857" width="4" height="2" fill="#fff" opacity=".1"/></g><path id="cd" d="m7.5407 5.0729-6.4328 6.3915 2.8898 0.10132-1.2117 2.7333c-0.37321 1.2149 1.305 1.6704 1.5849 0.75952l1.1188-2.734 2.0509 2.3792z" fill="#f1f3f5" fill-rule="evenodd" stroke="#758087" stroke-miterlimit="4" stroke-width="1"/></svg>
