<?xml version="1.0" encoding="UTF-8"?>
<svg viewBox="0 0 48 48" xmlns="http://www.w3.org/2000/svg" xmlns:xlink="http://www.w3.org/1999/xlink"><defs><linearGradient id="a" x1="27" x2="19" y1="44" y2="33" gradientTransform="matrix(1 0 0 1.25-5-6)" gradientUnits="userSpaceOnUse"><stop stop-color="#18222a" offset="0"/><stop stop-color="#566069" offset="1"/></linearGradient><linearGradient id="b" x2="0" y1="36" y2="32" gradientTransform="translate(-4.5 4)" gradientUnits="userSpaceOnUse"><stop stop-color="#f39c12" offset="0"/><stop stop-color="#f5ab35" offset="1"/></linearGradient><linearGradient id="c" x2="0" y1="543.8" y2="503.8" gradientTransform="matrix(1.125 0 0 1-435.64-499.8)" gradientUnits="userSpaceOnUse"><stop stop-color="#bd8d48" offset="0"/><stop stop-color="#e8b971" offset="1"/></linearGradient><linearGradient id="d" x2="0" y1="541.8" y2="505.8" gradientTransform="translate(-384.57-499.8)" gradientUnits="userSpaceOnUse"><stop stop-color="#d8dcde" offset="0"/><stop stop-color="#f9fafb" offset="1"/></linearGradient><linearGradient id="e" x2="0" y1="542.8" y2="504.8" gradientTransform="translate(-384.57-499.8)" gradientUnits="userSpaceOnUse"><stop stop-color="#977a5c" offset="0"/><stop stop-color="#9d8062" offset="1"/></linearGradient><linearGradient id="f" x1="11" x2="29.13" y1="4" y2="22.13" gradientTransform="translate(7 4)" gradientUnits="userSpaceOnUse"><stop offset="0"/><stop stop-opacity="0" offset="1"/></linearGradient><linearGradient id="g" x1="8" x2="21" y1="4" y2="32" gradientTransform="translate(7 4)" gradientUnits="userSpaceOnUse"><stop stop-color="#bdc3c7" offset="0"/><stop stop-color="#7f8c8d" offset="1"/></linearGradient><linearGradient id="h" x1="21.57" x2="42" y1="8.773" y2="29.2" gradientUnits="userSpaceOnUse" xlink:href="#f"/><linearGradient id="i" x1="14" x2="21" y1="39" y2="46" gradientUnits="userSpaceOnUse" xlink:href="#f"/></defs><rect x="6" y="4" width="36" height="40" rx="0" fill="url(#c)"/><rect x="7" y="5" width="34" height="38" fill="url(#e)" opacity=".5"/><rect x="6" y="43" width="36" height="1" fill="#aa7f41"/><rect x="8" y="6" width="32" height="36" fill="url(#d)"/><g fill="#1f1f1f" fill-opacity=".314"><rect x="8" y="40" width="32" height="2"/><rect x="8" y="41" width="32" height="1"/></g><g fill-rule="evenodd"><path d="m21.57 8.773-0.57 1.227 1 34h20v-14.797z" fill="url(#h)" opacity=".2"/><path d="m18 8 2 2 2 20-7 2z" fill="url(#f)" opacity=".2"/></g><g stroke-linejoin="bevel"><path d="m18 8a2 2 0 0 0 -2 2 2 2 0 0 0 .855469 1.636719C15.389 16.06 12.71 23.29 10 26c0 0 4 6 4 10h10C24 32 28 26 28 26 25.29 23.29 22.613 16.07 21.15 11.639A2 2 0 0 0 22 10 2 2 0 0 0 20 8v18.27c.618.357.999 1.017 1 1.73 0 1.105-.895 2-2 2-1.105 0-2-.895-2-2 .001-.713.382-1.372 1-1.729V12z" fill="url(#g)" stroke-width="2"/><g stroke-width="6.2"><path d="m14 36h10c0.831 0 1.5 0.669 1.5 1.5s-0.669 1.5-1.5 1.5h-10c-0.831 0-1.5-0.669-1.5-1.5s0.669-1.5 1.5-1.5" fill="url(#b)"/><rect x="14" y="39" width="10" height="5" rx="0" fill="url(#a)" stroke-linecap="round"/></g></g><path d="m14 39 5 5h5v-5z" fill="url(#i)" fill-rule="evenodd" opacity=".2"/></svg>
