<?xml version="1.0" encoding="UTF-8"?>
<svg id="a" version="1.1" viewBox="0 0 48 48" xmlns="http://www.w3.org/2000/svg"><g id="b"><rect id="c" x=".010605" y="-.0029392" width="48.035" height="48.035" ry="5.1387" fill="#241f1c"/><g id="d"><g id="e" fill="#b3b3b3"><path id="f" d="m17.94 44.063c-1.0632-0.08621-2.1407-0.08621-3.2326 0 0.08619-1.839 0.12929-5.2727 0.1293-10.301-1.5804 3.8504-4.0946 6.7956-7.5427 8.8357-0.54595-1.1206-1.408-1.8677-2.5861-2.2413 2.3275-0.97696 4.2239-2.4999 5.6893-4.5687 2.155-2.9309 3.1033-6.6663 2.8447-11.206l-0.0431-6.9824h10.861c-1.4942-1.6091-3.0602-3.132-4.698-4.5687l2.112-2.4568c2.2987 1.9827 4.4394 4.1234 6.4221 6.4221l-0.73272 0.60341h9.5684v12.241h-20.818c-0.14368 1.0344-0.38792 2.0258-0.73272 2.974h22.714v11.163h-2.974v-2.4137h-17.025c-1.5e-5 1.0057 0.01435 1.839 0.0431 2.4999m16.982-9.0943h-17.111c-1.5e-5 1.6666 0.01435 3.1607 0.0431 4.4825h17.068v-4.4825m-18.749-7.2841h17.585v-3.1464h-17.585v3.1464m17.585-5.2583v-2.7154l-17.585 0.0431v2.6723h17.585m-9.7839-19.654c1.0631 0.51725 2.1981 0.96262 3.405 1.3361l-1.0344 1.5947c0.9482 1.1494 2.0976 2.3993 3.4481 3.7498 2.5286 2.6148 5.6175 4.7555 9.2667 6.4221 2.0113 0.94824 4.0946 1.7672 6.2496 2.4568-1.0345 0.51723-1.7815 1.2787-2.2413 2.2844-4.109-1.3792-7.7438-3.3188-10.905-5.8186-2.9022-2.2125-5.3876-4.5112-7.4565-6.8962-3.3332 4.3101-7.2554 7.9019-11.767 10.775-2.1838 1.3505-4.5256 2.4999-7.0255 3.4481-0.40228-1.0631-1.1063-1.9108-2.1119-2.543 2.4999-0.91947 4.8848-2.0114 7.1548-3.2757 3.6779-2.0401 6.4795-4.2526 8.4047-6.6376 1.6953-2.155 3.2326-4.4537 4.6118-6.8962" fill="#b3b3b3"/></g></g></g></svg>
