<?xml version="1.0" encoding="UTF-8"?>
<svg id="c" enable-background="new" version="1.0" viewBox="0 0 16 16" xmlns="http://www.w3.org/2000/svg"><title id="d">Adwaita Icon Template</title><defs id="e"><clipPath id="b"><rect id="f" x="511.03" y="352.12" width="3.3579" height="1.7579" fill="#263742" opacity=".81" stroke="#263742" stroke-linecap="round" stroke-linejoin="miter" stroke-miterlimit="4" stroke-width=".24205" style="paint-order:normal"/></clipPath><clipPath id="a"><rect id="g" x="511.03" y="352.12" width="3.3579" height="1.7579" fill="#263742" opacity=".81" stroke="#263742" stroke-linecap="round" stroke-linejoin="miter" stroke-miterlimit="4" stroke-width=".24205" style="paint-order:normal"/></clipPath></defs><g id="h" transform="matrix(5 0 0 5 -2535.6 -1750)" enable-background="new"><rect id="i" x=".49993" y=".49989" width="15" height="15" rx="1.6875" ry="1.7308" enable-background="new" fill="#00aade" stroke="#006888" stroke-linejoin="miter" stroke-miterlimit="4" stroke-width=".99977" style="paint-order:normal"/><rect id="j" x=".74666" y="8.9999" width="14.691" height="6.2813" rx="0" ry="0" enable-background="new" fill="#485e6b" style="paint-order:normal"/><rect id="k" transform="matrix(5 0 0 4.7331 -2555.6 -1657.6)" x="511.21" y="350.5" width="3" height="3" rx=".33751" ry=".34616" clip-path="url(#b)" enable-background="new" fill="none" stroke="#263742" stroke-linejoin="miter" stroke-miterlimit="4" stroke-width=".19995" style="paint-order:normal"/><rect id="l" x="2" y="11" width="3" height="3" rx=".8379" ry=".8379" enable-background="new" fill="#d4ade2" fill-rule="nonzero"/><rect id="m" x="7" y="11" width="3" height="3" rx=".8379" ry=".8379" enable-background="new" fill="#d4ade2" fill-rule="nonzero"/><rect id="n" x="507.21" y="350.1" width="3" height="3" rx=".33751" ry=".34616" enable-background="new" fill="#00aade" stroke="#006888" stroke-linejoin="miter" stroke-miterlimit="4" stroke-width=".19995" style="paint-order:normal"/><rect id="o" x="507.26" y="351.8" width="2.9382" height="1.2563" rx="0" ry="0" enable-background="new" fill="#485e6b" style="paint-order:normal"/><rect id="p" transform="matrix(1 0 0 .94661 -4 18.478)" x="511.21" y="350.5" width="3" height="3" rx=".33751" ry=".34616" clip-path="url(#a)" enable-background="new" fill="none" stroke="#263742" stroke-linejoin="miter" stroke-miterlimit="4" stroke-width=".19995" style="paint-order:normal"/><rect id="q" x="507.51" y="352.2" width=".6" height=".6" rx=".16758" ry=".16758" enable-background="new" fill="#d4ade2" fill-rule="nonzero"/><rect id="r" x="508.51" y="352.2" width=".6" height=".6" rx=".16758" ry=".16758" enable-background="new" fill="#d4ade2" fill-rule="nonzero"/><g id="s" transform="matrix(.045997 .017159 -.045997 .017159 503.32 347.05)" enable-background="new"><rect id="t" transform="matrix(-.41536 -.90966 .90966 .41536 0 0)" x="14.655" y="203.85" width="12.44" height="66.348" rx="4.4346" ry="0" fill="#070c0f" style="paint-order:normal"/><rect id="u" transform="matrix(-.41536 -.90966 .90966 .41536 0 0)" x="14.654" y="187.27" width="12.44" height="24.88" rx="0" ry="0" enable-background="new" fill="#f1f3f5" style="paint-order:normal"/></g></g></svg>
