<?xml version="1.0" encoding="UTF-8"?>
<svg id="f" enable-background="new" version="1.0" viewBox="0 0 128 128" xmlns="http://www.w3.org/2000/svg" xmlns:xlink="http://www.w3.org/1999/xlink"><title id="g">Adwaita Icon Template</title><defs id="h"><radialGradient id="a" cx="340.17" cy="275.12" r="225" gradientTransform="matrix(.28413 0 0 .58638 -6.5862 131.74)" gradientUnits="userSpaceOnUse"><stop id="i" stop-color="#a347ba" offset="0"/><stop id="j" stop-color="#c061cb" stop-opacity=".12598" offset="1"/></radialGradient><radialGradient id="b" cx="100.27" cy="-60.348" r="225" gradientTransform="matrix(.24889 0 0 .37443 5.4519 248.73)" gradientUnits="userSpaceOnUse"><stop id="k" stop-color="#dc8add" offset="0"/><stop id="l" stop-color="#1c71d8" offset="1"/></radialGradient><linearGradient id="e" x1="88.596" x2="536.6" y1="-449.39" y2="-449.39" gradientTransform="matrix(.25 0 0 .25 -14.149 400.35)" gradientUnits="userSpaceOnUse"><stop id="m" stop-color="#77767b" offset="0"/><stop id="n" stop-color="#c0bfbc" offset=".035714"/><stop id="o" stop-color="#9a9996" offset=".071365"/><stop id="p" stop-color="#9a9996" offset=".92857"/><stop id="q" stop-color="#c0bfbc" offset=".96429"/><stop id="r" stop-color="#77767b" offset="1"/></linearGradient><linearGradient id="d" x1="42" x2="42" y1="290" y2="274" gradientTransform="translate(10,-1.4e-5)" gradientUnits="userSpaceOnUse"><stop id="s" stop-color="#c0bfbc" offset="0"/><stop id="t" stop-color="#77767b" offset="1"/></linearGradient><linearGradient id="c" x1="66" x2="66" y1="284" y2="288" gradientTransform="translate(20 4)" gradientUnits="userSpaceOnUse"><stop id="u" stop-color="#f6f5f4" offset="0"/><stop id="v" stop-color="#deddda" offset="1"/></linearGradient></defs><g id="w" transform="translate(0,-172)"><g id="x"><rect id="y" transform="translate(0,172)" width="0" height="0" fill="#1a5fb4"/><g id="z" transform="translate(-10)"><rect id="aa" x="44" y="264" width="60" height="28" enable-background="new" fill="url(#d)" style="paint-order:normal"/><path id="ab" d="m42 288h64.062c1.9375 0 3.9375 2 3.9375 4h-72c0-2 2-4 4-4z" enable-background="new" fill="url(#c)"/></g><g id="ac" transform="translate(0,-16)"><rect id="ad" x="8" y="212" width="112" height="76" rx="8" ry="8" enable-background="new" fill="url(#e)" style="paint-order:normal"/><rect id="ae" x="8" y="200" width="112" height="84" rx="8" ry="8" enable-background="new" fill="#deddda" style="paint-order:normal"/><rect id="af" x="12" y="204" width="104" height="76" rx="4" ry="4" enable-background="new" fill="#241f31" style="paint-order:normal"/><rect id="ag" x="16" y="208" width="96" height="68" enable-background="new" fill="url(#b)" style="paint-order:normal"/><rect id="ah" x="16" y="208" width="96" height="68" enable-background="new" fill="url(#a)" opacity=".753" style="paint-order:normal"/><g id="ai" transform="matrix(3 0 0 3 -170 -1249)" enable-background="new"><rect id="aj" transform="rotate(-90)" x="-505" y="70" width="16" height="16" color="#bebebe" fill="none"/><path id="ak" transform="matrix(.5 0 0 .5 43.25 464.75)" d="m69.5 52.5c-5.6284 0-10.343 2.0007-14 5.1719v2.8281h2.9609c3.0386-2.5293 6.4392-4 11.039-4s8.0005 1.5591 11.039 4h2.9609v-2.7617c-3.2809-2.9315-8.3716-5.2383-14-5.2383zm0 6c-4.3333 0-8.0396 1.4776-10 4v2h4c1.5776-1.213 3.5177-2 6-2s4.4388 0.78696 6 2h4v-2c-1.9896-2.4458-5.7468-4-10-4zm0 6c-2.5147 0-4.4314 0.6233-6 2v2h12v-2c-1.6738-1.3441-3.4853-2-6-2zm0 6a4 4 0 0 0-4 4 4 4 0 0 0 4 4 4 4 0 0 0 4-4 4 4 0 0 0-4-4z" fill="#fff"/></g></g></g></g></svg>
