<?xml version="1.0" encoding="UTF-8"?>
<svg version="1.0" viewBox="0 0 125.95 125.95" xmlns="http://www.w3.org/2000/svg" xmlns:xlink="http://www.w3.org/1999/xlink"><defs><linearGradient id="h" x1="30.503" x2="60.129" y1="81.022" y2="55.233" gradientUnits="userSpaceOnUse"><stop stop-color="#fff" offset="0"/><stop stop-color="#fff" stop-opacity="0" offset="1"/></linearGradient><linearGradient id="e" x1="91.41" x2="80.946" y1="41.618" y2="27.787" gradientUnits="userSpaceOnUse"><stop stop-color="#fff" offset="0"/><stop stop-color="#ccc" offset="1"/></linearGradient><linearGradient id="N" x1="85.782" x2="45.193" y1="23.774" y2="34.42" gradientUnits="userSpaceOnUse"><stop stop-color="#a5a5a5" offset="0"/><stop stop-color="#fff" offset="1"/></linearGradient><linearGradient id="f" x1="45.194" x2="-18.549" y1="42.748" y2="80.891" gradientUnits="userSpaceOnUse"><stop stop-color="#fff" stop-opacity="0" offset="0"/><stop stop-color="#fff" offset="1"/></linearGradient><linearGradient id="k" x1="104.77" x2="107.59" y1="64.339" y2="20.723" gradientUnits="userSpaceOnUse"><stop stop-color="#fff" offset="0"/><stop stop-color="#fff" stop-opacity="0" offset="1"/></linearGradient><linearGradient id="y" x1="11.855" x2="104.85" y1="64.663" y2="64.663" gradientTransform="matrix(1 0 0 -1 2.7879 128.37)" gradientUnits="userSpaceOnUse"><stop stop-color="#ffdf00" offset="0"/><stop stop-color="#ff9000" offset="1"/></linearGradient><linearGradient id="u" x1="11.126" x2="104.75" y1="40.099" y2="40.099" gradientTransform="matrix(1 0 0 -1 2.7879 128.37)" gradientUnits="userSpaceOnUse"><stop stop-color="#ffdf00" offset="0"/><stop stop-color="#ff9000" offset="1"/></linearGradient><linearGradient id="G" x1="68.345" x2="101.28" y1="90.623" y2="68.024" gradientTransform="matrix(1 0 0 -1 2.7879 128.37)" gradientUnits="userSpaceOnUse"><stop stop-color="#b3caff" offset="0"/><stop stop-color="#0052bc" offset="1"/></linearGradient><linearGradient id="F" x1="84.319" x2="87.49" y1="49.683" y2="41.525" gradientTransform="matrix(1 0 0 -1 2.7879 128.37)" gradientUnits="userSpaceOnUse"><stop stop-color="#b3b3b3" offset="0"/><stop stop-color="#828282" offset="1"/></linearGradient><linearGradient id="a" x1="77.466" x2="70.698" y1="52.442" y2="41.078" gradientTransform="matrix(1.2001 0 0 -.83327 2.7879 128.37)" gradientUnits="userSpaceOnUse" xlink:href="#e"/><linearGradient id="c" x1="68.345" x2="101.28" y1="90.623" y2="68.024" gradientTransform="matrix(1 0 0 -1 2.7879 128.37)" gradientUnits="userSpaceOnUse" xlink:href="#f"/><linearGradient id="d" x1="60.39" x2="79.355" y1="116.3" y2="67.517" gradientTransform="matrix(1 0 0 -1 2.7879 128.37)" gradientUnits="userSpaceOnUse"><stop stop-color="#b3b3b3" offset="0"/><stop stop-color="#828282" offset="1"/></linearGradient><linearGradient id="g" x1="64.755" x2="110.93" y1="25.712" y2="130.62" gradientTransform="matrix(1 0 0 -1 2.7879 128.37)" gradientUnits="userSpaceOnUse" xlink:href="#e"/><linearGradient id="S" x1="110.02" x2="110.7" y1="39.603" y2="37.525" gradientTransform="matrix(.74473 0 0 -1.3428 2.7879 128.37)" gradientUnits="userSpaceOnUse" xlink:href="#h"/><linearGradient id="R" x1="87.698" x2="85.954" y1="51.387" y2="52.866" gradientTransform="matrix(1 0 0 -1 2.7879 128.37)" gradientUnits="userSpaceOnUse"><stop stop-color="#fff" offset="0"/><stop stop-color="#fff" stop-opacity="0" offset="1"/></linearGradient><linearGradient id="w" x1="20.037" x2="94.89" y1="28.482" y2="26.173" gradientTransform="matrix(1 0 0 -1 2.7879 128.37)" gradientUnits="userSpaceOnUse"><stop stop-color="#a5a5a5" offset="0"/><stop stop-color="#fff" offset="1"/></linearGradient><linearGradient id="v" x1="110.29" x2="107.59" y1="57.111" y2="20.723" gradientTransform="matrix(1 0 0 -1 -29.116 114.71)" gradientUnits="userSpaceOnUse" xlink:href="#k"/><linearGradient id="z" x1="29.56" x2="60.129" y1="79.313" y2="55.233" gradientTransform="matrix(.9757 0 0 -1 4.1843 128.37)" gradientUnits="userSpaceOnUse" xlink:href="#h"/><linearGradient id="x" x1="33.368" x2="109.67" y1="107.72" y2="86.741" gradientTransform="translate(2.7879 2.4162)" gradientUnits="userSpaceOnUse"><stop stop-color="#a5a5a5" offset="0"/><stop stop-color="#fff" offset="1"/></linearGradient><linearGradient id="M" x1="23.591" x2="17.194" y1="73.304" y2="79.856" gradientTransform="matrix(1 0 0 -.80817 6.9356 122.28)" gradientUnits="userSpaceOnUse"><stop stop-color="#b3b3b3" offset="0"/><stop stop-color="#828282" offset="1"/></linearGradient><linearGradient id="L" x1="15.207" x2="12.61" y1="77.704" y2="97.136" gradientTransform="matrix(1 0 0 -.80817 6.9356 122.28)" gradientUnits="userSpaceOnUse" xlink:href="#e"/><linearGradient id="J" x1="21.197" x2="48.445" y1="65.81" y2="57.363" gradientTransform="matrix(1 0 0 -.80817 6.9356 122.28)" gradientUnits="userSpaceOnUse" xlink:href="#f"/><linearGradient id="P" x1="104.77" x2="107.59" y1="64.339" y2="20.723" gradientTransform="matrix(1 0 0 -1 10.542 124.29)" gradientUnits="userSpaceOnUse" xlink:href="#k"/><linearGradient id="O" x1="11.126" x2="104.75" y1="87.101" y2="87.101" gradientTransform="matrix(1 0 0 -1 2.7879 128.37)" gradientUnits="userSpaceOnUse"><stop stop-color="#ffdf00" offset="0"/><stop stop-color="#ff9000" offset="1"/></linearGradient><linearGradient id="I" x1="74.806" x2="36.551" y1="18.759" y2="57.944" gradientTransform="matrix(1 0 0 -.80817 6.9356 122.28)" gradientUnits="userSpaceOnUse"><stop stop-color="#b3b3b3" offset="0"/><stop stop-color="#828282" offset="1"/></linearGradient><linearGradient id="H" x1="44.809" x2="16.59" y1="40.005" y2="81.308" gradientTransform="matrix(1 0 0 -.80817 6.9356 122.28)" gradientUnits="userSpaceOnUse"><stop stop-color="#fff" offset="0"/><stop stop-color="#e6e6e6" offset=".5033"/><stop stop-color="#d4d4d4" offset="1"/></linearGradient><linearGradient id="Q" x1="18.614" x2="109.27" y1="107.66" y2="107.66" gradientUnits="userSpaceOnUse" xlink:href="#e"/><radialGradient id="b" cx="89.61" cy="32.573" r="15.584" gradientTransform="matrix(1 0 0 -1 2.7879 128.37)" gradientUnits="userSpaceOnUse"><stop stop-color="#fff" stop-opacity="0" offset="0"/><stop stop-color="#fff" stop-opacity="0" offset="1"/></radialGradient><radialGradient id="U" cx="46.999" cy="97.87" r="49.695" fx="47.111" fy="97.304" gradientTransform="matrix(1 0 0 -1 2.7879 128.37)" gradientUnits="userSpaceOnUse"><stop stop-color="#fff" offset="0"/><stop stop-color="#fff" stop-opacity="0" offset="1"/></radialGradient><radialGradient id="T" cx="89.903" cy="74.683" r="20.662" gradientTransform="matrix(1 0 0 -1 2.7879 128.37)" gradientUnits="userSpaceOnUse"><stop stop-color="#fff" offset="0"/><stop stop-color="#fff" stop-opacity="0" offset="1"/></radialGradient><radialGradient id="K" cx="10.883" cy="87.762" r="11.14" gradientTransform="matrix(1 0 0 -.80817 6.9356 122.28)" gradientUnits="userSpaceOnUse"><stop stop-color="#fff" stop-opacity="0" offset="0"/><stop stop-color="#fff" stop-opacity="0" offset="1"/></radialGradient></defs><path d="m114.57 110.63a50.109 11.411 0 1 1-100.22 0 50.109 11.411 0 1 1 100.22 0z" fill="#afafaf" fill-opacity=".31792"/><path d="m107.86 109.81a43.778 9.8926 0 1 1-87.556 0 43.778 9.8926 0 1 1 87.556 0z" fill="#676767" fill-opacity=".19075"/><path d="m45.382 44.604c-6.8467 0.65257-13.669 1.523-20.422 2.8477-3.3006 0.69797-6.5366 1.8442-9.701 2.9882-3.0403 1.165-5.8831 2.948-8.0903 5.3213-2.3233 3.2741-1.046 7.562-0.9076 11.223 1.0634 5.8443 2.6931 11.476 4.5404 17.102 2.016 5.1466 4.0023 10.369 6.6573 15.224 1.7525 3.4745 4.4597 6.5498 7.1754 9.3169 4.6084 2.5776 9.4736 4.7915 14.689 5.7626 5.4382 1.1705 10.975 1.964 16.495 2.6181 6.3564 0.48364 12.713-0.05956 19.06-0.41291 6.8267-1.2128 13.893-1.7644 20.246-4.7455 2.5237-0.99933 4.9511-2.3944 7.1087-4.0169 2.3332-2.0543 2.3392-1.0062 3.9879-3.6478 1.937-1.3871 6.6369-10.656 8.1459-14.787 1.529-3.7199 2.7062-7.8702 3.745-11.751 1.0456-6.2822 2.5477-12.747 1.2074-19.105-1.2834-2.4479-3.6013-4.0771-5.6956-5.7613-3.4835-1.5882-6.8548-3.4591-10.667-4.124-7.5807-1.9277-15.355-3.075-23.134-3.8408-8.7595-0.79126-17.563-0.56667-26.346-0.58321-2.6982 0.12394-5.3964 0.24789-8.0945 0.37183zm29.906 2.3438c9.2185 0.85398 18.478 1.7023 27.471 4.0052 3.2788 0.66357 6.3142 2.2475 9.3269 3.6337 1.8739 0.9841 3.642 2.351 4.8167 4.0744 1.0647 4.0283 0.45856 8.2642-0.07231 12.326-1.1866 6.3344-2.5136 12.716-5.2394 18.592-1.3948 3.4065-3.2564 6.6413-5.253 9.726-2.224 3.3738-4.8409 6.5685-8.4284 8.5571-4.1056 2.802-9.154 3.6474-13.837 5.0595-5.741 0.82499-11.457 1.909-17.277 1.9114-3.6404 0.35552-7.2664 0.15234-10.885-0.32748-4.4886-0.45951-9.017-0.67359-13.366-1.9746-4.0155-1.1276-8.3311-1.4032-11.997-3.5229-2.3761-1.1362-4.8919-2.0696-6.5926-4.1861-3.9178-4.7869-6.1789-10.766-8.5409-16.343-2.6414-7.1351-5.234-14.33-6.4917-21.86-0.36075-2.9088-1.3158-5.9622-0.28958-8.8273 1.9873-2.5678 4.705-4.4523 7.8185-5.344 4.1524-1.8581 8.6418-2.6587 13.081-3.5085 6.0681-0.74996 12.11-1.8423 18.194-2.3803 7.8644-0.11588 15.731-0.36453 23.584 0.20689l3.9782 0.18213z" fill="#907813" fill-rule="evenodd"/><g fill-rule="evenodd"><path d="m6.6513 59.451c-0.45954 12.175 10.438 40.697 17.396 47.655 3.5433 3.5433 17.945 9.31 39.462 9.31s34.948-5.7667 38.491-9.31c11.461-11.461 17.717-31.89 16.802-45.705-0.67818-10.249-28.788-16.014-55.293-16.404-31.533-0.4622-56.515 5.3642-56.858 14.454z" fill="url(#u)" fill-opacity=".46893"/><path d="m102.21 52.509c-3.2114 11.664-5.8852 17.498-7.567 19.676-1.5965 1.8486-23.846 1.7386-25.563 2.4563 4.1152-0.81854 7.8588-18.199 8.7537-26.49 8.411 0.26284 21.485 3.3061 24.377 4.3575z" fill="url(#v)"/><path d="m23.779 107.01-5.1652-7.9942c6.8393-5.982 21.394-11.043 43.567-11.197 24.144 0.008794 42.678 5.1659 46.821 10.214-2.2238 3.1564-4.5447 6.5035-7.0924 8.9509-2.1108-6.1295-18.746-11.857-39.516-12.053-22.931-0.2151-32.375 7.0661-38.615 12.08z" fill="url(#w)"/></g><path d="m101.76 106.04c0 6.1012-17.462 11.053-38.979 11.053-21.516 0-38.686-5.6142-38.716-10.921-0.034651-6.241 16.937-11.578 38.453-11.578 21.516 0 39.241 5.3459 39.241 11.447z" fill="url(#x)" fill-rule="evenodd"/><g fill-rule="evenodd"><path d="m6.7907 59.498c8.9223 13.702 32.762 15.873 56.4 16.29 23.638 0.2577 46.329-5.7544 55.678-14.321 2.385-10.008-26.968-16.518-55.518-16.629-37.852-0.36927-57.29 7.9009-56.559 14.66z" fill="url(#y)" fill-opacity=".51"/><path d="m9.4041 60.023c0.23729 5.684 16.716 10.781 30.347 12.142 8.0669 0.80552 11.459 1.064 13.798-2.4186 3.4415-5.1249 6.4092-16.274 6.9731-22.128-28.796-0.72494-51.386 6.1183-51.118 12.404z" fill="url(#z)" fill-opacity=".63277" opacity=".72881"/></g><path d="m62.869 45.243c-15.26 0-28.766 1.0007-38.831 3.6793-5.0324 1.3392-8.9759 2.6282-11.881 4.4549-1.4525 0.91334-2.8274 1.8329-3.6595 2.914-0.71047 0.92326-1.3679 1.7637-1.4917 4.0622h1.8285c-0.014285-1.6352 0.38137-2.3344 0.86347-2.9608 0.63646-0.82717 1.9483-1.5634 3.2851-2.404 2.6736-1.6811 6.5821-3.2398 11.522-4.5544 9.8797-2.6291 23.342-3.5513 38.495-3.5513 15.153 1.04e-4 28.765 2.0271 38.645 4.6562 4.9399 1.3147 8.8965 2.9036 11.57 4.5848 1.3367 0.84071 2.3586 1.6912 2.9952 2.5184 0.48119 0.62549 0.5619 1.1637 0.66178 1.7113h1.8602c-0.13215-1.0954-0.55181-2.1453-1.261-3.0673-0.83226-1.0812-1.9843-2.0247-3.437-2.9381-2.9044-1.8267-7.0102-3.4393-12.042-4.7785-10.066-2.6785-23.863-4.3265-39.123-4.3265z" fill="#fff" fill-rule="evenodd"/><path d="m118.79 49.965-46.945-20.662-22.753 51.694 33.137 14.585 19.885-7.7302 16.676-37.887z" fill="#fff"/><path d="m116.85 50.564-44.128-19.423-22.233 50.334 31.394 13.818 18.448-7.1988 16.519-37.531v-2e-4z" fill="url(#g)"/><path d="m118.88 49.76-47.15-20.753-22.934 52.105 33.427 14.713 20.058-7.7976 16.803-38.177-0.205-0.0904zm-0.91168 0.45172c-0.179 0.4052-15.948 37.297-16.022 37.465-0.1709 0.0665-19.541 7.5965-19.712 7.6629-0.1684-0.0741-32.442-14.28-32.846-14.457 0.1785-0.4057 22.525-50.221 22.704-50.627 0.4049 0.1782 45.472 19.778 45.877 19.956z" fill="url(#d)"/><path d="m114.93 55.213 2.039-4.633-44.267-19.484-11.848 26.812c3.2741 3.6698 7.4024 6.7363 12.249 8.8695 15.334 6.7493 33.055 1.0697 41.827-11.565z" fill="url(#c)"/><path d="m87.769 80.388-6.4618 14.681 0.7362 0.3241 19.892-7.733 0.3822-0.8685-14.549-6.4036z" fill="url(#b)" fill-opacity=".1"/><path d="m82.232 95.582 19.885-7.7302-13.808-6.0774-6.0774 13.808z" fill="#fff"/><path d="m83.529 95.226 17.5-6.8023-12.152-5.3485-5.3482 12.151z" fill="url(#a)"/><path d="M88.399365 81.56935c-.1138-.0501-.2456.0012-.2957.1149l-6.0774 13.8077c-.0367.0833-.0199.1799.0432.2459.0626.0648.1591.0862.2435.0538l19.885005-7.7303c.085-.0337.1413-.1138.1433-.2041.0019-.0913-.0509-.1738-.1343-.2105l-13.807605-6.0774zm13.131305 6.2698c-.934.3624-17.942205 6.9743-18.875705 7.3379.3993-.9071 5.6001-12.7232 5.7689-13.1068.3836.1688 12.199705 5.3697 13.106805 5.7689z" fill="url(#F)"/><path d="m95.868 100.91-52.558-23.134 23.134-52.558 52.559 23.134-23.134 52.558z" fill="none"/><path d="m114.57 55.753 2.3989-5.1728-44.267-19.484-2.3112 5.3984 44.179 19.258z" fill="url(#G)"/><path d="m30.734 99.873 36.464-3.111-20.058-51.237-23.905 1.6801-5.8574 14.738 13.357 37.929z" fill="#fff"/><path d="m23.65 48.39c-1.7292 4.1875-3.4583 8.375-5.1875 12.562l13.125 37.312c11.25-0.94792 22.5-1.8958 33.75-2.8438-6.3646-16.219-12.598-32.175-18.962-48.393-7.5312 0.54167-15.194 0.82049-22.725 1.3622z" fill="url(#H)"/><path d="m23.056 46.765c-1.1927 2.2526-2.0712 5.1077-3.1451 7.5894-0.97613 2.5297-2.0825 5.0834-2.9799 7.5981 4.5126 12.791 9.0077 25.588 13.531 38.375 12.44-0.98974 24.875-2.1058 37.312-3.1563-6.7866-17.342-13.559-34.689-20.344-52.031-8.1258 0.51653-16.25 1.0875-24.375 1.625zm33.656 24.531c3.3021 8.3542 6.6042 16.708 9.9062 25.062l-35.625 3c-4.3854-12.458-8.7708-24.917-13.156-37.375 1.8958-4.7812 3.7917-9.5625 5.6875-14.344 7.7396-0.52083 15.479-1.0417 23.219-1.5625 3.3229 8.4062 6.6458 16.812 9.9688 25.219z" fill="url(#I)"/><path d="m29.69 93.962 1.6333 4.6382 34.385-2.9335-10.817-27.304c-3.8397-1.5978-6.3839-1.8993-10.148-1.5781-11.911 1.0162-17.834 13.166-15.052 27.178z" fill="url(#J)"/><path d="m29.19 61.929-5.1757-14.698-0.5718 0.048733-5.8595 14.744 0.3061 0.86935 11.301-0.96407z" fill="url(#K)" fill-opacity=".1"/><path d="m28.951 61.803s-5.3635-14.271-5.3885-14.208l-5.9231 14.541c-0.0247 0.063523 7.5734 0.9639 11.312-0.33276z" fill="#656565" fill-opacity=".22674"/><path d="m23.235 47.205-5.8574 14.738 10.725-0.91501-4.8678-13.823z" fill="#fff"/><path d="m22.898 49.361-4.6295 11.787 8.7818-0.93668-4.1523-10.85z" fill="url(#L)"/><path d="M28.174949 61.23425c.0883-.007516.1272-.105305.0871-.219177l-4.8678-13.823233c-.0294-.083404-.0943-.154927-.1656-.18192-.0703-.026185-.133-.002586-.158.059643l-5.8574 14.738247c-.0247.063523-.0074.152664.0441.227016.0521.07516.1276.119933.1924.114437l10.7252-.915013zm-10.485.471084c.2755-.691635 5.154079-12.903415 5.428679-13.595857.714063 3.142224 4.616921 12.34335 4.752121 12.727313-.2979.025377-9.4762.808416-10.1808.868544z" fill="url(#M)"/><g transform="matrix(1 0 0 -1 2.1517 127)" fill-rule="evenodd"><path d="m81.933 42.722-36.809 10.166-8.2956-31.813 47.682 0.4644-2.5767 21.183z" fill="#fff"/><path d="m79.275 41.216-31.756 8.1223-6.2435-24.992 40.141-0.623-2.1413 17.493z" fill="url(#N)"/><path d="m82.5076 43.2046-.4103.1111-36.8167 10.1674-.5812.1741-.1789-.6252-8.312-31.7945-.1979-.8009.8248.0218 47.6807.4578.7125.0117-.1044.6781-2.5716 21.1936-.045.405zm-1.1491-.9646 2.4465-20.091-46.1678-.4439 7.94 30.4123L81.3585 42.24z" fill="#a3a3a3"/></g><path d="m6.9889 61.259c0.33146 12.319 9.1246 31.825 12.2 38.328 8.6469 7.0297 22.478 10.034 44.075 10.034 18.431-0.15905 38.483-2.955 45.385-10.233 5.1879-12.075 9.9052-24.035 10.468-39.058-2.7839 8.6723-29.479 15.844-55.985 15.454-29.194-1.002-49.052-6.8394-56.143-14.526z" fill="#f0c515" fill-opacity=".81977" fill-rule="evenodd"/><g fill-rule="evenodd"><path d="m7.646 61.128c0.33146 12.319 8.2047 34.322 12.726 40.431 7.3459 4.7994 21.164 8.3258 42.761 8.3258 18.431-0.15905 37.563-1.5093 44.465-8.7874 6.5021-10.367 11.482-26.4 11.388-40.503-1.3919 4.3361-0.58081 0.14893-2.3406 0.085865-3.074 10.451-39.902 12.8-53.119 12.74-26.832-0.1213-48.789-4.6052-55.88-12.292z" fill="url(#O)" fill-opacity=".51412"/><path d="m119 63.666c-0.83225 13.318-6.9366 31.691-12.824 38.469-1.5965 1.8486-9.2583 2.3957-10.976 3.1134 8.9778-5.024 16.776-24.877 17.033-36.084 0 0 3.3413 0.27738 6.7662-5.4991z" fill="url(#P)" opacity=".6"/><path d="m7.0634 60.383c0.1383 1.5777 0.70432 2.4931 1.5301 3.547 0.82574 1.0539 2.3752 2.4093 3.8166 3.2995 2.8828 1.7804 6.9566 3.3522 11.951 4.6575 9.9884 2.6107 23.713 4.1854 38.856 4.1854 15.143 0 28.836-1.5747 38.825-4.1854 4.9936-1.3053 9.0681-2.8771 11.95-4.6575 1.4416-0.89021 2.5849-1.8729 3.4108-2.9267 0.82592-1.0538 1.3765-2.2458 1.3765-3.5246 0-0.18842-0.1031-0.35034-0.12513-0.53493h-1.8461c0.03204 0.1721 0.21926 0.36595 0.21926 0.53493 0 0.69324-0.24429 1.4283-0.87598 2.2344-0.63171 0.80623-1.6458 1.6667-2.9723 2.4861-2.653 1.6386-6.5793 3.1244-11.482 4.4058-9.804 2.5626-23.443 4.1855-38.48 4.1855-15.038 0-28.645-1.6228-38.449-4.1855-4.9022-1.2813-8.67-2.8776-11.323-4.5162-1.3266-0.81932-2.5301-1.5693-3.1618-2.3756-0.63171-0.80613-1.4162-2.1138-1.4162-2.807l-1.8031 0.17745z" fill="#fff"/><path d="m24.436 108.19c-0.87745-1.1322-1.8797-0.76605-5.8223-9.3084 1.0267 3.1744 11.318 10.696 43.83 10.882 24.143-0.23762 42.416-4.2964 46.821-11.602-0.90962 4.0763-4.1504 8.0805-5.9096 10.265-3.425 3.7271-20.192 8.9075-40.962 8.7111-22.931-0.2151-35.619-5.9296-37.958-8.9478z" fill="url(#Q)"/><path d="m24.173 108.72c-0.87745-1.1322-3.7196-4.8401-5.4281-9.0456 2.5504 3.6899 6.0751 7.5375 7.2315 8.725 4.1394 4.2511 23.756 7.1187 36.419 7.0961 12.072-0.11881 29.914-2.3611 39.189-7.2358 0.85403-0.44886 4.6233-4.3386 7.9433-10.357-2.0924 5.9162-4.324 8.4202-6.1725 10.528-3.3358 3.8039-20.192 8.9075-40.962 8.7111-22.931-0.2151-35.882-5.4039-38.221-8.4222z" fill="#2a2a2a"/><path d="m90.412 75.075-6.5425 3.3337c0.41781 3.1234 7.3558 2.4496 8.6509 0.25145 0.85323-1.4933-1.5109-3.3064-2.1084-3.5852z" fill="#5e2f2f" fill-opacity=".40116"/><path d="m55.6 4.2287c-9.0446 0.43616-16.979 6.7398-20.755 14.697-4.2181 8.6311-5.2747 18.127-4.2756 27.588 3.3957-0.53095 4.8803-0.41241 7.1842-0.86718-0.53841-8.7162-0.42495-18.162 4.9652-25.979 3.3335-4.6425 9.2017-7.5788 15.349-7.6729 5.9675-0.091405 13.152 2.9106 16.879 8.6066 6.3048 8.6394 7.8996 19.843 8.3108 30.31 0.32486 7.9754-0.12028 15.588-0.12333 23.566-1.6086 1.5505-1.054 4.5832 1.1875 5.25 2.5661 0.76338 6.3306 0.70845 7.9967-1.625 0.56587-1.4461-0.4116-3.0415-1.625-3.7812 0.092473-15.575 1.1246-31.644-3.9688-46.625-2.9434-8.2338-8.0392-16.322-16.104-20.312-4.6061-2.3821-9.8442-3.4058-15.021-3.1565z" fill="#9e6d0b" fill-opacity=".99403"/><path d="m57.257 5.1662c-8.5863 0-15.783 4.543-20.25 11.937-4.3698 7.2333-6.3062 17.675-5.4818 29.224 3.4662-0.68016 0.69451 0.040355 2.8111-0.68096-2.2338-17.66 5.1385-33.681 17.717-35.976 10.136-1.8495 17.396 2.9607 21.36 6.9027 3.9643 3.943 6.7644 9.518 8.6562 15.938 3.4097 11.569 2.3887 31.166 2.4294 42.23-5.1869 6.6222 12.516 5.241 5.194-0.0496 0.0161-11.49 1.1447-29.71-2.9358-43.556-2.0403-6.9227-5.1313-13.283-9.9063-18.032-4.775-4.748-11.298-7.766-19.562-7.937h-0.0312z" fill="#fa0"/><path d="m89.047 75.257c0.3187 1.0887-0.008987 2.3315-2.0404 3.1016 1.7128 0.1593 3.3498-0.67858 3.4621-1.0408 0.33476-1.0793-0.82425-1.782-1.4218-2.0608z" fill="url(#R)"/><path d="m84.947 78.111c-0.2133-1.0212-0.083156-2.1967 1.1365-3.21-1.1067 0.209-1.7517 1.3648-1.779 1.7857-0.023 0.3205 0.24253 1.1628 0.64243 1.4243z" fill="url(#S)"/><path d="m89.194 74.499c0.5008-11.857 0.4508-37.736-3.6576-45.124 3.0886 9.4131 3.0765 30.989 2.2105 45.188l1.4471-0.064z" fill="url(#T)"/><path d="m83.036 27.346c-3.2225-8.796-7.924-19.06-20.18-20.99-10.376-1.61-15.268-0.861-23.495 7.922 7.1177-5.615 13.964-8.648 22.778-6.696 11.661 2.628 15.911 11.402 19.177 20.344 4.2218 11.352 4.3575 34.944 3.8821 46.955 1.7526-16.411 1.6006-37.615-2.1622-47.535z" fill="url(#U)"/></g></svg>
