<?xml version="1.0" encoding="UTF-8"?>
<svg id="c" enable-background="new" version="1.0" viewBox="0 0 16 16" xmlns="http://www.w3.org/2000/svg" xmlns:xlink="http://www.w3.org/1999/xlink"><title id="d">Adwaita Icon Template</title><defs id="e"><linearGradient id="a" x1="37.379" x2="39.903" y1="61.647" y2="65.362" gradientTransform="matrix(.02483 0 0 .05009 507.12 348.39)" gradientUnits="userSpaceOnUse"><stop id="f" stop-color="#bcc5ca" offset="0"/><stop id="g" stop-color="#bcc5ca" stop-opacity="0" offset="1"/></linearGradient><linearGradient id="b" x1="52.303" x2="80.692" y1="83.351" y2="83.351" gradientTransform="matrix(.02818 0 0 .02574 506.84 350.05)" gradientUnits="userSpaceOnUse"><stop id="h" stop-color="#79503c" offset="0"/><stop id="i" stop-color="#ad7702" offset=".5"/><stop id="j" stop-color="#79503c" offset="1"/></linearGradient></defs><g id="k" transform="matrix(5 0 0 5 -2535.6 -1750)" enable-background="new"><rect id="l" x="508.42" y="351.5" width=".59712" height="1.6898" rx=".28079" ry=".23936" fill="#603f2f" fill-rule="nonzero" stroke="#603f2f" stroke-linecap="round" stroke-linejoin="round" stroke-miterlimit="4" stroke-width=".027268"/><path id="m" d="m508.92 352.08c0.17302-0.11621 0.30805-0.0452 0.30805-0.0452s-0.77679 0.53415-1.453 0.51819l0.11445-0.23932c0.72823 0.0107 1.0223-0.43589 1.0223-0.43589 0.1461-0.055 0.3154-0.09 0.35246 0.14826l-0.0821 0.0133c-0.053 0.0171-0.22351 0.11454-0.26206 0.0404z" fill="#c02700" fill-rule="evenodd" stroke="#c02700" stroke-linejoin="miter" stroke-miterlimit="4" stroke-width=".083887"/><path id="n" d="m508.69 351.5h0.0422c0.1522 0 0.27475 0.0306 0.27475 0.12305v1.2934c0 0.0925-0.12255 0.17524-0.27475 0.17524h-0.0422c-0.15221 0-0.27476-0.0828-0.27476-0.17524v-1.2934c0-0.0924 0.12255-0.12305 0.27476-0.12305z" fill="url(#b)" fill-rule="nonzero" stroke="#603f2f" stroke-linecap="round" stroke-linejoin="round" stroke-miterlimit="4" stroke-width=".20831"/><rect id="o" x="507.31" y="350.4" width="2.8" height="1.2" ry=".17402" fill="#485e6b"/><rect id="p" x="507.41" y="350.1" width="2.6002" height="1.2002" ry=".15955" fill="#a7b0b7" stroke="#758087" stroke-miterlimit="4" stroke-width=".2"/><path id="q" d="m508.31 352.36 0.8-0.37143v0.22857l-0.8 0.37143z" fill="#c02700" fill-rule="evenodd"/><path id="r" d="m508.31 351.8 0.8 0.6v0.2l-0.8-0.6z" fill="#c02700" fill-rule="evenodd"/><path id="s" d="m509.31 351.4v-0.2c0.0754 0.11049 0.2 0.2 0.2 0.2z" fill="#485e6b" fill-rule="evenodd"/><path id="t" d="m507.91 351.6 0.2-0.2v0.2z" fill="url(#a)" fill-rule="evenodd"/></g></svg>
