<?xml version="1.0" encoding="UTF-8"?>
<svg id="h" enable-background="new" version="1.0" viewBox="0 0 128 128" xmlns="http://www.w3.org/2000/svg" xmlns:xlink="http://www.w3.org/1999/xlink"><title id="i">Adwaita Icon Template</title><defs id="j"><linearGradient id="a"><stop id="k" stop-color="#26a269" stop-opacity="0" offset="0"/><stop id="l" stop-color="#26a269" stop-opacity="0" offset=".7"/><stop id="m" stop-color="#26a269" offset="1"/></linearGradient><radialGradient id="e" cx="87.882" cy="15.896" r="20" gradientTransform="matrix(2.3188 0 0 1.2 -116.03 168.8)" gradientUnits="userSpaceOnUse"><stop id="n" stop-color="#8ff0a4" offset="0"/><stop id="o" stop-color="#33d17a" offset="1"/></radialGradient><radialGradient id="d" cx="87.882" cy="15.896" r="20" gradientTransform="matrix(0 2.3188 1.2 0 -3.1258 53.974)" gradientUnits="userSpaceOnUse"><stop id="p" stop-color="#8ff0a4" offset="0"/><stop id="q" stop-color="#33d17a" offset="1"/></radialGradient><radialGradient id="c" cx="87.684" cy="195.79" r="18" gradientTransform="matrix(1.7422 5.0634e-7 -3.8736e-7 1.3328 -66.438 -65.623)" gradientUnits="userSpaceOnUse" xlink:href="#a"/><radialGradient id="b" cx="92.98" cy="192.25" r="18" gradientTransform="matrix(1.3956 0 0 1.5685 -103.84 -41.021)" gradientUnits="userSpaceOnUse" xlink:href="#a"/><linearGradient id="g" x1="8.0742" x2="115.99" y1="246.03" y2="246.03" gradientUnits="userSpaceOnUse"><stop id="r" stop-color="#1e8254" offset="0"/><stop id="s" stop-color="#33d17a" offset=".073441"/><stop id="t" stop-color="#26a269" offset=".18463"/><stop id="u" stop-color="#2ec27e" offset=".76829"/><stop id="v" stop-color="#1e8254" offset="1"/></linearGradient><linearGradient id="f" x1="80" x2="116" y1="202" y2="202" gradientUnits="userSpaceOnUse"><stop id="w" stop-color="#26a269" offset="0"/><stop id="x" stop-color="#33d17a" offset=".11111"/><stop id="y" stop-color="#26a269" offset=".22222"/><stop id="z" stop-color="#26a269" offset="1"/></linearGradient></defs><g id="aa" transform="translate(0,-172)"><g id="ab"><g id="ac"><path id="ad" d="m88 182c-4.432 0-8 3.568-8 8v12 12c0 4.432 3.568 8 8 8h8c11.046 0 20-8.9543 20-20-0.013-10.717-8.4715-19.519-19.18-19.959-0.26959-0.02722-0.54331-0.04102-0.82031-0.04102z" enable-background="new" fill="url(#f)" style="paint-order:normal"/><path id="ae" d="m95.994 202.04c0 30.677-20.11 56.478-47.92 65.004v-5.0391c0-4.432-3.568-8-8-8h-12-12c-4.432 0-8 3.568-8 8v8c0 11.02 8.9134 19.957 19.924 19.998v0.0352c48.481 0 87.996-39.517 87.996-87.998z" color="#000000" color-rendering="auto" dominant-baseline="auto" enable-background="new" fill="url(#g)" image-rendering="auto" shape-rendering="auto" solid-color="#000000" style="font-feature-settings:normal;font-variant-alternates:normal;font-variant-caps:normal;font-variant-ligatures:normal;font-variant-numeric:normal;font-variant-position:normal;isolation:auto;mix-blend-mode:normal;paint-order:normal;shape-padding:0;text-decoration-color:#000000;text-decoration-line:none;text-decoration-style:solid;text-indent:0;text-orientation:mixed;text-transform:none;white-space:normal"/><path id="af" d="m105.99 200.04a77.997 77.997 0 0 1-77.997 77.998" fill="none" stroke="#33d17a" stroke-width="20" style="paint-order:normal"/><path id="ag" d="m88 180c-4.432 0-8 3.568-8 8v12 12c0 4.432 3.568 8 8 8h8c11.046 0 20-8.9543 20-20-0.013-10.717-8.4715-19.519-19.18-19.959-0.26959-0.02722-0.54331-0.04102-0.82031-0.04102z" fill="url(#e)" style="paint-order:normal"/><path id="ah" d="m8.0742 260c0-4.432 3.5833-7.6319 8-8h12 12c4.432 0 8 3.568 8 8v8c0 11.046-8.9543 20-20 20-10.717-0.013-19.519-8.4715-19.959-19.18-0.02722-0.26959-0.04102-0.54331-0.04102-0.82031z" enable-background="new" fill="url(#d)" style="paint-order:normal"/><path id="ai" d="m88 180c-4.432 0-8 3.568-8 8v12 12c0 4.432 3.568 8 8 8h8c11.046 0 20-8.9543 20-20-0.013-10.717-8.4715-19.519-19.18-19.959-0.26959-0.02722-0.54331-0.04102-0.82031-0.04102z" enable-background="new" fill="url(#c)" opacity=".484" style="paint-order:normal"/><path id="aj" d="m48.074 260c0-4.432-3.568-8-8-8h-12-12c-4.432 0-8 3.568-8 8v8c0 11.046 8.9543 20 20 20 10.717-0.013 19.519-8.4715 19.959-19.18 0.02722-0.26959 0.04102-0.54331 0.04102-0.82031z" enable-background="new" fill="url(#b)" opacity=".484" style="paint-order:normal"/></g></g></g></svg>
