<?xml version="1.0" encoding="UTF-8"?>
<svg viewBox="0 0 48 48" xmlns="http://www.w3.org/2000/svg"><defs><linearGradient id="a" x1="434.57" x2="384.57" y1="543.8" y2="503.8" gradientUnits="userSpaceOnUse"><stop stop-color="#343b40" offset="0"/><stop stop-color="#555e63" offset="1"/></linearGradient><linearGradient id="b" x2="0" y1="44" y2="4" gradientTransform="translate(384.57 499.8)" gradientUnits="userSpaceOnUse"><stop stop-color="#bd8d48" offset="0"/><stop stop-color="#e8b971" offset="1"/></linearGradient><linearGradient id="c" x1="17" x2="40" y1="17" y2="40" gradientUnits="userSpaceOnUse"><stop stop-color="#383e51" offset="0"/><stop stop-color="#655c6f" stop-opacity="0" offset="1"/></linearGradient></defs><g transform="translate(-384.57-499.8)"><g stroke-opacity=".55" stroke-width="2.8"><rect x="384.57" y="503.8" width="48" height="40" fill="url(#a)"/><path d="m384.57 503.8v40h48v-40h-46zm2 2h44v36h-44z" fill="url(#b)"/></g><path transform="translate(384.57 499.8)" d="m6 25v16h-1v3h43v-16l-3-3h-3.805c-9.208 2.61-9.571 14.545-14.684 14.508-5.11-.038-7.87-11.905-17.594-14.508z" fill="url(#c)" fill-rule="evenodd" opacity=".2"/><g fill="#aa7f41"><rect x="384.57" y="542.8" width="48" height="1" stroke-opacity=".55" stroke-width="2.8"/><path transform="translate(384.57 499.8)" d="m2 6v36h44v-36h-43zm1 1h42v34h-42z" color="#000000" color-rendering="auto" fill-opacity=".498" image-rendering="auto" shape-rendering="auto" text-rendering="auto"/></g><g fill="none" stroke-width=".984"><path d="m389.57 524.29c13.01 0 15.772 14.973 21.511 15.02 5.739.042 5.484-15.02 18.489-15.02" stroke="#787e82"/><path d="m389.57 523.31c13.01 0 15.772-10.274 21.511-10.316s5.484 10.316 18.489 10.316" stroke="#5090c3"/></g><rect x="389.57" y="506.8" width="1" height="34" color="#000000" color-rendering="auto" fill="#d6d6d6" image-rendering="auto" shape-rendering="auto" text-rendering="auto"/><path d="m389.57 523.31c13.01 0 15.772-14.973 21.511-15.02 5.739-.042 5.484 15.02 18.489 15.02" fill="none" stroke="#d6d6d6" stroke-width=".984"/><g color="#000000" color-rendering="auto" image-rendering="auto" shape-rendering="auto" text-rendering="auto"><rect x="419.57" y="539.8" width="4" height="1" fill="#007ad9"/><rect x="424.57" y="539.8" width="4" height="1" fill="#fff"/><g fill="#d6d6d6"><rect x="390.57" y="523.8" width="39" height="1"/><rect x="396.57" y="522.8" width="1" height="3"/><rect x="410.57" y="522.8" width="1" height="3"/><rect x="424.57" y="522.8" width="1" height="3"/></g></g></g></svg>
