<?xml version="1.0" encoding="UTF-8"?>
<svg id="a" enable-background="new" version="1.0" viewBox="0 0 16 16" xmlns="http://www.w3.org/2000/svg"><title id="b">Adwaita Icon Template</title><g id="c" transform="matrix(5 0 0 5 -2535.6 -1750)" enable-background="new"><rect id="d" x="533.51" y="337.2" width="8" height="7.8" rx=".90001" ry=".90001" enable-background="new" fill="#006888" style="paint-order:normal"/><rect id="e" x="507.21" y="350.1" width="3" height="3" rx=".33751" ry=".34616" enable-background="new" fill="#f1f3f5" stroke="#bcc5ca" stroke-linejoin="miter" stroke-miterlimit="4" stroke-width=".19995" style="paint-order:normal"/><rect id="f" x="507.91" y="351.8" width="1.6" height=".8" rx=".4" ry=".4" enable-background="new" fill="#a7b0b7"/><rect id="g" x="518.51" y="343.6" width="7.8" height="7.6" rx=".87751" ry=".87693" enable-background="new" fill="none" opacity=".423" stroke="#006888" stroke-linejoin="miter" stroke-miterlimit="4" stroke-width=".2" style="paint-order:normal"/><rect id="h" x="461.81" y="361.1" width="3" height="3" rx=".33751" ry=".34616" enable-background="new" fill="#00aade" stroke="#006888" stroke-linejoin="miter" stroke-miterlimit="4" stroke-width=".19995" style="paint-order:normal"/><g id="i" transform="matrix(.034483 0 0 .037968 461.1 363.21)" enable-background="new" stroke-width="2.4582"><path id="j" d="m37.862-31.612c-2.5648 0.03595-3.8208 3.1376-2.0045 4.9489 5.0742 2.7157 11.993 4.1773 16.542 5.3954-0.28411 10.883-0.48103 23.608-2.0465 28.78-0.86973 2.8585-1.723 4.9475-2.3782 6.455l-0.8267 1.9025c-0.22613 0.53344-0.54358 0.70349-0.54358 2.0951-0.0046 2.5871 3.1218 3.8814 4.9489 2.0498 1.322-1.3278 2.3229-3.053 3.7145-5.4245 1.3974-2.3715 2.9441-5.2131 4.4053-7.9499 2.3135-4.3313 3.561-10.586 4.3264-12.105 0.77116 1.5249 2.0122 7.7742 4.3256 12.105 1.4134 2.6802 2.8812 5.3311 4.4053 7.9499 1.3916 2.3715 2.3925 4.0967 3.7145 5.4245 1.8274 1.8217 4.9483 0.53058 4.9489-2.0498 0-1.3916-0.31745-1.5616-0.54358-2.0951-0.22614-0.53923-0.49622-1.1374-0.8267-1.8912-0.6552-1.5075-1.5084-3.6023-2.3782-6.455-1.5655-5.1778-1.7559-17.908-2.0458-28.792 6.0401-0.6671 12.322-3.853 16.541-5.3954 1.9114-1.9094 0.40477-5.1625-2.2876-4.9375 0 0-17.482-0.20224-25.854-0.20224-8.3784 0-25.854 0.20224-25.854 0.20224-0.09277-0.0116-0.19036-0.0116-0.28313-0.0116z" fill="#fbfbfb" stroke-width="2.4582"/><ellipse id="k" cx="64" cy="-42.338" rx="11.6" ry="10.535" fill="#fff" fill-rule="nonzero"/></g><rect id="l" x="507.91" y="350.6" width="1.6" height=".8" rx=".4" ry=".4" enable-background="new" fill="#00aade"/><path id="m" transform="matrix(.2 0 0 .2 507.11 350)" d="m6 3c-1.108 0-2 0.892-2 2 0 0.17383 0.02901 0.33941 0.070312 0.5 0.22195-0.86299 0.99552-1.5 1.9297-1.5h4c0.93417 0 1.7077 0.63701 1.9297 1.5 0.041301-0.16059 0.070312-0.32617 0.070312-0.5 0-1.108-0.892-2-2-2h-4z" enable-background="new" fill="#006888"/><circle id="n" transform="scale(-1,1)" cx="-509.11" cy="351" r=".3" enable-background="new" fill="#fff" stroke="#a7b0b7" stroke-linecap="square" stroke-linejoin="round" stroke-miterlimit="4" stroke-width=".2"/><path id="o" d="m508.31 351.8c-0.2216 0-0.4 0.1784-0.4 0.4 0 0.0348 6e-3 0.0679 0.0141 0.1 0.0444-0.1726 0.19911-0.3 0.38594-0.3h0.8c0.18683 0 0.34155 0.1274 0.38594 0.3 8e-3 -0.0321 0.0141-0.0652 0.0141-0.1 0-0.2216-0.1784-0.4-0.4-0.4z" enable-background="new" fill="#758087"/><circle id="p" transform="scale(-1,1)" cx="-508.31" cy="352.2" r=".3" enable-background="new" fill="#d2d8dc" stroke="#758087" stroke-linecap="square" stroke-linejoin="round" stroke-miterlimit="4" stroke-width=".2"/></g></svg>
