<?xml version="1.0" encoding="UTF-8"?>
<svg id="e" width="48" height="48" version="1.1" viewBox="0 0 12.7 12.7" xmlns="http://www.w3.org/2000/svg"><defs id="f"><radialGradient id="b" cx="-12.915" cy="3.5248" r="11.947" gradientTransform="matrix(.34313 -.000747 -.001541 .086832 2.6213 10.77)" gradientUnits="userSpaceOnUse"><stop id="g" offset="0"/><stop id="h" stop-opacity=".88235" offset=".391"/><stop id="i" stop-opacity=".31013" offset=".7963"/><stop id="j" stop-opacity="0" offset="1"/></radialGradient><linearGradient id="c" x1="562.27" x2="609.52" y1="456.76" y2="456.76" gradientTransform="matrix(.07191 0 0 .086328 10.083 2.0001)" gradientUnits="userSpaceOnUse"><stop id="k" stop-color="#E8E7E4" offset="0"/><stop id="l" stop-color="#fff" offset=".511"/><stop id="m" stop-color="#C2BFBA" offset="1"/></linearGradient><linearGradient id="a" x1="482.57" x2="79.034" y1="655.62" y2="-44.717" gradientTransform="matrix(.06511 0 0 .086321 13.868 1.9936)" gradientUnits="userSpaceOnUse"><stop id="n" stop-color="#cb0000" offset=".1402"/><stop id="o" stop-color="#ff2a01" offset="1"/></linearGradient><linearGradient id="d" x2="0" y1="1050.3" y2="1038.4" gradientTransform="matrix(-6.9807 0 0 6.9829 48.037 -7307.5)" gradientUnits="userSpaceOnUse"><stop id="p" stop-color="#ff5c5c" offset="0"/><stop id="q" stop-color="#ef9ca8" offset="1"/></linearGradient></defs><g id="r" transform="matrix(.2008 0 0 .2008 -.07576 -.075768)" style=""><title id="s">Book</title><path id="t" d="m10 13.771v48.228h40.472c1.8685 0 3.3727-2.0998 3.3727-4.7082v-38.811c0-2.6084-1.5042-4.7082-3.3727-4.7082z" fill="#a80000" stroke-width=".078379"/><path id="u" d="m10.586 20.833v40.161h39.929c1.8826 0 3.3982-2.0998 3.3982-4.7082v-30.744c0-2.6083-1.5156-4.7082-3.3982-4.7082z" fill="url(#c)" stroke-width=".07879"/><path id="v" d="m10 3.1773v55.823h40.308c1.8751 0 3.692-2.6012 3.692-5.2095v-45.905c0-2.6083-1.5095-4.7082-3.3846-4.7082z" fill="#a80000" stroke-width=".078518"/><path id="w" d="m13.868 1.9936v55.995h37.03c1.7096 0 3.0858-2.7782 3.0858-5.3864v-45.901c0-2.6081-1.3762-4.7078-3.0858-4.7078z" fill="url(#a)" fill-opacity=".99032" stroke-width=".074968"/><path id="x" d="m17.111 4.1599c5.2287 8.6246-3.9506 3.2555-2.6186 4.178-0.40023-1.1267 14.625-10.079-0.53728 0.59223-0.0911-2.0122 0.45247-2.1876 0.33706-5.144 1.587-0.4905 4.4623 9.44 3.9878 9.8386-0.61865-0.07953-2.8443-10.834-3.5711-6.3517-0.81004 0.83881 3.4441 6.9467 2.5922 7.5346 0.1125-2.6727-4.3732-6.6806-2.1717-7.2963-0.45367 2.5744-0.53749 0.18825-0.16078 0.18825m3.6354 3.0765-3.4563-4.9361 0.97008 4.7525-1.2166-6.4877-1.1632 2.6559 0.97462-3.8451c-6.6714 2.7364 8.6423 1.2697 3.285 3.0407l-1.8669 0.32592-1.5244 4.2998c-3.7006-2.1794-0.74556-5.437 9.0263-2.1282l-6.4669-0.34745c-3.6085-0.069836-10.72-6.9345 0.87884-6.064m-4.2023-0.061479c-1.753 0 10.753 2.604 6.8677 5.039-2.545 0.92328 1.3433 4.1872-2.6414 3.6465 0.73861-2.1781-2.9239-1.1615-2.7684-3.6335 1.0554 0.46178-8.3654-2.6914-4.2955-1.3508m6.1779-2.2085c2.1224 0.83882 0.02575 8.1528 1.3698 6.8522-3.2451 1.6776 2.2755-3.0666-0.67053-2.7108 1.356 1.3216-0.12298-0.52081-0.23377-2.87 0.3496 4.2752-0.53633 9.184 1.9332 4.9924m-0.0372-2.208c1.7457-0.83882-8.0899-4.8597-6.2876-5.5288 10.575-0.50997 3.51e-4 4.8738 0.39874 5.326l3.6803 1.8386c0.55151 3.9136 2.7955-0.53856 4.9967 1.9951l-3.3362 3.3528-5.017-4.9305c-11.54-6.9565 17.734 2.1852 4.4286-3.2117m3.3993-1.4509c-2.4584 0.37157-2.6631 6.9954-1.3853 7.8317 2.9595 8.3906 6.4089 14.041 9.7033 13.797-5.0892 2.4303-16.051-9.5467-19.746-20.813m19.746 20.813c7.7631-4.6098-8.6692-13.013-12.36-15.45-0.82974-2.3467-2.8421-8.8091 0.4967-9.0918 11.589 7.2099 18.641 17.726 14.754 22.673-0.93561 1.1734-1.9278 1.7613-2.9102 1.8449m-13.283-16.266c-0.53919-2.1598-0.84519-7.2412-2.1378-7.9963 3.0954 4.9303-1.8522 2.4455-2.0048 1.7333 0 0 1.6454-1.2712 2.4825-1.8567 4.9943 6.1254 4.4649-4.0778 7.2299 6.165" fill="url(#d)" stroke-width="2.461"/><path id="y" d="m14 2.0001h-4v55.321l4 0.67856z" fill="#a80000" stroke-width=".085043"/><path id="z" d="m10 57.362v4.6377h5v-1h-4v-3h3v-0.63767z" fill="#a80000" stroke-width=".075493"/><line id="aa" x1="11.39" x2="11.39" y1="2.742" y2="57.062" stroke="#acacac" stroke-dasharray="2.55, 2.55" stroke-linecap="round" stroke-width=".51"/></g><g id="ab" transform="matrix(1.0251 0 0 1.0251 -1.6157 .80461)" style=""><title id="ac">Pen</title><rect id="ad" transform="matrix(.49696 -.86777 .89346 .4521 .76201 .56552)" x="-8.434" y="9.5" width="10.658" height="2.645" fill="url(#b)" opacity=".43346" stroke-width=".1601" style=""><title id="ae">Shadow</title></rect><path id="af" d="m11.156 1.592-.295.016-3.15 7.286-.038 1.425 1.01-1.005 3.15-7.286-.191-.226Z" fill="#bdc3c7"/><path id="ag" d="M10.86 1.608 7.713 8.894l.19.227 3.149-7.286Z" fill-opacity=".2"/><path id="ah" d="m11.832 2.028-.295.016-3.149 7.287.295-.017Z" fill="#fff" fill-opacity=".2"/><path id="ai" d="m7.902 9.12.486.21-.715.989Z" fill-opacity=".2"/><path id="aj" d="m7.712 8.894.19.227-.23 1.198Z" fill-opacity=".4"/><path id="ak" d="m11.156 1.592-.295.016.19.227.486.21.295-.017-.19-.226z" fill-opacity=".2"/><path id="al" d="m7.922 8.409-.105.243.19.226.486.21.295-.017.105-.242-.295.016-.486-.21Zm2.781-6.437-.105.243.19.227.486.21.296-.017.105-.243-.296.017-.485-.21zm-.21.486-.105.243.19.227.486.21.296-.017.105-.243-.296.017-.485-.21z" fill="#fff" fill-opacity=".4"/><path id="am" d="m8.279 9.716-.193.033-.28-.121-.11-.161-.023.852Z" fill-opacity=".266"/></g></svg>
