<?xml version="1.0" encoding="UTF-8"?>
<svg viewBox="0 0 48 48" xmlns="http://www.w3.org/2000/svg" xmlns:xlink="http://www.w3.org/1999/xlink"><defs><linearGradient id="b"><stop stop-color="#999" offset="0"/><stop stop-color="#5c5c5c" offset="1"/></linearGradient><linearGradient id="a"><stop stop-color="#e6e6e6" offset="0"/><stop stop-color="#bdbdbd" offset="1"/></linearGradient><linearGradient id="h" x1="24" x2="24" y1="-6.2802" y2="53.28" gradientUnits="userSpaceOnUse" xlink:href="#a"/><linearGradient id="o" x1="23" x2="24" y1="24.5" y2="26" gradientUnits="userSpaceOnUse" xlink:href="#b"/><linearGradient id="s" x1="23.189" x2="24.811" y1="23.189" y2="24.811" gradientUnits="userSpaceOnUse" xlink:href="#a"/><linearGradient id="p" x1="19.393" x2="17.862" y1="29.692" y2="27.468" gradientUnits="userSpaceOnUse"><stop stop-color="#fff" offset="0"/><stop stop-color="#d7e5f4" offset="1"/></linearGradient><linearGradient id="n" x1="30.985" x2="25.047" y1="25.712" y2="17.104" gradientUnits="userSpaceOnUse"><stop stop-color="#f89f9f" offset="0"/><stop stop-color="#d13c3c" offset="1"/></linearGradient><linearGradient id="q" x1="17.98" x2="22.094" y1="23.109" y2="28.944" gradientUnits="userSpaceOnUse"><stop stop-color="#dce9f6" offset="0"/><stop stop-color="#bcd5ed" offset="1"/></linearGradient><linearGradient id="m" x1="26.507" x2="29.764" y1="16.545" y2="20.01" gradientUnits="userSpaceOnUse"><stop stop-color="#e26767" offset="0"/><stop stop-color="#d15656" offset="1"/></linearGradient></defs><linearGradient id="i" x1="2" x2="2" y1="30" y2="2" gradientTransform="translate(8 8.9705)" gradientUnits="userSpaceOnUse"><stop stop-color="#197cf1" offset="0"/><stop stop-color="#20bcfa" offset="1"/></linearGradient><linearGradient id="k" x1="23" x2="30" y1="13" y2="20" gradientTransform="translate(8 8.9705)" gradientUnits="userSpaceOnUse" xlink:href="#g"/><linearGradient id="g"><stop stop-color="#292c2f" offset="0"/><stop stop-opacity="0" offset="1"/></linearGradient><linearGradient id="j" x1="6" x2="26" y1="6" y2="26" gradientTransform="translate(8 8.9705)" gradientUnits="userSpaceOnUse" xlink:href="#g"/><linearGradient id="l" x1="2" x2="2" y1="30" y2="2" gradientTransform="translate(8 8.9705)" gradientUnits="userSpaceOnUse"><stop stop-color="#54d883" offset="0"/><stop stop-color="#abf9c7" offset="1"/></linearGradient><rect x="4" y="5" width="40" height="39" rx="20" ry="19.5" fill="#999"/><rect x="4" y="4" width="40" height="39" rx="20" ry="19.5" fill="url(#h)"/><rect x="6" y="6" width="36" height="35" rx="18" ry="17.5" fill="#999"/><g transform="matrix(1.2855 0 0 1.2143 -6.848 -6.3212)"><rect x="10" y="10.97" width="28" height="28" rx="14" fill="url(#i)"/><path d="m24 10.97a13.965 13.965 0 0 0-13.922 12.53l0.543 0.07 3.379 2.4 7.188 4.133 1.47 8.799a13.97 13.97 0 0 0 15.342-13.932c0-7.756-6.244-14-14-14z" fill="url(#j)" fill-rule="evenodd" opacity=".2"/><path d="m24 11.677c-5.7624 0.0073-10.982 2.9331-13.08 8.2939-0.01239 0.03166-0.24262 0.67364-0.25477 0.70542h0.3347l2.9993-0.99885 0.99975 0.99885 0.99975 1.0005v-1.9993l2.001-1.0005v-1.0005l1.9995-1.0005 1.9995-1.9993v1.0005l1.0013-1.0005-1.0013-1.0005h2.001v1.0005l1.9995-1.0005 6.4e-5 -0.70539-1-1c-0.33263-0.02858-0.66574-0.28918-0.99957-0.29392zm11.469 5.2939-1.4695-0.29483v1.0005l1.9615 0.02969c-0.33552-0.48079-0.49197-0.73532-0.49197-0.73532zm0.22154 1.0145-0.6898 0.69164-2.001 1.9993-0.99975 1.0005-0.99975 2.9998v1.0005l0.99975 1.0005 0.99975 0.99885 2.001 1.0005 2.589-0.63856c0.21628-0.90406 0.35077-1.8417 0.39352-2.8052-0.08398-2.5784-0.87031-5.0886-2.2927-7.2477zm-23.69 4.6919-0.99975 0.99885h-0.8387c-0.05 0.34-0.08744 0.68098-0.11243 1.023v0.0032l1.9509 0.97472 0.99975 1.0005 1.9995 0.99885 0.99975 1.0005-0.99975 1.0005v1.9993l0.99975 2.0009 2.001 1.9993v1.9157c1.8164 0.88309 3.8479 1.3784 5.997 1.3784 0.29256 0 0.5826-0.01254 0.8706-0.03056l0.13219-0.26379v-1.0005l1.9995-0.99885 0.99975-1.0005v-1.9993l1.0013-1.0005v-1.0005l-1.0013-1.0005-2.9993-0.99885-1.9995-2.0009h-1.0013l-0.99975-0.99885-2.9993-1.0005-2.001 1.0005-2.654-0.53388 0.65452-1.467h-0.99975v-1.9993z" fill="#1c73d2"/><path d="m37.73 22.24-4.73 4.73 3.758 3.758a13.984 13.984 0 0 0 0.972-8.488z" fill="url(#k)" fill-rule="evenodd" opacity=".2"/><path d="m24 10.97c-5.7964 0.0073-11.009 3.5858-13.079 9l0.07931 2.3e-5 3-1 2 2v-2l2-1v-1l2-1 2-2v1l1-1-1-1h2v1l2-1-1-1v-0.95c-0.33263-0.02858-0.66618-0.04526-1-0.05zm10.393 4.6014-0.39337 0.39865v1l1.4898-0.02114c-0.33552-0.48079-0.70329-0.94253-1.0964-1.3775zm1.3184 1.6865-0.71176 0.71214-3 3-1 3v1l2 2 2 1 2.791-0.688a14 14 0 0 0 0.209-2.312c-0.0021-2.7341-0.78408-5.4289-2.2882-7.7121zm-23.712 4.7121-1 1h-0.838c-0.05 0.34-0.088 0.681-0.113 1.023v2e-3l1.951 0.975 1 1 2 1 1 1-1 1v2l1 2 2 2v2.629c1.8735 0.8964 3.9231 1.3647 6 1.371 0.17-3e-3 0.34-9e-3 0.51-0.018l0.49-0.982v-1l2-1 1-1v-2l1-1v-1l-1-1-3-1-2-2h-1l-1-1-3-1-2 1h-2v-2h-1v-2z" fill="url(#l)"/><path d="m37.976 25.556c-0.2237-7.5617-6.414-13.578-13.979-13.586-7.5007 0.0047-13.665 5.9199-13.979 13.414-9e-3 -0.13789-0.01604-0.2759-0.021-0.414 0-7.732 6.268-14 14-14 7.732 0 14 6.268 14 14-0.0029 0.19546-0.0099 0.39084-0.021 0.586z" fill="#292c2f" opacity=".2"/><path d="m13.887 32.381c3.8006 5.3158 11.147 6.3019 16.59 2.2268 5.3903-4.0495 7.0147-11.492 3.6332-17.049 0.07284 0.09428 0.14434 0.18971 0.21437 0.28632 3.7217 5.5589 2.1927 13.311-3.3662 17.481-5.5589 4.1709-13.082 3.0458-16.804-2.5131-0.092-0.14209-0.181-0.28633-0.26697-0.43263z" fill="#fff" opacity=".3"/></g><path d="m24.003 24 1.9967-4 11-5" fill="url(#m)"/><path d="m37 15-8.0902 9-4.9054-0.0021z" fill="#0b0101" opacity=".2"/><path d="m24 23.998 4.4468-0.46136 8.551-8.537" fill="url(#n)"/><path d="m23.996 24.002-1.5184 4.4751-11.473 4.521z" fill="#0b0101" opacity=".2"/><rect x="23" y="23" width="2" height="3" rx="1" ry="1.1116" fill="url(#o)"/><path d="m23.997 24-1.9967 4-11 5" fill="url(#p)"/><path d="m24 24.002-4.4468 0.46136-8.551 8.537" fill="url(#q)"/><rect x="23" y="23" width="2" height="2.2233" rx="1" ry="1" fill="url(#o)"/><circle cx="24" cy="24" r="1" fill="url(#s)"/><path d="m4.0117 24c-0.0042792-0.16676-0.011719-0.33219-0.011719-0.5 0-10.803 8.92-19.5 20-19.5s20 8.697 20 19.5c0 0.16781-0.0074 0.33324-0.01172 0.5-0.2712-10.569-9.0804-19-19.988-19s-19.717 8.4308-19.988 19z" fill="#fff" fill-opacity=".2"/></svg>
