<?xml version="1.0" encoding="UTF-8"?>
<svg version="1.0" viewBox="0 0 128 128" xmlns="http://www.w3.org/2000/svg" xmlns:xlink="http://www.w3.org/1999/xlink"><defs><linearGradient id="z" x1="82" x2="64" y1="225.61" y2="196" gradientTransform="translate(0 -172)" gradientUnits="userSpaceOnUse"><stop stop-color="#e5a50a" offset="0"/><stop stop-color="#f6d32d" offset="1"/></linearGradient><linearGradient id="B" x1="82.001" x2="100" y1="246.39" y2="216" gradientTransform="translate(0 -172)" gradientUnits="userSpaceOnUse"><stop stop-color="#c64600" offset="0"/><stop stop-color="#ff7800" offset="1"/></linearGradient><linearGradient id="D" x1="64.499" x2="100" y1="257.07" y2="258" gradientTransform="translate(0 -172)" gradientUnits="userSpaceOnUse"><stop stop-color="#a51d2d" offset="0"/><stop stop-color="#e01b24" offset="1"/></linearGradient><linearGradient id="y" x1="45.999" x2="64" y1="246.97" y2="276" gradientTransform="translate(0 -172)" gradientUnits="userSpaceOnUse"><stop stop-color="#613583" offset="0"/><stop stop-color="#a347ba" offset="1"/></linearGradient><linearGradient id="A" x1="45.999" x2="28" y1="225.61" y2="256.78" gradientTransform="translate(0 -172)" gradientUnits="userSpaceOnUse"><stop stop-color="#1a5fb4" offset="0"/><stop stop-color="#3584e4" offset="1"/></linearGradient><linearGradient id="C" x1="63.999" x2="28" y1="215.22" y2="215.22" gradientTransform="translate(0 -172)" gradientUnits="userSpaceOnUse"><stop stop-color="#26a269" offset="0"/><stop stop-color="#33d17a" offset="1"/></linearGradient></defs><path d="M82 53.608v20.784L64 84.785 46 74.392V53.608l18-10.393z" fill="#3d3846"/><path d="m28 43.216v41.569" fill="none" stroke="#33d17a" stroke-width="36"/><path d="m64 105.57-36-20.785" fill="none" stroke="#3584e4" stroke-width="36"/><path d="m64 105.57 36-20.787" fill="none" stroke="#a347ba" stroke-width="36"/><path d="m100 43.215v41.568" fill="none" stroke="#e01b24" stroke-width="36"/><path d="M100 43.215L64 22.43" fill="none" stroke="#ff7800" stroke-width="36"/><path d="m28 43.216 36-20.785" fill="none" stroke="#f6d32d" stroke-width="36"/><path d="M64 123.57c9.941 0 18-8.06 18-18a18 18 0 0 0-7.744-14.766l-9.258-5.442-.998-.576a419.435 419.435 0 0 1-8.534-4.96A18 18 0 0 1 46 64v41.568c0 9.941 8.059 18 18 18zm-17.934-19.452c.024-.283.065-.562.102-.842-.04.28-.074.56-.102.842zm.938-4.412c.026-.075.045-.154.072-.229l.004-.002-.076.23z" fill="url(#y)"/><path d="M64 4.432c-9.941 0-18 8.059-18 18a18 18 0 0 0 7.744 14.765l9.258 5.442.998.576a419.435 419.435 0 0 1 8.534 4.96A18 18 0 0 1 82 64V22.432c0-9.941-8.059-18-18-18zm17.934 19.45c-.024.284-.065.563-.102.843.04-.28.074-.56.102-.842zm-.938 4.413c-.026.075-.045.153-.072.228l-.004.002z" fill="url(#z)"/><path d="M12.412 93.785c4.97 8.61 15.98 11.559 24.588 6.588a18 18 0 0 0 8.916-14.09l.083-10.737v-1.153c-.03-3.185-.017-6.864.03-9.87a18 18 0 0 1 8.97-16.11l-9 5.195-18 10.393-4.068 2.349-4.93 2.846c-8.61 4.97-11.56 15.98-6.589 24.589zm7.878-25.257c.257-.12.52-.224.78-.333a19.02 19.02 0 0 0-.78.333zm4.29-1.394c.078-.015.156-.038.234-.052l.004.002z" fill="url(#A)"/><path d="M115.588 34.216c-4.97-8.61-15.98-11.559-24.588-6.588a18 18 0 0 0-8.916 14.089l-.083 10.738v1.153c.03 3.185.017 6.864-.03 9.87a18 18 0 0 1-8.97 16.11l9-5.196L100 64l4.068-2.349 4.93-2.846c8.61-4.971 11.56-15.98 6.589-24.589zm-7.878 25.257c-.257.12-.52.224-.78.333.262-.105.522-.216.78-.333zm-4.29 1.394c-.078.015-.156.037-.234.051l-.004-.002c.08-.015.158-.032.238-.049z" fill="url(#B)"/><path d="M12.412 34.216c-4.97 8.61-2.02 19.618 6.588 24.588a18 18 0 0 0 16.66.677L45 54.184l.998-.576a419.443 419.443 0 0 1 8.563-4.91A18 18 0 0 1 73 48.412l-9-5.197-18.001-10.392-4.068-2.349-4.93-2.846c-8.61-4.971-19.619-2.021-24.59 6.588zm25.812-5.805c.233.162.454.337.678.509a18.002 18.002 0 0 0-.678-.51zm3.352 3.018c.052.06.11.115.162.176v.004z" fill="url(#C)"/><path d="M115.588 93.785c4.97-8.61 2.02-19.618-6.588-24.589a18 18 0 0 0-16.66-.676L83 73.817l-.998.576a419.416 419.416 0 0 1-8.563 4.91A18 18 0 0 1 55 79.59l9 5.196 18.001 10.393 4.068 2.349 4.93 2.846c8.61 4.97 19.619 2.021 24.59-6.588zM89.776 99.59c-.233-.162-.454-.337-.678-.509.222.175.448.345.678.51zm-3.352-3.018c-.052-.06-.11-.116-.162-.177v-.004l.162.182z" fill="url(#D)"/><path d="M46 53.608v20.784l18 10.393 18-10.393V53.608L64 43.215z" fill="#241f31"/></svg>
