<?xml version="1.0" encoding="UTF-8"?>
<svg viewBox="0 0 128 128" xmlns="http://www.w3.org/2000/svg" xmlns:xlink="http://www.w3.org/1999/xlink"><linearGradient id="a" x1="88.596" x2="536.6" y1="-449.39" y2="-449.39" gradientTransform="matrix(.23214 0 0 .32895 -7.567 263.83)" gradientUnits="userSpaceOnUse"><stop stop-color="#acabae" offset="0"/><stop stop-color="#deddda" offset=".038462"/><stop stop-color="#c0bfbc" offset=".076856"/><stop stop-color="#c0bfbc" offset=".92308"/><stop stop-color="#deddda" offset=".96154"/><stop stop-color="#9a9996" offset="1"/></linearGradient><linearGradient id="b" x1="27" x2="101" y1="33" y2="33" gradientUnits="userSpaceOnUse"><stop stop-color="#7e7c77" offset="0"/><stop stop-color="#9a9996" offset=".3"/><stop stop-color="#9a9996" offset="1"/></linearGradient><linearGradient id="c" x1="67.468" x2="67.468" y1="84" y2="36.783" gradientUnits="userSpaceOnUse"><stop stop-color="#deddda" offset="0"/><stop stop-color="#c0bfbc" offset="1"/></linearGradient><clipPath id="d"><path d="m79 72h15v16h-15z"/></clipPath><clipPath id="e"><path d="m93.219 72.922-14.219 14.219h-4.0625v-18.281h18.281z"/></clipPath><linearGradient id="f" x1="344" x2="340" y1="76" y2="72" gradientTransform="matrix(0 .12695 .12695 0 76.461 36.36)" gradientUnits="userSpaceOnUse"><stop stop-color="#d5d3cf" offset="0"/><stop stop-color="#fff" offset="1"/></linearGradient><filter id="g" x="0%" y="0%" width="100%" height="100%"><feColorMatrix in="SourceGraphic" values="0 0 0 0 1 0 0 0 0 1 0 0 0 0 1 0 0 0 1 0"/></filter><mask id="h"><g filter="url(#g)"><rect width="128" height="128" fill-opacity=".396"/></g></mask><clipPath id="i"><rect width="192" height="152"/></clipPath><linearGradient id="j" gradientUnits="userSpaceOnUse"><stop stop-color="#1c71d8" offset="0"/><stop stop-color="#62a0ea" offset=".32312"/><stop stop-color="#1b5aa6" offset=".59387"/><stop stop-color="#1c71d8" offset="1"/></linearGradient><linearGradient id="k" x1="224.5" x2="231.45" y1="282.5" y2="282.5" gradientTransform="matrix(1.5977 1.5977 -1.0607 1.0607 -56.853 -543.72)" xlink:href="#j"/><radialGradient id="l" cx="227.6" cy="201.03" r="2.5" gradientTransform="matrix(4.0728 4.0731 -5.94 5.9391 373.88 -2098)" gradientUnits="userSpaceOnUse"><stop stop-color="#93bdf1" offset="0"/><stop stop-color="#1a5fb4" offset="1"/></radialGradient><linearGradient id="m" x1="226.91" x2="228.86" y1="288.75" y2="288.77" gradientTransform="matrix(2.1213 2.1213 -2.1744 2.1744 181.77 -1021.1)" gradientUnits="userSpaceOnUse"><stop stop-color="#77767b" offset="0"/><stop stop-color="#f6f5f4" offset=".44387"/><stop stop-color="#5e5c64" offset="1"/></linearGradient><linearGradient id="n" x1="223.19" x2="233.06" y1="278" y2="278" gradientTransform="matrix(1.2584 1.2584 -1.0607 1.0607 57.382 -503.02)" gradientUnits="userSpaceOnUse"><stop stop-color="#ffa348" offset="0"/><stop stop-color="#ffd7af" offset=".26582"/><stop stop-color="#ff8d1c" offset=".73418"/><stop stop-color="#ffa348" offset="1"/></linearGradient><linearGradient id="o" x1="224.5" x2="231.45" y1="282.5" y2="282.5" gradientTransform="matrix(1.573 1.573 -1.0607 1.0607 -14.348 -574.75)" xlink:href="#j"/><path d="m21 16c-4.4336 0-8 3.5664-8 8v84c0 4.4336 3.5664 8 8 8h4v-4h80v4h4c4.4336 0 8-3.5664 8-8v-84c0-4.4336-3.5664-8-8-8z" fill="url(#a)"/><path d="m21 12h88c4.418 0 8 3.582 8 8v68c0 4.418-3.582 8-8 8h-88c-4.418 0-8-3.582-8-8v-68c0-4.418 3.582-8 8-8z" fill="#deddda"/><path d="m27 28h74v10h-74z" fill="url(#b)"/><path d="m27 38h74v46h-74z" fill="url(#c)"/><path d="m24 33c0 1.6562-1.3438 3-3 3s-3-1.3438-3-3 1.3438-3 3-3 3 1.3438 3 3z" fill="#bf5f00" fill-opacity=".96457"/><g fill-opacity=".98425"><path d="m18 40h6v12h-6z" fill="#acacac"/><path d="m18 40h6v10h-6z" fill="#d1d1d1"/><path d="m37 36h56v44h-56z" fill="#deddda"/></g><path d="m37 34h56c1.1055 0 2 0.89453 2 2s-0.89453 2-2 2h-56c-1.1055 0-2-0.89453-2-2s0.89453-2 2-2z" fill-opacity=".94094"/><path d="m37 36.859h56v36.926l-14.125 14.215h-41.875z" fill="#9a9996" fill-opacity=".98425"/><path d="m37 36h56v36.926l-14.125 14.215h-41.875z" fill="#f6f5f4" fill-opacity=".98425"/><g clip-path="url(#d)"><g clip-path="url(#e)"><path d="m79 77.387v9.3516c0 2.4648 2 4.4648 4.4648 4.4648h9.3516c2.4648 0 4.4648-2 4.4648-4.4648v-9.3516c0-2.4648-2-4.4648-4.4648-4.4648h-9.3516c-2.4648 0-4.4648 2-4.4648 4.4648z" fill="url(#f)"/></g></g><path d="m27 100h76c1.1094 0 2 0.89062 2 2v10h-80v-10c0-1.1094 0.89062-2 2-2z" fill="#5e5c64" fill-opacity=".94094"/><path d="m27 102h76c1.1094 0 2 0.89062 2 2v10h-80v-10c0-1.1094 0.89062-2 2-2z" fill="#9a9996"/><path d="m13 106v2c0 4.4336 3.5664 8 8 8h4v-2h-4c-4.4336 0-8-3.5664-8-8zm104 0c0 4.4336-3.5664 8-8 8h-4v2h4c4.4336 0 8-3.5664 8-8zm-92 6v2h80v-2z" fill="#9e9c99" fill-opacity=".36614"/><path d="m27 38v46l6-46z" fill="#7e7c77" fill-opacity=".11811"/><path d="m24 32c0 1.6562-1.3438 3-3 3s-3-1.3438-3-3 1.3438-3 3-3 3 1.3438 3 3z" fill="#ffa348" fill-opacity=".96457"/><g transform="translate(-8 -16)" clip-path="url(#i)" mask="url(#h)"><path d="m29 112c-4.4336 0-8-3.5664-8-8v-2c0 4.4336 3.5664 8 8 8h88c4.4336 0 8-3.5664 8-8v2c0 4.4336-3.5664 8-8 8z" fill="#f6f5f4"/></g><path d="m89.504 31.145 10.066 10.066-41.719 41.719-10.066-10.066z" fill="#ffa348"/><path d="m88.246 29.887 7.5508 7.5508-41.719 41.719-7.5508-7.5508z" fill="#ff7800"/><path d="m86.789 28.43 2.5156 2.5156-41.719 41.719-2.5156-2.5156z" fill="#ffbe6f"/><path d="m121.9-0.10156c-4.8555 0.92187-11.73 5.1523-18.141 11.559l-16.969 16.973 12.781 12.781 16.973-16.973c6.4062-6.4062 10.637-13.281 11.559-18.137z" fill="url(#k)"/><path d="m110.01 13.883c-2.1875-0.39844-5.4219 0.98828-8.168 3.7305l-11.871 11.875-6.6875 6.6875c-4.8008 4.8008-9.2344 12.008-9.6484 13.043-0.48438 1.207-0.44922 2.7305 0.95312 4.1367 1.4062 1.4062 2.918 1.4414 4.1367 0.95312 1.0352-0.41406 8.293-4.9844 13.043-9.6484l2.4023-2.3984 16.16-16.16c2.7422-2.7461 4.1289-5.9766 3.7305-8.168-0.74219 1.3906-1.8594 2.9023-3.3086 4.3477l-13.996 13.996-5.0898-5.0898 13.996-13.996c1.4453-1.4453 2.9609-2.5664 4.3477-3.3086z" fill="url(#l)"/><path d="m95.273 36.914-2.9609 2.9609-2.3984 2.4023c-4.9062 5.1016-11.855 10.828-11.855 10.828 1.0117-0.43359 8.168-5.1016 12.914-9.7695l2.4023-2.4023 2.9609-2.957z" fill="#62a0ea"/><path d="m87.32 26.836 13.789 13.789c0.29297 0.29297 0.29297 0.76953 0 1.0625s-0.76953 0.29297-1.0625 0l-13.789-13.789c-0.29297-0.29297-0.29297-0.76953 0-1.0625 0.29297-0.28906 0.76953-0.28906 1.0625 0z" fill="#3584e4"/><path d="m42.422 89.766c-3 3-6.3828 4.4844-7.5547 3.3125-1.1719-1.1719 0.3125-4.5547 3.3125-7.5547 3.0039-3.0039 6.3867-4.4883 7.5586-3.3164s-0.3125 4.5547-3.3164 7.5586z" fill="url(#m)"/><path d="m45.27 70.348-7.8516 12.512 7.8359 7.9258 12.598-7.8555zm-6.0391 13.172 5.4492 5.4492c0.34766 0.34766 0.44922 0.93359 0.097656 1.1602-0.88672 0.57031-2.9375 1.5391-2.9375 1.5391-0.25 0.12891-0.53906 0.16406-0.77344-0.066407l-4.5469-4.5508c-0.23438-0.23047-0.20703-0.52734-0.066406-0.77344l1.6172-2.8594c0.20703-0.36328 0.8125-0.25 1.1602 0.10156z" fill="url(#n)"/><path d="m43.332 74.777 9.8672 9.8672c0.39453 0.39062 0.47656 0.87109 0.12891 1.0664l-7.7109 5.2539c-0.30859 0.21094-0.78516 0.16016-1.1719-0.22656l-6.9844-6.9883c-0.38672-0.38672-0.4375-0.85938-0.23047-1.168l5.2344-7.8125c0.125-0.28516 0.55859-0.30469 0.86719 0.007813z" fill="url(#o)"/></svg>
