<?xml version="1.0" encoding="UTF-8"?>
<svg fill="none" viewBox="0 0 40 30" xmlns="http://www.w3.org/2000/svg"><path d="m0 2c0-1.1046 0.89543-2 2-2h36c1.1046 0 2 0.89543 2 2v26c0 1.1046-0.8954 2-2 2h-36c-1.1046 0-2-0.8954-2-2v-26z" fill="url(#a)"/><path d="m0 27v1c0 1.1046 0.89543 2 2 2v-1c-1.1046 0-2-0.8954-2-2zm2 3h36c1.1046 0 2-0.8954 2-2v-1c0 1.1046-0.8954 2-2 2h-36v1z" clip-rule="evenodd" fill="#031C5A" fill-opacity=".1" fill-rule="evenodd"/><rect x="5" y="6" width="10" height="4" rx="2" fill="#232629"/><rect x="4.5" y="5.5" width="11" height="5" rx="2.5" stroke="#000" stroke-opacity=".1"/><rect x="25" y="6" width="10" height="4" rx="2" fill="#232629"/><rect x="24.5" y="5.5" width="11" height="5" rx="2.5" stroke="#000" stroke-opacity=".1"/><rect x="18" y="6" width="4" height="4" rx="2" fill="#232629"/><rect x="17.5" y="5.5" width="5" height="5" rx="2.5" stroke="#000" stroke-opacity=".1"/><rect x="5" y="13" width="10" height="4" rx="2" fill="#232629"/><rect x="4.5" y="12.5" width="11" height="5" rx="2.5" stroke="#000" stroke-opacity=".1"/><rect x="18" y="13" width="4" height="4" rx="2" fill="#232629"/><rect x="17.5" y="12.5" width="5" height="5" rx="2.5" stroke="#000" stroke-opacity=".1"/><rect x="5" y="20" width="4" height="4" rx="2" fill="#232629"/><rect x="4.5" y="19.5" width="5" height="5" rx="2.5" stroke="#000" stroke-opacity=".1"/><defs><linearGradient id="a" x1="3.5" x2="43.5" y1="-1.9372e-6" y2="40" gradientUnits="userSpaceOnUse"><stop stop-color="#4AD8BC" offset="0"/><stop stop-color="#1ABC9C" offset="1"/></linearGradient></defs></svg>
