<?xml version="1.0" encoding="UTF-8"?>
<svg viewBox="0 0 128 128" xmlns="http://www.w3.org/2000/svg" xmlns:xlink="http://www.w3.org/1999/xlink"><filter id="a" x="0%" y="0%" width="100%" height="100%"><feColorMatrix in="SourceGraphic" values="0 0 0 0 1 0 0 0 0 1 0 0 0 0 1 0 0 0 1 0"/></filter><mask id="b"><g filter="url(#a)"><rect width="128" height="128" fill-opacity=".15"/></g></mask><linearGradient id="c" gradientUnits="userSpaceOnUse"><stop offset="0"/><stop stop-opacity="0" offset="1"/></linearGradient><linearGradient id="d" x1="84" x2="92" y1="230" y2="230" gradientTransform="matrix(2.625 0 0 1 -137.5 -155)" xlink:href="#c"/><clipPath id="e"><rect width="192" height="152"/></clipPath><mask id="f"><g filter="url(#a)"><rect width="128" height="128" fill-opacity=".15"/></g></mask><linearGradient id="g" x1="84" x2="92" y1="230" y2="230" gradientTransform="matrix(2.625 0 0 1 -137.5 -155)" xlink:href="#c"/><clipPath id="h"><rect width="192" height="152"/></clipPath><linearGradient id="i" x1="100" x2="108" y1="63.899" y2="63.899" gradientUnits="userSpaceOnUse"><stop stop-opacity="0" offset="0"/><stop stop-opacity=".14902" offset="1"/></linearGradient><linearGradient id="j" x1="20" x2="32" y1="57.938" y2="57.938" gradientUnits="userSpaceOnUse"><stop stop-opacity=".14902" offset="0"/><stop stop-opacity="0" offset="1"/></linearGradient><mask id="k"><g filter="url(#a)"><rect width="128" height="128" fill-opacity=".15"/></g></mask><clipPath id="l"><rect width="192" height="152"/></clipPath><linearGradient id="m" x1="20" x2="108" y1="60" y2="60" gradientUnits="userSpaceOnUse"><stop stop-color="#e66100" offset="0"/><stop stop-color="#ffa348" offset=".11364"/><stop stop-color="#ff7800" offset=".22727"/><stop stop-color="#ff7800" offset=".77273"/><stop stop-color="#ffa348" offset=".88636"/><stop stop-color="#c64600" offset="1"/></linearGradient><path d="m40 66c-2.9102 0-5.4414 1.6016-6.8398 4h-13.16v38c0 2.0703 0.53516 4.1445 1.6094 6 2.1406 3.7148 6.1016 6 10.391 6h68c0.27344 0 0.54688-0.015625 0.82031-0.042969 2.5508-0.26172 4.8242-1.7344 6.1094-3.957 0.73437-1.2773 1.1055-2.7305 1.0664-4.2031 0-0.03125 0.003906-0.0625 0.003906-0.09375v-37.406c0-4.5977-3.5664-8.2969-8-8.2969z" fill="#deddda"/><path d="m100 102h-16v8h16z" fill="#c0bfbc"/><path d="m92 22h-46c-4.418 0-8 3.582-8 8v72c0 4.418 3.582 8 8 8h46c4.418 0 8-3.582 8-8v-72c0-4.418-3.582-8-8-8z" fill="#c0bfbc"/><path d="m92 16h-46c-4.418 0-8 3.582-8 8v72c0 4.418 3.582 8 8 8h46c4.418 0 8-3.582 8-8v-72c0-4.418-3.582-8-8-8z" fill="#f6f5f4"/><g transform="translate(-8 -16)" clip-path="url(#e)" mask="url(#b)"><path d="m83 32h21v86h-21z" fill="url(#d)"/></g><path d="m32 8.168c-4.2891-0.003907-8.25 2.2852-10.391 6-1.0547 1.8242-1.6094 3.8906-1.6094 6v87.832c0.027344-2.0508 0.58203-4.0586 1.6094-5.832 2.1406-3.7148 6.1016-6.0039 10.391-6z" fill="#f6f5f4"/><path d="m31.961 96c-4.2734 0.015625-8.2188 2.3008-10.352 6-2.1445 3.7109-2.1445 8.2891 0 12 2.1406 3.7148 6.1016 6 10.391 6v-6c-3.3125 0-6-2.6875-6-6s2.6875-6 6-6v-6h-0.039062z" fill="#c0bfbc"/><path d="m32 120h68v-6h-68z" fill="#c0bfbc"/><path d="m100 104v6c0.71484 0 1.375 0.38281 1.7344 1 0.35547 0.61719 0.35547 1.3828 0 2-0.35938 0.61719-1.0195 1-1.7344 1v6c2.8594 0 5.5-1.5234 6.9297-4 1.4258-2.4766 1.4258-5.5234 0-8-1.4297-2.4766-4.0703-4-6.9297-4z" fill="#c0bfbc"/><path d="m38 100 0.070312 0.007812c0.49219 3.9492 3.8398 6.9922 7.9297 6.9922h54v1h-54c-4.4336 0-8-3.5664-8-8z" fill="#9a9996"/><path d="m84 92-0.070312 0.007812c-0.49219 3.9492-3.8398 6.9922-7.9297 6.9922h-44v1h44c4.4336 0 8-3.5664 8-8z" fill="#9a9996"/><path d="m32 116.5c-3.0352 0-5.8438-1.6211-7.3594-4.25-1.5195-2.6289-1.5195-5.8711 0-8.5 1.5156-2.6289 4.3242-4.25 7.3594-4.25" fill="none" stroke="#9a9996" stroke-linecap="round" stroke-linejoin="round"/><path d="m32 116.5h68" fill="none" stroke="#9a9996"/><path transform="matrix(-1 0 0 1 -96.438 17.414)" d="m-196.44 99.086c-1.5391 0-2.9609-0.85938-3.7305-2.25s-0.76953-3.1094 0-4.5 2.1914-2.25 3.7305-2.25" fill="none" stroke="#9a9996" stroke-linecap="round" stroke-linejoin="round"/><path d="m98.02 64c5.5156 0.011719 9.9805 4.4844 9.9805 10l-0.20312 18c-0.94922-4.6562-5.043-8-9.7969-8v-2z" fill="#ff7800"/><path d="m98.02 24c5.5156 0.011719 9.9805 4.4844 9.9805 10l-0.20312 12c-0.94922-4.6562-5.043-8-9.7969-8v-2z" fill="#ff7800"/><path d="m98.02 92c5.5156 0.011719 9.9805 4.4844 9.9805 10h-0.20312c-0.94922-4.6562-5.043-8-9.7969-8v-2z" fill="#c0bfbc"/><path d="m98.02 88c5.5156 0.011719 9.9805 4.4844 9.9805 10h-0.20312c-0.94922-4.6562-5.043-8-9.7969-8v-2z" fill="#c0bfbc"/><path d="m98.02 54c5.5156 0.011719 9.9805 4.4844 9.9805 10h-0.20312c-0.94922-4.6562-5.043-8-9.7969-8v-2z" fill="#c0bfbc"/><path d="m98.02 50c5.5156 0.011719 9.9805 4.4844 9.9805 10h-0.20312c-0.94922-4.6562-5.043-8-9.7969-8v-2z" fill="#c0bfbc"/><path d="m98.02 46c5.5156 0.011719 9.9805 4.4844 9.9805 10h-0.20312c-0.94922-4.6562-5.043-8-9.7969-8v-2z" fill="#c0bfbc"/><path d="m98.02 42c5.5156 0.011719 9.9805 4.4844 9.9805 10h-0.20312c-0.94922-4.6562-5.043-8-9.7969-8v-2z" fill="#c0bfbc"/><path d="m40 66c-2.9102 0-5.4414 1.6016-6.8398 4h-13.16v38c0 2.0703 0.53516 4.1445 1.6094 6 2.1406 3.7148 6.1016 6 10.391 6h68c0.27344 0 0.54688-0.015625 0.82031-0.042969 2.5508-0.26172 4.8242-1.7344 6.1094-3.957 0.73437-1.2773 1.1055-2.7305 1.0664-4.2031 0-0.03125 0.003906-0.0625 0.003906-0.09375v-37.406c0-4.5977-3.5664-8.2969-8-8.2969z" fill="#f6f5f4"/><path d="m100 16v88c2.8594 0 5.5 1.5234 6.9297 4 0.66406 1.1562 1.0312 2.4648 1.0664 3.8008 0-0.035156 0.003906-0.066406 0.003906-0.097656v-87.406c0-4.5977-3.5664-8.2969-8-8.2969z" fill="#fff"/><path d="m100 102h-16v8h16z" fill="#c0bfbc"/><path d="m92 22h-46c-4.418 0-8 3.582-8 8v72c0 4.418 3.582 8 8 8h46c4.418 0 8-3.582 8-8v-72c0-4.418-3.582-8-8-8z" fill="#c0bfbc"/><path d="m100 16h-16v8h16z" fill="#fff"/><path d="m100 96h-16v8h16z" fill="#fff"/><path d="m92 16h-46c-4.418 0-8 3.582-8 8v72c0 4.418 3.582 8 8 8h46c4.418 0 8-3.582 8-8v-72c0-4.418-3.582-8-8-8z" fill="#fff"/><path d="m100 16h-16v8h16z" fill="#fff"/><path d="m100 20c2.8594 0 5.5 1.5234 6.9258 4 0.70312 1.2148 1.0742 2.5977 1.0742 4v24c0-1.4023-0.37109-2.7852-1.0742-4-1.4258-2.4766-4.0664-4-6.9258-4z" fill="#c0bfbc"/><path d="m100 48v24h-11.957v-24z" fill="#deddda"/><path d="m32 8.168c-4.2891-0.003907-8.25 2.2852-10.391 6-1.0547 1.8242-1.6094 3.8906-1.6094 6v87.832c0.027344-2.0508 0.58203-4.0586 1.6094-5.832 2.1406-3.7148 6.1016-6.0039 10.391-6z" fill="#fff"/><path d="m31.961 96c-4.2734 0.015625-8.2188 2.3008-10.352 6-2.1445 3.7109-2.1445 8.2891 0 12 2.1406 3.7148 6.1016 6 10.391 6v-6c-3.3125 0-6-2.6875-6-6s2.6875-6 6-6v-6h-0.039062z" fill="#c0bfbc"/><path d="m32 120h68v-6h-68z" fill="#c0bfbc"/><path d="m100 104v6c0.71484 0 1.375 0.38281 1.7344 1 0.35547 0.61719 0.35547 1.3828 0 2-0.35938 0.61719-1.0195 1-1.7344 1v6c2.8594 0 5.5-1.5234 6.9297-4 1.4258-2.4766 1.4258-5.5234 0-8-1.4297-2.4766-4.0703-4-6.9297-4z" fill="#c0bfbc"/><path d="m38 100 0.070312 0.007812c0.49219 3.9492 3.8398 6.9922 7.9297 6.9922h54v1h-54c-4.4336 0-8-3.5664-8-8z" fill="#9a9996"/><path d="m32 116.5h68" fill="none" stroke="#9a9996"/><path transform="matrix(-1 0 0 1 0 -172)" d="m-100 288.5c-1.5391 0-2.9609-0.85938-3.7305-2.25s-0.76953-3.1094 0-4.5 2.1914-2.25 3.7305-2.25" fill="none" stroke="#9a9996" stroke-linecap="round" stroke-linejoin="round"/><path d="m31 94h16v8h-16z" fill="#c0bfbc"/><path d="m43 14h37c4.418 0 8 3.582 8 8v72c0 4.418-3.582 8-8 8h-37c-4.418 0-8-3.582-8-8v-72c0-4.418 3.582-8 8-8z" fill="#c0bfbc"/><path d="m30.957 88h16v8h-16z" fill="#f6f5f4"/><path d="m94 20h-6v24h6z" fill="#deddda"/><path d="m98 20h-6v16h6z" fill="#deddda"/><path d="m99.945 76h-17.945v24h17.945z" fill="#deddda"/><path d="m96 96h-4v5.1445h4z" fill="#fff"/><path d="m43 8h37c4.418 0 8 3.582 8 8v72c0 4.418-3.582 8-8 8h-37c-4.418 0-8-3.582-8-8v-72c0-4.418 3.582-8 8-8z" fill="#f6f5f4"/><path d="m40 28h36v48h-36z" fill="#ff7800"/><path d="m56.941 35.332-6.7539 17.668c-0.050781 0.17188-0.011719 0.35156 0.058594 0.45312 0.089844 0.097656 0.17188 0.21875 0.41406 0.23828l4.7383-0.019531c0.16016 0 0.30078 0.070313 0.35937 0.22266 0.039063 0.12891 0.050782 0.26172 0 0.44141l-4.1055 15.039c-0.03125 0.12109-0.070313 0.39062 0.21094 0.57031 0.17969 0.10938 0.54297 0.050782 0.76172-0.17187l15.473-19.504c0.097656-0.16016 0.10938-0.44141 0.046875-0.57422-0.058593-0.12891-0.1875-0.30859-0.48828-0.33984l-7.2188-0.26953c-0.21094-0.042969-0.28125-0.14063-0.34375-0.22266-0.078125-0.12109-0.097656-0.28906-0.019531-0.47266l5.9141-12.828c0.078125-0.17188 0.078125-0.29297 0.03125-0.38281-0.042969-0.078126-0.17188-0.17969-0.40234-0.17969h-8.0625c-0.10938 0-0.49219 0.039062-0.61328 0.33203z" fill="#fff"/><path d="m40 16h32v4h-32z" fill="#c0bfbc"/><g transform="translate(-8 -16)" clip-path="url(#h)" mask="url(#f)"><path d="m83 32h21v86h-21z" fill="url(#g)"/></g><path d="m32 94h16v8h-16z" fill="#c0bfbc"/><path d="m43 14h37c4.418 0 8 3.582 8 8v72c0 4.418-3.582 8-8 8h-37c-4.418 0-8-3.582-8-8v-72c0-4.418 3.582-8 8-8z" fill="#c0bfbc"/><path d="m30.957 8h16v8h-16z" fill="#fff"/><path d="m31.961 88h16v8h-16z" fill="#fff"/><path d="m40 8h40c4.418 0 8 3.582 8 8v72c0 4.418-3.582 8-8 8h-40c-4.418 0-8-3.582-8-8v-72c0-4.418 3.582-8 8-8z" fill="#fff"/><path d="m30.957 8h16v8h-16z" fill="#fff"/><path d="m88 92-0.070312 0.007812c-0.49219 3.9492-3.8398 6.9922-7.9297 6.9922h-48v1h48c4.4336 0 8-3.5664 8-8z" fill="#9a9996"/><path d="m32 116.5c-3.0352 0-5.8438-1.6211-7.3594-4.25-1.5195-2.6289-1.5195-5.8711 0-8.5 1.5156-2.6289 4.3242-4.25 7.3594-4.25" fill="none" stroke="#9a9996" stroke-linecap="round" stroke-linejoin="round"/><path d="m68 28.48v2.7188h7.3828v0.09375l-7.3828 4.2656v2.668h12v-2.7148h-7.3828v-0.09375l7.3828-4.2422v-2.6953zm0 11.508v8.0117h2.25v-5.293h2.625v4.4727h2.25v-4.4727h2.625v5.293h2.25v-8.0117zm12 9.5625-12 3.043v2.7695l7.5234 1.9883v0.09375l-7.5234 1.9922v2.7617l12 3.0469v-2.4609l-8.0859-2.0117v-0.09375l8.0859-2.0859v-2.3906l-8.0625-2.0859v-0.089844l8.0625-2.0156zm-8.1094 16.805c-2.8359 0-4.0508 2.3438-4.0508 4.7344 0 2.6016 1.2617 4.4297 3.5352 4.4297 1.9453 0 2.9297-1.3359 3.7266-3.5859l0.14063-0.32812c0.46875-1.2891 0.77344-2.25 1.5234-2.25 0.67578 0 1.125 0.75 1.125 1.8047 0 1.1719-0.5625 1.7344-1.4531 1.7812v2.5781c2.2734 0 3.7227-1.7812 3.7227-4.3594s-1.3594-4.4531-3.375-4.4531c-1.7773 0-2.9258 1.4766-3.5352 3.4688l-0.070312 0.23438c-0.58594 1.8516-1.1016 2.4844-1.8281 2.4844-0.63281 0-1.2617-0.53906-1.2617-1.8047s0.62891-2.0625 1.8008-2.1094z" fill="#9a9996"/><path d="m38 68v24h26v-24z" fill="#c0bfbc"/><path d="m32 12c-4.2891 0-8.25 2.2852-10.391 6-1.0547 1.8242-1.6094 3.8945-1.6094 6v23.832c0.027344-2.0469 0.58203-4.0547 1.6094-5.832 2.1406-3.7148 6.1016-6 10.391-6z" fill="#deddda"/><path d="m74 14v12h6v-12z" fill="#deddda"/><path d="m70 16v8h2v-8z" fill="#deddda"/><path d="m70 16v8h6v-8z" fill="#deddda"/><path d="m34 12v24h18v-24z" fill="#c0bfbc"/><g fill="#deddda"><path d="m46 40h18v24h-18z"/><path d="m42 40h4v10h-4z"/><path d="m32 40h8v24h-8z"/><path d="m100 48c2.8594 0 5.5 1.5234 6.9258 4 0.70312 1.2148 1.0742 2.5977 1.0742 4v24c0-1.4023-0.37109-2.7852-1.0742-4-1.4258-2.4766-4.0664-4-6.9258-4z"/><path d="m100 76c2.8594 0 5.5 1.5234 6.9258 4 0.70312 1.2148 1.0742 2.5938 1.0742 4v24c0-1.4062-0.37109-2.7852-1.0742-4-1.4258-2.4766-4.0664-4-6.9258-4z"/><path d="m32 68c-4.2891 0-8.25 2.2852-10.391 6-1.0547 1.8242-1.6094 3.8945-1.6094 6v23.832c0.027344-2.0469 0.58203-4.0547 1.6094-5.832 2.1406-3.7148 6.1016-6 10.391-6z"/><path d="m74 78v12h6v-12z"/><path d="m70 80v8h2v-8z"/><path d="m70 80v8h6v-8z"/><path d="m58 12h6v24h-6z"/><path d="m54 12h6v16h-6z"/><path d="m32 40c-4.2891 0-8.25 2.2852-10.391 6-1.0547 1.8242-1.6094 3.8945-1.6094 6v23.832c0.027344-2.0469 0.58203-4.0547 1.6094-5.832 2.1406-3.7148 6.1016-6 10.391-6z"/></g><path d="m100 16v88c2.8594 0 5.5 1.5234 6.9297 4 0.66406 1.1562 1.0312 2.4648 1.0664 3.8008 0-0.035156 0.003906-0.066406 0.003906-0.097656v-87.406c0-4.5977-3.5664-8.2969-8-8.2969z" fill="url(#i)"/><path d="m32 68v24h4v-24z" fill="#deddda"/><path d="m27 88h3v6h-3z" fill="#fff"/><path d="m32 74c-4.2891 0-8.25 2.2852-10.391 6-1.0547 1.8242-1.6094 3.8945-1.6094 6v13.832c0.027344-2.0469 0.58203-4.0547 1.6094-5.832 2.1406-3.7148 6.1016-6 10.391-6z" fill="#deddda"/><path d="m32 8.0195c-4.2891 0-8.25 2.2891-10.391 6-1.0547 1.8242-1.6094 3.8945-1.6094 6v87.836c0.027344-2.0508 0.58203-4.0586 1.6094-5.8359 2.1406-3.7109 6.1016-6 10.391-6z" fill="url(#j)"/><g transform="translate(-8 -16)" clip-path="url(#l)" mask="url(#k)"><path d="m40 69c-6.6289 0-12 5.3711-12 12v8c0-6.6289 5.3711-12 12-12h64c6.6289 0 12 5.3711 12 12v-8c0-6.6289-5.3711-12-12-12z"/></g><path d="m32 52c-6.6289 0-12 5.3711-12 12v8c0-6.6289 5.3711-12 12-12h64c6.6289 0 12 5.3711 12 12v-8c0-6.6289-5.3711-12-12-12z" fill="url(#m)"/></svg>
