<?xml version="1.0" encoding="UTF-8"?>
<svg viewBox="0 0 128 128" xmlns="http://www.w3.org/2000/svg"><linearGradient id="a" x1="15.952" x2="111.99" y1="118.19" y2="118.19" gradientUnits="userSpaceOnUse"><stop stop-color="#8d6542" offset="0"/><stop stop-color="#bb926f" stop-opacity=".98824" offset=".055852"/><stop stop-color="#8d6542" stop-opacity=".97647" offset=".12259"/><stop stop-color="#8d6542" stop-opacity=".87059" offset=".86989"/><stop stop-color="#60452d" stop-opacity=".86274" offset=".9256"/><stop stop-color="#8d6542" stop-opacity=".85529" offset="1"/></linearGradient><linearGradient id="b" x1="28" x2="102.85" y1="90" y2="90" gradientUnits="userSpaceOnUse"><stop stop-color="#e5ca89" offset="0"/><stop stop-color="#fadb8a" offset=".26694"/><stop stop-color="#dbb55b" offset="1"/></linearGradient><filter id="c" x="0%" y="0%" width="100%" height="100%"><feColorMatrix in="SourceGraphic" values="0 0 0 0 1 0 0 0 0 1 0 0 0 0 1 0 0 0 1 0"/></filter><mask id="d"><g filter="url(#c)"><rect width="128" height="128" fill-opacity=".17068"/></g></mask><clipPath id="e"><rect width="192" height="152"/></clipPath><clipPath id="f"><path d="m24 70h80v12h-80z"/></clipPath><clipPath id="g"><path d="m24 70v2h18c0 3.5742 1.9062 6.875 5 8.6602s6.9062 1.7852 10 0c2.4922-1.4492 4.2383-3.9023 4.793-6.7305v0.097656c0.20703-2.6758 4.207-2.6562 4.4141 0v-0.11328c0.55078 2.8359 2.2969 5.2969 4.793 6.7461 3.0938 1.7852 6.9062 1.7852 10 0s5-5.0859 5-8.6602h18v-2z"/></clipPath><linearGradient id="h" x1="32" x2="89" y1="77" y2="77" gradientUnits="userSpaceOnUse"><stop stop-color="#3d3846" offset="0"/><stop stop-color="#4f485a" offset=".38663"/><stop stop-color="#201d24" offset="1"/></linearGradient><clipPath id="i"><path d="m38 70h20v12h-20z"/></clipPath><clipPath id="j"><path d="m24 70v2h18c0 3.5742 1.9062 6.875 5 8.6602s6.9062 1.7852 10 0c2.4922-1.4492 4.2383-3.9023 4.793-6.7305v0.097656c0.20703-2.6758 4.207-2.6562 4.4141 0v-0.11328c0.55078 2.8359 2.2969 5.2969 4.793 6.7461 3.0938 1.7852 6.9062 1.7852 10 0s5-5.0859 5-8.6602h18v-2z"/></clipPath><clipPath id="k"><path d="m47 70h18v12h-18z"/></clipPath><clipPath id="l"><path d="m24 70v2h18c0 3.5742 1.9062 6.875 5 8.6602s6.9062 1.7852 10 0c2.4922-1.4492 4.2383-3.9023 4.793-6.7305v0.097656c0.20703-2.6758 4.207-2.6562 4.4141 0v-0.11328c0.55078 2.8359 2.2969 5.2969 4.793 6.7461 3.0938 1.7852 6.9062 1.7852 10 0s5-5.0859 5-8.6602h18v-2z"/></clipPath><clipPath id="m"><path d="m70 70h18v12h-18z"/></clipPath><clipPath id="n"><path d="m24 70v2h18c0 3.5742 1.9062 6.875 5 8.6602s6.9062 1.7852 10 0c2.4922-1.4492 4.2383-3.9023 4.793-6.7305v0.097656c0.20703-2.6758 4.207-2.6562 4.4141 0v-0.11328c0.55078 2.8359 2.2969 5.2969 4.793 6.7461 3.0938 1.7852 6.9062 1.7852 10 0s5-5.0859 5-8.6602h18v-2z"/></clipPath><path d="m18.418 94c-1.3398 0-2.418 1.0781-2.418 2.418v14.434c0 5.0664 4.082 9.1484 9.1484 9.1484h77.703c5.0664 0 9.1484-4.082 9.1484-9.1484v-14.434c0-1.3398-1.0781-2.418-2.418-2.418z" fill="url(#a)"/><path d="m18.418 88c-1.3398 0-2.418 1.0781-2.418 2.418v14.434c0 5.0664 4.082 9.1484 9.1484 9.1484h77.703c5.0664 0 9.1484-4.082 9.1484-9.1484v-14.434c0-1.3398-1.0781-2.418-2.418-2.418z" fill="#b5835a"/><path d="m18.418 90c-1.3398 0-2.418 1.0781-2.418 2.418v14.434c0 5.0664 4.082 9.1484 9.1484 9.1484h77.703c5.0664 0 9.1484-4.082 9.1484-9.1484v-14.434c0-1.3398-1.0781-2.418-2.418-2.418z" fill="#664930"/><path d="m26.25 56h75.5c1.2422 0 2.25 1.082 2.25 2.418v55.164c0 1.3359-1.0078 2.418-2.25 2.418h-75.5c-1.2422 0-2.25-1.082-2.25-2.418v-55.164c0-1.3359 1.0078-2.418 2.25-2.418z" fill="url(#b)"/><path d="m110.7 92.969-5.4062 4.0547c-0.85156 0.63672-1.8477 1.0586-2.8984 1.2227l-32.137 5.082c-2.5469 0.40234-4.5586 2.3789-5 4.9219l-1.332 7.668 41.914-1.6719c3.4375-0.13672 6.1562-2.9648 6.1562-6.4062v-14.223c0-0.30859-0.17188-0.58984-0.44922-0.72656-0.27344-0.13672-0.60156-0.10938-0.84766 0.078125z" fill-opacity=".14565"/><path d="m24 72v2h18c0 3.5742 1.9062 6.875 5 8.6602s6.9062 1.7852 10 0c2.4922-1.4492 4.2383-3.9023 4.793-6.7305v0.097656c0.20703-2.6758 4.207-2.6562 4.4141 0v-0.11328c0.55078 2.8359 2.2969 5.2969 4.793 6.7461 3.0938 1.7852 6.9062 1.7852 10 0s5-5.0859 5-8.6602h18v-2z" fill-opacity=".26075"/><path d="m17.227 92.969 5.4062 4.0547c0.85156 0.63672 1.8477 1.0586 2.8984 1.2227l32.137 5.082c2.5469 0.40234 4.5586 2.3789 5 4.9219l1.332 7.668-41.914-1.6719c-3.4375-0.13672-6.1562-2.9648-6.1562-6.4062v-14.223c0-0.30859 0.17187-0.58984 0.44922-0.72656 0.27344-0.13672 0.60156-0.10938 0.84766 0.078125z" fill-opacity=".14565"/><path d="m16 92 4.4805 3.3594c2.3164 1.7383 4.9883 2.9492 7.8242 3.5469l29.473 6.2031c2.5625 0.53906 4.5547 2.5547 5.0703 5.1211l1.1523 5.7695h-41.84c-3.4023 0-6.1602-2.7578-6.1602-6.1602z" fill="#b5835a"/><path d="m112 92-4.4805 3.3594c-2.3164 1.7383-4.9883 2.9492-7.8242 3.5469l-29.473 6.2031c-2.5625 0.53906-4.5547 2.5547-5.0703 5.1211l-1.1523 5.7695h41.84c3.4023 0 6.1602-2.7578 6.1602-6.1602z" fill="#9e6e47"/><path d="m16 60 21.641-46.887c0.5625-1.2188 1.6602-2.1055 2.9727-2.4023 1.3086-0.29688 2.6836 0.035156 3.7148 0.89453l15.344 12.789c2.5078 2.0898 6.1484 2.0898 8.6562 0l15.344-12.789c1.0312-0.85938 2.4062-1.1914 3.7148-0.89453 1.3125 0.29687 2.4102 1.1836 2.9727 2.4023l21.641 46.887z" fill="#986a44"/><path d="m86.688 20.512c1.6875 0.007812 3.2422 0.91406 4.0781 2.3789l21.207 37.109h-47.945v-24.051c1.5625-0.007813 3.0703-0.55859 4.2734-1.5547l15.344-12.789c0.85156-0.71094 1.9297-1.0977 3.043-1.0938z" fill="#8f6440"/><g transform="translate(-8 -16)" clip-path="url(#e)" mask="url(#d)"><path d="m111.73 76.027-79.699-0.070313-0.14062 8.2109 80.16 12.031z"/></g><path d="m12 56h104c2.2109 0 4 1.7891 4 4s-1.7891 4-4 4h-104c-2.2109 0-4-1.7891-4-4s1.7891-4 4-4z" fill="#b5835a" fill-opacity=".95869"/><g clip-path="url(#f)"><g clip-path="url(#g)"><path d="m24.418 68h78.164c1.3359 0 2.418 1.082 2.418 2.418v11.164c0 1.3359-1.082 2.418-2.418 2.418h-78.164c-1.3359 0-2.418-1.082-2.418-2.418v-11.164c0-1.3359 1.082-2.418 2.418-2.418z" fill="url(#h)"/></g></g><g clip-path="url(#i)"><g clip-path="url(#j)"><path d="m54.188 65 3.5391 3.5352-15.453 15.449-3.5352-3.5352z" fill="#5e5c64"/></g></g><g clip-path="url(#k)"><g clip-path="url(#l)"><path d="m62.727 67.043 1.4922 1.4922-15.449 15.449-1.4961-1.4922z" fill="#5e5c64"/></g></g><g clip-path="url(#m)"><g clip-path="url(#n)"><path d="m85.98 67.043 1.4922 1.4922-15.453 15.449-1.4922-1.4922z" fill="#5e5c64"/></g></g></svg>
