<?xml version="1.0" encoding="UTF-8"?>
<svg viewBox="0 0 128 128" xmlns="http://www.w3.org/2000/svg" xmlns:xlink="http://www.w3.org/1999/xlink"><defs><filter id="b" x="0%" y="0%" width="100%" height="100%"><feColorMatrix color-interpolation-filters="sRGB" values="0 0 0 0 1 0 0 0 0 1 0 0 0 0 1 0 0 0 -1 1"/></filter><filter id="a" x="0%" y="0%" width="100%" height="100%"><feImage width="153.6" height="153.6" xlink:href="#ac" result="source"/><feImage width="153.6" height="153.6" result="destination" xlink:href="#S"/><feBlend color-interpolation-filters="sRGB" in="source" in2="destination" mode="multiply"/></filter><filter id="c" x="0%" y="0%" width="100%" height="100%"><feImage width="153.6" height="153.6" xlink:href="#ab" result="source"/><feImage width="153.6" height="153.6" xlink:href="#aa" result="destination"/><feComposite color-interpolation-filters="sRGB" in="source" in2="destination" k2="1" k3="1" operator="arithmetic"/></filter><linearGradient id="d" x1="75.689" x2="104" y1="22" y2="22" gradientUnits="userSpaceOnUse"><stop stop-color="#ac784d" offset="0"/><stop stop-color="#b88962" offset=".54688"/><stop stop-color="#986a44" offset="1"/></linearGradient><linearGradient id="e" x1="108.07" x2="116" y1="83.525" y2="83.525" gradientUnits="userSpaceOnUse"><stop stop-color="#bab8b2" offset="0"/><stop stop-color="#eeeeec" offset=".40516"/><stop stop-color="#97958b" offset="1"/></linearGradient><clipPath id="f"><path d="m75 57h23v57h-23z"/></clipPath><clipPath id="g"><path d="m86.414 57.184c5.9219 0 10.723 4.8008 10.723 10.727v34.859c0 5.9219-4.8008 10.723-10.723 10.723-5.9219 0-10.727-4.8008-10.727-10.723v-34.859c0-5.9258 4.8047-10.727 10.727-10.727z"/></clipPath><clipPath id="h"><path d="m78 58h17v17h-17z"/></clipPath><clipPath id="i"><path d="m86.414 57.184c5.9219 0 10.723 4.8008 10.723 10.727v34.859c0 5.9219-4.8008 10.723-10.723 10.723-5.9219 0-10.727-4.8008-10.727-10.723v-34.859c0-5.9258 4.8047-10.727 10.727-10.727z"/></clipPath><linearGradient id="j" gradientUnits="userSpaceOnUse"><stop stop-color="#d3b198" offset="0"/><stop stop-color="#e4d1c2" offset=".47656"/><stop stop-color="#d6b9a2" offset="1"/></linearGradient><linearGradient id="k" x1="78" x2="94" y1="67" y2="67" xlink:href="#j"/><clipPath id="l"><path d="m75 94h23v20h-23z"/></clipPath><clipPath id="m"><path d="m86.414 57.184c5.9219 0 10.723 4.8008 10.723 10.727v34.859c0 5.9219-4.8008 10.723-10.723 10.723-5.9219 0-10.727-4.8008-10.727-10.723v-34.859c0-5.9258 4.8047-10.727 10.727-10.727z"/></clipPath><linearGradient id="n" gradientUnits="userSpaceOnUse"><stop stop-color="#c19675" offset="0"/><stop stop-color="#cba88b" offset=".53695"/><stop stop-color="#b88a61" offset="1"/></linearGradient><linearGradient id="o" x1="76" x2="98" y1="98" y2="98" xlink:href="#n"/><clipPath id="p"><path d="m9 59h22v57h-22z"/></clipPath><clipPath id="q"><path d="m20 59.184c5.9219 0 10.723 4.8008 10.723 10.727v34.859c0 5.9219-4.8008 10.723-10.723 10.723s-10.727-4.8008-10.727-10.723v-34.859c0-5.9258 4.8047-10.727 10.727-10.727z"/></clipPath><clipPath id="r"><path d="m11 60h17v17h-17z"/></clipPath><clipPath id="s"><path d="m20 59.184c5.9219 0 10.723 4.8008 10.723 10.727v34.859c0 5.9219-4.8008 10.723-10.723 10.723s-10.727-4.8008-10.727-10.723v-34.859c0-5.9258 4.8047-10.727 10.727-10.727z"/></clipPath><linearGradient id="t" x1="11.586" x2="27.586" y1="69" y2="69" xlink:href="#j"/><clipPath id="u"><path d="m9 98h22v18h-22z"/></clipPath><clipPath id="v"><path d="m20 59.184c5.9219 0 10.723 4.8008 10.723 10.727v34.859c0 5.9219-4.8008 10.723-10.723 10.723s-10.727-4.8008-10.727-10.723v-34.859c0-5.9258 4.8047-10.727 10.727-10.727z"/></clipPath><linearGradient id="w" x1="9.5859" x2="31.586" y1="100" y2="100" xlink:href="#n"/><clipPath id="x"><path d="m30 49h22v58h-22z"/></clipPath><clipPath id="y"><path d="m40.969 49.844c5.9219 0 10.727 4.8047 10.727 10.727v34.859c0 5.9219-4.8047 10.727-10.727 10.727s-10.723-4.8047-10.723-10.727v-34.859c0-5.9219 4.8008-10.727 10.723-10.727z"/></clipPath><clipPath id="z"><path d="m32 51h17v17h-17z"/></clipPath><clipPath id="as"><path d="m40.969 49.844c5.9219 0 10.727 4.8047 10.727 10.727v34.859c0 5.9219-4.8047 10.727-10.727 10.727s-10.723-4.8047-10.723-10.727v-34.859c0-5.9219 4.8008-10.727 10.723-10.727z"/></clipPath><linearGradient id="ar" x1="32.556" x2="48.556" y1="59.661" y2="59.661" xlink:href="#j"/><clipPath id="aq"><path d="m30 88h22v19h-22z"/></clipPath><clipPath id="ap"><path d="m40.969 49.844c5.9219 0 10.727 4.8047 10.727 10.727v34.859c0 5.9219-4.8047 10.727-10.727 10.727s-10.723-4.8047-10.723-10.727v-34.859c0-5.9219 4.8008-10.727 10.723-10.727z"/></clipPath><linearGradient id="ao" x1="30.556" x2="52.556" y1="90.661" y2="90.661" xlink:href="#n"/><clipPath id="an"><path d="m51 30h23v72h-23z"/></clipPath><clipPath id="am"><path d="m62.719 30c5.9219 0 10.727 4.8008 10.727 10.723v50.555c0 5.9219-4.8047 10.723-10.727 10.723s-10.723-4.8008-10.723-10.723v-50.555c0-5.9219 4.8008-10.723 10.723-10.723z"/></clipPath><clipPath id="al"><path d="m54 30h17v18h-17z"/></clipPath><clipPath id="ak"><path d="m62.719 30c5.9219 0 10.727 4.8008 10.727 10.723v50.555c0 5.9219-4.8047 10.723-10.727 10.723s-10.723-4.8008-10.723-10.723v-50.555c0-5.9219 4.8008-10.723 10.723-10.723z"/></clipPath><linearGradient id="aj" x1="54.306" x2="70.306" y1="55.506" y2="55.506" xlink:href="#j"/><clipPath id="ai"><path d="m51 66h23v36h-23z"/></clipPath><clipPath id="ah"><path d="m62.719 30c5.9219 0 10.727 4.8008 10.727 10.723v50.555c0 5.9219-4.8047 10.723-10.727 10.723s-10.723-4.8008-10.723-10.723v-50.555c0-5.9219 4.8008-10.723 10.723-10.723z"/></clipPath><linearGradient id="ag" x1="52.306" x2="74.306" y1="86.506" y2="86.506" xlink:href="#n"/><g id="N"><rect width="153.6" height="153.6" fill="none"/><rect width="153.6" height="153.6" fill="#fff"/></g><mask id="af"><use xlink:href="#N"/></mask><mask id="ae"><use filter="url(#b)" xlink:href="#N"/></mask><mask id="ad"><rect width="153.6" height="153.6" fill="#fff"/></mask><g id="ac" mask="url(#ad)"><rect transform="translate(12.8 12.8)" x="-12.8" y="-12.8" width="153.6" height="153.6" fill="none"/></g><g id="S" transform="translate(12.8 12.8)"><path d="m89.844 2.75c7.8203 0 14.156 6.3359 14.156 14.156v16.938c0 7.8203-6.3359 14.156-14.156 14.156-7.8164 0-14.156-6.3359-14.156-14.156v-16.938c0-7.8203 6.3398-14.156 14.156-14.156z" fill="#ba8b65"/><path d="m89.844 6c7.8203 0 14.156 6.3359 14.156 14.156v16.938c0 7.8203-6.3359 14.156-14.156 14.156-7.8164 0-14.156-6.3359-14.156-14.156v-16.938c0-7.8203 6.3398-14.156 14.156-14.156z" fill="url(#d)"/><path d="m8 24.25h112v65.75h-112z" fill="#3d3846"/><path d="m111.82 22h0.42578c2.0742 0 3.7539 1.6797 3.7539 3.7539v66.492c0 2.0742-1.6797 3.7539-3.7539 3.7539h-0.42578c-2.0742 0-3.7539-1.6797-3.7539-3.7539v-66.492c0-2.0742 1.6797-3.7539 3.7539-3.7539z" fill="url(#e)"/><path d="m1 28h126c0.55078 0 1 0.44922 1 1s-0.44922 1-1 1h-126c-0.55078 0-1-0.44922-1-1s0.44922-1 1-1z" fill="#9a9996"/><path d="m1 38h126c0.55078 0 1 0.44922 1 1s-0.44922 1-1 1h-126c-0.55078 0-1-0.44922-1-1s0.44922-1 1-1z" fill="#9a9996"/><path d="m1 48h126c0.55078 0 1 0.44922 1 1s-0.44922 1-1 1h-126c-0.55078 0-1-0.44922-1-1s0.44922-1 1-1z" fill="#9a9996"/><path d="m1 58h126c0.55078 0 1 0.44922 1 1s-0.44922 1-1 1h-126c-0.55078 0-1-0.44922-1-1s0.44922-1 1-1z" fill="#9a9996"/><path d="m1 68h126c0.55078 0 1 0.44922 1 1s-0.44922 1-1 1h-126c-0.55078 0-1-0.44922-1-1s0.44922-1 1-1z" fill="#9a9996"/><path d="m1 78h126c0.55078 0 1 0.44922 1 1s-0.44922 1-1 1h-126c-0.55078 0-1-0.44922-1-1s0.44922-1 1-1z" fill="#9a9996"/><path d="m0.46484 28h127.07c0.25781 0 0.46484 0.22266 0.46484 0.5s-0.20703 0.5-0.46484 0.5h-127.07c-0.25781 0-0.46484-0.22266-0.46484-0.5s0.20703-0.5 0.46484-0.5z" fill="#c0bfbc"/><path d="m0.46484 38h127.07c0.25781 0 0.46484 0.22266 0.46484 0.5s-0.20703 0.5-0.46484 0.5h-127.07c-0.25781 0-0.46484-0.22266-0.46484-0.5s0.20703-0.5 0.46484-0.5z" fill="#c0bfbc"/><path d="m0.46484 48h127.07c0.25781 0 0.46484 0.22266 0.46484 0.5s-0.20703 0.5-0.46484 0.5h-127.07c-0.25781 0-0.46484-0.22266-0.46484-0.5s0.20703-0.5 0.46484-0.5z" fill="#c0bfbc"/><path d="m0.46484 58h127.07c0.25781 0 0.46484 0.22266 0.46484 0.5s-0.20703 0.5-0.46484 0.5h-127.07c-0.25781 0-0.46484-0.22266-0.46484-0.5s0.20703-0.5 0.46484-0.5z" fill="#c0bfbc"/><path d="m0.46484 68h127.07c0.25781 0 0.46484 0.22266 0.46484 0.5s-0.20703 0.5-0.46484 0.5h-127.07c-0.25781 0-0.46484-0.22266-0.46484-0.5s0.20703-0.5 0.46484-0.5z" fill="#c0bfbc"/><path d="m0.46484 78h127.07c0.25781 0 0.46484 0.22266 0.46484 0.5s-0.20703 0.5-0.46484 0.5h-127.07c-0.25781 0-0.46484-0.22266-0.46484-0.5s0.20703-0.5 0.46484-0.5z" fill="#c0bfbc"/><path d="m8 90h112c0 3.4531-2.7969 6.25-6.25 6.25h-99.5c-3.4531 0-6.25-2.7969-6.25-6.25z" fill="#986a44"/><g clip-path="url(#f)"><g clip-path="url(#g)"><path d="m86.414 57.184c5.9219 0 10.723 4.8008 10.723 10.727v34.859c0 5.9219-4.8008 10.723-10.723 10.723-5.9219 0-10.727-4.8008-10.727-10.723v-34.859c0-5.9258 4.8047-10.727 10.727-10.727z" fill="#cdab8f"/></g></g><g clip-path="url(#h)"><g clip-path="url(#i)"><path d="m94.293 66.492c0 4.4727-3.625 8.1016-8.0977 8.1016-4.4766 0-8.1016-3.6289-8.1016-8.1016 0-4.4727 3.625-8.0977 8.1016-8.0977 4.4727 0 8.0977 3.625 8.0977 8.0977z" fill="url(#k)"/></g></g><g clip-path="url(#l)"><g clip-path="url(#m)"><path d="m68 94v28h36v-28h-6.8867c-0.37109 5.6016-5 10-10.699 10-5.6992 0-10.332-4.3984-10.699-10z" fill="url(#o)"/></g></g><g clip-path="url(#p)"><g clip-path="url(#q)"><path d="m20 59.184c5.9219 0 10.723 4.8008 10.723 10.727v34.859c0 5.9219-4.8008 10.723-10.723 10.723s-10.727-4.8008-10.727-10.723v-34.859c0-5.9258 4.8047-10.727 10.727-10.727z" fill="#cdab8f"/></g></g><g clip-path="url(#r)"><g clip-path="url(#s)"><path d="m27.879 68.492c0 4.4727-3.625 8.1016-8.0977 8.1016-4.4766 0-8.1016-3.6289-8.1016-8.1016 0-4.4727 3.625-8.0977 8.1016-8.0977 4.4727 0 8.0977 3.625 8.0977 8.0977z" fill="url(#t)"/></g></g><g clip-path="url(#u)"><g clip-path="url(#v)"><path d="m1.5859 98v26h36v-26h-6.8867c-0.37109 5.6016-5 10-10.699 10s-10.332-4.3984-10.703-10z" fill="url(#w)"/></g></g><g clip-path="url(#x)"><g clip-path="url(#y)"><path d="m40.969 49.844c5.9219 0 10.727 4.8047 10.727 10.727v34.859c0 5.9219-4.8047 10.727-10.727 10.727s-10.723-4.8047-10.723-10.727v-34.859c0-5.9219 4.8008-10.727 10.723-10.727z" fill="#cdab8f"/></g></g><g clip-path="url(#z)"><g clip-path="url(#as)"><path d="m48.852 59.152c0 4.4766-3.6289 8.1016-8.1016 8.1016s-8.1016-3.625-8.1016-8.1016c0-4.4727 3.6289-8.0977 8.1016-8.0977s8.1016 3.625 8.1016 8.0977z" fill="url(#ar)"/></g></g><g clip-path="url(#aq)"><g clip-path="url(#ap)"><path d="m22.555 88.66v26h36v-26h-6.8867c-0.36719 5.6016-5 10-10.699 10-5.6953 0-10.328-4.3984-10.699-10z" fill="url(#ao)"/></g></g><g clip-path="url(#an)"><g clip-path="url(#am)"><path d="m62.719 30c5.9219 0 10.727 4.8008 10.727 10.723v50.555c0 5.9219-4.8047 10.723-10.727 10.723s-10.723-4.8008-10.723-10.723v-50.555c0-5.9219 4.8008-10.723 10.723-10.723z" fill="#cdab8f"/></g></g><g clip-path="url(#al)"><g clip-path="url(#ak)"><path d="m70.602 39c0 4.4727-3.6289 8.1016-8.1016 8.1016s-8.1016-3.6289-8.1016-8.1016 3.6289-8.1016 8.1016-8.1016 8.1016 3.6289 8.1016 8.1016z" fill="url(#aj)"/></g></g><g clip-path="url(#ai)"><g clip-path="url(#ah)"><path d="m44.305 66.508v44h36v-44h-6.8867c-0.36719 5.6016-5 10-10.699 10-5.6953 0-10.328-4.3984-10.699-10z" fill="url(#ag)"/></g></g></g><g id="ab" filter="url(#a)" mask="url(#af)"><rect width="153.6" height="153.6"/></g><g id="aa" mask="url(#ae)"><use xlink:href="#S"/></g></defs><g transform="translate(-12.8 -12.8)" filter="url(#c)"><rect width="153.6" height="153.6"/></g></svg>
