<?xml version="1.0" encoding="UTF-8"?>
<svg viewBox="0 0 800 600" xmlns="http://www.w3.org/2000/svg" xmlns:xlink="http://www.w3.org/1999/xlink"><defs><linearGradient id="g" x1="1480" x2="1719.7" y1="-2143.2" y2="-2143.2" gradientTransform="translate(0 -64.796)" gradientUnits="userSpaceOnUse"><stop stop-color="#9141ac" offset="0"/><stop stop-color="#33d17a" offset=".228"/><stop stop-color="#f5c211" offset=".511"/><stop stop-color="#e66100" offset=".789"/><stop stop-color="#26a269" offset="1"/></linearGradient><linearGradient id="i" x1="203.26" x2="203.26" y1="784" y2="800" gradientTransform="matrix(-1.1846 0 0 1.1846 1858.3 -2946.3)" gradientUnits="userSpaceOnUse"><stop stop-color="#9a9996" offset="0"/><stop stop-color="#adaba8" offset=".7"/><stop stop-color="#60605c" offset="1"/></linearGradient><linearGradient id="h" x1="1485.5" x2="1485.5" y1="-2061.5" y2="-2142.5" gradientTransform="translate(0 -64.796)" gradientUnits="userSpaceOnUse"><stop stop-color="#986a44" offset="0"/><stop stop-color="#33d17a" stop-opacity="0" offset="1"/></linearGradient><linearGradient id="j" x1="89.575" x2="105.69" y1="203.22" y2="202.64" gradientUnits="userSpaceOnUse"><stop stop-color="#787878" offset="0"/><stop stop-color="#787878" stop-opacity="0" offset="1"/></linearGradient><clipPath id="e"><rect x="2.836" y="361.12" width="443.74" height="423.92" rx="0" ry="0" fill="#9141ac"/></clipPath><clipPath id="f"><circle cx="60.445" cy="758.59" r="252.86" fill="#9141ac"/></clipPath></defs><g transform="matrix(1.852 0 0 1.852 -2541.1 4267.8)"><g transform="matrix(.58269 0 0 .58269 1386.9 -2456.1)" clip-path="url(#e)"><circle cx="60.445" cy="758.59" r="277.13" fill="#99c1f1" fill-opacity=".58136"/><g clip-path="url(#f)"><circle cx="60.445" cy="758.59" r="252.86" fill="#1a5fb4"/><path d="m143.6 635.83v12.787a30 30 135 0 1-30 30h-3.381a30 30 135 0 0-30 30v21.38a30 30 45 0 0 30 30h49.771a30 30 45 0 1 30 30 22.292 22.292 17.9 0 0 30 9.69h74.567a30 30 135 0 0 30-30v-133.86a30 30 45 0 0-30-30h-120.96a30 30 135 0 0-30 30z" fill="#26a269"/><rect x="52.351" y="577.55" width="48.962" height="84.074" rx="24.481" ry="24.481" fill="#26a269"/><rect x="141.5" y="540.63" width="119.84" height="44.28" rx="22.14" ry="22.14" fill="#26a269"/></g><path d="M314.623 601.228a40.625 40.625 0 0 0-36.363 22.576 32.599 32.599 0 0 0-3.09-.148 32.599 32.599 0 0 0-32.6 32.6 32.599 32.599 0 0 0 .9 7.61h136.434a27.262 27.262 0 0 0-24.814-25.949 40.625 40.625 0 0 0-40.434-36.69 40.625 40.625 0 0 0-.033 0zM191.617 667.906a20.492 20.492 0 0 0-19.428 13.979 17.222 17.222 0 0 0-6.513-1.281 17.222 17.222 0 0 0-17.223 17.222 17.222 17.222 0 0 0 2.192 8.408h30.058a17.222 17.222 0 0 0 .201-.367 20.492 20.492 0 0 0 .623.367h20.176a20.492 20.492 0 0 0 10.406-17.836 20.492 20.492 0 0 0-20.492-20.492z" fill="#fff"/></g><path d="m1482.5-2126.3v-112.02a22.105 22.105 135 0 1 22.105-22.105h185.64a22.105 22.105 45 0 1 22.105 22.105v106.62" fill="none" stroke="url(#g)" stroke-width="15"/><path d="m1482.5-2126.3v-112.02a22.105 22.105 135 0 1 22.105-22.105h185.64a22.105 22.105 45 0 1 22.105 22.105v106.62" fill="none" stroke="url(#h)" stroke-width="15"/><rect transform="skewX(-15.455) scale(1 .96384)" x="1069.2" y="-2211.4" width="133.15" height="137.1" rx="15.683" ry="14.773" fill="#faddde" style="-inkscape-stroke:none"/><path d="m1767.1-2121.9c4.777 0 6.968 3.07 6.026 6.584l-26.943 100.55c-0.942 3.514-4.78 6.586-9.555 6.586h-93.915c-4.775 0-6.967-3.072-6.025-6.586l26.943-100.55c0.942-3.514 4.777-6.584 9.554-6.584z" fill="#3584e4" style="paint-order:markers fill stroke"/><path d="m1754-2017.6v9.477a9.456 9.456 0 0 1-9.477 9.477h-199.01a9.456 9.456 0 0 1-9.476-9.477v-9.477h208.49z" fill="url(#i)" style="paint-order:markers fill stroke"/><path d="m1760.3-2017.6-2.596 9.477c-1.387 5.064-7.888 9.477-13.138 9.477h-66.338c-5.25 0-9.476-4.807-9.476-9.477v-9.477h75.814z" fill="#77767b" style="paint-order:markers fill stroke"/><path d="m1577-2017.6h47.982v2.975a2.998 2.998 135 0 1-2.999 2.998h-42.006a2.977 2.977 45 0 1-2.977-2.977z" fill="#77767b"/><g enable-background="new"><g stroke-width=".6875"><path transform="matrix(1.6244 0 -.4919 1.6244 1662.8 -2408.5)" d="m80 198 8 24 5.217-4.47 3.392 4.07a2.5 2.5 0 0 0 3.522.32 2.5 2.5 0 0 0 .32-3.52l-3.437-4.125L102 210z" fill-opacity=".18597"/><path transform="matrix(1.6244 0 -.4919 1.6244 1662.8 -2408.5)" d="m80 196 8 24 5.217-4.47 3.392 4.07a2.5 2.5 45 0 0 3.522.32 2.5 2.5 45 0 0 .32-3.52l-3.437-4.125L102 208z" enable-background="new" fill="#c0bfbc"/><path transform="matrix(1.1168 0 -.33818 1.1168 1617.4 -2124.9)" d="M80.072 31.182 82 36.965v-4.733zM82.346 38l9.363 28.092 7.588-6.504 4.933 5.922a3.636 3.636 0 0 0 5.124.465 3.636 3.636 0 0 0 .466-5.12l-5-6L110.482 50H106v-4.676L103.572 44H94v-5.22L92.572 38H88zM112 48.598v.101l.072-.062z" enable-background="new" fill="#fff"/><path transform="matrix(1.6244 0 -.4919 1.6244 1573 -2155.1)" d="m88 40 8 24 5.217-4.47 3.392 4.07a2.5 2.5 0 0 0 3.522.32 2.5 2.5 0 0 0 .238-.233z" fill="#deddda"/><path transform="matrix(1.6244 0 -.4919 1.6244 1662.8 -2408.5)" d="M93.7 204.812h4.125v4.125H93.7z" enable-background="new" fill="#fff" style="font-variation-settings:normal"/><path transform="matrix(1.6244 0 -.4919 1.6244 1662.8 -2408.5)" d="m97.825 200.69h4.125v4.125h-4.125zm-8.25-4.125h4.125v4.125h-4.125z" enable-background="new" fill="url(#j)" stroke-linecap="round" stroke-width="3.4375"/></g></g><circle cx="1482.5" cy="-2126.1" r="7.523" fill="#fff"/><circle cx="1482.5" cy="-2225.6" r="7.523" fill="#fff"/><circle cx="1497.5" cy="-2260.5" r="7.523" fill="#fff"/><circle cx="1537.5" cy="-2260.5" r="7.523" fill="#fff"/><circle cx="1577.5" cy="-2260.5" r="7.523" fill="#fff"/><circle cx="1617.5" cy="-2260.5" r="7.523" fill="#fff"/><circle cx="1657.5" cy="-2260.5" r="7.523" fill="#fff"/><circle cx="1697.5" cy="-2260.5" r="7.523" fill="#fff"/><circle cx="1712.5" cy="-2230.6" r="7.523" fill="#fff"/><circle cx="1712.5" cy="-2190.5" r="7.523" fill="#fff"/><circle cx="1482.5" cy="-2193.2" r="7.523" fill="#fff"/><circle cx="1482.5" cy="-2160.8" r="7.523" fill="#fff"/><circle cx="1712.5" cy="-2147.3" r="7.523" fill="#fff"/></g></svg>
