<?xml version="1.0" encoding="UTF-8"?>
<svg fill="none" viewBox="0 0 30 30" xmlns="http://www.w3.org/2000/svg"><rect width="30" height="30" rx="2" fill="url(#a)"/><path d="m0 28v1c0 1.1046 0.75 1 1.5 2v-1c-0.82843 0-1.5-0.8954-1.5-2zm1.5 3h27c0.75-1 1.5-0.8954 1.5-2v-1c0 1.1046-0.6716 2-1.5 2h-27v1z" clip-rule="evenodd" fill="#031C5A" fill-opacity=".1" fill-rule="evenodd"/><path d="m15.36 20.928c-1.632 0-2.856-0.504-3.672-1.512-0.8-1.008-1.2-2.336-1.2-3.984 0-1.072 0.192-2.016 0.576-2.832 0.384-0.832 0.944-1.48 1.68-1.944 0.736-0.48 1.64-0.72 2.712-0.72 0.496 0 1 0.064 1.512 0.192s0.992 0.304 1.44 0.528l-0.696 1.608c-0.4-0.208-0.792-0.36-1.176-0.456-0.368-0.112-0.72-0.168-1.056-0.168-0.944 0-1.68 0.336-2.208 1.008-0.512 0.672-0.768 1.6-0.768 2.784 0 0.816 0.096 1.512 0.288 2.088 0.208 0.56 0.528 0.992 0.96 1.296 0.432 0.288 1 0.432 1.704 0.432 0.368 0 0.776-0.048 1.224-0.144 0.464-0.112 0.896-0.248 1.296-0.408v1.656c-0.384 0.16-0.776 0.296-1.176 0.408s-0.88 0.168-1.44 0.168zm-0.36 3.312c-1.28 0-2.456-0.216-3.528-0.648s-2.008-1.04-2.808-1.824c-0.784-0.8-1.392-1.736-1.824-2.808s-0.648-2.248-0.648-3.528c0-1.216 0.216-2.352 0.648-3.408 0.448-1.072 1.072-2.008 1.872-2.808 0.8-0.816 1.736-1.448 2.808-1.896 1.072-0.464 2.232-0.696 3.48-0.696 1.216 0 2.352 0.216 3.408 0.648 1.072 0.432 2.008 1.048 2.808 1.848 0.816 0.784 1.448 1.712 1.896 2.784 0.464 1.072 0.696 2.248 0.696 3.528s-0.216 2.456-0.648 3.528-1.048 2.008-1.848 2.808c-0.784 0.784-1.712 1.392-2.784 1.824s-2.248 0.648-3.528 0.648zm0-1.536c0.992 0 1.912-0.176 2.76-0.528 0.864-0.368 1.624-0.872 2.28-1.512 0.656-0.656 1.168-1.424 1.536-2.304 0.368-0.896 0.552-1.872 0.552-2.928 0-1.008-0.184-1.952-0.552-2.832-0.352-0.88-0.848-1.656-1.488-2.328s-1.4-1.192-2.28-1.56c-0.864-0.384-1.8-0.576-2.808-0.576-1.024 0-1.976 0.184-2.856 0.552-0.864 0.352-1.624 0.856-2.28 1.512-0.64 0.64-1.144 1.408-1.512 2.304-0.352 0.896-0.528 1.872-0.528 2.928s0.176 2.032 0.528 2.928c0.352 0.88 0.848 1.648 1.488 2.304 0.63997 0.64 1.392 1.144 2.256 1.512 0.88 0.352 1.848 0.528 2.904 0.528z" fill="#FCFCFC"/><defs><linearGradient id="a" x2="22.5" y2="30" gradientUnits="userSpaceOnUse"><stop stop-color="#219CDE" offset="0"/><stop stop-color="#1E93D2" offset="1"/></linearGradient></defs></svg>
