<?xml version="1.0" encoding="UTF-8"?>
<svg width="48" height="48" viewBox="0 0 12.7 12.7" xml:space="preserve" xmlns="http://www.w3.org/2000/svg" xmlns:xlink="http://www.w3.org/1999/xlink"><defs><radialGradient id="h" cx="0" cy="0" r="1" gradientTransform="rotate(90 0 6.35) scale(3.5278)" gradientUnits="userSpaceOnUse"><stop stop-color="#915908" offset="0"/><stop stop-color="#7c4c08" offset="1"/></radialGradient><radialGradient id="g" cx="0" cy="0" r="1" gradientTransform="rotate(90 0 6.35) scale(5.1153)" gradientUnits="userSpaceOnUse"><stop stop-color="#fee2b4" offset="0"/><stop stop-color="#feeac4" offset="1"/></radialGradient><radialGradient id="j" cx="0" cy="0" r="1" gradientTransform="matrix(1.7197 2.4077 -2.4076 1.7198 6.72 4.465)" gradientUnits="userSpaceOnUse"><stop stop-color="#dc4e5c" offset="0"/><stop stop-color="#c0392b" offset="1"/></radialGradient><linearGradient id="e" x1="3.2" x2="18" y2="24" gradientTransform="matrix(.47673 0 0 .4648 1.058 1.058)" gradientUnits="userSpaceOnUse"><stop stop-color="#3daee9" offset="0"/><stop stop-color="#2980b9" offset="1"/></linearGradient><linearGradient id="f" x1="8.635" x2="10.902" y1="3.683" y2="5.95" gradientTransform="translate(0 .265)" gradientUnits="userSpaceOnUse"><stop stop-opacity=".22727" offset="0"/><stop stop-opacity="0" offset="1"/></linearGradient></defs><path d="M2.381 11.642a1.32 1.32 0 0 1-1.323-1.323V6.35h10.584v3.969a1.32 1.32 0 0 1-1.323 1.323z" fill="#1e5e88" stroke-width=".47041"/><path d="M2.381 1.058a1.32 1.32 0 0 0-1.323 1.323V6.35h10.584V2.381a1.32 1.32 0 0 0-1.323-1.323H2.38z" fill="#90c4e6" stroke-width=".47041"/><rect x="1.058" y="1.323" width="10.583" height="10.054" rx="1.323" ry="1.323" fill="url(#e)" stroke-width=".47073"/><path d="m9.375 3.378-6.081 5.901 2.097 2.098h4.928a1.32 1.32 0 0 0 1.323-1.323v-4.41z" fill="url(#f)" stroke-width=".565"/><path d="M6.35 2.117A4.233 4.233 0 0 0 2.117 6.35h8.466A4.233 4.233 0 0 0 6.35 2.117z" fill="#fef9ec" stroke-width=".44097"/><path d="M6.35 10.583A4.233 4.233 0 0 1 2.117 6.35h8.466a4.233 4.233 0 0 1-4.233 4.233z" fill="#fdc35d" stroke-width=".44097"/><ellipse cx="6.35" cy="6.35" rx="4.233" ry="3.969" fill="url(#g)" stroke-width=".44097"/><path d="M9.878 6.35a3.527 3.527 0 1 1-7.056 0H6.35z" fill="url(#h)" stroke-width=".44097"/><ellipse cx="6.35" cy="6.35" rx="3.528" ry=".706" fill="#a3661d" stroke-width=".44097"/><path d="M5.037 2.841c.151-.066.313.05.313.215 0 .094-.056.18-.14.221A4.251 4.251 0 0 0 3.276 5.21a.249.249 0 0 1-.221.141c-.165 0-.28-.162-.215-.313A4.249 4.249 0 0 1 5.037 2.84Z" clip-rule="evenodd" fill="#fcfcfc" fill-rule="evenodd" stroke-width=".44097"/><circle cx="7.408" cy="5.153" r="1.72" fill="url(#j)" stroke-width=".42994"/><path d="M5.694 5.024a1.72 1.72 0 0 0-.005.129 1.72 1.72 0 0 0 1.72 1.72 1.72 1.72 0 0 0 1.72-1.72 1.72 1.72 0 0 0-.006-.128 1.72 1.72 0 0 1-1.715 1.59 1.72 1.72 0 0 1-1.714-1.59Z" fill="#b23528" stroke-width=".42994"/></svg>
