<?xml version="1.0" encoding="UTF-8"?>
<svg id="b" enable-background="new" version="1.0" viewBox="0 0 16 16" xmlns="http://www.w3.org/2000/svg"><title id="c">Adwaita Icon Template</title><defs id="d"><clipPath id="a"><rect id="e" transform="scale(-1)" x="18.761" y="282.61" width="14" height="5" rx="0" ry="0" fill="#f1f3f5" style="paint-order:normal"/></clipPath></defs><g id="f" transform="translate(.23886 -172.61)"><rect id="g" transform="scale(-1)" x="-14.261" y="-188.11" width="13" height="15" rx="1.5" ry="1.5" enable-background="new" fill="#f1f3f5" stroke="#a7b0b7" stroke-linejoin="miter" stroke-miterlimit="4" stroke-width="1" style="paint-order:normal"/><rect id="h" transform="matrix(-1.0002 0 0 -1.0006 -18.005 -110.17)" x="-32.26" y="-298.11" width="12.997" height="14.996" rx="1.4997" ry="1.4991" clip-path="url(#a)" enable-background="new" fill="#00aade" stroke="#006888" stroke-linejoin="miter" stroke-miterlimit="4" stroke-width=".9996" style="paint-order:normal"/><path id="i" d="m0.76114 177.11h14" enable-background="new" fill="none" stroke="#006888" stroke-linejoin="miter" stroke-width="1"/><path id="j" d="m3.7611 185.61 0.67811-2.7257 2.0343 2.0443z" fill="#070c0f" style="paint-order:normal"/><path id="k" d="m6.4736 184.93-2.0343-2.0443 8.338-8.3186 2.0343 2.0443z" enable-background="new" fill="#f9da02"/><path id="l" d="m5.1173 183.57-0.67811-0.68143 8.3441-8.3247 0.672 0.68757z" enable-background="new" fill="#fbeb83"/><path id="m" d="m5.7955 184.25 0.6781 0.68143 8.3441-8.3247-0.68421-0.67529z" enable-background="new" fill="#dcb102"/><path id="n" d="m3.7611 185.61 0.35879-1.4422 1.0764 1.0816z" fill="#070c0f" style="paint-order:normal"/></g></svg>
