<?xml version="1.0" encoding="UTF-8"?>
<svg id="a" enable-background="new" version="1.0" viewBox="0 0 16 16" xmlns="http://www.w3.org/2000/svg"><title id="b">Adwaita Icon Template</title><rect id="c" x="-308" y="-186.9" width="48" height="46.154" rx="3.6923" ry="3.6923" enable-background="new" fill="#aef766" style="paint-order:normal"/><rect id="d" x="-308" y="-188.75" width="48" height="46.154" rx="3.6923" ry="3.6923" enable-background="new" fill="#d7fdb2" style="paint-order:normal"/><rect id="e" x="-252" y="-186.9" width="48" height="46.154" rx="3.6923" ry="3.6923" enable-background="new" fill="#fbeb83" style="paint-order:normal"/><rect id="f" x="-252" y="-188.75" width="48" height="46.154" rx="3.6923" ry="3.6923" enable-background="new" fill="#fcf4c0" style="paint-order:normal"/><rect id="g" x="-308" y="-242.9" width="48" height="46.154" rx="3.6923" ry="3.6923" enable-background="new" fill="#b97ace" style="paint-order:normal"/><rect id="h" x="-308" y="-244.75" width="48" height="46.154" rx="3.6923" ry="3.6923" enable-background="new" fill="#d4ade2" style="paint-order:normal"/><rect id="i" x="-252" y="-242.9" width="48" height="46.154" rx="3.6923" ry="3.6923" enable-background="new" fill="#6acfec" style="paint-order:normal"/><rect id="j" x="-252" y="-244.75" width="48" height="46.154" rx="3.6923" ry="3.6923" enable-background="new" fill="#c1ebf7" style="paint-order:normal"/><g id="k" transform="matrix(5 0 0 5 -2535.6 -1750)" enable-background="new"><g id="l" transform="translate(70.997 -49)" enable-background="new"><rect id="m" x="436.11" y="399" width="3.2" height="3.0417" rx=".24" ry=".32018" enable-background="new" fill="#f1f3f5" style="paint-order:normal"/><path id="n" d="m439.31 400.6h-1.6v1.6h1.344c0.14183 0 0.25601-0.10979 0.25601-0.24616z" enable-background="new" fill="#753390" style="paint-order:normal"/><path id="o" d="m437.71 399v1.6h1.6v-1.344c0-0.14183-0.10979-0.25601-0.24616-0.25601z" enable-background="new" fill="#52a302" style="paint-order:normal"/><path id="p" d="m436.36 399c-0.13636 0-0.24614 0.11405-0.24614 0.25571v1.3424h1.6v-1.5982z" enable-background="new" fill="#c02700" style="paint-order:normal"/><path id="q" d="m437.71 399.1h-1.3097c-0.15408 7.7e-4 -0.19547 0.11557-0.1926 0.23114v1.2713" enable-background="new" fill="none" opacity=".97" stroke="#851b00" stroke-linejoin="miter" stroke-miterlimit="4" stroke-width=".19509"/><path id="r" d="m437.71 402.1h1.3097c0.15408-7.6e-4 0.19547-0.11557 0.1926-0.23114v-1.2713" enable-background="new" fill="none" opacity=".97" stroke="#471d57" stroke-linejoin="miter" stroke-miterlimit="4" stroke-width=".19509"/><path id="s" d="m437.71 402.2v-1.6h-1.6v1.344c0 0.14183 0.10979 0.25601 0.24616 0.25601z" enable-background="new" fill="#006888" style="paint-order:normal"/><path id="t" d="m437.71 402.1h-1.3097c-0.15408-7.7e-4 -0.19547-0.11557-0.1926-0.23114v-1.2713" enable-background="new" fill="none" opacity=".97" stroke="#003445" stroke-linejoin="miter" stroke-miterlimit="4" stroke-width=".19509"/><path id="u" d="m437.71 399.1h1.3097c0.15408 7.7e-4 0.19547 0.11557 0.1926 0.23114v1.2713" enable-background="new" fill="none" opacity=".97" stroke="#3c7902" stroke-linejoin="miter" stroke-miterlimit="4" stroke-width=".19509"/><rect id="v" transform="rotate(90)" x="400.4" y="-437.71" width=".2" height="1.6" ry="0" enable-background="new" fill="#851b00" style="paint-order:normal"/><rect id="w" transform="rotate(90)" x="400.6" y="-437.71" width=".2" height="1.6" ry="0" enable-background="new" fill="#003445" style="paint-order:normal"/><rect id="x" transform="rotate(90)" x="400.4" y="-439.31" width=".2" height="1.6" ry="0" enable-background="new" fill="#3c7902" style="paint-order:normal"/><rect id="y" transform="rotate(90)" x="400.6" y="-439.31" width=".2" height="1.6" ry="0" enable-background="new" fill="#471d57" style="paint-order:normal"/><rect id="z" transform="scale(-1)" x="-437.91" y="-400.6" width=".2" height="1.6" ry="0" enable-background="new" fill="#3c7902" style="paint-order:normal"/><rect id="aa" transform="scale(-1)" x="-437.71" y="-400.6" width=".2" height="1.6" ry="0" enable-background="new" fill="#851b00" style="paint-order:normal"/><rect id="ab" transform="scale(-1)" x="-437.71" y="-402.2" width=".2" height="1.6" ry="0" enable-background="new" fill="#003445" style="paint-order:normal"/><rect id="ac" transform="scale(-1)" x="-437.91" y="-402.2" width=".2" height="1.6" ry="0" enable-background="new" fill="#471d57" style="paint-order:normal"/></g></g></svg>
