<?xml version="1.0" encoding="UTF-8"?>
<svg id="b" enable-background="new" version="1.0" viewBox="0 0 128 128" xmlns="http://www.w3.org/2000/svg" xmlns:osb="http://www.openswatchbook.org/uri/2009/osb" xmlns:xlink="http://www.w3.org/1999/xlink"><title id="c">Adwaita Icon Template</title><defs id="d"><linearGradient id="a" x1="184" x2="58.361" y1="33.559" y2="33.559" gradientTransform="matrix(.25 0 0 .36538 12 46)" gradientUnits="userSpaceOnUse"><stop id="e" stop-color="#049002" offset="0"/><stop id="f" stop-color="#049002" stop-opacity="0" offset="1"/></linearGradient></defs><rect id="g" x="8" y="12" width="112" height="102" rx="8" ry="8.0792" enable-background="new" fill="#d2d8dc" style="paint-order:normal"/><rect id="h" x="16" y="16" width="96" height="92" rx="4.2048" ry="4.1343" enable-background="new" fill="#163116" style="paint-order:normal"/><path id="i" d="m8 104v4c0 4.432 3.568 8 8 8h96c4.432 0 8-3.568 8-8v-4c0 4.432-3.568 8-8 8h-96c-4.432 0-8-3.568-8-8z" enable-background="new" fill="#758087" style="paint-order:normal"/><rect id="j" transform="scale(-1)" x="-108" y="-102.1" width="88" height="82.1" ry="1.0244" enable-background="new" fill="#000080" opacity=".05" style="paint-order:normal"/><path id="k" d="m20 64c30.289 0.1809 0 0 88.55-0.42523" enable-background="new" fill="none" opacity=".23" stroke="#049002" stroke-linejoin="miter" stroke-miterlimit="10" stroke-width="4"/><path id="l" d="m37.016 63.546 0.07176-20.323 15.885-0.04901 0.1878 44.96 23.376-41.693 4.9962 15.218 5.467-14.659 7 17v0" enable-background="new" fill="none" stroke="url(#a)" stroke-linecap="round" stroke-linejoin="miter" stroke-miterlimit="10" stroke-width="4"/><text id="m" x="50.29985" y="54.984444" fill="#000000" font-family="sans-serif" font-size="40px" letter-spacing="0px" word-spacing="0px" style="line-height:1.25" xml:space="preserve"><tspan id="n" x="50.29985" y="54.984444"/></text></svg>
