<?xml version="1.0" encoding="UTF-8"?>
<svg id="h" enable-background="new" version="1.0" viewBox="0 0 128 128" xmlns="http://www.w3.org/2000/svg" xmlns:xlink="http://www.w3.org/1999/xlink"><title id="i">Adwaita Icon Template</title><defs id="j"><linearGradient id="e" x1="-156" x2="220" y1="-256" y2="-256" gradientTransform="matrix(.2604 0 0 .28125 228.62 9.9997)" gradientUnits="userSpaceOnUse"><stop id="k" offset="0"/><stop id="l" stop-color="#424048" offset="1"/></linearGradient><radialGradient id="a" cx="-72.632" cy="88.045" r="200" gradientTransform="matrix(.08037 0 0 2.375 234.09 -273.11)" gradientUnits="userSpaceOnUse"><stop id="m" stop-color="#d5d3cf" offset="0"/><stop id="n" stop-color="#d5d3cf" stop-opacity="0" offset="1"/></radialGradient><clipPath id="g"><rect id="o" x="270.27" y="-71.789" width="288" height="229.05" rx="0" ry="0" enable-background="new" fill="#e66100" style="paint-order:normal"/></clipPath><filter id="f" x="-.23424" y="-.018493" width="1.4685" height="1.037" color-interpolation-filters="sRGB"><feGaussianBlur id="p" stdDeviation="2.3424332"/></filter><linearGradient id="d" x1="-74" x2="-16" y1="-243.12" y2="-242" gradientTransform="matrix(.93103 0 0 1.0588 292.9 192.24)" gradientUnits="userSpaceOnUse"><stop id="q" stop-color="#6bf9f4" offset="0"/><stop id="r" stop-color="#6bf9f4" stop-opacity="0" offset="1"/></linearGradient><linearGradient id="c" x1="72" x2="24" y1="244" y2="244" gradientTransform="rotate(-90,61,239)" gradientUnits="userSpaceOnUse"><stop id="s" stop-color="#6bf9f4" stop-opacity=".48963" offset="0"/><stop id="t" stop-color="#08c5bf" stop-opacity=".65098" offset="1"/></linearGradient><linearGradient id="b" x1="232" x2="583.64" y1="619.96" y2="619.96" gradientTransform="matrix(-.25 0 0 .25 146 125.01)" gradientUnits="userSpaceOnUse"><stop id="u" stop-color="#d5d3cf" offset="0"/><stop id="v" stop-color="#e4e1de" offset=".045501"/><stop id="w" stop-color="#b8b4ae" offset=".091001"/><stop id="x" stop-color="#ada9a1" offset=".91001"/><stop id="y" stop-color="#e4e1de" offset=".95551"/><stop id="z" stop-color="#d5d3cf" offset="1"/></linearGradient></defs><g id="aa" transform="translate(-163.25 1.6271)"><g id="ab" transform="translate(183.25 -173.63)" enable-background="new"><rect id="ac" transform="rotate(90)" x="180" y="-88" width="111.91" height="88" rx="8" ry="8.8" enable-background="new" fill="#deddda" style="paint-order:normal"/><g id="ad" transform="rotate(180 54 234)"><rect id="ae" transform="rotate(90)" x="188" y="-100" width="92" height="72" rx="4.75" ry="4.75" enable-background="new" fill="url(#e)" style="paint-order:normal"/><rect id="af" transform="rotate(90)" x="188" y="-100" width="92" height="72" rx="0" ry="0" enable-background="new" fill="url(#a)" opacity=".486" style="paint-order:normal"/><path id="ag" transform="matrix(1.7947e-8 .33333 -.31425 0 77.44 97.911)" d="m372.27-113.05v304h24v-304z" clip-path="url(#g)" color="#000000" color-rendering="auto" dominant-baseline="auto" enable-background="new" fill="#6bf9f4" filter="url(#f)" image-rendering="auto" shape-rendering="auto" solid-color="#000000" style="font-feature-settings:normal;font-variant-alternates:normal;font-variant-caps:normal;font-variant-ligatures:normal;font-variant-numeric:normal;font-variant-position:normal;isolation:auto;mix-blend-mode:normal;shape-padding:0;text-decoration-color:#000000;text-decoration-line:none;text-decoration-style:solid;text-indent:0;text-orientation:mixed;text-transform:none;white-space:normal"/><rect id="ah" transform="rotate(-90)" x="-228" y="36" width="4" height="60" fill="#fff" opacity=".5"/><rect id="ai" transform="rotate(90)" x="224" y="-100" width="54" height="72" rx="0" ry="0" enable-background="new" fill="url(#d)" opacity=".8" style="paint-order:normal"/><path id="aj" d="m95 227v46s0 2-2 2h-58c-2 0-2-2-2-2v-46" fill="url(#c)" stroke="#abebe9" stroke-width="2"/><g id="ak" transform="matrix(0,-1,-1,0,306,300)"><path id="al" d="m74 210v64h12l9-15 13-7v-39c0-3-3-3-3-3z" enable-background="new" fill="#f6f5f4"/><path id="am" d="m108 252h-19s-3 0-3 3v19z" enable-background="new" fill="#deddda"/></g><path id="an" d="m100 224h-72v4h72z" color="#000000" color-rendering="auto" dominant-baseline="auto" enable-background="new" fill="#fff" image-rendering="auto" shape-rendering="auto" solid-color="#000000" style="font-feature-settings:normal;font-variant-alternates:normal;font-variant-caps:normal;font-variant-ligatures:normal;font-variant-numeric:normal;font-variant-position:normal;isolation:auto;mix-blend-mode:normal;shape-padding:0;text-decoration-color:#000000;text-decoration-line:none;text-decoration-style:solid;text-indent:0;text-orientation:mixed;text-transform:none;white-space:normal"/></g><path id="ao" d="m88 280 1e-5 4c1e-5 4.432-3.568 8-8 8l-72 1e-5c-4.432 0-8-3.568-8-8l-3e-6 -4c8e-6 4.432 3.568 8 8 8l72 3e-5c4.432 0 8-3.568 8-8z" enable-background="new" fill="url(#b)" style="paint-order:normal"/></g></g></svg>
