<?xml version="1.0" encoding="UTF-8"?>
<svg id="c" enable-background="new" version="1.0" viewBox="0 0 128 128" xmlns="http://www.w3.org/2000/svg" xmlns:xlink="http://www.w3.org/1999/xlink"><title id="d">Adwaita Icon Template</title><defs id="e"><linearGradient id="a" x1="8" x2="120" y1="264" y2="264" gradientTransform="translate(0 12)" gradientUnits="userSpaceOnUse"><stop id="f" stop-color="#a51d2d" offset="0"/><stop id="g" stop-color="#ed333b" offset=".034322"/><stop id="h" stop-color="#c01c28" offset=".070624"/><stop id="i" stop-color="#c01c28" offset=".92768"/><stop id="j" stop-color="#ed333b" offset=".96429"/><stop id="k" stop-color="#c01c28" offset="1"/></linearGradient><clipPath id="b"><rect id="l" x="208" y="4" width="96" height="48" fill="#949390"/></clipPath></defs><g id="m" transform="translate(0,-172)"><g id="n"><g id="o"><rect id="p" x="8" y="264" width="112" height="24" rx="8" ry="8" enable-background="new" fill="url(#a)"/><rect id="q" x="8" y="200" width="112" height="84" rx="8" ry="8.8421" enable-background="new" fill="#ed333b"/><path id="r" d="m36 282h56l-4-10h-48z" enable-background="new" fill="#5e5c64" stroke="#5e5c64" stroke-linecap="round" stroke-linejoin="round" stroke-width="8"/><rect id="s" x="32" y="282" width="64" height="6" enable-background="new" fill="#424048"/><path id="t" d="m24 208h80l8 8v52h-96v-52z" enable-background="new" fill="#f6f5f4"/><g id="u" transform="translate(0 8)" enable-background="new"><rect id="v" x="16" y="216" width="96" height="32" enable-background="new" fill="#424048"/><circle id="w" cx="40" cy="232" r="6" enable-background="new" fill="#f6f5f4"/><circle id="x" cx="88" cy="232" r="6" enable-background="new" fill="#f6f5f4"/><rect id="y" x="52" y="226" width="24" height="12" enable-background="new" fill="#949390"/><path id="z" transform="matrix(.25 0 0 .25 -4.5e-6 225)" d="m272 28c0 61.856-50.144 112-112 112-61.856 0-112-50.144-112-112s50.144-112 112-112c61.856 0 112 50.144 112 112z" clip-path="url(#b)" enable-background="new" fill="#424048" opacity=".5"/></g></g></g></g></svg>
