<?xml version="1.0" encoding="UTF-8"?>
<svg id="f" enable-background="new" version="1.0" viewBox="0 0 128 128" xmlns="http://www.w3.org/2000/svg" xmlns:xlink="http://www.w3.org/1999/xlink"><title id="g">Adwaita Icon Template</title><defs id="h"><linearGradient id="a"><stop id="i" stop-color="#deddda" offset="0"/><stop id="j" stop-color="#eeeeec" offset=".045455"/><stop id="k" stop-color="#deddda" offset=".090909"/><stop id="l" stop-color="#deddda" offset=".90909"/><stop id="m" stop-color="#eeeeec" offset=".95455"/><stop id="n" stop-color="#c0bfbc" offset="1"/></linearGradient><linearGradient id="e" x1="20" x2="108" y1="238" y2="238" gradientUnits="userSpaceOnUse" xlink:href="#a"/><linearGradient id="d" x1="50" x2="74" y1="238" y2="238" gradientTransform="translate(2,-22)" gradientUnits="userSpaceOnUse" xlink:href="#a"/><linearGradient id="c" x1="65" x2="65" y1="204" y2="200" gradientUnits="userSpaceOnUse"><stop id="o" stop-color="#9a9996" offset="0"/><stop id="p" stop-color="#c0bfbc" offset="1"/></linearGradient></defs><g id="q" transform="translate(0,-172)"><g id="r"><g id="s"><rect id="t" x="20" y="234" width="88" height="58" rx="8.7726" ry="8.0179" fill="url(#e)" style="paint-order:normal"/><rect id="u" x="20" y="180" width="88" height="108" rx="8.7726" ry="8.0179" fill="#f6f5f4" style="paint-order:normal"/><rect id="v" x="24" y="186" width="80" height="98" rx="4" ry="4.0022" enable-background="new" fill="#1a5fb4" style="paint-order:normal"/><rect id="w" x="24" y="184" width="80" height="98" rx="4" ry="4.0022" enable-background="new" fill="#3584e4" style="paint-order:normal"/><rect id="x" x="24" y="216" width="80" height="2" rx="0" ry="0" enable-background="new" fill="#1c71d8" style="paint-order:normal"/><rect id="y" x="24" y="248" width="80" height="2" rx="0" ry="0" enable-background="new" fill="#1c71d8" style="paint-order:normal"/><g id="b"><path id="z" d="m55 196h18c1.662 0 3 1 3 3v5h-3.9688l-0.03125-4h-16l0.03125 4h-4.0312v-5c0-1.662 1.338-3 3-3z" fill="url(#d)" style="paint-order:normal"/><rect id="aa" x="52" y="202" width="24" height="4" ry="1.5" opacity=".1"/><path id="ab" d="m55 200c-1.662 0-3 1.338-3 3v1h4v-2h16v2h4v-1c0-1.662-1.338-3-3-3z" fill="url(#c)"/><rect id="ac" x="56" y="202" width="16" height="2" opacity=".1"/></g><use id="ad" transform="translate(0,32)" width="100%" height="100%" xlink:href="#b"/><use id="ae" transform="translate(0,64)" width="100%" height="100%" xlink:href="#b"/></g></g></g></svg>
