<?xml version="1.0" encoding="UTF-8"?>
<svg id="d" enable-background="new" version="1.0" viewBox="0 0 128 128" xmlns="http://www.w3.org/2000/svg" xmlns:xlink="http://www.w3.org/1999/xlink"><title id="e">Adwaita Icon Template</title><defs id="f"><linearGradient id="b" x1="120" x2="568" y1="619.96" y2="619.96" gradientTransform="matrix(.25 0 0 .25 -22 -50.991)" gradientUnits="userSpaceOnUse"><stop id="g" stop-color="#d5d3cf" offset="0"/><stop id="h" stop-color="#e4e1de" offset=".035714"/><stop id="i" stop-color="#d5d3cf" offset=".071429"/><stop id="j" stop-color="#d5d3cf" offset=".92857"/><stop id="k" stop-color="#e4e1de" offset=".96429"/><stop id="l" stop-color="#d5d3cf" offset="1"/></linearGradient><radialGradient id="a" cx="64" cy="194.19" r="44" gradientTransform="matrix(-4.1364 1.2533e-6 -2.6514e-7 -1.3909 319.23 170.63)" gradientUnits="userSpaceOnUse"><stop id="m" stop-color="#fff" offset="0"/><stop id="n" stop-color="#fff" stop-opacity=".094118" offset="1"/></radialGradient><linearGradient id="c" x1="301" x2="104" y1="33.559" y2="33.559" gradientTransform="matrix(.25 0 0 .25 -2 61)" gradientUnits="userSpaceOnUse"><stop id="o" stop-color="#f9f06b" offset="0"/><stop id="p" stop-color="#f9f06b" stop-opacity="0" offset="1"/></linearGradient></defs><rect id="q" x="8" y="28" width="112" height="86" rx="8" ry="8" enable-background="new" fill="#f6f5f4" style="paint-order:normal"/><rect id="r" x="12" y="32" width="92" height="76" rx="4" ry="4" enable-background="new" fill="#241f31" style="paint-order:normal"/><path id="s" d="m8 104v4c0 4.432 3.568 8 8 8h96c4.432 0 8-3.568 8-8v-4c0 4.432-3.568 8-8 8h-96c-4.432 0-8-3.568-8-8z" enable-background="new" fill="url(#b)" style="paint-order:normal"/><rect id="t" transform="scale(1,-1)" x="16" y="-104" width="84" height="68" enable-background="new" fill="url(#a)" opacity=".05" style="paint-order:normal"/><path id="u" d="m16 74h26l10-23 6 39 8-16h34" enable-background="new" fill="none" opacity=".236" stroke="#e5a50a" stroke-miterlimit="10" stroke-width="4"/><path id="v" d="m16 74h26l10-23 6 39 8-16h6" enable-background="new" fill="none" stroke="url(#c)" stroke-linecap="round" stroke-miterlimit="10" stroke-width="4"/><g id="w" transform="translate(0,-170)"><path id="x" d="m116 232v4c0 2.2091-1.7909 4-4 4s-4-1.7909-4-4v-2l4-2z" enable-background="new" fill="#949390" style="paint-order:normal"/><path id="y" d="m116 248v6h-4c-2.216 0-4-1.784-4-4v-2z" enable-background="new" fill="#949390" style="paint-order:normal"/><path id="z" d="m116 252v-4a4 4 0 0 0-4-4 4 4 0 0 0-4 4 4 4 0 0 0 4 4z" enable-background="new" fill="#d5d3cf" style="paint-order:normal"/><ellipse id="aa" transform="scale(-1,1)" cx="-114" cy="250" rx="1" ry="1" enable-background="new" fill="#68676b" style="paint-order:normal"/><path id="ab" d="m116 230v4a4 4 0 0 1-4 4 4 4 0 0 1-4-4 4 4 0 0 1 4-4z" enable-background="new" fill="#d5d3cf" style="paint-order:normal"/><ellipse id="ac" transform="scale(-1)" cx="-114" cy="-232" rx="1" ry="1" enable-background="new" fill="#68676b" style="paint-order:normal"/><path id="ad" d="m108 218v4c0 2.2091 1.7909 4 4 4s4-1.7909 4-4v-2l-4-2z" enable-background="new" fill="#949390" style="paint-order:normal"/><path id="ae" d="m108 216v4a4 4 0 0 0 4 4 4 4 0 0 0 4-4 4 4 0 0 0-4-4z" enable-background="new" fill="#d5d3cf" style="paint-order:normal"/><ellipse id="af" transform="scale(1,-1)" cx="110" cy="-218" rx="1" ry="1" enable-background="new" fill="#68676b" style="paint-order:normal"/><path id="ag" d="m116 206v6h-4c-2.216 0-4-1.784-4-4v-2z" enable-background="new" fill="#949390" style="paint-order:normal"/><path id="ah" d="m116 210v-4a4 4 0 0 0-4-4 4 4 0 0 0-4 4 4 4 0 0 0 4 4z" enable-background="new" fill="#d5d3cf" style="paint-order:normal"/><ellipse id="ai" transform="scale(-1,1)" cx="-114" cy="208" rx="1" ry="1" enable-background="new" fill="#68676b" style="paint-order:normal"/></g></svg>
