<?xml version="1.0" encoding="UTF-8"?>
<svg id="d" enable-background="new" version="1.0" viewBox="0 0 128 128" xmlns="http://www.w3.org/2000/svg" xmlns:xlink="http://www.w3.org/1999/xlink"><title id="e">Adwaita Icon Template</title><defs id="f"><linearGradient id="c" x1="11.823" x2="115.82" y1="268" y2="268" gradientUnits="userSpaceOnUse"><stop id="g" stop-color="#986a44" offset="0"/><stop id="h" stop-color="#cdab8f" offset=".028846"/><stop id="i" stop-color="#b5835a" offset=".057692"/><stop id="j" stop-color="#b5835a" offset=".94231"/><stop id="k" stop-color="#cdab8f" offset=".97133"/><stop id="l" stop-color="#986a44" offset="1"/></linearGradient><linearGradient id="b" x1="70.586" x2="60" y1="53.255" y2="23" gradientTransform="translate(0,170)" gradientUnits="userSpaceOnUse"><stop id="m" stop-color="#fff" offset="0"/><stop id="n" stop-color="#deddda" offset="1"/></linearGradient><linearGradient id="a" x1="60" x2="68" y1="268" y2="268" gradientUnits="userSpaceOnUse"><stop id="o" stop-color="#949390" offset="0"/><stop id="p" stop-color="#d5d3cf" offset=".083333"/><stop id="q" stop-color="#949390" offset=".16667"/><stop id="r" stop-color="#949390" offset=".83333"/><stop id="s" stop-color="#d5d3cf" offset=".91667"/><stop id="t" stop-color="#949390" offset="1"/></linearGradient></defs><g id="u" transform="translate(0,-172)"><g id="v" transform="translate(.17678)" enable-background="new"><rect id="w" x="12" y="212" width="104" height="76" rx="8" ry="8" enable-background="new" fill="url(#c)"/><rect id="x" x="12" y="186" width="104" height="68" rx="8" ry="8" enable-background="new" opacity=".1"/><rect id="y" x="12" y="184" width="104" height="68" rx="8" ry="8" enable-background="new" fill="#cdab8f"/><rect id="z" x="62" y="192" width="2" height="60" fill="#cdab8f" style="paint-order:normal"/><rect id="aa" transform="scale(1,-1)" x="64" y="-252" width="2" height="60" enable-background="new" fill="#eadcd0" style="paint-order:normal"/><g id="ab" transform="translate(0,17)" enable-background="new"><path id="ac" d="m60 178v4h4v-2h4v-2h-4zm4 4v2h-4v4h4v-2h4v-4zm0 6v2h-4v4h4v-2h4v-4zm0 6v2h-4v4h4v-2h4v-2-2zm0 6v2h-4v4h4v-2h4v-4zm0 6v2h-4v4h4v-2h4v-4zm0 6v2h-4v4h4v-2h4v-2-2zm0 6v2h-4v4h4v-2h4v-4zm0 6v2h-4v4h4v-2h4v-4zm0 6v2h-4v4h4v-2h4v-2-2z" fill="url(#b)" style="paint-order:normal"/><path id="ad" d="m64 179v1h4v-1zm-4 2v1h4v-1zm4 4v1h4v-1zm-4 2v1h4v-1zm4 4v1h4v-1zm-4 2v1h4v-1zm4 4v1h4v-1zm-4 2v1h4v-1zm4 4v1h4v-1zm-4 2v1h4v-1zm4 4v1h4v-1zm-4 2v1h4v-1zm4 4v1h4v-1zm-4 2v1h4v-1zm4 4v1h4v-1zm-4 2v1h4v-1zm4 4v1h4v-1zm-4 2v1h4v-1zm4 4v1h4v-1zm-4 2v1h4v-1z" fill="#241f31" opacity=".4" style="paint-order:normal"/></g><path id="ae" d="m60 186c-2.216 0-4 1.784-4 4v10c0 2.216 1.784 4 4 4v8c0 1.108 0.892 2 2 2h4c1.108 0 2-0.892 2-2v-8c2.216 0 4-1.784 4-4v-10c0-2.216-1.784-4-4-4zm2 22h4v4h-4z" enable-background="new" opacity=".1"/><g id="af" transform="translate(0,-66)" enable-background="new"><path id="ag" d="m62 258c-1.108 0-2 0.892-2 2v16c0 1.108 0.892 2 2 2h4c1.108 0 2-0.892 2-2v-16c0-1.108-0.892-2-2-2zm0 14h4v4h-4z" fill="url(#a)"/><rect id="ah" x="56" y="250" width="16" height="18" rx="4" ry="4" enable-background="new" fill="#3d3846"/><rect id="ai" x="56" y="248" width="16" height="18" rx="4" ry="4" enable-background="new" fill="#5e5c64"/><path id="aj" d="m62 254c-1.108 0-2 0.892-2 2v18c0 1.108 0.892 2 2 2h4c1.108 0 2-0.892 2-2v-18c0-1.108-0.892-2-2-2zm0 16h4v4h-4z" fill="#fff"/><rect id="ak" transform="scale(1,-1)" x="62" y="-260" width="4" height="10" rx="2" ry="2" enable-background="new" fill="#68676b" style="paint-order:normal"/><rect id="al" transform="scale(1,-1)" x="62" y="-258" width="4" height="8" rx="2" ry="2" enable-background="new" fill="#949390" style="paint-order:normal"/></g><path id="am" transform="translate(-.17678 172)" d="m16.178 13.072c-0.7547 0.43517-1.4278 0.98966-2 1.6387v62.578c0.57218 0.64901 1.2453 1.2035 2 1.6387z" fill="#fff" opacity=".1" style="paint-order:normal"/><path id="an" transform="translate(-.17678 172)" d="m112.18 13.072v65.855c0.75493-0.43551 1.4278-0.99114 2-1.6406v-62.574c-0.57219-0.64949-1.2451-1.2051-2-1.6406z" enable-background="new" fill="#fff" opacity=".1" style="paint-order:normal"/></g></g></svg>
