<?xml version="1.0" encoding="UTF-8"?>
<svg id="c" enable-background="new" version="1.0" viewBox="0 0 128 128" xmlns="http://www.w3.org/2000/svg" xmlns:xlink="http://www.w3.org/1999/xlink"><title id="d">Adwaita Icon Template</title><defs id="e"><linearGradient id="b" x1="12" x2="62" y1="276" y2="276" gradientUnits="userSpaceOnUse"><stop id="f" stop-color="#26a269" offset="0"/><stop id="g" stop-color="#3ad18b" stop-opacity=".98824" offset=".10295"/><stop id="h" stop-color="#2aa16b" stop-opacity=".94118" offset=".23023"/><stop id="i" stop-color="#239360" stop-opacity=".87843" offset="1"/></linearGradient><linearGradient id="a" x1="-1029.6" x2="-617.1" y1="44" y2="44" gradientTransform="matrix(.25 0 0 .20238 270 237)" gradientUnits="userSpaceOnUse"><stop id="j" stop-color="#babdb6" offset="0"/><stop id="k" stop-color="#f6f5f4" offset=".041667"/><stop id="l" stop-color="#d5d3cf" offset=".083333"/><stop id="m" stop-color="#deddda" offset=".91667"/><stop id="n" stop-color="#f6f5f4" offset=".95833"/><stop id="o" stop-color="#babdb6" offset="1"/></linearGradient></defs><g id="p" transform="translate(0,-172)"><g id="q" display="none"><g id="r" display="inline" enable-background="new"><rect id="s" x="9.2651e-8" y="172" width="128" height="128" display="inline" enable-background="accumulate" fill="#f0f0f0"/><circle id="t" cx="64" cy="236" r="59.504" display="inline" enable-background="new" fill="none" opacity=".1" stroke="#000" stroke-dasharray="0.99000001, 0.99000001" stroke-width=".99" style="paint-order:normal"/><rect id="u" x="20.495" y="180.49" width="87.01" height="111.01" rx="8.701" ry="7.9293" display="inline" enable-background="new" fill="none" opacity=".1" stroke="#000" stroke-dasharray="0.99000001, 0.99000001" stroke-width=".99" style="paint-order:normal"/><rect id="v" x="12.495" y="184.5" width="103.01" height="103.01" rx="7.9238" ry="7.9238" display="inline" enable-background="new" fill="none" opacity=".1" stroke="#000" stroke-dasharray="0.99000001, 0.99000001" stroke-width=".99" style="paint-order:normal"/><rect id="w" x="8.495" y="200.49" width="111.01" height="87.01" rx="7.9293" ry="8.701" display="inline" enable-background="new" fill="none" opacity=".1" stroke="#000" stroke-dasharray="0.99000001, 0.99000001" stroke-width=".99" style="paint-order:normal"/><path id="x" d="m2.6203e-5 289h128" display="inline" enable-background="new" fill="none" stroke="#62a0ea" stroke-width="2"/></g></g><g id="y"><rect id="z" x="12" y="240" width="104" height="48" rx="8" ry="8" enable-background="new" fill="url(#a)" style="font-variant-east_asian:normal;paint-order:normal"/><rect id="aa" x="12" y="184" width="104" height="100" rx="8" ry="8" fill="#f6f5f4" style="font-variant-east_asian:normal;paint-order:normal"/><path id="ab" transform="translate(0,172)" d="m20 12c-4.432 0-8 3.568-8 8v84c0 4.432 3.568 8 8 8h46v-48h50v-44c0-4.432-3.568-8-8-8z" fill="#deddda" opacity=".2"/><text id="ac" x="36.367523" y="257" fill="#000000" font-family="sans-serif" font-size="40px" letter-spacing="0px" stroke-width="1px" word-spacing="0px" style="line-height:25px" xml:space="preserve"><tspan id="ad" x="36.367523" y="279.89062"/></text><path id="ae" d="m20 184c-4.432 0-8 3.568-8 8v40h50v-48z" fill="#d46400"/><path id="af" d="m20 182c-4.432 0-8 3.568-8 8v40h50v-48z" fill="#ff7800"/><path id="ag" d="m66 284v-48h50v40c0 4.432-3.568 8-8 8z" fill="#1860b7"/><rect id="ah" transform="rotate(90)" x="232" y="-66" width="4" height="54" fill="#deddda"/><path id="ai" d="m66 282v-48h50v40c0 4.432-3.568 8-8 8z" fill="#3584e4"/><path id="aj" d="m12 236v40c0 4.432 3.568 8 8 8h42v-48z" fill="url(#b)"/><path id="ak" d="m12 234v40c0 4.432 3.568 8 8 8h42v-48z" fill="#2ec27e"/><g id="al" fill="#fff" style="font-feature-settings:normal;font-variant-caps:normal;font-variant-ligatures:normal;font-variant-numeric:normal" aria-label="2"><path id="am" d="m39.035 214.29c5.0778-3.6217 7.99-7.8034 7.99-12.358 0-5.2271-3.7337-8.3261-10.006-8.3261-3.1736 0-6.2352 0.78407-8.9235 2.2402l1.4561 4.8911c2.4642-1.1201 4.3311-1.6055 6.1232-1.6055 2.9496 0 4.6297 1.3068 4.6297 3.659 0 2.9869-2.6136 6.3099-11.238 13.03v4.0697h18.668v-5.6005z" fill="#fff" stroke-width="1px"/></g><g id="an" transform="translate(53.033)" fill="#fff" style="font-feature-settings:normal;font-variant-caps:normal;font-variant-ligatures:normal;font-variant-numeric:normal" aria-label="8"><path id="ao" d="m42.47 257.2c2.6136-1.3441 4.0324-3.3603 4.0324-5.7498 0-3.9204-3.771-6.5339-9.3342-6.5339-5.8992 0-9.8195 3.1736-9.8195 7.9154 0 2.8749 1.4561 4.5924 3.435 5.7872-2.6509 1.1201-4.1444 3.1363-4.1444 5.6752 0 4.3684 4.107 7.2806 10.268 7.2806 6.2726 0 10.454-3.211 10.454-8.0647 0-3.3976-2.2402-5.1525-4.8911-6.3099zm-5.5258-6.7579c1.7548 0 2.9123 0.85875 2.9123 2.2029 0 1.3441-0.97075 2.4269-2.4642 2.8002-1.9415-0.70939-3.3976-1.4561-3.3976-2.8376 0-1.3068 1.1574-2.1655 2.9496-2.1655zm0.29869 15.607c-2.3895 0-3.9577-1.1574-3.9577-2.8749 0-1.2321 0.78407-2.2029 2.1282-2.6509 2.8002 0.89608 5.3018 1.5681 5.3018 3.323 0 1.3068-1.4188 2.2029-3.4723 2.2029z" fill="#fff" stroke-width="1px"/></g><g id="ap" transform="translate(-49.885 50.842)" fill="#fff" style="font-feature-settings:normal;font-variant-caps:normal;font-variant-ligatures:normal;font-variant-numeric:normal" aria-label="4"><path id="aq" d="m99.822 209.21h-3.5096v-15.42h-6.1979l-12.06 15.42v5.6005h11.761v5.0778h6.4966v-5.0778h3.5096zm-15.868-0.0747 5.8619-7.654v7.6914z" fill="#fff" stroke-width="1px"/></g><rect id="ar" x="62" y="184" width="4" height="100" fill="#deddda"/></g></g></svg>
