<?xml version="1.0" encoding="UTF-8"?>
<svg viewBox="0 0 128 128" xmlns="http://www.w3.org/2000/svg"><defs><linearGradient id="j" x1="37" x2="37" y1="249" y2="254" gradientTransform="translate(20 -197.5)" gradientUnits="userSpaceOnUse"><stop stop-color="#d5d1cc" offset="0"/><stop stop-color="#f6f5f4" offset=".183"/><stop stop-color="#fff" offset=".395"/><stop stop-color="#d7d3ce" offset=".784"/><stop stop-color="#c8c2bb" offset="1"/></linearGradient><linearGradient id="a" x1="32" x2="480.71" y1="63.397" y2="63.397" gradientTransform="matrix(.2496 0 0 .2496 .013 57.398)" gradientUnits="userSpaceOnUse"><stop stop-color="#1b744b" offset="0"/><stop stop-color="#2dbf7c" stop-opacity=".996" offset=".033"/><stop stop-color="#1c764c" stop-opacity=".98" offset=".085"/><stop stop-color="#155a3a" stop-opacity=".98" offset=".925"/><stop stop-color="#2fc781" stop-opacity=".969" offset=".969"/><stop stop-color="#1b724a" stop-opacity=".969" offset="1"/></linearGradient><linearGradient id="q" x1="37" x2="37" y1="249" y2="254" gradientTransform="matrix(1 0 0 -1 40 311)" gradientUnits="userSpaceOnUse"><stop stop-color="#d5d1cc" offset="0"/><stop stop-color="#f6f5f4" offset=".183"/><stop stop-color="#fff" offset=".395"/><stop stop-color="#d7d3ce" offset=".784"/><stop stop-color="#c8c2bb" offset="1"/></linearGradient><linearGradient id="d" x1="94.021" x2="94.021" y1="194.22" y2="234.22" gradientTransform="matrix(.25 0 0 .2496 .495 57.398)" gradientUnits="userSpaceOnUse"><stop stop-color="#f9f06b" offset="0"/><stop stop-color="#fcf7ac" offset=".512"/><stop stop-color="#f9f06b" offset="1"/></linearGradient><linearGradient id="p" x1="37" x2="37" y1="249" y2="254" gradientTransform="translate(40 -179)" gradientUnits="userSpaceOnUse"><stop stop-color="#d5d1cc" offset="0"/><stop stop-color="#f6f5f4" offset=".183"/><stop stop-color="#fff" offset=".395"/><stop stop-color="#d7d3ce" offset=".784"/><stop stop-color="#c8c2bb" offset="1"/></linearGradient><linearGradient id="o" x1="17" x2="18.608" y1="253" y2="259" gradientTransform="matrix(1 0 0 .33333 8 -30.667)" gradientUnits="userSpaceOnUse"><stop stop-color="#f9f06b" offset="0"/><stop stop-color="#fcf7ac" offset=".512"/><stop stop-color="#f9f06b" offset="1"/></linearGradient><linearGradient id="g" x1="202.02" x2="202.02" y1="242.79" y2="234.78" gradientTransform="matrix(.25 0 0 .2496 .495 57.398)" gradientUnits="userSpaceOnUse"><stop stop-color="#c09608" offset="0"/><stop stop-color="#f6ca30" offset="1"/></linearGradient><linearGradient id="n" x1="17" x2="18.608" y1="253" y2="259" gradientTransform="translate(8 -196)" gradientUnits="userSpaceOnUse"><stop stop-color="#f9f06b" offset="0"/><stop stop-color="#fcf7ac" offset=".512"/><stop stop-color="#f9f06b" offset="1"/></linearGradient><linearGradient id="m" x1="17" x2="18.608" y1="253" y2="259" gradientTransform="matrix(1 0 0 .33333 8 -18.667)" gradientUnits="userSpaceOnUse"><stop stop-color="#f9f06b" offset="0"/><stop stop-color="#fcf7ac" offset=".512"/><stop stop-color="#f9f06b" offset="1"/></linearGradient><linearGradient id="l" x1="17" x2="18.608" y1="253" y2="259" gradientTransform="matrix(1 0 0 .33333 0 -6.667)" gradientUnits="userSpaceOnUse"><stop stop-color="#f9f06b" offset="0"/><stop stop-color="#fcf7ac" offset=".512"/><stop stop-color="#f9f06b" offset="1"/></linearGradient><linearGradient id="k" x1="17" x2="18.608" y1="253" y2="259" gradientTransform="translate(0 -172)" gradientUnits="userSpaceOnUse"><stop stop-color="#f9f06b" offset="0"/><stop stop-color="#fcf7ac" offset=".512"/><stop stop-color="#f9f06b" offset="1"/></linearGradient><linearGradient id="r" x1="37" x2="37" y1="249" y2="254" gradientTransform="translate(0 -170)" gradientUnits="userSpaceOnUse"><stop stop-color="#d5d1cc" offset="0"/><stop stop-color="#f6f5f4" offset=".183"/><stop stop-color="#fff" offset=".395"/><stop stop-color="#d7d3ce" offset=".784"/><stop stop-color="#c8c2bb" offset="1"/></linearGradient><clipPath id="b"><path d="m18 102h86v16h-86z"/></clipPath><clipPath id="i"><path d="m16.496 28.445h96.176c4.418 0 8 3.575 8 7.989v73.578c0 4.414-3.582 7.988-8 7.988h-96.176c-4.418 0-8-3.574-8-7.988v-73.578c0-4.414 3.582-7.989 8-7.989z"/></clipPath><clipPath id="h"><path d="m98 115h6v3h-6z"/></clipPath><clipPath id="f"><path d="m16.496 28.445h96.176c4.418 0 8 3.575 8 7.989v73.578c0 4.414-3.582 7.988-8 7.988h-96.176c-4.418 0-8-3.574-8-7.988v-73.578c0-4.414 3.582-7.989 8-7.989z"/></clipPath><clipPath id="e"><path d="m18 116h76v2h-76z"/></clipPath><clipPath id="c"><path d="m16.496 28.445h96.176c4.418 0 8 3.575 8 7.989v73.578c0 4.414-3.582 7.988-8 7.988h-96.176c-4.418 0-8-3.574-8-7.988v-73.578c0-4.414 3.582-7.989 8-7.989z"/></clipPath></defs><path d="M16 35.988h96a8 8 0 018 8V110a8 8 0 01-8 8H16a8 8 0 01-8-8V43.988a8 8 0 018-8zm0 0" fill="url(#a)"/><path d="M15.988 28C11.563 28 8 31.582 8 36.027v71.946c0 4.445 3.563 8.027 7.988 8.027h96.024c4.425 0 7.988-3.582 7.988-8.027V36.027c0-4.445-3.563-8.027-7.988-8.027H108a8 8 0 01-16 0zm0 0" fill="#2ec27e"/><path transform="matrix(.25 0 0 .2496 .495 57.398)" d="m82.021 214.22v-47.544l24-24.039h20l20-20.032v-48.577m-24 132.71v-32.05l40-40.064v-44.618" fill="none" stroke="#f9f06b" stroke-width="8.006"/><g clip-path="url(#b)"><g clip-path="url(#c)"><path d="m101 102.88c1.66 0 3 1.336 3 2.996v13.977c0 1.66-1.34 2.996-3 2.996s-3-1.336-3-2.996v-13.977c0-1.66 1.34-2.996 3-2.996zm-10 0c1.66 0 3 1.336 3 2.996v13.977c0 1.66-1.34 2.996-3 2.996s-3-1.336-3-2.996v-13.977c0-1.66 1.34-2.996 3-2.996zm-10 0c1.66 0 3 1.336 3 2.996v13.977c0 1.66-1.34 2.996-3 2.996s-3-1.336-3-2.996v-13.977c0-1.66 1.34-2.996 3-2.996zm-10 0c1.66 0 3 1.336 3 2.996v13.977c0 1.66-1.34 2.996-3 2.996s-3-1.336-3-2.996v-13.977c0-1.66 1.34-2.996 3-2.996zm-10 0c1.66 0 3 1.336 3 2.996v13.977c0 1.66-1.34 2.996-3 2.996s-3-1.336-3-2.996v-13.977c0-1.66 1.34-2.996 3-2.996zm-10 0c1.66 0 3 1.336 3 2.996v13.977c0 1.66-1.34 2.996-3 2.996s-3-1.336-3-2.996v-13.977c0-1.66 1.34-2.996 3-2.996zm-10 0c1.66 0 3 1.336 3 2.996v13.977c0 1.66-1.34 2.996-3 2.996s-3-1.336-3-2.996v-13.977c0-1.66 1.34-2.996 3-2.996zm-10 0c1.66 0 3 1.336 3 2.996v13.977c0 1.66-1.34 2.996-3 2.996s-3-1.336-3-2.996v-13.977c0-1.66 1.34-2.996 3-2.996zm-10 0c1.66 0 3 1.336 3 2.996v13.977c0 1.66-1.34 2.996-3 2.996s-3-1.336-3-2.996v-13.977c0-1.66 1.34-2.996 3-2.996z" fill="url(#d)"/></g></g><g clip-path="url(#e)"><g clip-path="url(#f)"><path d="m88 116h6v3.992h-6zm-10 0h6v3.992h-6zm-10 0h6v3.992h-6zm-10 0h6v3.992h-6zm-10 0h6v3.992h-6zm-10 0h6v3.992h-6zm-10 0h6v3.992h-6zm-10 0h6v3.992h-6z" fill="url(#g)"/></g></g><g clip-path="url(#h)"><g clip-path="url(#i)"><path d="m98 115.86h6v3.992h-6z" fill="#f5c211"/></g></g><path d="m8 106.97v1c0 4.445 3.563 8.027 7.988 8.027h96.024c4.425 0 7.988-3.582 7.988-8.027v-1c0 4.445-3.563 8.027-7.988 8.027h-96.024c-4.425 0-7.988-3.582-7.988-8.027z" fill="#fff" fill-opacity=".126"/><path d="M61 106v-5l-8-8V80M51 106v-7l-2-2V80M41 106v-9l4-4V80" fill="none" stroke="#f9f06b" stroke-width="2"/><path d="M35 57h24a3 3 0 013 3v17a3 3 0 01-3 3H35a3 3 0 01-3-3V60a3 3 0 013-3zm0 0" fill="#3d3846"/><path d="m43 41h11l3 3v12" fill="none" stroke="#f9f06b" stroke-width="2"/><path d="m53 56v-11l-4-4m0 15v-10l-5-5m1 15v-7l-2-2h-11m9 9v-8m-4 8v-8" fill="none" stroke="#f9f06b" stroke-width="2"/><path d="M37 50.996c-.555 0-1 .445-1 1V56h2v-4.004c0-.555-.445-1-1-1zm4 0c-.555 0-1 .445-1 1V56h2v-4.004c0-.555-.445-1-1-1zm4 0c-.555 0-1 .445-1 1V56h2v-4.004c0-.555-.445-1-1-1zm4 0c-.555 0-1 .445-1 1V56h2v-4.004c0-.555-.445-1-1-1zm4 0c-.555 0-1 .445-1 1V56h2v-4.004c0-.555-.445-1-1-1zm4 0c-.555 0-1 .445-1 1V56h2v-4.004c0-.555-.445-1-1-1zm0 0" fill="url(#j)"/><path d="M35 54h24a3 3 0 013 3v18a3 3 0 01-3 3H35a3 3 0 01-3-3V57a3 3 0 013-3zm0 0" fill="#5e5c64"/><path d="m57 80v7l14 14v4" fill="none" stroke="#f9f06b" stroke-width="2"/><path d="m36 60h15v2h-15zm0 4h8v4h-8zm9 0h11v4h-11z" fill="#77767b"/><path d="m77 81a1.999 1.999 0 1 1-4 0 1.999 1.999 0 1 1 4 0zm8 0a1.999 1.999 0 1 1-4 0 1.999 1.999 0 1 1 4 0zm12 0a1.999 1.999 0 1 1-4 0 1.999 1.999 0 1 1 4 0zm0-8a1.999 1.999 0 1 1-4 0 1.999 1.999 0 1 1 4 0z" fill="none" stroke="#f9f06b" stroke-width="2"/><path d="m75 83v2l6 6v15m2-23v2l2 2h8l2-2v-2m-52-42a1.999 1.999 0 1 1-4 0 1.999 1.999 0 1 1 4 0zm-11 6a1.999 1.999 0 1 1-4 0 1.999 1.999 0 1 1 4 0z" fill="none" stroke="#f9f06b" stroke-width="2"/><path d="m12 82h8v6h-8z" fill="url(#k)"/><path d="m12 78h8v2h-8z" fill="url(#l)"/><path d="m20 66h8v2h-8z" fill="url(#m)"/><path d="m20 58h8v6h-8z" fill="url(#n)"/><path d="m20 54h8v2h-8z" fill="url(#o)"/><path d="m95 56.996a1.999 1.999 0 1 1 0 4c-1.105 0-2-0.894-2-2 0-1.105 0.895-2 2-2zm0-12a1.999 1.999 0 1 1 0 4c-1.105 0-2-0.894-2-2 0-1.105 0.895-2 2-2zm-8 0a1.999 1.999 0 1 1 0 4c-1.105 0-2-0.894-2-2 0-1.105 0.895-2 2-2z" fill="none" stroke="#f9f06b" stroke-width="2"/><path d="m97 58.996h2l2-2v-8l-2-2h-2" fill="none" stroke="#f9f06b" stroke-width="2"/><path d="M76 61h10c1.105 0 2 .895 2 2v7c0 1.105-.895 2-2 2H76c-1.105 0-2-.895-2-2v-7c0-1.105.895-2 2-2zm0 0" fill="#3d3846"/><path d="m76 71v3c0 0.555 0.445 1 1 1s1-0.445 1-1v-3zm4 0v3c0 0.555 0.445 1 1 1s1-0.445 1-1v-3zm4 0v3c0 0.555 0.445 1 1 1s1-0.445 1-1v-3z" fill="url(#p)"/><path d="m76 61v-3c0-0.555 0.445-1 1-1s1 0.445 1 1v3zm4 0v-3c0-0.555 0.445-1 1-1s1 0.445 1 1v3zm4 0v-3c0-0.555 0.445-1 1-1s1 0.445 1 1v3z" fill="url(#q)"/><path d="M76 58h10c1.105 0 2 .895 2 2v8c0 1.105-.895 2-2 2H76c-1.105 0-2-.895-2-2v-8c0-1.105.895-2 2-2zm0 0" fill="#5e5c64"/><path d="m76 60h8v2h-8zm0 4h4v2h-4z" fill="#77767b"/><path d="m104 90h6v6h-6z" fill="#986a44"/><path d="m104 90h6v4h-6z" fill="#b5835a"/><path d="m104 90h2v4h-2z" fill="#f6f5f4"/><path d="m104 96h2v-2h-2z" fill="#c0bfbc"/><path d="m110 90h2v4h-2z" fill="#f6f5f4"/><path d="m110 96h2v-2h-2z" fill="#c0bfbc"/><path d="m104 84h6v6h-6z" fill="#986a44"/><path d="m104 84h6v4h-6z" fill="#b5835a"/><path d="m104 84h2v4h-2z" fill="#f6f5f4"/><path d="m104 90h2v-2h-2z" fill="#c0bfbc"/><path d="m110 84h2v4h-2z" fill="#f6f5f4"/><path d="m110 90h2v-2h-2z" fill="#c0bfbc"/><path d="m104 78h6v6h-6z" fill="#986a44"/><path d="m104 78h6v4h-6z" fill="#b5835a"/><path d="m104 78h2v4h-2z" fill="#f6f5f4"/><path d="m104 84h2v-2h-2z" fill="#c0bfbc"/><path d="m110 78h2v4h-2z" fill="#f6f5f4"/><path d="m110 84h2v-2h-2z" fill="#c0bfbc"/><path d="m68 40v-8h4v8z" fill="#986a44"/><path d="m68 40v-8h2v8z" fill="#b5835a"/><path d="m68 40v-2h4v2zm0-6v-2h4v2z" fill="#f6f5f4"/><path d="m80 40v-8h4v8z" fill="#986a44"/><path d="m80 40v-8h2v8z" fill="#b5835a"/><path d="m80 40v-2h4v2zm0-6v-2h4v2z" fill="#f6f5f4"/><path d="m74 40v-8h4v8z" fill="#986a44"/><path d="m74 40v-8h2v8z" fill="#b5835a"/><path d="m74 40v-2h4v2zm0-6v-2h4v2z" fill="#f6f5f4"/><path d="m36 79v4c0 0.555 0.445 1 1 1s1-0.445 1-1v-4zm4 0v4c0 0.555 0.445 1 1 1s1-0.445 1-1v-4zm4 0v4c0 0.555 0.445 1 1 1s1-0.445 1-1v-4zm4 0v4c0 0.555 0.445 1 1 1s1-0.445 1-1v-4zm4 0v4c0 0.555 0.445 1 1 1s1-0.445 1-1v-4zm4 0v4c0 0.555 0.445 1 1 1s1-0.445 1-1v-4z" fill="url(#r)"/></svg>
