<?xml version="1.0" encoding="UTF-8"?>
<svg viewBox="0 0 128 128" xmlns="http://www.w3.org/2000/svg"><linearGradient id="a" x1="11.954" x2="117" y1="114" y2="114" gradientUnits="userSpaceOnUse"><stop stop-color="#5e5c64" offset="0"/><stop stop-color="#9b99a2" offset=".036189"/><stop stop-color="#5e5c64" offset=".080292"/><stop stop-color="#5e5c64" offset=".90422"/><stop stop-color="#7f7c87" offset=".95937"/><stop stop-color="#4c4c53" offset=".97866"/><stop stop-color="#d3d2d7" offset="1"/></linearGradient><linearGradient id="b" x1="48" x2="64" y1="19.229" y2="104" gradientUnits="userSpaceOnUse"><stop stop-color="#241f31" offset="0"/><stop stop-color="#3d3846" offset="1"/></linearGradient><path d="m20 16h88c4.418 0 8 3.582 8 8v84c0 4.418-3.582 8-8 8h-88c-4.418 0-8-3.582-8-8v-84c0-4.418 3.582-8 8-8z" fill="url(#a)"/><path d="m20 12h88c4.418 0 8 3.582 8 8v84c0 4.418-3.582 8-8 8h-88c-4.418 0-8-3.582-8-8v-84c0-4.418 3.582-8 8-8z" fill="url(#b)"/><path d="m20 15.922c-2.3281 0-4.0781 1.75-4.0781 4.0781v84c0 2.3281 1.75 4.0781 4.0781 4.0781h88c2.3281 0 4.0781-1.75 4.0781-4.0781v-84c0-2.3281-1.75-4.0781-4.0781-4.0781z" fill="url(#b)"/><path d="m18 84c-1.1055 0-2 0.89453-2 2v18c0 2.0938 1.9062 4 4 4h88c2.0938 0 4-1.9062 4-4v-18c0-1.1055-0.89453-2-2-2zm82 2c5.5234 0 10 4.4766 10 10s-4.4766 10-10 10-10-4.4766-10-10 4.4766-10 10-10zm-72.57 3.2383c1.7148 0 3.0508 0.61328 4.0039 1.8477 0.96094 1.2266 1.4414 2.9375 1.4414 5.1328 0 2.1992-0.47656 3.9102-1.4297 5.1328-0.95703 1.2188-2.293 1.8281-4.0156 1.8281-1.7109 0-3.043-0.60938-4-1.8281-0.95313-1.2227-1.4297-2.9336-1.4297-5.1328s0.47656-3.9141 1.4297-5.1406c0.96094-1.2266 2.293-1.8398 4-1.8398zm12.59 0c1.7148 0 3.0469 0.61328 4 1.8477 0.96094 1.2266 1.4414 2.9375 1.4414 5.1328 0 2.1992-0.47656 3.9102-1.4297 5.1328-0.95703 1.2188-2.293 1.8281-4.0117 1.8281-1.7148 0-3.0469-0.60938-4-1.8281-0.95703-1.2227-1.4336-2.9336-1.4336-5.1328s0.47656-3.9141 1.4336-5.1406 2.293-1.8398 4-1.8398zm30.926 0c0.96094 0 1.7969 0.17188 2.5156 0.51953 0.71875 0.33984 1.2734 0.80859 1.668 1.4102 0.40234 0.60156 0.60156 1.293 0.60156 2.0781 0 0.50391-0.10156 1.0039-0.30078 1.4961-0.19531 0.49219-0.54688 1.043-1.0547 1.6562-0.50781 0.60937-1.2266 1.3398-2.1562 2.1875l-2.0508 2.0273v0.097657h5.7461v2.2891h-9.6094v-2.0078l4.8125-4.5117c0.61719-0.59766 1.0859-1.1211 1.4141-1.5664 0.33594-0.44922 0.5-0.94531 0.5-1.4961 0-0.60547-0.19922-1.082-0.60156-1.4297-0.39453-0.35156-0.89453-0.52734-1.5039-0.52734-0.62891 0-1.1367 0.1875-1.5195 0.5625-0.37891 0.37891-0.56641 0.89844-0.56641 1.5586h-2.6641c0-0.87891 0.20312-1.6445 0.60547-2.293 0.40625-0.65625 0.96875-1.1641 1.6875-1.5156 0.71484-0.35938 1.5391-0.53516 2.4766-0.53516zm-11.797 0.17969h3.4961v8.9258h1.6914v2.2383h-1.6914v2.418h-2.6758v-2.418h-6.4961v-2.1953zm38.852 2.582c-1.1094 0-2 0.89062-2 2v4c0 1.1094 0.89062 2 2 2h4c1.1094 0 2-0.89062 2-2v-4c0-1.1094-0.89062-2-2-2zm-48.562-0.74219c0.44141 0 0.81641 0.15234 1.1172 0.45703 0.30469 0.29688 0.45703 0.66797 0.45703 1.1133s-0.15234 0.81641-0.45703 1.1211c-0.30078 0.29688-0.67578 0.44531-1.1172 0.44531-0.44531 0-0.82031-0.14844-1.125-0.44531-0.30078-0.30469-0.45703-0.67578-0.45703-1.1211s0.15625-0.81641 0.45703-1.1133c0.30469-0.30469 0.67969-0.45703 1.125-0.45703zm-22.008 0.27344c-0.83203 0-1.4688 0.41406-1.918 1.2305-0.45312 0.81641-0.67969 1.9688-0.67969 3.457s0.22266 2.6367 0.66797 3.4453c0.44922 0.80859 1.0938 1.2109 1.9297 1.2109 0.83984 0 1.4844-0.40234 1.9336-1.2109 0.45312-0.80859 0.67578-1.957 0.67578-3.4453 0-1.4961-0.22266-2.6523-0.67578-3.4648-0.44922-0.8125-1.0938-1.2227-1.9336-1.2227zm12.59 0c-0.83203 0-1.4727 0.41406-1.9258 1.2305-0.44922 0.81641-0.67188 1.9688-0.67188 3.457s0.22266 2.6367 0.66406 3.4453c0.45312 0.80859 1.0938 1.2109 1.9336 1.2109 0.83984 0 1.4805-0.40234 1.9297-1.2109 0.45312-0.80859 0.67578-1.957 0.67578-3.4453 0-1.4961-0.22266-2.6523-0.67578-3.4648-0.44922-0.8125-1.0898-1.2227-1.9297-1.2227zm19.898 0.94922-3.6367 5.75v0.11328h3.7422v-5.8633zm-10.48 5.543c0.44141 0 0.81641 0.15234 1.1172 0.45703 0.30469 0.29688 0.45703 0.66406 0.45703 1.1094 0 0.44531-0.15234 0.81641-0.45703 1.1211-0.30078 0.29687-0.67578 0.44531-1.1172 0.44531-0.44531 0-0.82031-0.14844-1.125-0.44531-0.30078-0.30469-0.45703-0.67578-0.45703-1.1211 0-0.44531 0.15625-0.8125 0.45703-1.1094 0.30469-0.30469 0.67969-0.45703 1.125-0.45703z" fill="#ff7800"/><path d="m85 88c0.55078 0 1 0.44922 1 1v14c0 0.55078-0.44922 1-1 1s-1-0.44922-1-1v-14c0-0.55078 0.44922-1 1-1z" fill="#e66100"/><path d="m25 36c0.55078 0 1 0.44922 1 1v24c0 0.55078-0.44922 1-1 1s-1-0.44922-1-1v-24c0-0.55078 0.44922-1 1-1z" fill="#f6f5f4"/><path d="m33 42c0.55078 0 1 0.44922 1 1v12c0 0.55078-0.44922 1-1 1s-1-0.44922-1-1v-12c0-0.55078 0.44922-1 1-1z" fill="#f6f5f4"/><path d="m41 38c0.55078 0 1 0.44922 1 1v20c0 0.55078-0.44922 1-1 1s-1-0.44922-1-1v-20c0-0.55078 0.44922-1 1-1z" fill="#f6f5f4"/><path d="m49 32c0.55078 0 1 0.44922 1 1v32c0 0.55078-0.44922 1-1 1s-1-0.44922-1-1v-32c0-0.55078 0.44922-1 1-1z" fill="#f6f5f4"/><path d="m57 32c0.55078 0 1 0.44922 1 1v32c0 0.55078-0.44922 1-1 1s-1-0.44922-1-1v-32c0-0.55078 0.44922-1 1-1z" fill="#f6f5f4"/><path d="m65 34c0.55078 0 1 0.44922 1 1v28c0 0.55078-0.44922 1-1 1s-1-0.44922-1-1v-28c0-0.55078 0.44922-1 1-1z" fill="#f6f5f4"/><path d="m73 44c0.55078 0 1 0.44922 1 1v8c0 0.55078-0.44922 1-1 1s-1-0.44922-1-1v-8c0-0.55078 0.44922-1 1-1z" fill="#f6f5f4"/><path d="m78.828 16c-0.47266 0-0.90234 0.28516-1.082 0.72266-0.17969 0.4375-0.082032 0.94141 0.25391 1.2773l2 2v56l-2 2c-0.33594 0.33594-0.43359 0.83984-0.25391 1.2773 0.17969 0.4375 0.60938 0.72266 1.082 0.72266h4.3438c0.47266 0 0.90234-0.28516 1.082-0.72266 0.17969-0.4375 0.082032-0.94141-0.25391-1.2773l-2-2v-56l2-2c0.33594-0.33594 0.43359-0.83984 0.25391-1.2773-0.17969-0.4375-0.60938-0.72266-1.082-0.72266z" fill="#ed333b"/><path d="m19 74h8c1.6562 0 3 1.3438 3 3s-1.3438 3-3 3h-8c-1.6562 0-3-1.3438-3-3s1.3438-3 3-3z" fill="#77767b"/><g fill="#f6f5f4"><path d="m21 32c0.55078 0 1 0.44922 1 1v32c0 0.55078-0.44922 1-1 1s-1-0.44922-1-1v-32c0-0.55078 0.44922-1 1-1z"/><path d="m29 38.223c0.55078 0 1 0.44531 1 1v19.555c0 0.55469-0.44922 1-1 1s-1-0.44531-1-1v-19.555c0-0.55469 0.44922-1 1-1z"/><path d="m37 43.195c0.55078 0 1 0.44922 1 1v9.6094c0 0.55078-0.44922 1-1 1s-1-0.44922-1-1v-9.6094c0-0.55078 0.44922-1 1-1z"/><path d="m45 39.879c0.55078 0 1 0.44922 1 1v16.242c0 0.55078-0.44922 1-1 1s-1-0.44922-1-1v-16.242c0-0.55078 0.44922-1 1-1z"/><path d="m53 34.906c0.55078 0 1 0.44922 1 1v26.188c0 0.55078-0.44922 1-1 1s-1-0.44922-1-1v-26.188c0-0.55078 0.44922-1 1-1z"/><path d="m61 34.906c0.55078 0 1 0.44922 1 1v26.188c0 0.55078-0.44922 1-1 1s-1-0.44922-1-1v-26.188c0-0.55078 0.44922-1 1-1z"/><path d="m69 36.562c0.55078 0 1 0.44922 1 1v22.875c0 0.55078-0.44922 1-1 1s-1-0.44922-1-1v-22.875c0-0.55078 0.44922-1 1-1z"/><path d="m77 44.855c0.55078 0 1 0.44531 1 1v6.2891c0 0.55469-0.44922 1-1 1s-1-0.44531-1-1v-6.2891c0-0.55469 0.44922-1 1-1z"/></g><path d="m37 74c1.6562 0 3 1.3438 3 3s-1.3438 3-3 3-3-1.3438-3-3 1.3438-3 3-3z" fill="#5e5c64"/><path d="m45 74c1.6562 0 3 1.3438 3 3s-1.3438 3-3 3-3-1.3438-3-3 1.3438-3 3-3z" fill="#5e5c64"/><path d="m53 74c1.6562 0 3 1.3438 3 3s-1.3438 3-3 3-3-1.3438-3-3 1.3438-3 3-3z" fill="#5e5c64"/><path d="m63 74h8c1.6562 0 3 1.3438 3 3s-1.3438 3-3 3h-8c-1.6562 0-3-1.3438-3-3s1.3438-3 3-3z" fill="#77767b"/><path d="m107 74c-1.6602 0-3 1.3398-3 3s1.3398 3 3 3h2.9492c1.1328 0 2.0508-0.91797 2.0469-2.0508-0.003906-0.63281-0.003906-1.2656 0-1.8984 0.011718-1.1328-0.86328-2.0508-1.9961-2.0508zm-10 0c1.6602 0 3 1.3398 3 3s-1.3398 3-3 3-3-1.3398-3-3 1.3398-3 3-3zm-8 0c1.6602 0 3 1.3398 3 3s-1.3398 3-3 3-3-1.3398-3-3 1.3398-3 3-3z" fill="#5e5c64" fill-opacity=".22745"/></svg>
