<?xml version="1.0" encoding="UTF-8"?>
<svg id="b" enable-background="new" version="1.0" viewBox="0 0 128 128" xmlns="http://www.w3.org/2000/svg" xmlns:xlink="http://www.w3.org/1999/xlink"><title id="c">Adwaita Icon Template</title><defs id="d"><linearGradient id="a" x1="384" x2="416" y1="120" y2="120" gradientTransform="matrix(.25 0 0 .25 6.9489e-8 225)" gradientUnits="userSpaceOnUse"><stop id="e" stop-color="#e8e7e4" offset="0"/><stop id="f" stop-color="#fff" offset=".5"/><stop id="g" stop-color="#c9c6c1" offset="1"/></linearGradient></defs><g id="h" transform="translate(0,-172)"><g id="i"><path id="j" d="m24 200v92h72c4.432 0 8-3.568 8-8v-76c0-4.432-3.568-8-8-8z" enable-background="new" fill="#a51d2d" style="paint-order:normal"/><rect id="k" x="24" y="274" width="8" height="18" enable-background="new" fill="#191622" style="paint-order:normal"/><path id="l" d="m26 220v70h70c4.432 0 8-3.568 8-8v-54c0-4.432-3.568-8-8-8z" enable-background="new" fill="url(#a)" style="paint-order:normal"/><path id="m" d="m24 200v76h72c4.432 0 8-3.568 8-8v-60c0-4.432-3.568-8-8-8z" enable-background="new" fill="#ac1d2e" style="paint-order:normal"/><path id="n" d="m24 180v94h72c4.432 0 8-3.568 8-8v-78c0-4.432-3.568-8-8-8z" enable-background="new" fill="#ed333b" style="paint-order:normal"/><rect id="o" x="24" y="180" width="8" height="94" enable-background="new" fill="#424048" style="paint-order:normal"/><path id="p" d="m26 180h2v94h-2z" enable-background="new" fill="#fff" opacity=".223" style="paint-order:normal"/><g id="q" fill="#fff"><path id="r" d="m58 206.02v5.9795h-0.74854c-2.1886 0-3.2607 1.2059-3.2607 3.3052v6.6162c0 3.082-0.93803 4.3776-2.9927 5.0029 2.0546 0.62533 2.9927 1.9205 2.9927 5.0024v6.7681c0 2.0993 1.0721 3.3052 3.2607 3.3052h0.74854v5.8276h-1.5664c-5.5832 0-8.4419-2.8585-8.4419-7.9951v-7.7314c0-1.4293-0.75936-2.1041-1.9653-2.0996l-2.0264-0.00146v-5.9585l2.0264 2e-3c1.206 1e-3 1.9653-0.6703 1.9653-2.0996v-7.9283c0-5.1366 2.8586-7.9951 8.4419-7.9951z" style="font-feature-settings:normal;font-variant-caps:normal;font-variant-ligatures:normal;font-variant-numeric:normal"/><path id="s" d="m74 206.02v5.9795h0.74853c2.1886 0 3.2608 1.2059 3.2608 3.3052v6.6162c0 3.082 0.93803 4.3776 2.9927 5.0029-2.0546 0.62533-2.9927 1.9205-2.9927 5.0024v6.7681c0 2.0993-1.0721 3.3052-3.2608 3.3052h-0.74853v5.8276h1.5664c5.5833 0 8.4419-2.8585 8.4419-7.9951v-7.7314c0-1.4293 0.75936-2.1041 1.9653-2.0996l2.0264-0.00146v-5.9585l-2.0264 2e-3c-1.206 1e-3 -1.9653-0.6703-1.9653-2.0996v-7.9283c0-5.1366-2.8586-7.9951-8.4419-7.9951z" style="font-feature-settings:normal;font-variant-caps:normal;font-variant-ligatures:normal;font-variant-numeric:normal"/></g><rect id="t" x="24" y="274" width="8" height="2" fill="#191622" style="paint-order:normal"/></g></g></svg>
