<?xml version="1.0" encoding="UTF-8"?>
<svg version="1.0" viewBox="0 0 128 128" xmlns="http://www.w3.org/2000/svg"><defs><clipPath id="e"><rect x="64" y="-40.445" width="448" height="32.222" rx="0" ry="0" fill="#e4e6e8" stroke-width="24"/></clipPath><clipPath id="d"><path d="M64-40.445h448v32.223H96c-15.592 0-32-17.02-32-32.223z" fill="#e4e6e8" stroke-width="24"/></clipPath></defs><g transform="translate(0 -172)"><rect x="8" y="205.97" width="112" height="82.03" rx="8" ry="8" fill="#422863"/><rect x="8" y="201.97" width="112" height="82.03" rx="8" ry="8" fill="#613583"/><g transform="translate(.019 .028)"><g transform="matrix(.25 0 0 -.25 -8.019 197.92)" clip-path="url(#d)"><rect x="64" y="-48.454" width="448" height="56.232" rx="0" ry="0" fill="#f6f5f4"/><rect transform="scale(1 -1) rotate(-30)" x="62.535" y="-26.738" width="45.414" height="135.76" rx="0" ry="0" fill="#241f31"/><rect transform="scale(1 -1) rotate(-30)" x="149.14" y="23.262" width="45.414" height="135.76" rx="0" ry="0" fill="#241f31"/><rect transform="scale(1 -1) rotate(-30)" x="235.74" y="73.262" width="45.414" height="135.76" rx="0" ry="0" fill="#241f31"/><rect transform="scale(1 -1) rotate(-30)" x="322.34" y="123.26" width="45.414" height="135.76" rx="0" ry="0" fill="#241f31"/><rect transform="scale(1 -1) rotate(-30)" x="408.94" y="173.26" width="45.414" height="135.76" rx="0" ry="0" fill="#241f31"/></g><g transform="matrix(.25 0 0 .25 -8.019 218.08)" clip-path="url(#e)"><rect x="64" y="-48.454" width="448" height="56.232" rx="0" ry="0" fill="#fff"/><rect transform="scale(1 -1) rotate(-30)" x="62.535" y="-26.738" width="45.414" height="135.76" rx="0" ry="0"/><rect transform="scale(1 -1) rotate(-30)" x="149.14" y="23.262" width="45.414" height="135.76" rx="0" ry="0"/><rect transform="scale(1 -1) rotate(-30)" x="235.74" y="73.262" width="45.414" height="135.76" rx="0" ry="0"/><rect transform="scale(1 -1) rotate(-30)" x="322.34" y="123.26" width="45.414" height="135.76" rx="0" ry="0"/><rect transform="scale(1 -1) rotate(-30)" x="408.94" y="173.26" width="45.414" height="135.76" rx="0" ry="0"/></g><path d="m7.981 205.31c0-2.668 2.745-5.334 5.334-5.334 0 0 10.666 10.59 10.666 10.667v5.333h-16z" fill="#c0bfbc"/><circle cx="10.997" cy="213.25" r="1.25" fill="#241f31"/><circle cx="10.997" cy="205.27" r="1.25" fill="#241f31"/><rect x="7.981" y="215.97" width="112" height="2" rx="0" ry="0" fill="#77767b"/><path d="m119.98 215.97v2h-10l1.272-2zm-20.635 0-1.017 2h-13.348l1.272-2zm-25.122 0-1.016 2h-13.348l1.271-2zm-25 0-1.016 2h-13.348l1.271-2zm-24.861 0-1.017 2h-13.348l1.272-2z" fill="#3d3846"/><circle cx="10.997" cy="212.94" r="1.25" fill="#f6f5f4"/><circle cx="10.997" cy="204.96" r="1.25" fill="#f6f5f4"/><circle cx="20.888" cy="213.22" r="1.25" fill="#241f31"/><circle cx="20.888" cy="212.92" r="1.25" fill="#f6f5f4"/></g><g fill="#f6f5f4"><path d="M26 244h76c1.062 0 2 .936 2 2H24c0-1.108.983-2 2-2z"/><path d="M48 232v14h-2v-14zM82 232v14h-2v-14zM24 262h80c0 1.054-.913 2-2 2H26c-.985 0-2-1.03-2-2z"/></g></g></svg>
