<?xml version="1.0" encoding="UTF-8"?>
<svg viewBox="0 0 64 64" xmlns="http://www.w3.org/2000/svg" xmlns:xlink="http://www.w3.org/1999/xlink"><linearGradient id="a" x1="5.23" x2="15.26" y1="123.62" y2="133.65" gradientUnits="userSpaceOnUse"><stop stop-color="#091142" stop-opacity=".2" offset="0"/><stop stop-color="#0d185f" stop-opacity="0" offset="1"/></linearGradient><linearGradient id="b" x1="5" x2="5" y1="12" y2="59" gradientUnits="userSpaceOnUse"><stop stop-color="#4495ec" offset="0"/><stop stop-color="#3665b6" offset="1"/></linearGradient><linearGradient id="c" x1="2.6616" x2="12.018" y1="125.47" y2="134.92" gradientTransform="matrix(.89261 0 0 .9016 16.273 -89.643)" gradientUnits="userSpaceOnUse" xlink:href="#a"/><linearGradient id="d" x1="17.561" x2="27.703" y1="142.31" y2="152.94" gradientTransform="matrix(.89261 0 0 .9016 16.272 -89.889)" gradientUnits="userSpaceOnUse" xlink:href="#a"/><path d="m9 12c-2.216 0-4 1.784-4 4v28c0 2.216 1.784 4 4 4h7v11l15-11h22c2.216 0 4-1.784 4-4v-28c0-2.216-1.784-4-4-4z" fill="url(#b)" stroke-linejoin="round"/><path d="m18.649 23.482 11.308 11.385 5.6502-4.7875-10.802-11.07z" fill="url(#c)" stroke-width="1"/><path d="m25.207 7.076v0.00195c-12.264-0.045074-19.584 6.9703-18.049 17.889 1.7049 12.848 14.041 24.885 29.385 27.896 15.389 2.6597 23.395-3.2552 24.297-15.346v-0.17188c-0.17852-4.1113-1.5707-8.0981-3.8379-11.768v3.1211a11.666 11.784 0 0 1 1.2852 4.373v0.14453c0.58912 4.0662 0.0716 7.3549-1.2852 9.8613l-0.001953 0.10742v0.81445c0 2.216-1.7671 4-3.9609 4h-1.7793c-3.9561 1.5671-9.2397 1.5148-15.162-0.16016-12.354-2.9573-23.968-14.248-24.852-24.391-0.94616-10.864 6.2034-16.534 19.039-14.289 2.7849 0.48687 5.6495 1.496 8.4434 2.8574h3.6523c-3.1687-1.8032-6.4803-3.3899-9.9883-4.2734-2.3297-0.59506-4.9094-0.66797-7.1855-0.66797z" fill="#ecffff" stroke-width="1"/><path d="m57 25.578c7.68e-4 0.0012 0.0012 0.0027 2e-3 0.0039v-0.0039zm2e-3 0.0039v3.1074a11.666 11.784 0 0 1 1.293 4.3809v0.14453c0.58019 4.0662 0.07272 7.3568-1.293 9.8633l-2e-3 2e-3v0.91992c0 2.216-1.7671 4-3.9609 4h-1.7793c-3.9516 1.5592-9.2381 1.5156-15.154-0.16016a36.302 36.668 0 0 1-13.961-7.043c0.33026 0.58604 0.72251 1.1544 1.1777 1.6953l7.3555 8.7285a39.266 39.662 0 0 0 5.8652 1.6406c15.389 2.6597 23.402-3.2552 24.295-15.346v-0.17969c-0.17846-4.1009-1.5701-8.0854-3.8359-11.754z" fill="#bfc9c9" stroke-width="1.1203"/><path d="m50.412 25-18.465 13.416 9.584 9.584 15.479-11.898-0.009766-4.5137z" fill="url(#d)" opacity=".65" stroke-width="1.1203"/><path d="m21 16.246-0.9043 2.7539-2.9004 0.0098 2.3398 1.7129-0.88672 2.7598 2.3516-1.6973 2.3516 1.6973-0.88672-2.7598 2.3398-1.7129-2.9004-0.0098zm18 0.46289-2.7148 8.2617-8.6973 0.0293 7.0176 5.1367-2.6582 8.2793 7.0527-5.0879 7.0527 5.0879-2.6582-8.2793 7.0176-5.1367-8.6973-0.0293z" fill="#ecffff" stroke-linejoin="round"/></svg>
