<?xml version="1.0" encoding="UTF-8"?>
<svg id="g" version="1.1" viewBox="0 0 64 64" xmlns="http://www.w3.org/2000/svg" xmlns:xlink="http://www.w3.org/1999/xlink"><defs id="h"><linearGradient id="c"><stop id="i" stop-color="#4b8383" offset="0"/><stop id="j" stop-color="#213c3c" offset="1"/></linearGradient><linearGradient id="a" x1="17.205" x2="31.687" y1="12.562" y2="27.045" gradientTransform="matrix(1.0116 0 0 1.0116 -.27906 .35514)" gradientUnits="userSpaceOnUse" xlink:href="#c"/><linearGradient id="d" x1="22.836" x2="33.094" y1="21.757" y2="31.91" gradientTransform="translate(0 1.0005)" gradientUnits="userSpaceOnUse"><stop id="k" stop-color="#003131" offset="0"/><stop id="l" stop-color="#004646" stop-opacity="0" offset="1"/></linearGradient><radialGradient id="b" cx="20.467" cy="18.295" r="16.027" gradientTransform="matrix(2.4522 0 0 2.4909 -34.459 -35.331)" gradientUnits="userSpaceOnUse"><stop id="m" stop-color="#a4f6f3" offset="0"/><stop id="n" stop-color="#9ee9e5" offset=".19728"/><stop id="o" stop-color="#76bac1" offset=".7449"/><stop id="p" stop-color="#578f9b" offset="1"/></radialGradient><filter id="e" x="-.033195" y="-.022753" width="1.0664" height="1.0455" color-interpolation-filters="sRGB"><feGaussianBlur id="q" stdDeviation="0.2111358"/></filter><filter id="f" x="-.0075866" y="-.0046652" width="1.0152" height="1.0093" color-interpolation-filters="sRGB"><feGaussianBlur id="r" stdDeviation="0.05914063"/></filter></defs><g id="s"><g id="t" transform="scale(1.3333)"><path id="u" d="m24 3c-7.1075-0.12796-13.832 5.0971-15.497 12.001-1.2872 4.7938-0.068356 10.084 2.9985 13.956 1.1638 1.4845 2.9105 2.2216 4.6304 6.7383 0.99894 3.3752 0.60374 5.7678 0.87012 6.4321 1.1728 2.6579 4.267 3.785 6.9961 3.7925 2.6912-0.04114 5.9072-1.1707 7.0591-3.7925 0.23518-0.53036 0.14167-2.0686 0.26842-3.3072 0.03313-0.32372-0.18261-0.51288-0.49598-0.42408l-2.2717 0.6437c-0.36573 0.10363-0.75559-0.05021-0.952-0.37567-0.17954-0.29751-0.11622-0.7373 0.14141-0.98233 1.2962-1.2328 4.9777-4.7345 6.9866-6.6491 0.97789-1.0744 1.8679-1.7024 3.6431-4.9585 3.0764-5.942 1.8094-13.732-3.0029-18.388-2.9701-2.9965-7.1545-4.7245-11.375-4.686z" fill="url(#b)" stroke-linecap="square" style="paint-order:markers fill stroke"/><path id="v" d="m28.645 13.373-6.895 9.0029-1.2026 12.101 9.3223 9.3208c0.49502-0.47054 0.90446-1.0246 1.188-1.6699 0.18179-1.0379 0.14132-2.069 0.26807-3.3076 0.03313-0.32372-0.18175-0.51213-0.49512-0.42334l-2.272 0.64307a0.84338 0.84338 0 0 1-0.95215-0.375c-0.17954-0.29751-0.11701-0.73788 0.14062-0.98291 1.2962-1.2328 4.9784-4.7343 6.9873-6.6489 0.97789-1.0744 1.8679-1.7024 3.6431-4.9585 0.34948-0.67501 0.64036-1.3749 0.87891-2.0903z" fill="url(#d)" filter="url(#f)" opacity=".25" style="paint-order:markers fill stroke"/><path id="w" d="m22.988 27.194v7.2524c0 0.16815-0.13631 0.30446-0.30446 0.30446h-1.5243c-0.38675 0-0.75569-0.30861-0.83092-0.68796-0.8984-4.5301-2.1641-6.9958-3.7971-10.214-0.34645-0.68277-0.11328-1.6039 0.39221-2.178 1.3454-1.5278 2.0181-3.6663 2.0181-6.1411v-1.208c0-0.58852 0.50514-1.1708 1.0656-1.321 2.6723-0.70835 5.3567-0.67886 7.985 0 0.5596 0.14994 1.0656 0.68418 1.0656 1.2727v1.2564c0 2.4691 0.67919 4.6307 2.0142 6.1458 0.50555 0.57375 0.74234 1.4909 0.39561 2.1742-1.6329 3.218-2.8985 5.6838-3.7968 10.214-0.07511 0.37876-0.44397 0.68689-0.83071 0.68689h-1.5243c-0.16815 0-0.30446-0.13631-0.30446-0.30446v-7.2524c0-0.34964 0.10349-0.69145 0.29744-0.98236l0.5394-0.8091c0.68985-1.0348 0.55342-2.4126-0.32597-3.292l-0.01011-0.01011c-0.83527-0.83527-2.1895-0.83527-3.0248 0l-0.01012 0.01011c-0.87939 0.87939-1.0158 2.2572-0.32597 3.292l0.5394 0.8091c0.19396 0.29091 0.29746 0.63272 0.29747 0.98236z" fill="url(#a)" filter="url(#e)" stroke-linecap="square" stroke-width="1.0116" style="paint-order:markers fill stroke"/><path id="x" d="m22.988 27.194v7.2524c0 0.16815-0.13631 0.30446-0.30446 0.30446h-1.5243c-0.38675 0-0.75569-0.30861-0.83092-0.68796-0.8984-4.5301-2.1641-6.9958-3.7971-10.214-0.34645-0.68277-0.11328-1.6039 0.39221-2.178 1.3454-1.5278 2.0181-3.6663 2.0181-6.1411v-1.208c0-0.58852 0.50514-1.1708 1.0656-1.321 2.6723-0.70835 5.3567-0.67886 7.985 0 0.5596 0.14994 1.0656 0.68418 1.0656 1.2727v1.2564c0 2.4691 0.67919 4.6307 2.0142 6.1458 0.50555 0.57375 0.74234 1.4909 0.39561 2.1742-1.6329 3.218-2.8985 5.6838-3.7968 10.214-0.07511 0.37876-0.44397 0.68689-0.83071 0.68689h-1.5243c-0.16815 0-0.30446-0.13631-0.30446-0.30446v-7.2524c0-0.34964 0.10349-0.69145 0.29744-0.98236l0.5394-0.8091c0.68985-1.0348 0.55342-2.4126-0.32597-3.292l-0.01011-0.01011c-0.83527-0.83527-2.1895-0.83527-3.0248 0l-0.01012 0.01011c-0.87939 0.87939-1.0158 2.2572-0.32597 3.292l0.5394 0.8091c0.19396 0.29091 0.29746 0.63272 0.29747 0.98236z" fill="url(#a)" stroke-linecap="square" stroke-width="1.0116" style="paint-order:markers fill stroke"/></g></g></svg>
