<?xml version="1.0" encoding="UTF-8"?>
<svg id="d" enable-background="new" version="1.0" viewBox="0 0 16 16" xmlns="http://www.w3.org/2000/svg" xmlns:xlink="http://www.w3.org/1999/xlink"><title id="e">Adwaita Icon Template</title><defs id="f"><linearGradient id="a" x1="108.32" x2="108.57" y1="5.3371" y2="-6.0936" gradientTransform="matrix(.17207 0 0 .16947 551.66 24.735)" gradientUnits="userSpaceOnUse"><stop id="g" stop-color="#dcb102" offset="0"/><stop id="h" stop-color="#fbeb83" offset="1"/></linearGradient><linearGradient id="b" x1="148" x2="148" y1="60" y2="48" gradientTransform="matrix(.15712 0 0 .19848 553.45 13.635)" gradientUnits="userSpaceOnUse"><stop id="i" stop-color="#006888" offset="0"/><stop id="j" stop-color="#00aade" offset="1"/></linearGradient><linearGradient id="c" x1="94.16" x2="166.25" y1="48.725" y2="48.654" gradientTransform="matrix(.2 0 0 .2 354.64 406.24)" gradientUnits="userSpaceOnUse"><stop id="k" stop-color="#bcc5ca" offset="0"/><stop id="l" stop-color="#263742" offset="1"/></linearGradient></defs><rect id="m" x="-308" y="-186.9" width="48" height="46.154" rx="3.6923" ry="3.6923" enable-background="new" fill="#aef766" style="paint-order:normal"/><rect id="n" x="-308" y="-188.75" width="48" height="46.154" rx="3.6923" ry="3.6923" enable-background="new" fill="#d7fdb2" style="paint-order:normal"/><rect id="o" x="-252" y="-186.9" width="48" height="46.154" rx="3.6923" ry="3.6923" enable-background="new" fill="#fbeb83" style="paint-order:normal"/><rect id="p" x="-252" y="-188.75" width="48" height="46.154" rx="3.6923" ry="3.6923" enable-background="new" fill="#fcf4c0" style="paint-order:normal"/><rect id="q" x="-308" y="-242.9" width="48" height="46.154" rx="3.6923" ry="3.6923" enable-background="new" fill="#b97ace" style="paint-order:normal"/><rect id="r" x="-308" y="-244.75" width="48" height="46.154" rx="3.6923" ry="3.6923" enable-background="new" fill="#d4ade2" style="paint-order:normal"/><rect id="s" x="-252" y="-242.9" width="48" height="46.154" rx="3.6923" ry="3.6923" enable-background="new" fill="#6acfec" style="paint-order:normal"/><rect id="t" x="-252" y="-244.75" width="48" height="46.154" rx="3.6923" ry="3.6923" enable-background="new" fill="#c1ebf7" style="paint-order:normal"/><g id="u" transform="matrix(5 0 0 5 -2535.6 -1750)" enable-background="new"><g id="v" transform="translate(70.997 -49)" enable-background="new" fill="#2e3436"><rect id="w" x="377" y="352.05" width="16" height="16" color="#bebebe" enable-background="accumulate" fill="none"/><rect id="x" x="373.43" y="420.29" width="9.6" height="9.2308" rx=".73846" ry=".73846" enable-background="new" fill="#758087" style="paint-order:normal"/><rect id="y" x="373.43" y="419.92" width="9.6" height="9.2308" rx=".73846" ry=".73846" enable-background="new" fill="#d7fdb2" style="paint-order:normal"/><rect id="z" x="384.63" y="420.29" width="9.6" height="9.2308" rx=".73846" ry=".73846" enable-background="new" fill="#fbeb83" style="paint-order:normal"/><rect id="aa" x="384.63" y="419.92" width="9.6" height="9.2308" rx=".73846" ry=".73846" enable-background="new" fill="#fcf4c0" style="paint-order:normal"/><rect id="ab" x="373.43" y="409.09" width="9.6" height="9.2308" rx=".73846" ry=".73846" enable-background="new" fill="#b97ace" style="paint-order:normal"/><rect id="ac" x="373.43" y="408.72" width="9.6" height="9.2308" rx=".73846" ry=".73846" enable-background="new" fill="#d4ade2" style="paint-order:normal"/><rect id="ad" x="384.63" y="409.09" width="9.6" height="9.2308" rx=".73846" ry=".73846" enable-background="new" fill="#6acfec" style="paint-order:normal"/><rect id="ae" x="384.63" y="408.72" width="9.6" height="9.2308" rx=".73846" ry=".73846" enable-background="new" fill="#c1ebf7" style="paint-order:normal"/><g id="af" transform="matrix(.3 0 0 .3 332.44 252.18)" enable-background="new"><rect id="ag" x="183" y="529" width="16" height="16" color="#bebebe" enable-background="new" fill="none"/><path id="ah" d="m191 533.85v10.38l-2.344-2.2882-1.3394 2.7346c-0.32808 0.73962-2.0337 0.14492-1.5487-0.84412l1.3255-2.8393h-2.9579z" color="#000000" display="block" enable-background="accumulate" fill="#003445" fill-rule="nonzero"/><path id="ai" d="m190.16 530.06c-3.8266 0.46006-6.5788 3.9578-6.0938 7.7812 0.13127 1.0347 0.29377 1.3818 0.29377 1.3818l1.675-1.6318c-0.33104-2.7534 1.6216-5.2315 4.375-5.5625s5.2315 1.6216 5.5625 4.375c0.31355 2.608-1.3913 5.0249-3.9688 5.5312l0.0312 2s0.52086-0.1059 0.62354-0.13097c3.4156-0.83385 5.7063-4.1273 5.2827-7.6503-0.46006-3.8266-3.9547-6.5538-7.7812-6.0938z" color="#000000" enable-background="accumulate" fill="#003445" style="text-decoration-line:none;text-indent:0;text-transform:none"/><path id="aj" d="m187.11 536.81v-0.20574l-0.19826 0.0186c0.0165-0.13095 0.0329-0.26167 0.0496-0.3926h-0.11578l-0.11556 0.14959-0.11578 0.0559-0.1653-0.0932-0.0165-0.20575 0.0331-0.22438 0.24798-0.18688h0.19826l0.0329-0.11229 0.24786 0.0559 0.18183 0.2246 0.0331-0.37419 0.31401-0.26167 0.11567-0.28055 0.23133-0.0934 0.1322-0.18688 0.29738-0.0564 0.14885-0.22415h-0.44623l0.28094-0.13095h0.19814l0.28106-0.0937 0.0331-0.11186-0.0992-0.0937-0.11567-0.0375 0.0331-0.11208-0.0826-0.16822-0.19837 0.0746 0.0331-0.14947-0.23134-0.13096-0.18171 0.3177 0.0165 0.11229-0.18171 0.075-0.11578 0.24302-0.0495-0.22438-0.31402-0.13095-0.0496-0.16822 0.41315-0.24325 0.18182-0.16822 0.0165-0.20563-0.0991-0.0562-0.13219-0.0188-0.0826 0.20575s-0.1382 0.0271-0.17373 0.0358c-0.45378 0.41804-1.3707 1.3204-1.5837 3.024 8e-3 0.0395 0.15441 0.26854 0.15441 0.26854l0.347 0.20552 0.347 0.0937m3.9661-4.3003-0.4298-0.16833-0.49552 0.0561-0.61161 0.16822-0.11567 0.11229 0.38008 0.26167v0.14959l-0.14875 0.14959 0.19846 0.39294 0.13188-0.075 0.16561-0.26168c0.2553-0.0789 0.4842-0.16833 0.72686-0.28053l0.19846-0.5048m2.5292 0.34192-0.375 0.0937-0.21875 0.15625v0.125l-0.375 0.25 0.0937 0.34375 0.21875-0.15625 0.125 0.15625 0.15625 0.0937 0.0937-0.28125-0.0625-0.15625 0.0625-0.0937 0.21875-0.1875h0.0937l-0.0937 0.21875v0.1875c0.0892-0.0242 0.1588-0.051 0.25-0.0625l-0.25 0.1875v0.125l-0.3125 0.21875-0.28125-0.0625v-0.15625l-0.125 0.0625 0.0625 0.15625h-0.21875l-0.125 0.21875-0.15625 0.15625-0.0937 0.0312v0.1875l0.0312 0.15625h-0.0312v0.53125l0.0625-0.0312 0.0937-0.21875 0.1875-0.125 0.0312-0.0937 0.28125-0.0625 0.15625 0.1875 0.1875 0.0937-0.0937 0.1875 0.15625-0.0312 0.0625-0.21875-0.1875-0.21875h0.0625l0.21875 0.15625 0.0312 0.21875 0.15625 0.21875 0.0625-0.3125 0.0937-0.0312c0.0959 0.0996 0.1692 0.23163 0.25 0.34375h0.28125l0.1875 0.125-0.0937 0.0937-0.15625 0.15625h-0.25l-0.34375-0.0937h-0.1875l-0.125 0.15625-0.34375-0.375-0.25-0.0625-0.375 0.0625-0.15625 0.0937v2.4062l0.0312 0.0312 0.25-0.15625 0.0937 0.0937h0.28125l0.125 0.15625-0.0937 0.3125 0.1875 0.1875v0.375l0.125 0.25-0.0937 0.25c-9e-3 0.16159 0 0.30714 0 0.46875 0.0795 0.21894 0.14355 0.43575 0.21875 0.65625l0.0625 0.34375v0.1875h0.125l0.21875-0.125h0.25l0.375-0.4375-0.0312-0.15625 0.25-0.21875-0.1875-0.1875 0.21875-0.1875 0.21875-0.125 0.0937-0.125-0.0625-0.25v-0.59375l0.1875-0.375 0.1875-0.25 0.25-0.5625v-0.15625c-0.11654 0.0146-0.22972 0.0231-0.34375 0.0312-0.0722 5e-3 -0.14446 0-0.21875 0-0.12359-0.25961-0.2183-0.50966-0.3125-0.78125l-0.15625-0.1875-0.0937-0.3125 0.0625-0.0625 0.21875 0.25 0.25 0.5625 0.15625 0.15625-0.0625 0.21875 0.15625 0.15625 0.25-0.25 0.3125-0.21875 0.15625-0.1875v-0.21875c-0.0389-0.0732-0.0547-0.14545-0.0937-0.21875l-0.15625 0.1875-0.125-0.15625-0.1875-0.125v-0.28125l0.21875 0.21875 0.21875-0.0312c0.10166 0.0923 0.19205 0.20751 0.28125 0.3125l0.15625-0.1875c0-0.17463-0.19976-1.0204-0.625-1.75-0.42526-0.72932-1.1562-1.4062-1.1562-1.4062l-0.0625 0.0937-0.21875 0.21875-0.25-0.25h0.25l0.125-0.125-0.46875-0.0937-0.25-0.0937z" color="#000000" enable-background="accumulate" fill="#2e3436" fill-rule="nonzero" opacity=".3"/></g><rect id="ak" x="375.92" y="410.72" width="16" height="16" color="#bebebe" enable-background="accumulate" fill="none"/><g id="al" transform="matrix(.39681 0 0 .39681 326.95 251.77)" enable-background="new"><rect id="am" x="122" y="398" width="16" height="16" rx="0" ry="0" fill="none"/><path id="an" transform="translate(-80,17)" d="m205.19 381c-1.2051 0-2.1875 1.018-2.1875 2.2188v11.562c0 1.2008 0.98238 2.2188 2.1875 2.2188h9.625c1.2051 0 2.1875-1.018 2.1875-2.2188v-11.562c0-1.2008-0.98238-2.2188-2.1875-2.2188zm-0.1875 3h10v11h-10zm1 1v4h8.0312v-4zm2.3438 1.4375a0.50005 0.50005 0 0 1 0.0625 0 0.50005 0.50005 0 0 1 0.59375 0.5v0.0625h2v-0.0625a0.50005 0.50005 0 1 1 1 0v0.0625c0 0.54535-0.45465 1-1 1h-2c-0.54535 0-1-0.45465-1-1v-0.0625a0.50005 0.50005 0 0 1 0.34375-0.5zm-2.3125 3.5625v4h8.0312v-4zm2.3125 1.4375a0.50005 0.50005 0 0 1 0.0625 0 0.50005 0.50005 0 0 1 0.59375 0.5v0.0625h2v-0.0625a0.50005 0.50005 0 1 1 1 0v0.0625c0 0.54535-0.45465 1-1 1h-2c-0.54535 0-1-0.45465-1-1v-0.0625a0.50005 0.50005 0 0 1 0.34375-0.5z" color="#000000" enable-background="accumulate" fill="#003445" fill-rule="evenodd"/></g><g id="ao" transform="matrix(.3 0 0 .3 361.42 302.87)" enable-background="new"><rect id="ap" x="48" y="398" width="16" height="16" color="#bebebe" enable-background="accumulate" fill="none" opacity=".51464"/><path id="aq" d="m49.062 400.03h13.969v12h-13.969z" color="#000000" enable-background="new" fill="none" stroke="#003445" stroke-linejoin="round" stroke-miterlimit="4" stroke-width="2"/><path id="ar" d="m57.406 405.97c-0.5648-3e-3 -1.1063 0.24128-1.4746 0.67578-0.19916 0.23494-0.31491 0.47469-0.41797 0.66406-0.10173 0.18692-0.19998 0.34268-0.30469 0.44922-0.10203 0.10381-0.2299 0.18253-0.36328 0.22266h-2e-3c-0.1324 0.0401-0.31235 0.0508-0.53125 0.0508l-5.2812-2e-5v1l5.2812 2e-5c0.23591 0 0.51749-2e-3 0.82031-0.0937 0.30268-0.0911 0.57384-0.25755 0.79102-0.47852 0.21447-0.21821 0.3528-0.45881 0.46875-0.67187 0.1146-0.21059 0.20548-0.38172 0.30078-0.49414 0.16612-0.19596 0.44726-0.32549 0.70898-0.32422 0.26316 1e-3 0.54666 0.13158 0.72461 0.33203 0.10513 0.11843 0.20466 0.29648 0.33008 0.50977 0.12676 0.21558 0.27817 0.45563 0.50195 0.67187 0.22636 0.21875 0.5026 0.38324 0.81055 0.47266 0.30799 0.0894 0.59549 0.0918 0.83984 0.0918l2.4219-0.0157v-1l-2.4219 0.0157c-0.22622 1e-3 -0.41664-0.011-0.56055-0.0527-0.14398-0.0418-0.28251-0.12221-0.39453-0.23047-0.11462-0.11076-0.22222-0.27086-0.33398-0.46094-0.1131-0.19234-0.24-0.43252-0.44726-0.66601-0.37077-0.41765-0.90346-0.66524-1.4668-0.66797z" clip-rule="nonzero" color="#000000" color-rendering="auto" dominant-baseline="auto" enable-background="accumulate" fill="#003445" fill-rule="nonzero" image-rendering="auto" shape-rendering="auto" solid-color="#000000" style="font-feature-settings:normal;font-variant-alternates:normal;font-variant-caps:normal;font-variant-ligatures:normal;font-variant-numeric:normal;font-variant-position:normal;isolation:auto;mix-blend-mode:normal;shape-padding:0;text-decoration-color:#000000;text-decoration-line:none;text-decoration-style:solid;text-indent:0;text-orientation:mixed;text-transform:none;white-space:normal"/><circle id="as" cx="53.531" cy="404.53" r="1" color="#000000" enable-background="accumulate" fill="none" stroke="#003445" stroke-linecap="round" stroke-linejoin="miter" stroke-miterlimit="4" stroke-width="1"/></g><path id="at" d="m388.05 415.98a6.9797 6.9797 0 0 1-6.9292 6.9795 6.9797 6.9797 0 0 1-7.0294-6.8785 6.9797 6.9797 0 0 1 6.8275-7.079 6.9797 6.9797 0 0 1 7.1282 6.7761" color="#000000" enable-background="new" fill="none" stroke="url(#c)" stroke-linecap="round" stroke-linejoin="round" stroke-miterlimit="4" stroke-width="1.2407"/><g id="au" transform="matrix(.3 0 0 .3 212.74 307.48)" enable-background="new"><rect id="av" x="582" y="382" width="16" height="16" color="#bebebe" enable-background="accumulate" fill="none"/><path id="aw" transform="translate(362 298)" d="m225 85v7.3437c-0.4525-0.21142-0.9697-0.34375-1.5-0.34375-1.9212 0-3.5 1.5788-3.5 3.5s1.5788 3.5 3.5 3.5c1.9103 0 3.4823-1.5623 3.5-3.4688 1e-4 -0.0108 0-0.02042 0-0.03125v-7.5h6v4.3438c-0.4525-0.21142-0.9697-0.34375-1.5-0.34375-1.9212 0-3.5 1.5788-3.5 3.5s1.5788 3.5 3.5 3.5c1.8995 0 3.4649-1.5457 3.5-3.4375 4e-4 -0.02156 0-0.04085 0-0.0625v-10.5z" color="#000000" enable-background="new" fill="#003445" style="text-decoration-line:none;text-indent:0;text-transform:none"/></g><rect id="ax" transform="matrix(.70456 .70964 -.70456 .70964 0 0)" x="570.31" y="21.361" width="9.1583" height="2.3891" rx=".76233" ry=".65185" enable-background="new" fill="#003445" fill-rule="evenodd" stroke-width=".14365"/><rect id="ay" transform="rotate(45)" x="570.58" y="23.162" width="9.2702" height="2.4183" rx=".77165" ry=".65982" enable-background="new" fill="url(#b)" fill-rule="evenodd" stroke-width=".14541"/><rect id="az" transform="matrix(.70709 .70713 -.70709 .70713 0 0)" x="569.81" y="23.04" width="1.667" height="2.6233" rx=".14154" ry=".33894" enable-background="new" fill="url(#a)" fill-rule="evenodd" stroke="#fbeb83" stroke-miterlimit="4" stroke-width=".017155"/><circle id="ba" transform="scale(1,-1)" cx="380.27" cy="-412.47" r="1.9174" color="#000000" enable-background="new" fill="#c1ebf7" fill-rule="nonzero" opacity=".322"/><circle id="bb" transform="matrix(.7071 -.70711 .7071 .70711 0 0)" cx="-24.382" cy="563.32" r="6.9832" color="#000000" enable-background="new" fill="none" stroke="#d2d8dc" stroke-linecap="round" stroke-linejoin="round" stroke-miterlimit="4" stroke-width="1.2413"/><g id="bc" transform="matrix(.3 0 0 .3 333.3 193.75)" enable-background="new"><rect id="bd" x="183" y="529" width="16" height="16" color="#bebebe" enable-background="new" fill="none"/><path id="be" d="m191 533.85v10.38l-2.344-2.2882-1.3394 2.7346c-0.32808 0.73962-2.0337 0.14492-1.5487-0.84412l1.3255-2.8393h-2.9579z" color="#000000" display="block" enable-background="accumulate" fill="#003445" fill-rule="nonzero"/><path id="bf" d="m190.16 530.06c-3.8266 0.46006-6.5788 3.9578-6.0938 7.7812 0.13127 1.0347 0.29377 1.3818 0.29377 1.3818l1.675-1.6318c-0.33104-2.7534 1.6216-5.2315 4.375-5.5625s5.2315 1.6216 5.5625 4.375c0.31355 2.608-1.3913 5.0249-3.9688 5.5312l0.0312 2s0.52086-0.1059 0.62354-0.13097c3.4156-0.83385 5.7063-4.1273 5.2827-7.6503-0.46006-3.8266-3.9547-6.5538-7.7812-6.0938z" color="#000000" enable-background="accumulate" fill="#003445" style="text-decoration-line:none;text-indent:0;text-transform:none"/><path id="bg" d="m187.11 536.81v-0.20574l-0.19826 0.0186c0.0165-0.13095 0.0329-0.26167 0.0496-0.3926h-0.11578l-0.11556 0.14959-0.11578 0.0559-0.1653-0.0932-0.0165-0.20575 0.0331-0.22438 0.24798-0.18688h0.19826l0.0329-0.11229 0.24786 0.0559 0.18183 0.2246 0.0331-0.37419 0.31401-0.26167 0.11567-0.28055 0.23133-0.0934 0.1322-0.18688 0.29738-0.0564 0.14885-0.22415h-0.44623l0.28094-0.13095h0.19814l0.28106-0.0937 0.0331-0.11186-0.0992-0.0937-0.11567-0.0375 0.0331-0.11208-0.0826-0.16822-0.19837 0.0746 0.0331-0.14947-0.23134-0.13096-0.18171 0.3177 0.0165 0.11229-0.18171 0.075-0.11578 0.24302-0.0495-0.22438-0.31402-0.13095-0.0496-0.16822 0.41315-0.24325 0.18182-0.16822 0.0165-0.20563-0.0991-0.0562-0.13219-0.0188-0.0826 0.20575s-0.1382 0.0271-0.17373 0.0358c-0.45378 0.41804-1.3707 1.3204-1.5837 3.024 8e-3 0.0395 0.15441 0.26854 0.15441 0.26854l0.347 0.20552 0.347 0.0937m3.9661-4.3003-0.4298-0.16833-0.49552 0.0561-0.61161 0.16822-0.11567 0.11229 0.38008 0.26167v0.14959l-0.14875 0.14959 0.19846 0.39294 0.13188-0.075 0.16561-0.26168c0.2553-0.0789 0.4842-0.16833 0.72686-0.28053l0.19846-0.5048m2.5292 0.34192-0.375 0.0937-0.21875 0.15625v0.125l-0.375 0.25 0.0937 0.34375 0.21875-0.15625 0.125 0.15625 0.15625 0.0937 0.0937-0.28125-0.0625-0.15625 0.0625-0.0937 0.21875-0.1875h0.0937l-0.0937 0.21875v0.1875c0.0892-0.0242 0.1588-0.051 0.25-0.0625l-0.25 0.1875v0.125l-0.3125 0.21875-0.28125-0.0625v-0.15625l-0.125 0.0625 0.0625 0.15625h-0.21875l-0.125 0.21875-0.15625 0.15625-0.0937 0.0312v0.1875l0.0312 0.15625h-0.0312v0.53125l0.0625-0.0312 0.0937-0.21875 0.1875-0.125 0.0312-0.0937 0.28125-0.0625 0.15625 0.1875 0.1875 0.0937-0.0937 0.1875 0.15625-0.0312 0.0625-0.21875-0.1875-0.21875h0.0625l0.21875 0.15625 0.0312 0.21875 0.15625 0.21875 0.0625-0.3125 0.0937-0.0312c0.0959 0.0996 0.1692 0.23163 0.25 0.34375h0.28125l0.1875 0.125-0.0937 0.0937-0.15625 0.15625h-0.25l-0.34375-0.0937h-0.1875l-0.125 0.15625-0.34375-0.375-0.25-0.0625-0.375 0.0625-0.15625 0.0937v2.4062l0.0312 0.0312 0.25-0.15625 0.0937 0.0937h0.28125l0.125 0.15625-0.0937 0.3125 0.1875 0.1875v0.375l0.125 0.25-0.0937 0.25c-9e-3 0.16159 0 0.30714 0 0.46875 0.0795 0.21894 0.14355 0.43575 0.21875 0.65625l0.0625 0.34375v0.1875h0.125l0.21875-0.125h0.25l0.375-0.4375-0.0312-0.15625 0.25-0.21875-0.1875-0.1875 0.21875-0.1875 0.21875-0.125 0.0937-0.125-0.0625-0.25v-0.59375l0.1875-0.375 0.1875-0.25 0.25-0.5625v-0.15625c-0.11654 0.0146-0.22972 0.0231-0.34375 0.0312-0.0722 5e-3 -0.14446 0-0.21875 0-0.12359-0.25961-0.2183-0.50966-0.3125-0.78125l-0.15625-0.1875-0.0937-0.3125 0.0625-0.0625 0.21875 0.25 0.25 0.5625 0.15625 0.15625-0.0625 0.21875 0.15625 0.15625 0.25-0.25 0.3125-0.21875 0.15625-0.1875v-0.21875c-0.0389-0.0732-0.0547-0.14545-0.0937-0.21875l-0.15625 0.1875-0.125-0.15625-0.1875-0.125v-0.28125l0.21875 0.21875 0.21875-0.0312c0.10166 0.0923 0.19205 0.20751 0.28125 0.3125l0.15625-0.1875c0-0.17463-0.19976-1.0204-0.625-1.75-0.42526-0.72932-1.1562-1.4062-1.1562-1.4062l-0.0625 0.0937-0.21875 0.21875-0.25-0.25h0.25l0.125-0.125-0.46875-0.0937-0.25-0.0937z" color="#000000" enable-background="accumulate" fill="#2e3436" fill-rule="nonzero" opacity=".3"/></g><g id="bh" transform="matrix(.3 0 0 .3 340.4 232.65)" enable-background="new"><rect id="bi" x="122" y="398" width="16" height="16" rx="0" ry="0" fill="none"/><path id="bj" transform="translate(-80,17)" d="m205.19 381c-1.2051 0-2.1875 1.018-2.1875 2.2188v11.562c0 1.2008 0.98238 2.2188 2.1875 2.2188h9.625c1.2051 0 2.1875-1.018 2.1875-2.2188v-11.562c0-1.2008-0.98238-2.2188-2.1875-2.2188zm-0.1875 3h10v11h-10zm1 1v4h8.0312v-4zm2.3438 1.4375a0.50005 0.50005 0 0 1 0.0625 0 0.50005 0.50005 0 0 1 0.59375 0.5v0.0625h2v-0.0625a0.50005 0.50005 0 1 1 1 0v0.0625c0 0.54535-0.45465 1-1 1h-2c-0.54535 0-1-0.45465-1-1v-0.0625a0.50005 0.50005 0 0 1 0.34375-0.5zm-2.3125 3.5625v4h8.0312v-4zm2.3125 1.4375a0.50005 0.50005 0 0 1 0.0625 0 0.50005 0.50005 0 0 1 0.59375 0.5v0.0625h2v-0.0625a0.50005 0.50005 0 1 1 1 0v0.0625c0 0.54535-0.45465 1-1 1h-2c-0.54535 0-1-0.45465-1-1v-0.0625a0.50005 0.50005 0 0 1 0.34375-0.5z" color="#000000" enable-background="accumulate" fill="#003445" fill-rule="evenodd"/></g><g id="bk" transform="matrix(.3 0 0 .3 362.28 244.44)" enable-background="new"><rect id="bl" x="48" y="398" width="16" height="16" color="#bebebe" enable-background="accumulate" fill="none" opacity=".51464"/><path id="bm" d="m49.062 400.03h13.969v12h-13.969z" color="#000000" enable-background="new" fill="none" stroke="#003445" stroke-linejoin="round" stroke-miterlimit="4" stroke-width="2"/><path id="bn" d="m57.406 405.97c-0.5648-3e-3 -1.1063 0.24128-1.4746 0.67578-0.19916 0.23494-0.31491 0.47469-0.41797 0.66406-0.10173 0.18692-0.19998 0.34268-0.30469 0.44922-0.10203 0.10381-0.2299 0.18253-0.36328 0.22266h-2e-3c-0.1324 0.0401-0.31235 0.0508-0.53125 0.0508l-5.2812-2e-5v1l5.2812 2e-5c0.23591 0 0.51749-2e-3 0.82031-0.0937 0.30268-0.0911 0.57384-0.25755 0.79102-0.47852 0.21447-0.21821 0.3528-0.45881 0.46875-0.67187 0.1146-0.21059 0.20548-0.38172 0.30078-0.49414 0.16612-0.19596 0.44726-0.32549 0.70898-0.32422 0.26316 1e-3 0.54666 0.13158 0.72461 0.33203 0.10513 0.11843 0.20466 0.29648 0.33008 0.50977 0.12676 0.21558 0.27817 0.45563 0.50195 0.67187 0.22636 0.21875 0.5026 0.38324 0.81055 0.47266 0.30799 0.0894 0.59549 0.0918 0.83984 0.0918l2.4219-0.0157v-1l-2.4219 0.0157c-0.22622 1e-3 -0.41664-0.011-0.56055-0.0527-0.14398-0.0418-0.28251-0.12221-0.39453-0.23047-0.11462-0.11076-0.22222-0.27086-0.33398-0.46094-0.1131-0.19234-0.24-0.43252-0.44726-0.66601-0.37077-0.41765-0.90346-0.66524-1.4668-0.66797z" clip-rule="nonzero" color="#000000" color-rendering="auto" dominant-baseline="auto" enable-background="accumulate" fill="#003445" fill-rule="nonzero" image-rendering="auto" shape-rendering="auto" solid-color="#000000" style="font-feature-settings:normal;font-variant-alternates:normal;font-variant-caps:normal;font-variant-ligatures:normal;font-variant-numeric:normal;font-variant-position:normal;isolation:auto;mix-blend-mode:normal;shape-padding:0;text-decoration-color:#000000;text-decoration-line:none;text-decoration-style:solid;text-indent:0;text-orientation:mixed;text-transform:none;white-space:normal"/><circle id="bo" cx="53.531" cy="404.53" r="1" color="#000000" enable-background="accumulate" fill="none" stroke="#003445" stroke-linecap="round" stroke-linejoin="miter" stroke-miterlimit="4" stroke-width="1"/></g><g id="bp" transform="matrix(.3 0 0 .3 213.6 249.05)" enable-background="new"><rect id="bq" x="582" y="382" width="16" height="16" color="#bebebe" enable-background="accumulate" fill="none"/><path id="br" transform="translate(362 298)" d="m225 85v7.3437c-0.4525-0.21142-0.9697-0.34375-1.5-0.34375-1.9212 0-3.5 1.5788-3.5 3.5s1.5788 3.5 3.5 3.5c1.9103 0 3.4823-1.5623 3.5-3.4688 1e-4 -0.0108 0-0.02042 0-0.03125v-7.5h6v4.3438c-0.4525-0.21142-0.9697-0.34375-1.5-0.34375-1.9212 0-3.5 1.5788-3.5 3.5s1.5788 3.5 3.5 3.5c1.8995 0 3.4649-1.5457 3.5-3.4375 4e-4 -0.02156 0-0.04085 0-0.0625v-10.5z" color="#000000" enable-background="new" fill="#003445" style="text-decoration-line:none;text-indent:0;text-transform:none"/></g><rect id="bs" x="374.85" y="391.25" width="9.6" height="9.2308" rx=".73846" ry=".73846" enable-background="new" fill="#aef766" style="paint-order:normal"/><rect id="bt" x="374.85" y="390.88" width="9.6" height="9.2308" rx=".73846" ry=".73846" enable-background="new" fill="#d7fdb2" style="paint-order:normal"/><rect id="bu" x="386.05" y="391.25" width="9.6" height="9.2308" rx=".73846" ry=".73846" enable-background="new" fill="#fbeb83" style="paint-order:normal"/><rect id="bv" x="386.05" y="390.88" width="9.6" height="9.2308" rx=".73846" ry=".73846" enable-background="new" fill="#fcf4c0" style="paint-order:normal"/><rect id="bw" x="374.85" y="380.05" width="9.6" height="9.2308" rx=".73846" ry=".73846" enable-background="new" fill="#b97ace" style="paint-order:normal"/><rect id="bx" x="374.85" y="379.68" width="9.6" height="9.2308" rx=".73846" ry=".73846" enable-background="new" fill="#d4ade2" style="paint-order:normal"/><rect id="by" x="386.05" y="380.05" width="9.6" height="9.2308" rx=".73846" ry=".73846" enable-background="new" fill="#6acfec" style="paint-order:normal"/><rect id="bz" x="386.05" y="379.68" width="9.6" height="9.2308" rx=".73846" ry=".73846" enable-background="new" fill="#c1ebf7" style="paint-order:normal"/><rect id="ca" x="377.34" y="381.68" width="16" height="16" color="#bebebe" enable-background="accumulate" fill="none"/><g id="cb" transform="matrix(.3 0 0 .3 333.64 223.38)" enable-background="new"><rect id="cc" x="183" y="529" width="16" height="16" color="#bebebe" enable-background="new" fill="none"/><path id="cd" d="m191 533.85v10.38l-2.344-2.2882-1.3394 2.7346c-0.32808 0.73962-2.0337 0.14492-1.5487-0.84412l1.3255-2.8393h-2.9579z" color="#000000" display="block" enable-background="accumulate" fill="#003445" fill-rule="nonzero"/><path id="ce" d="m190.16 530.06c-3.8266 0.46006-6.5788 3.9578-6.0938 7.7812 0.13127 1.0347 0.29377 1.3818 0.29377 1.3818l1.675-1.6318c-0.33104-2.7534 1.6216-5.2315 4.375-5.5625s5.2315 1.6216 5.5625 4.375c0.31355 2.608-1.3913 5.0249-3.9688 5.5312l0.0312 2s0.52086-0.1059 0.62354-0.13097c3.4156-0.83385 5.7063-4.1273 5.2827-7.6503-0.46006-3.8266-3.9547-6.5538-7.7812-6.0938z" color="#000000" enable-background="accumulate" fill="#003445" style="text-decoration-line:none;text-indent:0;text-transform:none"/><path id="cf" d="m187.11 536.81v-0.20574l-0.19826 0.0186c0.0165-0.13095 0.0329-0.26167 0.0496-0.3926h-0.11578l-0.11556 0.14959-0.11578 0.0559-0.1653-0.0932-0.0165-0.20575 0.0331-0.22438 0.24798-0.18688h0.19826l0.0329-0.11229 0.24786 0.0559 0.18183 0.2246 0.0331-0.37419 0.31401-0.26167 0.11567-0.28055 0.23133-0.0934 0.1322-0.18688 0.29738-0.0564 0.14885-0.22415h-0.44623l0.28094-0.13095h0.19814l0.28106-0.0937 0.0331-0.11186-0.0992-0.0937-0.11567-0.0375 0.0331-0.11208-0.0826-0.16822-0.19837 0.0746 0.0331-0.14947-0.23134-0.13096-0.18171 0.3177 0.0165 0.11229-0.18171 0.075-0.11578 0.24302-0.0495-0.22438-0.31402-0.13095-0.0496-0.16822 0.41315-0.24325 0.18182-0.16822 0.0165-0.20563-0.0991-0.0562-0.13219-0.0188-0.0826 0.20575s-0.1382 0.0271-0.17373 0.0358c-0.45378 0.41804-1.3707 1.3204-1.5837 3.024 8e-3 0.0395 0.15441 0.26854 0.15441 0.26854l0.347 0.20552 0.347 0.0937m3.9661-4.3003-0.4298-0.16833-0.49552 0.0561-0.61161 0.16822-0.11567 0.11229 0.38008 0.26167v0.14959l-0.14875 0.14959 0.19846 0.39294 0.13188-0.075 0.16561-0.26168c0.2553-0.0789 0.4842-0.16833 0.72686-0.28053l0.19846-0.5048m2.5292 0.34192-0.375 0.0937-0.21875 0.15625v0.125l-0.375 0.25 0.0937 0.34375 0.21875-0.15625 0.125 0.15625 0.15625 0.0937 0.0937-0.28125-0.0625-0.15625 0.0625-0.0937 0.21875-0.1875h0.0937l-0.0937 0.21875v0.1875c0.0892-0.0242 0.1588-0.051 0.25-0.0625l-0.25 0.1875v0.125l-0.3125 0.21875-0.28125-0.0625v-0.15625l-0.125 0.0625 0.0625 0.15625h-0.21875l-0.125 0.21875-0.15625 0.15625-0.0937 0.0312v0.1875l0.0312 0.15625h-0.0312v0.53125l0.0625-0.0312 0.0937-0.21875 0.1875-0.125 0.0312-0.0937 0.28125-0.0625 0.15625 0.1875 0.1875 0.0937-0.0937 0.1875 0.15625-0.0312 0.0625-0.21875-0.1875-0.21875h0.0625l0.21875 0.15625 0.0312 0.21875 0.15625 0.21875 0.0625-0.3125 0.0937-0.0312c0.0959 0.0996 0.1692 0.23163 0.25 0.34375h0.28125l0.1875 0.125-0.0937 0.0937-0.15625 0.15625h-0.25l-0.34375-0.0937h-0.1875l-0.125 0.15625-0.34375-0.375-0.25-0.0625-0.375 0.0625-0.15625 0.0937v2.4062l0.0312 0.0312 0.25-0.15625 0.0937 0.0937h0.28125l0.125 0.15625-0.0937 0.3125 0.1875 0.1875v0.375l0.125 0.25-0.0937 0.25c-9e-3 0.16159 0 0.30714 0 0.46875 0.0795 0.21894 0.14355 0.43575 0.21875 0.65625l0.0625 0.34375v0.1875h0.125l0.21875-0.125h0.25l0.375-0.4375-0.0312-0.15625 0.25-0.21875-0.1875-0.1875 0.21875-0.1875 0.21875-0.125 0.0937-0.125-0.0625-0.25v-0.59375l0.1875-0.375 0.1875-0.25 0.25-0.5625v-0.15625c-0.11654 0.0146-0.22972 0.0231-0.34375 0.0312-0.0722 5e-3 -0.14446 0-0.21875 0-0.12359-0.25961-0.2183-0.50966-0.3125-0.78125l-0.15625-0.1875-0.0937-0.3125 0.0625-0.0625 0.21875 0.25 0.25 0.5625 0.15625 0.15625-0.0625 0.21875 0.15625 0.15625 0.25-0.25 0.3125-0.21875 0.15625-0.1875v-0.21875c-0.0389-0.0732-0.0547-0.14545-0.0937-0.21875l-0.15625 0.1875-0.125-0.15625-0.1875-0.125v-0.28125l0.21875 0.21875 0.21875-0.0312c0.10166 0.0923 0.19205 0.20751 0.28125 0.3125l0.15625-0.1875c0-0.17463-0.19976-1.0204-0.625-1.75-0.42526-0.72932-1.1562-1.4062-1.1562-1.4062l-0.0625 0.0937-0.21875 0.21875-0.25-0.25h0.25l0.125-0.125-0.46875-0.0937-0.25-0.0937z" color="#000000" enable-background="accumulate" fill="#2e3436" fill-rule="nonzero" opacity=".3"/></g><g id="cg" transform="matrix(.3 0 0 .3 362.62 274.07)" enable-background="new"><rect id="ch" x="48" y="398" width="16" height="16" color="#bebebe" enable-background="accumulate" fill="none" opacity=".51464"/><path id="ci" d="m49.062 400.03h13.969v12h-13.969z" color="#000000" enable-background="new" fill="none" stroke="#003445" stroke-linejoin="round" stroke-miterlimit="4" stroke-width="2"/><path id="cj" d="m57.406 405.97c-0.5648-3e-3 -1.1063 0.24128-1.4746 0.67578-0.19916 0.23494-0.31491 0.47469-0.41797 0.66406-0.10173 0.18692-0.19998 0.34268-0.30469 0.44922-0.10203 0.10381-0.2299 0.18253-0.36328 0.22266h-2e-3c-0.1324 0.0401-0.31235 0.0508-0.53125 0.0508l-5.2812-2e-5v1l5.2812 2e-5c0.23591 0 0.51749-2e-3 0.82031-0.0937 0.30268-0.0911 0.57384-0.25755 0.79102-0.47852 0.21447-0.21821 0.3528-0.45881 0.46875-0.67187 0.1146-0.21059 0.20548-0.38172 0.30078-0.49414 0.16612-0.19596 0.44726-0.32549 0.70898-0.32422 0.26316 1e-3 0.54666 0.13158 0.72461 0.33203 0.10513 0.11843 0.20466 0.29648 0.33008 0.50977 0.12676 0.21558 0.27817 0.45563 0.50195 0.67187 0.22636 0.21875 0.5026 0.38324 0.81055 0.47266 0.30799 0.0894 0.59549 0.0918 0.83984 0.0918l2.4219-0.0157v-1l-2.4219 0.0157c-0.22622 1e-3 -0.41664-0.011-0.56055-0.0527-0.14398-0.0418-0.28251-0.12221-0.39453-0.23047-0.11462-0.11076-0.22222-0.27086-0.33398-0.46094-0.1131-0.19234-0.24-0.43252-0.44726-0.66601-0.37077-0.41765-0.90346-0.66524-1.4668-0.66797z" clip-rule="nonzero" color="#000000" color-rendering="auto" dominant-baseline="auto" enable-background="accumulate" fill="#003445" fill-rule="nonzero" image-rendering="auto" shape-rendering="auto" solid-color="#000000" style="font-feature-settings:normal;font-variant-alternates:normal;font-variant-caps:normal;font-variant-ligatures:normal;font-variant-numeric:normal;font-variant-position:normal;isolation:auto;mix-blend-mode:normal;shape-padding:0;text-decoration-color:#000000;text-decoration-line:none;text-decoration-style:solid;text-indent:0;text-orientation:mixed;text-transform:none;white-space:normal"/><circle id="ck" cx="53.531" cy="404.53" r="1" color="#000000" enable-background="accumulate" fill="none" stroke="#003445" stroke-linecap="round" stroke-linejoin="miter" stroke-miterlimit="4" stroke-width="1"/></g><g id="cl" transform="matrix(.3 0 0 .3 213.94 278.68)" enable-background="new"><rect id="cm" x="582" y="382" width="16" height="16" color="#bebebe" enable-background="accumulate" fill="none"/><path id="cn" transform="translate(362 298)" d="m225 85v7.3437c-0.4525-0.21142-0.9697-0.34375-1.5-0.34375-1.9212 0-3.5 1.5788-3.5 3.5s1.5788 3.5 3.5 3.5c1.9103 0 3.4823-1.5623 3.5-3.4688 1e-4 -0.0108 0-0.02042 0-0.03125v-7.5h6v4.3438c-0.4525-0.21142-0.9697-0.34375-1.5-0.34375-1.9212 0-3.5 1.5788-3.5 3.5s1.5788 3.5 3.5 3.5c1.8995 0 3.4649-1.5457 3.5-3.4375 4e-4 -0.02156 0-0.04085 0-0.0625v-10.5z" color="#000000" enable-background="new" fill="#003445" style="text-decoration-line:none;text-indent:0;text-transform:none"/></g><path id="co" d="m384.93 380.36c0.65098 0 2.7497 5.2365 3.2764 5.6187 0.52666 0.38219 6.1612 0.75774 6.3624 1.3761 0.20116 0.6184-4.1363 4.2303-4.3374 4.8487-0.20116 0.6184 1.1824 6.087 0.65577 6.4692-0.52665 0.3822-5.3061-2.622-5.9571-2.622s-5.4304 3.0042-5.9571 2.622c-0.52665-0.38219 0.85693-5.8508 0.65577-6.4692-0.20117-0.6184-4.5386-4.2303-4.3374-4.8487 0.20117-0.6184 5.8357-0.99395 6.3624-1.3761 0.52665-0.3822 2.6254-5.6187 3.2764-5.6187z" fill="#00aade" fill-rule="nonzero" opacity=".88" stroke="#003445" stroke-linejoin="round" stroke-miterlimit="4" stroke-width=".4"/><rect id="cp" x="438.51" y="353.8" width="20.8" height="20" rx="1.6" ry="1.6" enable-background="new" fill="#758087" style="paint-order:normal"/><rect id="cq" x="438.51" y="353" width="20.8" height="20" rx="1.6" ry="1.6" enable-background="new" fill="#6acfec" style="paint-order:normal"/><path id="cr" d="m440.11 353c-0.8864 0-1.6 0.7136-1.6 1.6v8.4h10.4v-10z" enable-background="new" fill="#00aade" style="paint-order:normal"/><path id="cs" d="m448.91 353v10h10.4v-8.4c0-0.8864-0.7136-1.6-1.6-1.6z" enable-background="new" fill="#d2d8dc" style="paint-order:normal"/><path id="ct" d="m448.91 373v-10h-10.4v8.4c0 0.88639 0.7136 1.6 1.6 1.6z" enable-background="new" fill="#bcc5ca" style="paint-order:normal"/><rect id="cu" x="436.21" y="399.1" width="3" height="3" rx=".225" ry=".3158" enable-background="new" fill="#d2d8dc" stroke="#a7b0b7" stroke-linejoin="miter" stroke-miterlimit="4" stroke-width=".2" style="paint-order:normal"/><g id="cv" transform="matrix(.3 0 0 .3 386.81 196.3)" enable-background="new"><rect id="cw" x="183" y="529" width="16" height="16" color="#bebebe" enable-background="new" fill="none"/><path id="cx" d="m191 533.85v10.38l-2.344-2.2882-1.3394 2.7346c-0.32808 0.73962-2.0337 0.14492-1.5487-0.84412l1.3255-2.8393h-2.9579z" color="#000000" display="block" enable-background="accumulate" fill="#003445" fill-rule="nonzero"/><path id="cy" d="m190.16 530.06c-3.8266 0.46006-6.5788 3.9578-6.0938 7.7812 0.13127 1.0347 0.29377 1.3818 0.29377 1.3818l1.675-1.6318c-0.33104-2.7534 1.6216-5.2315 4.375-5.5625s5.2315 1.6216 5.5625 4.375c0.31355 2.608-1.3913 5.0249-3.9688 5.5312l0.0312 2s0.52086-0.1059 0.62354-0.13097c3.4156-0.83385 5.7063-4.1273 5.2827-7.6503-0.46006-3.8266-3.9547-6.5538-7.7812-6.0938z" color="#000000" enable-background="accumulate" fill="#003445" style="text-decoration-line:none;text-indent:0;text-transform:none"/><path id="cz" d="m187.11 536.81v-0.20574l-0.19826 0.0186c0.0165-0.13095 0.0329-0.26167 0.0496-0.3926h-0.11578l-0.11556 0.14959-0.11578 0.0559-0.1653-0.0932-0.0165-0.20575 0.0331-0.22438 0.24798-0.18688h0.19826l0.0329-0.11229 0.24786 0.0559 0.18183 0.2246 0.0331-0.37419 0.31401-0.26167 0.11567-0.28055 0.23133-0.0934 0.1322-0.18688 0.29738-0.0564 0.14885-0.22415h-0.44623l0.28094-0.13095h0.19814l0.28106-0.0937 0.0331-0.11186-0.0992-0.0937-0.11567-0.0375 0.0331-0.11208-0.0826-0.16822-0.19837 0.0746 0.0331-0.14947-0.23134-0.13096-0.18171 0.3177 0.0165 0.11229-0.18171 0.075-0.11578 0.24302-0.0495-0.22438-0.31402-0.13095-0.0496-0.16822 0.41315-0.24325 0.18182-0.16822 0.0165-0.20563-0.0991-0.0562-0.13219-0.0188-0.0826 0.20575s-0.1382 0.0271-0.17373 0.0358c-0.45378 0.41804-1.3707 1.3204-1.5837 3.024 8e-3 0.0395 0.15441 0.26854 0.15441 0.26854l0.347 0.20552 0.347 0.0937m3.9661-4.3003-0.4298-0.16833-0.49552 0.0561-0.61161 0.16822-0.11567 0.11229 0.38008 0.26167v0.14959l-0.14875 0.14959 0.19846 0.39294 0.13188-0.075 0.16561-0.26168c0.2553-0.0789 0.4842-0.16833 0.72686-0.28053l0.19846-0.5048m2.5292 0.34192-0.375 0.0937-0.21875 0.15625v0.125l-0.375 0.25 0.0937 0.34375 0.21875-0.15625 0.125 0.15625 0.15625 0.0937 0.0937-0.28125-0.0625-0.15625 0.0625-0.0937 0.21875-0.1875h0.0937l-0.0937 0.21875v0.1875c0.0892-0.0242 0.1588-0.051 0.25-0.0625l-0.25 0.1875v0.125l-0.3125 0.21875-0.28125-0.0625v-0.15625l-0.125 0.0625 0.0625 0.15625h-0.21875l-0.125 0.21875-0.15625 0.15625-0.0937 0.0312v0.1875l0.0312 0.15625h-0.0312v0.53125l0.0625-0.0312 0.0937-0.21875 0.1875-0.125 0.0312-0.0937 0.28125-0.0625 0.15625 0.1875 0.1875 0.0937-0.0937 0.1875 0.15625-0.0312 0.0625-0.21875-0.1875-0.21875h0.0625l0.21875 0.15625 0.0312 0.21875 0.15625 0.21875 0.0625-0.3125 0.0937-0.0312c0.0959 0.0996 0.1692 0.23163 0.25 0.34375h0.28125l0.1875 0.125-0.0937 0.0937-0.15625 0.15625h-0.25l-0.34375-0.0937h-0.1875l-0.125 0.15625-0.34375-0.375-0.25-0.0625-0.375 0.0625-0.15625 0.0937v2.4062l0.0312 0.0312 0.25-0.15625 0.0937 0.0937h0.28125l0.125 0.15625-0.0937 0.3125 0.1875 0.1875v0.375l0.125 0.25-0.0937 0.25c-9e-3 0.16159 0 0.30714 0 0.46875 0.0795 0.21894 0.14355 0.43575 0.21875 0.65625l0.0625 0.34375v0.1875h0.125l0.21875-0.125h0.25l0.375-0.4375-0.0312-0.15625 0.25-0.21875-0.1875-0.1875 0.21875-0.1875 0.21875-0.125 0.0937-0.125-0.0625-0.25v-0.59375l0.1875-0.375 0.1875-0.25 0.25-0.5625v-0.15625c-0.11654 0.0146-0.22972 0.0231-0.34375 0.0312-0.0722 5e-3 -0.14446 0-0.21875 0-0.12359-0.25961-0.2183-0.50966-0.3125-0.78125l-0.15625-0.1875-0.0937-0.3125 0.0625-0.0625 0.21875 0.25 0.25 0.5625 0.15625 0.15625-0.0625 0.21875 0.15625 0.15625 0.25-0.25 0.3125-0.21875 0.15625-0.1875v-0.21875c-0.0389-0.0732-0.0547-0.14545-0.0937-0.21875l-0.15625 0.1875-0.125-0.15625-0.1875-0.125v-0.28125l0.21875 0.21875 0.21875-0.0312c0.10166 0.0923 0.19205 0.20751 0.28125 0.3125l0.15625-0.1875c0-0.17463-0.19976-1.0204-0.625-1.75-0.42526-0.72932-1.1562-1.4062-1.1562-1.4062l-0.0625 0.0937-0.21875 0.21875-0.25-0.25h0.25l0.125-0.125-0.46875-0.0937-0.25-0.0937z" color="#000000" enable-background="accumulate" fill="#2e3436" fill-rule="nonzero" opacity=".3"/></g><rect id="da" x="451.95" y="356.16" width="4.8" height="4.8" enable-background="new" fill="none"/><path id="db" d="m454.01 355.4a2.4021 2.4021 0 0 0-1.923 1.1086 2.4027 2.4027 0 0 0 0.2209 2.8723 2.4018 2.4018 0 0 0 2.8189 0.59121 0.30001 0.30001 0 1 0-0.25371-0.54375 1.7979 1.7979 0 0 1-2.1146-0.44355 1.797 1.797 0 0 1-0.16523-2.1539 1.797 1.797 0 0 1 2.0215-0.76113 1.7973 1.7973 0 0 1 1.2967 1.7279 0.3 0.3 0 0 0 0 0.0123v0.2877c0 0.1077-0.0567 0.20587-0.15 0.25957-0.093 0.054-0.2067 0.054-0.3 0a0.2985 0.2985 0 0 1-0.15-0.25957v-0.3c0-0.6591-0.5409-1.2-1.2-1.2s-1.2 0.5409-1.2 1.2 0.5409 1.2 1.2 1.2c0.31307 0 0.5971-0.12467 0.81153-0.32344 0.0666 0.0796 0.14597 0.14935 0.23847 0.20273a0.9012 0.9012 0 0 0 0.9 0 0.9009 0.9009 0 0 0 0.45-0.77929v-0.3a2.4024 2.4024 0 0 0-1.7285-2.3045 2.3949 2.3949 0 0 0-0.77285-0.0932zm0.10136 1.7977c0.3351 0 0.6 0.2652 0.6 0.6s-0.2649 0.6-0.6 0.6c-0.3348 0-0.6-0.2652-0.6-0.6s0.2652-0.6 0.6-0.6z" color="#000000" fill="#003445" solid-color="#000000" style="font-feature-settings:normal;font-variant-alternates:normal;font-variant-caps:normal;font-variant-ligatures:normal;font-variant-numeric:normal;font-variant-position:normal;isolation:auto;mix-blend-mode:normal;shape-padding:0;text-decoration-color:#000000;text-decoration-line:none;text-decoration-style:solid;text-indent:0;text-orientation:mixed;text-transform:none;white-space:normal"/><path id="dc" d="m449.31 356.99c0.42687 0 1.8031 3.4338 2.1484 3.6844 0.34536 0.25062 4.0401 0.49688 4.172 0.90238 0.1319 0.40551-2.7123 2.774-2.8442 3.1794-0.13191 0.40551 0.77536 3.9914 0.43001 4.2421-0.34534 0.25063-3.4794-1.7194-3.9063-1.7194s-3.5609 1.97-3.9063 1.7194c-0.34534-0.25061 0.56192-3.8366 0.43002-4.2421-0.13192-0.4055-2.9761-2.7739-2.8442-3.1794 0.13191-0.4055 3.8267-0.65176 4.172-0.90238 0.34535-0.25061 1.7216-3.6844 2.1484-3.6844z" enable-background="new" fill="#f9da02" fill-rule="nonzero" stroke="#dcb102" stroke-linejoin="round" stroke-miterlimit="4" stroke-width="1.2"/><rect id="dd" x="1.9727e-5" y="4.002" width="104" height="100" rx="8" ry="8" enable-background="new" fill="#758087" style="paint-order:normal"/><rect id="de" x="1.9727e-5" y=".0016285" width="104" height="100" rx="8" ry="8" enable-background="new" fill="#6acfec" style="paint-order:normal"/><path id="df" d="m8 0c-4.432 0-8 3.568-8 8v42h52v-50z" enable-background="new" fill="#00aade" style="paint-order:normal"/><path id="dg" d="m52 0v50h52v-42c0-4.432-3.568-8-8-8z" enable-background="new" fill="#d2d8dc" style="paint-order:normal"/><path id="dh" d="m52 100v-50h-52v42c0 4.432 3.568 8 8 8z" enable-background="new" fill="#bcc5ca" style="paint-order:normal"/><g id="di" transform="matrix(1.5 0 0 1.5 -258.5 -783.51)" enable-background="new"><rect id="dj" x="183" y="529" width="16" height="16" color="#bebebe" enable-background="new" fill="none"/><path id="dk" d="m191 533.85v10.38l-2.344-2.2882-1.3394 2.7346c-0.32808 0.73962-2.0337 0.14492-1.5487-0.84412l1.3255-2.8393h-2.9579z" color="#000000" display="block" enable-background="accumulate" fill="#003445" fill-rule="nonzero"/><path id="dl" d="m190.16 530.06c-3.8266 0.46006-6.5788 3.9578-6.0938 7.7812 0.13127 1.0347 0.29377 1.3818 0.29377 1.3818l1.675-1.6318c-0.33104-2.7534 1.6216-5.2315 4.375-5.5625s5.2315 1.6216 5.5625 4.375c0.31355 2.608-1.3913 5.0249-3.9688 5.5312l0.0312 2s0.52086-0.1059 0.62354-0.13097c3.4156-0.83385 5.7063-4.1273 5.2827-7.6503-0.46006-3.8266-3.9547-6.5538-7.7812-6.0938z" color="#000000" enable-background="accumulate" fill="#003445" style="text-decoration-line:none;text-indent:0;text-transform:none"/><path id="dm" d="m187.11 536.81v-0.20574l-0.19826 0.0186c0.0165-0.13095 0.0329-0.26167 0.0496-0.3926h-0.11578l-0.11556 0.14959-0.11578 0.0559-0.1653-0.0932-0.0165-0.20575 0.0331-0.22438 0.24798-0.18688h0.19826l0.0329-0.11229 0.24786 0.0559 0.18183 0.2246 0.0331-0.37419 0.31401-0.26167 0.11567-0.28055 0.23133-0.0934 0.1322-0.18688 0.29738-0.0564 0.14885-0.22415h-0.44623l0.28094-0.13095h0.19814l0.28106-0.0937 0.0331-0.11186-0.0992-0.0937-0.11567-0.0375 0.0331-0.11208-0.0826-0.16822-0.19837 0.0746 0.0331-0.14947-0.23134-0.13096-0.18171 0.3177 0.0165 0.11229-0.18171 0.075-0.11578 0.24302-0.0495-0.22438-0.31402-0.13095-0.0496-0.16822 0.41315-0.24325 0.18182-0.16822 0.0165-0.20563-0.0991-0.0562-0.13219-0.0188-0.0826 0.20575s-0.1382 0.0271-0.17373 0.0358c-0.45378 0.41804-1.3707 1.3204-1.5837 3.024 8e-3 0.0395 0.15441 0.26854 0.15441 0.26854l0.347 0.20552 0.347 0.0937m3.9661-4.3003-0.4298-0.16833-0.49552 0.0561-0.61161 0.16822-0.11567 0.11229 0.38008 0.26167v0.14959l-0.14875 0.14959 0.19846 0.39294 0.13188-0.075 0.16561-0.26168c0.2553-0.0789 0.4842-0.16833 0.72686-0.28053l0.19846-0.5048m2.5292 0.34192-0.375 0.0937-0.21875 0.15625v0.125l-0.375 0.25 0.0937 0.34375 0.21875-0.15625 0.125 0.15625 0.15625 0.0937 0.0937-0.28125-0.0625-0.15625 0.0625-0.0937 0.21875-0.1875h0.0937l-0.0937 0.21875v0.1875c0.0892-0.0242 0.1588-0.051 0.25-0.0625l-0.25 0.1875v0.125l-0.3125 0.21875-0.28125-0.0625v-0.15625l-0.125 0.0625 0.0625 0.15625h-0.21875l-0.125 0.21875-0.15625 0.15625-0.0937 0.0312v0.1875l0.0312 0.15625h-0.0312v0.53125l0.0625-0.0312 0.0937-0.21875 0.1875-0.125 0.0312-0.0937 0.28125-0.0625 0.15625 0.1875 0.1875 0.0937-0.0937 0.1875 0.15625-0.0312 0.0625-0.21875-0.1875-0.21875h0.0625l0.21875 0.15625 0.0312 0.21875 0.15625 0.21875 0.0625-0.3125 0.0937-0.0312c0.0959 0.0996 0.1692 0.23163 0.25 0.34375h0.28125l0.1875 0.125-0.0937 0.0937-0.15625 0.15625h-0.25l-0.34375-0.0937h-0.1875l-0.125 0.15625-0.34375-0.375-0.25-0.0625-0.375 0.0625-0.15625 0.0937v2.4062l0.0312 0.0312 0.25-0.15625 0.0937 0.0937h0.28125l0.125 0.15625-0.0937 0.3125 0.1875 0.1875v0.375l0.125 0.25-0.0937 0.25c-9e-3 0.16159 0 0.30714 0 0.46875 0.0795 0.21894 0.14355 0.43575 0.21875 0.65625l0.0625 0.34375v0.1875h0.125l0.21875-0.125h0.25l0.375-0.4375-0.0312-0.15625 0.25-0.21875-0.1875-0.1875 0.21875-0.1875 0.21875-0.125 0.0937-0.125-0.0625-0.25v-0.59375l0.1875-0.375 0.1875-0.25 0.25-0.5625v-0.15625c-0.11654 0.0146-0.22972 0.0231-0.34375 0.0312-0.0722 5e-3 -0.14446 0-0.21875 0-0.12359-0.25961-0.2183-0.50966-0.3125-0.78125l-0.15625-0.1875-0.0937-0.3125 0.0625-0.0625 0.21875 0.25 0.25 0.5625 0.15625 0.15625-0.0625 0.21875 0.15625 0.15625 0.25-0.25 0.3125-0.21875 0.15625-0.1875v-0.21875c-0.0389-0.0732-0.0547-0.14545-0.0937-0.21875l-0.15625 0.1875-0.125-0.15625-0.1875-0.125v-0.28125l0.21875 0.21875 0.21875-0.0312c0.10166 0.0923 0.19205 0.20751 0.28125 0.3125l0.15625-0.1875c0-0.17463-0.19976-1.0204-0.625-1.75-0.42526-0.72932-1.1562-1.4062-1.1562-1.4062l-0.0625 0.0937-0.21875 0.21875-0.25-0.25h0.25l0.125-0.125-0.46875-0.0937-0.25-0.0937z" color="#000000" enable-background="accumulate" fill="#2e3436" fill-rule="nonzero" opacity=".3"/></g><g id="dn" transform="matrix(1.5 0 0 1.5 -115 -535)" enable-background="new"><rect id="do" x="122" y="398" width="16" height="16" rx="0" ry="0" fill="none"/><path id="dp" transform="translate(-80,17)" d="m205.19 381c-1.2051 0-2.1875 1.018-2.1875 2.2188v11.562c0 1.2008 0.98238 2.2188 2.1875 2.2188h9.625c1.2051 0 2.1875-1.018 2.1875-2.2188v-11.562c0-1.2008-0.98238-2.2188-2.1875-2.2188zm-0.1875 3h10v11h-10zm1 1v4h8.0312v-4zm2.3438 1.4375a0.50005 0.50005 0 0 1 0.0625 0 0.50005 0.50005 0 0 1 0.59375 0.5v0.0625h2v-0.0625a0.50005 0.50005 0 1 1 1 0v0.0625c0 0.54535-0.45465 1-1 1h-2c-0.54535 0-1-0.45465-1-1v-0.0625a0.50005 0.50005 0 0 1 0.34375-0.5zm-2.3125 3.5625v4h8.0312v-4zm2.3125 1.4375a0.50005 0.50005 0 0 1 0.0625 0 0.50005 0.50005 0 0 1 0.59375 0.5v0.0625h2v-0.0625a0.50005 0.50005 0 1 1 1 0v0.0625c0 0.54535-0.45465 1-1 1h-2c-0.54535 0-1-0.45465-1-1v-0.0625a0.50005 0.50005 0 0 1 0.34375-0.5z" color="#000000" enable-background="accumulate" fill="#003445" fill-rule="evenodd"/></g><g id="dq" transform="matrix(1.5 0 0 1.5 -169 -535)" enable-background="new"><path id="dr" d="m124.2 399h11.602c0.66417 0 1.1989 0.53934 1.1989 1.2093v10.581c0 0.66994-0.53471 1.2093-1.1989 1.2093h-11.602c-0.66417 0-1.1989-0.53933-1.1989-1.2093v-10.581c0-0.66994 0.5347-1.2093 1.1989-1.2093z" color="#bebebe" fill="none" stroke="#003445" stroke-miterlimit="4" stroke-width="2"/><rect id="ds" x="122" y="398" width="16" height="16" rx="0" ry="0" fill="none"/><path id="dt" d="m126.5 408.5 2-2-2-2" color="#bebebe" fill="none" stroke="#003445" stroke-linecap="round" stroke-linejoin="round" stroke-miterlimit="4" stroke-width="1.2"/><rect id="du" x="130" y="408" width="3" height="1" color="#bebebe" enable-background="accumulate" fill="#2e3436" fill-rule="nonzero" stroke="#003445" stroke-width="1"/></g><path id="dv" d="m54.001 19.968c2.1344 0 9.0155 17.169 10.742 18.422 1.7268 1.2531 20.201 2.4844 20.86 4.5119 0.6595 2.0276-13.562 13.87-14.221 15.897-0.65955 2.0276 3.8768 19.957 2.1501 21.21-1.7267 1.2532-17.397-8.5968-19.531-8.5968-2.1344 0-17.805 9.8499-19.531 8.5968-1.7267-1.2531 2.8096-19.183 2.1501-21.21-0.6596-2.0275-14.881-13.87-14.221-15.897 0.65955-2.0275 19.133-3.2588 20.86-4.5119 1.7268-1.2531 8.6079-18.422 10.742-18.422z" enable-background="new" fill="#f9da02" fill-rule="nonzero" stroke="#dcb102" stroke-linejoin="round" stroke-miterlimit="4" stroke-width="6"/><rect id="dw" x="1.9727e-5" y="4.002" width="104" height="100" rx="8" ry="8" enable-background="new" fill="#758087" style="paint-order:normal"/><rect id="dx" x="1.9727e-5" y=".0016285" width="104" height="100" rx="8" ry="8" enable-background="new" fill="#6acfec" style="paint-order:normal"/><path id="dy" d="m8 0c-4.432 0-8 3.568-8 8v42h52v-50z" enable-background="new" fill="#00aade" style="paint-order:normal"/><path id="dz" d="m52 0v50h52v-42c0-4.432-3.568-8-8-8z" enable-background="new" fill="#d2d8dc" style="paint-order:normal"/><path id="ea" d="m52 100v-50h-52v42c0 4.432 3.568 8 8 8z" enable-background="new" fill="#bcc5ca" style="paint-order:normal"/><g id="eb" transform="matrix(1.5 0 0 1.5 -258.5 -783.51)" enable-background="new"><rect id="ec" x="183" y="529" width="16" height="16" color="#bebebe" enable-background="new" fill="none"/><path id="ed" d="m191 533.85v10.38l-2.344-2.2882-1.3394 2.7346c-0.32808 0.73962-2.0337 0.14492-1.5487-0.84412l1.3255-2.8393h-2.9579z" color="#000000" display="block" enable-background="accumulate" fill="#003445" fill-rule="nonzero"/><path id="ee" d="m190.16 530.06c-3.8266 0.46006-6.5788 3.9578-6.0938 7.7812 0.13127 1.0347 0.29377 1.3818 0.29377 1.3818l1.675-1.6318c-0.33104-2.7534 1.6216-5.2315 4.375-5.5625s5.2315 1.6216 5.5625 4.375c0.31355 2.608-1.3913 5.0249-3.9688 5.5312l0.0312 2s0.52086-0.1059 0.62354-0.13097c3.4156-0.83385 5.7063-4.1273 5.2827-7.6503-0.46006-3.8266-3.9547-6.5538-7.7812-6.0938z" color="#000000" enable-background="accumulate" fill="#003445" style="text-decoration-line:none;text-indent:0;text-transform:none"/><path id="ef" d="m187.11 536.81v-0.20574l-0.19826 0.0186c0.0165-0.13095 0.0329-0.26167 0.0496-0.3926h-0.11578l-0.11556 0.14959-0.11578 0.0559-0.1653-0.0932-0.0165-0.20575 0.0331-0.22438 0.24798-0.18688h0.19826l0.0329-0.11229 0.24786 0.0559 0.18183 0.2246 0.0331-0.37419 0.31401-0.26167 0.11567-0.28055 0.23133-0.0934 0.1322-0.18688 0.29738-0.0564 0.14885-0.22415h-0.44623l0.28094-0.13095h0.19814l0.28106-0.0937 0.0331-0.11186-0.0992-0.0937-0.11567-0.0375 0.0331-0.11208-0.0826-0.16822-0.19837 0.0746 0.0331-0.14947-0.23134-0.13096-0.18171 0.3177 0.0165 0.11229-0.18171 0.075-0.11578 0.24302-0.0495-0.22438-0.31402-0.13095-0.0496-0.16822 0.41315-0.24325 0.18182-0.16822 0.0165-0.20563-0.0991-0.0562-0.13219-0.0188-0.0826 0.20575s-0.1382 0.0271-0.17373 0.0358c-0.45378 0.41804-1.3707 1.3204-1.5837 3.024 8e-3 0.0395 0.15441 0.26854 0.15441 0.26854l0.347 0.20552 0.347 0.0937m3.9661-4.3003-0.4298-0.16833-0.49552 0.0561-0.61161 0.16822-0.11567 0.11229 0.38008 0.26167v0.14959l-0.14875 0.14959 0.19846 0.39294 0.13188-0.075 0.16561-0.26168c0.2553-0.0789 0.4842-0.16833 0.72686-0.28053l0.19846-0.5048m2.5292 0.34192-0.375 0.0937-0.21875 0.15625v0.125l-0.375 0.25 0.0937 0.34375 0.21875-0.15625 0.125 0.15625 0.15625 0.0937 0.0937-0.28125-0.0625-0.15625 0.0625-0.0937 0.21875-0.1875h0.0937l-0.0937 0.21875v0.1875c0.0892-0.0242 0.1588-0.051 0.25-0.0625l-0.25 0.1875v0.125l-0.3125 0.21875-0.28125-0.0625v-0.15625l-0.125 0.0625 0.0625 0.15625h-0.21875l-0.125 0.21875-0.15625 0.15625-0.0937 0.0312v0.1875l0.0312 0.15625h-0.0312v0.53125l0.0625-0.0312 0.0937-0.21875 0.1875-0.125 0.0312-0.0937 0.28125-0.0625 0.15625 0.1875 0.1875 0.0937-0.0937 0.1875 0.15625-0.0312 0.0625-0.21875-0.1875-0.21875h0.0625l0.21875 0.15625 0.0312 0.21875 0.15625 0.21875 0.0625-0.3125 0.0937-0.0312c0.0959 0.0996 0.1692 0.23163 0.25 0.34375h0.28125l0.1875 0.125-0.0937 0.0937-0.15625 0.15625h-0.25l-0.34375-0.0937h-0.1875l-0.125 0.15625-0.34375-0.375-0.25-0.0625-0.375 0.0625-0.15625 0.0937v2.4062l0.0312 0.0312 0.25-0.15625 0.0937 0.0937h0.28125l0.125 0.15625-0.0937 0.3125 0.1875 0.1875v0.375l0.125 0.25-0.0937 0.25c-9e-3 0.16159 0 0.30714 0 0.46875 0.0795 0.21894 0.14355 0.43575 0.21875 0.65625l0.0625 0.34375v0.1875h0.125l0.21875-0.125h0.25l0.375-0.4375-0.0312-0.15625 0.25-0.21875-0.1875-0.1875 0.21875-0.1875 0.21875-0.125 0.0937-0.125-0.0625-0.25v-0.59375l0.1875-0.375 0.1875-0.25 0.25-0.5625v-0.15625c-0.11654 0.0146-0.22972 0.0231-0.34375 0.0312-0.0722 5e-3 -0.14446 0-0.21875 0-0.12359-0.25961-0.2183-0.50966-0.3125-0.78125l-0.15625-0.1875-0.0937-0.3125 0.0625-0.0625 0.21875 0.25 0.25 0.5625 0.15625 0.15625-0.0625 0.21875 0.15625 0.15625 0.25-0.25 0.3125-0.21875 0.15625-0.1875v-0.21875c-0.0389-0.0732-0.0547-0.14545-0.0937-0.21875l-0.15625 0.1875-0.125-0.15625-0.1875-0.125v-0.28125l0.21875 0.21875 0.21875-0.0312c0.10166 0.0923 0.19205 0.20751 0.28125 0.3125l0.15625-0.1875c0-0.17463-0.19976-1.0204-0.625-1.75-0.42526-0.72932-1.1562-1.4062-1.1562-1.4062l-0.0625 0.0937-0.21875 0.21875-0.25-0.25h0.25l0.125-0.125-0.46875-0.0937-0.25-0.0937z" color="#000000" enable-background="accumulate" fill="#2e3436" fill-rule="nonzero" opacity=".3"/></g><g id="eg" transform="matrix(1.5 0 0 1.5 -115 -535)" enable-background="new"><rect id="eh" x="122" y="398" width="16" height="16" rx="0" ry="0" fill="none"/><path id="ei" transform="translate(-80,17)" d="m205.19 381c-1.2051 0-2.1875 1.018-2.1875 2.2188v11.562c0 1.2008 0.98238 2.2188 2.1875 2.2188h9.625c1.2051 0 2.1875-1.018 2.1875-2.2188v-11.562c0-1.2008-0.98238-2.2188-2.1875-2.2188zm-0.1875 3h10v11h-10zm1 1v4h8.0312v-4zm2.3438 1.4375a0.50005 0.50005 0 0 1 0.0625 0 0.50005 0.50005 0 0 1 0.59375 0.5v0.0625h2v-0.0625a0.50005 0.50005 0 1 1 1 0v0.0625c0 0.54535-0.45465 1-1 1h-2c-0.54535 0-1-0.45465-1-1v-0.0625a0.50005 0.50005 0 0 1 0.34375-0.5zm-2.3125 3.5625v4h8.0312v-4zm2.3125 1.4375a0.50005 0.50005 0 0 1 0.0625 0 0.50005 0.50005 0 0 1 0.59375 0.5v0.0625h2v-0.0625a0.50005 0.50005 0 1 1 1 0v0.0625c0 0.54535-0.45465 1-1 1h-2c-0.54535 0-1-0.45465-1-1v-0.0625a0.50005 0.50005 0 0 1 0.34375-0.5z" color="#000000" enable-background="accumulate" fill="#003445" fill-rule="evenodd"/></g><g id="ej" transform="matrix(1.5 0 0 1.5 -169 -535)" enable-background="new"><path id="ek" d="m124.2 399h11.602c0.66417 0 1.1989 0.53934 1.1989 1.2093v10.581c0 0.66994-0.53471 1.2093-1.1989 1.2093h-11.602c-0.66417 0-1.1989-0.53933-1.1989-1.2093v-10.581c0-0.66994 0.5347-1.2093 1.1989-1.2093z" color="#bebebe" fill="none" stroke="#003445" stroke-miterlimit="4" stroke-width="2"/><rect id="el" x="122" y="398" width="16" height="16" rx="0" ry="0" fill="none"/><path id="em" d="m126.5 408.5 2-2-2-2" color="#bebebe" fill="none" stroke="#003445" stroke-linecap="round" stroke-linejoin="round" stroke-miterlimit="4" stroke-width="1.2"/><rect id="en" x="130" y="408" width="3" height="1" color="#bebebe" enable-background="accumulate" fill="#2e3436" fill-rule="nonzero" stroke="#003445" stroke-width="1"/></g><path id="eo" d="m54.001 19.968c2.1344 0 9.0155 17.169 10.742 18.422 1.7268 1.2531 20.201 2.4844 20.86 4.5119 0.6595 2.0276-13.562 13.87-14.221 15.897-0.65955 2.0276 3.8768 19.957 2.1501 21.21-1.7267 1.2532-17.397-8.5968-19.531-8.5968-2.1344 0-17.805 9.8499-19.531 8.5968-1.7267-1.2531 2.8096-19.183 2.1501-21.21-0.6596-2.0275-14.881-13.87-14.221-15.897 0.65955-2.0275 19.133-3.2588 20.86-4.5119 1.7268-1.2531 8.6079-18.422 10.742-18.422z" enable-background="new" fill="#f9da02" fill-rule="nonzero" stroke="#dcb102" stroke-linejoin="round" stroke-miterlimit="4" stroke-width="6"/><rect id="ep" x="437.71" y="323.4" width="20.8" height="20" rx="1.6" ry="1.6" enable-background="new" fill="#758087" style="paint-order:normal"/><rect id="eq" x="437.71" y="322.6" width="20.8" height="20" rx="1.6" ry="1.6" enable-background="new" fill="#6acfec" style="paint-order:normal"/><path id="er" d="m439.31 322.6c-0.8864 0-1.6 0.7136-1.6 1.6v8.4h10.4v-10z" enable-background="new" fill="#00aade" style="paint-order:normal"/><path id="es" d="m448.11 322.6v10h10.4v-8.4c0-0.8864-0.7136-1.6-1.6-1.6z" enable-background="new" fill="#d2d8dc" style="paint-order:normal"/><path id="et" d="m448.11 342.6v-10h-10.4v8.4c0 0.88639 0.7136 1.6 1.6 1.6z" enable-background="new" fill="#bcc5ca" style="paint-order:normal"/><g id="eu" transform="matrix(.3 0 0 .3 386.01 165.9)" enable-background="new"><rect id="ev" x="183" y="529" width="16" height="16" color="#bebebe" enable-background="new" fill="none"/><path id="ew" d="m191 533.85v10.38l-2.344-2.2882-1.3394 2.7346c-0.32808 0.73962-2.0337 0.14492-1.5487-0.84412l1.3255-2.8393h-2.9579z" color="#000000" display="block" enable-background="accumulate" fill="#003445" fill-rule="nonzero"/><path id="ex" d="m190.16 530.06c-3.8266 0.46006-6.5788 3.9578-6.0938 7.7812 0.13127 1.0347 0.29377 1.3818 0.29377 1.3818l1.675-1.6318c-0.33104-2.7534 1.6216-5.2315 4.375-5.5625s5.2315 1.6216 5.5625 4.375c0.31355 2.608-1.3913 5.0249-3.9688 5.5312l0.0312 2s0.52086-0.1059 0.62354-0.13097c3.4156-0.83385 5.7063-4.1273 5.2827-7.6503-0.46006-3.8266-3.9547-6.5538-7.7812-6.0938z" color="#000000" enable-background="accumulate" fill="#003445" style="text-decoration-line:none;text-indent:0;text-transform:none"/><path id="ey" d="m187.11 536.81v-0.20574l-0.19826 0.0186c0.0165-0.13095 0.0329-0.26167 0.0496-0.3926h-0.11578l-0.11556 0.14959-0.11578 0.0559-0.1653-0.0932-0.0165-0.20575 0.0331-0.22438 0.24798-0.18688h0.19826l0.0329-0.11229 0.24786 0.0559 0.18183 0.2246 0.0331-0.37419 0.31401-0.26167 0.11567-0.28055 0.23133-0.0934 0.1322-0.18688 0.29738-0.0564 0.14885-0.22415h-0.44623l0.28094-0.13095h0.19814l0.28106-0.0937 0.0331-0.11186-0.0992-0.0937-0.11567-0.0375 0.0331-0.11208-0.0826-0.16822-0.19837 0.0746 0.0331-0.14947-0.23134-0.13096-0.18171 0.3177 0.0165 0.11229-0.18171 0.075-0.11578 0.24302-0.0495-0.22438-0.31402-0.13095-0.0496-0.16822 0.41315-0.24325 0.18182-0.16822 0.0165-0.20563-0.0991-0.0562-0.13219-0.0188-0.0826 0.20575s-0.1382 0.0271-0.17373 0.0358c-0.45378 0.41804-1.3707 1.3204-1.5837 3.024 8e-3 0.0395 0.15441 0.26854 0.15441 0.26854l0.347 0.20552 0.347 0.0937m3.9661-4.3003-0.4298-0.16833-0.49552 0.0561-0.61161 0.16822-0.11567 0.11229 0.38008 0.26167v0.14959l-0.14875 0.14959 0.19846 0.39294 0.13188-0.075 0.16561-0.26168c0.2553-0.0789 0.4842-0.16833 0.72686-0.28053l0.19846-0.5048m2.5292 0.34192-0.375 0.0937-0.21875 0.15625v0.125l-0.375 0.25 0.0937 0.34375 0.21875-0.15625 0.125 0.15625 0.15625 0.0937 0.0937-0.28125-0.0625-0.15625 0.0625-0.0937 0.21875-0.1875h0.0937l-0.0937 0.21875v0.1875c0.0892-0.0242 0.1588-0.051 0.25-0.0625l-0.25 0.1875v0.125l-0.3125 0.21875-0.28125-0.0625v-0.15625l-0.125 0.0625 0.0625 0.15625h-0.21875l-0.125 0.21875-0.15625 0.15625-0.0937 0.0312v0.1875l0.0312 0.15625h-0.0312v0.53125l0.0625-0.0312 0.0937-0.21875 0.1875-0.125 0.0312-0.0937 0.28125-0.0625 0.15625 0.1875 0.1875 0.0937-0.0937 0.1875 0.15625-0.0312 0.0625-0.21875-0.1875-0.21875h0.0625l0.21875 0.15625 0.0312 0.21875 0.15625 0.21875 0.0625-0.3125 0.0937-0.0312c0.0959 0.0996 0.1692 0.23163 0.25 0.34375h0.28125l0.1875 0.125-0.0937 0.0937-0.15625 0.15625h-0.25l-0.34375-0.0937h-0.1875l-0.125 0.15625-0.34375-0.375-0.25-0.0625-0.375 0.0625-0.15625 0.0937v2.4062l0.0312 0.0312 0.25-0.15625 0.0937 0.0937h0.28125l0.125 0.15625-0.0937 0.3125 0.1875 0.1875v0.375l0.125 0.25-0.0937 0.25c-9e-3 0.16159 0 0.30714 0 0.46875 0.0795 0.21894 0.14355 0.43575 0.21875 0.65625l0.0625 0.34375v0.1875h0.125l0.21875-0.125h0.25l0.375-0.4375-0.0312-0.15625 0.25-0.21875-0.1875-0.1875 0.21875-0.1875 0.21875-0.125 0.0937-0.125-0.0625-0.25v-0.59375l0.1875-0.375 0.1875-0.25 0.25-0.5625v-0.15625c-0.11654 0.0146-0.22972 0.0231-0.34375 0.0312-0.0722 5e-3 -0.14446 0-0.21875 0-0.12359-0.25961-0.2183-0.50966-0.3125-0.78125l-0.15625-0.1875-0.0937-0.3125 0.0625-0.0625 0.21875 0.25 0.25 0.5625 0.15625 0.15625-0.0625 0.21875 0.15625 0.15625 0.25-0.25 0.3125-0.21875 0.15625-0.1875v-0.21875c-0.0389-0.0732-0.0547-0.14545-0.0937-0.21875l-0.15625 0.1875-0.125-0.15625-0.1875-0.125v-0.28125l0.21875 0.21875 0.21875-0.0312c0.10166 0.0923 0.19205 0.20751 0.28125 0.3125l0.15625-0.1875c0-0.17463-0.19976-1.0204-0.625-1.75-0.42526-0.72932-1.1562-1.4062-1.1562-1.4062l-0.0625 0.0937-0.21875 0.21875-0.25-0.25h0.25l0.125-0.125-0.46875-0.0937-0.25-0.0937z" color="#000000" enable-background="accumulate" fill="#2e3436" fill-rule="nonzero" opacity=".3"/></g><path id="ez" d="m453.61 325.2a2.4021 2.4021 0 0 0-1.923 1.1086 2.4027 2.4027 0 0 0 0.2209 2.8723 2.4018 2.4018 0 0 0 2.819 0.59121 0.30002 0.30002 0 1 0-0.25372-0.54375 1.7979 1.7979 0 0 1-2.1146-0.44356 1.797 1.797 0 0 1-0.16524-2.1539 1.797 1.797 0 0 1 2.0215-0.76113 1.7973 1.7973 0 0 1 1.2967 1.7279 0.3 0.3 0 0 0 0 0.0123v0.2877c0 0.1077-0.0567 0.20587-0.15 0.25957-0.093 0.054-0.2067 0.054-0.3 0a0.2985 0.2985 0 0 1-0.15-0.25957v-0.3c0-0.6591-0.5409-1.2-1.2-1.2-0.6591 0-1.2 0.5409-1.2 1.2s0.5409 1.2 1.2 1.2c0.31306 0 0.59709-0.12467 0.81152-0.32344 0.0666 0.0796 0.14598 0.14935 0.23847 0.20273a0.9012 0.9012 0 0 0 0.9 0 0.9009 0.9009 0 0 0 0.45-0.77929v-0.3a2.4024 2.4024 0 0 0-1.7285-2.3045 2.3949 2.3949 0 0 0-0.77285-0.0932zm0.10137 1.7977c0.3351 0 0.59999 0.2652 0.59999 0.6s-0.26489 0.6-0.59999 0.6c-0.3348 0-0.6-0.2652-0.6-0.6s0.2652-0.6 0.6-0.6z" color="#000000" enable-background="new" fill="#003445" solid-color="#000000" style="font-feature-settings:normal;font-variant-alternates:normal;font-variant-caps:normal;font-variant-ligatures:normal;font-variant-numeric:normal;font-variant-position:normal;isolation:auto;mix-blend-mode:normal;shape-padding:0;text-decoration-color:#000000;text-decoration-line:none;text-decoration-style:solid;text-indent:0;text-orientation:mixed;text-transform:none;white-space:normal"/><g id="fa" transform="matrix(.3 0 0 .3 414.71 215.6)" enable-background="new"><rect id="fb" x="122" y="398" width="16" height="16" rx="0" ry="0" fill="none"/><path id="fc" transform="translate(-80,17)" d="m205.19 381c-1.2051 0-2.1875 1.018-2.1875 2.2188v11.562c0 1.2008 0.98238 2.2188 2.1875 2.2188h9.625c1.2051 0 2.1875-1.018 2.1875-2.2188v-11.562c0-1.2008-0.98238-2.2188-2.1875-2.2188zm-0.1875 3h10v11h-10zm1 1v4h8.0312v-4zm2.3438 1.4375a0.50005 0.50005 0 0 1 0.0625 0 0.50005 0.50005 0 0 1 0.59375 0.5v0.0625h2v-0.0625a0.50005 0.50005 0 1 1 1 0v0.0625c0 0.54535-0.45465 1-1 1h-2c-0.54535 0-1-0.45465-1-1v-0.0625a0.50005 0.50005 0 0 1 0.34375-0.5zm-2.3125 3.5625v4h8.0312v-4zm2.3125 1.4375a0.50005 0.50005 0 0 1 0.0625 0 0.50005 0.50005 0 0 1 0.59375 0.5v0.0625h2v-0.0625a0.50005 0.50005 0 1 1 1 0v0.0625c0 0.54535-0.45465 1-1 1h-2c-0.54535 0-1-0.45465-1-1v-0.0625a0.50005 0.50005 0 0 1 0.34375-0.5z" color="#000000" enable-background="accumulate" fill="#003445" fill-rule="evenodd"/></g><g id="fd" transform="matrix(.3 0 0 .3 403.91 215.6)" enable-background="new"><path id="fe" d="m124.2 399h11.602c0.66417 0 1.1989 0.53934 1.1989 1.2093v10.581c0 0.66994-0.53471 1.2093-1.1989 1.2093h-11.602c-0.66417 0-1.1989-0.53933-1.1989-1.2093v-10.581c0-0.66994 0.5347-1.2093 1.1989-1.2093z" color="#bebebe" fill="none" stroke="#003445" stroke-miterlimit="4" stroke-width="2"/><rect id="ff" x="122" y="398" width="16" height="16" rx="0" ry="0" fill="none"/><path id="fg" d="m126.5 408.5 2-2-2-2" color="#bebebe" fill="none" stroke="#003445" stroke-linecap="round" stroke-linejoin="round" stroke-miterlimit="4" stroke-width="1.2"/><rect id="fh" x="130" y="408" width="3" height="1" color="#bebebe" enable-background="accumulate" fill="#2e3436" fill-rule="nonzero" stroke="#003445" stroke-width="1"/></g><rect id="fi" transform="rotate(-45)" x="25.937" y="593.25" width=".59998" height="1.6" rx=".19997" ry=".19999" enable-background="new" fill="#263742" style="paint-order:normal"/><rect id="fj" transform="rotate(-45)" x="25.937" y="593.25" width=".59998" height=".4" rx=".19998" ry=".2" fill="#dcb102" style="paint-order:normal"/><path id="fk" transform="matrix(.7071 -.70711 .7071 .70711 0 0)" d="m27.346 592.21a1.1006 1.1006 0 0 1-1.096 1.1006 1.1006 1.1006 0 0 1-1.1052-1.0914 1.1006 1.1006 0 0 1 1.0867-1.1098 1.1006 1.1006 0 0 1 1.1143 1.082" color="#000000" enable-background="new" fill="#6acfec" stroke="#003445" stroke-linecap="round" stroke-linejoin="round" stroke-miterlimit="4" stroke-width=".20003"/></g></g></svg>
