<?xml version="1.0" encoding="UTF-8"?>
<svg id="a" version="1.0" viewBox="0 0 256 256" xmlns="http://www.w3.org/2000/svg"><g id="b" transform="translate(-257.52 -275.48)"><g id="c" transform="matrix(.67328 0 0 .67328 137.17 130.4)" fill-rule="evenodd"><path id="d" d="m419.42 308.13c19.246 15.84 26.51 32.58 26.86 32.075 5.9081-2.0787 23.616 0.9142 36.19 2.8979 25.405 4.0078 59.338 26.682 58.961 57.068-3.3922 21.884-19.062 39.891-35.501 53.776-49.423 38.259-111.79 57.071-173.1 64.048-31.098 3.5384-63.003 1.4167-93.269-6.3902-34.755-9.2316-41.093-13.856-49.04-33.885-10.258-24.432 5.855-49.353 24.348-64.955 13.283-11.584 28.985-21.991 46.486-31.283 1.0726-11.792-2.5401-30.771 14.083-53.548 16.75-22.615 29.46-43.176 55.311-56.163 6.521-2.1985 15.778-3.6589 23.396-2.5222 22.462 11.809 47.088 23.492 65.278 38.883z" fill="#664c29" stroke-width="1.8927"/><path id="e" d="m260.75 401.98c-6.4455 9.0138 1.5386 21.98 0.9617 32.025 1.8797 11.734 16.895 19.168 38.574 23.763 22.546 4.7817 87.908-10.26 101.55-14.831 13.644-4.5647 38.161-18.507 47.45-28.772 8.8359-9.7578 9.4156-10.875 14.098-19.692 0.65827-7.6743-2.3621-24.536-8.9188-31.409-2.1275 11.788-1.649 8.1624-4.3863 13.261-2.1538 10.691-10.669 18.152-19.023 24.325-29.038 21.785-64.614 34.583-100.89 36.258-19.4 0.86973-40.366 0.21335-57.249-10.533-8.417-5.4204-9.8026-15.104-12.171-24.396z" fill="#4e2a0f" stroke-width="1.8927"/><path id="f" d="m471.19 341.2c194.66 50.928-80.339 227.25-262.09 160.14 198.98 83.202 482.8-129.86 262.09-160.14zm-17.339 18.176c7.4677-0.31997 16.335-1.7495 30.323 0.66762 11.581 10.736 50.852 23.609 52.501 35.111 2.0174 14.092-58.105 33.054-105.41 55.247-55.554 12.298-126.18 14.82-151.66 1.0154-1.207-0.65369 41.831-30.717 42.573-76.969 0.79386-49.258 18.631-81.517 19.793-99.296 31.436-2.4954 97.668 32.593 111.88 84.224zm-127.95-72.754c-14.768 2.9218-49.338 39.095-57.115 68.279 12.841 17.158 21.841-42.613 43.307-34.063 5.5395 2.2063 7.8265-21.962 13.807-34.216z" fill="#000" opacity=".25" stroke-width="1.8927"/><path id="g" d="m343.88 363.29c-0.50417-30.47-0.0905-66.891 9.3699-73.152 6.7431-4.4602 48.122 18.735 67.872 38.564 8.8639-2.9168-52.951-51.028-69.085-42.588-14.462 7.5636-13.923 72.311-8.8593 76.396z" fill="#000" opacity=".25" stroke="#000" stroke-width=".14957px"/><path id="h" d="m326.01 290.82c6.0603-16.585-6.7459 52.774-12.704 76.369-0.63692 6.5785-8.4947 11.452-12.877 6.2028-4.5999-5.5017 7.0102-5.6218 9.3943-12.88 5.5653-16.934 12.01-64.536 16.186-69.692zm8.0539-18.749c-16.277 6.7315-51.63 41.536-67.334 75.574-4.328 11.99-3.876 39.958-4.2976 47.139-0.57901 10.01 1.6113 15.009 0.18963 17.831-3.1387 3.3227-3.4952 6.0071-2.6906 8.0931 0.80591 2.0916-4.1192-9.4536-1.1656-15.004 2.9467-5.5551 2.7324-2.2512 2.7324-2.2512s-0.74795-41.921 0.33367-46.716c7.2514-32.144 57.993-88.406 72.232-84.665zm-72.715 109.31c-98.099 52.953-72.643 92.716-66.447 107.22-22.308-55.827 30.706-85.597 66.447-107.22z" fill="#fff" opacity=".25" stroke-width="1.8927"/><path id="i" d="m319.37 294.33c-10.049-1.397-42.867 41.639-49.771 61.371 8.781-12.84 41.008-54.215 49.771-61.371zm29.966-9.6757c-2.9503 0.9655-13.298 31.062-12.451 58.682 1.3284 43.211 24.82 12.678 40.426-3.2862 6.5733-6.7251 38.804 0.29311 44.244-7.6778 10.764-15.773-53.619-54.869-72.218-47.716zm-87.088 125.42c21.804 54.55 184.57 18.383 191.99-47.719 7.0818 63.328-183.62 109.13-191.99 47.719z" fill="#000" opacity=".25" stroke-width="1.8927"/></g></g></svg>
