<?xml version="1.0" encoding="UTF-8"?>
<svg width="44.414mm" height="44.414mm" viewBox="0 0 12.7 12.7" xmlns="http://www.w3.org/2000/svg" xmlns:xlink="http://www.w3.org/1999/xlink"><defs><path id="f" d="m2.3611 3.7465 0.0010335 0.23823h5.168e-4c-9.93e-5 0.097607 0.05165 0.18792 0.13591 0.23719l6.2342 3.5993 1.8505-1.0682c0.051937-0.030729 0.077244-0.083726 0.076998-0.13694l0.001034 5.168e-4 0.001033-0.26562a0.15846 0.15846 0 0 1-0.079065 0.13746l-0.078031 0.044958-1.4986 0.86506-0.27389 0.15813-6.2342-3.5993c-0.03717-0.022474-0.067404-0.053521-0.089917-0.0894a0.27445 0.27445 0 0 1-0.017053-0.034106c-0.010898-0.024313-0.019793-0.049456-0.023254-0.076481l-0.0072347-0.010852zm5.9428 4.0556-4.7863 2.7652c-0.037554 0.02022-0.07932 0.031366-0.12196 0.032556-0.012779 2.06e-4 -0.025558-4.51e-4 -0.038241-0.002067-0.030965-0.0029-0.0612-0.011158-0.0894-0.024288-0.011929-0.0049-0.023498-0.010563-0.034623-0.017053-0.036191-0.02247-0.06663-0.053081-0.088884-0.089401l-0.72089-1.2485-0.05116-0.088367c-0.021835-0.040998-0.032861-0.086883-0.032039-0.13333l-0.0041341-0.0031006 5.168e-4 0.26562c-7.05e-5 0.047461 0.012218 0.094123 0.035657 0.13539l0.77205 1.3369c0.075367 0.13069 0.24239 0.17556 0.3731 0.10025l4.7868-2.7637-5.168e-4 -0.26613z" fill="url(#a)" opacity=".6"/></defs><defs><linearGradient id="b"><stop stop-color="#da4453" offset="0"/><stop stop-color="#da4453" stop-opacity=".55844" offset="1"/></linearGradient><linearGradient id="d" x1="25" x2="25" y1="5.0001" y2="42.001" gradientTransform="translate(.00034252 -6.7e-6) scale(.26458)" gradientUnits="userSpaceOnUse"><stop stop-color="#34495e" offset="0"/><stop stop-color="#253545" offset="1"/></linearGradient><linearGradient id="h" x1="20.947" x2="11.301" y1="6.9205" y2="1.3517" gradientTransform="translate(-11.112 .00025058)" gradientUnits="userSpaceOnUse" xlink:href="#b"/><linearGradient id="e" x1="51.139" x2="78.2" y1="14.687" y2="42.093" gradientTransform="translate(-11.112 .26507) scale(.26458)" gradientUnits="userSpaceOnUse"><stop offset="0"/><stop stop-opacity="0" offset="1"/></linearGradient><linearGradient id="g" x1="52.426" x2="79.985" y1="37.034" y2="21.123" gradientTransform="translate(-11.112 .00025058) scale(.26458)" gradientUnits="userSpaceOnUse" xlink:href="#b"/><linearGradient id="a" x1="6.4993" x2="6.4993" y1="16.242" y2="-15.122" gradientUnits="userSpaceOnUse"><stop stop-color="#111920" offset="0"/><stop stop-color="#111920" stop-opacity="0" offset="1"/></linearGradient></defs><rect x="1.0583" y="1.0583" width="10.583" height="5.2917" rx="1.5875" ry="1.5875" fill="#587ca0" paint-order="stroke fill markers"/><rect x="1.0583" y="6.35" width="10.583" height="5.2913" rx="1.5875" ry="1.5875" fill="#0b1015" paint-order="stroke fill markers"/><rect x="1.0583" y="1.3229" width="10.583" height="10.054" rx="1.5875" ry="1.5875" fill="url(#d)" paint-order="stroke fill markers"/><path d="m2.424 4.158 2.934 2.9325 0.85561-0.22941 2.0908 1.2077-1.3059 0.75396-3.8076 1.9686 0.58605 0.58605 6.2767 3.13e-4c0.87948 4.3e-5 1.5874-0.70802 1.5875-1.5875l1.99e-4 -2.1917-1.0379-1.0392-1.8706 1.262z" fill="url(#e)" opacity=".2"/><use opacity=".6" xlink:href="#f"/><path d="m6.2136 6.5962-3.7409 2.1608a0.27334 0.27334 105 0 0-0.10001 0.37333l0.77169 1.3369a0.27324 0.27324 15.004 0 0 0.37326 0.10004l4.7868-2.7635z" fill="url(#g)"/><path d="M6.673 6.8613 2.4655 9.2906l.26458.45837 4.4721-2.5818Z" fill="#2c3e51" opacity=".2" paint-order="markers stroke fill"/><path transform="translate(-11.112 .00025) scale(.26458)" d="m66.371 25.442-1.1094.64213 1.002 1.7344 2.1073-1.2214zm-2.5781 1.4917-2.9453 1.6973 1 1.7402 2.9453-1.6973zm-4.4219 2.5469-2.9453 1.7051 1 1.7324 2.9473-1.6973zm-4.4141 2.5547-2.9453 1.6973 1 1.7324 2.9453-1.6973z" fill="#fff" style="font-feature-settings:normal;font-variant-alternates:normal;font-variant-caps:normal;font-variant-east-asian:normal;font-variant-ligatures:normal;font-variant-numeric:normal;font-variant-position:normal;font-variation-settings:normal;inline-size:0;isolation:auto;mix-blend-mode:normal;shape-margin:0;shape-padding:0;text-decoration-color:#000;text-decoration-line:none;text-decoration-style:solid;text-indent:0;text-orientation:mixed;text-transform:none;white-space:normal"/><path d="m3.1685 2.2482-0.77042 1.3343a0.27445 0.27445 74.999 0 0 0.10046 0.37492l6.2343 3.599 1.8505-1.0679a0.15846 0.15846 90.011 0 0 5.1e-5 -0.27447l-7.04-4.0662a0.27443 0.27443 165.01 0 0-0.37491 0.10042z" fill="url(#h)" style="font-feature-settings:normal;font-variant-alternates:normal;font-variant-caps:normal;font-variant-east-asian:normal;font-variant-ligatures:normal;font-variant-numeric:normal;font-variant-position:normal;font-variation-settings:normal;inline-size:0;isolation:auto;mix-blend-mode:normal;shape-margin:0;shape-padding:0;text-decoration-color:#000;text-decoration-line:none;text-decoration-style:solid;text-indent:0;text-orientation:mixed;text-transform:none;white-space:normal"/><path d="m3.0763 2.4079-.26458.45837 7.0223 4.0545.52917-.30541z" fill="#2c3e51" opacity=".2" paint-order="markers stroke fill"/><path transform="translate(-87.398 .27883)" d="m90.871 2.0977-.26458.45837.7793.44922.26458-.45642zm1.1699.67578-.26458.45642.77734.45117.26654-.45837zm1.168.67383-.26458.45837.7793.44922.26458-.45642zm1.168.67578-.26458.45642.7793.45117.26458-.45837zm1.1699.67383-.26654.45837.7793.44922.26458-.45642zm1.168.67578-.26458.45642.77734.45117.26654-.45837z" fill="#fff" style="font-feature-settings:normal;font-variant-alternates:normal;font-variant-caps:normal;font-variant-east-asian:normal;font-variant-ligatures:normal;font-variant-numeric:normal;font-variant-position:normal;font-variation-settings:normal;inline-size:0;isolation:auto;mix-blend-mode:normal;shape-margin:0;shape-padding:0;text-decoration-color:#000;text-decoration-line:none;text-decoration-style:solid;text-indent:0;text-orientation:mixed;text-transform:none;white-space:normal"/><path d="m8.03 7.6455-4.886 2.821 5.168e-4 5.16e-4a0.27324 0.27324 0 0 0 0.3731 0.10025l2.266-1.3084 2.5203-1.4552-0.27389-0.15813zm-5.6322-4.0628a0.27445 0.27445 0 0 0 0.10077 0.37465l6.2342 3.5993 0.27389-0.15813-6.6089-3.8158z" fill="#f2f2f2" opacity=".2" paint-order="markers stroke fill"/><use opacity=".6" xlink:href="#f"/><use opacity=".6" xlink:href="#f"/></svg>
