<?xml version="1.0" encoding="UTF-8"?>
<svg version="1.1" viewBox="0 0 48 48" xmlns="http://www.w3.org/2000/svg"><defs><linearGradient id="f" x1="24" x2="24" y1="44" y2="-196.08" gradientTransform="matrix(1 0 0 .97703 .0043927 1.0953)" gradientUnits="userSpaceOnUse"><stop stop-color="#3daee9" offset="0"/><stop stop-color="#fdffff" offset="1"/></linearGradient><linearGradient id="e" x1="24" x2="24" y1="44" y2="3.858" gradientTransform="matrix(1 0 0 .97703 -.047465 .10738)" gradientUnits="userSpaceOnUse"><stop stop-color="#197cf1" offset="0"/><stop stop-color="#20bcfa" offset="1"/></linearGradient><linearGradient id="d" x1="-3.979e-13" x2="0" y1="471.12" y2="582.8" gradientTransform="matrix(.68889 0 0 .68889 -257.46 -336.84)" gradientUnits="userSpaceOnUse"><stop stop-color="#f0e301" offset="0"/><stop stop-color="#ff9701" offset="1"/></linearGradient><linearGradient id="c" x1="1.5916e-12" x2="0" y1="479.92" y2="547.8" gradientTransform="matrix(.65849 0 0 .65849 -245.04 -320.92)" gradientUnits="userSpaceOnUse"><stop stop-color="#faff73" offset="0"/><stop stop-color="#edd346" offset="1"/></linearGradient><linearGradient id="b" x1="414.39" x2="414.39" y1="511.63" y2="535.84" gradientTransform="matrix(.62437 0 0 .62437 -229.21 -296.04)" gradientUnits="userSpaceOnUse"><stop stop-color="#eff1f1" stop-opacity=".99071" offset="0"/><stop stop-color="#ebeaec" offset="1"/></linearGradient><linearGradient id="a" x1="24" x2="39" y1="23" y2="38" gradientUnits="userSpaceOnUse"><stop offset="0"/><stop stop-opacity="0" offset="1"/></linearGradient></defs><path d="m44.005 24.544a20 19.541 0 0 1-20 19.541 20 19.541 0 0 1-20-19.541 20 19.541 0 0 1 20-19.541 20 19.541 0 0 1 20 19.541" fill="url(#f)" stroke-opacity="0"/><path d="m43.979 24.55a20 19.541 0 0 1-20 19.541 20 19.541 0 0 1-20-19.541 20 19.541 0 0 1 20-19.541 20 19.541 0 0 1 20 19.541" fill="#197cf1" stroke-opacity="0"/><path d="m43.979 24.55c0 10.792-8.9543 19.541-20 19.541s-20-8.7486-20-19.541c1e-7 -10.792 8.9543-19.541 20-19.541 11.046 0 20 8.7486 20 19.541" color="#000000" color-rendering="auto" dominant-baseline="auto" fill-opacity=".1" image-rendering="auto" shape-rendering="auto" solid-color="#000000" stop-color="#000000" style="font-feature-settings:normal;font-variant-alternates:normal;font-variant-caps:normal;font-variant-east-asian:normal;font-variant-ligatures:normal;font-variant-numeric:normal;font-variant-position:normal;font-variation-settings:normal;inline-size:0;isolation:auto;mix-blend-mode:normal;shape-margin:0;shape-padding:0;text-decoration-color:#000000;text-decoration-line:none;text-decoration-style:solid;text-indent:0;text-orientation:mixed;text-transform:none;white-space:normal"/><path d="m23.979 4.5156c-11.307-1e-7 -20.494 8.9698-20.494 20.035s9.1874 20.033 20.494 20.033c11.307 0 20.494-8.9679 20.494-20.033s-9.1874-20.035-20.494-20.035zm0 0.98828c10.785 0 19.506 8.5283 19.506 19.047s-8.7211 19.045-19.506 19.045c-10.785 0-19.506-8.5264-19.506-19.045 2e-7 -10.519 8.7211-19.047 19.506-19.047z" color="#000000" color-rendering="auto" dominant-baseline="auto" fill-opacity="0" image-rendering="auto" shape-rendering="auto" solid-color="#000000" stop-color="#000000" style="font-feature-settings:normal;font-variant-alternates:normal;font-variant-caps:normal;font-variant-east-asian:normal;font-variant-ligatures:normal;font-variant-numeric:normal;font-variant-position:normal;font-variation-settings:normal;inline-size:0;isolation:auto;mix-blend-mode:normal;shape-margin:0;shape-padding:0;text-decoration-color:#000000;text-decoration-line:none;text-decoration-style:solid;text-indent:0;text-orientation:mixed;text-transform:none;white-space:normal"/><g shape-rendering="auto"><path d="m43.953 23.556c-1e-6 10.792-8.9543 19.541-20 19.541-11.046 1e-6 -20-8.7486-20-19.541-1e-7 -10.792 8.9543-19.541 20-19.541 11.046 0 20 8.7486 20 19.541" color="#000000" color-rendering="auto" dominant-baseline="auto" fill="url(#e)" image-rendering="auto" solid-color="#000000" stop-color="#000000" style="font-feature-settings:normal;font-variant-alternates:normal;font-variant-caps:normal;font-variant-east-asian:normal;font-variant-ligatures:normal;font-variant-numeric:normal;font-variant-position:normal;font-variation-settings:normal;inline-size:0;isolation:auto;mix-blend-mode:normal;shape-margin:0;shape-padding:0;text-decoration-color:#000000;text-decoration-line:none;text-decoration-style:solid;text-indent:0;text-orientation:mixed;text-transform:none;white-space:normal"/><path d="m23.953 3.5215c-11.307-6e-7 -20.494 8.9698-20.494 20.035 6e-7 11.065 9.1874 20.033 20.494 20.033s20.494-8.9679 20.494-20.033c0-11.065-9.1874-20.035-20.494-20.035zm0 0.98828c10.785 0 19.506 8.5283 19.506 19.047 0 10.519-8.7211 19.045-19.506 19.045-10.785 1e-6 -19.506-8.5264-19.506-19.045 0-10.519 8.7211-19.047 19.506-19.047z" color="#000000" color-rendering="auto" dominant-baseline="auto" fill-opacity="0" image-rendering="auto" solid-color="#000000" stop-color="#000000" style="font-feature-settings:normal;font-variant-alternates:normal;font-variant-caps:normal;font-variant-east-asian:normal;font-variant-ligatures:normal;font-variant-numeric:normal;font-variant-position:normal;font-variation-settings:normal;inline-size:0;isolation:auto;mix-blend-mode:normal;shape-margin:0;shape-padding:0;text-decoration-color:#000000;text-decoration-line:none;text-decoration-style:solid;text-indent:0;text-orientation:mixed;text-transform:none;white-space:normal"/><path d="m24.004 10.227c-7.6328 0-13.777 6.1444-13.777 13.777 0 3.8164 1.5351 7.2597 4.0254 9.75 0.0091 0.0091 0.020137 0.020177 0.029297 0.029297 0.01267 0.01273 0.024389 0.026383 0.037109 0.039063 0.01497 0.01501 0.031845 0.028018 0.046875 0.042968 0.0072 0.0072 0.014285 0.014315 0.021485 0.021485 0.0221 0.02225 0.044146 0.044306 0.066406 0.066406 0.01531 0.01536 0.031505 0.029642 0.046875 0.044922 0.02046 0.02059 0.039947 0.04204 0.060547 0.0625 0.02272 0.02287 0.045479 0.045649 0.068359 0.068359 0.02206 0.02223 0.044187 0.044327 0.066406 0.066406 0.030481 0.030781 0.061027 0.061297 0.091797 0.091797 0.03278 0.03307 0.0665 0.064917 0.09961 0.097657 0.02921 0.02943 0.05842 0.05872 0.08789 0.08789 0.0337 0.03404 0.06751 0.06788 0.10156 0.10156 0.03596 0.03635 0.07301 0.07147 0.10938 0.10742 0.03917 0.03964 0.07754 0.07998 0.11719 0.11914 0.04112 0.04164 0.08335 0.08194 0.125 0.12305 0.04274 0.0433 0.0856 0.08617 0.12891 0.12891 0.04565 0.04628 0.09237 0.09109 0.13867 0.13672 0.04788 0.04858 0.09594 0.09667 0.14453 0.14453 0.05044 0.05122 0.1011 0.10192 0.15234 0.15234 0.05203 0.05285 0.10337 0.1062 0.15625 0.1582 0.051059 0.0519 0.10242 0.10322 0.1543 0.1543 0.0626 0.06382 0.12562 0.12686 0.18945 0.18945 0.056249 0.05717 0.11463 0.11179 0.17187 0.16797 0.06167 0.06284 0.12268 0.12586 0.18555 0.1875 0.06322 0.06445 0.12694 0.12821 0.19141 0.19141 0.06292 0.06419 0.12724 0.1265 0.19141 0.18945 0.07349 0.07516 0.14746 0.14919 0.22266 0.22266 0.06746 0.06882 0.13618 0.13574 0.20508 0.20312 0.06932 0.07086 0.13816 0.14158 0.20898 0.21094 0.08047 0.08249 0.16163 0.16369 0.24414 0.24414 0.07152 0.0731 0.14367 0.1453 0.2168 0.2168 0.08427 0.08649 0.16935 0.17161 0.25586 0.25586 0.076299 0.07811 0.15429 0.15419 0.23242 0.23047 0.08873 0.0912 0.17831 0.18082 0.26953 0.26953 0.08043 0.08246 0.16167 0.16372 0.24414 0.24414 0.09348 0.09624 0.18891 0.18974 0.28516 0.2832 0.0852 0.08747 0.17032 0.17459 0.25781 0.25976 0.0979 0.10091 0.19788 0.199 0.29883 0.29688 0.08937 0.09186 0.17959 0.18215 0.27148 0.27148 0.099751 0.10296 0.19982 0.20488 0.30274 0.30469 0.10206 0.10524 0.20713 0.20666 0.3125 0.30859 0.09951 0.1025 0.20009 0.20337 0.30273 0.30273 0.10232 0.10561 0.2049 0.21022 0.31055 0.3125 0.10639 0.10997 0.21423 0.21785 0.32422 0.32422 0.10862 0.11232 0.21965 0.22151 0.33203 0.33008 0.10894 0.11268 0.21932 0.22314 0.33203 0.33203 0.11327 0.11734 0.22835 0.23246 0.3457 0.3457 0.11202 0.11609 0.22577 0.22971 0.3418 0.3418 0.079927 0.083015 0.1623 0.16328 0.24414 0.24414 0.19482 0.005572 0.3897 0.013672 0.58594 0.013672 10.654 0 19.279-8.2701 19.703-18.697-0.10449-0.10783-0.21012-0.21412-0.31836-0.31836-0.11702-0.12151-0.23602-0.24028-0.35742-0.35742-0.12146-0.12621-0.24491-0.24961-0.37109-0.37109-0.11209-0.11602-0.22571-0.22978-0.3418-0.3418-0.11325-0.11736-0.22837-0.23244-0.3457-0.3457-0.1089-0.11272-0.21936-0.22309-0.33203-0.33203-0.10857-0.11238-0.21775-0.22341-0.33008-0.33203-0.10637-0.10999-0.21425-0.21783-0.32422-0.32422-0.10228-0.10565-0.20689-0.20823-0.3125-0.31055-0.09936-0.10265-0.20023-0.20322-0.30273-0.30273-0.10193-0.10537-0.20335-0.21044-0.30859-0.3125-0.0998-0.10292-0.20172-0.20298-0.30469-0.30274-0.08934-0.091899-0.17962-0.18211-0.27148-0.27148-0.09787-0.10094-0.19596-0.20092-0.29688-0.29883-0.08517-0.08749-0.1723-0.17261-0.25976-0.25781-0.09283-0.095591-0.18569-0.19035-0.28125-0.2832-0.08108-0.08319-0.16293-0.16498-0.24609-0.24609-0.08871-0.09122-0.17833-0.1808-0.26953-0.26953-0.07628-0.07813-0.15236-0.15613-0.23047-0.23242-0.08425-0.086511-0.16936-0.17159-0.25586-0.25586-0.07149-0.07313-0.14369-0.14528-0.2168-0.2168-0.08045-0.08251-0.16165-0.16367-0.24414-0.24414-0.06935-0.07083-0.14007-0.13967-0.21094-0.20898-0.06739-0.06889-0.13431-0.13761-0.20312-0.20508-0.07346-0.07519-0.14749-0.14916-0.22266-0.22266-0.06295-0.06416-0.12526-0.12849-0.18945-0.19141-0.06319-0.06447-0.12696-0.12819-0.19141-0.19141-0.06164-0.06287-0.12466-0.12387-0.1875-0.18555-0.05618-0.05724-0.1108-0.11562-0.16797-0.17187-0.06259-0.06383-0.12564-0.12685-0.18945-0.18945-0.05108-0.05187-0.1024-0.10324-0.1543-0.1543-0.05201-0.05288-0.10535-0.10422-0.1582-0.15625-0.05042-0.05124-0.10112-0.1019-0.15234-0.15234-0.04786-0.0486-0.09595-0.096649-0.14453-0.14453-0.04563-0.0463-0.09044-0.09302-0.13672-0.13867-0.04273-0.04331-0.08561-0.08617-0.12891-0.12891-0.04111-0.04165-0.08141-0.08388-0.12305-0.125-0.03916-0.03965-0.0795-0.07801-0.11914-0.11719-0.03595-0.03636-0.07107-0.07341-0.10742-0.10938-0.03368-0.03405-0.06752-0.06786-0.10156-0.10156-0.0324-0.03274-0.064926-0.065236-0.097656-0.097656-0.0266-0.02685-0.053258-0.053438-0.080078-0.080078-0.03339-0.03375-0.065869-0.068159-0.09961-0.10156-0.02208-0.022209-0.044176-0.044336-0.066406-0.066406-0.02271-0.02288-0.045489-0.045639-0.068359-0.068359-0.02046-0.02059-0.04191-0.040077-0.0625-0.060547-0.01529-0.01538-0.029562-0.031575-0.044922-0.046875-0.0221-0.02226-0.044156-0.044296-0.066406-0.066406-0.0042-0.0042-0.007499-0.009402-0.011719-0.013672-0.01783-0.01797-0.034804-0.036818-0.052734-0.054688-0.01268-0.01272-0.028286-0.026392-0.041016-0.039062-0.0091-0.0092-0.018204-0.018224-0.027344-0.027344-2.4903-2.4903-5.9336-4.0254-9.75-4.0254z" color="#4d4d4d" color-rendering="auto" dominant-baseline="auto" fill="url(#a)" image-rendering="auto" opacity=".19956" solid-color="#000000" stop-color="#000000" style="font-feature-settings:normal;font-variant-alternates:normal;font-variant-caps:normal;font-variant-east-asian:normal;font-variant-ligatures:normal;font-variant-numeric:normal;font-variant-position:normal;font-variation-settings:normal;inline-size:0;isolation:auto;mix-blend-mode:normal;shape-margin:0;shape-padding:0;text-decoration-color:#000000;text-decoration-line:none;text-decoration-style:solid;text-indent:0;text-orientation:mixed;text-transform:none;white-space:normal"/><path d="m24 10.222c7.6329 0 13.778 6.1449 13.778 13.778v1.5e-5c0 7.6329-6.1449 13.778-13.778 13.778-7.6329 0-13.778-6.1449-13.778-13.778v-1.5e-5c0-7.6329 6.1449-13.778 13.778-13.778z" color="#000000" color-rendering="auto" dominant-baseline="auto" fill="url(#d)" image-rendering="auto" solid-color="#000000" stop-color="#000000" style="font-feature-settings:normal;font-variant-alternates:normal;font-variant-caps:normal;font-variant-east-asian:normal;font-variant-ligatures:normal;font-variant-numeric:normal;font-variant-position:normal;font-variation-settings:normal;inline-size:0;isolation:auto;mix-blend-mode:normal;shape-margin:0;shape-padding:0;text-decoration-color:#000000;text-decoration-line:none;text-decoration-style:solid;text-indent:0;text-orientation:mixed;text-transform:none;white-space:normal"/><path d="m24 12.806c6.2017 0 11.194 4.9927 11.194 11.194v1.4e-5c0 6.2017-4.9927 11.194-11.194 11.194-6.2017 0-11.194-4.9927-11.194-11.194v-1.4e-5c0-6.2017 4.9927-11.194 11.194-11.194z" color="#000000" color-rendering="auto" dominant-baseline="auto" fill="url(#c)" image-rendering="auto" solid-color="#000000" stop-color="#000000" style="font-feature-settings:normal;font-variant-alternates:normal;font-variant-caps:normal;font-variant-east-asian:normal;font-variant-ligatures:normal;font-variant-numeric:normal;font-variant-position:normal;font-variation-settings:normal;inline-size:0;isolation:auto;mix-blend-mode:normal;shape-margin:0;shape-padding:0;text-decoration-color:#000000;text-decoration-line:none;text-decoration-style:solid;text-indent:0;text-orientation:mixed;text-transform:none;white-space:normal"/><path d="m29 23.5c3.0231 2.85e-4 5.6126 2.1642 6.1499 5.1392 2.2544 0.53276 3.8477 2.5443 3.8501 4.8608-1e-6 2.7614-2.2386 5-5 5h-11.25c-2.0711 1e-6 -3.75-1.6789-3.75-3.75-4e-6 -2.0711 1.6789-3.75 3.75-3.75 0.0448 0.0017 0.08957 0.0043 0.13428 0.0076-0.08715-0.41349-0.13214-0.83475-0.13428-1.2573-1e-6 -3.4518 2.7982-6.25 6.25-6.25z" color="#4d4d4d" color-rendering="auto" dominant-baseline="auto" fill="url(#b)" image-rendering="auto" solid-color="#000000" stop-color="#000000" style="font-feature-settings:normal;font-variant-alternates:normal;font-variant-caps:normal;font-variant-east-asian:normal;font-variant-ligatures:normal;font-variant-numeric:normal;font-variant-position:normal;font-variation-settings:normal;inline-size:0;isolation:auto;mix-blend-mode:normal;shape-margin:0;shape-padding:0;text-decoration-color:#000000;text-decoration-line:none;text-decoration-style:solid;text-indent:0;text-orientation:mixed;text-transform:none;white-space:normal"/><path d="m38.985 33.183c-0.16233 2.635-2.3452 4.6898-4.9852 4.6926h-11.25c-1.9472-6.19e-4 -3.5699-1.4915-3.7353-3.4316-9e-3 0.10179-0.01391 0.2039-0.01461 0.30609 5.5e-5 2.071 1.6789 3.7498 3.7499 3.7499h11.25c2.7613-7.7e-5 4.9998-2.2385 4.9999-4.9999-0.0015-0.10582-0.0064-0.21156-0.01461-0.31707z" color="#4d4d4d" color-rendering="auto" dominant-baseline="auto" fill="#172525" image-rendering="auto" opacity=".2" solid-color="#000000" stop-color="#000000" style="font-feature-settings:normal;font-variant-alternates:normal;font-variant-caps:normal;font-variant-east-asian:normal;font-variant-ligatures:normal;font-variant-numeric:normal;font-variant-position:normal;font-variation-settings:normal;inline-size:0;isolation:auto;mix-blend-mode:normal;shape-margin:0;shape-padding:0;text-decoration-color:#000000;text-decoration-line:none;text-decoration-style:solid;text-indent:0;text-orientation:mixed;text-transform:none;white-space:normal"/></g></svg>
