<?xml version="1.0" encoding="UTF-8"?>
<svg viewBox="0 0 128 128" xmlns="http://www.w3.org/2000/svg" xmlns:xlink="http://www.w3.org/1999/xlink"><linearGradient id="a" x1="-129.16" x2="129.99" y1="64.191" y2="124.63" gradientTransform="matrix(.40988 -.095593 .095593 .40988 54.805 57.343)" gradientUnits="userSpaceOnUse"><stop stop-color="#b6b6b9" offset="0"/><stop stop-color="#77767b" offset=".088039"/><stop stop-color="#77767b" offset=".40454"/><stop stop-color="#aaaaad" offset=".5"/><stop stop-color="#5c5b5f" offset=".60591"/><stop stop-color="#616064" offset=".89729"/><stop stop-color="#c8c8c9" offset=".9648"/><stop stop-color="#77767b" offset="1"/></linearGradient><linearGradient id="b" x1="24" x2="104.18" y1="72" y2="72" gradientUnits="userSpaceOnUse"><stop stop-color="#e66100" offset="0"/><stop stop-color="#e66100" offset=".06505"/><stop stop-color="#e66100" offset=".11498"/><stop stop-color="#e66100" offset=".18569"/><stop stop-color="#e66100" offset=".24286"/><stop stop-color="#e66100" offset=".31723"/><stop stop-color="#e66100" offset=".44832"/><stop stop-color="#ffb780" offset=".50244"/><stop stop-color="#e66100" offset=".56327"/><stop stop-color="#e66100" offset=".71916"/><stop stop-color="#e66100" offset=".79627"/><stop stop-color="#e66100" offset=".85701"/><stop stop-color="#e66100" offset="1"/></linearGradient><linearGradient id="c" gradientUnits="userSpaceOnUse"><stop stop-color="#bb5e00" offset="0"/><stop stop-color="#ffa954" offset=".053039"/><stop stop-color="#eb7400" offset=".11772"/><stop stop-color="#9a4c00" offset=".25693"/><stop stop-color="#ff9d40" offset=".59296"/><stop stop-color="#d36900" offset=".87488"/><stop stop-color="#ffc080" offset=".93456"/><stop stop-color="#ae5700" offset="1"/></linearGradient><linearGradient id="d" x1="38.374" x2="89.689" y1="56" y2="56" xlink:href="#c"/><linearGradient id="e" x1="25.383" x2="104" y1="54.15" y2="56" xlink:href="#c"/><path d="m110.66 99.723-37.371 21.602c-5.7852 3.3438-12.918 3.3516-18.715 0.023437l-36.867-21.164c-5.7969-3.3281-9.3828-9.4922-9.4141-16.176l-0.17969-39.48c-0.03125-6.6836 3.5-12.879 9.2695-16.258l36.68-21.488c5.7695-3.3789 12.898-3.4297 18.715-0.13281l37.555 21.273c5.8125 3.293 9.418 9.4414 9.4453 16.121l0.18359 39.48c0.027344 6.6758-3.5195 12.859-9.3008 16.199z" fill="url(#a)"/><path d="m110.66 95.723-37.371 21.602c-5.7852 3.3438-12.918 3.3516-18.715 0.023437l-36.867-21.164c-5.7969-3.3281-9.3828-9.4922-9.4141-16.176l-0.17969-39.48c-0.03125-6.6836 3.5-12.879 9.2695-16.258l36.68-21.488c5.7695-3.3789 12.898-3.4297 18.715-0.13281l37.555 21.273c5.8125 3.293 9.418 9.4414 9.4453 16.121l0.18359 39.48c0.027344 6.6758-3.5195 12.859-9.3008 16.199z" fill="#f6f5f4"/><path d="m64.195 74.062c-4.9492 0.003906-8.9648 4.0156-8.9648 8.9688s4.0156 8.9688 8.9648 8.9688c4.957 0 8.9727-4.0156 8.9688-8.9688 0-4.9531-4.0156-8.9688-8.9688-8.9688z" fill="url(#b)"/><path d="m64.031 53.422c-8.7539 0-17.508 3.3242-24.156 9.9727-2.0039 2-2.0039 5.2461 0 7.25 2 2 5.2461 2 7.25 0 9.3789-9.3828 24.434-9.3867 33.816-0.003906 2 2 5.2461 2.0039 7.2461 0.003906 2.0039-2.0039 2.0039-5.25 0-7.25-6.6484-6.6484-15.402-9.9727-24.156-9.9727z" fill="url(#d)"/><path d="m64.031 32.926c-14-0.003906-27.996 5.3242-38.648 15.977-2.0039 2-2.0039 5.2461 0 7.2461 2 2.0039 5.2461 2 7.2461 0 17.387-17.387 45.418-17.387 62.805 0 2 2 5.2461 2 7.2461 0 2.0039-2 2.0039-5.2461 0-7.2461-10.648-10.652-24.648-15.98-38.648-15.977z" fill="url(#e)"/><path d="m64.031 30.922c-14 0-27.996 5.3281-38.648 15.98-2.0039 2-2.0039 5.2461 0 7.2461 2 2.0039 5.2461 2 7.2461 0 17.387-17.387 45.418-17.387 62.805 0 2 2 5.2461 2 7.2461 0 2.0039-2 2.0039-5.2461 0-7.2461-10.648-10.652-24.648-15.98-38.648-15.98zm0 20.5c-8.7539 0-17.508 3.3242-24.156 9.9727-2.0039 2-2.0039 5.2461 0 7.2461 2 2.0039 5.2461 2.0039 7.25 0 9.3789-9.3789 24.434-9.3828 33.816 0 2 2 5.2461 2.0039 7.2461 0 2.0039-2 2.0039-5.2461 0-7.2461-6.6484-6.6484-15.402-9.9727-24.156-9.9727zm0.16406 20.641c-4.9492 0.003906-8.9648 4.0156-8.9648 8.9688s4.0156 8.9688 8.9648 8.9688c4.957 0 8.9727-4.0156 8.9688-8.9688 0-4.9531-4.0156-8.9688-8.9688-8.9688z" fill="#ffa348"/></svg>
