<?xml version="1.0" encoding="UTF-8"?>
<svg version="1.0" viewBox="0 0 128 128" xmlns="http://www.w3.org/2000/svg" xmlns:xlink="http://www.w3.org/1999/xlink"><defs><linearGradient id="c" x1="48" x2="464" y1="44" y2="44" gradientTransform="matrix(.25 0 0 .25 0 225)" gradientUnits="userSpaceOnUse"><stop stop-color="#babdb6" offset="0"/><stop stop-color="#f6f5f4" offset=".042"/><stop stop-color="#d5d3cf" offset=".083"/><stop stop-color="#deddda" offset=".917"/><stop stop-color="#f6f5f4" offset=".958"/><stop stop-color="#babdb6" offset="1"/></linearGradient></defs><g transform="translate(0 -172)"><rect x="12" y="204" width="104" height="84" rx="8" ry="8" fill="url(#c)"/><rect x="12" y="184" width="104" height="100" rx="8" ry="8" fill="#f6f5f4"/><rect transform="scale(1 -1)" x="18" y="-278.05" width="92" height="26" rx="5.345" ry="5.345" fill="#3584e4"/><path d="m23.346 278.05a5.335 5.335 0 0 1-5.346-5.346v-2a5.335 5.335 0 0 0 5.346 5.346h81.308a5.335 5.335 0 0 0 5.346-5.346v2a5.335 5.335 0 0 1-5.346 5.346z" fill="#1a5fb4"/><rect transform="scale(1 -1)" x="19" y="-245" width="90" height="24" rx="5.345" ry="5.345" fill="#fff" stroke="#deddda" stroke-linecap="round" stroke-linejoin="round" stroke-width="2"/><rect transform="scale(1 -1)" x="19" y="-215" width="90" height="24" rx="5.345" ry="5.345" fill="#fff" stroke="#deddda" stroke-linecap="round" stroke-linejoin="round" stroke-width="2"/><path d="m99 228.95v8.23m4.167-4.178h-8.334m-11.5 0h-8.333" fill="#fff" stroke="#000" stroke-linecap="square" stroke-linejoin="round" stroke-width="2"/><path d="M89 221.125V245M69 221.125V245" fill="#fff" stroke="#deddda" stroke-linecap="square" stroke-linejoin="round" stroke-width="2"/><path d="m24.406 222a5.335 5.335 0 0 0-5.345 5.346v2a5.335 5.335 0 0 1 5.345-5.346h79.276a5.335 5.335 0 0 1 5.346 5.346v-2a5.335 5.335 0 0 0-5.346-5.346zm0-30a5.335 5.335 0 0 0-5.345 5.346v2a5.335 5.335 0 0 1 5.345-5.346h79.276a5.335 5.335 0 0 1 5.346 5.346v-2a5.335 5.335 0 0 0-5.346-5.346z" fill="#deddda" opacity=".3"/><path d="m95.106 201.85 3.8 3.8 3.934-3.933" fill="none" stroke="#000" stroke-linecap="square" stroke-linejoin="round" stroke-width="2"/><path d="M26.02 228h36.583v10H26.02zM26 197.974h59.979V208H26z" fill="#deddda"/><path d="M44 260h36v8H44z" fill="#98c1f1"/></g></svg>
