<?xml version="1.0" encoding="UTF-8"?>
<svg viewBox="0 0 48 48" xmlns="http://www.w3.org/2000/svg" xmlns:xlink="http://www.w3.org/1999/xlink"><defs><linearGradient id="a" x1="8" x2="27" y1="25" y2="44" gradientUnits="userSpaceOnUse"><stop offset="0"/><stop stop-opacity="0" offset="1"/></linearGradient><linearGradient id="b" x2="0" y1="44" y2="18" gradientUnits="userSpaceOnUse"><stop stop-color="#c6cdd1" offset="0"/><stop stop-color="#e0e5e7" offset="1"/></linearGradient><linearGradient id="c" x2="0" y1="20" y2="16" gradientUnits="userSpaceOnUse"><stop stop-color="#06a370" offset="0"/><stop stop-color="#22d1b0" offset="1"/></linearGradient><linearGradient id="d" x2="0" y1="21" y2="4" gradientUnits="userSpaceOnUse" xlink:href="#c"/><linearGradient id="e" x2="0" y1="15" y2="4" gradientUnits="userSpaceOnUse" xlink:href="#c"/><linearGradient id="f" x2="0" y1="16" y2="7" gradientUnits="userSpaceOnUse" xlink:href="#c"/><linearGradient id="g" x2="0" y1="17" y2="10" gradientUnits="userSpaceOnUse" xlink:href="#c"/><linearGradient id="h" x2="0" y1="17" y2="8" gradientUnits="userSpaceOnUse"><stop stop-color="#c61423" offset="0"/><stop stop-color="#dc2b41" offset="1"/></linearGradient><linearGradient id="i" x2="0" y1="17" y2="12" gradientUnits="userSpaceOnUse" xlink:href="#h"/><linearGradient id="j" x2="0" y1="21" y2="12" gradientUnits="userSpaceOnUse" xlink:href="#h"/><linearGradient id="k" x2="0" y1="25" y2="10" gradientUnits="userSpaceOnUse"><stop stop-color="#f39c12" offset="0"/><stop stop-color="#f5ab35" offset="1"/></linearGradient></defs><rect x="4" y="18" width="40" height="26" fill="url(#b)"/><g stroke-linecap="round" stroke-linejoin="bevel" stroke-width="2"><rect x="8" y="16" width="4" height="9" fill="url(#c)"/><rect x="12" y="4" width="4" height="21" fill="url(#d)"/><rect x="16" y="12" width="4" height="13" fill="url(#j)"/><rect x="20" y="10" width="4" height="15" fill="url(#g)"/><rect x="24" y="7" width="4" height="18" fill="url(#f)"/><rect x="28" y="12" width="4" height="13" fill="url(#i)"/><rect x="32" y="4" width="4" height="21" fill="url(#e)"/><rect x="36" y="8" width="4" height="17" fill="url(#h)"/><g fill="#eff0f1"><rect x="8" y="31" width="4" height="3"/><rect x="8" y="39" width="4" height="3"/><rect x="8" y="27" width="4" height="3"/><rect x="14" y="31" width="4" height="3"/><rect x="14" y="39" width="4" height="3"/><rect x="14" y="27" width="4" height="3"/><rect x="20" y="31" width="12" height="3"/><rect x="20" y="39" width="12" height="3"/><rect x="20" y="27" width="12" height="3"/><rect x="34" y="31" width="6" height="3"/><rect x="34" y="39" width="6" height="3"/><rect x="34" y="27" width="6" height="3"/><rect x="8" y="35" width="4" height="3"/><rect x="14" y="35" width="4" height="3"/><rect x="20" y="35" width="12" height="3"/><rect x="34" y="35" width="6" height="3"/></g><rect x="9" y="28" width="1" height="1" fill="#4d4d4d"/><rect x="9" y="32" width="2" height="1" fill="#c0392b"/><rect x="9" y="36" width="1" height="1" fill="#4d4d4d"/><rect x="9" y="40" width="2" height="1" fill="#258e52"/><rect x="15" y="40" width="1" height="1" fill="#4d4d4d"/><rect x="15" y="36" width="1" height="1" fill="#258e52"/><rect x="15" y="32" width="1" height="1" fill="#c0392b"/><g fill="#4d4d4d"><rect x="15" y="28" width="1" height="1"/><rect x="21" y="28" width="4" height="1"/></g><g fill="#258e52"><rect x="21" y="32" width="2" height="1"/><rect x="24" y="32" width="2" height="1"/><rect x="21" y="36" width="3" height="1"/></g><g fill="#c0392b"><rect x="21" y="40" width="7" height="1"/><rect x="29" y="40" width="1" height="1"/></g><rect x="35" y="28" width="3" height="1" fill="#258e52"/><rect x="35" y="32" width="1" height="1" fill="#4d4d4d"/><rect x="35" y="36" width="2" height="1" fill="#c0392b"/><rect x="35" y="40" width="3" height="1" fill="#4d4d4d"/></g><path d="m8 25 19 19h17v-15l-4-4z" fill="url(#a)" fill-rule="evenodd" opacity=".2"/><rect x="4" y="43" width="40" height="1" fill="#2e3132" opacity=".1"/><path d="m8 25v-3c2 0 2-3 4-3s1.5 4 4 4 2-4 4-4 2-4 4-4 2 4 4 4 2-2 4-2 2-5 4-5 2 7 4 7v6z" fill="url(#k)" fill-rule="evenodd"/><rect x="8" y="24" width="32" height="1" fill="#2e3132" fill-opacity=".294"/></svg>
