<?xml version="1.0" encoding="UTF-8"?>
<svg id="a" enable-background="new 0 0 24 24" version="1.1" viewBox="0 0 24 24" xml:space="preserve" xmlns="http://www.w3.org/2000/svg">

	
		<path d="m12.3 12.6 6.6 6.6c1.9-1.8 3.1-4.4 3.1-7.2 0-2.9-1.2-5.4-3.1-7.2l-6.6 6.6c-0.4 0.3-0.4 0.9 0 1.2z" fill="#00B2EF"/>
	
	
		<path d="m13.4 18.5c-0.4 0.1-0.9 0.1-1.4 0.1-3.7 0-6.7-3-6.7-6.6 0-3.7 3-6.6 6.7-6.6 0.5 0 0.9 0.1 1.4 0.1l2.6-2.6c-1.2-0.6-2.6-0.9-4-0.9-5.5 0-10 4.5-10 10s4.5 10 10 10c1.4 0 2.8-0.3 4-0.9l-2.6-2.6z" fill="#414141"/>
	

</svg>
