<?xml version="1.0" encoding="UTF-8"?>
<svg viewBox="0 0 48 48" xmlns="http://www.w3.org/2000/svg" xmlns:xlink="http://www.w3.org/1999/xlink"><linearGradient id="a" x1="6" x2="6" y1="58" y2="6" gradientUnits="userSpaceOnUse"><stop stop-color="#98a7b0" offset="0"/><stop stop-color="#dde1e3" offset="1"/></linearGradient><linearGradient id="b"><stop stop-color="#292c2f" offset="0"/><stop stop-opacity="0" offset="1"/></linearGradient><linearGradient id="c" x1=".59369" x2="76.197" y1="36.12" y2="36.12" gradientTransform="matrix(.99167 0 0 1 .029538 -.046272)" gradientUnits="userSpaceOnUse" xlink:href="#b"/><linearGradient id="d" x1="388.42" x2="388.42" y1="557.8" y2="505.8" gradientTransform="matrix(.83153 0 0 .76923 -321.65 -385.08)" gradientUnits="userSpaceOnUse"><stop stop-color="#7f8c8d" offset="0"/><stop stop-color="#afb0b3" offset="1"/></linearGradient><linearGradient id="e" x1="-421.45" x2="-410.45" y1="-504.2" y2="-493.2" gradientTransform="matrix(1.4167 0 0 1.4286 1.3333 1.1429)" gradientUnits="userSpaceOnUse" xlink:href="#b"/><linearGradient id="f" x1="1.333" x2="1.333" y1="48.714" y2="9.714" gradientTransform="matrix(.73913 0 0 .76923 .34733 -.61429)" gradientUnits="userSpaceOnUse"><stop stop-color="#eef1f2" offset="0"/><stop stop-color="#f9fafb" offset="1"/></linearGradient><linearGradient id="g" x1="6" x2="6" y1="58" y2="6" gradientTransform="matrix(.41955 0 0 .42307 10.574 8.3187)" gradientUnits="userSpaceOnUse" xlink:href="#a"/><linearGradient id="h" x1="32" x2="32" y1="58" y2="32" gradientTransform="matrix(-.41955 0 0 .42307 37.426 8.3187)" gradientUnits="userSpaceOnUse"><stop stop-color="#8e44ad" offset="0"/><stop stop-color="#af7ac4" offset="1"/></linearGradient><linearGradient id="i" x1="32" x2="32" y1="58" y2="32" gradientTransform="matrix(.41955 0 0 .42307 10.574 8.3187)" gradientUnits="userSpaceOnUse"><stop stop-color="#fdad23" offset="0"/><stop stop-color="#fdc96f" offset="1"/></linearGradient><linearGradient id="j" x1="32" x2="32" y1="32" y2="6" gradientTransform="matrix(.41955 0 0 .42307 10.574 8.3187)" gradientUnits="userSpaceOnUse"><stop stop-color="#27ad60" offset="0"/><stop stop-color="#58d68d" offset="1"/></linearGradient><linearGradient id="k" x1="32" x2="32" y1="32" y2="6" gradientTransform="matrix(.41955 0 0 .42307 10.574 8.3187)" gradientUnits="userSpaceOnUse"><stop stop-color="#1190d9" offset="0"/><stop stop-color="#73c4ef" offset="1"/></linearGradient><linearGradient id="l" x1="32" x2="32" y1="41" y2="23" gradientTransform="matrix(.41955 0 0 .42307 10.574 8.3187)" gradientUnits="userSpaceOnUse"><stop stop-color="#cecece" offset="0"/><stop stop-color="#ececec" offset="1"/></linearGradient><linearGradient id="m" x1="32" x2="32" y1="36" y2="28" gradientTransform="matrix(.41955 0 0 .42307 10.574 8.3187)" gradientUnits="userSpaceOnUse"><stop stop-color="#5c7274" offset="0"/><stop stop-color="#a4a4a4" offset="1"/></linearGradient><linearGradient id="n" x1="32" x2="32" y1="35" y2="29" gradientTransform="matrix(.41955 0 0 .42307 10.574 8.3187)" gradientUnits="userSpaceOnUse" xlink:href="#a"/><g stroke-width="1"><path d="m7 4h34v40h-34z" fill="url(#d)"/><path d="m11.25 39.714h25.5v4.2857h-25.5z" fill="#292c2e"/><path d="m14.083 41.143h12.75v1.4286h-12.75zm14.167 0h5.6667v1.4286h-5.6667z" fill="#f6b44d"/><path d="m35.333 39.714h5.6667v4.2857h-5.6667zm-28.333 0h5.6667v4.2857h-5.6667z" fill="#292c2f" opacity=".2"/><path d="m7 39.714h5.6667v4.2857h-1.4167zm28.333 0h5.6667v4.2857h-5.6667z" fill="#292c2f" opacity=".2"/><path d="m36.091 8.95 4.9088 4.9471v30.103h-19.833l-11.333-11.429z" fill="url(#e)" opacity=".2"/><path d="m16.917 6.8571a7.0833 7.1429 0 0 0-7.0833 7.1429v6.8114a4.25 4.2857 0 0 1 1.411 3.0243 2.8333 2.8571 0 0 1 0.0058 0.16429 2.8333 2.8571 0 0 1-0.01417 0.28571 4.25 4.2857 0 0 1 0 0.0072 4.25 4.2857 0 0 1-1.4025 2.8929v5.3857l4.25 4.2857h19.833l4.25-4.2857v-5.3829a4.25 4.2857 0 0 1-1.411-3.0243 2.8333 2.8571 0 0 1-0.0058-0.16428 2.8333 2.8571 0 0 1 0.01417-0.29286 4.25 4.2857 0 0 1 1.4025-2.8929v-6.8143a7.0833 7.1429 0 0 0-7.0833-7.1429z" fill="url(#f)"/><path d="m7 42.571h4.25v1.4286h-4.25zm29.75 0h4.25v1.4286h-4.25z" fill="#292c2f" opacity=".2"/><path d="m24 18.049a3.7759 3.8077 0 0 0-3.7759 3.8077 3.7759 3.8077 0 0 0 3.7759 3.8077 3.7759 3.8077 0 0 0 3.7759-3.8077 3.7759 3.8077 0 0 0-3.7759-3.8077zm0 2.5384c0.69729 0 1.2586 0.56607 1.2586 1.2692s-0.56136 1.2692-1.2586 1.2692c-0.69729 0-1.2586-0.56607-1.2586-1.2692s0.56136-1.2692 1.2586-1.2692z" fill="url(#g)"/></g><path d="m32.504427 14.953125c.179262.226924.353924.458075.515201.699219.195629.292506.378668.594476.546191.90625.167526.311772.319477.633667.457097.96289.13762.329224.260149.664907.366065 1.009766.105915.344859.196811.697962.269222 1.056641.07241.358677.127527.723067.164632 1.09375.02318.231512.02603.469457.03487.705078h.0097c.0021.05695.0021.114754.0039.171875.000992-.0303.007-.05949.0077-.08984.0021.09223 0 .182311 0 .275391 0 .0079-.0019.01553-.002.02344-.000007.0033.00001.0065 0 .0098.000064.01111.002.02209.002.0332 0 .380871-.01906.755462-.05617 1.123047-.03711.367583-.09222.727183-.164633 1.080078-.07241.352894-.16137.698354-.267284 1.035156-.105915.336803-.228446.665067-.366065.984375-.13762.319308-.291509.629276-.459034.929688-.167523.30041-.348624.590982-.544254.871093-.136229.195061-.28861.377861-.437728.5625-.0785.101842-.14859.209544-.230485.308594-.224324.271314-.462398.532075-.710824.78125-.248423.249175-.508073.487603-.778613.712891-.270539.225288-.551862.437067-.842529.636719-.290668.199652-.589889.386325-.898698.558593-.308811.172269-.626027.331473-.950993.47461-.324965.143135-.658342.270557-.997477.382812-.339136.112256-.684895.209436-1.036214.289063-.351319.07963-.707625.142251-1.069141.1875-.361516.04525-.728466.07291-1.098193.08203-.458958-.02115-.903066-.06428-1.332552-.126953-.429549-.06267-.843339-.145083-1.243457-.246094s-.785444-.221242-1.156299-.357422c-.370854-.13618-.727443-.288858-1.069141-.457031-.341695-.168173-.669337-.351837-.981982-.548828s-.611127-.406274-.894824-.628907c-.283696-.222633-.552812-.458023-.807666-.703124l14.115755 14.257775h10.398942v-20.482422l-8.493083-8.564453z" fill="url(#c)" opacity=".2"/><g stroke-width="1"><path d="m24.001 32.434v-8.4615a2.0977 2.1154 0 0 0 2.0977-2.1154h8.8097c0 6.094-4.8647 10.577-10.907 10.577z" fill="url(#h)"/><path d="m23.999 32.434v-8.4615a2.0977 2.1154 0 0 1-2.0977-2.1154h-8.8097c0 6.094 4.8647 10.577 10.907 10.577z" fill="url(#i)"/><path d="m24 10.857v8.8846a2.0977 2.1154 0 0 0-2.0977 2.1154h-8.8097c0-6.094 4.8647-11 10.907-11z" fill="url(#j)"/><path d="m13.102 21.434c-5e-3 0.14046-0.01054 0.28134-0.01054 0.42308h7.5519v-0.42308z" fill="#292c2f" opacity=".2"/><path d="m13.093 21.515c-0.0021 0.09223 0 0.18446 0 0.27711 0 4.8708 3.5641 10.727 10.907 11.065v-0.5c-6.8938-0.31446-10.79-5.9398-10.907-10.843z" fill="#ca902a"/><path d="m24 10.857v8.8846a2.0977 2.1154 0 0 1 2.0977 2.1154h8.8097c0-6.094-4.8647-11-10.907-11z" fill="url(#k)"/><path d="m27.356 21.434v0.42308h7.551c0-0.14173-0.0055-0.28261-0.01054-0.42308zm-3.3564-1.6923a2.0977 2.1154 0 1 0 0 4.2307 2.0977 2.1154 0 0 0 0-4.2307zm0 0.84615c0.69729 0 1.2586 0.56607 1.2586 1.2692s-0.56136 1.2692-1.2586 1.2692c-0.69729 0-1.2586-0.56607-1.2586-1.2692s0.56136-1.2692 1.2586-1.2692z" fill="#292c2f" opacity=".2"/><path d="m24 18.049a3.7759 3.8077 0 1 0 0 7.6153 3.7759 3.8077 0 0 0 0-7.6153zm0 1.6923a2.0977 2.1154 0 1 1 0 4.2307 2.0977 2.1154 0 0 1 0-4.2307z" fill="url(#l)"/><path d="m24 20.165a1.6782 1.6923 0 1 0 0 3.3846 1.6782 1.6923 0 0 0 0-3.3846zm0 0.42307a1.2586 1.2692 0 1 1 0 2.5384 1.2586 1.2692 0 0 1 0-2.5384z" fill="url(#m)"/><path d="m27.767 22.036a3.7759 3.8077 0 0 1-3.7671 3.6283 3.7759 3.8077 0 0 1-3.7671-3.564 3.7759 3.8077 0 0 0-0.0088 0.17938 3.7759 3.8077 0 0 0 3.7759 3.8077 3.7759 3.8077 0 0 0 3.7759-3.8077 3.7759 3.8077 0 0 0-0.0088-0.24369z" fill="#7f8c8d"/><ellipse cx="24" cy="21.857" rx="1.2586" ry="1.2692" fill="url(#n)"/><path d="m34.907 21.515c-0.13971 5.8033-5.2288 10.533-10.907 10.842v0.5c5.9156-0.14596 10.907-5.028 10.907-11.065 0-0.09308 0.0021-0.18488 0-0.27711z" fill="#6e3e86"/></g></svg>
