<?xml version="1.0" encoding="UTF-8"?>
<svg version="1.0" viewBox="0 0 48 48" xmlns="http://www.w3.org/2000/svg" xmlns:xlink="http://www.w3.org/1999/xlink"><defs><linearGradient id="a"><stop offset="0"/><stop stop-opacity="0" offset="1"/></linearGradient><linearGradient id="b"><stop stop-color="#fff" offset="0"/><stop stop-color="#fff" stop-opacity="0" offset="1"/></linearGradient><linearGradient id="l" x1="80" x2="73.569" y1="40" y2="16" gradientTransform="matrix(.5 0 0 .5 -.0122 1.1446)" gradientUnits="userSpaceOnUse" xlink:href="#a"/><linearGradient id="e" x1="67" x2="67" y1="44" y2="16" gradientTransform="matrix(.5 0 0 .5 -.0122 1.3944)" gradientUnits="userSpaceOnUse" xlink:href="#a"/><linearGradient id="h" x1="3" x2="3" y1="45" y2="3" gradientUnits="userSpaceOnUse"><stop stop-color="#967b3f" offset="0"/><stop stop-color="#b3924c" offset="1"/></linearGradient><linearGradient id="c" x1="80" x2="73.569" y1="40" y2="16" gradientTransform="matrix(.5 0 0 .5 -.0122 19.094)" gradientUnits="userSpaceOnUse" xlink:href="#a"/><linearGradient id="o" x1="16" x2="29.755" y1="15" y2="46.031" gradientTransform="matrix(.5 0 0 .5 -.0122 .39435)" gradientUnits="userSpaceOnUse" xlink:href="#b"/><linearGradient id="f" x1="80" x2="73.569" y1="40" y2="16" gradientTransform="matrix(.5 0 0 .5 -.0122 .89435)" gradientUnits="userSpaceOnUse" xlink:href="#a"/><linearGradient id="n" x1="16" x2="29.755" y1="15" y2="46.031" gradientTransform="matrix(.5 0 0 .5 -.0122 18.594)" gradientUnits="userSpaceOnUse" xlink:href="#b"/><linearGradient id="i" x1="20.904" x2="20.503" y1="17.11" y2="14.079" gradientTransform="translate(0 .3)" gradientUnits="userSpaceOnUse" xlink:href="#a"/><linearGradient id="m" x1="80" x2="73.569" y1="40" y2="16" gradientTransform="matrix(.5 0 0 .5 -.0122 .6446)" gradientUnits="userSpaceOnUse" xlink:href="#a"/><linearGradient id="d" x1="67" x2="67" y1="44" y2="16" gradientTransform="matrix(.5 0 0 .5 -.0122 19.594)" gradientUnits="userSpaceOnUse" xlink:href="#a"/><linearGradient id="k" x1="80" x2="73.569" y1="40" y2="16" gradientTransform="matrix(.5 0 0 .5 -.0122 18.844)" gradientUnits="userSpaceOnUse" xlink:href="#a"/><linearGradient id="j" x1="80" x2="73.569" y1="40" y2="16" gradientTransform="matrix(.5 0 0 .5 -.0122 19.344)" gradientUnits="userSpaceOnUse" xlink:href="#a"/><linearGradient id="g" x1="20.9" x2="20.503" y1="35.626" y2="32.594" gradientUnits="userSpaceOnUse" xlink:href="#a"/></defs><path d="m7 3h34c2.216 0 4 1.784 4 4v38h-42v-38c0-2.216 1.784-4 4-4z" fill="url(#h)"/><path d="m8.0877 7.3786c-0.83038 0-1.5156 0.68525-1.5156 1.5156v13.4c0 0.83038 0.68525 1.5156 1.5156 1.5156h32.2c0.83038 0 1.5156-0.68525 1.5156-1.5156v-13.4c0-0.83038-0.68525-1.5156-1.5156-1.5156z" fill="url(#e)" opacity=".07"/><path d="m8.0877 7.1289c-0.83038 0-1.5156 0.68525-1.5156 1.5156v13.2c0 0.83038 0.68525 1.5156 1.5156 1.5156h32c0.83037 0 1.5156-0.68525 1.5156-1.5156v-13.2c0-0.83038-0.68525-1.5156-1.5156-1.5156z" fill="url(#l)" opacity=".1"/><path d="m8.1875 6.8786c-0.83038 0-1.5156 0.68525-1.5156 1.5156v13.1c0 0.83038 0.68525 1.5156 1.5156 1.5156h31.8c0.83038 0 1.4158-0.68525 1.4158-1.5156v-13.1c0-0.83038-0.68525-1.5156-1.5156-1.5156z" fill="url(#f)" opacity=".15"/><path d="m8.3375 6.6289c-0.83038 0-1.5156 0.68525-1.5156 1.5156v13.1c0 0.83038 0.53544 1.4158 1.3658 1.4158h31.8c0.83038 0 1.2658-0.63538 1.2658-1.4658v-13.05c0-0.83038-0.68525-1.5156-1.5156-1.5156z" fill="url(#m)" opacity=".2"/><path d="m7.9878 7.3786c-0.5506 0-1.0156 0.46503-1.0156 1.0156v13c0 0.5506 0.46503 1.0156 1.0156 1.0156h32c0.5506 0 1.0156-0.46503 1.0156-1.0156v-13c0-0.5506-0.46503-1.0156-1.0156-1.0156z" fill="#333" opacity=".5"/><path d="m7.9878 7.8944h32c0.277 0 0.5 0.223 0.5 0.5v13c0 0.277-0.223 0.5-0.5 0.5h-32c-0.277 0-0.5-0.223-0.5-0.5v-13c0-0.277 0.223-0.5 0.5-0.5z" fill="#dfd0b1"/><path d="m7.9878 7.8944h32c0.277 0 0.50102 0.22305 0.5 0.5-14.269 3.577-20.5 6.05-32.5 13.5-0.27683 0-0.5-0.223-0.5-0.5v-13c0-0.277 0.223-0.5 0.5-0.5z" fill="url(#o)" opacity=".9"/><path d="m18.488 12.879c-0.55716 0-1.0156 0.45847-1.0156 1.0156v2.5c0 0.55716 0.45847 1.0156 1.0156 1.0156h11c0.55716 0 1.0156-0.45847 1.0156-1.0156v-2.5c0-0.55716-0.45847-1.0156-1.0156-1.0156h-1c-0.55716 0-1.0156 0.45847-1.0156 1.0156v0.48438h-6.9688v-0.48438c0-0.55716-0.45847-1.0156-1.0156-1.0156z" fill="url(#i)" opacity=".25"/><path d="m8.0877 25.579c-0.83038 0-1.5156 0.68525-1.5156 1.5156v13.4c0 0.83038 0.68525 1.5156 1.5156 1.5156h32.2c0.83038 0 1.5156-0.68525 1.5156-1.5156v-13.4c0-0.83038-0.68525-1.5156-1.5156-1.5156z" fill="url(#d)" opacity=".07"/><path d="m8.0877 25.328c-0.83038 0-1.5156 0.68525-1.5156 1.5156v13.2c0 0.83037 0.68525 1.5156 1.5156 1.5156h32c0.83037 0 1.5156-0.68525 1.5156-1.5156v-13.2c0-0.83038-0.68525-1.5156-1.5156-1.5156z" fill="url(#j)" opacity=".1"/><path d="m8.1875 25.079c-0.83038 0-1.5156 0.68525-1.5156 1.5156v13.1c0 0.83038 0.68525 1.5156 1.5156 1.5156h31.8c0.83038 0 1.4158-0.68525 1.4158-1.5156v-13.1c0-0.83038-0.68525-1.5156-1.5156-1.5156z" fill="url(#c)" opacity=".15"/><path d="m8.3375 24.828c-0.83038 0-1.5156 0.68525-1.5156 1.5156v13.1c0 0.83038 0.53544 1.4158 1.3658 1.4158h31.8c0.83038 0 1.2658-0.63538 1.2658-1.4658v-13.05c0-0.83038-0.68525-1.5156-1.5156-1.5156z" fill="url(#k)" opacity=".2"/><path d="m7.9878 25.579c-0.5506 0-1.0156 0.46503-1.0156 1.0156v13c0 0.5506 0.46503 1.0156 1.0156 1.0156h32c0.5506 0 1.0156-0.46503 1.0156-1.0156v-13c0-0.5506-0.46503-1.0156-1.0156-1.0156z" fill="#333" opacity=".5"/><path d="m7.9878 26.094h32c0.277 0 0.5 0.223 0.5 0.5v13c0 0.277-0.223 0.5-0.5 0.5h-32c-0.277 0-0.5-0.223-0.5-0.5v-13c0-0.277 0.223-0.5 0.5-0.5z" fill="#dfd0b1"/><path d="m18.488 13.394c-0.277 0-0.5 0.223-0.5 0.5v2.5c0 0.277 0.223 0.5 0.5 0.5h11c0.277 0 0.5-0.223 0.5-0.5v-2.5c0-0.277-0.223-0.5-0.5-0.5h-1c-0.277 0-0.5 0.223-0.5 0.5v0.55c0 0.29549-0.27857 0.45-0.5 0.45h-7c-0.2443 0-0.5-0.21156-0.5-0.45v-0.55c0-0.277-0.223-0.5-0.5-0.5z" fill="#333"/><path d="m7.9878 26.094h32c0.277 0 0.49743 0.22672 0.5 0.5-14.269 3.5771-20.5 6.05-32.5 13.5-0.27493 0-0.5-0.223-0.5-0.5v-13c0-0.277 0.223-0.5 0.5-0.5z" fill="url(#n)" opacity=".9"/><path d="m18.488 31.094c-0.55716 0-1.0156 0.45847-1.0156 1.0156v2.5c0 0.55716 0.45847 1.0156 1.0156 1.0156h11c0.55716 0 1.0156-0.45847 1.0156-1.0156v-2.5c0-0.55716-0.45847-1.0156-1.0156-1.0156h-1c-0.55716 0-1.0156 0.45847-1.0156 1.0156v0.48438h-6.9688v-0.48438c0-0.55716-0.45847-1.0156-1.0156-1.0156z" fill="url(#g)" opacity=".25"/><path d="m18.488 31.61c-0.277 0-0.5 0.223-0.5 0.5v2.5c0 0.277 0.223 0.5 0.5 0.5h11c0.277 0 0.5-0.223 0.5-0.5v-2.5c0-0.277-0.223-0.5-0.5-0.5h-1c-0.277 0-0.5 0.223-0.5 0.5v0.55c0 0.29549-0.27857 0.45-0.5 0.45h-7c-0.2443 0-0.5-0.21156-0.5-0.45v-0.55c0-0.277-0.223-0.5-0.5-0.5z" fill="#333"/></svg>
