<?xml version="1.0" encoding="UTF-8"?>
<svg id="ah" version="1.1" viewBox="0 0 128 128" xmlns="http://www.w3.org/2000/svg" xmlns:xlink="http://www.w3.org/1999/xlink"><defs id="ai"><linearGradient id="p"><stop id="aj" stop-color="#f8ead4" offset="0"/><stop id="ak" stop-color="#f8ead4" stop-opacity="0" offset="1"/></linearGradient><linearGradient id="q"><stop id="al" stop-color="#482205" offset="0"/><stop id="am" stop-color="#803d08" stop-opacity="0" offset="1"/></linearGradient><linearGradient id="r"><stop id="an" stop-color="#803d08" offset="0"/><stop id="ao" stop-color="#803d08" stop-opacity="0" offset="1"/></linearGradient><linearGradient id="s"><stop id="ap" stop-color="#c2851d" offset="0"/><stop id="aq" stop-color="#ac6c16" offset=".74646"/><stop id="ar" stop-color="#7f3c07" offset="1"/></linearGradient><linearGradient id="v"><stop id="as" stop-color="#ffd12d" offset="0"/><stop id="at" stop-color="#dfa925" offset=".74646"/><stop id="au" stop-color="#c0811d" offset="1"/></linearGradient><linearGradient id="n"><stop id="av" stop-color="#555" offset="0"/><stop id="aw" stop-color="#979797" offset=".2"/><stop id="ax" stop-color="#b1b1b1" offset=".35152"/><stop id="ay" stop-color="#eee" offset=".40671"/><stop id="az" stop-color="#e6e6e6" offset=".51806"/><stop id="ba" stop-color="#888" offset=".77788"/><stop id="bb" stop-color="#ddd" offset="1"/></linearGradient><linearGradient id="w" x1="73.263" x2="73.263" y1="-2.7678" y2="117.11" gradientUnits="userSpaceOnUse"><stop id="bc" stop-color="#ffe588" offset="0"/><stop id="bd" stop-color="#c0811d" offset="1"/></linearGradient><filter id="ae" color-interpolation-filters="sRGB"><feGaussianBlur id="be" stdDeviation="0.82756696"/></filter><linearGradient id="u" x1="-18.538" x2="6.9841" y1="45.93" y2="18.385" gradientUnits="userSpaceOnUse" spreadMethod="reflect"><stop id="bf" offset="0"/><stop id="bg" stop-color="#333" offset="1"/></linearGradient><filter id="ad" color-interpolation-filters="sRGB"><feGaussianBlur id="bh" stdDeviation="1.162016"/></filter><clipPath id="ag"><path id="bi" transform="matrix(1.1071 0 0 .87068 175.64 24.622)" d="m70.371 86.286c-10.931 10.931-69.78 10.931-80.711 0-10.931-10.931-10.931-69.78-1e-6 -80.711 10.931-10.931 69.78-10.931 80.711-3e-7 10.931 10.931 10.931 69.78 0 80.711z" fill="#c0811d" fill-rule="evenodd"/></clipPath><linearGradient id="t" x1="78.569" x2="78.569" y1="-67.576" y2="151.92" gradientUnits="userSpaceOnUse"><stop id="bj" stop-color="#095200" offset="0"/><stop id="bk" stop-color="#095200" stop-opacity="0" offset="1"/></linearGradient><linearGradient id="g" x1="35.025" x2="41.578" y1="113.16" y2="113.16" gradientUnits="userSpaceOnUse" xlink:href="#s" spreadMethod="reflect"/><linearGradient id="f" x1="41.578" x2="41.578" y1="117.03" y2="109.82" gradientUnits="userSpaceOnUse" xlink:href="#r"/><radialGradient id="b" cx="66.642" cy="114.04" r="45.863" gradientTransform="matrix(1 0 0 .052632 0 108.04)" gradientUnits="userSpaceOnUse" xlink:href="#q"/><filter id="c" x="-.025376" y="-.48214" width="1.0508" height="1.9643" color-interpolation-filters="sRGB"><feGaussianBlur id="bl" stdDeviation="0.96983943"/></filter><filter id="i" color-interpolation-filters="sRGB"><feGaussianBlur id="bm" stdDeviation="0.48947371"/></filter><clipPath id="k"><path id="bn" transform="matrix(1.0986 0 0 .864 242.66 24.642)" d="m70.371 86.286c-10.931 10.931-69.78 10.931-80.711 0-10.931-10.931-10.931-69.78-1e-6 -80.711 10.931-10.931 69.78-10.931 80.711-3e-7 10.931 10.931 10.931 69.78 0 80.711z" fill="#c0811d" fill-rule="evenodd"/></clipPath><linearGradient id="e" x1="283.24" x2="283.24" y1="18.594" y2="99.074" gradientUnits="userSpaceOnUse" xlink:href="#p"/><filter id="h" color-interpolation-filters="sRGB"><feGaussianBlur id="bo" stdDeviation="1.9451837"/></filter><clipPath id="j"><path id="bp" transform="matrix(.852 0 0 .67008 181.51 40.836)" d="m70.371 86.286c-10.931 10.931-69.78 10.931-80.711 0-10.931-10.931-10.931-69.78-1e-6 -80.711 10.931-10.931 69.78-10.931 80.711-3e-7 10.931 10.931 10.931 69.78 0 80.711z" fill="#000" fill-rule="evenodd" opacity=".87727"/></clipPath><linearGradient id="o" x1="70.237" x2="70.237" y1="24.065" y2="76.669" gradientUnits="userSpaceOnUse"><stop id="bq" stop-color="#fff" offset="0"/><stop id="br" stop-color="#f0ff90" stop-opacity=".37143" offset=".35965"/><stop id="bs" stop-color="#efff82" stop-opacity="0" offset="1"/></linearGradient><linearGradient id="d" x1="76.725" x2="80.875" y1="11.819" y2="16.375" gradientUnits="userSpaceOnUse" xlink:href="#n"/><radialGradient id="a" cx="65.593" cy="14.76" r="7.2415" fy="10.142" gradientUnits="userSpaceOnUse" xlink:href="#v"/><filter id="ac" x="-.10519" y="-.31557" width="1.2104" height="1.6311" color-interpolation-filters="sRGB"><feGaussianBlur id="bt" stdDeviation="1.0683239"/></filter><clipPath id="af"><path id="bu" transform="matrix(.60194 0 0 1.1761 28.905 14.393)" d="m72.834 14.76a7.2415 7.2415 0 1 1-14.483 0 7.2415 7.2415 0 1 1 14.483 0z" fill="url(#a)" fill-rule="evenodd"/></clipPath><filter id="ab" color-interpolation-filters="sRGB"><feGaussianBlur id="bv" stdDeviation="0.21680048"/></filter><filter id="aa" color-interpolation-filters="sRGB"><feGaussianBlur id="bw" stdDeviation="0.62695319"/></filter><mask id="m"><g id="bx" transform="matrix(1.1737 0 0 1.4924 228.2 -1423.3)"><path id="by" d="m-224.75 951.61c-1.2465 0-2.25 0.0904-2.25 0.1875s1.0035 0.15625 2.25 0.15625h116.25c1.2465 0 2.25-0.0591 2.25-0.15625 0-0.0971-1.0035-0.1875-2.25-0.1875h-116.25zm0 1.6875c-1.2465 0-2.25 0.0904-2.25 0.1875s1.0035 0.15625 2.25 0.15625h116.25c1.2465 0 2.25-0.0591 2.25-0.15625 0-0.0971-1.0035-0.1875-2.25-0.1875h-116.25zm0 1.6875c-1.2465 0-2.25 0.0904-2.25 0.1875s1.0035 0.15625 2.25 0.15625h116.25c1.2465 0 2.25-0.0591 2.25-0.15625 0-0.0971-1.0035-0.1875-2.25-0.1875h-116.25zm0 1.6875c-1.2465 0-2.25 0.0904-2.25 0.1875s1.0035 0.15625 2.25 0.15625h116.25c1.2465 0 2.25-0.0591 2.25-0.15625 0-0.0971-1.0035-0.1875-2.25-0.1875h-116.25zm0 1.6875c-1.2465 0-2.25 0.0904-2.25 0.1875s1.0035 0.1875 2.25 0.1875h116.25c1.2465 0 2.25-0.0904 2.25-0.1875s-1.0035-0.1875-2.25-0.1875h-116.25zm0 1.6875c-1.2465 0-2.25 0.0904-2.25 0.1875s1.0035 0.1875 2.25 0.1875h116.25c1.2465 0 2.25-0.0904 2.25-0.1875s-1.0035-0.1875-2.25-0.1875h-116.25zm0 1.6875c-1.2465 0-2.25 0.0904-2.25 0.1875s1.0035 0.1875 2.25 0.1875h116.25c1.2465 0 2.25-0.0904 2.25-0.1875s-1.0035-0.1875-2.25-0.1875h-116.25zm0 1.7188c-1.2465 0-2.25 0.0592-2.25 0.15625 0 0.0971 1.0035 0.1875 2.25 0.1875h116.25c1.2465 0 2.25-0.0904 2.25-0.1875s-1.0035-0.15625-2.25-0.15625h-116.25zm0 1.6875c-1.2465 0-2.25 0.0592-2.25 0.15625 0 0.0971 1.0035 0.1875 2.25 0.1875h116.25c1.2465 0 2.25-0.0904 2.25-0.1875s-1.0035-0.15625-2.25-0.15625h-116.25zm0 1.6875c-1.2465 0-2.25 0.0592-2.25 0.15625 0 0.0971 1.0035 0.1875 2.25 0.1875h116.25c1.2465 0 2.25-0.0904 2.25-0.1875s-1.0035-0.15625-2.25-0.15625h-116.25zm0 1.6875c-1.2465 0-2.25 0.0592-2.25 0.15625 0 0.0971 1.0035 0.1875 2.25 0.1875h116.25c1.2465 0 2.25-0.0904 2.25-0.1875s-1.0035-0.15625-2.25-0.15625h-116.25zm0 1.6875c-1.2465 0-2.25 0.0592-2.25 0.15625 0 0.0971 1.0035 0.1875 2.25 0.1875h116.25c1.2465 0 2.25-0.0904 2.25-0.1875s-1.0035-0.15625-2.25-0.15625h-116.25zm0 1.6875c-1.2465 0-2.25 0.0592-2.25 0.15625 0 0.0971 1.0035 0.1875 2.25 0.1875h116.25c1.2465 0 2.25-0.0904 2.25-0.1875s-1.0035-0.15625-2.25-0.15625h-116.25zm0 1.6875c-1.2465 0-2.25 0.0904-2.25 0.1875s1.0035 0.15625 2.25 0.15625h116.25c1.2465 0 2.25-0.0591 2.25-0.15625 0-0.0971-1.0035-0.1875-2.25-0.1875h-116.25zm0 1.6875c-1.2465 0-2.25 0.0904-2.25 0.1875s1.0035 0.15625 2.25 0.15625h116.25c1.2465 0 2.25-0.0591 2.25-0.15625 0-0.0971-1.0035-0.1875-2.25-0.1875h-116.25zm0 1.6875c-1.2465 0-2.25 0.0904-2.25 0.1875s1.0035 0.15625 2.25 0.15625h116.25c1.2465 0 2.25-0.0591 2.25-0.15625 0-0.0971-1.0035-0.1875-2.25-0.1875h-116.25zm0 1.6875c-1.2465 0-2.25 0.0904-2.25 0.1875s1.0035 0.15625 2.25 0.15625h116.25c1.2465 0 2.25-0.0591 2.25-0.15625 0-0.0971-1.0035-0.1875-2.25-0.1875h-116.25zm0 1.6875c-1.2465 0-2.25 0.0904-2.25 0.1875s1.0035 0.15625 2.25 0.15625h116.25c1.2465 0 2.25-0.0591 2.25-0.15625 0-0.0971-1.0035-0.1875-2.25-0.1875h-116.25zm0 1.6875c-1.2465 0-2.25 0.0904-2.25 0.1875s1.0035 0.1875 2.25 0.1875h116.25c1.2465 0 2.25-0.0904 2.25-0.1875s-1.0035-0.1875-2.25-0.1875h-116.25zm0 1.6875c-1.2465 0-2.25 0.0904-2.25 0.1875s1.0035 0.1875 2.25 0.1875h116.25c1.2465 0 2.25-0.0904 2.25-0.1875s-1.0035-0.1875-2.25-0.1875h-116.25zm0 1.6875c-1.2465 0-2.25 0.0904-2.25 0.1875s1.0035 0.1875 2.25 0.1875h116.25c1.2465 0 2.25-0.0904 2.25-0.1875s-1.0035-0.1875-2.25-0.1875h-116.25zm0 1.7188c-1.2465 0-2.25 0.0592-2.25 0.15625 0 0.0971 1.0035 0.1875 2.25 0.1875h116.25c1.2465 0 2.25-0.0904 2.25-0.1875s-1.0035-0.15625-2.25-0.15625h-116.25zm0 1.6875c-1.2465 0-2.25 0.0592-2.25 0.15625 0 0.0971 1.0035 0.1875 2.25 0.1875h116.25c1.2465 0 2.25-0.0904 2.25-0.1875s-1.0035-0.15625-2.25-0.15625h-116.25zm-0.25 1.6875c-1.2465 0-2.25 0.0592-2.25 0.15625 0 0.0971 1.0035 0.1875 2.25 0.1875h116.25c1.2465 0 2.25-0.0904 2.25-0.1875s-1.0035-0.15625-2.25-0.15625h-116.25zm0.25 1.6875c-1.2465 0-2.25 0.0592-2.25 0.15625 0 0.0971 1.0035 0.1875 2.25 0.1875h116.25c1.2465 0 2.25-0.0904 2.25-0.1875s-1.0035-0.15625-2.25-0.15625h-116.25zm-0.25 1.6875c-1.2465 0-2.25 0.0592-2.25 0.15625 0 0.0971 1.0035 0.1875 2.25 0.1875h116.25c1.2465 0 2.25-0.0904 2.25-0.1875s-1.0035-0.15625-2.25-0.15625h-116.25zm0.25 1.6875c-1.2465 0-2.25 0.0592-2.25 0.15625 0 0.0971 1.0035 0.1875 2.25 0.1875h116.25c1.2465 0 2.25-0.0904 2.25-0.1875s-1.0035-0.15625-2.25-0.15625h-116.25zm-0.25 1.6875c-1.2465 0-2.25 0.0904-2.25 0.1875s1.0035 0.15625 2.25 0.15625h116.25c1.2465 0 2.25-0.0591 2.25-0.15625 0-0.0971-1.0035-0.1875-2.25-0.1875h-116.25zm0.25 1.6875c-1.2465 0-2.25 0.0904-2.25 0.1875s1.0035 0.15625 2.25 0.15625h116.25c1.2465 0 2.25-0.0591 2.25-0.15625 0-0.0971-1.0035-0.1875-2.25-0.1875h-116.25zm-0.25 1.6875c-1.2465 0-2.25 0.09-2.25 0.1875 0 0.097 1.0035 0.1562 2.25 0.1562h116.25c1.2465 0 2.25-0.059 2.25-0.1562 0-0.097-1.0035-0.1875-2.25-0.1875h-116.25zm0.25 1.6875c-1.2465 0-2.25 0.09-2.25 0.1875 0 0.097 1.0035 0.1562 2.25 0.1562h116.25c1.2465 0 2.25-0.059 2.25-0.1562 0-0.097-1.0035-0.1875-2.25-0.1875h-116.25zm-0.25 1.6875c-1.2465 0-2.25 0.09-2.25 0.1875 0 0.097 1.0035 0.1562 2.25 0.1562h116.25c1.2465 0 2.25-0.059 2.25-0.1562 0-0.097-1.0035-0.1875-2.25-0.1875h-116.25zm0.25 1.6875c-1.2465 0-2.25 0.09-2.25 0.1875 0 0.097 1.0035 0.1875 2.25 0.1875h116.25c1.2465 0 2.25-0.09 2.25-0.1875 0-0.097-1.0035-0.1875-2.25-0.1875h-116.25zm-0.25 1.6875c-1.2465 0-2.25 0.09-2.25 0.1875 0 0.097 1.0035 0.1875 2.25 0.1875h116.25c1.2465 0 2.25-0.09 2.25-0.1875 0-0.097-1.0035-0.1875-2.25-0.1875h-116.25zm0.25 1.6875c-1.2465 0-2.25 0.09-2.25 0.1875 0 0.097 1.0035 0.1875 2.25 0.1875h116.25c1.2465 0 2.25-0.09 2.25-0.1875 0-0.097-1.0035-0.1875-2.25-0.1875h-116.25zm-0.25 1.7187c-1.2465 0-2.25 0.059-2.25 0.1563 0 0.097 1.0035 0.1875 2.25 0.1875h116.25c1.2465 0 2.25-0.09 2.25-0.1875 0-0.097-1.0035-0.1563-2.25-0.1563h-116.25zm0.25 1.6875c-1.2465 0-2.25 0.059-2.25 0.1563 0 0.097 1.0035 0.1875 2.25 0.1875h116.25c1.2465 0 2.25-0.09 2.25-0.1875 0-0.097-1.0035-0.1563-2.25-0.1563h-116.25zm-0.25 1.6875c-1.2465 0-2.25 0.059-2.25 0.1563 0 0.097 1.0035 0.1875 2.25 0.1875h116.25c1.2465 0 2.25-0.09 2.25-0.1875 0-0.097-1.0035-0.1563-2.25-0.1563h-116.25zm0 1.6875c-1.2465 0-2.25 0.059-2.25 0.1563 0 0.097 1.0035 0.1875 2.25 0.1875h116.25c1.2465 0 2.25-0.09 2.25-0.1875 0-0.097-1.0035-0.1563-2.25-0.1563h-116.25zm0 1.6875c-1.2465 0-2.25 0.059-2.25 0.1563 0 0.097 1.0035 0.1875 2.25 0.1875h116.25c1.2465 0 2.25-0.09 2.25-0.1875 0-0.097-1.0035-0.1563-2.25-0.1563h-116.25z" fill="#fff" fill-rule="evenodd" filter="url(#aa)"/><path id="bz" d="m-224.75 951.61c-1.2465 0-2.25 0.0904-2.25 0.1875s1.0035 0.15625 2.25 0.15625h116.25c1.2465 0 2.25-0.0591 2.25-0.15625 0-0.0971-1.0035-0.1875-2.25-0.1875h-116.25zm0 1.6875c-1.2465 0-2.25 0.0904-2.25 0.1875s1.0035 0.15625 2.25 0.15625h116.25c1.2465 0 2.25-0.0591 2.25-0.15625 0-0.0971-1.0035-0.1875-2.25-0.1875h-116.25zm0 1.6875c-1.2465 0-2.25 0.0904-2.25 0.1875s1.0035 0.15625 2.25 0.15625h116.25c1.2465 0 2.25-0.0591 2.25-0.15625 0-0.0971-1.0035-0.1875-2.25-0.1875h-116.25zm0 1.6875c-1.2465 0-2.25 0.0904-2.25 0.1875s1.0035 0.15625 2.25 0.15625h116.25c1.2465 0 2.25-0.0591 2.25-0.15625 0-0.0971-1.0035-0.1875-2.25-0.1875h-116.25zm0 1.6875c-1.2465 0-2.25 0.0904-2.25 0.1875s1.0035 0.1875 2.25 0.1875h116.25c1.2465 0 2.25-0.0904 2.25-0.1875s-1.0035-0.1875-2.25-0.1875h-116.25zm0 1.6875c-1.2465 0-2.25 0.0904-2.25 0.1875s1.0035 0.1875 2.25 0.1875h116.25c1.2465 0 2.25-0.0904 2.25-0.1875s-1.0035-0.1875-2.25-0.1875h-116.25zm0 1.6875c-1.2465 0-2.25 0.0904-2.25 0.1875s1.0035 0.1875 2.25 0.1875h116.25c1.2465 0 2.25-0.0904 2.25-0.1875s-1.0035-0.1875-2.25-0.1875h-116.25zm0 1.7188c-1.2465 0-2.25 0.0592-2.25 0.15625 0 0.0971 1.0035 0.1875 2.25 0.1875h116.25c1.2465 0 2.25-0.0904 2.25-0.1875s-1.0035-0.15625-2.25-0.15625h-116.25zm0 1.6875c-1.2465 0-2.25 0.0592-2.25 0.15625 0 0.0971 1.0035 0.1875 2.25 0.1875h116.25c1.2465 0 2.25-0.0904 2.25-0.1875s-1.0035-0.15625-2.25-0.15625h-116.25zm0 1.6875c-1.2465 0-2.25 0.0592-2.25 0.15625 0 0.0971 1.0035 0.1875 2.25 0.1875h116.25c1.2465 0 2.25-0.0904 2.25-0.1875s-1.0035-0.15625-2.25-0.15625h-116.25zm0 1.6875c-1.2465 0-2.25 0.0592-2.25 0.15625 0 0.0971 1.0035 0.1875 2.25 0.1875h116.25c1.2465 0 2.25-0.0904 2.25-0.1875s-1.0035-0.15625-2.25-0.15625h-116.25zm0 1.6875c-1.2465 0-2.25 0.0592-2.25 0.15625 0 0.0971 1.0035 0.1875 2.25 0.1875h116.25c1.2465 0 2.25-0.0904 2.25-0.1875s-1.0035-0.15625-2.25-0.15625h-116.25zm0 1.6875c-1.2465 0-2.25 0.0592-2.25 0.15625 0 0.0971 1.0035 0.1875 2.25 0.1875h116.25c1.2465 0 2.25-0.0904 2.25-0.1875s-1.0035-0.15625-2.25-0.15625h-116.25zm0 1.6875c-1.2465 0-2.25 0.0904-2.25 0.1875s1.0035 0.15625 2.25 0.15625h116.25c1.2465 0 2.25-0.0591 2.25-0.15625 0-0.0971-1.0035-0.1875-2.25-0.1875h-116.25zm0 1.6875c-1.2465 0-2.25 0.0904-2.25 0.1875s1.0035 0.15625 2.25 0.15625h116.25c1.2465 0 2.25-0.0591 2.25-0.15625 0-0.0971-1.0035-0.1875-2.25-0.1875h-116.25zm0 1.6875c-1.2465 0-2.25 0.0904-2.25 0.1875s1.0035 0.15625 2.25 0.15625h116.25c1.2465 0 2.25-0.0591 2.25-0.15625 0-0.0971-1.0035-0.1875-2.25-0.1875h-116.25zm0 1.6875c-1.2465 0-2.25 0.0904-2.25 0.1875s1.0035 0.15625 2.25 0.15625h116.25c1.2465 0 2.25-0.0591 2.25-0.15625 0-0.0971-1.0035-0.1875-2.25-0.1875h-116.25zm0 1.6875c-1.2465 0-2.25 0.0904-2.25 0.1875s1.0035 0.15625 2.25 0.15625h116.25c1.2465 0 2.25-0.0591 2.25-0.15625 0-0.0971-1.0035-0.1875-2.25-0.1875h-116.25zm0 1.6875c-1.2465 0-2.25 0.0904-2.25 0.1875s1.0035 0.1875 2.25 0.1875h116.25c1.2465 0 2.25-0.0904 2.25-0.1875s-1.0035-0.1875-2.25-0.1875h-116.25zm0 1.6875c-1.2465 0-2.25 0.0904-2.25 0.1875s1.0035 0.1875 2.25 0.1875h116.25c1.2465 0 2.25-0.0904 2.25-0.1875s-1.0035-0.1875-2.25-0.1875h-116.25zm0 1.6875c-1.2465 0-2.25 0.0904-2.25 0.1875s1.0035 0.1875 2.25 0.1875h116.25c1.2465 0 2.25-0.0904 2.25-0.1875s-1.0035-0.1875-2.25-0.1875h-116.25zm0 1.7188c-1.2465 0-2.25 0.0592-2.25 0.15625 0 0.0971 1.0035 0.1875 2.25 0.1875h116.25c1.2465 0 2.25-0.0904 2.25-0.1875s-1.0035-0.15625-2.25-0.15625h-116.25zm0 1.6875c-1.2465 0-2.25 0.0592-2.25 0.15625 0 0.0971 1.0035 0.1875 2.25 0.1875h116.25c1.2465 0 2.25-0.0904 2.25-0.1875s-1.0035-0.15625-2.25-0.15625h-116.25zm-0.25 1.6875c-1.2465 0-2.25 0.0592-2.25 0.15625 0 0.0971 1.0035 0.1875 2.25 0.1875h116.25c1.2465 0 2.25-0.0904 2.25-0.1875s-1.0035-0.15625-2.25-0.15625h-116.25zm0.25 1.6875c-1.2465 0-2.25 0.0592-2.25 0.15625 0 0.0971 1.0035 0.1875 2.25 0.1875h116.25c1.2465 0 2.25-0.0904 2.25-0.1875s-1.0035-0.15625-2.25-0.15625h-116.25zm-0.25 1.6875c-1.2465 0-2.25 0.0592-2.25 0.15625 0 0.0971 1.0035 0.1875 2.25 0.1875h116.25c1.2465 0 2.25-0.0904 2.25-0.1875s-1.0035-0.15625-2.25-0.15625h-116.25zm0.25 1.6875c-1.2465 0-2.25 0.0592-2.25 0.15625 0 0.0971 1.0035 0.1875 2.25 0.1875h116.25c1.2465 0 2.25-0.0904 2.25-0.1875s-1.0035-0.15625-2.25-0.15625h-116.25zm-0.25 1.6875c-1.2465 0-2.25 0.0904-2.25 0.1875s1.0035 0.15625 2.25 0.15625h116.25c1.2465 0 2.25-0.0591 2.25-0.15625 0-0.0971-1.0035-0.1875-2.25-0.1875h-116.25zm0.25 1.6875c-1.2465 0-2.25 0.0904-2.25 0.1875s1.0035 0.15625 2.25 0.15625h116.25c1.2465 0 2.25-0.0591 2.25-0.15625 0-0.0971-1.0035-0.1875-2.25-0.1875h-116.25zm-0.25 1.6875c-1.2465 0-2.25 0.09-2.25 0.1875 0 0.097 1.0035 0.1562 2.25 0.1562h116.25c1.2465 0 2.25-0.059 2.25-0.1562 0-0.097-1.0035-0.1875-2.25-0.1875h-116.25zm0.25 1.6875c-1.2465 0-2.25 0.09-2.25 0.1875 0 0.097 1.0035 0.1562 2.25 0.1562h116.25c1.2465 0 2.25-0.059 2.25-0.1562 0-0.097-1.0035-0.1875-2.25-0.1875h-116.25zm-0.25 1.6875c-1.2465 0-2.25 0.09-2.25 0.1875 0 0.097 1.0035 0.1562 2.25 0.1562h116.25c1.2465 0 2.25-0.059 2.25-0.1562 0-0.097-1.0035-0.1875-2.25-0.1875h-116.25zm0.25 1.6875c-1.2465 0-2.25 0.09-2.25 0.1875 0 0.097 1.0035 0.1875 2.25 0.1875h116.25c1.2465 0 2.25-0.09 2.25-0.1875 0-0.097-1.0035-0.1875-2.25-0.1875h-116.25zm-0.25 1.6875c-1.2465 0-2.25 0.09-2.25 0.1875 0 0.097 1.0035 0.1875 2.25 0.1875h116.25c1.2465 0 2.25-0.09 2.25-0.1875 0-0.097-1.0035-0.1875-2.25-0.1875h-116.25zm0.25 1.6875c-1.2465 0-2.25 0.09-2.25 0.1875 0 0.097 1.0035 0.1875 2.25 0.1875h116.25c1.2465 0 2.25-0.09 2.25-0.1875 0-0.097-1.0035-0.1875-2.25-0.1875h-116.25zm-0.25 1.7187c-1.2465 0-2.25 0.059-2.25 0.1563 0 0.097 1.0035 0.1875 2.25 0.1875h116.25c1.2465 0 2.25-0.09 2.25-0.1875 0-0.097-1.0035-0.1563-2.25-0.1563h-116.25zm0.25 1.6875c-1.2465 0-2.25 0.059-2.25 0.1563 0 0.097 1.0035 0.1875 2.25 0.1875h116.25c1.2465 0 2.25-0.09 2.25-0.1875 0-0.097-1.0035-0.1563-2.25-0.1563h-116.25zm-0.25 1.6875c-1.2465 0-2.25 0.059-2.25 0.1563 0 0.097 1.0035 0.1875 2.25 0.1875h116.25c1.2465 0 2.25-0.09 2.25-0.1875 0-0.097-1.0035-0.1563-2.25-0.1563h-116.25zm0 1.6875c-1.2465 0-2.25 0.059-2.25 0.1563 0 0.097 1.0035 0.1875 2.25 0.1875h116.25c1.2465 0 2.25-0.09 2.25-0.1875 0-0.097-1.0035-0.1563-2.25-0.1563h-116.25zm0 1.6875c-1.2465 0-2.25 0.059-2.25 0.1563 0 0.097 1.0035 0.1875 2.25 0.1875h116.25c1.2465 0 2.25-0.09 2.25-0.1875 0-0.097-1.0035-0.1563-2.25-0.1563h-116.25z" fill="#fff" fill-rule="evenodd"/></g></mask><radialGradient id="l" cx="30.015" cy="45.93" r="48.554" fy="11.561" gradientTransform="matrix(1.0705 0 0 1.0705 -2.1155 -3.2372)" gradientUnits="userSpaceOnUse"><stop id="ca" stop-color="#e1ff8d" offset="0"/><stop id="cb" stop-color="#e1ff8d" stop-opacity="0" offset="1"/></radialGradient><filter id="z" color-interpolation-filters="sRGB"><feGaussianBlur id="cc" stdDeviation="0.43664568"/></filter><filter id="y" color-interpolation-filters="sRGB"><feGaussianBlur id="cd" stdDeviation="0.041264801"/></filter><filter id="x" x="-.033835" y="-.64286" width="1.0677" height="2.2857" color-interpolation-filters="sRGB"><feGaussianBlur id="ce" stdDeviation="1.2931192"/></filter></defs><g id="cf" transform="translate(0 -924.36)"><path id="cg" transform="translate(-2.5188 924.57)" d="m112.51 114.04a45.863 2.4138 0 1 1-91.725 0 45.863 2.4138 0 1 1 91.725 0z" fill="url(#b)" fill-rule="evenodd" filter="url(#c)"/><path id="ch" transform="matrix(-.79866 -.10775 -.10775 .79866 146.4 939.13)" d="m88.594 7.25a0.48961 0.48961 0 0 0-0.28125 0.125s-4.8283 4.1564-9.7188 8.375c-2.4452 2.1093-4.8889 4.2463-6.7812 5.875-0.94616 0.81434-1.758 1.498-2.3438 2s-0.9912 0.84296-1.0312 0.875a0.48961 0.48961 0 0 0-0.03125 0.71875l2 1.875a0.48961 0.48961 0 0 0 0.6875 0l17.875-19a0.48961 0.48961 0 0 0-0.375-0.84375z" fill="url(#d)"/><path id="ci" transform="matrix(.79934 .10256 -.10256 .79934 41.675 925.28)" d="m88.594 7.25a0.48961 0.48961 0 0 0-0.28125 0.125s-4.8283 4.1564-9.7188 8.375c-2.4452 2.1093-4.8889 4.2463-6.7812 5.875-0.94616 0.81434-1.758 1.498-2.3438 2s-0.9912 0.84296-1.0312 0.875a0.48961 0.48961 0 0 0-0.03125 0.71875l2 1.875a0.48961 0.48961 0 0 0 0.6875 0l17.875-19a0.48961 0.48961 0 0 0-0.375-0.84375z" fill="url(#d)"/><g id="cj" transform="matrix(1 0 0 1.1632 66.195 -172.38)" fill-rule="evenodd"><rect id="ck" transform="translate(0 924.36)" x="29.09" y="109.3" width="12.488" height="7.7178" rx="2.25" ry="2.25" fill="url(#g)"/><rect id="cl" transform="translate(0 924.36)" x="29.09" y="109.3" width="12.488" height="7.7178" rx="2.25" ry="2.25" fill="url(#f)"/></g><g id="cm" transform="matrix(1 0 0 1.1632 -6.9757 -172.38)" fill-rule="evenodd"><rect id="cn" transform="translate(0 924.36)" x="29.09" y="109.3" width="12.488" height="7.7178" rx="2.25" ry="2.25" fill="url(#g)"/><rect id="co" transform="translate(0 924.36)" x="29.09" y="109.3" width="12.488" height="7.7178" rx="2.25" ry="2.25" fill="url(#f)"/></g><path id="cp" transform="matrix(1.1665 .14968 -.14968 1.1665 16.82 929.27)" d="m72.834 14.76a7.2415 7.2415 0 1 1-14.483 0 7.2415 7.2415 0 1 1 14.483 0z" fill="url(#a)" fill-rule="evenodd"/><path id="cq" transform="matrix(1.938 .24866 -.12727 .99187 -37.364 907.81)" d="m80.625 34.438a12.188 4.0625 0 1 1-24.375 0 12.188 4.0625 0 1 1 24.375 0z" clip-path="url(#af)" fill="#845011" fill-rule="evenodd" filter="url(#ac)"/><path id="cr" transform="matrix(1.1071 0 0 .87068 31.671 955.98)" d="m70.371 86.286c-10.931 10.931-69.78 10.931-80.711 0-10.931-10.931-10.931-69.78-1e-6 -80.711 10.931-10.931 69.78-10.931 80.711-3e-7 10.931 10.931 10.931 69.78 0 80.711z" fill="#c0811d" fill-rule="evenodd"/><path id="cs" transform="translate(0 931.36)" d="m64.906 24c-9.5883 0-19.174 0.61158-27.062 1.7812s-14.14 3.0704-16.594 5c-2.4544 1.9303-4.7478 6.6321-6.2188 12.75s-2.2188 13.609-2.2188 21.094 0.74782 14.945 2.2188 21.062 3.7643 10.82 6.2188 12.75c2.4546 1.9305 8.6777 3.8584 16.562 5.0312s17.476 1.75 27.062 1.75 19.209-0.57715 27.094-1.75 14.108-3.1008 16.562-5.0312c2.4544-1.9303 4.7478-6.6321 6.2188-12.75s2.2188-13.578 2.2188-21.062-0.74782-14.976-2.2188-21.094-3.7643-10.82-6.2188-12.75c-2.4546-1.9305-8.6819-3.8304-16.562-5s-17.474-1.7812-27.062-1.7812zm0 2.8438c8.315 0 16.618 0.49901 23.562 1.5312s12.47 2.4252 15.625 4.9062c3.1547 2.4811 5.0727 7.0463 6.4062 12.594s1.9688 12.152 1.9688 18.75-0.63521 13.171-1.9688 18.719-3.2516 10.113-6.4062 12.594c-3.1545 2.4809-8.6806 3.8734-15.625 4.9062-6.9444 1.0328-15.247 1.5312-23.562 1.5312s-16.618-0.49845-23.562-1.5312c-6.9444-1.0328-12.47-2.4253-15.625-4.9062-3.1547-2.4811-5.0727-7.0463-6.4062-12.594s-1.9688-12.12-1.9688-18.719 0.63521-13.203 1.9688-18.75 3.2516-10.113 6.4062-12.594c3.1547-2.4811 8.6805-3.874 15.625-4.9062s15.248-1.5312 23.562-1.5312z" fill="url(#w)" fill-rule="evenodd" filter="url(#ae)"/><path id="ct" transform="matrix(.94544 0 0 .74357 36.522 961.82)" d="m70.371 86.286c-10.931 10.931-69.78 10.931-80.711 0-10.931-10.931-10.931-69.78-1e-6 -80.711 10.931-10.931 69.78-10.931 80.711-3e-7 10.931 10.931 10.931 69.78 0 80.711z" fill="url(#u)" fill-rule="evenodd"/><path id="cu" transform="matrix(.85783 0 0 .67466 39.152 964.99)" d="m70.371 86.286c-10.931 10.931-69.78 10.931-80.711 0-10.931-10.931-10.931-69.78-1e-6 -80.711 10.931-10.931 69.78-10.931 80.711-3e-7 10.931 10.931 10.931 69.78 0 80.711z" fill="#000" fill-rule="evenodd"/><path id="cv" transform="matrix(.852 0 0 .67008 39.327 965.2)" d="m70.371 86.286c-10.931 10.931-69.78 10.931-80.711 0-10.931-10.931-10.931-69.78-1e-6 -80.711 10.931-10.931 69.78-10.931 80.711-3e-7 10.931 10.931 10.931 69.78 0 80.711z" fill="url(#t)" fill-rule="evenodd" opacity=".87727"/><path id="cw" transform="translate(-144.14 931.36)" d="m208.88 18.781c-20.94 0-41.477 2.5591-48.038 7.7188-13.121 10.319-13.121 65.899 0 76.219 13.121 10.319 82.654 10.319 95.775 0 13.121-10.319 13.121-65.899 0-76.219-6.5604-5.1596-26.798-7.7188-47.738-7.7188zm0 2.5625c19.313 0 37.906 2.3663 43.956 7.125 12.101 9.5173 12.101 60.764 0 70.281-12.101 9.5173-76.143 9.5173-88.244 0-12.101-9.5173-12.101-60.764 0-70.281 6.0506-4.7587 24.975-7.125 44.288-7.125z" clip-path="url(#ag)" fill="#692400" fill-rule="evenodd" filter="url(#ad)"/><g id="cx" transform="translate(1)" fill="#000" fill-rule="evenodd"><rect id="cy" transform="scale(-1,1)" x="-85.765" y="988.36" width="3.7648" height="3.7648" rx="0" ry="0" opacity=".85909"/><rect id="cz" transform="scale(-1,1)" x="-81.765" y="988.36" width="3.7648" height="3.7648" rx="0" ry="0" opacity=".85909"/><rect id="da" transform="scale(-1,1)" x="-77.765" y="988.36" width="3.7648" height="3.7648" rx="0" ry="0" opacity=".85909"/><rect id="db" transform="scale(-1,1)" x="-53.765" y="988.36" width="3.7648" height="3.7648" rx="0" ry="0" opacity=".85909"/><rect id="dc" transform="scale(-1,1)" x="-49.765" y="988.36" width="3.7648" height="3.7648" rx="0" ry="0" opacity=".85909"/><rect id="dd" transform="scale(-1,1)" x="-45.765" y="988.36" width="3.7648" height="3.7648" rx="0" ry="0" opacity=".85909"/><rect id="de" transform="scale(-1,1)" x="-77.765" y="1007.4" width="3.7648" height="3.7648" rx="0" ry="0" opacity=".85909"/><rect id="df" transform="scale(-1,1)" x="-49.765" y="976.36" width="3.7648" height="3.7648" rx="0" ry="0" opacity=".85909"/><rect id="dg" transform="scale(-1,1)" x="-53.765" y="1007.4" width="3.7648" height="3.7648" rx="0" ry="0" opacity=".85909"/><rect id="dh" transform="scale(-1,1)" x="-57.765" y="1011.4" width="3.7648" height="3.7648" rx="0" ry="0" opacity=".85909"/><rect id="di" transform="scale(-1,1)" x="-61.765" y="1011.4" width="3.7648" height="3.7648" rx="0" ry="0" opacity=".85909"/><rect id="dj" transform="scale(-1,1)" x="-73.765" y="1011.4" width="3.7648" height="3.7648" rx="0" ry="0" opacity=".85909"/><rect id="dk" transform="scale(-1,1)" x="-65.765" y="1011.4" width="3.7648" height="3.7648" rx="0" ry="0" opacity=".85909"/><rect id="dl" transform="scale(-1,1)" x="-69.765" y="1011.4" width="3.7648" height="3.7648" rx="0" ry="0" opacity=".85909"/><rect id="dm" transform="scale(-1,1)" x="-53.765" y="980.36" width="3.7648" height="3.7648" rx="0" ry="0" opacity=".85909"/><rect id="dn" transform="scale(-1,1)" x="-45.765" y="980.36" width="3.7648" height="3.7648" rx="0" ry="0" opacity=".85909"/><rect id="do" transform="scale(-1,1)" x="-53.765" y="984.36" width="3.7648" height="3.7648" rx="0" ry="0" opacity=".85909"/><rect id="dp" transform="scale(-1,1)" x="-45.765" y="984.36" width="3.7648" height="3.7648" rx="0" ry="0" opacity=".85909"/><rect id="dq" transform="scale(-1,1)" x="-81.765" y="976.36" width="3.7648" height="3.7648" rx="0" ry="0" opacity=".85909"/><rect id="dr" transform="scale(-1,1)" x="-85.765" y="980.36" width="3.7648" height="3.7648" rx="0" ry="0" opacity=".85909"/><rect id="ds" transform="scale(-1,1)" x="-77.765" y="980.36" width="3.7648" height="3.7648" rx="0" ry="0" opacity=".85909"/><rect id="dt" transform="scale(-1,1)" x="-85.765" y="984.36" width="3.7648" height="3.7648" rx="0" ry="0" opacity=".85909"/><rect id="du" transform="scale(-1,1)" x="-77.765" y="984.36" width="3.7648" height="3.7648" rx="0" ry="0" opacity=".85909"/></g><path id="dv" transform="matrix(.83348 0 0 .65552 39.662 966.37)" d="m70.371 86.286c-10.931 10.931-69.78 10.931-80.711 0-10.931-10.931-10.931-69.78-1e-6 -80.711 10.931-10.931 69.78-10.931 80.711-3e-7 10.931 10.931 10.931 69.78 0 80.711z" fill="url(#l)" fill-rule="evenodd" filter="url(#z)" mask="url(#m)" opacity=".53636"/><path id="dw" transform="translate(-2.5188 925.97)" d="m112.51 114.04a45.863 2.4138 0 1 1-91.725 0 45.863 2.4138 0 1 1 91.725 0z" fill="url(#b)" fill-rule="evenodd" filter="url(#x)" opacity=".68636"/><path id="dx" transform="matrix(.25613 0 0 .37589 11.339 996.16)" d="m112.51 114.04a45.863 2.4138 0 1 1-91.725 0 45.863 2.4138 0 1 1 91.725 0z" fill="url(#b)" fill-rule="evenodd" filter="url(#c)"/><path id="dy" transform="matrix(.25613 0 0 .37589 83.174 996.16)" d="m112.51 114.04a45.863 2.4138 0 1 1-91.725 0 45.863 2.4138 0 1 1 91.725 0z" fill="url(#b)" fill-rule="evenodd" filter="url(#c)"/><path id="dz" transform="translate(-210.75 931.79)" d="m275.62 10.812c-22.053 0-44.091 2.6912-51 8.125-13.818 10.868-13.818 69.382 0 80.25 13.818 10.868 88.213 10.868 102.03 0 13.818-10.868 13.818-69.382 0-80.25-6.9091-5.4338-28.979-8.125-51.031-8.125zm0 12.75c18.868 0 37.745 2.3196 43.656 6.9688 11.823 9.2984 11.823 59.358 0 68.656-11.823 9.2984-75.458 9.2984-87.281 0-11.823-9.2984-11.823-59.358 0-68.656 5.9114-4.6492 24.757-6.9688 43.625-6.9688z" clip-path="url(#k)" fill="url(#e)" fill-rule="evenodd" filter="url(#i)" opacity=".34545"/><path id="ea" transform="translate(-142.19 924.36)" d="m203.44 29c-18.208 0.28116-35.686 2.689-41.406 7.1875-12.202 9.5968-12.202 61.247 0 70.844 12.202 9.5968 77.892 9.5968 90.094 0 12.202-9.5968 12.202-61.247 0-70.844-6.4824-5.0983-28.052-7.5061-48.688-7.1875zm3.6562 10.562c13.53 0 27.042 1.6661 31.281 5 8.4779 6.6677 8.4779 42.582 0 49.25-8.4779 6.6677-54.116 6.6677-62.594 0-8.4779-6.6677-8.4779-42.582 0-49.25 4.239-3.3339 17.782-5 31.312-5z" clip-path="url(#j)" fill="#000" fill-rule="evenodd" filter="url(#h)" opacity=".77727"/><path id="eb" transform="matrix(.36245 .046507 -.046507 .36245 89.646 931.52)" d="m72.834 14.76a7.2415 7.2415 0 1 1-14.483 0 7.2415 7.2415 0 1 1 14.483 0z" fill="url(#a)" fill-rule="evenodd"/><path id="ec" transform="matrix(.36511 .046849 -.046849 .36511 51.174 926.52)" d="m72.834 14.76a7.2415 7.2415 0 1 1-14.483 0 7.2415 7.2415 0 1 1 14.483 0z" fill="url(#a)" fill-rule="evenodd"/><g id="ed" filter="url(#ab)"><path id="ee" transform="matrix(.88585 0 0 -.88585 -179.29 1053.4)" d="m275.62 10.812c-22.053 0-44.091 2.6912-51 8.125-13.818 10.868-13.818 69.382 0 80.25 13.818 10.868 88.213 10.868 102.03 0 13.818-10.868 13.818-69.382 0-80.25-6.9091-5.4338-28.979-8.125-51.031-8.125zm0 12.75c18.868 0 37.745 2.3196 43.656 6.9688 11.823 9.2984 11.823 59.358 0 68.656-11.823 9.2984-75.458 9.2984-87.281 0-11.823-9.2984-11.823-59.358 0-68.656 5.9114-4.6492 24.757-6.9688 43.625-6.9688z" clip-path="url(#k)" fill="url(#e)" fill-rule="evenodd" filter="url(#i)" opacity=".34545"/></g><path id="ef" transform="translate(-142.19 924.36)" d="m203.44 29c-18.208 0.28116-35.686 2.689-41.406 7.1875-12.202 9.5968-12.202 61.247 0 70.844 12.202 9.5968 77.892 9.5968 90.094 0 12.202-9.5968 12.202-61.247 0-70.844-6.4824-5.0983-28.052-7.5061-48.688-7.1875zm3.6562 10.562c13.53 0 27.042 1.6661 31.281 5 8.4779 6.6677 8.4779 42.582 0 49.25-8.4779 6.6677-54.116 6.6677-62.594 0-8.4779-6.6677-8.4779-42.582 0-49.25 4.239-3.3339 17.782-5 31.312-5z" clip-path="url(#j)" fill="#000" fill-rule="evenodd" filter="url(#h)" opacity=".77727"/><path id="eg" transform="translate(-.3 925.06)" d="m64.75 39.406c-6.4056 0-12.803 0.38422-18.219 1.1875s-9.7138 1.7192-12.812 4.1562c-3.5277 2.7745-4.9984 7.3366-6.0312 12.594a3.309 3.309 0 0 0 2.375 3.8125c9.3701 2.5539 21.118 4.0312 33.906 4.0312 13.5 0 25.833-1.6486 35.438-4.4688a3.309 3.309 0 0 0 2.3125-3.8438c-1.0411-5.036-2.4695-9.4221-5.9062-12.125-3.102-2.4397-7.4206-3.3531-12.844-4.1562s-11.813-1.1875-18.219-1.1875z" fill="url(#o)" fill-rule="evenodd" opacity=".87727"/><g id="eh" transform="translate(1)" fill="#000" fill-rule="evenodd" filter="url(#y)" opacity=".41818"><rect id="ei" transform="scale(-1,1)" x="-85.765" y="988.36" width="3.7648" height="3.7648" rx="0" ry="0" opacity=".85909"/><rect id="ej" transform="scale(-1,1)" x="-81.765" y="988.36" width="3.7648" height="3.7648" rx="0" ry="0" opacity=".85909"/><rect id="ek" transform="scale(-1,1)" x="-77.765" y="988.36" width="3.7648" height="3.7648" rx="0" ry="0" opacity=".85909"/><rect id="el" transform="scale(-1,1)" x="-53.765" y="988.36" width="3.7648" height="3.7648" rx="0" ry="0" opacity=".85909"/><rect id="em" transform="scale(-1,1)" x="-49.765" y="988.36" width="3.7648" height="3.7648" rx="0" ry="0" opacity=".85909"/><rect id="en" transform="scale(-1,1)" x="-45.765" y="988.36" width="3.7648" height="3.7648" rx="0" ry="0" opacity=".85909"/><rect id="eo" transform="scale(-1,1)" x="-77.765" y="1007.4" width="3.7648" height="3.7648" rx="0" ry="0" opacity=".85909"/><rect id="ep" transform="scale(-1,1)" x="-49.765" y="976.36" width="3.7648" height="3.7648" rx="0" ry="0" opacity=".85909"/><rect id="eq" transform="scale(-1,1)" x="-53.765" y="1007.4" width="3.7648" height="3.7648" rx="0" ry="0" opacity=".85909"/><rect id="er" transform="scale(-1,1)" x="-57.765" y="1011.4" width="3.7648" height="3.7648" rx="0" ry="0" opacity=".85909"/><rect id="es" transform="scale(-1,1)" x="-61.765" y="1011.4" width="3.7648" height="3.7648" rx="0" ry="0" opacity=".85909"/><rect id="et" transform="scale(-1,1)" x="-73.765" y="1011.4" width="3.7648" height="3.7648" rx="0" ry="0" opacity=".85909"/><rect id="eu" transform="scale(-1,1)" x="-65.765" y="1011.4" width="3.7648" height="3.7648" rx="0" ry="0" opacity=".85909"/><rect id="ev" transform="scale(-1,1)" x="-69.765" y="1011.4" width="3.7648" height="3.7648" rx="0" ry="0" opacity=".85909"/><rect id="ew" transform="scale(-1,1)" x="-53.765" y="980.36" width="3.7648" height="3.7648" rx="0" ry="0" opacity=".85909"/><rect id="ex" transform="scale(-1,1)" x="-45.765" y="980.36" width="3.7648" height="3.7648" rx="0" ry="0" opacity=".85909"/><rect id="ey" transform="scale(-1,1)" x="-53.765" y="984.36" width="3.7648" height="3.7648" rx="0" ry="0" opacity=".85909"/><rect id="ez" transform="scale(-1,1)" x="-45.765" y="984.36" width="3.7648" height="3.7648" rx="0" ry="0" opacity=".85909"/><rect id="fa" transform="scale(-1,1)" x="-81.765" y="976.36" width="3.7648" height="3.7648" rx="0" ry="0" opacity=".85909"/><rect id="fb" transform="scale(-1,1)" x="-85.765" y="980.36" width="3.7648" height="3.7648" rx="0" ry="0" opacity=".85909"/><rect id="fc" transform="scale(-1,1)" x="-77.765" y="980.36" width="3.7648" height="3.7648" rx="0" ry="0" opacity=".85909"/><rect id="fd" transform="scale(-1,1)" x="-85.765" y="984.36" width="3.7648" height="3.7648" rx="0" ry="0" opacity=".85909"/><rect id="fe" transform="scale(-1,1)" x="-77.765" y="984.36" width="3.7648" height="3.7648" rx="0" ry="0" opacity=".85909"/></g></g></svg>
