<?xml version="1.0" encoding="UTF-8"?>
<!DOCTYPE svg  PUBLIC '-//W3C//DTD SVG 1.1//EN'  'http://www.w3.org/Graphics/SVG/1.1/DTD/svg11.dtd'>
<svg enable-background="new 0 0 1024 1024" version="1.1" viewBox="0 0 1024 1024" xml:space="preserve" xmlns="http://www.w3.org/2000/svg">
<g id="e">
	<path d="m578.36 85.13c-12.18-1.9-24.53-3.28-37.02-4.13h-58.66c-12.56 0.85-24.98 2.25-37.23 4.16l-17.91 89.79c-33.35 8.74-64.74 22.12-93.35 39.78l-76.69-51.23c-36.03 26.43-67.86 58.28-94.25 94.34l52.54 78.77c-16.01 27.81-28.71 58.05-36.5 90.05l-94.08 18.58c-3.43 21.78-5.21 44.07-5.21 66.76 0 22.76 1.79 45.13 5.23 66.96l20 20 80.96 16c7.96 24.45 18.65 47.71 31.52 69.43l-54.44 81.8c13.29 18.15 27.96 35.24 43.85 51.1l19.5 19.5c15.86 15.89 32.94 30.56 51.08 43.85l81.89-54.57c21.72 12.86 44.99 23.71 69.44 31.72l16.02 80.97 20 20c21.84 3.44 44.2 5.23 66.96 5.23 22.69 0 44.99-1.78 66.76-5.19l18.59-94.08c32-7.79 62.26-20.26 90.07-36.27l78.69 52.35c36.1-26.42 68-58.28 94.45-94.36l-51.05-76.6c17.66-28.62 30.82-60.02 39.56-93.37l89.78-17.92c1.92-12.25 3.31-24.67 4.16-37.23v-58.66c-0.85-12.49-2.23-24.84-4.13-37.02l-20-20-72.49-14.46c-8.28-28.39-19.99-55.26-34.91-80.1l49.1-73.5c-13.34-18.2-28.07-35.32-44.02-51.22l-19-19c-15.91-15.95-33.04-30.68-51.25-44.02l-73.41 48.96c-24.84-14.92-51.71-26.47-80.09-34.7l-14.45-72.48-20.01-19.99z" fill="#4D4D4D" opacity=".15"/>
</g>
<g id="f">
	
		<linearGradient id="d" x1="206.9" x2="817.1" y1="817.1" y2="206.9" gradientUnits="userSpaceOnUse">
			<stop stop-color="#0ff" offset="0"/>
			<stop stop-color="#D9E021" offset="1"/>
		</linearGradient>
		<path d="m938.84 578.56c1.92-12.25 3.31-24.67 4.16-37.23v-58.66c-0.85-12.49-2.23-24.84-4.13-37.02l-88-17.56c-8.28-34.66-21.56-67.28-39.4-97.01l49.1-73.5c-26.41-36.02-58.24-67.85-94.27-94.24l-73.41 48.96c-29.72-17.85-62.34-30.9-97-39.18l-17.54-88c-12.18-1.9-24.53-3.28-37.02-4.13h-58.66c-12.56 0.85-24.98 2.25-37.23 4.16l-17.91 89.79c-33.35 8.74-64.74 22.12-93.35 39.78l-76.69-51.23c-36.03 26.43-67.86 58.28-94.25 94.34l52.54 78.77c-16.01 27.81-28.71 58.05-36.5 90.05l-94.08 18.58c-3.42 21.79-5.2 44.08-5.2 66.77 0 22.76 1.79 45.13 5.23 66.96l95.91 18.95c8.2 30.72 20.74 59.76 36.56 86.48l-54.44 81.8c26.44 36.11 58.33 68.01 94.43 94.46l81.89-54.57c26.72 15.82 55.77 28.59 86.49 36.79l18.97 95.91c21.84 3.44 44.2 5.23 66.96 5.23 22.69 0 44.99-1.78 66.76-5.19l18.59-94.08c32-7.79 62.26-20.26 90.07-36.27l78.69 52.35c36.1-26.42 68-58.28 94.45-94.36l-51.05-76.6c17.66-28.62 30.82-60.02 39.56-93.37l89.77-17.93z" fill="url(#d)"/>
	
	
		<linearGradient id="c" x1="206.9" x2="817.1" y1="817.1" y2="206.9" gradientUnits="userSpaceOnUse">
			<stop stop-color="#00E6E6" offset="0"/>
			<stop stop-color="#77E1E3" offset="1"/>
		</linearGradient>
		<path d="m938.84 578.56c1.92-12.25 3.31-24.67 4.16-37.23v-58.66c-0.85-12.49-2.23-24.84-4.13-37.02l-88-17.56c-8.28-34.66-21.56-67.28-39.4-97.01l49.1-73.5c-26.41-36.02-58.24-67.85-94.27-94.24l-73.41 48.96c-29.72-17.85-62.34-30.9-97-39.18l-17.54-88c-12.18-1.9-24.53-3.28-37.02-4.13h-58.66c-12.56 0.85-24.98 2.25-37.23 4.16l-17.91 89.79c-33.35 8.74-64.74 22.12-93.35 39.78l-76.69-51.23c-36.03 26.43-67.86 58.28-94.25 94.34l52.54 78.77c-16.01 27.81-28.71 58.05-36.5 90.05l-94.08 18.58c-3.42 21.79-5.2 44.08-5.2 66.77 0 22.76 1.79 45.13 5.23 66.96l95.91 18.95c8.2 30.72 20.74 59.76 36.56 86.48l-54.44 81.8c26.44 36.11 58.33 68.01 94.43 94.46l81.89-54.57c26.72 15.82 55.77 28.59 86.49 36.79l18.97 95.91c21.84 3.44 44.2 5.23 66.96 5.23 22.69 0 44.99-1.78 66.76-5.19l18.59-94.08c32-7.79 62.26-20.26 90.07-36.27l78.69 52.35c36.1-26.42 68-58.28 94.45-94.36l-51.05-76.6c17.66-28.62 30.82-60.02 39.56-93.37l89.77-17.93z" fill="url(#c)"/>
	
</g>
<g id="g">
	<linearGradient id="b" x1="559.13" x2="826.08" y1="479.4" y2="746.35" gradientUnits="userSpaceOnUse">
		<stop stop-color="#4D4D4D" offset="0"/>
		<stop stop-color="#4D4D4D" stop-opacity="0" offset="1"/>
	</linearGradient>
	<path d="m939.57 573.54-219.57-219.57c-6.64-6.63-13.23-13.38-20.03-19.97l-69.18 69.33c-28.98-28.91-67.48-44.84-108.42-44.84-84.64 0-153.51 68.86-153.51 153.51 0 84.64 68.86 153.51 153.51 153.51 40.94 0 79.44-15.92 108.42-44.84l55.21 55.33h0.25l27.57 27.57c14.67-14.68 32.28-26.37 51.54-34.1 19.38-7.78 40.28-11.45 61.14-10.91 9.38-19.73 16.9-40.49 22.56-62.08l89.78-17.92c0.26-1.67 0.49-3.35 0.73-5.02z" fill="url(#b)" opacity=".5"/>
	<linearGradient id="a" x1="540.28" x2="764.22" y1="707.12" y2="931.06" gradientUnits="userSpaceOnUse">
		<stop stop-color="#4D4D4D" offset="0"/>
		<stop stop-color="#4D4D4D" stop-opacity="0" offset="1"/>
	</linearGradient>
	<path d="m713.97 703.85-0.22-0.22c0.17-0.17 0.33-0.32 0.5-0.49-0.14 0.14-0.29 0.28-0.44 0.43l-27.56-27.57h-0.25l14 14.03c-47.48 47.37-110.56 73.46-177.63 73.46-59.95 0-116.68-20.85-161.96-59.09l220.86 221.65 16.07-81.33c32-7.79 62.26-20.26 90.07-36.27l78.69 52.35c20.03-14.65 38.75-30.99 55.98-48.79l-108.11-108.16z" fill="url(#a)" opacity=".5"/>
</g>
<g id="C">
	
		
			<path d="m522.37 763.49c-67.18 0-130.33-26.16-177.83-73.66s-73.66-110.66-73.66-177.83c0-67.18 26.16-130.33 73.66-177.83s110.66-73.66 177.83-73.66c67.07 0 130.15 26.09 177.63 73.46l-69.21 69.36c-28.98-28.91-67.48-44.84-108.42-44.84-84.64 0-153.51 68.86-153.51 153.51 0 84.64 68.86 153.51 153.51 153.51 40.94 0 79.44-15.92 108.42-44.84l69.21 69.36c-47.48 47.37-110.56 73.46-177.63 73.46z" fill="#fff"/>
		
	
</g>
</svg>
