<?xml version="1.0" encoding="UTF-8"?>
<svg id="b" width="316.66" height="315.8" version="1.1" viewBox="0 0 367.65 367.44" xmlns="http://www.w3.org/2000/svg" xmlns:xlink="http://www.w3.org/1999/xlink"><defs id="c"><linearGradient id="a" x1="-1.0341" x2="-.034136" y1="-.80475" y2="-.80475" gradientTransform="matrix(-1.53e-5 349 349 1.53e-5 398.08 127.11)" gradientUnits="userSpaceOnUse"><stop id="d" stop-color="#d00051" offset="0"/><stop id="e" stop-color="#d00051" offset=".11543"/><stop id="f" stop-color="#ff2ef4" offset=".86111"/><stop id="g" stop-color="#ff2ef4" offset="1"/></linearGradient></defs><g id="h" transform="translate(-6869.6 -216.23)"><g id="i"><path id="j" transform="matrix(1.3333 0 0 -1.3333 6894.5 318.78)" d="m114.99 76.85c-7.6329-0.23864-15.346-1.1172-23.079-2.6763-35.133-7.0833-64.468-26.975-84.059-53.82a4 4 0 0 1 0.87305-5.5884 4 4 0 0 1 2.9751-0.72217 4 4 0 0 1 2.6147 1.5952c18.46 25.295 46.04 44.013 79.176 50.694 29.171 5.8818 57.987 1.4948 82.77-10.67a4 4 0 0 1 5.3511 1.8281 4 4 0 0 1-1.8281 5.3511c-19.728 9.6835-41.896 14.724-64.794 14.008zm0.51563-16.705c-6.7116-0.20975-13.494-0.98315-20.291-2.354-65.516-13.209-107.98-77.125-94.772-142.64l0.062988-0.30615c1.8301-9.6049-1.1697-18.978-7.3491-25.645a4 4 0 0 1 0.21387-5.6514 4 4 0 0 1 2.8711-1.0649 4 4 0 0 1 2.7817 1.2788c7.928 8.5533 11.777 20.694 9.2988 32.979l-0.15088 0.74414c-11.88 61.011 27.6 120.16 88.626 132.46 12.715 2.5643 25.345 2.8861 37.503 1.2437a4 4 0 0 1 4.5 3.4292 4 4 0 0 1-3.4292 4.5c-6.5122 0.87978-13.153 1.2337-19.865 1.0239zm39.488-5.5063a4 4 0 0 1-4.002-2.7744 4 4 0 0 1 2.5884-5.0303c37.76-12.106 68.026-43.723 76.43-85.395l0.15234-0.75586c5.6502-28.442 6.5166-56.716 3.1201-83.999a4 4 0 0 1 3.4746-4.4634 4 4 0 0 1 4.4634 3.4746c3.5313 28.365 2.6236 57.775-3.3354 87.327l-0.68994 3.4116-0.15235-0.0088c-9.9224 42.858-41.632 75.398-81.022 88.027a4 4 0 0 1-1.0269 0.18604zm40.862-2.0405a4 4 0 0 1-3.1025-1.6978 4 4 0 0 1 0.97705-5.5723c26.291-18.449 45.806-46.598 52.66-80.587a4 4 0 0 1 0.21973-0.72363c1.8126-9.2623 2.5894-18.484 2.4155-27.549a4 4 0 0 1 3.9243-4.0767 4 4 0 0 1 4.0752 3.9243c0.18952 9.8821-0.68742 19.938-2.7202 30.022a4 4 0 0 1-0.22265 0.73242c-7.401 35.704-28.05 65.362-55.758 84.806a4 4 0 0 1-2.4683 0.72217zm-76.679-9.1172c-6.8122-0.0012-13.724-0.67462-20.659-2.0728-43.393-8.7504-75.081-43.281-82.238-84.463a4 4 0 0 1 3.2549-4.6274 4 4 0 0 1 4.626 3.2563c6.6048 38.004 35.801 69.899 75.937 77.993 52.226 10.53 103-23.203 113.53-75.431l0.14502-0.7207c0.79987-4.0284 1.5144-8.0531 2.1108-12.072a4 4 0 0 1 4.5454-3.3691 4 4 0 0 1 3.3691 4.5454c-0.6521 4.3941-1.421 8.7935-2.3086 13.197l-0.58008 2.8784-0.17871 0.02051c-11.092 47.939-53.867 80.874-101.55 80.865zm2.584-16.748c-6.5576 0.19101-13.238-0.35541-19.939-1.7065-6.7845-1.3672-13.231-3.4878-19.269-6.2549a4 4 0 0 1-1.9717-5.3027 4 4 0 0 1 5.3027-1.9702c5.4828 2.5129 11.341 4.4388 17.518 5.6836v0.0015c24.41 4.9215 48.408-1.8672 66.262-16.49a4 4 0 0 1 2.9312-0.88477 4 4 0 0 1 2.6968 1.4458 4 4 0 0 1-0.55957 5.6279c-14.728 12.063-33.299 19.277-52.972 19.85zm-2.3467-16.682c-4.7116 0.015379-9.4937-0.44214-14.29-1.4092-38.369-7.7362-63.267-45.21-55.531-83.58l0.20508-1.0181c1.4792-7.8567 1.823-15.659 1.0151-23.221a4 4 0 0 1 3.5522-4.4019 4 4 0 0 1 4.4033 3.5508c0.92863 8.692 0.56144 17.672-1.2568 26.685l-0.31201 1.5498c-5.9082 33.574 15.898 65.817 49.506 72.593 34.044 6.8645 67.094-15.034 74.09-49.02l0.0527-0.25781c5.2645-26.111 5.5205-52.048 1.4356-76.846a4 4 0 0 1 3.2959-4.5981 4 4 0 0 1 4.5981 3.2974c4.1008 24.894 3.8743 50.909-1.0781 77.084l0.11865 0.0835-0.51709 2.5664c-6.7701 33.573-36.307 56.832-69.289 56.94zm-53.077-1.96a4 4 0 0 1-2.4111-0.89355c-24.496-19.893-37.378-52.396-30.715-85.44l0.1831-0.91553c4.397-23.595-4.9358-46.594-22.477-60.686a4 4 0 0 1-0.61377-5.625 4 4 0 0 1 2.6865-1.4707 4 4 0 0 1 2.9385 0.85694c20.032 16.093 30.612 42.544 25.188 69.435l-0.18604 0.91846c-5.6392 29.764 6.014 58.83 28.037 76.715a4 4 0 0 1 0.58447 5.6265 4 4 0 0 1-3.2153 1.478zm-66.535-4.0957a4 4 0 0 1-3.3589-2.1709c-13.709-26.769-18.788-58.222-12.384-89.979a4 4 0 0 1 0.22705-0.74414c0.35657-1.7196 0.7428-3.4269 1.1616-5.1211a4 4 0 0 1 4.8442-2.9224 4 4 0 0 1 2.9238 4.8413c-0.45178 1.8275-0.86665 3.6749-1.2437 5.5415a4 4 0 0 1-0.21533 0.71338c-5.8171 29.703-1.0054 59.005 11.807 84.022a4 4 0 0 1-1.7358 5.3848 4 4 0 0 1-2.0259 0.43506zm116.16-10.753c-2.4987-0.15008-5.0153-0.47462-7.5352-0.98291-29.321-5.9122-48.362-34.573-42.45-63.894l0.271-1.3477c6.5201-34.883-6.553-68.96-31.654-90.699a4 4 0 0 1-0.4043-5.6411 4 4 0 0 1 2.7363-1.3711 4 4 0 0 1 2.9048 0.96533c27.541 23.852 41.788 61.465 34.081 99.691l-0.1875 0.92725c-4.4664 24.745 11.518 48.532 36.284 53.525 4.3102 0.86942 8.5917 1.1084 12.757 0.78369a4 4 0 0 1 4.2993 3.6782 4 4 0 0 1-3.6782 4.2979c-2.4462 0.19066-4.9266 0.216-7.4253 0.065918zm70.95-0.91553a4 4 0 0 1-2.4536-0.76465 4 4 0 0 1-0.87745-5.5884c6.5522-8.993 11.315-19.503 13.663-31.141l0.0176-0.08789c8.9203-44.321 4.4619-88.191-10.575-127.5a4 4 0 0 1 2.3086-5.1665 4 4 0 0 1 5.1636 2.3086c15.568 40.699 20.178 86.168 10.931 132.03l-0.23877 1.1836-0.0952 0.09522c-2.6652 12.265-7.7421 23.431-14.71 32.994a4 4 0 0 1-3.1333 1.6421zm-43.381-5.3423a4 4 0 0 1-3.4336-2.0522 4 4 0 0 1 1.5454-5.4404c11.271-6.2841 19.824-17.2 22.712-30.8l0.0967-0.47461c9.9609-49.397 0.48648-98.147-23.145-138.43a4 4 0 0 1 1.4253-5.4727 4 4 0 0 1 3.0308-0.42187 4 4 0 0 1 2.4419 1.8472c24.06 41.016 33.886 90.541 24.592 140.78l0.16993 0.07031-0.64893 3.2212c-3.2584 16.155-13.415 29.219-26.779 36.669a4 4 0 0 1-2.0083 0.50537zm-24.249-10.364c-2.4907 9e-3 -5.0188-0.23177-7.5527-0.74268-15.142-3.0542-26.352-14.867-29.328-29.131a4 4 0 0 1 3.0996-4.7344 4 4 0 0 1 4.7329 3.0996c2.338 11.206 11.101 20.509 23.077 22.925 15.896 3.2052 31.249-6.9222 34.661-22.721l0.082-0.4043c2.3872-11.842 3.5551-23.639 3.5874-35.269a4 4 0 0 1 4.0122-3.9888 4 4 0 0 1 3.9873 4.0122c-0.0306 11.027-1.1804 22.203-3.2285 33.41l0.19922 0.07178-0.67676 3.3589c-3.5763 17.737-19.219 30.051-36.653 30.114zm-0.0659-16.717c-1.3802 0.0058-2.7792-0.12723-4.1821-0.41016-11.221-2.2634-18.552-13.295-16.289-24.519l0.4585-2.2734c3.1643-17.259 2.8527-34.36-0.61523-50.543a4 4 0 0 1 3.0747-4.749 4 4 0 0 1 4.749 3.0732c3.8462 17.948 4.1495 36.968 0.29297 56.093l-0.23731 1.1836c-0.69773 6.5345 3.57 12.566 10.148 13.893 6.8042 1.3722 13.3-2.84 14.936-9.5142l0.10693-0.5332c9.8217-48.705-3.1156-96.659-31.477-132.95a4 4 0 0 1 0.68994-5.6148 4 4 0 0 1 2.9487-0.81885 4 4 0 0 1 2.666 1.5073c29.057 37.182 42.608 86.113 33.621 135.94l0.14795 0.04834-0.70312 3.4878c-1.9804 9.819-10.675 16.659-20.336 16.699zm0.2168-16.821a4 4 0 0 1-1.0415-0.07178 4 4 0 0 1-3.1318-4.7109c9.4177-46.708-4.4789-92.645-33.664-125.86a4 4 0 0 1 0.36475-5.647 4 4 0 0 1 2.8989-0.98584 4 4 0 0 1 2.748 1.3506c30.769 35.021 45.416 83.525 35.496 132.73a4 4 0 0 1-3.6709 3.2021zm-100.77-3.9756a4 4 0 0 1-3.832-4.1602c0.22355-5.4587 0.87528-10.971 1.9893-16.494l0.15527-0.76611c3.1091-16.885-3.3293-33.332-15.589-43.72a4 4 0 0 1-0.46582-5.6396 4 4 0 0 1 2.7217-1.4004 4 4 0 0 1 2.9165 0.93603c14.603 12.374 22.2 32.128 18.157 52.184l-0.26221 1.2964c-0.87535 4.6671-1.4416 9.3223-1.6304 13.932a4 4 0 0 1-4.1602 3.832zm68.974-10.165a4 4 0 0 1-0.52148-0.03662 4 4 0 0 1-3.4248-4.5c5.0676-37.392-8.9043-73.483-34.932-97.834a4 4 0 0 1-0.1875-5.6543 4 4 0 0 1 2.7876-1.2656 4 4 0 0 1 2.8652 1.0767c27.866 26.071 42.814 64.741 37.392 104.75a4 4 0 0 1-3.9785 3.4629zm134.17-0.09229a4 4 0 0 1-3.7398-4.2437c1.7054-27.026-1.0877-53.553-7.8047-78.747a4 4 0 0 1 2.833-4.8955 4 4 0 0 1 4.897 2.833c6.935 26.012 9.8188 53.411 8.0581 81.313a4 4 0 0 1-4.2436 3.7397zm-67.415-36.415a4 4 0 0 1-3.9038-3.5464c-3.3637-29.499-13.989-57.351-30.372-81.292a4 4 0 0 1 1.0415-5.5605 4 4 0 0 1 2.9956-0.62989 4 4 0 0 1 2.5649 1.6714c17.105 24.997 28.204 54.084 31.718 84.904a4 4 0 0 1-3.5215 4.4282 4 4 0 0 1-0.52295 0.0249zm-104.88-9.3428a4 4 0 0 1-3.6387-2.5518c-4.9785-12.818-13.219-24.214-23.9-32.965a4 4 0 0 1-0.55957-5.6294 4 4 0 0 1 2.6982-1.4443 4 4 0 0 1 2.9297 0.88623c11.754 9.6295 20.812 22.155 26.29 36.258a4 4 0 0 1-2.2808 5.1753 4 4 0 0 1-1.5381 0.27099zm46.727-18.344a4 4 0 0 1-3.6445-2.5459c-6.3594-16.296-15.954-31.176-28.156-43.688a4 4 0 0 1 0.07031-5.6558 4 4 0 0 1 2.8418-1.1367 4 4 0 0 1 2.814 1.207c12.952 13.28 23.132 29.066 29.883 46.364a4 4 0 0 1-2.272 5.1812 4 4 0 0 1-1.5366 0.27392zm85.494-7.5498a4 4 0 0 1-3.8628-2.9663c-3.5482-13.252-8.3575-26.075-14.314-38.303a4 4 0 0 1 1.8428-5.3481 4 4 0 0 1 3.0571-0.18604 4 4 0 0 1 2.291 2.0303c6.179 12.684 11.167 25.988 14.849 39.738a4 4 0 0 1-2.8271 4.8984 4 4 0 0 1-1.0356 0.13623z" enable-background="accumulate" fill="url(#a)" stop-color="#000000" style="-inkscape-stroke:none;font-variation-settings:normal"/></g></g></svg>
