<?xml version="1.0" encoding="UTF-8"?>
<svg id="j" version="1.1" viewBox="0 0 48 48" xmlns="http://www.w3.org/2000/svg" xmlns:xlink="http://www.w3.org/1999/xlink"><defs id="k"><linearGradient id="a"><stop id="l" stop-color="#f2f2f2" offset="0"/><stop id="m" stop-color="#c3c3c3" offset="1"/></linearGradient><linearGradient id="i" x1="18.595" x2="23.282" y1="29.204" y2="33.731" gradientTransform="translate(-4.0294 1.0169)" gradientUnits="userSpaceOnUse"><stop id="n" stop-color="#bdbdbd" offset="0"/><stop id="o" stop-color="#e2e2e2" offset=".253"/><stop id="p" stop-color="#cfcfcf" offset=".45539"/><stop id="q" stop-color="#a3a3a3" offset=".66361"/><stop id="r" stop-color="#fff" offset="1"/></linearGradient><linearGradient id="h" x1="28.059" x2="33.437" y1="18.868" y2="23.743" gradientTransform="translate(-4.0294 1.0169)" gradientUnits="userSpaceOnUse"><stop id="s" stop-color="#f7ca9a" offset="0"/><stop id="t" stop-color="#ea8113" offset=".24242"/><stop id="u" stop-color="#c26d0e" offset=".62121"/><stop id="v" stop-color="#fff" offset="1"/></linearGradient><radialGradient id="b" cx="15.415" cy="35.357" r="7.5792" gradientTransform="matrix(.99466 0 0 .96932 -4.7055 2.9857)" gradientUnits="userSpaceOnUse"><stop id="w" stop-color="#696969" offset="0"/><stop id="x" offset="1"/></radialGradient><linearGradient id="g" x1="60.169" x2="60.441" y1="40.12" y2="43.87" gradientTransform="matrix(.73731 0 0 .77085 -8.532 7.1216)" gradientUnits="userSpaceOnUse" xlink:href="#a"/><linearGradient id="f" x1="49.853" x2="62.768" y1="64.26" y2="64.26" gradientTransform="matrix(.71891 0 0 .71891 -1.8971 -22.425)" gradientUnits="userSpaceOnUse"><stop id="y" stop-color="#729fcf" offset="0"/><stop id="z" stop-color="#2b5582" offset="1"/></linearGradient><linearGradient id="e" x1="61.872" x2="61.872" y1="29.615" y2="41.459" gradientTransform="matrix(.88862 0 0 .71891 -18.298 9.4717)" gradientUnits="userSpaceOnUse"><stop id="aa" stop-color="#aeaeae" offset="0"/><stop id="ab" stop-color="#c4c4c4" stop-opacity="0" offset="1"/></linearGradient><linearGradient id="d" x1="53.169" x2="69.691" y1="24.245" y2="24.245" gradientTransform="matrix(.71944 0 0 .71891 -7.6963 9.4717)" gradientUnits="userSpaceOnUse" xlink:href="#a"/><linearGradient id="c" x1="52.718" x2="67.466" y1="2.3162" y2="2.3162" gradientTransform="matrix(.86248 0 0 .58072 -16.257 11.013)" gradientUnits="userSpaceOnUse"><stop id="ac" stop-color="#729fcf" offset="0"/><stop id="ad" stop-color="#3c74b1" offset="1"/></linearGradient></defs><g id="ae" fill-rule="nonzero"><path id="af" d="m19.529 25.407 4.0659 3.8007c7.1875-7.0625 17.783-23.977 17.783-23.977 0.42949-1.2244-1.0872-1.9959-1.8464-1.1705 0 0-13.69 14.097-20.003 21.347z" color="#000000" fill="url(#h)"/><path id="ag" d="m11.928 35.634 2.2463 1.9338 8.4928-7.367 0.27506-0.70583 1.0944-0.01782c-0.4375-1.5625-2.9415-4.3835-4.8165-4.3835l0.08202 1.0901-0.66999 0.38003z" color="#000000" fill="url(#i)"/><path id="ah" d="m1.6353 43.544c6.6053 0 11.618 0.7866 12.567-4.0191 0.76479-3.8727-4.5603-5.7284-7.1991-2.2711-2.542 3.3305-5.3681 6.2901-5.3681 6.2901z" color="#000000" fill="url(#b)"/><g id="ai" transform="translate(-.12246 2.8198)"><path id="aj" d="m35.127 7.3501c-3.0579 0.087289-5.4844 1.0561-5.4844 2.2243v3.5701c0 1.2257 2.6709 2.2243 5.9414 2.2243 3.2705 0 5.916-0.99863 5.916-2.2243v-3.5701c0-1.2257-2.6455-2.2243-5.916-2.2243-0.1533 0-0.30665-0.00429-0.45703 0z" color="#000000" fill="url(#c)"/><ellipse id="ak" transform="matrix(.88628 0 0 .46891 -10.444 -9.7189)" cx="52" cy="49.75" rx="5.375" ry="1.5" color="#000000" fill="#3465a4"/><path id="al" d="m27.926 39.155 1.047-21.349 2.4866-3.6635c1.9713-0.63544 6.7264-0.63544 8.5069 0l2.4866 3.0319 2.6175 22.486z" color="#000000" fill="url(#d)"/><path id="am" d="m28.828 38.896s2.5907-9.5315 7.5402-9.5315c5.1066 0 8.1685 9.9128 8.1685 9.9128z" color="#000000" fill="url(#e)"/><path id="an" d="m29.18 20.499-0.29591 6.4747c1.6625-1.0784 11.993-1.2645 14.344 0.38765l-0.70155-6.5973c-1.398-0.95315-10.583-1.4782-13.346-0.26508z" color="#000000" fill="url(#f)"/><rect id="ao" x="26.513" y="37.536" width="19.974" height="3.9278" rx=".88388" ry=".88388" color="#000000" fill="url(#g)"/><path id="ap" d="m29.395 17.996c1.8745-1.3662 9.0979-1.6552 12.72-0.6067l-2.3374-2.8856c-2.4782-0.66721-5.9243-0.37577-8.2755 0.06904z" color="#000000" fill="#fff"/></g></g></svg>
