<?xml version="1.0" encoding="UTF-8"?>
<svg viewBox="0 0 48 48" xmlns="http://www.w3.org/2000/svg" xmlns:xlink="http://www.w3.org/1999/xlink"><defs><linearGradient id="a" x2="0" y1="543.8" y2="513.8" gradientTransform="matrix(1.125 0 0 1-51.07 0)" gradientUnits="userSpaceOnUse"><stop stop-color="#197cf1" offset="0"/><stop stop-color="#20bcfa" offset="1"/></linearGradient><linearGradient id="b" x2="0" y1="44" y2="11" gradientUnits="userSpaceOnUse" xlink:href="#a"/><linearGradient id="c" x2="0" y1="10" y2="14" gradientUnits="userSpaceOnUse"><stop stop-color="#1d1e1e" offset="0"/><stop stop-color="#44484c" offset="1"/></linearGradient><linearGradient id="d" x2="0" y1="14" y2="10" gradientUnits="userSpaceOnUse" xlink:href="#a"/><linearGradient id="e" x2="0" y1="516.8" y2="503.8" gradientUnits="userSpaceOnUse" xlink:href="#a"/><linearGradient id="f" x2="0" y1="18" y2="15" gradientUnits="userSpaceOnUse"><stop stop-color="#c6cdd1" offset="0"/><stop stop-color="#e0e5e7" offset="1"/></linearGradient><linearGradient id="g" x2="0" y1="517.8" y2="514.8" gradientUnits="userSpaceOnUse" xlink:href="#f"/><linearGradient id="h" x2="0" y1="19" y2="3" gradientTransform="translate(0-2)" gradientUnits="userSpaceOnUse"><stop stop-color="#7cbaf8" offset="0"/><stop stop-color="#f4fcff" offset="1"/></linearGradient><linearGradient id="i" x1="16" x2="32" y1="23" y2="39" gradientUnits="userSpaceOnUse"><stop stop-color="#292c2f" offset="0"/><stop stop-opacity="0" offset="1"/></linearGradient></defs><g transform="translate(-384.57-499.8)"><path transform="translate(384.57 499.8)" d="m9 11v2l1-1zm30 0-1 1 1 1z" fill="url(#b)" fill-rule="evenodd"/><rect x="390.57" y="513.8" width="36" height="30" rx="0" fill="url(#a)"/><path transform="translate(384.57 499.8)" d="m20.707 23.293l-1.414 1.414 8 8-.293.293 11 11h4v-6l-10-10-3.293 3.293zm-2.146 6.146l-2.121 2.121 5.5 5.5-1.354 1.354 5.586 5.586h6.951z" fill="url(#i)" opacity=".2"/><rect x="390.57" y="542.8" width="36" height="1" fill="#1c5593"/><path transform="translate(384.57 499.8)" d="m10 10-1 1 1 1-4 2h36l-4-2 1-1-1-1h-14z" fill="url(#d)" fill-rule="evenodd"/><path transform="translate(384.57 499.8)" d="m10 10-1 1 1 1-4 2h36l-4-2 1-1-1-1h-14z" fill="url(#c)" fill-rule="evenodd" opacity=".6"/><path transform="translate(384.57 499.8)" d="m10 10-1 1h30l-1-1h-14z" opacity=".2"/><path d="m400.57 516.8v-5c0-4.432 3.568-8 8-8s8 3.568 8 8v5h-1v-5c0-3.878-3.122-7-7-7s-7 3.122-7 7v5z" fill="url(#e)"/><path d="m401.07143 514.798a1.5 1.5 0 0 1 1.5 1.5 1.5 1.5 0 0 1 -1.5 1.5 1.5 1.5 0 0 1 -1.5 -1.5 1.5 1.5 0 0 1 1.5 -1.5m0 1a.5 .5 0 0 0 -.5 .5 .5 .5 0 0 0 .5 .5 .5 .5 0 0 0 .5 -.5 .5 .5 0 0 0 -.5 -.5" fill="url(#g)"/><path transform="translate(384.57 499.8)" d="M31.5 15A1.5 1.5 0 0 0 30 16.5 1.5 1.5 0 0 0 31.5 18 1.5 1.5 0 0 0 33 16.5 1.5 1.5 0 0 0 31.5 15M31.5 16A.5 .5 0 0 1 32 16.5 .5 .5 0 0 1 31.5 17 .5 .5 0 0 1 31 16.5 .5 .5 0 0 1 31.5 16" fill="url(#f)"/><path transform="translate(397.57 519.8)" d="m7 3c-0.554 0-1 0.446-1 1s0.446 1 1 1 1-0.446 1-1-0.446-1-1-1m7 0-2 2 3 3-3 3 2 2 5-5zm-9.5 6c-0.831 0-1.5 0.669-1.5 1.5s0.669 1.5 1.5 1.5 1.5-0.669 1.5-1.5-0.669-1.5-1.5-1.5m4.5 6c-1.108 0-2 0.892-2 2s0.892 2 2 2 2-0.892 2-2-0.892-2-2-2" fill="url(#h)"/></g></svg>
