<?xml version="1.0" encoding="UTF-8"?>
<svg id="a" version="1.1" viewBox="0 0 32 32" xmlns="http://www.w3.org/2000/svg"><defs id="b"><style id="c" type="text/css">.ColorScheme-Text {
        color:#31363b;
      }
      .ColorScheme-Background {
        color:#eff0f1;
      }
      .ColorScheme-Highlight {
        color:#3daee9;
      }
      .ColorScheme-ViewText {
        color:#31363b;
      }
      .ColorScheme-ViewBackground {
        color:#fcfcfc;
      }
      .ColorScheme-ViewHover {
        color:#93cee9;
      }
      .ColorScheme-ViewFocus{
        color:#3daee9;
      }
      .ColorScheme-ButtonText {
        color:#31363b;
      }
      .ColorScheme-ButtonBackground {
        color:#eff0f1;
      }
      .ColorScheme-ButtonHover {
        color:#93cee9;
      }
      .ColorScheme-ButtonFocus{
        color:#3daee9;
      }</style><style id="d" type="text/css">.ColorScheme-Text {
        color:#4d4d4d;
      }</style></defs><g id="e" transform="matrix(2 0 0 2 -849.43 -1057.6)"><path id="f" class="ColorScheme-Text" d="m428.71 528.79c-0.554 0-1 0.446-1 1s0.446 1 1 1 1-0.446 1-1-0.446-1-1-1zm7 0-2 2 3 3-3 3 2 2 5-5-5-5zm-9.5 6c-0.831 0-1.5 0.669-1.5 1.5s0.669 1.5 1.5 1.5 1.5-0.669 1.5-1.5-0.669-1.5-1.5-1.5zm4.5 6c-1.108 0-2 0.892-2 2s0.892 2 2 2 2-0.892 2-2-0.892-2-2-2z" color="#4d4d4d" fill="#eff0f1"/></g></svg>
