<?xml version="1.0" encoding="UTF-8"?>
<svg id="v" version="1.1" viewBox="0 0 48 48" xmlns="http://www.w3.org/2000/svg" xmlns:xlink="http://www.w3.org/1999/xlink"><defs id="w"><radialGradient id="j" cx="556" cy="1115.4" r="44" gradientTransform="matrix(.99363 0 0 .34956 3.5429 708.68)" gradientUnits="userSpaceOnUse"><stop id="x" stop-color="#fff" offset="0"/><stop id="y" stop-color="#fff" stop-opacity="0" offset="1"/></radialGradient><radialGradient id="i" cx="539.14" cy="1032.5" r="44" gradientTransform="matrix(2.5434 0 0 1.5532 -832.13 -571.18)" gradientUnits="userSpaceOnUse"><stop id="z" stop-color="#fff" offset="0"/><stop id="aa" stop-color="#fff" stop-opacity="0" offset="1"/></radialGradient><radialGradient id="h" cx="549.58" cy="1053.6" r="44" gradientTransform="matrix(1.3773 -1.7912e-7 1.7912e-7 1.3773 -207.84 -395.55)" gradientUnits="userSpaceOnUse"><stop id="ab" stop-color="#fff" offset="0"/><stop id="ac" stop-color="#babdb6" offset=".30515"/><stop id="ad" stop-color="#555753" offset=".63299"/><stop id="ae" stop-color="#888a85" offset=".85721"/><stop id="af" stop-color="#2e3436" offset="1"/></radialGradient><linearGradient id="o" x1="720.78" x2="717.62" y1="374.9" y2="363.11" gradientTransform="translate(-1428.8 365.15)" gradientUnits="userSpaceOnUse"><stop id="ag" offset="0"/><stop id="ah" stop-color="#888a85" offset="1"/></linearGradient><linearGradient id="n" x1="720.78" x2="717.62" y1="374.9" y2="363.11" gradientTransform="matrix(1 0 0 .64286 307.36 -268.66)" gradientUnits="userSpaceOnUse"><stop id="ai" offset="0"/><stop id="aj" stop-color="#888a85" offset="1"/></linearGradient><radialGradient id="m" cx="540.91" cy="1027.6" r="45.023" gradientTransform="matrix(1.7727 0 0 1.7727 -417.97 -794.04)" gradientUnits="userSpaceOnUse"><stop id="ak" stop-color="#babdb6" offset="0"/><stop id="al" stop-color="#555753" offset="1"/></radialGradient><clipPath id="u"><path id="am" transform="translate(-8,-8)" d="m600 1068a44 44 0 1 1-88 0 44 44 0 1 1 88 0z" fill="#555753"/></clipPath><radialGradient id="l" cx="556" cy="1063.7" r="44" gradientTransform="matrix(1.1388 0 0 1.2005 -77.2 -214.6)" gradientUnits="userSpaceOnUse"><stop id="an" stop-color="#babdb6" offset="0"/><stop id="ao" stop-color="#888a85" offset=".62351"/><stop id="ap" stop-color="#2e3436" offset=".80543"/><stop id="aq" stop-color="#fff" offset="1"/></radialGradient><radialGradient id="k" cx="540.88" cy="1031.9" r="44" gradientTransform="matrix(1.8605 0 0 1.8605 -459.48 -891.44)" gradientUnits="userSpaceOnUse"><stop id="ar" stop-color="#fff" offset="0"/><stop id="as" stop-color="#fff" offset=".23621"/><stop id="at" stop-color="#fff" stop-opacity="0" offset="1"/></radialGradient><filter id="g" color-interpolation-filters="sRGB"><feGaussianBlur id="au" stdDeviation="0.89191478"/></filter><linearGradient id="q" x1="534.77" x2="576.96" y1="1094" y2="1020.9" gradientUnits="userSpaceOnUse"><stop id="av" stop-color="#fff" offset="0"/><stop id="aw" stop-color="#d3d7cf" offset="1"/></linearGradient><linearGradient id="e" x1="144" x2="144" y1="106.25" y2="91.981" gradientUnits="userSpaceOnUse" xlink:href="#a"/><linearGradient id="a"><stop id="ax" stop-color="#babdb6" offset="0"/><stop id="ay" stop-color="#555753" offset="1"/></linearGradient><linearGradient id="d" x1="143.78" x2="143.78" y1="235.92" y2="221.92" gradientUnits="userSpaceOnUse" xlink:href="#a"/><linearGradient id="c" x1="211.03" x2="211.03" y1="170.51" y2="157.49" gradientUnits="userSpaceOnUse" xlink:href="#a"/><linearGradient id="b" x1="77.137" x2="77.137" y1="170.74" y2="157.23" gradientUnits="userSpaceOnUse" xlink:href="#a"/><linearGradient id="p" x1="556" x2="552.65" y1="1111.3" y2="1085.9" gradientUnits="userSpaceOnUse"><stop id="az" stop-color="#fff" offset="0"/><stop id="ba" stop-color="#fff" stop-opacity="0" offset="1"/></linearGradient><filter id="t" color-interpolation-filters="sRGB"><feGaussianBlur id="bb" stdDeviation="0.88"/></filter><linearGradient id="r" x1="582.04" x2="582.04" y1="1102.4" y2="1024" gradientUnits="userSpaceOnUse" xlink:href="#s"/><linearGradient id="s"><stop id="bc" offset="0"/><stop id="bd" stop-opacity="0" offset="1"/></linearGradient><filter id="f" x="-.21978" y="-.21978" width="1.4396" height="1.4396" color-interpolation-filters="sRGB"><feGaussianBlur id="be" stdDeviation="8.05845"/></filter></defs><g id="bf" transform="translate(0 -1004.4)"><g id="bg" transform="matrix(.22543 0 0 .23296 -7.4508 988.13)" enable-background="new" fill="url(#r)"><path id="bh" transform="matrix(1.7516 0 0 .4744 -829.9 -261)" d="m600 1068c0 24.3-19.699 44-44 44s-44-19.7-44-44 19.699-44 44-44 44 19.7 44 44z" enable-background="new" filter="url(#f)" opacity=".4"/><path id="bi" transform="matrix(1.2481 0 0 .33803 -549.96 -111.36)" d="m600 1068c0 24.3-19.699 44-44 44s-44-19.7-44-44 19.699-44 44-44 44 19.7 44 44z" enable-background="new" filter="url(#f)" opacity=".8"/></g><g id="bj" transform="translate(-694.98 648.36)" enable-background="new"><path id="bk" transform="matrix(.47727 0 0 .47727 454.64 -130.73)" d="m600 1068c0 24.3-19.699 44-44 44s-44-19.7-44-44 19.699-44 44-44 44 19.7 44 44z" enable-background="new" fill="none" stroke="url(#m)" stroke-miterlimit="4" stroke-width="4.1905"/><g id="bl" transform="matrix(.21875 0 0 .21875 688.5 343.12)"><g id="bm" transform="matrix(2.1818 0 0 2.1818 -1051.6 -2148.7)" enable-background="new"><g id="bn" clip-path="url(#u)"><path id="bo" transform="translate(-8,-8)" d="m600 1068c0 24.3-19.699 44-44 44s-44-19.7-44-44 19.699-44 44-44 44 19.7 44 44z" fill="url(#l)"/><path id="bp" transform="translate(-8 -8)" d="m600 1068c0 24.3-19.699 44-44 44s-44-19.7-44-44 19.699-44 44-44 44 19.7 44 44z" fill="url(#k)"/><path id="bq" transform="matrix(.83749 0 0 .83749 82.355 165.56)" d="m600 1068c0 24.3-19.699 44-44 44s-44-19.7-44-44 19.699-44 44-44 44 19.7 44 44z" fill="#888a85" filter="url(#g)" stroke="#888a85" stroke-linecap="round" stroke-linejoin="round" stroke-miterlimit="4" stroke-width="5.0036"/></g><path id="br" transform="matrix(.8052 0 0 .8052 100.31 200.04)" d="m600 1068c0 24.3-19.699 44-44 44s-44-19.7-44-44 19.699-44 44-44 44 19.7 44 44z" fill="#888a85" filter="url(#g)" stroke="#2e3436" stroke-linecap="round" stroke-linejoin="round" stroke-miterlimit="4" stroke-width="2.6021"/></g><g id="bs" transform="translate(10)"><path id="bt" transform="matrix(1.7662 0 0 1.7662 -848.02 -1722.3)" d="m600 1068c0 24.3-19.699 44-44 44s-44-19.7-44-44 19.699-44 44-44 44 19.7 44 44z" enable-background="new" fill="url(#q)"/><g id="bu" transform="matrix(1.0457 0 0 1.0457 -16.576 -7.4898)" opacity=".2"><path id="bv" transform="matrix(.059049 .034092 -.034092 .059049 180.08 25.689)" d="m600 1068c0 24.3-19.699 44-44 44s-44-19.7-44-44 19.699-44 44-44 44 19.7 44 44z" enable-background="new"/><path id="bw" transform="matrix(.059049 .034092 -.034092 .059049 115.08 138.27)" d="m600 1068c0 24.3-19.699 44-44 44s-44-19.7-44-44 19.699-44 44-44 44 19.7 44 44z" enable-background="new"/><path id="bx" transform="matrix(.034092 .059049 -.059049 .034092 244.4 62.259)" d="m600 1068c0 24.3-19.699 44-44 44s-44-19.7-44-44 19.699-44 44-44 44 19.7 44 44z" enable-background="new"/><path id="by" transform="matrix(.034092 .059049 -.059049 .034092 131.82 127.26)" d="m600 1068c0 24.3-19.699 44-44 44s-44-19.7-44-44 19.699-44 44-44 44 19.7 44 44z" enable-background="new"/><path id="bz" transform="matrix(-.059049 .034092 .034092 .059049 107.92 25.689)" d="m600 1068c0 24.3-19.699 44-44 44s-44-19.7-44-44 19.699-44 44-44 44 19.7 44 44z" enable-background="new"/><path id="ca" transform="matrix(-.059049 .034092 .034092 .059049 172.92 138.27)" d="m600 1068c0 24.3-19.699 44-44 44s-44-19.7-44-44 19.699-44 44-44 44 19.7 44 44z" enable-background="new"/><path id="cb" transform="matrix(-.034092 .059049 .059049 .034092 43.599 62.259)" d="m600 1068c0 24.3-19.699 44-44 44s-44-19.7-44-44 19.699-44 44-44 44 19.7 44 44z" enable-background="new"/><path id="cc" transform="matrix(-.034092 .059049 .059049 .034092 156.18 127.26)" d="m600 1068c0 24.3-19.699 44-44 44s-44-19.7-44-44 19.699-44 44-44 44 19.7 44 44z" enable-background="new"/></g><g id="cd" transform="translate(-10)" font-family="Liberation Sans" font-size="20px" font-weight="bold" text-anchor="middle"><text id="ce" x="143.77536" y="106.96484" enable-background="new" fill="#ffffff" stroke="#ffffff" stroke-width="4.5714" text-align="center" xml:space="preserve"><tspan id="cf" x="143.77536" y="106.96484" stroke-width="4.5714">12</tspan></text><text id="cg" x="143.77536" y="105.96484" fill="url(#e)" text-align="center" xml:space="preserve"><tspan id="ch" x="143.77536" y="105.96484" fill="url(#e)">12</tspan></text><text id="ci" x="143.77536" y="236.80469" enable-background="new" fill="#ffffff" stroke="#ffffff" stroke-width="4.5714" text-align="center" xml:space="preserve"><tspan id="cj" x="143.77536" y="236.80469" stroke-width="4.5714">6</tspan></text><text id="ck" x="143.77536" y="235.80469" enable-background="new" fill="url(#d)" text-align="center" xml:space="preserve"><tspan id="cl" x="143.77536" y="235.80469" fill="url(#d)">6</tspan></text><text id="cm" x="211.16602" y="171.87004" enable-background="new" fill="#ffffff" stroke="#ffffff" stroke-width="4.5714" text-align="center" xml:space="preserve"><tspan id="cn" x="211.16602" y="171.87004" stroke-width="4.5714">3</tspan></text><text id="co" x="211.16602" y="170.87004" enable-background="new" fill="url(#c)" text-align="center" xml:space="preserve"><tspan id="cp" x="211.16602" y="170.87004" fill="url(#c)">3</tspan></text><text id="cq" x="77.166023" y="171.87004" enable-background="new" fill="#ffffff" stroke="#ffffff" stroke-width="4.5714" text-align="center" xml:space="preserve"><tspan id="cr" x="77.166023" y="171.87004" stroke-width="4.5714">9</tspan></text><text id="cs" x="77.166023" y="170.87004" enable-background="new" fill="url(#b)" text-align="center" xml:space="preserve"><tspan id="ct" x="77.166023" y="170.87004" fill="url(#b)">9</tspan></text></g></g></g><path id="cu" transform="matrix(.46591 0 0 .46591 460.95 -118.59)" d="m600 1068c0 24.3-19.699 44-44 44s-44-19.7-44-44 19.699-44 44-44 44 19.7 44 44z" enable-background="new" fill="none" opacity=".2" stroke="#fff" stroke-miterlimit="4" stroke-width="2.1463"/><path id="cv" transform="matrix(.41721 0 0 .41721 488.16 -66.582)" d="m600 1068c0 24.3-19.699 44-44 44s-44-19.7-44-44 19.699-44 44-44 44 19.7 44 44z" enable-background="new" fill="none" filter="url(#t)" opacity=".55507" stroke="url(#p)" stroke-miterlimit="4" stroke-width="2.3969"/></g><rect id="cw" transform="rotate(90)" x="1027.4" y="-35.021" width="2" height="9" color="#000000" enable-background="new" fill-rule="nonzero" opacity=".1"/><rect id="cx" transform="matrix(.70711 -.70711 .70711 .70711 0 0)" x="-710.47" y="730.85" width="2" height="14" color="#000000" enable-background="new" fill-rule="nonzero" opacity=".1"/><rect id="cy" transform="rotate(90)" x="1026.4" y="-34.021" width="2" height="9" color="#000000" enable-background="new" fill="url(#n)" fill-rule="nonzero"/><rect id="cz" transform="matrix(.70711 -.70711 .70711 .70711 0 0)" x="-709.76" y="730.15" width="2" height="14" color="#000000" enable-background="new" fill="url(#o)" fill-rule="nonzero"/><path id="da" transform="matrix(.056812 0 0 .056812 -6.5661 966.69)" d="m600 1068a44 44 0 1 1-88 0 44 44 0 1 1 88 0z" enable-background="new" fill="url(#h)" stroke="#555753" stroke-miterlimit="4" stroke-width="17.602"/><g id="db" transform="matrix(.94444 0 0 .94444 -654.98 669.42)" enable-background="new"><path id="dc" transform="matrix(.39773 0 0 .39773 498.86 -45.773)" d="m600 1068c0 24.3-19.699 44-44 44s-44-19.7-44-44 19.699-44 44-44 44 19.7 44 44z" enable-background="new" fill="url(#j)" opacity=".7" stroke="#babdb6" stroke-miterlimit="4" stroke-width="2.6622"/><path id="dd" transform="matrix(.25912 0 0 .15265 575.93 206.95)" d="m600 1068c0 24.3-19.699 44-44 44s-44-19.7-44-44 19.699-44 44-44 44 19.7 44 44z" enable-background="new" fill="url(#i)" opacity=".86977"/></g></g></svg>
