<?xml version="1.0" encoding="UTF-8"?>
<svg id="o" viewBox="0 0 48 48" xmlns="http://www.w3.org/2000/svg" xmlns:xlink="http://www.w3.org/1999/xlink"><defs id="p"><linearGradient id="m" x1="21.875" x2="21.875" y1="48.001" y2="40" gradientUnits="userSpaceOnUse"><stop id="q" stop-opacity="0" offset="0"/><stop id="r" offset=".5"/><stop id="s" stop-opacity="0" offset="1"/></linearGradient><radialGradient id="f" cx="1" cy="44" r="5" gradientTransform="matrix(2 0 0 .8 36 8.8)" gradientUnits="userSpaceOnUse" xlink:href="#a"/><linearGradient id="a"><stop id="t" offset="0"/><stop id="u" stop-opacity="0" offset="1"/></linearGradient><radialGradient id="g" cx="1" cy="44" r="5" gradientTransform="matrix(2 0 0 .8 -13 -79.2)" gradientUnits="userSpaceOnUse" xlink:href="#a"/><linearGradient id="b"><stop id="v" stop-color="#eeeeec" offset="0"/><stop id="w" stop-color="#e6e6e3" offset="1"/></linearGradient><linearGradient id="n" x1="23.155" x2="23.529" y1="34.573" y2="40.22" gradientTransform="translate(0 .7955)" gradientUnits="userSpaceOnUse"><stop id="x" offset="0"/><stop id="y" stop-opacity="0" offset="1"/></linearGradient><linearGradient id="i" x1="17.248" x2="39.904" y1="6.376" y2="38.876" gradientTransform="translate(0 .7955)" gradientUnits="userSpaceOnUse" xlink:href="#b"/><linearGradient id="h" x1="31.743" x2="31.861" y1="37.842" y2="43.826" gradientTransform="translate(0 .7955)" gradientUnits="userSpaceOnUse" xlink:href="#b"/><radialGradient id="e" cx="7" cy="39.465" r="3.5" gradientTransform="matrix(0 -1 1.1429 0 -41.103 45.5)" gradientUnits="userSpaceOnUse" xlink:href="#a"/><radialGradient id="d" cx="7" cy="39.465" r="3.5" gradientTransform="matrix(0 -1 1.1429 0 -89.103 -31.5)" gradientUnits="userSpaceOnUse" xlink:href="#a"/><linearGradient id="l" x1="18.142" x2="18.142" y1="35" y2="42.041" gradientUnits="userSpaceOnUse"><stop id="z" stop-opacity="0" offset="0"/><stop id="aa" offset=".5"/><stop id="ab" stop-opacity="0" offset="1"/></linearGradient><linearGradient id="k" x1="13.63" x2="25.208" y1="28.5" y2="41.181" gradientTransform="translate(53 1.4286)" gradientUnits="userSpaceOnUse"><stop id="ac" stop-color="#e6ce46" offset="0"/><stop id="ad" stop-color="#d6ba1c" offset="1"/></linearGradient><linearGradient id="j" x1="20.157" x2="20.157" y1="5.0996" y2="26.039" gradientTransform="translate(.007843 .7955)" gradientUnits="userSpaceOnUse"><stop id="ae" stop-color="#fff" offset="0"/><stop id="af" stop-color="#fff" stop-opacity="0" offset="1"/></linearGradient></defs><g id="ag"><g id="ah" transform="matrix(.93085 0 0 1.0374 1.6941 -1.7951)" fill-rule="nonzero" opacity=".3"><rect id="ai" transform="scale(-1)" x="-11" y="-48" width="10" height="8" color="#000000" fill="url(#g)" opacity="1"/><rect id="aj" x="38" y="40" width="10" height="8" color="#000000" fill="url(#f)" opacity="1"/><rect id="ak" x="11" y="40" width="27" height="8" color="#000000" fill="url(#m)" opacity="1"/></g><rect id="al" y=".7955" width="48" height="48" fill="none"/><path id="am" d="m14.375 36.329s1.2169 4.9346-3.8563 4.9809c-2.4303 0.021905-1.9325 4.0352-1.9325 4.0352l30.846-0.031373s0.41844-3.8954-2.0222-3.941c-4.9875-0.092139-3.8105-5.1064-3.8105-5.1064l-19.225 0.062745z" color="#000000" fill="url(#h)" fill-rule="evenodd" stroke="#888a85" stroke-linejoin="miter" stroke-miterlimit="4"/><path id="c" d="m4.8886 4.2739h38.129c2.0251 0 3.501 1.4277 3.501 3.6261l0.01095 26.204c0 1.6921-0.52835 2.2152-2.0347 2.2152l-40.963-0.018935c-1.1793-0.028793-2.0186-0.49466-2.0344-2.0193l0.015177-26.569c0-1.7738 1.5394-3.4384 3.3758-3.4384z" fill="url(#i)" fill-rule="evenodd" stroke="#888a85" stroke-linejoin="miter" stroke-miterlimit="4"/><rect id="an" x="5.5059" y="8.2973" width="37" height="22.997" fill="#555753" fill-rule="evenodd" stroke="#2e3436" stroke-linejoin="miter" stroke-width="1px"/><path id="ao" d="m4.875 5.0625c-1.3079 0-2.5 1.2946-2.5 2.5625v26.562c0.0062657 0.60334 0.1408 0.78335 0.28125 0.90625s0.42964 0.23836 0.90625 0.25h40.938c0.65117 0 0.85698-0.10102 0.9375-0.1875s0.21875-0.4007 0.21875-1.1562v-26.188c0-1.8072-1.0108-2.75-2.625-2.75h-38.156z" fill="none" stroke="#fff" stroke-linejoin="miter" stroke-miterlimit="4" xlink:href="#c"/><path id="ap" d="m13.992 36.835c0.083661 2.1725-0.28335 2.9114-1.6336 3.6752l23.615 1.2973c-0.94902-1.1686-2.3294-2.9333-1.9529-4.9882l-20.029 0.015686z" fill="url(#n)" fill-rule="evenodd" opacity=".6"/><path id="aq" d="m9.9921 42.292c6.7067 0.001969 27.797 0 27.797 0" fill="none" stroke="#8d8d8f" stroke-linecap="round" stroke-linejoin="miter" stroke-opacity=".43902" stroke-width="1px"/><path id="ar" d="m9.6479 43.299c6.7067 0.001969 28.72 0 28.72 0" fill="none" stroke="#fff" stroke-linecap="round" stroke-linejoin="miter" stroke-width="1px"/><path id="as" d="m6.0314 8.8269v18.008c16.444-1.3542 22.599-10.112 35.969-11.027l1e-6 -7.0118-35.969 0.031372z" fill="url(#j)" fill-rule="evenodd" opacity=".4"/><g id="at" transform="translate(-46.771 -7.337)"><g id="au" transform="matrix(.91667 0 0 .71428 49.771 11.133)" opacity=".3"><rect id="av" y="35" width="4" height="7" fill="url(#e)" opacity="1"/><rect id="aw" transform="scale(-1)" x="-48" y="-42" width="4" height="7" fill="url(#d)" opacity="1"/><rect id="ax" x="4" y="35" width="40" height="7" fill="url(#l)" opacity="1"/></g><g id="ay" stroke-linejoin="miter"><g id="az" transform="translate(-5.2287 -6.296)"><path id="ba" d="m57.5 14.929v30h39l-39-30zm6 13 15 11h-15v-11z" fill="url(#k)" fill-rule="evenodd" stroke="#a38503" stroke-width="1px"/><path id="bb" d="m61.5 44.929v-3" fill="none" stroke="#a38503" stroke-linecap="round" stroke-width="1px"/><path id="bc" d="m67.5 44.929v-3" fill="none" stroke="#a38503" stroke-linecap="round" stroke-width="1px"/><path id="bd" d="m73.5 44.929v-2.9643" fill="none" stroke="#a38503" stroke-linecap="round" stroke-width="1px"/><path id="be" d="m79.5 44.929v-3" fill="none" stroke="#a38503" stroke-linecap="round" stroke-width="1px"/><path id="bf" d="m85.5 44.929v-3" fill="none" stroke="#a38503" stroke-linecap="round" stroke-width="1px"/><path id="bg" d="m58.5 16.929v27h35l-35-27z" fill="none" opacity=".4" stroke="#fff" stroke-width="1px"/></g><path id="bh" transform="translate(47.771 -4.8674)" d="m9.5017 38.542-0.044194-14.01 19.084 14.03-19.04-0.020816z" fill="none" opacity=".4" stroke="#fff" stroke-width="1px"/></g></g></g></svg>
