<?xml version="1.0" encoding="UTF-8"?>
<svg id="i" version="1.1" viewBox="0 0 48 48" xmlns="http://www.w3.org/2000/svg" xmlns:xlink="http://www.w3.org/1999/xlink"><defs id="j"><linearGradient id="c" x1="16" x2="40" y1="15" y2="39" gradientTransform="translate(388.57 505.8)" gradientUnits="userSpaceOnUse"><stop id="k" stop-color="#383e51" offset="0"/><stop id="l" stop-color="#655c6f" stop-opacity="0" offset="1"/></linearGradient><linearGradient id="b"><stop id="m" offset="0"/><stop id="n" stop-opacity="0" offset="1"/></linearGradient><linearGradient id="a"><stop id="o" stop-color="#c6cdd1" offset="0"/><stop id="p" stop-color="#e0e5e7" offset="1"/></linearGradient><linearGradient id="e" x2="0" y1="543.8" y2="502.66" gradientTransform="matrix(.66667 0 0 .63518 140.19 194.52)" gradientUnits="userSpaceOnUse" xlink:href="#a"/><linearGradient id="g" x1="391.57" x2="406.57" y1="525.8" y2="540.8" gradientTransform="translate(12 -4)" gradientUnits="userSpaceOnUse" xlink:href="#b"/><linearGradient id="d" x2="0" y1="543.8" y2="502.66" gradientTransform="matrix(.66667 0 0 .63518 132.19 186.52)" gradientUnits="userSpaceOnUse" xlink:href="#a"/><linearGradient id="f" x1="391.57" x2="406.57" y1="525.8" y2="540.8" gradientTransform="translate(4 -12)" gradientUnits="userSpaceOnUse" xlink:href="#b"/><linearGradient id="h" x1="415.57" x2="415.57" y1="537.8" y2="521.8" gradientUnits="userSpaceOnUse"><stop id="q" stop-color="#21c9fb" offset="0"/><stop id="r" stop-color="#1a86f2" offset="1"/></linearGradient></defs><g id="s" transform="translate(-384.57 -499.8)"><rect id="t" x="388.57" y="505.8" width="32" height="28" rx="0" fill="url(#d)"/><path id="u" d="m389.57 531.8 30-20 1 1-1e-5 21-29 3e-5z" fill="url(#f)" fill-rule="evenodd" opacity=".2"/><rect id="v" x="388.57" y="505.8" width="32" height="4" fill="#566069"/><rect id="w" x="388.57" y="509.8" width="32" height="1" fill="#3daee9"/><rect id="x" x="389.57" y="511.8" width="30" height="20" fill="#fff"/><rect id="y" x="417.57" y="506.8" width="2" height="2" rx="1" fill="#eff0f1"/><rect id="z" x="396.57" y="513.8" width="32" height="28" rx="0" fill="url(#e)"/><path id="aa" d="m397.57 539.8 30-20 1 1-1e-5 21-29 3e-5z" fill="url(#g)" fill-rule="evenodd" opacity=".2"/><rect id="ab" x="396.57" y="513.8" width="32" height="4" fill="#566069"/><rect id="ac" x="396.57" y="517.8" width="32" height="1" fill="#3daee9"/><rect id="ad" x="397.57" y="519.8" width="30" height="20" fill="#fff"/><rect id="ae" x="425.57" y="514.8" width="2" height="2" rx="1" fill="#eff0f1"/><path id="af" d="m417.61 533.12c-4.0428 1.6775-9.0428 1.6775-10.043 3.037l6.5595 5.6404h14.44l-2e-5 -12.413-8-6.8221-3.8599 4.7055z" fill="url(#c)" fill-rule="evenodd" opacity=".2"/><path id="ag" d="m413.91 521.8-2.8327 0.26481v10.94l2.8015-0.38231v-4.6761l3.7354 5.1761 2.9261-0.88242-3.8288-4.9701 3.8599-4.7055-2.9883-0.64701-3.7043 4.7055 0.0312-4.8231zm-6.3813 2.6762c-0.0317 0-0.0695 0.017-0.0934 0.03l-1.0895 1.0587c-0.0464 0.046-0.0652 0.1229-0.0312 0.1765l1.2763 1.9999c-0.22912 0.36392-0.39796 0.76242-0.52919 1.176l-2.3658 0.47081c-0.0659 0.017-0.12444 0.054-0.12444 0.11811v1.4705c0 0.062 0.0609 0.1314 0.12444 0.14649l2.3035 0.52942c0.12264 0.47951 0.30891 0.93521 0.56031 1.3526l-1.3385 1.9119c-0.0371 0.054-0.0178 0.1314 0.0312 0.1765l1.0895 1.0291c0.0464 0.042 0.13013 0.064 0.18675 0.03l2.0856-1.2056c0.41009 0.22351 0.83997 0.41001 1.3074 0.52921l0.49804 2.2057c0.0143 0.064 0.0573 0.1179 0.12445 0.1179h1.5564c0.0656 0 0.13993-0.057 0.15563-0.1179l0.5603-2.2057c0.48184-0.1229 0.94959-0.3248 1.3696-0.55861l2.0545 1.294c0.0565 0.034 0.13868 0.017 0.18676-0.03l1.0895-1.0294c0.0467-0.046 0.0655-0.1229 0.0312-0.17631l-0.74708-1.1761-0.24903 0.088c-0.0355 0.017-0.0726 0-0.0934-0.03 0 0-0.47083-0.67381-1.0895-1.5294-0.73959 1.3676-2.2468 2.2941-3.9844 2.2941-2.4687 0-4.4825-1.873-4.4825-4.2056 0-1.7157 1.0908-3.1916 2.6459-3.8526v-1.0882c-0.28305 0.094-0.54947 0.1896-0.80936 0.3237h-0.0312l-2.0856-1.2942c-0.0284-0.017-0.0617-0.032-0.0934-0.029z" color="#000000" color-rendering="auto" fill="url(#h)" image-rendering="auto" shape-rendering="auto"/></g></svg>
