<?xml version="1.0" encoding="UTF-8"?>
<svg version="1.1" viewBox="0 0 32 32" xmlns="http://www.w3.org/2000/svg"><path d="m5.0909 5h24.481s1.4286 0 1.4286 1.4118v18.353l-4.0909 4.2353h-24.481s-1.4286 0-1.4286-1.4118v-18.353z" opacity=".2"/><path d="m5.0909 4h24.481s1.4286 0 1.4286 1.4118v18.353l-4.0909 4.2353h-24.481s-1.4286 0-1.4286-1.4118v-18.353z" fill="#00cc5c"/><path d="m20 10v3h-2v2h2v4.1172c0 2.8235 0.9992 3.8828 2.793 3.8828h2.207v-2h-1.9844c-0.96479 0-1.0156-0.67026-1.0156-2.082v-3.918h3v-2h-3v-3zm-7.9746 0.02148c-3.9704 4e-6 -5.0254 2.2432-5.0254 6.4785s1.0364 6.5273 5.0254 6.5273h1.1328l1.6504 2.8223 1.9121-0.70508-1.5586-2.8242c1.4843-0.70588 1.8379-2.9968 1.8379-5.8203 0-4.2353-1.0042-6.4785-4.9746-6.4785zm-0.017579 1.9785c2.422 0 2.9922 1.757 2.9922 4.6543 0 2.8973-0.55183 4.3457-2.9922 4.3457-2.4404 0-3.0078-1.4484-3.0078-4.3457 0-2.8973 0.58581-4.6543 3.0078-4.6543z" opacity=".2"/><path d="m20 9v3h-2v2h2v4.1172c0 2.8235 0.9992 3.8828 2.793 3.8828h2.207v-2h-1.9844c-0.96479 0-1.0156-0.67026-1.0156-2.082v-3.918h3v-2h-3v-3h-2zm-7.9746 0.021484c-3.9704 0-5.0254 2.2432-5.0254 6.4785s1.0364 6.5273 5.0254 6.5273h1.1328l1.6504 2.8223 1.9121-0.70508-1.5586-2.8242c1.4843-0.70588 1.8379-2.9968 1.8379-5.8203 0-4.2353-1.0042-6.4785-4.9746-6.4785zm-0.017579 1.9785c2.422 0 2.9922 1.757 2.9922 4.6543 0 2.8973-0.55183 4.3457-2.9922 4.3457-2.4404 0-3.0078-1.4484-3.0078-4.3457 0-2.8973 0.58581-4.6543 3.0078-4.6543z" fill="#fff"/><path d="m5.0918 4-4.0918 4.2344v1l4.0918-4.2344h24.48s1.4277 3.448e-4 1.4277 1.4121v-1c0-1.4118-1.4277-1.4121-1.4277-1.4121h-24.48z" fill="#fff" opacity=".2"/></svg>
