<?xml version="1.0" encoding="UTF-8"?>
<svg version="1" viewBox="0 0 64 64" xmlns="http://www.w3.org/2000/svg"><path d="m32 3c-15.512 0-28 12.488-28 28s12.488 28 28 28 28-12.488 28-28-12.488-28-28-28z" fill="#c4c4c4"/><path d="m32 3c-15.512 0-28 12.488-28 28 0 0.11345 0.011281 0.22411 0.017578 0.33594 0.35154-15.202 12.693-27.336 27.982-27.336h0.001953c15.289 0 27.631 12.134 27.982 27.336 0.006271-0.11182 0.017578-0.22249 0.017578-0.33594 0-15.512-12.488-28-28-28h-0.001953z" fill="#fff" opacity=".2"/><path d="m17.362 32.334a14.667 14.558 0 0 1-0.0286-0.776 14.667 14.558 0 0 1 14.667-14.558 14.667 14.558 0 0 1 14.666 14.558 14.667 14.558 0 0 1-0.028 0.548 14.667 14.558 0 0 0-14.638-13.783 14.667 14.558 0 0 0-14.638 14.011z" opacity=".2"/><circle cx="32" cy="31" r="18" fill="#3f3f3f"/><circle transform="scale(1,-1)" cx="32" cy="-32" r="14" opacity=".2"/><circle transform="scale(1,-1)" cx="32" cy="-31" r="14" fill="#ba174e"/><path d="m59.982 31.664c-0.35154 15.202-12.693 27.336-27.982 27.336-15.288 0-27.629-12.132-27.982-27.332-0.0061769 0.11062-0.017578 0.21979-0.017578 0.33203 0 15.512 12.488 28 28 28s28-12.488 28-28c0-0.11345-0.01128-0.22411-0.01758-0.33594z" opacity=".2"/><circle cx="32" cy="32" r="8" opacity=".2"/><circle cx="32" cy="31" r="8" fill="#d67495"/><circle cx="48" cy="45" r="16" fill="#55cc98"/><path d="m45.982 37-0.17794 2.107a6.3424 6.2853 0 0 0-1.8536 1.0624l-1.9324-0.90173-2.018 3.4639 1.7545 1.2075a6.3424 6.2853 0 0 0-0.09686 1.0602 6.3424 6.2853 0 0 0 0.0923 1.0647l-1.75 1.2039 2.018 3.4639 1.9279-0.89949a6.3424 6.2853 0 0 0 1.8581 1.0557l0.178 2.1118h4.036l0.17792-2.107a6.3424 6.2853 0 0 0 1.8536-1.0624l1.9324 0.90173 2.018-3.4639-1.7545-1.2075a6.3424 6.2853 0 0 0 0.09686-1.0602 6.3424 6.2853 0 0 0-0.0923-1.0647l1.75-1.2031-2.018-3.4639-1.9279 0.89949a6.3424 6.2853 0 0 0-1.8581-1.0557l-0.17792-2.1114h-4.036zm2.018 5.7136a2.3062 2.2856 0 0 1 2.306 2.2858 2.3062 2.2856 0 0 1-2.306 2.2858 2.3062 2.2856 0 0 1-2.306-2.2858 2.3062 2.2856 0 0 1 2.306-2.2858z" fill="#fff"/><path d="m32.025 45.502a16 16 0 0 0-0.025391 0.49805 16 16 0 0 0 16 16 16 16 0 0 0 16-16 16 16 0 0 0-0.017578-0.49219 16 16 0 0 1-15.982 15.492 16 16 0 0 1-15.975-15.498z" opacity=".2"/></svg>
