<?xml version="1.0" encoding="UTF-8"?>
<svg id="a" width="512" height="512" version="1.1" viewBox="0 0 135.47 135.47" xmlns="http://www.w3.org/2000/svg"><g id="b" transform="translate(0 -161.53)"><rect id="c" x="7.3304" y="168.86" width="120.81" height="120.81" ry="30.475" fill="#4e2b10" fill-rule="evenodd" stroke="#ddd" stroke-linecap="round" stroke-linejoin="round" stroke-miterlimit="4" stroke-width="2.044"/><path id="d" transform="matrix(.26458 0 0 .26458 0 161.53)" d="m27.705 256.29v112.83c0 63.811 51.371 115.18 115.18 115.18h226.23c63.811 0 115.18-51.371 115.18-115.18v-112.83h-456.59z" fill="#555" fill-rule="evenodd" stroke="#ddd" stroke-linecap="round" stroke-linejoin="round" stroke-miterlimit="4" stroke-width="7.7254"/><path id="e" d="m20.739 283.96v-60.212s-1.9792-38.963 14.617-46.139c13.151-5.6862 30.789 6.0103 30.929 21.82 0.08754 9.895-7.167 21.33-18.779 28.852-13.715 8.884-13.535 25.872-7.4658 34.895 5.2259 7.7686 18.305 18.024 32.262 17.636 11.35-0.31581 31.595-10.474 35.23-18.189 8.0918-17.177-0.36118-30.949-16.202-36.862-9.1486-3.9003-14.911-16.95-14.382-26.421 0.24665-9.7475 5.8528-13.147 10.261-16.447 9.2154-6.8988 26.858-5.264 26.858-5.264" fill="none" stroke-miterlimit="4" stroke-opacity="0"/><path id="f" d="m40.224 249.03h-12.963l-0.80181-25.524 29.4 0.66817-7.2163 6.5481-5.479 9.3544z" fill="#4e2b10" fill-rule="evenodd"/><path id="g" d="m101.52 228.01 2.3386 5.8131 3.4745 10.691 1.1743 5.1792h18.595l7e-3 3e-5v-33.516l-24.133 0.19294-8.3254 2.7128 3.8353 3.8353z" fill="#4e2b10" fill-rule="evenodd"/><path id="h" d="m27.023 276.28-0.37798-51.32s-1.8112-35.655 13.376-42.222c12.035-5.2034 28.175 5.5 28.303 19.968 0.0801 9.0549-6.5586 19.519-17.185 26.402-12.551 8.1298-12.386 23.676-6.832 31.932 4.7822 7.109 16.751 16.494 29.523 16.139 10.387-0.289 28.913-9.5849 32.239-16.645 7.4048-15.719-0.33052-28.321-14.827-33.733-8.3719-3.5692-13.645-15.511-13.161-24.178 0.22571-8.92 5.3559-12.031 9.3902-15.051 8.433-6.3131 21.554-5.195 21.554-5.195" fill="none" stroke="#c2c2c2" stroke-linecap="round" stroke-linejoin="miter" stroke-miterlimit="4" stroke-width="7.321"/><path id="i" d="m27.023 276.28-0.37798-51.32s-1.8112-35.655 13.376-42.222c12.035-5.2034 28.175 5.5 28.303 19.968 0.0801 9.0549-6.5586 19.519-17.185 26.402-12.551 8.1298-12.386 23.676-6.832 31.932 4.7822 7.109 16.751 16.494 29.523 16.139 10.387-0.289 28.913-9.5849 32.239-16.645 7.4048-15.719-0.33052-28.321-14.827-33.733-8.3719-3.5692-13.645-15.511-13.161-24.178 0.22571-8.92 5.3559-12.031 9.3902-15.051 8.433-6.3131 21.554-5.195 21.554-5.195" fill="none" stroke="#ffd700" stroke-linecap="round" stroke-linejoin="miter" stroke-miterlimit="4" stroke-width="1.9"/><rect id="j" x="8.3533" y="214.74" width="14.746" height="26.032" ry="0" fill="#555" fill-rule="evenodd"/></g></svg>
