<?xml version="1.0" encoding="UTF-8"?>
<svg id="f" version="1.1" viewBox="0 0 125 125" xmlns="http://www.w3.org/2000/svg" xmlns:xlink="http://www.w3.org/1999/xlink"><title id="g">RedNotebook-Logo</title><defs id="h"><linearGradient id="d" x1="12.849" x2="18.611" y1="48.854" y2="39.588" gradientTransform="translate(.087698 4.8985)" gradientUnits="userSpaceOnUse"><stop id="i" stop-color="#535251" offset="0"/><stop id="j" stop-color="#e2e3e4" offset=".35278"/><stop id="k" stop-color="#5b5959" offset=".62563"/><stop id="l" stop-color="#adaba7" offset="1"/></linearGradient><linearGradient id="c" x1="73.27" x2="77.87" y1="93.489" y2="84.685" gradientTransform="translate(-18.204 -16.343)" gradientUnits="userSpaceOnUse"><stop id="m" stop-color="#ec9b06" offset="0"/><stop id="n" stop-color="#f19517" offset=".31"/><stop id="o" stop-color="#f1eb6a" offset=".39"/><stop id="p" stop-color="#fbef86" offset=".67"/><stop id="q" stop-color="#f8c536" stop-opacity=".98431" offset=".7"/><stop id="r" stop-color="#fadd17" offset="1"/></linearGradient><linearGradient id="b" x1="13.59" x2="19.212" y1="51.302" y2="41.523" gradientTransform="translate(.087698 4.8985)" gradientUnits="userSpaceOnUse"><stop id="s" stop-color="#787875" offset="0"/><stop id="t" stop-color="#3f3d3d" offset=".4254"/><stop id="u" stop-color="#f7f7f7" offset=".67626"/><stop id="v" stop-color="#5b5b59" offset="1"/></linearGradient><linearGradient id="a" x1="-100.43" x2="-186.84" y1="157.24" y2="108.29" gradientTransform="matrix(1 0 0 .9 227.41 -41.684)" gradientUnits="userSpaceOnUse"><stop id="w" stop-color="#463082" offset="0"/><stop id="x" stop-color="#4f295f" stop-opacity="0" offset="1"/></linearGradient><filter id="e" x="-.25" y="-.25" width="1.5" height="1.5" color-interpolation-filters="sRGB"><feGaussianBlur id="y" in="SourceAlpha" result="blur" stdDeviation="1.2"/><feColorMatrix id="z" result="bluralpha" values="1 0 0 0 0 0 1 0 0 0 0 0 1 0 0 0 0 0 0.36 0 "/><feOffset id="aa" dx="-4" dy="9" in="bluralpha" result="offsetBlur"/><feMerge id="ab"><feMergeNode id="ac" in="offsetBlur"/><feMergeNode id="ad" in="SourceGraphic"/></feMerge></filter></defs><g id="ae" transform="translate(-5.5725 -1.7332)" filter="url(#e)"><g id="af" transform="translate(.08769 4.8985)" stroke-miterlimit="4"><path id="ag" transform="translate(-18.292 -21.242)" d="m118.06 29.485s-52.548 7.7465-72.551 10.705c-5.1042 1.3886-2.986 5.7037-3.0115 8.2784 6.3593 28.568 19.641 83.212 20.691 83.199 1.5942-0.0199 58.18-12.369 78.963-17.261-1.1608-2.4723-3.8458-7.5539 0.29562-8.031-8.1448-29.133-15.214-47.647-24.387-76.891z" fill="#c01c1c" stroke="#463055" stroke-width="1"/><path id="ah" d="m45.821 108.76c23.24-5.0945 52.157-11.116 76.214-16.754-0.64726-1.4683-0.746-3.5789 0.53842-6.3174-19.829 4.4618-55.017 11.836-76.238 15.656-1.1006 2.8716-0.94911 4.9549-0.5142 7.4156z" fill="#fff" stroke="#463050" stroke-width=".6"/></g><path id="ai" d="m30.864 59.744c0.15073-1.5701 1.4424-4.6397 4.0338-3.0911l50.533 28.184 19.822 5.4611-17.512-13.156-53.623-28.213c-2.5145 0.52392-5.5294-3.7196-5.6907 1.2145" fill="url(#a)"/><path id="aj" d="m28.38 25.41 18.848 79.421" fill="none" stroke="#720023" stroke-linecap="round" stroke-linejoin="miter" stroke-miterlimit="4" stroke-width=".8"/><g id="ak" transform="translate(8,-10)"><path id="al" d="m7.2677 40.987c2.4676 0.0153 5.2779 2.1001 5.2779 2.1001l-4.2116 8.3364s-3.8077-1.7741-4.6635-3.1461c-1.2513-2.006 2.1492-7.2994 3.5972-7.2904z" fill="#f28987" fill-rule="nonzero"/><path id="am" d="m8.4108 51.392c0.12387-0.37163 4.026-8.2998 4.026-8.2998l9.2908 5.3887-3.8532 8.0096z" fill="url(#d)"/><path id="an" d="m21.714 48.444 61.779 33.577-3.6033 7.7452-62.268-33.176z" fill="url(#c)" fill-rule="nonzero"/><path id="ao" d="m79.569 89.77 19.635 5.6811-15.755-13.49z" fill="#f3c88e"/><path id="ap" d="m99.82 95.668-6.7218-1.9484c0-0.56772 1.0152-2.3629 1.4601-2.3629z" fill="#54325e"/><path id="aq" d="m93.348 92.802-12.325-6.1894-1.4015 2.5683 13.551 4.2343z" fill="#daa88e"/><path id="ar" d="m82.674 83.614c-0.76567 0.42681 15.415 11.09 15.415 11.09s-14.545-11.849-14.992-12.039c-0.76992 0.32021-0.37391 0.51381-0.42306 0.9489z" fill="#f4f6dd"/><path id="as" d="m20.677 49.05c-1.9367 3.8234-2.6568 8.2917-3.6155 5.5025 3.639-7.585-0.52924-2.0746-2.092-0.74189 2.5055-7.1341-0.08836-2.9242-1.9044-0.82116 2.0433-8.4246-2.0057-2.9729-3.5338-1.5928 1.7583-3.8991 1.377-3.777 3.4434-6.8973 1.0061 1.3709 0.21622 2.8496 3.8138 2.0109-0.84076 3.5452 3.4908 0.64411 3.8884 2.5398z" fill="url(#b)"/></g></g></svg>
