<?xml version="1.0" encoding="UTF-8"?>
<svg id="i" fill="none" version="1.1" viewBox="0 0 48 48" xmlns="http://www.w3.org/2000/svg"><defs id="j"><linearGradient id="d" x1="5" x2="43" y1="5" y2="43" gradientUnits="userSpaceOnUse"><stop id="k" stop-color="#eff0f1" offset="0"/><stop id="l" stop-color="#e3e5e7" offset="1"/></linearGradient></defs><linearGradient id="a" x1="15" x2="33" y1="15" y2="33" gradientUnits="userSpaceOnUse"><stop id="m" stop-color="#fceaca" offset="0"/><stop id="n" stop-color="#fdcf7e" offset="1"/></linearGradient><linearGradient id="b" x1="23" x2="36.831" y1="23" y2="36.831" gradientUnits="userSpaceOnUse"><stop id="o" offset="0"/><stop id="p" stop-opacity="0" offset="1"/></linearGradient><linearGradient id="c" x1="14.9" x2="33.1" y1="14.9" y2="33.1" gradientUnits="userSpaceOnUse"><stop id="q" stop-color="#fdbd4c" offset="0"/><stop id="r" stop-color="#f6cd7b" offset=".25"/><stop id="s" stop-color="#f0b754" offset=".5"/><stop id="t" stop-color="#e9b969" offset=".75"/><stop id="u" stop-color="#fdbc4b" offset="1"/></linearGradient><radialGradient id="e" cx="0" cy="0" r="1" gradientTransform="matrix(20 20 -20 20 19 17)" gradientUnits="userSpaceOnUse"><stop id="v" stop-color="#c9963c" stop-opacity=".8" offset="0"/><stop id="w" stop-color="#c9963c" stop-opacity=".6" offset=".49918"/><stop id="x" stop-color="#ca973c" stop-opacity="0" offset="1"/></radialGradient><linearGradient id="f" x1="11" x2="37" y1="11" y2="37" gradientUnits="userSpaceOnUse"><stop id="y" offset="0"/><stop id="z" stop-opacity=".05" offset="1"/></linearGradient><linearGradient id="g" x1="10" x2="38" y1="10" y2="38" gradientUnits="userSpaceOnUse"><stop id="aa" stop-color="#d6d9dc" offset="0"/><stop id="ab" stop-color="#c9cdd1" offset="1"/></linearGradient><linearGradient id="h" x1="10" x2="38" y1="10" y2="38" gradientUnits="userSpaceOnUse"><stop id="ac" stop-color="#fff" stop-opacity="0" offset="0"/><stop id="ad" stop-color="#fff" stop-opacity=".25" offset=".25"/><stop id="ae" stop-color="#fff" stop-opacity=".06" offset=".5"/><stop id="af" stop-color="#fff" stop-opacity=".13" offset=".75"/><stop id="ag" stop-color="#fff" stop-opacity="0" offset="1"/></linearGradient><path id="ah" d="m43.988 24.123c-0.0325 5.281-2.1524 10.335-5.8971 14.059-3.7446 3.7238-8.8102 5.8154-14.091 5.8184-5.2579-0.0058-10.302-2.0818-14.041-5.7788-3.7387-3.697-5.8711-8.7176-5.9358-13.975-0.00833 0.0846-0.01614 0.1692-0.02344 0.2539 0 5.4369 2.1071 10.651 5.8579 14.496 3.7507 3.8445 8.8378 6.0043 14.142 6.0043s10.391-2.1598 14.142-6.0043c3.7508-3.8445 5.8579-9.0588 5.8579-14.496-0.0028-0.1257-0.0067-0.2513-0.0117-0.377z" clip-rule="evenodd" fill="#8e98a2" fill-rule="evenodd"/><path id="ai" d="m24 37c7.1797 0 13-5.8203 13-13s-5.8203-13-13-13-13 5.8203-13 13 5.8203 13 13 13z" fill="url(#c)"/><path id="aj" d="m24 5c-5.038 0-9.8732 2.0021-13.436 5.5645-3.5624 3.5624-5.5645 8.3976-5.5645 13.436s2.0021 9.8732 5.5645 13.436c3.5624 3.5624 8.3976 5.5645 13.436 5.5645s9.8732-2.0021 13.436-5.5645 5.5645-8.3976 5.5645-13.436-2.0021-9.8732-5.5645-13.436c-3.5624-3.5624-8.3976-5.5645-13.436-5.5645zm0 6c3.449 0 6.7545 1.3698 9.1934 3.8086 2.4388 2.4388 3.8066 5.7424 3.8066 9.1914s-1.3698 6.7526-3.8086 9.1914c-2.4388 2.4388-5.7424 3.8086-9.1914 3.8086s-6.7526-1.3698-9.1914-3.8086c-2.4388-2.4388-3.8086-5.7424-3.8086-9.1914s1.3678-6.7526 3.8066-9.1914c2.4388-2.4388 5.7443-3.8086 9.1934-3.8086z" color="#000000" color-rendering="auto" dominant-baseline="auto" fill="url(#d)" image-rendering="auto" shape-rendering="auto" solid-color="#000000" style="font-feature-settings:normal;font-variant-alternates:normal;font-variant-caps:normal;font-variant-ligatures:normal;font-variant-numeric:normal;font-variant-position:normal;isolation:auto;mix-blend-mode:normal;shape-padding:0;text-decoration-color:#000000;text-decoration-line:none;text-decoration-style:solid;text-indent:0;text-orientation:mixed;text-transform:none;white-space:normal"/><path id="ak" d="m22 14.5-1 7.5-6 1 2 2-2 1 4 4v3l3.957 3.957c0.34694 0.028281 0.69488 0.042615 1.043 0.042969h0.10742c7.1377-0.058982 12.893-5.862 12.893-13 1.48e-4 -0.03581 1.48e-4 -0.07162 0-0.10742-0.0025-0.31159-0.01616-0.62299-0.04102-0.93359l-6.8032-6.8149-2.6558 3.8559z" fill="url(#e)"/><path id="al" d="m22 14.5-3 0.5v7h-4v1h4v2h-4v1h4v7l3-0.5v-6.5l7.0098 7 1.8496-1.9004-4.5195-4.4805-0.61914-0.61914h7.2793v-1h-8.2793l-1.0059-1.0039 0.99609-0.99609h8.2891v-1h-7.2891l5.1484-5.1504-1.8496-1.8496-7.0098 7z" fill="url(#a)"/><path id="am" d="m14.041016 9.2109375c-.5915.03679-1.148475.3034575-1.546875.7421875-.1987.2188-.358891.480944-.462891.777344-.1041.2964-.141447.599531-.123047.894531.0198.3188.1053.628703.25.908203.0636.123.13941.23971.224609.349609.095801.1008.200501.191938.3125.273438.254401.1852.545322.319019.857422.386719.2889.0627.595597.069819.904297.011719.3088-.0581.591591-.176444.837891-.339844.4939-.3276.84315-.838869.96875-1.417969-.1936-.1733-.463181-.256778-.738281-.205078l-2.09961.394531.707031-2.0156249c.092701-.26414.050204-.5421956-.091796-.7597656zm19.917968 0c-.1421.21757-.184497.4956256-.091796.7597656l.707031 2.0156249-2.09961-.394531c-.2752-.0517-.544581.031778-.738281.205078.1257.5791.47495 1.090369.96875 1.417969.2463.1634.529191.281744.837891.339844.3088.0581.615497.050981.904297-.011719.3122-.0677.603022-.201519.857422-.386719.112-.0815.2167-.172638.3125-.273438.0852-.109899.160909-.226609.224609-.349609.1447-.2795.2302-.589403.25-.908203.0184-.295-.019047-.598131-.123047-.894531s-.264291-.558544-.462891-.777344c-.3984-.43873-.955375-.7053975-1.546875-.7421875zm-23.9863278 3.7812505c-.5512399.217499-.9986574.643393-1.2421874 1.183593-.1214701.2695-.1917288.568713-.1992188.882813-.00748.314.04776.613772.15625.888672.11724.2971.2957213.563956.5195312.785156.0985201.0973.2072757.187325.3222657.265625.12223.0663.2491894.121062.3808593.164062.2991498.0976.6177468.133463.9355468.101563.2941-.0295.587481-.117078.863281-.267578.2757-.1506.507507-.350631.691407-.582032.3686-.464.543575-1.056884.484375-1.646484-.2377-.1051-.519925-.10285-.765625.03125l-1.875 1.023438.050781-2.134766c.0067-.2799-.119966-.532212-.3222658-.695312zm28.0546878 0c-.2023.1631-.328866.415412-.322266.695312l.050781 2.134766-1.875-1.023438c-.2457-.1341-.527925-.13635-.765625-.03125-.0592.5896.115675 1.182484.484375 1.646484.1838.231401.415707.431432.691407.582032.2757.1505.569181.238078.863281.267578.3178.0319.636447-.003963.935547-.101563.1317-.043.260512-.097762.382812-.164062.1149-.0783.221713-.168325.320313-.265625.2238-.2212.402331-.488056.519531-.785156.1085-.2749.16375-.574672.15625-.888672-.0075-.3141-.077719-.613313-.199219-.882813-.2435-.5402-.690987-.966094-1.242187-1.183593zm-30.7695315 4.875c-.45699.3773-.7498631.920665-.8144531 1.509765-.03221.2938-.0079488.599391.0820312.900391.08997.301.2376013.568975.4257813.796875.20334.2464.4550981.444737.7363281.585937.12379.0621.2531788.113444.3867188.152344.13676.0253.2755625.038863.4140624.039062.31466.0003.6275419-.064759.9199219-.193359.27056-.119.5225613-.293084.7382809-.521484.2156-.2284.375216-.490678.478516-.767578.2071-.5552.189772-1.172444-.048828-1.714844-.2585-.0265-.52658.064078-.7187501.267578l-1.4648438 1.550781-.6132812-2.044922c-.08017-.2682-.2786744-.467946-.5214844-.560546zm33.4843755 0c-.242801.092599-.441385.292346-.521485.560546l-.613281 2.044922-1.464844-1.550781c-.1921-.2035-.46025-.294078-.71875-.267578-.2387.5424-.256028 1.159644-.048828 1.714844.1033.2769.262816.539178.478516.767578s.467681.402484.738281.521484c.2923.1286.605222.193659.919922.193359.1385-.0002.277262-.013762.414062-.039062.1335-.0389.262919-.090244.386719-.152344.2812-.1412.533028-.339537.736328-.585937.1882-.2279.335781-.495875.425781-.796875s.114232-.606591.082032-.900391c-.0646-.5891-.357453-1.132465-.814453-1.509765zm-31.1582036 5.167968c-.25414.0542-.4811525.22191-.6015625.47461l-.9179688 1.927734-1.2109375-1.759766c-.15865-.2307-.4084687-.359446-.6679687-.373046-.31907.4994-.43192 1.1071-.3125 1.6875.05956.2895.1774187.573231.3554687.832031s.3993675.467853.6484375.626953c.26916.172.5698794.284131.8808594.332031.13688.0211.2750325.029491.4140625.025391.13793-.0179.27439-.047444.40625-.089844.29957-.0963.5795994-.254597.8183594-.466797.22094-.1963.4058856-.439056.5410156-.722656.13511-.2836.207403-.581753.220703-.876953.0267-.592-.1805786-1.174188-.5742186-1.617188zm28.8320316 0c-.3936.443-.600819 1.025188-.574219 1.617188.0133.2952.085603.593353.220703.876953s.320116.526356.541016.722656c.2388.2122.518859.370497.818359.466797.1319.0424.26825.071944.40625.089844.139.0041.277262-.004291.414063-.025391.310999-.0479.611759-.160031.880859-.332031.2491-.1591.47229-.368153.650391-.626953.178-.2588.294015-.542531.353515-.832031.1194-.5804.0066-1.1881-.3125-1.6875-.2595.013599-.509269.142346-.667969.373046l-1.210937 1.759766-.917969-1.927734c-.1204-.2527-.347362-.42041-.601562-.47461zm-28.4238285 4.503906c-.22495.130101-.3893813.361172-.4257813.638672l-.2773437 2.117188-1.6953125-1.298828c-.22218-.1703-.49902-.217691-.75-.150391-.14909.5736-.0683806 1.188025.2246094 1.703125.14614.2569.34441.488488.59375.679688.24934.1911.52643.322184.8125.396484.30913.0804.6288831.095422.9394531.044922.13671-.0222.2713738-.056716.4023437-.103516.1256401-.0596.2451218-.13189.3574218-.21289.2552-.1842.473266-.419813.634766-.695313.1494-.2551.250215-.543969.291015-.855469.0409-.3114.018053-.617443-.060547-.902343-.1577-.5712-.535594-1.061729-1.0468745-1.361329zm28.0156245 0c-.5113.2996-.889274.790129-1.046874 1.361329-.0787.2849-.101447.590943-.060547.902343.0408.3115.141615.600369.291015.855469.1615.2755.379666.511113.634766.695313.1123.081.231722.15329.357422.21289.1309.0468.265643.081316.402344.103516.310599.0505.630353.035478.939453-.044922.2861-.0743.5631-.205384.8125-.396484.2493-.1912.44765-.422788.59375-.679688.293-.5151.373609-1.129525.224609-1.703125-.251-.0673-.5278-.019909-.75.150391l-1.695312 1.298828-.277344-2.117188c-.0364-.2775-.200882-.508572-.425782-.638672zm-26.251953 4.13086c-.1741.1929-.259684.461028-.208984.736328l.386719 2.101562-2.0136721-.716796c-.26374-.0938-.5415956-.051357-.7597657.089843.0342901.5916.2992882 1.150582.7363282 1.550782.2179996.1996.4793906.359543.7753906.464843.2959.1053.599431.146007.894531.128907.3189-.0185.628203-.104647.908203-.248047.1233-.0632.23931-.137857.34961-.222656.1012-.0954.19339-.198847.27539-.310547.1863-.2536.321525-.545622.390625-.857422.0639-.2886.072425-.595297.015625-.904297-.0568-.3089-.173637-.590891-.335937-.837891-.3255-.4952-.835463-.846509-1.414063-.974609zm24.488282 0c-.5786.1281-1.088563.479409-1.414063.974609-.1623.247-.277184.528991-.333984.837891-.0568.309-.050228.615697.013672.904297.069.3118.204325.603822.390625.857422.0819.1117.17419.215147.27539.310547.1103.084799.22631.159456.34961.222656.28.1434.589403.229547.908203.248047.2951.0171.598531-.023607.894531-.128907s.557391-.265243.775391-.464843c.437-.4002.702028-.959182.736328-1.550782-.2182-.1412-.496066-.183643-.759766-.089843l-2.013672.716796.386719-2.101562c.0506-.2753-.034884-.543428-.208984-.736328zm-21.519532 3.408203c-.106.2373-.103903.519425.029297.765625l1.015625 1.878906-2.132812-.058594c-.2798-.0078-.533366.11676-.697266.31836.2155.5521.640388 1.002447 1.179688 1.248047.269.1224.566859.194425.880859.203125.314.0086.615325-.046897.890625-.154297.2976-.1161.565109-.292725.787109-.515625.0977-.0982.187025-.205613.265625-.320313.0669-.122.122616-.249359.166016-.380859.0988-.2988.134216-.617647.103516-.935547-.0285-.2942-.114172-.588934-.263672-.865234s-.347425-.50866-.578125-.69336c-.4626-.3704-1.056685-.547234-1.646485-.490234zm18.109375 0c-.43724.042956-.858203.212434-1.205078.490234-.2308.1847-.428625.41706-.578125.69336-.1496.2763-.235272.571034-.263672.865234-.0307.3179.004816.636747.103516.935547.0435.1315.099216.258859.166016.380859.0787.1147.167925.222113.265625.320313.222.2229.489609.399525.787109.515625.2754.1074.576525.162897.890625.154297.314-.0087.611859-.080725.880859-.203125.5394-.2456.964288-.695947 1.179688-1.248047-.1638-.2016-.415513-.32616-.695313-.31836l-2.134765.058594 1.015625-1.878906c.1332-.2462.135297-.528325.029297-.765625-.147475-.01425-.29566-.014319-.441407 0z" fill="#000" opacity=".25"/><path id="an" d="m24 36c6.6274 0 12-5.3726 12-12s-5.3726-12-12-12-12 5.3726-12 12 5.3726 12 12 12zm0 1c7.1797 0 13-5.8203 13-13s-5.8203-13-13-13-13 5.8203-13 13 5.8203 13 13 13z" clip-rule="evenodd" fill="url(#f)" fill-opacity=".15" fill-rule="evenodd"/><path id="ao" d="m24 4c-2.6264 0-5.2272 0.51732-7.6537 1.5224s-4.6313 2.4783-6.4884 4.3354c-3.7507 3.7507-5.8579 8.8378-5.8579 14.142s2.1071 10.391 5.8579 14.142c1.8571 1.8572 4.0619 3.3304 6.4884 4.3355s5.0273 1.5224 7.6537 1.5224c5.3043 0 10.391-2.1071 14.142-5.8579 3.7508-3.7507 5.8579-8.8378 5.8579-14.142 0-2.6264-0.5173-5.2272-1.5224-7.6537s-2.4783-4.6313-4.3355-6.4884c-1.8571-1.8572-4.0619-3.3304-6.4884-4.3354s-5.0273-1.5224-7.6537-1.5224zm0 1c5.0391 0 9.8718 2.0018 13.435 5.565 3.5632 3.5632 5.565 8.3959 5.565 13.435s-2.0018 9.8718-5.565 13.435-8.3959 5.565-13.435 5.565-9.8718-2.0018-13.435-5.565c-3.5632-3.5632-5.565-8.3959-5.565-13.435s2.0018-9.8718 5.565-13.435c3.5632-3.5632 8.3959-5.565 13.435-5.565z" clip-rule="evenodd" fill="url(#g)" fill-rule="evenodd"/><path id="ap" d="m24 44c11.046 0 20-8.9543 20-20s-8.9543-20-20-20-20 8.9543-20 20 8.9543 20 20 20z" display="none" fill="url(#h)"/><path id="aq" d="m36.947 22.936c0.028563 0.35175 0.052734 0.70534 0.052734 1.0645 0 7.1797-5.8203 13-13 13-0.35517 0-0.70476-0.024789-1.0527-0.052734l6.3398 6.3398a20 20 0 0 0 14.002-14.01z" fill="url(#b)" fill-rule="evenodd" opacity=".15" stroke-linejoin="round" stroke-width=".1"/></svg>
