<?xml version="1.0" encoding="UTF-8"?>
<!DOCTYPE svg  PUBLIC '-//W3C//DTD SVG 1.0//EN'  'http://www.w3.org/TR/2001/REC-SVG-20010904/DTD/svg10.dtd'>
<svg id="s" version="1.0" viewBox="0 0 60 60" xmlns="http://www.w3.org/2000/svg" xmlns:xlink="http://www.w3.org/1999/xlink"><defs id="t"><linearGradient id="a" x1="35.111" x2="34.991" y1="-4.0864" y2="-21.756" gradientUnits="userSpaceOnUse"><stop id="u" stop-color="#fff" offset="0"/><stop id="v" stop-color="#fff" stop-opacity=".10588" offset="1"/></linearGradient><radialGradient id="c" cx="19.722" cy="-35.694" r="25.402" gradientUnits="userSpaceOnUse"><stop id="w" stop-color="#fff" offset="0"/><stop id="x" stop-color="#c8c8ff" offset=".52778"/><stop id="y" stop-color="#5b59ff" offset="1"/></radialGradient><radialGradient id="b" cx="19.384" cy="-37.011" r="18.205" fx="19.316" fy="-36.596" gradientUnits="userSpaceOnUse"><stop id="z" stop-color="#a4cdec" offset="0"/><stop id="aa" stop-color="#0068c6" offset="1"/></radialGradient><radialGradient id="j" cx="19.384" cy="-37.011" r="18.205" fx="19.316" fy="-36.596" gradientUnits="userSpaceOnUse" xlink:href="#b"/><radialGradient id="i" cx="19.722" cy="-35.694" r="25.402" gradientUnits="userSpaceOnUse" xlink:href="#c"/><radialGradient id="h" cx="21.086" cy="-35.258" r="16.295" fx="21.315" gradientUnits="userSpaceOnUse" xlink:href="#b"/><linearGradient id="r" x1="12.585" x2="12.806" y1="-17.36" y2="-28.5" gradientUnits="userSpaceOnUse" xlink:href="#a"/><radialGradient id="g" cx="24.481" cy="-21.397" r="12.131" fx="24.735" fy="-21.448" gradientUnits="userSpaceOnUse" xlink:href="#b"/><radialGradient id="f" cx="25.856" cy="-23.049" r="14.271" gradientUnits="userSpaceOnUse" xlink:href="#c"/><radialGradient id="e" cx="37.393" cy="-28.228" r="11.787" gradientUnits="userSpaceOnUse"><stop id="ab" stop-color="#a8a8a8" offset="0"/><stop id="ac" offset="1"/></radialGradient><linearGradient id="q" x1="35.111" x2="34.991" y1="-4.0864" y2="-21.756" gradientUnits="userSpaceOnUse" xlink:href="#a"/><linearGradient id="p" x1="30.425" x2="30.344" y1="-18.794" y2="-11.649" gradientUnits="userSpaceOnUse"><stop id="ad" stop-color="#fff" offset="0"/><stop id="ae" stop-color="#fff" stop-opacity="0" offset="1"/></linearGradient><linearGradient id="o" x1="44.078" x2="41.555" y1="-20.829" y2="-15.344" gradientUnits="userSpaceOnUse" xlink:href="#a"/><linearGradient id="n" x1="34.437" x2="26.779" y1="-28.319" y2="-25.193" gradientUnits="userSpaceOnUse" xlink:href="#a"/><linearGradient id="m" x1="46.838" x2="41.298" y1="-36.045" y2="-28.869" gradientUnits="userSpaceOnUse" xlink:href="#a"/><linearGradient id="l" x1="25.467" x2="27.287" y1="-7.3848" y2="-20.728" gradientUnits="userSpaceOnUse" xlink:href="#a"/><linearGradient id="k" x1="39.227" x2="40.472" y1="-9.3755" y2="-10.715" gradientUnits="userSpaceOnUse" xlink:href="#a"/><radialGradient id="d" cx="36.266" cy="-17.689" r="5.4593" gradientUnits="userSpaceOnUse"><stop id="af" stop-color="#fff" offset="0"/><stop id="ag" stop-color="#fff" stop-opacity="0" offset="1"/></radialGradient></defs><g id="ah"><g id="ai" transform="matrix(1.2284 0 0 -1.2284 .40049 1.8833)"><g id="aj"><g id="ak"><path id="al" d="m19.596-15.75c-5.0763 0-9.6771-1.066-13.091-2.8642-1.7072-0.8992-3.1172-1.9815-4.1448-3.2604-1.0276-1.2789-1.668-2.7969-1.668-4.4487v-3.2909c0-1.6518 0.64046-3.1698 1.668-4.4487 1.0276-1.2789 2.4376-2.3613 4.1448-3.2604 3.4143-1.7982 8.0152-2.8642 13.091-2.8642 5.0762 0 9.6771 1.066 13.091 2.8642 1.7072 0.8991 3.1172 1.9815 4.1448 3.2604 1.0275 1.2789 1.668 2.7969 1.668 4.4487v3.2909c0 1.6518-0.6405 3.1698-1.668 4.4487-1.0276 1.2789-2.4376 2.3612-4.1448 3.2604-3.4143 1.7982-8.0152 2.8642-13.091 2.8642zm0-2.1939c4.8584 0 9.2593-1.0796 12.358-2.7119 1.5496-0.8161 2.7694-1.754 3.5635-2.7424 0.5041-0.6273 0.7617-1.2453 0.9351-1.8587-0.8934 1.3582-2.1103 2.5532-3.7657 3.3823-2.2255 1.1146-5.0078 1.7368-8.0368 1.7368-3.0324 0-5.9452-0.6358-8.239-1.7673-2.2938-1.1314-4.082-2.7232-4.4986-4.9972-0.0439-0.2116-0.0351-0.4342 0.0252-0.6399 0.5537-1.7527 2.0346-3.2744 4.1954-4.4792 2.1607-1.2047 5.0458-2.011 8.517-2.011 3.4751 0 6.3462 0.846 8.4917 2.072 1.6789 0.9593 2.7773 2.1331 3.5382 3.3822v-1.036c0-0.9635-0.3684-1.9368-1.1625-2.9252-0.7941-0.9883-2.0139-1.9262-3.5635-2.7423-3.0992-1.6323-7.5001-2.7119-12.358-2.7119s-9.2593 1.0796-12.359 2.7119c-1.5496 0.8161-2.7694 1.754-3.5635 2.7423-0.79409 0.9884-1.1626 1.9617-1.1626 2.9252v3.2909c0 0.9635 0.36847 1.9368 1.1626 2.9251 0.79409 0.9884 2.0139 1.9263 3.5635 2.7424 3.0992 1.6323 7.5001 2.7119 12.359 2.7119zm5.0546-4.3878c2.8089 0 5.3764-0.6369 7.3292-1.6149 1.7345-0.8687 2.835-2.0164 3.3865-3.1385-0.4686-0.849-1.4257-1.946-3.0327-2.8643-1.8737-1.0706-4.4618-1.8891-7.683-1.8891-3.2252 0-5.848 0.8074-7.7336 1.8587-1.6763 0.9346-2.64 2.0731-3.0327 2.8947 0.3337 0.9948 1.3941 2.2 3.2349 3.108 2.0177 0.9953 4.7258 1.6454 7.5314 1.6454z" fill="#15009e" stroke-linecap="round" stroke-linejoin="round" stroke-width="2.0424"/><path id="am" d="m19.596-16.847c-9.9347 0-17.994-4.2456-17.994-9.4764v-3.2909c0-5.2308 8.0597-9.4764 17.994-9.4764 9.9346 0 17.994 4.2456 17.994 9.4764v3.2909c0 5.2308-8.0598 9.4764-17.994 9.4764zm5.0546-4.3878c5.8379 0 10.698-2.5202 11.853-5.8504-0.933-2.5145-5.1567-5.8504-11.853-5.8504-6.6964 0-11.036 3.2321-11.845 5.7921 0.6065 3.3105 6.0071 5.9087 11.845 5.9087z" fill="url(#j)" stroke-linecap="round" stroke-linejoin="round" stroke-width=".78828"/><path id="an" d="m1.7025-26.049c-0.01715-0.1738-0.10109-0.3419-0.10109-0.518 0-5.3648 8.0597-9.7202 17.994-9.7202 9.9346 0 17.994 4.3554 17.994 9.7202 0 0.1658-0.0859 0.3238-0.1011 0.4875-0.5306-4.5976-8.3019-8.2575-17.893-8.2575-9.6117 0-17.393 3.6767-17.893 8.288z" fill="url(#i)" stroke-width="0"/><path id="ao" d="m19.596-16.847c-9.9347 0-17.994-3.9163-17.994-8.7451s8.0597-8.7451 17.994-8.7451c9.9346 0 17.994 3.9163 17.994 8.7451s-8.0598 8.7451-17.994 8.7451zm5.0546-1.4017c6.6963 0 12.131-3.286 12.131-7.3434 0-4.0575-5.4347-7.3435-12.131-7.3435-6.6964 0-12.131 3.286-12.131 7.3435 0 4.0574 5.4347 7.3434 12.131 7.3434z" fill="url(#h)" stroke-width="0"/><path id="ap" d="m19.596-17.213c-9.3107 0-16.882-3.6711-16.882-8.1966 0-4.1013 7.2975-2.9231 8.4917-2.651-0.1811 0.5437-0.3033 1.0679-0.3033 1.6454 0 4.5052 5.1481 8.856 12.291 8.856-1.4751 0.2598-2.3331 0.3462-3.5968 0.3462z" fill="url(#r)" opacity=".75502" stroke-width="0"/><path id="aq" d="m24.65-18.249c-6.6964 0-12.131-3.286-12.131-7.3434 0-0.5202 0.1082-1.0034 0.278-1.4931 1.155 3.3302 6.0151 5.8504 11.853 5.8504 5.8379 0 10.698-2.5202 11.853-5.8504 0.1699 0.4897 0.278 0.9729 0.278 1.4931 0 4.0574-5.4347 7.3434-12.131 7.3434z" fill="url(#g)" stroke-width="0"/><path id="ar" d="m24.65-18.249c-6.6964 0-12.131-3.286-12.131-7.3434 0-0.1584 0.0571-0.3043 0.0758-0.4571 0.4412 3.8143 5.6478 6.8254 12.055 6.8254s11.614-3.0111 12.055-6.8254c0.0188 0.1528 0.0758 0.2987 0.0758 0.4571 0 4.0574-5.4347 7.3434-12.131 7.3434z" fill="url(#f)" stroke-width="0"/></g><path id="as" d="m23.674-5.4477c-0.4463-0.04813-0.7838-0.42613-0.7812-0.875v-25.526c2.0533-0.2503 6.4665 0.2434 8.7812 1.2132 0.3249 0.1388 0.5344 0.4593 0.5313 0.8125v4.4375h1.25c1.0669 0 1.7984-0.2432 2.3437-0.625 1.0564-1.2599 1.621-3.6173 1.8125-5.6875 0.1954-2.1113 0.0625-3.8437 0.0625-3.8437-0.0173-0.2427 0.0671-0.4817 0.2331-0.6595 0.166-0.1779 0.3986-0.2786 0.6419-0.278h8.0313c0.4598-0.0012 0.8421 0.3538 0.875 0.8125 0.1629 2.1881-0.1276 4.8807-0.6875 7.2812-0.5488 2.3523-1.2633 4.3774-2.5625 5.4688-0.0258 0.0264-0.0365 0.0678-0.0625 0.0937-0.3682 0.366-0.7685 0.676-1.1875 0.9375 1.1088 0.5865 2.0925 1.266 2.7812 2.1875 1.0764 1.4203 1.5937 3.238 1.5938 5.3125-1e-4 2.9812-1.0161 5.3756-3.0625 6.8438-1.2984 0.93819-3.0069 1.402-4.9375 1.7188-0.3895 0.06382-0.7736-0.14099-0.9375-0.5l-2.5-5.0625c-0.1922-0.4076-0.0434-0.8944 0.3437-1.125 0.3763-0.2193 0.7372-0.5108 1.0938-0.8125-2e-4 -0.0104-2e-4 -0.0208 0-0.0312 0.4415-0.3667 0.7187-0.9714 0.7187-2.1563 0-1.1994-0.2815-1.8787-0.7187-2.25-0.4183-0.3619-1.3683-0.6563-2.8438-0.6562h-2.2812v12.094c-1e-4 0.48323-0.3918 0.87495-0.875 0.875h-7.5625c-0.0313 0.00167-0.0626 0.00167-0.0938 0zm0.9688-1.75h5.8125v-12.094c0-0.4833 0.3917-0.875 0.875-0.875h3.1562c1.6872-1e-4 3.0278 0.2794 3.9688 1.0937 0.948 0.8049 1.3437 2.0697 1.3437 3.5625 0 1.4812-0.4 2.7478-1.3437 3.5313-0.1818 0.1537-0.4597 0.3249-0.6875 0.5l1.8437 3.7187c1.4841-0.29618 2.8853-0.66169 3.6563-1.2188 1.5605-1.1196 2.3124-2.7939 2.3125-5.4063-1e-4 -1.7939-0.4133-3.1872-1.2188-4.25-0.7978-1.0675-2.0287-1.8898-3.7812-2.4375-0.3768-0.1177-0.6281-0.4732-0.6135-0.8676 0.0146-0.3945 0.2915-0.7303 0.676-0.8199 0.871-0.1985 1.6417-0.6191 2.3437-1.3437 0.0288-0.0336 0.0602-0.0649 0.0938-0.0938 0.5663-0.4498 1.4783-2.3576 2-4.5937 0.4589-1.9674 0.6068-4.1129 0.5625-5.9375h-6.2188c0.0295 0.5971 0.1002 1.4608-0.0625 3.2187-0.21 2.2698-0.719 4.9823-2.3125 6.7813-0.0373 0.0457-0.0792 0.0876-0.125 0.125-0.9156 0.6703-2.1089 0.9687-3.4687 0.9687h-2.125c-0.4833 0-0.875-0.3918-0.875-0.875v-4.6562c-1.546-0.5534-3.7202-0.9-5.8125-0.9063v22.875z" fill="#000" stroke-linejoin="round" stroke-width="1.75"/><path id="at" d="m23.768-6.3227v-24.688c2.6548-0.139 5.6722 0.3998 7.5625 1.1875v5.3125h2.125c1.2284 0 2.2056-0.2767 2.9375-0.8125 2.6911-3.0381 2.1562-10.281 2.1562-10.281h8.0313c0.3066 4.1179-1.0512 10.571-2.9688 12.094-0.8103 0.8364-1.7488 1.3585-2.7812 1.5938 1.8819 0.5881 3.2908 1.5084 4.2187 2.75 0.941 1.2415 1.4062 2.847 1.4063 4.7812-1e-4 2.7968-0.884 4.8312-2.6875 6.125-1.0969 0.79262-2.7219 1.2554-4.5938 1.5625l-2.4975-5.0599c0.4629-0.2698 0.8609-0.6082 1.2163-0.9088 0.6926-0.5751 1.0312-1.5108 1.0312-2.8438 0-1.3461-0.3386-2.3181-1.0312-2.9062-0.6797-0.5882-1.8249-0.8751-3.4063-0.875h-3.1562l0.0043 12.969h-7.5668z" fill="url(#e)" stroke-width="0"/><path id="au" d="m24.799-7.3539v-13.281c3.5927-1.8621 9.6948-2.785 16.25-2.5312-0.1547 0.0543-0.2744 0.2128-0.4375 0.25-0.4453 0.1048-0.7595 0.4805-0.7812 0.9375-0.0218 0.4569 0.2542 0.8845 0.6875 1.0312 1.7303 0.5407 2.9432 1.3686 3.7187 2.4063 0.7823 1.0321 1.1875 2.3863 1.1875 4.1562 0 2.5808-0.7311 4.1916-2.25 5.2813-0.7194 0.51982-2.054 0.89437-3.4687 1.1875l-1.75-3.5313c0.1917-0.1513 0.4379-0.3056 0.5937-0.4375 0.9868-0.8192 1.4062-2.1184 1.4063-3.625-1e-4 -1.518-0.4145-2.8454-1.4063-3.6875-0.9858-0.8531-2.3572-1.125-4.0625-1.125h-3.1562c-0.2741-0.0016-0.525 0.1188-0.7188 0.3125-0.1937 0.1938-0.3141 0.4448-0.3125 0.7188v11.937h-5.5z" fill="url(#q)" stroke-width="0"/><path id="av" d="m29.531-7.3438v-11.062c-0.0016-0.2741 0.1188-0.525 0.3126-0.7188 0.1349-0.1349 0.3211-0.1714 0.5-0.2188-0.0018 0.0241-0.0314 0.0382-0.0313 0.0626v11.937h-0.7813z" fill="url(#p)" stroke-width="0"/><path id="aw" d="m43.062-9.0625c0.9626-1.0514 1.5937-2.3837 1.5937-4.4375 0-1.7699-0.4364-3.1553-1.2187-4.1875-0.7755-1.0376-1.9571-1.8343-3.6875-2.375-0.4345-0.1405-0.7332-0.5436-0.7188-1 0.0145-0.4564 0.3388-0.8561 0.7813-0.9687 0.0584-0.0134 0.0987-0.0783 0.1563-0.0938-0.0253 0.0834-0.1535 0.098-0.1563 0.1875-0.0145 0.4564 0.2843 0.8595 0.7187 1 1.7304 0.5407 2.912 1.3374 3.6876 2.375 0.7822 1.0322 1.2187 2.4176 1.2187 4.1875 0 2.5808-0.7623 4.1915-2.2813 5.2812-0.0194 0.01404-0.0734 0.01746-0.0937 0.03125z" fill="url(#o)" stroke-width="0"/><path id="ax" d="m38-11.344-0.0312-0.0937c0.0686-0.0543 0.141-0.1012 0.2187-0.1563-0.0644 0.0842-0.115 0.1721-0.1875 0.25z" fill="#419342" stroke-width="0"/><path id="ay" d="m30.562-22.625c-0.5589 0.0035-1.0176-0.4413-1.0313-1v-4.5312c-0.0144-0.7927-2.8573-1.3201-4.75-1.7813 2.0014 0.0228 4.041 0.387 5.5313 0.9063v4.5312c0.0137 0.5587 0.4724 1.0035 1.0313 1h2.125c1.2342 0 2.2939-0.2979 3.1874-0.8438-0.1242 0.1706-0.1407 0.404-0.2812 0.5626-0.0463 0.0575-0.0987 0.1099-0.1562 0.1562-0.9471 0.6933-2.1489 1-3.5313 1h-2.125z" fill="url(#n)" stroke-width="0"/><path id="az" d="m42.562-24.031c0.5174-0.7459 1.1744-2.1087 1.5937-3.9063 0.446-1.9118 0.5614-3.9954 0.5313-5.7813 0 0-5.1479-0.6901-5.1563-0.875h5.9376c0.03 1.7859-0.0853 3.8695-0.5313 5.7813-0.5184 2.222-1.4697 4.1037-1.9687 4.5-0.0333 0.0292-0.0646 0.0605-0.0938 0.0937-0.0946 0.0977-0.2151 0.1008-0.3125 0.1876z" fill="url(#m)" stroke-width="0"/><path id="ba" d="m24.688-7.25v-17.656l0.875 16.781 4.8437 0.875h-5.7187z" fill="url(#l)" stroke-width="0"/><path id="bb" d="m39.625-7.8125-1.7812-3.6563 2.6562 2.7813c1.3868-0.27782 2.5954-0.63206 3.375-1.125-0.2373 0.25297-0.3629 0.60202-0.6562 0.8125-0.7591 0.5485-2.1184 0.89193-3.5938 1.1875z" fill="url(#k)" stroke-width="0"/><path id="bc" d="m39.844-15.5c-1e-4 -1.5012-0.3812-2.8077-1.3438-3.625-0.9559-0.8272-2.3068-1.0938-4-1.0938h-3.1562c-0.0144-1e-4 -0.0171 0.0308-0.0313 0.0313 0.0088-0.2331 0.0836-0.4586 0.25-0.625 0.1766-0.1766 0.4066-0.2846 0.6563-0.2813h3.1562c1.6932 0 3.0441 0.2666 4 1.0938 0.9626 0.8173 1.3437 2.1238 1.3438 3.625-1e-4 1.4897-0.417 2.7358-1.375 3.5312-0.1665 0.1409 0.4999-1.3582 0.5-2.6562z" fill="url(#d)" stroke-width="0"/></g></g></g></svg>
