<?xml version="1.0" encoding="UTF-8"?>
<svg id="bw" version="1.0" viewBox="0 0 128 128" xmlns="http://www.w3.org/2000/svg" xmlns:xlink="http://www.w3.org/1999/xlink"><defs id="bx"><clipPath id="br"><path id="by" d="m549.14-40.479c-19.32 0-35.01 15.69-35.01 35.01s15.69 34.979 35.01 34.979c19.32 0 34.979-15.659 34.979-34.979s-15.659-35.01-34.979-35.01z" fill="#aac0ef"/></clipPath><filter id="ak"><feGaussianBlur id="bz" stdDeviation="0.66601563"/></filter><radialGradient id="b" cx="455.5" cy="-40.35" r="14.103" fy="-32.883" gradientTransform="matrix(1.4865 -8.4173e-7 1.0407e-6 1.8378 -221.6 32.465)" gradientUnits="userSpaceOnUse"><stop id="ca" stop-color="#acfd56" stop-opacity=".68627" offset="0"/><stop id="cb" stop-color="#fff" stop-opacity=".70909" offset="1"/></radialGradient><filter id="y"><feGaussianBlur id="cc" stdDeviation="0.60528572"/></filter><radialGradient id="a" cx="419.66" cy="-36.612" r="27.473" gradientTransform="matrix(.65244 0 0 .58806 -242.33 106.04)" gradientUnits="userSpaceOnUse"><stop id="cd" stop-color="#fff" offset="0"/><stop id="ce" stop-color="#fff" stop-opacity="0" offset="1"/></radialGradient><linearGradient id="h" x1="514.13" x2="584.12" y1="-5.4844" y2="-5.4844" gradientUnits="userSpaceOnUse"><stop id="cf" stop-color="#00f" offset="0"/><stop id="cg" stop-color="#00f" stop-opacity="0" offset="1"/></linearGradient><filter id="al"><feGaussianBlur id="ch" stdDeviation="2.40001"/></filter><radialGradient id="f" cx="59.511" cy="124" r="125.17" gradientTransform="translate(145.71 -238.21)" gradientUnits="userSpaceOnUse"><stop id="ci" stop-color="#F0F0F0" offset=".1775"/><stop id="cj" stop-color="#A5A5BB" offset=".5325"/></radialGradient><linearGradient id="m" x1="60" x2="60" y1="12.845" y2="120.21" gradientTransform="translate(145.71 -238.21)" gradientUnits="userSpaceOnUse"><stop id="ck" stop-color="#fff" offset="0"/><stop id="cl" stop-color="#fff" stop-opacity="0" offset="1"/></linearGradient><linearGradient id="l" x1="60.001" x2="60.001" y1="94" y2="26" gradientTransform="translate(145.71 -238.21)" gradientUnits="userSpaceOnUse"><stop id="cm" stop-color="#fff" offset=".2959"/><stop id="cn" stop-color="#4A4A55" offset="1"/></linearGradient><linearGradient id="k" x1="60.001" x2="60.001" y1="92" y2="28" gradientTransform="translate(145.71 -238.21)" gradientUnits="userSpaceOnUse"><stop id="co" stop-color="#E9E9F0" offset=".1953"/><stop id="cp" stop-color="#DADAE2" offset=".2597"/><stop id="cq" stop-color="#B1B1BB" offset=".461"/><stop id="cr" stop-color="#93939F" offset=".6437"/><stop id="cs" stop-color="#81818E" offset=".7999"/><stop id="ct" stop-color="#7A7A88" offset=".9112"/><stop id="cu" stop-color="#696975" offset="1"/></linearGradient><linearGradient id="j" x1="60.001" x2="60.001" y1="86" y2="34" gradientTransform="translate(145.71 -238.21)" gradientUnits="userSpaceOnUse"><stop id="cv" stop-color="#bbb" offset="0"/><stop id="cw" stop-color="#555" offset="1"/></linearGradient><radialGradient id="e" cx="654.54" cy="-20.356" r="38.29" fx="653.77" fy="3.2766" gradientTransform="matrix(.63567 0 0 .63567 -384.56 115.19)" gradientUnits="userSpaceOnUse"><stop id="cx" stop-color="#c6ff92" offset="0"/><stop id="cy" stop-color="#9ef451" offset=".57964"/><stop id="cz" stop-color="#6fc226" offset="1"/></radialGradient><radialGradient id="d" cx="549.11" cy="-5.5" r="34.641" fy="15.369" gradientTransform="matrix(1 0 0 .99955 0 -.0024808)" gradientUnits="userSpaceOnUse"><stop id="da" stop-color="#3e6b13" stop-opacity="0" offset="0"/><stop id="db" stop-color="#477a16" stop-opacity="0" offset=".795"/><stop id="dc" stop-color="#426111" offset="1"/></radialGradient><clipPath id="bv"><path id="dd" d="m549.14-40.479c-19.32 0-35.01 15.69-35.01 35.01s15.69 34.979 35.01 34.979c19.32 0 34.979-15.659 34.979-34.979s-15.659-35.01-34.979-35.01z" fill="#aac0ef"/></clipPath><filter id="ac"><feGaussianBlur id="de" stdDeviation="0.66601563"/></filter><filter id="q"><feGaussianBlur id="df" stdDeviation="0.60528572"/></filter><linearGradient id="c" x1="514.13" x2="584.12" y1="-5.4844" y2="-5.4844" gradientUnits="userSpaceOnUse"><stop id="dg" stop-color="#00f" offset="0"/><stop id="dh" stop-color="#00f" stop-opacity="0" offset="1"/></linearGradient><clipPath id="bq"><path id="di" d="m549.14-40.479c-19.32 0-35.01 15.69-35.01 35.01s15.69 34.979 35.01 34.979c19.32 0 34.979-15.659 34.979-34.979s-15.659-35.01-34.979-35.01z" fill="#aac0ef"/></clipPath><filter id="aj"><feGaussianBlur id="dj" stdDeviation="0.66601563"/></filter><filter id="x"><feGaussianBlur id="dk" stdDeviation="0.60528572"/></filter><clipPath id="bp"><path id="dl" d="m549.14-40.479c-19.32 0-35.01 15.69-35.01 35.01s15.69 34.979 35.01 34.979c19.32 0 34.979-15.659 34.979-34.979s-15.659-35.01-34.979-35.01z" fill="#aac0ef"/></clipPath><filter id="ai"><feGaussianBlur id="dm" stdDeviation="0.66601563"/></filter><filter id="w"><feGaussianBlur id="dn" stdDeviation="0.60528572"/></filter><clipPath id="bo"><path id="do" d="m549.14-40.479c-19.32 0-35.01 15.69-35.01 35.01s15.69 34.979 35.01 34.979c19.32 0 34.979-15.659 34.979-34.979s-15.659-35.01-34.979-35.01z" fill="#aac0ef"/></clipPath><filter id="ah"><feGaussianBlur id="dp" stdDeviation="0.66601563"/></filter><filter id="t"><feGaussianBlur id="dq" stdDeviation="0.60528572"/></filter><clipPath id="bm"><path id="dr" d="m549.14-40.479c-19.32 0-35.01 15.69-35.01 35.01s15.69 34.979 35.01 34.979c19.32 0 34.979-15.659 34.979-34.979s-15.659-35.01-34.979-35.01z" fill="#aac0ef"/></clipPath><filter id="ad"><feGaussianBlur id="ds" stdDeviation="0.66601563"/></filter><filter id="v"><feGaussianBlur id="dt" stdDeviation="0.60528572"/></filter><clipPath id="bk"><path id="du" d="m549.14-40.479c-19.32 0-35.01 15.69-35.01 35.01s15.69 34.979 35.01 34.979c19.32 0 34.979-15.659 34.979-34.979s-15.659-35.01-34.979-35.01z" fill="#aac0ef"/></clipPath><filter id="af"><feGaussianBlur id="dv" stdDeviation="0.66601563"/></filter><filter id="u"><feGaussianBlur id="dw" stdDeviation="0.60528572"/></filter><clipPath id="bs"><path id="dx" d="m549.14-40.479c-19.32 0-35.01 15.69-35.01 35.01s15.69 34.979 35.01 34.979c19.32 0 34.979-15.659 34.979-34.979s-15.659-35.01-34.979-35.01z" fill="#aac0ef"/></clipPath><filter id="z"><feGaussianBlur id="dy" stdDeviation="0.66601563"/></filter><filter id="p"><feGaussianBlur id="dz" stdDeviation="0.60528572"/></filter><clipPath id="bu"><path id="ea" d="m549.14-40.479c-19.32 0-35.01 15.69-35.01 35.01s15.69 34.979 35.01 34.979c19.32 0 34.979-15.659 34.979-34.979s-15.659-35.01-34.979-35.01z" fill="#aac0ef"/></clipPath><filter id="ab"><feGaussianBlur id="eb" stdDeviation="0.66601563"/></filter><filter id="o"><feGaussianBlur id="ec" stdDeviation="0.60528572"/></filter><clipPath id="bl"><path id="ed" d="m549.14-40.479c-19.32 0-35.01 15.69-35.01 35.01s15.69 34.979 35.01 34.979c19.32 0 34.979-15.659 34.979-34.979s-15.659-35.01-34.979-35.01z" fill="#aac0ef"/></clipPath><filter id="ag"><feGaussianBlur id="ee" stdDeviation="0.66601563"/></filter><filter id="s"><feGaussianBlur id="ef" stdDeviation="0.60528572"/></filter><filter id="bj" color-interpolation-filters="sRGB"><feFlood id="eg" flood-color="rgb(0,0,0)" flood-opacity=".49804" result="flood"/><feComposite id="eh" in="flood" in2="SourceGraphic" operator="in" result="composite1"/><feGaussianBlur id="ei" in="composite1" result="blur" stdDeviation="2.6"/><feOffset id="ej" dx="1.1" dy="1.1" result="offset"/><feComposite id="ek" in="SourceGraphic" in2="offset" result="composite2"/></filter><filter id="bi" color-interpolation-filters="sRGB"><feFlood id="el" flood-color="rgb(0,0,0)" flood-opacity=".49804" result="flood"/><feComposite id="em" in="flood" in2="SourceGraphic" operator="in" result="composite1"/><feGaussianBlur id="en" in="composite1" result="blur" stdDeviation="2.6"/><feOffset id="eo" dx="1.1" dy="1.1" result="offset"/><feComposite id="ep" in="SourceGraphic" in2="offset" result="composite2"/></filter><filter id="bh" color-interpolation-filters="sRGB"><feFlood id="eq" flood-color="rgb(0,0,0)" flood-opacity=".49804" result="flood"/><feComposite id="er" in="flood" in2="SourceGraphic" operator="in" result="composite1"/><feGaussianBlur id="es" in="composite1" result="blur" stdDeviation="2.6"/><feOffset id="et" dx="1.1" dy="1.1" result="offset"/><feComposite id="eu" in="SourceGraphic" in2="offset" result="composite2"/></filter><filter id="bf" color-interpolation-filters="sRGB"><feFlood id="ev" flood-color="rgb(0,0,0)" flood-opacity=".49804" result="flood"/><feComposite id="ew" in="flood" in2="SourceGraphic" operator="in" result="composite1"/><feGaussianBlur id="ex" in="composite1" result="blur" stdDeviation="2.6"/><feOffset id="ey" dx="1.1" dy="1.1" result="offset"/><feComposite id="ez" in="SourceGraphic" in2="offset" result="composite2"/></filter><filter id="be" color-interpolation-filters="sRGB"><feFlood id="fa" flood-color="rgb(0,0,0)" flood-opacity=".49804" result="flood"/><feComposite id="fb" in="flood" in2="SourceGraphic" operator="in" result="composite1"/><feGaussianBlur id="fc" in="composite1" result="blur" stdDeviation="2.6"/><feOffset id="fd" dx="1.1" dy="1.1" result="offset"/><feComposite id="fe" in="SourceGraphic" in2="offset" result="composite2"/></filter><filter id="bd" color-interpolation-filters="sRGB"><feFlood id="ff" flood-color="rgb(0,0,0)" flood-opacity=".49804" result="flood"/><feComposite id="fg" in="flood" in2="SourceGraphic" operator="in" result="composite1"/><feGaussianBlur id="fh" in="composite1" result="blur" stdDeviation="2.6"/><feOffset id="fi" dx="1.1" dy="1.1" result="offset"/><feComposite id="fj" in="SourceGraphic" in2="offset" result="composite2"/></filter><filter id="bc" color-interpolation-filters="sRGB"><feFlood id="fk" flood-color="rgb(0,0,0)" flood-opacity=".49804" result="flood"/><feComposite id="fl" in="flood" in2="SourceGraphic" operator="in" result="composite1"/><feGaussianBlur id="fm" in="composite1" result="blur" stdDeviation="2.6"/><feOffset id="fn" dx="1.1" dy="1.1" result="offset"/><feComposite id="fo" in="SourceGraphic" in2="offset" result="composite2"/></filter><filter id="bb" color-interpolation-filters="sRGB"><feFlood id="fp" flood-color="rgb(0,0,0)" flood-opacity=".49804" result="flood"/><feComposite id="fq" in="flood" in2="SourceGraphic" operator="in" result="composite1"/><feGaussianBlur id="fr" in="composite1" result="blur" stdDeviation="2.6"/><feOffset id="fs" dx="1.1" dy="1.1" result="offset"/><feComposite id="ft" in="SourceGraphic" in2="offset" result="composite2"/></filter><filter id="ba" color-interpolation-filters="sRGB"><feFlood id="fu" flood-color="rgb(0,0,0)" flood-opacity=".49804" result="flood"/><feComposite id="fv" in="flood" in2="SourceGraphic" operator="in" result="composite1"/><feGaussianBlur id="fw" in="composite1" result="blur" stdDeviation="2.6"/><feOffset id="fx" dx="1.1" dy="1.1" result="offset"/><feComposite id="fy" in="SourceGraphic" in2="offset" result="composite2"/></filter><filter id="ay" color-interpolation-filters="sRGB"><feFlood id="fz" flood-color="rgb(0,0,0)" flood-opacity=".49804" result="flood"/><feComposite id="ga" in="flood" in2="SourceGraphic" operator="in" result="composite1"/><feGaussianBlur id="gb" in="composite1" result="blur" stdDeviation="2.6"/><feOffset id="gc" dx="1.1" dy="1.1" result="offset"/><feComposite id="gd" in="SourceGraphic" in2="offset" result="composite2"/></filter><filter id="ax" color-interpolation-filters="sRGB"><feFlood id="ge" flood-color="rgb(0,0,0)" flood-opacity=".49804" result="flood"/><feComposite id="gf" in="flood" in2="SourceGraphic" operator="in" result="composite1"/><feGaussianBlur id="gg" in="composite1" result="blur" stdDeviation="2.6"/><feOffset id="gh" dx="1.1" dy="1.1" result="offset"/><feComposite id="gi" in="SourceGraphic" in2="offset" result="composite2"/></filter><filter id="aw" color-interpolation-filters="sRGB"><feFlood id="gj" flood-color="rgb(0,0,0)" flood-opacity=".49804" result="flood"/><feComposite id="gk" in="flood" in2="SourceGraphic" operator="in" result="composite1"/><feGaussianBlur id="gl" in="composite1" result="blur" stdDeviation="2.6"/><feOffset id="gm" dx="1.1" dy="1.1" result="offset"/><feComposite id="gn" in="SourceGraphic" in2="offset" result="composite2"/></filter><filter id="av" color-interpolation-filters="sRGB"><feFlood id="go" flood-color="rgb(0,0,0)" flood-opacity=".49804" result="flood"/><feComposite id="gp" in="flood" in2="SourceGraphic" operator="in" result="composite1"/><feGaussianBlur id="gq" in="composite1" result="blur" stdDeviation="2.6"/><feOffset id="gr" dx="1.1" dy="1.1" result="offset"/><feComposite id="gs" in="SourceGraphic" in2="offset" result="composite2"/></filter><filter id="au" color-interpolation-filters="sRGB"><feFlood id="gt" flood-color="rgb(0,0,0)" flood-opacity=".49804" result="flood"/><feComposite id="gu" in="flood" in2="SourceGraphic" operator="in" result="composite1"/><feGaussianBlur id="gv" in="composite1" result="blur" stdDeviation="2.6"/><feOffset id="gw" dx="1.1" dy="1.1" result="offset"/><feComposite id="gx" in="SourceGraphic" in2="offset" result="composite2"/></filter><filter id="at" color-interpolation-filters="sRGB"><feFlood id="gy" flood-color="rgb(0,0,0)" flood-opacity=".49804" result="flood"/><feComposite id="gz" in="flood" in2="SourceGraphic" operator="in" result="composite1"/><feGaussianBlur id="ha" in="composite1" result="blur" stdDeviation="2.6"/><feOffset id="hb" dx="1.1" dy="1.1" result="offset"/><feComposite id="hc" in="SourceGraphic" in2="offset" result="composite2"/></filter><filter id="as" color-interpolation-filters="sRGB"><feFlood id="hd" flood-color="rgb(0,0,0)" flood-opacity=".49804" result="flood"/><feComposite id="he" in="flood" in2="SourceGraphic" operator="in" result="composite1"/><feGaussianBlur id="hf" in="composite1" result="blur" stdDeviation="2.6"/><feOffset id="hg" dx="1.1" dy="1.1" result="offset"/><feComposite id="hh" in="SourceGraphic" in2="offset" result="composite2"/></filter><filter id="ar" color-interpolation-filters="sRGB"><feFlood id="hi" flood-color="rgb(0,0,0)" flood-opacity=".49804" result="flood"/><feComposite id="hj" in="flood" in2="SourceGraphic" operator="in" result="composite1"/><feGaussianBlur id="hk" in="composite1" result="blur" stdDeviation="2.6"/><feOffset id="hl" dx="1.1" dy="1.1" result="offset"/><feComposite id="hm" in="SourceGraphic" in2="offset" result="composite2"/></filter><filter id="aq" color-interpolation-filters="sRGB"><feFlood id="hn" flood-color="rgb(0,0,0)" flood-opacity=".49804" result="flood"/><feComposite id="ho" in="flood" in2="SourceGraphic" operator="in" result="composite1"/><feGaussianBlur id="hp" in="composite1" result="blur" stdDeviation="2.6"/><feOffset id="hq" dx="1.1" dy="1.1" result="offset"/><feComposite id="hr" in="SourceGraphic" in2="offset" result="composite2"/></filter><filter id="ap" color-interpolation-filters="sRGB"><feFlood id="hs" flood-color="rgb(0,0,0)" flood-opacity=".49804" result="flood"/><feComposite id="ht" in="flood" in2="SourceGraphic" operator="in" result="composite1"/><feGaussianBlur id="hu" in="composite1" result="blur" stdDeviation="2.6"/><feOffset id="hv" dx="1.1" dy="1.1" result="offset"/><feComposite id="hw" in="SourceGraphic" in2="offset" result="composite2"/></filter><filter id="ao" color-interpolation-filters="sRGB"><feFlood id="hx" flood-color="rgb(0,0,0)" flood-opacity=".49804" result="flood"/><feComposite id="hy" in="flood" in2="SourceGraphic" operator="in" result="composite1"/><feGaussianBlur id="hz" in="composite1" result="blur" stdDeviation="2.6"/><feOffset id="ia" dx="1.1" dy="1.1" result="offset"/><feComposite id="ib" in="SourceGraphic" in2="offset" result="composite2"/></filter><filter id="an" color-interpolation-filters="sRGB"><feFlood id="ic" flood-color="rgb(0,0,0)" flood-opacity=".49804" result="flood"/><feComposite id="id" in="flood" in2="SourceGraphic" operator="in" result="composite1"/><feGaussianBlur id="ie" in="composite1" result="blur" stdDeviation="2.6"/><feOffset id="if" dx="1.1" dy="1.1" result="offset"/><feComposite id="ig" in="SourceGraphic" in2="offset" result="composite2"/></filter><filter id="am" color-interpolation-filters="sRGB"><feFlood id="ih" flood-color="rgb(0,0,0)" flood-opacity=".49804" result="flood"/><feComposite id="ii" in="flood" in2="SourceGraphic" operator="in" result="composite1"/><feGaussianBlur id="ij" in="composite1" result="blur" stdDeviation="2.6"/><feOffset id="ik" dx="1.1" dy="1.1" result="offset"/><feComposite id="il" in="SourceGraphic" in2="offset" result="composite2"/></filter><filter id="az" color-interpolation-filters="sRGB"><feFlood id="im" flood-color="rgb(0,0,0)" flood-opacity=".49804" result="flood"/><feComposite id="in" in="flood" in2="SourceGraphic" operator="in" result="composite1"/><feGaussianBlur id="io" in="composite1" result="blur" stdDeviation="2.6"/><feOffset id="ip" dx="1.1" dy="1.1" result="offset"/><feComposite id="iq" in="SourceGraphic" in2="offset" result="composite2"/></filter><clipPath id="bn"><path id="ir" d="m549.14-40.479c-19.32 0-35.01 15.69-35.01 35.01s15.69 34.979 35.01 34.979c19.32 0 34.979-15.659 34.979-34.979s-15.659-35.01-34.979-35.01z" fill="#aac0ef"/></clipPath><filter id="ae" color-interpolation-filters="sRGB"><feGaussianBlur id="is" stdDeviation="0.66601563"/></filter><filter id="r" color-interpolation-filters="sRGB"><feGaussianBlur id="it" stdDeviation="0.60528572"/></filter><filter id="bg" color-interpolation-filters="sRGB"><feFlood id="iu" flood-color="rgb(0,0,0)" flood-opacity=".49804" result="flood"/><feComposite id="iv" in="flood" in2="SourceGraphic" operator="in" result="composite1"/><feGaussianBlur id="iw" in="composite1" result="blur" stdDeviation="2.6"/><feOffset id="ix" dx="1.1" dy="1.1" result="offset"/><feComposite id="iy" in="SourceGraphic" in2="offset" result="composite2"/></filter><clipPath id="bt"><path id="iz" d="m549.14-40.479c-19.32 0-35.01 15.69-35.01 35.01s15.69 34.979 35.01 34.979c19.32 0 34.979-15.659 34.979-34.979s-15.659-35.01-34.979-35.01z" fill="#aac0ef"/></clipPath><filter id="aa" color-interpolation-filters="sRGB"><feGaussianBlur id="ja" stdDeviation="0.66601563"/></filter><filter id="n" color-interpolation-filters="sRGB"><feGaussianBlur id="jb" stdDeviation="0.60528572"/></filter><linearGradient id="i" x1="250" x2="243" y1="60" y2="60" gradientTransform="matrix(1.0001 0 0 1.0168 -454.14 -236.76)" gradientUnits="userSpaceOnUse"><stop id="jc" stop-color="#fff" offset="0"/><stop id="jd" stop-color="#fff" stop-opacity="0" offset="1"/></linearGradient><mask id="g" maskUnits="userSpaceOnUse"><rect id="je" transform="scale(-1,1)" x="-211.12" y="-258.12" width="73.567" height="163.45" fill="url(#i)" stroke-miterlimit="4" stroke-width="0"/></mask></defs><g id="jf"><g id="jg" transform="matrix(.7071 -.7071 .70711 .70711 43.042 334.37)" mask="url(#g)"><path id="jh" d="m265.71-171.21v-12.002l-12.439-0.415c-0.552-4.127-1.622-8.089-3.153-11.816l10.555-6.572-6-10.394-10.981 5.861c-2.503-3.236-5.408-6.142-8.645-8.645l5.861-10.981-10.393-5.999-6.572 10.555c-3.728-1.532-7.689-2.603-11.817-3.155l-0.416-12.439h-12l-0.415 12.439c-4.128 0.552-8.09 1.623-11.817 3.154l-6.572-10.554-10.393 6 5.861 10.981c-3.236 2.503-6.142 5.409-8.646 8.646l-10.981-5.861-6 10.392 10.556 6.573c-1.532 3.727-2.603 7.689-3.154 11.817l-12.439 0.413-1e-3 12 12.44 0.415c0.552 4.128 1.623 8.09 3.154 11.817l-10.555 6.573 5.999 10.393 10.983-5.862c2.503 3.236 5.409 6.143 8.646 8.646l-5.862 10.982 10.392 6 6.573-10.557c3.727 1.531 7.689 2.603 11.817 3.154l0.414 12.439h12l0.415-12.439c4.128-0.552 8.09-1.622 11.816-3.154l6.572 10.556 10.393-6-5.861-10.983c3.235-2.503 6.142-5.409 8.645-8.645l10.981 5.861 6.001-10.393-10.556-6.572c1.531-3.727 2.603-7.688 3.154-11.816l12.44-0.413zm-60 23.998c-16.542 0-30-13.458-30-30s13.458-30 30-30 30 13.458 30 30-13.458 30-30 30z" filter="url(#al)"/><path id="ji" d="m265.71-172.21v-12.002l-12.439-0.415c-0.552-4.127-1.622-8.089-3.153-11.816l10.555-6.572-6-10.394-10.981 5.861c-2.503-3.236-5.408-6.142-8.645-8.645l5.861-10.981-10.393-5.999-6.572 10.555c-3.728-1.532-7.689-2.603-11.817-3.155l-0.416-12.439h-12l-0.415 12.439c-4.128 0.552-8.09 1.623-11.817 3.154l-6.572-10.554-10.393 6 5.861 10.981c-3.236 2.503-6.142 5.409-8.646 8.646l-10.981-5.861-6 10.392 10.556 6.573c-1.532 3.727-2.603 7.689-3.154 11.817l-12.439 0.413-1e-3 12 12.44 0.415c0.552 4.128 1.623 8.09 3.154 11.817l-10.555 6.573 5.999 10.393 10.983-5.862c2.503 3.236 5.409 6.143 8.646 8.646l-5.862 10.982 10.392 6 6.573-10.557c3.727 1.531 7.689 2.603 11.817 3.154l0.414 12.439h12l0.415-12.439c4.128-0.552 8.09-1.622 11.816-3.154l6.572 10.556 10.393-6-5.861-10.983c3.235-2.503 6.142-5.409 8.645-8.645l10.981 5.861 6.001-10.393-10.556-6.572c1.531-3.727 2.603-7.688 3.154-11.816l12.44-0.413zm-60 23.998c-16.542 0-30-13.458-30-30s13.458-30 30-30 30 13.458 30 30-13.458 30-30 30z" fill="url(#f)"/><path id="jj" d="m200.68-237.21c-0.055 1.645-0.382 11.473-0.382 11.473-0.016 0.488-0.383 0.893-0.867 0.958-3.989 0.533-7.881 1.572-11.569 3.088-0.452 0.186-0.972 0.018-1.229-0.396 0 0-5.191-8.338-6.061-9.734-1.292 0.746-7.425 4.287-8.717 5.033 0.775 1.452 5.406 10.128 5.406 10.128 0.08 0.149 0.118 0.311 0.118 0.47 0 0.301-0.136 0.597-0.388 0.792-3.167 2.45-6.016 5.299-8.466 8.466-0.298 0.386-0.832 0.5-1.262 0.271 0 0-8.677-4.631-10.128-5.406-0.746 1.292-4.287 7.425-5.033 8.717 1.396 0.87 9.734 6.061 9.734 6.061 0.301 0.188 0.472 0.513 0.472 0.85 0 0.127-0.024 0.256-0.075 0.38-1.517 3.689-2.556 7.582-3.088 11.569-0.064 0.484-0.47 0.851-0.958 0.867 0 0-9.828 0.328-11.473 0.382v3.171c8.88 1.789 18.332 3.162 28.128 4.095-0.06-1.024-0.129-2.235-0.129-2.235 0-17.093 13.907-31 31-31 17.094 0 31 13.907 31 31 0 0-0.07 1.223-0.129 2.251 9.789-0.925 19.24-2.292 28.129-4.074v-3.209c-1.645-0.055-11.473-0.382-11.473-0.382-0.488-0.016-0.894-0.383-0.958-0.867-0.533-3.988-1.572-7.88-3.087-11.568-0.051-0.124-0.075-0.252-0.075-0.379 0-0.337 0.171-0.662 0.472-0.85 0 0 8.337-5.191 9.733-6.061-0.746-1.292-4.287-7.426-5.033-8.718-1.451 0.774-10.128 5.406-10.128 5.406-0.43 0.229-0.963 0.115-1.262-0.271-2.45-3.168-5.299-6.017-8.465-8.466-0.253-0.195-0.389-0.49-0.389-0.792 0-0.16 0.038-0.321 0.118-0.47 0 0 4.631-8.676 5.405-10.128-1.292-0.746-7.425-4.288-8.717-5.034-0.87 1.396-6.062 9.734-6.062 9.734-0.258 0.414-0.777 0.582-1.229 0.396-3.689-1.516-7.582-2.555-11.57-3.088-0.483-0.065-0.851-0.47-0.866-0.958 0 0-0.328-9.828-0.383-11.473-1.49 1e-3 -8.572 1e-3 -10.064 1e-3z" fill="url(#m)"/><path id="jk" d="m205.71-212.21c-18.777 0-34 15.223-34 34 0 18.778 15.223 34 34 34 18.778 0 34-15.222 34-34 0-18.777-15.222-34-34-34zm0 59c-13.785 0-25-11.215-25-25s11.215-25 25-25 25 11.215 25 25-11.215 25-25 25z" fill="url(#l)"/><path id="jl" d="m205.71-210.21c-17.645 0-32 14.355-32 32s14.355 32 32 32 32-14.355 32-32-14.355-32-32-32zm0 57c-13.785 0-25-11.215-25-25s11.215-25 25-25 25 11.215 25 25-11.215 25-25 25z" fill="url(#k)"/><path id="jm" d="m205.71-204.21c-14.336 0-26 11.664-26 26 0 14.337 11.664 26 26 26 14.337 0 26-11.663 26-26 0-14.336-11.663-26-26-26zm0 50c-13.233 0-24-10.767-24-24s10.767-24 24-24 24 10.767 24 24-10.767 24-24 24z" fill="url(#j)"/><path id="jn" d="m161.01-159.79-10.253 6.384 0.425 0.735 10.131-6.308c-0.11-0.266-0.199-0.543-0.303-0.811z" fill="#fff"/><path id="jo" d="m180.91-232.18 6.572 10.555c3.727-1.532 7.689-2.603 11.817-3.154l0.415-12.44h12l0.415 12.439c4.128 0.552 8.09 1.623 11.817 3.155l6.572-10.555 9.984 5.766 0.408-0.765-10.391-6.001-6.572 10.555c-3.728-1.532-7.689-2.603-11.817-3.155l-0.416-12.439h-12l-0.415 12.439c-4.128 0.552-8.09 1.623-11.817 3.154l-6.572-10.554-10.393 6 0.408 0.765 9.985-5.765z" fill="#fff"/><path id="jp" d="m235.42-215.89-0.37 0.694c3.236 2.503 6.142 5.409 8.645 8.645l10.981-5.861 5.575 9.658 0.425-0.265-6-10.394-10.981 5.861c-2.406-3.108-5.19-5.903-8.275-8.338z" fill="#fff"/><path id="jq" d="m176.01-139.54-5.491 10.288 0.408 0.235 5.454-10.218c-0.127-0.097-0.245-0.207-0.371-0.305z" fill="#fff"/><path id="jr" d="m249.7-176.83c-0.394 23.923-19.966 43.267-43.981 43.267-24.016 0-43.587-19.344-43.981-43.267-4e-3 0.244-0.019 0.487-0.019 0.732 0 24.262 19.738 44 44 44s44-19.738 44-44c0-0.245-0.015-0.488-0.019-0.732z" fill="#fff" opacity=".5"/><path id="js" d="m253.28-184.63c-0.513-3.833-1.489-7.514-2.85-11.005l-0.304 0.189c1.531 3.727 2.602 7.688 3.153 11.816l12.44 0.414v-1l-12.439-0.414z" fill="#fff"/><path id="jt" d="m250.12-158.98 10.131 6.308 0.425-0.735-10.252-6.384c-0.106 0.268-0.194 0.545-0.304 0.811z" fill="#fff"/><path id="ju" d="m156.75-212.41 10.981 5.861c2.503-3.236 5.409-6.142 8.646-8.646l-0.371-0.694c-3.084 2.435-5.87 5.23-8.275 8.339l-10.981-5.861-6 10.392 0.425 0.265 5.575-9.656z" fill="#fff"/><path id="jv" d="m235.05-139.23 5.453 10.217 0.408-0.235-5.491-10.287c-0.125 0.098-0.243 0.208-0.37 0.305z" fill="#fff"/><path id="jw" d="m145.71-183.21 12.439-0.415c0.551-4.128 1.623-8.09 3.154-11.817l-0.303-0.189c-1.361 3.491-2.339 7.173-2.851 11.006l-12.439 0.415-1e-3 12 1e-3 -11z" fill="#fff"/></g><path id="jx" transform="matrix(.70711 -.70711 .70711 .70711 -26.46 63.311)" d="m90.029 17.065-14 25" fill="none" filter="url(#an)" stroke="#000" stroke-linejoin="miter" stroke-miterlimit="4" stroke-width="2"/><path id="jy" transform="matrix(.70711 -.70711 .70711 .70711 -26.46 63.311)" d="m88.029 63.065h25" fill="none" filter="url(#ao)" stroke="#000" stroke-linejoin="miter" stroke-miterlimit="4" stroke-width="2"/><path id="jz" transform="matrix(.70711 -.70711 .70711 .70711 -26.46 63.311)" d="m76.404 84.065-12.375 34" fill="none" filter="url(#ap)" stroke="#000" stroke-linejoin="miter" stroke-miterlimit="4" stroke-width="2"/><path id="ka" transform="matrix(.70711 -.70711 .70711 .70711 -26.46 63.311)" d="m76.279 41.628-12-32.438" fill="none" filter="url(#aq)" stroke="#000" stroke-linejoin="miter" stroke-miterlimit="4" stroke-width="2"/><path id="kb" transform="matrix(.70711 -.70711 .70711 .70711 -26.46 63.311)" d="m76.029 41.878 34.503-6.3316" fill="none" filter="url(#ar)" stroke="#000" stroke-linejoin="miter" stroke-miterlimit="4" stroke-width="2"/><path id="kc" transform="matrix(.70711 -.70711 .70711 .70711 -26.46 63.311)" d="m110.62 35.591-21.591 27.475" fill="none" filter="url(#as)" stroke="#000" stroke-linejoin="miter" stroke-miterlimit="4" stroke-width="2"/><path id="kd" transform="matrix(.70711 -.70711 .70711 .70711 -26.46 63.311)" d="m76.279 84.003 15.25 27.938" fill="none" filter="url(#at)" stroke="#000" stroke-linejoin="miter" stroke-miterlimit="4" stroke-width="2"/><path id="ke" transform="matrix(.70711 -.70711 .70711 .70711 -26.46 63.311)" d="m110.75 90.546-34.411-6.5434" fill="none" filter="url(#au)" stroke="#000" stroke-linejoin="miter" stroke-miterlimit="4" stroke-width="2"/><path id="kf" transform="matrix(.70711 -.70711 .70711 .70711 -26.46 63.311)" d="m89.029 63.065 21.856 27.26" fill="none" filter="url(#av)" stroke="#000" stroke-linejoin="miter" stroke-miterlimit="4" stroke-width="2"/><path id="kg" transform="matrix(.4205 -.4205 .4205 .4205 -5.2136 97.156)" d="m111.61-0.72205a41.875 41.875 0 1 1-3.4696 80.155" fill="none" filter="url(#am)" stroke="#000" stroke-linecap="round" stroke-linejoin="miter" stroke-miterlimit="4" stroke-width="3.39"/><g id="kh" transform="matrix(.19247 -.19247 .19247 .19247 88.991 35.081)" filter="url(#aw)"><path id="ki" d="m31.52 77.913c-13.438 0-24.351 10.913-24.351 24.351 0 13.438 10.913 24.329 24.351 24.329 13.438 0 24.329-10.892 24.329-24.329 0-13.438-10.892-24.351-24.329-24.351z" fill="#00f"/><path id="kj" transform="matrix(.69811 0 0 .69811 -351.93 106.27)" d="m549.12-40.125c-19.124 1e-6 -34.656 15.532-34.656 34.656-1e-5 17.548 13.101 32.011 30.031 34.281-14.59-2.2283-25.781-14.822-25.781-30.031 0-16.782 13.624-30.406 30.406-30.406 16.782 0 30.406 13.624 30.406 30.406 0 15.733-11.959 28.663-27.281 30.219 17.666-1.573 31.5-16.393 31.5-34.469 0-19.124-15.501-34.656-34.625-34.656zm3.125 69.125c-0.51075 0.05186-1.0446 0.09875-1.5625 0.125 0.51874-0.02306 1.05-0.079362 1.5625-0.125zm-7.75-0.1875c0.51156 0.06861 1.0129 0.14147 1.5312 0.1875-0.51085-0.051862-1.0282-0.11066-1.5312-0.1875zm1.5312 0.1875c0.51014 0.0453 1.015 0.10205 1.5312 0.125-0.51796-0.026249-1.0204-0.073138-1.5312-0.125z" clip-path="url(#br)" fill="url(#h)" filter="url(#ak)"/><path id="kk" transform="matrix(.73731 0 0 .64114 -304.37 113.54)" d="m469.61-34.831c0 9.6838-6.3143 17.534-14.103 17.534-7.7891 0-14.103-7.8503-14.103-17.534s6.3143-17.534 14.103-17.534c7.7891 0 14.103 7.8503 14.103 17.534z" fill="url(#b)" filter="url(#y)" opacity=".40625"/><path id="kl" d="m32.597 80.68 0.18345 3.8326c1.5197 0.02728 3 0.1701 4.4244 0.39488-0.29587-1.247-0.58831-2.4939-0.8971-3.7397-1.1876-0.26925-2.4278-0.42269-3.7108-0.48779zm-2.8136 0.02323c-1.2317 0.09362-2.4306 0.29697-3.5681 0.5807-0.32793 1.3212-0.64538 2.6484-0.95827 3.972 1.4657-0.32962 2.9973-0.53661 4.5875-0.65038l0.18345-3.9023c-0.08371 0.005414-0.16121-0.006339-0.24461-1e-6zm8.7672 1.1149c0.37756 1.1895 0.74986 2.3824 1.1214 3.5771 2.6804 0.65768 5.113 1.6422 7.1565 2.9035-1.5878-2.8514-4.5504-5.1687-8.2779-6.4806zm-14.904 0.27874c-3.9916 1.6011-7.0114 4.3945-8.2167 7.7349 1.8666-1.5489 4.2367-2.8211 6.9322-3.7397 0.42579-1.3309 0.85093-2.6622 1.2845-3.9952zm9.1955 3.6932 0.2854 5.5979c1.954 0.05081 3.8624 0.22625 5.6681 0.55747-0.4096-1.9025-0.83988-3.809-1.2845-5.7141-1.5009-0.25246-3.0602-0.40955-4.669-0.44133zm-3.0583 0.06968c-1.6892 0.12392-3.3063 0.39988-4.8526 0.76652-0.44223 1.9039-0.85542 3.8068-1.2641 5.7141 1.8554-0.4471 3.8084-0.74138 5.8516-0.88266l0.26506-5.5979zm10.317 0.92912c0.60395 1.9579 1.2082 3.933 1.7942 5.8999 2.189 0.62092 4.1932 1.4272 5.974 2.4157 0.14842-0.66948 0.22428-1.3434 0.22428-2.0441 0-1.0243-0.17685-1.998-0.48934-2.95-2.0947-1.4335-4.6408-2.5729-7.5031-3.3216zm-18.207 0.72007c-2.7062 0.97957-5.0684 2.3283-6.8914 3.9488-0.09123 0.52634-0.14275 1.0581-0.14275 1.6027 0 0.93586 0.14324 1.8404 0.40781 2.7177 1.4248-0.90214 3.0247-1.694 4.771-2.346 0.60713-1.9713 1.2281-3.9494 1.8554-5.9231z" fill="url(#a)" opacity=".39674"/></g><g id="km" transform="matrix(.19247 -.19247 .19247 .19247 31.033 25.267)" filter="url(#ax)"><path id="kn" d="m31.52 77.913c-13.438 0-24.351 10.913-24.351 24.351 0 13.438 10.913 24.329 24.351 24.329 13.438 0 24.329-10.892 24.329-24.329 0-13.438-10.892-24.351-24.329-24.351z" fill="url(#e)"/><path id="ko" transform="matrix(.69811 0 0 .69811 -351.93 106.27)" d="m549.12-40.125c-19.124 1e-6 -34.656 15.532-34.656 34.656-1e-5 17.548 13.101 32.011 30.031 34.281-14.59-2.2283-25.781-14.822-25.781-30.031 0-16.782 13.624-30.406 30.406-30.406 16.782 0 30.406 13.624 30.406 30.406 0 15.733-11.959 28.663-27.281 30.219 17.666-1.573 31.5-16.393 31.5-34.469 0-19.124-15.501-34.656-34.625-34.656zm3.125 69.125c-0.51075 0.05186-1.0446 0.09875-1.5625 0.125 0.51874-0.02306 1.05-0.079362 1.5625-0.125zm-7.75-0.1875c0.51156 0.06861 1.0129 0.14147 1.5312 0.1875-0.51085-0.051862-1.0282-0.11066-1.5312-0.1875zm1.5312 0.1875c0.51014 0.0453 1.015 0.10205 1.5312 0.125-0.51796-0.026249-1.0204-0.073138-1.5312-0.125z" clip-path="url(#bv)" fill="url(#d)" filter="url(#ac)"/><path id="kp" transform="matrix(.73731 0 0 .64114 -304.37 113.54)" d="m469.61-34.831c0 9.6838-6.3143 17.534-14.103 17.534-7.7891 0-14.103-7.8503-14.103-17.534s6.3143-17.534 14.103-17.534c7.7891 0 14.103 7.8503 14.103 17.534z" fill="url(#b)" filter="url(#q)" opacity=".40625"/><path id="kq" d="m32.597 80.68 0.18345 3.8326c1.5197 0.02728 3 0.1701 4.4244 0.39488-0.29587-1.247-0.58831-2.4939-0.8971-3.7397-1.1876-0.26925-2.4278-0.42269-3.7108-0.48779zm-2.8136 0.02323c-1.2317 0.09362-2.4306 0.29697-3.5681 0.5807-0.32793 1.3212-0.64538 2.6484-0.95827 3.972 1.4657-0.32962 2.9973-0.53661 4.5875-0.65038l0.18345-3.9023c-0.08371 0.005414-0.16121-0.006339-0.24461-1e-6zm8.7672 1.1149c0.37756 1.1895 0.74986 2.3824 1.1214 3.5771 2.6804 0.65768 5.113 1.6422 7.1565 2.9035-1.5878-2.8514-4.5504-5.1687-8.2779-6.4806zm-14.904 0.27874c-3.9916 1.6011-7.0114 4.3945-8.2167 7.7349 1.8666-1.5489 4.2367-2.8211 6.9322-3.7397 0.42579-1.3309 0.85093-2.6622 1.2845-3.9952zm9.1955 3.6932 0.2854 5.5979c1.954 0.05081 3.8624 0.22625 5.6681 0.55747-0.4096-1.9025-0.83988-3.809-1.2845-5.7141-1.5009-0.25246-3.0602-0.40955-4.669-0.44133zm-3.0583 0.06968c-1.6892 0.12392-3.3063 0.39988-4.8526 0.76652-0.44223 1.9039-0.85542 3.8068-1.2641 5.7141 1.8554-0.4471 3.8084-0.74138 5.8516-0.88266l0.26506-5.5979zm10.317 0.92912c0.60395 1.9579 1.2082 3.933 1.7942 5.8999 2.189 0.62092 4.1932 1.4272 5.974 2.4157 0.14842-0.66948 0.22428-1.3434 0.22428-2.0441 0-1.0243-0.17685-1.998-0.48934-2.95-2.0947-1.4335-4.6408-2.5729-7.5031-3.3216zm-18.207 0.72007c-2.7062 0.97957-5.0684 2.3283-6.8914 3.9488-0.09123 0.52634-0.14275 1.0581-0.14275 1.6027 0 0.93586 0.14324 1.8404 0.40781 2.7177 1.4248-0.90214 3.0247-1.694 4.771-2.346 0.60713-1.9713 1.2281-3.9494 1.8554-5.9231z" fill="url(#a)" opacity=".39674"/></g><g id="kr" transform="matrix(.19247 -.19247 .19247 .19247 54.547 31.748)" filter="url(#ay)"><path id="ks" d="m31.52 77.913c-13.438 0-24.351 10.913-24.351 24.351 0 13.438 10.913 24.329 24.351 24.329 13.438 0 24.329-10.892 24.329-24.329 0-13.438-10.892-24.351-24.329-24.351z" fill="#00f"/><path id="kt" transform="matrix(.69811 0 0 .69811 -351.93 106.27)" d="m549.12-40.125c-19.124 1e-6 -34.656 15.532-34.656 34.656-1e-5 17.548 13.101 32.011 30.031 34.281-14.59-2.2283-25.781-14.822-25.781-30.031 0-16.782 13.624-30.406 30.406-30.406 16.782 0 30.406 13.624 30.406 30.406 0 15.733-11.959 28.663-27.281 30.219 17.666-1.573 31.5-16.393 31.5-34.469 0-19.124-15.501-34.656-34.625-34.656zm3.125 69.125c-0.51075 0.05186-1.0446 0.09875-1.5625 0.125 0.51874-0.02306 1.05-0.079362 1.5625-0.125zm-7.75-0.1875c0.51156 0.06861 1.0129 0.14147 1.5312 0.1875-0.51085-0.051862-1.0282-0.11066-1.5312-0.1875zm1.5312 0.1875c0.51014 0.0453 1.015 0.10205 1.5312 0.125-0.51796-0.026249-1.0204-0.073138-1.5312-0.125z" clip-path="url(#bq)" fill="url(#c)" filter="url(#aj)"/><path id="ku" transform="matrix(.73731 0 0 .64114 -304.37 113.54)" d="m469.61-34.831c0 9.6838-6.3143 17.534-14.103 17.534-7.7891 0-14.103-7.8503-14.103-17.534s6.3143-17.534 14.103-17.534c7.7891 0 14.103 7.8503 14.103 17.534z" fill="url(#b)" filter="url(#x)" opacity=".40625"/><path id="kv" d="m32.597 80.68 0.18345 3.8326c1.5197 0.02728 3 0.1701 4.4244 0.39488-0.29587-1.247-0.58831-2.4939-0.8971-3.7397-1.1876-0.26925-2.4278-0.42269-3.7108-0.48779zm-2.8136 0.02323c-1.2317 0.09362-2.4306 0.29697-3.5681 0.5807-0.32793 1.3212-0.64538 2.6484-0.95827 3.972 1.4657-0.32962 2.9973-0.53661 4.5875-0.65038l0.18345-3.9023c-0.08371 0.005414-0.16121-0.006339-0.24461-1e-6zm8.7672 1.1149c0.37756 1.1895 0.74986 2.3824 1.1214 3.5771 2.6804 0.65768 5.113 1.6422 7.1565 2.9035-1.5878-2.8514-4.5504-5.1687-8.2779-6.4806zm-14.904 0.27874c-3.9916 1.6011-7.0114 4.3945-8.2167 7.7349 1.8666-1.5489 4.2367-2.8211 6.9322-3.7397 0.42579-1.3309 0.85093-2.6622 1.2845-3.9952zm9.1955 3.6932 0.2854 5.5979c1.954 0.05081 3.8624 0.22625 5.6681 0.55747-0.4096-1.9025-0.83988-3.809-1.2845-5.7141-1.5009-0.25246-3.0602-0.40955-4.669-0.44133zm-3.0583 0.06968c-1.6892 0.12392-3.3063 0.39988-4.8526 0.76652-0.44223 1.9039-0.85542 3.8068-1.2641 5.7141 1.8554-0.4471 3.8084-0.74138 5.8516-0.88266l0.26506-5.5979zm10.317 0.92912c0.60395 1.9579 1.2082 3.933 1.7942 5.8999 2.189 0.62092 4.1932 1.4272 5.974 2.4157 0.14842-0.66948 0.22428-1.3434 0.22428-2.0441 0-1.0243-0.17685-1.998-0.48934-2.95-2.0947-1.4335-4.6408-2.5729-7.5031-3.3216zm-18.207 0.72007c-2.7062 0.97957-5.0684 2.3283-6.8914 3.9488-0.09123 0.52634-0.14275 1.0581-0.14275 1.6027 0 0.93586 0.14324 1.8404 0.40781 2.7177 1.4248-0.90214 3.0247-1.694 4.771-2.346 0.60713-1.9713 1.2281-3.9494 1.8554-5.9231z" fill="url(#a)" opacity=".39674"/></g><g id="kw" transform="matrix(.19247 -.19247 .19247 .19247 23.552 -2.6701)" filter="url(#ba)"><path id="kx" d="m31.52 77.913c-13.438 0-24.351 10.913-24.351 24.351 0 13.438 10.913 24.329 24.351 24.329 13.438 0 24.329-10.892 24.329-24.329 0-13.438-10.892-24.351-24.329-24.351z" fill="#00f"/><path id="ky" transform="matrix(.69811 0 0 .69811 -351.93 106.27)" d="m549.12-40.125c-19.124 1e-6 -34.656 15.532-34.656 34.656-1e-5 17.548 13.101 32.011 30.031 34.281-14.59-2.2283-25.781-14.822-25.781-30.031 0-16.782 13.624-30.406 30.406-30.406 16.782 0 30.406 13.624 30.406 30.406 0 15.733-11.959 28.663-27.281 30.219 17.666-1.573 31.5-16.393 31.5-34.469 0-19.124-15.501-34.656-34.625-34.656zm3.125 69.125c-0.51075 0.05186-1.0446 0.09875-1.5625 0.125 0.51874-0.02306 1.05-0.079362 1.5625-0.125zm-7.75-0.1875c0.51156 0.06861 1.0129 0.14147 1.5312 0.1875-0.51085-0.051862-1.0282-0.11066-1.5312-0.1875zm1.5312 0.1875c0.51014 0.0453 1.015 0.10205 1.5312 0.125-0.51796-0.026249-1.0204-0.073138-1.5312-0.125z" clip-path="url(#bp)" fill="url(#c)" filter="url(#ai)"/><path id="kz" transform="matrix(.73731 0 0 .64114 -304.37 113.54)" d="m469.61-34.831c0 9.6838-6.3143 17.534-14.103 17.534-7.7891 0-14.103-7.8503-14.103-17.534s6.3143-17.534 14.103-17.534c7.7891 0 14.103 7.8503 14.103 17.534z" fill="url(#b)" filter="url(#w)" opacity=".40625"/><path id="la" d="m32.597 80.68 0.18345 3.8326c1.5197 0.02728 3 0.1701 4.4244 0.39488-0.29587-1.247-0.58831-2.4939-0.8971-3.7397-1.1876-0.26925-2.4278-0.42269-3.7108-0.48779zm-2.8136 0.02323c-1.2317 0.09362-2.4306 0.29697-3.5681 0.5807-0.32793 1.3212-0.64538 2.6484-0.95827 3.972 1.4657-0.32962 2.9973-0.53661 4.5875-0.65038l0.18345-3.9023c-0.08371 0.005414-0.16121-0.006339-0.24461-1e-6zm8.7672 1.1149c0.37756 1.1895 0.74986 2.3824 1.1214 3.5771 2.6804 0.65768 5.113 1.6422 7.1565 2.9035-1.5878-2.8514-4.5504-5.1687-8.2779-6.4806zm-14.904 0.27874c-3.9916 1.6011-7.0114 4.3945-8.2167 7.7349 1.8666-1.5489 4.2367-2.8211 6.9322-3.7397 0.42579-1.3309 0.85093-2.6622 1.2845-3.9952zm9.1955 3.6932 0.2854 5.5979c1.954 0.05081 3.8624 0.22625 5.6681 0.55747-0.4096-1.9025-0.83988-3.809-1.2845-5.7141-1.5009-0.25246-3.0602-0.40955-4.669-0.44133zm-3.0583 0.06968c-1.6892 0.12392-3.3063 0.39988-4.8526 0.76652-0.44223 1.9039-0.85542 3.8068-1.2641 5.7141 1.8554-0.4471 3.8084-0.74138 5.8516-0.88266l0.26506-5.5979zm10.317 0.92912c0.60395 1.9579 1.2082 3.933 1.7942 5.8999 2.189 0.62092 4.1932 1.4272 5.974 2.4157 0.14842-0.66948 0.22428-1.3434 0.22428-2.0441 0-1.0243-0.17685-1.998-0.48934-2.95-2.0947-1.4335-4.6408-2.5729-7.5031-3.3216zm-18.207 0.72007c-2.7062 0.97957-5.0684 2.3283-6.8914 3.9488-0.09123 0.52634-0.14275 1.0581-0.14275 1.6027 0 0.93586 0.14324 1.8404 0.40781 2.7177 1.4248-0.90214 3.0247-1.694 4.771-2.346 0.60713-1.9713 1.2281-3.9494 1.8554-5.9231z" fill="url(#a)" opacity=".39674"/></g><g id="lb" transform="matrix(.19247 -.19247 .19247 .19247 50.75 -2.9201)" filter="url(#bb)"><path id="lc" d="m31.52 77.913c-13.438 0-24.351 10.913-24.351 24.351 0 13.438 10.913 24.329 24.351 24.329 13.438 0 24.329-10.892 24.329-24.329 0-13.438-10.892-24.351-24.329-24.351z" fill="#00f"/><path id="ld" transform="matrix(.69811 0 0 .69811 -351.93 106.27)" d="m549.12-40.125c-19.124 1e-6 -34.656 15.532-34.656 34.656-1e-5 17.548 13.101 32.011 30.031 34.281-14.59-2.2283-25.781-14.822-25.781-30.031 0-16.782 13.624-30.406 30.406-30.406 16.782 0 30.406 13.624 30.406 30.406 0 15.733-11.959 28.663-27.281 30.219 17.666-1.573 31.5-16.393 31.5-34.469 0-19.124-15.501-34.656-34.625-34.656zm3.125 69.125c-0.51075 0.05186-1.0446 0.09875-1.5625 0.125 0.51874-0.02306 1.05-0.079362 1.5625-0.125zm-7.75-0.1875c0.51156 0.06861 1.0129 0.14147 1.5312 0.1875-0.51085-0.051862-1.0282-0.11066-1.5312-0.1875zm1.5312 0.1875c0.51014 0.0453 1.015 0.10205 1.5312 0.125-0.51796-0.026249-1.0204-0.073138-1.5312-0.125z" clip-path="url(#bo)" fill="url(#c)" filter="url(#ah)"/><path id="le" transform="matrix(.73731 0 0 .64114 -304.37 113.54)" d="m469.61-34.831c0 9.6838-6.3143 17.534-14.103 17.534-7.7891 0-14.103-7.8503-14.103-17.534s6.3143-17.534 14.103-17.534c7.7891 0 14.103 7.8503 14.103 17.534z" fill="url(#b)" filter="url(#t)" opacity=".40625"/><path id="lf" d="m32.597 80.68 0.18345 3.8326c1.5197 0.02728 3 0.1701 4.4244 0.39488-0.29587-1.247-0.58831-2.4939-0.8971-3.7397-1.1876-0.26925-2.4278-0.42269-3.7108-0.48779zm-2.8136 0.02323c-1.2317 0.09362-2.4306 0.29697-3.5681 0.5807-0.32793 1.3212-0.64538 2.6484-0.95827 3.972 1.4657-0.32962 2.9973-0.53661 4.5875-0.65038l0.18345-3.9023c-0.08371 0.005414-0.16121-0.006339-0.24461-1e-6zm8.7672 1.1149c0.37756 1.1895 0.74986 2.3824 1.1214 3.5771 2.6804 0.65768 5.113 1.6422 7.1565 2.9035-1.5878-2.8514-4.5504-5.1687-8.2779-6.4806zm-14.904 0.27874c-3.9916 1.6011-7.0114 4.3945-8.2167 7.7349 1.8666-1.5489 4.2367-2.8211 6.9322-3.7397 0.42579-1.3309 0.85093-2.6622 1.2845-3.9952zm9.1955 3.6932 0.2854 5.5979c1.954 0.05081 3.8624 0.22625 5.6681 0.55747-0.4096-1.9025-0.83988-3.809-1.2845-5.7141-1.5009-0.25246-3.0602-0.40955-4.669-0.44133zm-3.0583 0.06968c-1.6892 0.12392-3.3063 0.39988-4.8526 0.76652-0.44223 1.9039-0.85542 3.8068-1.2641 5.7141 1.8554-0.4471 3.8084-0.74138 5.8516-0.88266l0.26506-5.5979zm10.317 0.92912c0.60395 1.9579 1.2082 3.933 1.7942 5.8999 2.189 0.62092 4.1932 1.4272 5.974 2.4157 0.14842-0.66948 0.22428-1.3434 0.22428-2.0441 0-1.0243-0.17685-1.998-0.48934-2.95-2.0947-1.4335-4.6408-2.5729-7.5031-3.3216zm-18.207 0.72007c-2.7062 0.97957-5.0684 2.3283-6.8914 3.9488-0.09123 0.52634-0.14275 1.0581-0.14275 1.6027 0 0.93586 0.14324 1.8404 0.40781 2.7177 1.4248-0.90214 3.0247-1.694 4.771-2.346 0.60713-1.9713 1.2281-3.9494 1.8554-5.9231z" fill="url(#a)" opacity=".39674"/></g><g id="lg" transform="matrix(.19247 -.19247 .19247 .19247 61.807 54.858)" filter="url(#bc)"><path id="lh" d="m31.52 77.913c-13.438 0-24.351 10.913-24.351 24.351 0 13.438 10.913 24.329 24.351 24.329 13.438 0 24.329-10.892 24.329-24.329 0-13.438-10.892-24.351-24.329-24.351z" fill="#00f"/><path id="li" transform="matrix(.69811 0 0 .69811 -351.93 106.27)" d="m549.12-40.125c-19.124 1e-6 -34.656 15.532-34.656 34.656-1e-5 17.548 13.101 32.011 30.031 34.281-14.59-2.2283-25.781-14.822-25.781-30.031 0-16.782 13.624-30.406 30.406-30.406 16.782 0 30.406 13.624 30.406 30.406 0 15.733-11.959 28.663-27.281 30.219 17.666-1.573 31.5-16.393 31.5-34.469 0-19.124-15.501-34.656-34.625-34.656zm3.125 69.125c-0.51075 0.05186-1.0446 0.09875-1.5625 0.125 0.51874-0.02306 1.05-0.079362 1.5625-0.125zm-7.75-0.1875c0.51156 0.06861 1.0129 0.14147 1.5312 0.1875-0.51085-0.051862-1.0282-0.11066-1.5312-0.1875zm1.5312 0.1875c0.51014 0.0453 1.015 0.10205 1.5312 0.125-0.51796-0.026249-1.0204-0.073138-1.5312-0.125z" clip-path="url(#bm)" fill="url(#c)" filter="url(#ad)"/><path id="lj" transform="matrix(.73731 0 0 .64114 -304.37 113.54)" d="m469.61-34.831c0 9.6838-6.3143 17.534-14.103 17.534-7.7891 0-14.103-7.8503-14.103-17.534s6.3143-17.534 14.103-17.534c7.7891 0 14.103 7.8503 14.103 17.534z" fill="url(#b)" filter="url(#v)" opacity=".40625"/><path id="lk" d="m32.597 80.68 0.18345 3.8326c1.5197 0.02728 3 0.1701 4.4244 0.39488-0.29587-1.247-0.58831-2.4939-0.8971-3.7397-1.1876-0.26925-2.4278-0.42269-3.7108-0.48779zm-2.8136 0.02323c-1.2317 0.09362-2.4306 0.29697-3.5681 0.5807-0.32793 1.3212-0.64538 2.6484-0.95827 3.972 1.4657-0.32962 2.9973-0.53661 4.5875-0.65038l0.18345-3.9023c-0.08371 0.005414-0.16121-0.006339-0.24461-1e-6zm8.7672 1.1149c0.37756 1.1895 0.74986 2.3824 1.1214 3.5771 2.6804 0.65768 5.113 1.6422 7.1565 2.9035-1.5878-2.8514-4.5504-5.1687-8.2779-6.4806zm-14.904 0.27874c-3.9916 1.6011-7.0114 4.3945-8.2167 7.7349 1.8666-1.5489 4.2367-2.8211 6.9322-3.7397 0.42579-1.3309 0.85093-2.6622 1.2845-3.9952zm9.1955 3.6932 0.2854 5.5979c1.954 0.05081 3.8624 0.22625 5.6681 0.55747-0.4096-1.9025-0.83988-3.809-1.2845-5.7141-1.5009-0.25246-3.0602-0.40955-4.669-0.44133zm-3.0583 0.06968c-1.6892 0.12392-3.3063 0.39988-4.8526 0.76652-0.44223 1.9039-0.85542 3.8068-1.2641 5.7141 1.8554-0.4471 3.8084-0.74138 5.8516-0.88266l0.26506-5.5979zm10.317 0.92912c0.60395 1.9579 1.2082 3.933 1.7942 5.8999 2.189 0.62092 4.1932 1.4272 5.974 2.4157 0.14842-0.66948 0.22428-1.3434 0.22428-2.0441 0-1.0243-0.17685-1.998-0.48934-2.95-2.0947-1.4335-4.6408-2.5729-7.5031-3.3216zm-18.207 0.72007c-2.7062 0.97957-5.0684 2.3283-6.8914 3.9488-0.09123 0.52634-0.14275 1.0581-0.14275 1.6027 0 0.93586 0.14324 1.8404 0.40781 2.7177 1.4248-0.90214 3.0247-1.694 4.771-2.346 0.60713-1.9713 1.2281-3.9494 1.8554-5.9231z" fill="url(#a)" opacity=".39674"/></g><path id="ll" transform="matrix(.70711 -.70711 .70711 .70711 -26.46 63.311)" d="m57.47 87.852 6.3424 29.131" fill="none" filter="url(#bd)" stroke="#000" stroke-linejoin="miter" stroke-miterlimit="4" stroke-width="2"/><g id="lm" transform="matrix(.19247 -.19247 .19247 .19247 75.169 86.897)" filter="url(#be)"><path id="ln" d="m31.52 77.913c-13.438 0-24.351 10.913-24.351 24.351 0 13.438 10.913 24.329 24.351 24.329 13.438 0 24.329-10.892 24.329-24.329 0-13.438-10.892-24.351-24.329-24.351z" fill="#00f"/><path id="lo" transform="matrix(.69811 0 0 .69811 -351.93 106.27)" d="m549.12-40.125c-19.124 1e-6 -34.656 15.532-34.656 34.656-1e-5 17.548 13.101 32.011 30.031 34.281-14.59-2.2283-25.781-14.822-25.781-30.031 0-16.782 13.624-30.406 30.406-30.406 16.782 0 30.406 13.624 30.406 30.406 0 15.733-11.959 28.663-27.281 30.219 17.666-1.573 31.5-16.393 31.5-34.469 0-19.124-15.501-34.656-34.625-34.656zm3.125 69.125c-0.51075 0.05186-1.0446 0.09875-1.5625 0.125 0.51874-0.02306 1.05-0.079362 1.5625-0.125zm-7.75-0.1875c0.51156 0.06861 1.0129 0.14147 1.5312 0.1875-0.51085-0.051862-1.0282-0.11066-1.5312-0.1875zm1.5312 0.1875c0.51014 0.0453 1.015 0.10205 1.5312 0.125-0.51796-0.026249-1.0204-0.073138-1.5312-0.125z" clip-path="url(#bk)" fill="url(#c)" filter="url(#af)"/><path id="lp" transform="matrix(.73731 0 0 .64114 -304.37 113.54)" d="m469.61-34.831c0 9.6838-6.3143 17.534-14.103 17.534-7.7891 0-14.103-7.8503-14.103-17.534s6.3143-17.534 14.103-17.534c7.7891 0 14.103 7.8503 14.103 17.534z" fill="url(#b)" filter="url(#u)" opacity=".40625"/><path id="lq" d="m32.597 80.68 0.18345 3.8326c1.5197 0.02728 3 0.1701 4.4244 0.39488-0.29587-1.247-0.58831-2.4939-0.8971-3.7397-1.1876-0.26925-2.4278-0.42269-3.7108-0.48779zm-2.8136 0.02323c-1.2317 0.09362-2.4306 0.29697-3.5681 0.5807-0.32793 1.3212-0.64538 2.6484-0.95827 3.972 1.4657-0.32962 2.9973-0.53661 4.5875-0.65038l0.18345-3.9023c-0.08371 0.005414-0.16121-0.006339-0.24461-1e-6zm8.7672 1.1149c0.37756 1.1895 0.74986 2.3824 1.1214 3.5771 2.6804 0.65768 5.113 1.6422 7.1565 2.9035-1.5878-2.8514-4.5504-5.1687-8.2779-6.4806zm-14.904 0.27874c-3.9916 1.6011-7.0114 4.3945-8.2167 7.7349 1.8666-1.5489 4.2367-2.8211 6.9322-3.7397 0.42579-1.3309 0.85093-2.6622 1.2845-3.9952zm9.1955 3.6932 0.2854 5.5979c1.954 0.05081 3.8624 0.22625 5.6681 0.55747-0.4096-1.9025-0.83988-3.809-1.2845-5.7141-1.5009-0.25246-3.0602-0.40955-4.669-0.44133zm-3.0583 0.06968c-1.6892 0.12392-3.3063 0.39988-4.8526 0.76652-0.44223 1.9039-0.85542 3.8068-1.2641 5.7141 1.8554-0.4471 3.8084-0.74138 5.8516-0.88266l0.26506-5.5979zm10.317 0.92912c0.60395 1.9579 1.2082 3.933 1.7942 5.8999 2.189 0.62092 4.1932 1.4272 5.974 2.4157 0.14842-0.66948 0.22428-1.3434 0.22428-2.0441 0-1.0243-0.17685-1.998-0.48934-2.95-2.0947-1.4335-4.6408-2.5729-7.5031-3.3216zm-18.207 0.72007c-2.7062 0.97957-5.0684 2.3283-6.8914 3.9488-0.09123 0.52634-0.14275 1.0581-0.14275 1.6027 0 0.93586 0.14324 1.8404 0.40781 2.7177 1.4248-0.90214 3.0247-1.694 4.771-2.346 0.60713-1.9713 1.2281-3.9494 1.8554-5.9231z" fill="url(#a)" opacity=".39674"/></g><g id="lr" transform="matrix(.19247 -.19247 .19247 .19247 75.052 10.952)" filter="url(#bf)"><path id="ls" d="m31.52 77.913c-13.438 0-24.351 10.913-24.351 24.351 0 13.438 10.913 24.329 24.351 24.329 13.438 0 24.329-10.892 24.329-24.329 0-13.438-10.892-24.351-24.329-24.351z" fill="url(#e)"/><path id="lt" transform="matrix(.69811 0 0 .69811 -351.93 106.27)" d="m549.12-40.125c-19.124 1e-6 -34.656 15.532-34.656 34.656-1e-5 17.548 13.101 32.011 30.031 34.281-14.59-2.2283-25.781-14.822-25.781-30.031 0-16.782 13.624-30.406 30.406-30.406 16.782 0 30.406 13.624 30.406 30.406 0 15.733-11.959 28.663-27.281 30.219 17.666-1.573 31.5-16.393 31.5-34.469 0-19.124-15.501-34.656-34.625-34.656zm3.125 69.125c-0.51075 0.05186-1.0446 0.09875-1.5625 0.125 0.51874-0.02306 1.05-0.079362 1.5625-0.125zm-7.75-0.1875c0.51156 0.06861 1.0129 0.14147 1.5312 0.1875-0.51085-0.051862-1.0282-0.11066-1.5312-0.1875zm1.5312 0.1875c0.51014 0.0453 1.015 0.10205 1.5312 0.125-0.51796-0.026249-1.0204-0.073138-1.5312-0.125z" clip-path="url(#bs)" fill="url(#d)" filter="url(#z)"/><path id="lu" transform="matrix(.73731 0 0 .64114 -304.37 113.54)" d="m469.61-34.831c0 9.6838-6.3143 17.534-14.103 17.534-7.7891 0-14.103-7.8503-14.103-17.534s6.3143-17.534 14.103-17.534c7.7891 0 14.103 7.8503 14.103 17.534z" fill="url(#b)" filter="url(#p)" opacity=".40625"/><path id="lv" d="m32.597 80.68 0.18345 3.8326c1.5197 0.02728 3 0.1701 4.4244 0.39488-0.29587-1.247-0.58831-2.4939-0.8971-3.7397-1.1876-0.26925-2.4278-0.42269-3.7108-0.48779zm-2.8136 0.02323c-1.2317 0.09362-2.4306 0.29697-3.5681 0.5807-0.32793 1.3212-0.64538 2.6484-0.95827 3.972 1.4657-0.32962 2.9973-0.53661 4.5875-0.65038l0.18345-3.9023c-0.08371 0.005414-0.16121-0.006339-0.24461-1e-6zm8.7672 1.1149c0.37756 1.1895 0.74986 2.3824 1.1214 3.5771 2.6804 0.65768 5.113 1.6422 7.1565 2.9035-1.5878-2.8514-4.5504-5.1687-8.2779-6.4806zm-14.904 0.27874c-3.9916 1.6011-7.0114 4.3945-8.2167 7.7349 1.8666-1.5489 4.2367-2.8211 6.9322-3.7397 0.42579-1.3309 0.85093-2.6622 1.2845-3.9952zm9.1955 3.6932 0.2854 5.5979c1.954 0.05081 3.8624 0.22625 5.6681 0.55747-0.4096-1.9025-0.83988-3.809-1.2845-5.7141-1.5009-0.25246-3.0602-0.40955-4.669-0.44133zm-3.0583 0.06968c-1.6892 0.12392-3.3063 0.39988-4.8526 0.76652-0.44223 1.9039-0.85542 3.8068-1.2641 5.7141 1.8554-0.4471 3.8084-0.74138 5.8516-0.88266l0.26506-5.5979zm10.317 0.92912c0.60395 1.9579 1.2082 3.933 1.7942 5.8999 2.189 0.62092 4.1932 1.4272 5.974 2.4157 0.14842-0.66948 0.22428-1.3434 0.22428-2.0441 0-1.0243-0.17685-1.998-0.48934-2.95-2.0947-1.4335-4.6408-2.5729-7.5031-3.3216zm-18.207 0.72007c-2.7062 0.97957-5.0684 2.3283-6.8914 3.9488-0.09123 0.52634-0.14275 1.0581-0.14275 1.6027 0 0.93586 0.14324 1.8404 0.40781 2.7177 1.4248-0.90214 3.0247-1.694 4.771-2.346 0.60713-1.9713 1.2281-3.9494 1.8554-5.9231z" fill="url(#a)" opacity=".39674"/></g><g id="lw" transform="matrix(.19247 -.19247 .19247 .19247 89.273 62.831)" filter="url(#bh)"><path id="lx" d="m31.52 77.913c-13.438 0-24.351 10.913-24.351 24.351 0 13.438 10.913 24.329 24.351 24.329 13.438 0 24.329-10.892 24.329-24.329 0-13.438-10.892-24.351-24.329-24.351z" fill="url(#e)"/><path id="ly" transform="matrix(.69811 0 0 .69811 -351.93 106.27)" d="m549.12-40.125c-19.124 1e-6 -34.656 15.532-34.656 34.656-1e-5 17.548 13.101 32.011 30.031 34.281-14.59-2.2283-25.781-14.822-25.781-30.031 0-16.782 13.624-30.406 30.406-30.406 16.782 0 30.406 13.624 30.406 30.406 0 15.733-11.959 28.663-27.281 30.219 17.666-1.573 31.5-16.393 31.5-34.469 0-19.124-15.501-34.656-34.625-34.656zm3.125 69.125c-0.51075 0.05186-1.0446 0.09875-1.5625 0.125 0.51874-0.02306 1.05-0.079362 1.5625-0.125zm-7.75-0.1875c0.51156 0.06861 1.0129 0.14147 1.5312 0.1875-0.51085-0.051862-1.0282-0.11066-1.5312-0.1875zm1.5312 0.1875c0.51014 0.0453 1.015 0.10205 1.5312 0.125-0.51796-0.026249-1.0204-0.073138-1.5312-0.125z" clip-path="url(#bu)" fill="url(#d)" filter="url(#ab)"/><path id="lz" transform="matrix(.73731 0 0 .64114 -304.37 113.54)" d="m469.61-34.831c0 9.6838-6.3143 17.534-14.103 17.534-7.7891 0-14.103-7.8503-14.103-17.534s6.3143-17.534 14.103-17.534c7.7891 0 14.103 7.8503 14.103 17.534z" fill="url(#b)" filter="url(#o)" opacity=".40625"/><path id="ma" d="m32.597 80.68 0.18345 3.8326c1.5197 0.02728 3 0.1701 4.4244 0.39488-0.29587-1.247-0.58831-2.4939-0.8971-3.7397-1.1876-0.26925-2.4278-0.42269-3.7108-0.48779zm-2.8136 0.02323c-1.2317 0.09362-2.4306 0.29697-3.5681 0.5807-0.32793 1.3212-0.64538 2.6484-0.95827 3.972 1.4657-0.32962 2.9973-0.53661 4.5875-0.65038l0.18345-3.9023c-0.08371 0.005414-0.16121-0.006339-0.24461-1e-6zm8.7672 1.1149c0.37756 1.1895 0.74986 2.3824 1.1214 3.5771 2.6804 0.65768 5.113 1.6422 7.1565 2.9035-1.5878-2.8514-4.5504-5.1687-8.2779-6.4806zm-14.904 0.27874c-3.9916 1.6011-7.0114 4.3945-8.2167 7.7349 1.8666-1.5489 4.2367-2.8211 6.9322-3.7397 0.42579-1.3309 0.85093-2.6622 1.2845-3.9952zm9.1955 3.6932 0.2854 5.5979c1.954 0.05081 3.8624 0.22625 5.6681 0.55747-0.4096-1.9025-0.83988-3.809-1.2845-5.7141-1.5009-0.25246-3.0602-0.40955-4.669-0.44133zm-3.0583 0.06968c-1.6892 0.12392-3.3063 0.39988-4.8526 0.76652-0.44223 1.9039-0.85542 3.8068-1.2641 5.7141 1.8554-0.4471 3.8084-0.74138 5.8516-0.88266l0.26506-5.5979zm10.317 0.92912c0.60395 1.9579 1.2082 3.933 1.7942 5.8999 2.189 0.62092 4.1932 1.4272 5.974 2.4157 0.14842-0.66948 0.22428-1.3434 0.22428-2.0441 0-1.0243-0.17685-1.998-0.48934-2.95-2.0947-1.4335-4.6408-2.5729-7.5031-3.3216zm-18.207 0.72007c-2.7062 0.97957-5.0684 2.3283-6.8914 3.9488-0.09123 0.52634-0.14275 1.0581-0.14275 1.6027 0 0.93586 0.14324 1.8404 0.40781 2.7177 1.4248-0.90214 3.0247-1.694 4.771-2.346 0.60713-1.9713 1.2281-3.9494 1.8554-5.9231z" fill="url(#a)" opacity=".39674"/></g><path id="mb" transform="matrix(.70711 -.70711 .70711 .70711 -26.46 63.311)" d="m57.47 37.742 5.7799-29.196" fill="none" filter="url(#bi)" stroke="#000" stroke-linejoin="miter" stroke-miterlimit="4" stroke-width="2"/><g id="mc" transform="matrix(.19247 -.19247 .19247 .19247 -.55875 11.189)" filter="url(#bj)"><path id="md" d="m31.52 77.913c-13.438 0-24.351 10.913-24.351 24.351 0 13.438 10.913 24.329 24.351 24.329 13.438 0 24.329-10.892 24.329-24.329 0-13.438-10.892-24.351-24.329-24.351z" fill="#00f"/><path id="me" transform="matrix(.69811 0 0 .69811 -351.93 106.27)" d="m549.12-40.125c-19.124 1e-6 -34.656 15.532-34.656 34.656-1e-5 17.548 13.101 32.011 30.031 34.281-14.59-2.2283-25.781-14.822-25.781-30.031 0-16.782 13.624-30.406 30.406-30.406 16.782 0 30.406 13.624 30.406 30.406 0 15.733-11.959 28.663-27.281 30.219 17.666-1.573 31.5-16.393 31.5-34.469 0-19.124-15.501-34.656-34.625-34.656zm3.125 69.125c-0.51075 0.05186-1.0446 0.09875-1.5625 0.125 0.51874-0.02306 1.05-0.079362 1.5625-0.125zm-7.75-0.1875c0.51156 0.06861 1.0129 0.14147 1.5312 0.1875-0.51085-0.051862-1.0282-0.11066-1.5312-0.1875zm1.5312 0.1875c0.51014 0.0453 1.015 0.10205 1.5312 0.125-0.51796-0.026249-1.0204-0.073138-1.5312-0.125z" clip-path="url(#bl)" fill="url(#c)" filter="url(#ag)"/><path id="mf" transform="matrix(.73731 0 0 .64114 -304.37 113.54)" d="m469.61-34.831c0 9.6838-6.3143 17.534-14.103 17.534-7.7891 0-14.103-7.8503-14.103-17.534s6.3143-17.534 14.103-17.534c7.7891 0 14.103 7.8503 14.103 17.534z" fill="url(#b)" filter="url(#s)" opacity=".40625"/><path id="mg" d="m32.597 80.68 0.18345 3.8326c1.5197 0.02728 3 0.1701 4.4244 0.39488-0.29587-1.247-0.58831-2.4939-0.8971-3.7397-1.1876-0.26925-2.4278-0.42269-3.7108-0.48779zm-2.8136 0.02323c-1.2317 0.09362-2.4306 0.29697-3.5681 0.5807-0.32793 1.3212-0.64538 2.6484-0.95827 3.972 1.4657-0.32962 2.9973-0.53661 4.5875-0.65038l0.18345-3.9023c-0.08371 0.005414-0.16121-0.006339-0.24461-1e-6zm8.7672 1.1149c0.37756 1.1895 0.74986 2.3824 1.1214 3.5771 2.6804 0.65768 5.113 1.6422 7.1565 2.9035-1.5878-2.8514-4.5504-5.1687-8.2779-6.4806zm-14.904 0.27874c-3.9916 1.6011-7.0114 4.3945-8.2167 7.7349 1.8666-1.5489 4.2367-2.8211 6.9322-3.7397 0.42579-1.3309 0.85093-2.6622 1.2845-3.9952zm9.1955 3.6932 0.2854 5.5979c1.954 0.05081 3.8624 0.22625 5.6681 0.55747-0.4096-1.9025-0.83988-3.809-1.2845-5.7141-1.5009-0.25246-3.0602-0.40955-4.669-0.44133zm-3.0583 0.06968c-1.6892 0.12392-3.3063 0.39988-4.8526 0.76652-0.44223 1.9039-0.85542 3.8068-1.2641 5.7141 1.8554-0.4471 3.8084-0.74138 5.8516-0.88266l0.26506-5.5979zm10.317 0.92912c0.60395 1.9579 1.2082 3.933 1.7942 5.8999 2.189 0.62092 4.1932 1.4272 5.974 2.4157 0.14842-0.66948 0.22428-1.3434 0.22428-2.0441 0-1.0243-0.17685-1.998-0.48934-2.95-2.0947-1.4335-4.6408-2.5729-7.5031-3.3216zm-18.207 0.72007c-2.7062 0.97957-5.0684 2.3283-6.8914 3.9488-0.09123 0.52634-0.14275 1.0581-0.14275 1.6027 0 0.93586 0.14324 1.8404 0.40781 2.7177 1.4248-0.90214 3.0247-1.694 4.771-2.346 0.60713-1.9713 1.2281-3.9494 1.8554-5.9231z" fill="url(#a)" opacity=".39674"/></g><g id="mh" transform="matrix(.19247 -.19247 .19247 .19247 15.847 36.921)" filter="url(#az)"><path id="mi" d="m31.52 77.913c-13.438 0-24.351 10.913-24.351 24.351 0 13.438 10.913 24.329 24.351 24.329 13.438 0 24.329-10.892 24.329-24.329 0-13.438-10.892-24.351-24.329-24.351z" fill="#00f"/><path id="mj" transform="matrix(.69811 0 0 .69811 -351.93 106.27)" d="m549.12-40.125c-19.124 1e-6 -34.656 15.532-34.656 34.656-1e-5 17.548 13.101 32.011 30.031 34.281-14.59-2.2283-25.781-14.822-25.781-30.031 0-16.782 13.624-30.406 30.406-30.406 16.782 0 30.406 13.624 30.406 30.406 0 15.733-11.959 28.663-27.281 30.219 17.666-1.573 31.5-16.393 31.5-34.469 0-19.124-15.501-34.656-34.625-34.656zm3.125 69.125c-0.51075 0.05186-1.0446 0.09875-1.5625 0.125 0.51874-0.02306 1.05-0.07936 1.5625-0.125zm-7.75-0.1875c0.51156 0.06861 1.0129 0.14147 1.5312 0.1875-0.51085-0.05186-1.0282-0.11066-1.5312-0.1875zm1.5312 0.1875c0.51014 0.0453 1.015 0.10205 1.5312 0.125-0.51796-0.02625-1.0204-0.07314-1.5312-0.125z" clip-path="url(#bn)" fill="url(#c)" filter="url(#ae)"/><path id="mk" transform="matrix(.73731 0 0 .64114 -304.37 113.54)" d="m469.61-34.831c0 9.6838-6.3143 17.534-14.103 17.534-7.7891 0-14.103-7.8503-14.103-17.534s6.3143-17.534 14.103-17.534c7.7891 0 14.103 7.8503 14.103 17.534z" fill="url(#b)" filter="url(#r)" opacity=".40625"/><path id="ml" d="m32.597 80.68 0.18345 3.8326c1.5197 0.02728 3 0.1701 4.4244 0.39488-0.29587-1.247-0.58831-2.4939-0.8971-3.7397-1.1876-0.26925-2.4278-0.42269-3.7108-0.48779zm-2.8136 0.02323c-1.2317 0.09362-2.4306 0.29697-3.5681 0.5807-0.32793 1.3212-0.64538 2.6484-0.95827 3.972 1.4657-0.32962 2.9973-0.53661 4.5875-0.65038l0.18345-3.9023c-0.08371 0.0054-0.16121-0.0063-0.24461-1e-6zm8.7672 1.1149c0.37756 1.1895 0.74986 2.3824 1.1214 3.5771 2.6804 0.65768 5.113 1.6422 7.1565 2.9035-1.5878-2.8514-4.5504-5.1687-8.2779-6.4806zm-14.904 0.27874c-3.9916 1.6011-7.0114 4.3945-8.2167 7.7349 1.8666-1.5489 4.2367-2.8211 6.9322-3.7397 0.42579-1.3309 0.85093-2.6622 1.2845-3.9952zm9.1955 3.6932 0.2854 5.5979c1.954 0.05081 3.8624 0.22625 5.6681 0.55747-0.4096-1.9025-0.83988-3.809-1.2845-5.7141-1.5009-0.25246-3.0602-0.40955-4.669-0.44133zm-3.0583 0.06968c-1.6892 0.12392-3.3063 0.39988-4.8526 0.76652-0.44223 1.9039-0.85542 3.8068-1.2641 5.7141 1.8554-0.4471 3.8084-0.74138 5.8516-0.88266l0.26506-5.5979zm10.317 0.92912c0.60395 1.9579 1.2082 3.933 1.7942 5.8999 2.189 0.62092 4.1932 1.4272 5.974 2.4157 0.14842-0.66948 0.22428-1.3434 0.22428-2.0441 0-1.0243-0.17685-1.998-0.48934-2.95-2.0947-1.4335-4.6408-2.5729-7.5031-3.3216zm-18.207 0.72007c-2.7062 0.97957-5.0684 2.3283-6.8914 3.9488-0.09123 0.52634-0.14275 1.0581-0.14275 1.6027 0 0.93586 0.14324 1.8404 0.40781 2.7177 1.4248-0.90214 3.0247-1.694 4.771-2.346 0.60713-1.9713 1.2281-3.9494 1.8554-5.9231z" fill="url(#a)" opacity=".39674"/></g><g id="mm" transform="matrix(.19247 -.19247 .19247 .19247 49.571 70.377)" filter="url(#bg)"><path id="mn" d="m31.52 77.913c-13.438 0-24.351 10.913-24.351 24.351 0 13.438 10.913 24.329 24.351 24.329 13.438 0 24.329-10.892 24.329-24.329 0-13.438-10.892-24.351-24.329-24.351z" fill="url(#e)"/><path id="mo" transform="matrix(.69811 0 0 .69811 -351.93 106.27)" d="m549.12-40.125c-19.124 1e-6 -34.656 15.532-34.656 34.656-1e-5 17.548 13.101 32.011 30.031 34.281-14.59-2.2283-25.781-14.822-25.781-30.031 0-16.782 13.624-30.406 30.406-30.406 16.782 0 30.406 13.624 30.406 30.406 0 15.733-11.959 28.663-27.281 30.219 17.666-1.573 31.5-16.393 31.5-34.469 0-19.124-15.501-34.656-34.625-34.656zm3.125 69.125c-0.51075 0.05186-1.0446 0.09875-1.5625 0.125 0.51874-0.02306 1.05-0.07936 1.5625-0.125zm-7.75-0.1875c0.51156 0.06861 1.0129 0.14147 1.5312 0.1875-0.51085-0.05186-1.0282-0.11066-1.5312-0.1875zm1.5312 0.1875c0.51014 0.0453 1.015 0.10205 1.5312 0.125-0.51796-0.02625-1.0204-0.07314-1.5312-0.125z" clip-path="url(#bt)" fill="url(#d)" filter="url(#aa)"/><path id="mp" transform="matrix(.73731 0 0 .64114 -304.37 113.54)" d="m469.61-34.831c0 9.6838-6.3143 17.534-14.103 17.534-7.7891 0-14.103-7.8503-14.103-17.534s6.3143-17.534 14.103-17.534c7.7891 0 14.103 7.8503 14.103 17.534z" fill="url(#b)" filter="url(#n)" opacity=".40625"/><path id="mq" d="m32.597 80.68 0.18345 3.8326c1.5197 0.02728 3 0.1701 4.4244 0.39488-0.29587-1.247-0.58831-2.4939-0.8971-3.7397-1.1876-0.26925-2.4278-0.42269-3.7108-0.48779zm-2.8136 0.02323c-1.2317 0.09362-2.4306 0.29697-3.5681 0.5807-0.32793 1.3212-0.64538 2.6484-0.95827 3.972 1.4657-0.32962 2.9973-0.53661 4.5875-0.65038l0.18345-3.9023c-0.08371 0.0054-0.16121-0.0063-0.24461-1e-6zm8.7672 1.1149c0.37756 1.1895 0.74986 2.3824 1.1214 3.5771 2.6804 0.65768 5.113 1.6422 7.1565 2.9035-1.5878-2.8514-4.5504-5.1687-8.2779-6.4806zm-14.904 0.27874c-3.9916 1.6011-7.0114 4.3945-8.2167 7.7349 1.8666-1.5489 4.2367-2.8211 6.9322-3.7397 0.42579-1.3309 0.85093-2.6622 1.2845-3.9952zm9.1955 3.6932 0.2854 5.5979c1.954 0.05081 3.8624 0.22625 5.6681 0.55747-0.4096-1.9025-0.83988-3.809-1.2845-5.7141-1.5009-0.25246-3.0602-0.40955-4.669-0.44133zm-3.0583 0.06968c-1.6892 0.12392-3.3063 0.39988-4.8526 0.76652-0.44223 1.9039-0.85542 3.8068-1.2641 5.7141 1.8554-0.4471 3.8084-0.74138 5.8516-0.88266l0.26506-5.5979zm10.317 0.92912c0.60395 1.9579 1.2082 3.933 1.7942 5.8999 2.189 0.62092 4.1932 1.4272 5.974 2.4157 0.14842-0.66948 0.22428-1.3434 0.22428-2.0441 0-1.0243-0.17685-1.998-0.48934-2.95-2.0947-1.4335-4.6408-2.5729-7.5031-3.3216zm-18.207 0.72007c-2.7062 0.97957-5.0684 2.3283-6.8914 3.9488-0.09123 0.52634-0.14275 1.0581-0.14275 1.6027 0 0.93586 0.14324 1.8404 0.40781 2.7177 1.4248-0.90214 3.0247-1.694 4.771-2.346 0.60713-1.9713 1.2281-3.9494 1.8554-5.9231z" fill="url(#a)" opacity=".39674"/></g></g></svg>
