<?xml version="1.0" encoding="UTF-8"?>
<svg id="a" version="1.1" viewBox="0 0 64 64" xmlns="http://www.w3.org/2000/svg"><g id="b"><flowRoot id="c" fill="#000000" font-family="sans-serif" font-size="40px" letter-spacing="0px" stroke-linejoin="miter" stroke-width="1px" word-spacing="0px" style="line-height:125%" xml:space="preserve"><flowRegion id="d"><rect id="e" x="-104" y="-11.75" width="35.5" height="42.75"/></flowRegion><flowPara id="f">Rr</flowPara></flowRoot><g id="g" transform="matrix(.93103 0 0 .93103 67.742 11.015)"><rect id="h" x="-71.997" y="12.897" width="57.86" height="29.306" fill="#fff" stroke="#000" stroke-miterlimit="4" stroke-width="1.2"/><path id="i" d="m-61.382-0.51046h36.965c5.8873 0 10.251 4.7396 10.251 10.627v2.7442l-57.784 0.14423-0.0587-2.8885c-0.11962-5.8861 4.7396-10.627 10.627-10.627z" fill="#9ecfcf" stroke="#000" stroke-miterlimit="4" stroke-width="1.2"/><text id="j" x="-28.102131" y="10.75" fill="#000000" font-family="sans-serif" font-size="14.467px" letter-spacing="0px" stroke-linejoin="miter" stroke-width="1px" word-spacing="0px" style="line-height:125%" xml:space="preserve"><tspan id="k" x="-28.102131" y="10.75" font-family="'Nimbus Mono L'">X</tspan></text></g></g><g id="l"><g id="m" transform="matrix(.93103 0 0 .93103 67.887 11.153)"><rect id="n" x="-67.548" y="16.926" width="57.86" height="29.306" fill="#fff" stroke="#000" stroke-miterlimit="4" stroke-width="1.2"/><path id="o" d="m-56.933 3.5185h36.965c5.8873 0 10.251 4.7396 10.251 10.627v2.7442l-57.784 0.14423-0.0587-2.8885c-0.11962-5.8861 4.7396-10.627 10.627-10.627z" fill="#cf9ecf" stroke="#000" stroke-miterlimit="4" stroke-width="1.2"/><text id="p" x="-23.653543" y="14.778921" fill="#000000" font-family="sans-serif" font-size="14.467px" letter-spacing="0px" stroke-linejoin="miter" stroke-width="1px" word-spacing="0px" style="line-height:125%" xml:space="preserve"><tspan id="q" x="-23.653543" y="14.778921" font-family="'Nimbus Mono L'">X</tspan></text></g></g><g id="r"><g id="s" transform="matrix(.93103 0 0 .93103 68.333 11.551)"><rect id="t" x="-63.423" y="20.676" width="57.86" height="29.306" fill="#fff" stroke="#000" stroke-miterlimit="4" stroke-width="1.2"/><path id="u" d="m-52.808 7.2685h36.965c5.8873 0 10.251 4.7396 10.251 10.627v2.7442l-57.784 0.14423-0.0587-2.8885c-0.11962-5.8861 4.7396-10.627 10.627-10.627z" fill="#cfcf9e" stroke="#000" stroke-miterlimit="4" stroke-width="1.2"/><text id="v" x="-19.528543" y="18.528921" fill="#000000" font-family="sans-serif" font-size="14.467px" letter-spacing="0px" stroke-linejoin="miter" stroke-width="1px" word-spacing="0px" style="line-height:125%" xml:space="preserve"><tspan id="w" x="-19.528543" y="18.528921" font-family="'Nimbus Mono L'">X</tspan></text></g></g><g id="x"><g id="y" transform="matrix(.93285 0 0 .93285 2.7521 8.4084)" fill="#000000" font-family="sans-serif" letter-spacing="0px" stroke-linejoin="miter" stroke-width="1px" word-spacing="0px"><text id="z" transform="scale(.69403 1.4409)" x="22.554115" y="35.876026" font-size="15.513px" style="line-height:125%" xml:space="preserve"><tspan id="aa" x="22.554115" y="35.876026" dx="0" font-family="'Nimbus Mono L'" font-size="31.026px" font-weight="bold" word-spacing="0px">R</tspan></text><g id="ab" transform="translate(-.26741)" font-size="22.352px"><text id="ac" x="29.003166" y="35.688103" style="line-height:125%" xml:space="preserve"><tspan id="ad" x="29.003166" y="35.688103" font-family="'Nimbus Mono L'" font-weight="bold">o</tspan></text><text id="ae" x="28.948593" y="51.692436" style="line-height:125%" xml:space="preserve"><tspan id="af" x="28.948593" y="51.692436" font-family="'Nimbus Mono L'" font-weight="bold">f</tspan></text></g><text id="ag" transform="scale(.83933 1.1914)" x="47.088142" y="43.387257" font-size="18.761px" style="line-height:125%" xml:space="preserve"><tspan id="ah" x="47.088142" y="43.387257" font-family="'Nimbus Mono L'" font-size="37.522px" font-weight="bold">I</tspan></text></g></g></svg>
