<?xml version="1.0" encoding="UTF-8"?>
<svg id="al" enable-background="new 0 0 595.275 841.89" overflow="visible" version="1.1" viewBox="0 0 446.57 409.23" xml:space="preserve" xmlns="http://www.w3.org/2000/svg" xmlns:xlink="http://www.w3.org/1999/xlink"><defs id="am"><filter id="ag" x="-.25653" y="-.22547" width="1.5131" height="1.4509" color-interpolation-filters="sRGB"><feGaussianBlur id="an" stdDeviation="4.1562689"/></filter><filter id="ah" x="-.12253" y="-.11757" width="1.2451" height="1.2351" color-interpolation-filters="sRGB"><feGaussianBlur id="ao" stdDeviation="1.0646233"/></filter><filter id="a" color-interpolation-filters="sRGB"><feGaussianBlur id="ap" stdDeviation="0.31938699"/></filter><linearGradient id="af" x1="-39.068" x2="-38.891" y1="661.93" y2="647.79" gradientTransform="matrix(.22532 .26965 -.26965 .22532 -627.41 801.28)" gradientUnits="userSpaceOnUse"><stop id="aq" stop-color="#091d55" offset="0"/><stop id="ar" stop-color="#091d55" stop-opacity="0" offset="1"/></linearGradient><linearGradient id="ae" x1="-64.347" x2="-50.647" y1="607.84" y2="621.36" gradientTransform="matrix(.22532 .26965 -.26965 .22532 -627.41 801.28)" gradientUnits="userSpaceOnUse"><stop id="as" stop-color="#071848" offset="0"/><stop id="at" stop-color="#102f81" offset="1"/></linearGradient><linearGradient id="ad" x1="-29.345" x2="-48.437" y1="643.9" y2="609.61" gradientTransform="matrix(.22532 .26965 -.26965 .22532 -627.41 801.28)" gradientUnits="userSpaceOnUse"><stop id="au" stop-color="#4776ed" offset="0"/><stop id="av" stop-color="#123797" offset="1"/></linearGradient><linearGradient id="ac" x1="-22.107" x2="-31.499" y1="617" y2="623.03" gradientTransform="matrix(.22532 .26965 -.26965 .22532 -627.12 801.49)" gradientUnits="userSpaceOnUse"><stop id="aw" stop-color="#fff" offset="0"/><stop id="ax" stop-color="#fff" stop-opacity="0" offset="1"/></linearGradient><linearGradient id="ab" x1="-55.813" x2="-46.813" y1="616.02" y2="621.89" gradientTransform="matrix(.22532 .26965 -.26965 .22532 -627.61 800.72)" gradientUnits="userSpaceOnUse"><stop id="ay" stop-color="#081e58" offset="0"/><stop id="az" stop-color="#0d308d" stop-opacity="0" offset="1"/></linearGradient><radialGradient id="f" cx="-29.566" cy="763.41" r="17.732" gradientTransform="matrix(.23187 .2803 -.019452 .016055 -789.33 932.37)" gradientUnits="userSpaceOnUse"><stop id="ba" stop-color="#fff" offset="0"/><stop id="bb" stop-color="#fff" stop-opacity="0" offset="1"/></radialGradient><filter id="ai" color-interpolation-filters="sRGB"><feGaussianBlur id="bc" stdDeviation="0.92951207"/></filter><linearGradient id="aa" x1="-39.068" x2="-38.891" y1="661.93" y2="647.79" gradientTransform="matrix(.32111 .25488 -.25488 .32111 -553.85 731.77)" gradientUnits="userSpaceOnUse"><stop id="bd" stop-color="#091d55" offset="0"/><stop id="be" stop-color="#091d55" stop-opacity="0" offset="1"/></linearGradient><linearGradient id="z" x1="-64.347" x2="-50.647" y1="607.84" y2="621.36" gradientTransform="matrix(.32111 .25488 -.25488 .32111 -553.85 731.77)" gradientUnits="userSpaceOnUse"><stop id="bf" stop-color="#071848" offset="0"/><stop id="bg" stop-color="#102f81" offset="1"/></linearGradient><linearGradient id="y" x1="-29.345" x2="-48.437" y1="643.9" y2="609.61" gradientTransform="matrix(.32111 .25488 -.25488 .32111 -553.85 731.77)" gradientUnits="userSpaceOnUse"><stop id="bh" stop-color="#4776ed" offset="0"/><stop id="bi" stop-color="#123797" offset="1"/></linearGradient><linearGradient id="x" x1="-22.107" x2="-31.499" y1="617" y2="623.03" gradientTransform="matrix(.32111 .25488 -.25488 .32111 -553.47 731.93)" gradientUnits="userSpaceOnUse"><stop id="bj" stop-color="#fff" offset="0"/><stop id="bk" stop-color="#fff" stop-opacity="0" offset="1"/></linearGradient><linearGradient id="w" x1="-55.813" x2="-46.813" y1="616.02" y2="621.89" gradientTransform="matrix(.32111 .25488 -.25488 .32111 -554.21 731.18)" gradientUnits="userSpaceOnUse"><stop id="bl" stop-color="#081e58" offset="0"/><stop id="bm" stop-color="#0d308d" stop-opacity="0" offset="1"/></linearGradient><radialGradient id="e" cx="-29.566" cy="763.41" r="17.732" gradientTransform="matrix(.3311 .2655 -.018433 .022936 -707.89 919.78)" gradientUnits="userSpaceOnUse"><stop id="bn" stop-color="#fff" offset="0"/><stop id="bo" stop-color="#fff" stop-opacity="0" offset="1"/></radialGradient><filter id="aj" color-interpolation-filters="sRGB"><feGaussianBlur id="bp" stdDeviation="0.70244051"/></filter><linearGradient id="v" x1="-39.068" x2="-38.891" y1="661.93" y2="647.79" gradientTransform="matrix(.4219 .20379 -.20379 .4219 -588.08 664.9)" gradientUnits="userSpaceOnUse"><stop id="bq" stop-color="#091d55" offset="0"/><stop id="br" stop-color="#091d55" stop-opacity="0" offset="1"/></linearGradient><linearGradient id="u" x1="-64.347" x2="-50.647" y1="607.84" y2="621.36" gradientTransform="matrix(.4219 .20379 -.20379 .4219 -588.08 664.9)" gradientUnits="userSpaceOnUse"><stop id="bs" stop-color="#071848" offset="0"/><stop id="bt" stop-color="#102f81" offset="1"/></linearGradient><linearGradient id="t" x1="-29.345" x2="-48.437" y1="643.9" y2="609.61" gradientTransform="matrix(.4219 .20379 -.20379 .4219 -588.08 664.9)" gradientUnits="userSpaceOnUse"><stop id="bu" stop-color="#4776ed" offset="0"/><stop id="bv" stop-color="#123797" offset="1"/></linearGradient><linearGradient id="s" x1="-22.107" x2="-31.499" y1="617" y2="623.03" gradientTransform="matrix(.4219 .20379 -.20379 .4219 -587.61 664.98)" gradientUnits="userSpaceOnUse"><stop id="bw" stop-color="#fff" offset="0"/><stop id="bx" stop-color="#fff" stop-opacity="0" offset="1"/></linearGradient><linearGradient id="r" x1="-55.813" x2="-46.813" y1="616.02" y2="621.89" gradientTransform="matrix(.4219 .20379 -.20379 .4219 -588.63 664.33)" gradientUnits="userSpaceOnUse"><stop id="by" stop-color="#081e58" offset="0"/><stop id="bz" stop-color="#0d308d" stop-opacity="0" offset="1"/></linearGradient><radialGradient id="d" cx="-29.566" cy="763.41" r="17.732" gradientTransform="matrix(.4357 .21314 -.01481 .030192 -712.76 913.12)" gradientUnits="userSpaceOnUse"><stop id="ca" stop-color="#fff" offset="0"/><stop id="cb" stop-color="#fff" stop-opacity="0" offset="1"/></radialGradient><filter id="ak" color-interpolation-filters="sRGB"><feGaussianBlur id="cc" stdDeviation="0.40013067"/></filter><linearGradient id="q" x1="-39.068" x2="-38.891" y1="661.93" y2="647.79" gradientTransform="matrix(.49978 .16751 -.16751 .49978 -614.43 613.89)" gradientUnits="userSpaceOnUse"><stop id="cd" stop-color="#091d55" offset="0"/><stop id="ce" stop-color="#091d55" stop-opacity="0" offset="1"/></linearGradient><linearGradient id="p" x1="-64.347" x2="-50.647" y1="607.84" y2="621.36" gradientTransform="matrix(.49978 .16751 -.16751 .49978 -614.43 613.89)" gradientUnits="userSpaceOnUse"><stop id="cf" stop-color="#071848" offset="0"/><stop id="cg" stop-color="#102f81" offset="1"/></linearGradient><linearGradient id="o" x1="-29.345" x2="-48.437" y1="643.9" y2="609.61" gradientTransform="matrix(.49978 .16751 -.16751 .49978 -614.43 613.89)" gradientUnits="userSpaceOnUse"><stop id="ch" stop-color="#4776ed" offset="0"/><stop id="ci" stop-color="#123797" offset="1"/></linearGradient><linearGradient id="n" x1="-22.107" x2="-31.499" y1="617" y2="623.03" gradientTransform="matrix(.49978 .16751 -.16751 .49978 -613.9 613.92)" gradientUnits="userSpaceOnUse"><stop id="cj" stop-color="#fff" offset="0"/><stop id="ck" stop-color="#fff" stop-opacity="0" offset="1"/></linearGradient><linearGradient id="m" x1="-55.813" x2="-46.813" y1="616.02" y2="621.89" gradientTransform="matrix(.49978 .16751 -.16751 .49978 -615.13 613.33)" gradientUnits="userSpaceOnUse"><stop id="cl" stop-color="#081e58" offset="0"/><stop id="cm" stop-color="#0d308d" stop-opacity="0" offset="1"/></linearGradient><radialGradient id="c" cx="-29.566" cy="763.41" r="17.732" gradientTransform="matrix(.51651 .17598 -.01224 .035798 -718.32 908.61)" gradientUnits="userSpaceOnUse"><stop id="cn" stop-color="#fff" offset="0"/><stop id="co" stop-color="#fff" stop-opacity="0" offset="1"/></radialGradient><linearGradient id="l" x1="-39.068" x2="-38.891" y1="661.93" y2="647.79" gradientTransform="matrix(.58228 0 0 .58228 194.91 142.94)" gradientUnits="userSpaceOnUse"><stop id="cp" stop-color="#091d55" offset="0"/><stop id="cq" stop-color="#091d55" stop-opacity="0" offset="1"/></linearGradient><linearGradient id="k" x1="-64.347" x2="-50.647" y1="607.84" y2="621.36" gradientTransform="matrix(.58228 0 0 .58228 194.91 142.94)" gradientUnits="userSpaceOnUse"><stop id="cr" stop-color="#071848" offset="0"/><stop id="cs" stop-color="#102f81" offset="1"/></linearGradient><linearGradient id="j" x1="-29.345" x2="-48.437" y1="643.9" y2="609.61" gradientTransform="matrix(.58228 0 0 .58228 194.91 142.94)" gradientUnits="userSpaceOnUse"><stop id="ct" stop-color="#4776ed" offset="0"/><stop id="cu" stop-color="#123797" offset="1"/></linearGradient><linearGradient id="i" x1="-22.107" x2="-31.499" y1="617" y2="623.03" gradientTransform="matrix(.58228 0 0 .58228 195.48 142.78)" gradientUnits="userSpaceOnUse"><stop id="cv" stop-color="#fff" offset="0"/><stop id="cw" stop-color="#fff" stop-opacity="0" offset="1"/></linearGradient><linearGradient id="h" x1="-55.813" x2="-46.813" y1="616.02" y2="621.89" gradientTransform="matrix(.58228 0 0 .58228 193.98 142.6)" gradientUnits="userSpaceOnUse"><stop id="cx" stop-color="#081e58" offset="0"/><stop id="cy" stop-color="#0d308d" stop-opacity="0" offset="1"/></linearGradient><radialGradient id="b" cx="-29.566" cy="763.41" r="17.732" gradientTransform="matrix(.60278 .0029933 -.00025325 .041792 189.56 488.11)" gradientUnits="userSpaceOnUse"><stop id="cz" stop-color="#fff" offset="0"/><stop id="da" stop-color="#fff" stop-opacity="0" offset="1"/></radialGradient><linearGradient id="g" x1="-395.27" x2="-401.28" y1="1617.2" y2="1642.9" gradientTransform="matrix(1.7371 0 0 1.7371 904 -63.36)" gradientUnits="userSpaceOnUse"><stop id="db" stop-color="#fff" offset="0"/><stop id="dc" stop-color="#fff" stop-opacity="0" offset="1"/></linearGradient></defs><g id="dd" transform="matrix(6.6675 0 0 6.6675 -1137.6 -18351)"><path id="de" transform="matrix(1.2661 0 0 1.0158 1483.3 1600.3)" d="m-1013.2 1146.8c-0.8237 0-1.6678 0.4823-3.3126 1.4375-4.3294 2.3698-8.4614 4.9464-12.719 7.375-3.3963 1.9357-3.4233 1.9493-3.4375 5.6875-0.085 5.1843-0.024 10.723-0.031 15.219 0 3.7383 0.015 3.7671 3.4062 5.7188 4.2457 2.4487 8.3694 5.016 12.688 7.4062 2.0504 1.1607 2.8102 1.599 3.9063 1.3126 0.6576-0.1719 1.4469-0.5922 2.6874-1.2813 4.3295-2.3698 8.4616-4.9464 12.719-7.375 3.3963-1.9357 3.3921-1.9493 3.4062-5.6875 0.0697-5.0654 0.0697-10.148 0.0312-15.25 4e-3 -3.7383 0.0123-3.7358-3.375-5.6875-4.2458-2.4486-8.3694-5.0473-12.687-7.4375-1.6497-0.9551-2.4576-1.4335-3.2812-1.4375z" fill="#000f36" filter="url(#ag)"/><g id="df" transform="matrix(1.219 0 0 1.219 1211.1 1640.2)" filter="url(#ah)"><path id="dg" d="m-799.08 924.47c-2.2994-0.89592-4.618-1.6567-6.9167-2.5061-1.8332-0.67819-1.8379-0.67889-3.2739 0.51757-2.0125 1.6343-4.1244 3.444-5.8481 4.8867-1.4328 1.2004-1.4327 1.2054-1.0911 3.1298 0.42741 2.4131 0.76409 4.83 1.2372 7.252 0.34365 1.8533 0.34495 1.8522 2.1124 2.528 2.2994 0.89591 4.618 1.6567 6.9167 2.5061 1.8332 0.67818 1.8309 0.67045 3.2669-0.526 1.9621-1.6019 3.9068-3.2317 5.8481-4.8867 1.4328-1.2004 1.4398-1.1968 1.0981-3.1214-0.42741-2.4131-0.76409-4.83-1.2372-7.252-0.32934-1.8775-0.32308-1.8827-2.1124-2.528z" fill="#0d308d" filter="url(#a)" opacity=".2"/><path id="dh" d="m-816.21 930.5c0.42741 2.4131 0.76409 4.83 1.2372 7.252 0.34365 1.8533 0.34495 1.8522 2.1124 2.528 2.2994 0.89591 4.618 1.6567 6.9167 2.5061 7.4472-3.2722-6.8785-19.973-10.266-12.286z" fill="url(#af)" filter="url(#a)" opacity=".2"/><path id="di" d="m-799.08 924.47c-2.2994-0.89592-4.618-1.6567-6.9167-2.5061-1.8332-0.67819-1.8379-0.67889-3.2739 0.51757-2.0125 1.6343-4.1244 3.444-5.8481 4.8867l18.151-0.37017c-0.32934-1.8775-0.32308-1.8827-2.1124-2.528z" fill="url(#ae)" filter="url(#a)" opacity=".2"/><path id="dj" d="m-800.3 924.69-13.982 2.5264c-1.8535 0.42665-2.3891 2.6561-1.2045 4.1335l9.012 10.785c1.1175 1.3373 3.6847 0.80513 4.1368-0.75957l4.9353-13.192c0.93021-2.3715-0.45608-4.0305-2.898-3.4936z" fill="url(#ad)" filter="url(#a)" opacity=".2"/><g id="dk" transform="matrix(.64121 .76736 -.76736 .64121 -83.196 5.875)" fill="#fff" filter="url(#a)" opacity=".2"><path id="dl" d="m244.71 1147.7c0-1.0093 0.10384-1.8216 0.31153-2.4369s0.51631-1.0899 0.92586-1.4238c0.40955-0.3338 0.92488-0.5007 1.546-0.5007 0.45807 0 0.85986 0.092 1.2054 0.2765 0.34549 0.1845 0.63082 0.4504 0.85598 0.7978 0.22515 0.3474 0.40178 0.7706 0.52989 1.2694 0.1281 0.4989 0.19216 1.1714 0.19216 2.0177 0 1.0015-0.10288 1.81-0.30862 2.4253-0.20575 0.6153-0.5134 1.0908-0.92294 1.4266-0.40956 0.3358-0.92683 0.5037-1.5518 0.5037-0.82299 0-1.4693-0.295-1.9391-0.8851-0.56289-0.7104-0.84434-1.8672-0.84434-3.4705zm1.0773 0c0 1.4014 0.16401 2.334 0.49204 2.7979s0.73273 0.6959 1.2141 0.6959c0.48136 0 0.88606-0.2329 1.2141-0.6988 0.32803-0.4658 0.49204-1.3975 0.49205-2.795-1e-5 -1.4053-0.16402-2.3389-0.49205-2.8009-0.32803-0.4619-0.73661-0.6929-1.2257-0.6929-0.48137 0-0.86569 0.2038-1.153 0.6114-0.36103 0.5202-0.54154 1.481-0.54154 2.8824z"/></g>
<g id="dm" transform="matrix(-1.0822 -1.2952 .45466 -.37991 -83.196 5.875)" fill="#fff" filter="url(#a)" opacity=".2"><path id="dn" d="m-147.92-1952.3 0.49383-0.042c0.0366 0.2404 0.1215 0.4211 0.25476 0.5422 0.13325 0.121 0.29394 0.1816 0.48207 0.1816 0.22645 0 0.41806-0.085 0.57483-0.2561 0.15677-0.1707 0.23516-0.3971 0.23516-0.6793 0-0.2683-0.0753-0.4799-0.22601-0.635-0.15068-0.155-0.34795-0.2325-0.59182-0.2325-0.15155 0-0.28828 0.034-0.41022 0.1032-0.12193 0.069-0.21774 0.1581-0.28741 0.2678l-0.44158-0.058 0.37103-1.9674h1.9048v0.4494h-1.5285l-0.20641 1.0294c0.22993-0.1602 0.47118-0.2403 0.72376-0.2404 0.33444 1e-4 0.61663 0.1159 0.84657 0.3476 0.22993 0.2316 0.34489 0.5295 0.3449 0.8936-1e-5 0.3466-0.10104 0.6462-0.3031 0.8988-0.24561 0.31-0.58093 0.4651-1.006 0.4651-0.34838 0-0.63275-0.098-0.8531-0.2927-0.22035-0.1951-0.3462-0.4537-0.37756-0.776z"/></g>
<g id="do" transform="matrix(.69921 .30371 -.2893 1.3045 -83.196 5.875)" fill="#fff" filter="url(#a)" opacity=".2"><path id="dp" d="m-662.36 865.07-0.52907 0.0414c-0.0473-0.20887-0.11429-0.36059-0.20099-0.45518-0.14385-0.15172-0.32119-0.22759-0.53203-0.22759-0.16946 0-0.31824 0.0473-0.44631 0.14187-0.1675 0.12218-0.29952 0.3005-0.39607 0.53499-0.0965 0.23449-0.1468 0.56848-0.15074 1.002 0.12808-0.19508 0.28473-0.33991 0.46996-0.43449 0.18522-0.0946 0.37931-0.14188 0.58227-0.14188 0.35469 0 0.65666 0.13055 0.90593 0.39163 0.24926 0.26109 0.37389 0.59854 0.3739 1.0123-1e-5 0.27192-0.0586 0.52464-0.17587 0.75814-0.11724 0.2335-0.27833 0.41232-0.48326 0.53646s-0.43745 0.18621-0.69755 0.18621c-0.44335 0-0.80494-0.16306-1.0847-0.48917-0.27981-0.32612-0.41972-0.86356-0.41971-1.6123-1e-5 -0.83745 0.15468-1.4463 0.46404-1.8266 0.26996-0.33103 0.63351-0.49655 1.0907-0.49656 0.34089 1e-5 0.62021 0.0956 0.83795 0.28671 0.21773 0.19114 0.34827 0.45518 0.39163 0.79213zm-2.1724 1.868c0 0.18326 0.0389 0.35863 0.11675 0.52612 0.0778 0.16749 0.1867 0.29508 0.32661 0.38276 0.1399 0.0877 0.2867 0.13153 0.4404 0.13153 0.22463 0 0.41774-0.0906 0.57932-0.27192 0.16157-0.18129 0.24236-0.4276 0.24237-0.73893-1e-5 -0.29951-0.0798-0.53548-0.23942-0.7079-0.15961-0.17241-0.3606-0.25862-0.60296-0.25862-0.2404 0-0.44435 0.0862-0.61184 0.25862s-0.25123 0.39854-0.25123 0.67834z"/></g>
<path id="dq" transform="matrix(.64121 .76736 -.76736 .64121 -83.196 5.875)" d="m256.58 1144.8h0.26355v1.8449h-0.26355z" fill="#fff" filter="url(#a)" opacity=".2"/><g id="dr" transform="matrix(-.27326 .69086 -1.4423 -.013151 -83.196 5.875)" fill="#fff" filter="url(#a)" opacity=".2"><path id="ds" d="m1333.8 251.27v-1.1143h-2.019v-0.52381l2.1238-3.0159h0.4666v3.0159h0.6286v0.52381h-0.6286v1.1143zm0-1.6381v-2.0984l-1.4571 2.0984z" fill="#fff"/></g>
<path id="dt" d="m-803.33 942.52c0.37668-0.22078 0.80502-0.6608 0.91547-1.0431 3e-3 -7e-3 6e-3 -0.0151 0.01-0.0225l4.94-13.201c0.34936-0.89065 0.33406-1.6144 0.0861-2.132z" fill="url(#ac)" filter="url(#a)" opacity=".2"/><path id="du" d="m-815.4 927.9c0.2842-0.33145 0.79334-0.67478 1.1891-0.71555 8e-3 -2e-3 0.0159-4e-3 0.0239-6e-3l13.868-2.5156c0.93856-0.18553 1.648-0.0419 2.1134 0.2941z" fill="url(#ab)" filter="url(#a)" opacity=".2"/><path id="dv" d="m-815.26 930.67 8.8276 10.564-0.4719 0.39432-8.8275-10.564z" fill="url(#f)" filter="url(#a)" opacity=".2"/></g><g id="dw" transform="matrix(1.219 0 0 1.219 1107.9 1648.6)" filter="url(#ai)"><path id="dx" d="m-720.9 913.05c-2.8387-0.48067-5.6674-0.80241-8.4943-1.2301-2.2546-0.34198-2.2602-0.34166-3.6183 1.3644-1.9134 2.3424-3.899 4.9087-5.5278 6.964-1.3535 1.7098-1.3523 1.7154-0.50757 3.8336 1.0581 2.6561 2.0135 5.3379 3.1258 7.9934 0.83022 2.0363 0.83145 2.0347 3.0104 2.3895 2.8387 0.48066 5.6674 0.80242 8.4943 1.2301 2.2546 0.34199 2.2501 0.3337 3.6083-1.3724 1.8634-2.2935 3.7006-4.6148 5.5278-6.964 1.3535-1.7097 1.3624-1.7074 0.51761-3.8256-1.0581-2.6561-2.0135-5.338-3.1258-7.9934-0.8196-2.0673-0.81368-2.0748-3.0104-2.3895z" fill="#0d308d" opacity=".4"/><path id="dy" d="m-739.04 923.98c1.0581 2.6561 2.0135 5.3379 3.1258 7.9934 0.83022 2.0363 0.83145 2.0347 3.0104 2.3895 2.8387 0.48066 5.6674 0.80242 8.4943 1.2301 7.7359-5.4969-12.575-21.195-14.63-11.613z" fill="url(#aa)" opacity=".4"/><path id="dz" d="m-720.9 913.05c-2.8387-0.48067-5.6674-0.80241-8.4943-1.2301-2.2546-0.34198-2.2602-0.34166-3.6183 1.3644-1.9134 2.3424-3.899 4.9087-5.5278 6.964l20.651-4.7088c-0.8196-2.0673-0.81368-2.0748-3.0104-2.3895z" fill="url(#z)" opacity=".4"/><path id="ea" d="m-722.25 913.59-15.378 6.1879c-2.0169 0.92509-2.1024 3.5987-0.40014 5.007l12.843 10.194c1.5925 1.2641 4.4 0.0498 4.5471-1.8446l2.5238-16.237c0.50284-2.9291-1.4728-4.4973-4.1359-3.3072z" fill="url(#y)" opacity=".4"/><g id="eb" transform="matrix(.78325 .62171 -.62171 .78325 0 0)" fill="#fff" opacity=".4"><path id="ec" d="m1.6586 1174.3c-6e-7 -1.1775 0.12115-2.1252 0.36345-2.843 0.2423-0.7179 0.60236-1.2716 1.0802-1.6611 0.47781-0.3894 1.079-0.5842 1.8037-0.5842 0.53442 0 1.0032 0.1076 1.4063 0.3227 0.40308 0.2151 0.73596 0.5254 0.99865 0.9307 0.26268 0.4054 0.46875 0.899 0.61821 1.481 0.14945 0.582 0.22418 1.3666 0.22419 2.3539-7.1e-6 1.1685-0.12003 2.1117-0.36006 2.8295-0.24004 0.7179-0.59897 1.2727-1.0768 1.6644-0.47782 0.3918-1.0813 0.5877-1.8105 0.5877-0.96015 0-1.7142-0.3442-2.2622-1.0326-0.65671-0.8288-0.98506-2.1785-0.98506-4.049zm1.2568 0c-1.8e-6 1.635 0.19135 2.7231 0.57405 3.2643 0.3827 0.5412 0.85485 0.8118 1.4164 0.8118 0.56159 0 1.0337-0.2717 1.4164-0.8152 0.3827-0.5435 0.57405-1.6304 0.57405-3.2609-5.9e-6 -1.6395-0.19136-2.7287-0.57405-3.2676-0.38271-0.539-0.85938-0.8085-1.43-0.8085-0.5616 0-1.01 0.2378-1.3451 0.7134-0.4212 0.6068-0.6318 1.7278-0.6318 3.3627z"/></g>

<g id="ed" transform="matrix(-1.322 -1.0493 .36836 -.46407 0 0)" fill="#fff" opacity=".4"><path id="ee" d="m-4.3993-1999.6 0.57614-0.049c0.042676 0.2805 0.14175 0.4913 0.29721 0.6326 0.15546 0.1412 0.34294 0.2118 0.56242 0.2118 0.26419 0 0.48773-0.1 0.67064-0.2987 0.1829-0.1992 0.27435-0.4634 0.27435-0.7926-2.7e-6 -0.3129-0.087896-0.5599-0.26368-0.7407-0.17579-0.1809-0.40594-0.2713-0.69045-0.2713-0.17681 0-0.33633 0.04-0.47859 0.1204-0.14226 0.08-0.25403 0.1844-0.33532 0.3124l-0.51517-0.067 0.43286-2.2954h2.2222v0.5243h-1.7833l-0.24082 1.201c0.26825-0.1869 0.54972-0.2804 0.84439-0.2804 0.39019 0 0.71941 0.1351 0.98766 0.4054 0.26825 0.2703 0.40238 0.6178 0.40238 1.0425-3.2e-6 0.4045-0.11787 0.754-0.35361 1.0487-0.28655 0.3617-0.67775 0.5426-1.1736 0.5426-0.40645 0-0.73821-0.1138-0.99528-0.3414-0.25708-0.2276-0.40391-0.5294-0.44049-0.9054z"/></g>

<g id="ef" transform="matrix(.74621 .15591 -.019293 1.3361 0 0)" fill="#fff" opacity=".4"><path id="eg" d="m-938.83 799.97-0.61725 0.0483c-0.0552-0.24368-0.13334-0.42069-0.23449-0.53105-0.16782-0.177-0.37472-0.26551-0.6207-0.26552-0.1977 1e-5 -0.37127 0.0552-0.52069 0.16552-0.19541 0.14254-0.34944 0.35059-0.46208 0.62415-0.11265 0.27357-0.17127 0.66323-0.17587 1.169 0.14943-0.22759 0.33219-0.39656 0.54829-0.50691 0.21609-0.11034 0.44253-0.16551 0.67932-0.16552 0.4138 1e-5 0.7661 0.15231 1.0569 0.45691s0.43621 0.69829 0.43622 1.181c-1e-5 0.31725-0.0684 0.61208-0.20518 0.8845s-0.32472 0.48104-0.5638 0.62587c-0.23909 0.14483-0.51036 0.21725-0.81381 0.21725-0.51725 0-0.93909-0.19024-1.2655-0.5707-0.32645-0.38047-0.48967-1.0075-0.48967-1.8811 0-0.97702 0.18046-1.6874 0.54139-2.1311 0.31495-0.38621 0.73909-0.57931 1.2724-0.57932 0.3977 1e-5 0.72357 0.1115 0.9776 0.33449 0.25402 0.223 0.40632 0.53105 0.4569 0.92415zm-2.5345 2.1794c0 0.2138 0.0454 0.4184 0.13621 0.6138 0.0908 0.19541 0.21781 0.34426 0.38104 0.44656 0.16322 0.1023 0.33448 0.15345 0.5138 0.15345 0.26207 0 0.48736-0.10575 0.67587-0.31724 0.18851-0.2115 0.28276-0.49886 0.28277-0.86209-1e-5 -0.34943-0.0931-0.62472-0.27932-0.82587-0.18621-0.20115-0.4207-0.30173-0.70346-0.30173-0.28047 0-0.5184 0.10058-0.7138 0.30173-0.19541 0.20115-0.29311 0.46495-0.29311 0.79139z"/></g>

<path id="eh" transform="matrix(.78325 .62171 -.62171 .78325 0 0)" d="m15.511 1170.8h0.30748v2.1524h-0.30748z" fill="#fff" opacity=".4"/><g id="ei" transform="matrix(-.12779 .73186 -1.4151 .27902 0 0)" fill="#fff" opacity=".4"><path id="ej" d="m1090.3 419.92v-1.3h-2.3555v-0.61111l2.4778-3.5185h0.5444v3.5185h0.7333v0.61111h-0.7333v1.3zm0-1.9111v-2.4482l-1.7 2.4482z" fill="#fff"/></g>

<path id="ek" d="m-721.5 934.67c0.37825-0.34119 0.76373-0.94506 0.79967-1.4079 2e-3 -9e-3 4e-3 -0.0187 6e-3 -0.028l2.527-16.249c0.18885-1.1001 4.8e-4 -1.9233-0.40502-2.4562z" fill="url(#x)" opacity=".4"/><path id="el" d="m-738.74 920.83c0.24644-0.4458 0.74707-0.95828 1.1897-1.0983 9e-3 -4e-3 0.0174-8e-3 0.026-0.0121l15.251-6.1488c1.0285-0.43359 1.873-0.43698 2.484-0.16299z" fill="url(#w)" opacity=".4"/><path id="em" d="m-737.92 923.95 12.58 9.9856-0.44604 0.56194-12.58-9.9856z" fill="url(#e)" opacity=".4"/></g><g id="en" transform="matrix(1.219 0 0 1.219 1107.9 1649.2)" filter="url(#aj)"><path id="eo" d="m-728.95 908.87c-3.2857 0.17495-6.5205 0.52461-9.7799 0.75569-2.5997 0.1833-2.6058 0.18505-3.693 2.4276-1.547 3.0912-3.1184 6.4501-4.4198 9.1498-1.0811 2.2455-1.0783 2.2515 0.3941 4.4018 1.8451 2.6967 3.582 5.448 5.4874 8.1305 1.4357 2.0627 1.4367 2.0607 3.9553 1.9106 3.2857-0.17495 6.5205-0.5246 9.7799-0.75569 2.5997-0.1833 2.5926-0.19142 3.6798-2.434 1.5035-3.0241 2.9707-6.0726 4.4198-9.1498 1.0811-2.2455 1.0916-2.2451-0.38091-4.3955-1.8451-2.6967-3.582-5.448-5.4875-8.1305-1.4317-2.1-1.4269-2.1098-3.9553-1.9106z" fill="#0d308d" opacity=".6"/><path id="ep" d="m-746.45 925.61c1.8451 2.6967 3.582 5.448 5.4874 8.1305 1.4357 2.0627 1.4367 2.0607 3.9553 1.9106 3.2857-0.17495 6.5205-0.5246 9.7799-0.75569 7.2495-8.0669-19.33-20.485-19.223-9.2854z" fill="url(#v)" opacity=".6"/><path id="eq" d="m-728.95 908.87c-3.2857 0.17495-6.5205 0.52461-9.7799 0.75569-2.5997 0.1833-2.6058 0.18505-3.693 2.4276-1.547 3.0912-3.1184 6.4501-4.4198 9.1498l21.848-10.423c-1.4317-2.1-1.4269-2.1098-3.9553-1.9106z" fill="url(#u)" opacity=".6"/><path id="er" d="m-730.32 909.82-15.598 10.751c-2.0173 1.5367-1.4431 4.5394 0.80779 5.6834l16.874 8.1509c2.0924 1.0107 4.9188-1.0464 4.6084-3.1957l-1.2522-18.738c-0.17288-3.3921-2.7686-4.646-5.4401-2.652z" fill="url(#t)" opacity=".6"/><g id="es" transform="matrix(.90045 .43496 -.43496 .90045 0 0)" fill="#fff" opacity=".6"><path id="et" d="m-262.6 1147.9c0-1.3458 0.13845-2.4289 0.41537-3.2493 0.27692-0.8203 0.68841-1.4531 1.2345-1.8983 0.54606-0.4451 1.2332-0.6676 2.0613-0.6677 0.61077 1e-4 1.1465 0.123 1.6072 0.3688 0.46066 0.2459 0.84109 0.6005 1.1413 1.0637 0.3002 0.4633 0.53571 1.0274 0.70652 1.6926 0.1708 0.6651 0.25621 1.5618 0.25622 2.6902-1e-5 1.3354-0.13718 2.4133-0.4115 3.2337-0.27433 0.8204-0.68453 1.4544-1.2306 1.9022-0.54608 0.4477-1.2358 0.6716-2.0691 0.6716-1.0973 0-1.9591-0.3934-2.5854-1.1802-0.75052-0.9472-1.1258-2.4896-1.1258-4.6273zm1.4363 0c0 1.8685 0.21868 3.1121 0.65606 3.7306 0.43737 0.6185 0.97696 0.9278 1.6188 0.9278 0.64182 0 1.1814-0.3106 1.6188-0.9317 0.43736-0.6211 0.65605-1.8634 0.65606-3.7267-1e-5 -1.8737-0.2187-3.1186-0.65606-3.7345-0.43738-0.6159-0.98215-0.9239-1.6343-0.9239-0.64182 0-1.1542 0.2717-1.5373 0.8152-0.48137 0.6936-0.72205 1.9747-0.72205 3.8432z"/></g>
<g id="eu" transform="matrix(-1.5198 -.73412 .25771 -.53351 0 0)" fill="#fff" opacity=".6"><path id="ev" d="m151.69-1957.8 0.65844-0.056c0.0488 0.3205 0.162 0.5614 0.33967 0.7229 0.17767 0.1614 0.39193 0.2421 0.64277 0.2421 0.30192 0 0.5574-0.1138 0.76644-0.3414 0.20902-0.2276 0.31354-0.5296 0.31354-0.9058 0-0.3577-0.10045-0.6399-0.30135-0.8466s-0.46393-0.31-0.78909-0.3101c-0.20206 1e-4 -0.38438 0.046-0.54696 0.1377-0.16257 0.092-0.29031 0.2107-0.38321 0.3571l-0.58877-0.077 0.4947-2.6233h2.5397v0.5992h-2.038l-0.27522 1.3726c0.30657-0.2136 0.62825-0.3205 0.96502-0.3205 0.44592 0 0.82218 0.1545 1.1288 0.4634 0.30658 0.3089 0.45987 0.706 0.45987 1.1914 0 0.4622-0.13471 0.8617-0.40412 1.1985-0.32749 0.4134-0.77458 0.6201-1.3413 0.6201-0.46451 0-0.84367-0.1301-1.1375-0.3902s-0.46161-0.605-0.50341-1.0347z"/></g>
<g id="ew" transform="matrix(.76224 -.011403 .27396 1.3078 0 0)" fill="#fff" opacity=".6"><path id="ex" d="m-1194.6 691.61-0.7054 0.0552c-0.063-0.27849-0.1524-0.4808-0.268-0.60691-0.1918-0.2023-0.4282-0.30345-0.7093-0.30345-0.226 0-0.4244 0.0631-0.5951 0.18916-0.2233 0.1629-0.3994 0.40067-0.5281 0.71331-0.1288 0.31266-0.1957 0.75798-0.201 1.336 0.1708-0.2601 0.3796-0.45321 0.6266-0.57932s0.5058-0.18917 0.7764-0.18917c0.4729 0 0.8755 0.17406 1.2079 0.52218 0.3323 0.34812 0.4985 0.79804 0.4985 1.3498 0 0.36257-0.078 0.69952-0.2345 1.0109-0.1563 0.31133-0.3711 0.54976-0.6443 0.71528-0.2733 0.16552-0.5833 0.24828-0.9301 0.24828-0.5911 0-1.0732-0.21741-1.4463-0.65223-0.3731-0.43481-0.5596-1.1514-0.5596-2.1498 0-1.1166 0.2062-1.9284 0.6187-2.4355 0.3599-0.44138 0.8447-0.66207 1.4542-0.66208 0.4545 1e-5 0.8269 0.12743 1.1173 0.38228 0.2903 0.25485 0.4643 0.60691 0.5221 1.0562zm-2.8966 2.4907c0 0.24435 0.052 0.47817 0.1557 0.70149 0.1038 0.22333 0.2489 0.39344 0.4355 0.51036 0.1865 0.11691 0.3823 0.17537 0.5872 0.17537 0.2995 0 0.557-0.12086 0.7724-0.36257 0.2155-0.24171 0.3232-0.57012 0.3232-0.98524 0-0.39934-0.1064-0.71396-0.3192-0.94385-0.2129-0.22989-0.4808-0.34483-0.804-0.34484-0.3205 1e-5 -0.5925 0.11495-0.8158 0.34484s-0.335 0.53137-0.335 0.90444z"/></g>
<path id="ey" transform="matrix(.90045 .43496 -.43496 .90045 0 0)" d="m-246.77 1144h0.35141v2.4598h-0.35141z" fill="#fff" opacity=".6"/><g id="ez" transform="matrix(.035698 .74208 -1.3196 .58234 0 0)" fill="#fff" opacity=".6"><path id="fa" d="m774.15 583.67v-1.4857h-2.6921v-0.69841l2.8317-4.0212h0.62222v4.0212h0.8381v0.69841h-0.8381v1.4857zm0-2.1841v-2.7979l-1.9429 2.7979z" fill="#fff"/></g>
<path id="fb" d="m-724.21 933.14c0.33632-0.47518 0.61493-1.2451 0.53909-1.7702-1.8e-4 -0.0107-6.6e-4 -0.0218-4.5e-4 -0.0327l-1.2515-18.751c-0.0649-1.274-0.48115-2.1448-1.0668-2.6374z" fill="url(#s)" opacity=".6"/><path id="fc" d="m-746.9 922.02c0.16315-0.55882 0.59304-1.2557 1.0515-1.5226 9e-3 -7e-3 0.0175-0.013 0.0259-0.02l15.466-10.676c1.0383-0.74108 1.9791-0.95637 2.729-0.80385z" fill="url(#r)" opacity=".6"/><path id="fd" d="m-745.2 925.29 16.529 7.9841-0.35664 0.73832-16.529-7.9841z" fill="url(#d)" opacity=".6"/></g><g id="fe" transform="matrix(1.219 0 0 1.219 1106.6 1650.2)" filter="url(#ak)"><path id="ff" d="m-736.99 906.17c-3.642 0.6619-7.2024 1.5116-10.807 2.2324-2.8752 0.57379-2.8818 0.57662-3.7766 3.2337-1.2874 3.6695-2.564 7.6412-3.6329 10.839-0.88757 2.6595-0.88359 2.6659 1.065 4.8565 2.4421 2.7475 4.7713 5.5712 7.2788 8.2942 1.8952 2.098 1.896 2.0956 4.6854 1.5704 3.642-0.66192 7.2024-1.5116 10.807-2.2324 2.8752-0.57379 2.8662-0.58185 3.761-3.2389 1.2484-3.5885 2.4528-7.199 3.6329-10.839 0.88757-2.6595 0.89939-2.6606-1.0494-4.8512-2.4421-2.7475-4.7713-5.5712-7.2788-8.2942-1.896-2.1402-1.8921-2.1518-4.6854-1.5704z" fill="#0d308d" opacity=".8"/><path id="fg" d="m-754.15 927.33c2.4421 2.7475 4.7713 5.5712 7.2788 8.2942 1.8952 2.098 1.896 2.0956 4.6854 1.5704 3.642-0.66192 7.2024-1.5116 10.807-2.2324 6.9447-10.032-24.482-20.116-22.771-7.6323z" fill="url(#q)" opacity=".8"/><path id="fh" d="m-736.99 906.17c-3.642 0.6619-7.2024 1.5116-10.807 2.2324-2.8752 0.57379-2.8818 0.57662-3.7766 3.2337-1.2874 3.6695-2.564 7.6412-3.6329 10.839l22.902-14.735c-1.896-2.1402-1.8921-2.1518-4.6854-1.5704z" fill="url(#p)" opacity=".8"/><path id="fi" d="m-738.38 907.42-15.88 14.214c-2.0331 2.0015-0.96576 5.2709 1.7087 6.228l19.989 6.6998c2.4786 0.83077 5.3408-1.8664 4.6891-4.2209l-4.0588-20.734c-0.67471-3.761-3.7496-4.7917-6.4478-2.187z" fill="url(#o)" opacity=".8"/><g id="fj" transform="matrix(.94816 .3178 -.3178 .94816 0 0)" fill="#fff" opacity=".8"><path id="fk" d="m-412.54 1107.5c0-1.514 0.15576-2.7324 0.4673-3.6554 0.31153-0.9229 0.77445-1.6348 1.3888-2.1356 0.61433-0.5007 1.3873-0.7511 2.319-0.7511 0.68711 0 1.2898 0.1383 1.808 0.4149 0.51824 0.2766 0.94623 0.6754 1.284 1.1966 0.33773 0.5212 0.60267 1.1559 0.79484 1.9041 0.19215 0.7483 0.28823 1.7571 0.28824 3.0265-1e-5 1.5024-0.15432 2.715-0.46293 3.6379-0.30863 0.923-0.7701 1.6363-1.3844 2.14-0.61433 0.5037-1.3902 0.7555-2.3278 0.7555-1.2345 0-2.204-0.4425-2.9086-1.3276-0.84433-1.0656-1.2665-2.8009-1.2665-5.2058zm1.6159 0c0 2.1021 0.24602 3.5011 0.73807 4.1969 0.49204 0.6959 1.0991 1.0438 1.8211 1.0438s1.3291-0.3494 1.8212-1.0481c0.49204-0.6988 0.73806-2.0963 0.73806-4.1926 0-2.1079-0.24602-3.5083-0.73806-4.2013-0.49205-0.6929-1.1049-1.0394-1.8386-1.0394-0.72206 0-1.2985 0.3057-1.7294 0.9171-0.54154 0.7803-0.81231 2.2215-0.81231 4.3236z"/></g>
<g id="fl" transform="matrix(-1.6003 -.53637 .18829 -.56178 0 0)" fill="#fff" opacity=".8"><path id="fm" d="m240.04-1892 0.74075-0.063c0.0549 0.3606 0.18224 0.6317 0.38213 0.8133 0.19988 0.1816 0.44092 0.2724 0.72311 0.2724 0.33967 0 0.62708-0.128 0.86224-0.3841s0.35274-0.5957 0.35274-1.019c0-0.4024-0.11301-0.7199-0.33902-0.9524-0.22602-0.2326-0.52192-0.3488-0.88772-0.3488-0.22732 0-0.43243 0.052-0.61533 0.1548-0.1829 0.1032-0.32661 0.2371-0.43112 0.4017l-0.66236-0.086 0.55654-2.9512h2.8572v0.6741h-2.2928l-0.30963 1.5442c0.3449-0.2404 0.70678-0.3606 1.0856-0.3606 0.50166 0 0.92495 0.1738 1.2698 0.5213 0.34489 0.3475 0.51734 0.7943 0.51734 1.3404 0 0.5199-0.15155 0.9693-0.45463 1.3482-0.36842 0.4651-0.8714 0.6976-1.5089 0.6976-0.52258 0-0.94913-0.1463-1.2796-0.4389-0.33053-0.2927-0.51931-0.6807-0.56634-1.1641z"/></g>
<g id="fn" transform="matrix(.7547 -.10754 .43688 1.2628 0 0)" fill="#fff" opacity=".8"><path id="fo" d="m-1317.9 612.67-0.7936 0.0621c-0.071-0.3133-0.1714-0.54089-0.3014-0.68277-0.2158-0.22758-0.4818-0.34137-0.7981-0.34138-0.2542 1e-5 -0.4773 0.0709-0.6695 0.21281-0.2512 0.18326-0.4492 0.45075-0.5941 0.80248-0.1448 0.35173-0.2202 0.85272-0.2261 1.503 0.1922-0.29261 0.4271-0.50986 0.705-0.65174 0.2778-0.14187 0.5689-0.2128 0.8734-0.21281 0.532 1e-5 0.985 0.19582 1.3589 0.58745 0.3739 0.39164 0.5608 0.8978 0.5608 1.5185 0 0.40789-0.088 0.78696-0.2638 1.1372s-0.4175 0.61848-0.7249 0.80469-0.6561 0.27932-1.0463 0.27932c-0.665 0-1.2074-0.24459-1.6271-0.73376s-0.6296-1.2953-0.6296-2.4185c0-1.2562 0.232-2.1695 0.6961-2.74 0.4049-0.49655 0.9503-0.74483 1.636-0.74484 0.5113 1e-5 0.9303 0.14336 1.2569 0.43006 0.3266 0.28671 0.5224 0.68277 0.5874 1.1882zm-3.2586 2.802c0 0.27489 0.058 0.53794 0.1751 0.78918 0.1167 0.25123 0.2801 0.44262 0.4899 0.57415 0.2099 0.13153 0.4301 0.19729 0.6606 0.19729 0.337 0 0.6266-0.13596 0.869-0.40789 0.2424-0.27192 0.3635-0.64139 0.3635-1.1084 0-0.44927-0.1197-0.80322-0.3591-1.0618s-0.5409-0.38794-0.9044-0.38794c-0.3606 0-0.6665 0.12932-0.9178 0.38794-0.2512 0.25862-0.3768 0.59779-0.3768 1.0175z"/></g>
<path id="fp" transform="matrix(.94816 .3178 -.3178 .94816 0 0)" d="m-394.73 1103.1h0.39532v2.7673h-0.39532z" fill="#fff" opacity=".8"/><g id="fq" transform="matrix(.1291 .73163 -1.2355 .74428 0 0)" fill="#fff" opacity=".8"><path id="fr" d="m570.29 667.77v-1.6714h-3.0286v-0.78571l3.1857-4.5238h0.7v4.5238h0.94286v0.78571h-0.94286v1.6714zm0-2.4571v-3.1476l-2.1857 3.1476z" fill="#fff"/></g>
<path id="fs" d="m-728.25 932.58c0.30785-0.57807 0.50942-1.4769 0.35021-2.0521-2e-3 -0.0119-4e-3 -0.0242-5e-3 -0.0365l-4.0599-20.749c-0.2534-1.4125-0.84158-2.3252-1.5651-2.7918z" fill="url(#n)" opacity=".8"/><path id="ft" d="m-755.16 923.39c0.10272-0.64681 0.4835-1.4855 0.95721-1.8486 9e-3 -8e-3 0.0176-0.017 0.0261-0.026l15.744-14.111c1.0535-0.97451 2.0729-1.3484 2.9314-1.2847z" fill="url(#m)" opacity=".8"/><path id="fu" d="m-752.8 926.8 19.58 6.5627-0.29315 0.87461-19.58-6.5627z" fill="url(#c)" opacity=".8"/></g><g id="fv" transform="matrix(1.2261 .0028943 -.0028943 1.2261 -8.2334 2152.8)"><path id="fw" d="m169.14 492.1c-3.5823 1.9718-7.0132 4.1117-10.536 6.1321-2.8101 1.6104-2.816 1.6156-2.8204 4.7128-0.0602 4.2954-3e-3 8.9035 0 12.628 4e-3 3.0972 0.0104 3.1024 2.8204 4.7128 3.5224 2.0204 6.9533 4.1603 10.536 6.1321 2.7216 1.5322 2.7216 1.5294 5.4589 0 3.5823-1.9719 7.0132-4.1117 10.536-6.1321 2.8101-1.6104 2.7978-1.6156 2.8022-4.7128 0.0478-4.1968 0.0418-8.4013 0-12.628-4e-3 -3.0972 8e-3 -3.1024-2.8022-4.7128-3.5224-2.0204-6.9533-4.1603-10.536-6.1321-2.7372-1.5761-2.7372-1.5896-5.4589 0z" fill="#0d308d"/><path id="fx" d="m158.61 520.29c3.5224 2.0204 6.9533 4.1603 10.536 6.1321 2.7216 1.5322 2.7216 1.5294 5.4589 0 3.5823-1.9719 7.0132-4.1117 10.536-6.1321 3.7519-12.946-32.705-12.475-26.53 0z" fill="url(#l)"/><path id="fy" d="m169.14 492.1c-3.5823 1.9718-7.0132 4.1117-10.536 6.1321-2.8101 1.6104-2.816 1.6156-2.8204 4.7128-0.0602 4.2954-3e-3 8.9035 0 12.628l18.815-23.473c-2.7372-1.5761-2.7372-1.5896-5.4589 0z" fill="url(#k)"/><path id="fz" d="m168.13 493.9-11.643 20.463c-1.4268 2.8101 0.83888 5.8598 3.9761 5.9234h23.289c2.8878 0 4.9387-3.8298 3.4296-6.0672l-11.53-20.292c-2.0271-3.7025-5.6095-3.7025-7.5213-0.0271z" fill="url(#j)"/><g id="ga" fill="#fff"><path id="gb" d="m173.77 514.6h-1.7368v-11.067c-0.41812 0.39883-0.96649 0.79764-1.6451 1.1964-0.67864 0.39883-1.2881 0.69794-1.8284 0.89734v-1.6789c0.97131-0.4567 1.8204-1.0099 2.5473-1.6596 0.72687-0.64968 1.2415-1.2801 1.5438-1.8912h1.1193z"/></g>
<g id="gc" transform="scale(-1.6878 -.59249)" fill="#fff"><path id="gd" d="m-103.93-881.96 0.81829-0.0693c0.0606 0.39832 0.20132 0.69778 0.42213 0.89838 0.2208 0.2006 0.48707 0.3009 0.7988 0.3009 0.37523 0 0.69273-0.14143 0.9525-0.42429s0.38966-0.65809 0.38966-1.1257c0-0.4445-0.12484-0.79519-0.37451-1.0521s-0.57655-0.38533-0.98064-0.38533c-0.25111 0-0.47769 0.057-0.67974 0.17101-0.20204 0.11402-0.36079 0.26195-0.47625 0.44378l-0.73169-0.0952 0.6148-3.2602h3.1562v0.74469h-2.5328l-0.34203 1.7058c0.38099-0.26554 0.78076-0.39832 1.1993-0.39832 0.55418 0 1.0218 0.19195 1.4028 0.57583 0.381 0.38389 0.5715 0.87746 0.5715 1.4807-5e-6 0.57439-0.16741 1.0708-0.50222 1.4894-0.40698 0.51377-0.96261 0.77066-1.6669 0.77066-0.57727 0-1.0485-0.16164-1.4136-0.48491-0.36512-0.32327-0.57366-0.7519-0.62562-1.2859z"/></g>
<g id="ge" transform="matrix(.6814 -.34181 .81554 1.0585 0 0)" fill="#fff"><path id="gf" d="m-212.74 402.01-0.87668 0.0686c-0.0784-0.34609-0.18938-0.59751-0.33304-0.75424-0.23835-0.2514-0.53221-0.37711-0.88157-0.37712-0.28081 1e-5 -0.52732 0.0784-0.73955 0.23509-0.27754 0.20244-0.4963 0.49794-0.65629 0.88648-0.15999 0.38855-0.24325 0.94198-0.24978 1.6603 0.21223-0.32324 0.47181-0.56322 0.77873-0.71995 0.30692-0.15672 0.62853-0.23509 0.96484-0.23509 0.58771 0 1.0881 0.21632 1.5011 0.64894 0.41303 0.43263 0.61955 0.99178 0.61955 1.6774 0 0.45059-0.0971 0.86934-0.29141 1.2562-0.19428 0.38692-0.4612 0.68323-0.80076 0.88893-0.33958 0.2057-0.72486 0.30855-1.1558 0.30855-0.73465 0-1.3338-0.27019-1.7974-0.81056-0.46364-0.54038-0.69547-1.4309-0.69547-2.6717 0-1.3877 0.25631-2.3966 0.76894-3.0268 0.44731-0.54853 1.0497-0.8228 1.8072-0.82281 0.56486 1e-5 1.0277 0.15837 1.3885 0.47507 0.36078 0.31672 0.5771 0.75425 0.64893 1.3126zm-3.5998 3.0953c0 0.30366 0.0645 0.59425 0.19346 0.87179 0.12897 0.27753 0.30936 0.48895 0.54119 0.63424 0.23182 0.1453 0.47507 0.21795 0.72975 0.21795 0.37222 0 0.6922-0.1502 0.95994-0.45059 0.26773-0.30039 0.4016-0.70852 0.4016-1.2244 0-0.49629-0.13224-0.88729-0.39671-1.173-0.26447-0.28569-0.59751-0.42854-0.99912-0.42854-0.39834 0-0.73628 0.14285-1.0138 0.42854-0.27754 0.2857-0.4163 0.66037-0.4163 1.124z"/></g>
<path id="gg" d="m186.9 502.76h0.4367v3.057h-0.4367z" fill="#fff"/><g id="gh" transform="matrix(.35492 .65268 -.9349 1.0983 0 0)" fill="#fff"><path id="gi" d="m645.03 77.042v-1.8464h-3.3456v-0.86796l3.5192-4.9973h0.77327v4.9973h1.0416v0.86796h-1.0416v1.8464zm0-2.7143v-3.4771l-2.4145 3.4771z" fill="#fff"/></g>
<path id="gj" d="m187.57 516.69c0.1195-0.71355 0.0151-1.7257-0.3536-2.2723-6e-3 -0.0119-0.0125-0.024-0.0182-0.0364l-11.536-20.307c-0.7613-1.3905-1.6978-2.14-2.6194-2.3747z" fill="url(#i)"/><path id="gk" d="m156.16 516.51c-0.11949-0.71354-0.0151-1.7257 0.35361-2.2723 6e-3 -0.0119 0.0125-0.024 0.0182-0.0364l11.536-20.307c0.7613-1.3905 1.6978-2.14 2.6194-2.3747z" fill="url(#h)"/><path id="gl" d="m159.83 519.26h22.812v1.019h-22.812z" fill="url(#b)"/></g><path id="gm" d="m201.08 2755.2c-0.83664 0-1.6948 0.4957-3.3656 1.4655-4.398 2.4075-8.5947 5.0239-12.919 7.4911-3.4501 1.9664-3.4597 1.9567-3.4741 5.754-0.0205 1.2567 9e-3 2.4121 0 3.6913 2.5992 1.6745 5.2091 3.323 8.0339 4.7226 3.0309 1.5018 6.302 2.7155 9.9338 3.4741 1.8159 0.3794 3.7216 0.6492 5.754 0.7602 2.0324 0.1116 4.1667 0.1037 6.4597-0.1094 2.293-0.213 4.7305-0.602 7.3282-1.1941 0.59292-0.1355 1.2897-0.3863 1.8999-0.543 0.0122-3.5582 0.027-7.1113 0-10.694 3e-3 -3.7976 0.0212-3.8255-3.4198-5.8083-4.313-2.4875-8.4786-5.1173-12.865-7.5454-1.6758-0.9701-2.5289-1.4613-3.3656-1.4655z" fill="url(#g)"/></g></svg>
