<?xml version="1.0" encoding="UTF-8"?>
<svg version="1.0" viewBox="0 0 48 48" xmlns="http://www.w3.org/2000/svg" xmlns:xlink="http://www.w3.org/1999/xlink"><defs><linearGradient id="a"><stop stop-color="#808080" offset="0"/><stop stop-color="#fff" offset="1"/></linearGradient><linearGradient id="c" x1="76.24" x2="76.241" y1="72.862" y2="8.231" gradientTransform="matrix(.30816 0 0 .30816 3.5062 11.548)" gradientUnits="userSpaceOnUse" xlink:href="#a"/><linearGradient id="b" x1="76.724" x2="76.24" y1="18.116" y2="62.704" gradientTransform="matrix(.30816 0 0 .30816 3.5062 11.548)" gradientUnits="userSpaceOnUse" xlink:href="#a"/></defs><g><path d="m5 5h38v34.301h-8.5234c-1.9101 0-3.5 1.5899-3.5 3.5v0.19922h-14v-0.19922c0-1.9101-1.5899-3.5-3.5-3.5h-8.4766z" fill="#fe0000"/><path d="m4.456 1c-1.956 0-3.456 1.5-3.456 3.5v35.5c0 2 1.5 3.3008 3.5 3.3008h8.4766v0.19922c0 1.9044 1.5956 3.5 3.5 3.5h15c1.9044 0 3.5-1.5956 3.5-3.5v-0.19922h8.5234c2 0 3.5-1.3008 3.5-3.3008v-35.5c0-2-1.5-3.5-3.5-3.5z" fill="#fff" opacity=".6"/></g><path d="m5.85 5.9h36.5v32.6h-36.5z" fill="#2874d2"/><path d="m4.6562 3c-0.94194 0-1.6562 0.71469-1.6562 1.6562v34.988c0 0.94156 0.7143 1.6562 1.6562 1.6562h8.8203c0.828 0 1.5 0.67198 1.5 1.5v0.7c0 0.831 0.669 1.5 1.5 1.5h15c0.831 0 1.5-0.669 1.5-1.5v-0.7c0-0.828 0.672-1.5 1.5-1.5l8.8672-4.13e-4c0.94195 0 1.6562-0.71428 1.6562-1.6558v-34.988c0-0.94156-0.7143-1.6562-1.6562-1.6562zm1.3438 3h36v32.3h-36z"/><rect x="26" y="42" width="5" height="2" rx="1" fill="#7fff2a"/><path d="m9.6737 11.212h-0.69726c-1.0699 0-2.1769 1.1052-2.1769 2.1754v20.72c0 1.0702 1.028 2.0979 2.0979 2.0979h30.205c1.0701 0 2.0979-1.0277 2.0979-2.0979v-21.967c0-1.0699-1.0277-2.0979-2.0979-2.0979h-14.005c-0.76961 0-1.4167 0.4794-1.7257 1.1697h-7.0347c-0.24347-0.96783-1.6345-1.9119-3.3311-1.9118-1.6966 0-3.0882 0.94407-3.3317 1.9119z" opacity=".4"/><path d="m12.983 9.9414c-1.5395 0-2.7871 0.74125-2.7871 1.6562 0 0.07964 0.011 0.15773 0.0293 0.23438h-1.0938c-0.91594 0-1.6582 0.74253-1.6582 1.6582v20.385c0 0.91594 0.74254 1.6582 1.6582 1.6582h29.736c0.91621 0 1.6582-0.74226 1.6582-1.6582v-21.555c0-0.9154-0.742-1.6582-1.6582-1.6582h-13.616c-0.74491 0-1.3669 0.49423-1.5762 1.1699h-7.9329c0.01828-0.07664 0.0293-0.15473 0.0293-0.23438 0-0.915-1.249-1.6562-2.7891-1.6562z" fill="#e0e0e0"/><path d="m38.978 15.275c0 0.13791-0.10316 0.25002-0.23075 0.25002h-3.5303c-0.12759 0-0.23075-0.11212-0.23075-0.25002v-2.508c0-0.13818 0.10316-0.25002 0.23075-0.25002h3.5303c0.12759 0 0.23075 0.11184 0.23075 0.25002z" fill="#48b400"/><path d="m17 24c0 5.5139 4.4861 10 10 10 5.5138 0 10-4.4862 10-10 0-5.5145-4.4861-10-10-10-5.5138 0-10 4.4862-10 10z" fill="url(#c)"/><path d="m33.87 24c0 3.7944-3.0757 6.8698-6.8704 6.8698-3.7943 0-6.8704-3.0754-6.8704-6.8698 0-3.795 3.076-6.8704 6.8704-6.8704 3.7946 0 6.8704 3.0754 6.8704 6.8704z" fill="url(#b)"/><path d="m31.187 24c0 2.3131-1.8739 4.187-4.1875 4.187-2.313 0-4.1875-1.8742-4.1875-4.187 0-2.3131 1.8745-4.1882 4.1875-4.1882 2.3136 0 4.1875 1.8748 4.1875 4.1882z" fill="#282828"/><path d="m29.456 24c0 1.3571-1.0998 2.4566-2.4569 2.4566-1.3559 0-2.4569-1.0995-2.4569-2.4566 0-1.3568 1.1007-2.457 2.4569-2.457 1.3571 0 2.4569 1.1001 2.4569 2.457z" fill="#2162af"/></svg>
