<?xml version="1.0" encoding="UTF-8"?>
<svg id="a" version="1.1" viewBox="0 0 16 16" xmlns="http://www.w3.org/2000/svg"><g id="b" transform="translate(-421.71 -531.79)"><path id="c" d="m425.1 533.79c-0.87826-0.0221-1.3843 0.75019-1.3762 1.7196l-8e-3 2.28h2v8h9.9993c2e-3 -3.4387-3e-3 -6.772 7.5e-4 -10.211 9e-3 -0.74503-0.9241-1.7888-1.8471-1.7888h-8.7689zm0.11311 1.0021c0.38665 8e-3 0.50266 0.15163 0.50266 0.72291v1.2745h-1v-1.2793c-2e-3 -0.52199 0.0773-0.71514 0.49734-0.7181zm8.6558-3e-3c0.34617-3e-3 0.84612 0.372 0.84704 1.0096l-1.6e-4 8.9907h-8v-10zm-6.1531 3.0003v1h4v-1zm0 2v1h6v-1zm0 2v1h6v-1z" fill="#d35400"/></g></svg>
