<?xml version="1.0" encoding="UTF-8"?>
<svg viewBox="0 0 16 16" xmlns="http://www.w3.org/2000/svg"><defs><style id="a" type="text/css">.ColorScheme-Text { color:#536076; } .ColorScheme-Highlight { color:#ffffff; }</style></defs><path class="ColorScheme-Text" transform="translate(-.5 -.5)" d="m7 0.4c3.6451 0 6.6 2.9549 6.6 6.6 0 1.6064-0.57388 3.0787-1.5278 4.2231l4.0747 4.0752c0.23431 0.23431 0.23431 0.61421 0 0.84853-0.23431 0.23431-0.61421 0.23431-0.84853 0l-4.0752-4.0747c-1.1445 0.95392-2.6168 1.5278-4.2231 1.5278-3.6451 0-6.6-2.9549-6.6-6.6 0-3.6451 2.9549-6.6 6.6-6.6zm0 1.2c-2.9823 0-5.4 2.4177-5.4 5.4s2.4177 5.4 5.4 5.4 5.4-2.4177 5.4-5.4-2.4177-5.4-5.4-5.4z" fill="currentColor"/></svg>
