<?xml version="1.0" encoding="UTF-8"?>
<svg id="a" version="1.0" viewBox="0 0 16 16" xmlns="http://www.w3.org/2000/svg"><g id="b" transform="translate(0,-6)" fill="#bebebe"><path id="c" transform="translate(0,6)" d="m8 0s-2 3-6 3c0 11 6 13 6 13s6-2 6-13c-4 0-6-3-6-3zm0 3c0.90021 0.74015 2.0821 1.3257 3.6875 1.75-0.27972 3.9231-1.3831 6.221-2.4062 7.5-0.53484 0.66855-0.93982 1.0382-1.2812 1.2812-0.34143-0.24304-0.74641-0.6127-1.2812-1.2812-1.0232-1.279-2.1265-3.5769-2.4062-7.5 1.6054-0.4243 2.7873-1.0098 3.6875-1.75z"/><path id="d" transform="translate(0,6)" d="m8 4c-0.75187 0.52641-1.6526 0.96477-2.7188 1.3125 0.34824 3.3104 1.2584 5.3621 2.0938 6.4062 0.27731 0.34664 0.43058 0.4406 0.625 0.625 0.19442-0.1844 0.34769-0.27836 0.625-0.625 0.83532-1.0442 1.7455-3.0958 2.0938-6.4062-1.0661-0.34773-1.9669-0.78609-2.7188-1.3125z" opacity=".45"/></g></svg>
