<?xml version="1.0" encoding="UTF-8"?>
<svg id="ab" width="130" height="130" version="1.1" viewBox="0 0 34.396 34.396" xmlns="http://www.w3.org/2000/svg" xmlns:xlink="http://www.w3.org/1999/xlink"><defs id="ac"><filter id="r" x="-.021444" y="-.019957" width="1.0429" height="1.0399" color-interpolation-filters="sRGB"><feGaussianBlur id="ad" stdDeviation="1.3642241"/></filter><filter id="p" x="-.14486" y="-.13481" width="1.2897" height="1.2696" color-interpolation-filters="sRGB"><feGaussianBlur id="ae" stdDeviation="9.2156237"/></filter><filter id="q" x="-.14486" y="-.13481" width="1.2897" height="1.2696"><feGaussianBlur id="af" stdDeviation="9.2156237"/></filter><filter id="s" x="-.021444" y="-.019957" width="1.0429" height="1.0399"><feGaussianBlur id="ag" stdDeviation="1.3642241"/></filter><linearGradient id="n" x1="68.874" x2="175.18" y1="51.558" y2="109.71" gradientTransform="rotate(183.68 132.49 151.09)" gradientUnits="userSpaceOnUse"><stop id="ah" stop-color="#fff" offset="0"/><stop id="ai" stop-color="#d7dad3" offset=".15396"/><stop id="aj" stop-color="#fff" offset="1"/></linearGradient><linearGradient id="m" x1="179.24" x2="148.47" y1="142.3" y2="51.268" gradientTransform="rotate(183.68 132.49 151.09)" gradientUnits="userSpaceOnUse"><stop id="ak" stop-color="#d16060" offset="0"/><stop id="al" stop-color="#dac0c5" offset="1"/></linearGradient><clipPath id="y"><path id="am" d="m155.53 128.79-114.49 32.311 37.309 132.44c38.368-10.828 77.897-19.316 114.78-34.494-14.879-42.4-24.349-87.335-37.598-130.25z" color="#000000" enable-background="accumulate" fill="none" stroke="#000" stroke-width="1.106" xlink:href="#a"/></clipPath><filter id="t" x="-.010587" y="-.0097595" width="1.0212" height="1.0195"><feGaussianBlur id="an" stdDeviation="0.47475"/></filter><radialGradient id="g" cx="117.2" cy="126.46" r="43" gradientTransform="matrix(1.8539 -.055395 .039349 1.3168 -97.493 -27.66)" gradientUnits="userSpaceOnUse" xlink:href="#b"/><linearGradient id="b"><stop id="ao" stop-color="#fff" offset="0"/><stop id="ap" stop-color="#fff" stop-opacity="0" offset="1"/></linearGradient><filter id="d" x="-.12277" y="-.16193" width="1.2455" height="1.3239"><feGaussianBlur id="aq" stdDeviation="3.9132543"/></filter><filter id="o" x="-.014127" y="-.013145" width="1.0283" height="1.0263"><feGaussianBlur id="ar" stdDeviation="0.8985523"/></filter><linearGradient id="l" x1="68.874" x2="175.18" y1="51.558" y2="109.71" gradientTransform="rotate(183.68 132.49 151.09)" gradientUnits="userSpaceOnUse"><stop id="as" stop-color="#eee" offset="0"/><stop id="at" stop-color="#d7dad3" offset=".15396"/><stop id="au" stop-color="#fff" offset="1"/></linearGradient><linearGradient id="k" x1="-11.986" x2="-11.986" y1="11.5" y2="28.977" gradientTransform="matrix(2.8616 0 0 3.6867 -117.22 27.191)" gradientUnits="userSpaceOnUse"><stop id="av" stop-color="#204a87" offset="0"/><stop id="aw" stop-color="#729fcf" offset="1"/></linearGradient><clipPath id="z"><rect id="ax" x="84" y="428" width="92" height="56"/></clipPath><filter id="u" x="-.30265" y="-.30265" width="1.6053" height="1.6053" color-interpolation-filters="sRGB"><feGaussianBlur id="ay" stdDeviation="3.5333828"/></filter><filter id="w" x="-.072" y="-.072" width="1.144" height="1.144" color-interpolation-filters="sRGB"><feGaussianBlur id="az" stdDeviation="0.84057318"/></filter><filter id="v" x="-.11115" y="-.20272" width="1.2223" height="1.4054" color-interpolation-filters="sRGB"><feGaussianBlur id="ba" stdDeviation="0.83939158"/></filter><linearGradient id="j" x1="25.355" x2="25.355" y1="33.357" y2="31.763" gradientTransform="matrix(2.9683 0 0 4.8388 -222.42 -11.289)" gradientUnits="userSpaceOnUse"><stop id="bb" stop-color="#2e3436" offset="0"/><stop id="bc" stop-color="#2e3436" stop-opacity="0" offset="1"/></linearGradient><linearGradient id="i" x1="145" x2="149.75" y1="481.12" y2="492.88" gradientTransform="matrix(1.097 0 0 1.3825 -293.78 -511.07)" gradientUnits="userSpaceOnUse" xlink:href="#c"/><linearGradient id="c"><stop id="bd" offset="0"/><stop id="be" stop-opacity="0" offset="1"/></linearGradient><clipPath id="aa"><path id="bf" d="m79.406 432.78c4.9521 3.1562 10.098 2.36 13.812 6.2812 0.20853 0.22012 0.41543 0.41335 0.625 0.625-0.91227 0.0132-3.3617-0.64471-5.8125-0.21875-2.04 0.35455-4.026-0.55433-6.4375 1.0312 2.8086-1.177 5.0587-0.41657 7.3125-0.71875 1.757-0.23558 4.8595 0.60574 6.8438 1.75 3.1991 2.92 6.0681 5.0034 6.6562 7.0312 0.75156 2.5912 0.93062 10.177 0.96875 13.312-0.33977-0.27402-0.66062-0.5645-0.96875-0.875-0.68906-0.71321-1.3477-1.4778-2.1562-2.0625-0.77698-0.56343-1.5827-1.081-2.2188-1.8125-0.66486-0.8969-1.4471-1.6971-2.1875-2.5312-0.70592-0.72238-1.4565-1.3967-2.125-2.1562-0.61554-0.75741-1.3361-1.4232-2.1875-1.9062-0.77581-0.47272-1.5828-1.0033-2.5312-0.96875-0.47451-0.0791-0.95887-0.19127-1.3125-0.53125-0.59769-0.44175-1.3243-0.71337-2.0625-0.78125l0.125 0.0625c0.9109 0.24481 1.6818 0.8215 2.4062 1.4062 0.82464 0.41098 1.8702 0.34115 2.5312 1.0625 0.70456 0.74408 1.7606 1.1436 2.2812 2.0625 0.20942 0.35023 0.44974 0.66458 0.71875 0.96875-0.70331 0.27896-1.3791 1.262-1.875 1.5938-1.2981 0.86836-4.6092-2.7475-7.5-2.4062 2.0854-0.0469 5.7552 2.5084 6.4688 2.7188 0.55836 0.16459-1.6664 2.1036-3.375 3.0312 1.5174-0.43138 3.9773-2.5172 4.4375-2.625 0.57771-0.13527 1.1621-1.9473 2.4375-1.6875 0.26687 0.28232 0.53984 0.57255 0.78125 0.875 0.69303 0.78032 1.3858 1.5403 1.9688 2.4062 0.85162 1.0618 1.9547 1.8779 2.875 2.875 0.7471 0.7803 1.3951 1.6458 2.0938 2.4688 0.93323 1.1249 1.8793 2.2501 2.8125 3.375 0.42144 0.87267 1.0317 1.6104 1.6562 2.3438 0.66563 0.75999 1.3096 1.5578 1.8125 2.4375 0.59909 0.89138 1.1135 1.8414 1.5 2.8438 0.30827 0.94828 0.48395 1.9214 0.625 2.9062 0.19051 1.037 0.34872 2.0991 0.25 3.1562-0.14578 1.5715-0.30651 3.1462-0.4375 4.7188-0.0217 0.7843-0.12135 1.6214 0.25 2.3438 0.88575 0.56065 1.944 0.69175 2.9688 0.75 0.86591-0.0236 1.7265-0.22461 2.4688-0.6875 0.31904-0.16231 0.63392-0.49478 0.46875-0.875-0.18667-1.0174-0.40295-2.0314-0.5-3.0625-0.1344-1.1527-0.25974-2.311-0.34375-3.4688-0.099-1.0951-0.14847-2.1826-0.1875-3.2812 0.0322-1.002 0.0767-2.0359 0.375-3 0.32471-0.94223 0.65194-2.1835 1.25-2.9688 0.85084-1.0428 2.1162-1.5162 3.0938-2.4375 0.82415-0.71738 1.6886-1.3898 2.4688-2.1562 0.75889-0.71303 1.6336-2.171 2.3125-2.9688 0.7624-0.80646 1.4899-0.89854 2.2188-1.625 0.18969-0.12973 0.38766-0.25786 0.59375-0.375 0.52915-0.26792 1.0411-0.57592 1.7188-0.625 0.70029 0.0397 1.394-0.19008 2.0938-0.0937 0.70007 0.0559 1.0293 0.72896 1.7812 0.65625 0.66535-0.12321 1.3522-0.12021 2.0312-0.0625-0.21541-0.0835-0.44604-0.15445-0.6875-0.1875-0.48981-0.0904-0.98368 0.0758-1.4688 0.0313-0.63207-0.054-0.8309-0.55639-1.375-0.71875-0.66242-0.11588-1.3594 0.10128-2.0312 0.0625-0.5382-0.0737-1.0553 0.0455-1.5938 0.0313 0.76409-1.1233 1.4432-2.4472 2.25-3.375 1.3398-1.2447 2.987-2.4822 4.0312-2.9688 1.3919-0.64849 2.3846 0.15819 4.2188-0.75-2.0398 0.86066-3.2805-0.27726-5.6875 1.125-1.3263 0.76242-2.2125 1.1866-2.9688 1.7188-1.5881-1.3451-0.70451-6.0617-2.0938-8.7812 0.0827-0.0958 0.125-0.20732 0.125-0.34375 1.5442-0.65828 3.8554-0.62579 5.3438-0.34375 1.8094 0.34285 1.1428 0.69721 2.0625 0.75 0.8083 0.0464 2.2134 0.8335 3.3438 1.2812 1.2226 0.48428 1.5383-0.0211 3.8438 1.2188-1.6552-1.1205-3.3491-1.1322-3.5938-1.4062 0.7457-2.4294 3.7961-2.8874 5.0625-5.1875-1.7644 2.5927-4.053 2.3398-5.2812 5.0938-1.2265-0.34407-2.4426-0.89298-3.0625-1.2812 1.4979-1.8748-1.6865-7.1896-1.7812-9-0.11059 2.4131 2.8308 5.847 1.25 8.8125-3.1678-1.2587-5.7502-0.78886-7.4375-0.40625-0.0628-0.0425-0.14103-0.0804-0.21875-0.0937-1.3849-2.0411-0.95284-3.5457-2.5-5.7812 0.85981 2.0352 1.0308 4.2145 1.875 5.9688 0.0201 0.0419 0.0431 0.0827 0.0625 0.125-0.0386 0.0749-0.0625 0.16002-0.0625 0.25 0 0.22641 0.14749 0.41694 0.34375 0.5 0.92516 2.7208 0.58242 6.1324 0.8125 8.6562-2.3395-3.8392-5.1562-3.9023-6.7812-10.25 1.3491 7.7694 7.4282 8.4637 5.875 13.344-1.1892 1.2392-3.1172 3.336-4.0312 4.25-0.76285 0.67868-1.5958 1.2684-2.4375 1.8438-0.87643 0.65389-0.79689 1.1332-1.7188 1.7188-0.68733 0.46263-2.2481 0.96188-2.8438 1.4375-0.77914 0.62211-1.2104 1.4697-1.875 2.3125-0.35417 0.47917-1.2396 0.61458-1.5625 1.25-0.32894-1.3324-1.2862-3.8088-3.0938-4.8438-0.89341-0.51154-1.8948-1.4387-2.625-2.2188-0.16244-0.16986-0.32136-0.31728-0.5-0.46875-1.2415-3.0007-1.3751-6.7091-1.6562-10.062 0.097-0.0922 0.17429-0.19076 0.28125-0.28125 0.53668-0.40499 1.0314-0.85932 1.9375-1.125 1.0036-0.19673 1.6425 0.33535 2.6875 0.1875 1.0153-0.18272 1.852-1.0645 2.8438-1.375 0.83379-0.32538 2.075-0.13823 3.0625-0.3125-1.1481 0.056-2.2651-0.14799-3.375 0.1875-0.91936 0.16193-1.4661 1.1166-2.3438 1.1562-1.0076 0.1187-1.6305-0.40688-2.5938-0.21875-0.80343 0.11401-1.4592 0.39725-2.2188 0.5625-0.096-0.0611-0.4129 0.0496-0.40625-0.0625-0.0616-0.56577-0.12813-1.1274-0.21875-1.6562-0.06-3.8967 4.2735-2.5702 5.1562-3.25 0.58133-0.44768 3.8545-3.0494 6.75-3.6562-3.4352 0.61964-6.8993 3.236-6.5625 2.4062 0.43039-1.0604 0.76035-7.918 2.8438-10.375-3.2326 3.1378-1.9374 10.598-4.2812 11.312-1.1493 0.35058-3.9482-0.0106-4.4375 1.375-0.10489-0.29885-0.21204-0.57258-0.34375-0.84375-0.84843-1.7468-3.2081-3.669-5.7188-5.8438-0.24719-1.2233 1.7086-1.6135 1.9062-2.125 0.15296-0.39577 2.4216-2.3888 3-3.6875-1.0818 1.4262-3.1791 3.223-3.2812 2.7188-0.13053-0.6444-2.2318-4.077-1.9688-5.9062-0.63373 2.5132 2.5124 5.711 1.5312 6.7812-0.40432 0.441-1.5683 1.0007-1.8125 1.6562-1.2132-1.0658-2.4193-2.1804-3.5312-3.4062-3.251-3.584-5.7455-2.0317-14.312-5.6562z" fill-rule="evenodd"/></clipPath><filter id="x" x="-.022051" y="-.025849" width="1.0441" height="1.0517" color-interpolation-filters="sRGB"><feGaussianBlur id="bg" stdDeviation="0.5940625"/></filter><radialGradient id="e" cx="130" cy="536.62" r="46" gradientTransform="matrix(3.5206 0 0 .26302 -608.86 18.482)" gradientUnits="userSpaceOnUse" xlink:href="#c"/><radialGradient id="f" cx="117.2" cy="126.46" r="43" gradientTransform="matrix(-2.4172 .85548 .60767 1.717 276.64 -137.51)" gradientUnits="userSpaceOnUse" xlink:href="#b"/></defs><g id="bh" transform="translate(-10.667 -9.2952)"><g id="bi" transform="matrix(.15365 0 0 .15365 7.1083 4.3353)" enable-background="new"><g id="bj"><g id="bk" transform="matrix(-.93232 .36164 .36164 .93232 121.95 -121.15)" enable-background="new"><path id="bl" d="m155.53 130.16-114.5 32.312 36.969 131.75 100.91-28.469c6.3543-1.4664 14.807-5.306 14.807-5.306l-5.4006-13.506z" color="#000000" enable-background="accumulate" filter="url(#r)" opacity=".15351"/><path id="bm" d="m155.53 130.16-114.5 32.312 36.969 131.75 100.91-28.469c6.3543-1.4664 14.807-5.306 14.807-5.306l-5.4006-13.506z" color="#000000" enable-background="accumulate" filter="url(#p)" opacity=".28509"/></g><g id="bn" transform="translate(53.918 -49.77)"><path id="bo" d="m96.058 197.62 17.515-31.288-6.9477 1.9613-10.568 29.327z" opacity=".3"/><g id="bp" transform="translate(0 1.0369)"><path id="bq" d="m155.53 130.16-114.5 32.312 36.969 131.75 100.91-28.469c6.3543-1.4664 14.807-5.306 14.807-5.306l-5.4006-13.506z" color="#000000" enable-background="accumulate" filter="url(#q)" opacity=".43421"/><path id="br" d="m155.53 130.16-114.5 32.312 36.969 131.75 100.91-28.469c6.3543-1.4664 14.807-5.306 14.807-5.306l-5.4006-13.506z" color="#000000" enable-background="accumulate" filter="url(#s)" opacity=".5307"/></g><path id="a" d="m193.13 259.04c-36.883 15.179-76.411 23.666-114.78 34.494l-37.309-132.44 114.49-32.311c13.249 42.917 22.718 87.853 37.598 130.25z" color="#000000" enable-background="accumulate" fill="url(#n)"/><path id="bs" d="m177.9 230.93-102.92 29.048-27.015-95.215 102.93-29.05z" color="#000000" enable-background="accumulate" fill="url(#m)"/><path id="bt" d="m155.53 128.79-114.49 32.311 37.309 132.44c38.368-10.828 77.897-19.316 114.78-34.494-14.879-42.4-24.349-87.335-37.598-130.25z" clip-path="url(#y)" color="#000000" enable-background="accumulate" fill="none" filter="url(#t)" opacity=".22807" stroke="#000" stroke-width=".76326" xlink:href="#a"/><path id="bu" d="m63.381 221.34 0.63117-0.67134 0.99513-4.1825 2.7035 2.6365 3.0877-1.1275-0.09797-2.8952 3.1538 2.5076 4.375-0.0344 2.0934 4.76 2.6692-1.7385-3.898-11.064 18.527-5.0599 2.126 5.725 4.503-1.289-0.83788-2.927 3.2166-0.67716 1.6113 5.6288 7.7213 1.4437-4.1541-8.5549 4.2435-5.5996-0.8396-6.3369 2.3512 5.6606 7.3999 2.0229 2.5798 12.416s3.8284 0.60928 2.9914-0.61273c-0.83701-1.222-3.0593-6.4323-3.0593-6.4323l5.9828-1.2254-4.6732-17.176 3.2484-1.4171-3.3214-15.858 5.4122 15.503 3.2819 1.2529 1.6775 9.2638 6.5938-1.6439 1.741 7.784 3.3773-0.96677s-4.7969-7.3964-3.446-7.7832c1.3509-0.38672 6.3687-1.5795 6.3687-1.5795l2.481 7.8158 7.8158-2.481-1.3879-9.1031-4.7986-10.806 3.3755-4.3767 16.693 58.314-103.19 29.61z" color="#000000" enable-background="accumulate" fill="#5d1616"/><path id="bv" transform="matrix(1.3825 0 0 1.3825 -30.206 -31.335)" d="m120.75 120.5-12.5 40.75s19.5 13.75 28.75 15.25 14.25 1.5 14.25 1.5l-17.25-61.25zm-55.5 15 36.75 23 14.75-37.25z" color="#000000" enable-background="accumulate" fill="url(#g)" opacity=".26316"/><path id="bw" transform="matrix(1.3825 0 0 1.3825 -32.28 -30.644)" d="m63 173.5 16.5 58 60-16c-29.159-3.633-55.329-15.734-76.5-42z" color="#000000" enable-background="accumulate" fill="#fff" filter="url(#d)" opacity=".26316"/></g><path id="bx" transform="matrix(1.3825 0 0 1.3825 -30.206 -31.335)" d="m91 103.75 81.75-23.25-0.5 1.5-79.25 22 23.25 89.25z" color="#000000" enable-background="accumulate" fill="#fff"/><g id="by" transform="matrix(-.93232 .36164 .36164 .93232 121.57 -122.12)"><path id="bz" d="m96.058 197.62 17.515-31.288-6.9477 1.9613-10.568 29.327z" opacity=".3"/><path id="ca" transform="translate(.81726 .42443)" d="m155.53 128.79-114.49 32.311 36.963 131.74 115.69-31.701z" color="#000000" enable-background="accumulate" filter="url(#o)" opacity=".49561" xlink:href="#h"/><path id="h" d="m193.69 261.14-115.69 31.702-36.964-131.75 114.49-32.311z" color="#000000" enable-background="accumulate" fill="url(#l)"/><path id="cb" transform="matrix(1.3825 0 0 1.3825 -32.28 -30.644)" d="m63 173.5 16.5 58 60-16c-29.159-3.633-55.329-15.734-76.5-42z" color="#000000" enable-background="accumulate" fill="#fff" filter="url(#d)" opacity=".26316"/><g id="cc" transform="matrix(-1.0339 .29618 .29618 1.0339 -77.891 123.33)" enable-background="new"><rect id="cd" x="-201.64" y="69.588" width="100.23" height="88.481" rx="0" ry="0" fill="url(#k)"/><g id="ce" transform="matrix(1.3825 0 0 1.3825 -317.77 -520.74)" clip-path="url(#z)"><circle id="cf" transform="matrix(1.7131 0 0 1.3785 -77.804 -183.18)" cx="110.79" cy="483.03" r="14.01" fill="#b6cee7" filter="url(#u)"/><g id="cg"><circle id="ch" transform="matrix(1.1421 0 0 1.1421 -14.536 -68.656)" cx="110.79" cy="483.03" r="14.01" fill="#b6cee7"/><circle id="ci" transform="matrix(.99486 0 0 .99486 1.775 2.4562)" cx="110.79" cy="483.03" r="14.01" fill="#e0eaf5" filter="url(#w)"/></g></g><path id="cj" transform="matrix(1.3825 0 0 1.3825 -203.02 68.206)" d="m29 47.937c-5.0025 0-9.0625 4.06-9.0625 9.0625 0 0.2919 0 0.5902 0.031 0.875h18.062c0.027-0.2848 0.031-0.5831 0.031-0.875 0-5.0025-4.06-9.0625-9.0625-9.0625h-1e-4z" fill="#fff" filter="url(#v)"/><path id="ck" d="m-201.64 148.56c24.68-4.7164 44.84-0.23033 66.779-0.17282l34.144-2.4194v12.097h-100.92z" fill="url(#j)"/><path id="cl" d="m-195.55 76.198c6.8463 4.3635 13.96 3.2627 19.096 8.6838 0.28825 0.30443 0.5743 0.57153 0.86407 0.86407-1.2613 0.01825-4.6476-0.8913-8.0358-0.30236-2.8203 0.4901-5.5661-0.76633-8.8999 1.4256 3.8829-1.6271 6.9937-0.57582 10.11-0.99361 2.4291-0.32572 6.7183 0.83739 9.4615 2.4194 4.4229 4.0369 8.3894 6.9173 9.2024 9.7207 1.0391 3.5825 1.2866 14.07 1.3392 18.405-0.46964-0.37881-0.91328-0.78043-1.3392-1.2097-0.95269-0.98601-1.8632-2.0429-2.9811-2.8514-1.0741-0.77891-2.188-1.4945-3.0674-2.5058-0.91923-1.24-2.0006-2.3461-3.0242-3.4994-0.97592-0.99873-2.0136-1.931-2.9378-2.9811-0.85094-1.0471-1.8472-1.9676-3.0242-2.6354-1.0726-0.65351-2.1882-1.3871-3.4996-1.3394-0.656-0.10936-1.3256-0.26434-1.8146-0.73439-0.82619-0.61079-1.8309-0.98628-2.8514-1.0802l0.17281 0.08641c1.2593 0.33858 2.3251 1.1357 3.3267 1.9442 1.14 0.56821 2.5856 0.47157 3.4994 1.4689 0.97412 1.0287 2.4342 1.581 3.1539 2.8514 0.2895 0.48416 0.62172 0.91882 0.99361 1.3392-0.97232 0.38573-1.9065 1.7447-2.5922 2.2034-1.7945 1.2004-6.3721-3.7984-10.369-3.3267 2.8832-0.0648 7.9566 3.468 8.9432 3.7588 0.77199 0.22756-2.3038 2.9082-4.666 4.1907 2.0978-0.59628 5.4987-3.4801 6.1349-3.6291 0.79867-0.18691 1.6066-2.692 3.3699-2.333 0.36899 0.39043 0.74628 0.79163 1.08 1.2097 0.95822 1.0789 1.9159 2.1295 2.7219 3.3267 1.1774 1.468 2.7024 2.5962 3.9747 3.9747 1.0329 1.0788 1.9288 2.2752 2.8946 3.413 1.2903 1.5552 2.5982 3.1109 3.8883 4.666 0.58272 1.2065 1.4265 2.2264 2.2898 3.2403 0.9202 1.0507 1.8105 2.1537 2.5058 3.3699 0.82827 1.2324 1.5394 2.5458 2.0738 3.9314 0.42623 1.311 0.669 2.6565 0.86407 4.018 0.26337 1.4337 0.48209 2.902 0.34563 4.3635-0.20157 2.1726-0.42374 4.3497-0.60485 6.5238-0.0304 1.0843-0.16783 2.2415 0.34563 3.2402 1.2245 0.77517 2.6876 0.95642 4.1043 1.0369 1.1972-0.0326 2.3869-0.31051 3.4131-0.95048 0.44102-0.22438 0.87638-0.68392 0.64799-1.2097-0.25798-1.4066-0.55702-2.8084-0.69126-4.234-0.18581-1.5936-0.35904-3.195-0.47517-4.7955-0.13687-1.514-0.2053-3.0175-0.25922-4.5364 0.0442-1.3851 0.10645-2.8146 0.51844-4.1475 0.4489-1.3026 0.90126-3.0186 1.7281-4.1043 1.1762-1.4417 2.9257-2.0962 4.2771-3.3699 1.1395-0.99182 2.3346-1.9214 3.4132-2.9811 1.0492-0.98573 2.2585-3.0014 3.1971-4.1043 1.054-1.115 2.0598-1.2422 3.0674-2.2466 0.26226-0.17931 0.536-0.35655 0.82093-0.51844 0.73149-0.37038 1.4393-0.79619 2.3761-0.86408 0.96818 0.0549 1.9272-0.26281 2.8947-0.12954 0.9679 0.0773 1.423 1.0077 2.4625 0.90721 0.91992-0.17033 1.8694-0.16618 2.8083-0.0864-0.2978-0.11544-0.6166-0.21346-0.95048-0.25922-0.67716-0.12498-1.36 0.10479-2.0306 0.0433-0.87375-0.0747-1.1487-0.76923-1.901-0.99361-0.91578-0.16024-1.8794 0.14004-2.8082 0.0864-0.74407-0.1019-1.459 0.0629-2.2034 0.0433 1.0564-1.553 1.9954-3.3833 3.1107-4.666 1.8523-1.7208 4.1296-3.4317 5.5733-4.1044 1.9243-0.89656 3.2967 0.21872 5.8324-1.0369-2.8199 1.1899-4.5353-0.38323-7.863 1.5553-1.8336 1.0542-3.0587 1.6405-4.1043 2.3763-2.1956-1.8596-0.97398-8.3804-2.8947-12.14 0.11475-0.13244 0.17282-0.28659 0.17282-0.47517 2.1349-0.91011 5.3301-0.86518 7.3879-0.47531 2.5015 0.47406 1.5799 0.96403 2.8514 1.0369 1.1175 0.06415 3.06 1.1523 4.6227 1.7714 1.6904 0.66955 2.1269-0.02917 5.3141 1.6849-2.2883-1.5491-4.6302-1.5653-4.9685-1.9441 1.0309-3.3588 5.2482-3.9919 6.999-7.1718-2.4392 3.5844-5.6032 3.2348-7.3013 7.0421-1.6957-0.47558-3.3769-1.2344-4.2339-1.7713 2.0709-2.5919-2.3316-9.9398-2.4627-12.443-0.15277 3.3361 3.9136 8.0836 1.7281 12.183-4.3795-1.7402-7.9497-1.0907-10.282-0.56172-0.0871-0.05876-0.19493-0.11115-0.30235-0.12954-1.9146-2.8218-1.3173-4.9018-3.4563-7.9926 1.1887 2.8137 1.425 5.8266 2.5922 8.2518 0.0276 0.05793 0.0594 0.11433 0.0871 0.17281-0.0525 0.10355-0.0871 0.22134-0.0871 0.34563 0 0.31314 0.20392 0.57651 0.47517 0.69126 1.2791 3.7615 0.80531 8.4781 1.1233 11.967-3.2342-5.3077-7.1284-5.395-9.3751-14.171 1.8651 10.741 10.27 11.701 8.1223 18.448-1.6441 1.7134-4.3096 4.6121-5.5733 5.8757-1.0546 0.93831-2.2062 1.7536-3.3699 2.5491-1.2116 0.90402-1.1016 1.5667-2.3761 2.3761-0.9502 0.63969-3.108 1.3298-3.9316 1.9874-1.0771 0.86007-1.6733 2.032-2.5922 3.1971-0.48955 0.6625-1.7136 0.8497-2.1602 1.7281-0.45471-1.8419-1.7782-5.2657-4.2771-6.6965-1.2351-0.70729-2.6197-1.989-3.6291-3.0675-0.22452-0.23475-0.44434-0.43853-0.69126-0.64798-1.7164-4.1485-1.9011-9.2754-2.2898-13.912 0.1341-0.12747 0.24097-0.26379 0.3889-0.3889 0.74199-0.55992 1.4259-1.188 2.6786-1.5553 1.3875-0.27194 2.2708 0.46369 3.7155 0.25922 1.4037-0.25259 2.5604-1.4717 3.9314-1.901 1.1527-0.44974 2.8687-0.19107 4.2339-0.43204-1.5871 0.0774-3.1314-0.20461-4.666 0.25922-1.2709 0.22397-2.0269 1.5437-3.2402 1.5986-1.393 0.1641-2.2542-0.56254-3.586-0.30249-1.1107 0.15774-2.0172 0.54927-3.0674 0.77766-0.13273-0.0845-0.57084 0.0686-0.56172-0.0864-0.0857-0.78208-0.1771-1.5586-0.30235-2.2897-0.0829-5.3872 5.9082-3.5533 7.1285-4.4932 0.80379-0.61895 5.329-4.216 9.332-5.0549-4.7491 0.85674-9.5382 4.4739-9.0727 3.3267 0.59503-1.466 1.0513-10.947 3.9316-14.344-4.4691 4.338-2.6785 14.651-5.919 15.64-1.5889 0.48471-5.4583-0.01466-6.1349 1.901-0.14489-0.41323-0.2931-0.79163-0.47517-1.1666-1.1729-2.4148-4.4352-5.0723-7.9063-8.079-0.34162-1.6912 2.3622-2.2307 2.6355-2.9378 0.21152-0.5472 3.3479-3.3025 4.1475-5.098-1.4956 1.9717-4.3952 4.4558-4.5364 3.7586-0.18042-0.89089-3.0855-5.6364-2.7218-8.1654-0.8761 3.4745 3.4734 7.8955 2.1169 9.3751-0.55895 0.60969-2.1681 1.3835-2.5058 2.2899-1.6771-1.4735-3.3446-3.0144-4.8819-4.7093-4.4947-4.9549-7.9432-2.8089-19.787-7.8198v-2.76e-4z" fill-rule="evenodd"/><path id="cm" d="m-137.02 149.6c-1.0893 0.0664-2.1748 0.22535-2.811 0.86407 0.0252 0.82315 0.63823 1.7851 1.1312 2.6786 0.99606 1.6456 2.004 3.2803 3.0167 4.9252h5.4507c-0.46863-1.0586-0.90183-2.143-1.337-3.1971-0.51043-1.1749-0.89865-2.34-1.3027-3.4994-0.0461-0.43328-0.5813-0.80877-1.0284-0.99375-1.0912-0.52743-2.1555-0.7507-3.1195-0.77766z" fill="url(#i)" fill-rule="evenodd" opacity=".7973"/><path id="cn" transform="matrix(1.3825 0 0 1.3825 -305.33 -522.13)" d="m80.406 432.78c4.9521 3.1562 10.098 2.36 13.812 6.2812 0.16682 0.1761 0.33306 0.33512 0.5 0.5 0.47081 0.0642 0.86634 0.12875 1.125 0.125-0.20957-0.21165-0.41647-0.40488-0.625-0.625-3.0182-3.186-6.9951-3.2672-11.031-4.875-0.03474-0.0138-0.059-0.0484-0.09375-0.0625-1.1018-0.36006-2.2936-0.75403-3.6875-1.3438zm18.125 0.625c-0.63373 2.5132 2.5124 5.711 1.5312 6.7812-0.28982 0.31612-0.95433 0.69532-1.4062 1.125 0.12002 0.10757 0.25465 0.20603 0.375 0.3125 0.45504-0.64981 1.6018-0.96015 1.75-1.3438 0.0395-0.1023 0.21224-0.3176 0.46875-0.59375 7e-3 -0.15893-0.013-0.33834-0.0625-0.53125-0.36749 0.24581-0.65336 0.32478-0.6875 0.15625-0.13053-0.6444-2.2318-4.077-1.9688-5.9062zm15.125 3c-3.2326 3.1378-1.9374 10.598-4.2812 11.312-0.87305 0.26631-2.6774 0.13373-3.7188 0.65625 0.10564 0.23081 0.1924 0.46561 0.28125 0.71875 0.48934-1.3856 3.2882-1.0244 4.4375-1.375 0.40212-0.12266 0.70836-0.4424 0.9375-0.90625-0.37324 0.16279-0.58924 0.18863-0.5-0.0313 0.43039-1.0604 0.76035-7.918 2.8438-10.375zm-9.875 0.1875c-0.65633 0.8653-1.6747 1.8648-2.4062 2.4062 0.035 0.0884 0.11425 0.25945 0.125 0.3125 6e-3 0.0315 0.01 0.0483 0.0313 0.0625 0.76016-0.80336 1.8677-1.9229 2.25-2.7812zm31.156 1.2812c-0.10681 2.3307 2.612 5.6066 1.375 8.5 0.1879 0.0583 0.37002 0.14826 0.5625 0.21875 1.0309-2.0776-1.8472-6.9922-1.9375-8.7188zm-44.094 1.4375c-0.58853-2e-3 -1.1998 0.0498-1.8125 0.15625-0.24454 0.0425-0.47494 0.0811-0.71875 0.0937 0.57324 0.0163 1.1476 6e-3 1.7188-0.0937 0.3802-0.0661 0.75059-0.10454 1.125-0.125-0.10937-3e-3 -0.20125-0.031-0.3125-0.0313zm-4.9062 0.21875c-1.0529 0.0153-2.138 0.17596-3.3438 0.96875 0.73581-0.30835 1.4245-0.46615 2.0938-0.5625 0.66231-0.25997 1.291-0.37458 1.9062-0.40625-0.21749-6e-3 -0.43522-3e-3 -0.65625 0zm5.6875 0.21875c-0.16769-2e-3 -0.31622 0.0195-0.46875 0.0313 1.7515 0.14017 4.0198 0.84237 5.5938 1.75 3.1991 2.92 6.0681 5.0034 6.6562 7.0312 0.69343 2.3908 0.87982 8.899 0.9375 12.375 0.0202 0.021 0.0422 0.0415 0.0625 0.0625 0.30813 0.3105 0.62898 0.60098 0.96875 0.875-0.0381-3.1355-0.21719-10.721-0.96875-13.312-0.58814-2.0278-3.4571-4.1112-6.6562-7.0312-1.7362-1.0012-4.327-1.7624-6.125-1.7812zm-4.5 0.0625c0.65921 0.0186 1.3013 0.0547 1.9375 0.0313-0.6308-0.0149-1.2724-0.0416-1.9375-0.0313zm38.906 0.59375c0.85981 2.0352 1.0308 4.2145 1.875 5.9688 0.0201 0.0419 0.0431 0.0827 0.0625 0.125-0.0386 0.0749-0.0625 0.16002-0.0625 0.25 0 0.22641 0.14749 0.41694 0.34375 0.5 0.75795 2.229 0.68188 4.8991 0.75 7.1875 0.35884 0.43277 0.71896 0.90498 1.0625 1.4688-0.081-0.88874-0.10567-1.8975-0.125-2.9375-0.22118-1.9088-0.22993-4.2452-1.0625-5.875 0.0353-0.0409 0.0733-0.0777 0.0937-0.125-4e-3 -8e-3 4e-3 -0.0227 0-0.0313-0.0255-0.0612-0.0625-0.11723-0.0625-0.1875 0-0.09 0.024-0.17511 0.0625-0.25-0.0194-0.0423-0.0424-0.0831-0.0625-0.125-0.0198-0.0411-0.0434-0.0834-0.0625-0.125-0.0287 6e-3 -0.0655 0.0249-0.0937 0.0313-0.0628-0.0425-0.14103-0.0804-0.21875-0.0937-1.3849-2.0411-0.95284-3.5457-2.5-5.7812zm19.031 2.6562c-1.6976 2.4946-3.8682 2.3737-5.125 4.8125 0.0526 0.0186 0.10315 0.0444 0.15625 0.0625 0.89869-2.1647 3.7578-2.6757 4.9688-4.875zm-27.688 1.3125c-2.1947 0.39587-4.2804 1.5497-5.5 2.1562-0.0203 0.0759-0.0419 0.19937-0.0625 0.25-0.0928 0.22874 0.15792 0.18098 0.5625 0 1.3537-0.92023 3.2081-2.0307 5-2.4062zm4.9062 1.2812c1.3491 7.7694 7.4282 8.4637 5.875 13.344-1.1892 1.2392-3.1172 3.336-4.0312 4.25-0.76285 0.67868-1.5958 1.2684-2.4375 1.8438-0.87643 0.65389-0.79689 1.1332-1.7188 1.7188-0.68733 0.46263-2.2481 0.96188-2.8438 1.4375-0.77914 0.62211-1.2104 1.4697-1.875 2.3125-0.17709 0.23959-0.47526 0.38932-0.78125 0.5625 0.0747 0.23312 0.17111 0.49452 0.21875 0.6875 0.32292-0.63542 1.2083-0.77083 1.5625-1.25 0.66464-0.84278 1.0959-1.6904 1.875-2.3125 0.59567-0.47562 2.1564-0.97487 2.8438-1.4375 0.92186-0.58556 0.84232-1.0649 1.7188-1.7188 0.84169-0.5754 1.6746-1.1651 2.4375-1.8438 0.91403-0.91403 2.842-3.0108 4.0312-4.25 0.39409-1.2382 0.2929-2.2106-0.0937-3.0938-5e-3 -8e-3 5e-3 -0.0235 0-0.0313-2.3367-3.8163-5.1595-3.8839-6.7812-10.219zm9.625 0.21875c-0.92497 6e-3 -1.6987 0.11176-2.4062 0.25 0.0135 0.0204 0.0173 0.042 0.0313 0.0625 0.0777 0.0133 0.1559 0.0513 0.21875 0.0937 0.73442-0.16654 1.6394-0.32515 2.6875-0.375-0.17873-7e-3 -0.35939-0.0323-0.53125-0.0313zm0.78125 0.34375c-0.0732 3e-3 -0.1456 0.0269-0.21875 0.0313 0.67709 0.016 1.3376 0.0544 1.875 0.15625 1.8094 0.34285 1.1428 0.69721 2.0625 0.75 0.8083 0.0464 2.2134 0.8335 3.3438 1.2812 1.2226 0.48428 1.5383-0.0211 3.8438 1.2188-1.6552-1.1205-3.3491-1.1322-3.5938-1.4062 0.0129-0.0419 0.017-0.0842 0.0313-0.125-0.0649-0.0291-0.12217-0.0641-0.1875-0.0937-0.0207 0.0437-0.0423 0.0797-0.0625 0.125-1.0067-0.2824-1.9875-0.7062-2.6562-1.0625-0.18654-0.0477-0.28433-0.1223-0.40625-0.21875-0.0974-0.077-0.24506-0.15717-0.5-0.25-0.0108 0.0211-0.02 0.0415-0.0313 0.0625-0.24588-0.0977-0.48007-0.17228-0.71875-0.25-0.0468-0.01-0.0744-0.0217-0.125-0.0313-0.74419-0.14102-1.6994-0.22641-2.6562-0.1875zm-46.062 2.0312 0.125 0.0625c0.9109 0.24481 1.6818 0.8215 2.4062 1.4062 0.82464 0.41098 1.8702 0.34115 2.5312 1.0625 0.70456 0.74408 1.7606 1.1436 2.2812 2.0625 0.20942 0.35023 0.44974 0.66458 0.71875 0.96875-0.70331 0.27896-1.3791 1.262-1.875 1.5938-0.0184 0.0123-0.0433 0.0207-0.0625 0.0313 0.26674 0.0829 0.5096 0.12431 0.71875 0.0937 0.35283-0.4495 0.78212-0.98745 1.375-1.0938 0.27247-0.26266 0.5507-0.50877 0.84375-0.625-0.26901-0.30417-0.50933-0.61852-0.71875-0.96875-0.5206-0.91893-1.5767-1.3184-2.2812-2.0625-0.66103-0.72135-1.7066-0.65152-2.5312-1.0625-0.06827-0.0551-0.14958-0.10156-0.21875-0.15625-0.45456-0.0788-0.91165-0.20596-1.25-0.53125-0.59769-0.44175-1.3243-0.71337-2.0625-0.78125zm28.312 3.0625c-0.5615-2e-3 -1.1325 0.0198-1.6875 0.1875-0.8619 0.15181-1.4009 0.98682-2.1875 1.125 0.15712 0.0284 0.29573 0.0585 0.46875 0.0625 8e-3 -4e-3 0.0232 4e-3 0.0313 0 0.66399-0.34171 1.299-0.84303 2-1.0625 0.29196-0.11393 0.63652-0.16173 1-0.1875 0.45253-0.0986 0.91776-0.12668 1.375-0.125-0.33672-5e-3 -0.66726 1e-3 -1 0zm-6.2812 1.0938c-0.11119 4e-3 -0.22334 8e-3 -0.34375 0.0313-0.58666 0.0833-1.0979 0.25436-1.625 0.40625 3e-3 0.0315-3e-3 0.0623 0 0.0937-7e-3 0.11209 0.31024 1e-3 0.40625 0.0625 0.72887-0.15857 1.3651-0.40917 2.125-0.53125-0.18386-0.0329-0.36151-0.0695-0.5625-0.0625zm0.75 0.375c-0.11556 5e-3 -0.24955 7e-3 -0.375 0.0313 0.5303 0.0941 1.0274 0.28089 1.6875 0.1875 0.0423-8e-3 0.0833-0.0213 0.125-0.0313-0.48738-0.0785-0.91748-0.20805-1.4375-0.1875zm-23.562 0.1875c-0.18337-8e-3 -0.35057 0.01-0.53125 0.0313 2.0854-0.0469 5.7552 2.5084 6.4688 2.7188 0.55836 0.16459-1.6664 2.1036-3.375 3.0312 1.3278-0.37746 3.3876-2.0227 4.1875-2.5 0.01714-0.0102 0.01528-0.0221 0.03125-0.0313 0.21446-0.26888 0.31472-0.45329 0.15625-0.5-0.0892-0.0263-0.23354-0.0976-0.40625-0.1875-1.4003 0.064-4.066-2.4613-6.5312-2.5625zm53.781 0.0625c-0.88641 0.37401-1.6291 0.38336-2.375 0.375 0.46305-0.0347 0.90399-0.0303 1.3438-0.0313 0.31369-0.0695 0.65846-0.15916 1.0312-0.34375zm-2.375 0.375c-0.97055-0.0109-1.9515-0.0429-3.3125 0.75-0.98526 0.56636-1.6858 0.93652-2.3125 1.3125 0.1001 0.15403 0.21261 0.29518 0.34375 0.40625 0.43285-0.30459 0.95516-0.58877 1.5312-0.90625 0.0447-0.0331 0.0806-0.0614 0.125-0.0937 0.66035-0.48117 1.292-0.8658 1.7812-1.0938 0.34797-0.16212 0.68254-0.22024 1-0.25 0.018-4e-3 0.0446 4e-3 0.0625 0 0.27556-0.0643 0.52793-0.10604 0.78125-0.125zm-41.406 1.0312c-0.15346 0.0275-0.30526 0.0776-0.4375 0.15625 0.22223 0.23657 0.45596 0.46782 0.65625 0.71875 0.69303 0.78032 1.3858 1.5403 1.9688 2.4062 0.85162 1.0618 1.9547 1.8779 2.875 2.875 0.7471 0.7803 1.3951 1.6458 2.0938 2.4688 0.93323 1.1249 1.8793 2.2501 2.8125 3.375 0.42144 0.87267 1.0317 1.6104 1.6562 2.3438 0.66563 0.75999 1.3096 1.5578 1.8125 2.4375 0.59909 0.89138 1.1135 1.8414 1.5 2.8438 0.30827 0.94828 0.48395 1.9214 0.625 2.9062 0.19051 1.037 0.34872 2.0991 0.25 3.1562-0.14578 1.5715-0.30651 3.1462-0.4375 4.7188-0.0217 0.7843-0.12135 1.6214 0.25 2.3438 0.88575 0.56065 1.944 0.69175 2.9688 0.75 0.15421-4e-3 0.31552-0.0153 0.46875-0.0313-0.85535-0.0774-1.7021-0.25325-2.4375-0.71875-0.37135-0.7224-0.27171-1.5594-0.25-2.3438 0.13099-1.5726 0.29172-3.1472 0.4375-4.7188 0.0987-1.0572-0.0595-2.1192-0.25-3.1562-0.14105-0.9848-0.31673-1.958-0.625-2.9062-0.3865-1.0023-0.90091-1.9524-1.5-2.8438-0.50293-0.87969-1.1469-1.6775-1.8125-2.4375-0.62451-0.73339-1.2348-1.4711-1.6562-2.3438-0.93322-1.1249-1.8793-2.2501-2.8125-3.375-0.69869-0.823-1.3466-1.6884-2.0938-2.4688-0.92026-0.99713-2.0234-1.8132-2.875-2.875-0.58298-0.86596-1.2757-1.6259-1.9688-2.4062-0.24141-0.30245-0.51438-0.59268-0.78125-0.875-0.15942-0.0325-0.29833-0.0249-0.4375 0zm36.406 5.5625c-0.27801 6e-3 -0.56326 0.0349-0.84375 0.0625 0.10242 2e-3 0.20882 0.017 0.3125 0.0313 0.3359 0.0194 0.69022-0.0275 1.0312-0.0625-0.1656-0.029-0.331-0.0347-0.5-0.0313zm-2.0938 0.0625c-0.0128 0.019-0.0184 0.0436-0.0313 0.0625 0.19686 5e-3 0.40053-0.0167 0.59375-0.0313-0.19023-0.0261-0.37567-0.039-0.5625-0.0313zm2.7812 0.21875c-0.14219 6e-3 -0.2642 0.0468-0.40625 0.0625 0.65402 0.0921 0.99171 0.6953 1.7188 0.625 0.16682-0.0309 0.33094-0.0464 0.5-0.0625-0.11167-0.0407-0.21151-0.0958-0.3125-0.15625-0.10595 5e-3 -0.20725 0.01-0.3125 0-0.40936-0.035-0.64885-0.24056-0.90625-0.4375-0.0927-4e-3 -0.18865-0.0352-0.28125-0.0313zm2.2812 0.40625c-0.072 1e-3 -0.14679 0.0254-0.21875 0.0313 0.0432 9e-3 0.0772 0.0272 0.125 0.0313 0.15833 0.0145 0.30899-0.0171 0.46875-0.0313-0.12245-0.0226-0.25224-0.0334-0.375-0.0313zm0.96875 0.1875c-0.0641 2e-3 -0.12357 0.0276-0.1875 0.0313 0.0927 6e-3 0.18873-8e-3 0.28125 0-0.0298-0.0116-0.0634-0.0202-0.0937-0.0313z" clip-path="url(#aa)" fill="#729fcf" fill-rule="evenodd" filter="url(#x)" opacity=".49153"/><path id="co" d="m-201.64 148.56c24.68-4.7164 44.84-0.23033 66.779-0.17282l34.144-2.4194v12.097h-100.92z" fill="url(#e)"/></g><path id="cp" d="m65.722 159.81 40.178 49.037c-1.0211 4.8089-33.127 39.785-33.127 39.785l-24.944-84.296zm77.732-22.588c-0.26874 31.039-19.843 43.995-30.873 64.955l-39.506-44.107z" color="#000000" enable-background="accumulate" fill="url(#f)" opacity=".26316"/></g></g></g></g></svg>
