<?xml version="1.0" encoding="UTF-8"?>
<svg viewBox="0 0 48 48" xmlns="http://www.w3.org/2000/svg"><defs><linearGradient id="a" x1="543.8" x2="503.8" gradientTransform="matrix(0 1-1.16667 0-452.67-499.8)" gradientUnits="userSpaceOnUse"><stop stop-color="#197cf1" offset="0"/><stop stop-color="#21c9fb" offset="1"/></linearGradient><linearGradient id="b" x1="384.57" x2="394.57" y1="547.8" y2="530.48" gradientUnits="userSpaceOnUse"><stop stop-color="#fff" stop-opacity="0" offset="0"/><stop stop-color="#fff" stop-opacity=".314" offset="1"/></linearGradient><linearGradient id="c" x1="384.57" x2="414.57" gradientUnits="userSpaceOnUse"><stop stop-opacity=".275" offset="0"/><stop stop-color="#fff" stop-opacity="0" offset="1"/></linearGradient><linearGradient id="d" x1="432.57" x2="421.02" y1="547.8" y2="527.8" gradientUnits="userSpaceOnUse"><stop stop-opacity=".082" offset="0"/><stop stop-opacity="0" offset="1"/></linearGradient><linearGradient id="e" x2="0" y1="44" y2="20" gradientUnits="userSpaceOnUse"><stop stop-color="#eef1f2" offset="0"/><stop stop-color="#f9fafb" offset="1"/></linearGradient><linearGradient id="f" x2="0" y1="523.8" y2="507.8" gradientTransform="translate(0 4)" gradientUnits="userSpaceOnUse"><stop stop-color="#7cbaf8" offset="0"/><stop stop-color="#f4fcff" offset="1"/></linearGradient><linearGradient id="g" x1="414.57" x2="422.57" y1="511.8" y2="519.8" gradientUnits="userSpaceOnUse"><stop stop-color="#292c2f" offset="0"/><stop stop-opacity="0" offset="1"/></linearGradient></defs><g transform="translate(-384.57-499.8)"><g transform="translate(384.57 499.8)"><path d="m24 8-20 12 20 15 20-15z" fill="#c8cfd3" fill-rule="evenodd"/><path d="m10 4v40h28v-32l-8-8z" fill="url(#a)"/><path d="m4 20v24h40v-24l-16 12h-8z" fill="url(#e)"/></g><g fill-rule="evenodd"><path d="m388.57 543.8 16-12h8l16 12z" fill="url(#c)"/><path d="m428.57 543.8-16-12 16-12z" fill="url(#d)"/><path d="m388.57 543.8 16-12-16-12z" fill="url(#b)"/></g><rect x="388.57" y="542.8" width="40" height="1" fill="#d1d3d4"/><path d="m404.57 511.8c-0.554 0-1 0.446-1 1s0.446 1 1 1 1-0.446 1-1-0.446-1-1-1m7 0-2 2 3 3-3 3 2 2 5-5zm-9.5 6c-0.831 0-1.5 0.669-1.5 1.5s0.669 1.5 1.5 1.5 1.5-0.669 1.5-1.5-0.669-1.5-1.5-1.5m4.5 6c-1.108 0-2 0.892-2 2s0.892 2 2 2 2-0.892 2-2-0.892-2-2-2" fill="url(#f)"/><g fill-rule="evenodd"><path d="m422.57 511.8h-8v-8z" fill="#313437"/><path d="m414.57 511.8h8v8z" fill="url(#g)" opacity=".2"/></g></g></svg>
