<?xml version="1.0" encoding="UTF-8"?>
<svg version="1.1" viewBox="0 0 48 48" xmlns="http://www.w3.org/2000/svg" xmlns:xlink="http://www.w3.org/1999/xlink"><defs><linearGradient id="f" x1="3" x2="-1" y1="507.8" y2="503.8" gradientTransform="matrix(0 1-1 0 422.57 539.8)" gradientUnits="userSpaceOnUse"><stop stop-color="#2f3943" offset="0"/><stop stop-color="#4d5662" offset="1"/></linearGradient><linearGradient id="a" x2="0" y1="-521.8" y2="-518.8" gradientTransform="matrix(1 0 0 1.6667 1.7422e-6 347.87)" gradientUnits="userSpaceOnUse"><stop stop-color="#84cbfe" offset="0"/><stop stop-color="#84cbfe" stop-opacity="0" offset="1"/></linearGradient><linearGradient id="c" x1="408.56" x2="408.57" y1="-521.5" y2="-518.81" gradientTransform="matrix(1 0 0 1.1667 1.7422e-6 85.467)" gradientUnits="userSpaceOnUse" xlink:href="#a"/><linearGradient id="b" x1="408.56" x2="408.57" y1="-521.5" y2="-518.81" gradientTransform="matrix(1 0 0 1.1667 -817.14 1132.1)" gradientUnits="userSpaceOnUse" xlink:href="#a"/><linearGradient id="d" x2="0" y1="509.8" y2="537.8" gradientTransform="matrix(1 0 0 1.0714 -4.0291e-6 -38.414)" gradientUnits="userSpaceOnUse"><stop stop-color="#2e5d89" offset="0"/><stop stop-color="#1b92f4" offset="1"/></linearGradient></defs><g transform="translate(-384.57-499.8)"><path d="m426.57 507.8v-2c0-1.136-0.915-2-2.051-2h-31.898c-1.136 0-2.051 0.864-2.051 2v2z" fill="#d0d5d7"/><rect x="390.57" y="505.8" width="36" height="35.5" rx="0" fill="#d0d5d7" stroke-width=".99938"/><rect x="391.57" y="506.8" width="34" height="32" fill="#eff0f1" stroke-linecap="round" stroke-linejoin="bevel" stroke-width="6.245"/><rect x="392.57" y="507.8" width="32" height="30" fill="url(#d)" stroke-linecap="round" stroke-linejoin="bevel" stroke-width="6.4176"/><path transform="translate(384.57,499.8)" d="m6 40v2c0 1.136 0.915 2 2.051 2h31.898c1.136 0 2.051-0.864 2.051-2v-2z" fill="#d0d5d7"/><g stroke-linecap="round" stroke-linejoin="bevel"><path d="m407.06 510.29 10.017 1e-5 5.0086 5.0064 1e-5 15.019h-15.026z" fill="#eff0f1" stroke="#808080" stroke-linejoin="miter" stroke-width=".97417"/><path d="m395.06 515.29 10.017 1e-5 5.0086 5.0064 1e-5 15.019h-15.026z" fill="#eff0f1" stroke="#808080" stroke-linejoin="miter" stroke-width=".97417"/><rect x="392.57" y="522.8" width="32" height="1" fill="#84cbfe" stroke-width="6.2"/></g><g stroke-linejoin="round" stroke-width="2"><path d="m422.57 539.8h-28v1c0 1.108.892 2 2 2h24c1.108 0 2-.892 2-2z" fill="url(#f)"/><circle transform="matrix(0-1-1 0 0 0)" cx="-541.3" cy="-420.07" r=".5" fill="#11d116" stroke-linecap="round"/></g><g transform="translate(-7.3242e-6 1.2207e-5)" stroke-width="1.0801"><rect transform="scale(1,-1)" x="392.57" y="-523.3" width="32" height="3.5" fill="url(#c)"/><rect transform="scale(-1,1)" x="-424.57" y="523.3" width="32" height="3.5" fill="url(#b)"/></g></g></svg>
