<?xml version="1.0" encoding="UTF-8"?>
<svg id="d" version="1.0" viewBox="0 0 128 128" xmlns="http://www.w3.org/2000/svg" xmlns:xlink="http://www.w3.org/1999/xlink"><defs id="e"><filter id="c" color-interpolation-filters="sRGB"><feGaussianBlur id="f" stdDeviation="1.6574892"/></filter><linearGradient id="b" x1="60.974" x2="103.72" y1="43.582" y2="85.419" gradientTransform="matrix(.95576 0 0 .95576 3.891 3.4636)" gradientUnits="userSpaceOnUse"><stop id="g" stop-color="#d45500" offset="0"/><stop id="h" stop-color="#d45500" stop-opacity=".4133" offset=".86462"/><stop id="i" stop-color="#d45500" offset="1"/></linearGradient><linearGradient id="a" x1="-28.887" x2="114.05" y1="3.0713" y2="55.865" gradientTransform="matrix(.95576 0 0 .95576 1.0349 5.2202)" gradientUnits="userSpaceOnUse"><stop id="j" stop-color="#fff" stop-opacity=".66983" offset="0"/><stop id="k" stop-color="#fff" stop-opacity="0" offset="1"/></linearGradient></defs><g id="l"><g id="m" transform="matrix(1.2354 0 0 1.2354 -16.766 -15.067)"><path id="n" d="m69.094 13.844c-13.976-0.03879-27.302 9.7551-36.781 20.938-3.8109 5.1579-6.53 10.839-8.1562 17.031h-14.594l-3.375 8.5h16.469c-0.26239 2.2828-0.24999 4.5816-0.28125 6.875h-13.969l-3.375 8.5312h17.969c1.7946 12.227 7.2875 22.577 16.031 29.938 4.6538 3.9173 11.462 7.2316 17.125 8.3125 6.1379 0.37259 12.326 0.27861 18.312-1.1562 10.592-3.4315 21.154-13.054 26.25-23.875 1.7248-3.6626 2.6703-6.6947 4.0625-13.219h11.469l3.375-8.5312h-13.531c0.18854-2.2278 0.26534-4.5751 0.28125-6.875h15.969l3.375-8.5h-19.75c-2.1828-13.618-9.7814-24.417-20.344-32.906-5.4834-3.5282-11.062-5.0473-16.531-5.0625z" fill="#000" fill-rule="nonzero" filter="url(#c)"/><path id="o" d="m69.081 13.85c-13.976-0.03879-27.287 9.7547-36.767 20.937-3.8109 5.1579-6.5276 10.832-8.1538 17.024h-14.605l-3.375 8.5122h16.487c-0.26239 2.2828-0.26741 4.5762-0.29867 6.8695h-13.948l-3.375 8.5122h17.95c1.7946 12.227 7.2951 22.597 16.039 29.957 4.6538 3.9173 11.451 7.2223 17.114 8.3032 6.1379 0.37259 12.322 0.27003 18.309-1.1648 10.592-3.4315 21.158-13.043 26.254-23.864 1.7248-3.6626 2.6698-6.7072 4.062-13.231h-18.398l3.4049-8.5122h16.308c0.18854-2.2278 0.28276-4.5697 0.29867-6.8695h-13.859l3.4348-8.5122h10.006c-2.1828-13.618-9.7774-24.424-20.34-32.914-5.4834-3.5282-11.078-5.0324-16.547-5.0476zm36.886 37.962c0.29886 2.4809 0.43933 5.4501 0.41814 8.5122h15.949l3.375-8.5122zm0.11947 15.382c-0.16582 2.8775-0.74613 5.6959-1.3142 8.5122h11.469l3.375-8.5122zm-17.473-40.5c0.04227-0.0052 0.07829-2.3e-5 0.11947 0 0.61765 2.96e-4 1.1262 0.57935 1.583 1.6726 0.61923 1.4821 0.59819 2.6802-0.02987 7.676-0.78309 6.2288-4.4075 23.651-8.5421 41.038-5.0033 21.04-6.896 27.071-9.3784 29.897-2.5889 2.9474-6.2696 2.7078-9.0797-0.56749-2.4096-2.8085-6.7721-8.9734-13.769-19.533-4.8072-7.2552-10.384-15.301-14.307-20.668-1.3074-1.7891-2.4407-3.2992-3.2854-4.3607-4.826-6.0639-5.7805-8.2901-3.9425-9.3187 0.65368-0.36582 2.2227 0.15594 5.854 1.9115 0.58172 0.28124 1.1394 0.53824 1.6726 0.77656 1.0424 0.46589 1.9952 0.83796 2.8673 1.135 0.07338 0.02499 0.13682 0.06583 0.20908 0.0896 0.26042 0.08846 0.53669 0.16724 0.77656 0.23894 0.11402 0.03219 0.24738 0.06089 0.35841 0.0896 1.6148 0.4176 2.9284 0.46411 4.0023 0.11947 0.26846-0.08616 0.50536-0.1926 0.74669-0.32854 0.95932-0.54041 1.7239-1.4766 2.3595-2.8374 0.0038-0.0081-0.0038-0.02167 0-0.02987 0.1006-0.21671 0.20374-0.47868 0.29868-0.71682 0.10992-0.27433 0.21836-0.5844 0.32854-0.89603 0.02423-0.07173 0.06572-0.13573 0.0896-0.20907 0.06027-0.17505 0.11838-0.38054 0.1792-0.56748 0.13468-0.45266 0.26202-0.95506 0.38828-1.4635 0.66362-2.6724 2.1713-4.3905 3.823-4.3905 0.69707 4e-6 2.7814 1.5803 5.3164 4.0023 3.1991 3.0564 5.0928 4.5865 6.8098 5.2268 0.0091 0.0034 0.02074-0.0034 0.02987 0 0.17232 0.0635 0.33778 0.10321 0.50775 0.14934 0.16997 0.04613 0.33784 0.08944 0.50775 0.11947 0.67963 0.12012 1.3805 0.11665 2.1505 0.02987 0.55706-0.06278 1.0939-0.15772 1.6128-0.32854 0.25944-0.08541 0.52299-0.18181 0.77656-0.29868 1.5213-0.70119 2.954-2.0043 4.5697-4.2113 0.80785-1.1035 1.6387-2.4321 2.5686-4.0321 1.2399-2.1333 2.6181-4.7628 4.2113-7.9448 3.9272-7.8437 6.1283-11.285 7.6162-11.469zm-6.2722 19.324c-0.02718 0.0069-0.05584 0.0027-0.0896 0.02987-0.03173 0.02701-0.06062 0.06312-0.11947 0.14934-0.01902 0.0232-0.03841 0.0307-0.05973 0.05974-0.05678 0.08666-0.10353 0.17016-0.1792 0.29867-0.21612 0.367-0.52369 0.89796-0.86616 1.5531-0.68494 1.3103-1.5656 3.1176-2.5089 5.1073-5.3815 11.352-7.4457 13.739-11.857 13.739-2.7925-4e-6 -4.6392-1.1456-7.2578-4.5399-0.31746-0.41149-0.62797-0.80712-0.92589-1.1648-0.59585-0.71543-1.1254-1.279-1.4635-1.583-0.06465-0.0581-0.09933-0.11197-0.14934-0.14934-0.02048-0.01377-0.04075-0.01868-0.05973-0.02987-0.04889-0.03312-0.09037-0.05378-0.11947-0.05973-0.01158-0.0045-0.01885 0.0034-0.02987 0-0.23898 3e-6 -0.70685 1.3263-1.0454 2.9569-0.69724 3.3587-2.744 6.1904-4.4801 6.1826-1.3437-0.0061-5.269-1.8967-9.468-4.5697-0.40183-0.2558-0.773-0.47725-1.135-0.68695-0.25438-0.14737-0.46685-0.27108-0.68695-0.38828-0.11777-0.06158-0.19697-0.09946-0.29868-0.14934-0.14598-0.07415-0.23841-0.12492-0.35841-0.17921-0.06613-0.02864-0.09279-0.03838-0.14934-0.05973-0.09967-0.03763-0.1979-0.07442-0.26881-0.0896-0.15281-0.03272-0.27016-0.03966-0.29868 0.02987 3.32e-4 0.0068-9.96e-4 0.02244 0 0.02987 0.02927 0.20859 0.27916 0.65739 0.65709 1.1947 0.15657 0.2226 0.34324 0.44489 0.53762 0.68695 0.7775 0.9682 3.7071 4.9041 6.5111 8.7512 2.804 3.8471 6.4923 8.8315 8.2136 11.051 1.7213 2.2195 4.7867 6.3281 6.8098 9.1395 0.18453 0.24415 0.18445 0.24805 0.35841 0.47788 1.2788 1.6894 2.1193 2.8046 2.6582 3.4945 0.07608 0.09437 0.13522 0.14836 0.20907 0.23894 0.82291 1.0093 1.5232 1.8158 1.8817 2.1206 0.43188 0.3673 0.86838 0.64279 1.2843 0.83628 0.83183 0.387 1.5992 0.43202 2.2998 0.11947 0.35031-0.15626 0.68496-0.41445 0.98563-0.74668 0.05686-0.06279 0.13579-0.17511 0.20907-0.32854 0.36639-0.76721 0.94208-2.6504 1.7024-5.6151 1.5207-5.9294 3.7874-16.154 6.7202-30.196 1.5555-7.4473 2.5018-12.504 2.8374-15.262 0.1846-1.517 0.17916-2.3236 0-2.4491zm-21.953 22.55c0.90138-7e-6 1.549 1.318 3.7036 7.5266 2.4293 7.0002 4.2424 15.804 3.7036 17.95-0.28924 1.1525-0.66378 1.4336-1.9414 1.4336-2.7988 0-4.125-4.057-6.1527-19.085-0.69462-5.148-0.45232-7.8253 0.68695-7.8253z" fill="url(#b)" fill-rule="nonzero"/><path id="p" d="m92.585 60.23c0.02907-0.08258 0.80262-2.0105 1.719-4.2842l1.6661-4.134 9.9964 0.07932 0.18538 2.2214c0.10196 1.2218 0.19122 3.1318 0.19834 4.2445l0.013 2.0231h-6.9155c-4.28 0-6.8954-0.05722-6.8626-0.15014v-7e-6z" fill="#fff" fill-rule="nonzero"/><path id="q" d="m86.529 75.579c0-0.11091 0.73188-2.0401 1.6264-4.287l1.6264-4.0854 16.264-0.0034-3e-3 0.51569c-5e-3 0.79029-0.42815 3.6146-0.89114 5.9405l-0.41658 2.0926-9.1031 0.01447c-7.264 0.01155-9.1031-0.02625-9.1031-0.18717v-3e-6z" fill="#fff" fill-rule="nonzero"/><path id="r" d="m67.073 108.86c-0.95458-0.22646-2.0684-0.84873-2.9608-1.6542-1.5435-1.3931-6.1728-7.752-11.856-16.285-7.8802-11.832-15.267-22.443-19.423-27.897-4.4228-5.8055-5.4275-7.3919-5.5991-8.8401-0.08366-0.70635-0.05062-0.81179 0.39354-1.256 0.26668-0.26668 0.63843-0.48487 0.82611-0.48487 0.58765 0 2.5661 0.73549 4.9375 1.8355 6.3036 2.924 9.0449 3.4635 11.196 2.2032 1.4165-0.83014 2.4738-2.7168 3.4192-6.1014 0.78169-2.7985 1.841-4.3426 3.2734-4.7718 0.55405-0.16599 0.71411-0.14841 1.3189 0.14491 0.85805 0.41613 2.5261 1.7686 4.8932 3.9674 3.1222 2.9002 4.3437 3.8578 5.9503 4.6648 1.0287 0.51669 1.6293 0.63852 3.0651 0.62181 2.6621-0.031 4.7475-1.1711 6.8307-3.7345 2.04-2.5102 3.2564-4.5721 7.36-12.476 3.6668-7.0625 5.135-9.5673 6.3866-10.896 1.1855-1.2587 1.7419-1.429 2.4276-0.74334 1.7859 1.7859 1.5441 5.838-1.1728 19.652-2.9609 15.055-9.0398 41.228-11.591 49.903-1.9978 6.7942-3.513 9.877-5.5398 11.272-1.2905 0.88787-2.768 1.201-4.1357 0.87656zm3.2594-8.5512c0.48691-0.32223 0.68077-0.61482 1.028-1.5514 1.0617-2.8644 3.016-11.031 6.2609-26.164 3.9072-18.221 5.2541-25.65 4.7982-26.464-0.20905-0.37354-0.43067 0.02555-3.9021 7.0267-3.2186 6.4912-4.5449 8.8855-5.8074 10.484-1.8464 2.3372-3.1352 3.0796-5.5625 3.2041-2.9314 0.15034-4.7327-0.81676-7.2342-3.8842-1.5761-1.9326-3.0423-3.5358-3.2335-3.5358-0.23321 0-0.48128 0.645-1.0294 2.6764-1.0678 3.9576-2.7854 6.3656-4.5417 6.3674-1.1994 0.0013-4.7144-1.6321-8.4817-3.9412-2.9064-1.7814-4.1761-2.3889-4.1761-1.9981 0 0.231 0.51753 0.98698 2.4369 3.5597 1.1394 1.5272 3.8145 5.1331 5.9448 8.013 2.1302 2.8799 5.5393 7.4497 7.5757 10.155 2.0364 2.7054 5.0356 6.704 6.6649 8.8857 3.1892 4.2707 4.8378 6.261 5.6854 6.8641 1.2726 0.90547 2.5055 1.01 3.5739 0.30294z" fill="#fff" fill-rule="nonzero"/><path id="s" d="m64.87 95.223c-1.6442-0.73076-2.7846-3.9644-4.034-11.439-0.98629-5.8999-1.3385-8.9217-1.3499-11.583-0.01231-2.8579 0.13676-3.4525 0.88759-3.5396 0.77584-0.09003 1.3294 0.94194 3.0816 5.7444 3.074 8.4254 5.029 17.999 4.1199 20.174-0.35006 0.83786-1.5986 1.1344-2.7051 0.64261v6e-6z" fill="#fff" fill-rule="nonzero"/><path id="t" d="m69.092 13.858c-13.976-0.03879-27.287 9.7547-36.767 20.937-3.8109 5.1579-6.5276 10.832-8.1538 17.024h-14.605l-3.375 8.5122h16.487c-0.26239 2.2828-0.26741 4.5762-0.29868 6.8695h-13.948l-3.375 8.5122h17.95c0.50206 3.4206 1.2875 6.6919 2.3595 9.7966 5.5199-3.8044 10.918-7.2259 16.218-10.304-2.3191-3.3403-4.521-6.4711-6.3618-8.9901-1.3074-1.7891-2.4407-3.2992-3.2854-4.3607-4.826-6.0639-5.7805-8.2901-3.9425-9.3187 0.65368-0.36581 2.2227 0.15594 5.854 1.9115 0.58172 0.28124 1.1394 0.53824 1.6726 0.77656 1.0424 0.46589 1.9952 0.83796 2.8673 1.135 0.07338 0.02499 0.13682 0.06583 0.20907 0.0896 0.26042 0.08846 0.5367 0.16724 0.77656 0.23894 0.11402 0.03219 0.24738 0.06089 0.35841 0.0896 1.6148 0.4176 2.9284 0.46411 4.0023 0.11947 0.26846-0.08616 0.50536-0.1926 0.74669-0.32854 0.95932-0.54041 1.7239-1.4766 2.3595-2.8374 0.0038-0.0081-0.0038-0.02167 0-0.02987 0.1006-0.21671 0.20374-0.47868 0.29867-0.71682 0.10992-0.27433 0.21836-0.5844 0.32854-0.89603 0.02423-0.07173 0.06572-0.13573 0.0896-0.20907 0.06027-0.17505 0.11839-0.38054 0.1792-0.56748 0.13468-0.45266 0.26202-0.95506 0.38828-1.4635 0.66362-2.6724 2.1713-4.3905 3.823-4.3905 0.69706 3e-6 2.7813 1.5803 5.3164 4.0023 3.1991 3.0564 5.0928 4.5865 6.8098 5.2268 0.0091 0.0034 0.02074-0.0034 0.02987 0 0.17232 0.06351 0.33778 0.10321 0.50775 0.14934 0.16997 0.04613 0.33783 0.08944 0.50775 0.11947 0.67963 0.12012 1.3805 0.11665 2.1505 0.02987 0.55706-0.06278 1.0939-0.15772 1.6128-0.32854 0.25944-0.08541 0.52299-0.18181 0.77656-0.29868 1.5213-0.70119 2.954-2.0043 4.5697-4.2113 0.80785-1.1035 1.6387-2.4321 2.5686-4.0321 1.2399-2.1333 2.6181-4.7628 4.2113-7.9448 3.9272-7.8437 6.1283-11.285 7.6162-11.469 0.04227-0.0052 0.07829-2e-5 0.11947 0 0.61765 2.98e-4 1.1262 0.57936 1.583 1.6726 0.61923 1.4821 0.59819 2.6802-0.02987 7.676-0.43798 3.4837-1.8063 10.623-3.614 19.145 3.133-0.97621 6.1273-1.8363 8.9603-2.5686l0.32854-0.80642h3.0166c2.3755-0.56547 4.6103-1.0522 6.7202-1.4635-2.4768-12.933-9.8888-23.267-20.071-31.451-5.4834-3.5282-11.078-5.0324-16.547-5.0476zm13.261 32.167c-0.02718 0.0069-0.05585 0.0027-0.0896 0.02987-0.03173 0.02701-0.06062 0.06312-0.11947 0.14934-0.01902 0.0232-0.03841 0.0307-0.05973 0.05973-0.05678 0.08666-0.10353 0.17016-0.1792 0.29868-0.21612 0.367-0.52369 0.89796-0.86616 1.5531-0.68495 1.3103-1.5656 3.1176-2.5089 5.1073-1.0902 2.2998-2.0321 4.1458-2.8971 5.7644 1.7648-0.66303 3.4998-1.2951 5.197-1.8817 0.75842-3.8738 1.3008-6.8038 1.5232-8.6317 0.18461-1.517 0.17916-2.3236 0-2.4491zm-25.686 13.411c-0.23898 4e-6 -0.70684 1.3263-1.0454 2.9569-0.69724 3.3587-2.744 6.1904-4.4801 6.1826-1.3437-0.0061-5.269-1.8967-9.468-4.5697-0.40182-0.2558-0.773-0.47725-1.135-0.68695-0.25437-0.14737-0.46685-0.27108-0.68695-0.38828-0.11777-0.06158-0.19697-0.09946-0.29868-0.14934-0.14598-0.07415-0.2384-0.12492-0.35841-0.17921-0.06612-0.02864-0.09279-0.03838-0.14934-0.05973-0.09966-0.03763-0.1979-0.07442-0.26881-0.0896-0.15281-0.03272-0.27016-0.03966-0.29867 0.02987 3.32e-4 0.0068-9.96e-4 0.02243 0 0.02987 0.02927 0.20859 0.27916 0.65739 0.65708 1.1947 0.15657 0.2226 0.34324 0.44489 0.53762 0.68695 0.75186 0.93627 3.5251 4.6701 6.2423 8.3928 5.3765-2.9756 10.608-5.6046 15.651-7.9149-0.69095-0.64235-1.3674-1.4341-2.1505-2.4491-0.31747-0.41149-0.62798-0.80712-0.9259-1.1648-0.59585-0.71543-1.1254-1.279-1.4635-1.583-0.06465-0.0581-0.09933-0.11197-0.14934-0.14934-0.02048-0.01377-0.04074-0.01868-0.05973-0.02987-0.04889-0.03316-0.09037-0.05378-0.11947-0.05973-0.01158-0.0045-0.01885 0.0034-0.02987 0z" fill="url(#a)" fill-rule="evenodd"/><text id="u" transform="matrix(.92447 -.38126 .38126 .92447 0 0)" x="13.407681" y="57.00745" fill="#ffffff" font-family="AlMateen" font-size="11.803px" font-weight="bold" letter-spacing="0px" word-spacing="0px" style="line-height:125%" xml:space="preserve"><tspan id="v" x="13.407681" y="57.00745">$k₹oog€</tspan></text></g></g></svg>
