<?xml version="1.0" encoding="UTF-8"?>
<svg viewBox="0 0 48 48" xmlns="http://www.w3.org/2000/svg" xmlns:xlink="http://www.w3.org/1999/xlink"><defs><linearGradient id="a" x1="29.455" x2="15" y1="44" y2="16" gradientTransform="matrix(1.1 0 0 1.10714-2.4-4.714)" gradientUnits="userSpaceOnUse"><stop stop-color="#197cf1" offset="0"/><stop stop-color="#20bcfa" offset="1"/></linearGradient><linearGradient id="b" x2="0" y1="16" y2="12" gradientTransform="matrix(1.05556 0 0 1-1.333-3)" gradientUnits="userSpaceOnUse"><stop stop-color="#06a370" offset="0"/><stop stop-color="#22d1b0" offset="1"/></linearGradient><linearGradient id="c" x2="0" y1="12" y2="8" gradientTransform="translate(0-2)" gradientUnits="userSpaceOnUse"><stop stop-color="#713e88" offset="0"/><stop stop-color="#9b59b6" offset="1"/></linearGradient><linearGradient id="d" x2="0" y1="4" y2="8" gradientTransform="matrix(.92857 0 0 1 1.714 0)" gradientUnits="userSpaceOnUse"><stop stop-color="#da4453" offset="0"/><stop stop-color="#c0392b" offset="1"/></linearGradient><linearGradient id="e" x2="0" y1="39" y2="23" gradientTransform="translate(0-2)" gradientUnits="userSpaceOnUse"><stop stop-color="#60c0f4" offset="0"/><stop stop-color="#b9e9ff" offset="1"/></linearGradient><linearGradient id="f" x1="19" x2="30" y1="35" y2="46" gradientTransform="translate(0-2)" gradientUnits="userSpaceOnUse"><stop offset="0"/><stop stop-opacity="0" offset="1"/></linearGradient><linearGradient id="g" x1="21.531" x2="2" y1="44.736" y2="14" gradientUnits="userSpaceOnUse" xlink:href="#a"/><linearGradient id="h" x1="41" x2="20.806" y1="46.02" y2="11.02" gradientUnits="userSpaceOnUse" xlink:href="#a"/></defs><g stroke-width="2"><g stroke-linecap="round" stroke-linejoin="bevel"><rect x="11" y="4" width="26" height="7" fill="url(#d)"/><rect x="8" y="6" width="32" height="7" fill="url(#c)"/><rect x="5" y="9" width="38" height="7" fill="url(#b)"/><rect x="2" y="13" width="44" height="31" fill="url(#a)"/></g><g stroke-linejoin="round"><path d="m2 14.5v27l27-13.5z" fill="url(#g)"/><path d="m46 19.5-44 22v2.5h44z" fill="url(#h)"/><path d="m19 23 10 5-10 5z" fill="url(#e)"/></g></g><g fill-rule="evenodd"><path d="m30 44-11-11 10-5 16 16z" fill="url(#f)" opacity=".2"/><rect x="2" y="43" width="44" height="1" fill="#1c5593"/></g></svg>
