<?xml version="1.0" encoding="UTF-8"?>
<svg viewBox="0 0 128 128" xmlns="http://www.w3.org/2000/svg" xmlns:xlink="http://www.w3.org/1999/xlink"><defs><linearGradient id="a" gradientUnits="userSpaceOnUse"><stop stop-color="#424048" offset="0"/><stop offset="1"/></linearGradient><radialGradient id="b" cx="256" cy="-174.13" r="144" gradientTransform="matrix(.56173 0 0 -.56173 -79.802 13.177)" xlink:href="#a"/><linearGradient id="c" gradientUnits="userSpaceOnUse"><stop stop-color="#5e5c64" offset="0"/><stop stop-color="#9a9996" offset="1"/></linearGradient><linearGradient id="d" x1="367.57" x2="461.37" y1="1296.6" y2="1296.6" xlink:href="#c"/><linearGradient id="e" gradientUnits="userSpaceOnUse"><stop stop-color="#c061cb" offset="0"/><stop stop-color="#ed333b" offset="1"/></linearGradient><radialGradient id="f" cx="310.77" cy="-1.7338" r="50" gradientTransform="matrix(1.6273 0 0 -1.6273 -456.65 44.335)" xlink:href="#e"/><radialGradient id="g" cx="331.19" cy="2.2226" r="50" gradientTransform="matrix(1.6273 0 0 -1.6273 -456.65 44.335)" gradientUnits="userSpaceOnUse"><stop stop-color="#1c71d8" offset="0"/><stop stop-color="#c061cb" stop-opacity="0" offset="1"/></radialGradient><filter id="h" x="0%" y="0%" width="100%" height="100%"><feColorMatrix in="SourceGraphic" values="0 0 0 0 1 0 0 0 0 1 0 0 0 0 1 0 0 0 1 0"/></filter><mask id="q"><g filter="url(#h)"><rect width="128" height="128" fill-opacity=".71556"/></g></mask><linearGradient id="j" x1="266.21" x2="318.59" y1="-28.409" y2="-28.409" gradientTransform="matrix(0 -.66414 .66414 0 82.867 260.58)" gradientUnits="userSpaceOnUse"><stop stop-color="#1c71d8" offset="0"/><stop stop-color="#c061cb" offset="1"/></linearGradient><mask id="k"><g filter="url(#h)"><rect width="128" height="128" fill-opacity=".664"/></g></mask><linearGradient id="l" x1="374.71" x2="454.23" y1="1296.6" y2="1296.6" xlink:href="#c"/><radialGradient id="m" cx="256" cy="-174.13" r="144" gradientTransform="matrix(.58333 0 0 -.58333 -85.333 11.222)" xlink:href="#a"/><linearGradient id="n" x1="367.7" x2="461.24" y1="1296.6" y2="1296.6" xlink:href="#c"/><radialGradient id="o" cx="310.77" cy="-1.7338" r="50" gradientTransform="matrix(1.9787 0 0 -1.9787 -569.07 40.089)" xlink:href="#e"/><radialGradient id="p" cx="331.19" cy="2.2226" r="50" gradientTransform="matrix(1.9787 0 0 -1.9787 -569.07 40.089)" gradientUnits="userSpaceOnUse"><stop stop-color="#1c71d8" offset="0"/><stop stop-color="#241f31" offset="1"/></radialGradient><mask id="i"><g filter="url(#h)"><rect width="128" height="128" fill-opacity=".71556"/></g></mask><linearGradient id="r" x1="266.21" x2="318.59" y1="-28.409" y2="-28.409" gradientTransform="matrix(0 .8025 .8025 0 86.798 -173.54)" gradientUnits="userSpaceOnUse"><stop stop-color="#3584e4" offset="0"/><stop offset="1"/></linearGradient><mask id="s"><g filter="url(#h)"><rect width="128" height="128" fill-opacity=".664"/></g></mask><mask id="t"><g filter="url(#h)"><rect width="128" height="128" fill-opacity=".71556"/></g></mask><linearGradient id="u" x1="-58.316" x2="34.192" y1="296" y2="296" gradientTransform="matrix(0 .8025 .8025 0 -165.54 102.8)" gradientUnits="userSpaceOnUse"><stop stop-color="#99c1f1" offset="0"/><stop stop-color="#3584e4" stop-opacity="0" offset="1"/></linearGradient><clipPath id="v"><rect width="192" height="152"/></clipPath><g id="w" clip-path="url(#v)"><path d="m72 104c13.254 0 24-10.746 24-24s-10.746-24-24-24-24 10.746-24 24 10.746 24 24 24z" fill="url(#u)"/></g><mask id="x"><g filter="url(#h)"><rect width="128" height="128" fill-opacity=".664"/></g></mask><linearGradient id="y" gradientUnits="userSpaceOnUse"><stop stop-color="#fff" offset="0"/><stop stop-color="#fff" stop-opacity="0" offset="1"/></linearGradient><linearGradient id="z" x1="320" x2="320" y1="93" y2="13" gradientTransform="matrix(.66 0 0 -.66 -139.2 91.88)" xlink:href="#y"/><clipPath id="an"><rect width="192" height="152"/></clipPath><g id="B" clip-path="url(#an)"><path d="m105 80c0-18.227-14.773-33-33-33s-33 14.773-33 33 14.773 33 33 33 33-14.773 33-33z" fill="url(#z)"/></g><mask id="am"><g filter="url(#h)"><rect width="128" height="128" fill-opacity=".71556"/></g></mask><linearGradient id="al" x1="-58.316" x2="34.192" y1="296" y2="296" gradientTransform="matrix(0 .93625 .93625 0 -205.13 106.6)" gradientUnits="userSpaceOnUse"><stop stop-color="#62a0ea" offset="0"/><stop stop-color="#3584e4" stop-opacity="0" offset="1"/></linearGradient><clipPath id="ak"><rect width="192" height="152"/></clipPath><g id="F" clip-path="url(#ak)"><path d="m72 108c15.465 0 28-12.535 28-28s-12.535-28-28-28-28 12.535-28 28 12.535 28 28 28z" fill="url(#al)"/></g><mask id="aj"><g filter="url(#h)"><rect width="128" height="128" fill-opacity=".664"/></g></mask><linearGradient id="ai" x1="320" x2="320" y1="93" y2="13" gradientTransform="matrix(.8025 0 0 -.8025 -184.8 94.445)" xlink:href="#y"/><clipPath id="ah"><rect width="192" height="152"/></clipPath><g id="J" clip-path="url(#ah)"><path d="m112.12 80c0-22.16-17.965-40.125-40.125-40.125s-40.125 17.965-40.125 40.125 17.965 40.125 40.125 40.125 40.125-17.965 40.125-40.125z" fill="url(#ai)"/></g><clipPath id="ag"><rect width="128" height="128"/></clipPath><clipPath id="af"><rect width="128" height="128"/></clipPath><mask id="ae"><g clip-path="url(#af)" filter="url(#h)"><g clip-path="url(#ag)"><path d="m124 66c0 33.137-26.863 60-60 60s-60-26.863-60-60 26.863-60 60-60 60 26.863 60 60z" fill="#deddda"/><path d="m124.12 64c0-33.207-26.918-60.125-60.125-60.125s-60.125 26.918-60.125 60.125 26.918 60.125 60.125 60.125 60.125-26.918 60.125-60.125z" fill="#deddda"/><path d="m116 64c0-28.719-23.281-52-52-52s-52 23.281-52 52 23.281 52 52 52 52-23.281 52-52z" fill="url(#b)"/><path transform="matrix(0 1 -1 0 1360.6 -350.47)" d="m460.47 1296.6c0 25.406-20.594 46-46 46s-46-20.594-46-46 20.594-46 46-46 46 20.594 46 46z" stroke="url(#d)" stroke-width="2"/><path d="m97 64c0-18.227-14.773-33-33-33s-33 14.773-33 33 14.773 33 33 33 33-14.773 33-33z" fill="url(#f)"/><path d="m97 64c0-18.227-14.773-33-33-33s-33 14.773-33 33 14.773 33 33 33 33-14.773 33-33z" fill="url(#g)"/><use transform="translate(-8 -16)" mask="url(#t)" xlink:href="#w"/><path d="m64 49c8.2852 0 15 6.7148 15 15s-6.7148 15-15 15-15-6.7148-15-15 6.7148-15 15-15z" fill="url(#j)"/><path d="m62.355 52.383c0-5.4492-4.418-9.8672-9.8711-9.8672-5.4492 0-9.8672 4.418-9.8672 9.8672 0 5.4492 4.418 9.8711 9.8672 9.8711 5.4531 0 9.8711-4.4219 9.8711-9.8711z" fill="#fff" fill-opacity=".83059"/><path d="m83.738 78.699c0-2.7227-2.2109-4.9336-4.9336-4.9336-2.7266 0-4.9375 2.2109-4.9375 4.9336 0 2.7266 2.2109 4.9375 4.9375 4.9375 2.7227 0 4.9336-2.2109 4.9336-4.9375z" fill="#fff" fill-opacity=".54455"/><path d="m74.691 71.301c0-1.8203-1.4727-3.293-3.2891-3.293s-3.2891 1.4727-3.2891 3.293c0 1.8164 1.4727 3.2891 3.2891 3.2891s3.2891-1.4727 3.2891-3.2891z" fill="#fff" fill-opacity=".60552"/><use transform="translate(-8 -16)" mask="url(#x)" xlink:href="#B"/><path transform="matrix(0 1 -1 0 1360.6 -350.47)" d="m453.47 1296.6c0 21.539-17.461 39-39 39-21.539 0-39-17.461-39-39 0-21.539 17.461-39 39-39 21.539 0 39 17.461 39 39z" fill="none" stroke="url(#l)" stroke-width="2"/><path d="m124.12 64c0-33.207-26.918-60.125-60.125-60.125s-60.125 26.918-60.125 60.125 26.918 60.125 60.125 60.125 60.125-26.918 60.125-60.125z" fill="#f6f5f4"/><path d="m118 64c0-29.824-24.176-54-54-54s-54 24.176-54 54 24.176 54 54 54 54-24.176 54-54z" fill="url(#m)"/><path transform="matrix(0 1 -1 0 1360.6 -350.47)" d="m460.35 1296.6c0 25.336-20.539 45.875-45.875 45.875-25.336 0-45.875-20.539-45.875-45.875 0-25.336 20.539-45.875 45.875-45.875 25.336 0 45.875 20.539 45.875 45.875z" stroke="url(#n)" stroke-width="1.7911"/><path d="m104.12 64c0-22.16-17.965-40.125-40.125-40.125s-40.125 17.965-40.125 40.125 17.965 40.125 40.125 40.125 40.125-17.965 40.125-40.125z" fill="url(#o)"/><path d="m104.12 64c0-22.16-17.965-40.125-40.125-40.125s-40.125 17.965-40.125 40.125 17.965 40.125 40.125 40.125 40.125-17.965 40.125-40.125z" fill="url(#p)"/><use transform="translate(-8 -16)" mask="url(#am)" xlink:href="#F"/><path d="m64 82.125c10.012 0 18.125-8.1133 18.125-18.125s-8.1133-18.125-18.125-18.125-18.125 8.1133-18.125 18.125 8.1133 18.125 18.125 18.125z" fill="url(#r)"/><path d="m62 49.875c0-6.6289-5.3711-12-12-12s-12 5.3711-12 12 5.3711 12 12 12 12-5.3711 12-12z" fill="#fff" fill-opacity=".51712"/><path d="m88 81.875c0-3.3125-2.6875-6-6-6s-6 2.6875-6 6 2.6875 6 6 6 6-2.6875 6-6z" fill="#fff" fill-opacity=".29927"/><path d="m77 72.875c0-2.2109-1.7891-4-4-4s-4 1.7891-4 4 1.7891 4 4 4 4-1.7891 4-4z" fill="#fff" fill-opacity=".60552"/><use transform="translate(-8 -16)" mask="url(#aj)" xlink:href="#J"/></g></g></mask><mask id="ad"><g filter="url(#h)"><rect width="128" height="128" fill-opacity=".8"/></g></mask><linearGradient id="ac" x1="300" x2="428" y1="235" y2="235" gradientTransform="matrix(0 .37 -.98462 0 295.39 -30.36)" gradientUnits="userSpaceOnUse"><stop stop-color="#f9f06b" offset="0"/><stop stop-color="#f5c211" offset="1"/></linearGradient><clipPath id="ab"><rect width="128" height="128"/></clipPath><clipPath id="aa"><rect width="128" height="128"/></clipPath></defs><path d="m124 66c0 33.137-26.863 60-60 60s-60-26.863-60-60 26.863-60 60-60 60 26.863 60 60z" fill="#deddda"/><path d="m124.12 64c0-33.207-26.918-60.125-60.125-60.125s-60.125 26.918-60.125 60.125 26.918 60.125 60.125 60.125 60.125-26.918 60.125-60.125z" fill="#deddda"/><path d="m116 64c0-28.719-23.281-52-52-52s-52 23.281-52 52 23.281 52 52 52 52-23.281 52-52z" fill="url(#b)"/><path transform="matrix(0 1 -1 0 1360.6 -350.47)" d="m460.47 1296.6c0 25.406-20.594 46-46 46s-46-20.594-46-46 20.594-46 46-46 46 20.594 46 46z" stroke="url(#d)" stroke-width="2"/><path d="m97 64c0-18.227-14.773-33-33-33s-33 14.773-33 33 14.773 33 33 33 33-14.773 33-33z" fill="url(#f)"/><path d="m97 64c0-18.227-14.773-33-33-33s-33 14.773-33 33 14.773 33 33 33 33-14.773 33-33z" fill="url(#g)"/><use transform="translate(-8 -16)" mask="url(#q)" xlink:href="#w"/><path d="m64 49c8.2852 0 15 6.7148 15 15s-6.7148 15-15 15-15-6.7148-15-15 6.7148-15 15-15z" fill="url(#j)"/><g fill="#fff"><path d="m62.355 52.383c0-5.4492-4.418-9.8672-9.8711-9.8672-5.4492 0-9.8672 4.418-9.8672 9.8672 0 5.4492 4.418 9.8711 9.8672 9.8711 5.4531 0 9.8711-4.4219 9.8711-9.8711z" fill-opacity=".83059"/><path d="m83.738 78.699c0-2.7227-2.2109-4.9336-4.9336-4.9336-2.7266 0-4.9375 2.2109-4.9375 4.9336 0 2.7266 2.2109 4.9375 4.9375 4.9375 2.7227 0 4.9336-2.2109 4.9336-4.9375z" fill-opacity=".54455"/><path d="m74.691 71.301c0-1.8203-1.4727-3.293-3.2891-3.293s-3.2891 1.4727-3.2891 3.293c0 1.8164 1.4727 3.2891 3.2891 3.2891s3.2891-1.4727 3.2891-3.2891z" fill-opacity=".60552"/></g><use transform="translate(-8 -16)" mask="url(#k)" xlink:href="#B"/><path transform="matrix(0 1 -1 0 1360.6 -350.47)" d="m453.47 1296.6c0 21.539-17.461 39-39 39-21.539 0-39-17.461-39-39 0-21.539 17.461-39 39-39 21.539 0 39 17.461 39 39z" fill="none" stroke="url(#l)" stroke-width="2"/><path d="m124.12 64c0-33.207-26.918-60.125-60.125-60.125s-60.125 26.918-60.125 60.125 26.918 60.125 60.125 60.125 60.125-26.918 60.125-60.125z" fill="#f6f5f4"/><path d="m118 64c0-29.824-24.176-54-54-54s-54 24.176-54 54 24.176 54 54 54 54-24.176 54-54z" fill="url(#m)"/><path transform="matrix(0 1 -1 0 1360.6 -350.47)" d="m460.35 1296.6c0 25.336-20.539 45.875-45.875 45.875-25.336 0-45.875-20.539-45.875-45.875 0-25.336 20.539-45.875 45.875-45.875 25.336 0 45.875 20.539 45.875 45.875z" stroke="url(#n)" stroke-width="1.7911"/><path d="m104.12 64c0-22.16-17.965-40.125-40.125-40.125s-40.125 17.965-40.125 40.125 17.965 40.125 40.125 40.125 40.125-17.965 40.125-40.125z" fill="url(#o)"/><path d="m104.12 64c0-22.16-17.965-40.125-40.125-40.125s-40.125 17.965-40.125 40.125 17.965 40.125 40.125 40.125 40.125-17.965 40.125-40.125z" fill="url(#p)"/><use transform="translate(-8 -16)" mask="url(#i)" xlink:href="#F"/><path d="m64 82.125c10.012 0 18.125-8.1133 18.125-18.125s-8.1133-18.125-18.125-18.125-18.125 8.1133-18.125 18.125 8.1133 18.125 18.125 18.125z" fill="url(#r)"/><path d="m62 49.875c0-6.6289-5.3711-12-12-12s-12 5.3711-12 12 5.3711 12 12 12 12-5.3711 12-12z" fill="#fff" fill-opacity=".51712"/><path d="m88 81.875c0-3.3125-2.6875-6-6-6s-6 2.6875-6 6 2.6875 6 6 6 6-2.6875 6-6z" fill="#fff" fill-opacity=".29927"/><path d="m77 72.875c0-2.2109-1.7891-4-4-4s-4 1.7891-4 4 1.7891 4 4 4 4-1.7891 4-4z" fill="#fff" fill-opacity=".60552"/><use transform="translate(-8 -16)" mask="url(#s)" xlink:href="#J"/><g clip-path="url(#aa)" mask="url(#ae)"><g clip-path="url(#ab)" mask="url(#ad)"><path d="m128 80.641v47.359h-128v-47.359z" fill="url(#ac)"/><path d="m13.309 80.641 47.355 47.359h21.215l-47.359-47.359zm42.422 0 47.363 47.359h21.215l-47.363-47.359zm42.43 0 29.84 29.84v-21.211l-8.6289-8.6289zm-98.16 7.9062v21.215l18.238 18.238h21.215z"/></g></g></svg>
