<?xml version="1.0" encoding="UTF-8"?>
<svg id="an" version="1.1" viewBox="0 0 96 95.725" xmlns="http://www.w3.org/2000/svg" xmlns:xlink="http://www.w3.org/1999/xlink"><defs id="ao"><filter id="aj" color-interpolation-filters="sRGB"><feGaussianBlur id="ap" stdDeviation="1.055"/></filter><filter id="ai" color-interpolation-filters="sRGB"><feGaussianBlur id="aq" stdDeviation="1.055"/></filter><linearGradient id="s" x1="-54.893" x2="16.725" y1="12.803" y2="89.782" gradientTransform="translate(80 -2.9259e-6)" gradientUnits="userSpaceOnUse"><stop id="ar" stop-color="#a2a2a2" offset="0"/><stop id="as" stop-color="#c0c0c0" offset=".1048"/><stop id="at" stop-color="#ccc" offset=".20634"/><stop id="au" stop-color="#ededed" offset=".38664"/><stop id="av" stop-color="#efefef" offset=".51675"/><stop id="aw" stop-color="#dfdfdf" offset=".66962"/><stop id="ax" stop-color="#dfdfdf" offset="1"/></linearGradient><radialGradient id="h" cx="54.583" cy="32.168" r="35.438" gradientTransform="matrix(.99263 -1.1151 1.1139 .99157 -28.901 80.473)" gradientUnits="userSpaceOnUse"><stop id="ay" stop-color="#fff" offset="0"/><stop id="az" stop-color="#fff" stop-opacity="0" offset=".93342"/><stop id="ba" stop-color="#fff" offset=".96625"/><stop id="bb" stop-color="#fff" stop-opacity="0" offset=".9857"/><stop id="bc" stop-color="#fff" stop-opacity="0" offset="1"/></radialGradient><filter id="af" color-interpolation-filters="sRGB"><feGaussianBlur id="bd" stdDeviation="0.43632813"/></filter><filter id="aa" color-interpolation-filters="sRGB"><feGaussianBlur id="be" stdDeviation="1.1654758"/></filter><linearGradient id="p" x1="2.9106" x2="-28.375" y1="96.067" y2="124.53" gradientTransform="translate(-20,-40)" gradientUnits="userSpaceOnUse"><stop id="bf" stop-color="#6bdbf9" offset="0"/><stop id="bg" stop-color="#3e95dc" offset=".39499"/><stop id="bh" stop-color="#1762c9" offset=".4924"/><stop id="bi" stop-color="#163b86" offset=".81368"/><stop id="bj" stop-color="#163e8c" offset="1"/></linearGradient><filter id="x" color-interpolation-filters="sRGB"><feGaussianBlur id="bk" stdDeviation="1.0671607"/></filter><linearGradient id="o" x1="-45.923" x2="31.849" y1="74.597" y2="163.3" gradientTransform="translate(-20 -40)" gradientUnits="userSpaceOnUse"><stop id="bl" stop-color="#154ea9" stop-opacity="0" offset="0"/><stop id="bm" stop-color="#fff" stop-opacity=".36" offset=".41303"/><stop id="bn" stop-color="#fff" offset=".94273"/><stop id="bo" stop-color="#fff" offset="1"/></linearGradient><filter id="y" color-interpolation-filters="sRGB"><feGaussianBlur id="bp" stdDeviation="0.78239761"/></filter><linearGradient id="n" x1="22.893" x2="44.725" y1="22.107" y2="45.884" gradientTransform="translate(-100)" gradientUnits="userSpaceOnUse"><stop id="bq" stop-color="#fff" offset="0"/><stop id="br" stop-color="#fff" stop-opacity="0" offset="1"/></linearGradient><filter id="z" color-interpolation-filters="sRGB"><feGaussianBlur id="bs" stdDeviation="0.3398532"/></filter><filter id="ah" color-interpolation-filters="sRGB"><feGaussianBlur id="bt" stdDeviation="0.93229463"/></filter><linearGradient id="u" x1="-6.9262" x2=".27397" y1="73.689" y2="105.21" gradientTransform="translate(27.283 -7.4609)" gradientUnits="userSpaceOnUse"><stop id="bu" stop-color="#ff6a2f" offset="0"/><stop id="bv" stop-color="#ffa930" offset="1"/></linearGradient><filter id="b" color-interpolation-filters="sRGB"><feGaussianBlur id="bw" stdDeviation="0.61338278"/></filter><filter id="a" color-interpolation-filters="sRGB"><feGaussianBlur id="bx" stdDeviation="0.61338278"/></filter><filter id="ab" color-interpolation-filters="sRGB"><feGaussianBlur id="by" stdDeviation="0.61338278"/></filter><linearGradient id="v" x1="31.789" x2="32.033" y1="109.21" y2="69.202" gradientTransform="translate(56)" gradientUnits="userSpaceOnUse"><stop id="bz" stop-color="#8b8c8b" offset="0"/><stop id="ca" stop-color="#b2b2b2" offset=".066412"/><stop id="cb" stop-color="#bebebe" offset=".13048"/><stop id="cc" stop-color="#9d9d9d" offset=".18577"/><stop id="cd" stop-color="#a3a3a3" offset=".24778"/><stop id="ce" stop-color="#a9a9ac" offset=".30113"/><stop id="cf" stop-color="#c0c0c3" offset=".36116"/><stop id="cg" stop-color="#fff" offset=".43664"/><stop id="ch" stop-color="#fff" offset=".51506"/><stop id="ci" stop-color="#fff" offset=".5993"/><stop id="cj" stop-color="#e2e3ea" offset=".62692"/><stop id="ck" stop-color="#bbbbc2" offset=".70465"/><stop id="cl" stop-color="#ababaf" offset=".80154"/><stop id="cm" stop-color="#a2a2a5" offset=".83738"/><stop id="cn" stop-color="#c0c4c9" offset=".9592"/><stop id="co" stop-color="#97908b" offset="1"/></linearGradient><filter id="al" color-interpolation-filters="sRGB"><feGaussianBlur id="cp" stdDeviation="0.31846967"/></filter><linearGradient id="c" x1="31.789" x2="32.033" y1="109.21" y2="69.202" gradientTransform="translate(56)" gradientUnits="userSpaceOnUse" xlink:href="#r"/><linearGradient id="r"><stop id="cq" stop-color="#c9ccd8" offset="0"/><stop id="cr" stop-color="#c9ccd8" offset=".066412"/><stop id="cs" stop-color="#b7bbc1" offset=".13048"/><stop id="ct" stop-color="#bbbfc7" offset=".17023"/><stop id="cu" stop-color="#c2c4ca" offset=".26016"/><stop id="cv" stop-color="#bdbfc2" offset=".34154"/><stop id="cw" stop-color="#dbdce2" offset=".38599"/><stop id="cx" stop-color="#fff" offset=".42566"/><stop id="cy" stop-color="#fff" offset=".51506"/><stop id="cz" stop-color="#fff" offset=".5993"/><stop id="da" stop-color="#e2e3ea" offset=".62692"/><stop id="db" stop-color="#d7d8e7" offset=".70465"/><stop id="dc" stop-color="#bfc2d6" offset=".80154"/><stop id="dd" stop-color="#b7b9c6" offset=".83738"/><stop id="de" stop-color="#d1d4db" offset=".9592"/><stop id="df" stop-color="#c7c9d1" offset="1"/></linearGradient><filter id="am" color-interpolation-filters="sRGB"><feGaussianBlur id="dg" stdDeviation="0.31707415"/></filter><linearGradient id="w" x1="31.789" x2="32.033" y1="109.21" y2="69.202" gradientTransform="translate(56)" gradientUnits="userSpaceOnUse"><stop id="dh" stop-color="#545454" offset="0"/><stop id="di" stop-color="#4e4e4e" offset=".066412"/><stop id="dj" stop-color="#404041" offset=".13048"/><stop id="dk" stop-color="#3f3f40" offset=".20546"/><stop id="dl" stop-color="#3f3f40" offset=".26016"/><stop id="dm" stop-color="#343435" offset=".34154"/><stop id="dn" stop-color="#353535" offset=".38599"/><stop id="do" stop-color="#363535" offset=".44462"/><stop id="dp" stop-color="#343434" offset=".51506"/><stop id="dq" stop-color="#373736" offset=".61105"/><stop id="dr" stop-color="#373737" offset=".66444"/><stop id="ds" stop-color="#333" offset=".7492"/><stop id="dt" stop-color="#343434" offset=".82031"/><stop id="du" stop-color="#424247" offset=".90308"/><stop id="dv" stop-color="#59596f" offset=".9592"/><stop id="dw" stop-color="#464e58" offset="1"/></linearGradient><filter id="e" color-interpolation-filters="sRGB"><feGaussianBlur id="dx" stdDeviation="0.13928653"/></filter><filter id="d" color-interpolation-filters="sRGB"><feGaussianBlur id="dy" stdDeviation="0.14867466"/></filter><radialGradient id="i" cx="69.367" cy="81.123" r="3.0811" gradientTransform="matrix(.64887 2.6579 -.75487 .18429 83.287 -104.71)" gradientUnits="userSpaceOnUse"><stop id="dz" stop-color="#686868" offset="0"/><stop id="ea" stop-color="#9e9da0" offset="1"/></radialGradient><radialGradient id="g" cx="46.936" cy="79.183" r="3.0811" gradientTransform="matrix(.9549 .29693 -.91589 2.9454 94.705 -164.92)" gradientUnits="userSpaceOnUse"><stop id="eb" stop-color="#686868" offset="0"/><stop id="ec" stop-color="#9e9da0" offset="1"/></radialGradient><filter id="ak" color-interpolation-filters="sRGB"><feGaussianBlur id="ed" stdDeviation="0.084708121"/></filter><radialGradient id="f" cx="63.645" cy="94.783" r="2.5936" gradientTransform="matrix(-7.1898 .0019294 -.0048943 -16.241 534.98 1628.1)" gradientUnits="userSpaceOnUse"><stop id="ee" stop-color="#ececff" offset="0"/><stop id="ef" stop-color="#e3e3f1" offset=".50518"/><stop id="eg" stop-color="#a5a5aa" offset=".56282"/><stop id="eh" stop-color="#e1e1f0" offset=".61494"/><stop id="ei" stop-color="#d6d7e5" offset=".67105"/><stop id="ej" stop-color="#8e92ae" offset=".74343"/><stop id="ek" stop-opacity="0" offset="1"/></radialGradient><linearGradient id="q" x1="31.942" x2="32.136" y1="126.1" y2="50.506" gradientTransform="translate(56 -2.9259e-6)" gradientUnits="userSpaceOnUse"><stop id="el" stop-color="#ebebf3" offset="0"/><stop id="em" stop-color="#878788" offset=".18055"/><stop id="en" stop-color="#7e7e7e" offset=".21255"/><stop id="eo" stop-color="#868687" offset=".24455"/><stop id="ep" stop-color="#b4b4be" offset=".34954"/><stop id="eq" stop-color="#ebebff" offset=".43788"/><stop id="er" stop-color="#ebebff" offset=".48655"/><stop id="es" stop-color="#ebebff" offset=".55057"/><stop id="et" stop-color="#b6b6c1" offset=".64278"/><stop id="eu" stop-color="#89898b" offset=".76823"/><stop id="ev" stop-color="#828282" offset=".80154"/><stop id="ew" stop-color="#909091" offset=".83738"/><stop id="ex" stop-color="#f1f2f7" offset="1"/></linearGradient><linearGradient id="t" x1="30.2" x2="53.14" y1="86.611" y2="86.804" gradientTransform="translate(60 -2.9259e-6)" gradientUnits="userSpaceOnUse"><stop id="ey" stop-color="#fff" offset="0"/><stop id="ez" stop-color="#c5c6d2" offset="1"/></linearGradient><radialGradient id="j" cx="84.116" cy="88.117" r="16.396" gradientTransform="matrix(.9973 .0050556 -.0091353 1.5849 5.1115 -51.917)" gradientUnits="userSpaceOnUse"><stop id="fa" stop-color="#a6a6a2" offset="0"/><stop id="fb" stop-color="#606060" offset="1"/></radialGradient><filter id="ad" color-interpolation-filters="sRGB"><feGaussianBlur id="fc" stdDeviation="0.21546138"/></filter><filter id="ac" color-interpolation-filters="sRGB"><feGaussianBlur id="fd" stdDeviation="0.31310308"/></filter><radialGradient id="m" cx="96.793" cy="88.723" r="11.579" gradientTransform="matrix(-.30973 -1.6718 1.8876 -.26021 -39.847 272.86)" gradientUnits="userSpaceOnUse"><stop id="fe" stop-color="#fff" offset="0"/><stop id="ff" stop-color="#fff" offset=".17947"/><stop id="fg" stop-color="#7676d1" offset="1"/></radialGradient><radialGradient id="l" cx="93.988" cy="90.22" r="2.8284" gradientTransform="matrix(-.31275 -9.3202 5.9263 -.51111 -413.82 1010.6)" gradientUnits="userSpaceOnUse"><stop id="fh" stop-color="#fff" offset="0"/><stop id="fi" stop-color="#fff" stop-opacity="0" offset="1"/></radialGradient><filter id="ag" x="-.16153" y="-.039609" width="1.3231" height="1.0792" color-interpolation-filters="sRGB"><feGaussianBlur id="fj" stdDeviation="0.38073265"/></filter><filter id="ae" color-interpolation-filters="sRGB"><feGaussianBlur id="fk" stdDeviation="0.25343741"/></filter><radialGradient id="k" cx="45.637" cy="88.726" r="19.547" gradientTransform="matrix(.89121 4.5141e-7 -2.4071e-5 1.689 52.334 -61.376)" gradientUnits="userSpaceOnUse"><stop id="fl" stop-color="#949494" offset="0"/><stop id="fm" stop-color="#575757" offset=".92431"/><stop id="fn" stop-color="#949494" offset=".9656"/><stop id="fo" stop-color="#535353" offset="1"/></radialGradient></defs><g id="fp" transform="translate(-272 -364.5)"><g id="fq" transform="matrix(.65832 0 0 .65832 291.45 370.49)"><g id="fr" transform="translate(40.643 .42885)" fill-rule="nonzero"><path id="fs" d="m12.5-7c-29.133 0-52.75 23.617-52.75 52.75s23.617 52.75 52.75 52.75 52.75-23.617 52.75-52.75-23.617-52.75-52.75-52.75zm13.375 7.25c7.663 0 13.875 6.212 13.875 13.875s-6.212 13.875-13.875 13.875-13.875-6.212-13.875-13.875 6.212-13.875 13.875-13.875zm-32 3.75c7.663 0 13.875 6.212 13.875 13.875s-6.212 13.875-13.875 13.875-13.875-6.212-13.875-13.875 6.212-13.875 13.875-13.875zm52.5 24.25c7.663 0 13.875 6.212 13.875 13.875s-6.212 13.875-13.875 13.875c-7.663 0-13.875-6.212-13.875-13.875s6.212-13.875 13.875-13.875zm-67.25 5.25c7.663 0 13.875 6.212 13.875 13.875s-6.212 13.875-13.875 13.875-13.875-6.212-13.875-13.875 6.212-13.875 13.875-13.875zm36.469 0c1.7431 0 3.1562 1.4131 3.1562 3.1562s-1.4131 3.1562-3.1562 3.1562-3.1562-1.4131-3.1562-3.1562 1.4131-3.1562 3.1562-3.1562zm-9.5 3.375c1.7431 0 3.1562 1.4131 3.1562 3.1562s-1.4131 3.1562-3.1562 3.1562-3.1562-1.4131-3.1562-3.1562 1.4131-3.1562 3.1562-3.1562zm15.625 5.125c1.7431 0 3.1562 1.4131 3.1562 3.1562s-1.4131 3.1562-3.1562 3.1562-3.1562-1.4131-3.1562-3.1562 1.4131-3.1562 3.1562-3.1562z" color="#000000" enable-background="accumulate" fill="#000" filter="url(#aj)"/><path id="ft" d="m12.5-7c-29.133 0-52.75 23.617-52.75 52.75s23.617 52.75 52.75 52.75 52.75-23.617 52.75-52.75-23.617-52.75-52.75-52.75zm13.375 7.25c7.663 0 13.875 6.212 13.875 13.875s-6.212 13.875-13.875 13.875-13.875-6.212-13.875-13.875 6.212-13.875 13.875-13.875zm-32 3.75c7.663 0 13.875 6.212 13.875 13.875s-6.212 13.875-13.875 13.875-13.875-6.212-13.875-13.875 6.212-13.875 13.875-13.875zm52.5 24.25c7.663 0 13.875 6.212 13.875 13.875s-6.212 13.875-13.875 13.875c-7.663 0-13.875-6.212-13.875-13.875s6.212-13.875 13.875-13.875zm-67.25 5.25c7.663 0 13.875 6.212 13.875 13.875s-6.212 13.875-13.875 13.875-13.875-6.212-13.875-13.875 6.212-13.875 13.875-13.875zm36.469 0c1.7431 0 3.1562 1.4131 3.1562 3.1562s-1.4131 3.1562-3.1562 3.1562-3.1562-1.4131-3.1562-3.1562 1.4131-3.1562 3.1562-3.1562zm-9.5 3.375c1.7431 0 3.1562 1.4131 3.1562 3.1562s-1.4131 3.1562-3.1562 3.1562-3.1562-1.4131-3.1562-3.1562 1.4131-3.1562 3.1562-3.1562zm15.625 5.125c1.7431 0 3.1562 1.4131 3.1562 3.1562s-1.4131 3.1562-3.1562 3.1562-3.1562-1.4131-3.1562-3.1562 1.4131-3.1562 3.1562-3.1562z" color="#000000" enable-background="accumulate" fill="#9a9a9a"/></g><path id="fu" transform="matrix(1.0716 0 0 1.0396 -14.636 35.113)" d="m106.14 8.1924c0 23.152-18.768 41.92-41.92 41.92s-41.92-18.768-41.92-41.92 18.768-41.92 41.92-41.92 41.92 18.768 41.92 41.92z" color="#000000" enable-background="accumulate" fill="#000" fill-rule="nonzero"/><path id="fv" transform="matrix(1.0627 0 0 1.0306 -6.1152 39.636)" d="m106.14 8.1924c0 23.152-18.768 41.92-41.92 41.92s-41.92-18.768-41.92-41.92 18.768-41.92 41.92-41.92 41.92 18.768 41.92 41.92z" color="#000000" enable-background="accumulate" fill="#363636" fill-rule="nonzero"/><path id="fw" d="m61-1c-29.133 0-52.75 23.617-52.75 52.75s23.617 52.75 52.75 52.75c29.133 0 52.75-23.617 52.75-52.75s-23.617-52.75-52.75-52.75zm13.375 7.25c7.663 0 13.875 6.212 13.875 13.875s-6.212 13.875-13.875 13.875c-7.6629 0-13.875-6.212-13.875-13.875s6.212-13.875 13.875-13.875zm-32 3.75c7.663 0 13.875 6.212 13.875 13.875s-6.212 13.875-13.875 13.875-13.875-6.212-13.875-13.875 6.212-13.875 13.875-13.875zm52.5 24.25c7.663 0 13.875 6.212 13.875 13.875s-6.212 13.875-13.875 13.875c-7.663 0-13.875-6.212-13.875-13.875s6.212-13.875 13.875-13.875zm-67.25 5.25c7.663 0 13.875 6.212 13.875 13.875s-6.212 13.875-13.875 13.875-13.875-6.212-13.875-13.875 6.212-13.875 13.875-13.875zm36.469 0c1.7431 0 3.1562 1.4131 3.1562 3.1562s-1.4131 3.1562-3.1562 3.1562-3.1562-1.4131-3.1562-3.1562 1.4131-3.1562 3.1562-3.1562zm-9.5 3.375c1.7431 0 3.1562 1.4131 3.1562 3.1562s-1.4131 3.1562-3.1562 3.1562-3.1562-1.4131-3.1562-3.1562 1.4131-3.1562 3.1562-3.1562zm15.625 5.125c1.7431 0 3.1562 1.4131 3.1562 3.1562s-1.4131 3.1562-3.1562 3.1562c-1.7431 0-3.1562-1.4131-3.1562-3.1562s1.4131-3.1562 3.1562-3.1562z" color="#000000" enable-background="accumulate" fill="#000" fill-rule="nonzero" filter="url(#ai)"/><path id="fx" d="m61-1c-29.133 0-52.75 23.617-52.75 52.75s23.617 52.75 52.75 52.75c29.133 0 52.75-23.617 52.75-52.75s-23.617-52.75-52.75-52.75zm13.375 7.25c7.663 0 13.875 6.212 13.875 13.875s-6.212 13.875-13.875 13.875c-7.6629 0-13.875-6.212-13.875-13.875s6.212-13.875 13.875-13.875zm-32 3.75c7.663 0 13.875 6.212 13.875 13.875s-6.212 13.875-13.875 13.875-13.875-6.212-13.875-13.875 6.212-13.875 13.875-13.875zm52.5 24.25c7.663 0 13.875 6.212 13.875 13.875s-6.212 13.875-13.875 13.875c-7.663 0-13.875-6.212-13.875-13.875s6.212-13.875 13.875-13.875zm-67.25 5.25c7.663 0 13.875 6.212 13.875 13.875s-6.212 13.875-13.875 13.875-13.875-6.212-13.875-13.875 6.212-13.875 13.875-13.875zm36.469 0c1.7431 0 3.1562 1.4131 3.1562 3.1562s-1.4131 3.1562-3.1562 3.1562-3.1562-1.4131-3.1562-3.1562 1.4131-3.1562 3.1562-3.1562zm-9.5 3.375c1.7431 0 3.1562 1.4131 3.1562 3.1562s-1.4131 3.1562-3.1562 3.1562-3.1562-1.4131-3.1562-3.1562 1.4131-3.1562 3.1562-3.1562zm15.625 5.125c1.7431 0 3.1562 1.4131 3.1562 3.1562s-1.4131 3.1562-3.1562 3.1562c-1.7431 0-3.1562-1.4131-3.1562-3.1562s1.4131-3.1562 3.1562-3.1562z" color="#000000" enable-background="accumulate" fill="url(#s)" fill-rule="nonzero"/><path id="fy" d="m61-1c-29.133 0-52.75 23.617-52.75 52.75 0 24.363 16.522 44.845 38.969 50.906-20.198-7.3955-34.625-26.802-34.625-49.563 0-29.133 23.617-52.75 52.75-52.75 4.7676 0 9.3884 0.6581 13.781 1.8437-5.6555-2.0707-11.752-3.1875-18.125-3.1875z" color="#000000" enable-background="accumulate" fill="url(#h)" fill-rule="nonzero" filter="url(#af)"/><g id="fz" transform="translate(60 -2.9259e-6)"><path id="ga" d="m-86.746 43.745 83.315 89.762 31.127-28.891-83.315-89.762-31.127 28.891zm3.2253 1.27 3.115-2.8912 5.7825 6.23-3.115 2.8912-5.7825-6.23zm25.859-24.002 3.0921-2.87 5.7825 6.23-3.0921 2.87-5.7825-6.23zm-20.294 21.224 19.835-18.41 24.172 26.042-19.835 18.41-24.172-26.042zm2.6408 11.619 3.115-2.8912 5.7825 6.23-3.115 2.8912-5.7825-6.23zm25.859-24.002 3.0921-2.87 5.7825 6.23-3.0921 2.87-5.7825-6.23zm-17.653 32.843 3.115-2.8912 5.7825 6.23-3.115 2.8912-5.7825-6.23zm25.859-24.002 3.0921-2.87 5.7825 6.23-3.0921 2.87-5.7825-6.23zm-17.653 32.843 3.115-2.8912 5.7825 6.23-3.115 2.8912-5.7825-6.23zm25.859-24.002 3.0921-2.87 5.7825 6.23-3.0921 2.87-5.7825-6.23zm-18.295 23.377 19.835-18.41 24.172 26.042-19.835 18.41-24.172-26.042zm0.64242 9.4659 3.115-2.8912 5.7825 6.23-3.115 2.8912-5.7825-6.23zm25.859-24.002 3.0921-2.87 5.7825 6.23-3.0921 2.87-5.7825-6.23zm-17.653 32.843 3.115-2.8912 5.7825 6.23-3.115 2.8912-5.7825-6.23zm25.859-24.002 3.0921-2.87 5.7825 6.23-3.0921 2.87-5.7825-6.23zm-17.653 32.843 3.115-2.8912 5.7825 6.23-3.115 2.8912-5.7825-6.23zm25.859-24.002 3.0921-2.87 5.7825 6.23-3.0921 2.87-5.7825-6.23zm-16.637 25.163 19.835-18.41 24.172 26.042-19.835 18.41-24.172-26.042zm-1.0158 7.6794 3.115-2.8912 5.8038 6.2529-3.115 2.8912-5.8038-6.2529zm25.859-24.002 3.0921-2.87 5.8038 6.2529-3.0921 2.87-5.8038-6.2529zm-17.653 32.843 3.115-2.8912 5.7825 6.23-3.115 2.8912-5.7825-6.23zm25.859-24.002 3.0921-2.87 5.7825 6.23-3.0921 2.87-5.7825-6.23zm-17.653 32.843 3.115-2.8912 5.7825 6.23-3.115 2.8912-5.7825-6.23zm25.859-24.002 3.0921-2.87 5.7825 6.23-3.0921 2.87-5.7825-6.23z" color="#000000" enable-background="accumulate" fill="#000" fill-rule="nonzero" filter="url(#aa)"/><path id="gb" d="m-59.234 21.163-22.495 18.292 81.176 87.012 20.676-20.874z" color="#000000" enable-background="accumulate" fill="url(#p)" fill-rule="nonzero" filter="url(#x)"/><path id="gc" d="m-87.276 42.654 83.315 89.762 31.127-28.891-83.315-89.762-31.127 28.891zm3.2253 1.27 3.115-2.8912 5.7825 6.23-3.115 2.8912-5.7825-6.23zm25.859-24.002 3.0921-2.87 5.7825 6.23-3.0921 2.87-5.7825-6.23zm-20.294 21.224 19.835-18.41 24.172 26.042-19.835 18.41-24.172-26.042zm2.6408 11.619 3.115-2.8912 5.7825 6.23-3.115 2.8912-5.7825-6.23zm25.859-24.002 3.0921-2.87 5.7825 6.23-3.0921 2.87-5.7825-6.23zm-17.653 32.843 3.115-2.8912 5.7825 6.23-3.115 2.8912-5.7825-6.23zm25.859-24.002 3.0921-2.87 5.7825 6.23-3.0921 2.87-5.7825-6.23zm-17.653 32.843 3.115-2.8912 5.7825 6.23-3.115 2.8912-5.7825-6.23zm25.859-24.002 3.0921-2.87 5.7825 6.23-3.0921 2.87-5.7825-6.23zm-18.295 23.377 19.835-18.41 24.172 26.042-19.835 18.41-24.172-26.042zm0.64242 9.4659 3.115-2.8912 5.7825 6.23-3.115 2.8912-5.7825-6.23zm25.859-24.002 3.0921-2.87 5.7825 6.23-3.0921 2.87-5.7825-6.23zm-17.653 32.843 3.115-2.8912 5.7825 6.23-3.115 2.8912-5.7825-6.23zm25.859-24.002 3.0921-2.87 5.7825 6.23-3.0921 2.87-5.7825-6.23zm-17.653 32.843 3.115-2.8912 5.7825 6.23-3.115 2.8912-5.7825-6.23zm25.859-24.002 3.0921-2.87 5.7825 6.23-3.0921 2.87-5.7825-6.23zm-16.637 25.163 19.835-18.41 24.172 26.042-19.835 18.41-24.172-26.042zm-1.0158 7.6794 3.115-2.8912 5.8038 6.2529-3.115 2.8912-5.8038-6.2529zm25.859-24.002 3.0921-2.87 5.8038 6.2529-3.0921 2.87-5.8038-6.2529zm-17.653 32.843 3.115-2.8912 5.7825 6.23-3.115 2.8912-5.7825-6.23zm25.859-24.002 3.0921-2.87 5.7825 6.23-3.0921 2.87-5.7825-6.23zm-17.653 32.843 3.115-2.8912 5.7825 6.23-3.115 2.8912-5.7825-6.23zm25.859-24.002 3.0921-2.87 5.7825 6.23-3.0921 2.87-5.7825-6.23z" color="#000000" enable-background="accumulate" fill="#000" fill-rule="nonzero"/><path id="gd" d="m-34.12 46.844c4.3879 5.377 0.12682 5.8767-2.057 8.6152 1.1749 3.976 1.989 9.5018 1.989 15.54 0 8.5171-2.2228 16.23-5.8186 21.814l36.037 39.592 31.125-28.875-56.864-60.442z" color="#000000" enable-background="accumulate" fill="url(#o)" fill-rule="nonzero" filter="url(#y)" opacity=".98253"/><path id="ge" d="m-86.163 42.613 15.733 17.324 30.936-27.047-16.882-17.943z" fill="url(#n)" filter="url(#z)"/></g><rect id="gf" transform="matrix(.86858 -.49554 .49554 .86858 18.499 -21.287)" x="-14.67" y="75.028" width="17.438" height="28.125" color="#000000" enable-background="accumulate" fill="#000" fill-rule="nonzero" filter="url(#ah)" opacity=".52402"/><rect id="gg" transform="matrix(.86858 -.49554 .49554 .86858 0 0)" x="12.613" y="67.567" width="17.438" height="28.125" color="#000000" enable-background="accumulate" fill="url(#u)" fill-rule="nonzero"/><g id="gh" transform="translate(59.687 2)" color="#000000" enable-background="accumulate" fill="#000" fill-rule="nonzero" filter="url(#b)" opacity=".41485"><path id="gi" d="m28.253 50.316c-11.774 0-21.339 17.053-21.339 38.118 0 21.064 9.565 38.157 21.339 38.157 11.774 0 21.302-17.092 21.302-38.157 0-21.064-9.5282-38.118-21.302-38.118z" color="#000000" enable-background="accumulate" filter="url(#b)"/><path id="gj" d="m32.253 50.316c-11.774 0-21.339 17.053-21.339 38.118 0 21.064 9.565 38.157 21.339 38.157s21.302-17.092 21.302-38.157c0-21.064-9.5282-38.118-21.302-38.118z" color="#000000" enable-background="accumulate" filter="url(#b)"/></g><g id="gk" transform="translate(39.958 1.625)" color="#000000" enable-background="accumulate" fill="#000" fill-rule="nonzero" filter="url(#a)" opacity=".41485"><path id="gl" transform="matrix(.86237 0 0 1.1063 -54.943 -9.8512)" d="m105.27 88.222c0 10.544-5.184 19.092-11.579 19.092-6.3948 0-11.579-8.5477-11.579-19.092 0-10.544 5.184-19.092 11.579-19.092 6.3948 0 11.579 8.5477 11.579 19.092z" color="#000000" enable-background="accumulate" filter="url(#a)"/><path id="gm" transform="matrix(.9133 0 0 1.1428 -57.018 -12.696)" d="m105.27 88.222c0 10.544-5.184 19.092-11.579 19.092-6.3948 0-11.579-8.5477-11.579-19.092 0-10.544 5.184-19.092 11.579-19.092 6.3948 0 11.579 8.5477 11.579 19.092z" color="#000000" enable-background="accumulate" filter="url(#a)"/></g><path id="gn" transform="matrix(.86237 0 0 .862 -21.192 13.625)" d="m105.27 88.222c0 10.544-5.184 19.092-11.579 19.092-6.3948 0-11.579-8.5477-11.579-19.092 0-10.544 5.184-19.092 11.579-19.092 6.3948 0 11.579 8.5477 11.579 19.092z" color="#000000" enable-background="accumulate" fill="#000" fill-rule="nonzero" filter="url(#ab)" opacity=".41485"/><path id="go" transform="matrix(.86237 0 0 .862 -18.943 12.397)" d="m105.27 88.222c0 10.544-5.184 19.092-11.579 19.092-6.3948 0-11.579-8.5477-11.579-19.092 0-10.544 5.184-19.092 11.579-19.092 6.3948 0 11.579 8.5477 11.579 19.092z" color="#000000" enable-background="accumulate" fill="url(#v)" fill-rule="nonzero"/><path id="gp" transform="matrix(.86237 0 0 1.1063 -14.943 -9.8512)" d="m105.27 88.222c0 10.544-5.184 19.092-11.579 19.092-6.3948 0-11.579-8.5477-11.579-19.092 0-10.544 5.184-19.092 11.579-19.092 6.3948 0 11.579 8.5477 11.579 19.092z" color="#000000" enable-background="accumulate" fill="#000" fill-rule="nonzero" filter="url(#al)" opacity=".53275"/><path id="gq" transform="matrix(.86237 0 0 1.1063 -14.943 -9.8512)" d="m105.27 88.222c0 10.544-5.184 19.092-11.579 19.092-6.3948 0-11.579-8.5477-11.579-19.092 0-10.544 5.184-19.092 11.579-19.092 6.3948 0 11.579 8.5477 11.579 19.092z" color="#000000" enable-background="accumulate" fill="url(#c)" fill-rule="nonzero"/><path id="gr" transform="matrix(.9133 0 0 1.1428 -17.018 -12.696)" d="m105.27 88.222c0 10.544-5.184 19.092-11.579 19.092-6.3948 0-11.579-8.5477-11.579-19.092 0-10.544 5.184-19.092 11.579-19.092 6.3948 0 11.579 8.5477 11.579 19.092z" color="#000000" enable-background="accumulate" fill="#000" fill-rule="nonzero" filter="url(#am)" opacity=".63755"/><path id="gs" transform="matrix(.9133 0 0 1.1428 -17.018 -12.696)" d="m105.27 88.222c0 10.544-5.184 19.092-11.579 19.092-6.3948 0-11.579-8.5477-11.579-19.092 0-10.544 5.184-19.092 11.579-19.092 6.3948 0 11.579 8.5477 11.579 19.092z" color="#000000" enable-background="accumulate" fill="url(#w)" fill-rule="nonzero"/><path id="gt" transform="matrix(.86237 0 0 1.1063 -9.6566 -9.8512)" d="m105.27 88.222c0 10.544-5.184 19.092-11.579 19.092-6.3948 0-11.579-8.5477-11.579-19.092 0-10.544 5.184-19.092 11.579-19.092 6.3948 0 11.579 8.5477 11.579 19.092z" color="#000000" enable-background="accumulate" fill="url(#c)" fill-rule="nonzero"/><g id="gu" transform="translate(2.8809e-8 -2.9259e-6)" fill="#000" fill-rule="nonzero" opacity=".57205"><path id="gv" d="m63.852 94.715s0.30033 7.3023 6.0081 12.516l-1.963-12.563z" color="#000000" enable-background="accumulate" filter="url(#e)"/><path id="gw" d="m70.015 69.228-1.5581 13.649-4.6042 0.0119c1.7958-13.004 6.1623-13.661 6.1623-13.661z" color="#000000" enable-background="accumulate" filter="url(#d)"/></g><g id="gx" transform="translate(2.8809e-8 -2.9259e-6)" fill-rule="nonzero"><path id="gy" d="m63.852 94.715s0.30033 7.3023 6.0081 12.516l-1.963-12.563z" color="#000000" enable-background="accumulate" fill="url(#i)" filter="url(#e)"/><path id="gz" d="m70.015 69.228-1.5581 13.649-4.6042 0.0119c1.7958-13.004 6.1623-13.661 6.1623-13.661z" color="#000000" enable-background="accumulate" fill="url(#g)" filter="url(#d)"/></g><rect id="ha" x="63.013" y="82.913" width="5.1872" height="11.754" ry="1.149" color="#000000" enable-background="accumulate" fill="#000" fill-rule="nonzero" filter="url(#ak)"/><rect id="hb" x="63.013" y="82.913" width="5.1872" height="11.754" ry="1.149" color="#000000" enable-background="accumulate" fill="url(#f)" fill-rule="nonzero"/><path id="hc" d="m88.253 50.316c-11.774 0-21.339 17.053-21.339 38.118 0 21.064 9.565 38.157 21.339 38.157 11.774 0 21.302-17.092 21.302-38.157 0-21.064-9.5282-38.118-21.302-38.118z" color="#000000" enable-background="accumulate" fill="url(#q)" fill-rule="nonzero"/><path id="hd" d="m92.253 50.316c-11.774 0-21.339 17.053-21.339 38.118 0 21.064 9.565 38.157 21.339 38.157 11.774 0 21.302-17.092 21.302-38.157 0-21.064-9.5282-38.118-21.302-38.118z" color="#000000" enable-background="accumulate" fill="url(#t)" fill-rule="nonzero" stroke="#999" stroke-width=".25"/><path id="he" transform="matrix(.96373 0 0 1.0969 7.066 -8.0403)" d="m104.65 87.957c0 14.352-7.3408 25.986-16.396 25.986s-16.396-11.634-16.396-25.986c0-14.352 7.3408-25.986 16.396-25.986s16.396 11.634 16.396 25.986z" color="#000000" enable-background="accumulate" fill="url(#j)" fill-rule="nonzero" filter="url(#ad)" stroke="#000" stroke-width=".75"/><path id="hf" transform="matrix(.8626 0 0 1 5.5374 .088385)" d="m105.27 88.222c0 10.544-5.184 19.092-11.579 19.092-6.3948 0-11.579-8.5477-11.579-19.092 0-10.544 5.184-19.092 11.579-19.092 6.3948 0 11.579 8.5477 11.579 19.092z" color="#000000" enable-background="accumulate" fill="#000" fill-rule="nonzero" filter="url(#ac)"/><g id="hg" transform="translate(40 -2.9259e-6)" fill-rule="nonzero"><path id="hh" transform="matrix(.8626 0 0 1 -34.463 .088388)" d="m105.27 88.222c0 10.544-5.184 19.092-11.579 19.092-6.3948 0-11.579-8.5477-11.579-19.092 0-10.544 5.184-19.092 11.579-19.092 6.3948 0 11.579 8.5477 11.579 19.092z" color="#000000" enable-background="accumulate" fill="url(#m)"/><path id="hi" transform="matrix(1.6094 0 0 1.0038 -96.97 -.3817)" d="m93.78 88.089c0 6.3704-1.2663 11.535-2.8284 11.535s-2.8284-5.1643-2.8284-11.535 1.2663-11.535 2.8284-11.535 2.8284 5.1643 2.8284 11.535z" color="#000000" enable-background="accumulate" fill="url(#l)" filter="url(#ag)" opacity=".5"/></g><path id="hj" d="m92.764 55.437c-9.7527 0-17.686 14.769-17.686 33 0 18.231 7.9333 33.031 17.686 33.031 9.7527 0 17.658-14.8 17.658-33.031 0-18.231-7.905-33-17.658-33zm0 2.4688c9.0256 0 16.33 13.659 16.33 30.531 0 16.872-7.3042 30.563-16.33 30.563-9.0256 0-16.358-13.691-16.358-30.563 0-16.872 7.3325-30.531 16.358-30.531z" color="#000000" enable-background="accumulate" fill="#000" fill-rule="nonzero" filter="url(#ae)" stroke="#000" stroke-width=".25"/><path id="hk" d="m92.764 55.437c-9.7527 0-17.686 14.769-17.686 33 0 18.231 7.9333 33.031 17.686 33.031 9.7527 0 17.658-14.8 17.658-33.031 0-18.231-7.905-33-17.658-33zm0 2.4688c9.0256 0 16.33 13.659 16.33 30.531 0 16.872-7.3042 30.563-16.33 30.563-9.0256 0-16.358-13.691-16.358-30.563 0-16.872 7.3325-30.531 16.358-30.531z" color="#000000" enable-background="accumulate" fill="url(#k)" fill-rule="nonzero"/><path id="hl" d="m92.748 57.906c-9.0169 0-16.342 13.659-16.342 30.531 0 16.872 7.3254 30.563 16.342 30.563 9.0169 0 16.314-13.691 16.314-30.563 0-16.872-7.2972-30.531-16.314-30.531zm0 2.8125c8.1787 0 14.818 12.415 14.818 27.719 0 15.304-6.6394 27.719-14.818 27.719-8.1787 0-14.818-12.415-14.818-27.719 0-15.304 6.6394-27.719 14.818-27.719z" color="#000000" enable-background="accumulate" fill="#949494" fill-rule="nonzero"/></g></g></svg>
