<?xml version="1.0" encoding="UTF-8"?>
<svg id="n" version="1.0" viewBox="0 0 64 64" xmlns="http://www.w3.org/2000/svg" xmlns:xlink="http://www.w3.org/1999/xlink"><defs id="o"><radialGradient id="e" cx="5" cy="41.5" r="5" gradientTransform="matrix(.59382 0 0 1.5367 41.141 -103.94)" gradientUnits="userSpaceOnUse" xlink:href="#a"/><linearGradient id="l" x1="17.554" x2="17.554" y1="46" y2="35" gradientTransform="matrix(1.757 0 0 1.397 -17.394 -16.412)" gradientUnits="userSpaceOnUse"><stop id="p" stop-opacity="0" offset="0"/><stop id="q" offset=".5"/><stop id="r" stop-opacity="0" offset="1"/></linearGradient><linearGradient id="a"><stop id="s" offset="0"/><stop id="t" stop-opacity="0" offset="1"/></linearGradient><radialGradient id="f" cx="5" cy="41.5" r="5" gradientTransform="matrix(.59382 0 0 1.5367 -6.6595 -103.94)" gradientUnits="userSpaceOnUse" xlink:href="#a"/><linearGradient id="g" x1="15.464" x2="15.464" y1="7.9757" y2="45.042" gradientTransform="matrix(1.3414 0 0 1.3287 -.19366 .37019)" gradientUnits="userSpaceOnUse"><stop id="u" stop-color="#c9af8b" offset="0"/><stop id="v" stop-color="#ad8757" offset=".23942"/><stop id="w" stop-color="#c2a57f" offset=".27582"/><stop id="x" stop-color="#9d7d53" offset="1"/></linearGradient><linearGradient id="h" x1="24.823" x2="24.997" y1="15.378" y2="37.277" gradientTransform="matrix(1.72 0 0 2.0692 -8.3362 -19.947)" gradientUnits="userSpaceOnUse"><stop id="y" stop-color="#dac197" offset="0"/><stop id="z" stop-color="#c1a581" offset=".23942"/><stop id="aa" stop-color="#dac197" offset=".27582"/><stop id="ab" stop-color="#a68b60" offset="1"/></linearGradient><radialGradient id="d" cx="24" cy="31" r="20" gradientTransform="matrix(2.2339 0 0 .875 -21.614 14.375)" gradientUnits="userSpaceOnUse"><stop id="ac" stop-color="#cbad7a" offset="0"/><stop id="ad" stop-color="#cbae7d" stop-opacity="0" offset="1"/></radialGradient><linearGradient id="i" x1="23.452" x2="43.007" y1="30.555" y2="45.934" gradientTransform="matrix(1.72 0 0 1.5609 -8.3362 -6.6763)" gradientUnits="userSpaceOnUse"><stop id="ae" stop-color="#fff" stop-opacity="0" offset="0"/><stop id="af" stop-color="#fff" stop-opacity="0" offset="1"/></linearGradient><linearGradient id="k" x1="44.995" x2="3.0052" y1="17.5" y2="17.5" gradientTransform="matrix(1.3418 0 0 1.3287 -.20316 .24702)" gradientUnits="userSpaceOnUse" spreadMethod="reflect"><stop id="ag" stop-color="#fff" stop-opacity="0" offset="0"/><stop id="ah" stop-color="#fff" offset=".16682"/><stop id="ai" stop-color="#fff" offset=".83238"/><stop id="aj" stop-color="#fff" stop-opacity="0" offset="1"/></linearGradient><linearGradient id="j" x1="26" x2="26" y1="22" y2="8" gradientTransform="matrix(1.5 0 0 1.3571 -4 .14286)" gradientUnits="userSpaceOnUse"><stop id="ak" stop-color="#fff" offset="0"/><stop id="al" stop-color="#fff" offset=".32469"/><stop id="am" stop-color="#fff" stop-opacity=".6902" offset=".37369"/><stop id="an" stop-color="#fff" stop-opacity="0" offset="1"/></linearGradient><radialGradient id="b" cx="12.466" cy="5.3052" r="10.5" collect="always" gradientTransform="matrix(1.6396 0 0 1.35 13.561 18.475)" gradientUnits="userSpaceOnUse"><stop id="ao" stop-color="#8fb1dc" offset="0"/><stop id="ap" stop-color="#3465a4" offset="1"/></radialGradient><radialGradient id="c" cx="24.653" cy="18.944" r="8.6174" fx="24.652" collect="always" gradientTransform="matrix(.050796 1.8806 -1.3065 .037223 56.992 -19.739)" gradientUnits="userSpaceOnUse"><stop id="aq" stop-color="#cee14b" offset="0"/><stop id="ar" stop-color="#9db029" offset="1"/></radialGradient><linearGradient id="m" x1="63.397" x2="59.919" y1="-12.742" y2="-1.99" gradientTransform="matrix(1.4293 0 0 1.4293 -54.902 39.018)" gradientUnits="userSpaceOnUse"><stop id="as" stop-color="#fff" offset="0"/><stop id="at" stop-color="#fff" stop-opacity="0" offset="1"/></linearGradient></defs><g id="au"><g id="av" transform="matrix(1.3379 0 0 1.3015 .023082 1.724)" opacity=".3"><rect id="aw" transform="scale(-1)" x="-3.6904" y="-47.848" width="2.9602" height="15.367" fill="url(#f)" opacity="1"/><rect id="ax" x="3.6904" y="32.482" width="40.412" height="15.367" fill="url(#l)" opacity="1"/><rect id="ay" transform="scale(1,-1)" x="44.11" y="-47.848" width="2.9602" height="15.367" fill="url(#e)" opacity="1"/></g><path id="az" d="m11.893 11.664h39.568c2.3099 0 3.3494-0.38075 4.0129 1.3287l4.0265 10.63v34.114c0 2.0639 0.13807 1.7486-2.1718 1.7486h-50.659c-2.3099 0-2.1718 0.31535-2.1718-1.7486v-34.114l4.0265-10.63c0.64499-1.675 1.058-1.3287 3.3679-1.3287z" display="block" fill="url(#h)" fill-rule="nonzero" stroke="url(#g)" stroke-linecap="round" stroke-linejoin="miter" stroke-miterlimit="4" stroke-width=".9942"/><rect id="ba" x="5" y="24" width="54" height="35" enable-background="accumulate" fill="url(#d)" fill-rule="evenodd"/><path id="bb" d="m13.151 13.01h37.094c2.1654 0 3.5056 0.73949 4.4126 2.7718l3.124 8.5302v30.753c0 1.9409-1.0983 2.918-3.2637 2.918h-45.25c-2.1654 0-3.0487-1.0747-3.0487-3.0156v-30.656l3.0233-8.713c0.60465-1.5751 1.7433-2.5889 3.9087-2.5889z" display="block" fill="none" opacity=".50549" stroke="url(#i)" stroke-linejoin="miter" stroke-miterlimit="4" stroke-width=".74212"/><path id="bc" d="m4.5001 23.5h55" fill="none" opacity=".3" stroke="url(#k)" stroke-linecap="square" stroke-linejoin="miter" stroke-width="1px"/><path id="bd" d="m29 11h6v19h-1.7718-1.8141-1.4604-0.95378v-19z" enable-background="accumulate" fill="url(#j)" fill-rule="nonzero" opacity=".4"/></g><g id="be" transform="matrix(1.188 0 0 1.188 5.146 5.07)"><path id="bf" d="m33.989 20.5c-7.4507 0-13.489 6.0386-13.489 13.489s6.0387 13.511 13.489 13.511c7.4507 0 13.511-6.0599 13.511-13.511 0-7.4507-6.0599-13.489-13.511-13.489z" fill="url(#b)" stroke="#204a87" stroke-linecap="round" stroke-linejoin="round" stroke-miterlimit="4" stroke-width=".84183"/><path id="bg" d="m29.307 37.292-0.38608-0.78501-0.72327-0.168-0.38574-1.0645-0.96426 0.11179-0.81952-0.61606-0.86841 0.7844v0.12372c-0.26269-0.07787-0.58562-0.0885-0.81952-0.23619l-0.19304-0.5602v-0.61675l-0.57852 0.05586c0.04829-0.39254 0.09619-0.7844 0.14481-1.1769h-0.33785l-0.33719 0.44841-0.33785 0.16766-0.48233-0.27945-0.04829-0.61674 0.09652-0.67261 0.7236-0.5602h0.57852l0.09619-0.33661 0.72326 0.16766 0.53056 0.67329 0.09652-1.1217 0.9163-0.7844 0.33752-0.84095 0.67504-0.28007 0.38574-0.5602 0.86775-0.16896 0.43437-0.67192h-1.3021l0.81978-0.39254h0.57819l0.82012-0.28075 0.09652-0.33532-0.28956-0.28075-0.33752-0.11241 0.09652-0.336-0.241-0.50427-0.57885 0.22352 0.09652-0.44807-0.67504-0.39254-0.53022 0.95234 0.04796 0.33661-0.53023 0.22488-0.33785 0.72847-0.14448-0.67261-0.9163-0.39254-0.14482-0.50427 1.2056-0.72915 0.53056-0.50427 0.04829-0.61641-0.28923-0.16834-0.38574-0.05621-0.241 0.61675s-0.40326 0.08114-0.50694 0.10744c-1.3241 1.2531-3.9996 3.9582-4.6212 9.065 0.02461 0.1184 0.45056 0.80498 0.45056 0.80498l1.0126 0.61606 1.0126 0.28075 0.43437 0.56082 0.67471 0.50427 0.38574-0.05586 0.28923 0.13373v0.09047l-0.38548 1.0648-0.28956 0.4484 0.09652 0.22489-0.241 0.83959 0.86808 1.626 0.86774 0.78502 0.38608 0.5602-0.04856 1.1776 0.28956 0.67193-0.28956 1.2894s-0.02268-8e-3 0.01427 0.12106c0.03728 0.1291 1.545 0.98865 1.6409 0.91548 0.09552-0.07453 0.17718-0.13973 0.17718-0.13973l-0.09619-0.27946 0.38548-0.39254 0.14481-0.39254 0.62708-0.22488 0.482-1.2334-0.14448-0.33532 0.33685-0.50427 0.7236-0.16895 0.38608-0.89682-0.09652-1.1203 0.57852-0.84095 0.09651-0.84095c-0.79166-0.40316-1.5768-0.81833-2.3626-1.2334m6.2953-15.826-1.4076-0.56633-1.6228 0.18854-2.003 0.56595-0.3788 0.37778 1.2447 0.88035v0.50325l-0.48712 0.50325 0.64995 1.322 0.43189-0.25239 0.54237-0.88034c0.83607-0.26546 1.5857-0.56633 2.3804-0.94381l0.64995-1.6983m11.298 10.66v0l-0.37247 0.43327c-0.22831-0.2763-0.48464-0.50866-0.74493-0.75134l-0.57138 0.08635-0.52203-0.60603v0.75001l0.44725 0.34756 0.29769 0.34622 0.39783-0.46205c0.10014 0.19263 0.19891 0.38526 0.29837 0.57788v0.57725l-0.44793 0.51962-0.81971 0.57788-0.6208 0.63622-0.39783-0.46346 0.19891-0.51961-0.39721-0.46206-0.67084-1.4726-0.57138-0.66359-0.14956 0.17276 0.22427 0.83776 0.42189 0.49083c0.24095 0.71435 0.47931 1.3971 0.79572 2.0799 0.49065 0 0.95321-0.05349 1.4405-0.11653v0.40449l-0.59612 1.5017-0.5467 0.63481-0.44725 0.98307v1.6165l0.14956 0.63622-0.24833 0.28796-0.54739 0.34686-0.57138 0.49083 0.47261 0.54847-0.64616 0.57858 0.12413 0.3743-0.96927 1.1271h-0.64548l-0.54671 0.34686h-0.34847v-0.46205l-0.14819-0.92551c-0.19229-0.57999-0.3925-1.1558-0.59613-1.7317 0-0.42506 0.02468-0.84597 0.04942-1.271l0.24902-0.57725-0.34847-0.69378 0.02536-0.95289-0.47261-0.54847 0.2363-0.79388-0.3845-0.44801h-0.67152l-0.22359-0.25981-0.67084 0.43362-0.27301-0.31843-0.62148 0.54875c-0.42189-0.49119-0.84446-0.98202-1.267-1.4729l-0.49667-1.2134 0.44725-0.69238-0.24834-0.28859 0.54602-1.3293c0.44861-0.57311 0.91719-1.1229 1.3912-1.6747l0.84507-0.23103 0.94391-0.1152 0.64616 0.17346 0.91917 0.95218 0.32312-0.375 0.44656-0.05756 0.84508 0.28859h0.64616l0.44725-0.40449 0.19891-0.28859-0.44794-0.28859-0.74561-0.05757c-0.20692-0.29477-0.3992-0.60463-0.64486-0.86654l-0.24902 0.1152-0.09946 0.75134-0.44725-0.51962-0.09877-0.57858-0.49667-0.40308h-0.1996l0.49728 0.57725-0.19891 0.51962-0.39721 0.1152 0.24834-0.51962-0.44793-0.23032-0.39653-0.46205-0.7463 0.17276-0.09878 0.23032-0.44724 0.28929-0.24834 0.63552-0.6208 0.31737-0.27369-0.31737h-0.29768v-1.0399l0.64616-0.34686h0.49667l-0.10014-0.40379-0.39653-0.40449 0.67022-0.14468 0.37247-0.43257 0.29769-0.52032h0.54738l-0.14956-0.40379 0.34847-0.23103v0.46206l0.74493 0.17276 0.74493-0.63481 0.05003-0.28929 0.64548-0.4617c-0.23364 0.02983-0.46727 0.05174-0.69558 0.11555v-0.52025l0.24833-0.5776h-0.24833l-0.54575 0.51962-0.14956 0.28894 0.14956 0.40484-0.24902 0.69238-0.39721-0.23102-0.34711-0.40378-0.54739 0.40378-0.19891-0.92375 0.94391-0.63516v-0.34686l0.59674-0.40414 0.94391-0.23138 0.64616 0.23138 1.1922 0.23103-0.29769 0.34623h-0.64616l0.64616 0.69308 0.49667-0.57726 0.15086-0.25398s1.9051 1.7536 2.9939 3.6718c1.0888 1.9188 1.6001 4.1804 1.6001 4.6398z" fill="url(#c)" fill-rule="nonzero"/><path id="bh" d="m46.5 34c0 6.9037-5.5968 12.5-12.5 12.5-6.9035 0-12.5-5.5967-12.5-12.5 0-6.9034 5.5965-12.499 12.5-12.499 6.9029 0 12.5 5.596 12.5 12.499z" fill="none" opacity=".4" stroke="url(#m)" stroke-miterlimit="4" stroke-width=".84204"/></g></svg>
