<?xml version="1.0" encoding="UTF-8"?>
<svg width="32" height="32" viewBox="0 0 8.4667 8.4667" xmlns="http://www.w3.org/2000/svg"><g transform="translate(0 -288.53)" stroke-width=".26458"><path d="m1.0583 289.33c-0.14658 0-0.26458 0.118-0.26458 0.26458v6.35c0 0.14658 0.118 0.26459 0.26458 0.26459h6.35c0.14658 0 0.26458-0.11801 0.26458-0.26459v-6.35c0-0.14658-0.118-0.26458-0.26458-0.26458zm0 0.26458h6.35v6.35h-6.35v-3.9688z" fill="#fafafa"/><path d="m1.0583 290.91h1.3229v5.0271h-1.3229z" fill="#797774"/><path d="m0.79375 289.33h6.8792v1.5875h-6.8792z" fill="#0063b1"/><path d="m2.3812 290.91v1.0583h-1.3229v0.26459h1.3229v1.0583h-1.3229v0.26458h1.3229v1.0583h-1.3229v0.26458h1.3229v1.0583h0.26458v-1.0583h1.3229v1.0583h0.26458v-1.0583h1.3229v1.0583h0.26458v-1.0583h1.5875v-0.26458h-1.5875v-1.0583h1.5875v-0.26458h-1.5875v-1.0583h1.5875v-0.26459h-1.5875v-1.0583h-0.26458v1.0583h-1.3229v-1.0583h-0.26458v1.0583h-1.3229v-1.0583zm0.26458 1.3229h1.3229v1.0583h-1.3229zm1.5875 0h1.3229v1.0583h-1.3229zm-1.5875 1.3229h1.3229v1.0583h-1.3229zm1.5875 0h1.3229v1.0583h-1.3229z" fill="#c8c6c4"/><path d="m1.0583 289.33c-0.14658 0-0.26458 0.118-0.26458 0.26458v1.3229h6.8792v-1.3229c0-0.14658-0.118-0.26458-0.26458-0.26458zm0 0.26458h1.3229v1.0583h-1.3229zm1.5875 0h1.3229v1.0583h-1.3229zm1.5875 0h1.3229v1.0583h-1.3229zm1.5875 0h1.5875v1.0583h-1.5875z" fill="#1e8bcd"/></g></svg>
