<?xml version="1.0" encoding="UTF-8"?>
<svg viewBox="0 0 48 48" xmlns="http://www.w3.org/2000/svg" xmlns:xlink="http://www.w3.org/1999/xlink"><defs><linearGradient id="a" x2="0" y1="543.8" y2="503.8" gradientTransform="matrix(1.125 0 0 .925-51.07 38.785)" gradientUnits="userSpaceOnUse"><stop stop-color="#bd8d48" offset="0"/><stop stop-color="#e8b971" offset="1"/></linearGradient><linearGradient id="b" x2="0" y1="542.8" y2="504.8" gradientTransform="matrix(1 0 0 .92105-1 40.852)" gradientUnits="userSpaceOnUse"><stop stop-color="#977a5c" offset="0"/><stop stop-color="#9d8062" offset="1"/></linearGradient><linearGradient id="c" x1="402.57" x2="395.57" y1="532.8" y2="526.8" gradientTransform="translate(0-2)" gradientUnits="userSpaceOnUse"><stop stop-color="#90a8b0" offset="0"/><stop stop-color="#e1e7ea" offset="1"/></linearGradient><linearGradient id="d" x1="424.57" x2="392.57" y1="535.8" y2="506.8" gradientUnits="userSpaceOnUse"><stop stop-color="#b6c2c7" offset="0"/><stop stop-color="#c9dbe1" offset="1"/></linearGradient><linearGradient id="e" x1="416.57" x2="409.57" y1="532.8" y2="526.8" gradientTransform="translate(37.658-25.948)" gradientUnits="userSpaceOnUse"><stop stop-color="#afc0c6" offset="0"/><stop stop-color="#cad5d9" offset="1"/></linearGradient><linearGradient id="f" x1="416.57" x2="409.57" y1="532.8" y2="526.8" gradientTransform="translate(38.971-26.542)" gradientUnits="userSpaceOnUse" xlink:href="#e"/><linearGradient id="g" x1="402.57" x2="395.57" y1="532.8" y2="526.8" gradientTransform="translate(6-2)" gradientUnits="userSpaceOnUse" xlink:href="#c"/><linearGradient id="h" x1="402.57" x2="395.57" y1="532.8" y2="526.8" gradientTransform="translate(165.27-158.82)" gradientUnits="userSpaceOnUse" xlink:href="#c"/><linearGradient id="i" x1="402.57" x2="395.57" y1="532.8" y2="526.8" gradientTransform="translate(12-2)" gradientUnits="userSpaceOnUse" xlink:href="#c"/><linearGradient id="j" x1="400.07" x2="400.32" y1="508.67" y2="531.17" gradientUnits="userSpaceOnUse"><stop stop-color="#96acb4" offset="0"/><stop stop-color="#475b63" offset="1"/></linearGradient><linearGradient id="k" x1="212.72" x2="213.34" y1="621.6" y2="642.18" gradientUnits="userSpaceOnUse" xlink:href="#j"/></defs><g transform="translate(-384.57-499.8)"><rect x="398.57" y="509.8" width="1" height="16" color="#000000" color-rendering="auto" fill="url(#j)" image-rendering="auto" shape-rendering="auto" text-rendering="auto"/><rect x="390.57" y="534.8" width="36" height="7" rx="0" fill="url(#a)"/><rect x="390.57" y="535.8" width="36" height="5" fill="url(#b)" opacity=".5"/><rect x="390.57" y="540.8" width="36" height="1" fill="#936e39"/><g color="#000000" color-rendering="auto" image-rendering="auto" shape-rendering="auto" text-rendering="auto"><circle cx="399.01" cy="527.8" r="3" fill="url(#c)"/><g fill="url(#j)"><rect x="404.57" y="509.8" width="1" height="16"/><rect x="410.57" y="509.8" width="1" height="16"/></g><circle cx="405.01" cy="527.8" r="3" fill="url(#g)"/><circle transform="rotate(2.9187)" cx="450.77" cy="503.85" r="3" fill="url(#e)" opacity=".358"/><circle transform="rotate(2.9187)" cx="452.08" cy="503.26" r="3" fill="url(#f)" opacity=".214"/><rect transform="rotate(-20.008)" x="216.52" y="621.45" width="1" height="16" fill="url(#k)"/><circle transform="rotate(17.919)" cx="564.28" cy="370.97" r="3" fill="url(#h)"/><circle cx="411.01" cy="527.8" r="3" fill="url(#i)"/><path d="m393.57 534.8h2v-25h26v25h2v-27h-30z" fill="url(#d)"/></g></g></svg>
