<?xml version="1.0" encoding="UTF-8"?>
<svg id="v" version="1.1" viewBox="0 0 128 128" xmlns="http://www.w3.org/2000/svg" xmlns:xlink="http://www.w3.org/1999/xlink"><defs id="w"><linearGradient id="j"><stop id="x" stop-color="#cc4418" offset="0"/><stop id="y" stop-color="#d76519" stop-opacity=".84298" offset=".5"/><stop id="z" stop-color="#e2a834" stop-opacity=".6281" offset=".75"/><stop id="aa" stop-color="#f1f76b" stop-opacity=".14876" offset="1"/></linearGradient><linearGradient id="s" x1="18.776" x2="18.203" y1="4.0378" y2="45.962" gradientTransform="matrix(1.086 0 0 -1.086 37.559 27.15)" gradientUnits="userSpaceOnUse"><stop id="ab" stop-color="#fff" offset="0"/><stop id="ac" stop-color="#fff" stop-opacity="0" offset="1"/></linearGradient><linearGradient id="i" x1="71.204" x2="71.204" y1="6.2376" y2="44.341" gradientTransform="matrix(2.9459 0 0 2.9459 -147.32 -74.701)" gradientUnits="userSpaceOnUse"><stop id="ad" stop-color="#fff" offset="0"/><stop id="ae" stop-color="#fff" stop-opacity=".23529" offset=".50776"/><stop id="af" stop-color="#fff" stop-opacity=".15686" offset=".83457"/><stop id="ag" stop-color="#fff" stop-opacity=".39216" offset="1"/></linearGradient><linearGradient id="g" x1="20.58" x2="24.274" y1="10.775" y2="9.8622" gradientUnits="userSpaceOnUse" xlink:href="#o" spreadMethod="reflect"/><linearGradient id="o"><stop id="ah" stop-color="#e6cde2" offset="0"/><stop id="ai" stop-color="#e6cde2" stop-opacity="0" offset="1"/></linearGradient><linearGradient id="f" x1="17.495" x2="21.047" y1="11.2" y2="9.7956" gradientUnits="userSpaceOnUse" xlink:href="#n" spreadMethod="reflect"/><linearGradient id="n"><stop id="aj" stop-color="#c1cbe4" offset="0"/><stop id="ak" stop-color="#c1cbe4" stop-opacity="0" offset="1"/></linearGradient><linearGradient id="e" x1="14.085" x2="16.994" y1="13.046" y2="10.732" gradientUnits="userSpaceOnUse" xlink:href="#m" spreadMethod="reflect"/><linearGradient id="m"><stop id="al" stop-color="#c4ebdd" offset="0"/><stop id="am" stop-color="#c4ebdd" stop-opacity="0" offset="1"/></linearGradient><linearGradient id="d" x1="12.372" x2="14.609" y1="16.188" y2="13.462" gradientUnits="userSpaceOnUse" xlink:href="#l" spreadMethod="reflect"/><linearGradient id="l"><stop id="an" stop-color="#ebeec7" offset="0"/><stop id="ao" stop-color="#ebeec7" stop-opacity="0" offset="1"/></linearGradient><linearGradient id="c" x1="10.609" x2="9.7298" y1="17.886" y2="20.613" gradientUnits="userSpaceOnUse" xlink:href="#k" spreadMethod="reflect"/><linearGradient id="k"><stop id="ap" stop-color="#fcd9cd" offset="0"/><stop id="aq" stop-color="#fcd9cd" stop-opacity="0" offset="1"/></linearGradient><linearGradient id="r" x1="21.448" x2="21.448" y1="15.5" y2="32.509" gradientTransform="matrix(2.5381 0 0 2.5381 3.0854 -60.915)" gradientUnits="userSpaceOnUse"><stop id="ar" stop-color="#aaa" offset="0"/><stop id="as" stop-color="#d4d4d4" offset="1"/></linearGradient><linearGradient id="q" x1="12.274" x2="35.391" y1="32.416" y2="14.203" gradientTransform="matrix(0 3.1715 -3.1715 0 137.26 -76.115)" gradientUnits="userSpaceOnUse"><stop id="at" stop-color="#dedcde" offset="0"/><stop id="au" stop-color="#f0f0f0" offset=".5"/><stop id="av" stop-color="#d2d2d2" offset="1"/></linearGradient><linearGradient id="p" x1="-21.916" x2="-21.916" y1="3" y2="45.033" gradientTransform="matrix(2.7073 0 0 2.7073 135.11 -64.976)" gradientUnits="userSpaceOnUse"><stop id="aw" stop-color="#b4b4b4" offset="0"/><stop id="ax" stop-color="#969696" offset="1"/></linearGradient><radialGradient id="h" cx="23.335" cy="41.636" r="22.627" gradientTransform="matrix(2.6517 0 0 .79542 2.125 8.8818)" gradientUnits="userSpaceOnUse"><stop id="ay" offset="0"/><stop id="az" stop-opacity="0" offset="1"/></radialGradient><filter id="t" x="-.13075" y="-.038933" width="1.2615" height="1.0779"><feGaussianBlur id="ba" stdDeviation="1.05"/></filter><linearGradient id="b" x1="92.727" x2="116" y1="40.909" y2="40.909" gradientTransform="translate(3.4375,-65.75)" gradientUnits="userSpaceOnUse" xlink:href="#j"/><radialGradient id="a" cx="94.25" cy="73" r="1.25" gradientUnits="userSpaceOnUse"><stop id="bb" stop-color="#efdc44" offset="0"/><stop id="bc" stop-color="#de876b" offset=".33333"/><stop id="bd" stop-color="#cc4418" offset="1"/></radialGradient><filter id="u" x="-.4823" y="-.4823" width="1.9646" height="1.9646"><feGaussianBlur id="be" stdDeviation="0.50239234"/></filter></defs><g id="bf" transform="translate(0,64)"><path id="bg" d="m124 42c3e-3 9.9408-26.861 18-60 18-33.139 0-60.003-8.0592-60-18-0.0030903-9.9408 26.861-18 60-18 33.139 0 60.003 8.0591 60 18z" fill="url(#h)" fill-rule="evenodd" opacity=".3"/><path id="bh" d="m119.5 9e-6c0-30.763-24.737-55.5-55.5-55.5-30.763 0-55.5 24.737-55.5 55.5-5.4e-6 30.763 24.737 55.5 55.5 55.5 30.763-1e-5 55.5-24.737 55.5-55.5zm-35.195 0c0 11.176-8.9051 20.305-20.305 20.305-11.623 0-20.305-9.3546-20.305-20.305 0-11.174 8.2342-20.305 20.305-20.305 12.071 0 20.305 9.3523 20.305 20.305z" fill="url(#q)" fill-rule="nonzero" stroke="url(#p)" stroke-miterlimit="4" stroke-width="1"/><path id="bi" d="m64-21c-11.592 0-21 9.408-21 21 0 11.592 9.408 21 21 21s21-9.408 21-21c0-11.592-9.408-21-21-21zm0 10.5c5.796 0 10.5 4.704 10.5 10.5s-4.704 10.5-10.5 10.5-10.5-4.704-10.5-10.5 4.704-10.5 10.5-10.5z" enable-background="accumulate" fill="#fff" fill-rule="nonzero" opacity=".5"/><path id="bj" d="m64-20.305c-11.208 0-20.305 9.0966-20.305 20.305s9.0966 20.305 20.305 20.305 20.305-9.0966 20.305-20.305-9.0966-20.305-20.305-20.305zm0 10.152c5.6041 0 10.152 4.5483 10.152 10.152s-4.5483 10.152-10.152 10.152-10.152-4.5483-10.152-10.152 4.5483-10.152 10.152-10.152z" enable-background="accumulate" fill="none" stroke="url(#r)" stroke-linejoin="round" stroke-miterlimit="4" stroke-width="1"/><g id="bk" transform="matrix(2.732 0 0 2.732 -1.0901 -65.074)" fill-rule="nonzero"><path id="bl" transform="matrix(.9996 .028243 -.028243 .9996 .69241 -.67083)" d="m15.857 5.7308 4.7681 10.613c1.0354-0.45856 2.1703-0.71875 3.375-0.71875 0.03206 0 0.06178-3.6e-4 0.09375 0l0.01426-11.62c-2.9422-0.070687-5.543 0.65729-8.2511 1.726z" fill="url(#g)" opacity=".8"/><path id="bm" d="m12.121 7.906 6.931 9.3601c0.91311-0.66976 1.9659-1.1671 3.1426-1.4252 0.03132-0.0069 0.06026-0.01359 0.09157-0.02009l-2.4295-11.395c-2.889 0.56132-5.3195 1.8556-7.7357 3.4797z" fill="url(#f)" opacity=".8"/><path id="bn" d="m8.2524 11.647 9.2137 7.1558c0.70865-0.88326 1.5969-1.6361 2.6667-2.19 0.02847-0.01474 0.05469-0.02872 0.08325-0.0431l-5.3502-10.319c-2.6453 1.2899-4.7 3.2018-6.6135 5.3959z" fill="url(#e)" opacity=".8"/><path id="bo" d="m5.6329 16.074c7.1748 2.2422 7.8503 7.0315 12.777 1.7541l-7.9097-8.696c-2.2213 1.9306-3.5867 4.3272-4.8671 6.9418z" fill="url(#d)" opacity=".8"/><path id="bp" d="m7.1553 13.193c-1.1831 1.752-1.9077 3.6364-2.5251 5.6439l11.339 2.9754c0.21551-0.763 0.51805-1.5148 0.96875-2.2188 0.01729-0.027 0.04496-0.06702 0.0625-0.09375l-9.8447-6.3068z" fill="url(#c)" opacity=".8"/></g><g id="bq" transform="matrix(-2.7073 0 0 -2.7073 128.98 64.951)" fill-rule="nonzero"><path id="br" transform="matrix(.9996 .028243 -.028243 .9996 .69241 -.67083)" d="m15.857 5.7308 4.7681 10.613c1.0354-0.45856 2.1703-0.71875 3.375-0.71875 0.03206 0 0.06178-3.6e-4 0.09375 0l0.01426-11.62c-2.9422-0.070687-5.543 0.65729-8.2511 1.726z" fill="url(#g)" opacity=".8"/><path id="bs" d="m12.121 7.906 6.931 9.3601c0.91311-0.66976 1.9659-1.1671 3.1426-1.4252 0.03132-0.0069 0.06026-0.01359 0.09157-0.02009l-2.4295-11.395c-2.889 0.56132-5.3195 1.8556-7.7357 3.4797z" fill="url(#f)" opacity=".8"/><path id="bt" d="m8.2524 11.647 9.2137 7.1558c0.70865-0.88326 1.5969-1.6361 2.6667-2.19 0.02847-0.01474 0.05469-0.02872 0.08325-0.0431l-5.3502-10.319c-2.6453 1.2899-4.7 3.2018-6.6135 5.3959z" fill="url(#e)" opacity=".8"/><path id="bu" d="m5.6329 16.074c7.1748 2.2422 7.8503 7.0315 12.777 1.7541l-7.9097-8.696c-2.2213 1.9306-3.5867 4.3272-4.8671 6.9418z" fill="url(#d)" opacity=".8"/><path id="bv" d="m7.1553 13.193c-1.1831 1.752-1.9077 3.6364-2.5251 5.6439l11.339 2.9754c0.21551-0.763 0.51805-1.5148 0.96875-2.2188 0.01729-0.027 0.04496-0.06702 0.0625-0.09375l-9.8447-6.3068z" fill="url(#c)" opacity=".8"/></g><path id="bw" d="m118.5-0.001923c0 30.1-24.402 54.502-54.499 54.502-30.1 0-54.501-24.402-54.501-54.502 0-30.099 24.401-54.498 54.501-54.498 30.097 0 54.499 24.399 54.499 54.498v0z" color="#000000" enable-background="accumulate" fill="none" opacity=".55" stroke="url(#i)" stroke-linecap="round" stroke-linejoin="round" stroke-miterlimit="4" stroke-width="1"/><path id="bx" d="m64 21.5c-11.917 0-21.5-9.5829-21.5-21.5s9.5829-21.5 21.5-21.5c11.917 0 21.5 9.5829 21.5 21.5s-9.5829 21.5-21.5 21.5z" fill="none" opacity=".4" stroke="url(#s)" stroke-miterlimit="4" stroke-width="1"/><g id="by" transform="matrix(.99936 -.035725 .035725 .99936 .045918 2.1447)" fill="none" opacity=".1" stroke="#000" stroke-miterlimit="4"><path id="bz" transform="matrix(.91957 0 0 .98047 4.9914 -63.97)" d="m92.631 65.244c0 14.742-12.742 26.693-28.461 26.693s-28.461-11.951-28.461-26.693 12.742-26.693 28.461-26.693 28.461 11.951 28.461 26.693z" stroke-width="15.435"/><path id="ca" transform="matrix(.68171 1.5858 1.5857 -.68163 107.99 -19.406)" d="m14.364-38.61c6.248 7.7003 4.93 19.328-2.7459 25.552-7.879 6.3887-19.774 5.0388-26.138-2.8157-6.5293-8.0578-5.1477-20.219 2.8855-26.724 8.2365-6.6699 20.665-5.2565 27.311 2.9553 6.6227 8.1831 5.471 20.478-2.4261 27.393" stroke-linejoin="miter" stroke-width="1.7381"/></g><path id="cb" d="m98.165 7.5227 19.273-64.727v0 0" fill="none" filter="url(#t)" opacity=".5" stroke="url(#b)" stroke-linecap="round" stroke-linejoin="miter" stroke-miterlimit="4" stroke-width="4"/><path id="cc" d="m98.165 7.5227 19.273-64.727v0 0" fill="none" stroke="url(#b)" stroke-linecap="round" stroke-linejoin="miter" stroke-miterlimit="4" stroke-width="1.5"/><path id="cd" transform="matrix(1.2 0 0 1.2 -14.964 -79.85)" d="m95.5 73c0 0.69036-0.55964 1.25-1.25 1.25s-1.25-0.55964-1.25-1.25 0.55964-1.25 1.25-1.25 1.25 0.55964 1.25 1.25z" fill="url(#a)" filter="url(#u)"/><path id="ce" transform="matrix(1.2 0 0 1.2 -14.964 -79.85)" d="m95.5 73c0 0.69036-0.55964 1.25-1.25 1.25s-1.25-0.55964-1.25-1.25 0.55964-1.25 1.25-1.25 1.25 0.55964 1.25 1.25z" fill="url(#a)"/></g></svg>
