<?xml version="1.0" encoding="UTF-8"?>
<svg id="a" version="1.1" viewBox="0 0 64 64" xmlns="http://www.w3.org/2000/svg" xmlns:xlink="http://www.w3.org/1999/xlink"><g id="b"><path id="c" transform="matrix(1.0735 0 0 1.0735 -.44119 -1.5288)" d="m33.353 16.233a11.397 11.397 0 1 1-22.794 0 11.397 11.397 0 1 1 22.794 0z" fill="#d30000"/><path id="d" transform="matrix(1.0735 0 0 1.0735 28.239 -1.5288)" d="m33.353 16.233a11.397 11.397 0 1 1-22.794 0 11.397 11.397 0 1 1 22.794 0z" fill="#d30000"/><rect id="e" x="33.489" y="39.536" width="7.3289" height="9.6992" fill="#000" stroke="#000" stroke-linecap="round" stroke-linejoin="round" stroke-miterlimit="4" stroke-width="16.928"/><path id="f" transform="matrix(.68932 .83314 -.66795 .85979 23.875 -11.424)" d="m9.4811 40.89 20.931-5.2109-5.9529 20.732z" fill="#0000d6" stroke="#0000d6" stroke-linecap="round" stroke-linejoin="round" stroke-miterlimit="4" stroke-width="5"/></g></svg>
