<?xml version="1.0" encoding="UTF-8"?>
<svg clip-rule="evenodd" fill-rule="evenodd" stroke-linejoin="round" stroke-miterlimit="1.4142" version="1.1" viewBox="0 0 502 64" xml:space="preserve" xmlns="http://www.w3.org/2000/svg"><g fill="#fff" fill-rule="nonzero"><path d="m71.952 45.455v-10.912h5.289l1.209 5.592c0.081 0.403 0.187 0.675 0.318 0.816s0.378 0.282 0.74 0.423c2.136 0.605 4.182 0.907 6.136 0.907h0.182c6.146 0 9.219-2.328 9.219-6.983 0-1.188-0.227-2.221-0.68-3.098-0.454-0.876-1.164-1.602-2.131-2.176s-1.874-1.028-2.721-1.36c-0.846-0.333-2.015-0.701-3.506-1.104-4.05-1.188-6.811-2.267-8.282-3.234-3.184-2.096-4.776-5.33-4.776-9.703 0-4.332 1.476-7.602 4.428-9.808 2.953-2.207 6.806-3.31 11.562-3.31 4.091 0 8.071 0.756 11.94 2.267v11.154l-5.32-0.484-0.877-5.138c-0.121-0.625-0.322-1.018-0.604-1.179-1.109-0.665-2.932-0.998-5.471-0.998-2.761 0-4.862 0.569-6.303 1.708-1.44 1.139-2.161 2.715-2.161 4.73 0 0.907 0.187 1.733 0.559 2.479 0.373 0.746 0.786 1.345 1.24 1.799 0.453 0.453 1.153 0.906 2.1 1.36 0.947 0.453 1.748 0.791 2.403 1.012 0.655 0.222 1.607 0.524 2.857 0.907 1.652 0.504 2.902 0.907 3.748 1.209s1.96 0.826 3.34 1.572 2.423 1.531 3.128 2.358c0.706 0.826 1.335 1.939 1.89 3.34 0.554 1.4 0.831 2.987 0.831 4.76 0 4.615-1.557 8.021-4.67 10.217-3.114 2.197-7.149 3.295-12.106 3.295-2.599 0-5.194-0.257-7.783-0.771-2.59-0.514-4.499-1.063-5.728-1.647z"/><path d="m105.05 19.127 0.575-4.02h10.7v20.675c0 2.237 0.282 3.859 0.846 4.867 0.565 1.007 1.663 1.511 3.295 1.511 2.922 0 5.793-1.441 8.615-4.322v-16.595c0-0.504-0.051-0.836-0.152-0.997-0.1-0.162-0.382-0.283-0.846-0.363l-2.962-0.756 0.544-4.02h10.549v26.388c0 0.746 0.262 1.159 0.786 1.239l3.234 0.423v3.96h-9.793l-0.544-3.778-0.182-0.061c-3.828 3.063-7.687 4.595-11.576 4.595-3.265 0-5.567-0.837-6.907-2.509-1.34-1.673-2.01-4.353-2.01-8.04v-16.081c0-0.504-0.056-0.836-0.167-0.997-0.11-0.162-0.387-0.283-0.831-0.363l-3.174-0.756z"/><path d="m141.01 4.346 0.605-3.959h10.791v17.44c3.506-2.216 6.881-3.325 10.126-3.325h0.09c3.627 0 6.504 1.27 8.63 3.809s3.189 6.469 3.189 11.788c0 6.106-1.169 10.595-3.506 13.466-2.338 2.872-5.562 4.308-9.673 4.308-3.708 0-6.791-1.219-9.249-3.658h-0.242l-0.363 2.902h-6.861c0.524-2.962 0.786-5.834 0.786-8.615v-0.302-31.375c0-0.705-0.262-1.139-0.786-1.3l-3.537-1.179zm11.456 34.217c2.519 2.358 5.078 3.536 7.678 3.536 4.614 0 6.922-3.858 6.922-11.576 0-3.305-0.57-5.834-1.708-7.587-1.139-1.753-2.736-2.63-4.791-2.63-2.519 0-5.219 1.018-8.101 3.053v15.204z"/><path d="m176.74 47.117v-3.899l3.537-0.484c0.403-0.04 0.67-0.146 0.801-0.317s0.196-0.479 0.196-0.922v-34.67c0-0.705-0.272-1.139-0.816-1.3l-3.537-1.179 0.635-3.959h10.821v41.108c0 0.504 0.056 0.826 0.167 0.967 0.11 0.141 0.387 0.232 0.831 0.272l3.476 0.423v3.96h-16.111z"/><path d="m196.42 47.117v-3.899l3.718-0.484c0.403-0.04 0.67-0.146 0.801-0.317s0.197-0.479 0.197-0.922v-19.95c0-0.705-0.273-1.138-0.817-1.299l-3.415-1.179 0.635-3.96h10.7v26.388c0 0.504 0.055 0.826 0.166 0.967s0.388 0.232 0.831 0.272l3.658 0.423v3.96h-16.474zm2.841-42.71c0-1.451 0.403-2.569 1.21-3.355 0.806-0.786 1.954-1.179 3.445-1.179 1.451 0 2.59 0.393 3.416 1.179s1.239 1.904 1.239 3.355c0 1.491-0.413 2.635-1.239 3.431-0.826 0.795-1.965 1.193-3.416 1.193-1.491 0-2.639-0.398-3.445-1.193-0.807-0.796-1.21-1.94-1.21-3.431z"/><path d="m215.95 19.067 0.634-3.96h9.159l0.484 3.476 0.272 0.061c3.627-2.761 7.153-4.142 10.579-4.142 3.506 0 5.965 1.24 7.375 3.718 3.829-2.478 7.416-3.718 10.761-3.718 3.265 0 5.597 0.907 6.998 2.721 1.4 1.813 2.1 4.433 2.1 7.859v16.413c0 0.504 0.051 0.826 0.152 0.967 0.1 0.141 0.382 0.232 0.846 0.272l3.385 0.423v3.96h-15.718v-3.899l3.235-0.423c0.665-0.081 0.987-0.494 0.967-1.24v-14.569c0-2.096-0.257-3.703-0.771-4.821s-1.557-1.678-3.128-1.678c-2.519 0-5.048 0.827-7.587 2.479 0.161 0.947 0.242 2.106 0.242 3.476v15.053c0 0.504 0.05 0.826 0.151 0.967 0.1 0.141 0.372 0.232 0.816 0.272l2.871 0.423v3.96h-15.234v-3.899l3.265-0.423c0.403-0.041 0.67-0.156 0.801-0.348 0.131-0.191 0.196-0.489 0.196-0.892v-14.236c0-1.109-0.03-1.995-0.091-2.66-0.06-0.665-0.201-1.361-0.423-2.086-0.221-0.725-0.614-1.264-1.179-1.617-0.564-0.353-1.279-0.529-2.146-0.529-2.438 0-4.997 1.058-7.677 3.174v17.894c0 0.504 0.055 0.826 0.166 0.967s0.388 0.232 0.831 0.272l3.023 0.423v3.96h-15.083v-3.899l2.962-0.484c0.403-0.04 0.67-0.146 0.801-0.317s0.196-0.479 0.196-0.922v-19.95c0-0.705-0.272-1.138-0.816-1.299l-3.415-1.179z"/><path d="m271.11 30.946c0-5.36 1.36-9.441 4.08-12.242 2.721-2.801 6.227-4.202 10.519-4.202 8.746 0 13.119 4.968 13.119 14.902 0 1.229-0.061 2.428-0.182 3.597h-19.979c0.161 3.023 0.901 5.305 2.221 6.847 1.32 1.541 3.421 2.312 6.302 2.312 2.6 0 5.633-0.726 9.099-2.176l1.995 4.957c-3.789 1.934-7.748 2.912-11.879 2.932-10.197-0.02-15.295-5.663-15.295-16.927zm7.617-3.083h12.997c0-5.32-2.045-7.98-6.136-7.98-1.894 0-3.471 0.66-4.73 1.98s-1.97 3.32-2.131 6z"/></g><g fill="#fff" fill-rule="nonzero"><path d="m323.45 13.686v-11.395h38.206v11.395h-5.138l-0.998-5.38c-0.08-0.463-0.413-0.695-0.997-0.695h-8.343v33.823c0 0.464 0.051 0.761 0.151 0.892 0.101 0.131 0.383 0.217 0.847 0.257l6.801 0.514v4.02h-22.429v-4.02l6.378-0.423c0.403-0.041 0.67-0.136 0.801-0.287 0.131-0.152 0.197-0.469 0.197-0.953v-33.823h-8.282c-0.585 0-0.917 0.232-0.998 0.695l-0.997 5.38h-5.199z"/><path d="m360.72 30.946c0-5.36 1.36-9.441 4.081-12.242 2.72-2.801 6.227-4.202 10.519-4.202 8.745 0 13.118 4.968 13.118 14.902 0 1.229-0.06 2.428-0.181 3.597h-19.98c0.161 3.023 0.902 5.305 2.222 6.847 1.319 1.541 3.42 2.312 6.302 2.312 2.599 0 5.632-0.726 9.098-2.176l1.995 4.957c-3.788 1.934-7.748 2.912-11.879 2.932-10.197-0.02-15.295-5.663-15.295-16.927zm7.617-3.083h12.998c0-5.32-2.046-7.98-6.136-7.98-1.894 0-3.471 0.66-4.731 1.98-1.259 1.32-1.969 3.32-2.131 6z"/><path d="m392.35 47.117v-3.899l2.841-0.544c0.705-0.121 1.32-0.494 1.844-1.119l8.493-10.156-8.493-10.519c-0.464-0.544-0.957-0.896-1.481-1.058l-2.6-0.695 0.635-4.02h14.297v4.02l-3.476 0.514 5.743 7.345 6.257-7.345-3.778-0.514 0.635-4.02h12.695v4.02l-2.721 0.635c-0.584 0.201-1.148 0.594-1.692 1.179l-7.98 9.4 8.917 11.154c0.584 0.665 1.138 1.028 1.662 1.088l3.113 0.574v3.96h-15.869v-3.96l3.477-0.574-6.016-7.859-6.377 7.859 3.778 0.574v3.96h-13.904z"/><path d="m429.66 19.376v-4.383c2.317-0.282 4.05-1.189 5.199-2.72 1.148-1.532 1.934-2.939 2.357-5.841h4.504v8.07c0 0.404 0.171 0.605 0.514 0.605h8.977v5.078h-9.491v16.836c0 1.935 0.323 3.295 0.967 4.081 0.645 0.786 1.814 1.179 3.507 1.179 1.572 0 3.365-0.353 5.38-1.058l1.421 4.473c-3.144 1.451-6.197 2.177-9.159 2.177-3.224 0-5.567-0.726-7.028-2.177-1.461-1.45-2.191-3.717-2.191-6.801v-18.075c0-0.403-0.213-0.519-0.508-0.703-1.012-0.634-4.449-0.741-4.449-0.741z"/></g><path d="m35.995 26.563c0-0.548-0.405-0.864-0.902-0.707l-34.191 10.842c-0.498 0.158-0.902 0.731-0.902 1.278v11.081c0 0.548 0.404 0.865 0.902 0.707l34.191-10.841c0.497-0.158 0.902-0.731 0.902-1.279v-11.081z" fill="url(#a)"/><path d="m0 26.21c0 0.548 0.404 1.121 0.902 1.279l34.196 10.843c0.498 0.158 0.902-0.159 0.902-0.706v-11.082c0-0.547-0.404-1.12-0.902-1.278l-34.196-10.843c-0.498-0.158-0.902 0.158-0.902 0.706v11.081z" fill="#ff9800"/><path d="m35.995 3.793c0-0.548-0.405-0.865-0.902-0.707l-34.191 10.841c-0.498 0.158-0.902 0.731-0.902 1.279v11.081c0 0.548 0.404 0.864 0.902 0.707l34.191-10.842c0.497-0.158 0.902-0.731 0.902-1.278v-11.081z" fill="#ff9800"/><defs><linearGradient id="a" x2="1" gradientTransform="matrix(3.0823 -10.306 8.7238 3.5658 19.839 42.498)" gradientUnits="userSpaceOnUse"><stop stop-color="#ff9700" offset="0"/><stop stop-color="#f48e00" offset=".53"/><stop stop-color="#d06f00" offset="1"/></linearGradient></defs></svg>
