<?xml version="1.0" encoding="UTF-8"?>
<svg id="d" version="1.1" viewBox="0 0 48 48" xmlns="http://www.w3.org/2000/svg" xmlns:xlink="http://www.w3.org/1999/xlink"><defs id="e"><style id="f" type="text/css">.ColorScheme-Text { color:#f2f2f2 }</style><style id="g" type="text/css">.ColorScheme-Text { color:#f2f2f2 }</style><style id="h" type="text/css">.ColorScheme-Text { color:#f2f2f2 }</style><linearGradient id="c" x1="11.875" x2="32.125" y1="-15.125" y2="33.5" gradientUnits="userSpaceOnUse"><stop id="i" stop-color="#fff" offset="0"/><stop id="j" stop-color="#fff" stop-opacity="0" offset="1"/></linearGradient><linearGradient id="b" x1="-331.57" x2="-383.57" y1="549.74" y2="499.8" gradientTransform="translate(383.57 -499.8)" gradientUnits="userSpaceOnUse"><stop id="k" stop-color="#0b5dbd" offset="0"/><stop id="l" stop-color="#0dc4fb" offset="1"/></linearGradient><linearGradient id="a" x1="18" x2="37" y1="13" y2="33" gradientUnits="userSpaceOnUse"><stop id="m" offset="0"/><stop id="n" stop-opacity="0" offset="1"/></linearGradient></defs><rect id="o" x="4" y="4" width="40" height="40" rx="1" ry="1" clip-rule="nonzero" color="#000000" color-rendering="auto" enable-background="accumulate" fill="url(#b)" fill-rule="nonzero" image-rendering="auto" shape-rendering="auto" solid-color="#000000" stroke-linejoin="round" stroke-miterlimit="4" stroke-width=".5" style="filter-blend-mode:normal;filter-gaussianBlur-deviation:0;isolation:auto;mix-blend-mode:normal"/><path id="p" d="m5 4c-0.554 0-1 0.44599-1 1v7 6 16 9c0 0.55401 0.446 1 1 1h1 2 2v-8h28v8h2 2 1c0.554 0 1-0.44599 1-1v-38c0-0.55401-0.446-1-1-1h-1v2h-2v-2h-2v6 2h-28v-2-6h-2v2h-2v-2zm1 4h2v2h-2zm34 0h2v2h-2zm-34 4h2v2h-2zm34 0h2v2h-2zm-34 4h2v2h-2zm4-2h28v2 18h-28v-2-16zm30 2h2v2h-2zm-34 4h2v2h-2zm34 0h2v2h-2zm-34 4h2v2h-2zm34 0h2v2h-2zm-34 4h2v2h-2zm34 0h2v2h-2zm-34 4h2v2h-2zm34 0h2v2h-2zm-34 4h2v2h-2zm34 0h2v2h-2zm-34 4h2v2h-2zm34 0h2v2h-2z" fill="#000" opacity=".656" stroke-linejoin="round" stroke-width=".5"/><path id="q" d="m4 42v1c0 0.55401 0.446 1 1 1h38c0.554 0 1-0.44599 1-1v-1c0 0.55401-0.446 1-1 1h-38c-0.554 0-1-0.44599-1-1z" fill="#000" opacity=".3"/><path id="r" d="m4 6v-1c0-0.55401 0.446-1 1-1h38c0.554 0 1 0.44599 1 1v1c0-0.55401-0.446-1-1-1h-38c-0.554 0-1 0.44599-1 1z" fill="#fff" opacity=".3"/><path id="s" d="m28 14-12 12v4l14 14h13c0.554 0 1-0.44599 1-1v-13l-16-16z" fill="url(#a)" fill-rule="evenodd" opacity=".242"/><path id="t" d="m28 14-11.992 11.992h-4e-3v4.01h4.01v-4e-3l11.992-11.992-2e-3 -2e-3 2e-3 -2e-3 -4-4-2e-3 2e-3zm-1.998 3.412 2.59 2.59-7.588 7.588v-1.59h-2v-1.59zm-7.998 7.998v1.59h2v1.59l-0.41 0.41h-1.59l-1-1v-1.59zm5 3.59-1 1h10v-1z" clip-rule="nonzero" color="#000000" color-rendering="auto" enable-background="accumulate" fill="#fff" fill-rule="evenodd" image-rendering="auto" opacity=".872" shape-rendering="auto" solid-color="#000000" stroke-linejoin="miter" stroke-miterlimit="4" stroke-width="1" style="isolation:auto;mix-blend-mode:normal"/><g id="u"><g id="v" transform="translate(-1e-5,1e-5)"><rect id="w" x="4" y="4" width="40" height="40" rx="1" ry="1" fill="url(#c)" opacity=".436"/></g></g><rect id="x" x="18" y="31" width="12" height="1" rx="0" ry="1" clip-rule="nonzero" color="#000000" color-rendering="auto" enable-background="accumulate" fill="#fff" fill-rule="evenodd" image-rendering="auto" opacity=".872" shape-rendering="auto" solid-color="#000000" style="isolation:auto;mix-blend-mode:normal"/></svg>
