<?xml version="1.0" encoding="UTF-8"?>
<svg version="1.1" viewBox="0 0 48 48" xmlns="http://www.w3.org/2000/svg" xmlns:xlink="http://www.w3.org/1999/xlink"><defs><linearGradient id="a"><stop stop-color="#f11c1c" offset="0"/><stop stop-color="#e05e4c" offset="1"/></linearGradient><linearGradient id="e" x2="0" y1="544.8" y2="503.8" gradientTransform="translate(-384.56 -499.91)" gradientUnits="userSpaceOnUse" xlink:href="#a"/><linearGradient id="d" x1="428.03" x2="386.83" y1="532.2" y2="524.42" gradientTransform="matrix(-.5 -.86603 .86603 -.5 -225.79 640.97)" gradientUnits="userSpaceOnUse"><stop stop-color="#44484c" offset="0"/><stop stop-color="#1d1e1e" offset="1"/></linearGradient><linearGradient id="c" x2="0" y1="544.8" y2="503.8" gradientTransform="matrix(-.5 -.86603 .86603 -.5 -225.89 641.02)" gradientUnits="userSpaceOnUse" xlink:href="#a"/><linearGradient id="b" x1="7.669" x2="42.224" y1="14.513" y2="34.463" gradientUnits="userSpaceOnUse"><stop offset="0"/><stop stop-opacity="0" offset="1"/></linearGradient><linearGradient id="f" x1="18.437" x2="13.059" y1="38.559" y2="31.145" gradientUnits="userSpaceOnUse" xlink:href="#a"/></defs><path d="m27.25 4.0098s-6.3984 0.034677-6.7051 0.044922c-0.73347 0.10876-1.5566 0.71875-1.5566 0.71875 0.0185 0.00532 0.037714-0.025593 0.058594-0.021484 0.56512-0.33759 1.4505-0.40385 2.0039 0.1543l1.2148 2.1035 2.084 3.6094 2.6289 4.5527c-1.1874 0.67794-3.4648 2-3.4648 2l10.928 2.9277 2.9316-10.922s-3.4693 1.9898-3.4668 1.9941l-3.6172-6.2637c-0.4058-0.57204-1.0737-0.78738-1.6484-0.88281-0.12833-0.018282-0.73439-0.024997-1.3906-0.015625zm-12.006 14.742-10.926 2.9238s3.4604 2.0082 3.4629 2.0039l-3.6172 6.2637c-0.2925 0.63745-0.14416 1.3237 0.060547 1.8691 0.048335 0.12028 0.34541 0.64926 0.68164 1.2129 0 0 3.2284 5.5228 3.3906 5.7832 0.46093 0.58082 1.4004 0.99023 1.4004 0.99023-0.00464-0.01868-0.039992-0.018922-0.046875-0.039062-0.57492-0.32062-1.0758-1.0561-0.86914-1.8145l1.2148-2.1035 2.084-3.6094 2.6289-4.5527c1.1808 0.68938 3.4629 2 3.4629 2l-2.9277-10.928zm15.756 9.248-8 8 7.9941 8s0.010819-4 0.005859-4h7.2324c0.6983-0.06541 1.2179-0.53633 1.5879-0.98633 0.08-0.102 0.39094-0.62427 0.71094-1.1973 0 0 3.168-5.5574 3.3125-5.8281 0.27255-0.68958 0.15625-1.707 0.15625-1.707-0.01386 0.01336 0.004234 0.044517-0.009766 0.060547 0.0098 0.6582-0.37665 1.458-1.1367 1.6582h-2.4297-4.168-5.2559c0.0066-1.3673 0-4 0-4z" fill="url(#d)"/><path d="m13.004 14.54 6.7713 3.924c0.01892-0.01323 0.61996-1.0242 1.3302-2.2541 0.71085-1.2268 1.7365-2.9863 2.2691-3.9058l0.0035-2e-3 0.97116-1.6819-3.2985-5.7132c-0.55847-0.56324-1.4508-0.59077-2.0217-0.14567-0.35991 0.28862-0.47973 0.42708-0.79998 0.95839-0.45274 0.74983-5.2207 8.8177-5.2294 8.8227" fill="url(#c)"/><path d="m38.361 20.115-6.611 4.002c2e-3 0.023 0.577 1.049 1.287 2.279 0.707 1.229 1.718 2.997 2.248 3.918v4e-3l0.971 1.682h6.597c0.767-0.202 1.237-0.961 1.137-1.678-0.07-0.456-0.13-0.629-0.43-1.172-0.423-0.767-5.199-9.03-5.199-9.04" fill="url(#e)"/><path d="m20.998 39.998 0.002165-7.9975s-6.1117-0.0017-8.9195 0l-3.2985 5.9452c-0.20856 0.76524 0.21375 1.5518 0.88469 1.8237 0.42991 0.16738 0.60973 0.20192 1.23 0.21361 0.87578 0.017172 10.097 0.012534 10.105 0.017534" fill="url(#f)"/><path d="m13.744 13.289c-0.16749 0.28246-0.74291 1.2532-0.74414 1.2539l0.003906-0.003907 6.7715 3.9238c0.010589-0.007405 0.45178-0.76579 0.74414-1.2617l-6.7754-3.9121zm1.5 5.4629-10.926 2.9238s3.4604 2.0082 3.4629 2.0039l-0.0097656 0.017578 6.9277 4 0.009765-0.017578c1.1808 0.68938 3.4629 2 3.4629 2l-2.9277-10.928zm16.871 5.1445-0.36523 0.2207c2e-3 0.022999 0.57711 1.0493 1.2871 2.2793 0.707 1.229 1.718 2.997 2.248 3.918v0.003906l0.9707 1.6816h-5.2559c0.0066-1.3673 0-4 0-4l-5.7734 5.7734 10.783 6.2266h2.2227c0.6983-0.06541 1.2179-0.53633 1.5879-0.98633 0.08-0.102 0.39094-0.62427 0.71094-1.1973 0 0 3.168-5.5574 3.3125-5.8281 0.16129-0.40809 0.18216-0.86179 0.17578-1.2207l-11.904-6.8711z" fill="url(#b)" opacity=".2"/></svg>
