<?xml version="1.0" encoding="UTF-8"?>
<svg id="a" version="1.1" viewBox="0 0 128 128" xmlns="http://www.w3.org/2000/svg" xmlns:osb="http://www.openswatchbook.org/uri/2009/osb" xmlns:xlink="http://www.w3.org/1999/xlink"><rect id="b" x="-2.1316e-14" y="-5.6843e-14" width="128" height="128" fill="#fff" stroke-miterlimit="4" stroke-width="0"/><path id="c" d="m0 64h128" fill="none" stroke="#000" stroke-linejoin="miter" stroke-miterlimit="4" stroke-width="2"/><path id="d" d="m64 0v128" fill="none" stroke="#000" stroke-linejoin="miter" stroke-miterlimit="4" stroke-width="2"/><path id="e" d="m120 32a24 24 0 1 1-48 0 24 24 0 1 1 48 0z" fill="#000" stroke="#000" stroke-miterlimit="4" stroke-width="2"/><path id="f" d="m32 72v48" fill="none" stroke="#000" stroke-linejoin="miter" stroke-miterlimit="4" stroke-width="20"/><path id="g" d="m8 96h48" fill="none" stroke="#000" stroke-linejoin="miter" stroke-miterlimit="4" stroke-width="20"/><path id="h" d="m12 52h40v-40h-40z" fill="none" stroke="#000" stroke-linejoin="miter" stroke-miterlimit="4" stroke-width="8"/><path id="i" d="m72 120 24-48 24 48z" fill="none" stroke="#000" stroke-linejoin="miter" stroke-width="1px"/><path id="j" d="m96 72v48" fill="none" stroke="#000" stroke-linejoin="miter" stroke-width="1px"/><path id="k" d="m96.57 97.087c0-12.283 0.03514-22.296 0.07809-22.25 0.04295 0.04583 5.083 10.096 11.2 22.333l11.122 22.25h-11.2-11.2v-22.333z" fill="#000" stroke="#000" stroke-miterlimit="4" stroke-width="1.4936"/></svg>
