<?xml version="1.0" encoding="UTF-8"?>
<svg id="r" width="256" height="256" version="1.1" viewBox="0 0 67.733 67.733" xmlns="http://www.w3.org/2000/svg" xmlns:xlink="http://www.w3.org/1999/xlink"><defs id="s"><linearGradient id="c" x1="12.805" x2="35.787" y1="24.671" y2="24.671" gradientTransform="matrix(1.4446 0 0 1.4446 -1.6709 -.29387)" gradientUnits="userSpaceOnUse"><stop id="t" stop-color="#9e9e9e" offset="0"/><stop id="u" stop-color="#cbcbcb" offset=".45812"/></linearGradient><linearGradient id="q" x1="1.9137" x2="14.083" y1="26.78" y2="26.78" gradientTransform="matrix(1.4446 0 0 1.4446 -1.6709 -.29387)" gradientUnits="userSpaceOnUse"><stop id="v" stop-color="#e2e2e2" offset="0"/><stop id="w" stop-color="#cecece" offset=".51575"/></linearGradient><linearGradient id="b" x1="3.1043" x2="12.501" y1="17.376" y2="17.376" gradientTransform="matrix(1.4446 0 0 1.4446 -1.6709 -.29387)" gradientUnits="userSpaceOnUse"><stop id="x" stop-color="#b43a34" offset=".48488"/><stop id="y" stop-color="#ac2621" offset="1"/></linearGradient><linearGradient id="e" x1="3.0639" x2="12.188" y1="34.264" y2="34.264" gradientTransform="matrix(1.4446 0 0 1.4446 -1.31 .03857)" gradientUnits="userSpaceOnUse"><stop id="z" stop-color="#99a8b6" offset="0"/><stop id="aa" stop-color="#77889b" offset="1"/></linearGradient><linearGradient id="d" x1="24.532" x2="35.896" y1="17.333" y2="17.333" gradientTransform="matrix(1.4446 0 0 1.4446 -1.6709 -.29387)" gradientUnits="userSpaceOnUse"><stop id="ab" stop-color="#c93f3f" offset="0"/><stop id="ac" stop-color="#792121" offset="1"/></linearGradient><linearGradient id="j" x1="13.818" x2="27.111" y1="33.982" y2="33.982" gradientTransform="matrix(1.5041 0 0 1.4615 -2.5417 -.99299)" gradientUnits="userSpaceOnUse"><stop id="ad" stop-color="#314e6c" offset=".12556"/><stop id="ae" stop-color="#728395" offset=".56939"/></linearGradient><linearGradient id="k" x1="5.0466" x2="32.527" y1="9.2296" y2="9.2296" gradientTransform="matrix(1.4446 0 0 1.4446 -1.2921 -.46105)" gradientUnits="userSpaceOnUse"><stop id="af" stop-color="#414141" offset=".14037"/><stop id="ag" stop-color="#2b2b2b" offset=".61966"/></linearGradient><linearGradient id="m" x1="43.865" x2="53.841" y1="55.242" y2="50.159" gradientTransform="matrix(1.4446 0 0 1.4446 -1.7849 -.32443)" gradientUnits="userSpaceOnUse"><stop id="ah" stop-color="#e999ac" offset=".27852"/><stop id="ai" stop-color="#dd646e" offset=".42874"/><stop id="aj" stop-color="#d75f7c" offset=".48842"/><stop id="ak" stop-color="#cf85b5" offset=".59482"/></linearGradient><linearGradient id="l" x1="48.4" x2="56.89" y1="54.397" y2="46.835" gradientTransform="matrix(1.4446 0 0 1.4446 -31.09 20.319)" gradientUnits="userSpaceOnUse"><stop id="al" stop-color="#cf85b5" offset=".41895"/><stop id="am" stop-color="#dd646e" offset=".6464"/><stop id="an" stop-color="#f6d8c7" offset="1"/></linearGradient><linearGradient id="a" x1="48" x2="65.453" y1="7.5477" y2="32.729" gradientTransform="matrix(1.4446 0 0 1.4446 -1.6709 -.29387)" gradientUnits="userSpaceOnUse"><stop id="ao" stop-color="#dd9879" offset=".2278"/><stop id="ap" stop-color="#f2cfbd" offset=".34918"/><stop id="aq" stop-color="#f7dbca" offset=".5"/><stop id="ar" stop-color="#e4aeab" offset=".75"/></linearGradient><linearGradient id="n" x1="14.911" x2="39.245" y1="-8.9669" y2="-16.242" gradientTransform="matrix(1.4446 0 0 1.4446 -1.6709 -.29387)" gradientUnits="userSpaceOnUse"><stop id="as" stop-color="#f2b29a" offset=".3003"/><stop id="at" stop-color="#f0cbb6" offset=".37966"/><stop id="au" stop-color="#db9676" offset=".50017"/><stop id="av" stop-color="#f3b49c" stop-opacity=".8" offset="1"/></linearGradient><linearGradient id="o" x1="-4.5445" x2="1.4627" y1="25.278" y2="6.4266" gradientTransform="matrix(1.4446 0 0 1.4446 -1.6709 -.29387)" gradientUnits="userSpaceOnUse"><stop id="aw" stop-color="#f2b39a" offset=".30564"/><stop id="ax" stop-color="#a93b3f" offset=".49497"/><stop id="ay" stop-color="#db614e" offset=".59292"/><stop id="az" stop-color="#f3b49c" offset=".75923"/></linearGradient><linearGradient id="p" x1="24.955" x2="36.608" y1="34.095" y2="34.095" gradientTransform="matrix(1.4446 0 0 1.4446 -1.6967 -.44484)" gradientUnits="userSpaceOnUse"><stop id="ba" stop-color="#f2af96" offset="0"/><stop id="bb" stop-color="#e999ac" offset="1"/></linearGradient><linearGradient id="i" x1="18.355" x2="35.684" y1="38.014" y2="38.014" gradientTransform="matrix(1.4446 0 0 1.4446 -1.6709 -.29387)" gradientUnits="userSpaceOnUse"><stop id="bc" stop-color="#95abc1" offset="0"/><stop id="bd" stop-color="#85abd1" offset="1"/></linearGradient><linearGradient id="f" x1="30.446" x2="33.492" y1="43.59" y2="43.59" gradientTransform="matrix(1.4446 0 0 1.4446 -1.6709 -.29387)" gradientUnits="userSpaceOnUse"><stop id="be" stop-color="#849299" offset="0"/><stop id="bf" stop-color="#5d6872" offset="1"/></linearGradient><linearGradient id="g" x1="21.849" x2="30.544" y1="43.726" y2="43.726" gradientTransform="matrix(1.4446 0 0 1.4446 -1.6709 -.29387)" gradientUnits="userSpaceOnUse"><stop id="bg" stop-color="#c6c6c6" offset=".25877"/><stop id="bh" stop-color="#a3a3a3" offset=".48278"/><stop id="bi" stop-color="#747474" offset="1"/></linearGradient><linearGradient id="h" x1="20.753" x2="33.243" y1="35.721" y2="35.721" gradientTransform="matrix(1.4446 0 0 1.4446 -1.6709 -.29387)" gradientUnits="userSpaceOnUse"><stop id="bj" stop-color="#fff" offset=".51365"/><stop id="bk" stop-color="#cbcbcb" offset="1"/></linearGradient></defs><g id="bl"><path id="bm" d="m17.429 61.69 30.892-19.586 0.43653-32.384-30.924 14.927z" fill="url(#c)"/><path id="bn" d="m2.54 51.285 0.033306-35.586 15.305 8.8552-0.45236 36.794z" fill="url(#q)" stroke="#afafaf" stroke-linejoin="bevel" stroke-opacity=".53726" stroke-width="1.4446"/><path id="bo" d="m1.8429 15.65 31.086-14.732 16.522 8.8534-31.425 14.876z" fill="#b5b5b5" fill-opacity=".99608"/><path id="bp" d="m3.5363 18.858 0.00119 4.9358 12.111 6.9639 0.01747-4.9596z" fill="url(#b)"/><path id="bq" d="m3.9977 39.06-0.15365 12.325 11.849 7.9126 0.02894-13.151z" fill="url(#e)"/><path id="br" d="m34.741 40.072-0.24417-23.213 14.949-7.0852-0.45662 28.876z" fill="url(#d)"/><path id="bs" d="m19.491 45.285-0.0202 14.19 17.853-10.082-3.0467-8.4419-0.1009-3.5751z" fill="url(#j)"/><path id="bt" d="m6.765 15.532 25.595-12.062 11.788 6.3986-25.563 12.381z" fill="url(#k)"/><text id="bu" transform="matrix(1.5815 -.84185 .34653 1.0929 -.66028 -1.0551)" x="3.2817423" y="43.274239" font-family="'Latin Modern Sans Demi Cond'" font-size="2.5524px" font-style="oblique" font-weight="600" stroke-width=".47856" style="inline-size:8.66973;line-height:1.25;white-space:pre" xml:space="preserve"><tspan id="bv" x="3.2817423" y="43.274239">Synaptic</tspan></text><path id="bw" d="m62.605 51.682a16.668 16.668 0 0 1-11.424 5.4346l-0.91287-16.643z" fill="url(#m)" style="paint-order:fill markers stroke"/><path id="bx" transform="rotate(-32.511)" d="m35.844 68.626a16.668 16.668 0 0 1-13.967 9.1334l-0.91287-16.643z" fill="url(#l)" style="paint-order:fill markers stroke"/><path id="by" d="m54.023 24.234a16.668 16.668 0 0 1 12.839 14.596l-16.586 1.645z" fill="url(#a)" style="paint-order:fill markers stroke"/><path id="bz" d="m38.627 28.553a16.668 16.668 0 0 1 15.962-4.1779l-4.3139 16.1z" fill="url(#n)" style="paint-order:fill markers stroke"/><path id="ca" d="m34.451 45.71a16.668 16.668 0 0 1 4.9628-17.878l10.862 12.643z" fill="url(#o)" fill-rule="evenodd" style="paint-order:fill markers stroke"/><path id="cb" d="m52.056 57.046a16.668 16.668 0 0 1-17.702-11.555l15.896-5.0141z" fill="url(#p)" style="paint-order:fill markers stroke"/><ellipse id="cc" cx="50.92" cy="40.469" rx="5.2527" ry="5.1486" fill="#fbf1fa" fill-opacity=".96863" stroke-width=".29049"/><ellipse id="cd" cx="50.855" cy="40.572" rx="2.6635" ry="2.6108" fill-opacity="0" stroke="#313131" stroke-width="1.1413"/><ellipse id="ce" cx="50.302" cy="40.433" rx="16.669" ry="16.733" fill="none" stroke="#313131" stroke-width=".65298"/><path id="cf" d="m27.193 66.91-2.1313-2.0846v-22.623h24.602v24.841h-3.9986v-1.7742h-3.3717v1.6541l-14.28-0.0047z" fill="url(#i)" stroke="#232323" stroke-linejoin="miter" stroke-width=".43339"/><path id="cg" d="m45.99 65.808h0.65117v-6.2612h-4.2561v5.5169h3.4953l-0.0034 0.73328z" fill="url(#f)"/><path id="ch" d="m29.966 66.758v-7.9255h12.417l0.0093 6.1659-0.30614 0.0051 0.0052 1.7213z" fill="url(#g)" stroke="#474747" stroke-linejoin="miter" stroke-width=".14446"/><path id="ci" d="m33.742 61.058v3.0848h1.5713v-3.0919z" fill="#626d78" stroke="#232323" stroke-linejoin="miter" stroke-width=".43339"/><path id="cj" d="m28.599 45.19v12.242h17.465v-12.181z" fill="url(#h)" stroke="#636363" stroke-linejoin="miter" stroke-width=".57785"/><path id="ck" d="m30.721 49.332h12.975l0.41513 0.01583z" fill="none" stroke="#99afc5" stroke-linejoin="miter" stroke-width="1.0112"/><path id="cl" d="m30.741 53.226h12.975l0.41513 0.01583z" fill="#99afc5" stroke="#99afc5" stroke-linejoin="miter" stroke-width="1.0112"/></g></svg>
