<?xml version="1.0" encoding="UTF-8"?>
<svg viewBox="0 0 48 48" xmlns="http://www.w3.org/2000/svg" xmlns:xlink="http://www.w3.org/1999/xlink"><defs><linearGradient id="a" x2="0" y1="543.8" y2="503.8" gradientUnits="userSpaceOnUse"><stop stop-color="#c6cdd1" offset="0"/><stop stop-color="#e0e5e7" offset="1"/></linearGradient><linearGradient id="b" x2="0" y1="13" y2="33" gradientTransform="matrix(1 0 0-1 384.57 545.8)" gradientUnits="userSpaceOnUse"><stop stop-color="#42a603" offset="0"/><stop stop-color="#78da06" offset="1"/></linearGradient><linearGradient id="c" x2="0" y1="42" y2="6" gradientUnits="userSpaceOnUse" xlink:href="#b"/><linearGradient id="d" x1="410.57" x2="428.57" y1="539.8" y2="523.8" gradientUnits="userSpaceOnUse"><stop stop-color="#42a603" offset="0"/><stop stop-color="#78da06" stop-opacity="0" offset="1"/></linearGradient><linearGradient id="e" x1="402.57" x2="418.57" y1="520.8" y2="536.8" gradientTransform="translate(-384.57-499.8)" gradientUnits="userSpaceOnUse"><stop stop-color="#292c2f" offset="0"/><stop stop-opacity="0" offset="1"/></linearGradient></defs><g transform="translate(-384.57-499.8)"><rect x="388.57" y="503.8" width="40" height="40" rx="20" fill="url(#a)" stroke-opacity=".55" stroke-width="2.8"/><path transform="translate(384.57 499.8)" d="m28 13-4 20 9 9c5.685-1.796 7.313-4.989 9.531-10.469l1.469-3.531z" fill="url(#e)" fill-rule="evenodd" opacity=".2"/><g stroke-opacity=".55" stroke-width="2.8"><path d="m408.57 532.8-9-9h5v-11h8v11h5z" fill="url(#b)"/><path transform="translate(384.57 499.8)" d="m24 42c9.972 0 18-8.03 18-18 0-9.972-8.03-18-18-18v2c8.864 0 16 7.136 16 16s-7.136 16-16 16z" fill="#808080" opacity=".5"/><path d="m408.57 505.8c-9.972 0-18 8.03-18 18 0 9.972 8.03 18 18 18 9.972 0 18-8.03 18-18 0-9.972-8.03-18-18-18m0 2c8.864 0 16 7.136 16 16s-7.136 16-16 16-16-7.136-16-16 7.136-16 16-16" fill="url(#d)"/><path transform="translate(384.57 499.8)" d="m24 42v-2c-8.864 0-16-7.136-16-16s7.136-16 16-16v-2c-9.972 0-18 8.03-18 18 0 9.972 8.03 18 18 18" fill="url(#c)"/><path transform="translate(384.57 499.8)" d="m4.01 23.5c-.004.167-.012.332-.012.5 0 11.08 8.92 20 20 20 11.08 0 20-8.92 20-20 0-.168-.008-.333-.012-.5-.264 10.847-9.08 19.5-19.988 19.5-10.912 0-19.724-8.653-19.988-19.5" fill="#99a1a7"/></g></g></svg>
