<?xml version="1.0" encoding="UTF-8"?>
<svg id="f" version="1.1" viewBox="0 0 64 64" xmlns="http://www.w3.org/2000/svg" xmlns:xlink="http://www.w3.org/1999/xlink"><defs id="g"><linearGradient id="a" x1="339.67" x2="357.4" y1="472.3" y2="502.19" gradientTransform="translate(-317.67 -444.3)" gradientUnits="userSpaceOnUse"><stop id="h" stop-color="#fff" offset="0"/><stop id="i" stop-color="#fff" stop-opacity="0" offset="1"/></linearGradient><linearGradient id="e" x1="376.82" x2="337.82" y1="549.95" y2="519.95" gradientTransform="translate(-315.82 -491.95)" gradientUnits="userSpaceOnUse"><stop id="j" offset="0"/><stop id="k" stop-color="#147cdc" stop-opacity="0" offset="1"/></linearGradient><linearGradient id="d" x1="390.57" x2="442.57" y1="498.3" y2="498.3" gradientTransform="translate(-384.57 -480.8)" gradientUnits="userSpaceOnUse"><stop id="l" stop-color="#fff" offset="0"/><stop id="m" stop-color="#fff" stop-opacity=".4876" offset="1"/></linearGradient><linearGradient id="c" x1="396.57" x2="426.57" y1="498.8" y2="511.8" gradientTransform="translate(-384.57 -482.8)" gradientUnits="userSpaceOnUse"><stop id="n" stop-color="#f5f5f5" offset="0"/><stop id="o" stop-color="#f9f9f9" offset="1"/></linearGradient><linearGradient id="b" x1="357.49" x2="384.42" y1="494.85" y2="541.5" gradientTransform="translate(-326.57 -483.8)" gradientUnits="userSpaceOnUse"><stop id="p" stop-opacity=".39815" offset="0"/><stop id="q" offset="1"/></linearGradient><style id="r" type="text/css">.ColorScheme-Highlight {
        color:#3593e6;
      }</style></defs><path id="s" class="ColorScheme-Highlight" d="m4 6.0001v27c0 0.55373 0.446 1 1 1h54c0.55399 0 1-0.44627 1-1v-21.99c0-3e-3 -2e-3 -6e-3 -2e-3 -0.01h2e-3v-1h-28l-4-4h-24z" fill="currentColor"/><path id="t" d="m4 6.0001v27c0 0.55373 0.446 1 1 1h54c0.55399 0 1-0.44627 1-1v-21.99c0-3e-3 -2e-3 -6e-3 -2e-3 -0.01h2e-3v-1h-28l-4-4h-24z" fill="url(#b)" opacity=".35"/><rect id="u" x="6" y="15" width="52" height="15" rx="1" ry="1" color="#000000" color-rendering="auto" fill="url(#c)" image-rendering="auto" shape-rendering="auto" solid-color="#000000" style="isolation:auto;mix-blend-mode:normal"/><path id="v" d="m3 28v1h20l3-5-4 4z" fill="#fff" fill-rule="evenodd" opacity=".3"/><path id="w" d="m28 6 3 5h29v-1h-28z" fill="#fff" fill-rule="evenodd" opacity=".3"/><path id="x" d="m7 15c-0.55401 0-1 0.446-1 1v1c0-0.554 0.44599-1 1-1h50c0.55401 0 1 0.446 1 1v-1c0-0.554-0.44599-1-1-1z" color="#000000" color-rendering="auto" fill="url(#d)" image-rendering="auto" opacity=".85" shape-rendering="auto" solid-color="#000000" style="isolation:auto;mix-blend-mode:normal"/><path id="y" class="ColorScheme-Highlight" d="m26 24-4 4h-19v1h2e-3c-5e-5 4e-3 -2e-3 8e-3 -2e-3 0.0117v27.988c0 0.554 0.44599 1 1 1h56c0.55401 0 1-0.446 1-1v-33z" fill="currentColor"/><path id="z" d="m26 24-4 4h-19v1h2e-3c-5e-5 4e-3 -2e-3 8e-3 -2e-3 0.0117v27.988c0 0.554 0.44599 1 1 1h56c0.55401 0 1-0.446 1-1v-33z" fill="url(#a)" opacity=".1"/><path id="aa" d="m26 24-4 4h-19v1h2e-3c-5e-5 4e-3 -2e-3 8e-3 -2e-3 0.0117v27.988c0 0.554 0.44599 1 1 1h56c0.55401 0 1-0.446 1-1v-33z" fill="url(#e)" opacity=".3"/><path id="ab" d="m3 28v1h20l3-5-4 4z" fill="#fff" fill-rule="evenodd" opacity=".3"/><path id="ac" d="m37.903 32.621c-2.8195 0.0187-6.3109 0.81893-10.557 3.123-9.7045 5.2666-12.34 14.618-19.424 22.223l33.176 0.0195c0.40751-7.7868 4.2051-10.101 10.117-16.902 0 0 3.7438-3.3079 2.9082-6.4219-0.88465-3.2968-7.7354 0.70531-8.5 0.21484-1.5813-1.0143-4.0957-2.2798-7.7207-2.2559zm15.439 3c-1.7727 2.3236-3.9733 4.572-6.9648 7.3281-2.9176 2.6879-7.9309 6.5123-8.1641 6.1094-0.0635-0.10965 5.1429-4.0893 7.6582-6.4121 2.7118-2.5042 5.0791-4.7183 7.4707-7.0254zm-21.48 11.66c0.75939 0 1.375 0.75552 1.375 1.6875s-0.61561 1.6875-1.375 1.6875-1.375-0.75552-1.375-1.6875 0.61561-1.6875 1.375-1.6875z" fill="#fff" fill-opacity=".4" stop-color="#000000" style="-inkscape-stroke:none;font-variation-settings:normal"/><path id="ad" d="m4 58c-0.55401 0-1-0.446-1-1v-1c0 0.554 0.44599 1 1 1h56c0.55401 0 1-0.446 1-1v1c0 0.554-0.44599 1-1 1z" color="#000000" color-rendering="auto" image-rendering="auto" opacity=".3" shape-rendering="auto" solid-color="#000000" style="isolation:auto;mix-blend-mode:normal"/></svg>
