<?xml version="1.0" encoding="UTF-8"?>
<!DOCTYPE svg  PUBLIC '-//W3C//DTD SVG 20010904//EN'  'http://www.w3.org/TR/2001/REC-SVG-20010904/DTD/svg10.dtd'>
<svg id="l" width="48pt" height="48pt" enable-background="new 0 0 256 256" overflow="visible" viewBox="0 0 256 256" xml:space="preserve" xmlns="http://www.w3.org/2000/svg" xmlns:x="adobe:ns:meta/" xmlns:xlink="http://www.w3.org/1999/xlink" xmlns:xml="http://www.w3.org/XML/1998/namespace">
  <defs id="m">








  




  <linearGradient id="a">
    <stop id="n" stop-color="#cfc" offset="0"/>




    <stop id="o" stop-color="#9f6" offset=".4101"/>




    <stop id="p" stop-color="#6c3" offset="1"/>




  </linearGradient>




  




  




  




  




  




  <linearGradient id="k" x1="50.099" x2="112.73" y1="75.943" y2="138.57" gradientUnits="userSpaceOnUse">
      <stop id="q" stop-color="#900" offset="0"/>






      <stop id="r" stop-color="#7C0000" offset=".4551"/>






      <stop id="s" stop-color="#600000" offset="1"/>






      






      






      






      






      






    </linearGradient>




  




  <linearGradient id="i" x1=".36139" x2=".26733" y1=".44" y2=".65333" spreadMethod="reflect"><stop id="t" stop-color="#ff999b" offset="0"/><stop id="u" stop-color="#ff4e4e" offset="1"/></linearGradient>




  <linearGradient id="e" x1="50.099" x2="112.73" y1="75.943" y2="138.57" gradientUnits="userSpaceOnUse"><stop id="v" stop-color="#093" offset="0"/><stop id="w" stop-color="#006A00" offset=".4551"/><stop id="x" stop-color="#033" offset="1"/></linearGradient>




  <linearGradient id="d" x1="-2.6281e-16" y1=".5" y2=".5" xlink:href="#a"/>




  <linearGradient id="c" x1=".56436" x2=".72277" y1=".54667" y2=".22" spreadMethod="reflect"><stop id="y" stop-color="#a1ffa2" offset="0"/><stop id="z" stop-color="#4ed64e" offset="1"/></linearGradient>




<linearGradient id="j" x1="50.019" x2="93.079" y1="90.537" y2="88.27" gradientUnits="userSpaceOnUse" xlink:href="#a"/>



<linearGradient id="h" x1="50.019" x2="93.079" y1="90.537" y2="88.27" gradientUnits="userSpaceOnUse"><stop id="aa" stop-color="#60baff" offset="0"/><stop id="ab" stop-color="#1674cd" offset="1"/></linearGradient>



<linearGradient id="g" x1="50.099" x2="112.73" y1="75.943" y2="138.57" gradientUnits="userSpaceOnUse"><stop id="ac" stop-color="#1a2993" offset="0"/><stop id="ad" stop-color="#003044" offset=".4719"/><stop id="ae" stop-color="#034" offset="1"/></linearGradient>



<linearGradient id="f" x1=".36139" x2=".26733" y1=".44" y2=".65333" spreadMethod="reflect"><stop id="af" stop-color="#2f9eff" offset="0"/><stop id="ag" stop-color="#2077e0" offset="1"/></linearGradient>



</defs>
  
  
  <g id="ah">
  

  

  

  
  
  
  
  
    
    
    
    
    
    
    <rect id="ai" width="256" height="256" fill="none"/>



    <g id="aj" transform="matrix(2.4916 0 0 2.6092 -608.29 -703.95)">


















<path id="ak" d="m299.78 316.81-38.65 13.001c-1.108 0.37299-1.81 0.97143-1.81 1.624v17.794c0 0.65842 0.673 1.2757 1.799 1.6463l38.69 12.778c1.412 0.46636 3.273 0.46249 4.678-0.01016l35.576-11.618c1.107-0.37299 1.768-0.98401 1.768-1.6371 0-2.5988 0.62287-4.7304-0.31144-5.1492 0.05191-1.0399-1.9205-0.21113-2.18-1.0953-0.15572-0.05366-0.46715-6.8032 0.31144-6.7011 0-0.98972 2.3358 0.04489 2.18-0.78911 0.72668-0.41875 0.05191-4.1076 0-6.2392 0-0.65987-1.4536-1.4324-2.5806-1.804l-34.797-11.812c-1.411-0.46491-3.271-0.46104-4.673 0.01113z" opacity=".2"/>




<path id="al" d="m297.72 316.47-38.651 13.001c-1.108 0.37299-1.809 0.97143-1.809 1.624v17.793c0 0.6594 0.673 1.2762 1.798 1.6473l38.223 12.466c1.412 0.46734 3.274 0.46298 4.678-0.00968l37.288-12.707c1.108-0.37299 1.77-0.9845 1.77-1.6376 0-1.8591 0.46716-2.9395-0.31144-3.5529 0.20762-0.87285-1.9205-0.81138-2.0243-1.3728-0.31143-0.20285-0.62287-8.0359 0.15572-8.083 0.10381-0.77381 2.0762-0.30188 2.18-0.91997 0.46715-0.76904 0-3.0952 0-4.6429 0-0.65987-1.9218-1.5881-3.0488-1.9597l-35.575-11.656c-1.412-0.46491-3.271-0.46104-4.673 0.01064z" opacity=".2"/>




<path id="am" d="m295.41 315.23-37.25 12.533c-1.108 0.37299-1.809 0.97143-1.809 1.624-2.0243 5.8273-3.4258 10.565 0 18.883 0 0.6594 0.673 1.2762 1.799 1.6473l37.289 12.154c1.412 0.46734 3.273 0.46298 4.677-0.00968l36.821-12.24c1.107-0.37299 1.768-0.9845 1.768-1.6376 0-1.3789 0.46715-3.8479 0-4.1368 0.0519-0.74137-1.6091-0.39273-1.5572-1.4455-0.31144-0.01469-0.62287-8.5938 0-9.2314 0.20762-0.54844 1.3496-0.16256 1.5572-0.711 0.67478-0.60034-0.05191-2.4464 0-3.6696 0-0.65987-0.675-1.2767-1.802-1.6482l-36.821-12.123c-1.411-0.46491-3.27-0.46104-4.672 0.01064z" fill="url(#e)"/>




<g id="an" transform="matrix(1 0 0 .48378 216.36 286.75)">
      <polygon id="ao" points="81.399 115.51 42.708 89.156 81.399 62.256 120.09 88.603" fill="#fff"/>






    </g>




<g id="ap" transform="matrix(1 0 0 .48378 216.36 286.75)" fill="url(#d)">
      






      <polygon id="aq" points="81.399 115.51 42.708 89.156 81.399 62.256 120.09 88.603" fill="url(#j)"/>






    </g>





      <path id="ar" d="m297.76 360.42 38.69-13.019v-1.6014l-4.0487-1.6014-0.93431-11.3 4.983-1.6456v-1.6455l-38.69 13.019c-2.4224 5.7111-3.083 10.982 0 17.794z" fill="#093"/>






    <path id="as" d="m297.45 359.02 37.444-12.396 0.15572-14.835-37.6 12.552c-2.4224 5.7111-3.0831 7.8674 0 14.68z" fill="#fff"/>




<g id="at" transform="matrix(1 0 0 .48378 216.36 286.75)">
      <path id="au" d="m81.399 152.3-38.691-26.413c-3.8929-15.479-2.18-26.451 0-36.78l38.696 26.412c-2.2038 10.44-3.9673 21.334-5e-3 36.781z" fill="url(#c)" fill-rule="nonzero"/>






    </g>




<path id="av" d="m259.24 330.42 38.382 12.928c-3.3767 7.047-2.5425 10.27 0.24693 16.436" fill="none" stroke="#033" stroke-linecap="round" stroke-linejoin="round" stroke-width="1pt"/>





</g>



    <g id="aw" transform="matrix(2.4916 0 0 2.6092 -411.97 -668.6)">
  

  

  

  
    

    

    

    

    

    

    

    

    

    <path id="ax" transform="translate(-99.036 19.153)" d="m310.68 263.55-38.65 13.001c-1.108 0.37299-1.81 0.97143-1.81 1.624v17.794c0 0.65842 0.673 1.2757 1.799 1.6463l38.69 12.778c1.412 0.46636 3.273 0.46249 4.678-0.01016l35.576-11.618c1.107-0.37299 1.768-0.98401 1.768-1.6371 0-2.5988 0.62287-4.7304-0.31144-5.1492 0.05191-1.0399-1.9205-0.21113-2.18-1.0953-0.15572-0.05366-0.46715-6.8032 0.31144-6.7011 0-0.98972 2.3358 0.04489 2.18-0.78911 0.72668-0.41875 0.05191-4.1076 0-6.2392 0-0.65987-1.4536-1.4324-2.5806-1.804l-34.797-11.812c-1.411-0.46491-3.271-0.46104-4.673 0.01113z" opacity=".2"/>






    

    <path id="ay" transform="translate(-99.036 19.153)" d="m308.62 263.22-38.651 13.001c-1.108 0.37299-1.809 0.97143-1.809 1.624v17.793c0 0.6594 0.673 1.2762 1.798 1.6473l38.223 12.466c1.412 0.46734 3.274 0.46298 4.678-0.00968l37.288-12.707c1.108-0.37299 1.77-0.9845 1.77-1.6376 0-1.8591 0.46716-2.9395-0.31144-3.5529 0.20762-0.87285-1.9205-0.81138-2.0243-1.3728-0.31143-0.20285-0.62287-8.0359 0.15572-8.083 0.10381-0.77381 2.0762-0.30188 2.18-0.91997 0.46715-0.76904 0-3.0952 0-4.6429 0-0.65987-1.9218-1.5881-3.0488-1.9597l-35.575-11.656c-1.412-0.46491-3.271-0.46104-4.673 0.01064z" opacity=".2"/>






    

    

    

    

    

    

    

    

    

    <path id="az" transform="translate(-99.036 19.153)" d="m306.31 261.97-37.25 12.533c-1.108 0.37299-1.809 0.97143-1.809 1.624-2.0243 5.8273-3.4258 10.565 0 18.883 0 0.6594 0.673 1.2762 1.799 1.6473l37.289 12.154c1.412 0.46734 3.273 0.46298 4.677-0.00968l36.821-12.24c1.107-0.37299 1.768-0.9845 1.768-1.6376 0-1.3789 0.46715-3.8479 0-4.1368 0.0519-0.74137-1.6091-0.39273-1.5572-1.4455-0.31144-0.01469-0.62287-8.5938 0-9.2314 0.20762-0.54844 1.3496-0.16256 1.5572-0.711 0.67478-0.60034-0.05191-2.4464 0-3.6696 0-0.65987-0.675-1.2767-1.802-1.6482l-36.821-12.123c-1.411-0.46491-3.27-0.46104-4.672 0.01064z" fill="url(#g)"/>






    <g id="ba" transform="matrix(1 0 0 .48378 128.23 252.64)">
      <polygon id="bb" points="81.399 115.51 42.708 89.156 81.399 62.256 120.09 88.603" fill="#fff"/>






    </g>






    <g id="bc" transform="matrix(1 0 0 .48378 128.23 252.64)">
      






      <polygon id="bd" points="81.399 115.51 42.708 89.156 81.399 62.256 120.09 88.603" fill="url(#h)"/>






    </g>






    

    <g id="be" transform="matrix(1 0 0 .48378 128.23 252.64)">
      <path id="bf" d="m81.399 152.3 38.69-26.911v-3.3101l-4.0487-3.3101-0.93431-23.358 4.983-3.4014v-3.4014l-38.69 26.911c-2.4224 11.805-3.0831 22.7 0 36.781z" fill="#0056d5"/>






    <path id="bg" d="m81.088 149.4 37.444-25.623 0.15572-30.665-37.6 25.945c-2.4224 11.805-3.0831 16.262 0 30.343z" fill="#fff"/>




</g>






    <g id="bh" transform="matrix(1 0 0 .48378 128.23 252.64)">
      <path id="bi" d="m81.399 152.3-38.691-26.413c-3.8929-15.479-2.18-26.451 0-36.78l38.696 26.412c-2.2038 10.44-3.9673 21.334-5e-3 36.781z" fill="url(#f)"/>






    </g>






    

    

    

    

    

    

    

    

  

<path id="bj" transform="translate(-99.036 19.153)" d="m270.14 277.17 38.382 12.928c-3.3767 7.047-2.5425 10.27 0.24693 16.436" fill="none" stroke="#034" stroke-linecap="round" stroke-linejoin="round" stroke-width="1pt"/>




</g>



    <g id="bk" transform="matrix(2.4916 0 0 2.6092 -625.36 -668.19)">
  

  

  

  
    

    

    

    

    

    

    

    

    

    <path id="bl" d="m310.68 263.55-38.65 13.001c-1.108 0.37299-1.81 0.97143-1.81 1.624v17.794c0 0.65842 0.673 1.2757 1.799 1.6463l38.69 12.778c1.412 0.46636 3.273 0.46249 4.678-0.01016l35.576-11.618c1.107-0.37299 1.768-0.98401 1.768-1.6371 0-2.5988 0.62287-4.7304-0.31144-5.1492 0.05191-1.0399-1.9205-0.21113-2.18-1.0953-0.15572-0.05366-0.46715-6.8032 0.31144-6.7011 0-0.98972 2.3358 0.04489 2.18-0.78911 0.72668-0.41875 0.05191-4.1076 0-6.2392 0-0.65987-1.4536-1.4324-2.5806-1.804l-34.797-11.812c-1.411-0.46491-3.271-0.46104-4.673 0.01113z" opacity=".2"/>






    

    <path id="bm" d="m308.62 263.22-38.651 13.001c-1.108 0.37299-1.809 0.97143-1.809 1.624v17.793c0 0.6594 0.673 1.2762 1.798 1.6473l38.223 12.466c1.412 0.46734 3.274 0.46298 4.678-0.00968l37.288-12.707c1.108-0.37299 1.77-0.9845 1.77-1.6376 0-1.8591 0.46716-2.9395-0.31144-3.5529 0.20762-0.87285-1.9205-0.81138-2.0243-1.3728-0.31143-0.20285-0.62287-8.0359 0.15572-8.083 0.10381-0.77381 2.0762-0.30188 2.18-0.91997 0.46715-0.76904 0-3.0952 0-4.6429 0-0.65987-1.9218-1.5881-3.0488-1.9597l-35.575-11.656c-1.412-0.46491-3.271-0.46104-4.673 0.01064z" opacity=".2"/>






    

    

    

    

    

    

    

    

    

    <path id="bn" d="m306.31 261.97-37.25 12.533c-1.108 0.37299-1.809 0.97143-1.809 1.624-2.0243 5.8273-3.4258 10.565 0 18.883 0 0.6594 0.673 1.2762 1.799 1.6473l37.289 12.154c1.412 0.46734 3.273 0.46298 4.677-0.00968l36.821-12.24c1.107-0.37299 1.768-0.9845 1.768-1.6376 0-1.3789 0.46715-3.8479 0-4.1368 0.0519-0.74137-1.6091-0.39273-1.5572-1.4455-0.31144-0.01469-0.62287-8.5938 0-9.2314 0.20762-0.54844 1.3496-0.16256 1.5572-0.711 0.67478-0.60034-0.05191-2.4464 0-3.6696 0-0.65987-0.675-1.2767-1.802-1.6482l-36.821-12.123c-1.411-0.46491-3.27-0.46104-4.672 0.01064z" fill="url(#k)"/>






    <g id="bo" transform="matrix(1 0 0 .48378 227.27 233.49)">
      <polygon id="bp" points="81.399 115.51 42.708 89.156 81.399 62.256 120.09 88.603" fill="#fff"/>






    </g>






    <g id="bq" transform="matrix(1 0 0 .48378 227.27 233.49)">
      <linearGradient id="b" x1="152.21" x2="264.34" y1="1062.6" y2="1056.7" gradientTransform="matrix(.384 0 0 .384 -8.4276 -317.49)" gradientUnits="userSpaceOnUse">
        

        

        






        






        






      <stop id="br" stop-color="#f99" offset="0"/><stop id="bs" stop-color="#f66" offset="1"/></linearGradient>






      <polygon id="bt" points="81.399 115.51 42.708 89.156 81.399 62.256 120.09 88.603" fill="url(#b)"/>






    </g>






    

    <g id="bu" transform="matrix(1 0 0 .48378 227.27 233.49)">
      <path id="bv" d="m81.399 152.3 38.69-26.911v-3.3101l-4.0487-3.3101-0.93431-23.358 4.983-3.4014v-3.4014l-38.69 26.911c-2.4224 11.805-3.0831 22.7 0 36.781z" fill="#cf0000"/>






    <path id="bw" d="m81.088 149.4 37.444-25.623 0.15572-30.665-37.6 25.945c-2.4224 11.805-3.0831 16.262 0 30.343z" fill="#fff"/>




</g>






    <g id="bx" transform="matrix(1 0 0 .48378 227.27 233.49)">
      <path id="by" d="m81.399 152.3-38.691-26.413c-3.8929-15.479-2.18-26.451 0-36.78l38.696 26.412c-2.2038 10.44-3.9673 21.334-5e-3 36.781z" fill="url(#i)"/>






    </g>






    

    

    

    

    

    

    

    

  

<path id="bz" d="m270.14 277.17 38.382 12.928c-3.3767 7.047-2.5425 10.27 0.24693 16.436" fill="none" stroke="#600000" stroke-linecap="round" stroke-linejoin="round" stroke-width="1pt"/>




</g>



  


</g>
</svg>
