<?xml version="1.0" encoding="UTF-8"?>
<svg id="a" _SVGFile__filename="oldscale/actions/aobottom.svg" sodipodi:docbase="/home/danny/work/kde/koffice/templates/kspread" sodipodi:docname="crsc-action-template_balancesheet.svg" sodipodi:version="0.32" version="1.0" viewBox="0 0 60 60" xmlns="http://www.w3.org/2000/svg" xmlns:sodipodi="http://inkscape.sourceforge.net/DTD/sodipodi-0.dtd"><sodipodi:namedview id="b" bordercolor="#666666" borderopacity="1.0" pagecolor="#ffffff"/><g id="c" transform="matrix(1.0513 0 0 1.0513 -1.5376 -1.5376)" stroke-linecap="round" stroke-linejoin="round" stroke-miterlimit="4"><path id="d" d="m11.75 54.375v-48.75h27.688l8.8125 8.8125v39.938h-36.5z" color="#000000" display="block" fill="none" stroke="#fff" stroke-width="7.1343" sodipodi:nodetypes="cccccc"/><path id="e" d="m11.75 54.375v-48.75h27.688l8.8125 8.8125v39.938h-36.5z" color="#000000" display="block" fill="#fff" fill-rule="nonzero" stroke="#000" stroke-width="2.3781" sodipodi:nodetypes="cccccc"/><path id="f" d="m39.437 14.438v-8.8125l8.8125 8.8125h-8.8125z" color="#000000" display="block" fill="#000" fill-rule="nonzero" stroke="#000" stroke-width="2.3781" sodipodi:nodetypes="cccc"/></g><g id="g" transform="matrix(.96336 0 0 .96336 .94894 8.2474)"><path id="h" transform="translate(.45891 -.32997)" d="m33.162 41.852c0 1.9125-1.5522 3.4646-3.4646 3.4646s-3.4646-1.5522-3.4646-3.4646c0-1.9125 1.5522-3.4646 3.4646-3.4646s3.4646 1.5522 3.4646 3.4646z" color="#000000" display="block" fill="#000" fill-rule="nonzero"/><path id="i" d="m16.663 41.357 26.985-7.2306" fill="none" stroke="#000" stroke-linecap="round" stroke-linejoin="round" stroke-miterlimit="4" stroke-width="2.5951"/><path id="j" d="m16.663 30.509h6.847v6.847h-6.847v-6.847z" color="#000000" display="block" fill="#fff" fill-rule="nonzero" stroke="#000" stroke-linecap="round" stroke-linejoin="round" stroke-miterlimit="4" stroke-width="2.5951"/><path id="k" d="m39.489 28.223h4.1598v4.1598h-4.1598v-4.1598z" color="#000000" display="block" fill="#fff" fill-rule="nonzero" stroke="#000" stroke-linecap="round" stroke-linejoin="round" stroke-miterlimit="4" stroke-width="2.5951"/></g></svg>
