<?xml version="1.0" encoding="UTF-8"?>
<svg id="a" _SVGFile__filename="oldscale/actions/aobottom.svg" sodipodi:docbase="/home/danny/work/kde/koffice/templates/kspread" sodipodi:docname="crsc-action-template_pricequotation.svg" sodipodi:version="0.32" version="1.0" viewBox="0 0 60 60" xmlns="http://www.w3.org/2000/svg" xmlns:sodipodi="http://inkscape.sourceforge.net/DTD/sodipodi-0.dtd"><sodipodi:namedview id="b" bordercolor="#666666" borderopacity="1.0" pagecolor="#ffffff"/><g id="c" transform="matrix(1.0513 0 0 1.0513 -1.5376 -1.5376)" stroke-linecap="round" stroke-linejoin="round" stroke-miterlimit="4"><path id="d" d="m11.75 54.375v-48.75h27.688l8.8125 8.8125v39.938h-36.5z" color="#000000" display="block" fill="none" stroke="#fff" stroke-width="7.1343" sodipodi:nodetypes="cccccc"/><path id="e" d="m11.75 54.375v-48.75h27.688l8.8125 8.8125v39.938h-36.5z" color="#000000" display="block" fill="#fff" fill-rule="nonzero" stroke="#000" stroke-width="2.3781" sodipodi:nodetypes="cccccc"/><path id="f" d="m39.437 14.438v-8.8125l8.8125 8.8125h-8.8125z" color="#000000" display="block" fill="#000" fill-rule="nonzero" stroke="#000" stroke-width="2.3781" sodipodi:nodetypes="cccc"/></g><path id="g" d="m29.624 20.091c1.308 0 2.5509 0.20052 3.6845 0.5867 1.1336 0.38617 2.1319 0.94225 3.0039 1.6897 0.87202 0.74744 1.5559 1.651 2.0417 2.7223 0.4983 1.0589 0.72751 2.2591 0.72751 3.5671 0 2.342-0.57665 4.149-1.7601 5.4446-1.171 1.2831-2.7789 2.1345-4.8344 2.558v0.75098c0 0.59796-0.13736 1.1349-0.39896 1.5958-0.24914 0.44847-0.61861 0.79446-1.0795 1.0561-0.44847 0.24915-0.95238 0.37549-1.5254 0.37549-0.57304 0-1.088-0.12634-1.5489-0.37549-0.44847-0.2616-0.79446-0.60759-1.0561-1.0561-0.24915-0.46092-0.37549-0.99786-0.37549-1.5958v-3.0743c0-0.63533 0.11389-1.1421 0.37549-1.4785 0.2616-0.33635 0.58846-0.556 0.96219-0.68057 0.37372-0.12457 0.94226-0.26193 1.6897-0.39896 1.9434-0.36126 2.91-1.339 2.91-2.9335 0-0.64778-0.2747-1.2259-0.79791-1.7366-0.51075-0.52321-1.1836-0.77444-2.0182-0.77444-0.77236 0-1.382 0.14691-1.8305 0.44589-0.43601 0.29898-0.85473 0.74117-1.2907 1.3142-0.42355 0.56058-0.84517 0.99176-1.2438 1.2907-0.38618 0.28652-0.92312 0.42242-1.5958 0.42242-0.7599 0-1.3997-0.29528-1.9478-0.86831-0.53566-0.5855-0.79791-1.2569-0.79791-2.0417 0-1.3703 0.44075-2.5801 1.3377-3.6141 0.89693-1.034 2.0105-1.8221 3.3559-2.3703 1.3454-0.54812 2.6801-0.82138 4.013-0.82138zm-0.18774 23.679c0.5855 0 1.132 0.15792 1.6428 0.46936 0.51075 0.31143 0.89789 0.72059 1.1969 1.2438 0.31144 0.51075 0.46936 1.0683 0.46936 1.6662 0 0.61041-0.15792 1.19-0.46936 1.7132-0.29898 0.51075-0.69712 0.89789-1.2203 1.1969-0.51075 0.29898-1.0463 0.44589-1.6193 0.44589s-1.1195-0.14691-1.6428-0.44589c-0.51075-0.29898-0.93236-0.68611-1.2438-1.1969-0.29898-0.52321-0.44589-1.1028-0.44589-1.7132 0-0.59796 0.14691-1.1555 0.44589-1.6662 0.31144-0.52321 0.73305-0.93236 1.2438-1.2438 0.51075-0.31144 1.0573-0.46936 1.6428-0.46936z" fill="#000" fill-rule="evenodd" sodipodi:nodetypes="ccccccccccccccccccccccccccccccccccccccccccc"/></svg>
