<?xml version="1.0" encoding="UTF-8"?>
<svg id="a" _SVGFile__filename="oldscale/actions/aobottom.svg" sodipodi:docbase="/home/danny/work/kde/koffice/templates/kspread" sodipodi:docname="crsc-action-template_creditcardtracker.svg" sodipodi:version="0.32" version="1.0" viewBox="0 0 60 60" xmlns="http://www.w3.org/2000/svg" xmlns:sodipodi="http://inkscape.sourceforge.net/DTD/sodipodi-0.dtd"><sodipodi:namedview id="b" bordercolor="#666666" borderopacity="1.0" pagecolor="#ffffff"/><path id="c" d="m10.815 55.624v-51.249h29.107l9.2642 9.2642v41.984h-38.371z" color="#000000" display="block" fill="none" stroke="#fff" stroke-linecap="round" stroke-linejoin="round" stroke-miterlimit="4" stroke-width="7.5" sodipodi:nodetypes="cccccc"/><path id="d" d="m10.815 55.624v-51.249h29.107l9.2642 9.2642v41.984h-38.371z" color="#000000" display="block" fill="#fff" fill-rule="nonzero" sodipodi:nodetypes="cccccc"/><path id="e" d="m39.921 13.64v-9.2642l9.2642 9.2642h-9.2642z" color="#000000" display="block" fill="#000" fill-rule="nonzero" stroke="#000" stroke-linecap="round" stroke-linejoin="round" stroke-miterlimit="4" stroke-width="2.5" sodipodi:nodetypes="cccc"/><path id="f" d="m23.459 30.691c-0.74425-0.10333-1.4214 0.41457-1.5248 1.1588l-1.911 13.764c-0.10333 0.74426 0.41457 1.4214 1.1588 1.5248l26.917 3.7407c0.47328 0.065713 0.86858-0.17364 1.1588-0.50825v-16.101l-25.799-3.5781z" fill="#fff" fill-rule="evenodd" stroke-width="1.875"/><path id="g" d="m22.239 39.555c-0.74614-0.099198-1.4069 0.307-1.4841 0.89453l-0.38627 2.9479c-0.077242 0.58754 0.45334 1.1409 1.1995 1.2401l26.998 3.5984c0.25854 0.034376 0.47358-0.050529 0.69122-0.12198v-4.9606c-0.006772-9.76e-4 -0.013525 9.11e-4 -0.02033 0l-26.998-3.5984z" fill="#000" fill-rule="evenodd" stroke-width="1"/><path id="h" d="m49.258 34.269-25.799-3.5781c-0.74425-0.10333-1.4214 0.41457-1.5248 1.1588l-1.911 13.764c-0.10333 0.74426 0.41457 1.4214 1.1588 1.5248l26.917 3.7407c0.47328 0.065713 0.86858-0.17364 1.1588-0.50825" fill="none" stroke="#000" stroke-linecap="round" stroke-linejoin="round" stroke-miterlimit="4" stroke-width="1.25"/><path id="i" d="m17.4 26.685c-0.73998 0.13048-1.2306 0.83125-1.1002 1.5712l2.4134 13.686c0.13049 0.73997 0.83126 1.2306 1.5712 1.1002l26.772-4.7209c0.73998-0.13048 1.2306-0.83125 1.1002-1.5712l-2.4134-13.686c-0.13048-0.73997-0.83125-1.2306-1.5712-1.1002l-26.772 4.7209z" fill="#fff" fill-rule="evenodd" stroke="#000" stroke-linecap="round" stroke-linejoin="round" stroke-miterlimit="4" stroke-width="1.875"/><path id="j" d="m10.815 55.624v-51.249h29.107l9.2642 9.2642v41.984h-38.371z" color="#000000" display="block" fill="none" stroke="#000" stroke-linecap="round" stroke-linejoin="round" stroke-miterlimit="4" stroke-width="2.5" sodipodi:nodetypes="cccccc"/><path id="k" d="m24.6 39.539-0.10492-0.57126c-0.411 0.045531-0.83522 0.06568-1.2727 0.060442-0.43744-0.00524-0.84358-0.084692-1.2184-0.23837-0.37146-0.15857-0.59065-0.42-0.65756-0.78428-0.050181-0.27321-0.008488-0.53548 0.12508-0.78681 0.1377-0.25209 0.33488-0.4017 0.59154-0.44884 0.11177-0.020528 0.32394 0.00469 0.63652 0.075653 0.31258 0.070965 0.56564 0.12077 0.75918 0.14941 0.19768 0.027879 0.42071 0.019008 0.66909-0.026612l-0.36609-1.9932c-0.55952-0.064123-1.0353-0.15004-1.4274-0.25775-0.39284-0.11185-0.72041-0.25281-0.98272-0.42287-0.26307-0.1742-0.4671-0.37636-0.61206-0.60649-0.14083-0.23088-0.239-0.49742-0.2945-0.79961-0.077552-0.42223-0.07375-0.8209 0.011408-1.196 0.084395-0.37923 0.23173-0.71868 0.442-1.0183 0.21365-0.30455 0.48028-0.56534 0.79986-0.78238 0.31959-0.21703 0.66715-0.37501 1.0427-0.47394l-0.11063-0.60231c-0.046379-0.25251 0.056685-0.40196 0.3092-0.44834 0.25665-0.04714 0.40817 0.055548 0.45455 0.30806l0.11063 0.60231c0.31199-0.048744 0.64983-0.061584 1.0135-0.038522 0.36707 0.018166 0.69097 0.10417 0.9717 0.25801 0.28073 0.15384 0.45151 0.39634 0.51233 0.72751 0.029652 0.16144 0.021287 0.32559-0.025093 0.49244-0.042999 0.16195-0.12237 0.30062-0.23811 0.41603-0.1116 0.11464-0.24812 0.18679-0.40956 0.21644-0.099348 0.018248-0.2251 0.009249-0.37725-0.026993-0.14801-0.037002-0.28322-0.074218-0.40564-0.11164-0.12318-0.041561-0.242-0.07109-0.35647-0.088577-0.11523-0.021628-0.2308-0.021796-0.34671-5.06e-4l0.33416 1.8193c0.90851 0.077049 1.6631 0.28293 2.2637 0.61765 0.6048 0.33395 0.98133 0.90454 1.1296 1.7118 0.088197 0.48019 0.077888 0.92498-0.030922 1.3344-0.10544 0.40449-0.27778 0.75923-0.51703 1.0642-0.23587 0.30007-0.50929 0.54714-0.82027 0.74119-0.31097 0.19405-0.62562 0.33315-0.94395 0.41729l0.10492 0.57126c0.04638 0.25251-0.058756 0.40234-0.31541 0.44948-0.25251 0.04638-0.40196-0.056688-0.44834-0.3092zm-1.2283-6.6875-0.29196-1.5896c-0.19862 0.083549-0.35047 0.212-0.45557 0.38536-0.10172 0.16846-0.13166 0.36652-0.089846 0.5942 0.034975 0.19042 0.12803 0.33594 0.27917 0.43656 0.15528 0.099853 0.34134 0.15768 0.55821 0.17348zm1.1903 2.182 0.3296 1.7945c0.20284-0.037256 0.35829-0.15781 0.46634-0.36166 0.11219-0.20461 0.14738-0.42076 0.10556-0.64843-0.0479-0.26079-0.14649-0.44809-0.29577-0.56188-0.1459-0.1187-0.3478-0.19287-0.60573-0.22252z" fill="#000" stroke-width="1"/><path id="l" d="m32.007 36.242 10.559-1.9798" fill="none" stroke="#000" stroke-linecap="round" stroke-linejoin="round" stroke-miterlimit="4" stroke-width="2.5"/></svg>
