<?xml version="1.0" encoding="UTF-8"?>
<svg id="a" _SVGFile__filename="oldscale/actions/aobottom.svg" sodipodi:docbase="/home/danny/work/kde/koffice/templates/kspread" sodipodi:docname="crsc-action-template_vacationchecklist.svg" sodipodi:version="0.32" version="1.0" viewBox="0 0 60 60" xmlns="http://www.w3.org/2000/svg" xmlns:sodipodi="http://inkscape.sourceforge.net/DTD/sodipodi-0.dtd"><sodipodi:namedview id="b" bordercolor="#666666" borderopacity="1.0" pagecolor="#ffffff"/><path id="c" d="m10.815 55.624v-51.249h29.107l9.2642 9.2642v41.984h-38.371z" color="#000000" display="block" fill="none" stroke="#fff" stroke-linecap="round" stroke-linejoin="round" stroke-miterlimit="4" stroke-width="7.5" sodipodi:nodetypes="cccccc"/><path id="d" d="m10.815 55.624v-51.249h29.107l9.2642 9.2642v41.984h-38.371z" color="#000000" display="block" fill="#fff" fill-rule="nonzero" stroke="#000" stroke-linecap="round" stroke-linejoin="round" stroke-miterlimit="4" stroke-width="2.5" sodipodi:nodetypes="cccccc"/><path id="e" d="m39.921 13.64v-9.2642l9.2642 9.2642h-9.2642z" color="#000000" display="block" fill="#000" fill-rule="nonzero" stroke="#000" stroke-linecap="round" stroke-linejoin="round" stroke-miterlimit="4" stroke-width="2.5" sodipodi:nodetypes="cccc"/><g id="f" transform="matrix(.59256 0 0 .59256 -20.655 16.846)"><path id="g" d="m63.061 33.613c-0.55945 0-1.0098 0.45039-1.0098 1.0098v21.876c0 0.55946 0.45039 1.0098 1.0098 1.0098h21.876c0.55946 0 1.0098-0.45039 1.0098-1.0098v-21.876c0-0.55945-0.45039-1.0098-1.0098-1.0098h-21.876z" fill="#fff" fill-rule="evenodd" stroke="#000" stroke-linecap="round" stroke-linejoin="round" stroke-miterlimit="4" stroke-width="2.1095"/><path id="h" d="m67.193 38.755 13.434 13.434m0.24683-13.505-13.752 13.752" fill="none" stroke="#000" stroke-linecap="round" stroke-linejoin="round" stroke-miterlimit="4" stroke-width="3.1642"/><path id="i" d="m63.061 3.7574c-0.55945 0-1.0098 0.45039-1.0098 1.0098v21.876c0 0.55946 0.45039 1.0098 1.0098 1.0098h21.876c0.55946 0 1.0098-0.45039 1.0098-1.0098v-21.876c0-0.55945-0.45039-1.0098-1.0098-1.0098h-21.876z" fill="#fff" fill-rule="evenodd" stroke="#000" stroke-linecap="round" stroke-linejoin="round" stroke-miterlimit="4" stroke-width="2.1095"/><path id="j" d="m67.193 8.9001 13.434 13.434m0.24683-13.505-13.752 13.752" fill="none" stroke="#000" stroke-linecap="round" stroke-linejoin="round" stroke-miterlimit="4" stroke-width="3.1642"/><path id="k" d="m97.238 4.7425c-2.7614 0.13807-4.8881 2.4886-4.75 5.25 0.13807 2.7614 2.4886 4.8881 5.25 4.75h20.562v-10s-20.896-0.0083377-21.062 0z" fill="#000" fill-rule="evenodd" sodipodi:nodetypes="cccccc"/><path id="l" d="m98.051 21.555c-1.3807 0.069037-2.444 1.2443-2.375 2.625 0.069036 1.3807 1.2443 2.444 2.625 2.375h20v-5h-20c-0.083281-0.004168-0.16672-0.004169-0.25 0zm0 10c-1.3807 0.069037-2.444 1.2443-2.375 2.625 0.069036 1.3807 1.2443 2.444 2.625 2.375h20v-5h-20c-0.083281-0.004168-0.16672-0.004169-0.25 0zm0 10c-1.3807 0.069037-2.444 1.2443-2.375 2.625 0.069036 1.3807 1.2443 2.444 2.625 2.375h20v-5h-20c-0.083281-0.004168-0.16672-0.004169-0.25 0zm0 10c-1.3807 0.069037-2.444 1.2443-2.375 2.625 0.069036 1.3807 1.2443 2.444 2.625 2.375h20v-5h-20c-0.083281-0.004168-0.16672-0.004169-0.25 0z" fill="#000" fill-rule="evenodd"/></g></svg>
