<?xml version="1.0" encoding="UTF-8"?>
<svg id="a" _SVGFile__filename="oldscale/actions/aobottom.svg" sodipodi:docbase="/home/danny/work/kde/koffice/templates/kspread" sodipodi:docname="crsc-action-template_menuplan.svg" sodipodi:version="0.32" version="1.0" viewBox="0 0 60 60" xmlns="http://www.w3.org/2000/svg" xmlns:sodipodi="http://inkscape.sourceforge.net/DTD/sodipodi-0.dtd"><sodipodi:namedview id="b" bordercolor="#666666" borderopacity="1.0" pagecolor="#ffffff"/><g id="c" transform="matrix(1.0513 0 0 1.0513 -1.5376 -1.5376)" stroke-linecap="round" stroke-linejoin="round" stroke-miterlimit="4"><path id="d" d="m11.75 54.375v-48.75h27.688l8.8125 8.8125v39.938h-36.5z" color="#000000" display="block" fill="none" stroke="#fff" stroke-width="7.1343" sodipodi:nodetypes="cccccc"/><path id="e" d="m11.75 54.375v-48.75h27.688l8.8125 8.8125v39.938h-36.5z" color="#000000" display="block" fill="#fff" fill-rule="nonzero" stroke="#000" stroke-width="2.3781" sodipodi:nodetypes="cccccc"/><path id="f" d="m39.437 14.438v-8.8125l8.8125 8.8125h-8.8125z" color="#000000" display="block" fill="#000" fill-rule="nonzero" stroke="#000" stroke-width="2.3781" sodipodi:nodetypes="cccc"/></g><g id="g" transform="matrix(.60264 0 0 .60264 12.591 16.69)" stroke="#000" stroke-linejoin="round" stroke-miterlimit="4"><path id="h" transform="translate(2.5192)" d="m8.2381 4.9833v16.767c0 1.923-1.6483 7.9666 8.7907 7.6919 11.538 0.82413 9.3401-5.4942 9.6148-7.1424v-17.307" fill="none" stroke-linecap="round" stroke-width="5.1855"/><path id="i" transform="translate(2.5192)" d="m17.304 29.442v-23.104" fill="none" stroke-linecap="round" stroke-width="5.1855"/><path id="j" transform="translate(2.5192)" d="m15.475 29.949c-1.4396 5.3984-3.7789 26.452 1.9794 27.172 5.7583-0.53984 2.8791-21.594 1.9794-27.172h-3.9588z" fill="#000" fill-rule="evenodd" stroke-linecap="round" stroke-width="2.0742"/><g id="k" transform="translate(-2.1594)" fill-rule="evenodd"><path id="l" d="m43.727 31.029v-25.192s-0.53983-3.5989 2.6992 0.17995c3.239 3.7789 5.0385 8.9973 4.3187 12.596-0.71978 3.5989-2.3393 12.956-2.3393 12.956l-4.6786-0.53983z" fill="#fff" stroke-width="3.1113"/><path id="m" d="m44.396 29.949c-1.4396 5.3984-3.7789 26.452 1.9794 27.172 5.7583-0.53984 2.8791-21.594 1.9794-27.172h-3.9588z" fill="#000" stroke-linecap="round" stroke-width="2.0742"/><path id="n" d="m42.894 26.884c-0.554 0-1 0.44599-1 1v1.998c0 0.554 0.446 1 1 1h6.8844c0.55399 0 1-0.446 1-1v-1.998c0-0.55401-0.44601-1-1-1h-6.8844z" fill="#000" stroke-width="2.0742"/></g></g></svg>
