<?xml version="1.0" encoding="UTF-8"?>
<svg id="a" width="32" height="32" version="1.1" viewBox="0 0 8.4667 8.4667" xmlns="http://www.w3.org/2000/svg"><g id="b" transform="translate(0 -288.53)" clip-rule="nonzero" fill="#d2d2d2" fill-rule="evenodd" shape-rendering="auto"><path id="c" d="m0.26458 289.86-3e-7 6.0854h7.9375v-6.0854zm0.26458 0.26458h7.4083v5.2917h-7.4083z" color="#000000" color-rendering="auto" enable-background="accumulate" image-rendering="auto" solid-color="#000000" style="isolation:auto;mix-blend-mode:normal"/><rect id="d" x="6.35" y="290.65" width=".79375" height=".26459" ry="4.9772e-6" color="#000000" color-rendering="auto" enable-background="accumulate" image-rendering="auto" solid-color="#000000" style="isolation:auto;mix-blend-mode:normal"/><rect id="e" x="1.3229" y="290.65" width=".79375" height=".26459" ry="4.9772e-6" color="#000000" color-rendering="auto" enable-background="accumulate" image-rendering="auto" solid-color="#000000" style="isolation:auto;mix-blend-mode:normal"/><rect id="f" x="3.9688" y="290.65" width=".52917" height=".26459" ry="4.9772e-6" color="#000000" color-rendering="auto" enable-background="accumulate" image-rendering="auto" solid-color="#000000" style="isolation:auto;mix-blend-mode:normal"/><path id="g" d="m1.3229 291.44v3.4396h5.8208v-3.4396zm0.26458 0.26458h5.2917v2.9104h-5.2917z" color="#000000" color-rendering="auto" enable-background="accumulate" image-rendering="auto" solid-color="#000000" style="isolation:auto;mix-blend-mode:normal"/><path id="h" d="m2.1167 291.97v2.3812h4.2333v-2.3812zm0.26458 0.26459h3.7042v1.8521h-3.7042z" color="#000000" color-rendering="auto" enable-background="accumulate" image-rendering="auto" solid-color="#000000" style="isolation:auto;mix-blend-mode:normal"/></g><g id="i" clip-rule="nonzero" display="none" fill="#373737" fill-rule="evenodd" shape-rendering="auto"><path id="j" d="m0.26458 1.3229-2.9e-7 6.0854h7.9375v-6.0854zm0.26458 0.26458h7.4083v5.2917h-7.4083z" color="#000000" color-rendering="auto" display="inline" enable-background="accumulate" image-rendering="auto" solid-color="#000000" style="isolation:auto;mix-blend-mode:normal"/><rect id="k" x="6.35" y="2.1167" width=".79375" height=".26459" ry="4.9772e-6" color="#000000" color-rendering="auto" display="inline" enable-background="accumulate" image-rendering="auto" solid-color="#000000" style="isolation:auto;mix-blend-mode:normal"/><rect id="l" x="1.3229" y="2.1167" width=".79375" height=".26459" ry="4.9772e-6" color="#000000" color-rendering="auto" display="inline" enable-background="accumulate" image-rendering="auto" solid-color="#000000" style="isolation:auto;mix-blend-mode:normal"/><rect id="m" x="3.9688" y="2.1167" width=".52917" height=".26459" ry="4.9772e-6" color="#000000" color-rendering="auto" display="inline" enable-background="accumulate" image-rendering="auto" solid-color="#000000" style="isolation:auto;mix-blend-mode:normal"/><path id="n" d="m1.3229 2.9104v3.4396h5.8208v-3.4396zm0.26458 0.26458h5.2917v2.9104h-5.2917z" color="#000000" color-rendering="auto" display="inline" enable-background="accumulate" image-rendering="auto" solid-color="#000000" style="isolation:auto;mix-blend-mode:normal"/><path id="o" d="m2.1167 3.4396v2.3813h4.2333v-2.3813zm0.26458 0.26459h3.7042v1.8521h-3.7042z" color="#000000" color-rendering="auto" display="inline" enable-background="accumulate" image-rendering="auto" solid-color="#000000" style="isolation:auto;mix-blend-mode:normal"/></g></svg>
