<?xml version="1.0" encoding="UTF-8"?>
<svg id="a" _SVGFile__filename="oldscale/actions/aobottom.svg" sodipodi:docbase="/home/danny/work/kde/koffice/templates/kspread" sodipodi:docname="crsc-action-template_worksheet.svg" sodipodi:version="0.32" version="1.0" viewBox="0 0 60 60" xmlns="http://www.w3.org/2000/svg" xmlns:sodipodi="http://inkscape.sourceforge.net/DTD/sodipodi-0.dtd"><sodipodi:namedview id="b" bordercolor="#666666" borderopacity="1.0" pagecolor="#ffffff"/><path id="c" d="m10.815 55.624v-51.249h29.107l9.2642 9.2642v41.984h-38.371z" color="#000000" display="block" fill="none" stroke="#fff" stroke-linecap="round" stroke-linejoin="round" stroke-miterlimit="4" stroke-width="7.5" sodipodi:nodetypes="cccccc"/><path id="d" d="m10.815 55.624v-51.249h29.107l9.2642 9.2642v41.984h-38.371z" color="#000000" display="block" fill="#fff" fill-rule="nonzero" sodipodi:nodetypes="cccccc"/><path id="e" d="m39.921 13.64v-9.2642l9.2642 9.2642h-9.2642z" color="#000000" display="block" fill="#000" fill-rule="nonzero" stroke="#000" stroke-linecap="round" stroke-linejoin="round" stroke-miterlimit="4" stroke-width="2.5" sodipodi:nodetypes="cccc"/><g id="f" transform="matrix(.74483 0 0 .74483 -28.965 14.513)" stroke-linejoin="round"><path id="g" d="m54.555 28.019c-0.51121 0.34441-0.4332 1.1019 0.1749 1.6984l25.457 24.973c0.6081 0.59652 1.5092 0.7995 2.0204 0.45509l21.567-14.53c0.51121-0.3444 0.4332-1.1019-0.1749-1.6984l-25.457-24.973c-0.6081-0.59653-1.5092-0.7995-2.0204-0.45509l-21.567 14.53z" fill="#fff" fill-rule="evenodd" stroke="#000" stroke-miterlimit="4" stroke-width="3.3565"/><path id="h" d="m60.437 30.919 17.767-11.97" fill="none" stroke="#000" stroke-linecap="round" stroke-miterlimit="4" stroke-width="1.6782"/><path id="i" d="m64.326 34.735 17.767-11.97" fill="none" stroke="#000" stroke-linecap="round" stroke-miterlimit="4" stroke-width="1.6782"/><path id="j" d="m68.216 38.55 17.767-11.97" fill="none" stroke="#000" stroke-linecap="round" stroke-miterlimit="4" stroke-width="1.6782"/><path id="k" d="m72.105 42.365 17.767-11.97" fill="none" stroke="#000" stroke-linecap="round" stroke-miterlimit="4" stroke-width="1.6782"/><path id="l" d="m75.994 46.181 17.767-11.97" fill="none" stroke="#000" stroke-linecap="round" stroke-miterlimit="4" stroke-width="1.6782"/><path id="m" d="m79.857 50.014 9.8501-6.6361" fill="none" stroke="#000" stroke-linecap="round" stroke-miterlimit="4" stroke-width="1.6782"/><g id="n" transform="translate(-25.835)" fill="none" stroke="#fff" stroke-miterlimit="4"><path id="o" transform="matrix(.51058 -.29478 .29478 .51058 86.149 32.569)" d="m48.097 30.863c-12.897 9.3835-12.897 9.3835-12.897 9.3835l7.9467-13.818 4.9502 4.4342z" stroke-linecap="round" stroke-width="11.386"/><rect id="p" transform="matrix(-.57641 -.12384 .12384 -.57641 86.149 32.569)" x="-56.329" y="9.3872" width="6.5463" height="47.133" stroke-linecap="round" stroke-width="11.386"/><path id="q" transform="matrix(-.78044 -.16767 .16767 -.78044 161.3 64.863)" d="m61.966 18.726c0 0.34241-0.2779 0.6203-0.6203 0.6203-0.34241 0-0.6203-0.27789-0.6203-0.6203 0-0.3424 0.27789-0.6203 0.6203-0.6203 0.3424 0 0.6203 0.2779 0.6203 0.6203z" stroke-width="8.6126"/><path id="r" transform="matrix(-.57641 -.12384 .12384 -.57641 86.149 32.569)" d="m-54.664 56.374c-1.1401 0-2.0579 0.90509-2.0579 2.0294s0.91783 2.0294 2.0579 2.0294h3.3469c1.1401 0 2.0579-0.90509 2.0579-2.0294s-0.91783-2.0294-2.0579-2.0294h-3.3469z" stroke-width="11.661"/></g><g id="s" transform="matrix(.64633 -.37316 .37316 .64633 60.749 22.113)" fill-rule="evenodd" stroke="#000"><path id="t" transform="matrix(.78996 0 0 .78996 -7.5101 11.841)" d="m48.097 30.863c-12.897 9.3835-12.897 9.3835-12.897 9.3835l7.9467-13.818 4.9502 4.4342z" fill="#000" stroke-linecap="round" stroke-width="3.1803"/><path id="u" transform="matrix(-.58589 -.52987 .52987 -.58589 -7.5101 11.841)" d="m-56.329 9.3872h6.5463v47.133h-6.5463v-47.133z" fill="#fff" stroke-linecap="round" stroke-miterlimit="4" stroke-width="2.8466"/><path id="v" transform="matrix(-.79328 -.71743 .71743 -.79328 58.057 99.661)" d="m61.966 18.726c0 0.34241-0.2779 0.6203-0.6203 0.6203-0.34241 0-0.6203-0.27789-0.6203-0.6203 0-0.3424 0.27789-0.6203 0.6203-0.6203 0.3424 0 0.6203 0.2779 0.6203 0.6203z" fill="#000" stroke-width="2.3489"/><path id="w" transform="matrix(-.58589 -.52987 .52987 -.58589 -7.5101 11.841)" d="m-54.664 56.374c-1.1401 0-2.0579 0.90509-2.0579 2.0294s0.91783 2.0294 2.0579 2.0294h3.3469c1.1401 0 2.0579-0.90509 2.0579-2.0294s-0.91783-2.0294-2.0579-2.0294h-3.3469z" fill="#fff" stroke-miterlimit="4" stroke-width="2.8466"/></g></g><path id="x" d="m10.815 55.624v-51.249h29.107l9.2642 9.2642v41.984h-38.371z" color="#000000" display="block" fill="none" stroke="#000" stroke-linecap="round" stroke-linejoin="round" stroke-miterlimit="4" stroke-width="2.5" sodipodi:nodetypes="cccccc"/></svg>
