<?xml version="1.0" encoding="UTF-8"?>
<svg id="a" _SVGFile__filename="oldscale/actions/aobottom.svg" sodipodi:docbase="/home/danny/work/kde/koffice/temp_new" sodipodi:docname="crsc-action-template_fax.svgz" sodipodi:version="0.32" version="1.0" viewBox="0 0 60 60" xmlns="http://www.w3.org/2000/svg" xmlns:sodipodi="http://inkscape.sourceforge.net/DTD/sodipodi-0.dtd"><sodipodi:namedview id="b" bordercolor="#666666" borderopacity="1.0" pagecolor="#ffffff"/><g id="c" transform="matrix(1.0124 0 0 1.0124 -.37266 -.37266)" stroke-linecap="round" stroke-linejoin="round" stroke-miterlimit="4"><g id="d" transform="matrix(1.0384 0 0 1.0384 -1.1507 -1.1507)"><path id="e" d="m11.75 54.375v-48.75h27.688l8.8125 8.8125v39.938h-36.5z" color="#000000" display="block" fill="none" stroke="#fff" stroke-width="7.1343" sodipodi:nodetypes="cccccc"/><path id="f" d="m11.75 54.375v-48.75h27.688l8.8125 8.8125v39.938h-36.5z" color="#000000" display="block" fill="#fff" fill-rule="nonzero" stroke="#000" stroke-width="2.3781" sodipodi:nodetypes="cccccc"/><path id="g" d="m39.437 14.438v-8.8125l8.8125 8.8125h-8.8125z" color="#000000" display="block" fill="#000" fill-rule="nonzero" stroke="#000" stroke-width="2.3781" sodipodi:nodetypes="cccc"/></g><g id="h" transform="matrix(.46899 0 0 .46899 -15.728 21.113)" stroke="#000"><path id="i" d="m74.667 5.5981c-0.85158 0-1.5372 0.68557-1.5372 1.5372v16.288c0 0.85158 0.68557 1.5372 1.5372 1.5372h16.288c0.85158 0 1.5372-0.68557 1.5372-1.5372v-16.288c0-0.85158-0.68557-1.5372-1.5372-1.5372h-16.288z" fill="#fff" fill-rule="evenodd" stroke-width="5.2652"/><path id="j" d="m82.465 26.17v19.017h21.091" fill="none" stroke-dasharray="3.9489305 3.9489305" stroke-width="3.9489"/><path id="k" d="m104.05 34.986c-0.85158 0-1.5372 0.68557-1.5372 1.5372v16.288c0 0.85158 0.68557 1.5372 1.5372 1.5372h16.288c0.85158 0 1.5372-0.68557 1.5372-1.5372v-16.288c0-0.85158-0.68557-1.5372-1.5372-1.5372h-16.288z" fill="#fff" fill-rule="evenodd" stroke-width="5.2652"/></g></g></svg>
