<?xml version="1.0" encoding="UTF-8"?>
<svg id="a" version="1.1" viewBox="0 0 32 32" xml:space="preserve" xmlns="http://www.w3.org/2000/svg"><g id="b" display="none"><g id="c" transform="translate(0 -455.7)" fill="#cacaca"><path id="d" d="m5 457.7c-1.662 0-3 1.338-3 3v14c0 1.662 1.338 3 3 3h4v-2h-3c-1.108 0-2-0.892-2-2v-12c0-1.108 0.892-2 2-2h20c1.108 0 2 0.892 2 2v12c0 1.108-0.892 2-2 2h-11v2h12c1.662 0 3-1.338 3-3v-14c0-1.662-1.338-3-3-3z" clip-rule="nonzero" color="#000000" color-rendering="auto" display="inline" enable-background="accumulate" fill-rule="evenodd" image-rendering="auto" shape-rendering="auto" solid-color="#000000" style="isolation:auto;mix-blend-mode:normal"/><path id="e" d="m7 475.7v10l10-10h-3l-5 5v-5z" fill-rule="evenodd"/><g id="f" transform="scale(1 1)" stroke-linejoin="miter" stroke-width="1px" aria-label="?!"><path id="g" d="m9 465.78q0-1.1068 1.1198-1.8164 1.1263-0.71615 2.4544-0.71615h0.7487q3.75 0 3.75 2.9102 0 0.65105-0.31901 1.1328-0.3125 0.47526-0.76823 0.72917-0.44922 0.25391-0.90495 0.45573-0.44922 0.20182-0.76823 0.44271-0.3125 0.23438-0.3125 0.47526 0 0.46876-0.39714 0.46876h-1.4649q-0.17578 0-0.29297-0.11068-0.11068-0.11719-0.11068-0.28646 0-0.5599 0.21484-0.98959 0.21484-0.42969 0.53386-0.67058 0.31901-0.24739 0.69011-0.46224 0.37761-0.21484 0.69662-0.35807 0.7487-0.34506 0.7487-0.86589 0-0.52084-0.35807-0.77474-0.35156-0.25391-1.1263-0.25391h-0.33203q-1.0807 0-1.4779 0.80078-0.29297 0.61198-0.87891 0.61198h-0.77474q-0.31901 0-0.49479-0.22786-0.17578-0.22787-0.17578-0.49479zm2.6042 6.0417v-0.41016q0-0.42969 0.23438-0.65755 0.23438-0.22787 0.64453-0.22787h0.80078q0.41016 0 0.64454 0.22787 0.23438 0.22786 0.23438 0.65755v0.41016q0 0.41667-0.23438 0.65105-0.23438 0.22786-0.64454 0.22786h-0.80078q-0.41016 0-0.64453-0.22786-0.23438-0.23438-0.23438-0.65105z"/><path id="h" d="m19.001 463.92q-0.01302-0.25391 0.16927-0.4362 0.1888-0.1823 0.44271-0.1823h1.3997q0.25391 0 0.4362 0.1823 0.1888 0.18229 0.17578 0.4362l-0.18229 5.3451q-0.01302 0.2539-0.1888 0.42968-0.17578 0.16928-0.42318 0.16928h-1.0287q-0.25391 0-0.42969-0.16928-0.16927-0.17578-0.18229-0.42968zm1.7188 6.6081q0.87891 0 0.87891 0.88542v0.41016q0 0.41016-0.22786 0.64454-0.22136 0.23437-0.65104 0.23437h-0.80079q-0.42969 0-0.65756-0.23437-0.22136-0.23438-0.22136-0.64454v-0.41016q0-0.42969 0.22787-0.65755 0.22786-0.22787 0.65104-0.22787z"/></g></g></g><g id="i"><g id="j" transform="translate(0 -455.7)" fill="#373737"><path id="k" d="m5 457.7c-1.662 0-3 1.338-3 3v14c0 1.662 1.338 3 3 3h4v-2h-3c-1.108 0-2-0.892-2-2v-12c0-1.108 0.892-2 2-2h20c1.108 0 2 0.892 2 2v12c0 1.108-0.892 2-2 2h-11v2h12c1.662 0 3-1.338 3-3v-14c0-1.662-1.338-3-3-3z" clip-rule="nonzero" color="#000000" color-rendering="auto" enable-background="accumulate" fill-rule="evenodd" image-rendering="auto" shape-rendering="auto" solid-color="#000000" style="isolation:auto;mix-blend-mode:normal"/><path id="l" d="m7 475.7v10l10-10h-3l-5 5v-5z" fill-rule="evenodd"/><g id="m" transform="scale(1 1)" stroke-linejoin="miter" stroke-width="1px" aria-label="?!"><path id="n" d="m9 465.78q0-1.1068 1.1198-1.8164 1.1263-0.71615 2.4544-0.71615h0.7487q3.75 0 3.75 2.9102 0 0.65105-0.31901 1.1328-0.3125 0.47526-0.76823 0.72917-0.44922 0.25391-0.90495 0.45573-0.44922 0.20182-0.76823 0.44271-0.3125 0.23438-0.3125 0.47526 0 0.46876-0.39714 0.46876h-1.4649q-0.17578 0-0.29297-0.11068-0.11068-0.11719-0.11068-0.28646 0-0.5599 0.21484-0.98959 0.21484-0.42969 0.53386-0.67058 0.31901-0.24739 0.69011-0.46224 0.37761-0.21484 0.69662-0.35807 0.7487-0.34506 0.7487-0.86589 0-0.52084-0.35807-0.77474-0.35156-0.25391-1.1263-0.25391h-0.33203q-1.0807 0-1.4779 0.80078-0.29297 0.61198-0.87891 0.61198h-0.77474q-0.31901 0-0.49479-0.22786-0.17578-0.22787-0.17578-0.49479zm2.6042 6.0417v-0.41016q0-0.42969 0.23438-0.65755 0.23438-0.22787 0.64453-0.22787h0.80078q0.41016 0 0.64454 0.22787 0.23438 0.22786 0.23438 0.65755v0.41016q0 0.41667-0.23438 0.65105-0.23438 0.22786-0.64454 0.22786h-0.80078q-0.41016 0-0.64453-0.22786-0.23438-0.23438-0.23438-0.65105z"/><path id="o" d="m19.001 463.92q-0.01302-0.25391 0.16927-0.4362 0.1888-0.1823 0.44271-0.1823h1.3997q0.25391 0 0.4362 0.1823 0.1888 0.18229 0.17578 0.4362l-0.18229 5.3451q-0.01302 0.2539-0.1888 0.42968-0.17578 0.16928-0.42318 0.16928h-1.0287q-0.25391 0-0.42969-0.16928-0.16927-0.17578-0.18229-0.42968zm1.7188 6.6081q0.87891 0 0.87891 0.88542v0.41016q0 0.41016-0.22786 0.64454-0.22136 0.23437-0.65104 0.23437h-0.80079q-0.42969 0-0.65756-0.23437-0.22136-0.23438-0.22136-0.64454v-0.41016q0-0.42969 0.22787-0.65755 0.22786-0.22787 0.65104-0.22787z"/></g></g></g></svg>
