<?xml version="1.0" encoding="UTF-8"?>
<svg id="a" _SVGFile__filename="oldscale/actions/aobottom.svg" sodipodi:docbase="/home/danny/work/kde/koffice/templates/kspread" sodipodi:docname="crsc-action-template_bmi.svg" sodipodi:version="0.32" version="1.0" viewBox="0 0 60 60" xmlns="http://www.w3.org/2000/svg" xmlns:sodipodi="http://inkscape.sourceforge.net/DTD/sodipodi-0.dtd"><sodipodi:namedview id="b" bordercolor="#666666" borderopacity="1.0" pagecolor="#ffffff"/><path id="c" d="m10.815 55.624v-51.249h29.107l9.2642 9.2642v41.984h-38.371z" color="#000000" display="block" fill="none" stroke="#fff" stroke-linecap="round" stroke-linejoin="round" stroke-miterlimit="4" stroke-width="7.5" sodipodi:nodetypes="cccccc"/><path id="d" d="m10.815 55.624v-51.249h29.107l9.2642 9.2642v41.984h-38.371z" color="#000000" display="block" fill="#fff" fill-rule="nonzero" sodipodi:nodetypes="cccccc"/><path id="e" d="m39.921 13.64v-9.2642l9.2642 9.2642h-9.2642z" color="#000000" display="block" fill="#000" fill-rule="nonzero" stroke="#000" stroke-linecap="round" stroke-linejoin="round" stroke-miterlimit="4" stroke-width="2.5" sodipodi:nodetypes="cccc"/><g id="f" transform="matrix(.70553 0 0 .70553 9.5082 16.02)" fill="#fff" fill-rule="evenodd" stroke="#000" stroke-linecap="round" stroke-linejoin="round" stroke-miterlimit="4" stroke-width="4.4293"><path id="g" d="m51.476 55.406c-2.2063-6.8604-5.7938-13.494-11.665-17.138-5.9105-0.25698-13.352 0-20.548 0-6.372 3.3916-10.242 10.129-12.652 17.138" sodipodi:nodetypes="cccc"/><path id="h" d="m47.29 24.9c0 10.072-8.1741 18.246-18.246 18.246-10.072 0-18.246-8.1741-18.246-18.246 0-10.072 8.1741-18.246 18.246-18.246 10.072 0 18.246 8.1741 18.246 18.246z"/></g><path id="i" d="m10.815 55.624v-51.249h29.107l9.2642 9.2642v41.984h-38.371z" color="#000000" display="block" fill="none" stroke="#000" stroke-linecap="round" stroke-linejoin="round" stroke-miterlimit="4" stroke-width="2.5" sodipodi:nodetypes="cccccc"/></svg>
