<?xml version="1.0" encoding="UTF-8"?>
<svg id="a" _SVGFile__filename="oldscale/actions/aobottom.svg" sodipodi:docbase="/home/danny/work/kde/koffice/templates/kspread" sodipodi:docname="crsc-action-template_packingslip.svg" sodipodi:version="0.32" version="1.0" viewBox="0 0 60 60" xmlns="http://www.w3.org/2000/svg" xmlns:sodipodi="http://inkscape.sourceforge.net/DTD/sodipodi-0.dtd"><sodipodi:namedview id="b" bordercolor="#666666" borderopacity="1.0" pagecolor="#ffffff"/><g id="c" transform="matrix(1.0513 0 0 1.0513 -1.5376 -1.5376)" stroke-linecap="round" stroke-linejoin="round" stroke-miterlimit="4"><path id="d" d="m11.75 54.375v-48.75h27.688l8.8125 8.8125v39.938h-36.5z" color="#000000" display="block" fill="none" stroke="#fff" stroke-width="7.1343" sodipodi:nodetypes="cccccc"/><path id="e" d="m11.75 54.375v-48.75h27.688l8.8125 8.8125v39.938h-36.5z" color="#000000" display="block" fill="#fff" fill-rule="nonzero" stroke="#000" stroke-width="2.3781" sodipodi:nodetypes="cccccc"/><path id="f" d="m39.437 14.438v-8.8125l8.8125 8.8125h-8.8125z" color="#000000" display="block" fill="#000" fill-rule="nonzero" stroke="#000" stroke-width="2.3781" sodipodi:nodetypes="cccc"/></g><g id="g" transform="matrix(.5381 0 0 .5381 13.857 24.5)" stroke="#000" stroke-miterlimit="4"><path id="h" transform="matrix(.72632 0 0 .66652 8.4968 6.7455)" d="m4.5807 37.86h31.301v24.939h-31.301v-24.939z" fill="#fff" fill-rule="evenodd" stroke-linecap="round" stroke-linejoin="round" stroke-width="5.0081"/><path id="i" transform="matrix(.51349 -.40557 0 .55287 16.204 28.457)" d="m35.882 31.498h30.792v31.301h-30.792v-31.301z" fill="#fff" fill-rule="evenodd" stroke-linecap="round" stroke-linejoin="round" stroke-width="6.5398"/><path id="j" transform="matrix(.75528 0 -.44014 .66652 13.724 10.396)" d="m25.703 1.4692h31.047v12.724h-31.047v-12.724z" fill="#fff" fill-rule="evenodd" stroke-linecap="round" stroke-linejoin="round" stroke-width="4.9112"/><path id="k" transform="matrix(.72632 0 0 .72632 8.4968 6.6493)" d="m4.9624 35.061-11.07-7.7617 20.359-16.414 11.324 7.1255-20.613 17.05z" fill="#fff" fill-rule="evenodd" stroke-linecap="round" stroke-linejoin="round" stroke-width="4.7975"/><path id="l" transform="matrix(.72632 0 -.47714 .37913 26.69 15.142)" d="m8.6524 12.412h32.065v32.065h-32.065v-32.065z" fill="#fff" fill-rule="evenodd" stroke-linecap="round" stroke-linejoin="round" stroke-width="6.6402"/><path id="m" transform="matrix(.94686 0 0 .94686 .78094 -2.1448)" d="m27.739 23.482v12.47" fill="none" stroke-width="3.6801"/></g></svg>
