<?xml version="1.0" encoding="UTF-8"?>
<svg id="a" _SVGFile__filename="oldscale/apps/gksu.svg" sodipodi:docbase="/home/danny/work/kde/koffice/templates/kspread" sodipodi:docname="crsc-action-template_studentidcard.svg" sodipodi:version="0.32" version="1.0" viewBox="0 0 60 60" xmlns="http://www.w3.org/2000/svg" xmlns:sodipodi="http://inkscape.sourceforge.net/DTD/sodipodi-0.dtd"><sodipodi:namedview id="b" bordercolor="#666666" borderopacity="1.0" pagecolor="#ffffff"/><g id="c" transform="translate(75)" fill="none" stroke="#fff" stroke-linecap="round" stroke-linejoin="round" stroke-miterlimit="4"><path id="d" transform="matrix(.98382 0 0 .98382 -74.632 .29294)" d="m13.996 27.172c-2.2903-14.505 13.742-30.029 20.359-18.577 6.6165 11.452 29.011-9.6703 7.1255 19.595" stroke-width="8.2586"/><path id="e" transform="matrix(.98382 0 0 .98382 -74.632 .29294)" d="m6.15 25.675c-1.1514 0-2.0783 0.9269-2.0783 2.0783v26.254c0 1.1514 0.9269 2.0783 2.0783 2.0783h47.938c1.1514 0 2.0783-0.9269 2.0783-2.0783v-26.254c0-1.1514-0.9269-2.0783-2.0783-2.0783h-47.938z" stroke-width="7.6233"/></g><g id="f" transform="matrix(.98382 0 0 .98382 .43524 .27248)"><path id="g" transform="translate(-.068074 .020793)" d="m13.996 27.172c-2.2903-14.505 13.742-30.029 20.359-18.577 6.6165 11.452 29.011-9.6703 7.1255 19.595" fill="none" stroke="#000" stroke-dasharray="3.1763931 3.1763931" stroke-linecap="round" stroke-linejoin="round" stroke-width="3.1764"/><path id="h" transform="translate(-.068074 .020793)" d="m6.15 25.675c-1.1514 0-2.0783 0.9269-2.0783 2.0783v26.254c0 1.1514 0.9269 2.0783 2.0783 2.0783h47.938c1.1514 0 2.0783-0.9269 2.0783-2.0783v-26.254c0-1.1514-0.9269-2.0783-2.0783-2.0783h-47.938z" fill="#fff" fill-rule="evenodd" stroke="#000" stroke-linecap="round" stroke-linejoin="round" stroke-width="2.5411"/><path id="i" transform="translate(-.068074 .020793)" d="m30.876 30.806h19.907" fill="none" stroke="#000" stroke-linecap="round" stroke-linejoin="round" stroke-width="3.1764"/><path id="j" transform="translate(-.068074 .020793)" d="m30.251 36.441h11.371" fill="none" stroke="#000" stroke-linecap="round" stroke-linejoin="round" stroke-miterlimit="4" stroke-width="2.5411"/><path id="k" transform="translate(-.068074 .020793)" d="m30.251 41.451h17.189" fill="none" stroke="#000" stroke-linecap="round" stroke-linejoin="round" stroke-miterlimit="4" stroke-width="2.5411"/><path id="l" transform="translate(-.068074 .020793)" d="m30.251 46.461h14.28" fill="none" stroke="#000" stroke-linecap="round" stroke-linejoin="round" stroke-miterlimit="4" stroke-width="2.5411"/><path id="m" transform="translate(-.068074 .020793)" d="m8.6626 51.47h37.673" fill="none" stroke="#000" stroke-linecap="round" stroke-linejoin="round" stroke-miterlimit="4" stroke-width="2.5411"/><g id="n" transform="translate(.29182 .56063)"><path id="o" d="m10.381 29.642h13.297c1.1514 0 2.0783 0.9269 2.0783 2.0783v12.768c0 1.1514-0.9269 2.0783-2.0783 2.0783h-13.297c-1.1514 0-2.0783-0.9269-2.0783-2.0783v-12.768c0-1.1514 0.9269-2.0783 2.0783-2.0783z" fill="#fff" fill-rule="evenodd" stroke-width="1"/><path id="p" d="m23.292 46.304c-0.64594-1.8796-1.5239-3.721-3.1391-4.7236-1.7094-0.07432-3.8682 0-5.9493 0-1.7592 0.93636-2.7338 2.7974-3.438 4.7236" fill="#fff" fill-rule="evenodd" stroke="#000" stroke-linecap="round" stroke-linejoin="round" stroke-width="1.2706"/><path id="q" transform="matrix(.42812 0 0 .42812 8.6706 28.175)" d="m31.85 22.301c0 6.8041-5.5222 12.326-12.326 12.326-6.8041 0-12.326-5.5222-12.326-12.326s5.5222-12.326 12.326-12.326c6.8041 0 12.326 5.5222 12.326 12.326z" fill="#fff" fill-rule="evenodd" stroke="#000" stroke-linecap="round" stroke-linejoin="round" stroke-width="2.9678"/><path id="r" d="m10.381 29.642h13.297c1.1514 0 2.0783 0.9269 2.0783 2.0783v12.768c0 1.1514-0.9269 2.0783-2.0783 2.0783h-13.297c-1.1514 0-2.0783-0.9269-2.0783-2.0783v-12.768c0-1.1514 0.9269-2.0783 2.0783-2.0783z" fill="none" stroke="#000" stroke-linejoin="round" stroke-width="1.9058"/></g></g></svg>
