<?xml version="1.0" encoding="UTF-8"?>
<svg id="a" _SVGFile__filename="oldscale/actions/aobottom.svg" sodipodi:docbase="/home/danny/work/kde/koffice/templates/kplato" sodipodi:docname="crsc-action-template_plain.svg" sodipodi:version="0.32" version="1.0" viewBox="0 0 60 60" xmlns="http://www.w3.org/2000/svg" xmlns:sodipodi="http://inkscape.sourceforge.net/DTD/sodipodi-0.dtd"><sodipodi:namedview id="b" bordercolor="#666666" borderopacity="1.0" pagecolor="#ffffff"/><g id="c" transform="matrix(1.0513 0 0 1.0513 -1.5376 -1.5376)" stroke-linecap="round" stroke-linejoin="round" stroke-miterlimit="4"><path id="d" d="m11.75 54.375v-48.75h27.688l8.8125 8.8125v39.938h-36.5z" color="#000000" display="block" fill="none" stroke="#fff" stroke-width="7.1343" sodipodi:nodetypes="cccccc"/><path id="e" d="m11.75 54.375v-48.75h27.688l8.8125 8.8125v39.938h-36.5z" color="#000000" display="block" fill="#fff" fill-rule="nonzero" stroke="#000" stroke-width="2.3781" sodipodi:nodetypes="cccccc"/><path id="f" d="m39.437 14.438v-8.8125l8.8125 8.8125h-8.8125z" color="#000000" display="block" fill="#000" fill-rule="nonzero" stroke="#000" stroke-width="2.3781" sodipodi:nodetypes="cccc"/></g><path id="g" d="m16.25 19.115h9.0225v11.024h-9.0225v-11.024z" color="#000000" display="block" fill="#ff0100" fill-rule="nonzero" sodipodi:nodetypes="ccccc"/><path id="h" d="m25.25 29.343h11.662v11.024h-11.662v-11.024z" color="#000000" display="block" fill="#30e908" fill-rule="nonzero" sodipodi:nodetypes="ccccc"/><path id="i" d="m25.417 19.394v31.253" fill="none" stroke="#000" stroke-linecap="round" stroke-linejoin="round" stroke-miterlimit="4" stroke-width="2.5"/><path id="j" d="m36.25 39.572h7.3727v11.024h-7.3727v-11.024z" color="#000000" display="block" fill="#2b43ba" fill-rule="nonzero" sodipodi:nodetypes="ccccc"/><path id="k" d="m36.583 19.394v31.253" fill="none" stroke="#000" stroke-linecap="round" stroke-linejoin="round" stroke-miterlimit="4" stroke-width="2.5"/><path id="l" d="m16.249 40.322h27.502" fill="none" stroke="#000" stroke-linecap="round" stroke-linejoin="round" stroke-miterlimit="4" stroke-width="2.5"/><path id="m" d="m16.249 29.718h27.502" fill="none" stroke="#000" stroke-linecap="round" stroke-linejoin="round" stroke-miterlimit="4" stroke-width="2.5"/><path id="n" d="m16.25 19.115h27.501v31.811h-27.501v-31.811z" color="#000000" display="block" fill="none" stroke="#000" stroke-linecap="round" stroke-linejoin="round" stroke-miterlimit="4" stroke-width="2.5" sodipodi:nodetypes="ccccc"/></svg>
