<?xml version="1.0" encoding="UTF-8"?>
<svg id="a" version="1.1" viewBox="0 0 16 16" xmlns="http://www.w3.org/2000/svg"><g id="b" transform="translate(0 -1036.4)"><rect id="c" transform="translate(0 1036.4)" width="16" height="16" rx="2" ry="2" fill="#fff"/><rect id="d" transform="translate(0 1036.4)" x="1" y="1" width="14" height="14" rx="1" ry="1" fill="#000"/><rect id="e" transform="translate(0 1036.4)" x="2" y="2" width="12" height="12" rx="0" ry="0" fill="#fff"/><path id="f" transform="translate(0 1036.4)" d="m3 13v-1l2.5193-2.5-2.5193-2.5v-1h1l3.5193 3.5-3.5193 3.5z" fill="#000"/><rect id="g" transform="translate(0 1036.4)" x="8" y="12" width="5" height="1" fill="#000"/><rect id="h" transform="translate(0 1036.4)" x="2" y="4" width="12" height="1" fill="#000"/><rect id="i" transform="translate(0 1036.4)" x="5" y="2" width="1" height="2" fill="#000"/><rect id="j" transform="translate(0 1036.4)" x="10" y="2" width="1" height="2" fill="#000"/><path id="k" transform="translate(0 1036.4)" d="m6 4 4-2v2z" fill="#000"/><rect id="l" transform="translate(0 1036.4)" x="2" y="2" width="3" height="2" rx="0" ry="0" fill="#000"/></g></svg>
