<?xml version="1.0" encoding="UTF-8"?>
<svg id="a" version="1.1" viewBox="0 0 256 256" xmlns="http://www.w3.org/2000/svg"><g id="b" transform="translate(0 -796.36)"><path id="c" d="m123.04 855.04-2.1152 14.017c-3.8595 0.11422-7.6415 0.53218-11.319 1.2533l-5.1591-13.153a83.454 83.454 0 0 0-11.923 3.5704 83.454 83.454 0 0 0-11.177 5.4566l5.1771 13.198c-3.2377 2.0068-6.291 4.2795-9.1461 6.7748l-11.146-8.8918a83.454 83.454 0 0 0-15.47 19.389l11.122 8.872c-1.7951 3.3252-3.313 6.8203-4.5532 10.443l-13.999-2.1116a83.454 83.454 0 0 0-3.7039 24.526l14.017 2.1134c0.11435 3.8587 0.53226 7.6405 1.2533 11.317l-13.151 5.1609a83.454 83.454 0 0 0 3.5668 11.921 83.454 83.454 0 0 0 5.4603 11.18l13.2-5.1771c2.0069 3.2375 4.2758 6.2912 6.7712 9.1461l-8.8882 11.142a83.454 83.454 0 0 0 19.385 15.472l8.8738-11.124c3.3246 1.7948 6.8192 3.3132 10.441 4.5532l-2.1134 14a83.454 83.454 0 0 0 24.526 3.7002l2.1134-14.013c3.8604-0.1141 7.6425-0.5337 11.321-1.255l5.1609 13.151a83.454 83.454 0 0 0 11.918-3.5686 83.454 83.454 0 0 0 11.182-5.4603l-5.179-13.196c1.7852-1.1067 3.5096-2.3012 5.1808-3.5614l-5.0311-4.0249c-7e-3 6e-3 -0.0143 0.011-0.0216 0.0162-1.7081-1.3602-3.4156-2.7207-5.1266-4.079-9.0089 5.9893-19.828 9.4833-31.483 9.4833-31.461 0-56.867-25.404-56.867-56.866s25.406-56.867 56.867-56.867c31.461 0 56.866 25.406 56.866 56.867 0 6.4369-1.0791 12.613-3.0403 18.377 1.728 1.3816 3.4541 2.7637 5.1808 4.1457-8e-3 0.022-0.0151 0.0448-0.0235 0.0667l5.0852 4.0663c0.57372-1.3827 1.117-2.7803 1.6049-4.2052l13.997 2.1116a83.454 83.454 0 0 0 3.7039-24.526l-14.013-2.1134c-0.1141-3.8588-0.53431-7.6403-1.2551-11.317l13.151-5.1627a83.454 83.454 0 0 0-3.5686-11.923 83.454 83.454 0 0 0-5.4566-11.177l-13.198 5.1753c-2.0063-3.2366-4.2766-6.2901-6.7712-9.1443l8.8864-11.142a83.454 83.454 0 0 0-19.385-15.472l-8.8702 11.121c-3.326-1.7957-6.8229-3.311-10.446-4.5514l2.1134-14a83.454 83.454 0 0 0-24.524-3.7039z" fill="#151515"/><path id="d" d="m123 825.42c-62.562 0-113.47 50.91-113.47 113.47 0 62.562 50.91 113.47 113.47 113.47 26.101 0 50.178-8.8816 69.365-23.745-0.93166-3.5168-1.0499-7.2555-0.1096-11.05-2.6718-2.2508-5.3625-4.4886-8.0661-6.7175-16.483 14.025-37.797 22.5-61.189 22.5-52.289 0-94.46-42.173-94.46-94.462 0-52.289 42.171-94.46 94.46-94.46 52.289 0 94.462 42.171 94.462 94.46 0 15.189-3.5894 29.491-9.9313 42.19 2.1047 1.6839 5.8405 4.6894 7.944 6.3737 4.6759-1.5838 5.6333-1.4912 10.748-1.4564 6.5726-14.357 10.251-30.317 10.251-47.108 0-62.562-50.912-113.47-113.47-113.47z" clip-rule="nonzero" color="#000000" color-rendering="auto" enable-background="accumulate" fill="#2c8596" fill-rule="nonzero" image-rendering="auto" shape-rendering="auto" solid-color="#000000" style="block-progression:tb;isolation:auto;mix-blend-mode:normal;text-decoration-color:#000000;text-decoration-line:none;text-decoration-style:solid;text-indent:0;text-transform:none;white-space:normal"/><rect id="e" x="111.89" y="814.96" width="22.222" height="15.873" fill="#2c8596"/><rect id="f" x="87.627" y="796.36" width="70.747" height="19.59" fill="#2c8596"/><rect id="g" transform="matrix(.77532 .63156 -.63156 .77532 0 0)" x="674.34" y="505.27" width="25.659" height="36.435" fill="#2c8596"/><path id="h" d="m82.037 919.18 20.181 18.39c3.0051 2.7384 5.574 0.38408 7.4403-0.73815 1.8664-1.1215 4.5992-3.6294 6.3423-5.809 1.7431-2.1796 3.5901-5.0955 4.1163-7.2684 0.52621-2.1729 0.65325-4.7857-2.2202-6.8831l-21.469-15.67c11.602-4.9727 29.533-0.4384 39.133 7.2263 10.065 8.049 9.9871 18.29 4.6508 28.542l72.736 58.169c6.4618-4.5372 13.588-5.44 20.773 0.30624 7.6228 6.1068 14.274 19.222 12.445 29.09l-15.906-13.913c-2.129-1.8622-4.1329-1.3068-5.7263-0.5189-1.5934 0.7878-3.5323 2.7301-4.9182 4.4631-1.3859 1.733-2.8536 4.2912-3.3974 5.9349-0.54385 1.6438-1.9211 4.0474 0.72789 5.8996l17.791 12.438c-9.1542 4.0132-23.487 0.3482-31.12-5.7502-7.4593-5.9652-7.9146-13.444-4.5059-21.034l-72.547-58.018c-8.8287 7.4597-18.802 9.7866-28.866 1.7373-9.5933-7.6796-18.053-24.252-15.66-36.594z" fill="#60605b"/></g></svg>
