<?xml version="1.0" encoding="UTF-8"?>
<svg viewBox="0 0 48 48" xmlns="http://www.w3.org/2000/svg" xmlns:xlink="http://www.w3.org/1999/xlink"><defs><linearGradient id="a" x1="26.425" x2="44" y1="37.11" y2="24" gradientUnits="userSpaceOnUse"><stop stop-color="#2980b9" offset="0"/><stop stop-color="#1d99f3" offset="1"/></linearGradient><linearGradient id="b" x1="25.869" x2="24.539" y1="39.24" y2="10.624" gradientUnits="userSpaceOnUse" xlink:href="#a"/><linearGradient id="c" x1="8.84" x2="37.922" y1="9.386" y2="39.34" gradientUnits="userSpaceOnUse"><stop stop-color="#faf8f8" offset="0"/><stop stop-color="#bfd2d2" offset="1"/></linearGradient><linearGradient id="d" x1="27.04" x2="24.839" y1="16.621" y2="17.991" gradientUnits="userSpaceOnUse"><stop stop-color="#fcfcfc" offset="0"/><stop stop-color="#c7c7c7" offset="1"/></linearGradient><linearGradient id="e" x1="31.537" x2="35.973" y1="27.6" y2="31" gradientUnits="userSpaceOnUse"><stop offset="0"/><stop stop-opacity="0" offset="1"/></linearGradient><linearGradient id="f" x1="26" x2="37" y1="19" y2="30" gradientTransform="translate(-10 5)" gradientUnits="userSpaceOnUse" xlink:href="#e"/><linearGradient id="g" x1="3.783" x2="19.574" y1="23.644" y2="22.495" gradientUnits="userSpaceOnUse"><stop stop-color="#2980b9" offset="0"/><stop stop-color="#34495e" offset="1"/></linearGradient></defs><g color="#000000" stroke-linejoin="round" stroke-width="3"><path d="m24 4c-11.05 0-20 8.954-20 20 0 11.05 8.954 20 20 20 11.05 0 20-8.954 20-20 0-11.05-8.954-20-20-20" fill="url(#a)"/><circle cx="24.5" cy="23.5" r="18.5" fill="url(#c)" stroke-linecap="round"/><path d="m40.01 13.424-26.867 24.652a18.5 18.5 0 0 0 11.357 3.9238 18.5 18.5 0 0 0 18.5-18.5 18.5 18.5 0 0 0-2.9902-10.076" fill="url(#e)" opacity=".2"/></g><g fill-rule="evenodd"><path d="m39.955 11.264c-.181-.015-.374-.023-.59.01-1.724.265-5.645 1.724-6.883 2.033-1.237.309-1.817.586-3.801.398-2.262-.214-3.278-.228-3.873-.211-.891-.079-1.34-.275-1.34-.275l.078.877c-.592.452-1.785 1.11-4.234 1.775-1.591.177-2.917-.309-3.713.133-.795.442-3.314 1.546-4.596 1.855-1.282.309-2.231.889-3 1.141-1.221.398 2.42 6.233 4 7 0 0-.547.568-1 1.043-1.099.751-1.965.801-1.965.801l.055.602c-1.276.678-2.54.995-2.961 1.055-.107.015-.524.287-1.129.715 2.615 8 10.13 13.785 19 13.785 1.802 0 3.539-.26 5.199-.707.167-1.087.393-2.627.533-4.084.434-.638 1.018-.646 1.018-.646 0 0-.75-2.125-.676-4.684.093-.607.251-1.179.451-1.723h.756c0 0-.095-1.044.332-2.105 1.405-2.136 3.322-3.563 4.141-4.191.772-.593 4.331-1.503 5.082-1.68.751-.177 1.458-1.371 1.502-1.725.044-.354-.221-1.016-.221-1.016l-1.988-.441-2.406-.271c0 0 3.303-4.894 3.898-5.461.631-.601.938-1.34.938-2.047 0-.707-.52-1.658-.52-1.658 0 0-.597-.303-1.572-.266-.163.006-.331-.016-.512-.031" fill="url(#b)"/><path d="m12 26c0 0-.547.568-1 1.043-1.099.751-1.965.801-1.965.801l.055.602c-.788.419-1.546.686-2.129.854l-.848.202-1.113.718c2.588 7.941 9.919 13.705 18.84 13.777l3.164-8.996-8-8c0 0-1.309.429-3.631.028-2.321-.401-3.369-1.028-3.369-1.028" fill="url(#f)" opacity=".2"/><path d="m42.25 12c0 0-.313-.281-.656-.313-.344-.031-1.063.094-1.281.063-.219-.031-.969-.469-.969-.469 0 0 1-.563 1.344-.625.344-.063.938-.156.938-.156 0 0 .25.313.438.75.188.438.188.75.188.75" fill="#2c3e50"/><path d="m40.987 21.23c-.675.09-.805.015-.805.015 0 0 .156-.707.325-.767.169-.06.662.707.48.752" fill="#fcfcfc"/><path d="m41.906 14.969s-2.219 1.063-3.281 2.719c-1.063 1.656-1.813 3.344-1.813 3.344s0.75 0.156 1.438 0.406 1.938 0.313 2.469 0.219 0.688-0.344 0.156-0.563c-0.531-0.219-1.313-0.375-1.344-0.844s0.969-3.188 1.25-3.625c0.281-0.438 1.125-1.656 1.125-1.656" fill="#2c3e50"/><path d="m22.438 20.375s2.749-0.414 3.796-1.04c3.414-2.04 3.298-3.179 3.298-3.179s-3.611-1.445-6.108 1.534c-1.045 1.247-0.986 2.685-0.986 2.685" fill="#34495e"/><path d="m23.467 19.14s2.74-0.552 3.757-1.304c1.016-0.751 1.436-1.149 1.304-1.414-0.133-0.265-1.127-0.663-2.364-0.354s-2.121 1.193-2.364 1.746c-0.243 0.552-0.486 1.149-0.331 1.326" fill="url(#d)"/><path d="m38.956 21.676c1.01.116 1.2.019 1.2.019 0 0-.232-.91-.484-.987-.252-.077-.987.91-.716.968" fill="#fcfcfc"/><path d="m12.298 24.795c1.01 0.774 3.56 1.23 4.811 1.048 2.951-0.431 3.103-0.21 2.391-2.093-0.514-1.359-3.5-2.75-5.5-0.75l-1-1c0.593-0.854-0.5-2.844-1-3s-2.859 0.486-3.078 0.705 2.369 4.317 3.376 5.091" fill="url(#g)"/></g><path d="m4.01 23.5c-.004.167-.012.332-.012.5 0 11.05 8.954 20 20 20 11.05 0 20-8.954 20-20 0-.168-.008-.333-.012-.5-.266 10.814-9.11 19.5-19.988 19.5-10.878 0-19.722-8.686-19.988-19.5" color="#000000" fill="#256592" stroke-linejoin="round" stroke-width="3"/></svg>
