<?xml version="1.0" encoding="UTF-8"?>
<svg version="1.1" viewBox="0 0 48 48" xmlns="http://www.w3.org/2000/svg"><defs><linearGradient id="a" x1="428.82" x2="388.86" y1="547.63" y2="499.68" gradientTransform="translate(-384.57,-499.8)" gradientUnits="userSpaceOnUse"><stop stop-color="#2a2c2f" offset="0"/><stop stop-color="#536161" offset="1"/></linearGradient><linearGradient id="b" x1="36" x2="14" y1="44" y2="12" gradientUnits="userSpaceOnUse"><stop stop-color="#bfc9c9" offset="0"/><stop stop-color="#fbfbfb" offset="1"/></linearGradient><linearGradient id="c" x1="406.5" x2="419.97" y1="527.01" y2="539.82" gradientTransform="translate(-384.57,-499.8)" gradientUnits="userSpaceOnUse"><stop stop-color="#292c2f" offset="0"/><stop stop-opacity="0" offset="1"/></linearGradient></defs><rect x="4" y="4" width="40" height="40" rx="1" ry="1" fill="url(#a)"/><path d="m4 42v1c0 0.55401 0.446 1 1 1h38c0.554 0 1-0.44599 1-1v-1c0 0.55401-0.446 1-1 1h-38c-0.554 0-1-0.44599-1-1z" fill="#000" opacity=".3"/><path d="M 20.414,14 19,15.414 27.586,24 19,32.586 20.414,34 30.414,24 29,22.586 Z" fill="url(#b)"/><path d="m20.42 34 9.586 9.586h14v-6l-13.586-13.586z" fill="url(#c)" fill-rule="evenodd" opacity=".4"/><path d="m4 6v-1c0-0.55401 0.446-1 1-1h38c0.554 0 1 0.44599 1 1v1c0-0.55401-0.446-1-1-1h-38c-0.554 0-1 0.44599-1 1z" fill="#fff" opacity=".3"/></svg>
