<?xml version="1.0" encoding="UTF-8"?>
<svg id="al" version="1.1" viewBox="0 0 236 64" xmlns="http://www.w3.org/2000/svg" xmlns:xlink="http://www.w3.org/1999/xlink"><defs id="am"><linearGradient id="c"><stop id="an" stop-color="#fff" stop-opacity=".353" offset="0"/><stop id="ao" stop-color="#fff" stop-opacity="0" offset="1"/></linearGradient><linearGradient id="a"><stop id="ap" stop-color="#fa0" offset="0"/><stop id="aq" stop-color="#ffd500" offset="1"/></linearGradient><linearGradient id="d"><stop id="ar" stop-color="#7d7d7d" stop-opacity=".43137" offset="0"/><stop id="as" stop-color="#bbb" stop-opacity=".35294" offset="1"/></linearGradient><linearGradient id="b"><stop id="at" stop-color="#fff" offset="0"/><stop id="au" stop-color="#eee" offset="1"/></linearGradient><linearGradient id="e"><stop id="av" stop-color="#2b2b2b" stop-opacity=".502" offset="0"/><stop id="aw" stop-color="#2b2b2b" offset="1"/></linearGradient><clipPath id="aj"><path id="ax" d="m-100 1101.4h56c1.662 0 3 1.3379 3 2.9999v51c0 1.662-1.338 2.9999-3 2.9999h-56c-1.662 0-3-1.3379-3-2.9999v-51c0-1.662 1.338-2.9999 3-2.9999z" fill="#ffba24"/></clipPath><linearGradient id="g" x1="173" x2="153" y1="-18" y2="-18" gradientTransform="matrix(.8057 0 0 1 -89.669 1132.9)" gradientUnits="userSpaceOnUse" xlink:href="#e" spreadMethod="reflect"/><linearGradient id="f" x1="173" x2="153" y1="-18" y2="-18" gradientTransform="matrix(.8057 0 0 1 -94.669 1135.9)" gradientUnits="userSpaceOnUse" xlink:href="#e" spreadMethod="reflect"/><clipPath id="ai"><path id="ay" d="m-4 1114.4h40c1.662 0 3 1.3379 3 2.9999l-4e-6 37c0 1.662-1.338 2.9999-3 2.9999h-40c-1.662 0-3-1.3379-3-2.9999l4e-6 -37c2e-7 -1.662 1.338-2.9999 3-2.9999z" fill="#ffba24"/></clipPath><linearGradient id="z" x1="-90.017" x2="-61.193" y1="1141.8" y2="1164.1" gradientTransform="translate(115.19 -118.71)" gradientUnits="userSpaceOnUse" xlink:href="#b"/><linearGradient id="y" x1="-90.193" x2="-55.193" y1="1122.1" y2="1157.1" gradientTransform="translate(169.19 -111.71)" gradientUnits="userSpaceOnUse" xlink:href="#b"/><clipPath id="ak"><path id="az" d="m81.667 1017.4h24c1.662 0 3 1.3379 3 2.9999v22c0 1.662-1.338 2.9999-3 2.9999h-24c-1.662 0-3-1.3379-3-2.9999v-22c0-1.662 1.338-2.9999 3-2.9999z" fill="#000"/></clipPath><linearGradient id="j" x1="-87.193" x2="-64.193" y1="1133.1" y2="1153.1" gradientTransform="translate(214.19 -106.71)" gradientUnits="userSpaceOnUse" xlink:href="#b"/><linearGradient id="i" x1="-82.193" x2="-64.193" y1="1138.1" y2="1153.1" gradientTransform="translate(302.19 -1091.1)" gradientUnits="userSpaceOnUse" xlink:href="#b"/><linearGradient id="h" x1="-81.193" x2="-64.193" y1="1140.1" y2="1153.1" gradientTransform="translate(273.19 -105.71)" gradientUnits="userSpaceOnUse" xlink:href="#b"/><linearGradient id="u" x1="173" x2="153" y1="-18" y2="-18" gradientTransform="matrix(.53714 0 0 .66667 -18.592 1140.4)" gradientUnits="userSpaceOnUse" xlink:href="#e" spreadMethod="reflect"/><linearGradient id="t" x1="173" x2="153" y1="-18" y2="-18" gradientTransform="matrix(.53714 0 0 .66667 -21.925 1142.4)" gradientUnits="userSpaceOnUse" xlink:href="#e" spreadMethod="reflect"/><linearGradient id="s" x1="190.39" x2="207.48" y1="1033" y2="1049.9" gradientUnits="userSpaceOnUse" xlink:href="#d"/><linearGradient id="r" x1="126.38" x2="152.08" y1="1026.4" y2="1048.9" gradientUnits="userSpaceOnUse" xlink:href="#d"/><linearGradient id="q" x1="73.905" x2="114.1" y1="1011.1" y2="1047.8" gradientUnits="userSpaceOnUse" xlink:href="#d"/><linearGradient id="p" x1="4.9459" x2="60.095" y1="997.09" y2="1047.9" gradientUnits="userSpaceOnUse" xlink:href="#d"/><linearGradient id="x" x1="9.9076" x2="43.133" y1="48.92" y2="56.344" gradientUnits="userSpaceOnUse" xlink:href="#a" spreadMethod="reflect"/><linearGradient id="w" x1="76.859" x2="100.66" y1="53.602" y2="57.406" gradientUnits="userSpaceOnUse" xlink:href="#a" spreadMethod="reflect"/><linearGradient id="v" x1="127.79" x2="141.63" y1="56.769" y2="59.186" gradientUnits="userSpaceOnUse" xlink:href="#a" spreadMethod="reflect"/><linearGradient id="o" x1="192.89" x2="202.74" y1="57.698" y2="59.974" gradientUnits="userSpaceOnUse" xlink:href="#a" spreadMethod="reflect"/><filter id="ah" x="-.11516" y="-.12526" width="1.2303" height="1.2505"><feGaussianBlur id="ba" stdDeviation="2.9750001"/></filter><filter id="ag" x="-.1393" y="-.14902" width="1.2786" height="1.298"><feGaussianBlur id="bb" stdDeviation="2.6700001"/></filter><filter id="af" x="-.116" y="-.12429" width="1.232" height="1.2486"><feGaussianBlur id="bc" stdDeviation="1.4499999"/></filter><linearGradient id="n" x1="46.44" x2="63" y1="49.364" y2="51.641" gradientUnits="userSpaceOnUse" xlink:href="#c"/><linearGradient id="m" x1="147" x2="154" y1="57" y2="57.938" gradientUnits="userSpaceOnUse" xlink:href="#c"/><linearGradient id="l" x1="204" x2="209" y1="59" y2="59.75" gradientUnits="userSpaceOnUse" xlink:href="#c"/><linearGradient id="k" x1="106" x2="117" y1="54" y2="55" gradientUnits="userSpaceOnUse" xlink:href="#c"/><linearGradient id="aa" x1="222.14" x2="230.35" y1="58.913" y2="60.81" gradientUnits="userSpaceOnUse" xlink:href="#a" spreadMethod="reflect"/><linearGradient id="ae" x1="178" x2="182" y1="59" y2="59.75" gradientTransform="translate(0 988.36)" gradientUnits="userSpaceOnUse" xlink:href="#c"/><linearGradient id="ad" x1="161.83" x2="172.72" y1="56.925" y2="60.11" gradientTransform="translate(0 988.36)" gradientUnits="userSpaceOnUse" xlink:href="#a" spreadMethod="reflect"/><linearGradient id="ac" x1="167.39" x2="186.74" y1="1031.1" y2="1049.5" gradientTransform="translate(-6)" gradientUnits="userSpaceOnUse" xlink:href="#d"/><linearGradient id="ab" x1="-81.193" x2="-64.193" y1="1140.1" y2="1153.1" gradientTransform="translate(245.19 -106.71)" gradientUnits="userSpaceOnUse" xlink:href="#b"/></defs><g id="bd" display="none"><rect id="be" x="-75" y="-70" width="400" height="250" fill="#000"/></g><g id="bf" transform="translate(0 -988.36)"><g id="64"><rect id="bg" y="991.36" width="64" height="64" opacity="0"/><path id="bh" d="m4 994.36h56c1.662 0 3 1.3379 3 2.9999v51c0 1.662-1.338 2.9999-3 2.9999h-56c-1.662 0-3-1.3379-3-2.9999v-51c0-1.662 1.338-2.9999 3-2.9999z" fill="url(#z)"/><path id="bi" transform="translate(104 -107)" d="m-100 1101.4h56c1.662 0 3 1.3379 3 2.9999v51c0 1.662-1.338 2.9999-3 2.9999h-56c-1.662 0-3-1.3379-3-2.9999v-51c0-1.662 1.338-2.9999 3-2.9999z" clip-path="url(#aj)" fill="none" filter="url(#ah)" opacity=".05" stroke="#000"/><path id="bj" transform="translate(0 988.36)" d="m25 40c-8.9182 0-17.165 1.4831-24 3.9688v16.031c0 1.662 1.338 3 3 3h56c1.662 0 3-1.338 3-3v-7.5625c-6.9795-7.3704-21.367-12.438-38-12.438z" fill="url(#x)"/><path id="bk" d="m4 993.36c-2.216 0-4 1.784-4 4v51c0 2.216 1.784 4 4 4h56c2.216 0 4-1.784 4-4v-51c0-2.216-1.784-4-4-4zm0 1h56c1.662 0 3 1.338 3 3v51c0 1.662-1.338 3-3 3h-56c-1.662 0-3-1.338-3-3v-51c0-1.662 1.338-3 3-3z" fill="url(#p)"/><path id="bl" transform="translate(0 988.36)" d="m2 43.625c-0.33276 0.11403-0.67352 0.22501-1 0.34375v16.031c0 1.662 1.338 3 3 3h56c1.662 0 3-1.338 3-3v-7.5625c-0.3145-0.33211-0.65594-0.64633-1-0.96875v0.96875 2.5625 4c0 1.662-1.338 3-3 3h-54c-1.662 0-3-1.338-3-3v-4-11.031-0.34375z" fill="url(#n)"/><g id="bm" transform="translate(-16.719 -106.58)"><path id="bn" d="m31.719 1114.9v1h33v-1zm2 3v1h30v-1zm1 3v1h28v-1zm2 3v1h25v-1zm2 3v1h22v-1zm2 3v1h19v-1zm1 3v1h17v-1z" fill="url(#g)"/><path id="bo" d="m44.719 1137.9c-1.6569 0-3 1.3431-3 3s1.3431 3 3 3c1.6569 0 3-1.3431 3-3s-1.3431-3-3-3zm0 1.5c0.82812 0 1.5 0.6562 1.5 1.5s-0.6875 1.5-1.5 1.5-1.4844-0.6977-1.5-1.5c-0.0156-0.8023 0.67188-1.5 1.5-1.5z" fill="#1f1c1b"/><path id="bp" d="m57.719 1137.9c-1.6569 0-3 1.3431-3 3s1.3431 3 3 3c1.6569 0 3-1.3431 3-3s-1.3431-3-3-3zm0 1.5c0.82812 0 1.5 0.6562 1.5 1.5s-0.6875 1.5-1.5 1.5-1.4844-0.6977-1.5-1.5c-0.0156-0.8023 0.67188-1.5 1.5-1.5z" fill="#1f1c1b"/><path id="bq" d="m38.719 1141.9c-1.6569 0-3 1.3431-3 3s1.3431 3 3 3c1.6569 0 3-1.3431 3-3s-1.3431-3-3-3zm0 1.5c0.82812 0 1.5 0.6562 1.5 1.5s-0.6875 1.5-1.5 1.5-1.4844-0.6977-1.5-1.5c-0.0156-0.8023 0.67188-1.5 1.5-1.5z" fill="#1f1c1b"/><path id="br" d="m51.719 1141.9c-1.6569 0-3 1.3431-3 3s1.3431 3 3 3c1.6569 0 3-1.3431 3-3s-1.3431-3-3-3zm0 1.5c0.82812 0 1.5 0.6562 1.5 1.5s-0.6875 1.5-1.5 1.5-1.4844-0.6977-1.5-1.5c-0.0156-0.8023 0.67188-1.5 1.5-1.5z" fill="#1f1c1b"/><path id="bs" d="m32.719 1114.9h-2s10.136 18.364 11 20c0.69068 1.004 1 2 2 2h14c1 0 1.4798-0.6107 2-2l6-20h7v-2h-7c-0.627 0-1.536 0.4619-2 2-2.2984 7.6047-3.7234 12.344-6 20h-14z" fill="#2b2b2b"/><path id="bt" d="m43.719 1134.9h14 2c-0.27359 0.5909-0.48202 1.382-1.1382 1.768l-5.1547 3.0552-0.70711-1.8232h-14z" fill="#000"/><path id="bu" d="m73.719 1113.9c0 0.5523-0.44772 1-1 1s-1-0.4477-1-1 0.44772-1 1-1 1 0.4477 1 1z" fill="#000"/><path id="bv" d="m31.719 1114.9c-0.084186 0-0.14914 0.0257-0.21875 0.0625-0.044547 0.0235-0.089693 0.0584-0.125 0.0938l-4.6563 2.8437v1l5.125-3.0312c0.21075-0.0588 0.375-0.2393 0.375-0.4688 0-0.2761-0.22386-0.5-0.5-0.5zm2 3c-0.077453 0-0.15331-2e-4 -0.21875 0.0312l-4.7813 2.9687v1l5.1563-3.0312c0.19504-0.0681 0.34375-0.2505 0.34375-0.4688 0-0.2761-0.22386-0.5-0.5-0.5zm1.5 3c-0.099347 0-0.17218 0.0439-0.25 0.0937l-0.031253-0.0312-4.2188 2.9375v1l4.75-3.0937c0.1385-0.089 0.25-0.2295 0.25-0.4063 0-0.2761-0.22386-0.5-0.5-0.5zm1.5 3c-0.13807 0-0.25327 0.0657-0.34375 0.1562l-4.6563 2.8438v1l5.2188-3.0625c0.15871-0.0839 0.28125-0.2455 0.28125-0.4375 0-0.2762-0.22386-0.5-0.5-0.5zm2 3c-0.10776 0-0.19961 0.0357-0.28125 0.0937v-0.0312l-4.7188 2.9375v1l5.0938-3.0312c0.22653-0.0476 0.40625-0.2281 0.40625-0.4688 0-0.2761-0.22386-0.5-0.5-0.5zm1.4688 3c-0.06904 0-0.12768 0.0053-0.1875 0.0312l-5.2813 2.9687v1l5.6875-3.0625c0.15871-0.0838 0.28125-0.2455 0.28125-0.4375 0-0.2761-0.22386-0.5-0.5-0.5zm1.5312 3c-0.13807 0-0.25327 0.0657-0.34375 0.1562l-4.6563 2.8438v1l5.2188-3.0625c0.15871-0.0839 0.28125-0.2455 0.28125-0.4375 0-0.2762-0.22386-0.5-0.5-0.5z" fill="#434343"/><path id="bw" d="m59.719 1117.9v1l5.2375-3.0718-0.51376-0.8398zm-1 3v1l5.1878-3.0552-0.39775-0.9006zm-1 3v1l5.0994-3.0221-0.32041-0.9227zm-1 3v1l5.1105-3.0332-0.27621-0.9447zm-1 3v1l5.232-3.0553-0.3867-0.9447zm-1 3v1l5.1989-3.0552-0.37565-0.9006zm-1 3v1l5.221-3.0773-0.4088-0.9006z" fill="#252525"/><path id="bx" d="m66.99 1116.2 5.112-3.0796 1.2772 1.5313-5.1897 3.1332z" fill="#000"/><path id="by" d="m68.719 1116.9c0 0.5523-0.44772 1-1 1s-1-0.4477-1-1 0.44772-1 1-1 1 0.4477 1 1z" fill="#000"/><path id="bz" transform="matrix(.99461 0 0 1 -221.77 1062.9)" d="m284.52 64.5c0 0.27614-0.22507 0.5-0.50271 0.5s-0.50271-0.22386-0.50271-0.5 0.22507-0.5 0.50271-0.5 0.50271 0.22386 0.50271 0.5z" fill="#252525"/><path id="ca" transform="matrix(.99461 0 0 1 -220.77 1059.9)" d="m284.52 64.5c0 0.27614-0.22507 0.5-0.50271 0.5s-0.50271-0.22386-0.50271-0.5 0.22507-0.5 0.50271-0.5 0.50271 0.22386 0.50271 0.5z" fill="#252525"/><path id="cb" transform="matrix(.99461 0 0 1 -219.77 1056.9)" d="m284.52 64.5c0 0.27614-0.22507 0.5-0.50271 0.5s-0.50271-0.22386-0.50271-0.5 0.22507-0.5 0.50271-0.5 0.50271 0.22386 0.50271 0.5z" fill="#252525"/><path id="cc" transform="matrix(.99461 0 0 1 -218.77 1053.9)" d="m284.52 64.5c0 0.27614-0.22507 0.5-0.50271 0.5s-0.50271-0.22386-0.50271-0.5 0.22507-0.5 0.50271-0.5 0.50271 0.22386 0.50271 0.5z" fill="#252525"/><path id="cd" transform="matrix(.99461 0 0 1 -222.77 1065.9)" d="m284.52 64.5c0 0.27614-0.22507 0.5-0.50271 0.5s-0.50271-0.22386-0.50271-0.5 0.22507-0.5 0.50271-0.5 0.50271 0.22386 0.50271 0.5z" fill="#252525"/><path id="ce" transform="matrix(.99461 0 0 1 -223.77 1068.9)" d="m284.52 64.5c0 0.27614-0.22507 0.5-0.50271 0.5s-0.50271-0.22386-0.50271-0.5 0.22507-0.5 0.50271-0.5 0.50271 0.22386 0.50271 0.5z" fill="#252525"/><path id="cf" transform="matrix(.99461 0 0 1 -217.77 1050.9)" d="m284.52 64.5c0 0.27614-0.22507 0.5-0.50271 0.5s-0.50271-0.22386-0.50271-0.5 0.22507-0.5 0.50271-0.5 0.50271 0.22386 0.50271 0.5z" fill="#252525"/><path id="cg" d="m26.719 1117.9v1h33v-1zm2 3v1h30v-1zm1 3v1h28v-1zm2 3v1h25v-1zm2 3v1h22v-1zm2 3v1h19v-1zm1 3v1h17v-1z" fill="url(#f)"/><path id="ch" d="m27.719 1117.9h-2s10.136 18.364 11 20c0.69068 1.004 1 2 2 2h14c1 0 1.4798-0.6107 2-2l6-20h7c1.3084 0.0027 1.2792-2.0032 0-2h-7c-0.627 0-1.536 0.4619-2 2-2.2984 7.6047-3.7234 12.344-6 20h-14z" fill="#1f1c1b"/></g></g><g id="48"><rect id="ci" x="70" y="1006.4" width="48" height="48" opacity="0"/><path id="cj" d="m74 1008.4h40c1.662 0 3 1.3379 3 2.9999v37c0 1.662-1.338 2.9999-3 2.9999h-40c-1.662 0-3-1.3379-3-2.9999l4e-6 -37c0-1.662 1.338-2.9999 3-2.9999z" fill="url(#y)"/><path id="ck" d="m74 1007.4c-2.216 0-4 1.784-4 4l-4e-6 37c0 2.216 1.784 4 4 4h40c2.216 0 4-1.784 4-4v-37c0-2.216-1.784-4-4-4zm0 1h40c1.662 0 3 1.338 3 3v37c0 1.662-1.338 3-3 3h-40c-1.662 0-3-1.338-3-3l4e-6 -37c0-1.662 1.338-3 3-3z" fill="url(#q)"/><path id="cl" transform="translate(78 -106)" d="m-4 1114.4h40c1.662 0 3 1.3379 3 2.9999l-4e-6 37c0 1.662-1.338 2.9999-3 2.9999h-40c-1.662 0-3-1.3379-3-2.9999l4e-6 -37c2e-7 -1.662 1.338-2.9999 3-2.9999z" clip-path="url(#ai)" fill="none" filter="url(#ag)" opacity=".05" stroke="#000"/><path id="cm" transform="translate(0 988.36)" d="m91 47c-8.8858 0-13.536 1.4682-20 3.9375v9.0625c0 1.662 1.338 3 3 3h40c1.662 0 3-1.338 3-3v-3.1562c-6.3948-7.1084-14.602-9.8438-26-9.8438z" fill="url(#w)"/><path id="cn" transform="translate(0 988.36)" d="m72 50.562c-0.33553 0.12599-0.65505 0.24323-1 0.375v9.0625c0 1.662 1.338 3 3 3h40c1.662 0 3-1.338 3-3v-3.1562c-0.31873-0.3543-0.66951-0.67026-1-1v2.1562 1 1h-0.1875c-0.41433 1.1589-1.5071 1.9979-2.8125 2l-38 0.0625c-1.3261 0.002182-2.414-0.87328-2.8125-2.0625h-0.1875v-0.9375-8.5z" fill="url(#k)"/><g id="co" transform="translate(21 -102)"><g id="cp" transform="translate(-1 -5.6667)"><path id="cq" d="m62.333 1128.4v0.6667h22v-0.6667zm1.3333 2v0.6667h20v-0.6667zm0.66667 2v0.6667h18.667v-0.6667zm1.3333 2v0.6667h16.667v-0.6667zm1.3333 2v0.6667h14.667v-0.6667zm1.3333 2v0.6667h12.667v-0.6667zm0.66666 2v0.6667h11.333v-0.6667z" fill="url(#u)"/><path id="cr" d="m71.333 1144c-1.1046 0-2 0.8954-2 2s0.89541 2 2 2c1.1046 0 2-0.8954 2-2s-0.89543-2-2-2zm0 1c0.55208 0 1 0.4375 1 1s-0.45834 1-1 1c-0.54167 0-0.98959-0.4651-1-1-0.01067-0.5349 0.44792-1 1-1z" fill="#1f1c1b"/><path id="cs" d="m80.333 1144c-1.1046 0-2 0.8954-2 2s0.89541 2 2 2c1.1046 0 2-0.8954 2-2s-0.89543-2-2-2zm0 1c0.55208 0 1 0.4375 1 1s-0.45834 1-1 1c-0.54167 0-0.98959-0.4651-1-1-0.01067-0.5349 0.44792-1 1-1z" fill="#1f1c1b"/><path id="ct" d="m67.333 1146c-1.1046 0-2 0.8954-2 2s0.89541 2 2 2c1.1046 0 2-0.8954 2-2s-0.89543-2-2-2zm0 1c0.55208 0 1 0.4375 1 1s-0.45834 1-1 1c-0.54167 0-0.98959-0.4651-1-1-0.01067-0.5349 0.44792-1 1-1z" fill="#1f1c1b"/><path id="cu" d="m76.333 1146c-1.1046 0-2 0.8954-2 2s0.89541 2 2 2c1.1046 0 2-0.8954 2-2s-0.89543-2-2-2zm0 1c0.55208 0 1 0.4375 1 1s-0.45834 1-1 1c-0.54167 0-0.98959-0.4651-1-1-0.01067-0.5349 0.44792-1 1-1z" fill="#1f1c1b"/><path id="cv" d="m63 1128.4h-1.3333s6.7575 12.243 7.3333 13.333c0.46046 0.6693 0.66667 1.3333 1.3333 1.3333h9.3333c0.66667 0 0.98653-0.4072 1.3333-1.3333l4-13.333h4.6667v-1.3333h-4.6667c-0.41802 0-1.024 0.3079-1.3334 1.3333-1.5322 5.0698-2.4823 8.2297-4 13.333h-9.3333z" fill="#2b2b2b"/><path id="cw" d="m70.333 1141.7h9.3333 1.3333c-0.18238 0.3939-0.32134 0.9213-0.7588 1.1786l-3.4364 2.0368-0.47141-1.2154h-9.3333z" fill="#000"/><path id="cx" d="m90.333 1127.7c0 0.3682-0.29848 0.6666-0.66667 0.6666-0.36818 0-0.66666-0.2984-0.66666-0.6666s0.29848-0.6667 0.66666-0.6667c0.36819 0 0.66667 0.2985 0.66667 0.6667z" fill="#000"/><path id="cy" d="m62.333 1128.4c-0.05614 0-0.09947 0.0172-0.14583 0.0418-0.02973 0.0156-0.05973 0.0389-0.08333 0.0625l-3.1042 1.8958v0.6667l3.4167-2.0208c0.14051-0.0392 0.25-0.1595 0.25-0.3125 0-0.1841-0.14924-0.3334-0.33333-0.3334zm1.3333 2c-0.0516 0-0.10227-1e-4 -0.14583 0.0208l-3.1875 1.9792v0.6667l3.4375-2.0209c0.13-0.0454 0.22916-0.1669 0.22916-0.3125 0-0.1841-0.14924-0.3333-0.33333-0.3333zm1 2c-0.06627 0-0.1148 0.0292-0.16667 0.0626l-0.0208-0.0208-2.8125 1.9583v0.6667l3.1667-2.0625c0.09226-0.0594 0.16666-0.153 0.16666-0.2709 0-0.1841-0.14924-0.3333-0.33333-0.3333zm1 2c-0.092 0-0.16884 0.0439-0.22916 0.1042l-3.1042 1.8958v0.6667l3.4792-2.0417c0.10587-0.0559 0.18749-0.1637 0.18749-0.2917 0-0.1841-0.14924-0.3333-0.33333-0.3333zm1.3333 2c-0.07186 0-0.13306 0.0239-0.18749 0.0626v-0.0208l-3.1458 1.9583v0.6667l3.3958-2.0209c0.15101-0.0317 0.27083-0.152 0.27083-0.3125 0-0.1841-0.14924-0.3333-0.33334-0.3333zm0.97918 2c-0.046 0-0.08507 4e-3 -0.12494 0.0208l-3.5208 1.9792v0.6667l3.7917-2.0417c0.10587-0.0559 0.18751-0.1637 0.18751-0.2917 0-0.1841-0.14924-0.3333-0.33334-0.3333zm1.0208 2c-0.092 0-0.16884 0.0439-0.22916 0.1042l-3.1042 1.8958v0.6667l3.4792-2.0417c0.10587-0.0559 0.1875-0.1637 0.1875-0.2917 0-0.1841-0.14924-0.3333-0.33334-0.3333z" fill="#434343"/><path id="cz" d="m81 1130.4v0.6667l3.4917-2.0479-0.34251-0.5598zm-0.66666 2v0.6667l3.4586-2.0368-0.26518-0.6004zm-0.66667 2v0.6667l3.3996-2.0147-0.2136-0.6151zm-0.66667 2v0.6667l3.407-2.0221-0.18414-0.6298zm-0.66666 2v0.6667l3.488-2.0368-0.2578-0.6299zm-0.66667 2v0.6667l3.4659-2.0368-0.25044-0.6004zm-0.66667 2v0.6667l3.4807-2.0516-0.27254-0.6003z" fill="#252525"/><path id="da" d="m85.847 1129.2 3.408-2.0531 0.85149 1.0209-3.4598 2.0888z" fill="#000"/><path id="db" d="m87 1129.7c0 0.3682-0.29848 0.6666-0.66667 0.6666s-0.66667-0.2984-0.66667-0.6666 0.29848-0.6667 0.66667-0.6667 0.66667 0.2985 0.66667 0.6667z" fill="#000"/><path id="dc" transform="matrix(.66307 0 0 .66667 -106.66 1093.7)" d="m284.52 64.5c0 0.27614-0.22507 0.5-0.50271 0.5s-0.50271-0.22386-0.50271-0.5 0.22507-0.5 0.50271-0.5 0.50271 0.22386 0.50271 0.5z" fill="#252525"/><path id="dd" transform="matrix(.66307 0 0 .66667 -105.99 1091.7)" d="m284.52 64.5c0 0.27614-0.22507 0.5-0.50271 0.5s-0.50271-0.22386-0.50271-0.5 0.22507-0.5 0.50271-0.5 0.50271 0.22386 0.50271 0.5z" fill="#252525"/><path id="de" transform="matrix(.66307 0 0 .66667 -105.33 1089.7)" d="m284.52 64.5c0 0.27614-0.22507 0.5-0.50271 0.5s-0.50271-0.22386-0.50271-0.5 0.22507-0.5 0.50271-0.5 0.50271 0.22386 0.50271 0.5z" fill="#252525"/><path id="df" transform="matrix(.66307 0 0 .66667 -104.66 1087.7)" d="m284.52 64.5c0 0.27614-0.22507 0.5-0.50271 0.5s-0.50271-0.22386-0.50271-0.5 0.22507-0.5 0.50271-0.5 0.50271 0.22386 0.50271 0.5z" fill="#252525"/><path id="dg" transform="matrix(.66307 0 0 .66667 -107.33 1095.7)" d="m284.52 64.5c0 0.27614-0.22507 0.5-0.50271 0.5s-0.50271-0.22386-0.50271-0.5 0.22507-0.5 0.50271-0.5 0.50271 0.22386 0.50271 0.5z" fill="#252525"/><path id="dh" transform="matrix(.66307 0 0 .66667 -107.99 1097.7)" d="m284.52 64.5c0 0.27614-0.22507 0.5-0.50271 0.5s-0.50271-0.22386-0.50271-0.5 0.22507-0.5 0.50271-0.5 0.50271 0.22386 0.50271 0.5z" fill="#252525"/><path id="di" transform="matrix(.66307 0 0 .66667 -103.99 1085.7)" d="m284.52 64.5c0 0.27614-0.22507 0.5-0.50271 0.5s-0.50271-0.22386-0.50271-0.5 0.22507-0.5 0.50271-0.5 0.50271 0.22386 0.50271 0.5z" fill="#252525"/><path id="dj" d="m59 1130.4v0.6667h22v-0.6667zm1.3333 2v0.6667h20v-0.6667zm0.66666 2v0.6667h18.667v-0.6667zm1.3333 2v0.6667h16.667v-0.6667zm1.3333 2v0.6667h14.667v-0.6667zm1.3333 2v0.6667h12.667v-0.6667zm0.66667 2v0.6667h11.333v-0.6667z" fill="url(#t)"/><path id="dk" d="m59.667 1130.4h-1.3333s6.7575 12.243 7.3333 13.333c0.46045 0.6693 0.66667 1.3333 1.3333 1.3333h9.3333c0.66666 0 0.98653-0.4072 1.3333-1.3333l4-13.333h4.6667c0.87228 0.0013 0.85277-1.3354 0-1.3333h-4.6667c-0.418 0-1.024 0.3079-1.3333 1.3333-1.5322 5.0698-2.4823 8.2297-4 13.333h-9.3333z" fill="#1f1c1b"/></g></g></g><g id="32"><rect id="dl" x="123" y="1021.4" width="32" height="32" opacity="0"/><path id="dm" d="m127 1023.4h24c1.662 0 3 1.3379 3 2.9999v22c0 1.662-1.338 2.9999-3 2.9999h-24c-1.662 0-3-1.3379-3-2.9999v-22c0-1.662 1.338-2.9999 3-2.9999z" fill="url(#j)"/><path id="dn" d="m127 1022.4c-2.216 0-4 1.784-4 4v22c0 2.216 1.784 4 4 4h24c2.216 0 4-1.784 4-4v-22c0-2.216-1.784-4-4-4zm0 1h24c1.662 0 3 1.338 3 3v22c0 1.662-1.338 3-3 3h-24c-1.662 0-3-1.338-3-3v-22c0-1.662 1.338-3 3-3z" fill="url(#r)"/><path id="do" transform="translate(45.333 6)" d="m81.667 1017.4h24c1.662 0 3 1.3379 3 2.9999v22c0 1.662-1.338 2.9999-3 2.9999h-24c-1.662 0-3-1.3379-3-2.9999v-22c0-1.662 1.338-2.9999 3-2.9999z" clip-path="url(#ak)" fill="none" filter="url(#af)" opacity=".05" stroke="#000"/><path id="dp" transform="translate(0 988.36)" d="m137 52c-7.2288 0-11.286 0.68237-13 1.0625v6.9375c0 1.662 1.338 3 3 3h24c1.662 0 3-1.338 3-3v-2.6562c-2.3694-1.5367-9.0018-5.3438-17-5.3438z" fill="url(#v)"/><path id="dq" transform="translate(0 988.36)" d="m125 52.875c-0.34357 0.063879-0.75482 0.13311-1 0.1875v6.9375c0 1.662 1.338 3 3 3h24c1.662 0 3-1.338 3-3v-2.6562c-0.27004-0.17514-0.6235-0.36863-1-0.59375v2.25c0 1.662-1.338 3-3 3h-22c-1.662 0-3-1.338-3-3v-6.125z" fill="url(#m)"/><g id="dr" transform="translate(0 -4)" fill="#1f1c1b"><path id="ds" d="m130 1036.4h-2l5 9s0.726 1.9654 2 2h8c1.484 0.0692 2-2 2-2l3-8h4v-2h-4c-1.516 0-2 2-2 2l-3 8h-8z"/><path id="dt" d="m135.5 1048.4c-0.82843 0-1.5 0.6715-1.5 1.5 0 0.8284 0.67157 1.5 1.5 1.5 0.82844 0 1.5-0.6716 1.5-1.5 0-0.8285-0.67156-1.5-1.5-1.5z"/><path id="du" transform="matrix(.5 0 0 .43244 121.5 1035.4)" d="m23 3.4688c0 0.63858-0.44772 1.1562-1 1.1562s-1-0.51767-1-1.1562 0.44772-1.1562 1-1.1562 1 0.51767 1 1.1562z"/><path id="dv" transform="matrix(.5 0 0 .43244 130.5 1035.4)" d="m23 3.4688c0 0.63858-0.44772 1.1562-1 1.1562s-1-0.51767-1-1.1562 0.44772-1.1562 1-1.1562 1 0.51767 1 1.1562z"/><path id="dw" transform="matrix(.5 0 0 .43244 121.5 1037.4)" d="m23 3.4688c0 0.63858-0.44772 1.1562-1 1.1562s-1-0.51767-1-1.1562 0.44772-1.1562 1-1.1562 1 0.51767 1 1.1562z"/><path id="dx" transform="matrix(.5 0 0 .43244 124.5 1037.4)" d="m23 3.4688c0 0.63858-0.44772 1.1562-1 1.1562s-1-0.51767-1-1.1562 0.44772-1.1562 1-1.1562 1 0.51767 1 1.1562z"/><path id="dy" transform="matrix(.5 0 0 .43244 133.5 1037.4)" d="m23 3.4688c0 0.63858-0.44772 1.1562-1 1.1562s-1-0.51767-1-1.1562 0.44772-1.1562 1-1.1562 1 0.51767 1 1.1562z"/><path id="dz" transform="matrix(.5 0 0 .43244 121.5 1039.4)" d="m23 3.4688c0 0.63858-0.44772 1.1562-1 1.1562s-1-0.51767-1-1.1562 0.44772-1.1562 1-1.1562 1 0.51767 1 1.1562z"/><path id="ea" transform="matrix(.5 0 0 .43244 124.5 1039.4)" d="m23 3.4688c0 0.63858-0.44772 1.1562-1 1.1562s-1-0.51767-1-1.1562 0.44772-1.1562 1-1.1562 1 0.51767 1 1.1562z"/><path id="eb" transform="matrix(.5 0 0 .43244 127.5 1039.4)" d="m23 3.4688c0 0.63858-0.44772 1.1562-1 1.1562s-1-0.51767-1-1.1562 0.44772-1.1562 1-1.1562 1 0.51767 1 1.1562z"/><path id="ec" transform="matrix(.5 0 0 .43244 130.5 1039.4)" d="m23 3.4688c0 0.63858-0.44772 1.1562-1 1.1562s-1-0.51767-1-1.1562 0.44772-1.1562 1-1.1562 1 0.51767 1 1.1562z"/><path id="ed" transform="matrix(.5 0 0 .43244 133.5 1039.4)" d="m23 3.4688c0 0.63858-0.44772 1.1562-1 1.1562s-1-0.51767-1-1.1562 0.44772-1.1562 1-1.1562 1 0.51767 1 1.1562z"/><path id="ee" transform="matrix(.5 0 0 .43244 124.5 1041.4)" d="m23 3.4688c0 0.63858-0.44772 1.1562-1 1.1562s-1-0.51767-1-1.1562 0.44772-1.1562 1-1.1562 1 0.51767 1 1.1562z"/><path id="ef" transform="matrix(.5 0 0 .43244 127.5 1041.4)" d="m23 3.4688c0 0.63858-0.44772 1.1562-1 1.1562s-1-0.51767-1-1.1562 0.44772-1.1562 1-1.1562 1 0.51767 1 1.1562z"/><path id="eg" transform="matrix(.5 0 0 .43244 130.5 1041.4)" d="m23 3.4688c0 0.63858-0.44772 1.1562-1 1.1562s-1-0.51767-1-1.1562 0.44772-1.1562 1-1.1562 1 0.51767 1 1.1562z"/><path id="eh" transform="matrix(.5 0 0 .43244 124.5 1043.4)" d="m23 3.4688c0 0.63858-0.44772 1.1562-1 1.1562s-1-0.51767-1-1.1562 0.44772-1.1562 1-1.1562 1 0.51767 1 1.1562z"/><path id="ei" transform="matrix(.5 0 0 .43244 127.5 1043.4)" d="m23 3.4688c0 0.63858-0.44772 1.1562-1 1.1562s-1-0.51767-1-1.1562 0.44772-1.1562 1-1.1562 1 0.51767 1 1.1562z"/><path id="ej" transform="matrix(.5 0 0 .43244 130.5 1043.4)" d="m23 3.4688c0 0.63858-0.44772 1.1562-1 1.1562s-1-0.51767-1-1.1562 0.44772-1.1562 1-1.1562 1 0.51767 1 1.1562z"/><path id="ek" d="m142.5 1048.4c-0.82843 0-1.5 0.6716-1.5 1.5s0.67157 1.5 1.5 1.5c0.82844 0 1.5-0.6716 1.5-1.5s-0.67156-1.5-1.5-1.5z"/><path id="el" transform="matrix(.5 0 0 .43244 133.5 1035.4)" d="m23 3.4688c0 0.63858-0.44772 1.1562-1 1.1562s-1-0.51767-1-1.1562 0.44772-1.1562 1-1.1562 1 0.51767 1 1.1562z"/><path id="em" transform="matrix(.5 0 0 .43244 127.5 1035.4)" d="m23 3.4688c0 0.63858-0.44772 1.1562-1 1.1562s-1-0.51767-1-1.1562 0.44772-1.1562 1-1.1562 1 0.51767 1 1.1562z"/><path id="en" transform="matrix(.5 0 0 .43244 127.5 1037.4)" d="m23 3.4688c0 0.63858-0.44772 1.1562-1 1.1562s-1-0.51767-1-1.1562 0.44772-1.1562 1-1.1562 1 0.51767 1 1.1562z"/><path id="eo" transform="matrix(.5 0 0 .43244 124.5 1035.4)" d="m23 3.4688c0 0.63858-0.44772 1.1562-1 1.1562s-1-0.51767-1-1.1562 0.44772-1.1562 1-1.1562 1 0.51767 1 1.1562z"/><path id="ep" transform="matrix(.5 0 0 .43244 130.5 1037.4)" d="m23 3.4688c0 0.63858-0.44772 1.1562-1 1.1562s-1-0.51767-1-1.1562 0.44772-1.1562 1-1.1562 1 0.51767 1 1.1562z"/></g></g><g id="24"><path id="eq" d="m162 1029.4h18c1 0 2 0.9999 2 1.9999v18c0 0.9998-1 1.9999-2 1.9999h-18c-1 0-2-1.0001-2-1.9999v-18c0-1 1-1.9999 2-1.9999z" fill="url(#ab)"/><path id="er" d="m162 1028.4c-2 0-3 1-3 3v18c0 2 1 3 3 3h18c2 0 3-1 3-3v-18c0-2-1-3-3-3zm0 1h18c1 0 2 1 2 2v18c0 1-1 2-2 2h-18c-1 0-2-1-2-2v-18c0-1 1-2 2-2z" fill="url(#ac)"/><path id="es" d="m168 1044.4c-4.375 0-6.7988 0.3945-8 0.6875v4.3125c0 1 1 2 2 2h18c1 0 2-1 2-2v-2.3438c-2.138-0.7306-8.2738-2.6562-14-2.6562z" fill="url(#ad)"/><path id="et" d="m161 1044.9c-0.38124 0.0678-0.74037 0.1242-1 0.1875v4.3125c0 1 1 2 2 2h18c1 0 2-1 2-2v-2.3438c-0.23413-0.08-0.67578-0.2079-1-0.3125v1.6563c0 1-1 2-2 2h-16c-1 0-2-1-2-2v-3.5z" fill="url(#ae)"/><g id="eu" transform="translate(-6,-2)" fill="#1f1c1b"><path id="ev" d="m168 1036.4h-1s4.6221 8.2887 5 9c0.30217 0.4365 0.36677 1 1 1h8c0.75273 0 0.77241-0.396 1-1l3-9h3v-1h-3c-0.68035 0-1 0.3312-1 1-1.0055 3.3064-2.004 5.6715-3 9h-8z"/><path id="ew" d="m173.5 1047.4c-0.82843 0-1.5 0.6715-1.5 1.5 0 0.8284 0.67157 1.5 1.5 1.5 0.82844 0 1.5-0.6716 1.5-1.5 0-0.8285-0.67156-1.5-1.5-1.5z"/><path id="ex" transform="matrix(.5 0 0 .43244 159.5 1035.4)" d="m23 3.4688c0 0.63858-0.44772 1.1562-1 1.1562s-1-0.51767-1-1.1562 0.44772-1.1562 1-1.1562 1 0.51767 1 1.1562z"/><path id="ey" transform="matrix(.5 0 0 .43244 168.5 1035.4)" d="m23 3.4688c0 0.63858-0.44772 1.1562-1 1.1562s-1-0.51767-1-1.1562 0.44772-1.1562 1-1.1562 1 0.51767 1 1.1562z"/><path id="ez" transform="matrix(.5 0 0 .43244 159.5 1037.4)" d="m23 3.4688c0 0.63858-0.44772 1.1562-1 1.1562s-1-0.51767-1-1.1562 0.44772-1.1562 1-1.1562 1 0.51767 1 1.1562z"/><path id="fa" transform="matrix(.5 0 0 .43244 162.5 1037.4)" d="m23 3.4688c0 0.63858-0.44772 1.1562-1 1.1562s-1-0.51767-1-1.1562 0.44772-1.1562 1-1.1562 1 0.51767 1 1.1562z"/><path id="fb" transform="matrix(.5 0 0 .43244 171.5 1037.4)" d="m23 3.4688c0 0.63858-0.44772 1.1562-1 1.1562s-1-0.51767-1-1.1562 0.44772-1.1562 1-1.1562 1 0.51767 1 1.1562z"/><path id="fc" transform="matrix(.5 0 0 .43244 159.5 1039.4)" d="m23 3.4688c0 0.63858-0.44772 1.1562-1 1.1562s-1-0.51767-1-1.1562 0.44772-1.1562 1-1.1562 1 0.51767 1 1.1562z"/><path id="fd" transform="matrix(.5 0 0 .43244 162.5 1039.4)" d="m23 3.4688c0 0.63858-0.44772 1.1562-1 1.1562s-1-0.51767-1-1.1562 0.44772-1.1562 1-1.1562 1 0.51767 1 1.1562z"/><path id="fe" transform="matrix(.5 0 0 .43244 165.5 1039.4)" d="m23 3.4688c0 0.63858-0.44772 1.1562-1 1.1562s-1-0.51767-1-1.1562 0.44772-1.1562 1-1.1562 1 0.51767 1 1.1562z"/><path id="ff" transform="matrix(.5 0 0 .43244 168.5 1039.4)" d="m23 3.4688c0 0.63858-0.44772 1.1562-1 1.1562s-1-0.51767-1-1.1562 0.44772-1.1562 1-1.1562 1 0.51767 1 1.1562z"/><path id="fg" transform="matrix(.5 0 0 .43244 171.5 1039.4)" d="m23 3.4688c0 0.63858-0.44772 1.1562-1 1.1562s-1-0.51767-1-1.1562 0.44772-1.1562 1-1.1562 1 0.51767 1 1.1562z"/><path id="fh" transform="matrix(.5 0 0 .43244 162.5 1041.4)" d="m23 3.4688c0 0.63858-0.44772 1.1562-1 1.1562s-1-0.51767-1-1.1562 0.44772-1.1562 1-1.1562 1 0.51767 1 1.1562z"/><path id="fi" transform="matrix(.5 0 0 .43244 165.5 1041.4)" d="m23 3.4688c0 0.63858-0.44772 1.1562-1 1.1562s-1-0.51767-1-1.1562 0.44772-1.1562 1-1.1562 1 0.51767 1 1.1562z"/><path id="fj" transform="matrix(.5 0 0 .43244 168.5 1041.4)" d="m23 3.4688c0 0.63858-0.44772 1.1562-1 1.1562s-1-0.51767-1-1.1562 0.44772-1.1562 1-1.1562 1 0.51767 1 1.1562z"/><path id="fk" transform="matrix(.5 0 0 .43244 162.5 1043.4)" d="m23 3.4688c0 0.63858-0.44772 1.1562-1 1.1562s-1-0.51767-1-1.1562 0.44772-1.1562 1-1.1562 1 0.51767 1 1.1562z"/><path id="fl" transform="matrix(.5 0 0 .43244 165.5 1043.4)" d="m23 3.4688c0 0.63858-0.44772 1.1562-1 1.1562s-1-0.51767-1-1.1562 0.44772-1.1562 1-1.1562 1 0.51767 1 1.1562z"/><path id="fm" transform="matrix(.5 0 0 .43244 168.5 1043.4)" d="m23 3.4688c0 0.63858-0.44772 1.1562-1 1.1562s-1-0.51767-1-1.1562 0.44772-1.1562 1-1.1562 1 0.51767 1 1.1562z"/><path id="fn" d="m180.5 1047.4c-0.82843 0-1.5 0.6716-1.5 1.5s0.67157 1.5 1.5 1.5c0.82844 0 1.5-0.6716 1.5-1.5s-0.67156-1.5-1.5-1.5z"/><path id="fo" transform="matrix(.5 0 0 .43244 171.5 1035.4)" d="m23 3.4688c0 0.63858-0.44772 1.1562-1 1.1562s-1-0.51767-1-1.1562 0.44772-1.1562 1-1.1562 1 0.51767 1 1.1562z"/><path id="fp" transform="matrix(.5 0 0 .43244 165.5 1035.4)" d="m23 3.4688c0 0.63858-0.44772 1.1562-1 1.1562s-1-0.51767-1-1.1562 0.44772-1.1562 1-1.1562 1 0.51767 1 1.1562z"/><path id="fq" transform="matrix(.5 0 0 .43244 165.5 1037.4)" d="m23 3.4688c0 0.63858-0.44772 1.1562-1 1.1562s-1-0.51767-1-1.1562 0.44772-1.1562 1-1.1562 1 0.51767 1 1.1562z"/><path id="fr" transform="matrix(.5 0 0 .43244 162.5 1035.4)" d="m23 3.4688c0 0.63858-0.44772 1.1562-1 1.1562s-1-0.51767-1-1.1562 0.44772-1.1562 1-1.1562 1 0.51767 1 1.1562z"/><path id="fs" transform="matrix(.5 0 0 .43244 168.5 1037.4)" d="m23 3.4688c0 0.63858-0.44772 1.1562-1 1.1562s-1-0.51767-1-1.1562 0.44772-1.1562 1-1.1562 1 0.51767 1 1.1562z"/></g></g><g id="22"><path id="ft" d="m191 1031.4h16c1 0 2 0.9999 2 1.9999v16c0 1-1 1.9999-2 1.9999h-16c-1 0-2-0.9999-2-1.9999v-16c0-1 1-1.9999 2-1.9999z" fill="url(#h)"/><path id="fu" d="m191 1030.4c-2 0-3 1-3 3v16c0 2.0002 1 3 3 3h16c2 0 3-0.9998 3-3v-16c0-2-1-3-3-3zm0 1h16c1 0 2 1 2 2v16c0 1.0002-1 2-2 2h-16c-1 0-2-0.9998-2-2v-16c0-1 1-2 2-2z" fill="url(#s)"/><path id="fv" transform="translate(0 988.36)" d="m197 56c-4.375 0-6.7988 0.39453-8 0.6875v4.3125c0 1 1 2 2 2h16c1 0 2-1 2-2v-2.4375c-1.9459-0.82513-6.6448-2.5625-12-2.5625z" fill="url(#o)"/><path id="fw" transform="translate(0 988.36)" d="m190 56.5c-0.38124 0.067805-0.74037 0.12418-1 0.1875v4.3125c0 1 1 2 2 2h16c1 0 2-1 2-2v-2.4375c-0.25007-0.10604-0.66346-0.24446-1-0.375v1.8125c0 1-1 2-2 2h-14c-1 0-2-1-2-2v-3.5z" fill="url(#l)"/><g id="fx" transform="translate(0 .99998)" fill="#1f1c1b"><path id="fy" d="m190 1034.4h-1s4.6221 8.2887 5 9c0.30217 0.4365 0.36677 1 1 1h8c0.75273 0 0.77241-0.396 1-1l3-9h2v-1h-2c-0.68035 0-1 0.3312-1 1-1.0055 3.3064-2.004 5.6715-3 9h-8z"/><path id="fz" d="m195.5 1045.4c-0.82843 0-1.5 0.6715-1.5 1.5 0 0.8284 0.67157 1.5 1.5 1.5 0.82844 0 1.5-0.6716 1.5-1.5 0-0.8285-0.67156-1.5-1.5-1.5z"/><path id="ga" transform="matrix(.5 0 0 .43244 181.5 1033.4)" d="m23 3.4688c0 0.63858-0.44772 1.1562-1 1.1562s-1-0.51767-1-1.1562 0.44772-1.1562 1-1.1562 1 0.51767 1 1.1562z"/><path id="gb" transform="matrix(.5 0 0 .43244 190.5 1033.4)" d="m23 3.4688c0 0.63858-0.44772 1.1562-1 1.1562s-1-0.51767-1-1.1562 0.44772-1.1562 1-1.1562 1 0.51767 1 1.1562z"/><path id="gc" transform="matrix(.5 0 0 .43244 181.5 1035.4)" d="m23 3.4688c0 0.63858-0.44772 1.1562-1 1.1562s-1-0.51767-1-1.1562 0.44772-1.1562 1-1.1562 1 0.51767 1 1.1562z"/><path id="gd" transform="matrix(.5 0 0 .43244 184.5 1035.4)" d="m23 3.4688c0 0.63858-0.44772 1.1562-1 1.1562s-1-0.51767-1-1.1562 0.44772-1.1562 1-1.1562 1 0.51767 1 1.1562z"/><path id="ge" transform="matrix(.5 0 0 .43244 193.5 1035.4)" d="m23 3.4688c0 0.63858-0.44772 1.1562-1 1.1562s-1-0.51767-1-1.1562 0.44772-1.1562 1-1.1562 1 0.51767 1 1.1562z"/><path id="gf" transform="matrix(.5 0 0 .43244 181.5 1037.4)" d="m23 3.4688c0 0.63858-0.44772 1.1562-1 1.1562s-1-0.51767-1-1.1562 0.44772-1.1562 1-1.1562 1 0.51767 1 1.1562z"/><path id="gg" transform="matrix(.5 0 0 .43244 184.5 1037.4)" d="m23 3.4688c0 0.63858-0.44772 1.1562-1 1.1562s-1-0.51767-1-1.1562 0.44772-1.1562 1-1.1562 1 0.51767 1 1.1562z"/><path id="gh" transform="matrix(.5 0 0 .43244 187.5 1037.4)" d="m23 3.4688c0 0.63858-0.44772 1.1562-1 1.1562s-1-0.51767-1-1.1562 0.44772-1.1562 1-1.1562 1 0.51767 1 1.1562z"/><path id="gi" transform="matrix(.5 0 0 .43244 190.5 1037.4)" d="m23 3.4688c0 0.63858-0.44772 1.1562-1 1.1562s-1-0.51767-1-1.1562 0.44772-1.1562 1-1.1562 1 0.51767 1 1.1562z"/><path id="gj" transform="matrix(.5 0 0 .43244 193.5 1037.4)" d="m23 3.4688c0 0.63858-0.44772 1.1562-1 1.1562s-1-0.51767-1-1.1562 0.44772-1.1562 1-1.1562 1 0.51767 1 1.1562z"/><path id="gk" transform="matrix(.5 0 0 .43244 184.5 1039.4)" d="m23 3.4688c0 0.63858-0.44772 1.1562-1 1.1562s-1-0.51767-1-1.1562 0.44772-1.1562 1-1.1562 1 0.51767 1 1.1562z"/><path id="gl" transform="matrix(.5 0 0 .43244 187.5 1039.4)" d="m23 3.4688c0 0.63858-0.44772 1.1562-1 1.1562s-1-0.51767-1-1.1562 0.44772-1.1562 1-1.1562 1 0.51767 1 1.1562z"/><path id="gm" transform="matrix(.5 0 0 .43244 190.5 1039.4)" d="m23 3.4688c0 0.63858-0.44772 1.1562-1 1.1562s-1-0.51767-1-1.1562 0.44772-1.1562 1-1.1562 1 0.51767 1 1.1562z"/><path id="gn" transform="matrix(.5 0 0 .43244 184.5 1041.4)" d="m23 3.4688c0 0.63858-0.44772 1.1562-1 1.1562s-1-0.51767-1-1.1562 0.44772-1.1562 1-1.1562 1 0.51767 1 1.1562z"/><path id="go" transform="matrix(.5 0 0 .43244 187.5 1041.4)" d="m23 3.4688c0 0.63858-0.44772 1.1562-1 1.1562s-1-0.51767-1-1.1562 0.44772-1.1562 1-1.1562 1 0.51767 1 1.1562z"/><path id="gp" transform="matrix(.5 0 0 .43244 190.5 1041.4)" d="m23 3.4688c0 0.63858-0.44772 1.1562-1 1.1562s-1-0.51767-1-1.1562 0.44772-1.1562 1-1.1562 1 0.51767 1 1.1562z"/><path id="gq" d="m202.5 1045.4c-0.82843 0-1.5 0.6716-1.5 1.5s0.67157 1.5 1.5 1.5c0.82844 0 1.5-0.6716 1.5-1.5s-0.67156-1.5-1.5-1.5z"/><path id="gr" transform="matrix(.5 0 0 .43244 193.5 1033.4)" d="m23 3.4688c0 0.63858-0.44772 1.1562-1 1.1562s-1-0.51767-1-1.1562 0.44772-1.1562 1-1.1562 1 0.51767 1 1.1562z"/><path id="gs" transform="matrix(.5 0 0 .43244 187.5 1033.4)" d="m23 3.4688c0 0.63858-0.44772 1.1562-1 1.1562s-1-0.51767-1-1.1562 0.44772-1.1562 1-1.1562 1 0.51767 1 1.1562z"/><path id="gt" transform="matrix(.5 0 0 .43244 187.5 1035.4)" d="m23 3.4688c0 0.63858-0.44772 1.1562-1 1.1562s-1-0.51767-1-1.1562 0.44772-1.1562 1-1.1562 1 0.51767 1 1.1562z"/><path id="gu" transform="matrix(.5 0 0 .43244 184.5 1033.4)" d="m23 3.4688c0 0.63858-0.44772 1.1562-1 1.1562s-1-0.51767-1-1.1562 0.44772-1.1562 1-1.1562 1 0.51767 1 1.1562z"/><path id="gv" transform="matrix(.5 0 0 .43244 190.5 1035.4)" d="m23 3.4688c0 0.63858-0.44772 1.1562-1 1.1562s-1-0.51767-1-1.1562 0.44772-1.1562 1-1.1562 1 0.51767 1 1.1562z"/></g></g><g id="16"><path id="gw" transform="translate(0 988.36)" d="m222 48c-1 0-2 1-2 2v12c0 1 1 2 2 2h12c1 0 2-1 2-2v-12c0-1-1-2-2-2h-12zm11.375 1.0312c0.24609 0.058599 0.47266 0.1914 0.6875 0.34375-0.21484-0.15234-0.44141-0.28516-0.6875-0.34375z" fill="url(#i)"/><path id="gx" transform="translate(0 988.36)" d="m220 59v3c0 1 1 2 2 2h12c1 0 2-1 2-2v-3h-1-14-1z" fill="url(#aa)"/><g id="gy" transform="translate(-4.2982e-6 -1)"><g id="gz" transform="matrix(1.3333 0 0 1.3333 422.93 -83.081)" fill="#1f1c1b"><path id="ha" transform="matrix(.75 0 0 .75 -317.2 803.58)" d="m232 52-2 7h-5.3438l-2.6562-6h-1l3 7h7v-1l1.75-6h2.25v-1h-3zm-7.5 9c-0.55228 0-1 0.44771-1 1 0 0.55228 0.44772 1 1 1 0.55229 0 1-0.44772 1-1 0-0.55229-0.44771-1-1-1zm6 0c-0.55228 0-1 0.44771-1 1 0 0.55228 0.44772 1 1 1 0.55229 0 1-0.44772 1-1 0-0.55229-0.44771-1-1-1z"/><path id="hb" d="m-146.95 845.21c0 0.2071-0.16789 0.375-0.375 0.375s-0.375-0.1679-0.375-0.375c0-0.20711 0.16789-0.37501 0.375-0.37501s0.375 0.1679 0.375 0.37501z"/><path id="hc" d="m-145.45 845.21c0 0.2071-0.16789 0.375-0.375 0.375s-0.375-0.1679-0.375-0.375c0-0.20711 0.16789-0.37501 0.375-0.37501s0.375 0.1679 0.375 0.37501z"/><path id="hd" d="m-148.45 843.71c0 0.2071-0.16789 0.375-0.375 0.375s-0.375-0.1679-0.375-0.375c0-0.20711 0.16789-0.37501 0.375-0.37501s0.375 0.1679 0.375 0.37501z"/><path id="he" d="m-148.45 845.21c0 0.2071-0.16789 0.375-0.375 0.375s-0.375-0.1679-0.375-0.375c0-0.20711 0.16789-0.37501 0.375-0.37501s0.375 0.1679 0.375 0.37501z"/><path id="hf" d="m-149.95 843.71c0 0.2071-0.16789 0.375-0.375 0.375s-0.375-0.1679-0.375-0.375c0-0.20711 0.16789-0.37501 0.375-0.37501s0.375 0.1679 0.375 0.37501z"/><path id="hg" d="m-145.45 843.71c0 0.2071-0.16789 0.375-0.375 0.375s-0.375-0.1679-0.375-0.375c0-0.20711 0.16789-0.37501 0.375-0.37501s0.375 0.1679 0.375 0.37501z"/><path id="hh" d="m-146.95 843.71c0 0.2071-0.16789 0.375-0.375 0.375s-0.375-0.1679-0.375-0.375c0-0.20711 0.16789-0.37501 0.375-0.37501s0.375 0.1679 0.375 0.37501z"/><path id="hi" d="m-146.95 846.71c0 0.2071-0.16789 0.375-0.375 0.375s-0.375-0.1679-0.375-0.375c0-0.20711 0.16789-0.37501 0.375-0.37501s0.375 0.1679 0.375 0.37501z"/><path id="hj" d="m-145.45 846.71c0 0.2071-0.16789 0.375-0.375 0.375s-0.375-0.1679-0.375-0.375c0-0.20711 0.16789-0.37501 0.375-0.37501s0.375 0.1679 0.375 0.37501z"/><path id="hk" d="m-148.45 846.71c0 0.2071-0.16789 0.375-0.375 0.375s-0.375-0.1679-0.375-0.375c0-0.20711 0.16789-0.37501 0.375-0.37501s0.375 0.1679 0.375 0.37501z"/><path id="hl" d="m-143.95 845.21c0 0.2071-0.16789 0.375-0.375 0.375s-0.375-0.1679-0.375-0.375c0-0.20711 0.16789-0.37501 0.375-0.37501s0.375 0.1679 0.375 0.37501z"/><path id="hm" d="m-143.95 843.71c0 0.2071-0.16789 0.375-0.375 0.375s-0.375-0.1679-0.375-0.375c0-0.20711 0.16789-0.37501 0.375-0.37501s0.375 0.1679 0.375 0.37501z"/><path id="hn" d="m-143.95 846.71c0 0.2071-0.16789 0.375-0.375 0.375s-0.375-0.1679-0.375-0.375c0-0.20711 0.16789-0.37501 0.375-0.37501s0.375 0.1679 0.375 0.37501z"/></g></g></g></g></svg>
