<?xml version="1.0" encoding="UTF-8"?>
<svg id="b" width="32" height="32" version="1.0" viewBox="0 0 128 128" xml:space="preserve" xmlns="http://www.w3.org/2000/svg"><defs id="c"><filter id="a"><feGaussianBlur id="d" stdDeviation="1.56"/></filter></defs>



















<g id="e" transform="matrix(4 0 0 4.2667 -92.445 -399.41)"><g id="f" transform="matrix(.28571 0 0 .3125 25.111 93.611)" fill="#000" filter="url(#a)" opacity=".6"><path id="g" d="m-4-6.3e-6c-1.65 0-3 1.35-3 3v90c0 1.65 1.35 3 3 3h106c1.65 0 3-1.35 3-3v-90c0-1.65-1.35-3-3-3h-106z" fill="#000"/></g><path id="h" d="m23.968 93.611c-0.47143 0-0.85714 0.40981-0.85714 0.9107v27.321c0 0.50088 0.38572 0.91069 0.85714 0.91069h30.286c0.47142 0 0.85714-0.40981 0.85714-0.91069v-27.321c0-0.50089-0.38572-0.9107-0.85714-0.9107h-30.286z" fill="#244fa1"/><path id="i" d="m24.765 94.468c-0.44662 0-0.81203 0.38572-0.81203 0.85713v25.714c0 0.47141 0.36541 0.85712 0.81203 0.85712h28.692c0.4466 0 0.81202-0.38571 0.81202-0.85712v-25.714c0-0.47141-0.36542-0.85713-0.81202-0.85713h-28.692z" fill="#2492a1"/><path id="j" d="m24.579 94.455c-0.27074 0.13156-0.47398 0.26688-0.59314 0.75174-0.005994 0.024389-0.021933 0.040479-0.031218 0.062645v12.717c12.442-8.4042 24.41-10.379 30.281-10.806v-2.1612c-0.12488-0.33089-0.32704-0.45045-0.56192-0.5638h-29.095z" fill="#fff" opacity=".1"/><g id="k" transform="matrix(.17089 0 0 .18263 26.293 91.115)" fill="#fff"><path id="l" d="m92.512 95.628c0 8.9207-7.7304 16.15-17.259 16.15s-17.258-7.2293-17.258-16.15c0-8.9207 7.7289-16.15 17.258-16.15s17.259 7.2293 17.259 16.15z"/><path id="m" d="m4.9507 94.201c0 36.233 31.502 65.708 70.222 65.708 38.72 0 70.222-29.475 70.222-65.708 0-36.231-31.5-65.708-70.222-65.708-38.722 0-70.222 29.477-70.222 65.708zm21.142 0c0-25.322 22.018-45.925 49.08-45.925 27.062 0 49.08 20.603 49.08 45.925 0 25.324-22.016 45.925-49.08 45.925-27.063 0-49.08-20.601-49.08-45.925z"/></g></g></svg>
