<?xml version="1.0" encoding="UTF-8"?>
<svg id="m" version="1.0" viewBox="0 0 48 48" xmlns="http://www.w3.org/2000/svg" xmlns:xlink="http://www.w3.org/1999/xlink"><defs id="n"><linearGradient id="a"><stop id="o" stop-color="#fff" offset="0"/><stop id="p" stop-color="#fff" stop-opacity="0" offset="1"/></linearGradient><linearGradient id="c"><stop id="q" stop-color="#fff" offset="0"/><stop id="r" stop-color="#e5e5e5" offset="1"/></linearGradient><linearGradient id="f"><stop id="s" offset="0"/><stop id="t" stop-color="#6e6e6e" offset="1"/></linearGradient><linearGradient id="i" x1="16.723" x2="29.894" y1="12.174" y2="30.906" gradientUnits="userSpaceOnUse" xlink:href="#a"/><linearGradient id="h" x1="37.877" x2="16.17" y1="13.955" y2="30.175" gradientUnits="userSpaceOnUse"><stop id="u" stop-color="#fff" offset="0"/><stop id="v" stop-color="#fff" stop-opacity="0" offset="1"/></linearGradient><linearGradient id="g" x1="14.228" x2="33.036" y1="9.9248" y2="29.448" gradientUnits="userSpaceOnUse" xlink:href="#a"/><filter id="l" x="-.063522" y="-.45755" width="1.127" height="1.9151" color-interpolation-filters="sRGB"><feGaussianBlur id="w" stdDeviation="1.0784638"/></filter><radialGradient id="e" cx="-60.649" cy="72.838" r="13.861" gradientTransform="matrix(5.8676 -1.914e-7 4.8851e-8 1.9652 295.22 -70.303)" gradientUnits="userSpaceOnUse" xlink:href="#c"/><radialGradient id="b" cx="7.0836" cy="23.565" r=".81757" gradientTransform="matrix(-3.4427 -.96424 .5394 -1.9259 19.349 75.835)" gradientUnits="userSpaceOnUse" xlink:href="#f"/><radialGradient id="d" cx="-60.649" cy="72.838" r="13.861" gradientTransform="matrix(5.8676 -1.914e-7 4.8851e-8 1.9652 295.22 -70.303)" gradientUnits="userSpaceOnUse" xlink:href="#c"/><linearGradient id="k" x1="-61.314" x2="-60.338" y1="49.155" y2="69.288" gradientUnits="userSpaceOnUse" xlink:href="#a"/><linearGradient id="j" x1="-59.302" x2="-61.213" y1="49.863" y2="68.126" gradientUnits="userSpaceOnUse" xlink:href="#a"/></defs><g id="x"><path id="y" transform="matrix(1.0035 0 0 .7671 11.955 11.354)" d="m32.704 42.255a20.374 2.8284 0 1 1-40.747 0 20.374 2.8284 0 1 1 40.747 0z" color="#000000" enable-background="accumulate" fill="#2e3436" fill-rule="nonzero" filter="url(#l)" opacity=".76596"/><path id="z" transform="matrix(1.812 0 0 1.812 -21.805 -18.81)" d="m36.593 23.074a11.314 11.314 0 1 1-22.627 0 11.314 11.314 0 1 1 22.627 0z" color="#000000" enable-background="accumulate" fill="#e0c4f4" fill-rule="nonzero" opacity=".7" stroke="#cfa2ee" stroke-linejoin="miter" stroke-miterlimit="4" stroke-width=".55189"/><path id="aa" transform="matrix(1.4496 0 0 1.4496 -12.644 -11.146)" d="m36.593 23.074a11.314 11.314 0 1 1-22.627 0 11.314 11.314 0 1 1 22.627 0z" color="#000000" enable-background="accumulate" fill="#bd80e8" fill-rule="nonzero" opacity=".7" stroke="#a34ede" stroke-linejoin="miter" stroke-miterlimit="4" stroke-width=".68986"/><path id="ab" transform="matrix(.98694 0 0 .98694 -.94894 -2.3029)" d="m36.593 23.074a11.314 11.314 0 1 1-22.627 0 11.314 11.314 0 1 1 22.627 0z" fill="#a34ede" opacity=".7" stroke="#431266" stroke-width="1.0132"/><g id="ac" transform="translate(-40.909 -87.163)" fill="none" stroke-linejoin="miter" stroke-miterlimit="4"><path id="ad" transform="matrix(1.812 0 0 1.812 19.195 68.19)" d="m25.281 12.469c-5.8678 0-10.594 4.726-10.594 10.594s4.726 10.594 10.594 10.594 10.594-4.726 10.594-10.594-4.726-10.594-10.594-10.594z" color="#000000" enable-background="accumulate" opacity=".4" stroke="url(#i)" stroke-width=".55189"/><path id="ae" transform="matrix(1.4496 0 0 1.4496 28.356 75.854)" d="m25.281 12.688c-5.7363 0-10.375 4.6387-10.375 10.375s4.6387 10.375 10.375 10.375 10.375-4.6387 10.375-10.375-4.6387-10.375-10.375-10.375z" color="#000000" enable-background="accumulate" opacity=".4" stroke="url(#h)" stroke-width=".68986"/><path id="af" transform="matrix(.98694 0 0 .98694 40.051 84.697)" d="m25.281 13.031c-5.5496 0-10.031 4.4817-10.031 10.031s4.4817 10.031 10.031 10.031 10.031-4.4817 10.031-10.031-4.4817-10.031-10.031-10.031z" color="#000000" enable-background="accumulate" opacity=".4" stroke="url(#g)" stroke-width="1.0132"/></g><path id="ag" d="m19.21 29.948c-0.39129-3.1435-1.1851-20.272 3.439-20.446 4.6241-0.17483 5.8564 15.634 6.3053 19.81 0.44891 4.1765-1.0347 7.9228 8.9115 5.6316 4.4182-1.0178 6.9137-3.4618 6.6088 2.6307-0.30486 6.0925-11.317 6.2708-16.52 6.6914-13.971 0.79435-24.593-0.41429-24.454-3.8667 0.13974-3.4524 0.31774-4.8977 2.8847-4.4287 17.161 3.135 13.204-2.9661 12.824-6.0222z" color="#000000" enable-background="accumulate" fill="#75507b" fill-rule="nonzero" stroke="#3d2a3f" stroke-linejoin="miter" stroke-miterlimit="4" stroke-width="1"/><path id="ah" d="m22.688 10.625c-0.22804 0.0086-0.37974 0.08304-0.65625 0.40625s-0.58773 0.90174-0.84375 1.6562c-0.51204 1.509-0.83854 3.7049-1 6-0.32292 4.5901-0.01985 9.7103 0.15625 11.125 0.07119 0.57191 0.38794 1.5472 0.5625 2.625s0.19625 2.3805-0.625 3.5-2.2901 1.7739-4.5 1.9688-5.2781-0.01842-9.625-0.8125c-0.53759-0.09821-0.82984-0.06657-0.9375-0.03125s-0.10087 0.01979-0.1875 0.1875c-0.17327 0.33543-0.33686 1.4733-0.40625 3.1875-0.00565 0.13955 0.027281 0.24759 0.1875 0.4375 0.16022 0.18991 0.49597 0.44127 1 0.6875 1.0081 0.49246 2.6526 0.94504 4.7812 1.25 4.2504 0.60893 10.358 0.70468 17.281 0.3125 0.0087-7.06e-4 0.02249 7.04e-4 0.03125 0 2.6528-0.21337 6.6225-0.37569 9.875-1.1875 1.6316-0.40725 3.0699-0.98637 4.0312-1.7188s1.472-1.5353 1.5312-2.7188c0.07257-1.4502-0.06009-2.324-0.1875-2.625-0.12741-0.30102 0.0171-0.15109-0.25-0.15625-0.53419-0.01032-2.4234 0.76933-4.7812 1.3125-2.5463 0.58657-4.3839 0.82673-5.8438 0.71875s-2.6236-0.63024-3.3125-1.5-0.85144-1.8917-0.9375-2.875c-0.08606-0.98327-0.08432-1.9775-0.1875-2.9375-0.22886-2.1292-0.63999-7.0859-1.5625-11.438-0.46126-2.1758-1.0586-4.2013-1.75-5.5625-0.34568-0.68062-0.74314-1.1852-1.0625-1.4688s-0.52685-0.35337-0.78125-0.34375z" fill="none" opacity=".4" stroke="#fff" stroke-linejoin="miter" stroke-miterlimit="4" stroke-width="1"/><path id="ai" d="m41.972 35.434c-9.8358 5.3149-21.309 2.9911-36.783 5.5561 0.042972 0.02008 0.060867-0.1353 0.10662-0.11545 1.0028 0.43482 2.6734 0.99245 4.7981 1.2638 4.2493 0.54269 10.697 0.83632 17.632 0.4879 6.021-0.29951 11.994-1.0993 13.722-2.8814 2.9232-2.487 0.14985-5.4788 0.52356-4.3109z" fill="#fff" fill-rule="evenodd" opacity=".2"/><g id="aj"><path id="ak" transform="matrix(.43405 .020585 -.0182 .37453 45.353 -2.7261)" d="m-49.351 72.838a11.297 24.676 0 1 1-22.595 0 11.297 24.676 0 1 1 22.595 0z" fill="url(#e)" stroke="#000" stroke-miterlimit="4" stroke-width="2.4773"/><path id="al" transform="matrix(2.0792 .098603 -.099866 2.0552 4.3999 -22.949)" d="m8.1757 23.622a0.81757 1.6351 0 1 1-1.6351 0 0.81757 1.6351 0 1 1 1.6351 0z" fill="url(#b)" fill-rule="nonzero"/><path id="am" transform="matrix(.43237 -.043096 .038016 .37306 53.265 -7.0158)" d="m-49.351 72.838a11.297 24.676 0 1 1-22.595 0 11.297 24.676 0 1 1 22.595 0z" fill="url(#d)" stroke="#000" stroke-miterlimit="4" stroke-width="2.4773"/><path id="an" transform="matrix(2.0627 .27685 -.28047 2.0387 21.992 -24.267)" d="m8.1757 23.622a0.81757 1.6351 0 1 1-1.6351 0 0.81757 1.6351 0 1 1 1.6351 0z" fill="url(#b)" fill-rule="nonzero"/><path id="ao" transform="matrix(.43405 .020585 -.0182 .37453 45.353 -2.7261)" d="m-49.351 72.838a11.297 24.676 0 1 1-22.595 0 11.297 24.676 0 1 1 22.595 0z" fill="none" opacity=".5" stroke="url(#k)" stroke-miterlimit="4" stroke-width="2.4773"/><path id="ap" transform="matrix(.43237 -.043096 .038016 .37306 53.265 -7.0158)" d="m-49.351 72.838a11.297 24.676 0 1 1-22.595 0 11.297 24.676 0 1 1 22.595 0z" fill="none" opacity=".5" stroke="url(#j)" stroke-miterlimit="4" stroke-width="2.4773"/><path id="aq" transform="matrix(1.0446 .15384 -.1557 1.0326 21.548 7.5969)" d="m-0.125 19.875a1 1 0 1 1-2 0 1 1 0 1 1 2 0z" fill="#000" fill-rule="evenodd" opacity=".95"/><path id="ar" transform="matrix(.87398 .58605 -.59311 .86388 43.204 10.578)" d="m-0.125 19.875a1 1 0 1 1-2 0 1 1 0 1 1 2 0z" fill="#000" fill-rule="evenodd" opacity=".95"/></g></g></svg>
