<?xml version="1.0" encoding="UTF-8"?>
<svg id="e" width="48" height="48" version="1.0" viewBox="0 0 1.5176 4.056" xmlns="http://www.w3.org/2000/svg" xmlns:xlink="http://www.w3.org/1999/xlink"><defs id="f"><linearGradient id="a"><stop id="g" stop-color="#2e3436" offset="0"/><stop id="h" stop-color="#2e3436" offset=".060613"/><stop id="i" stop-color="#7d8074" offset=".40697"/><stop id="j" stop-color="#807d74" offset="1"/></linearGradient><linearGradient id="d" x1="-.63803" x2=".07715" y1="4.0924" y2="3.4865" gradientUnits="userSpaceOnUse" xlink:href="#a"/><linearGradient id="b" x1="-.77867" x2=".36128" y1="3.7383" y2="3.7383" gradientUnits="userSpaceOnUse" xlink:href="#a"/><linearGradient id="c" x1="-.47767" x2=".43797" y1="4.8428" y2="4.8428" gradientUnits="userSpaceOnUse" xlink:href="#a"/></defs><title id="k">coubre de bezier : Curve</title><desc id="l">Un trace dessinant une courbe de type bezie issue de blender</desc><g id="m" transform="matrix(1.1296 0 0 1.1296 -.10046 -.11915)"><path id="n" d="m-0.41517 7.3364v-1.4"/></g><g id="o" transform="matrix(1.1296 0 0 1.1296 .72258 -3.5866)"><path id="p" d="m-0.68759 3.7572c0-0.019337 0.17253-0.05884 0.17253-0.078178 0-0.019337-0.0032957-0.087728-0.0044813-0.17901-0.051037-0.018132-0.070836-0.027782-0.11634-0.041673" fill="#eae8e3" stroke="#000" stroke-miterlimit="4" stroke-width=".042438"/></g><g id="q" transform="matrix(1.1296 0 0 1.1296 -.10046 -.11915)"><path id="r" d="m0.37547 7.3364v-1.4"/></g><g id="s" transform="matrix(1.1296 0 0 1.1296 .72258 -3.5866)"><path id="t" d="m0.59618 3.4583c0.063426 0.26395 0.056192 0.31371 0.020342 0.34367 0.0044813-0.09776-0.14932-0.12832-0.15012-0.14764-0.0015844-0.03835-2.574e-4 -0.057943 0-0.18349 0.054816-0.0048003 0.092586-0.0097443 0.12978-0.012545z" fill="#eae8e3" stroke="#000" stroke-miterlimit="4" stroke-width=".042438"/></g><g id="u" transform="matrix(1.1296 0 0 1.1296 .72258 -3.5866)"><path id="v" d="m0.73897 4.1964v-0.37394c-0.01454-0.010349-0.034262-0.020698-0.04362-0.031047v-0.24511c-0.033056-0.029314-0.066112-0.058628-0.099169-0.087942v0.23962c-0.065489-0.040541-0.13098-0.081081-0.19647-0.12162v-0.20802c-0.032079-0.05799-0.21832-0.088628-0.31247-0.087942v0.21433c-0.035697-0.0092166-0.068762-0.011169-0.10709-0.011159-0.038328 1.01e-5 -0.071394 0.0019427-0.10709 0.011159v-0.21433c-0.094158-6.859e-4 -0.2804 0.029952-0.31247 0.087942v0.20802c-0.065489 0.040541-0.13098 0.081081-0.19647 0.12162v-0.23962c-0.033056 0.029314-0.066112 0.058628-0.099169 0.087942v0.24511c-0.0093574 0.010349-0.02908 0.020698-0.04362 0.031047v0.3717" fill="url(#b)" stroke="#000" stroke-linejoin="miter" stroke-miterlimit="4" stroke-width=".042438"/></g><g id="w" transform="matrix(1.1296 0 0 1.1296 .72258 -3.5866)"><path id="x" d="m0.37745 4.4514c0.10786-0.015993 0.13803-0.036127 0.2132-0.068707 0.10004-0.043363 0.19132-0.17468 0.12342-0.26024-0.22593-0.2847-0.62208-0.26741-0.75128-0.26643-0.12392 9.409e-4 -0.49062-0.018265-0.71655 0.26643-0.067898 0.085561 0.023381 0.21688 0.12342 0.26024 0.075164 0.03258 0.10534 0.052714 0.2132 0.068707" fill="url(#d)" stroke="#000" stroke-miterlimit="4" stroke-width=".042438"/></g><g id="y" transform="matrix(1.1296 0 0 1.1296 .72258 -3.5866)"><path id="z" d="m0.37547 5.6364c0-0.55746 3e-8 -0.95192 3e-8 -1.4279-0.033066-0.1481-0.23484-0.15891-0.40459-0.15923-0.15911-3.031e-4 -0.34489 0.0043826-0.37796 0.15248-0.0027008 0.47821-0.0081025 0.87718-0.0081025 1.4346" fill="url(#c)" stroke="#000" stroke-miterlimit="4" stroke-width=".042438"/></g><path id="aa" d="m0.67502 3.9419h1.9615l0.00716-0.89484-1.9686-0.49395z" fill="#df421e" fill-rule="evenodd" stroke="#060606" stroke-linejoin="round" stroke-miterlimit="4" stroke-width=".079937"/><path id="ab" d="m0.67502 3.9419v-1.3888l-1.7754 0.50111 0.00716 0.88052 1.7682 0.00716z" fill="#663822" fill-rule="evenodd" stroke="#060606" stroke-linejoin="round" stroke-miterlimit="4" stroke-width=".079896"/></svg>
