<?xml version="1.0" encoding="UTF-8"?>
<svg id="b" viewBox="0 0 434 437" xmlns="http://www.w3.org/2000/svg"><defs id="c"><filter id="a"><feGaussianBlur id="d" stdDeviation="1.56"/></filter></defs><g id="e"><g id="f" transform="matrix(6.4472 0 0 6.3914 -2554.8 -2519.5)"><g id="g" transform="matrix(.57143 0 0 .66667 401.91 396.38)" fill="#000" filter="url(#a)" opacity=".6"><path id="h" d="m-4-6.3e-6c-1.65 0-3 1.35-3 3v90c0 1.65 1.35 3 3 3h106c1.65 0 3-1.35 3-3v-90c0-1.65-1.35-3-3-3h-106z" fill="#000"/></g><path id="i" d="m399.63 396.38c-0.94286 0-1.7143 0.87427-1.7143 1.9428v58.286c0 1.0685 0.77143 1.9428 1.7143 1.9428h60.571c0.94284 0 1.7143-0.87426 1.7143-1.9428v-58.286c0-1.0686-0.77144-1.9428-1.7143-1.9428h-60.571z" fill="#9c0f0f"/><path id="j" d="m401.22 398.21c-0.89323 0-1.6241 0.82286-1.6241 1.8285v54.857c0 1.0057 0.73083 1.8285 1.6241 1.8285h57.383c0.89321 0 1.624-0.82284 1.624-1.8285v-54.857c0-1.0057-0.73084-1.8285-1.624-1.8285h-57.383z" fill="#d11007"/><g id="k" transform="matrix(2 0 0 2 215.47 203.32)"><rect id="l" x="94.971" y="100.07" width="24" height="24" fill-opacity="0"/><path id="m" d="m101.94 104.8c-2.2919 0.09035-4.5086 1.3002-5.7964 3.4214-2.051 3.3784-0.93867 7.7452 2.3251 9.932 2.7084 1.8147 7.757 0.9535 8.6946-1.4948l-0.14738-2.5245c-1.4891 3.0301-5.0851 3.6862-7.4502 2.209-0.88683-0.55399-1.5344-1.3349-1.9321-2.2256-0.075318-0.03285-0.45101-1.1038-0.44208-1.7605-0.065243-1.0155 0.16786-2.0691 0.73684-3.0062 1.4564-2.3989 4.5284-3.1548 6.8934-1.6775 0.73701 0.46035 1.0414 0.58087 1.7848 1.6609 0.75423 1.0957 1.1365 2.1012 1.6211 3.82 0.39024 1.3843 0.98969 2.8536 1.9321 4.0525 0.94248 1.1989 2.3091 2.1425 4.0117 2.1425 1.5106 1e-5 2.7236-0.41201 3.504-1.2789 0.7804-0.86685 1.1626-2.0326 1.1626-3.2221 0-1.3117-0.71799-2.4025-1.5556-3.0726-0.83751-0.67007-1.8424-0.9773-2.8654-1.1626-0.81663-0.14791-1.379-0.41581-1.7029-0.73078s-0.50569-0.67872-0.50764-1.3951c-0.00106-0.40747 0.47644-1.1886 1.1953-1.4948s1.5332-0.31394 2.4888 0.73078l1.4574-1.3785c-1.0716-1.1714-2.3974-1.6031-3.5859-1.4948-0.39626 0.03612-0.78178 0.13407-1.1298 0.28234-1.3924 0.59311-2.4273 1.8562-2.4233 3.355 0.00309 1.1381 0.39503 2.158 1.1134 2.8567 0.71832 0.69868 1.6765 1.0706 2.7344 1.2622 0.85157 0.15426 1.5698 0.42173 1.9977 0.764 0.42777 0.34229 0.78592 0.6847 0.78592 1.4782 0 0.9157-0.3267 1.4971-0.63862 1.8436-0.31183 0.34644-0.85538 0.63112-2.0303 0.63112-1.009 0-1.762-0.49547-2.4562-1.3785-0.69411-0.88305-1.2308-2.1451-1.5718-3.355-0.53576-1.9004-1.0865-3.1585-1.8503-4.3016-0.76918-1.1512-1.3928-1.8119-2.3742-2.4249-1.223-0.76391-2.5887-1.1055-3.9298-1.063-0.01803 5.7e-4 -0.03111-7.2e-4 -0.04915 0z" fill="#fff" fill-rule="evenodd"/></g><path id="n" d="m400.85 398.18c-0.54149 0.28066-0.94797 0.56934-1.1863 1.6037-0.01199 0.05203-0.04387 0.08636-0.06244 0.13364v27.129c24.883-17.929 48.819-22.142 60.562-23.053v-4.6106c-0.24976-0.7059-0.65408-0.96097-1.1238-1.2028h-58.19z" fill="#fff" opacity=".2"/></g></g></svg>
