<?xml version="1.0" encoding="UTF-8"?>
<svg id="b" version="1.0" viewBox="0 0 48 48" xmlns="http://www.w3.org/2000/svg" xmlns:xlink="http://www.w3.org/1999/xlink"><defs id="c"><radialGradient id="a" cx="139.14" cy="878.19" r="24" gradientTransform="matrix(1.0076 .0060462 -.0071697 1.1948 4.4578 -171.89)" gradientUnits="userSpaceOnUse"><stop id="d" stop-color="#eeeeec" offset="0"/><stop id="e" stop-color="#eeeeec" stop-opacity="0" offset="1"/></radialGradient></defs><g id="f" transform="translate(-113.37 -843.79)"><g id="g" transform="matrix(.99245 0 0 1 1.0971 0)"><path id="h" d="m144.13 843.84 0.36547-0.0493 0.88929 0.24144 0.43594 0.30952 0.71963 0.86776c0.57739 0.79432 1.1556 1.594 2.2012 5.655 1.0059 2.9852 1.8207 3.4983 2.2235 4.6062l0.57149 1.5717 1.3368 4.2322 3.6057 7.5958c1.0436 2.6814 2.2842 5.3148 2.6969 8.1495 0.96506 3.2063 1.763 6.4364 2.1548 9.724l0.03738 3.3238c-0.7014 1.4842-2.0696 1.5906-3.4252 1.7231-1.8457-0.08586-3.5778-0.53426-5.0413-1.8397-0.70165-0.78496-1.4017-1.5713-1.9159-2.5157-1.1156-3.3279-2.2022-6.6722-3.0344-10.161-0.62893-2.3251-1.2048-4.6615-2.2023-6.9083-0.15958-0.51668-0.59757-0.97414-1.139-1.4096l-1.9154 0.34273-3.3344 0.46489c-1.6994 0.20597-3.0206 0.43585-3.8567 0.80505l-2.2264 0.75581c-2.08 0.91119-2.8572 2.7603-3.73 4.5406-0.45588 2.1336-1.1657 4.1951-2.4815 6.0848-1.4619 2.1761-2.9238 3.9575-4.3857 5.2361-0.5552 0.53827-1.0876 0.99912-1.5475 1.213-0.68479 0.32867-1.3696 0.2873-2.0544 0.04582-1.7145-0.95242-3.4561-2.0372-5.5476-4.8339-0.35219-0.51406-0.05112-1.1208 0.14659-1.7128l0.70656-0.87194 5.0946-6.5668 3.6655-4.7848 3.8835-5.0568 3.4909-4.314 7.6744-9.7339 1.0154-1.6034c0.30471-0.33277 0.44248-0.9156 1.1725-1.4659 0.61308-0.79168 1.3377-1.2037 2.0421-1.6849l0.4073 4.2893s-6.157 7.3666-7.2993 11.04c-0.12592 0.40498-0.34581 1.0917-0.00791 1.3964 0.13448 0.12125 0.65224 0.02955 0.65224 0.02955l2.2617-0.94261 4.3609-2.0186 0.03735-2.426-0.03977-7.0057-0.48698-4.2263 1.208-1.1026c0.25053-0.25852 0.45916-0.58832 0.61379-1.01z" fill="#2e3436"/><path id="i" d="m144.12 844.81 0.36824-0.0483 0.89605 0.23654 0.43926 0.30325 0.72511 0.85016c0.58178 0.77821 1.1643 1.5616 2.2179 5.5403 1.0136 2.9247 1.8345 3.4274 2.2404 4.5128l0.57584 1.5398 1.347 4.1464 3.6331 7.4418c1.0515 2.627 2.3015 5.207 2.7174 7.9842 0.9724 3.1413 1.7764 6.3058 2.1712 9.5268l0.03766 3.2564c-0.70673 1.4541-2.0853 1.5583-3.4512 1.6882-1.8597-0.08412-3.605-0.52343-5.0796-1.8024-0.70699-0.76904-1.4123-1.5394-1.9305-2.4647-1.1241-3.2604-2.219-6.5369-3.0574-9.9548-0.63371-2.278-1.2139-4.567-2.2191-6.7682-0.16079-0.5062-0.60211-0.95439-1.1476-1.381l-1.9299 0.33578-3.3597 0.45546c-1.7124 0.20179-3.0436 0.42701-3.886 0.78872l-2.2433 0.74049c-2.0958 0.89271-2.8789 2.7043-3.7584 4.4485-0.45935 2.0903-1.1746 4.11-2.5004 5.9614-1.473 2.132-2.946 3.8772-4.419 5.1299-0.55942 0.52736-1.0959 0.97886-1.5593 1.1884-0.69 0.32201-1.38 0.28148-2.07 0.0449-1.7276-0.93311-3.4824-1.9959-5.5898-4.7358-0.35487-0.50363-0.0515-1.098 0.1477-1.6781l0.71194-0.85425 5.1333-6.4337 3.6934-4.6877 3.913-4.9542 3.5175-4.2266 7.7328-9.5365 1.0231-1.5708c0.30702-0.32602 0.44585-0.89703 1.1814-1.4362 0.61775-0.77563 1.3479-1.1793 2.0576-1.6507l0.4104 4.2023s-6.2038 7.2172-7.3548 10.816c-0.12688 0.39676-0.34843 1.0695-0.00797 1.368 0.1355 0.11879 0.65721 0.02895 0.65721 0.02895l2.2789-0.92349 4.3941-1.9777 0.03764-2.3768-0.04008-6.8636-0.49068-4.1406 1.2172-1.0802c0.25244-0.25328 0.46265-0.57639 0.61846-0.98954z" fill="url(#a)" opacity=".4"/></g></g></svg>
