<?xml version="1.0" encoding="UTF-8"?>
<svg viewBox="0 0 150 150" xmlns="http://www.w3.org/2000/svg"><path d="m149.97 80.101h-73.214l-11.99 41.358h-14.541c-0.3508 0-0.6696-0.223-0.7653-0.574l-26.244-92.347h18.272l9.662 34.024h18.24l-14.668-51.562h-54.719l32.589 114.7c2.2321 7.845 9.4706 13.329 17.634 13.329h27.742l11.99-41.358h42.507v23.023c0 0.223-0.064 0.414-0.223 0.574-0.16 0.159-0.351 0.223-0.574 0.223h-30.389l-5.1025 17.538h35.492c4.91 0 9.502-1.913 12.978-5.389 3.476-3.475 5.357-8.067 5.357-12.978v-40.561h-0.032z" fill="#00758A"/><path d="m144.99 62.562h4.975v-33.195c0-4.9107-1.914-9.5025-5.357-12.978-3.444-3.4757-8.068-5.389-12.979-5.389h-34.789l-14.987 51.562h63.138zm-34.981-34.024h21.652c0.223 0 0.415 0.0637 0.574 0.2232 0.16 0.1594 0.223 0.3507 0.223 0.574v15.689h-27.232l4.815-16.518-0.032 0.0319z" fill="#F29111"/></svg>
