<?xml version="1.0" encoding="UTF-8"?>
<svg version="1" viewBox="0 0 64 64" xmlns="http://www.w3.org/2000/svg"><path d="m44.6 56.2-11.2-28h-2.8l-11.2 28z" fill="#8e8e8e"/><rect transform="matrix(0,-1,-1,0,0,0)" x="-50" y="-60" width="44" height="56" rx="2.75" ry="2.8" opacity=".2"/><rect x="16" y="56" width="32" height="4" rx="2.182" ry="2" opacity=".2"/><rect x="16" y="55" width="32" height="4" rx="2.182" ry="2" fill="#c0c0c0"/><rect transform="matrix(0,-1,-1,0,0,0)" x="-49" y="-60" width="44" height="56" rx="2.75" ry="2.8" fill="#c0c0c0"/><rect transform="matrix(0,-1,-1,0,0,0)" x="-45" y="-56" width="36" height="48" rx="0" ry="0" fill="#2482ff"/><path d="m50.533 29.067c-6.2726 0-0.33505 7.266-18.533 7.266v2.6667h8c9.3915 0 7.676-7.4559 11.148-7.3597 3.3854 0.09376 2.8578 2.2416 4.7188 2.7604-0.78536-2.7564-2.6667-5.3333-5.3333-5.3333z" opacity=".3"/><circle cx="32" cy="27" r="8" opacity=".3"/><path d="m31.543 16.007a12.002 12 0 0 0-11.135 8.8887 12.002 12 0 0 0 8.4863 14.695 12.002 12 0 0 0 14.697-8.4844 12.002 12 0 0 0-8.4863-14.697 12.002 12 0 0 0-3.5625-0.40234zm0.64844 2.6719a9.3333 9.3333 0 0 1 0.91016 0.05859l-1.5547 5.8086-3.0039-5.2031a9.3333 9.3333 0 0 1 3.6484-0.66406zm3.4844 0.75391a9.3333 9.3333 0 0 1 3.6484 2.8008l-5.2031 3zm-9.4414 1.2422 3 5.2031-5.8008-1.5547a9.3333 9.3333 0 0 1 2.8008-3.6484zm14.422 3.8672a9.3333 9.3333 0 0 1 0.60547 4.5586l-5.8086-1.5547zm-8.6562 1.457a2 2 0 0 1 2 2 2 2 0 0 1-2 2 2 2 0 0 1-2-2 2 2 0 0 1 2-2zm-9.2617 0.89844 5.8086 1.5547-5.2031 3.0039a9.3333 9.3333 0 0 1-0.60547-4.5586zm12.027 3.2227 5.8008 1.5547a9.3333 9.3333 0 0 1-2.8008 3.6484zm-4.8867 0.64453-1.5547 5.8008a9.3333 9.3333 0 0 1-3.6484-2.8008zm2.5742 0.6875 3.0039 5.2031a9.3333 9.3333 0 0 1-4.5586 0.60547z" opacity=".2"/><path d="m31.543 15.008a12.002 12 0 0 0-11.135 8.8887 12.002 12 0 0 0 8.4863 14.695 12.002 12 0 0 0 14.697-8.4844 12.002 12 0 0 0-8.4863-14.697 12.002 12 0 0 0-3.5625-0.40234zm0.64844 2.6719a9.3333 9.3333 0 0 1 0.91016 0.058593l-1.5547 5.8086-3.0039-5.2031a9.3333 9.3333 0 0 1 3.6484-0.66406zm3.4844 0.75391a9.3333 9.3333 0 0 1 3.6484 2.8008l-5.2031 3 1.5547-5.8008zm-9.4414 1.2422 3 5.2031-5.8008-1.5547a9.3333 9.3333 0 0 1 2.8008-3.6484zm14.422 3.8672a9.3333 9.3333 0 0 1 0.60547 4.5586l-5.8086-1.5547 5.2031-3.0039zm-8.6562 1.457a2 2 0 0 1 2 2 2 2 0 0 1-2 2 2 2 0 0 1-2-2 2 2 0 0 1 2-2zm-9.2617 0.89844 5.8086 1.5547-5.2031 3.0039a9.3333 9.3333 0 0 1-0.60547-4.5586zm12.027 3.2227 5.8008 1.5547a9.3333 9.3333 0 0 1-2.8008 3.6484l-3-5.2031zm-4.8867 0.64453-1.5547 5.8008a9.3333 9.3333 0 0 1-3.6484-2.8008l5.2031-3zm2.5742 0.6875 3.0039 5.2031a9.3333 9.3333 0 0 1-4.5586 0.60547l1.5547-5.8086z" fill="#fff"/><path d="m18.184 55c-1.2087 0-2.1836 0.892-2.1836 2 0 0.169 0.034605 0.32621 0.083984 0.47852 0.25066-0.85186 1.0891-1.4785 2.0996-1.4785h27.633c1.0105 0 1.849 0.62666 2.0996 1.4785 0.049379-0.1523 0.083984-0.30951 0.083984-0.47852 0-1.108-0.97487-2-2.1836-2h-27.633z" fill="#fff" opacity=".2"/><path d="m6.8008 5c-1.5512 0-2.8008 1.2265-2.8008 2.75v1c0-1.5235 1.2496-2.75 2.8008-2.75h50.398c1.5512 0 2.8008 1.2265 2.8008 2.75v-1c0-1.5235-1.2496-2.75-2.8008-2.75h-50.398z" fill="#fff" opacity=".2"/><rect x="8" y="9" width="48" height="1" opacity=".1"/><rect x="8" y="45" width="48" height="1" fill="#fff" opacity=".1"/></svg>
