<?xml version="1.0" encoding="UTF-8"?>
<svg viewBox="0 0 48 48" xmlns="http://www.w3.org/2000/svg"><defs><filter id="b" x="-16.2%" y="-16.2%" width="132.5%" height="132.5%"><feOffset dy="1" in="SourceAlpha" result="shadowOffsetOuter1"/><feGaussianBlur in="shadowOffsetOuter1" result="shadowBlurOuter1" stdDeviation="1"/><feComposite in="shadowBlurOuter1" in2="SourceAlpha" operator="out" result="shadowBlurOuter1"/><feColorMatrix in="shadowBlurOuter1" result="shadowMatrixOuter1" values="0 0 0 0 0   0 0 0 0 0   0 0 0 0 0  0 0 0 0.2 0"/><feMerge><feMergeNode in="shadowMatrixOuter1"/><feMergeNode in="SourceGraphic"/></feMerge></filter><linearGradient id="a" x1="50.001%" x2="50.001%" y1=".348%" y2="103.83%"><stop stop-color="#4982FF" offset="0"/><stop stop-color="#5600FF" offset="1"/></linearGradient></defs><g transform="translate(4 4)" fill-rule="evenodd" filter="url(#b)"><path d="m6 0h25.094c1.3744 9.6822e-16 2.7071 0.47183 3.7753 1.3366l2.9056 2.3523c1.4072 1.1392 2.2247 2.8529 2.2247 4.6634v25.648c0 3.3137-2.6863 6-6 6h-28c-3.3137 0-6-2.6863-6-6v-28c-4.0581e-16 -3.3137 2.6863-6 6-6z" fill="url(#a)"/><g transform="translate(8 8)" fill="#FFF" fill-rule="nonzero"><path d="m6.2119 15.414-5.1869 5.403 4.949 4.1135 3.1235-3.2536c1.5299-1.5936 4.062-1.6453 5.6557-0.11542 0.039255 0.037685 0.077737 0.076167 0.11542 0.11542l3.1235 3.2536 4.949-4.1135-5.1869-5.403c-3.0598-3.1873-8.1241-3.2906-11.311-0.23084-0.07851 0.07537-0.15547 0.15233-0.23084 0.23084z" opacity=".6"/><path d="m3-5.6845e-5c1.6569 0 3 1.3431 3 3v22c-3.3137 0-6-2.6863-6-6v-16c-2.0291e-16 -1.6569 1.3431-3 3-3zm18 0c1.6569 0 3 1.3431 3 3v16c0 3.2384-2.5656 5.8776-5.7751 5.9959l-0.22494 0.0041385v-22c0-1.6569 1.3431-3 3-3z"/></g></g></svg>
