<?xml version="1.0" encoding="UTF-8"?>
<svg viewBox="0 0 16 16" xmlns="http://www.w3.org/2000/svg"><defs><linearGradient id="b" x1="50%" x2="50%" y2="113.92%"><stop stop-color="#FF9165" offset="0"/><stop stop-color="#FF003F" offset="1"/></linearGradient><linearGradient id="a" x1="99.067%" x2=".942%" y1="50%" y2="50%"><stop stop-color="#FFD6C2" offset="0"/><stop stop-color="#FFC4B1" offset="1"/></linearGradient></defs><g fill="none" fill-rule="evenodd"><path transform="translate(1 1)" d="m2 0h8.8847c0.50278 2.5722e-15 0.98712 0.18937 1.3566 0.53039l1.1153 1.0295c0.41016 0.37861 0.64344 0.91141 0.64344 1.4696v8.9705c0 1.1046-0.89543 2-2 2h-10c-1.1046 0-2-0.89543-2-2v-10c-1.3527e-16 -1.1046 0.89543-2 2-2z" fill="url(#b)"/><g transform="translate(4 4)" fill-rule="nonzero"><path d="m2 3.6667c0 0.18409 0.14924 0.33333 0.33333 0.33333h3.6667v2h-4z" fill="url(#a)"/><path d="m5.6667 2h-3.3333c-0.18409 0-0.33333 0.14924-0.33333 0.33333v4.6667c0 0.55228-0.44772 1-1 1s-1-0.44772-1-1v-5c-1.3527e-16 -1.1046 0.89543-2 2-2h4c1.1046 0 2 0.89543 2 2v2c0 1.1046-0.89543 2-2 2v-3.6667c0-0.18409-0.14924-0.33333-0.33333-0.33333z" fill="#FFF"/></g></g></svg>
