<?xml version="1.0" encoding="UTF-8"?>
<svg viewBox="0 0 96 96" xmlns="http://www.w3.org/2000/svg"><defs><filter id="d" x="-17.5%" y="-15%" width="132.5%" height="132.5%"><feOffset dy="2" in="SourceAlpha" result="shadowOffsetOuter1"/><feGaussianBlur in="shadowOffsetOuter1" result="shadowBlurOuter1" stdDeviation="2"/><feComposite in="shadowBlurOuter1" in2="SourceAlpha" operator="out" result="shadowBlurOuter1"/><feColorMatrix in="shadowBlurOuter1" result="shadowMatrixOuter1" values="0 0 0 0 0   0 0 0 0 0   0 0 0 0 0  0 0 0 0.2 0"/><feMerge><feMergeNode in="shadowMatrixOuter1"/><feMergeNode in="SourceGraphic"/></feMerge></filter><linearGradient id="c" x1="50%" x2="50%" y2="98.239%"><stop stop-color="#86BF00" offset="0"/><stop stop-color="#008463" offset="1"/></linearGradient><linearGradient id="b" x1="100%" x2="2.756%" y1="50%" y2="50%"><stop stop-color="#F5F5F5" offset="0"/><stop stop-color="#A1E37D" offset="1"/></linearGradient><linearGradient id="a" x1="50%" x2="50%" y2="100%"><stop stop-color="#FFF" offset="0"/><stop stop-color="#DFFFD8" offset="1"/></linearGradient></defs><g transform="translate(10 6)" fill="none" fill-rule="evenodd" filter="url(#d)"><path d="m8 2h45.669c2.4027 0 4.725 0.86506 6.5421 2.4369l14.331 12.396c2.1959 1.8995 3.4579 4.6596 3.4579 7.5631v47.604c0 5.5228-4.4772 10-10 10h-60c-5.5228 0-10-4.4772-10-10v-60c0-5.5228 4.4772-10 10-10z" fill="url(#c)"/><g transform="translate(14 19)" fill-rule="nonzero"><path d="m11 29v-13c0 1.0544 0.81588 1.9182 1.8507 1.9945l0.14926 0.0054857h24v11l-0.26761-7.25e-5c-0.34582-0.59776-0.99214-0.99993-1.7324-0.99993h-24v-12z" fill="url(#b)"/><path d="m37.5 18.512v13.488c0 2.4853-2.0147 4.5-4.5 4.5h-31c-0.82843 0-1.5 0.67157-1.5 1.5v3c0 2.4853 2.0147 4.5 4.5 4.5h29c7.4558 0 13.5-6.0442 13.5-13.5v-3c0-5.6314-4.4332-10.227-10-10.488zm-27 8.9766v-13.488c0-2.4853 2.0147-4.5 4.5-4.5h31c0.82843 0 1.5-0.67157 1.5-1.5v-3c0-2.4853-2.0147-4.5-4.5-4.5h-29c-7.4558 0-13.5 6.0442-13.5 13.5v3c0 5.6314 4.4332 10.227 10 10.488z" fill="url(#a)" stroke="#FFF" stroke-opacity=".4"/></g></g></svg>
