<?xml version="1.0" encoding="UTF-8"?>
<svg viewBox="0 0 96 24" xmlns="http://www.w3.org/2000/svg"><path d="m16.69 1.6243 0.2994 0.70502c0.0282 0.06646 0.0283 0.14152 2e-4 0.20803l-1.713 4.0541c-0.0914 0.21626-0.3975 0.21743-0.4905 0.00187l-1.0497-2.4323c-0.0422-0.09772-0.1385-0.161-0.2449-0.161h-7.3914c-0.19025 0-0.3193 0.19351-0.24618 0.36915l5.9007 14.174c0.091 0.2187 0.4008 0.2189 0.4922 3e-4l7.0685-16.906c0.4148-0.9921 1.385-1.638 2.4603-1.638h10.23c1.9016 0 3.1921 1.9333 2.4628 3.6894l-7.7177 18.585c-0.434 1.045-1.4544 1.7261-2.5859 1.7261h-0.261c-1.132 0-2.1527-0.6816-2.5864-1.7273l-2.2413-5.4041c-0.0271-0.0653-0.0271-0.1386-2e-4 -0.2039l1.6816-4.0757c0.0902-0.2188 0.3995-0.2203 0.492-0.0025l2.5043 5.8991c0.0922 0.217 0.4 0.2165 0.4913-9e-4l5.9332-14.115c0.0739-0.17575-0.0552-0.37-0.2458-0.37h-7.3876c-0.1076 0-0.2047 0.06473-0.2461 0.1641l-7.547 18.113c-0.4348 1.0434-1.4543 1.7231-2.5846 1.7231h-0.2691c-1.1291 0-2.1478-0.6782-2.5833-1.72l-7.7695-18.585c-0.73448-1.7569 0.55609-3.6952 2.4603-3.6952h10.23c1.0699 0 2.0363 0.63951 2.4545 1.6243z" fill="#000"/><path d="m51.475 13.176c0.1569-0.1568 0.3736-0.2538 0.613-0.2538 0.2559 0 0.4858 0.1108 0.6445 0.287v-0.0018l3.1374 3.1363 1e-4 -11.277c0-0.58923 0.4777-1.0669 1.0669-1.0669 0.5893 0 1.0669 0.47767 1.0669 1.0669v13.866c0 0.5892-0.4776 1.0669-1.0669 1.0669-0.3459 0-0.6534-0.1647-0.8484-0.4199l-5.5101-5.5094 0.8966-0.8942zm-6.4337 5.2953 0.0029 0.0035-1.1717 1.1728c-0.0401 0.0401-0.0826 0.0763-0.1269 0.1086-0.1846 0.152-0.4208 0.2433-0.6784 0.2433-0.5892 0-1.0669-0.4777-1.0669-1.0669v-13.866c0-0.58923 0.4777-1.0669 1.0669-1.0669s1.0669 0.47767 1.0669 1.0669l-8e-4 11.303 5.1144-5.1131c0.2115-0.2115 0.4897-0.3156 0.7669-0.3124 0.2775-0.0032 0.5558 0.1009 0.7673 0.3124l0.9129 0.9124c-0.2879 0.0695-0.5608 0.2166-0.7856 0.4413l-5.8679 5.861zm17.764 0.4613c0 0.5892-0.4777 1.0669-1.0669 1.0669s-1.0669-0.4777-1.0669-1.0669v-6.1331c0-1.1782 0.9551-2.1333 2.1333-2.1333l0.3352-1e-4c-0.211 0.3024-0.3347 0.6701-0.3347 1.0667v7.1998zm9.4687-14.933c2.4306 0 4.401 1.97 4.401 4.4 0 2.4301-1.9704 4.4-4.401 4.4l-8.6693-4e-4 8e-4 -1.0663c0-0.5498 0.4161-1.0025 0.9506-1.0604l0.1163-0.0062h7.6016c1.2522 0 2.2672-1.0149 2.2672-2.2667 0-1.2375-0.9918-2.2433-2.2241-2.2663l-10.579-4e-4c-0.5891 0-1.0667-0.47756-1.0667-1.0667 0-0.58911 0.4776-1.0667 1.0667-1.0667h10.536zm17.079 6.9319 0.1247 0.0014c2.5043 0 4.5344 2.0297 4.5344 4.5334s-2.0301 4.5333-4.5344 4.5333h-10.402c-0.5891 0-1.0667-0.4776-1.0667-1.0667s0.4776-1.0666 1.0667-1.0666h10.402c1.3111 0 2.3766-1.0508 2.4002-2.3559l4e-4 -0.0441-0.0041-0.2095c-0.0706-1.8274-1.0609-3.4191-2.5212-4.3253zm3.5924-6.9319c0.5891 0 1.0667 0.47756 1.0667 1.0667 0 0.5891-0.4776 1.0667-1.0667 1.0667h-10.402c-1.3111 0-2.3766 1.0508-2.4002 2.3559l-4e-4 0.04409c0 1.3108 1.051 2.3761 2.3565 2.3996l4.045 4e-4c1.7233 0 3.2221 0.9612 3.9892 2.3766-0.3065-0.1496-0.649-0.2363-1.0112-0.2428l-6.9789-4e-4c-2.5043 0-4.5344-2.0297-4.5344-4.5334 0-2.5037 2.0301-4.5333 4.5344-4.5333h10.402z" clip-rule="evenodd" fill="#000" fill-rule="evenodd"/></svg>
