<?xml version="1.0" encoding="UTF-8"?>
<svg id="i" version="1.0" viewBox="0 0 48 48" xmlns="http://www.w3.org/2000/svg" xmlns:xlink="http://www.w3.org/1999/xlink"><defs id="j"><linearGradient id="d" x1="25.5" x2="44" y1="37.889" y2="37.889" gradientUnits="userSpaceOnUse"><stop id="k" stop-color="#f57900" offset="0"/><stop id="l" stop-color="#ce5c00" stop-opacity="0" offset="1"/></linearGradient><linearGradient id="b"><stop id="m" stop-color="#888a85" offset="0"/><stop id="n" stop-color="#babdb6" offset="1"/></linearGradient><linearGradient id="h"><stop id="o" offset="0"/><stop id="p" stop-opacity="0" offset="1"/></linearGradient><radialGradient id="a" cx="22.93" cy="35.373" r="17.577" gradientTransform="matrix(1 0 0 .33333 0 23.582)" gradientUnits="userSpaceOnUse" xlink:href="#h"/><linearGradient id="c" x1="15" x2="48" y1="31" y2="31" gradientUnits="userSpaceOnUse"><stop id="q" stop-color="#fcaf3e" offset="0"/><stop id="r" stop-color="#f57900" offset="1"/></linearGradient><linearGradient id="g" x1="252.51" x2="274.51" y1="395.24" y2="395.24" gradientUnits="userSpaceOnUse" xlink:href="#b"/><linearGradient id="f" x1="252.51" x2="274.51" y1="375.24" y2="375.24" gradientUnits="userSpaceOnUse" xlink:href="#b"/><linearGradient id="e" x1="45.5" x2="45.5" y1="18" y2="53.051" gradientUnits="userSpaceOnUse"><stop id="s" stop-color="#fff" offset="0"/><stop id="t" stop-color="#fff" stop-opacity="0" offset="1"/></linearGradient></defs><g id="u" transform="translate(-249.51 -355.74)"><path id="v" transform="matrix(.71117 0 0 .51204 268.7 382.63)" d="m40.507 35.373a17.577 5.8589 0 1 1-35.153 0 17.577 5.8589 0 1 1 35.153 0z" color="black" display="block" fill="url(#a)" fill-rule="nonzero" opacity=".16043"/><path id="w" transform="matrix(.71117 0 0 .51204 245.7 380.63)" d="m40.507 35.373a17.577 5.8589 0 1 1-35.153 0 17.577 5.8589 0 1 1 35.153 0z" color="black" display="block" fill="url(#a)" fill-rule="nonzero" opacity=".16043"/><path id="x" transform="translate(249.51 355.74)" d="m39.5 17.5-10.844 8.5938-3.6562-3.5938h-9.5l6.5938 8.7812-6.5938 5.2188h6l2.8125-2.25 7.6875 10.25h15.5l-16.156-15.781 14.156-11.219h-6z" fill="url(#c)" fill-rule="evenodd" stroke="#ba5300" stroke-linejoin="round" stroke-width="1px"/><rect id="y" x="251.01" y="357.24" width="13" height="2" fill="#888a85" fill-rule="evenodd" stroke="#5f615d" stroke-linecap="round" stroke-linejoin="round" stroke-miterlimit="4" stroke-width="1"/><rect id="z" x="255.01" y="359.76" width="4.0001" height="32.479" fill="#888a85" fill-rule="evenodd" stroke="#5f615d" stroke-linecap="round" stroke-linejoin="round" stroke-miterlimit="4" stroke-width="1"/><rect id="aa" x="256.51" y="359.74" width="1" height="33.013" fill="#eeeeec" fill-rule="evenodd" opacity=".45"/><path id="ab" d="m253.01 378.24v-4h6.3l2.1-2h10.5l2.1 2v2h-11.55l-2.1 2h-7.35z" fill="url(#f)" fill-rule="evenodd" stroke="#5f615d" stroke-linecap="round" stroke-linejoin="round" stroke-miterlimit="4" stroke-width="1"/><rect id="ac" x="254.01" y="356.24" width="6.0001" height="3.5071" rx=".951" ry=".85288" fill="#888a85" fill-rule="evenodd" stroke="#5f615d" stroke-linecap="round" stroke-linejoin="round" stroke-miterlimit="4" stroke-width="1"/><rect id="ad" x="250.01" y="356.25" width="2.0038" height="4.0038" rx=".5623" ry=".60497" fill="#888a85" fill-rule="evenodd" stroke="#5f615d" stroke-linecap="round" stroke-linejoin="round" stroke-miterlimit="4" stroke-width="1"/><rect id="ae" x="263.01" y="356.25" width="2.0068" height="4.0068" rx=".56313" ry=".60542" fill="#888a85" fill-rule="evenodd" stroke="#5f615d" stroke-linecap="round" stroke-linejoin="round" stroke-miterlimit="4" stroke-width="1"/><path id="af" d="m253.01 392.24v4h6.3l2.1 2h10.5l2.1-2v-2h-11.55l-2.1-2h-7.35z" fill="url(#g)" fill-rule="evenodd" stroke="#5f615d" stroke-linecap="round" stroke-linejoin="round" stroke-miterlimit="4" stroke-width="1"/><rect id="ag" x="254.01" y="362.24" width="6" height="2" rx=".36886" ry=".43034" fill="#babdb6" fill-rule="evenodd" stroke="#5f615d" stroke-linecap="round" stroke-linejoin="round" stroke-miterlimit="4" stroke-width="1"/><rect id="ah" x="254.01" y="366.24" width="6" height="2" rx=".36886" ry=".43034" fill="#babdb6" fill-rule="evenodd" stroke="#5f615d" stroke-linecap="round" stroke-linejoin="round" stroke-miterlimit="4" stroke-width="1"/><rect id="ai" x="254.01" y="370.24" width="6" height="2" rx=".36886" ry=".43034" fill="#babdb6" fill-rule="evenodd" stroke="#5f615d" stroke-linecap="round" stroke-linejoin="round" stroke-miterlimit="4" stroke-width="1"/><rect id="aj" x="254.01" y="380.24" width="6" height="2" rx=".36886" ry=".43034" fill="#babdb6" fill-rule="evenodd" stroke="#5f615d" stroke-linecap="round" stroke-linejoin="round" stroke-miterlimit="4" stroke-width="1"/><rect id="ak" x="254.01" y="384.24" width="6" height="2" rx=".36886" ry=".43034" fill="#babdb6" fill-rule="evenodd" stroke="#5f615d" stroke-linecap="round" stroke-linejoin="round" stroke-miterlimit="4" stroke-width="1"/><rect id="al" x="254.01" y="388.24" width="6" height="2" rx=".36886" ry=".43034" fill="#babdb6" fill-rule="evenodd" stroke="#5f615d" stroke-linecap="round" stroke-linejoin="round" stroke-miterlimit="4" stroke-width="1"/><path id="am" transform="translate(249.51 355.74)" d="m40 18.5-11.406 9-4.0938-4h-7l6.0312 8.0312-5.0312 3.9688h2.5l3.4375-2.7188 8.0625 10.719h12.5l-15.281-14.906 12.781-10.094h-2.5z" fill="none" opacity=".75" stroke="url(#e)" stroke-linejoin="round" stroke-width="1px"/><path id="an" d="m273.01 395.24h-11l-2-2h-6" fill="none" opacity=".45" stroke="#eeeeec" stroke-linecap="round" stroke-linejoin="round" stroke-miterlimit="4" stroke-width="1"/><path id="ao" d="m271.51 373.24h-9.5l-2 2h-6" fill="none" opacity=".45" stroke="#eeeeec" stroke-linecap="round" stroke-linejoin="round" stroke-miterlimit="4" stroke-width="1"/><path id="ap" transform="translate(249.51 355.74)" d="m5.5 1.5h4" fill="none" opacity=".45" stroke="#eeeeec" stroke-linecap="round" stroke-linejoin="round" stroke-width="1px"/><path id="aq" d="m264.01 357.24v0" fill="none" opacity=".45" stroke="#eeeeec" stroke-linecap="round" stroke-linejoin="round" stroke-width="1px"/><path id="ar" d="m251.01 357.24v0" fill="none" opacity=".45" stroke="#eeeeec" stroke-linecap="round" stroke-linejoin="round" stroke-width="1px"/><path id="as" transform="translate(249.51 355.74)" d="m34 33.5 10 9.5h-11.5l-7-9.5c2.5-2.5 6.5 2.5 8.5 0z" fill="url(#d)" fill-rule="evenodd"/></g></svg>
