<?xml version="1.0" encoding="UTF-8"?>
<svg id="k" sodipodi:docbase="/home/tigert/cvs/freedesktop.org/tango-icon-theme/scalable/devices" sodipodi:docname="battery.svg" sodipodi:version="0.32" viewBox="0 0 48 48" xmlns="http://www.w3.org/2000/svg" xmlns:sodipodi="http://inkscape.sourceforge.net/DTD/sodipodi-0.dtd" xmlns:xlink="http://www.w3.org/1999/xlink"><defs id="l"><linearGradient id="e"><stop id="m" stop-color="#fff" offset="0"/><stop id="n" stop-color="#e7e6ae" offset="1"/></linearGradient><linearGradient id="b"><stop id="o" offset="0"/><stop id="p" stop-opacity="0" offset="1"/></linearGradient><radialGradient id="d" cx="23.857" cy="40" r="17.143" gradientTransform="matrix(1 0 0 .5 -7.259e-15 20)" gradientUnits="userSpaceOnUse" xlink:href="#b"/><linearGradient id="j" x1="9.3031" x2="38.826" y1="26.719" y2="26.719" gradientTransform="translate(-1.1429e-6 -1.7143)" gradientUnits="userSpaceOnUse"><stop id="q" stop-color="#7e807a" offset="0"/><stop id="r" stop-color="#babbb8" offset=".25"/><stop id="s" stop-color="#a5a6a3" offset=".5"/><stop id="t" stop-color="#333432" offset="1"/></linearGradient><linearGradient id="a" x1="24" x2="24" y1="16.525" y2="13.285" gradientUnits="userSpaceOnUse" xlink:href="#e"/><linearGradient id="i" x1="10.116" x2="38.013" y1="17.512" y2="17.512" gradientTransform="translate(-1.1429e-6 -1.7143)" gradientUnits="userSpaceOnUse"><stop id="u" stop-color="#f79403" offset="0"/><stop id="v" stop-color="#fdb343" offset=".18692"/><stop id="w" stop-color="#fdb74f" offset=".43008"/><stop id="x" stop-color="#8f5601" offset="1"/></linearGradient><linearGradient id="h" x1="17.16" x2="37.969" y1="14.004" y2="56.576" gradientTransform="translate(-1.1429e-6 -1.7143)" gradientUnits="userSpaceOnUse"><stop id="y" stop-color="#fff" offset="0"/><stop id="z" stop-color="#fff" stop-opacity="0" offset="1"/></linearGradient><linearGradient id="g" x1="25.065" x2="25.208" y1="21.857" y2="25.429" gradientTransform="translate(-1.1429e-6 -1.7143)" gradientUnits="userSpaceOnUse"><stop id="aa" stop-color="#7d4b01" offset="0"/><stop id="ab" stop-color="#535353" offset="1"/></linearGradient><linearGradient id="f" x1="16.071" x2="15.786" y1="19.5" y2="30" gradientTransform="translate(-.14286 .92857)" gradientUnits="userSpaceOnUse"><stop id="ac" stop-color="#fff" offset="0"/><stop id="ad" stop-color="#fff" stop-opacity="0" offset="1"/></linearGradient><radialGradient id="c" cx="23.857" cy="40" r="17.143" gradientTransform="matrix(1 0 0 .5 -4.4036e-15 20)" gradientUnits="userSpaceOnUse" xlink:href="#b"/></defs><sodipodi:namedview id="ae" fill="#cc0000" stroke="#a40000" bordercolor="#666666" borderopacity="0.25490196" pagecolor="#ffffff" showgrid="false"/><g id="af"><path id="ag" transform="matrix(1.0588 0 0 1.1513 -1.1159 -10.277)" d="m41 40a17.143 8.5714 0 1 1-34.286 0 17.143 8.5714 0 1 1 34.286 0z" color="#000000" display="block" fill="url(#d)" fill-rule="nonzero" sodipodi:cx="23.857143" sodipodi:cy="40.000000" sodipodi:rx="17.142857" sodipodi:ry="8.5714283" sodipodi:type="arc"/><path id="ah" d="m23.937 7.192c-7.8594 0-14.25 2.8025-14.25 6.25v23.125c0 3.4475 6.3906 6.25 14.25 6.25s14.504-2.8025 14.504-6.25v-23.125c0-3.4475-6.645-6.25-14.504-6.25z" color="#000000" display="block" fill="url(#j)" fill-rule="nonzero" stroke="url(#g)" stroke-linejoin="miter" stroke-miterlimit="10" stroke-width="1" sodipodi:nodetypes="csszssz"/><path id="ai" d="m23.941 7.4485c-7.6251 0-13.825 2.719-13.825 6.0637v6.5578c0 3.3447 6.2001 5.6479 13.825 5.6479s14.072-2.3032 14.072-5.6479v-6.5578c0-3.3447-6.447-6.0637-14.072-6.0637z" color="#000000" display="block" fill="url(#i)" fill-rule="nonzero" sodipodi:nodetypes="csszssz"/><path id="aj" d="m23.946 7.9713c-7.3278 0-13.286 2.6129-13.286 5.8272v22.126c0 3.2143 5.9583 5.8272 13.286 5.8272 7.3278 0 13.523-2.6129 13.523-5.8272v-22.126c0-3.2143-6.1955-5.8272-13.523-5.8272z" color="#000000" display="block" fill="none" opacity=".5443" stroke="url(#h)" stroke-linejoin="miter" stroke-miterlimit="10" stroke-width="1" sodipodi:nodetypes="csszssz"/><path id="ak" transform="matrix(1.0373 0 0 .95462 -.89498 -.075721)" d="m36.857 14.071a12.857 5.5 0 1 1-25.714 0 12.857 5.5 0 1 1 25.714 0z" color="#000000" display="block" fill="#fed496" fill-rule="nonzero" stroke="url(#a)" stroke-linejoin="miter" stroke-miterlimit="10" stroke-width="1.0049" sodipodi:cx="24.000000" sodipodi:cy="14.071428" sodipodi:rx="12.857142" sodipodi:ry="5.5000000" sodipodi:type="arc"/><path id="al" transform="matrix(.36343 0 0 .36343 15.472 -4.1186)" d="m41 40a17.143 8.5714 0 1 1-34.286 0 17.143 8.5714 0 1 1 34.286 0z" color="#000000" display="block" fill="url(#c)" fill-rule="nonzero" opacity=".65823" sodipodi:cx="23.857143" sodipodi:cy="40.000000" sodipodi:rx="17.142857" sodipodi:ry="8.5714283" sodipodi:type="arc"/><path id="am" d="m23.889 6.4653c-2.0028 0-4.6313 0.71415-4.6313 1.5927v2.6297c0 0.87852 2.6285 1.5927 4.6313 1.5927 2.0028 0 4.4104-0.71415 4.4104-1.5927v-2.6297c0-0.87852-2.4076-1.5927-4.4104-1.5927z" color="#000000" display="block" fill="#fcaf3e" fill-rule="nonzero" stroke="#b46c02" stroke-linejoin="miter" stroke-miterlimit="10" stroke-width="1" sodipodi:nodetypes="csszssz"/><path id="an" d="m13.643 18 0.35714 16.786 4.5714 1.2857-0.14286-16.714s2.0714 0 5.4286-0.21429c-5.2157-0.23307-11.183-2.4747-13.214-3.9286 1.4169 2.0922 3 2.7857 3 2.7857z" color="#000000" display="block" fill="url(#f)" fill-rule="nonzero" opacity=".49367" sodipodi:nodetypes="ccccccc"/><path id="ao" transform="matrix(.27198 0 0 .21662 17.27 5.4097)" d="m36.857 14.071a12.857 5.5 0 1 1-25.714 0 12.857 5.5 0 1 1 25.714 0z" color="#000000" display="block" fill="#fed496" fill-rule="nonzero" stroke="url(#a)" stroke-linejoin="miter" stroke-miterlimit="10" stroke-width="4.1199" sodipodi:cx="24.000000" sodipodi:cy="14.071428" sodipodi:rx="12.857142" sodipodi:ry="5.5000000" sodipodi:type="arc"/></g></svg>
