<?xml version="1.0" encoding="UTF-8"?>
<!DOCTYPE svg  PUBLIC '-//W3C//DTD SVG 20010904//EN'  'http://www.w3.org/TR/2001/REC-SVG-20010904/DTD/svg10.dtd'>
<svg id="i" viewBox="0 0 48 48" xmlns="http://www.w3.org/2000/svg" xmlns:xlink="http://www.w3.org/1999/xlink"><defs id="j"><radialGradient id="e" cx="31.113" cy="19.009" r="8.6621" gradientUnits="userSpaceOnUse"><stop id="k" offset="0"/><stop id="l" stop-opacity="0" offset="1"/></radialGradient><linearGradient id="h" x1="8.9156" x2="9.8855" y1="37.197" y2="52.091" gradientTransform="matrix(3.1238 0 0 .96969 -31.888 -19.595)" gradientUnits="userSpaceOnUse"><stop id="m" stop-color="#9aa29a" offset="0"/><stop id="n" stop-color="#b5beb5" offset="1"/></linearGradient><radialGradient id="d" cx="11.329" cy="10.584" r="15.532" gradientUnits="userSpaceOnUse"><stop id="o" stop-color="#f3f4ff" offset="0"/><stop id="p" stop-color="#9193af" offset="1"/></radialGradient><radialGradient id="c" cx="11.902" cy="10.045" r="29.293" gradientUnits="userSpaceOnUse"><stop id="q" stop-color="#fffffd" offset="0"/><stop id="r" stop-color="#cbcbc9" offset="1"/></radialGradient><linearGradient id="g" x1="6.3422" x2="22.218" y1="7.7893" y2="25.884" gradientUnits="userSpaceOnUse"><stop id="s" stop-color="#a0a0a0" offset="0"/><stop id="t" stop-color="#fff" offset="1"/></linearGradient><radialGradient id="b" cx="23.375" cy="10.973" r="3.3478" gradientTransform="matrix(3.6304 1.654e-15 -1.6087e-15 3.7421 -61.486 -29.186)" gradientUnits="userSpaceOnUse"><stop id="u" stop-color="#c4a000" offset="0"/><stop id="v" stop-color="#c4a000" stop-opacity="0" offset="1"/></radialGradient><linearGradient id="f" x1="19.667" x2="20.33" y1="4.2571" y2="5.2846" gradientUnits="userSpaceOnUse"><stop id="w" stop-color="#c4a000" offset="0"/><stop id="x" stop-color="#c4a000" stop-opacity="0" offset="1"/></linearGradient><radialGradient id="a" cx="8.7468" cy="6.8283" r="29.89" gradientUnits="userSpaceOnUse"><stop id="y" stop-color="#9497b3" offset="0"/><stop id="z" stop-color="#4c4059" offset="1"/></radialGradient></defs><path id="aa" transform="matrix(2.5632 0 0 1.2196 -55.984 14.041)" d="m39.775 19.009a8.6621 8.6621 0 1 0-17.324 0 8.6621 8.6621 0 1 0 17.324 0z" color="#000000" fill="url(#e)" fill-rule="evenodd" stroke-linecap="round" stroke-linejoin="round"/><path id="ab" d="m18.588 1.4037-14.361 16.693 1.2587 1.2432 13.102-17.936z" color="#000000" fill="url(#h)" fill-rule="evenodd"/><path id="ac" d="m18.467 1.3138-12.807 17.759 1.8295 1.6153 10.977-19.374z" fill="#fefefe" fill-rule="evenodd"/><path id="ad" transform="matrix(1.4315 0 0 1.4315 .56946 -1.6546)" d="m31.161 16.911a14.911 14.911 0 1 0-29.821 0 14.911 14.911 0 1 0 29.821 0z" fill="url(#a)" fill-rule="evenodd" stroke="#605773" stroke-linecap="round" stroke-linejoin="round" stroke-width=".69855"/><path id="ae" transform="matrix(1.1638 0 0 1.1638 4.8248 2.7776)" d="m31.161 16.911a14.911 14.911 0 1 0-29.821 0 14.911 14.911 0 1 0 29.821 0z" fill="url(#c)" fill-rule="evenodd" stroke="url(#g)" stroke-linecap="round" stroke-linejoin="round" stroke-width=".7114"/><path id="af" transform="matrix(1.77 0 0 1.77 -17.024 1.6107)" d="m16.679 6.6387a8.5 8.5 0 0 1 6.6533-3.2636l0.04231 8.4999z" color="#000000" fill="url(#b)" fill-rule="evenodd" stroke="url(#f)" stroke-width=".56499"/><path id="ag" transform="matrix(2.0733 0 0 2.0733 -7.3102 -13.137)" d="m16.406 17.281a1.2188 1.2188 0 1 0-2.4375 0 1.2188 1.2188 0 1 0 2.4375 0z" fill="#f3f3f3" fill-rule="evenodd" stroke="#000" stroke-linecap="round" stroke-linejoin="round" stroke-width=".48232"/><path id="ah" d="m22.177 20.718-9.0209-7.5777" fill="none" stroke="#000" stroke-linecap="round"/><path id="ai" d="m19.409 29.777 2.96-4.4933" fill="none" stroke="#000" stroke-linecap="round" stroke-width="2"/><path id="aj" transform="matrix(2.7495 0 0 2.7495 -22.301 -12.409)" d="m17.324 7.6932a0.61872 0.61872 0 1 0-1.2374 0 0.61872 0.61872 0 1 0 1.2374 0z" fill="#b6b9b1" fill-rule="evenodd" stroke-linecap="round" stroke-linejoin="round" stroke-width="1.3687"/><path id="ak" transform="matrix(2.7495 0 0 2.7495 -22.301 14.809)" d="m17.324 7.6932a0.61872 0.61872 0 1 0-1.2374 0 0.61872 0.61872 0 1 0 1.2374 0z" fill="#b6b9b1" fill-rule="evenodd" stroke-linecap="round" stroke-linejoin="round" stroke-width="1.3687"/><path id="al" transform="matrix(2.7495 0 0 2.7495 -35.91 1.1999)" d="m17.324 7.6932a0.61872 0.61872 0 1 0-1.2374 0 0.61872 0.61872 0 1 0 1.2374 0z" fill="#b6b9b1" fill-rule="evenodd" stroke-linecap="round" stroke-linejoin="round" stroke-width="1.3687"/><path id="am" transform="matrix(2.7495 0 0 2.7495 -8.6914 1.1999)" d="m17.324 7.6932a0.61872 0.61872 0 1 0-1.2374 0 0.61872 0.61872 0 1 0 1.2374 0z" fill="#b6b9b1" fill-rule="evenodd" stroke-linecap="round" stroke-linejoin="round" stroke-width="1.3687"/><path id="an" transform="matrix(1.3577 0 0 1.3577 1.7699 -.49374)" d="m31.161 16.911a14.911 14.911 0 1 0-29.821 0 14.911 14.911 0 1 0 29.821 0z" fill="none" stroke="url(#d)" stroke-linecap="round" stroke-linejoin="round" stroke-width=".73656"/></svg>
