<?xml version="1.0" encoding="UTF-8"?>
<svg id="d" version="1.0" viewBox="0 0 16 16" xmlns="http://www.w3.org/2000/svg" xmlns:xlink="http://www.w3.org/1999/xlink"><defs id="e"><linearGradient id="c" x1="-500.17" x2="-500.17" y1="543.14" y2="-75.649" gradientTransform="matrix(.03351 0 0 .03403 3.3842 16.075)" gradientUnits="userSpaceOnUse"><stop id="f" offset="0"/><stop id="g" stop-opacity="0" offset="1"/></linearGradient><radialGradient id="a" cx="-24.377" cy="-3.4676" r="15" gradientTransform="matrix(-4.0417e-8 1.0775 -.93563 -3.0113e-8 -11.621 47.437)" gradientUnits="userSpaceOnUse"><stop id="h" stop-color="#747474" stop-opacity=".96078" offset="0"/><stop id="i" stop-color="#535353" offset="1"/></radialGradient><linearGradient id="b" x1="26.619" x2="31.619" y1="17.775" y2="23.775" gradientTransform="matrix(.37057 0 0 .37057 -.23049 24.12)" gradientUnits="userSpaceOnUse"><stop id="j" stop-color="#eee" stop-opacity=".96078" offset="0"/><stop id="k" stop-color="#3b3b3b" stop-opacity=".96078" offset="1"/></linearGradient></defs><g id="l" transform="translate(-.37677 -20.901)"><rect id="m" transform="scale(-1,1)" x="-13.877" y="22.401" width="11" height="13" fill="url(#a)" fill-rule="nonzero" stroke="#303030" stroke-linecap="round" stroke-linejoin="miter" stroke-miterlimit="4" stroke-width="1"/><path id="n" d="m4.3768 23.901h8v7.8571l-5.2 2.1429h-2.8z" fill="#fff"/><rect id="o" transform="scale(-1,1)" x="-12.877" y="23.401" width="9" height="11" fill="none" opacity=".778" stroke="url(#c)" stroke-linecap="round" stroke-linejoin="miter" stroke-miterlimit="4" stroke-opacity=".41304" stroke-width="1"/><path id="p" d="m12.377 31.695v-7.8062c-1e-5 -0.09372-0.08141-0.16969-0.18182-0.1697h-7.6364c-0.10041 1e-5 -0.18181 0.07598-0.18182 0.1697v9.8424c1.02e-5 0.09372 0.081407 0.16969 0.18182 0.1697h2.909m-0.18182-0.33939h-2.5454v-9.503h7.2727v7.4183" clip-rule="nonzero" color="#000000" color-rendering="auto" enable-background="accumulate" fill="#acacac" fill-rule="nonzero" image-rendering="auto" shape-rendering="auto" solid-color="#000000" style="block-progression:tb;isolation:auto;mix-blend-mode:normal;text-decoration-color:#000000;text-decoration-line:none;text-decoration-style:solid;text-indent:0;text-transform:none;white-space:normal"/><ellipse id="q" cx="8.3768" cy="22.401" rx="1" ry="1" fill="#037ad9" stroke="#037ad9" stroke-linejoin="bevel" stroke-miterlimit="4" stroke-width="1"/><path id="r" d="m7.027 24.445 0.53993-1h1.6198l0.53992 1z" fill="#46a9ee" fill-rule="evenodd" stroke="#037ad9" stroke-linejoin="miter" stroke-width="1px"/><path id="s" d="m6.3768 29.401h3" fill="none" stroke="#878787" stroke-linejoin="miter" stroke-opacity=".96078" stroke-width="1px"/><path id="t" d="m9.3768 27.401h2" fill="none" stroke="#878787" stroke-linejoin="miter" stroke-opacity=".96078" stroke-width="1px"/><path id="u" d="m8.3768 31.401h2" fill="none" stroke="#878787" stroke-linejoin="miter" stroke-opacity=".96078" stroke-width="1px"/><path id="v" d="m6.3768 31.401h1" fill="none" stroke="#878787" stroke-linejoin="miter" stroke-opacity=".96078" stroke-width="1px"/><path id="w" d="m6.3768 27.401h2" fill="none" stroke="#878787" stroke-linejoin="miter" stroke-opacity=".96078" stroke-width="1px"/><path id="x" d="m7.4814 34.046c1.0407-1.1155 1.852-1.1192 2.8973-3.4559 1.1781 0.85436 2.1027 1.1155 2.1027 1.1155s-3.5261 1.6853-5 2.3404z" fill="url(#b)" fill-rule="evenodd"/><path id="y" d="m10.377 29.401h1" fill="none" stroke="#878787" stroke-linejoin="miter" stroke-opacity=".96078" stroke-width="1px"/></g></svg>
