<?xml version="1.0" encoding="UTF-8"?>
<svg id="a" width="1e3" height="1e3" version="1.1" viewBox="0 0 264.58 264.58" xmlns="http://www.w3.org/2000/svg"><g id="b" transform="translate(0 -735.42)"><g id="c" transform="translate(0,703)"><g id="d" transform="matrix(1.1919 0 0 .93794 -99.757 -671.53)"><g id="e" transform="matrix(.1 0 0 -.1 0 511)"></g><g id="f"></g></g></g><path id="g" transform="matrix(1.1919 0 0 .93794 -99.757 36.232)" d="m305.68 10.264c-16.557 0.0012-33.011 6.8178-44.719 18.525-11.708 11.708-18.526 28.161-18.527 44.719 0 106.86 54.033 188.71 98.516 259.37 44.482 70.658 79.072 129.26 79.072 191.98 0 31.104-7.5537 56.099-20.723 79.746-13.169 23.647-31.68 46.059-54.041 73.764-44.672 55.348-102.82 130.61-102.82 241.42 2e-3 16.557 6.8178 33.011 18.525 44.719 11.708 11.708 28.162 18.524 44.719 18.525h399.57c16.557-2e-3 33.011-6.8178 44.719-18.525 11.708-11.708 18.524-28.162 18.525-44.719 0-109.44-65.803-182.93-115.78-239.38-24.99-28.228-45.761-51.856-60.559-76.174s-23.443-49.565-23.443-79.367c0-60.093 38.195-118.43 88.26-189.12 50.065-70.69 111.53-152.54 111.53-262.22-0.00162-16.557-6.8182-33.009-18.525-44.717-11.707-11.707-28.161-18.525-44.717-18.527-152.35-0.0027-247.23 0.0027-399.57 0z" display="none" fill="#fff" stroke-miterlimit="4" stroke-width="0"/></g><g id="h" transform="translate(0 -735.42)"><g id="i" transform="matrix(1.2365 0 0 1.1502 -29.349 -130.12)"><path id="j" transform="matrix(.26358 0 0 .22547 -3.0851 753.79)" d="m264.58 62.916c-9.8172 9.84e-4 -19.572 4.0426-26.514 10.984s-10.983 16.696-10.984 26.514a11.043 11.043 0 0 0 0 2e-3c0 95.949 62.458 163.9 115.3 223.35 52.847 59.453 96.361 110.94 96.361 173.52 0 62.618-43.038 110.9-96.08 169.24-53.073 58.38-115.59 127.35-115.59 227.63a11.043 11.043 0 0 0 0 2e-3c9.9e-4 9.8172 4.0426 19.572 10.984 26.514s16.696 10.983 26.514 10.984a11.043 11.043 0 0 0 2e-3 0h476.25a11.043 11.043 0 0 0 2e-3 0c9.8172-9.9e-4 19.572-4.0426 26.514-10.984s10.983-16.696 10.984-26.514a11.043 11.043 0 0 0 0-2e-3c0-97.953-70.613-165.52-130.04-224.96-59.432-59.432-108.08-111.54-108.08-171.92s48.648-112.49 108.08-171.92c59.432-59.432 130.04-127 130.04-224.96a11.043 11.043 0 0 0 0-2e-3c-9.8e-4 -9.8171-4.0426-19.572-10.984-26.514-6.9418-6.9418-16.696-10.983-26.514-10.984a11.043 11.043 0 0 0-2e-3 0c-181.58-3e-3 -294.67 3e-3 -476.25 0a11.043 11.043 0 0 0-2e-3 0z" fill="#000" stroke-miterlimit="4" stroke-width="0"/><path id="k" d="m122.44 865.92c0-35.794-55.791-53.691-55.791-89.485 47.861 6.7e-4 77.668-6.8e-4 125.53 0 0 35.794-62.764 53.691-62.764 89.485 0 35.794 62.764 53.691 62.764 89.485h-125.53c0-38.18 55.791-53.691 55.791-89.485z" fill="#fff" stroke-miterlimit="4" stroke-width="0"/><path id="l" d="m81.766 798.49c6.1645 12.571 21.505 19.478 38.558 46.005 6.7466 8.3726 3.6348 82.315 3.6348 82.315-0.50001 4.3324-10.63 2.3492-50.331 23.7h111.58c-46.032-20.89-58.268-19.395-58.062-24.188 0 0-3.1876-69.627 2.2717-78.302 13.032-22.332 19.239-19.702 47.134-49.53-27.895 5.9656-66.891 5.9656-94.786 0z" fill="#666" stroke-width=".025776"/><rect id="m" x="45.302" y="761.88" width="171.02" height="13.616" stroke="#000" stroke-width="3.4062"/><rect id="n" x="45.134" y="958.59" width="170.48" height="14.951" stroke="#000" stroke-width="3.5636"/></g></g></svg>
