<?xml version="1.0" encoding="UTF-8"?>
<svg id="h" sodipodi:docbase="/home/jimmac/src/cvs/tango-icon-theme/scalable/emotes" sodipodi:docname="face-grin.svg" sodipodi:version="0.32" viewBox="0 0 48 48" xmlns="http://www.w3.org/2000/svg" xmlns:sodipodi="http://inkscape.sourceforge.net/DTD/sodipodi-0.dtd" xmlns:xlink="http://www.w3.org/1999/xlink"><defs id="i"><linearGradient id="a"><stop id="j" offset="0"/><stop id="k" stop-opacity="0" offset="1"/></linearGradient><radialGradient id="c" cx="24.714" cy="38.571" r="19.714" gradientTransform="matrix(1 0 0 .33333 0 25.714)" gradientUnits="userSpaceOnUse"><stop id="l" offset="0"/><stop id="m" stop-opacity="0" offset="1"/></radialGradient><radialGradient id="b" cx="29.288" cy="15.721" r="8.9021" fx="29.158" fy="15.756" gradientUnits="userSpaceOnUse"><stop id="n" stop-color="#fffcde" offset="0"/><stop id="o" stop-color="#f6e76a" offset=".64486"/><stop id="p" stop-color="#ffb738" offset="1"/></radialGradient><linearGradient id="g" x1="14" x2="14" y1="21.062" y2="34.306" gradientTransform="matrix(1 0 0 1.4045 10.5 -7.9663)" gradientUnits="userSpaceOnUse" xlink:href="#a"/><linearGradient id="f" x1="14" x2="13.5" y1="21.062" y2="33.427" gradientTransform="matrix(1 0 0 1.1719 2.5 -3.1412)" gradientUnits="userSpaceOnUse" xlink:href="#a"/><linearGradient id="e" x1="14" x2="14.5" y1="21.062" y2="33.431" gradientTransform="matrix(1 0 0 1.1598 18.5 -2.815)" gradientUnits="userSpaceOnUse" xlink:href="#a"/><linearGradient id="d" x1="9.7893" x2="38.391" y1="29.629" y2="29.629" gradientTransform="matrix(1.0489 0 0 1 -1.2679 0)" gradientUnits="userSpaceOnUse"><stop id="q" stop-color="#ccc" offset="0"/><stop id="r" stop-color="#fff" offset=".34579"/><stop id="s" stop-color="#fff" offset=".72487"/><stop id="t" stop-color="#cecece" offset="1"/></linearGradient></defs><sodipodi:namedview id="u" fill="#a40000" stroke="#8f5902" bordercolor="#666666" borderopacity="0.19607843" pagecolor="#ffffff" showgrid="false"/><g id="v"><path id="w" d="m44.429 38.571a19.714 6.5714 0 1 1-39.429 0 19.714 6.5714 0 1 1 39.429 0z" color="#000000" fill="url(#c)" fill-rule="evenodd" opacity=".53165" sodipodi:cx="24.714285" sodipodi:cy="38.571430" sodipodi:rx="19.714285" sodipodi:ry="6.5714288" sodipodi:type="arc"/><path id="x" transform="matrix(2.0831 0 0 2.0831 -40.547 -16.492)" d="m39.775 19.009a8.6621 8.6621 0 1 1-17.324 0 8.6621 8.6621 0 1 1 17.324 0z" color="#000000" fill="url(#b)" fill-rule="evenodd" stroke="#9c8c0a" stroke-linecap="round" stroke-linejoin="round" stroke-miterlimit="4" stroke-width=".48004" sodipodi:cx="31.112698" sodipodi:cy="19.008621" sodipodi:rx="8.6620579" sodipodi:ry="8.6620579" sodipodi:type="arc"/><path id="y" transform="matrix(1.9798 0 0 1.9798 -37.331 -14.527)" d="m39.775 19.009a8.6621 8.6621 0 1 1-17.324 0 8.6621 8.6621 0 1 1 17.324 0z" color="#000000" fill="none" opacity=".67722" stroke="#fff" stroke-linecap="round" stroke-linejoin="round" stroke-miterlimit="4" stroke-width=".50511" sodipodi:cx="31.112698" sodipodi:cy="19.008621" sodipodi:rx="8.6620579" sodipodi:ry="8.6620579" sodipodi:type="arc"/><path id="z" transform="matrix(-.96593 -.25882 .25882 -.96593 24.534 17.201)" d="m-0.875 1.875a2.9375 2.875 0 0 1-5.4814 1.4375" fill="none" stroke="#555753" stroke-miterlimit="4" stroke-width="1" sodipodi:cx="-3.8125000" sodipodi:cy="1.8750000" sodipodi:end="2.6179939" sodipodi:open="true" sodipodi:rx="2.9375000" sodipodi:ry="2.8750000" sodipodi:start="0.0000000" sodipodi:type="arc"/><path id="aa" transform="matrix(-.96593 -.25882 .25882 -.96593 15.784 17.201)" d="m-0.875 1.875a2.9375 2.875 0 0 1-5.4814 1.4375" fill="none" stroke="#555753" stroke-miterlimit="4" stroke-width="1" sodipodi:cx="-3.8125000" sodipodi:cy="1.8750000" sodipodi:end="2.6179939" sodipodi:open="true" sodipodi:rx="2.9375000" sodipodi:ry="2.8750000" sodipodi:start="0.0000000" sodipodi:type="arc"/><path id="ab" d="m9.1875 21.045c-1.539 7.5674 4.692 17.168 14.851 17.168 10.247 0 16.506-8.4304 14.72-17.105l-29.571-0.0625z" color="#000000" fill="url(#d)" fill-rule="nonzero" sodipodi:nodetypes="czcc"/><path id="ac" d="m24.5 21.529v16.854" fill="none" opacity=".18182" stroke="url(#g)" stroke-linecap="square" stroke-linejoin="miter" stroke-width="1px"/><path id="ad" d="m16.5 21.469v14.063" fill="none" opacity=".18182" stroke="url(#f)" stroke-linecap="square" stroke-linejoin="miter" stroke-width="1px"/><path id="ae" d="m32.5 21.541v13.918" fill="none" opacity=".18182" stroke="url(#e)" stroke-linecap="square" stroke-linejoin="miter" stroke-width="1px"/><path id="af" d="m9.4409 20.616c-1.7807 8.8219 5.159 18.088 14.809 18.088 10.004 0 16.652-9.5784 14.372-18.15l-29.181 0.0625z" color="#000000" fill="none" stroke="#8f5902" stroke-linejoin="miter" stroke-miterlimit="4" stroke-width="1" sodipodi:nodetypes="czcc"/></g></svg>
