<?xml version="1.0" encoding="UTF-8"?>
<svg id="d" version="1.0" viewBox="0 0 98 98" xmlns="http://www.w3.org/2000/svg" xmlns:xlink="http://www.w3.org/1999/xlink"><defs id="e"><linearGradient id="b" x1="286.3" x2="220.47" y1="238.84" y2="238.84" gradientTransform="matrix(.64805 0 0 .64805 84.242 99.24)" gradientUnits="userSpaceOnUse" xlink:href="#c"/><linearGradient id="c"><stop id="f" stop-color="#a00" offset="0"/><stop id="g" stop-color="#a00" stop-opacity="0" offset="1"/></linearGradient></defs><g id="h" transform="translate(-62.197 -339.88)"><g id="i" transform="matrix(.41873 0 0 .41873 10.973 280.49)"><g id="j"><g id="k" fill="#4d4d4d" fill-rule="nonzero"><path id="l" d="m333.05 281.97a93.692 93.692 0 1 1-187.38 0 93.692 93.692 0 1 1 187.38 0z"/><rect id="m" x="228.58" y="175.17" width="21.545" height="18.467" rx="3.5355" ry="3.5355"/><rect id="n" x="223.04" y="162.84" width="32.625" height="17.871" rx="8.9357" ry="8.9357"/></g><rect id="o" x="216.07" y="145.62" width="48.015" height="24.623" rx="18.775" ry="11.696" fill="none" stroke="#4d4d4d" stroke-linejoin="round" stroke-miterlimit="4" stroke-width="7.1328"/></g><path id="p" d="m317.49 281.97a78.135 78.135 0 1 1-156.27 0 78.135 78.135 0 1 1 156.27 0z" fill="#fff" fill-rule="nonzero"/><rect id="a" x="234.76" y="208.96" width="9.1924" height="18.385" rx="3.5355" ry="3.5355" fill="#4d4d4d" fill-rule="nonzero"/><use id="q" transform="translate(0 125.87)" width="744.09448" height="1052.3622" xlink:href="#a"/><use id="r" transform="matrix(0 -1 1 0 -42.436 521.32)" width="744.09448" height="1052.3622" xlink:href="#a"/><use id="s" transform="matrix(0 -1 1 0 81.308 521.32)" width="744.09448" height="1052.3622" xlink:href="#a"/><g id="t" fill="#808080"><use id="u" transform="matrix(.25365 .14645 -.21784 .37731 257.75 108.97)" width="744.09448" height="1052.3622" xlink:href="#a"/><use id="v" transform="matrix(.14645 .25365 -.37731 .21784 340.68 141.55)" width="744.09448" height="1052.3622" xlink:href="#a"/><use id="w" transform="matrix(.25365 -.14645 -.21784 -.37731 257.75 453.16)" width="744.09448" height="1052.3622" xlink:href="#a"/><use id="x" transform="matrix(.14645 -.25365 -.37731 -.21784 340.68 420.58)" width="744.09448" height="1052.3622" xlink:href="#a"/><use id="y" transform="matrix(-.25365 -.14645 .21784 -.37731 221.03 453.16)" width="744.09448" height="1052.3622" xlink:href="#a"/><use id="z" transform="matrix(-.14645 -.25365 .37731 -.21784 138.11 420.58)" width="744.09448" height="1052.3622" xlink:href="#a"/><use id="aa" transform="matrix(-.25365 .14645 .21784 .37731 221.03 109.4)" width="744.09448" height="1052.3622" xlink:href="#a"/><use id="ab" transform="matrix(-.14645 .25365 .37731 .21784 138.11 141.98)" width="744.09448" height="1052.3622" xlink:href="#a"/></g><path id="ac" d="m239.63 229.68c-1.932 0.00758-3.893 0.11091-5.8729 0.32402-0.61141 0.02061-1.16 0.38112-1.4216 0.93414-0.26157 0.55301-0.1922 1.2058 0.17972 1.6915 0.37193 0.48571 0.98408 0.72289 1.5862 0.61456 14.978-1.6122 28.266 2.9071 39.146 13.325 0.40517 0.47159 1.0429 0.67227 1.6451 0.51768 0.60222-0.15459 1.0645-0.63765 1.1924-1.2461 0.12793-0.60844-0.10064-1.2367-0.58961-1.6208-10.068-9.6404-22.341-14.594-35.865-14.541z" fill="url(#b)" fill-rule="nonzero"/><path id="ad" d="m244.39 239.3c-0.81369 0.11915-1.4119 0.82464-1.3965 1.6469 0.01542 0.82223 0.63969 1.5048 1.4573 1.5934 8.3278 1.0765 15.002 4.1284 21.284 9.7004 0.67666 0.59838 1.7103 0.53491 2.3087-0.14176 0.59838-0.67666 0.53491-1.7103-0.14176-2.3087-6.7094-5.9512-14.131-9.3405-23.026-10.49-0.1611-0.02424-0.32493-0.02424-0.48603 0z" fill="url(#b)" fill-rule="nonzero"/><path id="ae" d="m238.32 220.83c-5.4159 0.14775-10.922 1.0387-16.404 2.6732-0.59108 0.14115-1.0549 0.59876-1.2041 1.1879s0.04104 1.2123 0.49373 1.6178c0.45268 0.40543 1.093 0.52605 1.6622 0.3131 20.871-6.2233 41.629-1.0229 57.109 14.298 0.64311 0.63752 1.6813 0.63299 2.3188-0.01012s0.63299-1.6813-0.01013-2.3188c-12.197-12.071-27.718-18.204-43.966-17.761z" fill="url(#b)" fill-rule="nonzero"/><path id="af" d="m294.16 196.88-3.182 12.607 12.374 9.5459 11.942-6.9801c0-6.1872-15.831-16.94-21.135-15.172z" fill="#4d4d4d" fill-rule="evenodd"/><path id="ag" d="m294.03 237.32c-1.0946-1.2567-67.806 52.861-67.806 52.861l2.537 3.1854s66.364-54.79 65.269-56.047z" fill="#1a1a1a" fill-rule="evenodd"/></g></g></svg>
