<?xml version="1.0" encoding="UTF-8"?>
<svg id="e" version="1.1" viewBox="0 0 32 32" xmlns="http://www.w3.org/2000/svg" xmlns:xlink="http://www.w3.org/1999/xlink"><defs id="f"><linearGradient id="d" x1="71.204" x2="71.204" y1="6.2376" y2="44.341" gradientTransform="matrix(.72973 0 0 .72973 -36.346 -2.5039)" gradientUnits="userSpaceOnUse"><stop id="g" stop-color="#fff" offset="0"/><stop id="h" stop-color="#fff" stop-opacity=".23529" offset=".50776"/><stop id="i" stop-color="#fff" stop-opacity=".15686" offset=".83457"/><stop id="j" stop-color="#fff" stop-opacity=".39216" offset="1"/></linearGradient><radialGradient id="b" cx="6.1597" cy="8.4498" r="20" gradientTransform="matrix(4.5367e-8 1.7632 -1.8653 0 31.761 -11.251)" gradientUnits="userSpaceOnUse"><stop id="k" stop-color="#2f9db6" offset="0"/><stop id="l" stop-color="#2590ba" offset=".26238"/><stop id="m" stop-color="#2866ae" offset=".70495"/><stop id="n" stop-color="#2a5381" offset="1"/></radialGradient><linearGradient id="c" x1="24" x2="24" y1="44" y2="3.899" gradientTransform="matrix(.74366 0 0 .74366 -1.8478 -1.8478)" gradientUnits="userSpaceOnUse"><stop id="o" stop-color="#144f80" offset="0"/><stop id="p" stop-color="#3d8bbc" offset="1"/></linearGradient><radialGradient id="a" cx="62.625" cy="4.625" r="10.625" gradientTransform="matrix(1.5059 0 0 .37647 -78.306 26.259)" gradientUnits="userSpaceOnUse"><stop id="q" offset="0"/><stop id="r" stop-opacity="0" offset="1"/></radialGradient></defs><g id="s"><path id="t" d="m32 28c0 2.2091-7.1634 4-16 4-8.8366 0-16-1.7909-16-4s7.1634-4 16-4c8.8366 0 16 1.7909 16 4z" fill="url(#a)" fill-rule="evenodd" opacity=".3"/><path id="u" d="m16 1.5c-8.0006 0-14.5 6.4994-14.5 14.5 0 8.0006 6.4994 14.5 14.5 14.5 8.0006 0 14.5-6.4994 14.5-14.5 0-8.0006-6.4994-14.5-14.5-14.5z" color="#000000" enable-background="accumulate" fill="url(#b)" fill-rule="nonzero" stroke="url(#c)" stroke-linecap="round" stroke-linejoin="round" stroke-miterlimit="4" stroke-width="1"/><path id="v" d="m29.5 16c0 7.4561-6.0446 13.5-13.5 13.5-7.4559 0-13.5-6.0445-13.5-13.5 0-7.4557 6.0443-13.5 13.5-13.5 7.4552 0 13.5 6.0438 13.5 13.5v0z" color="#000000" enable-background="accumulate" fill="none" opacity=".5" stroke="url(#d)" stroke-linecap="round" stroke-linejoin="round" stroke-miterlimit="4" stroke-width="1"/><ellipse id="w" cx="16" cy="16" rx="2.7143" ry="2.6263" fill="#fff"/><path id="x" d="m13 9.9996c-4 2-4 8 0 10" fill="none" opacity=".5" stroke="#07407b" stroke-linecap="round" stroke-linejoin="round" stroke-miterlimit="4" stroke-width="2"/><path id="y" d="m13 11c-4 2-4 8 0 10" fill="none" stroke="#fff" stroke-linecap="round" stroke-linejoin="round" stroke-miterlimit="4" stroke-width="2"/><path id="z" d="m19 9.9996c4 2 4 8 0 10" fill="none" opacity=".5" stroke="#07407b" stroke-linecap="round" stroke-linejoin="round" stroke-miterlimit="4" stroke-width="2"/><path id="aa" d="m11 6.0003c-7 3-7 15 0 18" fill="none" opacity=".5" stroke="#07407b" stroke-linecap="round" stroke-linejoin="round" stroke-miterlimit="4" stroke-width="2"/><path id="ab" d="m11 7c-7 3-7 15 0 18" fill="none" stroke="#fff" stroke-linecap="round" stroke-linejoin="round" stroke-miterlimit="4" stroke-width="2"/><path id="ac" d="m21 6.0003c7 3 7 15 0 18" fill="none" opacity=".5" stroke="#07407b" stroke-linecap="round" stroke-linejoin="round" stroke-miterlimit="4" stroke-width="2"/><path id="ad" d="m19 11c4 2 4 8 0 10" fill="none" stroke="#fff" stroke-linecap="round" stroke-linejoin="round" stroke-miterlimit="4" stroke-width="2"/><path id="ae" d="m21 7c7 3 7 15 0 18" fill="none" stroke="#fff" stroke-linecap="round" stroke-linejoin="round" stroke-miterlimit="4" stroke-width="2"/><g id="af" fill="none"><ellipse id="ag" cx="16" cy="15" rx="2.7143" ry="2.6263"/><path id="ah" d="m13 10c-4 2-4 8 0 10"/><path id="ai" d="m11 6.0003c-7 3-7 15 0 18"/><path id="aj" d="m19 10c4 2 4 8 0 10"/><path id="ak" d="m21 6.0003c7 3 7 15 0 18"/></g><circle id="al" cx="16" cy="15" r="3" fill="#07407b" opacity=".5"/><circle id="am" cx="16" cy="16" r="3" fill="#fff"/></g></svg>
