<?xml version="1.0" encoding="UTF-8"?>
<svg id="n" version="1.1" viewBox="0 0 32 32" xmlns="http://www.w3.org/2000/svg" xmlns:xlink="http://www.w3.org/1999/xlink"><defs id="o"><style id="p" type="text/css">.ColorScheme-Text {
        color:#232629;
      }</style><linearGradient id="l" x2="0" y1="547.8" y2="536.8" gradientTransform="matrix(.57843 0 0 .54087 -220.25 -267.86)" gradientUnits="userSpaceOnUse"><stop id="q" stop-color="#c6cdd1" offset="0"/><stop id="r" stop-color="#e0e5e7" offset="1"/></linearGradient><linearGradient id="m" x2="0" y1="536.8" y2="503.8" gradientTransform="matrix(.53711 0 0 .54087 -203.37 -267.86)" gradientUnits="userSpaceOnUse"><stop id="s" stop-color="#2a2c2f" offset="0"/><stop id="t" stop-color="#424649" offset="1"/></linearGradient><linearGradient id="k" x2="0" y1="541.8" y2="489.8" gradientTransform="matrix(.53898 0 0 .54537 -208.49 -266.95)" gradientUnits="userSpaceOnUse"><stop id="u" stop-color="#7e8f9e" offset="0"/><stop id="v" stop-color="#84ced5" offset="1"/></linearGradient><linearGradient id="j" x1="394.57" x2="404.57" y1="535.8" y2="522.8" gradientTransform="matrix(.54537 0 0 .56662 -211.01 -278.21)" gradientUnits="userSpaceOnUse"><stop id="w" stop-color="#e4a56d" offset="0"/><stop id="x" stop-color="#a7bd78" offset="1"/></linearGradient><linearGradient id="i" x1="404.57" x2="421.57" gradientTransform="matrix(.53522 0 0 .56662 -206.9 -278.21)" gradientUnits="userSpaceOnUse"><stop id="y" stop-color="#c3a278" offset="0"/><stop id="z" stop-color="#68a" offset="1"/></linearGradient><linearGradient id="h" x1="430.57" x2="437.5" y1="536.8" y2="524.8" gradientTransform="matrix(.54924 0 0 .56662 -212.99 -278.21)" gradientUnits="userSpaceOnUse"><stop id="aa" stop-color="#6588af" offset="0"/><stop id="ab" stop-color="#8ba8cd" offset="1"/></linearGradient><linearGradient id="a" x1="421.57" x2="438.57" gradientTransform="matrix(.52008 0 0 .54537 -200.2 -266.95)" gradientUnits="userSpaceOnUse"><stop id="ac" stop-color="#89ad8b" offset="0"/><stop id="ad" stop-color="#82b3c7" offset="1"/></linearGradient><linearGradient id="f" x1="387.57" x2="401.57" y1="525.8" y2="513.8" gradientTransform="matrix(.54537 0 0 .63221 -211.01 -311.3)" gradientUnits="userSpaceOnUse"><stop id="ae" stop-color="#e1b16f" offset="0"/><stop id="af" stop-color="#99bf83" offset="1"/></linearGradient><linearGradient id="e" x1="404.57" x2="391.57" y1="510.8" y2="498.8" gradientTransform="matrix(.54537 0 0 .54537 -211.01 -266.95)" gradientUnits="userSpaceOnUse"><stop id="ag" stop-color="#99c487" offset="0"/><stop id="ah" stop-color="#b4d99e" offset="1"/></linearGradient><linearGradient id="d" x1="404.57" x2="421.57" y1="501.8" y2="501.62" gradientTransform="matrix(.55412 0 0 .54537 -214.55 -266.95)" gradientUnits="userSpaceOnUse"><stop id="ai" stop-color="#75d5c7" offset="0"/><stop id="aj" stop-color="#66afb9" offset="1"/></linearGradient><linearGradient id="g" x1="428.57" x2="438.57" y1="495.8" y2="504.8" gradientTransform="matrix(.52008 0 0 .52678 -200.2 -257.66)" gradientUnits="userSpaceOnUse"><stop id="ak" stop-color="#5c7b9e" offset="0"/><stop id="al" stop-color="#839dc0" offset="1"/></linearGradient><linearGradient id="c" x1="421.57" x2="406.57" gradientTransform="matrix(.53898 0 0 .54537 -208.49 -266.95)" gradientUnits="userSpaceOnUse"><stop id="am" stop-color="#7fbcc6" offset="0"/><stop id="an" stop-color="#8ee4e3" offset="1"/></linearGradient><linearGradient id="b" x1="421.57" x2="436.57" gradientTransform="matrix(.53898 0 0 .54537 -208.49 -266.95)" gradientUnits="userSpaceOnUse"><stop id="ao" stop-color="#84d5d7" offset="0"/><stop id="ap" stop-color="#84a8ba" offset="1"/></linearGradient></defs><path id="aq" d="m12.61 22.48v5.9495h6.9411v-5.9495z" fill="url(#l)" stroke-opacity=".55026" stroke-width="1.3882"/><rect id="ar" x="3.1899" y="4.6318" width="25.781" height="19.471" fill="url(#m)" stroke-opacity=".55026" stroke-width="1.3882"/><path id="as" d="m4.1815 5.6233v16.361h23.715v-16.361z" fill="url(#k)" stroke-width=".49579"/><path id="at" d="m9.6352 14.052-5.4537 4.6658v3.2669h5.4537z" fill="url(#j)" fill-rule="evenodd" stroke-width=".49579"/><path id="au" d="m9.6352 14.548v7.4369h9.0988z" fill="url(#i)" fill-rule="evenodd" stroke-width=".49579"/><path id="av" d="m27.98 14.052-9.4201 7.9327 9.4201 6e-6z" fill="url(#h)" fill-rule="evenodd" stroke-width=".49579"/><path id="aw" d="m19.055 18.712v-12.097l8.9243 7.4369-8.9243 7.9327z" fill="url(#a)" fill-rule="evenodd" stroke-width=".49579"/><path id="ax" d="m4.1815 9.5897v10.412l5.4537-5.4537z" fill="url(#f)" fill-rule="evenodd" stroke-width=".49579"/><path id="ay" d="m4.1815 5.6233v4.2352l5.4537 4.6891v-8.9243z" fill="url(#e)" fill-rule="evenodd" stroke-width=".49579"/><path id="az" d="m9.6352 5.6233v8.9243l9.4201-7.9327-1.4874-0.99159z" fill="url(#d)" fill-rule="evenodd" stroke-width=".49579"/><path id="ba" d="m20.319 5.6233-1.2636 0.99159 8.9243 7.4369v-8.4285z" fill="url(#g)" fill-rule="evenodd" stroke-width=".49579"/><path id="bb" d="m17.568 5.6234 1.4874 0.99159v-0.99159z" fill="url(#c)" fill-rule="evenodd" stroke-width=".49579"/><path id="bc" d="m19.055 5.6234v0.99159l1.4874-0.99159z" fill="url(#b)" fill-rule="evenodd" stroke-width=".49579"/><rect id="bd" x="10.131" y="27.934" width="11.899" height=".4958" fill="#99a1a7" stroke-opacity=".55026" stroke-width="1.3882"/><g id="be" transform="matrix(.49579 0 0 .49579 -186.49 -243.16)"><rect id="bf" x="384.57" y="530.8" width="48" height="4" fill="#fff" fill-opacity=".78431"/><circle id="bg" cx="429.57" cy="532.8" r="1" fill="#4d4d4d"/><path id="bh" d="m386.57 531.8v1h1v-1zm1 1v1h1v-1z" fill="#4d4d4d"/></g><g id="bi" transform="matrix(.49579 0 0 .49579 -186.49 -243.16)"><rect id="bj" x="386.57" y="503.8" width="20" height="17" fill="#fff" fill-opacity=".78431"/><path id="bk" d="m387.57 504.8v4h4.1667v-3h-1.0417l-1.0417-1z" fill="#3580ca"/><path id="bl" d="m395.57 504.8v5h4v-3l-2-2z" fill="#f95"/><path id="bm" d="m397.57 504.8 2 2h-2z" fill="#d45500" fill-rule="evenodd"/><path id="bn" d="m387.57 505.8h5v4h-5z" fill="#7aabdc"/><path id="bo" d="m401.57 504.8v5h4v-3l-2-2z" fill="#71c837"/><path id="bp" d="m403.57 504.8 2 2h-2z" fill="#447821" fill-rule="evenodd"/></g><path id="bq" d="m23.869 13.679a7.7507 7.7507 0 0 1-7.7507 7.7507 7.7507 7.7507 0 0 1-7.7507-7.7507 7.7507 7.7507 0 0 1 7.7507-7.7507 7.7507 7.7507 0 0 1 7.7507 7.7507z" fill="#da4453" stroke-width=".77507"/></svg>
