<?xml version="1.0" encoding="UTF-8"?>
<svg version="1.1" viewBox="0 0 48 48" xmlns="http://www.w3.org/2000/svg" xmlns:xlink="http://www.w3.org/1999/xlink"><defs><linearGradient id="b"><stop stop-opacity=".14902" offset="0"/></linearGradient><linearGradient id="c" x1="65.818" x2="-17.818" y1="1150.8" y2="1067.6" gradientTransform="matrix(.95652 0 0 1.1538 1.0435 -1253.9)" gradientUnits="userSpaceOnUse"><stop stop-color="#1e2124" offset="0"/><stop stop-color="#606a6c" offset="1"/></linearGradient><linearGradient id="d" x1="-56" x2="-56" y1="1124.9" y2="1118.9" gradientTransform="matrix(1 0 0 .66666 80 -706.9)" gradientUnits="userSpaceOnUse" xlink:href="#b"/><linearGradient id="e" x1="27" x2="27" y1="50" y2="54" gradientTransform="translate(-3,-8)" gradientUnits="userSpaceOnUse"><stop stop-color="#51595b" offset="0"/><stop stop-color="#777c81" offset="1"/></linearGradient><linearGradient id="a"><stop offset="0"/><stop stop-opacity="0" offset="1"/></linearGradient><linearGradient id="m" x1="111.56" x2="123.56" y1="45.061" y2="57.061" gradientTransform="translate(-96,-14)" gradientUnits="userSpaceOnUse" xlink:href="#a"/><linearGradient id="l" x1="125.44" x2="133.56" y1="35" y2="35" gradientTransform="translate(-106,-14)" gradientUnits="userSpaceOnUse"><stop stop-color="#2980b9" offset="0"/></linearGradient><linearGradient id="k" x1="115.5" x2="119.5" y1="39" y2="35" gradientTransform="translate(-96,-14)" gradientUnits="userSpaceOnUse" xlink:href="#a"/><linearGradient id="j" x1="111.56" x2="124.56" y1="45.061" y2="58.061" gradientTransform="translate(-87.561 -10.061)" gradientUnits="userSpaceOnUse" xlink:href="#a"/><linearGradient id="i" x1="131" x2="109.44" y1="49" y2="30.939" gradientTransform="translate(-96,-14)" gradientUnits="userSpaceOnUse"><stop stop-color="#3498db" offset="0"/><stop stop-color="#3daee9" offset="1"/></linearGradient><linearGradient id="g" x1="-36" x2="-36" y1="1115.4" y2="1108.4" gradientTransform="matrix(1 0 0 .57143 60 -627.35)" gradientUnits="userSpaceOnUse"><stop stop-color="#95a5a6" offset="0"/><stop stop-color="#bdc3c7" offset="1"/></linearGradient><linearGradient id="h" x1="96" x2="144" y1="21" y2="21" gradientTransform="translate(-96 -14)" gradientUnits="userSpaceOnUse"><stop stop-color="#fff" stop-opacity=".14902" offset="0"/></linearGradient><linearGradient id="f" x1="-60" x2="-12" y1="1114.4" y2="1114.4" gradientTransform="translate(60 -1105.4)" gradientUnits="userSpaceOnUse" xlink:href="#b"/></defs><rect x="2" y="10" width="44" height="30" fill="url(#c)" style="paint-order:markers stroke fill"/><rect y="40" width="48" height="2" rx="1" ry="1" fill="#9ea8aa" style="paint-order:markers stroke fill"/><path d="m0.15234 40.5c-0.08807 0.149-0.15234 0.314-0.15234 0.5 0 0.554 0.446 1 1 1h46c0.554 0 1-0.446 1-1 0-0.186-0.0643-0.351-0.15234-0.5-0.17375 0.294-0.48003 0.5-0.84766 0.5h-46c-0.36763 0-0.67391-0.206-0.84766-0.5z" fill="url(#d)" style="paint-order:markers stroke fill"/><path d="m19 42h10l-2 2h-6z" fill="url(#e)" fill-rule="evenodd" style="paint-order:markers stroke fill"/><path d="m27.561 19.061-12 12 12 12 2.25-2.25-5.8106-5.8105 11-3 1.8106 1.8105 2.75-2.75z" fill="url(#m)" opacity=".15" style="paint-order:markers stroke fill"/><path d="m26.5 18-6 6" fill="#2980b9" stroke="url(#l)" stroke-width="3"/><path d="m23.5 21-3 3" fill="none" opacity=".5" stroke="url(#k)" stroke-width="3"/><path d="m24 35 11-3 13 13-11 3z" fill="url(#j)" opacity=".15" style="paint-order:markers stroke fill"/><path d="m14.5 18 6 6-6 6m9.5 3.5h11" fill="none" stroke="url(#i)" stroke-width="3"/><rect y="6" width="48" height="4" rx="1" ry="1" fill="url(#g)" style="paint-order:markers stroke fill"/><path d="m0 8v1c0 0.554 0.446 1 1 1h46c0.554 0 1-0.446 1-1v-1c0 0.554-0.446 1-1 1h-46c-0.554 0-1-0.446-1-1z" fill="url(#f)" style="paint-order:markers stroke fill"/><path d="m1 6c-0.554 0-1 0.446-1 1v1c0-0.554 0.446-1 1-1h46c0.554 0 1 0.446 1 1v-1c0-0.554-0.446-1-1-1z" fill="url(#h)" style="paint-order:markers stroke fill"/></svg>
