<?xml version="1.0" encoding="UTF-8"?>
<svg id="bb" version="1.1" viewBox="0 0 256 256" xmlns="http://www.w3.org/2000/svg" xmlns:xlink="http://www.w3.org/1999/xlink"><defs id="bc"><linearGradient id="y"><stop id="bd" offset="0"/><stop id="be" stop-opacity="0" offset="1"/></linearGradient><linearGradient id="a"><stop id="bf" stop-color="#fff" offset="0"/><stop id="bg" stop-color="#fff" stop-opacity="0" offset="1"/></linearGradient><linearGradient id="aa"><stop id="bh" stop-color="#13191b" stop-opacity="0" offset="0"/><stop id="bi" stop-color="#13191b" stop-opacity="0" offset=".93115"/><stop id="bj" stop-color="#00385c" offset="1"/></linearGradient><linearGradient id="ab"><stop id="bk" stop-color="#1c2e37" offset="0"/><stop id="bl" stop-color="#2d627b" offset=".23636"/><stop id="bm" stop-color="#357c9d" offset=".59328"/><stop id="bn" stop-color="#9fcce0" offset=".87063"/><stop id="bo" stop-color="#3e97bf" offset=".90455"/><stop id="bp" stop-color="#9ecbdf" offset=".94467"/><stop id="bq" stop-color="#fff" offset="1"/></linearGradient><linearGradient id="e"><stop id="br" stop-color="#5f5f5f" offset="0"/><stop id="bs" stop-color="#7b7b7b" offset=".007761"/><stop id="bt" stop-color="#bcbcbc" offset=".015522"/><stop id="bu" stop-color="#7b7b7b" offset=".11589"/><stop id="bv" stop-color="#7b7b7b" offset="1"/></linearGradient><filter id="az" x="-.0012098" y="-.037402" width="1.0024" height="1.0748"><feGaussianBlur id="bw" stdDeviation="0.12127985"/></filter><filter id="ay" x="-.006063" y="-.10531" width="1.0121" height="1.2106"><feGaussianBlur id="bx" stdDeviation="0.60884365"/></filter><filter id="ax" x="-.0025824" y="-.0059433" width="1.0052" height="1.0119"><feGaussianBlur id="by" stdDeviation="0.22782686"/></filter><filter id="g" x="-.1337" y="-.040098" width="1.2674" height="1.0802"><feGaussianBlur id="bz" stdDeviation="0.15611451"/></filter><filter id="aw" x="-.011607" y="-.029137" width="1.0232" height="1.0583"><feGaussianBlur id="ca" stdDeviation="1.1655001"/></filter><filter id="av" x="-.037339" y="-.57598" width="1.0747" height="2.152"><feGaussianBlur id="cb" stdDeviation="3.9878742"/></filter><clipPath id="ba"><path id="cc" d="m43.188 935.36c-3.2284 0-6.1583 0.95893-6.5625 2.1562l-29.594 87.687c-0.014653 0.043-0.025853 0.082-0.03125 0.125-0.0013 0.01 7.718e-4 0.021 0 0.031v0.063l0.03125 13.531c-0.40422 1.3274 2.7633 2.4063 7.0938 2.4063h226.75c4.3305 0 7.4924-1.0789 7.0938-2.4063l0.03125-13.531c6.6e-4 -0.02 1e-3 -0.042 0-0.063-4e-3 -0.053-0.0133-0.1024-0.0313-0.1563l-29.188-87.687c-0.39872-1.1973-3.3341-2.1562-6.5625-2.1562h-169.03z" fill="url(#ae)"/></clipPath><linearGradient id="ae" x1="7" x2="135" y1="986.36" y2="986.36" gradientUnits="userSpaceOnUse" xlink:href="#e" spreadMethod="reflect"/><linearGradient id="ad" x1="7" x2="128.02" y1="986.36" y2="986.36" gradientUnits="userSpaceOnUse" spreadMethod="reflect"><stop id="cd" stop-color="#5f5f5f" offset="0"/><stop id="ce" stop-color="#7b7b7b" offset=".0015522"/><stop id="cf" stop-color="#b8b8b8" offset=".015522"/><stop id="cg" stop-color="#7b7b7b" offset=".069019"/><stop id="ch" stop-color="#7b7b7b" offset="1"/></linearGradient><linearGradient id="ac" x1="-98.955" x2="160" y1="1071.9" y2="922.36" gradientUnits="userSpaceOnUse"><stop id="ci" stop-color="#656565" offset="0"/><stop id="cj" stop-color="#c8c8c3" offset="1"/></linearGradient><radialGradient id="w" cx="70" cy="957.79" r="120.5" fx="2.5" gradientTransform="matrix(1 0 0 .38174 0 606.73)" gradientUnits="userSpaceOnUse"><stop id="ck" stop-color="#fff" offset="0"/><stop id="cl" stop-color="#fff" stop-opacity="0" offset="1"/></radialGradient><radialGradient id="v" cx="246.39" cy="231.33" r="2.2148" gradientTransform="matrix(1.9453 0 0 1.4251 -232.92 697.7)" gradientUnits="userSpaceOnUse" xlink:href="#a"/><radialGradient id="u" cx="246.39" cy="231.33" r="2.2148" gradientTransform="matrix(1.9453 0 0 1.4251 -232.92 -98.667)" gradientUnits="userSpaceOnUse" xlink:href="#a"/><radialGradient id="t" cx="127.05" cy="958.19" r="107.91" gradientTransform="matrix(.99484 0 0 .36797 1.2551 606.48)" gradientUnits="userSpaceOnUse" xlink:href="#e"/><radialGradient id="s" cx="132.47" cy="998.66" r="107.35" gradientTransform="matrix(1.26 -.34466 .14342 .52433 -179.5 491.05)" gradientUnits="userSpaceOnUse"><stop id="cm" stop-color="#23343f" offset="0"/><stop id="cn" stop-color="#0d2024" offset="1"/></radialGradient><filter id="ag" x="-.018013" y="-.048404" width="1.036" height="1.0968"><feGaussianBlur id="co" stdDeviation="1.7541388"/></filter><radialGradient id="j" cx="8.6558" cy="285.18" r="119.15" gradientTransform="matrix(1 0 0 .40031 .045339 895.18)" gradientUnits="userSpaceOnUse"><stop id="cp" stop-opacity="0" offset="0"/><stop id="cq" stop-opacity="0" offset="1"/></radialGradient><radialGradient id="i" cx="8.6558" cy="284.43" r="119.65" gradientTransform="matrix(1 0 0 .40282 .045339 894.77)" gradientUnits="userSpaceOnUse"><stop id="cr" stop-color="#fff" offset="0"/><stop id="cs" stop-color="#fff" stop-opacity="0" offset="1"/></radialGradient><linearGradient id="x" x1="59.865" x2="126.38" y1="233.38" y2="132.09" gradientUnits="userSpaceOnUse"><stop id="ct" stop-color="#fff" offset="0"/><stop id="cu" stop-color="#fff" stop-opacity="0" offset="1"/></linearGradient><filter id="af" x="-.00016186" y="-.00028698" width="1.0003" height="1.0006"><feGaussianBlur id="cv" stdDeviation="0.15038113"/></filter><filter id="aj" x="-.01777" y="-.048027" width="1.0358" height="1.1006"><feGaussianBlur id="cw" stdDeviation="1.4934987"/></filter><filter id="ai" x="-.0081408" y="-.022967" width="1.0163" height="1.0459"><feGaussianBlur id="cx" stdDeviation="0.7225"/></filter><radialGradient id="k" cx="128" cy="999.86" r="103" gradientTransform="matrix(1 0 0 .073598 0 925.77)" gradientUnits="userSpaceOnUse"><stop id="cy" stop-color="#fff" offset="0"/><stop id="cz" stop-color="#fff" stop-opacity="0" offset="1"/></radialGradient><filter id="ah" x="-.024069" y="-.063044" width="1.0481" height="1.1261"><feGaussianBlur id="da" stdDeviation="2.4298161"/></filter><linearGradient id="z" x1="2227.1" x2="2231.8" y1="-1248.2" y2="-1249" gradientUnits="userSpaceOnUse"><stop id="db" stop-color="#fff" offset="0"/><stop id="dc" stop-color="#fff" stop-opacity="0" offset="1"/></linearGradient><filter id="au" x="-.043392" y="-.070554" width="1.0868" height="1.1411"><feGaussianBlur id="dd" stdDeviation="0.97179409"/></filter><filter id="at" x="-.028111" y="-.118" width="1.0562" height="1.236"><feGaussianBlur id="de" stdDeviation="0.67790362"/></filter><filter id="as" x="-.034795" y="-.044152" width="1.0696" height="1.0883"><feGaussianBlur id="df" stdDeviation="0.55410591"/></filter><filter id="ar" x="-.038318" y="-.081547" width="1.0766" height="1.1631"><feGaussianBlur id="dg" stdDeviation="0.92575109"/></filter><filter id="aq" x="-.026994" y="-.12989" width="1.054" height="1.2598"><feGaussianBlur id="dh" stdDeviation="0.6128699"/></filter><filter id="ap" x="-.011569" y="-.061207" width="1.0231" height="1.1224"><feGaussianBlur id="di" stdDeviation="0.26265853"/></filter><radialGradient id="r" cx="127.94" cy="69.43" r="3.2178" gradientTransform="matrix(1.6905 0 0 .99884 -88.031 825.6)" gradientUnits="userSpaceOnUse" xlink:href="#a"/><radialGradient id="q" cx="127.94" cy="69.43" r="3.2178" gradientTransform="matrix(3.6803 0 0 2.2069 -342.52 683.5)" gradientUnits="userSpaceOnUse" xlink:href="#a"/><filter id="ao" x="-.020537" y="-.086212" width="1.0411" height="1.1724"><feGaussianBlur id="dj" stdDeviation="0.49526729"/></filter><filter id="an" x="-.036494" y="-.20665" width="1.073" height="1.4133"><feGaussianBlur id="dk" stdDeviation="0.81789905"/></filter><filter id="am" x="-.017849" y="-.064392" width="1.0357" height="1.1288"><feGaussianBlur id="dl" stdDeviation="0.40894953"/></filter><radialGradient id="b" cx="-397.88" cy="-33.375" r="8.125" fx="-398.08" fy="-37.762" gradientUnits="userSpaceOnUse" xlink:href="#aa"/><radialGradient id="d" cx="-397.83" cy="-35.165" r="8.125" fx="-398.03" fy="-42.268" gradientTransform="matrix(1.0562 -6.0583e-8 4.6889e-8 .81746 22.373 -6.4053)" gradientUnits="userSpaceOnUse" xlink:href="#ab"/><radialGradient id="p" cx="128.31" cy="929.45" r="19.882" fx="128.67" fy="919.9" gradientTransform="matrix(1.6267 0 0 2.4298 -80.56 -1330.9)" gradientUnits="userSpaceOnUse"><stop id="dm" offset="0"/><stop id="dn" stop-color="#2f4a58" offset="1"/></radialGradient><radialGradient id="o" cx="128.61" cy="158.18" r="25.755" fx="128.96" fy="137.42" gradientTransform="matrix(1 2.5362e-7 -2.5188e-7 .99314 3.9843e-5 -1.2405)" gradientUnits="userSpaceOnUse"><stop id="do" offset="0"/><stop id="dp" stop-color="#5b91ac" stop-opacity="0" offset="1"/></radialGradient><radialGradient id="n" cx="129.75" cy="153.82" r="28.991" fy="133.43" gradientTransform="matrix(1 0 0 .5 0 76.912)" gradientUnits="userSpaceOnUse"><stop id="dq" stop-color="#0d2024" offset="0"/><stop id="dr" stop-color="#1d363e" offset=".69463"/><stop id="ds" stop-color="#2e4c59" offset="1"/></radialGradient><radialGradient id="m" cx="129.75" cy="153.82" r="28.991" fy="133.43" gradientTransform="matrix(1 0 0 .5 0 76.912)" gradientUnits="userSpaceOnUse"><stop id="dt" stop-color="#0d2024" offset="0"/><stop id="du" stop-color="#1d363e" offset=".67978"/><stop id="dv" stop-color="#2e4c59" offset="1"/></radialGradient><filter id="al" x="-.011371" y="-.062811" width="1.0227" height="1.1256"><feGaussianBlur id="dw" stdDeviation="0.24427821"/></filter><filter id="f" x="-.01449" y="-.030148" width="1.029" height="1.0603"><feGaussianBlur id="dx" stdDeviation="0.35008149"/></filter><radialGradient id="l" cx="127.39" cy="179.2" r="31.15" fx="127.04" fy="190.19" gradientTransform="matrix(.68077 -.010914 .0038422 .25577 40.592 116.57)" gradientUnits="userSpaceOnUse"><stop id="dy" stop-color="#72afc2" offset="0"/><stop id="dz" stop-color="#72afc2" stop-opacity="0" offset="1"/></radialGradient><radialGradient id="c" cx="129.75" cy="53.375" r="2.25" gradientTransform="matrix(1.4097 0 0 1 -53.152 0)" gradientUnits="userSpaceOnUse" xlink:href="#y"/><clipPath id="h"><path id="ea" transform="matrix(.55088 0 0 .74447 348.84 72.651)" d="m-389.75-33.375a8.125 8.125 0 1 1-16.25 0 8.125 8.125 0 1 1 16.25 0z" fill="url(#b)" fill-rule="evenodd" opacity=".35359"/></clipPath><filter id="ak" x="-.10521" y="-.10521" width="1.2104" height="1.2104"><feGaussianBlur id="eb" stdDeviation="0.19727146"/></filter></defs><g id="ec" transform="translate(0 -796.36)"><g id="ed" transform="translate(0,-21)"><path id="ee" d="m36.63 948.02-29.595 91.678c-0.40422 1.1973 2.7566 2.1612 7.0871 2.1612h226.75c4.3305 0 7.4956-0.9639 7.097-2.1612l-29.197-91.678c-0.38295-1.2025-3.3185-2.1612-6.5469-2.1612h-169.04c-3.2284 0-6.1525 0.96393-6.5568 2.1612" fill="#000" filter="url(#aw)"/><path id="ef" d="m34.63 952.02-28.195 87.178c-0.40422 1.1973 3.3566 3.1612 7.6871 3.1612h226.75c4.3305 0 8.1956-1.6639 7.797-2.8612l-26.897-87.478c-0.37089-1.2062-3.3185-2.1612-6.5469-2.1612h-174.04c-3.2284 0-6.1525 0.96393-6.5568 2.1612" fill="#000" filter="url(#ah)"/><path id="eg" d="m36.63 937.76-29.63 87.604 0.034822 13.604c-0.40422 1.3274 2.7566 2.3961 7.0871 2.3961h226.75c4.3305 0 7.4956-1.0687 7.097-2.3961l0.0339-13.604-5.021-7.0001-24.21-80.604c-0.39872-1.3275-3.3185-2.3962-6.5469-2.3962h-169.04c-3.2284 0-6.1525 1.0687-6.5568 2.3962" fill="url(#ad)"/><path id="eh" d="m36.63 937.52s-29.595 87.678-29.595 87.678c-0.40422 1.1973 2.7566 2.1612 7.0871 2.1612h226.75c4.3305 0 7.4956-0.9639 7.097-2.1612 0 0-29.197-87.678-29.197-87.678-0.39872-1.1973-3.3185-2.1612-6.5469-2.1612h-169.04c-3.2284 0-6.1525 0.96393-6.5568 2.1612" fill="url(#ac)"/><path id="ei" d="m36.63 937.52-29.595 87.678c0.26077 0.767 3.0643 1.9621 7.0871 2.1612 57.136-26.26 167.74-75.386 204.65-89.839-0.39872-1.1973-3.3185-2.1612-6.5469-2.1612h-169.04c-3.2284 0-6.1525 0.96393-6.5568 2.1612" fill="url(#w)" filter="url(#ax)" opacity=".23504"/><g id="ej" clip-path="url(#ba)"><path id="ek" d="m7.25 1025.2c-0.045277 0.1293 0.029093 0.5408-0.03125 0.4063 0.03986 0.099 0.14551 0.1985 0.28125 0.3124 0.12817 0.1076 0.23599 6.956 0.44997 7.0621 0.23924 0.1186-0.14477-6.8166 0.92503-6.4058 1.2519 0.3801 3.0999 0.5937 5.25 0.5937h226.75c1.6894 0 3.2776-0.1506 4.4512-0.3911 0.32004-0.066 0.76073 5.5884 1.0288 5.5069 0.31793-0.097 0.36759-5.9147 0.60148-6.0285 0.22634-0.1101 0.40979-0.2248 0.54348-0.3369 0.13592-0.1139 0.24103-0.2127 0.28125-0.3124 0.0402-0.1 0.0357-0.2053 0-0.3126l-0.0313-0.094c-0.47087 0.4071-1.2313 0.702-2.2812 0.9375-1.2355 0.2771-2.8219 0.4688-4.5938 0.4688h-226.75c-1.7719 0-3.3578-0.1917-4.5938-0.4688-1.0504-0.2355-1.8114-0.53-2.2812-0.9375z" fill="#fff" filter="url(#az)" opacity=".52709"/><path id="el" d="m7.1562 1024.8-0.125 0.375c-0.10309 0.3053 0.026128 0.5952 0.34769 0.8576 0.28306 0.231 0.16272 12.462 0.71661 12.642 0.42892 0.1396 1.4833-11.759 2.0457-11.659 1.1213 0.2005 2.4827 0.3157 3.9838 0.3157h226.75c1.204 0 1.1686 0.059 2.1405-0.074 0.79352-0.1084 2.951 10.936 3.5276 10.758 0.37822-0.1168 0.39438-11.572 0.65933-11.713 0.6158-0.3274 0.9043-0.7132 0.76634-1.1276l-0.125-0.375c-0.69344 0.8809-3.4502 1.5313-6.9688 1.5313h-226.75c-3.5185 0-6.2794-0.6504-6.9688-1.5313z" fill="#fff" filter="url(#ay)" opacity=".52709"/><rect id="em" x="-1.7678" y="1037.7" width="256.33" height="16.617" rx="5.0508" ry="5.0508" fill="#fff" filter="url(#av)" opacity=".60684"/><path id="en" d="m242.81 1027.1c0.0837 0 4.5258-0.8341 4.5258-0.8341s-0.72204 0.042-0.79754 0.6688c-0.18898 1.5679 0.4306 8.5677-0.0504 8.6752-0.0817 0.018-1.3015-8.6312-1.3015-8.6312z" fill="url(#v)" filter="url(#g)"/><path id="eo" transform="matrix(-1 0 0 1 254.76 796.36)" d="m244.53 230.74c0.0837 0 2.8023-0.87832 2.8023-0.87832s-0.21381 0.92628-0.28931 1.5527c-0.18898 1.5679 0.0991 8.855-0.38185 8.9625-0.0817 0.0183-0.68816-9.8251-0.68816-9.8251z" fill="url(#u)" filter="url(#g)"/></g></g><path id="ep" d="m46.769 919.99-26.457 77.226c-0.19856 0.56721 1.2763 1.2812 3.0902 1.2438h208.39c2.0093 0.0413 3.3883-0.6766 3.1897-1.2438l-24.426-77.226c-0.13052-0.36761-0.51164-0.63052-0.90158-0.62189h-160.99c-0.88506 0-1.7682 0.34496-1.8964 0.62189z" fill="url(#s)"/><path id="eq" d="m48.666 919.36c-0.88506 0-1.7682 0.34188-1.8964 0.61634l-26.257 77.72c-0.07694 0.21783 0.08728 0.46824 0.43524 0.67797l25.821-76.426c0.12822-0.27446 1.0114-0.61633 1.8964-0.61633h160.99c0.38994-9e-3 0.77106 0.25201 0.90158 0.61633l23.99 75.926c0.3417-0.2102 0.51219-0.46014 0.43525-0.67797l-24.426-77.22c-0.13052-0.36433-0.51164-0.62487-0.90158-0.61634h-160.99z" fill="url(#t)"/><path id="er" transform="translate(-315.69 .9)" d="m363 919.86-26 75.5h2.1875l24.688-72.375c0.12662-0.27349 3.0009-0.625 3.875-0.625h155c0.38509-9e-3 2.7461 0.26195 2.875 0.625l22.75 72.375h1.625l-24-75.5z" fill="#000" filter="url(#ai)" opacity=".85"/><path id="es" transform="translate(0 796.36)" d="m37.598 123.71-25.635 74.977c-0.9318 2.9508-4.3016 9.556-1.0581 9.2593l228.8 0.32322 3.5355-4.2426-23.335-73.539 18.031 70.711v3.8891l-218.43-1.7071c-2.2335-0.59208-1.6975-2.3814-1.1857-4.3462l25.163-77.739-5.8891 2.4142z" fill="url(#x)" filter="url(#ag)" opacity=".50495"/><path id="et" transform="matrix(2.6115 0 0 2.4168 -210.46 585.65)" d="m158.75 153.82c0 8.0058-12.98 14.496-28.991 14.496s-28.991-6.4899-28.991-14.496c0-8.0057 12.98-13.374 28.991-13.374s28.991 5.368 28.991 13.374z" fill="url(#n)" fill-rule="evenodd" filter="url(#f)" opacity=".75138"/><path id="eu" transform="matrix(2.6017 0 0 2.4078 -209.19 586.92)" d="m158.75 153.82c0 8.0058-12.98 14.496-28.991 14.496s-28.991-6.4899-28.991-14.496c0-8.0057 12.98-13.374 28.991-13.374s28.991 5.368 28.991 13.374z" fill="url(#l)" fill-rule="evenodd" filter="url(#f)" opacity=".75138"/><path id="ev" d="m28.143 944.57-13.867 52.193c-0.9318 2.9508-1.8293 6.1303 1.4142 5.8336l224.06 2.033 3.5355-4.2427-23.335-73.539 18.031 70.711v3.8891l-219.56-0.7071c-2.2335-0.5921-2.5448-2.7198-2.0329-4.6846l15.635-52.9-3.8891 1.4142z" fill="url(#i)" filter="url(#aj)" opacity=".54709" stroke="url(#j)" stroke-linejoin="miter" stroke-width="1px"/><rect id="ew" x="879.51" y="688.14" width="0" height="3.25" rx=".33307" ry=".39775" fill="#fff" opacity=".76779"/><g id="ex" transform="matrix(.048317 0 0 .048317 888 512.3)" fill="#fff" opacity=".3624"></g><g id="ey" transform="matrix(.048317 0 0 .048317 888 517.32)" fill="#fff" opacity=".3624"></g><g id="ez" transform="matrix(.048317 0 0 .048317 888 522.35)" fill="#fff" opacity=".3624"></g><rect id="fa" x="25" y="998.46" width="206" height="1.7996" fill="url(#k)" opacity=".69802"/><path id="fb" transform="translate(.99619 -.63314)" d="m2227.5-1257.6c-0.1292-0.013-0.2456 0.029-0.375 0.094a0.15089 0.15089 0 0 0-0.031 0 0.15089 0.15089 0 0 0-0.031 0.031 0.15089 0.15089 0 0 0 0 0.031 0.15089 0.15089 0 0 0-0.031 0.031 0.15089 0.15089 0 0 0 0 0.031c1.0455 15.272 1.1987 23.272 1.0938 27.437-0.052 2.0825-0.1473 3.2141-0.25 3.8126-0.021 0.1229-0.044 0.1368-0.063 0.2187-0.269-0.8624-0.4842-2.2977-0.625-4.125-0.1659-2.1532-0.2426-4.8018-0.2813-7.6563-0.077-5.7089 0.023-12.17 0.031-16.719a0.15089 0.15089 0 0 0 0-0.031 0.15089 0.15089 0 0 0-0.031-0.031 0.15089 0.15089 0 0 0 0-0.031 0.15089 0.15089 0 0 0-0.031-0.031 0.15089 0.15089 0 0 0-0.031 0 0.15089 0.15089 0 0 0-0.031-0.031 0.15089 0.15089 0 0 0-0.031 0 0.15089 0.15089 0 0 0-0.031 0 0.15089 0.15089 0 0 0-0.031 0.031 0.15089 0.15089 0 0 0-0.031 0c-0.065 0.061-0.094 0.1613-0.125 0.25-0.031 0.089-0.069 0.184-0.094 0.3125-0.049 0.257-0.091 0.5831-0.125 1-0.069 0.8338-0.1049 1.9975-0.125 3.3438-0.04 2.6924 0.011 6.2031 0.125 9.7812 0.1138 3.5781 0.2814 7.1979 0.5 10.094 0.1092 1.4479 0.2485 2.7337 0.375 3.7187 0.1264 0.985 0.2522 1.6718 0.4062 2.0313l0.125-0.063c0.048 0.065 0.081 0.1297 0.094 0.125 0.024-0.01 0.053-0.015 0.094-0.031 0.082-0.032 0.1998-0.068 0.3125-0.125s0.2141-0.1362 0.3125-0.2188c0.098-0.082 0.1986-0.1723 0.2187-0.3124 0.7795-5.4137 1.1462-13.579 1-20.406-0.073-3.4136-0.2725-6.4984-0.625-8.75-0.1762-1.1258-0.3984-2.0322-0.6562-2.6875-0.1289-0.3276-0.2454-0.5882-0.4062-0.7812-0.1609-0.1931-0.3776-0.3264-0.5938-0.3438z" fill="url(#z)" fill-rule="evenodd" filter="url(#af)"/><g id="fc" transform="translate(1093.2 567.1)"></g><path id="fd" transform="matrix(2.9064 0 0 -2.926 -244.76 3741.5)" d="m102.37 953.28c3.1406 6.6621 13.531 9.3338 25.441 9.3338 14.739 0 23.488-3.328 26.117-8.6562-5.268 9.9492-42.674 12.396-51.558-0.67766z" fill="#000" fill-opacity=".875" fill-rule="evenodd" filter="url(#al)"/><path id="fe" transform="matrix(2.5966 0 0 2.1742 -205.09 -1104.2)" d="m100.83 953.28c4.3281 6.4739 14.646 9.9304 26.071 10.369 0.40664 0.0156 0.86282 0.94725 1.272 0.95519 0.42824 9e-3 0.78838-0.91015 1.1865-0.91029 13.063-0.0518 22.689-4.9784 25.961-9.7358-3.7656 5.7917-15.007 8.9426-26.544 8.9882-0.18723 7.4e-4 -0.37451-4.2679-0.56181-4.2688-0.18729-9e-4 -0.3746 4.266-0.5619 4.2634-11.18-0.15164-22.418-3.231-26.822-9.6604z" fill="#000" fill-opacity=".875" fill-rule="evenodd" filter="url(#aq)" opacity=".89503"/><path id="ff" transform="matrix(2.5966 0 0 2.1742 -205.09 -1107)" d="m100.83 953.28c4.4822 6.7043 15.075 10.058 26.982 10.289 13.69 0.26589 24.134-4.7052 27.508-9.6112-7.5353 11.59-45.393 12.605-54.49-0.67766z" fill="#5e889d" fill-rule="evenodd" filter="url(#ap)" opacity=".89503"/><path id="fg" transform="matrix(1.7298 0 0 1.3616 -96.149 744.07)" d="m158.75 153.82c0 8.0058-12.98 14.496-28.991 14.496s-28.991-6.4899-28.991-14.496c0-8.0057 12.98-12.75 28.991-12.75s28.991 4.7442 28.991 12.75z" fill="url(#m)" fill-rule="evenodd" filter="url(#ar)"/><path id="fh" transform="matrix(1.7159 0 0 1.3369 -92 -314.34)" d="m128.22 934.36c-15.987 0-28.957 5.937-28.957 13.25 0 0.18834 0.02139 0.35125 0.03846 0.53767 0.77528-6.9961 13.432-12.558 28.919-12.558s28.105 5.5624 28.881 12.558c0.017-0.18642 0.0385-0.34933 0.0385-0.53767 0-7.3128-12.932-13.25-28.919-13.25z" fill="#598195" fill-rule="evenodd" filter="url(#ao)" opacity=".50276"/><path id="fi" transform="matrix(1.6688 0 0 1.3973 -85.957 -373.17)" d="m155.34 953.17c-2.4842 4.792-14.121 6.9911-25.667 7.2283-2.3389-1.0591-1.4494-0.22922-2.9934-0.0149-11.251-0.34396-22.562-2.4754-25.035-7.1665-0.015 0.15429-0.047 0.31287-0.047 0.46875 0 6.0044 12.902 8.9832 26.595 8.9832 13.693 0 27.194-2.9789 27.194-8.9832 0-0.17127-0.0289-0.34629-0.047-0.51563z" fill="#74cbf8" fill-rule="evenodd" filter="url(#an)" opacity=".50276"/><path id="fj" transform="matrix(1.6688 0 0 1.3973 -85.957 -373.17)" d="m155.94 952.44c-2.4842 4.792-14.719 8.6596-26.266 8.6596-1.3846 0-1.1892-8.7446-1.5929-8.7446-0.60149 0-0.11994 8.7689-1.4005 8.7297-11.251-0.34398-23.161-3.9068-25.634-8.5978-0.015 0.15429-0.047 0.31287-0.047 0.46875 0 5.4237 11.653 9.7256 23.876 10.472 1.3085 0.0799 1.2826 4.1692 3.3184 4.1692 1.8276 0 2.1232-4.132 3.9346-4.1876 11.436-0.35046 23.859-5.251 23.859-10.454 0-0.17127-0.0289-0.34629-0.047-0.51563z" fill="#000" fill-opacity=".91912" fill-rule="evenodd" filter="url(#am)" opacity=".50276"/><path id="fk" transform="matrix(1.7159 0 0 1.3369 -92 -313.51)" d="m128.22 934.36c-15.987 0-28.957 5.937-28.957 13.25 0 0.18834 0.02139 0.35125 0.03846 0.53767 0.77528-6.9961 13.432-12.558 28.919-12.558s28.105 5.5624 28.881 12.558c0.017-0.18642 0.0385-0.34933 0.0385-0.53767 0-7.3128-12.932-13.25-28.919-13.25z" fill="#000" fill-rule="evenodd" filter="url(#at)" opacity=".50276"/><path id="fl" transform="matrix(1.3674 0 0 1.1449 -47.349 780.08)" d="m128.69 132.96c-8.2948 7.7465-14.282 18.249-26.298 21.552l4.3776 6.0256 9.1924 4.0659 10.96 1.4142 9.8995-1.0607 10.076-2.4749 9.2437-6.4571c-13.206-3.1682-18.901-14.708-27.452-23.065z" fill="url(#o)" filter="url(#au)"/><path id="fm" transform="matrix(.92871 0 0 1.2587 8.9992 -241.54)" d="m128.31 920.29c0 9.923-7.5973 20.929-18.108 26.807-0.77443 0.43305-1.501 1.1414-0.54747 2.1585 1.0377 1.1069 3.81 1.5107 4.464 0.80015 6.0686-6.594 10.214-16.466 14.192-16.55 3.9777 0.0848 8.0813 9.9564 14.15 16.55 0.65394 0.71056 3.4683 0.30676 4.5061-0.80015 0.9535-1.017 0.22696-1.6254-0.54747-2.0585-10.511-5.8776-18.108-16.984-18.108-26.907z" fill="#b0c9d6" filter="url(#as)" opacity=".23204"/><path id="fn" d="m128.16 900.91c0 12.83-9.1506 42.249-18.912 49.848-0.71922 0.55991-1.394 2.7687-0.50844 4.0837 0.96375 1.4312 3.5384 1.9532 4.1457 1.0345 5.636-8.5256 11.581-23.549 15.275-23.658 3.6942 0.10964 9.6001 15.133 15.236 23.658 0.60732 0.91871 3.2211 0.39662 4.1848-1.0345 0.88553-1.315 0.21078-3.5238-0.50844-4.0837-9.7619-7.5994-18.912-37.018-18.912-49.848z" fill="url(#p)"/><path id="fo" transform="matrix(1.5414 0 0 1.4956 741.45 896.38)" d="m-389.75-33.375c0 4.4873-3.6377 8.125-8.125 8.125s-8.125-3.6377-8.125-8.125 3.6377-8.125 8.125-8.125 8.125 3.6377 8.125 8.125z" fill="url(#d)" fill-rule="evenodd"/><path id="fp" transform="matrix(1.5414 0 0 1.4956 741.45 896.38)" d="m-389.75-33.375c0 4.4873-3.6377 8.125-8.125 8.125s-8.125-3.6377-8.125-8.125 3.6377-8.125 8.125-8.125 8.125 3.6377 8.125 8.125z" fill="url(#b)" fill-rule="evenodd" opacity=".35359"/><path id="fq" d="m136.31 839.53c0 2.7178-3.6742 4.921-8.2065 4.921-4.5324 0-8.2065-2.2032-8.2065-4.921 0-2.7178 3.6742-5.0978 8.2065-5.0978 4.5323 0 8.2065 2.38 8.2065 5.0978z" fill="url(#q)" fill-rule="evenodd" opacity=".78453"/><path id="fr" transform="matrix(.708 0 0 .67688 409.86 921.95)" d="m-389.75-33.375c0 4.4873-3.6377 8.125-8.125 8.125s-8.125-3.6377-8.125-8.125 3.6377-8.125 8.125-8.125 8.125 3.6377 8.125 8.125z" fill="url(#d)" fill-rule="evenodd"/><path id="fs" transform="matrix(.708 0 0 .67688 409.86 921.95)" d="m-389.75-33.375c0 4.4873-3.6377 8.125-8.125 8.125s-8.125-3.6377-8.125-8.125 3.6377-8.125 8.125-8.125 8.125 3.6377 8.125 8.125z" fill="url(#b)" fill-rule="evenodd" opacity=".35359"/><path id="ft" d="m131.91 896.22c0 1.2301-1.6876 2.2273-3.7695 2.2273-2.0818 0-3.7694-0.99719-3.7694-2.2273 0-1.2301 1.6876-2.3072 3.7694-2.3072 2.0818 0 3.7695 1.0772 3.7695 2.3072z" fill="url(#r)" fill-rule="evenodd" opacity=".78453"/><path id="fu" transform="matrix(2.7981 0 0 2.0089 -234.62 750.44)" d="m132 53.375c0 1.2426-1.0074 2.25-2.25 2.25s-2.25-1.0074-2.25-2.25 1.0074-2.25 2.25-2.25 2.25 1.0074 2.25 2.25z" clip-path="url(#h)" fill="url(#c)" fill-rule="evenodd" filter="url(#ak)" opacity=".61878"/><path id="fv" transform="matrix(1.2602 0 0 .90474 -35.19 856.09)" d="m132 53.375c0 1.2426-1.0074 2.25-2.25 2.25s-2.25-1.0074-2.25-2.25 1.0074-2.25 2.25-2.25 2.25 1.0074 2.25 2.25z" clip-path="url(#h)" fill="url(#c)" fill-rule="evenodd" opacity=".8232"/></g></svg>
