<?xml version="1.0" encoding="UTF-8"?>
<svg id="a" version="1.1" viewBox="0 0 1000 224.72" xmlns="http://www.w3.org/2000/svg"><path id="b" d="m814.19 67.389c3.8225 6.5949 5.073 14.098 5.486 22.534l0.5427 11.243v78.62l0.55449 11.255c1.109 18.381 14.665 31.972 33.187 33.128l11.196 0.55449v-123.56l0.55449-11.243c0.46011-8.341 1.6989-15.986 5.5803-22.628a44.902 44.902 0 0 1 77.747 0.14157c3.8225 6.5949 5.014 14.24 5.4742 22.486l0.55449 11.208v78.656l0.55449 11.255c1.1562 18.475 14.606 32.066 33.187 33.128l11.196 0.55449v-134.8a89.899 89.899 0 0 0-89.863-89.899 89.663 89.663 0 0 0-67.424 30.45 89.781 89.781 0 0 0-67.424-30.462c-18.664 0-35.983 5.6629-50.329 15.443-8.7539-9.7685-28.338-15.443-39.581-15.443v224.71l11.243-0.55449c18.806-1.2388 32.397-14.464 33.128-33.128l0.60168-11.255v-78.62l0.5545-11.243c0.47191-8.4826 1.6517-15.939 5.486-22.581a45.02 45.02 0 0 1 38.897-22.392 44.949 44.949 0 0 1 38.897 22.439zm-769.25 156.79 11.243 0.5427h168.53l-0.5545-11.208c-1.5219-18.475-14.606-31.972-33.14-33.175l-11.243-0.55449h-101.11l134.8-134.85-0.55449-11.196c-0.87304-18.664-14.511-32.149-33.14-33.175l-11.243-0.5073-168.53-0.04719 0.55449 11.243c1.4747 18.298 14.747 32.078 33.128 33.14l11.255 0.55449h101.11l-134.8 134.85 0.55449 11.243c1.109 18.522 14.476 31.936 33.14 33.128zm596.33-191.28a112.35 112.35 0 0 1 0 158.9 112.43 112.43 0 0 1-158.94 0c-43.876-43.876-43.876-115.03 0-158.9a112.29 112.29 0 0 1 79.399-32.904 112.37 112.37 0 0 1 79.54 32.916zm-31.795 31.818a67.448 67.448 0 0 1 0 95.349 67.448 67.448 0 0 1-95.349 0 67.448 67.448 0 0 1 0-95.349 67.448 67.448 0 0 1 95.349 0zm-283.56-64.722a112.29 112.29 0 0 1 79.399 32.916c43.888 43.864 43.888 115.03 0 158.89a112.43 112.43 0 0 1-158.94 0c-43.876-43.876-43.876-115.03 0-158.9a112.29 112.29 0 0 1 79.399-32.904zm47.604 64.699a67.448 67.448 0 0 1 0 95.361 67.448 67.448 0 0 1-95.349 0 67.448 67.448 0 0 1 0-95.349 67.448 67.448 0 0 1 95.349 0z" fill="#2d8cff" fill-rule="evenodd" stroke-width="11.798"/></svg>
