<svg version="1.1" id="Layer_1" xmlns="http://www.w3.org/2000/svg" xmlns:xlink="http://www.w3.org/1999/xlink" x="0px" y="0px"
	 width="100%" viewBox="0 0 512 512" enable-background="new 0 0 512 512" xml:space="preserve">

<path fill="#020202" opacity="1.000000" stroke="none" 
	d="
M325.371094,94.690414 
	C326.665436,111.994362 329.194000,128.930283 328.698914,145.777344 
	C328.064880,167.351791 335.002441,185.430939 347.846558,202.070450 
	C358.928406,216.426941 370.240936,230.673141 380.285553,245.745163 
	C392.581085,264.194702 401.374695,284.446289 402.362091,306.951843 
	C402.850586,318.086914 400.991730,329.325012 400.117981,341.596680 
	C409.547394,345.386993 412.341827,355.231781 414.362274,365.593689 
	C415.786316,372.896942 418.655975,379.423950 423.877380,384.991241 
	C426.560547,387.852203 428.663208,391.411011 430.422150,394.955200 
	C434.821564,403.819733 433.176300,411.123993 425.173920,416.866913 
	C420.612762,420.140259 415.556000,422.823730 410.472443,425.248871 
	C396.838928,431.752716 384.286896,439.426422 374.299042,451.229004 
	C367.241791,459.568481 357.863678,465.211548 347.132019,468.148621 
	C327.111328,473.627930 310.478241,465.000305 303.244263,444.959686 
	C286.114471,444.003998 268.737457,442.222290 251.375641,442.360168 
	C240.361221,442.447571 229.362976,445.350891 218.379410,447.127075 
	C217.462006,447.275391 216.458817,448.305054 215.922302,449.185333 
	C207.743088,462.605774 194.877457,466.189758 180.576004,464.631744 
	C171.966400,463.693817 162.971802,461.624512 155.295807,457.777710 
	C140.470093,450.347778 124.756981,447.923370 108.715752,446.094757 
	C105.423180,445.719391 102.116386,445.250854 98.897598,444.483521 
	C84.075951,440.950317 78.145767,433.351837 82.332733,418.850555 
	C85.768158,406.952240 84.938492,395.688965 83.638733,383.975281 
	C82.413200,372.930511 86.899063,363.697144 97.504562,360.769745 
	C111.590988,356.881439 119.779541,347.038055 127.761627,336.339783 
	C128.466064,335.395630 128.904724,333.901642 128.776031,332.739502 
	C126.316071,310.526611 133.087845,290.321167 142.396530,270.751404 
	C152.319229,249.890808 165.639679,231.215149 180.056473,213.254898 
	C193.744034,196.203140 200.950241,176.665176 200.926987,154.756409 
	C200.910187,138.940674 199.594666,123.101967 200.153046,107.319313 
	C200.477097,98.159767 202.385529,88.764587 205.300720,80.050781 
	C210.899933,63.314152 222.989441,52.684601 239.992065,47.781784 
	C254.487991,43.601799 269.199707,42.724689 283.878754,46.235031 
	C306.243134,51.583252 317.939880,67.419685 323.966827,88.451591 
	C324.514282,90.362152 324.835449,92.337585 325.371094,94.690414 
M177.019287,242.054291 
	C168.347809,256.123535 160.689911,270.642914 156.508606,286.786621 
	C150.084259,311.590698 157.026474,329.470886 178.516525,343.385315 
	C182.985123,346.278656 187.404953,349.282959 191.605515,352.547211 
	C200.337784,359.333130 208.382874,366.810303 213.277359,377.004822 
	C218.235077,387.330994 215.292496,396.514496 202.876099,397.521851 
	C202.629623,397.541870 202.412506,397.923431 202.155594,398.160370 
	C208.472198,408.984283 216.120544,417.964325 228.763168,422.098480 
	C257.088776,431.360992 282.536560,424.958038 306.424377,408.954468 
	C307.740479,408.072723 308.454132,406.062592 309.095367,404.438416 
	C314.840149,389.888519 313.698456,374.284637 315.926849,359.192780 
	C317.798920,346.514282 320.881622,334.572510 333.858429,328.280396 
	C334.806763,327.820557 335.464020,326.258881 335.782837,325.081238 
	C338.465759,315.171692 344.325653,310.879974 354.233917,313.546051 
	C362.160095,315.678772 369.818665,319.184326 377.187744,322.891937 
	C383.332123,325.983398 387.886322,330.866333 387.404633,339.163452 
	C388.855286,338.180328 389.914032,337.050507 390.086731,335.798492 
	C390.931885,329.671753 387.957489,324.980957 383.331421,321.646332 
	C377.302429,317.300385 370.820465,313.582855 364.418182,309.521820 
	C368.153351,281.684143 351.246979,238.871933 332.589813,231.990128 
	C352.509979,253.943237 364.741119,277.320068 356.116608,307.764038 
	C352.234863,305.550110 347.168488,308.830658 345.939270,302.500214 
	C342.745209,286.050751 336.266724,270.784088 328.988556,255.745056 
	C321.895020,241.087585 315.185577,226.213608 309.051575,211.132050 
	C304.138550,199.052444 300.340668,186.519302 296.202759,174.632355 
	C291.640869,177.601105 287.090332,180.856705 282.260681,183.625427 
	C277.088135,186.590790 271.493256,188.827698 266.363739,191.858276 
	C253.878433,199.234726 238.963669,202.224411 224.488327,187.874664 
	C221.548035,184.959869 217.818527,182.841202 213.757935,179.842300 
	C213.241898,183.903763 212.980240,186.686539 212.524155,189.437073 
	C209.227020,209.320541 201.389633,227.663834 193.575546,246.058945 
	C186.567368,262.556854 179.528900,279.090332 173.696091,296.018951 
	C170.727371,304.635040 170.381577,314.154846 168.776428,323.704498 
	C164.369339,318.045898 162.124832,311.742218 161.008530,305.017273 
	C158.384796,289.210938 162.882935,274.698273 169.405106,260.609131 
	C172.263016,254.435486 175.287262,248.338852 178.724731,241.786102 
	C178.775589,241.213348 178.826462,240.640610 178.960800,239.127853 
	C178.116455,240.485626 177.788712,241.012680 177.019287,242.054291 
M151.309738,450.160797 
	C163.808304,456.564606 176.833542,460.585754 191.110123,459.024567 
	C209.889481,456.971039 219.571381,439.858795 211.340973,422.886871 
	C209.178802,418.428253 206.705048,413.929352 203.500244,410.200195 
	C187.881973,392.026764 176.206314,371.398621 164.793991,350.500305 
	C162.060852,345.495331 157.268311,341.137726 152.487579,337.837250 
	C144.842041,332.558960 137.276016,334.074341 131.053482,340.937195 
	C128.824600,343.395447 126.705353,346.002472 124.882217,348.769684 
	C120.002274,356.176575 113.324570,360.742584 104.871735,363.505524 
	C90.462891,368.215210 87.228745,374.023224 89.679031,389.084778 
	C91.188545,398.363586 92.189400,407.502563 88.226814,416.559418 
	C87.072639,419.197327 86.968422,422.407318 86.869011,425.371368 
	C86.639366,432.218506 89.158356,436.054352 95.835510,437.922089 
	C101.244690,439.435120 106.878174,440.278564 112.466698,440.991638 
	C125.495613,442.654053 138.615433,443.808929 151.309738,450.160797 
M325.334015,345.027069 
	C323.879547,351.667542 321.535980,358.255981 321.143402,364.958649 
	C320.115234,382.511780 317.363617,399.635254 311.916290,416.375732 
	C310.229675,421.558960 309.282684,427.035492 308.499573,432.450439 
	C305.888428,450.505249 318.573303,464.754974 336.729919,464.181610 
	C350.793610,463.737488 362.083740,456.900635 370.948547,446.785919 
	C380.989624,435.329071 393.097534,427.320679 406.654480,420.964569 
	C411.758972,418.571350 416.804626,415.921936 421.499664,412.818268 
	C427.717102,408.708191 428.887085,403.951019 425.442596,397.302277 
	C423.470276,393.495117 420.431152,390.251495 418.326569,386.499390 
	C415.283081,381.073425 412.315796,375.554596 409.952637,369.813324 
	C408.132233,365.390747 407.632080,360.437347 405.948853,355.943207 
	C401.707275,344.618073 388.090973,341.388611 378.652740,348.779297 
	C374.268372,352.212555 369.223511,355.108307 364.047516,357.163086 
	C352.028778,361.934357 342.730438,357.660492 337.963257,345.643402 
	C336.578552,342.152863 335.847443,338.403015 334.328430,333.051819 
	C330.975800,337.460724 328.347931,340.916473 325.334015,345.027069 
M260.228668,140.140915 
	C249.478851,135.409592 239.195145,135.753250 229.678787,143.155853 
	C223.642960,147.851013 217.713455,152.684006 211.776184,157.504349 
	C207.248703,161.180069 206.157501,165.922272 209.575943,170.668930 
	C211.945419,173.959061 215.294037,176.600372 218.430771,179.266098 
	C221.706253,182.049759 225.421326,184.322601 228.648041,187.156052 
	C238.468414,195.779510 249.272644,197.238144 260.891571,191.214249 
	C268.098969,187.477493 275.312897,183.750748 282.454437,179.891022 
	C284.927582,178.554398 287.335205,177.009827 289.526428,175.253006 
	C299.796814,167.018768 298.342957,157.153839 286.286560,151.927979 
	C277.774475,148.238403 269.366638,144.308380 260.228668,140.140915 
M295.810760,124.099342 
	C294.539917,120.688858 293.674713,117.050560 291.914032,113.915146 
	C288.208862,107.317101 282.750061,102.882919 274.732178,103.006165 
	C266.939270,103.125969 261.742371,107.597176 258.079468,113.996155 
	C254.413635,120.400291 253.239166,127.343681 254.359131,134.621246 
	C257.896942,135.771484 261.283844,136.872665 263.668304,137.647919 
	C265.210815,132.633987 265.885437,127.537766 268.256775,123.418243 
	C271.754028,117.342796 278.436249,117.830048 281.624664,124.111755 
	C285.358246,131.467545 285.251190,138.815872 279.682953,145.825363 
	C283.080444,147.159882 286.391876,148.460617 289.585175,149.714935 
	C295.197449,142.620483 296.687500,136.642029 295.810760,124.099342 
M216.069901,109.389221 
	C205.380844,119.998962 205.485352,141.790176 216.401642,150.055740 
	C217.906769,148.889160 219.446655,147.695648 221.068176,146.438873 
	C216.254883,140.707779 215.080078,134.321655 217.334930,127.615128 
	C218.015152,125.591980 220.384323,123.015038 222.209076,122.818314 
	C223.983688,122.627007 226.916077,124.744698 227.804840,126.588531 
	C229.461792,130.026031 230.005203,134.000244 231.252365,138.646332 
	C233.768723,136.732483 238.277359,134.995422 238.485733,132.842224 
	C239.251114,124.933128 237.201355,117.312744 231.494263,111.263039 
	C227.044312,106.545914 222.848862,106.002586 216.069901,109.389221 
z"/>
<path fill="#1792D0" opacity="1.000000" stroke="none" 
	d="
M178.235992,242.207245 
	C175.287262,248.338852 172.263016,254.435486 169.405106,260.609131 
	C162.882935,274.698273 158.384796,289.210938 161.008530,305.017273 
	C162.124832,311.742218 164.369339,318.045898 168.776428,323.704498 
	C170.381577,314.154846 170.727371,304.635040 173.696091,296.018951 
	C179.528900,279.090332 186.567368,262.556854 193.575546,246.058945 
	C201.389633,227.663834 209.227020,209.320541 212.524155,189.437073 
	C212.980240,186.686539 213.241898,183.903763 213.757935,179.842300 
	C217.818527,182.841202 221.548035,184.959869 224.488327,187.874664 
	C238.963669,202.224411 253.878433,199.234726 266.363739,191.858276 
	C271.493256,188.827698 277.088135,186.590790 282.260681,183.625427 
	C287.090332,180.856705 291.640869,177.601105 296.202759,174.632355 
	C300.340668,186.519302 304.138550,199.052444 309.051575,211.132050 
	C315.185577,226.213608 321.895020,241.087585 328.988556,255.745056 
	C336.266724,270.784088 342.745209,286.050751 345.939270,302.500214 
	C347.168488,308.830658 352.234863,305.550110 356.116608,307.764038 
	C364.741119,277.320068 352.509979,253.943237 332.589813,231.990128 
	C351.246979,238.871933 368.153351,281.684143 364.418182,309.521820 
	C370.820465,313.582855 377.302429,317.300385 383.331421,321.646332 
	C387.957489,324.980957 390.931885,329.671753 390.086731,335.798492 
	C389.914032,337.050507 388.855286,338.180328 387.404633,339.163452 
	C387.886322,330.866333 383.332123,325.983398 377.187744,322.891937 
	C369.818665,319.184326 362.160095,315.678772 354.233917,313.546051 
	C344.325653,310.879974 338.465759,315.171692 335.782837,325.081238 
	C335.464020,326.258881 334.806763,327.820557 333.858429,328.280396 
	C320.881622,334.572510 317.798920,346.514282 315.926849,359.192780 
	C313.698456,374.284637 314.840149,389.888519 309.095367,404.438416 
	C308.454132,406.062592 307.740479,408.072723 306.424377,408.954468 
	C282.536560,424.958038 257.088776,431.360992 228.763168,422.098480 
	C216.120544,417.964325 208.472198,408.984283 202.155594,398.160370 
	C202.412506,397.923431 202.629623,397.541870 202.876099,397.521851 
	C215.292496,396.514496 218.235077,387.330994 213.277359,377.004822 
	C208.382874,366.810303 200.337784,359.333130 191.605515,352.547211 
	C187.404953,349.282959 182.985123,346.278656 178.516525,343.385315 
	C157.026474,329.470886 150.084259,311.590698 156.508606,286.786621 
	C160.689911,270.642914 168.347809,256.123535 177.433136,241.964783 
	C177.976654,241.985931 178.106323,242.096588 178.235992,242.207245 
z"/>
<path fill="#F5D231" opacity="1.000000" stroke="none" 
	d="
M150.955704,450.027496 
	C138.615433,443.808929 125.495613,442.654053 112.466698,440.991638 
	C106.878174,440.278564 101.244690,439.435120 95.835510,437.922089 
	C89.158356,436.054352 86.639366,432.218506 86.869011,425.371368 
	C86.968422,422.407318 87.072639,419.197327 88.226814,416.559418 
	C92.189400,407.502563 91.188545,398.363586 89.679031,389.084778 
	C87.228745,374.023224 90.462891,368.215210 104.871735,363.505524 
	C113.324570,360.742584 120.002274,356.176575 124.882217,348.769684 
	C126.705353,346.002472 128.824600,343.395447 131.053482,340.937195 
	C137.276016,334.074341 144.842041,332.558960 152.487579,337.837250 
	C157.268311,341.137726 162.060852,345.495331 164.793991,350.500305 
	C176.206314,371.398621 187.881973,392.026764 203.500244,410.200195 
	C206.705048,413.929352 209.178802,418.428253 211.340973,422.886871 
	C219.571381,439.858795 209.889481,456.971039 191.110123,459.024567 
	C176.833542,460.585754 163.808304,456.564606 150.955704,450.027496 
z"/>
<path fill="#F5D231" opacity="1.000000" stroke="none" 
	d="
M325.527039,344.699646 
	C328.347931,340.916473 330.975800,337.460724 334.328430,333.051819 
	C335.847443,338.403015 336.578552,342.152863 337.963257,345.643402 
	C342.730438,357.660492 352.028778,361.934357 364.047516,357.163086 
	C369.223511,355.108307 374.268372,352.212555 378.652740,348.779297 
	C388.090973,341.388611 401.707275,344.618073 405.948853,355.943207 
	C407.632080,360.437347 408.132233,365.390747 409.952637,369.813324 
	C412.315796,375.554596 415.283081,381.073425 418.326569,386.499390 
	C420.431152,390.251495 423.470276,393.495117 425.442596,397.302277 
	C428.887085,403.951019 427.717102,408.708191 421.499664,412.818268 
	C416.804626,415.921936 411.758972,418.571350 406.654480,420.964569 
	C393.097534,427.320679 380.989624,435.329071 370.948547,446.785919 
	C362.083740,456.900635 350.793610,463.737488 336.729919,464.181610 
	C318.573303,464.754974 305.888428,450.505249 308.499573,432.450439 
	C309.282684,427.035492 310.229675,421.558960 311.916290,416.375732 
	C317.363617,399.635254 320.115234,382.511780 321.143402,364.958649 
	C321.535980,358.255981 323.879547,351.667542 325.527039,344.699646 
z"/>
<path fill="#F1CF30" opacity="1.000000" stroke="none" 
	d="
M260.570465,140.313324 
	C269.366638,144.308380 277.774475,148.238403 286.286560,151.927979 
	C298.342957,157.153839 299.796814,167.018768 289.526428,175.253006 
	C287.335205,177.009827 284.927582,178.554398 282.454437,179.891022 
	C275.312897,183.750748 268.098969,187.477493 260.891571,191.214249 
	C249.272644,197.238144 238.468414,195.779510 228.648041,187.156052 
	C225.421326,184.322601 221.706253,182.049759 218.430771,179.266098 
	C215.294037,176.600372 211.945419,173.959061 209.575943,170.668930 
	C206.157501,165.922272 207.248703,161.180069 211.776184,157.504349 
	C217.713455,152.684006 223.642960,147.851013 229.678787,143.155853 
	C239.195145,135.753250 249.478851,135.409592 260.570465,140.313324 
M218.606277,167.829163 
	C216.942245,165.993896 215.278229,164.158630 213.614197,162.323364 
	C213.254700,162.548798 212.895218,162.774246 212.535736,162.999695 
	C212.878204,164.154297 212.873749,165.645584 213.616867,166.411407 
	C221.003006,174.022980 228.978653,181.203568 240.087997,181.979126 
	C258.368042,183.255280 272.435577,173.916672 285.336853,162.361130 
	C285.958405,161.804413 285.965820,160.562088 286.578064,158.635956 
	C284.824249,159.604202 283.983093,159.842789 283.465179,160.388275 
	C275.256134,169.034317 265.132416,174.554276 254.007431,178.388031 
	C246.271851,181.053772 238.511093,180.940918 231.308899,176.920944 
	C226.997009,174.514206 223.186005,171.210022 218.606277,167.829163 
z"/>
<path fill="#FAFAFA" opacity="1.000000" stroke="none" 
	d="
M295.869873,124.540230 
	C296.687500,136.642029 295.197449,142.620483 289.585175,149.714935 
	C286.391876,148.460617 283.080444,147.159882 279.682953,145.825363 
	C285.251190,138.815872 285.358246,131.467545 281.624664,124.111755 
	C278.436249,117.830048 271.754028,117.342796 268.256775,123.418243 
	C265.885437,127.537766 265.210815,132.633987 263.668304,137.647919 
	C261.283844,136.872665 257.896942,135.771484 254.359131,134.621246 
	C253.239166,127.343681 254.413635,120.400291 258.079468,113.996155 
	C261.742371,107.597176 266.939270,103.125969 274.732178,103.006165 
	C282.750061,102.882919 288.208862,107.317101 291.914032,113.915146 
	C293.674713,117.050560 294.539917,120.688858 295.869873,124.540230 
z"/>
<path fill="#F7F7F7" opacity="1.000000" stroke="none" 
	d="
M216.381592,109.180267 
	C222.848862,106.002586 227.044312,106.545914 231.494263,111.263039 
	C237.201355,117.312744 239.251114,124.933128 238.485733,132.842224 
	C238.277359,134.995422 233.768723,136.732483 231.252365,138.646332 
	C230.005203,134.000244 229.461792,130.026031 227.804840,126.588531 
	C226.916077,124.744698 223.983688,122.627007 222.209076,122.818314 
	C220.384323,123.015038 218.015152,125.591980 217.334930,127.615128 
	C215.080078,134.321655 216.254883,140.707779 221.068176,146.438873 
	C219.446655,147.695648 217.906769,148.889160 216.401642,150.055740 
	C205.485352,141.790176 205.380844,119.998962 216.381592,109.180267 
z"/>
<path fill="#1792D0" opacity="1.000000" stroke="none" 
	d="
M177.653961,241.707489 
	C177.788712,241.012680 178.116455,240.485626 178.960800,239.127853 
	C178.826462,240.640610 178.775589,241.213348 178.480362,241.996674 
	C178.106323,242.096588 177.976654,241.985931 177.653961,241.707489 
z"/>
<path fill="#181505" opacity="1.000000" stroke="none" 
	d="
M218.878082,168.069199 
	C223.186005,171.210022 226.997009,174.514206 231.308899,176.920944 
	C238.511093,180.940918 246.271851,181.053772 254.007431,178.388031 
	C265.132416,174.554276 275.256134,169.034317 283.465179,160.388275 
	C283.983093,159.842789 284.824249,159.604202 286.578064,158.635956 
	C285.965820,160.562088 285.958405,161.804413 285.336853,162.361130 
	C272.435577,173.916672 258.368042,183.255280 240.087997,181.979126 
	C228.978653,181.203568 221.003006,174.022980 213.616867,166.411407 
	C212.873749,165.645584 212.878204,164.154297 212.535736,162.999695 
	C212.895218,162.774246 213.254700,162.548798 213.614197,162.323364 
	C215.278229,164.158630 216.942245,165.993896 218.878082,168.069199 
z"/>
</svg>