<svg xmlns="http://www.w3.org/2000/svg" id="a" version="1.1" viewBox="0 0 1280 720"><g id="b"><rect id="c" x="14.4" y="14.4" width="60" height="691.2" fill="#dc3545" style="paint-order:stroke fill markers"/><rect id="d" x="74.4" width="1205.6" height="720" fill="#0d6efd" style="paint-order:stroke fill markers"/><path id="e" d="m746.91 192.79-146.54 50.761v58.8l76.256-22.28v247.14h77.405v-334.42z" direction="rtl" fill="#fff" style="paint-order:stroke fill markers;shape-inside:url(#rect3);white-space:pre"/><path id="f" d="m21.644 286.41v14.189c0 2.92 0.50046 5.6009 1.5005 8.0409 1.02 2.46 2.46 4.59 4.32 6.39 1.86 1.8 4.0705 3.1895 6.6305 4.1695 2.56 1 5.38 1.5005 8.46 1.5005h1.8295c3.1 0 5.92-0.50046 8.46-1.5005 2.56-0.98 4.7705-2.3805 6.6305-4.2005 1.88-1.8 3.32-3.9395 4.32-6.4195 1.02-2.46 1.53-5.1695 1.53-8.1295v-14.04zm8.1 10.53h27.45v3.51c0 1.54-0.27 2.8995-0.81 4.0795-0.54 1.2-1.35 2.1995-2.43 2.9995-1.06 0.8-2.3895 1.4-3.9895 1.8-1.58 0.42-3.4195 0.63-5.5195 0.63h-1.89c-2.8 0-5.1605-0.36953-7.0805-1.1095-1.9-0.72-3.3305-1.7795-4.2905-3.1795-0.96-1.38-1.44-3.0709-1.44-5.0709zm7.8005 30.72c-2.36 0-4.55 0.33952-6.57 1.0195-2 0.68-3.7495 1.6809-5.2495 3.0009-1.48 1.32-2.6309 2.9591-3.4509 4.9191-0.82 1.96-1.2291 4.21-1.2291 6.75s0.40906 4.7805 1.2291 6.7205c0.82 1.94 1.9709 3.5695 3.4509 4.8895 1.5 1.32 3.2495 2.3209 5.2495 3.0009 2.02 0.68 4.21 1.0195 6.57 1.0195h0.63c2.38 0 4.57-0.33954 6.57-1.0195 2.02-0.67999 3.7695-1.6809 5.2495-3.0009 1.48-1.32 2.6309-2.9591 3.4509-4.9191 0.84-1.94 1.26-4.19 1.26-6.75 0-2.54-0.42-4.7805-1.26-6.7205-0.82-1.94-1.9709-3.5695-3.4509-4.8895-1.48-1.32-3.2295-2.3209-5.2495-3.0009-2-0.68001-4.19-1.0195-6.57-1.0195zm0 10.11h0.63c1.18 0 2.29 0.09 3.33 0.27 1.06 0.18 1.99 0.47999 2.79 0.9 0.82 0.42 1.4595 0.98047 1.9195 1.6805 0.46 0.72 0.69046 1.6105 0.69046 2.6705 0 1.08-0.23046 1.98-0.69046 2.7-0.46 0.72-1.0995 1.29-1.9195 1.71-0.8 0.42-1.73 0.72-2.79 0.9-1.04 0.18-2.15 0.27-3.33 0.27h-0.63c-1.22 0-2.36-0.09-3.42-0.27-1.06-0.18-1.99-0.48-2.79-0.9-0.78-0.41999-1.3895-0.99-1.8295-1.71-0.44-0.69999-0.66094-1.5809-0.66094-2.6409 0-1.08 0.22094-1.98 0.66094-2.7s1.0495-1.29 1.8295-1.71c0.8-0.42001 1.73-0.72 2.79-0.9 1.06-0.18 2.2-0.27 3.42-0.27zm-0.02953 27.661c-2.34 0-4.5109 0.30954-6.5109 0.92954-2 0.64-3.7495 1.5905-5.2495 2.8505-1.48 1.28-2.6405 2.87-3.4805 4.77-0.82 1.9-1.2291 4.12-1.2291 6.66 0 2.6 0.49906 4.9291 1.4991 6.9891 1.02 2.08 2.4409 3.7205 4.2609 4.9205 1.84 1.22 3.9795 1.82 6.4195 1.8v-9.5105c-0.91999 0.02-1.7095-0.14907-2.3695-0.50907-0.64-0.33999-1.1405-0.85-1.5005-1.53-0.34-0.66-0.51046-1.4605-0.51046-2.4005 0-1.06 0.22094-1.9095 0.66094-2.5495 0.46-0.64 1.0791-1.1309 1.8591-1.4709 0.8-0.34 1.7205-0.56906 2.7605-0.68907 1.06-0.1 2.1905-0.15046 3.3905-0.15046h0.68906c1.18 0 2.29 0.0505 3.33 0.15046 1.04 0.12001 1.9605 0.33953 2.7605 0.65954 0.82 0.33999 1.4595 0.82953 1.9195 1.4695s0.69046 1.48 0.69046 2.52c0 1.04-0.24 1.8909-0.72 2.5509-0.46 0.68-1.0805 1.1791-1.8605 1.4991-0.78 0.32-1.6595 0.47-2.6395 0.45v9.5105c2.76 0.02 5.1095-0.55954 7.0495-1.7395 1.94-1.18 3.4209-2.8109 4.4409-4.8909 1.02-2.06 1.53-4.4395 1.53-7.1395 0-2.52-0.42-4.7305-1.26-6.6305-0.82-1.88-1.9805-3.4591-3.4805-4.7391-1.48-1.26-3.2295-2.2105-5.2495-2.8505-2-0.62-4.1709-0.92954-6.5109-0.92954zm-15.871 36.54v10.11h9.27l2.835 2.835-12.105 7.0945v11.58l19.101-12.144 13.359 11.395v-12.12l-9.4795-7.6205-1.3275-1.0195h24.458v-10.11z" direction="rtl" fill="#fff" style="paint-order:stroke fill markers;shape-inside:url(#rect4);white-space:pre"/></g></svg>